<?xml version="1.0" encoding="UTF-8"?>
<svg width="180px" height="180px" viewBox="0 0 180 180" version="1.1" xmlns="http://www.w3.org/2000/svg" xmlns:xlink="http://www.w3.org/1999/xlink">
    <!-- Generator: Sketch 59.1 (86144) - https://sketch.com -->
    <title>Group 3 Copy 5</title>
    <desc>Created with Sketch.</desc>
    <g id="iPad" stroke="none" stroke-width="1" fill="none" fill-rule="evenodd">
        <g id="Group-3-Copy-5">
            <g id="Group">
                <rect id="Rectangle" stroke="#979797" stroke-width="0.762711864" fill="#FFFFFF" fill-rule="nonzero" x="0.381355932" y="0.381355932" width="179.237288" height="179.237288" rx="40"></rect>
                <g id="Group-2" transform="translate(30.000000, 38.000000)" fill="#026BB0">
                    <polygon id="Fill-3" points="58.5928301 16.6461328 58.5989824 16.6524609 29.7654082 33.298418 29.7654082 33.2922656 29.7592559 33.2922656 0.937986328 16.6524609 29.7654082 -1.84741111e-13"></polygon>
                    <polygon id="Fill-4" points="58.5990176 87.5514727 30.6972598 103.659891 30.6972598 71.4432305"></polygon>
                    <polygon id="Fill-5" points="-1.0658141e-13 87.0138281 -1.0658141e-13 18.2719336 90.2341406 70.3676953 90.2341406 103.659785 28.8335742 68.2101562 28.8335742 103.659785"></polygon>
                    <polygon id="Fill-6" points="90.2341406 32.7543926 62.3446875 16.6523027 90.2341406 0.544060547"></polygon>
                    <polygon id="Fill-7" points="120.9375 17.190123 120.9375 87.0137754 92.1039258 103.659908 92.1039258 69.2858848 31.6351758 34.3739707 60.46875 17.7280137 60.4750781 17.7280137 92.1039258 35.9936191 92.1039258 0.543990234"></polygon>
                </g>
            </g>
        </g>
    </g>
</svg>