<svg xmlns="http://www.w3.org/2000/svg" width="460" height="227" viewBox="0 0 460 227">
    <g fill="none" fill-rule="evenodd">
        <path fill="#D8D8D8" d="M247 212.024c54.82.122 122.487.456 203 1H0c109.846-.788 192.18-1.121 247-1z" transform="translate(-1)"/>
        <g>
            <path fill="#515151" d="M8.494 161.739L355.591 161.739 355.591 149.616 8.494 149.616zM8.494 212.655L355.591 212.655 355.591 200.532 8.494 200.532z" transform="translate(-1) translate(46)"/>
            <path fill="#EBEBEB" d="M221.88 200.532L355.591 200.532 355.591 161.739 221.88 161.739z" transform="translate(-1) translate(46)"/>
            <path fill="#000" d="M221.88 200.532h133.711V161.74H221.88v38.793zm.238-.237h133.236v-38.318H222.118v38.318z" transform="translate(-1) translate(46)"/>
            <path fill="#000" d="M8.494 200.532h213.654V161.74H8.494v38.793zm.238-.237H221.91v-38.318H8.732v38.318z" transform="translate(-1) translate(46)"/>
            <path fill="#000" d="M222.148 172.218H8.494c-.065 0-.119-.053-.119-.119s.054-.118.12-.118h213.653c.066 0 .118.052.118.118s-.052.12-.118.12M193.026 181.497H78.829c-.066 0-.119-.053-.119-.12 0-.065.053-.118.119-.118h114.197c.065 0 .119.053.119.119s-.054.119-.119.119M115.321 190.775H8.494c-.066 0-.119-.053-.119-.119s.053-.119.12-.119H115.32c.066 0 .119.053.119.12 0 .065-.053.118-.119.118M301.512 190.775H221.88c-.066 0-.119-.053-.119-.119s.053-.119.119-.119h79.632c.066 0 .119.053.119.12 0 .065-.053.118-.119.118M354.328 180.899h-79.632c-.066 0-.12-.054-.12-.12 0-.065.054-.119.12-.119h79.632c.066 0 .12.054.12.119 0 .066-.054.12-.12.12" transform="translate(-1) translate(46)"/>
            <path fill="#E51E74" d="M357.433 78.107l-4.627-.697-1.823 2.737 4.473 7.593c-46.284 12.044-37.748-13.925-37.748-13.925l-19.48-3.714s1.68-33.01 29.146-34.023c0 0 1.76 5.973 7.157 5.845 4.774-.113 4.97-4.412 4.97-4.412s14.58 4.412 21.577 18.376l-5.39 11.604s.704 3.95 1.745 10.616M356.503 96.001c-.435 6.122-1.394 12.25-3.245 17.268h-38.443l.573-12.562c8.568 2.407 21.55 1.785 41.115-4.706" transform="translate(-1) translate(46)"/>
            <path fill="#515151" d="M401.569 211.372L414.74 225.43 389.372 218.777 392.024 211.048 401.569 211.372M370.27 211.372L383.398 226.153 358.03 219.501 360.82 211.372 370.27 211.372" transform="translate(-1) translate(46)"/>
            <path fill="#000" d="M335.276 32.865h1.726c4.103 0 7.44-3.337 7.44-7.44v-12.73c0-.095-.077-.172-.172-.172-.094 0-.171.077-.171.172l-.001 12.73c0 3.913-3.183 7.096-7.096 7.096h-1.726c-.094 0-.172.077-.172.172 0 .095.078.172.172.172" transform="translate(-1) translate(46)"/>
            <path fill="#000" d="M334.3 42.094c.704 0 1.412-.137 2.088-.418 1.748-.723 2.974-2.27 3.283-4.137l.002-5.287c0-.095-.077-.172-.173-.172-.094 0-.171.077-.171.172v5.26c-.286 1.72-1.435 3.169-3.073 3.847-1.637.678-3.474.466-4.914-.567-.011-.008-.022-.014-.034-.019-1.704-.707-3.502-4.367-3.69-4.758l-.072-12.993c0-.094-.077-.17-.172-.17-.096 0-.172.077-.172.172l.073 13.032c0 .024.006.049.015.071.08.17 1.959 4.143 3.867 4.956.94.669 2.035 1.011 3.144 1.011" transform="translate(-1) translate(46)"/>
            <path fill="#000" d="M326.129 24.712c.703 0 1.236-.113 1.283-.124.092-.02.15-.112.13-.204-.02-.093-.111-.152-.205-.132-.023.005-2.336.494-3.655-.623-.668-.566-.977-1.459-.917-2.653.061-1.23.442-2.063 1.132-2.48 1.29-.778 3.261.122 3.28.131.087.041.189.003.23-.083.04-.086.002-.189-.084-.229-.088-.04-2.159-.985-3.604-.113-.794.479-1.231 1.406-1.298 2.756-.065 1.308.284 2.296 1.04 2.935.783.662 1.843.819 2.668.819M338.79 25.112c.036 0 .072-.01.103-.034l1.327-.997c.285-.214.468-.54.503-.896.034-.355-.083-.71-.321-.976l-1.023-1.135.13-2.832c.003-.095-.07-.175-.165-.18-.093-.008-.175.07-.18.165l-.132 2.902c-.002.045.014.09.044.123l1.07 1.187c.176.197.26.45.234.713-.025.263-.156.495-.367.654l-1.326.997c-.077.057-.091.165-.035.24.034.046.085.07.138.07M335.816 16.815c.035 0 .07-.01.101-.033.077-.056.094-.163.037-.24-.01-.013-1.034-1.39-2.782-.536-.087.042-.122.145-.08.23.041.086.144.121.23.08 1.484-.725 2.32.381 2.355.429.034.046.085.07.14.07M342.386 16.815c.045 0 .09-.017.123-.05.066-.068.066-.176-.001-.243-.012-.013-1.244-1.207-2.834-.086-.078.054-.097.162-.042.24.056.077.164.096.24.04 1.35-.951 2.351.008 2.393.05.034.033.077.05.121.05" transform="translate(-1) translate(46)"/>
            <path fill="#000" d="M323.56 21.623c.086 0 .16-.063.171-.15.125-.968.468-1.644 1.018-2.01.726-.483 1.575-.258 1.584-.256.092.025.186-.028.211-.12.025-.092-.029-.187-.12-.212-.04-.01-1.01-.268-1.866.301-.636.424-1.03 1.181-1.169 2.253-.012.094.055.18.149.192l.023.002" transform="translate(-1) translate(46)"/>
            <path fill="#000" d="M326.236 22.59c.013 0 .027-.001.04-.005.093-.022.15-.116.126-.208-.47-1.91-2.144-2.656-2.215-2.687-.087-.037-.19.002-.227.09-.037.086.003.188.09.226.016.007 1.59.712 2.019 2.454.019.078.09.13.167.13M385.068 211.22h25.822c.046 0 .09-.019.123-.052.033-.034.05-.08.05-.125l-2.329-78.942c.237-3.73-.52-6.52-2.25-8.279-1.483-1.508-3.628-2.207-6.378-2.08h-22.438c-.095 0-.172.077-.172.173 0 .095.077.172.172.172h22.446c2.654-.124 4.713.541 6.124 1.976 1.659 1.686 2.384 4.389 2.153 8.032l2.322 78.781h-25.477l-1.688-56.228c-.004-.096-.084-.168-.178-.168-.095.003-.17.083-.167.177l1.693 56.396c.003.093.08.166.172.166M357.433 78.28c.009 0 .016-.001.024-.003.095-.013.16-.1.147-.194-1.74-12.057-3.189-17.164-3.203-17.214-.027-.092-.124-.144-.214-.118-.091.026-.144.122-.117.213.014.05 1.459 5.14 3.193 17.168.012.085.086.147.17.147" transform="translate(-1) translate(46)"/>
            <path fill="#000" d="M355.883 211.22h23.267c.09 0 .165-.07.171-.159l5.993-79.976c.182-2.439-.634-4.77-2.297-6.562-1.663-1.793-3.926-2.78-6.37-2.78h-27.345c-.095 0-.172.076-.172.172 0 .095.077.172.172.172h27.344c2.349 0 4.522.948 6.12 2.67 1.596 1.722 2.38 3.96 2.205 6.301l-5.981 79.818h-22.934v-61.173c0-.05-.022-.095-.058-.128-.036-.032-.085-.048-.132-.043-18.08 1.824-30.583-1.369-37.164-9.494-8.297-10.245-4.199-25.11-3.76-26.596h46.136c.048 0 .093-.02.126-.055.032-.035.049-.083.045-.13-.315-4.328-.665-8.56-1.034-12.574-.01-.095-.093-.164-.187-.157-.095.009-.165.093-.156.188.364 3.956.709 8.123 1.02 12.384h-46.077c-.074 0-.14.048-.163.12-.052.16-5.032 16.154 3.782 27.037 6.636 8.192 19.178 11.435 37.277 9.638v61.155c0 .095.077.171.172.171M334.424 19.38c.83 0 1.494-.763 1.522-.797.062-.072.054-.18-.018-.242s-.181-.054-.242.018c-.006.007-.616.714-1.314.675-.362-.019-.693-.241-.984-.66-.054-.079-.161-.098-.24-.044-.077.054-.098.161-.042.24.355.512.776.784 1.25.808l.068.002M341.579 19.38c.83 0 1.494-.763 1.523-.797.06-.072.052-.18-.02-.242s-.18-.054-.242.018c-.006.007-.623.713-1.313.675-.362-.019-.693-.241-.985-.66-.054-.079-.16-.098-.239-.044-.078.054-.097.161-.043.24.355.512.776.784 1.25.808l.069.002M337.717 28.934c.912 0 1.63-.251 1.647-.257.088-.032.135-.13.103-.22-.033-.09-.131-.136-.221-.104-.136.05-3.348 1.168-4.556-1.74-.036-.087-.138-.129-.225-.092-.087.036-.13.137-.093.225.745 1.79 2.198 2.188 3.345 2.188" transform="translate(-1) translate(46)"/>
            <path fill="#000" d="M361.078 121.827c.094 0 .172-.077.172-.173v-8.385c0-.094-.078-.171-.172-.171-.095 0-.172.077-.172.171v8.385c0 .096.077.173.172.173M317.708 73.988c.08 0 .154-.058.17-.14.018-.094-.045-.184-.137-.201l-19.333-3.687c.057-1.12.559-8.477 4-15.977 3.426-7.463 10.552-16.602 25.052-17.757.094-.007.165-.09.158-.185-.007-.095-.09-.164-.185-.158-14.671 1.168-21.878 10.415-25.341 17.967-3.746 8.167-4.032 16.166-4.035 16.246-.002.085.057.159.14.174l19.479 3.714c.01.002.022.004.032.004M314.815 113.442c.091 0 .168-.072.172-.164l.573-12.564c.004-.095-.07-.175-.164-.18-.092-.005-.175.07-.18.164l-.572 12.564c-.005.095.068.175.163.179l.008.001M350.983 80.319c.055 0 .11-.027.144-.077l1.76-2.645 18.071 2.72c.03.004.06 0 .086-.009l14.209-5.311-1.27 2.331c-.045.084-.015.188.069.234.084.045.187.014.232-.07l1.492-2.736c.035-.063.026-.14-.022-.195-.046-.054-.122-.074-.19-.048l-14.598 5.457-18.135-2.73c-.067-.008-.132.02-.169.075l-1.822 2.737c-.052.079-.03.185.048.238.03.02.063.029.095.029" transform="translate(-1) translate(46)"/>
            <path fill="#000" d="M375.04 78.803c.03 0 .058-.008.085-.023.083-.046.113-.15.066-.234-5.142-9.168-14.731-20.356-14.827-20.468-.063-.072-.17-.08-.243-.018-.072.062-.08.17-.018.242.096.112 9.663 11.275 14.788 20.413.031.056.09.088.15.088" transform="translate(-1) translate(46)"/>
            <path fill="#E51E74" d="M359.777 94.882l4.467.666c.612.091 1.184-.331 1.275-.943.091-.614-.331-1.185-.943-1.276l-4.468-.666-.016.002 5.41-1.354c.742-.185 1.193-.937 1.007-1.68-.186-.741-.939-1.192-1.68-1.006l-5.41 1.354-.084-.026 5.221-2.748c.68-.353.942-1.19.59-1.867-.353-.679-1.19-.943-1.869-.59l-4.734 2.495 1.46-2.937c.326-.654.044-1.448-.621-1.75-.637-.29-1.388-.02-1.696.61l-2.23 4.574c-4.144 1.079-7.846 1.85-11.157 2.366l5.997-9.96h36l-3.807 6.325c-.535-.84-1.341-1.374-2.491-1.374h-4.564c-.91 0-1.647.737-1.647 1.647s.738 1.648 1.647 1.648h-1.821c-.91 0-1.648.738-1.648 1.648 0 .91.738 1.648 1.648 1.648h1.106c-.91 0-1.649.739-1.649 1.648 0 .911.738 1.648 1.65 1.648h2.644l-2.98 4.95h-31.9c5.143-1.144 10.881-2.796 17.293-5.052" transform="translate(-1) translate(46)"/>
            <path fill="#000" d="M359.07 100.105c.058 0 .115-.028.148-.082l2.848-4.733c.05-.082.024-.187-.057-.237-.082-.049-.187-.022-.237.06l-2.85 4.732c-.049.082-.022.187.06.236.027.017.058.024.088.024M365.808 88.915c.058 0 .115-.03.148-.083l5.136-8.53 16.303-3.097-2.36 2.832c-.062.073-.052.181.021.242s.181.051.242-.022l2.668-3.2c.047-.057.053-.136.017-.198-.037-.062-.11-.095-.181-.082l-16.85 3.2c-.049.01-.09.04-.116.081l-5.176 8.596c-.049.082-.022.188.06.236.027.017.058.025.088.025" transform="translate(-1) translate(46)"/>
            <path fill="#000" d="M344.845 100.105h29.538c.061 0 .117-.03.148-.082l2.98-4.95c.05-.08.023-.188-.058-.236-.082-.05-.187-.022-.237.06l-2.93 4.865h-29.44c-.096 0-.174.077-.174.172 0 .095.078.171.173.171M344.604 89.77c.059 0 .115-.03.148-.083l5.64-9.368h35.601l-3.65 6.063c-.05.082-.023.187.059.236.08.05.186.023.235-.058l3.807-6.324c.033-.053.034-.12.003-.174-.03-.054-.088-.087-.15-.087h-36.001c-.062 0-.117.032-.148.083l-5.692 9.452c-.048.081-.022.187.06.236.027.017.058.025.088.025M355.687 67.663c.066 0 .127-.037.157-.1l5.39-11.604c.022-.048.021-.104-.003-.151l-.061-.131c-1.42-3.101-3.523-5.727-5.036-7.383-4.26-4.662-9.836-8.343-16.571-10.943-.089-.035-.189.01-.222.098-.035.089.01.189.098.223 3.733 1.44 16.313 7.009 21.418 18.148.012.025.021.048.031.067l-5.356 11.532c-.04.086-.003.188.083.228.024.01.048.016.072.016" transform="translate(-1) translate(46)"/>
            <path fill="#515151" d="M324.58 10.745c.115-3.07.474-6.325 9.945-7.058C335.652 1.499 337.927 0 340.556 0c3.748 0 6.785 3.037 6.785 6.784 0 2.223-1.074 4.19-2.726 5.428-.11.196-.227.362-.345.483-1.47 1.515-6.23 1.32-8.781.631-1.163-.313-2.213-.883-3.306-1.164-2.196-.564-4.357 1.057-4.542 3.317l-.226 3.221s-1.097-.774-2.366-.838c0 0-.541-5.145-.468-7.117" transform="translate(-1) translate(46)"/>
            <path fill="#000" d="M325.649 102.23c9.147 0 20.55-2.391 34.146-7.172l4.424.66c.342.05.683-.035.96-.24.279-.205.459-.506.51-.848.05-.342-.035-.683-.24-.961-.205-.278-.507-.459-.848-.51l-3.617-.54 4.559-1.14c.404-.102.744-.354.957-.71.214-.357.276-.776.176-1.18-.21-.832-1.055-1.34-1.89-1.131l-4.272 1.07 4.123-2.17c.368-.192.64-.516.765-.913.125-.396.088-.818-.104-1.187-.192-.369-.516-.641-.912-.766-.397-.125-.818-.088-1.188.104l-4.262 2.246 1.221-2.46c.179-.358.203-.763.07-1.14-.135-.378-.41-.678-.774-.843-.727-.33-1.571-.028-1.921.69l-2.196 4.505c-18.041 4.685-29.874 4.2-35.171-1.438-4.633-4.933-2.317-12.214-2.293-12.287l4.876-14.89c.03-.09-.019-.187-.109-.216-.091-.03-.188.02-.217.11l-4.877 14.889c-.025.075-2.406 7.544 2.367 12.627 5.396 5.748 17.37 6.258 35.588 1.518.048-.013.089-.046.11-.091l2.231-4.575c.268-.55.913-.781 1.469-.529.28.127.49.356.593.644.102.289.083.6-.053.873l-1.46 2.937c-.034.067-.02.148.033.2.054.052.135.064.2.03l4.735-2.495c.286-.15.615-.178.924-.08.31.097.561.309.711.596.149.287.178.616.08.925-.097.309-.308.561-.596.71l-5.222 2.75c-.063.032-.099.099-.091.168.007.07.055.129.122.149l.084.025c.03.009.061.01.091.002l5.41-1.355c.648-.16 1.309.234 1.471.883.078.314.03.64-.137.918-.167.277-.43.474-.745.552l-5.41 1.355c-.088.022-.145.11-.127.2.018.088.099.148.185.138l4.441.662c.252.038.473.17.624.375.15.204.214.453.175.705-.037.25-.17.472-.374.623-.203.151-.454.213-.704.175l-4.467-.666c-.027-.003-.056 0-.083.009-26.07 9.174-44.03 9.547-53.382 1.106-9.98-9.007-6.229-25.188-6.19-25.35.022-.093-.035-.186-.128-.208-.09-.022-.184.035-.206.127-.04.165-3.836 16.544 6.294 25.687 4.54 4.098 11.075 6.147 19.54 6.147M373.613 91.86h5.181c.095 0 .172-.076.172-.172 0-.095-.077-.172-.172-.172h-5.181c-.814 0-1.476-.662-1.476-1.476 0-.813.662-1.475 1.476-1.475h5.181c.095 0 .172-.077.172-.173 0-.095-.077-.171-.172-.171h-5.181c-1.003 0-1.82.816-1.82 1.82 0 1.003.817 1.82 1.82 1.82" transform="translate(-1) translate(46)"/>
            <path fill="#000" d="M374.72 95.157h5.334c1.664 0 3.1-1.24 3.34-2.884.398-2.719-.002-5.08-1.07-6.316-.592-.685-1.374-1.033-2.326-1.033h-4.564c-1.003 0-1.82.817-1.82 1.82 0 1.004.817 1.82 1.82 1.82h3.36c.095 0 .172-.076.172-.172 0-.095-.077-.171-.172-.171h-3.36c-.813 0-1.476-.663-1.476-1.476 0-.814.663-1.476 1.476-1.476h4.564c.847 0 1.542.307 2.065.913 1.005 1.162 1.374 3.42.991 6.041-.217 1.476-1.506 2.59-3 2.59h-5.335c-.813 0-1.476-.663-1.476-1.477 0-.813.663-1.476 1.476-1.476h4.075c.095 0 .172-.076.172-.172 0-.095-.077-.172-.172-.172h-4.075c-1.004 0-1.82.817-1.82 1.82 0 1.003.816 1.82 1.82 1.82" transform="translate(-1) translate(46)"/>
            <path fill="#026BB0" d="M96.088 72.082l8.115 15.957-6.906 4.901s2.529 4.813 6.129 5.867l.74 21.53 17.941 3.435s15.477-62.985-1.478-65.01c-11.292-1.35-24.541 13.32-24.541 13.32" transform="translate(-1) translate(46)"/>
            <path fill="#515151" d="M7.488 144.59c4.023 2.291 10.527-2.737 10.527-2.737l2.147 7.33L0 149.154l7.488-4.563" transform="translate(-1) translate(46)"/>
            <path fill="#000" d="M125.36 124.743c-.013 0-.025-.002-.038-.004l-21.192-4.22c-.084-.015-.146-.088-.15-.174l-.737-21.424c-.767-.41-5.526-3.068-6.128-5.942-.02-.101.043-.2.144-.221.102-.024.199.043.22.144.605 2.89 5.978 5.712 6.032 5.74.06.03.098.092.1.159l.736 21.383 20.88 4.157c.47-1.662 4.335-15.586 5.999-30.035 1.621-14.083 1.43-31.557-8.69-34.827-.098-.032-.152-.137-.12-.235.032-.097.136-.15.234-.12 4.592 1.484 7.593 5.873 8.922 13.043 1.054 5.696 1.063 13.16.024 22.186-1.77 15.35-6.016 30.108-6.058 30.255-.024.08-.097.135-.179.135" transform="translate(-1) translate(46)"/>
            <path fill="#000" d="M87.541 95.167c-5.653-1.35-10.412-8.965-14.145-22.634-2.674-9.794-3.827-19.341-3.913-20.076-.31-.471-2.966-4.65-2.257-7.843.245-1.099.865-1.957 1.845-2.55.087-.053.202-.024.255.064.053.088.025.202-.063.255-.889.538-1.452 1.316-1.673 2.31-.703 3.161 2.198 7.551 2.227 7.595.017.025.027.053.03.083.045.392 4.601 39.287 17.78 42.434 8.271 1.974 18.154-8.835 18.253-8.945.07-.076.187-.082.262-.013.077.069.083.186.015.263-.025.027-2.544 2.8-6.07 5.287-2.74 1.932-6.577 4.02-10.364 4.02-.732 0-1.462-.078-2.182-.25z" transform="translate(-1) translate(46)"/>
            <path fill="#000" d="M89.665 84.813h-.003c-.104-.002-.185-.087-.183-.19l.11-5.231c.003-.102.086-.183.187-.183h.003c.103.003.185.088.183.19l-.11 5.232c-.003.101-.086.182-.187.182M7.488 144.777c-.061 0-.122-.03-.157-.087-.055-.086-.03-.201.058-.257l5.502-3.483 3.63-5.982c.053-.088.167-.115.255-.063.088.053.116.168.063.256l-3.652 6.02c-.015.023-.035.045-.06.06l-5.54 3.507c-.03.019-.065.029-.099.029" transform="translate(-1) translate(46)"/>
            <path fill="#515151" d="M117.275 36.36s-8 .096-13.084-5.314c0 0 .073-6.879 8.572-7.878.301.001 6.348.107 8.703 6.35 2.417 6.404 3.846 12.791 3.846 12.791s3.66-1.747 4.162 2.775l1.619.812c-.004.077-.004.15-.009.23 0 0 3.784 3.802-1.278 7.959-5.061 4.156-10.26-.821-11.539-3.543-1.278-2.722-.75-7.52-.031-8.907 0 0 3.953.137 3.296-3.615-.657-3.751-4.257-1.66-4.257-1.66" transform="translate(-1) translate(46)"/>
            <path fill="#000" d="M109.706 38.66c.094.45-.055.86-.332.918-.277.058-.577-.259-.672-.708-.094-.448.055-.86.332-.917.278-.058.579.259.672.708M107.216 37.068c-.04 0-.08-.012-.114-.04-.08-.063-.094-.18-.032-.26.012-.014 1.122-1.398 2.896-.448.09.049.124.161.076.252-.049.09-.16.125-.252.076-1.5-.803-2.39.301-2.426.349-.037.047-.092.071-.148.071M120.828 38.763c-.077 0-.149-.048-.175-.125-.262-.752-.646-1.234-1.143-1.432-.654-.263-1.286.056-1.292.06-.092.045-.204.01-.25-.081-.048-.092-.012-.204.08-.251.03-.017.79-.398 1.6-.074.602.24 1.058.797 1.356 1.656.034.097-.018.203-.115.237-.02.007-.04.01-.061.01" transform="translate(-1) translate(46)"/>
            <path fill="#000" d="M118.822 40.003h-.008c-.102-.004-.182-.09-.178-.193.057-1.652 1.308-2.554 1.36-2.591.084-.06.2-.04.26.044.058.084.04.2-.045.26-.01.008-1.152.837-1.205 2.3-.002.1-.085.18-.184.18" transform="translate(-1) translate(46)"/>
            <path fill="#000" d="M118.248 41.82h-.013c-.103 0-.185-.084-.185-.187.001-.103.085-.167.188-.185.024-.009 1.959.006 2.828-1.109.436-.562.534-1.326.285-2.272-.263-1.005-.73-1.651-1.392-1.92-1.164-.472-2.574.363-2.588.372-.088.053-.202.025-.256-.063-.053-.088-.025-.203.064-.256.063-.038 1.58-.94 2.918-.399.777.315 1.32 1.046 1.615 2.172.279 1.065.16 1.938-.354 2.596-.951 1.22-2.908 1.252-3.11 1.252M115.43 59.258c-.081 0-.156-.053-.178-.135l-1.884-6.627c-.03-.1.028-.202.128-.23.098-.03.202.029.23.128l1.883 6.627c.028.1-.029.202-.128.23-.017.005-.034.007-.05.007" transform="translate(-1) translate(46)"/>
            <path fill="#000" d="M114.211 52.475c-3.552 0-6.749-2.488-7.503-6.1l-.23-1.103-1.034-.782c-.438-.332-.664-.856-.604-1.401.06-.546.394-1.009.893-1.237l.023-.01-.712-2.92c-.002 0-.64-1.696-.952-3.94-.29-2.085-.356-5.085.992-7.548 1.195-2.185 3.29-3.603 6.226-4.217 4.557-.952 8.108.104 10.556 3.139 1.948 2.415 2.62 5.39 2.908 6.66.028.132.054.243.075.332.241.984.961 4.444 1.537 7.251 1.412-.305 2.547-.097 3.38.617 1.777 1.526 1.515 4.788 1.503 4.926-.008.103-.098.176-.201.17-.102-.01-.178-.1-.17-.202.003-.032.257-3.211-1.376-4.612-.773-.662-1.86-.828-3.235-.494-.05.012-.101.004-.144-.023-.042-.028-.072-.07-.083-.12-.582-2.835-1.327-6.424-1.572-7.424l-.078-.338c-1.753-7.755-6.134-10.957-13.024-9.518-2.823.59-4.834 1.946-5.974 4.03-2.492 4.55-.039 11.135-.014 11.2l.755 3.092c.022.087-.021.177-.103.214l-.162.073c-.378.174-.631.525-.677.94-.045.413.125.811.457 1.063l1.09.824c.036.027.06.067.07.11l.244 1.172c.824 3.938 4.695 6.471 8.633 5.648l1.739-.363c.1-.023.2.043.22.144.021.1-.042.199-.143.22l-1.74.364c-.527.11-1.053.163-1.57.163" transform="translate(-1) translate(46)"/>
            <path fill="#000" d="M109.694 48.754c-.07 0-.135-.039-.168-.105-.044-.092-.006-.204.087-.249.853-.415 1.605-1.036 2.175-1.795.063-.082.18-.1.26-.037.084.061.1.178.038.26-.605.806-1.404 1.466-2.31 1.907-.026.012-.054.019-.082.019M115.442 36.608c-.889 0-2.029-.04-3.26-.181-2.573-.297-6.086-1.114-8.207-3.323-.07-.074-.068-.192.006-.263.073-.072.192-.068.263.005 2.352 2.45 6.533 3.162 9.52 3.337-2.835-.53-6.816-1.829-9.71-5.012-.07-.076-.064-.193.012-.262.076-.07.194-.064.263.012 4.858 5.342 12.864 5.252 12.942 5.252.113.001.184.076.19.176.005.1-.07.187-.17.196-.013 0-.734.063-1.849.063M125.644 55.752c-.96 0-1.947-.2-2.92-.608-8.032-3.358-4.698-13.468-4.663-13.57.032-.097.138-.147.235-.116.097.033.15.14.116.237-.033.098-3.254 9.882 4.455 13.106 2.742 1.146 5.582.56 7.598-1.568 1.637-1.729 2.254-4.025 1.499-5.583-1.493-3.088-4.795-2.46-4.829-2.452-.1.02-.198-.045-.22-.146-.02-.1.046-.199.147-.22.036-.006 3.62-.688 5.238 2.655.82 1.695.176 4.163-1.565 6.002-1.41 1.489-3.201 2.262-5.091 2.263M104.104 88.03c-.069 0-.134-.037-.167-.102l-8.015-15.762c-.047-.091-.01-.203.082-.25.09-.047.204-.01.25.081l8.015 15.762c.047.092.01.204-.081.25-.028.014-.056.02-.084.02" transform="translate(-1) translate(46)"/>
            <path fill="#000" d="M126.512 61.824c-.078 0-.15-.05-.176-.13l-1.949-6.069c-.031-.098.023-.203.121-.234.098-.03.203.022.234.12l1.948 6.07c.031.098-.023.203-.12.235-.02.005-.038.008-.058.008M107.042 149.21c-2.978 0-5.966-.723-8.752-2.182-19.068-9.989-31.654-30.219-32.942-32.35l-35.01 26.879c-.056.043-.13.05-.193.022l-16.192-7.587c-.054-.025-.093-.075-.104-.134-.011-.059.007-.119.048-.163l42.551-44.556c2.588-2.709 6.075-4.164 9.822-4.142 3.746.039 7.203 1.58 9.735 4.342l28.299 30.874c.07.075.064.193-.012.262-.076.07-.193.064-.263-.012L75.73 89.591c-2.46-2.685-5.822-4.184-9.464-4.222h-.139c-3.589 0-6.926 1.427-9.41 4.028l-42.372 44.368 15.855 7.428 35.087-26.937c.042-.033.097-.046.149-.035.052.01.098.043.125.089.127.218 12.957 21.94 32.901 32.388 6.024 3.156 13.022 2.804 18.717-.941 5.72-3.762 8.83-10.08 8.317-16.902l-.323-4.285c-.007-.102.07-.192.172-.2.104-.005.192.07.199.172l.323 4.285c.523 6.958-2.649 13.404-8.484 17.242-3.177 2.088-6.75 3.142-10.34 3.142" transform="translate(-1) translate(46)"/>
            <path fill="#000" d="M18.015 142.04c-.07 0-.139-.04-.17-.11-.042-.092 0-.204.093-.246l6.692-3.029c.093-.042.204 0 .246.093.042.093 0 .204-.093.246l-6.691 3.03c-.025.01-.051.017-.077.017M89.776 79.582h-.012c-.06-.005-.116-.038-.148-.09L73.249 52.37c-.026-.044-.033-.095-.02-.145.008-.03.791-3.016-.383-3.923-.033-.025-.057-.062-.067-.102l-.906-3.7c-.038-.152-.133-.279-.269-.357-.135-.077-.293-.097-.443-.052-.265.078-.436.333-.404.609l.543 4.748c.012.102-.062.195-.164.206-.102.01-.195-.062-.206-.164l-.543-4.748c-.052-.456.23-.88.67-1.008.248-.074.509-.043.733.087.225.13.382.339.444.59l.892 3.64c1.198 1.012.606 3.69.482 4.193L89.796 79.07c5.969-7.511 14.952-16.954 24.16-19.794 5.606-1.728 8.599-.205 8.724-.14.09.049.126.16.078.252-.048.09-.16.126-.251.078-.03-.015-3.015-1.521-8.488.18-5.072 1.577-13.369 6.304-24.097 19.865-.036.045-.09.07-.146.07" transform="translate(-1) translate(46)"/>
            <path fill="#026BB0" d="M71.115 49.47l-.543-4.749c-.042-.364.185-.706.537-.81.412-.12.842.127.945.545l.906 3.699c1.287.994.449 4.119.449 4.119l6.798 11.265c3.687-2.35 12.613-8.115 12.613-8.115L82.635 36.216l-14.75 7.693 3.17 6.077.06-.517" transform="translate(-1) translate(46)"/>
            <path fill="#D8D8D8" stroke="#FFF" stroke-width=".5" d="M84 59.545L87.84 57" transform="translate(-1) translate(46)"/>
            <path fill="#000" d="M73.608 52.244l6.66 11.035c3.472-2.214 11.161-7.179 12.307-7.919L82.558 36.466l-14.42 7.522 2.77 5.313-.52-4.56c-.053-.455.229-.878.669-1.007.249-.073.51-.043.734.087.224.13.382.339.443.59l.892 3.639c1.198 1.013.606 3.691.482 4.194zm6.599 11.48c-.015 0-.029 0-.043-.004-.049-.012-.09-.042-.117-.085L73.25 52.37c-.026-.044-.033-.095-.02-.145.008-.03.791-3.016-.383-3.923-.033-.026-.057-.062-.067-.103l-.906-3.699c-.038-.152-.133-.279-.268-.356-.136-.079-.294-.098-.444-.053-.265.078-.436.333-.404.609l.543 4.748v.042l-.06.517c-.009.081-.07.147-.15.162-.082.015-.161-.025-.2-.097l-3.17-6.076c-.022-.044-.026-.095-.012-.142.015-.047.048-.087.092-.11l14.75-7.694c.09-.047.202-.012.25.078l10.184 19.209c.045.085.017.191-.063.243-.089.058-8.968 5.793-12.614 8.116-.03.019-.065.029-.1.029z" transform="translate(-1) translate(46)"/>
            <path fill="#78B518" d="M203.879 39.517c-3.443-3.37-7.479-6.416-12.204-7.345-4.727-.928-10.233.782-12.537 5.012-2.602 4.778-.436 10.701 2.194 15.465 6.618 11.986 15.99 22.218 25.837 31.732 1.968 1.901 4.033 3.827 6.599 4.779 12.511 4.64 7.97-15.097 6.494-20.92-2.74-10.814-8.4-20.911-16.383-28.723" transform="translate(-1) translate(46)"/>
            <path fill="#000" d="M189.106 29.305c-4.106 0-8.544 1.723-10.637 5.564-2.253 4.135-1.482 9.522 2.355 16.471 7.617 13.794 18.815 25.44 27.722 34.044 2.288 2.211 4.398 4.122 7.038 5.1 2.95 1.095 5.202.974 6.686-.36 2.971-2.67 3.006-10.46.1-21.937-2.997-11.83-9.068-22.472-17.556-30.779-4.614-4.514-8.756-7.008-13.035-7.849-.854-.167-1.757-.254-2.673-.254zm30.036 62.205c-1.074 0-2.296-.253-3.658-.758-2.69-.998-4.824-2.929-7.138-5.163-16.98-16.407-23.76-26.848-27.771-34.111-3.888-7.04-4.659-12.518-2.356-16.745 2.625-4.82 8.836-6.392 13.614-5.453 4.337.852 8.525 3.37 13.18 7.925 8.526 8.343 14.623 19.032 17.633 30.911 2.076 8.196 3.728 18.704-.185 22.22-.871.782-1.981 1.174-3.32 1.174z" transform="translate(-1) translate(46)"/>
            <path fill="#000" d="M223 123.948l-.284-.018c1.995-31.533-10.311-63.538-32.917-85.613l.2-.204C212.662 60.245 225 92.333 223 123.948" transform="translate(-1) translate(46)"/>
            <path fill="#515151" d="M200.882 123.5c0 1.777 9.18 3.217 20.506 3.217s20.506-1.44 20.506-3.216c0-1.776-9.18-3.215-20.506-3.215s-20.506 1.439-20.506 3.215" transform="translate(-1) translate(46)"/>
            <path fill="#000" d="M221.388 149.557c-10.535 0-15.59-7.094-17.975-13.046-2.576-6.43-2.673-12.943-2.673-13.01-.002-.077.062-.142.14-.142h.002c.078 0 .142.062.142.14.001.065.097 6.533 2.657 12.912 2.352 5.867 7.334 12.86 17.707 12.86 5.966 0 10.738-1.872 14.184-5.567 6.983-7.488 6.188-20.067 6.18-20.193-.006-.079.054-.147.132-.152.073-.008.146.053.152.132.009.127.81 12.83-6.256 20.407-3.502 3.755-8.344 5.66-14.392 5.66" transform="translate(-1) translate(46)"/>
            <path fill="#000" d="M221.97 134.219c-5.905 0-12.818-.913-20.274-3.653-.073-.027-.112-.109-.084-.183.028-.074.11-.11.182-.084 22.143 8.138 39.478.087 39.65.004.072-.033.157-.003.19.068.034.072.004.156-.067.19-.115.056-7.868 3.658-19.597 3.658M221.928 101.028l-.224-.175c10.282-13.172 22.48-17.544 22.602-17.587l.094.27c-.12.042-12.243 4.39-22.472 17.492" transform="translate(-1) translate(46)"/>
            <path fill="#000" d="M238.472 78.665c-4.729 2.331-8.76 5.982-11.658 10.558-2.804 4.425-3.867 7.696-2.996 9.21.428.744 1.342 1.095 2.707 1.04 1.237-.048 2.386-.56 3.652-1.175 4.955-2.403 11.299-5.774 16.423-10.546 2.564-2.387 3.629-4.536 3.254-6.568-.424-2.305-2.749-3.77-4.826-4.026-1.91-.235-3.994.243-6.556 1.507zm-12.21 21.098c-1.333 0-2.236-.398-2.691-1.188-1.188-2.064.977-6.308 3.002-9.505 2.926-4.62 6.997-8.307 11.773-10.661 2.614-1.289 4.748-1.777 6.717-1.534 2.18.268 4.622 1.817 5.072 4.257.394 2.136-.7 4.37-3.34 6.829-5.153 4.798-11.52 8.182-16.493 10.594-1.295.629-2.474 1.153-3.766 1.204-.094.003-.185.004-.275.004z" transform="translate(-1) translate(46)"/>
        </g>
    </g>
</svg>
