<svg xmlns="http://www.w3.org/2000/svg" xmlns:xlink="http://www.w3.org/1999/xlink" width="448" height="260" viewBox="0 0 448 260">
    <defs>
        <path id="prefix__a" d="M0.05 0.054L22.508 0.054 22.508 9.46 0.05 9.46z"/>
        <path id="prefix__c" d="M0.056 0.198L11.943 0.198 11.943 5.5 0.056 5.5z"/>
        <path id="prefix__e" d="M0.067 0.198L11.954 0.198 11.954 5.5 0.067 5.5z"/>
        <path id="prefix__g" d="M0.155 0.054L22.613 0.054 22.613 9.46 0.155 9.46z"/>
        <path id="prefix__i" d="M0 0.143L4.606 0.143 4.606 4.749 0 4.749z"/>
    </defs>
    <g fill="none" fill-rule="evenodd">
        <g>
            <g>
                <path fill="#78B518" d="M21.246 7.634c-2.564-2.501-5.568-4.762-9.087-5.452-3.52-.689-7.618.58-9.334 3.72C.888 9.45 2.5 13.845 4.458 17.38c4.928 8.897 11.906 16.492 19.237 23.554 1.465 1.41 3.003 2.84 4.914 3.546 9.315 3.445 5.933-11.205 4.835-15.528-2.04-8.025-6.255-15.52-12.198-21.318" transform="translate(-1) translate(32) translate(82.05 168)"/>
                <path fill="#000" d="M10.12.284c-3.068 0-6.384 1.288-7.947 4.16C.49 7.538 1.068 11.573 3.94 16.78c5.71 10.355 14.108 19.098 20.786 25.559 1.715 1.658 3.294 3.09 5.267 3.823 2.2.817 3.876.728 4.98-.264 1.393-1.253 1.93-3.931 1.594-7.96-.2-2.407-.716-5.26-1.53-8.48C32.79 20.58 28.24 12.592 21.877 6.358 18.422 2.974 15.322 1.104 12.12.474c-.64-.126-1.313-.19-2-.19M32.65 47c-.81 0-1.73-.19-2.756-.571-2.024-.752-3.627-2.205-5.365-3.886C11.788 30.218 6.7 22.373 3.691 16.917.769 11.62.19 7.494 1.924 4.308 3.9.673 8.577-.512 12.174.195c3.259.641 6.406 2.535 9.902 5.961 6.4 6.27 10.976 14.304 13.235 23.232 1.56 6.164 2.8 14.07-.15 16.721-.66.594-1.5.891-2.512.891M51.383 36.279c-1.216 0-2.546.373-4.125 1.15-3.488 1.718-6.461 4.407-8.599 7.778-2.064 3.254-2.85 5.655-2.212 6.76.309.537.972.79 1.968.75.907-.035 1.753-.411 2.685-.863 3.658-1.772 8.341-4.258 12.124-7.776 1.885-1.752 2.668-3.327 2.394-4.814-.311-1.684-2.014-2.755-3.536-2.943-.23-.028-.462-.042-.7-.042M38.223 53c-.997 0-1.675-.3-2.017-.894-.887-1.537.717-4.681 2.218-7.048 2.165-3.415 5.178-6.139 8.711-7.878 1.938-.955 3.522-1.315 4.982-1.136 1.623.2 3.441 1.353 3.776 3.17.294 1.588-.517 3.246-2.477 5.069-3.81 3.543-8.518 6.041-12.193 7.822-.961.466-1.835.854-2.796.891-.07.003-.137.004-.204.004" transform="translate(-1) translate(32) translate(82.05 168)"/>
                <path fill="#000" d="M35.794 71l-.282-.018C37 47.491 27.818 23.648 10.95 7.202L11.148 7c16.926 16.502 26.139 40.428 24.646 64" transform="translate(-1) translate(32) translate(82.05 168)"/>
                <path fill="#515151" d="M18.95 70.5c0 1.38 6.94 2.5 15.5 2.5 8.561 0 15.5-1.12 15.5-2.5S43.012 68 34.45 68c-8.56 0-15.5 1.12-15.5 2.5" transform="translate(-1) translate(32) translate(82.05 168)"/>
                <path fill="#000" d="M34.44 90c-7.904 0-11.696-5.409-13.486-9.946-1.93-4.897-2.003-9.859-2.003-9.909-.001-.079.062-.144.14-.145h.001c.078 0 .141.064.142.143 0 .049.073 4.964 1.986 9.81 2.556 6.476 7.003 9.76 13.22 9.76 4.453 0 8.016-1.422 10.588-4.224 5.214-5.683 4.623-15.239 4.617-15.335-.006-.08.053-.148.131-.154.075-.006.146.055.151.134.007.097.607 9.774-4.691 15.55C42.608 88.548 38.976 90 34.439 90" transform="translate(-1) translate(32) translate(82.05 168)"/>
                <path fill="#000" d="M34.208 78c-4.418 0-9.59-.682-15.165-2.726-.073-.027-.11-.108-.084-.182.028-.073.11-.11.182-.083 16.54 6.066 29.479.066 29.607.005.07-.034.155-.004.189.066s.004.155-.067.189c-.086.04-5.887 2.731-14.662 2.731M34.174 54l-.223-.17c7.69-9.609 16.815-12.8 16.907-12.83l.093.26c-.09.031-9.141 3.198-16.777 12.74" transform="translate(-1) translate(32) translate(82.05 168)"/>
            </g>
            <path fill="#F5AB06" d="M340.156 119.506l-.03-21.081.058.089s9.097-.752 9.147 7.306c.048 7.897-5.461 11.892-9.175 13.686m-2.18 9.699l-3.065.638c-.517.787-1.288 1.285-2.379 1.285h-4.404c-.878 0-1.59-.712-1.59-1.59 0-.879.712-1.59 1.59-1.59h-1.758c-.878 0-1.59-.713-1.59-1.591 0-.879.712-1.59 1.59-1.59h1.067c-.878 0-1.59-.713-1.59-1.59 0-.88.712-1.591 1.59-1.591h7.52c.066.162 1.894.25 1.894.25s1.791 2.763 1.126 7.369m24.726-23.645c0-19.666-21.5-33.082-37.972-30.85l.036.056c-5.41 6.283-10.043 1.32-11.025.112l.201-.499s-30.713-.14-33.367 32.2c-1.518 18.492 13.229 15.16 13.229 15.16s-.737-8.386 1.404-10.56l-7.49-.616 6.086.331s0-12.466 8.691-15.963l-.585 6.792c-.649 3.603-1.098 7.45-1.402 11.295h2.375c.879 0 1.59.712 1.59 1.59 0 .878-.711 1.59-1.59 1.59h1.067c.879 0 1.59.712 1.59 1.59 0 .88-.711 1.591-1.59 1.591h-1.758c.879 0 1.59.712 1.59 1.59 0 .879-.711 1.59-1.59 1.59h-2.173c-.304 11.47.369 20.93.369 20.93l39.786.057v-10.613l-.004-3.027c5.59-1.356 22.532-6.904 22.532-24.346" transform="translate(-1) translate(32)"/>
            <path fill="#FFF" d="M327.378 121.586h7.462v-16.577h-36.333v8.009h4.377c.879 0 1.59.712 1.59 1.59 0 .878-.711 1.59-1.59 1.59h1.067c.879 0 1.59.712 1.59 1.59 0 .879-.711 1.591-1.59 1.591h-1.758c.879 0 1.59.712 1.59 1.59 0 .879-.711 1.59-1.59 1.59h-3.686v18.784h36.333v-11.486c-.517.778-1.284 1.271-2.367 1.271h-4.405c-.878 0-1.59-.712-1.59-1.59 0-.879.712-1.59 1.59-1.59h-1.758c-.878 0-1.59-.713-1.59-1.591s.712-1.59 1.59-1.59h1.068c-.879 0-1.59-.712-1.59-1.59 0-.88.711-1.591 1.59-1.591" transform="translate(-1) translate(32)"/>
            <path fill="#000" d="M298.66 141.19h36.027v-10.878c-.565.644-1.308.97-2.215.97h-4.404c-.961 0-1.744-.783-1.744-1.744 0-.596.3-1.123.757-1.437h-.77c-.962 0-1.745-.783-1.745-1.744 0-.962.783-1.744 1.745-1.744h.08c-.457-.315-.757-.841-.757-1.437 0-.962.782-1.744 1.744-1.744h7.309v-16.27H298.66v7.702h4.224c.962 0 1.744.782 1.744 1.744 0 .595-.3 1.122-.757 1.437h.08c.962 0 1.744.782 1.744 1.744 0 .961-.782 1.744-1.744 1.744h-.77c.457.314.756.84.756 1.436 0 .962-.782 1.744-1.743 1.744h-3.534v18.476zm36.18.306h-36.333c-.085 0-.154-.068-.154-.153V122.56c0-.085.07-.154.154-.154h3.687c.792 0 1.436-.644 1.436-1.437 0-.792-.644-1.436-1.436-1.436-.085 0-.154-.069-.154-.154 0-.085.069-.153.154-.153h1.757c.793 0 1.437-.645 1.437-1.437s-.644-1.437-1.437-1.437h-1.067c-.085 0-.154-.069-.154-.154 0-.084.07-.153.154-.153.792 0 1.437-.645 1.437-1.437s-.645-1.437-1.437-1.437h-4.377c-.085 0-.154-.068-.154-.153v-8.009c0-.084.07-.153.154-.153h36.333c.085 0 .154.069.154.153v16.577c0 .085-.069.153-.154.153h-7.462c-.792 0-1.437.645-1.437 1.437s.645 1.437 1.437 1.437c.084 0 .153.069.153.153 0 .085-.069.154-.153.154h-1.067c-.793 0-1.438.645-1.438 1.437s.645 1.437 1.438 1.437h1.757c.085 0 .154.068.154.153 0 .085-.069.154-.154.154-.792 0-1.437.644-1.437 1.437 0 .792.645 1.436 1.437 1.436h4.404c.957 0 1.71-.404 2.24-1.201.038-.057.108-.082.173-.062.064.02.109.079.109.146v11.486c0 .085-.069.153-.154.153z" transform="translate(-1) translate(32)"/>
            <path fill="#515151" d="M315.207 48.654c-.587-1.583-1.554-2.717-3.341-2.717-2.295 0-4.155 1.86-4.155 4.155 0 1.92 1.302 3.535 3.07 4.012 5.18 1.774 13.966-.96 13.966-.96v4.784l1.571-.055.111-7.213c.048-3.085-2.444-5.61-5.529-5.604-2.143.003-4.844 1.253-6.079 3.337" transform="translate(-1) translate(32)"/>
            <path fill="#000" d="M312.474 58.913c0 .382-.19.692-.427.692-.236 0-.427-.31-.427-.692 0-.382.191-.692.427-.692s.427.31.427.692M318.401 58.913c0 .382-.191.692-.427.692s-.427-.31-.427-.692c0-.382.19-.692.427-.692.236 0 .427.31.427.692" transform="translate(-1) translate(32)"/>
            <path fill="#515151" d="M324.38 252.972L322.518 258.46 336.671 258.46 335.554 252.972z" transform="translate(-1) translate(32)"/>
            <g transform="translate(-1) translate(32) translate(277.86 249)">
                <mask id="prefix__b" fill="#fff">
                    <use xlink:href="#prefix__a"/>
                </mask>
                <path fill="#515151" d="M14.156 0.054L0.05 9.46 22.508 9.029 21.842 0.054z" mask="url(#prefix__b)"/>
            </g>
            <path fill="#000" d="M317.23 70.774h-1.48c-3.522 0-6.387-2.865-6.387-6.386v-10.56c0-.085.07-.154.154-.154.085 0 .153.07.153.154v10.56c0 3.352 2.727 6.079 6.08 6.079h1.48c.085 0 .153.069.153.153 0 .085-.068.154-.153.154" transform="translate(-1) translate(32)"/>
            <path fill="#000" d="M319.124 77.938c-.103 0-.206-.003-.309-.009-3.18-.175-5.246-2.968-5.332-3.087-.02-.026-.03-.058-.03-.09v-4.51c0-.085.07-.153.154-.153.085 0 .153.068.153.153V74.7c.262.338 2.238 2.768 5.074 2.923 1.96.106 3.909-.879 5.792-2.93l-.032-12.468c0-.085.068-.154.153-.154.085 0 .153.068.154.153l.032 12.528c0 .038-.014.075-.04.103-1.863 2.047-3.803 3.083-5.77 3.083" transform="translate(-1) translate(32)"/>
            <path fill="#000" d="M325.814 63.782c-.603 0-1.06-.097-1.1-.106-.083-.018-.135-.1-.117-.183.018-.083.1-.134.183-.117.02.004 2.001.423 3.13-.533.571-.484.835-1.248.784-2.27-.053-1.063-.394-1.813-1.014-2.23-1.137-.767-2.865-.178-2.882-.172-.08.028-.167-.014-.196-.094-.028-.08.015-.168.095-.196.076-.027 1.888-.646 3.154.206.705.474 1.092 1.305 1.15 2.47.056 1.123-.245 1.972-.894 2.521-.673.57-1.584.704-2.293.704" transform="translate(-1) translate(32)"/>
            <path fill="#000" d="M326.31 57.998h-.003c-.085-.001-.153-.071-.151-.156l.12-7.796c.024-1.57-.57-3.052-1.674-4.17-1.101-1.117-2.57-1.731-4.138-1.731h-.01c-2.821.005-4.814.957-5.923 2.83-.043.073-.138.096-.21.053-.074-.043-.098-.137-.054-.21 1.168-1.972 3.25-2.975 6.186-2.98h.01c1.651 0 3.198.647 4.358 1.822 1.161 1.178 1.787 2.737 1.762 4.391l-.12 7.796c-.002.084-.07.15-.154.15" transform="translate(-1) translate(32)"/>
            <path fill="#000" d="M324.747 58.375c-.085 0-.153-.069-.153-.154v-4.868c-1.372.419-9.423 2.703-15.131.562-2.008-.54-3.42-2.385-3.42-4.48 0-2.561 2.084-4.645 4.646-4.645 2.117 0 3.839 1.653 4.445 3.286.029.079-.012.167-.091.197-.08.03-.168-.011-.197-.09-.57-1.534-2.18-3.086-4.157-3.086-2.392 0-4.338 1.946-4.338 4.338 0 1.957 1.318 3.68 3.206 4.188 6.14 2.302 15.053-.595 15.142-.624.047-.016.098-.008.138.021.04.03.064.075.064.125v5.076c0 .085-.069.154-.154.154M313.748 64.59c-.038 0-.075-.013-.105-.04l-1.272-1.172c-.037-.033-.055-.083-.049-.132.007-.05.037-.093.08-.116l1.383-.735-.19-4.167c-.005-.084.06-.156.146-.16.093-.002.156.062.16.146l.195 4.263c.003.06-.029.115-.081.143l-1.277.68 1.114 1.024c.062.058.066.155.009.217-.03.033-.072.05-.113.05" transform="translate(-1) translate(32)"/>
            <path fill="#000" d="M318.968 56.824c-.04 0-.08-.016-.11-.047-.99-1.019-1.975-.366-2.017-.338-.07.048-.165.03-.213-.04-.048-.07-.03-.166.04-.214.012-.008 1.243-.823 2.41.378.059.06.057.158-.004.217-.03.03-.068.044-.106.044M313.581 56.66c-.04 0-.08-.015-.11-.046-.99-1.018-1.975-.366-2.016-.338-.07.047-.165.03-.214-.04-.048-.07-.03-.166.04-.214.013-.008 1.244-.824 2.41.378.06.06.058.158-.003.217-.03.03-.068.043-.107.043M314.292 67.319c-1.539 0-2.743-.835-2.76-.847-.07-.05-.086-.145-.037-.214.05-.07.144-.086.214-.037.103.073 2.557 1.767 4.872.003.066-.051.163-.038.215.03.051.067.038.163-.03.214-.836.638-1.698.85-2.474.85M328.017 61.133c-.076 0-.142-.056-.151-.134-.108-.828-.4-1.407-.87-1.72-.622-.412-1.347-.22-1.354-.218-.082.023-.166-.025-.189-.107-.022-.082.026-.167.108-.189.035-.01.868-.23 1.604.259.547.364.886 1.015 1.005 1.936.01.084-.048.16-.132.172l-.02.001" transform="translate(-1) translate(32)"/>
            <path fill="#000" d="M325.724 61.963c-.013 0-.025-.001-.037-.005-.083-.02-.133-.103-.112-.185.403-1.642 1.842-2.283 1.903-2.309.078-.034.168.002.202.08.034.077-.002.168-.08.202-.013.006-1.36.61-1.727 2.1-.018.07-.08.117-.15.117M319.916 252.818h20.105V143.7l-39.5-.057-15.734 105.259h17.569l17.242-87.944-5.642-6.868c-.053-.065-.044-.162.022-.216.065-.053.162-.044.216.022l5.686 6.922c.023.028.037.064.036.102v91.898zm20.259.308h-20.412c-.085 0-.154-.07-.154-.154v-90.474l-16.977 86.587c-.014.072-.077.124-.15.124h-17.873c-.045 0-.087-.02-.116-.054-.03-.034-.043-.078-.036-.123l15.78-105.565c.011-.076.075-.131.152-.131l39.786.057c.085 0 .153.069.153.153v109.426c0 .085-.068.154-.153.154zM338.125 130.433c-.074 0-.14-.054-.151-.129-.014-.084.043-.163.127-.176.06-.01 6.206-1.03 12.268-4.58 5.579-3.265 12.229-9.408 12.229-20.12 0-8.08-3.733-15.79-10.51-21.71-7.637-6.672-18.351-10.2-27.288-8.989-.087.01-.161-.047-.173-.131-.01-.084.048-.162.132-.173 9.16-1.242 19.711 2.23 27.531 9.061 6.845 5.98 10.615 13.772 10.615 21.941 0 10.862-6.737 17.084-12.39 20.391-6.11 3.576-12.303 4.603-12.366 4.613l-.024.002" transform="translate(-1) translate(32)"/>
            <path fill="#000" d="M338.125 127.631h-.014c-.084-.008-.146-.083-.139-.167.316-3.508-1.7-6.471-1.72-6.5-.03-.042-.036-.095-.018-.142.018-.047.057-.083.106-.095.13-.032 12.957-3.397 12.886-15.039-.014-2.16-.692-3.871-2.019-5.086-2.617-2.395-6.92-2.073-6.962-2.069-.08.008-.159-.055-.166-.14-.007-.084.056-.159.14-.166.182-.015 4.477-.338 7.194 2.148 1.393 1.274 2.106 3.061 2.12 5.311.068 11.064-11.244 14.793-12.914 15.282.435.705 1.94 3.403 1.659 6.523-.007.08-.074.14-.153.14M312.047 56.75c-.908 0-1.647.97-1.647 2.163 0 1.193.739 2.163 1.647 2.163.909 0 1.648-.97 1.648-2.163 0-1.192-.74-2.162-1.648-2.162m0 4.631c-1.077 0-1.954-1.107-1.954-2.469 0-1.362.877-2.47 1.954-2.47 1.078 0 1.955 1.108 1.955 2.47s-.877 2.47-1.955 2.47M317.547 56.937c-.908 0-1.647.97-1.647 2.163 0 1.192.739 2.162 1.647 2.162s1.647-.97 1.647-2.162c0-1.193-.739-2.163-1.647-2.163m0 4.632c-1.078 0-1.955-1.108-1.955-2.47 0-1.36.877-2.469 1.955-2.469 1.077 0 1.954 1.108 1.954 2.47 0 1.361-.877 2.47-1.954 2.47" transform="translate(-1) translate(32)"/>
            <path fill="#000" d="M315.746 59.253c-.042 0-.085-.018-.115-.052-.029-.031-.692-.763-1.704-.156-.072.043-.167.02-.21-.053-.044-.073-.02-.167.052-.21 1.237-.74 2.085.207 2.093.217.055.064.049.16-.015.216-.029.025-.065.038-.1.038M337.367 154.977c-3.767 0-6.579-1.039-8.369-3.094-2.923-3.357-2.033-8.315-2.024-8.365.016-.084.097-.138.18-.123.083.016.138.096.122.18-.009.048-.87 4.864 1.955 8.108 1.887 2.165 4.967 3.158 9.165 2.962.086-.012.157.061.16.146.004.084-.06.156-.146.16-.355.017-.703.026-1.043.026M298.872 153.79c-.076 0-.142-.055-.152-.133-.012-.083.047-.16.131-.172 2.994-.406 5.185-1.56 6.512-3.432 2.027-2.858 1.324-6.44 1.316-6.476-.017-.083.037-.164.12-.181.082-.017.164.036.181.12.008.037.737 3.75-1.366 6.714-1.38 1.944-3.64 3.141-6.721 3.559l-.021.001M291.178 121.849c-2.011 0-4.861-.418-7.126-2.385-2.91-2.527-4.131-6.899-3.63-12.994 1.36-16.587 10.302-24.399 17.562-28.031 7.872-3.938 15.523-3.952 15.58-3.944.085 0 .153.07.153.155 0 .084-.07.152-.154.152-.106-.008-7.663.017-15.452 3.917-7.186 3.598-16.034 11.338-17.384 27.776-.492 5.992.695 10.278 3.527 12.737 3.472 3.017 8.377 2.275 9.235 2.116-.085-1.09-.538-7.872 1.24-10.188l-7.105-.585c-.085-.006-.148-.08-.14-.165.006-.085.09-.146.165-.14l7.405.609c.06.005.111.043.132.1.02.055.007.118-.035.16-2.042 2.075-1.352 10.237-1.345 10.32.007.076-.044.146-.119.163-.024.005-1.044.227-2.51.227" transform="translate(-1) translate(32)"/>
            <path fill="#000" d="M293.653 110.904c-.084 0-.153-.07-.153-.154 0-.124.1-12.469 8.69-15.924.078-.031.167.006.199.085s-.007.168-.085.2c-8.397 3.377-8.497 15.517-8.497 15.64 0 .084-.069.153-.154.153M340.156 119.544c-.085 0-.154-.069-.154-.154l.02-22.784c0-.085.068-.153.153-.153.085 0 .153.068.153.153l-.019 22.785c0 .084-.068.153-.153.153M302.884 116.352h-3.933c-.085 0-.154-.069-.154-.154 0-.084.07-.153.154-.153h3.933c.792 0 1.437-.645 1.437-1.437s-.645-1.437-1.437-1.437h-5.69c-.085 0-.154-.069-.154-.153 0-.085.069-.154.153-.154h5.691c.962 0 1.744.782 1.744 1.744 0 .961-.782 1.744-1.744 1.744" transform="translate(-1) translate(32)"/>
            <path fill="#000" d="M303.952 119.533h-5c-.086 0-.154-.07-.154-.154 0-.085.068-.154.153-.154h5c.793 0 1.437-.644 1.437-1.436 0-.793-.644-1.437-1.436-1.437h-5c-.086 0-.154-.069-.154-.154 0-.084.068-.153.153-.153h5c.962 0 1.744.782 1.744 1.744 0 .961-.782 1.744-1.743 1.744" transform="translate(-1) translate(32)"/>
            <path fill="#000" d="M302.193 122.713h-4.404c-1.059 0-1.895-.444-2.484-1.32-1.353-2.009-1.096-5.941-.083-8.433.032-.079.121-.117.2-.085.079.032.116.122.084.2-.987 2.43-1.202 6.282.053 8.147.529.786 1.28 1.184 2.23 1.184h4.404c.793 0 1.437-.644 1.437-1.437 0-.792-.644-1.436-1.437-1.436h-3.242c-.085 0-.153-.07-.153-.154 0-.085.068-.154.153-.154h3.242c.962 0 1.744.783 1.744 1.744 0 .962-.782 1.744-1.744 1.744" transform="translate(-1) translate(32)"/>
            <path fill="#F5AB06" d="M312.545 115.454l4.116 14.006h.108l4.034-14.006h7.111v6.132h-.477c-.878 0-1.59.712-1.59 1.59 0 .878.712 1.59 1.59 1.59h-1.067c-.878 0-1.59.712-1.59 1.591 0 .878.712 1.59 1.59 1.59h1.544v.022c-.776.105-1.376.763-1.376 1.569 0 .805.6 1.463 1.376 1.568v4.075h-4.898v-8.65c0-.449.007-.948.02-1.497.014-.549.074-1.894.183-4.035h-.122l-3.98 14.182h-5.074l-4.035-14.209h-.121c.189 2.42.283 4.3.283 5.64v8.57h-4.722v-19.728h7.097z" transform="translate(-1) translate(32)"/>
            <path fill="#000" d="M340.175 143.7c-.085 0-.154-.069-.154-.154l-.004-13.64c0-.084.069-.153.154-.153.084 0 .153.068.153.153l.004 13.64c0 .085-.068.154-.153.154M301.383 105.163h-.016c-.084-.01-.146-.084-.137-.169.008-.087.872-8.805 1.567-12.206.017-.083.1-.137.18-.12.084.017.138.099.12.182-.69 3.385-1.553 12.087-1.562 12.175-.008.079-.074.138-.152.138M331.37 124.92h-3.933c-.961 0-1.744-.782-1.744-1.744s.783-1.744 1.744-1.744h5.69c.086 0 .155.069.155.154 0 .085-.07.153-.154.153h-5.69c-.793 0-1.438.645-1.438 1.437s.645 1.437 1.437 1.437h3.933c.085 0 .154.069.154.153 0 .085-.069.154-.154.154" transform="translate(-1) translate(32)"/>
            <path fill="#000" d="M331.37 128.1h-5c-.962 0-1.744-.782-1.744-1.743 0-.962.782-1.744 1.744-1.744h5c.085 0 .154.069.154.153 0 .085-.069.154-.154.154h-5c-.792 0-1.437.645-1.437 1.437s.645 1.437 1.437 1.437h5c.085 0 .154.068.154.153 0 .085-.069.154-.154.154" transform="translate(-1) translate(32)"/>
            <path fill="#000" d="M332.532 131.282h-4.404c-.962 0-1.744-.783-1.744-1.744 0-.962.782-1.744 1.744-1.744h3.242c.085 0 .154.068.154.153 0 .085-.069.154-.154.154h-3.242c-.792 0-1.437.644-1.437 1.437 0 .792.645 1.436 1.437 1.436h4.404c.83 0 1.518-.373 2.041-1.108 1.196-1.679 1.188-4.659.966-5.298-.027-.08.015-.167.095-.195.08-.028.167.014.195.095.234.675.248 3.815-1.005 5.576-.585.821-1.356 1.238-2.292 1.238" transform="translate(-1) translate(32)"/>
            <path fill="#515151" d="M162.45 56.932v9.392s-4.285 2.143-3.008 7.495c0 0 3.973-3.815 7.074-3.543l.134-3.124s-2.52-.47-3.632-3.566c-.565-1.571-.569-6.654-.569-6.654" transform="translate(-1) translate(32)"/>
            <path fill="#000" d="M165.529 55.935c0 .378-.19.685-.423.685-.234 0-.424-.307-.424-.685 0-.379.19-.685.424-.685.233 0 .423.306.423.685M171.397 55.935c0 .378-.19.685-.423.685-.234 0-.423-.307-.423-.685 0-.379.189-.685.423-.685.233 0 .423.306.423.685M167.817 82.081c0 .347-.174.628-.387.628-.214 0-.388-.281-.388-.628 0-.346.174-.627.388-.627.213 0 .387.281.387.627" transform="translate(-1) translate(32)"/>
            <path fill="#515151" d="M177.397 253.142l-2.82 5.302h11.886l-4.263-5.302s.002 2.552-2.146 2.651c-2.47.113-2.657-2.651-2.657-2.651" transform="translate(-1) translate(32)"/>
            <path fill="#000" d="M170.237 67.68h-1.466c-3.487 0-6.324-2.837-6.324-6.325l-.151-7.448c-.002-.085.065-.155.15-.157.093.005.155.066.157.15l.15 7.452c0 3.321 2.7 6.02 6.018 6.02h1.466c.085 0 .153.07.153.154 0 .085-.068.154-.153.154" transform="translate(-1) translate(32)"/>
            <path fill="#000" d="M167.969 79.589c-.019 0-.037-.003-.055-.01-.051-.02-.088-.064-.097-.118l-1.319-7.818-.002-4.491c0-.085.069-.154.154-.154.085 0 .153.069.153.154v4.465l1.273 7.535 7.255-5.821c.067-.053.164-.043.216.023.053.066.043.163-.023.216l-7.46 5.985c-.027.022-.061.034-.095.034M166.789 61.558c-.04 0-.08-.016-.11-.047l-.503-.523c-.293-.304-.361-.746-.174-1.124.16-.324.47-.528.82-.55l-.186-4.057c-.004-.085.061-.157.146-.16.086-.004.157.06.16.146l.194 4.22c.002.046-.016.09-.049.12s-.077.045-.122.04c-.35-.039-.585.169-.688.377-.103.207-.125.52.12.775l.503.523c.059.06.057.158-.005.217-.03.028-.068.043-.106.043M166.322 54.388c-.04 0-.08-.015-.11-.046-.979-1.008-1.954-.363-1.995-.335-.07.048-.165.03-.213-.04-.048-.07-.03-.166.04-.214.013-.008 1.232-.816 2.388.375.06.06.058.158-.003.217-.03.029-.069.043-.107.043M169.709 54.396c-.037 0-.073-.013-.102-.038-.063-.056-.07-.153-.014-.216.01-.011.986-1.1 2.405-.238.072.044.096.138.052.21-.044.073-.139.096-.211.052-1.194-.725-1.982.14-2.015.178-.03.034-.073.052-.115.052M165.16 63.162c.761.382 2.33.94 3.921.11.2-.104.422.103.321.305-.373.746-1.136 1.825-2.42 1.79-1.342-.036-1.925-1.19-2.159-1.912-.066-.205.144-.39.336-.293M180.918 58.134c-.076 0-.142-.056-.152-.134-.106-.82-.396-1.392-.861-1.701-.614-.408-1.331-.218-1.338-.216-.082.022-.166-.026-.19-.108-.022-.082.027-.166.108-.188.035-.01.861-.23 1.59.256.542.36.877 1.006.995 1.918.011.084-.048.16-.132.172h-.02" transform="translate(-1) translate(32)"/>
            <path fill="#000" d="M178.647 58.956c-.012 0-.024-.002-.037-.005-.082-.02-.133-.103-.112-.186.4-1.625 1.825-2.26 1.886-2.287.077-.033.167.003.201.08.034.078-.001.168-.08.202-.012.006-1.346.604-1.71 2.079-.016.07-.079.117-.148.117M177.68 55.21c-.009 0-.017 0-.026-.002-6.683-1.17-5.774-7.313-5.764-7.375.013-.084.09-.143.176-.128.083.014.14.093.127.176-.038.241-.867 5.907 5.513 7.024.084.015.14.094.125.178-.013.074-.077.127-.15.127" transform="translate(-1) translate(32)"/>
            <path fill="#026BB0" d="M177.276 121.858s15.475 15.41 12.173 50.238h-42.952s1.211-37.354 15.63-50.041l15.15-.197z" transform="translate(-1) translate(32)"/>
            <path fill="#000" d="M146.653 171.942h45.112c.982-10.512.138-18.796-.71-24.846-1.853-13.234-10.677-24.21-11.395-25.084l-17.473.196c-14.475 12.803-15.479 47.121-15.534 49.734m45.251.308h-45.407c-.04 0-.08-.017-.109-.046-.029-.03-.044-.069-.044-.11 0-.091.12-9.294 2.101-20.017 1.831-9.909 5.674-23.18 13.582-30.138.027-.024.062-.037.1-.038l17.603-.197c.044-.002.09.02.119.055.096.113 9.575 11.477 11.51 25.295.787 5.617 1.715 14.326.698 25.056-.007.08-.074.14-.153.14" transform="translate(-1) translate(32)"/>
            <path fill="#000" d="M182.201 253.295c-.01 0-.02 0-.03-.003-.084-.016-.138-.097-.12-.18.1-.5 10.055-50.253 8.316-81.007-.005-.085.06-.158.144-.163.098-.007.158.06.162.145 1.742 30.794-8.221 80.586-8.322 81.085-.014.073-.079.123-.15.123M177.397 253.295c-.085 0-.154-.068-.154-.153 0-.446-.048-44.957-4.266-81.028-.01-.084.05-.16.135-.171.085-.007.16.05.17.135 4.22 36.089 4.269 80.618 4.269 81.064 0 .085-.07.153-.154.153M149.138 253.295c-.015 0-.03-.002-.045-.006-.081-.025-.127-.111-.102-.192 13.861-45.269 17.563-80.664 17.599-81.017.009-.084.084-.145.168-.137.085.009.146.084.138.168-.036.353-3.741 35.779-17.611 81.076-.02.066-.081.108-.147.108M140.706 254.985c-.052 0-.103-.026-.132-.074-.043-.073-.02-.167.053-.21l4.423-2.658c.165-2.513 3.935-60.23 3.935-79.947 0-.085.068-.154.153-.154.085 0 .154.07.154.154 0 20.066-3.902 79.45-3.941 80.048-.003.05-.031.095-.074.121l-4.492 2.698c-.025.015-.052.022-.079.022" transform="translate(-1) translate(32)"/>
            <path fill="#FFF" d="M152.036 172.25h-.005c-.085-.004-.151-.075-.148-.16.956-25.713 12.618-49.862 12.736-50.103.037-.076.13-.107.205-.07.077.037.108.129.07.205-.117.24-11.75 24.334-12.704 49.98-.003.082-.071.147-.154.147M161.054 172.25h-.01c-.085-.006-.15-.08-.144-.164.956-14.708 8.33-49.805 8.404-50.158.018-.083.1-.136.182-.119.083.018.136.1.119.182-.075.353-7.444 35.428-8.398 50.115-.005.081-.073.143-.153.143M170.715 172.25h-.005c-.085-.004-.152-.075-.149-.16l1.71-50.174c.003-.085.076-.155.159-.149.084.004.15.075.148.16l-1.71 50.174c-.003.083-.07.148-.153.148M182.3 172.25h-.011c-.085-.007-.148-.08-.142-.165 1.741-23.261-6.942-49.863-7.03-50.129-.026-.08.018-.167.098-.194.08-.027.167.017.194.098.088.266 8.79 26.924 7.044 50.247-.006.081-.073.142-.153.142" transform="translate(-1) translate(32)"/>
            <path fill="#515151" d="M140.832 254.57c3.356 1.82 8.635-2.436 8.635-2.436l1.895 6.008-16.628.318 6.098-3.89z" transform="translate(-1) translate(32)"/>
            <path fill="#000" d="M171.28 83.311h-.006c-.042-.002-.08-.02-.108-.05l-3.234-3.636-4.479 2.245c-.046.023-.099.022-.143-.003-.045-.024-.074-.07-.079-.12l-.935-9.968c-.008-.084.054-.16.139-.167.085-.007.16.054.167.138l.914 9.745 4.384-2.197c.062-.03.137-.017.183.035l3.208 3.605 6.571-6.145c.062-.058.16-.054.217.008.058.062.055.159-.007.216l-6.686 6.253c-.03.027-.066.041-.105.041M155.928 111.11h-3.006c-.085 0-.153-.069-.153-.154 0-.085.068-.153.153-.153h3.006c.585 0 1.061-.476 1.061-1.062 0-.585-.476-1.062-1.061-1.062h-4.35c-.084 0-.153-.068-.153-.153 0-.085.07-.154.154-.154h4.349c.755 0 1.369.614 1.369 1.37 0 .754-.614 1.368-1.37 1.368" transform="translate(-1) translate(32)"/>
            <path fill="#000" d="M156.743 113.54h-3.82c-.086 0-.154-.068-.154-.153 0-.085.068-.153.153-.153h3.821c.586 0 1.062-.477 1.062-1.062 0-.586-.476-1.062-1.062-1.062h-3.82c-.086 0-.154-.069-.154-.154 0-.085.068-.153.153-.153h3.821c.755 0 1.37.614 1.37 1.369 0 .754-.615 1.369-1.37 1.369" transform="translate(-1) translate(32)"/>
            <path fill="#000" d="M155.4 115.972h-3.366c-.822 0-1.47-.345-1.929-1.025-1.04-1.546-.844-4.567-.066-6.479.032-.079.12-.116.2-.084.078.031.116.121.084.2-.75 1.847-.915 4.776.037 6.191.397.59.96.89 1.674.89h3.366c.586 0 1.062-.477 1.062-1.063 0-.585-.476-1.061-1.062-1.061h-2.478c-.085 0-.153-.069-.153-.154 0-.085.068-.153.153-.153h2.478c.755 0 1.369.614 1.369 1.368 0 .755-.614 1.37-1.369 1.37M186.451 102.75h-3.006c-.754 0-1.369-.613-1.369-1.368 0-.755.615-1.369 1.37-1.369h4.348c.085 0 .154.069.154.154 0 .085-.069.153-.154.153h-4.349c-.585 0-1.061.477-1.061 1.062 0 .585.476 1.062 1.061 1.062h3.006c.085 0 .154.069.154.153 0 .085-.069.154-.154.154" transform="translate(-1) translate(32)"/>
            <path fill="#000" d="M186.451 105.182h-3.821c-.755 0-1.37-.614-1.37-1.37 0-.754.615-1.368 1.37-1.368h3.821c.085 0 .154.069.154.153 0 .085-.069.154-.154.154h-3.821c-.586 0-1.062.476-1.062 1.062 0 .585.476 1.062 1.062 1.062h3.821c.085 0 .154.068.154.153 0 .085-.069.154-.154.154" transform="translate(-1) translate(32)"/>
            <path fill="#000" d="M187.339 107.612h-3.366c-.755 0-1.369-.614-1.369-1.369 0-.754.614-1.368 1.37-1.368h2.477c.085 0 .154.068.154.153 0 .085-.069.154-.154.154h-2.478c-.585 0-1.062.476-1.062 1.061 0 .586.477 1.062 1.062 1.062h3.366c.714 0 1.277-.299 1.674-.89.952-1.414.788-4.343.037-6.19-.032-.08.006-.169.084-.2.078-.032.168.005.2.084.778 1.912.974 4.933-.066 6.479-.458.68-1.107 1.024-1.929 1.024" transform="translate(-1) translate(32)"/>
            <path fill="#FFF" d="M155.847 108.526H151.46v-22.88h36.333v14.52h-4.43c-.67 0-1.215.545-1.215 1.216 0 .671.544 1.215 1.215 1.215h-.815c-.671 0-1.215.544-1.215 1.216 0 .67.544 1.215 1.215 1.215h1.343c-.671 0-1.215.544-1.215 1.215 0 .672.544 1.216 1.215 1.216h3.366c.192 0 .37-.021.536-.06v14.58h-36.333v-6.211c.154.032.317.05.492.05h3.366c.671 0 1.215-.544 1.215-1.215 0-.672-.544-1.216-1.215-1.216h1.344c.67 0 1.215-.544 1.215-1.215s-.544-1.216-1.215-1.216h-.816c.671 0 1.215-.544 1.215-1.215s-.544-1.215-1.215-1.215" transform="translate(-1) translate(32)"/>
            <path fill="#000" d="M151.615 121.826h36.026v-14.241c-.124.018-.252.027-.383.027h-3.366c-.755 0-1.369-.614-1.369-1.368 0-.428.198-.811.506-1.062h-.48c-.755 0-1.37-.614-1.37-1.369 0-.74.59-1.344 1.323-1.368-.309-.251-.506-.634-.506-1.063 0-.755.614-1.369 1.368-1.369h4.277V85.8h-36.026v22.572h4.232c.755 0 1.369.614 1.369 1.37 0 .427-.198.81-.507 1.061.733.025 1.322.63 1.322 1.369 0 .754-.614 1.369-1.369 1.369h-.48c.309.25.506.634.506 1.061 0 .755-.614 1.37-1.369 1.37h-3.366c-.113 0-.226-.008-.338-.023v5.877zm36.18.307H151.46c-.085 0-.154-.069-.154-.154v-6.211c0-.047.021-.09.057-.12.036-.029.084-.04.128-.03.153.031.303.047.461.047h3.366c.586 0 1.062-.477 1.062-1.063 0-.585-.476-1.061-1.062-1.061-.085 0-.153-.069-.153-.154 0-.085.068-.153.153-.153h1.343c.586 0 1.062-.477 1.062-1.062 0-.586-.476-1.062-1.062-1.062h-.815c-.085 0-.154-.069-.154-.154 0-.085.069-.153.154-.153.585 0 1.062-.476 1.062-1.062 0-.585-.477-1.062-1.062-1.062h-4.386c-.085 0-.154-.068-.154-.153v-22.88c0-.085.07-.153.154-.153h36.333c.085 0 .154.068.154.153v14.52c0 .086-.069.154-.154.154h-4.43c-.585 0-1.061.477-1.061 1.062 0 .586.476 1.062 1.061 1.062.085 0 .154.069.154.153 0 .085-.069.154-.154.154h-.815c-.586 0-1.062.476-1.062 1.062 0 .585.476 1.062 1.062 1.062h1.343c.085 0 .154.068.154.153 0 .085-.069.154-.154.154-.586 0-1.062.476-1.062 1.062 0 .585.476 1.061 1.062 1.061h3.366c.174 0 .343-.018.502-.055.046-.01.093 0 .13.03.036.029.058.073.058.12v14.58c0 .084-.069.153-.154.153z" transform="translate(-1) translate(32)"/>
            <path fill="#000" d="M148.955 115.972c-.03 0-.06-.01-.085-.026-.1-.066-9.9-6.8-4.896-22.167 5.387-16.545 18.286-22.102 18.416-22.156.078-.032.168.004.2.083.034.078-.003.168-.082.2-.128.054-12.9 5.563-18.242 21.968-4.35 13.362 2.624 20.083 4.387 21.52-.504-1.617-1.858-6.873.782-9.686.058-.062.155-.065.217-.007s.065.155.007.217c-2.95 3.143-.584 9.78-.56 9.847.023.063.003.133-.049.174-.028.021-.061.033-.095.033" transform="translate(-1) translate(32)"/>
            <path fill="#026BB0" d="M175.515 115.818L163.803 115.818 163.803 96.09 175.515 96.09 175.515 100.368 169.133 100.368 169.133 103.471 175.043 103.471 175.043 107.749 169.133 107.749 169.133 111.473 175.515 111.473z" transform="translate(-1) translate(32)"/>
            <path fill="#000" d="M193.647 108.818c-1.389 0-2.344-.136-2.37-.14-.08-.012-.138-.085-.13-.166.007-.082.697-8.244-1.346-10.319-.041-.042-.055-.105-.034-.16.02-.057.072-.096.131-.1l7.406-.61c.083-.007.158.056.165.14.007.085-.055.16-.14.166l-7.104.585c1.772 2.309 1.327 9.06 1.24 10.178 1.028.123 7.352.723 10.734-2.628 1.828-1.811 2.51-4.482 2.027-7.939-1.46-10.456-7.37-16.844-12.07-20.362-5.1-3.816-9.919-5.174-9.967-5.188-.082-.022-.13-.107-.107-.188.023-.082.108-.13.189-.108.048.014 4.914 1.383 10.06 5.231 4.75 3.553 10.723 10.007 12.2 20.573.497 3.558-.216 6.317-2.117 8.2-2.422 2.4-6.286 2.835-8.767 2.835" transform="translate(-1) translate(32)"/>
            <path fill="#FFF" d="M166.801 64.616c-.059.034-.122.078-.134.146-.016.098.087.172.181.205.39.134.816-.013 1.192-.18.126-.057.255-.12.342-.226.352-.434-.299-.35-.535-.313-.367.058-.724.183-1.046.368" transform="translate(-1) translate(32)"/>
            <path fill="#515151" d="M164.13 49.53c0-2.481 1.352-4.744 3.459-5.705 2.282-1.04 5.616-1.672 9.765.028 2.206.904 3.644 3.228 3.644 5.788v5.88c-1.068-1.214-3.017-.465-3.017-.465l-.301.074c-4.706-2.158-5.5-6.162-5.5-6.162s-3.454 3.991-8.05 4.912v-4.35z" transform="translate(-1) translate(32)"/>
            <path fill="#000" d="M179.119 54.671c.566 0 1.201.116 1.725.51v-5.54c0-2.505-1.57-4.773-3.907-5.644-4.657-1.735-8.349-.974-10.626-.03-2.253.934-3.708 3.118-3.708 5.563v4.219c4.994-.092 9.393-4.609 9.437-4.655.039-.04.097-.057.151-.042.055.015.096.059.11.114.007.033.811 3.303 5.393 5.724.19-.06.761-.219 1.425-.219m1.879 1.003c-.041 0-.08-.016-.11-.047-1.094-1.13-3.137-.433-3.157-.426-.04.014-.085.011-.122-.009-4.067-2.128-5.253-4.858-5.534-5.702-.909.873-5.027 4.567-9.626 4.567-.085 0-.153-.069-.153-.154V49.53c0-2.57 1.53-4.865 3.897-5.846 2.329-.966 6.1-1.745 10.852.025 2.456.915 4.107 3.3 4.107 5.931v5.88c0 .063-.039.12-.097.143-.018.007-.038.011-.057.011" transform="translate(-1) translate(32)"/>
            <path fill="#000" d="M178.737 60.757c-.598 0-1.05-.097-1.09-.105-.083-.019-.135-.1-.117-.183.018-.083.1-.135.183-.117.02.004 1.98.419 3.097-.527.566-.48.827-1.236.777-2.248-.053-1.052-.39-1.794-1.004-2.207-1.13-.759-2.835-.175-2.852-.169-.08.028-.168-.014-.196-.094-.028-.08.014-.168.094-.196.076-.026 1.87-.64 3.125.204.698.47 1.081 1.293 1.14 2.447.055 1.113-.243 1.953-.886 2.498-.667.564-1.569.697-2.271.697" transform="translate(-1) translate(32)"/>
            <path fill="#515151" d="M191.28 67.918c-.467-2.804-4.69-5.982-10.36-5.033v-2.954c-.72.616-1.803.684-2.548.641-.47-.027-.835-.419-.843-.89 0 0-2.947 3.872-3.116 8.678l.043-.058s2.042 10.565 13.894 8.493c2.248-1.437 3.715-4.17 2.93-8.877" transform="translate(-1) translate(32)"/>
            <path fill="#000" d="M183.11 78.315c-2.54 0-4.895-.759-5.789-1.75-6.88-7.63.166-16.99.238-17.085.04-.052.109-.072.171-.051.062.02.104.079.104.145.002.452.352.821.798.84.649.025 1.554-.056 2.186-.598.046-.04.11-.049.164-.023.055.025.09.079.09.139v2.954c0 .085-.07.154-.154.154-.085 0-.153-.069-.153-.154v-2.648c-.678.438-1.521.51-2.146.482-.476-.02-.873-.33-1.025-.759-1.114 1.63-6.076 9.71-.045 16.398 1.342 1.488 6.442 2.427 9.956.732 2.173-1.048 4.566-3.486 3.622-9.147-.014-.084.043-.163.127-.177.08-.015.162.043.176.126.975 5.849-1.524 8.38-3.792 9.475-1.39.67-2.993.947-4.528.947" transform="translate(-1) translate(32)"/>
            <path fill="#000" d="M189.875 72.28c-.034 0-.068-.01-.097-.033-.066-.053-.076-.15-.023-.216 1.7-2.118 2.168-5.507-.62-8.303-2.654-2.662-6.937-1.814-8.112-.73-.061.058-.159.054-.216-.009-.058-.062-.054-.16.008-.217 1.427-1.317 5.908-1.899 8.538.74 2.922 2.93 2.428 6.487.641 8.711-.03.038-.074.058-.12.058M158.846 73.973c-.06 0-.115-.034-.14-.091-.804-1.79-.921-3.437-.35-4.892.816-2.08 2.755-3.082 3.176-3.279l.892-5.598c.013-.084.09-.141.175-.128.084.014.141.093.128.176l-.905 5.68c-.008.053-.042.097-.091.118-.022.01-2.241.976-3.09 3.145-.539 1.376-.423 2.94.345 4.652.034.078 0 .168-.077.203-.02.01-.042.014-.063.014" transform="translate(-1) translate(32)"/>
            <path fill="#FFF" d="M257.048 28.06h3.113V5.384h-36.333V28.06h2.903c.671 0 1.215.545 1.215 1.216 0 .671-.544 1.215-1.215 1.215h.815c.672 0 1.216.544 1.216 1.216 0 .671-.544 1.215-1.216 1.215h-1.343c.671 0 1.215.544 1.215 1.215 0 .672-.544 1.216-1.215 1.216h-2.375v6.364h36.333v-6.364h-2.585c-.671 0-1.215-.544-1.215-1.216 0-.67.544-1.215 1.215-1.215h-1.343c-.671 0-1.215-.544-1.215-1.215 0-.672.544-1.216 1.215-1.216h.815c-.67 0-1.215-.544-1.215-1.215s.544-1.216 1.215-1.216" transform="translate(-1) translate(32)"/>
            <path fill="#000" d="M223.982 41.563h36.026v-6.057h-2.432c-.755 0-1.369-.614-1.369-1.369 0-.428.198-.81.506-1.061h-.48c-.755 0-1.37-.615-1.37-1.37 0-.739.59-1.343 1.323-1.367-.309-.252-.506-.635-.506-1.063 0-.755.614-1.37 1.369-1.37h2.959V5.538h-36.026v22.37h2.749c.755 0 1.369.614 1.369 1.369 0 .428-.198.811-.507 1.063.734.024 1.323.628 1.323 1.368 0 .754-.615 1.369-1.37 1.369h-.48c.309.25.506.633.506 1.061 0 .755-.614 1.37-1.369 1.37h-2.221v6.056zm36.18.308h-36.334c-.084 0-.153-.07-.153-.154v-6.364c0-.085.069-.154.153-.154h2.375c.586 0 1.062-.476 1.062-1.062 0-.585-.476-1.061-1.062-1.061-.085 0-.153-.07-.153-.154 0-.085.068-.154.153-.154h1.344c.585 0 1.061-.476 1.061-1.061 0-.586-.476-1.062-1.061-1.062h-.816c-.085 0-.154-.069-.154-.154 0-.085.07-.153.154-.153.586 0 1.062-.477 1.062-1.062 0-.586-.476-1.062-1.062-1.062h-2.903c-.084 0-.153-.069-.153-.154V5.384c0-.085.069-.154.153-.154h36.334c.084 0 .153.069.153.154V28.06c0 .085-.069.154-.153.154h-3.113c-.586 0-1.062.476-1.062 1.062 0 .585.476 1.062 1.062 1.062.084 0 .153.068.153.153 0 .085-.069.154-.153.154h-.816c-.586 0-1.062.476-1.062 1.062 0 .585.476 1.061 1.062 1.061h1.343c.085 0 .154.07.154.154 0 .085-.069.154-.154.154-.586 0-1.062.476-1.062 1.061 0 .586.476 1.062 1.062 1.062h2.586c.084 0 .153.069.153.154v6.364c0 .085-.069.154-.153.154z" transform="translate(-1) translate(32)"/>
            <path fill="#E51E74" d="M251.325 122.071l-18.202-.182s-16.323 33.86-5.843 117.964h13.236l1.056-90.652 4.38 90.652h15.274s8.99-88.147-9.901-117.782" transform="translate(-1) translate(32)"/>
            <path fill="#000" d="M244.558 55.951c0 .378.189.685.423.685.233 0 .423-.307.423-.685 0-.378-.19-.685-.423-.685-.234 0-.423.307-.423.685M237.793 55.951c0 .378.189.685.423.685.233 0 .423-.307.423-.685 0-.378-.19-.685-.423-.685-.234 0-.423.307-.423.685M245.948 54.333c-.038 0-.077-.014-.106-.042-.036-.035-.893-.832-2.023-.01-.068.049-.164.034-.214-.035-.05-.068-.035-.164.033-.214 1.342-.978 2.406.027 2.417.038.06.059.062.155.003.216-.03.032-.07.047-.11.047M237.287 54.376c-.044 0-.088-.019-.118-.055-.055-.065-.046-.162.019-.216 1.273-1.066 2.402-.137 2.413-.127.065.054.073.15.02.216-.055.064-.152.073-.217.019-.039-.032-.949-.77-2.019.127-.029.024-.064.036-.098.036" transform="translate(-1) translate(32)"/>
            <g transform="translate(-1) translate(32) translate(228.58 252.96)">
                <mask id="prefix__d" fill="#fff">
                    <use xlink:href="#prefix__c"/>
                </mask>
                <path fill="#515151" d="M9.123.198l2.82 5.302H.056L4.32.198s-.001 2.553 2.147 2.65c2.469.114 2.657-2.65 2.657-2.65" mask="url(#prefix__d)"/>
            </g>
            <path fill="#000" d="M246.098 239.7h14.761c.198-1.916 2.35-23.352 2.326-47.8-.024-23.481-2.117-54.612-11.944-69.676l-19.473-.195c-.47.918-4.726 9.565-7.655 27.345-5.154 31.295-2.314 66.367.987 90.325h15.264l1.054-90.5c0-.082.068-.15.151-.151.079.001.152.063.156.146l4.373 90.505zm14.9.307h-15.046c-.082 0-.15-.065-.154-.147l-4.133-85.535-.996 85.53c0 .084-.07.152-.154.152h-15.549c-.076 0-.141-.057-.152-.133-3.313-23.99-6.175-59.179-1-90.574 2.479-15.035 6.138-24.562 7.727-27.498.027-.05.078-.084.136-.081l19.65.197c.05 0 .098.026.126.069 9.907 15.102 12.015 46.356 12.039 69.915.025 25.512-2.319 47.746-2.342 47.967-.009.079-.074.138-.153.138z" transform="translate(-1) translate(32)"/>
            <g transform="translate(-1) translate(32) translate(245.96 252.96)">
                <mask id="prefix__f" fill="#fff">
                    <use xlink:href="#prefix__e"/>
                </mask>
                <path fill="#515151" d="M2.888.198L.068 5.5h11.886L7.691.198s.002 2.553-2.147 2.65C3.076 2.963 2.888.199 2.888.199" mask="url(#prefix__f)"/>
            </g>
            <path fill="#E51E74" d="M244.12 27.486l-.85-3.238c-.198-.72-.439-1.651-.722-2.794-.283-1.142-.47-1.96-.56-2.455-.081.458-.24 1.214-.479 2.267-.238 1.052-.767 3.126-1.585 6.22h4.196zm2.078 8.07l-.971-3.698h-6.41l-.998 3.697h-5.857l6.437-19.808h7.11l6.518 19.808h-5.829z" transform="translate(-1) translate(32)"/>
            <path fill="#000" d="M241.84 47.537c-1.99 0-3.841.796-5.211 2.24-1.37 1.444-2.067 3.335-1.962 5.323l.4 7.554c.098 1.712 1.115 3.247 2.653 4.006l2.153 1.062c1.131.558 2.436.573 3.58.039l2.418-1.129c1.594-.743 2.647-2.295 2.748-4.05l.396-7.482c.105-1.988-.592-3.879-1.963-5.323-1.37-1.444-3.22-2.24-5.211-2.24m-.138 20.921c-.672 0-1.343-.154-1.966-.461l-2.153-1.062c-1.637-.808-2.72-2.441-2.825-4.264l-.398-7.555c-.11-2.073.616-4.044 2.045-5.55 1.429-1.506 3.359-2.336 5.435-2.336 2.076 0 4.006.83 5.434 2.335 1.429 1.507 2.156 3.478 2.046 5.551l-.395 7.482c-.108 1.87-1.229 3.521-2.925 4.313l-2.419 1.128c-.599.28-1.24.42-1.88.42" transform="translate(-1) translate(32)"/>
            <path fill="#000" d="M241.647 60.642c-.416 0-.783-.163-.806-.174-.077-.035-.11-.126-.076-.203.035-.077.126-.111.203-.077.008.004.72.32 1.17.013.07-.047.165-.03.213.04.048.07.03.166-.04.214-.206.14-.442.187-.664.187M239.138 63.056c1.076.423 3.012.928 4.846.093.328-.15.674.2.525.528-.383.845-1.212 1.91-2.954 1.91-1.647 0-2.507-1.127-2.923-1.982-.16-.327.167-.682.506-.549" transform="translate(-1) translate(32)"/>
            <path fill="#FFF" d="M241.64 64.315c.283-.012.573-.021.842.07.192.066.388.227.363.428-.02.164-.178.272-.328.34-.587.269-1.279.25-1.89.043-.3-.102-.855-.462-.367-.697.39-.188.956-.165 1.38-.184" transform="translate(-1) translate(32)"/>
            <path fill="#000" d="M241.84 75.403c-2.242 0-4.067-1.825-4.067-4.068v-4.402c0-.085.069-.154.154-.154.085 0 .153.069.153.154v4.402c0 2.074 1.687 3.76 3.76 3.76 2.074 0 3.761-1.686 3.761-3.76v-4.402c0-.085.069-.154.154-.154.084 0 .153.07.153.154v4.402c0 2.243-1.825 4.068-4.067 4.068M255.017 82.695c-.067 0-.129-.045-.148-.113-.022-.081.026-.166.108-.188 9.804-2.697 16.393-7.78 19.586-15.11 6.283-14.419-2.632-33.132-3.627-35.136l-7.544 6.552c8.11 18.528.187 26.69-7.896 30.277-.077.034-.169 0-.203-.078s0-.168.078-.203c7.971-3.536 15.776-11.607 7.694-29.976-.027-.061-.01-.133.04-.177l7.779-6.756c.035-.03.084-.043.129-.035.046.01.086.039.107.08.105.201 10.395 20.265 3.725 35.575-3.232 7.418-9.89 12.56-19.787 15.283-.013.003-.027.005-.04.005M248.848 253.312c-.083 0-.15-.065-.154-.148l-.483-13.305c-.003-.085.063-.156.148-.16h.006c.082 0 .15.066.153.148l.483 13.306c.003.085-.063.155-.147.159h-.006zM253.652 253.312c-.013 0-.026-.002-.038-.005-.083-.02-.132-.105-.111-.187l3.413-13.305c.02-.082.106-.132.187-.11.082.02.131.104.11.186l-3.413 13.305c-.017.07-.08.116-.148.116M237.716 253.533h-.006c-.085-.003-.15-.074-.148-.16l.483-13.304c.004-.085.064-.139.16-.148.084.003.15.074.147.159l-.483 13.305c-.003.083-.07.148-.153.148M232.912 253.533c-.069 0-.131-.046-.149-.115l-3.413-13.306c-.021-.082.028-.166.11-.186.082-.021.166.028.187.11l3.414 13.305c.02.083-.029.166-.111.187-.013.004-.026.005-.038.005M243.35 149.25h-3.685c-.085 0-.154-.07-.154-.154 0-.085.069-.154.154-.154h3.684c.085 0 .154.069.154.154 0 .084-.069.153-.154.153" transform="translate(-1) translate(32)"/>
            <path fill="#000" d="M251.325 122.225c-.012 0-.025-.002-.037-.005-.082-.02-.132-.104-.112-.186.058-.234 5.818-23.562 4.973-39.858-.005-.085.06-.157.145-.162.085-.004.157.061.161.146.849 16.342-4.923 39.714-4.981 39.948-.017.07-.08.117-.149.117M228.035 82.499c-.013 0-.027-.002-.04-.006-9.898-2.723-16.555-7.865-19.787-15.282-6.67-15.31 3.62-35.374 3.724-35.575.022-.042.062-.072.108-.08.045-.009.094.004.13.035l7.778 6.755c.05.044.067.116.04.178-4.146 9.421-4.503 17.067-1.063 22.725 5.357 8.809 18.253 9.728 18.383 9.736.084.006.149.079.143.163-.005.085-.063.15-.163.144-.032-.002-3.326-.224-7.244-1.546-3.622-1.221-8.537-3.66-11.382-8.338-3.482-5.727-3.146-13.433 1-22.904l-7.545-6.552c-.995 2.004-9.91 20.72-3.627 35.137 3.193 7.328 9.783 12.411 19.586 15.108.082.023.13.107.108.189-.02.068-.081.113-.149.113" transform="translate(-1) translate(32)"/>
            <path fill="#000" d="M231.728 122.028c-.069 0-.132-.046-.15-.116-.058-.234-5.829-23.607-4.98-39.949.004-.084.068-.149.16-.145.085.004.15.076.146.161-.846 16.297 4.914 39.625 4.973 39.858.02.083-.03.166-.112.187-.013.003-.025.004-.037.004M255.427 130.519h-.002c-7.943-.103-7.931-8.363-7.93-8.446 0-.084.07-.152.153-.152h.002c.085.001.153.07.152.156 0 .02-.013 2.044.924 4.05 1.247 2.669 3.502 4.043 6.703 4.085.084 0 .152.07.151.155 0 .084-.07.152-.153.152M228.48 130.519c-.085 0-.153-.068-.154-.152-.001-.084.066-.154.151-.155 3.2-.042 5.456-1.416 6.703-4.086.937-2.005.925-4.03.924-4.05 0-.084.067-.154.152-.155.082.001.154.067.155.152.001.083.013 8.343-7.93 8.446h-.002zM229.196 69.435l-.03-.003c-.084-.017-.137-.098-.12-.181.475-2.346.586-6.79.64-8.927.119-4.754 1.279-11.148 6.131-14.604 2.91-2.073 5.726-2.098 5.846-2.098.085 0 .154.069.154.154 0 .085-.07.153-.154.153-.028 0-2.85.027-5.682 2.05-2.615 1.87-5.777 5.876-5.988 14.353-.054 2.145-.166 6.607-.646 8.98-.015.073-.08.123-.15.123" transform="translate(-1) translate(32)"/>
            <path fill="#515151" d="M245.307 53.222l.448-2.25 1.145 2.25h-1.593zm7.356 2.044c-.575-4.122-1.974-6.807-3.588-8.555-1.585-1.976-4.018-3.242-6.748-3.242h-.14c-.332-.013-.524 0-.524 0-2.375 0-4.526.958-6.089 2.508 0 0-2.827 2.283-4.532 10.235-.71 3.308-.474 8.269-.957 13.385l2.929.836.176-1.69c.28 1.048.933 1.683 2.24 2.167.538.2 2.497.482 2.497.482v-4.46l-.275-.135c-1.59-.785-2.637-2.364-2.74-4.135l-.363-6.892.264-2.52c.007-.065 6.387-.049 6.387-.049 1.612-.571 1.996-2.26 1.996-2.26l.493 2.272c2.875.016 5.338.037 5.341.037.122.597.171 1.22.138 1.858l-.395 7.482c-.105 1.81-1.194 3.415-2.837 4.181l-.346.162h.165v4.402l.4 14.293c.044 1.53 1.296 2.748 2.827 2.748h.326l1.104-9.596c.511 4.258.614 9.588.614 9.588l1.054-.006c1.465-.009 2.672-1.136 2.801-2.595 1.02-11.535-2.218-30.5-2.218-30.5z" transform="translate(-1) translate(32)"/>
            <path fill="#000" d="M247.11 87.61c-.04 0-.079-.015-.109-.046-1.657-1.696-2.403-4.82-2.218-9.284.138-3.306.764-6.158.77-6.186.02-.082.1-.134.184-.117.083.019.135.1.116.184-.024.112-2.45 11.28 1.368 15.189.059.06.058.157-.003.217-.03.029-.069.043-.107.043M254.608 86.252c-.01 0-.02-.001-.029-.003-.083-.016-.137-.097-.122-.18.039-.198 3.743-20.047-3.61-36.115-.034-.077 0-.168.076-.204.077-.035.169-.001.204.076 7.394 16.159 3.67 36.102 3.632 36.302-.014.073-.079.124-.15.124M269.149 33.651c-.06 0-.117-.035-.142-.093-2.007-4.692-7.57-5.339-7.626-5.345h-4.332c-.586 0-1.062.477-1.062 1.063 0 .585.476 1.062 1.062 1.062h3.005c.085 0 .154.068.154.153 0 .085-.07.154-.154.154h-3.005c-.755 0-1.37-.614-1.37-1.37 0-.754.615-1.368 1.37-1.368h4.348c.074.007 5.816.675 7.893 5.53.033.078-.003.168-.081.201-.02.01-.04.013-.06.013" transform="translate(-1) translate(32)"/>
            <path fill="#000" d="M260.054 33.075h-3.821c-.755 0-1.37-.614-1.37-1.368 0-.755.615-1.37 1.37-1.37h3.821c.085 0 .154.07.154.154 0 .085-.069.154-.154.154h-3.821c-.586 0-1.062.476-1.062 1.062 0 .585.476 1.061 1.062 1.061h3.821c.085 0 .154.069.154.154 0 .085-.069.153-.154.153" transform="translate(-1) translate(32)"/>
            <path fill="#000" d="M264.465 37.718c-.053 0-.105-.027-.133-.077-1.091-1.894-3.381-2.133-3.404-2.136l-3.352.001c-.755 0-1.369-.614-1.369-1.369s.614-1.369 1.37-1.369h2.477c.085 0 .154.07.154.154 0 .085-.069.154-.154.154h-2.478c-.586 0-1.062.476-1.062 1.061 0 .586.476 1.062 1.062 1.062h3.366c.115.01 2.484.254 3.656 2.29.042.073.017.167-.056.209-.024.014-.05.02-.077.02M214.63 33.651c-.02 0-.04-.004-.06-.013-.078-.033-.114-.123-.08-.201 2.077-4.855 7.818-5.523 7.876-5.53h4.365c.755 0 1.369.614 1.369 1.369s-.614 1.369-1.369 1.369h-3.006c-.085 0-.153-.069-.153-.154 0-.085.068-.153.153-.153h3.006c.586 0 1.062-.477 1.062-1.062 0-.586-.476-1.062-1.062-1.062h-4.35c-.039.005-5.604.657-7.61 5.344-.024.058-.08.093-.14.093" transform="translate(-1) translate(32)"/>
            <path fill="#000" d="M227.547 33.075h-3.822c-.085 0-.153-.068-.153-.153 0-.085.068-.154.153-.154h3.822c.585 0 1.061-.476 1.061-1.061 0-.586-.476-1.062-1.061-1.062h-3.822c-.085 0-.153-.069-.153-.154 0-.085.068-.153.153-.153h3.822c.754 0 1.369.614 1.369 1.369 0 .754-.615 1.368-1.37 1.368" transform="translate(-1) translate(32)"/>
            <path fill="#000" d="M219.314 37.718c-.026 0-.052-.006-.076-.02-.074-.042-.1-.136-.057-.21 1.172-2.035 3.542-2.279 3.642-2.288h3.38c.586 0 1.062-.477 1.062-1.063 0-.585-.476-1.061-1.062-1.061h-2.478c-.085 0-.153-.07-.153-.154 0-.085.068-.154.153-.154h2.478c.755 0 1.37.614 1.37 1.37 0 .754-.615 1.368-1.37 1.368h-3.366c-.008.002-2.298.241-3.39 2.135-.028.05-.08.077-.133.077" transform="translate(-1) translate(32)"/>
            <path fill="#FFF" d="M102.765 50.751v36.334h9.646v-3.306c0-1.15 1.294-1.835 2.238-1.179 1.955 1.359 1.908 4.194 1.897 4.485h22.552V50.75h-36.333z" transform="translate(-1) translate(32)"/>
            <path fill="#000" d="M116.702 86.93h22.242V50.906h-36.026V86.93h9.34v-3.152c0-.592.326-1.13.852-1.405.53-.277 1.138-.24 1.627.1 1.823 1.267 1.963 3.754 1.965 4.457m22.396.307h-22.552c-.041 0-.08-.017-.11-.047-.029-.03-.044-.07-.043-.112.01-.308.05-3.046-1.831-4.353-.394-.273-.883-.303-1.31-.08-.43.225-.688.649-.688 1.133v3.305c0 .085-.069.154-.153.154h-9.646c-.085 0-.154-.069-.154-.154V50.751c0-.085.069-.153.154-.153h36.333c.085 0 .153.068.153.153v36.333c0 .085-.068.154-.153.154" transform="translate(-1) translate(32)"/>
            <path fill="#78B518" d="M107.207 89.715c-1.229 1.974-8.077 6.346-13.552 6.346-6.06 0-9.724-1.74-17.324-10.415-5.196-5.93-8.811-8.096-11.847-9.697-1.433-.756-4.022-1.465-5.69-1.239l.037.056-.067.077h-.03l.009.024c-1.519 1.75-3.752 3.974-3.752 3.974l-7.43-3.997-.154.206c-2.119-.27-25.824-2.743-36.232 19.98-10.378 22.654 15.66 36.846 18.884 36.54 0 0-3.531-6.603.46-12.283 0 0-9.211-3.531-7.37-12.436 1.79-8.648 12.493-10.772 13.108-10.887-.598 2.362-1.88 9.172-1.977 24.4h3.37c.879 0 1.591.712 1.591 1.59 0 .879-.712 1.59-1.59 1.59h1.757c.879 0 1.59.713 1.59 1.591 0 .879-.711 1.59-1.59 1.59h-1.067c.878 0 1.59.713 1.59 1.59 0 .88-.712 1.592-1.59 1.592h-4.333c.04 7.897.444 13.582.444 13.582l39.787.057v-10.613s.258-15.21-1.563-30.091c25.4 21.3 43.266-2.62 43.266-2.62l-8.735-10.507z" transform="translate(-1) translate(32)"/>
            <path fill="#000" d="M74.239 143.7l-39.787-.058c-.08 0-.147-.062-.153-.142-.004-.057-.405-5.78-.445-13.593 0-.04.016-.08.045-.109.029-.029.068-.045.109-.045h4.333c.792 0 1.437-.645 1.437-1.437s-.645-1.437-1.437-1.437c-.085 0-.153-.068-.153-.153 0-.085.068-.154.153-.154h1.067c.793 0 1.437-.645 1.437-1.437s-.644-1.437-1.437-1.437h-1.757c-.085 0-.154-.068-.154-.153 0-.085.069-.154.154-.154.792 0 1.436-.644 1.436-1.437 0-.792-.644-1.436-1.436-1.436h-3.37c-.042 0-.08-.017-.11-.046-.029-.029-.045-.068-.044-.109.098-15.379 1.418-22.212 1.98-24.436.022-.083.105-.133.187-.112.082.021.132.105.112.187-.559 2.206-1.865 8.972-1.971 24.209h3.216c.961 0 1.744.782 1.744 1.743 0 .596-.3 1.123-.757 1.437h.77c.962 0 1.744.783 1.744 1.744 0 .962-.782 1.744-1.744 1.744h-.08c.457.315.757.842.757 1.437 0 .961-.782 1.744-1.744 1.744h-4.179c.04 7.043.373 12.352.434 13.276l39.49.057v-10.46c-.003-.202-.3-20.577-2.1-35.278-.01-.084.05-.161.134-.171.084-.012.16.05.17.133 1.802 14.719 2.1 35.11 2.102 35.313v10.616c0 .04-.016.08-.045.109-.029.029-.068.045-.108.045" transform="translate(-1) translate(32)"/>
            <path fill="#000" d="M28.682 126.88c-.078 0-.145-.06-.152-.14-.02-.203-.433-4.893 1.73-7.396-1.357-.598-8.953-4.343-7.26-12.524.77-3.723 3.35-6.752 7.665-9.002 3.227-1.681 6.646-2.473 8.157-2.676.083-.011.161.048.173.132.01.084-.048.162-.132.173-1.492.2-4.867.982-8.056 2.644-4.23 2.205-6.756 5.163-7.507 8.791-1.794 8.672 7.184 12.227 7.274 12.261.048.019.084.06.095.11.011.05-.003.102-.038.14-2.234 2.354-1.8 7.269-1.796 7.318.008.085-.054.16-.138.167l-.015.001" transform="translate(-1) translate(32)"/>
            <path fill="#000" d="M29.955 131.727c-2.16 0-11.136-4.588-16.68-12.385-3.72-5.231-7.127-13.706-2.24-24.376 4.375-9.552 11.549-15.842 21.322-18.696 7.3-2.132 13.575-1.554 14.98-1.383l.101-.136c.046-.06.129-.078.195-.042l7.33 3.942c.41-.411 2.298-2.315 3.632-3.848.004-.011.008-.022.014-.031.01-.015.021-.029.034-.041-.004-.029 0-.058.012-.085.022-.048.067-.08.12-.088 1.671-.226 4.302.475 5.781 1.255 3.026 1.597 6.69 3.797 11.89 9.732 7.818 8.923 11.476 10.363 17.209 10.363 5.498 0 12.257-4.403 13.422-6.275.025-.041.07-.068.12-.072.048-.002.096.018.128.055l8.735 10.508c.046.054.048.133.006.19-.074.1-7.525 9.995-19.453 11.408-7.9.936-15.953-1.984-23.936-8.679-.065-.054-.073-.151-.019-.216.055-.065.152-.073.216-.02 7.915 6.638 15.888 9.535 23.7 8.611 11.168-1.322 18.375-10.171 19.172-11.192l-8.527-10.257c-1.474 2-8.13 6.246-13.564 6.246-5.832 0-9.543-1.455-17.44-10.468-5.165-5.895-8.8-8.078-11.802-9.662-1.394-.736-3.832-1.4-5.45-1.24-.005.007-.01.015-.016.021l-.067.078-.013.013-.008.01c-1.505 1.735-3.737 3.96-3.76 3.982-.047.048-.12.058-.18.027l-7.314-3.934-.075.1c-.033.044-.088.067-.142.06-1.196-.152-7.534-.801-14.945 1.363-9.684 2.828-16.793 9.062-21.129 18.528C6.488 105.63 9.853 114 13.525 119.164c5.856 8.235 14.956 12.398 16.52 12.252.085-.011.158.054.166.138.009.085-.054.16-.138.168-.037.003-.076.005-.118.005" transform="translate(-1) translate(32)"/>
            <g transform="translate(-1) translate(32) translate(61.16 249)">
                <mask id="prefix__h" fill="#fff">
                    <use xlink:href="#prefix__g"/>
                </mask>
                <path fill="#515151" d="M8.508 0.054L22.613 9.46 0.155 9.029 0.822 0.054z" mask="url(#prefix__h)"/>
            </g>
            <path fill="#000" d="M38.341 130.06h-5.69c-.085 0-.154-.069-.154-.154 0-.085.069-.153.153-.153h5.691c.792 0 1.437-.645 1.437-1.437s-.645-1.437-1.437-1.437h-3.933c-.085 0-.154-.068-.154-.153 0-.085.07-.154.154-.154h3.933c.962 0 1.744.782 1.744 1.744 0 .961-.782 1.744-1.744 1.744" transform="translate(-1) translate(32)"/>
            <path fill="#000" d="M39.408 126.88h-5c-.085 0-.154-.07-.154-.154 0-.085.07-.154.154-.154h5c.793 0 1.437-.645 1.437-1.437s-.644-1.437-1.437-1.437h-5c-.085 0-.154-.068-.154-.153 0-.085.07-.154.154-.154h5c.962 0 1.744.783 1.744 1.744 0 .962-.782 1.744-1.744 1.744" transform="translate(-1) translate(32)"/>
            <path fill="#000" d="M30.094 127.128c-.063 0-.123-.04-.145-.103-.234-.676-.248-3.816 1.005-5.577.585-.82 1.356-1.237 2.292-1.237h4.405c.961 0 1.743.782 1.743 1.744 0 .96-.782 1.743-1.743 1.743h-3.243c-.085 0-.153-.068-.153-.153 0-.085.068-.154.153-.154h3.243c.792 0 1.436-.644 1.436-1.436 0-.793-.644-1.437-1.436-1.437h-4.405c-.83 0-1.518.373-2.041 1.109-1.195 1.678-1.187 4.658-.966 5.297.028.08-.014.168-.094.195-.017.006-.034.009-.05.009M59.866 59.005c0 .382.191.692.427.692s.427-.31.427-.692c0-.382-.19-.692-.427-.692-.236 0-.427.31-.427.692M53.94 59.005c0 .382.19.692.426.692s.428-.31.428-.692c0-.382-.192-.692-.428-.692-.235 0-.427.31-.427.692" transform="translate(-1) translate(32)"/>
            <path fill="#515151" d="M36.453 252.972L34.59 258.46 48.744 258.46 47.627 252.972z" transform="translate(-1) translate(32)"/>
            <path fill="#000" d="M56.591 70.866h-1.48c-.085 0-.154-.07-.154-.154 0-.085.069-.154.154-.154h1.48c3.352 0 6.079-2.727 6.079-6.078V53.92c0-.085.069-.154.154-.154.084 0 .153.069.153.154v10.56c0 3.52-2.865 6.386-6.386 6.386" transform="translate(-1) translate(32)"/>
            <path fill="#000" d="M54.991 78.994c-.025 0-.05-.006-.072-.018l-7.431-3.997c-.05-.027-.08-.079-.08-.136l.032-12.528c0-.084.069-.153.153-.153.086 0 .154.07.154.154l-.032 12.436 7.245 3.897 3.62-3.866v-4.449c0-.085.069-.153.154-.153.084 0 .153.068.153.153v4.51c0 .039-.015.076-.041.105l-3.743 3.996c-.03.032-.07.049-.112.049" transform="translate(-1) translate(32)"/>
            <path fill="#000" d="M46.526 63.874c-.709 0-1.62-.135-2.293-.704-.65-.55-.95-1.398-.894-2.522.059-1.164.446-1.995 1.15-2.47 1.267-.851 3.078-.232 3.155-.205.08.028.122.116.094.196-.028.08-.115.122-.195.094-.018-.006-1.746-.595-2.883.171-.62.417-.96 1.168-1.014 2.23-.051 1.023.213 1.787.785 2.271 1.132.958 3.11.537 3.13.533.082-.018.164.034.182.117.018.082-.034.165-.117.183-.04.008-.497.106-1.1.106" transform="translate(-1) translate(32)"/>
            <path fill="#515151" d="M46.031 57.936l-.08-5.196c-.04-2.666 1.348-5.187 3.688-6.466 1.569-.857 3.753-1.743 6.729-1.516 8.065.614 8.142 8.597 6.456 9.105-6.249 2.343-14.15-.31-14.15-.31l-.41 5.018" transform="translate(-1) translate(32)"/>
            <path fill="#000" d="M58.593 64.682c-.06 0-.115-.034-.14-.091-.035-.078 0-.169.078-.203l.897-.394-1.094-3.141c-.007-.019-.01-.039-.008-.058l.114-2.489c.003-.085.078-.153.16-.146.085.004.15.075.146.16l-.112 2.46 1.13 3.247c.027.076-.01.159-.083.191l-1.027.451c-.02.01-.04.013-.061.013M55.57 56.804c-.041 0-.082-.016-.112-.048-.035-.037-.858-.888-2.042-.118-.07.046-.166.026-.212-.045-.046-.071-.026-.166.045-.213 1.404-.912 2.423.155 2.433.166.058.062.054.159-.007.217-.03.027-.068.04-.105.04M58.76 56.752c-.04 0-.078-.014-.107-.043-.061-.06-.063-.157-.004-.217 1.167-1.202 2.397-.387 2.41-.378.07.047.088.143.04.213-.047.07-.143.088-.213.04-.041-.027-1.033-.674-2.017.339-.03.03-.07.046-.11.046M44.323 61.225c-.007 0-.013 0-.02-.002-.084-.01-.143-.088-.133-.172.12-.92.458-1.571 1.005-1.935.736-.49 1.57-.269 1.605-.26.081.023.13.108.107.19-.022.08-.107.13-.188.107-.008-.002-.74-.193-1.357.22-.468.313-.76.891-.867 1.718-.01.077-.076.134-.152.134" transform="translate(-1) translate(32)"/>
            <path fill="#000" d="M46.617 62.055c-.07 0-.132-.047-.149-.117-.368-1.496-1.714-2.095-1.728-2.1-.078-.034-.113-.125-.08-.202.034-.078.124-.114.202-.08.061.026 1.5.667 1.904 2.308.02.083-.03.166-.112.186-.013.003-.025.005-.037.005M34.07 252.818h17.64l3.124-94.432c.003-.083.07-.148.153-.149.083 0 .15.065.154.148l3.799 90.517h17.234L74.088 143.7H34.627l-.557 109.118z" transform="translate(-1) translate(32)"/>
            <path fill="#F5F5F5" d="M51.86 253.126H33.915c-.04 0-.08-.017-.109-.046-.029-.028-.044-.068-.044-.109l.557-109.425c0-.085.07-.153.154-.153h39.765c.083 0 .151.066.153.15l2.092 105.509c0 .04-.015.081-.044.11-.029.03-.068.047-.11.047H58.794c-.083 0-.15-.065-.154-.148l-3.633-86.576-2.993 90.492c-.003.083-.07.149-.154.149z" transform="translate(-1) translate(32)"/>
            <path fill="#333" d="M54.987 158.544c-.037 0-.075-.013-.104-.041-.062-.058-.066-.155-.008-.217l4.43-4.754c.059-.062.156-.065.218-.008.062.058.065.155.007.218l-4.43 4.753c-.03.033-.071.05-.113.05" transform="translate(-1) translate(32)"/>
            <path fill="#000" d="M57.714 68.408c-2.4 0-3.062-2.323-3.068-2.347-.023-.082.025-.166.107-.188.082-.022.166.026.189.107.025.093.653 2.262 2.99 2.114.089-.005.158.06.163.144.005.084-.06.157-.144.162-.08.005-.16.008-.237.008" transform="translate(-1) translate(32)"/>
            <path fill="#78B518" d="M123.576 80.923L118.246 80.923 118.246 65.554 113.429 65.554 113.429 61.195 128.38 61.195 128.38 65.554 123.576 65.554z" transform="translate(-1) translate(32)"/>
            <path fill="#000" d="M109.215 92.6c-.037 0-.075-.014-.104-.041-.063-.057-.067-.155-.01-.217l3.156-3.449V83.78c0-.593.327-1.131.853-1.406.53-.277 1.138-.24 1.627.1 1.915 1.33 1.975 3.97 1.965 4.54.46.221 2.356 1.278 2.425 3.643.003.085-.064.156-.149.159-.077 0-.155-.064-.158-.15-.073-2.48-2.309-3.404-2.332-3.413-.06-.024-.1-.085-.096-.15.002-.03.136-3.01-1.83-4.377-.394-.273-.883-.303-1.31-.08-.43.225-.688.649-.688 1.134v5.173c0 .038-.014.075-.04.103l-3.196 3.493c-.03.033-.072.05-.113.05M114.181 98.257c-.06 0-.118-.037-.142-.097-.032-.078.007-.168.086-.199.068-.027 6.825-2.8 7.575-10.528.008-.084.081-.146.167-.138.085.008.146.083.138.168-.768 7.918-7.697 10.756-7.767 10.783-.019.008-.038.011-.057.011" transform="translate(-1) translate(32)"/>
            <path fill="#FFF" d="M54.991 78.841L47.593 83.934 47.561 74.844z" transform="translate(-1) translate(32)"/>
            <path fill="#000" d="M47.715 75.101l.03 8.541 6.952-4.786-6.982-3.755zm-.122 8.986c-.024 0-.049-.006-.07-.017-.051-.027-.083-.079-.083-.136l-.033-9.09c0-.054.029-.104.075-.132.046-.027.104-.029.152-.003l7.43 3.996c.047.026.078.074.08.127.004.053-.021.105-.065.135L47.68 84.06c-.026.018-.056.027-.087.027z" transform="translate(-1) translate(32)"/>
            <path fill="#FFF" d="M58.734 74.844L59.62 83.627 54.991 78.841z" transform="translate(-1) translate(32)"/>
            <path fill="#000" d="M55.203 78.839l4.22 4.363-.808-8.007-3.412 3.644zm4.417 4.941c-.041 0-.081-.016-.11-.047l-4.629-4.786c-.057-.059-.058-.152-.002-.212l3.743-3.996c.04-.044.104-.06.16-.04.058.019.098.07.104.13l.887 8.782c.006.065-.03.127-.089.155-.02.01-.043.014-.064.014z" transform="translate(-1) translate(32)"/>
            <path fill="#333" d="M38.842 253.126c-.085 0-.153-.069-.153-.154V143.546c0-.085.068-.153.153-.153.085 0 .154.068.154.153v109.426c0 .085-.069.154-.154.154" transform="translate(-1) translate(32)"/>
            <path fill="#000" d="M15.017.307H15c-.618.01-1.213.534-1.382 1.22-.149.6-.012 1.3.385 1.975.158.268.34.512.543.736.375-.161.69-.35.957-.574.631-.526.98-1.28.912-1.967-.076-.758-.714-1.39-1.398-1.39m4.187 6.645c-.015 0-.03-.002-.045-.007-1.74-.533-3.505-1.156-4.688-2.345-.302.116-.637.217-1.011.305-1.418.334-2.731.357-3.902.068C8.195 4.638 7.02 3.846 6.332 2.8c-.046-.07-.026-.166.045-.212.07-.047.166-.027.212.044.645.981 1.754 1.726 3.043 2.043 1.123.277 2.387.254 3.758-.068.313-.074.596-.157.854-.25-.187-.215-.357-.447-.505-.7-.438-.743-.587-1.526-.42-2.205.203-.816.923-1.44 1.676-1.452.83-.018 1.633.75 1.725 1.667.08.786-.312 1.642-1.02 2.233-.265.221-.57.41-.926.573 1.117 1.076 2.753 1.651 4.475 2.178.081.025.127.111.102.192-.02.066-.081.109-.147.109M362.711 162.247c-.344.93-.6 1.892-.759 2.873-.267 1.652-.446 4.777 1.36 7.138 1.41 1.845 4.33 2.908 6.464 1.58.906-5.545-4.565-9.863-6.27-11.057-.27-.19-.534-.367-.795-.534m4.93 12.488c-1.757 0-3.546-.947-4.573-2.29-1.39-1.818-1.894-4.436-1.419-7.374.166-1.022.435-2.023.796-2.99-1.964-1.207-3.667-1.747-5.302-1.684-2.185.082-4.595 1.712-4.699 4.01-.003.085-.063.154-.16.147-.084-.004-.15-.076-.147-.16.111-2.467 2.672-4.217 4.995-4.304 2.05-.074 3.948.792 5.427 1.698 1.462-3.687 4.28-6.835 7.839-8.611.076-.039.168-.007.206.068.038.076.007.169-.069.206-3.509 1.751-6.283 4.862-7.712 8.502.308.196.596.391.86.576 1.749 1.226 7.377 5.672 6.385 11.428-.008.042-.032.08-.068.103-.726.469-1.54.675-2.359.675M84.747 21.295c-1.185 0-2.15.964-2.15 2.149s.965 2.15 2.15 2.15 2.15-.965 2.15-2.15-.965-2.15-2.15-2.15m0 4.607c-1.354 0-2.457-1.103-2.457-2.457 0-1.355 1.103-2.456 2.457-2.456 1.354 0 2.456 1.101 2.456 2.456 0 1.354-1.102 2.457-2.456 2.457M342.879 4.649c-1.185 0-2.15.964-2.15 2.15 0 1.184.965 2.149 2.15 2.149s2.15-.965 2.15-2.15-.965-2.149-2.15-2.149m0 4.606c-1.355 0-2.457-1.102-2.457-2.457 0-1.354 1.102-2.456 2.457-2.456 1.354 0 2.456 1.102 2.456 2.456 0 1.355-1.102 2.457-2.456 2.457M171.397 4.649c-1.185 0-2.15.964-2.15 2.15 0 1.184.965 2.149 2.15 2.149s2.15-.965 2.15-2.15-.965-2.149-2.15-2.149m0 4.606c-1.355 0-2.457-1.102-2.457-2.457 0-1.354 1.102-2.456 2.457-2.456 1.354 0 2.456 1.102 2.456 2.456 0 1.355-1.102 2.457-2.456 2.457" transform="translate(-1) translate(32)"/>
            <g transform="translate(-1) translate(32) translate(0 65.08)">
                <mask id="prefix__j" fill="#fff">
                    <use xlink:href="#prefix__i"/>
                </mask>
                <path fill="#C4C4C4" d="M4.606 2.446c0 1.272-1.031 2.303-2.303 2.303S0 3.718 0 2.446 1.031.143 2.303.143s2.303 1.031 2.303 2.303" mask="url(#prefix__j)"/>
            </g>
            <path fill="#C4C4C4" d="M372.77 59.1c0 1.272-1.032 2.303-2.304 2.303-1.271 0-2.303-1.031-2.303-2.303s1.032-2.303 2.303-2.303c1.272 0 2.303 1.031 2.303 2.303M286.912 11.404c0 1.272-1.031 2.303-2.303 2.303s-2.303-1.03-2.303-2.303c0-1.272 1.031-2.303 2.303-2.303s2.303 1.031 2.303 2.303" transform="translate(-1) translate(32)"/>
        </g>
        <path fill="#D8D8D8" d="M247 258.024c54.82.122 122.487.456 203 1H0c109.846-.788 192.18-1.121 247-1z" transform="translate(-1)"/>
    </g>
</svg>
