<svg xmlns="http://www.w3.org/2000/svg" width="448" height="251" viewBox="0 0 448 251">
    <g fill="none" fill-rule="evenodd">
        <path fill="#D8D8D8" d="M247 249.024c54.82.122 122.487.456 203 1H0c109.846-.788 192.18-1.121 247-1z" transform="translate(-1)"/>
        <g>
            <path fill="#515151" d="M89.351 161.857L110.484 158.065 118.153 167.757 130.135 198.104 124.873 241.636 111.527 241.636 114.427 201.41 104.284 182.977 86.73 241.636 74.963 241.636zM118.997 241.636L129.534 248.662 112.734 248.662 113.256 241.636zM83.868 241.636L94.405 248.662 77.605 248.662 78.127 241.636z" transform="translate(-1) translate(76 .346)"/>
            <path fill="#FFF" d="M104.283 183.179c-.033 0-.067-.009-.098-.026-.097-.054-.131-.176-.077-.274l5.891-10.54c.054-.097.177-.13.274-.077.097.054.131.177.077.274l-5.891 10.54c-.037.065-.105.103-.176.103" transform="translate(-1) translate(76 .346)"/>
            <path fill="#E51E74" d="M86.005 171.762c4.596-58.98 19.414-68.702 19.414-68.702l10.669 6.17 3.687 60.833-33.77 1.7z" transform="translate(-1) translate(76 .346)"/>
            <path fill="#515151" d="M105.431 103.299c-.613.469-4.016 3.351-7.843 12.148-7.009 16.106-10.048 39.352-11.365 56.103l33.34-1.677-3.669-60.523-10.463-6.051zm-19.426 68.664c-.054 0-.106-.022-.144-.06-.04-.042-.06-.1-.056-.156 1.311-16.832 4.362-40.304 11.446-56.534 4.254-9.746 7.904-12.221 8.058-12.321.063-.042.145-.045.21-.007l10.67 6.172c.058.033.096.094.1.161l3.687 60.833c.004.054-.014.106-.05.147-.036.04-.086.063-.14.066l-33.77 1.699h-.01z" transform="translate(-1) translate(76 .346)"/>
            <path fill="#FFF" d="M159.352 129.928l-41.981-22.137-4.62 9.768c7.921 4.428 36.163 16.308 43.723 17.421l2.878-5.052z" transform="translate(-1) translate(76 .346)"/>
            <path fill="#515151" d="M113.014 117.475c7.718 4.261 35.471 16.036 43.354 17.286l2.706-4.752-41.612-21.942-4.448 9.408zm43.46 17.707l-.03-.002c-7.782-1.147-36.25-13.23-43.79-17.445-.093-.052-.13-.166-.084-.262l4.619-9.768c.023-.05.065-.088.118-.105.052-.018.109-.012.157.013l41.982 22.137c.048.026.084.07.099.122.015.052.009.109-.018.156l-2.878 5.052c-.036.064-.104.102-.175.102z" transform="translate(-1) translate(76 .346)"/>
            <path fill="#F5F5F5" d="M186.72 103.306l-83.009 8.515c2.304 22.451 13.306 41.906 29.32 55.363l53.69-63.878z" transform="translate(-1) translate(76 .346)"/>
            <path fill="#515151" d="M103.932 112c2.256 21.483 12.574 40.967 29.074 54.9l53.242-63.344L103.932 112zm29.099 55.385c-.046 0-.092-.015-.13-.047-16.722-14.053-27.16-33.762-29.39-55.497-.01-.11.07-.209.18-.22l83.01-8.515c.082-.007.16.033.197.106.039.072.03.16-.024.223l-53.69 63.879c-.04.047-.096.071-.153.071z" transform="translate(-1) translate(76 .346)"/>
            <path fill="#515151" d="M181.958 109.174c-.023 0-.047-.005-.07-.013l-10.94-4.056c-.105-.038-.158-.154-.12-.258.039-.104.154-.157.259-.119l10.941 4.056c.104.039.157.154.119.259-.03.08-.107.13-.19.13M179.595 112.005c-.023 0-.047-.004-.07-.012l-16.411-6.084c-.104-.039-.157-.154-.119-.259.04-.104.155-.157.26-.118l16.41 6.083c.104.04.157.155.119.26-.03.08-.107.13-.189.13M176.984 114.862c-.023 0-.047-.004-.07-.013l-21.88-8.112c-.105-.038-.158-.154-.12-.258.039-.104.155-.157.259-.118l21.882 8.111c.104.039.157.155.118.259-.03.081-.107.13-.189.13M174.622 117.693c-.023 0-.047-.003-.07-.012l-27.28-10.113c-.105-.04-.158-.154-.12-.258.04-.105.155-.158.259-.119l27.28 10.113c.105.039.158.154.12.258-.03.082-.108.131-.19.131M172.067 120.545c-.023 0-.046-.005-.07-.013l-32.75-12.141c-.105-.038-.158-.154-.12-.258.04-.104.155-.158.259-.119l32.751 12.14c.105.04.158.155.119.26-.03.08-.107.13-.189.13M149.448 147.705c-.023 0-.047-.005-.07-.013l-40.991-15.196c-.105-.039-.158-.154-.119-.258.038-.105.154-.157.258-.119l40.992 15.196c.104.039.157.154.118.258-.03.082-.107.132-.188.132M147.044 150.707c-.023 0-.047-.004-.07-.013l-36.957-13.7c-.103-.039-.157-.155-.118-.258.039-.105.154-.158.258-.12l36.958 13.7c.103.04.157.155.118.26-.03.08-.107.13-.189.13M144.229 153.772c-.023 0-.047-.004-.07-.013l-31.525-11.686c-.104-.039-.157-.154-.118-.259.039-.104.154-.157.258-.118l31.525 11.686c.104.039.157.155.119.259-.03.08-.107.13-.19.13M142.05 156.583c-.024 0-.047-.004-.07-.012l-26.773-9.925c-.104-.04-.157-.154-.119-.259.039-.104.154-.157.259-.118l26.773 9.924c.104.04.157.155.118.259-.03.081-.106.131-.188.131M139.669 159.408c-.023 0-.047-.004-.07-.012l-21.012-7.79c-.105-.038-.158-.154-.119-.258.038-.104.154-.157.258-.119l21.013 7.79c.103.039.157.154.118.258-.03.081-.107.131-.188.131M137.27 162.19c-.022 0-.046-.003-.07-.012l-14.872-5.513c-.104-.039-.157-.154-.118-.258.038-.105.154-.158.258-.119l14.873 5.513c.104.039.157.154.118.259-.03.08-.107.13-.188.13M167.322 126.32c-.023 0-.047-.005-.07-.013l-43.924-16.283c-.104-.039-.156-.154-.118-.259.039-.104.154-.157.259-.118l43.923 16.282c.104.04.157.155.119.26-.03.08-.107.13-.189.13M154.711 141.515c-.023 0-.047-.004-.07-.012l-49.056-18.186c-.105-.038-.157-.154-.119-.258.038-.104.155-.158.258-.119l49.057 18.186c.104.038.157.154.119.258-.03.081-.107.131-.189.131M152.187 144.616c-.023 0-.047-.004-.07-.013l-45.307-16.796c-.103-.038-.157-.154-.118-.258.039-.104.154-.157.258-.119l45.307 16.796c.104.039.157.154.118.259-.03.08-.107.13-.188.13M165.063 129.131c-.023 0-.047-.004-.07-.012l-49.109-18.205c-.103-.039-.157-.154-.118-.259.039-.104.154-.156.258-.118l49.109 18.204c.104.04.157.155.118.26-.03.08-.107.13-.188.13M162.48 132.229c-.022 0-.046-.005-.07-.013l-55.36-20.523c-.104-.038-.156-.154-.118-.257.039-.105.154-.158.259-.12l55.36 20.523c.104.039.157.154.119.258-.03.082-.108.132-.19.132M159.922 135.342c-.024 0-.047-.004-.07-.013l-55.807-20.688c-.104-.039-.157-.154-.119-.258.039-.105.155-.158.259-.119l55.807 20.688c.104.039.157.155.118.259-.03.08-.106.13-.188.13M157.348 138.341c-.023 0-.047-.004-.07-.012l-52.66-19.522c-.103-.038-.157-.154-.118-.258.039-.104.154-.158.258-.119l52.66 19.522c.104.038.157.154.119.258-.03.081-.107.131-.189.131M169.705 123.376c-.023 0-.047-.004-.07-.012l-38.222-14.17c-.104-.038-.157-.154-.118-.258.038-.104.154-.157.258-.119l38.222 14.17c.104.038.157.154.118.258-.03.081-.107.131-.188.131" transform="translate(-1) translate(76 .346)"/>
            <path fill="#FFF" d="M114.836 107.865l1.009-5.902c-.001-.021.016-.04.037-.037 4.244.65 4.723-5.021 4.737-5.027l1.508-.309-1.132-2.664c-.014-.006-.021-.02-.02-.036l.571-4.718c.166-.588-.304-1.777-1.279-2.936-4.194-4.987-12.357-1.695-12.07 4.816l.188 4.283-.001.007c-.04.178-1.787 7.728-2.377 8.542 0 0 3.277 6.462 10.081 5.347.018-.004-1.252-1.348-1.252-1.366" transform="translate(-1) translate(76 .346)"/>
            <path fill="#515151" d="M106.238 103.889c.433.774 3.561 5.93 9.45 5.197l-.422-.456c-.628-.674-.628-.674-.631-.758-.001-.014 0-.027.003-.041l1.006-5.89c.005-.06.033-.116.079-.157.052-.047.12-.067.19-.057.968.149 1.809-.04 2.499-.56 1.5-1.13 1.911-3.536 2.001-4.246.009-.069.02-.162.128-.207.012-.005.025-.01.038-.012l1.267-.259-1.021-2.403c-.038-.048-.057-.11-.049-.174l.57-4.719.007-.03c.134-.476-.249-1.574-1.24-2.751-2.225-2.646-5.294-2.702-7.424-1.872-2.735 1.066-4.42 3.637-4.292 6.549l.188 4.283c.001.017 0 .042-.005.059-.177.769-1.695 7.293-2.342 8.504zm8.31 5.67c-5.718 0-8.592-5.339-8.716-5.576-.01-.016-.016-.033-.02-.051-.014-.057-.003-.118.032-.166.45-.618 1.723-5.78 2.338-8.445l-.186-4.26c-.136-3.087 1.648-5.812 4.546-6.941 2.885-1.124 5.903-.362 7.88 1.987.976 1.161 1.506 2.404 1.322 3.103l-.561 4.644 1.13 2.658c.023.056.02.118-.008.172-.027.054-.078.091-.137.104l-1.369.28c-.14 1.013-.615 3.266-2.145 4.42-.74.558-1.627.78-2.637.66l-.967 5.658c.101.111.324.35.51.55.76.818.76.818.719.94-.024.07-.085.121-.158.133-.547.09-1.071.13-1.573.13z" transform="translate(-1) translate(76 .346)"/>
            <path fill="#515151" d="M118.516 92.703c-.019.305.12.562.308.574.188.011.356-.227.375-.532.019-.306-.119-.563-.308-.574-.188-.012-.356.226-.375.532M119.674 91.591c-.055 0-.11-.022-.15-.067-.027-.03-.63-.676-1.533-.12-.095.059-.219.03-.277-.064-.058-.095-.029-.219.065-.277.958-.59 1.757-.132 2.045.194.074.083.066.21-.017.283-.038.034-.086.051-.133.051M119.131 99.375l-.022-.001c-.688-.075-1.485-.668-1.607-1.617-.014-.11.064-.21.174-.225.11-.015.21.064.225.173.102.792.793 1.22 1.252 1.27.11.011.19.11.178.22-.011.104-.099.18-.2.18" transform="translate(-1) translate(76 .346)"/>
            <path fill="#515151" d="M107.759 97.404l2.819-2.136s-1.392-1.371-.146-3.311c.315-.492.736-.704 1.161-.767.954-.14 1.844.525 2.06 1.465l.204.883 1.036.205.6-4.475s3.768 1.694 6.373.048c1.449-.915-3.28-8.226-10.321-4.996-5.418 2.487-3.404 8.437-3.553 9.943-.15 1.505-.233 3.141-.233 3.141" transform="translate(-1) translate(76 .346)"/>
            <path fill="#FFF" d="M151.568 145.936l-2.108-2.2 1.941.35c.492.088.975-.198 1.133-.672.186-.559-.145-1.156-.717-1.295l-4.337-1.116-22.817-23.64-7.588 8.143c5.885 6.908 20.777 16.382 26.025 19.72 0 0 2.525 2.964 4.13 4.845.943 1.104 2.592 1.313 3.747.433 1.097-.835 1.883-2.252.591-4.568" transform="translate(-1) translate(76 .346)"/>
            <path fill="#515151" d="M117.344 125.511c5.945 6.872 20.914 16.397 25.854 19.54.017.011.042.03.055.045l4.13 4.845c.884 1.035 2.41 1.213 3.472.403 1.365-1.04 1.55-2.482.55-4.288l-2.09-2.182c-.06-.063-.073-.157-.032-.234.041-.077.128-.117.213-.103l1.941.35c.39.07.78-.16.906-.536.072-.216.05-.445-.06-.644-.11-.2-.292-.339-.513-.393l-4.34-1.116c-.036-.01-.07-.028-.095-.055l-22.67-23.488-7.32 7.856zm32.003 25.742c-.84 0-1.68-.36-2.27-1.051-1.523-1.785-3.873-4.543-4.11-4.822-5.543-3.526-20.153-12.827-26.045-19.743-.066-.078-.064-.193.006-.268l7.587-8.143c.038-.04.09-.064.146-.064h.002c.054 0 .106.022.144.062l22.778 23.599 4.282 1.101c.325.079.606.293.768.588.163.295.196.647.09.965-.19.566-.772.912-1.36.806l-1.331-.24 1.68 1.753c.011.013.021.027.03.042 1.402 2.513.423 4.012-.645 4.826-.521.397-1.137.59-1.752.59z" transform="translate(-1) translate(76 .346)"/>
            <path fill="#E51E74" d="M125.228 116.757l-9.62 10.324s-18.471-17.237-10.19-24.022c6.904-5.655 19.81 13.698 19.81 13.698" transform="translate(-1) translate(76 .346)"/>
            <path fill="#E51E74" d="M108.321 102.226c-1.041 0-1.972.33-2.775.99-1.31 1.072-2.003 2.492-2.059 4.219-.235 7.276 10.712 18.018 12.112 19.36l9.372-10.058c-.958-1.401-9.391-13.485-15.86-14.45-.27-.04-.534-.06-.79-.06m7.286 25.055c-.05 0-.1-.02-.137-.054-.031-.03-3.19-2.99-6.277-6.88-4.16-5.245-6.215-9.594-6.108-12.926.06-1.848.802-3.368 2.206-4.518 1.092-.895 2.397-1.237 3.879-1.015 2.951.44 6.582 3.062 10.79 7.791 3.12 3.507 5.412 6.931 5.435 6.965.051.078.043.18-.02.249l-9.62 10.324c-.037.04-.087.062-.14.064h-.008" transform="translate(-1) translate(76 .346)"/>
            <path fill="#515151" d="M110.662 94.036c-.107 0-.195-.084-.2-.192-.034-.765.137-1.357.508-1.762.433-.472.981-.5 1.004-.5.112-.008.205.081.21.192.004.11-.082.204-.192.21-.051.002-1.206.086-1.129 1.842.005.111-.08.205-.191.21h-.01" transform="translate(-1) translate(76 .346)"/>
            <path fill="#515151" d="M112.54 94.036c-.071 0-.14-.038-.177-.105-.348-.643-1.402-1.203-1.413-1.209-.098-.052-.136-.173-.084-.27.052-.1.173-.137.271-.086.048.026 1.174.624 1.58 1.373.052.098.016.22-.081.273-.03.016-.064.024-.096.024M115.882 102.127c-.021 0-.043-.003-.065-.01l-3.13-1.057c-.105-.035-.161-.15-.126-.255.035-.105.15-.162.255-.126l3.13 1.056c.106.036.162.15.126.255-.028.084-.106.137-.19.137M151.843 149.412c-.071 0-.14-.038-.177-.105l-1.007-1.84-1.257-.972c-.088-.068-.104-.194-.036-.282.067-.087.194-.104.282-.036l1.29.997c.022.018.041.039.054.063l1.027 1.877c.053.097.017.22-.08.273-.031.017-.064.025-.096.025M150.684 150.91c-.071 0-.14-.038-.177-.105l-1.138-2.106-1.227-.932c-.088-.068-.105-.194-.038-.282.067-.089.193-.106.281-.038l1.262.958c.022.017.041.04.055.065l1.159 2.144c.053.097.016.219-.082.272-.03.016-.063.024-.095.024" transform="translate(-1) translate(76 .346)"/>
            <path fill="#F5F5F5" d="M150.75 29.062l121.016 114.705c15.651-15.167 25.38-36.412 25.38-59.928 0-46.086-37.36-83.445-83.446-83.445-25.123 0-47.652 11.102-62.95 28.668" transform="translate(-1) translate(76 .346)"/>
            <path fill="#515151" d="M151.028 29.05l120.737 114.438c7.858-7.65 14.04-16.61 18.375-26.634 4.515-10.439 6.804-21.546 6.804-33.015 0-11.238-2.2-22.14-6.542-32.402-4.192-9.913-10.195-18.816-17.84-26.46-7.644-7.645-16.547-13.648-26.46-17.84C235.84 2.797 224.938.595 213.7.595c-24.016 0-46.848 10.37-62.672 28.454m120.738 114.919c-.05 0-.1-.018-.138-.055L150.61 29.208c-.078-.074-.084-.197-.013-.278C166.503 10.667 189.503.193 213.7.193c11.292 0 22.247 2.211 32.559 6.574 9.96 4.212 18.906 10.243 26.588 17.925 7.682 7.682 13.713 16.628 17.926 26.588 4.361 10.313 6.573 21.267 6.573 32.559 0 11.524-2.3 22.686-6.837 33.175-4.381 10.132-10.64 19.181-18.603 26.897-.039.038-.089.057-.14.057" transform="translate(-1) translate(76 .346)"/>
            <path fill="#026BB0" d="M199.792 83.226l-83.35-3.99c1.002-20.938 9.64-39.704 23.09-53.734l60.26 57.724z" transform="translate(-1) translate(76 .346)"/>
            <path fill="#FFF" d="M209.458 240.275l2.94-.749c.072-.018.128-.074.146-.145l14.403-57.1 12.02-2.547-2.117 16.406-21.306 45.442-4.633 1.79-1.453-3.097z" transform="translate(-1) translate(76 .346)"/>
            <path fill="#515151" d="M239.202 179.478l-12.42 2.632-14.433 57.221-3.177.81 1.636 3.486 4.884-1.887 21.353-45.543 2.157-16.719zm-.472.51l-2.076 16.095-21.257 45.34-4.384 1.694-1.27-2.707 2.705-.689c.143-.036.255-.148.29-.291l14.373-56.979 11.62-2.462z" transform="translate(-1) translate(76 .346)"/>
            <path fill="#FFF" d="M253.07 245.869l2.066-1.703c.067-.055.09-.147.06-.227l-18.23-47.847.728-14.937 13.886.286-2.17 13.585c-.003.023-.003.048.002.07l9.628 48.838-4.548 3.939-1.422-2.004z" transform="translate(-1) translate(76 .346)"/>
            <path fill="#515151" d="M237.503 180.95l-.74 15.175 18.245 47.886-2.21 1.822 1.658 2.336 4.803-4.159-9.65-48.952 2.206-13.813-14.312-.295zm.382.41l13.46.278-2.133 13.357c-.008.046-.007.094.002.14l9.605 48.724-4.292 3.717-1.185-1.67 1.922-1.585c.133-.11.181-.292.12-.453l-18.216-47.808.717-14.7z" transform="translate(-1) translate(76 .346)"/>
            <path fill="#515151" d="M252.798 245.833c2.51 1.362 6.46-1.823 6.46-1.823l1.42 4.496-12.443.238 4.563-2.911zM209.172 240.14c1.513 2.424 6.52 1.6 6.52 1.6l-.982 4.61-10.943-5.927 5.405-.283zM225.137 185.872l26.289 2.494c7.006-23.971-3.3-38.01-3.3-38.01l-13.337-.148-9.652 35.664z" transform="translate(-1) translate(76 .346)"/>
            <path fill="#EBEBEB" d="M235.984 112.089c2.005-1.12 6.157-1.057 6.157-1.057 12.596 2.595 6.08 39.323 6.08 39.323l-13.336-.147-2.423-16.95s-3.01-.086-3.964-3.04l7.486-18.13z" transform="translate(-1) translate(76 .346)"/>
            <path fill="#515151" d="M235.06 150.009l12.992.143c.453-2.696 5.875-36.452-5.933-38.919-.298-.004-4.087-.012-5.976.998l-7.431 17.994c.92 2.712 3.64 2.828 3.756 2.831.097.003.18.076.193.173l2.398 16.78zm13.161.547h-.002l-13.337-.148c-.099 0-.182-.074-.196-.172l-2.4-16.792c-.671-.074-3.128-.524-3.98-3.165-.014-.045-.012-.094.006-.138l7.487-18.129c.017-.042.048-.077.088-.099 2.029-1.133 6.086-1.084 6.257-1.082.013 0 .025.002.038.005 5.33 1.098 7.997 8.106 7.923 20.832-.054 9.414-1.67 18.63-1.686 18.722-.017.096-.1.166-.198.166z" transform="translate(-1) translate(76 .346)"/>
            <path fill="#78B518" d="M268.15 155.028c-31.6 33.546-84.41 35.124-117.956 3.525l57.216-60.74 60.74 57.215z" transform="translate(-1) translate(76 .346)"/>
            <path fill="#515151" d="M150.479 158.544c8.146 7.638 17.54 13.464 27.924 17.318 10.09 3.745 20.687 5.48 31.494 5.157 10.806-.323 21.28-2.687 31.128-7.028 10.136-4.467 19.165-10.844 26.841-18.954l-60.447-56.94-56.94 60.447zm56.875 22.915c-9.974 0-19.747-1.752-29.09-5.22-10.498-3.896-19.988-9.797-28.208-17.54-.039-.036-.061-.087-.063-.14-.001-.054.018-.105.055-.144l57.216-60.74c.036-.04.087-.062.14-.064.05-.003.105.018.144.055l60.74 57.216c.081.076.085.203.009.284-7.743 8.22-16.864 14.677-27.11 19.193-9.896 4.362-20.42 6.737-31.278 7.062-.853.025-1.705.038-2.555.038z" transform="translate(-1) translate(76 .346)"/>
            <path fill="#FFF" d="M244.178 98.839c-.065-1.094 1.406-7.912-5.418-7.736-6.823.175-5.285 8.484-5.285 8.484l.111 1.894-.262.106c-.682.274-.76 1.207-.135 1.592l.448.276.019.719c.046 1.803 1.15 3.332 2.702 4.006l.138-.018.177 4.066-.201 1.665c-.265 2.19 2.63 3.213 3.799 1.34l2.443-3.914s1.496-11.946 1.464-12.48" transform="translate(-1) translate(76 .346)"/>
            <path fill="#515151" d="M236.495 107.961c.047 0 .093.017.13.047.043.037.069.09.071.145l.178 4.067c0 .01 0 .021-.002.032l-.201 1.666c-.132 1.093.58 1.75 1.23 1.98.65.229 1.615.164 2.2-.77l2.42-3.877c.6-4.793 1.479-12.019 1.457-12.4l.2-.012-.2.012c-.01-.152.007-.378.029-.691.09-1.284.28-3.957-1.233-5.541-.879-.92-2.229-1.365-4.009-1.316-1.704.044-3.016.618-3.897 1.705-1.937 2.39-1.203 6.501-1.195 6.543.002.008.002.016.003.025l.11 1.893c.006.087-.044.166-.125.198l-.262.107c-.248.1-.41.318-.433.585-.022.266.1.509.328.649l.449.276c.058.036.093.098.095.166l.018.719c.043 1.643 1.034 3.13 2.531 3.805l.082-.01c.009-.002.017-.003.026-.003m2.049 8.448c-.272 0-.537-.048-.777-.133-.853-.3-1.646-1.161-1.495-2.406l.199-1.649-.168-3.847c-.008-.003-.017-.005-.025-.01-1.669-.724-2.777-2.367-2.823-4.185l-.016-.61-.356-.219c-.354-.218-.552-.61-.517-1.025.035-.415.296-.77.683-.924l.128-.052-.102-1.738c-.055-.306-.736-4.367 1.28-6.856.96-1.183 2.372-1.806 4.2-1.853 1.9-.05 3.35.435 4.31 1.44 1.636 1.712 1.438 4.504 1.343 5.846-.02.287-.037.514-.03.639.033.537-1.311 11.293-1.464 12.517-.004.03-.014.057-.029.082l-2.444 3.914c-.477.763-1.207 1.069-1.897 1.069" transform="translate(-1) translate(76 .346)"/>
            <path fill="#515151" d="M236.055 99.47c.008.275-.124.502-.294.506-.17.005-.314-.215-.321-.49-.007-.276.125-.502.295-.507.17-.004.314.215.32.49M236.506 98.876c-.059 0-.117-.026-.157-.075-.595-.737-1.282-.368-1.31-.352-.098.054-.22.018-.274-.079-.054-.096-.02-.219.078-.273.347-.192 1.174-.347 1.82.452.069.086.056.213-.03.282-.038.03-.083.045-.127.045M235.289 105.514c-.088 0-.17-.058-.194-.147-.03-.107.033-.217.14-.247.535-.15 1.034-.428 1.442-.806.082-.076.209-.07.284.01.075.082.07.21-.011.285-.455.42-1.01.731-1.607.898-.018.005-.036.007-.054.007M236.495 108.363c-.109 0-.198-.087-.2-.196-.003-.111.084-.203.196-.206.016 0 1.636-.046 2.322-.744.078-.079.205-.08.285-.003.079.078.08.205.002.284-.801.816-2.527.864-2.6.865h-.005zM242.982 101.253c-.093 0-.176-.065-.197-.159-.095-.44-.274-.736-.532-.878-.33-.18-.698-.054-.701-.053-.104.039-.22-.014-.259-.119-.038-.104.015-.22.12-.258.022-.008.54-.193 1.033.078.365.2.611.585.732 1.145.024.108-.045.215-.154.24-.014.002-.028.004-.042.004" transform="translate(-1) translate(76 .346)"/>
            <path fill="#515151" d="M241.695 101.846c-.01 0-.02 0-.032-.003-.109-.017-.184-.12-.167-.23.162-1.023 1.01-1.491 1.046-1.51.098-.053.22-.016.273.081.052.098.015.22-.082.273-.009.004-.71.398-.84 1.219-.015.1-.1.17-.198.17M241.905 102.969c-.102 0-.189-.076-.2-.18-.012-.11.068-.21.18-.22 1.068-.115 1.537-.664 1.542-.67.07-.085.197-.097.282-.027.086.07.098.196.029.282-.023.027-.567.681-1.812.814l-.021.001" transform="translate(-1) translate(76 .346)"/>
            <path fill="#515151" d="M239.588 90.332c7.013-.18 6.554 6.786 6.56 7.913l.612-.044c1.614-.115 2.95 1.239 2.809 2.85-.233 2.675-.366 6.673.373 10.27 1.251 6.094 2.079 11.845 0 17.758 0 0 0-15.627-7.106-17.585 0 0-2.095-4.301 3.073-11.338 0 0-.865 1.769-2.531 2.06.204-.397.444-1.233.33-1.936-.338-2.075-2.83-1.186-2.83-1.186l.014 1.262c-2.428-1.493-6.328-2.931-6.682-6.394 0 0 .962-3.517 5.378-3.63" transform="translate(-1) translate(76 .346)"/>
            <path fill="#FFF" d="M242.857 123.883s-12.687 11.625-29.689 12.544c-1.445.04-2.353.016-2.353.016l-2.238 1.25c-.307.171-.695.061-.866-.245-.172-.307-.062-.695.245-.866l2.238-1.25.009-.002-3.144.366c-.43.05-.821-.259-.871-.69-.05-.43.259-.821.69-.871l3.183-.397-3.323-.411c-.431-.052-.74-.443-.688-.874.052-.43.442-.739.873-.687l3.014.375-1.364-1.267c-.304-.282-.314-.76-.02-1.054.279-.28.733-.289 1.021-.016l2.102 1.981.66-.044s13.354-5.178 19.557-11.726c3.262-3.442 6.124-5.727 8.106-7.12 1.83-1.286 4.36-.872 5.688.928 1.792 2.428 2.83 6.191-2.83 10.06" transform="translate(-1) translate(76 .346)"/>
            <path fill="#515151" d="M210.27 135.52l-2.216 1.237c-.101.057-.174.15-.206.262-.032.111-.018.229.038.33.057.102.15.175.262.207.112.032.23.018.331-.038l2.237-1.25c.032-.018.068-.026.104-.026.009 0 .921.023 2.342-.015 16.727-.905 29.433-12.377 29.56-12.492.007-.007.014-.013.022-.018 2.407-1.645 3.785-3.409 4.095-5.242.252-1.485-.19-3.01-1.314-4.532-1.255-1.702-3.682-2.098-5.41-.883-1.85 1.3-4.753 3.586-8.076 7.093-3.224 3.403-8.391 6.425-12.159 8.36-4.076 2.093-7.438 3.403-7.471 3.416-.019.007-.039.012-.06.013l-.66.044c-.056.002-.11-.017-.15-.054l-2.103-1.982c-.211-.2-.536-.194-.741.012-.103.103-.158.24-.155.386.002.145.063.28.17.38l1.364 1.265c.064.06.082.154.046.233-.037.079-.121.126-.208.114l-3.013-.374c-.154-.018-.307.024-.43.12-.123.098-.2.236-.219.391-.038.32.191.612.511.65l3.325.412c.1.012.176.098.176.2 0 .1-.076.186-.176.199l-3.184.396c-.156.019-.295.096-.392.219-.097.122-.14.275-.122.43.018.155.095.295.218.391.122.097.275.14.43.122l3.144-.366c.107-.011.205.062.221.169.016.097-.041.189-.131.22m-2.002 2.456c-.294 0-.579-.155-.733-.429-.109-.196-.135-.422-.074-.637.06-.215.202-.394.397-.503l1.359-.759-2.134.249c-.262.03-.52-.043-.727-.207-.206-.163-.337-.397-.368-.66-.03-.261.043-.519.207-.726.163-.207.398-.337.66-.368l1.575-.196-1.717-.212c-.54-.065-.927-.557-.862-1.097.064-.54.556-.929 1.096-.864l2.397.298-.908-.842c-.187-.174-.293-.411-.298-.666-.005-.256.091-.497.271-.677.36-.362.932-.37 1.303-.021l2.038 1.92.542-.035c.334-.131 3.549-1.407 7.408-3.39 3.739-1.92 8.863-4.915 12.048-8.276 3.345-3.532 6.27-5.836 8.135-7.146 1.906-1.34 4.583-.903 5.966.973 1.19 1.613 1.657 3.241 1.387 4.838-.33 1.942-1.76 3.792-4.254 5.499-.442.399-13.14 11.686-29.803 12.587-1.24.034-2.094.021-2.314.018l-2.19 1.223c-.13.071-.269.106-.407.106" transform="translate(-1) translate(76 .346)"/>
            <path fill="#78B518" d="M17.008 194.065c-1.277-4.063-1.815-8.356-1.579-12.608.136-2.45.763-5.24 2.932-6.39 1.709-.904 3.894-.428 5.456.712 1.56 1.14 2.614 2.835 3.542 4.532 5.819 10.64 8.135 22.79 10.277 34.726.453 2.526.254 7.225-3.119 4.596-2.572-2.004-4.822-5.23-6.92-7.724-4.471-5.313-8.49-11.162-10.59-17.844" transform="translate(-1) translate(76 .346)"/>
            <path fill="#515151" d="M17.2 194.005c1.791 5.702 5.144 11.35 10.55 17.774.528.627 1.054 1.286 1.611 1.985 1.658 2.076 3.37 4.223 5.28 5.71.888.692 1.583.896 2.066.604 1.014-.612 1.038-3.296.731-5.005-1.894-10.552-4.25-23.684-10.256-34.666-.908-1.66-1.958-3.351-3.484-4.465-1.903-1.39-4.005-1.352-5.242-.697-1.697.898-2.647 2.992-2.827 6.223-.235 4.254.293 8.472 1.57 12.537m19.03 26.604c-.522 0-1.136-.273-1.835-.817-1.947-1.517-3.675-3.683-5.347-5.777-.555-.696-1.08-1.354-1.604-1.976-5.442-6.466-8.818-12.159-10.627-17.914-1.292-4.11-1.826-8.376-1.587-12.68.187-3.38 1.21-5.586 3.038-6.555 1.646-.871 3.87-.586 5.668.727 1.59 1.16 2.67 2.895 3.6 4.597 6.036 11.04 8.4 24.207 10.299 34.788.317 1.764.333 4.664-.919 5.42-.207.125-.436.187-.685.187" transform="translate(-1) translate(76 .346)"/>
            <path fill="#78B518" d="M26.982 206.46c-2.156-3.673-4.978-6.954-8.288-9.632-1.908-1.544-4.398-2.952-6.705-2.114-1.817.66-2.931 2.599-3.133 4.521-.203 1.924.347 3.842.982 5.668 3.984 11.454 11.436 21.325 18.849 30.924 1.568 2.03 5.185 5.036 5.5.772.24-3.252-.642-7.086-1.083-10.314-.938-6.88-2.578-13.785-6.122-19.826" transform="translate(-1) translate(76 .346)"/>
            <path fill="#515151" d="M13.434 194.665c-.48 0-.94.08-1.377.238-1.316.478-2.755 2.01-3.002 4.353-.197 1.88.35 3.792.973 5.58 4.111 11.822 12.266 22.383 18.818 30.868 1.061 1.375 3.065 3.157 4.2 2.817.541-.162.857-.814.94-1.937.179-2.414-.264-5.124-.69-7.747-.145-.881-.28-1.714-.39-2.525-1.135-8.32-3.072-14.596-6.098-19.751-2.156-3.675-4.929-6.897-8.24-9.577-1.907-1.543-3.627-2.319-5.134-2.319m19.316 44.299c-1.38 0-3.23-1.729-4.223-3.014-6.57-8.509-14.746-19.098-18.879-30.982-.637-1.832-1.198-3.797-.993-5.753.234-2.214 1.515-4.055 3.265-4.69 1.945-.707 4.268.016 6.9 2.147 3.35 2.71 6.154 5.969 8.335 9.686 3.053 5.202 5.007 11.525 6.149 19.9.11.805.245 1.636.388 2.515.431 2.644.877 5.38.695 7.84-.096 1.306-.509 2.078-1.225 2.293-.131.04-.269.058-.412.058" transform="translate(-1) translate(76 .346)"/>
            <path fill="#78B518" d="M42.805 198.779c1.584-3.952 3.888-7.616 6.762-10.758 1.657-1.81 3.91-3.572 6.316-3.088 1.895.382 3.285 2.134 3.771 4.005.486 1.871.228 3.85-.128 5.75-2.235 11.92-8.135 22.79-14.036 33.385-1.248 2.242-4.378 5.753-5.324 1.582-.721-3.18-.42-7.102-.465-10.36-.096-6.943.498-14.015 3.104-20.516" transform="translate(-1) translate(76 .346)"/>
            <path fill="#515151" d="M42.805 198.779l.187.074c-2.225 5.55-3.206 12.044-3.09 20.44.011.817.001 1.661-.01 2.554-.032 2.657-.065 5.403.47 7.763.25 1.099.659 1.696 1.218 1.776 1.172.167 2.89-1.893 3.734-3.411 5.217-9.365 11.708-21.021 14.015-33.324.348-1.86.606-3.834.13-5.663-.592-2.281-2.243-3.581-3.616-3.858-1.88-.379-3.943.64-6.128 3.027-2.876 3.144-5.138 6.742-6.723 10.696l-.187-.074zm-1.092 33.019c-.064 0-.128-.005-.19-.014-.74-.106-1.263-.808-1.553-2.085-.546-2.406-.513-5.177-.48-7.857.011-.89.021-1.731.01-2.544-.117-8.45.874-14.994 3.118-20.594 1.603-4 3.892-7.64 6.8-10.818 2.287-2.499 4.476-3.559 6.504-3.15 1.825.368 3.367 1.997 3.926 4.152.496 1.904.233 3.93-.124 5.837-2.319 12.367-8.828 24.055-14.058 33.446-.835 1.498-2.54 3.627-3.953 3.627z" transform="translate(-1) translate(76 .346)"/>
            <path fill="#515151" d="M40.026 248.224h-.008c-.11-.003-.197-.097-.194-.207.81-23.127 13.194-56.577 13.319-56.912.039-.104.155-.156.259-.118.103.039.157.154.118.258-.125.335-12.487 33.725-13.294 56.785-.003.109-.092.194-.2.194" transform="translate(-1) translate(76 .346)"/>
            <path fill="#515151" d="M40.067 248.946c-.108 0-.197-.085-.2-.193-.01-.226-1-22.69-5.878-36.371-4.886-13.704-13.592-32.966-13.68-33.16-.045-.1 0-.22.1-.266.102-.045.22 0 .267.1.087.194 8.8 19.471 13.691 33.19 4.9 13.74 5.89 36.264 5.9 36.49.005.111-.08.205-.192.21h-.008M37.346 248.863c-.086 0-.165-.055-.192-.142-3.493-11.368-10.302-24.062-15.399-32.71-5.524-9.374-10.28-16.141-10.328-16.209-.064-.09-.042-.216.049-.28.09-.064.216-.042.28.049.047.067 4.813 6.848 10.346 16.235 5.107 8.667 11.931 21.392 15.436 32.797.033.106-.027.219-.133.251-.019.006-.04.01-.059.01M26.574 90.857c-.133 0-.267-.046-.376-.14-.24-.208-.265-.57-.058-.81l49.24-56.795c.207-.24.57-.265.81-.057.24.208.265.57.057.81L27.01 90.659c-.114.131-.274.198-.435.198" transform="translate(-1) translate(76 .346)"/>
            <path fill="#515151" d="M74.836 43.033c-.313-.046-.53-.34-.483-.653l1.289-8.693-8.423 2.508c-.304.09-.625-.082-.715-.386-.09-.303.086-.624.387-.716l9.287-2.764c.187-.056.392-.012.54.116.149.128.22.325.192.518l-1.42 9.585c-.018.113-.065.213-.135.292-.124.143-.317.222-.519.193M.829 148.975c-.137 0-.274-.049-.383-.147-.237-.212-.257-.575-.045-.811l.921-1.026c.212-.236.575-.256.811-.044.236.212.256.575.044.811l-.92 1.026c-.114.127-.27.191-.428.191M93.193 46.057c-.137 0-.274-.049-.383-.147-.237-.212-.256-.575-.045-.811l1.867-2.08c.212-.235.575-.256.81-.043.237.211.257.575.045.81l-1.866 2.08c-.114.126-.27.19-.428.19m-3.732 4.16c-.137 0-.274-.049-.384-.147-.236-.212-.255-.575-.044-.812l1.867-2.079c.211-.236.574-.255.81-.044.237.212.256.575.044.812l-1.866 2.079c-.113.126-.27.19-.427.19m-3.733 4.16c-.136 0-.274-.049-.383-.148-.236-.211-.256-.574-.044-.81l1.866-2.08c.212-.236.575-.256.811-.044.236.212.256.575.044.811l-1.866 2.08c-.114.126-.27.19-.428.19m-3.732 4.16c-.137 0-.274-.05-.383-.148-.237-.211-.256-.575-.045-.81l1.867-2.08c.212-.236.575-.256.81-.044.237.212.257.575.045.811l-1.867 2.08c-.113.126-.27.19-.427.19m-3.732 4.16c-.137 0-.274-.05-.384-.147-.236-.212-.256-.576-.044-.812l1.866-2.08c.212-.236.575-.255.811-.043.237.212.256.575.044.811l-1.866 2.08c-.113.126-.27.19-.427.19m-3.733 4.16c-.137 0-.274-.05-.383-.148-.237-.212-.256-.575-.045-.81l1.867-2.08c.212-.236.575-.256.811-.044.236.212.256.575.044.81l-1.866 2.08c-.114.127-.27.191-.428.191M70.8 71.01c-.137 0-.274-.048-.384-.147-.236-.212-.255-.575-.044-.811l1.867-2.08c.211-.236.575-.255.81-.043.237.212.256.575.045.81l-1.867 2.08c-.113.127-.27.191-.427.191m-3.733 4.159c-.136 0-.273-.049-.383-.147-.236-.212-.256-.575-.044-.811l1.866-2.08c.212-.235.575-.255.811-.043.237.211.256.575.044.81l-1.866 2.08c-.113.126-.27.19-.428.19m-3.732 4.16c-.137 0-.274-.049-.384-.147-.236-.212-.255-.575-.044-.812l1.867-2.079c.212-.236.575-.256.81-.044.237.212.257.575.045.812l-1.866 2.079c-.114.126-.27.19-.428.19m-3.732 4.16c-.137 0-.274-.049-.384-.147-.236-.212-.256-.575-.044-.811l1.867-2.08c.211-.236.574-.256.81-.043.237.21.256.574.044.81l-1.866 2.08c-.113.126-.27.19-.427.19m-3.733 4.16c-.137 0-.274-.05-.383-.148-.236-.211-.256-.575-.044-.81l1.866-2.08c.212-.236.575-.256.811-.044.236.212.256.575.044.811l-1.866 2.08c-.114.126-.27.19-.428.19m-3.732 4.16c-.137 0-.274-.049-.384-.148-.235-.211-.255-.575-.043-.81l1.866-2.08c.211-.236.575-.256.811-.044.236.212.256.575.044.811l-1.867 2.08c-.113.126-.27.19-.427.19m-3.733 4.16c-.136 0-.273-.05-.383-.148-.236-.211-.256-.575-.044-.81l1.866-2.08c.212-.236.575-.256.811-.044.237.212.256.575.044.81l-1.866 2.08c-.113.126-.27.191-.428.191m-3.732 4.159c-.137 0-.274-.048-.383-.147-.236-.212-.256-.575-.044-.811l1.866-2.08c.212-.235.575-.255.811-.043.236.212.255.575.044.811l-1.867 2.08c-.113.126-.27.19-.427.19m-3.732 4.159c-.137 0-.274-.049-.384-.147-.236-.212-.256-.575-.043-.811l1.865-2.08c.212-.236.575-.256.812-.043.236.212.255.575.043.81l-1.866 2.08c-.113.126-.27.19-.427.19m-3.733 4.16c-.137 0-.274-.049-.383-.147-.236-.212-.256-.575-.044-.811l1.866-2.08c.212-.236.575-.256.811-.044.236.212.256.575.044.812l-1.867 2.079c-.113.126-.27.19-.427.19m-3.732 4.16c-.137 0-.274-.049-.384-.147-.236-.212-.256-.576-.043-.811l1.865-2.08c.213-.235.576-.256.812-.044.236.212.255.576.044.811l-1.867 2.08c-.113.126-.27.19-.427.19m-3.732 4.16c-.137 0-.274-.05-.384-.148-.236-.212-.256-.575-.044-.81l1.866-2.08c.212-.236.575-.256.812-.044.236.212.255.575.043.811l-1.866 2.08c-.113.126-.27.19-.427.19m-3.733 4.16c-.136 0-.274-.05-.383-.148-.236-.211-.256-.574-.044-.81l1.866-2.08c.212-.236.575-.256.811-.044.236.212.255.575.044.811l-1.866 2.08c-.114.126-.27.19-.428.19m-3.732 4.16c-.137 0-.274-.05-.384-.148-.236-.212-.256-.575-.044-.81l1.866-2.08c.213-.236.575-.256.812-.044.236.211.255.575.044.81l-1.867 2.08c-.113.127-.27.191-.427.191m-3.733 4.159c-.136 0-.273-.048-.383-.147-.236-.212-.256-.575-.044-.811l1.866-2.08c.212-.235.575-.255.811-.043.236.212.256.575.044.811l-1.866 2.08c-.114.126-.27.19-.428.19m-3.732 4.159c-.137 0-.274-.048-.384-.147-.236-.212-.255-.575-.043-.811l1.866-2.08c.212-.235.574-.255.811-.043.236.212.255.575.044.81l-1.866 2.08c-.114.126-.27.19-.428.19m-3.733 4.16c-.136 0-.273-.049-.383-.147-.236-.212-.255-.575-.044-.811l1.866-2.08c.213-.236.575-.256.812-.044.236.212.255.575.043.812l-1.866 2.079c-.113.126-.27.19-.428.19m-3.732 4.16c-.136 0-.274-.049-.384-.147-.235-.212-.255-.576-.043-.811l1.866-2.08c.212-.236.575-.256.811-.043.236.211.256.575.044.81l-1.866 2.08c-.114.126-.27.19-.428.19m-3.733 4.16c-.136 0-.273-.05-.383-.148-.236-.211-.255-.575-.044-.81l1.866-2.08c.213-.236.576-.256.812-.044.236.212.256.575.044.811l-1.867 2.08c-.113.126-.27.19-.428.19M96.925 41.898c-.137 0-.273-.049-.383-.147-.236-.212-.256-.575-.044-.811l.92-1.026c.212-.236.576-.256.812-.044.236.212.255.575.044.811l-.92 1.026c-.114.127-.271.191-.429.191" transform="translate(-1) translate(76 .346)"/>
            <path fill="#515151" d="M96.706 49.824c-.313-.052-.525-.349-.472-.662l1.437-8.669-8.464 2.363c-.306.086-.623-.092-.708-.398-.085-.305.096-.623.399-.709l9.333-2.605c.188-.052.392-.005.538.126.146.13.215.328.183.521l-1.585 9.56c-.02.112-.069.21-.14.289-.126.141-.32.216-.521.184" transform="translate(-1) translate(76 .346)"/>
        </g>
    </g>
</svg>
