<svg xmlns="http://www.w3.org/2000/svg" width="448" height="268" viewBox="0 0 448 268">
    <g fill="none" fill-rule="evenodd">
        <g>
            <path fill="#F5F5F5" d="M175.334 214.939v-.91c0-11.325-2.213-22.412-6.578-32.952-4.327-10.449-10.571-19.892-18.559-28.066-16.29-16.673-25.334-38.689-25.468-61.994-.28-49.169 39.48-89.535 88.63-89.983.28-.004.556-.004.835-.004 23.897 0 46.363 9.307 63.262 26.205 16.897 16.898 26.204 39.364 26.204 63.26 0 23.749-9.208 46.115-25.927 62.98-7.897 7.967-14.06 17.326-18.316 27.82-4.222 10.41-6.362 21.422-6.362 32.734v.91h-77.72z" transform="translate(-1 -1) translate(0 .372)"/>
            <path fill="#515151" d="M214.194.628c-.28 0-.557 0-.838.004-49.365.45-89.31 41.02-89.03 90.387.14 24.231 9.868 46.189 25.584 62.273 15.902 16.275 25.022 37.982 25.022 60.736v1.312h78.525v-1.312c0-22.527 8.702-44.271 24.562-60.27 16.099-16.238 26.043-38.588 26.043-63.262 0-49.632-40.237-89.868-89.868-89.868m0 .805c12.024 0 23.687 2.354 34.667 6.999 10.605 4.486 20.13 10.907 28.31 19.088 8.18 8.18 14.601 17.704 19.087 28.31 4.645 10.979 7 22.642 7 34.666 0 11.955-2.33 23.556-6.922 34.482-4.436 10.554-10.791 20.046-18.888 28.214-7.936 8.005-14.128 17.409-18.403 27.95-4.242 10.46-6.393 21.524-6.393 32.886v.508h-76.916v-.508c0-11.377-2.223-22.516-6.608-33.106-4.347-10.496-10.62-19.982-18.642-28.193-16.217-16.597-25.22-38.514-25.355-61.714-.277-48.947 39.303-89.132 88.233-89.579.278-.003.552-.003.83-.003M243.443 230.877h-58.497s2.36 21.243 18.175 28.575c1.357 3.759 4.464 8.85 11.351 8.85 6.706 0 9.604-4.559 10.851-8.234 17.146-6.66 18.12-29.191 18.12-29.191" transform="translate(-1 -1) translate(0 .372)"/>
            <path fill="#D8D8D8" d="M247 267.652c54.82.119 122.487.444 203 .976H0c109.846-.77 192.18-1.095 247-.976z" transform="translate(-1 -1) translate(0 .372)"/>
            <path fill="#515151" d="M255.369 222.053H173.02c-2.761 0-5-2.239-5-5s2.239-5 5-5h82.349c2.76 0 5 2.24 5 5 0 2.761-2.24 5-5 5M258.927 234.7h-89.466c-.795 0-1.44-.646-1.44-1.442v-7.117c0-.796.645-1.441 1.44-1.441h89.466c.796 0 1.441.645 1.441 1.44v7.118c0 .796-.645 1.441-1.44 1.441" transform="translate(-1 -1) translate(0 .372)"/>
            <path fill="#515151" d="M200.062 129.937c-.111 0-.224.004-.336.01-3.087.197-5.317 2.985-5.924 5.64-.585 2.554-.11 5.493 1.414 8.736 1.498 3.188 3.67 5.975 6.272 8.2 2.207-2.595 3.892-5.772 4.832-9.246.915-3.386.898-6.304-.05-8.674-.948-2.365-3.358-4.666-6.208-4.666m28.06-.278c-1.007 0-2.006.226-2.92.736-3.612 2.011-4.259 7.07-3.298 11.192 1.075 4.616 3.71 8.915 7.294 12.06 3.292-2.6 5.77-6.136 6.816-10.148 1.036-3.971.522-7.79-1.408-10.476-1.394-1.94-3.96-3.364-6.485-3.364m1.995 82.797c-.047 0-.096-.008-.142-.026-.208-.078-.314-.31-.236-.518l20.608-54.856c-2.579.669-5.793 1.383-8.988 1.542-3.833.192-6.902-.438-9.38-1.925-.984-.59-1.924-1.26-2.81-1.995-3.668 2.722-8.216 4.348-12.92 4.339-5.278-.014-10.47-2.006-14.672-5.379-1.79 1.963-3.88 3.571-6.17 4.695-5.634 2.766-12.228 2.434-17.175-.774l20.419 54.353c.078.208-.027.44-.235.518-.208.079-.441-.027-.519-.235l-20.88-55.585c-.064-.169-.008-.359.137-.465.146-.107.344-.105.486.006 4.795 3.726 11.63 4.3 17.412 1.46 2.189-1.076 4.189-2.61 5.905-4.486-2.684-2.297-4.924-5.172-6.468-8.46-1.602-3.409-2.097-6.524-1.471-9.258.674-2.946 3.177-6.042 6.658-6.263 3.379-.214 6.25 2.434 7.341 5.16 1.016 2.536 1.042 5.625.08 9.183-.968 3.585-2.708 6.865-4.99 9.548 4.057 3.247 9.06 5.164 14.144 5.177h.052c4.448 0 8.753-1.523 12.243-4.069-3.646-3.245-6.325-7.649-7.425-12.373-1.03-4.416-.287-9.863 3.69-12.078 3.305-1.842 7.993-.559 10.45 2.861 2.07 2.882 2.629 6.945 1.533 11.149-1.076 4.128-3.609 7.774-6.973 10.472.816.665 1.675 1.271 2.572 1.809 5.152 3.091 12.594 1.676 18.5.096.146-.038.302.007.403.12.101.111.131.27.079.411l-20.882 55.585c-.06.162-.214.261-.376.261" transform="translate(-1 -1) translate(0 .372)"/>
            <path fill="#FFF" d="M188.688 26.003c3.553 4.014-2.39 15.079-13.274 24.716-10.884 9.637-22.588 14.195-26.141 10.182-3.553-4.013 2.39-15.078 13.273-24.715 10.885-9.637 22.588-14.196 26.142-10.183" transform="translate(-1 -1) translate(0 .372)"/>
            <path fill="#515151" d="M333.393 259.93L320.026 268.594 341.154 268.594 340.615 260.024zM361.368 259.628L348 268.292 368.971 268.14 368.589 259.722z" transform="translate(-1 -1) translate(0 .372)"/>
            <path fill="#E51E74" d="M317.169 170.294L327.177 260.708 344.213 260.708 336.693 187.514 354.761 260.442 370.71 260.708 354.68 170.294z" transform="translate(-1 -1) translate(0 .372)"/>
            <path fill="#515151" d="M327.388 260.474h16.565l-7.493-72.936c-.013-.122.071-.234.193-.255.12-.02.238.055.268.175l18.025 72.753 15.484.258-15.947-89.94H317.43l9.958 89.945zm43.322.47h-.003l-15.95-.267c-.106-.002-.198-.075-.224-.179l-17.265-69.688 7.178 69.874c.007.066-.014.132-.059.181-.044.05-.108.078-.174.078h-17.035c-.12 0-.22-.09-.234-.209l-10.01-90.414c-.006-.067.015-.133.06-.183.044-.05.108-.078.174-.078h37.512c.114 0 .211.082.231.194l16.03 90.414c.013.07-.007.14-.052.193-.045.053-.11.083-.179.083z" transform="translate(-1 -1) translate(0 .372)"/>
            <path fill="#515151" d="M355.968 177.373c-.067 0-6.776-.08-8.288-6.958-.027-.126.052-.251.18-.28.123-.026.251.053.279.18 1.429 6.503 7.57 6.587 7.83 6.588.13 0 .234.105.234.235s-.105.235-.235.235M317.783 176.076c-.086 0-.17-.048-.21-.13-.058-.116-.012-.257.104-.314 2.622-1.315 2.121-5.266 2.116-5.306-.018-.13.072-.247.2-.264.13-.016.248.072.265.2.006.044.142 1.086-.072 2.32-.289 1.66-1.083 2.86-2.298 3.47-.034.016-.07.024-.105.024M336.693 187.75c-.105 0-.2-.071-.227-.177l-1.221-4.752-3.152-3.766c-.083-.1-.07-.248.029-.331.1-.083.248-.07.33.03l3.187 3.806c.023.027.039.058.047.092l1.234 4.804c.033.125-.043.253-.168.285-.02.006-.04.008-.06.008" transform="translate(-1 -1) translate(0 .372)"/>
            <path fill="#F5F5F5" d="M326.113 170.839c-9.14 0-9.155-.21-9.179-.527-.019-.257-1.273-27.977 3.122-46.991-1.62 1.079-7.002 4.162-15.56 4.162-6.888 0-14.245-1.956-21.868-5.814-.113-.056-.16-.193-.107-.308l3.533-7.577c.038-.083.122-.135.213-.135.01 0 .02 0 .03.002.114.015 11.437 1.515 18.718 1.515 1.887 0 3.355-.1 4.364-.299 6.704-1.318 9.8-3.462 12.53-5.353 2.548-1.765 4.954-3.431 9.768-4.037l.03-.002 10.53.03c.01 0 .022.002.034.004.035.005 3.464.534 4.603.571 9.09.3 9 9.468 8.948 14.946l-.006.657c-.1 14.417-1.02 48.224-1.029 48.564-.003.125-.104.226-.23.228-.174.004-17.506.364-28.441.364h-.003z" transform="translate(-1 -1) translate(0 .372)"/>
            <path fill="#515151" d="M331.707 105.24c-.02 0-.04.002-.059.004-4.872.613-7.3 2.295-9.872 4.076-2.712 1.88-5.786 4.008-12.442 5.317-.995.195-2.448.295-4.32.295-7.264 0-18.572-1.5-18.686-1.514-.02-.003-.041-.004-.062-.004-.18 0-.348.104-.425.27l-3.533 7.578c-.107.23-.012.503.214.617 7.656 3.874 15.049 5.839 21.975 5.839 2.995 0 7.514-.395 12.029-2.275 1.41-.587 2.47-1.173 3.172-1.608-4.25 19.026-3.016 46.24-2.998 46.494.036.481.58.53 1.107.578.432.04 1.07.073 1.896.098 1.489.045 3.645.068 6.411.068 10.937 0 28.274-.36 28.448-.363.25-.006.453-.206.46-.457.009-.34.929-34.149 1.028-48.568l.006-.657c.026-2.723.063-6.452-1.046-9.482-1.334-3.649-4.07-5.566-8.128-5.7-1.125-.038-4.54-.564-4.575-.57-.023-.003-.047-.005-.07-.005l-10.529-.03h-.001zm0 .47l10.529.03s3.464.536 4.63.575c9.222.304 8.752 9.923 8.715 15.367-.1 14.58-1.029 48.558-1.029 48.558s-17.379.364-28.438.364c-5.148 0-8.928-.08-8.946-.31-.036-.492-1.282-28.598 3.259-47.523 0 0-5.574 4.477-15.93 4.477-5.8 0-13.102-1.405-21.763-5.788l3.532-7.577s11.367 1.518 18.749 1.518c1.768 0 3.31-.087 4.41-.303 13.033-2.563 12.41-8.147 22.281-9.388z" transform="translate(-1 -1) translate(0 .372)"/>
            <path fill="#FFF" d="M334.483 112.129c-.025 0-.05-.004-.075-.012-.069-.023-.123-.077-.147-.147l-2.137-6.183c-.01-.028-.015-.058-.013-.088l.162-3.304c-2.301-.826-3.834-2.996-3.834-5.457V86.742c0-3.323 4.084-3.332 7.688-3.34 1.119-.002 2.176-.004 3.135-.089.106-.009.208-.013.308-.013.821 0 1.522.304 2.083.903 1.586 1.693 1.612 5.266 1.58 6.376.245-.059.606-.125 1.003-.125.889 0 2.38.348 2.38 2.675 0 1.663-1.076 2.617-2.952 2.617-.175 0-.33-.01-.45-.02l.135 10.346c0 .08-.038.154-.104.198l-8.63 5.818c-.04.027-.086.04-.132.04" transform="translate(-1 -1) translate(0 .372)"/>
            <path fill="#515151" d="M339.57 83.065c-.107 0-.217.005-.328.014-.95.084-2.001.086-3.115.089-3.714.008-7.924.017-7.924 3.574v10.197c0 2.5 1.524 4.714 3.827 5.616l-.01.186-.143 2.947c-.003.06.005.12.025.176l2.137 6.184c.048.137.157.245.295.292.049.016.099.024.149.024.092 0 .184-.028.262-.08l8.632-5.82c.13-.088.209-.237.207-.395l-.132-10.093c.067.003.137.004.212.004 1.995 0 3.187-1.066 3.187-2.851 0-1.85-.953-2.91-2.615-2.91-.28 0-.542.032-.763.07.013-1.376-.127-4.623-1.648-6.247-.608-.648-1.366-.977-2.254-.977m0 .47c3.893 0 3.412 7.358 3.412 7.358s.576-.203 1.253-.203c.968 0 2.145.416 2.145 2.439 0 2.08-1.722 2.382-2.717 2.382-.404 0-.688-.05-.688-.05l.138 10.614-8.631 5.819-2.137-6.184.144-2.946.026-.534c-2.23-.724-3.843-2.82-3.843-5.291V86.742c0-4.015 6.405-2.825 10.61-3.195.098-.008.194-.013.288-.013" transform="translate(-1 -1) translate(0 .372)"/>
            <path fill="#515151" d="M333.088 96.714c-.048 0-.098-.015-.14-.047l-1.069-.803c-.25-.189-.413-.476-.443-.79-.03-.312.072-.626.283-.86l.797-.885-.102-2.242c-.006-.13.094-.24.223-.245.125-.01.24.094.245.224l.108 2.338c.003.062-.02.122-.06.168l-.862.957c-.124.138-.183.315-.165.5.018.185.11.348.258.46l1.07.803c.103.078.123.225.045.329-.046.061-.116.093-.188.093M332.297 102.687c-.128 0-.232-.101-.236-.229-.002-.13.1-.237.23-.24.03-.001 2.911-.075 4.135-.613.119-.052.257.002.31.12.052.12-.002.258-.12.31-1.31.576-4.192.65-4.314.652h-.005zM334.749 89.403c-.048 0-.096-.014-.138-.044-.104-.077-.128-.222-.052-.327.299-.413 1.178-1.041 2.363-.463.117.058.165.198.108.314-.057.117-.197.165-.314.108-1.12-.546-1.751.282-1.777.317-.047.063-.118.095-.19.095M329.455 89.403c-.06 0-.121-.023-.167-.07-.09-.09-.09-.238 0-.33.362-.36 1.329-.84 2.408-.08.106.075.13.222.056.328-.074.106-.22.131-.327.056-1.02-.718-1.774-.001-1.806.03-.045.044-.105.066-.164.066M345.277 94.953c-.045 0-.091-.013-.132-.041-.107-.073-.135-.219-.061-.327 1.271-1.864-.262-2.99-.327-3.038-.105-.075-.13-.221-.055-.327.076-.105.222-.13.328-.055.02.014 1.97 1.445.441 3.685-.045.067-.119.103-.194.103" transform="translate(-1 -1) translate(0 .372)"/>
            <path fill="#515151" d="M343.868 93.678c-.043 0-.088-.012-.127-.037-.109-.07-.14-.215-.07-.325.638-.993 1.825-1.004 1.876-1.004.13 0 .234.105.234.234 0 .13-.104.235-.234.236-.01 0-.984.014-1.481.788-.045.07-.121.108-.198.108M335.21 91.117c-.02.392.14.72.36.732.22.012.415-.296.437-.688.022-.391-.139-.719-.359-.731-.22-.013-.415.295-.437.687M329.993 91.117c-.022.392.139.72.359.732.22.012.416-.296.437-.688.022-.391-.139-.719-.358-.731-.22-.013-.416.295-.438.687M341.806 80.749c-.04-.097 1.642 2.175 1.763 5.673.06 1.73.19 4.052.19 4.052-.994.354-2.173 1.626-2.173 1.626l-.362-7.343c-2.222 1.177-10.108 3.873-13.429 1.396-2.124-1.585-2.737-3.19-2.737-4.866 3.699 1.205 5.142-1.818 7.23-2.659 1.651-.664 2.737-.98 4.516-.992.756-.005 2.2.242 2.972.604 1.017.478 2.017 1.298 2.03 2.509M336.346 97.569s-2.335 1.245-4.05.444c0 0 1.371 1.868 2.453 1.78 1.082-.09 1.597-2.224 1.597-2.224" transform="translate(-1 -1) translate(0 .372)"/>
            <path fill="#F5AB06" d="M273.934 119.042l-12.189-12.825c-5.49-5.667.857-8.418 6.522-13.91 5.664-5.49 8.508-11.759 13.997-6.092l13.924 14.47c5.49 5.667-.404 8.707-6.07 14.196-5.667 5.49-9.475 11.149-14.964 5.482l-1.22-1.321z" transform="translate(-1 -1) translate(0 .372)"/>
            <path fill="#515151" d="M278.262 84.087c-.938 0-1.876.35-2.602 1.052l-14.81 14.348c-.718.695-1.122 1.628-1.138 2.627-.016.999.358 1.944 1.054 2.662l16.494 17.026c1.434 1.481 3.807 1.519 5.289.084l14.81-14.347c1.481-1.435 1.519-3.808.084-5.29L280.95 85.224c-.733-.756-1.71-1.136-2.687-1.136m1.686 39.323h-.069c-1.124-.019-2.174-.473-2.957-1.281l-16.494-17.027c-.782-.807-1.203-1.871-1.185-2.995.017-1.125.472-2.175 1.28-2.958l14.81-14.347c1.668-1.615 4.338-1.573 5.953.094l16.495 17.027c1.615 1.667 1.573 4.338-.095 5.953l-14.81 14.348c-.792.766-1.83 1.186-2.928 1.186" transform="translate(-1 -1) translate(0 .372)"/>
            <path fill="#F5F5F5" d="M279.207 123.674c-.546 0-.97-.152-1.26-.451-1.78-1.837 2.47-8.08 7.605-13.055 4.716-4.568 9.55-7.637 12.028-7.637.547 0 .971.152 1.261.451 1.02 1.053-.026 3.384-1.084 5.155-1.445 2.42-3.761 5.226-6.521 7.899-4.716 4.568-9.55 7.638-12.029 7.638" transform="translate(-1 -1) translate(0 .372)"/>
            <path fill="#515151" d="M297.58 102.296c-2.535 0-7.435 3.096-12.191 7.704-5.147 4.985-9.563 11.371-7.611 13.386.336.346.817.522 1.43.522 2.535 0 7.434-3.096 12.191-7.704 5.146-4.985 9.562-11.37 7.61-13.386-.335-.346-.816-.522-1.429-.522m0 .47c.473 0 .843.122 1.092.379 1.48 1.527-1.923 7.223-7.6 12.722-4.721 4.574-9.53 7.571-11.865 7.571-.472 0-.843-.122-1.092-.379-1.479-1.527 1.924-7.223 7.6-12.722 4.722-4.574 9.53-7.571 11.865-7.571" transform="translate(-1 -1) translate(0 .372)"/>
            <path fill="#515151" d="M293.323 111.076c-.531.515-1.379.501-1.893-.03-.515-.53-.501-1.378.03-1.893.53-.515 1.378-.501 1.893.03.514.531.501 1.379-.03 1.893M287.072 117.132c-.531.515-1.38.501-1.894-.03-.514-.53-.5-1.379.03-1.894.532-.514 1.38-.5 1.894.031.514.53.5 1.378-.03 1.893M303.017 123.528l-7.81-7.812c-.523-.523-.523-1.371 0-1.894.523-.523 1.37-.522 1.894 0l7.81 7.813c.522.523.522 1.37 0 1.893-.524.524-1.371.523-1.894 0M296.862 129.682l-7.81-7.813c-.523-.523-.523-1.37 0-1.894.523-.522 1.37-.522 1.894 0l7.81 7.813c.522.523.522 1.37 0 1.894-.524.523-1.372.523-1.894 0" transform="translate(-1 -1) translate(0 .372)"/>
            <path fill="#FFF" d="M301.29 146.267l-2.182-2.182c-5.578-5.58-5.577-14.625.003-20.202 5.58-5.578 14.625-5.577 20.203.003l2.18 2.182c5.578 5.58 5.577 14.624-.003 20.202-5.579 5.578-14.624 5.577-20.202-.003" transform="translate(-1 -1) translate(0 .372)"/>
            <path fill="#515151" d="M309.213 115.666c-.958 0-1.915.364-2.644 1.093l-14.584 14.579c-1.458 1.458-1.459 3.83 0 5.29l16.76 16.765c1.457 1.458 3.83 1.459 5.289 0l14.583-14.578c.706-.707 1.096-1.646 1.096-2.644 0-1-.389-1.939-1.095-2.646l-16.76-16.765c-.729-.73-1.687-1.094-2.645-1.094m2.176 39.29c-1.078 0-2.156-.41-2.977-1.232l-16.76-16.765c-1.64-1.641-1.64-4.312.002-5.953l14.583-14.579c1.641-1.64 4.312-1.641 5.953.001l16.76 16.766c1.64 1.641 1.64 4.312 0 5.953l-14.585 14.578c-.82.82-1.898 1.231-2.976 1.231" transform="translate(-1 -1) translate(0 .372)"/>
            <path fill="#515151" d="M269.332 267.44c-3.386-.182-5.088-2.876-5.019-5.444.07-2.594 1.93-5.219 5.352-5.219 2.52 0 5.071.053 7.583.155 3.214.131 6.536.266 8.944-1.483 1.223-.89 1.977-2.698 1.792-4.302-.086-.755-.413-1.75-1.476-2.199-.7-.296-1.564-.29-2.399-.288h-45.936c.137-.289.586-1.08.896-1.693l45.033-.186c.977-.003 2.083-.008 3.137.437 1.459.616 2.411 1.97 2.612 3.715.261 2.27-.79 4.752-2.555 6.035-2.935 2.134-6.754 1.978-10.124 1.841-2.487-.101-5.013-.153-7.507-.153-2.337 0-3.429 1.702-3.474 3.39-.045 1.662.94 3.394 3.241 3.518 7.203.386 14.816-.324 21.386-1.021 5.705-.604 11.604-1.229 17.04-3.223 5.961-2.187 10.538-5.87 12.888-10.37 2.75-5.267 2.58-11.59 2.418-17.702l-.039-1.513c-.256-10.915.678-21.986 1.581-32.693 1.736-20.58 3.716-33.916-2.164-53.095-.152-.497.127-1.021.622-1.174.496-.152 1.022.127 1.174.623 5.986 19.526 3.914 33.951 2.24 53.804-.9 10.658-1.829 21.677-1.575 32.491l.038 1.507c.17 6.353.345 12.922-2.63 18.621-2.566 4.916-7.505 8.916-13.907 11.264-5.654 2.075-11.67 2.711-17.487 3.328-5.337.565-11.36 1.14-17.327 1.14-1.46 0-2.915-.034-4.358-.111z" transform="translate(-1 -1) translate(0 .372)"/>
            <path fill="#FFF" d="M303.973 138.017c-1.275.358-2.235.609-2.741.738l-5.38 2.72c-.522.21-1.59.584-2.043-.24-.289-.525-.232-.966.225-1.282-.501.083-1.196.368-1.647-.487-.216-.533.016-1.131.515-1.393-.54.159-1.123-.11-1.34-.642-.23-.568.044-1.214.612-1.444l5.422-2.32s-.285-.278-1.708-1.19c-.711-.454-.644-1.871 1.907-1.294 1.275.289 4.155.727 4.155.728l2.023 6.106z" transform="translate(-1 -1) translate(0 .372)"/>
            <path fill="#515151" d="M294.034 139.718c.094 0 .181.057.218.146.04.102.006.219-.084.281-.233.162-.46.418-.153.978.258.47.814.512 1.75.134l5.362-2.712c.015-.007.03-.013.047-.017.435-.111 1.317-.342 2.5-.67l-1.902-5.737c-.723-.113-2.953-.466-4.029-.71-1.264-.285-1.85-.058-1.98.25-.084.202.026.475.251.62 1.403.897 1.715 1.189 1.746 1.219.056.055.081.134.066.21-.014.078-.066.143-.138.173l-5.422 2.32c-.451.182-.667.693-.486 1.14.169.415.621.632 1.055.504.116-.033.239.026.284.138.045.111-.001.24-.108.296-.4.21-.574.682-.406 1.097.3.567.707.482 1.18.384.072-.015.143-.03.21-.041.014-.002.026-.003.04-.003m.681 2.257c-.512 0-.883-.21-1.112-.626-.215-.39-.261-.75-.145-1.057-.43.041-.928-.049-1.28-.716-.176-.434-.121-.897.11-1.255-.414-.093-.774-.381-.944-.802-.135-.332-.132-.698.008-1.028.14-.331.4-.587.732-.722l5.056-2.162c-.24-.178-.663-.472-1.38-.931-.418-.268-.604-.783-.43-1.197.125-.3.622-.953 2.516-.525 1.145.259 3.63.646 4.117.722.09.013.174.078.207.162l.002-.001 2.024 6.106c.02.062.014.128-.016.184-.03.057-.082.1-.144.116-1.284.36-2.247.612-2.722.733l-5.357 2.708c-.479.194-.893.291-1.242.291" transform="translate(-1 -1) translate(0 .372)"/>
            <path fill="#515151" d="M294.034 140.187c-.083 0-.164-.044-.207-.123-.061-.115-.018-.257.096-.318l2.553-1.376c.115-.061.257-.019.318.095.062.115.019.257-.095.318l-2.554 1.376c-.035.02-.073.028-.11.028M292.72 138.35c-.083 0-.165-.045-.207-.123-.062-.114-.019-.257.096-.318l2.553-1.376c.115-.062.256-.019.318.095.061.114.019.257-.096.318l-2.553 1.376c-.036.02-.073.028-.11.028" transform="translate(-1 -1) translate(0 .372)"/>
            <path fill="#F5F5F5" d="M309.004 138.918c-1.939 0-3.934-.07-5.93-.208-.106-.007-.194-.085-.214-.189l-1.535-7.782c-.022-.111.039-.222.145-.264.234-.091 23.495-9.195 31.83-14.508 1.093-.695 2.409-1.776 3.802-2.92 3.434-2.82 7.708-6.33 11.43-6.33 1.014 0 1.954.26 2.793.776 2.143 1.315 3.392 3.233 3.614 5.546.36 3.758-2.027 8.483-6.229 12.33l-.1.092c-3.168 2.912-6.965 5.434-11.283 7.498-8.274 3.954-17.803 5.96-28.323 5.96" transform="translate(-1 -1) translate(0 .372)"/>
            <path fill="#515151" d="M348.532 106.482v.47-.47c-3.806 0-8.116 3.54-11.58 6.384-1.387 1.14-2.697 2.216-3.777 2.904-8.316 5.3-31.557 14.395-31.79 14.486-.212.083-.335.306-.291.529l1.535 7.782c.041.208.216.363.428.377 2.002.139 4.003.21 5.947.21 10.554 0 20.118-2.014 28.424-5.982 4.34-2.074 8.155-4.61 11.34-7.537l.1-.093c4.256-3.896 6.671-8.696 6.305-12.526-.23-2.39-1.517-4.368-3.725-5.724-.876-.537-1.857-.81-2.916-.81m0 .47c.932 0 1.828.224 2.67.74 6.25 3.837 3.5 11.873-2.65 17.504-1.907 1.746-14.267 13.488-39.548 13.488-1.9 0-3.868-.066-5.914-.208l-1.535-7.782s23.42-9.142 31.872-14.528c3.808-2.427 9.983-9.214 15.104-9.214" transform="translate(-1 -1) translate(0 .372)"/>
            <path fill="#FFF" d="M272.582 117.294l.753-.596c.416-.33.487-.934.157-1.35-.33-.416-.935-.487-1.35-.157l-.753.595c-.416.33-.487.935-.157 1.351.33.417.934.487 1.35.157" transform="translate(-1 -1) translate(0 .372)"/>
            <path fill="#515151" d="M272.738 115.218c-.159 0-.318.052-.45.157l-.754.596c-.152.12-.248.293-.27.486-.022.192.032.382.152.535.248.313.706.367 1.02.118l.753-.596c.153-.12.249-.293.271-.486.022-.193-.032-.383-.152-.535-.144-.18-.356-.275-.57-.275zm-.75 2.519c-.047 0-.093-.003-.14-.008-.318-.037-.602-.196-.8-.446-.198-.25-.288-.563-.25-.88.036-.318.195-.602.445-.8l.753-.596c.517-.41 1.27-.322 1.68.195.41.517.322 1.271-.196 1.68l-.752.596c-.214.169-.472.259-.74.259z" transform="translate(-1 -1) translate(0 .372)"/>
            <path fill="#FFF" d="M273.802 118.834l.753-.596c.416-.33.486-.934.156-1.35-.33-.417-.934-.487-1.35-.157l-.753.595c-.416.33-.486.935-.157 1.351.33.416.934.487 1.35.157" transform="translate(-1 -1) translate(0 .372)"/>
            <path fill="#515151" d="M273.957 116.758c-.158 0-.317.051-.45.157l-.753.595c-.152.121-.249.294-.271.486-.022.193.032.383.152.536.249.314.706.366 1.021.118l.753-.596c.314-.249.367-.706.118-1.02-.143-.182-.355-.276-.57-.276m-.751 2.518c-.353 0-.703-.155-.939-.453-.198-.25-.287-.563-.25-.88.037-.318.195-.603.445-.8l.753-.596c.517-.41 1.27-.323 1.68.195.199.25.287.563.25.88-.036.318-.195.602-.445.8l-.752.596c-.22.174-.482.258-.742.258" transform="translate(-1 -1) translate(0 .372)"/>
            <path fill="#FFF" d="M275.034 120.39l.753-.595c.416-.33.487-.934.157-1.35-.33-.417-.935-.487-1.351-.158l-.752.596c-.416.33-.487.934-.157 1.35.33.417.934.487 1.35.158" transform="translate(-1 -1) translate(0 .372)"/>
            <path fill="#515151" d="M275.19 118.315c-.16 0-.318.05-.45.156l-.754.596c-.314.25-.367.707-.118 1.021.248.314.706.368 1.02.119l.753-.596c.153-.12.249-.293.271-.486.022-.193-.032-.383-.152-.535-.144-.181-.356-.275-.57-.275zm-.751 2.518c-.354 0-.704-.156-.94-.454-.409-.517-.321-1.27.196-1.68l.753-.595c.516-.41 1.27-.323 1.68.194.198.25.287.564.25.881-.037.317-.195.602-.446.8l-.752.596c-.22.173-.481.258-.741.258zM301.554 115.298c-.506 0-.923-.403-.938-.912-.182-6.175-.388-10.317-1.707-15.778-1.045-4.323-3.313-10.358-8.19-14.557-4.473-3.853-10.534-5.265-15.437-3.602-5.427 1.84-8.47 6.64-7.4 11.67.108.508-.216 1.006-.723 1.115-.507.107-1.006-.217-1.114-.724-1.254-5.897 2.377-11.717 8.633-13.84 5.52-1.873 12.3-.32 17.267 3.958 4.16 3.581 7.199 8.955 8.79 15.54 1.359 5.622 1.578 10.05 1.759 16.163.015.518-.393.95-.912.966h-.028M279.696 244.008l-39.087-.458c0-.273.584-1.518.593-1.91l38.494.557h.995c4.467 0 12.41.541 16.188-4.043 2.551-3.096 2.662-7.53 2.55-12.184-.317-13.144-.732-27.306-1.133-41.002-.402-13.685-.816-27.836-1.133-40.972-.013-.519.398-.95.917-.962h.022c.508 0 .927.406.939.916.317 13.132.731 27.28 1.132 40.963.401 13.698.816 27.863 1.133 41.012.122 5.022-.015 9.828-2.978 13.424-3.176 3.854-8.212 4.659-13.17 4.66-1.882 0-3.708.108-5.462 0z" transform="translate(-1 -1) translate(0 .372)"/>
        </g>
        <g>
            <path fill="#000" d="M44.137 163l-.792-.263C61.306 108.704 43.482 45.337 0 8.638L.538 8c21.048 17.765 36.98 42.978 44.86 70.995 7.881 28.016 7.433 57.85-1.261 84.005" transform="translate(-1 -1) translate(51 106)"/>
            <path fill="#000" d="M49.521 93.986l-.066-.02c-.272-.095-.46-.363-.455-.65.006-.37.256-.61.405-.754 2.519-2.42 3.857-5.856 4.915-8.887 2.22-6.368 3.86-12.988 4.874-19.675l.806.132c-1.022 6.741-2.674 13.414-4.913 19.833-1.17 3.355-2.602 6.794-5.129 9.221l-.145.165c.004-.052-.002-.156-.096-.19-.105-.041-.22.011-.286.104l.655.506c-.131.184-.347.264-.565.215M34.764 53C24.55 50.027 14.948 44.712 7 37.631L7.56 37C15.416 43.999 24.905 49.251 35 52.189l-.236.811M50.358 133l-.358-.76c4.148-1.97 7.745-5.698 10.69-11.082 1.66-3.034 2.987-6.309 4.267-9.475.677-1.673 1.378-3.404 2.12-5.083.079-.177.09-.242.086-.266l.767-.334c.164.373 0 .742-.087.94-.738 1.668-1.436 3.392-2.11 5.059-1.29 3.19-2.626 6.487-4.31 9.563-3.031 5.543-6.755 9.39-11.065 11.438M23.804 33L23 32.686c3.417-7.748 4.752-16.254 3.86-24.603L27.726 8c.907 8.484-.449 17.129-3.922 25" transform="translate(-1 -1) translate(51 106)"/>
            <path fill="#78B518" d="M27.85 1.12c-2.667 2.256-4.023 4.692-4.03 7.247-.01 3.61 2.685 6.49 3.646 7.4C32.73 7.708 28.897 2.34 27.85 1.12zM27.628 17l-.343-.282c-.175-.144-4.299-3.587-4.285-8.353.008-2.912 1.567-5.65 4.632-8.14L27.91 0l.26.247c.066.063 6.523 6.403-.289 16.385l-.252.368zM60.656 58.206c-3.472 2.216-5.403 4.745-5.742 7.519-.42 3.436 1.762 6.309 2.493 7.164 7.497-5.02 4.185-12.826 3.25-14.683zM57.272 74l-.244-.246c-.143-.146-3.515-3.614-2.968-8.127.382-3.152 2.58-5.977 6.534-8.397l.376-.23.22.382c.06.103 5.86 10.406-3.626 16.432l-.292.186zM70.864 99.221c-3.609 1.685-5.848 3.897-6.66 6.575-.99 3.265.461 6.322.953 7.221 7.143-1.978 6.085-11.447 5.707-13.796zM64.753 114l-.166-.255c-.102-.159-2.493-3.934-1.209-8.187.922-3.054 3.492-5.525 7.637-7.347l.483-.211.111.513c.029.131 2.746 13.193-6.56 15.417l-.296.07zM3.91 32.828c.214 2.806 1.201 4.95 2.94 6.376 2.281 1.872 5.244 1.99 6.268 1.968.128-2.612-.573-4.653-2.086-6.068-2.31-2.16-5.902-2.296-7.122-2.276zm6.53 8.917c-1.304-.273-2.822-.824-4.157-1.918-2.01-1.65-3.108-4.13-3.264-7.373L3 32.06l.413-.035c.21-.018 5.142-.394 8.227 2.493 1.772 1.657 2.553 4.037 2.32 7.076l-.026.346-.362.034c-.098.01-1.434.126-3.132-.229zM40.319 163c-2.466-4.249-4.23-8.95-5.13-13.796-.217-1.172-.39-2.379-.557-3.545-.292-2.032-.593-4.134-1.142-6.156-.283-1.042-.636-2.075-.975-3.073-.295-.864-.6-1.756-.854-2.643-.698-2.425-1.078-4.975-1.446-7.442-.577-3.86-1.173-7.851-1.213-11.82-.027-2.622.197-5.252.462-7.525.466.03.925.14 1.357.35.417.203.797.488 1.113.835.792.872 1.135 2.065 1.453 3.212 4.12 14.873 8.282 30.13 7.12 45.55-.1 1.322.13 2.998.465 4.67.128.635-.197 1.14-.653 1.383" transform="translate(-1 -1) translate(51 106)"/>
            <path fill="#78B518" d="M22.639 114.106c.418-1.97 1.095-3.97 2.53-5.426.882-.895 2.111-1.523 3.364-1.68-.278 2.269-.51 4.88-.481 7.492.043 4.02.68 8.037 1.298 11.92.395 2.489.804 5.064 1.561 7.54.277.904.604 1.805.92 2.677.356.984.726 2.002 1.02 3.017.567 1.97.884 4.04 1.19 6.044.179 1.174.364 2.387.599 3.575.95 4.815 2.79 9.491 5.36 13.735-.263-.063-.516-.202-.716-.453-3.06-3.82-5.675-8.672-7.61-12.472-5.746-11.29-11.653-23.648-9.035-35.97M52.288 159.435c2.408-2.183 4.14-4.12 5.451-6.092.55-.83 1.051-1.703 1.534-2.549.27-.471.541-.944.821-1.41.48-.8.988-1.581 1.495-2.362.33-.507.66-1.014.981-1.525 1.921-3.052 3.59-6.3 5.205-9.442L70.372 131c.79.432 1.521.957 1.996 1.705.915 1.444.654 3.306.343 4.985-.406 2.19-.848 4.397-1.747 6.437-1.493 3.391-4.153 6.126-6.89 8.634-2.25 2.061-4.6 4.026-7.113 5.765-2.168 1.5-4.458 2.837-6.88 3.89-.482.209-1.462.7-2.081.559 1.479-1.119 2.917-2.299 4.288-3.54" transform="translate(-1 -1) translate(51 106)"/>
            <path fill="#78B518" d="M66.424 134.852c-1.594 3.184-3.24 6.476-5.127 9.552-.317.517-.642 1.03-.966 1.542-.51.804-1.02 1.609-1.5 2.432-.28.48-.55.966-.821 1.453-.474.847-.963 1.725-1.495 2.547-1.261 1.949-2.937 3.87-5.274 6.044-1.35 1.256-2.766 2.449-4.223 3.578l-.017-.103c-.053-.696 1.906-2.47 2.347-3.05 3.28-4.313 6.083-9.006 8.334-13.96 1.998-4.397 3.57-9.007 5.902-13.228.657-1.188 1.543-2.46 2.866-2.638.82-.11 1.627.235 2.376.595.059.028.116.06.174.088l-2.576 5.148" transform="translate(-1 -1) translate(51 106)"/>
        </g>
    </g>
</svg>
