<svg xmlns="http://www.w3.org/2000/svg" width="58" height="58" viewBox="0 0 58 58">
    <g fill="none" fill-rule="evenodd">
        <path fill="#78B517" fill-opacity=".05" stroke="#78B517" stroke-width=".72" d="M12.533 2.06A14.04 14.04 0 0 0 1.589 13.661 105.462 105.462 0 0 0 .36 29.676c0 4.953.352 9.906 1.058 14.859a14.04 14.04 0 0 0 12.127 11.949c4.968.632 9.936.948 14.904.948 5.188 0 10.377-.344 15.565-1.034a14.04 14.04 0 0 0 11.941-11.284 82.12 82.12 0 0 0 1.474-15.438c0-5.53-.567-11.06-1.702-16.59A14.04 14.04 0 0 0 45.022 2.204 76.11 76.11 0 0 0 28.45.36c-5.305 0-10.61.567-15.916 1.7z"/>
        <g transform="translate(15 18)">
            <path stroke="#78B517" stroke-width="1.5" d="M0 13.292l9.4 7.72L23.899 4"/>
            <circle cx="26.5" cy="1.5" r="1.5" fill="#78B517"/>
        </g>
    </g>
</svg>
