<?xml version="1.0" encoding="utf-8"?>
<!-- Generator: Adobe Illustrator 22.0.1, SVG Export Plug-In . SVG Version: 6.00 Build 0)  -->
<svg version="1.1" id="Layer_1" xmlns="http://www.w3.org/2000/svg" xmlns:xlink="http://www.w3.org/1999/xlink" x="0px" y="0px"
	 viewBox="0 0 514 514" style="enable-background:new 0 0 514 514;" xml:space="preserve">
<style type="text/css">
	.st0{fill:#B8B8B8;}
</style>
<path class="st0" d="M299.7,249.5c-3.6,0-6.9-2-8.5-5.2c-2.4-4.7-0.5-10.4,4.2-12.8c5.3-2.7,52.8-26.7,78.2-34.7
	c0.9-0.3,1.9-0.4,2.9-0.4c4.2,0,7.8,2.7,9.1,6.7c0.8,2.4,0.5,5-0.6,7.3c-1.2,2.3-3.2,3.9-5.6,4.7c-24.6,7.8-74.8,33.3-75.4,33.5
	C302.7,249.1,301.2,249.5,299.7,249.5z"/>
<path class="st0" d="M299.7,147.1c-3.6,0-6.9-2-8.5-5.2c-2.4-4.7-0.5-10.4,4.2-12.8c5.3-2.7,52.8-26.7,78.2-34.7
	c0.9-0.3,1.9-0.4,2.9-0.4c4.2,0,7.8,2.7,9.1,6.7c0.8,2.4,0.5,5-0.6,7.3c-1.2,2.3-3.2,3.9-5.6,4.7c-24.9,7.9-74.8,33.3-75.4,33.5
	C302.7,146.7,301.2,147.1,299.7,147.1z"/>
<path class="st0" d="M43.7,514C19.6,514,0,494.4,0,470.3V137.5c0-5.3,4.3-9.5,9.5-9.5c5.3,0,9.5,4.3,9.5,9.5v332.8
	c0,13.6,11,24.6,24.6,24.6h203.8v-18.4c-10.5-4.3-36.8-13.7-67.3-13.7c-73,0-131.4,16-133.9,16.7c-0.9,0.3-1.8,0.4-2.6,0.4
	c-2.1,0-4.1-0.7-5.7-1.9c-2.4-1.8-3.8-4.6-3.8-7.6V94.9c0-4.2,2.8-8,6.9-9.2c2.5-0.7,61.6-17.4,139.2-17.4
	c43.2,0,77.3,16.2,81.1,18.1c3.3,1.6,5.3,4.9,5.3,8.5v324.8c24.9-14.1,85.5-47,143.1-67.1V23.5c-61.7,25-121.4,62-121.9,62.4
	c-1.5,1-3.3,1.5-5.1,1.5c-3.3,0-6.3-1.7-8.1-4.5c-1.3-2.2-1.8-4.7-1.2-7.2c0.6-2.5,2.1-4.6,4.2-5.9c2.9-1.8,71.4-44,138.2-69.1
	c1.1-0.4,2.2-0.6,3.4-0.6c2,0,3.8,0.6,5.4,1.7c2.6,1.8,4.1,4.7,4.1,7.8v349.9c0,4.1-2.6,7.7-6.5,9c-73.6,24.5-156.7,73.8-160.2,75.9
	c-1.5,0.9-3.2,1.4-4.9,1.4c-1.6,0-3.3-0.4-4.7-1.2c-3-1.7-4.8-4.9-4.8-8.3V101.1c-10.5-4.3-36.8-13.7-67.3-13.7
	c-59,0-108,10.3-127,14.9v355.8c23.5-5.5,70.3-14.4,127-14.4c36,0,65.7,11.2,77.2,16.3c11-4,47.8-16.3,85-16.3
	c55.6,0,97.6,8.6,118.5,14V102.6c-3.1-0.6-6.5-1.3-10-1.9c-5.2-1-8.6-5.9-7.6-11.1c0.8-4.5,4.8-7.8,9.4-7.8c0.6,0,1.2,0.1,1.7,0.2
	c11.3,2.1,18.1,3.6,18.2,3.6c4.4,1,7.5,4.8,7.5,9.3v375.5c0,3.1-1.5,5.9-4,7.7c-1.6,1.2-3.6,1.8-5.6,1.8c-1,0-2-0.2-3-0.5
	c-0.5-0.2-51.4-16.6-125-16.6c-31.2,0-62.9,9.7-75.8,14.2v17.9h203.8c13.6,0,24.6-11,24.6-24.6V137.5c0-5.3,4.3-9.5,9.5-9.5
	c5.3,0,9.5,4.3,9.5,9.5v332.8c0,24.1-19.6,43.7-43.7,43.7H43.7z"/>
<path class="st0" d="M299.7,198.3c-3.6,0-6.9-2-8.5-5.2c-2.4-4.7-0.5-10.4,4.2-12.8c5.3-2.7,52.9-26.7,78.2-34.7
	c0.9-0.3,1.9-0.4,2.9-0.4c4.2,0,7.8,2.7,9.1,6.7c0.8,2.4,0.5,5-0.6,7.3c-1.2,2.3-3.2,3.9-5.6,4.7c-24.6,7.8-74.8,33.3-75.4,33.5
	C302.7,197.9,301.2,198.3,299.7,198.3z"/>
<path class="st0" d="M299.7,300.7c-3.6,0-6.9-2-8.5-5.2c-2.4-4.7-0.5-10.4,4.2-12.8c5.3-2.7,52.8-26.7,78.2-34.7
	c0.9-0.3,1.9-0.4,2.9-0.4c4.2,0,7.8,2.7,9.1,6.7c0.8,2.4,0.5,5-0.6,7.3c-1.2,2.3-3.2,3.9-5.6,4.7c-24.6,7.8-74.8,33.3-75.4,33.5
	C302.7,300.3,301.2,300.7,299.7,300.7z"/>
<path class="st0" d="M94.9,181.2c-4.3,0-8.1-2.9-9.2-7.1c-1.4-5.1,1.7-10.3,6.7-11.7c1.3-0.4,33.3-8.8,70.8-8.8
	c16.3,0,31.4,1.6,44.8,4.7c2.5,0.6,4.6,2.1,5.9,4.3c1.3,2.2,1.8,4.7,1.2,7.2c-1,4.3-4.8,7.4-9.3,7.4c0,0,0,0,0,0
	c-0.7,0-1.5-0.1-2.2-0.3c-11.9-2.8-25.4-4.2-40.2-4.2c-35.3,0-65.8,8.1-66.1,8.1C96.5,181.1,95.7,181.2,94.9,181.2z"/>
<path class="st0" d="M94.9,232.4c-4.3,0-8.1-2.9-9.2-7.1c-1.4-5.1,1.7-10.3,6.7-11.7c1.3-0.4,33.3-8.8,70.8-8.8
	c16.3,0,31.4,1.6,44.8,4.7c2.5,0.6,4.6,2.1,5.9,4.3s1.8,4.7,1.2,7.2c-1,4.3-4.8,7.4-9.3,7.4c0,0,0,0,0,0c-0.7,0-1.5-0.1-2.2-0.3
	c-11.9-2.8-25.4-4.2-40.2-4.2c-35.3,0-65.8,8.1-66.1,8.1C96.5,232.3,95.7,232.4,94.9,232.4z"/>
<path class="st0" d="M299.7,351.9c-3.6,0-6.9-2-8.5-5.2c-2.4-4.7-0.5-10.4,4.2-12.8c5.3-2.7,52.8-26.7,78.2-34.7
	c0.9-0.3,1.9-0.4,2.9-0.4c4.2,0,7.8,2.7,9.1,6.7c0.8,2.4,0.5,5-0.6,7.3c-1.2,2.3-3.2,3.9-5.6,4.7c-24.7,7.8-74.9,33.3-75.4,33.5
	C302.7,351.5,301.2,351.9,299.7,351.9z"/>
<path class="st0" d="M94.9,283.6c-4.3,0-8.1-2.9-9.2-7.1c-1.4-5.1,1.7-10.3,6.7-11.7c1.3-0.4,32.9-8.8,70.8-8.8
	c16.3,0,31.4,1.6,44.8,4.7c2.5,0.6,4.6,2.1,5.9,4.3s1.8,4.7,1.2,7.2c-1,4.3-4.8,7.4-9.3,7.4l0,0c-0.7,0-1.5-0.1-2.2-0.3
	c-11.9-2.8-25.4-4.2-40.2-4.2c-35.3,0-65.8,8.1-66.1,8.1C96.5,283.5,95.7,283.6,94.9,283.6z"/>
<path class="st0" d="M94.9,386c-4.3,0-8.1-2.9-9.2-7.1c-1.4-5.1,1.7-10.3,6.7-11.7c1.3-0.4,33.4-8.8,70.8-8.8
	c16.3,0,31.4,1.6,44.8,4.7c2.5,0.6,4.6,2.1,5.9,4.3s1.8,4.7,1.2,7.2c-1,4.3-4.8,7.4-9.3,7.4c0,0,0,0,0,0c-0.7,0-1.4-0.1-2.2-0.2
	c-11.9-2.8-25.4-4.2-40.2-4.2c-35.3,0-65.8,8.1-66.1,8.1C96.5,385.9,95.7,386,94.9,386z"/>
<path class="st0" d="M94.9,334.8c-4.3,0-8.1-2.9-9.2-7.1c-1.4-5.1,1.7-10.3,6.7-11.7c1.3-0.4,32.9-8.8,70.8-8.8
	c16.3,0,31.4,1.6,44.8,4.7c2.5,0.6,4.6,2.1,5.9,4.3s1.8,4.7,1.2,7.2c-1,4.3-4.8,7.4-9.3,7.4h0c-0.7,0-1.5-0.1-2.2-0.3
	c-11.9-2.8-25.4-4.2-40.2-4.2c-35.3,0-65.8,8.1-66.1,8.1C96.5,334.7,95.7,334.8,94.9,334.8z"/>
</svg>
