<?xml version="1.0" encoding="UTF-8"?>
<svg width="58px" height="58px" viewBox="0 0 58 58" version="1.1" xmlns="http://www.w3.org/2000/svg" xmlns:xlink="http://www.w3.org/1999/xlink">
    <!-- Generator: sketchtool 53.2 (72643) - https://sketchapp.com -->
    <title>9AC4022B-92CE-4010-875B-8F15CBF83ECF</title>
    <desc>Created with sketchtool.</desc>
    <g id="01.-Home" stroke="none" stroke-width="1" fill="none" fill-rule="evenodd">
        <g id="SVG" transform="translate(-275.000000, -1049.000000)" fill="#026BB0" fill-rule="nonzero">
            <g id="fBookAlignments" transform="translate(275.000000, 1049.000000)">
                <path d="M12.5327598,2.0602749 C6.82922911,3.27881158 2.47295255,7.89652808 1.58852197,13.6613253 C0.769495232,18.9998289 0.359999969,24.3380963 0.359999969,29.6762824 C0.359999969,34.6290192 0.712494139,39.581821 1.41750943,44.5348122 C2.30844637,50.7939711 7.2729489,55.6856088 13.5445965,56.4839083 C18.5127266,57.1162859 23.4807206,57.432466 28.448668,57.432466 C33.6371688,57.432466 38.8257225,57.0875889 44.014431,56.3978142 C50.009423,55.600854 54.8204287,51.0545254 55.9549887,45.1141666 C56.9378893,39.9678544 57.4292969,34.8219897 57.4292969,29.6762824 C57.4292969,24.1464354 56.861781,18.616393 55.726636,13.0857994 C54.6142752,7.66621403 50.4228554,3.40518007 45.0223261,2.20370363 C39.497227,0.974516302 33.972823,0.359999969 28.448668,0.359999969 C23.1437185,0.359999969 17.8385486,0.926714206 12.5327598,2.0602749 Z" id="Rectangle" stroke="#026BB0" stroke-width="0.719999938" fill-opacity="0.05"></path>
                <g id="noun_Align-Left_1939056" transform="translate(14.059558, 15.869646)">
                    <path d="M14.5257813,12.325 L8.49921875,12.325 C6.35954682,12.325 4.625,10.5397354 4.625,8.3375 C4.625,6.13526456 6.35954682,4.35 8.49921875,4.35 L14.5257813,4.35 C16.6654532,4.35 18.4,6.13526456 18.4,8.3375 C18.4,10.5397354 16.6654532,12.325 14.5257813,12.325 L14.5257813,12.325 Z M8.49921875,5.23611111 C6.83502947,5.23611111 5.4859375,6.62465021 5.4859375,8.3375 C5.4859375,10.0503498 6.83502947,11.4388889 8.49921875,11.4388889 L14.5257813,11.4388889 C16.1899705,11.4388889 17.5390625,10.0503498 17.5390625,8.3375 C17.5390625,6.62465021 16.1899705,5.23611111 14.5257813,5.23611111 L8.49921875,5.23611111 Z" id="Shape"></path>
                    <path d="M27.5560483,23.2 L8.5189516,23.2 C6.36838151,23.2 4.625,21.4147354 4.625,19.2125 C4.625,17.0102646 6.36838151,15.225 8.5189516,15.225 L27.5560483,15.225 C28.9472232,15.225 30.2327219,15.9850132 30.9283094,17.21875 C31.6238969,18.4524868 31.6238969,19.9725132 30.9283094,21.20625 C30.2327219,22.4399868 28.9472232,23.2 27.5560483,23.2 L27.5560483,23.2 Z M8.5189516,16.1111111 C6.84628598,16.1111111 5.49032258,17.4996502 5.49032258,19.2125 C5.49032258,20.9253498 6.84628598,22.3138889 8.5189516,22.3138889 L27.5560483,22.3138889 C29.2287139,22.3138889 30.5846773,20.9253498 30.5846773,19.2125 C30.5846773,17.4996502 29.2287139,16.1111111 27.5560483,16.1111111 L8.5189516,16.1111111 Z" id="Shape"></path>
                    <path d="M1.225,27.55 C0.948857625,27.55 0.725,27.3510556 0.725,27.1056452 L0.725,0.444354839 C0.725,0.198944438 0.948857625,0 1.225,0 C1.50114237,0 1.725,0.198944438 1.725,0.444354839 L1.725,27.1056452 C1.725,27.3510556 1.50114237,27.55 1.225,27.55 Z" id="Path"></path>
                </g>
            </g>
        </g>
    </g>
</svg>