<?xml version="1.0" encoding="utf-8"?>
<!-- Generator: Adobe Illustrator 23.0.2, SVG Export Plug-In . SVG Version: 6.00 Build 0)  -->
<svg version="1.1" id="Ñëîé_1" xmlns="http://www.w3.org/2000/svg" xmlns:xlink="http://www.w3.org/1999/xlink" x="0px" y="0px"
	 viewBox="0 0 1601.3 1075.9" style="enable-background:new 0 0 1601.3 1075.9;" xml:space="preserve">
<style type="text/css">
	.st0{fill:#B8B8B8;}
	.st1{fill-rule:evenodd;clip-rule:evenodd;fill:#FFFFFF;}
</style>
<g>
	<g>
		<g>
			<path class="st0" d="M1247.3,1002.7H133.4c-53.1,0-96.4-43.2-96.4-96.4V96.4C37,43.2,80.2,0,133.4,0h1113.9
				c53.1,0,96.4,43.2,96.4,96.4v809.9C1343.7,959.4,1300.4,1002.7,1247.3,1002.7z M133.4,22.7c-40.6,0-73.7,33.1-73.7,73.7v809.9
				c0,40.6,33.1,73.7,73.7,73.7h1113.9c40.6,0,73.7-33.1,73.7-73.7V96.4c0-40.6-33.1-73.7-73.7-73.7H133.4z"/>
		</g>
		<g>
			<path class="st0" d="M1216.4,929.4H164.2c-29.7,0-53.9-24.2-53.9-53.9V127.1c0-29.7,24.2-53.9,53.9-53.9h1052.2
				c29.7,0,53.9,24.2,53.9,53.9v748.4C1270.3,905.2,1246.1,929.4,1216.4,929.4z M164.2,95.9c-17.2,0-31.2,14-31.2,31.2v748.4
				c0,17.2,14,31.2,31.2,31.2h1052.2c17.2,0,31.2-14,31.2-31.2V127.1c0-17.2-14-31.2-31.2-31.2H164.2z"/>
		</g>
		<g>
			<path class="st0" d="M1332.7,1075.9H48c-26.5,0-48-21.5-48-48s21.5-48,48-48h1284.7c26.5,0,48,21.5,48,48
				S1359.2,1075.9,1332.7,1075.9z M48,1002.6c-13.9,0-25.3,11.3-25.3,25.3s11.3,25.3,25.3,25.3h1284.7c14,0,25.3-11.3,25.3-25.3
				s-11.3-25.3-25.3-25.3H48z"/>
		</g>
		<g>
			<g>
				<path class="st0" d="M1073.7,388.5H908.1c-6.3,0-11.3-5.1-11.3-11.3V211.6c0-6.3,5.1-11.3,11.3-11.3h165.6
					c6.3,0,11.3,5.1,11.3,11.3v165.6C1085,383.4,1079.9,388.5,1073.7,388.5z M919.4,365.8h142.9V222.9H919.4V365.8z"/>
			</g>
			<g>
				<path class="st0" d="M788.8,303.7H532.3c-6.3,0-11.3-5.1-11.3-11.3s5.1-11.3,11.3-11.3h256.5c6.3,0,11.3,5.1,11.3,11.3
					S795.1,303.7,788.8,303.7z"/>
			</g>
			<g>
				<path class="st0" d="M788.8,367.5H341c-6.3,0-11.3-5.1-11.3-11.3s5.1-11.3,11.3-11.3h447.8c6.3,0,11.3,5.1,11.3,11.3
					S795.1,367.5,788.8,367.5z"/>
			</g>
			<g>
				<path class="st0" d="M973,350.7c-2.9,0-5.7-1.1-7.9-3.2l-31.5-30.8c-4.5-4.4-4.6-11.6-0.2-16c4.4-4.5,11.6-4.6,16-0.2l23.5,23
					l61.6-61.6c4.4-4.4,11.6-4.4,16,0c4.4,4.4,4.4,11.6,0,16l-69.5,69.5C978.8,349.6,975.9,350.7,973,350.7z"/>
			</g>
		</g>
		<g>
			<g>
				<path class="st0" d="M1073.7,629.4H908.1c-6.3,0-11.3-5.1-11.3-11.3V452.5c0-6.3,5.1-11.3,11.3-11.3h165.6
					c6.3,0,11.3,5.1,11.3,11.3v165.6C1085,624.4,1079.9,629.4,1073.7,629.4z M919.4,606.8h142.9V463.8H919.4V606.8z"/>
			</g>
			<g>
				<path class="st0" d="M788.8,544.7H532.3c-6.3,0-11.3-5.1-11.3-11.3c0-6.3,5.1-11.3,11.3-11.3h256.5c6.3,0,11.3,5.1,11.3,11.3
					C800.2,539.6,795.1,544.7,788.8,544.7z"/>
			</g>
			<g>
				<path class="st0" d="M788.8,608.5H341c-6.3,0-11.3-5.1-11.3-11.3s5.1-11.3,11.3-11.3h447.8c6.3,0,11.3,5.1,11.3,11.3
					S795.1,608.5,788.8,608.5z"/>
			</g>
			<g>
				<path class="st0" d="M973,591.6c-2.9,0-5.7-1.1-7.9-3.2l-31.5-30.8c-4.5-4.4-4.6-11.6-0.2-16c4.4-4.5,11.6-4.6,16-0.2l23.5,23
					l61.6-61.6c4.4-4.4,11.6-4.4,16,0c4.4,4.4,4.4,11.6,0,16l-69.5,69.5C978.8,590.5,975.9,591.6,973,591.6z"/>
			</g>
		</g>
		<g>
			<g>
				<path class="st0" d="M1073.7,870.4H908.1c-6.3,0-11.3-5.1-11.3-11.3V693.4c0-6.3,5.1-11.3,11.3-11.3h165.6
					c6.3,0,11.3,5.1,11.3,11.3V859C1085,865.3,1079.9,870.4,1073.7,870.4z M919.4,847.7h142.9V704.8H919.4V847.7z"/>
			</g>
			<g>
				<path class="st0" d="M788.8,785.6H532.3c-6.3,0-11.3-5.1-11.3-11.3s5.1-11.3,11.3-11.3h256.5c6.3,0,11.3,5.1,11.3,11.3
					S795.1,785.6,788.8,785.6z"/>
			</g>
			<g>
				<path class="st0" d="M788.8,849.4H341c-6.3,0-11.3-5.1-11.3-11.3s5.1-11.3,11.3-11.3h447.8c6.3,0,11.3,5.1,11.3,11.3
					S795.1,849.4,788.8,849.4z"/>
			</g>
		</g>
		<g>
			<g>
				<path class="st1" d="M1572.7,357.7L1572.7,357.7c-20.1-21.5-54.2-22.7-75.7-2.6l-281,262.4l73.1,78.3l281-262.4
					C1591.6,413.4,1592.8,379.3,1572.7,357.7z"/>
				<path class="st0" d="M1289.1,710c-3.8,0-7.6-1.5-10.4-4.5l-73.1-78.3c-2.6-2.7-3.9-6.4-3.8-10.2s1.7-7.3,4.5-9.9l281-262.4
					c13.2-12.3,30.4-18.8,48.6-18.1c18.1,0.6,34.9,8.2,47.2,21.4c25.5,27.3,24,70.3-3.3,95.8l-281,262.4
					C1296.1,708.8,1292.6,710,1289.1,710z M1236,618.2l53.8,57.6l270.6-252.7c15.9-14.8,16.7-39.8,1.9-55.7
					c-7.1-7.7-16.9-12.1-27.5-12.4c-10.5-0.4-20.6,3.4-28.2,10.5L1236,618.2z"/>
			</g>
			<g>
				<polygon class="st1" points="1289.1,695.8 1110.2,789.6 1216,617.5 				"/>
				<path class="st0" d="M1110.2,803.8c-3.8,0-7.6-1.6-10.4-4.5c-4.4-4.7-5.1-11.7-1.7-17.1l105.8-172.1c2.3-3.8,6.3-6.2,10.7-6.7
					c4.4-0.4,8.8,1.2,11.8,4.4l73.1,78.3c3,3.2,4.4,7.7,3.6,12c-0.7,4.4-3.5,8.1-7.4,10.2l-178.9,93.7
					C1114.7,803.2,1112.5,803.8,1110.2,803.8z M1218.3,640.8l-69.1,112.4l116.8-61.2L1218.3,640.8z"/>
			</g>
			<g>
				<path class="st0" d="M1510.6,503.2c-3.8,0-7.6-1.5-10.4-4.5l-73.1-78.3c-5.3-5.7-5-14.7,0.7-20c5.7-5.3,14.7-5,20,0.7l73.1,78.3
					c5.3,5.7,5,14.7-0.7,20C1517.5,502,1514.1,503.2,1510.6,503.2z"/>
			</g>
		</g>
	</g>
</g>
</svg>
