<?xml version="1.0" encoding="utf-8"?>
<!-- Generator: Adobe Illustrator 21.1.0, SVG Export Plug-In . SVG Version: 6.00 Build 0)  -->
<svg version="1.1" id="_x2014_ÎÓÈ_x5F_1" xmlns="http://www.w3.org/2000/svg" xmlns:xlink="http://www.w3.org/1999/xlink"
	 x="0px" y="0px" viewBox="0 0 617.2 695.5342" style="enable-background:new 0 0 617.2 695.5342;" xml:space="preserve">
<style type="text/css">
	.st0{fill:#EAEAEA;}
	.st1{fill:#1F2C3F;}
	.st2{fill:#39465B;}
	.st3{fill:#232020;}
	.st4{fill:#161414;}
	.st5{fill:#131F2D;}
	.st6{fill:#273044;}
	.st7{fill:#172435;}
	.st8{fill:#3D94C4;}
	.st9{fill:#3C7EBA;}
	.st10{fill:#2D69A0;}
	.st11{fill:#4CAAD3;}
	.st12{fill:#255F8E;}
	.st13{fill:#2E3A4F;}
	.st14{fill:#1B2535;}
	.st15{fill:#1D2B3F;}
	.st16{fill:#2D3B51;}
	.st17{fill:#58BDE0;}
	.st18{fill:#46546B;}
	.st19{fill:#495E7C;}
	.st20{fill:#443B3B;}
	.st21{fill:#5EC8E5;}
	.st22{fill:#E8E8E8;}
	.st23{fill:#FFFFFF;}
	.st24{fill:#204582;}
	.st25{fill:#DA0500;}
</style>
<g>
	<ellipse class="st0" cx="322.1" cy="652.5342" rx="295.1" ry="43"/>
	<g>
		<g>
			<g>
				<path class="st1" d="M471.7,388.7343c-4.9,0,5.1-2.9,5-7.8c-0.2-14.7-1-43.5-2.8-68.9c-0.1-1.1-2.2-27.1-24.5-33.2
					c-19.5-5.3-55.3-6.3-106.4-2.9c-4.9,0.3-8.8,1.5-9.2-3.4l-10.1,5.3c0.4-10.8,13.2-19.5,18.1-19.8c53.8-3.5,90.6-2.4,112.3,3.5
					c27.5,7.5,36.6,34.5,37.7,49.2c1.8,25.7,4.1,58.9,2.9,73.9c-0.8,10.1-13.7,15.3-18.8,15.3L471.7,388.7343z"/>
			</g>
			<g>
				<path class="st2" d="M476,400.0342c-4.9,0-8.9-3.9-9-8.9c-0.2-14.7-1-43.5-2.8-68.9c-0.1-1.1-2.2-27.1-24.5-33.2
					c-19.5-5.3-55.3-6.3-106.4-2.9c-4.9,0.3-9.2-3.4-9.6-8.3l0,0c-0.4-5,3.4-9.3,8.4-9.6c53.8-3.5,90.6-2.4,112.3,3.5
					c27.5,7.5,36.6,34.5,37.7,49.2c1.8,25.7,2.6,54.9,2.8,69.9C485.1,395.9343,481,400.0342,476,400.0342L476,400.0342z"/>
			</g>
		</g>
		<g>
			<path class="st3" d="M173.4,485.3342l-4.5-4.1c8.1-9,42.4-30.7,43.9-31.6l0.7-0.4l86.6-3.7l0.3,6.1l-85,3.6
				C210.4,458.3342,180.4,477.6343,173.4,485.3342z"/>
		</g>
		
			<ellipse transform="matrix(0.7816 -0.6238 0.6238 0.7816 -258.9738 215.6786)" class="st4" cx="178.509" cy="477.6621" rx="18.0002" ry="6.6001"/>
		<rect x="314.2" y="451.0342" class="st5" width="11" height="32.9"/>
		<polygon class="st6" points="205.3,414.1343 320.3,464.4343 426.2,413.4343 		"/>
		<path class="st7" d="M291.4,434.7343l91-0.3l43.7-21l-220.9,0.7l115,50.3l2.8-1.4l-33-21.9
			C286.8,439.7343,287.8,434.8342,291.4,434.7343z"/>
		<path class="st8" d="M91.4,18.4342c10.4-10.8,40.3-14.4,101.3-15.1c120.1-1.4,126.9,26.4,129.8,52.5
			c11.8,105.5,37.5,164.3,46.7,224c6,38.9,0.3,77,0.3,77s-9.6,0.8-20.3,1.6c-13.5,1-20.3,1.6-30,1.6
			c-41.7,0.2-156.3,46.2-186.6,13.8c-11.1-11.9-4.8-30.7-5.7-45.4C118,177.6342,71.1,39.5342,91.4,18.4342z"/>
		<path class="st8" d="M151.1,417.5342c3.6,9.6,270.2,20.1,365.8-19.1c11.1-4.6,8.4-43.1-7.4-43c-6.4,0-161.9,27.4-281.8,16.8
			C206.5,370.4343,146.4,405.1343,151.1,417.5342z"/>
		<path class="st9" d="M230.7,284.3343c0,0-13.4,0.6-19.5-0.7c-9.9-2.2-21.2-9-27.8-29.4c-2-6.3-5.3-25.2-5.3-25.2
			s1.7,17.6,1.1,23.7c-1.9,19.7-3.3,26.3-17.7,35.1c-2,1.2-14.9,3.1-14.9,3.1s13-1.2,16.3,0.3c9.1,4,19.2,17.8,22.3,27.2
			c1.9,5.8,5.2,28.7,5.2,28.7s-0.1-22.7,1.2-29.2c1.9-9.5,10.6-24.9,18.7-30.1C215.7,284.2343,230.7,284.3343,230.7,284.3343z"/>
		<path class="st9" d="M339,275.8343c0,0-13.4,1-19.6-0.2c-10-2-21.5-8.4-28.7-28.5c-2.2-6.2-6-25-6-25s2.2,17.5,1.8,23.7
			c-1.4,19.7-2.6,26.4-16.7,35.6c-2,1.3-14.8,3.5-14.8,3.5s13-1.5,16.3-0.2c9.2,3.7,19.7,17.2,23,26.6c2.1,5.8,6,28.6,6,28.6
			s-0.7-22.7,0.4-29.2c1.7-9.5,9.9-25.2,17.9-30.7C323.9,276.1342,339,275.8343,339,275.8343z"/>
		<path class="st9" d="M322.1,137.5342c0,0-13.4,0.1-19.5-1.6c-9.8-2.7-19.7-9.9-25.5-30.5c-1.8-6.3-2.5-26.2-2.5-26.2
			s0.3,18.5-0.6,24.6c-2.8,19.6-6.6,26-21.4,34.2c-2.1,1.1-15,1.3-15,1.3s13,0.5,16.3,2c8.9,4.4,18.4,18.6,21.1,28.2
			c1.7,5.9,3.9,28.9,3.9,28.9s0.9-22.7,2.5-29.1c2.3-9.4,11.7-24.4,20-29.3C307.1,136.8342,322.1,137.5342,322.1,137.5342z"/>
		<path class="st10" d="M295.8,304.9343c-5-7.7-11-14.7-17.8-20.9c5.5-7.4,10-15.5,13.5-24c4.2,5.7,9.1,11,14.5,15.7l5.3,4.6
			C305.1,287.9343,299.9,296.1342,295.8,304.9343z"/>
		<path class="st9" d="M514.8,387.7343c2.7,2,3.9,5.3,5.4,8c7.1-10,3.4-40.3-10.6-40.2c-2.2,0-104.8,16.3-134.5,20.1
			C383.1,376.4343,485.8,365.7343,514.8,387.7343z"/>
		<path class="st10" d="M187.9,309.0342c-4.3-7.1-9.5-13.5-15.4-19.3c5.1-6.5,9.4-13.6,12.8-21.2c3.6,5.3,7.9,10.1,12.6,14.5
			l4.7,4.3C196.8,294.0342,191.9,301.2343,187.9,309.0342z"/>
		<path class="st10" d="M276.7,161.3342c-3.8-7.3-8.5-14.2-14-20.3c5.6-6.2,10.3-13,14.3-20.3c3.3,5.5,7.1,10.7,11.6,15.3l4.3,4.6
			C286.5,146.9342,281.1,153.8342,276.7,161.3342z"/>
		<path class="st11" d="M120.7,374.9343c0-2,16-3.5,84.6-8.5c89.4-6.5,122.8-7.9,164.3-9.5c13.2-0.5,37.8-1.9,60.2-2
			c12.6,0,79.5-3.4,79.7,0.6c0.2,4.5-84.4,15.5-121.7,18.9c-80,7.2-137.9,4.5-206.3,1.2C170,375.0342,120.7,378.3342,120.7,374.9343
			z"/>
		<ellipse class="st12" cx="273.5" cy="141.6342" rx="6.5" ry="8.5"/>
		
			<ellipse transform="matrix(0.9999 -0.016 0.016 0.9999 -4.5623 3.0014)" class="st12" cx="185.3078" cy="286.6484" rx="6.5002" ry="8.5002"/>
		
			<ellipse transform="matrix(0.9999 -0.016 0.016 0.9999 -4.4877 4.724)" class="st12" cx="293.0109" cy="282.8484" rx="6.5002" ry="8.5002"/>
		<ellipse class="st8" cx="276.3" cy="141.6342" rx="6.5" ry="8.5"/>
		
			<ellipse transform="matrix(0.9999 -0.016 0.016 0.9999 -4.5619 3.0462)" class="st8" cx="188.108" cy="286.6484" rx="6.5002" ry="8.5002"/>
		
			<ellipse transform="matrix(0.9999 -0.016 0.016 0.9999 -4.4873 4.7688)" class="st8" cx="295.811" cy="282.8484" rx="6.5002" ry="8.5002"/>
		<path class="st13" d="M138.3,651.3342c0-7.4-1-13.4-0.3-22.9c0.6-7.3,0.2-15.2,1.9-20.1c10-30,175.2-53.8,179.3-47.4
			c3.8,5.9-5.1,31.1-5.1,31.1s-125.6,5-153.5,28c-4.9,4.1-0.6,23.2-2.9,31.6C154.1,665.1343,138.3,660.8342,138.3,651.3342z"/>
		<path class="st4" d="M130.6,659.0342L130.6,659.0342c-4.2,0-7.7-3.5-7.7-7.7v-18.7c0-4.2,3.5-7.7,7.7-7.7l0,0
			c4.2,0,7.7,3.5,7.7,7.7v18.7C138.3,652.9343,134.8,659.0342,130.6,659.0342z"/>
		<path class="st13" d="M501,651.3342c0-7.4,1-13.4,0.3-22.9c-0.6-7.3-0.2-15.2-1.9-20.1c-10-30-175.2-53.8-179.3-47.4
			c-3.8,5.9,5.1,31.1,5.1,31.1s125.6,5,153.5,28c4.9,4.1,0.6,23.2,2.9,31.6C485.2,665.1343,501,660.8342,501,651.3342z"/>
		<path class="st4" d="M508.7,659.0342L508.7,659.0342c4.2,0,7.7-3.5,7.7-7.7v-18.7c0-4.2-3.5-7.7-7.7-7.7l0,0
			c-4.2,0-7.7,3.5-7.7,7.7v18.7C501,652.9343,504.5,659.0342,508.7,659.0342z"/>
		<path class="st14" d="M157.8,613.2343c-3.1,3.3-4.7,6.3-5.3,15.1c-0.4,6.3,5.3,26.6-10,30.3c5,3.2,12.9,2.1,15.3-7
			c2.3-8.4-2-27.5,2.9-31.6c27.9-23,153.5-28,153.5-28s1.4-4.1,2.9-9.4c-17.4,0.5-32.5,1.6-44.9,2.9
			C202.9,592.3342,162.4,608.4343,157.8,613.2343z"/>
		<path class="st14" d="M487.6,629.2343c-0.6-8.8-2.2-11.8-5.3-15.1c-4.6-4.8-45.1-20.9-114.4-27.9c-12.5-1.3-27.9-2.4-45.5-2.9
			c1.4,4.9,2.7,8.7,2.7,8.7s125.6,5,153.5,28c4.9,4.1,0.6,23.2,2.9,31.6c2.3,8.6,9.5,10,14.5,7.5
			C482.6,654.4343,487.9,635.3342,487.6,629.2343z"/>
		<path class="st15" d="M319.7,561.7343c-0.1-0.3-0.2-0.6-0.4-0.9c-1.1-1.7-12.9-1.3-30,0.7c2.4,1.9,4.9,4.4,7,7.6
			c2.6,3.9,3.6,7.4,4.9,11.9c0.9,3,1.8,6.9,2.4,11.6c6.7-0.4,10.7-0.5,10.7-0.5s4-11.4,5.5-20.7
			C319,567.4343,318.9,563.8342,319.7,561.7343z"/>
		<path class="st15" d="M343.1,569.1343c2.1-3.2,4.6-5.7,7-7.6c-17.1-2-28.9-2.3-30-0.7c-0.2,0.2-0.3,0.5-0.4,0.9
			c0.8,2.1,0.6,5.7,0,9.6c1.5,9.3,5.5,20.7,5.5,20.7s4,0.2,10.7,0.5c0.6-4.7,1.5-8.6,2.4-11.6
			C339.5,576.5342,340.5,573.0342,343.1,569.1343z"/>
		<path class="st4" d="M300.4,679.8342L300.4,679.8342c-4.2,0-7.7-3.5-7.7-7.7v-18.7c0-4.2,3.5-7.7,7.7-7.7l0,0
			c4.2,0,7.7,3.5,7.7,7.7v18.7C308.1,673.7343,304.6,679.8342,300.4,679.8342z"/>
		<rect x="304" y="474.7343" class="st6" width="31.3" height="28.6"/>
		<rect x="323.3" y="474.7343" class="st14" width="12" height="28.6"/>
		<rect x="304" y="492.1343" class="st5" width="31.3" height="11.3"/>
		<path class="st2" d="M321.9,680.5342h-4.6c-5.8,0-10.5-4.7-10.5-10.5v-102.1c0-5.8,4.7-10.5,10.5-10.5h4.6
			c5.8,0,10.5,4.7,10.5,10.5v102.1C332.4,675.7343,327.7,680.5342,321.9,680.5342z"/>
		<path class="st16" d="M322.5,557.7343c1.4,2,1.8,4.5,1.8,7.1v97.6c0,7-5.5,12.8-12.5,12.8c-1,0-1.9-0.1-2.9-0.4
			c2.3,3.4,6.4,5.6,10.8,5.6c7,0,13.6-6.8,13.6-13.9v-94.7999C333.3,565.6343,328.1,559.1343,322.5,557.7343z"/>
		<path class="st17" d="M84.8,33.9342c-5.4,28.7,17.2,290.5,24.2,360.3c1.2,12.1,9.9,22.1,21.8,24.8
			c46.8,10.9,151.4,20.7,151.4-16.6c0-31.6-89-31-127.9-28.2c-8.7,0.6-16.2-6.1-16.4-14.8c-1.9-61.3-18.3-274.1-27.1-327.1
			C108.3,17.6342,90.4,3.9342,84.8,33.9342z"/>
		<path class="st5" d="M338.6,568.5342h-37.8c-1.7,0-3-1.4-3-3v-32.8c0-1.7,1.4-3,3-3h37.8c1.7,0,3,1.4,3,3v32.8
			C341.6,567.1343,340.2,568.5342,338.6,568.5342z"/>
		<path class="st9" d="M215,139.1342c0,0-13.4-0.4-19.4-2.3c-9.7-3-19.3-10.6-24.4-31.4c-1.5-6.4-1.5-26.3-1.5-26.3
			s-0.4,18.5-1.4,24.6c-3.5,19.5-7.6,25.8-22.6,33.5c-2.1,1.1-15.1,1.9-15.1,1.9s13.1-0.2,16.2,1.5c8.8,4.7,17.7,19.2,20.1,28.9
			c1.4,5.9,6.4,29.1,6.4,29.1s-0.2-22.9,1.7-29.3c2.7-9.3,10.9-23.8,19.4-28.4C200.1,137.8342,215,139.1342,215,139.1342z"/>
		<circle class="st11" cx="276.9" cy="139.1342" r="3.6"/>
		<path class="st10" d="M169.6,159.1342c-3.8-7.3-8.5-14.2-14-20.3c5.6-6.2,10.3-13,14.2-20.3c3.3,5.5,7.1,10.7,11.6,15.3l4.3,4.6
			C179.4,144.7342,174,151.6342,169.6,159.1342z"/>
		<ellipse class="st12" cx="165.8" cy="138.8342" rx="6.5" ry="8.5"/>
		<ellipse class="st8" cx="168.6" cy="138.8342" rx="6.5" ry="8.5"/>
		<circle class="st11" cx="169.7" cy="135.5342" r="3.6"/>
		<circle class="st11" cx="296.3" cy="280.3343" r="3.6"/>
		<circle class="st11" cx="188.1" cy="283.9343" r="3.6"/>
		<path class="st6" d="M338.6,563.8342h-37.8c-1.7,0-3-1.4-3-3v-61.3c0-1.7,1.4-3,3-3h37.8c1.7,0,3,1.4,3,3v61.3
			C341.6,562.4343,340.2,563.8342,338.6,563.8342z"/>
		<path class="st14" d="M338.6,563.8342h-15.3v-67.3h15.3c1.7,0,3,1.4,3,3v61.3C341.6,562.4343,340.2,563.8342,338.6,563.8342z"/>
		<path class="st18" d="M308.1,555.8342h-1.7c-2.2,0-4-1.8-4-4v-44.5c0-2.2,1.8-4,4-4h1.7c2.2,0,4,1.8,4,4v44.5
			C312.1,554.0342,310.3,555.8342,308.1,555.8342z"/>
		<path class="st19" d="M314.3,669.8342h-1.1c-1.3,0-2.3-1.1-2.3-2.3v-92.9c0-1.3,1.1-2.3,2.3-2.3h1.1c1.3,0,2.3,1.1,2.3,2.3v92.9
			C316.6,668.7343,315.6,669.8342,314.3,669.8342z"/>
		<path class="st19" d="M143.2,652.5342h-0.8c-1,0-1.8-0.8-1.8-1.8l0.5-30.6c0-1,0.8-1.8,1.8-1.8h0.8c1,0,1.8,0.8,1.8,1.8l-0.5,30.6
			C145,651.8342,144.2,652.6343,143.2,652.5342z"/>
		<path class="st18" d="M310.1,487.4343h-0.9c-1.1,0-2-0.9-2-2v-3.5c0-1.1,0.9-2,2-2h0.9c1.1,0,2,0.9,2,2v3.5
			C312.1,486.5342,311.2,487.4343,310.1,487.4343z"/>
		<g>
			<path class="st19" d="M153.7,601.0342L153.7,601.0342c-0.5-1.2,0-2.7,1.2-3.2c21.4-9.3,43.7-16.7,66.3-21.9
				c19.5-4.5,39.6-7.4,59.7-8.8c1.3-0.1,2.5,0.9,2.6,2.3l0,0c0.1,1.3-0.9,2.5-2.3,2.6c-19.8,1.3-39.6,4.2-58.9,8.7
				c-22.4,5.1-44.4,12.4-65.5,21.6C155.7,602.8342,154.3,602.2343,153.7,601.0342z"/>
		</g>
		<path class="st19" d="M496.1,652.5342h0.8c1,0,1.8-0.8,1.8-1.8l-0.5-30.6c0-1-0.8-1.8-1.8-1.8h-0.8c-1,0-1.8,0.8-1.8,1.8l0.5,30.6
			C494.3,651.8342,495.1,652.6343,496.1,652.5342z"/>
		<g>
			<path class="st19" d="M485.6,601.0342L485.6,601.0342c0.5-1.2,0-2.7-1.2-3.2c-21.4-9.3-43.7-16.7-66.3-21.9
				c-19.5-4.5-39.6-7.4-59.7-8.8c-1.3-0.1-2.5,0.9-2.6,2.3l0,0c-0.1,1.3,0.9,2.5,2.3,2.6c19.8,1.3,39.6,4.2,58.9,8.7
				c22.4,5.1,44.4,12.4,65.5,21.6C483.6,602.8342,485,602.2343,485.6,601.0342z"/>
		</g>
		<path class="st20" d="M126.3,654.1343h-0.6c-0.8,0-1.4-0.6-1.4-1.4v-21.5c0-0.8,0.6-1.4,1.4-1.4h0.6c0.8,0,1.4,0.6,1.4,1.4v21.5
			C127.7,653.4343,127,654.1343,126.3,654.1343z"/>
		<path class="st20" d="M296.8,675.1343h-0.6c-0.8,0-1.4-0.6-1.4-1.4v-21.5c0-0.8,0.6-1.4,1.4-1.4h0.6c0.8,0,1.4,0.6,1.4,1.4v21.5
			C298.2,674.4343,297.6,675.1343,296.8,675.1343z"/>
		<path class="st20" d="M505.3,653.4343h-0.6c-0.8,0-1.4-0.6-1.4-1.4v-21.5c0-0.8,0.6-1.4,1.4-1.4h0.6c0.8,0,1.4,0.6,1.4,1.4v21.5
			C506.7,652.8342,506,653.4343,505.3,653.4343z"/>
		<path class="st11" d="M221.7,149.8342c-1.1-3-12.1-3-20.7,1.2c-8,4-11.9,10.7-14,14.6c-9.5,17.3-7,38-4.3,38.3
			c2.4,0.3,1.8-16.1,14.6-32.3C208.9,157.1342,223,153.3342,221.7,149.8342z"/>
		<path class="st11" d="M226.6,297.6343c-1.1-1.9-11.6,0.1-18.9,6.7c-13.4,12.1-10.6,34.9-8.5,35.3c1.5,0.3,2-10.1,11-23.1
			C218.6,304.2343,227.7,299.5342,226.6,297.6343z"/>
		<path class="st11" d="M321.5,143.1342c-0.7-1.5-11.7,0.2-20.1,7.3c-11.9,10.1-13.8,27.3-12.2,28c1.2,0.5,3.8-8.5,14-19.5
			C313.2,148.1342,322.2,144.5342,321.5,143.1342z"/>
		<path class="st11" d="M339.7,283.6342c-1-1.8-10.7,0.1-17.6,6.1c-5.8,5-7.8,11.1-9.7,17c-3,9.2-3.8,19.1-2.4,19.5
			c1.6,0.4,3.2-12.3,13.4-25.6C331.9,289.5342,340.7,285.4343,339.7,283.6342z"/>
		<path class="st11" d="M126.6,19.2342c-3.7,0.5-6.2,4.1-5.3,7.7c0.4,1.9,1,4.1,1.8,6.6c6.9,21.9,4.5,62.5,7.4,63.1
			c2.5,0.5,2-35.3,7.8-44.8c19.9-32.9,81-33,76.7-34.7C198.2,10.6342,145.2,16.8342,126.6,19.2342z"/>
		<path class="st21" d="M282.2,402.4343c0-20.3-36.6-27.3-73.1-29c20.8,6.5,36.6,14.9,41.2,25.2c2.9,6.5,4.9,12.3,4.9,15.8
			c0,3.9-1.3,7.8-3.5,11.6C269.8,422.5342,282.2,415.3342,282.2,402.4343z"/>
		<path class="st17" d="M249.9,378.3342c0,0,4.1,0,11.2-0.2s17.4-0.5,29.6-1s26.5-1,41.8-1.6c7.6-0.3,15.6-0.7,23.6-1
			c4-0.2,8-0.4,12.1-0.8c4.1-0.3,8.1-0.7,12.2-1c8.1-0.7,16.3-1.3,24.3-2s15.9-1.3,23.5-2.1c7.6-0.7,15-1.5,21.9-2.3
			c3.5-0.4,6.9-0.8,10.1-1.2c3.3-0.5,6.4-0.9,9.4-1.3c6-0.9,11.6-1.8,16.5-2.8c2.4-0.5,4.7-0.9,6.8-1.4s4-0.9,5.8-1.3
			c1.7-0.4,3.3-0.8,4.6-1.2s2.5-0.7,3.4-0.9c1.8-0.5,2.8-0.8,2.8-0.8s-1,0.4-2.8,1c-0.9,0.3-2,0.7-3.3,1.2c-1.3,0.4-2.8,0.9-4.6,1.5
			c-1.7,0.6-3.6,1.1-5.7,1.7c-2.1,0.6-4.3,1.2-6.8,1.8c-2.4,0.6-5,1.2-7.8,1.8c-2.7,0.6-5.6,1.1-8.6,1.7c-3,0.6-6.2,1.1-9.4,1.7
			c-3.3,0.5-6.7,1-10.1,1.5c-7,1-14.3,1.9-22,2.7c-7.6,0.8-15.5,1.6-23.5,2.3s-16.2,1.3-24.3,1.9c-4.1,0.3-8.2,0.5-12.2,0.8
			c-4.1,0.3-8.2,0.5-12.2,0.6c-8.1,0.3-16,0.5-23.6,0.6c-7.7,0.2-15.1,0.3-22.1,0.4c-7,0.1-13.7,0.2-19.8,0.2
			c-12.3,0-22.5,0-29.6-0.1C253.9,378.6343,249.9,378.3342,249.9,378.3342z"/>
		<g>
			<g>
				<path class="st14" d="M250.3,388.5342c-4.9,0,5.1-2.9,5-7.8c-0.2-14.7-1-43.5-2.8-68.9c-0.1-1.1-2.2-27.1-24.5-33.2
					c-19.5-5.3-55.3-6.3-106.4-2.9c-4.9,0.3-8.8,1.5-9.2-3.4l-10.1,5.3c0.4-10.8,13.2-19.5,18.1-19.8c53.8-3.5,90.6-2.4,112.3,3.5
					c27.5,7.5,36.6,34.5,37.7,49.2c1.8,25.7,4.1,58.9,2.9,73.9c-0.8,10.1-13.7,15.3-18.8,15.3L250.3,388.5342z"/>
			</g>
			<g>
				<path class="st2" d="M254.6,399.8342c-4.9,0-8.9-3.9-9-8.9c-0.2-14.7-1-43.5-2.8-68.9c-0.1-1.1-2.2-27.1-24.5-33.2
					c-19.5-5.3-55.3-6.3-106.4-2.9c-4.9,0.3-9.2-3.4-9.6-8.3l0,0c-0.4-5,3.4-9.3,8.4-9.6c53.8-3.5,90.6-2.4,112.3,3.5
					c27.5,7.5,36.6,34.5,37.7,49.2c1.8,25.7,2.6,54.9,2.8,69.9C263.7,395.7343,259.6,399.8342,254.6,399.8342L254.6,399.8342z"/>
			</g>
		</g>
		<path class="st11" d="M138,151.6342c0,0,0.4,1.5,0.9,4.2c0.3,1.3,0.6,2.9,1,4.8c0.4,1.8,0.8,3.9,1.2,6.2c0.8,4.5,1.8,9.8,2.6,15.6
			c0.4,2.9,0.8,5.8,1.2,8.8s0.7,6.1,1,9.2s0.5,6.2,0.7,9.2s0.3,6,0.4,8.9c0.2,5.8,0.2,11.2,0.1,15.8c-0.1,4.6-0.1,8.5-0.2,11.2
			c-0.1,2.7-0.2,4.3-0.2,4.3s-0.1-0.4-0.3-1.1s-0.5-1.7-0.7-3.1c-0.3-1.3-0.6-2.9-1-4.8c-0.3-1.9-0.7-4-1.1-6.2
			c-0.7-4.6-1.4-9.9-2-15.7c-0.3-2.9-0.6-5.8-0.9-8.8c-0.3-3-0.6-6-0.8-9.1c-0.3-3-0.5-6.1-0.8-9.1s-0.5-6-0.7-8.8
			c-0.4-5.8-0.7-11.1-0.8-15.8c-0.1-2.3,0-4.4,0-6.3s0.1-3.5,0.1-4.9s0.1-2.4,0.2-3.1C138,152.0342,138,151.6342,138,151.6342z"/>
		<path class="st11" d="M148,290.1342c0,0,0.3,0.9,0.7,2.4s0.9,3.8,1.4,6.4c0.5,2.7,1,5.8,1.4,9.1c0.2,1.7,0.4,3.4,0.6,5.1
			c0.2,1.7,0.3,3.6,0.4,5.3c0.1,1.8,0.3,3.6,0.4,5.3c0.1,1.8,0.2,3.5,0.2,5.2c0.1,3.3,0.1,6.5,0,9.2s-0.2,4.9-0.4,6.5
			c-0.1,1.6-0.3,2.5-0.3,2.5s-0.3-0.9-0.7-2.4c-0.4-1.5-1-3.8-1.5-6.4c-0.5-2.7-1.1-5.8-1.6-9.1c-0.2-1.7-0.5-3.4-0.7-5.1
			c-0.2-1.8-0.4-3.5-0.5-5.3s-0.2-3.6-0.3-5.3c-0.1-1.8-0.1-3.5-0.2-5.2c-0.1-3.3,0-6.5,0.1-9.2s0.3-4.9,0.5-6.5
			C147.8,291.0342,148,290.1342,148,290.1342z"/>
		<g>
			<polygon class="st22" points="204.5,309.0342 0,274.1342 27.7,120.4342 232.2,155.3342 			"/>
			<g>
				
					<ellipse transform="matrix(0.3359 -0.9419 0.9419 0.3359 -85.1749 155.7438)" class="st23" cx="67.8587" cy="138.2739" rx="5.4" ry="5.4"/>
				<ellipse transform="matrix(1 -0.0044 0.0044 1 -0.7005 0.8503)" class="st8" cx="192.9028" cy="159.6379" rx="5.4" ry="5.4"/>
			</g>
		</g>
		<path class="st24" d="M79.4,82.1342c-4.6,17.8-9.2,36.1-13.5,53.1c-0.3,1.1,0.4,2.2,1.5,2.4l0,0c1.1,0.3,2.2-0.4,2.4-1.4
			c4.3-16.9,8.9-35.2,13.5-53.1c1.3-5.1,0.1-0.6,1.3-5.1c0-4.8,0.1-11.2-0.5-14.1C82.3,70.8342,81.5,74.1342,79.4,82.1342z"/>
		<path class="st24" d="M103.6,11.4342c4-6.1,7.4-8.3,13.2-10.2c0.2-0.1,5.4-1.7,11.3-1.1c35.9,3.7,59.2,109.2,67.9,156.7
			c0.2,1.1-0.5,2.1-1.6,2.3l0,0c-1.1,0.2-2.1-0.5-2.3-1.6c-6.9-37.7-30.3-149.9-64.4-153.4c-5.1-0.5-9.6,0.9-9.7,0.9
			c-3.8,1.2-4.2,1.4-7.4,4.4L103.6,11.4342z"/>
		<path class="st21" d="M104,30.9342c2.5-0.2,4.8,0.5,6.7,1.6c0-0.1,0-0.1,0-0.2c-2.4-14.8-20.3-28.4-26,1.6
			c-0.9,4.6-1,15.1-0.6,29.7c1.6-9.4,4.2-18.3,8.2-24C94.4,36.7342,98.1,31.4342,104,30.9342z"/>
	</g>
</g>
<g>
	<path class="st25" d="M115.8,164.0342c-29.6,0-53.6,24-53.6,53.6s24,53.6,53.6,53.6s53.6-24,53.6-53.6
		C169.4,187.9342,145.4,164.0342,115.8,164.0342z M115.8,256.4343c-21.5,0-38.9-17.4-38.9-38.9s17.4-38.9,38.9-38.9
		s38.9,17.4,38.9,38.9C154.7,239.0342,137.3,256.4343,115.8,256.4343z"/>
	<path class="st25" d="M150.2,176.4342l-78.2,71.8c2.7,3.9,5.9,7.4,9.5,10.4l78.2-71.8C157,182.9342,153.8,179.5342,150.2,176.4342z
		"/>
</g>
</svg>
