<?xml version="1.0" encoding="utf-8"?>
<!-- Generator: Adobe Illustrator 23.0.2, SVG Export Plug-In . SVG Version: 6.00 Build 0)  -->
<svg version="1.1" id="Layer_1" xmlns="http://www.w3.org/2000/svg" xmlns:xlink="http://www.w3.org/1999/xlink" x="0px" y="0px"
	 viewBox="0 0 428.6 413.3" style="enable-background:new 0 0 428.6 413.3;" xml:space="preserve">
<style type="text/css">
	.st0{fill:#78B517;}
</style>
<path class="st0" d="M428.6,248c0-12.3-5-23.9-13.6-32.2c6.1-7.8,9.5-17.3,9.6-27.5c0.1-11.7-4.6-22.8-13.1-31.4
	c-8.9-8.9-21-14-33.4-14h-97.2l6.3-40.6c0.8-5.1,1.2-10.4,1.2-15.6c0-40.1-27.1-86.8-62-86.8c-10.1,0-19.9,3.6-27.7,10l-3.6,3
	l5.1,66.7c0.2,2.8,0,5.7-0.7,8.4c-0.7,2.7-1.8,5.4-3.2,7.8l-53.4,99l-2,1.8c-1.3-9-9-16-18.4-16H18.7C8.4,180.6,0,189,0,199.3v195.2
	c0,10.3,8.4,18.7,18.7,18.7h103.6c10.3,0,18.7-8.4,18.7-18.7v-9.8l0.1,0.1c19.1,16.2,43.7,16.4,44.8,16.4l155.6-0.1h0.5
	c23.9-1.3,42.6-21.1,42.6-45c0-3.6-0.4-7.2-1.3-10.6c16.3-7,27.3-23,27.3-41.4c0-6.1-1.2-12-3.5-17.5
	C420.3,278.5,428.6,264.1,428.6,248z M391.6,273.8l-12.3,3.8l7.8,10.3c3.6,4.7,5.5,10.3,5.5,16.2c0,13.2-9.5,24.3-22.5,26.5
	l-12.3,2.1l5.8,11.1c2,3.9,3,8,3,12.3c0,14.2-11,25.9-25.2,26.8L186.1,383c-0.5,0-19.2-0.4-33-12.1c-3-2.5-5.7-4.3-8.6-5.6l-3.3-1.5
	V220.3l16.2-13.8L212,105.2c2.4-4,4.2-8.3,5.3-12.8c1.1-4.6,1.5-9.3,1.1-14.1l-4.5-56.8c3.8-2.1,8-3.3,12.4-3.3
	c23.6,0,43.8,37.7,43.8,68.6c0,4.3-0.3,8.6-1,12.8l-9.5,61.5H378c7.6,0,15,3.2,20.5,8.7c5.1,5.1,7.9,11.7,7.8,18.5
	c-0.1,8.4-4,16.2-10.7,21.3l-11,8.3l12,6.8c8.5,4.8,13.7,13.8,13.7,23.4C410.4,259.9,402.8,270.2,391.6,273.8z"/>
</svg>
