<?xml version="1.0" encoding="utf-8"?>
<!-- Generator: Adobe Illustrator 23.0.1, SVG Export Plug-In . SVG Version: 6.00 Build 0)  -->
<svg version="1.1" id="Layer_1" xmlns="http://www.w3.org/2000/svg" xmlns:xlink="http://www.w3.org/1999/xlink" x="0px" y="0px"
	 width="678.638916px" height="454.9887695px" viewBox="0 0 678.638916 454.9887695"
	 style="enable-background:new 0 0 678.638916 454.9887695;" xml:space="preserve">
<style type="text/css">
	.st0{fill:#6CBD45;}
	.st1{fill:#ED2E7A;}
	.st2{fill:#4172B0;}
	.st3{fill:#FFFFFF;}
	.st4{opacity:0.15;fill:#141414;enable-background:new    ;}
	.st5{opacity:0.2;fill:#141414;enable-background:new    ;}
	.st6{fill:#F5AA00;}
</style>
<g>
	<path class="st0" d="M344.8485413,140.4037476l-2.2862244-3.3804626c1.3161011-0.8905182,2.644165-1.7572632,3.9837341-2.5980377
		l2.1709595,3.4544525C347.4165039,138.6981049,346.1285706,139.5385437,344.8485413,140.4037476z M512.8482666,182.3135681
		c-1.5726929-0.4285736-3.1348877-0.9720764-4.6455688-1.6138916l1.5990601-3.7554932
		c1.7639465,0.7510376,3.5874023,1.3437958,5.4653931,1.7654877l-0.8964844,3.9815979
		C513.8590088,182.5758667,513.3519287,182.4505005,512.8482666,182.3135681z M520.7877197,183.539505l0.1872559-4.0773468
		c1.8764038,0.0867462,3.8296509,0.0270996,5.8079224-0.1775818l0.420166,4.060791
		C525.0232544,183.5694885,522.8638916,183.6350861,520.7877197,183.539505z M502.5016785,177.6732635
		c-1.7751465-1.142334-3.4978027-2.4552155-5.1181946-3.9014435l2.7192383-3.0441284
		c1.4608154,1.3038788,3.0122681,2.4864655,4.6080017,3.5140533L502.5016785,177.6732635z M353.8862915,134.7859802
		l-2.0177002-3.5468597c1.7981873-1.0240021,3.6146545-2.0087891,5.4512024-2.9530029l1.8676758,3.6280975
		C357.4031677,132.8335114,355.6355591,133.7901459,353.8862915,134.7859802z M533.4838867,182.2863617l-0.9181519-3.9768829
		c1.8331299-0.422821,3.7493286-0.9685516,5.6906128-1.6220703l1.3024902,3.8688507
		C537.4905396,181.25177,535.4468384,181.8339233,533.4838867,182.2863617z M492.9199829,169.1716156
		c-1.3580627-1.6132202-2.6294861-3.3477478-3.7778931-5.1549988l3.4413147-2.1910248
		c1.0552979,1.6558838,2.2180481,3.2430878,3.4591064,4.7173157L492.9199829,169.1716156z M364.6104126,129.2633514
		l-1.7197876-3.7014618c1.8763123-0.8703842,3.7670593-1.7028046,5.6744385-2.4977264l1.5700684,3.7660828
		C368.2782898,127.6056747,366.4349976,128.4161072,364.6104126,129.2633514z M545.4226074,178.3267517l-1.5841064-3.7595215
		c1.7493286-0.7376404,3.5367432-1.5547943,5.4674683-2.4962616l1.7910767,3.6671295
		C549.097229,176.7134399,547.2416382,177.5604858,545.4226074,178.3267517z M486.0641785,158.4291229
		c-0.9057922-1.9178772-1.6961975-3.909668-2.3557434-5.9198456l3.8768921-1.2713776
		c0.6080017,1.8504639,1.3378296,3.6853943,2.1689148,5.4518433L486.0641785,158.4291229z M375.7547302,124.6096497
		l-1.4266968-3.8220367c1.9332581-0.7227554,3.8814392-1.4094925,5.8433533-2.062706l1.2888184,3.8733749
		C379.5442505,123.234993,377.6417542,123.90522,375.7547302,124.6096497z M556.6791992,172.6906586l-2.210022-3.4320984
		c1.7896729-1.1521454,3.1453857-2.3105927,4.1472778-3.5426025l3.166626,2.5726318
		C560.5068359,169.8611145,558.8370972,171.3009186,556.6791992,172.6906586z M387.2393188,120.7866745l-1.1580505-3.9141541
		c1.9761353-0.5842056,3.9637756-1.1352539,5.9636536-1.6550674l1.0288391,3.949234
		C391.118042,119.6758728,389.1705322,120.2152252,387.2393188,120.7866745z M482.108429,146.3385468
		c-0.4072571-2.095108-0.6765137-4.2262726-0.8014526-6.3345032l4.0724487-0.2435913
		c0.1158752,1.9292145,0.3636475,3.881134,0.7361755,5.8005829L482.108429,146.3385468z M398.9614563,117.7305527
		l-0.9049377-3.9796219c2.0057983-0.4575195,4.0238037-0.8846283,6.0489807-1.28508l0.7907104,4.0044098
		C402.9102478,116.8627548,400.9315491,117.2821655,398.9614563,117.7305527z M560.6622314,161.1835938
		c0.2297974-1.5214233,0.1433105-3.2848663-0.2652588-5.3896332l4.006958-0.7777557
		c0.4987793,2.5714264,0.5959473,4.7888641,0.2919312,6.7807007L560.6622314,161.1835938z M410.8705444,115.3765869
		l-0.6821289-4.0243759c2.0263367-0.3432388,4.0617981-0.6594696,6.1028748-0.9513168l0.5787354,4.0398178
		C414.8633423,114.7273331,412.8623047,115.0383377,410.8705444,115.3765869z M481.3641968,133.6022339
		c0.1711731-2.0960236,0.4656372-4.212265,0.8755493-6.2897034l4.0024719,0.7885895
		c-0.3791504,1.9268036-0.6523438,3.8887177-0.8085632,5.8308716L481.3641968,133.6022339z M422.8927002,113.654541
		l-0.4802246-4.0521698c2.0402222-0.2426224,4.0860596-0.4608612,6.1381836-0.6556244l0.3866577,4.0618439
		C426.9187317,113.2021103,424.9029541,113.4162521,422.8927002,113.654541z M558.8380737,150.2093506
		c-0.651001-1.7990875-1.4489746-3.5884857-2.3727417-5.3181763l3.5997314-1.9229431
		c1.0151978,1.9021454,1.8927612,3.8702698,2.6116943,5.851944L558.8380737,150.2093506z M434.9973145,112.4958496
		l-0.3019714-4.069931c2.0486145-0.1523361,4.0999756-0.2834625,6.1520996-0.3957367l0.2221985,4.0748749
		C439.0426331,112.2159119,437.0203552,112.3466721,434.9973145,112.4958496z M447.1500244,111.8291855l-0.1467896-4.0791168
		c2.0481262-0.0742416,4.1016846-0.1303177,6.1542664-0.1680374l0.0759888,4.0805817
		C451.2055054,111.700882,449.1772461,111.7556,447.1500244,111.8291855z M487.7023621,122.388382l-3.8937683-1.2196198
		c0.6194763-1.9824142,1.3623962-3.978653,2.2056274-5.9332199l3.7481079,1.6177521
		C488.9751892,118.6784821,488.2810059,120.5405731,487.7023621,122.388382z M553.3769531,139.9193878
		c-1.1173706-1.5645142-2.3615723-3.1026001-3.6953735-4.5700836l3.0181885-2.7458954
		c1.4438477,1.5862274,2.7883301,3.2494659,3.9984131,4.9434357L553.3769531,139.9193878z M459.3245239,111.5981369
		l-0.0135803-4.0822296c2.0521851-0.0059052,4.1024475,0.0031128,6.1506958,0.0272293l-0.0483093,4.0819016
		C463.3859253,111.6004639,461.3565369,111.5909805,459.3245239,111.5981369z M471.5034485,111.7389984l0.1012573-4.0799789
		c2.0528564,0.0522308,4.1001282,0.1181564,6.1422424,0.1951675l-0.1544495,4.0780029
		C475.566803,111.8554077,473.5359802,111.7897263,471.5034485,111.7389984z M545.4768066,131.2098083
		c-1.4511108-1.2855835-3.005249-2.5276947-4.6210327-3.6939468l2.390564-3.3089981
		c1.7225952,1.2447662,3.3831787,2.5729141,4.9362793,3.9471283L545.4768066,131.2098083z M483.679657,112.2001419
		l0.2038269-4.0768509c1.8435364,0.0934448,3.6902161,0.1978912,5.5361328,0.3207397
		c0.8208313-1.4319992,1.7068481-2.860878,2.6408081-4.2600098l3.3934631,2.2688751
		c-1.1134949,1.6652069-2.1519165,3.3738708-3.0856628,5.0765228l-2.4514465-1.3437271l-0.1633911,2.3707275
		C487.7299805,112.4183121,485.7030334,112.3010254,483.679657,112.2001419z M535.8889771,124.2802505
		c-1.6921387-0.9918365-3.4588623-1.9223251-5.2515259-2.7646942l1.7351074-3.6935577
		c1.90448,0.8945465,3.7833862,1.8832169,5.5802612,2.9386215L535.8889771,124.2802505z M495.8041382,113.0500412
		l0.3857727-4.0624771c2.0572205,0.1957245,4.1099854,0.4234467,6.1540527,0.6908798l-0.5299988,4.0461121
		C499.8177795,113.4637909,497.8132019,113.240921,495.8041382,113.0500412z M507.7774658,114.6300888l0.7045898-4.0191803
		c2.097168,0.3677216,4.1511841,0.7804031,6.1027832,1.2284546l-0.9117432,3.9772263
		C511.7892761,115.3850632,509.8056641,114.9862518,507.7774658,114.6300888z M525.1448975,119.219101
		c-1.8168945-0.6776657-3.725769-1.3133011-5.6720581-1.8867874l1.1550903-3.915329
		c2.0380249,0.6016006,4.0377808,1.2670212,5.9443359,1.9794388L525.1448975,119.219101z M498.9703674,101.6461792
		l-3.1966858-2.537674c1.2783203-1.6110916,2.653717-3.2135696,4.0865479-4.762146l2.99646,2.7723236
		C501.4920044,98.5916748,500.1857605,100.11483,498.9703674,101.6461792z M507.0689697,92.8819504l-2.7879333-2.9778442
		c1.5020142-1.4079742,3.0889282-2.7937012,4.7173767-4.1199265l2.5762024,3.1641006
		C510.0200806,90.2148743,508.5037842,91.5383987,507.0689697,92.8819504z M516.3352051,85.3222275l-2.3620605-3.3287735
		c0.8390503-0.5947342,1.6867676-1.1758728,2.5423584-1.7405243c0.8751221-0.5830078,1.7655029-1.1534271,2.6624756-1.7110443
		l2.1551514,3.4666595c-0.8621216,0.5359955-1.7172241,1.0832367-2.5617065,1.6445389
		C517.9504395,84.197113,517.1385498,84.7528915,516.3352051,85.3222275z M526.5229492,78.9692535l-1.9737549-3.5723419
		c1.7592773-0.9713364,3.6143188-1.938446,5.5144043-2.873848l1.8009033,3.6615448
		C530.0236816,77.0917053,528.2261963,78.0289993,526.5229492,78.9692535z M537.3370972,73.632019l-1.6490479-3.7338181
		c1.8867798-0.8334961,3.7909546-1.6313858,5.7080078-2.4010468l1.5183105,3.7892075
		C541.039856,72.036499,539.1813965,72.8178558,537.3370972,73.632019z M548.572876,69.1209793l-1.4033813-3.8324051
		c1.9310303-0.7068481,3.8718262-1.3894958,5.8213501-2.0500793l1.3115234,3.8651733
		C552.3847046,67.7543106,550.4721069,68.4238663,548.572876,69.1209793z M560.0834961,65.2090912l-1.2393188-3.8888969
		c1.9534912-0.6222916,3.9128418-1.2286263,5.8771362-1.8221741l1.1807861,3.9059601
		C563.9597168,63.9931335,562.0189209,64.5920181,560.0834961,65.2090912z M571.7561035,61.6592522l-1.1536865-3.9153023
		c1.961792-0.5775223,3.9238892-1.1480026,5.883606-1.7170067l1.1398315,3.9195824L571.7561035,61.6592522z"/>
	<path class="st0" d="M253.3638763,316.0891418l2.2677307,3.3929138c-1.3209534,0.8833313-2.6537476,1.7427979-3.9979095,2.5762329
		l-2.1520386-3.4662781C250.7866364,317.7807312,252.0791168,316.9473572,253.3638763,316.0891418z M85.5957642,273.2617493
		c1.5703125,0.4371643,3.1294861,0.9891968,4.6366577,1.6392517l-1.6195602,3.7467041
		c-1.7598267-0.7606812-3.5800018-1.3633728-5.4556732-1.7953491l0.9182281-3.9766235
		C84.586441,272.993927,85.092804,273.1220703,85.5957642,273.2617493z M77.6631012,271.9924316l-0.2095184,4.0762634
		c-1.875946-0.0970154-3.829483-0.0480347-5.8088531,0.1458435l-0.3979416-4.0630188
		C73.4277878,271.9393005,75.5874634,271.8855286,77.6631012,271.9924316z M95.9168015,277.9585266
		c1.7688751,1.1520386,3.4843292,2.4743042,5.0968094,3.9293518l-2.7358551,3.0292358
		c-1.4536667-1.3118286-2.9986267-2.5028992-4.5887146-3.5391846L95.9168015,277.9585266z M244.2955475,321.6574402
		l1.9982758,3.5578308c-1.8037415,1.0141602-3.6255646,1.9890137-5.4672546,2.9231567l-1.8477936-3.6382446
		C240.7680511,323.5906677,242.5408478,322.6437073,244.2955475,321.6574402z M64.9602814,273.176178l0.8963699,3.981842
		c-1.8353958,0.4127808-3.7545586,0.9480286-5.6993637,1.5909424l-1.2813568-3.8759155
		C60.9480553,274.1888428,62.9948845,273.6178589,64.9602814,273.176178z M105.4519043,286.5124207
		c1.3492279,1.620636,2.6111221,3.3620605,3.7496338,5.1755676l-3.4532242,2.1721802
		c-1.0462265-1.6616211-2.2002869-3.2551575-3.4332733-4.736145L105.4519043,286.5124207z M233.5413971,327.1213684
		l1.6995239,3.7108154c-1.8810272,0.8601074-3.7762909,1.6821899-5.6879883,2.4666748l-1.5494537-3.7745972
		C229.8645172,328.7589722,231.7122345,327.9586487,233.5413971,327.1213684z M53.0000916,277.0704651l1.5635262,3.7681274
		c-1.7533112,0.7280579-3.5451622,1.5354309-5.4810257,2.4663391l-1.770977-3.6768494
		C49.3166962,278.6636658,51.1768837,277.8267822,53.0000916,277.0704651z M112.2488861,297.2922363
		c0.8952866,1.9227905,1.6747742,3.9188538,2.3233337,5.9326172l-3.8837738,1.2501831
		c-0.5978928-1.8537598-1.3176575-3.6926575-2.1390839-5.463623L112.2488861,297.2922363z M222.3718109,331.7140808
		l1.4057922,3.8298035c-1.9371643,0.7121582-3.8890839,1.3882446-5.854538,2.0307312l-1.2676392-3.8803711
		C218.5748596,333.0680237,220.4809723,332.4082031,222.3718109,331.7140808z M41.7128525,282.6449585l2.191246,3.4441223
		c-1.795929,1.142334-3.1579666,2.2933655-4.1665726,3.5198975l-3.1525383-2.5899353
		C37.8698273,285.4535217,39.54739,284.0228882,41.7128525,282.6449585z M210.8665161,335.4742432l1.1366272,3.9204102
		c-1.9793091,0.5734253-3.9699402,1.1135864-5.9726257,1.622467l-1.0072174-3.9548035
		C206.981781,336.5638428,208.9321899,336.0351257,210.8665161,335.4742432z M116.1384888,309.4042358
		c0.3957825,2.0973206,0.653389,4.2299194,0.7668152,6.3388062l-4.0737152,0.2213135
		c-0.1053467-1.9298096-0.3424454-3.8830566-0.7044678-5.8045044L116.1384888,309.4042358z M199.1278534,338.4662476
		l0.8831482,3.9845276c-2.0082397,0.4465332-4.0285797,0.8626099-6.0558929,1.2519836l-0.7688293-4.008667
		C195.1743774,339.3124695,197.1553345,338.9038696,199.1278534,338.4662476z M37.6669922,294.1300964
		c-0.2381248,1.5201111-0.1612816,3.2840271,0.2358093,5.3909912l-4.0111847,0.7558289
		c-0.4846687-2.5741272-0.569725-4.7920532-0.2548676-6.782196L37.6669922,294.1300964z M187.2060699,340.7550964
		l0.6601105,4.0280457c-2.028183,0.3321533-4.0653381,0.6372681-6.1079865,0.9179382l-0.5566406-4.0429077
		C183.2097778,341.3825073,185.2124939,341.0824585,187.2060699,340.7550964z M116.8130951,322.1444397
		c-0.1826324,2.0950623-0.4886551,4.2096558-0.909935,6.2848206l-3.9980927-0.8104553
		c0.3896713-1.9247131,0.6735992-3.8851013,0.8404236-5.8263855L116.8130951,322.1444397z M175.1746674,342.4114075
		l0.4580688,4.0547485c-2.0415039,0.2314453-4.088501,0.4385071-6.1416626,0.6220398l-0.3644562-4.0639038
		C171.1462402,342.8418274,173.163147,342.6387024,175.1746674,342.4114075z M39.4311676,305.1141052
		c0.641098,1.8026428,1.4293327,3.5963745,2.3436394,5.3310852l-3.6102333,1.9032593
		c-1.0047874-1.9076843-1.871582-3.8805847-2.5796585-5.8661499L39.4311676,305.1141052z M163.0639038,343.5039368
		l0.2797394,4.0715027c-2.0494385,0.1411438-4.1014709,0.2610474-6.1541748,0.3621216l-0.1999207-4.0760498
		C159.0171356,343.7617493,161.0400696,343.6420288,163.0639038,343.5039368z M150.9077301,344.1041565l0.1245117,4.0798645
		c-2.0485077,0.0630493-4.1023407,0.1078796-6.1551208,0.1343994l-0.0536804-4.0809326
		C146.8516235,344.2102966,148.8801422,344.1666565,150.9077301,344.1041565z M110.4137344,333.3234863l3.8870239,1.2408752
		c-0.6302948,1.9790039-1.3841248,3.9711304-2.2380295,5.9210815l-3.7391891-1.6382141
		C109.1206436,337.0263672,109.8249817,335.1680908,110.4137344,333.3234863z M44.8359604,315.4337769
		c1.108799,1.5705872,2.3445778,3.1154785,3.6703415,4.59021l-3.033165,2.7293701
		c-1.4351921-1.5940857-2.7705269-3.264679-3.9713516-4.96521L44.8359604,315.4337769z M138.7321472,344.2686462
		l-0.0087128,4.0822449c-2.0522003-0.0053101-4.1023865-0.0255127-6.1504517-0.0608215l0.0706024-4.081604
		C134.6708221,344.2441406,136.7001343,344.2647095,138.7321472,344.2686462z M126.5541916,344.0612488l-0.1235657,4.0793457
		c-2.0525513-0.063446-4.099411-0.140564-6.1410828-0.2287292l0.1767349-4.0770874
		C122.4915161,343.9226074,124.5219498,343.9993896,126.5541916,344.0612488z M52.6883392,324.1864014
		c1.4440842,1.2935181,2.991394,2.5440979,4.6007614,3.7191467l-2.4086113,3.2958984
		c-1.7157402-1.2541809-3.3690147-2.5913696-4.9145775-3.9740601L52.6883392,324.1864014z M114.3806763,343.5335388
		l-0.2260971,4.0756836c-1.8430099-0.1035156-3.6890793-0.2180481-5.5342941-0.3509827
		c-0.8286667,1.4274902-1.7224808,2.8515015-2.6640625,4.2455139l-3.3810043-2.287384
		c1.1225739-1.6591187,2.1703186-3.3620605,3.1133652-5.0596008l2.4440613,1.3571167l0.1763458-2.369812
		C110.3316116,343.2932434,112.357872,343.4216003,114.3806763,343.5335388z M62.2381477,331.1682739
		c1.6866798,1.0010681,3.4483528,1.9411926,5.2363548,2.793335l-1.7552719,3.684021
		c-1.8995476-0.9049377-3.7730103-1.9038391-5.5640907-2.9690552L62.2381477,331.1682739z M102.2610321,342.6174011
		l-0.4079971,4.0603027c-2.0561066-0.2069702-4.1075897-0.4458923-6.1501694-0.7245178l0.5521011-4.0431519
		C98.2497101,342.1817017,100.2530441,342.4155273,102.2610321,342.6174011z M90.2965012,340.9719238l-0.726532,4.0152893
		c-2.0951157-0.3791809-4.1468735-0.8031006-6.0960159-1.2618103l0.9334946-3.972168
		C86.2888718,340.1950378,88.2702789,340.6046753,90.2965012,340.9719238z M72.9544296,336.2880554
		c1.8131256,0.6875916,3.7185211,1.3336487,5.6616287,1.9177856l-1.1764374,3.9089355
		c-2.0347137-0.6127319-4.0307846-1.2890625-5.9334717-2.0119019L72.9544296,336.2880554z M99.0325241,354.0037842
		l3.1827545,2.5551147c-1.2871094,1.6040649-2.6712341,3.1990051-4.1125107,4.7397461l-2.9812775-2.7886658
		C96.4942093,357.0444641,97.8087616,355.5284729,99.0325241,354.0037842z M90.8861389,362.7236328l2.7716141,2.9930115
		c-1.5096893,1.3997498-3.1041641,2.7767944-4.7398529,4.0940857l-2.5588455-3.1781311
		C87.9204712,365.3745117,89.4439774,364.0592957,90.8861389,362.7236328z M81.5787201,370.2325745l2.3438034,3.3416443
		c-0.842247,0.5901489-1.6931763,1.166626-2.5518265,1.726593c-0.8783188,0.5782166-1.7717514,1.1437683-2.6717834,1.6964722
		l-2.1361771-3.4783936c0.8650665-0.5312805,1.7231064-1.073822,2.5706635-1.6304932
		C79.9573212,371.3488464,80.7722931,370.7975159,81.5787201,370.2325745z M71.3564072,376.5297852l1.9542007,3.5830688
		c-1.764595,0.9617004-3.6248856,1.9186707-5.5300751,2.8436584l-1.7808228-3.6713257
		C67.8454742,378.3881531,69.6480103,377.4607239,71.3564072,376.5297852z M60.5132561,381.8078308l1.6285858,3.7427673
		c-1.8913193,0.8231812-3.7998352,1.6106567-5.7210274,2.369812l-1.4975739-3.7974548
		C56.8018036,383.3830872,58.6644936,382.611908,60.5132561,381.8078308z M49.2529373,386.2573853l1.3824158,3.8400269
		c-1.9348717,0.6962891-3.8793144,1.3683167-5.8324356,2.018219l-1.2904091-3.8722839
		C45.4336891,387.6032104,47.3499718,386.9441223,49.2529373,386.2573853z M37.7211037,390.1063232l1.2180634,3.8955994
		c-1.9568672,0.6116028-3.9194756,1.2072144-5.887001,1.7900391l-1.15942-3.912384
		C33.8383141,391.3010559,35.7823753,390.7127991,37.7211037,390.1063232z M26.0293102,393.5922852l1.1322823,3.9215698
		c-1.9649544,0.5667725-3.930109,1.1265259-5.8929195,1.6848145l-1.1184273-3.9257507L26.0293102,393.5922852z"/>
	<g id="XMLID_41_">
		<path id="XMLID_39_" class="st1" d="M671.9102173,15.4166651L579.9998169,1.0820022l-6.9016724-1.0820168l3.4247437,6.0962224
			l12.2293701,21.6038551l-5.8155518,20.2327099l-1.9216919,6.6934166l-1.4446411,5.0174599l1.6896973-1.5688286
			l5.3024902-4.9331169l1.9472046-1.798996l9.9536743-9.2543411l4.5110474,6.6803818l2.0036621,2.9705582l12.4379272,18.4541893
			l2.2504272,3.346817l2.9041138-2.8167419l51.1725464-49.5183105l4.895752-4.7307129L671.9102173,15.4166651z
			 M620.2203979,68.2976913l-19.1519165-28.403553l-2.0004272-2.9466858l-0.010498,0.0271225l-0.0604858-0.0169449
			l-12.7966309,11.9051895l5.7576904-20.0431099l0.4462891-1.5506954l-1.0165405-1.8034897l-11.9083862-21.044569
			l84.6531982,13.2184734l7.2602539,1.1399479l-2.4900513,2.4076519L620.2203979,68.2976913z"/>
		<polygon id="XMLID_43_" class="st1" points="599.9021606,40.2517166 599.0018311,36.9865227 652.0007324,22.1432171 
			591.0627441,28.6964798 590.7003174,25.3270893 672.3781738,16.545517 673.0095215,19.8626633 		"/>
		<polygon id="XMLID_110_" class="st1" points="606.774231,51.2680359 604.9781494,51.7393074 579.5715332,59.6445236 
			580.5958862,58.2532425 580.2928467,57.1349106 581.0150146,54.6261902 584.8741455,54.7112465 602.9744873,48.7687492 
			605.888855,47.9946289 		"/>
	</g>
</g>
<g>
	<g>
		<g>
			<path class="st1" d="M503.8394775,225.9286346v215.9400177c0,2.8900757-1.2099304,5.5-3.1499939,7.3400879
				c-1.8199158,1.730011-4.269928,2.7799988-6.9700012,2.7799988H184.9594727c-2.7000122,0-5.1500092-1.0499878-6.9699097-2.7799988
				c-1.9400024-1.8400879-3.1501007-4.4500122-3.1501007-7.3400879V225.9286346l164.5000153-94.6899109L503.8394775,225.9286346z"/>
			<path class="st2" d="M493.7193604,454.988739H184.959671c-3.381897,0-6.5914001-1.280304-9.0372009-3.6054993
				c-2.5937042-2.460907-4.0830078-5.9287109-4.0830078-9.5145874V225.9286346c0-1.0732117,0.5733032-2.0644226,1.5035095-2.6000977
				l164.4999847-94.6899109c0.9266968-0.5332031,2.0664062-0.5332031,2.993103,0l164.5004883,94.6899109
				c0.929718,0.535675,1.5029297,1.526886,1.5029297,2.6000977v215.9400177c0,3.5858765-1.4892273,7.0546875-4.085907,9.5166016
				C500.3111572,453.70755,497.1021729,454.988739,493.7193604,454.988739z M177.8394623,227.6635284v214.2051239
				c0,1.9755859,0.7866974,3.8085938,2.2144012,5.1630859c1.328598,1.2626953,3.069809,1.9570007,4.9058075,1.9570007h308.7597046
				c1.8359985,0,3.5772095-0.6943054,4.9024048-1.9541016c1.4315796-1.3573914,2.2177124-3.1903992,2.2177124-5.1659851V227.6635284
				L339.339447,134.700119L177.8394623,227.6635284z"/>
		</g>
		<g>
			<path class="st3" d="M457.8394775,340.988739h-237V142.9887238c0-11.0457001,8.9542847-19.9999924,20-19.9999924h162.227478
				l54.772522,55.7689896V340.988739z"/>
			<path class="st2" d="M457.8394775,343.988739h-237c-1.6567078,0-3-1.3432922-3-3V142.9887238
				c0-12.6820984,10.3178864-22.9999924,23-22.9999924h162.2275696c0.804718,0,1.5762024,0.3237,2.140625,0.8979034
				l54.7724915,55.7690964c0.5506897,0.5609894,0.859314,1.3158875,0.859314,2.1019897V340.988739
				C460.8394775,342.6454468,459.4967651,343.988739,457.8394775,343.988739z M223.8394623,337.988739h231.0000153V179.9848175
				l-53.0312195-53.9960861H240.8394623c-9.3739929,0-17,7.6259995-17,16.9999924V337.988739z"/>
		</g>
		<path class="st4" d="M502.799469,222.8637238L374.9840393,325.988739h-71.289093L177.799469,224.8637238
			c-1.7328949-1.5707092-2.9600067,208.0049286-2.9600067,208.0049286c0,4.1322937,1.7168121,8.1298828,4.7041016,10.9628906
			c2.819397,2.680603,6.5176086,4.157196,10.4161072,4.157196l298.7597046-1c3.8984985,0,7.5967102-1.476593,10.4101868-4.151886
			c2.993103-2.8383179,4.7099304-6.835907,4.7099304-10.9682007
			C503.8394775,431.8686523,505.2532654,220.6389313,502.799469,222.8637238z"/>
		<g>
			<path class="st3" d="M503.799469,340.863739v100.8799133c0,2.8900757-1.2099915,5.5-3.1499939,7.3400879
				c-1.8200073,1.730011-4.269928,2.7799988-6.9700012,2.7799988H184.9194641c-2.6999969,0-5.1499939-1.0499878-6.9700012-2.7799988
				c-1.9400024-1.8400879-3.1499939-4.4500122-3.1499939-7.3400879V340.863739H503.799469z"/>
			<path class="st2" d="M493.6793518,454.863739H184.9195709c-3.3818054,0-6.5913086-1.280304-9.0371094-3.6054993
				c-2.593689-2.460907-4.0829926-5.9287109-4.0829926-9.5145874V340.863739c0-1.6567078,1.3432922-3,3-3h329
				c1.657196,0,3,1.3432922,3,3v100.8799133c0,3.5858765-1.4893188,7.0546875-4.085907,9.5166016
				C500.2711487,453.58255,497.0621643,454.863739,493.6793518,454.863739z M177.799469,343.863739v97.8799133
				c0,1.9755859,0.7865906,3.8085938,2.2144012,5.1630859c1.328598,1.2626953,3.0697937,1.9570007,4.9057007,1.9570007h308.7597656
				c1.835907,0,3.5771179-0.6943054,4.9023132-1.9541016c1.4317017-1.3573914,2.217804-3.1903992,2.217804-5.1659851V343.863739
				H177.799469z"/>
		</g>
		<g>
			<path class="st3" d="M301.3795471,340.6386414L177.989563,449.2087402
				c-1.9400024-1.8400879-3.1501007-4.4500122-3.1501007-7.3400879V225.9286346L301.3795471,340.6386414z"/>
			<path class="st3" d="M377.2594604,340.6386414l123.3900146,108.5700989
				c1.9400024-1.8400879,3.1499939-4.4500122,3.1499939-7.3400879V225.9286346L377.2594604,340.6386414z"/>
			<path class="st2" d="M177.9898682,452.2084351c-0.7440948,0-1.4873047-0.2753906-2.0648956-0.8231812
				c-2.5962067-2.4629211-4.0855103-5.9307251-4.0855103-9.5166016V225.9286346c0-1.1865234,0.699707-2.2617188,1.7842102-2.7426147
				c1.0859985-0.4804993,2.351593-0.276886,3.2304993,0.519989L303.394165,338.4159241
				c0.6333008,0.573822,0.9916992,1.3907166,0.9853821,2.2447205c-0.0063782,0.8544922-0.3769836,1.6659851-1.0180969,2.2304077
				l-123.3900757,108.569397C179.4034729,451.9604492,178.6964722,452.2084351,177.9898682,452.2084351z M177.8394623,232.6972198
				v209.1714325c0,1.031189,0.2144012,2.0233765,0.6221008,2.9286804l118.4145966-104.1918945L177.8394623,232.6972198z"/>
			<path class="st2" d="M500.6490479,452.2084351c-0.7070007,0-1.414093-0.2479858-1.9813843-0.7479858l-123.3901978-108.569397
				c-0.6411133-0.5644226-1.0117188-1.3759155-1.0180054-2.2304077c-0.0064087-0.8540039,0.3519897-1.6708984,0.9852905-2.2447205
				l126.5401001-114.7099152c0.8778992-0.796875,2.1434937-1.0009766,3.2304077-0.519989
				c1.0849915,0.480896,1.7842102,1.5560913,1.7842102,2.7426147v215.9400177c0,3.5858765-1.4893188,7.0546875-4.085907,9.5166016
				C502.1353455,451.9330444,501.3922729,452.2084351,500.6490479,452.2084351z M381.7628479,340.6054382l118.4145203,104.1918945
				c0.4082031-0.905304,0.6221008-1.8974915,0.6221008-2.9286804V232.6972198L381.7628479,340.6054382z"/>
			<path class="st4" d="M500.799469,343.988739v83.7549133c0,1.9750977-0.7861023,3.8085938-2.217804,5.1659851
				c-1.3251953,1.2603149-3.0664062,1.9541016-4.9023132,1.9541016H184.9195709c-1.835907,0-3.5771027-0.6937866-4.905304-1.9570007
				c-1.2442932-1.1798096-2.0001984-2.7232056-2.1748047-4.4067993v13.3687134c0,1.9750977,0.7862091,3.8085938,2.2149048,5.1630859
				c1.3280945,1.2632141,3.0693054,1.9570007,4.905304,1.9570007h308.7597046c1.8359985,0,3.5772095-0.6937866,4.9024048-1.9541016
				c1.4315796-1.3573914,2.2177124-3.1908875,2.2177124-5.1659851V343.988739H500.799469z"/>
		</g>
	</g>
	<path class="st5" d="M459.9605713,181.86763l-55-54.9999924c-0.8554077-0.8579102-2.1473999-1.1152039-3.2695007-0.6504059
		c-1.1211243,0.4644012-1.851593,1.5581055-1.851593,2.771492v40c0,9.925293,8.0751953,18,18,18h40
		c1.2138672,0,2.3076782-0.7310028,2.7714844-1.8520966C461.0758667,184.015625,460.8189697,182.7255249,459.9605713,181.86763z"/>
	<g>
		<path class="st6" d="M457.8394775,177.9887238h-40c-8.2842102,0-15-6.7156982-15-15v-39.9999924L457.8394775,177.9887238z"/>
		<path class="st2" d="M457.8394775,180.9887238h-40c-9.9248047,0-18-8.074707-18-18v-39.9999924
			c0-1.2133942,0.7304688-2.3070984,1.851593-2.7714996c1.1221008-0.464798,2.414093-0.2075043,3.2695007,0.6504059l55,54.9999924
			c0.8583984,0.8578949,1.1152954,2.147995,0.6503906,3.2689972
			C460.1471558,180.2577209,459.0533447,180.9887238,457.8394775,180.9887238z M405.8394775,130.2314301v32.7572937
			c0,6.6166992,5.3828735,12,12,12h32.7578735L405.8394775,130.2314301z"/>
	</g>
	<path class="st2" d="M330.799469,170.9887238h-73c-1.6567078,0-3-1.3433075-3-3s1.3432922-3,3-3h73c1.6566772,0,3,1.3433075,3,3
		S332.4561462,170.9887238,330.799469,170.9887238z"/>
	<g>
		<path class="st2" d="M349.799469,208.9472198h-92c-1.6567078,0-3-1.3432922-3-3c0-1.6566925,1.3432922-3,3-3h92
			c1.6566772,0,3,1.3433075,3,3C352.799469,207.6039276,351.4561462,208.9472198,349.799469,208.9472198z"/>
		<path class="st2" d="M430.799469,208.9472198h-47c-1.6567078,0-3-1.3432922-3-3c0-1.6566925,1.3432922-3,3-3h47
			c1.657196,0,3,1.3433075,3,3C433.799469,207.6039276,432.456665,208.9472198,430.799469,208.9472198z"/>
	</g>
	<path class="st2" d="M412.799469,284.863739h-155c-1.6567078,0-3-1.3432922-3-3s1.3432922-3,3-3h155c1.657196,0,3,1.3432922,3,3
		S414.456665,284.863739,412.799469,284.863739z"/>
	<g>
		<path class="st2" d="M430.8394775,246.9677277H357.839447c-1.6566772,0-3-1.3432922-3-3s1.3433228-3,3-3h73.0000305
			c1.6572876,0,3,1.3432922,3,3S432.4967651,246.9677277,430.8394775,246.9677277z"/>
		<path class="st2" d="M336.799469,246.8427277h-79c-1.6567078,0-3-1.3432922-3-3s1.3432922-3,3-3h79c1.6566772,0,3,1.3432922,3,3
			S338.4561462,246.8427277,336.799469,246.8427277z"/>
	</g>
</g>
</svg>
