<?xml version="1.0" encoding="UTF-8"?>
<svg width="58px" height="58px" viewBox="0 0 58 58" version="1.1" xmlns="http://www.w3.org/2000/svg" xmlns:xlink="http://www.w3.org/1999/xlink">
    <!-- Generator: sketchtool 53.2 (72643) - https://sketchapp.com -->
    <title>B01B91D2-361A-480A-B3A9-740910FCD0C5</title>
    <desc>Created with sketchtool.</desc>
    <g id="01.-Home" stroke="none" stroke-width="1" fill="none" fill-rule="evenodd">
        <g id="SVG" transform="translate(-349.000000, -1049.000000)" fill="#78B517" fill-rule="nonzero">
            <g id="fExplainers" transform="translate(349.000000, 1049.000000)">
                <path d="M12.5327598,2.0602749 C6.82922911,3.27881158 2.47295255,7.89652808 1.58852197,13.6613253 C0.769495232,18.9998289 0.359999969,24.3380963 0.359999969,29.6762824 C0.359999969,34.6290192 0.712494139,39.581821 1.41750943,44.5348122 C2.30844637,50.7939711 7.2729489,55.6856088 13.5445965,56.4839083 C18.5127266,57.1162859 23.4807206,57.432466 28.448668,57.432466 C33.6371688,57.432466 38.8257225,57.0875889 44.014431,56.3978142 C50.009423,55.600854 54.8204287,51.0545254 55.9549887,45.1141666 C56.9378893,39.9678544 57.4292969,34.8219897 57.4292969,29.6762824 C57.4292969,24.1464354 56.861781,18.616393 55.726636,13.0857994 C54.6142752,7.66621403 50.4228554,3.40518007 45.0223261,2.20370363 C39.497227,0.974516302 33.972823,0.359999969 28.448668,0.359999969 C23.1437185,0.359999969 17.8385486,0.926714206 12.5327598,2.0602749 Z" id="Rectangle" stroke="#78B517" stroke-width="0.719999938" fill-opacity="0.05"></path>
                <g id="Group-26" transform="translate(13.694444, 18.527778)">
                    <rect id="Rectangle-Copy-9" x="0" y="0" width="14.2548309" height="1.30902778"></rect>
                    <rect id="Rectangle-Copy-12" x="0" y="3.92708333" width="29.8055556" height="1.30902778"></rect>
                    <rect id="Rectangle-Copy-13" x="0" y="7.85416667" width="28.5096618" height="1.30902778"></rect>
                    <rect id="Rectangle-Copy-14" x="0" y="11.78125" width="22.6781401" height="1.30902778"></rect>
                    <rect id="Rectangle-Copy-15" x="0" y="15.7083333" width="26.5658213" height="1.30902778"></rect>
                    <rect id="Rectangle-Copy-16" x="0" y="19.6354167" width="29.8055556" height="1.30902778"></rect>
                </g>
            </g>
        </g>
    </g>
</svg>