<svg xmlns="http://www.w3.org/2000/svg" width="98" height="85" viewBox="0 0 98 85">
    <g fill="none" fill-rule="evenodd">
        <path fill="#40AC48" fill-opacity=".1" d="M30.616 11.98C2.546-5.513-3.05 27.335 1.333 44.885 6.795 66.759-7.172 76.8 5.986 83.656c13.654 7.115 29.673-18.047 62.16-14.015 42.178 5.234 37.085-43.78-7.172-44.323-11.14-.137-18.373-5.87-30.358-13.339z"/>
        <g transform="translate(18)">
            <path fill="#40AC48" d="M17.955.935h-6.59c-.332 0-.602.271-.602.606v7.154H4.776c-.332 0-.602.272-.602.607v46.083c0 .335.27.607.602.607h35.141c.334 0 .603-.272.603-.607v-7.151h5.988c.333 0 .601-.274.601-.61v-7.151V1.54c0-.336-.27-.607-.601-.607L17.955.935zm21.361 53.842H5.38V9.912H30.53v8.26c0 .335.27.61.602.61h8.183v35.995zm-7.58-37.213V10.77l6.729 6.794h-6.73zm14.17 29.453H40.52V18.173c-.017-.093-.025-.145-.043-.199-.049-.126-.089-.183-.139-.237L31.56 8.874c-.024-.023-.056-.047-.086-.068h-.056l-.086-.068c-.072-.018-.114-.025-.155-.026l-.153-.028-19.056.015V2.15h33.94v44.868z"/>
            <path stroke="#40AC48" stroke-width=".25" d="M39.316 54.777H5.38V9.912H30.53v8.26c0 .335.27.61.602.61h8.183v35.995z"/>
            <path stroke="#40AC48" stroke-width=".25" d="M31.735 17.564L31.735 10.77 38.465 17.564z"/>
            <path stroke="#40AC48" stroke-width=".25" d="M45.906 47.017H40.52V18.173c-.017-.093-.025-.145-.043-.199-.049-.126-.089-.183-.139-.237L31.56 8.874c-.024-.023-.056-.047-.086-.068h-.056l-.086-.068c-.072-.018-.114-.025-.155-.026l-.153-.028-19.056.015V2.15h33.94v44.868z"/>
            <path fill="#40AC48" d="M12.463 41.58h21.468v-1.216H13.067v-16.63H11.86v17.24c0 .334.271.606.603.606"/>
            <path stroke="#40AC48" stroke-width=".25" d="M12.463 41.58h21.468v-1.216H13.067v-16.63H11.86v17.24c0 .334.271.606.603.606"/>
            <path fill="#40AC48" d="M25.393 32.604H20.15c-.157 0-.311.064-.425.178l-4.042 4.08.852.863 3.866-3.906h5.24c.163 0 .312-.063.427-.177l6.239-6.298-.853-.86-6.06 6.12z"/>
            <path stroke="#40AC48" stroke-width=".25" d="M25.393 32.604H20.15c-.157 0-.311.064-.425.178l-4.042 4.08.852.863 3.866-3.906h5.24c.163 0 .312-.063.427-.177l6.239-6.298-.853-.86-6.06 6.12z"/>
            <path fill="#40AC48" d="M11.861 16.561L13.067 16.561 13.067 15.344 11.861 15.344z"/>
            <path stroke="#40AC48" stroke-width=".25" d="M11.861 16.561L13.067 16.561 13.067 15.344 11.861 15.344z"/>
            <path fill="#40AC48" d="M16.254 16.561L24.049 16.561 24.049 15.344 16.254 15.344z"/>
            <path stroke="#40AC48" stroke-width=".25" d="M16.254 16.561L24.049 16.561 24.049 15.344 16.254 15.344z"/>
            <path fill="#40AC48" d="M11.861 20.997L24.049 20.997 24.049 19.78 11.861 19.78z"/>
            <path stroke="#40AC48" stroke-width=".25" d="M11.861 20.997L24.049 20.997 24.049 19.78 11.861 19.78z"/>
            <path fill="#FAAB2B" d="M14.058 48.232L17.46 48.232 17.46 47.016 14.058 47.016z"/>
            <path stroke="#FAAC2B" stroke-width=".25" d="M14.058 48.232L17.46 48.232 17.46 47.016 14.058 47.016z"/>
            <path fill="#40AC48" d="M20.647 48.232L30.639 48.232 30.639 47.016 20.647 47.016z"/>
            <path stroke="#40AC48" stroke-width=".25" d="M20.647 48.232L30.639 48.232 30.639 47.016 20.647 47.016z"/>
            <rect width="22.025" height="16.279" x=".684" y="44.684" fill="#EBF6EC" stroke="#40AC48" stroke-width="1.368" rx="1.231"/>
            <path fill="#40AC48" fill-rule="nonzero" d="M9.85 49.472c-.247 0-.274.279-.274.399v6.041c0 .12.027.4.274.4.067 0 .141-.02.22-.06l6.138-3.155c.144-.074.208-.156.208-.205 0-.05-.064-.132-.208-.205l-6.138-3.154c-.079-.04-.153-.061-.22-.061z"/>
        </g>
    </g>
</svg>
