<svg xmlns="http://www.w3.org/2000/svg" width="98" height="87" viewBox="0 0 98 87">
    <g fill="none" fill-rule="evenodd">
        <path fill="#E31D74" fill-opacity=".1" d="M30.616 11.98C2.546-5.513-3.05 27.335 1.333 44.885 6.795 66.759-7.172 76.8 5.986 83.656c13.654 7.115 29.673-18.047 62.16-14.015 42.178 5.234 37.085-43.78-7.172-44.323-11.14-.137-18.373-5.87-30.358-13.339z" transform="translate(0 2)"/>
        <g fill-rule="nonzero">
            <path fill="#E31D74" d="M24.974.001v2.173c-4.55.528-8.742 2.23-12.265 4.796C6.219 11.697 2 19.356 2 28c0 14.36 11.64 26 26 26 9.207 0 17.297-4.786 21.917-12.006l2.191.933C47.148 50.963 38.28 56.32 28.164 56.32h-.01C12.605 56.319 0 43.669 0 28.071.001 13.55 10.918 1.586 24.974 0z" transform="translate(0 2) translate(23)"/>
            <path stroke="#E31D74" stroke-width="2" d="M31.353.001V6.46C41.861 8.014 49.93 17.095 49.93 28.07c0 2.283-.351 4.48-.997 6.549l5.905 2.513c.963-2.843 1.482-5.896 1.482-9.061 0-14.52-10.917-26.478-24.966-28.07z" transform="translate(0 2) translate(23)"/>
            <g fill="#E31D74" stroke="#E31D74" stroke-width="1.04">
                <path d="M8.818 0c2.257 0 4.097 1.84 4.097 4.097 0 2.258-1.84 4.097-4.097 4.097-2.258 0-4.098-1.84-4.098-4.097C4.72 1.84 6.56 0 8.818 0zM.456 18.425c.418-4.264 4.014-7.609 8.445-7.609 4.432 0 8.027 3.345 8.445 7.61.418 4.264-17.308 4.264-16.89 0z" transform="translate(0 2) translate(23) translate(20 19)"/>
            </g>
        </g>
    </g>
</svg>
