<svg xmlns="http://www.w3.org/2000/svg" xmlns:xlink="http://www.w3.org/1999/xlink" width="357" height="295" viewBox="0 0 357 295">
    <defs>
        <circle id="a" cx="3.779" cy="3.779" r="3.543"/>
        <linearGradient id="e" x1="47.773%" x2="50%" y1="24.389%" y2="100%">
            <stop offset="0%" stop-color="#FFF"/>
            <stop offset="100%" stop-color="#FFF" stop-opacity="0"/>
        </linearGradient>
        <path id="d" d="M5.268 35.43h3.599a2.952 2.952 0 0 0 2.946-2.756c.062-.93.113-1.567.153-1.912.108-.93.52-3.264.952-4.063.289-.533.952-2.046 1.99-4.538.26-.778.499-1.355.715-1.73.324-.561.562-1.599 0-2.312-.375-.475-.909-1.217-1.601-2.226l-.476-.389-1.147-2.787c-.488-.951-1.144-1.434-1.97-1.448L9.695 9.95c-.75-.937-1.558-1.052-2.424-.346l-.043-1.707a351.578 351.578 0 0 1-.173-2.378c-.014-.23.108-.922.368-2.074.115-1.801.065-2.81-.152-3.026-.324-.324-1.081-.756-1.817 0-.49.505-.851 2.104-1.082 4.798l-.454 2.615c-.03.562-.065.972-.109 1.232-.043.259-.209 1.325-.497 3.198-.693-.029-1.19.353-1.493 1.145-.303.793-.91 2.262-1.818 4.409.029 1.239.123 2.37.281 3.393.238 1.534.758 3.673 1.385 5.165.628 1.49.65 2.744.628 4.192-.008.493 0 1.156.023 1.99a2.952 2.952 0 0 0 2.951 2.872z"/>
        <filter id="c" width="128.2%" height="112.7%" x="-14.1%" y="-3.6%" filterUnits="objectBoundingBox">
            <feMorphology in="SourceAlpha" operator="dilate" radius=".25" result="shadowSpreadOuter1"/>
            <feOffset dy="1" in="shadowSpreadOuter1" result="shadowOffsetOuter1"/>
            <feGaussianBlur in="shadowOffsetOuter1" result="shadowBlurOuter1" stdDeviation=".5"/>
            <feComposite in="shadowBlurOuter1" in2="SourceAlpha" operator="out" result="shadowBlurOuter1"/>
            <feColorMatrix in="shadowBlurOuter1" values="0 0 0 0 0 0 0 0 0 0 0 0 0 0 0 0 0 0 0.3 0"/>
        </filter>
        <linearGradient id="f" x1="49.745%" x2="50.255%" y1="100%" y2="0%">
            <stop offset="0%" stop-color="#FFF" stop-opacity="0"/>
            <stop offset="100%"/>
        </linearGradient>
        <linearGradient id="g" x1="46.175%" x2="53.825%" y1="100%" y2="0%">
            <stop offset="0%" stop-color="#FFF" stop-opacity="0"/>
            <stop offset="100%"/>
        </linearGradient>
        <linearGradient id="h" x1="0%" y1="51.02%" y2="48.98%">
            <stop offset="0%" stop-color="#FFF" stop-opacity="0"/>
            <stop offset="100%"/>
        </linearGradient>
        <linearGradient id="i" x1="46.413%" x2="53.587%" y1="100%" y2="0%">
            <stop offset="0%" stop-color="#FFF" stop-opacity="0"/>
            <stop offset="100%"/>
        </linearGradient>
        <linearGradient id="j" x1="0%" y1="55.556%" y2="44.444%">
            <stop offset="0%" stop-color="#FFF" stop-opacity="0"/>
            <stop offset="100%"/>
        </linearGradient>
        <linearGradient id="k" x1="0%" y1="51.183%" y2="48.817%">
            <stop offset="0%" stop-color="#FFF" stop-opacity="0"/>
            <stop offset="100%"/>
        </linearGradient>
        <linearGradient id="l" x1="50%" x2="50%" y1="22.303%" y2="100%">
            <stop offset="0%" stop-color="#FFF"/>
            <stop offset="100%" stop-color="#FFF" stop-opacity="0"/>
        </linearGradient>
    </defs>
    <g fill="none" fill-rule="evenodd">
        <g fill="#22D7DA">
            <path d="M115.103 1.799a1.799 1.799 0 1 0 3.598 0 1.799 1.799 0 0 0-3.598 0M104.312 1.799a1.799 1.799 0 1 0 3.597 0 1.799 1.799 0 0 0-3.597 0M94.42 1.799a1.799 1.799 0 1 0 3.598 0 1.799 1.799 0 0 0-3.597 0M83.63 1.799a1.799 1.799 0 1 0 3.597 0 1.799 1.799 0 0 0-3.597 0M73.738 1.799a1.798 1.798 0 1 0 3.597 0 1.798 1.798 0 0 0-3.597 0M115.103 11.692a1.799 1.799 0 1 0 3.598 0 1.799 1.799 0 0 0-3.598 0M104.312 11.692a1.799 1.799 0 1 0 3.597 0 1.799 1.799 0 0 0-3.597 0M94.42 11.692a1.799 1.799 0 1 0 3.598 0 1.799 1.799 0 0 0-3.597 0M83.63 11.692a1.799 1.799 0 1 0 3.597 0 1.799 1.799 0 0 0-3.597 0M73.738 11.692a1.798 1.798 0 1 0 3.597.001 1.798 1.798 0 0 0-3.597 0M115.103 22.935c0 1.241.805 2.248 1.8 2.248.992 0 1.797-1.007 1.797-2.248 0-1.242-.805-2.249-1.797-2.249-.995 0-1.8 1.007-1.8 2.249M104.312 22.935c0 1.241.805 2.248 1.8 2.248.992 0 1.797-1.007 1.797-2.248 0-1.242-.805-2.249-1.798-2.249-.994 0-1.799 1.007-1.799 2.249M94.42 22.935c0 1.241.806 2.248 1.8 2.248.993 0 1.798-1.007 1.798-2.248 0-1.242-.805-2.249-1.799-2.249-.993 0-1.798 1.007-1.798 2.249M83.63 22.935c0 1.241.805 2.248 1.799 2.248.993 0 1.798-1.007 1.798-2.248 0-1.242-.805-2.249-1.798-2.249-.994 0-1.8 1.007-1.8 2.249M73.738 22.935c0 1.241.805 2.248 1.799 2.248.993 0 1.798-1.007 1.798-2.248 0-1.242-.805-2.249-1.798-2.249-.994 0-1.799 1.007-1.799 2.249M115.103 32.828c0 1.241.805 2.248 1.8 2.248.992 0 1.797-1.007 1.797-2.248 0-1.242-.805-2.249-1.797-2.249-.995 0-1.8 1.007-1.8 2.249M104.312 32.828c0 1.241.805 2.248 1.8 2.248.992 0 1.797-1.007 1.797-2.248 0-1.242-.805-2.249-1.798-2.249-.994 0-1.799 1.007-1.799 2.249M94.42 32.828c0 1.241.806 2.248 1.8 2.248.993 0 1.798-1.007 1.798-2.248 0-1.242-.805-2.249-1.799-2.249-.993 0-1.798 1.007-1.798 2.249M83.63 32.828c0 1.241.805 2.248 1.799 2.248.993 0 1.798-1.007 1.798-2.248 0-1.242-.805-2.249-1.798-2.249-.994 0-1.8 1.007-1.8 2.249M73.738 32.828c0 1.241.805 2.248 1.799 2.248.993 0 1.798-1.007 1.798-2.248 0-1.242-.805-2.249-1.798-2.249-.994 0-1.799 1.007-1.799 2.249M115.103 43.17a1.799 1.799 0 1 0 3.598 0 1.799 1.799 0 0 0-3.598 0M104.312 43.17a1.799 1.799 0 1 0 3.598 0 1.799 1.799 0 0 0-3.598 0M94.42 43.17a1.799 1.799 0 1 0 3.598 0 1.799 1.799 0 0 0-3.597 0M83.63 43.17a1.799 1.799 0 1 0 3.598 0 1.799 1.799 0 0 0-3.598 0M73.738 43.17a1.799 1.799 0 1 0 3.597.001 1.799 1.799 0 0 0-3.597 0M115.103 53.064a1.799 1.799 0 1 0 3.598 0 1.799 1.799 0 0 0-3.598 0M104.312 53.064a1.799 1.799 0 1 0 3.597 0 1.799 1.799 0 0 0-3.597 0M94.42 53.064a1.799 1.799 0 1 0 3.598 0 1.799 1.799 0 0 0-3.597 0M83.63 53.064a1.799 1.799 0 1 0 3.597 0 1.799 1.799 0 0 0-3.597 0M73.738 53.064a1.798 1.798 0 1 0 3.597 0 1.798 1.798 0 0 0-3.597 0M62.947 1.799a1.798 1.798 0 1 0 3.597 0 1.798 1.798 0 0 0-3.597 0M62.947 11.692a1.798 1.798 0 1 0 3.597.001 1.798 1.798 0 0 0-3.597 0M62.947 22.935c0 1.241.805 2.248 1.799 2.248.993 0 1.798-1.007 1.798-2.248 0-1.242-.805-2.249-1.798-2.249-.994 0-1.799 1.007-1.799 2.249M62.947 32.828c0 1.241.805 2.248 1.799 2.248.993 0 1.798-1.007 1.798-2.248 0-1.242-.805-2.249-1.798-2.249-.994 0-1.799 1.007-1.799 2.249M62.947 43.17a1.799 1.799 0 1 0 3.597.001 1.799 1.799 0 0 0-3.597 0M62.947 53.064a1.798 1.798 0 1 0 3.597 0 1.798 1.798 0 0 0-3.597 0"/>
            <g>
                <path d="M52.156 1.799a1.799 1.799 0 1 0 3.597 0 1.799 1.799 0 0 0-3.597 0M41.365 1.799a1.799 1.799 0 1 0 3.597 0 1.799 1.799 0 0 0-3.597 0M31.474 1.799a1.799 1.799 0 1 0 3.597 0 1.799 1.799 0 0 0-3.597 0M20.683 1.799a1.799 1.799 0 1 0 3.597 0 1.799 1.799 0 0 0-3.597 0M10.79 1.799a1.798 1.798 0 1 0 3.598 0 1.798 1.798 0 0 0-3.597 0M52.156 11.692a1.799 1.799 0 1 0 3.597 0 1.799 1.799 0 0 0-3.597 0M41.365 11.692a1.799 1.799 0 1 0 3.597 0 1.799 1.799 0 0 0-3.597 0M31.474 11.692a1.799 1.799 0 1 0 3.597 0 1.799 1.799 0 0 0-3.597 0M20.683 11.692a1.799 1.799 0 1 0 3.597 0 1.799 1.799 0 0 0-3.597 0M10.79 11.692a1.798 1.798 0 1 0 3.598.001 1.798 1.798 0 0 0-3.597 0M52.156 22.935c0 1.241.805 2.248 1.8 2.248.992 0 1.797-1.007 1.797-2.248 0-1.242-.805-2.249-1.798-2.249-.994 0-1.799 1.007-1.799 2.249M41.365 22.935c0 1.241.805 2.248 1.8 2.248.992 0 1.797-1.007 1.797-2.248 0-1.242-.805-2.249-1.798-2.249-.994 0-1.799 1.007-1.799 2.249M31.474 22.935c0 1.241.805 2.248 1.798 2.248.994 0 1.799-1.007 1.799-2.248 0-1.242-.805-2.249-1.799-2.249-.993 0-1.798 1.007-1.798 2.249M20.683 22.935c0 1.241.805 2.248 1.799 2.248.993 0 1.798-1.007 1.798-2.248 0-1.242-.805-2.249-1.798-2.249-.994 0-1.8 1.007-1.8 2.249M10.79 22.935c0 1.241.806 2.248 1.8 2.248.993 0 1.798-1.007 1.798-2.248 0-1.242-.805-2.249-1.798-2.249-.994 0-1.8 1.007-1.8 2.249M52.156 32.828c0 1.241.805 2.248 1.8 2.248.992 0 1.797-1.007 1.797-2.248 0-1.242-.805-2.249-1.798-2.249-.994 0-1.799 1.007-1.799 2.249M41.365 32.828c0 1.241.805 2.248 1.8 2.248.992 0 1.797-1.007 1.797-2.248 0-1.242-.805-2.249-1.798-2.249-.994 0-1.799 1.007-1.799 2.249M31.474 32.828c0 1.241.805 2.248 1.798 2.248.994 0 1.799-1.007 1.799-2.248 0-1.242-.805-2.249-1.799-2.249-.993 0-1.798 1.007-1.798 2.249M20.683 32.828c0 1.241.805 2.248 1.799 2.248.993 0 1.798-1.007 1.798-2.248 0-1.242-.805-2.249-1.798-2.249-.994 0-1.8 1.007-1.8 2.249M10.79 32.828c0 1.241.806 2.248 1.8 2.248.993 0 1.798-1.007 1.798-2.248 0-1.242-.805-2.249-1.798-2.249-.994 0-1.8 1.007-1.8 2.249M52.156 43.17a1.799 1.799 0 1 0 3.598 0 1.799 1.799 0 0 0-3.598 0M41.365 43.17a1.799 1.799 0 1 0 3.598 0 1.799 1.799 0 0 0-3.598 0M31.474 43.17a1.799 1.799 0 1 0 3.597 0 1.799 1.799 0 0 0-3.597 0M20.683 43.17a1.799 1.799 0 1 0 3.598 0 1.799 1.799 0 0 0-3.598 0M10.79 43.17a1.799 1.799 0 1 0 3.598.001 1.799 1.799 0 0 0-3.597 0M52.156 53.064a1.799 1.799 0 1 0 3.597 0 1.799 1.799 0 0 0-3.597 0M41.365 53.064a1.799 1.799 0 1 0 3.597 0 1.799 1.799 0 0 0-3.597 0M31.474 53.064a1.799 1.799 0 1 0 3.597 0 1.799 1.799 0 0 0-3.597 0M20.683 53.064a1.799 1.799 0 1 0 3.597 0 1.799 1.799 0 0 0-3.597 0M10.79 53.064a1.798 1.798 0 1 0 3.598 0 1.798 1.798 0 0 0-3.597 0M0 1.799a1.798 1.798 0 1 0 3.597 0A1.798 1.798 0 0 0 0 1.8M0 11.692a1.798 1.798 0 1 0 3.597.001 1.798 1.798 0 0 0-3.597 0M0 22.935c0 1.241.805 2.248 1.799 2.248.993 0 1.798-1.007 1.798-2.248 0-1.242-.805-2.249-1.798-2.249C.805 20.686 0 21.693 0 22.935M0 32.828c0 1.241.805 2.248 1.799 2.248.993 0 1.798-1.007 1.798-2.248 0-1.242-.805-2.249-1.798-2.249C.805 30.58 0 31.586 0 32.828M0 43.17a1.799 1.799 0 1 0 3.597.001 1.799 1.799 0 0 0-3.597 0M0 53.064a1.798 1.798 0 1 0 3.597 0 1.798 1.798 0 0 0-3.597 0"/>
            </g>
        </g>
        <g transform="matrix(-1 0 0 1 357 16.189)">
            <path fill="#FFF" d="M10.629 0h274.835c5.87 0 10.629 4.759 10.629 10.629V267.18c0 5.87-4.759 10.63-10.63 10.63H10.63C4.759 277.81 0 273.05 0 267.18V10.63C0 4.759 4.759 0 10.629 0z"/>
            <path fill="#D5EBF6" d="M18.912 54.035h257.087v97.498H18.912z"/>
            <path fill="#EF9426" d="M10.629 0h274.835c5.87 0 10.629 4.759 10.629 10.629v11.69H0v-11.69C0 4.759 4.759 0 10.629 0z"/>
            <path fill="#E73A3A" d="M272.82 12.628c0 2.383 1.943 4.315 4.34 4.315s4.34-1.932 4.34-4.315c0-2.383-1.943-4.315-4.34-4.315s-4.34 1.932-4.34 4.315"/>
            <path fill="#EED467" d="M260.41 12.628c0 2.383 1.942 4.315 4.338 4.315 2.397 0 4.34-1.932 4.34-4.315 0-2.383-1.943-4.315-4.34-4.315-2.396 0-4.338 1.932-4.338 4.315"/>
            <path fill="#63CD63" d="M247.999 12.628c0 2.383 1.942 4.315 4.338 4.315 2.397 0 4.34-1.932 4.34-4.315 0-2.383-1.943-4.315-4.34-4.315-2.396 0-4.338 1.932-4.338 4.315"/>
            <ellipse cx="222.217" cy="210.853" fill="#FF8C72" rx="18.912" ry="18.795"/>
            <ellipse cx="147.16" cy="210.853" fill="#FFE07C" rx="18.912" ry="18.795"/>
            <ellipse cx="71.511" cy="210.853" fill="#545F75" rx="18.912" ry="18.795"/>
            <path fill="#535F74" d="M124.111 67.543h51.417v6.461h-51.417z"/>
            <path fill="#ACB3B8" d="M117.61 168.565h60.282v6.461H117.61z"/>
            <path fill="#FFF" d="M124.111 83.401h115.837v2.937H124.111zM124.111 92.799h115.837v2.937H124.111zM124.111 102.196h115.837v2.937H124.111zM124.111 111.594h115.837v2.937H124.111z"/>
            <path fill="#BFDCE8" d="M56.145 120.991h48.462v2.937H56.145zM56.145 130.388h42.552v2.937H56.145z"/>
            <path fill="#E1E6EA" d="M128.248 241.982h38.415v2.937h-38.415zM202.714 241.982h38.415v2.937h-38.415zM52.599 241.982h38.415v2.937H52.599zM121.747 234.346h51.417v2.937h-51.417zM196.213 234.346h51.417v2.937h-51.417zM46.098 234.346h51.417v2.937H46.098z"/>
            <path fill="#FF8C71" d="M124.702 123.34h46.689v12.334h-46.689z"/>
            <path fill="#ACB3B8" d="M56.145 251.966h31.323v8.81H56.145zM131.794 251.966h31.323v8.81h-31.323zM206.26 251.966h31.323v8.81H206.26z"/>
            <g fill="#E1E6EA">
                <path d="M92.788 38.177h18.32v2.937h-18.32zM123.52 38.177h18.32v2.937h-18.32zM154.252 38.177h18.32v2.937h-18.32zM184.985 38.177h18.32v2.937h-18.32z"/>
            </g>
            <path fill="#ACB3B8" d="M18.912 35.24h15.957v2.349H18.912z"/>
            <g fill="#ACB3B8">
                <path d="M18.912 39.939H34.87v2.349H18.912zM18.912 44.05H34.87v2.349H18.912z"/>
            </g>
            <g fill="#FFF">
                <path d="M58.875 67.543h42.956L80.353 88.652zM58.875 114.493h42.956L80.353 93.385zM104.2 111.993v-42.69L82.96 90.649zM55.774 69.304v42.69l21.24-21.346z"/>
            </g>
        </g>
        <path fill="#FFF" d="M133.01 154.084v140.19H14.218v-140.19c0-11.446 8.069-20.74 18.006-20.74h82.78c9.937 0 18.006 9.294 18.006 20.74z"/>
        <path fill="#D5EBF6" d="M133.01 144.622v76.235H14.218v-76.235c0-6.224 8.069-11.278 18.006-11.278h82.78c9.937 0 18.006 5.054 18.006 11.278z"/>
        <g transform="rotate(-45 307.036 -4.85)">
            <mask id="b" fill="#fff">
                <use xlink:href="#a"/>
            </mask>
            <g fill="#2F70FF" mask="url(#b)" opacity=".5">
                <path d="M0-1.968h7.873v11.81H0z"/>
            </g>
        </g>
        <g transform="rotate(-45 311.472 -3.012)">
            <use fill="#000" filter="url(#c)" xlink:href="#d"/>
            <use fill="url(#e)" stroke="#000" stroke-width=".5" xlink:href="#d"/>
        </g>
        <g stroke-width=".5">
            <path stroke="url(#f)" d="M6.083 7.66c-.23-2.751-.35-4.444-.363-5.078" transform="rotate(-45 318.972 -8.29)"/>
            <path stroke="url(#g)" d="M10.557 10.2c-.684-2.877-1.208-4.772-1.572-5.683" transform="rotate(-45 318.972 -8.29)"/>
            <path stroke="url(#h)" stroke-linecap="round" d="M3.06 1.252l.846-.121" opacity=".2" transform="rotate(-45 318.972 -8.29)"/>
            <path stroke="url(#i)" d="M1.85 5.242C.886 9.112.281 11.37.037 12.014" transform="rotate(-45 318.972 -8.29)"/>
            <path stroke="url(#j)" stroke-linecap="round" d="M3.06.647c.262-.334.546-.524.852-.57.306-.046.626-.046.961 0" opacity=".2" transform="rotate(-45 318.972 -8.29)"/>
            <path stroke="url(#k)" stroke-linecap="round" d="M3.785 1.494c.27.161.503.242.701.242.198 0 .489-.04.871-.121" opacity=".2" transform="rotate(-45 318.972 -8.29)"/>
        </g>
        <path fill="url(#l)" stroke="#000" stroke-width=".5" d="M5.694.633c-.06.616.132 1.008.574 1.176.442.168.788.168 1.038 0a.98.98 0 0 0 .177-.756C7.417.633 7.288.17 6.59.023c-.465-.097-.764.106-.896.61z" transform="rotate(-45 311.472 -3.012)"/>
        <path fill="#BFDCE8" d="M49.53 205.586h47.576c2.856 0 5.172-2.3 5.172-5.14V161.39c0-2.838-2.316-5.14-5.172-5.14H49.531c-2.857 0-5.172 2.302-5.172 5.14v39.058c0 2.838 2.315 5.139 5.172 5.139"/>
        <path fill="#FFF" d="M49.53 203.237h47.576c2.856 0 5.172-2.301 5.172-5.14V159.04c0-2.839-2.316-5.14-5.172-5.14H49.531c-2.856 0-5.172 2.301-5.172 5.14v39.057c0 2.839 2.316 5.14 5.172 5.14"/>
        <path fill="#E1E6EA" d="M113.507 246.112H33.829v2.582h79.678zM113.507 255.51H33.829v2.582h79.678zM113.507 264.32H33.829v2.582h79.678zM113.507 273.717H33.829v2.582h79.678zM113.507 282.527H33.829v2.582h79.678z"/>
        <g>
            <path fill="#545F75" d="M81.165 234.284c0 1.9 1.55 3.442 3.464 3.442 1.913 0 3.464-1.541 3.464-3.442 0-1.902-1.551-3.443-3.464-3.443s-3.464 1.541-3.464 3.443"/>
            <path fill="#FFE07C" d="M69.906 234.284c0 1.9 1.551 3.442 3.464 3.442 1.914 0 3.465-1.541 3.465-3.442 0-1.902-1.551-3.443-3.465-3.443-1.913 0-3.464 1.541-3.464 3.443"/>
            <path fill="#FF8C72" d="M58.647 234.284c0 1.9 1.551 3.442 3.464 3.442s3.465-1.541 3.465-3.442c0-1.902-1.552-3.443-3.465-3.443-1.913 0-3.464 1.541-3.464 3.443"/>
        </g>
        <g fill="#E1E6EA">
            <path d="M88.822 161.776H56.908l15.957 15.858zM88.822 197.016H56.908l15.957-15.858zM55.135 195.254V162.95l15.957 16.152zM91.777 162.95v32.304L75.82 179.102z"/>
        </g>
    </g>
</svg>
