<svg xmlns="http://www.w3.org/2000/svg" width="98" height="86" viewBox="0 0 98 86">
    <g fill="none" fill-rule="evenodd">
        <path fill="#026BB0" d="M30.616 11.979C2.546-5.512-3.05 27.336 1.333 44.886c5.462 21.873-8.505 31.916 4.652 38.77C19.64 90.771 35.66 65.609 68.146 69.641c42.178 5.234 37.085-43.781-7.173-44.324-11.14-.135-18.372-5.87-30.357-13.338" opacity=".102" transform="translate(0 1)"/>
        <g stroke="#026BB0">
            <g transform="translate(0 1) translate(26) translate(0 3)">
                <g fill="#026BB0" fill-rule="nonzero" stroke-width=".52">
                    <path d="M.78 38.798h9.26c.23 0 .417-.186.417-.416V29.12c0-.23-.187-.416-.417-.416H.78c-.23 0-.416.186-.416.416v9.26c0 .23.186.417.416.417zm.416-9.26h8.428v8.427H1.196v-8.428zM13.993 17.52h18.519c.23 0 .416-.186.416-.416 0-.23-.187-.416-.416-.416H13.993c-.23 0-.416.186-.416.416 0 .23.186.417.416.417zM13.993 3.424h18.519c.23 0 .416-.186.416-.416 0-.23-.187-.416-.416-.416H13.993c-.23 0-.416.186-.416.416 0 .23.186.416.416.416zM13.993 21.597H28.35c.23 0 .416-.186.416-.416 0-.23-.186-.416-.416-.416H13.993c-.23 0-.416.186-.416.416 0 .23.186.416.416.416zM13.993 7.5H28.35c.23 0 .416-.185.416-.415 0-.23-.186-.417-.416-.417H13.993c-.23 0-.416.187-.416.417 0 .23.186.416.416.416zM13.993 32.13h18.519c.23 0 .416-.187.416-.417 0-.23-.187-.416-.416-.416H13.993c-.23 0-.416.186-.416.416 0 .23.186.417.416.417zM13.993 36.206H28.35c.23 0 .416-.186.416-.416 0-.23-.186-.417-.416-.417H13.993c-.23 0-.416.187-.416.417 0 .23.186.416.416.416z" transform="translate(5.202 9.363)"/>
                    <path d="M7.548 31.702L4.33 34.918 3.273 33.86c-.163-.163-.426-.163-.589 0-.162.163-.162.426 0 .588l1.353 1.353c.08.081.187.122.294.122.106 0 .213-.04.294-.122l3.511-3.51c.163-.163.163-.427 0-.59-.162-.162-.426-.162-.588 0zM.78 24.19h9.26c.23 0 .417-.187.417-.417v-9.26c0-.23-.187-.417-.417-.417H.78c-.23 0-.416.186-.416.416v9.26c0 .23.186.417.416.417zm.416-9.261h8.428v8.428H1.196v-8.428zM.78 10.093h9.26c.23 0 .417-.186.417-.416V.417c0-.23-.187-.417-.417-.417H.78C.55 0 .364.186.364.416v9.26c0 .23.186.417.416.417zm.416-9.26h8.428V9.26H1.196V.832z" transform="translate(5.202 9.363)"/>
                    <path d="M7.615 16.937c-.162-.162-.426-.162-.588 0L5.41 18.554l-1.617-1.617c-.162-.162-.426-.162-.588 0-.163.163-.163.426 0 .589l1.617 1.617-1.617 1.617c-.163.162-.163.425 0 .588.081.081.188.122.294.122.107 0 .213-.04.294-.122l1.617-1.617 1.617 1.617c.081.081.188.122.294.122.107 0 .213-.04.294-.122.163-.163.163-.426 0-.588L6 19.143l1.616-1.617c.163-.163.163-.426 0-.589z" transform="translate(5.202 9.363)"/>
                </g>
                <rect width="42.863" height="55.347" x=".936" y=".936" stroke-width="1.873" rx="3.121"/>
            </g>
            <path stroke-width="1.601" d="M7.344 0h37.951c1.473 0 2.668 1.194 2.668 2.668v51.185h0" transform="translate(0 1) translate(26)"/>
        </g>
    </g>
</svg>
