<svg xmlns="http://www.w3.org/2000/svg" width="98" height="85" viewBox="0 0 98 85">
    <g fill="#FAAB2B" fill-rule="evenodd">
        <path d="M30.616 11.98C2.546-5.513-3.05 27.335 1.333 44.885 6.795 66.759-7.172 76.8 5.986 83.656c13.654 7.115 29.673-18.047 62.16-14.015 42.178 5.234 37.085-43.78-7.172-44.323-11.14-.137-18.373-5.87-30.358-13.339z" opacity=".1"/>
        <g>
            <g transform="translate(20) translate(18.637 21.091)">
                <path fill-rule="nonzero" d="M15.974 6.79c1.864 0 3.395-1.532 3.395-3.395C19.369 1.53 17.839 0 15.974 0c-1.863 0-3.394 1.53-3.394 3.395 0 .332.066.665.2.998L5.99 8.12c-.599-.732-1.53-1.264-2.595-1.264C1.53 6.856 0 8.386 0 10.25s1.53 3.395 3.395 3.395c1.065 0 1.996-.466 2.595-1.198l6.79 3.727c-.067.333-.2.666-.2.998 0 1.864 1.53 3.395 3.394 3.395s3.395-1.53 3.395-3.395c0-1.863-1.53-3.394-3.395-3.394-1.065 0-1.996.466-2.595 1.265l-6.79-3.728c.134-.333.2-.665.2-.998 0-.333-.066-.666-.2-.999l6.79-3.727c.599.732 1.53 1.198 2.595 1.198zm0 8.32c1.132 0 2.064.931 2.064 2.062 0 1.132-.932 2.064-2.064 2.064-1.131 0-2.063-.932-2.063-2.064 0-1.131.932-2.063 2.063-2.063zm-12.58-2.73c-1.131 0-2.063-.932-2.063-2.063 0-1.132.932-2.064 2.064-2.064 1.131 0 2.063.932 2.063 2.064 0 1.131-.932 2.063-2.063 2.063zm12.58-11.049c1.132 0 2.064.932 2.064 2.064 0 1.131-.932 2.063-2.064 2.063-1.131 0-2.063-.932-2.063-2.063 0-1.132.932-2.064 2.063-2.064z"/>
                <circle cx="16.141" cy="17.289" r="2.496"/>
                <circle cx="3.661" cy="10.217" r="2.496"/>
                <circle cx="16.141" cy="3.561" r="2.496"/>
            </g>
            <path fill-rule="nonzero" d="M33.946 50.42H62.4c3.328.082 5.907-2.746 5.907-5.991V12.23c0-1.248-.998-2.246-2.246-2.246H58.49v-.416c0-1.997-1.664-3.827-3.828-3.827h-31.2c-.915 0-1.747-.416-2.33-1.082l-2.495-2.995C17.805.582 16.39 0 15.142 0H3.827C1.664 0 0 1.747 0 3.827v41.184c0 2.995 2.496 5.491 5.491 5.491h26.79l1.665-.083zm32.032-38.772c.332 0 .582.25.582.582v32.282c0 2.33-1.914 4.41-4.326 4.326-2.08 0-3.828-1.664-3.828-3.827V11.648h7.572zM1.664 3.744c0-1.248.998-2.163 2.163-2.163h11.315c.916 0 1.664.333 2.247 1.081v.084l2.413 2.912c.499.832 1.996 1.83 3.66 1.83H54.58c1.165 0 2.163.998 2.163 2.163v4.909H1.664V3.744zm0 41.184V16.141h55.162v28.87c0 1.415.582 2.829 1.497 3.827H5.408c-2.08-.083-3.744-1.747-3.744-3.91z" transform="translate(20)"/>
        </g>
    </g>
</svg>
