<?xml version="1.0" encoding="UTF-8"?>
<svg width="414px" height="341px" viewBox="0 0 414 341" version="1.1" xmlns="http://www.w3.org/2000/svg" xmlns:xlink="http://www.w3.org/1999/xlink">
    <!-- Generator: sketchtool 53.2 (72643) - https://sketchapp.com -->
    <title>74A95344-4B6C-44C1-A1FB-7C00B1C4DF39</title>
    <desc>Created with sketchtool.</desc>
    <defs>
        <path d="M11.8097987,0 L317.458596,0 C323.980967,-1.19814025e-15 329.268394,5.287427 329.268394,11.8097987 L329.268394,297.076337 C329.268394,303.598708 323.980967,308.886135 317.458596,308.886135 L11.8097987,308.886135 C5.287427,308.886135 -4.53031035e-15,303.598708 -5.32907052e-15,297.076337 L1.77635684e-15,11.8097987 C9.77596671e-16,5.287427 5.287427,-4.13093027e-15 11.8097987,-5.32907052e-15 Z" id="path-1"></path>
        <filter x="-7.6%" y="-7.4%" width="115.2%" height="116.2%" filterUnits="objectBoundingBox" id="filter-2">
            <feOffset dx="0" dy="2" in="SourceAlpha" result="shadowOffsetOuter1"></feOffset>
            <feGaussianBlur stdDeviation="8" in="shadowOffsetOuter1" result="shadowBlurOuter1"></feGaussianBlur>
            <feColorMatrix values="0 0 0 0 0.846693841   0 0 0 0 0.846693841   0 0 0 0 0.846693841  0 0 0 0.5 0" type="matrix" in="shadowBlurOuter1"></feColorMatrix>
        </filter>
        <filter x="-27.8%" y="-19.6%" width="154.1%" height="139.1%" filterUnits="objectBoundingBox" id="filter-3">
            <feOffset dx="0" dy="2" in="SourceAlpha" result="shadowOffsetOuter1"></feOffset>
            <feGaussianBlur stdDeviation="8" in="shadowOffsetOuter1" result="shadowBlurOuter1"></feGaussianBlur>
            <feColorMatrix values="0 0 0 0 0.847058824   0 0 0 0 0.847058824   0 0 0 0 0.847058824  0 0 0 1 0" type="matrix" in="shadowBlurOuter1" result="shadowMatrixOuter1"></feColorMatrix>
            <feMerge>
                <feMergeNode in="shadowMatrixOuter1"></feMergeNode>
                <feMergeNode in="SourceGraphic"></feMergeNode>
            </feMerge>
        </filter>
        <circle id="path-4" cx="4.19903993" cy="4.19903993" r="3.93659993"></circle>
        <linearGradient x1="47.7730389%" y1="24.389227%" x2="50%" y2="100%" id="linearGradient-6">
            <stop stop-color="#FFFFFF" offset="0%"></stop>
            <stop stop-color="#FFFFFF" stop-opacity="0" offset="100%"></stop>
        </linearGradient>
        <path d="M5.8533644,39.3659993 L9.85181251,39.3659907 C11.5786805,39.3659907 13.0098733,38.0272378 13.1250048,36.3042121 C13.193985,35.2718734 13.2508387,34.5636246 13.2955658,34.1794659 C13.4157788,33.1469616 13.8725885,30.5536948 14.3534408,29.6652609 C14.674009,29.0729715 15.4113158,27.3921505 16.5653613,24.6227978 C16.8538727,23.7583755 17.1183415,23.1180628 17.3587676,22.7018595 C17.7194068,22.0775545 17.9838756,20.9249915 17.3587676,20.1326045 C16.942029,19.6043464 16.3489778,18.7799437 15.5796141,17.6593964 L15.0506766,17.2271853 L13.7764181,14.1296722 C13.2343176,13.0731562 12.505025,12.5368942 11.5885401,12.5208864 L10.7710913,11.0561709 C9.93761396,10.0156627 9.04002302,9.88760012 8.07831844,10.6719833 L8.03023321,8.77505668 C7.91803434,7.27032167 7.85392071,6.38989161 7.8378923,6.1337665 C7.82186389,5.87764139 7.95810537,5.10926606 8.24661674,3.82864052 C8.37484402,1.82766311 8.31874458,0.707115759 8.07831844,0.466998469 C7.71767922,0.106822535 6.87618772,-0.373412043 6.05873883,0.466998469 C5.5137729,1.02727214 5.11306266,2.80414009 4.85660811,5.79760229 L4.35171321,8.70302149 C4.31965639,9.32732645 4.27958536,9.7835493 4.23150014,10.07169 C4.18341491,10.3598308 3.9990882,11.5444094 3.67852,13.6254259 C2.90915634,13.5934103 2.35617621,14.0176175 2.01957961,14.8980476 C1.68298301,15.7784776 1.00978981,17.4112752 0,19.7964403 C0.0320568192,21.1731127 0.136241482,22.4297265 0.312553987,23.5662817 C0.577022746,25.2711145 1.15404549,27.6482756 1.85128131,29.3050849 C2.54851713,30.9618942 2.57255974,32.3545745 2.54851713,33.9633603 C2.54033649,34.5107588 2.5488569,35.2478875 2.57407835,36.1747465 L2.5740904,36.1747462 C2.622428,37.9510968 4.07635623,39.3659993 5.8533644,39.3659993 Z" id="path-7"></path>
        <filter x="-18.3%" y="-3.2%" width="125.4%" height="111.5%" filterUnits="objectBoundingBox" id="filter-8">
            <feMorphology radius="0.25" operator="dilate" in="SourceAlpha" result="shadowSpreadOuter1"></feMorphology>
            <feOffset dx="-1" dy="1" in="shadowSpreadOuter1" result="shadowOffsetOuter1"></feOffset>
            <feGaussianBlur stdDeviation="0.5" in="shadowOffsetOuter1" result="shadowBlurOuter1"></feGaussianBlur>
            <feComposite in="shadowBlurOuter1" in2="SourceAlpha" operator="out" result="shadowBlurOuter1"></feComposite>
            <feColorMatrix values="0 0 0 0 0   0 0 0 0 0   0 0 0 0 0  0 0 0 0.3 0" type="matrix" in="shadowBlurOuter1"></feColorMatrix>
        </filter>
        <linearGradient x1="49.744898%" y1="100%" x2="50.255102%" y2="0%" id="linearGradient-9">
            <stop stop-color="#FFFFFF" stop-opacity="0" offset="0%"></stop>
            <stop stop-color="#000000" offset="100%"></stop>
        </linearGradient>
        <linearGradient x1="46.1747397%" y1="100%" x2="53.8252603%" y2="0%" id="linearGradient-10">
            <stop stop-color="#FFFFFF" stop-opacity="0" offset="0%"></stop>
            <stop stop-color="#000000" offset="100%"></stop>
        </linearGradient>
        <linearGradient x1="0%" y1="51.0204082%" x2="100%" y2="48.9795918%" id="linearGradient-11">
            <stop stop-color="#FFFFFF" stop-opacity="0" offset="0%"></stop>
            <stop stop-color="#000000" offset="100%"></stop>
        </linearGradient>
        <linearGradient x1="46.4126276%" y1="100%" x2="53.5873724%" y2="0%" id="linearGradient-12">
            <stop stop-color="#FFFFFF" stop-opacity="0" offset="0%"></stop>
            <stop stop-color="#000000" offset="100%"></stop>
        </linearGradient>
        <linearGradient x1="0%" y1="55.5555556%" x2="100%" y2="44.4444444%" id="linearGradient-13">
            <stop stop-color="#FFFFFF" stop-opacity="0" offset="0%"></stop>
            <stop stop-color="#000000" offset="100%"></stop>
        </linearGradient>
        <linearGradient x1="0%" y1="51.183432%" x2="100%" y2="48.816568%" id="linearGradient-14">
            <stop stop-color="#FFFFFF" stop-opacity="0" offset="0%"></stop>
            <stop stop-color="#000000" offset="100%"></stop>
        </linearGradient>
        <linearGradient x1="50%" y1="22.3034917%" x2="50%" y2="100%" id="linearGradient-15">
            <stop stop-color="#FFFFFF" offset="0%"></stop>
            <stop stop-color="#FFFFFF" stop-opacity="0" offset="100%"></stop>
        </linearGradient>
    </defs>
    <g id="01.-Home" stroke="none" stroke-width="1" fill="none" fill-rule="evenodd">
        <g id="SVG" transform="translate(-1257.000000, -823.000000)">
            <g id="Group-12-Copy" transform="translate(1273.000000, 823.000000)">
                <g id="Group" transform="translate(265.000000, 0.000000)" fill="#22D7DA">
                    <g id="Group-79">
                        <path d="M4,2 C4,3.10469625 3.10469625,4 1.9991383,4 C0.895303748,4 0,3.10469625 0,2 C0,0.895303748 0.895303748,0 1.9991383,0 C3.10469625,0 4,0.895303748 4,2" id="Fill-1"></path>
                        <path d="M16,2 C16,3.10469625 15.1046963,4 13.9995692,4 C12.8953037,4 12,3.10469625 12,2 C12,0.895303748 12.8953037,0 13.9995692,0 C15.1046963,0 16,0.895303748 16,2" id="Fill-3"></path>
                        <path d="M27,2 C27,3.10469625 26.1045033,4 25,4 C23.8950657,4 23,3.10469625 23,2 C23,0.895303748 23.8950657,0 25,0 C26.1045033,0 27,0.895303748 27,2" id="Fill-5"></path>
                        <path d="M39,2 C39,3.10469625 38.1045033,4 36.9991381,4 C35.8946348,4 35,3.10469625 35,2 C35,0.895303748 35.8946348,0 36.9991381,0 C38.1045033,0 39,0.895303748 39,2" id="Fill-7"></path>
                        <path d="M50,2 C50,3.10469625 49.1051271,4 47.9995692,4 C46.8953037,4 46,3.10469625 46,2 C46,0.895303748 46.8953037,0 47.9995692,0 C49.1051271,0 50,0.895303748 50,2" id="Fill-9"></path>
                        <path d="M4,13 C4,14.1046963 3.10469625,15 1.9991383,15 C0.895303748,15 0,14.1046963 0,13 C0,11.8957346 0.895303748,11 1.9991383,11 C3.10469625,11 4,11.8957346 4,13" id="Fill-14"></path>
                        <path d="M16,13 C16,14.1046963 15.1046963,15 13.9995692,15 C12.8953037,15 12,14.1046963 12,13 C12,11.8957346 12.8953037,11 13.9995692,11 C15.1046963,11 16,11.8957346 16,13" id="Fill-16"></path>
                        <path d="M27,13 C27,14.1046963 26.1045033,15 25,15 C23.8950657,15 23,14.1046963 23,13 C23,11.8957346 23.8950657,11 25,11 C26.1045033,11 27,11.8957346 27,13" id="Fill-18"></path>
                        <path d="M39,13 C39,14.1046963 38.1045033,15 36.9991381,15 C35.8946348,15 35,14.1046963 35,13 C35,11.8957346 35.8946348,11 36.9991381,11 C38.1045033,11 39,11.8957346 39,13" id="Fill-20"></path>
                        <path d="M50,13 C50,14.1046963 49.1051271,15 47.9995692,15 C46.8953037,15 46,14.1046963 46,13 C46,11.8957346 46.8953037,11 47.9995692,11 C49.1051271,11 50,11.8957346 50,13" id="Fill-22"></path>
                        <path d="M4,25.5002693 C4,26.8804523 3.10469625,28 1.9991383,28 C0.895303748,28 0,26.8804523 0,25.5002693 C0,24.1195477 0.895303748,23 1.9991383,23 C3.10469625,23 4,24.1195477 4,25.5002693" id="Fill-27"></path>
                        <path d="M16,25.5002693 C16,26.8804523 15.1046963,28 13.9995692,28 C12.8953037,28 12,26.8804523 12,25.5002693 C12,24.1195477 12.8953037,23 13.9995692,23 C15.1046963,23 16,24.1195477 16,25.5002693" id="Fill-29"></path>
                        <path d="M27,25.5002693 C27,26.8804523 26.1045033,28 25,28 C23.8950657,28 23,26.8804523 23,25.5002693 C23,24.1195477 23.8950657,23 25,23 C26.1045033,23 27,24.1195477 27,25.5002693" id="Fill-31"></path>
                        <path d="M39,25.5002693 C39,26.8804523 38.1045033,28 36.9991381,28 C35.8946348,28 35,26.8804523 35,25.5002693 C35,24.1195477 35.8946348,23 36.9991381,23 C38.1045033,23 39,24.1195477 39,25.5002693" id="Fill-33"></path>
                        <path d="M50,25.5002693 C50,26.8804523 49.1051271,28 47.9995692,28 C46.8953037,28 46,26.8804523 46,25.5002693 C46,24.1195477 46.8953037,23 47.9995692,23 C49.1051271,23 50,24.1195477 50,25.5002693" id="Fill-35"></path>
                        <path d="M4,36.4997307 C4,37.8804523 3.10469625,39 1.9991383,39 C0.895303748,39 0,37.8804523 0,36.4997307 C0,35.1195477 0.895303748,34 1.9991383,34 C3.10469625,34 4,35.1195477 4,36.4997307" id="Fill-40"></path>
                        <path d="M16,36.4997307 C16,37.8804523 15.1046963,39 13.9995692,39 C12.8953037,39 12,37.8804523 12,36.4997307 C12,35.1195477 12.8953037,34 13.9995692,34 C15.1046963,34 16,35.1195477 16,36.4997307" id="Fill-42"></path>
                        <path d="M27,36.4997307 C27,37.8804523 26.1045033,39 25,39 C23.8950657,39 23,37.8804523 23,36.4997307 C23,35.1195477 23.8950657,34 25,34 C26.1045033,34 27,35.1195477 27,36.4997307" id="Fill-44"></path>
                        <path d="M39,36.4997307 C39,37.8804523 38.1045033,39 36.9991381,39 C35.8946348,39 35,37.8804523 35,36.4997307 C35,35.1195477 35.8946348,34 36.9991381,34 C38.1045033,34 39,35.1195477 39,36.4997307" id="Fill-46"></path>
                        <path d="M50,36.4997307 C50,37.8804523 49.1051271,39 47.9995692,39 C46.8953037,39 46,37.8804523 46,36.4997307 C46,35.1195477 46.8953037,34 47.9995692,34 C49.1051271,34 50,35.1195477 50,36.4997307" id="Fill-48"></path>
                        <path d="M4,48 C4,49.1042654 3.10469625,50 1.9991383,50 C0.895303748,50 0,49.1042654 0,48 C0,46.8953037 0.895303748,46 1.9991383,46 C3.10469625,46 4,46.8953037 4,48" id="Fill-53"></path>
                        <path d="M16,48 C16,49.1042654 15.1046963,50 13.9995692,50 C12.8953037,50 12,49.1042654 12,48 C12,46.8953037 12.8953037,46 13.9995692,46 C15.1046963,46 16,46.8953037 16,48" id="Fill-55"></path>
                        <path d="M27,48 C27,49.1042654 26.1045033,50 25,50 C23.8950657,50 23,49.1042654 23,48 C23,46.8953037 23.8950657,46 25,46 C26.1045033,46 27,46.8953037 27,48" id="Fill-57"></path>
                        <path d="M39,48 C39,49.1042654 38.1045033,50 36.9991381,50 C35.8946348,50 35,49.1042654 35,48 C35,46.8953037 35.8946348,46 36.9991381,46 C38.1045033,46 39,46.8953037 39,48" id="Fill-59"></path>
                        <path d="M50,48 C50,49.1042654 49.1051271,50 47.9995692,50 C46.8953037,50 46,49.1042654 46,48 C46,46.8953037 46.8953037,46 47.9995692,46 C49.1051271,46 50,46.8953037 50,48" id="Fill-61"></path>
                        <path d="M4,59 C4,60.1046963 3.10469625,61 1.9991383,61 C0.895303748,61 0,60.1046963 0,59 C0,57.8953037 0.895303748,57 1.9991383,57 C3.10469625,57 4,57.8953037 4,59" id="Fill-66"></path>
                        <path d="M16,59 C16,60.1046963 15.1046963,61 13.9995692,61 C12.8953037,61 12,60.1046963 12,59 C12,57.8953037 12.8953037,57 13.9995692,57 C15.1046963,57 16,57.8953037 16,59" id="Fill-68"></path>
                        <path d="M27,59 C27,60.1046963 26.1045033,61 25,61 C23.8950657,61 23,60.1046963 23,59 C23,57.8953037 23.8950657,57 25,57 C26.1045033,57 27,57.8953037 27,59" id="Fill-70"></path>
                        <path d="M39,59 C39,60.1046963 38.1045033,61 36.9991381,61 C35.8946348,61 35,60.1046963 35,59 C35,57.8953037 35.8946348,57 36.9991381,57 C38.1045033,57 39,57.8953037 39,59" id="Fill-72"></path>
                        <path d="M50,59 C50,60.1046963 49.1051271,61 47.9995692,61 C46.8953037,61 46,60.1046963 46,59 C46,57.8953037 46.8953037,57 47.9995692,57 C49.1051271,57 50,57.8953037 50,59" id="Fill-74"></path>
                        <path d="M62,2 C62,3.10469625 61.1051271,4 59.9995692,4 C58.8953037,4 58,3.10469625 58,2 C58,0.895303748 58.8953037,0 59.9995692,0 C61.1051271,0 62,0.895303748 62,2" id="Fill-9-Copy"></path>
                        <path d="M62,13 C62,14.1046963 61.1051271,15 59.9995692,15 C58.8953037,15 58,14.1046963 58,13 C58,11.8957346 58.8953037,11 59.9995692,11 C61.1051271,11 62,11.8957346 62,13" id="Fill-22-Copy"></path>
                        <path d="M62,25.5002693 C62,26.8804523 61.1051271,28 59.9995692,28 C58.8953037,28 58,26.8804523 58,25.5002693 C58,24.1195477 58.8953037,23 59.9995692,23 C61.1051271,23 62,24.1195477 62,25.5002693" id="Fill-35-Copy"></path>
                        <path d="M62,36.4997307 C62,37.8804523 61.1051271,39 59.9995692,39 C58.8953037,39 58,37.8804523 58,36.4997307 C58,35.1195477 58.8953037,34 59.9995692,34 C61.1051271,34 62,35.1195477 62,36.4997307" id="Fill-48-Copy"></path>
                        <path d="M62,48 C62,49.1042654 61.1051271,50 59.9995692,50 C58.8953037,50 58,49.1042654 58,48 C58,46.8953037 58.8953037,46 59.9995692,46 C61.1051271,46 62,46.8953037 62,48" id="Fill-61-Copy"></path>
                        <path d="M62,59 C62,60.1046963 61.1051271,61 59.9995692,61 C58.8953037,61 58,60.1046963 58,59 C58,57.8953037 58.8953037,57 59.9995692,57 C61.1051271,57 62,57.8953037 62,59" id="Fill-74-Copy"></path>
                    </g>
                    <g id="Group-79-Copy-3" transform="translate(70.000000, 0.000000)">
                        <path d="M4,2 C4,3.10469625 3.10469625,4 1.9991383,4 C0.895303748,4 0,3.10469625 0,2 C0,0.895303748 0.895303748,0 1.9991383,0 C3.10469625,0 4,0.895303748 4,2" id="Fill-1"></path>
                        <path d="M16,2 C16,3.10469625 15.1046963,4 13.9995692,4 C12.8953037,4 12,3.10469625 12,2 C12,0.895303748 12.8953037,0 13.9995692,0 C15.1046963,0 16,0.895303748 16,2" id="Fill-3"></path>
                        <path d="M27,2 C27,3.10469625 26.1045033,4 25,4 C23.8950657,4 23,3.10469625 23,2 C23,0.895303748 23.8950657,0 25,0 C26.1045033,0 27,0.895303748 27,2" id="Fill-5"></path>
                        <path d="M39,2 C39,3.10469625 38.1045033,4 36.9991381,4 C35.8946348,4 35,3.10469625 35,2 C35,0.895303748 35.8946348,0 36.9991381,0 C38.1045033,0 39,0.895303748 39,2" id="Fill-7"></path>
                        <path d="M50,2 C50,3.10469625 49.1051271,4 47.9995692,4 C46.8953037,4 46,3.10469625 46,2 C46,0.895303748 46.8953037,0 47.9995692,0 C49.1051271,0 50,0.895303748 50,2" id="Fill-9"></path>
                        <path d="M4,13 C4,14.1046963 3.10469625,15 1.9991383,15 C0.895303748,15 0,14.1046963 0,13 C0,11.8957346 0.895303748,11 1.9991383,11 C3.10469625,11 4,11.8957346 4,13" id="Fill-14"></path>
                        <path d="M16,13 C16,14.1046963 15.1046963,15 13.9995692,15 C12.8953037,15 12,14.1046963 12,13 C12,11.8957346 12.8953037,11 13.9995692,11 C15.1046963,11 16,11.8957346 16,13" id="Fill-16"></path>
                        <path d="M27,13 C27,14.1046963 26.1045033,15 25,15 C23.8950657,15 23,14.1046963 23,13 C23,11.8957346 23.8950657,11 25,11 C26.1045033,11 27,11.8957346 27,13" id="Fill-18"></path>
                        <path d="M39,13 C39,14.1046963 38.1045033,15 36.9991381,15 C35.8946348,15 35,14.1046963 35,13 C35,11.8957346 35.8946348,11 36.9991381,11 C38.1045033,11 39,11.8957346 39,13" id="Fill-20"></path>
                        <path d="M50,13 C50,14.1046963 49.1051271,15 47.9995692,15 C46.8953037,15 46,14.1046963 46,13 C46,11.8957346 46.8953037,11 47.9995692,11 C49.1051271,11 50,11.8957346 50,13" id="Fill-22"></path>
                        <path d="M4,25.5002693 C4,26.8804523 3.10469625,28 1.9991383,28 C0.895303748,28 0,26.8804523 0,25.5002693 C0,24.1195477 0.895303748,23 1.9991383,23 C3.10469625,23 4,24.1195477 4,25.5002693" id="Fill-27"></path>
                        <path d="M16,25.5002693 C16,26.8804523 15.1046963,28 13.9995692,28 C12.8953037,28 12,26.8804523 12,25.5002693 C12,24.1195477 12.8953037,23 13.9995692,23 C15.1046963,23 16,24.1195477 16,25.5002693" id="Fill-29"></path>
                        <path d="M27,25.5002693 C27,26.8804523 26.1045033,28 25,28 C23.8950657,28 23,26.8804523 23,25.5002693 C23,24.1195477 23.8950657,23 25,23 C26.1045033,23 27,24.1195477 27,25.5002693" id="Fill-31"></path>
                        <path d="M39,25.5002693 C39,26.8804523 38.1045033,28 36.9991381,28 C35.8946348,28 35,26.8804523 35,25.5002693 C35,24.1195477 35.8946348,23 36.9991381,23 C38.1045033,23 39,24.1195477 39,25.5002693" id="Fill-33"></path>
                        <path d="M50,25.5002693 C50,26.8804523 49.1051271,28 47.9995692,28 C46.8953037,28 46,26.8804523 46,25.5002693 C46,24.1195477 46.8953037,23 47.9995692,23 C49.1051271,23 50,24.1195477 50,25.5002693" id="Fill-35"></path>
                        <path d="M4,36.4997307 C4,37.8804523 3.10469625,39 1.9991383,39 C0.895303748,39 0,37.8804523 0,36.4997307 C0,35.1195477 0.895303748,34 1.9991383,34 C3.10469625,34 4,35.1195477 4,36.4997307" id="Fill-40"></path>
                        <path d="M16,36.4997307 C16,37.8804523 15.1046963,39 13.9995692,39 C12.8953037,39 12,37.8804523 12,36.4997307 C12,35.1195477 12.8953037,34 13.9995692,34 C15.1046963,34 16,35.1195477 16,36.4997307" id="Fill-42"></path>
                        <path d="M27,36.4997307 C27,37.8804523 26.1045033,39 25,39 C23.8950657,39 23,37.8804523 23,36.4997307 C23,35.1195477 23.8950657,34 25,34 C26.1045033,34 27,35.1195477 27,36.4997307" id="Fill-44"></path>
                        <path d="M39,36.4997307 C39,37.8804523 38.1045033,39 36.9991381,39 C35.8946348,39 35,37.8804523 35,36.4997307 C35,35.1195477 35.8946348,34 36.9991381,34 C38.1045033,34 39,35.1195477 39,36.4997307" id="Fill-46"></path>
                        <path d="M50,36.4997307 C50,37.8804523 49.1051271,39 47.9995692,39 C46.8953037,39 46,37.8804523 46,36.4997307 C46,35.1195477 46.8953037,34 47.9995692,34 C49.1051271,34 50,35.1195477 50,36.4997307" id="Fill-48"></path>
                        <path d="M4,48 C4,49.1042654 3.10469625,50 1.9991383,50 C0.895303748,50 0,49.1042654 0,48 C0,46.8953037 0.895303748,46 1.9991383,46 C3.10469625,46 4,46.8953037 4,48" id="Fill-53"></path>
                        <path d="M16,48 C16,49.1042654 15.1046963,50 13.9995692,50 C12.8953037,50 12,49.1042654 12,48 C12,46.8953037 12.8953037,46 13.9995692,46 C15.1046963,46 16,46.8953037 16,48" id="Fill-55"></path>
                        <path d="M27,48 C27,49.1042654 26.1045033,50 25,50 C23.8950657,50 23,49.1042654 23,48 C23,46.8953037 23.8950657,46 25,46 C26.1045033,46 27,46.8953037 27,48" id="Fill-57"></path>
                        <path d="M39,48 C39,49.1042654 38.1045033,50 36.9991381,50 C35.8946348,50 35,49.1042654 35,48 C35,46.8953037 35.8946348,46 36.9991381,46 C38.1045033,46 39,46.8953037 39,48" id="Fill-59"></path>
                        <path d="M50,48 C50,49.1042654 49.1051271,50 47.9995692,50 C46.8953037,50 46,49.1042654 46,48 C46,46.8953037 46.8953037,46 47.9995692,46 C49.1051271,46 50,46.8953037 50,48" id="Fill-61"></path>
                        <path d="M4,59 C4,60.1046963 3.10469625,61 1.9991383,61 C0.895303748,61 0,60.1046963 0,59 C0,57.8953037 0.895303748,57 1.9991383,57 C3.10469625,57 4,57.8953037 4,59" id="Fill-66"></path>
                        <path d="M16,59 C16,60.1046963 15.1046963,61 13.9995692,61 C12.8953037,61 12,60.1046963 12,59 C12,57.8953037 12.8953037,57 13.9995692,57 C15.1046963,57 16,57.8953037 16,59" id="Fill-68"></path>
                        <path d="M27,59 C27,60.1046963 26.1045033,61 25,61 C23.8950657,61 23,60.1046963 23,59 C23,57.8953037 23.8950657,57 25,57 C26.1045033,57 27,57.8953037 27,59" id="Fill-70"></path>
                        <path d="M39,59 C39,60.1046963 38.1045033,61 36.9991381,61 C35.8946348,61 35,60.1046963 35,59 C35,57.8953037 35.8946348,57 36.9991381,57 C38.1045033,57 39,57.8953037 39,59" id="Fill-72"></path>
                        <path d="M50,59 C50,60.1046963 49.1051271,61 47.9995692,61 C46.8953037,61 46,60.1046963 46,59 C46,57.8953037 46.8953037,57 47.9995692,57 C49.1051271,57 50,57.8953037 50,59" id="Fill-74"></path>
                        <path d="M62,2 C62,3.10469625 61.1051271,4 59.9995692,4 C58.8953037,4 58,3.10469625 58,2 C58,0.895303748 58.8953037,0 59.9995692,0 C61.1051271,0 62,0.895303748 62,2" id="Fill-9-Copy"></path>
                        <path d="M62,13 C62,14.1046963 61.1051271,15 59.9995692,15 C58.8953037,15 58,14.1046963 58,13 C58,11.8957346 58.8953037,11 59.9995692,11 C61.1051271,11 62,11.8957346 62,13" id="Fill-22-Copy"></path>
                        <path d="M62,25.5002693 C62,26.8804523 61.1051271,28 59.9995692,28 C58.8953037,28 58,26.8804523 58,25.5002693 C58,24.1195477 58.8953037,23 59.9995692,23 C61.1051271,23 62,24.1195477 62,25.5002693" id="Fill-35-Copy"></path>
                        <path d="M62,36.4997307 C62,37.8804523 61.1051271,39 59.9995692,39 C58.8953037,39 58,37.8804523 58,36.4997307 C58,35.1195477 58.8953037,34 59.9995692,34 C61.1051271,34 62,35.1195477 62,36.4997307" id="Fill-48-Copy"></path>
                        <path d="M62,48 C62,49.1042654 61.1051271,50 59.9995692,50 C58.8953037,50 58,49.1042654 58,48 C58,46.8953037 58.8953037,46 59.9995692,46 C61.1051271,46 62,46.8953037 62,48" id="Fill-61-Copy"></path>
                        <path d="M62,59 C62,60.1046963 61.1051271,61 59.9995692,61 C58.8953037,61 58,60.1046963 58,59 C58,57.8953037 58.8953037,57 59.9995692,57 C61.1051271,57 62,57.8953037 62,59" id="Fill-74-Copy"></path>
                    </g>
                </g>
                <g id="Group-30" transform="translate(0.000000, 18.000000)">
                    <g id="Group-35">
                        <g id="Rectangle">
                            <use fill="black" fill-opacity="1" filter="url(#filter-2)" xlink:href="#path-1"></use>
                            <use fill="#FFFFFF" fill-rule="evenodd" xlink:href="#path-1"></use>
                        </g>
                        <rect id="Rectangle" fill="#D5EBF6" x="21.031115" y="60.0793329" width="285.89172" height="108.404014"></rect>
                        <path d="M11.8097987,0 L317.458596,0 C323.980967,-1.19814025e-15 329.268394,5.287427 329.268394,11.8097987 L329.268394,24.8153766 L0,24.8153766 L1.77635684e-15,11.8097987 C9.77596671e-16,5.287427 5.287427,4.75085393e-15 11.8097987,3.55271368e-15 Z" id="Rectangle" fill="#EF9426"></path>
                        <g id="Group-36" transform="translate(17.087781, 8.489471)">
                            <path d="M9.65098273,4.79739334 C9.65098273,7.44666185 7.49056506,9.59478668 4.82613588,9.59478668 C2.16041766,9.59478668 0,7.44666185 0,4.79739334 C0,2.14812483 2.16041766,-4.54747351e-13 4.82613588,-4.54747351e-13 C7.49056506,-4.54747351e-13 9.65098273,2.14812483 9.65098273,4.79739334" id="Fill-31-Copy" fill="#E73A3A"></path>
                            <path d="M23.452652,4.79739334 C23.452652,7.44666185 21.2922343,9.59478668 18.6278051,9.59478668 C15.9620869,9.59478668 13.8016692,7.44666185 13.8016692,4.79739334 C13.8016692,2.14812483 15.9620869,-4.54747351e-13 18.6278051,-4.54747351e-13 C21.2922343,-4.54747351e-13 23.452652,2.14812483 23.452652,4.79739334" id="Fill-33-Copy" fill="#EED467"></path>
                            <path d="M37.2543212,4.79739334 C37.2543212,7.44666185 35.0939035,9.59478668 32.4294743,9.59478668 C29.7637561,9.59478668 27.6033385,7.44666185 27.6033385,4.79739334 C27.6033385,2.14812483 29.7637561,-4.54747351e-13 32.4294743,-4.54747351e-13 C35.0939035,-4.54747351e-13 37.2543212,2.14812483 37.2543212,4.79739334" id="Fill-35-Copy-2" fill="#63CD63"></path>
                        </g>
                        <ellipse id="Oval" fill="#FF8C72" cx="247.115601" cy="234.440005" rx="21.031115" ry="20.8971593"></ellipse>
                        <ellipse id="Oval-Copy" fill="#FFE07C" cx="163.648364" cy="234.440005" rx="21.031115" ry="20.8971593"></ellipse>
                        <ellipse id="Oval-Copy-2" fill="#545F75" cx="79.5239037" cy="234.440005" rx="21.031115" ry="20.8971593"></ellipse>
                        <rect id="Rectangle-Copy-19" fill="#535F74" x="138.016692" y="75.0991661" width="57.1783439" height="7.1833985"></rect>
                        <rect id="Rectangle-Copy-29" fill="#ACB3B8" x="130.787247" y="187.421397" width="67.0366791" height="7.1833985"></rect>
                        <rect id="Rectangle-Copy-22" fill="#FFFFFF" x="138.016692" y="92.7311442" width="128.815579" height="3.26518113"></rect>
                        <rect id="Rectangle-Copy-23" fill="#FFFFFF" x="138.016692" y="103.179724" width="128.815579" height="3.26518113"></rect>
                        <rect id="Rectangle-Copy-24" fill="#FFFFFF" x="138.016692" y="113.628303" width="128.815579" height="3.26518113"></rect>
                        <rect id="Rectangle-Copy-25" fill="#FFFFFF" x="138.016692" y="124.076883" width="128.815579" height="3.26518113"></rect>
                        <rect id="Rectangle-Copy-26" fill="#BFDCE8" x="62.4361227" y="134.525463" width="53.8922322" height="3.26518113"></rect>
                        <rect id="Rectangle-Copy-27" fill="#BFDCE8" x="62.4361227" y="144.974042" width="47.3200088" height="3.26518113"></rect>
                        <rect id="Rectangle-Copy-30" fill="#E1E6EA" x="142.617249" y="269.050925" width="42.7194524" height="3.26518113"></rect>
                        <rect id="Rectangle-Copy-32" fill="#E1E6EA" x="225.427264" y="269.050925" width="42.7194524" height="3.26518113"></rect>
                        <rect id="Rectangle-Copy-34" fill="#E1E6EA" x="58.4927886" y="269.050925" width="42.7194524" height="3.26518113"></rect>
                        <rect id="Rectangle-Copy-31" fill="#E1E6EA" x="135.387803" y="260.561455" width="57.1783439" height="3.26518113"></rect>
                        <rect id="Rectangle-Copy-33" fill="#E1E6EA" x="218.197818" y="260.561455" width="57.1783439" height="3.26518113"></rect>
                        <rect id="Rectangle-Copy-35" fill="#E1E6EA" x="51.2633429" y="260.561455" width="57.1783439" height="3.26518113"></rect>
                        <rect id="Rectangle-Copy-28" fill="#FF8C71" x="138.673915" y="137.137608" width="51.9205652" height="13.7137608"></rect>
                        <rect id="Rectangle-Copy-36" fill="#ACB3B8" x="62.4361227" y="280.152541" width="34.8327842" height="9.7955434"></rect>
                        <rect id="Rectangle-Copy-37" fill="#ACB3B8" x="146.560583" y="280.152541" width="34.8327842" height="9.7955434"></rect>
                        <rect id="Rectangle-Copy-38" fill="#ACB3B8" x="229.370598" y="280.152541" width="34.8327842" height="9.7955434"></rect>
                        <g id="Group-33" transform="translate(103.183908, 42.447355)" fill="#E1E6EA">
                            <rect id="Rectangle-Copy-17" x="0" y="0" width="20.3738927" height="3.26518113"></rect>
                            <rect id="Rectangle-Copy-19" x="34.1755619" y="0" width="20.3738927" height="3.26518113"></rect>
                            <rect id="Rectangle-Copy-20" x="68.3511238" y="0" width="20.3738927" height="3.26518113"></rect>
                            <rect id="Rectangle-Copy-21" x="102.526686" y="0" width="20.3738927" height="3.26518113"></rect>
                        </g>
                        <rect id="Rectangle" fill="#ACB3B8" x="21.031115" y="39.1821736" width="17.7450033" height="2.61214491"></rect>
                        <g id="Group-32" transform="translate(21.031115, 44.406463)" fill="#ACB3B8">
                            <rect id="Rectangle-Copy-17" x="0" y="0" width="17.7450033" height="2.61214491"></rect>
                            <rect id="Rectangle-Copy-18" x="0" y="4.57125359" width="17.7450033" height="2.61214491"></rect>
                        </g>
                        <g id="Group-34" transform="translate(61.778900, 75.099166)" fill="#FFFFFF">
                            <polygon id="Path-2" points="3.69280102 0 51.4616832 0 27.5772421 23.4698028"></polygon>
                            <polygon id="Path-2-Copy" transform="translate(27.577242, 40.466734) scale(1, -1) translate(-27.577242, -40.466734) " points="3.69280102 28.7318324 51.4616832 28.7318324 27.5772421 52.2016352"></polygon>
                            <polygon id="Path-2-Copy-2" transform="translate(42.286667, 25.689658) scale(1, -1) rotate(-270.000000) translate(-42.286667, -25.689658) " points="18.5543554 13.8795335 66.018978 13.8795335 42.2866667 37.4997833"></polygon>
                            <polygon id="Path-2-Copy-3" transform="translate(12.054439, 25.689658) scale(1, -1) rotate(-90.000000) translate(-12.054439, -25.689658) " points="-11.6778724 13.8795335 35.7867502 13.8795335 12.0544389 37.4997833"></polygon>
                        </g>
                    </g>
                    <g id="Group-Copy" filter="url(#filter-3)" transform="translate(249.087268, 130.260282)">
                        <g id="Group-37">
                            <path d="M0,23.0602108 L2.34659743e-13,178.931926 L132.101691,178.931926 L132.101691,23.0602108 C132.101691,10.3340364 123.128746,0 112.07873,0 L20.0229607,0 C8.97294506,0 0,10.3340364 0,23.0602108 Z" id="Shape" fill="#FFFFFF"></path>
                            <path d="M0,12.5400416 L2.34659743e-13,97.3023978 L132.101691,97.3023978 L132.101691,12.5400416 C132.101691,5.61960372 123.128746,0 112.07873,0 L20.0229607,0 C8.97294506,0 0,5.61960372 0,12.5400416 Z" id="Shape" fill="#D5EBF6"></path>
                            <g id="UI-Gesture/Default-Left" transform="translate(0.657222, 69.874876)">
                                <g id="Group-2" transform="translate(16.167669, 17.893193)"></g>
                                <g id="Group" transform="translate(34.569897, 0.261213)"></g>
                                <g id="UI-Gesture/Tap" transform="translate(23.630653, 33.667506) scale(-1, 1) rotate(-45.000000) translate(-23.630653, -33.667506) translate(10.486205, 14.076417)">
                                    <g id="Flow/Overrides/Gesture/Tap" transform="translate(7.610760, -2.886840)">
                                        <mask id="mask-5" fill="white">
                                            <use xlink:href="#path-4"></use>
                                        </mask>
                                        <g id="container"></g>
                                        <g id="Wire/Colours/Blue" opacity="0.5" mask="url(#mask-5)" fill="#2F70FF" fill-rule="evenodd">
                                            <rect id="Blue" x="0" y="-2.5234615" width="8.07507679" height="13.1219998"></rect>
                                        </g>
                                    </g>
                                    <g id="hand" stroke-width="1" fill-rule="evenodd" transform="translate(4.723920, 0.000000)">
                                        <g id="Hand">
                                            <use fill="black" fill-opacity="1" filter="url(#filter-8)" xlink:href="#path-7"></use>
                                            <use stroke="#000000" stroke-width="0.5" fill="url(#linearGradient-6)" fill-rule="evenodd" xlink:href="#path-7"></use>
                                        </g>
                                        <g id="details" transform="translate(1.705860, 7.610760)" stroke-width="0.5">
                                            <path d="M6.75850166,8.51183372 C6.5039344,5.45425817 6.36957945,3.57328891 6.35543682,2.86892596" id="Path-2-Copy" stroke="url(#linearGradient-9)"></path>
                                            <path d="M11.7296347,11.3332876 C10.969534,8.13638067 10.3873292,6.03148651 9.98302038,5.0186051" id="Path-2-Copy-2" stroke="url(#linearGradient-10)"></path>
                                            <path d="M3.399628,1.39102155 L4.34011262,1.2566666" id="Path-5" stroke="url(#linearGradient-11)" opacity="0.2" stroke-linecap="round"></path>
                                            <path d="M2.05607853,5.82473478 C0.984437887,10.1240931 0.312663154,12.6320521 0.0407543338,13.3486118" id="Path-2" stroke="url(#linearGradient-12)"></path>
                                            <path d="M3.399628,0.719246814 C3.69100017,0.347446962 4.00665336,0.136197046 4.34658756,0.085497066 C4.68652176,0.0347970862 5.04264331,0.0347970862 5.4149522,0.085497066" id="Path-4" stroke="url(#linearGradient-13)" opacity="0.2" stroke-linecap="round"></path>
                                            <path d="M4.20575768,1.65973144 C4.50472769,1.83887137 4.76435955,1.92844133 4.98465325,1.92844133 C5.20494694,1.92844133 5.52751985,1.88365635 5.95237198,1.79408639" id="Path-6" stroke="url(#linearGradient-14)" opacity="0.2" stroke-linecap="round"></path>
                                        </g>
                                        <path d="M6.32623222,0.703176217 C6.26078376,1.38754319 6.47349123,1.82304945 6.96435462,2.00969499 C7.45521801,2.19634053 7.83972766,2.19634053 8.11788358,2.00969499 C8.29786682,1.76083427 8.36331528,1.48086596 8.31422894,1.16979006 C8.24059943,0.703176217 8.09756844,0.189900985 7.32234459,0.0265861378 C6.80552869,-0.0822904266 6.47349123,0.1432396 6.32623222,0.703176217 Z" id="nail" stroke="#000000" stroke-width="0.5" fill="url(#linearGradient-15)"></path>
                                    </g>
                                </g>
                            </g>
                            <path d="M92.8323919,80.3234559 L39.9265216,80.3234559 C36.750007,80.3234559 34.1755619,77.7653784 34.1755619,74.6090591 L34.1755619,31.1828097 C34.1755619,28.0264904 36.750007,25.4684129 39.9265216,25.4684129 L92.8323919,25.4684129 C96.0089066,25.4684129 98.5833516,28.0264904 98.5833516,31.1828097 L98.5833516,74.6090591 C98.5833516,77.7653784 96.0089066,80.3234559 92.8323919,80.3234559" id="Fill-37" fill="#BFDCE8"></path>
                            <path d="M92.8323919,77.711311 L39.9265216,77.711311 C36.750007,77.711311 34.1755619,75.1532335 34.1755619,71.9969142 L34.1755619,28.5706648 C34.1755619,25.4143454 36.750007,22.8562679 39.9265216,22.8562679 L92.8323919,22.8562679 C96.0077684,22.8562679 98.5833516,25.4143454 98.5833516,28.5706648 L98.5833516,71.9969142 C98.5833516,75.1532335 96.0077684,77.711311 92.8323919,77.711311" id="Fill-39" fill="#FFFFFF"></path>
                            <rect id="Rectangle" fill="#E1E6EA" x="21.6883374" y="125.382956" width="88.6051457" height="2.87056566"></rect>
                            <rect id="Rectangle-Copy-5" fill="#E1E6EA" x="21.6883374" y="135.831535" width="88.6051457" height="2.87056566"></rect>
                            <rect id="Rectangle-Copy-6" fill="#E1E6EA" x="21.6883374" y="145.627079" width="88.6051457" height="2.87056566"></rect>
                            <rect id="Rectangle-Copy-7" fill="#E1E6EA" x="21.6883374" y="156.075658" width="88.6051457" height="2.87056566"></rect>
                            <rect id="Rectangle-Copy-8" fill="#E1E6EA" x="21.6883374" y="165.871202" width="88.6051457" height="2.87056566"></rect>
                            <g id="Group-38" transform="translate(49.948898, 108.404014)">
                                <path d="M7.70479528,3.82742088 C7.70479528,5.94132372 5.98027675,7.65484176 3.85280303,7.65484176 C1.7253293,7.65484176 -1.42108547e-14,5.94132372 -1.42108547e-14,3.82742088 C-1.42108547e-14,1.71351804 1.7253293,1.13686838e-13 3.85280303,1.13686838e-13 C5.98027675,1.13686838e-13 7.70479528,1.71351804 7.70479528,3.82742088" id="Fill-55" fill="#545F75"></path>
                                <path d="M20.2250876,3.82742088 C20.2250876,5.94132372 18.5003876,7.65484176 16.37269,7.65484176 C14.2449923,7.65484176 12.5202923,5.94132372 12.5202923,3.82742088 C12.5202923,1.71351804 14.2449923,1.13686838e-13 16.37269,1.13686838e-13 C18.5003876,1.13686838e-13 20.2250876,1.71351804 20.2250876,3.82742088" id="Fill-57" fill="#FFE07C"></path>
                                <path d="M32.7453799,3.82742088 C32.7453799,5.94132372 31.0208614,7.65484176 28.8933877,7.65484176 C26.765914,7.65484176 25.0405847,5.94132372 25.0405847,3.82742088 C25.0405847,1.71351804 26.765914,1.13686838e-13 28.8933877,1.13686838e-13 C31.0208614,1.13686838e-13 32.7453799,1.71351804 32.7453799,3.82742088" id="Fill-59" fill="#FF8C72"></path>
                            </g>
                        </g>
                    </g>
                    <g id="Group-34" transform="translate(295.092833, 161.952984)" fill="#E1E6EA">
                        <polygon id="Path-2" points="3.13317319 -0.0803199637 38.6231798 -0.0803199637 20.8781765 17.5516582"></polygon>
                        <polygon id="Path-2-Copy" transform="translate(20.878176, 30.285865) scale(1, -1) translate(-20.878176, -30.285865) " points="3.13317319 21.4698755 38.6231798 21.4698755 20.8781765 39.1018537"></polygon>
                        <polygon id="Path-2-Copy-2" transform="translate(31.722345, 19.184249) scale(1, -1) rotate(-270.000000) translate(-31.722345, -19.184249) " points="13.7638489 10.3117471 49.6808414 10.3117471 31.7223452 28.0567504"></polygon>
                        <polygon id="Path-2-Copy-3" transform="translate(8.719563, 19.184249) scale(1, -1) rotate(-90.000000) translate(-8.719563, -19.184249) " points="-9.23893313 10.3117471 26.6780594 10.3117471 8.71956311 28.0567504"></polygon>
                    </g>
                </g>
            </g>
        </g>
    </g>
</svg>