<svg xmlns="http://www.w3.org/2000/svg" width="30" height="30" viewBox="0 0 30 30">
    <g fill="none" fill-rule="evenodd">
        <rect width="30" height="30" fill="#026BB0" fill-opacity=".1" rx="3"/>
        <g fill-rule="nonzero">
            <path fill="#026BB0" d="M12 10c0 1.104-1.12 2-2.5 2S7 11.104 7 10s1.12-2 2.5-2 2.5.896 2.5 2zM26 16.393c.916 1.405 1.55 2.333 1 3.57C26.45 21.199 24.88 22 23.506 22H6.322c-.111 0-.222-.011-.322-.022l11.42-11.413a1.955 1.955 0 0 1 2.748 0c3.277 2.95 5.221 4.892 5.832 5.828z"/>
            <path fill="#2196F3" d="M19 22H6.391c-.106 0-.213-.011-.31-.022-1.12-.142-1.996-1.08-2.081-2.237-.057-.771 1.633-2.5 5.071-5.184a1.853 1.853 0 0 1 2.648 0L19 22z"/>
        </g>
    </g>
</svg>
