<?xml version="1.0" encoding="UTF-8"?>
<svg width="260px" height="510px" viewBox="0 0 260 510" version="1.1" xmlns="http://www.w3.org/2000/svg" xmlns:xlink="http://www.w3.org/1999/xlink">
    <!-- Generator: Sketch 54.1 (76490) - https://sketchapp.com -->
    <title>iPhone XS Max Copy 4</title>
    <desc>Created with Sketch.</desc>
    <g id="Landing-Page-Study" stroke="none" stroke-width="1" fill="none" fill-rule="evenodd">
        <g id="Landing-Page-Stude-Copy" transform="translate(-770.000000, -1363.000000)">
            <g id="iPhone-XS-Max-Copy-4" transform="translate(770.000000, 1363.000000)">
                <g id="Body" stroke-width="0.527999969">
                    <path d="M257.621724,116.413068 L257.621724,172.903702 L258.416,172.903702 C259.145016,172.903702 259.736,172.312718 259.736,171.583702 L259.736,117.733068 C259.736,117.004052 259.145016,116.413068 258.416,116.413068 L257.621724,116.413068 Z" id="Botton-4" stroke="#FFFFFF"></path>
                    <path d="M2.37827644,184.518609 L2.37827644,149.145988 L1.58399991,149.145988 C0.854984079,149.145988 0.263999984,149.736972 0.263999984,150.465987 L0.263999984,183.198609 C0.263999984,183.927625 0.854984079,184.518609 1.58399991,184.518609 L2.37827644,184.518609 Z" id="Botton-3" stroke="#000000"></path>
                    <path d="M2.37827644,140.170783 L2.37827644,104.798161 L1.58399991,104.798161 C0.854984079,104.798161 0.263999984,105.389146 0.263999984,106.118161 L0.263999984,138.850783 C0.263999984,139.579799 0.854984079,140.170783 1.58399991,140.170783 L2.37827644,140.170783 Z" id="Botton-2" stroke="#000000"></path>
                    <path d="M2.37827644,88.4316522 L2.37827644,69.953441 L1.58399991,69.953441 C0.854984079,69.953441 0.263999984,70.5444251 0.263999984,71.2734409 L0.263999984,87.1116523 C0.263999984,87.8406681 0.854984079,88.4316522 1.58399991,88.4316522 L2.37827644,88.4316522 Z" id="Botton-1" stroke="#000000"></path>
                    <rect id="Outside" stroke="#000000" x="2.37782112" y="0.263999984" width="255.244358" height="509.472" rx="38.0159977"></rect>
                    <rect id="Inside" stroke="#CCCCCC" x="6.6054634" y="4.48760247" width="246.789073" height="501.024795" rx="33.791998"></rect>
                </g>
                <g id="Screen_414x896" transform="translate(9.512195, 7.391304)">
                    <path d="M31.6799981,8.52651283e-14 L209.295612,8.52651283e-14 C226.791991,9.75910024e-14 240.97561,14.1836183 240.97561,31.6799981 L240.97561,463.537393 C240.97561,481.033773 226.791991,495.217391 209.295612,495.217391 L31.6799981,495.217391 C14.1836183,495.217391 -4.25077562e-13,481.033773 -4.58300065e-13,463.537393 L-4.68958206e-13,31.6799981 C-4.71100894e-13,14.1836183 14.1836183,7.07155927e-14 31.6799981,6.75015599e-14 Z M32.2175597,11.0869565 C20.5533065,11.0869565 11.097561,20.542702 11.097561,32.2069553 L11.097561,463.010436 C11.097561,474.674689 20.5533065,484.130435 32.2175597,484.130435 L208.75805,484.130435 C220.422303,484.130435 229.878049,474.674689 229.878049,463.010436 L229.878049,32.2069553 C229.878049,20.542702 220.422303,11.0869565 208.75805,11.0869565 L184.956162,11.0869565 C182.914918,11.0869565 181.260163,12.741712 181.260163,14.7829563 L181.260163,15.310559 C181.260163,25.3416149 173.333333,29.0372671 166.463415,29.0372671 L74.5121951,29.0372671 C67.6602744,29.0372671 59.7154472,25.3416149 59.7154472,15.310559 L59.7154472,14.2549563 C59.7154472,12.5053183 58.2970853,11.0869565 56.5474473,11.0869565 L32.2175597,11.0869565 Z" id="Combined-Shape" fill="#000000"></path>
                    <g id="IMG_0041" transform="translate(11.053604, 11.040000)"></g>
                </g>
                <g id="Accessories" transform="translate(90.894309, 20.006211)" stroke-width="0.527999969">
                    <rect id="Botton" stroke="#000000" x="0.263999984" y="464.097789" width="77.6833821" height="2.63970189" rx="1.31985095"></rect>
                    <rect id="Speaker" stroke="#FFFFFF" fill="#FFFFFF" x="24.5729431" y="0.847850916" width="29.065496" height="3.69560252" rx="1.84780126"></rect>
                    <g id="Camera" transform="translate(62.300813, 0.000000)" fill="#FFFFFF" stroke="#FFFFFF">
                        <ellipse id="Inside" cx="2.69918699" cy="2.69565217" rx="1.84982115" ry="1.84780126"></ellipse>
                    </g>
                </g>
            </g>
        </g>
    </g>
</svg>