<?xml version="1.0" encoding="utf-8"?>
<!-- Generator: Adobe Illustrator 23.0.2, SVG Export Plug-In . SVG Version: 6.00 Build 0)  -->
<svg version="1.1" id="Layer_1" xmlns="http://www.w3.org/2000/svg" xmlns:xlink="http://www.w3.org/1999/xlink" x="0px" y="0px"
	 viewBox="0 0 72.3994 79.1578" style="enable-background:new 0 0 72.3994 79.1578;" xml:space="preserve">
<style type="text/css">
	.st0{fill:#58595B;}
	.st1{fill:#0073B5;}
	.st2{fill:#FBAD2C;}
	.st3{fill:#EE307A;}
	.st4{fill:#6CBE45;}
</style>
<g>
	<g>
		<path class="st0" d="M6.6475,57.8218c-2.002,0-3.8271,0.958-4.8164,2.4834l-0.0752-2.1543H0l0.0176,0.2158
			c0.0859,1.0879,0.1191,2.0479,0.1191,3.4238v11.1162h1.8359v-9.1123c0-0.5127,0.1201-1.0137,0.1699-1.1992
			c0.5645-1.8701,2.2568-3.1768,4.1152-3.1768c3.2871,0,3.7773,3.0039,3.7773,4.7949v8.6934h1.8359v-8.8135
			C11.8711,58.1246,7.5195,57.8218,6.6475,57.8218z"/>
		<path class="st0" d="M24.3105,69.2974v-5.623c0-3.8291-1.7861-5.8525-5.1641-5.8525c-1.5127,0-3.1309,0.4707-4.3271,1.2598
			l-0.1396,0.0918l0.6123,1.4297l0.2021-0.1445c0.9385-0.6709,2.1826-1.04,3.5049-1.04c0.0166,0,0.0342,0,0.0518,0
			c1.04,0,1.8545,0.2832,2.4189,0.8428c0.6758,0.6709,1.0049,1.709,1.0049,3.1738v0.1875c-0.0195,0-0.0381,0-0.0576,0
			c-3.46,0-5.9395,0.7178-7.3701,2.1348c-0.8857,0.876-1.335,1.9971-1.335,3.3301c0,1.998,1.3828,4.1484,4.418,4.1484
			c2.0967,0,3.6533-1.0381,4.5117-2.1211l0.1816,1.792h1.7324l-0.0381-0.2324C24.335,71.5494,24.3105,70.3355,24.3105,69.2974z
			 M18.2793,71.6392c-1.291,0-2.6709-0.7334-2.6709-2.791c0-0.8818,0.291-1.6113,0.8652-2.1689
			c1.0039-0.9756,2.8623-1.4688,5.5303-1.4688c0.1543,0,0.3115,0.001,0.4707,0.0049v2.8857c0,0.208-0.0234,0.5146-0.1387,0.8027
			C21.8857,70.2261,20.584,71.6392,18.2793,71.6392z"/>
		<path class="st0" d="M37.5381,60.1724c-0.6377-0.9609-2.0264-2.3506-4.7266-2.3506c-3.3096,0-6.6602,2.6885-6.6602,7.8271
			c0,4.1377,2.7344,7.2578,6.3604,7.2578c2.0762,0,3.8447-0.8682,4.8545-2.3525v1.4043c0,3.7178-1.6836,5.6025-5.0039,5.6025
			c-1.5703,0-2.9727-0.3916-4.168-1.1641l-0.1953-0.127l-0.6699,1.4941l0.127,0.0957c1.0566,0.8008,2.8564,1.2979,4.6973,1.2979
			c0.9521,0,3.3477-0.1719,5.0127-1.7607c1.4082-1.3379,2.0361-3.4297,2.0361-6.7842v-8.5537c0-1.584,0.0352-2.6875,0.1191-3.6914
			l0.0186-0.2168h-1.7266L37.5381,60.1724z M32.8711,71.3101c-3.6045,0-4.8838-3.1309-4.8838-5.8115
			c0-3.6367,1.9863-6.0801,4.9434-6.0801c1.9854,0,3.5811,1.168,4.2676,3.127c0.1396,0.3906,0.168,0.8184,0.168,1.3389v2.8711
			c0,0.4697-0.0811,0.9893-0.2266,1.4551C36.4473,70.0933,34.7715,71.3101,32.8711,71.3101z"/>
		<path class="st0" d="M57.0527,66.4234c-0.502,1.5332-0.8857,2.7617-1.167,3.8857c-0.334-1.1953-0.7324-2.4668-1.2344-3.9473
			l-2.7969-8.2109h-1.6318l-2.9189,8.2998c-0.4482,1.3008-0.9063,2.6572-1.2646,3.8828c-0.2666-1.0498-0.5801-2.1436-0.9326-3.3779
			l-2.5654-8.6611l-0.042-0.1436h-1.8857l4.5059,14.6143l0.0439,0.1416h1.5439l2.8887-8.0879
			c0.5586-1.5635,1.0186-2.9238,1.3945-4.3125c0.3721,1.418,0.8301,2.7744,1.3389,4.25l2.7666,8.1504h1.5146l4.918-14.7559h-1.8906
			L57.0527,66.4234z"/>
		<path class="st0" d="M72.3613,72.6744c-0.1826-1.125-0.207-2.3389-0.207-3.377v-5.623c0-3.8291-1.7861-5.8525-5.1641-5.8525
			c-1.5127,0-3.1309,0.4707-4.3271,1.2598l-0.1396,0.0918l0.6123,1.4297l0.2021-0.1445c0.9385-0.6709,2.1826-1.04,3.5049-1.04
			c0.0166,0,0.0342,0,0.0518,0c1.04,0,1.8545,0.2832,2.4189,0.8428c0.6758,0.6709,1.0049,1.709,1.0049,3.1738v0.1875
			c-0.0195,0-0.0381,0-0.0576,0c-3.46,0-5.9395,0.7178-7.3701,2.1348c-0.8857,0.876-1.335,1.9971-1.335,3.3301
			c0,1.998,1.3828,4.1484,4.418,4.1484c2.0967,0,3.6533-1.0381,4.5117-2.1211l0.1816,1.792h1.7324L72.3613,72.6744z M66.123,71.6392
			c-1.291,0-2.6709-0.7334-2.6709-2.791c0-0.8818,0.291-1.6113,0.8652-2.1689c1.0039-0.9756,2.8623-1.4688,5.5303-1.4688
			c0.1543,0,0.3115,0.001,0.4707,0.0049v2.8857c0,0.208-0.0234,0.5146-0.1387,0.8027
			C69.7295,70.2261,68.4277,71.6392,66.123,71.6392z"/>
	</g>
	<g>
		<polygon class="st1" points="7.3324,41.6666 21.7661,50 21.7661,33.3331 50.6335,50 50.6335,33.3331 7.3324,8.3338 		"/>
		<polygon class="st2" points="21.7658,49.9997 36.1995,41.6663 21.7658,33.3338 		"/>
		<polygon class="st2" points="50.6332,0 36.1995,8.3344 50.6332,16.6669 		"/>
		<polygon class="st3" points="50.6332,0 50.6332,16.6669 21.7658,0 7.3322,8.3344 50.6332,33.3337 50.6332,49.9996 
			65.0669,41.6662 65.0669,8.3344 		"/>
		<polygon class="st4" points="21.7658,0 7.3321,8.3344 21.7658,16.6669 36.1995,8.3344 		"/>
	</g>
</g>
</svg>
