<?xml version="1.0" encoding="utf-8"?>
<!-- Generator: Adobe Illustrator 23.0.3, SVG Export Plug-In . SVG Version: 6.00 Build 0)  -->
<svg version="1.1" id="Layer_1" xmlns="http://www.w3.org/2000/svg" xmlns:xlink="http://www.w3.org/1999/xlink" x="0px" y="0px"
	 width="1604.5667px" height="1015.664px" viewBox="0 0 1604.5667 1015.664" style="enable-background:new 0 0 1604.5667 1015.664;"
	 xml:space="preserve">
<style type="text/css">
	.st0{fill:#EDEDEE;}
	.st1{fill:#C3C3C9;}
	.st2{fill:#4D5E5E;}
	.st3{fill:#898986;}
	.st4{fill:#727271;}
	.st5{fill:#E2E2E2;}
	.st6{fill:#FDFDFE;}
	.st7{fill:#DEDEE2;}
	.st8{fill:#AFE0F3;}
	.st9{fill:#80B1BC;}
	.st10{fill:#D8D8AA;}
	.st11{fill:#4AC0EF;}
	.st12{fill:#C4C4CC;}
	.st13{fill:#F1C06F;}
	.st14{fill:#B6C862;}
	.st15{fill:#5D7178;}
	.st16{clip-path:url(#SVGID_2_);}
	.st17{fill:#C48046;}
	.st18{fill:#5E6161;}
	.st19{fill:#FFDBAB;}
	.st20{fill:#D39E50;}
	.st21{fill:#7DCFD8;}
	.st22{fill:#6CBBBF;}
	.st23{fill:#F37273;}
	.st24{fill:#F7EBBF;}
	.st25{fill:#D95B61;}
	.st26{fill:#F9F1D7;}
	.st27{fill:#D3C598;}
</style>
<g>
	<g>
		<g>
			<g>
				<polygon class="st0" points="935.7976,1010.8746 668.769,1010.8746 678.3485,864.879 926.2181,864.879 				"/>
				<polygon class="st1" points="928.2287,895.5214 926.2181,864.879 678.3485,864.879 676.3379,895.5214 				"/>
				<rect x="175.456" y="4.79" class="st0" width="1253.6547" height="860.089"/>
				<path class="st2" d="M1429.1104,869.669H175.4562c-2.6451,0-4.7897-2.1446-4.7897-4.7897V4.7898
					c0-2.6451,2.1446-4.7898,4.7897-4.7898h1253.6542c2.6451,0,4.7898,2.1447,4.7898,4.7898v860.0895
					C1433.9001,867.5244,1431.7555,869.669,1429.1104,869.669z M180.246,860.0895h1244.0746V9.5795H180.246V860.0895z"/>
				<rect x="175.456" y="4.79" class="st3" width="1253.6547" height="741.4509"/>
				<polygon class="st4" points="449.8617,746.2409 1429.1107,746.2409 1429.1107,4.79 1182.9305,4.79 				"/>
				<path class="st2" d="M1429.1104,751.0303H175.4562c-2.6451,0-4.7897-2.1446-4.7897-4.7898V4.7898
					c0-2.6451,2.1446-4.7898,4.7897-4.7898h1253.6542c2.6451,0,4.7898,2.1447,4.7898,4.7898v741.4507
					C1433.9001,748.8857,1431.7555,751.0303,1429.1104,751.0303z M180.246,741.4508h1244.0746V9.5795H180.246V741.4508z"/>
				
					<rect x="463.8888" y="-218.9808" transform="matrix(-1.836970e-16 1 -1 -1.836970e-16 1177.7988 -426.7678)" class="st5" width="676.7891" height="1188.9927"/>
				<path class="st2" d="M935.7976,1015.664H668.769c-1.3249,0-2.5901-0.5484-3.4958-1.5155
					c-0.9057-0.967-1.3706-2.2662-1.2834-3.5876l9.5795-145.995c0.1648-2.5189,2.2557-4.4764,4.7792-4.4764h247.8696
					c2.5235,0,4.6144,1.9575,4.7792,4.4764l9.5795,145.995c0.0866,1.3214-0.3777,2.6206-1.2828,3.5876
					C938.3878,1015.1156,937.1225,1015.664,935.7976,1015.664z M673.8832,1006.0845h256.7996l-8.9504-136.4155H682.8342
					L673.8832,1006.0845z"/>
				<path class="st0" d="M615.483,998.9003v11.9742h373.6006v-11.9742c0-7.936-6.4333-14.3693-14.3693-14.3693h-344.862
					C621.9163,984.531,615.483,990.9643,615.483,998.9003z"/>
				<path class="st2" d="M989.0836,1015.664H615.483c-2.6451,0-4.7897-2.1446-4.7897-4.7897v-11.9744
					c0-10.5641,8.5949-19.159,19.159-19.159h344.862c10.5641,0,19.159,8.5949,19.159,19.159v11.9744
					C993.8733,1013.5194,991.7287,1015.664,989.0836,1015.664z M620.2728,1006.0845h364.021v-7.1846
					c0-5.2821-4.2974-9.5795-9.5795-9.5795h-344.862c-5.2821,0-9.5795,4.2974-9.5795,9.5795V1006.0845z"/>
				
					<ellipse transform="matrix(0.9239 -0.3827 0.3827 0.9239 -244.9321 367.8884)" class="st1" cx="802.2833" cy="799.6222" rx="30.6414" ry="30.6414"/>
			</g>
			<g>
				<g>
					<rect x="207.787" y="37.121" class="st6" width="256.944" height="676.7891"/>
					<g>
						<rect x="256.0307" y="270.0598" class="st7" width="160.4567" height="26.3437"/>
						
							<ellipse transform="matrix(0.1633 -0.9866 0.9866 0.1633 107.452 479.2213)" class="st8" cx="336.259" cy="176.2605" rx="61.4683" ry="61.4684"/>
						
							<ellipse transform="matrix(0.1633 -0.9866 0.9866 0.1633 107.452 479.2213)" class="st8" cx="336.259" cy="176.2605" rx="61.4683" ry="61.4684"/>
						<g>
							<path class="st9" d="M336.259,136.1464c-12.3673,0-22.3931,10.0257-22.3931,22.3931v10.2958
								c0,12.3674,10.0258,22.3931,22.3931,22.3931c12.3674,0,22.3932-10.0257,22.3932-22.3931v-10.2958
								C358.6522,146.1721,348.6264,136.1464,336.259,136.1464z"/>
							<path class="st9" d="M336.2591,184.6476L336.2591,184.6476c-21.4044,0-39.1087,15.8141-42.0838,36.3944
								c10.999,10.3404,25.796,16.6869,42.0837,16.6869c16.2878,0,31.0848-6.3465,42.0838-16.6869
								C375.3677,200.4617,357.6634,184.6476,336.2591,184.6476z"/>
						</g>
						<g>
							<g>
								<path class="st10" d="M256.0307,370.0673c-5.8299,0-10.5559,4.7261-10.5559,10.5559c0,5.8299,4.726,10.5561,10.5559,10.5561
									c5.8299,0,10.5559-4.7262,10.5559-10.5561C266.5866,374.7934,261.8606,370.0673,256.0307,370.0673z"/>
								<rect x="280.9987" y="370.0673" class="st11" width="122.937" height="21.112"/>
							</g>
							<g>
								<circle class="st7" cx="256.0307" cy="424.2785" r="10.556"/>
								<rect x="280.9987" y="413.7225" class="st12" width="122.937" height="21.112"/>
							</g>
							<g>
								<path class="st7" d="M256.0307,457.3778c-5.8299,0-10.5559,4.7261-10.5559,10.5559c0,5.8299,4.726,10.5561,10.5559,10.5561
									c5.8299,0,10.5559-4.7262,10.5559-10.5561C266.5866,462.1039,261.8606,457.3778,256.0307,457.3778z"/>
								<rect x="280.9987" y="457.3778" class="st12" width="122.937" height="21.112"/>
							</g>
							<g>
								<circle class="st7" cx="256.0307" cy="511.589" r="10.556"/>
								<rect x="280.9987" y="501.033" class="st12" width="122.937" height="21.112"/>
							</g>
						</g>
					</g>
				</g>
				<g>
					<g>
						<g>
							<rect x="544.4081" y="128.681" class="st6" width="157.0886" height="218.9999"/>
							<rect x="544.4081" y="128.681" class="st11" width="157.0886" height="163.1305"/>
							<rect x="568.0721" y="298.5247" class="st7" width="109.7606" height="8.7272"/>
							<rect x="568.0721" y="318.3286" class="st7" width="86.768" height="4.3636"/>
							<rect x="568.0721" y="332.3267" class="st7" width="86.768" height="4.3636"/>
						</g>
						<g>
							<rect x="544.4081" y="403.3502" class="st6" width="157.0886" height="218.9999"/>
							<rect x="544.4081" y="403.3502" class="st13" width="157.0886" height="163.1305"/>
							<rect x="568.0721" y="573.1939" class="st7" width="109.7606" height="8.7271"/>
							<rect x="568.0721" y="592.9978" class="st7" width="86.768" height="4.3636"/>
							<rect x="568.0721" y="606.9959" class="st7" width="86.768" height="4.3636"/>
						</g>
					</g>
					<g>
						<g>
							<rect x="1131.8634" y="128.681" class="st6" width="157.0887" height="218.9999"/>
							<rect x="1131.8634" y="128.681" class="st11" width="157.0887" height="163.1305"/>
							<rect x="1155.5275" y="298.5247" class="st7" width="109.7607" height="8.7272"/>
							<rect x="1155.5275" y="318.3286" class="st7" width="86.768" height="4.3636"/>
							<rect x="1155.5275" y="332.3267" class="st7" width="86.768" height="4.3636"/>
						</g>
						<g>
							<rect x="1131.8634" y="403.3502" class="st6" width="157.0887" height="218.9999"/>
							<rect x="1131.8634" y="403.3502" class="st14" width="157.0887" height="163.1305"/>
							<rect x="1155.5275" y="573.1939" class="st7" width="109.7607" height="8.7271"/>
							<rect x="1155.5275" y="592.9978" class="st7" width="86.768" height="4.3636"/>
							<rect x="1155.5275" y="606.9959" class="st7" width="86.768" height="4.3636"/>
						</g>
					</g>
				</g>
				<g>
					<g>
						<rect x="838.1357" y="128.681" class="st6" width="157.0887" height="218.9999"/>
						<rect x="838.1357" y="128.681" class="st15" width="157.0887" height="163.1305"/>
						<rect x="861.7997" y="298.5247" class="st7" width="109.7607" height="8.7272"/>
						<rect x="861.7997" y="318.3286" class="st7" width="86.768" height="4.3636"/>
						<rect x="861.7997" y="332.3267" class="st7" width="86.768" height="4.3636"/>
					</g>
					<g>
						<rect x="838.1357" y="403.3502" class="st6" width="157.0887" height="218.9999"/>
						<rect x="838.1357" y="403.3502" class="st15" width="157.0887" height="163.1305"/>
						<rect x="861.7997" y="573.1939" class="st7" width="109.7607" height="8.7271"/>
						<rect x="861.7997" y="592.9978" class="st7" width="86.768" height="4.3636"/>
						<rect x="861.7997" y="606.9959" class="st7" width="86.768" height="4.3636"/>
					</g>
				</g>
			</g>
			<path class="st2" d="M1396.7797,718.6995H207.787c-2.6451,0-4.7897-2.1447-4.7897-4.7898V37.1212
				c0-2.6451,2.1446-4.7898,4.7897-4.7898h1188.9927c2.645,0,4.7897,2.1447,4.7897,4.7898v676.7885
				C1401.5693,716.5548,1399.4247,718.6995,1396.7797,718.6995z M212.5768,709.12h1179.4131V41.9109H212.5768V709.12z"/>
			<path class="st3" d="M1357.8944,37.121h-234.1191h-90.3245h-45.1624h-19.5613h-25.601h-90.3247h-66.8832H762.477v364.7382
				c0,24.9424,20.2196,45.162,45.162,45.162h0.0002c24.9423,0,45.1621-20.2196,45.1621-45.162v-58.002
				c0-24.9424,20.2199-45.1622,45.1623-45.1622c24.9424,0,45.1624,20.2198,45.1624,45.1622v207.1426
				c0,24.9424,20.2199,45.1622,45.1623,45.1622c24.9417,0,45.1606-20.218,45.1624-45.1593V433.9046
				c0-24.9424,20.2197-42.7674,45.1622-42.7674h0.0001c24.9424,0,45.1621,20.2199,45.1621,45.1623v136.8944h273.0044V37.121
				H1357.8944z"/>
			<rect x="762.477" y="42.1475" class="st6" width="634.3026" height="86.5335"/>
			<path class="st5" d="M1299.4796,109.2528h-105.8938c-13.1449,0-23.8387-10.6939-23.8387-23.8383
				c0-13.1449,10.6938-23.8388,23.8387-23.8388h105.8938c13.1449,0,23.8387,10.6939,23.8387,23.8382
				C1323.3184,98.5589,1312.6245,109.2528,1299.4796,109.2528z M1193.5858,66.3654c-10.5033,0-19.049,8.5452-19.049,19.0485
				c0,10.5039,8.5457,19.0491,19.049,19.0491h105.8938c10.5033,0,19.049-8.5452,19.049-19.0485
				c0-10.5039-8.5457-19.0491-19.049-19.0491H1193.5858z"/>
			<g>
				<path class="st5" d="M1204.323,92.6395c-5.7229,0-10.3782-4.6553-10.3782-10.3776c0-5.7223,4.6553-10.3782,10.3782-10.3782
					s10.3782,4.6559,10.3782,10.3782C1214.7012,87.9842,1210.0459,92.6395,1204.323,92.6395z M1204.323,76.6735
					c-3.0813,0-5.5884,2.5071-5.5884,5.5884s2.5071,5.5878,5.5884,5.5878s5.5885-2.5065,5.5885-5.5878
					S1207.4043,76.6735,1204.323,76.6735z"/>
				<path class="st5" d="M1192.5509,96.6329c-0.6127,0-1.2255-0.2339-1.6932-0.7016c-0.9354-0.9349-0.9354-2.4516,0-3.3865
					l6.2339-6.2339c0.9355-0.9355,2.451-0.9355,3.3866,0c0.9354,0.9349,0.9354,2.4515,0,3.3865l-6.2339,6.2339
					C1193.7764,96.399,1193.1637,96.6329,1192.5509,96.6329z"/>
			</g>
			<rect x="973.1178" y="77.2724" class="st7" width="130.5208" height="28.938"/>
			<g>
				<defs>
					<path id="SVGID_1_" d="M1357.8944,37.121h-234.1191h-90.3245h-45.1624h-19.5613h-25.601h-90.3247h-66.8832H762.477v364.7382
						c0,24.9424,20.2196,45.162,45.162,45.162h0.0002c24.9423,0,45.1621-20.2196,45.1621-45.162v-58.002
						c0-24.9424,20.2199-45.1622,45.1623-45.1622c24.9424,0,45.1624,20.2198,45.1624,45.1622v207.1426
						c0,24.9424,20.2199,45.1622,45.1623,45.1622c24.9417,0,45.1606-20.218,45.1624-45.1593V433.9046
						c0-24.9424,20.2197-42.7674,45.1622-42.7674h0.0001c24.9424,0,45.1621,20.2199,45.1621,45.1623v136.8944h273.0044V37.121
						H1357.8944z"/>
				</defs>
				<clipPath id="SVGID_2_">
					<use xlink:href="#SVGID_1_"  style="overflow:visible;"/>
				</clipPath>
				<g class="st16">
					<g>
						<g>
							<rect x="1131.8634" y="211.1883" class="st6" width="157.0887" height="218.9999"/>
							<rect x="1131.8634" y="211.1883" class="st13" width="157.0887" height="163.1305"/>
							<rect x="1155.5275" y="381.032" class="st7" width="109.7607" height="8.7272"/>
							<g>
								<rect x="1167.0238" y="400.8359" class="st7" width="86.768" height="4.3636"/>
								<rect x="1167.0238" y="414.834" class="st7" width="86.768" height="4.3636"/>
							</g>
						</g>
						<g>
							<rect x="1131.8634" y="485.8575" class="st6" width="157.0887" height="218.9999"/>
							<rect x="1131.8634" y="485.8575" class="st17" width="157.0887" height="163.1305"/>
							<rect x="1155.5275" y="655.7012" class="st7" width="109.7607" height="8.7271"/>
							<rect x="1155.5275" y="675.5051" class="st7" width="86.768" height="4.3636"/>
							<rect x="1155.5275" y="689.5032" class="st7" width="86.768" height="4.3636"/>
						</g>
					</g>
					<g>
						<g>
							<rect x="838.1357" y="211.1883" class="st6" width="157.0887" height="218.9999"/>
							<rect x="838.1357" y="211.1883" class="st18" width="157.0887" height="163.1305"/>
							<rect x="861.7997" y="381.032" class="st7" width="109.7607" height="8.7272"/>
							<rect x="861.7997" y="400.8359" class="st7" width="86.768" height="4.3636"/>
							<rect x="861.7997" y="414.834" class="st7" width="86.768" height="4.3636"/>
						</g>
						<g>
							<rect x="838.1357" y="485.8575" class="st6" width="157.0887" height="218.9999"/>
							<rect x="838.1357" y="485.8575" class="st11" width="157.0887" height="163.1305"/>
							<rect x="861.7997" y="655.7012" class="st7" width="109.7607" height="8.7271"/>
							<rect x="861.7997" y="675.5051" class="st7" width="86.768" height="4.3636"/>
							<rect x="861.7997" y="689.5032" class="st7" width="86.768" height="4.3636"/>
						</g>
					</g>
				</g>
			</g>
			<rect x="791.9056" y="77.2724" class="st7" width="130.5207" height="28.938"/>
			<path class="st2" d="M988.2884,600.9518c-27.5434,0-49.9521-22.4087-49.9521-49.9521V343.857
				c0-22.2613-18.1112-40.3726-40.3726-40.3726c-22.2613,0-40.3726,18.1113-40.3726,40.3726v58.0021
				c0,27.5434-22.4087,49.9521-49.9521,49.9521c-27.5435,0-49.9515-22.4087-49.9515-49.9521V37.1212
				c0-2.6451,2.1446-4.7898,4.7898-4.7898h634.3024c2.645,0,4.7897,2.1447,4.7897,4.7898v536.0732
				c0,2.6451-2.1447,4.7898-4.7897,4.7898h-273.0042c-2.6451,0-4.7898-2.1447-4.7898-4.7898v-136.895
				c0-22.2613-18.1112-40.3725-40.3726-40.3725c-23.0156,0-40.3727,16.3267-40.3727,37.9777v117.0986
				C1038.2393,578.5455,1015.8307,600.9518,988.2884,600.9518z M897.9637,293.9049c27.5435,0,49.9521,22.4087,49.9521,49.9521
				v207.1427c0,22.2614,18.1113,40.3726,40.3726,40.3726c22.2602,0,40.3714-18.1101,40.3726-40.3691V433.9046
				c0-27.1119,21.4744-47.5572,49.9521-47.5572c27.5433,0,49.952,22.4086,49.952,49.952v132.1053h263.4247V41.9109H767.267v359.9482
				c0,22.2613,18.1107,40.3726,40.372,40.3726s40.3726-18.1113,40.3726-40.3726V343.857
				C848.0116,316.3136,870.4203,293.9049,897.9637,293.9049z"/>
			<g>
				<g>
					<path class="st2" d="M1311.7732,735.1876c-2.6451,0-4.7898-2.1446-4.7898-4.7897v-36.7277
						c0-9.1082,6.1556-17.074,14.9703-19.3718l155.5944-40.5433c9.5714-2.4931,16.2555-11.143,16.2555-21.0335v-63.3029
						c0-3.0626-2.4918-5.5545-5.5544-5.5545h-22.0066c-2.645,0-4.7897-2.1446-4.7897-4.7897c0-2.6452,2.1447-4.7898,4.7897-4.7898
						h22.0066c8.3446,0,15.1339,6.7894,15.1339,15.134v63.3029c0,14.2499-9.631,26.7119-23.4189,30.3042l-155.5944,40.5434
						c-4.5968,1.1974-7.8069,5.351-7.8069,10.101v36.7277C1316.5629,733.043,1314.4183,735.1876,1311.7732,735.1876z"/>
					<path class="st13" d="M1449.4124,475.1455h-308.8069c-9.2949,0-16.8302,7.5351-16.8302,16.8302v94.1985
						c0,9.2951,7.5353,16.8302,16.8302,16.8302h308.8069c9.295,0,16.8302-7.5351,16.8302-16.8302v-94.1985
						C1466.2426,482.6806,1458.7074,475.1455,1449.4124,475.1455z"/>
					<path class="st19" d="M1449.4124,475.1455h-308.8069c-9.2949,0-16.8302,7.5351-16.8302,16.8302h342.4673
						C1466.2426,482.6806,1458.7074,475.1455,1449.4124,475.1455z"/>
					<path class="st20" d="M1123.7753,577.1261v9.0481c0,9.2951,7.5353,16.8302,16.8302,16.8302h308.8069
						c9.2948,0,16.8302-7.5351,16.8302-16.8302v-9.0481H1123.7753z"/>
					<path class="st2" d="M1449.4119,607.7938h-308.8068c-11.9205,0-21.6194-9.6989-21.6194-21.6193v-94.1989
						c0-11.9211,9.6989-21.6199,21.6194-21.6199h308.8068c11.9218,0,21.6206,9.6988,21.6206,21.6199v94.1989
						C1471.0325,598.095,1461.3336,607.7938,1449.4119,607.7938z M1140.6051,479.9352c-6.6385,0-12.0399,5.4013-12.0399,12.0404
						v94.1989c0,6.6385,5.4014,12.0398,12.0399,12.0398h308.8068c6.6398,0,12.041-5.4013,12.041-12.0398v-94.1989
						c0-6.6391-5.4012-12.0404-12.041-12.0404H1140.6051z"/>
					<g>
						<path class="st21" d="M1324.3164,714.2327h-25.0867c-9.3616,0-16.9506,7.589-16.9506,16.9505v136.7635
							c0,16.289,13.2048,29.4938,29.4939,29.4938c16.2889,0,29.4939-13.2048,29.4939-29.4938V731.1832
							C1341.267,721.8217,1333.6779,714.2327,1324.3164,714.2327z"/>
						<path class="st22" d="M1324.3164,714.2327h-12.5433v183.2079c16.2889,0,29.4939-13.2048,29.4939-29.4938V731.1832
							C1341.267,721.8217,1333.6779,714.2327,1324.3164,714.2327z"/>
						<path class="st2" d="M1311.7732,902.2302c-18.9041,0-34.2837-15.3796-34.2837-34.2838V731.1837
							c0-11.9884,9.7526-21.741,21.7399-21.741h25.0865c11.9884,0,21.7408,9.7526,21.7408,21.741v136.7628
							C1346.0568,886.8506,1330.6774,902.2302,1311.7732,902.2302z M1299.2294,719.0222c-6.7052,0-12.1604,5.4551-12.1604,12.1615
							v136.7628c0,13.622,11.0823,24.7042,24.7042,24.7042c13.6221,0,24.7041-11.0822,24.7041-24.7042V731.1837
							c0-6.7064-5.4551-12.1615-12.1614-12.1615H1299.2294z"/>
						<path class="st13" d="M1324.3164,714.2327h-25.0867c-9.3616,0-16.9506,7.589-16.9506,16.9505v19.6625h58.9878v-19.6625
							C1341.267,721.8217,1333.6779,714.2327,1324.3164,714.2327z"/>
						
							<ellipse transform="matrix(0.9732 -0.2298 0.2298 0.9732 -164.5564 324.6311)" class="st2" cx="1311.7731" cy="868.9638" rx="8.4752" ry="8.4753"/>
						<path class="st20" d="M1324.3164,714.2327h-12.5433v36.613h29.4939v-19.6625
							C1341.267,721.8217,1333.6779,714.2327,1324.3164,714.2327z"/>
						<path class="st2" d="M1341.2671,755.6353h-58.9878c-2.6451,0-4.7898-2.1447-4.7898-4.7898v-19.6618
							c0-11.9884,9.7526-21.741,21.7399-21.741h25.0865c11.9884,0,21.7408,9.7526,21.7408,21.741v19.6618
							C1346.0568,753.4906,1343.9122,755.6353,1341.2671,755.6353z M1287.069,746.0558h49.4083v-14.8721
							c0-6.7064-5.4551-12.1615-12.1614-12.1615h-25.0865c-6.7052,0-12.1604,5.4551-12.1604,12.1615V746.0558z"/>
					</g>
				</g>
				<path class="st2" d="M1466.2426,426.7164c-2.645,0-4.7897-2.1446-4.7897-4.7897v-52.554c0-2.6451,2.1447-4.7897,4.7897-4.7897
					c2.6453,0,4.7899,2.1446,4.7899,4.7897v52.554C1471.0325,424.5718,1468.8878,426.7164,1466.2426,426.7164z"/>
				<path class="st2" d="M1466.2426,462.7343c-2.645,0-4.7897-2.1446-4.7897-4.7898v-12.7578c0-2.6451,2.1447-4.7898,4.7897-4.7898
					c2.6453,0,4.7899,2.1447,4.7899,4.7898v12.7578C1471.0325,460.5897,1468.8878,462.7343,1466.2426,462.7343z"/>
				<path class="st2" d="M1320.9235,431.5056c-2.645,0-4.7897-2.1446-4.7897-4.7897V323.7356c0-2.6451,2.1447-4.7897,4.7897-4.7897
					c2.6451,0,4.7898,2.1446,4.7898,4.7897v102.9803C1325.7133,429.361,1323.5686,431.5056,1320.9235,431.5056z"/>
				<path class="st2" d="M1320.9235,479.9352c-2.645,0-4.7897-2.1446-4.7897-4.7898v-17.2003c0-2.6451,2.1447-4.7897,4.7897-4.7897
					c2.6451,0,4.7898,2.1446,4.7898,4.7897v17.2003C1325.7133,477.7906,1323.5686,479.9352,1320.9235,479.9352z"/>
			</g>
			<g>
				<g>
					<g>
						<path class="st1" d="M500.737,387.0701c-5.6458,8.1511-11.8845,27.8778,0.4836,42.7045
							c14.6108,17.5152,35.5383,7.444,32.7113,34.0253c0.2577,5.9194,7.8132,10.6366,19.3275-6.5557
							c18.2872-27.3053,24.7048-67.7742-26.5496-85.1837C503.4379,382.9808,500.737,387.0701,500.737,387.0701z"/>
						<path class="st2" d="M539.0206,474.0035c-0.9945,0-1.9019-0.1432-2.7192-0.3724c-4.1425-1.1612-6.9509-4.9389-7.1542-9.6234
							c-0.0106-0.2385-0.003-0.4777,0.0222-0.7144c1.319-12.403-2.3493-13.8162-11.2126-17.2313
							c-6.1631-2.375-13.8336-5.3306-20.4143-13.2198c-13.6664-16.3823-7.7085-38.4425-0.7425-48.4992
							c2.3071-3.3327,12.4462-9.3789,27.8755-16.6185c1.1208-0.5262,2.4012-0.5975,3.5753-0.1994
							c21.5837,7.3314,35.2712,19.1473,40.6813,35.1186c5.6908,16.8004,1.429,37.6725-11.6925,57.266
							C549.7625,471.0737,543.5157,474.0035,539.0206,474.0035z M538.7423,463.8429c0.0532,0.3391,0.1714,0.5554,0.2292,0.6104
							c0.6134,0.1046,4.4115-1.07,10.3081-9.8742c11.4505-17.0974,15.3065-34.907,10.5793-48.8617
							c-4.2595-12.5742-15.3165-22.152-32.8781-28.4876c-17.5798,8.3627-21.8281,12.1591-22.4379,12.7607
							c-3.6473,5.4312-11.0073,23.0946,0.356,36.7154c4.9886,5.9808,10.8413,8.2359,16.5022,10.4168
							C530.4182,440.5975,540.6291,444.5312,538.7423,463.8429z M504.7224,389.7327c-0.0106,0.0128-0.0263,0.0333-0.048,0.0643
							c-0.0327,0.0479-0.0661,0.0965-0.1,0.1468C504.6598,389.8385,504.7037,389.7666,504.7224,389.7327z M504.7259,389.7286
							c-0.0807,0.19,0.0304-0.0129,0.0146-0.0129C504.7381,389.7157,504.7335,389.7192,504.7259,389.7286z M504.7341,389.7099
							L504.7341,389.7099L504.7341,389.7099z M500.7371,387.07h0.0117H500.7371z"/>
						<g>
							<path class="st13" d="M510.8391,331.1103c4.6269,10.0667,12.0294,30.6465,15.8707,40.9502l-25.9728,15.0096
								c-6.2776-7.6019-19.7629-23.3235-25.5546-31.3862c-6.3045-8.7766-12.3729-17.752-18.242-26.8648
								c-6.4069-9.9477-12.5709-20.065-18.5233-30.3039c-6.1134-10.5161-11.9886-21.1689-17.7344-31.8837
								c-5.6554-10.5463-11.149-21.177-16.4714-31.8793c-5.1562-10.3681-10.1334-20.8165-14.9155-31.3332
								c-4.4925-9.8798-8.8537-19.8311-12.8717-29.8624c-3.6074-9.0061-7.0962-18.0279-10.1306-27.1615
								c-1.2913-3.914-1.2545-7.9613,0.1254-11.0334c2.8632-6.3739,10.7896-7.1742,17.0951-1.7203
								c1.2459,1.0777,2.3405,2.3876,3.4601,3.6456c1.4137,1.5883,2.7983,3.2138,4.1745,4.8457
								c3.5952,4.2632,7.1252,8.6046,10.5818,13.0135c6.6854,8.5272,13.2233,17.1851,19.5873,26.0088
								c6.7119,9.306,13.2626,18.7512,19.6636,28.3068c6.6303,9.8981,13.1026,19.9198,19.4286,30.0333
								c6.4403,10.2963,12.7616,20.6803,18.8581,31.1917c5.9962,10.3384,11.7847,20.7996,17.3041,31.3901
								C501.5616,311.6507,506.3428,321.3278,510.8391,331.1103z"/>
							<path class="st2" d="M500.7395,391.8598c-1.3898,0-2.7574-0.604-3.6952-1.7401c-1.4939-1.8084-3.3971-4.0781-5.5078-6.5958
								c-7.0092-8.3598-15.7316-18.7638-20.2442-25.045c-6.0784-8.4628-12.262-17.5693-18.3784-27.0663
								c-6.217-9.652-12.4872-19.9104-18.6375-30.4903c-5.5451-9.5385-11.3727-20.0144-17.8148-32.0268
								c-5.6685-10.5711-11.2324-21.3404-16.539-32.0104c-5.195-10.446-10.2373-21.0387-14.9867-31.4836
								c-5.2435-11.5306-9.3614-21.0838-12.9584-30.064c-3.2351-8.0768-6.9806-17.6528-10.2291-27.4329
								c-1.6739-5.0715-1.5629-10.3553,0.3011-14.5054c1.8441-4.1057,5.2154-6.8877,9.4918-7.8343
								c5.0383-1.115,10.5454,0.5087,15.106,4.4536c1.284,1.1103,2.3399,2.3095,3.3613,3.4689l0.5432,0.6145
								c1.5126,1.7003,3.0018,3.4526,4.2583,4.9424c3.6122,4.284,7.2086,8.7066,10.6898,13.1461
								c6.9151,8.8212,13.5437,17.6236,19.7022,26.163c6.5724,9.1117,13.2197,18.6813,19.7583,28.4426
								c6.4713,9.6608,13.0356,19.8074,19.5104,30.1593c7.1226,11.3868,13.318,21.6346,18.9403,31.3287
								c6.2158,10.7173,12.0732,21.3422,17.4085,31.5795c5.2171,10.0098,10.0525,19.8495,14.3716,29.246l0.0006,0.0006
								c3.9051,8.4978,9.5882,23.9002,13.7377,35.1466c0.8402,2.278,1.6073,4.3571,2.2686,6.1305
								c0.8168,2.1908-0.0672,4.6506-2.0914,5.8205l-25.9729,15.0095C502.3836,391.6505,501.5575,391.8598,500.7395,391.8598z
								 M374.6969,134.8036c-0.3742,0-0.7373,0.038-1.0858,0.1146c-1.284,0.2841-2.2335,1.0939-2.8229,2.4065
								c-0.8822,1.9634-0.8618,4.7933,0.0538,7.5694c3.1655,9.5292,6.8461,18.9368,10.0286,26.8815
								c3.5408,8.8411,7.6038,18.2662,12.7853,29.6606c4.7038,10.3443,9.6982,20.8359,14.844,31.1831
								c5.2628,10.5828,10.7822,21.2644,16.404,31.749c6.3895,11.9142,12.1644,22.2965,17.654,31.7397
								c6.0772,10.4542,12.2714,20.5874,18.4095,30.1172c6.0292,9.362,12.1205,18.3329,18.1048,26.6646
								c4.3038,5.9902,13.263,16.6765,19.8051,24.4797c1.0448,1.246,2.0393,2.4323,2.9596,3.5333l18.9772-10.967
								c-0.2801-0.7595-0.5718-1.5488-0.8724-2.3633c-4.0952-11.0997-9.7034-26.301-13.4542-34.462
								c-4.2536-9.2533-9.0188-18.9497-14.1634-28.8198c-5.2686-10.1098-11.0553-20.6073-17.1991-31.2006
								c-5.5692-9.6011-11.7101-19.7595-18.7755-31.055c-6.4222-10.2671-12.9321-20.3296-19.3479-29.9079
								c-6.4771-9.6702-13.0613-19.1479-19.5688-28.1702c-6.0843-8.4365-12.6357-17.136-19.4718-25.856
								c-3.4111-4.3501-6.935-8.6838-10.4741-12.8807c-1.2156-1.4418-2.6527-3.1333-4.0911-4.7494l-0.5759-0.6519
								c-0.8472-0.9618-1.6476-1.8704-2.4393-2.5551C378.5465,135.6777,376.4965,134.8036,374.6969,134.8036z"/>
						</g>
						<path class="st2" d="M534.7747,469.1693c-0.6479,0-1.2939-0.2613-1.7664-0.7764c-0.8934-0.9753-0.8273-2.4902,0.1474-3.3842
							c4.2126-3.8607,6.1982-8.016,5.9012-12.3497c-0.5128-7.4893-7.6483-14.3295-11.7838-17.191
							c-0.7022-0.4853-1.4096-0.9682-2.1177-1.4518c-5.2856-3.6086-10.7512-7.3407-14.5955-12.5935
							c-6.3-8.6078-7.9401-20.8283-5.0149-37.3591c0.2304-1.3021,1.4723-2.1704,2.7755-1.9406
							c1.3021,0.2304,2.1715,1.4728,1.9406,2.7755c-2.6855,15.1761-1.3232,26.198,4.1635,33.6955
							c3.3591,4.5898,8.4798,8.0856,13.4315,11.4663c0.7162,0.4893,1.4319,0.9776,2.1417,1.4693
							c1.3342,0.9226,13.0537,9.3456,13.8377,20.802c0.4011,5.8603-2.1031,11.3136-7.4431,16.208
							C535.9323,468.9612,535.3529,469.1693,534.7747,469.1693z"/>
						<path class="st2" d="M537.1111,472.336c-0.5531,0-1.1086-0.1906-1.5606-0.5794c-1.0027-0.8624-1.1161-2.3744-0.2537-3.3772
							c7.6869-8.9363,13.0759-17.9592,16.0175-26.8184c3.2988-9.9338,3.4239-19.8074,0.3525-27.8006
							c-2.1943-5.7107-6.162-11.1488-12.4871-17.115c-6.5555-6.1848-14.0342-11.5288-22.228-15.8841
							c-1.1677-0.621-1.6113-2.071-0.9905-3.2392c0.6198-1.167,2.0692-1.612,3.2392-0.9905
							c8.5715,4.5565,16.3992,10.1514,23.2664,16.6297c6.866,6.4766,11.2102,12.476,13.6711,18.8813
							c3.4678,9.0252,3.369,20.0448-0.2783,31.0281c-3.1392,9.4544-8.8358,19.0204-16.9319,28.4321
							C538.4541,472.0536,537.7846,472.336,537.1111,472.336z"/>
						<path class="st2" d="M537.3391,471.4116c-0.5204,0-1.0443-0.169-1.4839-0.5168c-1.0373-0.8204-1.2133-2.3265-0.3924-3.3637
							c6.9128-8.7382,9.6327-20.2647,7.4636-31.6246c-1.7442-9.1298-6.5555-18.3234-14.7102-28.1064
							c-1.2927-1.5518-2.6311-3.0825-3.9706-4.6155c-5.589-6.3953-11.368-13.0087-14.1318-21.3651
							c-0.4152-1.2559,0.266-2.61,1.5219-3.0257c1.2541-0.414,2.6107,0.2654,3.0257,1.5219
							c2.4598,7.4372,7.6723,13.4022,13.1912,19.7174c1.364,1.5611,2.7263,3.1205,4.0431,4.7003
							c8.6878,10.4232,13.8354,20.326,15.735,30.2751c2.4312,12.7268-0.6349,25.6642-8.4118,35.4939
							C538.7464,471.1,538.046,471.4116,537.3391,471.4116z"/>
					</g>
					<g>
						<polygon class="st0" points="211.0324,412.1938 227.4369,440.6073 416.9568,333.9155 400.5523,305.502 						"/>
						<path class="st2" d="M227.4413,445.3978c-1.6564,0-3.2655-0.8601-4.1519-2.3955l-16.4045-28.4134
							c-0.6403-1.108-0.8098-2.4259-0.4719-3.6596c0.338-1.2343,1.1554-2.2814,2.2698-2.9094l189.5196-106.6918
							c2.2873-1.2851,5.185-0.4946,6.4977,1.7792l16.4045,28.4134c0.6402,1.108,0.8098,2.4259,0.4718,3.6596
							c-0.3379,1.2342-1.1553,2.2814-2.2697,2.9094L229.787,444.7815C229.0445,445.199,228.2376,445.3978,227.4413,445.3978z
							 M217.6016,413.9925l11.6148,20.1167l181.1715-101.9921l-11.6148-20.1167L217.6016,413.9925z"/>
					</g>
					<g>
						<path class="st23" d="M421.8448,293.2088l16.4045,28.4134l53.6435-30.971c7.8462-4.53,10.5345-14.5629,6.0045-22.409l0,0
							c-4.53-7.8462-14.5628-10.5345-22.409-6.0045L421.8448,293.2088z"/>
						<path class="st2" d="M438.254,326.4123c-1.6558,0-3.2654-0.8589-4.1524-2.3954l-16.4045-28.4135
							c-0.6356-1.1003-0.8075-2.4077-0.4789-3.6344c0.3286-1.2272,1.1314-2.2732,2.2317-2.9082l53.6433-30.9708
							c10.1215-5.8446,23.1085-2.3639,28.9519,7.757c5.8433,10.1209,2.3633,23.1091-7.7576,28.9519l-53.6433,30.9708
							C439.89,326.2053,439.0662,326.4123,438.254,326.4123z M428.3875,294.962l11.6148,20.1173l49.4954-28.5765
							c2.6872-1.5512,4.6091-4.0554,5.4119-7.0525c0.8033-2.9965,0.3911-6.1263-1.16-8.813
							c-1.5518-2.6872-4.0566-4.6091-7.0531-5.4118c-2.9965-0.8046-6.1269-0.3912-8.8136,1.1606L428.3875,294.962z"/>
					</g>
					<g>
						<path class="st24" d="M418.6633,287.6982l22.7675,39.4346c3.3947,5.8798,1.3802,13.3982-4.4996,16.7929l0,0
							c-5.8798,3.3947-13.3982,1.3801-16.7929-4.4997l-22.7675-39.4345c-3.3947-5.8798-1.3802-13.3982,4.4996-16.7929l0,0
							C407.7502,279.8039,415.2686,281.8185,418.6633,287.6982z"/>
						<path class="st2" d="M430.8133,350.3587c-5.9094,0-11.6627-3.0631-14.8229-8.5376l-22.7677-39.4347
							c-2.2815-3.9513-2.8872-8.5551-1.7067-12.9625c1.181-4.408,4.0074-8.0915,7.9593-10.3729
							c8.1575-4.7109,18.6264-1.9044,23.3366,6.2526l22.7665,39.4342c4.7097,8.1575,1.9049,18.6257-6.252,23.3354
							C436.6432,349.6226,433.7093,350.3587,430.8133,350.3587z M408.0047,286.3432c-1.2723,0-2.5609,0.3233-3.7396,1.0039
							c-1.7354,1.0016-2.9773,2.62-3.4959,4.5559c-0.5186,1.9359-0.2526,3.9577,0.7496,5.6936l22.7677,39.4348
							c1.0015,1.7353,2.6199,2.9772,4.5558,3.4958c1.9365,0.5192,3.9578,0.252,5.6937-0.7495
							c1.736-1.0028,2.9778-2.6206,3.4964-4.5565c0.5187-1.9359,0.2526-3.9577-0.7501-5.6937l-22.7665-39.4341h-0.0006
							C413.1271,287.6891,410.5995,286.3432,408.0047,286.3432z"/>
					</g>
				</g>
				<g>
					<g>
						<rect x="105.8902" y="966.0956" class="st0" width="238.8573" height="44.779"/>
						<path class="st2" d="M344.7475,1015.664H105.8902c-2.6451,0-4.7897-2.1446-4.7897-4.7897v-44.7788
							c0-2.6451,2.1446-4.7898,4.7897-4.7898h238.8573c2.6451,0,4.7897,2.1447,4.7897,4.7898v44.7788
							C349.5372,1013.5194,347.3926,1015.664,344.7475,1015.664z M110.68,1006.0845h229.2777v-35.1993H110.68V1006.0845z"/>
					</g>
					<g>
						<rect x="143.5793" y="935.3254" class="st0" width="163.4791" height="30.7702"/>
						<path class="st2" d="M307.0586,970.8852H143.5791c-2.6451,0-4.7897-2.1446-4.7897-4.7897v-30.7697
							c0-2.6451,2.1446-4.7898,4.7897-4.7898h163.4795c2.6451,0,4.7898,2.1447,4.7898,4.7898v30.7697
							C311.8484,968.7406,309.7037,970.8852,307.0586,970.8852z M148.3689,961.3057h153.8999v-21.1902H148.3689V961.3057z"/>
					</g>
					<g>
						<rect x="198.4921" y="447.5691" class="st23" width="53.6535" height="334.1957"/>
						<rect x="230.4609" y="447.5691" class="st25" width="21.6847" height="334.1957"/>
						<path class="st2" d="M252.1454,786.5547h-53.6531c-2.6451,0-4.7898-2.1447-4.7898-4.7898V447.5693
							c0-2.6451,2.1447-4.7898,4.7898-4.7898h53.6531c2.6452,0,4.7898,2.1447,4.7898,4.7898v334.1956
							C256.9352,784.41,254.7906,786.5547,252.1454,786.5547z M203.282,776.9752h44.0737V452.359H203.282V776.9752z"/>
					</g>
					<g>
						<g>
							<rect x="172.9467" y="781.7649" class="st6" width="104.7443" height="153.5605"/>
							<path class="st2" d="M277.691,940.1155H172.9467c-2.6451,0-4.7897-2.1446-4.7897-4.7897V781.7649
								c0-2.6451,2.1446-4.7897,4.7897-4.7897H277.691c2.6451,0,4.7897,2.1446,4.7897,4.7897v153.5609
								C282.4807,937.9709,280.3361,940.1155,277.691,940.1155z M177.7365,930.536h95.1647V786.5547h-95.1647V930.536z"/>
						</g>
						<path class="st2" d="M239.6238,905.5921h-28.6099c-1.3225,0-2.3949-1.0723-2.3949-2.3948v-9.5795h-35.6723
							c-1.3225,0-2.3948-1.0724-2.3948-2.3949c0-1.3226,1.0723-2.3949,2.3948-2.3949h38.0672c1.3226,0,2.3949,1.0723,2.3949,2.3949
							v9.5795h23.8201v-9.5795c0-1.3226,1.0723-2.3949,2.3949-2.3949h38.0672c1.3225,0,2.3948,1.0723,2.3948,2.3949
							c0,1.3225-1.0723,2.3949-2.3948,2.3949h-35.6723v9.5795C242.0187,904.5198,240.9464,905.5921,239.6238,905.5921z"/>
					</g>
					<g>
						
							<ellipse transform="matrix(0.7071 -0.7071 0.7071 0.7071 -232.731 283.0606)" class="st0" cx="225.3189" cy="422.4614" rx="59.5568" ry="59.5568"/>
						
							<ellipse transform="matrix(0.7071 -0.7071 0.7071 0.7071 -232.731 283.0606)" class="st6" cx="225.3189" cy="422.4614" rx="31.9689" ry="31.9689"/>
						<path class="st2" d="M225.3189,456.8255c-18.9486,0-34.3638-15.4153-34.3638-34.3638s15.4152-34.3638,34.3638-34.3638
							c18.9485,0,34.3637,15.4153,34.3637,34.3638S244.2674,456.8255,225.3189,456.8255z M225.3189,392.8877
							c-16.3069,0-29.5741,13.2671-29.5741,29.574c0,16.3069,13.2672,29.574,29.5741,29.574s29.574-13.2671,29.574-29.574
							C254.8929,406.1548,241.6258,392.8877,225.3189,392.8877z"/>
						<path class="st2" d="M225.3189,486.8082c-35.4806,0-64.3465-28.866-64.3465-64.3465s28.8659-64.3465,64.3465-64.3465
							c35.4805,0,64.3464,28.866,64.3464,64.3465S260.7994,486.8082,225.3189,486.8082z M225.3189,367.6947
							c-30.1985,0-54.767,24.5685-54.767,54.767c0,30.1984,24.5685,54.767,54.767,54.767c30.1984,0,54.7669-24.5686,54.7669-54.767
							C280.0858,392.2632,255.5173,367.6947,225.3189,367.6947z"/>
					</g>
				</g>
			</g>
			<g>
				<path class="st24" d="M1243.0684,1010.8746h255.3872v-54.1218h-255.3872l-55.8358,22.9201
					c-4.2217,1.4388-4.2003,7.4169,0.0314,8.8255L1243.0684,1010.8746z"/>
				<path class="st2" d="M1498.4554,1015.664h-255.3876c-0.6105,0-1.2162-0.1169-1.7821-0.3438l-55.6925-22.3315
					c-3.8215-1.3424-6.2902-4.8096-6.3042-8.8755c-0.0139-4.0659,2.4288-7.5471,6.2386-8.9177l55.7218-22.8729
					c0.5765-0.2374,1.1938-0.3589,1.8184-0.3589h255.3876c2.645,0,4.7897,2.1446,4.7897,4.7898v54.1209
					C1503.2451,1013.5194,1501.1005,1015.664,1498.4554,1015.664z M1243.9928,1006.0845h249.6729v-44.5414h-249.653
					l-54.8997,22.5362L1243.9928,1006.0845z"/>
				
					<rect x="1243.0684" y="956.7528" transform="matrix(-1 -1.224647e-16 1.224647e-16 -1 2741.5239 1967.6274)" class="st13" width="255.3873" height="54.1218"/>
				
					<rect x="1243.0684" y="956.7528" transform="matrix(-1 -1.224647e-16 1.224647e-16 -1 2741.5239 1928.9388)" class="st19" width="255.3873" height="15.4332"/>
				
					<rect x="1243.0684" y="995.4415" transform="matrix(-1 -1.224647e-16 1.224647e-16 -1 2741.5239 2006.316)" class="st20" width="255.3873" height="15.4331"/>
				<path class="st2" d="M1498.4554,1015.664h-255.3876c-2.6451,0-4.7898-2.1446-4.7898-4.7897v-54.1209
					c0-2.6452,2.1447-4.7898,4.7898-4.7898h255.3876c2.645,0,4.7897,2.1446,4.7897,4.7898v54.1209
					C1503.2451,1013.5194,1501.1005,1015.664,1498.4554,1015.664z M1247.8577,1006.0845h245.808v-44.5414h-245.808V1006.0845z"/>
				<path class="st2" d="M1187.2325,979.6729l19.2612-7.9067v24.4429l-19.23-7.7106
					C1183.0322,987.0897,1183.0109,981.1117,1187.2325,979.6729z"/>
				<path class="st2" d="M1206.4934,1000.9989c-0.6023,0-1.208-0.1134-1.7821-0.3438l-19.118-7.6664
					c-3.8215-1.3436-6.2902-4.8096-6.3042-8.8755c-0.0139-4.0648,2.4288-7.5471,6.2386-8.9177l19.1461-7.8605
					c1.478-0.6081,3.1597-0.4362,4.4869,0.4526c1.326,0.8887,2.1223,2.3808,2.1223,3.9782v24.4434
					c0,1.5903-0.7893,3.0766-2.106,3.9677C1208.3726,1000.7206,1207.4359,1000.9989,1206.4934,1000.9989z M1189.113,984.0793
					l12.5906,5.0482v-10.218L1189.113,984.0793z M1187.2327,979.6731h0.0116H1187.2327z"/>
			</g>
			<g>
				<g>
					<g>
						<path class="st6" d="M1145.0067,820.0651L1004.701,937.7955l-4.6048,51.1093c-0.8073,8.9609,5.8282,16.8688,14.7932,17.6298
							l51.1323,4.3401l140.3055-117.7303L1145.0067,820.0651z"/>
						<path class="st2" d="M1066.0214,1015.664c-0.1345,0-0.2701-0.0058-0.4047-0.0175l-51.132-4.3396
							c-5.6165-0.4771-10.7044-3.1163-14.326-7.4348c-3.6227-4.3162-5.3382-9.7853-4.8318-15.3972l4.6038-51.1086
							c0.1134-1.2617,0.7215-2.4264,1.6909-3.2403l140.306-117.7301c2.0277-1.7003,5.0482-1.4348,6.7485,0.5905l61.3207,73.0788
							c0.8162,0.9729,1.2126,2.2312,1.1016,3.4964c-0.11,1.2653-0.7192,2.4347-1.692,3.2521l-140.306,117.7301
							C1068.2338,1015.27,1067.1427,1015.664,1066.0214,1015.664z M1009.2939,940.1939l-4.4272,49.1405
							c-0.2748,3.0556,0.6595,6.0317,2.6299,8.3809c1.9716,2.3505,4.7418,3.7877,7.7986,4.0472l49.1616,4.1723l135.1222-113.3812
							l-55.1627-65.7398L1009.2939,940.1939z"/>
						<path class="st2" d="M1027.2809,981.1154c-2.5531-3.0428-7.0895-3.4397-10.1323-0.8865
							c-3.0427,2.5532-3.4396,7.0896-0.8864,10.1323c2.5531,3.0427,7.0895,3.4396,10.1323,0.8865
							C1029.4373,988.6945,1029.8341,984.1581,1027.2809,981.1154z"/>
						<path class="st26" d="M1090.6608,963.4089l-34.9365-41.6357c-3.5074-4.18-10.2316-4.3656-14.9425-0.4126l-20.7001,17.3694
							c-4.711,3.953-5.6959,10.6072-2.1885,14.7872l34.9365,41.6357c3.5074,4.18,10.2316,4.3656,14.9426,0.4126l20.7-17.3694
							C1093.1833,974.243,1094.1681,967.5888,1090.6608,963.4089z"/>
						<path class="st24" d="M1136.5723,924.8845l-34.9364-41.6357c-3.5076-4.18-10.2317-4.3656-14.9426-0.4125l-20.7001,17.3694
							c-4.7111,3.953-5.6959,10.6072-2.1885,14.7872l34.9364,41.6357c3.5076,4.18,10.2316,4.3655,14.9426,0.4125l20.7001-17.3694
							C1139.0948,935.7187,1140.0797,929.0645,1136.5723,924.8845z"/>
						<path class="st27" d="M1182.4838,886.3602l-34.9364-41.6357c-3.5074-4.18-10.2316-4.3656-14.9426-0.4126l-20.7001,17.3694
							c-4.7111,3.9531-5.6958,10.6073-2.1885,14.7872l34.9365,41.6357c3.5074,4.18,10.2314,4.3656,14.9426,0.4126l20.7-17.3694
							C1185.0065,897.1943,1185.9912,890.5402,1182.4838,886.3602z"/>
					</g>
					<g>
						<path class="st6" d="M1062.9169,783.6247l-77.405,165.9957l17.4263,48.2668c3.0553,8.4625,12.4112,12.8252,20.8578,9.7261
							l48.1759-17.6759l77.405-165.9957L1062.9169,783.6247z"/>
						<path class="st2" d="M1018.1916,1013.4083c-3.0275,0-6.0433-0.663-8.8697-1.9809c-5.1078-2.382-8.9749-6.6129-10.8892-11.9136
							l-17.426-48.267c-0.4291-1.1904-0.3707-2.5036,0.1649-3.6508l77.4043-165.996c0.5367-1.1518,1.5084-2.0417,2.7024-2.4767
							c1.1927-0.4362,2.5118-0.3765,3.6625,0.1602l86.46,40.3176c2.3971,1.118,3.4344,3.9677,2.3164,6.3649l-77.4042,165.996
							c-0.5344,1.1472-1.5027,2.0359-2.6908,2.4721l-48.1758,17.675C1023.0843,1012.9768,1020.6333,1013.4083,1018.1916,1013.4083z
							 M990.6891,949.8529l16.7548,46.4077c1.0419,2.886,3.1456,5.1885,5.9264,6.4842c2.7784,1.2968,5.896,1.4266,8.7761,0.3719
							l46.3201-16.9945l74.545-159.8638l-77.7784-36.2693L990.6891,949.8529z"/>
						<path class="st2" d="M1024.2839,979.3389c-3.5999-1.6787-7.879-0.1212-9.5576,3.4787
							c-1.6787,3.5998-0.1212,7.8788,3.4787,9.5576c3.5998,1.6786,7.8788,0.1212,9.5576-3.4787
							C1029.4412,985.2966,1027.8837,981.0175,1024.2839,979.3389z"/>
						<path class="st5" d="M1074.2424,936.5059l-49.2593-22.97c-4.9453-2.306-11.1179,0.3675-13.7169,5.9412l-11.42,24.4902
							c-2.599,5.5736-0.6795,12.0206,4.2659,14.3266l49.2593,22.97c4.9452,2.306,11.1178-0.3675,13.7168-5.9411l11.42-24.4903
							C1081.1073,945.2589,1079.1877,938.8119,1074.2424,936.5059z"/>
						<path class="st1" d="M1099.5713,882.1879l-49.2592-22.9699c-4.9454-2.3061-11.1179,0.3674-13.717,5.9411l-11.4199,24.4902
							c-2.5991,5.5736-0.6794,12.0206,4.266,14.3267l49.2592,22.9699c4.9453,2.3061,11.1179-0.3675,13.7169-5.9411l11.4199-24.4902
							C1106.4362,890.9409,1104.5166,884.494,1099.5713,882.1879z"/>
						<path class="st3" d="M1124.9003,827.8699L1075.6409,804.9c-4.9453-2.3062-11.1178,0.3675-13.7168,5.9411l-11.42,24.4902
							c-2.599,5.5737-0.6794,12.0206,4.2659,14.3267l49.2593,22.9699c4.9453,2.3061,11.1179-0.3676,13.7169-5.9411l11.42-24.4902
							C1131.7651,836.6229,1129.8455,830.176,1124.9003,827.8699z"/>
					</g>
					<g>
						<path class="st6" d="M973.1178,785.2912v183.156l36.192,36.3798c6.3455,6.3784,16.6686,6.3784,23.014,0l36.192-36.3798
							v-183.156H973.1178z"/>
						<path class="st2" d="M1020.8169,1014.4011c-5.6353,0-10.9278-2.2008-14.9025-6.1953l-36.1921-36.3804
							c-0.8922-0.8981-1.3939-2.1119-1.3939-3.3783V785.2917c0-2.6451,2.1446-4.7897,4.7897-4.7897h95.3975
							c2.6451,0,4.7897,2.1446,4.7897,4.7897v183.1554c0,1.2664-0.5016,2.4802-1.3939,3.3783l-36.192,36.3804
							C1031.7446,1012.2003,1026.4521,1014.4011,1020.8169,1014.4011z M977.9079,966.4709l34.7982,34.9782
							c2.1633,2.1751,5.0435,3.3725,8.1108,3.3725c3.0672,0,5.9474-1.1974,8.1107-3.3725l34.7982-34.9782V790.0815h-85.8179
							V966.4709z"/>
						<circle class="st2" cx="1020.8169" cy="986.1874" r="7.192"/>
						<path class="st11" d="M1047.9926,919.0622h-54.3514c-5.4566,0-9.9209,5.0316-9.9209,11.1815v27.022
							c0,6.1498,4.4643,11.1815,9.9209,11.1815h54.3514c5.4567,0,9.921-5.0317,9.921-11.1815v-27.022
							C1057.9136,924.0938,1053.4492,919.0622,1047.9926,919.0622z"/>
						<path class="st23" d="M1047.9926,859.1289h-54.3514c-5.4566,0-9.9209,5.0317-9.9209,11.1815v27.022
							c0,6.1498,4.4643,11.1815,9.9209,11.1815h54.3514c5.4567,0,9.921-5.0317,9.921-11.1815v-27.022
							C1057.9136,864.1606,1053.4492,859.1289,1047.9926,859.1289z"/>
						<path class="st13" d="M1047.9926,799.1957h-54.3514c-5.4566,0-9.9209,5.0316-9.9209,11.1815v27.022
							c0,6.1498,4.4643,11.1815,9.9209,11.1815h54.3514c5.4567,0,9.921-5.0317,9.921-11.1815v-27.022
							C1057.9136,804.2273,1053.4492,799.1957,1047.9926,799.1957z"/>
					</g>
				</g>
				<g>
					<path class="st6" d="M1093.6455,717.0802l-43.2155,43.2156c-9.665,9.6649-11.6421,24.098-5.9486,35.7236l-3.9271,3.9271
						c-3.9421,3.9422-3.9421,10.3336,0,14.2758c3.9421,3.9422,10.3336,3.9422,14.2756,0l3.9272-3.9271
						c11.6256,5.6935,26.0586,3.7164,35.7236-5.9486l43.2155-43.2155L1093.6455,717.0802z"/>
					<path class="st2" d="M1047.6926,821.9609c-3.811,0-7.6232-1.45-10.5244-4.3524c-5.8036-5.8024-5.8036-15.2463,0-21.0487
						l1.6324-1.6324c-4.9078-13.0865-1.7892-27.9855,8.2428-38.0187l43.2155-43.2153c1.8687-1.871,4.9043-1.871,6.7729,0
						l44.0514,44.0514c0.8982,0.8981,1.4033,2.1166,1.4033,3.3865c0,1.27-0.5051,2.4885-1.4033,3.3865l-43.2164,43.2154
						c-10.0309,10.0309-24.9263,13.1531-38.0175,8.2429l-1.6324,1.6324C1055.3157,820.5109,1051.5035,821.9609,1047.6926,821.9609z
						 M1093.6454,723.8541l-39.8287,39.8276c-7.9646,7.9658-9.9878,20.1156-5.0331,30.2307c0.9004,1.8394,0.532,4.046-0.9155,5.4937
						l-3.9269,3.9267c-1.001,1.0022-1.5529,2.334-1.5529,3.7514c0,1.4173,0.5519,2.7491,1.5529,3.7513
						c1.0022,1.001,2.3341,1.5529,3.7515,1.5529c1.4172,0,2.749-0.5519,3.7513-1.5529l3.9268-3.9267
						c1.4476-1.4477,3.6542-1.8161,5.4937-0.9157c10.1139,4.9547,22.2626,2.9328,30.2295-5.0329l39.8289-39.8289L1093.6454,723.8541
						z"/>
					<path class="st23" d="M1168.5955,686.605L1168.5955,686.605c12.0472,12.0473,12.0472,31.5797,0,43.6269l-21.8135,21.8134
						l-43.6268-43.6268l21.8135-21.8135C1137.0159,674.5578,1156.5482,674.5578,1168.5955,686.605z"/>
					<path class="st25" d="M1168.5955,686.605L1168.5955,686.605c-1.2747-1.2747-2.6372-2.4061-4.0615-3.411
						c8.4929,12.039,7.3615,28.7927-3.4111,39.5652l-21.8134,21.8134l7.4727,7.4727l21.8134-21.8134
						C1180.6427,718.1847,1180.6428,698.6523,1168.5955,686.605z"/>
					<path class="st2" d="M1146.7817,756.8351c-1.2256,0-2.4523-0.4678-3.3865-1.4033l-43.6271-43.627
						c-1.871-1.8698-1.871-4.9031,0-6.773l21.8135-21.8134c13.8981-13.8969,36.5067-13.8934,50.4,0l0,0
						c6.7322,6.7309,10.439,15.6801,10.439,25.1999c0,9.5199-3.7068,18.4691-10.439,25.2l-21.8135,21.8135
						C1149.2339,756.3673,1148.0072,756.8351,1146.7817,756.8351z M1109.929,708.4183l36.8528,36.8528l18.427-18.4258
						c4.9219-4.9219,7.6324-11.4657,7.6324-18.427c0-6.9612-2.7106-13.5049-7.6324-18.4269l0,0
						c-10.1608-10.1584-26.6934-10.1584-36.854,0L1109.929,708.4183z"/>
					<path class="st23" d="M1151.2872,752.173l-48.6836-48.6836c-3.1134-3.1133-8.1611-3.1133-11.2745,0l0,0
						c-3.1133,3.1134-3.1133,8.1611,0,11.2744l48.6836,48.6836c3.1134,3.1134,8.1611,3.1134,11.2744,0h0.0001
						C1154.4005,760.3341,1154.4005,755.2863,1151.2872,752.173z"/>
					<path class="st25" d="M1151.2872,752.173l-9.7891-9.7891c3.1134,3.1134,3.1133,8.1611,0,11.2745
						c-3.1134,3.1133-8.1611,3.1133-11.2744,0l9.7889,9.789c3.1134,3.1134,8.1611,3.1134,11.2744,0
						C1154.4005,760.3341,1154.4005,755.2864,1151.2872,752.173z"/>
					<path class="st2" d="M1145.6497,770.5658c-3.2683,0-6.5355-1.243-9.0239-3.7303l-48.6833-48.6856
						c-2.41-2.4101-3.7374-5.6142-3.7374-9.0241c0-3.4087,1.3274-6.6128,3.7374-9.0229c4.9745-4.9756,13.0713-4.9745,18.0481-0.0011
						l48.6833,48.6845h0.0012c4.9733,4.9756,4.9733,13.0724,0,18.0481C1152.1865,769.3216,1148.917,770.5658,1145.6497,770.5658z
						 M1096.9664,705.9463c-0.8151,0-1.6301,0.3099-2.251,0.9308c-1.2407,1.2395-1.2407,3.2592,0,4.4998l48.6832,48.6845
						c1.2419,1.2395,3.2603,1.2407,4.5021-0.0012c1.2395-1.2395,1.2395-3.2602-0.0011-4.5009l-48.6821-48.6834
						C1098.5966,706.2562,1097.7815,705.9463,1096.9664,705.9463z"/>
					<path class="st13" d="M1041.4413,779.5613c-0.4929,5.5981,0.5159,11.3037,3.0403,16.4582l-3.9272,3.9271
						c-3.9421,3.942-3.9421,10.3335,0,14.2755c3.9421,3.9423,10.3336,3.9423,14.2756,0l3.9271-3.9271
						c11.6257,5.6935,26.0586,3.7165,35.7238-5.9486l24.7853-24.7851H1041.4413z"/>
					<path class="st2" d="M1047.6926,821.9609c-3.811,0-7.6232-1.45-10.5244-4.3524c-2.8112-2.8111-4.3594-6.5485-4.3594-10.5243
						c0-3.976,1.5482-7.7133,4.3594-10.5244l1.6335-1.6348c-1.871-5.0049-2.6053-10.398-2.1317-15.783
						c0.2174-2.4732,2.2885-4.3699,4.7711-4.3699h77.8252c1.9376,0,3.6836,1.167,4.4249,2.9573
						c0.7413,1.7891,0.3322,3.8496-1.0383,5.2189l-24.7861,24.7849c-10.0309,10.0309-24.9263,13.1531-38.0175,8.2429l-1.6324,1.6324
						C1055.3157,820.5109,1051.5035,821.9609,1047.6926,821.9609z M1046.1864,784.3516c0.2538,3.3222,1.1309,6.5672,2.5961,9.5608
						c0.9015,1.8394,0.5331,4.046-0.9144,5.4937l-3.9269,3.9267c-2.0674,2.0686-2.0674,5.4341,0,7.5027
						c2.0698,2.0675,5.433,2.0675,7.5028,0l3.9268-3.9267c1.4476-1.4477,3.6542-1.8161,5.4937-0.9157
						c10.1139,4.9547,22.2626,2.9328,30.2295-5.0329l16.6085-16.6086H1046.1864z"/>
				</g>
			</g>
			<g>
				<path class="st24" d="M686.4062,794.5001c-95.2791-79.8302-214.0533-27.1281-249.2347,37.0576
					c-45.211,82.4842-19.2774,181.4779,29.7997,179.281c42.4294-1.8993,43.3476-35.477,83.2808-47.8785
					c37.6877-11.7041,79.5604,31.597,140.3187,13.7537C736.161,963.325,775.774,869.3777,686.4062,794.5001z M554.8788,938.5493
					c-12.5134-0.9682-21.8728-11.8972-20.9046-24.4107c0.9682-12.5134,11.8973-21.8727,24.4107-20.9045
					c12.5134,0.9682,21.8728,11.8972,20.9046,24.4107C578.3213,930.1582,567.3922,939.5175,554.8788,938.5493z"/>
				<path class="st27" d="M732.6962,856.5348c11.807,51.3254-16.0459,96.4519-46.5885,105.4216
					c-60.7582,17.8433-102.631-25.4578-140.3187-13.7537c-39.9333,12.4015-40.8515,45.9792-83.2809,47.8785
					c-19.7216,0.8828-35.6996-14.5829-44.8318-38.7436c7.6216,32.4108,25.8028,54.5528,49.2948,53.5011
					c42.4294-1.8993,43.3476-35.477,83.2808-47.8785c37.6877-11.7041,79.5604,31.597,140.3187,13.7537
					C724.0126,966.8927,754.2345,913.7255,732.6962,856.5348z"/>
				<g>
					
						<ellipse transform="matrix(0.4086 -0.9127 0.9127 0.4086 -566.6247 982.1699)" class="st27" cx="474.5681" cy="928.3146" rx="33.6861" ry="33.686"/>
					
						<ellipse transform="matrix(0.8675 -0.4974 0.4974 0.8675 -396.2293 356.9478)" class="st23" cx="471.9732" cy="922.3038" rx="29.1765" ry="29.1766"/>
					<path class="st2" d="M472.0454,956.2763c-1.7049,0-3.4216-0.1275-5.1394-0.3871c-8.9708-1.353-16.8781-6.1182-22.2648-13.4197
						c-5.3868-7.3004-7.608-16.2613-6.2538-25.2327c1.3529-8.9715,6.1193-16.8788,13.4197-22.2649
						c7.2998-5.3873,16.2572-7.6115,25.2333-6.2538l0,0c8.9708,1.353,16.8781,6.1193,22.2648,13.4197
						c5.3868,7.3004,7.608,16.2625,6.2538,25.2327c-1.3529,8.9715-6.1193,16.8788-13.4197,22.2649
						C486.2363,953.9913,479.247,956.2763,472.0454,956.2763z M471.9209,897.9117c-5.171,0-10.1876,1.6418-14.426,4.7687
						c-5.2417,3.8671-8.6639,9.5444-9.6356,15.9853c-0.9718,6.4409,0.6227,12.8748,4.4904,18.1171
						c3.8671,5.2411,9.5444,8.6627,15.9853,9.6345c6.4374,0.9706,12.8742-0.6233,18.1165-4.4904
						c5.2417-3.8671,8.6639-9.5444,9.6356-15.9853c0.9718-6.4409-0.6227-12.8748-4.4904-18.116
						c-3.8671-5.2423-9.5444-8.6638-15.9853-9.6356l0,0C474.3783,898.0041,473.1452,897.9117,471.9209,897.9117z"/>
				</g>
				<g>
					
						<ellipse transform="matrix(0.417 -0.9089 0.9089 0.417 -472.5901 953.7975)" class="st27" cx="507.1972" cy="845.2863" rx="33.686" ry="33.6861"/>
					
						<ellipse transform="matrix(0.8087 -0.5882 0.5882 0.8087 -398.8193 458.6862)" class="st21" cx="505.7684" cy="842.4827" rx="27.5535" ry="27.5536"/>
					<path class="st2" d="M505.8379,874.833c-1.6236,0-3.259-0.1228-4.895-0.3696c-8.5422-1.2886-16.0718-5.827-21.2007-12.7789
						c-5.1294-6.9507-7.2442-15.4848-5.955-24.0271c2.6609-17.6353,19.1777-29.8155,36.806-27.1563l0,0
						c17.6353,2.6615,29.8172,19.173,27.1563,36.806c-1.2886,8.5423-5.8269,16.0718-12.7789,21.2018
						C519.35,872.6556,512.6951,874.833,505.8379,874.833z M505.7549,819.7169c-11.0646,0-20.7955,8.1038-22.4958,19.3695
						c-0.9068,6.0129,0.5818,12.0188,4.1916,16.9115c3.6099,4.8926,8.9095,8.0862,14.9218,8.9936
						c6.0129,0.9051,12.0182-0.5812,16.9109-4.191c4.8926-3.6099,8.0868-8.9095,8.9942-14.9224
						c1.8728-12.4105-6.7017-24.0318-19.1134-25.9051l0,0C508.0188,819.7999,506.8793,819.7169,505.7549,819.7169z"/>
				</g>
				<g>
					
						<ellipse transform="matrix(0.8047 -0.5937 0.5937 0.8047 -365.2704 514.5665)" class="st27" cx="599.4271" cy="812.4384" rx="33.6861" ry="33.686"/>
					
						<ellipse transform="matrix(0.9984 -0.0571 0.0571 0.9984 -45.1474 35.4265)" class="st17" cx="597.7031" cy="808.1913" rx="27.5535" ry="27.5535"/>
					<path class="st2" d="M597.7226,840.5376c-1.5997,0-3.2164-0.1193-4.8447-0.3649c-17.6348-2.6614-29.8167-19.173-27.1558-36.806
						c1.2887-8.5422,5.8264-16.0718,12.7783-21.2019c6.952-5.1288,15.4825-7.2454,24.0283-5.9544
						c17.6336,2.6603,29.8161,19.1707,27.1558,36.806C627.2697,829.0216,613.4419,840.5364,597.7226,840.5376z M597.6542,785.4227
						c-4.8266,0-9.51,1.5319-13.4659,4.4506c-4.8933,3.6099-8.0874,8.9095-8.9943,14.9224
						c-1.8727,12.4106,6.7017,24.0318,19.1134,25.9051c12.4088,1.8757,24.0323-6.7028,25.9051-19.1134
						c1.8722-12.4117-6.7022-24.0329-19.1134-25.9051c0,0,0,0-0.0005,0C599.9479,785.5092,598.7966,785.4227,597.6542,785.4227z"/>
				</g>
				<g>
					
						<ellipse transform="matrix(0.6771 -0.7359 0.7359 0.6771 -424.0216 784.6572)" class="st27" cx="682.1227" cy="875.5101" rx="33.686" ry="33.686"/>
					
						<ellipse transform="matrix(0.8047 -0.5937 0.5937 0.8047 -384.0704 574.1448)" class="st13" cx="680.5754" cy="870.7996" rx="27.5536" ry="27.5535"/>
					<path class="st2" d="M680.5954,903.1458c-1.5997,0-3.2163-0.1193-4.8447-0.3648
						c-17.6353-2.6615-29.8172-19.1731-27.1563-36.806c2.6603-17.6354,19.1748-29.8132,36.806-27.1564
						c17.6341,2.6603,29.8167,19.1707,27.1563,36.806C710.142,891.631,696.3142,903.1458,680.5954,903.1458z M680.5615,848.0344
						c-11.064,0-20.7949,8.1038-22.4952,19.3694c-1.8727,12.4106,6.7017,24.0319,19.1134,25.9052
						c12.4147,1.8792,24.033-6.7016,25.9052-19.1134c1.8722-12.4117-6.7022-24.0329-19.1134-25.9051
						C682.826,848.1175,681.6865,848.0344,680.5615,848.0344z"/>
				</g>
				<path class="st2" d="M465.3911,1015.664c-15.424,0.0012-29.4664-8.9597-39.7078-25.4023
					c-21.4001-34.3585-25.7689-100.6958,7.2881-161.0062c20.5523-37.496,65.4609-67.6751,114.4103-76.8863
					c50.6572-9.5315,101.1232,4.1267,142.1004,38.4595c42.9651,35.9992,62.2767,82.1696,52.9825,126.6723
					c-6.5163,31.2012-26.8283,56.8432-50.5444,63.808c-35.1998,10.3349-63.8787,1.1168-89.1822-7.0185
					c-19.2005-6.1708-35.7822-11.5043-51.0654-6.7556c-16.8986,5.247-26.4407,14.623-35.6682,23.6891
					c-11.6464,11.4424-23.6886,23.2741-48.819,24.4002C466.5856,1015.6512,465.9869,1015.664,465.3911,1015.664z M579.516,758.9212
					c-11.1002,0-21.334,1.1635-30.3627,2.8626c-46.2452,8.7013-88.552,36.9931-107.7811,72.0767
					c-30.9568,56.4772-26.9985,120.1238-7.5577,151.3367c6.1737,9.9116,16.9004,21.5913,32.9424,20.8569
					c21.4633-0.9612,31.2275-10.5547,42.5336-21.6626c9.5743-9.4076,20.426-20.0688,39.5406-26.0057
					c18.1773-5.6469,36.9557,0.3941,56.8385,6.7859c23.988,7.7108,51.1776,16.4542,83.5517,6.9461
					c20.4231-5.9978,38.0514-28.7327,43.8661-56.5743c8.5487-40.9351-9.5871-83.7142-49.7574-117.3711l0,0
					C646.9403,767.6822,609.9741,758.9212,579.516,758.9212z M556.6753,943.4097c-0.7192,0-1.4413-0.0281-2.1663-0.0842l0,0
					c-15.1265-1.1706-26.4805-14.4289-25.3105-29.5559c0.5671-7.3273,3.9537-13.9963,9.5362-18.7767
					c5.582-4.7804,12.6871-7.1004,20.0197-6.5344c15.127,1.1705,26.481,14.4289,25.3111,29.5559
					c-0.5672,7.3273-3.9537,13.9962-9.5363,18.7766C569.4992,941.099,563.2278,943.4097,556.6753,943.4097z M555.248,933.774
					c9.8497,0.7601,18.5031-6.6373,19.2661-16.4987c0.7631-9.8601-6.6379-18.5029-16.4987-19.2654
					c-4.7793-0.3648-9.4112,1.1437-13.0497,4.2589c-3.639,3.1164-5.8462,7.4629-6.2158,12.2398
					C537.9869,924.3688,545.3879,933.0116,555.248,933.774z"/>
			</g>
			<path class="st2" d="M1599.7769,1015.664h-15.5668c-2.645,0-4.7897-2.1446-4.7897-4.7897c0-2.6451,2.1447-4.7899,4.7897-4.7899
				h15.5668c2.6451,0,4.7898,2.1447,4.7898,4.7899C1604.5667,1013.5194,1602.422,1015.664,1599.7769,1015.664z"/>
			<path class="st2" d="M1555.4716,1015.664H413.765c-2.6451,0-4.7897-2.1446-4.7897-4.7897c0-2.6451,2.1446-4.7899,4.7897-4.7899
				h1141.7065c2.6453,0,4.7898,2.1447,4.7898,4.7899C1560.2614,1013.5194,1558.1168,1015.664,1555.4716,1015.664z"/>
			<path class="st2" d="M362.8242,1015.664H92.2021c-2.6451,0-4.7897-2.1446-4.7897-4.7897c0-2.6451,2.1446-4.7899,4.7897-4.7899
				h270.6221c2.6452,0,4.7898,2.1447,4.7898,4.7899C367.614,1013.5194,365.4694,1015.664,362.8242,1015.664z"/>
			<path class="st2" d="M65.8591,1015.664H4.7898c-2.6452,0-4.7898-2.1446-4.7898-4.7897c0-2.6451,2.1446-4.7899,4.7898-4.7899
				h61.0693c2.6451,0,4.7897,2.1447,4.7897,4.7899C70.6488,1013.5194,68.5042,1015.664,65.8591,1015.664z"/>
		</g>
	</g>
</g>
</svg>
