<?xml version="1.0" encoding="utf-8"?>
<!-- Generator: Adobe Illustrator 18.0.0, SVG Export Plug-In . SVG Version: 6.00 Build 0)  -->
<!DOCTYPE svg PUBLIC "-//W3C//DTD SVG 1.1//EN" "http://www.w3.org/Graphics/SVG/1.1/DTD/svg11.dtd">
<svg version="1.1" id="Layer_1" xmlns="http://www.w3.org/2000/svg" xmlns:xlink="http://www.w3.org/1999/xlink" x="0px" y="0px"
	 viewBox="0 194.3 560 571.3" enable-background="new 0 194.3 560 571.3" xml:space="preserve">
<g>
	<circle fill="#EEEEEE" cx="280" cy="480" r="275.9"/>
</g>
<g>
	<g>
		<g>
			<rect x="128.2" y="721" fill="#FFFFFF" width="303.5" height="35.7"/>
		</g>
		<g>
			<rect x="164" y="613.9" fill="#FFFFFF" width="232.1" height="107.2"/>
		</g>
		<g>
			<polygon fill="#FFC63D" points="378.2,613.9 181.8,613.9 217.5,578.2 342.5,578.2 			"/>
		</g>
		<g>
			<path fill="#FFC63D" d="M262.2,578.2v-89.3C208.6,471,155,381.7,155,292.5c0-26.8,9-89.3,9-89.3h232.1c0,0,9,62.5,9,89.3
				c0,89.3-53.5,178.5-107.2,196.4v89.3H262.2z"/>
		</g>
		<g>
			<path fill="#333333" d="M306.8,578.2H289v-89.3c0-3.8,2.5-7.2,6.1-8.5c47.7-15.9,101-99.6,101-187.9c0-20.4-5.4-63-7.8-80.3
				H171.8c-2.4,17.4-7.8,59.9-7.8,80.3c0,88.3,53.3,172,101,187.9c3.7,1.2,6.1,4.7,6.1,8.5v89.3h-17.8v-83.1
				c-57.8-24.2-107.2-116.6-107.2-202.6c0-27.1,8.7-87.9,9.1-90.5c0.6-4.4,4.4-7.7,8.9-7.7h232.1c4.5,0,8.2,3.3,8.9,7.7
				c0.4,2.6,9.1,63.4,9.1,90.5c0,86-49.4,178.2-107.2,202.6v83.1H306.8z"/>
		</g>
		<g>
			<path fill="#333333" d="M378.2,622.8H181.8c-3.6,0-6.9-2.2-8.2-5.5c-1.4-3.3-0.6-7.1,1.9-9.7l35.7-35.7c1.6-1.6,3.9-2.7,6.3-2.7
				h125c2.4,0,4.7,0.9,6.3,2.7l35.7,35.7c2.6,2.6,3.3,6.4,1.9,9.7C385,620.6,381.8,622.8,378.2,622.8z M203.3,605h153.3l-17.8-17.8
				H221.2L203.3,605z"/>
		</g>
		<g>
			<path fill="#333333" d="M396,730H164c-4.9,0-9-4-9-9V613.9c0-4.9,4-9,9-9h232.1c4.9,0,9,4,9,9V721C405,726,401,730,396,730z
				 M172.8,712.1h214.3v-89.3H172.8V712.1z"/>
		</g>
		<g>
			<path fill="#333333" d="M431.8,765.7H128.2c-4.9,0-9-4-9-9V721c0-4.9,4-9,9-9h303.5c4.9,0,9,4,9,9v35.7
				C440.7,761.6,436.7,765.7,431.8,765.7z M137.2,747.8h285.7V730H137.2V747.8z"/>
		</g>
		<g>
			<path fill="#333333" d="M195,442.9c-4.9-3-120.3-75.5-120.3-204.1c0-4.9,4-9,9-9h71.5v17.8H92.8
				c5.3,112.9,110.5,179.2,111.6,179.9L195,442.9z"/>
		</g>
		<g>
			<path fill="#333333" d="M365,442.9l-9.3-15.2c1.1-0.6,106.2-67,111.6-179.9H405V230h71.5c4.9,0,9,4,9,9
				C485.3,367.5,369.9,439.9,365,442.9z"/>
		</g>
	</g>
	<g>
		<rect x="271" y="658.5" fill="#333333" width="17.8" height="17.8"/>
	</g>
	<g>
		<rect x="235.3" y="658.5" fill="#333333" width="17.8" height="17.8"/>
	</g>
	<g>
		<rect x="306.8" y="658.5" fill="#333333" width="17.8" height="17.8"/>
	</g>
	<g>
		<polygon fill="#FFFFFF" points="280,256.8 292.9,292.5 333.5,292.5 301,316.6 315.7,355 280,328.2 244.3,355 259,316.7 
			226.5,292.5 267.1,292.5 		"/>
	</g>
</g>
</svg>
