<?xml version="1.0" encoding="utf-8"?>
<!-- Generator: Adobe Illustrator 18.0.0, SVG Export Plug-In . SVG Version: 6.00 Build 0)  -->
<!DOCTYPE svg PUBLIC "-//W3C//DTD SVG 1.1//EN" "http://www.w3.org/Graphics/SVG/1.1/DTD/svg11.dtd">
<svg version="1.1" id="Layer_1" xmlns="http://www.w3.org/2000/svg" xmlns:xlink="http://www.w3.org/1999/xlink" x="0px" y="0px"
	 viewBox="0 0 560 368.2" enable-background="new 0 0 560 368.2" xml:space="preserve">
<radialGradient id="SVGID_1_" cx="9139.3428" cy="-18401.209" r="2577.301" fx="7289.604" fy="-18381.9355" gradientTransform="matrix(6.467046e-02 0 0 1.208044e-02 -226.8495 556.6226)" gradientUnits="userSpaceOnUse">
	<stop  offset="0" style="stop-color:#858585"/>
	<stop  offset="3.213459e-02" style="stop-color:#8F8F8F"/>
	<stop  offset="0.1534" style="stop-color:#B2B2B2"/>
	<stop  offset="0.2829" style="stop-color:#CECECE"/>
	<stop  offset="0.4215" style="stop-color:#E4E4E4"/>
	<stop  offset="0.5733" style="stop-color:#F3F3F3"/>
	<stop  offset="0.7484" style="stop-color:#FCFCFC"/>
	<stop  offset="1" style="stop-color:#FFFFFF"/>
</radialGradient>
<path fill="url(#SVGID_1_)" d="M560,334.2c0,18.8-81.5,34-182,34s-182-15.2-182-34c0-18.8,81.5-34,182-34S560,315.4,560,334.2z"/>
<linearGradient id="SVGID_2_" gradientUnits="userSpaceOnUse" x1="7226.4263" y1="-2127.7437" x2="6746.4385" y2="-2784.8071" gradientTransform="matrix(6.467046e-02 0 0 6.467046e-02 -226.8495 465.9604)">
	<stop  offset="0.3097" style="stop-color:#E74C3C"/>
	<stop  offset="1" style="stop-color:#000000"/>
</linearGradient>
<polygon fill="url(#SVGID_2_)" points="246.9,334.4 194.2,307.5 202.6,271.3 236,279.7 "/>
<linearGradient id="SVGID_3_" gradientUnits="userSpaceOnUse" x1="7475.0176" y1="-2551.5386" x2="7749.1982" y2="-3411.4272" gradientTransform="matrix(6.467046e-02 0 0 6.467046e-02 -226.8495 465.9604)">
	<stop  offset="0.3097" style="stop-color:#E74C3C"/>
	<stop  offset="1" style="stop-color:#000000"/>
</linearGradient>
<polygon fill="url(#SVGID_3_)" points="334.6,276.3 194.2,307.5 213.5,216.1 305.2,184.1 "/>
<linearGradient id="SVGID_4_" gradientUnits="userSpaceOnUse" x1="7184.6958" y1="-2707.5979" x2="7049.2075" y2="-3727.0244" gradientTransform="matrix(6.467046e-02 0 0 6.467046e-02 -226.8495 465.9604)">
	<stop  offset="0.3097" style="stop-color:#E74C3C"/>
	<stop  offset="1" style="stop-color:#000000"/>
</linearGradient>
<polygon fill="url(#SVGID_4_)" points="334.6,276.3 132.7,242.7 132.7,131.3 312.8,169.5 "/>
<polygon fill="#E74C3C" points="405.5,245.8 132.7,242.7 109.3,120.3 446.1,50.1 "/>
<polygon fill="#E74C3C" points="502.2,149.9 446.6,138.8 517.9,143.9 "/>
<polygon fill="#E74C3C" points="512.8,64.9 466.8,75.8 512.8,44.8 "/>
<polyline fill="#E74C3C" points="391.1,48.5 396.2,0 406.5,13.9 391.1,48.5 "/>
<polygon fill="#E74C3C" points="67.2,57.2 123.3,103.7 69.3,77.2 "/>
<polyline fill="#E74C3C" points="110.7,191.7 74.4,217.4 78.6,201.3 110.7,191.7 "/>
<polygon fill="#E74C3C" points="0,136.2 77.9,148.4 18,153.6 "/>
<g enable-background="new    ">
	<path fill="#960000" d="M142.6,157.6l14.4-2.9c6.6-1.3,11.5-1.3,14.8-0.1c3.3,1.2,5.4,3.7,6.1,7.7c0.5,2.6,0.3,4.9-0.6,6.9
		c-1,1.9-2.5,3.3-4.5,4.1l0,0.3c3,0,5.4,0.8,7,2.3c1.6,1.5,2.7,3.6,3.3,6.5c0.8,4.1-0.1,7.5-2.7,10.3c-2.6,2.9-6.5,4.8-11.7,5.9
		l-17.3,3.4L142.6,157.6z M155.8,173.2l5.7-1.1c2.6-0.5,4.5-1.3,5.5-2.3c1-1,1.4-2.4,1-4.2c-0.3-1.7-1.2-2.8-2.7-3.3
		c-1.4-0.5-3.6-0.5-6.4,0.1l-5.1,1L155.8,173.2z M157.3,180.7l2.3,11.5l6.4-1.2c2.7-0.6,4.6-1.4,5.7-2.7c1.1-1.2,1.4-2.9,1-4.9
		c-0.7-3.7-3.8-5-9.3-3.9L157.3,180.7z"/>
	<path fill="#960000" d="M201.2,174.4l3.4,17l-9.8,1.9l-8.8-44.3l13.4-2.7c6.3-1.2,11.1-1.1,14.6,0.5c3.5,1.6,5.6,4.6,6.5,9.1
		c0.5,2.6,0.2,5.1-0.9,7.4c-1.1,2.3-2.9,4.3-5.4,6.1l17.4,16.6l-10.9,2.2l-14.4-14.8L201.2,174.4z M199.6,166.7l3.1-0.6
		c3.1-0.6,5.3-1.6,6.6-2.9s1.7-3,1.3-5.1c-0.4-2.1-1.5-3.5-3.1-4c-1.7-0.6-4.1-0.6-7.3,0l-3,0.6L199.6,166.7z"/>
	<path fill="#960000" d="M265.7,179.2l-5.5-9.9l-16.8,3.3l-1.2,11.2l-10.5,2.1l7.4-47.8l12-2.4l25.2,41.3L265.7,179.2z M256.3,161.9
		c-5-9-7.8-14-8.5-15.2c-0.6-1.2-1.1-2.1-1.4-2.8c-0.2,2.7-0.9,9.5-2.1,20.4L256.3,161.9z"/>
	<path fill="#960000" d="M299.5,126.4l9.9-2l-6.8,47.5l-10.7,2.1l-24.5-41.2l9.9-2l14,24.7c0.8,1.5,1.7,3.2,2.6,5.1
		c0.9,2,1.5,3.3,1.8,4.1c-0.1-1.9,0-5.3,0.4-10.3L299.5,126.4z"/>
	<path fill="#960000" d="M361.5,137c1.5,7.3,0.7,13.3-2.3,18.1c-3,4.7-8,7.8-15.1,9.1c-7.1,1.4-12.9,0.5-17.5-2.7s-7.6-8.5-9.1-15.8
		c-1.5-7.4-0.7-13.4,2.3-18.1c3-4.7,8.1-7.7,15.2-9.1c7.1-1.4,12.9-0.5,17.4,2.6C357,124.4,360,129.7,361.5,137z M327.8,143.7
		c1,4.9,2.7,8.5,5.2,10.6c2.4,2.1,5.6,2.8,9.5,2c7.8-1.6,10.7-7.3,8.7-17.3c-2-10-6.9-14.2-14.6-12.7c-3.9,0.8-6.6,2.6-8,5.5
		C327.1,134.8,326.8,138.8,327.8,143.7z"/>
	<path fill="#960000" d="M384.7,140.2l-7.7,1.5l-7.5-29.3l10.9-2.2L384.7,140.2z M377.4,152.4c-0.2-1-0.2-1.8,0-2.5
		c0.1-0.7,0.5-1.3,0.9-1.8c0.4-0.5,1-0.9,1.6-1.2c0.6-0.3,1.3-0.6,2.1-0.7c0.7-0.1,1.4-0.2,2.2-0.1c0.7,0,1.3,0.2,1.9,0.5
		c0.6,0.3,1.1,0.7,1.5,1.3c0.4,0.6,0.7,1.4,0.9,2.3c0.2,0.9,0.2,1.7,0,2.4c-0.2,0.7-0.5,1.3-0.9,1.8c-0.4,0.5-0.9,1-1.6,1.3
		s-1.3,0.6-2,0.7c-0.8,0.1-1.5,0.2-2.2,0.1c-0.7,0-1.3-0.2-1.9-0.6s-1.1-0.8-1.5-1.4C377.8,154.1,377.5,153.4,377.4,152.4z"/>
	<path fill="#960000" d="M410.7,135l-7.7,1.5l-7.5-29.3l10.9-2.2L410.7,135z M403.4,147.3c-0.2-1-0.2-1.8,0-2.5
		c0.1-0.7,0.5-1.3,0.9-1.8c0.4-0.5,1-0.9,1.6-1.2c0.6-0.3,1.3-0.6,2.1-0.7c0.7-0.1,1.4-0.2,2.2-0.1c0.7,0,1.3,0.2,1.9,0.5
		c0.6,0.3,1.1,0.7,1.5,1.3s0.7,1.4,0.9,2.3c0.2,0.9,0.2,1.7,0,2.4c-0.2,0.7-0.5,1.3-0.9,1.8c-0.4,0.5-0.9,1-1.6,1.3
		c-0.6,0.3-1.3,0.6-2,0.7c-0.8,0.1-1.5,0.2-2.2,0.1c-0.7,0-1.3-0.2-1.9-0.6c-0.6-0.3-1.1-0.8-1.5-1.4
		C403.9,148.9,403.5,148.2,403.4,147.3z"/>
</g>
<g>
	<path fill="#FFFFFF" d="M149.6,201.2l-8.8-44.3l14.4-2.9c6.6-1.3,11.5-1.3,14.8-0.2c3.3,1.2,5.4,3.7,6.1,7.6
		c0.5,2.6,0.3,4.9-0.6,6.9c-1,1.9-2.5,3.3-4.6,4.1l0,0.3c3,0,5.3,0.8,6.9,2.3c1.6,1.5,2.7,3.6,3.3,6.5c0.8,4.1-0.1,7.5-2.6,10.4
		c-2.6,2.9-6.5,4.8-11.6,5.9L149.6,201.2z M154,172.4l5.7-1.1c2.7-0.5,4.5-1.3,5.5-2.3c1-1,1.4-2.4,1-4.2c-0.3-1.7-1.2-2.8-2.7-3.3
		c-1.4-0.5-3.6-0.5-6.4,0.1l-5.2,1L154,172.4z M157.8,191.5l6.4-1.2c2.7-0.6,4.6-1.4,5.7-2.7c1.1-1.2,1.4-2.9,1-4.9
		c-0.7-3.7-3.8-5-9.3-3.9l-6.1,1.2L157.8,191.5z"/>
	<path fill="#FFFFFF" d="M193,192.6l-8.8-44.3l13.4-2.7c6.2-1.2,11.1-1.1,14.5,0.5c3.4,1.6,5.6,4.6,6.5,9.1c0.5,2.6,0.2,5.1-0.8,7.4
		c-1.1,2.3-2.9,4.3-5.3,6.1l17.4,16.6l-10.9,2.2l-14.3-14.8l-5.2,1l3.4,17L193,192.6z M197.8,165.9l3.1-0.6c3.1-0.6,5.3-1.6,6.5-2.9
		c1.2-1.3,1.7-3,1.3-5.1c-0.4-2.1-1.5-3.5-3.1-4.1c-1.7-0.6-4.1-0.6-7.3,0l-3,0.6L197.8,165.9z"/>
	<path fill="#FFFFFF" d="M229.9,185.2l7.4-47.8l12-2.4l25.2,41.3l-10.5,2.1l-5.5-10l-16.8,3.4l-1.2,11.3L229.9,185.2z M242.5,163.5
		l12.1-2.4c-5-9-7.8-14-8.5-15.2c-0.6-1.2-1.1-2.1-1.4-2.8C244.5,145.9,243.8,152.7,242.5,163.5z"/>
	<path fill="#FFFFFF" d="M264.3,132.3l9.7-1.9l14,24.7c0.8,1.5,1.7,3.2,2.6,5.1c0.9,2,1.5,3.3,1.8,4.1c-0.1-1.9,0-5.3,0.4-10.3
		l3.5-28.1l9.7-1.9l-6.8,47.4l-10.7,2.1L264.3,132.3z"/>
	<path fill="#FFFFFF" d="M314.2,145.3c-1.5-7.4-0.7-13.4,2.3-18.1c3-4.7,8.1-7.7,15.2-9.1c7.1-1.4,12.9-0.5,17.4,2.7
		c4.5,3.2,7.5,8.5,9,15.8c1.5,7.3,0.7,13.3-2.3,18c-3,4.7-8,7.8-15.1,9.1c-7.1,1.4-12.9,0.5-17.5-2.7
		C318.6,158,315.6,152.7,314.2,145.3z M324.4,143.3c1,5,2.7,8.5,5.2,10.7c2.4,2.1,5.6,2.8,9.6,2c7.8-1.6,10.7-7.3,8.7-17.4
		c-2-10-6.9-14.3-14.7-12.7c-3.9,0.8-6.6,2.6-8.1,5.5C323.6,134.4,323.4,138.4,324.4,143.3z"/>
	<path fill="#FFFFFF" d="M366.1,112l10.4-2.1l4.4,29.9l-8.3,1.7L366.1,112z M374,152c-0.2-1-0.2-1.8-0.1-2.5
		c0.1-0.7,0.4-1.3,0.7-1.8c0.4-0.5,0.8-0.9,1.3-1.2c0.6-0.3,1.2-0.5,1.8-0.6c0.8-0.1,1.5-0.2,2.2-0.2c0.7,0,1.4,0.2,2,0.5
		c0.6,0.3,1.1,0.7,1.6,1.3c0.5,0.6,0.7,1.4,0.9,2.3c0.2,0.9,0.2,1.7,0,2.4c-0.2,0.7-0.5,1.3-0.9,1.8c-0.5,0.5-1,1-1.6,1.3
		s-1.3,0.6-2.1,0.7c-0.7,0.1-1.3,0.2-1.9,0.1c-0.6-0.1-1.2-0.3-1.7-0.6c-0.5-0.3-1-0.8-1.3-1.4C374.4,153.7,374.2,152.9,374,152z"/>
	<path fill="#FFFFFF" d="M392.2,106.8l10.4-2.1l4.4,29.9l-8.3,1.7L392.2,106.8z M400,146.8c-0.2-1-0.2-1.8-0.1-2.5
		c0.1-0.7,0.4-1.3,0.7-1.8c0.4-0.5,0.8-0.9,1.3-1.2c0.6-0.3,1.2-0.5,1.8-0.6c0.8-0.1,1.5-0.2,2.2-0.2c0.7,0,1.4,0.2,2,0.5
		c0.6,0.3,1.1,0.7,1.6,1.3c0.5,0.6,0.7,1.4,0.9,2.3c0.2,0.9,0.2,1.7,0,2.4c-0.2,0.7-0.5,1.3-0.9,1.8c-0.5,0.5-1,1-1.6,1.3
		c-0.6,0.3-1.3,0.6-2.1,0.7c-0.7,0.1-1.3,0.2-1.9,0.1c-0.6-0.1-1.2-0.3-1.7-0.6s-1-0.8-1.3-1.4C400.4,148.5,400.2,147.8,400,146.8z"
		/>
</g>
</svg>
