<?xml version="1.0" encoding="utf-8"?>
<!-- Generator: Adobe Illustrator 18.0.0, SVG Export Plug-In . SVG Version: 6.00 Build 0)  -->
<!DOCTYPE svg PUBLIC "-//W3C//DTD SVG 1.1//EN" "http://www.w3.org/Graphics/SVG/1.1/DTD/svg11.dtd">
<svg version="1.1" id="Layer_1" xmlns="http://www.w3.org/2000/svg" xmlns:xlink="http://www.w3.org/1999/xlink" x="0px" y="0px"
	 viewBox="29 153 468.5 480.8" enable-background="new 29 153 468.5 480.8" xml:space="preserve">
<g>
	<g>
		<rect x="238.1" y="477.1" fill="#FFC63D" width="90.9" height="8.2"/>
		<rect x="218.3" y="489" fill="#FFC63D" width="126.5" height="24.8"/>
		<polygon fill="#E94A35" points="99.6,547.5 32.2,547.5 63.3,589.1 33.8,630.6 134.5,630.3 99.6,599.4 		"/>
		<polygon fill="#E94A35" points="426.1,545.4 493.6,545.4 462.5,587 492,628.5 391.3,628.2 426.1,597.3 		"/>
		<rect x="99.7" y="515.7" fill="#E94A35" width="325" height="80.3"/>
		<path fill="#FFC63D" d="M264.2,197.5c-1.7,0-3.2-1.5-3.2-3.2V162c0-1.7,1.5-3.2,3.2-3.2s3.2,1.5,3.2,3.2v32.4
			C267.4,196.1,265.9,197.5,264.2,197.5z"/>
		<path fill="#FFC63D" d="M197,220.5c-0.8,0-1.6-0.3-2.3-0.9l-22.9-22.9c-1.3-1.3-1.3-3.3,0-4.5c1.3-1.3,3.3-1.3,4.5,0l22.9,22.9
			c1.3,1.3,1.3,3.3,0,4.5C198.7,220.2,197.8,220.5,197,220.5z"/>
		<path fill="#FFC63D" d="M333.7,220.4c-0.8,0-1.6-0.3-2.3-0.9c-1.3-1.3-1.3-3.3,0-4.5l22.9-22.9c1.3-1.3,3.3-1.3,4.5,0
			c1.3,1.3,1.3,3.3,0,4.5l-22.9,22.9C335.4,220.1,334.5,220.4,333.7,220.4z"/>
		<path fill="#333333" d="M346.5,518.2c-1.7,0-3.2-1.5-3.2-3.2v-24.6l-158.5,0.2l0.2,23.2c0,1.7-1.5,3.2-3.2,3.2s-3.2-1.5-3.2-3.2
			v-23.3c0-4,3.2-6.2,6.2-6.2h158.7c3,0,6.2,2.2,6.2,6.2V515C349.7,516.9,348.3,518.2,346.5,518.2z"/>
		<path fill="#333333" d="M328.2,490.6H200.1c-1.7,0-3.2-1.5-3.2-3.2v-23.9c0-1.7,1.5-3.2,3.2-3.2h128.1c1.7,0,3.2,1.5,3.2,3.2v23.9
			C331.4,489.2,330,490.6,328.2,490.6z M203.2,484.2h121.7v-17.5H203.2V484.2z"/>
		<path fill="#333333" d="M300.8,466.7h-73.2c-0.9,0-1.7-0.4-2.4-1.1c-0.6-0.6-0.9-1.6-0.8-2.5l7-65.8c0.2-1.7,1.7-3,3.5-2.8
			c1.7,0.2,3,1.7,2.8,3.5l-6.7,62.2h66.1l-6.7-62.6c-0.2-1.7,1.1-3.3,2.8-3.5c1.7-0.2,3.3,1.1,3.5,2.8l7.1,66.2
			c0.1,0.9-0.2,1.8-0.8,2.5C302.5,466.4,301.7,466.7,300.8,466.7z"/>
		<path fill="#333333" d="M426.8,601.3h-327c-1.7,0-3.2-1.5-3.2-3.2V515c0-1.7,1.5-3.2,3.2-3.2h327.1c1.7,0,3.2,1.5,3.2,3.2v83.1
			C430,599.9,428.6,601.3,426.8,601.3z M102.8,594.9h320.8v-76.7H102.8V594.9z"/>
		<g>
			<path fill="#333333" d="M494.3,632.5H390.4c-1.7,0-3.2-1.5-3.2-3.2v-31.1c0-1.7,1.5-3.2,3.2-3.2s3.2,1.5,3.2,3.2v28h94.2
				l-27.4-36.4c-0.8-1.1-0.8-2.7,0-3.8l27.4-36.4h-61.1c-1.7,0-3.2-1.5-3.2-3.2c0-1.7,1.5-3.2,3.2-3.2h67.5c1.2,0,2.3,0.6,2.8,1.7
				c0.5,1.1,0.5,2.4-0.3,3.4l-29.7,39.6l29.7,39.6c0.7,1,0.8,2.3,0.3,3.4C496.6,631.8,495.5,632.5,494.3,632.5z"/>
			<path fill="#333333" d="M390.4,632.5c-0.9,0-1.8-0.4-2.5-1.1c-1.2-1.4-1-3.4,0.4-4.5l36.3-31.1c1.4-1.2,3.4-1,4.5,0.4
				c1.2,1.4,1,3.4-0.4,4.5l-36.3,31.1C391.9,632.3,391.2,632.5,390.4,632.5z"/>
		</g>
		<g>
			<path fill="#333333" d="M136.1,633.8H32.2c-1.2,0-2.3-0.6-2.8-1.7c-0.5-1.1-0.5-2.4,0.3-3.4l29.7-39.6l-29.7-39.6
				c-0.7-1-0.8-2.3-0.3-3.4c0.5-1.1,1.6-1.7,2.8-1.7h67.5c1.7,0,3.2,1.5,3.2,3.2c0,1.7-1.5,3.2-3.2,3.2H38.6l27.3,36.4
				c0.8,1.1,0.8,2.7,0,3.8l-27.4,36.4h94.2v-28c0-1.7,1.5-3.2,3.2-3.2s3.2,1.5,3.2,3.2v31.1C139.3,632.4,137.8,633.8,136.1,633.8z"
				/>
			<path fill="#333333" d="M136.1,633.8c-0.7,0-1.5-0.3-2.1-0.7L97.6,602c-1.4-1.2-1.5-3.2-0.4-4.5c1.2-1.4,3.2-1.5,4.5-0.4
				l36.3,31.1c1.4,1.2,1.5,3.2,0.4,4.5C137.8,633.5,136.9,633.8,136.1,633.8z"/>
		</g>
		<g>
			<polygon fill="#FFC63D" points="264.2,236.8 292.5,294.3 356,303.6 310.1,348.3 320.9,411.6 264.2,381.7 207.3,411.6 
				218.1,348.3 172.2,303.6 235.7,294.3 			"/>
			<path fill="#FFFFFF" d="M242.4,393.2c-21.2-63.6,17.5-112.5,34.7-130.1l-13-26.3l-28.4,57.6l-63.5,9.2l45.9,44.8l-10.9,63.2
				L242.4,393.2z"/>
		</g>
		<path fill="#333333" d="M320.9,414.8c-0.5,0-1-0.1-1.5-0.4l-55.3-29.1l-55.4,29.1c-1.1,0.5-2.4,0.5-3.4-0.3
			c-1-0.7-1.5-1.9-1.3-3.1l10.6-61.6L170,305.9c-0.9-0.8-1.2-2.1-0.8-3.3s1.4-2,2.6-2.2l61.9-9l27.6-56.1c0.5-1.1,1.6-1.7,2.8-1.7
			l0,0c1.2,0,2.3,0.7,2.8,1.7l27.6,56.1l61.9,9c1.2,0.2,2.2,1,2.6,2.2c0.4,1.2,0.1,2.5-0.8,3.3l-44.7,43.6l10.5,61.6
			c0.2,1.2-0.3,2.4-1.3,3.1C322.3,414.6,321.6,414.8,320.9,414.8z M179.1,305.8l41.4,40.3c0.7,0.7,1.1,1.8,0.9,2.8l-9.8,56.9
			l51.1-26.8c0.9-0.5,2-0.5,2.9,0l51.1,26.8l-9.8-56.9c-0.2-1,0.2-2.1,0.9-2.8l41.4-40.3l-57.1-8.3c-1-0.2-1.9-0.8-2.4-1.7
			l-25.5-51.8l-25.5,51.8c-0.5,0.9-1.4,1.6-2.4,1.7L179.1,305.8z"/>
	</g>
</g>
</svg>
