<?xml version="1.0" encoding="utf-8"?>
<!-- Generator: Adobe Illustrator 18.0.0, SVG Export Plug-In . SVG Version: 6.00 Build 0)  -->
<!DOCTYPE svg PUBLIC "-//W3C//DTD SVG 1.1//EN" "http://www.w3.org/Graphics/SVG/1.1/DTD/svg11.dtd">
<svg version="1.1" id="Elements" xmlns="http://www.w3.org/2000/svg" xmlns:xlink="http://www.w3.org/1999/xlink" x="0px" y="0px"
	 viewBox="138 265.1 290 341.9" enable-background="new 138 265.1 290 341.9" xml:space="preserve">
<g>
	<rect x="215.9" y="265.1" fill="#AE3424" width="138.2" height="38.6"/>
	<polygon fill="#E94A35" points="311.2,465.4 264.5,465.4 181.3,285.4 216.7,265.1 	"/>
	<polygon fill="#E94A35" points="259.1,465.4 305.8,465.4 391,286.1 354.3,265.1 	"/>
	<g>
		<g>
			<path fill="#FEEB64" d="M367.1,466.7c0,44.9-36.4,81.3-81.3,81.3s-81.3-36.4-81.3-81.3s36.4-81.3,81.3-81.3
				S367.1,421.8,367.1,466.7z"/>
			<path fill="#FFCC32" d="M356.5,466.7c0,39.1-31.6,70.7-70.7,70.7s-70.7-31.6-70.7-70.7s31.6-70.7,70.7-70.7
				C324.8,396,356.5,427.6,356.5,466.7z"/>
			<g>
				<path fill="#FBAC2A" d="M277.4,522.9c3.6,3.6,2.8,10.3,2.8,10.3s-6.7,0.8-10.3-2.8c-3.6-3.6-2.8-10.3-2.8-10.3
					S273.8,519.2,277.4,522.9z"/>
				<path fill="#FBAC2A" d="M297.6,523.6c3.6-3.6,10.3-2.8,10.3-2.8s0.8,6.7-2.8,10.3c-3.6,3.6-10.3,2.8-10.3,2.8
					S294,527.2,297.6,523.6z"/>
				<path fill="#FBAC2A" d="M292.6,528.5c0,5.1-5.4,9.2-5.4,9.2s-5.4-4.2-5.4-9.2s5.4-9.2,5.4-9.2S292.6,523.4,292.6,528.5z"/>
			</g>
			<g>
				<path fill="#FBAC2A" d="M242.4,498.9c0,5.1-5.3,9.2-5.3,9.2s-5.4-4.2-5.4-9.2c0-5.1,5.4-9.2,5.4-9.2S242.4,493.8,242.4,498.9z"
					/>
				<path fill="#FBAC2A" d="M256.2,513.7c5.1,0,9.2,5.4,9.2,5.4s-4.2,5.4-9.2,5.4c-5.1,0-9.2-5.4-9.2-5.4S251,513.7,256.2,513.7z"/>
				<path fill="#FBAC2A" d="M249.2,513.7c-3.6,3.6-10.3,2.8-10.3,2.8s-0.8-6.7,2.8-10.3c3.6-3.6,10.3-2.8,10.3-2.8
					S252.7,510.1,249.2,513.7z"/>
			</g>
			<g>
				<path fill="#FBAC2A" d="M234.7,457.1c-3.6,3.6-10.3,2.8-10.3,2.8s-0.8-6.7,2.8-10.3c3.6-3.6,10.3-2.8,10.3-2.8
					S238.4,453.5,234.7,457.1z"/>
				<path fill="#FBAC2A" d="M234,477.3c3.6,3.6,2.8,10.3,2.8,10.3s-6.7,0.8-10.3-2.8c-3.6-3.6-2.8-10.3-2.8-10.3
					S230.4,473.7,234,477.3z"/>
				<path fill="#FBAC2A" d="M229.1,472.3c-5.1,0-9.2-5.4-9.2-5.4s4.2-5.4,9.2-5.4c5.1,0,9.2,5.4,9.2,5.4S234.2,472.3,229.1,472.3z"
					/>
			</g>
			<g>
				<path fill="#FBAC2A" d="M331.5,498.9c0,5.1,5.4,9.2,5.4,9.2s5.4-4.2,5.4-9.2c0-5.1-5.4-9.2-5.4-9.2S331.5,493.8,331.5,498.9z"/>
				<path fill="#FBAC2A" d="M317.7,513.7c-5.1,0-9.2,5.4-9.2,5.4s4.1,5.4,9.2,5.4c5.1,0,9.2-5.4,9.2-5.4S322.8,513.7,317.7,513.7z"
					/>
				<path fill="#FBAC2A" d="M324.7,513.7c3.6,3.6,10.3,2.8,10.3,2.8s0.8-6.7-2.8-10.3c-3.6-3.6-10.3-2.8-10.3-2.8
					S321.1,510.1,324.7,513.7z"/>
			</g>
			<g>
				<path fill="#FBAC2A" d="M339.1,457.1c3.6,3.6,10.3,2.8,10.3,2.8s0.8-6.7-2.8-10.3c-3.6-3.6-10.3-2.8-10.3-2.8
					S335.5,453.5,339.1,457.1z"/>
				<path fill="#FBAC2A" d="M339.8,477.3c-3.6,3.6-2.8,10.3-2.8,10.3s6.7,0.8,10.3-2.8c3.6-3.6,2.8-10.3,2.8-10.3
					S343.5,473.7,339.8,477.3z"/>
				<path fill="#FBAC2A" d="M344.7,472.3c5.1,0,9.2-5.4,9.2-5.4s-4.2-5.4-9.2-5.4c-5.1,0-9.2,5.4-9.2,5.4S339.6,472.3,344.7,472.3z"
					/>
			</g>
			<g>
				<path fill="#FDF164" d="M274.9,521c3.6,3.6,2.8,10.3,2.8,10.3s-6.7,0.9-10.3-2.8c-3.6-3.6-2.8-10.3-2.8-10.3
					S271.3,517.4,274.9,521z"/>
				<path fill="#FDF164" d="M295.2,521.8c3.6-3.6,10.3-2.8,10.3-2.8s0.8,6.7-2.8,10.3c-3.6,3.6-10.3,2.8-10.3,2.8
					S291.5,525.4,295.2,521.8z"/>
				<path fill="#FDF164" d="M290.2,526.7c0,5.1-5.4,9.2-5.4,9.2s-5.3-4.2-5.3-9.2s5.3-9.2,5.3-9.2S290.2,521.6,290.2,526.7z"/>
			</g>
			<g>
				<path fill="#FDF164" d="M239.9,497c0,5.1-5.4,9.2-5.4,9.2s-5.4-4.2-5.4-9.2c0-5.1,5.4-9.2,5.4-9.2S239.9,491.9,239.9,497z"/>
				<path fill="#FDF164" d="M253.6,511.9c5.1,0,9.2,5.4,9.2,5.4s-4.2,5.3-9.2,5.3c-5.1,0-9.2-5.3-9.2-5.3S248.5,511.9,253.6,511.9z"
					/>
				<path fill="#FDF164" d="M246.6,511.8c-3.6,3.6-10.3,2.8-10.3,2.8s-0.8-6.7,2.8-10.3c3.6-3.6,10.3-2.8,10.3-2.8
					S250.3,508.2,246.6,511.8z"/>
			</g>
			<g>
				<path fill="#FDF164" d="M232.3,455.3c-3.6,3.6-10.3,2.8-10.3,2.8s-0.8-6.7,2.8-10.3c3.6-3.6,10.3-2.8,10.3-2.8
					S235.9,451.6,232.3,455.3z"/>
				<path fill="#FDF164" d="M231.5,475.5c3.6,3.6,2.8,10.3,2.8,10.3s-6.7,0.8-10.3-2.8c-3.6-3.6-2.8-10.3-2.8-10.3
					S227.9,471.9,231.5,475.5z"/>
				<path fill="#FDF164" d="M226.6,470.5c-5.1,0-9.2-5.4-9.2-5.4s4.2-5.3,9.2-5.3c5.1,0,9.2,5.3,9.2,5.3S231.7,470.5,226.6,470.5z"
					/>
			</g>
			<g>
				<path fill="#FDF164" d="M329,497c0,5.1,5.4,9.2,5.4,9.2s5.4-4.2,5.4-9.2c0-5.1-5.4-9.2-5.4-9.2S329,491.9,329,497z"/>
				<path fill="#FDF164" d="M315.2,511.9c-5.1,0-9.2,5.4-9.2,5.4s4.2,5.3,9.2,5.3c5.1,0,9.2-5.3,9.2-5.3S320.3,511.9,315.2,511.9z"
					/>
				<path fill="#FDF164" d="M322.2,511.8c3.6,3.6,10.3,2.8,10.3,2.8s0.8-6.7-2.8-10.3c-3.6-3.6-10.3-2.8-10.3-2.8
					S318.6,508.2,322.2,511.8z"/>
			</g>
			<g>
				<path fill="#FDF164" d="M336.6,455.3c3.6,3.6,10.3,2.8,10.3,2.8s0.8-6.7-2.8-10.3c-3.6-3.6-10.3-2.8-10.3-2.8
					S333,451.6,336.6,455.3z"/>
				<path fill="#FDF164" d="M337.4,475.5c-3.6,3.6-2.8,10.3-2.8,10.3s6.7,0.8,10.3-2.8c3.6-3.6,2.8-10.3,2.8-10.3
					S340.9,471.9,337.4,475.5z"/>
				<path fill="#FDF164" d="M342.3,470.5c5.1,0,9.2-5.4,9.2-5.4s-4.2-5.3-9.2-5.3c-5.1,0-9.2,5.3-9.2,5.3S337.2,470.5,342.3,470.5z"
					/>
			</g>
		</g>
	</g>
	
		<line fill="none" stroke="#FEEB64" stroke-width="19.1299" stroke-linecap="round" stroke-linejoin="round" stroke-miterlimit="10" x1="154.2" y1="405.6" x2="178.8" y2="418.3"/>
	
		<line fill="none" stroke="#FEEB64" stroke-width="19.1299" stroke-linecap="round" stroke-linejoin="round" stroke-miterlimit="10" x1="177.1" y1="505.2" x2="151.7" y2="517.2"/>
	
		<line fill="none" stroke="#FEEB64" stroke-width="19.1299" stroke-linecap="round" stroke-linejoin="round" stroke-miterlimit="10" x1="242.3" y1="570.4" x2="230.7" y2="593.6"/>
	
		<line fill="none" stroke="#FEEB64" stroke-width="19.1299" stroke-linecap="round" stroke-linejoin="round" stroke-miterlimit="10" x1="334.2" y1="567" x2="343.5" y2="589.9"/>
	
		<line fill="none" stroke="#FEEB64" stroke-width="19.1299" stroke-linecap="round" stroke-linejoin="round" stroke-miterlimit="10" x1="392.7" y1="506.9" x2="418.7" y2="515.9"/>
	
		<line fill="none" stroke="#FEEB64" stroke-width="19.1299" stroke-linecap="round" stroke-linejoin="round" stroke-miterlimit="10" x1="397.7" y1="418.3" x2="417.4" y2="404.4"/>
</g>
<g>
	<g>
		<path fill="#FFFFFF" d="M285.8,461.7L285.8,461.7L285.8,461.7L285.8,461.7z M324.3,449.2l-26.6-3.9l-11.9-24.1l-11.9,24.1
			l-26.6,3.9l19.2,18.8l-4.5,26.5l23.8-12.5l23.8,12.5l-4.5-26.5L324.3,449.2z"/>
	</g>
	<path fill="#4EC6DB" d="M285.8,457.8L285.8,457.8L285.8,457.8z"/>
	<path fill="#4EC6DB" d="M285.8,457.8L285.8,457.8L285.8,457.8z"/>
	<path fill="#4EC6DB" d="M285.8,457.8L285.8,457.8L285.8,457.8z"/>
	<circle fill="#4EC6DB" cx="285.8" cy="457.8" r="0"/>
	<path fill="#4EC6DB" d="M285.8,457.8L285.8,457.8L285.8,457.8z"/>
	<g>
		<polygon fill="#FCF067" points="285.8,461.7 285.8,461.7 324.3,449.2 297.7,445.4 		"/>
		<polygon fill="#FCF067" points="285.8,461.7 285.8,481.9 309.6,494.4 		"/>
		
			<linearGradient id="SVGID_1_" gradientUnits="userSpaceOnUse" x1="612" y1="388.5" x2="786.7" y2="388.5" gradientTransform="matrix(0.4667 0 0 -0.4667 0 648)">
			<stop  offset="0" style="stop-color:#000000"/>
			<stop  offset="1" style="stop-color:#FFFFFF"/>
		</linearGradient>
		<path opacity="8.000000e-02" fill="url(#SVGID_1_)" enable-background="new    " d="M285.8,385.4c-0.1,0-0.2,0-0.2,0V548
			c0.1,0,0.1,0,0.2,0c44.9,0,81.3-36.4,81.3-81.3S330.7,385.4,285.8,385.4z"/>
		<polygon fill="#FCF067" points="266.6,468 262,494.4 285.8,461.7 		"/>
		<polygon fill="#FCF067" points="285.8,461.7 285.8,421.3 273.9,445.4 		"/>
		<polygon fill="#FCF067" points="285.8,461.7 273.9,445.4 247.4,449.2 		"/>
	</g>
	<g>
		<polygon fill="#FBAC28" points="285.8,461.7 305.1,468 324.3,449.2 		"/>
		<polygon fill="#FBAC28" points="285.8,461.7 247.4,449.2 266.6,468 		"/>
		<polygon fill="#FBAC28" points="285.8,461.7 262,494.4 285.8,481.9 		"/>
		<polygon fill="#FBAC28" points="297.7,445.4 285.8,421.3 285.8,461.7 		"/>
		<polygon fill="#FBAC28" points="285.8,461.7 309.6,494.4 305.1,468 		"/>
	</g>
</g>
</svg>
