<?xml version="1.0" encoding="utf-8"?>
<!-- Generator: Adobe Illustrator 23.0.1, SVG Export Plug-In . SVG Version: 6.00 Build 0)  -->
<svg version="1.1" id="Capa_1" xmlns="http://www.w3.org/2000/svg" xmlns:xlink="http://www.w3.org/1999/xlink" x="0px" y="0px"
	 viewBox="0 0 382.4 464.1" style="enable-background:new 0 0 382.4 464.1;" xml:space="preserve">
<style type="text/css">
	.st0{fill:#F90074;}
</style>
<path class="st0" d="M22.3,464.1C9.8,463,0,452.4,0,439.6V81.1c0-13.5,11-24.5,24.5-24.5H66V24.5C66,11,77,0,90.5,0h267.4
	c13.5,0,24.5,11,24.5,24.5V383c0,13.5-11,24.5-24.5,24.5h-41.4v32.1c0,13.5-11,24.5-24.5,24.5H22.3z M24.5,64.2
	c-9.3,0-16.9,7.6-16.9,16.9v358.5c0,9.3,7.6,16.9,16.9,16.9H292c9.3,0,16.9-7.6,16.9-16.9v-32.1H90.5C77,407.5,66,396.5,66,383V64.2
	H24.5z M90.5,7.6c-9.3,0-16.9,7.6-16.9,16.9V383c0,9.3,7.6,16.9,16.9,16.9h267.4c9.3,0,16.9-7.6,16.9-16.9V24.5
	c0-9.3-7.6-16.9-16.9-16.9C357.9,7.6,90.5,7.6,90.5,7.6z"/>
<path class="st0" d="M122.9,93.4c-2.1,0-3.8-1.7-3.8-3.8s1.7-3.8,3.8-3.8h202.6c1,0,1.9,0.4,2.7,1.1c0.7,0.7,1.1,1.7,1.1,2.7
	c0,2.1-1.7,3.8-3.8,3.8C325.5,93.4,122.9,93.4,122.9,93.4z"/>
<path class="st0" d="M122.9,159.2c-2.1,0-3.8-1.7-3.8-3.8s1.7-3.8,3.8-3.8h202.6c1,0,1.9,0.4,2.7,1.1c0.7,0.7,1.1,1.7,1.1,2.7
	c0,2.1-1.7,3.8-3.8,3.8H122.9z"/>
<path class="st0" d="M122.9,224.9c-2.1,0-3.8-1.7-3.8-3.8s1.7-3.8,3.8-3.8h202.6c1,0,1.9,0.4,2.7,1.1c0.7,0.7,1.1,1.7,1.1,2.7
	c0,2.1-1.7,3.8-3.8,3.8H122.9z"/>
<path class="st0" d="M122.9,290.6c-2.1,0-3.8-1.7-3.8-3.8s1.7-3.8,3.8-3.8h202.6c1,0,1.9,0.4,2.7,1.1c0.7,0.7,1.1,1.7,1.1,2.7
	c0,2.1-1.7,3.8-3.8,3.8L122.9,290.6L122.9,290.6z"/>
</svg>
