<?xml version="1.0" encoding="utf-8"?>
<!-- Generator: Adobe Illustrator 21.1.0, SVG Export Plug-In . SVG Version: 6.00 Build 0)  -->
<svg version="1.1" id="Layer_1" xmlns="http://www.w3.org/2000/svg" xmlns:xlink="http://www.w3.org/1999/xlink" x="0px" y="0px"
	 viewBox="0 0 700 405" style="enable-background:new 0 0 700 405;" xml:space="preserve">
<style type="text/css">
	.st0{fill:#FAFAFA;}
	.st1{fill:#F1F1F1;}
	.st2{fill:#F5F5F5;}
</style>
<polygon class="st0" points="582.9007,67.6667 233.3333,269.6667 466.6667,269.6667 700,135.3333 "/>
<polygon class="st0" points="466.6667,405 700,269.6667 700,405 "/>
<polygon class="st1" points="0,135.3333 233.3333,0 233.3333,269.6667 "/>
<polygon class="st1" points="0,405 233.3333,405 233.3333,269.6667 "/>
<polygon class="st1" points="466.6667,0 582.9007,67.6667 700,0 "/>
<polygon class="st0" points="0,269.6667 233.3333,269.6667 0,405 "/>
<polygon class="st0" points="0,0 233.3333,0 0,135.3333 "/>
<polygon class="st2" points="0,269.6667 233.3333,269.6667 0,135.3333 "/>
<polygon class="st2" points="233.3333,269.6667 466.6667,269.6667 583.3333,337.3333 466.6667,405 233.3333,405 "/>
<polygon class="st2" points="233.3333,0 466.6667,0 582.9007,67.6667 233.3333,269.6667 "/>
<polygon class="st2" points="700,0 582.9007,67.6667 700,135.3333 "/>
<polygon class="st2" points="700,269.6667 583.3333,337.3333 700,405 "/>
<polygon class="st1" points="700,135.3333 700,269.6667 583.3333,337.3333 466.6667,269.6667 "/>
</svg>
