<?xml version="1.0" encoding="utf-8"?>
<!-- Generator: Adobe Illustrator 23.0.1, SVG Export Plug-In . SVG Version: 6.00 Build 0)  -->
<svg version="1.1" id="Layer_1" xmlns="http://www.w3.org/2000/svg" xmlns:xlink="http://www.w3.org/1999/xlink" x="0px" y="0px"
	 viewBox="0 0 990.9 161" style="enable-background:new 0 0 990.9 161;" xml:space="preserve">
<style type="text/css">
	.st0{fill:#009CDE;}
	.st1{fill:#003087;}
	.st2{fill:#012169;}
	.st3{enable-background:new    ;}
	.st4{fill:#00579F;}
	.st5{fill:#FAA61A;}
	.st6{fill:#F79410;}
	.st7{fill:#FF5F00;}
	.st8{fill:#EB001B;}
	.st9{fill:#F79E1B;}
	.st10{fill:#FFFFFF;}
	.st11{fill:#231F20;}
	.st12{fill:#F46F1B;}
	.st13{fill:url(#path290_1_);}
	.st14{fill:#016FD0;}
</style>
<g>
	<g>
		<g>
			<g>
				<g>
					<path class="st0" d="M337.1,71.3h-23.7c-1.6,0-3,1.2-3.3,2.8l-9.6,60.8c-0.2,1.2,0.7,2.3,2,2.3h12.2c1.1,0,2.1-0.8,2.3-1.9
						l2.7-17.2c0.3-1.6,1.6-2.8,3.3-2.8h7.5c15.6,0,24.6-7.6,27-22.5c1.1-6.6,0-11.7-3-15.3C351.1,73.4,345.1,71.3,337.1,71.3z
						 M339.9,93.5c-1.3,8.5-7.8,8.5-14.1,8.5h-3.6l2.5-15.9c0.2-1,1-1.7,2-1.7h1.6c4.3,0,8.3,0,10.4,2.4
						C340,88.4,340.4,90.5,339.9,93.5z"/>
					<path class="st1" d="M168,71.3h-23.7c-1.6,0-3,1.2-3.3,2.8l-9.6,60.8c-0.2,1.2,0.7,2.3,2,2.3h11.3c1.6,0,3-1.2,3.3-2.8
						l2.6-16.4c0.3-1.6,1.6-2.8,3.3-2.8h7.5c15.6,0,24.6-7.6,27-22.5c1.1-6.6,0-11.7-3-15.3C181.9,73.4,175.9,71.3,168,71.3z
						 M170.7,93.5c-1.3,8.5-7.8,8.5-14.1,8.5H153l2.5-15.9c0.2-1,1-1.7,2-1.7h1.6c4.3,0,8.3,0,10.4,2.4
						C170.8,88.4,171.2,90.5,170.7,93.5z"/>
					<path class="st1" d="M238.9,93.2h-11.4c-1,0-1.8,0.7-2,1.7l-0.5,3.2l-0.8-1.1c-2.5-3.6-7.9-4.8-13.4-4.8
						c-12.5,0-23.3,9.5-25.4,22.8c-1.1,6.7,0.5,13,4.2,17.4c3.5,4.1,8.4,5.8,14.3,5.8c10.1,0,15.7-6.5,15.7-6.5l-0.5,3.2
						c-0.2,1.2,0.7,2.3,2,2.3h10.2c1.6,0,3-1.2,3.3-2.8l6.1-38.9C241,94.3,240.1,93.2,238.9,93.2z M223,115.3
						c-1.1,6.5-6.2,10.8-12.8,10.8c-3.3,0-5.9-1.1-7.6-3.1c-1.7-2-2.3-4.8-1.8-8c1-6.4,6.3-10.9,12.7-10.9c3.2,0,5.8,1.1,7.6,3.1
						C222.9,109.4,223.5,112.2,223,115.3z"/>
					<path class="st0" d="M408,93.2h-11.4c-1,0-1.8,0.7-2,1.7l-0.5,3.2l-0.8-1.2c-2.5-3.6-7.9-4.8-13.4-4.8
						c-12.5,0-23.3,9.5-25.3,22.8c-1.1,6.7,0.5,13,4.2,17.4c3.5,4.1,8.4,5.8,14.3,5.8c10.1,0,15.7-6.5,15.7-6.5l-0.5,3.2
						c-0.2,1.2,0.7,2.3,2,2.3h10.2c1.6,0,3-1.2,3.3-2.8l6.1-38.9C410.2,94.3,409.2,93.2,408,93.2z M392.2,115.3
						c-1.1,6.5-6.2,10.8-12.8,10.8c-3.3,0-5.9-1.1-7.6-3.1s-2.3-4.8-1.8-8c1-6.4,6.3-10.9,12.7-10.9c3.2,0,5.8,1.1,7.6,3.1
						C392,109.4,392.7,112.2,392.2,115.3z"/>
					<path class="st1" d="M299.4,93.2H288c-1.1,0-2.1,0.5-2.7,1.4l-15.7,23.2l-6.7-22.3c-0.4-1.4-1.7-2.4-3.2-2.4h-11.2
						c-1.4,0-2.3,1.3-1.9,2.6l12.6,36.9l-11.9,16.8c-0.9,1.3,0,3.1,1.6,3.1h11.4c1.1,0,2.1-0.5,2.7-1.4l38-54.8
						C301.9,95,301,93.2,299.4,93.2z"/>
					<path class="st0" d="M421.4,73l-9.7,61.9c-0.2,1.2,0.7,2.3,2,2.3h9.8c1.6,0,3-1.2,3.3-2.8l9.6-60.8c0.2-1.2-0.7-2.3-2-2.3h-11
						C422.4,71.3,421.6,72,421.4,73z"/>
				</g>
			</g>
		</g>
		<g>
			<path class="st0" d="M84.9,74.5c1.3-8.1,0-13.7-4.4-18.7c-4.8-5.5-13.6-7.9-24.8-7.9H23.2c-2.3,0-4.2,1.7-4.6,3.9L5.1,137.7
				c-0.3,1.7,1,3.2,2.8,3.2H28l-1.4,8.8c-0.2,1.5,0.9,2.8,2.4,2.8h16.9c2,0,3.7-1.5,4-3.4l0.2-0.9l3.2-20.2l0.2-1.1
				c0.3-2,2-3.4,4-3.4H60c16.4,0,29.2-6.7,33-25.9c1.6-8,0.8-14.8-3.4-19.5C88.3,76.6,86.7,75.4,84.9,74.5L84.9,74.5"/>
			<path class="st2" d="M84.9,74.5c1.3-8.1,0-13.7-4.4-18.7c-4.8-5.5-13.6-7.9-24.8-7.9H23.2c-2.3,0-4.2,1.7-4.6,3.9L5.1,137.7
				c-0.3,1.7,1,3.2,2.8,3.2H28l5-32l-0.2,1c0.4-2.3,2.3-3.9,4.6-3.9h9.5c18.7,0,33.4-7.6,37.7-29.6C84.7,75.7,84.8,75.1,84.9,74.5"
				/>
			<path class="st1" d="M38.3,74.6c0.2-1.4,1.1-2.5,2.3-3c0.5-0.3,1.1-0.4,1.8-0.4h25.5c3,0,5.8,0.2,8.4,0.6
				c0.7,0.1,1.5,0.3,2.1,0.4c0.7,0.2,1.4,0.3,2,0.5c0.3,0.1,0.6,0.2,1,0.3c1.3,0.4,2.4,0.9,3.5,1.5c1.3-8.1,0-13.7-4.4-18.7
				c-4.8-5.5-13.6-7.9-24.8-7.9H23.2c-2.3,0-4.2,1.7-4.6,3.9L5.1,137.7c-0.3,1.7,1,3.2,2.8,3.2H28l5-32L38.3,74.6z"/>
		</g>
	</g>
	<g class="st3">
		<path class="st1" d="M2.7,27.7c1.6,0.9,3.9,1.7,6.4,1.7c3.1,0,4.8-1.5,4.8-3.6c0-2-1.3-3.2-4.7-4.4C4.8,19.8,2,17.4,2,13.6
			C2,9.3,5.7,6,11.4,6c2.9,0,5,0.6,6.4,1.3l-1.2,3.9c-0.9-0.5-2.8-1.3-5.3-1.3c-3.1,0-4.4,1.7-4.4,3.2c0,2,1.5,3,5.1,4.4
			c4.6,1.7,6.9,4.1,6.9,7.9c0,4.3-3.2,8-10.1,8c-2.8,0-5.7-0.8-7.2-1.7L2.7,27.7z"/>
		<path class="st1" d="M26.7,24.7c0.1,3.5,2.8,5,5.9,5c2.2,0,3.9-0.3,5.3-0.9l0.7,3.3c-1.7,0.7-3.9,1.2-6.7,1.2
			c-6.2,0-9.9-3.8-9.9-9.7c0-5.3,3.2-10.3,9.4-10.3c6.2,0,8.3,5.1,8.3,9.3c0,0.9-0.1,1.6-0.2,2H26.7z M35.1,21.3
			c0-1.8-0.7-4.7-4-4.7c-3,0-4.3,2.7-4.5,4.7H35.1z"/>
		<path class="st1" d="M57.7,32.4c-1,0.5-3,1-5.4,1c-6,0-9.9-3.8-9.9-9.8c0-5.8,3.9-10.2,10.7-10.2c1.8,0,3.6,0.4,4.7,0.9l-0.9,3.6
			c-0.8-0.4-1.9-0.7-3.7-0.7c-3.7,0-5.9,2.7-5.9,6.2c0,3.9,2.6,6.2,5.9,6.2c1.7,0,2.9-0.4,3.8-0.7L57.7,32.4z"/>
		<path class="st1" d="M78.4,27.2c0,2.3,0.1,4.2,0.2,5.8h-4.3L74.1,30H74c-0.8,1.4-2.7,3.3-6.1,3.3c-3.5,0-6.7-2.1-6.7-8.3V13.8H66
			v10.4c0,3.2,1,5.2,3.6,5.2c1.9,0,3.2-1.4,3.7-2.6c0.2-0.4,0.3-0.9,0.3-1.5V13.8h4.8V27.2z"/>
		<path class="st1" d="M83.7,20c0-2.6,0-4.5-0.2-6.2h4.2l0.2,3.7h0.2c0.9-2.7,3.2-4.1,5.2-4.1c0.5,0,0.7,0,1.1,0.1V18
			C94,18,93.6,17.9,93,17.9c-2.3,0-3.9,1.5-4.3,3.7c-0.1,0.4-0.2,0.9-0.2,1.5V33h-4.8V20z"/>
		<path class="st1" d="M100.8,24.7c0.1,3.5,2.8,5,5.9,5c2.2,0,3.9-0.3,5.3-0.9l0.7,3.3c-1.7,0.7-3.9,1.2-6.7,1.2
			c-6.2,0-9.9-3.8-9.9-9.7c0-5.3,3.2-10.3,9.4-10.3c6.2,0,8.3,5.1,8.3,9.3c0,0.9-0.1,1.6-0.2,2H100.8z M109.2,21.3
			c0-1.8-0.7-4.7-4-4.7c-3,0-4.3,2.7-4.5,4.7H109.2z"/>
		<path class="st1" d="M126,6.8c1.7-0.3,4.1-0.6,7.4-0.6c3.5,0,6.1,0.7,7.8,2.2c1.6,1.3,2.6,3.4,2.6,5.9c0,2.5-0.8,4.6-2.3,6
			c-1.9,1.9-5,2.8-8.4,2.8c-0.9,0-1.7,0-2.4-0.2v10H126V6.8z M130.8,19.1c0.6,0.2,1.4,0.2,2.4,0.2c3.6,0,5.8-1.8,5.8-4.9
			c0-3-2-4.5-5.4-4.5c-1.3,0-2.3,0.1-2.8,0.2V19.1z"/>
		<path class="st1" d="M157.8,33l-0.3-2.1h-0.1c-1.2,1.5-3.2,2.6-5.7,2.6c-3.9,0-6-2.8-6-5.7c0-4.8,4.3-7.3,11.4-7.2v-0.3
			c0-1.3-0.5-3.3-3.9-3.3c-1.9,0-3.9,0.6-5.2,1.4l-0.9-3.2c1.4-0.9,3.9-1.7,6.9-1.7c6.1,0,7.9,3.9,7.9,8.1v6.9
			c0,1.7,0.1,3.4,0.3,4.6H157.8z M157.2,23.6c-3.4-0.1-6.7,0.7-6.7,3.6c0,1.9,1.2,2.8,2.8,2.8c1.9,0,3.3-1.3,3.8-2.6
			c0.1-0.4,0.2-0.7,0.2-1.1V23.6z"/>
		<path class="st1" d="M169.7,13.8l3.5,10.3c0.4,1.2,0.8,2.6,1.1,3.7h0.1c0.3-1.1,0.7-2.5,1-3.8l3-10.2h5.2l-4.8,13.1
			c-2.6,7.2-4.4,10.4-6.7,12.3c-1.9,1.7-3.9,2.3-5.1,2.5l-1.1-4.1c0.8-0.2,1.9-0.6,2.8-1.3c0.9-0.6,2-1.7,2.6-3
			c0.2-0.4,0.3-0.6,0.3-0.9c0-0.2,0-0.5-0.3-0.9l-7-17.6H169.7z"/>
		<path class="st1" d="M186.3,19.5c0-2.2,0-4.1-0.2-5.7h4.2l0.2,2.8h0.1c0.9-1.5,2.7-3.3,5.9-3.3c2.5,0,4.5,1.4,5.3,3.5h0.1
			c0.7-1.1,1.5-1.9,2.4-2.4c1.1-0.7,2.3-1.1,3.9-1.1c3.2,0,6.4,2.2,6.4,8.3V33h-4.7V22.4c0-3.2-1.1-5.1-3.4-5.1
			c-1.7,0-2.9,1.2-3.4,2.6c-0.1,0.5-0.2,1.1-0.2,1.6V33h-4.7V21.9c0-2.7-1.1-4.6-3.3-4.6c-1.8,0-3,1.4-3.5,2.8
			c-0.2,0.5-0.3,1-0.3,1.6V33h-4.7V19.5z"/>
		<path class="st1" d="M223.1,24.7c0.1,3.5,2.8,5,5.9,5c2.2,0,3.9-0.3,5.3-0.9l0.7,3.3c-1.7,0.7-3.9,1.2-6.7,1.2
			c-6.2,0-9.9-3.8-9.9-9.7c0-5.3,3.2-10.3,9.4-10.3c6.2,0,8.3,5.1,8.3,9.3c0,0.9-0.1,1.6-0.2,2H223.1z M231.6,21.3
			c0-1.8-0.7-4.7-4-4.7c-3,0-4.3,2.7-4.5,4.7H231.6z"/>
		<path class="st1" d="M240,19.5c0-2.2,0-4.1-0.2-5.7h4.3l0.2,2.9h0.1c0.8-1.5,2.9-3.3,6.1-3.3c3.3,0,6.8,2.2,6.8,8.2V33h-4.8V22.1
			c0-2.8-1-4.8-3.7-4.8c-1.9,0-3.3,1.4-3.8,2.8c-0.2,0.4-0.2,1-0.2,1.6V33H240V19.5z"/>
		<path class="st1" d="M267.9,8.3v5.5h4.6v3.6h-4.6v8.5c0,2.3,0.6,3.5,2.5,3.5c0.8,0,1.5-0.1,1.9-0.2l0.1,3.7
			c-0.7,0.3-2,0.5-3.5,0.5c-1.8,0-3.3-0.6-4.2-1.6c-1-1.1-1.5-2.8-1.5-5.4v-9h-2.8v-3.6h2.8V9.5L267.9,8.3z"/>
		<path class="st1" d="M276,28.5c1.1,0.7,3.2,1.4,4.9,1.4c2.1,0,3.1-0.9,3.1-2.1c0-1.3-0.8-2-3.2-2.8c-3.7-1.3-5.3-3.3-5.3-5.6
			c0-3.4,2.8-6,7.2-6c2.1,0,4,0.6,5.1,1.1l-0.9,3.4c-0.8-0.5-2.4-1.1-4.1-1.1c-1.7,0-2.7,0.8-2.7,2c0,1.2,0.9,1.8,3.3,2.7
			c3.5,1.3,5.1,3,5.1,5.9c0,3.5-2.7,6-7.8,6c-2.3,0-4.4-0.6-5.8-1.3L276,28.5z"/>
		<path class="st1" d="M301,6.8c1.5-0.3,4.3-0.6,7-0.6c3.6,0,5.8,0.4,7.6,1.7c1.7,1,2.8,2.7,2.8,5c0,2.4-1.5,4.7-4.4,5.8v0.1
			c2.8,0.7,5.4,2.9,5.4,6.6c0,2.4-1,4.2-2.6,5.5c-1.9,1.7-5,2.5-9.8,2.5c-2.7,0-4.7-0.2-5.9-0.4V6.8z M305.8,17.2h2.5
			c3.3,0,5.2-1.6,5.2-3.8c0-2.5-1.9-3.6-5-3.6c-1.4,0-2.2,0.1-2.8,0.2V17.2z M305.8,29.5c0.6,0.1,1.5,0.1,2.6,0.1
			c3.1,0,5.9-1.2,5.9-4.5c0-3.1-2.7-4.3-6-4.3h-2.4V29.5z"/>
		<path class="st1" d="M326.5,13.8l3.5,10.3c0.4,1.2,0.8,2.6,1.1,3.7h0.1c0.3-1.1,0.7-2.5,1-3.8l3-10.2h5.2l-4.8,13.1
			c-2.6,7.2-4.4,10.4-6.7,12.3c-1.9,1.7-3.9,2.3-5.1,2.5l-1.1-4.1c0.8-0.2,1.9-0.6,2.8-1.3c0.9-0.6,2-1.7,2.6-3
			c0.2-0.4,0.3-0.6,0.3-0.9c0-0.2,0-0.5-0.3-0.9l-7-17.6H326.5z"/>
	</g>
	<g class="st3">
		<path class="st1" d="M467.4,151.2v-26.5h5.5l6.8,11.4c1.8,3,3.3,6,4.5,8.9h0.1c-0.3-3.5-0.4-7-0.4-11v-9.2h4.5v26.5h-5l-6.9-11.6
			c-1.7-2.9-3.5-6.2-4.8-9.2l-0.1,0c0.2,3.4,0.2,6.9,0.2,11.3v9.5H467.4z"/>
		<path class="st1" d="M517.6,137.6c0,8.9-5.4,14-12.7,14c-7.5,0-12.2-5.7-12.2-13.5c0-8.1,5.1-13.9,12.6-13.9
			C513,124.2,517.6,130.1,517.6,137.6z M497.8,138c0,5.4,2.7,9.7,7.4,9.7c4.7,0,7.3-4.3,7.3-9.9c0-5-2.5-9.7-7.3-9.7
			C500.3,128.1,497.8,132.5,497.8,138z"/>
		<path class="st1" d="M529.9,125c1.7-0.3,4.1-0.6,7.4-0.6c3.5,0,6.1,0.7,7.8,2.2c1.6,1.3,2.6,3.4,2.6,5.9c0,2.5-0.8,4.6-2.3,6
			c-1.9,1.9-5,2.8-8.4,2.8c-0.9,0-1.7,0-2.4-0.2v10h-4.8V125z M534.7,137.3c0.6,0.2,1.4,0.2,2.4,0.2c3.6,0,5.8-1.8,5.8-4.9
			c0-3-2-4.5-5.4-4.5c-1.3,0-2.3,0.1-2.8,0.2V137.3z"/>
		<path class="st1" d="M554.4,143.6l-2.3,7.5h-5l8.5-26.5h6.2l8.6,26.5h-5.2l-2.4-7.5H554.4z M562,140l-2.1-6.5
			c-0.5-1.6-0.9-3.4-1.3-5h-0.1c-0.4,1.5-0.8,3.4-1.3,5l-2,6.5H562z"/>
		<path class="st1" d="M576.7,151.2v-11.1l-8.4-15.5h5.5l3.2,6.8c0.9,2,1.6,3.5,2.3,5.3h0.1c0.7-1.7,1.4-3.3,2.3-5.3l3.2-6.8h5.5
			l-8.8,15.3v11.2H576.7z"/>
		<path class="st1" d="M592.8,125c1.7-0.3,4.1-0.6,7.4-0.6c3.5,0,6.1,0.7,7.8,2.2c1.6,1.3,2.6,3.4,2.6,5.9c0,2.5-0.8,4.6-2.3,6
			c-1.9,1.9-5,2.8-8.4,2.8c-0.9,0-1.7,0-2.4-0.2v10h-4.8V125z M597.6,137.3c0.6,0.2,1.4,0.2,2.4,0.2c3.6,0,5.8-1.8,5.8-4.9
			c0-3-2-4.5-5.4-4.5c-1.3,0-2.3,0.1-2.8,0.2V137.3z"/>
		<path class="st1" d="M617.3,143.6l-2.3,7.5h-5l8.5-26.5h6.2l8.6,26.5h-5.2l-2.4-7.5H617.3z M624.9,140l-2.1-6.5
			c-0.5-1.6-0.9-3.4-1.3-5h-0.1c-0.4,1.5-0.8,3.4-1.3,5l-2,6.5H624.9z"/>
		<path class="st1" d="M637,124.6h4.8v22.5h10.9v4.1H637V124.6z"/>
		<path class="st1" d="M669.9,143.6l-2.3,7.5h-5l8.5-26.5h6.2l8.6,26.5h-5.2l-2.4-7.5H669.9z M677.5,140l-2.1-6.5
			c-0.5-1.6-0.9-3.4-1.3-5H674c-0.4,1.5-0.8,3.4-1.3,5l-2,6.5H677.5z"/>
		<path class="st1" d="M707.8,150.4c-1.1,0.6-3.7,1.2-6.8,1.2c-8.4,0-13.5-5.3-13.5-13.3c0-8.7,6.1-14,14.2-14
			c3.2,0,5.5,0.7,6.5,1.2l-1.1,3.9c-1.3-0.6-3-1-5.2-1c-5.4,0-9.3,3.4-9.3,9.8c0,5.8,3.4,9.6,9.2,9.6c2,0,4-0.4,5.3-1L707.8,150.4z"
			/>
		<path class="st1" d="M729.9,150.4c-1.1,0.6-3.7,1.2-6.8,1.2c-8.4,0-13.5-5.3-13.5-13.3c0-8.7,6.1-14,14.2-14
			c3.2,0,5.5,0.7,6.5,1.2l-1.1,3.9c-1.3-0.6-3-1-5.2-1c-5.4,0-9.3,3.4-9.3,9.8c0,5.8,3.4,9.6,9.2,9.6c2,0,4-0.4,5.3-1L729.9,150.4z"
			/>
		<path class="st1" d="M756.6,137.6c0,8.9-5.4,14-12.7,14c-7.5,0-12.2-5.7-12.2-13.5c0-8.1,5.1-13.9,12.6-13.9
			C752,124.2,756.6,130.1,756.6,137.6z M736.8,138c0,5.4,2.7,9.7,7.4,9.7c4.7,0,7.3-4.3,7.3-9.9c0-5-2.5-9.7-7.3-9.7
			C739.3,128.1,736.8,132.5,736.8,138z"/>
		<path class="st1" d="M765.5,124.6v15.5c0,5.2,2.2,7.6,5.4,7.6c3.5,0,5.6-2.4,5.6-7.6v-15.5h4.8v15.2c0,8.2-4.2,11.8-10.6,11.8
			c-6.1,0-10.1-3.4-10.1-11.8v-15.2H765.5z"/>
		<path class="st1" d="M786.9,151.2v-26.5h5.5l6.8,11.4c1.8,3,3.3,6,4.5,8.9h0.1c-0.3-3.5-0.4-7-0.4-11v-9.2h4.5v26.5h-5l-6.9-11.6
			c-1.7-2.9-3.5-6.2-4.8-9.2l-0.1,0c0.2,3.4,0.2,6.9,0.2,11.3v9.5H786.9z"/>
		<path class="st1" d="M818.6,128.7h-7.6v-4.1h20v4.1h-7.6v22.5h-4.8V128.7z"/>
		<path class="st1" d="M842.4,151.2v-26.5h5.5l6.8,11.4c1.8,3,3.3,6,4.5,8.9h0.1c-0.3-3.5-0.4-7-0.4-11v-9.2h4.5v26.5h-5l-6.9-11.6
			c-1.7-2.9-3.5-6.2-4.8-9.2l-0.1,0c0.2,3.4,0.2,6.9,0.2,11.3v9.5H842.4z"/>
		<path class="st1" d="M883.8,139.4h-10v7.8H885v4h-16v-26.5h15.4v4h-10.6v6.8h10V139.4z"/>
		<path class="st1" d="M904.1,139.4h-10v7.8h11.2v4h-16v-26.5h15.4v4h-10.6v6.8h10V139.4z"/>
		<path class="st1" d="M909.5,125c2.1-0.4,4.8-0.6,7.7-0.6c5,0,8.4,1,10.8,3.1c2.6,2.1,4.1,5.2,4.1,9.8c0,4.7-1.6,8.3-4.1,10.5
			c-2.6,2.4-6.8,3.6-12,3.6c-2.8,0-5-0.2-6.5-0.4V125z M914.3,147.5c0.7,0.1,1.7,0.1,2.7,0.1c6.3,0,10-3.4,10-10.2
			c0-5.9-3.3-9.2-9.4-9.2c-1.5,0-2.6,0.1-3.3,0.3V147.5z"/>
		<path class="st1" d="M951.2,139.4h-10v7.8h11.2v4h-16v-26.5h15.4v4h-10.6v6.8h10V139.4z"/>
		<path class="st1" d="M956.6,125c2.1-0.4,4.8-0.6,7.7-0.6c5,0,8.4,1,10.8,3.1c2.6,2.1,4.1,5.2,4.1,9.8c0,4.7-1.6,8.3-4.1,10.5
			c-2.6,2.4-6.8,3.6-12,3.6c-2.8,0-5-0.2-6.5-0.4V125z M961.5,147.5c0.7,0.1,1.7,0.1,2.7,0.1c6.3,0,10-3.4,10-10.2
			c0-5.9-3.3-9.2-9.4-9.2c-1.5,0-2.6,0.1-3.3,0.3V147.5z"/>
		<path class="st1" d="M982.7,148.5c0-1.8,1.2-3.1,3-3.1c1.8,0,3,1.3,3,3.1c0,1.8-1.2,3.1-3,3.1
			C983.9,151.6,982.7,150.3,982.7,148.5z M983.8,143l-0.7-18.3h5.1l-0.7,18.3H983.8z"/>
	</g>
	<g id="g4158" transform="matrix(4.4299631,0,0,4.4299631,-81.165783,-105.04783)">
		<polygon id="polygon9" class="st4" points="132.5,43 130.3,43 131.7,34.3 133.9,34.3 		"/>
		<path id="path11" class="st4" d="M140.6,34.5c-0.4-0.2-1.1-0.4-2-0.4c-2.2,0-3.8,1.2-3.8,2.9c0,1.2,1.1,1.9,2,2.4
			c0.9,0.4,1.2,0.7,1.2,1.1c0,0.6-0.7,0.8-1.3,0.8c-0.9,0-1.4-0.1-2.1-0.5l-0.3-0.1l-0.3,1.9c0.5,0.2,1.5,0.5,2.5,0.5
			c2.4,0,3.9-1.2,3.9-3c0-1-0.6-1.7-1.9-2.4c-0.8-0.4-1.3-0.7-1.3-1.1c0-0.4,0.4-0.7,1.3-0.7c0.7,0,1.3,0.2,1.7,0.3l0.2,0.1
			L140.6,34.5L140.6,34.5z"/>
		<path id="path13" class="st4" d="M143.6,39.9c0.2-0.5,0.9-2.4,0.9-2.4s0.2-0.5,0.3-0.8l0.2,0.7c0,0,0.4,2.1,0.5,2.5
			C145.1,39.9,144.1,39.9,143.6,39.9L143.6,39.9z M146.4,34.3h-1.7c-0.5,0-0.9,0.2-1.2,0.7l-3.3,8h2.4c0,0,0.4-1.1,0.5-1.3
			c0.3,0,2.5,0,2.9,0c-0.1,0.3,0.1,1.3,0.1,1.3h2.1L146.4,34.3L146.4,34.3L146.4,34.3z"/>
		<path id="path15" class="st4" d="M128.4,34.3l-2.2,5.9L126,39c-0.4-1.4-1.7-2.9-3.1-3.6l2,7.6h2.4l3.5-8.7H128.4L128.4,34.3
			L128.4,34.3z"/>
		<path id="path17" class="st5" d="M124.2,34.3h-3.6v0.2c2.8,0.7,4.7,2.5,5.4,4.5l-0.8-4C125,34.5,124.6,34.4,124.2,34.3L124.2,34.3
			z"/>
	</g>
	<g transform="translate(1565.7 -1106.8)">
		<g transform="matrix(3.1437 0 0 3.1437 -4835.7 -1027.6)">
			<g transform="matrix(1.25 0 0 -1.25 1103.2 710.77)">
				<path class="st6" d="M131.2,3.4v0.3h-0.1L131,3.5l-0.1,0.3l0,0V3.4h0.1v0.2L131.2,3.4L131.2,3.4l0.1,0.2L131.2,3.4L131.2,3.4z
					 M130.7,3.4v0.3h0.1v0.1h-0.3V3.7h0.1L130.7,3.4L130.7,3.4z"/>
			</g>
			<path class="st7" d="M1255.3,708.2h-9.1v-16.3h9.1V708.2z"/>
			<g transform="matrix(1.25 0 0 -1.25 1064.5 698.59)">
				<path class="st8" d="M145.8-1.2c0,2.7,1.2,5,3.2,6.5c-1.4,1.1-3.2,1.8-5.1,1.8c-4.6,0-8.3-3.7-8.3-8.3s3.7-8.3,8.3-8.3
					c1.9,0,3.7,0.7,5.1,1.8C147.1-6.2,145.8-3.8,145.8-1.2"/>
			</g>
			<g transform="matrix(1.25 0 0 -1.25 1103.8 698.59)">
				<path class="st9" d="M131-1.2c0-4.6-3.7-8.3-8.3-8.3c-1.9,0-3.7,0.7-5.1,1.8c1.9,1.5,3.2,3.9,3.2,6.5s-1.2,5-3.2,6.5
					c1.4,1.1,3.2,1.8,5.1,1.8C127.3,7.2,131,3.4,131-1.2"/>
			</g>
		</g>
	</g>
	<g id="layer1" transform="translate(-281.01395,100.02687)">
		<path id="path262" class="st10" d="M1030.3-72.7h122.4v78h-122.4V-72.7L1030.3-72.7z"/>
		<path id="path264" class="st11" d="M1152.3-72.3V4.8c-0.9,0-120.6,0-121.5,0c0-0.9,0-76.2,0-77.1
			C1031.7-72.3,1151.4-72.3,1152.3-72.3 M1152.7-73.2h-122.8V5.6h123.3v-78.8H1152.7L1152.7-73.2z"/>
		<path id="path266" class="st12" d="M1152.3-29.4c0,0-33.4,23.6-94.7,34.2h94.7V-29.4L1152.3-29.4z"/>
		<g id="g268" transform="matrix(25.303132,0,0,-25.303132,-9101.949,14453.125)">
			<g id="g270">
				<g id="g276">
					<g id="g278">
						
							<radialGradient id="path290_1_" cx="393.8771" cy="577.3078" r="0.1541" gradientTransform="matrix(1475.041 0 0 -1475.041 -580581.875 852125.625)" gradientUnits="userSpaceOnUse">
							<stop  offset="0" style="stop-color:#FEEFE1"/>
							<stop  offset="5.618000e-03" style="stop-color:#FEEFE1"/>
							<stop  offset="0.2672" style="stop-color:#FEEFE1"/>
							<stop  offset="1" style="stop-color:#F46F1B"/>
						</radialGradient>
						<path id="path290" class="st13" d="M403,573.3c-0.2,0-0.4-0.2-0.4-0.3c0-0.2,0.2-0.4,0.4-0.4c0.2,0,0.4,0.2,0.4,0.4
							C403.4,573.1,403.2,573.3,403,573.3"/>
					</g>
				</g>
			</g>
		</g>
		<path id="path292" class="st11" d="M1046.7-40c-1.1,0.9-2.4,1.4-4.6,1.4h-0.9v-11.3h0.9c2.1,0,3.5,0.4,4.6,1.4
			c1.2,1,1.8,2.6,1.8,4.2C1048.5-42.7,1047.8-41,1046.7-40 M1042.8-52.8h-4.9v17.1h4.9c2.6,0,4.4-0.6,6.1-2c1.9-1.6,3.1-4,3.1-6.6
			C1051.9-49.3,1048.2-52.8,1042.8-52.8"/>
		<path id="path294" class="st11" d="M1053.5-35.8h3.3v-17.1h-3.3V-35.8z"/>
		<path id="path296" class="st11" d="M1064.9-46.3c-2-0.7-2.6-1.2-2.6-2.2c0-1.1,1.1-1.9,2.5-1.9c1,0,1.8,0.4,2.7,1.4l1.7-2.3
			c-1.4-1.3-3.1-1.9-5-1.9c-3,0-5.3,2.1-5.3,4.9c0,2.4,1.1,3.6,4.2,4.7c1.3,0.5,2,0.8,2.3,1c0.7,0.4,1,1,1,1.8
			c0,1.4-1.1,2.4-2.6,2.4c-1.6,0-2.9-0.8-3.6-2.3l-2.1,2.1c1.5,2.2,3.4,3.3,5.9,3.3c3.4,0,5.9-2.3,5.9-5.6
			C1069.9-43.7,1068.7-44.9,1064.9-46.3"/>
		<path id="path298" class="st11" d="M1070.9-44.3c0,5,3.9,8.9,9,8.9c1.4,0,2.7-0.3,4.2-1v-3.9c-1.3,1.3-2.5,1.9-4,1.9
			c-3.4,0-5.7-2.4-5.7-5.9c0-3.3,2.5-5.9,5.6-5.9c1.6,0,2.8,0.6,4.2,1.9v-3.9c-1.5-0.7-2.7-1.1-4.1-1.1
			C1074.9-53.2,1070.9-49.3,1070.9-44.3"/>
		<path id="path300" class="st11" d="M1111-41.4l-4.6-11.5h-3.6l7.2,17.5h1.8l7.4-17.5h-3.6L1111-41.4L1111-41.4z"/>
		<path id="path302" class="st11" d="M1120.8-35.8h9.4v-2.9h-6.1v-4.6h5.9v-2.9h-5.9V-50h6.1v-2.9h-9.4V-35.8L1120.8-35.8z"/>
		<path id="path304" class="st11" d="M1136.7-45h-1v-5.2h1c2.1,0,3.2,0.9,3.2,2.5C1140-45.9,1138.8-45,1136.7-45 M1143.4-47.8
			c0-3.2-2.2-5-6-5h-4.9v17.1h3.3v-6.8h0.4l4.6,6.8h4.1l-5.4-7.2C1142-43.5,1143.4-45.2,1143.4-47.8"/>
		<path id="path306" class="st11" d="M1145.1-51.4L1145.1-51.4l-0.1-0.4h0.1c0.2,0,0.3,0.1,0.3,0.2
			C1145.4-51.4,1145.3-51.4,1145.1-51.4 M1145.7-51.6c0-0.3-0.2-0.5-0.6-0.5h-0.5v1.5h0.4v-0.6l0.4,0.6h0.4l-0.5-0.6
			C1145.6-51.2,1145.7-51.4,1145.7-51.6"/>
		<path id="path308" class="st11" d="M1145.2-50.2c-0.6,0-1-0.5-1-1.1s0.5-1.1,1-1.1c0.6,0,1,0.5,1,1.1
			C1146.3-50.7,1145.8-50.2,1145.2-50.2 M1145.2-52.6c-0.7,0-1.3,0.6-1.3,1.3s0.6,1.3,1.3,1.3c0.7,0,1.3-0.6,1.3-1.3
			C1146.5-52,1145.9-52.6,1145.2-52.6"/>
		<path id="path310" class="st11" d="M1067.7-31.3l4.5,4.7V-31h0.6v6l-4.4-4.7v4.4h-0.6L1067.7-31.3L1067.7-31.3z"/>
		<path id="path312" class="st11" d="M1067.8-31.1c0.2,0.2,4.4,4.7,4.4,4.7v-4.5h0.5v5.8c-0.2-0.2-4.5-4.7-4.5-4.7v4.5h-0.5
			L1067.8-31.1L1067.8-31.1z M1067.7-31.3v6h0.8v-4.3c0.2,0.2,4.4,4.7,4.4,4.7v-6.2h-0.8v4.3c-0.2-0.2-4.5-4.7-4.5-4.7L1067.7-31.3
			L1067.7-31.3z"/>
		<path id="path314" class="st11" d="M1075.9-31h3v0.6h-2.3v1.7h2.3v0.6h-2.3v2.2h2.3v0.6h-3V-31L1075.9-31z"/>
		<path id="path316" class="st11" d="M1078.8-31v0.5h-2.3v1.8h2.3v0.5h-2.3v2.4h2.3v0.5h-2.8v-5.6h2.8V-31z M1078.8-31.1h-3v5.8h3.1
			V-26h-2.3v-2.1h2.3v-0.7h-2.3v-1.6h2.3L1078.8-31.1L1078.8-31.1L1078.8-31.1z"/>
		<path id="path318" class="st11" d="M1083.3-25.3h-0.6v-5.1h-1.4V-31h3.4v0.6h-1.4V-25.3L1083.3-25.3z"/>
		<path id="path320" class="st11" d="M1084.7-31v0.5h-1.4v5.1h-0.5v-5.1h-1.4V-31H1084.7L1084.7-31z M1084.7-31.1h-3.5v0.7h1.4v5.1
			h0.8v-5.1h1.4L1084.7-31.1L1084.7-31.1L1084.7-31.1z"/>
		<path id="path322" class="st11" d="M1089-26.8l1.8-4.6l1.8,4.6l1.5-4.3h0.7l-2.2,6l-1.8-4.6l-1.8,4.6l-2.2-6h0.7L1089-26.8z"/>
		<path id="path324" class="st11" d="M1089-26.7c0,0,1.7-4.2,1.8-4.4c0.1,0.3,1.9,4.6,1.9,4.6s1.5-4.3,1.5-4.4h0.6
			c-0.1,0.1-2,5.5-2.1,5.8c-0.1-0.3-1.8-4.6-1.8-4.6s-1.7,4.3-1.8,4.6c-0.1-0.3-2-5.6-2.1-5.8h0.6c0,0.1,1.5,4.4,1.5,4.4L1089-26.7
			L1089-26.7z M1090.8-31.4c0,0-1.7,4.2-1.8,4.4c-0.1-0.3-1.5-4.2-1.5-4.2h-0.8l2.3,6.2c0,0,1.7-4.3,1.8-4.6
			c0.1,0.3,1.9,4.6,1.9,4.6l2.3-6.2h-0.8c0,0-1.4,3.9-1.5,4.2c-0.1-0.3-1.8-4.6-1.8-4.6L1090.8-31.4L1090.8-31.4z"/>
		<path id="path326" class="st11" d="M1097.8-28.2c0,1.3,1.1,2.4,2.4,2.4s2.3-1.1,2.3-2.4s-1-2.4-2.3-2.4
			C1098.8-30.6,1097.8-29.5,1097.8-28.2 M1103.1-28.2c0,1.6-1.4,3-3,3s-3-1.3-3-3c0-1.6,1.3-3,3-3
			C1101.7-31.1,1103.1-29.8,1103.1-28.2"/>
		<path id="path328" class="st11" d="M1097.2-28.2c0-1.6,1.3-2.9,2.9-2.9s2.9,1.3,2.9,2.9s-1.3,2.9-2.9,2.9S1097.2-26.6,1097.2-28.2
			 M1097.1-28.2c0,1.7,1.4,3,3,3c1.7,0,3-1.4,3-3c0-1.7-1.4-3-3-3C1098.4-31.2,1097.1-29.8,1097.1-28.2"/>
		<path id="path330" class="st11" d="M1097.8-28.2c0-1.3,1-2.3,2.3-2.3s2.3,1,2.3,2.3c0,1.3-1,2.3-2.3,2.3
			C1098.9-25.9,1097.8-26.9,1097.8-28.2 M1097.7-28.2c0,1.3,1.1,2.4,2.4,2.4s2.4-1.1,2.4-2.4s-1.1-2.4-2.4-2.4
			C1098.8-30.6,1097.7-29.5,1097.7-28.2"/>
		<path id="path332" class="st11" d="M1106.5-28.4h0.2c0.7,0,1.4-0.1,1.4-1s-0.7-1-1.5-1h-0.2L1106.5-28.4L1106.5-28.4z
			 M1106.5-25.3h-0.6V-31h0.8c1.1,0,2.1,0.3,2.1,1.6c0,0.9-0.6,1.5-1.4,1.6l1.8,2.6h-0.8l-1.7-2.5h-0.2L1106.5-25.3L1106.5-25.3z"/>
		<path id="path334" class="st11" d="M1106.7-31c1.4,0,2,0.5,2,1.5c0,0.8-0.5,1.4-1.4,1.5h-0.1c0,0,1.7,2.4,1.8,2.5h-0.7l0,0
			l-1.7-2.5h-0.2l0,0v2.5h-0.5v-5.6L1106.7-31L1106.7-31z M1105.8-31.1L1105.8-31.1l-0.1,5.8h0.8v-2.5h0.1l1.7,2.5h0.8h0.1
			c0,0-1.7-2.4-1.8-2.6c0.8-0.1,1.4-0.7,1.4-1.6c0-1.1-0.7-1.6-2.1-1.6H1105.8L1105.8-31.1z"/>
		<path id="path336" class="st11" d="M1106.7-30.4c0.7,0,1.4,0.1,1.4,1c0,0.8-0.7,1-1.4,1h-0.1v-1.9h0.1V-30.4z M1106.5-30.5
			L1106.5-30.5v2.2h0.3c0.7,0,1.5-0.1,1.5-1.1c0-1-0.8-1.1-1.5-1.1H1106.5z"/>
		<path id="path338" class="st11" d="M1114.9-31h0.9l-2.7,2.7l2.8,3.1h-0.9l-2.3-2.6l-0.2,0.2v2.5h-0.6v-5.7h0.6v2.4L1114.9-31
			L1114.9-31z"/>
		<path id="path340" class="st11" d="M1115.6-31c-0.2,0.2-2.6,2.6-2.6,2.6s2.5,2.8,2.7,3h-0.8l0,0l-2.3-2.6l0,0l-0.2,0.2
			c0,0,0,2.3,0,2.4h-0.5V-31h0.5v2.5l2.5-2.5H1115.6L1115.6-31z M1115.8-31.1h-0.9c0,0-2.2,2.2-2.3,2.4v-2.4h-0.8v5.8h0.8v-2.5
			c0,0,0.1,0,0.1-0.1c0.1,0.1,2.3,2.6,2.3,2.6h0.9h0.1c0,0-2.8-3-2.8-3.1C1113.3-28.5,1115.9-31.1,1115.8-31.1L1115.8-31.1
			L1115.8-31.1z"/>
	</g>
	<g id="layer1_1_" transform="translate(-55.5,-1002.3452)">
		<path id="path3078" class="st14" d="M961.8,1026.5h84.3v45.5l-4.2,6.5l4.2,5.8v26.5h-84.3v-42.9l2.6-3l-2.6-2.9L961.8,1026.5
			L961.8,1026.5z"/>
		<path id="path3082" class="st10" d="M978.1,1085.2V1072h14l1.5,2l1.6-2h50.9v12.3c0,0-1.3,0.9-2.9,0.9H1015l-1.7-2.1v2.1h-5.6
			v-3.6c0,0-0.8,0.5-2.4,0.5h-1.9v3.1H995l-1.5-2l-1.5,2L978.1,1085.2L978.1,1085.2z"/>
		<path id="path3080" class="st10" d="M961.8,1062l3.2-7.4h5.5l1.8,4.1v-4.1h6.8l1.1,3l1-3h30.5v1.5c0,0,1.6-1.5,4.2-1.5h9.9
			l1.8,4.1v-4.1h5.7l1.6,2.3v-2.3h5.7v13.2h-5.7l-1.5-2.3v2.3h-8.4l-0.8-2.1h-2.2l-0.8,2.1h-5.7c-2.3,0-3.7-1.5-3.7-1.5v1.5h-8.5
			l-1.7-2.1v2.1h-31.8l-0.8-2.1h-2.2l-0.8,2.1h-3.9v-5.8H961.8z"/>
		<path id="path3046" class="st14" d="M966,1056.3l-4.3,9.9h2.8l0.8-2h4.6l0.8,2h2.8l-4.3-9.9H966L966,1056.3z M967.6,1058.6
			l1.4,3.5h-2.8L967.6,1058.6z"/>
		<path id="path3048" class="st14" d="M973.8,1066.2v-9.9h3.9l2.3,6.4l2.2-6.4h3.9v9.9h-2.5v-7.3l-2.6,7.3h-2.2l-2.6-7.3v7.3H973.8z
			"/>
		<path id="path3050" class="st14" d="M987.9,1066.2v-9.9h8.1v2.2h-5.6v1.7h5.5v2.1h-5.5v1.8h5.6v2.2L987.9,1066.2L987.9,1066.2z"/>
		<path id="path3052" class="st14" d="M997.4,1056.3v9.9h2.5v-3.5h1l3,3.5h3l-3.3-3.7c1.3-0.1,2.7-1.3,2.7-3c0-2.1-1.6-3.2-3.5-3.2
			L997.4,1056.3L997.4,1056.3z M999.9,1058.5h2.8c0.7,0,1.2,0.5,1.2,1c0,0.7-0.6,1-1.1,1h-2.9V1058.5L999.9,1058.5z"/>
		<path id="path3054" class="st14" d="M1010,1066.2h-2.5v-9.9h2.5V1066.2z"/>
		<path id="path3056" class="st14" d="M1016,1066.2h-0.5c-2.6,0-4.2-2.1-4.2-4.9c0-2.9,1.6-5,4.9-5h2.7v2.3h-2.8
			c-1.4,0-2.3,1.1-2.3,2.7c0,1.9,1.1,2.7,2.7,2.7h0.7L1016,1066.2z"/>
		<path id="path3058" class="st14" d="M1021.4,1056.3l-4.3,9.9h2.8l0.8-2h4.6l0.8,2h2.8l-4.3-9.9H1021.4L1021.4,1056.3z
			 M1022.9,1058.6l1.4,3.5h-2.8L1022.9,1058.6L1022.9,1058.6z"/>
		<path id="path3060" class="st14" d="M1029.1,1066.2v-9.9h3.2l4,6.2v-6.2h2.5v9.9h-3l-4.1-6.4v6.4H1029.1z"/>
		<path id="path3062" class="st14" d="M979.8,1083.5v-9.9h8.1v2.2h-5.6v1.7h5.5v2.1h-5.5v1.8h5.6v2.2L979.8,1083.5L979.8,1083.5z"/>
		<path id="path3064" class="st14" d="M1019.5,1083.5v-9.9h8.1v2.2h-5.6v1.7h5.4v2.1h-5.4v1.8h5.6v2.2L1019.5,1083.5L1019.5,1083.5z
			"/>
		<path id="path3066" class="st14" d="M988.2,1083.5l3.9-4.9l-4-5h3.1l2.4,3.1l2.4-3.1h3l-4,5l3.9,5h-3.1l-2.3-3.1l-2.3,3.1
			L988.2,1083.5L988.2,1083.5z"/>
		<path id="path3068" class="st14" d="M999.3,1073.6v9.9h2.5v-3.1h2.6c2.2,0,3.9-1.2,3.9-3.4c0-1.9-1.3-3.3-3.6-3.3L999.3,1073.6
			L999.3,1073.6z M1001.9,1075.9h2.7c0.7,0,1.2,0.4,1.2,1.1s-0.5,1.1-1.2,1.1h-2.7V1075.9L1001.9,1075.9z"/>
		<path id="path3072" class="st14" d="M1009.4,1073.6v9.9h2.5v-3.5h1l3,3.5h3l-3.3-3.7c1.3-0.1,2.7-1.3,2.7-3c0-2.1-1.6-3.2-3.5-3.2
			L1009.4,1073.6L1009.4,1073.6z M1011.9,1075.8h2.8c0.7,0,1.2,0.5,1.2,1c0,0.7-0.6,1-1.1,1h-2.9V1075.8z"/>
		<path id="path3074" class="st14" d="M1028.7,1083.5v-2.2h5c0.7,0,1.1-0.4,1.1-0.8s-0.3-0.8-1.1-0.8h-2.2c-1.9,0-3-1.2-3-3
			c0-1.6,1-3.1,3.9-3.1h4.8l-1,2.2h-4.2c-0.8,0-1,0.4-1,0.8s0.3,0.9,0.9,0.9h2.3c2.2,0,3.1,1.2,3.1,2.8c0,1.7-1.1,3.2-3.2,3.2
			H1028.7z"/>
		<path id="path3076" class="st14" d="M1037.8,1083.5v-2.2h5c0.7,0,1.1-0.4,1.1-0.8s-0.3-0.8-1.1-0.8h-2.2c-1.9,0-3-1.2-3-3
			c0-1.6,1-3.1,3.9-3.1h4.8l-1,2.2h-4.2c-0.8,0-1,0.4-1,0.8s0.3,0.9,0.9,0.9h2.3c2.2,0,3.1,1.2,3.1,2.8c0,1.7-1.1,3.2-3.2,3.2
			H1037.8z"/>
	</g>
</g>
</svg>
