<svg xmlns="http://www.w3.org/2000/svg" width="30" height="30" viewBox="0 0 30 30">
    <g fill="#E51D74" fill-rule="evenodd">
        <rect width="30" height="30" fill-opacity=".1" rx="3"/>
        <g fill-rule="nonzero">
            <path d="M12.13 12.549c-.402-.35-.936-.525-1.602-.525H8.594a.568.568 0 0 0-.392.132.405.405 0 0 0-.15.313v6.018c0 .144.072.257.216.335.143.08.314.119.514.119.198 0 .37-.04.513-.119.143-.078.215-.19.215-.335v-2.044h.924c.691 0 1.247-.179 1.667-.535.42-.356.631-.91.631-1.66V14.2c0-.75-.201-1.301-.603-1.651zm-.855 1.812c0 .63-.28.946-.84.946H9.51v-1.996h.924c.561 0 .84.315.84.946v.104zM17.327 12.563c-.418-.36-.975-.54-1.672-.54h-1.653a.744.744 0 0 0-.458.133c-.118.089-.178.193-.178.313v6.027c0 .12.06.224.178.312.118.089.27.133.458.133h1.653c.697 0 1.254-.18 1.672-.54.417-.36.625-.924.625-1.693v-2.451c0-.77-.208-1.334-.625-1.694zm-.831 4.144c0 .632-.28.946-.84.946h-.832v-4.342h.831c.56 0 .84.315.84.946v2.45z"/>
            <g>
                <path d="M22.865 12.213a.364.364 0 0 0-.331-.19h-3.29c-.178 0-.33.04-.456.119a.375.375 0 0 0-.19.336v6.009c0 .144.073.257.218.335.146.08.32.119.522.119s.376-.04.521-.119c.146-.078.219-.19.219-.335v-2.442h1.431a.374.374 0 0 0 .333-.17.684.684 0 0 0 .113-.388.692.692 0 0 0-.118-.407.377.377 0 0 0-.328-.17h-1.431v-1.6h2.456a.368.368 0 0 0 .327-.189.858.858 0 0 0 .118-.463.842.842 0 0 0-.114-.445z"/>
            </g>
        </g>
    </g>
</svg>
