<?xml version="1.0" encoding="UTF-8"?>
<svg width="98px" height="78px" viewBox="0 0 98 78" version="1.1" xmlns="http://www.w3.org/2000/svg" xmlns:xlink="http://www.w3.org/1999/xlink">
    <!-- Generator: sketchtool 54.1 (76490) - https://sketchapp.com -->
    <title>FD66AACB-DF89-4D19-9CBB-990E2AF5A955</title>
    <desc>Created with sketchtool.</desc>
    <g id="Page-1" stroke="none" stroke-width="1" fill="none" fill-rule="evenodd">
        <g id="Final" transform="translate(-388.000000, -1342.000000)">
            <g id="Group-12" transform="translate(388.000000, 1342.000000)">
                <g id="Group-18">
                    <path d="M30.61619,4.97922598 C2.54636837,-12.5121984 -3.04961892,20.3358505 1.33278315,37.8857489 C6.7948104,59.7591466 -7.17172317,69.8014503 5.98551826,76.6565758 C19.6403593,83.7709583 35.6593414,58.6090366 68.1466366,62.6407256 C110.3239,67.8749444 105.231335,18.8601597 60.9736688,18.3178239 C49.8332428,18.1813085 42.6014601,12.4477253 30.61619,4.97922598 Z" id="Combined-Shape-Copy-4" fill-opacity="0.1" fill="#E31D74"></path>
                    <g id="noun_options_1886191" transform="translate(23.000000, 6.000000)" fill-rule="nonzero">
                        <path d="M39.4924512,22.9999976 C44.1443697,23.0029834 48.3398907,20.2030333 50.1221721,15.906078 C51.9044536,11.6091226 50.9223995,6.66162991 47.6340518,3.37117051 C44.3457042,0.0807111133 39.3988426,-0.904519261 35.1007435,0.875002806 C30.8026445,2.65452487 28.000001,6.84824694 28,11.5001661 C28.0081228,17.8450996 33.1475237,22.987801 39.4924512,22.9999976 L39.4924512,22.9999976 Z M39.4858154,1.17408767 C43.6706531,1.15347384 47.4547427,3.65894675 49.0697221,7.51966118 C50.6847016,11.3803756 49.8116676,15.8339724 46.8586022,18.7992188 C43.9055367,21.7644651 39.4555693,22.6558262 35.5882367,21.0567556 C31.7209041,19.457685 29.1998722,15.6839444 29.2032573,11.4990597 C29.212486,5.81709581 33.8039345,1.2067084 39.4858154,1.17408767 L39.4858154,1.17408767 Z" id="Shape" fill="#E31D74"></path>
                        <path d="M12.4924512,22.9999976 C17.1443697,23.0029834 21.3398907,20.2030333 23.1221721,15.906078 C24.9044536,11.6091226 23.9223995,6.66162991 20.6340518,3.37117051 C17.3457042,0.0807111133 12.3988426,-0.904519261 8.10074355,0.875002806 C3.80264447,2.65452487 1.00000096,6.84824694 1,11.5001661 C1.00812281,17.8450996 6.14752372,22.987801 12.4924512,22.9999976 L12.4924512,22.9999976 Z M12.4858154,1.17408767 C16.6706531,1.15347384 20.4547427,3.65894675 22.0697221,7.51966118 C23.6847016,11.3803756 22.8116676,15.8339724 19.8586022,18.7992188 C16.9055367,21.7644651 12.4555693,22.6558262 8.58823668,21.0567556 C4.72090406,19.457685 2.19987222,15.6839444 2.20325732,11.4990597 C2.21248603,5.81709581 6.80393445,1.2067084 12.4858154,1.17408767 L12.4858154,1.17408767 Z" id="Shape-Copy-2" fill="#E31D74"></path>
                        <path d="M11.5075488,28.0000024 C6.85563028,27.9970166 2.66010933,30.7969667 0.877827885,35.093922 C-0.904453556,39.3908774 0.0776005306,44.3383701 3.36594819,47.6288295 C6.65429585,50.9192889 11.6011574,51.9045193 15.8992565,50.1249972 C20.1973555,48.3454751 22.999999,44.1517531 23,39.4998339 C22.9918772,33.1549004 17.8524763,28.012199 11.5075488,28.0000024 L11.5075488,28.0000024 Z M11.5086708,49.8259307 C7.32763445,49.829362 3.55654084,47.3129541 1.95494204,43.450836 C0.353343238,39.588718 1.23689087,35.1420566 4.19333102,32.1856166 C7.14977117,29.2291767 11.5964329,28.3456291 15.4585512,29.9472278 C19.3206696,31.5488265 21.8370777,35.3199198 21.8336464,39.5009559 C21.8243046,45.1994081 17.2071234,49.816589 11.5086708,49.8259307 L11.5086708,49.8259307 Z" id="Shape" fill="#E31D74"></path>
                        <path d="M39.5,28 C33.1487254,28 28,33.1487254 28,39.5 C28,45.8512746 33.1487254,51 39.5,51 C45.8512746,51 51,45.8512746 51,39.5 C50.9918669,33.1520973 45.8479027,28.0081331 39.5,28 L39.5,28 Z M39.5000192,49.826249 C35.3196925,49.8262476 31.5511478,47.3076252 29.9521997,43.4451778 C28.3532517,39.5827305 29.2389076,35.1373954 32.1960586,32.1826719 C35.1532097,29.2279485 39.5992703,28.345944 43.4604027,29.9480641 C47.3215351,31.5501842 49.8370611,35.3207967 49.833629,39.5011224 C49.8289461,45.2049045 45.2038027,49.8262509 39.5000192,49.826249 L39.5000192,49.826249 Z" id="Shape" fill="#E31D74"></path>
                        <path d="M23.1177521,7.06033325 C22.5878594,5.44189545 20.6291889,2.99340266 19.3285216,2.24715653 C19.3285216,2.24715653 18.406804,2.99340266 18.406804,2.99340266 C19.6708806,4.08680788 20.9254433,4.84533046 22.185318,7.83642578 C22.185318,7.83642578 23.1177521,7.06033325 23.1177521,7.06033325 Z" id="Shape-Copy-2" fill="#FFFFFF"></path>
                        <polygon id="Path" fill="#E31D74" points="12.7228435 12.3124102 9.73242812 9.11547676 8 10.9631049 12.7228435 16 26 1.83996167 24.2675719 0"></polygon>
                    </g>
                </g>
            </g>
        </g>
    </g>
</svg>