<svg xmlns="http://www.w3.org/2000/svg" width="98" height="78" viewBox="0 0 98 78">
    <g fill="none" fill-rule="evenodd">
        <path fill="#40AC48" fill-opacity=".1" d="M30.616 4.98C2.546-12.513-3.05 20.335 1.333 37.885 6.795 59.759-7.172 69.8 5.986 76.656c13.654 7.115 29.673-18.047 62.16-14.015 42.178 5.234 37.085-43.78-7.172-44.323-11.14-.137-18.373-5.87-30.358-13.339z"/>
        <path fill="#40AC48" d="M35.955 1.935h-6.59c-.332 0-.602.271-.602.606v7.154h-5.987c-.332 0-.602.272-.602.607v46.083c0 .335.27.607.602.607h35.141c.334 0 .603-.272.603-.607v-7.151h5.988c.333 0 .601-.274.601-.61v-7.151V2.54c0-.336-.27-.607-.601-.607l-28.553.001zm21.361 53.842H23.38V10.912H48.53v8.26c0 .335.27.61.602.61h8.183v35.995zm-7.58-37.213V11.77l6.729 6.794h-6.73zm14.17 29.453H58.52V19.173c-.017-.093-.025-.145-.043-.199-.049-.126-.089-.183-.139-.237L49.56 9.874c-.024-.023-.056-.047-.086-.068h-.056l-.086-.068c-.072-.018-.114-.025-.155-.026l-.153-.028-19.056.015V3.15h33.94v44.868z"/>
        <path stroke="#40AC48" stroke-width=".25" d="M57.316 55.777H23.38V10.912H48.53v8.26c0 .335.27.61.602.61h8.183v35.995z"/>
        <path stroke="#40AC48" stroke-width=".25" d="M49.735 18.564L49.735 11.77 56.465 18.564z"/>
        <path stroke="#40AC48" stroke-width=".25" d="M63.906 48.017H58.52V19.173c-.017-.093-.025-.145-.043-.199-.049-.126-.089-.183-.139-.237L49.56 9.874c-.024-.023-.056-.047-.086-.068h-.056l-.086-.068c-.072-.018-.114-.025-.155-.026l-.153-.028-19.056.015V3.15h33.94v44.868z"/>
        <g>
            <path fill="#40AC48" d="M1.519 18.747h21.468v-1.216H2.123V.9H.916v17.24c0 .334.27.606.603.606" transform="translate(28.944 23.833)"/>
            <path stroke="#40AC48" stroke-width=".25" d="M1.519 18.747h21.468v-1.216H2.123V.9H.916v17.24c0 .334.27.606.603.606" transform="translate(28.944 23.833)"/>
        </g>
        <path fill="#40AC48" d="M43.393 33.604H38.15c-.157 0-.311.064-.425.178l-4.042 4.08.852.863 3.866-3.906h5.24c.163 0 .312-.063.427-.177l6.239-6.298-.853-.86-6.06 6.12z"/>
        <path stroke="#40AC48" stroke-width=".25" d="M43.393 33.604H38.15c-.157 0-.311.064-.425.178l-4.042 4.08.852.863 3.866-3.906h5.24c.163 0 .312-.063.427-.177l6.239-6.298-.853-.86-6.06 6.12z"/>
        <path fill="#40AC48" d="M29.861 17.561L31.067 17.561 31.067 16.344 29.861 16.344z"/>
        <path stroke="#40AC48" stroke-width=".25" d="M29.861 17.561L31.067 17.561 31.067 16.344 29.861 16.344z"/>
        <path fill="#40AC48" d="M34.254 17.561L42.049 17.561 42.049 16.344 34.254 16.344z"/>
        <path stroke="#40AC48" stroke-width=".25" d="M34.254 17.561L42.049 17.561 42.049 16.344 34.254 16.344z"/>
        <path fill="#40AC48" d="M29.861 21.997L42.049 21.997 42.049 20.78 29.861 20.78z"/>
        <path stroke="#40AC48" stroke-width=".25" d="M29.861 21.997L42.049 21.997 42.049 20.78 29.861 20.78z"/>
        <path fill="#FAAB2B" d="M32.058 49.232L35.46 49.232 35.46 48.016 32.058 48.016z"/>
        <path stroke="#FAAC2B" stroke-width=".25" d="M32.058 49.232L35.46 49.232 35.46 48.016 32.058 48.016z"/>
        <path fill="#40AC48" d="M38.647 49.232L48.639 49.232 48.639 48.016 38.647 48.016z"/>
        <path stroke="#40AC48" stroke-width=".25" d="M38.647 49.232L48.639 49.232 48.639 48.016 38.647 48.016z"/>
        <g transform="translate(18 45)">
            <rect width="22.025" height="16.279" x=".684" y=".684" fill="#EBF6EC" stroke="#40AC48" stroke-width="1.368" rx="1.231"/>
            <path fill="#40AC48" fill-rule="nonzero" d="M9.85 5.472c-.247 0-.274.279-.274.399v6.041c0 .12.027.4.274.4.067 0 .141-.02.22-.06l6.138-3.155c.144-.074.208-.156.208-.205 0-.05-.064-.132-.208-.205L10.07 5.533c-.079-.04-.153-.061-.22-.061z"/>
        </g>
    </g>
</svg>
