<svg xmlns="http://www.w3.org/2000/svg" width="69" height="74" viewBox="0 0 69 74">
    <g fill="none" fill-rule="evenodd">
        <path fill="#F5AA00" d="M61.861 1.33H7.144a4.077 4.077 0 0 0-4.077 4.077v30.12a4.077 4.077 0 0 0 4.077 4.078h54.717a4.077 4.077 0 0 0 4.078-4.077V5.408A4.077 4.077 0 0 0 61.86 1.33" opacity=".1"/>
        <path fill="#F5AA00" d="M33.252 25a.768.768 0 0 1-.535-.21l-4.497-4.282a.697.697 0 0 1 0-1.016.773.773 0 0 1 .536-.21.77.77 0 0 1 .533.21l3.702 3.524a.377.377 0 0 0 .522 0l8.199-7.805a.771.771 0 0 1 .533-.211c.202 0 .392.076.535.211a.696.696 0 0 1 0 1.016l-8.994 8.563a.768.768 0 0 1-.534.21"/>
        <path fill="#F5AA00" d="M7.144 2.4a3.011 3.011 0 0 0-3.008 3.007v30.12a3.011 3.011 0 0 0 3.008 3.008h54.718a3.011 3.011 0 0 0 3.007-3.008V5.407A3.011 3.011 0 0 0 61.862 2.4H7.144zm54.718 38.274H7.144a5.153 5.153 0 0 1-5.147-5.147V5.407A5.153 5.153 0 0 1 7.144.26h54.718a5.153 5.153 0 0 1 5.146 5.147v30.12a5.153 5.153 0 0 1-5.146 5.148z"/>
        <path fill="#FFFFFE" d="M7.144 4.453a.956.956 0 0 0-.955.954v30.121c0 .526.429.954.955.954h54.717a.956.956 0 0 0 .955-.954V5.408a.956.956 0 0 0-.955-.955H7.144zM61.861 38.62H7.144a3.097 3.097 0 0 1-3.094-3.093V5.408a3.098 3.098 0 0 1 3.094-3.095h54.717a3.097 3.097 0 0 1 3.094 3.094v30.121a3.097 3.097 0 0 1-3.094 3.093z"/>
        <path fill="#F5AA00" d="M51.587 7.99a1.14 1.14 0 1 0-2.281 0 1.14 1.14 0 0 0 2.281 0M55.651 7.99a1.14 1.14 0 1 0-2.281 0 1.14 1.14 0 0 0 2.281 0"/>
        <path fill="#FFFFFE" d="M43.357 41.498c0-5.712-3.964-10.342-8.854-10.342-4.89 0-8.854 4.63-8.854 10.342 0 5.712 3.964 10.343 8.854 10.343 4.89 0 8.854-4.631 8.854-10.343"/>
        <path fill="#F5AA00" d="M59.258 50.931h-5.63a7.738 7.738 0 0 0-7.737 7.738v5.2a3.096 3.096 0 0 0 3.096 3.097H63.9a3.096 3.096 0 0 0 3.096-3.096v-5.2a7.738 7.738 0 0 0-7.738-7.739M15.377 50.931h-5.63A7.738 7.738 0 0 0 2.01 58.67v5.2a3.096 3.096 0 0 0 3.096 3.097H20.02a3.096 3.096 0 0 0 3.096-3.096v-5.2a7.738 7.738 0 0 0-7.738-7.739" opacity=".1"/>
        <path fill="#FFFFFE" d="M63.228 43.006c0-4.377-3.037-7.925-6.785-7.925-3.747 0-6.785 3.548-6.785 7.925s3.038 7.925 6.785 7.925c3.748 0 6.785-3.548 6.785-7.925M49.014 63.843H63.9l-.027-5.174a4.62 4.62 0 0 0-4.615-4.614h-5.63a4.62 4.62 0 0 0-4.614 4.614v5.174zM63.9 65.982H48.987a2.115 2.115 0 0 1-2.113-2.112v-5.2a6.762 6.762 0 0 1 6.754-6.755h5.63a6.762 6.762 0 0 1 6.754 6.754v5.2a2.114 2.114 0 0 1-2.112 2.113z"/>
        <path fill="#F5AA00" d="M53.628 52.001a6.676 6.676 0 0 0-6.668 6.668v5.2c0 1.118.91 2.027 2.027 2.027H63.9c1.117 0 2.026-.909 2.026-2.026v-5.2A6.676 6.676 0 0 0 59.258 52h-5.63zM63.9 68.035H48.987a4.17 4.17 0 0 1-4.166-4.165v-5.2c0-4.857 3.95-8.808 8.807-8.808h5.63c4.856 0 8.807 3.951 8.807 8.807v5.2a4.17 4.17 0 0 1-4.165 4.166z"/>
        <path fill="#FFFFFE" d="M5.133 63.843h14.886l-.027-5.174a4.62 4.62 0 0 0-4.615-4.614h-5.63a4.62 4.62 0 0 0-4.614 4.614v5.174zm14.886 2.139H5.106a2.115 2.115 0 0 1-2.112-2.112v-5.2a6.761 6.761 0 0 1 6.753-6.755h5.63a6.762 6.762 0 0 1 6.754 6.754v5.2a2.115 2.115 0 0 1-2.112 2.113z"/>
        <path fill="#F5AA00" d="M9.747 52.001a6.675 6.675 0 0 0-6.667 6.668v5.2c0 1.118.909 2.027 2.026 2.027H20.02c1.117 0 2.026-.909 2.026-2.026v-5.2A6.675 6.675 0 0 0 15.377 52h-5.63zM20.02 68.035H5.106A4.17 4.17 0 0 1 .941 63.87v-5.2c0-4.857 3.95-8.808 8.806-8.808h5.63c4.856 0 8.807 3.951 8.807 8.807v5.2a4.17 4.17 0 0 1-4.165 4.166z"/>
        <path fill="#FFFFFE" d="M19.347 43.006c0-4.377-3.037-7.925-6.785-7.925-3.747 0-6.784 3.548-6.784 7.925s3.037 7.925 6.784 7.925c3.748 0 6.785-3.548 6.785-7.925"/>
        <path fill="#F5AA00" d="M59.715 7.99a1.14 1.14 0 1 0-2.281 0 1.14 1.14 0 0 0 2.281 0"/>
        <path fill="#F5AA00" d="M31.364 51.84c-5.872 0-10.632 4.521-10.632 10.098v6.786c0 2.232 1.905 4.04 4.255 4.04h20.49c2.35 0 4.255-1.808 4.255-4.04v-6.786c0-5.577-4.76-10.098-10.632-10.098h-7.736z" opacity=".1"/>
        <path fill="#F5AA00" d="M34.503 32.225c-4.293 0-7.785 4.16-7.785 9.273 0 5.114 3.492 9.273 7.785 9.273 4.292 0 7.785-4.16 7.785-9.273 0-5.113-3.493-9.273-7.785-9.273zm0 20.685c-5.472 0-9.924-5.12-9.924-11.412 0-6.292 4.452-11.412 9.924-11.412 5.472 0 9.924 5.12 9.924 11.412 0 6.293-4.452 11.412-9.924 11.412z"/>
        <path fill="#FFFFFE" d="M30.83 54.964a6.982 6.982 0 0 0-6.975 6.974v6.786c0 .506.412.918.917.918h19.46a.919.919 0 0 0 .918-.918v-6.786a6.982 6.982 0 0 0-6.974-6.974H30.83zM24.772 71.78a3.06 3.06 0 0 1-3.056-3.057v-6.786c0-5.025 4.089-9.114 9.114-9.114h7.346c5.025 0 9.113 4.089 9.113 9.114v6.786a3.06 3.06 0 0 1-3.056 3.057h-19.46z"/>
        <path fill="#F5AA00" d="M30.83 52.91c-4.978 0-9.028 4.05-9.028 9.028v6.786a2.974 2.974 0 0 0 2.97 2.971h19.46a2.975 2.975 0 0 0 2.972-2.97v-6.787c0-4.978-4.05-9.028-9.028-9.028H30.83zm13.403 20.924h-19.46a5.116 5.116 0 0 1-5.11-5.11v-6.786c0-6.157 5.01-11.167 11.167-11.167h7.346c6.157 0 11.167 5.01 11.167 11.167v6.786a5.116 5.116 0 0 1-5.11 5.11z"/>
        <path fill="#3B92C3" d="M56.443 36.15c-3.151 0-5.716 3.075-5.716 6.856 0 3.78 2.565 6.856 5.716 6.856 3.151 0 5.716-3.076 5.716-6.856s-2.565-6.855-5.716-6.855zm0 15.851c-4.331 0-7.855-4.035-7.855-8.995 0-4.96 3.524-8.995 7.855-8.995s7.855 4.035 7.855 8.995c0 4.96-3.524 8.995-7.855 8.995z"/>
        <path fill="#FFFFFE" d="M19.347 43.006c0-4.377-3.037-7.925-6.785-7.925-3.747 0-6.784 3.548-6.784 7.925s3.037 7.925 6.784 7.925c3.748 0 6.785-3.548 6.785-7.925"/>
        <path fill="#F5AA00" d="M56.443 36.15c-3.151 0-5.716 3.075-5.716 6.856 0 3.78 2.565 6.856 5.716 6.856 3.151 0 5.716-3.076 5.716-6.856s-2.565-6.855-5.716-6.855zm0 15.851c-4.331 0-7.855-4.035-7.855-8.995 0-4.96 3.524-8.995 7.855-8.995s7.855 4.035 7.855 8.995c0 4.96-3.524 8.995-7.855 8.995zM12.562 36.15c-3.151 0-5.715 3.075-5.715 6.856 0 3.78 2.564 6.856 5.715 6.856 3.152 0 5.716-3.076 5.716-6.856s-2.564-6.855-5.716-6.855zm0 15.851c-4.33 0-7.855-4.035-7.855-8.995 0-4.96 3.524-8.995 7.855-8.995s7.855 4.035 7.855 8.995c0 4.96-3.524 8.995-7.855 8.995zM57.83 23.3h2.095v-2.093H57.83zM57.83 18.88h2.095v-2.094H57.83zM53.22 31.61h2.093v-2.093H53.22v2.094zm-4.674 0h2.095v-2.093h-2.095v2.094zm9.285 0h2.094v-2.093H57.83v2.094zm0-4.288h2.094v-2.094H57.83v2.094zM9.08 23.3h2.095v-2.093H9.08zM9.08 18.88h2.095v-2.094H9.08zM13.692 31.61h2.094v-2.093h-2.094v2.094zm4.673 0h2.094v-2.093h-2.094v2.094zm-9.284 0h2.094v-2.093H9.08v2.094zm0-4.288h2.094v-2.094H9.08v2.094z"/>
    </g>
</svg>
