<svg xmlns="http://www.w3.org/2000/svg" width="98" height="86" viewBox="0 0 98 86">
    <g fill="#FAAC2B" fill-rule="evenodd">
        <path d="M30.616 12.709C2.546-4.782-3.05 28.066 1.333 45.616c5.462 21.873-8.505 31.916 4.652 38.77C19.64 91.501 35.66 66.339 68.146 70.371c42.178 5.234 37.085-43.781-7.173-44.324-11.14-.135-18.372-5.87-30.357-13.338" opacity=".102"/>
        <path d="M65.298 60.688H28.235a2.99 2.99 0 0 1-2.985-2.986V3.966A2.989 2.989 0 0 1 28.235.98h37.062a2.988 2.988 0 0 1 2.985 2.986v7.879h-1.5V3.966c0-.82-.666-1.486-1.485-1.486H28.235c-.82 0-1.485.666-1.485 1.486v53.736c0 .819.666 1.486 1.485 1.486h37.063a1.47 1.47 0 0 0 1.048-.437c.282-.282.436-.655.436-1.048v-5.848h1.5v5.847a2.96 2.96 0 0 1-.875 2.109 2.965 2.965 0 0 1-2.11.877"/>
        <path d="M55.898 57.789H39a.559.559 0 1 1 0-1.117h16.898a.558.558 0 1 1 0 1.117M75.04 9.104H59.17a3.204 3.204 0 0 0-3.197 3.198v37.064a3.204 3.204 0 0 0 3.197 3.197h15.87a3.204 3.204 0 0 0 3.197-3.197V12.303a3.204 3.204 0 0 0-3.197-3.197zm1.932 40.274a1.93 1.93 0 0 1-1.932 1.933H59.17a1.93 1.93 0 0 1-1.932-1.933V12.302a1.93 1.93 0 0 1 1.932-1.932h2.588c.31 0 .586.207.667.506l.195.725c.138.506.586.85 1.104.85h6.751c.517 0 .977-.344 1.103-.85l.196-.725a.69.69 0 0 1 .667-.506h2.599a1.93 1.93 0 0 1 1.932 1.932v37.076z"/>
    </g>
</svg>
