<?xml version="1.0" encoding="UTF-8"?>
<svg width="98px" height="78px" viewBox="0 0 98 78" version="1.1" xmlns="http://www.w3.org/2000/svg" xmlns:xlink="http://www.w3.org/1999/xlink">
    <!-- Generator: sketchtool 54.1 (76490) - https://sketchapp.com -->
    <title>F5238F27-85FE-4D96-80A5-91FB16F7B44A</title>
    <desc>Created with sketchtool.</desc>
    <g id="Page-1" stroke="none" stroke-width="1" fill="none" fill-rule="evenodd">
        <g id="Final" transform="translate(-357.000000, -2501.000000)">
            <g id="Group-26" transform="translate(357.000000, 2150.000000)">
                <g id="Group-12" transform="translate(0.000000, 351.000000)">
                    <g id="Group-18">
                        <path d="M30.61619,4.97922598 C2.54636837,-12.5121984 -3.04961892,20.3358505 1.33278315,37.8857489 C6.7948104,59.7591466 -7.17172317,69.8014503 5.98551826,76.6565758 C19.6403593,83.7709583 35.6593414,58.6090366 68.1466366,62.6407256 C110.3239,67.8749444 105.231335,18.8601597 60.9736688,18.3178239 C49.8332428,18.1813085 42.6014601,12.4477253 30.61619,4.97922598 Z" id="Combined-Shape-Copy-4" fill-opacity="0.1" fill="#E31D74"></path>
                        <g id="Group-17" transform="translate(24.000000, 11.000000)">
                            <path d="M45.6358571,5.73385714 L35.3158571,5.73385714 C35.0687143,6.12242857 34.7944286,6.541 34.4958571,6.98242857 L45.6358571,6.98242857 C46.6672857,6.98242857 47.5044286,7.82385714 47.5044286,8.85671429 L47.5044286,32.9095714 L1.42442857,32.9095714 L1.42442857,8.85671429 C1.42442857,7.82385714 2.26157143,6.98242857 3.29157143,6.98242857 L30.0815714,6.98242857 C30.5315714,6.56528571 30.9858571,6.14814286 31.4401429,5.73385714 L3.29157143,5.73385714 C1.57442857,5.73385714 0.178714286,7.13385714 0.178714286,8.85671429 L0.178714286,34.3667143 C0.178714286,36.0895714 1.57442857,37.4895714 3.29157143,37.4895714 L16.3687143,37.4895714 L16.3687143,41.5324286 L14.3287143,41.5324286 C13.9844286,41.5324286 13.7058571,41.811 13.7058571,42.1567143 C13.7058571,42.501 13.9844286,42.781 14.3287143,42.781 L34.1858571,42.781 C34.5301429,42.781 34.8087143,42.501 34.8087143,42.1567143 C34.8087143,41.811 34.5301429,41.5324286 34.1858571,41.5324286 L32.1444286,41.5324286 L32.1444286,37.4895714 L45.6358571,37.4895714 C47.353,37.4895714 48.7501429,36.0895714 48.7501429,34.3667143 L48.7501429,8.85671429 C48.7501429,7.13385714 47.353,5.73385714 45.6358571,5.73385714 L45.6358571,5.73385714 Z M17.6144286,41.5324286 L30.8987143,41.5324286 L30.8987143,37.4895714 L17.6144286,37.4895714 L17.6144286,41.5324286 Z M47.5044286,34.3667143 C47.5044286,35.401 46.6672857,36.2395714 45.6358571,36.2395714 L3.29157143,36.2395714 C2.26157143,36.2395714 1.42442857,35.401 1.42442857,34.3667143 L1.42442857,34.1581429 L47.5044286,34.1581429 L47.5044286,34.3667143 Z" id="Fill-1" fill="#E31D74"></path>
                            <path d="M45.6358571,5.73385714 L35.3158571,5.73385714 C35.0687143,6.12242857 34.7944286,6.541 34.4958571,6.98242857 L45.6358571,6.98242857 C46.6672857,6.98242857 47.5044286,7.82385714 47.5044286,8.85671429 L47.5044286,32.9095714 L1.42442857,32.9095714 L1.42442857,8.85671429 C1.42442857,7.82385714 2.26157143,6.98242857 3.29157143,6.98242857 L30.0815714,6.98242857 C30.5315714,6.56528571 30.9858571,6.14814286 31.4401429,5.73385714 L3.29157143,5.73385714 C1.57442857,5.73385714 0.178714286,7.13385714 0.178714286,8.85671429 L0.178714286,34.3667143 C0.178714286,36.0895714 1.57442857,37.4895714 3.29157143,37.4895714 L16.3687143,37.4895714 L16.3687143,41.5324286 L14.3287143,41.5324286 C13.9844286,41.5324286 13.7058571,41.811 13.7058571,42.1567143 C13.7058571,42.501 13.9844286,42.781 14.3287143,42.781 L34.1858571,42.781 C34.5301429,42.781 34.8087143,42.501 34.8087143,42.1567143 C34.8087143,41.811 34.5301429,41.5324286 34.1858571,41.5324286 L32.1444286,41.5324286 L32.1444286,37.4895714 L45.6358571,37.4895714 C47.353,37.4895714 48.7501429,36.0895714 48.7501429,34.3667143 L48.7501429,8.85671429 C48.7501429,7.13385714 47.353,5.73385714 45.6358571,5.73385714 L45.6358571,5.73385714 Z M17.6144286,41.5324286 L30.8987143,41.5324286 L30.8987143,37.4895714 L17.6144286,37.4895714 L17.6144286,41.5324286 Z M47.5044286,34.3667143 C47.5044286,35.401 46.6672857,36.2395714 45.6358571,36.2395714 L3.29157143,36.2395714 C2.26157143,36.2395714 1.42442857,35.401 1.42442857,34.3667143 L1.42442857,34.1581429 L47.5044286,34.1581429 L47.5044286,34.3667143 Z" id="Stroke-3" stroke="#ED307A" stroke-width="0.25"></path>
                            <path d="M40.6622857,28.5658571 L40.6622857,11.3272857 L34.9322857,11.3272857 C34.7394286,11.3272857 34.5608571,11.4158571 34.4422857,11.5701429 C34.4394286,11.573 34.4365714,11.5772857 34.4337143,11.5815714 C34.1237143,11.9887143 34.4122857,12.5758571 34.9222857,12.5758571 L39.4165714,12.5758571 L39.4165714,27.3172857 L21.4922857,27.3172857 C21.3265714,27.3172857 21.1737143,27.3844286 21.0565714,27.4987143 L21.0437143,27.513 C20.6522857,27.8972857 20.9294286,28.5658571 21.478,28.5658571 L40.6622857,28.5658571 Z" id="Fill-5" fill="#E31D74"></path>
                            <path d="M40.6622857,28.5658571 L40.6622857,11.3272857 L34.9322857,11.3272857 C34.7394286,11.3272857 34.5608571,11.4158571 34.4422857,11.5701429 C34.4394286,11.573 34.4365714,11.5772857 34.4337143,11.5815714 C34.1237143,11.9887143 34.4122857,12.5758571 34.9222857,12.5758571 L39.4165714,12.5758571 L39.4165714,27.3172857 L21.4922857,27.3172857 C21.3265714,27.3172857 21.1737143,27.3844286 21.0565714,27.4987143 L21.0437143,27.513 C20.6522857,27.8972857 20.9294286,28.5658571 21.478,28.5658571 L40.6622857,28.5658571 Z" id="Stroke-7" stroke="#ED307A" stroke-width="0.25"></path>
                            <g id="Group-12" transform="translate(7.142857, 10.102429)">
                                <path d="M12.6412857,1.22428571 L1.177,1.22428571 L1.177,17.8385714 C1.177,18.1828571 1.45557143,18.4628571 1.79842857,18.4628571 C2.14271429,18.4628571 2.42128571,18.1828571 2.42128571,17.8385714 L2.42128571,2.47285714 L12.6298571,2.47285714 C12.7912857,2.47285714 12.9455714,2.41142857 13.0598571,2.29571429 C13.0641429,2.29285714 13.0684286,2.28857143 13.0727143,2.28428571 C13.4641429,1.89571429 13.1912857,1.22428571 12.6412857,1.22428571" id="Fill-9" fill="#E31D74"></path>
                                <path d="M12.6412857,1.22428571 L1.177,1.22428571 L1.177,17.8385714 C1.177,18.1828571 1.45557143,18.4628571 1.79842857,18.4628571 C2.14271429,18.4628571 2.42128571,18.1828571 2.42128571,17.8385714 L2.42128571,2.47285714 L12.6298571,2.47285714 C12.7912857,2.47285714 12.9455714,2.41142857 13.0598571,2.29571429 C13.0641429,2.29285714 13.0684286,2.28857143 13.0727143,2.28428571 C13.4641429,1.89571429 13.1912857,1.22428571 12.6412857,1.22428571" id="Stroke-11" stroke="#ED307A" stroke-width="0.25"></path>
                            </g>
                            <path d="M17.6258571,19.6178571 L17.5901429,19.7664286 L17.4387143,19.775 C16.6244286,19.8292857 15.823,20.1521429 15.2372857,20.6607143 C14.0501429,21.6921429 13.883,22.8692857 13.7215714,24.0092857 C13.5658571,25.1035714 13.4058571,26.2335714 12.3915714,27.5621429 C12.2387143,27.7592857 12.2201429,28.0307143 12.343,28.2478571 C12.4644286,28.4635714 12.7072857,28.5864286 12.9544286,28.5621429 C17.8987143,28.0178571 20.8715714,25.9335714 20.9044286,22.985 L20.9058571,22.8392857 L21.0458571,22.7921429 C23.2587143,22.0335714 23.7572857,21.4335714 24.4458571,20.6035714 C24.5272857,20.5064286 24.6101429,20.4078571 24.6987143,20.3035714 C28.6458571,15.6407143 37.9144286,4.42071429 38.7101429,0.942142857 C38.7601429,0.723571429 38.6887143,0.492142857 38.523,0.342142857 C38.3587143,0.189285714 38.123,0.139285714 37.9101429,0.209285714 C35.3744286,1.03642857 28.2544286,7.14928571 19.7701429,15.7821429 L19.623,15.6364286 L19.7701429,15.7835714 C19.6701429,15.8864286 19.573,15.9821429 19.4801429,16.0764286 C18.7244286,16.8292857 18.1787143,17.3721429 17.6258571,19.6178571 L17.6258571,19.6178571 Z M14.5458571,27.0392857 L14.1487143,27.125 L14.3115714,26.7521429 C14.7258571,25.8007143 14.8472857,24.9435714 14.9544286,24.1864286 L14.9544286,24.1835714 C15.1058571,23.1064286 15.2172857,22.3292857 16.053,21.6064286 C16.4772857,21.2364286 17.0858571,21.0164286 17.6815714,21.0164286 L17.7958571,21.0235714 L17.8701429,21.075 L19.6501429,22.7078571 L19.6544286,22.795 C19.7558571,25.3692857 16.9315714,26.525 14.5458571,27.0392857 L14.5458571,27.0392857 Z M21.263,16.045 C27.333,9.905 32.7444286,5.02785714 36.1072857,2.66214286 L36.903,2.10071429 L36.4058571,2.93785714 C35.2372857,4.89785714 32.113,9.57071429 24.3058571,18.835 L24.1672857,19.0007143 L21.1115714,16.1978571 L21.263,16.045 Z M20.063,17.2707143 L20.2387143,17.0892857 L23.3587143,19.9521429 L23.2287143,20.105 L23.0715714,19.9692857 L23.2158571,20.1221429 C22.8444286,20.555 22.4601429,21.0064286 20.5072857,21.6564286 L20.3915714,21.6935714 L18.7658571,20.2035714 L18.7944286,20.085 C19.263,18.0878571 19.6501429,17.6907143 20.063,17.2707143 L20.063,17.2707143 Z" id="Fill-13" fill="#E31D74"></path>
                            <path d="M17.6258571,19.6178571 L17.5901429,19.7664286 L17.4387143,19.775 C16.6244286,19.8292857 15.823,20.1521429 15.2372857,20.6607143 C14.0501429,21.6921429 13.883,22.8692857 13.7215714,24.0092857 C13.5658571,25.1035714 13.4058571,26.2335714 12.3915714,27.5621429 C12.2387143,27.7592857 12.2201429,28.0307143 12.343,28.2478571 C12.4644286,28.4635714 12.7072857,28.5864286 12.9544286,28.5621429 C17.8987143,28.0178571 20.8715714,25.9335714 20.9044286,22.985 L20.9058571,22.8392857 L21.0458571,22.7921429 C23.2587143,22.0335714 23.7572857,21.4335714 24.4458571,20.6035714 C24.5272857,20.5064286 24.6101429,20.4078571 24.6987143,20.3035714 C28.6458571,15.6407143 37.9144286,4.42071429 38.7101429,0.942142857 C38.7601429,0.723571429 38.6887143,0.492142857 38.523,0.342142857 C38.3587143,0.189285714 38.123,0.139285714 37.9101429,0.209285714 C35.3744286,1.03642857 28.2544286,7.14928571 19.7701429,15.7821429 L19.623,15.6364286 L19.7701429,15.7835714 C19.6701429,15.8864286 19.573,15.9821429 19.4801429,16.0764286 C18.7244286,16.8292857 18.1787143,17.3721429 17.6258571,19.6178571 L17.6258571,19.6178571 Z M14.5458571,27.0392857 L14.1487143,27.125 L14.3115714,26.7521429 C14.7258571,25.8007143 14.8472857,24.9435714 14.9544286,24.1864286 L14.9544286,24.1835714 C15.1058571,23.1064286 15.2172857,22.3292857 16.053,21.6064286 C16.4772857,21.2364286 17.0858571,21.0164286 17.6815714,21.0164286 L17.7958571,21.0235714 L17.8701429,21.075 L19.6501429,22.7078571 L19.6544286,22.795 C19.7558571,25.3692857 16.9315714,26.525 14.5458571,27.0392857 L14.5458571,27.0392857 Z M21.263,16.045 C27.333,9.905 32.7444286,5.02785714 36.1072857,2.66214286 L36.903,2.10071429 L36.4058571,2.93785714 C35.2372857,4.89785714 32.113,9.57071429 24.3058571,18.835 L24.1672857,19.0007143 L21.1115714,16.1978571 L21.263,16.045 Z M20.063,17.2707143 L20.2387143,17.0892857 L23.3587143,19.9521429 L23.2287143,20.105 L23.0715714,19.9692857 L23.2158571,20.1221429 C22.8444286,20.555 22.4601429,21.0064286 20.5072857,21.6564286 L20.3915714,21.6935714 L18.7658571,20.2035714 L18.7944286,20.085 C19.263,18.0878571 19.6501429,17.6907143 20.063,17.2707143 L20.063,17.2707143 Z" id="Stroke-15" stroke="#ED307A" stroke-width="0.25"></path>
                        </g>
                    </g>
                </g>
            </g>
        </g>
    </g>
</svg>