<?xml version="1.0" encoding="utf-8"?>
<!-- Generator: Adobe Illustrator 23.0.2, SVG Export Plug-In . SVG Version: 6.00 Build 0)  -->
<svg version="1.1" id="Layer_1" xmlns="http://www.w3.org/2000/svg" xmlns:xlink="http://www.w3.org/1999/xlink" x="0px" y="0px"
	 viewBox="0 0 578.9321 350.239" style="enable-background:new 0 0 578.9321 350.239;" xml:space="preserve">
<style type="text/css">
	.st0{fill-rule:evenodd;clip-rule:evenodd;fill:#495050;stroke:url(#SVGID_1_);stroke-width:2.077;}
	.st1{fill-rule:evenodd;clip-rule:evenodd;fill:#495050;}
	.st2{fill-rule:evenodd;clip-rule:evenodd;fill:url(#SVGID_2_);}
	.st3{fill-rule:evenodd;clip-rule:evenodd;}
	.st4{fill:none;stroke:#252728;stroke-width:0.692;}
	.st5{fill-rule:evenodd;clip-rule:evenodd;fill:#FFFFFF;}
	.st6{fill-rule:evenodd;clip-rule:evenodd;fill:#787C7F;}
</style>
<g transform="translate(.172 26)">
	
		<linearGradient id="SVGID_1_" gradientUnits="userSpaceOnUse" x1="-1141.1061" y1="334.2484" x2="-1142.0333" y2="334.0244" gradientTransform="matrix(576.855 0 0 -400.887 658798.125 134101.9531)">
		<stop  offset="0" style="stop-color:#495050"/>
		<stop  offset="1" style="stop-color:#000000"/>
	</linearGradient>
	<path class="st0" d="M23.2515-24.9615h532.085c12.3629,0,22.385,8.704,22.385,19.4409v309.2802
		c0,10.7369-10.0221,19.4409-22.385,19.4409H23.2515c-12.3629,0-22.385-8.704-22.385-19.4409V-5.5206
		C0.8665-16.2576,10.8886-24.9615,23.2515-24.9615z"/>
	<g transform="translate(3.232 3)">
		<g>
			<path class="st1" d="M-0.1715,300.9419c0,9.5828,9.059,17.3539,20.23,17.3539h532.0081c11.172,0,20.23-7.7703,20.23-17.3548
				V-8.9028c0-9.5837-9.058-17.1542-20.23-17.1542H20.0585c-11.172-0.0009-20.23,7.5697-20.23,17.1542V300.941
				C-0.1715,300.941-0.1715,300.9419-0.1715,300.9419z"/>
		</g>
		<g>
			
				<linearGradient id="SVGID_2_" gradientUnits="userSpaceOnUse" x1="-1157.5985" y1="331.1578" x2="-1158.1927" y2="330.9818" gradientTransform="matrix(572.468 0 0 -396.501 663029.375 131439.2031)">
				<stop  offset="0" style="stop-color:#495050"/>
				<stop  offset="0.6651" style="stop-color:#000000"/>
				<stop  offset="1" style="stop-color:#000000"/>
			</linearGradient>
			<path class="st2" d="M-0.1715,300.9419c0,9.5828,9.059,17.3539,20.23,17.3539h532.0081c11.172,0,20.23-7.7703,20.23-17.3548
				V-8.9028c0-9.5837-9.058-17.1542-20.23-17.1542H20.0585c-11.172-0.0009-20.23,7.5697-20.23,17.1542V300.941
				C-0.1715,300.941-0.1715,300.9419-0.1715,300.9419z"/>
		</g>
		<g>
			<path class="st3" d="M-0.1715,300.9419c0,9.5828,9.059,17.3539,20.23,17.3539h532.0081c11.172,0,20.23-7.7703,20.23-17.3548
				V-8.9028c0-9.5837-9.058-17.1542-20.23-17.1542H20.0585c-11.172-0.0009-20.23,7.5697-20.23,17.1542V300.941
				C-0.1715,300.941-0.1715,300.9419-0.1715,300.9419z"/>
		</g>
		<path class="st4" d="M-0.5175,300.9419V-8.9036c0-9.7131,9.17-17.4538,20.576-17.4538h532.0071
			c11.406,0,20.577,7.7416,20.577,17.4547v309.8438c0,9.7513-9.214,17.6562-20.577,17.6562H20.0585
			c-11.362,0-20.577-7.9058-20.577-17.6562L-0.5175,300.9419z"/>
	</g>
</g>
<g transform="translate(3.404 29.647)">
	<path id="f" class="st5" d="M-0.0875-9.3252c0-9.2957,8.792-16.83,19.623-16.83l533.1528,0.0603
		c10.837,0,19.623,7.5378,19.623,16.83v304.0836l-572.3988-0.0603V-9.3252z"/>
</g>
<circle class="st6" cx="289.466" cy="336.1639" r="5"/>
</svg>
