<svg xmlns="http://www.w3.org/2000/svg" width="98" height="86" viewBox="0 0 98 86">
    <g fill="none" fill-rule="evenodd">
        <path fill="#FAAB2B" fill-opacity=".1" d="M30.616 12.98C2.546-4.513-3.05 28.335 1.333 45.885 6.795 67.759-7.172 77.8 5.986 84.656c13.654 7.115 29.673-18.047 62.16-14.015 42.178 5.234 37.085-43.78-7.172-44.323-11.14-.137-18.373-5.87-30.358-13.339z"/>
        <g stroke="#FAAB2B">
            <g fill="#FAAB2B" fill-rule="nonzero" stroke-width=".3">
                <path d="M46.967.067H7.973C3.752.067.335 3.484.335 7.705v22.713c0 4.221 3.417 7.638 7.638 7.638h27.738l3.082 7.638c.134.268.335.402.603.402 0 0 0 0 0 0 .268 0 .536-.134.603-.402l3.216-7.638h3.752c4.221 0 7.638-3.417 7.638-7.638V7.705c0-4.221-3.417-7.638-7.638-7.638zm6.298 30.351c0 3.484-2.814 6.298-6.298 6.298h-4.221c-.268 0-.536.134-.603.402l-2.747 6.499-2.613-6.499c-.134-.268-.335-.402-.603-.402H7.973c-3.484 0-6.298-2.814-6.298-6.298V7.705c0-3.484 2.814-6.298 6.298-6.298h39.061c3.484 0 6.298 2.814 6.298 6.298v22.713h-.067z" transform="translate(16) translate(0 11)"/>
                <path d="M19.631 26.465H7.906c-.402 0-.67.268-.67.67s.268.67.67.67h11.725c.402 0 .67-.268.67-.67s-.268-.67-.67-.67zM38.994 15.678H7.906c-.402 0-.67.268-.67.67s.268.67.67.67h31.088c.402 0 .67-.268.67-.67s-.335-.67-.67-.67zM27.47 21.105H7.906c-.402 0-.67.268-.67.67s.268.67.67.67H27.47c.402 0 .67-.268.67-.67s-.268-.67-.67-.67zM38.994 10.318H7.906c-.402 0-.67.268-.67.67s.268.67.67.67h31.088c.402 0 .67-.268.67-.67s-.335-.67-.67-.67z" transform="translate(16) translate(0 11)"/>
            </g>
            <g transform="translate(16) translate(40)">
                <circle cx="12.6" cy="12.6" r="11.85" fill="#FFF" stroke-width="1.5"/>
                <g fill="#FAAB2B" fill-rule="nonzero" stroke-width=".649">
                    <path d="M5.502 0C6.911 0 8.06 1.148 8.06 2.557c0 1.408-1.148 2.556-2.557 2.556S2.945 3.965 2.945 2.557C2.945 1.147 4.093 0 5.502 0zM.285 11.497c.26-2.66 2.504-4.748 5.27-4.748 2.765 0 5.008 2.087 5.27 4.748.26 2.661-10.801 2.661-10.54 0z" transform="translate(7 6)"/>
                </g>
            </g>
        </g>
    </g>
</svg>
