<svg xmlns="http://www.w3.org/2000/svg" width="82" height="83" viewBox="0 0 82 83">
    <g fill="none" fill-rule="evenodd">
        <path fill="#CDE2EF" d="M68.861 8.33H14.144a4.077 4.077 0 0 0-4.077 4.077v30.12a4.077 4.077 0 0 0 4.077 4.078h54.717a4.077 4.077 0 0 0 4.078-4.077v-30.12A4.077 4.077 0 0 0 68.86 8.33"/>
        <path fill="#026BB0" d="M14.144 9.4a3.011 3.011 0 0 0-3.008 3.007v30.12a3.011 3.011 0 0 0 3.008 3.008h54.718a3.011 3.011 0 0 0 3.007-3.008v-30.12A3.011 3.011 0 0 0 68.862 9.4H14.144zm54.718 38.274H14.144a5.153 5.153 0 0 1-5.147-5.147v-30.12a5.153 5.153 0 0 1 5.147-5.147h54.718a5.153 5.153 0 0 1 5.146 5.147v30.12a5.153 5.153 0 0 1-5.146 5.148z"/>
        <path fill="#026BB0" d="M40.252 31a.768.768 0 0 1-.535-.21l-4.497-4.282a.697.697 0 0 1 0-1.016.773.773 0 0 1 .536-.21.77.77 0 0 1 .533.21l3.702 3.524a.377.377 0 0 0 .522 0l8.199-7.805a.771.771 0 0 1 .533-.211c.202 0 .392.076.535.211a.696.696 0 0 1 0 1.016l-8.994 8.563a.768.768 0 0 1-.534.21"/>
        <path fill="#FFFFFE" d="M14.144 11.453a.956.956 0 0 0-.955.954v30.121c0 .526.429.954.955.954h54.717a.956.956 0 0 0 .955-.954v-30.12a.956.956 0 0 0-.955-.955H14.144zM68.861 45.62H14.144a3.097 3.097 0 0 1-3.094-3.093v-30.12a3.098 3.098 0 0 1 3.094-3.095h54.717a3.097 3.097 0 0 1 3.094 3.094v30.121a3.097 3.097 0 0 1-3.094 3.093z"/>
        <path fill="#026BB0" d="M58.587 14.99a1.14 1.14 0 1 0-2.281 0 1.14 1.14 0 0 0 2.281 0M62.651 14.99a1.14 1.14 0 1 0-2.281 0 1.14 1.14 0 0 0 2.281 0"/>
        <path fill="#FFFFFE" d="M50.357 48.498c0-5.712-3.964-10.342-8.854-10.342-4.89 0-8.854 4.63-8.854 10.342 0 5.712 3.964 10.343 8.854 10.343 4.89 0 8.854-4.631 8.854-10.343"/>
        <path fill="#026BB0" d="M66.258 57.931h-5.63a7.738 7.738 0 0 0-7.737 7.738v5.2a3.096 3.096 0 0 0 3.096 3.097H70.9a3.096 3.096 0 0 0 3.096-3.096v-5.2a7.738 7.738 0 0 0-7.738-7.739M22.377 57.931h-5.63A7.738 7.738 0 0 0 9.01 65.67v5.2a3.096 3.096 0 0 0 3.096 3.097H27.02a3.096 3.096 0 0 0 3.096-3.096v-5.2a7.738 7.738 0 0 0-7.738-7.739" opacity=".1"/>
        <path fill="#FFFFFE" d="M70.228 50.006c0-4.377-3.037-7.925-6.785-7.925-3.747 0-6.785 3.548-6.785 7.925s3.038 7.925 6.785 7.925c3.748 0 6.785-3.548 6.785-7.925M66.258 58.916a6.762 6.762 0 0 1 6.754 6.753v5.2a2.114 2.114 0 0 1-2.112 2.113H55.987a2.115 2.115 0 0 1-2.113-2.112v-5.2a6.762 6.762 0 0 1 6.754-6.755h5.63z"/>
        <path fill="#026BB0" d="M60.628 59.001a6.676 6.676 0 0 0-6.668 6.668v5.2c0 1.118.91 2.027 2.027 2.027H70.9c1.117 0 2.026-.909 2.026-2.026v-5.2A6.676 6.676 0 0 0 66.258 59h-5.63zM70.9 75.035H55.987a4.17 4.17 0 0 1-4.166-4.165v-5.2c0-4.857 3.95-8.808 8.807-8.808h5.63c4.856 0 8.807 3.951 8.807 8.807v5.2a4.17 4.17 0 0 1-4.165 4.166z"/>
        <path fill="#FFFFFE" d="M22.377 58.916a6.762 6.762 0 0 1 6.754 6.753v5.2a2.115 2.115 0 0 1-2.112 2.113H12.106a2.115 2.115 0 0 1-2.113-2.112v-5.2a6.761 6.761 0 0 1 6.754-6.755h5.63z"/>
        <path fill="#026BB0" d="M16.747 59.001a6.675 6.675 0 0 0-6.667 6.668v5.2c0 1.118.909 2.027 2.026 2.027H27.02c1.117 0 2.026-.909 2.026-2.026v-5.2A6.675 6.675 0 0 0 22.377 59h-5.63zM27.02 75.035H12.106a4.17 4.17 0 0 1-4.165-4.165v-5.2c0-4.857 3.95-8.808 8.806-8.808h5.63c4.856 0 8.807 3.951 8.807 8.807v5.2a4.17 4.17 0 0 1-4.165 4.166z"/>
        <path fill="#FFFFFE" d="M26.347 50.006c0-4.377-3.037-7.925-6.785-7.925-3.747 0-6.785 3.548-6.785 7.925s3.038 7.925 6.785 7.925c3.748 0 6.785-3.548 6.785-7.925"/>
        <path fill="#026BB0" d="M66.715 14.99a1.14 1.14 0 1 0-2.281 0 1.14 1.14 0 0 0 2.281 0M41.503 39.225c-4.293 0-7.785 4.16-7.785 9.273 0 5.114 3.492 9.273 7.785 9.273 4.292 0 7.785-4.16 7.785-9.273 0-5.113-3.493-9.273-7.785-9.273zm0 20.685c-5.472 0-9.924-5.12-9.924-11.412 0-6.292 4.452-11.412 9.924-11.412 5.472 0 9.924 5.12 9.924 11.412 0 6.293-4.452 11.412-9.924 11.412z"/>
        <path fill="#CDE2EF" d="M45.176 59.825c5.025 0 9.113 4.088 9.113 9.113v6.786a3.06 3.06 0 0 1-3.056 3.057h-19.46a3.06 3.06 0 0 1-3.057-3.057v-6.786c0-5.025 4.089-9.114 9.114-9.114h7.346z"/>
        <path fill="#026BB0" d="M37.83 59.91c-4.978 0-9.028 4.05-9.028 9.028v6.786a2.974 2.974 0 0 0 2.97 2.971h19.46a2.975 2.975 0 0 0 2.972-2.97v-6.787c0-4.978-4.05-9.028-9.028-9.028H37.83zm13.403 20.924h-19.46a5.116 5.116 0 0 1-5.11-5.11v-6.786c0-6.157 5.01-11.167 11.167-11.167h7.346c6.157 0 11.167 5.01 11.167 11.167v6.786a5.116 5.116 0 0 1-5.11 5.11z"/>
        <path fill="#3B92C3" d="M63.443 43.15c-3.151 0-5.716 3.075-5.716 6.856 0 3.78 2.565 6.856 5.716 6.856 3.151 0 5.716-3.076 5.716-6.856s-2.565-6.855-5.716-6.855zm0 15.851c-4.331 0-7.855-4.035-7.855-8.995 0-4.96 3.524-8.995 7.855-8.995s7.855 4.035 7.855 8.995c0 4.96-3.524 8.995-7.855 8.995z"/>
        <path fill="#FFFFFE" d="M26.347 50.006c0-4.377-3.037-7.925-6.785-7.925-3.747 0-6.785 3.548-6.785 7.925s3.038 7.925 6.785 7.925c3.748 0 6.785-3.548 6.785-7.925"/>
        <path fill="#026BB0" d="M63.443 43.15c-3.151 0-5.716 3.075-5.716 6.856 0 3.78 2.565 6.856 5.716 6.856 3.151 0 5.716-3.076 5.716-6.856s-2.565-6.855-5.716-6.855zm0 15.851c-4.331 0-7.855-4.035-7.855-8.995 0-4.96 3.524-8.995 7.855-8.995s7.855 4.035 7.855 8.995c0 4.96-3.524 8.995-7.855 8.995zM19.562 43.15c-3.152 0-5.715 3.075-5.715 6.856 0 3.78 2.563 6.856 5.715 6.856 3.152 0 5.716-3.076 5.716-6.856s-2.564-6.855-5.716-6.855zm0 15.851c-4.33 0-7.855-4.035-7.855-8.995 0-4.96 3.524-8.995 7.855-8.995s7.855 4.035 7.855 8.995c0 4.96-3.524 8.995-7.855 8.995z"/>
        <g fill="#026BB0">
            <path d="M73.015 2.216V.122H70.92v2.094zM68.594 2.216V.122H66.5v2.094zM81.325 6.827V4.733h-2.094v2.094h2.094zm0 4.673V9.406h-2.094V11.5h2.094zm0-9.284V.122h-2.094v2.094h2.094zm-4.288 0V.122h-2.094v2.094h2.094z"/>
        </g>
        <g fill="#026BB0">
            <path d="M0 74.515h2.094V72.42H0zM0 70.094h2.094V68H0zM4.611 82.825h2.094v-2.094H4.611v2.094zm4.673 0h2.094v-2.094H9.284v2.094zm-9.284 0h2.094v-2.094H0v2.094zm0-4.288h2.094v-2.094H0v2.094z"/>
        </g>
    </g>
</svg>
