<svg xmlns="http://www.w3.org/2000/svg" width="98" height="85" viewBox="0 0 98 85">
    <g fill="none" fill-rule="evenodd">
        <path fill="#026BB0" d="M30.616 11.98C2.546-5.513-3.05 27.335 1.333 44.885 6.795 66.759-7.172 76.8 5.986 83.656c13.654 7.115 29.673-18.047 62.16-14.015 42.178 5.234 37.085-43.78-7.172-44.323-11.14-.137-18.373-5.87-30.358-13.339z" opacity=".1"/>
        <g>
            <path fill="#026BB0" d="M5.715 1.92c-1.327 0-2.406 1.079-2.406 2.406v24.096c0 1.327 1.08 2.406 2.406 2.406H49.49c1.327 0 2.406-1.08 2.406-2.406V4.326c0-1.327-1.079-2.407-2.406-2.407H5.715zM49.49 32.54H5.715c-2.27 0-4.117-1.848-4.117-4.118V4.326c0-2.27 1.847-4.118 4.117-4.118H49.49c2.27 0 4.117 1.848 4.117 4.118v24.096c0 2.27-1.846 4.118-4.117 4.118z" transform="translate(22)"/>
            <path fill="#026BB0" stroke="#026BB0" stroke-width=".5" d="M28.211 9.042L30.989 9.042 30.989 8.069 28.211 8.069z" transform="translate(22) matrix(-1 0 0 1 59.2 0)"/>
            <path fill="#026BB0" stroke="#026BB0" stroke-width=".5" d="M8 9.042L25.6 9.042 25.6 8.069 8 8.069z" transform="translate(22) matrix(-1 0 0 1 33.6 0)"/>
            <path fill="#026BB0" stroke="#026BB0" stroke-width=".5" d="M8 12.591L36 12.591 36 11.618 8 11.618z" transform="translate(22) matrix(-1 0 0 1 44 0)"/>
            <path fill="#E5F0F7" d="M34.685 33.198c0-4.57-3.17-8.274-7.083-8.274-3.912 0-7.083 3.705-7.083 8.274 0 4.57 3.171 8.274 7.083 8.274 3.912 0 7.083-3.704 7.083-8.274" transform="translate(22)"/>
            <path fill="#026BB0" d="M47.406 40.745h-4.503c-3.42 0-6.19 2.772-6.19 6.19v4.16c0 1.369 1.109 2.478 2.476 2.478h11.93c1.368 0 2.477-1.11 2.477-2.477v-4.16c0-3.42-2.77-6.19-6.19-6.19M12.302 40.745H7.798c-3.419 0-6.19 2.772-6.19 6.19v4.16c0 1.369 1.109 2.478 2.477 2.478h11.93c1.368 0 2.477-1.11 2.477-2.477v-4.16c0-3.42-2.771-6.19-6.19-6.19" opacity=".1" transform="translate(22)"/>
            <path fill="#E5F0F7" d="M50.582 34.405c0-3.502-2.43-6.34-5.427-6.34-2.998 0-5.428 2.838-5.428 6.34s2.43 6.34 5.428 6.34c2.997 0 5.427-2.838 5.427-6.34M47.406 41.532c2.98 0 5.403 2.424 5.403 5.403v4.16c0 .933-.757 1.69-1.69 1.69H39.19c-.931 0-1.69-.757-1.69-1.69v-4.16c0-2.979 2.424-5.403 5.403-5.403h4.504z" transform="translate(22)"/>
            <path fill="#026BB0" d="M42.902 41.6c-2.94 0-5.334 2.394-5.334 5.335v4.16c0 .895.727 1.622 1.622 1.622h11.93c.894 0 1.62-.727 1.62-1.621v-4.16c0-2.942-2.392-5.335-5.334-5.335h-4.504zm8.218 12.828H39.19c-1.838 0-3.333-1.495-3.333-3.332v-4.16c0-3.886 3.16-7.046 7.045-7.046h4.504c3.885 0 7.046 3.16 7.046 7.045v4.16c0 1.838-1.495 3.333-3.332 3.333z" transform="translate(22)"/>
            <path fill="#E5F0F7" d="M12.302 41.532c2.979 0 5.403 2.424 5.403 5.403v4.16c0 .933-.758 1.69-1.69 1.69H4.085c-.932 0-1.69-.757-1.69-1.69v-4.16c0-2.979 2.424-5.403 5.403-5.403h4.504z" transform="translate(22)"/>
            <path fill="#026BB0" d="M7.798 41.6c-2.942 0-5.334 2.394-5.334 5.335v4.16c0 .895.727 1.622 1.621 1.622h11.93c.894 0 1.621-.727 1.621-1.621v-4.16c0-2.942-2.393-5.335-5.334-5.335H7.798zm8.217 12.828H4.085c-1.838 0-3.333-1.495-3.333-3.332v-4.16c0-3.886 3.16-7.046 7.046-7.046h4.504c3.885 0 7.045 3.16 7.045 7.045v4.16c0 1.838-1.495 3.333-3.332 3.333z" transform="translate(22)"/>
            <path fill="#FFFFFE" d="M15.478 34.405c0-3.502-2.43-6.34-5.428-6.34-2.998 0-5.428 2.838-5.428 6.34s2.43 6.34 5.428 6.34c2.998 0 5.428-2.838 5.428-6.34" transform="translate(22)"/>
            <path fill="#026BB0" d="M27.602 25.78c-3.434 0-6.228 3.328-6.228 7.419 0 4.09 2.794 7.418 6.228 7.418 3.434 0 6.228-3.328 6.228-7.418s-2.794-7.419-6.228-7.419zm0 16.548c-4.377 0-7.939-4.095-7.939-9.13 0-5.034 3.562-9.13 7.94-9.13 4.377 0 7.938 4.096 7.938 9.13 0 5.035-3.561 9.13-7.939 9.13z" transform="translate(22)"/>
            <path fill="#E5F0F7" d="M30.541 42.26c4.02 0 7.29 3.27 7.29 7.29v5.43c0 1.348-1.097 2.445-2.445 2.445H19.818c-1.348 0-2.445-1.097-2.445-2.446V49.55c0-4.02 3.27-7.29 7.29-7.29h5.878z" transform="translate(22)"/>
            <path fill="#026BB0" d="M24.664 42.328c-3.983 0-7.223 3.24-7.223 7.222v5.43c0 1.31 1.066 2.376 2.377 2.376h15.568c1.311 0 2.377-1.066 2.377-2.377V49.55c0-3.982-3.24-7.222-7.222-7.222h-5.877zm-4.846 16.74c-2.254 0-4.088-1.835-4.088-4.089V49.55c0-4.925 4.008-8.933 8.934-8.933h5.877c4.926 0 8.934 4.008 8.934 8.933v5.43c0 2.253-1.835 4.087-4.089 4.087" transform="translate(22)"/>
            <path fill="#3B92C3" d="M45.155 28.92c-2.522 0-4.573 2.46-4.573 5.485 0 3.024 2.051 5.485 4.573 5.485 2.52 0 4.572-2.46 4.572-5.485 0-3.025-2.051-5.485-4.572-5.485zm0 12.68c-3.465 0-6.284-3.227-6.284-7.195 0-3.968 2.819-7.196 6.284-7.196 3.464 0 6.283 3.228 6.283 7.196 0 3.968-2.819 7.196-6.283 7.196z" transform="translate(22)"/>
            <path fill="#E5F0F7" d="M15.478 34.405c0-3.502-2.43-6.34-5.428-6.34-2.998 0-5.428 2.838-5.428 6.34s2.43 6.34 5.428 6.34c2.998 0 5.428-2.838 5.428-6.34" transform="translate(22)"/>
            <path fill="#026BB0" d="M45.155 28.92c-2.522 0-4.573 2.46-4.573 5.485 0 3.024 2.051 5.485 4.573 5.485 2.52 0 4.572-2.46 4.572-5.485 0-3.025-2.051-5.485-4.572-5.485zm0 12.68c-3.465 0-6.284-3.227-6.284-7.195 0-3.968 2.819-7.196 6.284-7.196 3.464 0 6.283 3.228 6.283 7.196 0 3.968-2.819 7.196-6.283 7.196zM10.05 28.92c-2.522 0-4.573 2.46-4.573 5.485 0 3.024 2.051 5.485 4.573 5.485 2.521 0 4.572-2.46 4.572-5.485 0-3.025-2.051-5.485-4.572-5.485zm0 12.68c-3.465 0-6.284-3.227-6.284-7.195 0-3.968 2.819-7.196 6.284-7.196s6.284 3.228 6.284 7.196c0 3.968-2.82 7.196-6.284 7.196z" transform="translate(22)"/>
        </g>
    </g>
</svg>
