<?xml version="1.0" encoding="UTF-8"?>
<svg width="98px" height="81px" viewBox="0 0 98 81" version="1.1" xmlns="http://www.w3.org/2000/svg" xmlns:xlink="http://www.w3.org/1999/xlink">
    <!-- Generator: sketchtool 54.1 (76490) - https://sketchapp.com -->
    <title>EE7B96E7-6A94-40DA-A298-D01C0D374EE1</title>
    <desc>Created with sketchtool.</desc>
    <g id="Page-1" stroke="none" stroke-width="1" fill="none" fill-rule="evenodd">
        <g id="Final" transform="translate(-388.000000, -1172.000000)">
            <g id="Group-11" transform="translate(388.000000, 1172.000000)">
                <path d="M30.61619,7.97922598 C2.54636837,-9.51219835 -3.04961892,23.3358505 1.33278315,40.8857489 C6.7948104,62.7591466 -7.17172317,72.8014503 5.98551826,79.6565758 C19.6403593,86.7709583 35.6593414,61.6090366 68.1466366,65.6407256 C110.3239,70.8749444 105.231335,21.8601597 60.9736688,21.3178239 C49.8332428,21.1813085 42.6014601,15.4477253 30.61619,7.97922598 Z" id="Combined-Shape" fill-opacity="0.1" fill="#40AC48"></path>
                <g id="noun_Notebook_1540420" transform="translate(28.000000, 0.000000)" fill="#40AC49" fill-rule="nonzero">
                    <path d="M34.6280303,16.0909091 L8.3719697,16.0909091 C7.90444242,16.0909091 7.525,15.6103273 7.525,15.0181818 C7.525,14.4260364 7.90444242,13.9454545 8.3719697,13.9454545 L34.6280303,13.9454545 C35.0964045,13.9454545 35.475,14.4260364 35.475,15.0181818 C35.475,15.6103273 35.0964045,16.0909091 34.6280303,16.0909091 Z" id="Path"></path>
                    <path d="M34.6280303,23.6 L8.3719697,23.6 C7.90444242,23.6 7.525,23.1194182 7.525,22.5272727 C7.525,21.9351273 7.90444242,21.4545455 8.3719697,21.4545455 L34.6280303,21.4545455 C35.0964045,21.4545455 35.475,21.9351273 35.475,22.5272727 C35.475,23.1194182 35.0964045,23.6 34.6280303,23.6 Z" id="Path"></path>
                    <path d="M22.8138889,32.1818182 L9.43611111,32.1818182 C8.97457778,32.1818182 8.6,31.7023091 8.6,31.1090909 C8.6,30.5158727 8.97457778,30.0363636 9.43611111,30.0363636 L22.8138889,30.0363636 C23.2762583,30.0363636 23.65,30.5158727 23.65,31.1090909 C23.65,31.7023091 23.2762583,32.1818182 22.8138889,32.1818182 Z" id="Path"></path>
                    <path d="M41.0933962,0 L5.33443396,0 C2.58265708,0 0.344811321,2.25916364 0.344811321,5.03715415 L0.344811321,13.4324111 L0.344811321,15.1114625 L0.344811321,26.0252964 L0.344811321,27.7043478 L0.344811321,38.6181818 L0.344811321,57.087747 C0.344811321,57.5520047 0.717369811,57.9272727 1.17641509,57.9272727 C1.63546038,57.9272727 2.00801887,57.5520047 2.00801887,57.087747 L2.00801887,5.03715415 C2.00801887,3.18516047 3.49991604,1.67905138 5.33443396,1.67905138 L41.0933962,1.67905138 C41.5532731,1.67905138 41.925,1.30294387 41.925,0.839525692 C41.925,0.37610751 41.5532731,0 41.0933962,0 Z" id="Path"></path>
                    <path d="M42.1820652,6.43636364 C41.7297473,6.43636364 41.3641304,6.81014949 41.3641304,7.27070707 L41.3641304,51.4909091 L6.19293478,51.4909091 C5.74143478,51.4909091 5.375,51.8638606 5.375,52.3252525 C5.375,52.7866444 5.74143478,53.159596 6.19293478,53.159596 L41.3641304,53.159596 L41.3641304,57.3313131 L6.19293478,57.3313131 C5.74143478,57.3313131 5.375,57.7042646 5.375,58.1656566 C5.375,58.6270485 5.74143478,59 6.19293478,59 L42.1820652,59 C42.6343832,59 43,58.6270485 43,58.1656566 L43,7.27070707 C43,6.81014949 42.6343832,6.43636364 42.1820652,6.43636364 Z" id="Path"></path>
                </g>
            </g>
        </g>
    </g>
</svg>