<?xml version="1.0" encoding="UTF-8"?>
<svg width="98px" height="87px" viewBox="0 0 98 87" version="1.1" xmlns="http://www.w3.org/2000/svg" xmlns:xlink="http://www.w3.org/1999/xlink">
    <!-- Generator: sketchtool 54.1 (76490) - https://sketchapp.com -->
    <title>A1F9F2D9-014D-42E8-AF21-52173F6C016A</title>
    <desc>Created with sketchtool.</desc>
    <g id="Page-1" stroke="none" stroke-width="1" fill="none" fill-rule="evenodd">
        <g id="Final" transform="translate(-357.000000, -2327.000000)">
            <g id="Group-26" transform="translate(357.000000, 2150.000000)">
                <g id="Group-12" transform="translate(0.000000, 177.000000)">
                    <g id="Group-16">
                        <path d="M30.61619,13.979226 C2.54636837,-3.51219835 -3.04961892,29.3358505 1.33278315,46.8857489 C6.7948104,68.7591466 -7.17172317,78.8014503 5.98551826,85.6565758 C19.6403593,92.7709583 35.6593414,67.6090366 68.1466366,71.6407256 C110.3239,76.8749444 105.231335,27.8601597 60.9736688,27.3178239 C49.8332428,27.1813085 42.6014601,21.4477253 30.61619,13.979226 Z" id="Combined-Shape-Copy" fill-opacity="0.1" fill="#40AC49"></path>
                        <g id="Group-5" transform="translate(24.000000, 0.000000)" stroke="#40AC49">
                            <path d="M32.4884286,29.4738571 C31.7512857,28.3681429 31.3341429,27.0467143 31.3341429,25.6552857 C34.3527143,22.6638571 35.557,17.4538571 35.557,12.341 C35.557,6.50385714 32.3898571,0.713857143 24.9998571,0.713857143 C17.6084286,0.713857143 14.4412857,6.50385714 14.4412857,12.341 C14.4412857,17.451 15.6441429,22.6624286 18.6641429,25.6552857 C18.6641429,28.4681429 16.957,30.9952857 14.3512857,32.0452857 L6.66985714,35.1381429 C3.07128571,36.5867143 0.714142857,40.081 0.714142857,43.9638571 L0.714142857,50.3924286 M31.3341429,25.6552857 C31.3341429,28.4681429 33.0412857,30.9952857 35.647,32.0452857 L43.3284286,35.1381429 C46.927,36.5867143 49.2855714,40.081 49.2855714,43.9638571 L49.2855714,50.3924286" id="Stroke-1"></path>
                            <path d="M31.3194286,48.3857143 L24.9994286,54.7342857 L22.0194286,51.7328571 L31.3194286,48.3857143 Z M35.5322857,40.9828571 L35.5322857,54.8557143 C35.5322857,56.7842857 34.6594286,58.6071429 33.1622857,59.8128571 L24.9994286,66.3685714 L16.838,59.8128571 C15.338,58.6071429 14.4665714,56.7842857 14.4665714,54.8557143 L14.4665714,40.9828571 L24.9994286,38.8671429 L35.5322857,40.9828571 Z" id="Stroke-3"></path>
                        </g>
                    </g>
                </g>
            </g>
        </g>
    </g>
</svg>