<?xml version="1.0" encoding="UTF-8"?>
<svg width="98px" height="78px" viewBox="0 0 98 78" version="1.1" xmlns="http://www.w3.org/2000/svg" xmlns:xlink="http://www.w3.org/1999/xlink">
    <!-- Generator: sketchtool 54.1 (76490) - https://sketchapp.com -->
    <title>1340386C-EC67-460E-90C8-7F9C1282B607</title>
    <desc>Created with sketchtool.</desc>
    <g id="Page-1" stroke="none" stroke-width="1" fill="none" fill-rule="evenodd">
        <g id="Final" transform="translate(-904.000000, -2334.000000)">
            <g id="Group-26" transform="translate(357.000000, 2150.000000)">
                <g id="Group-12-Copy" transform="translate(547.000000, 184.000000)">
                    <g id="Group-22">
                        <path d="M30.61619,4.97922598 C2.54636837,-12.5121984 -3.04961892,20.3358505 1.33278315,37.8857489 C6.7948104,59.7591466 -7.17172317,69.8014503 5.98551826,76.6565758 C19.6403593,83.7709583 35.6593414,58.6090366 68.1466366,62.6407256 C110.3239,67.8749444 105.231335,18.8601597 60.9736688,18.3178239 C49.8332428,18.1813085 42.6014601,12.4477253 30.61619,4.97922598 Z" id="Combined-Shape-Copy-2" fill-opacity="0.1" fill="#2282BD"></path>
                        <g id="Group-37" transform="translate(24.000000, 4.000000)">
                            <g id="Group-4" transform="translate(16.666667, 18.780000)">
                                <path d="M0.894027778,1.31 L13.4329167,1.31 C13.7440278,1.31 13.9981944,1.05861111 13.9981944,0.753055556 C13.9981944,0.443333333 13.7440278,0.193333333 13.4329167,0.193333333 L0.894027778,0.193333333 C0.582916667,0.193333333 0.330138889,0.443333333 0.330138889,0.753055556 C0.330138889,1.05861111 0.582916667,1.31 0.894027778,1.31" id="Fill-1" fill="#0073B6"></path>
                                <path d="M0.894027778,1.31 L13.4329167,1.31 C13.7440278,1.31 13.9981944,1.05861111 13.9981944,0.753055556 C13.9981944,0.443333333 13.7440278,0.193333333 13.4329167,0.193333333 L0.894027778,0.193333333 C0.582916667,0.193333333 0.330138889,0.443333333 0.330138889,0.753055556 C0.330138889,1.05861111 0.582916667,1.31 0.894027778,1.31" id="Stroke-3" stroke="#0073B5" stroke-width="0.25"></path>
                            </g>
                            <g id="Group-8" transform="translate(16.666667, 28.502222)">
                                <path d="M2.99902778,0.9275 L0.807361111,0.9275 C0.49625,0.9275 0.244861111,1.1775 0.244861111,1.48444444 C0.244861111,1.79277778 0.49625,2.04416667 0.807361111,2.04416667 L2.99902778,2.04416667 C3.31013889,2.04416667 3.56291667,1.79277778 3.56291667,1.48444444 C3.56291667,1.1775 3.31013889,0.9275 2.99902778,0.9275" id="Fill-5" fill="#0073B6"></path>
                                <path d="M2.99902778,0.9275 L0.807361111,0.9275 C0.49625,0.9275 0.244861111,1.1775 0.244861111,1.48444444 C0.244861111,1.79277778 0.49625,2.04416667 0.807361111,2.04416667 L2.99902778,2.04416667 C3.31013889,2.04416667 3.56291667,1.79277778 3.56291667,1.48444444 C3.56291667,1.1775 3.31013889,0.9275 2.99902778,0.9275" id="Stroke-7" stroke="#0073B5" stroke-width="0.25"></path>
                            </g>
                            <g id="Group-12" transform="translate(16.666667, 39.613333)">
                                <path d="M2.91222222,0.272361111 L0.894166667,0.272361111 C0.583055556,0.272361111 0.330277778,0.52375 0.330277778,0.830694444 C0.330277778,1.13902778 0.583055556,1.38902778 0.894166667,1.38902778 L2.91222222,1.38902778 C3.22472222,1.38902778 3.47611111,1.13902778 3.47611111,0.830694444 C3.47611111,0.52375 3.22472222,0.272361111 2.91222222,0.272361111" id="Fill-9" fill="#0073B6"></path>
                                <path d="M2.91222222,0.272361111 L0.894166667,0.272361111 C0.583055556,0.272361111 0.330277778,0.52375 0.330277778,0.830694444 C0.330277778,1.13902778 0.583055556,1.38902778 0.894166667,1.38902778 L2.91222222,1.38902778 C3.22472222,1.38902778 3.47611111,1.13902778 3.47611111,0.830694444 C3.47611111,0.52375 3.22472222,0.272361111 2.91222222,0.272361111" id="Stroke-11" stroke="#0073B5" stroke-width="0.25"></path>
                            </g>
                            <g id="Group-16" transform="translate(5.555556, 14.613333)">
                                <path d="M7.42680556,0.825833333 L3.22680556,6.04944444 L1.88652778,4.52444444 C1.67819444,4.2925 1.31986111,4.27027778 1.08930556,4.47305556 C0.974027778,4.57166667 0.907361111,4.70916667 0.897638889,4.85777778 C0.887916667,5.00638889 0.936527778,5.14805556 1.03513889,5.25916667 L2.82402778,7.28694444 C2.92958333,7.405 3.08652778,7.47583333 3.25041667,7.47583333 C3.43097222,7.47166667 3.58791667,7.39388889 3.69347222,7.26472222 L8.31152778,1.51888889 C8.40458333,1.40361111 8.44625,1.25916667 8.43236111,1.11333333 C8.41430556,0.964722222 8.34069444,0.831388889 8.22263889,0.739722222 C7.97958333,0.543888889 7.62125,0.584166667 7.42680556,0.825833333" id="Fill-13" fill="#0073B6"></path>
                                <path d="M7.42680556,0.825833333 L3.22680556,6.04944444 L1.88652778,4.52444444 C1.67819444,4.2925 1.31986111,4.27027778 1.08930556,4.47305556 C0.974027778,4.57166667 0.907361111,4.70916667 0.897638889,4.85777778 C0.887916667,5.00638889 0.936527778,5.14805556 1.03513889,5.25916667 L2.82402778,7.28694444 C2.92958333,7.405 3.08652778,7.47583333 3.25041667,7.47583333 C3.43097222,7.47166667 3.58791667,7.39388889 3.69347222,7.26472222 L8.31152778,1.51888889 C8.40458333,1.40361111 8.44625,1.25916667 8.43236111,1.11333333 C8.41430556,0.964722222 8.34069444,0.831388889 8.22263889,0.739722222 C7.97958333,0.543888889 7.62125,0.584166667 7.42680556,0.825833333" id="Stroke-15" stroke="#0073B5" stroke-width="0.25"></path>
                            </g>
                            <g id="Group-20" transform="translate(5.555556, 24.335556)">
                                <path d="M7.42819444,1.55819444 L3.22819444,6.77902778 L1.88513889,5.25958333 C1.77263889,5.13319444 1.61708333,5.07069444 1.46013889,5.07069444 C1.32541667,5.07069444 1.19347222,5.11652778 1.08513889,5.20958333 C0.975416667,5.30680556 0.907361111,5.44291667 0.897638889,5.59013889 C0.887916667,5.73875 0.936527778,5.88180556 1.03652778,5.99430556 L2.82541667,8.01791667 C2.93097222,8.14013889 3.08652778,8.20819444 3.25041667,8.20819444 C3.43097222,8.20402778 3.58791667,8.12625 3.69486111,7.99708333 L8.31152778,2.25125 C8.40458333,2.13458333 8.44625,1.99152778 8.43097222,1.84569444 C8.41430556,1.69847222 8.34069444,1.56375 8.22263889,1.46930556 C7.97541667,1.27763889 7.62125,1.31652778 7.42819444,1.55819444" id="Fill-17" fill="#0073B6"></path>
                                <path d="M7.42819444,1.55819444 L3.22819444,6.77902778 L1.88513889,5.25958333 C1.77263889,5.13319444 1.61708333,5.07069444 1.46013889,5.07069444 C1.32541667,5.07069444 1.19347222,5.11652778 1.08513889,5.20958333 C0.975416667,5.30680556 0.907361111,5.44291667 0.897638889,5.59013889 C0.887916667,5.73875 0.936527778,5.88180556 1.03652778,5.99430556 L2.82541667,8.01791667 C2.93097222,8.14013889 3.08652778,8.20819444 3.25041667,8.20819444 C3.43097222,8.20402778 3.58791667,8.12625 3.69486111,7.99708333 L8.31152778,2.25125 C8.40458333,2.13458333 8.44625,1.99152778 8.43097222,1.84569444 C8.41430556,1.69847222 8.34069444,1.56375 8.22263889,1.46930556 C7.97541667,1.27763889 7.62125,1.31652778 7.42819444,1.55819444" id="Stroke-19" stroke="#0073B5" stroke-width="0.25"></path>
                            </g>
                            <g id="Group-24" transform="translate(16.666667, 3.502222)">
                                <path d="M1.45694444,1.13638889 C1.49027778,1.16694444 1.56805556,1.22388889 1.67361111,1.27944444 C1.675,1.27805556 1.67638889,1.27805556 1.68055556,1.27805556 C1.72638889,1.27805556 1.94861111,1.2975 2.09583333,1.25027778 C2.1375,1.2225 2.2125,1.16555556 2.24583333,1.135 C2.32083333,1.05861111 2.34166667,1.02111111 2.35277778,0.987777778 C2.40277778,0.869722222 2.41388889,0.825277778 2.41388889,0.729444444 C2.41388889,0.654444444 2.40277778,0.587777778 2.38472222,0.548888889 C2.34861111,0.46 2.30833333,0.408611111 2.2375,0.337777778 C2.14305556,0.240555556 1.94166667,0.223888889 1.83611111,0.186388889 C1.6875,0.187777778 1.55277778,0.241944444 1.46666667,0.335 C1.39444444,0.407222222 1.35555556,0.458611111 1.34305556,0.491944444 C1.3,0.589166667 1.2875,0.655833333 1.2875,0.729444444 C1.2875,0.8225 1.3,0.868333333 1.31944444,0.91 C1.36111111,1.02111111 1.38194444,1.05861111 1.45694444,1.13638889" id="Fill-21" fill="#0073B6"></path>
                                <path d="M1.45694444,1.13638889 C1.49027778,1.16694444 1.56805556,1.22388889 1.67361111,1.27944444 C1.675,1.27805556 1.67638889,1.27805556 1.68055556,1.27805556 C1.72638889,1.27805556 1.94861111,1.2975 2.09583333,1.25027778 C2.1375,1.2225 2.2125,1.16555556 2.24583333,1.135 C2.32083333,1.05861111 2.34166667,1.02111111 2.35277778,0.987777778 C2.40277778,0.869722222 2.41388889,0.825277778 2.41388889,0.729444444 C2.41388889,0.654444444 2.40277778,0.587777778 2.38472222,0.548888889 C2.34861111,0.46 2.30833333,0.408611111 2.2375,0.337777778 C2.14305556,0.240555556 1.94166667,0.223888889 1.83611111,0.186388889 C1.6875,0.187777778 1.55277778,0.241944444 1.46666667,0.335 C1.39444444,0.407222222 1.35555556,0.458611111 1.34305556,0.491944444 C1.3,0.589166667 1.2875,0.655833333 1.2875,0.729444444 C1.2875,0.8225 1.3,0.868333333 1.31944444,0.91 C1.36111111,1.02111111 1.38194444,1.05861111 1.45694444,1.13638889" id="Stroke-23" stroke="#0073B5" stroke-width="0.25"></path>
                            </g>
                            <g id="Group-28" transform="translate(5.555556, 36.835556)">
                                <path d="M5.56861111,0.976388889 L1.36027778,0.976388889 C1.04916667,0.976388889 0.795,1.22777778 0.795,1.53333333 L0.795,5.71527778 C0.795,6.02361111 1.04916667,6.27361111 1.36027778,6.27361111 L5.56861111,6.27361111 C5.87972222,6.27361111 6.13388889,6.02361111 6.13388889,5.71527778 L6.13388889,1.53333333 C6.13388889,1.22777778 5.87972222,0.976388889 5.56861111,0.976388889 L5.56861111,0.976388889 Z M1.92555556,5.15694444 L5.00472222,5.15694444 L5.00472222,2.09166667 L1.92555556,2.09166667 L1.92555556,5.15694444 Z" id="Fill-25" fill="#0073B6"></path>
                                <path d="M5.56861111,0.976388889 L1.36027778,0.976388889 C1.04916667,0.976388889 0.795,1.22777778 0.795,1.53333333 L0.795,5.71527778 C0.795,6.02361111 1.04916667,6.27361111 1.36027778,6.27361111 L5.56861111,6.27361111 C5.87972222,6.27361111 6.13388889,6.02361111 6.13388889,5.71527778 L6.13388889,1.53333333 C6.13388889,1.22777778 5.87972222,0.976388889 5.56861111,0.976388889 L5.56861111,0.976388889 Z M1.92555556,5.15694444 L5.00472222,5.15694444 L5.00472222,2.09166667 L1.92555556,2.09166667 L1.92555556,5.15694444 Z" id="Stroke-27" stroke="#0073B5" stroke-width="0.25"></path>
                            </g>
                            <path d="M37.0736111,25.7608333 L37.0736111,6.95388889 C37.0736111,6.64555556 36.8208333,6.39555556 36.5097222,6.39555556 L26.3388889,6.39555556 C26.0611111,5.22888889 25.0083333,4.35666667 23.7486111,4.35666667 L22.2083333,4.35666667 L22.2083333,3.86916667 C22.2083333,1.83166667 20.5402778,0.173333333 18.4888889,0.173333333 C16.4361111,0.173333333 14.7680556,1.83166667 14.7680556,3.86916667 L14.7680556,4.35666667 L13.2291667,4.35666667 C11.9680556,4.35666667 10.9152778,5.22888889 10.6361111,6.39555556 L0.736111111,6.39555556 C0.426388889,6.39555556 0.173611111,6.64555556 0.173611111,6.95527778 L0.173611111,48.7788889 C0.173611111,49.0886111 0.426388889,49.3386111 0.736111111,49.3386111 L28.6541667,49.3386111 C30.8527778,50.9636111 33.5652778,51.94 36.5097222,51.94 C43.7819444,51.94 49.6986111,46.0608333 49.6986111,38.8358333 C49.6986111,31.7997222 44.0833333,26.0566667 37.0736111,25.7608333 L37.0736111,25.7608333 Z M13.2291667,5.47333333 L15.3333333,5.47333333 C15.6444444,5.47333333 15.8972222,5.22194444 15.8972222,4.91361111 L15.8972222,3.86916667 C15.8972222,2.44694444 17.0597222,1.29 18.4888889,1.29 C19.9180556,1.29 21.0819444,2.44694444 21.0819444,3.86916667 L21.0819444,4.91361111 C21.0819444,5.22194444 21.3347222,5.47333333 21.6458333,5.47333333 L23.7486111,5.47333333 C24.5972222,5.47333333 25.2888889,6.15944444 25.2888889,7.00388889 C25.2888889,7.84972222 24.5972222,8.53722222 23.7486111,8.53722222 L13.2291667,8.53722222 C12.3791667,8.53722222 11.6888889,7.84972222 11.6888889,7.00388889 C11.6888889,6.15944444 12.3791667,5.47333333 13.2291667,5.47333333 L13.2291667,5.47333333 Z M1.30138889,48.2219444 L1.30138889,7.50944444 L10.6111111,7.50944444 C10.85,8.72888889 11.9305556,9.65388889 13.2291667,9.65388889 L23.7486111,9.65388889 C25.0458333,9.65388889 26.1263889,8.72888889 26.3666667,7.50944444 L35.9458333,7.50944444 L35.9458333,25.7608333 C28.9361111,26.0566667 23.3194444,31.7997222 23.3194444,38.8358333 C23.3194444,42.515 24.8597222,45.84 27.325,48.2219444 L1.30138889,48.2219444 Z M36.5097222,50.8233333 C29.8597222,50.8233333 24.4486111,45.4469444 24.4486111,38.8358333 C24.4486111,32.2261111 29.8597222,26.8483333 36.5097222,26.8483333 C43.1597222,26.8483333 48.5694444,32.2261111 48.5694444,38.8358333 C48.5694444,45.4469444 43.1597222,50.8233333 36.5097222,50.8233333 L36.5097222,50.8233333 Z" id="Fill-29" fill="#0073B6"></path>
                            <path d="M37.0736111,25.7608333 L37.0736111,6.95388889 C37.0736111,6.64555556 36.8208333,6.39555556 36.5097222,6.39555556 L26.3388889,6.39555556 C26.0611111,5.22888889 25.0083333,4.35666667 23.7486111,4.35666667 L22.2083333,4.35666667 L22.2083333,3.86916667 C22.2083333,1.83166667 20.5402778,0.173333333 18.4888889,0.173333333 C16.4361111,0.173333333 14.7680556,1.83166667 14.7680556,3.86916667 L14.7680556,4.35666667 L13.2291667,4.35666667 C11.9680556,4.35666667 10.9152778,5.22888889 10.6361111,6.39555556 L0.736111111,6.39555556 C0.426388889,6.39555556 0.173611111,6.64555556 0.173611111,6.95527778 L0.173611111,48.7788889 C0.173611111,49.0886111 0.426388889,49.3386111 0.736111111,49.3386111 L28.6541667,49.3386111 C30.8527778,50.9636111 33.5652778,51.94 36.5097222,51.94 C43.7819444,51.94 49.6986111,46.0608333 49.6986111,38.8358333 C49.6986111,31.7997222 44.0833333,26.0566667 37.0736111,25.7608333 L37.0736111,25.7608333 Z M13.2291667,5.47333333 L15.3333333,5.47333333 C15.6444444,5.47333333 15.8972222,5.22194444 15.8972222,4.91361111 L15.8972222,3.86916667 C15.8972222,2.44694444 17.0597222,1.29 18.4888889,1.29 C19.9180556,1.29 21.0819444,2.44694444 21.0819444,3.86916667 L21.0819444,4.91361111 C21.0819444,5.22194444 21.3347222,5.47333333 21.6458333,5.47333333 L23.7486111,5.47333333 C24.5972222,5.47333333 25.2888889,6.15944444 25.2888889,7.00388889 C25.2888889,7.84972222 24.5972222,8.53722222 23.7486111,8.53722222 L13.2291667,8.53722222 C12.3791667,8.53722222 11.6888889,7.84972222 11.6888889,7.00388889 C11.6888889,6.15944444 12.3791667,5.47333333 13.2291667,5.47333333 L13.2291667,5.47333333 Z M1.30138889,48.2219444 L1.30138889,7.50944444 L10.6111111,7.50944444 C10.85,8.72888889 11.9305556,9.65388889 13.2291667,9.65388889 L23.7486111,9.65388889 C25.0458333,9.65388889 26.1263889,8.72888889 26.3666667,7.50944444 L35.9458333,7.50944444 L35.9458333,25.7608333 C28.9361111,26.0566667 23.3194444,31.7997222 23.3194444,38.8358333 C23.3194444,42.515 24.8597222,45.84 27.325,48.2219444 L1.30138889,48.2219444 Z M36.5097222,50.8233333 C29.8597222,50.8233333 24.4486111,45.4469444 24.4486111,38.8358333 C24.4486111,32.2261111 29.8597222,26.8483333 36.5097222,26.8483333 C43.1597222,26.8483333 48.5694444,32.2261111 48.5694444,38.8358333 C48.5694444,45.4469444 43.1597222,50.8233333 36.5097222,50.8233333 L36.5097222,50.8233333 Z" id="Stroke-31" stroke="#0073B5" stroke-width="0.25"></path>
                            <g id="Group-36" transform="translate(34.722222, 29.891111)">
                                <path d="M5.99527778,8.38736111 L2.35083333,8.38736111 L2.35083333,0.581805556 C2.35083333,0.273472222 2.09805556,0.0234722222 1.78694444,0.0234722222 C1.47583333,0.0234722222 1.22166667,0.273472222 1.22166667,0.581805556 L1.22166667,8.94569444 C1.22166667,9.25402778 1.47583333,9.50402778 1.78694444,9.50402778 L5.99527778,9.50402778 C6.30638889,9.50402778 6.56055556,9.25402778 6.56055556,8.94569444 C6.56055556,8.63736111 6.30638889,8.38736111 5.99527778,8.38736111" id="Fill-33" fill="#0073B6"></path>
                                <path d="M5.99527778,8.38736111 L2.35083333,8.38736111 L2.35083333,0.581805556 C2.35083333,0.273472222 2.09805556,0.0234722222 1.78694444,0.0234722222 C1.47583333,0.0234722222 1.22166667,0.273472222 1.22166667,0.581805556 L1.22166667,8.94569444 C1.22166667,9.25402778 1.47583333,9.50402778 1.78694444,9.50402778 L5.99527778,9.50402778 C6.30638889,9.50402778 6.56055556,9.25402778 6.56055556,8.94569444 C6.56055556,8.63736111 6.30638889,8.38736111 5.99527778,8.38736111" id="Stroke-35" stroke="#0073B5" stroke-width="0.25"></path>
                            </g>
                        </g>
                    </g>
                </g>
            </g>
        </g>
    </g>
</svg>