<?xml version="1.0" encoding="UTF-8"?>
<svg width="98px" height="84px" viewBox="0 0 98 84" version="1.1" xmlns="http://www.w3.org/2000/svg" xmlns:xlink="http://www.w3.org/1999/xlink">
    <!-- Generator: sketchtool 54.1 (76490) - https://sketchapp.com -->
    <title>3FEBA4C5-6DCA-4AC2-9F2B-8BEA09404710</title>
    <desc>Created with sketchtool.</desc>
    <defs>
        <polygon id="path-1" points="0 63.1663889 49.8722222 63.1663889 49.8722222 -0.000277777778 0 -0.000277777778"></polygon>
    </defs>
    <g id="Page-1" stroke="none" stroke-width="1" fill="none" fill-rule="evenodd">
        <g id="Final" transform="translate(-905.000000, -2150.000000)">
            <g id="Group-26" transform="translate(357.000000, 2150.000000)">
                <g id="Group-12" transform="translate(548.000000, 0.000000)">
                    <g id="Group-13">
                        <path d="M30.61619,10.979226 C2.54636837,-6.51219835 -3.04961892,26.3358505 1.33278315,43.8857489 C6.7948104,65.7591466 -7.17172317,75.8014503 5.98551826,82.6565758 C19.6403593,89.7709583 35.6593414,64.6090366 68.1466366,68.6407256 C110.3239,73.8749444 105.231335,24.8601597 60.9736688,24.3178239 C49.8332428,24.1813085 42.6014601,18.4477253 30.61619,10.979226 Z" id="Combined-Shape-Copy" fill-opacity="0.1" fill="#FAAB2B"></path>
                        <g id="Group-24" transform="translate(22.000000, 0.000000)">
                            <path d="M13.9548611,0.174166667 C13.6229167,0.174166667 13.3520833,0.445 13.3520833,0.781111111 L13.3520833,7.93527778 L7.36458333,7.93527778 C7.03263889,7.93527778 6.76319444,8.20611111 6.76319444,8.54083333 L6.76319444,15.695 L0.775694444,15.695 C0.44375,15.695 0.174305556,15.9672222 0.174305556,16.3019444 L0.174305556,62.3852778 C0.174305556,62.72 0.44375,62.9922222 0.775694444,62.9922222 L35.9173611,62.9922222 C36.2506944,62.9922222 36.5201389,62.72 36.5201389,62.3852778 L36.5201389,55.2338889 L42.5076389,55.2338889 C42.8409722,55.2338889 43.1090278,54.9602778 43.1090278,54.6241667 L43.1090278,47.4727778 L49.0965278,47.4727778 C49.4284722,47.4727778 49.6979167,47.1991667 49.6979167,46.8630556 L49.6979167,0.781111111 C49.6979167,0.445 49.4284722,0.174166667 49.0965278,0.174166667 L13.9548611,0.174166667 Z M35.3159722,61.7769444 L1.37986111,61.7769444 L1.37986111,16.9116667 L26.53125,16.9116667 L26.53125,25.1727778 C26.53125,25.5075 26.8006944,25.7811111 27.1326389,25.7811111 L35.3159722,25.7811111 L35.3159722,61.7769444 Z M27.7354167,24.5644444 L27.7354167,17.77 L34.4645833,24.5644444 L27.7354167,24.5644444 Z M41.90625,54.0172222 L36.5201389,54.0172222 L36.5201389,25.1727778 C36.5034722,25.0797222 36.4951389,25.0283333 36.4770833,24.9741667 C36.4284722,24.8477778 36.3881944,24.7908333 36.3381944,24.7366667 L27.5590278,15.8741667 C27.5354167,15.8505556 27.5034722,15.8269444 27.4729167,15.8061111 L27.4173611,15.8061111 L27.33125,15.7380556 C27.2590278,15.72 27.2173611,15.7130556 27.1756944,15.7116667 L27.0229167,15.6838889 L7.96736111,15.6991667 L7.96736111,9.14916667 L41.90625,9.14916667 L41.90625,54.0172222 Z M48.4923611,46.2575 L43.1090278,46.2575 L43.1090278,8.54083333 C43.1090278,8.20611111 42.8409722,7.93527778 42.5076389,7.93527778 L14.5576389,7.93527778 L14.5576389,1.38944444 L48.4923611,1.38944444 L48.4923611,46.2575 Z" id="Fill-1" fill="#FAAB2B"></path>
                            <path d="M13.9548611,0.174166667 C13.6229167,0.174166667 13.3520833,0.445 13.3520833,0.781111111 L13.3520833,7.93527778 L7.36458333,7.93527778 C7.03263889,7.93527778 6.76319444,8.20611111 6.76319444,8.54083333 L6.76319444,15.695 L0.775694444,15.695 C0.44375,15.695 0.174305556,15.9672222 0.174305556,16.3019444 L0.174305556,62.3852778 C0.174305556,62.72 0.44375,62.9922222 0.775694444,62.9922222 L35.9173611,62.9922222 C36.2506944,62.9922222 36.5201389,62.72 36.5201389,62.3852778 L36.5201389,55.2338889 L42.5076389,55.2338889 C42.8409722,55.2338889 43.1090278,54.9602778 43.1090278,54.6241667 L43.1090278,47.4727778 L49.0965278,47.4727778 C49.4284722,47.4727778 49.6979167,47.1991667 49.6979167,46.8630556 L49.6979167,0.781111111 C49.6979167,0.445 49.4284722,0.174166667 49.0965278,0.174166667 L13.9548611,0.174166667 Z M35.3159722,61.7769444 L1.37986111,61.7769444 L1.37986111,16.9116667 L26.53125,16.9116667 L26.53125,25.1727778 C26.53125,25.5075 26.8006944,25.7811111 27.1326389,25.7811111 L35.3159722,25.7811111 L35.3159722,61.7769444 Z M27.7354167,24.5644444 L27.7354167,17.77 L34.4645833,24.5644444 L27.7354167,24.5644444 Z M41.90625,54.0172222 L36.5201389,54.0172222 L36.5201389,25.1727778 C36.5034722,25.0797222 36.4951389,25.0283333 36.4770833,24.9741667 C36.4284722,24.8477778 36.3881944,24.7908333 36.3381944,24.7366667 L27.5590278,15.8741667 C27.5354167,15.8505556 27.5034722,15.8269444 27.4729167,15.8061111 L27.4173611,15.8061111 L27.33125,15.7380556 C27.2590278,15.72 27.2173611,15.7130556 27.1756944,15.7116667 L27.0229167,15.6838889 L7.96736111,15.6991667 L7.96736111,9.14916667 L41.90625,9.14916667 L41.90625,54.0172222 Z M48.4923611,46.2575 L43.1090278,46.2575 L43.1090278,8.54083333 C43.1090278,8.20611111 42.8409722,7.93527778 42.5076389,7.93527778 L14.5576389,7.93527778 L14.5576389,1.38944444 L48.4923611,1.38944444 L48.4923611,46.2575 Z" id="Stroke-3" stroke="#FAAC2B" stroke-width="0.25"></path>
                            <g id="Group-8" transform="translate(6.944444, 29.833056)">
                                <path d="M1.51861111,18.7473611 L22.9866667,18.7473611 L22.9866667,17.5306944 L2.12277778,17.5306944 L2.12277778,0.901527778 L0.915833333,0.901527778 L0.915833333,18.1404167 C0.915833333,18.4751389 1.18666667,18.7473611 1.51861111,18.7473611" id="Fill-5" fill="#FAAB2B"></path>
                                <path d="M1.51861111,18.7473611 L22.9866667,18.7473611 L22.9866667,17.5306944 L2.12277778,17.5306944 L2.12277778,0.901527778 L0.915833333,0.901527778 L0.915833333,18.1404167 C0.915833333,18.4751389 1.18666667,18.7473611 1.51861111,18.7473611" id="Stroke-7" stroke="#FAAC2B" stroke-width="0.25"></path>
                            </g>
                            <path d="M21.3930556,39.6041667 L16.15,39.6041667 C15.9930556,39.6041667 15.8388889,39.6680556 15.725,39.7819444 L11.6833333,43.8625 L12.5347222,44.725 L16.4013889,40.8194444 L21.6416667,40.8194444 C21.8041667,40.8194444 21.9527778,40.7555556 22.0680556,40.6416667 L28.3069444,34.3444444 L27.4541667,33.4833333 L21.3930556,39.6041667 Z" id="Fill-9" fill="#FAAB2B"></path>
                            <path d="M21.3930556,39.6041667 L16.15,39.6041667 C15.9930556,39.6041667 15.8388889,39.6680556 15.725,39.7819444 L11.6833333,43.8625 L12.5347222,44.725 L16.4013889,40.8194444 L21.6416667,40.8194444 C21.8041667,40.8194444 21.9527778,40.7555556 22.0680556,40.6416667 L28.3069444,34.3444444 L27.4541667,33.4833333 L21.3930556,39.6041667 Z" id="Stroke-11" stroke="#FAAC2B" stroke-width="0.25"></path>
                            <mask id="mask-2" fill="white">
                                <use xlink:href="#path-1"></use>
                            </mask>
                            <g id="Clip-14"></g>
                            <polygon id="Fill-13" fill="#FAAB2B" mask="url(#mask-2)" points="7.86111111 23.5608333 9.06666667 23.5608333 9.06666667 22.3441667 7.86111111 22.3441667"></polygon>
                            <polygon id="Stroke-15" stroke="#FAAC2B" stroke-width="0.25" mask="url(#mask-2)" points="7.86111111 23.5608333 9.06666667 23.5608333 9.06666667 22.3441667 7.86111111 22.3441667"></polygon>
                            <polygon id="Fill-16" fill="#FAAB2B" mask="url(#mask-2)" points="12.2541667 23.5608333 20.0486111 23.5608333 20.0486111 22.3441667 12.2541667 22.3441667"></polygon>
                            <polygon id="Stroke-17" stroke="#FAAC2B" stroke-width="0.25" mask="url(#mask-2)" points="12.2541667 23.5608333 20.0486111 23.5608333 20.0486111 22.3441667 12.2541667 22.3441667"></polygon>
                            <polygon id="Fill-18" fill="#FAAB2B" mask="url(#mask-2)" points="7.86111111 27.9969444 20.0486111 27.9969444 20.0486111 26.7802778 7.86111111 26.7802778"></polygon>
                            <polygon id="Stroke-19" stroke="#FAAC2B" stroke-width="0.25" mask="url(#mask-2)" points="7.86111111 27.9969444 20.0486111 27.9969444 20.0486111 26.7802778 7.86111111 26.7802778"></polygon>
                            <polygon id="Fill-20" fill="#FAAB2B" mask="url(#mask-2)" points="10.0583333 55.2316667 13.4597222 55.2316667 13.4597222 54.0163889 10.0583333 54.0163889"></polygon>
                            <polygon id="Stroke-21" stroke="#FAAC2B" stroke-width="0.25" mask="url(#mask-2)" points="10.0583333 55.2316667 13.4597222 55.2316667 13.4597222 54.0163889 10.0583333 54.0163889"></polygon>
                            <polygon id="Fill-22" fill="#FAAB2B" mask="url(#mask-2)" points="16.6472222 55.2316667 26.6388889 55.2316667 26.6388889 54.0163889 16.6472222 54.0163889"></polygon>
                            <polygon id="Stroke-23" stroke="#FAAC2B" stroke-width="0.25" mask="url(#mask-2)" points="16.6472222 55.2316667 26.6388889 55.2316667 26.6388889 54.0163889 16.6472222 54.0163889"></polygon>
                        </g>
                    </g>
                </g>
            </g>
        </g>
    </g>
</svg>