<svg xmlns="http://www.w3.org/2000/svg" width="98" height="92" viewBox="0 0 98 92">
    <g fill="none" fill-rule="evenodd">
        <path fill="#E31D74" fill-opacity=".1" d="M30.616 18.98C2.546 1.487-3.05 34.335 1.333 51.885 6.795 73.759-7.172 83.8 5.986 90.656c13.654 7.115 29.673-18.047 62.16-14.015 42.178 5.234 37.085-43.78-7.172-44.323-11.14-.137-18.373-5.87-30.358-13.339z"/>
        <g>
            <g>
                <path fill="#E31D74" d="M2.985 59.708C1.339 59.708 0 58.368 0 56.722V2.986C0 1.339 1.339 0 2.985 0h37.062c1.647 0 2.985 1.339 2.985 2.986v19.899h-1.5V2.986c0-.82-.666-1.486-1.485-1.486H2.985c-.819 0-1.485.666-1.485 1.486v53.736c0 .819.666 1.486 1.485 1.486h37.063c.395 0 .767-.155 1.048-.437.282-.282.436-.655.436-1.048V34h1.5v22.722c.001.795-.31 1.544-.875 2.109s-1.314.877-2.109.877H2.985z" transform="translate(22) rotate(-90 32 32)"/>
                <g fill-rule="nonzero">
                    <path fill="#E31D74" stroke="#E31D74" d="M2.678 52.762h-.48c-.574-.001-1.04-.467-1.041-1.042v-2.429h2.56v2.429c-.001.574-.465 1.039-1.039 1.042h0zm-1.358-3.31v2.268c0 .487.395.88.882.882h.48c.486-.001.88-.395.881-.882v-2.269H1.32z" transform="translate(22) rotate(-90 32 32) rotate(-123 22.314 17.955)"/>
                    <path fill="#E31D74" stroke="#E31D74" stroke-width=".5" d="M3.97 48.128H.91v-.25L.915 6.131l.682-3.25h1.686l.042.2.645 3.117v41.93zm-2.4-.66h1.74l.005-41.21L2.75 3.54H2.13L1.57 6.206v41.262z" transform="translate(22) rotate(-90 32 32) rotate(-123 22.314 17.955)"/>
                    <path fill="#E31D74" stroke="#E31D74" d="M3.117 3.291H1.765L2.44.046l.677 3.245zm-1.155-.16h.96l-.48-2.3-.48 2.3z" transform="translate(22) rotate(-90 32 32) rotate(-123 22.314 17.955)"/>
                    <path fill="#B93D74" d="M0.48 0.118H4.08V1.6909999999999998H0.48z" transform="translate(22) rotate(-90 32 32) rotate(-123 22.314 17.955) translate(.16 47.68)"/>
                </g>
            </g>
            <path fill="#E31D74" d="M38.457 61.117H21.559c-.309 0-.559-.25-.559-.559 0-.308.25-.558.559-.558h16.898c.309 0 .559.25.559.558 0 .309-.25.559-.559.559" transform="translate(22)"/>
            <path fill="#E31D74" fill-rule="nonzero" d="M25.44 37c-.397 0-.44.408-.44.583v8.833c0 .175.043.584.441.584.108 0 .227-.03.354-.089l9.87-4.612c.232-.107.335-.228.335-.299 0-.072-.103-.192-.334-.3l-9.871-4.61c-.127-.06-.247-.09-.354-.09z" transform="translate(22)"/>
        </g>
    </g>
</svg>
