<svg xmlns="http://www.w3.org/2000/svg" width="83" height="84" viewBox="0 0 83 84">
    <g fill="none" fill-rule="evenodd" transform="translate(0 1)">
        <g fill="#026BB0">
            <path d="M80.046 26.869h2.292v2.292h-2.292zM80.046 31.708h2.292V34h-2.292zM75 17.77h2.292v2.292H75V17.77zm0 4.695h2.292v2.292H75v-2.292zm5.046-4.695h2.292v2.292h-2.292V17.77zm0 4.695h2.292v2.292h-2.292v-2.292z"/>
        </g>
        <g fill="#026BB0">
            <path d="M0 73.131h2.292v-2.292H0zM0 68.292h2.292V66H0zM5.049 82.23h2.292v-2.292H5.049v2.292zm0-4.695h2.292v-2.292H5.049v2.292zM0 82.23h2.292v-2.292H0v2.292zm0-4.695h2.292v-2.292H0v2.292z"/>
        </g>
        <g fill-rule="nonzero">
            <path fill="#026BB0" d="M68.52 70.234H11.613A1.514 1.514 0 0 1 10.1 68.72v-3.97c0-.836.678-1.513 1.513-1.513h56.909c.836 0 1.514.677 1.514 1.514v3.969c0 .835-.678 1.514-1.514 1.514zm-56.375-1.97h55.993v-3.026H12.145v3.026z"/>
            <path fill="#026BB0" d="M64.407 65h-5.816c-.88 0-1.591-.675-1.591-1.507V32.507c0-.832.712-1.507 1.591-1.507h5.816c.88 0 1.593.675 1.593 1.507v30.986c0 .831-.712 1.507-1.593 1.507zM59 63h5V33h-5v30zM43.407 65h-5.816c-.88 0-1.591-.675-1.591-1.507V32.507c0-.832.712-1.507 1.591-1.507h5.816c.88 0 1.593.675 1.593 1.507v30.986c0 .831-.712 1.507-1.593 1.507zM38 63h5V33h-5v30zM21.407 65h-5.816c-.88 0-1.591-.673-1.591-1.503V32.503c0-.83.712-1.503 1.591-1.503h5.816c.88 0 1.593.673 1.593 1.503v30.994c0 .83-.712 1.503-1.593 1.503zM16 63h5V33h-5v30z"/>
            <path fill="#026BB0" d="M57.486 60.697H44.76c-.837 0-1.513-.448-1.513-1s.676-1 1.513-1h12.726c.836 0 1.514.448 1.514 1s-.678 1-1.514 1zM36.132 60.697H22.513c-.837 0-1.513-.448-1.513-1s.676-1 1.513-1h13.619c.836 0 1.514.448 1.514 1s-.678 1-1.514 1z"/>
            <path stroke="#026BB0" d="M39.5 15.297c-.276 0-.5-.677-.5-1.513V1.677c0-.835.224-1.513.5-1.513s.5.678.5 1.513v12.107c0 .836-.224 1.513-.5 1.513z"/>
            <path fill="#FFF" stroke="#026BB0" stroke-width="2" d="M50.594 10.757h-9.08A1.513 1.513 0 0 1 40 9.244V3.191c0-.835.677-1.513 1.514-1.513h9.08c.834 0 1.512.678 1.512 1.513v6.053c0 .836-.678 1.513-1.512 1.513z"/>
            <path fill="#026BB0" d="M72.586 70.3H7.512c-.835 0-1.512-.448-1.512-1s.677-1 1.512-1h65.074c.835 0 1.512.448 1.512 1s-.677 1-1.512 1z"/>
        </g>
        <path stroke="#026BB0" stroke-width="2" d="M6.047 32.014h67.527a1 1 0 0 0 .404-1.914L40.215 15.179a1 1 0 0 0-.809 0L5.643 30.099a1 1 0 0 0 .404 1.915z"/>
        <path fill="#026BB0" d="M6 31h67.332L39.85 16.078a.1.1 0 0 0-.081 0L6 31z" opacity=".1"/>
        <circle cx="40" cy="25" r="3" fill="#FFF" stroke="#026BB0" stroke-width="2"/>
        <path fill="#FFF" d="M16 33h5v30h-5zM38 33h5v30h-5zM59 33h5v30h-5z"/>
        <path fill="#CDE2EF" d="M12.1 65.3h56v3h-56z"/>
        <path fill="#FFF" d="M46 61.5h10v1H46zM24 61.5h11v1H24z"/>
    </g>
</svg>
