<svg xmlns="http://www.w3.org/2000/svg" width="98" height="78" viewBox="0 0 98 78">
    <g fill="none" fill-rule="evenodd">
        <path fill="#2282BD" fill-opacity=".1" d="M30.616 4.98C2.546-12.513-3.05 20.335 1.333 37.885 6.795 59.759-7.172 69.8 5.986 76.656c13.654 7.115 29.673-18.047 62.16-14.015 42.178 5.234 37.085-43.78-7.172-44.323-11.14-.137-18.373-5.87-30.358-13.339z"/>
        <g stroke="#2282BD">
            <path stroke-width="1.8" d="M37.4 2.418a12.06 12.06 0 0 0-9.401 9.965A94.34 94.34 0 0 0 26.9 26.709c0 4.43.315 8.86.946 13.291a12.06 12.06 0 0 0 10.417 10.264c4.447.566 8.894.85 13.34.85 4.645 0 9.29-.31 13.934-.927a12.06 12.06 0 0 0 10.257-9.692 73.332 73.332 0 0 0 1.316-13.786c0-4.938-.506-9.876-1.52-14.816a12.06 12.06 0 0 0-9.195-9.347A67.923 67.923 0 0 0 51.604.9 67.81 67.81 0 0 0 37.4 2.418z"/>
            <path fill-rule="nonzero" stroke-width=".9" d="M45.706 33.374c-.846 0-1.436-.673-1.436-1.637V19.906c0-.963.59-1.636 1.435-1.636.27 0 .55.068.833.203l12.995 6.175c.809.384.929.9.929 1.175 0 .273-.121.79-.929 1.172l-12.995 6.177a1.943 1.943 0 0 1-.832.202zm0-14.249c-.525 0-.581.546-.581.781v11.831c0 .235.057.782.581.782a1.1 1.1 0 0 0 .465-.119l12.996-6.177c.304-.144.44-.305.44-.4 0-.097-.136-.259-.44-.403l-12.996-6.175a1.094 1.094 0 0 0-.466-.12z"/>
        </g>
    </g>
</svg>
