<?xml version="1.0" encoding="UTF-8"?>
<svg width="98px" height="78px" viewBox="0 0 98 78" version="1.1" xmlns="http://www.w3.org/2000/svg" xmlns:xlink="http://www.w3.org/1999/xlink">
    <!-- Generator: sketchtool 54.1 (76490) - https://sketchapp.com -->
    <title>2C6653E5-FE65-484B-9AAD-B27AF981E2BD</title>
    <desc>Created with sketchtool.</desc>
    <g id="Page-1" stroke="none" stroke-width="1" fill="none" fill-rule="evenodd">
        <g id="Final" transform="translate(-357.000000, -2157.000000)">
            <g id="Group-26" transform="translate(357.000000, 2150.000000)">
                <g id="Group-25" transform="translate(0.000000, 7.000000)">
                    <g id="Group-11">
                        <path d="M30.61619,4.97922598 C2.54636837,-12.5121984 -3.04961892,20.3358505 1.33278315,37.8857489 C6.7948104,59.7591466 -7.17172317,69.8014503 5.98551826,76.6565758 C19.6403593,83.7709583 35.6593414,58.6090366 68.1466366,62.6407256 C110.3239,67.8749444 105.231335,18.8601597 60.9736688,18.3178239 C49.8332428,18.1813085 42.6014601,12.4477253 30.61619,4.97922598 Z" id="Combined-Shape" fill-opacity="0.1" fill="#E31D74"></path>
                        <path d="M65.3841433,12.6844574 L65.3841433,9.50071059 C65.3841433,9.22583979 65.1584196,9 64.8840105,9 L30.5268065,9 C30.2509221,9 30.0251984,9.22583979 30.0251984,9.50071059 L30.0251984,29.2111757 L47.7046709,29.2111757 L53.5037518,23.8407946 L67.3106553,22.8592829 L67.3106553,12.9462532 L65.3841433,12.6844574 Z M67.8080906,23.0109819 L67.8080906,13.2389535 C67.8080906,12.9640827 67.582367,12.7367571 67.3079579,12.7367571 L34.1398601,12.7367571 C33.8639757,12.7367571 33.638252,12.9640827 33.638252,13.2389535 L33.638252,29.3684617 L47.4950228,29.3684617 L54.9490855,23.0849742 L67.8080906,23.0109819 Z M54.524328,23.2011628 C54.2499189,23.2011628 53.8648609,23.3631137 53.6730695,23.5607235 L48.4179871,28.9229328 C48.2247204,29.1190568 47.8411378,29.279522 47.5652533,29.279522 L24.5016081,29.279522 C24.2257236,29.279522 24,29.5068475 24,29.7802326 L24,54.5007752 C24,54.7741602 24.2257236,55 24.5016081,55 L73.4998672,55 C73.7742764,55 74,54.7741602 74,54.5007752 L74,23.7018734 C74,23.4270026 73.7742764,23.2011628 73.4998672,23.2011628 L54.524328,23.2011628 Z M35.8025434,17.1718346 L54.9816766,17.1718346 L35.8025434,17.1718346 Z M35.8025434,20.1434109 L43.2794547,20.1434109 L35.8025434,20.1434109 Z" id="Stroke-1" stroke="#E31D74" stroke-width="1.47000003"></path>
                    </g>
                </g>
            </g>
        </g>
    </g>
</svg>