<?xml version="1.0" encoding="UTF-8"?>
<svg width="98px" height="78px" viewBox="0 0 98 78" version="1.1" xmlns="http://www.w3.org/2000/svg" xmlns:xlink="http://www.w3.org/1999/xlink">
    <!-- Generator: sketchtool 54.1 (76490) - https://sketchapp.com -->
    <title>59A708D1-6890-44EF-A554-45691F18CDC6</title>
    <desc>Created with sketchtool.</desc>
    <g id="Page-1" stroke="none" stroke-width="1" fill="none" fill-rule="evenodd">
        <g id="Final" transform="translate(-904.000000, -2502.000000)">
            <g id="Group-26" transform="translate(357.000000, 2150.000000)">
                <g id="Group-12" transform="translate(547.000000, 352.000000)">
                    <g id="Group-21">
                        <path d="M30.61619,4.97922598 C2.54636837,-12.5121984 -3.04961892,20.3358505 1.33278315,37.8857489 C6.7948104,59.7591466 -7.17172317,69.8014503 5.98551826,76.6565758 C19.6403593,83.7709583 35.6593414,58.6090366 68.1466366,62.6407256 C110.3239,67.8749444 105.231335,18.8601597 60.9736688,18.3178239 C49.8332428,18.1813085 42.6014601,12.4477253 30.61619,4.97922598 Z" id="Combined-Shape-Copy-3" fill-opacity="0.1" fill="#40AC49"></path>
                        <g id="Group-9" transform="translate(24.000000, 5.000000)">
                            <g id="Group-4" transform="translate(0.000000, 0.945556)">
                                <path d="M24.6704167,49.8270833 C11.1620833,49.8270833 0.173194444,38.7895833 0.173194444,25.2215278 C0.173194444,11.6548611 11.1620833,0.615972222 24.6704167,0.615972222 C28.9690278,0.615972222 33.1968056,1.75069444 36.8981944,3.89791667 C37.3995833,4.18819444 37.5731944,4.83263889 37.2829167,5.33819444 C37.0954167,5.66180556 36.7454167,5.86458333 36.3690278,5.86458333 C36.1856944,5.86458333 36.0051389,5.81597222 35.8481944,5.72430556 C32.46625,3.76319444 28.6009722,2.72569444 24.6704167,2.72569444 C12.3204167,2.72569444 2.27319444,12.81875 2.27319444,25.2215278 C2.27319444,37.6256944 12.3204167,47.7173611 24.6704167,47.7173611 C37.0218056,47.7173611 47.0676389,37.6256944 47.0676389,25.2215278 C47.0676389,24.2159722 47.0009722,23.2048611 46.8690278,22.2159722 C46.6384722,20.4701389 46.2023611,18.7618056 45.5773611,17.1340278 C45.1593056,16.0479167 44.6565278,14.9923611 44.0829167,13.9951389 C43.9426389,13.7506944 43.9065278,13.4659722 43.97875,13.1951389 C44.0523611,12.9243056 44.2245833,12.6965278 44.4690278,12.5534722 C44.6273611,12.4618056 44.8079167,12.4131944 44.9898611,12.4131944 C45.36625,12.4131944 45.7148611,12.6145833 45.9023611,12.9395833 C46.5329167,14.0340278 47.0815278,15.1909722 47.5356944,16.3743056 C48.2231944,18.1618056 48.6981944,20.0340278 48.9509722,21.9368056 C49.0954167,23.0159722 49.1676389,24.1215278 49.1676389,25.2215278 C49.1676389,38.7895833 38.17875,49.8270833 24.6704167,49.8270833" id="Fill-1" fill="#40AC49"></path>
                                <path d="M24.6704167,49.8270833 C11.1620833,49.8270833 0.173194444,38.7895833 0.173194444,25.2215278 C0.173194444,11.6548611 11.1620833,0.615972222 24.6704167,0.615972222 C28.9690278,0.615972222 33.1968056,1.75069444 36.8981944,3.89791667 C37.3995833,4.18819444 37.5731944,4.83263889 37.2829167,5.33819444 C37.0954167,5.66180556 36.7454167,5.86458333 36.3690278,5.86458333 C36.1856944,5.86458333 36.0051389,5.81597222 35.8481944,5.72430556 C32.46625,3.76319444 28.6009722,2.72569444 24.6704167,2.72569444 C12.3204167,2.72569444 2.27319444,12.81875 2.27319444,25.2215278 C2.27319444,37.6256944 12.3204167,47.7173611 24.6704167,47.7173611 C37.0218056,47.7173611 47.0676389,37.6256944 47.0676389,25.2215278 C47.0676389,24.2159722 47.0009722,23.2048611 46.8690278,22.2159722 C46.6384722,20.4701389 46.2023611,18.7618056 45.5773611,17.1340278 C45.1593056,16.0479167 44.6565278,14.9923611 44.0829167,13.9951389 C43.9426389,13.7506944 43.9065278,13.4659722 43.97875,13.1951389 C44.0523611,12.9243056 44.2245833,12.6965278 44.4690278,12.5534722 C44.6273611,12.4618056 44.8079167,12.4131944 44.9898611,12.4131944 C45.36625,12.4131944 45.7148611,12.6145833 45.9023611,12.9395833 C46.5329167,14.0340278 47.0815278,15.1909722 47.5356944,16.3743056 C48.2231944,18.1618056 48.6981944,20.0340278 48.9509722,21.9368056 C49.0954167,23.0159722 49.1676389,24.1215278 49.1676389,25.2215278 C49.1676389,38.7895833 38.17875,49.8270833 24.6704167,49.8270833" id="Stroke-3" stroke="#6BBD44" stroke-width="0.25"></path>
                            </g>
                            <g id="Group-8" transform="translate(13.888889, 20.390000)">
                                <path d="M7.65513889,14.6816667 C7.37458333,14.6816667 7.11069444,14.5733333 6.91208333,14.3733333 L0.659305556,8.09277778 C0.250972222,7.68166667 0.250972222,7.01361111 0.659305556,6.60111111 C0.857916667,6.4025 1.12180556,6.29277778 1.40375,6.29277778 C1.68430556,6.29277778 1.94680556,6.4025 2.14541667,6.60111111 L7.29263889,11.7705556 C7.39263889,11.8719444 7.52458333,11.9233333 7.65513889,11.9233333 C7.78569444,11.9233333 7.91763889,11.8719444 8.01902778,11.7705556 L19.4190278,0.321944444 C19.6176389,0.123333333 19.8801389,0.0122222222 20.1606944,0.0122222222 C20.44125,0.0122222222 20.7051389,0.123333333 20.90375,0.321944444 C21.3120833,0.733055556 21.3120833,1.40111111 20.90375,1.81222222 L8.39819444,14.3733333 C8.19958333,14.5733333 7.93569444,14.6816667 7.65513889,14.6816667" id="Fill-5" fill="#40AC49"></path>
                                <path d="M7.65513889,14.6816667 C7.37458333,14.6816667 7.11069444,14.5733333 6.91208333,14.3733333 L0.659305556,8.09277778 C0.250972222,7.68166667 0.250972222,7.01361111 0.659305556,6.60111111 C0.857916667,6.4025 1.12180556,6.29277778 1.40375,6.29277778 C1.68430556,6.29277778 1.94680556,6.4025 2.14541667,6.60111111 L7.29263889,11.7705556 C7.39263889,11.8719444 7.52458333,11.9233333 7.65513889,11.9233333 C7.78569444,11.9233333 7.91763889,11.8719444 8.01902778,11.7705556 L19.4190278,0.321944444 C19.6176389,0.123333333 19.8801389,0.0122222222 20.1606944,0.0122222222 C20.44125,0.0122222222 20.7051389,0.123333333 20.90375,0.321944444 C21.3120833,0.733055556 21.3120833,1.40111111 20.90375,1.81222222 L8.39819444,14.3733333 C8.19958333,14.5733333 7.93569444,14.6816667 7.65513889,14.6816667" id="Stroke-7" stroke="#6BBD44" stroke-width="0.25"></path>
                            </g>
                        </g>
                    </g>
                </g>
            </g>
        </g>
    </g>
</svg>