<svg xmlns="http://www.w3.org/2000/svg" width="67" height="74" viewBox="0 0 67 74">
    <g fill="none" fill-rule="evenodd">
        <path fill="#FFFFFE" d="M60.709 45.742c0-14.904-12.084-26.986-26.988-26.986S6.736 30.838 6.736 45.742 18.817 72.73 33.721 72.73s26.988-12.084 26.988-26.988"/>
        <path fill="#C2E2EE" d="M33.721 21.983c-13.101 0-23.76 10.658-23.76 23.759s10.659 23.76 23.76 23.76 23.76-10.659 23.76-23.76c0-13.1-10.659-23.76-23.76-23.76zm0 49.658c-14.28 0-25.899-11.619-25.899-25.899 0-14.28 11.619-25.898 25.899-25.898 14.28 0 25.899 11.618 25.899 25.898S48.001 71.641 33.721 71.641z"/>
        <path fill="#026BB0" d="M33.721 19.825c-14.289 0-25.917 11.627-25.917 25.917 0 14.292 11.628 25.917 25.917 25.917 14.292 0 25.917-11.625 25.917-25.917 0-14.29-11.625-25.917-25.917-25.917zm0 53.973c-15.471 0-28.056-12.585-28.056-28.056 0-15.47 12.585-28.056 28.056-28.056s28.056 12.586 28.056 28.056c0 15.471-12.585 28.056-28.056 28.056z"/>
        <path fill="#026BB0" d="M33.721 19.825c-7.482 0-13.572 11.627-13.572 25.917 0 14.292 6.09 25.917 13.572 25.917 7.485 0 13.572-11.625 13.572-25.917 0-14.29-6.087-25.917-13.572-25.917zm0 53.973c-8.808 0-15.711-12.324-15.711-28.056 0-15.732 6.903-28.056 15.711-28.056 8.811 0 15.711 12.324 15.711 28.056 0 15.732-6.9 28.056-15.711 28.056z"/>
        <path fill="#C2E2EE" d="M33.721 21.983c-5.397 0-11.415 9.758-11.415 23.759 0 14.001 6.018 23.76 11.415 23.76 5.4 0 11.415-9.759 11.415-23.76 0-14.001-6.015-23.76-11.415-23.76zm0 49.658c-6.519 0-13.554-9.903-13.554-25.899 0-15.997 7.035-25.898 13.554-25.898s13.554 9.901 13.554 25.898c0 15.996-7.035 25.899-13.554 25.899z"/>
        <path fill="#026BB0" d="M33.718 35.14c-4.524 0-9.018-.609-13.002-1.761-3.279-.957-6.138-2.237-8.505-3.805a1.069 1.069 0 1 1 1.182-1.783c2.187 1.449 4.851 2.638 7.92 3.534 7.596 2.196 17.277 2.191 24.819-.01 3.066-.886 5.727-2.07 7.908-3.522a1.07 1.07 0 0 1 1.185 1.78c-2.364 1.573-5.223 2.85-8.496 3.796-3.969 1.158-8.469 1.77-13.011 1.77M54.622 63.874a1.05 1.05 0 0 1-.591-.18c-2.178-1.446-4.911-2.664-7.902-3.519-7.569-2.208-17.232-2.205-24.807-.012-3.018.873-5.754 2.094-7.917 3.531a1.068 1.068 0 0 1-1.482-.297 1.065 1.065 0 0 1 .297-1.482c2.376-1.581 5.238-2.862 8.505-3.807 7.956-2.304 18.06-2.304 25.995.012 3.243.927 6.102 2.202 8.496 3.795a1.068 1.068 0 0 1-.594 1.959"/>
        <path fill="#3B92C3" d="M33.721 73.798a1.067 1.067 0 0 1-1.068-1.068V18.755a1.07 1.07 0 0 1 2.139 0V72.73a1.07 1.07 0 0 1-1.071 1.068"/>
        <path fill="#026BB0" d="M60.709 46.813H6.736a1.07 1.07 0 1 1 0-2.139h53.973a1.07 1.07 0 1 1 0 2.139"/>
        <path fill="#C2E2EE" d="M49.045 14.075v8.606c0 .828-.489 1.58-1.215 1.969-3.849 2.018-8.712 3.209-13.965 3.209-5.403 0-10.392-1.279-14.277-3.385-.714-.388-1.191-1.14-1.191-1.968v-8.444l13.764 7.083c.252.125.528.226.801.275.378.1.765.126 1.155.076.099-.013.201-.038.3-.05.3-.063.588-.163.864-.301l13.764-7.07"/>
        <path fill="#026BB0" d="M33.865 28.928c-5.358 0-10.611-1.246-14.787-3.51-1.083-.602-1.749-1.715-1.749-2.91v-6.931a1.07 1.07 0 0 1 2.139 0v6.932c0 .419.246.815.639 1.035 3.858 2.09 8.748 3.245 13.758 3.245 4.896 0 9.678-1.096 13.464-3.087.396-.209.651-.612.651-1.023v-7.094a1.07 1.07 0 0 1 2.139 0v7.095c0 1.21-.684 2.328-1.791 2.914-4.149 2.182-9.15 3.334-14.463 3.334M57.55 20.733a1.068 1.068 0 0 1-1.068-1.07v-5.47a1.07 1.07 0 0 1 2.139 0v5.47c0 .591-.48 1.07-1.071 1.07M57.55 26.567a1.068 1.068 0 0 1-1.068-1.069v-1.59a1.07 1.07 0 0 1 2.139 0v1.59c0 .59-.48 1.07-1.071 1.07"/>
        <path fill="#C2E2EE" d="M63.337 10.883l-13.275 4.37-1.017.336-13.764 4.522a4.997 4.997 0 0 1-.864.192c-.099.008-.201.024-.3.032-.39.032-.777.016-1.155-.048a4.372 4.372 0 0 1-.801-.176l-13.764-4.53-1.002-.329-13.287-4.37 28.053-9.226a5.175 5.175 0 0 1 3.12 0l28.056 9.227"/>
        <path fill="#FFFFFE" d="M14.101 10.883l19.02 6.255c.063.02.135.039.198.046l.141.02c.171.028.204.036.456.012l.162-.018a1.79 1.79 0 0 0 .237-.057l19.032-6.257-19.038-6.262c-.333-.109-.84-.11-1.173 0l-19.035 6.26zm19.629 8.484c-.207 0-.408-.017-.603-.05l-.081-.012a3.193 3.193 0 0 1-.585-.132l-25.206-8.29L32.467 2.59a4.274 4.274 0 0 1 2.508 0l25.212 8.293-25.212 8.292a3.868 3.868 0 0 1-.639.146l-.189.021a3.85 3.85 0 0 1-.417.025z"/>
        <path fill="#026BB0" d="M7.528 10.883l24.966 8.212c.195.062.402.108.594.13.342.056.642.07.939.044l.306-.032c.18-.025.408-.076.624-.145l24.957-8.209-24.966-8.211a4.143 4.143 0 0 0-2.454 0l-24.966 8.21zM33.73 21.42c-.318 0-.636-.027-.945-.08a5.153 5.153 0 0 1-.951-.211L3.772 11.899a1.07 1.07 0 0 1 0-2.032L31.825.639a6.303 6.303 0 0 1 3.792 0L63.67 9.867a1.07 1.07 0 0 1 0 2.032l-28.053 9.228c-.345.11-.699.189-1.059.236l-.357.038a5.75 5.75 0 0 1-.471.02zM64.63 63.427h2.292v-2.292H64.63zM64.63 58.588h2.292v-2.292H64.63zM59.584 72.526h2.292v-2.292h-2.292v2.292zm0-4.695h2.292v-2.292h-2.292v2.292zm5.046 4.695h2.292v-2.292H64.63v2.292zm0-4.695h2.292v-2.292H64.63v2.292zM.52 63.427h2.292v-2.292H.52zM.52 58.588h2.292v-2.292H.52zM5.569 72.526h2.292v-2.292H5.569v2.292zm0-4.695h2.292v-2.292H5.569v2.292zM.52 72.526h2.292v-2.292H.52v2.292zm0-4.695h2.292v-2.292H.52v2.292z"/>
    </g>
</svg>
