<?xml version="1.0" encoding="utf-8"?>
<!-- Generator: Adobe Illustrator 23.0.2, SVG Export Plug-In . SVG Version: 6.00 Build 0)  -->
<svg version="1.1" id="Layer_1" xmlns="http://www.w3.org/2000/svg" xmlns:xlink="http://www.w3.org/1999/xlink" x="0px" y="0px"
	 width="686.725px" height="429px" viewBox="0 0 686.725 429" style="enable-background:new 0 0 686.725 429;" xml:space="preserve"
	>
<style type="text/css">
	.st0{fill-rule:evenodd;clip-rule:evenodd;fill:#22D7DA;}
	.st1{fill-rule:evenodd;clip-rule:evenodd;fill:#495050;stroke:url(#SVGID_1_);stroke-width:2.077;}
	.st2{fill-rule:evenodd;clip-rule:evenodd;fill:#495050;}
	.st3{fill-rule:evenodd;clip-rule:evenodd;fill:url(#SVGID_2_);}
	.st4{fill-rule:evenodd;clip-rule:evenodd;}
	.st5{fill:none;stroke:#252728;stroke-width:0.692;}
	.st6{enable-background:new    ;}
	.st7{fill-rule:evenodd;clip-rule:evenodd;fill:#FFFFFF;}
	.st8{fill-rule:evenodd;clip-rule:evenodd;fill:#ACB3B8;}
	.st9{fill-rule:evenodd;clip-rule:evenodd;fill:#D5EBF6;}
	.st10{fill-rule:evenodd;clip-rule:evenodd;fill:#FF8C72;}
	.st11{fill-rule:evenodd;clip-rule:evenodd;fill:#FFE07C;}
	.st12{fill-rule:evenodd;clip-rule:evenodd;fill:#545F75;}
	.st13{fill-rule:evenodd;clip-rule:evenodd;fill:#535F74;}
	.st14{fill-rule:evenodd;clip-rule:evenodd;fill:#BFDCE8;}
	.st15{fill-rule:evenodd;clip-rule:evenodd;fill:#E1E6EA;}
	.st16{fill-rule:evenodd;clip-rule:evenodd;fill:#FF8C71;}
	.st17{fill-rule:evenodd;clip-rule:evenodd;fill:#787C7F;}
</style>
<g>
	<g>
		<path class="st0" d="M558.725,2c0,1.1046-0.8954,2-2,2s-2-0.8954-2-2s0.8954-2,2-2S558.725,0.8954,558.725,2"/>
		<path class="st0" d="M570.725,2c0,1.1046-0.8954,2-2,2s-2-0.8954-2-2s0.8954-2,2-2S570.725,0.8954,570.725,2"/>
		<path class="st0" d="M581.725,2c0,1.1046-0.8954,2-2,2s-2-0.8954-2-2s0.8954-2,2-2S581.725,0.8954,581.725,2"/>
		<path class="st0" d="M593.725,2c0,1.1046-0.8954,2-2,2s-2-0.8954-2-2s0.8954-2,2-2S593.725,0.8954,593.725,2"/>
		<path class="st0" d="M604.725,2c0,1.1046-0.8954,2-2,2s-2-0.8954-2-2s0.8954-2,2-2S604.725,0.8954,604.725,2"/>
		<path class="st0" d="M616.725,2c0,1.1046-0.8954,2-2,2s-2-0.8954-2-2s0.8954-2,2-2S616.725,0.8954,616.725,2"/>
		<path class="st0" d="M628.725,2c0,1.1046-0.8954,2-2,2s-2-0.8954-2-2s0.8954-2,2-2S628.725,0.8954,628.725,2"/>
		<path class="st0" d="M640.725,2c0,1.1046-0.8954,2-2,2s-2-0.8954-2-2s0.8954-2,2-2S640.725,0.8954,640.725,2"/>
		<path class="st0" d="M651.725,2c0,1.1046-0.8954,2-2,2s-2-0.8954-2-2s0.8954-2,2-2S651.725,0.8954,651.725,2"/>
		<path class="st0" d="M663.725,2c0,1.1046-0.8954,2-2,2s-2-0.8954-2-2s0.8954-2,2-2S663.725,0.8954,663.725,2"/>
		<path class="st0" d="M674.725,2c0,1.1046-0.8954,2-2,2s-2-0.8954-2-2s0.8954-2,2-2S674.725,0.8954,674.725,2"/>
		<path class="st0" d="M686.725,2c0,1.1046-0.8954,2-2,2s-2-0.8954-2-2s0.8954-2,2-2S686.725,0.8954,686.725,2"/>
	</g>
	<g>
		<path class="st0" d="M558.725,13.4c0,1.1046-0.8954,2-2,2s-2-0.8954-2-2s0.8954-2,2-2S558.725,12.2954,558.725,13.4"/>
		<path class="st0" d="M570.725,13.4c0,1.1046-0.8954,2-2,2s-2-0.8954-2-2s0.8954-2,2-2S570.725,12.2954,570.725,13.4"/>
		<path class="st0" d="M581.725,13.4c0,1.1046-0.8954,2-2,2s-2-0.8954-2-2s0.8954-2,2-2S581.725,12.2954,581.725,13.4"/>
		<path class="st0" d="M593.725,13.4c0,1.1046-0.8954,2-2,2s-2-0.8954-2-2s0.8954-2,2-2S593.725,12.2954,593.725,13.4"/>
		<path class="st0" d="M604.725,13.4c0,1.1046-0.8954,2-2,2s-2-0.8954-2-2s0.8954-2,2-2S604.725,12.2954,604.725,13.4"/>
		<path class="st0" d="M616.725,13.4c0,1.1046-0.8954,2-2,2s-2-0.8954-2-2s0.8954-2,2-2S616.725,12.2954,616.725,13.4"/>
		<path class="st0" d="M628.725,13.4c0,1.1046-0.8954,2-2,2s-2-0.8954-2-2s0.8954-2,2-2S628.725,12.2954,628.725,13.4"/>
		<path class="st0" d="M640.725,13.4c0,1.1046-0.8954,2-2,2s-2-0.8954-2-2s0.8954-2,2-2S640.725,12.2954,640.725,13.4"/>
		<path class="st0" d="M651.725,13.4c0,1.1046-0.8954,2-2,2s-2-0.8954-2-2s0.8954-2,2-2S651.725,12.2954,651.725,13.4"/>
		<path class="st0" d="M663.725,13.4c0,1.1046-0.8954,2-2,2s-2-0.8954-2-2s0.8954-2,2-2S663.725,12.2954,663.725,13.4"/>
		<path class="st0" d="M674.725,13.4c0,1.1046-0.8954,2-2,2s-2-0.8954-2-2s0.8954-2,2-2S674.725,12.2954,674.725,13.4"/>
		<path class="st0" d="M686.725,13.4c0,1.1046-0.8954,2-2,2s-2-0.8954-2-2s0.8954-2,2-2S686.725,12.2954,686.725,13.4"/>
	</g>
	<g>
		<path class="st0" d="M558.725,24.8c0,1.1046-0.8954,2-2,2s-2-0.8954-2-2c0-1.1046,0.8954-2,2-2S558.725,23.6954,558.725,24.8"/>
		<path class="st0" d="M570.725,24.8c0,1.1046-0.8954,2-2,2s-2-0.8954-2-2c0-1.1046,0.8954-2,2-2S570.725,23.6954,570.725,24.8"/>
		<path class="st0" d="M581.725,24.8c0,1.1046-0.8954,2-2,2s-2-0.8954-2-2c0-1.1046,0.8954-2,2-2S581.725,23.6954,581.725,24.8"/>
		<path class="st0" d="M593.725,24.8c0,1.1046-0.8954,2-2,2s-2-0.8954-2-2c0-1.1046,0.8954-2,2-2S593.725,23.6954,593.725,24.8"/>
		<path class="st0" d="M604.725,24.8c0,1.1046-0.8954,2-2,2s-2-0.8954-2-2c0-1.1046,0.8954-2,2-2S604.725,23.6954,604.725,24.8"/>
		<path class="st0" d="M616.725,24.8c0,1.1046-0.8954,2-2,2s-2-0.8954-2-2c0-1.1046,0.8954-2,2-2S616.725,23.6954,616.725,24.8"/>
		<path class="st0" d="M628.725,24.8c0,1.1046-0.8954,2-2,2s-2-0.8954-2-2c0-1.1046,0.8954-2,2-2S628.725,23.6954,628.725,24.8"/>
		<path class="st0" d="M640.725,24.8c0,1.1046-0.8954,2-2,2s-2-0.8954-2-2c0-1.1046,0.8954-2,2-2S640.725,23.6954,640.725,24.8"/>
		<path class="st0" d="M651.725,24.8c0,1.1046-0.8954,2-2,2s-2-0.8954-2-2c0-1.1046,0.8954-2,2-2S651.725,23.6954,651.725,24.8"/>
		<path class="st0" d="M663.725,24.8c0,1.1046-0.8954,2-2,2s-2-0.8954-2-2c0-1.1046,0.8954-2,2-2S663.725,23.6954,663.725,24.8"/>
		<path class="st0" d="M674.725,24.8c0,1.1046-0.8954,2-2,2s-2-0.8954-2-2c0-1.1046,0.8954-2,2-2S674.725,23.6954,674.725,24.8"/>
		<path class="st0" d="M686.725,24.8c0,1.1046-0.8954,2-2,2s-2-0.8954-2-2c0-1.1046,0.8954-2,2-2S686.725,23.6954,686.725,24.8"/>
	</g>
	<g>
		<path class="st0" d="M558.725,36.2c0,1.1046-0.8954,2-2,2s-2-0.8954-2-2s0.8954-2,2-2S558.725,35.0954,558.725,36.2"/>
		<path class="st0" d="M570.725,36.2c0,1.1046-0.8954,2-2,2s-2-0.8954-2-2s0.8954-2,2-2S570.725,35.0954,570.725,36.2"/>
		<path class="st0" d="M581.725,36.2c0,1.1046-0.8954,2-2,2s-2-0.8954-2-2s0.8954-2,2-2S581.725,35.0954,581.725,36.2"/>
		<path class="st0" d="M593.725,36.2c0,1.1046-0.8954,2-2,2s-2-0.8954-2-2s0.8954-2,2-2S593.725,35.0954,593.725,36.2"/>
		<path class="st0" d="M604.725,36.2c0,1.1046-0.8954,2-2,2s-2-0.8954-2-2s0.8954-2,2-2S604.725,35.0954,604.725,36.2"/>
		<path class="st0" d="M616.725,36.2c0,1.1046-0.8954,2-2,2s-2-0.8954-2-2s0.8954-2,2-2S616.725,35.0954,616.725,36.2"/>
		<path class="st0" d="M628.725,36.2c0,1.1046-0.8954,2-2,2s-2-0.8954-2-2s0.8954-2,2-2S628.725,35.0954,628.725,36.2"/>
		<path class="st0" d="M640.725,36.2c0,1.1046-0.8954,2-2,2s-2-0.8954-2-2s0.8954-2,2-2S640.725,35.0954,640.725,36.2"/>
		<path class="st0" d="M651.725,36.2c0,1.1046-0.8954,2-2,2s-2-0.8954-2-2s0.8954-2,2-2S651.725,35.0954,651.725,36.2"/>
		<path class="st0" d="M663.725,36.2c0,1.1046-0.8954,2-2,2s-2-0.8954-2-2s0.8954-2,2-2S663.725,35.0954,663.725,36.2"/>
		<path class="st0" d="M674.725,36.2c0,1.1046-0.8954,2-2,2s-2-0.8954-2-2s0.8954-2,2-2S674.725,35.0954,674.725,36.2"/>
		<path class="st0" d="M686.725,36.2c0,1.1046-0.8954,2-2,2s-2-0.8954-2-2s0.8954-2,2-2S686.725,35.0954,686.725,36.2"/>
	</g>
	<g>
		<path class="st0" d="M558.725,47.6c0,1.1046-0.8954,2-2,2s-2-0.8954-2-2s0.8954-2,2-2S558.725,46.4954,558.725,47.6"/>
		<path class="st0" d="M570.725,47.6c0,1.1046-0.8954,2-2,2s-2-0.8954-2-2s0.8954-2,2-2S570.725,46.4954,570.725,47.6"/>
		<path class="st0" d="M581.725,47.6c0,1.1046-0.8954,2-2,2s-2-0.8954-2-2s0.8954-2,2-2S581.725,46.4954,581.725,47.6"/>
		<path class="st0" d="M593.725,47.6c0,1.1046-0.8954,2-2,2s-2-0.8954-2-2s0.8954-2,2-2S593.725,46.4954,593.725,47.6"/>
		<path class="st0" d="M604.725,47.6c0,1.1046-0.8954,2-2,2s-2-0.8954-2-2s0.8954-2,2-2S604.725,46.4954,604.725,47.6"/>
		<path class="st0" d="M616.725,47.6c0,1.1046-0.8954,2-2,2s-2-0.8954-2-2s0.8954-2,2-2S616.725,46.4954,616.725,47.6"/>
		<path class="st0" d="M628.725,47.6c0,1.1046-0.8954,2-2,2s-2-0.8954-2-2s0.8954-2,2-2S628.725,46.4954,628.725,47.6"/>
		<path class="st0" d="M640.725,47.6c0,1.1046-0.8954,2-2,2s-2-0.8954-2-2s0.8954-2,2-2S640.725,46.4954,640.725,47.6"/>
		<path class="st0" d="M651.725,47.6c0,1.1046-0.8954,2-2,2s-2-0.8954-2-2s0.8954-2,2-2S651.725,46.4954,651.725,47.6"/>
		<path class="st0" d="M663.725,47.6c0,1.1046-0.8954,2-2,2s-2-0.8954-2-2s0.8954-2,2-2S663.725,46.4954,663.725,47.6"/>
		<path class="st0" d="M674.725,47.6c0,1.1046-0.8954,2-2,2s-2-0.8954-2-2s0.8954-2,2-2S674.725,46.4954,674.725,47.6"/>
		<path class="st0" d="M686.725,47.6c0,1.1046-0.8954,2-2,2s-2-0.8954-2-2s0.8954-2,2-2S686.725,46.4954,686.725,47.6"/>
	</g>
	<g>
		<path class="st0" d="M558.725,59c0,1.1046-0.8954,2-2,2s-2-0.8954-2-2s0.8954-2,2-2S558.725,57.8954,558.725,59"/>
		<path class="st0" d="M570.725,59c0,1.1046-0.8954,2-2,2s-2-0.8954-2-2s0.8954-2,2-2S570.725,57.8954,570.725,59"/>
		<path class="st0" d="M581.725,59c0,1.1046-0.8954,2-2,2s-2-0.8954-2-2s0.8954-2,2-2S581.725,57.8954,581.725,59"/>
		<path class="st0" d="M593.725,59c0,1.1046-0.8954,2-2,2s-2-0.8954-2-2s0.8954-2,2-2S593.725,57.8954,593.725,59"/>
		<path class="st0" d="M604.725,59c0,1.1046-0.8954,2-2,2s-2-0.8954-2-2s0.8954-2,2-2S604.725,57.8954,604.725,59"/>
		<path class="st0" d="M616.725,59c0,1.1046-0.8954,2-2,2s-2-0.8954-2-2s0.8954-2,2-2S616.725,57.8954,616.725,59"/>
		<path class="st0" d="M628.725,59c0,1.1046-0.8954,2-2,2s-2-0.8954-2-2s0.8954-2,2-2S628.725,57.8954,628.725,59"/>
		<path class="st0" d="M640.725,59c0,1.1046-0.8954,2-2,2s-2-0.8954-2-2s0.8954-2,2-2S640.725,57.8954,640.725,59"/>
		<path class="st0" d="M651.725,59c0,1.1046-0.8954,2-2,2s-2-0.8954-2-2s0.8954-2,2-2S651.725,57.8954,651.725,59"/>
		<path class="st0" d="M663.725,59c0,1.1046-0.8954,2-2,2s-2-0.8954-2-2s0.8954-2,2-2S663.725,57.8954,663.725,59"/>
		<path class="st0" d="M674.725,59c0,1.1046-0.8954,2-2,2s-2-0.8954-2-2s0.8954-2,2-2S674.725,57.8954,674.725,59"/>
		<path class="st0" d="M686.725,59c0,1.1046-0.8954,2-2,2s-2-0.8954-2-2s0.8954-2,2-2S686.725,57.8954,686.725,59"/>
	</g>
</g>
<g transform="translate(.172 26)">
	
		<linearGradient id="SVGID_1_" gradientUnits="userSpaceOnUse" x1="-284.0835" y1="1.8136" x2="-285.0188" y2="2.0396" gradientTransform="matrix(576.855 0 0 400.887 164476.5156 -568.9509)">
		<stop  offset="0" style="stop-color:#495050"/>
		<stop  offset="1" style="stop-color:#000000"/>
	</linearGradient>
	<path class="st1" d="M77.148,1.038h532.085c12.3629,0,22.385,10.0221,22.385,22.385V379.54c0,12.3629-10.0221,22.385-22.385,22.385
		H77.148c-12.3629,0-22.385-10.0221-22.385-22.385V23.423C54.763,11.0601,64.7851,1.038,77.148,1.038z"/>
	<g transform="translate(3.232 3)">
		<g>
			<path class="st2" d="M53.725,376.75c0,11.034,9.059,19.982,20.23,19.982h532.008c11.172,0,20.23-8.947,20.23-19.983V19.983
				c0-11.035-9.058-19.752-20.23-19.752H73.955c-11.172-0.001-20.23,8.716-20.23,19.752v356.766
				C53.725,376.749,53.725,376.75,53.725,376.75z"/>
		</g>
		<g>
			
				<linearGradient id="SVGID_2_" gradientUnits="userSpaceOnUse" x1="-290.8916" y1="1.9082" x2="-291.5034" y2="2.0895" gradientTransform="matrix(572.468 0 0 396.501 166922.8906 -569.7846)">
				<stop  offset="0" style="stop-color:#495050"/>
				<stop  offset="0.6651" style="stop-color:#000000"/>
				<stop  offset="1" style="stop-color:#000000"/>
			</linearGradient>
			<path class="st3" d="M53.725,376.75c0,11.034,9.059,19.982,20.23,19.982h532.008c11.172,0,20.23-8.947,20.23-19.983V19.983
				c0-11.035-9.058-19.752-20.23-19.752H73.955c-11.172-0.001-20.23,8.716-20.23,19.752v356.766
				C53.725,376.749,53.725,376.75,53.725,376.75z"/>
		</g>
		<g>
			<path class="st4" d="M53.725,376.75c0,11.034,9.059,19.982,20.23,19.982h532.008c11.172,0,20.23-8.947,20.23-19.983V19.983
				c0-11.035-9.058-19.752-20.23-19.752H73.955c-11.172-0.001-20.23,8.716-20.23,19.752v356.766
				C53.725,376.749,53.725,376.75,53.725,376.75z"/>
		</g>
		<path class="st5" d="M53.379,376.75V19.982c0-11.184,9.17-20.097,20.576-20.097h532.007c11.406,0,20.577,8.914,20.577,20.098
			v356.766c0,11.228-9.214,20.33-20.577,20.33H73.955c-11.362,0-20.577-9.103-20.577-20.33L53.379,376.75z"/>
		<g class="st6">
			<path d="M291.8786,67.041h-1.7188V70h-2.9492v-2.959h-6.0938v-2.0996l6.2598-9.2188h2.7832v8.9746h1.7188V67.041z
				 M287.2106,64.6973v-2.4219c0-0.4033,0.0161-0.9893,0.0488-1.7578s0.0586-1.2139,0.0781-1.3379h-0.0781
				c-0.2407,0.5342-0.5308,1.0547-0.8691,1.5625l-2.6172,3.9551H287.2106z"/>
			<path d="M302.9333,61.8164c0,2.8125-0.5923,4.9121-1.7773,6.2988s-2.9785,2.0801-5.3809,2.0801
				c-0.8462,0-1.4878-0.0459-1.9238-0.1367v-2.4219c0.5469,0.1367,1.1196,0.2051,1.7188,0.2051
				c1.0093,0,1.8394-0.1484,2.4902-0.4443s1.1489-0.7617,1.4941-1.3965s0.5435-1.5088,0.5957-2.6221h-0.1172
				c-0.3774,0.6123-0.814,1.042-1.3086,1.2891s-1.1133,0.3711-1.8555,0.3711c-1.2437,0-2.2231-0.3984-2.9395-1.1963
				s-1.0742-1.9062-1.0742-3.3252c0-1.5303,0.4346-2.7393,1.3037-3.6279s2.0522-1.333,3.5498-1.333
				c1.0547,0,1.9775,0.2471,2.7686,0.7422s1.3979,1.2129,1.8213,2.1533S302.9333,60.5146,302.9333,61.8164z M297.7673,57.9785
				c-0.625,0-1.1133,0.2148-1.4648,0.6445s-0.5273,1.0479-0.5273,1.8555c0,0.6904,0.1597,1.2373,0.4785,1.6406
				s0.8042,0.6055,1.4551,0.6055c0.6118,0,1.1362-0.2002,1.5723-0.6006s0.6543-0.8613,0.6543-1.3818
				c0-0.7744-0.2036-1.4287-0.6104-1.9629S298.3986,57.9785,297.7673,57.9785z"/>
			<path d="M309.6423,60.8789c1.3804,0,2.479,0.3877,3.2959,1.1621s1.2256,1.8359,1.2256,3.1836
				c0,1.5947-0.4917,2.8223-1.4746,3.6816s-2.3892,1.2891-4.2188,1.2891c-1.5884,0-2.8711-0.2568-3.8477-0.7715v-2.6074
				c0.5142,0.2734,1.1133,0.4961,1.7969,0.6689s1.3315,0.2588,1.9434,0.2588c1.8423,0,2.7637-0.7549,2.7637-2.2656
				c0-1.4385-0.9536-2.1582-2.8613-2.1582c-0.3452,0-0.7261,0.0342-1.1426,0.1025s-0.7554,0.1416-1.0156,0.2197l-1.2012-0.6445
				l0.5371-7.2754h7.7441v2.5586h-5.0977l-0.2637,2.8027l0.3418-0.0684C308.5646,60.9248,309.0563,60.8789,309.6423,60.8789z"/>
			<path d="M325.7849,62.8613c0,2.4932-0.4087,4.3389-1.2256,5.5371s-2.0752,1.7969-3.7744,1.7969
				c-1.647,0-2.8892-0.6182-3.7256-1.8555s-1.2549-3.0635-1.2549-5.4785c0-2.5195,0.4067-4.377,1.2207-5.5713
				s2.0669-1.792,3.7598-1.792c1.647,0,2.8921,0.625,3.7354,1.875S325.7849,60.4521,325.7849,62.8613z M318.8024,62.8613
				c0,1.751,0.1514,3.0059,0.4541,3.7646s0.812,1.1377,1.5283,1.1377c0.7031,0,1.2109-0.3838,1.5234-1.1523
				s0.4688-2.0186,0.4688-3.75c0-1.751-0.1577-3.0098-0.4736-3.7744s-0.8218-1.1475-1.5186-1.1475
				c-0.7095,0-1.2173,0.3828-1.5234,1.1475S318.8024,61.1104,318.8024,62.8613z"/>
			<path d="M332.5134,60.8789c1.3804,0,2.479,0.3877,3.2959,1.1621s1.2256,1.8359,1.2256,3.1836
				c0,1.5947-0.4917,2.8223-1.4746,3.6816s-2.3892,1.2891-4.2188,1.2891c-1.5884,0-2.8711-0.2568-3.8477-0.7715v-2.6074
				c0.5142,0.2734,1.1133,0.4961,1.7969,0.6689s1.3315,0.2588,1.9434,0.2588c1.8423,0,2.7637-0.7549,2.7637-2.2656
				c0-1.4385-0.9536-2.1582-2.8613-2.1582c-0.3452,0-0.7261,0.0342-1.1426,0.1025s-0.7554,0.1416-1.0156,0.2197l-1.2012-0.6445
				l0.5371-7.2754h7.7441v2.5586h-5.0977l-0.2637,2.8027l0.3418-0.0684C331.4357,60.9248,331.9274,60.8789,332.5134,60.8789z"/>
			<path d="M348.6559,62.8613c0,2.4932-0.4087,4.3389-1.2256,5.5371s-2.0752,1.7969-3.7744,1.7969
				c-1.647,0-2.8892-0.6182-3.7256-1.8555s-1.2549-3.0635-1.2549-5.4785c0-2.5195,0.4067-4.377,1.2207-5.5713
				s2.0669-1.792,3.7598-1.792c1.647,0,2.8921,0.625,3.7354,1.875S348.6559,60.4521,348.6559,62.8613z M341.6735,62.8613
				c0,1.751,0.1514,3.0059,0.4541,3.7646s0.812,1.1377,1.5283,1.1377c0.7031,0,1.2109-0.3838,1.5234-1.1523
				s0.4688-2.0186,0.4688-3.75c0-1.751-0.1577-3.0098-0.4736-3.7744s-0.8218-1.1475-1.5186-1.1475
				c-0.7095,0-1.2173,0.3828-1.5234,1.1475S341.6735,61.1104,341.6735,62.8613z"/>
		</g>
	</g>
</g>
<g transform="translate(3.404 29.647)">
	<path id="f" class="st7" d="M53.809,19.197c0-10.83,8.792-19.608,19.623-19.608l533.1528,0.0703
		c10.837,0,19.623,8.782,19.623,19.608v354.276L53.809,373.473V19.197z"/>
</g>
<g>
	<g transform="translate(36.87 59.029)">
		<path class="st8" d="M54.495,0.397h19.76v2.895h-19.76C54.495,3.292,54.495,0.397,54.495,0.397z"/>
		<g>
			<path class="st8" d="M54.495,6.187h19.76v2.895h-19.76C54.495,9.082,54.495,6.187,54.495,6.187z M54.495,11.254h19.76v2.895
				h-19.76C54.495,14.149,54.495,11.254,54.495,11.254z"/>
		</g>
		<g>
			<path class="st9" d="M147.315,21.558H465.67V141.71H147.315V21.558z"/>
			<path class="st7" d="M147.315,341.14H465.67V141.71H147.315V341.14z"/>
			<circle class="st10" cx="399.072" cy="235.971" r="19"/>
			<circle class="st11" cx="306.152" cy="236.156" r="19"/>
			<circle class="st12" cx="212.152" cy="236.156" r="19"/>
			<path class="st13" d="M277.584,38.206h63.671v7.962h-63.671V38.206z"/>
			<path class="st8" d="M269.534,162.701h74.649v7.962h-74.649V162.701z"/>
			<path class="st7" d="M277.584,57.749h143.443v3.619H277.584V57.749z M277.584,69.33h143.443v3.619H277.584V69.33z
				 M277.584,80.911h143.443v3.619H277.584V80.911z M277.584,92.492h143.443v3.619H277.584V92.492z"/>
			<path class="st14" d="M193.422,104.073h60.012v3.619h-60.012V104.073z M193.422,115.654h52.693v3.619h-52.693V115.654z"/>
			<path class="st15" d="M282.707,277.536h47.57v3.619h-47.57V277.536z M374.921,277.536h47.57v3.619h-47.57V277.536z
				 M189.03,277.536h47.57v3.619h-47.57V277.536z M274.657,268.127h63.671v3.619h-63.671V268.127z M366.87,268.127h63.671v3.619
				H366.87V268.127z M180.98,268.127h63.671v3.619H180.98V268.127z"/>
			<path class="st16" d="M278.316,106.968h57.816v15.2h-57.816V106.968z"/>
			<path class="st8" d="M193.422,289.841h38.788v10.857h-38.788V289.841z M287.099,289.841h38.788v10.857h-38.788V289.841z
				 M379.312,289.841H418.1v10.857h-38.788V289.841z"/>
			<g>
				<path class="st15" d="M238.796,2.016h22.687v3.619h-22.687V2.016z M276.852,2.016h22.687v3.619h-22.687V2.016z M314.909,2.016
					h22.687v3.619h-22.687V2.016z M352.965,2.016h22.687v3.619h-22.687V2.016z"/>
			</g>
			<g>
				<path class="st7" d="M196.802,38.206h53.193l-26.597,26.013L196.802,38.206z M196.802,96.065h53.193l-26.597-26.013
					L196.802,96.065z M252.929,92.984V40.375L226.627,66.68L252.929,92.984z M192.962,40.375v52.61l26.302-26.305L192.962,40.375z"
					/>
			</g>
		</g>
	</g>
</g>
<circle class="st17" cx="343.3625" cy="414.8885" r="5"/>
</svg>
