<svg xmlns="http://www.w3.org/2000/svg" width="98" height="94" viewBox="0 0 98 94">
    <g fill="none" fill-rule="evenodd">
        <path fill="#026BB0" d="M30.616 19.979C2.546 2.488-3.05 35.336 1.333 52.886c5.462 21.873-8.505 31.916 4.652 38.77C19.64 98.771 35.66 73.609 68.146 77.641c42.178 5.234 37.085-43.781-7.173-44.324-11.14-.135-18.372-5.87-30.357-13.338" opacity=".102" transform="translate(0 1)"/>
        <g stroke="#026BB0">
            <g transform="translate(0 1) translate(24) translate(0 3.205)">
                <g fill="#026BB0" fill-rule="nonzero" stroke-width=".5">
                    <path d="M.833 41.45h9.894c.245 0 .445-.198.445-.444v-9.894c0-.246-.2-.444-.445-.444H.833c-.245 0-.445.198-.445.444v9.894c0 .246.2.444.445.444zm.445-9.893h9.004v9.004H1.278v-9.004zM14.95 18.719h19.785c.245 0 .444-.2.444-.445 0-.246-.199-.445-.444-.445H14.95c-.246 0-.445.2-.445.445 0 .246.2.445.445.445zM14.95 3.658h19.785c.245 0 .444-.198.444-.444s-.199-.445-.444-.445H14.95c-.246 0-.445.2-.445.445 0 .246.2.444.445.444zM14.95 23.074h15.339c.245 0 .444-.199.444-.445s-.199-.444-.444-.444H14.95c-.246 0-.445.198-.445.444s.2.445.445.445zM14.95 8.014h15.339c.245 0 .444-.2.444-.445 0-.246-.199-.445-.444-.445H14.95c-.246 0-.445.2-.445.445 0 .246.2.445.445.445zM14.95 34.326h19.785c.245 0 .444-.198.444-.444s-.199-.445-.444-.445H14.95c-.246 0-.445.2-.445.445 0 .246.2.444.445.444zM14.95 38.681h15.339c.245 0 .444-.199.444-.444 0-.246-.199-.445-.444-.445H14.95c-.246 0-.445.199-.445.445 0 .245.2.444.445.444z" transform="translate(5.558 10.004)"/>
                    <path d="M8.064 33.87l-3.437 3.436-1.13-1.13c-.174-.174-.456-.174-.63 0-.173.173-.173.454 0 .628l1.446 1.445c.086.087.2.13.314.13.114 0 .227-.043.314-.13l3.751-3.751c.174-.174.174-.455 0-.629-.173-.173-.455-.173-.628 0zM.833 25.843h9.894c.245 0 .445-.199.445-.445v-9.893c0-.246-.2-.445-.445-.445H.833c-.245 0-.445.199-.445.445v9.893c0 .246.2.445.445.445zm.445-9.894h9.004v9.005H1.278v-9.005zM.833 10.783h9.894c.245 0 .445-.199.445-.445V.445c0-.246-.2-.445-.445-.445H.833C.588 0 .388.199.388.445v9.893c0 .246.2.445.445.445zM1.278.889h9.004v9.005H1.278V.889z" transform="translate(5.558 10.004)"/>
                    <path d="M8.136 18.096c-.174-.174-.455-.174-.629 0L5.78 19.823l-1.727-1.727c-.174-.174-.455-.174-.629 0-.174.173-.174.455 0 .628l1.727 1.728-1.727 1.727c-.174.174-.174.455 0 .629.087.087.2.13.314.13.114 0 .228-.043.315-.13L5.78 21.08l1.727 1.728c.087.087.2.13.315.13.113 0 .227-.043.314-.13.174-.174.174-.455 0-.629l-1.727-1.727 1.727-1.728c.174-.173.174-.455 0-.628z" transform="translate(5.558 10.004)"/>
                </g>
                <rect width="45.794" height="59.132" x="1" y="1" stroke-width="2.001" rx="3.334"/>
            </g>
            <path stroke-width="1.71" d="M7.846 0h40.546c1.574 0 2.85 1.276 2.85 2.85v54.685h0" transform="translate(0 1) translate(24)"/>
        </g>
    </g>
</svg>
