<?xml version="1.0" encoding="utf-8"?>
<!-- Generator: Adobe Illustrator 23.0.2, SVG Export Plug-In . SVG Version: 6.00 Build 0)  -->
<svg version="1.1" id="Layer_1" xmlns="http://www.w3.org/2000/svg" xmlns:xlink="http://www.w3.org/1999/xlink" x="0px" y="0px"
	 viewBox="0 0 2348 282.472" style="enable-background:new 0 0 2348 282.472;" xml:space="preserve">
<style type="text/css">
	.st0{fill:none;stroke:#F3AECA;stroke-width:3.51;stroke-linecap:square;stroke-linejoin:round;}
	.st1{fill:none;stroke:#EAEAEA;stroke-width:3.51;stroke-linecap:round;stroke-linejoin:round;}
	.st2{fill:none;stroke:#FFC94A;stroke-width:3.51;stroke-linecap:square;stroke-linejoin:round;}
	.st3{fill:none;stroke:#FFC94A;stroke-width:2.6;stroke-linecap:round;stroke-linejoin:round;}
	.st4{fill:none;stroke:#B8D4E7;stroke-width:1.3;stroke-linecap:round;stroke-linejoin:round;stroke-dasharray:6.5,13,6.5,13;}
	.st5{fill-rule:evenodd;clip-rule:evenodd;fill:#FFC94A;}
	.st6{fill-rule:evenodd;clip-rule:evenodd;fill:#EAEAEA;}
	.st7{fill-rule:evenodd;clip-rule:evenodd;fill:#D8D8D8;}
	.st8{fill:none;stroke:#D8D8D8;stroke-width:0.25;}
	.st9{opacity:0.653;}
	.st10{fill:none;stroke:#D8D8D8;}
	.st11{opacity:0.525;}
	.st12{opacity:0.567;}
	.st13{fill:none;stroke:#D8D8D8;stroke-width:0.5;}
	.st14{fill-rule:evenodd;clip-rule:evenodd;fill:#E2E2E2;}
	.st15{fill:none;stroke:#E2E2E2;stroke-width:0.25;}
	.st16{opacity:0.395;}
	.st17{fill-rule:evenodd;clip-rule:evenodd;fill:#0073B6;}
	.st18{fill-rule:evenodd;clip-rule:evenodd;fill:#D8D8D8;stroke:#D8D8D8;stroke-width:0.25;}
	.st19{opacity:0.574;}
	.st20{opacity:0.624;}
	.st21{fill:none;stroke:#D8D8D8;stroke-width:1.176;}
</style>
<g>
	<path class="st0" d="M0,242.464c57.642,0,58.847-76.776,117.054-76.776s58.784,102.029,116.616,102.029
		s60.747-69.773,118.376-69.773c57.63,0,60.484,50.026,117.903,50.026s54.773-76.12,113.254-76.12
		c58.48,0,61.683,72.881,121.014,72.881c59.33,0,57.44-207.014,116.21-207.014c58.771,0,60.733,195.042,119.336,195.042
		s58.842-162.667,117.285-162.667c58.442,0,51.011,147.739,116.952,147.739"/>
	<path class="st1" d="M470,234.607c57.414,0,54.77-129.912,113.246-129.912c58.476,0,61.679,167.022,121.004,167.022
		c59.327,0,57.436-207,116.202-207s60.729,181.58,119.327,181.58c58.599,0,58.838-162.656,117.276-162.656
		c58.439,0,51.0089,188.076,116.9449,188.076"/>
	<path class="st2" d="M0,242.168c57.649,0,58.853-143.451,117.066-143.451c58.214,0,58.791,182,116.63,182
		c57.838,0,60.753-109.683,118.388-109.683c57.636,0,60.491,63.222,117.916,63.222"/>
	<path class="st3" d="M467.3,1.3v29.317"/>
	<path class="st4" d="M467.362,37.717V222.77"/>
	<circle class="st5" cx="466.85" cy="234.567" r="5.85"/>
	<path class="st0" d="M1174,217.831c65.941,0,58.51-147.739,116.952-147.739c58.443,0,58.682,162.667,117.2849,162.667
		c58.603,0,60.5651-195.042,119.3361-195.042c58.77,0,56.88,207.014,116.21,207.014c59.3311,0,62.5341-72.881,121.014-72.881
		c58.481,0,55.835,76.12,113.254,76.12c57.4189,0,60.2729-50.026,117.903-50.026c57.629,0,60.5441,69.773,118.3761,69.773
		s58.4089-102.029,116.616-102.029s59.4121,76.776,117.054,76.776"/>
	<path class="st1" d="M1174,271.717c65.936,0,58.506-188.076,116.9449-188.076c58.438,0,58.677,162.656,117.276,162.656
		c58.598,0,60.5609-181.58,119.327-181.58c58.766,0,56.875,207,116.202,207c59.325,0,62.528-167.022,121.004-167.022
		c58.476,0,55.8319,129.912,113.246,129.912"/>
	<path class="st2" d="M1995.916,171.034c57.635,0,60.55,109.683,118.3882,109.683c57.8389,0,58.416-182,116.6299-182
		c58.2131,0,59.417,143.451,117.0659,143.451"/>
	<circle class="st5" cx="1998.4324" cy="171.8642" r="5.85"/>
	<circle class="st6" cx="1878" cy="234.296" r="5.85"/>
</g>
<g transform="translate(7 26)">
	<path class="st7" d="M75.027-10.1305c-0.1055-0.0011-0.1919,0.0835-0.193,0.189c0,0.0003,0,0.0007,0,0.001v2.236h-1.916
		c-0.1049-0.0017-0.1913,0.0821-0.193,0.187c0,0.0007,0,0.0014,0,0.002v2.236h-1.916c-0.1055-0.0006-0.1914,0.0845-0.192,0.19l0,0
		v14.4c0,0.105,0.086,0.19,0.192,0.19h11.246c0.1055,0.0006,0.1914-0.0845,0.192-0.19l0,0v-2.234h1.916
		c0.1055,0.0011,0.1919-0.0835,0.193-0.189c0-0.0003,0-0.0007,0-0.001v-2.236h1.916c0.1053,0,0.1909-0.0847,0.192-0.19v-14.4
		c0-0.1049-0.0851-0.19-0.19-0.19c-0.0007,0-0.0013,0-0.002,0H75.027V-10.1305z M81.861,9.1205H71.002v-14.02h8.049v2.581
		c0,0.105,0.086,0.19,0.192,0.19h2.62v11.25L81.861,9.1205z M79.436-2.5085v-2.123l2.154,2.123
		C81.59-2.5085,79.436-2.5085,79.436-2.5085z M83.971,6.6955h-1.724v-9.014c-0.005-0.029-0.008-0.045-0.013-0.062
		c-0.0096-0.0276-0.0249-0.0528-0.045-0.074l-2.81-2.77c-0.0084-0.0074-0.0175-0.0141-0.027-0.02h-0.017l-0.028-0.022
		c-0.0163-0.0045-0.0331-0.0071-0.05-0.008l-0.049-0.01l-6.097,0.005v-2.046h10.86C83.971-7.3255,83.971,6.6955,83.971,6.6955z
		 M86.079,4.2705h-1.723v-11.785c0-0.1049-0.085-0.19-0.19-0.19c-0.001,0-0.002,0-0.003,0h-8.944v-2.045h10.86v14.021V4.2705z"/>
	<path class="st8" d="M75.027-10.1305c-0.1055-0.0011-0.1919,0.0835-0.193,0.189c0,0.0003,0,0.0007,0,0.001v2.236h-1.916
		c-0.1049-0.0017-0.1913,0.0821-0.193,0.187c0,0.0007,0,0.0014,0,0.002v2.236h-1.916c-0.1055-0.0006-0.1914,0.0845-0.192,0.19l0,0
		v14.4c0,0.105,0.086,0.19,0.192,0.19h11.246c0.1055,0.0006,0.1914-0.0845,0.192-0.19l0,0v-2.234h1.916
		c0.1055,0.0011,0.1919-0.0835,0.193-0.189c0-0.0003,0-0.0007,0-0.001v-2.236h1.916c0.1053,0,0.1909-0.0847,0.192-0.19v-14.4
		c0-0.1049-0.0851-0.19-0.19-0.19c-0.0007,0-0.0013,0-0.002,0H75.027V-10.1305z M81.861,9.1205H71.002v-14.02h8.049v2.581
		c0,0.105,0.086,0.19,0.192,0.19h2.62v11.25L81.861,9.1205z M79.436-2.5085v-2.123l2.154,2.123
		C81.59-2.5085,79.436-2.5085,79.436-2.5085z M83.971,6.6955h-1.724v-9.014c-0.005-0.029-0.008-0.045-0.013-0.062
		c-0.0096-0.0276-0.0249-0.0528-0.045-0.074l-2.81-2.77c-0.0084-0.0074-0.0175-0.0141-0.027-0.02h-0.017l-0.028-0.022
		c-0.0163-0.0045-0.0331-0.0071-0.05-0.008l-0.049-0.01l-6.097,0.005v-2.046h10.86C83.971-7.3255,83.971,6.6955,83.971,6.6955z
		 M86.079,4.2705h-1.723v-11.785c0-0.1049-0.085-0.19-0.19-0.19c-0.001,0-0.002,0-0.003,0h-8.944v-2.045h10.86v14.021V4.2705z"/>
	<path class="st7" d="M73.269,4.9965h6.87v-0.38h-6.676v-5.196h-0.387v5.387c0,0.104,0.087,0.19,0.193,0.19"/>
	<path class="st8" d="M73.269,4.9965h6.87v-0.38h-6.676v-5.196h-0.387v5.387c0,0.104,0.087,0.19,0.193,0.19"/>
	<path class="st7" d="M77.407,2.1915h-1.678c-0.05,0-0.1,0.02-0.136,0.056L74.3,3.5225l0.272,0.27l1.237-1.22h1.677
		c0.052,0,0.1-0.02,0.137-0.056l1.996-1.968l-0.273-0.27l-1.94,1.913H77.407z"/>
	<path class="st8" d="M77.407,2.1915h-1.678c-0.05,0-0.1,0.02-0.136,0.056L74.3,3.5225l0.272,0.27l1.237-1.22h1.677
		c0.052,0,0.1-0.02,0.137-0.056l1.996-1.968l-0.273-0.27l-1.94,1.913H77.407z"/>
	<path class="st7" d="M73.077-2.8215h0.384v-0.38h-0.385L73.077-2.8215z"/>
	<path class="st8" d="M73.077-2.8215h0.384v-0.38h-0.385L73.077-2.8215z"/>
	<path class="st7" d="M74.482-2.8215h2.495v-0.38h-2.496L74.482-2.8215z"/>
	<path class="st8" d="M74.482-2.8215h2.495v-0.38h-2.496L74.482-2.8215z"/>
	<path class="st7" d="M73.077-1.4355h3.9v-0.38h-3.9V-1.4355z"/>
	<path class="st8" d="M73.077-1.4355h3.9v-0.38h-3.9V-1.4355z"/>
	<path class="st7" d="M73.78,7.0755h1.088v-0.38h-1.087L73.78,7.0755z"/>
	<path class="st8" d="M73.78,7.0755h1.088v-0.38h-1.087L73.78,7.0755z"/>
	<path class="st7" d="M75.888,7.0755h3.197v-0.38h-3.197V7.0755z"/>
	<path class="st8" d="M75.888,7.0755h3.197v-0.38h-3.197V7.0755z"/>
</g>
<g class="st9">
	<g>
		<path class="st10" d="M384.489,105.957c-0.3773-0.5758-0.5779-1.2495-0.577-1.938c1.51-1.518,2.112-4.162,2.112-6.756
			c0-2.963-1.584-5.9-5.28-5.9c-3.695,0-5.278,2.937-5.278,5.9c0,2.593,0.601,5.237,2.111,6.756c0,1.428-0.853,2.71-2.156,3.243
			l-3.841,1.57c-1.8,0.734-2.978,2.508-2.978,4.478v3.262 M383.912,104.019c0,1.428,0.854,2.71,2.157,3.243l3.84,1.57
			c1.8,0.734,2.979,2.508,2.979,4.478v3.262"/>
		<path class="st10" d="M383.905,115.554l-3.16,3.222l-1.49-1.524L383.905,115.554z M386.011,111.797v7.04
			c0,0.979-0.436,1.904-1.185,2.516l-4.081,3.327l-4.081-3.327c-0.753-0.6181-1.1884-1.5418-1.186-2.516v-7.04l5.267-1.073
			L386.011,111.797z"/>
	</g>
</g>
<g class="st11">
	<g>
		<path class="st10" d="M2307.1917,107.735c-0.3772-0.5758-0.5779-1.2495-0.5769-1.938c1.51-1.518,2.1121-4.162,2.1121-6.756
			c0-2.963-1.584-5.9-5.28-5.9c-3.6951,0-5.2781,2.937-5.2781,5.9c0,2.593,0.6011,5.237,2.1111,6.756
			c0,1.428-0.853,2.71-2.156,3.243l-3.8411,1.57c-1.8,0.734-2.978,2.508-2.978,4.478v3.262 M2306.6147,105.797
			c0,1.428,0.854,2.71,2.157,3.243l3.8401,1.57c1.8,0.734,2.979,2.508,2.979,4.478v3.262"/>
		<path class="st10" d="M2306.6077,117.332l-3.1599,3.222l-1.49-1.524L2306.6077,117.332z M2308.7136,113.575v7.04
			c0,0.979-0.436,1.904-1.1851,2.516l-4.0811,3.327l-4.0811-3.327c-0.7529-0.6181-1.1882-1.5418-1.186-2.516v-7.04l5.2671-1.073
			l5.2659,1.073H2308.7136z"/>
	</g>
</g>
<g class="st11">
	<g>
		<path class="st10" d="M1206.7947,156.903c-0.3773-0.5758-0.578-1.2495-0.577-1.938c1.51-1.518,2.1121-4.162,2.1121-6.756
			c0-2.963-1.584-5.9-5.28-5.9c-3.6949,0-5.278,2.937-5.278,5.9c0,2.593,0.601,5.237,2.111,6.756c0,1.428-0.853,2.71-2.156,3.243
			l-3.8409,1.57c-1.8,0.734-2.978,2.508-2.978,4.478v3.262 M1206.2178,154.965c0,1.428,0.854,2.71,2.157,3.243l3.84,1.57
			c1.8,0.734,2.979,2.508,2.979,4.478v3.262"/>
		<path class="st10" d="M1206.2107,166.5l-3.16,3.222l-1.49-1.524L1206.2107,166.5z M1208.3167,162.743v7.04
			c0,0.979-0.436,1.904-1.1851,2.516l-4.0811,3.327l-4.0811-3.327c-0.7529-0.6181-1.1884-1.5418-1.186-2.516v-7.04l5.267-1.073
			l5.266,1.073H1208.3167z"/>
	</g>
</g>
<g class="st11">
	<g>
		<path class="st10" d="M613.3944,213.5614c-0.3774-0.5758-0.5779-1.2495-0.577-1.938c1.51-1.518,2.112-4.162,2.112-6.756
			c0-2.963-1.584-5.9-5.28-5.9c-3.695,0-5.278,2.937-5.278,5.9c0,2.593,0.601,5.237,2.111,6.756c0,1.428-0.853,2.71-2.156,3.243
			l-3.841,1.57c-1.8,0.734-2.978,2.508-2.978,4.478v3.262 M612.8173,211.6234c0,1.428,0.854,2.71,2.157,3.243l3.84,1.57
			c1.8,0.734,2.979,2.508,2.979,4.478v3.262"/>
		<path class="st10" d="M612.8104,223.1584l-3.16,3.222l-1.49-1.524L612.8104,223.1584z M614.9163,219.4014v7.04
			c0,0.979-0.436,1.904-1.185,2.516l-4.081,3.327l-4.081-3.327c-0.7529-0.6181-1.1884-1.5418-1.186-2.516v-7.04l5.267-1.073
			L614.9163,219.4014z"/>
	</g>
</g>
<g class="st12">
	<path class="st7" d="M1560.1283,252.184h-4.1071c-0.098,0.155-0.207,0.321-0.326,0.497h4.433c0.41,0,0.744,0.334,0.744,0.745v9.56
		h-18.338v-9.56c0-0.41,0.333-0.745,0.743-0.745h10.661l0.54-0.496h-11.201c-0.683,0-1.239,0.556-1.239,1.24v10.14
		c0,0.684,0.556,1.24,1.239,1.24h5.204v1.607h-0.812c-0.1372,0-0.2485,0.1113-0.2485,0.2485s0.1113,0.2485,0.2485,0.2485h7.903
		c0.1372,0,0.2485-0.1113,0.2485-0.2485s-0.1113-0.2485-0.2485-0.2485h-0.813v-1.607h5.37c0.683,0,1.239-0.556,1.239-1.24v-10.14
		c0-0.684-0.556-1.24-1.24-1.24L1560.1283,252.184z M1548.9773,266.412h5.286v-1.607h-5.286V266.412z M1560.8723,263.564
		c0.0006,0.4109-0.3322,0.7444-0.743,0.745c-0.0002,0-0.0006,0-0.001,0h-16.851c-0.4109-0.0005-0.7435-0.334-0.743-0.745l0,0v-0.083
		h18.338V263.564z"/>
	<path class="st13" d="M1560.1283,252.184h-4.1071c-0.098,0.155-0.207,0.321-0.326,0.497h4.433c0.41,0,0.744,0.334,0.744,0.745v9.56
		h-18.338v-9.56c0-0.41,0.333-0.745,0.743-0.745h10.661l0.54-0.496h-11.201c-0.683,0-1.239,0.556-1.239,1.24v10.14
		c0,0.684,0.556,1.24,1.239,1.24h5.204v1.607h-0.812c-0.1372,0-0.2485,0.1113-0.2485,0.2485s0.1113,0.2485,0.2485,0.2485h7.903
		c0.1372,0,0.2485-0.1113,0.2485-0.2485s-0.1113-0.2485-0.2485-0.2485h-0.813v-1.607h5.37c0.683,0,1.239-0.556,1.239-1.24v-10.14
		c0-0.684-0.556-1.24-1.24-1.24L1560.1283,252.184z M1548.9773,266.412h5.286v-1.607h-5.286V266.412z M1560.8723,263.564
		c0.0006,0.4109-0.3322,0.7444-0.743,0.745c-0.0002,0-0.0006,0-0.001,0h-16.851c-0.4109-0.0005-0.7435-0.334-0.743-0.745l0,0v-0.083
		h18.338V263.564z"/>
	<path class="st7" d="M1558.1493,261.259v-6.851h-2.28c-0.0764-0.0002-0.1484,0.0354-0.1949,0.096l-0.004,0.005
		c-0.0823,0.1081-0.0614,0.2625,0.0468,0.3447c0.0426,0.0324,0.0946,0.0501,0.1482,0.0503h1.788v5.859h-7.1331
		c-0.0648,0.0003-0.127,0.0262-0.173,0.072l-0.005,0.005c-0.0961,0.0952-0.0968,0.2504-0.0016,0.3465
		c0.0459,0.0463,0.1084,0.0724,0.1736,0.0725h7.635H1558.1493z"/>
	<path class="st13" d="M1558.1493,261.259v-6.851h-2.28c-0.0764-0.0002-0.1484,0.0354-0.1949,0.096l-0.004,0.005
		c-0.0823,0.1081-0.0614,0.2625,0.0468,0.3447c0.0426,0.0324,0.0946,0.0501,0.1482,0.0503h1.788v5.859h-7.1331
		c-0.0648,0.0003-0.127,0.0262-0.173,0.072l-0.005,0.005c-0.0961,0.0952-0.0968,0.2504-0.0016,0.3465
		c0.0459,0.0463,0.1084,0.0724,0.1736,0.0725h7.635H1558.1493z"/>
	<path class="st7" d="M1549.8402,254.407h-4.562v6.604c-0.0087,0.1367,0.095,0.2545,0.2317,0.2633s0.2546-0.095,0.2633-0.2317
		c0.0006-0.0105,0.0006-0.0211,0-0.0316v-6.107h4.063c0.0665,0.0005,0.1302-0.0267,0.176-0.075
		c0.0972-0.0949,0.099-0.2507,0.0042-0.3479C1549.97,254.4337,1549.9065,254.4069,1549.8402,254.407"/>
	<path class="st13" d="M1549.8402,254.407h-4.562v6.604c-0.0087,0.1367,0.095,0.2545,0.2317,0.2633s0.2546-0.095,0.2633-0.2317
		c0.0006-0.0105,0.0006-0.0211,0-0.0316v-6.107h4.063c0.0665,0.0005,0.1302-0.0267,0.176-0.075
		c0.0972-0.0949,0.099-0.2507,0.0042-0.3479C1549.97,254.4337,1549.9065,254.4069,1549.8402,254.407"/>
	<path class="st7" d="M1548.9812,257.703l-0.014,0.059l-0.0601,0.003c-0.324,0.022-0.6429,0.15-0.876,0.352
		c-0.473,0.41-0.54,0.878-0.603,1.33c-0.062,0.436-0.126,0.885-0.53,1.413c-0.0608,0.0789-0.0684,0.1865-0.019,0.273
		c0.0497,0.0854,0.1448,0.1339,0.243,0.124c1.968-0.216,3.151-1.044,3.1639-2.216v-0.058l0.056-0.019
		c0.881-0.301,1.08-0.54,1.353-0.87l0.101-0.119c1.5699-1.853,5.26-6.312,5.576-7.695c0.0304-0.1335-0.0533-0.2664-0.1869-0.2968
		c-0.0435-0.0099-0.0887-0.0078-0.1311,0.0058c-1.01,0.329-3.843,2.758-7.22,6.19l-0.058-0.059l0.059,0.059l-0.116,0.116
		c-0.3,0.3-0.5179,0.515-0.738,1.408L1548.9812,257.703z M1547.7562,260.653l-0.158,0.033l0.064-0.148
		c0.165-0.378,0.214-0.719,0.256-1.02c0.0601-0.429,0.105-0.738,0.437-1.025c0.182-0.1521,0.4119-0.2353,0.649-0.235l0.045,0.003
		l0.03,0.02l0.708,0.65l0.002,0.034c0.04,1.023-1.084,1.483-2.033,1.687L1547.7562,260.653z M1550.4292,256.283
		c2.415-2.44,4.569-4.379,5.907-5.32l0.317-0.222l-0.198,0.332c-0.465,0.78-1.708,2.637-4.8149,6.319l-0.0551,0.065l-1.2159-1.114
		l0.0601-0.06L1550.4292,256.283L1550.4292,256.283z M1549.9512,256.77l0.0699-0.072l1.2419,1.137l-0.052,0.061l-0.062-0.054
		l0.057,0.061c-0.1479,0.172-0.3,0.352-1.078,0.61l-0.046,0.015l-0.647-0.593l0.011-0.047c0.187-0.793,0.3409-0.951,0.505-1.118
		L1549.9512,256.77z"/>
	<path class="st13" d="M1548.9812,257.703l-0.014,0.059l-0.0601,0.003c-0.324,0.022-0.6429,0.15-0.876,0.352
		c-0.473,0.41-0.54,0.878-0.603,1.33c-0.062,0.436-0.126,0.885-0.53,1.413c-0.0608,0.0789-0.0684,0.1865-0.019,0.273
		c0.0497,0.0854,0.1448,0.1339,0.243,0.124c1.968-0.216,3.151-1.044,3.1639-2.216v-0.058l0.056-0.019
		c0.881-0.301,1.08-0.54,1.353-0.87l0.101-0.119c1.5699-1.853,5.26-6.312,5.576-7.695c0.0304-0.1335-0.0533-0.2664-0.1869-0.2968
		c-0.0435-0.0099-0.0887-0.0078-0.1311,0.0058c-1.01,0.329-3.843,2.758-7.22,6.19l-0.058-0.059l0.059,0.059l-0.116,0.116
		c-0.3,0.3-0.5179,0.515-0.738,1.408L1548.9812,257.703z M1547.7562,260.653l-0.158,0.033l0.064-0.148
		c0.165-0.378,0.214-0.719,0.256-1.02c0.0601-0.429,0.105-0.738,0.437-1.025c0.182-0.1521,0.4119-0.2353,0.649-0.235l0.045,0.003
		l0.03,0.02l0.708,0.65l0.002,0.034c0.04,1.023-1.084,1.483-2.033,1.687L1547.7562,260.653z M1550.4292,256.283
		c2.415-2.44,4.569-4.379,5.907-5.32l0.317-0.222l-0.198,0.332c-0.465,0.78-1.708,2.637-4.8149,6.319l-0.0551,0.065l-1.2159-1.114
		l0.0601-0.06L1550.4292,256.283L1550.4292,256.283z M1549.9512,256.77l0.0699-0.072l1.2419,1.137l-0.052,0.061l-0.062-0.054
		l0.057,0.061c-0.1479,0.172-0.3,0.352-1.078,0.61l-0.046,0.015l-0.647-0.593l0.011-0.047c0.187-0.793,0.3409-0.951,0.505-1.118
		L1549.9512,256.77z"/>
</g>
<g class="st12">
	<path class="st7" d="M908.4821,244.893h-4.1071c-0.098,0.155-0.2069,0.321-0.3259,0.497h4.433c0.4099,0,0.744,0.334,0.744,0.745
		v9.56h-18.338v-9.56c0-0.41,0.333-0.745,0.7429-0.745h10.661l0.54-0.496h-11.201c-0.683,0-1.239,0.556-1.239,1.24v10.14
		c0,0.684,0.556,1.24,1.239,1.24h5.204v1.607h-0.812c-0.1372,0-0.2485,0.1113-0.2485,0.2485s0.1113,0.2485,0.2485,0.2485h7.9031
		c0.1372,0,0.2484-0.1113,0.2484-0.2485s-0.1112-0.2485-0.2484-0.2485h-0.813v-1.607h5.37c0.683,0,1.239-0.556,1.239-1.24v-10.14
		c0-0.684-0.556-1.24-1.24-1.24L908.4821,244.893L908.4821,244.893z M897.3311,259.121h5.286v-1.607h-5.286V259.121z
		 M909.2261,256.273c0.0005,0.4109-0.3322,0.7444-0.743,0.745c-0.0004,0-0.0006,0-0.001,0H891.631
		c-0.4109-0.0005-0.7435-0.3341-0.7429-0.745v-0.083h18.338V256.273z"/>
	<path class="st13" d="M908.4821,244.893h-4.1071c-0.098,0.155-0.2069,0.321-0.3259,0.497h4.433c0.4099,0,0.744,0.334,0.744,0.745
		v9.56h-18.338v-9.56c0-0.41,0.333-0.745,0.7429-0.745h10.661l0.54-0.496h-11.201c-0.683,0-1.239,0.556-1.239,1.24v10.14
		c0,0.684,0.556,1.24,1.239,1.24h5.204v1.607h-0.812c-0.1372,0-0.2485,0.1113-0.2485,0.2485s0.1113,0.2485,0.2485,0.2485h7.9031
		c0.1372,0,0.2484-0.1113,0.2484-0.2485s-0.1112-0.2485-0.2484-0.2485h-0.813v-1.607h5.37c0.683,0,1.239-0.556,1.239-1.24v-10.14
		c0-0.684-0.556-1.24-1.24-1.24L908.4821,244.893L908.4821,244.893z M897.3311,259.121h5.286v-1.607h-5.286V259.121z
		 M909.2261,256.273c0.0005,0.4109-0.3322,0.7444-0.743,0.745c-0.0004,0-0.0006,0-0.001,0H891.631
		c-0.4109-0.0005-0.7435-0.3341-0.7429-0.745v-0.083h18.338V256.273z"/>
	<path class="st7" d="M906.5031,253.968v-6.851h-2.28c-0.0764-0.0002-0.1486,0.0353-0.1951,0.096l-0.004,0.005
		c-0.0823,0.1081-0.0613,0.2625,0.0468,0.3447c0.0427,0.0325,0.0947,0.0501,0.1483,0.0503h1.788v5.859h-7.1329
		c-0.0649,0.0003-0.1271,0.0262-0.173,0.072l-0.005,0.005c-0.0962,0.0952-0.0968,0.2504-0.0016,0.3465
		c0.0459,0.0463,0.1084,0.0724,0.1736,0.0725L906.5031,253.968L906.5031,253.968z"/>
	<path class="st13" d="M906.5031,253.968v-6.851h-2.28c-0.0764-0.0002-0.1486,0.0353-0.1951,0.096l-0.004,0.005
		c-0.0823,0.1081-0.0613,0.2625,0.0468,0.3447c0.0427,0.0325,0.0947,0.0501,0.1483,0.0503h1.788v5.859h-7.1329
		c-0.0649,0.0003-0.1271,0.0262-0.173,0.072l-0.005,0.005c-0.0962,0.0952-0.0968,0.2504-0.0016,0.3465
		c0.0459,0.0463,0.1084,0.0724,0.1736,0.0725L906.5031,253.968L906.5031,253.968z"/>
	<path class="st7" d="M898.1941,247.116h-4.562v6.604c-0.0088,0.1367,0.095,0.2545,0.2317,0.2633s0.2545-0.095,0.2633-0.2317
		c0.0006-0.0105,0.0006-0.0211,0-0.0316v-6.107h4.063c0.0665,0.0005,0.1302-0.0267,0.176-0.075
		c0.0972-0.0949,0.099-0.2507,0.0042-0.3479C898.3239,247.1427,898.2604,247.116,898.1941,247.116"/>
	<path class="st13" d="M898.1941,247.116h-4.562v6.604c-0.0088,0.1367,0.095,0.2545,0.2317,0.2633s0.2545-0.095,0.2633-0.2317
		c0.0006-0.0105,0.0006-0.0211,0-0.0316v-6.107h4.063c0.0665,0.0005,0.1302-0.0267,0.176-0.075
		c0.0972-0.0949,0.099-0.2507,0.0042-0.3479C898.3239,247.1427,898.2604,247.116,898.1941,247.116"/>
	<path class="st7" d="M897.3351,250.412l-0.014,0.059l-0.0599,0.003c-0.324,0.022-0.6431,0.15-0.876,0.352
		c-0.473,0.41-0.54,0.878-0.603,1.33c-0.062,0.436-0.126,0.885-0.53,1.413c-0.0608,0.0789-0.0682,0.1865-0.019,0.273
		c0.0497,0.0854,0.1448,0.1339,0.243,0.124c1.968-0.216,3.151-1.044,3.1639-2.216v-0.058l0.056-0.019
		c0.881-0.301,1.0801-0.54,1.353-0.87l0.1011-0.119c1.5699-1.853,5.26-6.312,5.5759-7.695
		c0.0304-0.1335-0.0532-0.2664-0.1869-0.2968c-0.0433-0.0099-0.0886-0.0078-0.1311,0.0058c-1.01,0.329-3.843,2.758-7.22,6.19
		l-0.058-0.059l0.0591,0.059l-0.1161,0.116c-0.2999,0.3-0.5179,0.515-0.7379,1.408H897.3351z M896.1101,253.362l-0.1581,0.033
		l0.0641-0.148c0.1649-0.378,0.214-0.719,0.256-1.02c0.0599-0.429,0.105-0.738,0.437-1.025c0.182-0.1521,0.4117-0.2353,0.6489-0.235
		l0.045,0.003l0.03,0.02l0.708,0.65l0.002,0.034c0.04,1.023-1.084,1.483-2.033,1.687L896.1101,253.362L896.1101,253.362z
		 M898.7831,248.9921c2.4149-2.44,4.569-4.379,5.907-5.32l0.317-0.222l-0.198,0.332c-0.4651,0.78-1.708,2.637-4.8151,6.319
		l-0.0549,0.065l-1.2161-1.114L898.7831,248.9921z M898.3051,249.479l0.0699-0.072l1.2421,1.137l-0.052,0.061l-0.062-0.054
		l0.057,0.061c-0.1481,0.172-0.3,0.352-1.078,0.61l-0.046,0.015l-0.647-0.593l0.011-0.047
		C897.9871,249.8041,898.141,249.6461,898.3051,249.479L898.3051,249.479z"/>
	<path class="st13" d="M897.3351,250.412l-0.014,0.059l-0.0599,0.003c-0.324,0.022-0.6431,0.15-0.876,0.352
		c-0.473,0.41-0.54,0.878-0.603,1.33c-0.062,0.436-0.126,0.885-0.53,1.413c-0.0608,0.0789-0.0682,0.1865-0.019,0.273
		c0.0497,0.0854,0.1448,0.1339,0.243,0.124c1.968-0.216,3.151-1.044,3.1639-2.216v-0.058l0.056-0.019
		c0.881-0.301,1.0801-0.54,1.353-0.87l0.1011-0.119c1.5699-1.853,5.26-6.312,5.5759-7.695
		c0.0304-0.1335-0.0532-0.2664-0.1869-0.2968c-0.0433-0.0099-0.0886-0.0078-0.1311,0.0058c-1.01,0.329-3.843,2.758-7.22,6.19
		l-0.058-0.059l0.0591,0.059l-0.1161,0.116c-0.2999,0.3-0.5179,0.515-0.7379,1.408H897.3351z M896.1101,253.362l-0.1581,0.033
		l0.0641-0.148c0.1649-0.378,0.214-0.719,0.256-1.02c0.0599-0.429,0.105-0.738,0.437-1.025c0.182-0.1521,0.4117-0.2353,0.6489-0.235
		l0.045,0.003l0.03,0.02l0.708,0.65l0.002,0.034c0.04,1.023-1.084,1.483-2.033,1.687L896.1101,253.362L896.1101,253.362z
		 M898.7831,248.9921c2.4149-2.44,4.569-4.379,5.907-5.32l0.317-0.222l-0.198,0.332c-0.4651,0.78-1.708,2.637-4.8151,6.319
		l-0.0549,0.065l-1.2161-1.114L898.7831,248.9921z M898.3051,249.479l0.0699-0.072l1.2421,1.137l-0.052,0.061l-0.062-0.054
		l0.057,0.061c-0.1481,0.172-0.3,0.352-1.078,0.61l-0.046,0.015l-0.647-0.593l0.011-0.047
		C897.9871,249.8041,898.141,249.6461,898.3051,249.479L898.3051,249.479z"/>
</g>
<g>
	<path class="st14" d="M2004.2814,150.0702c-6.213,0-11.2679-5.194-11.2679-11.58c0-6.383,5.0551-11.578,11.2679-11.578
		c1.978,0,3.923,0.534,5.625,1.544c0.23,0.137,0.3101,0.44,0.177,0.678c-0.0853,0.152-0.2457,0.2467-0.42,0.248
		c-0.0845,0.0001-0.1674-0.0227-0.24-0.066c-1.5564-0.9232-3.3324-1.4105-5.142-1.411c-5.6801,0-10.302,4.75-10.302,10.586
		c0,5.837,4.621,10.586,10.302,10.586c5.682,0,10.303-4.749,10.303-10.586c0-0.473-0.03-0.95-0.0909-1.414
		c-0.1758-1.3602-0.611-2.6739-1.282-3.87c-0.1322-0.2372-0.0536-0.5363,0.178-0.678c0.0726-0.0431,0.1555-0.0659,0.24-0.066
		c0.172,0,0.333,0.095,0.42,0.248c0.7334,1.3089,1.2094,2.7461,1.402,4.234c0.066,0.508,0.1,1.028,0.1,1.546
		C2015.5514,144.8762,2010.4954,150.0702,2004.2814,150.0702"/>
	<path class="st15" d="M2004.2814,150.0702c-6.213,0-11.2679-5.194-11.2679-11.58c0-6.383,5.0551-11.578,11.2679-11.578
		c1.978,0,3.923,0.534,5.625,1.544c0.23,0.137,0.3101,0.44,0.177,0.678c-0.0853,0.152-0.2457,0.2467-0.42,0.248
		c-0.0845,0.0001-0.1674-0.0227-0.24-0.066c-1.5564-0.9232-3.3324-1.4105-5.142-1.411c-5.6801,0-10.302,4.75-10.302,10.586
		c0,5.837,4.621,10.586,10.302,10.586c5.682,0,10.303-4.749,10.303-10.586c0-0.473-0.03-0.95-0.0909-1.414
		c-0.1758-1.3602-0.611-2.6739-1.282-3.87c-0.1322-0.2372-0.0536-0.5363,0.178-0.678c0.0726-0.0431,0.1555-0.0659,0.24-0.066
		c0.172,0,0.333,0.095,0.42,0.248c0.7334,1.3089,1.2094,2.7461,1.402,4.234c0.066,0.508,0.1,1.028,0.1,1.546
		C2015.5514,144.8762,2010.4954,150.0702,2004.2814,150.0702"/>
	<path class="st14" d="M2002.8434,142.6812c-0.129,0.0005-0.2527-0.0519-0.342-0.145l-2.876-2.955
		c-0.1877-0.1964-0.1877-0.5056,0-0.702c0.182-0.1889,0.4828-0.1944,0.6716-0.0123c0.0042,0.004,0.0083,0.0081,0.0123,0.0123
		l2.368,2.432c0.089,0.0922,0.2358,0.0949,0.328,0.0059c0.0021-0.0019,0.004-0.0039,0.006-0.0059l5.244-5.387
		c0.1815-0.1886,0.4816-0.1943,0.6702-0.0128c0.0044,0.0042,0.0087,0.0084,0.0128,0.0128c0.1875,0.196,0.1875,0.505,0,0.701
		l-5.7531,5.911c-0.0894,0.0931-0.213,0.1455-0.342,0.145"/>
	<path class="st15" d="M2002.8434,142.6812c-0.129,0.0005-0.2527-0.0519-0.342-0.145l-2.876-2.955
		c-0.1877-0.1964-0.1877-0.5056,0-0.702c0.182-0.1889,0.4828-0.1944,0.6716-0.0123c0.0042,0.004,0.0083,0.0081,0.0123,0.0123
		l2.368,2.432c0.089,0.0922,0.2358,0.0949,0.328,0.0059c0.0021-0.0019,0.004-0.0039,0.006-0.0059l5.244-5.387
		c0.1815-0.1886,0.4816-0.1943,0.6702-0.0128c0.0044,0.0042,0.0087,0.0084,0.0128,0.0128c0.1875,0.196,0.1875,0.505,0,0.701
		l-5.7531,5.911c-0.0894,0.0931-0.213,0.1455-0.342,0.145"/>
</g>
<g class="st16">
	<path class="st7" d="M229.889,238.4074h6.27c0.155,0,0.282-0.192,0.282-0.426c0-0.237-0.127-0.428-0.282-0.428h-6.27
		c-0.155,0-0.282,0.191-0.282,0.428C229.607,238.2154,229.734,238.4074,229.889,238.4074"/>
	<path class="st8" d="M229.889,238.4074h6.27c0.155,0,0.282-0.192,0.282-0.426c0-0.237-0.127-0.428-0.282-0.428h-6.27
		c-0.155,0-0.282,0.191-0.282,0.428C229.607,238.2154,229.734,238.4074,229.889,238.4074"/>
	<path class="st7" d="M230.942,242.7394h-1.096c-0.1559,0.0011-0.2816,0.1281-0.281,0.284c0,0.157,0.125,0.285,0.281,0.285h1.096
		c0.1565-0.0011,0.2826-0.1285,0.282-0.285C231.2246,242.8671,231.0983,242.7399,230.942,242.7394"/>
	<path class="st8" d="M230.942,242.7394h-1.096c-0.1559,0.0011-0.2816,0.1281-0.281,0.284c0,0.157,0.125,0.285,0.281,0.285h1.096
		c0.1565-0.0011,0.2826-0.1285,0.282-0.285C231.2246,242.8671,231.0983,242.7399,230.942,242.7394"/>
	<path class="st7" d="M230.899,248.0304h-1.01c-0.155,0-0.282,0.192-0.282,0.427c0,0.236,0.127,0.427,0.282,0.427h1.01
		c0.156,0,0.281-0.191,0.281-0.427c0-0.235-0.125-0.427-0.282-0.427"/>
	<path class="st8" d="M230.899,248.0304h-1.01c-0.155,0-0.282,0.192-0.282,0.427c0,0.236,0.127,0.427,0.282,0.427h1.01
		c0.156,0,0.281-0.191,0.281-0.427c0-0.235-0.125-0.427-0.282-0.427"/>
	<path class="st7" d="M227.6,235.7354l-2.1,2.611l-0.67-0.762c-0.1036-0.1161-0.2812-0.1277-0.399-0.026
		c-0.1158,0.0983-0.13,0.2718-0.0317,0.3876c0.0016,0.0018,0.0031,0.0036,0.0047,0.0054l0.895,1.014
		c0.1072,0.1175,0.2894,0.1258,0.4069,0.0186c0.0101-0.0092,0.0195-0.019,0.0281-0.0296l2.309-2.873
		c0.0459-0.0572,0.0674-0.1301,0.06-0.203c-0.0189-0.1557-0.1605-0.2666-0.3162-0.2477c-0.0734,0.0089-0.1404,0.0461-0.1868,0.1037"
		/>
	<path class="st8" d="M227.6,235.7354l-2.1,2.611l-0.67-0.762c-0.1036-0.1161-0.2812-0.1277-0.399-0.026
		c-0.1158,0.0983-0.13,0.2718-0.0317,0.3876c0.0016,0.0018,0.0031,0.0036,0.0047,0.0054l0.895,1.014
		c0.1072,0.1175,0.2894,0.1258,0.4069,0.0186c0.0101-0.0092,0.0195-0.019,0.0281-0.0296l2.309-2.873
		c0.0459-0.0572,0.0674-0.1301,0.06-0.203c-0.0189-0.1557-0.1605-0.2666-0.3162-0.2477c-0.0734,0.0089-0.1404,0.0461-0.1868,0.1037"
		/>
	<path class="st7" d="M227.601,240.9624l-2.1,2.61l-0.672-0.76c-0.104-0.1165-0.2823-0.1277-0.4-0.025
		c-0.1148,0.1021-0.1256,0.2777-0.024,0.393l0.894,1.012c0.0538,0.0611,0.1316,0.0958,0.213,0.095
		c0.086-0.001,0.1671-0.0398,0.222-0.106l2.309-2.873c0.0954-0.1189,0.0764-0.2926-0.0424-0.388
		c-0.0009-0.0007-0.0017-0.0013-0.0025-0.002C227.8758,240.8223,227.6992,240.8419,227.601,240.9624"/>
	<path class="st8" d="M227.601,240.9624l-2.1,2.61l-0.672-0.76c-0.104-0.1165-0.2823-0.1277-0.4-0.025
		c-0.1148,0.1021-0.1256,0.2777-0.024,0.393l0.894,1.012c0.0538,0.0611,0.1316,0.0958,0.213,0.095
		c0.086-0.001,0.1671-0.0398,0.222-0.106l2.309-2.873c0.0954-0.1189,0.0764-0.2926-0.0424-0.388
		c-0.0009-0.0007-0.0017-0.0013-0.0025-0.002C227.8758,240.8223,227.6992,240.8419,227.601,240.9624"/>
	<g>
		<path class="st7" d="M230.299,230.6354c0.0523,0.043,0.1093,0.0799,0.17,0.11c0-0.002,0.002-0.002,0.005-0.002
			c0.036,0,0.21,0.015,0.324-0.02c0.033-0.022,0.092-0.066,0.118-0.089c0.058-0.058,0.075-0.087,0.083-0.113
			c0.0323-0.0606,0.0489-0.1283,0.048-0.197c0.0016-0.0471-0.0062-0.094-0.023-0.138c-0.0255-0.0621-0.0648-0.1175-0.115-0.162
			c-0.074-0.074-0.231-0.087-0.313-0.115c-0.108-0.003-0.2126,0.0377-0.29,0.113c-0.0391,0.0338-0.0716,0.0744-0.096,0.12
			c-0.0493,0.0998-0.0558,0.2153-0.018,0.32C230.2119,230.5284,230.2488,230.588,230.299,230.6354"/>
		<path class="st8" d="M230.299,230.6354c0.0523,0.043,0.1093,0.0799,0.17,0.11c0-0.002,0.002-0.002,0.005-0.002
			c0.036,0,0.21,0.015,0.324-0.02c0.033-0.022,0.092-0.066,0.118-0.089c0.058-0.058,0.075-0.087,0.083-0.113
			c0.0323-0.0606,0.0489-0.1283,0.048-0.197c0.0016-0.0471-0.0062-0.094-0.023-0.138c-0.0255-0.0621-0.0648-0.1175-0.115-0.162
			c-0.074-0.074-0.231-0.087-0.313-0.115c-0.108-0.003-0.2126,0.0377-0.29,0.113c-0.0391,0.0338-0.0716,0.0744-0.096,0.12
			c-0.0493,0.0998-0.0558,0.2153-0.018,0.32C230.2119,230.5284,230.2488,230.588,230.299,230.6354"/>
	</g>
	<g>
		<path class="st7" d="M226.671,246.9214h-2.104c-0.1546-0.0006-0.2808,0.1234-0.283,0.278v2.091c0,0.155,0.127,0.28,0.283,0.28
			h2.104c0.1552,0.0011,0.2819-0.1238,0.283-0.279c0-0.0003,0-0.0007,0-0.001v-2.09
			C226.9524,247.0454,226.826,246.9209,226.671,246.9214L226.671,246.9214z M224.85,249.0114h1.54v-1.532h-1.54V249.0114z"/>
		<path class="st8" d="M226.671,246.9214h-2.104c-0.1546-0.0006-0.2808,0.1234-0.283,0.278v2.091c0,0.155,0.127,0.28,0.283,0.28
			h2.104c0.1552,0.0011,0.2819-0.1238,0.283-0.279c0-0.0003,0-0.0007,0-0.001v-2.09
			C226.9524,247.0454,226.826,246.9209,226.671,246.9214L226.671,246.9214z M224.85,249.0114h1.54v-1.532h-1.54V249.0114z"/>
	</g>
	<path class="st7" d="M239.646,240.8954v-9.403c0-0.1546-0.1253-0.28-0.28-0.28c-0.0006,0-0.0013,0-0.002,0h-5.086
		c-0.1443-0.5982-0.6797-1.0195-1.295-1.019h-0.77v-0.243c-0.0044-1.0235-0.8365-1.8502-1.86-1.848c-1.026,0-1.86,0.829-1.86,1.848
		v0.243h-0.77c-0.63,0-1.156,0.436-1.296,1.02h-4.95c-0.1546-0.0005-0.2804,0.1244-0.281,0.279c0,0.0003,0,0.0007,0,0.001v20.911
		c0,0.155,0.126,0.28,0.281,0.28h13.96c1.098,0.813,2.455,1.301,3.927,1.301c3.636,0,6.594-2.94,6.594-6.552
		C245.958,243.9154,243.151,241.0434,239.646,240.8954z M227.724,230.7524h1.052c0.1552,0.0005,0.2815-0.1248,0.282-0.28l0,0v-0.522
		c0-0.712,0.58-1.29,1.295-1.29s1.297,0.578,1.297,1.29v0.522c0,0.154,0.126,0.28,0.282,0.28h1.051c0.425,0,0.77,0.343,0.77,0.765
		c-0.0016,0.4241-0.3459,0.767-0.77,0.767h-5.26c-0.4243,0.0005-0.7689-0.3427-0.77-0.767c0-0.422,0.346-0.765,0.77-0.765H227.724z
		 M221.76,252.1264v-20.356h4.655c0.119,0.61,0.66,1.072,1.309,1.072h5.26c0.648,0,1.188-0.463,1.308-1.072h4.79v9.125
		c-3.505,0.148-6.313,3.02-6.313,6.538c0,1.84,0.77,3.502,2.003,4.693h-13.013L221.76,252.1264L221.76,252.1264z M239.364,253.4264
		c-3.325,0-6.03-2.688-6.03-5.993s2.705-5.994,6.03-5.994s6.03,2.69,6.03,5.994c0,3.305-2.705,5.994-6.03,5.994V253.4264z"/>
	<path class="st8" d="M239.646,240.8954v-9.403c0-0.1546-0.1253-0.28-0.28-0.28c-0.0006,0-0.0013,0-0.002,0h-5.086
		c-0.1443-0.5982-0.6797-1.0195-1.295-1.019h-0.77v-0.243c-0.0044-1.0235-0.8365-1.8502-1.86-1.848c-1.026,0-1.86,0.829-1.86,1.848
		v0.243h-0.77c-0.63,0-1.156,0.436-1.296,1.02h-4.95c-0.1546-0.0005-0.2804,0.1244-0.281,0.279c0,0.0003,0,0.0007,0,0.001v20.911
		c0,0.155,0.126,0.28,0.281,0.28h13.96c1.098,0.813,2.455,1.301,3.927,1.301c3.636,0,6.594-2.94,6.594-6.552
		C245.958,243.9154,243.151,241.0434,239.646,240.8954z M227.724,230.7524h1.052c0.1552,0.0005,0.2815-0.1248,0.282-0.28l0,0v-0.522
		c0-0.712,0.58-1.29,1.295-1.29s1.297,0.578,1.297,1.29v0.522c0,0.154,0.126,0.28,0.282,0.28h1.051c0.425,0,0.77,0.343,0.77,0.765
		c-0.0016,0.4241-0.3459,0.767-0.77,0.767h-5.26c-0.4243,0.0005-0.7689-0.3427-0.77-0.767c0-0.422,0.346-0.765,0.77-0.765H227.724z
		 M221.76,252.1264v-20.356h4.655c0.119,0.61,0.66,1.072,1.309,1.072h5.26c0.648,0,1.188-0.463,1.308-1.072h4.79v9.125
		c-3.505,0.148-6.313,3.02-6.313,6.538c0,1.84,0.77,3.502,2.003,4.693h-13.013L221.76,252.1264L221.76,252.1264z M239.364,253.4264
		c-3.325,0-6.03-2.688-6.03-5.993s2.705-5.994,6.03-5.994s6.03,2.69,6.03,5.994c0,3.305-2.705,5.994-6.03,5.994V253.4264z"/>
	<g>
		<path class="st17" d="M241.468,247.1554h-1.822v-3.904c-0.0005-0.1546-0.1264-0.2795-0.281-0.279c-0.0003,0-0.0007,0-0.001,0
			c-0.1552-0.0011-0.2819,0.1238-0.283,0.279c0,0.0003,0,0.0007,0,0.001v4.181c0,0.155,0.127,0.28,0.283,0.28h2.104
			c0.1552,0.0005,0.2815-0.1248,0.282-0.28l0,0c-0.0011-0.1548-0.1272-0.2795-0.282-0.279"/>
		<path class="st18" d="M241.468,247.1554h-1.822v-3.904c-0.0005-0.1546-0.1264-0.2795-0.281-0.279c-0.0003,0-0.0007,0-0.001,0
			c-0.1552-0.0011-0.2819,0.1238-0.283,0.279c0,0.0003,0,0.0007,0,0.001v4.181c0,0.155,0.127,0.28,0.283,0.28h2.104
			c0.1552,0.0005,0.2815-0.1248,0.282-0.28l0,0c-0.0011-0.1548-0.1272-0.2795-0.282-0.279"/>
	</g>
</g>
<g class="st19">
	<path class="st7" d="M1460.6721,62.0805h6.27c0.155,0,0.282-0.192,0.282-0.426c0-0.237-0.127-0.428-0.282-0.428h-6.27
		c-0.155,0-0.282,0.191-0.282,0.428C1460.3901,61.8885,1460.5171,62.0805,1460.6721,62.0805"/>
	<path class="st8" d="M1460.6721,62.0805h6.27c0.155,0,0.282-0.192,0.282-0.426c0-0.237-0.127-0.428-0.282-0.428h-6.27
		c-0.155,0-0.282,0.191-0.282,0.428C1460.3901,61.8885,1460.5171,62.0805,1460.6721,62.0805"/>
	<path class="st7" d="M1461.7251,66.4125h-1.0959c-0.1559,0.0011-0.2816,0.1281-0.281,0.284c0,0.157,0.125,0.285,0.281,0.285h1.0959
		c0.1565-0.0011,0.2826-0.1285,0.282-0.285C1462.0077,66.5402,1461.8813,66.4131,1461.7251,66.4125"/>
	<path class="st8" d="M1461.7251,66.4125h-1.0959c-0.1559,0.0011-0.2816,0.1281-0.281,0.284c0,0.157,0.125,0.285,0.281,0.285h1.0959
		c0.1565-0.0011,0.2826-0.1285,0.282-0.285C1462.0077,66.5402,1461.8813,66.4131,1461.7251,66.4125"/>
	<path class="st7" d="M1461.6821,71.7035h-1.01c-0.155,0-0.282,0.192-0.282,0.427c0,0.236,0.127,0.427,0.282,0.427h1.01
		c0.156,0,0.281-0.191,0.281-0.427c0-0.235-0.125-0.427-0.282-0.427"/>
	<path class="st8" d="M1461.6821,71.7035h-1.01c-0.155,0-0.282,0.192-0.282,0.427c0,0.236,0.127,0.427,0.282,0.427h1.01
		c0.156,0,0.281-0.191,0.281-0.427c0-0.235-0.125-0.427-0.282-0.427"/>
	<path class="st7" d="M1458.3831,59.4085l-2.1,2.611l-0.67-0.762c-0.1036-0.1162-0.2813-0.1278-0.399-0.026
		c-0.1157,0.0983-0.13,0.2718-0.0316,0.3876c0.0015,0.0018,0.0031,0.0036,0.0046,0.0054l0.895,1.014
		c0.1072,0.1175,0.2893,0.1259,0.4069,0.0187c0.0101-0.0092,0.0195-0.0191,0.0282-0.0297l2.309-2.873
		c0.0459-0.0572,0.0675-0.1301,0.0601-0.203c-0.0189-0.1557-0.1604-0.2666-0.3162-0.2477
		c-0.0734,0.0089-0.1405,0.0461-0.1869,0.1037"/>
	<path class="st8" d="M1458.3831,59.4085l-2.1,2.611l-0.67-0.762c-0.1036-0.1162-0.2813-0.1278-0.399-0.026
		c-0.1157,0.0983-0.13,0.2718-0.0316,0.3876c0.0015,0.0018,0.0031,0.0036,0.0046,0.0054l0.895,1.014
		c0.1072,0.1175,0.2893,0.1259,0.4069,0.0187c0.0101-0.0092,0.0195-0.0191,0.0282-0.0297l2.309-2.873
		c0.0459-0.0572,0.0675-0.1301,0.0601-0.203c-0.0189-0.1557-0.1604-0.2666-0.3162-0.2477
		c-0.0734,0.0089-0.1405,0.0461-0.1869,0.1037"/>
	<path class="st7" d="M1458.384,64.6355l-2.1,2.61l-0.672-0.76c-0.104-0.1165-0.2823-0.1277-0.4-0.025
		c-0.1149,0.102-0.1256,0.2777-0.024,0.393l0.894,1.012c0.0538,0.0611,0.1316,0.0958,0.213,0.095
		c0.0859-0.001,0.1671-0.0398,0.222-0.106l2.309-2.873c0.0955-0.1189,0.0764-0.2926-0.0425-0.388
		c-0.0009-0.0007-0.0017-0.0013-0.0026-0.002C1458.6588,64.4955,1458.4822,64.5151,1458.384,64.6355"/>
	<path class="st8" d="M1458.384,64.6355l-2.1,2.61l-0.672-0.76c-0.104-0.1165-0.2823-0.1277-0.4-0.025
		c-0.1149,0.102-0.1256,0.2777-0.024,0.393l0.894,1.012c0.0538,0.0611,0.1316,0.0958,0.213,0.095
		c0.0859-0.001,0.1671-0.0398,0.222-0.106l2.309-2.873c0.0955-0.1189,0.0764-0.2926-0.0425-0.388
		c-0.0009-0.0007-0.0017-0.0013-0.0026-0.002C1458.6588,64.4955,1458.4822,64.5151,1458.384,64.6355"/>
	<g>
		<path class="st7" d="M1461.082,54.3085c0.0524,0.043,0.1094,0.0799,0.17,0.11c0-0.002,0.002-0.002,0.005-0.002
			c0.036,0,0.21,0.015,0.324-0.02c0.033-0.022,0.092-0.066,0.118-0.089c0.058-0.058,0.075-0.087,0.083-0.113
			c0.0323-0.0606,0.0488-0.1283,0.048-0.197c0.0017-0.0471-0.0061-0.094-0.0229-0.138c-0.0255-0.0621-0.0648-0.1175-0.115-0.162
			c-0.074-0.074-0.231-0.087-0.313-0.115c-0.1079-0.003-0.2125,0.0377-0.29,0.113c-0.0391,0.0338-0.0717,0.0745-0.0959,0.12
			c-0.0493,0.0998-0.0558,0.2153-0.0179,0.32c0.02,0.066,0.0569,0.1257,0.1071,0.173"/>
		<path class="st8" d="M1461.082,54.3085c0.0524,0.043,0.1094,0.0799,0.17,0.11c0-0.002,0.002-0.002,0.005-0.002
			c0.036,0,0.21,0.015,0.324-0.02c0.033-0.022,0.092-0.066,0.118-0.089c0.058-0.058,0.075-0.087,0.083-0.113
			c0.0323-0.0606,0.0488-0.1283,0.048-0.197c0.0017-0.0471-0.0061-0.094-0.0229-0.138c-0.0255-0.0621-0.0648-0.1175-0.115-0.162
			c-0.074-0.074-0.231-0.087-0.313-0.115c-0.1079-0.003-0.2125,0.0377-0.29,0.113c-0.0391,0.0338-0.0717,0.0745-0.0959,0.12
			c-0.0493,0.0998-0.0558,0.2153-0.0179,0.32c0.02,0.066,0.0569,0.1257,0.1071,0.173"/>
	</g>
	<g>
		<path class="st7" d="M1457.4541,70.5945h-2.104c-0.1545-0.0005-0.2808,0.1234-0.283,0.278v2.091c0,0.155,0.127,0.28,0.283,0.28
			h2.104c0.1552,0.0011,0.2819-0.1238,0.283-0.279c0-0.0003,0-0.0006,0-0.001v-2.09
			C1457.7355,70.7186,1457.609,70.594,1457.4541,70.5945z M1455.6331,72.6845h1.54v-1.532h-1.54V72.6845z"/>
		<path class="st8" d="M1457.4541,70.5945h-2.104c-0.1545-0.0005-0.2808,0.1234-0.283,0.278v2.091c0,0.155,0.127,0.28,0.283,0.28
			h2.104c0.1552,0.0011,0.2819-0.1238,0.283-0.279c0-0.0003,0-0.0006,0-0.001v-2.09
			C1457.7355,70.7186,1457.609,70.594,1457.4541,70.5945z M1455.6331,72.6845h1.54v-1.532h-1.54V72.6845z"/>
	</g>
	<path class="st7" d="M1470.4291,64.5685v-9.403c0-0.1546-0.1254-0.28-0.28-0.28c-0.0006,0-0.0013,0-0.002,0h-5.0861
		c-0.1443-0.5982-0.6797-1.0195-1.295-1.019h-0.77v-0.243c-0.0044-1.0235-0.8365-1.8502-1.86-1.848c-1.026,0-1.86,0.829-1.86,1.848
		v0.243h-0.77c-0.63,0-1.156,0.436-1.296,1.02h-4.95c-0.1547-0.0006-0.2804,0.1244-0.281,0.279c0,0.0003,0,0.0007,0,0.001v20.911
		c0,0.155,0.126,0.28,0.281,0.28h13.96c1.098,0.813,2.455,1.301,3.927,1.301c3.636,0,6.594-2.94,6.594-6.552
		c0-3.518-2.807-6.39-6.312-6.538H1470.4291z M1458.5071,54.4255h1.052c0.1552,0.0005,0.2814-0.1248,0.282-0.28v-0.522
		c0-0.712,0.58-1.29,1.295-1.29s1.297,0.578,1.297,1.29v0.522c0,0.154,0.126,0.28,0.282,0.28h1.051c0.425,0,0.77,0.343,0.77,0.765
		c-0.0017,0.4241-0.3459,0.767-0.77,0.767h-5.26c-0.4243,0.0006-0.7689-0.3427-0.77-0.767c0-0.422,0.3459-0.765,0.77-0.765
		H1458.5071z M1452.5431,75.7995v-20.356h4.655c0.119,0.61,0.66,1.072,1.309,1.072h5.26c0.6479,0,1.188-0.463,1.308-1.072h4.79
		v9.125c-3.505,0.148-6.313,3.02-6.313,6.538c0,1.84,0.77,3.502,2.002,4.693H1452.5431z M1470.1471,77.0995
		c-3.325,0-6.03-2.688-6.03-5.993s2.705-5.994,6.03-5.994s6.03,2.69,6.03,5.994c0,3.305-2.705,5.994-6.03,5.994V77.0995z"/>
	<path class="st8" d="M1470.4291,64.5685v-9.403c0-0.1546-0.1254-0.28-0.28-0.28c-0.0006,0-0.0013,0-0.002,0h-5.0861
		c-0.1443-0.5982-0.6797-1.0195-1.295-1.019h-0.77v-0.243c-0.0044-1.0235-0.8365-1.8502-1.86-1.848c-1.026,0-1.86,0.829-1.86,1.848
		v0.243h-0.77c-0.63,0-1.156,0.436-1.296,1.02h-4.95c-0.1547-0.0006-0.2804,0.1244-0.281,0.279c0,0.0003,0,0.0007,0,0.001v20.911
		c0,0.155,0.126,0.28,0.281,0.28h13.96c1.098,0.813,2.455,1.301,3.927,1.301c3.636,0,6.594-2.94,6.594-6.552
		c0-3.518-2.807-6.39-6.312-6.538H1470.4291z M1458.5071,54.4255h1.052c0.1552,0.0005,0.2814-0.1248,0.282-0.28v-0.522
		c0-0.712,0.58-1.29,1.295-1.29s1.297,0.578,1.297,1.29v0.522c0,0.154,0.126,0.28,0.282,0.28h1.051c0.425,0,0.77,0.343,0.77,0.765
		c-0.0017,0.4241-0.3459,0.767-0.77,0.767h-5.26c-0.4243,0.0006-0.7689-0.3427-0.77-0.767c0-0.422,0.3459-0.765,0.77-0.765
		H1458.5071z M1452.5431,75.7995v-20.356h4.655c0.119,0.61,0.66,1.072,1.309,1.072h5.26c0.6479,0,1.188-0.463,1.308-1.072h4.79
		v9.125c-3.505,0.148-6.313,3.02-6.313,6.538c0,1.84,0.77,3.502,2.002,4.693H1452.5431z M1470.1471,77.0995
		c-3.325,0-6.03-2.688-6.03-5.993s2.705-5.994,6.03-5.994s6.03,2.69,6.03,5.994c0,3.305-2.705,5.994-6.03,5.994V77.0995z"/>
	<g>
		<path class="st17" d="M1472.2511,70.8285h-1.822v-3.904c-0.0005-0.1546-0.1263-0.2796-0.281-0.279c-0.0004,0-0.0006,0-0.001,0
			c-0.1552-0.0011-0.2819,0.1238-0.283,0.279c0,0.0003,0,0.0006,0,0.001v4.181c0,0.155,0.127,0.28,0.283,0.28h2.104
			c0.1552,0.0005,0.2814-0.1248,0.282-0.28c-0.0011-0.1548-0.1272-0.2795-0.282-0.279"/>
		<path class="st18" d="M1472.2511,70.8285h-1.822v-3.904c-0.0005-0.1546-0.1263-0.2796-0.281-0.279c-0.0004,0-0.0006,0-0.001,0
			c-0.1552-0.0011-0.2819,0.1238-0.283,0.279c0,0.0003,0,0.0006,0,0.001v4.181c0,0.155,0.127,0.28,0.283,0.28h2.104
			c0.1552,0.0005,0.2814-0.1248,0.282-0.28c-0.0011-0.1548-0.1272-0.2795-0.282-0.279"/>
	</g>
</g>
<g class="st19">
	<path class="st7" d="M896.1931,96.0805h6.27c0.155,0,0.282-0.192,0.282-0.426c0-0.237-0.127-0.428-0.282-0.428h-6.27
		c-0.155,0-0.282,0.191-0.282,0.428C895.9111,95.8885,896.0381,96.0805,896.1931,96.0805"/>
	<path class="st8" d="M896.1931,96.0805h6.27c0.155,0,0.282-0.192,0.282-0.426c0-0.237-0.127-0.428-0.282-0.428h-6.27
		c-0.155,0-0.282,0.191-0.282,0.428C895.9111,95.8885,896.0381,96.0805,896.1931,96.0805"/>
	<path class="st7" d="M897.246,100.4125h-1.096c-0.1559,0.0011-0.2816,0.1281-0.281,0.284c0,0.157,0.125,0.285,0.281,0.285h1.096
		c0.1564-0.0011,0.2825-0.1286,0.282-0.285C897.5286,100.5402,897.4023,100.4131,897.246,100.4125"/>
	<path class="st8" d="M897.246,100.4125h-1.096c-0.1559,0.0011-0.2816,0.1281-0.281,0.284c0,0.157,0.125,0.285,0.281,0.285h1.096
		c0.1564-0.0011,0.2825-0.1286,0.282-0.285C897.5286,100.5402,897.4023,100.4131,897.246,100.4125"/>
	<path class="st7" d="M897.203,105.7035h-1.01c-0.155,0-0.282,0.192-0.282,0.427c0,0.236,0.127,0.427,0.282,0.427h1.01
		c0.156,0,0.281-0.191,0.281-0.427c0-0.235-0.125-0.427-0.282-0.427"/>
	<path class="st8" d="M897.203,105.7035h-1.01c-0.155,0-0.282,0.192-0.282,0.427c0,0.236,0.127,0.427,0.282,0.427h1.01
		c0.156,0,0.281-0.191,0.281-0.427c0-0.235-0.125-0.427-0.282-0.427"/>
	<path class="st7" d="M893.9041,93.4085l-2.1,2.611l-0.67-0.762c-0.1036-0.1161-0.2812-0.1277-0.399-0.026
		c-0.1158,0.0983-0.1299,0.2718-0.0317,0.3876c0.0015,0.0018,0.0031,0.0036,0.0047,0.0054l0.895,1.014
		c0.1072,0.1175,0.2894,0.1258,0.4069,0.0186c0.0101-0.0092,0.0195-0.0191,0.0281-0.0296l2.309-2.873
		c0.0459-0.0572,0.0674-0.1301,0.06-0.203c-0.0189-0.1557-0.1605-0.2666-0.3162-0.2476c-0.0734,0.0089-0.1404,0.0461-0.1868,0.1036"
		/>
	<path class="st8" d="M893.9041,93.4085l-2.1,2.611l-0.67-0.762c-0.1036-0.1161-0.2812-0.1277-0.399-0.026
		c-0.1158,0.0983-0.1299,0.2718-0.0317,0.3876c0.0015,0.0018,0.0031,0.0036,0.0047,0.0054l0.895,1.014
		c0.1072,0.1175,0.2894,0.1258,0.4069,0.0186c0.0101-0.0092,0.0195-0.0191,0.0281-0.0296l2.309-2.873
		c0.0459-0.0572,0.0674-0.1301,0.06-0.203c-0.0189-0.1557-0.1605-0.2666-0.3162-0.2476c-0.0734,0.0089-0.1404,0.0461-0.1868,0.1036"
		/>
	<path class="st7" d="M893.905,98.6355l-2.1,2.61l-0.672-0.76c-0.104-0.1165-0.2823-0.1277-0.4-0.025
		c-0.1148,0.1021-0.1255,0.2777-0.024,0.393l0.894,1.012c0.0538,0.0611,0.1316,0.0958,0.213,0.095
		c0.0859-0.0011,0.1671-0.0398,0.222-0.106l2.309-2.873c0.0954-0.1189,0.0764-0.2926-0.0425-0.388
		c-0.0008-0.0007-0.0016-0.0013-0.0025-0.002C894.1799,98.4955,894.0033,98.5151,893.905,98.6355"/>
	<path class="st8" d="M893.905,98.6355l-2.1,2.61l-0.672-0.76c-0.104-0.1165-0.2823-0.1277-0.4-0.025
		c-0.1148,0.1021-0.1255,0.2777-0.024,0.393l0.894,1.012c0.0538,0.0611,0.1316,0.0958,0.213,0.095
		c0.0859-0.0011,0.1671-0.0398,0.222-0.106l2.309-2.873c0.0954-0.1189,0.0764-0.2926-0.0425-0.388
		c-0.0008-0.0007-0.0016-0.0013-0.0025-0.002C894.1799,98.4955,894.0033,98.5151,893.905,98.6355"/>
	<g>
		<path class="st7" d="M896.603,88.3085c0.0523,0.043,0.1093,0.0799,0.17,0.11c0-0.002,0.002-0.002,0.005-0.002
			c0.036,0,0.21,0.015,0.324-0.02c0.033-0.022,0.092-0.066,0.118-0.089c0.058-0.058,0.075-0.087,0.083-0.113
			c0.0323-0.0606,0.0488-0.1283,0.048-0.197c0.0016-0.0471-0.0062-0.094-0.023-0.138c-0.0255-0.0621-0.0648-0.1175-0.115-0.162
			c-0.074-0.074-0.231-0.087-0.313-0.115c-0.108-0.003-0.2125,0.0377-0.29,0.113c-0.0391,0.0338-0.0717,0.0744-0.096,0.12
			c-0.0493,0.0998-0.0558,0.2153-0.018,0.32C896.5159,88.2015,896.5528,88.2611,896.603,88.3085"/>
		<path class="st8" d="M896.603,88.3085c0.0523,0.043,0.1093,0.0799,0.17,0.11c0-0.002,0.002-0.002,0.005-0.002
			c0.036,0,0.21,0.015,0.324-0.02c0.033-0.022,0.092-0.066,0.118-0.089c0.058-0.058,0.075-0.087,0.083-0.113
			c0.0323-0.0606,0.0488-0.1283,0.048-0.197c0.0016-0.0471-0.0062-0.094-0.023-0.138c-0.0255-0.0621-0.0648-0.1175-0.115-0.162
			c-0.074-0.074-0.231-0.087-0.313-0.115c-0.108-0.003-0.2125,0.0377-0.29,0.113c-0.0391,0.0338-0.0717,0.0744-0.096,0.12
			c-0.0493,0.0998-0.0558,0.2153-0.018,0.32C896.5159,88.2015,896.5528,88.2611,896.603,88.3085"/>
	</g>
	<g>
		<path class="st7" d="M892.975,104.5945h-2.104c-0.1546-0.0006-0.2808,0.1234-0.283,0.278v2.091c0,0.155,0.127,0.28,0.283,0.28
			h2.104c0.1552,0.0011,0.2819-0.1238,0.283-0.279c0-0.0003,0-0.0007,0-0.001v-2.09
			C893.2564,104.7185,893.13,104.5939,892.975,104.5945z M891.1541,106.6845h1.54v-1.532h-1.54V106.6845z"/>
		<path class="st8" d="M892.975,104.5945h-2.104c-0.1546-0.0006-0.2808,0.1234-0.283,0.278v2.091c0,0.155,0.127,0.28,0.283,0.28
			h2.104c0.1552,0.0011,0.2819-0.1238,0.283-0.279c0-0.0003,0-0.0007,0-0.001v-2.09
			C893.2564,104.7185,893.13,104.5939,892.975,104.5945z M891.1541,106.6845h1.54v-1.532h-1.54V106.6845z"/>
	</g>
	<path class="st7" d="M905.95,98.5685v-9.403c0-0.1546-0.1254-0.28-0.28-0.28c-0.0007,0-0.0013,0-0.002,0h-5.086
		c-0.1442-0.5982-0.6797-1.0195-1.295-1.019h-0.77v-0.243c-0.0044-1.0235-0.8365-1.8502-1.86-1.848c-1.026,0-1.86,0.829-1.86,1.848
		v0.243h-0.77c-0.63,0-1.156,0.436-1.296,1.02h-4.95c-0.1547-0.0005-0.2805,0.1244-0.281,0.279c0,0.0003,0,0.0007,0,0.001v20.911
		c0,0.155,0.126,0.28,0.281,0.28h13.96c1.098,0.813,2.455,1.301,3.927,1.301c3.636,0,6.594-2.94,6.594-6.552
		C912.262,101.5885,909.455,98.7165,905.95,98.5685z M894.028,88.4255h1.052c0.1552,0.0005,0.2814-0.1248,0.282-0.28v-0.522
		c0-0.712,0.58-1.29,1.295-1.29s1.297,0.578,1.297,1.29v0.522c0,0.154,0.126,0.28,0.282,0.28h1.051c0.425,0,0.77,0.343,0.77,0.765
		c-0.0016,0.4241-0.3459,0.767-0.77,0.767h-5.26c-0.4243,0.0006-0.7689-0.3427-0.77-0.767c0-0.422,0.346-0.765,0.77-0.765H894.028z
		 M888.064,109.7995v-20.356h4.655c0.119,0.61,0.66,1.072,1.309,1.072h5.26c0.648,0,1.188-0.463,1.308-1.072h4.79v9.125
		c-3.505,0.148-6.313,3.02-6.313,6.538c0,1.84,0.77,3.502,2.002,4.693H888.064L888.064,109.7995z M905.668,111.0995
		c-3.325,0-6.03-2.688-6.03-5.993s2.705-5.994,6.03-5.994s6.03,2.69,6.03,5.994c0,3.305-2.705,5.994-6.03,5.994V111.0995z"/>
	<path class="st8" d="M905.95,98.5685v-9.403c0-0.1546-0.1254-0.28-0.28-0.28c-0.0007,0-0.0013,0-0.002,0h-5.086
		c-0.1442-0.5982-0.6797-1.0195-1.295-1.019h-0.77v-0.243c-0.0044-1.0235-0.8365-1.8502-1.86-1.848c-1.026,0-1.86,0.829-1.86,1.848
		v0.243h-0.77c-0.63,0-1.156,0.436-1.296,1.02h-4.95c-0.1547-0.0005-0.2805,0.1244-0.281,0.279c0,0.0003,0,0.0007,0,0.001v20.911
		c0,0.155,0.126,0.28,0.281,0.28h13.96c1.098,0.813,2.455,1.301,3.927,1.301c3.636,0,6.594-2.94,6.594-6.552
		C912.262,101.5885,909.455,98.7165,905.95,98.5685z M894.028,88.4255h1.052c0.1552,0.0005,0.2814-0.1248,0.282-0.28v-0.522
		c0-0.712,0.58-1.29,1.295-1.29s1.297,0.578,1.297,1.29v0.522c0,0.154,0.126,0.28,0.282,0.28h1.051c0.425,0,0.77,0.343,0.77,0.765
		c-0.0016,0.4241-0.3459,0.767-0.77,0.767h-5.26c-0.4243,0.0006-0.7689-0.3427-0.77-0.767c0-0.422,0.346-0.765,0.77-0.765H894.028z
		 M888.064,109.7995v-20.356h4.655c0.119,0.61,0.66,1.072,1.309,1.072h5.26c0.648,0,1.188-0.463,1.308-1.072h4.79v9.125
		c-3.505,0.148-6.313,3.02-6.313,6.538c0,1.84,0.77,3.502,2.002,4.693H888.064L888.064,109.7995z M905.668,111.0995
		c-3.325,0-6.03-2.688-6.03-5.993s2.705-5.994,6.03-5.994s6.03,2.69,6.03,5.994c0,3.305-2.705,5.994-6.03,5.994V111.0995z"/>
	<g>
		<path class="st17" d="M907.772,104.8285h-1.822v-3.904c-0.0005-0.1546-0.1263-0.2796-0.281-0.279c-0.0003,0-0.0007,0-0.001,0
			c-0.1552-0.0011-0.2819,0.1238-0.283,0.279c0,0.0003,0,0.0007,0,0.001v4.181c0,0.155,0.127,0.28,0.283,0.28h2.104
			c0.1552,0.0005,0.2814-0.1248,0.282-0.28c-0.0011-0.1548-0.1272-0.2796-0.282-0.279"/>
		<path class="st18" d="M907.772,104.8285h-1.822v-3.904c-0.0005-0.1546-0.1263-0.2796-0.281-0.279c-0.0003,0-0.0007,0-0.001,0
			c-0.1552-0.0011-0.2819,0.1238-0.283,0.279c0,0.0003,0,0.0007,0,0.001v4.181c0,0.155,0.127,0.28,0.283,0.28h2.104
			c0.1552,0.0005,0.2814-0.1248,0.282-0.28c-0.0011-0.1548-0.1272-0.2796-0.282-0.279"/>
	</g>
</g>
<g class="st20">
	<path class="st21" d="M1790.972,196.16v-1.534c-0.0027-0.1351-0.1139-0.2427-0.249-0.241h-17.04
		c-0.1355-0.0022-0.2473,0.1055-0.25,0.241v9.498h8.77l2.876-2.587l6.848-0.473v-4.777L1790.972,196.16z M1792.1741,201.137v-4.71
		c-0.0027-0.1347-0.1133-0.2421-0.248-0.241h-16.452c-0.1349-0.0006-0.2454,0.1071-0.248,0.242v7.772h6.873l3.697-3.028
		L1792.1741,201.137z M1785.5851,201.228c-0.1564,0.0084-0.3052,0.0698-0.422,0.174l-2.6071,2.584
		c-0.1177,0.103-0.2667,0.1633-0.423,0.171h-11.4399c-0.1351-0.0011-0.2458,0.1069-0.248,0.242v11.912
		c0,0.132,0.1121,0.24,0.249,0.24h24.303c0.1344,0.0012,0.2448-0.1057,0.248-0.24V201.47c-0.0022-0.1351-0.1129-0.2431-0.248-0.242
		H1785.5851L1785.5851,201.228z M1776.2991,198.323h9.5129H1776.2991z M1776.2991,199.755h3.709H1776.2991z"/>
</g>
</svg>
