<svg xmlns="http://www.w3.org/2000/svg" width="98" height="78" viewBox="0 0 98 78">
    <g fill="none" fill-rule="evenodd">
        <path fill="#E31D74" d="M30.616 4.98C2.546-12.513-3.05 20.335 1.333 37.885 6.795 59.759-7.172 69.8 5.986 76.656c13.654 7.115 29.673-18.047 62.16-14.015 42.178 5.234 37.085-43.78-7.172-44.323-11.14-.137-18.373-5.87-30.358-13.339z" opacity=".1"/>
        <path fill="#E31D74" d="M48.67 55.773c-13.508 0-24.497-11.038-24.497-24.606 0-13.567 10.99-24.605 24.497-24.605 4.299 0 8.527 1.134 12.228 3.281.502.29.675.935.385 1.44a1.06 1.06 0 0 1-.914.527c-.183 0-.364-.048-.52-.14A22.306 22.306 0 0 0 48.67 8.67c-12.35 0-22.397 10.093-22.397 22.496 0 12.404 10.047 22.496 22.397 22.496 12.352 0 22.398-10.092 22.398-22.496 0-1.005-.067-2.017-.199-3.005a22.356 22.356 0 0 0-2.786-8.221 1.059 1.059 0 0 1 .386-1.442c.158-.092.339-.14.52-.14.377 0 .726.201.913.526a24.503 24.503 0 0 1 3.049 8.997c.144 1.08.217 2.185.217 3.285 0 13.568-10.99 24.606-24.498 24.606"/>
        <path stroke="#E31D74" stroke-width=".25" d="M48.67 55.773c-13.508 0-24.497-11.038-24.497-24.606 0-13.567 10.99-24.605 24.497-24.605 4.299 0 8.527 1.134 12.228 3.281.502.29.675.935.385 1.44a1.06 1.06 0 0 1-.914.527c-.183 0-.364-.048-.52-.14A22.306 22.306 0 0 0 48.67 8.67c-12.35 0-22.397 10.093-22.397 22.496 0 12.404 10.047 22.496 22.397 22.496 12.352 0 22.398-10.092 22.398-22.496 0-1.005-.067-2.017-.199-3.005a22.356 22.356 0 0 0-2.786-8.221 1.059 1.059 0 0 1 .386-1.442c.158-.092.339-.14.52-.14.377 0 .726.201.913.526a24.503 24.503 0 0 1 3.049 8.997c.144 1.08.217 2.185.217 3.285 0 13.568-10.99 24.606-24.498 24.606"/>
        <g>
            <path fill="#E31D74" d="M45.544 40.072c-.28 0-.544-.109-.743-.309l-6.253-6.28a1.061 1.061 0 0 1 0-1.492c.199-.199.463-.308.745-.308.28 0 .543.11.741.308l5.148 5.17a.51.51 0 0 0 .726 0l11.4-11.45a1.043 1.043 0 0 1 1.485 0 1.06 1.06 0 0 1 0 1.491L46.287 39.763c-.199.2-.462.309-.743.309"/>
            <path stroke="#E31D74" stroke-width=".25" d="M45.544 40.072c-.28 0-.544-.109-.743-.309l-6.253-6.28a1.061 1.061 0 0 1 0-1.492c.199-.199.463-.308.745-.308.28 0 .543.11.741.308l5.148 5.17a.51.51 0 0 0 .726 0l11.4-11.45a1.043 1.043 0 0 1 1.485 0 1.06 1.06 0 0 1 0 1.491L46.287 39.763c-.199.2-.462.309-.743.309"/>
        </g>
    </g>
</svg>
