<?xml version="1.0" encoding="utf-8"?>
<!-- Generator: Adobe Illustrator 23.0.1, SVG Export Plug-In . SVG Version: 6.00 Build 0)  -->
<svg version="1.1" id="Capa_1" xmlns="http://www.w3.org/2000/svg" xmlns:xlink="http://www.w3.org/1999/xlink" x="0px" y="0px"
	 viewBox="0 0 452 492" style="enable-background:new 0 0 452 492;" xml:space="preserve">
<style type="text/css">
	.st0{fill:#64B700;}
</style>
<path class="st0" d="M35,492c-19.3,0-35-15.7-35-35V35C0,15.7,15.7,0,35,0h257.6c9.3,0,18.1,3.6,24.8,10.2l42.4,42.4
	c6.6,6.7,10.2,15.5,10.2,24.8v143l22.2-22.2c6.6-6.6,15.4-10.2,24.8-10.2s18.2,3.6,24.8,10.2c6.6,6.6,10.2,15.4,10.2,24.8
	c0,9.3-3.6,18.1-10.2,24.8L370,319.5V457c0,19.3-15.7,35-35,35H35z M35,10c-13.8,0-25,11.2-25,25v422c0,13.8,11.2,25,25,25h300
	c13.8,0,25-11.2,25-25V329.5l-38.9,38.9c-0.5,0.5-1.2,0.9-2.1,1.3l-63.4,21.2c-0.6,0.2-1.1,0.2-1.6,0.2c-1.4,0-2.7-0.5-3.6-1.4
	c-1.3-1.3-1.8-3.3-1.3-5.1l21.2-63.6c0.3-0.7,0.7-1.3,1.3-1.9l21.2-21.2c0.6-0.6,1.5-1.5,2.9-2.8c1.3-1.3,3.1-3.1,5.6-5.6l58.8-58.8
	V100h-85c-2.9,0-5-2.1-5-5V10H35z M279.5,325.2l-17.6,53l53-17.6l16.8-16.8l-35.3-35.3L279.5,325.2z M303.5,301.2l35.3,35.3
	l66.2-66.3l-35.3-35.3L303.5,301.2z M417,198c-6.7,0-12.9,2.6-17.6,7.3l-22.5,22.5l35.3,35.3l22.5-22.5c4.8-4.8,7.4-11.1,7.3-17.8
	c0-6.7-2.6-12.9-7.3-17.6C429.8,200.5,423.7,198,417,198z M280,90h80V79.2c0-4,0-12.2-7.4-19.5l-42.4-42.4c-5-5-11.1-7.4-18.6-7.4
	H280V90z"/>
<path class="st0" d="M65,160c-2.9,0-5-2.1-5-5s2.1-5,5-5h210c2.9,0,5,2.1,5,5s-2.1,5-5,5H65z"/>
<path class="st0" d="M65,220c-2.9,0-5-2.1-5-5s2.1-5,5-5h150c2.9,0,5,2.1,5,5s-2.1,5-5,5H65z"/>
<path class="st0" d="M65,280c-2.9,0-5-2.1-5-5s2.1-5,5-5h150c2.9,0,5,2.1,5,5s-2.1,5-5,5H65z"/>
<path class="st0" d="M65,340c-2.9,0-5-2.1-5-5s2.1-5,5-5h150c2.9,0,5,2.1,5,5s-2.1,5-5,5H65z"/>
<path class="st0" d="M185,432c-2.9,0-5-2.1-5-5s2.1-5,5-5h90c2.9,0,5,2.1,5,5s-2.1,5-5,5H185z"/>
</svg>
