<svg xmlns="http://www.w3.org/2000/svg" width="120" height="133" viewBox="0 0 120 133">
    <g fill="none" fill-rule="evenodd">
        <g transform="translate(2 2)">
            <path fill="#026BB0" fill-opacity=".05" stroke="#026BB0" stroke-width="1.44" d="M24.769 15.743c10.778-2.309 21.556-3.463 32.336-3.463 11.221 0 22.443 1.251 33.662 3.753a29.52 29.52 0 0 1 22.49 22.864c2.308 11.222 3.463 22.445 3.463 33.669 0 10.449-1 20.898-3.002 31.345a29.52 29.52 0 0 1-25.093 23.708 238.317 238.317 0 0 1-31.52 2.101c-10.063 0-20.127-.642-30.19-1.927a29.52 29.52 0 0 1-25.485-25.11A212.822 212.822 0 0 1-.72 72.566c0-10.816.832-21.63 2.495-32.445A29.52 29.52 0 0 1 24.77 15.743z"/>
            <path fill="#F2F7FB" d="M28 0h71v22H19V9a9 9 0 0 1 9-9z"/>
            <rect width="56" height="6" x="34" y="9" fill="#BCCFEB" rx="3"/>
        </g>
        <g fill-rule="nonzero">
            <path fill="#D4E1F4" d="M36.802 2h-5.994a7.397 7.397 0 0 0-7.373 7.298L23 127.648c.736.24 1.64.507 2.71.804 1.072.298 2.166.486 3.284.566L29.429 9.3A7.397 7.397 0 0 1 36.802 2z"/>
            <path fill="#BCCFEB" d="M74.94 112.199c0-.663-.322-1.199-.72-1.199h-6.56c-.397 0-.72.536-.72 1.199 0 .662.323 1.199.72 1.199h6.56c.398 0 .72-.537.72-1.2zM78 118.199c0-.663-.565-1.199-1.26-1.199H65.26c-.695 0-1.26.536-1.26 1.199 0 .662.565 1.199 1.26 1.199h11.48c.695 0 1.26-.537 1.26-1.2zM88 112.199c0-.663-.484-1.199-1.08-1.199h-9.84c-.596 0-1.08.536-1.08 1.199 0 .662.484 1.199 1.08 1.199h9.84c.596 0 1.08-.537 1.08-1.2zM51.206 112.199a1.2 1.2 0 0 0 1.199 1.199h10.664a1.2 1.2 0 0 0 0-2.398H52.405c-.662 0-1.199.536-1.199 1.199zM50 118.199a1.2 1.2 0 0 0 1.199 1.199h10.664a1.2 1.2 0 0 0 0-2.398H51.199c-.662 0-1.199.536-1.199 1.199zM45.199 113.398h2.053a1.2 1.2 0 0 0 0-2.398H45.2a1.199 1.199 0 1 0 0 2.398zM45.199 119.398h2.053a1.2 1.2 0 0 0 0-2.398H45.2a1.199 1.199 0 1 0 0 2.398z"/>
            <path fill="#026BB0" d="M22.736 127.75l.437-118.005a7.397 7.397 0 0 1 7.372-7.299h71.969a8.675 8.675 0 0 0-2.711 6.301v117.607l2.397-1.428V15.848h12.657l.4 30.015c.662 0 1.944 14.998 1.944 14.336V8.747a8.709 8.709 0 0 0-8.7-8.7c-.1 0-.198.005-.297.008a1.056 1.056 0 0 0-.13-.007H30.544a9.802 9.802 0 0 0-9.77 9.675l-.437 116.922 2.398 1.105zM114.803 8.747v4.704H102.2V8.747a6.302 6.302 0 0 1 12.603 0z"/>
        </g>
        <path fill="#FFF" d="M102.2 13h12.7v3h-12.7z"/>
        <path fill="#D4E1F4" fill-rule="nonzero" d="M111.498 3.26A6.3 6.3 0 0 0 102.2 8.8v12.322c.933.476 1.894 1.144 2.88 2.004.988.86 2.026 1.791 3.114 2.792V8.801a6.307 6.307 0 0 1 3.304-5.542z"/>
        <g fill-rule="nonzero" transform="translate(44 58)">
            <path fill="#D4E1F4" d="M42.48 42.12H1.44a1.08 1.08 0 1 1 0-2.16h41.04a1.08 1.08 0 1 1 0 2.16zM9.09 38.16h-4.5a.9.9 0 0 1-.9-.9v-18.9a.9.9 0 0 1 .9-.9h4.5a.9.9 0 0 1 .9.9v18.9a.9.9 0 0 1-.9.9zM19.17 38.16h-4.5a.9.9 0 0 1-.9-.9V24.24a.9.9 0 0 1 .9-.9h4.5a.9.9 0 0 1 .9.9v13.02a.9.9 0 0 1-.9.9zM29.25 38.16h-4.5a.9.9 0 0 1-.9-.9V11.4a.9.9 0 0 1 .9-.9h4.5a.9.9 0 0 1 .9.9v25.86a.9.9 0 0 1-.9.9zM39.33 38.16h-4.5a.9.9 0 0 1-.9-.9v-18.9a.9.9 0 0 1 .9-.9h4.5a.9.9 0 0 1 .9.9v18.9a.9.9 0 0 1-.9.9z"/>
            <path fill="#026BB0" d="M16.92 18.51a.629.629 0 0 1-.372-.122l-10.08-7.38a.63.63 0 0 1 .744-1.017l9.535 6.981 9.72-15.448a.63.63 0 0 1 .962-.126l10.08 9.36a.63.63 0 1 1-.858.924L27.13 2.839l-9.676 15.376a.63.63 0 0 1-.533.295z"/>
            <circle cx="6.84" cy="10.5" r="1.426" fill="#D4E1F4"/>
            <circle cx="16.92" cy="17.88" r="1.426" fill="#D4E1F4"/>
            <circle cx="27" cy="1.86" r="1.426" fill="#D4E1F4"/>
            <circle cx="37.08" cy="11.22" r="1.426" fill="#D4E1F4"/>
            <g fill="#026BB0">
                <path d="M6.84 12.286A1.788 1.788 0 0 1 5.054 10.5c0-.985.801-1.786 1.786-1.786s1.786.801 1.786 1.786-.801 1.786-1.786 1.786zm0-2.852a1.067 1.067 0 0 0 0 2.132 1.067 1.067 0 0 0 0-2.132zM16.92 19.666a1.788 1.788 0 0 1-1.786-1.786c0-.985.801-1.786 1.786-1.786s1.786.801 1.786 1.786-.801 1.786-1.786 1.786zm0-2.852a1.067 1.067 0 0 0 0 2.132 1.067 1.067 0 0 0 0-2.132zM27 3.646a1.788 1.788 0 0 1-1.786-1.786c0-.985.801-1.786 1.786-1.786s1.786.801 1.786 1.786S27.985 3.646 27 3.646zm0-2.852a1.067 1.067 0 0 0 0 2.132 1.067 1.067 0 0 0 0-2.132zM37.08 13.006a1.788 1.788 0 0 1-1.786-1.786c0-.985.801-1.786 1.786-1.786s1.786.801 1.786 1.786-.801 1.786-1.786 1.786zm0-2.852a1.067 1.067 0 0 0 0 2.132 1.067 1.067 0 0 0 0-2.132zM42.48 42.48H1.44c-.794 0-1.44-.646-1.44-1.44 0-.794.646-1.44 1.44-1.44h41.04c.794 0 1.44.646 1.44 1.44 0 .794-.646 1.44-1.44 1.44zM1.44 40.32a.72.72 0 0 0 0 1.44h41.04a.72.72 0 0 0 0-1.44H1.44zM9.09 38.52h-4.5c-.695 0-1.26-.565-1.26-1.26v-18.9c0-.695.565-1.26 1.26-1.26h4.5c.695 0 1.26.565 1.26 1.26v18.9c0 .695-.565 1.26-1.26 1.26zm-4.5-20.7a.54.54 0 0 0-.54.54v18.9c0 .298.242.54.54.54h4.5a.54.54 0 0 0 .54-.54v-18.9a.54.54 0 0 0-.54-.54h-4.5zM19.17 38.52h-4.5c-.695 0-1.26-.565-1.26-1.26V24.24c0-.695.565-1.26 1.26-1.26h4.5c.695 0 1.26.565 1.26 1.26v13.02c0 .695-.565 1.26-1.26 1.26zm-4.5-14.82a.54.54 0 0 0-.54.54v13.02c0 .298.242.54.54.54h4.5a.54.54 0 0 0 .54-.54V24.24a.54.54 0 0 0-.54-.54h-4.5zM29.25 38.52h-4.5c-.695 0-1.26-.565-1.26-1.26V11.4c0-.695.565-1.26 1.26-1.26h4.5c.695 0 1.26.565 1.26 1.26v25.86c0 .695-.565 1.26-1.26 1.26zm-4.5-27.66a.54.54 0 0 0-.54.54v25.86c0 .298.242.54.54.54h4.5a.54.54 0 0 0 .54-.54V11.4a.54.54 0 0 0-.54-.54h-4.5zM39.33 38.52h-4.5c-.695 0-1.26-.565-1.26-1.26v-18.9c0-.695.565-1.26 1.26-1.26h4.5c.695 0 1.26.565 1.26 1.26v18.9c0 .695-.565 1.26-1.26 1.26zm-4.5-20.7a.54.54 0 0 0-.54.54v18.9c0 .298.242.54.54.54h4.5a.54.54 0 0 0 .54-.54v-18.9a.54.54 0 0 0-.54-.54h-4.5z"/>
            </g>
        </g>
        <g>
            <g transform="translate(49 24)">
                <circle cx="16.139" cy="14.159" r="12.668" fill="#FFF" stroke="#026BB0" stroke-width="1.49"/>
                <path fill="#D4E1F4" fill-rule="nonzero" d="M20.332 25.302c-2.5.36-5.163-.334-7.52-1.695-5.586-3.225-7.5-10.368-4.275-15.953 1.36-2.358 3.29-4.296 5.634-5.236-3.424.492-6.468 2.73-8.332 5.958-3.225 5.586-1.31 12.729 4.275 15.954 3.229 1.864 7.006 2.258 10.218.972z"/>
            </g>
            <g fill="#026BB0" fill-rule="nonzero" stroke="#026BB0" stroke-width=".958" transform="translate(61.416 29.75)">
                <circle cx="4.312" cy="14.662" r="1"/>
                <path d="M8.624 4.354C8.606 1.95 6.678 0 4.312 0 1.934 0 0 1.969 0 4.388c0 .31.246.56.55.56.303 0 .549-.25.549-.56 0-1.803 1.441-3.27 3.213-3.27s3.213 1.467 3.213 3.27l.001.03a3.27 3.27 0 0 1-1.953 2.981c-1.1.478-1.81 1.584-1.81 2.819v1.298c0 .309.246.559.549.559.303 0 .55-.25.55-.56v-1.297c0-.786.448-1.489 1.142-1.79 1.593-.692 2.621-2.278 2.62-4.04v-.034z"/>
            </g>
        </g>
    </g>
</svg>
