<?xml version="1.0" encoding="UTF-8"?>
<svg width="58px" height="58px" viewBox="0 0 58 58" version="1.1" xmlns="http://www.w3.org/2000/svg" xmlns:xlink="http://www.w3.org/1999/xlink">
    <!-- Generator: sketchtool 53.2 (72643) - https://sketchapp.com -->
    <title>2974F92E-E0EB-4996-B0F5-1BFB9430BBA6</title>
    <desc>Created with sketchtool.</desc>
    <g id="01.-Home" stroke="none" stroke-width="1" fill="none" fill-rule="evenodd">
        <g id="SVG" transform="translate(-423.000000, -1049.000000)" fill="#F5AA00" fill-rule="nonzero" stroke="#F5AA00">
            <g id="fQuestions" transform="translate(423.000000, 1049.000000)">
                <g id="Group-24-Copy-3" fill-opacity="0.05" stroke-width="0.719999986">
                    <path d="M12.5327609,2.06027469 C6.82923007,3.27881132 2.47295322,7.89652787 1.588522,13.6613253 C0.769495255,18.9998289 0.359999993,24.3380964 0.359999993,29.6762824 C0.359999993,34.6290188 0.712494113,39.5818203 1.41750931,44.5348111 C2.30844619,50.7939701 7.27294873,55.6856081 13.5445965,56.4839083 C18.5127266,57.1162859 23.4807206,57.432466 28.448668,57.432466 C33.6371689,57.432466 38.8257228,57.0875889 44.0144314,56.3978141 C50.009426,55.6008535 54.8204327,51.0545227 55.9549896,45.1141618 C56.9378896,39.9678512 57.4292969,34.8219881 57.4292969,29.6762824 C57.4292969,24.1464357 56.8617811,18.6163937 55.7266362,13.0858004 C54.6142755,7.66621495 50.4228556,3.4051807 45.0223261,2.20370366 C39.497227,0.974516325 33.972823,0.359999993 28.448668,0.359999993 C23.1437189,0.359999993 17.8385493,0.926714155 12.5327609,2.06027469 Z" id="Rectangle"></path>
                </g>
                <g id="noun_Question_385682" transform="translate(21.750000, 16.675000)" stroke-width="0.5">
                    <g id="Group">
                        <path d="M7.77109375,0.167096682 C4.21102877,0.167096682 1.18836707,2.27115477 0.47578125,5.17000861 C0.42108473,5.33513152 0.463899065,5.51698202 0.586518917,5.64035809 C0.709138769,5.76373416 0.890722602,5.80766573 1.05617867,5.75398545 C1.22163473,5.70030516 1.34284068,5.55813699 1.3696733,5.38627282 C1.96058738,2.98238834 4.57590005,1.08982395 7.77109375,1.08982395 C11.4236875,1.08982395 14.3022727,3.52481818 14.3022727,6.43875861 C14.3022727,10.5227541 12.7276313,11.9049581 11.0006392,13.4601365 C9.27364715,15.015301 7.38181818,16.7575024 7.38181818,20.9284603 C7.37946509,21.0948446 7.46688224,21.2496069 7.61059588,21.3334858 C7.75430953,21.4173646 7.93205411,21.4173646 8.07576775,21.3334858 C8.2194814,21.2496069 8.30689854,21.0948446 8.30454545,20.9284603 C8.30454545,17.0209871 9.87294375,15.7129751 11.606179,14.1521819 C13.3394142,12.5913887 15.225,10.7755307 15.225,6.43875861 C15.225,2.92578364 11.8388207,0.167096682 7.77109375,0.167096682 Z M7.84318182,23.2352785 C7.33357385,23.2352785 6.92045455,23.6483978 6.92045455,24.1580058 C6.92045455,24.6676137 7.33357385,25.080733 7.84318182,25.080733 C8.35278979,25.080733 8.76590909,24.6676137 8.76590909,24.1580058 C8.76590909,23.6483978 8.35278979,23.2352785 7.84318182,23.2352785 Z" id="Shape"></path>
                    </g>
                </g>
            </g>
        </g>
    </g>
</svg>