<svg xmlns="http://www.w3.org/2000/svg" viewBox="0 0 418 512"><defs><style>.cls-1{fill:#f7f7f7;}.cls-1,.cls-2,.cls-3,.cls-4,.cls-5,.cls-6{fill-rule:evenodd;}.cls-2{fill:#ddd;}.cls-3{fill:#78b517;}.cls-4{fill:#f5aa00;}.cls-5{fill:#e51d74;}.cls-6{fill:#eee;}.cls-7{fill:#026bb0;}</style></defs><title>Asset 1</title><g id="Layer_2" data-name="Layer 2"><g id="Layer_1-2" data-name="Layer 1"><path class="cls-1" d="M0,26V486a26.08,26.08,0,0,0,26,26H392a26.1,26.1,0,0,0,26-26V117.89c0-3.27,0-6.28,0-9L319.48,0H26A26.08,26.08,0,0,0,0,26Z"/><path class="cls-2" d="M319.46,82.85a26,26,0,0,0,26,26H418c-.35-21.69-2.83-28.79-20.62-48.12L363.61,24C346.43,5.34,344.89,0,319.48,0Z"/><path class="cls-3" d="M113.3,184.06H65.47a4.56,4.56,0,0,0-4.55,4.56v27.86A4.55,4.55,0,0,0,65.47,221H113.3a4.55,4.55,0,0,0,4.55-4.55V188.62a4.56,4.56,0,0,0-4.55-4.56Z"/><path class="cls-4" d="M113.3,258.41H65.47A4.58,4.58,0,0,0,60.92,263v27.82a4.58,4.58,0,0,0,4.55,4.59H113.3a4.58,4.58,0,0,0,4.55-4.59V263a4.58,4.58,0,0,0-4.55-4.59Z"/><path class="cls-5" d="M113.3,332.79H65.47a4.55,4.55,0,0,0-4.55,4.55v27.84a4.57,4.57,0,0,0,4.55,4.58H113.3a4.57,4.57,0,0,0,4.55-4.58V337.34a4.55,4.55,0,0,0-4.55-4.55Z"/><path class="cls-6" d="M381.75,117.89V486a26.12,26.12,0,0,1-25.9,26H392a26.1,26.1,0,0,0,26-26V117.89c0-3.27,0-6.28,0-9H381.69c.06,2.74.06,5.75.06,9Z"/><path class="cls-7" d="M364.22,211.24H159.32a7.79,7.79,0,0,1,0-15.58h204.9a7.79,7.79,0,0,1,0,15.58Z"/><path class="cls-7" d="M364.22,284.68H279.94a7.79,7.79,0,0,1,0-15.57h84.28a7.79,7.79,0,0,1,0,15.57Zm-119.92,0h-85a7.79,7.79,0,0,1,0-15.57h85a7.79,7.79,0,1,1,0,15.57Z"/><path class="cls-7" d="M364.22,359.06H159.32a7.79,7.79,0,0,1,0-15.58h204.9a7.79,7.79,0,0,1,0,15.58Z"/></g></g></svg>