<?xml version="1.0" encoding="utf-8"?>
<!-- Generator: Adobe Illustrator 22.0.1, SVG Export Plug-In . SVG Version: 6.00 Build 0)  -->
<svg version="1.1" id="Layer_1" xmlns="http://www.w3.org/2000/svg" xmlns:xlink="http://www.w3.org/1999/xlink" x="0px" y="0px"
	 viewBox="0 0 158.5 197.4" style="enable-background:new 0 0 158.5 197.4;" xml:space="preserve">
<style type="text/css">
	.st0{fill:none;stroke:#CECCCB;stroke-width:6.1421;stroke-miterlimit:10;}
	.st1{fill:#0073B5;}
	.st2{fill:#6CBE45;}
	.st3{fill:#F4A51F;}
	.st4{fill:#FEC764;}
	.st5{fill:#241F20;}
	.st6{fill:none;stroke:#6CBE45;stroke-width:6.1421;stroke-miterlimit:10;}
	.st7{fill:#CECCCB;}
	.st8{fill:none;stroke:#EE307A;stroke-width:1.5355;}
	.st9{fill:#F8FAFB;}
</style>
<g>
	<path class="st0" d="M64.1,113.4c0-4.5,15.4-4.5,15.4-9s-15.4-4.5-15.4-9s15.4-4.5,15.4-9s-15.4-4.5-15.4-9s15.4-4.5,15.4-9
		c0-2.9-14.5-8.1-13.7-10.7c0.9-2.7,15.7,1.7,17.3-0.6c1.7-2.3-7.1-15-4.8-16.7C80.6,38.8,90,51,92.7,50.1c2.6-0.8,3-16.3,5.9-16.3"
		/>
	<polyline class="st0" points="34,155.1 7.5,128.5 34,102 	"/>
	<path class="st1" d="M47.9,102.7c0,8.1-6.5,14.6-14.6,14.6s-14.6-6.5-14.6-14.6s6.5-14.6,14.6-14.6C41.3,88.2,47.9,94.7,47.9,102.7
		z"/>
	<path class="st2" d="M27.3,143.4c6.3,0,11.4,5.1,11.4,11.4c0,6.3-5.1,11.4-11.4,11.4"/>
	<path class="st1" d="M17.5,127.3c0,4.8-3.9,8.7-8.7,8.7s-8.7-3.9-8.7-8.7c0-4.8,3.9-8.7,8.7-8.7C13.6,118.5,17.5,122.4,17.5,127.3z
		"/>
	<polyline class="st0" points="143.2,51.6 143.2,89.1 105.7,89.1 	"/>
	<path class="st1" d="M96.4,78.8c5.7-5.7,14.9-5.7,20.6,0s5.7,14.9,0,20.6s-14.9,5.7-20.6,0C90.7,93.7,90.7,84.5,96.4,78.8z"/>
	<path class="st2" d="M155.1,37c4.4,4.4,4.4,11.7,0,16.1s-11.7,4.4-16.1,0"/>
	<path class="st1" d="M135.3,82.9c3.4-3.4,9-3.4,12.4,0s3.4,9,0,12.4s-9,3.4-12.4,0C131.8,91.9,131.8,86.3,135.3,82.9z"/>
	<g>
		<line class="st0" x1="56.3" y1="184.9" x2="56.3" y2="148.5"/>
		<path class="st2" d="M41.7,197.4c0-8.1,6.5-14.6,14.6-14.6s14.6,6.5,14.6,14.6"/>
		<path class="st1" d="M56.3,162.5c3.4,0,6.2,2.8,6.2,6.2s-2.8,6.2-6.2,6.2s-6.2-2.8-6.2-6.2S52.9,162.5,56.3,162.5z"/>
	</g>
	<g>
		<line class="st0" x1="91.2" y1="184.9" x2="91.2" y2="148.5"/>
		<path class="st2" d="M76.7,197.4c0-8.1,6.5-14.6,14.6-14.6s14.6,6.5,14.6,14.6"/>
		<path class="st1" d="M91.2,162.5c3.4,0,6.2,2.8,6.2,6.2s-2.8,6.2-6.2,6.2s-6.2-2.8-6.2-6.2C85.1,165.3,87.8,162.5,91.2,162.5z"/>
	</g>
	<path class="st3" d="M106.7,143.7c0,4.2-3.4,7.7-7.7,7.7H47.9c-4.2,0-7.7-3.4-7.7-7.7V95.8c0-4.2,3.4-7.7,7.7-7.7H99
		c4.2,0,7.7,3.4,7.7,7.7V143.7z"/>
	<rect x="51.7" y="99.7" class="st4" width="43.5" height="40.2"/>
	<rect x="62.1" y="104.1" class="st5" width="22.8" height="4.5"/>
	<g>
		<path class="st2" d="M115,11.7c8.1,0,14.6,6.5,14.6,14.6s-6.5,14.6-14.6,14.6s-14.6-6.5-14.6-14.6C100.4,18.2,106.9,11.7,115,11.7
			z"/>
		<path class="st2" d="M86.9,4.6c3.5,0,6.3,2.8,6.3,6.3s-2.8,6.3-6.3,6.3s-6.3-2.8-6.3-6.3S83.4,4.6,86.9,4.6z"/>
		<path class="st2" d="M130.1,47.8c3.5,0,6.3,2.8,6.3,6.3s-2.8,6.3-6.3,6.3s-6.3-2.8-6.3-6.3C123.7,50.6,126.6,47.8,130.1,47.8z"/>
		<g>
			<line class="st6" x1="108.9" y1="32.4" x2="134.6" y2="6.7"/>
			<path class="st3" d="M137.3,4c2.4,2.4,2.4,6.3,0,8.7s-6.3,2.4-8.7,0c-2.4-2.4-2.4-6.3,0-8.7C131,1.6,134.9,1.6,137.3,4z"/>
		</g>
		<path class="st3" d="M125.4,62.9c-3,3-7.9,3-10.9,0L78.4,26.7c-3-3-3-7.9,0-10.9L92,2.2c3-3,7.9-3,10.9,0L139,38.4
			c3,3,3,7.9,0,10.9L125.4,62.9z"/>
		
			<rect x="102.9" y="10.8" transform="matrix(0.7071 -0.7072 0.7072 0.7071 8.7982 86.3641)" class="st5" width="11.5" height="43.5"/>
		<rect x="93.2" y="17.4" transform="matrix(0.7072 -0.707 0.707 0.7072 13.6463 74.7429)" class="st7" width="7.7" height="7"/>
		<rect x="116.5" y="40.7" transform="matrix(0.707 -0.7072 0.7072 0.707 4.0066 98.0471)" class="st7" width="7.7" height="7"/>
		<path class="st5" d="M115.1,39.9c-3.8,3.8-9.9,3.8-13.7,0c-3.8-3.8-3.8-9.9,0-13.7"/>
		<path class="st4" d="M111.7,37.9c-2.3,2.3-6,2.3-8.3,0s-2.3-6,0-8.4"/>
	</g>
	<path class="st8" d="M61.8,35.4c0,1.7-1.4,3.1-3.1,3.1c-1.7,0-3.1-1.4-3.1-3.1c0-1.7,1.4-3.1,3.1-3.1
		C60.4,32.4,61.8,33.8,61.8,35.4z"/>
	<path class="st8" d="M134,145.5c0,2.4-1.9,4.3-4.3,4.3c-2.4,0-4.3-1.9-4.3-4.3c0-2.4,1.9-4.3,4.3-4.3
		C132.1,141.2,134,143.2,134,145.5z"/>
	<path class="st8" d="M25.6,66c0,3.1-2.5,5.6-5.6,5.6c-3.1,0-5.6-2.5-5.6-5.6c0-3.1,2.5-5.6,5.6-5.6C23.1,60.4,25.6,63,25.6,66z"/>
</g>
<path class="st9" d="M396.8,129"/>
</svg>
