<?xml version="1.0" encoding="utf-8"?>
<!-- Generator: Adobe Illustrator 21.1.0, SVG Export Plug-In . SVG Version: 6.00 Build 0)  -->
<svg version="1.1" id="search" xmlns="http://www.w3.org/2000/svg" xmlns:xlink="http://www.w3.org/1999/xlink" x="0px" y="0px"
	 viewBox="0 0 461 461" style="enable-background:new 0 0 461 461;" xml:space="preserve">
<style type="text/css">
	.st0{fill:#D3D3D3;}
</style>
<path class="st0" d="M18.5,461c-4.9,0-9.7-2-13.1-5.5c-3.5-3.5-5.4-8.1-5.4-13c0-5,1.9-9.6,5.5-13.1l106.3-106.3
	c-29.3-35.4-45.4-79.8-45.4-125.8C66.4,88.5,154.8,0,263.6,0S461,88.5,461,197.3s-88.5,197.3-197.3,197.3
	c-46,0-90.5-16.1-125.8-45.4L31.5,455.5C28,459,23.3,461,18.5,461z M263.8,37c-88.4,0-160.3,71.9-160.3,160.3
	s71.9,160.4,160.3,160.4c88.3,0,160.2-72,160.2-160.4S352.1,37,263.8,37z"/>
</svg>
