<?xml version="1.0" encoding="utf-8"?>
<!-- Generator: Adobe Illustrator 18.0.0, SVG Export Plug-In . SVG Version: 6.00 Build 0)  -->
<!DOCTYPE svg PUBLIC "-//W3C//DTD SVG 1.1//EN" "http://www.w3.org/Graphics/SVG/1.1/DTD/svg11.dtd">
<svg version="1.1" id="Layer_1" xmlns="http://www.w3.org/2000/svg" xmlns:xlink="http://www.w3.org/1999/xlink" x="0px" y="0px"
	 viewBox="458.4 0 331 595.3" enable-background="new 458.4 0 331 595.3" xml:space="preserve">
<path fill="#555555" d="M622.8,0.9c-1.9,0-4.1,1-6,2.9L459.2,252.3c-1.9,3.8-0.3,7.6,3.5,7.6H783c5.7,0,7.3-3.9,3.5-7.6L628.7,3.8
	C626.8,2.1,624.7,0.9,622.8,0.9z M464.4,335.4c-5.7,0-7.3,3.9-3.5,7.6L621,591.5c0,3.8,3.9,3.8,7.6,0L788.7,343
	c1.9-3.8-0.4-7.6-4.2-7.6L464.4,335.4L464.4,335.4z"/>
<g enable-background="new    ">
	<path d="M458.3,836.2c-0.9-1.4-2-2.7-3.3-3.7c-1.3-1-2.8-1.9-4.4-2.5c-1.6-0.6-3.4-0.9-5.2-0.9c-3.3,0-6.2,0.6-8.5,1.9
		s-4.2,3-5.7,5.2c-1.4,2.2-2.5,4.7-3.2,7.3c-0.6,2.8-1,5.6-1,8.6c0,2.8,0.4,5.6,1,8.2c0.6,2.7,1.8,5.1,3.2,7.2
		c1.4,2.2,3.3,3.8,5.7,5.2c2.3,1.3,5.2,1.9,8.5,1.9c4.6,0,8.1-1.4,10.6-4.2c2.5-2.8,4.1-6.5,4.7-10.9H475c-0.4,4.2-1.4,8-2.9,11.4
		c-1.5,3.4-3.7,6.3-6.2,8.6c-2.5,2.4-5.6,4.2-9,5.4c-3.4,1.3-7.2,1.9-11.4,1.9c-5.2,0-9.7-0.9-13.9-2.7c-4.1-1.8-7.6-4.3-10.4-7.3
		c-2.8-3.2-4.9-6.8-6.5-11c-1.5-4.2-2.3-8.9-2.3-13.7c0-5.1,0.8-9.7,2.3-13.9c1.5-4.3,3.7-8.1,6.5-11.3c2.8-3.2,6.3-5.7,10.4-7.6
		c4.1-1.8,8.7-2.8,13.9-2.8c3.7,0,7.2,0.5,10.5,1.6c3.3,1,6.2,2.7,8.9,4.7c2.7,2,4.8,4.6,6.5,7.6c1.6,3,2.8,6.5,3.2,10.4h-14.3
		C459.8,839.1,459.2,837.6,458.3,836.2z"/>
	<path d="M496.3,836.8v9h0.1c0.6-1.5,1.5-2.9,2.5-4.2c1-1.3,2.3-2.4,3.7-3.3c1.4-0.9,2.9-1.6,4.4-2.2c1.5-0.5,3.2-0.8,4.9-0.8
		c0.9,0,1.9,0.1,2.9,0.5v12.4c-0.6-0.1-1.4-0.3-2.3-0.4c-0.9-0.1-1.8-0.1-2.5-0.1c-2.4,0-4.6,0.4-6.2,1.3c-1.6,0.8-3,1.9-4.1,3.3
		s-1.8,3-2.2,4.9c-0.4,1.9-0.6,3.9-0.6,6.1v21.9h-13.4v-48.5H496.3z"/>
	<path d="M534.5,873.8c2,1.9,4.9,2.9,8.6,2.9c2.7,0,5.1-0.6,7-2c1.9-1.4,3.2-2.8,3.5-4.3h11.8c-1.9,5.8-4.8,10-8.6,12.5
		c-3.9,2.5-8.6,3.8-14.2,3.8c-3.8,0-7.3-0.6-10.4-1.9c-3-1.3-5.7-2.9-7.8-5.2c-2.2-2.3-3.8-4.9-4.9-8.1c-1.1-3.2-1.8-6.6-1.8-10.4
		c0-3.7,0.6-7.1,1.8-10.1c1.1-3.2,2.9-5.8,5.1-8.1c2.2-2.3,4.8-4.1,7.8-5.4c3-1.3,6.5-2,10.1-2c4.2,0,7.7,0.8,10.9,2.4
		c3,1.6,5.6,3.8,7.6,6.5c2,2.7,3.4,5.8,4.3,9.2c0.9,3.4,1.1,7.1,0.9,10.9H531C531.5,868.7,532.6,871.9,534.5,873.8z M549.7,848.2
		c-1.6-1.8-4.1-2.7-7.3-2.7c-2.2,0-3.9,0.4-5.3,1.1c-1.4,0.8-2.5,1.6-3.4,2.7c-0.9,1-1.4,2.2-1.8,3.4c-0.4,1.1-0.5,2.3-0.6,3.2H553
		C552.4,852.5,551.4,850,549.7,848.2z"/>
	<path d="M573.8,851.8c0.1-3.2,1-5.7,2.4-7.8c1.4-2,3.2-3.8,5.3-4.9c2.2-1.3,4.6-2.2,7.2-2.7c2.7-0.5,5.3-0.8,8.1-0.8
		c2.4,0,4.9,0.1,7.5,0.5c2.5,0.4,4.8,1,6.8,2s3.8,2.4,5.1,4.2c1.3,1.8,2,4.2,2,7.1v25.3c0,2.2,0.1,4.3,0.4,6.3
		c0.3,2,0.6,3.5,1.3,4.6h-13.5c-0.3-0.8-0.5-1.5-0.6-2.3c-0.1-0.8-0.3-1.6-0.4-2.4c-2.2,2.2-4.7,3.8-7.6,4.6
		c-2.9,0.9-5.8,1.3-8.9,1.3c-2.3,0-4.4-0.3-6.5-0.9c-2-0.5-3.8-1.4-5.3-2.7c-1.5-1.1-2.7-2.7-3.5-4.6c-0.9-1.8-1.3-3.9-1.3-6.5
		c0-2.8,0.5-5.1,1.5-6.8s2.3-3.2,3.8-4.3c1.5-1,3.3-1.9,5.3-2.4c2-0.5,3.9-1,6-1.3s3.9-0.5,6-0.8c1.9-0.1,3.7-0.5,5.2-0.9
		c1.5-0.4,2.7-0.9,3.5-1.6c0.9-0.8,1.3-1.8,1.3-3.2c0-1.4-0.3-2.5-0.8-3.4s-1.1-1.5-1.9-2c-0.8-0.5-1.6-0.8-2.8-0.9
		c-1-0.1-2.2-0.3-3.3-0.3c-2.7,0-4.7,0.5-6.2,1.6s-2.4,3-2.7,5.7h-13.4V851.8z M604.7,861.6c-0.5,0.5-1.3,0.9-2.2,1.1
		c-0.9,0.3-1.8,0.5-2.8,0.8c-1,0.1-2,0.4-3,0.5c-1,0.1-2.2,0.3-3.2,0.5c-1,0.1-2,0.4-2.9,0.8c-1,0.3-1.8,0.8-2.5,1.3
		c-0.8,0.5-1.3,1.3-1.8,2c-0.4,0.8-0.6,1.9-0.6,3.2c0,1.1,0.3,2.2,0.6,3c0.4,0.8,1,1.5,1.8,1.9c0.8,0.5,1.6,0.8,2.7,1
		c1,0.1,2,0.3,3.2,0.3c2.7,0,4.7-0.4,6.1-1.3c1.4-0.9,2.5-1.9,3.2-3.2c0.6-1.3,1.1-2.4,1.3-3.7c0.1-1.3,0.3-2.3,0.3-3V861.6z"/>
	<path d="M655.2,836.8v9h-9.7v24.1c0,2.3,0.4,3.8,1.1,4.6c0.8,0.8,2.3,1.1,4.6,1.1c0.8,0,1.5,0,2.2-0.1c0.6,0,1.4-0.1,2-0.3v10.4
		c-1.1,0.1-2.4,0.3-3.8,0.4c-1.4,0-2.8,0.1-4.1,0.1c-2,0-4.1-0.1-6-0.4c-1.9-0.3-3.5-0.9-4.9-1.6c-1.4-0.8-2.5-2-3.3-3.5
		c-0.8-1.5-1.3-3.5-1.3-6v-28.7h-8.1v-9h8.1v-14.6h13.4v14.6H655.2z"/>
	<path d="M675.9,873.8c2,1.9,4.9,2.9,8.6,2.9c2.7,0,5.1-0.6,7-2c1.9-1.4,3.2-2.8,3.5-4.3h11.8c-1.9,5.8-4.8,10-8.6,12.5
		c-3.9,2.5-8.6,3.8-14.2,3.8c-3.8,0-7.3-0.6-10.4-1.9c-3-1.3-5.7-2.9-7.8-5.2c-2.2-2.3-3.8-4.9-4.9-8.1c-1.1-3.2-1.8-6.6-1.8-10.4
		c0-3.7,0.6-7.1,1.8-10.1c1.1-3.2,2.9-5.8,5.1-8.1c2.2-2.3,4.8-4.1,7.8-5.4c3-1.3,6.5-2,10.1-2c4.2,0,7.7,0.8,10.9,2.4
		c3,1.6,5.6,3.8,7.6,6.5c2,2.7,3.4,5.8,4.3,9.2c0.9,3.4,1.1,7.1,0.9,10.9h-35.2C672.8,868.7,673.9,871.9,675.9,873.8z M691,848.2
		c-1.6-1.8-4.1-2.7-7.3-2.7c-2.2,0-3.9,0.4-5.3,1.1c-1.4,0.8-2.5,1.6-3.4,2.7c-0.9,1-1.4,2.2-1.8,3.4c-0.4,1.1-0.5,2.3-0.6,3.2h21.8
		C693.7,852.5,692.6,850,691,848.2z"/>
	<path d="M750.3,879.2c-1.5,2.7-3.7,4.6-6.2,5.7c-2.5,1.1-5.4,1.8-8.6,1.8c-3.7,0-6.8-0.8-9.6-2.2c-2.8-1.4-5.1-3.3-6.8-5.7
		s-3.2-5.2-4.1-8.4s-1.4-6.5-1.4-9.7c0-3.3,0.5-6.5,1.4-9.5c0.9-3,2.3-5.7,4.1-8.1c1.8-2.3,4.1-4.2,6.7-5.6c2.7-1.4,5.8-2.2,9.4-2.2
		c2.9,0,5.7,0.6,8.2,1.9c2.7,1.3,4.7,3,6.2,5.4h0.1v-24.4H763v67.2h-12.7v-6.2h-0.1V879.2z M749.6,855.2c-0.4-1.9-1-3.5-1.9-4.9
		c-0.9-1.4-2-2.5-3.5-3.4c-1.4-0.9-3.3-1.3-5.4-1.3s-4.1,0.4-5.6,1.3s-2.7,2-3.7,3.5c-0.9,1.4-1.5,3-2,4.9c-0.4,1.9-0.6,3.8-0.6,5.8
		c0,1.9,0.3,3.8,0.6,5.7c0.4,1.9,1.1,3.5,2.2,5.1c1,1.5,2.2,2.7,3.7,3.5c1.5,0.9,3.3,1.4,5.3,1.4c2.2,0,4.1-0.4,5.6-1.3
		c1.5-0.9,2.7-2,3.5-3.5c0.9-1.5,1.5-3.2,1.9-5.1c0.4-1.9,0.5-3.8,0.5-5.8C750.3,859,750,857.1,749.6,855.2z"/>
	<path d="M812.8,818.2v24.4h0.1c1.6-2.5,3.8-4.3,6.6-5.6c2.8-1.1,5.7-1.8,8.7-1.8c2.4,0,4.8,0.5,7.2,1.5c2.4,1,4.6,2.5,6.5,4.6
		c1.9,2,3.4,4.7,4.7,8c1.1,3.3,1.8,7.1,1.8,11.5c0,4.4-0.6,8.4-1.8,11.5c-1.1,3.3-2.8,6-4.7,8c-1.9,2-4.1,3.7-6.5,4.6
		c-2.4,1-4.8,1.5-7.2,1.5c-3.5,0-6.8-0.5-9.6-1.6c-2.8-1.1-4.9-3-6.5-5.7H812v6.2h-12.7v-67.2h13.4V818.2z M834.4,855.3
		c-0.4-1.9-1.1-3.5-2-4.9c-0.9-1.4-2.2-2.5-3.5-3.4c-1.4-0.9-3.2-1.3-5.2-1.3c-1.9,0-3.7,0.4-5.1,1.3c-1.4,0.9-2.7,2-3.5,3.4
		c-0.9,1.4-1.6,3.2-2,4.9c-0.4,1.9-0.6,3.9-0.6,6s0.3,3.9,0.6,5.8c0.4,1.9,1.1,3.5,2,4.9c0.9,1.4,2.2,2.5,3.5,3.4
		c1.4,0.9,3.2,1.3,5.1,1.3c2,0,3.7-0.4,5.2-1.3c1.5-0.9,2.5-2,3.5-3.4c0.9-1.4,1.6-3.2,2-4.9c0.4-1.9,0.6-3.8,0.6-5.8
		C835.1,859.1,834.8,857.2,834.4,855.3z"/>
	<path d="M875,900c-2.5,1.6-6.2,2.5-10.8,2.5c-1.4,0-2.8,0-4.1-0.1c-1.4-0.1-2.7-0.3-4.1-0.4v-11c1.3,0.1,2.5,0.3,3.9,0.4
		c1.3,0.1,2.7,0.1,3.9,0.1c1.8-0.1,3-0.9,3.9-2c0.9-1.1,1.3-2.5,1.3-3.9c0-1-0.1-2-0.5-3l-17.2-45.7h14.2l11,33.3h0.1l10.8-33.3
		h13.8l-20.4,54.7C879.5,895.5,877.5,898.4,875,900z"/>
	<path d="M965,885.6v-6.8h-0.3c-1.6,2.8-3.9,4.8-6.6,6.1c-2.7,1.3-5.4,1.9-8.2,1.9c-3.5,0-6.5-0.5-8.9-1.4c-2.3-0.9-4.1-2.3-5.4-4.1
		c-1.3-1.8-2.3-3.8-2.8-6.3c-0.5-2.5-0.8-5.2-0.8-8.2v-29.9h13.4v27.5c0,4.1,0.6,7,1.9,9s3.5,2.9,6.7,2.9c3.7,0,6.3-1.1,8-3.3
		c1.6-2.2,2.4-5.7,2.4-10.6v-25.4h13.4v48.7H965z"/>
	<path d="M999.1,873.4c0.6,1,1.4,1.9,2.3,2.5s2,1.1,3.3,1.5c1.3,0.3,2.5,0.5,3.8,0.5c0.9,0,1.9-0.1,2.9-0.4s2-0.5,2.8-1
		c0.9-0.5,1.5-1.1,2.2-1.9c0.5-0.8,0.9-1.8,0.9-2.9c0-2-1.4-3.5-4.1-4.6c-2.7-1-6.3-2-11.1-3c-1.9-0.4-3.8-1-5.7-1.5
		c-1.9-0.6-3.5-1.4-4.9-2.4c-1.4-1-2.7-2.2-3.5-3.7s-1.3-3.3-1.3-5.4c0-3.2,0.6-5.7,1.9-7.7c1.3-2,2.8-3.5,4.8-4.8
		c2-1.1,4.3-2,6.8-2.4c2.5-0.5,5.1-0.8,7.7-0.8c2.7,0,5.2,0.3,7.7,0.8c2.5,0.5,4.7,1.4,6.6,2.5c1.9,1.1,3.5,2.8,4.8,4.8
		c1.3,2,2,4.4,2.3,7.5h-12.7c-0.1-2.5-1.1-4.3-2.9-5.2c-1.8-0.9-3.8-1.4-6.2-1.4c-0.8,0-1.5,0-2.4,0.1c-0.9,0.1-1.6,0.3-2.4,0.6
		c-0.8,0.3-1.4,0.8-1.9,1.4c-0.5,0.6-0.8,1.4-0.8,2.4c0,1.1,0.4,2.2,1.3,2.9s2,1.4,3.4,1.9c1.4,0.5,3,0.9,4.8,1.3
		c1.8,0.4,3.7,0.8,5.6,1.3c1.9,0.4,3.8,1,5.7,1.6c1.9,0.6,3.5,1.5,4.9,2.5c1.4,1,2.7,2.3,3.5,3.9c0.9,1.5,1.3,3.4,1.3,5.7
		c0,3.2-0.6,6-1.9,8.1s-2.9,3.9-5.1,5.2c-2.2,1.3-4.4,2.3-7.1,2.8c-2.7,0.5-5.4,0.8-8.1,0.8c-2.8,0-5.6-0.3-8.2-0.9
		c-2.7-0.5-5.1-1.5-7.2-2.8c-2.2-1.3-3.8-3-5.2-5.2c-1.4-2.2-2-4.9-2.2-8.1h12.7C998.3,871.1,998.5,872.4,999.1,873.4z"/>
	<path d="M1052.8,873.8c2,1.9,4.9,2.9,8.6,2.9c2.7,0,5.1-0.6,7-2c1.9-1.4,3.2-2.8,3.5-4.3h11.8c-1.9,5.8-4.8,10-8.6,12.5
		c-3.9,2.5-8.6,3.8-14.2,3.8c-3.8,0-7.3-0.6-10.4-1.9c-3-1.3-5.7-2.9-7.8-5.2s-3.8-4.9-4.9-8.1c-1.1-3.2-1.8-6.6-1.8-10.4
		c0-3.7,0.6-7.1,1.8-10.1c1.1-3.2,2.9-5.8,5.1-8.1c2.2-2.3,4.8-4.1,7.8-5.4s6.5-2,10.1-2c4.2,0,7.7,0.8,10.9,2.4
		c3,1.6,5.6,3.8,7.6,6.5c2,2.7,3.4,5.8,4.3,9.2c0.9,3.4,1.1,7.1,0.9,10.9h-34.9C1049.7,868.7,1050.8,871.9,1052.8,873.8z
		 M1067.9,848.2c-1.6-1.8-4.1-2.7-7.3-2.7c-2.2,0-3.9,0.4-5.3,1.1c-1.4,0.8-2.5,1.6-3.4,2.7c-0.9,1-1.4,2.2-1.8,3.4
		c-0.4,1.1-0.5,2.3-0.6,3.2h21.8C1070.7,852.5,1069.5,850,1067.9,848.2z"/>
	<path d="M1093,829.2v-11h13.4v11H1093z M1106.3,836.8v48.7h-13.4v-48.7H1106.3z"/>
	<path d="M1140.1,845.6c-2.2,0-3.9,0.5-5.3,1.5c-1.4,1-2.7,2.3-3.5,3.8s-1.5,3.3-1.9,5.1c-0.4,1.9-0.5,3.7-0.5,5.6
		c0,1.8,0.1,3.5,0.5,5.3c0.4,1.8,1,3.4,1.9,4.9c0.9,1.5,2,2.7,3.4,3.7c1.4,0.9,3.2,1.4,5.3,1.4c3.2,0,5.7-0.9,7.3-2.7
		c1.8-1.8,2.8-4.2,3.3-7.2h12.9c-0.9,6.5-3.4,11.4-7.6,14.8c-4.2,3.4-9.5,5.1-16,5.1c-3.7,0-7-0.6-10-1.9c-3-1.3-5.7-2.9-7.7-5.2
		c-2.2-2.2-3.8-4.8-4.9-7.8c-1.1-3-1.8-6.3-1.8-10c0-3.8,0.5-7.2,1.6-10.5c1.1-3.3,2.7-6.1,4.8-8.4c2.2-2.4,4.7-4.2,7.8-5.6
		c3-1.3,6.6-2,10.5-2c2.9,0,5.7,0.4,8.4,1.1c2.7,0.8,5.1,1.9,7.2,3.4c2.2,1.5,3.8,3.4,5.2,5.7c1.3,2.3,2,5.1,2.3,8.1h-13
		C1149.2,848.4,1145.9,845.6,1140.1,845.6z"/>
	<path d="M1171.2,850.6c1.1-3.2,2.9-5.8,5.1-8.1c2.2-2.3,4.8-3.9,7.8-5.2c3-1.3,6.6-1.9,10.4-1.9c3.8,0,7.3,0.6,10.4,1.9
		c3.2,1.3,5.8,2.9,8,5.2s3.9,4.9,5.1,8.1c1.1,3.2,1.8,6.7,1.8,10.6c0,3.9-0.6,7.5-1.8,10.5c-1.1,3.2-2.9,5.8-5.1,8.1
		c-2.2,2.3-4.8,3.9-8,5.2c-3.2,1.1-6.6,1.8-10.4,1.8c-3.8,0-7.3-0.6-10.4-1.8c-3-1.1-5.7-2.9-7.8-5.2s-3.9-4.9-5.1-8.1
		c-1.1-3.2-1.8-6.7-1.8-10.5C1169.4,857.3,1170.1,853.8,1171.2,850.6z M1183.4,867c0.4,1.9,1,3.5,1.9,4.9c0.9,1.5,2.2,2.7,3.7,3.5
		c1.5,0.9,3.4,1.3,5.7,1.3s4.2-0.4,5.7-1.3c1.5-0.9,2.8-2,3.7-3.5s1.5-3.2,1.9-4.9c0.4-1.9,0.5-3.8,0.5-5.7c0-1.9-0.1-3.9-0.5-5.7
		c-0.4-1.9-1-3.5-1.9-4.9c-0.9-1.4-2.2-2.7-3.7-3.5c-1.5-0.9-3.4-1.4-5.7-1.4s-4.2,0.5-5.7,1.4c-1.5,0.9-2.7,2-3.7,3.5
		c-0.9,1.4-1.5,3.2-1.9,4.9c-0.4,1.9-0.5,3.8-0.5,5.7C1182.8,863.2,1183,865.1,1183.4,867z"/>
	<path d="M1241.2,836.8v6.8h0.3c1.6-2.8,3.9-4.9,6.6-6.2s5.4-1.9,8.2-1.9c3.5,0,6.5,0.5,8.9,1.5c2.3,1,4.1,2.3,5.4,4.1
		c1.3,1.8,2.3,3.8,2.8,6.3s0.8,5.2,0.8,8.2v30h-13.4v-27.5c0-4.1-0.6-7-1.9-9c-1.3-2-3.5-2.9-6.7-2.9c-3.7,0-6.3,1.1-8,3.3
		c-1.6,2.2-2.4,5.7-2.4,10.6v25.6h-13.4v-49H1241.2z"/>
	<path d="M1284.8,829.2v-11h13.4v11H1284.8z M1298.1,836.8v48.7h-13.4v-48.7H1298.1z"/>
	<path d="M1331.9,845.6c-2.2,0-3.9,0.5-5.3,1.5c-1.4,1-2.7,2.3-3.5,3.8s-1.5,3.3-1.9,5.1c-0.4,1.9-0.5,3.7-0.5,5.6
		c0,1.8,0.1,3.5,0.5,5.3c0.4,1.8,1,3.4,1.9,4.9c0.9,1.5,2,2.7,3.4,3.7c1.4,0.9,3.2,1.4,5.3,1.4c3.2,0,5.7-0.9,7.3-2.7
		c1.8-1.8,2.8-4.2,3.3-7.2h12.9c-0.9,6.5-3.4,11.4-7.6,14.8c-4.2,3.4-9.5,5.1-16,5.1c-3.7,0-7-0.6-10-1.9c-3-1.3-5.7-2.9-7.7-5.2
		c-2.2-2.2-3.8-4.8-4.9-7.8c-1.1-3-1.8-6.3-1.8-10c0-3.8,0.5-7.2,1.6-10.5c1.1-3.3,2.7-6.1,4.8-8.4c2.2-2.4,4.7-4.2,7.8-5.6
		c3-1.3,6.6-2,10.5-2c2.9,0,5.7,0.4,8.4,1.1c2.7,0.8,5.1,1.9,7.2,3.4c2.2,1.5,3.8,3.4,5.2,5.7c1.3,2.3,2,5.1,2.3,8.1h-13
		C1341,848.4,1337.7,845.6,1331.9,845.6z"/>
	<path d="M1378.1,871v14.6h-14.8V871H1378.1z"/>
	<path d="M1412.1,845.6c-2.2,0-3.9,0.5-5.3,1.5c-1.4,1-2.7,2.3-3.5,3.8s-1.5,3.3-1.9,5.1c-0.4,1.9-0.5,3.7-0.5,5.6
		c0,1.8,0.1,3.5,0.5,5.3c0.4,1.8,1,3.4,1.9,4.9c0.9,1.5,2,2.7,3.4,3.7c1.4,0.9,3.2,1.4,5.3,1.4c3.2,0,5.7-0.9,7.3-2.7
		c1.8-1.8,2.8-4.2,3.3-7.2h12.9c-0.9,6.5-3.4,11.4-7.6,14.8c-4.2,3.4-9.5,5.1-16,5.1c-3.7,0-7-0.6-10-1.9c-3-1.3-5.7-2.9-7.7-5.2
		c-2.2-2.2-3.8-4.8-4.9-7.8c-1.1-3-1.8-6.3-1.8-10c0-3.8,0.5-7.2,1.6-10.5c1.1-3.3,2.7-6.1,4.8-8.4c2.2-2.4,4.7-4.2,7.8-5.6
		c3-1.3,6.6-2,10.5-2c2.9,0,5.7,0.4,8.4,1.1c2.7,0.8,5.1,1.9,7.2,3.4c2.2,1.5,3.8,3.4,5.2,5.7c1.3,2.3,2,5.1,2.3,8.1h-13
		C1421.2,848.4,1417.9,845.6,1412.1,845.6z"/>
	<path d="M1443.3,850.6c1.1-3.2,2.9-5.8,5.1-8.1c2.2-2.3,4.8-3.9,7.8-5.2c3-1.3,6.6-1.9,10.4-1.9c3.8,0,7.3,0.6,10.4,1.9
		c3.2,1.3,5.8,2.9,8,5.2c2.2,2.3,3.9,4.9,5.1,8.1c1.1,3.2,1.8,6.7,1.8,10.6c0,3.9-0.6,7.5-1.8,10.5c-1.1,3.2-2.9,5.8-5.1,8.1
		c-2.2,2.3-4.8,3.9-8,5.2c-3.2,1.1-6.6,1.8-10.4,1.8c-3.8,0-7.3-0.6-10.4-1.8c-3-1.1-5.7-2.9-7.8-5.2c-2.2-2.3-3.9-4.9-5.1-8.1
		c-1.1-3.2-1.8-6.7-1.8-10.5C1441.5,857.3,1442.1,853.8,1443.3,850.6z M1455.4,867c0.4,1.9,1,3.5,1.9,4.9c0.9,1.5,2.2,2.7,3.7,3.5
		c1.5,0.9,3.4,1.3,5.7,1.3s4.2-0.4,5.7-1.3c1.5-0.9,2.8-2,3.7-3.5s1.5-3.2,1.9-4.9c0.4-1.9,0.5-3.8,0.5-5.7c0-1.9-0.1-3.9-0.5-5.7
		c-0.4-1.9-1-3.5-1.9-4.9c-0.9-1.4-2.2-2.7-3.7-3.5c-1.5-0.9-3.4-1.4-5.7-1.4s-4.2,0.5-5.7,1.4c-1.5,0.9-2.7,2-3.7,3.5
		c-0.9,1.4-1.5,3.2-1.9,4.9c-0.4,1.9-0.5,3.8-0.5,5.7C1454.8,863.2,1455,865.1,1455.4,867z"/>
	<path d="M1513.5,836.8v6.6h0.1c1.8-2.5,3.9-4.4,6.3-5.8c2.5-1.4,5.3-2,8.5-2c3,0,6,0.6,8.5,1.8c2.5,1.1,4.4,3.3,5.8,6.3
		c1.4-2.2,3.4-4.1,6-5.7c2.5-1.6,5.4-2.4,8.9-2.4c2.5,0,4.9,0.3,7.2,0.9c2.2,0.6,4.1,1.6,5.7,3c1.5,1.4,2.8,3.2,3.7,5.4
		s1.3,4.9,1.3,8.1v32.5H1562V858c0-1.6,0-3.2-0.1-4.6s-0.5-2.7-1-3.8c-0.5-1-1.4-1.9-2.5-2.5c-1.1-0.6-2.5-0.9-4.4-0.9
		s-3.4,0.4-4.6,1.1c-1.1,0.8-2,1.6-2.8,2.8c-0.6,1.1-1.1,2.5-1.3,3.9c-0.3,1.5-0.4,2.9-0.4,4.4v27.1h-13.4v-27.3
		c0-1.4,0-2.9-0.1-4.3c-0.1-1.4-0.4-2.7-0.8-3.9c-0.5-1.1-1.3-2.2-2.4-2.9c-1.1-0.8-2.7-1.1-4.8-1.1c-0.6,0-1.5,0.1-2.5,0.4
		c-1,0.3-2,0.8-3,1.6c-1,0.8-1.8,1.9-2.5,3.4c-0.6,1.5-1,3.4-1,5.8v28.2h-13.4v-48.6H1513.5z"/>
</g>
<g enable-background="new    ">
	<path d="M408.7,940v-9h8v-3.8c0-4.3,1.4-7.8,4.1-10.6c2.7-2.8,6.8-4.2,12.3-4.2c1.1,0,2.4,0,3.5,0.1s2.4,0.1,3.5,0.3v10
		c-1.5-0.1-3.2-0.3-4.9-0.3c-1.8,0-3.2,0.4-3.9,1.3c-0.8,0.9-1.1,2.3-1.1,4.3v2.9h9.2v9h-9.2v39.8h-13.4V940H408.7z"/>
	<path d="M457.9,931v9h0.1c0.6-1.5,1.5-2.9,2.5-4.2c1-1.3,2.3-2.4,3.7-3.3c1.4-0.9,2.9-1.6,4.4-2.2c1.5-0.5,3.2-0.8,4.9-0.8
		c0.9,0,1.9,0.1,2.9,0.5v12.4c-0.6-0.1-1.4-0.3-2.3-0.4c-0.9-0.1-1.8-0.1-2.5-0.1c-2.4,0-4.6,0.4-6.2,1.3c-1.6,0.8-3,1.9-4.1,3.3
		s-1.8,3-2.2,4.9c-0.4,1.9-0.6,3.9-0.6,6.1v21.9h-13.4v-48.7h12.7V931z"/>
	<path d="M482.1,944.8c1.1-3.2,2.9-5.8,5.1-8.1c2.2-2.3,4.8-3.9,8-5.2c3-1.3,6.6-1.9,10.4-1.9c3.8,0,7.3,0.6,10.4,1.9
		c3.2,1.3,5.8,2.9,8,5.2c2.2,2.3,3.9,4.9,5.1,8.1s1.8,6.7,1.8,10.6c0,3.9-0.6,7.5-1.8,10.5c-1.1,3.2-2.9,5.8-5.1,8.1
		c-2.2,2.3-4.8,3.9-8,5.2c-3.2,1.1-6.6,1.8-10.4,1.8c-3.8,0-7.3-0.6-10.4-1.8c-3-1.1-5.7-2.9-8-5.2c-2.2-2.3-3.9-4.9-5.1-8.1
		s-1.8-6.7-1.8-10.5C480.3,951.5,481,948,482.1,944.8z M494.3,961.2c0.4,1.9,1,3.5,1.9,4.9c0.9,1.5,2.2,2.7,3.7,3.5
		c1.5,0.9,3.4,1.3,5.7,1.3s4.2-0.4,5.7-1.3c1.5-0.9,2.8-2,3.7-3.5c0.9-1.5,1.5-3.2,1.9-4.9c0.4-1.9,0.5-3.8,0.5-5.7
		c0-1.9-0.1-3.9-0.5-5.7c-0.4-1.9-1-3.5-1.9-4.9c-0.9-1.4-2.2-2.7-3.7-3.5c-1.5-0.9-3.4-1.4-5.7-1.4s-4.2,0.5-5.7,1.4
		c-1.5,0.9-2.7,2-3.7,3.5c-0.9,1.4-1.5,3.2-1.9,4.9c-0.4,1.9-0.5,3.8-0.5,5.7C493.8,957.4,493.9,959.3,494.3,961.2z"/>
	<path d="M552.4,931v6.6h0.1c1.8-2.5,3.9-4.4,6.3-5.8c2.5-1.4,5.3-2,8.5-2c3,0,6,0.6,8.5,1.8s4.4,3.3,5.8,6.3c1.4-2.2,3.4-4.1,6-5.7
		c2.5-1.6,5.4-2.4,8.9-2.4c2.5,0,4.9,0.3,7.2,0.9c2.2,0.6,4.1,1.6,5.7,3c1.5,1.4,2.8,3.2,3.7,5.4c0.9,2.3,1.3,4.9,1.3,8.1v32.5
		h-13.4v-27.6c0-1.6-0.1-3.2-0.1-4.6c-0.1-1.4-0.5-2.7-1-3.8c-0.5-1-1.4-1.9-2.5-2.5s-2.5-0.9-4.4-0.9c-1.9,0-3.4,0.4-4.6,1.1
		c-1.1,0.8-2,1.6-2.8,2.8c-0.6,1.1-1.1,2.5-1.3,3.9c-0.3,1.5-0.4,2.9-0.4,4.4v27.1h-13.4v-27.3c0-1.4,0-2.9-0.1-4.3
		c0-1.4-0.4-2.7-0.8-3.9c-0.5-1.1-1.3-2.2-2.4-2.9c-1.1-0.8-2.7-1.1-4.8-1.1c-0.6,0-1.5,0.1-2.5,0.4s-2,0.8-3,1.6
		c-1,0.8-1.8,1.9-2.5,3.4c-0.6,1.5-1,3.4-1,5.8v28.2h-13.4v-48.7h12.7V931z"/>
	<path d="M677.7,931v9H668v24.1c0,2.3,0.4,3.8,1.1,4.6c0.8,0.8,2.3,1.1,4.6,1.1c0.8,0,1.5,0,2.2-0.1c0.6,0,1.4-0.1,2-0.3v10.4
		c-1.1,0.1-2.4,0.3-3.8,0.4c-1.4,0-2.8,0.1-4.1,0.1c-2,0-4.1-0.1-6-0.4c-1.9-0.3-3.5-0.9-4.9-1.6c-1.4-0.8-2.5-2-3.3-3.5
		c-0.8-1.5-1.3-3.5-1.3-6V940h-8.1v-9h8.1v-14.6H668V931H677.7z"/>
	<path d="M697.5,912.4v25.3h0.3c1.6-2.8,3.9-4.9,6.5-6.2c2.7-1.3,5.2-1.9,7.7-1.9c3.5,0,6.5,0.5,8.9,1.5c2.3,1,4.1,2.3,5.4,4.1
		c1.3,1.8,2.3,3.8,2.8,6.3c0.5,2.5,0.8,5.2,0.8,8.2v30h-13.4v-27.5c0-4.1-0.6-7-1.9-9c-1.3-2-3.5-2.9-6.7-2.9c-3.7,0-6.3,1.1-8,3.3
		c-1.6,2.2-2.4,5.7-2.4,10.6v25.6h-13.4v-67.2h13.5V912.4z"/>
	<path d="M754.3,968c2,1.9,4.9,2.9,8.6,2.9c2.7,0,5.1-0.6,7-2c1.9-1.4,3.2-2.8,3.5-4.3h11.8c-1.9,5.8-4.8,10-8.6,12.5
		c-3.9,2.5-8.6,3.8-14.2,3.8c-3.8,0-7.3-0.6-10.4-1.9c-3-1.3-5.7-2.9-7.8-5.2c-2.2-2.3-3.8-4.9-4.9-8.1s-1.8-6.6-1.8-10.4
		c0-3.7,0.6-7.1,1.8-10.1c1.1-3.2,2.9-5.8,5.1-8.1c2.2-2.3,4.8-4.1,7.8-5.4s6.5-2,10.1-2c4.2,0,7.7,0.8,10.9,2.4
		c3,1.6,5.6,3.8,7.6,6.5c2,2.7,3.4,5.8,4.3,9.2c0.9,3.4,1.1,7.1,0.9,10.9h-35.2C751.1,962.9,752.3,966.1,754.3,968z M769.4,942.4
		c-1.6-1.8-4.1-2.7-7.3-2.7c-2.2,0-3.9,0.4-5.3,1.1c-1.4,0.8-2.5,1.6-3.4,2.7c-0.9,1-1.4,2.2-1.8,3.4c-0.4,1.1-0.5,2.3-0.6,3.2h21.8
		C772.2,946.7,771,944.2,769.4,942.4z"/>
	<path d="M836.3,912.4l28.1,45.1h0.1v-45.1h13.8v67.2h-14.8l-28-45.1h-0.1v45.1h-13.8v-67.2H836.3z"/>
	<path d="M890.3,944.8c1.1-3.2,2.9-5.8,5.1-8.1c2.2-2.3,4.8-3.9,7.8-5.2c3-1.3,6.6-1.9,10.4-1.9c3.8,0,7.3,0.6,10.4,1.9
		c3.2,1.3,5.8,2.9,8,5.2s3.9,4.9,5.1,8.1c1.1,3.2,1.8,6.7,1.8,10.6c0,3.9-0.6,7.5-1.8,10.5c-1.1,3.2-2.9,5.8-5.1,8.1
		c-2.2,2.3-4.8,3.9-8,5.2c-3.2,1.1-6.6,1.8-10.4,1.8c-3.8,0-7.3-0.6-10.4-1.8c-3-1.1-5.7-2.9-7.8-5.2c-2.2-2.3-3.9-4.9-5.1-8.1
		s-1.8-6.7-1.8-10.5C888.5,951.5,889.1,948,890.3,944.8z M902.4,961.2c0.4,1.9,1,3.5,1.9,4.9c0.9,1.5,2.2,2.7,3.7,3.5
		c1.5,0.9,3.4,1.3,5.7,1.3s4.2-0.4,5.7-1.3s2.8-2,3.7-3.5c0.9-1.5,1.5-3.2,1.9-4.9c0.4-1.9,0.5-3.8,0.5-5.7c0-1.9-0.1-3.9-0.5-5.7
		c-0.4-1.9-1-3.5-1.9-4.9s-2.2-2.7-3.7-3.5s-3.4-1.4-5.7-1.4s-4.2,0.5-5.7,1.4c-1.5,0.9-2.7,2-3.7,3.5c-0.9,1.4-1.5,3.2-1.9,4.9
		c-0.4,1.9-0.5,3.8-0.5,5.7C901.9,957.4,902,959.3,902.4,961.2z"/>
	<path d="M980.5,979.8v-6.8h-0.3c-1.6,2.8-3.9,4.8-6.6,6.1c-2.7,1.3-5.4,1.9-8.2,1.9c-3.5,0-6.5-0.5-8.9-1.4
		c-2.3-0.9-4.1-2.3-5.4-4.1c-1.3-1.8-2.3-3.8-2.8-6.3c-0.5-2.5-0.8-5.2-0.8-8.2v-30h13.3v27.5c0,4.1,0.6,7,1.9,9
		c1.3,2,3.5,2.9,6.7,2.9c3.7,0,6.3-1.1,8-3.3c1.6-2.2,2.4-5.7,2.4-10.6v-25.6h13.4v48.7h-12.8V979.8z"/>
	<path d="M1016.1,931v6.8h0.3c1.6-2.8,3.9-4.9,6.6-6.2c2.7-1.3,5.4-1.9,8.2-1.9c3.5,0,6.5,0.5,8.9,1.5c2.3,1,4.1,2.3,5.4,4.1
		c1.3,1.8,2.3,3.8,2.8,6.3s0.8,5.2,0.8,8.2v30h-13.4v-27.5c0-4.1-0.6-7-1.9-9c-1.3-2-3.5-2.9-6.7-2.9c-3.7,0-6.3,1.1-8,3.3
		c-1.6,2.2-2.4,5.7-2.4,10.6V980h-13.4v-48.7h12.9V931z"/>
	<path d="M1117.3,912.4c4.2,0,7.8,0.6,10.8,1.9c2.9,1.3,5.3,2.8,7.2,4.8c1.9,2,3.2,4.3,4.1,6.8s1.3,5.2,1.3,8c0,2.7-0.4,5.3-1.3,8
		c-0.9,2.7-2.2,4.9-4.1,7c-1.9,2-4.3,3.7-7.2,4.8c-2.9,1.3-6.6,1.9-10.8,1.9h-15.6v24.1h-14.8v-67.2H1117.3z M1113.2,944.1
		c1.6,0,3.3-0.1,4.9-0.4c1.5-0.3,2.9-0.8,4.2-1.5c1.1-0.8,2.2-1.8,2.9-3c0.8-1.3,1.1-3,1.1-5.2c0-2.2-0.4-3.9-1.1-5.2
		c-0.8-1.3-1.6-2.3-2.9-3c-1.1-0.8-2.5-1.3-4.2-1.5c-1.5-0.3-3.2-0.4-4.9-0.4h-11.5v20.1h11.5V944.1z"/>
	<path d="M1161.1,931v9h0.1c0.6-1.5,1.5-2.9,2.5-4.2c1-1.3,2.3-2.4,3.7-3.3c1.4-0.9,2.9-1.6,4.4-2.2c1.5-0.5,3.2-0.8,4.9-0.8
		c0.9,0,1.9,0.1,2.9,0.5v12.4c-0.6-0.1-1.4-0.3-2.3-0.4c-0.9-0.1-1.8-0.1-2.5-0.1c-2.4,0-4.6,0.4-6.2,1.3c-1.6,0.8-3,1.9-4.1,3.3
		s-1.8,3-2.2,4.9c-0.4,1.9-0.6,3.9-0.6,6.1v21.9h-13.5v-48.7h12.8V931z"/>
	<path d="M1185.3,944.8c1.1-3.2,2.9-5.8,5.1-8.1c2.2-2.3,4.8-3.9,7.8-5.2c3-1.3,6.6-1.9,10.4-1.9s7.3,0.6,10.4,1.9
		c3.2,1.3,5.8,2.9,8,5.2s3.9,4.9,5.1,8.1s1.8,6.7,1.8,10.6c0,3.9-0.6,7.5-1.8,10.5c-1.1,3.2-2.9,5.8-5.1,8.1c-2.2,2.3-4.8,3.9-8,5.2
		c-3.2,1.1-6.6,1.8-10.4,1.8s-7.3-0.6-10.4-1.8c-3-1.1-5.7-2.9-7.8-5.2s-3.9-4.9-5.1-8.1s-1.8-6.7-1.8-10.5
		C1183.5,951.5,1184,948,1185.3,944.8z M1197.4,961.2c0.4,1.9,1,3.5,1.9,4.9c0.9,1.5,2.2,2.7,3.7,3.5c1.5,0.9,3.4,1.3,5.7,1.3
		s4.2-0.4,5.7-1.3c1.5-0.9,2.8-2,3.7-3.5c0.9-1.5,1.5-3.2,1.9-4.9c0.4-1.9,0.5-3.8,0.5-5.7c0-1.9-0.1-3.9-0.5-5.7
		c-0.4-1.9-1-3.5-1.9-4.9s-2.2-2.7-3.7-3.5c-1.5-0.9-3.4-1.4-5.7-1.4s-4.2,0.5-5.7,1.4c-1.5,0.9-2.7,2-3.7,3.5
		c-0.9,1.4-1.5,3.2-1.9,4.9c-0.4,1.9-0.5,3.8-0.5,5.7C1196.8,957.4,1197,959.3,1197.4,961.2z"/>
	<path d="M1238.6,985.7c1.4,0,2.5-0.3,3.7-0.8c1-0.5,1.5-1.8,1.5-3.5V931h13.4v51c0,2.5-0.3,4.7-0.8,6.5c-0.5,1.8-1.4,3.3-2.8,4.6
		c-1.3,1.3-3,2.2-5.2,2.8c-2.2,0.6-4.9,0.9-8.4,0.9c-1.5,0-3-0.1-4.2-0.4v-11C1236.4,985.6,1237.4,985.7,1238.6,985.7z
		 M1243.7,923.4v-11h13.4v11H1243.7z"/>
	<path d="M1283,968c2,1.9,4.9,2.9,8.6,2.9c2.7,0,5.1-0.6,7-2c1.9-1.4,3.2-2.8,3.5-4.3h11.8c-1.9,5.8-4.8,10-8.6,12.5
		c-3.9,2.5-8.6,3.8-14.2,3.8c-3.8,0-7.3-0.6-10.4-1.9c-3-1.3-5.7-2.9-7.8-5.2s-3.8-4.9-4.9-8.1s-1.8-6.6-1.8-10.4
		c0-3.7,0.6-7.1,1.8-10.1c1.1-3.2,2.9-5.8,5.1-8.1c2.2-2.3,4.8-4.1,7.8-5.4s6.5-2,10.1-2c4.2,0,7.7,0.8,10.9,2.4
		c3,1.6,5.6,3.8,7.6,6.5c2,2.7,3.4,5.8,4.3,9.2c0.9,3.4,1.1,7.1,0.9,10.9h-35.2C1280,962.9,1281,966.1,1283,968z M1298.2,942.4
		c-1.6-1.8-4.1-2.7-7.3-2.7c-2.2,0-3.9,0.4-5.3,1.1c-1.4,0.8-2.5,1.6-3.4,2.7c-0.9,1-1.4,2.2-1.8,3.4c-0.4,1.1-0.5,2.3-0.6,3.2h21.8
		C1300.8,946.7,1299.7,944.2,1298.2,942.4z"/>
	<path d="M1346,939.8c-2.2,0-3.9,0.5-5.3,1.5c-1.4,1-2.7,2.3-3.5,3.8s-1.5,3.3-1.9,5.1c-0.4,1.9-0.5,3.7-0.5,5.6
		c0,1.8,0.1,3.5,0.5,5.3c0.4,1.8,1,3.4,1.9,4.9s2,2.7,3.4,3.7c1.4,0.9,3.2,1.4,5.3,1.4c3.2,0,5.7-0.9,7.3-2.7
		c1.8-1.8,2.8-4.2,3.3-7.2h12.9c-0.9,6.5-3.4,11.4-7.6,14.8s-9.5,5.1-16,5.1c-3.7,0-7-0.6-10-1.9c-3-1.3-5.7-2.9-7.7-5.2
		c-2.2-2.2-3.8-4.8-4.9-7.8c-1.1-3-1.8-6.3-1.8-10c0-3.8,0.5-7.2,1.6-10.5s2.7-6.1,4.8-8.4c2.2-2.4,4.7-4.2,7.8-5.6
		c3-1.3,6.6-2,10.5-2c2.9,0,5.7,0.4,8.4,1.1c2.7,0.8,5.1,1.9,7.2,3.4s3.8,3.4,5.2,5.7c1.3,2.3,2,5.1,2.3,8.1h-13.4
		C1355,942.5,1351.7,939.8,1346,939.8z"/>
	<path d="M1403.6,931v9h-9.7v24.1c0,2.3,0.4,3.8,1.1,4.6s2.3,1.1,4.6,1.1c0.8,0,1.5,0,2.2-0.1c0.6,0,1.4-0.1,2-0.3v10.4
		c-1.1,0.1-2.4,0.3-3.8,0.4c-1.4,0-2.8,0.1-4.1,0.1c-2,0-4.1-0.1-6-0.4s-3.5-0.9-4.9-1.6c-1.4-0.8-2.5-2-3.3-3.5
		c-0.8-1.5-1.3-3.5-1.3-6V940h-8.1v-9h8.1v-14.6h13.4V931H1403.6z"/>
</g>
</svg>
