<svg xmlns="http://www.w3.org/2000/svg" xmlns:xlink="http://www.w3.org/1999/xlink" viewBox="0 0 2469 1575.33"><defs><clipPath id="e602b85e-a71d-4a1a-9327-baa368e56713"><path d="M1742.63,529.82l17.74,52.68a16,16,0,0,0,15.29,10.72h57.41c15.58,0,22.06,19.23,9.45,28.07l-46.44,32.56a15.2,15.2,0,0,0-5.84,17.35L1808,723.88c4.81,14.29-12.15,26.18-24.75,17.34l-46.44-32.55a16.57,16.57,0,0,0-18.91,0l-46.44,32.55c-12.61,8.84-29.57-3.05-24.75-17.34l17.74-52.68a15.22,15.22,0,0,0-5.85-17.35l-46.44-32.56c-12.6-8.84-6.12-28.07,9.45-28.07H1679a16.05,16.05,0,0,0,15.3-10.72L1712,529.82C1716.85,515.52,1737.81,515.52,1742.63,529.82Z" fill="#ffd111"/></clipPath><clipPath id="a274b826-d98a-42f3-90ed-3516f685de5c"><path d="M2100.05,26.86l11.46,34a10.36,10.36,0,0,0,9.87,6.93h37.08c10.06,0,14.24,12.42,6.1,18.13l-30,21a9.83,9.83,0,0,0-3.77,11.21l11.45,34c3.11,9.23-7.84,16.91-16,11.2l-30-21a10.67,10.67,0,0,0-12.21,0l-30,21c-8.14,5.71-19.1-2-16-11.2l11.46-34a9.83,9.83,0,0,0-3.77-11.21l-30-21c-8.14-5.71-4-18.13,6.11-18.13H2059a10.36,10.36,0,0,0,9.88-6.93l11.46-34C2083.4,17.63,2096.94,17.63,2100.05,26.86Z" fill="#ffd111"/></clipPath><clipPath id="e4514d28-b2d3-4bf2-94f8-c494e6d63355"><path d="M2368.7,6.92l11.46,34a10.36,10.36,0,0,0,9.88,6.93h37.07c10.06,0,14.25,12.42,6.11,18.13l-30,21a9.83,9.83,0,0,0-3.77,11.21l11.46,34c3.11,9.23-7.85,16.91-16,11.2l-30-21a10.67,10.67,0,0,0-12.21,0l-30,21c-8.14,5.71-19.09-2-16-11.2l11.45-34A9.83,9.83,0,0,0,2314.43,87l-30-21c-8.14-5.71-4-18.13,6.1-18.13h37.07a10.36,10.36,0,0,0,9.88-6.93l11.46-34C2352.06-2.31,2365.6-2.31,2368.7,6.92Z" fill="#ffd111"/></clipPath><clipPath id="b7aee55c-0b93-4c69-86ee-82b11abe529d"><path d="M2240.53,113.8l19.52,58a17.65,17.65,0,0,0,16.83,11.8h63.18c17.15,0,24.27,21.17,10.4,30.9l-51.11,35.82a16.76,16.76,0,0,0-6.43,19.1l19.53,58c5.29,15.73-13.37,28.82-27.24,19.09l-51.11-35.83a18.22,18.22,0,0,0-20.81,0l-51.11,35.83c-13.87,9.73-32.53-3.36-27.23-19.09l19.52-58a16.76,16.76,0,0,0-6.43-19.1l-51.11-35.82c-13.87-9.73-6.74-30.9,10.4-30.9h63.18a17.64,17.64,0,0,0,16.83-11.8l19.52-58C2212.16,98.07,2235.23,98.07,2240.53,113.8Z" fill="#ffd111"/></clipPath></defs><title>Asset 3</title><g id="f207ebf8-01c9-42b7-8295-ad86f0d46559" data-name="Layer 2"><g id="ad816d4a-354d-4f3d-ba20-798471ab1b67" data-name="Layer 1"><rect x="69" y="1305.16" width="384" height="270.16" rx="12" fill="#037fb8"/><rect x="573" y="1189.38" width="384" height="385.94" rx="14.34" fill="#037fb8"/><rect x="1077" y="1072.45" width="384" height="502.88" rx="16.37" fill="#037fb8"/><rect x="1581" y="732.81" width="384" height="842.52" rx="21.19" fill="#037fb8"/><rect x="2085" y="356.71" width="384" height="1218.62" rx="25.49" fill="#037fb8"/><rect y="1305.16" width="384" height="270.16" rx="12" fill="#6ab4e4"/><rect x="504" y="1189.38" width="384" height="385.94" rx="14.34" fill="#6ab4e4"/><rect x="1008" y="1072.45" width="384" height="502.88" rx="16.37" fill="#6ab4e4"/><rect x="1512" y="732.81" width="384" height="842.52" rx="21.19" fill="#6ab4e4"/><rect x="2016" y="356.71" width="384" height="1218.62" rx="25.49" fill="#6ab4e4"/><path d="M1757.52,529.82l17.74,52.68a16,16,0,0,0,15.3,10.72H1848c15.58,0,22.06,19.23,9.46,28.07L1811,653.85a15.23,15.23,0,0,0-5.84,17.35l17.74,52.68c4.82,14.29-12.14,26.18-24.75,17.34l-46.44-32.55a16.57,16.57,0,0,0-18.91,0l-46.44,32.55c-12.6,8.84-29.56-3.05-24.75-17.34l17.74-52.68a15.21,15.21,0,0,0-5.84-17.35L1627,621.29c-12.61-8.84-6.13-28.07,9.45-28.07h57.41a16,16,0,0,0,15.29-10.72l17.74-52.68C1731.75,515.52,1752.71,515.52,1757.52,529.82Z" fill="#f8ab23"/><path d="M1742.63,529.82l17.74,52.68a16,16,0,0,0,15.29,10.72h57.41c15.58,0,22.06,19.23,9.45,28.07l-46.44,32.56a15.2,15.2,0,0,0-5.84,17.35L1808,723.88c4.81,14.29-12.15,26.18-24.75,17.34l-46.44-32.55a16.57,16.57,0,0,0-18.91,0l-46.44,32.55c-12.61,8.84-29.57-3.05-24.75-17.34l17.74-52.68a15.22,15.22,0,0,0-5.85-17.35l-46.44-32.56c-12.6-8.84-6.12-28.07,9.45-28.07H1679a16.05,16.05,0,0,0,15.3-10.72L1712,529.82C1716.85,515.52,1737.81,515.52,1742.63,529.82Z" fill="#ffd111"/><g clip-path="url(#e602b85e-a71d-4a1a-9327-baa368e56713)"><polygon points="1778.55 542.73 1594.76 744.33 1608.3 772.33 1805.63 557.66 1778.55 542.73" fill="#f9ed5b"/><polygon points="1830.78 550.19 1646.99 751.79 1649.89 769.53 1847.23 554.86 1830.78 550.19" fill="#f9ed5b"/></g><path d="M2109.67,26.86l11.46,34a10.35,10.35,0,0,0,9.87,6.93h37.08c10.06,0,14.24,12.42,6.1,18.13l-30,21a9.83,9.83,0,0,0-3.77,11.21l11.45,34c3.11,9.23-7.84,16.91-16,11.2l-30-21a10.67,10.67,0,0,0-12.21,0l-30,21c-8.14,5.71-19.09-2-16-11.2l11.46-34a9.84,9.84,0,0,0-3.78-11.21l-30-21c-8.14-5.71-4-18.13,6.11-18.13h37.07a10.36,10.36,0,0,0,9.88-6.93l11.45-34C2093,17.63,2106.56,17.63,2109.67,26.86Z" fill="#f8ab23"/><path d="M2100.05,26.86l11.46,34a10.36,10.36,0,0,0,9.87,6.93h37.08c10.06,0,14.24,12.42,6.1,18.13l-30,21a9.83,9.83,0,0,0-3.77,11.21l11.45,34c3.11,9.23-7.84,16.91-16,11.2l-30-21a10.67,10.67,0,0,0-12.21,0l-30,21c-8.14,5.71-19.1-2-16-11.2l11.46-34a9.83,9.83,0,0,0-3.77-11.21l-30-21c-8.14-5.71-4-18.13,6.11-18.13H2059a10.36,10.36,0,0,0,9.88-6.93l11.46-34C2083.4,17.63,2096.94,17.63,2100.05,26.86Z" fill="#ffd111"/><g clip-path="url(#a274b826-d98a-42f3-90ed-3516f685de5c)"><polygon points="2123.25 35.2 2004.56 165.39 2013.3 183.48 2140.74 44.84 2123.25 35.2" fill="#f9ed5b"/><polygon points="2156.98 40.02 2038.29 170.22 2040.16 181.67 2167.6 43.04 2156.98 40.02" fill="#f9ed5b"/></g><path d="M2378.32,6.92l11.46,34a10.36,10.36,0,0,0,9.88,6.93h37.07c10.06,0,14.25,12.42,6.11,18.13l-30,21a9.83,9.83,0,0,0-3.77,11.21l11.46,34c3.11,9.23-7.85,16.91-16,11.2l-30-21a10.67,10.67,0,0,0-12.21,0l-30,21c-8.14,5.71-19.09-2-16-11.2l11.46-34A9.83,9.83,0,0,0,2324.05,87l-30-21c-8.14-5.71-4-18.13,6.1-18.13h37.07a10.36,10.36,0,0,0,9.88-6.93l11.46-34C2361.68-2.31,2375.21-2.31,2378.32,6.92Z" fill="#f8ab23"/><path d="M2368.7,6.92l11.46,34a10.36,10.36,0,0,0,9.88,6.93h37.07c10.06,0,14.25,12.42,6.11,18.13l-30,21a9.83,9.83,0,0,0-3.77,11.21l11.46,34c3.11,9.23-7.85,16.91-16,11.2l-30-21a10.67,10.67,0,0,0-12.21,0l-30,21c-8.14,5.71-19.09-2-16-11.2l11.45-34A9.83,9.83,0,0,0,2314.43,87l-30-21c-8.14-5.71-4-18.13,6.1-18.13h37.07a10.36,10.36,0,0,0,9.88-6.93l11.46-34C2352.06-2.31,2365.6-2.31,2368.7,6.92Z" fill="#ffd111"/><g clip-path="url(#e4514d28-b2d3-4bf2-94f8-c494e6d63355)"><polygon points="2391.9 15.26 2273.21 145.46 2281.95 163.54 2409.39 24.91 2391.9 15.26" fill="#f9ed5b"/><polygon points="2425.64 20.08 2306.94 150.28 2308.82 161.73 2436.26 23.1 2425.64 20.08" fill="#f9ed5b"/></g><path d="M2256.92,113.8l19.52,58a17.65,17.65,0,0,0,16.84,11.8h63.17c17.15,0,24.28,21.17,10.4,30.9l-51.11,35.82a16.77,16.77,0,0,0-6.43,19.1l19.53,58c5.3,15.73-13.37,28.82-27.24,19.09l-51.11-35.83a18.22,18.22,0,0,0-20.81,0l-51.11,35.83c-13.87,9.73-32.53-3.36-27.23-19.09l19.52-58a16.74,16.74,0,0,0-6.43-19.1l-51.11-35.82c-13.87-9.73-6.74-30.9,10.4-30.9h63.18a17.64,17.64,0,0,0,16.83-11.8l19.53-58C2228.55,98.07,2251.62,98.07,2256.92,113.8Z" fill="#f8ab23"/><path d="M2240.53,113.8l19.52,58a17.65,17.65,0,0,0,16.83,11.8h63.18c17.15,0,24.27,21.17,10.4,30.9l-51.11,35.82a16.76,16.76,0,0,0-6.43,19.1l19.53,58c5.29,15.73-13.37,28.82-27.24,19.09l-51.11-35.83a18.22,18.22,0,0,0-20.81,0l-51.11,35.83c-13.87,9.73-32.53-3.36-27.23-19.09l19.52-58a16.76,16.76,0,0,0-6.43-19.1l-51.11-35.82c-13.87-9.73-6.74-30.9,10.4-30.9h63.18a17.64,17.64,0,0,0,16.83-11.8l19.52-58C2212.16,98.07,2235.23,98.07,2240.53,113.8Z" fill="#ffd111"/><g clip-path="url(#b7aee55c-0b93-4c69-86ee-82b11abe529d)"><polygon points="2280.06 128.01 2077.8 349.87 2092.7 380.68 2309.86 144.44 2280.06 128.01" fill="#f9ed5b"/><polygon points="2337.54 136.22 2135.28 358.08 2138.48 377.6 2355.64 141.36 2337.54 136.22" fill="#f9ed5b"/></g><path d="M678.31,1132.32l-19.5,24.61,31.5,33.28s58.5,10.13,49.5,1.45c-4.75-4.58-30-23.15-30-23.15v-37.63Z" fill="#203c70"/><path d="M1075.79,1018l10.5,29s25.75-.22,39.1,7.65c6.45,3.81,14.41,13.21,14.9,18.4.93,9.9-33.78,5.71-58.5,4.34-15-.83-33.37,4.37-34.5,0-3-11.58,15-62.23,15-62.23Z" fill="#203c70"/><path d="M967.52,873.15s-122.18,149-143.66,165.82-105.05,106.38-105.05,106.38l-57.41-6.63S779.55,991,789,975.49,888.3,809.68,888.3,809.68l79.22,37.57Z" fill="#203c70"/><path d="M888.3,809.68c0,28.5,0,77.72,48.34,84.2s160.15-4.69,160.15-4.69l-43.5,156.3,33-1.45s93.48-167.56,72-189.58-133-50-133-50Z" fill="#254980"/><path d="M1194.11,604c-1.64-2.29-27.09,11-27.09,11l.39-5.38c2.33-11-6.82-7.77-6.82-7.77s-1.24,18.13-3,23.39a79.12,79.12,0,0,1-3.94,8.9c1-.58,1.71-.84,2.1-.66l8.76,13.61c8.69-3.91,21.26-10.27,27.45-16.75C1202,619.9,1195.76,606.33,1194.11,604Z" fill="#fac5c9"/><path d="M1153.68,634.17c-10.41,6.17-51,51.8-51,51.8,0-30.37-21.53-95.77-21.53-95.77l-.57,2.07s8.56,37.09-11.18,84.61c-2.43,5.84-18.86,8.61-21.51,14.5,5.5,18.45,27.64,49.22,28.26,50.28,22.62,38.46,88.54-94.33,88.54-94.33l-.13-.21-8.76-13.61C1155.39,633.33,1154.66,633.59,1153.68,634.17Z" fill="#ef4f8d"/><path d="M897.3,591.35c14.08-21.54,17.48-31.36,35.78-42.52,28.86-17.62,25-7.25,31-3.62,2.89,1.72,7.11,6.15,11.8,10.08l13.5,7.29c-13.66-1.34-41.07,31.78-39.74,45.47.5,5.2-10.43-7.59-9.4,9.29-8.9,21.51-18.53,45.36-26.11,65.58-5.26,6.63-8.9,10.87-9.62,10.88-3.17,0-19-2.91-17.73,3.81s-2.1,13.48,11.55,14.6a12.42,12.42,0,0,0,6-1.45c-.58,1.85-1.13,3.63-1.6,5.25-1.51,5.28-3.25,13.81-4.91,22.88-13-3.23-43.23,9.94-41.84-24,4.16-.17,4-3.26,4-3.26s2.58-31.53,6.32-38.91,11.11-34.36,11.11-34.36l-1.29-.15c3.27-9.75,6.56-19,9.69-27.42C888.1,609.41,889.32,603.56,897.3,591.35Z" fill="#203c70"/><path d="M1017,566c3.17,3.64,15.71,19.13,20.4,24.68s8.71,13.59,15.17,10c-4.37,4.07,4,5.79,6.77,4.87,2.47-.82,12.74-11.61,16.89-18.57-2.6,17.85-8.66,66.75-9.9,74.34-1.51,9.19-5.79,27-5.79,27s1-.84,2.37-2.07l-1.52,4.1c-2.07-2.38-19.72,57.58-20.5,59.42-9.82,23.17-52.29,12.83-69.71,13.51,10.23-1.27-56.28-28.46-56.28-28.46-1.12-3.16,63.29-136.27,61.42-169.08,4.56-7.61,17.23,31.73,19,27a75,75,0,0,0,4.17-32.88C1000.81,558.29,1006.3,553.75,1017,566Z" fill="#f2759c"/><path d="M1066.47,576.44s.09,9-3.41,15.12c1.29-4.28,2.11-10,3.39-15.13Z" fill="#f2759c"/><path d="M1052.09,593.24l3.24,4.39a7.28,7.28,0,0,0,1.18.38c-1,.45-1.48.31-4,2.6C1053.35,600.17,1053.14,597.3,1052.09,593.24Z" fill="#f2759c"/><path d="M995.62,691.34c-2.79-.3-4.58-.83-4.88-1.67A19,19,0,0,0,995.62,691.34Z" fill="#f2759c"/><path d="M914.17,682.92c7.58-20.22,17.21-44.07,26.11-65.58.55,9,1.2,18.83,1.94,28.87C932,659.89,921.48,673.72,914.17,682.92Z" fill="#f2759c"/><path d="M904.38,710.76c12.29-5.73,31-26.87,40.07-38.11,2.48,25.44,5.76,47.27,10.14,51.66,6.23,6.23,43.58-.71,73.68-7.59a181,181,0,0,0,20,8.93c-6.83,18.47-12.59,34.13-12.81,35.15-.42,1.89.53,20.57-5.88,36.1-6.24.59-76.73,25.59-83.6,23.44-6.71-2.09-76-4.42-84.32,0,1.08-7.12,33.85-68.25,36.25-81.45,1.66-9.07,3.4-17.6,4.91-22.88C903.25,714.39,903.8,712.61,904.38,710.76Z" fill="#f2759c"/><path d="M1047.86,480.58l.74-.93,0,0C1048.34,480,1048.09,480.28,1047.86,480.58Z" fill="#fac5c9"/><path d="M1044.2,486.6c.51-1,1-2.05,1.64-3,0,.17-.09.36-.14.54C1045.23,484.89,1044.72,485.72,1044.2,486.6Z" fill="#fac5c9"/><path d="M1096.66,491.6v-.27a36.94,36.94,0,0,0-4.33-15.32l-1.83,2.77-1.5.39c-3.31,2.68-9.06,4.13-17.75,4.57a72.66,72.66,0,0,1-17.11-1.43c-7.64,4.63-10.74,10.71-12,16.29,0,.37-.42,6.37-.31,8.4a18.58,18.58,0,0,1-1.24,7.86,18.09,18.09,0,0,0-1.95-.79c-2.57-.82-3.63-4.7-4.06-7.23a17.45,17.45,0,0,0,.49-5.28c-.32-5.9-3.28-10.55-6.61-10.38s-5.77,5.09-5.44,11c.28,5.19,2.61,9.41,5.43,10.24h0l4.17,4.4,1.12,1.18.48,10.82a2.71,2.71,0,0,1-3.17.66c-3.43-1.82-9.21-12.16-9.21-12.16a29.45,29.45,0,0,1-3.59-9.11,55.81,55.81,0,0,1-.78-13.26c0-1,.08-2,.13-2.87,0-.18-.1-.36-.14-.54h0v0c0-.19,0-.38,0-.57.06-1,.16-2,.3-2.95.06-.38.14-.75.2-1.12,0,0,0,0,0,0,0-.22,0-.38,0-.38h0c.12-.65.25-1.28.41-1.91.1-.45.22-.89.35-1.32q.3-1.05.66-2.07c.14-.42.28-.84.44-1.25.3-.75.63-1.49,1-2.22.14-.31.27-.62.42-.93.5-1,1-2,1.62-2.91.2-.32.42-.62.63-.94.41-.63.84-1.27,1.3-1.88.28-.38.58-.74.87-1.11.43-.52.86-1,1.31-1.54s.66-.73,1-1.09,1-.95,1.46-1.41.69-.66,1-1c.62-.54,1.27-1,1.93-1.56.42-.32.85-.64,1.29-.94.73-.51,1.46-1,2.23-1.47.43-.26.87-.5,1.32-.74s.8-.47,1.21-.68a27.73,27.73,0,0,1,3-1.81l.09-.17.79-.3a38.71,38.71,0,0,1,8.22-2.91c7.64-2.55,18.17-5.61,23.45-5.15,8.84.77,30.83,7.7,30.83,7.7l-11,16.64c2.13,5.86,4.86,14.86,3.73,20.17-.44,2-.76,3.58-1,4.74.1-2.38.11-4.54,0-6.37C1096.69,491.89,1096.67,491.75,1096.66,491.6Z" fill="#203c70"/><path d="M1053.12,597.66c-9.56-4.3-31.78-28.46-32.87-31l14.22-35.32-.12.13-.12-2.62-.48-10.82-1.12-1.18-4.17-4.4h0c-2.82-.83-5.15-5-5.43-10.24-.33-5.91,2.11-10.83,5.44-11s6.29,4.48,6.61,10.38a17.45,17.45,0,0,1-.49,5.28c.43,2.53,1.49,6.41,4.06,7.23a18.09,18.09,0,0,1,1.95.79,18.58,18.58,0,0,0,1.24-7.86c-.11-2,.28-8,.31-8.4,1.25-5.58,4.35-11.66,12-16.29a72.66,72.66,0,0,0,17.11,1.43c8.69-.44,14.44-1.89,17.75-4.57l1.5-.39,1.83-2.77a36.94,36.94,0,0,1,4.33,15.32v.27c0,.15,0,.29,0,.45.1,1.83.09,4,0,6.37-.67,15.34-.67,39.14-10.1,46.63-1.45,1.15-8,1.86-8,3.48-.09,7.26-9.79,24.77-9,27.76C1070.89,581.42,1063.32,602.25,1053.12,597.66Z" fill="#fac5c9"/><path d="M944.45,672.65c-9,11.24-27.78,32.38-40.07,38.11a12.42,12.42,0,0,1-6,1.45c-13.65-1.12-10.22-7.88-11.55-14.6s14.56-3.79,17.73-3.81c.72,0,4.36-4.25,9.62-10.88,7.31-9.2,17.78-23,28.05-36.71C942.88,655.08,943.62,664.07,944.45,672.65Z" fill="#4261ab"/><path d="M1064.23,684.92c-.46.44-.91.86-1.33,1.24-1.35,1.23-2.37,2.07-2.37,2.07s4.28-17.79,5.79-27c1.24-7.59,7.3-56.49,9.9-74.34a19.34,19.34,0,0,0,1.25-2.4,8.93,8.93,0,0,0,.45-4.54c1.81-.29,6.71,3.78,10.92,10.41,0,0-.11,1.93-.42,5.31-1.25,13.46-5.69,50.32-19.09,83C1068.59,680.47,1066.29,682.94,1064.23,684.92Z" fill="#4261ab"/><path d="M922.47,532.39c19.86-18.4,60.87-7.75,79.74,3-18.71,15.91-3.07,24.84-3.07,24.84a3.88,3.88,0,0,1,.34-.42c1.15,10.08,1.31,28.8-19.61,72-2.19,4.52-42.27,49.87-46.84,57.49-1.15-20.14,48.9-113.67,48.65-115.88-.51-4.44-.61-8.47-2.54-11-.13-1.81-.27-3.45-.41-4.89-1-.71-1.89-1.46-2.81-2.23-4.69-3.93-8.91-8.36-11.8-10.08-6-3.63-2.18-14-31,3.62-18.3,11.16-21.7,21-35.78,42.52-8,12.21-9.2,18.06-11.48,19.41-1.74,1-4.1-.54-10.58-3.93C860.26,599,900.13,553.08,922.47,532.39Z" fill="#4261ab"/><path d="M866.31,672.69c-3.74,7.38-6.32,38.91-6.32,38.91s.2,3.09-4,3.26a17.33,17.33,0,0,1-5.85-1c-10.18-3.28-.3-33.66,4.58-55.73,4.48-20.25,16-20.47,21.37-19.92l1.29.15S870.05,665.32,866.31,672.69Z" fill="#4261ab"/><path d="M1038.56,565.58c6.83,8.63,11.6,20.2,13.53,27.66,1.05,4.06,1.26,6.93.47,7.37-6.46,3.64-10.48-4.39-15.17-10s-17.23-21-20.4-24.68c-10.69-12.23-16.18-7.69-17.51-6.18a3.88,3.88,0,0,0-.34.42s-15.64-8.93,3.07-24.84c.51-.43.94-.85,1.51-1.3,21.19-16.74,33.43,2.41,33.43,2.41l-4.78,10.56a5.23,5.23,0,0,0-.85,2.62C1031.26,552.42,1032.17,557.5,1038.56,565.58Z" fill="#ef4f8d"/><path d="M1076.22,586.91c-4.15,7-14.42,17.75-16.89,18.57-2.77.92-11.14-.8-6.77-4.87,2.47-2.29,3-2.15,4-2.6.77-.35,1.84-1,4.35-3.51a13.68,13.68,0,0,0,2.2-2.94c3.5-6.16,3.41-15.12,3.41-15.12l2.87-8,2.63-2.67s5.21,7.76,6,14.21a8.93,8.93,0,0,1-.45,4.54A19.34,19.34,0,0,1,1076.22,586.91Z" fill="#ef4f8d"/><path d="M956.69,807.21c9.52-1.15,67.19-12.67,74.32-16.49.11-.06.25-.12.34-.18,5.54-3.62,11,11,11,17,0,4.41-.44,7.85-8.56,11.46a84.41,84.41,0,0,1-12.92,4.23c-6.36,1.65-17.3,3.23-29.82,4.66-28.3,3.24-64.71,5.71-74.68,6.42-14.62,1.06-38.42,4.77-48.77,2.33a14.15,14.15,0,0,1-2.4-.76c-4.95-2.26-5.3-11.7-4.3-18.77a2.51,2.51,0,0,1,.57-1.14C868.8,806.91,947.39,808.34,956.69,807.21Z" fill="#ef4f8d"/><path d="M994.53,779.2a27.59,27.59,0,0,1-4.19-3.33l-10-9.62c-.32-.31-.64-.63-.94-1a26.73,26.73,0,0,1-2.5-3.08l0-.06-.05-.06-1.43,1.38a11.88,11.88,0,0,0,0,17.21,13,13,0,0,0,17.84,0l1.43-1.38Z" fill="#203b71"/><path d="M976.89,731.43a26.81,26.81,0,0,0-1.73,27.92,27.65,27.65,0,0,0,1.65,2.74l.05.06,0,.06a26.73,26.73,0,0,0,2.5,3.08c.3.33.62.65.94,1l10,9.62a27.59,27.59,0,0,0,4.19,3.33l.13.09h0a29.37,29.37,0,0,0,36-3.44l11-10.64a86.53,86.53,0,0,1-30.32-6.75C994.48,751.59,981.74,741.16,976.89,731.43Z" fill="#1d439c"/><path d="M994.53,779.2h0l.13.09h0Z" fill="#203b71"/><path d="M976.91,762.21h0l0-.06,0,.06Z" fill="#203b71"/><path d="M980.35,766.25c-.32-.31-.64-.63-.94-1,.3.33.62.65.94,1Z" fill="#203b71"/><path d="M994.53,779.2h0a27.59,27.59,0,0,1-4.19-3.33h0A27.59,27.59,0,0,0,994.53,779.2Z" fill="#203b71"/><path d="M979.41,765.29a26.73,26.73,0,0,1-2.5-3.08h0A26.73,26.73,0,0,0,979.41,765.29Z" fill="#203b71"/><path d="M1088.07,704.85a164.47,164.47,0,0,0,105.69-43.68,80.6,80.6,0,0,0-24.5-67.74c-33.4-32.18-87.5-32.16-120.86.06a81.65,81.65,0,0,0-21.12,33.67,80,80,0,0,0,1.5,53.43l-12,11.57A167.44,167.44,0,0,0,1088.07,704.85Zm18-77c-16.85,8-34.19,7.39-38.74-1.48s5.42-22.57,22.26-30.62,34.19-7.38,38.74,1.48S1123,619.83,1106.11,627.87Z" fill="#ffd111"/><path d="M1128.37,597.25c-4.55-8.86-21.89-9.53-38.74-1.48s-26.81,21.76-22.26,30.62,21.89,9.53,38.74,1.48S1132.92,606.12,1128.37,597.25Z" fill="#fffaf6"/><path d="M1193.76,661.17a164.47,164.47,0,0,1-105.69,43.68,167.44,167.44,0,0,1-71.27-12.69l-16.12,15.57-.68.65-1.31,1.27,39,37.58,11.3,10.89,2-1.91,14-13.56,14.07-13.59c30.37,10.88,65.86,4.54,90.25-19A81,81,0,0,0,1193.76,661.17Z" fill="#f8ab23"/><path d="M1049,758.12l-11.3-10.89h0l-39-37.58-18.36,17.73a27.24,27.24,0,0,0-3.44,4c4.85,9.73,17.59,20.16,34.44,27a86.53,86.53,0,0,0,30.32,6.75l7.33-7.09Z" fill="#2e64b0"/><path d="M991.32,696.4l-.36,0-3.17,19c2.44.82,5.23,1.73,8.41,2.74,2,.61,4,1.25,6.28,1.94,27.72,8.43,25.43-5.49,28.46-11.45s-24.09-14.88-24.09-14.88,11.85-9.18,10.29-11.08c-.72-.89-6,2.09-11.39,5.52-6.19,3.92-12.58,8.44-12.58,8.44Z" fill="#fac5c9"/><path d="M983.59,720c2.27-.59,3.58-1,3.58-1l.62-3.68,3.17-19,1.14-6.88-55.71-3.1c19.1-48.47,49.59-113.71,46.66-123.77a1.56,1.56,0,0,0-2-1.29c-78.75,14.93-88.55,122.19-84.35,152.18.68,4.87,3.56,8.29,7.85,10.62C923.46,734.41,970.28,723.44,983.59,720Z" fill="#ef4f8d"/></g></g></svg>