<?xml version="1.0" encoding="utf-8"?>
<!-- Generator: Adobe Illustrator 22.1.0, SVG Export Plug-In . SVG Version: 6.00 Build 0)  -->
<svg version="1.1" id="Layer_1" xmlns="http://www.w3.org/2000/svg" xmlns:xlink="http://www.w3.org/1999/xlink" x="0px" y="0px"
	 viewBox="0 0 821.4 467.6" style="enable-background:new 0 0 821.4 467.6;" xml:space="preserve">
<style type="text/css">
	.st0{fill:#BD1261;}
	.st1{fill:#026BB0;}
	.st2{fill:#CFDBE8;}
	.st3{fill:#005187;}
	.st4{fill:#996131;}
	.st5{fill:#764312;}
	.st6{fill:#FFB287;}
	.st7{fill:#FFFFFF;}
	.st8{fill:#F48967;}
	.st9{fill:#FCAF96;}
	.st10{fill:#B5BABA;}
	.st11{fill:#575575;}
	.st12{opacity:0.89;}
	.st13{fill:#4A4865;}
	.st14{fill:#282835;}
	.st15{fill:#FFB08D;}
	.st16{fill:#575E87;}
	.st17{fill:#2C3254;}
	.st18{fill:#191D30;}
	.st19{fill:#EA8373;}
	.st20{fill:#47231C;}
	.st21{fill:#D86E52;}
	.st22{opacity:0.45;}
	.st23{opacity:0.43;}
	.st24{fill:#722D26;}
	.st25{fill:#16161F;}
	.st26{fill:#87352A;}
	.st27{fill:#B2CECF;}
	.st28{fill:#312121;}
	.st29{opacity:0.62;}
	.st30{fill:#4A4651;}
	.st31{fill:#6CBD45;}
	.st32{fill:#50932C;}
	.st33{fill:#2B345E;}
	.st34{fill:#78B3DB;}
	.st35{fill:#232330;}
	.st36{fill:#FF8912;}
	.st37{fill:#8CADB5;}
	.st38{fill:#2C373A;}
	.st39{fill:#364449;}
	.st40{fill:#D1D1D1;}
	.st41{fill:#32323F;}
	.st42{fill:#3D3D49;}
	.st43{fill:#572B22;}
	.st44{opacity:0.4;}
	.st45{fill:#231F20;}
	.st46{fill:#723A30;}
	.st47{fill:#262533;}
	.st48{fill:#2D2221;}
	.st49{fill:#FAAC2B;}
	.st50{fill:#E29000;}
	.st51{fill:#A6ABAB;}
	.st52{fill:#FFE0A1;}
	.st53{fill:#211818;}
	.st54{opacity:0.71;}
	.st55{fill:#939DAA;}
	.st56{fill:#ABD0DB;}
	.st57{fill:#EF3333;}
	.st58{fill:#76768C;}
	.st59{fill:#454554;}
	.st60{fill:#592A00;}
	.st61{fill:#DD6443;}
	.st62{fill:#292835;}
	.st63{fill:#3E3E4C;}
	.st64{fill:#87351B;}
	.st65{fill:#EF8463;}
</style>
<g>
	<g>
		<path class="st0" d="M11,461.7002c0-3.2,2.6-5.7,5.7-5.7h798.9c3.2,0,5.7,2.6,5.7,5.7l0,0c0,3.2-2.6,5.7-5.7,5.7H16.8
			C13.6,467.5002,11,464.9002,11,461.7002L11,461.7002z"/>
	</g>
</g>
<g>
	<g>
		<path class="st1" d="M277,119.0002c14.1,14.4,23.1,38,30.8,95.9l-10.8,2.6L277,119.0002z"/>
	</g>
	<g>
		<path class="st2" d="M182.5,168.7002c-0.3,0-0.6,0-0.9,0c-4.3-0.2-8.3-2.1-11.1-5.3l-37.2-34.1l13.5-14.7l35.6,32.7l30.7-30.4
			l14.1,14.2l-33.3,32.9C190.9,167.0002,186.8,168.7002,182.5,168.7002z"/>
	</g>
	<g>
		<path class="st3" d="M380.2,392.0002c0,0-14.3,6.7-78.7,21c-9.9,2.2-25,1.6-41.2,0.9c-11.5-0.5-23.8-1.4-35.5-2.9
			c-14.9-1.9-29-4.7-39.7-8.4c10.2-42.8,13.7-117.1,15.5-173.3l0,0c1.1-34.4,1.6-62.1,2.6-71.4c0.3-2.6,1.9-2.3,2.1-4.7
			c0.8-10.1,11.9-33,11.9-33l8,0.2c0,0,66.2,20.7,68.6,30.1c7.9,30.5,16.6,62.6,25.1,93.4
			C336.3,307.6002,343.4,356.1002,380.2,392.0002z"/>
	</g>
	<g>
		<path class="st1" d="M224.9,411.0002c-14.9-1.9-29-4.7-39.7-8.4c10.2-42.8,13.7-117.1,15.5-173.3
			C200.6,279.2002,219.6,368.3002,224.9,411.0002z"/>
	</g>
	<g>
		<g>
			<path class="st4" d="M272.6,48.7002c0,15.8-0.2,34.4,3,48.3c-12.9,7.3-25.2,9.7-39.9,7.8l24.3-41.8L272.6,48.7002z"/>
		</g>
		<g>
			<path class="st5" d="M259.8,76.5002c0,0,6.8,12.7,15.8,20.5c-28,19.8-59.5,1.8-59.5,1.8s-1.2-13.3,1.9-20.4
				C226.2,75.6002,259.8,76.5002,259.8,76.5002z"/>
		</g>
	</g>
	<g>
		<path class="st6" d="M296.9,253.9002c-0.6-1.5-1.2-2.6-1.7-2.3c-0.1,0-0.1,0.1-0.2,0.2c-0.8,1.3-0.7,3.8-1.4,5.9
			c-0.3,0.9-0.8,1.8-1.6,2.5c-0.4,0.3-0.8,0.6-1.1,0.8c-1.9,1.1-3,0.5-3.1,0.2c0,0,0-0.3,0.1-0.6c0.2-0.7,0.6-2,1.1-3.3
			c0.5-1.6,1-3.2,1.1-4.1c0.3-2,1.1-8.1,4.3-13.2c3.2-5,2.5-10.5,2.5-13.2c0-2.6,11.9-8.2,11.9-8.2c0.1,0.2,0.5,14,1.8,16
			c0.3,0.5,0.6,1.1,1.1,2c1.5,3,3.7,8.1,4.5,13.4c0.3,2.2,0.9,3.4,1.3,5.4c0.3,1.4,0.4,3.5,0.5,6.3l0,0c0,0.7,0,1.4,0.1,2.1
			c0,0.1,0,0.1,0,0.2c-1,0.5-2.7,0.8-2.6-1.9c0.1-2.7-1.6-9.3-2.4-8.5c-0.1,0.8,1.7,6.8,1.5,8c-0.1,1.2,1,7.3,0.6,8.4
			s-2.6,2.1-3.1,0.2c-0.4-1.9-0.6-4.3-0.9-5.7c-0.4-1.5-1.2-8.1-1.6-8c-1.2-0.1,0.2,4.2,0.5,5.4c0.3,1.2,0.6,3.2,0.6,4.8
			c0.1,1.5,1,5.7,0.8,7.2c-0.2,1.4-3.1,2.3-3.4,0.2c-0.3-2.1-1.2-6-1.6-7.4s-1.2-6.5-1.5-7.2s-1-0.1-1.1,0.2c-0.2,0.6,0.4,5,0.3,7.2
			c-0.1,2.1,0.5,5.9,0.4,7.6c0,0.5-0.9,1.1-1.8,1.1c-0.7,0-1.4-0.4-1.5-1.5c-0.3-2.4-0.9-5-1.3-6.5c-0.4-1.6-0.4-5.1-1.1-7.3
			C298.6,259.1002,297.8,256.0002,296.9,253.9002z"/>
	</g>
	<g>
		<g>
			<path class="st7" d="M287.8,180.6002l-29.3-49.5l17-9.9c11,14.2,22.4,34.8,30.1,52.1c1.3,2.9,2,6.1,2.2,9.2l2.5,49.9l-13.6,1.9
				c0,0-0.6-4.1-1.2-5.4C284.6,207.1002,287.8,180.6002,287.8,180.6002z"/>
		</g>
	</g>
	<g>
		<path class="st8" d="M231.3,242.3002C231.3,242.3002,231.3,242.2002,231.3,242.3002C231.3,242.2002,231.3,242.2002,231.3,242.3002
			z"/>
	</g>
	<g>
		<path class="st9" d="M236.3,448.4002c4.9,0.3,9.7-0.7,13-4.4c0.6-30.7,4.3-55.1,6.5-73.2c1.1-9.2,1.8-17.8,1.5-26.9
			c-0.3-11.1,0,0-4-5.9c-1.2-1.8-2.3-3.5-3.2-5.2c-4.3-7.6-6.1-14-6.1-14l-3.3-60.7c-0.5-6.6-6.3-11.4-12.8-10.9
			c-3.3,0.3-6.1,1.8-8.1,4.2c-2,2.3-3.1,5.4-2.8,8.7l7.3,66.5l0.7,6.3l0.9,8.1l0.5,5l1.5,14.2l1.1,9.9c0,0,7.7,49.9,8.2,65.4
			C237.3,438.7002,236.3,448.4002,236.3,448.4002z"/>
	</g>
	<g>
		<path class="st8" d="M226.4,345.9002c5.1,1.6,23.5,8.6,29.4,24.9c1.1-9.2,1.8-17.8,1.5-26.9c-0.3-11.1,0,0-4-5.9
			c-1.2-1.8-2.3-3.5-3.2-5.2H225L226.4,345.9002z"/>
	</g>
	<g>
		<path class="st9" d="M277.5,444.8002l10.3-0.8c-4.5-38-1.7-65.6-3.1-87.2c-0.3-4.9-0.8-9.7-1.6-14.7c-1.8-11,0,0-4.8-5.3
			c-1-1.1-1.9-2.1-2.7-3.2c-3.1-3.9-5.4-7.6-6.9-10.3l-21.5,2.9l0.8,3l1.6,6.4l1.9,7.7l1.7,7l3,11.8l2.4,9.6
			c0,0,13.5,46.9,16.2,61.6C275.2,436.2002,277.5,444.8002,277.5,444.8002z"/>
	</g>
	<g>
		<path class="st8" d="M284.6,356.8002c-7.5-3.9-24.6-5.8-31.5-6.5l-1.7-7l-1.9-7.7l26-2.1c0.8,1.1,1.8,2.1,2.7,3.2
			c4.8,5.3,3-5.7,4.8,5.3C283.8,347.0002,284.3,351.9002,284.6,356.8002z"/>
	</g>
	<g>
		<path class="st10" d="M299.8,159.4002L299.8,159.4002L299.8,159.4002L299.8,159.4002z"/>
	</g>
	<g>
		<path class="st11" d="M278.7,125.4002c-0.6-0.3-1.5,0-2.5,0.8c-0.5,0.4-1.1,1-1.7,1.7c-0.1,0.1-0.2,0.2-0.2,0.3
			c-3.8,5-7.5,15.8-1.4,27.9v0.1l0,0l0,0c-0.2,0.8-2.4,9.3-4,19.2c-1.2,7.6-2,15.9-1.2,22.3c0,0.1,0,0.2-0.1,0.2
			c-2.4,1.2-11.7,3.7-13,3.5c-19.7,6.1-25,3.5-42.5-3.9H212l0,0c-0.5-0.2-1.1-0.5-2.8-1.2c0.2-0.7,0.4-1.4,0.6-2.2
			c1.5-5.4,2-12.8,1.7-18.8c-0.2-4.8-0.9-8.6-2-9.6c-0.1,0-1.6-1.4-2.4-2.2c-1.6-1.6-2.8-3.4-3.5-5.5l0,0c-0.1-0.2-0.5-2.1-0.5-2.2
			v-0.1c0-0.1-0.1-0.3-0.1-0.4l0,0c-0.1-0.7-0.1-1.3,0-2v-0.1c0-0.1,0-5.7,5.3-16.2c0.1-0.2,0.2-0.4,0.3-0.5c0,0,0,0,0-0.1l0,0
			c2.2-5.3,1-13.1,2.9-17.1c1.5-3.3,4-6,7.3-7.7c1.3-0.7,2.1-0.8,6.4-2.3l0,0c5.7-2,14-4.5,19.7-2.4c2.3,0.9,4.5,1.7,6.6,2.5
			c1.1,0.4,2.1,0.8,3.1,1.2c3.1,1.2,5.9,2.3,8.2,3.4c2,0.9,3.7,1.8,4.9,2.6c1.1,0.7,8,3.9,9.2,5.3c0.6,1,1,1.8,1.3,2.6v0.1
			c0.1,0.2,0.1,0.4,0.2,0.6C278.7,125.3002,278.7,125.4002,278.7,125.4002z"/>
	</g>
	<g class="st12">
		<path class="st13" d="M274.4,128.2002c-3.8,5-7.5,15.8-1.4,27.9v0.1l0,0l0,0c-0.2,0.8-2.4,9.3-4,19.2c-2.4-13-2.7-27.9,2.1-41.5
			C271.9,131.7002,273,129.8002,274.4,128.2002z"/>
	</g>
	<g>
		<path class="st7" d="M252,114.6002c-6.8,9.5-14.5,18.2-23.4,25.8c-2-9.2-2.7-19.6-2.3-30.9c0.4-0.4,0.8-0.7,1.2-1
			c6.4-2.2,13-3.4,17.5-1.6c1.8,0.7,3.6,1.4,5.3,2C252.6,109.8002,253.4,112.6002,252,114.6002z"/>
	</g>
	<g>
		<path class="st13" d="M270.5,114.3002c-3,0.9-6,2.6-9,4.7c-6.2,4.4-11.9,10.4-14.8,12.6l-12.1-18c-6.1,3.5-13.7,16.2-13.7,16.2
			c0-4.4,1.1-10.5,2.5-15.3c0.6-2.1,17.1-10.4,17.1-10.4c11.4-0.1,18.1,3.2,28.4,9.2C269.6,113.8002,270.1,114.1002,270.5,114.3002z
			"/>
	</g>
	<g>
		<path class="st14" d="M293,337.7002c-3.5,2.5-8.6,4.1-14.4,5c-20.5,3.4-47.3-1.2-57.8-5c-3.1-14.6-14.8-69.8-16.1-97.3
			c0-0.1,0-0.2,0-0.3c-0.5-11.5,0.3-23.1,2.5-34.5c0.1-0.3,0.1-0.6,0.2-0.8c0.6-2.8,1.2-5.7,1.9-8.5c0.9,0.4,1.3,0.6,2.8,1.2l0,0
			c14.4,5,44.6,5,55.7,0.3l0,0c0,0,0,0,0,0.1c3.4,4.4,11.7,22.5,11.9,39c0.4,33.9,12.7,97.8,13.1,99.8l0,0l0,0
			C292.9,337.0002,293,337.4002,293,337.7002z"/>
	</g>
	<g>
		<path class="st1" d="M293.1,155.4002c-7.1-22-20.9-36-31.6-36.4c-7.9-0.3-14.9,1.3-14.9,1.6l-11.9-7.1c-3.9-1.2-6.7,5.8-9.3,2.6
			c-0.6-0.7-0.5-0.9-1.2-1.2c-5.6-2.3-12.4,3.6-14.6,5.6c0.2-0.6,3.7-17.2,30.1-16.4c0.3,0,0.7,0,1,0c11.4-0.1,18.1,3.2,28.4,9.2
			c0.7,0.4,1.4,0.8,2.1,1.2c6.5,3.8,9.4,9.8,10.9,12.1C294.6,146.8002,293.1,155.4002,293.1,155.4002z"/>
	</g>
	<g>
		<path class="st7" d="M234.7,113.5002c-4.5,1.8-9.9,8.5-13.7,11.8c0-2.7,1.3-7.8,2.7-12.1c0.8-2.4,2.1-4.7,3.8-6.7l3.3-3.9
			C230.8,102.6002,228.4,111.9002,234.7,113.5002z"/>
	</g>
	<g>
		<path class="st8" d="M247.6,90.6002v16.3c0,0.2,0,0.3,0,0.5c-0.3,3.9-4.1,6.9-8.7,6.9c-4.8,0-8.7-3.3-8.7-7.4
			c0.4-2.2,0.6-4.4,0.7-7c0.1-1.7,0.1-3.6,0.1-5.8L247.6,90.6002z"/>
	</g>
	<g>
		<path class="st15" d="M247.6,107.4002c-0.3,3.9-5.8,8.2-12.8,6.2c-4.8-0.1-4.6-2.5-4.6-6.6c0.4-2.2,0.6-4.4,0.7-7
			C237.3,99.6002,243.9,102.4002,247.6,107.4002z"/>
	</g>
	<g>
		<path class="st7" d="M247.6,103.1002l5.3,5.6c1.2,1.2,1.7,3,1.4,4.6c-1.1,5.9-3,10.7-5.6,14.4c-4.1-5.4-8.7-10.2-14-14.2
			C234.7,113.5002,245.9,116.0002,247.6,103.1002z"/>
	</g>
	<g>
		<g>
			<path class="st9" d="M292.3,446.6002l-22,10.7c1.5-1.8,2.8-5,3.6-10.6c1.2-3,1.4-4.3,1.9-6.7c0.1-0.5-1.3-7.1-2-10.4l12.2-3.2
				C286.6,436.8002,292.5,438.3002,292.3,446.6002z"/>
		</g>
		<g>
			<path class="st16" d="M293.8,449.0002L293.8,449.0002c0.4,2.7,0.7,5.5,1.2,8.5c-0.8,0.3-1.6,0.7-2.3,1c-2.1,1-4.7,2.4-6.1,4.4
				c-0.1,0.1-0.2,0.3-0.2,0.4l-23.5,4l-0.6-3.2c0,0,0,0,0-0.1c-0.7-2.1,0.1-4.9,2.2-5.6c7.9-2.3,8.7-10.6,10-13.9
				c0.1,1.9,0,4.9,1.3,7.6c12.7-4.8,13.7-12.9,13.7-14.5C289.7,437.6002,293.2,440.4002,293.8,449.0002z"/>
		</g>
		<g>
			<path class="st17" d="M293.8,449.0002L293.8,449.0002c0.5,3.8,0.6,5.9,1.5,10.3c-1.9,0.7-4.6,1.8-4.6,1.8
				c-6.6,8-20.9,6.4-27.8,6.2l-0.6-3.2c6.3,2.1,25.2-1.7,27.1-7.3c0.1-0.4,0.1-0.7,0.2-1.1
				C290.8,451.8002,293.8,449.0002,293.8,449.0002z"/>
		</g>
		<g>
			<path class="st17" d="M293.8,449.0002L293.8,449.0002c0.5,3.8,0.6,5.9,1.5,10.3l-4.6,1.8l-1.1-5.4
				C290.6,451.6002,293.8,449.0002,293.8,449.0002z"/>
		</g>
	</g>
	<g>
		<g>
			<path class="st9" d="M250.9,409.0002c-1.7,22.7-1.6,42.9-3.4,44.2l-34.8,5.6c7.1-5.6,20.8-15,24.6-23.2l-4-37.3L250.9,409.0002z"
				/>
		</g>
		<g>
			<path class="st16" d="M250,439.4002c-0.2-0.7-0.4-0.8-0.5-1.5c0,0-3.9,5.6-8.8,8.7c-6.1,3.9-13.4,5.7-15.6,5.7
				c-1.6,0,5.7-8.3,5.7-8.4c-3.9,4.2-15.4,11.4-19,14.2c-2.2,1.9-1.5,5.6-1.5,5.6v3.9H243l0,0h7c0-5.5,0.4-10.5,0.7-15l0,0
				C250.9,447.0002,251.4,444.1002,250,439.4002z"/>
		</g>
		<g>
			<path class="st17" d="M250.6,452.6002L250.6,452.6002c-0.2,4.6-0.7,9.6-0.7,15.1h-39.6v-3.9c0,0,22.1,0.3,24,0.2
				c1.5-0.1,6.1-0.3,8.3-2c0.5-0.4,0.9-0.8,1-1.3c0.2-0.4,0.3-0.8,0.5-1.2C246.4,455.0002,250.6,452.6002,250.6,452.6002z"/>
		</g>
		<g>
			<path class="st18" d="M250.6,452.6002L250.6,452.6002c-0.2,4.6-0.7,9.6-0.7,15.1h-5.8v-8.2
				C246.4,455.0002,250.6,452.6002,250.6,452.6002z"/>
		</g>
	</g>
	<g>
		<g>
			<path class="st8" d="M260.6,36.2002v34.7c0,1.9-0.2,3.8-0.6,5.5l0,0c0,0.1,0,0.2-0.1,0.3c-1.1,4.5-3.4,8.6-6.6,11.7
				c-4.5,4.5-10.7,7.3-17.6,7.3c-3.2,0-6.2-0.6-9-1.7c-9.3-3.6-15.9-12.6-15.9-23.2v-34.6c0-2.3,0.3-4.6,0.9-6.7
				c0.5-1,1.2-1.9,1.8-2.8c0.2-0.3,0.5-0.6,0.7-0.9c2.6-2.2,5.9-2.5,9.7-2.2c4.4,0.4,9.5,1.5,15.1,1.5c1.2,0,2.4,0.1,3.6,0.2h0.1
				c3,0.3,5.9,1.1,8.6,2.1l0,0C257,32.0002,260.6,28.4002,260.6,36.2002z"/>
		</g>
		<g>
			<path class="st15" d="M253.4,34.6002v34.7c0,0.2,0,0.4,0,0.6c0,1.7-0.3,3.3-0.6,4.9c-1.1,4.6-3.1,8.9-6.4,12.2
				c-4.5,4.5-12.2,7.2-19.7,5.3c-10.7-2.8-15.9-10.9-15.9-21.4v-34.7c0-2.3,0.3-4.6,0.9-6.7c0.5-1,1.2-1.9,1.8-2.8
				c2.4-2,6.3-2.9,10.4-3.1c8.2-0.4,17.5,1.5,18.7,1.7h0.1C243.3,25.5002,253.4,26.8002,253.4,34.6002z"/>
		</g>
		<g>
			<path class="st4" d="M260,76.4002C260,76.4002,260,76.5002,260,76.4002c0,0.2,0.1,0.6,0.1,0.6s-0.1-0.1-0.2-0.3
				c-0.9-1.8-5.8-11.7-4.6-25.6l0,0c0-1.9-1.4-3.5-3.3-3.8c-6.7-1-21.8-4.7-25.8-18.5l0,0c-1.1,4.8-7,11.1-11.5,15.3
				c-2.3,2.1-3.7,5.1-3.7,8.3v0.1l-0.2,9v0.4c-0.1-0.1-1.4-8.4-2.3-14.9c-0.6-4-0.3-11.1,3.3-17.5c5.5-9.8,16.1-13.1,27.4-13.1
				c26.6,0,33.5,16.7,33.5,30.9C272.6,59.8002,270.1,70.7002,260,76.4002z"/>
		</g>
		<g>
			<path class="st4" d="M245.6,55.6002c-0.2,0-0.4-0.1-0.6-0.2c-0.1,0-4.7-2.9-8.3-0.5c-0.5,0.3-1.2,0.2-1.5-0.3s-0.2-1.2,0.3-1.5
				c4.8-3.2,10.4,0.3,10.7,0.4c0.5,0.3,0.7,1,0.3,1.5C246.3,55.4002,246,55.6002,245.6,55.6002z"/>
		</g>
		<g>
			<path class="st4" d="M223.6,55.2002c-0.2,0-0.5-0.1-0.7-0.2c-3.4-2.6-6.8-0.6-6.9-0.6c-0.5,0.3-1.2,0.1-1.5-0.4s-0.1-1.2,0.4-1.5
				c0.2-0.1,4.7-2.8,9.3,0.8c0.5,0.4,0.6,1.1,0.2,1.5C224.2,55.1002,223.9,55.2002,223.6,55.2002z"/>
		</g>
		<g>
			<path class="st8" d="M227,67.5002c0.6,0.8,1.7,1.3,3.1,1.3c1.4,0,2.5-0.5,3.1-1.3c0.2,0.3,0.4,0.7,0.4,1.1c0,1.3-1.6,2.3-3.5,2.3
				s-3.5-1-3.5-2.3C226.6,68.2002,226.7,67.8002,227,67.5002z"/>
		</g>
		<g>
			<path class="st19" d="M217.3,59.8002c0.3,2.3,0.9,1.8,2.4,2.7c1.4,0.9,4-0.7,4.1-2.6c0.1-1.9-1-3.4-2.8-3.6
				C218.9,55.9002,217,57.7002,217.3,59.8002z"/>
		</g>
		<g>
			<g>
				<path class="st7" d="M220.3,62.8002c1.5-0.2,2.5-1.5,2.3-2.9c-0.2-1.5-1.5-2.5-2.9-2.3c-1.5,0.2-2.5,1.5-2.3,2.9
					C217.5,62.0002,218.8,63.0002,220.3,62.8002z"/>
			</g>
		</g>
		<g>
			<path class="st20" d="M221.2,59.9002c-0.2,0.9-1.1,1.4-2,1.2s-1.5-1.1-1.3-1.9c0.2-0.9,1.1-1.4,2-1.2
				C220.8,58.2002,221.4,59.1002,221.2,59.9002z"/>
		</g>
		<g>
			<path class="st7" d="M221.6,59.7002c-0.1,0.3-0.4,0.5-0.7,0.4s-0.5-0.4-0.5-0.7c0.1-0.3,0.4-0.5,0.7-0.4
				C221.5,59.1002,221.7,59.4002,221.6,59.7002z"/>
		</g>
		<g>
			<path class="st19" d="M236.9,60.0002c0.3,2.3,0.9,1.8,2.4,2.7c1.4,0.9,4-0.7,4.1-2.6c0.1-1.9-1-3.4-2.8-3.6
				C238.6,56.1002,236.7,57.9002,236.9,60.0002z"/>
		</g>
		<g>
			<g>
				<path class="st7" d="M240,63.0002c1.5-0.2,2.5-1.5,2.3-2.9c-0.2-1.5-1.5-2.5-2.9-2.3c-1.5,0.2-2.5,1.5-2.3,2.9
					C237.2,62.1002,238.5,63.2002,240,63.0002z"/>
			</g>
		</g>
		<g>
			<path class="st20" d="M240.9,60.1002c-0.2,0.9-1.1,1.4-2,1.2s-1.5-1.1-1.3-1.9c0.2-0.9,1.1-1.4,2-1.2
				C240.5,58.4002,241.1,59.2002,240.9,60.1002z"/>
		</g>
		<g>
			<path class="st7" d="M241.3,59.9002c-0.1,0.3-0.4,0.5-0.7,0.4s-0.5-0.4-0.5-0.7c0.1-0.3,0.4-0.5,0.7-0.4
				C241.2,59.2002,241.4,59.6002,241.3,59.9002z"/>
		</g>
		<g>
			<path class="st21" d="M230.8,83.1002c-4.3,0-7.1-2.7-7.2-2.8c-0.4-0.4-0.4-1.1,0-1.5s1.1-0.4,1.5,0c0.2,0.2,5.3,5,12.2-0.5
				c0.5-0.4,1.1-0.3,1.5,0.2s0.3,1.1-0.2,1.5C235.8,82.3002,233,83.1002,230.8,83.1002z"/>
		</g>
		<g>
			<path class="st4" d="M253.6,52.5002c-19.5,0-27.6-14.8-29.1-23.3l3.7-0.7l-1.8,0.3l1.8-0.3c0.2,0.9,4.6,22.9,29.9,19.9l0.4,3.7
				C256.7,52.4002,255.1,52.5002,253.6,52.5002z"/>
		</g>
	</g>
	<g class="st12">
		<path class="st13" d="M248.4,175.6002c-5.9,1.6-35.7,1-37.5-6.9c-0.4-1.6-0.8-2.8-1.3-3.3c-0.1,0-1.6-1.4-2.4-2.1
			c-1.6-1.5-2.8-3.2-3.5-5.3l0,0c-0.1-0.2-0.5-2.1-0.5-2.2v-0.1c1,4.7,51.1,14.5,55.8,2.3
			C259,158.0002,261.7,171.9002,248.4,175.6002z"/>
	</g>
	<g>
		<path class="st1" d="M274.4,116.8002c0,0,9.2,18.3,11.4,22.1c19.1,34.1,20.6,92.6,27.2,160.4c6.1,62.8,50.3,86.4,67.3,92.6
			c0,0-38.6-62.9-65.2-189.3C300.6,133.6002,274.4,116.8002,274.4,116.8002z"/>
	</g>
	<g class="st22">
		<path class="st3" d="M380.2,391.9002c-17-6.3-61.1-29.9-67.2-92.6c-2.7-27.1-4.5-52.8-7-76c5.6,10.3,12.6,20.8,20.9,29.2
			C351.5,344.8002,379.7,391.1002,380.2,391.9002z"/>
	</g>
	<g class="st23">
		<path class="st3" d="M416,316.2002c-3.5-35.9-5.6-69.1-9.6-97.5c2.9,19.2,10.9,37.2,20.8,50.9l24,130.9
			C455.5,432.9002,422.2,379.0002,416,316.2002z"/>
	</g>
</g>
<g>
	<path class="st6" d="M613.8,112.7002c2.3-0.9,4.4-1.6,5.3-1.6c0.8,0.7,4.9,18.8,4.9,18.8l-0.9-1.7l-7.7-8.5l-3.3-2.9
		L613.8,112.7002z"/>
</g>
<g>
	<g>
		<path class="st1" d="M818.3,377.7002c0,0-25.9,4.9-38.6,11.3c-3.6,1.8-6.5,3.7-7.9,5.7c-0.7,0.9-1,1.8-1.1,2.7l0,0
			c0,0.2,0,0.5,0.1,0.7v0.1c0,0.1,0.1,0.2,0.1,0.4c0,0.1,0,0.1,0.1,0.2l0,0l0,0c0.3,0.7,0.3,1.4,0,2.1c-2,5.1-18.3,10.1-33.8,13.3
			c-10.8,2.3-21.3,3.7-26.3,3.9c-1.3,0-2.2,0-2.7-0.2l0,0c0,0-19,4.8-46.1,4.6c-4.3,0-8.8-0.2-13.5-0.5
			c-14.5-57.1-15.2-126.3-9.3-183.4c3-29.2,7.7-55.2,13.2-74.8c0.1-0.5,0.3-0.9,0.4-1.4c5.3-19.2,10-26.7,10-26.7l86.4-9.9
			c1.2,15.6,6.8,26.7,6.8,27.1c2.5,28.8,5.5,58.8,10.7,88.3C775.5,290.7002,790.1,338.8002,818.3,377.7002L818.3,377.7002z"/>
	</g>
	<g>
		<path class="st3" d="M770.7,397.3002c-0.4-1.7-1-4.8-1.8-8.8c-2.7-14-12.8-45.8-13-60.3c8.8,29.4,15,46.9,21.4,57.2
			c0.7,1.2,1.5,2.3,2.4,3.5C774.5,391.6002,770.8,394.5002,770.7,397.3002z"/>
	</g>
	<g>
		<path class="st3" d="M771,398.8002v2.1c-2,5.1-18.3,10.1-33.8,13.3c-5.7-28.2-21.1-98.1-29.7-110l3.4,113.8c-1.3,0-2.2,0-2.7-0.2
			l0,0c0,0-19,4.8-46.1,4.6c-2.2-26.5-10.5-93.8-5.9-150.1c0.8-9.9-2.8-19.6-9.9-26.6c-2.1-2.1-4.5-4.5-6.9-7.2
			c3-29.2,7.7-55.2,13.2-74.8c0.1-0.5,0.3-0.9,0.4-1.4c5.3-19.2,9.9-26.8,9.9-26.8l86.5-9.8c1.2,15.6,6.8,26.7,6.8,27.1
			c2.5,28.8,5.5,58.8,10.7,88.3l0,0c-13,4.8-22.3,16.4-24.2,30.1l-3,21l31.3,105.8v0.1l0.1,0.4L771,398.8002z"/>
	</g>
</g>
<g>
	<path class="st3" d="M629.5,413.8002c0,0-55.9,11.5-104.6,3.6c-10.9-1.8-21.4-4.5-30.8-8.6c10.9-45.1,18.8-114.9,23.9-172.2
		c4.8-54,7.1-96.8,7.1-96.8l95.3-13c-0.9,14.4,7.2,24.8,7.2,25.1C624.2,223.2002,629.5,413.8002,629.5,413.8002z"/>
</g>
<g>
	<path class="st1" d="M538,256.6002c0,0-1.5,95.9-13.1,160.7c-10.9-1.8-21.4-4.5-30.8-8.6c10.9-45.1,18.8-114.9,23.9-172.2
		C532.9,252.5002,538,256.6002,538,256.6002z"/>
</g>
<g>
	<g>
		<g>
			<path class="st24" d="M686.9,461.7002l28.5-0.7c-0.6-1.7,4-3.2,3-6.3c-2.4-7.9-5.5-11.5-7-17.4l-22.4-1
				c-0.1,1.9-2.5,11.3-2.4,18.3C686.7,457.2002,686.9,460.0002,686.9,461.7002z"/>
		</g>
		<g>
			<path class="st25" d="M719,467.2002v-5.4c0-5.4-3.9-9.8-8.7-9.8h-13.7c-2.3,0-4.5,0.9-6.2,2.5c-2.2,2-3.6,5.1-3.6,8.5l0.1,4.2
				L719,467.2002z"/>
		</g>
		<g>
			<path class="st26" d="M719,461.7002v-4c0-5.4-3.9-9.8-8.7-9.8h-13.7c-2.3,0-4.5,0.9-6.2,2.5c-2.2,2-3.6,5.1-3.6,8.5v2.8H719z"/>
		</g>
		<g>
			<path class="st27" d="M775.1,442.1002l-3.9-0.1l0.5,2.6l1.6,7.7l-17.1,3.6l-0.4-1.9l-0.4-1.7l-0.1-0.6l-0.1-0.4l-0.6-3.9
				l-0.8-4.7l0.1-1.7l0,0v-0.2l-0.4-1.9l0,0l0.3-3.2l0.1-1l0.4-4.9c5.2-1.9,11.3-2,16.6-0.6l2,4.6l0.4,0.9l0.2,0.5l1.7,4l0.2,0.5
				v0.1l0.5,2.1l0.1,0.4L775.1,442.1002z"/>
		</g>
		<g>
			<path class="st26" d="M799,467.2002h-22.5l-7.4-3.4l-0.1,3.4c0,0-8.2,0-12.7,0c-1.6,0-3-1.4-3.1-3.2c-0.1-1.2-0.1-2.7-0.2-4.4
				c0-0.9-0.1-1.8-0.1-2.7v-0.5c0-1.1-0.1-2.2-0.1-3.3c0-0.2,0-0.4,0-0.6c0-4.3,0.1-8.5,0.6-10.5l0,0c0.2-0.7,0.4-1.1,0.7-1.2
				c0,0.1,0,0.2,0,0.3l0,0c0.2,2.2,0.9,6.5,2.4,9.4c0.2,0.3,0.3,0.6,0.5,0.9c0.9,1.3,2,2.1,3.3,2.1c1.6-0.1,2.3-1.5,3.1-3.4
				c0.5-1,1-2.2,1.7-3.4c0.1-0.2,0.3-0.5,0.5-0.7c2.4-3.6,7.4-6.1,10-6c0.4,0,0.8,0.1,1.1,0.3c0.2,0.1,0.3,0.2,0.5,0.4
				c0.3,0.3,0.6,0.6,0.9,1c0.3,0.3,0.5,0.7,0.7,1c1.7,2.8,2.9,6.6,4.1,7.1l0,0c0.1,0,0.4,0.1,0.5,0.1l-0.3-0.1
				C800.7,447.9002,803.9,465.3002,799,467.2002z"/>
		</g>
		<g>
			<path class="st28" d="M799.3,467.6002l-44.9-0.4c-0.7,0-1.2-0.6-1.3-1.3c-0.1-1.3-0.2-3.6-0.3-6.3h5.1l5.1,3.2l37.9,0.4
				C801.4,465.6002,801.5,467.6002,799.3,467.6002z"/>
		</g>
		<g class="st29">
			<path class="st30" d="M777.1,440.3002L777.1,440.3002c-0.6-0.4-1.2-0.6-1.5-0.6c0,0,0,0,0-0.1c0,0,0,0,0-0.1c0,0,0-0.1-0.1-0.1
				c0,0,0-0.1-0.1-0.1c0-0.1,0-0.1-0.1-0.1c0,0,0,0,0-0.1c-6.1-1.4-14.9-3.2-21.3-4.5l-0.1,1l-0.3,3.2v0.1l0.4,1.9v0.2
				c0-0.1,0-0.2,0-0.3c-0.3,0.1-0.5,0.6-0.7,1.2l0,0c-0.5,2-0.7,6.1-0.7,10.5c0.1-0.6,0.9-1.4,2.4-2.2c0.3-0.2,0.6-0.4,1-0.5
				c2.2-1.1,5.3-2.3,9.1-3.3c2-0.5,4.2-1,6.6-1.4c2.5-0.4,5.1-0.7,7.8-0.9L777.1,440.3002z"/>
		</g>
		<g>
			<path class="st14" d="M778.2,440.6002c-9,2.9-18.3,5.2-27.7,4.8c-7.9-55.3-18.4-124.3-37.8-176.8c-0.5-1.6-2-1.8-2.3,0
				c2.8,68.9,4.7,176.8,4.7,176.8c-8.9,0.2-18.4-0.9-27.1-3.1c0,0-8.4-85.5-13.7-168.5v-37.5l74.8,0.2v24c0,0.8,0.1,1.6,0.2,2.4
				c1.4,8.2,9.5,62,14.2,86.3l0,0c0.4,1.9,0.7,3.8,1.1,5.7C769.9,382.8002,774.4,412.1002,778.2,440.6002z"/>
		</g>
	</g>
	<g>
		<path class="st31" d="M670.8,134.3002v91.3c0,2.4,1.2,4.7,3.2,6.1l15.4,0.1l60.2,0.5l0.6-0.7c1.2-1.4,1.9-3.1,1.9-5
			c-0.1-15.3,0-69.3,0-92.4c0-8.5-5.8-15.8-14.1-17.7l-9-2.2l-6-1.5l-10.9-2.7l-11.1,2.7l0,0l-5.6,1.3l-10.3,2.5
			C676.7,118.5002,670.8,125.8002,670.8,134.3002z"/>
	</g>
	<g>
		<path class="st32" d="M752.1,156.4002v69.2c0,2.4-1.2,4.7-3.2,6.1l-15.4,0.1l2.5-1.9c6.7-5.2,10.6-13.2,10.6-21.7v-57.2
			L752.1,156.4002z"/>
	</g>
	<g>
		<path class="st33" d="M695.7,195.5002l0.1-0.1C695.7,195.4002,695.7,195.5002,695.7,195.5002L695.7,195.5002z"/>
	</g>
	<g>
		<path class="st33" d="M696.6,195.0002c0.1,0,0.2-0.1,0.3-0.1C696.8,194.9002,696.7,195.0002,696.6,195.0002z"/>
	</g>
	<g>
		<polygon class="st26" points="749.6,237.6002 673.9,237.1002 674,231.7002 749.6,232.3002 		"/>
	</g>
	<g>
		<path class="st14" d="M730.3,231.3002h2.4c0.5,0,0.9,0.4,0.9,1l-0.1,6.9c0,0.5-0.4,0.9-1,0.9h-2.4c-0.5,0-0.9-0.4-0.9-1l0.1-6.9
			C729.4,231.7002,729.8,231.3002,730.3,231.3002z"/>
	</g>
	<g>
		<path class="st14" d="M691.8,231.3002h2.4c0.5,0,0.9,0.4,0.9,1l-0.1,6.9c0,0.5-0.4,0.9-1,0.9h-2.4c-0.5,0-0.9-0.4-0.9-1l0.1-6.9
			C690.8,231.7002,691.3,231.3002,691.8,231.3002z"/>
	</g>
	<g>
		<path class="st34" d="M720.3,239.1002h-10.6c-1.2,0-2.2-1-2.2-2.2v-4.2c0-1.2,1-2.2,2.2-2.2h10.6c1.2,0,2.2,1,2.2,2.2v4.2
			C722.4,238.1002,721.5,239.1002,720.3,239.1002z M709.6,232.4002c-0.2,0-0.4,0.2-0.4,0.4v4.2c0,0.2,0.2,0.4,0.4,0.4h10.6
			c0.2,0,0.4-0.2,0.4-0.4v-4.2c0-0.2-0.2-0.4-0.4-0.4H709.6z"/>
	</g>
	<g>
		<polygon class="st8" points="702.6,117.1002 712.1,123.5002 721.5,117.1002 721.5,94.9002 702.6,94.9002 		"/>
	</g>
	<g id="XMLID_42_">
		<polygon class="st35" points="708.7,128.1002 715.7,128.1002 722.1,213.2002 712.3,230.6002 702.3,213.2002 		"/>
	</g>
	<g>
		<path class="st32" d="M715.2,122.4002l8.3,8.2l3.3-11.8c0.7-2,1.5-3.5,2.3-4.6l-6-1.5L715.2,122.4002z"/>
	</g>
	<g>
		<path class="st32" d="M695.3,114.1002c0.5,1.1,1.1,2.7,1.9,4.8l3.3,11.8l8.3-8.2l-7.8-9.6l0,0L695.3,114.1002z"/>
	</g>
	<g>
		<path class="st35" d="M706.8,123.6002v1.3c0,2.3,1.8,4.1,4.1,4.1h2.6c2.3,0,4.1-1.8,4.1-4.1v-1.3c0-2.3-2-4.5-4.2-4.5h-2.6
			c-1.3,0-2.4,0.7-3.1,1.8C707.1,121.7002,706.8,122.6002,706.8,123.6002z"/>
	</g>
	<g>
		<g>
			<path class="st6" d="M730.8,233.1002c0.3,0.8,1.2,1.4,1.7,1.2c1.6-0.5,4.7-2.4,6.6-3.1c2-0.7,5.7-2.9,6.3-2.9
				c0.3,0,1,0.4,0.5,0.9s-4.8,3-5.9,4c-1.1,0.9-4.3,3.2-6.1,4.2s0.1,3.3,1.4,3c1.3-0.4,4.8-2.7,6.1-3.4c1.4-0.6,3.1-1.6,4.1-2.3
				s4.3-3.5,4.7-2.4c0.3,0.4-5.4,3.5-6.5,4.4c-1.2,0.9-3.2,1.8-4.8,2.9c-1.6,1.1,0.2,2.8,1.3,2.7s6.2-3.3,7.3-3.6s5.8-4.1,6.6-4.3
				c1,0.4-4.3,4.4-6.7,5.2c-2.4,0.9-1.6,2.3-0.8,3c0.1,0,0.1-0.1,0.2-0.1c0.6-0.3,1.3-0.6,1.8-0.8l0,0c2.5-1.1,4.4-2,5.5-2.8
				c1.7-1.2,2.6-2.1,4.4-3.2c4.5-2.6,7.1-7.1,9.2-9.5c0.6-0.7,1.1-3.7,1.6-4.3c-1.9-1.9-1.8-1.9-3.4-4.2c-1.1-0.9-2.2-1.9-3.2-2.9
				c-0.7-0.7-1-1.4-1-2.1c-0.7,0-2.4-0.2-3.2-0.3c-1.2-0.7-3.7-2.6-6.6-3l-0.9,6.7c0,0-3.2,4.6-6.4,6.6c-0.7,0.5-1.2,1-1.6,1.3
				c-1.7,1.5-4.8,2.8-6.1,3.7s-3.3,2.4-5.4,3.5C730.7,231.7002,730.6,232.4002,730.8,233.1002z"/>
		</g>
		<g>
			<g>
				<path class="st31" d="M770.6,175.2002l2.5,2.5l-0.3,0.5l-0.6,1.2l-11.9,23.1l1.1,6.8l-2.7,2.9l10.7,10.1l2.9-3.8l6.3-2.6
					l16.7-34.4c1.4-2.3,2.1-5,1.8-7.9s-1.6-5.4-3.4-7.4l-37.1-38.2l0,0c-3.4-3.5-9.8-9.4-17.7-11.3l0.4,26.9l10,10.1L770.6,175.2002
					z"/>
			</g>
		</g>
		<g>
			<polygon class="st36" points="761.4,209.4002 758.7,212.3002 769.4,222.4002 772.4,218.6002 			"/>
		</g>
		<g>
			<path class="st36" d="M773.1,177.7002c0,0,3.7-6.2,10-8.3c-4.9-0.8-12.5,5.8-12.5,5.8L773.1,177.7002z"/>
		</g>
		<g>
			<polygon class="st7" points="761.4,209.4002 758.7,212.3002 769.4,222.4002 772.4,218.6002 			"/>
		</g>
		<g>
			<path class="st32" d="M770.4,175.4002l0.5,0.4c1.1,1,1.9,1.7,2.2,1.9c0.4-0.7,4.1-6.4,10-8.3
				C778.2,168.6002,770.4,175.4002,770.4,175.4002z"/>
		</g>
	</g>
	<g>
		<g>
			<path class="st36" d="M649.6,177.9002c0,0-3.7-6.2-10-8.3c4.9-0.8,12.5,5.8,12.5,5.8L649.6,177.9002z"/>
		</g>
		<g>
			<path class="st37" d="M649.6,177.9002c0,0-3.7-6.2-10-8.3c4.9-0.8,12.5,5.8,12.5,5.8L649.6,177.9002z"/>
		</g>
	</g>
	<g>
		<g>
			<path class="st31" d="M690.7,136.9002l-14.9,24.7l-11.5,19c-3.7,5.8-10,9.2-16.9,9.2c-0.2,0-0.3,0-0.5,0
				c-7.1-0.2-13.4-3.9-16.9-10l-23.3-33l-0.7-0.9l4.4-6l3.4-4.6l8.8-12l24.9,36.9l15.7-26.8c5-8.5,13.3-14.7,22.9-17L690.7,136.9002
				z"/>
		</g>
	</g>
	<g>
		<path class="st32" d="M670.8,169.4002v56.2c0,2.4,1.2,4.7,3.2,6.1l15.4,0.1l-2.5-1.9c-6.7-5.2-10.6-13.2-10.6-21.7v-49.2
			L670.8,169.4002z"/>
	</g>
	<g>
		<path class="st31" d="M676.3,158.9002l-0.5,2.6l-11.5,19c-3.7,5.8-10,9.2-16.9,9.2c-0.2,0-0.3,0-0.5,0c-7.1-0.2-13.4-3.9-16.9-10
			l-23.3-33l3.7-6.9l2.8-5.2l0.6,0.6l34.2,37.9c3.6,4,9.9,3.5,12.9-0.9l14.8-22.1L676.3,158.9002z"/>
	</g>
	<g>
		<path class="st1" d="M656.6,144.9002c3.9-7.3,25.1-25.2,46.6-24.4l-4.6-10.1l0,0c-16.9,0.5-31.9,10.8-38.5,26.3L656.6,144.9002z"
			/>
	</g>
	<g>
		<path class="st1" d="M758,129.3002c-11.5-6.6-25.4-11.2-39-8.8l4.5-10.1c8.4,0.3,16.4,3,23.1,7.5
			C751,120.9002,754.9,124.8002,758,129.3002z"/>
	</g>
	<g>
		<path class="st7" d="M698.3,118.5002l3.4,7l9.1-6.4c0,0-8.3-11.3-8.3-14.3l-3.1,3.7C697.1,111.3002,696.7,115.2002,698.3,118.5002
			z"/>
	</g>
	<g>
		<path class="st7" d="M725.9,118.5002l-3.4,7l-9.1-6.4c0,0,8.3-11.3,8.3-14.3l3.1,3.7C727,111.3002,727.5,115.2002,725.9,118.5002z
			"/>
	</g>
</g>
<g>
	<g>
		<g>
			<path class="st38" d="M542.2,461.2002l31.6-0.7c-0.6-1.7,4.4-3.3,3.4-6.6c-2.6-8.2-6.1-11.9-7.8-18.1l-24.9-1.1
				c-0.1,2-2.7,11.8-2.6,19C542,456.5002,542.1,459.4002,542.2,461.2002z"/>
		</g>
		<g>
			<path class="st25" d="M577.8,466.9002v-5.6c0-5.6-4.3-10.1-9.6-10.1H553c-2.6,0-5,1-6.8,2.6c-2.4,2.1-4,5.2-4,8.8l0.1,4.4
				L577.8,466.9002z"/>
		</g>
		<g>
			<path class="st39" d="M577.8,461.2002v-4.2c0-5.6-4.3-10.1-9.6-10.1H553c-2.6,0-5,1-6.8,2.6c-2.4,2.1-4,5.2-4,8.8v2.9
				L577.8,461.2002z"/>
		</g>
		<g>
			<path class="st27" d="M617.3,440.9002l-4.3-0.1l0.6,2.7l1.8,8l-19,3.7l-0.5-2l-0.4-1.7l-0.1-0.7l-0.1-0.4l-0.7-4l-0.8-4.9
				l0.1-1.8l0,0v-0.2l-0.5-2v-0.1l0.3-3.3l0.1-1.1l0.5-5c5.8-2,12.6-2,18.5-0.6l2.2,4.8l0.4,0.9l0.3,0.6l1.9,4.1l0.2,0.5v0.1
				l0.5,2.2l0.1,0.4L617.3,440.9002z"/>
		</g>
		<g>
			<path class="st39" d="M643.8,466.9002h-25l-8.2-3.5l-0.1,3.5c0,0-9.1,0-14.1,0c-1.8,0-3.4-1.5-3.5-3.3c-0.1-1.3-0.2-2.8-0.2-4.6
				c0-0.9-0.1-1.9-0.1-2.8v-0.5c0-1.1-0.1-2.3-0.1-3.5c0-0.2,0-0.4,0-0.7c0-4.5,0.1-8.8,0.7-10.9l0,0c0.2-0.7,0.4-1.1,0.7-1.3
				c0,0.1,0,0.2,0,0.3l0,0c0.2,2.2,1,6.7,2.7,9.7c0.2,0.3,0.4,0.6,0.6,0.9c1,1.3,2.2,2.2,3.7,2.2c1.7-0.1,2.5-1.6,3.5-3.6
				c0.5-1.1,1.1-2.3,1.9-3.5c0.2-0.2,0.3-0.5,0.5-0.8c2.6-3.7,8.3-6.4,11.1-6.3c0.5,0,0.9,0.1,1.2,0.3c0.2,0.1,0.4,0.2,0.5,0.4
				c0.3,0.3,0.7,0.6,1,1c0.3,0.3,0.5,0.7,0.8,1.1c1.9,2.9,3.2,6.8,4.6,7.3l0,0c0.1,0.1,0.5,0.1,0.6,0.1l-0.3-0.1
				C645.7,446.8002,649.3,464.9002,643.8,466.9002z"/>
		</g>
		<g>
			<path class="st28" d="M644.2,467.3002l-49.8-0.4c-0.7,0-1.4-0.6-1.4-1.3c-0.1-1.4-0.2-3.8-0.3-6.5h5.7l5.7,3.3l42.1,0.4
				C646.5,465.2002,646.6,467.3002,644.2,467.3002z"/>
		</g>
		<g class="st29">
			<path class="st30" d="M619.5,439.0002L619.5,439.0002c-0.7-0.4-1.3-0.6-1.7-0.7c0,0,0,0,0-0.1c0,0,0,0,0-0.1c0,0,0-0.1-0.1-0.1
				c0,0,0-0.1-0.1-0.1c0-0.1,0-0.1-0.1-0.1c0,0,0,0,0-0.1c-6.8-1.5-16.5-3.3-23.7-4.7l-0.1,1.1l-0.3,3.3v0.1l0.5,2v0.2
				c0-0.1,0-0.2,0-0.3c-0.3,0.1-0.5,0.6-0.7,1.3l0,0c-0.6,2.1-0.8,6.4-0.7,10.9c0.1-0.6,1-1.4,2.7-2.3c0.3-0.2,0.7-0.4,1.1-0.6
				c2.4-1.2,5.9-2.4,10.1-3.5c2.2-0.6,4.7-1.1,7.3-1.5c2.7-0.4,5.6-0.7,8.7-0.9L619.5,439.0002z"/>
		</g>
	</g>
	<g>
		<polygon class="st14" points="543,443.1002 572.6,442.9002 574.7,353.4002 576.6,266.1002 584.9,265.7002 588.6,353.4002 
			588.7,355.3002 592.4,442.9002 592.5,446.8002 619.7,443.1002 622.3,442.8002 620.9,357.2002 620.8,353.4002 618.8,227.8002 
			543.2,227.8002 543.1,353.4002 		"/>
	</g>
	<g>
		<polygon class="st14" points="620.8,353.4002 588.6,353.4002 592.5,446.8002 622.3,442.8002 		"/>
	</g>
	<g>
		<g>
			<path class="st7" d="M621.2,134.0002v91.3c0,2.4-1.2,4.7-3.2,6.1l-15.4,0.1l-60.2,0.5l-0.6-0.7c-1.2-1.4-1.9-3.1-1.9-5
				c0.1-15.3,0-69.3,0-92.4c0-8.5,5.8-15.8,14.1-17.7l9-2.2l6-1.5l10.9-2.7l11.1,2.7l0,0l5.6,1.3l10.3,2.5
				C615.3,118.1002,621.2,125.5002,621.2,134.0002z"/>
		</g>
		<g>
			<path class="st40" d="M621.2,156.0002v69.2c0,2.4-1.2,4.7-3.2,6.1l-15.4,0.1l2.5-1.9c6.7-5.2,10.6-13.2,10.6-21.7v-57.2
				L621.2,156.0002z"/>
		</g>
		<g>
			<path class="st40" d="M540,156.0002v69.2c0,2.4,1.2,5.6,3.2,7l15.4,0.1l-2.5-2.8c-6.7-5.2-10.6-13.2-10.6-21.7v-57.2
				L540,156.0002z"/>
		</g>
		<g>
			<path class="st33" d="M596.4,195.1002l-0.1-0.1C596.3,195.1002,596.4,195.1002,596.4,195.1002L596.4,195.1002z"/>
		</g>
		<g>
			<path class="st33" d="M595.5,194.7002c-0.1,0-0.2-0.1-0.3-0.1C595.3,194.6002,595.4,194.6002,595.5,194.7002z"/>
		</g>
		<g>
			<polygon class="st41" points="542.5,237.3002 618.1,236.7002 618.1,231.3002 542.5,231.9002 			"/>
		</g>
		<g>
			<path class="st14" d="M561.7,231.0002h-2.4c-0.5,0-0.9,0.4-0.9,1l0.1,6.9c0,0.5,0.4,0.9,1,0.9h2.4c0.5,0,0.9-0.4,0.9-1l-0.1-6.9
				C562.7,231.4002,562.2,231.0002,561.7,231.0002z"/>
		</g>
		<g>
			<path class="st14" d="M600.3,231.0002h-2.4c-0.5,0-0.9,0.4-0.9,1l0.1,6.9c0,0.5,0.4,0.9,1,0.9h2.4c0.5,0,0.9-0.4,0.9-1l-0.1-6.9
				C601.2,231.4002,600.8,231.0002,600.3,231.0002z"/>
		</g>
		<g>
			<path class="st34" d="M582.4,238.8002h-10.6c-1.2,0-2.2-1-2.2-2.2v-4.2c0-1.2,1-2.2,2.2-2.2h10.6c1.2,0,2.2,1,2.2,2.2v4.2
				C584.6,237.8002,583.6,238.8002,582.4,238.8002z M571.8,232.0002c-0.2,0-0.4,0.2-0.4,0.4v4.2c0,0.2,0.2,0.4,0.4,0.4h10.6
				c0.2,0,0.4-0.2,0.4-0.4v-4.2c0-0.2-0.2-0.4-0.4-0.4H571.8z"/>
		</g>
		<g>
			<polygon class="st8" points="589.5,116.8002 579.9,123.1002 570.6,116.8002 570.6,94.6002 589.5,94.6002 			"/>
		</g>
		<g>
			<path class="st15" d="M570.6,110.7002l0.1-0.1c5.7-3.8,13.1-3.8,18.8,0.1l0,0v10h-18.9L570.6,110.7002L570.6,110.7002z"/>
		</g>
		<g id="XMLID_53_">
			<polygon class="st42" points="583.4,127.7002 576.4,127.7002 570,212.8002 579.8,230.3002 589.8,212.8002 			"/>
		</g>
		<g>
			<path class="st40" d="M576.9,122.1002l-8.3,8.2l-3.3-11.8c-0.7-2-1.5-3.5-2.3-4.6l6-1.5L576.9,122.1002z"/>
		</g>
		<g>
			<path class="st40" d="M596.7,113.8002c-0.5,1.1-1.1,2.7-1.9,4.8l-3.3,11.8l-8.3-8.2l7.8-9.6l0,0L596.7,113.8002z"/>
		</g>
		<g>
			<path class="st42" d="M585.3,123.3002v1.3c0,2.3-1.8,4.1-4.1,4.1h-2.6c-2.3,0-4.1-1.8-4.1-4.1v-1.3c0-2.3,2-4.5,4.2-4.5h2.6
				c1.3,0,2.4,0.7,3.1,1.8C585,121.4002,585.3,122.3002,585.3,123.3002z"/>
		</g>
		<g>
			<g>
				<path class="st6" d="M561.2,232.7002c-0.3,0.8-1.2,1.4-1.7,1.2c-1.6-0.5-4.7-2.4-6.6-3.1c-2-0.7-5.7-2.9-6.3-2.9
					c-0.3,0-1,0.4-0.5,0.9s4.8,3,5.9,4c1.1,0.9,4.3,3.2,6.1,4.2s-0.1,3.3-1.4,3c-1.3-0.4-4.8-2.7-6.1-3.4c-1.4-0.6-3.1-1.6-4.1-2.3
					s-4.3-3.5-4.7-2.4c-0.3,0.4,5.4,3.5,6.5,4.4c1.2,0.9,3.2,1.8,4.8,2.9c1.6,1.1-0.2,2.8-1.3,2.7s-6.2-3.3-7.3-3.6
					s-5.8-4.1-6.6-4.3c-1,0.4,4.3,4.4,6.7,5.2c2.4,0.9,1.6,2.3,0.8,3c-0.1,0-0.1-0.1-0.2-0.1c-0.6-0.3-1.3-0.6-1.8-0.8l0,0
					c-2.5-1.1-4.4-2-5.5-2.8c-1.7-1.2-2.6-2.1-4.4-3.2c-4.5-2.6-7.1-7.1-9.2-9.5c-0.6-0.7-1.1-3.7-1.6-4.3c1.9-1.9,1.8-1.9,3.4-4.2
					c1.1-0.9,2.2-1.9,3.2-2.9c0.7-0.7,1-1.4,1-2.1c0.7,0,2.4-0.2,3.2-0.3c1.2-0.7,3.7-2.6,6.6-3l0.9,6.7c0,0,3.2,4.6,6.4,6.6
					c0.7,0.5,1.2,1,1.6,1.3c1.7,1.5,4.8,2.8,6.1,3.7s3.3,2.4,5.4,3.5C561.4,231.4002,561.5,232.1002,561.2,232.7002z"/>
			</g>
			<g>
				<g>
					<path class="st7" d="M521.5,174.9002l-2.5,2.5l0.3,0.5l0.6,1.2l11.9,23.1l-1.1,6.8l2.7,2.9l-10.7,10.1l-2.9-3.8l-6.3-2.6
						l-16.7-34.4c-1.4-2.3-2.1-5-1.8-7.9c0.3-2.9,1.6-5.4,3.4-7.4l37.1-38.2l0,0c3.4-3.5,7.1-6.8,10.6-8.2l6.7,23.8l-10,10.1
						L521.5,174.9002z"/>
				</g>
			</g>
			<g>
				<polygon class="st36" points="530.6,209.1002 533.4,212.0002 522.6,222.1002 519.7,218.3002 				"/>
			</g>
			<g>
				<path class="st36" d="M519,177.4002c0,0-3.7-6.2-10-8.3c4.9-0.8,12.5,5.8,12.5,5.8L519,177.4002z"/>
			</g>
			<g>
				<polygon class="st7" points="530.6,209.1002 533.4,212.0002 522.6,222.1002 519.7,218.3002 				"/>
			</g>
			<g>
				<path class="st40" d="M521.7,175.1002l-0.5,0.4c-1.1,1-1.9,1.7-2.2,1.9c-0.4-0.7-4.1-6.4-10-8.3
					C513.9,168.3002,521.7,175.1002,521.7,175.1002z"/>
			</g>
		</g>
		<g>
			<g>
				<path class="st6" d="M600.2,233.0002c0.3,0.8,1.2,1.4,1.7,1.2c1.6-0.5,4.7-2.4,6.6-3.1c2-0.7,5.7-2.9,6.3-2.9
					c0.3,0,1,0.4,0.5,0.9s-4.8,3-5.9,4c-1.1,0.9-4.3,3.2-6.1,4.2s0.1,3.3,1.4,3c1.3-0.4,4.8-2.7,6.1-3.4c1.4-0.6,3.1-1.6,4.1-2.3
					s4.3-3.5,4.7-2.4c0.3,0.4-5.4,3.5-6.5,4.4c-1.2,0.9-3.2,1.8-4.8,2.9c-1.6,1.1,0.2,2.8,1.3,2.7s6.2-3.3,7.3-3.6s5.8-4.1,6.6-4.3
					c1,0.4-4.3,4.4-6.7,5.2c-2.4,0.9-1.6,2.3-0.8,3c0.1,0,0.1-0.1,0.2-0.1c0.6-0.3,1.3-0.6,1.8-0.8l0,0c2.5-1.1,4.4-2,5.5-2.8
					c1.7-1.2,2.6-2.1,4.4-3.2c4.5-2.6,7.1-7.1,9.2-9.5c0.6-0.7,1.1-3.7,1.6-4.3c-1.9-1.9-1.8-1.9-3.4-4.2c-1.1-0.9-2.2-1.9-3.2-2.9
					c-0.7-0.7-1-1.4-1-2.1c-0.7,0-2.4-0.2-3.2-0.3c-1.2-0.7-3.7-2.6-6.6-3l-0.9,6.7c0,0-3.2,4.6-6.4,6.6c-0.7,0.5-1.2,1-1.6,1.3
					c-1.7,1.5-4.8,2.8-6.1,3.7s-3.3,2.4-5.4,3.5C600,231.6002,599.9,232.3002,600.2,233.0002z"/>
			</g>
			<g>
				<g>
					<path class="st7" d="M640,175.1002l2.5,2.5l-0.3,0.5l-0.6,1.2l-11.9,23.1l1.1,6.8l-2.7,2.9l10.7,10.1l2.9-3.8l6.3-2.6
						l16.7-34.4c1.4-2.3,2.1-5,1.8-7.9s-1.6-5.4-3.4-7.4l-37.1-38.1l0,0c-3.4-3.5-7.1-6.8-10.6-8.2l-6.7,23.8l10,10.1L640,175.1002z
						"/>
				</g>
			</g>
			<g>
				<polygon class="st36" points="630.8,209.3002 628.1,212.2002 638.8,222.3002 641.7,218.5002 				"/>
			</g>
			<g>
				<path class="st36" d="M642.5,177.6002c0,0,3.7-6.2,10-8.3c-4.9-0.8-12.5,5.8-12.5,5.8L642.5,177.6002z"/>
			</g>
			<g>
				<polygon class="st7" points="630.8,209.3002 628.1,212.2002 638.8,222.3002 641.7,218.5002 				"/>
			</g>
			<g>
				<path class="st40" d="M642.5,177.6002c0,0,3.7-6.2,10-8.3c-4.9-0.8-12.5,5.8-12.5,5.8L642.5,177.6002z"/>
			</g>
		</g>
	</g>
	<g>
		<path class="st1" d="M628.4,130.7002c-0.3-0.2-5.3-4.4-12.6-7.8c-4.4-2-9.6-3.8-15-4.3c-0.5-0.1-1-0.1-1.6-0.1c-0.4,0-0.8,0-1.2,0
			c-3.7,0-7.4,0.6-11,2.2l3.3-12.5c2.1-0.1,5.3,0.4,9,1.6c5.4,1.7,11.9,4.8,18.2,9.7l0,0c1.1,0.8,2.2,1.8,3.2,2.7
			C623.4,124.7002,626,127.5002,628.4,130.7002z"/>
	</g>
	<g>
		<g>
			<g>
				<path class="st8" d="M571.1,97.1002c2.2,1.3,4.7,2.4,7.3,3c3.7,0.9,7.7,1.1,11.8,0.4c1-0.2,2-0.4,3-0.7c0.5-0.1,0.9-0.3,1.4-0.4
					c1.6-0.5,3.1-1.2,4.5-2c5.5-3,9.6-7.7,11.5-13c1.3-3.4,1.6-7,1-10.7l-4-22.3l-2-9.7c-0.4-2.5-1-4.8-2.2-6.9
					c-0.8-0.8-1.8-1.6-2.7-2.3c-6.9-5.1-16.5-7.1-27.1-5.2c-0.2,0-0.5,0.1-0.7,0.1c-1,0.2-2,0.4-3,0.7c-3,0.8-5.9,2-8.5,3.5l0,0
					c-5,5.1-7.5,12-6.3,19l3.6,20.3l1.2,6.5l0.7,3.8l0.2,1.2c0.3,1.7,0.8,3.3,1.5,4.9C564.2,91.4002,567.2,94.7002,571.1,97.1002z"
					/>
			</g>
			<g>
				<path class="st20" d="M572.8,26.1002c19.6-2.4,23.3-13.7,23.3-13.7c15.4,6.8,15.7,21.8,10.6,35.9c-3.5-0.1-7.3-0.2-9.9,1
					c-4.2,2-9,4.1-12.5,7.2c-0.6,0.5-0.9,1.2-1,1.8c-1.1,0.2-2.2,0.5-3.2,0.9c-1.1-1.1-2.9-1.8-4.4-0.8c-3,2-6.4,2.2-9,4.8
					c-0.5,0.5-1,1.1-1.3,1.7c-0.5,0.1,0.2,3.3,0.2,3.4c-0.3,0-1.4-1.6-1.7-1.6c-0.5-0.5-0.9-1.2-1.3-1.9c-0.1,0-0.2,0-0.3,0
					c-0.1-0.1-0.2-0.2-0.4-0.3c-0.7-0.6-3.5,1.5-4.1,1.6c0,0,2.5,5.1,3.7,11.1c1.4,4.7,0.6,9.8,0.6,9.8s-8.4-2.9-13.8-34.1
					C545.5,37.1002,559.2,27.8002,572.8,26.1002z"/>
			</g>
			<g>
				<path class="st20" d="M580.4,66.7002c0-0.2-0.1-0.3-0.1-0.3S580.4,66.5002,580.4,66.7002s0.1,0.3,0.1,0.3
					S580.4,66.9002,580.4,66.7002z"/>
			</g>
			<g>
				<path class="st15" d="M564.8,65.8002c0.1,0.3,0.1,0.7,0.2,1l0.7,3.9l1.9,10.5c0,0.2,0.1,0.4,0.1,0.6c0.3,1.5,0.8,2.9,1.4,4.3
					c1.5,3.2,3.8,6,6.7,8.2c0.1,0.1,0.2,0.1,0.2,0.2c0.2,0.2,0.5,0.3,0.7,0.5c0.4,0.3,0.7,0.5,1.1,0.7c1,0.6,2.1,1.1,3.2,1.6
					c4.1,1.8,8.8,2.5,13.7,2c1.6-0.5,3.1-1.2,4.5-2c0.7-0.4,1.4-0.8,2.1-1.3c2.3-1.6,4.3-3.5,6-5.6l0,0c1.5-1.9,2.6-4,3.4-6.1
					c0.9-3,1.8-6.4,1.2-9.6l-4.2-23.8c0,0,0,0,0-0.1l-0.5-2.6c-0.2-0.7-0.4-1.4-0.6-2.1l0,0c-0.3-1.2-0.7-2.4-1-3.4l0,0
					c-6.3-13.8-33.8-0.3-33.8-0.3c0-1.1,0.2-2.1,0.8-3c-2.7,1.3-5.2,3.1-7.6,5.3C561.5,47.9002,563,55.8002,564.8,65.8002z"/>
			</g>
			<g>
				<path class="st19" d="M592.7,73.5002c-3,0.3-4.5-0.7-4.7,0.2c-0.3,1.1,2.4,2.9,4.8,2.5c2.4-0.4,4.6-3,4-4
					C596.5,71.4002,595.6,73.2002,592.7,73.5002z"/>
			</g>
			<g>
				<path class="st43" d="M596.8,57.5002c-0.5,0-1-0.3-1.2-0.8c-0.2-0.6,0.1-1.3,0.7-1.6l6.5-2.4c0.6-0.2,1.3,0.1,1.6,0.7
					c0.2,0.6-0.1,1.3-0.7,1.6l-6.5,2.4C597.1,57.4002,596.9,57.5002,596.8,57.5002z"/>
			</g>
			<g>
				<path class="st43" d="M575.2,59.7002c-0.6,0-1.2-0.5-1.2-1.1c0-0.7,0.5-1.3,1.1-1.3l8-0.5c0.7,0,1.3,0.5,1.3,1.1
					s-0.5,1.3-1.1,1.3L575.2,59.7002C575.3,59.7002,575.3,59.7002,575.2,59.7002z"/>
			</g>
			<g>
				<path class="st21" d="M591.2,84.9002c-2,0-3.8-0.4-5.2-1c-0.6-0.3-0.9-1-0.6-1.6c0.3-0.6,1-0.9,1.6-0.6c2.7,1.3,9,1.3,13.8-2.6
					c0.5-0.4,1.3-0.4,1.7,0.2c0.4,0.5,0.4,1.3-0.2,1.7C599,83.7002,594.8,84.9002,591.2,84.9002z"/>
			</g>
			<g>
				<path class="st20" d="M565.5,27.9002c0,0,19.2-6.7,21.3-13.3c4,2.3,6.2,8,5.6,10.2C584,30.7002,565.5,27.9002,565.5,27.9002z"/>
			</g>
			<g>
				<path class="st20" d="M564.5,37.0002l10.7-0.6c6.3-5,19.6-7.7,24.8-8.6c1.8-0.3,6.9,18,6.9,18c-0.1,0.1-0.2,0.2-0.3,0.2l0,0l0,0
					c-0.2-1.3-0.6-2.5-1-3.4l0,0c-5.2-11.3-24.6-4.3-31.4-1.4c-2.1,0.9-5,2.6-6.3,4.5c-3.2,4.6-1,16.3-0.2,20.6
					c0.4,2.2,0.2,4.3-2,4.3l0,0l-0.3-2c-0.1-0.9-0.9-1.4-1.3-2.2l-7.6-18.8L564.5,37.0002z"/>
			</g>
		</g>
		<g>
			<path class="st8" d="M556.4,71.7002c0.8,3.7,3.8,6.2,6.7,5.6s4.6-4.2,3.7-7.9c-0.8-3.7-3.8-6.2-6.7-5.6
				S555.5,68.0002,556.4,71.7002z"/>
		</g>
		<g>
			<g>
				<path class="st19" d="M579.8,60.5002c-2.2,0.3-3.6,2.1-3.4,4.5c0.1,2.4,3.3,4.4,5.1,3.3c1.9-1.2,2.6-0.5,2.9-3.4
					C584.7,62.3002,582.4,60.1002,579.8,60.5002z"/>
			</g>
			<g>
				<g>
					<path class="st7" d="M580.7,68.7002c-1.8-0.2-3.1-1.8-2.9-3.6c0.2-1.8,1.8-3.1,3.6-2.9c1.8,0.2,3.1,1.8,2.9,3.6
						C584.1,67.6002,582.5,68.9002,580.7,68.7002z"/>
				</g>
			</g>
			<g>
				<path class="st20" d="M579.6,65.1002c0.2,1.1,1.3,1.8,2.4,1.5c1.1-0.2,1.8-1.3,1.6-2.4c-0.2-1.1-1.3-1.8-2.4-1.5
					C580,62.9002,579.3,64.0002,579.6,65.1002z"/>
			</g>
			<g>
				<path class="st7" d="M579,64.8002c0.1,0.4,0.5,0.6,0.8,0.5c0.4-0.1,0.6-0.5,0.6-0.8c-0.1-0.4-0.5-0.6-0.8-0.5
					C579.2,64.0002,578.9,64.4002,579,64.8002z"/>
			</g>
			<g>
				<path class="st19" d="M599.9,57.6002c-2.2,0.3-3.6,2.1-3.4,4.5c0.1,2.4,3.3,4.4,5.1,3.3c1.9-1.2,2.6-0.5,2.9-3.4
					C604.8,59.4002,602.4,57.2002,599.9,57.6002z"/>
			</g>
			<g>
				<g>
					<path class="st7" d="M600.7,65.8002c-1.8-0.2-3.1-1.8-2.9-3.6c0.2-1.8,1.8-3.1,3.6-2.9c1.8,0.2,3.1,1.8,2.9,3.6
						C604.2,64.7002,602.5,66.0002,600.7,65.8002z"/>
				</g>
			</g>
			<g>
				<path class="st20" d="M599.6,62.2002c0.2,1.1,1.3,1.8,2.4,1.5c1.1-0.2,1.8-1.3,1.6-2.4c-0.2-1.1-1.3-1.8-2.4-1.5
					C600.1,60.0002,599.4,61.1002,599.6,62.2002z"/>
			</g>
			<g>
				<path class="st7" d="M599.1,61.9002c0.1,0.4,0.5,0.6,0.8,0.5c0.4-0.1,0.6-0.5,0.6-0.8c-0.1-0.4-0.5-0.6-0.8-0.5
					C599.2,61.1002,599,61.5002,599.1,61.9002z"/>
			</g>
		</g>
	</g>
	<g>
		<path class="st1" d="M523.2,140.6002c10.7-10.2,23.4-27.8,47.7-18.2l-1.2-12.4c0,0-5.3-2.5-21.8,3.6
			C530.5,120.2002,523.2,140.6002,523.2,140.6002z"/>
	</g>
	<g>
		<path class="st7" d="M593.9,117.6002l-3.6,7.6l-9.1-6.4c0,0,8.3-11.3,8.3-14.3l2.8,3
			C594.9,110.3002,595.5,114.3002,593.9,117.6002z"/>
	</g>
	<g>
		<path class="st7" d="M564.7,115.0002l5,10.2l9.1-6.4c0,0-8.3-11.3-8.3-14.3l-5.3,6.4C564.2,112.1002,564,113.7002,564.7,115.0002z
			"/>
	</g>
</g>
<g class="st44">
	<path class="st45" d="M620.7,122.3002c-2-1.5-4.2-0.4-8.7,7.8c-1.3,2.3-4.3,1.3-4.2-0.2c-0.8,2.4-4.3,2.4-5.1,0.6
		c-0.9-2.1,1.7-8.4,2.7-10.4c-0.5,1.1-1.6,3.4-2.1,4.8c-0.7,1.9-3.5,1.8-3.7-0.1c-0.2-1.8,0.4-4.1,1.2-6.2c1-2.8,2.3-5.2,2.3-5.2
		s-0.5-0.2-1.3-0.3c-0.3,0.6-0.9,4.2-2.2,5.1c-0.1,0.1-0.3,0.2-0.4,0.3c-0.4,0.2-0.8,0.3-1.2,0c-0.4-0.4-0.7-1.4-0.6-3.4
		c0.1-2.5,0.8-4.2,1.9-5.2c5.4,1.7,11.9,4.8,18.2,9.7l0,0C618.6,120.4002,619.7,121.3002,620.7,122.3002z"/>
</g>
<g>
	<path class="st46" d="M701.4,91.8002c-5.4-1.2-17.6-11.2-22.8-27.7l13.2-1.8L701.4,91.8002z"/>
</g>
<g>
	<path class="st8" d="M722.6,101.5002c1-0.2,2-0.5,2.9-0.8c0.5-0.1,0.9-0.3,1.3-0.5c1.5-0.6,3-1.3,4.4-2.1c8.4-5,4.3-54.5,4.3-54.5
		c-0.5-2.4-1.1-4.6-2.4-6.6c-0.9-0.8-1.8-1.5-2.7-2.1c-6.9-4.7-16.4-6.3-26.6-4.1c-0.2,0.1-0.5,0.1-0.7,0.2c-1,0.2-1.9,0.5-2.9,0.8
		c-2.9,0.9-5.6,2.2-8.1,3.7l0,0c-4.7,5.2-6.9,12-5.5,18.8l4.3,19.7c0.2,1,1.8,8.4,2.4,11.2
		C696,97.4002,709.3,104.4002,722.6,101.5002z"/>
</g>
<g>
	<path class="st46" d="M689.4,66.7002l-0.9,0.4l-0.5-1.1l-6.3-14.5c-5.5-35.2,52.7-40.2,56.4-4.3c1,9.9-2.3,12.8-3.3,14
		c-2.1,2.4-26.8,13.8-26.8,13.8c-0.4-0.1-8.8-6.8-8.8-6.8c-0.7-0.3-1.5-0.5-2.4-0.2c-0.1,0-0.2,0.1-0.4,0.1c0,0.2,0.1,0.4,0.1,0.6
		c0.1,0.3,0.1,0.6,0.2,1c-0.3,0-0.7,0-1,0.1c-0.5-0.5-0.9-1.1-1.3-1.8c-0.1,0-0.2,0-0.3,0c-0.1-0.1-0.2-0.2-0.4-0.2
		c-0.7-0.6-1.5-1-2.5-1.1C690.7,66.6002,690.1,66.6002,689.4,66.7002L689.4,66.7002z"/>
</g>
<g>
	<path class="st46" d="M686.3,39.7002c0,0-24.1,16.2,6.7,43.4c-0.4-3.3-1.1-21-1.1-21L686.3,39.7002z"/>
</g>
<g>
	<path class="st46" d="M698,39.6002c0,0,1.9,11.7-2.7,20.7c-7.7-10.2-8.5-15-8.5-15L698,39.6002z"/>
</g>
<g>
	<path class="st15" d="M738.9,91.1002L738.9,91.1002c-3,4.2-7.3,7.3-12,9.1c-6,0.8-11.8-0.3-16.6-3c-0.4-0.2-0.7-0.4-1.1-0.7
		c-3.3-2.1-6-5-7.8-8.4c-0.7-1.3-1.2-2.7-1.5-4.1c-0.1-0.2-0.1-0.4-0.1-0.6l-2.2-10.2l-0.8-3.7c-0.1-0.3-0.1-0.6-0.2-1
		c-2.1-9.7-1.5-16.1-0.6-20.6c0.2-1.1,0.9-2.3,2-3.4c7.1-7.3,30.2-13.6,35.7-4.2c1.4,2.3,2.5,5.6,3.6,9.5l0.5,2.5l0,0c0,0,0,0,0,0.1
		l4.1,19.2C744.4,82.6002,740.2,89.2002,738.9,91.1002z"/>
</g>
<g>
	<path class="st19" d="M708.3,60.8002c-2.1,0.5-3.4,2.3-3.1,4.6c0.3,2.3,3.5,4.1,5.2,2.9c1.8-1.3,2.5-0.7,2.7-3.5
		C713.2,62.3002,710.8,60.3002,708.3,60.8002z"/>
</g>
<g>
	<g>
		<path class="st7" d="M709.7,68.8002c-1.8-0.1-3.2-1.6-3.1-3.4c0.1-1.8,1.6-3.2,3.3-3.1c1.8,0.1,3.2,1.6,3.1,3.4
			C712.9,67.5002,711.4,68.9002,709.7,68.8002z"/>
	</g>
</g>
<g>
	<path class="st20" d="M708.3,65.3002c0.3,1,1.4,1.6,2.5,1.3c1.1-0.3,1.7-1.4,1.4-2.4c-0.3-1-1.4-1.6-2.5-1.3
		C708.6,63.2002,708,64.3002,708.3,65.3002z"/>
</g>
<g>
	<path class="st46" d="M725.5,56.9002c-0.4,0-0.8-0.2-1-0.6c-0.3-0.6-0.1-1.3,0.4-1.6c2.4-1.4,6.3-2.6,9.2-2.4
		c0.7,0.1,1.2,0.6,1.1,1.3c-0.1,0.7-0.6,1.2-1.3,1.1c-2.1-0.2-5.5,0.7-7.9,2.1C725.9,56.8002,725.7,56.9002,725.5,56.9002z"/>
</g>
<g>
	<path class="st46" d="M701.8,60.3002c-0.4,0-0.8-0.2-1-0.6c-0.3-0.6-0.1-1.3,0.4-1.6c3.1-1.8,8.2-2.2,10.8-1.8
		c0.7,0.1,1.1,0.7,1,1.3c-0.1,0.7-0.7,1.1-1.3,1c-2.3-0.3-6.8,0.1-9.2,1.5C702.2,60.3002,702,60.3002,701.8,60.3002z"/>
</g>
<g>
	<path class="st7" d="M707.8,65.1002c0.1,0.4,0.5,0.6,0.9,0.5s0.6-0.5,0.5-0.9s-0.5-0.6-0.9-0.5
		C707.9,64.3002,707.7,64.7002,707.8,65.1002z"/>
</g>
<g>
	<path class="st19" d="M729.5,56.4002c-2.1,0.5-3.4,2.3-3.1,4.6c0.3,2.3,3.5,4.1,5.2,2.9c1.8-1.3,2.5-0.7,2.7-3.5
		C734.3,57.8002,731.9,55.8002,729.5,56.4002z"/>
</g>
<g>
	<g>
		<path class="st7" d="M730.8,64.3002c-1.8-0.1-3.2-1.6-3.1-3.4c0.1-1.8,1.6-3.2,3.3-3.1c1.8,0.1,3.2,1.6,3.1,3.4
			C734.1,63.0002,732.6,64.4002,730.8,64.3002z"/>
	</g>
</g>
<g>
	<path class="st20" d="M729.5,60.9002c0.3,1,1.4,1.6,2.5,1.3s1.7-1.4,1.4-2.4s-1.4-1.6-2.5-1.3
		C729.8,58.7002,729.2,59.8002,729.5,60.9002z"/>
</g>
<g>
	<path class="st7" d="M728.9,60.6002c0.1,0.4,0.5,0.6,0.9,0.5s0.6-0.5,0.5-0.9s-0.5-0.6-0.9-0.5S728.8,60.2002,728.9,60.6002z"/>
</g>
<g>
	<path class="st19" d="M723.4,73.1002c-2.9,0.4-4.4-0.5-4.6,0.3c-0.2,1.1,2.5,2.7,4.8,2.2c2.4-0.5,4.4-3.1,3.8-4.1
		C727,70.9002,726.2,72.7002,723.4,73.1002z"/>
</g>
<g>
	<path class="st8" d="M695.9,70.0002c1,3.3-0.3,6.7-2.9,7.4c-2.6,0.8-5.5-1.3-6.4-4.7c-1-3.3,0.3-6.7,2.9-7.4
		C692,64.6002,694.9,66.7002,695.9,70.0002z"/>
</g>
<g>
	<path class="st21" d="M722,87.2002c-2.1,0-4.1-0.4-5.5-1.1c-0.6-0.3-0.8-1-0.5-1.6s1-0.8,1.6-0.5c2.7,1.3,8.8,1.6,13.6-2.2
		c0.5-0.4,1.3-0.3,1.7,0.2s0.3,1.3-0.2,1.7C729.4,86.1002,725.5,87.2002,722,87.2002z"/>
</g>
<g>
	<path class="st6" d="M615.5,119.6002c0.6-1.4,4.1-7.5,4.1-7.5s-0.4-2.1-2.4-2.6c-0.7-0.2-1,0.1-1.7-0.4c-0.9-0.6-0.7-1.8-2.8-2.4
		c-1.1-0.3-4.7-0.4-5.9-0.4c-0.4,0-0.7-0.1-1-0.3c-0.9-0.6-1.9-1-3-0.9c-2.4,0.3-5.7,1.7-5.9,7.2c-0.2,4.6,1.4,3.8,2.2,3.2
		c1.2-0.9,1.8-4.5,2.2-5.1c0.7,0.1,1.3,0.3,1.3,0.3s-3.9,7.2-3.4,11.4c0.2,1.8,3,2,3.7,0.1s2.4-5.5,2.4-5.5s-4.1,8.5-3,11.1
		c0.8,1.9,4.7,1.8,5.2-1.1c-0.7,1.5,2,4,3.5,1.6C612,126.8002,615.4,119.8002,615.5,119.6002z"/>
</g>
<g>
	<path class="st46" d="M700.2,42.7002c10.3-7.2,21.1,7.2,35.2-1.6c0,0,0.9-8.2-10-10.5S700.2,42.7002,700.2,42.7002z"/>
</g>
<g>
	<g>
		<path class="st1" d="M136.6,422.0002c-2.8,0.2-5.2,0.4-7.3,0.5c-14.5,1.2-15.1,1.7-37.8-3.2l0,0l0,0c-0.2,0.1-0.6,0.1-1,0.2
			c-2.6,0.2-8.5-0.5-15.6-1.7c-17.3-3.1-41.3-9.8-37.9-16.7l0,0l0,0c0.2-0.4,0.3-0.9,0.4-1.3l0,0c0.1-0.9-0.2-1.8-0.7-2.6
			c-1.1-1.9-3.5-3.8-6.6-5.5c-10.9-6.2-30-10.8-30-10.8l0,0l0,0c26.6-35.2,44-77.3,56.7-123.7c1-3.6,2-7.2,2.9-10.8
			c7.1-27.5,12.8-56.4,18-86.2c0.1-0.6,0.2-1.1,0.3-1.7c1.5-8.6,2.9-17.2,4.4-25.8l78.1,8.2c0,0,2.1,8.2,5,27l0.2,1.4
			C174.6,226.2002,199,327.7002,136.6,422.0002z"/>
	</g>
	<g>
		<path class="st3" d="M136.6,422.0002c-2.8,0.2-5.2,0.4-7.3,0.5l2.9-110.7c-21.1,19.2-35.9,80-41.7,107.7
			c-2.6,0.2-8.5-0.5-15.6-1.7c2.7-21.4,6.9-55.2,7.7-62.2c1-8.1-2.8-57.4-25.8-98.6c1-3.6,2-7.2,2.9-10.8
			c9.3-36.2,12.4-70.8,17.4-113.7l83.2,8.2c0,0,2.1,8.2,5,27l0.2,1.4C174.6,226.2002,199,327.7002,136.6,422.0002z"/>
	</g>
	<g>
		<path class="st3" d="M37.3,399.6002c0.5-1.7,1.3-4.7,2.4-8.7c3.7-13.8,10-38.3,11.6-52.5c-10.7,29-12.1,39.4-18.8,49.6
			c-0.8,1.2-1.6,2.3-2.5,3.5C34.5,394.0002,37.5,396.8002,37.3,399.6002z"/>
	</g>
</g>
<g>
	<path class="st1" d="M525.5,375.2002c-0.1,0-64.9,40.9-150.5,28c-0.9-0.1-1.9-0.3-3.4-0.5c-23.2-3.9-45.5-11.2-67.6-22.3
		c10.6-38.6,19.1-80,25.7-115.2c1.1-6,2.2-11.8,3.2-17.4c0.2-1.1,2.6-15.7,20.1-102.8c0.4-2.1,0.9-4.2,1.3-6.4
		c1.9-14.4,99.2-10.6,110.9-9.4c1.2,15.4,2.5,55.6,12.7,102l0,0C487.5,275.9002,502.8,319.2002,525.5,375.2002z"/>
</g>
<g>
	<path class="st3" d="M486.9,392.6002c-17.3,5.9-35.9,10.1-55.6,12l-10-61.7c-1.2-7.7-12.5-7.1-13,0.6l-3.9,62.1
		c-21.5-0.4-42.4-3.9-60.5-9.4l9.9-65.6c2-13.6-1.6-27.3-10-38.2c-0.1-0.2-0.3-0.3-0.4-0.5c-9.6-12.5-13.4-28.6-10.6-44.1v-0.2
		c0.2-1.1,2.6-15.7,20.1-102.8c0.4-2.1,0.9-4.2,1.3-6.4c1.9-14.4,99.2-10.6,110.9-9.4c1.3,18.3,2.6,50.8,10.5,91.3
		c0.4,2.3,2.2,10.6,2.2,10.7l0,0c-6.9,18.2-9.1,37.9-6.2,57.1L486.9,392.6002z"/>
</g>
<g>
	<g>
		<path class="st6" d="M365.7,290.8002c-0.2-1.1-0.7-2.1-1.4-2.9l-5.7-5.7c-1.1-4.5-0.8-8.7,1.1-12.3c0,0.1,0.1,0.1,0.1,0.2
			c0.7-1,1.4-1.5,1.7-1.1c0.1,0.1,0.1,0.2,0.2,0.3c0.5,1.6-0.2,4.2,0,6.6c0.1,1.1,0.4,2.1,1.1,3c0.4,0.4,0.7,0.8,1,1.1
			c1.8,1.6,3.1,1.2,3.3,1c0,0,0-0.3,0-0.6c0-0.8-0.2-2.3-0.3-3.8c-0.2-1.8-0.3-3.7-0.2-4.6c0.2-2.2,0.8-9-1.4-15.1
			c-0.9-2.6-1.1-5-0.9-7.3c0,0-0.1,0-0.1,0.1l0,0c-0.4,2-13.5,1.3-13.5,1.3l-3.2,16.9c0,0,0.4,16.2,5.2,18.7
			c4.6,2.4,11.8,8.5,11.8,8.5l0.6-1C365.6,293.0002,365.9,291.9002,365.7,290.8002z"/>
	</g>
	<g>
		<path class="st47" d="M378.1,135.5002l-3.6,120l0,0c-7.1,3.6-15.3,4.5-23,2.5l-4.7-1.2c0.3-3.6,2.5-124.7,12.9-139.3
			L378.1,135.5002z"/>
	</g>
</g>
<g>
	<g>
		<path class="st48" d="M133.8,91.2002c5.4-1.2,15.5-12.3,20.6-28.8l-13.6-1.6L133.8,91.2002z"/>
	</g>
	<g>
		<g>
			<g>
				<path class="st24" d="M142.3,461.6002l-28.5-0.7c0.6-1.7-4-3.2-3-6.3c2.4-7.9,5.5-11.5,7-17.4l22.4-1c0.1,1.9,2.5,11.3,2.4,18.3
					C142.5,457.1002,142.4,459.9002,142.3,461.6002z"/>
			</g>
			<g>
				<path class="st25" d="M110.2,467.1002v-5.4c0-5.4,3.9-9.8,8.7-9.8h13.7c2.3,0,4.5,0.9,6.2,2.5c2.2,2,3.6,5.1,3.6,8.5l-0.1,4.2
					L110.2,467.1002z"/>
			</g>
			<g>
				<path class="st26" d="M110.2,461.6002v-4c0-5.4,3.9-9.8,8.7-9.8h13.7c2.3,0,4.5,0.9,6.2,2.5c2.2,2,3.6,5.1,3.6,8.5v2.8H110.2z"
					/>
			</g>
			<g>
				<path class="st27" d="M54.1,442.0002l3.9-0.1l-0.5,2.6l-1.6,7.7l17.1,3.6l0.4-1.9l0.4-1.7l0.1-0.6l0.1-0.4l0.6-3.9l0.8-4.7
					l-0.1-1.7l0,0v-0.2l0.4-1.9l0,0l-0.3-3.2l-0.1-1l-0.4-4.9c-5.2-1.9-11.3-2-16.6-0.6l-2,4.6l-0.4,0.9l-0.2,0.5l-1.7,4l-0.2,0.5
					v0.1l-0.5,2.1l-0.1,0.4L54.1,442.0002z"/>
			</g>
			<g>
				<path class="st26" d="M30.3,467.1002h22.5l7.4-3.4l0.1,3.4c0,0,8.2,0,12.7,0c1.6,0,3-1.4,3.1-3.2c0.1-1.2,0.1-2.7,0.2-4.4
					c0-0.9,0.1-1.8,0.1-2.7v-0.5c0-1.1,0.1-2.2,0.1-3.3c0-0.2,0-0.4,0-0.6c0-4.3-0.1-8.5-0.6-10.5l0,0c-0.2-0.7-0.4-1.1-0.7-1.2
					c0,0.1,0,0.2,0,0.3l0,0c-0.2,2.2-0.9,6.5-2.4,9.4c-0.2,0.3-0.3,0.6-0.5,0.9c-0.9,1.3-2,2.1-3.3,2.1c-1.6-0.1-2.3-1.5-3.1-3.4
					c-0.5-1-1-2.2-1.7-3.4c-0.1-0.2-0.3-0.5-0.5-0.7c-2.4-3.6-7.4-6.1-10-6c-0.4,0-0.8,0.1-1.1,0.3c-0.2,0.1-0.3,0.2-0.5,0.4
					c-0.3,0.3-0.6,0.6-0.9,1c-0.3,0.3-0.5,0.7-0.7,1c-1.7,2.8-2.9,6.6-4.1,7.1l0,0c-0.1,0-0.4,0.1-0.5,0.1l0.3-0.1
					C28.6,447.8002,25.3,465.2002,30.3,467.1002z"/>
			</g>
			<g>
				<path class="st28" d="M29.9,467.5002l44.9-0.4c0.7,0,1.2-0.6,1.3-1.3c0.1-1.3,0.2-3.6,0.3-6.3h-5.1l-5.1,3.2l-37.9,0.4
					C27.9,465.5002,27.7,467.5002,29.9,467.5002z"/>
			</g>
			<g class="st29">
				<path class="st30" d="M52.2,440.2002L52.2,440.2002c0.6-0.4,1.2-0.6,1.5-0.6c0,0,0,0,0-0.1c0,0,0,0,0-0.1c0,0,0-0.1,0.1-0.1
					c0,0,0-0.1,0.1-0.1c0-0.1,0-0.1,0.1-0.1c0,0,0,0,0-0.1c6.1-1.4,14.9-3.2,21.3-4.5l0.1,1l0.3,3.2v0.1l-0.4,1.9v0.2
					c0-0.1,0-0.2,0-0.3c0.3,0.1,0.5,0.6,0.7,1.2l0,0c0.5,2,0.7,6.1,0.7,10.5c-0.1-0.6-0.9-1.4-2.4-2.2c-0.3-0.2-0.6-0.4-1-0.5
					c-2.2-1.1-5.3-2.3-9.1-3.3c-2-0.5-4.2-1-6.6-1.4c-2.5-0.4-5.1-0.7-7.8-0.9L52.2,440.2002z"/>
			</g>
			<g>
				<path class="st14" d="M51,440.4002c9,2.9,18.3,5.2,27.7,4.8c7.9-55.3,18.4-124.3,37.8-176.8c0.5-1.6,2-1.8,2.3,0
					c-2.8,68.9-4.7,176.8-4.7,176.8c8.9,0.2,18.4-0.9,27.1-3.1c0,0,8.4-85.5,13.7-168.5v-37.5l-74.8,0.2v24c0,0.8-0.1,1.6-0.2,2.4
					c-1.4,8.2-9.5,62-14.2,86.3l0,0c-0.4,1.9-0.7,3.8-1.1,5.7C59.3,382.7002,54.9,412.0002,51,440.4002z"/>
			</g>
		</g>
		<g>
			<path class="st49" d="M158.4,134.2002v91.3c0,2.4-1.2,4.7-3.1,6.1l-15.4,0.1l-60.2,0.5l-0.6-0.7c-1.2-1.4-1.9-3.1-1.9-5
				c0.1-11.1,0.1-42.5,0-67.8c0-9.6,0-18.2,0-24.6c0-3.7,1.1-7.2,3.1-10.1c2.2-3.3,5.4-5.8,9.3-7.1c0.5-0.2,1.1-0.3,1.7-0.5l9-2.2
				l5.4-1.3l0.7-0.2l10.9-2.7l11.1,2.7l0,0l5.6,1.3l10.3,2.5C152.5,118.3002,158.4,125.7002,158.4,134.2002z"/>
		</g>
		<g>
			<path class="st50" d="M158.4,156.3002v69.2c0,2.4-1.2,4.7-3.2,6.1l-15.4,0.1l2.5-1.9c6.7-5.2,10.6-13.2,10.6-21.7v-57.2
				L158.4,156.3002z"/>
		</g>
		<g>
			<path class="st50" d="M77.1,156.3002v69.2c0,2.4,1.2,4.7,3.2,6.1l15.4,0.1l-2.5-1.9c-6.7-5.2-10.6-13.2-10.6-21.7v-57.2
				L77.1,156.3002z"/>
		</g>
		<g>
			<path class="st33" d="M133.5,195.4002l-0.1-0.1C133.5,195.3002,133.5,195.4002,133.5,195.4002L133.5,195.4002z"/>
		</g>
		<g>
			<path class="st33" d="M132.6,194.9002c-0.1,0-0.2-0.1-0.3-0.1C132.4,194.8002,132.5,194.9002,132.6,194.9002z"/>
		</g>
		<g>
			<polygon class="st26" points="79.6,237.5002 155.3,236.9002 155.2,231.5002 79.6,232.2002 			"/>
		</g>
		<g>
			<path class="st14" d="M98.9,231.2002h-2.4c-0.5,0-0.9,0.4-0.9,1l0.1,6.9c0,0.5,0.4,0.9,1,0.9h2.4c0.5,0,0.9-0.4,0.9-1l-0.1-6.9
				C99.8,231.6002,99.4,231.2002,98.9,231.2002z"/>
		</g>
		<g>
			<path class="st14" d="M137.4,231.2002H135c-0.5,0-0.9,0.4-0.9,1l0.1,6.9c0,0.5,0.4,0.9,1,0.9h2.4c0.5,0,0.9-0.4,0.9-1l-0.1-6.9
				C138.4,231.6002,137.9,231.2002,137.4,231.2002z"/>
		</g>
		<g>
			<path class="st34" d="M119.6,239.0002H109c-1.2,0-2.2-1-2.2-2.2v-4.2c0-1.2,1-2.2,2.2-2.2h10.6c1.2,0,2.2,1,2.2,2.2v4.2
				C121.8,238.0002,120.8,239.0002,119.6,239.0002z M109,232.2002c-0.2,0-0.4,0.2-0.4,0.4v4.2c0,0.2,0.2,0.4,0.4,0.4h10.6
				c0.2,0,0.4-0.2,0.4-0.4v-4.2c0-0.2-0.2-0.4-0.4-0.4H109z"/>
		</g>
		<g>
			<polygon class="st8" points="126.6,117.0002 117.1,123.3002 107.7,117.0002 107.7,94.8002 126.6,94.8002 			"/>
		</g>
		<g id="XMLID_48_">
			<polygon class="st42" points="120.5,127.9002 113.5,127.9002 107.2,213.0002 117,230.5002 127,213.0002 			"/>
		</g>
		<g>
			<path class="st50" d="M114.1,122.3002l-8.3,8.2l-3.3-11.8c-0.7-2-1.5-3.5-2.3-4.6l6-1.5L114.1,122.3002z"/>
		</g>
		<g>
			<path class="st50" d="M133.9,114.0002c-0.5,1.1-1.1,2.7-1.9,4.8l-3.3,11.8l-8.3-8.2l7.8-9.6l0,0L133.9,114.0002z"/>
		</g>
		<g>
			<path class="st42" d="M122.4,123.5002v1.3c0,2.3-1.8,4.1-4.1,4.1h-2.6c-2.3,0-4.1-1.8-4.1-4.1v-1.3c0-2.3,2-4.5,4.2-4.5h2.6
				c1.3,0,2.4,0.7,3.1,1.8C122.1,121.6002,122.4,122.5002,122.4,123.5002z"/>
		</g>
		<g>
			<g>
				<path class="st6" d="M98.4,233.0002c-0.3,0.8-1.2,1.4-1.7,1.2c-1.6-0.5-4.7-2.4-6.6-3.1c-2-0.7-5.7-2.9-6.3-2.9
					c-0.3,0-1,0.4-0.5,0.9s4.8,3,5.9,4c1.1,0.9,4.3,3.2,6.1,4.2c1.8,1-0.1,3.3-1.4,3c-1.3-0.4-4.8-2.7-6.1-3.4
					c-1.4-0.6-3.1-1.6-4.1-2.3s-4.3-3.5-4.7-2.4c-0.3,0.4,5.4,3.5,6.5,4.4c1.2,0.9,3.2,1.8,4.8,2.9c1.6,1.1-0.2,2.8-1.3,2.7
					c-1.1-0.1-6.2-3.3-7.3-3.6c-1.1-0.3-5.8-4.1-6.6-4.3c-1,0.4,4.3,4.4,6.7,5.2c2.4,0.9,1.6,2.3,0.8,3c-0.1,0-0.1-0.1-0.2-0.1
					c-0.6-0.3-1.3-0.6-1.8-0.8l0,0c-2.5-1.1-4.4-2-5.5-2.8c-1.7-1.2-2.6-2.1-4.4-3.2c-4.5-2.6-7.1-7.1-9.2-9.5
					c-0.6-0.7-1.1-3.7-1.6-4.3c1.9-1.9,1.8-1.9,3.4-4.2c1.1-0.9,2.2-1.9,3.2-2.9c0.7-0.7,1-1.4,1-2.1c0.7,0,2.4-0.2,3.2-0.3
					c1.2-0.7,3.7-2.6,6.6-3l0.9,6.7c0,0,3.2,4.6,6.4,6.6c0.7,0.5,1.2,1,1.6,1.3c1.7,1.5,4.8,2.8,6.1,3.7c1.3,0.9,3.3,2.4,5.4,3.5
					C98.6,231.6002,98.7,232.3002,98.4,233.0002z"/>
			</g>
			<g>
				<g>
					<path class="st49" d="M58.6,175.1002l-2.5,2.5l0.3,0.5l0.6,1.2l11.9,23.1l-1.1,6.8l2.7,2.9l-10.7,10.1l-2.9-3.8l-6.3-2.6
						l-16.7-34.4c-1.4-2.3-2.1-5-1.8-7.9c0.3-2.9,1.6-5.4,3.4-7.4l37.1-38.1l0,0c3.4-3.5,7.1-6.8,10.6-8.2l6.7,23.8l-10,10.1
						L58.6,175.1002z"/>
				</g>
			</g>
			<g>
				<polygon class="st36" points="67.8,209.3002 70.5,212.2002 59.8,222.3002 56.9,218.5002 				"/>
			</g>
			<g>
				<path class="st36" d="M56.1,177.6002c0,0-3.7-6.2-10-8.3c4.9-0.8,12.5,5.8,12.5,5.8L56.1,177.6002z"/>
			</g>
			<g>
				<polygon class="st7" points="67.8,209.3002 70.5,212.2002 59.8,222.3002 56.9,218.5002 				"/>
			</g>
			<g>
				<path class="st50" d="M58.8,175.3002l-0.5,0.4c-1.1,1-1.9,1.7-2.2,1.9c-0.4-0.7-4.1-6.4-10-8.3
					C51.1,168.5002,58.8,175.3002,58.8,175.3002z"/>
			</g>
		</g>
		<g>
			<g>
				<path class="st15" d="M137.4,233.2002c0.3,0.8,1.2,1.4,1.7,1.2c1.6-0.5,4.7-2.4,6.6-3.1c2-0.7,5.7-2.9,6.3-2.9
					c0.3,0,1,0.4,0.5,0.9s-4.8,3-5.9,4c-1.1,0.9-4.3,3.2-6.1,4.2s0.1,3.3,1.4,3c1.3-0.4,4.8-2.7,6.1-3.4c1.4-0.6,3.1-1.6,4.1-2.3
					s4.3-3.5,4.7-2.4c0.3,0.4-5.4,3.5-6.5,4.4c-1.2,0.9-3.2,1.8-4.8,2.9c-1.6,1.1,0.2,2.8,1.3,2.7s6.2-3.3,7.3-3.6s5.8-4.1,6.6-4.3
					c1,0.4-4.3,4.4-6.7,5.2c-2.4,0.9-1.6,2.3-0.8,3c0.1,0,0.1-0.1,0.2-0.1c0.6-0.3,1.3-0.6,1.8-0.8l0,0c2.5-1.1,4.4-2,5.5-2.8
					c1.7-1.2,2.6-2.1,4.4-3.2c4.5-2.6,7.1-7.1,9.2-9.5c0.6-0.7,1.1-3.7,1.6-4.3c-1.9-1.9-1.8-1.9-3.4-4.2c-1.1-0.9-2.2-1.9-3.2-2.9
					c-0.7-0.7-1-1.4-1-2.1c-0.7,0-2.4-0.2-3.2-0.3c-1.2-0.7-3.7-2.6-6.6-3l-0.9,6.7c0,0-3.2,4.6-6.4,6.6c-0.7,0.5-1.2,1-1.6,1.3
					c-1.7,1.5-4.8,2.8-6.1,3.7s-3.3,2.4-5.4,3.5C137.2,231.8002,137.1,232.5002,137.4,233.2002z"/>
			</g>
			<g>
				<g>
					<path class="st49" d="M177.1,175.3002l2.5,2.5l-0.3,0.5l-0.6,1.2l-11.9,23.1l1.1,6.8l-2.7,2.9l10.7,10.1l2.9-3.8l6.3-2.6
						l16.7-34.4c1.4-2.3,2.1-5,1.8-7.9s-1.6-5.4-3.4-7.4l-37.1-38.2l0,0c-3.4-3.5-7.1-6.8-10.6-8.2l-6.7,23.8l10,10.1
						L177.1,175.3002z"/>
				</g>
			</g>
			<g>
				<polygon class="st36" points="168,209.5002 165.2,212.4002 175.9,222.5002 178.9,218.7002 				"/>
			</g>
			<g>
				<path class="st36" d="M179.6,177.8002c0,0,3.7-6.2,10-8.3c-4.9-0.8-12.5,5.8-12.5,5.8L179.6,177.8002z"/>
			</g>
			<g>
				<polygon class="st7" points="168,209.5002 165.2,212.4002 175.9,222.5002 178.9,218.7002 				"/>
			</g>
			<g>
				<path class="st50" d="M179.6,177.8002c0,0,3.7-6.2,10-8.3c-4.9-0.8-12.5,5.8-12.5,5.8L179.6,177.8002z"/>
			</g>
		</g>
	</g>
	<g>
		<g>
			<path class="st8" d="M110,100.1002c-1-0.2-2-0.5-2.9-0.8c-0.5-0.1-0.9-0.3-1.3-0.5c-1.5-0.6-3-1.3-4.4-2.1
				c-8.4-5-4.3-54.5-4.3-54.5c0.5-2.4,1.1-4.6,2.4-6.6c0.9-0.8,1.8-1.5,2.7-2.1c6.9-4.7,16.4-6.3,26.6-4.1c0.2,0.1,0.5,0.1,0.7,0.2
				c1,0.2,1.9,0.5,2.9,0.8c2.9,0.9,5.6,2.2,8.1,3.7l0,0c4.7,5.2,6.9,12,5.5,18.8l-4.3,19.7c-0.2,1-1.8,8.4-2.4,11.2
				C136.6,96.0002,123.4,103.0002,110,100.1002z"/>
		</g>
		<g>
			<path class="st48" d="M143.2,65.3002l0.9,0.4l0.5-1.1l1.9-16c4.1-13.3-4.6-20.6-16.1-23.2l-8.5-2.6c-12.3-2.1-23-2.6-27.7,10.3
				c-1.8,5-1.3,13.1,2.2,17.5c1.7,2.1-0.9,0.2,0,1.3c2.1,2.5,2.9,8.6,5.9,9l20.5,7.6l3.1-5.2c0.4-0.1,0.6-0.1,0.9-0.2l6.5,3.9
				c0.7-0.3,1.5-0.5,2.4-0.2c0.1,0,0.2,0.1,0.4,0.1c0,0.2-0.1,0.4-0.1,0.6c-0.1,0.3-0.1,0.6-0.2,1c0.3,0,0.7,0,1,0.1
				c0.5-0.5,0.9-1.1,1.3-1.8c0.1,0,0.2,0,0.3,0c0.1-0.1,0.2-0.2,0.4-0.2c0.7-0.6,1.5-1,2.5-1.1
				C141.9,65.2002,142.6,65.2002,143.2,65.3002L143.2,65.3002z"/>
		</g>
		<g>
			<path class="st48" d="M147.9,39.3002c0,0,22.6,15.3-8.2,42.5c0.4-3.3,1.1-21,1.1-21L147.9,39.3002z"/>
		</g>
		<g>
			<path class="st48" d="M134.7,38.2002c0,0-1.9,11.7,2.7,20.7c7.7-10.2,8.5-15,8.5-15L134.7,38.2002z"/>
		</g>
		<g>
			<path class="st15" d="M93.8,89.7002L93.8,89.7002c3,4.2,7.3,7.3,12,9.1c6,0.8,11.8-0.3,16.6-3c0.4-0.2,0.7-0.4,1.1-0.7
				c3.3-2.1,6-5,7.8-8.4c0.7-1.3,1.2-2.7,1.5-4.1c0.1-0.2,0.1-0.4,0.1-0.6l2.2-10.2l0.8-3.7c0.1-0.3,0.1-0.6,0.2-1
				c2.1-9.7,1.5-16.1,0.6-20.6c-0.2-1.1-0.9-2.3-2-3.4c-7.1-7.3-30.2-13.6-35.7-4.2c-1.4,2.3-2.5,5.6-3.6,9.5l-0.6,2.6l0,0
				c0,0,0,0,0,0.1l-4.1,19.2C88.2,81.2002,92.4,87.8002,93.8,89.7002z"/>
		</g>
		<g>
			<path class="st19" d="M119.6,63.4002c0.1,2.8,0.9,2.2,2.7,3.5c1.7,1.2,4.9-0.5,5.2-2.9c0.3-2.3-0.9-4.2-3.1-4.6
				C121.8,58.9002,119.4,60.9002,119.6,63.4002z"/>
		</g>
		<g>
			<g>
				<path class="st7" d="M123,67.4002c1.8-0.1,3.2-1.6,3.1-3.4c-0.1-1.8-1.6-3.2-3.3-3.1c-1.8,0.1-3.2,1.6-3.1,3.4
					C119.7,66.1002,121.2,67.5002,123,67.4002z"/>
			</g>
		</g>
		<g>
			<path class="st20" d="M124.3,63.9002c-0.3,1-1.4,1.6-2.5,1.3c-1.1-0.3-1.7-1.4-1.4-2.4c0.3-1,1.4-1.6,2.5-1.3
				C124,61.8002,124.6,62.9002,124.3,63.9002z"/>
		</g>
		<g>
			<path class="st46" d="M107.1,55.1002c-0.3,0-0.7-0.1-0.9-0.4c-1.3-1.5-5.3-3.4-7-2.7c-0.6,0.2-1.3-0.1-1.6-0.7
				c-0.2-0.6,0.1-1.3,0.7-1.6c3-1.2,8,1.5,9.7,3.4c0.4,0.5,0.4,1.3-0.1,1.7C107.7,55.0002,107.4,55.1002,107.1,55.1002z"/>
		</g>
		<g>
			<path class="st46" d="M129.7,59.2002c-0.2,0-0.5-0.1-0.7-0.2c-2.3-1.5-6.6-2-8.7-1.4c-0.6,0.2-1.3-0.2-1.5-0.8s0.2-1.3,0.8-1.5
				c2.7-0.8,7.7-0.3,10.7,1.7c0.5,0.4,0.7,1.1,0.3,1.7C130.4,59.0002,130.1,59.2002,129.7,59.2002z"/>
		</g>
		<g>
			<path class="st7" d="M124.9,63.7002c-0.1,0.4-0.5,0.6-0.9,0.5s-0.6-0.5-0.5-0.9s0.5-0.6,0.9-0.5
				C124.7,62.9002,125,63.3002,124.9,63.7002z"/>
		</g>
		<g>
			<path class="st19" d="M98.4,59.0002c0.1,2.8,0.9,2.2,2.7,3.5c1.7,1.2,4.9-0.5,5.2-2.9c0.3-2.3-0.9-4.2-3.1-4.6
				C100.7,54.4002,98.3,56.4002,98.4,59.0002z"/>
		</g>
		<g>
			<g>
				<path class="st7" d="M101.8,62.9002c1.8-0.1,3.2-1.6,3.1-3.4c-0.1-1.8-1.6-3.2-3.3-3.1c-1.8,0.1-3.2,1.6-3.1,3.4
					C98.5,61.6002,100,63.0002,101.8,62.9002z"/>
			</g>
		</g>
		<g>
			<path class="st20" d="M103.1,59.5002c-0.3,1-1.4,1.6-2.5,1.3s-1.7-1.4-1.4-2.4c0.3-1,1.4-1.6,2.5-1.3
				C102.8,57.3002,103.4,58.4002,103.1,59.5002z"/>
		</g>
		<g>
			<path class="st7" d="M103.7,59.2002c-0.1,0.4-0.5,0.6-0.9,0.5s-0.6-0.5-0.5-0.9s0.5-0.6,0.9-0.5
				C103.6,58.4002,103.8,58.8002,103.7,59.2002z"/>
		</g>
		<g>
			<path class="st19" d="M109.2,71.7002c2.9,0.4,4.4-0.5,4.6,0.3c0.2,1.1-2.5,2.7-4.8,2.2c-2.4-0.5-4.4-3.1-3.8-4.1
				C105.6,69.5002,106.4,71.3002,109.2,71.7002z"/>
		</g>
		<g>
			<path class="st8" d="M136.8,68.6002c-1,3.3,0.3,6.7,2.9,7.4c2.6,0.8,5.5-1.3,6.4-4.7c1-3.3-0.3-6.7-2.9-7.4
				C140.6,63.2002,137.7,65.3002,136.8,68.6002z"/>
		</g>
		<g>
			<path class="st48" d="M148.5,41.2002c0,0,3.4-16.8-21.1-28.2c0,2.4-0.5,5.8,0,8.3c-7.4-6.5-18.3-5.8-24.9-1.9
				c1.7,1.9,3.7,4.3,3.7,4.3l31.2,6.3L148.5,41.2002z"/>
		</g>
	</g>
	<g>
		<path class="st21" d="M110.6,85.8002c-3.5,0-7.4-1.1-10.6-3.6c-0.5-0.4-0.6-1.2-0.2-1.7s1.2-0.6,1.7-0.2
			c4.8,3.7,10.9,3.5,13.6,2.2c0.6-0.3,1.3-0.1,1.6,0.5s0.1,1.3-0.5,1.6C114.7,85.4002,112.7,85.8002,110.6,85.8002z"/>
	</g>
	<g>
		<path class="st1" d="M110.7,122.3002c-17.8-5.5-33.8,2.6-35.6,3.1c8.2-16.3,30.3-14.2,30.4-14.2L110.7,122.3002z"/>
	</g>
	<g>
		<path class="st1" d="M124.8,122.3002c1.3,0,2.6-0.2,3.8-0.4c10.3-2.3,21.1-1.3,30.7,3.1c0.5,0.2,0.9,0.4,1,0.4
			c-12.2-18.1-30.3-14.2-30.4-14.2L124.8,122.3002z"/>
	</g>
</g>
<g>
	<g>
		<path class="st51" d="M209.3,196.3002L209.3,196.3002c-0.1,0-0.1,0-0.2-0.1C209.2,196.3002,209.2,196.3002,209.3,196.3002z"/>
	</g>
	<g>
		<path class="st3" d="M209.3,196.3002L209.3,196.3002c-0.1,0-0.1,0-0.2-0.1C209.2,196.3002,209.2,196.3002,209.3,196.3002z"/>
	</g>
</g>
<g>
	<g>
		<g>
			<g>
				<g>
					<path class="st52" d="M474.5,442.8002l-4-0.1l0.6,2.5l1.7,7.4l-17.5,3.4l-0.4-1.8l-0.4-1.6l-0.1-0.6l-0.1-0.3l-0.7-3.7
						l-0.8-4.5l0.1-1.6l0,0v-0.2l-0.5-1.9l0,0l0.3-3.1l0.1-1l0.4-4.7c5.3-1.8,11.6-1.9,17.1-0.6l2.1,4.4l0.4,0.8l0.2,0.5l1.8,3.8
						l0.2,0.5v0.1l0.5,2l0.1,0.4L474.5,442.8002z"/>
				</g>
				<g>
					<path class="st24" d="M500.8,464.4002c-0.3,1.2-0.6,2.1-1.6,2.5l0,0h-23.1l0,0c-0.5-0.2-7.6-3.2-7.6-3.2s-0.1,3.1-0.1,3.2l0,0
						c0,0-3.2,0-6.7,0h-6.3c0,0-0.1,0-0.2,0c-1.6-0.1-3-1.4-3.1-3c0-0.4,0-0.7-0.1-1.1c0-0.4-0.1-0.9-0.1-1.4c0-0.2,0-0.4,0-0.6
						c0-0.4,0-0.8-0.1-1.2c0-0.8-0.1-1.7-0.1-2.6v-0.5c0-1.1-0.1-2.1-0.1-3.2c0-0.2,0-0.4,0-0.6c-0.1-4.1,0-7.9,0.5-9.9v-0.1l0,0
						c0.2-0.6,0.4-1,0.7-1.2c0,0.1,0,0.2,0,0.3l0,0c0,0.3,0.1,0.7,0.1,1c0.3,2.2,1,5.6,2.4,8c0.2,0.3,0.3,0.6,0.5,0.8
						c0.9,1.2,2,2,3.4,2c0.4,0,0.7-0.1,1-0.2l0,0c1-0.5,1.5-1.6,2.2-3.1c0.5-1,1-2.1,1.7-3.3c0.1-0.2,0.3-0.5,0.5-0.7
						c0.9-1.3,2.3-2.5,3.8-3.5c2.3-1.5,4.8-2.4,6.4-2.3c0.5,0,0.8,0.1,1.1,0.3c0.2,0.1,0.3,0.2,0.5,0.4c0.1,0.1,0.2,0.1,0.2,0.2
						c0.2,0.2,0.5,0.5,0.7,0.7s0.4,0.5,0.6,0.7c0.1,0.1,0.1,0.2,0.2,0.3c1.8,2.7,3,6.3,4.3,6.8c0.1,0,0.4,0.1,0.5,0.1l-0.3-0.1
						C497.3,448.7002,502.1,459.3002,500.8,464.4002z"/>
				</g>
				<g>
					<path class="st53" d="M499.2,466.9002h-45.7c-0.7,0-1.3-0.5-1.3-1.2c0-0.5-0.1-1.1-0.1-1.8c0-0.3,0-0.7-0.1-1.1
						c0-0.4-0.1-0.9-0.1-1.4c0-0.2,0-0.4,0-0.6c0-0.4,0-0.8-0.1-1.2h5.3l3.9,2.2l1.4,0.8h38.5c0.1,0.6,0.2,1.2,0.2,1.7
						C501.2,465.9002,500.8,466.9002,499.2,466.9002z"/>
				</g>
				<g class="st54">
					<path class="st30" d="M478.2,443.1002c-2.4,0.5-4.8,1.1-7.2,1.8c-2.3,0.6-4.5,1.4-6.7,2.2c-0.4,0.1-0.7,0.3-1.1,0.4
						c-1.8,0.7-2.9,2.4-2.9,4.3c0,0.6,0,1.1,0.1,1.6c0,0.6,0,1.1,0.1,1.7c0.1,2.3,0.3,4.6,0.5,6.9c0.2,1.7,0.4,3.3,0.7,5l0,0h-6.3
						c0,0-0.1,0-0.2,0h-1.6c-0.7,0-1.3-0.5-1.3-1.2c0-0.5-0.1-1.1-0.1-1.8c0-0.3,0-0.7-0.1-1.1c0-0.4-0.1-0.9-0.1-1.4
						c0-0.2,0-0.4,0-0.6c0-0.4,0-0.8-0.1-1.2c0-0.8-0.1-1.7-0.1-2.6v-0.5c0-1.1-0.1-2.1-0.1-3.2c0-0.2,0-0.4,0-0.6
						c-0.1-4.1,0-7.9,0.5-9.9c0,0-0.4-10.2,0.8-8.6c0.4,0.6,0.8,1.1,1.2,1.6c1.4,0.3,2.8,0.5,4.3,0.8c5.6,1.1,11.7,2.3,16.3,3.3
						c0,0.1,0.2,0.4,0.2,0.6c0.3,0,0.9,0.2,1.6,0.7c0.1,0.1,0.2,0.1,0.2,0.2c0.2,0.2,0.5,0.5,0.7,0.7s0.4,0.5,0.6,0.7
						C478.1,442.9002,478.1,443.0002,478.2,443.1002z"/>
				</g>
				<g>
					<path class="st52" d="M353.4,442.8002l4-0.1l-0.6,2.5l-1.7,7.4l17.5,3.4l0.4-1.8l0.4-1.6l0.1-0.6l0.1-0.3l0.6-3.7l0.8-4.5
						l-0.1-1.6l0,0v-0.2l0.5-1.9l0,0l-0.3-3.1l-0.1-1l-0.4-4.7c-5.3-1.8-11.6-1.9-17.1-0.6l-2,4.4l-0.4,0.8l-0.2,0.5l-1.7,3.8
						l-0.2,0.5v0.1l-0.5,2l-0.1,0.4L353.4,442.8002z"/>
				</g>
				<g>
					<path class="st26" d="M328.9,466.9002H352c0,0,7.6-3.2,7.6-3.3c0,0,0.1,3.2,0.1,3.3c0,0,8.4,0,13.1,0c1.7,0,3.1-1.3,3.2-3
						c0.1-1.2,0.1-2.6,0.2-4.2c0-0.8,0.1-1.7,0.1-2.6v-0.5c0-1.1,0.1-2.1,0.1-3.2c0-0.2,0-0.4,0-0.6c0-4.2-0.1-8.1-0.7-10.1l0,0
						c-0.2-0.6-0.4-1-0.7-1.2c0,0.1,0,0.2,0,0.3l0,0c-0.2,2.1-0.9,6.2-2.5,9c-0.2,0.3-0.3,0.6-0.5,0.8c-0.9,1.2-2,2.1-3.4,2
						c-1.6-0.1-2.3-1.4-3.2-3.3c-0.5-1-1-2.1-1.7-3.3c-0.1-0.2-0.3-0.5-0.5-0.7c-2.4-3.4-7.6-5.9-10.3-5.8c-0.5,0-0.8,0.1-1.1,0.3
						c-0.2,0.1-0.3,0.2-0.5,0.4c-0.3,0.3-0.6,0.6-0.9,0.9s-0.5,0.6-0.7,1c-1.8,2.7-2.9,6.3-4.3,6.8l0,0c-0.1,0-0.4,0.1-0.5,0.1
						l0.3-0.1C327.2,448.4002,323.8,465.0002,328.9,466.9002z"/>
				</g>
				<g>
					<path class="st28" d="M328.6,467.3002l46.1-0.4c0.7,0,1.3-0.5,1.3-1.2c0.1-1.3,0.2-3.5,0.3-6H371l-5.2,3l-38.9,0.4
						C326.5,465.3002,326.3,467.3002,328.6,467.3002z"/>
				</g>
				<g class="st29">
					<path class="st30" d="M351.4,441.1002L351.4,441.1002c0.6-0.4,1.2-0.6,1.6-0.6l0,0c0,0,0,0,0-0.1c0,0,0-0.1,0.1-0.1
						c0,0,0-0.1,0.1-0.1c0,0,0-0.1,0.1-0.1c0,0,0,0,0-0.1c6.3-1.3,15.3-3.1,21.9-4.4l0.1,1l0.3,3.1l0,0l-0.5,1.9v0.2
						c0-0.1,0-0.2,0-0.3c0.3,0.1,0.5,0.6,0.7,1.2l0,0c0.6,1.9,0.7,5.9,0.7,10c-0.1-0.6-1-1.3-2.5-2.2c-0.3-0.2-0.6-0.3-1-0.5
						c-2.2-1.1-5.4-2.2-9.3-3.2c-2.1-0.5-4.3-1-6.8-1.4s-5.2-0.7-8-0.9L351.4,441.1002z"/>
				</g>
			</g>
			<g>
				<rect x="370.3" y="228.3002" class="st41" width="83.6" height="38.5"/>
			</g>
			<g>
				<g>
					<polygon class="st41" points="450.3,444.6002 415.1,245.3002 453.9,232.9002 482.6,439.2002 					"/>
				</g>
			</g>
			<g>
				<g>
					<polygon class="st41" points="376.4,448.1002 344.1,442.7002 372.2,233.0002 413.1,245.2002 					"/>
				</g>
			</g>
		</g>
		<g>
			<rect x="391.5" y="104.5002" class="st7" width="43.6" height="59.8"/>
		</g>
		<g>
			<g>
				<path class="st55" d="M404,91.4002v8.2l-4.9-3.6l0.9-2.7c0-0.3,0.1-0.5,0.3-0.7C400.5,92.3002,404,91.4002,404,91.4002z"/>
			</g>
			<g>
				<path class="st55" d="M426.5,92.8002l0.2,3.1l-4.3,2.3v-7.3c0,0,3.5,0.9,3.7,1.1C426.3,92.2002,426.5,92.5002,426.5,92.8002z"/>
			</g>
			<g id="XMLID_52_">
				<path class="st15" d="M413.1,109.6002h-1.7c-4.7,0-8.4-3.8-8.4-8.4v-15.3h21.3v12.6
					C424.3,104.6002,419.3,109.6002,413.1,109.6002z"/>
			</g>
			<g>
				<path class="st19" d="M424.3,85.0002v13.7c-6.5-3.1-14.7-2.7-21.3,0.1v-13.8L424.3,85.0002z"/>
			</g>
			<g>
				<polygon class="st55" points="418.4,107.5002 415.6,107.7002 414,109.6002 412.5,107.8002 409.7,108.5002 411.4,111.3002 
					416.9,111.7002 				"/>
			</g>
			<g>
				<path class="st56" d="M410.6,111.2002l-8.8,8.8l-3.8-14.7c-0.9-3.1,3.7-8.2,3.7-8.2L410.6,111.2002z"/>
			</g>
			<g>
				<path class="st56" d="M417.7,112.0002l7.9,8l3.8-16.3c0.9-3.1-3.8-6.6-3.8-6.6L417.7,112.0002z"/>
			</g>
			<g id="XMLID_51_">
				<path class="st57" d="M416.3,118.5002h-4.6c-1,0-2-0.9-2.2-2l-0.7-4.8c-0.2-1.7,0.7-3.1,2.1-3.1h6.2c1.4,0,2.3,1.5,2.1,3.1
					l-0.7,4.8C418.3,117.6002,417.3,118.5002,416.3,118.5002z"/>
			</g>
			<g>
				<path class="st7" d="M412.5,107.8002l-10.3,6.5l-4-15.2c0,0,1.4-6.6,2-6.7L412.5,107.8002z"/>
			</g>
			<g>
				<path class="st7" d="M428.9,98.9002l-4,15.7l-9.4-6.9l10.8-15.5c0,0,0.6,1.3,0.9,2.3C427.8,96.4002,428.9,98.9002,428.9,98.9002
					z"/>
			</g>
			<g>
				<polygon class="st57" points="423.6,190.5002 421.9,192.2002 413.7,200.3002 405.5,192.2002 403.7,190.5002 404.6,181.1002 
					410.6,117.2002 417.3,117.2002 422.9,181.1002 				"/>
			</g>
		</g>
		<g>
			<polygon class="st41" points="434,235.7002 433.6,119.2002 412.9,174.3002 398.2,122.1002 391.7,194.3002 391.7,237.9002 
				413.1,230.2002 			"/>
		</g>
		<g>
			<path class="st14" d="M428,102.0002l-0.6,128.7l-12.5-6.5l-1.9-37.6l-1.2,37.7l-10.4,7.8l-2.1-127.7l-29.9,134.7v5.9l22.9,2.4
				c2.3,0.2,4.7-0.5,6.5-2.2s2.8-4,2.7-6.3v-3.8l11.7-4.9l14,3.6l0.1,6.2c0,2,0.9,4,2.6,5.4s3.8,1.9,5.8,1.6l20.7-4.3l-10.3-0.1
				L428,102.0002z"/>
		</g>
		<g>
			<path class="st14" d="M362.8,242.5002H387c2.5,0,5-0.9,6.9-2.8c1.9-1.9,2.9-4.4,2.9-6.9l0.2-128.4h-2.9c-2.4,0-5.7,0.4-9.3,1.2
				c-1.7,0.4-3.4,0.8-5.1,1.3c-2.7,0.8-17.8,7.2-18.6,8c-7.1,7.1,4,34.9,4,44.2L362.8,242.5002z"/>
		</g>
		<g>
			<path class="st14" d="M469.1,134.6002l-6.6,10.5l-1.3,97.5h-18.9c-2.6,0-5.2-1-7.1-3c-2-2-3-4.5-2.9-7.1l0.1-42.2l0.1-58.2l0,0
				l0.1-27.5c1.5,0.2,3.3,0.4,5.1,0.8c2.4,0.5,5,1.1,7.4,1.9c2.9,1,5.5,2.2,7.6,3.7C461.3,117.4002,469.1,132.3002,469.1,134.6002z"
				/>
		</g>
		<g>
			<path class="st10" d="M445,134.6002l-2.7,0.7l1.7,4.3l-11.7,50.8l0,0l-1.6-54.1l1.7-4.1l0,0l5.2-26.7c2.4,0.5,5,1.1,7.4,1.9
				V134.6002z"/>
		</g>
		<g>
			<path class="st58" d="M427.2,94.5002l15.2,13.2c0,0,3.2,10.3-1.8,24.2c-4-1-8-3.1-8-3.1l8.4,12.2l-8.6,49.4L427.2,94.5002z"/>
		</g>
		<g>
			<path class="st10" d="M394.6,149.0002l2.2,41.4l-14.9-51l3.1-4.9c0,0-2.3,1.3-4.8,1c-3.3-8.8-1.3-21.1-0.5-28.6
				c1.7-0.5,3.5-0.9,5.1-1.3l12.1,28L394.6,149.0002z"/>
		</g>
		<g>
			<path class="st58" d="M399.4,94.5002l-18.6,12c0,0-2.3,11.6,2.6,25.5c4-1,10.4-3.2,10.4-3.2l-9.2,9.7l12.2,51.9L399.4,94.5002z"
				/>
		</g>
		<g>
			<polygon class="st59" points="379.1,223.1002 360.6,223.1002 363.8,210.7002 382.2,210.7002 			"/>
		</g>
		<g>
			<polygon class="st59" points="444.7,223.3002 463.2,223.3002 460.1,210.9002 441.6,210.8002 			"/>
		</g>
		<g>
			<polygon class="st10" points="363.2,228.0002 380.1,228.0002 382.2,210.8002 379.1,223.2002 363.2,223.2002 			"/>
		</g>
		<g>
			<polygon class="st10" points="460.5,228.1002 443.7,228.1002 441.6,210.8002 444.7,223.3002 460.6,223.3002 			"/>
		</g>
		<g>
			<path class="st15" d="M437.5,15.9002v-6.5H418v-1.7h-12.4c-2.8,0-5.7,1.1-7.9,3.2c-1.7,1.7-2.7,3.7-3.1,5.9l1.3,47.6
				c2,19.8,18.6,23.7,24.5,23.7c12.3,0,20.9-12.2,20.9-20c0-13.1,0.1-52.2,0.1-52.2L437.5,15.9002z"/>
		</g>
		<g>
			<path class="st60" d="M401.5,43.2002c-0.6,0-1.1-0.4-1.3-1c-0.2-0.7,0.2-1.4,0.9-1.6c0.2-0.1,4.4-1.3,10.5-1.1
				c0.7,0,1.3,0.6,1.3,1.4c0,0.7-0.6,1.3-1.4,1.3c-5.6-0.2-9.6,0.9-9.6,1C401.8,43.2002,401.7,43.2002,401.5,43.2002z"/>
		</g>
		<g>
			<path class="st60" d="M434.6,43.3002c-0.1,0-0.2,0-0.3,0c0,0-3.8-1-8.7-1c-0.7,0-1.3-0.6-1.3-1.3s0.6-1.3,1.3-1.3
				c5.2,0.1,9.2,1,9.3,1.1c0.7,0.2,1.1,0.9,1,1.6C435.7,42.9002,435.2,43.3002,434.6,43.3002z"/>
		</g>
		<g>
			<path class="st7" d="M411.4,49.3002c0,1.9-1.5,3.4-3.4,3.4s-3.4-1.5-3.4-3.4s1.5-3.4,3.4-3.4
				C409.9,45.9002,411.4,47.4002,411.4,49.3002z"/>
		</g>
		<g>
			<path class="st20" d="M410.6,49.0002c0,1.2-0.9,2.1-2.1,2.1s-2.1-0.9-2.1-2.1c0-1.2,0.9-2.1,2.1-2.1S410.7,47.8002,410.6,49.0002
				z"/>
		</g>
		<g>
			<path class="st7" d="M409.9,47.7002c0,0.4-0.3,0.7-0.7,0.7c-0.4,0-0.7-0.3-0.7-0.7s0.3-0.7,0.7-0.7S409.9,47.3002,409.9,47.7002z
				"/>
		</g>
		<g>
			<path class="st7" d="M433.1,49.3002c0,1.9-1.5,3.4-3.4,3.4s-3.4-1.5-3.4-3.4s1.5-3.4,3.4-3.4
				C431.6,46.0002,433.1,47.5002,433.1,49.3002z"/>
		</g>
		<g>
			<path class="st61" d="M419,76.1002c-0.1,0-0.2,0-0.2,0c-5-0.1-8.6-3.8-8.7-4c-0.4-0.5-0.4-1.2,0.1-1.6s1.2-0.4,1.6,0.1
				c0.1,0.1,3.1,3.2,7.1,3.3c2.5,0.1,4.9-1.1,7.1-3.3c0.5-0.4,1.2-0.4,1.6,0c0.4,0.5,0.4,1.2,0,1.6
				C424.9,74.8002,422,76.1002,419,76.1002z"/>
		</g>
		<g>
			<path class="st20" d="M432.1,49.0002c0,1.2-0.9,2.1-2.1,2.1s-2.1-0.9-2.1-2.1c0-1.2,0.9-2.1,2.1-2.1S432.1,47.8002,432.1,49.0002
				z"/>
		</g>
		<g>
			<path class="st7" d="M431.4,47.7002c0,0.4-0.3,0.7-0.7,0.7c-0.4,0-0.7-0.3-0.7-0.7s0.3-0.7,0.7-0.7S431.4,47.3002,431.4,47.7002z
				"/>
		</g>
		<g>
			<path class="st19" d="M416,59.3002c0.7,0.8,2.2,1.3,3.9,1.3c1.7,0,3.1-0.5,3.8-1.3c0.3,0.3,0.5,0.7,0.5,1.1
				c0,1.3-1.9,2.3-4.3,2.3s-4.3-1-4.3-2.3C415.5,60.0002,415.7,59.6002,416,59.3002z"/>
		</g>
	</g>
	<g>
		<g>
			<g>
				<path class="st52" d="M474.5,442.8002l-4-0.1l0.6,2.5l1.7,7.4l-17.5,3.4l-0.4-1.8l-0.4-1.6l-0.1-0.6l-0.1-0.3l-0.7-3.7l-0.8-4.5
					l0.1-1.6l0,0v-0.2l-0.5-1.9l0,0l0.3-3.1l0.1-1l0.4-4.7c5.3-1.8,11.6-1.9,17.1-0.6l2.1,4.4l0.4,0.8l0.2,0.5l1.8,3.8l0.2,0.5v0.1
					l0.5,2l0.1,0.4L474.5,442.8002z"/>
			</g>
			<g>
				<path class="st26" d="M500.8,464.4002c-0.3,1.2-0.6,2.1-1.6,2.5l0,0h-23.1l0,0c-0.5-0.2-7.6-3.2-7.6-3.2s-0.1,3.1-0.1,3.2l0,0
					c0,0-3.2,0-6.7,0h-6.3c0,0-0.1,0-0.2,0c-1.6-0.1-3-1.4-3.1-3c0-0.4,0-0.7-0.1-1.1c0-0.4-0.1-0.9-0.1-1.4c0-0.2,0-0.4,0-0.6
					c0-0.4,0-0.8-0.1-1.2c0-0.8-0.1-1.7-0.1-2.6v-0.5c0-1.1-0.1-2.1-0.1-3.2c0-0.2,0-0.4,0-0.6c-0.1-4.1,0-7.9,0.5-9.9v-0.1l0,0
					c0.2-0.6,0.4-1,0.7-1.2c0,0.1,0,0.2,0,0.3l0,0c0,0.3,0.1,0.7,0.1,1c0.3,2.2,1,5.6,2.4,8c0.2,0.3,0.3,0.6,0.5,0.8
					c0.9,1.2,2,2,3.4,2c0.4,0,0.7-0.1,1-0.2l0,0c1-0.5,1.5-1.6,2.2-3.1c0.5-1,1-2.1,1.7-3.3c0.1-0.2,0.3-0.5,0.5-0.7
					c0.9-1.3,2.3-2.5,3.8-3.5c2.3-1.5,4.8-2.4,6.4-2.3c0.5,0,0.8,0.1,1.1,0.3c0.2,0.1,0.3,0.2,0.5,0.4c0.1,0.1,0.2,0.1,0.2,0.2
					c0.2,0.2,0.5,0.5,0.7,0.7s0.4,0.5,0.6,0.7c0.1,0.1,0.1,0.2,0.2,0.3c1.8,2.7,3,6.3,4.3,6.8c0.1,0,0.4,0.1,0.5,0.1l-0.3-0.1
					C497.3,448.7002,502.1,459.3002,500.8,464.4002z"/>
			</g>
			<g>
				<path class="st53" d="M499.2,466.9002h-45.7c-0.7,0-1.3-0.5-1.3-1.2c0-0.5-0.1-1.1-0.1-1.8c0-0.3,0-0.7-0.1-1.1
					c0-0.4-0.1-0.9-0.1-1.4c0-0.2,0-0.4,0-0.6c0-0.4,0-0.8-0.1-1.2h5.3l3.9,2.2l1.4,0.8h38.5c0.1,0.6,0.2,1.2,0.2,1.7
					C501.2,465.9002,500.8,466.9002,499.2,466.9002z"/>
			</g>
			<g class="st54">
				<path class="st30" d="M478.2,443.1002c-2.4,0.5-4.8,1.1-7.2,1.8c-2.3,0.6-4.5,1.4-6.7,2.2c-0.4,0.1-0.7,0.3-1.1,0.4
					c-1.8,0.7-2.9,2.4-2.9,4.3c0,0.6,0,1.1,0.1,1.6c0,0.6,0,1.1,0.1,1.7c0.1,2.3,0.3,4.6,0.5,6.9c0.2,1.7,0.4,3.3,0.7,5l0,0h-6.3
					c0,0-0.1,0-0.2,0h-1.6c-0.7,0-1.3-0.5-1.3-1.2c0-0.5-0.1-1.1-0.1-1.8c0-0.3,0-0.7-0.1-1.1c0-0.4-0.1-0.9-0.1-1.4
					c0-0.2,0-0.4,0-0.6c0-0.4,0-0.8-0.1-1.2c0-0.8-0.1-1.7-0.1-2.6v-0.5c0-1.1-0.1-2.1-0.1-3.2c0-0.2,0-0.4,0-0.6
					c-0.1-4.1,0-7.9,0.5-9.9c0,0-0.4-10.2,0.8-8.6c0.4,0.6,0.8,1.1,1.2,1.6c1.4,0.3,2.8,0.5,4.3,0.8c5.6,1.1,11.7,2.3,16.3,3.3
					c0,0.1,0.2,0.4,0.2,0.6c0.3,0,0.9,0.2,1.6,0.7c0.1,0.1,0.2,0.1,0.2,0.2c0.2,0.2,0.5,0.5,0.7,0.7s0.4,0.5,0.6,0.7
					C478.1,442.9002,478.1,443.0002,478.2,443.1002z"/>
			</g>
			<g>
				<path class="st52" d="M353.4,442.8002l4-0.1l-0.6,2.5l-1.7,7.4l17.5,3.4l0.4-1.8l0.4-1.6l0.1-0.6l0.1-0.3l0.6-3.7l0.8-4.5
					l-0.1-1.6l0,0v-0.2l0.5-1.9l0,0l-0.3-3.1l-0.1-1l-0.4-4.7c-5.3-1.8-11.6-1.9-17.1-0.6l-2,4.4l-0.4,0.8l-0.2,0.5l-1.7,3.8
					l-0.2,0.5v0.1l-0.5,2l-0.1,0.4L353.4,442.8002z"/>
			</g>
			<g>
				<path class="st26" d="M328.9,466.9002H352c0,0,7.6-3.2,7.6-3.3c0,0,0.1,3.2,0.1,3.3c0,0,8.4,0,13.1,0c1.7,0,3.1-1.3,3.2-3
					c0.1-1.2,0.1-2.6,0.2-4.2c0-0.8,0.1-1.7,0.1-2.6v-0.5c0-1.1,0.1-2.1,0.1-3.2c0-0.2,0-0.4,0-0.6c0-4.2-0.1-8.1-0.7-10.1l0,0
					c-0.2-0.6-0.4-1-0.7-1.2c0,0.1,0,0.2,0,0.3l0,0c-0.2,2.1-0.9,6.2-2.5,9c-0.2,0.3-0.3,0.6-0.5,0.8c-0.9,1.2-2,2.1-3.4,2
					c-1.6-0.1-2.3-1.4-3.2-3.3c-0.5-1-1-2.1-1.7-3.3c-0.1-0.2-0.3-0.5-0.5-0.7c-2.4-3.4-7.6-5.9-10.3-5.8c-0.5,0-0.8,0.1-1.1,0.3
					c-0.2,0.1-0.3,0.2-0.5,0.4c-0.3,0.3-0.6,0.6-0.9,0.9s-0.5,0.6-0.7,1c-1.8,2.7-2.9,6.3-4.3,6.8l0,0c-0.1,0-0.4,0.1-0.5,0.1
					l0.3-0.1C327.2,448.4002,323.8,465.0002,328.9,466.9002z"/>
			</g>
			<g>
				<path class="st28" d="M328.6,467.3002l46.1-0.4c0.7,0,1.3-0.5,1.3-1.2c0.1-1.3,0.2-3.5,0.3-6H371l-5.2,3l-38.9,0.4
					C326.5,465.3002,326.3,467.3002,328.6,467.3002z"/>
			</g>
			<g class="st29">
				<path class="st30" d="M351.4,441.1002L351.4,441.1002c0.6-0.4,1.2-0.6,1.6-0.6l0,0c0,0,0,0,0-0.1c0,0,0-0.1,0.1-0.1
					c0,0,0-0.1,0.1-0.1c0,0,0-0.1,0.1-0.1c0,0,0,0,0-0.1c6.3-1.3,15.3-3.1,21.9-4.4l0.1,1l0.3,3.1l0,0l-0.5,1.9v0.2
					c0-0.1,0-0.2,0-0.3c0.3,0.1,0.5,0.6,0.7,1.2l0,0c0.6,1.9,0.7,5.9,0.7,10c-0.1-0.6-1-1.3-2.5-2.2c-0.3-0.2-0.6-0.3-1-0.5
					c-2.2-1.1-5.4-2.2-9.3-3.2c-2.1-0.5-4.3-1-6.8-1.4s-5.2-0.7-8-0.9L351.4,441.1002z"/>
			</g>
		</g>
		<g>
			<rect x="370.3" y="228.3002" class="st14" width="83.6" height="38.5"/>
		</g>
		<g>
			<g>
				<polygon class="st14" points="451.0847,449.5502 415.1,245.3002 453.9,232.9002 483.3848,444.1502 				"/>
			</g>
		</g>
		<g>
			<g>
				<polygon class="st14" points="376.4,449.5502 344.1,444.1502 372.2,233.0002 413.1,245.2002 				"/>
			</g>
		</g>
	</g>
	<g>
		<rect x="391.5" y="104.5002" class="st7" width="43.6" height="59.8"/>
	</g>
	<g>
		<g>
			<path class="st55" d="M404,91.4002v8.2l-4.9-3.6l0.9-2.7c0-0.3,0.1-0.5,0.3-0.7C400.5,92.3002,404,91.4002,404,91.4002z"/>
		</g>
		<g>
			<path class="st55" d="M426.5,92.8002l0.2,3.1l-4.3,2.3v-7.3c0,0,3.5,0.9,3.7,1.1C426.3,92.2002,426.5,92.5002,426.5,92.8002z"/>
		</g>
		<g id="XMLID_50_">
			<path class="st15" d="M413.1,109.6002h-1.7c-4.7,0-8.4-3.8-8.4-8.4v-15.3h21.3v12.6
				C424.3,104.6002,419.3,109.6002,413.1,109.6002z"/>
		</g>
		<g>
			<path class="st8" d="M424.3,85.0002v13.7c-6.5-3.1-14.7-2.7-21.3,0.1v-13.8L424.3,85.0002z"/>
		</g>
		<g>
			<polygon class="st55" points="418.4,107.5002 415.6,107.7002 414,109.6002 412.5,107.8002 409.7,108.5002 411.4,111.3002 
				416.9,111.7002 			"/>
		</g>
		<g>
			<path class="st56" d="M410.6,111.2002l-8.8,8.8l-3.8-14.7c-0.9-3.1,3.7-8.2,3.7-8.2L410.6,111.2002z"/>
		</g>
		<g>
			<path class="st56" d="M417.7,112.0002l7.9,8l3.8-16.3c0.9-3.1-3.8-6.6-3.8-6.6L417.7,112.0002z"/>
		</g>
		<g id="XMLID_49_">
			<path class="st57" d="M416.3,118.5002h-4.6c-1,0-2-0.9-2.2-2l-0.7-4.8c-0.2-1.7,0.7-3.1,2.1-3.1h6.2c1.4,0,2.3,1.5,2.1,3.1
				l-0.7,4.8C418.3,117.6002,417.3,118.5002,416.3,118.5002z"/>
		</g>
		<g>
			<polygon class="st57" points="423.6,190.5002 421.9,192.2002 413.7,200.3002 405.5,192.2002 403.7,190.5002 404.6,181.1002 
				410.6,117.2002 417.3,117.2002 422.9,181.1002 			"/>
		</g>
	</g>
	<g>
		<polygon class="st62" points="434,235.7002 433.6,119.2002 412.9,174.3002 398.2,122.1002 391.7,194.3002 391.7,237.9002 
			413.1,230.2002 		"/>
	</g>
	<g>
		<path class="st47" d="M361.8871,242.6987h24.2c2.5,0,5-0.9,6.9-2.8c1.9-1.9,2.9-4.4,2.9-6.9l0.2-128.4h-2.9
			c-2.4,0-5.7,0.4-9.3,1.2c-1.7,0.4-3.4,0.8-5.1,1.3c-2.7,0.8-17.8,7.2-18.6,8c-7.1,7.1,4,34.9,4,44.2L361.8871,242.6987z"/>
	</g>
	<g>
		<path class="st47" d="M469.1,134.6002l-6.6,10.5l-1.3,97.5h-18.9c-2.6,0-5.2-1-7.1-3c-2-2-3-4.5-2.9-7.1l0.1-42.2l0.1-58.2l0,0
			l0.1-27.5c1.5,0.2,3.3,0.4,5.1,0.8c2.4,0.5,5,1.1,7.4,1.9c2.9,1,5.5,2.2,7.6,3.7C461.3,117.4002,469.1,132.3002,469.1,134.6002z"
			/>
	</g>
	<g>
		<path class="st63" d="M427.2,94.5002l15.2,13.2c0,0,3.2,10.3-1.8,24.2c-4-1-8-3.1-8-3.1l8.4,12.2l-8.6,49.4L427.2,94.5002z"/>
	</g>
	<g>
		<path class="st63" d="M399.4,94.5002l-18.6,12c0,0-2.3,11.6,2.6,25.5c4-1,10.4-3.2,10.4-3.2l-9.2,9.7l12.2,51.9L399.4,94.5002z"/>
	</g>
	<g>
		<polygon class="st63" points="379.1,223.1002 360.6,223.1002 363.8,210.7002 382.2,210.7002 		"/>
	</g>
	<g>
		<polygon class="st63" points="444.7,223.3002 463.2,223.3002 460.1,210.9002 441.6,210.8002 		"/>
	</g>
	<g>
		<path class="st19" d="M436.7,51.8002c0,3-1.5,9.4,1.5,9.4c5.1,0,5.4-7.1,5.4-10.1s-1.3-5.4-4.3-5.4
			C436.4,45.6002,436.7,48.8002,436.7,51.8002z"/>
	</g>
	<g>
		<path class="st8" d="M437.5,15.0002v-3.1l-19.5-3.4v-2.7h-18.5c-2.8,0-9.2,49-9.2,49c0,30.3,16.6,35.3,25.1,35.8
			c17.5,0.9,26-13.2,26-25.9l0.1-49.6L437.5,15.0002z"/>
	</g>
	<g>
		<path class="st15" d="M437.5,15.9002v-3.2l-19.5-3.3v-1.7h-12.4c-2.8,0-5.7,1.1-7.9,3.2c-1.7,1.7-2.7,3.7-3.1,5.9l1.3,47.6
			c2,19.8,18.6,23.7,24.5,23.7c12.3,0,20.9-12.2,20.9-20c0-13.1,0.1-52.2,0.1-52.2L437.5,15.9002z"/>
	</g>
	<g>
		<path class="st60" d="M411.6,43.5002L411.6,43.5002c-5.9-0.2-10.1-0.3-10.1-0.3c-0.7,0-1.3-0.6-1.3-1.4c0-0.7,0.6-1.3,1.4-1.3
			c0,0,4.2,0.1,10.1,0.3c0.7,0,1.3,0.6,1.3,1.4C412.9,43.0002,412.3,43.5002,411.6,43.5002z"/>
	</g>
	<g>
		<path class="st60" d="M426.6,43.7002c-0.3,0-0.7,0-1,0c-0.7,0-1.3-0.6-1.3-1.3s0.6-1.3,1.3-1.3c5,0.1,8.8-0.3,8.9-0.3
			c0.7-0.1,1.4,0.5,1.4,1.2c0.1,0.7-0.5,1.4-1.2,1.4C434.5,43.4002,431.2,43.7002,426.6,43.7002z"/>
	</g>
	<g>
		<path class="st7" d="M411.4,49.3002c0,1.9-1.5,3.4-3.4,3.4s-3.4-1.5-3.4-3.4s1.5-3.4,3.4-3.4
			C409.9,45.9002,411.4,47.4002,411.4,49.3002z"/>
	</g>
	<g>
		<path class="st20" d="M410.4,48.4002c0,1.2-0.9,2.1-2.1,2.1s-2.1-0.9-2.1-2.1c0-1.2,0.9-2.1,2.1-2.1
			C409.5,46.3002,410.4,47.3002,410.4,48.4002z"/>
	</g>
	<g>
		<path class="st7" d="M409.7,47.1002c0,0.4-0.3,0.7-0.7,0.7c-0.4,0-0.7-0.3-0.7-0.7s0.3-0.7,0.7-0.7
			C409.4,46.5002,409.7,46.8002,409.7,47.1002z"/>
	</g>
	<g>
		<path class="st7" d="M433.1,49.3002c0,1.9-1.5,3.4-3.4,3.4s-3.4-1.5-3.4-3.4s1.5-3.4,3.4-3.4
			C431.6,46.0002,433.1,47.5002,433.1,49.3002z"/>
	</g>
	<g>
		<path class="st60" d="M442.2,14.8002c0,0,1.8-0.5,1.4-4c-5.3-1.2-8.8-3.6-12.2-5.7c-13.2-8.1-30.3-5.9-38.9,1.9
			c-20.8,18.8-3.2,49.4-3.2,49.4l1.9-1.1c3.1-1.5,4.5-4.5,4.5-7.9c0-2.1-0.1-5-0.1-7.1c-0.1-1.7,0.3-3.3,1-4.9
			c0.9-1.9,2.2-4.6,3.3-7.1c2.1-4.9,2.6-10.5,2.3-11.9c0.6,2.6,2.4,6,4.4,7.3c13.2,9.1,34.8,1.2,34.8,12.4c0.1,3.3,0.2,7.8,0.2,13.7
			c1.2-3.2,1.8-8.7,1.9-14.7C451.4,22.5002,442.2,14.8002,442.2,14.8002z"/>
	</g>
	<g>
		<path class="st20" d="M431.9,48.4002c0,1.2-0.9,2.1-2.1,2.1s-2.1-0.9-2.1-2.1c0-1.2,0.9-2.1,2.1-2.1
			C431,46.3002,431.9,47.3002,431.9,48.4002z"/>
	</g>
	<g>
		<path class="st7" d="M431.2,47.1002c0,0.4-0.3,0.7-0.7,0.7c-0.4,0-0.7-0.3-0.7-0.7s0.3-0.7,0.7-0.7
			C430.9,46.5002,431.2,46.8002,431.2,47.1002z"/>
	</g>
	<g>
		<path class="st19" d="M416,59.3002c0.7,0.8,2.2,1.3,3.9,1.3c1.7,0,3.1-0.5,3.8-1.3c0.3,0.3,0.5,0.7,0.5,1.1c0,1.3-1.9,2.3-4.3,2.3
			s-4.3-1-4.3-2.3C415.5,60.0002,415.7,59.6002,416,59.3002z"/>
	</g>
	<g>
		<path class="st1" d="M472.5,201.3002l-3.7-23.1c-0.9-11.7-3.2-44.5-14.8-60.6c-7.1-9.9-17.7-11.7-25-10.8
			c-0.8,0.1-1.5,0.2-2.2,0.4c-1.6,0.3-2.5,0.6-3.3,0.8c-1.4,0.4-2.2,0.4-4.9-0.1l2-2.7l3.6-4.9l1.1-5.8c0,0,3.7-0.4,9,0.5
			c11.2,1.9,29.3,9.4,34.4,37.9C470.1,141.0002,472.5,201.3002,472.5,201.3002z"/>
	</g>
	<g>
		<path class="st3" d="M434.3,95.1002c-3.2,3.4-4.5,8.1-5.4,11.9c-0.8,0.1-1.5,0.2-2.2,0.4c-1.6,0.3-2.5,0.6-3.3,0.8l-2.1-1.4
			l-0.8-1.5l3.6-4.9l1.1-5.8C425.3,94.6002,429,94.2002,434.3,95.1002z"/>
	</g>
</g>
<g>
	<path class="st7" d="M131.6,117.0002l-4.1,8.5l-9.1-6.4c0,0,8.3-11.3,8.3-14.3l4.1,4.9
		C132.5,111.7002,132.8,114.6002,131.6,117.0002z"/>
</g>
<g>
	<path class="st7" d="M102.7,117.0002l4.1,8.5l9.1-6.4c0,0-8.3-11.3-8.3-14.3l-4.1,4.9
		C101.8,111.7002,101.5,114.6002,102.7,117.0002z"/>
</g>
<g>
	<g>
		<path class="st7" d="M422.2,76.3002c3.6-1.2,6.1-4.5,6.5-7.9l0,0c0.1-0.5,0.1-1,0.1-1.5c-3.5,1.4-15.9,1.7-19.5,0.5
			c0,0.2,0,0.3,0,0.5l0,0C409.7,73.9002,416,78.4002,422.2,76.3002z"/>
	</g>
	<g>
		<path class="st64" d="M422.8,76.0002c2.7-1.1,4.9-3.6,5.6-6.3c0.1-0.6,0.2-1.2,0.3-1.4l0,0c-5.4,4.6-15.4,2.3-19.4-0.5l0,0
			C409.8,74.2002,416.5,78.7002,422.8,76.0002z"/>
	</g>
	<g>
		<path class="st65" d="M412.4,74.2002c2.8,2.6,6.8,3.4,10.4,1.8c0.1,0,0.1-0.1,0.2-0.2C420.7,73.7002,415.8,72.9002,412.4,74.2002z
			"/>
	</g>
</g>
<g>
	<path class="st8" d="M392.9,52.7002c0,3.5,1.6,10.9-1.7,10.9c-5.6,0-6-8.3-5.9-11.7c0-3.5,1.4-6.3,4.7-6.3
		C393.3,45.6002,392.9,49.2002,392.9,52.7002z"/>
</g>
<g>
	<g>
		<path class="st47" d="M461.1,120.4002c-1.7-0.2-3.2,1.2-3.2,3l0.1,59.6c0,7,5.7,12.7,12.7,12.7s12.7-5.7,12.7-12.7l-2.3-60.7
			L461.1,120.4002z"/>
	</g>
	<g>
		<path class="st8" d="M465.2,94.0002c-0.3-0.7-2.1-4.6,0.2-5.6c2.2-1,4.5-0.3,6.2,3.4C473.2,95.6002,465.2,94.0002,465.2,94.0002z"
			/>
	</g>
	<g>
		<path class="st56" d="M481.1,118.3002c0.3,2.6-4.5,5.2-10.6,5.8c-6.1,0.6-11.3-1.1-11.6-3.7c-0.3-2.6,4.5-5.2,10.6-5.8
			C475.7,114.0002,480.9,115.6002,481.1,118.3002z"/>
	</g>
	<g>
		<path class="st6" d="M458.6,107.8002c0,0-5.5-8.2,0-9.2c0.3-2.1,2.7-4.5,5.5-3.8c0.3-2.1,2.7-3.1,5.5-2.1c0.3-1.7,2.4-3.4,4.8-2.1
			c2.4,1.4,8.9,6.7,9.6,8.3c0.7,1.6-5.9,17.5-6.2,23.4c-4.5,3.1-11.6,3.3-16.4,0.9C457.5,116.0002,456.5,112.2002,458.6,107.8002z"
			/>
	</g>
	<g>
		<path class="st7" d="M480,120.6002c-1.7,1.7-5.3,3.1-9.6,3.5c-4.6,0.4-8.6-0.4-10.5-1.9c-0.6-0.5-1-1.1-1.1-1.8v3.7v0.4
			c0.2,2.6,5.4,4.3,11.5,3.7c6.1-0.6,10.9-3.2,10.6-5.8v-3.7C481,119.4002,480.7,120.0002,480,120.6002z"/>
	</g>
</g>
<g>
	<path class="st1" d="M409.7,109.0002c-1.4,0.3-2.9,0.4-4.4,0.4c-2.1,0-4.3-0.1-6.4-0.4c-1.3-0.2-2.6-0.4-3.9-0.7
		c-7.7-1.6-20.6-0.5-29,10.4c-8.7,11.3-12.5,31-14.4,45.7c-1.5,12-3.7,23.9-6.6,35.7l-12.8,51.6c0,0,16.6-109.7,18.1-117.7
		c5.6-29.5,27.5-37.1,40.1-39c5.4-0.8,9.1-0.6,9.1-0.6l1.4,5.4l7,7.2L409.7,109.0002z"/>
</g>
<g>
	<path class="st3" d="M407.8,107.1002l-2.5,2.3c-2.1,0-4.3-0.1-6.4-0.4c-1.7-6.6-4.9-11.1-8.5-14c5.4-0.8,9.1-0.6,9.1-0.6l1.4,5.4
		L407.8,107.1002z"/>
</g>
<g>
	<path class="st7" d="M412.5,107.8002l-10.3,6.5l-3.3-12.5c-0.5-1.8-0.5-3.6,0-5.4s1-3.9,1.4-3.9L412.5,107.8002z"/>
</g>
<g>
	<path class="st7" d="M427.9,102.9002l-3,11.7l-9.4-6.9l10.8-15.5c0,0,0.6,1.3,0.9,2.3c0.1,0.4,0.2,0.8,0.4,1.2
		C428.5,98.0002,428.5,100.5002,427.9,102.9002z"/>
</g>
</svg>
