<?xml version="1.0" encoding="utf-8"?>
<!-- Generator: Adobe Illustrator 22.0.1, SVG Export Plug-In . SVG Version: 6.00 Build 0)  -->
<svg version="1.1" id="Layer_1" xmlns="http://www.w3.org/2000/svg" xmlns:xlink="http://www.w3.org/1999/xlink" x="0px" y="0px"
	 viewBox="0 0 169.2 185.4" style="enable-background:new 0 0 169.2 185.4;" xml:space="preserve">
<style type="text/css">
	.st0{fill:#E2E2E2;}
	.st1{fill:#F0F3F3;}
	.st2{fill:#00587F;}
	.st3{fill:#0073B5;}
	.st4{fill:#242633;}
	.st5{fill:#ED2E7A;}
	.st6{fill:#6CBD45;}
	.st7{fill:#BFC4C9;}
</style>
<g id="background">
</g>
<g id="circles">
</g>
<g id="shadows">
</g>
<g id="icons">
	<g>
		<g>
			<path class="st0" d="M150.2,63H18.9V1.4c0-0.8,0.6-1.4,1.4-1.4h128.5c0.8,0,1.4,0.6,1.4,1.4V63z"/>
			<rect x="18.9" y="60.2" class="st1" width="131.3" height="2.9"/>
		</g>
		<g>
			<path class="st2" d="M169.2,101H0V68c0-2.8,2.2-5,4.9-5h159.3c2.7,0,4.9,2.2,4.9,4.9V101H169.2z"/>
			<path class="st3" d="M169.2,134.1c0,2.7-2.2,4.9-4.9,4.9H4.9c-2.7,0-4.9-2.2-4.9-4.9V101h169.2V134.1z"/>
			<g>
				<path class="st4" d="M156.8,83.8c0,2.8-2.3,5.1-5.1,5.1s-5.1-2.3-5.1-5.1c0-2.8,2.3-5.1,5.1-5.1C154.5,78.7,156.8,81,156.8,83.8
					z"/>
				<path class="st5" d="M129.5,83.8c0,1.9-1.5,3.4-3.4,3.4s-3.4-1.5-3.4-3.4s1.5-3.4,3.4-3.4S129.5,82,129.5,83.8z"/>
				<path class="st6" d="M141.4,83.8c0,1.9-1.5,3.4-3.4,3.4s-3.4-1.5-3.4-3.4s1.5-3.4,3.4-3.4S141.4,82,141.4,83.8z"/>
			</g>
		</g>
		<path class="st4" d="M153.2,115.8c0,0.6-0.5,1-1,1H17c-0.6,0-1-0.5-1-1v-1.5c0-0.6,0.5-1,1-1h135.1c0.6,0,1,0.5,1,1L153.2,115.8
			L153.2,115.8z"/>
		<g>
			<g>
				<path class="st0" d="M25.8,185.4H22c-1.3,0-2.3-1-2.3-2.3v-68.8h6L25.8,185.4L25.8,185.4z"/>
			</g>
			<g>
				<rect x="28.6" y="114.3" class="st0" width="6" height="71.1"/>
			</g>
			<g>
				<rect x="37.4" y="114.3" class="st0" width="6" height="71.1"/>
			</g>
			<g>
				<rect x="46.3" y="114.3" class="st0" width="6" height="71.1"/>
			</g>
			<g>
				<rect x="55.1" y="114.3" class="st0" width="6" height="71.1"/>
			</g>
			<g>
				<rect x="63.9" y="114.3" class="st0" width="6" height="71.1"/>
			</g>
			<g>
				<rect x="72.7" y="114.3" class="st0" width="6" height="71.1"/>
			</g>
			<g>
				<rect x="81.6" y="114.3" class="st0" width="6" height="71.1"/>
			</g>
			<g>
				<rect x="90.4" y="114.3" class="st0" width="6" height="71.1"/>
			</g>
			<g>
				<rect x="99.2" y="114.3" class="st0" width="6" height="71.1"/>
			</g>
			<g>
				<rect x="108.1" y="114.3" class="st0" width="6" height="71.1"/>
			</g>
			<g>
				<rect x="116.9" y="114.3" class="st0" width="6" height="71.1"/>
			</g>
			<g>
				<rect x="125.7" y="114.3" class="st0" width="6" height="71.1"/>
			</g>
			<g>
				<rect x="134.6" y="114.3" class="st0" width="6" height="71.1"/>
			</g>
			<g>
				<path class="st0" d="M149.4,183.1c0,1.3-1,2.3-2.3,2.3h-3.7v-71.1h6V183.1z"/>
			</g>
		</g>
		<g>
			<g>
				<path class="st7" d="M33.3,18c-0.9,0-1.6-0.7-1.6-1.6v-0.6c0-0.9,0.7-1.6,1.6-1.6h102.5c0.9,0,1.6,0.7,1.6,1.6v0.6
					c0,0.9-0.7,1.6-1.6,1.6H33.3z"/>
			</g>
			<g>
				<path class="st7" d="M33.3,31c-0.9,0-1.6-0.7-1.6-1.6v-0.6c0-0.9,0.7-1.6,1.6-1.6h102.5c0.9,0,1.6,0.7,1.6,1.6v0.6
					c0,0.9-0.7,1.6-1.6,1.6H33.3z"/>
			</g>
			<g>
				<path class="st7" d="M33.3,44.1c-0.9,0-1.6-0.7-1.6-1.6v-0.6c0-0.9,0.7-1.6,1.6-1.6H120c0.9,0,1.6,0.7,1.6,1.6v0.6
					c0,0.9-0.7,1.6-1.6,1.6H33.3z"/>
			</g>
		</g>
		<g>
			<rect x="19.8" y="114.3" class="st7" width="6" height="1.7"/>
			<rect x="28.6" y="114.3" class="st7" width="6" height="1.7"/>
			<rect x="37.4" y="114.3" class="st7" width="6" height="1.7"/>
			<rect x="46.3" y="114.3" class="st7" width="6" height="1.7"/>
			<rect x="55.1" y="114.3" class="st7" width="6" height="1.7"/>
			<rect x="63.9" y="114.3" class="st7" width="6" height="1.7"/>
			<rect x="72.7" y="114.3" class="st7" width="6" height="1.7"/>
			<rect x="81.6" y="114.3" class="st7" width="6" height="1.7"/>
			<rect x="90.4" y="114.3" class="st7" width="6" height="1.7"/>
			<rect x="99.2" y="114.3" class="st7" width="6" height="1.7"/>
			<rect x="108.1" y="114.3" class="st7" width="6" height="1.7"/>
			<rect x="116.9" y="114.3" class="st7" width="6" height="1.7"/>
			<rect x="125.7" y="114.3" class="st7" width="6" height="1.7"/>
			<rect x="134.6" y="114.3" class="st7" width="6" height="1.7"/>
			<rect x="143.4" y="114.3" class="st7" width="6" height="1.7"/>
		</g>
	</g>
</g>
</svg>
