<?xml version="1.0" encoding="utf-8"?>
<!-- Generator: Adobe Illustrator 23.0.1, SVG Export Plug-In . SVG Version: 6.00 Build 0)  -->
<svg version="1.1" id="Layer_3" xmlns="http://www.w3.org/2000/svg" xmlns:xlink="http://www.w3.org/1999/xlink" x="0px" y="0px"
	 viewBox="0 0 710.6489 177.1575" style="enable-background:new 0 0 710.6489 177.1575;" xml:space="preserve">
<style type="text/css">
	.st0{fill:#DE7251;}
	.st1{fill:#F37D59;}
	.st2{fill:#87806E;}
	.st3{fill:#F3BBAA;}
	.st4{fill:#E6E6E6;}
	.st5{fill:#73A1B0;}
	.st6{fill:#3D3542;}
	.st7{fill:#F3D5CC;}
	.st8{fill:#A26D56;}
	.st9{fill:#FACFC3;}
	.st10{fill:#0475A7;}
	.st11{fill:#FFFFFF;}
	.st12{fill:#FFD0B6;}
	.st13{fill:#79B4C7;}
	.st14{fill:#966550;}
	.st15{fill:#787162;}
	.st16{fill:#736D5E;}
	.st17{fill:#FF926B;}
</style>
<g>
	<path class="st0" d="M382.064,84.6559c3.9404,21.5732-31.6055,56.7759-30.9082,82.3594c-2.9219,1.0927-4.4561-0.5664-4.4561-0.5664
		s-8.4463-55.9854,5.1504-82.9126C374.5132,78.1521,380.7525,77.4724,382.064,84.6559z"/>
	<path class="st1" d="M375.9009,169.8796c0.6602-0.4018,1.7861-0.9785,2.4394-1.375c-0.872-8.9013-2.4716-28.8398-0.3388-37.8423
		c2.7881-11.7797-9.7627-39.0454-12.5518-43.4204c-2.79-4.3789-24.6338-4.9502-24.6338-4.9502s-2.9082,28.1719,20.7979,51.396
		C363.1568,144.4133,363.2456,159.4158,375.9009,169.8796z"/>
	<path class="st2" d="M415.9995,65.7937c-5.4258,5.0903-11.3779,9.2275-16.8027,9.8291c-1.4082,0.1582-2.7822,0.0796-4.1104-0.2949
		c-3.1689-0.8731-6.0341-3.3897-8.3134-8.1734c-0.5635-1.1787-1.1026-2.5288-1.5957-4.0132c0-0.0117,0-0.0341-0.0245-0.0556
		c-0.0468-0.126-0.081-0.2398-0.1181-0.3526c0,0.045,0.0127,0.1016,0.0127,0.147c0.4931,3.6279,0.7168,7.8682,0.4931,12.4702
		c-0.0244,0.4756-0.0468,0.9517-0.081,1.4278c-0.0713,1.1005-0.1651,2.2221-0.294,3.3554c-0.33,2.9136-0.8349,5.9185-1.5742,8.979
		c-1.1386,4.6133-9.0761,9.4424-31.0332,6.4043c-11.6015-1.5986-13.8672-8.2641-13.4336-16.4824
		c0.0352-0.5327,0.0713-1.0771,0.1172-1.6206c0.1309-1.3262,0.3057-2.6982,0.5186-4.0815v-0.0118c0-0.0561,0-0.0673,0.0224-0.1015
		c0-0.0342,0-0.0908,0.0117-0.1363c0.0469-0.3178,0.0938-0.6342,0.1524-0.9516c0.1641-0.9976,0.3291-2.0064,0.5059-3.0161
		c0.3876-2.2217,0.7861-4.4654,1.1025-6.6543c0.0469-0.3965,0.1055-0.7818,0.1416-1.1787c0.0937-0.669,0.1641-1.3374,0.2109-2.0064
		c0.1182-1.1899,0.1768-2.3579,0.1768-3.4917c0,0-17.8594,14.1699-23.5781,22.3897c-0.0586,0.0791-0.0703,0.1582-0.1065,0.226
		c-0.457-0.1591-0.9267-0.3173-1.3857-0.4877c-0.6807-0.4532-1.4434-0.7823-2.2774-1.0655
		c0.1055-0.3852,0.2227-0.7822,0.3526-1.1787c1.6914-6.5181,5.1084-17.6396,9.2177-24.9629
		c0.4581-0.8159,0.9268-1.5859,1.3965-2.3003c1.4795-2.2109,3.1465-4.1728,4.9561-5.8725
		c5.0722-4.8511,11.1426-7.8667,16.5791-9.7598c2.1601-0.772,4.2265-1.3384,6.0703-1.7695c5.0371-1.2007,8.584-1.3594,8.584-1.3594
		s1.0801,0.0898,4.3672,0.6797c1.5039,0.2607,2.9716,0.6343,4.3447,1.0996c1.8896,0.6348,3.6865,1.4058,5.3779,2.3579
		c16.8614,9.2393,23.6367,31.6611,23.6367,31.6611l13.2452-1.6767C412.8648,63.7649,415.3071,65.1135,415.9995,65.7937z"/>
	<path class="st3" d="M318.5025,78.1775c0.0703-0.1016,0.1513-0.208,0.2265-0.312c-1.3847-0.2105-2.6816-0.7036-3.8271-1.5171
		c-3.5088,12.1421,5.8066,12.8408,4.5713,7.289C318.8355,80.7068,317.7251,79.3083,318.5025,78.1775z"/>
	<path class="st4" d="M361.2114,30.6482c0,0-5.1709-0.2075-4.7402,2.9131c0.4316,3.1211,4.4531,14.7041,7.9004,14.9121
		c3.4492,0.208,5.4609-14.7036,4.8145-16.5757C368.5386,30.0246,361.2114,30.6482,361.2114,30.6482z"/>
	<path class="st3" d="M412.8667,63.7659c0,0,4.9541-6.5547,7.9707-4.6817c3.0166,1.8731-0.2158,7.6983-4.834,6.7036
		C412.8638,65.5334,412.8667,63.7659,412.8667,63.7659z"/>
	<path class="st3" d="M359.4771,7.7287c-7.2227-2.3178-6.7842-5.0244-10.627,5.5767c-4.2558,11.7422,2.3486,14.9712,9.2852,16.4273
		c0.1582,0.6479,0.5742,4.2583,0.9404,4.9531c1.7129,3.2588,8.6729,2.4248,7.9687-9.6465
		C371.4478,18.8782,368.815,10.7307,359.4771,7.7287z"/>
	<path class="st5" d="M349.731,10.8103c-0.1465-14.8242,6.3574-9.9912,13.9355-6.0859c7.4444,3.8354,12.3369,10.685,3.3779,20.3149
		c0,0-0.581,0.5952-4.8369-5.1289C359.272,12.5715,352.52,11.3972,349.731,10.8103z"/>
	<path class="st3" d="M361.4468,18.4372c0.6738-0.6958,7.6582-1.3154,1.9443,3.3536
		C361.0728,21.1164,360.773,19.1335,361.4468,18.4372z"/>
	<path class="st4" d="M379.8335,56.4875c-5.084,0.646-10.1562,1.3824-15.2402,2.0508c-6.2891,0.8369-12.5401,0.3516-18.8086,0.5327
		c-0.5508,0.8545-1.0762,1.7222-1.5723,2.607c12.1699,1.6504,24.3291-0.5513,36.4795-1.6661
		C384.3306,59.6716,381.7827,55.4211,379.8335,56.4875z"/>
	<path class="st4" d="M384.0972,69.7839c-1.667,1.6328-5.2842,1.9834-7.4815,2.4141c-5.0713,0.9868-10.2138,0.5449-15.3213,0.3745
		c-6.788-0.2261-14.5263,1.0884-21.3476-0.4414c0.1641-0.9976,0.3291-2.0064,0.5059-3.0161
		c1.3251,0.2724,2.6171,0.5449,3.7451,0.5215c5.0957-0.1241,10.1679-0.6231,15.2636-0.5323
		c8.0088,0.147,15.1827-0.1582,22.92-2.1543C384.0855,66.5079,385.3286,68.5715,384.0972,69.7839z"/>
	<path class="st4" d="M385.4595,76.7781c-0.0713,1.1005-0.1651,2.2221-0.294,3.3554c-6.8818,0.7827-14.0556,0.7032-20.2675,0.5791
		c-8.1953-0.1704-17.5772,0.2378-25.7735-1.6782c0.0352-0.5327,0.0713-1.0771,0.1172-1.6206
		c8.4072,0.8721,17.2959,0.8389,25.6563,0.7813C371.8618,78.1496,378.6714,77.6409,385.4595,76.7781z"/>
	<path class="st6" d="M339.7954,73.0837c-0.0176,0.0489-0.0176,0.0996-0.0176,0.1333c-0.0166,0.0498-0.0166,0.083-0.0341,0.1162
		h0.0175v-0.0166c23.5332-9.9038,14.2247-40.2475,13.5508-42.3139c-1.8447,0.4345-3.9131,1-6.0693,1.7646
		c2.9658,6.4922-2.1895,24.3198-5.6895,29.6953L339.7954,73.0837z"/>
	<path class="st6" d="M385.0532,62.8791c0.4825,3.6289,0.7061,7.8736,0.4825,12.4678c-0.0508,0.2832-0.1036,0.5493-0.1543,0.7661
		c-13.7764-13.0332-14.9317-44.6274-14.9317-44.6274c0.0528-0.0156,0.1035-0.0337,0.1553-0.0669
		c1.8965,0.6338,3.6904,1.415,5.3789,2.3652l3.4482,15.5474C381.3286,54.4744,383.5532,59.5671,385.0532,62.8791z"/>
</g>
<path class="st6" d="M589.4458,26.5222c0,0,11.5098,16.1133-0.5127,13.5566C582.7964,36.4968,585.0982,28.5681,589.4458,26.5222z"/>
<path class="st7" d="M710.6489,175.0803c0,1.146-164.8046,2.0772-368.1074,2.0772c-203.3008,0-314.0996-0.9312-314.0996-2.0772
	c0-1.1465,110.7988-2.0757,314.0996-2.0757C545.8443,173.0046,710.6489,173.9338,710.6489,175.0803z"/>
<g>
	<path class="st8" d="M626.4351,50.1428c-2.5996,3.5454-5.459,7.3525-5.3907,7.8106c-2.7587,1.0219-10.9228,4.1489-17.4228,7.7402
		c0.042-4.8032-1.1719-13.1421-2.9512-18.4653c-0.2656-0.7964-0.7549,0.0795-0.7549,0.0795h-16.3252
		c-0.4062,9.9156,6.212,23.2471,12.295,29.4805c8.6211,8.8335,26.0556-16.3408,26.9052-17.5786
		C631.4409,58.5515,627.5542,48.6174,626.4351,50.1428z"/>
	<path class="st9" d="M602.7857,56.4079c-0.5196-3.27-1.2481-6.583-2.1153-9.1796c-0.2656-0.7964-2.3564-2.1651-2.3564-2.1651
		l-14.7238,2.2446c-0.1992,4.8794,1.3038,10.5826,3.6055,15.8638C592.3569,60.7605,597.5454,58.5198,602.7857,56.4079z"/>
	<path class="st8" d="M562.396,79.4455c3.4658,9.9756,0.9834,23.5699,7.0879,33.3985
		c-27.5127,9.5049-39.8301,45.2534-39.8301,45.2534l2.8076,2.4814c0,0,54.6689-34.1484,55.454-41.1171
		c0.4064-3.6065-3.6014-21.1939-7.5663-37.337L562.396,79.4455z"/>
	<path class="st8" d="M573.8716,119.3025c0.4482,13.8803,1.292,29.6699,3.0166,45.9238c1.3955,2.0356,6.3203-0.2012,6.3203-0.2012
		s6.7676-24.8457,13.0361-45.7226H573.8716z"/>
	<path class="st5" d="M560.0308,71.8835c0.537,4.5376,0.9637,24.2715,1.6816,36.0772c0,0-10.4238,9.2671-10.0303,10.0825
		c16.6993,9.1367,43.3106,7.9644,46.3174,4.4106c-0.8652-4.8242-3.3828-36.4101-7.5634-47.2617L560.0308,71.8835z"/>
	<path class="st6" d="M576.2495,174.4739c0,0,19.6436-0.023,20.1319-1.4063c0.4882-1.3848-10.9034-4.4199-11.6621-5.0146
		c-2.5733-2.0249-1.8243-1.6744-1.8243-1.6744l-5.373-0.3012C577.522,166.0774,574.52,172.3619,576.2495,174.4739z"/>
	<path class="st9" d="M590.9937,83.9226c-2.6407,1.2202-34.4844,2.0674-40.2198-9.3706
		c-3.2246-6.4268,23.712-47.6196,32.6709-44.2105c4.1592,1.583,12.0331,15.9029,12.0331,15.9029
		C598.4673,59.2077,598.0571,80.6549,590.9937,83.9226z"/>
	<path class="st3" d="M558.4487,13.1008c-19.5878-7.3462-15.6728,10.7695-15.6728,10.7695s2.252,3.0083,5.4033,5.8262
		l-5.8711,3.6695c0,0,5.5547,1.5351,7.7998,1.8901c2.0674-4.6968,5.2696-0.6079,7.4942-1.3164
		c0.8857-0.2832,6.3877-4.6455,6.1386-9.2075c-0.0693-1.2637-0.4814-1.7495-0.8798-3.0542
		C561.6655,17.7644,560.2837,13.7883,558.4487,13.1008z"/>
	<path class="st6" d="M570.2632,48.5193c0.6621,0.457,5.5137,0.5014,6.1123,0.8364h8.0225
		c4.1923-4.9404-1.2227-25.248-7.043-30.6426C577.355,18.7131,553.5933,37.0329,570.2632,48.5193z"/>
	<path class="st10" d="M581.728,47.2283h10.8467c0.1123-2.6846,0.2041-8.0948-0.6963-11.1397l-5.0556-3.4639
		c-0.5157-0.167-1.0576-0.3017-1.6221-0.4267l-3.1455,1.039l-4.4911,1.4786c0,0-0.0176,0.0078-0.0469,0.0254
		c-0.0771,0.04-0.2871,0.1601-0.5918,0.3496c0.127-0.1441,0.2568-0.2842,0.3897-0.4258c-0.1856,0.0332-1.8877,0.4277-4.0606,1.3281
		C574.6929,36.8655,578.8013,41.9099,581.728,47.2283z"/>
	<path class="st8" d="M578.6831,24.6081c1.6543,3.2715,4.6797,5.46,8.1563,5.5147c5.3183,0.0669,9.6914-4.9136,9.791-11.1338
		c0.0752-6.2324-4.1631-11.3247-9.4814-11.4063c-2.6455-0.0385-5.0615,1.1773-6.8339,3.1939
		c-1.7872,2.0093-2.9229,4.8179-2.96,7.9365C577.3208,20.8777,577.815,22.8889,578.6831,24.6081z"/>
	<path class="st6" d="M597.2691,19.7849c-5.8614,5.2793-11.501-1.6963-13.7647-4.2432c-0.0762,0.3218-0.7139,1.6494-1.4961,3.1914
		c-1.4121-1.0044-4.0508-2.309-2.0342,3.8291c-0.6132,1.105-1.1113,1.918-1.289,2.0489c-5.5547-5.9698-3.376-19.6665,4.9492-19.2212
		C590.7944-0.3118,604.438,13.3318,597.2691,19.7849z"/>
	<path class="st9" d="M593.315,37.2019v-0.0005c-0.0118-0.0112-0.0245-0.0288-0.0245-0.0288
		c-0.4794-0.3838-0.9589-0.7495-1.4033-1.084c-0.5576-0.4341-1.0888-0.8144-1.5986-1.1767
		c-1.2432-0.8833-2.3008-1.5792-3.0811-2.0669c-0.1406-0.0806-0.2568-0.1563-0.3818-0.2203
		c-0.2891-0.184-0.5322-0.3408-0.708-0.4326c-0.2031-0.1323-0.3184-0.1928-0.3184-0.1928l-0.5869,0.1987l-3.1553,1.0351
		l-2.5752,0.8501l0.1846-2.1333l0.0049-0.061c0,0-0.0165,0.0073-0.0586,0.0186c-0.3291,0.0952-1.9228,0.6001-4.0303,1.5708
		c-0.5439,0.2519-1.1259,0.5385-1.7246,0.8681h-0.0058c-1.0205,0.5366-2.1016,1.1841-3.17,1.9229
		c-3.5351,2.4619-6.8984,6.0532-7.5839,10.959h0.0459h0.2773l11.6162,2.7959l20.6807-0.3926l1.7666-2.4033h3.1855
		C598.8989,43.2331,596.4077,39.6872,593.315,37.2019z"/>
	<path class="st8" d="M575.5825,33.4783c0.2364,1.0039,0.8116,2.7094,2.1494,4.499c1.3331,1.7915,3.423,3.6582,6.7198,5.0161
		c0.249-5.7417-2.8623-9.3613-4.7852-11.0435c-0.0195-0.018-0.0361-0.0356-0.0537-0.0424
		C579.2837,32.0027,577.69,32.5076,575.5825,33.4783z"/>
	<path class="st3" d="M534.9829,81.3347c3.4678,9.9756,0.9844,23.5713,7.0889,33.4004
		c-27.5128,9.5039-40.4863,44.585-40.4863,44.585l3.124,2.5253c0,0,55.0088-33.5244,55.7959-40.4941
		c0.4063-3.6045-3.6025-21.1934-7.5674-37.3369L534.9829,81.3347z"/>
	<path class="st3" d="M565.1304,100.7141h-30.0645c7.751,18.5811,18.2998,41.2373,32.1045,65.7173
		c2.0869,1.3183,5.3516-1.6944,5.3516-1.6944s-3.4639-28.1245-5.9883-50.2968C567.728,111.0139,566.9927,106.4436,565.1304,100.7141
		z"/>
	<path class="st6" d="M532.6196,73.7737c0.5363,4.5385,0.962,24.2724,1.6797,36.0766c0,0-10.4228,9.2686-10.0293,10.084
		c16.7002,9.1353,43.3116,7.9634,46.3174,4.4097c-0.8642-4.8238-3.3838-36.4092-7.5635-47.2613L532.6196,73.7737z"/>
	<path class="st4" d="M569.5806,174.9831c2.4375,0.0474,18.8193-8.062,18.2451-9.4404c-1.124-2.6977-11.5498,1.1836-15.3037-0.8057
		c-0.5342-0.2851,0,0,0,0l-5.1406,1.8863C567.3814,166.6233,566.8052,174.9275,569.5806,174.9831z"/>
	<path class="st4" d="M501.8882,159.2799l2.8213,2.5654l-0.2539,6.4175c0,0,3.2295,2.5894,3.9775,3.3379
		c1.1563,1.1553,1.6709,2.5664,0.6426,2.5664c-1.0254,0-9.7539-0.2563-9.7539-0.2563s-4.2363-9.6265-4.2363-11.1675
		C495.0855,161.2029,501.8882,159.2799,501.8882,159.2799z"/>
	<path class="st6" d="M529.6538,158.0974l2.8233,2.5664l-0.2549,7.9517c0,0,3.2296,2.5883,3.9775,3.3379
		c1.1563,1.1557,1.6709,2.5664,0.6436,2.5664c-1.0274,0-9.7559-0.2564-9.7559-0.2564s-4.2363-11.1611-4.2363-12.7021
		C522.8511,160.0207,529.6538,158.0974,529.6538,158.0974z"/>
	<path class="st9" d="M569.7905,67.3928c8.0909-13.8696,4.0674-33.0464,4.0674-33.0464
		c-17.2529,9.7715-18.334,23.0884-18.3174,33.0464H569.7905z"/>
	<path class="st4" d="M544.7515,33.6023c0,0,18.2724-3.1519,18.2724,43.4804c0,0-7.2431,3.4654-12.6005,1.8897
		C550.1079,67.6296,544.7515,33.6023,544.7515,33.6023z"/>
	<path class="st1" d="M551.3677,99.1384c-2.3447,1.7178-23.6299,4.4121-31.5078-5.6714
		c-4.4279-5.667,15.4385-61.4419,24.8916-59.8647C554.2036,35.1769,563.104,90.5529,551.3677,99.1384z"/>
	<path class="st5" d="M569.8628,54.2263c-0.415,5.1616-7.9394,21.1914-7.9394,21.1914s-14.8799,0.4922-16.542-1.644
		c0,0,3.3076-22.6851,6.3886-23.876c3.0645-1.1738,17.0909,1.3413,17.961,3.081c0.039,0.0757,0.0742,0.1705,0.0742,0.2647
		C569.8814,53.4895,569.8814,53.8293,569.8628,54.2263z"/>
	<path class="st1" d="M572.0747,61.0134c-0.0185,0.2266-0.0576,0.4551-0.1328,0.7178c-1.0967,4.5381-7.8926,14.0112-7.8926,14.0112
		s-12.0517,0.8682-12.7705-1.4966c-0.1894-0.6797,0.2461-15.3496,3.3272-16.2954c2.9297-0.9077,16.3896,0.6992,17.3926,2.7603
		C572.0747,60.8059,572.0933,60.9192,572.0747,61.0134z"/>
	<path class="st11" d="M572.0747,61.0134c-0.0185,0.2266-0.0576,0.4551-0.1328,0.7178c-2.9482,0-16.6543-0.586-17.2598-1.8521
		c-1.8339-3.8198,15.2169-0.1504,16.4473,0.3794c0.3789,0.169,0.6611,0.3008,0.8692,0.4522
		C572.0747,60.8059,572.0933,60.9192,572.0747,61.0134z"/>
	<path class="st11" d="M569.8628,54.2263c-2.5527,0.019-16.8066-0.5664-17.4297-1.852c-1.8164-3.8013,15.2168-0.1524,16.4668,0.3959
		c0.3965,0.1709,0.6963,0.3218,0.9053,0.4732C569.8814,53.4895,569.8814,53.8293,569.8628,54.2263z"/>
	<path class="st12" d="M568.3628,69.3142c-2.1445,1.5513-2.6377,3.0264-2.7451,3.479c-2.9404-0.0884-11.6797-0.2524-19.0527,0.6387
		c6.0605-14.6236,4.9209-45.1582-9.3252-28.3814c-6.7666,7.9658-5.833,26.4253-2.0088,35.7613
		c4.6758,11.4209,30.2822-5.3697,31.5332-6.2007C571.5943,71.7369,568.3628,69.3142,568.3628,69.3142z"/>
	<path class="st4" d="M556.4712,72.7732c-3.1621,0.0805-6.665,0.2661-9.9062,0.6587c6.0605-14.6236,4.9209-45.1582-9.3252-28.3814
		c-6.7666,7.9658-5.833,26.4253-2.0088,35.7613c3.0176,7.373,14.7509,2.9907,23.0322-1.2676
		C557.1528,77.3849,556.4829,74.9983,556.4712,72.7732z"/>
	<path class="st5" d="M542.6431,13.5271c-1.671,0.8555-3.2832,2.0576-5.1299,2.2886c-3.7314,0.4653-5.1191-4.7071-11.3281-3.0396
		c-3.1026,0.8345-4.1016,4.2305-6.2207,5.044c-2.1201,0.8149-4.0948-3.419-10.2451-1.4136
		c-6.1446,2.0029-8.3877,13.8305-4.2422,23.7969c3.6074,8.6733,14.0761,18.646,24.0478,12
		c3.8233-2.5484,8.0576-14.939,12.9024-17.8926c2.3584-1.438,8.788-1.3198,11.1367-11.1387c0.75-3.144,2.8711-6.5317,7.9531-5.0908
		C563.4126,18.6149,557.2007,3.1658,542.6431,13.5271z"/>
	<path class="st8" d="M590.2847,34.9138c-1.2442-0.8852-2.2988-1.5811-3.0801-2.0615c0.1582-0.3091,0.3076-0.6367,0.4453-0.9414
		c1.832-4.1787,2.166-8.7437,2.166-8.7437l-6.9404-2.0224c0,0-1.2275,10.0981-5.54,13.5078
		c-0.8487,0.2612-1.753-1.1743-1.753-1.1743s0.4248,1.8134,0.5323,2.1474c0.5879,1.5718,6.163,8.5293,11.9453,7.8755
		C592.5825,43.0007,591.4312,38.2209,590.2847,34.9138z"/>
</g>
<path class="st3" d="M485.6958,121.7619c0,0,4.169,34.0987,3.4326,43.9097c-0.4892,0-2.6972,0-2.6972,0
	s-21.7676-31.4599-11.9571-43.2339C480.3628,121.7019,485.6958,121.7619,485.6958,121.7619z"/>
<path class="st3" d="M469.9986,120.9031c0,0-3.8995,12.6718-6.5977,14.3881c-2.6982,1.7198-41.1445,23.5196-41.1445,23.5196
	l-1.5391-1.439c0,0,12.6904-30.5752,30.3545-30.3296c0-5.3989,0.3086-4.75,0.3086-4.75L469.9986,120.9031z"/>
<path class="st6" d="M449.6343,89.1355c0,0-1.0576,18.1479-9.3525,31.8042c-2.6221,4.3174,46.4453,8.7451,47.0459,5.143
	c1.2724-7.6401-5.8028-32.041-5.8028-32.041L449.6343,89.1355z"/>
<path class="st6" d="M489.2036,164.6526c0,0,7.6905,6.0488,12.1065,6.54c4.417,0.4902,3.9023,2.4199,1.9404,2.9126
	c-1.9639,0.4898-20.2549,1.3799-20.499-0.583c-0.2451-1.9634,3.6797-7.8506,3.6797-7.8506L489.2036,164.6526z"/>
<path class="st6" d="M422.1118,154.7263c-1.8613,0.5791-4.7256,0.7603-6.6875,1.7417c-1.9629,0.9805-0.3427,15.4688,2.1407,17.8921
	c1.3671,1.3345,7.9296,0.5117,7.9296,0.5117c1.5342-1.0229-4.6054-6.3022-4.6054-6.3022c2.4306-6.1021,2.8174-10.565,2.8174-10.565
	L422.1118,154.7263z"/>
<path class="st5" d="M445.7105,89.1355c0,0,13.0009-57.4043,21.0957-61.5752c8.0957-4.1694,13.0009,2.7002,13.0009,2.7002
	s9.8135,26.7397,5.1514,66.7241C484.9585,97.4763,461.4087,102.1374,445.7105,89.1355z"/>
<path class="st2" d="M459.5415,39.3435c0,0-6.7793,33.4175-8.2519,41.0225c-1.4717,7.6044-13.2461,3.4331-18.3965,0.7353
	c-5.1524-2.6992,3.3115-39.0044,5.5176-41.9502C440.6187,36.2087,459.5415,39.3435,459.5415,39.3435z"/>
<path class="st2" d="M435.5943,50.9249c-0.7803,0-4.6836-0.52-5.7247,1.5616c-1.041,2.0825-5.0712,20.8188,5.5997,22.1211
	C440.1548,64.1965,435.5943,50.9249,435.5943,50.9249z"/>
<path class="st2" d="M450.7564,77.7991c0,0,17.7636-10.9312,21.083-17.5679c-1.5616-2.5386-4.0996-2.9297-4.0996-2.9297
	l-18.1543,7.6133L450.7564,77.7991z"/>
<path class="st1" d="M489.8218,63.1623c0,0-17.0088,20.1416-14.1963,25.5132c2.8125,5.3711,13.9404,11.8301,16.4971,10.5508
	c2.5576-1.2783,13.0498-18.6499,13.4287-22.061C505.9361,73.7126,493.2739,62.5862,489.8218,63.1623z"/>
<path class="st11" d="M491.3569,71.0266c0,0-7.1943,7.1304-7.1943,9.688c0,2.5581,8.919,5.8506,10.4541,5.0835
	c1.5352-0.7671,6.585-6.8428,6.3311-8.1211C500.6919,76.3982,492.8911,70.2595,491.3569,71.0266z"/>
<path class="st13" d="M466.5611,37.1286c3.2841-2.4804,9.5664,0.7354,11.039,9.5674c1.4727,8.8306,4.7832,25.3897,4.7832,25.3897
	l15.6133,8.4458l-0.3682,3.313c0,0-28.125-1.4541-29.5947-10.2867C466.5611,64.7263,455.522,45.4704,466.5611,37.1286z"/>
<path class="st1" d="M449.73,30.2146c0,0-1.1211,4.4433,2.3936,10.4941c5.4658,2.1485,17.1074-0.5962,28.2685-11.229
	C475.3521,27.8264,449.73,30.2146,449.73,30.2146z"/>
<path class="st0" d="M473.2046,24.8977c0,0-21.7773-0.0195-23.4746,5.3169c-0.7314,2.2964,20.8516,1.9634,30.6621-0.7349
	L473.2046,24.8977z"/>
<path class="st3" d="M472.1069,27.4206c0,0-3.1328-19.9326,6.5479-17.6547c9.6816,2.2783,12.2432,9.6806,9.6816,15.6616
	c-2.5625,5.98-10.8203,3.9863-10.8203,3.9863L472.1069,27.4206z"/>
<path class="st5" d="M472.1069,27.4206c0,0-9.8115-2.2216-4.0732-7.9609c-1.8115-4.5312-4.835-9.9697,1.21-10.875
	c2.1152-3.6265,8.7617-11.1782,11.4804-5.4399c3.6241-0.604,15.4073-6.9483,15.4073,0.3027c0,7.2515-6.043,7.5532-6.043,7.5532
	s2.7197,5.1353-1.5098,6.0425C483.4429,17.0432,473.4595,20.2737,472.1069,27.4206z"/>
<path class="st3" d="M480.4194,19.7629c0,0-6.9462-6.7978-4.0771,1.8125C478.4566,22.4822,480.4194,19.7629,480.4194,19.7629z"/>
<path class="st3" d="M472.1069,27.4206c0,0-0.7128,2.2159-0.5419,4.0284c0.623-0.1133,8.5546-1.3018,9.6298-1.9268
	C479.3823,27.5403,472.1069,27.4206,472.1069,27.4206z"/>
<path class="st3" d="M497.9966,80.5315l-7.0723-3.8267c-1.0107,1.9541-1.5869,4.0767-1.9023,6.2637
	c4.8418,0.6792,8.6064,0.876,8.6064,0.876c-0.2715,1.3593-0.2168,8.79,3.8809,4.1049
	C505.6099,83.2654,497.9966,80.5315,497.9966,80.5315z"/>
<g>
	<path class="st6" d="M57.7163,101.3249c0,0-6.7724,13.7388,13.544,32.316c7.7187,2.7627,8.3213-3.6768,8.3213-3.6768
		s-2.5147-23.2207-2.5147-27.0918C68.5523,99.7766,57.7163,101.3249,57.7163,101.3249z"/>
	<path class="st13" d="M70.5874,58.8088c1.8906-3.5112,6.5781-7.8911,11.4326-0.7065c4.8516,7.186,14.4385,20.435,14.4385,20.435
		l17.1484,1.1519l1.0088,3.0635c0,0-25.3515,10.0459-30.205,2.8584C79.5591,78.4265,64.2222,70.5974,70.5874,58.8088z"/>
	<path class="st14" d="M113.6069,79.6892l-7.7685-0.523c-0.1016,2.1275,0.2441,4.2256,0.8467,6.2798
		c4.539-1.3501,7.9306-2.6933,7.9306-2.6933c0.3116,1.3037,3.1846,7.935,5.0733,2.0512
		C121.5308,79.0647,113.6069,79.6892,113.6069,79.6892z"/>
	<path class="st6" d="M79.5816,129.9641c0,0,1.9921,27.7461,2.6562,37.249c-0.4707,0.0684-2.5869,0.376-2.5869,0.376
		s-19.6133-21.6289-8.3906-33.9482C76.7993,132.1159,79.5816,129.9641,79.5816,129.9641z"/>
	<path class="st6" d="M67.2632,105.4534c0,0-10.8369,23.9951-18.9326,28.7514c-2.6719,1.5689-36.0264,4.3643-36.0264,4.3643
		l-1.5986-1.2364c0,0,11.6631-15.9316,28.4648-12.7163c0.9121-5.1455,7.1924-30.517,7.1924-30.517L67.2632,105.4534z"/>
	<path class="st1" d="M82.1665,166.2263c0,0,8.2178,4.7207,12.5137,4.5742c4.3027-0.1484,3.0967,1.4658,1.2861,2.2119
		c-1.8105,0.7447-18.2324,4.4595-18.7392,2.6162c-0.5088-1.8476,2.4238-8.0395,2.4238-8.0395L82.1665,166.2263z"/>
	<path class="st1" d="M12.3042,138.5691c0,0-7.9248,5.1997-9.7324,9.1001c-1.8125,3.9028-2.7051,2.0996-2.5557,0.1489
		c0.1553-1.9526,4.2569-18.2837,6.1319-17.9038c1.8759,0.3813,6.0771,5.793,6.0771,5.793L12.3042,138.5691z"/>
	<path class="st5" d="M83.9058,47.8269c0,0,0.0791-0.8784-7.1192-0.5342c-16.8388,0.8076-26.291,19.7256-30.874,33.0059v16.4272
		c13.0918,11.3745,32.4619,10.9527,32.5371,10.5249C89.645,69.9109,83.9058,47.8269,83.9058,47.8269z"/>
	<path class="st2" d="M68.7456,49.0769c0,0-16.9062,29.6382-19.5967,36.6411c-2.6855,7.0024-19.1709-1.1636-21.1054-8.1294
		c-1.5069-5.4277,14.289-29.2266,32.2529-33.5415C63.7612,43.2161,68.7456,49.0769,68.7456,49.0769z"/>
	<path class="st2" d="M52.9712,46.6208c-0.7441-0.1323-4.9648-0.9834-7.0244-0.0639c-14.0332,6.2622-17.2783,18.1826-7.3232,21.227
		C44.8472,58.6467,52.9712,46.6208,52.9712,46.6208z"/>
	<path class="st2" d="M49.0757,83.1814c0,0,27.5469-8.729,31.2803-19.0108c6.0342-16.6128-11.6104-15.0937-11.6104-15.0937
		l-18.6103,21.623L49.0757,83.1814z"/>
	<path class="st13" d="M77.0767,55.2746c3.0058,2.6177,1.1592,8.418-2.8496,10.9595c-7.3243,4.6445-22.085,9.94-22.085,9.94
		l-4.8926,16.476l-3.2148,0.3116c0,0-3.833-26.0855,3.8564-30.0923C56.0376,58.6228,66.9741,46.4753,77.0767,55.2746z"/>
	<path class="st14" d="M77.939,44.9719c0,0-5.5469-20.5747,4.8789-19.2749c6.2832,0.7822,10.6211,0.9531,11.3711,6.4531
		c0.3574,2.6231,2.3906,5.7315,1.5908,8.3389c-2.0176,6.5688-11.9404,5.9673-11.9404,5.9673L77.939,44.9719z"/>
	<path class="st6" d="M77.939,43.6902c0,0-10.5313-0.9615-5.0791-6.9619c-2.3565-4.024-6.0733-8.7544,0.1758-10.2832
		c1.8564-3.6207,8.0791-11.4156,11.5087-6.3707c3.7452-0.9736,5.3614-6.4228,8.4024-0.3388
		c2.5635,5.1274,2.5078,10.2295,1.2422,12.4145C88.7954,32.7292,78.6382,36.8718,77.939,43.6902z"/>
	<path class="st14" d="M77.9976,44.5056c0,0-0.7032,3.1519-0.3789,4.7461c0.7519,0.7334,6.4922,3.668,8.6484-3.7451
		C84.4663,43.9192,77.9976,44.5056,77.9976,44.5056z"/>
	<path class="st14" d="M47.2495,92.6501l2.2149-7.4609c-2.0508-0.5684-4.1748-0.6939-6.3135-0.5547
		c0.3213,4.7222,0.8838,8.3272,0.8838,8.3272c-1.3428,0.0146-12.1524,1.2094-3.1162,4.497
		C46.5825,99.5212,47.2495,92.6501,47.2495,92.6501z"/>
	<path class="st14" d="M85.8013,35.9919c0,0-8.0645-6.3486-4.0811,2.3662C84.0454,39.0709,85.8013,35.9919,85.8013,35.9919z"/>
</g>
<path class="st5" d="M381.1607,167.6452c-1.2911-0.6909-2.7422-0.6523-2.9551-0.8139c-1.7569,0.9389-1.9151,0.9082-3.9629,1.1743
	c-0.418,2.0537-1.7315,6.1401-0.2666,7.4009c0,0,17.9678-1.1802,19.4805-4.8736
	C394.0093,169.1833,382.0093,168.0954,381.1607,167.6452z"/>
<path class="st5" d="M353.1743,167.4069c-0.6972-0.2862-1.7617-0.794-2.0488-1.0161c-0.6699,0.0376-0.7129,0.2949-1.3301,0.2778
	c-1.3642-0.0381-1.915-0.022-3.1465-0.6445c-1.0087,1.809-2.2168,4.9448-1.248,6.5312c0,0,8.4404,3.6694,18.3633,1.2383
	C365.1509,173.4538,362.5005,171.2346,353.1743,167.4069z"/>
<g>
	<path class="st3" d="M268.7857,66.6506c-0.5821-0.7407-1.2666-1.4702-1.962-2.2046c-4.8769,0.8159-10.6728,5.1504-21.0302,8.5284
		c-3.378-18.814-30.4951-37.0552-29.0283-16.5455c0.6914,9.7369,17.7236,24.9537,26.2919,28.8746
		c7.5313,3.4487,18.7422-12.0499,22.3389-16.232C265.1782,68.7654,269.0161,66.9469,268.7857,66.6506z"/>
	<path class="st5" d="M244.8706,70.0481c0.0498-0.0532,0.0967-0.1118,0.1465-0.1655
		c-5.5098-17.6084-29.6406-32.8345-28.2519-13.4537c0.4775,6.733,8.7753,16.0787,16.6806,22.5059
		C236.8589,75.4719,240.5366,72.2839,244.8706,70.0481z"/>
	<g>
		<g>
			<path class="st3" d="M241.6792,31.0813c0.1338,1.4321,0.8086,6.8662-2.5244,9.3662c-1.1748,0.8813-3.6367,0.6699-4.2881,0.3882
				c-2.1611-0.875-0.1728,4.7783-2.7978,8.8511c-2.6241,4.0805-4.0547,0.1782-5.003-1.4151
				c-1.1103-1.8462,0.7139-5.9507-3.9765-6.4741c-4.6953-0.5254-8.503-6.3477-8.503-6.3477
				c-0.1816-0.4643,4.587-4.2324,9.8741-7.6884c3.5918-2.3433,7.4326-4.5596,10.1103-5.4991
				c1.7686-0.6128,2.7559,3.6758,3.251,4.0186C240.5923,28.1589,241.5357,29.4553,241.6792,31.0813z"/>
			<path class="st13" d="M232.7681,15.2688c1.874-5.3316-5.6338-5.1489-13.2666,6.3511c-10.6895,3.4736-4.9151,13.83-4.9151,13.83
				s3.8077,5.8223,8.503,6.3477c1.8525-2.168,3.0693-4.5772,3.8496-6.8184c-5.7627-4.7949-1.0127-4.6621,1.1289-4.4204
				c0,0,2.0049-4.6963,7.084-8.0674C243.1157,18.8664,236.5825,14.1559,232.7681,15.2688z"/>
		</g>
		<g>
			<path class="st15" d="M247.3521,168.3459c-3.2774-6.9458-8.2813-22.3525-5.9825-26.3305
				c2.4698-4.2759-10.1953-36.4375-10.1953-36.4375c-6.9013,1.9731-13.1142,16.8061-12.1328,23.7119
				c0.9903,6.9053,12.6279,13.3818,14.6016,15.6826c-4.2422,16.0298,3.7012,20.8657,10.123,24.729
				C245.8169,168.9621,245.2691,168.9812,247.3521,168.3459z"/>
			<path class="st2" d="M187.4116,166.3313c1.7666-4.0313,13.085-18.8189,16.042-21.041
				c25.0235-28.1094,29.6905-42.5015,29.6905-42.5015c-0.8194-20.0581-17.0108-15.1064-25.7168-7.7085
				c-8.7139,7.3989-9.5264,40.9966-10.0157,43.4541c-12.9414,6.1524-12.8681,21.8174-13.0214,27.7969H187.4116z"/>
			<path class="st5" d="M235.4175,105.6013c-0.2139,0.6401-0.9912,1.5234-2.2148,2.4414c-1.1573,0.8662-2.711,1.7637-4.5811,2.5225
				c-1.9775,0.8134-4.3076,1.477-6.8604,1.7641c-5.8808,0.7056-12.9814-0.4848-19.9257-6.0073
				c-0.1182-0.4062-0.2432-0.8174-0.3614-1.2617c-0.2783-1.0933-0.5351-2.2925-0.7568-3.5713
				c-0.7432-4.2964-1.0859-9.5454-0.9854-15.0894c0.1963-10.0293,1.879-21.0214,5.4864-29.0825
				c0.4736-1.0727,0.9873-2.0986,1.54-3.0615c1.7754-3.1187,3.919-5.5903,6.4639-7.105c0.7021-0.4258,1.4404-0.7695,2.208-1.0239
				c0.0644-0.0273,0.1035-0.0464,0.1035-0.0464c0.3467-0.1113,0.6904-0.2197,1.0371-0.3247c0.333-0.1035,0.6738-0.2021,1.0039-0.293
				c11.4395-2.9902,17.1729,3.169,19.7539,12.5435c0.0088,0.0093,0.0088,0.0093,0,0.0161c0.7774,2.7983,1.2725,5.894,1.5401,9.1138
				c0.0488,0.5639,0.0927,1.1279,0.1259,1.7021C240.0054,85.0739,236.0083,103.8513,235.4175,105.6013z"/>
			<path class="st1" d="M215.5337,46.1658c0,0-72.7598,33.6953-14.5732,58.8637C221.6724,70.5154,217.9839,52.7063,215.5337,46.1658
				z"/>
			<path class="st1" d="M216.0874,50.1119c6.2988-8.2905,40.0283-0.6582-6.2158,31.586
				c-4.7715,11.8354-5.0889,13.1533-5.0889,13.1533s36.0742-20.2993,32.2881-39.8061
				c-2.4199-12.4903-12.4385-12.0577-21.5371-8.8794C213.0737,47.8122,215.1333,49.8122,216.0874,50.1119z"/>
			<path class="st3" d="M225.0503,70.6101c0,0,11.6543-8.6128,9.9014-3.1309c-1.749,5.481-2.6475,7.3877-8.0108,6.2891
				C223.6236,73.0867,225.0503,70.6101,225.0503,70.6101z"/>
			<path class="st3" d="M261.3032,66.5002c0,0,11.6543-8.6128,9.9014-3.1303c-1.749,5.4804-2.6475,7.3872-8.0107,6.289
				C259.8765,68.9773,261.3032,66.5002,261.3032,66.5002z"/>
			<path class="st1" d="M215.5337,46.1658c0,0-35.7109,2.6528-11.957,8.0278C227.3364,59.5681,215.5337,46.1658,215.5337,46.1658z"
				/>
			<path class="st3" d="M219.4155,48.6702c-2.0234,0.7514-35.6201,22.2827-28.4218,35.9418
				c3.8974,7.397,26.9619,6.5767,35.9482-10.955c0.1631-0.168-1.5361-3.2901-1.5361-3.2901s-12.5537,8.5518-19.6231,7.399
				C231.7603,63.3537,234.9302,42.9128,219.4155,48.6702z"/>
		</g>
	</g>
	<path class="st5" d="M224.2212,47.6614c0.0459-0.1812,0.0996-0.3526,0.1445-0.5381
		c-10.8339-1.0337-27.2421,18.9502-27.2421,18.9502c2.4941,0.9082,4.8798,2.2861,6.9941,3.7426
		c2.0879,1.4361,4.46,3.2037,5.7295,5.5127C230.4644,62.6745,233.5513,47.6311,224.2212,47.6614z"/>
	<path class="st6" d="M241.6577,174.9812c0,0,18.541-0.0225,19.001-1.3291c0.4609-1.3047-10.2617-4.207-11.0068-4.7315
		c-1.1065-0.7793-2.6719-1.2685-2.6719-1.2685l-4.7461,0.979C242.2339,168.6311,240.0278,172.9875,241.6577,174.9812z"/>
	<path class="st6" d="M180.7417,171.2327c0,0,7.5518,4.2622,18.9785,2.9272c1.5332-0.1792-0.0986-3.4253-5.3838-5.2847
		c-3.249-1.1425-5.9687-4.5005-5.9687-4.5005l-3.7188-1.2724C184.6489,163.1023,179.44,168.6749,180.7417,171.2327z"/>
</g>
<g>
	<path class="st16" d="M313.48,40.3152c0,0-16.8555-1.5611-24.0342,7.4922c-7.1777,9.0517-22.1631,49.3169,4.0576,50.8769
		C313.1685,98.3718,317.479,47.3738,313.48,40.3152z"/>
	<path class="st3" d="M310.6304,33.4968c1.7373,3.4273,4.9658,4.6543,8.6035,4.7134c5.5693,0.0644,12.3535-4.4702,10.1992-10.5996
		c-2.1709-6.1572-4.3681-11.8599-9.9336-11.9453c-2.7705-0.0391-5.2968,1.2358-7.1592,3.3442
		c-1.8691,2.1069-3.0566,5.0483-3.0966,8.314C309.2066,29.5886,309.7251,31.6975,310.6304,33.4968z"/>
	<path class="st1" d="M320.523,24.6072c1.3095-0.7535,4.0127-2.7486,6.8984-2.9356c2.9355-4.4033-5.1221-13.459-11.5996-8.2969
		c-8.7178-0.4707-14.6729,14.3145-5.1914,20.1221c0.5957-0.437,6.9082-7.9687,7.8379-11.9722
		C318.4683,21.5246,319.856,23.1272,320.523,24.6072z"/>
	<path class="st5" d="M330.647,68.9319c-0.3848,0.1508-0.7725,0.3242-1.1602,0.5009c-0.2597,0.1109-0.5371,0.2222-0.8007,0.335
		c-3.2334,1.374-6.4649,2.8106-9.6739,4.3091c-1.6855-3.8828-2.9726-7.9795-3.5195-11.8506
		c-0.1006-0.7353-0.1758-1.4473-0.2285-2.1577c-0.0606-0.9263-0.0723-1.811-0.0352-2.686l0.5752-0.0889l2.3721-0.3604l6.5537-0.9985
		l0.4727-0.0752l2.125-0.3247l1.6113-0.2378c0.2607,0.7241,0.4844,1.4868,0.6855,2.2856
		C330.4605,60.7789,330.9107,64.5378,330.647,68.9319z"/>
	<path class="st3" d="M292.9243,87.4475c3.6494,10.4961,1.0342,18.5557,7.461,28.895c-14.1651,8.6655-31.916,42.6157-31.916,42.6157
		l2.9541,2.6099c0,0,47.5253-30.9321,48.3535-38.2642c0.4238-3.7944-3.791-16.0537-7.9629-33.039L292.9243,87.4475z"/>
	<path class="st3" d="M309.3189,119.7019c0.4716,14.603-2.1231,31.8037-0.3106,48.9004c1.4678,2.143,5.2012,0.4184,5.2012,0.4184
		s7.7334-23.9194,14.3281-45.8833L309.3189,119.7019z"/>
	<path class="st6" d="M296.313,82.4538c-3.3887,4.9937-4.8623,16.3291-4.1055,28.75c0,0-6.9218,14.4029-6.5068,15.2623
		c17.5693,9.6127,41.5186,3.725,44.6816-0.0137c-0.9101-5.0752-3.5595-32.0615-7.9531-43.4785L296.313,82.4538z"/>
	<path class="st15" d="M307.4995,174.9387c0,0,20.667-0.0249,21.1797-1.4814c0.5137-1.4546-11.4687-4.649-12.2695-5.2749
		c-2.707-2.1285-1.917-1.7598-1.917-1.7598l-5.6533-0.3159C308.8394,166.1067,305.6831,172.7165,307.4995,174.9387z"/>
	<path class="st4" d="M329.4614,76.3113c-0.0117,0.039-0.0117,0.063,0,0.0986c-0.0244,0.4004-0.0507,0.7983-0.0869,1.186
		c-0.4873,5.7432-1.8857,10.6382-4.456,13.1978c-0.0508,0.0625-0.1006,0.1133-0.1621,0.1626
		c-0.5391,0.4995-1.1133,0.9111-1.751,1.1977c-1.1084,0.5122-5.2168,1.8121-10.125,2.3726
		c-6.8164,0.7988-15.1563,0.2124-19.1651-5.73v-0.0132c-0.2841-0.4228-0.5488-0.8618-0.7841-1.3359
		c-0.1631-0.3228-0.2881-0.7476-0.3623-1.2588c-0.5371-3.5718,1.1211-11.2143,3.8945-19.3061
		c0.0234-0.087,0.0625-0.1617,0.0859-0.2481c0.9131-2.6714,1.9493-5.3677,3.0469-7.9912c0.1123-0.25,0.2119-0.5,0.3242-0.7363
		c0.8614-1.9981,1.7608-3.9317,2.6983-5.7549c0.9375-1.8364,1.8974-3.5596,2.8701-5.1196c0.0752-0.1246,0.1494-0.2378,0.2265-0.3501
		c0.1514-0.2364,0.2989-0.4742,0.4483-0.6983c0.3516-0.5132,0.6875-1.0127,1.0361-1.4731c0.0137-0.0274,0.0264-0.0396,0.0498-0.063
		c0-0.0137,0.0137-0.0357,0.0381-0.0508c0.1387-0.1855,0.2744-0.374,0.4238-0.561c0.1006-0.1377,0.2129-0.2735,0.3125-0.4009
		h11.3497c0.8242,1.0127,1.6621,2.1494,2.4716,3.3223c0.5137,0.7373,1.0117,1.4863,1.501,2.2221
		c0.4736,0.7378,0.9219,1.4478,1.3477,2.1206c1.1718,1.9131,2.1201,3.5479,2.6338,4.4346c0.2509,0.4604,0.4003,0.7227,0.4003,0.7227
		c0.2237,1.0004,0.4356,2.0234,0.6221,3.06c0.5996,3.2593,0.999,6.7153,1.1367,10.1152
		C329.6138,71.7776,329.6138,74.0984,329.4614,76.3113z"/>
	<path class="st10" d="M324.7407,54.4734c0.0157,0.5234,0,1.0127-0.0107,1.4614c-0.0107,0.4995-0.0361,0.9634-0.0498,1.3589
		h-11.4121c-1.9238-3.4678-4.2949-6.8272-6.1934-9.0889c-0.498-0.5864-0.9482-1.0976-1.3594-1.5224l-0.3105-0.3125
		c-0.4248-0.4248-0.7871-0.7242-1.0508-0.8872c0.2988-0.1236,0.5869-0.2359,0.8604-0.3365
		c0.1513-0.0615,0.2998-0.1118,0.4502-0.1611c0.5761-0.2129,1.0869-0.3877,1.5234-0.5249c0.0254,0,0.0498-0.0122,0.0615-0.0122
		c0.0137-0.0137,0.0274-0.0137,0.0518-0.0254c0.7373-0.2109,1.2226-0.3228,1.3232-0.3379
		c-0.1386,0.1514-0.2763,0.2886-0.4131,0.4385c0.3252-0.1895,0.5391-0.3115,0.625-0.3623c0.0264-0.0137,0.0518-0.0235,0.0518-0.0235
		l2.0078-0.663l0.0986-0.0391h0.0137l1.711-0.5625l0.8847-0.2988l0.2363-0.0747l3.0723-1.0113c0.0264,0,0.0527,0.0117,0.0752,0.0117
		c0.5762,0.1275,1.1123,0.2754,1.6377,0.4385l0.8242,0.5611l0.6104,0.4248l0.126,0.0761v0.0103l0.249,0.1645l0.6611,0.4624
		l1.2109,0.8228c0.0381,0.1118,0.0879,0.2358,0.125,0.3633c0.5625,0.5488,1.1758,1.1997,1.7998,1.959
		c0.25,1.2866,0.3848,2.809,0.462,4.3178C324.7407,52.2624,324.7564,53.4109,324.7407,54.4734z"/>
	<path class="st4" d="M329.6245,57.5827l-1.2744,1.7349l-0.373,0.5132l-1.5489,0.0239l-9.0273,0.1748l-2.1367,0.0391l-4.4824,0.085
		l-2.419,0.0507l-2.1367,0.0376l-0.3594-0.0883l-0.167-0.0376l-0.7969-0.1988l-3.2451-0.7749l-2.0615-0.499l-5.5937-1.3496h-0.336
		c0.252-1.7446,0.8096-3.3335,1.6104-4.7681c1.1738-2.1494,2.8349-3.957,4.6435-5.4438c0.5635-0.4741,1.1377-0.9126,1.7217-1.3101
		c0.0908-0.0508,0.165-0.1138,0.2393-0.1636c0.5361-0.3496,1.0986-0.6997,1.6845-1.0478c0.4619-0.2617,0.9248-0.5371,1.4141-0.8106
		c0.6367-0.3515,1.2461-0.6489,1.8213-0.9145c0.2637-0.1221,0.5098-0.2339,0.75-0.3359h3.4326l-0.0879,0.936v0.0391l0.0986-0.0391
		h0.0137l1.711-0.5625l0.8847-0.2988l0.2363-0.0747h5.709c0,0,0.0108,0.0131,0.0371,0.0268
		c0.0254,0.0103,0.0479,0.0371,0.087,0.0479c0.0869,0.0507,0.1992,0.1391,0.3505,0.2378c0.0362,0.0136,0.0616,0.0371,0.0987,0.061
		c0,0,0,0,0.0146,0.0137c0.1387,0.0888,0.2725,0.1767,0.4102,0.2617c0.5254,0.3496,1.0996,0.7495,1.7246,1.1992
		c0.0127,0.0376,0.0224,0.0752,0.0351,0.1128c0.0381,0.1118,0.0879,0.2358,0.125,0.3633c0.5625,0.5488,1.1758,1.1997,1.7998,1.959
		c1.6602,2.0224,3.4434,4.8188,4.7071,8.5146C329.1997,56.0212,329.4234,56.7839,329.6245,57.5827z"/>
	<path class="st3" d="M306.7993,42.8342c0.2491,1.0547,0.8545,2.8511,2.2578,4.7315c1.4043,1.8862,3.6055,3.8505,7.0713,5.2783
		c0.2647-6.0391-3.0097-9.8506-5.0332-11.6192c-0.0215-0.019-0.039-0.0356-0.0586-0.0459
		C310.6948,41.2809,309.0142,41.8108,306.7993,42.8342z"/>
	<path class="st15" d="M268.4693,158.9582l2.9707,2.7017l-0.2706,6.749c0,0,3.3985,2.7251,4.1856,3.5122
		c1.2178,1.2168,1.7598,2.6983,0.6738,2.6983c-1.0791,0-10.2627-0.2681-10.2627-0.2681s-4.456-10.1294-4.456-11.75
		C261.3101,160.9817,268.4693,158.9582,268.4693,158.9582z"/>
	<path class="st4" d="M305.0405,66.5339c-0.1259,0.6646-0.2636,1.3135-0.4228,1.9732l-16.6309-3.3223
		c1.584-7.2417,3.4922-12.4072,11.8594-18.2275c1.5-1.0479,3.1953-2.1099,5.1338-3.2076
		C304.98,43.7497,307.3013,54.8474,305.0405,66.5339z"/>
	<path class="st3" d="M323.2808,50.3918c-0.249,1.5479-1.1719,2.7437-3.3574,2.982c-0.4991,0.063-0.9991,0.063-1.4864,0.0136
		c-1.6484-0.1357-3.2334-0.7988-4.6826-1.6977c-0.1006-0.0508-0.1855-0.1153-0.2851-0.1748
		c-1.6485-1.062-3.086-2.4351-4.1582-3.6328c-0.0127-0.0137-0.0264-0.0259-0.0381-0.0371
		c-0.0254-0.0259-0.0362-0.0518-0.0625-0.0767c0-0.0122-0.0127-0.0234-0.0254-0.0356c-0.0508-0.0494-0.085-0.1143-0.124-0.1651
		c-0.9268-1.0825-1.5225-2.0083-1.6993-2.4687c-0.0361-0.1021-0.0849-0.3267-0.1621-0.5879c0-0.0137,0-0.0274-0.0117-0.0508
		c-0.0879-0.3755-0.2002-0.8345-0.2744-1.1729c-0.0117-0.0507-0.0254-0.102-0.0381-0.1494
		c-0.0244-0.0747-0.0371-0.1377-0.0488-0.2026c-0.0147-0.0371-0.0147-0.0625-0.0147-0.0728
		c0.0899,0.1241,0.4375,0.6353,0.8994,0.9737c0.2881,0.2007,0.6133,0.3383,0.9375,0.2363c0.2491-0.187,0.4727-0.4126,0.6993-0.6372
		c0.2871-0.2871,0.5488-0.6001,0.7871-0.936c0.3232-0.398,0.6113-0.8482,0.873-1.3101c0.6875-1.1846,1.2481-2.5352,1.711-3.8594
		c0.5234-1.5356,0.9248-3.0683,1.1865-4.3447v-0.0117c0.3994-1.8218,0.5615-3.1216,0.5615-3.1216l7.3037,2.1357
		c0,0-0.2754,3.7574-1.6719,7.6787v0.0123c-0.1894,0.4995-0.375,1.0107-0.5996,1.5107c-0.1513,0.3105-0.3134,0.6611-0.4746,0.9873
		c0.1612,0.1001,0.3369,0.2002,0.5244,0.3228c0,0,0.0108,0.0131,0.0371,0.0268c0.0254,0.0103,0.0479,0.0371,0.087,0.0479
		c0.0869,0.0507,0.1992,0.1391,0.3505,0.2378c0.0362,0.0136,0.0616,0.0371,0.0987,0.061c0,0,0,0,0.0146,0.0137
		c0.1387,0.0888,0.2725,0.1767,0.4102,0.2617c0.5254,0.3496,1.0996,0.7495,1.7246,1.1992c0.0127,0.0376,0.0224,0.0752,0.0351,0.1128
		c0.0381,0.1118,0.0879,0.2358,0.125,0.3633c0.4248,1.3086,0.837,2.7949,0.9141,4.1562
		C323.3706,49.4675,323.3569,49.9416,323.2808,50.3918z"/>
	<path class="st3" d="M313.5112,30.9021c0,0-5.4902-6.7017,2.0459-3.6294C316.6753,28.9479,313.5112,30.9021,313.5112,30.9021z"/>
	<path class="st11" d="M322.4321,44.8235c-0.4863-0.4761-0.9365-0.8633-1.3359-1.1861c-0.2119-0.1767-0.4111-0.3398-0.5859-0.4741
		c-0.1377-0.1001-0.2627-0.2021-0.3731-0.2768c0.1387,0.0888,0.2725,0.1767,0.4102,0.2617
		c0.5254,0.3496,1.0996,0.7495,1.7246,1.1992c0.0127,0.0376,0.0224,0.0752,0.0351,0.1128
		C322.3452,44.5719,322.395,44.6959,322.4321,44.8235z"/>
	<path class="st6" d="M320.5103,43.1633c0,0,5.1972,9.898,7.7978,23.7871c2.0274-2.0796,3.0156-6.1889,3.0156-6.1889
		S327.229,46.8406,320.5103,43.1633z"/>
	<path class="st3" d="M337.0464,75.5852c-0.2383-5.9316-5.1484-24.0332-9.6748-21.6914c-4.5264,2.3398-0.3125,6.0845,2.6514,7.3335
		C321.1275,82.1409,337.6704,91.1926,337.0464,75.5852z"/>
	<path class="st6" d="M307.5513,42.4993c0,0,3.8496,19.4555,0.832,27.6777c-1.9775-1.145-4.0576-3.2266-4.0576-3.2266
		s-0.6816-17.4931-2.6836-21.1787C303.5659,44.5603,305.2603,43.2297,307.5513,42.4993z"/>
	<path class="st3" d="M308.3814,62.3728c0,0-8.3233-5.1997-1.0401-8.2207c5.1573-2.1377,6.6592,28.7178-6.8662,33.0869
		c-13.5273,4.3716-13.7344-17.6875-12.4853-22.0557c2.081,0,9.5722,1.6651,9.5722,1.6651l2.083,7.6972
		C299.645,74.5456,304.7007,65.2478,308.3814,62.3728z"/>
	<path class="st1" d="M317.8374,12.7327c0,0-5.3056-8.6558-13.7734-0.1885c-2.0987,2.0981-7.5381,0.5591-12.0069,3.0718
		c-4.4677,2.5102-11.0732,9.9589-4.3701,17.7753c7.1973,8.3975,20.3799,3.3492,18.7041-5.5835
		c-1.0361-5.5219,4.3731-9.3979,6.8838-8.8408C315.7896,19.5246,317.8374,12.7327,317.8374,12.7327z"/>
</g>
<g>
	<path class="st6" d="M663.314,44.7888v-5.7646c-8.585,2.8461-31.1572,13.7753-37.2071,29.9086
		c-4.6962,12.5245,22.6036,24.0708,22.6036,24.0708l17.8779-48.2148H663.314z"/>
	<g>
		<path class="st3" d="M665.2095,25.6413c0,0,0.75,5.5699,4.0714,7.606c3.3203,2.0366,0.4834,4.3711,0.6454,6.1069
			c0.1387,1.4971,2.0683,4.0352,5.498,1.9995c3.4278-2.0356,1.709-6.0468,3-4.6411c0.3926,0.4268,3.0166,1.0987,4.2305,1.0264
			c1.537-0.0928,5.6981-4.0986,5.9091-5.2412c0.2755-1.4756-0.5518-6.0386-2.1591-7.7173
			C684.7974,23.1008,665.2095,24.7844,665.2095,25.6413z"/>
		<path class="st3" d="M686.6548,26.1975c0,0,1.0576-3.4307,0.9813-4.27c0,0-24.8563-16.7129-22.4267,3.7138
			C670.4937,28.0696,686.6548,26.1975,686.6548,26.1975z"/>
		<path class="st2" d="M668.0669,32.0686c0,0-8.9267-4.1406-5.2109-13.856c0.8115-2.1206,7.8515-5.0019,13.7226-6.4033
			c3.5235-0.8442,3.4912-4.7363,7.7051-0.4521c4.958,5.0429,3.3525,10.5703,3.3525,10.5703l-7.2861-1.2862
			C680.3501,20.6413,675.2085,26.6404,668.0669,32.0686z"/>
		<path class="st3" d="M677.0659,24.6404c0,0-5.8564-3.855-3.2861,3.1445C676.4946,27.7849,677.0659,24.6404,677.0659,24.6404z"/>
		<path class="st6" d="M649.44,72.7439c0,0-8.0635,11.0879,5.039,43.3437c-5.5439,3.5284-23.1836,19.6826-31.248,36.3155
			c3.0224,3.0234,3.0224,3.0234,3.0224,3.0234s47.8819-22.7061,49.3954-25.731c1.5098-3.0229-1.5135-29.2319-1.5135-29.2319
			L649.44,72.7439z"/>
		<path class="st6" d="M646.4146,78.2888c0,0,5.9638,31.5649,22.0908,41.1401c-5.4151,9.669-3.8682,27.8243,1.2998,48.708
			c3.0244,2.0162,6.0478,0,6.0478,0s9.2697-39.3232,10.0538-46.7739c0.7753-7.3476-7.7393-43.5805-7.7393-43.5805L646.4146,78.2888z
			"/>
		<path class="st5" d="M672.9175,45.7009c0,0,8.4834,20.9805,11.8223,24.3213c3.3418,3.3408,16.4502,22.1123,16.4502,22.1123
			l-2.5625,2.8838c0,0-23.6221-13.5625-26.128-18.9922C669.9937,70.5974,668.3237,49.4582,672.9175,45.7009z"/>
		<path class="st4" d="M665.4185,39.0079c-13.4824,7.7496-18.7949,36.5904-15.8701,56.6368
			c10.0234,2.9228,35.499,0.4184,35.499,0.4184S685.7739,27.3054,665.4185,39.0079z"/>
		<path class="st5" d="M662.3452,41.2659c-11.5714,10.288-18.0068,37.8491-15.3134,56.3168
			c10.0224,2.9234,24.6757,3.8453,24.6757,3.8453s8.8848-46.8238,2.3096-60.1621H662.3452z"/>
		<path class="st6" d="M663.6079,38.9177c-2.0547,0.7339-10.125,2.9937-14.1679,33.8262
			C691.4214,53.9617,675.5698,33.7805,663.6079,38.9177z"/>
		<path class="st17" d="M627.5601,99.8362c0,0,16.9873,3.8271,23.1328,2.6782c2.3506-3.0601,5.4219-17.2149,5.4219-19.5098
			c0-2.2959-22.7735-3.2529-24.5791-3.2529C629.7271,79.7517,625.2105,98.1159,627.5601,99.8362z"/>
		<path class="st13" d="M668.1763,41.1785c-10.9854-4.7212-20.1934,20.7592-23.8067,23.8051
			c-10.1552,8.564-9.6747,32.1172-9.6747,32.1172l2.9952,0.458l15.0332-27.9814C652.7232,69.5774,684.0337,47.9929,668.1763,41.1785
			z"/>
		<path class="st3" d="M634.6724,96.1008c0,0-6,6.3862-0.3526,7.4014c8.8105,1.5854,5.1104-4.9336,3.6446-6.898
			C636.4341,96.1008,634.6724,96.1008,634.6724,96.1008z"/>
		<path class="st3" d="M704.0464,94.8318c0,0-0.625,2.0649-2.5723,2.4995c-1.9492,0.4341-5.2529,0.2065-4.2334-2.7886
			C698.2593,91.5471,703.0591,86.6262,704.0464,94.8318z"/>
		<path class="st1" d="M669.8052,168.1369c0,0-2.7197,3.8667-2.46,5.4136c0.2569,1.5469,17.1123,2.398,19.5938-0.7734
			c2.3214-2.9649-10.3135-0.2583-11.086-4.6402C671.4361,168.8044,669.8052,168.1369,669.8052,168.1369z"/>
		<path class="st1" d="M624.6109,150.3464c0,0-3.8956,0.7271-5.0928,1.7407c-1.1944,1.0137,7.3496,17.983,11.4414,14.564
			c1.3848-0.8359-4.6084-5.3799-3.7051-11.7925L624.6109,150.3464z"/>
	</g>
</g>
</svg>
