<svg xmlns="http://www.w3.org/2000/svg" xmlns:xlink="http://www.w3.org/1999/xlink" width="120" height="133" viewBox="0 0 120 133">
    <defs>
        <path id="a" d="M24.92 3.447C35.648 1.15 46.376 0 57.105 0 68.273 0 79.442 1.245 90.61 3.736a28.8 28.8 0 0 1 21.94 22.306C114.851 37.216 116 48.39 116 59.566c0 10.403-.996 20.807-2.99 31.21a28.8 28.8 0 0 1-24.48 23.13A237.597 237.597 0 0 1 57.105 116c-10.033 0-20.066-.64-30.098-1.921A28.8 28.8 0 0 1 2.143 89.58 212.102 212.102 0 0 1 0 59.566C0 48.787.829 38.009 2.487 27.23A28.8 28.8 0 0 1 24.92 3.447z"/>
        <path id="c" d="M8 .236h96v100H0v-92a8 8 0 0 1 8-8z"/>
    </defs>
    <g fill="none" fill-rule="evenodd" transform="translate(2)">
        <g transform="translate(0 15)">
            <mask id="b" fill="#fff">
                <use xlink:href="#a"/>
            </mask>
            <path stroke="#E41E74" stroke-width="1.44" d="M24.769 2.743C35.547.434 46.325-.72 57.105-.72c11.221 0 22.443 1.251 33.662 3.753a29.52 29.52 0 0 1 22.49 22.864c2.308 11.222 3.463 22.445 3.463 33.669 0 10.449-1 20.898-3.002 31.345a29.52 29.52 0 0 1-25.093 23.708 238.317 238.317 0 0 1-31.52 2.101c-10.063 0-20.127-.642-30.19-1.927A29.52 29.52 0 0 1 1.43 89.683 212.822 212.822 0 0 1-.72 59.566c0-10.816.832-21.63 2.495-32.445A29.52 29.52 0 0 1 24.77 2.743z"/>
            <g mask="url(#b)">
                <g transform="translate(14 17)">
                    <mask id="d" fill="#fff">
                        <use xlink:href="#c"/>
                    </mask>
                    <path stroke="#E41E74" stroke-width="2" d="M8-.764h97v102H-1v-93a9 9 0 0 1 9-9z"/>
                    <path fill="#FFE1EE" fill-rule="nonzero" d="M13.802 0H7.808C3.77.01.488 2.516.435 5.629L0 96.884c.66.177 1.525.38 2.596.61 1.07.229 2.203.398 3.398.506l.435-92.37C6.483 2.516 9.764.01 13.802 0z" mask="url(#d)"/>
                </g>
            </g>
            <circle cx="24" cy="23.236" r="2" fill="#E41E74"/>
            <circle cx="31" cy="23.236" r="2" fill="#E41E74"/>
            <circle cx="38" cy="23.236" r="2" fill="#E41E74"/>
        </g>
        <g fill-rule="nonzero" stroke="#E41E74" stroke-width="1.5">
            <path d="M101.818 2.37l-4.333 11.288 4.333-11.288zM102.71 19.598l11.974-5.331-11.974 5.331zM84.065 1.203l5.332 11.975-5.332-11.975z"/>
        </g>
        <g fill="#F7C0D8" fill-rule="nonzero">
            <path d="M59.94 113.199c0-.663-.322-1.199-.72-1.199h-6.56c-.397 0-.72.536-.72 1.199 0 .662.323 1.199.72 1.199h6.56c.398 0 .72-.537.72-1.2zM63 119.199c0-.663-.565-1.199-1.26-1.199H50.26c-.695 0-1.26.536-1.26 1.199 0 .662.565 1.199 1.26 1.199h11.48c.695 0 1.26-.537 1.26-1.2zM73 113.199c0-.663-.484-1.199-1.08-1.199h-9.84c-.596 0-1.08.536-1.08 1.199 0 .662.484 1.199 1.08 1.199h9.84c.596 0 1.08-.537 1.08-1.2zM36.206 113.199a1.2 1.2 0 0 0 1.199 1.199h10.664a1.2 1.2 0 0 0 0-2.398H37.405c-.662 0-1.199.536-1.199 1.199zM35 119.199a1.2 1.2 0 0 0 1.199 1.199h10.664a1.2 1.2 0 0 0 0-2.398H36.199c-.662 0-1.199.536-1.199 1.199zM30.199 114.398h2.053a1.2 1.2 0 0 0 0-2.398H30.2a1.199 1.199 0 1 0 0 2.398zM30.199 120.398h2.053a1.2 1.2 0 0 0 0-2.398H30.2a1.199 1.199 0 1 0 0 2.398z"/>
        </g>
        <path fill="#FFE1EE" stroke="#E41E74" stroke-width=".5" d="M28 63h74v42H28z"/>
        <rect width="56" height="6" x="28" y="51" fill="#F7C0D8" rx="3"/>
        <g>
            <g transform="translate(49 70)">
                <circle cx="16.139" cy="14.159" r="12.668" fill="#FFF" stroke="#E41E74" stroke-width="1.49"/>
                <path fill="#E41E74" fill-rule="nonzero" stroke="#E41E74" stroke-width=".5" d="M13.055 8.862a.402.402 0 0 1 .407.015l2.9 1.807a.433.433 0 0 0 .585-.121.399.399 0 0 0-.125-.564l-2.9-1.807a1.286 1.286 0 0 0-1.272-.046c-.4.21-.65.613-.65 1.053V19.8c0 .44.25.843.65 1.053a1.282 1.282 0 0 0 1.272-.047l8.51-5.3c.355-.222.568-.599.568-1.007 0-.408-.213-.785-.569-1.006l-3.791-2.362a.434.434 0 0 0-.586.12.399.399 0 0 0 .126.564l3.791 2.362a.374.374 0 0 1 0 .644l-8.51 5.3a.403.403 0 0 1-.406.016.375.375 0 0 1-.208-.337V9.2c0-.206.146-.304.208-.337z"/>
                <path fill="#FFE1EE" fill-rule="nonzero" d="M20.332 25.302c-2.5.36-5.163-.334-7.52-1.695-5.586-3.225-7.5-10.368-4.275-15.953 1.36-2.358 3.29-4.296 5.634-5.236-3.424.492-6.468 2.73-8.332 5.958-3.225 5.586-1.31 12.729 4.275 15.954 3.229 1.864 7.006 2.258 10.218.972z"/>
            </g>
        </g>
    </g>
</svg>
