<?xml version="1.0" encoding="utf-8"?>
<!-- Generator: Adobe Illustrator 23.0.2, SVG Export Plug-In . SVG Version: 6.00 Build 0)  -->
<svg version="1.1" id="Capa_1" xmlns="http://www.w3.org/2000/svg" xmlns:xlink="http://www.w3.org/1999/xlink" x="0px" y="0px"
	 viewBox="0 0 440 488" style="enable-background:new 0 0 440 488;" xml:space="preserve">
<style type="text/css">
	.st0{fill:#FFA700;}
</style>
<path class="st0" d="M200,28.5L259.2,68L200,107.5V28.5z M208,92.5L244.8,68L208,43.5V92.5z"/>
<path class="st0" d="M190.8,488c-8.2,0-14.8-6.6-14.8-14.8c0-4.5,2-8.8,5.6-11.5L216,434v-58H24V88H0V48h155.2l0.8-2.8
	c9.7-27,35.4-45.2,64-45.2s54.3,18.2,64,45.2l0.8,2.8H440v40h-24v288H224v58l34.4,27.6c3.5,2.9,5.6,7.1,5.6,11.6
	c0,8.2-6.6,14.8-14.8,14.8H190.8z M186.5,467.9c-1.6,1.2-2.5,3.2-2.5,5.3c0,3.8,3.1,6.8,6.8,6.8h58.4c3.7,0,6.8-3.1,6.8-6.8
	c0-2-0.8-3.8-2.4-5.2l-0.1-0.1L220,441.2L186.5,467.9z M32,368h376V88h-16v-8h40V56H287.1l0.4,4.4c0.3,3.2,0.5,5.5,0.5,7.6
	s-0.1,4.5-0.5,7.6l-0.4,4.4H368v8h-83.2l-0.8,2.8c-9.7,27.1-35.4,45.2-64,45.2s-54.3-18.2-64-45.2l-0.8-2.8H32V368z M220,8
	c-33.1,0-60,26.9-60,60s26.9,60,60,60s60-26.9,60-60S253.1,8,220,8z M8,80h144.9l-0.4-4.4c-0.3-3.2-0.5-5.5-0.5-7.6s0.1-4.5,0.5-7.6
	l0.4-4.4H8V80z"/>
<path class="st0" d="M312,184v-40h72v40H312z M320,176h56v-24h-56V176z"/>
<path class="st0" d="M312,256v-40h72v40H312z M320,248h56v-24h-56V248z"/>
<path class="st0" d="M312,328v-40h72v40H312z M320,320h56v-24h-56V320z"/>
<polygon class="st0" points="264,328 264,144 272,144 272,160 288,160 288,168 272,168 272,232 288,232 288,240 272,240 272,304 
	288,304 288,312 272,312 272,328 "/>
<g>
	<rect x="60.8" y="180.5" class="st0" width="171.6" height="7"/>
</g>
<g>
	<rect x="60.8" y="232.5" class="st0" width="171.6" height="7"/>
</g>
<g>
	<rect x="60.8" y="284.5" class="st0" width="171.6" height="7"/>
</g>
</svg>
