<?xml version="1.0" encoding="utf-8"?>
<!-- Generator: Adobe Illustrator 21.1.0, SVG Export Plug-In . SVG Version: 6.00 Build 0)  -->
<svg version="1.1" xmlns="http://www.w3.org/2000/svg" xmlns:xlink="http://www.w3.org/1999/xlink" x="0px" y="0px"
	 viewBox="0 0 152 184.7" style="enable-background:new 0 0 152 184.7;" xml:space="preserve">
<style type="text/css">
	.st0{fill:#7CD434;}
	.st1{fill:#495052;}
	.st2{fill:#E9E9E9;}
	.st3{fill:#E42F2D;}
	.st4{fill:#333333;}
</style>
<g id="Layer_1">
	<g>
		<g>
			<path class="st0" d="M76,2.6c-7.1,0-12.8,5.7-12.8,12.8S68.9,28.2,76,28.2s12.8-5.7,12.8-12.8S83.1,2.6,76,2.6z M91.4,15.4
				c0,8.5-6.9,15.4-15.4,15.4s-15.4-6.9-15.4-15.4S67.5,0,76,0S91.4,6.9,91.4,15.4z"/>
			<path class="st0" d="M81,34.5c0,1.3-1.1,2.4-2.4,2.4h-5.3c-1.3,0-2.4-1.1-2.4-2.4V24.2c0-1.3,1.1-2.4,2.4-2.4h5.3
				c1.3,0,2.4,1.1,2.4,2.4V34.5z"/>
			<path class="st0" d="M70.9,24.8c0,0,1.7,0.3,1.9,0.3H79c0.3,0,1.9-0.3,1.9-0.3c0.2-0.2,1.4-0.6,1.4-0.9H69.5
				C69.5,24.2,70.7,24.6,70.9,24.8z"/>
			<path class="st0" d="M82.4,13.6v10.3H69.5V13.6c0-0.3,0.2-1,0.5-1c0,0,1.4-0.5,5.9-0.5s5.9,0.5,5.9,0.5
				C82.2,12.6,82.4,13.3,82.4,13.6z"/>
		</g>
		<path class="st0" d="M152,108.7c0,42-34,76-76,76s-76-34-76-76s34-76,76-76C117.9,32.7,152,66.8,152,108.7z M76,41.5
			c-37.1,0-67.3,30.1-67.3,67.3C8.7,145.9,38.8,176,76,176c37.1,0,67.3-30.1,67.3-67.3C143.2,71.6,113.1,41.5,76,41.5z"/>
		<g>
			<path class="st0" d="M118.6,46.7c-0.5,0.8-1.5,1-2.3,0.5l-3.1-1.9c-0.8-0.5-1-1.5-0.5-2.3l3.8-6.1c0.5-0.8,1.5-1,2.3-0.5l3.1,1.9
				c0.8,0.5,1,1.5,0.5,2.3L118.6,46.7z"/>
			<path class="st0" d="M116.2,37.2c0,0,0.9,0.8,1,0.9l3.7,2.3c0.2,0.1,1.3,0.5,1.3,0.5c0.2-0.1,1,0.1,1.1,0l-7.6-4.7
				C115.6,36.4,116.2,37.1,116.2,37.2z"/>
			<path class="st0" d="M127.1,34.9l-3.8,6.1l-7.6-4.7l3.8-6.1c0.1-0.2,0.5-0.5,0.7-0.4c0,0,1,0.2,3.7,1.9s3.3,2.5,3.3,2.5
				C127.3,34.2,127.2,34.7,127.1,34.9z"/>
		</g>
	</g>
	<g>
		<g>
			<g>
				<path class="st1" d="M76,2.6c-7.1,0-12.8,5.7-12.8,12.8S68.9,28.2,76,28.2s12.8-5.7,12.8-12.8S83.1,2.6,76,2.6z M91.4,15.4
					c0,8.5-6.9,15.4-15.4,15.4s-15.4-6.9-15.4-15.4S67.5,0,76,0S91.4,6.9,91.4,15.4z"/>
				<path class="st1" d="M81,34.5c0,1.3-1.1,2.4-2.4,2.4h-5.3c-1.3,0-2.4-1.1-2.4-2.4V24.2c0-1.3,1.1-2.4,2.4-2.4h5.3
					c1.3,0,2.4,1.1,2.4,2.4V34.5z"/>
				<path class="st1" d="M70.9,24.8c0,0,1.7,0.3,1.9,0.3H79c0.3,0,1.9-0.3,1.9-0.3c0.2-0.2,1.4-0.6,1.4-0.9H69.5
					C69.5,24.2,70.7,24.6,70.9,24.8z"/>
				<path class="st1" d="M82.4,13.6v10.3H69.5V13.6c0-0.3,0.2-1,0.5-1c0,0,1.4-0.5,5.9-0.5s5.9,0.5,5.9,0.5
					C82.2,12.6,82.4,13.3,82.4,13.6z"/>
			</g>
			<path class="st1" d="M76,32.7c-42,0-76,34-76,76s34,76,76,76s76-34,76-76C152,66.8,117.9,32.7,76,32.7z M76,172.5
				c-35.2,0-63.8-28.6-63.8-63.8S40.8,44.9,76,44.9s63.8,28.6,63.8,63.8S111.2,172.5,76,172.5z"/>
			<g>
				<path class="st1" d="M118.6,46.7c-0.5,0.8-1.5,1-2.3,0.5l-3.1-1.9c-0.8-0.5-1-1.5-0.5-2.3l3.8-6.1c0.5-0.8,1.5-1,2.3-0.5
					l3.1,1.9c0.8,0.5,1,1.5,0.5,2.3L118.6,46.7z"/>
				<path class="st1" d="M116.2,37.2c0,0,0.9,0.8,1,0.9l3.7,2.3c0.2,0.1,1.3,0.5,1.3,0.5c0.2-0.1,1,0.1,1.1,0l-7.6-4.7
					C115.6,36.4,116.2,37.1,116.2,37.2z"/>
				<path class="st1" d="M127.1,34.9l-3.8,6.1l-7.6-4.7l3.8-6.1c0.1-0.2,0.5-0.5,0.7-0.4c0,0,1,0.2,3.7,1.9s3.3,2.5,3.3,2.5
					C127.3,34.2,127.2,34.7,127.1,34.9z"/>
			</g>
			<g>
				<path class="st1" d="M38.9,43.2c0.5,0.8,0.3,1.8-0.5,2.3l-3.1,1.9c-0.8,0.5-1.8,0.3-2.3-0.5l-3.8-6.1C28.7,40,29,39,29.7,38.5
					l3.1-1.9c0.8-0.5,1.8-0.3,2.3,0.5L38.9,43.2z"/>
				<path class="st1" d="M29.4,41.3c0,0,1.1-0.4,1.3-0.5l3.7-2.3c0.2-0.1,1-0.9,1-0.9c0-0.2,0.6-0.9,0.5-1l-7.6,4.7
					C28.3,41.4,29.2,41.2,29.4,41.3z"/>
				<path class="st1" d="M32,30.4l3.8,6.1l-7.6,4.7l-3.8-6.1c-0.1-0.2-0.2-0.7-0.1-0.8c0,0,0.6-0.8,3.3-2.5s3.7-1.9,3.7-1.9
					C31.5,29.9,31.9,30.2,32,30.4z"/>
			</g>
		</g>
	</g>
	<g>
		<circle class="st2" cx="76" cy="108.7" r="63.8"/>
		<path class="st3" d="M105.6,57.5c-8.7-5.1-18.8-7.9-29.6-7.9v59.2L105.6,57.5z"/>
		<g>
			<g>
				<polygon class="st4" points="106.7,55.4 72.4,113.1 71.1,113.4 58.5,135.3 61.7,137.1 74.3,115.3 74,114 106.8,55.5 				"/>
				<circle class="st2" cx="76" cy="108.7" r="2.3"/>
				<path class="st4" d="M78.7,110.3c-0.9,1.5-2.8,2-4.3,1.2c-1.5-0.9-2-2.8-1.2-4.3c0.9-1.5,2.8-2,4.3-1.2
					C79.1,106.8,79.6,108.8,78.7,110.3z M77.1,106.8c-1.1-0.6-2.5-0.3-3.1,0.8c-0.6,1.1-0.3,2.5,0.8,3.1c1.1,0.6,2.5,0.3,3.1-0.8
					C78.6,108.8,78.2,107.4,77.1,106.8z"/>
			</g>
		</g>
		<g>
			<rect x="73.9" y="47.8" class="st4" width="4.2" height="11.3"/>
			
				<rect x="47.7" y="58.6" transform="matrix(0.8667 -0.4989 0.4989 0.8667 -23.9097 32.241)" class="st4" width="1.3" height="4.5"/>
			
				<rect x="47.2" y="56.8" transform="matrix(0.8661 -0.4998 0.4998 0.8661 -23.9092 32.3049)" class="st4" width="2.3" height="8"/>
			
				<rect x="26.9" y="77.1" transform="matrix(0.4998 -0.8661 0.8661 0.4998 -56.2228 64.8817)" class="st4" width="2.3" height="8"/>
			
				<rect x="24.1" y="135.3" transform="matrix(0.8662 -0.4997 0.4997 0.8662 -64.4133 32.3062)" class="st4" width="8" height="2.3"/>
			
				<rect x="44.3" y="155.5" transform="matrix(0.4998 -0.8661 0.8661 0.4998 -111.51 120.1325)" class="st4" width="8" height="2.3"/>
			
				<rect x="102.5" y="152.7" transform="matrix(0.8662 -0.4997 0.4997 0.8662 -64.4291 72.7596)" class="st4" width="2.3" height="8"/>
			
				<rect x="122.7" y="132.4" transform="matrix(0.4999 -0.8661 0.8661 0.4999 -56.1905 175.5267)" class="st4" width="2.3" height="8"/>
			
				<rect x="119.8" y="79.9" transform="matrix(0.8662 -0.4997 0.4997 0.8662 -23.9485 72.7107)" class="st4" width="8" height="2.3"/>
			<rect x="99.7" y="59.6" transform="matrix(0.5 -0.866 0.866 0.5 -0.7963 120.2149)" class="st4" width="8" height="2.3"/>
			<rect x="15" y="106.6" class="st4" width="11.3" height="4.2"/>
			<rect x="73.9" y="158.4" class="st4" width="4.2" height="11.3"/>
			<rect x="125.7" y="106.6" class="st4" width="11.3" height="4.2"/>
		</g>
	</g>
</g>
<g id="Layer_2">
</g>
</svg>
