<?xml version="1.0" encoding="utf-8"?>
<!-- Generator: Adobe Illustrator 23.0.2, SVG Export Plug-In . SVG Version: 6.00 Build 0)  -->
<svg version="1.1" id="Layer_1" xmlns="http://www.w3.org/2000/svg" xmlns:xlink="http://www.w3.org/1999/xlink" x="0px" y="0px"
	 width="1024px" height="1024px" viewBox="0 0 1024 1024" style="enable-background:new 0 0 1024 1024;" xml:space="preserve">
<style type="text/css">
	.st0{fill:#FFFFFF;}
	.st1{fill:#0073B5;}
	.st2{fill:#FAAC2B;}
	.st3{fill:#ED2E7A;}
	.st4{fill:#6CBD45;}
</style>
<title>Artboard 2 copy</title>
<path class="st0" d="M787.6,1024H236.4C105.9,1024,0,918.1,0,787.6V236.4C0,105.9,105.9,0,236.4,0h551.1
	C918.1,0,1024,105.9,1024,236.4v551.1C1024,918.1,918.1,1024,787.6,1024z"/>
<g>
	<g>
		<polygon class="st1" points="168,710.6 340,809.9 340,611.3 684,809.9 684,611.3 168,313.4 		"/>
		<polygon class="st2" points="340,809.9 512,710.6 340,611.3 		"/>
		<polygon class="st2" points="684,214.1 512,313.4 684,412.7 		"/>
		<polygon class="st3" points="684,214.1 684,412.7 340,214.1 168,313.4 684,611.3 684,809.9 856,710.6 856,313.4 		"/>
		<polygon class="st4" points="340,214.1 168,313.4 340,412.7 512,313.4 		"/>
	</g>
</g>
</svg>
