<?xml version="1.0" encoding="UTF-8"?>
<svg width="512px" height="512px" viewBox="0 0 512 512" version="1.1" xmlns="http://www.w3.org/2000/svg" xmlns:xlink="http://www.w3.org/1999/xlink">
    <!-- Generator: Sketch 64 (93537) - https://sketch.com -->
    <title>App Store iOS</title>
    <desc>Created with Sketch.</desc>
    <g id="App-Store-iOS" stroke="none" stroke-width="1" fill="none" fill-rule="evenodd">
        <g id="Icon-Template-512pt">
            <g id="Template">
                <rect id="BG" fill="#000000" x="0" y="0" width="512" height="512"></rect>
                <g id="Group-8" transform="translate(84.000000, 108.000000)" fill="#FFFFFF">
                    <polygon id="Fill-3" points="166.859758 48.0434805 166.877272 48.0614946 84.7976883 95.4469907 84.7976883 95.429477 84.7801747 95.429477 2.7356186 48.0614946 84.7976883 0.657484031"></polygon>
                    <polygon id="Fill-4" points="166.877372 249.88737 87.4503594 295.742671 87.4503594 204.032569"></polygon>
                    <polygon id="Fill-5" points="0.065483895 248.356875 0.065483895 52.6715939 256.932032 200.970878 256.932032 295.742371 82.1450673 194.829083 82.1450673 295.742371"></polygon>
                    <polygon id="Fill-6" points="256.932032 93.8983316 177.540547 48.0610442 256.932032 2.20624322"></polygon>
                    <polygon id="Fill-7" points="344.334271 49.5920396 344.334271 248.356725 262.254687 295.742721 262.254687 197.891324 90.1202939 98.5087311 172.199877 51.123235 172.217891 51.123235 262.254687 103.119331 262.254687 2.20604306"></polygon>
                </g>
            </g>
            <g id="Group-8">
                <polygon id="Fill-1" fill="#000000" points="0 512 512 512 512 0 0 0"></polygon>
                <polygon id="Fill-3" fill="#F5AA00" points="250.66395 155.92165 250.68145 155.93965 168.66595 203.28815 168.66595 203.27065 168.64845 203.27065 86.66795 155.93965 168.66595 108.57265"></polygon>
                <polygon id="Fill-4" fill="#F5AA00" points="250.68155 357.60795 171.31655 403.42745 171.31655 311.78895"></polygon>
                <polygon id="Fill-5" fill="#F5AA00" points="83.9999 356.07865 83.9999 160.54615 340.6659 308.72965 340.6659 403.42715 166.0154 302.59265 166.0154 403.42715"></polygon>
                <polygon id="Fill-6" fill="#F5AA00" points="340.6659 201.7407 261.3359 155.9392 340.6659 110.1202"></polygon>
                <polygon id="Fill-7" fill="#F5AA00" points="427.9999 157.469 427.9999 356.0785 345.9844 403.4275 345.9844 305.6525 173.9844 206.3475 255.9999 158.999 256.0179 158.999 345.9844 210.9545 345.9844 110.12"></polygon>
            </g>
        </g>
    </g>
</svg>