<?xml version="1.0" encoding="utf-8"?>
<!-- Generator: Adobe Illustrator 23.0.1, SVG Export Plug-In . SVG Version: 6.00 Build 0)  -->
<svg version="1.1" id="Layer_1" xmlns="http://www.w3.org/2000/svg" xmlns:xlink="http://www.w3.org/1999/xlink" x="0px" y="0px"
	 viewBox="0 0 761 660.2" style="enable-background:new 0 0 761 660.2;" xml:space="preserve">
<style type="text/css">
	.st0{fill:#F9A161;}
	.st1{fill:#F58151;}
	.st2{fill:#66250F;}
	.st3{fill:#8A291B;}
	.st4{fill:#55B948;}
	.st5{opacity:0.2;fill:#2E1812;enable-background:new    ;}
	.st6{fill:#B2665F;}
	.st7{fill:#9B5650;}
	.st8{fill:#FFFFFF;}
	.st9{fill:#A7A8AB;}
	.st10{fill:#00AE4D;}
	.st11{fill:#BF716A;}
	.st12{fill:#241F20;}
	.st13{fill:#211F1F;}
	.st14{fill:none;stroke:#9B5650;stroke-width:4.3178;stroke-linecap:round;stroke-linejoin:round;stroke-miterlimit:10;}
	.st15{fill:#864843;}
	.st16{fill:#2E1812;}
	.st17{fill:#3F211A;}
	.st18{fill:#F79254;}
	.st19{fill:#BB5A34;}
	.st20{fill:#F16251;}
	.st21{fill:#009EDB;}
	.st22{opacity:0.6;}
	.st23{fill:#2B3D94;}
	.st24{opacity:0.3;fill:#2E307D;enable-background:new    ;}
	.st25{fill:#00588D;}
	.st26{fill:#0074BA;}
	.st27{fill:#00BFEF;}
	.st28{fill:#635A8C;}
	.st29{fill:#FFFFFF;stroke:#F58151;stroke-width:4.3178;stroke-linecap:round;stroke-linejoin:round;stroke-miterlimit:10;}
	.st30{fill:#7B2917;}
	.st31{fill:#690923;}
	.st32{fill:#BD1E5E;}
	.st33{fill:#ED127A;}
	.st34{fill:#BA1F30;}
	.st35{fill:#F278A2;}
	.st36{opacity:0.5;fill:#BA1F30;enable-background:new    ;}
	.st37{fill:#9B2337;}
	.st38{fill:#FFFFFF;stroke:#F58151;stroke-width:4.3746;stroke-linecap:round;stroke-linejoin:round;stroke-miterlimit:10;}
	.st39{fill:#438288;}
	.st40{fill:#9C3921;}
	.st41{opacity:0.4;fill:#BA1F30;enable-background:new    ;}
	.st42{fill:#C85030;}
</style>
<g>
	<g>
		<g>
			<g>
				<path class="st0" d="M415.4,332.7c-0.6,2.3,1.2,5.1,3.3,6.2c1.5,0.9,7.1,0,7.1,0s4.7,5,6.1,5.6c2.7,1.2,10.2-0.4,10.2-0.4
					s0.6,5.5,1.8,6.8c0.8,0.8,4.3,1.3,4.3,1.3s-1.1,5.9,0,7.3c3.8,5.2,18.4,4,24.7,2.8c5.1-1,15.2-3.3,16-8.5
					c0.3-1.8-3.9-6.3-3.9-6.3s4-6.2,3.9-8.6c0-2.2-3.9-7.9-3.9-7.9s1.9-4.6,1.3-6c-0.9-2.3-8.4-5.5-8.4-5.5s0.7-7-1.3-8.8
					c-3.7-3.3-19.9-1.7-19.9-1.7l-26.5,11.6C430.1,320.7,416.7,327.8,415.4,332.7z"/>
				<polygon class="st1" points="425.7,338.9 440,329.3 459.8,325.3 459.8,321 439.7,326.2 420.9,339.3 				"/>
				<polygon class="st1" points="436.9,344.8 441.9,344.1 450.8,339.3 471.9,336.6 471.1,333.6 450.9,335.5 443.7,338.3 				"/>
				<polygon class="st1" points="448.1,352.2 456.4,349.4 472.7,348.2 479.1,348.2 478.1,352.2 471.1,352.2 456.4,353 447.6,355.6 
									"/>
			</g>
			<g>
				<path class="st2" d="M374.9,614.8h77.9c0.5-2,1-3.8,1.2-5.5c4.2-27.2-2.2-110-2.2-110l-186-6.7c0,0-0.6,40,0,53.3
					c0.7,17.1,4.8,43.4,7.9,68.9h83.6"/>
				<path class="st3" d="M287.4,614.8h57.9c0.9-19.6-1.6-42.7-4.3-53.7c-2.2-8.9-14.1-18.1-10.9-23.8c4.7-8.6,16.6-0.2,33.8-0.7
					c15.6-0.4,36.6-10.5,40.7-2.7c2.9,5.6-11.2,14.6-13.8,21.3c-5.1,13.6-5.2,38.7-4.6,59.5h50.4c0.6-3.5,1.1-6.7,1.6-9.5
					c4.5-27.9-0.3-112.6-0.3-112.6l-163.3-10c0,0,1.9,62.1,4.3,82.7C280.6,579.6,283.4,597.4,287.4,614.8z"/>
			</g>
			<path class="st4" d="M323.5,200.1c-13.2,1.8-39.1,7.9-51.8,11.9c-7.8,2.5-24.7,6.2-30.1,12.3c-9.4,10.6-26.5,60.1-11,61
				c8.1,0.5,1.7-20.9,24.6-21.3c22.1-0.4,27.4,12.7,26.6,21.4c-1.3,14.9-7.8,33.4-11.3,48c-6.7,27.9-5.5,86.1-8.9,114.6
				c-1.4,11.9,0.4,59,0.4,59s81.1,5.4,110,6.4c19.9,0.7,81.5-10.2,81.5-10.2s-0.3-72.8,0.4-95.9c0.7-23.8-6.7-67.9-5.6-91.7
				c0.7-14.7-16.3-44.6,18.3-50.9c20.8-3.8,23.1,16.9,31.8,15.7c9.9-1.4-16-50.1-27.6-60.3c-13.5-11.9-50-21.2-67.8-23.8
				C383.4,193.4,343.3,197.4,323.5,200.1z"/>
			<path class="st5" d="M261.6,448c-1.4,11.9,0.4,59,0.4,59s81.1,5.4,110,6.4c19.9,0.7,81.5-10.2,81.5-10.2s-0.3-72.8,0.4-95.9"/>
			<path class="st5" d="M366.8,241.8c9.5-8,30.1-28.5,45.4-24.2s24.9,7.1,24.9,7.1s-3.1-16-10.4-23.3c0,0-16.8-4.2-23.6-5
				c-6.8-0.8-12,13.6-12,13.6l-16,18.4l-12.9,11.4L366.8,241.8z"/>
			<path class="st5" d="M360.4,244.8c-9.5-8-30.1-24.9-45.4-20.6c-15.3,4.3-24.9,3.4-24.9,3.4s3.1-16,10.4-23.3c0,0,16.8-4.2,23.6-5
				c6.8-0.8,12,13.6,12,13.6l16,18.4l12.9,11.4L360.4,244.8z"/>
			<g>
				<g>
					<polygon class="st6" points="328.1,213.2 362.5,241.3 391.8,212.4 393.1,168.7 329.5,169.7 					"/>
					<path class="st7" d="M328.1,213.2l34.4,28.1l26.4-26l3-6.2l0.8-25c0,0.2-0.1,0.6-0.1,1c0,6.8-2.1,18.7-6.4,23.3
						S362,232.6,362,232.6s-13.8-15-21.2-21.5c-7.3-6.4-11-22-11.6-27.1L328.1,213.2z"/>
				</g>
				<g>
					<path class="st7" d="M333.5,164.4c0,12.7,6.9,38.2,22.7,46.7c25.1,13.5,38.9,1.3,38.9,1.3s-0.5-7.1-0.8-12.4
						c-0.7-12.7-1.7-31.4-1.7-35.2c0-12.7-13.7-23.6-31.5-23.6C343.2,141.3,333.5,151.7,333.5,164.4z"/>
				</g>
			</g>
			<path class="st0" d="M498.4,282c2.9,15.7,0,56.9,0,56.9l-46.7-12.7c0,0-9.3-27.8-7.8-38.3c1.9-12.7,2.7-23.9,27.2-23.9
				C494.1,264,497.1,274.8,498.4,282z"/>
			<path class="st0" d="M231.1,282c-2.9,15.7,0,56.9,0,56.9l46.7-12.7c0,0,9.3-27.8,7.8-38.3c-1.9-12.7-2.7-23.9-27.2-23.9
				C235.4,264,232.4,274.8,231.1,282z"/>
			<g>
				<path class="st1" d="M285.5,287.9c-1.6-10.7-2.4-20.5-17.6-23.2c-3.4,0,3,9.5,3.2,11.3c5.2,48.3-23.6,48.2-23.6,48.2l30.4,1.1
					C279.5,320.8,286.9,297.4,285.5,287.9z"/>
			</g>
			<g>
				<path class="st1" d="M443.9,287.9c1.6-10.7,2.4-20.5,17.6-23.2c3.4,0-3,9.5-3.2,11.3c-5.2,48.3,23.6,48.2,23.6,48.2l-30.4,1.1
					C450,320.8,442.5,297.4,443.9,287.9z"/>
			</g>
			<path class="st4" d="M329.1,184c0,0-8.2,3.7-11,5.5c-4.7,3-10.9,9.8-13.3,14.9c-1.9,4-6.2,17.4-6.2,17.4s20.2-5.4,27.2-3.4
				c10.8,3,36.9,27.6,36.9,27.6s29.7-32.1,43.3-35.7c6.4-1.7,24.2,4.7,24.2,4.7s-13.4-21.2-19.1-26.3c-5.1-4.6-17.8-9.8-17.8-9.8
				s0.6,17.5,0,20.4c-2.5,12.1-31,38.6-31,38.6s-24.3-23.4-28.9-32.7C330.9,200.4,329.1,184,329.1,184z"/>
			<path class="st5" d="M375.4,224.5c7.1-6.9,15-14.7,20.1-18.5c8.7-6.4,20.7-9.7,23.5-7.4c0.1,0.1,0.2,0.1,0.3,0.1
				c-3.1-4.3-6.2-8.3-8.3-10.2c-5.1-4.6-17.8-9.8-17.8-9.8s0.6,17.5,0,20.4C391.8,205.7,383.2,216.1,375.4,224.5z"/>
			<path class="st1" d="M476.5,310.7c0,0,21.9,9.2,22,28.2c0,8.8-11,17.6-11,17.6l-22-19.9L476.5,310.7z"/>
			<path class="st1" d="M253.1,310.7c0,0-21.9,9.2-22,28.2c0,8.8,11,17.6,11,17.6l22-19.9L253.1,310.7z"/>
			<g>
				
					<rect x="265.6" y="267.7" transform="matrix(4.822904e-03 -1 1 4.822904e-03 26.5787 698.6946)" class="st8" width="197.4" height="136.5"/>
				
					<rect x="361" y="225.3" transform="matrix(4.822480e-03 -1 1 4.822480e-03 107.309 619.1089)" class="st9" width="7.4" height="60.6"/>
				
					<rect x="326.8" y="251" transform="matrix(4.848920e-03 -1 1 4.848920e-03 57.4375 598.597)" class="st9" width="5.3" height="38.9"/>
				
					<rect x="358.7" y="240.7" transform="matrix(4.840846e-03 -1 1 4.840846e-03 78.9347 638.9778)" class="st9" width="3.7" height="78.2"/>
				
					<rect x="341.2" y="265.5" transform="matrix(4.793307e-03 -1 1 4.793307e-03 54.1688 628.8775)" class="st9" width="3.7" height="43.5"/>
				
					<rect x="341.2" y="273.1" transform="matrix(4.822247e-03 -1 1 4.822247e-03 46.4738 636.4587)" class="st9" width="3.7" height="43.5"/>
				
					<rect x="326.7" y="288.6" transform="matrix(4.802803e-03 -1 1 4.802803e-03 19.6956 635.9641)" class="st9" width="5.3" height="38.9"/>
				
					<rect x="358.4" y="278.5" transform="matrix(4.833462e-03 -1 1 4.833462e-03 40.982 676.3318)" class="st9" width="3.7" height="78.2"/>
				
					<rect x="341.1" y="303.2" transform="matrix(4.848281e-03 -1 1 4.848281e-03 16.2936 666.3148)" class="st9" width="3.7" height="43.5"/>
				
					<rect x="341" y="310.9" transform="matrix(4.819698e-03 -1 1 4.819698e-03 8.6186 673.915)" class="st9" width="3.7" height="43.5"/>
				
					<rect x="326.4" y="328.6" transform="matrix(4.834093e-03 -1 1 4.834093e-03 -20.5606 675.476)" class="st9" width="5.3" height="38.9"/>
				
					<rect x="358.3" y="318.5" transform="matrix(4.813957e-03 -1 1 4.813957e-03 0.8393 715.9615)" class="st9" width="3.7" height="78.2"/>
				
					<rect x="340.8" y="343.2" transform="matrix(4.833070e-03 -1 1 4.833070e-03 -23.9479 705.8418)" class="st9" width="3.7" height="43.5"/>
				
					<rect x="340.8" y="350.9" transform="matrix(4.819698e-03 -1 1 4.819698e-03 -31.6298 713.4352)" class="st9" width="3.7" height="43.5"/>
				
					<rect x="326.3" y="367.9" transform="matrix(4.844416e-03 -1 1 4.844416e-03 -59.9137 714.4046)" class="st9" width="5.3" height="38.9"/>
				
					<rect x="340.7" y="374.9" transform="matrix(4.844039e-03 -1 1 4.844039e-03 -55.8181 737.2767)" class="st9" width="3.7" height="43.5"/>
				
					<rect x="340.7" y="382.3" transform="matrix(4.832963e-03 -1 1 4.832963e-03 -63.1985 744.6737)" class="st9" width="3.7" height="43.5"/>
				
					<rect x="340.7" y="390.1" transform="matrix(4.835026e-03 -1 1 4.835026e-03 -70.9855 752.3621)" class="st9" width="3.7" height="43.5"/>
				<g>
					<g>
						<g>
							<path class="st10" d="M417.4,377.5c-1.8-8.4-15.5-7.1-21.3-5.2c-8.9,2.9-16.3,9.8-20.3,18.2c-3.2,6.8-4.1,15.2,2.1,20.7
								c7.6,6.7,21.2,4.5,28.7-1.1c9.3-7,19.2-22.1,11.4-33.2c-1-1.5-3.4-0.1-2.4,1.4c4.5,6.4,2.2,13.3-1.8,19.4
								c-3.6,5.4-7.9,11-14.3,13c-9.2,2.9-24.3,2.4-23.5-11c0.5-7.9,6.2-15.7,12.4-20.3c3.6-2.7,7.8-4.6,12.2-5.4
								c3.9-0.7,13-1,14.2,4.2C415.1,380,417.7,379.3,417.4,377.5L417.4,377.5z"/>
						</g>
					</g>
				</g>
			</g>
			<g>
				<path class="st0" d="M314.1,332.7c0.6,2.3-1.2,5.1-3.3,6.2c-1.5,0.9-7.1,0-7.1,0s-4.7,5-6.1,5.6c-2.7,1.2-10.2-0.4-10.2-0.4
					s-0.6,5.5-1.8,6.8c-0.8,0.8-4.3,1.3-4.3,1.3s1.1,5.9,0,7.3c-3.8,5.2-18.4,4-24.7,2.8c-5.1-1-15.2-3.3-16-8.5
					c-0.3-1.8,3.9-6.3,3.9-6.3s-4-6.2-3.9-8.6c0-2.2,3.9-7.9,3.9-7.9s-1.9-4.6-1.3-6c0.9-2.3,8.4-5.5,8.4-5.5s-0.7-7,1.3-8.8
					c3.7-3.3,19.9-1.7,19.9-1.7l26.5,11.6C299.4,320.7,312.8,327.8,314.1,332.7z"/>
				<polygon class="st1" points="303.8,338.9 289.5,329.3 269.7,325.3 269.7,321 289.8,326.2 308.6,339.3 				"/>
				<polygon class="st1" points="292.6,344.8 287.6,344.1 278.8,339.3 257.6,336.6 258.4,333.6 278.6,335.5 285.8,338.3 				"/>
				<polygon class="st1" points="281.4,352.2 273.1,349.4 256.8,348.2 250.4,348.2 251.4,352.2 258.4,352.2 273.1,353 281.9,355.6 
									"/>
			</g>
			<g>
				<g>
					<path class="st11" d="M288.5,136.4c3.5,12.5,10.6,17.1,17,14.1s9.6-12.5,6.1-25s-8.7-25.1-18.8-20.4
						C283.5,109.4,285,123.8,288.5,136.4z"/>
				</g>
				<g>
					<path class="st6" d="M295.9,134.5c1.8,6.6,5.5,8.9,8.9,7.4c3.3-1.6-1.3-26.2-6.6-23.7C293.3,120.4,294.1,127.9,295.9,134.5z"/>
				</g>
				<g>
					<path class="st11" d="M431.7,135.5c-3.5,12.6-10.6,17.1-17,14.1s-9.6-12.5-6.1-25s8.7-25.1,18.8-20.4
						C436.6,108.5,435.2,122.9,431.7,135.5z"/>
				</g>
				<g>
					<path class="st6" d="M424.3,133.6c-1.8,6.6-5.5,8.9-8.9,7.4c-3.3-1.6,1.3-26.2,6.6-23.7C426.9,119.5,426.1,127,424.3,133.6z"/>
				</g>
				<g>
					<path class="st11" d="M299.1,124.2c0,30.5,27,71.2,61.5,71.2c37.8,0,61.5-42.9,61.5-71.2c0-60.9-8.7-88.4-62.1-88.4
						C310.5,35.8,299.1,63.3,299.1,124.2z"/>
				</g>
				<g>
					<path class="st6" d="M347.1,99.7c-2.8-4.1-9.1-4.9-13.5-4.3c-6.6,0.9-18.1-0.1-21.8,6.6c-3.2,5.9-0.5,13,1.8,15
						c5.6,4.9,24.3,0.9,30,0.9C345.5,117.8,354.6,110.7,347.1,99.7z"/>
				</g>
				<g>
					<path class="st8" d="M340.4,112.7c-8.8-7.5-24.8-0.4-26.6,4.3c-0.8,2,8.7,12,21.2,8.3C342.2,123,347,118.3,340.4,112.7z"/>
				</g>
				<g>
					<path class="st7" d="M339.3,113.2c2.8,1.4,3.9,3,4.3,4.6c2.3-2.3-2.7-11.5-7.4-12.8c-20.1-5.4-23.7,10.3-22.6,11.9
						C318,113.3,327.7,107.7,339.3,113.2z"/>
				</g>
				<g>
					<path class="st12" d="M322.4,117.8c0,3.4,2.9,6.2,6.4,6.2s6.4-2.8,6.4-6.2c0-3.4-2.9-6.2-6.4-6.2
						C325.3,111.7,322.4,114.4,322.4,117.8z"/>
				</g>
				<g>
					<path class="st13" d="M326,117.8c0,1.5,1.3,2.7,2.8,2.7s2.8-1.2,2.8-2.7s-1.2-2.7-2.8-2.7C327.3,115.1,326,116.3,326,117.8z"/>
				</g>
				<g>
					<path class="st14" d="M386.9,151.2c-25.5,10.6-51.6,0.9-51.6,0.9"/>
				</g>
				<g>
					<path class="st15" d="M360.2,172.1c-4.8-0.5-7-2.4-6.5-4.9c0.2-1.1,4.9,0.6,8.6,0.7c5.4,0.1,9.2-2.1,8.7,0.1
						C370.3,171.7,365.7,172.7,360.2,172.1z"/>
				</g>
				<g>
					<path class="st15" d="M343.5,119.1c-0.4,0-0.7-0.1-1-0.4c-12-13.5-28-1.6-28.7-1.1c-0.6,0.4-1.4,0.3-1.8-0.2
						c-0.4-0.6-0.3-1.4,0.2-1.8c0.2-0.1,18.6-13.9,32.1,1.4c0.5,0.5,0.4,1.3-0.1,1.8C344.2,119,343.9,119.1,343.5,119.1z"/>
				</g>
				<g>
					<path class="st6" d="M407.6,102.2c-2.1-4.4-8.9-6.1-13.3-6.2c-6.6-0.1-18.3-2.3-22.9,3.7c-4,5.3-1.9,12.2-0.1,14.6
						c5.9,8,22.9,3.5,28.5,4.4C401.7,119.1,413.4,114.2,407.6,102.2z"/>
				</g>
				<g>
					<path class="st8" d="M377.4,112.7c8.8-7.5,24.8-0.4,26.6,4.3c0.8,2-7.1,11.7-21.2,8.3C375.5,123.4,370.8,118.3,377.4,112.7z"/>
				</g>
				<g>
					<path class="st7" d="M378.6,113.2c-2.8,1.4-3.9,3-4.3,4.6c-2.3-2.3,3.7-12.4,8.5-13.3c17.9-3.2,22.6,10.8,21.5,12.4
						C399.8,113.3,390.1,107.7,378.6,113.2z"/>
				</g>
				<g>
					<path class="st16" d="M387.5,89.9c11.7,0,16.5,2.8,19.6,6.3c3.7,4.3-1.6,5.3-3,4.9c-6.2-2-6.8-3.6-16.2-4.2
						c-7.9-0.5-13.5,3.7-16,2.9C368.9,98.8,372,89.8,387.5,89.9z"/>
				</g>
				<g>
					<path class="st16" d="M331.7,89.9c-11.7,0-16.5,2.8-19.6,6.3c-3.7,4.3,1.6,5.3,3,4.9c6.2-2,6.8-3.6,16.2-4.2
						c7.9-0.5,13.5,3.7,16,2.9C350.3,98.8,347.2,89.8,331.7,89.9z"/>
				</g>
				<g>
					<path class="st16" d="M298.7,122.1c-3.4-10.5-7.1-47.3-5.1-58.1c1.6-8.7,1.5-24.5,8.2-30.3c15.5-13.4,106.6-26.5,116.3-4.6
						c4.9,11,8.1,23.6,9.1,35.9c1,11.6-0.7,44.5-4.1,55.6c-1.4,4.6-1.2,4.7-1.2,3.8c-0.1-10.7-2.1-22.7-5.3-29.3
						c-1.4-2.8-2.8-5.9-4.4-8.6c-5.7-9.5,5-21.9-16.6-33.5c-7.3-3.9-17,4.2-36.3,4.9c-17.3,0.6-25.9-11.6-42.1-2.1
						c-16.7,9.8-4.6,23.3-9.5,32.3c-1.3,2.4-3.3,3.5-4.6,5.9c-3.3,6.2-3.4,20.6-4.1,28.3L298.7,122.1z"/>
				</g>
				<g>
					<path class="st7" d="M361.6,133.9C361.5,133.9,361.5,133.9,361.6,133.9c-0.1,0-0.1,0-0.1,0S361.5,133.9,361.6,133.9z"/>
					<path class="st7" d="M361.2,135.5c-4.2,0-7.9-0.6-10.2-1.5c-0.2,0.5-0.3,1-0.3,1.5c0,3.8,4.8,6.9,10.8,6.9s10.8-3.1,10.8-6.9
						c0-0.6-0.1-1.1-0.4-1.7C369.7,134.8,365.7,135.5,361.2,135.5z"/>
				</g>
				<g>
					<path class="st12" d="M382.7,117.8c0,3.4,2.9,6.2,6.4,6.2s6.4-2.8,6.4-6.2c0-3.4-2.9-6.2-6.4-6.2
						C385.6,111.7,382.7,114.4,382.7,117.8z"/>
				</g>
				<g>
					<path class="st13" d="M386.3,117.8c0,1.5,1.3,2.7,2.8,2.7s2.8-1.2,2.8-2.7s-1.2-2.7-2.8-2.7
						C387.6,115.1,386.3,116.3,386.3,117.8z"/>
				</g>
				<g>
					<path class="st15" d="M374.3,119.1c-0.3,0-0.6-0.1-0.9-0.3c-0.5-0.5-0.6-1.3-0.1-1.8c13.6-15.3,32-1.5,32.2-1.4
						c0.6,0.4,0.7,1.2,0.2,1.8c-0.4,0.6-1.2,0.7-1.8,0.2c-0.7-0.5-16.7-12.4-28.7,1.1C375,119,374.6,119.1,374.3,119.1z"/>
				</g>
				<path class="st8" d="M390.3,116.2c0,0.6,0.5,1,1,1c0.6,0,1-0.5,1-1c0-0.6-0.5-1-1-1C390.8,115.1,390.3,115.6,390.3,116.2z"/>
				<path class="st8" d="M330.2,116.2c0,0.6,0.5,1,1,1c0.6,0,1-0.5,1-1c0-0.6-0.5-1-1-1C330.6,115.1,330.2,115.6,330.2,116.2z"/>
			</g>
			<g>
				<path class="st17" d="M419.3,36.5c0,20.2-25.8,36.5-57.5,36.5c-31.8,0-57.5-16.4-57.5-36.5C304.2,16.4,330,0,361.8,0
					C393.5,0,419.3,16.4,419.3,36.5z"/>
				<path class="st16" d="M357.6,76c18.9,0,50.1-11.5,60.6-20.4c-9.6,4.6-36,13-49,13.1c-11.3,0-24-10.1-37.8-22
					c-18.2-15.7-31.3-19.2-31.3-7.2C300.1,59.6,325.8,76,357.6,76z"/>
				<path class="st16" d="M385,66.6l23.7-6c4.3-3.1,7.2-1.1,9.4-5c5.5-3.3,1.2-24.2,1.2-21.3c0,8.6-6.5,10.5-6.5,10.5
					c0.4-1.6,0.6-3.3,0.6-5c0-18.2-24.2-33-54.1-33c-17.8,0-33.5,5.2-43.4,13.3c9-4.2,20.3-6.6,32.5-6.6c29.9,0,54.4,15,55,33.2
					c0.2,5.5-4.1,10.3-4.1,9.9c0-18.2-24.2-33-54.1-33c-17.8,0-33.5,5.2-43.4,13.3c9-4.2,20.3-6.6,32.5-6.6
					C363,30.2,383.2,49.4,385,66.6z"/>
			</g>
		</g>
		<polygon class="st18" points="761,629.3 0,629.3 69.4,576.1 668.1,576.1 		"/>
		<path class="st19" d="M448.9,576.2c1.8,1.8,8.7,8.8,33.9,7.3s50.7-7.3,51.6-7.3C535.3,576.2,448.9,576.2,448.9,576.2z"/>
		<path class="st19" d="M94.5,585.7l96.4-9.9h107.9c0,0,14.9,9.7,38.2,9.7c23.3,0,63.8-9.7,63.8-9.7H108L94.5,585.7z"/>
		<g>
			<g>
				<g>
					<path class="st0" d="M216.7,435.6c0,0,0,20.5,33.4,20.5c35.6,0,33.7-20.5,33.7-20.5v-56.8h-67.1L216.7,435.6L216.7,435.6z"/>
					<path class="st20" d="M219.8,389.8c-0.6,4.6-0.3,16,1.5,20s23,39.6,23,39.6l16.9-27l7.1-1.2l-22.7,36.5l-16.6-7.1l-23.9-51
						l13.2-15L219.8,389.8z"/>
				</g>
				<g>
					<path class="st20" d="M217.1,378.5c0,13.2,15.1,33.9,31.5,42.7c26,13.9,35.2,0.8,35.2,0.8s0.4-42.2,0.4-47.7
						c0-13.2-15-23.8-33.4-23.8C232.2,350.5,217.1,365.4,217.1,378.5z"/>
				</g>
			</g>
			<polygon class="st21" points="196.9,410.2 217.8,430.6 243.8,453.7 262.3,438.7 282,421.2 304.5,427.5 296.7,576.1 163.7,576.1 
							"/>
			<g class="st22">
				<path class="st23" d="M242.6,575.8h-3.7V574c0-12.4,2.7-111.8,3-119l-1.7-2.9l3.6,1.6l3.8-2.1l-2,3.6c-0.3,7.1-3,106.4-3,118.8
					L242.6,575.8L242.6,575.8z"/>
			</g>
			<path class="st24" d="M210.5,445.7l33.3,8.1l-26-23.2l-14.2-13.9l-7.4-2.9L163.7,576h116.2v-5.8c-46,0-81-7.7-81-7.7
				c2.8-22.1,3.7-84.1,4-94.8C203.2,457,210.5,445.7,210.5,445.7z"/>
			<path class="st24" d="M243.8,453.7c7.6-3.4,29.7-9.6,37.3-10.3c7.6-0.7,10.6-24.9,10.6-24.9L253,441.1L243.8,453.7z"/>
			<polygon class="st25" points="277.3,552.3 278.7,576.1 353.9,576.1 353.9,545.4 			"/>
			<path class="st26" d="M213.1,390.5c0.5-5-53.1,20.9-66.3,33.2c-24.9,23-70.4,111.1-70.4,111.1s1.8,9.7-16,7.8
				c-9.1-0.9-17.7-12.4-17.7-12.4s-6.7,6.4,14.6,27.1c2.1,2.1,3.9,6.3,6.3,8.1c1.4,1.1,4.6,2.7,5.6,4.1c1,1.3,0.9,6.6,0.9,6.6h72
				l9.4-8.1l2.2,8.1h27.8c0,0,10.8-50.9,12.8-67.9c3.2-26.4,5.6-79.9,13.1-105.4C208.5,399.5,212.8,393.9,213.1,390.5z"/>
			<path class="st27" d="M220,379.9c-5.4-5.7-15.5,9.1-21.9,20.6c-6.8,12.2-7.9,18.6-7.9,18.6s15.2,4.5,22.9,9
				c1.8,1.1-4.4,6.9-1.4,8.8c8.3,5.2,32,16.8,32,16.8s-26.9-36.6-26-50.1C218.3,397.3,221.9,381.9,220,379.9z"/>
			<path class="st25" d="M248.5,470c-4.5-4.8-18.4,7.9-23.1,12.4c-2.7,2.7-10.1,10.4-7.6,13.2c3.6,4.1,20.2-8.3,20.2-8.3
				S252,473.7,248.5,470z"/>
			<path class="st26" d="M302.6,392.5c0,0,33.5,12.8,42.3,19.3c6.4,4.7,18.4,16.3,21,23.8c3.8,11.2-1.9,35.5-2.2,47.4
				c-0.3,11.2,0.7,34-1.9,44.9c-3.5,14.8-13.3,46-26.3,53.8c-2.7,1.6-9.5,0.8-12.5,0c-18.7-5.2-53.1-27.2-68.2-39.4
				c-6.9-5.6-17.2-19.5-22.5-26.6c-1.3-1.7-4.1-5.7-5.3-7.5c-2.3-3.3-9.1-12.5-9.1-12.5s11.6-3.8,22.5-14.1
				c2.4-2.3,8.1-11.6,8.1-11.6l30.3,27.8c0,0-1.5-44.1,2.2-58.2C284.4,427,302.6,392.5,302.6,392.5z"/>
			<path class="st25" d="M314.4,505.2c-4.2-6.1-0.5-21.3,4.5-27.3c4.4-5.4,28.3-15.8,22.5-16.3c-4.8-0.4-15.4,7.5-18.8,4.1
				c-4.6-4.8,2.1-18.5,4.4-24.7c1.4-4.1,14.9-22.4,9.4-19.4c-3.8,2-8.6,9.9-11.1,13.5c-4.9,7-8.8,25.6-11.3,33.8
				c-5.7,19.2-6.2,35.8-10.4,35.2c-3.9-0.6-3.6-0.9-7.9-2.4c-5.3-1.8-4.6-22.7-6.3-28.5c-1.9-6.3,2.1,21.1-2.9,24.4
				c-1.6,1-7.4-1.6-7.4-1.6l-0.4,1.9c0,0,45.8,21,50.1,23.8c11.1,7.4,10.1,12,14.4,11.2C348.2,532,320.2,513.6,314.4,505.2z"/>
			<path class="st27" d="M281.7,372.1c0,0,1.9,19.5,0,25.7c-2.9,9.4-17.5,27.4-22.8,35.7c-3.7,5.7-15,20.3-15,20.3
				s20.3-12.2,31.6-14.7c3-0.7,1.9-8.4,4.4-10.3c5.7-4.4,29.4-5.9,29.4-5.9s0.7-15-4.7-26.3C290.3,366.5,281.7,372.1,281.7,372.1z"
				/>
			<path class="st21" d="M299.3,386.6c-1.9-3.1-4.2-6.4-7.1-9.8c-6.7-7.2-10.6-4.7-10.6-4.7s1.9,19.5,0,25.7
				c-2.2,7.3-11.4,19.6-18,28.7c7.1-5.8,30.6-19.4,44.5-16.6c0,0-0.4-6-4.4-14.8C302.2,391.8,300.7,389,299.3,386.6z"/>
			<path class="st25" d="M181.5,576.1h-27.8l-2.2-8.1l-9.4,8.1H84.9c0,0-32.9-41.9-12.9-34.1c1.3,0.5,3.8-3.8,3.8-3.8
				s34.4-2.4,61.6-30.6c24.1-25,36.6-72.3,42.1-70.6c3.9,1.2,7.6,111.9,7.6,111.9L181.5,576.1z"/>
			<g>
				
					<rect x="59.5" y="402.2" transform="matrix(0.9295 -0.3689 0.3689 0.9295 -171.0613 77.6573)" class="st8" width="116.1" height="168"/>
				
					<rect x="66.5" y="419.5" transform="matrix(0.9295 -0.3689 0.3689 0.9295 -149.4039 63.8603)" class="st9" width="51.6" height="6.3"/>
				
					<rect x="52.7" y="443.2" transform="matrix(0.9295 -0.3689 0.3689 0.9295 -159.4326 56.9691)" class="st9" width="33.1" height="4.5"/>
				
					<rect x="63.4" y="441.5" transform="matrix(0.9295 -0.3689 0.3689 0.9295 -156.6377 66.911)" class="st9" width="66.5" height="3.2"/>
				
					<rect x="66.8" y="452.8" transform="matrix(0.9295 -0.3689 0.3689 0.9295 -161.6093 63.5134)" class="st9" width="37" height="3.2"/>
				
					<rect x="69.2" y="458.9" transform="matrix(0.9295 -0.3689 0.3689 0.9295 -163.6859 64.8378)" class="st9" width="37" height="3.2"/>
				
					<rect x="64.5" y="473" transform="matrix(0.9295 -0.3689 0.3689 0.9295 -169.6037 63.4181)" class="st9" width="33.1" height="4.5"/>
				
					<rect x="75.2" y="471.3" transform="matrix(0.9295 -0.3689 0.3689 0.9295 -166.8056 73.3635)" class="st9" width="66.5" height="3.2"/>
				
					<rect x="78.6" y="482.6" transform="matrix(0.9295 -0.3689 0.3689 0.9295 -171.7724 69.9711)" class="st9" width="37" height="3.2"/>
				
					<rect x="81" y="488.7" transform="matrix(0.9295 -0.3689 0.3689 0.9295 -173.8563 71.2876)" class="st9" width="37" height="3.2"/>
				
					<rect x="77" y="504.6" transform="matrix(0.9295 -0.3689 0.3689 0.9295 -180.3876 70.2569)" class="st9" width="33.1" height="4.5"/>
				
					<rect x="87.8" y="502.9" transform="matrix(0.9295 -0.3689 0.3689 0.9295 -177.5716 80.2323)" class="st9" width="66.5" height="3.2"/>
				
					<rect x="91.1" y="514.3" transform="matrix(0.9295 -0.3689 0.3689 0.9295 -182.5865 76.8318)" class="st9" width="37" height="3.2"/>
				
					<rect x="93.6" y="520.3" transform="matrix(0.9295 -0.3689 0.3689 0.9295 -184.6153 78.1633)" class="st9" width="37" height="3.2"/>
				
					<rect x="89.4" y="535.6" transform="matrix(0.9295 -0.3689 0.3689 0.9295 -190.9388 77.0099)" class="st9" width="33.1" height="4.5"/>
				
					<rect x="101.1" y="539.4" transform="matrix(0.9295 -0.3689 0.3689 0.9295 -191.1423 82.2821)" class="st9" width="37" height="3.2"/>
				
					<rect x="103.5" y="545.3" transform="matrix(0.9295 -0.3689 0.3689 0.9295 -193.1403 83.5821)" class="st9" width="37" height="3.2"/>
				
					<rect x="105.9" y="551.4" transform="matrix(0.9295 -0.3689 0.3689 0.9295 -195.2213 84.9019)" class="st9" width="37" height="3.2"/>
				<g>
					<g>
						<g>
							<path class="st10" d="M172.7,502.2c-6-8.5-19.8,2.6-23.5,8c-4.8,6.9-7.9,18.5-3.1,26.1c6.6,10.5,21.6,4.2,27.4-3.8
								c6.1-8.3,9.3-24.8-0.8-31.3c-1.3-0.8-2.5,1.2-1.2,2c8.7,5.6,5.1,20.5,0.2,27.6c-5.1,7.3-19.8,13.8-24.5,2.6
								c-2.5-5.9-0.6-13.6,2.2-19.1c1.8-3.4,4.2-6.4,7.3-8.7c2.8-2.1,10.9-6.6,13.9-2.3C171.5,504.6,173.6,503.5,172.7,502.2
								L172.7,502.2z"/>
						</g>
					</g>
				</g>
			</g>
			<g>
				<path class="st0" d="M75.8,538.2c0,0-3.9-13.1-8.8-17.6c-2.2-2-2.3-6.6-2.2-8.4c0.2-2.2,4.2-6.5,5.2-8.4
					c4.3-7.9-1.3-7.3-1.3-7.3l-7.2,4.2l-6.1,7.1l-2.5,6.7l-1.8-2.5l2.1-6.8l11.3-12c0,0,7.3-0.9,8.5-2.8c0.8-1.3,0.1-5.1,0.1-5.1
					l-6.3-2.5c0,0,6.4-1.1,7.2-2.6c0.7-1.3-0.1-5.9-0.1-5.9l-5-1l-0.5-4.4l-13.7,2L39.4,482c0,0-11.4,16.1-11.2,22
					c0.1,1.9,3.6,5.4,3.6,5.4s-0.5,6.1,0.5,7.8c0.9,1.6,6.2,4,6.2,4l4.3,10.6c0,0,5.6,9.1,18.1,10.9
					C74.5,544.6,75.8,538.2,75.8,538.2z"/>
				<polygon class="st1" points="73,485.5 61.7,486.1 47.7,496.3 42.3,507.6 40.3,505.8 46.7,492.6 60.3,483.9 66.7,483 				"/>
				<polygon class="st1" points="73.8,474.5 61.1,476.6 42.4,486.5 36.1,499.4 34.4,497.7 41.5,483.7 60.1,474.5 69.3,473.5 				"/>
			</g>
			<g>
				<path class="st0" d="M244.4,476.4c0,0-16.1-13.9-20.8-19.2c-5.5-6.3-21.6-22.2-27.9-27.8c-1.6-1.4-4.9-1.1-4.9-1.1
					s-19.4,0.1-24.2,3.9c-0.6,0.5-1.2,3-1.2,3l1.9-1.5l-10.7,15.9c0,0-1.8,11.2-1.6,12.5c0.7,3.3,5.9,1.9,5.9,1.9l0.3,4.7
					c0,0,4.3,1.3,6-1.5c1-1.6,0.5-5.3,0.9-6.3l11-7.4l1.6,0.2l-9.1,10.3l-2.8,5.3c0,0,2.9,2.5,4.1,2.5c3-0.1,9.7-6.9,9.7-6.9
					s8.7-1.1,11.3,0c2.6,1.2,6.2,6.1,7.8,8.4c1.5,2.2,2.8,6.7,4.9,8.2c2.8,2.1,11.4,5.1,11.4,5.1l5.8,6.4c0,0,5.6-2.1,12-7.4
					C242.5,480.1,244.4,476.4,244.4,476.4z"/>
				<polygon class="st1" points="160.9,464.1 162.8,455.9 175.6,442.3 191.4,442.3 191.4,440 173.9,440 160.9,453.7 158.6,464.1 
									"/>
				<path class="st1" d="M180.6,453.7l10.8-1.7l5.6-1.4v-1.9l-17,2.1l-12.6,7.6l-1.2,9.9c0,0,1.1-0.1,1.7-2.1c0.4-1.2,1-5,1-5
					L180.6,453.7z"/>
				<polygon class="st1" points="189.6,432.4 174.2,433.7 167.2,433.7 165,437 165.3,435.2 166.9,432.7 177.3,431.7 190.2,430.9 
									"/>
			</g>
			<g>
				<g>
					<path class="st0" d="M172.9,337.5c3.5,12.5,10.6,17.1,17,14.1s9.6-12.5,6.1-25s-8.7-25.1-18.8-20.4
						C168,310.6,169.4,325,172.9,337.5z"/>
				</g>
				<g>
					<path class="st1" d="M180.3,335.6c1.8,6.6,5.5,8.9,8.9,7.4c3.3-1.6-1.3-26.2-6.6-23.7C177.7,321.5,178.5,329,180.3,335.6z"/>
				</g>
				<g>
					<path class="st0" d="M320.6,336.6c-3.5,12.6-10.6,17.1-17,14.1s-9.6-12.5-6.1-25s8.7-25.1,18.8-20.4
						C325.5,309.7,324.1,324.1,320.6,336.6z"/>
				</g>
				<g>
					<path class="st1" d="M313.2,334.7c-1.8,6.6-5.5,8.9-8.9,7.4c-3.3-1.6,1.3-26.2,6.6-23.7C315.7,320.6,315,328.1,313.2,334.7z"/>
				</g>
				<g>
					<path class="st0" d="M185.7,327.5c0,30.5,27,71.2,61.5,71.2c37.8,0,61.5-42.9,61.5-71.2c0-60.9-8.7-128.3-62.1-128.3
						C197.2,199.3,185.7,266.6,185.7,327.5z"/>
				</g>
				<g>
					<path class="st1" d="M233.7,303.1c-2.8-4.1-9.1-4.9-13.5-4.3c-6.6,0.9-18.1-0.1-21.8,6.6c-3.2,5.9-0.5,13,1.8,15
						c5.6,4.9,24.3,0.9,30,0.9C232.1,321.2,241.2,314,233.7,303.1z"/>
				</g>
				<g>
					<path class="st8" d="M227,316c-8.8-7.5-24.8-0.4-26.6,4.3c-0.8,2,1.2,4.7,2.9,6c4.2,3.2,14.2,3.4,18.2,2.3
						C228.9,326.5,233.7,321.7,227,316z"/>
				</g>
				<g>
					<path class="st0" d="M225.9,316.6c2.8,1.4,3.9,3,4.3,4.6c2.3-2.3,0.5-10.2-3.5-13c-8.8-6.3-22.5-0.1-25,3.5
						c-1.4,2-2.6,7-1.5,8.7C204.6,316.6,214.3,311.1,225.9,316.6z"/>
				</g>
				<g>
					<path class="st28" d="M209.1,321.2c0,3.4,2.9,6.2,6.4,6.2s6.4-2.8,6.4-6.2c0-3.4-2.9-6.2-6.4-6.2
						C211.9,315,209.1,317.8,209.1,321.2z"/>
				</g>
				<g>
					<path class="st13" d="M212.7,321.2c0,1.5,1.2,2.7,2.8,2.7c1.5,0,2.8-1.2,2.8-2.7s-1.2-2.7-2.8-2.7S212.7,319.7,212.7,321.2z"/>
				</g>
				<g>
					<path class="st29" d="M220,354.5c7.7,21.7,53,17.2,53.5,0H220z"/>
				</g>
				<g>
					<path class="st1" d="M245,380.2c-4.8-0.5-7-2.4-6.5-4.9c0.2-1.1,4.9,0.6,8.6,0.7c5.4,0.1,9.2-2.1,8.7,0.1
						C255,379.7,250.4,380.7,245,380.2z"/>
				</g>
				<g>
					<path class="st30" d="M230.2,322.5c-0.4,0-0.7-0.1-1-0.4c-12-13.5-28-1.6-28.7-1.1c-0.6,0.4-1.4,0.3-1.8-0.2
						c-0.4-0.6-0.3-1.4,0.2-1.8c0.2-0.1,18.6-13.9,32.1,1.4c0.5,0.5,0.4,1.3-0.1,1.8C230.8,322.4,230.5,322.5,230.2,322.5z"/>
				</g>
				<g>
					<path class="st1" d="M294.2,305.6c-2.1-4.4-8.9-6.1-13.3-6.2c-6.6-0.1-18.3-2.3-22.9,3.7c-4,5.3-1.9,12.2-0.1,14.6
						c5.9,8,22.9,3.5,28.5,4.4C288.4,322.4,300,317.5,294.2,305.6z"/>
				</g>
				<g>
					<path class="st8" d="M264.1,316c8.8-7.5,24.8-0.4,26.6,4.3c0.8,2-1.2,4.7-2.9,6c-4.2,3.2-14.2,3.4-18.3,2.3
						C262.2,326.5,257.4,321.7,264.1,316z"/>
				</g>
				<g>
					<path class="st0" d="M265.2,316.6c-2.8,1.4-3.9,3-4.3,4.6c-2.3-2.3-0.5-10.2,3.5-13c8.8-6.3,22.5-0.1,25,3.5
						c1.4,2,2.6,7,1.5,8.7C286.4,316.6,276.8,311.1,265.2,316.6z"/>
				</g>
				<g>
					<path class="st3" d="M271.6,292.5c25.9,0.1,24,15.9,24,15.9c-7.9-5.3-11.6-6.6-21.1-7.2c-7.9-0.5-13.5,3.7-16,2.9
						C255.6,303.1,256.1,292.4,271.6,292.5z"/>
				</g>
				<g>
					<path class="st3" d="M221.1,292.5c-25.9,0.1-24,15.9-24,15.9c7.9-5.3,11.6-6.6,21.1-7.2c7.9-0.5,13.5,3.7,16,2.9
						C237.1,303.1,236.6,292.4,221.1,292.5z"/>
				</g>
				<g>
					<path class="st30" d="M258.6,189.9c-8.4-5.4-19.2-5.1-27.4,0.7c-9.4,6.7-21.8,15.7-30.2,23c-6.7,5.8-19.1,20.2-20.7,28.9
						c-2,10.8,0.4,72.1,3.8,82.6c1.4,4.2,0.7,2.3,1.7,0.4c3.3-6.2,0.7-21.8,4-28c1.3-2.4,3.3-3.5,4.6-5.9c4.9-9-7.3-22.5,9.5-32.3
						c16.2-9.5,24.8,2.6,42.1,2.1c19.3-0.6,29-8.8,36.3-4.9c21.6,11.6,10.9,24,16.6,33.5c1.6,2.7,3.1,5.8,4.4,8.6
						c3.2,6.6-0.9,23.6,3.7,29.3c1.6,2,1.4,0.7,2.8-3.9c3.4-11.1,5-68.9,4.1-80.5c-1-12.3-16.5-27.4-25.9-34.1
						C278,202.5,267.1,195.3,258.6,189.9z"/>
				</g>
				<g>
					<path class="st1" d="M248.2,337.2C248.2,337.2,248.1,337.2,248.2,337.2c-0.1,0-0.1,0-0.1,0
						C248.1,337.2,248.2,337.2,248.2,337.2z"/>
					<path class="st1" d="M247.8,338.9c-4.2,0-7.9-0.6-10.2-1.5c-0.2,0.5-0.2,1-0.2,1.5c0,3.8,4.8,6.9,10.8,6.9s10.8-3.1,10.8-6.9
						c0-0.6-0.1-1.1-0.4-1.7C256.3,338.2,252.4,338.9,247.8,338.9z"/>
				</g>
				<g>
					<path class="st28" d="M269.4,321.2c0,3.4,2.9,6.2,6.4,6.2s6.4-2.8,6.4-6.2c0-3.4-2.9-6.2-6.4-6.2
						C272.2,315,269.4,317.8,269.4,321.2z"/>
				</g>
				<g>
					<path class="st13" d="M273,321.2c0,1.5,1.3,2.7,2.8,2.7s2.8-1.2,2.8-2.7s-1.2-2.7-2.8-2.7S273,319.7,273,321.2z"/>
				</g>
				<g>
					<path class="st30" d="M260.9,322.5c-0.3,0-0.6-0.1-0.9-0.3c-0.5-0.5-0.6-1.3-0.1-1.8c13.6-15.3,32-1.5,32.2-1.4
						c0.6,0.4,0.7,1.2,0.2,1.8c-0.4,0.6-1.2,0.7-1.8,0.2c-0.7-0.5-16.7-12.4-28.7,1.1C261.6,322.3,261.3,322.5,260.9,322.5z"/>
				</g>
				<path class="st8" d="M277,319.5c0,0.6,0.5,1,1,1c0.6,0,1-0.5,1-1c0-0.6-0.5-1-1-1C277.4,318.5,277,318.9,277,319.5z"/>
				<path class="st8" d="M216.8,319.5c0,0.6,0.5,1,1,1c0.6,0,1-0.5,1-1c0-0.6-0.5-1-1-1C217.2,318.5,216.8,318.9,216.8,319.5z"/>
			</g>
		</g>
		<g>
			<path class="st31" d="M555.7,329.5c7.8,5.1,20.7,40.1,15.2,80.6s-147.8,18.9-153.3,7.8s2.8-72.3,16.1-98.5
				C447,293.1,547.9,324.4,555.7,329.5z"/>
			<polygon class="st32" points="421.4,518.3 436.9,576.1 458,576.1 			"/>
			<path class="st33" d="M454.2,396.6c-12.3,4.4-43.5,20-49.9,31.4c-6.2,11.1-2.6,34.4,0,46.8c4.8,22.7,24.6,65.6,37.2,85.1
				c3.4,5.2,10,16.5,15.4,19.5c3.9,2.2,13.4,2.9,17.8,2.1c3.4-0.6,12.9-5.4,12.9-5.4h128.9c0,0-4.2-21.4-6.8-29.3
				c-1.9-5.7-11.7-32.4-6.3-34.9c5.9-2.8,32.3,64.2,63,68.1c2.3,0.3,7.1,0.8,9.2,0c4-1.5,12.2-10.1,12.6-14.4c1.4-12.5-29-41-29-41
				s-51.7-87.7-77.2-109.3c-12.6-10.7-43.1-26.4-59.5-29C504.2,383.4,471.6,390.4,454.2,396.6z"/>
			<path class="st34" d="M442.4,406.6c-0.9-0.7-2.8-6.2-3.9-3.2c-1.2,3-7.4,40.3,5.8,41.2c8.7,0.6,14-4.7,17.2-2.1
				c3.2,2.5-2.2,4.8-1.1,8.9c1.2,4.1,28.7,6.3,38.5,25.6c0,0-12.5-27.7-25.3-43.2c-12.8-15.6-26.6-28.9-27.5-29.4
				C445.2,403.8,442.4,406.6,442.4,406.6z"/>
			<path class="st32" d="M513.8,473.4c-0.5-5.8,5.8-20.5,17-22.3c11.3-1.8,25.1-2.3,24.9-3c-0.2-0.7,6-17.5,5.5-20.7
				s-13.1-33.6-23.9-36.6c-10.8-3-11.5,34.5-12.2,35.5c-0.7,0.9-12,25.9-11.5,36.3s0.5,10.4,0.5,10.4"/>
			<path class="st32" d="M475.6,519.6c-2.3-13.6-12-41.4-18-48.3s18.4,23.5,26.7,45.6L475.6,519.6z"/>
			<path class="st32" d="M530.3,569.1c-3.7-15.7,0.5-20.4,12.5-29.2c12-8.7,34.5-29.9,37.8-43.3c3.2-13.4-14.7-29-14.7-29
				l-44.6,54.1L530.3,569.1z"/>
			<g>
				<g>
					<path class="st0" d="M454.9,399.5c0,0-3.8,41.3,32.5,41.3c38.7,0,36.6-19.2,36.6-19.2v-53.2l-64.9-9.2L454.9,399.5z"/>
					<path class="st20" d="M454.2,396.6c3.5,6.5,16.4,28.7,23.7,32.8c7.4,4.1,17,6,24.4,4.6s15.2-3.2,18.9-7.8
						c3.7-4.6-4.1,16.1-4.1,16.1l-37.8-0.5l-26.7-31.3L454.2,396.6z"/>
				</g>
				<g>
					<path class="st20" d="M457.4,378.8c0,12.3,16.1,33,29.4,41.3c21.1,13.1,35.1,8,35.1,8s0.3-44.2,0.3-49.4
						c0-12.3-12.2-22.3-27.2-22.3C480,356.3,457.4,366.5,457.4,378.8z"/>
				</g>
			</g>
			<path class="st8" d="M473.6,433.7c0,0,13.8,2.7,24.9,2.7c10.3,0,20.3-3.6,20.3-3.6l-4.9,24.7c0,0-0.8,9.8,0,17
				c2.8,25.3,17.8,101.7,17.8,101.7h-9c0,0-15.5-74.1-22.9-97.8c-1.8-5.7-8.7-22.3-8.7-22.3L473.6,433.7z"/>
			<path class="st35" d="M455.8,393.2c0,0,0.3,12.6,14.4,31.8c5.7,7.8,17.2,15.8,24.9,34.9c1,2.6,5.6,20,3.8,17
				c-4.9-8.1-13.2-16-17-18.6c-5.8-4.1-20.2-6.1-23-12.6c-0.7-1.7,3.2-5.5,2.1-6.9c-3.5-4.3-17.8,5.6-21.9,2
				c-8-6.8-0.5-37.4-0.5-37.4L455.8,393.2z"/>
			<path class="st35" d="M513.6,462.5c-0.2-6.6,4-25.6,5.5-32.3c2.6-11.5,3.6-33.8-0.2-45c-0.5-1.4-1.2-7.1-1.2-7.1
				s12.2,3.9,16.2,8.6c8.9,10.3,18.6,53.2,18.6,53.2s-13,0.8-18.8,2.8C518.1,448.2,513.7,466.9,513.6,462.5z"/>
			<path class="st36" d="M543.5,407.3c-1.3-3.9-2.7-7.6-4.1-11c-1.4-3.1-3.2-6.4-5.1-9.3c-0.1-0.2-0.2-0.3-0.4-0.5
				c-2.1-2.4-6.3-4.6-9.9-6.1c-1.9,0.6-3.8,2-5.5,3.6c0.1,0.4,0.2,0.8,0.3,1c3.6,10.7,2.9,31.6,0.5,43.5
				C527.3,411,542.7,407.3,543.5,407.3z"/>
			<g>
				<path class="st37" d="M431.9,340.8c-6.8-29.9-20.3-119.2,59.5-119.2s74.3,82.8,65.1,119.2H431.9z"/>
				<g>
					<path class="st0" d="M553.9,331.1c0,30.9-26.6,75.8-60.6,75.8c-37.3,0-60.6-47.2-60.6-75.8c0-61.7,8.5-89.6,61.2-89.6
						C542.6,241.6,553.9,269.4,553.9,331.1z"/>
					<path class="st0" d="M555.3,330.4c0.7-4.5,2.2-10.9,6.4-9.1s-3.7,44.7-10.8,31.6c-7.3-13.4-4.8-16.7-4.8-16.7l4.6-7.2
						L555.3,330.4z"/>
					<path class="st0" d="M431.6,330.4c-0.7-4.5-2.2-10.9-6.4-9.1c-4.2,1.8,3.7,44.7,10.8,31.6c7.3-13.4,4.8-16.7,4.8-16.7l-4.6-7.2
						L431.6,330.4z"/>
				</g>
				<g>
					<path class="st38" d="M517.7,361.7c0,9-12,15.5-23.6,15.1c-10.8-0.3-21.3-6.8-21.5-15.1H517.7z"/>
				</g>
				<g>
					<path class="st1" d="M497.4,387.7c4.8-0.5,7.1-2.4,6.5-5c-0.2-1.1-5,0.6-8.8,0.7c-5.5,0.1-9.3-2.2-8.8,0.1
						C487.2,387.2,491.8,388.2,497.4,387.7z"/>
				</g>
				<g>
					<path class="st1" d="M444.2,312.1c2.2-4.5,9-6.2,13.5-6.2c6.7-0.1,18.5-2.4,23.2,3.8c4.1,5.4,1.9,12.4,0.1,14.8
						c-6,8.1-23.2,3.6-28.9,4.4C450.2,329.2,438.4,324.2,444.2,312.1z"/>
				</g>
				<g>
					<path class="st8" d="M474.8,322.7c-9-7.6-25.1-0.4-27,4.4c-0.8,2.1,11.2,11.6,21.5,8.4C476.6,333,481.6,328.4,474.8,322.7z"/>
				</g>
				<g>
					<path class="st0" d="M473.7,323.3c2.9,1.4,3.9,3,4.4,4.6c2.3-2.3,0.8-6.9-4.3-11.5c-8.1-7.4-18.6-3.9-23,2.8
						c-1.3,2-4.2,6.2-3.1,7.9C452.1,323.3,462,317.7,473.7,323.3z"/>
				</g>
				<g>
					<path class="st39" d="M469.5,327.9c0,3.4-2.9,6.2-6.5,6.2s-6.5-2.8-6.5-6.2c0-3.4,2.9-6.2,6.5-6.2
						C466.5,321.7,469.5,324.5,469.5,327.9z"/>
				</g>
				<g>
					<path class="st13" d="M465.8,327.9c0,1.5-1.3,2.7-2.8,2.7c-1.6,0-2.8-1.2-2.8-2.7s1.3-2.7,2.8-2.7
						C464.5,325.2,465.8,326.4,465.8,327.9z"/>
				</g>
				<g>
					<path class="st40" d="M478,329.2c0.3,0,0.6-0.1,0.9-0.3c0.5-0.5,0.6-1.3,0.1-1.8c-13.7-15.5-32.4-1.6-32.6-1.4
						c-0.6,0.4-0.7,1.3-0.2,1.8c0.4,0.6,1.3,0.7,1.8,0.3c0.7-0.5,16.9-12.6,29,1.1C477.3,329.1,477.7,329.2,478,329.2z"/>
				</g>
				<path class="st40" d="M466.3,305.9c10.1,1.6,15.7,6.5,15.6,5.7c-0.2-4.7-5.2-9.1-14.8-10.6c-6.6-1.1-19.1,1.2-20.2,7.8
					C446.8,309.5,454.5,304,466.3,305.9z"/>
				<path class="st1" d="M485.4,342.4c0,2,0.8,3.3,2.1,4c4.3,2.5,10.7,2.4,12.9-1.9c1.7-3.5,0-9.4,0-15c0-4.7,1.5-13.2,4.7-16.6
					c6.6-7,17.9-7,17.9-7s-3.5,4.8-5,5.9c-2.2,1.6-8.1,2.4-10,4.3c-8.6,8.6-4.8,19.8-1.7,28c0.8,2-0.1,2.8-1.6,4.3
					c-4,3.8-13.4,5.8-20.4,1.6C479,346.7,485.4,340,485.4,342.4z"/>
				<path class="st8" d="M464.3,326.5c0,0.6,0.5,1.2,1.2,1.2c0.6,0,1.2-0.5,1.2-1.2c0-0.6-0.5-1.2-1.2-1.2
					C464.8,325.4,464.3,325.9,464.3,326.5z"/>
				<g>
					<path class="st1" d="M544,312.1c-2.2-4.5-9-6.2-13.5-6.2c-6.7-0.1-18.5-2.4-23.2,3.8c-4.1,5.4-1.9,12.4-0.1,14.8
						c6,8.1,23.2,3.6,28.9,4.4C538,329.2,549.9,324.2,544,312.1z"/>
				</g>
				<g>
					<path class="st8" d="M513.4,322.7c9-7.6,25.1-0.4,27,4.4c0.8,2.1-11.2,11.6-21.5,8.4C511.6,333,506.7,328.4,513.4,322.7z"/>
				</g>
				<g>
					<path class="st0" d="M514.6,323.3c-2.9,1.4-3.9,3-4.4,4.6c-2.3-2.3-0.8-6.9,4.3-11.5c8.1-7.4,18.6-3.9,23,2.8
						c1.3,2,4.2,6.2,3.1,7.9C536.1,323.3,526.3,317.7,514.6,323.3z"/>
				</g>
				<g>
					<path class="st39" d="M518.8,327.9c0,3.4,2.9,6.2,6.5,6.2s6.5-2.8,6.5-6.2c0-3.4-2.9-6.2-6.5-6.2
						C521.7,321.7,518.8,324.5,518.8,327.9z"/>
				</g>
				<g>
					<path class="st13" d="M522.4,327.9c0,1.5,1.3,2.7,2.8,2.7c1.6,0,2.8-1.2,2.8-2.7s-1.3-2.7-2.8-2.7
						C523.7,325.2,522.4,326.4,522.4,327.9z"/>
				</g>
				<g>
					<path class="st40" d="M510.2,329.2c-0.3,0-0.6-0.1-0.9-0.3c-0.5-0.5-0.6-1.3-0.1-1.8c13.7-15.5,32.4-1.6,32.6-1.4
						c0.6,0.4,0.7,1.3,0.2,1.8c-0.4,0.6-1.3,0.7-1.8,0.3c-0.7-0.5-16.9-12.6-29,1.1C510.9,329.1,510.6,329.2,510.2,329.2z"/>
				</g>
				<path class="st40" d="M521.9,305.9c-10.1,1.6-15.7,6.5-15.6,5.7c0.2-4.7,5.2-9.1,14.8-10.6c6.6-1.1,19.1,1.2,20.2,7.8
					C541.4,309.5,533.8,304,521.9,305.9z"/>
				<path class="st8" d="M523.9,326.5c0,0.6-0.5,1.2-1.2,1.2c-0.6,0-1.2-0.5-1.2-1.2c0-0.6,0.5-1.2,1.2-1.2
					C523.4,325.4,523.9,325.9,523.9,326.5z"/>
			</g>
			<path class="st32" d="M601.3,576.1h15.2c0,0-6.2-31.6-14.3-55.5c-0.9-2.7-1.9-11.4-1.9-11.4s0.4,3.9,2.2,6
				c7.1,8.2,24.2,28.8,29.9,38c10.4,16.6,19,23.1,28.7,26.8c2.7,1,11.9,1.2,14.5,0.1c9.6-4,16.7-16.6,16.7-16.6l-28.2-22.3l1.3-24.1
				l-72.9-64.3l-34.3,1c0,0,4.3,0.7,6.7,20.9c1.9,15.8,27.8,45.6,29,53.3C598.5,555.7,601.3,576.1,601.3,576.1z"/>
			<path class="st35" d="M672,526.9c0,0-1,19.5,3.5,23.3c3.6,3.1,14.9,2,19.2,0c4.4-2,6.1-13,10.8-16.4c3-2.2,0.7,12.7,0,16.4
				c-2,10.4-9,15.1-14.4,17.4c-5.1,2.1-16.7,1.2-21.3-1.8c-25.2-16.6-14-38.8-14-38.8H672V526.9z"/>
			<path class="st41" d="M653.8,557.1c0.1-0.4,0.2-0.8,0.3-1.2c2.1-6.3,10.8-16.2,16.6-14.7c0,0,0.3-8.6,2.1-12s-20.9-8.3-20.9-8.3
				L653.8,557.1z"/>
			<g>
				
					<rect x="549.6" y="378.2" transform="matrix(4.620507e-02 -0.9989 0.9989 4.620507e-02 170.062 1058.5715)" class="st8" width="179.6" height="124.1"/>
				
					<rect x="639.3" y="339.7" transform="matrix(4.623103e-02 -0.9989 0.9989 4.623103e-02 246.219 992.2914)" class="st9" width="6.8" height="55.1"/>
				
					<rect x="607.8" y="361.5" transform="matrix(4.627152e-02 -0.9989 0.9989 4.627152e-02 203.1631 971.274)" class="st9" width="4.8" height="35.4"/>
				
					<rect x="636.3" y="353.4" transform="matrix(4.623874e-02 -0.9989 0.9989 4.623874e-02 219.947 1008.2803)" class="st9" width="3.4" height="71.1"/>
				
					<rect x="620.2" y="375.2" transform="matrix(4.622831e-02 -0.9989 0.9989 4.622831e-02 198.5836 998.0549)" class="st9" width="3.4" height="39.6"/>
				
					<rect x="619.9" y="382.2" transform="matrix(4.621903e-02 -0.9989 0.9989 4.621903e-02 191.3301 1004.3928)" class="st9" width="3.4" height="39.6"/>
				
					<rect x="606.3" y="395.8" transform="matrix(4.621286e-02 -0.9989 0.9989 4.621286e-02 167.4377 1002.4408)" class="st9" width="4.8" height="35.4"/>
				
					<rect x="634.7" y="387.7" transform="matrix(4.622548e-02 -0.9989 0.9989 4.622548e-02 184.1995 1039.4283)" class="st9" width="3.4" height="71.1"/>
				
					<rect x="618.7" y="409.5" transform="matrix(4.620194e-02 -0.9989 0.9989 4.620194e-02 162.8401 1029.2109)" class="st9" width="3.4" height="39.6"/>
				
					<rect x="618.4" y="416.5" transform="matrix(4.622831e-02 -0.9989 0.9989 4.622831e-02 155.5685 1035.5299)" class="st9" width="3.4" height="39.6"/>
				
					<rect x="604.6" y="432.2" transform="matrix(4.625277e-02 -0.9989 0.9989 4.625277e-02 129.4881 1035.3792)" class="st9" width="4.8" height="35.4"/>
				
					<rect x="633" y="424" transform="matrix(4.621088e-02 -0.9989 0.9989 4.621088e-02 146.2779 1072.3927)" class="st9" width="3.4" height="71.1"/>
				
					<rect x="617" y="445.9" transform="matrix(4.622458e-02 -0.9989 0.9989 4.622458e-02 124.899 1062.1582)" class="st9" width="3.4" height="39.6"/>
				
					<rect x="616.7" y="452.8" transform="matrix(4.625484e-02 -0.9989 0.9989 4.625484e-02 117.624 1068.475)" class="st9" width="3.4" height="39.6"/>
				
					<rect x="603" y="467.8" transform="matrix(4.624473e-02 -0.9989 0.9989 4.624473e-02 92.4201 1067.7448)" class="st9" width="4.8" height="35.4"/>
				
					<rect x="615.7" y="474.7" transform="matrix(4.618626e-02 -0.9989 0.9989 4.618626e-02 94.8514 1088.3739)" class="st9" width="3.4" height="39.6"/>
				
					<rect x="615.4" y="481.5" transform="matrix(4.623208e-02 -0.9989 0.9989 4.623208e-02 87.8219 1094.5135)" class="st9" width="3.4" height="39.6"/>
				
					<rect x="615.1" y="488.4" transform="matrix(4.624030e-02 -0.9989 0.9989 4.624030e-02 80.559 1100.8438)" class="st9" width="3.4" height="39.6"/>
				<g>
					<g>
						<g>
							<path class="st10" d="M686.1,479.9c-0.9-4.5-6.5-6.2-10.5-6.5c-5.8-0.4-11.7,1.4-16.5,4.5c-7.3,4.7-14.7,13.9-14,23.1
								c1.1,13.2,17.6,14.1,27,9.8c5.7-2.6,10.2-8.2,13.5-13.4c3.6-5.8,4.9-12.1,1.1-18.1c-0.9-1.4-3-0.1-2.2,1.3
								c6.2,9.7-4.9,24.9-14.5,28.4c-8.5,3.1-23.2,2.3-22.4-10c0.4-6.9,5.6-13.5,10.9-17.6c3.5-2.7,7.5-4.5,11.9-5.2
								c3.8-0.6,12.3-0.8,13.3,4.3C684,482.1,686.4,481.5,686.1,479.9L686.1,479.9z"/>
						</g>
					</g>
				</g>
			</g>
			<g>
				<path class="st0" d="M705.8,536.7l14.4-44.2l12.6-19.2c0,0,6.1-14.2,5.3-19.5c-0.5-2.8-3.4-8.5-5.6-10.2
					c-0.9-0.7-4.1-1.8-4.1-1.8s-4.2-6.1-6-7.9c-0.8-0.8-3.8-2.8-3.8-2.8s0.1-10.6-1.6-13.5c-0.7-1.3-3.7-2.9-5.4-2.7
					c-4.4,0.6-11.3,12.4-11.3,12.4s-1.9,7.6-1.3,10c0.2,0.8,1.9,2.6,1.9,2.6l-4.4,16.7l3.5,5.7l-1.9,6l1.6,2.2l-2.5,62.3l-25.3-1.2
					c0,0-6.4,19.9,11.7,21.5C699.6,554.6,705.8,536.7,705.8,536.7z"/>
				<polygon class="st1" points="701,439.9 707.8,431.8 714.7,429.3 714.7,424.5 706.1,428.7 699.3,437.8 				"/>
				<polygon class="st1" points="700.1,462.3 705.2,452.5 711.6,442.2 720.7,441.2 718.6,438.8 709.6,439.9 702.8,450.6 
					698.2,459.3 				"/>
				<path class="st1" d="M699.7,470.5l-0.1,2.4l10.3,3.3c0,0,4.7-2.9,10.8-4.1c1.7-0.3,2.2-4.7,3.4-5.9c1.2-1.2,7.4-4,5.7-4
					c-2.2,0-4.9-3.9-4.9-3.9l-5.4,3.3c0,0-2.4,5.4-3.9,6.4c-1,0.7-4.9,0-4.9,0l0.1-5.8l3.9-6.2l6.6-5.5l-1.4-1.5l-6.2,4.1l-5.6,8.7
					c0,0-2,7-4.5,8.3c-0.9,0.5-4,0-4,0"/>
			</g>
			<polygon class="st32" points="513.8,536 522.7,576.1 484.3,576.1 			"/>
			<g>
				<path class="st0" d="M478.1,521.1c0,0,63.4-51.1,67.8-60.4c1.3-2.8-7.4-26.9-5.4-35.7c0.4-1.6,4-5.4,4-5.4s0.6-3.3,1.3-4.1
					c1.5-1.6,8.2-3,8.2-3s6.4-12.3,10.7-13.8c4.6-1.6,16.9,3.3,16.9,3.3l7.4,9.5c0,0-3.5,3.7-4.7,3.8c-1.6,0.2-6-2.8-6-2.8
					s3.9,11.6,4.2,16.1c0.2,2.8-1.3,13.1-1.3,13.1l-4.2,1.7c0,0-0.7,13.8-0.8,16.6c-0.1,4.7-5.6,13.9-8.4,17.7
					c-15.2,21.1-65.7,79.3-65.7,79.3l-16.7,9.6L478.1,521.1z"/>
				<path class="st20" d="M576.4,460.1c0.1-1.7,0.3-7.3,0.5-11.5c-0.3,0.7-0.8,1.6-0.9,2.9c-1.7,13.8-7.7,21.5-25.6,43.6
					c-18,22.1-41.1,55.1-55.6,51c-8.5-2.4-13.2-25-10.4-29.2l0.1-1c-3.9,3.2-6.4,5.2-6.4,5.2l7.4,45.6l16.7-9.6
					c0,0,50.6-58.2,65.7-79.3C570.7,474,576.2,464.9,576.4,460.1z"/>
				<path class="st1" d="M561.3,410.1c0,0,4-4.5,5.9-4.9c2.9-0.6,8.9,1.8,11.3,3.5c0.8,0.6,6.5,4.2,7.3,5.8l-1.7,1.1l-5.6-2.3
					c0,0-4.5-2.6-6.1-3C569.7,409.6,561.3,410.1,561.3,410.1z"/>
				<polygon class="st1" points="577.1,443.5 577.3,435 575,423.3 571.2,416.8 558.2,415.3 561.3,413.9 572.2,415.6 577.7,423.4 
					578.6,434.8 578.6,442.9 				"/>
				<path class="st1" d="M561.3,443c-0.2-1.2,1.2-6.1,1.2-6.1l-2-3.2c0,0-8.3-0.1-6.7,1c3.6,2.3,5.5,9.9,5.5,9.9s0.8,6.4,2.7,7.3
					c2.8,1.4,11.6,1.4,11.6-3.2c0-1-2.6-1.9-2.9-2.9c-0.7-1.9,0.7-8,0.7-8l-4.7-15l-12.2-0.9l-2.4,1.9l12.8,2l4.1,13.5l-3.6,6.2
					C565.4,445.5,561.5,444.4,561.3,443z"/>
			</g>
			<path class="st35" d="M482.8,517.7c0,0-9,9,8.6,36.7c2.5,4,6.6,3.8,8.4,3.9c1.4,0,4.3-3.4,4.3-3.4s-0.2,5.5-0.7,7.4
				c-2.3,7.7-26.1,19.5-26.1,19.5s-7.6,4.2-19.6-18.2c-9.2-17.1-8.2-30.4-2.5-37.1c3.6-4.2,14.8-7.1,20-9.7
				C483.1,512.7,482.8,517.7,482.8,517.7z"/>
		</g>
		<rect y="629.3" class="st42" width="761" height="30.9"/>
		<path class="st37" d="M558.5,321.2c0-12.7,1.4,7.5-5-1.9c-6.4-9.3-3.7-1.9-6.4-17.6s-14.7-27.2-33.2-27.2
			c-18.4,0-19.8-33.5-19.8-33.5s9.4-12.9,13.8-12.3c22.1,3.2,43.8,38.7,47.4,47.2c3.7,8.5,3.7,30.1,3.2,31.4
			C558,308.5,558.5,321.2,558.5,321.2z"/>
		<path class="st37" d="M430.1,312.1c0-12.7-2.1,16.5,4.3,7.2s3.7-1.9,6.4-17.6c2.8-15.7,16.6-27.2,35-27.2s20.7-34.5,20.7-34.5
			s-27.9-7.5-32-5.8s-26.5,33.2-30.2,41.7s-4.3,30-3.9,31.3C431,308.4,430.1,312.1,430.1,312.1z"/>
	</g>
	<g>
		<g>
			<path class="st10" d="M657.2,492.1c0,2.8-1,7.6,1.8,9.4c3,1.9,7-0.5,9.4-2.4c8.7-6.9,16.5-15.5,23.7-24c2-2.4-1.4-5.8-3.4-3.4
				c-3.8,4.6-7.8,9-12,13.2c-2.7,2.7-11.8,13.7-16,12c0.6,0.6,1.1,1.1,1.7,1.7c-0.5-2-0.2-4.4-0.2-6.5
				C662,489,657.2,489,657.2,492.1L657.2,492.1z"/>
		</g>
	</g>
	<g>
		<g>
			<path class="st10" d="M383.1,393.4c0,2.8-1,7.6,1.8,9.4c3,1.9,7-0.5,9.4-2.4c8.7-6.9,16.5-15.5,23.7-24c2-2.4-1.4-5.8-3.4-3.4
				c-3.8,4.6-7.8,9-12,13.2c-2.7,2.7-11.8,13.7-16,12c0.6,0.6,1.1,1.1,1.7,1.7c-0.5-2-0.2-4.4-0.2-6.5
				C387.9,390.2,383.1,390.2,383.1,393.4L383.1,393.4z"/>
		</g>
	</g>
	<g>
		<g>
			<path class="st10" d="M150.2,524.7c0.4,3,0.2,7.9,3.7,8.8c3.7,1,7-2.3,9.2-4.8c7.2-8.2,13.5-17.3,19.1-26.6
				c1.6-2.7-2.6-5.1-4.2-2.4c-3.6,5.8-7.4,11.5-11.5,17c-2.2,2.9-4.4,5.8-6.9,8.6c-0.8,0.9-2.5,3.6-4.1,2.6
				c-0.5-0.4-0.6-3.9-0.7-4.5C154.4,520.3,149.7,521.6,150.2,524.7L150.2,524.7z"/>
		</g>
	</g>
</g>
</svg>
