<?xml version="1.0" encoding="utf-8"?>
<!-- Generator: Adobe Illustrator 23.0.1, SVG Export Plug-In . SVG Version: 6.00 Build 0)  -->
<svg version="1.1" id="Layer_1" xmlns="http://www.w3.org/2000/svg" xmlns:xlink="http://www.w3.org/1999/xlink" x="0px" y="0px"
	 viewBox="0 0 911 911" style="enable-background:new 0 0 911 911;" xml:space="preserve">
<style type="text/css">
	.st0{fill:#BBBBBB;}
	.st1{fill:#78B517;}
</style>
<g>
	<path class="st0" d="M722.3,911H19c-10.5,0-19-8.5-19-19V19C0,8.5,8.5,0,19,0h495.3c4.5,0,8.8,1.6,12.3,4.5l208,199.8
		c4.3,3.6,6.7,8.9,6.7,14.5v262.9c0,10.5-8.5,19-19,19s-19-8.5-19-19V227.6L501.4,38H38v835h665.4v-72.7c0-10.5,9.2-4.9,19.7-4.9
		s18.3-5.6,18.3,4.9V892C741.3,902.5,732.8,911,722.3,911z"/>
	<path class="st0" d="M722.3,237.9H513.8c-10.5,0-19-8.5-19-19V19c0-10.5,8.5-19,19-19s19,8.5,19,19v180.9h189.5
		c10.5,0,19,8.5,19,19S732.8,237.9,722.3,237.9z"/>
	<path class="st0" d="M581.7,473.2H173.4c-10.5,0-19-8.5-19-19s8.5-19,19-19h408.3c10.5,0,19,8.5,19,19
		C600.7,464.7,592.2,473.2,581.7,473.2z"/>
	<path class="st0" d="M572.2,334.2H173.4c-10.5,0-19-8.5-19-19s8.5-19,19-19h398.8c10.5,0,19,8.5,19,19
		C591.2,325.7,582.7,334.2,572.2,334.2z"/>
	<path class="st0" d="M475.9,612.1H173.4c-10.5,0-19-8.5-19-19s8.5-19,19-19h302.5c10.5,0,19,8.5,19,19S486.4,612.1,475.9,612.1z"/>
	<path class="st0" d="M475.9,751H173.4c-10.5,0-19-8.5-19-19s8.5-19,19-19h302.5c10.5,0,19,8.5,19,19S486.4,751,475.9,751z"/>
	<path class="st1" d="M702.9,720c-5.1,0-10.2-2-13.9-6c-21.5-23.1-48.2-50.3-55.6-55.8c-7.6-3.5-12.2-11.6-10.9-20.2
		c1.7-10.4,11.3-17.4,21.7-15.8c6.1,1,12,1.9,60.6,53.3l107.3-83.7c8.3-6.5,20.2-5,26.6,3.3c6.4,8.3,5,20.2-3.3,26.6l-121,94.4
		C711.1,718.6,707,720,702.9,720z"/>
	<path class="st1" d="M732.6,828.4c-98.4,0-178.4-78.3-178.4-174.5c0-96.3,80.1-174.6,178.4-174.6S911,557.6,911,653.8
		C911,750.1,831,828.4,732.6,828.4z M732.6,517.2c-77.5,0-140.5,61.3-140.5,136.6s63,136.6,140.5,136.6S873,729.1,873,653.8
		S810.1,517.2,732.6,517.2z"/>
</g>
</svg>
