<svg xmlns="http://www.w3.org/2000/svg" width="42" height="36" viewBox="0 0 42 36">
    <g fill="none" fill-rule="evenodd">
        <path fill="#026BB0" stroke="#E7F1F8" stroke-width="2" d="M5.168 0h7.895c2.843 0 5.169 2.367 5.169 5.26v15.506c0 4.028 1.045 13.23-7.725 13.23-1.505.111-2.605-1.795-.789-2.862 1.816-1.067 4.353-1.85 3.727-5.123-2.517.189-5.688.015-8.277.015C2.326 26.026 0 23.66 0 20.766V5.26C0 2.367 2.326 0 5.168 0z" opacity=".098" transform="translate(1 1)"/>
        <path stroke="#026BB0" d="M13.022 26.54c-1.073.062-2.294.071-3.945.046l-1.261-.023c-1.408-.028-1.957-.037-2.648-.037-3.12 0-5.668-2.592-5.668-5.76V5.26C-.5 2.093 2.047-.5 5.168-.5h7.895c3.121 0 5.669 2.593 5.669 5.76v15.506c0 .313.003.504.019 1.284.041 2.012.024 3.146-.123 4.46-.56 5.05-2.953 7.985-8.084 7.984-2.173.162-3.237-2.523-1.08-3.791.172-.1.35-.2.592-.33l.485-.261c1.95-1.057 2.678-1.894 2.48-3.572z" transform="translate(1 1)"/>
        <path fill="#026BB0" stroke="#E7F1F8" stroke-width="2" d="M26.9 0h7.893c2.843 0 5.168 2.367 5.168 5.26v15.506c0 4.028 1.047 13.23-7.724 13.23-1.505.111-2.605-1.795-.788-2.862 1.816-1.067 4.353-1.85 3.726-5.123-2.517.189-5.687.015-8.276.015-2.843 0-5.169-2.367-5.169-5.26V5.26C21.73 2.367 24.056 0 26.9 0z" opacity=".098" transform="translate(1 1)"/>
        <path stroke="#026BB0" d="M34.752 26.54c-1.073.062-2.293.071-3.945.046l-1.26-.023c-1.408-.028-1.957-.037-2.648-.037-3.12 0-5.669-2.592-5.669-5.76V5.26c0-3.167 2.548-5.76 5.67-5.76h7.893c3.121 0 5.668 2.592 5.668 5.76v15.506c0 .313.003.505.02 1.286.04 2.01.023 3.144-.123 4.458-.56 5.05-2.952 7.985-8.083 7.984-2.174.162-3.238-2.523-1.08-3.791.171-.1.35-.2.592-.33l.484-.26c1.95-1.058 2.679-1.895 2.481-3.573z" transform="translate(1 1)"/>
    </g>
</svg>
