<?xml version="1.0" encoding="utf-8"?>
<!-- Generator: Adobe Illustrator 23.0.2, SVG Export Plug-In . SVG Version: 6.00 Build 0)  -->
<svg version="1.1" xmlns="http://www.w3.org/2000/svg" xmlns:xlink="http://www.w3.org/1999/xlink" x="0px" y="0px"
	 viewBox="0 0 2300.8984 2466.2483" style="enable-background:new 0 0 2300.8984 2466.2483;" xml:space="preserve">
<style type="text/css">
	.st0{fill:#A9EFFF;}
	.st1{fill:#FFC963;}
	.st2{fill:#F2B95F;}
	.st3{fill:#E2A854;}
	.st4{fill:#FFDB4C;}
	.st5{fill:#FFE684;}
	.st6{fill:#7EBE65;}
	.st7{fill:#6CA455;}
	.st8{opacity:0.24;fill:#7EBE65;}
	.st9{fill:#679B50;}
	.st10{fill:#89CD6C;}
	.st11{opacity:0.15;fill:#89CD6C;}
	.st12{opacity:0.15;fill:#305575;}
	.st13{fill:#CEBFA3;}
	.st14{fill:#A09481;}
	.st15{fill:#C7B695;}
	.st16{fill:#91836D;}
	.st17{fill:#73634D;}
	.st18{fill:#C7F7FF;}
</style>
<path class="st0" d="M1846.7102,1424.9291c-28.8246-22.2129-50.0613-46.7421-87.8429-30.12
	c6.4517-16.9377,5.0234-36.3671-2.7441-52.6597c-11.2297-23.5221-27.3835-23.0635-48.7794-23.3363
	c-3.3558-0.0463-6.8436-0.1062-10.4723-0.2791c25.1769-53.1842-34.0341-103.8367-79.218-63.2441
	c19.9404-56.5565-40.0815-110.681-91.7308-110.681c-35.1172,0.0001-65.7557,18.0673-82.6737,44.9915
	c-7.3485-1.2758-14.9373-1.9603-22.7179-1.9603c-48.4336,0.0001-89.7372,26.0676-106.3223,62.7926
	c-16.3662-8.2024-35.29-12.9701-55.5298-12.9701c-60.8989,0-110.3226,42.5325-111.552,95.3881
	c-37.1571,1.844-69.0919,20.12-85.7302,46.4802c-11.927-6.6219-25.994-10.5187-41.1109-10.5187
	c-19.3096,0.0001-39.1038,6.4716-53.8484,19.2198c-9.8409,8.5216-28.2067,27.6353-27.2569,41.5363
	c-40.7721-22.5721-82.1157,21.4155-114.269,40.3136c14.8972,15.1229,50.4069,17.7249,70.5004,19.9042
	c21.1304,2.2958,43.7558,8.0535,60.2811-9.2102c6.8573,17.8712,47.6559,26.39,64.593,26.39c23.5623,0,44.626-9.3395,58.9059-24.0311
	c18.8708,16.2267,45.0908,26.2969,74.0883,26.2969c26.3799-0.0001,50.3871-8.3794,68.7401-22.0906
	c22.1599,26.6554,65.1046,44.7355,114.4418,44.7355c41.7024-0.0001,78.7335-12.9437,102.6345-33.0243
	c0.1593-0.1327,54.8059,17.595,61.2311,18.9973c14.5317,3.1625,27.5692,4.5349,42.4663,2.1331
	c35.1838-5.6686,57.1914-22.2539,66.3674-56.8029c7.203,8.6747,15.1101,17.6018,25.4824,22.496
	c23.682,11.1862,48.6195,9.5912,72.6334,0.5708c19.9412-7.4852,47.2974-16.937,55.9026-37.7618
	c42.1875,41.2972,89.8965,41.892,142.1569,22.1536c13.4491-5.0765,27.9012-5.6781,41.5096-9.8212
	c-13.4955-10.7472-25.8342-9.0897-41.8486-12.3652C1884.6715,1444.2917,1863.322,1437.7339,1846.7102,1424.9291z"/>
<path class="st1" d="M2300.8984,2278.9841c0,203.437-497.2173,186.9431-1110.5651,186.9431S9.5983,2480.7285,0.3724,2277.6719
	c-17.8825-393.6138,611.3179-239.1365,1224.666-239.1365S2300.8984,2075.5469,2300.8984,2278.9841z"/>
<path class="st2" d="M2017.9307,2423.5891c-74.5559-37.4207-151.3096-66.5044-229.0022-89.4402
	c-135.2163-39.9175-272.8807-60.6641-410.5988-77.323c-70.2113-8.4919-135.4999-15.5066-205.3458-7.8594
	c-146.9979,16.0935-294.7438,38.5964-442.4474,32.5303c-56.9209-2.3376-123.3591-4.3521-174.9897-41.1243
	c-43.4097-30.9165-66.1195-99.0183-38.0421-159.6292c16.5114-35.6422,44.6118-56.457,75.8749-69.2513
	c-347.8979-13.4454-604.5181,12.8153-593.0071,266.1786c9.2259,203.0579,576.6129,188.2566,1189.96,188.2566
	c346.3635,0,655.6635,5.2488,859.3322-26.8079C2039.1307,2434.0852,2028.5757,2428.9321,2017.9307,2423.5891z"/>
<path class="st3" d="M1640.2648,2451.0903c-119.1501-16.7485-236.0344-32.0518-356.6903-26.4844
	c-124.2399,5.7324-243.652,14.7825-367.8351,2.2327c-169.5785-17.1377-340.5881-19.8403-509.3136-44.407
	c-88.7207-12.9172-280.3048-31.0334-298.7967-145.8528c-16.9318-105.1294,101.8994-165.27,195.2898-208.9202
	c-194.3125,29.7161-311.5889,100.0999-302.4173,250.012c12.4235,203.0576,776.4632,188.2566,1602.3925,188.2566
	c57.1467,0,113.5306,0.0781,169.0081,0.1577C1727.8944,2462.0862,1683.9921,2457.2368,1640.2648,2451.0903z"/>
<g>
	<path class="st4" d="M832.0787,41.3699c-15.5157-18.6944-39.0406,0.8196-57.4781,23.7393
		c0.7305-25.9682-2.3811-52.3147-16.9244-62.9783c-2.4533-1.7983-5.5625-2.9032-8.5341-1.4834
		c-25.3529,12.1099-34.7032,43.2277-38.3336,72.7356c-21.2513-32.9718-57.1193-81.0849-67.6774-39.0269
		c-4.6199,18.4053,7.2555,42.0008,14.3123,58.5421c11.2354,26.334,25.6408,53.8402,48.295,71.9477
		c1.5962,1.2749,2.9606,1.4536,4.1216,1.0294c3.1983,3.8099,6.4542,7.5941,9.9789,11.0891c3.164,4.6994,6.3463,9.3861,9.514,14.0828
		c4.9435,7.3276,10.4862,5.1446,14.2317,0.2161c9.2809,2.7755,19.9642,5.4829,23.6836,11.9261
		c7.6509,13.2558,18.9498,0.0991,20.9144-9.013c7.9846-37.0225,28.3095-63.1383,43.8325-96.2601
		C839.5659,81.8056,844.8171,56.7191,832.0787,41.3699z"/>
	<path class="st5" d="M818.4518,56.9189c-12.3216-14.7094-27.909,0.8878-36.1491,11.4014
		c-10.6587,13.6005-18.9225,29.5861-22.0915,46.6111c0.1727-7.7208,0.1513-15.3333,0.2582-21.5531
		c0.3684-21.5096-4.6536-41.2433-15.2812-59.9039c-4.9361-8.6693-14.3336-3.516-16.8473,3.7382
		c-8.9408,25.8021-12.5266,56.9148-3.0487,83.3467c-3.6349-1.2105-7.6496-5.2969-11.4064-10.1911
		c-1.487-22.6715-15.0257-42.4213-32.2177-56.5562c-11.5146-9.4655-14.4575,13.1439-12.2415,19.6826
		c6.1046,18.012,14.1846,35.8269,25.1448,51.4417c5.7248,8.157,13.9379,21.5975,24.2144,25.8676
		c1.1509,1.3928,2.3092,2.7933,3.4355,4.1624c3.2161,3.9128,7.7565,4.177,10.7034-0.2619c1.4572-2.1974,1.9746-4.7635,1.9572-7.3507
		c2.185,3.7094,5.4943,7.2043,9.4171,6.0845c0.8407,5.5501,3.7999,11.1339,9.1429,11.1252
		c0.5074,1.9409,0.9205,3.8757,1.5491,5.8303c1.5254,4.7365,6.649,8.8998,11.6857,6.851c2.7892-1.1349,4.5006-3.5804,5.5537-6.387
		c2.339,0.0681,4.7465-1.5729,6.9716-5.8801c9.8076-19.0043,15.7224-38.9127,27.9958-56.8094
		C817.2291,93.5407,833.4043,74.7695,818.4518,56.9189z"/>
	<path class="st6" d="M1307.0607,265.0639c-6.4464-37.5125-23.4043-74.8524-54.1006-97.3566
		c-118.0984-86.5829-154.3494,48.2763-154.45,126.1301c-0.0978,74.4569,12.3119,197.8251,10.5868,271.9397
		c-2.0577,88.4072-21.2714,196.9966-121.4497,219.078c-48.9227,10.7838-106.4315-1.8654-137.4784,44.3201
		c-26.5934,39.5623-21.7057,106.4501,16.5918,136.5656c95.2037,74.8634,227.4707-4.9983,302.3503-71.825
		c101.6891-90.7535,130.3981-212.1525,142.5587-343.695C1320.5126,454.5718,1322.4337,354.5338,1307.0607,265.0639z"/>
	<path class="st6" d="M1167.3064,650.7177c-36.8337,154.1635-183.06,235.1513-333.2535,248.7929
		c-0.7441-7.9365-0.7441-15.8741,0.124-23.6876c4.4649-0.3721,8.8072-0.8681,13.1465-1.4884
		c43.5326-6.697,88.5548-23.1922,130.1017-37.9513c73.9185-26.1689,133.0783-66.973,160.3635-143.3722
		c15.379-43.2844,19.8452-89.6697,21.8285-135.6826c5.333-130.2255-8.5577-260.2033-27.0372-389.5618
		c4.4646-6.0758,9.5511-11.2849,15.1309-15.6258c5.5812,22.8205,9.9231,45.765,12.1542,67.8414
		c6.0773,59.5315,7.0708,120.3034,11.6597,180.4555c0.6189,8.0614,1.363,16.1231,2.1072,24.1846
		C1180.9503,500.0292,1184.918,577.0474,1167.3064,650.7177z"/>
	<path class="st6" d="M1231.3042,688.9183c-29.7671,106.1648-102.6932,192.3619-198.564,247.1807
		c-43.9046,25.053-95.6229,42.1681-145.7289,42.7884c-7.0695-3.5969-13.7665-8.0628-20.216-13.1466
		c-2.7285-2.1086-5.2077-4.4649-7.5641-6.9455c73.0491-2.2322,144.8605-26.7892,202.5306-72.306
		c79.3754-62.5085,146.97-132.2099,166.8126-235.1504c18.3557-95.1265,10.4194-197.6949,11.6582-294.3098
		c0.8684-67.345-2.4802-134.6905-6.9452-202.1598c5.5812,3.2248,11.4102,6.9455,17.4872,11.2862
		c6.0786,54.1988,7.3177,109.2658,8.4353,163.8363C1261.6892,449.6754,1263.9216,572.4581,1231.3042,688.9183z"/>
	<path class="st7" d="M1231.3042,688.9183c-29.7671,106.1648-102.6932,192.3619-198.564,247.1807
		c-43.9046,25.053-95.6229,42.1681-145.7289,42.7884c-7.0695-3.5969-13.7665-8.0628-20.216-13.1466
		c-2.7285-2.1086-5.2077-4.4649-7.5641-6.9455c73.0491-2.2322,144.8605-26.7892,202.5306-72.306
		c79.3754-62.5085,146.97-132.2099,166.8126-235.1504c18.3557-95.1265,10.4194-197.6949,11.6582-294.3098
		c0.8684-67.345-2.4802-134.6905-6.9452-202.1598c5.5812,3.2248,11.4102,6.9455,17.4872,11.2862
		c6.0786,54.1988,7.3177,109.2658,8.4353,163.8363C1261.6892,449.6754,1263.9216,572.4581,1231.3042,688.9183z"/>
	<path class="st7" d="M1167.3064,650.7177c-36.8337,154.1635-183.06,235.1513-333.2535,248.7929
		c-0.7441-7.9365-0.7441-15.8741,0.124-23.6876c4.4649-0.3721,8.8072-0.8681,13.1465-1.4884
		c43.5326-6.697,88.5548-23.1922,130.1017-37.9513c73.9185-26.1689,133.0783-66.973,160.3635-143.3722
		c15.379-43.2844,19.8452-89.6697,21.8285-135.6826c5.333-130.2255-8.5577-260.2033-27.0372-389.5618
		c4.4646-6.0758,9.5511-11.2849,15.1309-15.6258c5.5812,22.8205,9.9231,45.765,12.1542,67.8414
		c6.0773,59.5315,7.0708,120.3034,11.6597,180.4555c0.6189,8.0614,1.363,16.1231,2.1072,24.1846
		C1180.9503,500.0292,1184.918,577.0474,1167.3064,650.7177z"/>
	<path class="st6" d="M1307.0607,265.0639c-6.0657-35.2988-21.5973-70.2796-48.9646-93.0554
		c11.7227,45.5416,18.1869,92.6473,18.2948,144.9235c0.186,89.7776-9.0797,193.9953-61.5309,270.0261
		c-12.8142,18.5751-35.1484,21.383-52.2689,6.7358c-22.4247-19.1857-39.9087-41.3412-53.6367-65.5236
		c0.3086,13.4356,0.4092,26.1593,0.1426,37.6068c-2.0577,88.4072-21.2728,196.9966-121.4497,219.078
		c-48.9227,10.7838-106.4315-1.8654-137.4784,44.3201c-26.5934,39.5623-21.7057,106.4501,16.5918,136.5656
		c95.2037,74.8634,227.4707-4.9983,302.3503-71.825c101.6891-90.7535,130.3981-212.1525,142.5587-343.695
		C1320.5126,454.5718,1322.4337,354.5338,1307.0607,265.0639z"/>
	<path class="st6" d="M518.3378,1676.9734c0.5978-15.8887-2.8711-36.4072-3.02-59.1187
		c-0.4937-75.4117,74.4866-149.8907,57.6343-224.0538c-11.2778-49.6271-113.6922-42.7263-136.262-87.1926
		c-25.7116-50.6542-29.6665-142.8301-36.0229-198.2728c-13.2841-115.8836-3.0176-228.1541-5.3864-343.678
		c-1.6135-78.7318-30.598-158.7759-104.3082-197.8014c-64.0882-33.9354-156.1951-29.3393-211.4888,20.7394
		C22.0432,639.6189,30.1073,723.024,29.0655,793.363c-2.6963,181.9102,3.6523,383.7651,72.4747,554.7313
		c38.5653,95.8025,98.1492,181.4191,175.9783,249.4885c43.2038,37.7371,229.2813,184.9663,287.6498,186.7041
		C597.7296,1785.2555,517.5429,1698.106,518.3378,1676.9734z"/>
	<path class="st6" d="M546.6303,1728.3209c-174.6263-113.6063-314.4006-266.1566-384.9704-472.6571
		c-71.438-209.105-87.1904-455.6655-67.2225-679.9014l12.7745-7.9378c31.1314-17.3634,68.3387-24.5567,104.6765-22.4482
		l14.2628,1.3641c-11.6569,211.7095-38.5716,419.4505,30.0153,625.2068c53.4544,160.7355,160.2382,269.6278,285.5029,352.6014
		c-3.1009,6.944-6.0772,14.0148-8.9299,20.9602c-9.9208,23.9364-17.4862,48.1213-17.3633,72.306
		c0.1239,22.6965,3.5979,43.2847,2.9776,59.1597c-0.1239,2.2325,0.7442,5.333,2.3554,9.0538
		C525.4219,1696.8187,536.0895,1712.5698,546.6303,1728.3209z"/>
	<path class="st7" d="M546.6303,1728.3209c-174.6263-113.6063-314.4006-266.1566-384.9704-472.6571
		c-71.438-209.105-87.1904-455.6655-67.2225-679.9014l12.7745-7.9378c0.7441,99.9638-6.0758,200.0513-0.992,300.1377
		c6.3249,123.7777,23.8125,247.5541,63.1293,365.0052c65.113,194.8422,191.2444,342.059,351.36,453.061
		C525.4219,1696.8187,536.0895,1712.5698,546.6303,1728.3209z"/>
	<path class="st7" d="M532.7395,1545.509c-124.3966-82.7245-229.5692-190.1295-285.6281-349.3767
		c-70.4459-200.5476-67.7171-438.0543-35.223-650.7559l14.2628,1.3641c-11.6582,211.7095-38.5716,419.4505,30.014,625.2068
		c53.4547,160.7355,160.2395,269.6293,285.5042,352.6014L532.7395,1545.509z"/>
	<path class="st8" d="M515.3178,1617.8547c-0.4937-75.4117,74.4866-149.8907,57.6343-224.0538
		c-11.2778-49.6271-113.6922-42.7263-136.262-87.1926c-25.7116-50.6542-29.6665-142.8301-36.0229-198.2728
		c-11.0457-96.352-5.8737-190.226-5.1569-285.5289c-3.6152,50.1628-9.4766,99.5928-12.6579,145.1082
		c-6.4716,92.5732-17.1042,232.9504-111.6653,281.2057c-99.7454,50.9019-161.4041-50.5522-184.557-133.0707
		C60.859,1024.1985,57.9806,925.2059,52.837,830.4575c-2.9218-53.803-13.4205-140.5766,0.7568-210.587
		C24.7469,670.4327,29.9126,736.21,29.0655,793.3618c-2.6963,181.9104,3.6523,383.765,72.4747,554.7326
		c38.5653,95.8025,98.1492,181.4191,175.9783,249.4885c43.2038,37.7357,229.2813,184.9663,287.6498,186.7041
		c32.5613,0.9685-47.6254-86.181-46.8305-107.3136C518.9343,1661.0834,515.4667,1640.5662,515.3178,1617.8547z"/>
	<path class="st6" d="M436.7459,1306.6379c-67.2211-95.3748-114.3519-221.7556-121.6678-341.687
		c-7.6897-126.5049-10.1713-258.343-4.4649-386.088c5.7037,3.9686,11.0367,8.3096,16.1231,12.8984
		c4.8357,102.3202,2.3564,205.5086,4.3397,307.7045c2.4803,129.3577,26.0463,239.4911,86.4462,346.4001
		C422.111,1268.8104,428.3121,1290.0188,436.7459,1306.6379z"/>
	<path class="st7" d="M436.7459,1306.6379c-67.2211-95.3748-114.3519-221.7556-121.6678-341.687
		c-7.6897-126.5049-10.1713-258.343-4.4649-386.088c5.7037,3.9686,11.0367,8.3096,16.1231,12.8984
		c4.8357,102.3202,2.3564,205.5086,4.3397,307.7045c2.4803,129.3577,26.0463,239.4911,86.4462,346.4001
		C422.111,1268.8104,428.3121,1290.0188,436.7459,1306.6379z"/>
	<path class="st6" d="M740.7495,2274.1804c-215.9971-0.0046-248.9219-244.2548-249.0745-417.1249
		c-0.2642-301.3431-23.035-598.198-23.856-900.3177c-0.5133-189.2587-11.1275-405.1741,28.016-590.4999
		c27.1749-128.6628,107.2487-219.75,244.9332-219.75c109.6338,0.0037,201.6872,68.9687,240.8391,170.1343
		c65.3447,168.8403,16.4865,399.2465,11.4735,576.7354c-7.0234,248.6266-8.7722,497.3551-10.9984,746.0587
		C980.3026,1838.2683,1056.358,2274.1804,740.7495,2274.1804z"/>
	<path class="st6" d="M596.2399,2179.6455c1.1176,18.1074-18.2303,18.3555-19.2223,0.4963
		c-19.9682-359.175-25.7985-718.9695-14.6349-1078.5161c5.5807-175.8667,5.0835-349.8727-0.6202-525.8633
		c-4.0929-123.5286-4.7131-245.9406,14.5109-366.9882c4.5875-4.4649,9.4258-8.8059,14.5096-12.6506
		c-19.4718,144.8605-15.5032,291.5814-9.4261,437.6819c6.9455,168.5491,2.6045,335.7341-2.1082,504.1594
		C569.6986,1485.233,575.0319,1832.8733,596.2399,2179.6455z"/>
	<path class="st6" d="M741.3496,146.5141c8.3086,0,16.3713,0.372,24.4317,1.2401c1.3654,152.0538-11.4104,306.2162-15.0056,457.5259
		c-4.4662,180.9515-8.3109,361.902-11.4117,542.9788c-6.3239,362.0272-10.2925,724.0542-11.5341,1086.0815
		c-0.1241,18.9758-20.3389,19.4719-20.2159,0.4958c1.7361-366.1198,5.5811-732.3638,12.1556-1098.4839
		c3.3474-185.0443,7.3163-370.2125,11.9051-555.2568C735.2724,437.5991,731.5507,290.5064,741.3496,146.5141z"/>
	<path class="st6" d="M906.9211,2207.9231c-8.4339,9.3018-17.6115,17.7354-27.7815,25.301
		c-4.3397-333.9978,1.9856-668.7396,2.3564-1002.6133c0.2495-346.7722-5.333-693.5443,1.3644-1040.1921
		c7.0694,4.7117,13.8907,9.9218,20.4638,15.379c6.2014,341.4391,0.7442,682.7541,0.9937,1024.1934
		C904.6886,1555.6791,910.7658,1882.111,906.9211,2207.9231z"/>
	<path class="st9" d="M596.2399,2179.6455c1.1176,18.1074-18.2303,18.3555-19.2223,0.4963
		c-19.9682-359.175-25.7985-718.9695-14.6349-1078.5161c5.5807-175.8667,5.0835-349.8727-0.6202-525.8633
		c-4.0929-123.5286-4.7131-245.9406,14.5109-366.9882c4.5875-4.4649,9.4258-8.8059,14.5096-12.6506
		c-19.4718,144.8605-15.5032,291.5814-9.4261,437.6819c6.9455,168.5491,2.6045,335.7341-2.1082,504.1594
		C569.6986,1485.233,575.0319,1832.8733,596.2399,2179.6455z"/>
	<path class="st9" d="M906.9211,2207.9231c3.8447-325.8121-2.2325-652.244-2.6046-977.9321
		c-0.2481-341.4392,5.2091-682.7542-0.9923-1024.1934l-20.4638-15.379c-6.6974,346.6479-1.1163,693.42-1.3644,1040.1921
		c-0.3721,333.8737-6.6974,668.6155-2.3564,1002.6133L906.9211,2207.9231z"/>
	<path class="st9" d="M741.3486,146.5141c-9.7979,143.9924-6.0772,291.085-9.674,434.5814
		c-4.5888,185.0443-8.5577,370.2126-11.9064,555.2568c-6.5732,366.1201-10.4182,732.3641-12.1543,1098.4839
		c-0.1239,18.9761,20.0918,18.48,20.2159-0.4958c1.2402-362.0273,5.2091-724.0543,11.5341-1086.0815
		c3.1009-181.0754,6.9456-362.0272,11.4105-542.9788c3.5965-151.3097,16.371-305.4721,15.0069-457.5259L741.3486,146.5141z"/>
	<path class="st8" d="M1014.9263,514.106c-7.2515,123.1539-22.018,246.6149-26.4308,368.5707
		c-3.722,102.8632-18.1311,726.3638-252.7591,579.3761c-38.2033-23.9329-53.1431-66.6038-67.6317-107.1172
		c-19.886-55.6053-42.8739-109.8088-60.1457-166.3975c-38.1041-124.8356-53.2857-253.9573-71.2679-382.7704
		c-24.6699-176.722-58.5696-402.3598,29.21-569.4452c1.3159-7.0882,2.7461-14.1453,4.3236-21.165
		c-36.8352,38.3249-61.5782,90.4249-74.3898,151.0803c-39.1435,185.3258-28.5306,401.2412-28.016,590.4985
		c0.8197,302.121,23.5918,598.9745,23.856,900.319c0.1526,172.8701,33.0774,417.119,249.0745,417.1249
		c315.6086,0,239.5531-435.9133,241.3329-634.764c2.2261-248.7036,3.9736-497.4321,10.9984-746.0587
		C996.3192,778.7158,1017.6935,642.0521,1014.9263,514.106z"/>
	<path class="st2" d="M336.7422,2200.8652c27.1809-44.6772,64.1427-87.291,106.3012-118.2041
		c64.309-47.1554,151.0354-44.7181,224.3351-23.0386c40.5088,11.9819,75.2853,37.2334,114.6632,51.7317
		c52.5365,19.3442,109.4181,5.8862,162.4546,21.0581c58.0074,16.5957,103.9769,59.7683,143.9403,103.0046
		c20.1552,21.8059,39.0823,44.6973,58.5779,67.1133c14.1066,16.2361,32.3677,33.6753,42.2998,52.3684
		c-37.6738,10.6584-87.1931,4.6892-126.6305,5.1008c-45.6297,0.4763-91.2644,0.238-136.8929-0.2542
		c-89.1055-0.9614-178.2006-3.0115-267.3148-3.0115c-16.1082,0-66.2897,9.106-80.3902,0
		C577.5502,2356.3879,336.7422,2200.8652,336.7422,2200.8652z"/>
	<path class="st10" d="M545.0464,789.2455c1.5281-0.6934,2.7928-3.0858,2.4706-5.8169c-0.7552-6.4031-1.5293-12.6407-4.0394-18.636
		c-1.9285-4.6048-5.8229-1.0279-5.7484,2.5378c0.0297,1.472,0.3533,2.8524,0.517,4.2799c-1.1486-1.343-2.5241,0.6784-2.2722,2.2722
		c1.4028,8.8156,3.7244,17.4963,6.5524,25.9545c1.5017,4.4923,5.6219,0.0557,4.7475-3.2148
		C546.6129,794.147,545.8029,791.7025,545.0464,789.2455z"/>
	<path class="st10" d="M662.8796,1003.0847c-2.6082-11.1426-3.9191-22.2017-4.3931-33.6258c-0.16-3.847-4.0851-5.2622-5.023-0.9065
		c-2.8066,13.0524-1.4846,26.4929,2.6666,39.105C658.2607,1014.1315,663.9511,1007.6649,662.8796,1003.0847z"/>
	<path class="st10" d="M170.8736,1068.1178c-4.0407,0.0983-5.5711,5.5775-5.4472,8.7599c0.3834,9.8837,0.9191,19.5439,2.8066,29.265
		c0.8286,4.2662,4.9759,3.8744,5.7648-0.1416c1.9148-9.7532,2.3637-19.4851,2.7485-29.401
		C176.8726,1073.3479,174.8001,1068.0199,170.8736,1068.1178z"/>
	<path class="st10" d="M155.7761,1340.6305c-8.4174-6.4355-16.8326-12.8724-25.2487-19.307
		c-5.4289-4.1509-7.1824,7.4019-3.7866,10.6377c7.996,7.6174,15.9916,15.2354,23.9876,22.8529
		C156.6953,1360.4991,161.4725,1344.9861,155.7761,1340.6305z"/>
	<path class="st10" d="M281.3284,1381.6193c-2.6403-6.0547-5.2264-12.1716-8.998-17.6288
		c-3.8981-5.6406-7.4488,2.6702-6.7591,6.2954c1.3283,6.9877,3.7591,13.6156,6.195,20.2755
		c1.2278,3.3574,4.8073,5.4025,7.8209,2.9036C282.6804,1390.8977,282.802,1385.0013,281.3284,1381.6193z"/>
	<path class="st10" d="M368.0675,1281.8143c-2.4596-3.3298-4.9178-6.6586-7.377-9.9889c-1.967-2.6653-4.987-2.525-6.835,0.1677
		c-2.0578,2.9976-1.5217,7.4598,0.2555,10.4104c2.2288,3.701,4.4562,7.4017,6.6837,11.1028
		c1.9285,3.2034,5.6579,2.5795,7.5554-0.1851C370.461,1290.2455,370.2786,1284.8083,368.0675,1281.8143z"/>
	<path class="st10" d="M267.1922,619.6246c-0.2008-8.8663-9.2151-8.5317-9.4122,0.2308c-0.1068,4.6893-0.2134,9.3799-0.3189,14.0693
		c-0.0655,2.8871,1.6967,7.6149,5.213,7.5281c3.6203-0.0878,4.9002-4.9496,4.8357-7.7748
		C267.4043,628.9937,267.2977,624.309,267.1922,619.6246z"/>
	<path class="st10" d="M151.3125,618.7343c-3.5978-8.0975-7.2778-16.1543-10.9762-24.2057
		c-1.3517-2.9469-4.2849-5.0961-7.2044-2.6754c-2.9158,2.4185-2.8724,7.7368-1.6039,10.9141
		c3.334,8.353,6.6827,16.6963,10.1156,25.0096c1.369,3.314,4.7812,5.53,7.9091,2.9355
		C152.6642,628.1303,152.8256,622.1373,151.3125,618.7343z"/>
	<path class="st10" d="M59.1202,767.9321c-5.6469-9.524-11.0197-19.8069-14.1028-30.4865
		c-1.9843-6.8712-8.5404-4.8271-8.3283,1.9308c0.4776,15.1472,4.5851,29.699,14.3794,41.5012
		c2.5561,3.0795,6.0079,3.2294,8.3643-0.2058C61.9642,776.9844,61.2732,771.5632,59.1202,767.9321z"/>
	<path class="st10" d="M151.5443,832.9006c-3.8633-1.4101-6.3573,3.0574-6.8149,6.1927c-1.0357,7.0905-2.0715,14.181-3.1069,21.2715
		c-0.4552,3.1155,0.3026,8.3777,3.8347,9.5621c3.6403,1.2218,5.6346-2.7422,6.2014-5.6357
		c1.3667-6.9601,2.7334-13.9217,4.0988-20.8819C156.4361,839.9554,155.2938,834.27,151.5443,832.9006z"/>
	<path class="st10" d="M83.1201,1031.2493c-3.0087-7.1056-6.1453-13.8884-10.2742-20.4232
		c-2.1256-3.366-6.0313-2.8216-8.0938,0.1984c-2.493,3.6476-1.7041,8.7314,0.3026,12.3279
		c3.2742,5.8715,7.1165,10.9849,11.372,16.1656C81.421,1045.5975,84.9347,1035.5369,83.1201,1031.2493z"/>
	<path class="st10" d="M257.8966,995.8168c-2.5227,8.6753-3.335,17.351-4.022,26.3353c-0.2185,2.8499,0.1463,7.5082,3.4566,8.6194
		c3.3323,1.1176,5.0093-2.4952,5.5894-5.0797c1.9833-8.8284,3.66-17.4022,3.835-26.472
		C266.8572,993.898,259.9925,988.6071,257.8966,995.8168z"/>
	<path class="st10" d="M267.104,811.0403c-1.9893,4.8357-3,9.8126-4.2007,14.8941c-0.9362,3.9612,4.4402,9.1318,5.9038,3.5892
		c1.358-5.1483,2.7805-10.0982,3.3734-15.3964C272.5452,810.8718,269.0823,806.2332,267.104,811.0403z"/>
	<path class="st10" d="M360.3221,820.223c-3.1974-3.2582-6.6814-1.1957-8.1657,2.5932
		c-3.9826,10.1603-4.2565,20.0326-1.9348,30.6231c0.517,2.3564,2.2869,5.0835,5.034,4.1409
		c2.8166-0.9672,2.9158-5.2882,2.6146-7.5764c-0.7505-5.6817,0.7752-11.9773,3.3299-17.0734
		C363.1076,829.1254,363.5729,823.537,360.3221,820.223z"/>
	<path class="st10" d="M332.3646,1148.2872c-1.4399-1.9606-4.2331-3.1021-6.1964-1.0602c-8.0925,8.4138-8.508,21.342-4.362,31.8319
		c2.8801,7.2878,9.7905,1.8022,9.2685-4.0916c-0.5334-6.0077,0.7007-11.543,2.3156-17.3088
		C334.23,1154.6622,334.3105,1150.9379,332.3646,1148.2872z"/>
	<path class="st10" d="M382.7953,1074.5847c-5.2759,5.2261-6.9416,12.5995-9.2435,19.4158
		c-0.9476,2.8115-0.8086,6.8761,1.4202,9.0935c1.8563,1.8457,4.694,1.9463,6.0831-0.703c3.5337-6.7445,7.2729-12.998,8.0841-20.7382
		C389.4419,1078.7667,386.9699,1070.4508,382.7953,1074.5847z"/>
	<path class="st10" d="M113.4663,1217.1606c-4.3643-6.4706-8.0764-13.3055-12.8673-19.4755
		c-6.019-7.7543-11.688,6.3029-7.2715,11.6915c4.9014,5.9817,10.6512,10.9626,15.9595,16.5635
		C113.3264,1230.204,115.3354,1219.9312,113.4663,1217.1606z"/>
	<path class="st10" d="M232.53,1493.8552c-5.7338-5.2164-10.6202-11.4004-16.9158-15.9197
		c-6.8376-4.9065-9.1208,9.2421-4.687,13.1711c5.523,4.8942,12.1903,7.9911,18.2377,12.2041
		C234.1632,1506.7935,235.6429,1496.6855,232.53,1493.8552z"/>
	<path class="st10" d="M371.2535,1458.4203c-4.0531,0.1005-5.4335,5.5129-5.3874,8.6619
		c0.0842,5.8613,0.2529,11.7067,0.5084,17.5643c0.1276,2.922,1.5851,7.7141,5.2772,7.6237
		c3.8076-0.0929,4.7738-5.0131,4.8978-7.8745c0.2541-5.865,0.4241-11.719,0.5096-17.589
		C377.1052,1463.5908,375.1877,1458.3246,371.2535,1458.4203z"/>
	<path class="st10" d="M438.3134,1365.0125c-2.3724-4.6447-1.9272-9.0203-1.9743-14.1042c-0.0411-4.3927-4.7638-10.521-8.379-5.0028
		c-5.7178,8.7236-3.0324,20.4984,2.7869,28.4547C435.8692,1381.3628,440.784,1369.8495,438.3134,1365.0125z"/>
	<path class="st10" d="M435.2513,1526.4536c-1.7004-4.6967-6.6202-4.1459-8.2365,0.2024
		c-2.8957,7.7914-1.3393,16.686-0.7528,24.7798c0.2024,2.7687,1.2341,6.7732,4.485,7.3141
		c2.9802,0.4973,5.1182-2.9036,5.3092-5.5452C436.6962,1544.364,438.3371,1534.9667,435.2513,1526.4536z"/>
	<path class="st10" d="M338.1451,1609.3605c-6.51-5.3082-16.1602-7.723-24.0396-3.6503c-3.3597,1.7365-3.7492,9.5276,0.2668,10.835
		c3.7652,1.2255,7.7094,1.2859,11.5344,2.3888c3.516,1.0129,6.857,1.5029,10.4676,2.0289
		C341.5162,1621.7118,340.6815,1611.429,338.1451,1609.3605z"/>
	<path class="st10" d="M528.4583,392.0611c-0.9909-3.5621-3.5831-8.3941-8.0691-6.639c-4.5147,1.7659-4.6523,8.2973-4.192,12.1442
		c1.4596,12.167,4.3283,24.6723,9.3339,35.8917c2.8898,6.4753,8.0344,1.4336,8.0952-3.5744
		C533.7789,417.2453,531.8405,404.2229,528.4583,392.0611z"/>
	<path class="st10" d="M628.7889,239.6366c-1.3941-2.7709-4.0668-4.9612-6.9415-2.5761c-2.8824,2.3924-2.659,7.3844-1.5441,10.5136
		c2.1072,5.9172,2.6329,12.0811,1.7188,18.2835c-0.5555,3.7765,0.3844,9.8153,4.5457,11.3346
		c4.0715,1.4869,6.9873-3.2605,7.3507-6.6786C635.0684,259.6862,633.7164,249.4281,628.7889,239.6366z"/>
	<path class="st10" d="M649.5704,468.9425c-1.4633-9.2174-3.8347-18.1582-6.2655-27.1575
		c-2.2772-8.4385-10.6439-5.8851-10.1914,2.3627c0.5695,10.356,1.2328,20.6461,2.8614,30.8993
		c0.656,4.1239,4.2702,9.158,8.9485,7.362C649.8199,480.53,650.2365,473.136,649.5704,468.9425z"/>
	<path class="st10" d="M504.6207,590.4705c-3.7084-6.7434-7.4154-13.4866-11.1238-20.2284
		c-2.7916-5.0778-6.6673,3.0323-5.1406,6.3511c3.3186,7.222,6.6389,14.4441,9.9589,21.6659
		c1.2665,2.7521,3.7828,4.0754,6.1168,1.6172C506.78,597.4047,506.0766,593.1171,504.6207,590.4705z"/>
	<path class="st10" d="M673.3943,625.0211c-3.8858-3.0561-7.4178,0.1102-8.9619,3.8359c-3.0114,7.2665-5.843,14.7391-6.2188,22.6446
		c-0.1746,3.6883,3.5732,10.2244,7.7218,6.4218c5.1272-4.6981,7.7194-12.8279,10.1689-19.178
		C677.7092,634.5882,677.1237,627.9556,673.3943,625.0211z"/>
	<path class="st10" d="M838.6531,271.1114c-2.4308-1.9112-5.5103-1.0504-7.0571,1.5675
		c-5.1843,8.7798-7.3236,18.4154-9.1218,28.3682c-0.5495,3.0398,0.1984,7.5121,2.8079,9.5635
		c2.2211,1.7475,5.4258,1.1125,6.7491-1.4993c4.5865-9.0528,8.2442-17.8757,9.5575-28.0023
		C842.0105,277.8545,841.4684,273.325,838.6531,271.1114z"/>
	<path class="st10" d="M808.0203,548.9346c-2.8664-7.4612-5.8924-14.4836-10.1302-21.2861
		c-2.6456-4.2478-7.6934-3.6042-10.2531,0.2514c-3.0698,4.624-2.2489,11.0705,0.3831,15.6162
		c3.6376,6.2829,8.0714,11.4101,12.9655,16.7308c2.0464,2.2251,5.1209,0.5644,6.442-1.4312
		C809.2865,556.0076,809.1836,551.9633,808.0203,548.9346z"/>
	<path class="st10" d="M849.5833,685.5151c-2.8774-3.0511-6.1937-2.21-8.5825,0.9897c-5.7598,7.7167-9.4344,16.3974-11.4438,25.8021
		c-0.9051,4.2428,3.2919,15.4111,8.843,9.8537c6.5697-6.5758,10.3934-15.0641,13.1863-23.8175
		C852.8972,694.2343,852.6915,688.8104,849.5833,685.5151z"/>
	<path class="st10" d="M798.3103,963.0645c-4.678-9.7324-8.9335-19.1829-16.2321-27.2407c-2.0564-2.2698-5.193-0.5571-6.52,1.4486
		c-1.9459,2.9382-1.6259,6.8226-0.6002,9.9976c3.201,9.9021,8.6766,18.3346,14.2327,27.0597
		c1.9697,3.0905,5.5812,3.1984,7.8684,0.5194C799.5755,971.8998,799.9613,966.5023,798.3103,963.0645z"/>
	<path class="st10" d="M850.4714,1056.9248c-1.5368-2.0725-4.7391-3.5161-6.814-1.166
		c-5.1071,5.7822-8.3356,11.8174-11.7985,18.6893c-1.9185,3.8099-2.3577,8.9705,0.3103,12.6035
		c2.4395,3.3213,5.9766,3.0497,8.2748-0.2034c4.5221-6.3998,8.2515-12.3059,11.156-19.6145
		C852.8117,1064.1863,852.4717,1059.6235,850.4714,1056.9248z"/>
	<path class="st10" d="M795.9218,1234.4358c-4.3643-4.4773-8.3433-10.5769-9.4879-16.7682
		c-0.7926-4.2775-4.3891-9.593-9.3477-7.6907c-5.1546,1.9783-5.4979,9.6718-4.8557,14.0681
		c1.7375,11.8781,7.8855,22.6829,19.5821,26.7896C800.4846,1253.8793,799.5668,1238.1753,795.9218,1234.4358z"/>
	<path class="st10" d="M845.5562,1293.1952c-3.7952-2.9854-7.1709,0.1299-8.7017,3.7253
		c-2.5497,5.9916-4.4028,12.1025-6.0771,18.3854c-0.9028,3.3898-1.0257,7.7505,1.6336,10.4615
		c2.1703,2.2126,5.333,2.1433,6.9986-0.8086c3.3661-5.9606,6.3711-12.0167,8.7809-18.4352
		C849.7135,1302.4646,849.2025,1296.0625,845.5562,1293.1952z"/>
	<path class="st10" d="M800.7759,1593.2881c-5.8898-11.1724-11.4536-22.4014-18.6954-32.7648
		c-4.672-6.6863-8.9645,4.2491-6.9839,8.6282c5.2428,11.5929,11.836,22.2415,18.4031,33.1232
		C797.7077,1609.2462,803.2665,1598.0135,800.7759,1593.2881z"/>
	<path class="st10" d="M834.249,1655.366c-3.5013-2.7545-7.0831-0.01-8.358,3.5795c-2.3911,6.7345-4.7589,13.3386-6.4345,20.2902
		c-1.1396,4.7341,4.692,14.563,8.7972,7.4229c3.3981-5.9108,5.8674-12.2224,8.524-18.4906
		C838.3903,1664.3627,837.6558,1658.046,834.249,1655.366z"/>
	<path class="st10" d="M792.1116,1854.2079c-7.8905-5.7545-13.1974-13.712-19.5808-20.9525
		c-7.0123-7.9562-11.0804,5.2512-8.9238,11.0244c4.4243,11.8456,13.7307,18.8308,25.1549,23.2968
		C795.1864,1870.0869,795.9937,1857.0381,792.1116,1854.2079z"/>
	<path class="st10" d="M828.6231,1960.5739c-1.3814-1.8147-4.4348-3.3423-6.2732-1.0728
		c-8.9655,11.084-14.2788,24.4774-19.8376,37.5386c-2.4866,5.845,4.4242,19.7183,9.5588,10.6882
		c6.8533-12.0564,13.877-24.2554,17.5914-37.6652C830.4898,1967.0729,830.6311,1963.2104,828.6231,1960.5739z"/>
	<path class="st10" d="M841.4771,1798.6353c-6.8276,4.0852-11.0307,9.0885-15.6369,15.5614
		c-2.7819,3.9105,0.166,16.5187,6.1416,11.4188c5.8751-5.0157,10.0461-9.9246,13.7097-16.7161
		C846.9801,1806.5106,846.6341,1795.5494,841.4771,1798.6353z"/>
	<path class="st10" d="M961.8029,1190.1642c-19.1195,2.421-26.1071,23.0128-22.2808,39.978
		c1.9483,8.6456,11.1734,5.8665,10.3163-2.3911c-0.8283-7.9735,7.4873-15.5155,14.1015-18.7911
		C969.8139,1206.0519,970.1262,1189.1113,961.8029,1190.1642z"/>
	<path class="st10" d="M817.9732,1447.8708c-9.0898,7.1125-13.0324,18.3927-12.0925,29.7446
		c0.2208,2.6641,1.1673,6.51,4.3113,7.0334c2.9181,0.4863,4.843-2.8016,5.1062-5.332c0.5467-5.2882,3.8113-9.9615,8.3293-12.8079
		C832.0065,1461.2305,827.058,1440.7604,817.9732,1447.8708z"/>
	<path class="st10" d="M947.6854,1056.9783c-8.6793-7.0933-17.5447-14.1626-25.0333-22.5441
		c-2.3066-2.582-5.5698-0.0122-6.6772,2.2114c-1.6693,3.3547-1.1039,7.2515,0.6636,10.4192
		c6.2161,11.1312,13.831,21.2875,24.378,28.6572C950.7365,1082.5135,954.3531,1062.4264,947.6854,1056.9783z"/>
	<path class="st10" d="M966.1626,819.1044c-2.8193-3.84-7.2792-3.8015-9.8924,0.2429c-4.1509,6.4221-7.9996,13.3439-10.7107,20.5089
		c-1.2465,3.2966-0.9562,8.0938,1.2068,11.0106c1.6843,2.2709,4.9933,3.6811,7.2792,1.2452
		c4.9558-5.2782,8.9632-11.6419,12.4879-17.9388C969.0026,829.7604,969.2632,823.3261,966.1626,819.1044z"/>
	<path class="st10" d="M976.6078,644.8798c-3.02,8.7501-7.697,17.686-13.882,24.5978c-3.5905,4.011-1.2565,17.7467,5.1222,12.4284
		c10.692-8.9121,15.7534-20.2828,16.541-34.0372C984.6707,642.9562,978.6953,638.8337,976.6078,644.8798z"/>
	<path class="st10" d="M952.9641,537.9459c-8.6857-10.3834-17.3474-21.6869-22.6917-34.1648
		c-3.7491-8.7502-9.8413,1.4585-7.842,7.3359c5.2228,15.3544,11.1002,29.5029,20.6636,42.6979
		C950.807,564.4575,959.149,545.3403,952.9641,537.9459z"/>
	<path class="st10" d="M978.9765,375.7816c-1.6703-1.663-4.2538-1.7672-5.4989,0.6349c-4.9526,9.5674-8.172,19.1135-11.171,29.4597
		c-1.5468,5.3294,3.6252,13.8918,7.2952,6.1801c4.3955-9.2411,8.0862-18.1399,10.6586-28.0543
		C980.9475,381.3564,981.0938,377.8875,978.9765,375.7816z"/>
	<path class="st10" d="M512.1972,951.3688c-5.3417-9.6453-13.3894-16.0327-22.1432-22.5066
		c-7.1934-5.3183-9.5734,8.9732-6.3079,13.2471c6.6873,8.7485,13.3239,18.343,23.5884,22.9865
		C514.6307,968.3975,513.951,954.5341,512.1972,951.3688z"/>
	<path class="st10" d="M533.5582,1127.1808c-1.993-2.7172-5.9012-3.2172-7.645,0.1859
		c-3.9552,7.7268-7.1412,15.6337-10.1599,23.7645c-1.4836,3.9972,2.6129,13.7394,6.681,7.4712
		c4.1747-6.4354,8.0851-12.855,11.4101-19.7781C535.5575,1135.2585,536.0535,1130.5765,533.5582,1127.1808z"/>
	<path class="st10" d="M519.7603,1332.9497c-2.8611-6.8263-7.0407-12.6182-11.4348-18.5278
		c-4.5792-6.1593-8.2281,3.9685-6.499,8.0293c2.9342,6.8944,5.7348,13.9475,10.2715,19.9652
		C517.5566,1349.6571,521.767,1337.7371,519.7603,1332.9497z"/>
	<path class="st10" d="M516.9697,1454.3187c-2.6229-8.9569-9.9021-3.3698-8.7398,3.9255
		c1.8431,11.5714,1.8367,23.3462,6.5187,34.2841c3.619,8.4523,11.1486,2.1031,10.7939-4.7666
		C524.9259,1475.8384,520.2736,1465.6035,516.9697,1454.3187z"/>
	<path class="st10" d="M530.1364,1654.1866c-1.5577-2.1012-4.7849-3.5485-6.8922-1.1783
		c-7.9996,8.9956-10.351,20.1538-9.6479,32.0132c0.4539,7.6647,8.9312,11.2688,10.4205,1.8828
		c1.2191-7.671,4.4165-15.1101,7.2618-22.2922C532.5,1661.5276,532.1617,1656.9187,530.1364,1654.1866z"/>
	<path class="st10" d="M539.9453,1865.2175c-4.5627-8.0564-9.6626-15.7955-14.6185-23.6155
		c-4.5407-7.166-9.8887,4.4415-7.4689,9.2274c4.6089,9.1172,9.0862,18.3035,14.1225,27.1936
		c2.0281,3.5795,6.2462,2.7672,8.2739-0.2021C542.7906,1874.1102,542.0177,1868.8751,539.9453,1865.2175z"/>
	<path class="st10" d="M641.881,1865.9965c-3.9305,5.5289-6.0945,12.198-8.4859,18.4885
		c-2.7856,7.3297,5.4399,18.7163,9.8774,8.3677c2.7869-6.5026,5.5464-12.9034,6.8623-19.8933
		C651.0153,1868.2887,646.3506,1859.7048,641.881,1865.9965z"/>
	<path class="st10" d="M637.2982,1749.0553c-6.2224-5.3717-10.1265-12.3667-11.7684-20.4133
		c-1.5295-7.4873-9.4893-4.9596-8.8257,2.0464c1.1707,12.358,6.3958,22.9,16.2074,30.6935
		C638.9453,1766.1742,641.5958,1752.766,637.2982,1749.0553z"/>
	<path class="st10" d="M683.7974,1618.6698c-6.3176,4.3617-11.2615,9.6823-15.4061,16.1886
		c-4.7465,7.4502-6.5052,14.573-7.3994,23.1332c-0.4055,3.8955,2.3503,13.056,7.6896,8.5674
		c-0.9575,0.0475-0.872-0.0233,0.2579-0.2107c0.666-0.0385,1.2388-0.2914,1.7191-0.7589c1.2859-0.7368,2.3527-1.8842,3.361-2.9569
		c2.3898-2.541,4.508-5.5524,6.6179-8.3319c4.368-5.7548,8.6396-11.5604,13.0186-17.3026
		C698.6694,1630.4258,693.9326,1611.6721,683.7974,1618.6698z"/>
	<path class="st10" d="M634.7025,1597.5259c-5.8925-12.3477-11.1624-24.9922-14.9052-38.1758
		c-2.5574-9.0067-12.2227-6.6079-11.186,2.5934c1.9078,16.9404,7.7976,32.7808,20.4789,44.6053
		C633.87,1611.0061,636.1459,1600.5532,634.7025,1597.5259z"/>
	<path class="st10" d="M662.7283,1454.6797c-1.0467,5.9084-2.0925,11.8157-3.1392,17.724
		c-1.2886,7.2766,6.8202,12.327,8.7982,3.4434c1.2936-5.812,2.5885-11.6226,3.8821-17.4332
		C674.0219,1450.5459,664.4434,1444.9907,662.7283,1454.6797z"/>
	<path class="st10" d="M640.2835,1369.6483c-2.5808-13.3929-10.841-27.1626-20.3102-36.7644
		c-2.2956-2.3292-5.4943-0.6782-6.9789,1.5505c-2.0748,3.1115-1.7786,7.3396-0.6423,10.7043
		c2.3129,6.8536,5.2137,12.9135,9.0561,19.0491c3.0274,4.8369,6.9529,11.038,11.7985,14.1721
		C638.712,1381.9209,641.0848,1373.7997,640.2835,1369.6483z"/>
	<path class="st10" d="M685.5462,1239.073c-4.7775-1.7448-7.2071,3.7062-8.0404,7.304
		c-2.8427,12.2772-6.1493,25.0454-5.9211,37.7292c0.0721,3.9965,5.4224,11.4119,8.5998,5.135
		c5.8293-11.5183,7.8868-25.2042,10.3326-37.7717C691.3098,1247.3927,689.974,1240.6892,685.5462,1239.073z"/>
	<path class="st10" d="M652.5694,1162.684c-5.8701-8.0157-11.8022-16.0337-13.1713-26.116c-0.5768-4.26-4.1957-9.5647-9.0067-8.5253
		c-4.9014,1.0582-6.9739,7.7913-6.6539,12.157c1.1135,15.188,8.3196,33.9839,25.5179,35.9684
		C655.2233,1176.8562,654.73,1165.6334,652.5694,1162.684z"/>
	<path class="st10" d="M688.4991,887.9987c-2.2869,5.9071-4.5751,11.8133-6.862,17.7194c-1.5518,4.006,3.0497,10.2234,5.3874,4.5641
		l7.1983-17.4341C695.9904,888.5678,690.8271,881.9874,688.4991,887.9987z"/>
	<path class="st10" d="M669.3225,817.6533c-6.4282-12.5611-13.7084-26.23-26.2076-33.4842
		c-6.0598-3.5161-7.3087,9.3206-5.8761,12.3888c5.8179,12.4631,15.55,21.8122,26.9738,29.3094
		C668.9504,828.9766,670.9796,820.8903,669.3225,817.6533z"/>
	<path class="st10" d="M1141.1001,381.2462c-1.8602-5.2626-3.8669-10.0114-6.6552-14.8755
		c-2.2112-3.8573-4.3892-8.6198-8.1807-11.1251c-5.7037-3.7715-8.8901,3.3216-8.8961,8.1683
		c-0.0125,10.4985,4.864,21.8396,9.6588,30.9939c2.3295,4.4498,6.7729,8.3864,11.5107,4.2725
		C1143.2645,394.5764,1142.9742,386.5481,1141.1001,381.2462z"/>
	<path class="st10" d="M1210.307,177.2867c-2.9132-2.1826-5.467,0.0138-6.6353,2.8405c-5.0194,12.1569-6.696,24.6956-4.027,37.614
		c1.8502,8.9619,10.8806,5.7906,10.4401-2.4198c-0.4996-9.2942-0.3199-18.874,2.2288-27.8733
		C1213.2117,184.2807,1213.2725,179.5069,1210.307,177.2867z"/>
	<path class="st10" d="M1197.9717,349.5158c-6.2472-7.5096-11.2094,3.3597-9.9829,9.2979
		c2.3092,11.1833,6.5795,27.0103,15.8119,34.4354c5.5625,4.4736,9.7484-3.8854,9.365-8.5986
		C1212.1486,372.1837,1205.9846,359.1511,1197.9717,349.5158z"/>
	<path class="st10" d="M1285.3083,290.3849c-2.8193-2.1854-6.9292-1.4526-8.5901,1.9085
		c-2.5177,5.0951-4.1263,9.8202-5.0442,15.4511c-0.6139,3.7716,0.2024,9.3043,3.479,11.8454
		c2.8317,2.1953,6.6091,1.3273,8.3594-1.8564c2.7161-4.9399,4.2701-9.6506,5.3704-15.177
		C1289.6403,298.7488,1288.6012,292.9383,1285.3083,290.3849z"/>
	<path class="st10" d="M1289.8228,532.144c-2.4854-3.3844-6.5237-3.4278-8.8143,0.2158
		c-5.9519,9.4719-8.2131,20.1378-7.5435,31.2493c0.4119,6.846,8.2876,10.2679,9.4161,1.7004
		c0.9412-7.1389,3.6239-13.5684,7.2715-19.7411C1292.4335,541.7089,1292.5414,535.8464,1289.8228,532.144z"/>
	<path class="st10" d="M1142.385,537.9697c-2.8674-6.1119-5.6418-12.064-9.5176-17.5978c-4.1139-5.874-8.3134,2.7011-7.2789,6.7792
		c1.7599,6.9366,4.2676,13.3661,7.0198,19.9629c1.3965,3.3423,4.8256,5.5972,7.9969,2.9666
		C1143.7061,547.5098,1143.9775,541.3654,1142.385,537.9697z"/>
	<path class="st10" d="M1198.2616,560.0881c-8.1555,8.0578-10.2802,18.9261-8.647,30.0052c1.1943,8.0975,9.106,4.7589,9.0739-2.1036
		c-0.026-5.7397,2.9171-10.8546,6.361-15.2811C1208.4082,568.389,1204.2572,554.1646,1198.2616,560.0881z"/>
	<path class="st10" d="M1187.5188,677.7029c-1.0344-5.9853-7.1055-5.4596-8.0952,0.1984
		c-1.1162,6.3873-1.3081,12.8526-1.6976,19.3182c-0.1997,3.3213,2.0387,8.7708,6.004,8.673
		c4.079-0.0992,5.7671-5.7055,5.5697-8.9559C1188.9103,690.4797,1188.6213,684.0826,1187.5188,677.7029z"/>
	<path class="st10" d="M1121.9469,674.2761c-5.1382,2.7545-9.36,5.6827-12.0066,11.0544
		c-1.8292,3.7094-1.7749,10.7428,3.4318,11.497c5.4409,0.7889,9.6169-2.819,13.5892-6.0227
		C1131.678,687.0021,1129.4282,670.264,1121.9469,674.2761z"/>
	<path class="st10" d="M1060.2896,745.7687c-3.5037,0.0855-4.9336,4.8901-4.7749,7.677c0.2976,5.2538,0.6002,10.2581,1.6831,15.4114
		c1.0293,4.9038,5.6469,4.4436,6.6229-0.1626c1.0951-5.1656,1.3169-10.2258,1.6147-15.4929
		C1065.5964,750.3552,1063.6953,745.6857,1060.2896,745.7687z"/>
	<path class="st10" d="M1082.6426,833.0483c-7.8147,2.1369-13.7147,6.009-20.5223,10.1068
		c-4.5865,2.7609-5.4038,15.4572,1.7474,15.3777c8.2959-0.0918,15.3854-0.2305,23.4591-2.7942
		C1096.6958,852.7646,1093.8221,829.9926,1082.6426,833.0483z"/>
	<path class="st10" d="M1162.1436,859.5699c-0.7245-3.4617-4.1835-9.5675-8.7091-7.165
		c-7.0049,3.7181-12.9633,8.0217-18.3469,13.8719c-2.6132,2.8404-3.6874,15.0504,2.85,14.0187
		c7.3423-1.161,13.3673-3.7208,19.6826-7.6189C1161.9708,869.9904,1163.1469,864.3632,1162.1436,859.5699z"/>
	<path class="st10" d="M1244.4312,722.545c-2.6244,3.0448-4.9103,6.0909-7.0992,9.4693c-1.5244,2.3527-0.5458,13.035,4.0841,9.9432
		c3.0077-2.0094,5.6964-4.0024,8.3431-6.4877C1254.6494,730.8784,1249.3064,716.8934,1244.4312,722.545z"/>
	<path class="st11" d="M830.2664,226.698c-34.4054-14.6569-80.4346-11.9358-98.2384,25.7414
		c-18.2304,38.584-16.5337,94.9455-20.6178,137.0135c-5.0278,51.779-7.47,103.9535-3.7195,155.9061
		c6.1306,84.9145,29.1285,169.9045,81.4991,238.3251c6.2704,8.192,13.0323,16.2461,21.6892,21.8583
		c15.7909,10.2381,37.205,8.514,50.3018-5.2726c7.7578-8.1669,12.3964-18.7387,16.6492-29.1692
		c36.8041-90.2589,55.9076-187.6736,56.0726-285.1408c0.1339-79.1533-2.8674-172.4956-62.9326-231.996
		C859.9059,243.0036,845.6915,233.2715,830.2664,226.698z"/>
	<path class="st11" d="M205.2024,621.3972c-28.3546-34.4592-66.8915-43.8132-96.2925,16.9454
		c-25.4461,52.5863-35.739,117.0554-26.581,174.827c5.523,34.8399,22.4448,85.0584,55.2415,103.6101
		c53.5489,30.2878,82.3003-33.1802,96.3734-75.1924C257.1064,772.4376,253.3722,679.9366,205.2024,621.3972z"/>
	<path class="st11" d="M1162.3516,197.4881c-29.4841-7.8757-30.3124,33.2013-31.0347,53.5078
		c-0.9325,26.2818,1.672,88.1316,39.7351,88.4603c21.3916,0.186,28.2244-41.4452,29.5042-56.6892
		c2.3678-28.1919-3.6537-73.1009-35.1846-84.334C1164.3335,198.0636,1163.3265,197.7482,1162.3516,197.4881z"/>
</g>
<g>
	<path class="st12" d="M1848.1987,2322.1406c0,25.0085-173.3956,45.2825-387.2904,45.2825
		c-213.8945,0-387.2904-20.2739-387.2904-45.2825c0-25.0093,173.3959-45.2834,387.2904-45.2834
		C1674.8031,2276.8572,1848.1987,2297.1313,1848.1987,2322.1406z"/>
	<path class="st13" d="M1787.1383,2148.3374c-45.3322,11.1311-87.2465,30.3857-134.9987,20.0398
		c-15.7401-3.4102-31.603-8.708-47.1217-15.3008c-0.8136-0.6191-1.6617-1.0144-2.505-1.1018
		c-24.8781-10.8181-48.8077-24.8809-69.8384-39.7896c-9.2917-6.5876-17.8114-13.8301-25.7347-21.5681
		c17.0186-11.7607,33.0859-24.7241,47.4547-38.9487c0.9646-0.9553,1.4047-2.241,1.4701-3.6406
		c30.9819,23.9744,65.6183,42.5566,101.7721,53.7205c5.4757,1.6909,3.1716-8.3584-0.783-9.7554
		c-120.0402-42.4192-199.1567-139.272-227.5406-261.9598c-0.2819-1.2167-2.3679-2.1226-2.1722-0.2711
		c4.849,45.8589,21.9691,90.311,47.5336,129.9246c-10.9423,10.7876-22.5291,20.3556-34.8485,28.7332
		c-20.1342-43.0983-40.697-88.4836-45.061-136.0988c-0.2115-2.3064-4.8284-6.454-5.1266-2.2852
		c-3.4625,48.3555,21.2833,96.0104,40.4834,139.0811c0.6501,1.4581,1.3329,2.9032,1.993,4.3585
		c-14.1621,8.8085-29.2909,16.0992-45.6715,21.6709c-36.7507,12.4998-73.978,12.6949-111.3387,20.8234
		c-4.8596,1.057-2.1495,9.6503,1.8279,10.2439c52.4293,7.8217,115.9735-4.0271,164.03-34.0132
		c12.3599,24.9703,26.6256,48.9637,44.3407,70.2074c-20.7759,13.8103-42.3276,26.4036-65.6141,37.1711
		c-20.5906,9.5205-41.8107,17.5859-63.4702,24.3193c-23.7231,7.3748-49.0306,10.6641-72.1765,19.5322
		c-3.6757,1.4084,0.1688,7.7998,2.9785,7.9629c47.3049,2.7458,101.2234-18.7441,143.5042-37.9404
		c22.9009-10.3979,45.8766-22.686,67.5469-36.866c6.3829,6.5505,13.1555,12.7773,20.4172,18.5789
		c21.9258,17.5168,47.5697,33.4153,74.304,45.9697c-26.6505,29.7346-64.2284,52.8042-98.4515,72.2297
		c-37.957,21.5452-78.3153,34.9465-122.0211,37.783c-3.3335,0.2166-1.2317,6.3328,1.1959,6.7073
		c45.1079,6.9551,88.9963-7.3113,128.2325-29.0212c21.3634-11.8206,41.4863-25.7881,61.3448-39.9468
		c16.6035-11.8374,34.449-23.1978,44.8888-41.0432c11.796,4.896,23.703,9.115,35.5114,12.4641
		c48.7843,13.8386,103.4773,2.5884,148.6086-18.6995C1797.3362,2159.1406,1792.3871,2147.0491,1787.1383,2148.3374z
		 M1448.7437,2007.1005c13.6449-9.4294,25.8016-20.4342,35.8112-32.9708c17.2584,23.9829,37.5934,45.9355,60.2042,64.931
		c-16.9078,13.1117-33.7411,25.7198-51.0018,37.5736C1475.703,2055.8486,1461.2228,2032.1547,1448.7437,2007.1005z"/>
	<path class="st13" d="M1807.7737,2042.3502c-67.4957-0.5076-133.5358-15.8508-189.9572-54.3815
		c-31.5023-21.5134-58.7782-49.2344-80.5315-80.5135c-21.3785-30.7413-34.5291-64.4301-49.0519-98.6362
		c-1.1569-2.7257-5.8391-3.8373-5.2656,0.2919c10.2076,73.4264,64.511,143.1989,122.3323,186.579
		c59.3949,44.5599,134.0872,72.2072,208.9031,70.1193C1826.1302,2065.4761,1818.095,2042.4282,1807.7737,2042.3502z"/>
	<path class="st13" d="M1817.8969,2126.1042c-18.8246-4.2114-37.7185-7.8623-55.7251-15.002
		c-18.8912-7.491-35.29-18.5737-52.9382-28.3525c-5.7172-3.168-4.5182,5.7654-2.1786,8.2397
		c27.5557,29.1409,73.6665,49.062,113.5835,50.481C1828.3358,2141.7434,1823.1632,2127.282,1817.8969,2126.1042z"/>
	<path class="st13" d="M1815.5188,1965.2708c-36.0693-7.6478-74.6312-2.1196-108.2509,12.4004
		c-3.5125,1.5168-0.1803,9.4004,3.2489,8.6863c36.2589-7.5485,70.7377-8.2484,107.5475-6.8181
		C1825.1628,1979.8148,1820.4694,1966.3198,1815.5188,1965.2708z"/>
	<path class="st13" d="M1646.8378,1793.1584c-34.6531,16.856-15.8387,78.5261-5.8433,104.7883
		c1.7191,4.5173,8.0814,3.7521,6.2607-1.554c-9.6034-27.9934-14.679-66.0327,8.3862-88.3872
		C1660.3037,1803.486,1653.3649,1789.9834,1646.8378,1793.1584z"/>
	<path class="st14" d="M1634.637,1891.3885c-4.3251-0.4877-0.8042,7.2737,1.458,8.171c7.4741,2.9642,14.6102,6.1394,21.4474,9.6198
		c0.1583,27.8956-34.5481,42.2905-56.349,52.6337c-23.2561,11.0332-50.5234,19.0148-74.8976,6.6832
		c-23.1892-11.7317-43.938-41.9065-45.2092-68.4186c-2.373-49.4635,61.3833-16.9164,83.9755-8.1078
		c3.1852,1.2413,1.6377-4.5247,0.1237-5.5192c-21.436-14.0791-80.8998-42.9812-90.8718-1.8087
		c-6.7379,27.8198,14.0742,63.8032,33.7823,81.8433c27.7139,25.3679,63.1039,22.0216,95.444,7.7728
		c24.8986-10.9706,65.7808-28.2931,63.0798-60.1672c15.5995,9.0426,29.4309,20.2468,41.5594,35.4015
		c18.9308,23.6534,31.9792,51.5881,43.5532,79.4064c12.8674,30.9277,19.4448,62.4841-3.3975,90.7729
		c-18.1271,22.4497-45.8745,30.5811-73.7168,30.7471c-3.2383,0.0198-1.2173,6.2368,1.1757,6.5859
		c31.6406,4.616,64.2433-5.5071,83.4537-32.1831c18.7739-26.0728,16.5515-56.3171,5.8726-85.0894
		C1743.9116,1982.5839,1704.207,1899.2401,1634.637,1891.3885z"/>
	<path class="st14" d="M1572.2152,2044.8907c-57.9987,16.9008-120.7435,14.8102-177.2054-7.0743
		c-30.4198-11.7906-87.0067-36.4137-81.9292-76.6053c5.1307-40.6018,63.3184-44.9164,93.4194-49.1747
		c2.9969-0.4237,0.7028-5.2614-1.5055-5.4941c-31.8339-3.3499-86.6781,7.3639-97.7496,43.42
		c-9.9448,32.386,17.8364,59.3219,42.5206,74.8335c67.3241,42.306,151.3834,52.1664,227.3298,30.2867
		C1581.6881,2053.7603,1577.1344,2043.4574,1572.2152,2044.8907z"/>
	<path class="st14" d="M1678.7888,2209.2969c-73.9639,58.2515-178.1191,108.3667-269.7035,57.7781
		c-10.3666-5.7256-21.0306-12.6858-28.6686-21.8037c-16.1945-19.334-10.1266-37.6772,4.0894-53.0398
		c17.0648-18.4424,40.7231-31.4583,63.2439-42.0959c47.6499-22.5093,99.1605-38.3665,149.0665-55.0691
		c2.1727-0.7271-0.0214-5.4668-2.2852-4.7725c-48.1774,14.7803-314.5587,82.6155-207.9943,171.2441
		c92.1353,76.6272,218.2963,20.6431,299.3368-42.4338C1689.8582,2216.0022,1683.5811,2205.5234,1678.7888,2209.2969z"/>
	<path class="st15" d="M1782.9524,1904.6405c-31.73-39.0869-72.4746-72.1012-113.6948-101.2374
		c-47.243-33.3942-108.5092-37.0103-167.0637-20.6971c-65.2052,18.1664-120.3397,42.1968-164.3566,93.5259
		c-88.5272,103.2338-102.0961,241.8903-29.5701,346.3754c65.775,94.7612,185.3176,160.7959,312.0245,118.6936
		c83.7648-27.834,155.2201-97.9575,185.9791-175.5034c14.0721-35.4753,32.2391-64.1985,34.1437-102.7908
		c1.8939-38.3593-7.3611-76.5654-25.0193-109.8474C1806.2816,1935.9803,1795.2994,1919.8503,1782.9524,1904.6405z
		 M1699.2146,1851.3716c10.1332,8.7488,19.8544,17.9597,29.2792,27.4454c8.0907,17.9747,17.9199,35.1353,25.4309,53.3777
		c3.2747,7.9532,5.7648,15.9729,7.8125,24.0709c-1.4089-1.6908-2.8158-3.3832-4.2689-5.0277
		c-12.3925-14.0261-26.3092-27.1-41.3365-39.1219c-12.5984-41.2435-45.203-78.573-84.601-102.6666
		C1655.8992,1818.8037,1678.3097,1833.3236,1699.2146,1851.3716z M1531.5991,1801.7666
		c15.4435-3.1381,30.1757-4.2505,44.3195-3.7322c29.8746,12.6025,57.599,28.6984,80.4376,50.6688
		c14.0444,13.5105,24.2747,28.2596,33.0883,43.9403c-18.6536-12.4237-38.4851-23.3604-58.9203-32.5913
		c-19.4199-17.8143-44.6429-31.7543-68.0375-41.3436c-11.3014-4.6324-23.8927-9.0377-37.0079-12.2242
		c-0.5946-1.0541-1.2819-2.0629-2.1096-2.9147C1526.1135,1802.9672,1528.8712,1802.3204,1531.5991,1801.7666z M1659.9757,1984.186
		c-8.0972,8.1539-21.0277,13.2458-32.6067,12.4756c-25.5121-17.4331-46.6812-40.3976-59.6484-67.7954
		c-2.6904-5.6859-7.8553-13.541-7.8446-20.1283c0.0192-12.0626,12.9929-11.3854,22.5164-11.6422
		c15.8906-0.4296,31.1991,3.7712,44.6572,10.7236c15.6515,8.0851,29.0796,19.9175,40.9318,33.0193
		C1673.7802,1954.9296,1672.2688,1971.8057,1659.9757,1984.186z M1686.8378,1964.0441c1.6986,2.2808,3.3745,4.5586,5.0101,6.8209
		c19.0594,26.3788,34.3381,59.8389,17.0923,92.6841c-12.4541,23.7195-30.4111,32.4358-50.0952,32.467
		c-10.2538-27.1914-17.3949-55.3029-18.1096-85.2222c-0.0192-0.7987-0.2421-1.5709-0.5806-2.2928
		c11.0607,0.1945,22.3884-3.4399,31.5902-11.8821C1681.6893,1987.4946,1686.1705,1975.9207,1686.8378,1964.0441z
		 M1553.7761,1946.0594c6.2887,11.3575,13.625,21.8853,21.8798,31.6166c-5.8953,24.8341-5.0895,53.697-3.7921,76.8579
		c0.1101,1.9578,1.656,4.3521,3.621,6.2048c0.0184,0.3484,0.0228,0.6948,0.0411,1.0435
		c-7.464-5.2336-14.2358-10.4192-19.9844-15.0225c-33.5516-26.8662-63.5929-61.9292-84.3943-100.5909
		c2.5419-9.9501,5.3806-19.8523,8.484-29.6993c1.5382,0.3989,3.1959,0.0709,4.8171-1.3829
		c17.4891-15.6797,31.681-35.9977,54.3679-45.3761c19.5946-8.1,40.0593-5.8407,58.9584-0.0256
		c-13.2357-2.2771-27.1075-1.6937-41.4622,2.8209C1520.2332,1883.8541,1542.858,1926.3398,1553.7761,1946.0594z
		 M1425.5494,2091.3694c6.5214,10.9578,13.4048,21.7603,20.7227,32.281c0.3826,2.7266,0.7112,5.4614,1.1449,8.179
		c9.2217,57.7629,31.7458,124.8101,78.6177,165.2578c-57.7339-11.0139-95.0818-62.4636-125.5032-106.6921
		c-13.3103-19.3518-25.4771-39.5923-36.3723-60.5122c-0.9399-34.8911,1.9938-69.9497,9.2214-104.838
		c1.5093-7.2845,3.2313-14.5994,5.1515-21.9087C1391.7666,2033.9351,1409.0349,2063.6187,1425.5494,2091.3694z M1462.5303,2145.5647
		c17.791,22.4207,38.0316,42.9714,61.6119,60.1899c26.9451,19.6763,57.8171,35.2056,91.2999,43.4441
		c3.9169,8.5034,8.271,16.8059,13.0165,24.9143c-21.5966,14.9592-47.5677,24.1455-75.2631,25.0244
		C1500.4567,2263.9629,1474.0697,2206.6135,1462.5303,2145.5647z M1605.8683,2225.9578
		c-19.006-5.49-37.1036-13.4565-53.7856-23.1489c-38.7711-22.5254-69.1461-54.0449-94.2798-89.574
		c-5.2438-48.5415-1.835-97.9512,8.5735-146.5658c2.6897,5.3608,5.5559,10.6946,8.8092,15.9908
		c16.812,27.3696,37.6234,52.6002,62.1464,74.0513c12.4464,10.8875,25.8052,20.99,39.9246,30.0847
		c3.2391,37.9106,9.3879,75.5916,19.5294,111.3357C1599.4534,2207.5366,1602.4882,2216.8169,1605.8683,2225.9578z
		 M1550.616,1839.6917c0.5403,0.0831,0.9924,0.0618,1.4055-0.0013c1.2224,0.4663,2.4348,0.9733,3.6514,1.4664
		c-6.0366,0.3579-12.0928,1.3091-18.123,3.049c-16.3683,4.7227-30.0784,14.3787-41.3251,26.3254
		c0.1327-0.3252,0.2533-0.6547,0.3867-0.9797c1.3424-3.2723-3.767-10.0699-6.1792-5.4723
		c-11.1602,21.2721-20.3221,43.1857-27.5732,65.4919c-4.8853-10.7114-9.0448-21.6353-12.3342-32.6919
		c-1.7505-5.8812-10.645-6.838-8.6224,0.6814c4.6331,17.2231,9.4315,33.5823,15.7089,49.4729
		c-13.1301,47.2124-17.8058,95.879-14.7061,143.7837c-19.4028-31.0608-35.5575-64.2333-50.3004-96.5861
		c-2.3234-5.0995-4.6005-10.3978-6.7258-15.8318c19.0012-56.9567,52.0369-110.9283,105.406-143.8916
		C1511.5695,1834.3921,1531.9136,1836.8396,1550.616,1839.6917z M1398.0699,1866.9377c4.6047-4.4061,9.7128-8.3435,15.1929-11.6841
		c10.4189-6.351,26.8428-7.9858,35.6967-15.8694c-33.783,30.0812-42.2948,73.8313-71.7463,104.4093
		c-9.6006-14.7889-3.5698-40.2902,4.8909-56.0245C1386.2028,1880.1466,1391.6458,1873.0858,1398.0699,1866.9377z
		 M1321.0452,1920.2437c6.1465-13.8064,15.7338-25.2173,27.4484-34.2792c0.5692,0.0604,1.1741-0.0603,1.7993-0.5288
		c2.2673-1.7008,4.4275-3.4747,6.5533-5.2734c4.1639-2.6293,8.4863-5.0563,13.011-7.1659
		c-13.3737,23.8387-14.8267,52.0048-8.6056,78.8511c1.8265,7.8844,4.1029,15.7203,6.6803,23.5082
		c-4.264,13.8633-7.7195,27.6521-10.4277,41.0134c-5.433,26.8124-8.3519,54.0817-8.8744,81.2135
		c-12.3954-28.0417-22.4794-57.0858-29.8015-86.7566C1311.6333,1981.6697,1307.8953,1949.7833,1321.0452,1920.2437z
		 M1383.5748,2275.8259c-0.4252-0.3215-0.8689-0.6296-1.2919-0.9534c-50.006-38.2678-87.6533-90.8164-100.5902-151.9143
		c-10.6515-50.3025-1.5106-99.0698,16.2843-147.5098c3.0568,46.6583,21.9877,93.3562,40.2982,134.2754
		c3.5258,7.8787,7.2426,15.6931,11.1105,23.447c0.5571,8.9617,1.3019,17.8938,2.4207,26.7427
		c2.8273,22.3643,7.2098,44.479,13.3442,66.0476C1369.6235,2241.6851,1373.9401,2261.5366,1383.5748,2275.8259z
		 M1552.5085,2332.8535c-58.8706,3.3186-115.1458-18.8555-160.2075-50.6438c0.1439-0.324,0.2405-0.6831,0.2384-1.0784
		c-0.0837-18.7656-10.8245-38.0798-15.4412-56.114c-5.0336-19.6602-8.5211-39.7344-10.6385-60.032
		c20.5458,35.6926,44.8502,69.4331,72.8154,99.7832c32.2001,34.9458,74.4948,59.2402,125.3142,56.521
		c3.8757,1.6602,7.8346,3.2126,11.9446,4.5615c4.33,1.4202,5.4063-2.4092,4.6979-6.3257c0.2284-0.0381,0.4507-0.0525,0.6792-0.0916
		c22.0841-3.7637,42.395-12.3362,59.9664-24.3745c1.4786,1.8433,3.0552,3.5747,4.7452,5.1414
		C1619.6281,2319.1189,1587.7609,2330.8667,1552.5085,2332.8535z M1628.8809,2252.051c7.2029,1.3181,14.5007,2.334,21.9087,2.9353
		c-4.5033,4.7664-9.3557,9.2166-14.4999,13.3281C1633.5155,2262.9082,1631.0643,2257.3435,1628.8809,2252.051z M1655.5101,2293.5798
		c-1.8342-1.3748-3.5912-2.9272-5.2629-4.6636c12.2938-9.7107,23.0068-21.1956,31.6849-33.989
		c4.0198-0.3748,7.96-0.9441,11.8594-1.6155C1682.8015,2268.6238,1669.9263,2282.155,1655.5101,2293.5798z M1695.2665,2230.6404
		c1.0101-2.3389,1.9407-4.7112,2.8274-7.1003c0.9503,1.8655,1.9252,3.7117,2.8989,5.5581
		C1699.1039,2229.6519,1697.2001,2230.1755,1695.2665,2230.6404z M1658.8351,2133.4695
		c8.1809,19.6628,16.3264,40.2463,25.2847,60.4875c-0.1064,0.3394-0.2435,0.6121-0.3336,0.9861
		c-3.3981,14.0103-9.1521,27.2112-16.7759,39.2241c-16.0481,0.3655-31.8394-1.3318-47.1444-4.6702
		c-8.005-20.5635-13.795-41.9839-18.1721-63.6848c-4.658-23.0876-7.2568-46.4231-9.2513-69.8523
		c8.8829,5.0625,18.001,9.7659,27.3879,13.9556c10.8521,4.8425,22.2212,8.8135,33.754,10.5063
		C1655.2786,2124.771,1657.0256,2129.1189,1658.8351,2133.4695z M1590.5237,2071.6846
		c-1.1379-15.4031-2.2695-30.8215-3.6899-46.2209c0.7184-11.5975,1.1622-23.2787,0.9904-34.7335
		c12.4286,12.134,26.5765,22.713,42.468,31.5165c0.5033,0.2791,0.9731,0.4875,1.436,0.6857
		c0.4877,24.9404,5.3259,48.5211,12.673,71.6669C1626.192,2091.2068,1607.3263,2082.0647,1590.5237,2071.6846z M1789.1785,2063.2297
		c0.751,6.2649,1.16,12.6357,1.2054,19.1052c0.1816,25.98-5.6987,54.1636-18.0018,79.1714
		c-3.08,6.2617-48.2048,69.8621-52.9055,61.9734c-6.2305-10.459-42.1755-102.7769-50.2556-102.3066
		c10.5936-0.6165,21.1959-3.6687,31.5419-10.3193c59.2239-38.0725,38.1727-110.1781,8.1412-153.1748
		c-13.6873-19.5946-32.7063-43.1808-55.5696-61.198c0.1334-0.6575,0.2242-1.3374,0.2726-2.0388
		c-0.2932,4.2528,62.9825,42.3687,70.715,49.4885C1759.14,1975.9901,1783.6013,2016.7034,1789.1785,2063.2297z M1818.7273,2008.543
		c6.0941,25.5594,3.5592,50.3787-5.0165,73.6665c-2.3027-33.6958-13.4069-66.7206-30.6582-95.7833
		c0.0702-23.4453-8.1875-47.838-19.7487-70.0624c0.5154,0.5884,1.0383,1.1733,1.5525,1.7631
		C1788.0029,1944.6964,1810.4591,1973.8641,1818.7273,2008.543z"/>
	<path class="st16" d="M1443.2303,1843.1727c-2.2821-1.8528-5.6716-2.6462-7.0848,0.7135c-0.3835,0.9093-0.646,1.8549-0.9678,2.7817
		C1438.0256,1845.6425,1440.7316,1844.4944,1443.2303,1843.1727z"/>
	<path class="st16" d="M1840.4146,2063.0066c0.4346-8.792,0.2549-17.5721-0.4492-26.2905
		c-6.9985-15.8289-16.022-30.7803-26.4631-44.8936c2.077,5.4368,3.8608,10.9971,5.2251,16.7205
		c4.8838,20.4855,4.1512,40.479-0.7177,59.6067c0.5913,1.8142,1.1614,3.6377,1.6838,5.4785
		c0.2328,0.8206,0.5018,1.6133,0.7914,2.3887c-18.3104,28.5535-29.6183,61.5669-43.9706,92.1699
		c-7.45,15.885-15.3647,31.8616-24.4303,46.8945c-9.0859,15.0681-20.6748,29.104-27.1998,45.532
		c-1.5441,3.8862-0.108,11.312,3.2567,16.2439c34.5363-31.5959,61.9611-70.2966,78.13-111.0598
		C1820.343,2130.322,1838.51,2101.5989,1840.4146,2063.0066z"/>
	<path class="st16" d="M1444.7843,1844.8246c-0.1832-0.2788-0.4183-0.5472-0.6575-0.812c-4.132,4.1327-7.892,8.4641-11.3335,12.9631
		c-1.1079,9.0072-0.0922,18.5227,2.2675,28.0292c6.1373-7.7118,12.6997-15.0985,19.8076-22.0117
		C1451.8812,1856.7551,1448.6123,1850.6545,1444.7843,1844.8246z"/>
	<path class="st16" d="M1783.0519,1986.4261c0.0356-11.6896-2.0032-23.6144-5.4858-35.3887
		c-8.1965-8.0005-16.7225-15.6627-25.4258-22.9982c0.599,1.3828,1.2102,2.7605,1.7844,4.1554
		c3.2747,7.9532,5.7648,15.9729,7.8125,24.0709c-1.4089-1.6908-2.8158-3.3832-4.2689-5.0277
		c-12.3925-14.0261-26.3092-27.1007-41.3365-39.1219c-1.7291-5.6604-3.8679-11.2368-6.3162-16.7255
		c-0.4225-0.3016-0.8468-0.6096-1.2686-0.9092c-10.1018-7.1787-20.4066-14.0388-30.8635-20.6488
		c4.2621,6.1024,8.1428,12.3734,11.761,18.811c-18.6536-12.4237-38.4851-23.3612-58.9203-32.5913
		c-19.4199-17.8143-44.6429-31.7543-68.0375-41.3436c-11.3014-4.6324-23.8927-9.0377-37.0079-12.225
		c-0.5946-1.0533-1.2819-2.0621-2.1096-2.9139c2.7444-0.6025,5.5021-1.2493,8.23-1.8036c0.2145-0.0435,0.4218-0.0668,0.6361-0.1094
		c-7.2545-2.4014-14.6711-4.0988-22.3439-4.1812c-8.7788-0.095-3.5208,13.8223-0.3534,16.925
		c9.3615,9.1683,20.2596,16.9255,31.7734,23.9707c3.1198,0.4337,6.2635,0.8568,9.3046,1.3203
		c0.5403,0.0831,0.9924,0.0618,1.4055-0.0013c1.2224,0.4663,2.4348,0.9733,3.6514,1.4664c-2.7357,0.162-5.4756,0.4657-8.2164,0.8895
		c4.6084,2.6831,9.2877,5.2742,13.9827,7.8132c6.5703,5.0726,12.8567,10.3872,19.0204,15.8076
		c5.8655,0.9214,11.6649,2.2793,17.3152,4.0177c-4.6587-0.8014-9.4005-1.226-14.2097-1.272
		c12.5714,11.285,24.3669,23.2554,35.5841,35.7826c2.6881,1.1117,5.3372,2.2992,7.9005,3.6239
		c15.6515,8.0851,29.0796,19.9175,40.9318,33.0193c4.3621,10.5994,4.5792,22.7717-0.8086,33.4244
		c3.2485,5.4885,6.6543,11.1248,9.6136,16.8639c6.412-8.0789,9.5111-17.4694,10.0514-27.0829
		c1.6986,2.2808,3.3745,4.5586,5.0101,6.8209c19.0586,26.3788,34.3381,59.8389,17.0923,92.6841
		c-12.4541,23.7195-30.4111,32.4358-50.0952,32.4661c-6.8848-18.2556-12.3073-36.9438-15.3823-56.2992
		c-3.7338-1.2599-7.4357-2.6357-11.0652-4.0775c1.5957,20.2981,5.9165,39.7849,12.0037,58.9607
		c-18.2091-3.3923-37.0748-12.5344-53.8774-22.9146c-1.1379-15.4031-2.2695-30.8215-3.6899-46.2209
		c0.2151-3.474,0.394-6.9551,0.551-10.4362c-5.3446-2.7883-10.6144-5.7428-15.8091-8.8257
		c-1.1443,16.7511-0.5331,33.6816,0.2881,48.3314c0.1101,1.9585,1.656,4.3528,3.621,6.2056
		c0.0184,0.3484,0.0228,0.6948,0.0411,1.0435c-7.464-5.2336-14.2358-10.4192-19.9844-15.0225
		c-33.5516-26.8662-63.5929-61.9292-84.3943-100.5909c2.537-9.9323,5.3715-19.817,8.4678-29.6461
		c-2.5732-4.3733-4.9071-8.8561-7.0765-13.4119c-3.5045,8.7545-6.7882,17.5652-9.6794,26.4602
		c-4.8853-10.7114-9.0448-21.6353-12.3342-32.6919c-1.7505-5.8812-10.645-6.838-8.6224,0.6814
		c1.9655,7.3049,3.9871,14.4261,6.1116,21.4508c3.0645,6.2893,6.2277,12.2272,9.1571,17.5546
		c10.8224,19.6812,23.8757,37.8696,38.8868,54.3444c30.6589,55.0885,96.1425,104.5868,159.2521,107.0861
		c12.6871,0.5027,24.8461-2.2239,35.3021-7.6477c6.9763-1.6975,13.6013-5.0166,19.6152-10.5703
		c3.2625-3.0127,4.4493-7.073,4.193-11.3669c4.1221-6.7334,6.9956-14.4636,8.222-23.0834
		c5.5994-39.3561-17.0491-77.8278-40.5634-107.2905c-0.4387-0.5494-0.8746-0.9641-1.3126-1.4601
		c-6.1451-10.4362-13.0604-20.345-20.6005-29.7441c5.2941,3.359,10.5094,6.8259,15.7296,10.285
		c-7.0142-7.2837-14.5348-14.3127-22.561-20.6373c0.1334-0.6575,0.2242-1.3374,0.2726-2.0394
		c-0.2932,4.2527,62.9818,42.3693,70.715,49.4891c10.6371,9.7944,20.2922,20.4059,28.7529,31.7344
		c21.3785,19.5861,40.4557,41.5275,53.6056,66.1287C1801.3276,2022.4042,1793.3099,2003.7059,1783.0519,1986.4261z"/>
	<path class="st16" d="M1684.0623,2224.2107c-1.5852,1.6157-3.2014,3.1995-4.8276,4.7732c-1.1095,0.0815-2.2283,0.2817-3.3577,0.76
		c-2.6825,1.1372-5.3458,2.0957-7.9991,2.9297c-0.3025,0.4897-0.5587,1.0073-0.8676,1.4927
		c-1.5474,0.0356-3.0792-0.0374-4.621-0.0403c-17.5474,4.2952-34.7939,2.96-53.632,1.0579
		c-9.7269-0.9827-20.1652-1.6763-30.4866-2.9568c-1.6565-8.5195-7.011-18.1479-11.7065-21.5842
		c-0.1364-0.1001-0.2771-0.1909-0.4132-0.2905c-4.7822-2.3848-9.4893-4.8828-14.0684-7.5435
		c-12.5631-7.2986-24.2314-15.5549-35.1382-24.5725c-8.5947-5.696-17.0144-11.6843-24.9696-18.4675
		c-21.752-18.5469-40.9752-39.5022-57.4436-62.874c-18.9573-26.9031-33.458-56.3518-45.4962-86.9158
		c-11.577-29.3934-17.1749-61.3401-31.2709-89.6232c-0.1428,10.478,1.0746,21.0818,3.4866,31.4916
		c1.8274,7.8844,4.1038,15.7196,6.6812,23.5074c-3.295,10.7124-6.0947,21.3735-8.452,31.833
		c1.052,3.1823,2.1011,6.3177,3.1204,9.3523c2.5065,7.4606,5.2678,14.8308,8.1825,22.14c0.7964-4.5471,1.6566-9.093,2.5979-13.6354
		c1.5093-7.2845,3.2313-14.5994,5.1515-21.9087c13.2345,30.799,30.5028,60.4818,47.0173,88.2333
		c6.5208,10.9578,13.4048,21.7603,20.7227,32.281c0.3826,2.7266,0.7112,5.4614,1.1449,8.179
		c2.1544,13.4983,5.0719,27.5063,8.8207,41.5615c5.8717,6.1436,11.9397,12.0715,18.1941,17.7603
		c-5.0513-14.7549-8.964-30.0471-11.9015-45.5864c17.791,22.4207,38.0316,42.9714,61.6119,60.1899
		c26.9451,19.6763,57.8163,35.2056,91.2999,43.4441c3.9161,8.5027,8.271,16.8052,13.0165,24.9143
		c-21.5966,14.9592-47.5677,24.1455-75.2631,25.0244c-1.2401-0.8264-2.3936-1.7251-3.6038-2.5762
		c-23.3292,4.2727-47.2803,4.8987-71.038,1.4253c24.9829,15.8511,53.7856,25.0286,86.0355,23.303
		c3.8757,1.6602,7.8346,3.2126,11.9446,4.5615c4.33,1.4202,5.4063-2.4092,4.6979-6.3257c0.2284-0.0381,0.4507-0.0525,0.6792-0.0916
		c22.0841-3.7637,42.395-12.3362,59.9664-24.3745c1.4786,1.8428,3.0552,3.5747,4.7452,5.1414
		c-26.9946,18.9182-58.8618,30.666-94.1141,32.6528c-58.8706,3.3179-115.1458-18.8564-160.2075-50.6438
		c0.1439-0.324,0.2405-0.6831,0.2384-1.0784c-0.0276-6.2688-1.2997-12.5984-3.0807-18.9219
		c-6.2269-4.3689-12.2419-9.0469-18.035-14.0286c3.0266,9.825,6.7356,19.6145,12.1511,27.645
		c-0.4252-0.3215-0.8689-0.6296-1.2919-0.9534c-50.0066-38.2678-87.6533-90.8164-100.5902-151.9143
		c-0.4631-2.1863-0.8406-4.3655-1.2296-6.5457c-0.8829,0.842-1.6155,2.1433-2.0919,4.0605
		c-4.8901,19.6919,4.9768,45.3337,12.4315,63.387c9.3147,22.5576,22.077,44.0901,37.2344,63.2148
		c29.4089,37.1064,69.0162,65.9541,113.5103,82.218c92.5001,33.813,204.6808,5.739,267.4419-70.5779
		C1720.2502,2245.0229,1699.0919,2208.8882,1684.0623,2224.2107z M1628.8809,2252.051c7.2029,1.3181,14.5007,2.334,21.9087,2.9353
		c-4.5033,4.7664-9.3557,9.2166-14.4999,13.3281C1633.5155,2262.9082,1631.0643,2257.3435,1628.8809,2252.051z M1655.5101,2293.5798
		c-1.8342-1.3748-3.5912-2.9272-5.2629-4.6643c12.2938-9.71,23.0068-21.1948,31.6849-33.9883
		c4.0198-0.3748,7.96-0.9441,11.8594-1.6155C1682.8015,2268.6238,1669.9263,2282.155,1655.5101,2293.5798z M1700.9928,2229.0981
		c-1.8889,0.5537-3.7927,1.0774-5.7263,1.5422c1.0101-2.3389,1.9407-4.7112,2.8274-7.1003
		C1699.0442,2225.4055,1700.019,2227.251,1700.9928,2229.0981z"/>
	<path class="st17" d="M1646.3977,2055.1829c-2.2849-10.1077-3.9326-20.3976-4.8574-30.8912
		c-0.2605-0.3101-0.5225-0.597-0.7836-0.8354c-37.0719-33.8435-94.1484-74.6532-94.8817-130.5352
		c-0.0087-0.6276-0.2059-1.4844-0.5494-2.4362c6.8571-5.6292,14.1948-10.5271,22.3672-14.4164
		c2.8912-1.3756,3.5002-3.9978,2.9048-6.7853c-4.7057,0.67-9.4651,1.7063-14.285,3.2225
		c-36.0793,11.3477-13.4545,53.8341-2.5364,73.5537c6.2887,11.3575,13.625,21.8853,21.8798,31.6166
		c-3.4031,14.3339-4.538,29.9945-4.6702,45.1418c7.7587,5.0343,12.4598,3.1277,14.8685-1.6594
		c0.3796,0.3712,0.7751,0.7234,1.157,1.0917c0.604-10.5398,0.969-21.1221,0.8129-31.52
		c12.4286,12.134,26.5765,22.713,42.468,31.5165c0.5033,0.2791,0.9731,0.4875,1.436,0.6857
		c0.2192,11.2079,1.3572,22.1302,3.1658,32.8729c0.4694,0.2087,0.9292,0.4502,1.3999,0.6533
		C1641.3906,2058.6523,1644.5785,2057.7637,1646.3977,2055.1829z"/>
	<path class="st17" d="M1568.549,1864.4796c-1.5824-2.486-3.7247-4.5594-5.5404-5.2983
		c-32.1909-13.0996-72.5223,13.9364-70.6411,48.3469c14.16-14.1522,27.2716-29.8903,46.4489-37.8177
		C1548.6112,1865.6614,1558.623,1864.2013,1568.549,1864.4796z"/>
	<path class="st17" d="M1672.5331,2204.7063c-1.7872-1.7141-3.6591-3.2888-5.4977-4.9185
		c4.8079,7.5217,9.8417,14.8682,15.2557,21.8872C1679.5836,2214.354,1675.7979,2207.8354,1672.5331,2204.7063z"/>
	<path class="st17" d="M1494.4309,2294.2849c4.2322-0.0635,6.8379-1.7188,8.3173-4.2458
		c-44.8396-18.4617-76.1013-61.6765-102.2167-99.644c-13.3103-19.3518-25.4775-39.5923-36.3723-60.5129
		c-0.3679-13.6362-0.1215-27.2986,0.7189-40.9658c-1.8525-3.7935-3.7401-7.5715-5.5133-11.3982
		c-2.9231-6.3071-5.6318-12.748-8.2618-19.2383c-1.3813,13.0891-2.2212,26.2112-2.4731,39.3027
		c-12.3954-28.0425-22.4794-57.0858-29.8015-86.7566c-1.7981-7.2853-3.3795-14.7408-4.5359-22.2878
		c-1.3984,0.4821-2.5576,1.8257-3.1531,4.4081c-6.8083,29.527,6.1593,63.9196,17.0951,90.9938
		c12.9448,32.0491,29.1863,62.7732,46.3552,92.7344c5.4154,9.4509,10.9822,18.7949,16.829,27.9404
		c13.8243,20.1101,28.9767,39.322,45.384,57.3884C1452.6506,2277.8853,1473.4513,2294.5979,1494.4309,2294.2849z"/>
	<path class="st17" d="M1502.1938,1782.7059c-59.4136,16.5529-110.4346,38.0457-152.3331,80.5507
		c18.8108-0.6973,36.7842-13.4963,52.9736-22.058c18.4779-9.7725,37.1754-19.1481,55.9075-28.42
		c24.0007-11.8813,49.2194-25.6796,75.6365-33.3705c13.4735,0.3044,27.0543,1.0887,40.4102,2.5439
		c22.0372,2.4008,43.757,6.4951,65.0013,12.5544c27.7544,21.9781,59.4695,39.6434,87.5,61.0199
		c19.7288,15.045,37.6205,32.1694,55.6392,49.0865c-31.7266-39.0751-72.4612-72.0801-113.6714-101.2098
		C1622.0145,1770.0089,1560.7484,1766.3928,1502.1938,1782.7059z"/>
</g>
<path class="st18" d="M1849.647,1124.6603c-2.0334-19.1921,3.3778-39.4569,16.51-51.3607
	c35.7496-32.3955,74.3928,5.9447,77.9297,44.1726c18.308,2.7819,37.3704,10.1794,50.3612,22.5076
	c9.9501-11.9038,25.7646-19.3424,46.7723-17.8425c49.9724,3.5667,91.1387,41.0546,60.7058,91.8406
	c-18.3787,30.6505-67.3195,34.01-92.8958,13.9458c-4.9686-3.8992-9.1775-8.2286-12.7313-12.8202
	c-12.8497,16.0505-32.8085,26.6808-53.3738,27.7563c-35.938,1.8772-58.5958-18.4171-67.4902-43.2762
	c-12.0602,20.3915-33.3685,28.1776-65.6107,12.5901C1745.2927,1180.978,1804.4489,1117.5839,1849.647,1124.6603z"/>
</svg>
