<?xml version="1.0" encoding="utf-8"?>
<!-- Generator: Adobe Illustrator 21.1.0, SVG Export Plug-In . SVG Version: 6.00 Build 0)  -->
<svg version="1.1" id="Layer_1" xmlns="http://www.w3.org/2000/svg" xmlns:xlink="http://www.w3.org/1999/xlink" x="0px" y="0px"
	 viewBox="0 0 1024 1024" style="enable-background:new 0 0 1024 1024;" xml:space="preserve">
<style type="text/css">
	.st0{fill:url(#SVGID_1_);}
	.st1{fill:#FFFFFF;}
</style>
<title>Artboard 2 copy</title>
<linearGradient id="SVGID_1_" gradientUnits="userSpaceOnUse" x1="-1766.04" y1="-624" x2="-1766.04" y2="400" gradientTransform="matrix(-1 0 0 1 -1254.04 624)">
	<stop  offset="0" style="stop-color:#3073AD"/>
	<stop  offset="1" style="stop-color:#23527B"/>
</linearGradient>
<path class="st0" d="M787.56,1024H236.44C105.8578,1024,0,918.1422,0,787.56V236.44C0,105.8578,105.8578,0,236.44,0h551.12
	C918.1422,0,1024,105.8578,1024,236.44v551.12C1024,918.1422,918.1422,1024,787.56,1024z"/>
<polygon class="st1" points="337.33,217.15 173.34,311.88 337.3,406.54 337.33,406.54 337.33,406.58 501.36,311.88 501.33,311.84 
	"/>
<polygon class="st1" points="342.63,623.58 342.63,806.86 501.36,715.22 "/>
<polygon class="st1" points="332.03,806.86 332.03,605.19 681.33,806.86 681.33,617.46 168,321.09 168,712.16 "/>
<polygon class="st1" points="681.33,220.24 522.67,311.88 681.33,403.48 "/>
<polygon class="st1" points="691.97,220.24 691.97,421.91 512.04,318 512,318 347.97,412.69 691.97,611.3 691.97,806.86 856,712.16 
	856,314.94 "/>
</svg>
