<?xml version="1.0" encoding="utf-8"?>
<!-- Generator: Adobe Illustrator 23.0.1, SVG Export Plug-In . SVG Version: 6.00 Build 0)  -->
<svg version="1.1" id="Layer_1" xmlns="http://www.w3.org/2000/svg" xmlns:xlink="http://www.w3.org/1999/xlink" x="0px" y="0px"
	 width="299.8717px" height="259.7696px" viewBox="0 0 299.8717 259.7696" style="enable-background:new 0 0 299.8717 259.7696;"
	 xml:space="preserve">
<style type="text/css">
	.st0{fill-rule:evenodd;clip-rule:evenodd;fill:#CECECE;}
	.st1{fill-rule:evenodd;clip-rule:evenodd;fill:#999999;}
	.st2{fill-rule:evenodd;clip-rule:evenodd;fill:#0073B5;}
	.st3{opacity:0.15;fill-rule:evenodd;clip-rule:evenodd;enable-background:new    ;}
	.st4{fill-rule:evenodd;clip-rule:evenodd;fill:#FFFFFF;}
	.st5{fill-rule:evenodd;clip-rule:evenodd;fill:#FAAC2B;}
	.st6{fill-rule:evenodd;clip-rule:evenodd;fill:#ED2E7A;}
	.st7{fill-rule:evenodd;clip-rule:evenodd;fill:#6CBD45;}
	.st8{fill-rule:evenodd;clip-rule:evenodd;fill:#4172B0;}
	.st9{fill-rule:evenodd;clip-rule:evenodd;fill:#BBC3CF;}
	.st10{fill-rule:evenodd;clip-rule:evenodd;fill:#4E4E4E;}
</style>
<g id="BG">
</g>
<g id="txt">
</g>
<path class="st0" d="M182.0904,221.8338h-64.3078v28.6736c10.0453-0.5073,20.8687-0.7841,32.1535-0.7841
	c11.2843,0,22.1077,0.2768,32.1543,0.7841V221.8338z"/>
<path class="st1" d="M251.5233,56.8791H48.3502c-11.4334,0-20.7862,9.3664-20.7862,20.813v126.5595
	c0,11.4482,9.3545,20.8146,20.7862,20.8146h203.1731c11.4329,0,20.7844-9.3664,20.7844-20.8146V77.6921
	C272.3077,66.2455,262.9562,56.8791,251.5233,56.8791z"/>
<path class="st0" d="M251.5233,53.8767H48.3502c-11.4334,0-20.7862,9.3664-20.7862,20.813v126.5594
	c0,11.4482,9.3545,20.8145,20.7862,20.8145h203.1731c11.4329,0,20.7844-9.3663,20.7844-20.8145V74.6897
	C272.3077,63.2431,262.9562,53.8767,251.5233,53.8767z"/>
<path class="st2" d="M245.8653,63.0417H54.0081c-8.8767,0-16.1406,7.2741-16.1406,16.1631v114.946
	c0,8.8903,7.2639,16.1644,16.1406,16.1644h191.8572c8.8767,0,16.1402-7.2729,16.1402-16.1644V79.2048
	C262.0055,70.3158,254.742,63.0417,245.8653,63.0417z"/>
<path class="st1" d="M149.9361,246.3343c-36.4941,0-68.1969,2.8931-84.2081,7.1391c-3.6181,0.9583-2.9002,6.2962,0.8426,6.2962
	h166.7318c3.7434,0,4.4594-5.3379,0.8426-6.2962C218.1325,249.2274,186.431,246.3343,149.9361,246.3343z"/>
<g>
	<path class="st3" d="M45.5827,157.1547c0.0012,8.3313,6.8146,15.1422,15.1306,15.1412l110.3105-0.017
		c8.33-0.0013,15.141-6.8145,15.1397-15.1461L186.144,27.6285c-0.0014-8.3298-6.8149-15.1406-15.1447-15.1393L60.689,12.5056
		c-8.316,0.0012-15.1271,6.8148-15.126,15.1446C45.5699,70.8179,45.5763,113.9865,45.5827,157.1547z"/>
	<g>
		<path class="st4" d="M196.7838,27.7101l-0.0186,116.9553c-0.0013,8.3316-6.8145,15.1428-15.1307,15.1415L71.3242,159.79
			c-8.3299-0.0011-15.1411-6.8145-15.1399-15.1458L56.203,27.6885L196.7838,27.7101z"/>
		<path class="st5" d="M71.3487,0l110.3101,0.0166c8.3163,0.0015,15.1276,6.8145,15.1261,15.1445l-0.002,12.5492L56.2023,27.6887
			l0.0019-12.5492C56.2053,6.8099,63.0185-0.0012,71.3487,0z"/>
		<path class="st6" d="M160.9655,10.1278c2.9937,0.0003,5.4157,2.4214,5.4151,5.4155c-0.0004,2.9938-2.423,5.4156-5.417,5.4153
			c-2.9939-0.0006-5.4142-2.4231-5.4138-5.4171C155.5504,12.5476,157.9712,10.1274,160.9655,10.1278z"/>
		<path class="st7" d="M177.3326,10.1304c2.9805,0.0002,5.4144,2.4213,5.4138,5.4152c-0.0006,2.9938-2.4349,5.4158-5.4155,5.4153
			c-2.9938-0.0004-5.4275-2.4231-5.4271-5.4169C171.9041,12.5501,174.3386,10.1301,177.3326,10.1304z"/>
		<path class="st8" d="M144.6115,10.1253c2.9937,0.0004,5.4159,2.4214,5.4153,5.4153c-0.0006,2.994-2.423,5.4158-5.417,5.4155
			c-2.9926-0.0006-5.4144-2.4232-5.414-5.4171C139.1966,12.545,141.6191,10.1249,144.6115,10.1253z"/>
		<path class="st9" d="M150.1361,60.2405h-12.3916c-2.3171,0-4.2127,1.896-4.2127,4.2128v0.0004
			c0,2.3173,1.8959,4.2128,4.2127,4.2128h12.3916c2.3169,0,4.2132-1.8952,4.2132-4.2128v-0.0004
			C154.3493,62.1361,152.4534,60.2405,150.1361,60.2405L150.1361,60.2405z M150.1361,44.9975h-20.5685
			c-2.3169,0-4.2125,1.8958-4.2125,4.2128v0.0006c0,2.3176,1.8956,4.2126,4.2125,4.2126h20.5685
			c2.3173,0,4.2132-1.895,4.2132-4.2126v-0.0006C154.3493,46.8933,152.4534,44.9975,150.1361,44.9975L150.1361,44.9975z
			 M114.9431,53.4235h-1.9739c-2.317,0-4.2125-1.8956-4.2125-4.2126v-0.0006c0-2.3177,1.8955-4.2128,4.2125-4.2128h1.9739
			c2.3172,0,4.2125,1.8951,4.2125,4.2128v0.0006C119.1556,51.5279,117.2603,53.4235,114.9431,53.4235L114.9431,53.4235z
			 M150.1361,130.4967h-7.8044c-2.317,0-4.2123-1.8959-4.2123-4.2129v-0.0005c0-2.3176,1.8957-4.2126,4.2123-4.2126h7.8044
			c2.3173,0,4.2132,1.8955,4.2132,4.2126v0.0005C154.3493,128.6004,152.4538,130.4967,150.1361,130.4967L150.1361,130.4967z
			 M125.3338,99.582h-1.9737c-2.317,0-4.2123-1.8959-4.2123-4.2129v-0.0006c0-2.3176,1.8955-4.2125,4.2123-4.2125h1.9737
			c2.317,0,4.2131,1.8955,4.2131,4.2125v0.0006C129.5469,97.6857,127.6512,99.582,125.3338,99.582L125.3338,99.582z
			 M127.0788,130.4967H82.8319c-2.3184,0-4.2133-1.8959-4.2133-4.2129v-0.0005c0-2.3176,1.8955-4.2126,4.2133-4.2126h44.2469
			c2.3173,0,4.213,1.8959,4.213,4.2126v0.0005C131.2918,128.6004,129.3965,130.4967,127.0788,130.4967L127.0788,130.4967z
			 M82.8308,99.582h24.0348c2.3157,0,4.2121-1.8959,4.2121-4.2129v-0.0006c0-2.3176-1.8954-4.2125-4.2121-4.2125H82.8308
			c-2.3169,0-4.2122,1.8958-4.2122,4.2125v0.0006C78.6186,97.6853,80.5149,99.582,82.8308,99.582L82.8308,99.582z M82.8317,115.0393
			h26.2916c2.3173,0,4.2131-1.8957,4.2131-4.2128v-0.0004c0-2.3178-1.8949-4.2131-4.2131-4.2131H82.8317
			c-2.3182,0-4.2131,1.8958-4.2131,4.2131S80.5145,115.0393,82.8317,115.0393L82.8317,115.0393z M82.8308,84.1246h24.0348
			c2.3157,0,4.2121-1.8955,4.2121-4.2129v-0.0002c0-2.318-1.8954-4.2129-4.2121-4.2129H82.8308
			c-2.3169,0-4.2122,1.8955-4.2122,4.2129v0.0002C78.6186,82.2283,80.5149,84.1246,82.8308,84.1246L82.8308,84.1246z
			 M125.3338,115.0393h-1.9737c-2.317,0-4.2123-1.8957-4.2123-4.2128v-0.0004c0-2.3178,1.8955-4.2131,4.2123-4.2131h1.9737
			c2.317,0,4.2131,1.8957,4.2131,4.2131v0.0004C129.5469,113.1434,127.6512,115.0393,125.3338,115.0393L125.3338,115.0393z
			 M125.3338,84.1246h-1.9737c-2.317,0-4.2123-1.8955-4.2123-4.2129v-0.0002c0-2.318,1.8955-4.2129,4.2123-4.2129h1.9737
			c2.317,0,4.2131,1.8953,4.2131,4.2129v0.0002C129.5469,82.2287,127.6512,84.1246,125.3338,84.1246L125.3338,84.1246z
			 M84.8045,68.6665h-1.9736c-2.3172,0-4.2123-1.8955-4.2123-4.2128v-0.0004c0-2.318,1.8968-4.2128,4.2123-4.2128h1.9736
			c2.3154,0,4.2126,1.8968,4.2126,4.2128v0.0004C89.0171,66.769,87.1216,68.6665,84.8045,68.6665L84.8045,68.6665z
			 M123.4934,68.6665H99.4591c-2.3172,0-4.2127-1.8955-4.2127-4.2128v-0.0004c0-2.318,1.8959-4.2128,4.2127-4.2128h24.0343
			c2.3167,0,4.2125,1.8952,4.2125,4.2128v0.0004C127.7059,66.7706,125.8104,68.6665,123.4934,68.6665z"/>
	</g>
</g>
<g>
	<path class="st3" d="M94.5827,195.1547c0.0012,8.3313,6.8146,15.1422,15.1306,15.1412l110.3105-0.017
		c8.33-0.0013,15.141-6.8145,15.1397-15.1461L235.144,65.6285c-0.0014-8.3298-6.8149-15.1406-15.1447-15.1393L109.689,50.5056
		c-8.316,0.0012-15.1271,6.8148-15.126,15.1446C94.5699,108.8179,94.5763,151.9865,94.5827,195.1547z"/>
	<g>
		<path class="st4" d="M245.7617,60.1285l-0.0189,123.2298c-0.0013,8.3311-6.8143,15.1423-15.1306,15.141l-110.3102-0.0167
			c-8.3302-0.0015-15.1412-6.8145-15.1399-15.146l0.0188-123.2297L245.7617,60.1285z"/>
		<path class="st5" d="M120.3265,38.6924l110.3098,0.0168c8.3165,0.0013,15.1275,6.8148,15.1264,15.1443l-0.0021,12.5492
			l-140.5807-0.0213l0.0017-12.5493C105.183,45.5023,111.9961,38.6911,120.3265,38.6924z"/>
		<path class="st6" d="M209.9427,48.8202c2.9942,0.0005,5.416,2.4214,5.4157,5.4153c-0.0004,2.9942-2.4232,5.416-5.4173,5.4156
			c-2.9938-0.0005-5.4139-2.4231-5.4135-5.4172C204.5281,51.24,206.949,48.8198,209.9427,48.8202z"/>
		<path class="st7" d="M226.3102,48.8227c2.9807,0.0005,5.414,2.4214,5.4136,5.4154c-0.0002,2.9941-2.4348,5.4159-5.4151,5.4155
			c-2.9938-0.0007-5.4277-2.4231-5.4272-5.4172C220.8819,51.2425,223.3164,48.8225,226.3102,48.8227z"/>
		<path class="st8" d="M193.5891,48.8177c2.9939,0.0007,5.4157,2.4214,5.4153,5.4153c-0.0004,2.9942-2.4232,5.4158-5.4169,5.4156
			c-2.9925-0.0003-5.4143-2.4231-5.4139-5.4172C188.1742,51.2376,190.5967,48.8173,193.5891,48.8177z"/>
		<path class="st9" d="M152.1774,88.9795c1.8343,0.0004,3.3364-1.5019,3.3368-3.3364v-0.0002
			c0.0002-1.8348-1.5005-3.3366-3.3358-3.337l-21.1407-0.003c-1.8358-0.0002-3.3358,1.5009-3.336,3.3363
			c-0.0003,1.8355,1.502,3.337,3.3353,3.3372L152.1774,88.9795L152.1774,88.9795z M151.8592,101.9273
			c1.8351,0.0002,3.337-1.501,3.3372-3.3359V98.591c0.0002-1.8352-1.5004-3.3371-3.3364-3.3373l-20.8226-0.0031
			c-1.837-0.0003-3.3374,1.5004-3.338,3.3367c-0.0001,1.8357,1.501,3.3365,3.337,3.3369L151.8592,101.9273L151.8592,101.9273z
			 M162.6556,101.9288c-1.8359-0.0002-3.3366-1.5027-3.336-3.3368v-0.0004c0.0002-1.8345,1.5026-3.3364,3.3371-3.3364
			l25.9462,0.0041c1.8343,0.0004,3.3364,1.5015,3.3363,3.3375v0.0002c-0.0002,1.836-1.502,3.336-3.3374,3.3358L162.6556,101.9288
			L162.6556,101.9288z M200.859,101.6454c-1.8351-0.0002-3.3362-1.5027-3.336-3.3372l0,0c0.0005-1.8349,1.5034-3.3366,3.3367-3.3364
			l19.0359,0.0031c1.8335,0.0004,3.3362,1.5018,3.336,3.3373l0,0c-0.0003,1.8351-1.5021,3.3362-3.3369,3.336L200.859,101.6454
			L200.859,101.6454z M205.2801,88.9877c1.834,0,3.3363-1.5013,3.3365-3.3362l0,0c0.0003-1.8353-1.4999-3.3372-3.3353-3.3374
			l-12.7219-0.0018c-1.8351-0.0002-3.3359,1.5009-3.336,3.3361c-0.0006,1.8353,1.5015,3.3368,3.3348,3.3374L205.2801,88.9877
			L205.2801,88.9877z M159.0044,85.6438v-0.0003c0.0005-1.8343,1.503-3.3362,3.3364-3.3358l16.9311,0.0025
			c1.8338,0.0001,3.336,1.5016,3.3358,3.3367v0.0006c-0.0001,1.8356-1.502,3.3364-3.3367,3.3362l-16.9312-0.0027
			C160.5055,88.9808,159.0042,87.4776,159.0044,85.6438z"/>
	</g>
</g>
<g>
	<path class="st3" d="M151.8264,187.5194c0,7.2592,5.9362,13.1954,13.1825,13.1954h37.5724l14.5647,14.5646
		c2.0364,2.0363,5.3693,2.0369,7.4061,0l14.5643-14.5646h37.5609c7.2585,0,13.1944-5.9362,13.1944-13.1954v-35.9908
		c0-7.2584-5.9359-13.1943-13.1944-13.1943H165.0089c-7.2463,0-13.1825,5.9359-13.1825,13.1943V187.5194z"/>
	<path class="st6" d="M161.8264,175.5194c0,7.2592,5.9362,13.1954,13.1825,13.1954h37.5724l14.5647,14.5646
		c2.0364,2.0363,5.3693,2.0369,7.4061,0l14.5643-14.5646h37.5609c7.2585,0,13.1944-5.9362,13.1944-13.1954v-35.9908
		c0-7.2584-5.9359-13.1943-13.1944-13.1943H175.0089c-7.2463,0-13.1825,5.9359-13.1825,13.1943V175.5194z"/>
	<g>
		<path class="st4" d="M216.0346,147.1517h59.9136c5.8573,0,10.6491,4.7924,10.6491,10.6493v0.0002
			c0,5.8571-4.7918,10.6491-10.6491,10.6491h-59.9136c-5.8569,0-10.6495-4.7918-10.6495-10.6491v-0.0002
			C205.3851,151.9441,210.1775,147.1517,216.0346,147.1517z"/>
		<path class="st5" d="M216.0346,145.8556h59.9136c3.2863,0,6.2732,1.3435,8.4372,3.5081c2.1643,2.1645,3.5078,5.151,3.5078,8.4373
			v0.0002c0,3.2861-1.3437,6.2733-3.5078,8.4373c-2.164,2.164-5.1511,3.5077-8.4372,3.5077h-59.9136
			c-3.2861,0-6.2733-1.3435-8.4376-3.5077c-2.1641-2.164-3.5078-5.151-3.5078-8.4373v-0.0002c0-3.2863,1.3437-6.2728,3.5078-8.4373
			C209.7613,147.199,212.7485,145.8556,216.0346,145.8556L216.0346,145.8556z M275.9482,148.4476h-59.9136
			c-2.5706,0-4.9088,1.0529-6.6049,2.7487c-1.696,1.6958-2.7485,4.0341-2.7485,6.6047v0.0002c0,2.5708,1.0529,4.9089,2.7485,6.6047
			c1.6961,1.6957,4.0343,2.7485,6.6049,2.7485h59.9136c2.5706,0,4.9089-1.0528,6.6047-2.7485
			c1.6957-1.6958,2.7484-4.0341,2.7484-6.6047v-0.0002c0-2.5706-1.0527-4.9089-2.7484-6.6047
			C280.8571,149.5007,278.519,148.4476,275.9482,148.4476z"/>
		<path class="st10" d="M226.6154,161.2108c-0.1029,0.1799-0.195,0.2805-0.2763,0.3018s-0.2159-0.0279-0.4045-0.1476l-1.207-0.873
			c-0.18-0.1286-0.2739-0.2355-0.2825-0.3212c-0.0086-0.0853,0.0601-0.2094,0.2058-0.3724l1.3994-1.4764l-1.9517-0.3211
			c-0.214-0.0343-0.3446-0.0878-0.3917-0.1605c-0.0471-0.0729-0.0363-0.2165,0.0319-0.4303l0.4625-1.4252
			c0.0598-0.2141,0.1325-0.3381,0.2182-0.3724c0.0857-0.0342,0.2224-0.0042,0.411,0.0899l1.8232,0.8216l-0.2953-1.9131
			c-0.0341-0.214-0.0193-0.3553,0.045-0.4236c0.064-0.0686,0.203-0.1027,0.4173-0.1027h1.5022c0.2138,0,0.349,0.0341,0.4047,0.1027
			c0.0555,0.0683,0.0662,0.2096,0.032,0.4236l-0.2569,1.9131l1.759-0.8216c0.1885-0.0941,0.3233-0.1241,0.4046-0.0899
			c0.0813,0.0343,0.1561,0.1583,0.2248,0.3724l0.475,1.4252c0.0683,0.2138,0.079,0.3574,0.0322,0.4303
			c-0.0473,0.0727-0.1777,0.1262-0.3919,0.1605l-1.9645,0.3211l1.4127,1.4764c0.1454,0.163,0.2138,0.2871,0.2053,0.3724
			c-0.0085,0.0857-0.1026,0.1926-0.2823,0.3212l-1.2072,0.873c-0.1884,0.1197-0.3207,0.1689-0.398,0.1476
			c-0.0771-0.0213-0.167-0.1219-0.2697-0.3018l-0.9501-1.8104L226.6154,161.2108L226.6154,161.2108z M235.8344,161.2108
			c-0.1025,0.1799-0.1945,0.2805-0.276,0.3018c-0.0811,0.0213-0.2159-0.0279-0.4043-0.1476l-1.207-0.873
			c-0.18-0.1286-0.2742-0.2355-0.2825-0.3212c-0.0088-0.0853,0.0599-0.2094,0.2052-0.3724l1.3996-1.4764l-1.9515-0.3211
			c-0.2138-0.0343-0.3446-0.0878-0.3917-0.1605c-0.0471-0.0729-0.0361-0.2165,0.0322-0.4303l0.4622-1.4252
			c0.06-0.2141,0.1327-0.3381,0.2184-0.3724c0.0855-0.0342,0.2224-0.0042,0.4108,0.0899l1.8234,0.8216l-0.2955-1.9131
			c-0.0343-0.214-0.0193-0.3553,0.0448-0.4236c0.0643-0.0686,0.2034-0.1027,0.4177-0.1027h1.5022
			c0.2138,0,0.3489,0.0341,0.4047,0.1027c0.0553,0.0683,0.066,0.2096,0.0318,0.4236l-0.2569,1.9131l1.7592-0.8216
			c0.1885-0.0941,0.3234-0.1241,0.4045-0.0899c0.0815,0.0343,0.1562,0.1583,0.2247,0.3724l0.475,1.4252
			c0.0685,0.2138,0.0793,0.3574,0.0322,0.4303c-0.0473,0.0727-0.1775,0.1262-0.3917,0.1605l-1.9645,0.3211l1.4123,1.4764
			c0.1456,0.163,0.214,0.2871,0.2057,0.3724c-0.0091,0.0857-0.1028,0.1926-0.2827,0.3212l-1.2068,0.873
			c-0.1886,0.1197-0.3209,0.1689-0.398,0.1476c-0.0771-0.0213-0.167-0.1219-0.2699-0.3018l-0.9501-1.8104L235.8344,161.2108
			L235.8344,161.2108z M245.0539,161.2108c-0.1026,0.1799-0.1947,0.2805-0.2762,0.3018c-0.0813,0.0213-0.2161-0.0279-0.4041-0.1476
			l-1.207-0.873c-0.18-0.1286-0.2742-0.2355-0.2829-0.3212c-0.0084-0.0853,0.0601-0.2094,0.2056-0.3724l1.3994-1.4764
			l-1.9515-0.3211c-0.2142-0.0343-0.3444-0.0878-0.3917-0.1605c-0.0471-0.0729-0.0363-0.2165,0.0322-0.4303l0.4622-1.4252
			c0.06-0.2141,0.1327-0.3381,0.2182-0.3724c0.0857-0.0342,0.2226-0.0042,0.411,0.0899l1.8232,0.8216l-0.2951-1.9131
			c-0.0342-0.214-0.0195-0.3553,0.0448-0.4236c0.0642-0.0686,0.2032-0.1027,0.4173-0.1027h1.5024
			c0.2139,0,0.3489,0.0341,0.4044,0.1027c0.0558,0.0683,0.0665,0.2096,0.0321,0.4236l-0.2569,1.9131l1.7594-0.8216
			c0.188-0.0941,0.323-0.1241,0.4043-0.0899c0.0815,0.0343,0.1564,0.1583,0.2249,0.3724l0.4749,1.4252
			c0.0686,0.2138,0.0792,0.3574,0.0321,0.4303c-0.0471,0.0727-0.1775,0.1262-0.3917,0.1605l-1.9645,0.3211l1.4125,1.4764
			c0.1454,0.163,0.2141,0.2871,0.2055,0.3724c-0.0089,0.0857-0.1027,0.1926-0.2827,0.3212l-1.207,0.873
			c-0.1882,0.1197-0.3209,0.1689-0.398,0.1476c-0.0769-0.0213-0.167-0.1219-0.2697-0.3018l-0.9503-1.8104L245.0539,161.2108
			L245.0539,161.2108z M254.2734,161.2108c-0.1029,0.1799-0.1949,0.2805-0.2764,0.3018c-0.0811,0.0213-0.2159-0.0279-0.4043-0.1476
			l-1.207-0.873c-0.18-0.1286-0.274-0.2355-0.2825-0.3212c-0.0086-0.0853,0.0601-0.2094,0.2054-0.3724l1.3996-1.4764l-1.9515-0.3211
			c-0.2142-0.0343-0.3446-0.0878-0.3919-0.1605c-0.0468-0.0729-0.0361-0.2165,0.0322-0.4303l0.462-1.4252
			c0.06-0.2141,0.1329-0.3381,0.2184-0.3724c0.0859-0.0342,0.2226-0.0042,0.4112,0.0899l1.823,0.8216l-0.2953-1.9131
			c-0.034-0.214-0.0193-0.3553,0.0452-0.4236c0.0639-0.0686,0.2031-0.1027,0.4171-0.1027h1.5022
			c0.2143,0,0.3491,0.0341,0.4048,0.1027c0.0556,0.0683,0.0665,0.2096,0.0319,0.4236l-0.2566,1.9131l1.7587-0.8216
			c0.1886-0.0941,0.3236-0.1241,0.4047-0.0899c0.0815,0.0343,0.156,0.1583,0.2249,0.3724l0.4751,1.4252
			c0.0682,0.2138,0.0792,0.3574,0.0321,0.4303c-0.0473,0.0727-0.1779,0.1262-0.3919,0.1605L256.7,158.322l1.4125,1.4764
			c0.1456,0.163,0.2141,0.2871,0.2053,0.3724c-0.0084,0.0857-0.1024,0.1926-0.2823,0.3212l-1.207,0.873
			c-0.1885,0.1197-0.3209,0.1689-0.398,0.1476s-0.167-0.1219-0.2696-0.3018l-0.9504-1.8104L254.2734,161.2108L254.2734,161.2108z
			 M263.4925,161.2108c-0.1025,0.1799-0.1949,0.2805-0.276,0.3018c-0.0813,0.0213-0.2161-0.0279-0.4043-0.1476l-1.2072-0.873
			c-0.1798-0.1286-0.274-0.2355-0.2823-0.3212c-0.0089-0.0853,0.0599-0.2094,0.2053-0.3724l1.3995-1.4764l-1.9517-0.3211
			c-0.2138-0.0343-0.3446-0.0878-0.3916-0.1605c-0.0469-0.0729-0.0362-0.2165,0.0323-0.4303l0.462-1.4252
			c0.0601-0.2141,0.1327-0.3381,0.2184-0.3724c0.0857-0.0342,0.2227-0.0042,0.4108,0.0899l1.8235,0.8216l-0.2956-1.9131
			c-0.0342-0.214-0.0191-0.3553,0.045-0.4236c0.0643-0.0686,0.2035-0.1027,0.4175-0.1027h1.5021
			c0.2142,0,0.349,0.0341,0.4047,0.1027c0.0555,0.0683,0.0661,0.2096,0.0319,0.4236l-0.2566,1.9131l1.7589-0.8216
			c0.1884-0.0941,0.3234-0.1241,0.4045-0.0899c0.0813,0.0343,0.1562,0.1583,0.2247,0.3724l0.4753,1.4252
			c0.0684,0.2138,0.079,0.3574,0.0319,0.4303c-0.047,0.0727-0.1775,0.1262-0.3915,0.1605l-1.9645,0.3211l1.4122,1.4764
			c0.1457,0.163,0.2142,0.2871,0.2056,0.3724c-0.0088,0.0857-0.1027,0.1926-0.2825,0.3212l-1.207,0.873
			c-0.1883,0.1197-0.3209,0.1689-0.398,0.1476s-0.1668-0.1219-0.2696-0.3018l-0.9503-1.8104L263.4925,161.2108z"/>
	</g>
	<path class="st7" d="M153.176,130.741l-12.5353,0.2503c-0.9144,0.0185-1.6418,0.7751-1.6234,1.69
		c0.018,0.9151,0.7747,1.6425,1.6902,1.6242l12.5348-0.2502c0.9148-0.0186,1.6417-0.7751,1.6239-1.6903
		C154.8478,131.4502,154.0908,130.7227,153.176,130.741L153.176,130.741z M155.6731,124.2027
		c0.8004,0.4414,1.0913,1.4484,0.649,2.2487c-0.4416,0.8007-1.4484,1.0912-2.2489,0.6495l-10.9803-6.051
		c-0.8006-0.4416-1.0912-1.4492-0.6494-2.249c0.4416-0.8004,1.4484-1.0917,2.2491-0.6492L155.6731,124.2027L155.6731,124.2027z
		 M161.1039,119.7843l-6.4846-10.7311c-0.4732-0.7818-1.491-1.032-2.2731-0.559c-0.7822,0.4736-1.0324,1.4915-0.559,2.2736
		l6.4845,10.7302c0.4734,0.7827,1.4912,1.0328,2.2732,0.5594C161.3271,121.5843,161.5773,120.5658,161.1039,119.7843
		L161.1039,119.7843z M168.0199,118.6761c0.0175,0.9147-0.7094,1.6716-1.6248,1.6895c-0.9141,0.0191-1.6712-0.7085-1.6895-1.624
		l-0.2507-12.5351c-0.0179-0.9141,0.7091-1.6716,1.6243-1.6898c0.9152-0.0181,1.6719,0.7088,1.6903,1.6237L168.0199,118.6761z"/>
	<path class="st4" d="M193.3112,154.6627h-13.8985c-2.357,0-4.285,1.9281-4.285,4.2851v0.4054v0.4056v4.2851l0,0
		c0,5.1599,4.2215,9.3813,9.3811,9.3813h3.7063c5.1598,0,9.3815-4.2214,9.3815-9.3813l0,0v-4.2851v-0.4056v-0.4054
		C197.5966,156.5908,195.6682,154.6627,193.3112,154.6627L193.3112,154.6627z M186.362,160.2226
		c1.3831,0,2.5041,1.1212,2.5041,2.5043c0,0.8836-0.4573,1.6601-1.1483,2.1059c0.012,0.0729,0.0184,0.1478,0.0184,0.2237v1.4344
		c0,0.7557-0.6185,1.3744-1.3742,1.3744l0,0c-0.7558,0-1.3743-0.6186-1.3743-1.3744v-1.4344c0-0.0759,0.0063-0.1508,0.0185-0.2236
		c-0.6907-0.4459-1.1487-1.2224-1.1487-2.106C183.8575,161.3438,184.9789,160.2226,186.362,160.2226L186.362,160.2226z
		 M193.5724,151.3944c0,1.0881-0.8818,1.9699-1.9695,1.9699c-1.0882,0-1.9699-0.8818-1.9699-1.9699v-2.0068l0,0
		c0-0.9038-0.366-1.7216-0.9578-2.3134c-0.5965-0.5965-1.415-0.9652-2.313-0.9652v0.0074h-0.0002
		c-0.9037,0-1.7213,0.3663-2.313,0.9578c-0.5917,0.592-0.958,1.4099-0.958,2.3134v2.0068c0,1.0881-0.882,1.9699-1.9701,1.9699
		c-1.0876,0-1.9695-0.8818-1.9695-1.9699v-2.0068c0-1.9911,0.8069-3.7939,2.112-5.0986s3.1075-2.1123,5.0986-2.1123h0.0002v0.0078
		c1.9959,0,3.7981,0.8044,5.0984,2.1045c1.3049,1.3047,2.1118,3.1075,2.1118,5.0986l0,0L193.5724,151.3944L193.5724,151.3944z"/>
</g>
</svg>
