<?xml version="1.0" encoding="UTF-8"?>
<svg width="58px" height="58px" viewBox="0 0 58 58" version="1.1" xmlns="http://www.w3.org/2000/svg" xmlns:xlink="http://www.w3.org/1999/xlink">
    <!-- Generator: sketchtool 53.2 (72643) - https://sketchapp.com -->
    <title>F02922E2-104D-46CB-B813-492FFC1DF2F3</title>
    <desc>Created with sketchtool.</desc>
    <g id="01.-Home" stroke="none" stroke-width="1" fill="none" fill-rule="evenodd">
        <g id="SVG" transform="translate(-497.000000, -1049.000000)" fill="#E51D74" fill-rule="nonzero">
            <g id="fVideos" transform="translate(497.000000, 1049.000000)">
                <path d="M12.5327598,2.0602749 C6.82922911,3.27881158 2.47295255,7.89652808 1.58852197,13.6613253 C0.769495232,18.9998289 0.359999969,24.3380963 0.359999969,29.6762824 C0.359999969,34.6290192 0.712494139,39.581821 1.41750943,44.5348122 C2.30844637,50.7939711 7.2729489,55.6856088 13.5445965,56.4839083 C18.5127266,57.1162859 23.4807206,57.432466 28.448668,57.432466 C33.6371688,57.432466 38.8257225,57.0875889 44.014431,56.3978142 C50.009423,55.600854 54.8204287,51.0545254 55.9549887,45.1141666 C56.9378893,39.9678544 57.4292969,34.8219897 57.4292969,29.6762824 C57.4292969,24.1464354 56.861781,18.616393 55.726636,13.0857994 C54.6142752,7.66621403 50.4228554,3.40518007 45.0223261,2.20370363 C39.497227,0.974516302 33.972823,0.359999969 28.448668,0.359999969 C23.1437185,0.359999969 17.8385486,0.926714206 12.5327598,2.0602749 Z" id="Rectangle" stroke="#E51D74" stroke-width="0.719999938" fill-opacity="0.05"></path>
                <path d="M21.895525,37.0827 C20.9555,37.0827 20.3,36.334575 20.3,35.26345 L20.3,22.117825 C20.3,21.04765 20.955975,20.3 21.894575,20.3 C22.1943,20.3 22.5059,20.375525 22.82035,20.52515 L37.2594,27.386525 C38.157625,27.81355 38.2911,28.38735 38.2911,28.691825 C38.2911,28.995825 38.156675,29.569625 37.2594,29.99475 L22.82035,36.858025 C22.5059,37.007175 22.194775,37.0827 21.895525,37.0827 Z M21.894575,21.25 C21.3127,21.25 21.25,21.85705 21.25,22.117825 L21.25,35.26345 C21.25,35.5247 21.313175,36.1327 21.895525,36.1327 C22.053225,36.1327 22.2266,36.08805 22.412325,36.000175 L36.852325,29.1369 C37.19005,28.976825 37.3411,28.79775 37.3411,28.69135 C37.3411,28.584475 37.19005,28.404925 36.852325,28.24485 L22.412325,21.383475 C22.2266,21.29465 22.052275,21.25 21.894575,21.25 Z" id="Shape-Copy"></path>
            </g>
        </g>
    </g>
</svg>