<svg xmlns="http://www.w3.org/2000/svg" width="30" height="30" viewBox="0 0 30 30">
    <g fill="#78B517" fill-rule="evenodd">
        <rect width="30" height="30" fill-opacity=".1" rx="3"/>
        <g fill-rule="nonzero">
            <path d="M8.666 18.659c-.612 0-.855-.58-.505-.99l3.459-4.5H8.753c-.845 0-.777-1.169 0-1.169h3.915c.737 0 .951.683.428 1.237L9.783 17.45h3.157c.777 0 .875 1.209-.077 1.209H8.666v-.001zM14.66 12.6c0-.785 1.11-.814 1.11 0v5.458c0 .793-1.11.813-1.11 0v-5.459zM16.88 12.656c0-.314.264-.656.691-.656h2.348c1.321 0 2.511.827 2.511 2.412 0 1.502-1.19 2.339-2.511 2.339h-1.697v1.254c0 .419-.285.655-.65.655-.336 0-.692-.236-.692-.655v-5.35zm1.34.54v2.367h1.697c.682 0 1.22-.562 1.22-1.15 0-.665-.538-1.216-1.22-1.216h-1.696z"/>
        </g>
    </g>
</svg>
