<?xml version="1.0" encoding="utf-8"?>
<!-- Generator: Adobe Illustrator 21.1.0, SVG Export Plug-In . SVG Version: 6.00 Build 0)  -->
<svg version="1.1" id="Layer_1" xmlns="http://www.w3.org/2000/svg" xmlns:xlink="http://www.w3.org/1999/xlink" x="0px" y="0px"
	 viewBox="0 0 60 60" style="enable-background:new 0 0 60 60;" xml:space="preserve">
<style type="text/css">
	.st0{clip-path:url(#SVGID_2_);fill:#0018A8;}
	.st1{clip-path:url(#SVGID_4_);fill:#FEDF00;}
	.st2{clip-path:url(#SVGID_6_);fill:#D0103A;}
	.st3{fill:#C7B37F;}
	.st4{fill:none;stroke:#703D29;stroke-width:0.0561;stroke-linejoin:round;}
	.st5{fill:none;stroke:#703D29;stroke-width:0.0559;stroke-linecap:round;}
	.st6{fill:none;stroke:#703D29;stroke-width:0.0687;}
	.st7{fill:none;stroke:#703D29;stroke-width:0.0604;}
	.st8{fill:none;stroke:#703D29;stroke-width:0.0604;stroke-linecap:round;}
	.st9{fill:none;stroke:#703D29;stroke-width:0.0561;stroke-linecap:round;}
	.st10{fill:none;stroke:#703D29;stroke-width:0.0569;}
	.st11{fill:none;stroke:#703D29;stroke-width:0.0645;}
	.st12{fill:none;stroke:#703D29;stroke-width:0.073;}
	.st13{fill:none;stroke:#703D29;stroke-width:0.05;}
	.st14{fill:none;stroke:#703D29;stroke-width:0.0537;}
	.st15{fill:none;stroke:#703D29;stroke-width:0.0559;}
	.st16{fill:none;stroke:#703D29;stroke-width:0.0475;}
	.st17{fill:none;stroke:#703D29;stroke-width:0.0532;stroke-linecap:round;}
	.st18{fill:none;stroke:#703D29;stroke-width:0.0532;}
	.st19{fill:none;stroke:#703D29;stroke-width:0.0532;stroke-linecap:square;}
	.st20{fill:#C7B37F;stroke:#C7B37F;stroke-width:0.0276;}
	.st21{fill:none;stroke:#C7B37F;stroke-width:0.0532;stroke-linecap:round;}
	.st22{fill:none;stroke:#C7B37F;stroke-width:0.0532;}
	.st23{fill:#703D29;stroke:#703D29;stroke-width:0.0149;}
	.st24{fill:#703D29;}
	.st25{fill:#D52B1E;}
	.st26{fill:#FFFFFF;}
	.st27{fill:#FEDF00;}
	.st28{fill:#D52B1E;stroke:#D52B1E;stroke-width:0.0276;}
	.st29{fill:none;stroke:#FEDF00;stroke-width:0.0532;stroke-linecap:round;}
	.st30{fill:#FCD900;stroke:#FEDF00;stroke-width:0.0276;}
	.st31{fill:none;stroke:#FEDF00;stroke-width:0.0532;}
	.st32{fill:#0065BD;}
	.st33{fill:none;stroke:#703D29;stroke-width:0.0429;}
</style>
<g>
	<g>
		<defs>
			<circle id="SVGID_1_" cx="30" cy="30" r="30"/>
		</defs>
		<clipPath id="SVGID_2_">
			<use xlink:href="#SVGID_1_"  style="overflow:visible;"/>
		</clipPath>
		<rect class="st0" width="20" height="60"/>
	</g>
</g>
<g>
	<g>
		<defs>
			<circle id="SVGID_3_" cx="30" cy="30" r="30"/>
		</defs>
		<clipPath id="SVGID_4_">
			<use xlink:href="#SVGID_3_"  style="overflow:visible;"/>
		</clipPath>
		<rect x="20" class="st1" width="20" height="60"/>
	</g>
</g>
<g>
	<g>
		<defs>
			<circle id="SVGID_5_" cx="30" cy="30" r="30"/>
		</defs>
		<clipPath id="SVGID_6_">
			<use xlink:href="#SVGID_5_"  style="overflow:visible;"/>
		</clipPath>
		<rect x="40" class="st2" width="20" height="60"/>
	</g>
</g>
<path class="st3" d="M28.3637,21.2978c0.6491,0,0.9145,0.5568,1.5636,0.5568c0.4007,0,0.6343-0.1308,0.9836-0.3279
	c0.2436-0.138,0.3991-0.2115,0.6789-0.2115c0.2865,0,0.4621,0.0866,0.6087,0.3322c0.0828,0.1389,0.1516,0.4109,0.1151,0.5669
	c-0.069,0.2959-0.1116,0.4245-0.2296,0.6977c-0.0562,0.1313-0.1092,0.21-0.1092,0.3537c0,0.3445,0.4688,0.4629,0.7876,0.4678
	c0.0695,0.0011,0.6538,0.0107,1.0134-0.3534c-0.1951-0.0086-0.4134-0.1597-0.4134-0.3548c0-0.2208,0.1551-0.3702,0.3655-0.434
	c0.04-0.0114,0.108,0.0239,0.1442,0.0048c0.0514-0.0266,0.0273-0.0845,0.073-0.1207c0.1047-0.0837,0.1727-0.136,0.3069-0.136
	c0.0876,0,0.1389,0.0123,0.2093,0.0628c0.0371,0.0266,0.0508,0.0596,0.0965,0.0596c0.0961,0,0.1437-0.0609,0.2398-0.0609
	c0.078,0,0.1256,0.0105,0.1941,0.0457c0.0571,0.0295,0.0558,0.1265,0.1206,0.1265c0.0324,0,0.2035-0.0698,0.293-0.0698
	c0.1856,0,0.2847,0.0672,0.4046,0.208c0.0324,0.0381,0.0531,0.1151,0.086,0.1151c0.0663,0,0.219,0.0427,0.3141,0.1379
	c0.0409,0.0409,0.0591,0.0603,0.0905,0.1098c0.0219,0.0352,0.0555,0.1212,0.0942,0.136c0.0453,0.0174,0.0834,0.0141,0.143,0.0523
	c0.136,0.0872,0.2407,0.2511,0.2358,0.41c-0.0016,0.0533-0.0259,0.1275-0.0405,0.1783c-0.1584,0.5539-0.5354,0.7297-0.9161,1.2056
	c-0.1618,0.2027-0.2895,0.3645-0.2895,0.6243c0,0.0628,0.0773,0.1779,0.1116,0.2302c-0.0209-0.1221,0.0349-0.2721,0.1639-0.279
	c0.1768-0.0096,0.3133,0.1248,0.3371,0.3c0.0047,0.0409-0.0105,0.1116-0.0279,0.1535c0.0952-0.0628,0.2206-0.1053,0.3348-0.1186
	c0.0619-0.0067,0.0977-0.0085,0.1605-0.007c0.2825,0.007,0.5943,0.1659,0.7835,0.3266c0.579,0.4918,0.649,1.2115,0.6174,1.4114
	c-0.0703,0.4442-0.0261,1.2479-1.1613,1.5683c0.2099,0.0884,0.3528,0.2463,0.3528,0.4405c0,0.2113-0.1618,0.3921-0.3731,0.3921
	c-0.1209,0-0.2046-0.0295-0.2893-0.1142c-0.236,0.236-0.2817,0.4768-0.2817,0.8109c0,0.1999,0.0381,0.3179,0.1218,0.4987
	c0.0885,0.1913,0.1523,0.3036,0.3122,0.4416c0.0847-0.1275,0.1742-0.2208,0.3274-0.2208c0.1485,0,0.2741,0.0476,0.335,0.1827
	c0.0181,0.0409,0.0019,0.0742,0.0228,0.1142c0.0266,0.0514,0.0714,0.0628,0.099,0.1142c0.0428,0.079,0.001,0.1466,0.0381,0.2284
	c0.0238,0.0533,0.0762,0.0609,0.099,0.1142c0.0362,0.0819,0.0457,0.138,0.0457,0.2284c0,0.2532-0.2303,0.434-0.4835,0.434
	c-0.0761,0-0.118-0.0305-0.1942-0.0228c0.1447,0.1447,0.2551,0.2075,0.3655,0.3807c0.1599,0.2503,0.1999,0.4283,0.236,0.7233
	c0.0067,0.0552,0.0076,0.0885,0.0076,0.1447c0,0.3788-0.059,0.6053-0.2284,0.9441c-0.1618,0.3245-0.2998,0.5044-0.5939,0.7157
	c-0.4587,0.3303-0.7928,0.4254-1.3477,0.533c-0.356,0.0685-0.5596,0.099-0.9213,0.1218c-0.4625,0.0295-0.7262,0.0305-1.1878,0.0609
	c-0.6053,0.0409-1.025,0.1266-1.4542,0.5558c0.2027,0.1485,0.3426,0.2941,0.3426,0.5444c0,0.257-0.1589,0.4406-0.4035,0.5216
	c-0.0571,0.019-0.099,0.0019-0.1523,0.0304c-0.0638,0.0333-0.0609,0.1066-0.1218,0.1447c-0.1076,0.0685-0.1913,0.0838-0.3198,0.0838
	c-0.2265,0-0.3807-0.0533-0.5406-0.2132c-0.1856,0.1542-0.2484,0.2932-0.4568,0.4112c-0.0685,0.0381-0.1038,0.0914-0.1827,0.0914
	c-0.1247,0-0.1818-0.079-0.2817-0.1523c-0.1589-0.1161-0.2437-0.1932-0.3731-0.3426c-0.1894,0.1133-0.3055,0.2056-0.5254,0.2056
	c-0.1352,0-0.2208-0.019-0.335-0.0914c-0.06-0.0371-0.0695-0.0923-0.1294-0.1294c-0.0628-0.039-0.1152-0.0247-0.1827-0.0533
	c-0.2541-0.1095-0.4188-0.2979-0.4188-0.5748c0-0.2427,0.1532-0.3969,0.3731-0.4987c-0.4216-0.4216-0.8366-0.4949-1.4315-0.533
	c-0.4597-0.0295-0.7214-0.0304-1.1802-0.0609c-0.3645-0.0247-0.5672-0.0619-0.9289-0.1218
	c-0.2732-0.0447-0.4349-0.059-0.6852-0.1751c-0.8613-0.4016-1.4105-0.9527-1.5228-1.8959
	c-0.0095-0.0809-0.0076-0.1275-0.0076-0.2094c0-0.4911,0.1932-0.7909,0.5406-1.1383c-0.0895-0.0209-0.1494,0.0086-0.236-0.0228
	c-0.217-0.079-0.3731-0.2294-0.3731-0.4607c0-0.0857,0.0038-0.1428,0.0457-0.217c0.0295-0.0523,0.0857-0.0628,0.099-0.1218
	c0.0171-0.078-0.0057-0.1332,0.0305-0.2056c0.0238-0.0485,0.0685-0.0581,0.0914-0.1066c0.0752-0.1561,0.1694-0.2817,0.3426-0.2817
	c0.1485,0,0.2436,0.078,0.3198,0.2056c0.1447-0.0666,0.1846-0.1751,0.2665-0.3122c0.1361-0.2275,0.198-0.3864,0.198-0.651
	c0-0.1846-0.0181-0.2931-0.0761-0.4683c-0.0419-0.1256-0.059-0.2113-0.1523-0.3045c-0.0847,0.0847-0.1685,0.1142-0.2893,0.1142
	c-0.2418,0-0.4264-0.2075-0.4264-0.4492c0-0.1799,0.0885-0.3131,0.2513-0.3883c-0.1304-0.1123-0.2436-0.1218-0.3883-0.2132
	c-0.2199-0.139-0.2969-0.2855-0.4416-0.5025c-0.0942-0.1418-0.119-0.2408-0.1675-0.4035c-0.0581-0.1961-0.0914-0.3131-0.0914-0.5177
	c0-0.0533,0.001-0.0847,0.0076-0.1371c0.0543-0.4131,0.1285-0.6719,0.3883-0.9974c0.1542-0.1932,0.2589-0.3122,0.4873-0.4112
	c0.1941-0.0838,0.3103-0.1447,0.5216-0.1447c0.0638,0,0.1009,0,0.1637,0.0076c0.0971,0.0124,0.1589,0.0209,0.2436,0.0685
	c0.0324,0.0181,0.0914,0.0723,0.0914,0.0343c0-0.0438-0.0228-0.0666-0.0228-0.1104c0-0.1751,0.1256-0.335,0.3008-0.335
	c0.1266,0,0.178,0.1113,0.2398,0.2208c0.04-0.0666,0.0609-0.1123,0.0609-0.1904c0-0.2893-0.1551-0.4368-0.335-0.6624
	c-0.3921-0.4901-0.8832-0.7195-0.8832-1.3477c0-0.1875,0.0904-0.315,0.2513-0.4111c0.0466-0.0276,0.1093,0,0.155-0.0292
	c0.039-0.0248,0.0345-0.0751,0.0593-0.1151c0.039-0.0619,0.0736-0.0884,0.1278-0.136c0.0895-0.078,0.168-0.0547,0.267-0.1232
	c0.0495-0.0343,0.0612-0.0788,0.0992-0.1245c0.1104-0.1332,0.2095-0.1976,0.3837-0.1976c0.0876,0,0.1367,0.0005,0.2176,0.0327
	c0.0276,0.0105,0.0792,0.0521,0.0859,0.044c0.0174-0.0209,0.0647-0.071,0.1208-0.0977c0.0733-0.0352,0.103-0.0488,0.1849-0.0488
	c0.0933,0,0.1544,0.0523,0.2476,0.0523c0.0343,0,0.0422-0.0342,0.0698-0.0523c0.0828-0.0561,0.1305-0.0879,0.2313-0.0879
	c0.0971,0,0.1507,0.0321,0.2326,0.0844c0.0771,0.0485,0.0882,0.1136,0.1672,0.1592c0.0438,0.0257,0.0809,0.0143,0.1294,0.0305
	c0.217,0.0723,0.3807,0.217,0.3807,0.4454c0,0.1237-0.0295,0.2122-0.1218,0.2931c-0.0733,0.0647-0.1428,0.0533-0.236,0.0838
	c0.3027,0.2417,0.566,0.3017,0.9524,0.3017c0.3541,0,0.787-0.1447,0.787-0.4988c0-0.1647-0.091-0.2531-0.1557-0.4045
	c-0.1161-0.2693-0.1791-0.4278-0.1791-0.7209c0-0.2322,0.0253-0.3731,0.1605-0.5616c0.1389-0.1941,0.3087-0.2394,0.5476-0.2394
	L28.3637,21.2978z"/>
<path class="st4" d="M26.0056,23.1819c0.0233,0.0879,0.0944,0.1702,0.2057,0.205c0.067,0.0209,0.222,0.0126,0.3225-0.1173
	c0.0815-0.1052,0.0752-0.2356,0.0448-0.3392c-0.0197-0.067-0.0738-0.1317-0.1453-0.1868l-0.4275,0.434L26.0056,23.1819
	L26.0056,23.1819z"/>
<path class="st5" d="M36.8331,29.6713c-0.1005-0.2429-0.3601-0.134-0.3761,0c-0.0368,0.3087,0.2337,0.402,0.4264,0.3518
	c0.0954-0.0249,0.1652-0.085,0.2098-0.1633c0.0503-0.0883,0.0656-0.2036,0.0329-0.3137c-0.0148-0.0499-0.0357-0.092-0.0714-0.139
	c-0.0359-0.0473-0.0729-0.0797-0.1077-0.1018c-0.0741-0.0473-0.1548-0.052-0.2814-0.052c-0.469,0-0.8794,0.5542-1.0173,1.1299
	c-0.0454,0.1896-0.1078,0.6125-0.0213,1.0134c0.0921,0.4271,0.2768,0.7228,0.4934,0.9472c0.1173,0.1214,0.2772,0.2296,0.4842,0.3466
	c0.0639,0.0361,0.2327,0.111,0.3499,0.1445c0.1204,0.0344,0.2316,0.0294,0.3317,0.0076c0.2779-0.0604,0.4072-0.3188,0.2671-0.5833
	c-0.1146-0.2165-0.4523-0.335-0.6114-0.0586c-0.0135,0.0234-0.0345,0.0745-0.0338,0.1298c0.0009,0.0737,0.0315,0.1625,0.0841,0.196
	c0.121,0.077,0.3145,0.0552,0.3055-0.1584"/>
<path class="st6" d="M35.3831,32.8562c0.0941-0.1107,0.3101-0.2769,0.5571-0.3072c0.2507-0.0308,0.4685,0.0422,0.691,0.1618
	c0.4341,0.2335,0.6762,0.4845,0.8375,0.9502c0.041,0.1182,0.0749,0.2965,0.0702,0.4859c-0.0076,0.3018-0.0842,0.6318-0.1665,0.7914
	c-0.0718,0.1392-0.2596,0.7538-1.2898,1.1779c-0.6012,0.2475-1.5243,0.3045-2.1609,0.3297
	c-0.8756,0.0346-1.6834,0.067-2.1525,0.6449"/>
<path class="st7" d="M35.6018,33.8462c-0.0251-0.0921-0.0019-0.1804,0.0712-0.2806c0.0977-0.1339,0.3057-0.1801,0.4942-0.0754
	c0.063,0.035,0.1421,0.0812,0.2136,0.1759c0.027,0.0358,0.0727,0.0937,0.0963,0.134c0.057,0.0975,0.0805,0.1774,0.0917,0.2094
	c0.2071,0.5886-0.122,1.2265-0.5524,1.4824c-0.3343,0.1988-0.733,0.2874-1.2102,0.3434c-0.2145,0.0252-0.337,0.0235-0.5528,0.0335
	c-0.1736,0.008-0.3236,0.0052-0.4648,0.0034c-0.1162-0.0015-0.2265-0.0009-0.3392-0.0034c-0.184-0.0043-0.3743-0.0086-0.6073,0.0084
	c-0.2451,0.0178-0.4294,0.0241-0.6366,0.0586c-0.1353,0.0226-0.2939,0.0443-0.4601,0.0816
	c-0.0499,0.0112-0.1005,0.0203-0.1513,0.0356c-0.0341,0.0103-0.0679,0.0208-0.1013,0.0309
	c-0.3001,0.0915-0.5917,0.203-0.8218,0.3512c-0.0711,0.0458-0.1514,0.0916-0.2088,0.1459
	c-0.0358,0.0338-0.0793,0.0677-0.1144,0.1022c-0.161,0.1584-0.3257,0.33-0.3642,0.5622c-0.0071,0.0429-0.0071,0.0878-0.0071,0.135
	c0,0.1507,0.1227,0.3559,0.4535,0.423"/>
<path class="st7" d="M30.8953,23.4862c0.0692,0.1252,0.1073,0.2013,0.067,0.3308c-0.0456,0.1467-0.1496,0.2345-0.2973,0.2345
	c-0.335,0-0.5321-0.3967-0.3811-0.6491c0.268-0.4481,0.7831-0.1964,1.2605,0.0255c-0.023-0.1149-0.0632-0.1523-0.059-0.2947
	c0.0104-0.3536,0.2726-0.5139,0.3773-0.8405c0.0624-0.1946,0.0872-0.3636-0.0552-0.5018c-0.1243-0.1206-0.2683-0.1188-0.4306-0.0552
	c-0.3241,0.127-0.7135,0.4922-1.3988,0.5023c-0.6854-0.0101-1.0779-0.3753-1.4021-0.5023
	c-0.1622-0.0636-0.3063-0.0654-0.4305,0.0552c-0.1424,0.1382-0.1176,0.3072-0.0552,0.5018c0.1047,0.3266,0.3669,0.487,0.3773,0.8405
	c0.0042,0.1424-0.036,0.1798-0.059,0.2947c0.4774-0.2219,1.0125-0.4962,1.2605-0.0255c0.1382,0.2622-0.0461,0.6491-0.3811,0.6491
	c-0.1477,0-0.2514-0.0942-0.2973-0.2345c-0.0409-0.1251,0-0.2345,0.067-0.3308"/>
<path class="st8" d="M29.5557,23.2535c0.1294,0.099,0.2208,0.2208,0.2056,0.4188c-0.0165,0.2147-0.0685,0.2665-0.236,0.3807"/>
<path class="st8" d="M29.727,23.7335c-0.0076,0.1294-0.0609,0.2132-0.1903,0.2665"/>
<path class="st3" d="M26.3724,22.6987l0.0586,0.0419l0.0628,0.067l0.0419,0.0838l0.0209,0.0712l0.0042,0.0921l-0.0042,0.0628
	l-0.0209,0.0712l-0.0419,0.0502l-0.0503,0.0544l-0.0712,0.0377l-0.0921,0.0209l-0.0796,0.0126l-0.0838-0.0377l-0.0754-0.0544
	l-0.0461-0.067l-0.0335-0.0838v-0.0335L26.3724,22.6987L26.3724,22.6987z"/>
<path class="st9" d="M26.2437,23.0262c-0.0258-0.139-0.1883-0.1676-0.2513-0.0854c-0.097,0.1265-0.0261,0.337,0.1711,0.3987
	c0.067,0.0209,0.2219,0.0126,0.3225-0.1173c0.0815-0.1052,0.0752-0.2356,0.0448-0.3392c-0.0197-0.067-0.0735-0.1255-0.1453-0.1801
	c-0.229-0.1742-0.5989-0.134-0.7203,0.1591c-0.1567,0.3781,0.1843,0.6617,0.4984,0.8752c0.3954,0.2689,0.8459,0.3178,1.1851,0.3141
	c0.7706-0.0084,1.3568-0.3769,1.7379-0.5862c0.0888-0.0488,0.1802-0.0388,0.2261,0.0167c0.0519,0.0627,0.051,0.1639-0.0209,0.2303"
	/>
<path class="st10" d="M23.9593,33.4638l-0.1717,0.0628l-0.1759,0.134l-0.0754,0.1047l-0.0963,0.1675l-0.0419,0.1256l-0.0335,0.155
	l-0.0167,0.1172"/>
<path class="st10" d="M24.9477,33.4805l-0.0126,0.1508L24.91,33.736l-0.0754,0.1801l-0.1173,0.155l-0.1256,0.1005l-0.0921,0.0461
	l-0.1298,0.0293"/>
<path class="st11" d="M29.992,37.4971c-0.0312,0.1394-0.1618,0.2989-0.4459,0.3564c0,0-0.0337,0.007-0.0552,0.0114"/>
<path class="st12" d="M37.1014,33.0448c0.1799,0.1677,0.3062,0.3719,0.4033,0.6522c0.041,0.1182,0.0749,0.2965,0.0702,0.4859
	c-0.0075,0.3019-0.0842,0.6318-0.1665,0.7914c-0.0718,0.1392-0.2596,0.7538-1.2898,1.1779
	c-0.6012,0.2475-1.5243,0.3045-2.1609,0.3297c-0.863,0.0341-1.6602,0.0661-2.132,0.6203"/>
<path class="st13" d="M35.6934,33.6038c0.064-0.0873,0.2972-0.1979,0.4856-0.0932c0.062,0.0345,0.1355,0.078,0.2,0.1747"/>
<path class="st12" d="M36.8816,32.8411c0.0421,0.0162,0.084,0.0308,0.1208,0.0413c0.1204,0.0344,0.2336,0.0371,0.3317,0.0076
	c0.2382-0.0714,0.3911-0.294,0.2671-0.5833c-0.0288-0.0671-0.0838-0.1314-0.1463-0.1796"/>
<path class="st9" d="M23.3044,26.6114c-0.1599,0.099-0.2791,0.1224-0.4035,0.2665c-0.1239,0.2452-0.1725,0.377-0.2208,0.5736"/>
<path class="st9" d="M26.5598,23.1011c0,0.1447-0.1066,0.236-0.2513,0.2665"/>
<path class="st14" d="M36.5035,25.9596c0.398-0.0081,1.5544,0.3037,1.5627,1.6631c0.0081,1.3425-0.8286,1.5619-1.1638,1.6512"/>
<path class="st15" d="M36.608,25.9596c0.6864-0.0298,1.3946,0.4754,1.4259,1.7363c0.0244,0.9851-0.6742,1.4319-1.0095,1.5213"/>
<path class="st16" d="M36.2256,30.7066l0.0106-0.1348l0.0449-0.214l0.0634-0.1665l0.0713-0.1374l0.0925-0.111"/>
<path class="st16" d="M37.1633,29.6568l-0.0105,0.1319l-0.0377,0.09l-0.0586,0.0859l-0.067,0.0502l-0.1026,0.0377l-0.09,0.0063
	l-0.067-0.0105"/>
<path class="st16" d="M35.5253,25.6036l0.0293-0.1424l0.0628-0.1319l0.0817-0.1319l0.1403-0.1801l0.111-0.1235l0.1801-0.1822
	l0.1549-0.157l0.0984-0.1131l0.1298-0.157l0.1152-0.1738l0.0691-0.1424l0.0377-0.1842l0.0114-0.2285l-0.0209-0.0663"/>
<path class="st16" d="M35.6928,34.2766l0.1361-0.0272l0.1026-0.0544l0.0565-0.0565l0.0398-0.0649l0.0272-0.1047l0.0021-0.0733"/>
<path class="st16" d="M22.7388,32.8729l0.1005,0.0084l0.1298-0.0105l0.1298-0.0461"/>
<path class="st16" d="M23.5198,29.7489l-0.0167,0.1173l-0.0272,0.0523l-0.0398,0.0503l-0.0544,0.0419l-0.0607,0.0272l-0.0796,0.0126
	l-0.0544,0.0042"/>
<path class="st16" d="M24.0202,28.74l-0.0293,0.1822l-0.0356,0.0796l-0.0733,0.1005l-0.0984,0.0754l-0.1005,0.0502l-0.1947,0.0482"
	/>
<path class="st16" d="M24.7759,25.93l-0.0377,0.1089l-0.0461,0.0796l-0.0628,0.0879l-0.0879,0.0796l-0.1047,0.0503l-0.0879,0.0209
	l-0.0544-0.0042"/>
<path class="st16" d="M24.3261,25.8314l0.0021,0.0838"/>
<path class="st17" d="M24.4829,28.656c-0.0607,0.0544-0.1212,0.0878-0.1759,0.1093"/>
<path class="st17" d="M36.9748,32.5379c0.0072,0.0078,0.0313,0.0117,0.0398,0.0167c0.1193,0.0712,0.3543-0.0176,0.2852-0.2018"/>
<path class="st18" d="M36.56,29.9643c0.0847,0.1107,0.2444,0.1394,0.3707,0.1065c0.0954-0.0249,0.1652-0.085,0.2098-0.1633
	c0.0503-0.0883,0.0656-0.2036,0.0329-0.3137c-0.0148-0.0499-0.0357-0.0919-0.0714-0.139c-0.0359-0.0473-0.0804-0.0976-0.1148-0.1201
	c-0.0091-0.006-0.0183-0.0141-0.0279-0.0206"/>
<path class="st18" d="M37.5,32.177c0.0037-0.0197,0.0056-0.0399,0.0056-0.0606c0-0.0975-0.0408-0.1868-0.1082-0.247
	c-0.023-0.0206-0.0453-0.0524-0.0732-0.0664"/>
<path class="st18" d="M37.3642,31.8425c-0.0039-0.1569-0.1323-0.2691-0.2914-0.297"/>
<path class="st18" d="M36.7216,31.7844c-0.0366-0.0299-0.0758-0.0552-0.11-0.091c-0.2061-0.2157-0.3611-0.5345-0.3632-0.8983
	c-0.002-0.3487,0.1382-0.7036,0.3015-0.8417"/>
<path class="st18" d="M31.7948,37.0775l0.1508-0.1382l0.1047-0.0796l0.1968-0.1214l0.1843-0.0879l0.1298-0.0335l0.2596-0.0586
	l0.3015-0.0461"/>
<path class="st18" d="M30.6389,38.1418c-0.1089,0.1675-0.3685,0.4188-0.6408,0.5193c-0.2722-0.1005-0.5318-0.3518-0.6407-0.5193"/>
<path class="st17" d="M29.5438,37.7933c-0.0341,0.1265-0.0962,0.2492-0.1868,0.3475"/>
<path class="st18" d="M29.5708,37.6177l-0.0377,0.1842"/>
<path class="st18" d="M29.3365,38.1537l-0.0796,0.0796l-0.1424,0.0796l-0.1633,0.0503"/>
<path class="st18" d="M28.4763,23.3968c0.0204-0.0637,0.0413-0.1116,0.0382-0.2162c-0.0104-0.3536-0.2726-0.5139-0.3773-0.8406
	c-0.0624-0.1946-0.0872-0.3635,0.0552-0.5017c0.1243-0.1206,0.2683-0.1188,0.4305-0.0552c0.3241,0.1271,0.7168,0.4922,1.4022,0.5023
	c-0.6854-0.0101-1.0781-0.3753-1.4022-0.5023c-0.1622-0.0636-0.3197-0.0822-0.444,0.0385
	c-0.1424,0.1382-0.1042,0.3239-0.0418,0.5185c0.1047,0.3266,0.3535,0.487,0.3639,0.8406c0.0031,0.1046-0.0245,0.1526-0.0449,0.2162"
	/>
<path class="st18" d="M30.0232,22.2614c0.6742-0.0356,1.252-0.4886,1.4385-0.5256c0.1662-0.033,0.259-0.0181,0.3809,0.0927
	c-0.1219-0.1108-0.2608-0.1074-0.4185-0.0455c-0.3241,0.1271-0.7135,0.4922-1.3988,0.5023"/>
<path class="st18" d="M36.7243,31.786c-0.2806-0.201-0.521-0.5847-0.5235-1.0382c-0.0019-0.3487,0.1382-0.7035,0.3015-0.8417"/>
<path class="st18" d="M30.6152,38.1181c-0.1089,0.1675-0.3685,0.4188-0.6407,0.5193c-0.2722-0.1005-0.5318-0.3518-0.6407-0.5193"/>
<path class="st17" d="M28.8916,23.574c0.0701-0.0388,0.1352-0.0758,0.1952-0.1087c0.0888-0.0488,0.1955-0.0386,0.2414,0.017
	c0.0518,0.0627,0.0598,0.1714-0.0121,0.2379"/>
<path class="st18" d="M27.8849,24.0453c0.4625-0.0965,0.8395-0.3037,1.1244-0.463"/>
<path class="st18" d="M31.7253,37.4001c0.0382,0.0261,0.0628,0.0804,0.0628,0.0804c0.0106,0.0252,0.0243,0.0491,0.0281,0.0715
	c0.0217,0.1281-0.0623,0.2079-0.166,0.22c-0.1426,0.0166-0.2497-0.0681-0.2953-0.1707"/>
<path class="st18" d="M27.8612,24.0216c0.4625-0.0965,0.8395-0.3037,1.1244-0.4631"/>
<path class="st18" d="M37.1978,32.5557c-0.0879,0.0339-0.136,0.0293-0.2455-0.0193c-0.0449-0.0199-0.0963-0.0508-0.1566-0.085
	c-0.2144-0.1218-0.469-0.3137-0.7077-0.7618c-0.0706-0.1325-0.1144-0.2555-0.144-0.3766c-0.0228-0.0935-0.0386-0.1859-0.042-0.2807
	c-0.0058-0.1616,0.0116-0.3303,0.0519-0.5236c0.0666-0.3192,0.1468-0.4925,0.3434-0.7622c0.0967-0.1326,0.1801-0.2136,0.3601-0.2177
	"/>
<path class="st18" d="M24.5642,26.2208c0.1497,0.1272,0.222,0.2848,0.222,0.4816c0,0.2607-0.2182,0.6868-0.7542,0.8375
	c-0.2054,0.0578-0.4087,0.0112-0.5317-0.0636"/>
<path class="st18" d="M24.652,27.1042c0.0963,0.067,0.134,0.1422,0.134,0.2731c0,0.0897-0.058,0.2059-0.1566,0.316
	c-0.1615,0.1802-0.4353,0.3334-0.7388,0.3372c-0.1646,0.002-0.3355-0.0324-0.5075-0.1474
	c-0.1838-0.1229-0.2806-0.2889-0.3225-0.4523"/>
<path class="st18" d="M24.6434,27.666c0.1091,0.1003,0.1426,0.2259,0.1426,0.384c0,0.231-0.0939,0.4093-0.3097,0.5983
	c-0.0483,0.0422-0.1026,0.0818-0.1634,0.1173"/>
<path class="st18" d="M35.2059,26.9076v0.2973"/>
<path class="st18" d="M35.1822,26.8343v0.4187"/>
<path class="st18" d="M35.2059,25.9278v0.5486"/>
<path class="st18" d="M35.1822,25.8066v0.7497"/>
<path class="st18" d="M35.0223,33.4541c-0.104,0.2066-0.187,0.3151-0.3518,0.4774c-0.1662,0.1638-0.2814,0.2388-0.49,0.3434
	c-0.2032,0.1018-0.3311,0.1342-0.5528,0.1843c-0.2215,0.05-0.3511,0.0609-0.5779,0.0712c-0.208,0.0094-0.326,0.0008-0.5338-0.0137
	c-0.2223-0.0154-0.3456-0.0464-0.5676-0.0659c-0.1833-0.0161-0.2869-0.0309-0.4709-0.0305
	c-0.1892,0.0005-0.2976,0.0017-0.4839,0.0347c-0.1736,0.0308-0.2721,0.0552-0.4355,0.1214
	c-0.2261,0.0916-0.4816,0.2513-0.536,0.3225c-0.0544-0.0712-0.3099-0.2309-0.536-0.3225c-0.1634-0.0662-0.2619-0.0907-0.4355-0.1214
	c-0.1863-0.033-0.2947-0.0342-0.4839-0.0347c-0.184-0.0005-0.2876,0.0144-0.4709,0.0305c-0.222,0.0195-0.3453,0.0505-0.5676,0.0659
	c-0.2077,0.0144-0.3257,0.0231-0.5337,0.0137c-0.2269-0.0103-0.3564-0.021-0.5779-0.0712
	c-0.2216-0.0502-0.3495-0.0827-0.5528-0.1843c-0.2087-0.1043-0.3238-0.1796-0.49-0.3434c-0.0179-0.0177-0.0349-0.0348-0.0511-0.0514
	"/>
<path class="st18" d="M28.8716,38.3718l0.1508-0.0188"/>
<path class="st18" d="M31.5702,38.1547l0.1522-0.0145l0.1449-0.058l0.1014-0.0616l0.1377-0.163l0.029-0.0616l0.0218-0.1413
	l0.0073-0.0652"/>
<path class="st18" d="M36.1124,26.0851c0.0653-0.2223-0.0144-0.4569-0.2298-0.4506"/>
<path class="st18" d="M24.7775,29.5534c-0.0546,0.1846-0.172,0.3108-0.3027,0.3928"/>
<path class="st18" d="M24.7813,26.0146c-0.0538,0.1556-0.1524,0.2668-0.3083,0.3372c-0.1555,0.0702-0.3354,0.0046-0.4317-0.0696"/>
<path class="st17" d="M23.6011,26.8306c0.1289,0.0675,0.2596-0.0314,0.2328-0.1991c-0.0126-0.0785-0.0972-0.1777-0.2118-0.1849"/>
<path class="st18" d="M24.1355,33.9222c0.0278,0.0261,0.0337,0.0601,0.0712,0.067c0.0565,0.0105,0.1005,0.0314,0.157-0.044
	c0.0697-0.0929,0.0322-0.2374-0.0403-0.3284c-0.0776-0.0974-0.3024-0.1834-0.4908-0.0787c-0.0631,0.035-0.1421,0.0811-0.2136,0.1759
	c-0.027,0.0358-0.0727,0.0937-0.0963,0.134c-0.057,0.0975-0.0805,0.1773-0.0917,0.2094c-0.1724,0.49,0.0323,1.0053,0.3495,1.3193"/>
<path class="st17" d="M31.7151,37.3893c0.0344,0.0358,0.0544,0.067,0.0544,0.067c0.0106,0.0252,0.0192,0.0491,0.023,0.0715
	c0.0217,0.1281-0.0623,0.2079-0.1661,0.22c-0.1426,0.0166-0.2381-0.0674-0.2837-0.17"/>
<path class="st18" d="M35.8577,22.8237c0.2816,0.0343,0.527,0.3031,0.527,0.5921c0,0.3727-0.1256,0.5115-0.3218,0.7781
	c-0.21,0.2853-0.8962,0.8082-0.8962,1.4029c0,0.3602,0.1005,0.5904,0.3601,0.7077c0.1674,0.0756,0.3632-0.0062,0.4523-0.0868
	c0.2178-0.1968,0.1307-0.542-0.0963-0.5832c-0.2764-0.0503-0.3284,0.3849-0.0586,0.3559"/>
<path class="st18" d="M37.3244,31.8027c-0.0248-0.1492-0.1515-0.2628-0.3042-0.2628c-0.1704,0-0.3086,0.1416-0.3086,0.3162
	c0,0.0855,0.0331,0.1631,0.087,0.22"/>
<path class="st18" d="M35.3885,26.2208c-0.1497,0.1272-0.222,0.2848-0.222,0.4816c0,0.2607,0.2182,0.6868,0.7542,0.8375
	c0.2054,0.0578,0.4017,0.0523,0.5246-0.0225"/>
<path class="st18" d="M23.3135,26.6474c-0.1281,0.0428-0.2881,0.1227-0.4066,0.2906c-0.1,0.1416-0.1583,0.3386-0.1944,0.5109
	c-0.0158,0.0754-0.0346,0.3141,0.0136,0.5607c0.0356,0.1821,0.1108,0.3516,0.194,0.4743c0.0298,0.044,0.0569,0.0736,0.0873,0.1041
	c0.0279,0.0279,0.0675,0.0525,0.0955,0.0739"/>
<path class="st18" d="M28.4903,36.4085c0.4081,0.1809,0.7072,0.3164,0.9609,0.7169c0.0796,0.1256,0.1005,0.3057,0.1005,0.4104
	c0,0.2261-0.0921,0.4816-0.2806,0.6407c-0.1748,0.1477-0.3476,0.1926-0.5611,0.1717c-0.162-0.0159-0.3141-0.134-0.3392-0.2178"/>
<path class="st18" d="M24.4592,28.6619c0.2303,0.1801,0.3266,0.3548,0.3266,0.6324c0,0.3183-0.1549,0.5151-0.335,0.6281"/>
<path class="st17" d="M24.2497,29.6966c0.3434,0.4271,0.5256,0.6807,0.536,1.1893c0.0098,0.4774-0.1424,0.804-0.4272,1.1474"/>
<path class="st18" d="M30.8339,24.0496c0.0624-0.041,0.1083-0.1066,0.1345-0.1877c0.0406-0.1252,0.0414-0.232-0.0256-0.3283
	c0.0827,0.1082,0.0903,0.1995,0.067,0.3308c-0.0148,0.0836-0.0681,0.1276-0.1345,0.1877"/>
<path class="st18" d="M35.2059,31.3034v1.3596h0.0036c0,0.001-0.0005,0.1287-0.0114,0.2094
	c-0.0072,0.0529-0.0146,0.1008-0.0231,0.1456"/>
<path class="st18" d="M35.1822,31.1725v1.4663l0.0036,0c0,0.001-0.0005,0.1287-0.0114,0.2094
	c-0.0114,0.0842-0.0235,0.1555-0.0393,0.2222"/>
<path class="st18" d="M35.1822,29.4559v1.2228"/>
<path class="st18" d="M35.2059,29.5523v0.9945"/>
<path class="st18" d="M35.2059,28.2876v0.7455"/>
<path class="st18" d="M35.1822,28.1998v0.9191"/>
<path class="st18" d="M35.2059,27.5254v0.2892"/>
<path class="st18" d="M35.1822,27.4667v0.4188"/>
<path class="st18" d="M35.0271,33.3722c-0.0089,0.0189-0.0184,0.0383-0.0285,0.0584c-0.104,0.2066-0.1871,0.3151-0.3518,0.4774
	c-0.1662,0.1638-0.2814,0.2388-0.49,0.3434c-0.2031,0.1018-0.3311,0.1342-0.5528,0.1843c-0.2215,0.05-0.3511,0.0609-0.5779,0.0712
	c-0.208,0.0094-0.326,0.0006-0.5337-0.0137c-0.2223-0.0154-0.3456-0.0463-0.5676-0.0658c-0.1833-0.0161-0.2869-0.0309-0.4709-0.0305
	c-0.1892,0.0005-0.2976,0.0017-0.4839,0.0346c-0.1736,0.0307-0.2721,0.0552-0.4355,0.1214
	c-0.2261,0.0916-0.4816,0.2513-0.536,0.3225c-0.0544-0.0712-0.3099-0.2308-0.536-0.3225c-0.1634-0.0662-0.2619-0.0907-0.4355-0.1214
	c-0.1863-0.033-0.2947-0.0342-0.4839-0.0346c-0.184-0.0005-0.2876,0.0144-0.4709,0.0305c-0.222,0.0195-0.3453,0.0505-0.5676,0.0658
	c-0.2077,0.0144-0.3257,0.0231-0.5338,0.0137c-0.2269-0.0103-0.3564-0.021-0.5779-0.0712
	c-0.2216-0.0502-0.3495-0.0826-0.5528-0.1843c-0.2087-0.1044-0.3238-0.1796-0.49-0.3434c-0.087-0.0858-0.1513-0.1565-0.2078-0.2346"
	/>
<path class="st18" d="M24.973,33.4051c0.0358,0.2662-0.0761,0.5278-0.1897,0.6482c-0.0712,0.0754-0.2263,0.2194-0.4188,0.2219
	c-0.3183,0.0042-0.4133-0.2147-0.4326-0.268"/>
<path class="st18" d="M24.5949,33.2672c0.0591,0.0583,0.1115,0.1295,0.1558,0.2136c0.0796,0.1507,0.055,0.4029-0.008,0.5193
	c-0.0069,0.0128-0.0155,0.0264-0.0256,0.0403"/>
<path class="st18" d="M23.0135,35.5564c0.1893,0.1986,0.4755,0.4143,0.9151,0.5953c0.6012,0.2475,1.5243,0.3045,2.1609,0.3297
	c0.8465,0.0334,1.6263,0.0682,2.1012,0.5924"/>
<path class="st18" d="M29.6521,36.7311c0.1399,0.1377,0.2826,0.2852,0.3429,0.4739"/>
<path class="st18" d="M29.3769,38.1687c-0.0183,0.0195-0.0377,0.0381-0.0583,0.0555c-0.1749,0.1476-0.3476,0.1926-0.5611,0.1717
	c-0.162-0.0159-0.3182-0.1372-0.3601-0.2168"/>
<path class="st18" d="M27.9468,37.9344c0.0078,0.0107,0.016,0.021,0.0246,0.0311c0.1017,0.1184,0.2622,0.1926,0.4297,0.2065"/>
<path class="st18" d="M30.6626,38.1655c-0.1089,0.1675-0.3685,0.4188-0.6407,0.5193c-0.2722-0.1005-0.5318-0.3518-0.6408-0.5193
	c-0.0088-0.0136-0.0173-0.0266-0.0254-0.0391"/>
<path class="st18" d="M30.6669,38.1644c0.0194,0.0211,0.0402,0.0411,0.0623,0.0597c0.1749,0.1476,0.3476,0.1926,0.5611,0.1717
	c0.162-0.0159,0.2906-0.1241,0.3425-0.2178c0,0,0.0291-0.0313,0.0373-0.0612"/>
<path class="st18" d="M31.616,38.1305l-0.0625,0.1005l-0.0951,0.0788l-0.144,0.0598l-0.1304,0.0054"/>
<path class="st18" d="M31.9542,37.1733c0.0771,0.0591,0.1527,0.1486,0.1938,0.2442c0.0264,0.0615,0.0387,0.129,0.0424,0.1992
	c0.0071,0.1329-0.0396,0.2554-0.1197,0.3487c-0.1076,0.1253-0.2754,0.2011-0.454,0.2083c-0.0133,0.0005-0.0265,0.0006-0.0396,0"/>
<path class="st18" d="M31.5928,38.1499L31.5928,38.1499c-0.1708,0.0068-0.3234-0.0663-0.4359-0.1818"/>
<path class="st18" d="M36.5159,32.2562c-0.1332-0.1228-0.2713-0.293-0.4043-0.5428c-0.0706-0.1325-0.1144-0.2555-0.1439-0.3766
	c-0.0228-0.0935-0.0386-0.1859-0.042-0.2807c-0.0058-0.1616,0.0116-0.3303,0.0519-0.5236c0.0666-0.3191,0.1854-0.566,0.3434-0.7622
	c0.0539-0.0669,0.116-0.1504,0.1751-0.1879"/>
<path class="st18" d="M36.3801,23.2018c0.2136,0.0167,0.4114,0.2466,0.4088,0.472c-0.0038,0.3274-0.1136,0.4627-0.3712,0.7834
	c-0.2219,0.2764-0.8878,0.7622-0.871,1.227c0.003,0.0825,0.0474,0.1678,0.0971,0.2364"/>
<path class="st18" d="M35.3778,26.2122c0.0473,0.0467,0.1045,0.0853,0.1727,0.1161c0.1218,0.055,0.2586,0.0267,0.3584-0.0239"/>
<path class="st18" d="M34.127,22.667c0.0715,0.0487,0.1444,0.1234,0.1839,0.2188c0.1566,0.3781-0.1843,0.6617-0.4984,0.8752
	c-0.2252,0.1531-0.4683,0.2349-0.6985,0.2763"/>
<path class="st18" d="M33.7672,23.3957c-0.0762-0.0008-0.1667-0.0225-0.265-0.126c-0.0226-0.0238-0.0492-0.0553-0.0595-0.0836"/>
<path class="st18" d="M32.1923,23.5988c-0.0398-0.0199-0.0825-0.049-0.1111-0.081c-0.0747-0.0835-0.1244-0.1966-0.0669-0.3691
	c0.0532-0.1596,0.3095-0.6073,0.3221-0.9171c0.0192-0.4734-0.1629-0.7528-0.4477-0.8618"/>
<path class="st17" d="M32.3124,22.1256l-0.0111,0.178l-0.0482,0.1817l-0.0927,0.2485l-0.0705,0.1595l-0.0742,0.1595l-0.0371,0.1113
	l-0.0148,0.0816l0.0111,0.0779"/>
<path class="st17" d="M35.1741,33.9513c0.0147,0.0356,0.0502,0.0703,0.0502,0.0703c0.0544,0.0909,0.2661,0.2507,0.4586,0.2532
	c0.3183,0.0042,0.3938-0.2185,0.402-0.268c0.0402-0.2429-0.0429-0.3093-0.1675-0.3777c0,0-0.0733-0.038-0.1613-0.0233"/>
<path class="st18" d="M23.0237,32.8885c-0.1124,0.0288-0.2179,0.0295-0.3101,0.0018c-0.2382-0.0715-0.4313-0.2997-0.3328-0.5833"/>
<path class="st18" d="M23.5074,29.6288c0.0239,0.0239,0.0315,0.0597,0.0352,0.09c0.0368,0.3087-0.2337,0.3987-0.4264,0.3484
	c-0.0954-0.0249-0.2091-0.1135-0.2537-0.1918c-0.0322-0.0564-0.0517-0.1238-0.0518-0.1938"/>
<path class="st18" d="M24.6671,27.6897c0.0482,0.0443,0.0817,0.0936,0.104,0.1485"/>
<path class="st18" d="M24.6757,27.1214c0.0447,0.0311,0.0768,0.0706,0.0983,0.11"/>
<path class="st17" d="M24.784,27.5168c-0.026,0.0641-0.0709,0.1333-0.1309,0.2003c-0.1615,0.1802-0.4353,0.3334-0.7388,0.3372
	c-0.1646,0.002-0.3355-0.0324-0.5075-0.1473c-0.1838-0.1229-0.3037-0.2978-0.3435-0.4695"/>
<path class="st18" d="M24.5793,26.2343c0.0932,0.0792,0.1648,0.1803,0.1992,0.2852"/>
<path class="st17" d="M24.7813,26.9038c-0.0746,0.2464-0.2968,0.5511-0.7257,0.6597c-0.2049,0.0519-0.4687-0.013-0.5588-0.0896"/>
<path class="st18" d="M23.2839,26.8462c0.0224,0.2219,0.171,0.3883,0.4525,0.3936c0.3959,0.0075,0.6366-0.5695,0.2848-0.9746"/>
<path class="st17" d="M22.393,28.7799c0.0578,0.0726,0.1259,0.1379,0.1955,0.1959c0.1412,0.1175,0.3077,0.2209,0.4994,0.2775"/>
<path class="st17" d="M23.5322,29.2948c0.3538-0.0425,0.5533-0.3061,0.5137-0.6146c-0.0301-0.235-0.2458-0.4157-0.3924-0.4262"/>
<path class="st18" d="M24.1096,25.6305c0.1535-0.0057,0.2408,0.1337,0.2394,0.2512"/>
<path class="st17" d="M24.0735,23.5239c0.0841,0.2199,0.248,0.3919,0.4234,0.4901"/>
<path class="st17" d="M36.6311,26.62c0.1447,0.1981,0.0499,0.5888-0.3436,0.5963c-0.1537,0.0029-0.2924-0.0823-0.3737-0.2114"/>
<path class="st18" d="M35.2059,24.0324v1.3297"/>
<path class="st17" d="M23.5968,26.8273c0.1214,0.0879,0.2774-0.0605,0.217-0.2181c-0.0407-0.1064-0.1919-0.2212-0.4013-0.0788
	c-0.2313,0.1572-0.1675,0.6533,0.2764,0.6617c0.3959,0.0075,0.6366-0.5695,0.2848-0.9745
	c-0.3384-0.3897-0.9548-0.2985-1.3568,0.0213c-0.1711,0.1361-0.4942,0.4926-0.5946,0.9784
	c-0.0313,0.1513-0.0515,0.2754-0.0491,0.4271c0.0016,0.1,0.0108,0.212,0.0407,0.3518c0.0605,0.2823,0.1599,0.4891,0.2588,0.6326
	c0.0379,0.055,0.0726,0.1008,0.1097,0.1379c0.0689,0.0689,0.0895,0.1054,0.1591,0.1633c0.2275,0.1893,0.5206,0.3377,0.8794,0.3225
	c0.3936-0.0168,0.6198-0.2931,0.5779-0.6198c-0.0406-0.3167-0.3604-0.4743-0.5695-0.3266c-0.1424,0.1005-0.193,0.4118,0.0586,0.4858
	c0.1424,0.0419,0.268-0.1382,0.1675-0.2429"/>
<path class="st17" d="M34.5596,22.4935c0.2272-0.1234,0.4023-0.1006,0.5318,0.0792c0.1408,0.1953,0.1608,0.4553,0.1298,0.6076
	c-0.0461,0.2261-0.1114,0.3201-0.2913,0.4841"/>
<path class="st17" d="M35.1079,22.5943c0.2596-0.1717,0.5408-0.0988,0.6952,0.1298c0.1131,0.1675,0.142,0.3077,0.134,0.5151
	c-0.0137,0.3555-0.2361,0.6373-0.4816,0.7747"/>
<path class="st18" d="M36.3306,23.1932c0.2136,0.0167,0.3853,0.2101,0.3853,0.4355c0,0.3225-0.09,0.4623-0.3476,0.7831
	c-0.2219,0.2764-0.8878,0.7622-0.871,1.227c0.0063,0.1758,0.1545,0.3414,0.2823,0.3506"/>
<path class="st17" d="M36.3559,26.8273c-0.1214,0.0879-0.2764-0.0541-0.2094-0.2048c0.0463-0.1041,0.1843-0.2345,0.3936-0.0921
	c0.2312,0.1572,0.1675,0.6533-0.2764,0.6617c-0.3959,0.0075-0.6634-0.5546-0.2848-0.9745c0.3456-0.3833,0.9865-0.3083,1.3885,0.0115
	c0.1711,0.1361,0.5152,0.5099,0.589,1.0004c0.0893,0.5936,0.0779,1.3237-0.5352,1.7733c-0.2465,0.1808-0.5881,0.2629-0.8896,0.2497
	c-0.3936-0.0173-0.6197-0.2931-0.5779-0.6198c0.0406-0.3167,0.3455-0.4507,0.5695-0.3266c0.2326,0.1289,0.192,0.456-0.0586,0.4858
	c-0.1474,0.0175-0.268-0.1382-0.1675-0.2429"/>
<path class="st18" d="M36.1464,26.6227c0.0653-0.2938,0.317-0.3211,0.5202-0.3182c0.5546,0.0081,0.9381,0.666,0.9445,1.3023
	c0.0081,0.8038-0.3412,1.2771-0.9287,1.3023c-0.152,0.0065-0.4139-0.0658-0.4184-0.2513"/>
<path class="st19" d="M36.4879,26.4912c0.5848,0.13,0.7902,0.6569,0.7902,1.1598c0,0.4102-0.0406,0.9707-0.8389,1.1679"/>
<path class="st18" d="M37.4525,32.1296c0.0036-0.0196,0.0056-0.0399,0.0056-0.0606c0-0.1816-0.1472-0.3287-0.3287-0.3287
	c-0.1816,0-0.3287,0.1472-0.3287,0.3287c0,0.1045,0.0487,0.1975,0.1247,0.2578"/>
<path class="st17" d="M36.2794,31.6314c0.1101,0.1633,0.2433,0.3449,0.5246,0.4976"/>
<path class="st17" d="M36.6985,33.0167c-0.2758-0.1809-0.7992-0.4181-1.2725-0.1846c-0.1755,0.0866-0.2931,0.1937-0.3595,0.3684
	c-0.1196,0.3145,0.0141,0.6612,0.1502,0.8052c0.0712,0.0754,0.2262,0.2194,0.4188,0.222c0.3183,0.0042,0.3939-0.2185,0.402-0.268
	c0.0377-0.2303-0.0963-0.3225-0.1675-0.3476c-0.0546-0.0193-0.2323-0.0143-0.27,0.1112c-0.0126,0.0419-0.0148,0.1149,0.0187,0.1693"
	/>
<path class="st17" d="M31.7366,37.4394c0.0879,0.1801-0.0121,0.2706-0.134,0.2848c-0.1801,0.0209-0.2764-0.1214-0.289-0.2513
	c-0.0204-0.2105,0.1571-0.4012,0.3685-0.3978c0.1904,0.0031,0.3455,0.1259,0.4182,0.295c0.0264,0.0615,0.0387,0.129,0.0424,0.1992
	c0.0071,0.1329-0.0396,0.2554-0.1197,0.3487c-0.1076,0.1253-0.2754,0.2011-0.454,0.2083c-0.3555,0.0143-0.6323-0.3182-0.6323-0.6575
	c0-0.6491,0.9626-1.0031,1.3443-1.0942c0.469-0.1119,0.7544-0.1538,1.5076-0.1956c0.3015-0.0167,0.5223-0.0082,0.8543-0.0427
	c0.2971-0.0308,0.4523-0.0453,0.758-0.1165c0.3815-0.0888,0.7371-0.2471,1.0553-0.536c0.2451-0.2225,0.3853-0.3811,0.4987-0.6868
	c0.0979-0.2638,0.1429-0.7862-0.1051-1.1725c-0.2192-0.3415-0.5235-0.5189-0.871-0.5691c-0.314-0.0454-0.5894,0.0901-0.7538,0.4016
	c-0.0796,0.1507-0.055,0.4029,0.008,0.5193c0.0544,0.1005,0.2099,0.2487,0.4024,0.2513c0.3183,0.0042,0.3939-0.2185,0.402-0.268
	c0.0377-0.2303-0.0963-0.3225-0.1675-0.3476c-0.0546-0.0193-0.2323-0.0143-0.27,0.1112c-0.0125,0.0419-0.0148,0.1149,0.0187,0.1693"
	/>
<path class="st17" d="M31.4625,36.4085c-0.4081,0.1809-0.7072,0.3164-0.9609,0.7169c-0.0796,0.1256-0.1005,0.3057-0.1005,0.4104
	c0,0.2261,0.0921,0.4816,0.2806,0.6407c0.1749,0.1477,0.3476,0.1926,0.5611,0.1717c0.162-0.0159,0.3141-0.134,0.3392-0.2178"/>
<path class="st18" d="M35.493,28.6619c-0.1909,0.0637-0.3266,0.3548-0.3266,0.6324c0,0.3183,0.1549,0.5151,0.335,0.6281"/>
<path class="st17" d="M35.7025,29.6966c-0.3434,0.4271-0.5256,0.6807-0.536,1.1893c-0.0098,0.4774,0.1424,0.804,0.4272,1.1474"/>
<path class="st18" d="M33.8723,22.5959c0.0088-0.0132,0.0186-0.0276,0.0295-0.0436c0.1424-0.2094,0.3938-0.2646,0.5779-0.1256
	c0.222,0.1675,0.278,0.4526,0.2178,0.7538c-0.0377,0.1885-0.1655,0.3454-0.3407,0.459"/>
<path class="st17" d="M25.3932,22.4935c-0.2178-0.1005-0.397-0.0812-0.5318,0.0792c-0.155,0.1843-0.1609,0.4553-0.1298,0.6076
	c0.0461,0.2261,0.1114,0.3201,0.2913,0.4841"/>
<path class="st18" d="M24.8443,22.5943c-0.2596-0.1717-0.5408-0.0988-0.6952,0.1298c-0.1131,0.1675-0.142,0.3077-0.134,0.5151
	c0.0137,0.3555,0.2361,0.6373,0.4816,0.7747"/>
<path class="st18" d="M24.0951,22.8237c-0.2816,0.0343-0.5063,0.273-0.5063,0.562c0,0.3727,0.0917,0.5235,0.3011,0.8082
	c0.2099,0.2854,0.8962,0.8082,0.8962,1.4029c0,0.3602-0.1005,0.5904-0.3601,0.7077c-0.1674,0.0756-0.3632-0.0062-0.4523-0.0868
	c-0.2178-0.1968-0.1307-0.542,0.0963-0.5832c0.2764-0.0503,0.3283,0.3849,0.0586,0.3559"/>
<path class="st18" d="M23.6216,23.1932c-0.2136,0.0167-0.4237,0.2005-0.4237,0.4259c0,0.3225,0.1284,0.4719,0.386,0.7926
	c0.222,0.2764,0.849,0.7526,0.8322,1.2174c-0.0063,0.1758-0.1245,0.3907-0.2417,0.3655"/>
<path class="st17" d="M23.1191,29.6713c0.1005-0.2429,0.3602-0.134,0.3761,0c0.0368,0.3087-0.2337,0.402-0.4264,0.3518
	c-0.0954-0.0249-0.1652-0.085-0.2098-0.1633c-0.0503-0.0883-0.0656-0.2036-0.0329-0.3137c0.0148-0.0499,0.0357-0.092,0.0714-0.139
	c0.0359-0.0473,0.0729-0.0797,0.1077-0.1018c0.0741-0.0473,0.1548-0.052,0.2814-0.052c0.469,0,0.8794,0.5542,1.0173,1.1299
	c0.0454,0.1896,0.1078,0.6125,0.0213,1.0134c-0.0921,0.4271-0.2768,0.7228-0.4934,0.9472
	c-0.1173,0.1214-0.2772,0.2296-0.4842,0.3466c-0.0639,0.0361-0.2327,0.111-0.3499,0.1445
	c-0.1204,0.0344-0.2336,0.0371-0.3317,0.0076c-0.2382-0.0715-0.3911-0.294-0.2671-0.5833c0.0965-0.2252,0.4523-0.335,0.6114-0.0586
	c0.0135,0.0234,0.0345,0.0745,0.0338,0.1298c-0.0009,0.0737-0.0315,0.1625-0.0841,0.196c-0.121,0.077-0.3145,0.0552-0.3055-0.1584"
	/>
<path class="st18" d="M22.755,32.5557c0.0879,0.0339,0.136,0.0293,0.2455-0.0193c0.0449-0.0199,0.0963-0.0508,0.1566-0.085
	c0.2144-0.1218,0.469-0.3137,0.7077-0.7618c0.0706-0.1325,0.1144-0.2555,0.1439-0.3766c0.0228-0.0935,0.0386-0.1859,0.042-0.2807
	c0.0058-0.1616-0.0116-0.3303-0.0519-0.5236c-0.0666-0.3192-0.1468-0.4925-0.3434-0.7622
	c-0.0967-0.1326-0.1801-0.2136-0.3601-0.2177"/>
<path class="st18" d="M22.5002,32.1296c-0.0037-0.0196-0.0056-0.0399-0.0056-0.0606c0-0.1816,0.1472-0.3287,0.3287-0.3287
	c0.1816,0,0.3287,0.1472,0.3287,0.3287c0,0.1045-0.0487,0.1975-0.1247,0.2578"/>
<path class="st18" d="M22.6278,31.8027c0.0248-0.1492,0.1515-0.2628,0.3042-0.2628c0.1704,0,0.3086,0.1416,0.3086,0.3162
	c0,0.0855-0.0331,0.1631-0.087,0.22"/>
<path class="st18" d="M23.2279,31.786c0.2806-0.201,0.521-0.5847,0.5235-1.0382c0.0019-0.3487-0.1382-0.7035-0.3015-0.8417"/>
<path class="st17" d="M23.6733,31.6314c-0.1101,0.1633-0.2433,0.3449-0.5246,0.4976"/>
<path class="st18" d="M24.5093,32.8325c-0.078-0.1836-0.2332-0.2685-0.4858-0.2955c-0.2511-0.0268-0.4685,0.0422-0.691,0.1618
	c-0.4341,0.2335-0.6762,0.4845-0.8376,0.9502c-0.041,0.1182-0.0749,0.2965-0.0702,0.4859c0.0076,0.3019,0.0842,0.6318,0.1665,0.7914
	c0.0718,0.1392,0.2596,0.7538,1.2898,1.1779c0.6012,0.2475,1.5243,0.3045,2.1609,0.3296c0.8756,0.0346,1.6835,0.067,2.1525,0.6449"
	/>
<path class="st17" d="M23.2537,33.0167c0.2758-0.1809,0.7992-0.4181,1.2725-0.1846c0.1755,0.0866,0.2931,0.1937,0.3595,0.3684
	c0.1196,0.3145-0.0141,0.6612-0.1502,0.8052c-0.0712,0.0754-0.2262,0.2194-0.4188,0.222c-0.3183,0.0042-0.3939-0.2185-0.402-0.268
	c-0.0377-0.2303,0.0963-0.3225,0.1675-0.3476c0.0546-0.0193,0.2323-0.0143,0.2699,0.1112c0.0126,0.0419,0.0148,0.1149-0.0187,0.1693
	"/>
<path class="st18" d="M24.3504,33.8462c0.0251-0.0921,0.0122-0.1889-0.0712-0.2806c-0.0838-0.0921-0.3057-0.1801-0.4942-0.0754
	c-0.063,0.035-0.1421,0.0812-0.2136,0.1759c-0.027,0.0358-0.0727,0.0937-0.0963,0.134c-0.057,0.0975-0.0805,0.1774-0.0917,0.2094
	c-0.2071,0.5886,0.13,1.2136,0.5524,1.4824c0.3685,0.2345,0.7454,0.3015,1.2102,0.3434c0.2151,0.0194,0.337,0.0235,0.5528,0.0335
	c0.1736,0.008,0.3236,0.0052,0.4648,0.0034c0.1162-0.0015,0.2265-0.0009,0.3392-0.0034c0.184-0.0043,0.3743-0.0086,0.6073,0.0084
	c0.2451,0.0178,0.4294,0.0241,0.6366,0.0586c0.1353,0.0226,0.2939,0.0443,0.4601,0.0816c0.0499,0.0112,0.1005,0.0203,0.1513,0.0356
	c0.0342,0.0103,0.0679,0.0208,0.1013,0.0309c0.3001,0.0915,0.5917,0.203,0.8218,0.3512c0.0711,0.0458,0.153,0.09,0.2088,0.1459
	c0.0429,0.0429,0.0793,0.0677,0.1144,0.1022c0.1611,0.1584,0.3257,0.33,0.3643,0.5622c0.0071,0.0429,0.0071,0.0878,0.0071,0.135
	c0,0.1507-0.1227,0.3559-0.4535,0.423"/>
<path class="st18" d="M28.2156,37.4394c-0.0879,0.1801,0.0121,0.2706,0.134,0.2848c0.1801,0.0209,0.2764-0.1214,0.289-0.2513
	c0.0204-0.2105-0.1571-0.4012-0.3685-0.3978c-0.1904,0.0031-0.3455,0.1259-0.4182,0.295c-0.0264,0.0615-0.0387,0.129-0.0424,0.1992
	c-0.0071,0.1329,0.0396,0.2554,0.1197,0.3487c0.1076,0.1253,0.2754,0.2011,0.454,0.2083c0.3555,0.0143,0.6323-0.3182,0.6323-0.6575
	c0-0.6491-0.9627-1.0031-1.3443-1.0942c-0.469-0.1119-0.7544-0.1538-1.5076-0.1956c-0.3015-0.0167-0.5223-0.0082-0.8543-0.0427
	c-0.2971-0.0308-0.4523-0.0453-0.758-0.1165c-0.3815-0.0888-0.7371-0.2471-1.0553-0.536c-0.2451-0.2225-0.3853-0.3811-0.4987-0.6868
	c-0.0979-0.2638-0.1429-0.7862,0.1051-1.1725c0.2192-0.3415,0.5235-0.5189,0.8711-0.5691c0.314-0.0454,0.5894,0.0901,0.7538,0.4016
	c0.0796,0.1507,0.055,0.4029-0.008,0.5193c-0.0544,0.1005-0.2099,0.2487-0.4024,0.2513c-0.3183,0.0042-0.3939-0.2185-0.402-0.268
	c-0.0377-0.2303,0.0963-0.3225,0.1675-0.3476c0.0546-0.0193,0.2323-0.0143,0.2699,0.1112c0.0126,0.0419,0.0148,0.1149-0.0187,0.1693
	"/>
<path class="st17" d="M26.0799,22.5959c-0.0088-0.0132-0.0186-0.0276-0.0295-0.0436c-0.1424-0.2094-0.3938-0.2646-0.5779-0.1256
	c-0.2219,0.1675-0.278,0.4526-0.2178,0.7538c0.0377,0.1885,0.1655,0.3454,0.3407,0.459"/>
<path class="st18" d="M33.9477,23.2309c-0.3392,0.3685-0.6784,0.4862-1.1851,0.5025c-0.1582,0.0051-0.4607-0.0502-0.6366-0.1755
	c-0.113-0.0805-0.2387-0.2182-0.1591-0.4569c0.0532-0.1596,0.3095-0.6072,0.3221-0.9171c0.0192-0.4734-0.1629-0.7329-0.4477-0.8334
	c-0.5265-0.1858-1.0916,0.3346-1.4322,0.4481c-0.178,0.0593-0.2688,0.0664-0.4313,0.0669
	c-0.1625-0.0006-0.2565-0.0076-0.4346-0.0669c-0.3406-0.1135-0.9058-0.6339-1.4322-0.4481
	c-0.2848,0.1005-0.4669,0.3599-0.4477,0.8334c0.0126,0.3099,0.2689,0.7575,0.3221,0.9171c0.0796,0.2387-0.0461,0.3764-0.1591,0.4569
	c-0.1759,0.1252-0.4783,0.1806-0.6366,0.1755c-0.5067-0.0163-0.8459-0.134-1.1851-0.5025"/>
<path class="st17" d="M28.1057,36.2604c0.0671,0.0262,0.0163-0.0159,0.4414,0.1725c0.4081,0.1809,0.6977,0.3393,0.9514,0.7399
	c0.0796,0.1256,0.1005,0.3057,0.1005,0.4104c0,0.0675-0.0082,0.1376-0.0247,0.2069"/>
<path class="st18" d="M28.1332,38.0804c0.0827,0.0414,0.1766,0.0655,0.2737,0.0694c0.3555,0.0143,0.6324-0.3183,0.6324-0.6575
	c0-0.2352-0.128-0.4333-0.3074-0.5925"/>
<path class="st17" d="M28.2102,37.4389c-0.0858,0.1914,0.0365,0.2949,0.1584,0.3091c0.1801,0.0209,0.2814-0.1214,0.294-0.2513
	c0.0137-0.1412-0.0617-0.2785-0.1766-0.3493"/>
<path class="st18" d="M35.9131,22.8269c0.2703,0,0.506,0.3008,0.506,0.6096c0,0.3558-0.1892,0.5735-0.3279,0.7382
	c-0.1116,0.1325-0.2325,0.2511-0.3761,0.3958"/>
<path class="st17" d="M35.5927,22.542c0.0919,0.0426,0.1726,0.1146,0.2341,0.2057c0.1131,0.1675,0.1418,0.3077,0.134,0.5151
	c-0.0134,0.3555-0.2692,0.6016-0.498,0.7519"/>
<path class="st17" d="M35.061,22.542c0.0187,0.0159,0.0366,0.0341,0.0539,0.0546c0.1549,0.1843,0.1669,0.4566,0.1298,0.6076
	c-0.0558,0.2269-0.1308,0.3247-0.3149,0.4604"/>
<path class="st17" d="M34.5036,22.4488c0.2219,0.1675,0.2879,0.4572,0.2144,0.7555c-0.0525,0.2131-0.1866,0.3409-0.3536,0.4426"/>
<path class="st17" d="M35.3007,27.1042c0.0266,0.078,0.0704,0.105,0.1256,0.1628c0.1201,0.1258,0.296,0.2339,0.5183,0.2965
	c0.2054,0.0578,0.3905,0.0143,0.5317-0.0736"/>
<path class="st17" d="M22.7577,32.0375c0.1043-0.0019,0.2084,0.0686,0.2765,0.1868c0.0135,0.0235,0.0345,0.0745,0.0338,0.1298
	c-0.0009,0.0737-0.0331,0.1525-0.0858,0.186c-0.121,0.077-0.3357,0.0439-0.3267-0.1697"/>
<path class="st18" d="M23.4062,29.2652c0.4149,0.0774,0.8144,0.5779,0.9451,1.1239c0.0454,0.1896,0.1078,0.6125,0.0213,1.0134
	c-0.0921,0.4271-0.2768,0.7228-0.4934,0.9472c-0.0514,0.0532-0.1109,0.1038-0.179,0.1538l-0.0885,0.06"/>
<path class="st18" d="M22.9446,31.542c0.1704,0,0.3196,0.1633,0.3196,0.3379c0,0.0855-0.0331,0.1631-0.087,0.22"/>
<path class="st18" d="M22.8293,31.7402c0.1776,0,0.3465,0.1711,0.3465,0.3526c0,0.1045-0.0487,0.1976-0.1247,0.2578"/>
<path class="st17" d="M24.457,29.9546c0.1631,0.2188,0.2707,0.4073,0.3207,0.6501"/>
<path class="st17" d="M24.7721,31.319c-0.0269,0.121-0.0678,0.2329-0.1219,0.3405c-0.0686,0.1363-0.1881,0.288-0.2991,0.3906"/>
<path class="st18" d="M24.4829,28.6792c0.1572,0.1229,0.252,0.25,0.2963,0.4023"/>
<path class="st17" d="M24.7834,28.2698c-0.0413,0.1432-0.135,0.2517-0.2836,0.3874"/>
<path class="st17" d="M23.7293,27.2114l0.1814-0.0478l0.1074-0.0812l0.0692-0.0979l0.0597-0.1528l0.0239-0.1241"/>
<path class="st18" d="M23.362,26.5726c-0.0573,0.0143-0.1299,0.0355-0.206,0.0718c-0.102,0.0486-0.2102,0.1242-0.2966,0.2465
	c-0.1,0.1416-0.1583,0.3386-0.1944,0.5109c-0.0158,0.0754-0.0346,0.3141,0.0136,0.5607c0.0356,0.1821,0.1108,0.3516,0.194,0.4743
	c0.0298,0.044,0.0569,0.082,0.0873,0.1124c0.1089,0.1089,0.2094,0.1759,0.3769,0.1424"/>
<path class="st17" d="M24.3784,25.7738c-0.0294,0.1081-0.0875,0.242-0.2571,0.2274"/>
<path class="st18" d="M23.7584,26.5074c-0.1629-0.1592-0.5079-0.2007-0.8509,0.0163c-0.0441,0.0279-0.0882,0.0637-0.1319,0.1001
	c-0.0472,0.0393-0.0848,0.0845-0.1212,0.1337c-0.0395,0.0535-0.0881,0.1444-0.1175,0.2047
	c-0.0404,0.0832-0.0571,0.1378-0.0794,0.223c-0.0626,0.24-0.0624,0.463-0.055,0.5266c0.0095,0.0815,0.0172,0.1564,0.0306,0.2253
	c0.0455,0.2355,0.1152,0.4007,0.1872,0.5201c0.0758,0.1256,0.2642,0.4142,0.6495,0.4523c0.1514,0.015,0.41-0.0544,0.4184-0.2513"/>
<path class="st17" d="M33.6967,23.0182c0.0258-0.139,0.1933-0.1659,0.2563-0.0838c0.097,0.1265,0.0328,0.3437-0.1644,0.4054
	c-0.067,0.0209-0.2219,0.0126-0.3225-0.1173c-0.0815-0.1052-0.0752-0.2356-0.0448-0.3392c0.0197-0.067,0.0735-0.1255,0.1453-0.1801
	c0.229-0.1742,0.5988-0.134,0.7203,0.1591c0.1567,0.3781-0.1842,0.6617-0.4983,0.8752c-0.3954,0.2689-0.8459,0.3178-1.1851,0.3141
	c-0.7706-0.0084-1.3568-0.3769-1.7379-0.5862c-0.0888-0.0488-0.1802-0.0388-0.2261,0.0167
	c-0.0519,0.0627-0.051,0.1639,0.0209,0.2303"/>
<path class="st17" d="M33.8518,22.8878c0.0817,0.0038,0.1035,0.0356,0.1286,0.0683c0.0969,0.1265,0.0261,0.3438-0.1711,0.4054"/>
<path class="st17" d="M35.3104,27.6994c-0.2936,0.3195-0.0235,0.8681,0.1959,0.992c0.076,0.0591,0.1084,0.0278,0.1692,0.0633"/>
<path class="st18" d="M35.326,27.0886c-0.0963,0.067-0.1303,0.1423-0.134,0.2731c-0.0031,0.1095,0.0159,0.231,0.1187,0.3379
	c0.16,0.1665,0.4732,0.3115,0.7767,0.3153c0.1646,0.002,0.3355-0.0324,0.5075-0.1473c0.1838-0.1229,0.2806-0.289,0.3225-0.4523"/>
<path class="st18" d="M35.1618,32.6155c0,0.001-0.0005,0.1287-0.0114,0.2094c-0.0319,0.235-0.0693,0.3702-0.1759,0.5821
	c-0.104,0.2066-0.1871,0.3151-0.3518,0.4774c-0.1662,0.1638-0.2814,0.2388-0.49,0.3434c-0.2031,0.1018-0.3311,0.1342-0.5528,0.1842
	c-0.2215,0.05-0.3511,0.0609-0.5779,0.0712c-0.208,0.0094-0.326,0.0006-0.5338-0.0137c-0.2223-0.0154-0.3456-0.0464-0.5676-0.0658
	c-0.1833-0.0161-0.2869-0.0309-0.4709-0.0305c-0.1892,0.0005-0.2976,0.0017-0.4839,0.0347
	c-0.1736,0.0307-0.2721,0.0552-0.4355,0.1214c-0.2261,0.0916-0.4816,0.2513-0.536,0.3225c-0.0544-0.0712-0.3099-0.2309-0.536-0.3225
	c-0.1634-0.0662-0.2619-0.0907-0.4355-0.1214c-0.1863-0.033-0.2947-0.0342-0.4839-0.0347c-0.184-0.0005-0.2876,0.0144-0.4709,0.0305
	c-0.222,0.0195-0.3453,0.0505-0.5676,0.0658c-0.2077,0.0144-0.3257,0.0231-0.5338,0.0137
	c-0.2269-0.0103-0.3564-0.0212-0.5779-0.0712c-0.2216-0.0501-0.3496-0.0824-0.5528-0.1842c-0.2086-0.1046-0.3238-0.1796-0.49-0.3434
	c-0.1647-0.1623-0.2478-0.2708-0.3518-0.4774c-0.1066-0.2118-0.144-0.3471-0.1759-0.5821c-0.011-0.0807-0.0114-0.2084-0.0114-0.2094
	v0v-8.5653h10.3713v8.5653L35.1618,32.6155L35.1618,32.6155z"/>
<path class="st20" d="M23.9491,33.8392c0-0.1162,0.0942-0.2104,0.2104-0.2104c0.1162,0,0.2104,0.0942,0.2104,0.2104
	c0,0.1162-0.0942,0.2104-0.2104,0.2104C24.0433,34.0497,23.9491,33.9555,23.9491,33.8392z"/>
<path class="st20" d="M22.6569,32.3521c0-0.1041,0.0666-0.1884,0.1487-0.1884s0.1487,0.0844,0.1487,0.1884
	c0,0.1041-0.0666,0.1884-0.1487,0.1884S22.6569,32.4562,22.6569,32.3521z"/>
<path class="st3" d="M23.3911,28.6167c0-0.0855,0.0643-0.1548,0.1435-0.1548c0.0793,0,0.1435,0.0693,0.1435,0.1548
	c0,0.0855-0.0643,0.1548-0.1435,0.1548C23.4553,28.7714,23.3911,28.7021,23.3911,28.6167z"/>
<path class="st3" d="M25.969,23.093c-0.0091-0.0857,0.0424-0.1614,0.115-0.169c0.0726-0.0076,0.1388,0.0557,0.1478,0.1415
	c0.0091,0.0857-0.0424,0.1614-0.115,0.169C26.0442,23.2421,25.978,23.1788,25.969,23.093z"/>
<path class="st21" d="M23.2225,29.4882c-0.0309,0.0135-0.048,0.0246-0.0712,0.049c-0.0222,0.0233-0.0268,0.0318-0.044,0.0699
	c-0.0126,0.0279-0.0159,0.0602-0.0205,0.1001"/>
<path class="st21" d="M23.4837,31.9583c0.0292-0.0354,0.0469-0.0545,0.075-0.0909c0.0234-0.0302,0.0373-0.0469,0.0578-0.0791
	c0.0185-0.029,0.0268-0.0467,0.0431-0.0771c0.023-0.0428,0.0345-0.0677,0.0565-0.111"/>
<path class="st21" d="M23.6098,32.7733c-0.0498,0.0229-0.0793,0.033-0.1277,0.0586c-0.0368,0.0195-0.0568,0.032-0.0921,0.054
	c-0.0417,0.0261-0.065,0.0413-0.1047,0.0704c-0.0413,0.0303-0.0626,0.0501-0.1026,0.0821"/>
<path class="st21" d="M24.4419,29.8496c-0.027-0.0278-0.0416-0.044-0.0691-0.0712c-0.0288-0.0284-0.0444-0.0452-0.0754-0.0712
	c-0.03-0.0252-0.0491-0.0368-0.0804-0.0603"/>
<path class="st22" d="M24.4748,28.7303c-0.04,0.0178-0.061,0.032-0.1026,0.0457c-0.0477,0.0157-0.08,0.0239-0.126,0.026"/>
<path class="st21" d="M23.0652,27.3412c0.0137,0.0488,0.0167,0.078,0.0352,0.1252c0.0232,0.0594,0.0426,0.0906,0.0779,0.1436
	c0.0368,0.0553,0.0598,0.0859,0.1072,0.1323c0.0417,0.0408,0.0681,0.0614,0.1168,0.0934c0.0463,0.0304,0.0764,0.0409,0.1252,0.067"
	/>
<path class="st21" d="M23.4444,27.4096c0.0408,0.0219,0.0619,0.0383,0.1047,0.0561c0.0387,0.0161,0.0617,0.0229,0.1026,0.0322
	c0.0553,0.0127,0.0878,0.0159,0.1445,0.0172c0.0614,0.0015,0.0796,0,0.157-0.0126"/>
<path class="st21" d="M24.5567,24.0809c-0.0671-0.0392-0.1082-0.0563-0.1721-0.1005c-0.0651-0.0449-0.1009-0.0725-0.1575-0.1277
	c-0.0408-0.0398-0.0636-0.0631-0.0976-0.1089c-0.0303-0.0409-0.0419-0.0677-0.0687-0.111"/>
<path class="st21" d="M24.6919,23.2498c0.0211,0.0563,0.0271,0.0907,0.054,0.1445c0.0366,0.073,0.0648,0.1113,0.1198,0.1717
	c0.0762,0.0836,0.1407,0.1073,0.2307,0.1759"/>
<path class="st21" d="M25.2187,23.2438c0.0209,0.0506,0.0273,0.0818,0.0536,0.1298c0.0233,0.0425,0.0393,0.0651,0.0699,0.1026
	c0.0391,0.0479,0.0645,0.0728,0.1131,0.111c0.0565,0.0444,0.0965,0.0575,0.1583,0.0942"/>
<path class="st23" d="M31.1328,22.5598c-0.0043-0.1427-0.1449-0.1575-0.1987-0.1575c-0.1554,0-0.1975,0.0969-0.3914,0.2011
	c-0.243,0.1305-0.3477,0.1595-0.5637,0.1615c-0.216-0.0019-0.3234-0.0309-0.5665-0.1615c-0.1939-0.1041-0.2265-0.1979-0.3819-0.1979
	c-0.0844,0-0.1933,0.0729-0.1892,0.2064c0,0-0.0016,0.0433,0.005,0.0725c0.0025,0.011,0.0159,0.0076,0.0201,0.0172
	c-0.002-0.0648,0.0112-0.0983,0.0431-0.1418c0.041-0.0559,0.109-0.0707,0.1368-0.0707c0.1554,0,0.213,0.0997,0.4068,0.2038
	c0.243,0.1305,0.3476,0.1595,0.5636,0.1615c0.216-0.0019,0.3235-0.0309,0.5666-0.1615c0.1939-0.1041,0.2496-0.2121,0.405-0.2121
	c0.0539,0,0.0919,0.0349,0.1095,0.0898c0.0109,0.0338,0.0047,0.0563,0.0076,0.0697c0.0014,0.0065,0.0094,0.0059,0.0111,0.0129
	C31.122,22.628,31.1346,22.619,31.1328,22.5598z"/>
<path class="st24" d="M25.3339,34.5448c0.0436-0.047,0.0766-0.0293,0.0847-0.0509c0.006-0.016-0.0069-0.0176-0.0247-0.0243
	c-0.0237-0.0089-0.0489-0.014-0.0726-0.0228c-0.0246-0.0092-0.0469-0.0218-0.0715-0.031c-0.0102-0.0038-0.0337-0.0158-0.0404,0.0021
	c-0.0123,0.0329,0.0863,0.0301,0.0532,0.1186c-0.0056,0.015-0.0196,0.0474-0.0686,0.1009l-0.2231,0.2428
	c-0.005,0.0056-0.0133,0.0176-0.0184,0.0156c-0.0051-0.0019-0.0044-0.0167-0.0045-0.0242l0.0032-0.3443
	c0.0003-0.0653,0.0058-0.1137,0.0164-0.1419c0.0148-0.0395,0.0603-0.0064,0.0698-0.0318c0.006-0.016,0.0014-0.0166-0.0257-0.0268
	c-0.0136-0.0051-0.0395-0.0105-0.0937-0.0308c-0.0288-0.0108-0.0562-0.0253-0.0842-0.0358
	c-0.0127-0.0047-0.0361-0.0221-0.0446,0.0005c-0.0025,0.0066,0.0064,0.0164,0.0086,0.0182
	c0.0312,0.0224,0.0392,0.0372,0.0399,0.0793l0.0061,0.6267c0.0005,0.0452,0.0054,0.0578,0.0139,0.061
	c0.0093,0.0035,0.0157-0.0006,0.0341-0.0216L25.3339,34.5448L25.3339,34.5448z"/>
<path class="st24" d="M25.5941,34.6418c0.0287-0.091,0.0825-0.0362,0.0928-0.0687c0.0036-0.0115-0.0001-0.0148-0.026-0.0229
	c-0.0492-0.0155-0.0814-0.0215-0.1125-0.0313c-0.0302-0.0095-0.0626-0.024-0.0963-0.0346
	c-0.0078-0.0025-0.0284-0.0121-0.0336,0.0041c-0.0106,0.0335,0.0954,0.0374,0.0679,0.1246l-0.1451,0.4601
	c-0.0287,0.091-0.083,0.0465-0.0935,0.0801c-0.0015,0.0048-0.0019,0.0121,0.0059,0.0145c0.0224,0.0071,0.0607,0.0149,0.0978,0.0266
	c0.0673,0.0212,0.098,0.0351,0.1299,0.0452c0.0198,0.0063,0.0288,0.0048,0.0321-0.0057c0.0097-0.0307-0.1008-0.017-0.0637-0.1349
	L25.5941,34.6418L25.5941,34.6418z"/>
<path class="st24" d="M25.9054,34.7339c0.0171-0.0578,0.044-0.0499,0.0761-0.0404c0.0876,0.0259,0.115,0.1116,0.0871,0.2061
	c-0.0168,0.0569-0.038,0.1093-0.1699,0.0702c-0.026-0.0077-0.0581-0.0172-0.051-0.0413L25.9054,34.7339L25.9054,34.7339z
	 M25.6666,35.1484c-0.036,0.1214-0.0968,0.0688-0.1059,0.0996c-0.0057,0.0193,0.0134,0.0218,0.0229,0.0246
	c0.0434,0.0128,0.0879,0.0218,0.1347,0.0357c0.0364,0.0108,0.0587,0.0216,0.0735,0.0259c0.0199,0.0059,0.0286,0.0022,0.0312-0.0065
	c0.0103-0.0347-0.0873-0.0206-0.0568-0.1237l0.0494-0.1667c0.01-0.0337,0.0068-0.042,0.0527-0.0284
	c0.0434,0.0128,0.0564,0.0261,0.0638,0.0744l0.0278,0.1738c0.0103,0.0639,0.0201,0.1328,0.0886,0.1531
	c0.0347,0.0103,0.0982,0.006,0.1071-0.0238c0.0023-0.0077-0.0012-0.015-0.009-0.0173c-0.0087-0.0026-0.0191,0.0006-0.0277-0.0019
	c-0.0069-0.002-0.0234-0.007-0.0267-0.0247c-0.0265-0.1399-0.0588-0.3015-0.0571-0.3073c0.0028-0.0096,0.0306-0.0108,0.0623-0.0256
	c0.032-0.0157,0.0677-0.0439,0.086-0.1055c0.0131-0.0443,0.036-0.1853-0.1539-0.2416c-0.0581-0.0172-0.1182-0.0308-0.1763-0.048
	c-0.0546-0.0162-0.0604-0.0221-0.1003-0.0339c-0.0104-0.0031-0.0205-0.0009-0.0234,0.0088
	c-0.0103,0.0347,0.0948,0.027,0.0628,0.1349L25.6666,35.1484L25.6666,35.1484z"/>
<path class="st24" d="M26.3756,35.356c-0.0279,0.1163-0.116,0.0455-0.1252,0.0836c-0.0052,0.0215,0.01,0.0241,0.0259,0.0279
	c0.0352,0.0084,0.0651,0.0115,0.1241,0.0257c0.0589,0.0141,0.087,0.025,0.1222,0.0335c0.0255,0.0061,0.0424,0.0133,0.048-0.0102
	c0.0066-0.0274-0.1128-0.0261-0.0839-0.1463l0.106-0.4417c0.0113-0.0469,0.0212-0.0497,0.0573-0.041l0.0747,0.0179
	c0.1021,0.0204,0.0479,0.1221,0.0831,0.1305c0.0229,0.0055,0.0223-0.0349,0.0234-0.0471l0.0119-0.0922
	c0.0015-0.01,0.0047-0.0237-0.0084-0.0268c-0.0818-0.0196-0.1417-0.0299-0.2701-0.0607c-0.1284-0.0308-0.1864-0.0489-0.2682-0.0685
	c-0.0132-0.0032-0.0165,0.0105-0.0197,0.0201l-0.045,0.1256c-0.0048,0.0123-0.0152,0.0325,0.0032,0.0369
	c0.0396,0.0095,0.0439-0.1248,0.1433-0.101l0.0739,0.0177c0.036,0.0087,0.0437,0.0157,0.0324,0.0626L26.3756,35.356L26.3756,35.356z
	"/>
<path class="st24" d="M27.4443,35.0835c0.0348-0.0538,0.0704-0.0421,0.0746-0.0649c0.0031-0.0168-0.0099-0.0161-0.0286-0.0196
	c-0.0249-0.0046-0.0505-0.0053-0.0754-0.0099c-0.0258-0.0048-0.05-0.0134-0.0757-0.0181c-0.0107-0.002-0.0359-0.0097-0.0394,0.009
	c-0.0064,0.0346,0.0902,0.0147,0.073,0.1076c-0.0029,0.0158-0.0111,0.0501-0.0501,0.1113l-0.1775,0.2778
	c-0.0039,0.0064-0.0101,0.0196-0.0154,0.0186c-0.0053-0.001-0.0072-0.0156-0.0086-0.0231l-0.0566-0.3396
	c-0.0111-0.0644-0.014-0.113-0.0085-0.1426c0.0077-0.0415,0.0583-0.0168,0.0632-0.0435c0.0031-0.0168-0.0015-0.0166-0.03-0.0219
	c-0.0142-0.0026-0.0408-0.0034-0.0977-0.014c-0.0302-0.0056-0.0597-0.0152-0.0891-0.0206
	c-0.0133-0.0025-0.0394-0.0155-0.0438,0.0082c-0.0013,0.0069,0.0092,0.015,0.0117,0.0165c0.0346,0.0166,0.0451,0.0298,0.053,0.0711
	l0.1148,0.6161c0.0083,0.0445,0.0154,0.056,0.0243,0.0577c0.0098,0.0018,0.0153-0.0033,0.0299-0.0272L27.4443,35.0835
	L27.4443,35.0835z"/>
<path class="st24" d="M27.4944,35.6496c0.0005,0.0245-0.0017,0.0323,0.0196,0.042c0.0496,0.0215,0.0911,0.053,0.1455,0.062
	c0.1168,0.0196,0.2137-0.0549,0.2354-0.1848c0.0211-0.1259-0.0307-0.1784-0.1183-0.2409c-0.1097-0.0785-0.1567-0.0996-0.1455-0.166
	c0.0111-0.0664,0.0576-0.0974,0.1164-0.0875c0.1534,0.0257,0.136,0.2123,0.1565,0.2157c0.0196,0.0033,0.0243-0.0082,0.0262-0.0303
	l0.0124-0.1345c0.002-0.0231,0.0072-0.0375-0.0062-0.0397c-0.0116-0.0019-0.0366,0.0102-0.0481,0.0082
	c-0.0268-0.0045-0.0578-0.0494-0.1309-0.0616c-0.1044-0.0175-0.1897,0.0538-0.2087,0.1678
	c-0.0174,0.1041,0.0288,0.1515,0.0992,0.202c0.1319,0.0944,0.1859,0.1167,0.1718,0.201c-0.0133,0.0793-0.0748,0.1179-0.1443,0.1063
	c-0.099-0.0166-0.1392-0.116-0.1518-0.216c-0.0014-0.0135-0.0017-0.0227-0.016-0.0251c-0.0223-0.0037-0.0182,0.0265-0.0178,0.0408
	L27.4944,35.6496z"/>
<path class="st24" d="M28.8259,35.2741c0.029-0.0572,0.0656-0.0493,0.0674-0.0723c0.0013-0.017-0.0115-0.015-0.0305-0.0165
	c-0.0252-0.002-0.0508,0-0.0761-0.0019c-0.0261-0.002-0.0511-0.0081-0.0772-0.0101c-0.0108-0.0009-0.0367-0.0059-0.0382,0.0131
	c-0.0028,0.0351,0.0912,0.0052,0.0838,0.0993c-0.0013,0.016-0.0058,0.051-0.0382,0.116l-0.1475,0.2948
	c-0.0033,0.0068-0.008,0.0205-0.0134,0.0201c-0.0054-0.0005-0.0088-0.0148-0.011-0.022l-0.0918-0.3318
	c-0.0177-0.0629-0.0258-0.1109-0.0234-0.141c0.0033-0.0421,0.0562-0.0228,0.0584-0.0499c0.0013-0.017-0.0032-0.0164-0.0321-0.0186
	c-0.0144-0.0011-0.0409,0.0009-0.0986-0.0037c-0.0306-0.0024-0.061-0.0088-0.0907-0.0112
	c-0.0135-0.0011-0.0408-0.0113-0.0427,0.0127c-0.0006,0.007,0.0107,0.014,0.0133,0.0152c0.0362,0.0129,0.0479,0.0249,0.0602,0.0652
	l0.1786,0.6007c0.0129,0.0434,0.0211,0.0541,0.0302,0.0548c0.0099,0.0008,0.0149-0.0049,0.0269-0.0301L28.8259,35.2741
	L28.8259,35.2741z"/>
<path class="st24" d="M28.9686,35.7611c-0.0009,0.1025-0.0876,0.0837-0.0879,0.1238c-0.0001,0.0171,0.018,0.0122,0.0279,0.0123
	c0.0244,0,0.0489-0.0036,0.0778-0.0033c0.0317,0.0005,0.0624,0.0046,0.1067,0.005c0.0118,0,0.0344,0.0013,0.0345-0.0128
	c0.0004-0.0472-0.116,0.0201-0.1143-0.1729l0.003-0.3417c0.0001-0.009,0.0019-0.0161,0.0074-0.016
	c0.0045,0,0.0099,0.0051,0.0162,0.0132l0.4305,0.5263c0.0063,0.0081,0.0107,0.0142,0.0234,0.0143
	c0.0109,0,0.0109-0.0079,0.0111-0.0301l0.0049-0.5637c0.0009-0.1055,0.0776-0.0807,0.0779-0.1109
	c0-0.003,0.0001-0.0131-0.0171-0.0132c-0.0081,0-0.0398,0.0037-0.0968,0.0032c-0.0624-0.0006-0.0886-0.0048-0.1031-0.0049
	c-0.0117,0-0.0145,0.0099-0.0146,0.017c-0.0003,0.0332,0.1102,0.016,0.1094,0.1075l-0.0029,0.3346
	c-0.0003,0.0251-0.0021,0.0372-0.0076,0.0371c-0.0054,0-0.0162-0.0122-0.0278-0.0264l-0.3597-0.4463
	c-0.0161-0.0192-0.0052-0.0262-0.0341-0.0264c-0.0479-0.0005-0.0715,0.0034-0.095,0.0032c-0.0172,0-0.0334-0.0043-0.0506-0.0045
	c-0.0109,0-0.0154,0.0079-0.0155,0.0169c-0.0005,0.0482,0.1014-0.0162,0.0997,0.1767L28.9686,35.7611L28.9686,35.7611z"/>
<path class="st24" d="M29.8444,35.3086c0.0009-0.0955,0.0684-0.0587,0.0686-0.0929c0.0001-0.0121-0.0044-0.0141-0.0315-0.0144
	c-0.0515-0.0005-0.0842,0.0033-0.1167,0.003c-0.0317,0-0.0669-0.0046-0.1022-0.0049c-0.0081-0.0001-0.0307-0.0033-0.0309,0.0138
	c-0.0003,0.0352,0.0971,0.0079,0.0963,0.0994l0.0009,0.4824c-0.0009,0.0955-0.0657,0.0688-0.066,0.1039
	c0,0.005,0.0017,0.0121,0.0098,0.0121c0.0235,0.0005,0.0624-0.0034,0.1013-0.0031c0.0705,0.0006,0.104,0.0049,0.1374,0.0052
	c0.0208,0,0.029-0.0038,0.0291-0.0148c0.0003-0.0322-0.1014,0.0132-0.1003-0.1104L29.8444,35.3086L29.8444,35.3086z"/>
<path class="st24" d="M30.2236,35.7756c0.0011,0.1196-0.1016,0.0722-0.1012,0.1114c0.0003,0.0221,0.0156,0.021,0.0318,0.0208
	c0.0362-0.0005,0.066-0.0046,0.1266-0.0051c0.0606-0.0005,0.0905,0.0032,0.1267,0.0029c0.0262,0,0.0444,0.0026,0.0441-0.0215
	c-0.0003-0.0281-0.1158,0.002-0.1168-0.1216l-0.004-0.4542c-0.0004-0.0482,0.0086-0.0533,0.0457-0.0536l0.0769-0.0006
	c0.104-0.0049,0.076,0.1069,0.1122,0.1066c0.0235,0,0.0132-0.0393,0.0113-0.0514l-0.0108-0.0924
	c-0.001-0.0101-0.0011-0.0241-0.0147-0.024c-0.0841,0.0008-0.1447,0.0053-0.2767,0.0064c-0.1321,0.0011-0.1927-0.0024-0.2768-0.0016
	c-0.0136,0-0.0134,0.0142-0.0143,0.0243l-0.0133,0.1328c-0.0017,0.0131-0.0069,0.0352,0.0121,0.0351
	c0.0407-0.0005,0.0124-0.1318,0.1146-0.1327l0.076-0.0008c0.0371-0.0005,0.0462,0.0046,0.0466,0.0528L30.2236,35.7756
	L30.2236,35.7756z"/>
<path class="st24" d="M30.7504,35.5855c-0.0162,0.0013-0.0288,0.0033-0.0296-0.0067c-0.0011-0.014,0.0034-0.0255,0.007-0.0378
	l0.0555-0.1828c0.0036-0.0114,0.0072-0.0127,0.009-0.0128c0.0045-0.0005,0.0018,0,0.0078,0.0074l0.0882,0.1755
	c0.0055,0.0117,0.0117,0.0223,0.0128,0.0363c0.0007,0.01-0.0119,0.01-0.0281,0.0113L30.7504,35.5855L30.7504,35.5855z
	 M30.9052,35.6277c0.0235-0.0018,0.0287,0.0078,0.0646,0.0836c0.0121,0.0263,0.0198,0.0438,0.0215,0.0658
	c0.0048,0.0611-0.0601,0.0551-0.0578,0.0842c0.0011,0.014,0.0127,0.0111,0.0289,0.0098c0.0262-0.002,0.0592-0.0087,0.0989-0.0118
	c0.0595-0.0047,0.0842-0.0026,0.1166-0.0052c0.0243-0.0019,0.0326-0.0006,0.0313-0.0176c-0.0026-0.0331-0.0482,0.0098-0.0827-0.059
	l-0.2917-0.594c-0.0141-0.0291-0.016-0.031-0.0242-0.0304c-0.0117,0.001-0.0147,0.0203-0.0198,0.0368l-0.1966,0.6253
	c-0.0181,0.0579-0.0646,0.0555-0.0628,0.0785c0.0011,0.013,0.0153,0.0099,0.0279,0.0089c0.0261-0.002,0.052-0.0081,0.079-0.0103
	c0.0289-0.0023,0.0562-0.0005,0.0851-0.0026c0.0189-0.0015,0.0474,0.0033,0.0458-0.0177c-0.0021-0.027-0.0983-0.0033-0.1039-0.0755
	c-0.0019-0.0241,0.008-0.0601,0.0127-0.0806c0.0155-0.0678,0.0342-0.0732,0.0495-0.0745L30.9052,35.6277L30.9052,35.6277z"/>
<path class="st24" d="M31.6041,35.2111c-0.0091-0.0688-0.0056-0.0702,0.1029-0.0845c0.1731-0.0228,0.1185,0.103,0.1606,0.0975
	c0.0206-0.0027,0.0118-0.035,0.0092-0.0478l-0.0166-0.0982c-0.0012-0.009-0.0088-0.0181-0.0204-0.0166
	c-0.0789,0.0104-0.1403,0.0225-0.2039,0.0309c-0.1372,0.0181-0.2023,0.0226-0.239,0.0274
	c-0.0126,0.0017-0.0187,0.0106-0.0175,0.0196c0.0052,0.0398,0.1024-0.0054,0.1142,0.0843l0.0614,0.4663
	c0.016,0.1215-0.0592,0.0767-0.0532,0.1225c0.0009,0.006,0.0068,0.0103,0.0185,0.0087c0.0493-0.0065,0.0865-0.0154,0.1143-0.0191
	c0.0395-0.0052,0.0732-0.0056,0.1072-0.0101c0.0224-0.003,0.0418-0.0015,0.0392-0.0214c-0.0035-0.0269-0.1016,0.0113-0.1161-0.0992
	l-0.0194-0.1475c-0.0076-0.0578-0.0128-0.0693,0.0285-0.0747l0.0664-0.0087c0.0933-0.0123,0.0821,0.0966,0.1108,0.0929
	c0.0215-0.0029,0.0114-0.038,0.0088-0.0508l-0.0296-0.1765c-0.0044-0.0268-0.014-0.0235-0.0203-0.0227
	c-0.0179,0.0024-0.0086,0.0944-0.0857,0.1045l-0.0565,0.0074c-0.0386,0.0051-0.0395-0.0019-0.0451-0.0447L31.6041,35.2111
	L31.6041,35.2111z"/>
<path class="st24" d="M31.9348,35.4395c0.0372,0.2006,0.182,0.3117,0.3607,0.2786c0.2837-0.0526,0.2931-0.3047,0.2674-0.443
	c-0.0388-0.2095-0.195-0.3124-0.368-0.2783C31.9828,35.0381,31.8947,35.2231,31.9348,35.4395L31.9348,35.4395z M32.0338,35.3629
	c-0.0266-0.1433-0.0074-0.2879,0.1424-0.3187c0.1143-0.0232,0.2441,0.0713,0.2846,0.2896c0.0304,0.164,0.0052,0.3057-0.1473,0.337
	C32.1548,35.7033,32.0605,35.5072,32.0338,35.3629L32.0338,35.3629z"/>
<path class="st24" d="M32.7352,35.0129c-0.0141-0.0586,0.0132-0.0652,0.0457-0.073c0.0888-0.0213,0.1554,0.0392,0.1784,0.1349
	c0.0139,0.0577,0.0217,0.1136-0.112,0.1457c-0.0264,0.0063-0.0589,0.0141-0.0648-0.0103L32.7352,35.0129L32.7352,35.0129z
	 M32.7357,35.4913c0.0296,0.1231-0.0494,0.108-0.0419,0.1392c0.0047,0.0196,0.0224,0.0122,0.0321,0.0099
	c0.044-0.0106,0.087-0.025,0.1345-0.0364c0.0369-0.0089,0.0616-0.0107,0.0766-0.0142c0.0202-0.0048,0.0259-0.0124,0.0238-0.0212
	c-0.0084-0.0352-0.0859,0.0258-0.111-0.0788l-0.0406-0.169c-0.0082-0.0342-0.0151-0.0398,0.0315-0.051
	c0.044-0.0106,0.0619-0.0056,0.0925,0.0326l0.1109,0.1367c0.0409,0.0501,0.0838,0.1049,0.1533,0.0883
	c0.0352-0.0084,0.0881-0.0439,0.0808-0.0742c-0.0019-0.0078-0.0086-0.0124-0.0165-0.0105c-0.0088,0.0021-0.0162,0.0101-0.025,0.0122
	c-0.007,0.0017-0.0237,0.0057-0.0354-0.0081c-0.0929-0.1079-0.2017-0.2317-0.2031-0.2375c-0.0024-0.0098,0.021-0.0247,0.0412-0.0533
	c0.0199-0.0296,0.0367-0.0718,0.0217-0.1344c-0.0108-0.045-0.0615-0.1785-0.2541-0.1323c-0.0589,0.0141-0.1178,0.0324-0.1767,0.0465
	c-0.0554,0.0133-0.0634,0.0111-0.1038,0.0208c-0.0106,0.0025-0.0182,0.0095-0.0158,0.0193c0.0084,0.0352,0.0956-0.024,0.1219,0.0855
	L32.7357,35.4913L32.7357,35.4913z"/>
<path class="st24" d="M33.4613,35.3291c0.0299,0.1158-0.0811,0.0947-0.0713,0.1326c0.0055,0.0214,0.0202,0.0166,0.0359,0.0125
	c0.035-0.0091,0.0629-0.0204,0.1216-0.0356c0.0587-0.0152,0.0886-0.0188,0.1236-0.0278c0.0254-0.0066,0.0437-0.0082,0.0376-0.0315
	c-0.007-0.0272-0.1118,0.03-0.1428-0.0897l-0.1137-0.4398c-0.0121-0.0467-0.0046-0.0538,0.0313-0.0631l0.0744-0.0192
	c0.0997-0.0299,0.0996,0.0853,0.1346,0.0763c0.0228-0.0059,0.0033-0.0413-0.0014-0.0526l-0.0328-0.087
	c-0.0034-0.0095-0.0069-0.0231-0.02-0.0197c-0.0814,0.0211-0.1391,0.0401-0.2669,0.0732c-0.1278,0.0331-0.1875,0.0443-0.269,0.0654
	c-0.0131,0.0034-0.0096,0.017-0.008,0.027l0.0192,0.1321c0.0015,0.0131,0.0018,0.0359,0.0202,0.0311
	c0.0394-0.0102-0.0198-0.1309,0.0791-0.1564l0.0736-0.019c0.0359-0.0093,0.0459-0.0067,0.058,0.04L33.4613,35.3291L33.4613,35.3291z
	"/>
<path class="st24" d="M33.924,34.7118c-0.0255-0.092,0.0495-0.0753,0.0404-0.1082c-0.0032-0.0116-0.0081-0.0123-0.0343-0.0051
	c-0.0497,0.0138-0.08,0.0264-0.1114,0.0351c-0.0305,0.0085-0.0656,0.014-0.0996,0.0234c-0.0079,0.0022-0.0305,0.0053-0.0259,0.0218
	c0.0094,0.0339,0.1004-0.0205,0.1248,0.0676l0.1289,0.4648c0.0255,0.092-0.0442,0.0842-0.0348,0.1181
	c0.0013,0.0048,0.005,0.0111,0.0128,0.009c0.0226-0.0063,0.0591-0.0206,0.0965-0.0309c0.068-0.0189,0.1013-0.0239,0.1335-0.0329
	c0.0201-0.0056,0.0268-0.0116,0.0239-0.0223c-0.0086-0.031-0.0938,0.0406-0.1269-0.0785L33.924,34.7118L33.924,34.7118z"/>
<path class="st24" d="M34.1168,34.9364c0.0647,0.1935,0.2236,0.2834,0.396,0.2257c0.2736-0.0915,0.2478-0.3425,0.2032-0.476
	c-0.0676-0.202-0.2365-0.2822-0.4031-0.2243C34.1085,34.5323,34.047,34.7277,34.1168,34.9364L34.1168,34.9364z M34.2041,34.8468
	c-0.0462-0.1382-0.0474-0.284,0.0966-0.3354c0.11-0.0389,0.2516,0.0366,0.3221,0.2472c0.0529,0.1582,0.0476,0.302-0.0989,0.3542
	C34.3714,35.167,34.2507,34.9859,34.2041,34.8468z"/>
<path class="st24" d="M34.8461,34.3908c-0.0221-0.0561,0.004-0.0664,0.0351-0.0786c0.085-0.0335,0.1594,0.0171,0.1955,0.1088
	c0.0217,0.0552,0.0373,0.1095-0.0906,0.1599c-0.0253,0.0099-0.0564,0.0222-0.0656-0.0012L34.8461,34.3908L34.8461,34.3908z
	 M34.9132,34.8645c0.0464,0.1178-0.0339,0.1138-0.0221,0.1437c0.0074,0.0187,0.0239,0.0089,0.0332,0.0053
	c0.0421-0.0166,0.0827-0.0369,0.1281-0.0548c0.0353-0.0139,0.0596-0.0191,0.0738-0.0248c0.0194-0.0076,0.0239-0.0159,0.0206-0.0243
	c-0.0133-0.0337-0.0815,0.0375-0.1209-0.0625l-0.0637-0.1618c-0.0129-0.0327-0.0205-0.0373,0.0241-0.0549
	c0.0421-0.0166,0.0605-0.0141,0.0961,0.0194l0.1289,0.1199c0.0475,0.044,0.0976,0.0923,0.1641,0.0661
	c0.0337-0.0133,0.0811-0.0557,0.0697-0.0847c-0.0029-0.0075-0.0102-0.0111-0.0178-0.0081c-0.0084,0.0033-0.0146,0.0122-0.023,0.0155
	c-0.0067,0.0026-0.0227,0.009-0.0362-0.003c-0.107-0.0939-0.2319-0.2013-0.2341-0.207c-0.0037-0.0093,0.0174-0.0274,0.0333-0.0585
	c0.0156-0.0321,0.0263-0.0763,0.0028-0.1361c-0.0169-0.043-0.0857-0.1682-0.27-0.0956c-0.0564,0.0222-0.1121,0.0485-0.1685,0.0707
	c-0.053,0.0209-0.0612,0.0198-0.0999,0.035c-0.0101,0.004-0.0167,0.012-0.013,0.0213c0.0133,0.0337,0.0914-0.0371,0.1326,0.0677
	L34.9132,34.8645L34.9132,34.8645z"/>
<path class="st25" d="M25.3091,24.571h4.4264v4.418h-4.4264L25.3091,24.571z"/>
<path id="mits" class="st26" d="M27.385,28.0495c0,0-0.0026,0.1579-0.0461,0.2848c-0.0503,0.1466-0.0506,0.1466-0.0967,0.2178
	c-0.0621,0.0959-0.1377,0.166-0.2052,0.2094c-0.1055,0.0678-0.2127,0.1017-0.3204,0.0921c-0.2958-0.0262-0.433-0.3469-0.5-0.6072
	c-0.0712-0.2764-0.2733-0.4268-0.402-0.3266c-0.0754,0.0586-0.0796,0.157-0.0167,0.2513c0.067,0.1005,0.2208,0.1508,0.2208,0.1508
	l-0.158,0.201c0,0-0.3394-0.0442-0.4058-0.3982c-0.0251-0.134,0.04-0.3842,0.2634-0.459c0.2853-0.0955,0.4679,0.1079,0.5558,0.2796
	c0.121,0.2361,0.1729,0.6697,0.5079,0.6027c0.1823-0.0365,0.268-0.3015,0.268-0.423l0.1329-0.1424l0.1968,0.0628L27.385,28.0495
	L27.385,28.0495z"/>
<path id="mits_1_" class="st26" d="M27.6608,28.0495c0,0,0.0026,0.1579,0.0461,0.2848c0.0503,0.1466,0.0506,0.1466,0.0967,0.2178
	c0.0621,0.0959,0.1377,0.166,0.2052,0.2094c0.1055,0.0678,0.2127,0.1017,0.3204,0.0921c0.2958-0.0262,0.433-0.3469,0.5-0.6072
	c0.0712-0.2764,0.2733-0.4268,0.402-0.3266c0.0754,0.0586,0.0796,0.157,0.0167,0.2513c-0.067,0.1005-0.2208,0.1508-0.2208,0.1508
	l0.158,0.201c0,0,0.3394-0.0442,0.4058-0.3982c0.0251-0.134-0.04-0.3842-0.2634-0.459c-0.2853-0.0955-0.4679,0.1079-0.5558,0.2796
	c-0.121,0.2361-0.1729,0.6697-0.5079,0.6027c-0.1823-0.0365-0.268-0.3015-0.268-0.423l-0.1329-0.1424l-0.1968,0.0628
	L27.6608,28.0495L27.6608,28.0495z"/>
<path class="st27" d="M27.9193,26.1708l0.5796-0.6271c0,0,0.0875-0.0705,0.0867-0.1832l-0.1195,0.0186l-0.0268-0.0615l-0.006-0.0618
	l0.1606-0.0339c0.0025-0.0261,0.0004-0.0458,0.005-0.0746c0.0043-0.0266,0.0102-0.0409,0.0168-0.067l-0.1759,0.0118
	c0.0089-0.0308,0.0069-0.0472,0.0167-0.0758c0.0083-0.0241,0.0106-0.0333,0.0271-0.0594c0.0327-0.0049,0.0624-0.0123,0.1027-0.0164
	c0.0392-0.0039,0.0616-0.0021,0.1009-0.0046c0.0959-0.1789,0.495-0.3433,0.7785-0.0487c0.2052,0.2132,0.1609,0.6043-0.1051,0.7077
	c-0.1508,0.0586-0.2722,0.024-0.3696-0.0598l0.1062-0.2082c0.1466,0.0875,0.268-0.0213,0.2596-0.1344
	c-0.0106-0.1429-0.1033-0.2314-0.2345-0.2429c-0.1214-0.0106-0.2086,0.0589-0.2638,0.1675
	c-0.0337,0.0663-0.0181,0.1149-0.0293,0.1884c-0.0122,0.0799-0.0053,0.1245-0.0289,0.2052
	c-0.0171,0.0586-0.0622,0.1311-0.1276,0.1935l-0.5941,0.6429l-2.3129,2.5017l-0.1738-0.1607L27.9193,26.1708L27.9193,26.1708z"/>
<path class="st26" d="M26.2167,26.3911c0,0,0.1454,0.7203,0.6396,1.8007c0.2513-0.0921,0.3996-0.1508,0.6659-0.1508
	c0.2662,0,0.4146,0.0503,0.6659,0.1508c0.4942-1.0804,0.6396-1.8007,0.6396-1.8007l-1.3054-1.6793L26.2167,26.3911z"/>
<path class="st27" d="M27.65,25.2799l0.906,1.1654c0,0-0.1208,0.5666-0.489,1.4195c-0.1425-0.0325-0.2648-0.0607-0.4165-0.0711
	L27.65,25.2799L27.65,25.2799z"/>
<path class="st27" d="M27.3947,25.2799l-0.906,1.1654c0,0,0.1208,0.5666,0.489,1.4195c0.1425-0.0325,0.2648-0.0607,0.4165-0.0711
	L27.3947,25.2799L27.3947,25.2799z"/>
<path class="st27" d="M30.2074,24.571h4.4264v4.418h-4.4264L30.2074,24.571z"/>
<path class="st25" d="M30.8274,24.571h0.66v4.418h-0.66V24.571z"/>
<path class="st25" d="M32.0921,24.571h0.66v4.418h-0.66V24.571z"/>
<path class="st25" d="M33.3568,24.571h0.66v4.418h-0.66V24.571z"/>
<path class="st27" d="M25.3258,32.8207c0.0126,0.0796,0.0409,0.2161,0.1165,0.356c0.0796,0.1256,0.0502,0.1222,0.2303,0.3232
	c0.0886,0.0989,0.227,0.1837,0.3354,0.2421c0.1089,0.0586,0.1894,0.0874,0.3685,0.1344c0.3511,0.0921,0.5974,0.0979,0.8927,0.0861
	c0.2304-0.0092,0.4064-0.0376,0.552-0.0572c0.2078-0.028,0.3625-0.0446,0.5988-0.0544c0.1149-0.0048,0.2235-0.0059,0.3308,0
	c0.1296,0.0071,0.2576,0.0272,0.3937,0.0544c0.2931,0.0586,0.5904,0.1717,0.5904,0.1717l0.0007-4.6136l-4.4272-0.0012v3.1533
	C25.3087,32.6154,25.3178,32.7695,25.3258,32.8207L25.3258,32.8207z"/>
<path class="st28" d="M25.8397,33.6297l0.2075,0.1207l0.2843,0.1023l-0.0003-4.3913h-0.4916L25.8397,33.6297z"/>
<path class="st28" d="M28.2991,33.8295l0.0006-4.3682h-0.4925v4.4381c0,0,0.337-0.0432,0.4918-0.0532L28.2991,33.8295z"/>
<path class="st28" d="M29.2815,29.4618h-0.4909v4.3834c0.16,0.0173,0.3244,0.0459,0.4918,0.0906L29.2815,29.4618L29.2815,29.4618z"
	/>
<path class="st28" d="M27.3161,29.4618v4.4885c-0.0049,0.0005-0.3286,0.017-0.4941-0.0002l0.0001-4.4875L27.3161,29.4618z"/>
<path class="st27" d="M34.6177,32.8196c-0.0126,0.0796-0.0409,0.2161-0.1165,0.3559c-0.0796,0.1256-0.0502,0.1222-0.2303,0.3232
	c-0.0886,0.0989-0.227,0.1837-0.3354,0.2421c-0.1089,0.0586-0.1894,0.0874-0.3685,0.1344
	c-0.3511,0.0921-0.5974,0.0979-0.8927,0.0861c-0.2304-0.0092-0.4063-0.0376-0.552-0.0572c-0.2078-0.028-0.3625-0.0446-0.5988-0.0544
	c-0.1149-0.0048-0.2235-0.0059-0.3308,0c-0.1296,0.0071-0.2575,0.0272-0.3936,0.0544c-0.2931,0.0586-0.5943,0.1717-0.5943,0.1717
	l0.003-4.6136l4.4272-0.0012v3.1533C34.6349,32.6143,34.6258,32.7684,34.6177,32.8196L34.6177,32.8196z"/>
<path class="st25" d="M31.3396,29.8313c0,0-0.0197,0.0094-0.032,0.0152c-0.0161,0.0176-0.0241,0.028-0.0421,0.0438
	c-0.0239,0.021-0.0414,0.0271-0.0673,0.0454c-0.0124,0.0088-0.0226,0.0116-0.032,0.0236c-0.0136,0.0173-0.0043,0.0339-0.0135,0.0539
	c-0.01,0.0218-0.0199,0.0321-0.0353,0.0505c-0.0197,0.0234-0.035,0.0328-0.0572,0.0539c-0.0225,0.0213-0.0316,0.0391-0.0589,0.0539
	c-0.0072,0.0039-0.0107,0.0077-0.0185,0.0101c-0.0116,0.0036-0.0188-0.0006-0.0303,0.0033
	c-0.0209,0.0072-0.0275,0.0303-0.0421,0.0387c0.006,0.0117,0.0058,0.0201,0.0118,0.032c0.0085,0.0174,0.038,0.0655,0.0438,0.0774
	c0.0113,0.0164,0.0145,0.0377,0.0286,0.0421c0.029,0.0091,0.0462,0.0083,0.0707,0.0067c0.0427,0.0098,0.069,0.0085,0.1094,0.0252
	c0.033,0.0137,0.0465,0.031,0.0791,0.0455c0.0255,0.0113,0.0416,0.0183,0.069,0.0236c0.0208,0.004,0.0328,0.0071,0.0539,0.0051
	c0.0134-0.0013,0.0203-0.0064,0.0337-0.0084c0.0026-0.0005,0.0044,0,0.0067,0l-0.0017,0.0202c-0.0003,0,0.0003,0.0015,0,0.0017
	v0.0033h0.0034l0.1111,0.0488c-0.004,0.0063-0.0082,0.0138-0.0101,0.0202c-0.0053,0.0173-0.0061,0.0371-0.0034,0.0454
	c0.0339,0.1017,0.0624,0.1653,0.0791,0.1717c0.0331,0.0127,0.0434,0.0466,0.0623,0.0808c-0.0067,0.0071-0.0122,0.0108-0.0185,0.0168
	c-0.0331,0.0318-0.062,0.0544-0.0892,0.0976c-0.0402,0.064-0.0673,0.0648-0.0168,0.1498c0.0296,0.0498,0.0439,0.0592,0.0825,0.1296
	c0.0195,0.0355,0.0303,0.0632,0.0421,0.106c0.0112,0.0405,0.015,0.0641,0.0168,0.106l0.0522,0.0202l0.0353-0.0353l0.0337-0.064
	l0.0017-0.0488c-0.0129-0.0109-0.0166-0.0255-0.0135-0.0421c0.0037-0.0199,0.0277-0.0157,0.0387-0.0337
	c0.0152-0.0249-0.0179-0.0396-0.0353-0.0589c-0.0326-0.0361-0.0771-0.0449-0.0875-0.0993c-0.0028-0.0147,0.0042-0.023,0.0202-0.0387
	c0.0461-0.0452,0.0609-0.0524,0.106-0.0976c0.013,0.0076,0.0329,0.0104,0.0522,0.0067c0.015-0.0029,0.0285,0.0067,0.0757,0.0202
	c0.0328,0.0094,0.047,0.0046,0.0656,0.0017l0.0202-0.0051c0.0027,0.0114,0.006,0.0224,0.0067,0.037
	c0.0029,0.0571-0.0083,0.1613,0.0084,0.1885c0.0071,0.0115,0.01,0.0179,0.0151,0.0303c0.0053,0.013,0.0115,0.0213,0.0118,0.0354
	c0.0006,0.0375,0.0025,0.0614,0,0.101c-0.0024,0.0372-0.0056,0.0561-0.0118,0.0943c-0.004,0.0243-0.0089,0.0384-0.0236,0.0572
	c-0.0153,0.0196-0.0321,0.0225-0.0522,0.037l-0.005,0.0539l0.0606,0.0252l0.069,0.0168l0.037-0.0151
	c0-0.0137,0.0022-0.0215,0.0084-0.0337c0.0069-0.0133,0.0125-0.0236,0.0252-0.0286c0.0195-0.0077,0.0409,0.007,0.0488-0.0051
	c0.0086-0.013,0.0032-0.0182,0.0017-0.0404c-0.0024-0.0357-0.0099-0.0533-0.0151-0.0892c-0.0088-0.0598-0.0113-0.0908-0.0084-0.1481
	c0.0017-0.0332,0.0021-0.0515,0.0084-0.0842c0.0093-0.0475,0.0262-0.0706,0.037-0.1178c0.0121-0.0527,0.0143-0.0865,0.0202-0.133
	c0.1707,0.0244,0.3128,0.0214,0.5033-0.0202c0.0091-0.002,0.0404-0.0135,0.0404-0.0135c0.0431,0.0371,0.0919,0.0681,0.1464,0.0875
	c-0.0003,0.0055-0.0009,0.0455,0,0.0522c0.002,0.0155-0.0022,0.0259,0.0067,0.0387c0.0057,0.0081,0.0106,0.0129,0.0202,0.0151
	c0.0141,0.0033,0.0245,0.0012,0.0353-0.0084c0.0122-0.0109,0.0099-0.0245,0.0135-0.0404c0.0017-0.0076,0.0004-0.0304,0-0.037
	c0.0198,0.003,0.0265,0.0033,0.0471,0.0033c0.0193,0,0.0285,0.0008,0.0471-0.0017c0.0003,0.0044,0.0011,0.0199,0.0017,0.0253
	c0.0014,0.0132-0.0041,0.0234,0.0017,0.0353c0.006,0.0124,0.0134,0.0193,0.0269,0.0219c0.0111,0.0021,0.0191,0.001,0.0286-0.0051
	c0.0159-0.01,0.0142-0.0268,0.0168-0.0454c0.0008-0.0059,0.0006-0.0373,0-0.0421c0.0114-0.0036,0.0446-0.0157,0.0555-0.0202
	c-0.0003,0.0131-0.0021,0.0278-0.005,0.0438c-0.0038,0.0203-0.0064,0.0312-0.0135,0.0505
	c-0.0111,0.0306-0.0238,0.0461-0.0404,0.0741c-0.0203,0.0341-0.0309,0.0531-0.0555,0.0842
	c-0.0114,0.0143-0.0193,0.0208-0.0303,0.0354c-0.0137,0.0182-0.0184,0.0305-0.032,0.0488c-0.0175,0.0236-0.0275,0.039-0.0505,0.0572
	c-0.0374,0.0296-0.0619,0.0059-0.1128,0.0455l-0.0118,0.0555l0.0774,0.0286l0.069,0.0135l0.0236-0.0135
	c-0.0006-0.0162,0.0017-0.0277,0.0118-0.0404c0.0115-0.0145,0.0238-0.0189,0.0421-0.0219c0.0195-0.0032,0.0402,0.0018,0.0555-0.0118
	c0.0189-0.0167,0.0188-0.0492,0.0337-0.0791c0.0462-0.0928,0.0873-0.138,0.1616-0.2104c0.033-0.0321,0.0613-0.0408,0.0892-0.0774
	c0.0133-0.0174,0.028-0.0253,0.0286-0.0471c0.0004-0.0152-0.0078-0.0224-0.0118-0.037c-0.0056-0.0203-0.0101-0.0539-0.0101-0.0539
	c0.082,0.0401,0.0523,0.0348,0.0673,0.0757c0.0121,0.0331-0.0017,0.056,0.0034,0.0909c0.006,0.0407,0.0251,0.06,0.0286,0.101
	c0.0042,0.0487-0.0077,0.0765-0.0168,0.1246c-0.008,0.0423-0.007,0.0688-0.0252,0.1077c-0.0174,0.0371-0.0308,0.058-0.0623,0.0842
	c-0.0114,0.0094-0.0198,0.0135-0.032,0.0219l-0.0067,0.0555l0.0606,0.0202l0.0875,0.0236l0.0202-0.0185
	c0.0088-0.0353-0.0029-0.0871,0.0219-0.0909c0.0219-0.0033,0.0373,0,0.0421-0.0168c0.002-0.0071,0.0032-0.0176,0.005-0.0337
	c0.0119-0.1016,0.0227-0.1964,0.0337-0.2424c0.0124-0.0521,0.0116-0.0635,0.0219-0.1027c0.0094-0.0358-0.0046-0.0152,0.0219-0.0909
	c0.0395-0.113-0.0112-0.1279-0.0572-0.1969c-0.0249-0.0373-0.0335-0.0509-0.037-0.0808c-0.0052-0.044,0.0089-0.0805,0.0067-0.1481
	c-0.0022-0.0711-0.0012-0.1163,0-0.1549c0.0062-0.0029,0.0119-0.0065,0.0185-0.0101c0.063-0.0346,0.0881-0.045,0.1279-0.133
	c0.0121-0.0267,0.0172-0.0535,0.0168-0.0791c-0.0003-0.0179-0.0035-0.0351-0.005-0.0555c-0.0016-0.0215-0.0103-0.0343-0.0168-0.0505
	c-0.007-0.0171-0.0175-0.0301-0.0303-0.0454c-0.0416-0.0498-0.0958-0.061-0.1464-0.0791c-0.0799-0.0286-0.1349-0.0234-0.2222-0.0303
	c-0.0901-0.0071-0.1404-0.0085-0.2306-0.0033c-0.1081,0.0062-0.1685,0.028-0.276,0.0404c-0.1032,0.0119-0.1604,0.0199-0.2643,0.0219
	c-0.1217,0.0023-0.2381-0.0248-0.3114-0.0185c-0.132,0.0113-0.1343,0.041-0.3333,0.0572c-0.1038,0.0085-0.207,0.0101-0.207,0.0101
	l-0.1161-0.037c0.0461-0.0165,0.0574-0.0263,0.0791-0.0555c0.0146-0.0197,0.0126-0.0365,0.0303-0.0572
	c0.0144-0.0168,0.0239-0.0335,0.0421-0.0522c-0.0167-0.0134-0.0346-0.0203-0.0505-0.0236c-0.0196-0.0041-0.0309-0.0023-0.0505,0
	c-0.0266,0.003-0.0416,0.0067-0.0656,0.0185c-0.0194,0.0095-0.0336,0.0192-0.0454,0.032c0,0-0.0692-0.0446-0.1178-0.0656
	C31.441,29.8539,31.415,29.8417,31.3396,29.8313L31.3396,29.8313z M31.4457,30.4726h0.0034
	c-0.0007,0.0005-0.001,0.0012-0.0017,0.0017L31.4457,30.4726L31.4457,30.4726z"/>
<path class="st29" d="M33.7177,30.5105l-0.0411,0.0131c-0.0467,0.0217-0.085,0.0225-0.14,0.0267
	c-0.1424,0.0109-0.2301-0.0569-0.3769-0.0457c-0.0756,0.0058-0.1091,0.0641-0.1864,0.0834
	c-0.0352,0.0088-0.0555,0.0121-0.0917,0.0152l0.0276-0.0557c0,0-0.0692,0.0141-0.1139,0.0142
	c-0.0321,0.0001-0.0504-0.0015-0.0821-0.007l0.0548-0.0512c0,0-0.0438-0.0071-0.0697-0.0181
	c-0.0238-0.0101-0.0368-0.0178-0.0571-0.0339c0.0357-0.0061,0.0558-0.0103,0.091-0.019c0.0838-0.0207,0.1099-0.0618,0.2096-0.0714
	c0.0619-0.006,0.1633-0.0025,0.4117,0.0386c0.1635,0.027,0.236,0.0144,0.2982-0.0139c0.041-0.0186,0.0544-0.0544,0.0594-0.0963
	c0.005-0.0418-0.0218-0.0757-0.0471-0.0975c-0.0066-0.0057-0.0239-0.0181-0.0599-0.0196"/>
<path class="st30" d="M31.3493,30.0306c-0.0286-0.0036-0.0476,0.0006-0.0722,0.0157c-0.0259,0.0159-0.0292,0.0375-0.0478,0.0615
	c0.024,0.0053,0.0376,0.0194,0.0615,0.0137c0.0187-0.0045,0.0284-0.0129,0.041-0.0273c0.017-0.0195,0.0232-0.0364,0.023-0.0623
	L31.3493,30.0306L31.3493,30.0306z"/>
<path class="st29" d="M31.9548,30.7405c0,0,0.0142,0.0259,0.0219,0.043c0.0134,0.0299,0.0203,0.0473,0.0282,0.0791
	c0.0108,0.043,0.0061,0.0692,0.013,0.113c0.0012,0.0077,0.0027,0.0142,0.0041,0.0203l-0.0028,0.0608"/>
<path class="st29" d="M32.3857,30.6823c0,0-0.0118,0.0437-0.0191,0.0718c-0.019,0.0729-0.0364,0.1124-0.0508,0.1864
	c-0.0024,0.0124-0.0042,0.0239-0.0056,0.0347"/>
<path class="st29" d="M31.7253,30.761c0.0426,0.0095,0.0293,0.181,0.0963,0.2203"/>
<path class="st31" d="M33.2518,31.0631l0.0207-0.0134c0.0546-0.0223,0.1037-0.0553,0.1447-0.0964"/>
<path class="st29" d="M32.8349,30.9683c0.0001,0,0.0003,0,0.0004,0c0.1903-0.0476,0.317-0.1426,0.4082-0.1545"/>
<path class="st29" d="M33.0282,30.7308c0.0161-0.0006,0.0315-0.0018,0.0447-0.0037c0.0791-0.0113,0.0918,0.037,0.1468,0.0678
	c0.1,0.0559,0.113,0.1243,0.2316,0.1807c0.0063,0.003,0.012,0.0058,0.0173,0.0084l0.0456,0.0231"/>
<path class="st30" d="M30.9669,30.2417c0.0144,0.0036,0.0233,0.0043,0.0381,0.0029c0.0179-0.0017,0.0261-0.0128,0.044-0.0134
	c0.0146-0.0005,0.0249-0.0017,0.0368,0.0067c0.0076,0.0053,0.0108,0.0102,0.0151,0.0184c0.0047,0.009,0.0088,0.0152,0.0067,0.0251
	c-0.0032,0.0153-0.0175,0.0225-0.0331,0.0226c-0.0128,0-0.0234-0.0033-0.0293-0.0147c-0.0038-0.0073-0.0044-0.0131-0.0021-0.0209
	c-0.0153,0.0057-0.0264,0.006-0.0419,0.0009C30.9849,30.264,30.9757,30.2565,30.9669,30.2417L30.9669,30.2417z"/>
<path class="st32" d="M31.3671,30.761c-0.0429-0.0128-0.1059-0.0445-0.1059-0.0445c0.0174-0.0135,0.0316-0.0143,0.0465-0.0299
	c0.021-0.022,0.0201-0.0425,0.0319-0.0711c0.0116-0.028,0.0099-0.0514,0.0362-0.0723c0.0156-0.0124,0.0411-0.0145,0.0602-0.0089
	c0.019,0.0061,0.0409,0.0216,0.0457,0.0413c0.0074,0.0302-0.0086,0.0477-0.0133,0.0783c-0.0046,0.0306-0.0158,0.0482-0.0105,0.0786
	c0.0035,0.0202,0.0122,0.0279,0.019,0.0489C31.477,30.7814,31.4089,30.7734,31.3671,30.761L31.3671,30.761z"/>
<path class="st32" d="M31.3138,30.8121c-0.0004-0.0187,0.0146-0.0341,0.0333-0.0345c0.0187-0.0005,0.0341,0.0146,0.0345,0.0333
	c0.0004,0.0187-0.0146,0.0341-0.0333,0.0345C31.3296,30.846,31.3141,30.8308,31.3138,30.8121z"/>
<path class="st32" d="M31.219,29.9229c0,0-0.0048-0.0032-0.0077-0.0056c-0.0206-0.0167-0.0226-0.0352-0.0324-0.0598
	c-0.0093-0.0233-0.0138-0.0372-0.0169-0.0621c-0.0027-0.0219,0-0.0345,0-0.0565c0-0.0198,0.0021-0.0311,0-0.0508
	c-0.0022-0.0202-0.0016-0.033-0.0113-0.0508c-0.0052-0.0097-0.0213-0.0182-0.0169-0.0226c0.0051-0.0052,0.0138-0.0011,0.0226,0
	c0.0215,0.0026,0.034,0.0089,0.0508,0.0226c0.0203,0.0165,0.0284,0.0308,0.0362,0.0565c0.009,0.0295,0.0134,0.0484,0.022,0.0791
	c0.0044,0.0159,0.0069,0.0253,0.0153,0.0395c0.0087,0.0149,0.0172,0.0207,0.0282,0.0339l-0.0006,0.0012
	c-0.0161,0.0176-0.0239,0.0291-0.0418,0.0449c-0.0164,0.0145-0.0302,0.0217-0.0456,0.0309l-0.0017-0.0005L31.219,29.9229z"/>
<path class="st32" d="M31.4129,30.496l0.1202,0.0555c0.0618-0.0342,0.1332-0.1036,0.1883-0.2111
	c0.0474-0.0925,0.055-0.1428,0.0735-0.2323l-0.0964-0.0313l-0.0192,0.0039c-0.0298,0.0928-0.0373,0.1456-0.0871,0.2258
	c-0.0432,0.0695-0.0926,0.1241-0.1427,0.1634L31.4129,30.496L31.4129,30.496z"/>
<path class="st32" d="M31.679,31.472c0.0194-0.0265,0.0276-0.0437,0.0497-0.0681c0.0246-0.0272,0.0431-0.0378,0.0706-0.062
	c0.0084,0.0009,0.0181-0.0006,0.0259,0.0039c-0.0015,0.0293-0.003,0.0511-0.0097,0.083c-0.0054,0.0259-0.01,0.0402-0.0187,0.0652
	c-0.0073,0.0209-0.0085,0.0344-0.021,0.0527c-0.0083,0.0122-0.0156,0.017-0.0256,0.0279
	C31.7227,31.5346,31.6785,31.5047,31.679,31.472L31.679,31.472z"/>
<path class="st32" d="M33.457,31.5716c0.0308,0.0113,0.0496,0.0146,0.0791,0.029c0.0329,0.0161,0.0482,0.031,0.0791,0.0508
	c0.0014,0.0083,0.0056,0.0172,0.0034,0.026c-0.0286,0.0066-0.05,0.0112-0.0825,0.0136c-0.0264,0.0019-0.0414,0.0015-0.0678,0
	c-0.0221-0.0012-0.0354,0.0013-0.0565-0.0056c-0.014-0.0046-0.0207-0.0103-0.0339-0.0169
	C33.4088,31.6309,33.4254,31.5802,33.457,31.5716L33.457,31.5716z"/>
<path class="st32" d="M32.9313,31.4617c0.0308,0.0113,0.0496,0.0145,0.0791,0.029c0.0329,0.0161,0.0482,0.031,0.0791,0.0508
	c0.0014,0.0083,0.0056,0.0172,0.0034,0.026c-0.0286,0.0066-0.05,0.0112-0.0825,0.0135c-0.0264,0.0019-0.0414,0.0015-0.0678,0
	c-0.0221-0.0012-0.0355,0.0013-0.0565-0.0056c-0.014-0.0046-0.0207-0.0103-0.0339-0.0169
	C32.8831,31.521,32.8996,31.4703,32.9313,31.4617L32.9313,31.4617z"/>
<path class="st32" d="M31.9973,31.5764c0.0309,0.0113,0.0496,0.0145,0.0791,0.029c0.0329,0.0161,0.0482,0.031,0.0791,0.0508
	c0.0014,0.0083,0.0056,0.0172,0.0034,0.026c-0.0286,0.0066-0.05,0.0112-0.0825,0.0135c-0.0264,0.0019-0.0414,0.0015-0.0678,0
	c-0.0221-0.0012-0.0355,0.0013-0.0565-0.0056c-0.014-0.0046-0.0207-0.0103-0.0339-0.0169
	C31.9491,31.6358,31.9657,31.5851,31.9973,31.5764L31.9973,31.5764z"/>
<path class="st32" d="M31.5136,29.9713c-0.033-0.015-0.0565-0.0563-0.0356-0.0859c0.0084-0.0118,0.0222-0.0094,0.0305-0.0213
	c0.0102-0.0147,0.0076-0.0273,0.0073-0.0452c-0.0004-0.0203-0.0077-0.0308-0.0113-0.0508
	c-0.0039-0.0219-0.0075-0.0343-0.0073-0.0565c0.0003-0.0338-0.002-0.0579,0.0186-0.0847c0.0132-0.0171,0.0356-0.0319,0.0444-0.033
	c0.0079,0.0073-0.003,0.027-0.0017,0.0443c0.0019,0.0249,0.007,0.0386,0.0155,0.0621c0.0109,0.0303,0.0258,0.0435,0.0378,0.0734
	c0.0112,0.0278,0.0215,0.0435,0.0226,0.0734c0.0009,0.0246-0.0013,0.0396-0.0113,0.0621c-0.0089,0.0199-0.0161,0.0312-0.0328,0.0452
	c-0.0145,0.0121-0.0247,0.0175-0.0429,0.0226C31.5341,29.9782,31.5258,29.9766,31.5136,29.9713L31.5136,29.9713z"/>
<path class="st25" d="M31.3396,31.8022c0,0-0.0197,0.0094-0.032,0.0152c-0.0161,0.0176-0.0241,0.028-0.0421,0.0438
	c-0.0239,0.021-0.0414,0.0271-0.0673,0.0454c-0.0124,0.0088-0.0226,0.0116-0.032,0.0236c-0.0136,0.0173-0.0043,0.0339-0.0135,0.0539
	c-0.01,0.0218-0.0199,0.0321-0.0353,0.0505c-0.0197,0.0234-0.035,0.0328-0.0572,0.0539c-0.0225,0.0213-0.0316,0.0391-0.0589,0.0539
	c-0.0072,0.0039-0.0107,0.0077-0.0185,0.0101c-0.0116,0.0036-0.0188-0.0006-0.0303,0.0033
	c-0.0209,0.0072-0.0275,0.0303-0.0421,0.0387c0.006,0.0117,0.0058,0.0201,0.0118,0.032c0.0085,0.0174,0.038,0.0655,0.0438,0.0774
	c0.0113,0.0164,0.0145,0.0377,0.0286,0.0421c0.029,0.0091,0.0462,0.0083,0.0707,0.0067c0.0427,0.0098,0.069,0.0085,0.1094,0.0252
	c0.033,0.0137,0.0465,0.031,0.0791,0.0454c0.0255,0.0113,0.0416,0.0183,0.069,0.0236c0.0208,0.004,0.0328,0.0071,0.0539,0.0051
	c0.0134-0.0013,0.0203-0.0064,0.0337-0.0084c0.0026-0.0005,0.0044,0,0.0067,0l-0.0017,0.0202c-0.0003,0,0.0003,0.0015,0,0.0017
	v0.0033h0.0034l0.1111,0.0488c-0.004,0.0063-0.0082,0.0138-0.0101,0.0202c-0.0053,0.0173-0.0061,0.0371-0.0034,0.0454
	c0.0339,0.1017,0.0624,0.1653,0.0791,0.1717c0.0331,0.0127,0.0434,0.0466,0.0623,0.0808c-0.0067,0.0071-0.0122,0.0108-0.0185,0.0168
	c-0.0331,0.0318-0.062,0.0544-0.0892,0.0976c-0.0402,0.064-0.0673,0.0648-0.0168,0.1498c0.0296,0.0498,0.0439,0.0592,0.0825,0.1296
	c0.0195,0.0355,0.0303,0.0632,0.0421,0.106c0.0112,0.0405,0.015,0.0641,0.0168,0.106l0.0522,0.0202l0.0353-0.0353l0.0337-0.064
	l0.0017-0.0488c-0.0129-0.0109-0.0166-0.0255-0.0135-0.0421c0.0037-0.0199,0.0277-0.0157,0.0387-0.0337
	c0.0152-0.0249-0.0179-0.0396-0.0353-0.0589c-0.0326-0.0361-0.0771-0.0449-0.0875-0.0993c-0.0028-0.0147,0.0042-0.023,0.0202-0.0387
	c0.0461-0.0452,0.0609-0.0524,0.106-0.0976c0.013,0.0076,0.0329,0.0104,0.0522,0.0067c0.015-0.0029,0.0285,0.0067,0.0757,0.0202
	c0.0328,0.0094,0.047,0.0046,0.0656,0.0017l0.0202-0.0051c0.0027,0.0114,0.006,0.0224,0.0067,0.037
	c0.0029,0.0571-0.0083,0.1613,0.0084,0.1885c0.0071,0.0115,0.01,0.0179,0.0151,0.0303c0.0053,0.013,0.0115,0.0213,0.0118,0.0354
	c0.0006,0.0375,0.0025,0.0614,0,0.101c-0.0024,0.0372-0.0056,0.0561-0.0118,0.0943c-0.004,0.0243-0.0089,0.0384-0.0236,0.0572
	c-0.0153,0.0196-0.0321,0.0225-0.0522,0.037l-0.005,0.0539l0.0606,0.0252l0.069,0.0168l0.037-0.0151
	c0-0.0137,0.0022-0.0215,0.0084-0.0337c0.0069-0.0133,0.0125-0.0236,0.0252-0.0286c0.0195-0.0077,0.0409,0.007,0.0488-0.0051
	c0.0086-0.013,0.0032-0.0182,0.0017-0.0404c-0.0024-0.0357-0.0099-0.0533-0.0151-0.0892c-0.0088-0.0598-0.0113-0.0908-0.0084-0.1481
	c0.0017-0.0332,0.0021-0.0515,0.0084-0.0842c0.0093-0.0475,0.0262-0.0706,0.037-0.1178c0.0121-0.0527,0.0143-0.0865,0.0202-0.133
	c0.1707,0.0244,0.3128,0.0214,0.5033-0.0202c0.0091-0.002,0.0404-0.0135,0.0404-0.0135c0.0431,0.0371,0.0919,0.0681,0.1464,0.0875
	c-0.0003,0.0055-0.0009,0.0455,0,0.0522c0.002,0.0155-0.0022,0.0259,0.0067,0.0387c0.0057,0.0081,0.0106,0.0129,0.0202,0.0151
	c0.0141,0.0033,0.0245,0.0012,0.0353-0.0084c0.0122-0.0109,0.0099-0.0245,0.0135-0.0404c0.0017-0.0076,0.0004-0.0304,0-0.037
	c0.0198,0.003,0.0265,0.0033,0.0471,0.0033c0.0193,0,0.0285,0.0008,0.0471-0.0017c0.0003,0.0044,0.0011,0.0199,0.0017,0.0253
	c0.0014,0.0132-0.0041,0.0234,0.0017,0.0353c0.006,0.0124,0.0134,0.0193,0.0269,0.0219c0.0111,0.0021,0.0191,0.001,0.0286-0.0051
	c0.0159-0.01,0.0142-0.0268,0.0168-0.0454c0.0008-0.0059,0.0006-0.0373,0-0.0421c0.0114-0.0036,0.0446-0.0157,0.0555-0.0202
	c-0.0003,0.0131-0.0021,0.0278-0.005,0.0438c-0.0038,0.0203-0.0064,0.0312-0.0135,0.0505
	c-0.0111,0.0306-0.0238,0.0461-0.0404,0.0741c-0.0203,0.0341-0.0309,0.0531-0.0555,0.0842
	c-0.0114,0.0143-0.0193,0.0208-0.0303,0.0354c-0.0137,0.0182-0.0184,0.0305-0.032,0.0488c-0.0175,0.0236-0.0275,0.039-0.0505,0.0572
	c-0.0374,0.0296-0.0619,0.0059-0.1128,0.0454l-0.0118,0.0555l0.0774,0.0286l0.069,0.0135l0.0236-0.0135
	c-0.0006-0.0162,0.0017-0.0277,0.0118-0.0404c0.0115-0.0145,0.0238-0.0189,0.0421-0.0219c0.0195-0.0032,0.0402,0.0018,0.0555-0.0118
	c0.0189-0.0167,0.0188-0.0492,0.0337-0.0791c0.0462-0.0928,0.0873-0.138,0.1616-0.2104c0.033-0.0321,0.0613-0.0408,0.0892-0.0774
	c0.0133-0.0174,0.028-0.0253,0.0286-0.0471c0.0004-0.0152-0.0078-0.0224-0.0118-0.037c-0.0056-0.0203-0.0101-0.0539-0.0101-0.0539
	c0.082,0.0401,0.0523,0.0348,0.0673,0.0757c0.0121,0.0331-0.0017,0.056,0.0034,0.0909c0.006,0.0407,0.0251,0.06,0.0286,0.101
	c0.0042,0.0487-0.0077,0.0765-0.0168,0.1246c-0.008,0.0423-0.007,0.0688-0.0252,0.1077c-0.0174,0.0371-0.0308,0.058-0.0623,0.0842
	c-0.0114,0.0094-0.0198,0.0135-0.032,0.0219l-0.0067,0.0555l0.0606,0.0202l0.0875,0.0236l0.0202-0.0185
	c0.0088-0.0353-0.0029-0.0871,0.0219-0.0909c0.0219-0.0033,0.0373,0,0.0421-0.0168c0.002-0.0071,0.0032-0.0176,0.005-0.0337
	c0.0119-0.1016,0.0227-0.1964,0.0337-0.2424c0.0124-0.0521,0.0116-0.0634,0.0219-0.1027c0.0094-0.0358-0.0046-0.0152,0.0219-0.0909
	c0.0395-0.113-0.0112-0.1279-0.0572-0.1969c-0.0249-0.0373-0.0335-0.0509-0.037-0.0808c-0.0052-0.044,0.0089-0.0805,0.0067-0.1481
	c-0.0022-0.0711-0.0012-0.1163,0-0.1549c0.0062-0.0029,0.0119-0.0065,0.0185-0.0101c0.063-0.0346,0.0881-0.045,0.1279-0.133
	c0.0121-0.0267,0.0172-0.0535,0.0168-0.0791c-0.0003-0.0179-0.0035-0.0351-0.005-0.0555c-0.0016-0.0215-0.0103-0.0343-0.0168-0.0505
	c-0.007-0.0171-0.0175-0.0301-0.0303-0.0454c-0.0416-0.0498-0.0958-0.061-0.1464-0.0791c-0.0799-0.0286-0.1349-0.0234-0.2222-0.0303
	c-0.0901-0.0071-0.1404-0.0085-0.2306-0.0033c-0.1081,0.0062-0.1685,0.028-0.276,0.0404c-0.1032,0.0119-0.1604,0.0199-0.2643,0.0219
	c-0.1217,0.0023-0.2381-0.0248-0.3114-0.0185c-0.132,0.0113-0.1343,0.041-0.3333,0.0572c-0.1038,0.0085-0.207,0.0101-0.207,0.0101
	l-0.1161-0.037c0.0461-0.0165,0.0574-0.0263,0.0791-0.0555c0.0146-0.0197,0.0126-0.0365,0.0303-0.0572
	c0.0144-0.0168,0.0239-0.0335,0.0421-0.0522c-0.0167-0.0134-0.0346-0.0203-0.0505-0.0236c-0.0196-0.0041-0.0309-0.0023-0.0505,0
	c-0.0266,0.003-0.0416,0.0067-0.0656,0.0185c-0.0194,0.0095-0.0336,0.0193-0.0454,0.032c0,0-0.0692-0.0446-0.1178-0.0656
	C31.441,31.8248,31.415,31.8126,31.3396,31.8022L31.3396,31.8022z M31.4457,32.4435h0.0034
	c-0.0007,0.0005-0.001,0.0012-0.0017,0.0017L31.4457,32.4435L31.4457,32.4435z"/>
<path class="st29" d="M33.7177,32.4814l-0.0411,0.0131c-0.0467,0.0217-0.085,0.0225-0.14,0.0267
	c-0.1424,0.0109-0.2301-0.0569-0.3769-0.0457c-0.0756,0.0058-0.1091,0.0641-0.1864,0.0834
	c-0.0352,0.0088-0.0555,0.0121-0.0917,0.0152l0.0276-0.0557c0,0-0.0692,0.0141-0.1139,0.0142
	c-0.0321,0.0001-0.0504-0.0015-0.0821-0.007l0.0548-0.0512c0,0-0.0438-0.0071-0.0697-0.0181
	c-0.0238-0.0101-0.0368-0.0178-0.0571-0.0339c0.0357-0.0061,0.0558-0.0103,0.091-0.019c0.0838-0.0207,0.1099-0.0618,0.2096-0.0714
	c0.0619-0.006,0.1633-0.0025,0.4117,0.0386c0.1635,0.027,0.236,0.0144,0.2982-0.0139c0.041-0.0186,0.0544-0.0544,0.0594-0.0963
	c0.005-0.0418-0.0218-0.0756-0.0471-0.0975c-0.0066-0.0057-0.0239-0.0181-0.0599-0.0196"/>
<path class="st30" d="M31.3493,32.0015c-0.0286-0.0036-0.0476,0.0006-0.0722,0.0157c-0.0259,0.0159-0.0292,0.0375-0.0478,0.0615
	c0.024,0.0053,0.0376,0.0194,0.0615,0.0137c0.0187-0.0045,0.0284-0.0129,0.041-0.0273c0.017-0.0195,0.0232-0.0364,0.023-0.0623
	L31.3493,32.0015L31.3493,32.0015z"/>
<path class="st29" d="M31.9548,32.7114c0,0,0.0142,0.0259,0.0219,0.043c0.0134,0.0299,0.0203,0.0473,0.0282,0.0791
	c0.0108,0.043,0.0061,0.0692,0.013,0.113c0.0012,0.0077,0.0027,0.0142,0.0041,0.0203l-0.0028,0.0608"/>
<path class="st29" d="M32.3857,32.6532c0,0-0.0118,0.0437-0.0191,0.0718c-0.019,0.0729-0.0364,0.1124-0.0508,0.1864
	c-0.0024,0.0124-0.0042,0.0239-0.0056,0.0347"/>
<path class="st29" d="M31.7253,32.7318c0.0426,0.0095,0.0293,0.181,0.0963,0.2203"/>
<path class="st31" d="M33.2518,33.034l0.0207-0.0134c0.0546-0.0223,0.1037-0.0553,0.1447-0.0964"/>
<path class="st29" d="M32.8349,32.9392c0.0001,0,0.0003,0,0.0004,0c0.1903-0.0476,0.317-0.1426,0.4082-0.1545"/>
<path class="st29" d="M33.0282,32.7017c0.0161-0.0006,0.0315-0.0018,0.0447-0.0037c0.0791-0.0113,0.0918,0.037,0.1468,0.0678
	c0.1,0.0559,0.113,0.1243,0.2316,0.1807c0.0063,0.003,0.012,0.0058,0.0173,0.0084l0.0456,0.0231"/>
<path class="st30" d="M30.9669,32.2126c0.0144,0.0036,0.0233,0.0043,0.0381,0.0029c0.0179-0.0017,0.0261-0.0128,0.044-0.0134
	c0.0146-0.0005,0.0249-0.0017,0.0368,0.0067c0.0076,0.0053,0.0108,0.0102,0.0151,0.0184c0.0047,0.009,0.0088,0.0152,0.0067,0.0251
	c-0.0032,0.0153-0.0175,0.0225-0.0331,0.0226c-0.0128,0-0.0234-0.0033-0.0293-0.0147c-0.0038-0.0073-0.0044-0.0131-0.0021-0.0209
	c-0.0153,0.0057-0.0264,0.006-0.0419,0.0009C30.9849,32.2349,30.9757,32.2274,30.9669,32.2126L30.9669,32.2126z"/>
<path class="st32" d="M31.3671,32.7318c-0.0429-0.0128-0.1059-0.0445-0.1059-0.0445c0.0174-0.0135,0.0316-0.0143,0.0465-0.0299
	c0.021-0.022,0.0201-0.0425,0.0319-0.0711c0.0116-0.028,0.0099-0.0514,0.0362-0.0723c0.0156-0.0124,0.0411-0.0145,0.0602-0.0089
	c0.019,0.0061,0.0409,0.0216,0.0457,0.0413c0.0074,0.0302-0.0086,0.0477-0.0133,0.0783c-0.0046,0.0306-0.0158,0.0482-0.0105,0.0786
	c0.0035,0.0202,0.0122,0.0279,0.019,0.0489C31.477,32.7523,31.4089,32.7443,31.3671,32.7318L31.3671,32.7318z"/>
<path class="st32" d="M31.3138,32.783c-0.0004-0.0187,0.0146-0.0341,0.0333-0.0345c0.0187-0.0005,0.0341,0.0146,0.0345,0.0333
	c0.0004,0.0187-0.0146,0.0341-0.0333,0.0345C31.3296,32.8168,31.3141,32.8017,31.3138,32.783z"/>
<path class="st32" d="M31.219,31.8937c0,0-0.0048-0.0032-0.0077-0.0056c-0.0206-0.0167-0.0226-0.0352-0.0324-0.0598
	c-0.0093-0.0233-0.0138-0.0372-0.0169-0.0621c-0.0027-0.0219,0-0.0345,0-0.0565c0-0.0198,0.0021-0.0311,0-0.0508
	c-0.0022-0.0202-0.0016-0.033-0.0113-0.0508c-0.0052-0.0097-0.0213-0.0182-0.0169-0.0226c0.0051-0.0052,0.0138-0.0011,0.0226,0
	c0.0215,0.0026,0.034,0.0089,0.0508,0.0226c0.0203,0.0165,0.0284,0.0308,0.0362,0.0565c0.009,0.0295,0.0134,0.0484,0.022,0.0791
	c0.0044,0.0159,0.0069,0.0253,0.0153,0.0395c0.0087,0.0149,0.0172,0.0207,0.0282,0.0339l-0.0006,0.0012
	c-0.0161,0.0176-0.0239,0.0291-0.0418,0.0449c-0.0164,0.0145-0.0302,0.0217-0.0456,0.0309l-0.0017-0.0005L31.219,31.8937z"/>
<path class="st32" d="M31.4129,32.4668l0.1202,0.0555c0.0618-0.0342,0.1332-0.1036,0.1883-0.2111
	c0.0474-0.0925,0.055-0.1428,0.0735-0.2323l-0.0964-0.0313l-0.0192,0.0039c-0.0298,0.0928-0.0373,0.1456-0.0871,0.2258
	c-0.0432,0.0695-0.0926,0.1241-0.1427,0.1634L31.4129,32.4668L31.4129,32.4668z"/>
<path class="st32" d="M31.679,33.4428c0.0194-0.0265,0.0276-0.0437,0.0497-0.0681c0.0246-0.0272,0.0431-0.0378,0.0706-0.062
	c0.0084,0.0009,0.0181-0.0006,0.0259,0.0039c-0.0015,0.0293-0.003,0.0511-0.0097,0.083c-0.0054,0.0259-0.01,0.0402-0.0187,0.0652
	c-0.0073,0.0209-0.0085,0.0344-0.021,0.0527c-0.0083,0.0122-0.0156,0.017-0.0256,0.0279
	C31.7227,33.5055,31.6785,33.4756,31.679,33.4428L31.679,33.4428z"/>
<path class="st32" d="M33.457,33.5425c0.0308,0.0113,0.0496,0.0146,0.0791,0.029c0.0329,0.0161,0.0482,0.031,0.0791,0.0508
	c0.0014,0.0083,0.0056,0.0172,0.0034,0.026c-0.0286,0.0066-0.05,0.0112-0.0825,0.0136c-0.0264,0.0019-0.0414,0.0015-0.0678,0
	c-0.0221-0.0012-0.0354,0.0013-0.0565-0.0056c-0.014-0.0046-0.0207-0.0103-0.0339-0.0169
	C33.4088,33.6018,33.4254,33.5511,33.457,33.5425L33.457,33.5425z"/>
<path class="st32" d="M32.9313,33.4326c0.0308,0.0113,0.0496,0.0145,0.0791,0.029c0.0329,0.0161,0.0482,0.031,0.0791,0.0508
	c0.0014,0.0083,0.0056,0.0172,0.0034,0.026c-0.0286,0.0066-0.05,0.0112-0.0825,0.0135c-0.0264,0.0019-0.0414,0.0015-0.0678,0
	c-0.0221-0.0012-0.0355,0.0013-0.0565-0.0056c-0.014-0.0046-0.0207-0.0103-0.0339-0.0169
	C32.8831,33.4919,32.8996,33.4412,32.9313,33.4326L32.9313,33.4326z"/>
<path class="st32" d="M31.9973,33.5473c0.0309,0.0113,0.0496,0.0145,0.0791,0.029c0.0329,0.0161,0.0482,0.031,0.0791,0.0508
	c0.0014,0.0083,0.0056,0.0172,0.0034,0.026c-0.0286,0.0066-0.05,0.0112-0.0825,0.0135c-0.0264,0.0019-0.0414,0.0015-0.0678,0
	c-0.0221-0.0012-0.0355,0.0013-0.0565-0.0056c-0.014-0.0046-0.0207-0.0103-0.0339-0.0169
	C31.9491,33.6067,31.9657,33.556,31.9973,33.5473L31.9973,33.5473z"/>
<path class="st32" d="M31.5136,31.9422c-0.033-0.015-0.0565-0.0563-0.0356-0.0859c0.0084-0.0118,0.0222-0.0094,0.0305-0.0213
	c0.0102-0.0147,0.0076-0.0273,0.0073-0.0452c-0.0004-0.0203-0.0077-0.0308-0.0113-0.0508
	c-0.0039-0.0219-0.0075-0.0343-0.0073-0.0565c0.0003-0.0338-0.002-0.0579,0.0186-0.0847c0.0132-0.0171,0.0356-0.0319,0.0444-0.033
	c0.0079,0.0073-0.003,0.027-0.0017,0.0443c0.0019,0.0249,0.007,0.0386,0.0155,0.0621c0.0109,0.0303,0.0258,0.0435,0.0378,0.0734
	c0.0112,0.0278,0.0215,0.0435,0.0226,0.0734c0.0009,0.0246-0.0013,0.0396-0.0113,0.0621c-0.0089,0.0199-0.0161,0.0312-0.0328,0.0452
	c-0.0145,0.0121-0.0247,0.0175-0.0429,0.0226C31.5341,31.9491,31.5258,31.9475,31.5136,31.9422L31.5136,31.9422z"/>
<path class="st33" d="M25.3091,24.571h4.4264v4.418h-4.4264L25.3091,24.571z"/>
<path class="st33" d="M30.2074,24.571h4.4264v4.418h-4.4264L30.2074,24.571z"/>
<path class="st33" d="M25.3258,32.8207c0.0126,0.0796,0.0409,0.2161,0.1165,0.356c0.0796,0.1256,0.0502,0.1222,0.2303,0.3232
	c0.0886,0.0989,0.227,0.1837,0.3354,0.2421c0.1089,0.0586,0.1894,0.0874,0.3685,0.1344c0.3511,0.0921,0.5974,0.0979,0.8927,0.0861
	c0.2304-0.0092,0.4064-0.0376,0.552-0.0572c0.2078-0.028,0.3625-0.0446,0.5988-0.0544c0.1149-0.0048,0.2235-0.0059,0.3308,0
	c0.1296,0.0071,0.2576,0.0272,0.3937,0.0544c0.2931,0.0586,0.5904,0.1717,0.5904,0.1717l0.0007-4.6136l-4.4272-0.0012v3.1533
	C25.3087,32.6154,25.3178,32.7695,25.3258,32.8207L25.3258,32.8207z"/>
<path class="st33" d="M34.6177,32.8196c-0.0126,0.0796-0.0409,0.2161-0.1165,0.3559c-0.0796,0.1256-0.0502,0.1222-0.2303,0.3232
	c-0.0886,0.0989-0.227,0.1837-0.3354,0.2421c-0.1089,0.0586-0.1894,0.0874-0.3685,0.1344
	c-0.3511,0.0921-0.5974,0.0979-0.8927,0.0861c-0.2304-0.0092-0.4063-0.0376-0.552-0.0572c-0.2078-0.028-0.3625-0.0446-0.5988-0.0544
	c-0.1149-0.0048-0.2235-0.0059-0.3308,0c-0.1296,0.0071-0.2575,0.0272-0.3936,0.0544c-0.2931,0.0586-0.5943,0.1717-0.5943,0.1717
	l0.003-4.6136l4.4272-0.0012v3.1533C34.6349,32.6143,34.6258,32.7684,34.6177,32.8196L34.6177,32.8196z"/>
</svg>
