<?xml version="1.0" encoding="utf-8"?>
<!-- Generator: Adobe Illustrator 22.0.1, SVG Export Plug-In . SVG Version: 6.00 Build 0)  -->
<svg version="1.1" id="Layer_1" xmlns="http://www.w3.org/2000/svg" xmlns:xlink="http://www.w3.org/1999/xlink" x="0px" y="0px"
	 viewBox="0 0 60 60" style="enable-background:new 0 0 60 60;" xml:space="preserve">
<style type="text/css">
	.st0{fill:#FFFFFF;}
	.st1{fill:none;}
	.st2{fill:#0072C6;}
	.st3{fill:#CE1126;}
	.st4{fill:#FCD116;}
</style>
<circle class="st0" cx="30" cy="30" r="30"/>
<polygon class="st1" points="12.3908,36.5206 29.9993,60 47.6099,36.5206 "/>
<polygon class="st2" points="49.0539,23.4794 10.9467,23.4794 2.6105,23.4794 12.3908,36.5206 47.6099,36.5206 57.3895,23.4794 "/>
<path d="M1.2122,21.6145l1.3984,1.8649h8.3362l9.5249-1.8956l-8.0736-5.3943l9.5256,1.8951l-5.3979-8.0774l8.0755,5.3936
	l-1.8936-9.5246l5.3973,8.0786l1.8943-9.53l1.8943,9.53l5.3987-8.0786l-1.895,9.5246l8.0722-5.3936l-5.3932,8.0774l9.5256-1.8951
	l-8.0777,5.3943l9.5297,1.8956h8.3356l1.3984-1.8649C55.1568,9.132,43.6545,0,29.9993,0C16.3455,0,4.8432,9.132,1.2122,21.6145z"/>
<path class="st3" d="M12.3908,36.5206L2.6105,23.4794l-1.3984-1.8649c-0.179,0.6139-0.3405,1.235-0.4811,1.8649
	C0.2667,25.5808,0,27.7579,0,30.0001s0.2667,4.4199,0.731,6.5206C3.7134,49.9507,15.6735,60,29.9993,60L12.3908,36.5206z"/>
<path class="st3" d="M59.2683,23.4794c-0.1393-0.6299-0.3015-1.251-0.4804-1.8649l-1.3984,1.8649l-9.7796,13.0413L29.9993,60
	c14.3272,0,26.2873-10.0493,29.269-23.4794C59.7334,34.42,60,32.2422,60,30.0001S59.7334,25.5808,59.2683,23.4794z"/>
<polygon class="st4" points="39.5242,21.5837 47.6019,16.1894 38.0763,18.0845 43.4696,10.0072 35.3973,15.4008 37.2924,5.8761 
	31.8936,13.9547 29.9993,4.4247 28.105,13.9547 22.7077,5.8761 24.6013,15.4008 16.5258,10.0072 21.9237,18.0845 12.3981,16.1894 
	20.4717,21.5837 10.9467,23.4794 49.0539,23.4794 "/>
</svg>
