<?xml version="1.0" encoding="utf-8"?>
<!-- Generator: Adobe Illustrator 21.1.0, SVG Export Plug-In . SVG Version: 6.00 Build 0)  -->
<svg version="1.1" id="Layer_1" xmlns="http://www.w3.org/2000/svg" xmlns:xlink="http://www.w3.org/1999/xlink" x="0px" y="0px"
	 viewBox="0 0 60 60" style="enable-background:new 0 0 60 60;" xml:space="preserve">
<style type="text/css">
	.st0{clip-path:url(#SVGID_2_);}
	.st1{clip-path:url(#SVGID_4_);}
	.st2{clip-path:url(#SVGID_6_);fill:#272E68;}
	.st3{clip-path:url(#SVGID_6_);fill:#FFFFFF;}
	.st4{clip-path:url(#SVGID_6_);fill:#BD1F37;}
	.st5{fill:#CCCC33;}
	.st6{fill:#FFFFFF;}
	.st7{fill:#99CCFF;}
	.st8{fill:#FF9900;}
</style>
<g>
	<g>
		<defs>
			<circle id="SVGID_1_" cx="30" cy="30" r="30"/>
		</defs>
		<clipPath id="SVGID_2_">
			<use xlink:href="#SVGID_1_"  style="overflow:visible;"/>
		</clipPath>
		<g class="st0">
			<defs>
				<rect id="SVGID_3_" x="-9.6302" width="109.3477" height="63.7879"/>
			</defs>
			<clipPath id="SVGID_4_">
				<use xlink:href="#SVGID_3_"  style="overflow:visible;"/>
			</clipPath>
			<g class="st1">
				<g>
					<defs>
						<rect id="SVGID_5_" x="-9.6302" width="109.3477" height="63.7879"/>
					</defs>
					<clipPath id="SVGID_6_">
						<use xlink:href="#SVGID_5_"  style="overflow:visible;"/>
					</clipPath>
					<rect x="-9.6302" class="st2" width="109.3477" height="63.7879"/>
					<polygon class="st3" points="32.7432,0 18.1984,7.2723 18.1984,0 10.2487,0 10.2487,7.2723 -4.2962,0 -9.6302,0 
						-9.6302,2.6655 0.9381,7.9498 -9.6302,7.9498 -9.6302,15.901 0.9381,15.901 -9.6302,21.1853 -9.6302,23.8536 -4.2962,23.8536 
						10.2487,16.5798 10.2487,23.8536 18.1984,23.8536 18.1984,16.5798 32.7432,23.8536 38.0771,23.8536 38.0771,21.1853 
						27.5086,15.901 38.0771,15.901 38.0771,7.9498 27.5086,7.9498 38.0771,2.6655 38.0771,0 					"/>
					<polygon class="st4" points="38.0771,0 34.5202,0 18.6177,7.9498 22.1748,7.9498 					"/>
					<polygon class="st4" points="-9.6302,0 -9.6302,1.7754 2.7153,7.9498 6.2722,7.9498 					"/>
					<polygon class="st4" points="6.2722,15.901 -9.6302,23.8536 -6.0762,23.8536 9.8293,15.901 					"/>
					<polygon class="st4" points="22.1748,15.901 38.0771,23.8536 38.0771,22.0751 25.7287,15.901 					"/>
					<polygon class="st4" points="11.8386,0 11.8386,9.5396 -9.6302,9.5396 -9.6302,14.3127 11.8386,14.3127 11.8386,23.8536 
						16.6084,23.8536 16.6084,14.3127 38.0771,14.3127 38.0771,9.5396 16.6084,9.5396 16.6084,0 					"/>
				</g>
			</g>
			<g class="st1">
				<path class="st5" d="M40.6247,24.1453c0,10.9898,0.8768,14.8923,3.8846,17.9054c3.0079,3.0131,4.1475,3.4877,4.9861,3.9493
					c0.9675-0.5325,2.0822-1.1175,4.8083-3.8437c2.6962-2.6964,4.0003-6.5831,4.0003-18.1988
					c-1.9612,0.8397-2.9379,1.1163-4.653,1.1114c-1.2702,0.1245-3.2299-0.6895-4.4017-1.222
					c-0.7658,0.4875-1.8767,1.069-3.8732,1.1343C43.0704,25.0779,42.3398,24.7054,40.6247,24.1453L40.6247,24.1453z"/>
				<path class="st6" d="M41.1558,24.8393c0,3.4-0.201,8.0337,0.5174,10.7146c0.7214,2.6925,0.8871,3.0869,1.4296,4.0265
					l12.6424-0.0939c0.781-1.3527,0.8204-2.1905,1.3995-4.3519c0.5771-2.1536,0.7228-6.9543,0.7397-10.53
					c-1.2713,0.6442-2.9361,1.1008-4.552,0.9005c-1.2954-0.0942-2.4923-0.3761-3.8861-1.1271
					c-1.2091,0.6906-1.6306,1.0059-3.6271,1.0865C44.2647,25.5377,43.0056,25.6577,41.1558,24.8393L41.1558,24.8393z"/>
				<path class="st7" d="M43.1299,39.5059c0.8998,1.8053,5.1419,5.2652,6.3825,5.9815c1.4154-0.8172,5.1578-4.2362,6.2008-5.9815
					H43.1299L43.1299,39.5059z"/>
				<path class="st8" d="M49.7545,29.8731c0.3998,0.8964,1.6814,1.8863,2.0337,2.3714c-0.4485,0.4851-0.5381,0.4323-0.4793,1.3335
					c0.7798-0.7779,0.7938-0.859,1.2954-0.741c1.0987,1.0453,0.1966,3.2902-0.7114,3.7783c-0.9078,0.5207-0.743-0.018-2.1037,0.6345
					c0.6239,0.5086,1.3467-0.0746,1.9374,0.0813c0.321,0.3631-0.1526,1.0248,0.0969,1.648c0.522-0.0479,0.4593-1.0527,0.5808-1.417
					c0.3814-1.3348,2.6742-2.2657,2.7908-3.4901c0.4834-0.2164,0.9666-0.0677,1.5545,0.247
					c-0.2928-1.147-1.2612-1.1347-1.5208-1.4929c-0.6179-0.9002-1.1656-1.9272-2.4853-2.1936
					c-1.0018-0.2022-0.927,0.0608-1.569-0.3567C50.7747,29.9791,49.5602,29.4179,49.7545,29.8731L49.7545,29.8731z"/>
				<path class="st8" d="M46.551,33.676c0.6446-0.7557,0.9639-2.2985,1.2492-2.8222c0.6594,0.1514,0.6523,0.2516,1.4606-0.2189
					c-1.0857-0.294-1.1674-0.2679-1.2923-0.7458c0.4561-1.4145,2.9595-1.7028,3.8364-1.1654
					c0.907,0.522,0.3304,0.6348,1.5712,1.4769c0.1802-0.7635-0.6983-1.1003-0.8297-1.6711
					c0.1868-0.4402,1.0217-0.3501,1.4831-0.8515c-0.2883-0.4177-1.1909,0.1046-1.5855,0.1723
					c-1.416,0.3021-3.3505-1.1957-4.5404-0.7221c-0.4265-0.3064-0.5143-0.7832-0.4971-1.4257
					c-0.927,0.7826-0.4632,1.5932-0.6741,1.9794c-0.5462,0.9414-1.2428,1.8828-0.8733,3.1197
					c0.2805,0.939,0.4895,0.753,0.4022,1.4892C46.1727,32.7665,46.2197,34.0524,46.551,33.676L46.551,33.676z"/>
				<path class="st8" d="M51.7883,34.2074c-1.0118-0.135-2.5619,0.4025-3.1796,0.4406c-0.2052-0.6163-0.1115-0.6624-0.9521-1.0785
					c0.2977,1.0379,0.3634,1.0911-0.0009,1.4402c-1.5057,0.3595-3.0595-1.5339-3.0306-2.5273
					c-0.0006-1.01,0.3989-0.5979,0.513-2.0459c-0.7785,0.2479-0.6265,1.1389-1.0709,1.5414
					c-0.4918,0.0753-0.8428-0.6525-1.5316-0.7696c-0.2258,0.4513,0.7099,0.9176,0.9749,1.2045
					c1.0037,0.9991,0.6598,3.3523,1.7005,4.0781c-0.0545,0.5065-0.437,0.8248-1.0227,1.1431
					c1.1821,0.3515,1.6697-0.4462,2.1255-0.4739c1.1276-0.0413,2.333,0.04,3.2522-0.9012c0.6978-0.7145,0.4227-0.7888,1.1287-1.0985
					C51.1675,34.9865,52.2976,34.283,51.7883,34.2074L51.7883,34.2074z"/>
				<ellipse class="st6" cx="52.4274" cy="30.8925" rx="0.2088" ry="0.1991"/>
				<path class="st6" d="M46.0632,31.0396c-0.0539-0.0972-0.0149-0.2177,0.0871-0.269c0.102-0.0514,0.2283-0.0142,0.2822,0.083
					c0.0539,0.0972,0.0149,0.2177-0.0871,0.269C46.2434,31.174,46.117,31.1369,46.0632,31.0396z"/>
				<path class="st6" d="M49.674,35.9692c-0.0594,0.0942-0.1877,0.1247-0.2865,0.0681c-0.0989-0.0566-0.1308-0.1789-0.0714-0.2732
					c0.0594-0.0942,0.1877-0.1247,0.2865-0.0681C49.7014,35.7526,49.7334,35.8749,49.674,35.9692z"/>
			</g>
		</g>
	</g>
</g>
</svg>
