<?xml version="1.0" encoding="utf-8"?>
<!-- Generator: Adobe Illustrator 21.1.0, SVG Export Plug-In . SVG Version: 6.00 Build 0)  -->
<svg version="1.1" id="Layer_1" xmlns="http://www.w3.org/2000/svg" xmlns:xlink="http://www.w3.org/1999/xlink" x="0px" y="0px"
	 viewBox="0 0 60 60" style="enable-background:new 0 0 60 60;" xml:space="preserve">
<style type="text/css">
	.st0{fill:#E41E20;}
	.st1{fill:#FF0000;}
</style>
<circle class="st0" cx="29.9998" cy="30" r="30"/>
<g>
	<path d="M47.2318,38.1594c-0.2416-0.4502-0.705-0.5395-0.705-0.5395c-0.0861-0.0232-0.5462,0.0033-0.5462,0.0033
		C45.8615,37.6265,45.8549,37.6,45.8549,37.6c-0.0894-0.1092-0.2814-0.1854-0.2814-0.1854
		c-0.1258-0.0364-0.4005-0.0298-0.4005-0.0298c-0.3343,0.0232-0.7878,0.4121-0.7878,0.4121
		c-0.0348,0.0298-0.053,0.0348-0.053,0.0348l-1.5855,0.0827l-0.801,0.0397c-0.192-0.0199-0.0894-0.1258-0.0894-0.1258
		c0.2284-0.1655,1.1055-0.6819,1.1055-0.6819c0.0364-0.0364,0.1556-0.0877,0.1556-0.0877c0.0372-0.0546,0.0894-0.0695,0.0894-0.0695
		h0.206c0.3103,0.0422,0.4617,0.0025,0.4617,0.0025l0.1266-0.005c0.1192-0.0174,0.1465-0.0844,0.1465-0.0844
		c0.0248-0.0223,0.0596-0.0248,0.0596-0.0248c0.0968-0.0075,0.2085-0.1589,0.2085-0.1589c0.0223-0.0199,0.072-0.072,0.072-0.072
		l0.0521-0.072c0.0372-0.0422,0.0819-0.0546,0.0819-0.0546c0.0521-0.0869,0.1266-0.0993,0.1266-0.0993
		c0.0844-0.0149,0.144-0.067,0.144-0.067c0.0447-0.0497,0.1763-0.0472,0.1763-0.0472l0.5983,0.0025
		c0.0422,0,0.072,0.0199,0.072,0.0199c0.1316,0.0596,0.1341-0.0596,0.1341-0.0596c-0.0372-0.715-0.9334-0.5313-0.9334-0.5313
		c-0.1043,0.0348-0.211,0.0497-0.211,0.0497c-0.1812-0.0149-0.3029,0.0943-0.3029,0.0943c-0.1043,0.0273-0.2185,0-0.2185,0
		c-0.0323-0.0323-0.0993-0.0695-0.0993-0.0695c-0.1266-0.0372-0.4295-0.0174-0.4295-0.0174
		c-0.7448,0.1216-0.8143,0.6455-0.8143,0.6455c-0.0025,0.0794-0.0447,0.1067-0.0447,0.1067
		c-0.3211,0.3641-0.7249,0.5859-0.7249,0.5859c-0.3674,0.2284-0.993,0.5627-0.993,0.5627c-0.192,0.1655-0.3575,0.0232-0.3575,0.0232
		c-2.0754-0.6752-3.31-1.2446-3.31-1.2446c-0.149-0.053-0.0397-0.1655-0.0397-0.1655l0.0629-0.0828
		c0.3277-0.3442,0.6322-0.5958,0.6322-0.5958c0.0794-0.0695-0.0397-0.1192-0.0397-0.1192
		c-0.6024-0.2913-0.9334-0.4733-0.9334-0.4733c-1.4763-0.662-2.4494-1.9926-2.4494-1.9926c-0.4171-0.4965-0.7348-1.463-0.7348-1.463
		c-0.192-0.4899,0.139-0.4303,0.139-0.4303c0.2516,0.0331,0.3442,0.4435,0.3442,0.4435c0.5693,1.1717,1.5689,1.5226,1.5689,1.5226
		c0.6157,0.3045,0.7083-0.2052,0.7083-0.2052c0.0728-0.2913-0.2979-0.5561-0.2979-0.5561c-0.7547-0.7547-0.7414-1.655-0.7414-1.655
		c0.0265-0.384,0.2714-0.4634,0.2714-0.4634l0.192,0.0066c0.2052-0.0331,0.3509,0.1721,0.3509,0.1721
		c0.2052,0.5031,0.4833,1.0857,0.4833,1.0857c0.3111,0.715,0.8871,1.5756,0.8871,1.5756c0.9069,1.2446,1.5094,1.0989,1.5094,1.0989
		c0.8474-0.1523,0.7878-0.609,0.7878-0.609c0.0132-0.3509-0.6686-0.6223-0.6686-0.6223c-0.4965-0.2582-0.8076-0.7547-0.8076-0.7547
		c-0.5958-0.7481-0.7414-1.5425-0.7414-1.5425c-0.192-0.8805,0.2714-0.8805,0.2714-0.8805
		c0.2516-0.0596,0.5097,0.3575,0.5097,0.3575c0.3575,0.5826,1.1651,1.5425,1.1651,1.5425c0.3707,0.47,1.2247,1.3306,1.2247,1.3306
		c0.5362,0.6289,1.1453,1.0129,1.1453,1.0129c1.1386,0.7812,2.1912,0.6951,2.1912,0.6951c1.9397-0.192,1.8139-1.1122,1.8139-1.1122
		c-0.0132-0.3178-0.662-0.4171-0.662-0.4171c-0.3244-0.0066-0.7282,0.0728-0.7282,0.0728c-0.7613,0.0662-1.0261,0-1.0261,0
		c-1.2644-0.3442-1.9661-1.2115-1.9661-1.2115c-1.2313-1.3008-1.8321-2.8896-1.8321-2.8896
		c-0.1043-0.278,0.0248-0.4121,0.0248-0.4121c0.139-0.1341,0.288-0.0149,0.288-0.0149c0.0695,0.0397,0.3724,0.3724,0.3724,0.3724
		c0.5114,0.5809,1.4597,1.3604,1.4597,1.3604c1.2065,0.9036,2.0952,1.0178,2.0952,1.0178c0.9632,0.1341,1.4547-0.1043,1.4547-0.1043
		c0.9285-0.3624,0.9781-0.9582,0.9781-0.9582c0.0745-0.283-0.288-0.4468-0.288-0.4468c-0.1787-0.0397-0.8292-0.005-0.8292-0.005
		c-0.2929,0-0.5263,0.0695-0.5263,0.0695c-0.1589,0.0348-0.1887,0.0222-0.1887,0.0222h-0.4965
		c-0.8838-0.0423-1.5259-0.5601-1.5259-0.5601c-1.2446-0.8209-2.2971-2.3964-2.2971-2.3964
		c-0.3178-0.4303-0.4766-0.7812-0.4766-0.7812c-0.1258-0.2449,0.1192-0.3045,0.1192-0.3045c0.331-0.0596,0.8076,0.384,0.8076,0.384
		c0.6355,0.5958,1.8271,1.3306,1.8271,1.3306c0.7348,0.5296,1.3306,0.6024,1.3306,0.6024c0.8407,0.192,1.4365,0,1.4365,0
		c1.1188-0.1787,1.1122-1.1122,1.1122-1.1122c0.0331-0.5958-0.5097-0.6421-0.5097-0.6421
		c-0.5627-0.0728-1.0261,0.1721-1.0261,0.1721c-0.4303,0.1456-0.4237,0.1125-0.4237,0.1125c-0.4833,0.0596-0.9864,0-0.9864,0
		c-0.7348-0.1324-1.4233-0.6488-1.4233-0.6488c-0.7083-0.5097-1.4895-1.3968-1.4895-1.3968
		c-0.6223-0.5892-0.1589-0.801-0.1589-0.801c0.1589-0.1456,0.8341,0.2251,0.8341,0.2251c1.5292,0.8143,2.5619,1.1188,2.5619,1.1188
		c1.3836,0.2714,1.8867-0.1258,1.8867-0.1258c0.9268-0.5097,0.7812-1.1585,0.7812-1.1585
		c-0.0728-0.3442-0.5164-0.4237-0.5164-0.4237c-0.662-0.0596-0.9268,0.1324-0.9268,0.1324l-0.4104,0.2317
		c-1.3174,0.3773-2.3236-0.1059-2.3236-0.1059c-1.3637-0.3972-1.9529-1.3439-1.9529-1.3439
		C40.2742,22.1225,40.4,21.9901,40.4,21.9901c0.0331-0.0927,0.1854-0.1523,0.1854-0.1523c0.2516-0.1721,0.8672,0.1854,0.8672,0.1854
		c1.3306,0.6024,2.4693,0.5627,2.4693,0.5627c1.5027-0.0728,2.4163-0.7812,2.4163-0.7812c0.8871-0.4965,0.3906-1.1717,0.3906-1.1717
		c-0.1456-0.2052-0.4171-0.1655-0.4171-0.1655c-0.4038-0.0596-1.1916,0.4502-1.1916,0.4502c-1.9132,0.993-3.171,0.3045-3.171,0.3045
		c-1.1122-0.4237-1.6881-1.4763-1.6881-1.4763c-0.0728-0.139,0.0331-0.2582,0.0331-0.2582c0.053-0.1258,0.3045-0.0993,0.3045-0.0993
		c0.2582,0,0.3972,0.0463,0.3972,0.0463c1.0857,0.5362,2.1515,0.5958,2.1515,0.5958c1.6749,0.1456,2.6811-0.5759,2.6811-0.5759
		c0.9665-0.662,1.0923-1.4167,1.0923-1.4167c0.0199-0.5428-0.3376-0.7348-0.3376-0.7348c-0.5164-0.1721-0.8275,0.278-0.8275,0.278
		c-0.331,0.4634-0.9996,0.8407-0.9996,0.8407c-0.9996,0.5958-2.7539,0.4303-2.7539,0.4303
		c-0.4104-0.0728-0.6752-0.0927-0.6752-0.0927c-0.801-0.0331-0.7414-0.6488-0.7414-0.6488
		c-0.0265-0.384,0.4568-0.5561,0.4568-0.5561c0.5627-0.0861,0.9798-0.192,0.9798-0.192c1.1122-0.2317,2.1316-0.6819,2.1316-0.6819
		c1.4696-0.5561,2.2971-1.3571,2.2971-1.3571c0.801-0.7944,0.6421-1.2975,0.6421-1.2975c-0.0794-0.8738-0.7679-0.9069-0.7679-0.9069
		c-0.6488-0.0993-1.0791,0.8805-1.0791,0.8805c-0.2582,0.3906-0.2251,0.384-1.3108,1.2446
		c-1.0857,0.8606-2.9525,1.3067-2.9525,1.3067c-0.5759,0.0952-0.6024,0-0.6024,0c-0.1589-0.11-0.2648-0.5189-0.2648-0.5189
		c-0.0397-0.2648-0.331-0.1192-0.331-0.1192c-0.4965,0.2118-1.7477,0.638-1.7477,0.638c-1.1585,0.3335-1.7477,0.6396-1.7477,0.6396
		c-0.6157,0.3509-0.7745,1.1519-0.7745,1.1519l0.0066,1.0724c0,0.9136-0.5428,1.1122-0.5428,1.1122
		c-1.0923,0.3509-1.5623-0.2913-1.5623-0.2913c-0.331-0.2714-0.2913-1.2777-0.2913-1.2777
		c0.0596-0.7348,0.1324-0.6819,0.4435-1.4101c0.0022-0.0052,0.0044-0.0103,0.0067-0.0154c0.3149-0.72,1.0459-1.2225,1.0459-1.2225
		c1.185-0.8937,2.4031-0.9136,2.4031-0.9136c0.7878-0.0132,1.0393-0.1125,1.0393-0.1125c0.6223-0.1655,0.8076-0.5561,0.8076-0.5561
		c0.0132-0.2317,0.1854-0.2582,0.1854-0.2582c0.1192-0.0199,0.1721-0.0463,0.1721-0.0463c0.2185-0.1059,0.7613-0.0728,0.7613-0.0728
		c0.6686-0.139,1.1651-0.6885,1.1651-0.6885c0.4237-0.4899-0.0331-0.5164-0.0331-0.5164c-0.331-0.0397-0.6157,0.4171-0.6157,0.4171
		c-0.4038,0.5428-0.7679,0.5693-0.7679,0.5693c-0.278,0.0199-0.6819,0.0993-0.6819,0.0993
		c-0.2913,0.139-0.7745,0.0265-0.7745,0.0265c-0.523-0.1655-0.1589-0.4965-0.1589-0.4965c0.384-0.2913,0.7547-0.1721,0.7547-0.1721
		c0.1787,0.0397,0.4568,0.3442,0.4568,0.3442c0.1258,0.1125,0.1456,0.0397,0.1456,0.0397s0-0.2251,0-0.3376
		c0-0.1125-0.1258-0.3244-0.1258-0.3244c-0.3178-0.5031-1.8867-0.3707-1.8867-0.3707c-0.2052,0.0132-0.2118-0.1192-0.2118-0.1192
		c-0.4766-0.5164-1.4233-0.3111-1.4233-0.3111c-0.6488,0.1324-1.8404,0.6355-1.8404,0.6355
		c-0.8606,0.2449-2.0456-0.1192-2.0456-0.1192c-0.384-0.2052-0.2251,0.139-0.2251,0.139c0.2582,0.3178,0.7745,0.5826,0.7745,0.5826
		c0.6024,0.1721,0.3773,0.3178,0.3773,0.3178c-0.384,0.5097-1.0791,0.6885-1.0791,0.6885
		c-0.4568,0.1059-0.2913,0.1787-0.2913,0.1787c0.1655,0.139,0.5826,0.2979,0.5826,0.2979c0.2185,0.0927,0.0794,0.2979,0.0794,0.2979
		c-0.2383,0.3376-0.9334,0.6014-0.9334,0.6014s-0.0861,0.0142-0.2648,0.001c-0.0095-0.0007-0.0183-0.001-0.0264-0.001
		c-0.1448,0.0007-0.0795,0.1135-0.0795,0.1135c0.2251,0.1986,0.4766,0.1854,0.4766,0.1854
		c0.2317,0.0199,0.1456,0.2383,0.1456,0.2383l-0.2913,0.3111c-0.3045,0.2979-0.7414,0.1854-0.7414,0.1854
		c-0.2449-0.0463-0.1787,0.0794-0.1787,0.0794c0.3051,0.2503,0.1854,0.5164,0.1854,0.5164C30.2582,17.9188,30,17.9386,30,17.9386
		s-0.2582-0.0199-0.4568-0.1787c0,0-0.1197-0.266,0.1854-0.5164c0,0,0.0662-0.1258-0.1787-0.0794c0,0-0.4369,0.1125-0.7414-0.1854
		l-0.2913-0.3111c0,0-0.0861-0.2185,0.1456-0.2383c0,0,0.2516,0.0132,0.4766-0.1854c0,0,0.0653-0.1128-0.0795-0.1135
		c-0.0081,0-0.0169,0.0003-0.0264,0.001c-0.1787,0.0132-0.2648-0.001-0.2648-0.001s-0.6951-0.2638-0.9334-0.6014
		c0,0-0.139-0.2052,0.0794-0.2979c0,0,0.4171-0.1589,0.5826-0.2979c0,0,0.1655-0.0728-0.2913-0.1787
		c0,0-0.6951-0.1787-1.0791-0.6885c0,0-0.2251-0.1456,0.3773-0.3178c0,0,0.5164-0.2648,0.7745-0.5826
		c0,0,0.1589-0.3442-0.2251-0.139c0,0-1.185,0.3641-2.0456,0.1192c0,0-1.1916-0.5031-1.8404-0.6355c0,0-0.9467-0.2052-1.4233,0.3111
		c0,0-0.0066,0.1324-0.2118,0.1192c0,0-1.5689-0.1324-1.8867,0.3707c0,0-0.1258,0.2118-0.1258,0.3244c0,0.1125,0,0.3376,0,0.3376
		s0.0199,0.0728,0.1456-0.0397c0,0,0.278-0.3045,0.4568-0.3442c0,0,0.3707-0.1192,0.7547,0.1721c0,0,0.3641,0.331-0.1589,0.4965
		c0,0-0.4833,0.1125-0.7745-0.0265c0,0-0.4038-0.0794-0.6819-0.0993c0,0-0.3641-0.0265-0.7679-0.5693
		c0,0-0.2847-0.4568-0.6157-0.4171c0,0-0.4568,0.0265-0.0331,0.5164c0,0,0.4965,0.5495,1.1651,0.6885
		c0,0,0.5428-0.0331,0.7613,0.0728c0,0,0.053,0.0265,0.1721,0.0463c0,0,0.1721,0.0265,0.1854,0.2582
		c0,0,0.1854,0.3906,0.8076,0.5561c0,0,0.2516,0.0993,1.0393,0.1125c0,0,1.2181,0.0199,2.4031,0.9136
		c0,0,0.731,0.5025,1.0459,1.2225c0.0022,0.0051,0.0045,0.0103,0.0067,0.0154c0.3111,0.7282,0.384,0.6752,0.4435,1.4101
		c0,0,0.0397,1.0062-0.2913,1.2777c0,0-0.47,0.6421-1.5623,0.2913c0,0-0.5428-0.1986-0.5428-1.1122l0.0066-1.0724
		c0,0-0.1589-0.801-0.7745-1.1519c0,0-0.5892-0.3061-1.7477-0.6396c0,0-1.2512-0.4262-1.7477-0.638c0,0-0.2913-0.1456-0.331,0.1192
		c0,0-0.1059,0.4088-0.2648,0.5189c0,0-0.0265,0.0952-0.6024,0c0,0-1.8668-0.4461-2.9525-1.3067
		c-1.0857-0.8606-1.0526-0.854-1.3108-1.2446c0,0-0.4303-0.9798-1.0791-0.8805c0,0-0.6885,0.0331-0.7679,0.9069
		c0,0-0.1589,0.5031,0.6421,1.2975c0,0,0.8275,0.801,2.2971,1.3571c0,0,1.0195,0.4502,2.1316,0.6819c0,0,0.4171,0.1059,0.9798,0.192
		c0,0,0.4833,0.1721,0.4568,0.5561c0,0,0.0596,0.6157-0.7414,0.6488c0,0-0.2648,0.0199-0.6752,0.0927
		c0,0-1.7543,0.1655-2.7539-0.4303c0,0-0.6686-0.3773-0.9996-0.8407c0,0-0.3111-0.4502-0.8275-0.278c0,0-0.3575,0.192-0.3376,0.7348
		c0,0,0.1258,0.7547,1.0923,1.4167c0,0,1.0062,0.7216,2.6811,0.5759c0,0,1.0658-0.0596,2.1515-0.5958
		c0,0,0.139-0.0463,0.3972-0.0463c0,0,0.2516-0.0265,0.3045,0.0993c0,0,0.1059,0.1192,0.0331,0.2582
		c0,0-0.5759,1.0526-1.6881,1.4763c0,0-1.2578,0.6885-3.171-0.3045c0,0-0.7878-0.5097-1.1916-0.4502
		c0,0-0.2714-0.0397-0.4171,0.1655c0,0-0.4965,0.6752,0.3906,1.1717c0,0,0.9136,0.7083,2.4163,0.7812
		c0,0,1.1386,0.0397,2.4693-0.5627c0,0,0.6157-0.3575,0.8672-0.1854c0,0,0.1523,0.0596,0.1854,0.1523
		c0,0,0.1258,0.1324-0.2185,0.5693c0,0-0.5892,0.9467-1.9529,1.3439c0,0-1.0062,0.4833-2.3236,0.1059l-0.4104-0.2317
		c0,0-0.2648-0.192-0.9268-0.1324c0,0-0.4435,0.0794-0.5164,0.4237c0,0-0.1456,0.6488,0.7812,1.1585
		c0,0,0.5031,0.3972,1.8867,0.1258c0,0,1.0327-0.3045,2.5619-1.1188c0,0,0.6752-0.3707,0.8341-0.2251
		c0,0,0.4634,0.2118-0.1589,0.801c0,0-0.7812,0.8871-1.4895,1.3968c0,0-0.6885,0.5164-1.4233,0.6488c0,0-0.5031,0.0596-0.9864,0
		c0,0,0.0066,0.0331-0.4237-0.1125c0,0-0.4634-0.2449-1.0261-0.1721c0,0-0.5428,0.0463-0.5097,0.6421
		c0,0-0.0066,0.9334,1.1122,1.1122c0,0,0.5958,0.192,1.4365,0c0,0,0.5958-0.0728,1.3306-0.6024c0,0,1.1916-0.7348,1.8271-1.3306
		c0,0,0.4766-0.4435,0.8076-0.384c0,0,0.2449,0.0596,0.1192,0.3045c0,0-0.1589,0.3509-0.4766,0.7812
		c0,0-1.0526,1.5756-2.2971,2.3964c0,0-0.6421,0.5178-1.5259,0.5601h-0.4965c0,0-0.0298,0.0125-0.1887-0.0222
		c0,0-0.2334-0.0695-0.5263-0.0695c0,0-0.6504-0.0348-0.8292,0.005c0,0-0.3624,0.1638-0.288,0.4468c0,0,0.0497,0.5958,0.9781,0.9582
		c0,0,0.4915,0.2383,1.4547,0.1043c0,0,0.8887-0.1142,2.0952-1.0178c0,0,0.9483-0.7795,1.4597-1.3604
		c0,0,0.3029-0.3327,0.3724-0.3724c0,0,0.149-0.1192,0.288,0.0149c0,0,0.1291,0.1341,0.0248,0.4121c0,0-0.6008,1.5888-1.8321,2.8896
		c0,0-0.7017,0.8672-1.9661,1.2115c0,0-0.2648,0.0662-1.0261,0c0,0-0.4038-0.0794-0.7282-0.0728c0,0-0.6488,0.0993-0.662,0.4171
		c0,0-0.1258,0.9202,1.8139,1.1122c0,0,1.0526,0.0861,2.1912-0.6951c0,0,0.609-0.384,1.1453-1.0129c0,0,0.854-0.8606,1.2247-1.3306
		c0,0,0.8076-0.9599,1.1651-1.5425c0,0,0.2582-0.4171,0.5097-0.3575c0,0,0.4634,0,0.2714,0.8805c0,0-0.1456,0.7944-0.7414,1.5425
		c0,0-0.3111,0.4965-0.8076,0.7547c0,0-0.6819,0.2714-0.6686,0.6223c0,0-0.0596,0.4568,0.7878,0.609
		c0,0,0.6024,0.1456,1.5094-1.0989c0,0,0.5759-0.8606,0.8871-1.5756c0,0,0.278-0.5826,0.4833-1.0857
		c0,0,0.1456-0.2052,0.3509-0.1721l0.192-0.0066c0,0,0.2449,0.0794,0.2714,0.4634c0,0,0.0132,0.9003-0.7414,1.655
		c0,0-0.3707,0.2648-0.2979,0.5561c0,0,0.0927,0.5097,0.7083,0.2052c0,0,0.9996-0.3509,1.5689-1.5226
		c0,0,0.0927-0.4104,0.3442-0.4435c0,0,0.331-0.0596,0.139,0.4303c0,0-0.3178,0.9665-0.7348,1.463c0,0-0.9731,1.3306-2.4494,1.9926
		c0,0-0.331,0.182-0.9334,0.4733c0,0-0.1192,0.0496-0.0397,0.1192c0,0,0.3045,0.2516,0.6322,0.5958l0.0629,0.0828
		c0,0,0.1092,0.1125-0.0397,0.1655c0,0-1.2346,0.5693-3.31,1.2446c0,0-0.1655,0.1423-0.3575-0.0232c0,0-0.6256-0.3343-0.993-0.5627
		c0,0-0.4038-0.2218-0.7249-0.5859c0,0-0.0422-0.0273-0.0447-0.1067c0,0-0.0695-0.5238-0.8143-0.6455
		c0,0-0.3029-0.0199-0.4295,0.0174c0,0-0.067,0.0372-0.0993,0.0695c0,0-0.1142,0.0273-0.2185,0c0,0-0.1216-0.1092-0.3029-0.0943
		c0,0-0.1067-0.0149-0.211-0.0497c0,0-0.8962-0.1837-0.9334,0.5313c0,0,0.0025,0.1192,0.1341,0.0596c0,0,0.0298-0.0199,0.072-0.0199
		l0.5983-0.0025c0,0,0.1316-0.0025,0.1763,0.0472c0,0,0.0596,0.0521,0.144,0.067c0,0,0.0745,0.0124,0.1266,0.0993
		c0,0,0.0447,0.0124,0.0819,0.0546l0.0521,0.072c0,0,0.0496,0.0521,0.072,0.072c0,0,0.1117,0.1514,0.2085,0.1589
		c0,0,0.0348,0.0025,0.0596,0.0248c0,0,0.0273,0.067,0.1465,0.0844l0.1266,0.005c0,0,0.1514,0.0397,0.4617-0.0025h0.206
		c0,0,0.0521,0.0149,0.0894,0.0695c0,0,0.1192,0.0513,0.1556,0.0877c0,0,0.8771,0.5164,1.1055,0.6819
		c0,0,0.1026,0.1059-0.0894,0.1258l-0.801-0.0397l-1.5855-0.0827c0,0-0.0182-0.005-0.053-0.0348c0,0-0.4535-0.3889-0.7878-0.4121
		c0,0-0.2747-0.0066-0.4005,0.0298c0,0-0.192,0.0761-0.2814,0.1854c0,0-0.0066,0.0265-0.1258,0.0232
		c0,0-0.4601-0.0265-0.5462-0.0033c0,0-0.4634,0.0894-0.705,0.5395c0,0-0.0364,0.0993,0.0563,0.0993
		c0,0,0.1324,0.0033,0.3045-0.0563c0,0,0.1258-0.0596,0.2681-0.0596h0.4071c0,0,0.1291-0.0033,0.1854,0.0794
		c0,0,0.0331,0.0265,0.0629,0.0364c0,0,0.053,0.0331,0.0662,0.0562c0.0132,0.0232,0.1043,0.1258,0.1506,0.1523
		c0,0,0.0364,0.0248,0.0728,0.0314c0,0,0.0463-0.005,0.0612,0.0281c0,0,0.0248,0.048,0.1142,0.0645c0,0,0.0712,0.0132,0.1622,0.0099
		l0.3343,0.0005c0,0,0.0679,0.016,0.1903-0.0551c0,0,0.0563-0.0546,0.1076-0.0546c0,0,0.0778,0.005,0.1374-0.0513
		c0,0,0.0596-0.0695,0.101-0.0712l2.4444-0.0348c0,0,0.1415-0.0223,0.0943,0.072c0,0,0.005,0.0869-0.067,0.1117
		c0,0-0.7894,0.432-1.2487,0.6901c0,0-0.0645,0.0223-0.2284-0.0199c0,0-0.0819-0.0571-0.2284-0.0571c0,0-0.3922-0.0205-0.561,0.0829
		c0,0-0.1241-0.0134-0.211,0.0214c0,0-0.3773,0.2135-0.432,0.422c0,0,0.0223,0.0497-0.0298,0.1738c0,0-0.0273,0.1241-0.0223,0.2507
		c0,0-0.005,0.1192-0.0919,0.2681c0,0-0.0844,0.0596-0.1043,0.2582l0.0025,0.3674c0,0,0.0099,0.0968,0.067,0.1763
		c0,0,0.0422,0.0372,0.0546,0.1067c0,0,0.0025,0.0298,0.0348,0.0521c0,0,0.0546,0.0223,0.067-0.0943
		c0,0,0.0199-0.0596,0.0472-0.0844c0,0,0.0298-0.0298,0.0472-0.1018c0,0-0.005-0.0496,0.0099-0.072c0,0,0.0323-0.072,0.0819-0.1142
		c0,0,0.0199-0.0298,0.0248-0.0943c0,0,0.0546-0.0894,0.1067-0.1167c0,0,0.0099,0,0.0273-0.067c0,0,0.0447-0.067,0.0869-0.072
		c0,0,0.0223-0.0174,0.0422-0.0596c0,0,0.0397-0.0596,0.0919-0.0571c0,0,0.1018-0.0074,0.1663,0.0124
		c0,0,0.2905,0.0546,0.4642-0.0298c0,0,0.5726-0.0761,0.7348-0.6918c0,0,0-0.0827,0.0596-0.1225l1.4696-0.9136
		c0,0,0.2218-0.1092,0.4601-0.0894c0,0,0.3244,0.0265,1.0857,0.3873l0.6421,0.2813c0,0,0.139,0.1059,0.139,0.2251
		s0.0066,0.0165,0.0066,0.0165s0.2019,0.48,0.9731,0.2747c0,0,0.0695-0.0199,0.1059-0.0861c0,0,0.0894-0.053,0.1986,0.0298
		c0,0,0.2946,0.192,0.513,0.5097c0,0,0.0364,0.0463,0.0695,0.053c0,0,0.0364,0.0166,0.0463-0.1754c0,0,0.0496-0.5826-0.1721-0.6918
		c0,0-0.1225-0.0695-0.2747-0.1589c0,0-0.0314-0.0149-0.0712-0.1159c0,0-0.2499-0.5428-1.0476-0.3343
		c0,0-0.2218,0.0563-0.3409-0.0199l-0.854-0.3409c0,0-0.1688-0.1721,0.0364-0.2449l1.559-0.513l1.5871-0.5759
		c0,0,0.1241-0.0943,0.2582-0.0099c0,0,0.7646,0.6504,1.5243,0.7398c0,0,0.1043,0.0199,0.2433-0.0149c0,0,0.0778,0,0.0943-0.1192
		c0,0-0.0132-0.2118,0.3045-0.7547c0,0,1.0857-2.1052,1.9794-3.0783c0,0,0.7745-0.9731,1.1519,0.139
		c0,0,0.4171,2.5024-2.2243,4.7465c0,0-0.715,0.7547-2.0456,0.6951c0,0-0.4171,0.1192-0.4766,0.3773
		c0,0,0.2185,0.6554,1.0327,0.6554c0,0,0.6951,0.1787,1.5094-0.3575c0,0,0.8143-0.6157,0.8143,0c0,0,0.1192,0.715-0.7348,1.0129
		c0,0,0.0397,0.0382-0.7547,0.2177c0,0-1.3505,0.1199-1.3703,0.5171c0,0,0.1986,0.715,1.1916,0.7547c0,0,1.0724,0.0993,1.986-0.993
		c0,0,0.7745-0.8143,0.6752,0.1192c0,0,0.0199,1.3505-1.2313,1.7477c0,0-1.4299,0.1986-1.1122,0.6355
		c0,0,0.5759,0.8937,2.0059,0.1787c0,0,0.7348-0.4965,0.993-0.9334c0,0,0.3972-0.5759,0.4171,0.3773c0,0-0.139,0.4965-0.715,1.0129
		c0,0-0.5561,0.5561,0.278,1.6484c0,0,0.4766,0.715,0.993,1.1519c0.5164-0.4369,0.993-1.1519,0.993-1.1519
		c0.8341-1.0923,0.278-1.6484,0.278-1.6484c-0.5759-0.5164-0.715-1.0129-0.715-1.0129c0.0199-0.9533,0.4171-0.3773,0.4171-0.3773
		c0.2582,0.4369,0.993,0.9334,0.993,0.9334c1.4299,0.715,2.0059-0.1787,2.0059-0.1787c0.3178-0.4369-1.1122-0.6355-1.1122-0.6355
		c-1.2512-0.3972-1.2313-1.7477-1.2313-1.7477c-0.0993-0.9334,0.6752-0.1192,0.6752-0.1192c0.9136,1.0923,1.986,0.993,1.986,0.993
		c0.993-0.0397,1.1916-0.7547,1.1916-0.7547c-0.0199-0.3972-1.3703-0.5171-1.3703-0.5171
		c-0.7944-0.1795-0.7547-0.2177-0.7547-0.2177c-0.854-0.2979-0.7348-1.0129-0.7348-1.0129c0-0.6157,0.8143,0,0.8143,0
		c0.8143,0.5362,1.5094,0.3575,1.5094,0.3575c0.8143,0,1.0327-0.6554,1.0327-0.6554c-0.0596-0.2582-0.4766-0.3773-0.4766-0.3773
		c-1.3306,0.0596-2.0456-0.6951-2.0456-0.6951c-2.6414-2.2442-2.2243-4.7465-2.2243-4.7465c0.3773-1.1122,1.1519-0.139,1.1519-0.139
		c0.8937,0.9731,1.9794,3.0783,1.9794,3.0783c0.3178,0.5428,0.3045,0.7547,0.3045,0.7547c0.0166,0.1192,0.0943,0.1192,0.0943,0.1192
		c0.139,0.0348,0.2433,0.0149,0.2433,0.0149c0.7596-0.0894,1.5243-0.7398,1.5243-0.7398c0.1341-0.0844,0.2582,0.0099,0.2582,0.0099
		l1.5871,0.5759l1.559,0.513c0.2052,0.0728,0.0364,0.2449,0.0364,0.2449l-0.854,0.3409c-0.1192,0.0761-0.3409,0.0199-0.3409,0.0199
		c-0.7977-0.2085-1.0476,0.3343-1.0476,0.3343c-0.0397,0.101-0.0712,0.1159-0.0712,0.1159
		c-0.1523,0.0894-0.2747,0.1589-0.2747,0.1589c-0.2218,0.1092-0.1721,0.6918-0.1721,0.6918
		c0.0099,0.192,0.0463,0.1754,0.0463,0.1754c0.0331-0.0066,0.0695-0.053,0.0695-0.053c0.2185-0.3178,0.513-0.5097,0.513-0.5097
		c0.1092-0.0827,0.1986-0.0298,0.1986-0.0298c0.0364,0.0662,0.1059,0.0861,0.1059,0.0861c0.7712,0.2052,0.9731-0.2747,0.9731-0.2747
		s0.0066,0.1026,0.0066-0.0165s0.139-0.2251,0.139-0.2251l0.6421-0.2813c0.7613-0.3608,1.0857-0.3873,1.0857-0.3873
		c0.2383-0.0199,0.4601,0.0894,0.4601,0.0894l1.4696,0.9136c0.0596,0.0397,0.0596,0.1225,0.0596,0.1225
		c0.1622,0.6157,0.7348,0.6918,0.7348,0.6918c0.1738,0.0844,0.4642,0.0298,0.4642,0.0298c0.0645-0.0199,0.1663-0.0124,0.1663-0.0124
		c0.0521-0.0025,0.0919,0.0571,0.0919,0.0571c0.0199,0.0422,0.0422,0.0596,0.0422,0.0596c0.0422,0.005,0.0869,0.072,0.0869,0.072
		c0.0174,0.067,0.0273,0.067,0.0273,0.067c0.0521,0.0273,0.1067,0.1167,0.1067,0.1167c0.005,0.0645,0.0248,0.0943,0.0248,0.0943
		c0.0496,0.0422,0.0819,0.1142,0.0819,0.1142c0.0149,0.0223,0.0099,0.072,0.0099,0.072c0.0174,0.072,0.0472,0.1018,0.0472,0.1018
		c0.0273,0.0248,0.0472,0.0844,0.0472,0.0844c0.0124,0.1167,0.067,0.0943,0.067,0.0943c0.0323-0.0223,0.0348-0.0521,0.0348-0.0521
		c0.0124-0.0695,0.0546-0.1067,0.0546-0.1067c0.0571-0.0794,0.067-0.1763,0.067-0.1763l0.0025-0.3674
		c-0.0199-0.1986-0.1043-0.2582-0.1043-0.2582c-0.0869-0.149-0.0919-0.2681-0.0919-0.2681c0.005-0.1266-0.0223-0.2507-0.0223-0.2507
		c-0.0521-0.1241-0.0298-0.1738-0.0298-0.1738c-0.0546-0.2085-0.432-0.422-0.432-0.422c-0.0869-0.0348-0.211-0.0214-0.211-0.0214
		c-0.1688-0.1033-0.561-0.0829-0.561-0.0829c-0.1465,0-0.2284,0.0571-0.2284,0.0571c-0.1638,0.0422-0.2284,0.0199-0.2284,0.0199
		c-0.4593-0.2582-1.2487-0.6901-1.2487-0.6901c-0.072-0.0248-0.067-0.1117-0.067-0.1117c-0.0472-0.0943,0.0943-0.072,0.0943-0.072
		l2.4444,0.0348c0.0414,0.0017,0.101,0.0712,0.101,0.0712c0.0596,0.0563,0.1374,0.0513,0.1374,0.0513
		c0.0513,0,0.1076,0.0546,0.1076,0.0546c0.1225,0.0712,0.1903,0.0551,0.1903,0.0551l0.3343-0.0005
		c0.091,0.0033,0.1622-0.0099,0.1622-0.0099c0.0894-0.0166,0.1142-0.0645,0.1142-0.0645c0.0149-0.0331,0.0612-0.0281,0.0612-0.0281
		c0.0364-0.0066,0.0728-0.0314,0.0728-0.0314c0.0463-0.0265,0.1374-0.1291,0.1506-0.1523c0.0132-0.0232,0.0662-0.0562,0.0662-0.0562
		c0.0298-0.0099,0.0629-0.0364,0.0629-0.0364c0.0563-0.0828,0.1854-0.0794,0.1854-0.0794h0.4071
		c0.1423,0,0.2681,0.0596,0.2681,0.0596c0.1721,0.0596,0.3045,0.0563,0.3045,0.0563
		C47.2683,38.2587,47.2318,38.1594,47.2318,38.1594z"/>
	<g>
		<path class="st1" d="M23.9493,13.5363c0,0-0.4303,0.0132-0.5031,0.2714c0,0-0.0927,0.3045,0.4038,0.384
			c0,0,0.7414,0.0066,0.7812,0c0,0,0.1854-0.0331,0.2582-0.192c0,0,0.0861-0.139-0.1125-0.2714
			C24.7768,13.7283,24.5253,13.49,23.9493,13.5363z"/>
		<path class="st1" d="M35.9712,13.5363c0,0,0.4303,0.0132,0.5031,0.2714c0,0,0.0927,0.3045-0.4038,0.384
			c0,0-0.7414,0.0066-0.7812,0c0,0-0.1854-0.0331-0.2582-0.192c0,0-0.0861-0.139,0.1125-0.2714
			C35.1437,13.7283,35.3953,13.49,35.9712,13.5363z"/>
	</g>
</g>
</svg>
