<?xml version="1.0" encoding="utf-8"?>
<!-- Generator: Adobe Illustrator 21.1.0, SVG Export Plug-In . SVG Version: 6.00 Build 0)  -->
<svg version="1.1" id="Layer_1" xmlns="http://www.w3.org/2000/svg" xmlns:xlink="http://www.w3.org/1999/xlink" x="0px" y="0px"
	 viewBox="0 0 60 60" style="enable-background:new 0 0 60 60;" xml:space="preserve">
<style type="text/css">
	.st0{fill:#1F1916;}
	.st1{fill:#D8241B;}
	.st2{fill:#F7D418;}
</style>
<g>
	<g>
		<path class="st0" d="M29.9997,60C46.5691,60,60,46.5701,60,29.9999H0C0,46.5701,13.4321,60,29.9997,60z"/>
		<path class="st1" d="M29.9997,0C13.4321,0,0,13.4313,0,29.9999h60C60,13.4313,46.5691,0,29.9997,0z"/>
	</g>
</g>
<path class="st2" d="M35.6822,39.0304l0.6629-0.5927l-0.8803-1.0405c0.6232-0.6461,1.1806-1.3479,1.6701-2.0926l1.3592,0.4432
	L39.5,33.499l-1.0959-0.5832c0.3582-0.859,0.6334-1.7544,0.823-2.6725l1.4199-0.0651l0.1773-2.4653l-1.2944-0.1678
	c0.0149-0.8496-0.044-1.708-0.1809-2.5671c-0.0207-0.1294-0.0436-0.2578-0.0673-0.386l1.2399-0.5618l-0.7167-2.3611l-1.2643,0.3243
	c-0.44-1.1326-1.0159-2.1962-1.709-3.1688l0.9276-0.9908l-1.5453-1.9049l-1.1399,0.861c-0.645-0.6194-1.3486-1.1766-2.1002-1.6664
	l0.49-1.313l-2.1482-1.1448l-0.7063,1.2154c-0.7623-0.3116-1.5577-0.559-2.3807-0.735l-0.4142,2.0135
	c4.9487,1.0581,8.7362,5.0892,9.5429,10.1483c0.7018,4.4011-0.9781,8.7826-4.3015,11.5509"/>
<path class="st2" d="M29.7664,38.8195c-4.027,1.6084-8.6517,0.9465-12.1058-1.854l-1.2563,1.6102
	c0.5412,0.4387,1.1077,0.8305,1.6933,1.1786l-0.3769,1.2703l2.2216,0.9894l0.5534-1.1245c0.8014,0.2909,1.6244,0.5054,2.458,0.6463
	l0.134,1.3853l2.4244,0.0485l0.0891-1.2404c0.8999-0.0195,1.7993-0.1254,2.6863-0.3185l0.5709,1.2626l2.306-0.7628l-0.3422-1.309
	c0.3316-0.1418,0.6594-0.2967,0.9827-0.4654"/>
<path class="st2" d="M26.5621,20.9469l1.0745-3.2859l1.0417,3.2857h3.4179l-2.7343,2.124l1.1394,3.4185l-2.8974-2.1573
	l-2.8325,2.1573l1.1395-3.3852l-2.7998-2.1242h3.451L26.5621,20.9469z M22.0158,27.2416
	c-3.2107,6.7589,3.0374,7.1758,15.2392,16.0993l1.0101-1.1721l-12.0882-9.3865c-0.0782-0.0589-0.0396-0.1854,0.0576-0.1891
	c0.0242-0.0007,0.0478,0.0073,0.0669,0.0224l12.0998,9.3956l0.1887-0.2193C24.4001,30.9346,22.7493,29.848,22.0158,27.2416
	L22.0158,27.2416z M38.9183,42.0676l-1.1126,1.3977l3.5566,2.7349c0.4645,1.3079,1.4581,1.3568,2.0266,0.7899
	c0.2534-0.2523,0.3372-1.0503-0.1191-1.4181l-4.3517-3.5043L38.9183,42.0676z M40.0309,43.5869
	c0.0878-0.0001,0.159,0.0723,0.1591,0.1616c0,0.0001,0,0.0001,0,0.0002c0.0002,0.0894-0.0708,0.162-0.1585,0.1622
	c-0.0002,0-0.0004,0-0.0005,0c-0.0878,0.0001-0.159-0.0723-0.1591-0.1616c0-0.0001,0-0.0001,0-0.0002
	c-0.0002-0.0894,0.0708-0.162,0.1585-0.1622C40.0305,43.5869,40.0307,43.5869,40.0309,43.5869z M40.8854,44.235
	c0.0878,0,0.1589,0.0724,0.1589,0.1618c0,0.0001,0,0.0002,0,0.0004c0,0.0894-0.0711,0.1618-0.1589,0.1618
	s-0.1589-0.0724-0.1589-0.1618c-0.0002-0.0894,0.0708-0.162,0.1585-0.1622C40.8852,44.235,40.8853,44.235,40.8854,44.235z
	 M41.7199,44.8834c0.0878,0,0.1589,0.0724,0.1589,0.1618c0,0.0001,0,0.0002,0,0.0004c0,0.0894-0.0711,0.1618-0.1589,0.1618
	s-0.1589-0.0724-0.1589-0.1618c0-0.0894,0.0711-0.1618,0.1589-0.1618V44.8834z"/>
</svg>
