<?xml version="1.0" encoding="utf-8"?>
<!-- Generator: Adobe Illustrator 21.1.0, SVG Export Plug-In . SVG Version: 6.00 Build 0)  -->
<svg version="1.1" id="Layer_1" xmlns="http://www.w3.org/2000/svg" xmlns:xlink="http://www.w3.org/1999/xlink" x="0px" y="0px"
	 viewBox="0 0 60 60" style="enable-background:new 0 0 60 60;" xml:space="preserve">
<style type="text/css">
	.st0{fill:#3A7DCE;}
	.st1{fill:#FFFFFF;}
	.st2{fill:none;stroke:#FFFFFF;stroke-width:0.2232;stroke-linejoin:round;}
</style>
<g>
	<circle class="st0" cx="30" cy="30" r="30"/>
</g>
<g>
	<path class="st1" d="M14.5291,28.6053c-0.3619-0.724-0.3619-0.724-0.3619-1.4478c-0.181,0-0.2149,0.034-0.3196,0.0055
		c-0.1046-0.0282-0.1442,0.6675-0.4836,0.5317c-0.0565-0.0679,0.2432-0.5711-0.082-0.7803
		c-0.1046-0.0681,0.0254-0.4809-0.0198-0.6619c0,0-0.4128,0.2148-0.7239-0.5429c-0.1528-0.198-0.362,0.1809-0.362,0.1809
		s0.0904,0.2319-0.0735,0.2885c-0.2319-0.1697-0.4016-0.0807-0.6956-0.3139c-0.2941-0.2333,0.0622-0.5005-0.4977-0.6984
		c0.362-0.9048,0.362-0.7239,1.2668-1.0858c-0.543-0.362-0.543-0.362-0.9048-0.9049c-0.543-0.181-0.724-0.3619-1.2669-0.7239
		c-0.7239-0.9049-1.0858-2.7146-1.0858-3.9815c0.4581-0.4242,1.0858,1.4478,1.9908,1.9907l1.2668,0.543
		c0.7239,0.362,0.9048,0.7239,1.4478,1.0858l1.6288,0.543c0.7239,0.5429,1.0858,1.2668,1.6288,1.4478
		c0.5881,0,0.7015-0.3388,0.89-0.3598c1.064-0.0546,1.6069-0.1916,1.819-0.5112c0.2148-0.2545,0.7295,0.1471,2.1773-0.3958
		l-0.1809-0.724c0,0,0.3846-0.3167,0.9048-0.181c-0.0141-0.3308-0.0481-1.2131,0.4644-1.6111
		c-0.3113-0.3265-0.1024-0.5606-0.1024-0.5606s0.2885-0.2772,0.3223-0.4242c-0.1526-0.7974,0.1324-0.8098,0.1963-1.0444
		c0.0638-0.2346-0.2462-0.1542-0.1588-0.4776c0.0872-0.3235,0.6115-0.4003,0.6817-0.6667c0.0704-0.2664-0.1495-0.4001-0.1368-0.4637
		c0.1131-0.2545,0.0171-0.854,0-1.0859c0.9728-0.2602,1.2895-1.0519,1.6288-0.7239c0.181-1.0859,0.362-1.4478,1.4478-1.4478
		c0.1528-0.3337-0.396-0.6165-0.181-0.7239c0.362-0.0452,0.639-0.0226,1.0634,0.526c0.1339,0.1738,0.1582-0.2545,0.2939-0.2998
		c0.1357-0.0452,0.4605-0.0459,0.5089-0.2602c0.0511-0.2206,0.1246-0.509,0.3055-0.8709c0.1527-0.2941,0.2714,0.1131,0.4072,0.69
		c0.7636,0.0283,2.4885,0.198,3.2123,0.3959c0.543,0.1414,0.9049-0.1414,1.4252-0.198c0.3846,0.3846,0.7465,0.0962,0.9501,0.9162
		c0.2874,0.4425,0.7578,0.0396,0.8597,0.1697c0.6052,1.6684,2.6864,0.5429,2.8447,0.5712c0.2657,0,0.5904,0.746,0.7996,0.7274
		c0.34-0.0573,0.2438-0.2891,0.5407-0.1958c-0.0793,0.6278,0.5826,1.3517,0.5826,1.821c0,0,0.1611,0.0792,0.3104-0.0601
		c0.1491-0.1392,0.2863-0.4969,0.4191-0.4885c0.3167,0.0452,0.445,0.0859,0.81,0.1497c0.9813,0.3353,1.4811,0.4109,1.8623,0.5827
		c0.1773,0.3245,0.3491,0.4906,0.7085,0.43c0.297,0.1995,0.0804,0.4607,0.2557,0.4777c0.362-0.181,0.4807-0.3789,0.8426-0.198
		c0.362,0.181,0.7239,0.543,0.9049,0.9049c0,0.1809-0.181,0.9048,0,1.9907c0.0905,0.362,0.1343,0.6489,0.5231,1.2697
		c-0.1033,0.6377,0.4892,1.7108,0.4892,1.9823c0,0.3619-0.2885,0.5486-0.4695,0.9105c0.724,0.543,0,1.4478-0.3619,1.9908
		c2.7146,0.543,1.4478,1.6288,3.6195,1.0858c-0.543,1.2668-0.3507,1.1651,0.1922,2.4319c-1.0859,0.7239-0.0225,0.9444-0.7464,1.8493
		c-0.0453,0.0566,0.4297,0.7862,1.0971,0.7862c-0.181,1.4478-0.7239,0.9048-0.543,3.0766
		c-1.4252-0.0282-0.8484,1.6232-1.8098,1.4478c0.0565,1.0349,0.5486,1.1255,0.362,2.1717c-0.7239,0.181-0.7239,0.181-1.0858,0.7239
		l-0.543-0.181c-0.181,0.9049-0.5429,1.0858,0,1.9908c0,0-0.7013,0.0226-0.9048,0c-0.0171,0.3111,0.3111,0.3959,0.362,0.7239
		c-0.0283,0.1301-1.0294,0.7013-1.8098,0.7239c-0.2036,0.4468,0.5429,0.9219,0.4977,1.1481
		c-0.8484,0.1639-1.2216,1.2046-1.2216,1.2046s0.4355,0.1754,0.362,0.362c-0.2318-0.1697-0.362-0.181-0.7239-0.181
		c-0.181,0.0453-0.6221-0.0111-1.045,0.7027c-0.4642,0.1531-0.6833,0.0978-1.0355,0.5634
		c-0.1559-0.4436-0.3801,0.0042-0.6543,0.1763c-0.2739,0.1723-0.643,0.6006-0.6925,0.5824c0.0113-0.1246,0.1697-0.577,0.1697-0.577
		l-0.9049,0.181c0,0-0.0404,0.0039-0.1114,0.0112c-0.0712,0.0071-0.0521-0.5282-0.2237-0.5089
		c-0.1714,0.0196-0.6621,0.6732-0.8293,0.6937c-0.167,0.0204-0.2198-0.208-0.3638-0.188c-0.1438,0.0199-0.4244,0.6895-0.5263,0.7073
		c-0.1019,0.0178-0.506-0.407-0.8523-0.3477c-1.7816,0.6279-2.0644-1.2384-2.3415-0.1865c-0.3732-0.198-0.3086-0.0831-0.6879,0.0163
		c-0.242,0.0624-0.264-0.3199-0.4792-0.314c-0.4305,0.0121-0.408,0.4194-0.6427,0.2978c-0.1921-0.8484-1.3517-0.6957-1.4648-1.0576
		c-0.092-0.3775,0.5023-0.3757,0.6946-0.6314c0.147-0.369-0.1535-0.5091,0.4429-0.8651c0.7773-0.5257,0.3305-0.724,0.4667-1.1191
		c0.2438-0.5705,0.2452-0.7098,0.0416-1.2131c0,0-0.6052-1.6288-0.7239-1.6288c-0.3619-0.1017-0.3619,0.5994-0.8936,0.7918
		c-1.0858,0.3619-3.0029-0.9163-3.3367-0.9163c-0.3053,0.0057-1.7196,0.3349-1.6662-0.3703
		c-0.2114,0.6856-0.989,0.1611-1.037,0.1611c-0.7239,0-0.4469,0.5599-0.9333,0.5373c-0.2206-0.0735-2.4488-0.2036-2.4488-0.2036
		v0.362l-1.4478-0.7239l-1.2668-0.3619c-1.0858-0.362-0.5429-1.2669-2.3527-0.724V38.74H15.796c0.3619-2.1718,0-1.0858-0.181-3.0766
		l-0.724,0.181c-0.7239-0.9784,1.0066-0.7918-0.5429-1.4478c0,0,0.0282-1.0803-0.362-0.7239c-0.0792,0.0453,0.181,0.543,0.181,0.543
		c-1.4478-0.181-1.8098-0.543-1.8098-1.9908c0,0,1.1933,0.1697,1.0858,0c-0.1696-0.2714-0.3902-2.036-0.3506-2.1547
		c-0.017-0.2376,1.1085-0.837,0.8907-1.4083C14.122,28.6109,14.5291,28.6053,14.5291,28.6053"/>
	<g>
		<path class="st2" d="M51.3353,33.8762c-0.0529,0.1189-0.0435,0.2377,0.0112,0.3225
			C51.4446,34.0516,51.3617,33.9837,51.3353,33.8762z"/>
		<path class="st2" d="M8.834,20.5349c0,0-0.2772-0.0339-0.2149,0.2093C8.7096,20.5575,8.8284,20.5463,8.834,20.5349z"/>
		<path class="st2" d="M8.8963,19.9694c-0.1527,0.0057-0.3394-0.0226-0.2772,0.2205C8.7096,20.0033,8.8906,19.9807,8.8963,19.9694z"
			/>
		<path class="st2" d="M9.9391,23.21c0,0,0.2376-0.017,0.1754,0.2263C10.0239,23.2495,9.9448,23.2213,9.9391,23.21z"/>
	</g>
</g>
</svg>
