<?xml version="1.0" encoding="utf-8"?>
<!-- Generator: Adobe Illustrator 21.1.0, SVG Export Plug-In . SVG Version: 6.00 Build 0)  -->
<svg version="1.1" id="Layer_1" xmlns="http://www.w3.org/2000/svg" xmlns:xlink="http://www.w3.org/1999/xlink" x="0px" y="0px"
	 viewBox="0 0 60 60" style="enable-background:new 0 0 60 60;" xml:space="preserve">
<style type="text/css">
	.st0{clip-path:url(#SVGID_2_);}
	.st1{fill:#75AADB;}
	.st2{fill:#FFFFFF;}
	.st3{fill:#843511;}
	.st4{fill:#FCBF49;}
</style>
<g>
	<g>
		<defs>
			<circle id="SVGID_1_" cx="30" cy="30" r="30"/>
		</defs>
		<clipPath id="SVGID_2_">
			<use xlink:href="#SVGID_1_"  style="overflow:visible;"/>
		</clipPath>
		<g class="st0">
			<rect y="0" class="st1" width="60" height="20"/>
			<rect y="20" class="st2" width="60" height="20"/>
			<rect y="40" class="st1" width="60" height="20"/>
		</g>
	</g>
</g>
<g>
	<path class="st3" d="M29.8919,20.967c0.058-0.0766,0.1901-0.065,0.2285,0.0232c0.051,0.1183,0.0336,0.2469,0.0463,0.3744
		c0.0626,1.665,0.1183,3.3339,0.1867,5.0042c0.1426-0.3362,0.1402-0.7113,0.1796-1.0638c0.029-0.4273,0.1438-0.8377,0.3328-1.2192
		c0.1611-0.3269,0.3131-0.6731,0.3686-1.0423c0.0418-0.2377,0.0221-0.487,0.0151-0.731c-0.0115-0.3398,0.094-0.6887,0.3131-0.956
		c0.0846-0.0979,0.196-0.1872,0.3351-0.1954c0.0685-0.008,0.1323,0.0627,0.1126,0.1305c-0.0626,0.1113-0.1671,0.2-0.2296,0.3183
		c-0.0835,0.1444-0.1055,0.3177-0.0905,0.4869c0.0313,0.3131,0.0788,0.6262,0.0627,0.9444c-0.0093,0.3716-0.1102,0.741-0.2749,1.072
		c-0.1043,0.1999-0.1843,0.4121-0.2284,0.6359c-0.11,0.556-0.0555,1.1259-0.1472,1.6829c0.7142-1.5554,1.4295-3.1101,2.1427-4.6662
		c0.0395-0.0835,0.109-0.1907,0.2226-0.1645c0.1102,0.0376,0.1009,0.1774,0.0672,0.2684c-0.6029,1.6469-1.2231,3.2846-1.8203,4.9334
		c0.407-0.4418,0.5554-1.0505,0.9346-1.5102c0.255-0.3281,0.6064-0.5611,0.8788-0.8742c0.1703-0.1902,0.3188-0.4076,0.4173-0.6453
		c0.1102-0.266,0.1832-0.5577,0.3734-0.7878c0.1705-0.2139,0.3966-0.4064,0.669-0.4487c0.0927-0.0151,0.2574,0.0395,0.2133,0.1641
		c-0.0928,0.1084-0.2516,0.1357-0.3525,0.236c-0.2238,0.179-0.2725,0.4666-0.3537,0.727c-0.1193,0.4115-0.2864,0.8208-0.5715,1.1501
		c-0.1924,0.2452-0.4627,0.4151-0.6515,0.6638c-0.3873,0.4985-0.5496,1.1247-0.8951,1.6527
		c1.2174-1.1281,2.4347-2.254,3.6521-3.3815c0.0893-0.0794,0.1613-0.1796,0.2749-0.2092c0.0869-0.0209,0.1774,0.0696,0.1565,0.1571
		c-0.0395,0.1228-0.1438,0.2017-0.2248,0.2939c-1.1409,1.2371-2.29,2.4644-3.4262,3.7027c0.458-0.2029,0.785-0.5954,1.1931-0.8731
		c0.2574-0.1802,0.5519-0.3118,0.8487-0.4063c0.3804-0.1305,0.7607-0.2934,1.069-0.5542c0.2459-0.2127,0.4301-0.4962,0.7119-0.665
		c0.2401-0.142,0.5264-0.2411,0.8082-0.1855c0.08,0.0202,0.2006,0.0742,0.1866,0.1855c-0.0197,0.1009-0.1495,0.0788-0.2261,0.094
		c-0.2099,0.007-0.4162,0.0985-0.56,0.2545c-0.1983,0.2267-0.3744,0.4724-0.5844,0.6869c-0.2828,0.2834-0.6284,0.5078-1.011,0.6347
		c-0.225,0.0731-0.4464,0.1681-0.6412,0.3032c-0.4696,0.3131-0.836,0.7589-1.2927,1.0841c1.6023-0.5912,3.2127-1.1925,4.8197-1.789
		c0.0893-0.0342,0.2354-0.044,0.2702,0.0748c0.0302,0.0962-0.0627,0.167-0.1403,0.2086c-1.5896,0.7316-3.1883,1.4569-4.7804,2.1989
		c0.4302-0.0128,0.8233-0.1856,1.2244-0.3009c0.3606-0.1062,0.7478-0.1357,1.1293-0.1062c0.4104,0.0313,0.8418,0.0313,1.2359-0.109
		c0.2829-0.0893,0.5379-0.2602,0.829-0.3194c0.2435-0.0504,0.5009-0.0424,0.7328,0.0446c0.1009,0.0376,0.2099,0.0997,0.2586,0.2029
		c0.0348,0.066,0,0.1512-0.0673,0.1687c-0.138-0.0175-0.2655-0.0899-0.4034-0.0969c-0.1693-0.0173-0.3293,0.0342-0.4766,0.1119
		c-0.3003,0.1576-0.5901,0.3339-0.9078,0.4404c-0.3396,0.1195-0.705,0.1582-1.0598,0.1311
		c-0.2423-0.0226-0.4904-0.0052-0.7304,0.0504c-0.5299,0.1263-1.0284,0.3832-1.5722,0.498c0.7953,0.0052,1.5848,0.0527,2.3768,0.08
		c0.9345,0.0324,1.8701,0.0678,2.8059,0.1032c0.0905,0,0.2261,0.0354,0.2261,0.153c0,0.1102-0.1101,0.1484-0.1936,0.1576
		c-1.753,0.0708-3.5073,0.12-5.2627,0.2c0.3629,0.145,0.7663,0.138,1.1466,0.1826c0.3943,0.0324,0.7885,0.1479,1.1421,0.3252
		c0.3536,0.1786,0.728,0.3403,1.1211,0.3839c0.3479,0.0434,0.7072-0.0436,1.0551,0.0434c0.2226,0.0527,0.4406,0.1594,0.6097,0.3217
		c0.0754,0.0782,0.1391,0.175,0.1415,0.287c0,0.0644-0.0568,0.1263-0.1253,0.1119c-0.131-0.0777-0.2331-0.2011-0.3756-0.2596
		c-0.2389-0.1068-0.5078-0.051-0.7583-0.0249c-0.4359,0.051-0.8868,0.0481-1.3067-0.0899c-0.2874-0.0864-0.5321-0.258-0.8278-0.3409
		c-0.6087-0.1699-1.2602-0.0911-1.8852-0.1902c1.5177,0.6817,3.0331,1.3896,4.552,2.0812c0.0998,0.0516,0.2331,0.0869,0.2864,0.2023
		c0.0348,0.1362-0.1228,0.2057-0.2354,0.1565c-1.6578-0.6059-3.309-1.2301-4.9612-1.8319c0.3236,0.2974,0.734,0.4597,1.1142,0.6725
		c0.3143,0.1786,0.5924,0.4186,0.8348,0.6986c0.2365,0.2713,0.4974,0.5375,0.8105,0.7235c0.2111,0.1287,0.4418,0.2035,0.6714,0.2915
		c0.3246,0.1247,0.611,0.3618,0.7605,0.6753c0.0591,0.1154,0.0915,0.2517,0.044,0.367c-0.0267,0.0726-0.1403,0.0969-0.1808,0.0233
		c-0.0835-0.1235-0.1299-0.2719-0.2447-0.3792c-0.1808-0.1774-0.4441-0.2203-0.6805-0.2944
		c-0.4116-0.1148-0.8175-0.2864-1.1456-0.567c-0.2469-0.1901-0.4139-0.4637-0.6655-0.651c-0.5044-0.3942-1.1374-0.556-1.6707-0.9067
		c1.1768,1.2522,2.3362,2.5177,3.5096,3.7711c0.0696,0.0748,0.1508,0.1948,0.0591,0.2864c-0.0823,0.0806-0.1913,0.0191-0.262-0.0469
		c-1.1096-1.0285-2.2203-2.0604-3.3264-3.0894c-0.1738-0.1549-0.3443-0.324-0.5263-0.4782
		c0.1936,0.4283,0.5577,0.7502,0.8278,1.1269c0.1982,0.2684,0.3419,0.5739,0.4463,0.8916c0.1206,0.3501,0.2666,0.7095,0.4975,1.0075
		c0.1391,0.1838,0.3223,0.3351,0.4916,0.4968c0.2401,0.2341,0.4035,0.549,0.4359,0.8863c0.007,0.1305-0.0047,0.28-0.1008,0.3775
		c-0.0535,0.0551-0.16,0.0376-0.1728-0.0423c-0.0267-0.1502-0.0163-0.3056-0.0824-0.4442c-0.1008-0.2325-0.3234-0.375-0.5124-0.5321
		c-0.3339-0.2685-0.64-0.5727-0.8383-0.9502c-0.1611-0.2858-0.2156-0.6128-0.3803-0.8905c-0.3119-0.5363-0.8092-0.927-1.1687-1.429
		c0.5925,1.6093,1.1931,3.2139,1.7855,4.8157c0.0337,0.0951,0.043,0.2418-0.0742,0.2742c-0.109,0.0296-0.1761-0.08-0.2156-0.1646
		c-0.6597-1.4371-1.324-2.88-1.9838-4.3199c-0.0718-0.1415-0.1299-0.2915-0.2029-0.4285c0.008,0.4191,0.1831,0.8146,0.298,1.2168
		c0.102,0.3507,0.1345,0.7247,0.1101,1.0933c-0.0279,0.3756-0.0383,0.7589,0.058,1.1287c0.0613,0.2417,0.1774,0.4533,0.2725,0.6817
		c0.138,0.3148,0.1693,0.6899,0.051,1.0215c-0.0405,0.1142-0.1159,0.2365-0.24,0.2771c-0.0683,0.0173-0.1496-0.0493-0.1287-0.1183
		c0.0348-0.149,0.102-0.2905,0.0951-0.4448c-0.0012-0.2532-0.1554-0.462-0.2691-0.6799c-0.211-0.375-0.3745-0.7797-0.4116-1.2069
		c-0.0348-0.3165,0.0372-0.6342-0.0105-0.9502c-0.0741-0.6383-0.4185-1.2046-0.5391-1.8296
		c-0.0487,1.7148-0.1286,3.4261-0.1843,5.1438c-0.0058,0.1055-0.0243,0.2627-0.1554,0.2655c-0.1183,0-0.153-0.1183-0.1588-0.2098
		c-0.0672-1.7461-0.1263-3.4946-0.2005-5.2413c-0.1415,0.3392-0.1345,0.7113-0.1774,1.072
		c-0.0279,0.4185-0.1379,0.8342-0.3281,1.2081c-0.1798,0.3559-0.3409,0.7235-0.3837,1.116
		c-0.0476,0.3779,0.0591,0.7682-0.0661,1.1368c-0.0846,0.2562-0.2203,0.5305-0.4754,0.6527
		c-0.0915,0.0527-0.2493,0.0133-0.2202-0.1096c0.0718-0.1304,0.1959-0.2267,0.2526-0.3686
		c0.0905-0.1919,0.0638-0.4098,0.0442-0.6139c-0.0581-0.4637-0.0812-0.9426,0.0568-1.3896c0.0882-0.3316,0.2922-0.618,0.3744-0.9502
		c0.152-0.6007,0.0766-1.2221,0.1739-1.8267c-0.6968,1.5577-1.4192,3.1009-2.1252,4.6505c-0.0395,0.0905-0.109,0.2174-0.2319,0.1878
		c-0.1148-0.0324-0.1113-0.1756-0.0731-0.2672c0.603-1.6447,1.2232-3.2852,1.8215-4.927c-0.3698,0.4006-0.5241,0.9432-0.844,1.3775
		c-0.1635,0.2359-0.3722,0.4365-0.582,0.6232c-0.3073,0.2637-0.596,0.571-0.7675,0.9432c-0.1357,0.2835-0.1971,0.6011-0.4012,0.8458
		c-0.1566,0.2127-0.3769,0.4012-0.6423,0.4609c-0.094,0.0243-0.2609,0.0069-0.2609-0.127c0.0267-0.0915,0.1403-0.1113,0.2088-0.1617
		c0.2041-0.0921,0.3455-0.287,0.4128-0.4974c0.1298-0.4203,0.2341-0.8574,0.4776-1.2296c0.1693-0.2736,0.4128-0.4904,0.6493-0.7085
		c0.5275-0.506,0.6887-1.2567,1.0876-1.8579c-1.2221,1.1241-2.4313,2.2575-3.6487,3.385c-0.0882,0.073-0.1671,0.1739-0.2783,0.2041
		c-0.0916,0.0232-0.182-0.0696-0.1588-0.1543c0.0267-0.1096,0.1194-0.1838,0.1902-0.2644c0.989-1.0608,1.9756-2.1293,2.9646-3.1936
		c0.1646-0.1844,0.3351-0.3513,0.4917-0.5437c-0.4742,0.2156-0.815,0.6341-1.2546,0.9158
		c-0.2492,0.1677-0.5251,0.2888-0.8138,0.3833c-0.3884,0.1299-0.771,0.298-1.0724,0.5763
		c-0.2158,0.1855-0.3734,0.4237-0.6145,0.5866c-0.2121,0.1403-0.4615,0.2347-0.7165,0.2377c-0.1068,0-0.2306-0.0203-0.3119-0.0997
		c-0.0523-0.0527-0.0348-0.1652,0.0428-0.1774c0.153-0.0261,0.3119-0.0179,0.4452-0.0806c0.1925-0.0782,0.3211-0.2528,0.4511-0.411
		c0.2306-0.2886,0.48-0.5739,0.7815-0.7861c0.262-0.1895,0.5659-0.3009,0.8626-0.4012c0.6852-0.2678,1.1165-0.8881,1.7031-1.298
		c-1.5235,0.5542-3.0458,1.1292-4.5715,1.6932c-0.1276,0.0406-0.2505,0.1113-0.3897,0.1113
		c-0.0869,0.0069-0.1518-0.0911-0.1263-0.1699c0.0302-0.0707,0.0985-0.1102,0.1658-0.1454
		c1.5815-0.7223,3.1653-1.4534,4.7526-2.1768c-0.5252,0-1.0006,0.2713-1.5084,0.3559c-0.6169,0.1356-1.2511-0.0644-1.8644,0.0899
		c-0.3501,0.0678-0.6562,0.284-0.9994,0.368c-0.3061,0.0683-0.6504,0.0656-0.9148-0.1032
		c-0.0799-0.0568-0.1832-0.1705-0.1042-0.2697c0.0602-0.058,0.1518-0.0016,0.2214,0.0099c0.1739,0.0679,0.3769,0.0824,0.5577,0.0122
		c0.2249-0.0915,0.4301-0.2312,0.6505-0.3304c0.3304-0.1734,0.6932-0.2858,1.0666-0.3131c0.2783-0.0203,0.5554,0.0382,0.8335,0
		c0.6539-0.0678,1.2279-0.4145,1.8701-0.5404c-1.6938-0.0457-3.3866-0.1298-5.069-0.1826c-0.0951-0.0052-0.2017,0-0.2898-0.0527
		c-0.0685-0.0475-0.0685-0.1693,0-0.2158c0.0487-0.0353,0.1183-0.0434,0.1728-0.0475c1.7425-0.0678,3.484-0.1275,5.222-0.1965
		c-0.5217-0.2133-1.1073-0.1218-1.6452-0.2742c-0.4639-0.1072-0.85-0.3837-1.2974-0.5217c-0.2376-0.0788-0.4951-0.1166-0.742-0.1136
		c-0.2701,0.0052-0.5472,0.0417-0.8128-0.0406c-0.2632-0.0777-0.5321-0.2139-0.6701-0.4581
		c-0.0591-0.0851-0.044-0.2748,0.094-0.2504c0.1147,0.0638,0.2017,0.1705,0.3188,0.2331c0.1449,0.0858,0.3201,0.0997,0.4882,0.0875
		c0.3258-0.029,0.655-0.0805,0.9773-0.0608c0.3594,0.0173,0.7189,0.1084,1.0401,0.2771c0.2063,0.1049,0.4371,0.1901,0.6725,0.2335
		c0.546,0.0922,1.1084,0.0436,1.658,0.1386c-1.5537-0.706-3.1038-1.4203-4.6505-2.1258c-0.0778-0.0376-0.1635-0.08-0.1936-0.1623
		c-0.0255-0.0777,0.0428-0.1722,0.1263-0.167c0.1391,0,0.262,0.0701,0.3897,0.1106c1.5629,0.5785,3.1188,1.1664,4.6817,1.7328
		c-0.4116-0.3849-0.9831-0.5339-1.4225-0.8782c-0.218-0.1549-0.4035-0.3491-0.5809-0.5468
		c-0.2563-0.2962-0.5437-0.5727-0.8905-0.7455c-0.3014-0.152-0.654-0.2121-0.9206-0.4348
		c-0.2088-0.1687-0.4046-0.3989-0.4463-0.6702c-0.0163-0.0973,0.0463-0.2627,0.1703-0.2121
		c0.0985,0.1014,0.1333,0.2534,0.2261,0.3548c0.1809,0.221,0.4742,0.2713,0.7316,0.3537c0.4104,0.1148,0.8186,0.2864,1.1502,0.5663
		c0.2458,0.1977,0.4174,0.4639,0.6644,0.6539c0.4997,0.3942,1.1374,0.5554,1.6673,0.9043
		c-1.1676-1.2406-2.3108-2.4934-3.4737-3.7361c-0.0591-0.0644-0.1345-0.1375-0.138-0.2325c0.008-0.0916,0.11-0.1566,0.1936-0.1119
		c0.1125,0.0498,0.1889,0.1524,0.284,0.2302c1.2279,1.135,2.4499,2.277,3.6812,3.4076c-0.2168-0.4748-0.6365-0.8208-0.9148-1.251
		c-0.1658-0.2511-0.2876-0.5305-0.3814-0.822c-0.1299-0.3849-0.3003-0.7688-0.5751-1.0684
		c-0.2005-0.2284-0.4591-0.4006-0.618-0.6585c-0.1414-0.2306-0.2376-0.5084-0.2029-0.7832c0.0139-0.102,0.0684-0.244,0.1948-0.2319
		c0.0985,0.0203,0.0765,0.1502,0.0915,0.2238c0.0047,0.2238,0.1113,0.433,0.2749,0.5797c0.3131,0.2701,0.6608,0.506,0.9101,0.8452
		c0.2144,0.2655,0.3513,0.586,0.4603,0.9142c0.2516,0.7097,0.9009,1.1571,1.3217,1.7531c-0.5902-1.596-1.1872-3.1931-1.7774-4.7914
		c-0.0208-0.0654-0.0476-0.1333-0.0313-0.2057c0.0185-0.0806,0.1321-0.1247,0.1995-0.072c0.0973,0.065,0.1299,0.192,0.1786,0.2946
		c0.7049,1.5321,1.4075,3.0603,2.1125,4.5925c0-0.5345-0.2853-1.0157-0.3664-1.5375c-0.116-0.5982,0.0638-1.2092-0.0742-1.8028
		c-0.0615-0.3501-0.2691-0.6435-0.3629-0.9803c-0.0811-0.3211-0.0811-0.6962,0.1055-0.9779
		c0.0556-0.0928,0.2377-0.1751,0.2817-0.0296c-0.0116,0.138-0.0835,0.2672-0.0916,0.4028
		c-0.0197,0.1681,0.0394,0.3287,0.1102,0.4719c0.1613,0.3073,0.3501,0.6081,0.4511,0.9397
		c0.1125,0.3281,0.1484,0.6823,0.1217,1.0284c-0.0278,0.2725,0,0.5414,0.0673,0.8086c0.1321,0.5044,0.3779,0.9786,0.4754,1.4923
		c0.0463-1.705,0.1263-3.4041,0.1866-5.1062C29.8454,21.1357,29.842,21.0428,29.8919,20.967L29.8919,20.967z"/>
	<path class="st4" d="M29.9313,21.142c0.0012-0.0597,0.0116-0.167,0.0962-0.1396c0.0313,0.0405,0.0442,0.0909,0.0442,0.1396
		c0.0638,1.7438,0.1298,3.4841,0.1981,5.2244c-0.0672-0.0052-0.1263-0.0111-0.182-0.0179
		c-0.0232-0.7849-0.0487-1.5693-0.0835-2.3577c-0.0406,0.7885-0.0638,1.5729-0.0905,2.3647
		c-0.0591,0.0018-0.1228,0.0058-0.1808,0.0111C29.7968,24.6261,29.8652,22.8858,29.9313,21.142L29.9313,21.142z"/>
	<path class="st4" d="M28.3022,21.2712c0.029-0.0533,0.0812-0.0835,0.1415-0.0979c-0.036,0.1681-0.109,0.3357-0.1033,0.52
		c0.0105,0.2343,0.1462,0.4365,0.2528,0.6394c0.1995,0.3536,0.3746,0.7338,0.4198,1.1421c0.0521,0.3166-0.0186,0.6342,0.0115,0.9508
		c0.0603,0.6811,0.4337,1.2822,0.56,1.9478c-0.0638,0.0111-0.1263,0.0185-0.1925,0.0312c-0.102-0.5941-0.4243-1.1217-0.5299-1.7176
		c-0.0428-0.1971-0.0243-0.3983-0.0428-0.5982c-0.0615,0.2678-0.0581,0.542,0.0093,0.8121c0.1287,0.5125,0.3385,1.0123,0.3722,1.548
		c-0.0591,0.0121-0.116,0.0243-0.1693,0.0348c-0.0325-0.5571-0.3165-1.0609-0.3919-1.6134
		c-0.0418-0.2812-0.0313-0.5653-0.0105-0.847c0.0278-0.407,0-0.822-0.1507-1.2052c-0.1009-0.2615-0.2586-0.5085-0.2958-0.7925
		C28.1469,21.7715,28.1539,21.4886,28.3022,21.2712L28.3022,21.2712z"/>
	<path class="st4" d="M31.7806,21.2788c0.0452-0.0319,0.1055-0.0319,0.1623-0.0319c-0.0997,0.1472-0.2388,0.2742-0.2956,0.4487
		c-0.0869,0.2469-0.0209,0.5142-0.0047,0.7669c0.0475,0.3983,0.0465,0.8105-0.0766,1.1971
		c-0.0799,0.2986-0.2608,0.552-0.3455,0.8534c-0.1901,0.6451-0.0869,1.3287-0.2214,1.9832
		c-0.0603-0.0203-0.1228-0.0354-0.1832-0.0527c0.1275-0.5687,0.0475-1.1549,0.1484-1.7241
		c0.0348-0.2093,0.1217-0.4064,0.2053-0.6035c-0.1844,0.2047-0.2609,0.476-0.3038,0.7432
		c-0.0742,0.5136-0.0696,1.0401-0.2423,1.5327c-0.0557,0.0221-0.116-0.0074-0.1716-0.0105
		c0.1426-0.4168,0.1321-0.8655,0.1901-1.2979c0.044-0.3415,0.1543-0.6754,0.3084-0.9868c0.1832-0.3652,0.3455-0.7547,0.3826-1.1658
		c0.0382-0.3398-0.051-0.6905,0.051-1.0238C31.4467,21.6689,31.5603,21.4174,31.7806,21.2788L31.7806,21.2788z"/>
	<path class="st4" d="M26.5376,21.6863c0.0835-0.0354,0.1159,0.0581,0.1438,0.1154c0.7235,1.5815,1.4527,3.16,2.1692,4.7363
		c-0.0521,0.0202-0.1078,0.0394-0.1611,0.0574c-0.3143-0.6869-0.6342-1.3762-0.9426-2.065
		c0.0245,0.1619,0.0997,0.3108,0.1543,0.4639c0.2121,0.5583,0.407,1.1125,0.625,1.6661c-0.0557,0.0272-0.1113,0.0557-0.1635,0.08
		c-0.6017-1.6268-1.2069-3.2563-1.8099-4.8888C26.5318,21.8017,26.5179,21.7414,26.5376,21.6863L26.5376,21.6863z"/>
	<path class="st4" d="M33.3911,21.6933c0.0962-0.0574,0.0962,0.0811,0.0695,0.138c-0.6086,1.6377-1.2162,3.2724-1.8203,4.9067
		c-0.0545-0.022-0.102-0.0452-0.1611-0.0656c0.1959-0.5547,0.4151-1.1067,0.6157-1.6556c0.0545-0.1605,0.1275-0.3183,0.1635-0.4865
		c-0.3154,0.6887-0.6273,1.3826-0.9496,2.069c-0.0555-0.022-0.1066-0.0412-0.1623-0.0614c0.6493-1.411,1.2974-2.8239,1.9421-4.2338
		C33.1916,22.0997,33.2623,21.8787,33.3911,21.6933L33.3911,21.6933z"/>
	<path class="st4" d="M25.0976,22.5709c0.008-0.0586,0.0487-0.094,0.0905-0.1287c0.0278,0.1862,0.0278,0.3839,0.1205,0.5526
		c0.0951,0.1762,0.262,0.2974,0.4116,0.4272c0.3501,0.265,0.6829,0.5717,0.8975,0.9682c0.153,0.2614,0.2051,0.5687,0.3524,0.8376
		c0.3108,0.6071,0.8963,1.0145,1.2522,1.5924c-0.0475,0.0302-0.102,0.0597-0.1588,0.0916c-0.3165-0.498-0.808-0.8609-1.1292-1.3513
		c-0.1275-0.1826-0.2029-0.389-0.2783-0.5896c0.0255,0.345,0.2053,0.6517,0.4279,0.916c0.291,0.3646,0.6039,0.7124,0.8173,1.1281
		c-0.0498,0.0354-0.095,0.0748-0.1438,0.1096c-0.2365-0.5078-0.6944-0.8585-0.9739-1.3409
		c-0.1299-0.2203-0.2248-0.4603-0.3095-0.7072c-0.1357-0.4018-0.3131-0.7965-0.6099-1.1061
		c-0.1937-0.2158-0.4452-0.3907-0.5959-0.6389C25.1382,23.1031,25.0339,22.8336,25.0976,22.5709L25.0976,22.5709z"/>
	<path class="st4" d="M34.3638,23.0666c0.1496-0.1971,0.3479-0.3861,0.5902-0.4382c0.0638-0.0197,0.1263,0.0018,0.1878,0.0173
		c-0.1299,0.1055-0.2911,0.16-0.4082,0.28c-0.1913,0.1901-0.2389,0.4609-0.3223,0.7078c-0.1055,0.3924-0.2666,0.7849-0.5287,1.1008
		c-0.1983,0.2504-0.4742,0.4249-0.6667,0.6841c-0.4116,0.513-0.5751,1.1808-0.9508,1.7258
		c-0.0498-0.0372-0.0973-0.0766-0.1484-0.1113c0.2946-0.4404,0.4557-0.9536,0.72-1.4161c0.1287-0.2331,0.3083-0.4353,0.5136-0.6087
		c-0.3004,0.131-0.4985,0.4145-0.6539,0.691c-0.2319,0.4174-0.4314,0.8591-0.7537,1.2156
		c-0.0452-0.0254-0.0951-0.0527-0.1391-0.0846c0.3908-0.4487,0.5462-1.0411,0.9253-1.4996c0.1751-0.2238,0.3989-0.4041,0.6099-0.596
		c0.2598-0.2487,0.5078-0.5305,0.6527-0.8673C34.1134,23.5989,34.1818,23.3043,34.3638,23.0666L34.3638,23.0666z"/>
	<path class="st4" d="M23.624,23.6968c-0.0243-0.12,0.1171-0.0724,0.1565-0.0128c1.2812,1.1862,2.5554,2.3698,3.832,3.552
		c-0.0394,0.0424-0.0824,0.0836-0.1206,0.1253c-0.5693-0.5165-1.1131-1.0407-1.6835-1.5507c0.5079,0.5669,1.0378,1.1135,1.5502,1.68
		c-0.0428,0.0382-0.0788,0.0829-0.1217,0.1269c-1.1293-1.2255-2.2598-2.4457-3.3949-3.6643
		C23.7666,23.8672,23.6797,23.7936,23.624,23.6968L23.624,23.6968z"/>
	<path class="st4" d="M36.2223,23.684c0.036-0.0394,0.0846-0.0747,0.1472-0.0596c0.0325,0.0724-0.0312,0.1275-0.0742,0.178
		c-1.1779,1.269-2.357,2.5437-3.5374,3.815c-0.0358-0.044-0.0765-0.0887-0.1171-0.1339c0.516-0.5595,1.0471-1.1061,1.5502-1.6765
		c-0.5705,0.5136-1.1142,1.0378-1.6777,1.5542c-0.0418-0.0417-0.0893-0.0829-0.1299-0.1195
		C33.66,26.0563,34.9411,24.8702,36.2223,23.684L36.2223,23.684z"/>
	<path class="st4" d="M22.6477,24.8591c0.109,0.1293,0.1612,0.3032,0.2934,0.4237c0.1855,0.1844,0.4475,0.2302,0.6898,0.3014
		c0.3955,0.113,0.7827,0.2755,1.1038,0.5334c0.2505,0.2028,0.4301,0.4748,0.6841,0.6678c0.5124,0.4139,1.1826,0.5756,1.7229,0.9472
		c-0.036,0.0533-0.073,0.1026-0.109,0.1549c-0.4314-0.2974-0.9345-0.4557-1.3936-0.7056c-0.2389-0.1374-0.4511-0.3199-0.6354-0.5339
		c0.1543,0.3345,0.4788,0.5391,0.7895,0.7062c0.3873,0.2098,0.7965,0.4017,1.1224,0.7027
		c-0.0267,0.0475-0.0568,0.0979-0.0858,0.1454c-0.4314-0.3873-1.0087-0.5414-1.4539-0.8969
		c-0.2331-0.1728-0.4174-0.3935-0.6065-0.6035c-0.2538-0.2828-0.5542-0.5398-0.9009-0.6968
		c-0.2655-0.1228-0.5635-0.1808-0.8046-0.3652c-0.1948-0.1502-0.3769-0.3473-0.4324-0.5959
		C22.6129,24.9762,22.6326,24.9171,22.6477,24.8591L22.6477,24.8591z"/>
	<path class="st4" d="M36.6757,25.2684c0.2226-0.1333,0.4904-0.2389,0.7594-0.1739c0.0522,0.0093,0.0905,0.0539,0.1253,0.0922
		c-0.1774,0.0296-0.3676,0.0296-0.5299,0.109c-0.1518,0.0771-0.2608,0.1999-0.3676,0.3269
		c-0.2146,0.2596-0.4185,0.5287-0.6783,0.7437c-0.2516,0.2029-0.5519,0.3577-0.8579,0.4538
		c-0.3873,0.1241-0.7282,0.367-1.0319,0.6378c-0.2991,0.2678-0.5739,0.5542-0.9066,0.7675
		c-0.0325-0.0533-0.065-0.1032-0.0998-0.1605c0.4394-0.2847,0.7756-0.6875,1.1826-1.0117c0.2237-0.1786,0.4904-0.3037,0.7605-0.3982
		c-0.2702,0.0226-0.5311,0.1391-0.7537,0.3003c-0.4267,0.3166-0.8105,0.6974-1.2916,0.9421
		c-0.0359-0.0465-0.0753-0.087-0.1137-0.1363c0.5009-0.2383,0.8476-0.6835,1.3184-0.964c0.2273-0.1397,0.4788-0.2429,0.727-0.324
		c0.407-0.1363,0.8011-0.3137,1.1131-0.6024C36.2444,25.6673,36.4171,25.4226,36.6757,25.2684L36.6757,25.2684z"/>
	<path class="st4" d="M29.762,26.4192c0.7316-0.0504,1.476,0.1269,2.1044,0.513c0.7698,0.4696,1.36,1.2429,1.5942,2.1177
		c0.2401,0.8776,0.1381,1.8493-0.2991,2.6504c-0.3791,0.706-0.9936,1.2713-1.731,1.5937c-0.8823,0.3867-1.9201,0.3929-2.8092,0.0173
		c-0.7548-0.3125-1.3948-0.891-1.7797-1.611c-0.4255-0.7751-0.5357-1.7171-0.3223-2.5722c0.2063-0.8412,0.728-1.5913,1.4411-2.0789
		C28.4867,26.6777,29.1185,26.4609,29.762,26.4192L29.762,26.4192z"/>
	<path class="st4" d="M21.6843,26.5356c0.0997-0.0302,0.1913,0.0273,0.2829,0.0568c1.5907,0.5924,3.1815,1.1808,4.7768,1.7721
		c-0.0278,0.0498-0.0557,0.1049-0.0765,0.1618c-0.6447-0.2517-1.2904-0.4859-1.9329-0.7229
		c-0.0638-0.0273-0.1356-0.0424-0.2029-0.0597c0.6887,0.3131,1.3762,0.6313,2.0672,0.9444
		c-0.0173,0.0557-0.0382,0.1096-0.0602,0.1641c-1.5803-0.7207-3.1583-1.4476-4.7329-2.1716
		C21.7433,26.6481,21.6587,26.6169,21.6843,26.5356L21.6843,26.5356z"/>
	<path class="st4" d="M38.1377,26.5542c0.0521-0.0185,0.1148-0.0434,0.1751-0.0185c0.0324,0.094-0.08,0.1217-0.1357,0.1549
		c-1.5768,0.7206-3.1455,1.4441-4.7166,2.1618c-0.0197-0.0545-0.0382-0.1084-0.0545-0.1641
		c0.6875-0.3131,1.3762-0.6348,2.0639-0.938c-0.167,0.0232-0.3095,0.0979-0.4649,0.1472c-0.5484,0.2127-1.1141,0.4127-1.6637,0.629
		c-0.0279-0.0568-0.0568-0.1119-0.0788-0.1618C34.882,27.7612,36.5123,27.1576,38.1377,26.5542L38.1377,26.5542z"/>
	<path class="st4" d="M21.2471,28.0569c0.1496,0.1032,0.2761,0.2382,0.4487,0.2979c0.2341,0.0818,0.4904,0.0243,0.7304,0.0029
		c0.4104-0.0476,0.836-0.0476,1.2394,0.0765c0.2934,0.0829,0.5496,0.2638,0.85,0.3461c0.6423,0.189,1.3264,0.0824,1.9792,0.2174
		c-0.0163,0.0627-0.0313,0.1276-0.0498,0.1902c-0.5739-0.1305-1.1711-0.0418-1.7461-0.1571c-0.2029-0.0383-0.3954-0.1206-0.5809-0.2
		c0.2214,0.2,0.5241,0.2771,0.814,0.3153c0.4927,0.0621,0.9983,0.0742,1.4712,0.229c-0.0047,0.0597-0.0069,0.1189-0.0163,0.1716
		c-0.5657-0.1889-1.1791-0.1032-1.7415-0.2828c-0.4127-0.1113-0.7733-0.3623-1.1814-0.4836
		c-0.3188-0.1125-0.6667-0.1426-1.0063-0.1164c-0.3571,0.0272-0.7386-0.0434-1.0203-0.2644
		C21.3364,28.3102,21.2321,28.2023,21.2471,28.0569L21.2471,28.0569z"/>
	<path class="st4" d="M37.1348,28.4957c0.2806-0.0963,0.5391-0.2702,0.844-0.3137c0.2469-0.037,0.5357-0.0272,0.7537,0.1195
		c0.0521,0.029,0.0754,0.0881,0.0973,0.145c-0.1798-0.0412-0.3629-0.1241-0.5519-0.0997c-0.2111,0.0179-0.3897,0.1299-0.5693,0.2261
		c-0.3211,0.1774-0.6597,0.3497-1.0308,0.4174c-0.3038,0.0672-0.6145,0.0376-0.9194,0.0266c-0.7583,0-1.4122,0.4267-2.1334,0.5676
		c-0.0127-0.0644-0.0185-0.1281-0.0312-0.1919c0.5971-0.1027,1.1292-0.4267,1.716-0.5322c0.203-0.0423,0.4012-0.022,0.5971-0.0423
		c-0.2633-0.0581-0.5415-0.0581-0.8035,0.0099c-0.5148,0.1269-1.0145,0.3421-1.5513,0.3721
		c-0.0105-0.0597-0.0243-0.1153-0.0348-0.1692c0.4336-0.0302,0.836-0.2,1.2534-0.3143c0.3419-0.0962,0.7048-0.1205,1.0632-0.0951
		C36.2675,28.6556,36.7186,28.6487,37.1348,28.4957L37.1348,28.4957z"/>
	<path class="st4" d="M21.2936,29.9235c1.6881-0.0625,3.3798-0.1253,5.0702-0.1872c-0.0046,0.058-0.007,0.1183-0.0116,0.178
		c-0.7745,0.0215-1.5513,0.0446-2.3247,0.0835c0.7733,0.0394,1.5502,0.0667,2.3236,0.0899
		c0.0057,0.0586,0.0081,0.1164,0.0127,0.1756c-1.738-0.0619-3.4795-0.1281-5.2186-0.1947c-0.058-0.0029-0.1705-0.008-0.1426-0.0997
		C21.0895,29.9142,21.1961,29.9358,21.2936,29.9235L21.2936,29.9235z"/>
	<path class="st4" d="M33.6357,29.7363c1.6743,0.0619,3.3566,0.1247,5.0378,0.1872c0.0927,0.0041,0.1855-0.0052,0.2725,0.0221
		c0.0463,0.0115,0.0602,0.0376,0.0475,0.0823c-0.0382,0.0325-0.0869,0.0406-0.1345,0.0406
		c-1.7391,0.0666-3.484,0.1327-5.2232,0.1947c0.0047-0.0591,0.0058-0.1171,0.0163-0.1756c0.7594-0.0232,1.5223-0.0475,2.2887-0.0899
		c-0.7652-0.0406-1.5293-0.0619-2.2887-0.0835C33.6414,29.8545,33.6403,29.7983,33.6357,29.7363L33.6357,29.7363z"/>
	<path class="st4" d="M24.2419,30.9839c0.7559,0,1.4087-0.4285,2.1369-0.5687c0.008,0.065,0.0175,0.1321,0.0243,0.1936
		c-0.6226,0.1043-1.1617,0.4521-1.7785,0.5443c-0.1728,0.0302-0.3467,0.008-0.5102,0.033c0.2667,0.0666,0.5507,0.0487,0.8175-0.0191
		c0.5044-0.1327,0.9901-0.3357,1.5153-0.3629c0.0117,0.0568,0.0267,0.1119,0.0395,0.1652c-0.5589,0.0318-1.062,0.3182-1.6139,0.389
		c-0.2736,0.0418-0.5461,0.0302-0.8139,0.0163c-0.4162-0.0313-0.8476-0.0082-1.2359,0.1501
		c-0.2749,0.1049-0.5357,0.2691-0.8383,0.2974c-0.2481,0.0302-0.5287,0.0175-0.7374-0.1396
		c-0.0428-0.0285-0.0591-0.0812-0.0753-0.127c0.1832,0.0418,0.3628,0.1218,0.5542,0.0985c0.2121-0.0173,0.4023-0.1391,0.582-0.2365
		c0.3246-0.1774,0.6608-0.3415,1.0273-0.4064C23.6344,30.9432,23.9405,30.9711,24.2419,30.9839L24.2419,30.9839z"/>
	<path class="st4" d="M33.594,30.6239c0.0115-0.0591,0.0185-0.1172,0.0266-0.1769c0.4615,0.1646,0.9646,0.1292,1.44,0.2146
		c0.2922,0.0557,0.5774,0.1571,0.8452,0.2893c0.3734,0.1901,0.7722,0.357,1.1965,0.3843c0.3328,0.0312,0.6668-0.0476,0.9926,0.0475
		c0.2411,0.0644,0.4904,0.1767,0.6307,0.3919c0.0313,0.0504,0.0313,0.1096,0.0313,0.1687
		c-0.1461-0.0979-0.2608-0.2255-0.4209-0.2876c-0.1576-0.0615-0.3328-0.0586-0.4962-0.0434
		c-0.3525,0.0348-0.7095,0.0823-1.0666,0.0417c-0.3131-0.0342-0.6167-0.1293-0.8951-0.2753
		c-0.3107-0.1576-0.6482-0.2376-0.9936-0.2649c-0.4544-0.0348-0.9253-0.0203-1.3787-0.1126
		c0.0221-0.0619,0.0313-0.1251,0.0523-0.1889c0.5194,0.1183,1.062,0.0638,1.5838,0.131c0.2562,0.0278,0.5019,0.1206,0.7431,0.2267
		c-0.2086-0.1919-0.4927-0.266-0.7675-0.3067C34.612,30.793,34.089,30.789,33.594,30.6239L33.594,30.6239z"/>
	<path class="st4" d="M26.0252,31.3827c0.1681-0.08,0.3385-0.1512,0.5008-0.2359c0.0279,0.0539,0.0557,0.1061,0.0754,0.1611
		c-0.6899,0.3148-1.3797,0.6354-2.0696,0.9426c0.1681-0.0237,0.3223-0.1037,0.487-0.1571c0.5519-0.2035,1.1026-0.4215,1.6568-0.611
		c0.0209,0.0545,0.0406,0.1026,0.0661,0.1543c-1.593,0.5954-3.1838,1.1797-4.7746,1.7693
		c-0.0916,0.0302-0.1832,0.0881-0.2829,0.0591c-0.0255-0.0887,0.0615-0.1148,0.1217-0.1438
		C23.2112,32.6742,24.62,32.0256,26.0252,31.3827L26.0252,31.3827z"/>
	<path class="st4" d="M33.4026,31.3078c0.0197-0.0551,0.044-0.1072,0.073-0.1611c1.5792,0.7432,3.1838,1.4574,4.7688,2.1931
		c0.0372,0.0232,0.1033,0.0701,0.065,0.1211c-0.0568,0.033-0.1195,0-0.167-0.0145c-1.6301-0.6011-3.258-1.2052-4.88-1.8047
		c0.0348-0.0476,0.0358-0.185,0.1229-0.1444c0.633,0.2376,1.2707,0.469,1.9049,0.7113c0.0545,0.0181,0.1171,0.0325,0.1796,0.047
		C34.7823,31.9461,34.089,31.6227,33.4026,31.3078L33.4026,31.3078z"/>
	<path class="st4" d="M25.2832,33.0019c0.5774-0.3195,0.9773-0.8753,1.5327-1.2273c0.0324,0.0574,0.0591,0.1096,0.0927,0.1617
		c-0.4974,0.3195-0.858,0.8058-1.3495,1.1305c-0.1809,0.12-0.3839,0.2069-0.5867,0.273c0.3108-0.0163,0.5913-0.1681,0.8359-0.3583
		c0.3919-0.3073,0.7653-0.6527,1.2069-0.8794c0.0372,0.0469,0.0742,0.0893,0.109,0.1391c-0.5032,0.2417-0.8591,0.6957-1.3437,0.9761
		c-0.2214,0.1357-0.4615,0.229-0.706,0.3102c-0.4012,0.135-0.7965,0.3124-1.1038,0.6097c-0.2146,0.1948-0.3861,0.4423-0.6435,0.5908
		c-0.2238,0.1351-0.4927,0.2423-0.7595,0.1774c-0.051-0.008-0.0903-0.0527-0.1228-0.0921c0.1868-0.0285,0.3849-0.0285,0.5508-0.1265
		c0.1751-0.0945,0.2968-0.2602,0.4255-0.4104c0.2701-0.3455,0.5762-0.6817,0.9635-0.8874
		C24.6709,33.2214,24.9979,33.1687,25.2832,33.0019L25.2832,33.0019z"/>
	<path class="st4" d="M33.0861,31.9565c0.0279-0.0504,0.0568-0.1014,0.0824-0.1549c0.4567,0.3897,1.0608,0.5513,1.5223,0.9403
		c0.2794,0.2279,0.4892,0.5316,0.7571,0.7733c0.2075,0.2,0.4511,0.3781,0.7177,0.4892c0.2538,0.1154,0.5449,0.1774,0.7745,0.3577
		c0.1948,0.1484,0.3781,0.3449,0.4325,0.5954c0.0197,0.0666,0,0.1275-0.0197,0.1843c-0.1021-0.1269-0.1554-0.2922-0.2771-0.4116
		c-0.1323-0.142-0.3294-0.2017-0.5148-0.259c-0.3467-0.1037-0.7003-0.2029-1.0133-0.3977c-0.2493-0.1426-0.4673-0.339-0.6459-0.5583
		c-0.1901-0.2214-0.4314-0.4064-0.6887-0.5484c-0.4452-0.2493-0.9321-0.4139-1.3542-0.6992
		c0.0348-0.0533,0.073-0.1037,0.1068-0.1543c0.4429,0.2974,0.9576,0.4581,1.426,0.7213c0.2308,0.1321,0.4291,0.3124,0.6075,0.5182
		c-0.1333-0.2864-0.3871-0.4766-0.6527-0.6313C33.9186,32.4853,33.4676,32.2737,33.0861,31.9565L33.0861,31.9565z"/>
	<path class="st4" d="M23.6866,36.2187c1.1861-1.2783,2.3711-2.556,3.5559-3.8355c0.0372,0.0428,0.0731,0.0875,0.1126,0.1292
		c-0.3897,0.4272-0.7815,0.8504-1.1814,1.2777c-0.0893,0.1032-0.196,0.1941-0.2702,0.3095c0.109-0.0806,0.2041-0.1832,0.3073-0.2742
		c0.4301-0.3924,0.8476-0.7872,1.2742-1.1797c0.0452,0.0364,0.0882,0.076,0.1311,0.1113c-1.2174,1.1363-2.4429,2.2697-3.6637,3.4029
		c-0.0836,0.076-0.1578,0.1594-0.2539,0.2175C23.5788,36.4071,23.6309,36.2598,23.6866,36.2187L23.6866,36.2187z"/>
	<path class="st4" d="M32.6408,32.5102c0.0406-0.0395,0.0811-0.0841,0.1228-0.1269c1.1746,1.2742,2.3538,2.5484,3.534,3.8145
		c0.0406,0.0504,0.1009,0.1026,0.0765,0.1703c-0.0765,0.0291-0.1228-0.0284-0.1728-0.0678
		c-1.2766-1.1797-2.5473-2.3606-3.818-3.5432c0.0406-0.0353,0.0881-0.0748,0.1299-0.1153c0.4394,0.4046,0.8778,0.8116,1.3125,1.2162
		c0.0893,0.0857,0.1762,0.1739,0.2748,0.2417C33.6299,33.5508,33.1232,33.0465,32.6408,32.5102L32.6408,32.5102z"/>
	<path class="st4" d="M26.7892,34.5816c0.407-0.5148,0.5693-1.1816,0.9461-1.7241c0.0521,0.0354,0.102,0.0714,0.1518,0.1125
		c-0.298,0.4359-0.4579,0.9548-0.7235,1.4141c-0.131,0.2382-0.3141,0.4359-0.5102,0.611c0.2528-0.1164,0.4383-0.3473,0.5809-0.5785
		c0.2655-0.4522,0.4661-0.9426,0.8255-1.3316c0.0487,0.0255,0.094,0.0568,0.1438,0.087c-0.3976,0.4556-0.5577,1.058-0.9496,1.5118
		c-0.2248,0.2915-0.5229,0.4951-0.7675,0.7636c-0.2029,0.2081-0.3791,0.4499-0.4904,0.7153
		c-0.1193,0.2592-0.1831,0.5462-0.357,0.7757c-0.1473,0.1977-0.3456,0.3814-0.596,0.4342c-0.0638,0.0175-0.1275-0.0041-0.182-0.0179
		c0.1241-0.1125,0.2876-0.1582,0.407-0.2806c0.1947-0.1856,0.2423-0.4603,0.3188-0.7066c0.1125-0.4024,0.2771-0.7977,0.5507-1.1189
		C26.329,35.0024,26.599,34.8326,26.7892,34.5816L26.7892,34.5816z"/>
	<path class="st4" d="M32.1052,32.9844c0.0442-0.0348,0.0917-0.073,0.1369-0.1078c0.1947,0.3994,0.5217,0.7097,0.7849,1.0603
		c0.2017,0.2602,0.3548,0.5577,0.4603,0.8765c0.1206,0.3692,0.2701,0.7431,0.5114,1.0632c0.1426,0.1832,0.3199,0.3332,0.4904,0.4915
		c0.2226,0.2152,0.3861,0.5027,0.4289,0.807c0.0068,0.1311,0.0231,0.3038-0.1021,0.382c-0.029-0.1902-0.029-0.3994-0.1368-0.5757
		c-0.1217-0.1999-0.3258-0.3332-0.5019-0.4795c-0.3189-0.2568-0.6146-0.5536-0.7989-0.9124
		c-0.1553-0.2707-0.2098-0.5745-0.3594-0.847c-0.3166-0.5924-0.8846-0.9942-1.2417-1.5559c0.0533-0.0372,0.102-0.0638,0.1577-0.0951
		c0.2922,0.4458,0.6992,0.7843,1.026,1.1971c0.1729,0.222,0.3016,0.4788,0.3851,0.7437c-0.029-0.4863-0.3803-0.865-0.6702-1.2243
		C32.453,33.5508,32.2583,33.2759,32.1052,32.9844L32.1052,32.9844z"/>
	<path class="st4" d="M27.6402,35.2157c0.2469-0.6521,0.4754-1.3166,0.735-1.9623c0.0476,0.0296,0.0975,0.058,0.1461,0.0864
		c-0.2469,0.6387-0.4754,1.2834-0.7153,1.9247c-0.0267,0.0678-0.0452,0.1321-0.0581,0.204
		c0.3073-0.6933,0.6272-1.3768,0.9415-2.0649c0.0533,0.0168,0.109,0.0388,0.1611,0.0574c-0.7165,1.5809-1.4457,3.1589-2.1692,4.7351
		c-0.0279,0.0597-0.0603,0.1454-0.1438,0.1171c-0.0197-0.0574-0.0058-0.1171,0.0163-0.1774
		C26.9109,37.1659,27.2726,36.1925,27.6402,35.2157L27.6402,35.2157z"/>
	<path class="st4" d="M31.4791,33.3236c0.0591-0.0185,0.1078-0.0406,0.1611-0.0625c0.5867,1.5889,1.1757,3.1785,1.7682,4.7652
		c0.0302,0.094,0.0881,0.1872,0.0591,0.287c-0.0858,0.0284-0.116-0.0557-0.1484-0.1148c-0.6655-1.4574-1.3357-2.9147-2.0035-4.3728
		c-0.051-0.1246-0.1287-0.2371-0.1565-0.3646c0.0463-0.0185,0.0973-0.0434,0.1518-0.0609c0.3153,0.6917,0.6365,1.382,0.945,2.0742
		c-0.0336-0.1745-0.109-0.3322-0.1611-0.4951C31.8884,34.4268,31.674,33.876,31.4791,33.3236L31.4791,33.3236z"/>
	<path class="st4" d="M28.9991,33.5055c0.0603,0.0197,0.1228,0.033,0.1902,0.0504c-0.116,0.5176-0.0673,1.0528-0.1299,1.5768
		c-0.0278,0.2614-0.1217,0.5078-0.2238,0.749c0.1763-0.1942,0.2493-0.4551,0.2946-0.7044c0.0788-0.5321,0.0765-1.0713,0.2481-1.5826
		c0.0591,0.0099,0.1136,0.0122,0.1728,0.0209c-0.1856,0.5653-0.1068,1.1774-0.2853,1.7438
		c-0.1158,0.4128-0.3606,0.7681-0.4834,1.1774c-0.1159,0.3217-0.1426,0.6668-0.1195,1.0059
		c0.0302,0.3489-0.0382,0.7183-0.2528,1.0006c-0.0881,0.1055-0.2005,0.2267-0.3501,0.2092c0.094-0.1386,0.2191-0.2596,0.2806-0.4191
		c0.0615-0.1502,0.0615-0.3131,0.0498-0.4661c-0.0348-0.3478-0.0881-0.7014-0.0498-1.0561
		c0.0313-0.3189,0.1287-0.6284,0.2678-0.9107c0.1543-0.295,0.2423-0.6192,0.2749-0.9519
		C28.9261,34.4674,28.9051,33.9844,28.9991,33.5055L28.9991,33.5055z"/>
	<path class="st4" d="M30.8043,33.5688c0.0476-0.0302,0.1068-0.0411,0.16-0.0586c0.0336,0.4267,0.1948,0.822,0.3119,1.2273
		c0.1009,0.3519,0.1299,0.7247,0.1009,1.0957c-0.0267,0.4121-0.0255,0.8354,0.1066,1.2406c0.102,0.3159,0.3061,0.6052,0.3409,0.9432
		c0.0325,0.2487,0.0185,0.5264-0.1391,0.7356c-0.0312,0.0446-0.0788,0.0568-0.1309,0.0772
		c0.0545-0.2319,0.1553-0.4661,0.0718-0.7056c-0.0869-0.259-0.2528-0.4898-0.3698-0.7403
		c-0.1543-0.3032-0.2574-0.6348-0.2852-0.9727c-0.0279-0.2962,0.0359-0.5908-0.0023-0.8852
		c-0.0718-0.6638-0.4221-1.2534-0.5518-1.8987c0.066-0.0115,0.1298-0.0202,0.1936-0.0324c0.1032,0.5943,0.4231,1.1235,0.5287,1.7171
		c0.0395,0.1989,0.022,0.4018,0.0395,0.5982c0.0683-0.2795,0.0591-0.5681-0.0139-0.84
		C31.0339,34.5694,30.839,34.0847,30.8043,33.5688L30.8043,33.5688z"/>
	<path class="st4" d="M29.7331,33.6361c0.058,0.0063,0.1217,0.0063,0.1808,0.0093c0.0267,0.7913,0.0498,1.5796,0.0905,2.3601
		c0.0348-0.7803,0.0603-1.5687,0.0835-2.3548c0.0557-0.0082,0.1148-0.0082,0.182-0.0145c-0.0672,1.691-0.131,3.3808-0.1935,5.073
		c-0.0093,0.0945,0.0115,0.2029-0.0406,0.2899c-0.0233,0-0.0545,0-0.0661,0c-0.0533-0.0893-0.0382-0.1954-0.0475-0.2899
		C29.8629,37.0169,29.7945,35.3271,29.7331,33.6361L29.7331,33.6361z"/>
	<path class="st3" d="M29.5231,29.4226c-0.1113,0.054-0.4197,0.2255-0.7652,0.2795c-0.1253,0.0191-0.7652-0.1502-0.7652-0.1502
		C28.9574,30.1879,29.5231,29.4226,29.5231,29.4226z M29.0351,29.5467c0.1148-0.0469,0.145-0.0266,0.3294-0.1617
		c0,0-0.08-0.1305-0.2691-0.2672c-0.1856-0.1403-0.5241-0.1113-0.625-0.0794c-0.1032,0.0302-0.4173,0.1496-0.5252,0.3438
		c0,0,0.5009,0.2237,0.7027,0.2116C28.6478,29.5937,28.9191,29.5965,29.0351,29.5467z M28.9411,29.1282
		c0.0638,0.0203,0.3014,0.2539,0.3014,0.2539s-0.2608,0.1495-0.3513,0.1728C28.9331,29.5293,28.9574,29.2575,28.9411,29.1282z
		 M28.1423,29.3316c0.0324-0.0621,0.2191-0.2035,0.3222-0.2302h0.0047c-0.0115,0.0916-0.0254,0.3983,0.0406,0.4505
		C28.4426,29.5496,28.1423,29.3316,28.1423,29.3316z M29.5208,29.3021c0,0-0.0035-0.0041-0.008-0.0041
		C29.5104,29.2981,29.5104,29.3021,29.5208,29.3021z M28.9968,28.4969c0.2041,0.0348,0.6539,0.1113,0.7977,0.6962
		c0.146,0.5756-0.2888,1.1896-0.2888,1.1896l0.145,0.0325c0.2806-0.4348,0.3814-1.4603,0.0638-1.742
		c-0.3096-0.2835-0.6552-0.3287-0.8245-0.3485c-0.1762-0.0144-0.3326-0.0144-0.618,0.0806
		c-0.2794,0.0916-0.6794,0.5426-0.6794,0.5426C28.0287,28.6001,28.7904,28.4684,28.9968,28.4969z M30.0043,31.5716
		c-0.0047,0-0.0047,0-0.0047,0l0,0c-0.0301,0-0.6482,0.0255-0.7142,0.0434c0.1878,0.0754,0.6841,0.0794,0.7142,0.0794
		c0,0,0,0,0.0047,0l0,0c0.0279,0,0.5229-0.0041,0.7119-0.0794C30.6548,31.5971,30.0322,31.5716,30.0043,31.5716L30.0043,31.5716
		L30.0043,31.5716z M29.6508,30.6307c-0.0778,0.0307-0.3814,0.3559-0.3804-0.1983c0,0-0.1507,0.2389-0.0568,0.3919
		c0.0221,0.0388,0.0475,0.1009,0.1472,0.0945c0.0997-0.008,0.2539-0.0644,0.3374-0.047c0.08,0.0163,0.2829,0.0389,0.3014,0.0389l0,0
		c0,0,0,0,0.0047,0l0,0l0,0c0.008,0,0.218-0.0227,0.298-0.0389c0.0777-0.0173,0.2376,0.0389,0.3396,0.047
		c0.1009,0.0064,0.1228-0.0557,0.1484-0.0945c0.0881-0.153-0.0603-0.3919-0.0603-0.3919c0,0.5542-0.3049,0.229-0.3803,0.1983
		c-0.1553,0.1936-0.3374,0.1878-0.3455,0.1878l0,0c-0.0047,0-0.0047,0-0.0047,0C29.9846,30.8186,29.8026,30.8244,29.6508,30.6307z
		 M28.9968,28.9693c0,0,0.1774,0.0829,0.2574,0.156c0.0683,0.0602,0.2238,0.1541,0.2586,0.1728
		c0.0127-0.0111,0.1193-0.0383,0.1193-0.0383s-0.2005-0.0962-0.3351-0.1913c-0.1345-0.0911-0.3664-0.2377-0.5391-0.2377
		s-0.5252,0.0678-0.6713,0.1466c-0.1484,0.0748-0.3792,0.3543-0.3792,0.3543s0.5532-0.3861,0.8407-0.4092
		C28.8356,28.8986,28.9968,28.9693,28.9968,28.9693z M30.4959,30.3826c0,0-0.4372-0.6139-0.2934-1.1896
		c0.1472-0.585,0.5982-0.6614,0.8012-0.6962c0.2017-0.0285,0.9681,0.1032,1.403,0.4509c0,0-0.3966-0.4509-0.6807-0.5426
		c-0.2818-0.0951-0.4418-0.0951-0.6122-0.0806c-0.1751,0.0197-0.5172,0.065-0.8313,0.3485
		c-0.3131,0.2818-0.2157,1.3073,0.0672,1.742L30.4959,30.3826z M31.5312,29.0383c-0.1008-0.0318-0.4452-0.0609-0.6272,0.0794
		c-0.182,0.1368-0.2666,0.2672-0.2666,0.2672c0.1809,0.1351,0.2146,0.1148,0.3258,0.1617c0.116,0.0498,0.3884,0.047,0.3884,0.047
		c0.203,0.0121,0.7027-0.2116,0.7027-0.2116C31.9475,29.1878,31.631,29.0685,31.5312,29.0383z M30.758,29.3821
		c0,0,0.2376-0.2337,0.3003-0.2539c-0.0151,0.1293,0.008,0.4012,0.044,0.4267C31.0166,29.5316,30.758,29.3821,30.758,29.3821z
		 M31.4907,29.5519c0.0638-0.0521,0.0487-0.3588,0.0428-0.4505h0.0047c0.102,0.0267,0.2876,0.1681,0.3211,0.2302
		C31.8594,29.3316,31.5592,29.5496,31.4907,29.5519z M30.3765,31.2238c-0.1959-0.0302-0.1217,0.0313-0.3722,0.0313
		c-0.2586,0-0.182-0.0615-0.3802-0.0313c-0.1983,0.029-0.4917,0.3704-0.4917,0.3704s0.4337-0.2464,0.4649-0.2522
		c0.0291-0.0041,0.3839,0.0325,0.4024,0.0348l0,0c0,0,0,0,0.0047,0l0,0l0,0c0.0128-0.0022,0.3676-0.0388,0.3977-0.0348
		c0.0302,0.0058,0.4707,0.2522,0.4707,0.2522S30.5748,31.2527,30.3765,31.2238z M31.2438,29.7021
		c-0.3502-0.0539-0.6527-0.2255-0.7641-0.2795c0,0,0.5635,0.7653,1.5305,0.1292C32.0102,29.5519,31.3689,29.7212,31.2438,29.7021z
		 M30.8205,31.665c-0.1995-0.0029-0.3014,0.1166-0.4511,0.2127c-0.2504,0.1594-0.3571,0.1206-0.3652,0.1183v-0.0029v0.0029
		c-0.0047,0-0.0047-0.0029-0.0047-0.0029v0.0029c-0.0151,0.0023-0.1183,0.0412-0.3686-0.1183
		c-0.153-0.0962-0.2505-0.2156-0.451-0.2127c0.2168,0.1195,0.3571,0.2783,0.4707,0.3403c0.0996,0.0535,0.2306,0.0858,0.2991,0.094
		c-0.08,0.0296-0.24,0.1015-0.3304,0.1594c-0.1206,0.087-0.1588,0.3264-0.1588,0.3264s0.1543-0.1814,0.2539-0.2765
		c0.102-0.094,0.2666-0.0817,0.2851-0.0817l0,0c0,0,0,0,0.0047,0l0,0l0,0c0.008,0,0.182-0.0122,0.2783,0.0817
		c0.102,0.0951,0.2596,0.2765,0.2596,0.2765s-0.0405-0.2394-0.1635-0.3264c-0.0893-0.058-0.2458-0.1299-0.3304-0.1594
		c0.072-0.008,0.1995-0.0405,0.3014-0.094C30.4646,31.9433,30.6072,31.7844,30.8205,31.665z M31.9163,28.9774
		c-0.1473-0.0788-0.4997-0.1466-0.6725-0.1466s-0.407,0.1466-0.5404,0.2376c-0.1287,0.0951-0.3386,0.1913-0.3386,0.1913
		s0.1078,0.0273,0.1228,0.0383c0.036-0.0186,0.1902-0.1126,0.2666-0.1728c0.0731-0.0731,0.2493-0.156,0.2493-0.156
		s0.1613-0.0708,0.4511-0.0469c0.2829,0.0232,0.8371,0.4092,0.8371,0.4092S32.0623,29.0522,31.9163,28.9774z M30.4878,29.2981
		c-0.0047,0-0.008,0.0041-0.008,0.0041C30.4924,29.3021,30.4924,29.2981,30.4878,29.2981z"/>
</g>
</svg>
