<?xml version="1.0" encoding="utf-8"?>
<!-- Generator: Adobe Illustrator 21.1.0, SVG Export Plug-In . SVG Version: 6.00 Build 0)  -->
<svg version="1.1" id="Layer_1" xmlns="http://www.w3.org/2000/svg" xmlns:xlink="http://www.w3.org/1999/xlink" x="0px" y="0px"
	 viewBox="0 0 60 60" style="enable-background:new 0 0 60 60;" xml:space="preserve">
<style type="text/css">
	.st0{clip-path:url(#SVGID_2_);}
	.st1{fill:#000066;}
	.st2{fill:#BD1021;}
	.st3{fill:#FFFFFF;}
	.st4{fill:#FFC221;}
	.st5{fill:#5A3719;}
	.st6{fill:#7B3C20;}
	.st7{fill:#AA5323;}
	.st8{fill:#999999;}
</style>
<g>
	<defs>
		<circle id="SVGID_1_" cx="30" cy="30" r="30"/>
	</defs>
	<clipPath id="SVGID_2_">
		<use xlink:href="#SVGID_1_"  style="overflow:visible;"/>
	</clipPath>
	<g class="st0">
		<rect x="-60" class="st1" width="120" height="60"/>
		<path class="st2" d="M-60,30L60,0v60L-60,30z"/>
		<path class="st3" d="M-47.1432,30L60,3.2148v53.5704"/>
		<path d="M31.9766,33.3511c0.7998,0.0614,0.7724,0.8544,0.7724,0.8544l2.8323,0.0631c0.3623-0.9874,0.7383-0.8732,1.4264-0.3854
			c0.6537,0.4634,1.3671,0.6702,1.3671,0.6702c0.2734-1.4172,2.2831-1.1307,2.2831-1.1307
			c0.8567-2.0465,0.9297-2.0192,0.4193-2.2784s-0.7186-0.6977-0.7186-0.6977c-0.4845-0.5848-0.7397-1.4307-0.7944-1.9495
			c-0.0547-0.5188-0.6562,0.2596-0.7656,0.0959s-1.0026-0.0682-1.0026-0.0682c0.2187,0.2319-0.5286,0.0955-0.5286,0.0955
			c0.0729,0.0546,0,0.2729,0,0.2729c-0.0729-0.0955-0.638-0.191-0.638-0.191c-0.0547,0.1228-0.1823,0.2592-0.1823,0.2592
			c-0.3099-0.1364-0.9297-0.1091-0.9297-0.1091c-0.9114-0.0136-1.4583,0.2729-1.7135,0.4229
			c-0.2552,0.1501-1.1666,0.614-1.914,1.337c-0.7474,0.7231-1.1666,0.6412-1.1666,0.6412c-0.2187,0.805-2.0051,1.7873-2.0051,1.7873
			c-0.2917,0.2592-1.1849,0.382-1.6406,0c-0.4557-0.382,0-1.0642,0-1.0642c0.1686-0.3189,0.3358-0.3057,0.3543-1.4124
			c0.0125-0.7483,0.785-1.3418,1.5779-2.2116c0.9694-1.0633,2.3241-2.8139,2.3241-2.8139c0.0068,0.5372,0.3008,0.6242,0.3008,0.6242
			c0.2666-0.5474,0.6494-0.9874,0.6494-0.9874c0.0205,0.046,0.0752,0.0767,0.0752,0.0767c0.3008-0.4093,0.4853-0.573,0.4853-0.573
			c-0.1025-0.0409-0.9433,0-1.7294,0.6856S29.7891,25.82,29.7891,25.82c-0.5469-0.174-0.5947-0.5935-0.5947-0.5935
			c-0.3992-1.7181,1.1689-2.947,1.1689-2.947c-2.1054-0.5014-0.5879-3.1721,2.0234-4.3079
			c2.6112-1.1358,2.5839-1.6474,2.5839-1.6474c0.1504,0.174,0.2734,0.4809,0.2734,0.4809c0.0273-0.0205,0.2187-0.307,1.7226-0.9721
			s2.2284-1.2381,2.2284-1.2381c0.1914,0.3684,0.1504,0.6344,0.1504,0.6344c4.1151-1.4428,8.1687-4.753,8.1687-4.753
			c0.1162,0.2763,0.0547,0.6958,0.0547,0.6958c0.6699-0.6191,3.0897-2.0618,3.0897-2.0618c0.041,0.9209-0.7177,1.2739-0.7177,1.2739
			c0.082,0.133,0.1299,0.3735,0.1299,0.3735c0.3965-0.2149,2.2421-1.5042,2.2421-1.5042c0.6767,0.5833,0.0615,1.54,0.0615,1.54
			c0.2393-0.0358,0.417-0.2456,0.417-0.2456c0.1709,0.9926-0.9297,1.8674-0.9297,1.8674c0.1914,0.0051,0.5127-0.1842,0.5127-0.1842
			c-0.2051,1.0846-2.2626,2.287-2.2626,2.287c0.3008,0.266,0.0137,0.6191-0.2324,0.7777c-0.2461,0.1586-0.6836,0.5065-0.5469,0.6498
			c0.1367,0.1433,1.0459-0.4963,1.0459-0.4963c0.1572,0.4553-1.0117,1.3507-1.0117,1.3507
			c0.8134,0.1074,3.0761-0.9209,3.0761-0.9209c-0.1846,0.8749-1.039,1.5553-2.0917,1.9493s-0.998,0.4553-0.998,0.4553
			c0.1846,0.1484,1.6406-0.2763,1.6406-0.2763c-0.4375,0.9772-1.955,1.6474-1.955,1.6474c0.417,0.353,0.9843-0.0563,1.5517-0.4451
			s1.3398-0.7214,2.1943-1.0079c0.8545-0.2865,1.456-0.0716,1.456-0.0716c0.7109-0.2251,1.3125,0.0921,1.3125,0.0921
			c1.3671,0.1126,1.5039,0.6088,1.5039,0.6088c0.1504,0.0358,0.2666,0.0972,0.6152,0.353C58.0205,19.44,58,20.2331,57.9864,20.6219
			c-0.0137,0.3888-0.123,0.3888-0.1914,0.4963c-0.0684,0.1074-0.0752,0.2302-0.0752,0.3786s-0.3418,1.0693-2.454,1.0795
			s-3.2014,0-3.2014,0c-0.1743,0-0.3828,0.1023-0.3828,0.1023c-0.8886,0.44-0.4193-0.3002-1.4765,0.5696
			c-1.0573,0.8698-1.595,0.7197-1.595,0.7197c-0.1732,0.2081-1.2806,1.2381-1.914,1.6474s-0.5195,0.3718,0.0319,0.6105
			c0.5514,0.2388,1.3854,0,1.3854,0c-0.5332,0.3547-0.1641,0.5184-0.1641,0.5184c0.7018-0.4264,1.1256-0.2695,1.1256-0.2695
			c0.2233,0.6105-0.5788,1.5758-0.5788,1.5758c0.3099,0.0409,0.8932,0,0.8932,0c-0.1413,0.4127-0.7246,0.8664-1.153,1.0062
			c-0.4284,0.1398-0.3509,0.1944-0.2233,0.4536c0.1276,0.2592,0.0182,0.5219,0.0182,0.5219
			c-0.7474-0.5184-0.7747-0.0546-0.7747-0.0546c-0.0863,0.6144-0.0729,1.4939-0.0729,1.4939
			c-0.5286-0.266-0.556,0.0887-0.556,0.0887c-0.1367,0.5594-0.7838,1.2074-0.7838,1.2074
			c-0.0273-0.3479-0.3463-0.4366-0.3463-0.4366c-0.3372,0.6481-0.957,1.0369-0.957,1.0369
			c-0.082,0.5594,0.0729,1.3439,0.0729,1.3439c-0.401-0.0819-0.5469-0.075-0.6107,0.0205s0.0911,0.1433,0.0911,0.1433l5.2225,0.1296
			c0.0729,0.0068,0.3828,0.0409,0.3919,0.6071c0.0091,0.5662-0.4557,0.5935-0.4557,0.5935l-5.7146-0.1364
			c0,0,0.0273,0.1569-0.2734,0.3138s-0.2005-0.1774-0.2825,0.5253c-0.082,0.7026-1.2213-0.0546-1.2213-0.0546
			c-0.1823,0.2729-0.6289,0.6276-0.6289,0.6276c-0.2552-0.7708-0.5195-1.0096-0.9297-0.3411
			c-0.4101,0.6685,0.7383,0.5526,0.7383,0.5526s6.7081-0.9891,7.0727-1.0232s0.7656-0.0136,0.9297,0.498
			c0.1641,0.5116-0.8112,0.5935-0.8112,0.5935l-6.8813,0.7504c-0.1458,0.4093-0.72,0.3752-0.72,0.3752
			c0.0456,0.3888-0.3646,0.6344-0.5742,0.7777c-0.2096,0.1433-0.8659,0.075-0.8659,0.075c-0.8021,0.5457-1.194,0.116-1.194,0.116
			c-0.5195,0.2251-0.8476,0.1296-1.276-0.0546c-0.4284-0.1842-0.3919-0.7026-0.3919-0.7026l-4.3429,0.4502
			c-0.2051,0.0716-0.3463,0.2081-0.3463,0.2081c0.1549,0.1978-0.311,0.6574-0.311,0.6574c0.1299,0.0895,0.3794,0.3402,0.4136,0.8826
			c0.0362,0.5737-0.7007,0.6702-0.3315,1.0693s1.0424,0.0691,1.7944-0.2916s1.4902-0.3146,1.8115-0.3121
			c0.3213,0.0026,1.2168,0.2277,1.7739,0.4246c0.5571,0.197,0.7485,0.0793,0.7861-0.2072c0.0376-0.2865,0.2871-0.3684,0.2871-0.3684
			c-0.0684,0.2814,0.082,0.4067,0.082,0.4067c0.2153,0.0154,0.5913-0.1944,0.5913-0.1944
			c-0.0342,0.2072-0.3076,0.3377-0.3076,0.3377c-0.5469,0.3658,0.2051,0.2302,0.2051,0.2302
			c1.497-0.307,2.0302-0.2763,2.4198-0.2353c0.3896,0.0409,2.2284,0.8237,2.2284,0.8237c0.0684-0.1842,0.0205-0.6395,0.0205-0.6395
			c0.4717,0.1279,0.6631,0.3991,0.6631,0.3991c0.1777-0.1944,0.0615-0.5219,0.0615-0.5219c1.5175,0.8493-0.3144,1.233-0.7998,1.3967
			s-0.4785,0.3633-0.4785,0.3633c0.4033-0.1279,0.6836-0.174,1.0185-0.1995s0.2187-0.0051,1.0185-0.1637
			c0.7998-0.1586,1.2099,0.1791,1.2099,0.1791c-0.6699,0.0358-0.8681,0.2353-0.8681,0.2353
			c0.4238,0.2916,0.0205,0.5372,0.0205,0.5372c-0.6084-0.7674-1.1279,0.0307-1.1279,0.0307
			c0.2085-0.0307,0.8203,0.0972,0.9946,0.2072c0.1349,0.0851,0.4512,0.2405,0.8442,0.4221c0.555,0.2565,0.4512,0.0921,0.8818,0.2558
			c0.4306,0.1637,0.2666,0.5781,0.2666,0.5781c-0.1846-0.3377-0.581-0.4553-0.581-0.4553
			c-0.0342,0.4553-0.4922,0.5321-0.4922,0.5321c0.5605-0.6242-0.6494-0.8953-1.2168-0.8851
			c-0.5674,0.0102-0.9912,0.3735-0.9912,0.3735c1.1416,1.0693,1.9345,0.7214,1.9345,0.7214
			c-0.1436,0.3888-1.0869,0.2353-1.0869,0.2353c0.4375,0.3326,0.3896,0.5679,0.3896,0.5679
			c-0.2324-0.2251-0.6152-0.1126-1.4355-0.6446s-1.5517-0.3581-1.5517-0.3581c0.7998,0.8544-0.2939,1.3609-0.2939,1.3609
			c-0.4033,0.2302,0.1709,0.5423,0.1709,0.5423c-0.5058,0.0921-0.5742-0.4144-0.5742-0.4144
			c-0.2666-0.0512-0.6494,0.2712-0.6494,0.2712c0.0273-0.5219,0.7109-0.2609,0.7314-0.8033
			c0.0205-0.5423-0.6357-0.9619-2.5702-0.6958c-1.9345,0.266-2.5019-0.353-2.5019-0.353c-0.1641,0.0051-0.1982,0.1688-0.1982,0.1688
			c0.3213,0.307,0.4648,0.4349,0.4101,0.6498c-0.0547,0.2149,0.1025,0.2865,0.1025,0.2865
			c-0.3555-0.0205-0.3828-0.4451-0.3828-0.4451c-0.0068,0.174-0.082,0.1893-0.1982,0.3735s-0.0068,0.4195-0.0068,0.4195
			c-0.1504-0.133-0.4238-0.2916-0.1641-0.6702c0.2001-0.2916-0.417-0.6651-0.417-0.6651c-0.2393-0.2456-0.875-0.0153-0.875-0.0153
			c-1.3193,0.2609-2.0917-0.573-2.0917-0.573c-0.1504,0-0.4375-0.0819-0.4375-0.0819c-1.3945,0.6242-2.6181-0.7265-2.6181-0.7265
			c-1.0527,0.1995-1.5312-0.307-1.8525-0.8032c-0.3213-0.4963-0.3828-0.5372-0.8066-0.793c-0.4238-0.2558-0.82-0.9795-0.4306-1.3609
			c0.3395-0.3326,0.2392-0.4093,0.2392-0.4093c-0.5469-0.9192,0.9752-1.2156,1.0026-1.4356
			c0.0399-0.321,0.3577-0.5239,0.6995-0.5444c0.3418-0.0205,0.3418,0.0102,0.5674-0.22c0.2256-0.2302,0.6562,0.0563,0.6562,0.0563
			c0.0889-0.0665,0.8408-0.6498,1.5107-0.3479c0.6699,0.3019,1.2236,0.087,1.2236,0.087c0.4717-0.1023,4.3885-0.6344,4.3885-0.6344
			c0.2529-0.3786,0.4306-0.834,1.5107-1.0795s1.9003-0.9158,1.9003-0.9158c-0.1914-0.2047-0.5127-0.1944-0.6767-0.2149
			c-0.1641-0.0205-0.5058-0.3121-0.5058-0.3121c-0.1982,0.087-0.2998,0.0444-1.7158,0.9056
			c-1.2646,0.7691-1.3011-0.7571-1.3011-0.7571l-2.7593,0.0051c-0.0478,0.5833-0.4922,0.8135-0.4922,0.8135l-1.0048,0.0512
			c-0.5605-0.2967-0.5674-1.2842-0.5674-1.2842c-3.035,0.046-4.7235,1.1307-4.7235,1.1307c-3.4384-1.76-6.1316-2.1591-6.1316-2.1591
			c4.1766-0.4553,6.3845-1.6167,6.3845-1.6167c2.3036,1.3814,4.4705,1.4172,4.4705,1.4172c0.082-0.834,0.6426-1.0386,0.6426-1.0386
			L31.9766,33.3511z"/>
		<path class="st4" d="M27.0103,40.2817c-0.8727,0.5118-0.715,0.7913-0.639,0.9484c0.0775,0.1603,0.0866,0.3138-0.1504,0.5526
			s-0.2142,0.3217-0.2142,0.3217c0.0365,0.8482,0.6373,1.0284,0.8879,1.2365c0.2099,0.1742,0.5658,0.7202,0.5658,0.7202
			c0.4466,0.6412,0.9205,0.6481,1.2714,0.6481s0.3196-0.0298,0.1413-0.1876c-0.1678-0.1485-0.5195-0.4366-0.5195-0.4366
			c0.4694,0.1637,0.916,0.6549,0.916,0.6549c0.8868,0.9703,1.7044,0.8425,2.0644,0.7947c0.36-0.0477,0.2962-0.2558,0.2962-0.2558
			c-0.019-0.0346-0.3691-0.0614-0.3691-0.0614c-1.3307-0.1262-1.7317-0.9994-1.7317-0.9994
			c0.8021,0.7879,2.0598,0.9482,2.4472,0.9337c0.3874-0.0145,0.3646,0.0964,0.2825,0.1168c-0.082,0.0205-0.2005,0-0.3782-0.0136
			c-0.1777-0.0136-0.1777,0.0307-0.1367,0.1057s0.2085,0.0827,0.4204,0.075s0.041,0.0153,0.5913,0.4426
			c0.5503,0.4272,1.9208,0.0819,1.9208,0.0819c-0.8852-0.22-1.0083-0.6191-1.0083-0.6191
			c-1.2031,0.1407-1.6918-0.5807-1.6918-0.5807c-0.2153-0.2149-0.8581-0.5472-0.8581-0.5472
			c-0.68-0.2918-0.7859-0.9072-0.7859-0.9072c0.1914,0.2723,0.5639,0.5846,1.0356,0.7151s0.605,0.1995,0.605,0.1995
			c-0.2256,0.0333-0.3589-0.0409-0.3589-0.0409c-0.4717-0.1381-0.2051,0.0537-0.2051,0.0537
			c0.5195,0.4144,0.6631,0.3837,0.6631,0.3837c1.3637,0.1407,0.687-0.4042,0.687-0.4042c0.9707,0.2302,1.1313-0.133,1.1313-0.133
			c0.2017,0.4272,0.9365,0.2737,0.9365,0.2737c-0.9775,0.4707-0.2358,0.3362-0.2358,0.3362
			c0.9878-0.1853,1.1814,0.0662,1.1814,0.0662c0.2674,0.2487,0.5377,0.214,0.5377,0.214s0.1777,0.0051,0.5537,0.0804
			c0.376,0.0752,0.9502,0.3955,1.497,0.3278s0.6357,0.1039,0.6357,0.1039c-0.1025-0.0355-0.3418-0.072-0.7656,0.1173
			s-1.1552,0.2507-2.2216,0c-1.0664-0.2507-1.1484-0.22-1.1484-0.22c0.2529,0.1893,0.4785,0.4553,0.5263,0.6395
			c0.0478,0.1842,0.2324,0.1944,0.2324,0.1944c0.0752-0.2353,0.3965-0.3377,0.3965-0.3377
			c0.2104,0.1944,0.7724,0.4502,0.7724,0.4502c0.0615-0.1279,0-0.2174,0-0.2174c0.4101,0.3914,0.8886,0.2737,0.8886,0.2737
			c0.1298-0.0918,0.0889-0.3121,0.0889-0.3121c0.1641-0.0051,0.1914,0.0972,0.3076,0.174c0.1162,0.0767,0.4853,0.0256,0.4853,0.0256
			c-0.1367-0.0563-0.2324-0.266-0.2324-0.266c0.54-0.3735,1.7089-0.2098,1.7089-0.2098c0.8442,0.1484,0.7383,0.7009,0.7383,0.7009
			c0.1709,0.0819,0.3965,0.3377,0.3965,0.3377c0.0718-0.1944,0.0068-0.3914,0.0068-0.3914
			c0.3862,0.1842,0.4682,0.6344,0.4682,0.6344c0.4477-0.5116-0.4272-1.0872-0.4272-1.0872
			c0.4238-0.0537,0.8921-0.0154,1.1757,0.0256c0.2837,0.0409,0.6904,0.1893,1.0219,0.4656
			c0.3315,0.2763,0.9262,0.4042,0.9262,0.4042c-0.0182-0.1142-0.3349-0.307-0.4067-0.3479
			c-0.0718-0.0409-0.1025-0.1407-0.1025-0.1407c0.2905,0.0512,0.4922,0.0256,0.4922,0.0256
			c-1.0219-0.6242-1.2783-0.9209-1.2783-0.9209c0.3828,0.0486,0.5947-0.1893,0.5947-0.1893
			c-0.8066,0.0179-0.834-0.1919-0.834-0.1919c0.0991,0.0281,0.4648,0.1177,0.9467,0.023c0.4819-0.0947,1.1518,0.0026,1.1518,0.0026
			c-0.3486-0.5602-1.6987-0.4656-2.1293-0.4426c-0.4306,0.023-0.5981-0.0333-0.5981-0.0333
			c0.0684-0.0333,0.1401-0.1049,0.4785-0.1074c0.3384-0.0026,0.6699,0.0256,1.0527-0.2379c0.3828-0.2635,0.908-0.1765,0.908-0.1765
			c-0.1276-0.2524-0.7337-0.3411-1.2669,0s-1.0162,0.2319-1.0162,0.2319c0.8431-0.1194,1.0892-0.4161,1.0892-0.4161
			c-0.2552-0.0614-0.3965,0.0205-0.9023,0.1194c-0.5058,0.0989-0.6426-0.075-0.6426-0.075c0.556-0.3309,0.9433-0.4639,0.9433-0.4639
			c-0.4739-0.0989-0.9114-0.3012-0.9114-0.3012c-0.4922,0.4629-0.875,0.7241-1.8183,0.2295
			c-0.9433-0.4946-1.4355-0.4366-1.4355-0.4366c0.8294-0.4912,1.6816-0.2797,2.3013,0.0921
			c0.6198,0.3718,0.7975,0.0682,0.7975,0.0682c-0.196-0.1228-0.1686-0.2285-0.1686-0.2285
			c1.5038,0.7674,2.1555,0.2899,2.4882,0.0648c0.3327-0.2251-0.1504-0.5253-0.1504-0.5253
			c-0.0319,0.4878-0.6471,0.7095-1.1302,0.5457s-0.9297-0.3718-1.6246-0.6617c-0.695-0.2899-1.5654-0.1398-2.3765,0.0307
			c-0.8112,0.1705-0.916,0.0887-0.9889,0.0239c-0.0729-0.0648-0.1139-0.2626-0.5286-0.0921
			c-0.4147,0.1705-1.3808-0.2831-1.9823-0.4264c-0.6015-0.1433-1.5863-0.065-2.4381,0.4025s-1.2714,0.3513-1.5266,0.2353
			c-0.2552-0.116-0.4147-0.4366-0.1413-0.7231c0.2734-0.2865,0.2962-0.365,0.2734-0.7777
			c-0.0228-0.4127-0.4284-0.6583-0.4284-0.6583c0.3737-0.3854,0.4648-0.4707,0.3372-0.6378
			c-0.1276-0.1671,0.0729-0.1637,0.2871-0.2592c0.2142-0.0955,0.1185-0.1091,0.0684-0.2353s-0.1732-0.1057-0.1732-0.1057
			c-0.4967,0.0205-0.7702-0.116-0.7702-0.116c-0.8226-0.3786-1.5859,0.3581-1.5859,0.3581
			c-0.4673-0.358-0.5742-0.1262-0.6562-0.0375c-0.082,0.0887-0.2461,0.1501-0.4648,0.1705
			c-0.199,0.0186-0.4997,0.0965-0.6039,0.2824c0,0-0.0922,0.1494,0.0228,0.313c0,0,0.1277,0.1926-0.1047,0.4253
			c-0.2324,0.2328-0.3144,0.2891-0.2427,0.5091c0.0718,0.22,0.0513,0.3888-0.0376,0.5321c0,0-0.106-0.1228-0.0786-0.2737
			c0.0273-0.1509,0.0273-0.2379-0.0068-0.3198c0,0-0.229,0.2251-0.27,0.3863c0,0-0.0957-0.2481,0.2358-0.5807
			c0.3315-0.3326,0.4825-0.4982,0.3896-0.6267C27.3112,40.0943,27.0686,40.2475,27.0103,40.2817z"/>
		<path d="M27.9526,43.9485c0,0-0.4147-0.3172-0.3646-0.7572c0.0501-0.44,0.0417-0.4946-0.0042-0.5867
			c0,0-0.0756,0.0438-0.0733,0.2149c0.0022,0.1606-0.0206,0.3274-0.0365,0.3581c0,0-0.2142-0.365-0.3008-0.4332
			c0,0,0.0729-0.382-0.0456-0.5457c-0.1185-0.1637-0.2331-0.174-0.3691-0.1228c-0.1882,0.0708-0.3302,0.2456,0.302,0.764
			c0,0,0.2357,0.1876,0.3998,0.6037C27.6245,43.8599,27.8979,43.9247,27.9526,43.9485z"/>
		<path d="M30.0079,42.7309c0,0-0.0319-0.249,0.1914-0.689s0.0894-0.767,0.0393-0.8761s-0.0803-0.0687,0.145-0.2578
			c0.2772-0.2327-0.1068-0.5265,0.3489-0.9344c0,0,0.3008-0.2579,0.3691-0.3636c0,0-0.4831,0.2592-0.7975,0.3888
			s-1.5175,0.7197-1.2532,1.1153c0.2643,0.3957,0.237,0.4161,0.196,0.5798c0,0-0.7155-0.3786-0.4648-0.9925
			c0,0,0.1137-0.2474,0.4147-0.5253c0.2734-0.2524,0.1094,0.0546,0.6653-0.2626c0,0,0.442-0.2626,0.6745-0.6174
			c0,0-0.2917,0.1842-0.3965,0.2149c0,0-0.6426,0.116-0.9023,0.3888c-0.2598,0.2729-0.8112,0.747-0.6243,1.2757
			c0,0-0.6426-0.0784-0.7884-0.747c0,0-1.1894,1.4667,1.3079,2.1488C29.1329,42.5774,29.5886,42.6985,30.0079,42.7309z"/>
		<path class="st4" d="M40.9928,37.8276c0.9326-0.1411,6.3378-0.9578,6.8289-1.0077c0.5377-0.0546,0.7436-0.1264,0.9205,0.307
			c0.2005,0.4912-0.7383,0.498-0.7383,0.498l-6.4438,0.7306c-0.3161,0.0365-0.3868-0.0841-0.3868-0.0841
			c-0.0558-0.103-0.1635-0.24-0.2379-0.3298C40.9355,37.9415,40.8506,37.8491,40.9928,37.8276z"/>
		<path class="st5" d="M27.7931,40.7594c0,0-0.6972,1.4684,2.0439,1.8316c0,0,0.0068-0.1637,0.1162-0.394
			s0.3486-0.6958,0.123-0.9977c-0.2256-0.3019,0.1846-0.1433,0.2461-0.5372s-0.041-0.3377,0.1504-0.5935
			c0,0-0.8613,0.3121-1.1894,0.6907s0.4443,0.6651-0.0137,1.0795c0,0-0.3828-0.1381-0.6084-0.5526
			C28.6612,41.2864,28.1281,41.2966,27.7931,40.7594z"/>
		<path d="M30.4727,42.5629c0,0,0.6767,0.5858,1.4833,0.5602c0.8066-0.0256,1.1484-0.2405,1.3535-0.5602
			c0,0,0.1568,0.2478,0.1572,0.4119c0,0,0.6972-0.5781,1.9003-0.0767s0.834,0.3636,1.1005,0.3993c0,0-0.5115-0.091-1.6816,0.4449
			C33.5829,44.2932,30.4454,44.1054,30.4727,42.5629z"/>
		<path class="st5" d="M29.3516,39.9715c0,0,0.3042,0.046,0.6084-0.2967C29.96,39.6748,29.5499,39.7515,29.3516,39.9715z"/>
		<path class="st5" d="M27.053,42.6985c0,0-0.5655-0.4451-0.2032-0.5321C26.8498,42.1664,27.1077,42.1255,27.053,42.6985z"/>
		<path d="M39.3659,45.4821c0,0,0.3008-0.5376,1.1689-0.5376c0.8681,0,0.9707,0.3991,2.0644,0.4758c0,0-1.3133,0.3701-2.2284,0.0307
			C39.8923,45.2736,39.4616,45.421,39.3659,45.4821z"/>
		<path class="st5" d="M30.7735,42.9543c0,0,1.2988,0.7879,2.454-0.0665c0,0,0.0957,0.0921,0.1777,0.3019
			c0,0,0.875-0.8443,2.4403,0.0664c0,0-0.1924-0.0213-0.9297,0.2968C33.9555,43.9673,31.5527,44.2385,30.7735,42.9543z"/>
		<path d="M35.784,43.7524c0,0,1.2441,0.1442,2.2968,0.0819c0.6468-0.0383,1.3466-0.1567,0.998,0.0624s-0.1777,0.2395,1.3125,0.1014
			c1.4902-0.1381-0.0137,0.2814,1.0117,0.4144C41.403,44.4124,38.9178,45.6812,35.784,43.7524z"/>
		<path class="st5" d="M39.0515,42.9594c0,0,0.7314-0.266,1.4082,0.0512c0.6767,0.3172,0.5742,0.3428,1.0254,0.3888
			c0,0-0.3144,0.4502-1.0595,0.087C39.6804,43.1231,39.483,43.053,39.0515,42.9594z"/>
		<path class="st5" d="M39.8649,45.2054c0,0,0.7176-0.358,1.511,0.0142c0.0993,0.0466,0.3157,0.1364,0.5192,0.1802
			c0,0-0.6079,0.1884-1.2304-0.0051C40.4058,45.3143,40.1999,45.2515,39.8649,45.2054z"/>
		<path class="st5" d="M36.3172,43.9213c0,0,1.5996,0.1484,2.4677-0.0246c0,0-1.0048,0.4851,1.5175,0.26
			c0,0,0.5605-0.0614,0.4922,0.0256c-0.0684,0.087-0.1094,0.1535,0.1641,0.2353C40.9587,44.4175,39.0857,45.2566,36.3172,43.9213z"
			/>
		<path d="M28.3263,42.5629c0,0,0.0137,0.1228,0.3691,0.2814c0.3555,0.1586,0.5469,0.4426,0.622,0.596
			c0.0752,0.1535,0.2563,0.3831,0.5503,0.4563c0,0-1.254,0.2618-1.816-0.3906c0,0-0.4261-0.4699,0.2609-0.9432"/>
		<path class="st5" d="M38.197,45.4561c0,0-0.499-0.0307-1.1757-0.266c-0.6767-0.2353-0.8545-0.0358-1.2373-0.3223
			c-0.3828-0.2865-1.1552-0.1074-1.2988-0.087c-0.1435,0.0205-0.5537,0-0.041-0.3326c0,0-0.4101-0.0102-0.5674-0.2149
			c0,0-0.1846,0.1791-0.875,0.1126c0,0,0.3076,0.4831-0.9297,0.3439c0,0,0.3691,0.4287,0.8134,0.5156s0.6296,0.0582,0.916-0.0256
			c0,0-0.082,0.3735,0.4922,0.5167c0.5742,0.1433,0.6904,0.2558,0.9843,0.3735c0,0,0.041-0.2405-0.7246-0.7981
			c0,0,0.4101-0.0205,0.998,0.1228C36.1395,45.538,37.4725,45.8808,38.197,45.4561z"/>
		<path class="st5" d="M38.5069,46.0292c0,0,0.123,0.2865,0.5013,0.2217c0.3782-0.0648,1.0003-0.1757,1.6018,0.1313
			c0,0,0.1025-0.5116-1.1051-0.5474C39.5049,45.8347,38.7484,45.8757,38.5069,46.0292z"/>
		<path class="st5" d="M28.2807,42.7445c0,0-0.4648,0.382-0.0433,0.7794c0.3851,0.3631,0.9798,0.3308,1.2646,0.3206
			c0,0-0.1709-0.0972-0.3213-0.3223c-0.1504-0.2251-0.1555-0.3773-0.4717-0.5219C28.381,42.8503,28.3422,42.811,28.2807,42.7445z"/>
		<path class="st5" d="M27.7931,40.7594c0,0-0.6972,1.4684,2.0439,1.8316c0,0,0.0068-0.1637,0.1162-0.394
			s0.3486-0.6958,0.123-0.9977c-0.2256-0.3019,0.1846-0.1433,0.2461-0.5372s-0.041-0.3377,0.1504-0.5935
			c0,0-0.8613,0.3121-1.1894,0.6907s0.4443,0.6651-0.0137,1.0795c0,0-0.3828-0.1381-0.6084-0.5526
			C28.6612,41.2864,28.1281,41.2966,27.7931,40.7594z"/>
		<path d="M34.9979,44.1464c0,0,0.5742-0.0921,2.037,0.4553c1.4628,0.5474,2.0712,0.4093,2.29,0.394
			c0,0-0.8251,0.4311-2.1031-0.1316C36.0916,44.3664,36.0164,44.5557,34.9979,44.1464z"/>
		<path class="st4" d="M44.1555,43.8189c0,0,0.3339-0.0114,0.5286,0.0802c0,0,0.1276-0.1091,0.4329-0.1415
			C45.117,43.7575,44.9165,43.5563,44.1555,43.8189z"/>
		<path class="st4" d="M43.1552,43.0089c0,0,0.3349-0.0154,0.4352-0.1757c0,0-0.1686-0.2149-0.4261-0.3172
			C43.1643,42.516,43.2167,42.7446,43.1552,43.0089z"/>
		<path class="st4" d="M42.8567,42.7087"/>
		<path class="st4" d="M31.915,39.2706c0,0-0.0615-0.1637,0.2871-0.2149c0.3486-0.0512,4.9057-0.7009,4.9057-0.7009
			s0.2415-0.0003,0.2757,0.1586c0.0369,0.1718-0.0273,0.3004-1.1279,0.429c-1.1005,0.1286-4.0057,0.4919-4.0057,0.4919
			S31.9424,39.4855,31.915,39.2706z"/>
		<path class="st4" d="M36.3605,39.0745c0,0,0,0.6446,0.6562,0.7402c0.6367,0.0927,0.8555-0.0397,1.0254-0.375
			c0.0446-0.088,0.2399-0.7612-0.0428-0.8125c-0.1112-0.0202-0.3083-0.0086-0.4493,0.0516
			c-0.2196,0.0938-0.4233,0.2038-0.3509,0.3138c0.1549,0.2353,0.1852,0.2899,0.1276,0.307
			c-0.1575,0.0467-0.2732-0.0917-0.3053-0.1876c-0.04-0.1195,0.0868-0.1964-0.3418-0.133
			C36.5045,39.0048,36.3605,38.9994,36.3605,39.0745z"/>
		<path class="st4" d="M39.0902,38.5789c0.3353,0.0387,0.3099,0.748-0.0911,1.0686c-0.4318,0.3453-0.8439,0.2217-0.8439,0.2217
			c-0.2179-0.0921-0.1906-0.0614-0.0219-0.3172c0.1596-0.2422,0.2349-0.5681,0.1458-0.7947
			c-0.0285-0.0725,0.0501-0.1313,0.1614-0.1552C38.4405,38.602,38.7439,38.539,39.0902,38.5789z"/>
		<path class="st4" d="M39.3819,38.6413c0,0,0.2392,0.3011-0.0594,0.8561c0,0-0.132,0.1637,0.1642,0.1398
			c0.2962-0.0239,0.957-0.3411,0.8886-0.747c0,0-0.0228-0.0989-0.196-0.0887c-0.1732,0.0102-0.0319-0.0955,0.041-0.116
			s0.2985-0.104-0.2871-0.4809c0,0-0.0966-0.087-0.2096-0.0512c-0.0892,0.0283-0.4012,0.1562-0.4012,0.3377
			C39.3225,38.5657,39.3819,38.6413,39.3819,38.6413z"/>
		<path class="st4" d="M40.0222,38.1314c0,0,0.4671,0.3348,0.4648,0.4343c-0.0023,0.0995-0.0433,0.2342,0.0798,0.2223
			c0.123-0.0119,0.6289-0.1194,0.4899-0.4536c-0.139-0.3343-0.278-0.4519-0.5127-0.5338c-0.2347-0.0819-0.2939,0.029-0.4944,0.1808
			C40.0495,37.9813,39.9037,38.07,40.0222,38.1314z"/>
		<path class="st4" d="M39.7966,37.8261"/>
		<path class="st4" d="M37.4952,38.6038c0,0,0.0775-0.249-0.3418-0.3411c0,0,0.1777-0.1467,0.5332-0.0682
			c0.3531,0.0779,0.3154,0.3104,0.3126,0.3411C37.9993,38.5356,37.7231,38.5253,37.4952,38.6038z"/>
		<path class="st4" d="M38.4067,38.5458c0,0,0.4857-0.0851,0.7018-0.058c0,0-0.2393-0.5355-0.8864-0.353
			C38.2221,38.1348,38.4545,38.3974,38.4067,38.5458z"/>
		<path class="st4" d="M39.2383,38.4128c0,0,0-0.1637,0.4124-0.3274c0,0-0.2002-0.1884-0.4785-0.1705
			c-0.319,0.0205-0.3828,0.1364-0.3828,0.1364S39.1358,38.1714,39.2383,38.4128z"/>
		<path class="st4" d="M39.4001,37.8534c0,0,0.2552,0.0648,0.4147,0.2012c0,0,0.242-0.2641,0.4466-0.3206
			C40.2614,37.734,39.8604,37.5191,39.4001,37.8534z"/>
		<path class="st5" d="M25.9817,36.5641c0,0,1.126-0.954,1.7568-0.8391c0.6308,0.1149,0.3144,0.0358,1.0048-0.0716
			s1.4013-0.1791,1.6884-0.1433c0,0-0.834-0.5986-2.3241-0.5884c0,0-1.0527,0.3633-1.7773,0.8442c0,0-1.3945-0.7777-2.8368-0.3121
			C23.4935,35.4539,25.0588,36.0218,25.9817,36.5641z"/>
		<path class="st4" d="M37.9544,38.2166l0.188-0.0315c0,0,0.3172,0.3928,0.0867,0.3974c-0.1802,0.0035-0.1072-0.0555-0.1414-0.1697
			C38.0535,38.2985,37.992,38.2473,37.9544,38.2166z"/>
		<path class="st4" d="M36.5394,38.2473c0,0-0.1128,0.1402,0.0991,0.1074c0.2582-0.04,0.2085,0.0086,0.4922-0.1834
			c0,0,0.1743-0.185,0.499-0.0699c0,0,0.2734,0.0896,0.4956-0.0179s0.2734-0.0998,0.3931-0.0895
			c0.1196,0.0102,0.1117,0.036,0.2712-0.0805c0.1595-0.1165,0.4363-0.0269,0.6107-0.1728s0.3931-0.023,0-0.3044
			c0,0-0.082-0.0819-0.0752-0.1509c0,0,0.1504,0.0435,0.27,0.1509s0.3179,0.0742,0.352,0.0563c0,0,0.0205-0.3505,0.3691-0.6728
			c0.3486-0.3223,0.352-0.3479,0.147-0.3505c-0.2051-0.0026-0.5503-0.0819-0.6665,0s-1.1381,0.7521-1.7328,0.8646
			C37.469,37.4467,36.9222,37.6155,36.5394,38.2473z"/>
		<path class="st4" d="M20.6703,34.5807c0,0,1.8251,0.4707,2.2353,0.6685c0,0,0.098-0.3053-0.7314-0.544
			c0,0,2.0142-0.0614,4.147,0.9073c0,0,1.028-0.8815,4.3365-0.6087c0,0,0.0065-0.2922,0.0293-0.5169
			c0,0-2.3241-0.0682-4.4569-1.3643C26.23,33.1226,24.3206,34.0623,20.6703,34.5807z"/>
		<path class="st5" d="M28.7296,36.2725"/>
		<path class="st4" d="M30.8145,35.4624c-0.1276-1.8657,0.5879-2.0329,0.5879-2.0329s0.337,0.0019,0.7018,0.058
			c0,0-0.5651,0.6719-0.4147,2.0056c0,0,0.0592,0.2149-0.4193,0.2149C30.7992,35.708,30.8145,35.4624,30.8145,35.4624z"/>
		<path class="st5" d="M31.3021,36.6971c0,0-0.3464-0.3547-0.3828-0.764c0,0-0.0091-0.1057,0.3418-0.0955
			c0.3509,0.0102,0.3967-0.0337,0.4831,0.1705c0.084,0.1985,0.3053,0.6174,0.36,0.6651L31.3021,36.6971z"/>
		<path class="st4" d="M32.0515,35.7657c-0.0318-0.2441-0.0441-0.4524-0.0385-0.7092c0.0228-1.0403,0.1955-0.9478,0.2638-0.8182
			l0.3559,0.0064c0,0-0.2598-1.1733-0.5651-0.4878c-0.2999,0.6735-0.278,1.1119-0.2415,1.644
			c0.021,0.3064,0.0614,0.4972,0.0957,0.612L32.0515,35.7657z"/>
		<path class="st5" d="M36.0711,35.7685c0,0,0.687,0.1049-0.3657,0.3556c0,0,0.0513,1.272,1.2954,0.3812
			c0,0,0.7348-0.4698,1.2441-0.6608c0,0,0.2563-0.0887,0.2256-0.2805c0,0,0.0205-0.226-0.2461-0.1816c0,0-0.21,0.005-0.3452-0.0443
			c0,0-0.147-0.1731-0.2461-0.1066c-0.0991,0.0665-0.3315,0.0281-0.1504,0.2481s0.2358,0.1637,0.3247,0.0998
			s0.4819-0.22,0.1196,0.1049s-0.646-0.1791-0.7622-0.2712L36.0711,35.7685z"/>
		<path class="st5" d="M32.6328,35.9126l-0.3053-0.0068c0,0-0.1641,0.2456-0.276-0.1401l-0.1296,0.2473
			C31.9219,36.013,32.3002,37.3788,32.6328,35.9126z"/>
		<path class="st4" d="M32.1999,34.3368c0,0-0.1549,0.8936,0.041,1.4462l3.3039,0.0614c0,0-0.041-0.6412,0.0091-1.5076h-0.4694
			c0,0-0.0638,0.7197-0.0046,1.1631l-0.0774,0.0015c0,0-0.0593-0.6223,0.0045-1.1646h-0.3874c0,0-0.0638,0.6651-0.0137,1.1699
			h-0.0729c0,0-0.0547-0.5833,0.0091-1.1699h-0.3828c0,0-0.0703,0.6024,0.0049,1.1616l-0.0914-0.0019
			c0,0-0.0775-0.6105,0.0046-1.1597h-0.4238c0,0-0.1048,0.5628-0.0046,1.1665h-0.0866c0,0-0.0957-0.5764,0.0091-1.1665h-0.4238
			c0,0-0.1003,0.6378-0.0137,1.1665h-0.082c0,0-0.0684-0.6174,0.0228-1.1665h-0.3965c0,0-0.1048,0.5389-0.0182,1.1665h-0.0866
			c0,0-0.0638-0.4673,0.0182-1.1665H32.1999z"/>
		<path class="st4" d="M35.6906,35.9672c0,0-0.0914-1.6169,0.2187-2.0329s0.3737-0.3343,0.9023,0
			c0.5286,0.3343,1.2122,0.6958,1.3216,0.7367c0.1094,0.0409,0.2643,0.0819,0.2643,0.3752s0.0547,0.382-0.401,0.0136
			c-0.0683-0.0552-0.2814-0.2502-0.4352-0.2993c-0.4083-0.1303,0.0981,0.0914,0.2438,0.2993
			c0.1234,0.1761,0.2187,0.1569-0.1003,0.2388S36.283,35.7489,35.6906,35.9672z"/>
		<path d="M36.847,34.8097c0,0-0.2393-0.3023,0.0649-0.3714c0.3042-0.0691,0.3281,0.4784,0.3794,0.8084
			C37.3426,35.5767,36.9085,34.9131,36.847,34.8097z"/>
		<path d="M36.4027,36.2188c0,0-0.3555,0.1305-0.123,0.2456c0.2324,0.1151,0.8886-0.4298,0.6631-0.394
			C36.7171,36.1062,36.4027,36.2188,36.4027,36.2188z"/>
		<path d="M36.8846,35.7199c0,0,0.3144-0.0307,0.2529,0.1049c-0.0615,0.1356-0.1743,0.0495-0.2222,0.0196
			C36.8675,35.8146,36.6453,35.7378,36.8846,35.7199z"/>
		<path class="st4" d="M38.5593,35.297c0,0,0.0843,0.6157,0.6129,0.7717c0,0,0.3053,0.0759,0.2415-0.1936
			c0,0-0.0524-0.2251-0.0957-0.3189s-0.2552-0.1535-0.278-0.1637c-0.0228-0.0102-0.0501-0.075,0.0957-0.0273
			s0.1686,0.0529,0.1572-0.0495c-0.0114-0.1023-0.0972-0.0612-0.2311-0.1266c-0.0515-0.0252,0.0055-0.0593,0.0602-0.0473
			c0.0547,0.0119,0.1846,0.0512,0.1868-0.1603c0,0,0.0289-0.1176-0.1322-0.1262c-0.1754-0.0094-0.1618-0.0878-0.1071-0.0998
			c0.0547-0.0119,0.2384,0.1154,0.2894-0.0938c0.0524-0.2149-0.2529-0.0912-0.2119-0.2021c0.041-0.1109,0.2574,0.0633,0.2754-0.0682
			c0.0174-0.1279,0.1922-0.1836-0.1054-0.2249c-0.1413-0.0196-0.0107-0.0822,0.1479-0.0599
			c0.1698,0.0239,0.2723-0.1859,0.3703-0.2541c0.098-0.0682,0.6518-0.399-0.0866-0.2899s-0.9547,0.4673-1.0026,0.5389
			C38.6983,34.1731,38.4932,34.5961,38.5593,35.297z"/>
		<path class="st4" d="M40.2793,35.7741c0.0949-0.0183,0.1845,0.0075,0.2168,0.0737c0.1215,0.2494-0.1572,0.1603-0.3122,0.3445
			c-0.1549,0.1842-0.1595,0.1467-0.3782,0.0822s-0.3008-0.396-0.3008-0.396c-0.0245-0.1018,0.0701-0.1104,0.1834-0.0974
			C39.6883,35.7811,40.0511,35.818,40.2793,35.7741z"/>
		<path class="st4" d="M39.4799,35.6415c0,0,0.0154,0.0746,0.1407,0.0848c0.1253,0.0102,0.4893,0.0418,0.7058-0.0281
			c0,0,0.0798-0.0158,0.044-0.1567c0,0-0.0029-0.0915-0.1978-0.0544s-0.4768,0-0.5708-0.0205S39.4314,35.4684,39.4799,35.6415z"/>
		<path class="st4" d="M39.4502,35.1947c0,0-0.0068,0.1944,0.1891,0.22s0.4399,0.0246,0.5415,0.0045
			c0.0775-0.0154,0.2172-0.0437,0.2286-0.158c0.0114-0.1143,0.0433-0.1995-0.1982-0.1398
			c-0.2415,0.0597-0.5332,0.0205-0.5628,0.0136S39.4548,35.0787,39.4502,35.1947z"/>
		<path class="st4" d="M39.5391,34.8024c0,0-0.0478,0.0887-0.041,0.174c0.0068,0.0853,0.1481,0.1143,0.4033,0.1177
			c0.2552,0.0034,0.4831-0.0341,0.499-0.1194s0.0775-0.1842-0.123-0.1535c-0.2005,0.0307-0.4534,0.0392-0.5537-0.0017
			C39.6234,34.7785,39.556,34.7644,39.5391,34.8024z"/>
		<path class="st5" d="M48.9086,35.7915c0,0-0.0034,0.1778,0.1367,0.353l-7.0835-0.2034c0,0,0.1035-0.064,0.1299-0.3399
			L48.9086,35.7915z"/>
		<path class="st4" d="M39.5961,34.5091c0,0-0.0615,0.1791,0.0661,0.2149c0.1276,0.0358,0.3463,0.075,0.6357,0.029
			c0,0,0.1458,0.0102,0.196-0.145s0.045-0.0682-0.3671-0.1501c0,0-0.1298-0.0378,0.2464-0.0392c0,0,0.2096,0.0068,0.2415-0.029
			c0.0319-0.0358,0.3099-0.2558-0.0501-0.2422c-0.36,0.0136-0.1823-0.0631,0-0.0631c0.1823,0,0.2392,0.0375,0.2985-0.0205
			s0.0046-0.0188-0.0934-0.1177c-0.098-0.0989-0.0296-0.0699,0.041-0.0153c0.0706,0.0546,0.1139,0.0716,0.1937,0.0017
			s-0.0615-0.1722,0-0.1603c0.0615,0.0119,0.0911,0.1288,0.3236,0.0162s0.5469-0.0537,0.6323,0.0102s0.3281,0.1458,0.4751-0.0051
			c0.147-0.1509-0.1743-0.2737-0.0376-0.2942c0.1367-0.0205,0.2324,0.0281,0.2871-0.0819c0.0547-0.11-0.2119-0.2149,0.0444-0.284
			c0.2563-0.0691,0.041-0.7879-0.0479-0.8544c0,0-0.2871,0.1688-0.6015,0.6779c-0.3144,0.5091-0.499,0.8058-0.9262,0.6498
			c-0.6164-0.2251-0.9313,0.0985-1.0268,0.1569c-0.1478,0.0904,0.309,0.1347,0.0424,0.1398
			c-0.2666,0.0051-0.2666,0.0281-0.2939,0.0691c-0.0273,0.0409-0.0034,0.0767,0.0444,0.0793
			c0.0479,0.0026,0.1504,0.1049-0.0137,0.0998c-0.1641-0.0051-0.2803-0.0307-0.232,0.1436c0,0,0.003,0.038,0.0987,0.0483
			c0.0957,0.0102,0.1299,0.11-0.0479,0.11C39.6107,34.4537,39.5994,34.4978,39.5961,34.5091z"/>
		<path class="st4" d="M40.2512,36.2853c0,0-0.1265,0.0895,0.0479,0.0998c0.1743,0.0102,0.2666,0.0435,0.3213-0.0499
			c0.0547-0.0934,0.2905-0.055,0.1333-0.1855C40.5964,36.0192,40.4904,36.0934,40.2512,36.2853z"/>
		<path class="st4" d="M40.9826,34.1544c0,0,0.5898-0.5551,1.0827-0.1791c0.4929,0.376,0.5408,0.4323,0.5476,0.44
			s0.0581,0.0486-0.0752,0.1663c-0.1333,0.1177-0.0034,0.1151,0.1435,0.0435c0.147-0.0716,0.1572-0.0051,0.229,0.0742
			c0.0718,0.0793,0.1677,0.1253-0.0597,0.1279s-0.7162,0-0.7162,0s-0.3315,0.0281-0.1641-0.1074s0.1436-0.2967,0.0581-0.307
			c-0.0854-0.0102-0.0068,0.0819-0.0581,0.1458c-0.0513,0.064-0.1675,0.1228-0.2837,0.1202
			c-0.1162-0.0026-0.2187,0.0841-0.0342,0.1508c0.1846,0.0666-0.0205,0.1103-0.1162,0.1077s-0.5571,0.0357-0.0889,0.092
			c0.4682,0.0563-0.0423,0.0428,0.3008,0.2387c0.3794,0.2167,0.106,0.6771-0.0376,0.7181c0,0-0.1572,0.0855,0.041,0.0619
			c0.1982-0.0236,0.3076-0.0517,0.1675,0.0557c-0.1401,0.1074-0.4204,0.4656-0.81,0.1919c0,0-0.1777-0.0844,0.1401-0.0998
			s-0.2598-0.0833-0.3555-0.1478c-0.0957-0.0645-0.4614-0.438-0.2324-0.3919c0.229,0.046,0.147-0.087,0.0103-0.1356
			c-0.1367-0.0486-0.1641-0.2584-0.0103-0.2123c0.1538,0.046,0.3349,0.1318,0.458,0.126s0.0889-0.0569-0.1743-0.1388
			c-0.2632-0.0819-0.3725-0.0947-0.311-0.3172c0.0615-0.2226,0.3486,0.087,0.2803-0.0793s-0.3179-0.0844-0.1846-0.3044
			c0.1333-0.22,0.1641-0.1253,0.2256-0.0972c0.0615,0.0281,0.16,0.0072-0.0137-0.1228
			C40.8322,34.2925,40.9515,34.1815,40.9826,34.1544z"/>
		<path d="M41.4064,34.3078c0,0-0.0034-0.0742,0.1025-0.0614s0.0786-0.0384,0.1094-0.0537c0.0308-0.0153,0.2959,0.079,0.0479,0.1688
			C41.5744,34.3948,41.4303,34.371,41.4064,34.3078z"/>
		<path class="st4" d="M41.9703,34.9372c0,0-0.1993,0.1015-0.0188,0.3107c0.1538,0.1783,0.153,0.2348,0.1401,0.3534
			c-0.0129,0.1186,6.8169,0.1902,6.8169,0.1902s-0.012-0.4387,0.2803-0.6856C49.1888,35.106,45.4565,35.019,41.9703,34.9372z"/>
		<path class="st5" d="M49.0248,35.6713c0,0,0.0277-0.3701,0.2324-0.4927c0.1128-0.0676,0.2616-0.0282,0.3265,0.2701
			c0.0924,0.4244-0.2673,0.7853-0.4342,0.6241C48.9906,35.9195,49.0248,35.6713,49.0248,35.6713z"/>
		<path class="st6" d="M41.1979,37.2676c0,0,0.4546-0.3863,0.5229-0.5602c0,0,1.2304,0.8716,1.1552,0.0713
			c0,0,0.0034-0.2145,0.0376-0.4192c0,0,0.4448,0.0437,0.5127-0.3115l-1.1484-0.0338c0,0-0.1196-0.0256-0.2974,0.1663
			c-0.1777,0.1919-0.5434,0.4018-0.8852,0.2188c0,0-0.1431-0.1242-0.2886-0.0193s-0.1523,0.1356-0.0327,0.2481
			S41.1501,37.086,41.1979,37.2676z"/>
		<path class="st6" d="M43.8399,34.8604l-0.6733-0.0256c0,0-0.2461-0.3453-0.7246-0.7291c0,0-0.1401-0.0614,0.1299-0.2763
			c0.27-0.2149,0.3486-0.4451,0.3589-0.55c0.0103-0.1049-0.0171-0.2686,0.0854-0.1433s0.7998,0.7546,0.8989,0.5679
			c0.0991-0.1867,0.1162-0.2737,0.1333-0.33c0.0171-0.0563,0.041-0.2302,0.1401-0.0486s0.1672,0.1353,0.1709,0.6063
			c0,0,0.0171,0.4656,0.0889,0.6344C44.4483,34.5662,43.5665,34.2838,43.8399,34.8604z"/>
		<path class="st6" d="M40.9176,33.4278c0,0,0.5127,0.2865,0.7656-0.1023c0.2529-0.3888,0.4238-0.4502,0.2324-0.8237
			c-0.1914-0.3735,0.0053-0.5474,0.1496-0.7009c0.1443-0.1535,0.2673-0.1279,0.2879-0.7214
			c0.0205-0.5935,0.4306-0.793,0.6152-0.9772c0.1846-0.1842,0.6494-0.4656-0.0547-0.5833s-2.0986-0.4809-2.4608-1.0232
			c-0.3623-0.5423-0.5263-0.22-0.5332-0.1995c-0.0068,0.0205-0.123,0.4195,0.2393,1.1409c0.3623,0.7214,0.6699,1.1853,1.0185,1.4189
			c0.3486,0.2336,0.6631,0.3616,0.4853,0.8425S41.1774,33.039,40.9176,33.4278z"/>
		<path class="st5" d="M42.8111,31.893c0,0,0.0889,1.233,0.9912,1.673c0,0,0.2051-0.4809,0.123-0.9567
			c0,0,0.2939,0.0256,0.376,0.1586c0,0,0.0137-0.3581-0.4101-0.4886c-0.4238-0.1305-0.2187-0.9337-0.0684-1.0258
			c0.1504-0.0921,0.1025-0.2524,0-0.3974s-0.1299-0.365,0.2256-0.2729c0.3555,0.0921,0.3008-0.0972,0.0889-0.2712
			s-0.2051-0.3888,0.0957-0.3888s0.7998-0.2916,0.499-0.3837s-0.3965-0.1893,0.0137-0.307s0.6084-0.266,0.3008-0.3019
			c-0.3076-0.0358-0.5127-0.1433-0.2119-0.1944s-0.0547-0.3581-0.4033-0.3735s-1.1005,0.1279-0.5058-0.3479
			c0.5947-0.4758-0.8545-0.1279-0.2598-0.44c0.5947-0.3121-0.1982-0.174-0.3076-0.1791s-0.1082,0-0.0678-0.1586
			c0.0404-0.1586-0.0826-0.2302-0.2535-0.133s-0.1709,0.0972-0.1641-0.1228c0.0068-0.22-0.2051-0.0563-0.3349,0
			c-0.1299,0.0563-0.458,0.3019-0.5879,0.1688s-0.2051-0.2712-0.6084-0.0256c-0.4033,0.2456-0.3076,0.0256-0.3008-0.0819
			s0.1572-0.5321-0.3965-0.0767c-0.5537,0.4553-0.1025-0.4912-0.54-0.1688c-0.4375,0.3223-0.4853,0.3786-0.5537,0.2353
			c-0.0684-0.1433-0.1512-0.2609-0.6327,0.046c-0.4815,0.307-0.1261-0.1842-0.0577-0.2916
			c0.0684-0.1074,0.2734-0.8032-0.1504-0.2609c0,0-0.2051,0.3786-0.6631-0.2967c0,0-0.4853,0.6709-0.6084,0.3738
			c-0.123-0.2971-0.2461-0.3278-0.4033-0.1333c-0.1572,0.1944-0.041-0.0102-0.1094-0.174c-0.0684-0.1637-0.1094-0.4656-0.916,0.1228
			c-0.8066,0.5884,0.2803,0.1586-0.3349,0.4246s-2.0986,1.1051-0.7383,0.9107s-0.6631,0.5321-0.1914,0.6651
			c0.4717,0.133,0.3213,0.5423,2.0917,0.0563c1.7704-0.486,1.4833-0.0767,2.3857-0.4656c0.9023-0.3888-0.2051,0.133,1.0048,0.1074
			c1.2099-0.0256,0.2051,0.0051,0.4375,0.2558c0.2324,0.2507,1.2578,0.8442,2.2148,0.9414c0.957,0.0972,1.1894-0.2609,0.916,0.1535
			c-0.2734,0.4144-0.3691,0.573-0.5332,0.7163c-0.1641,0.1433-0.6152,0.4707-0.622,1.0437s-0.7519,0.6651-0.4785,1.2995
			C42.1617,32.5274,42.5855,32.1181,42.8111,31.893z"/>
		<path class="st5" d="M44.3856,33.2727c0,0-0.2187-0.1535-0.2142-0.4264c0,0,0.1549,0.0273,0.2142,0.1262
			c0,0,0.5513-0.6242-0.1071-0.8493c-0.6585-0.2251-0.3305-0.822-0.1071-0.8254c0.2234-0.0034,0.2622-0.0648,0.0742-0.3138
			s-0.1743-0.2592,0.1993-0.324c0.3737-0.0648,0.3229-0.1433,0.1569-0.2353c-0.166-0.0921-0.2933-0.2422-0.2933-0.2422
			s1.0569-0.4605,0.7151-0.6719s0-0.1569,0.3053-0.3752c0.3053-0.2183,0.3463-0.2592,0.3919-0.3445c0,0-0.3017,0.0307-0.5246-0.0136
			c0,0,0.2638-0.1296,0-0.3445s-0.3732-0.4093-0.7924-0.3104c-0.4193,0.0989-0.2825-0.0409-0.1185-0.2149
			c0.1641-0.174,0.0866-0.2729-0.2096-0.3172c0,0,0.0365-0.1774,0.2598-0.3991c0,0-0.5696,0.0409-0.761-0.058
			c0,0,0.2279-0.1569,0.2461-0.3445c0,0-0.3144,0.1023-0.7109,0.0648c0,0,0.2324-0.2012,0.2324-0.3786
			c0,0-0.6881,0.1535-1.0071,0.3957c0,0-0.0684-0.0136-0.123-0.0887c-0.0547-0.075-0.0957-0.1501-0.8567,0.0921
			c0,0,0.0866-0.3377,0.2689-0.4741s0.1549-0.4093-1.0299,0.3309c0,0-0.1595-0.0955-0.2917-0.4502c0,0-0.2552,0.3615-0.4512,0.4843
			c0,0-0.1641,0.0689-0.1436-0.1617c0.0205-0.2305-0.1162-0.0662-0.2393,0c-0.123,0.0662-0.2051,0.2299-0.1435-0.2357
			c0.0615-0.4656-0.1641-0.5628-0.1641-0.5628s-0.3691,0.5219-0.581,0.5781c0,0-0.3896-0.3786-0.5263-0.6293
			c-0.1367-0.2507-0.1367-0.3428-0.2734,0.0921c-0.1367,0.4349-0.3076,0.4707-0.3076,0.4707s-0.2324-0.1995-0.2598-0.307
			c0,0-0.041,0.1177-0.1162,0.1688c0,0-0.2051-0.2405-0.1982-0.5884c0,0-1.2714,0.7009-1.4287,1.1256
			c0,0-1.2031-0.0716-1.7021,0.0205c0,0,0.123-0.3888,0.4375-0.5833c0,0-0.3144-0.0358-0.3281-0.3581
			c0,0,0.2529,0.0358,0.4101-0.0051c0.1572-0.0409-0.2187-0.4963,0.1777-0.5065c0.3965-0.0102,0.6494,0.1893,0.4717-0.3377
			c-0.1777-0.527-0.0957-0.527-0.0957-0.527s0.6904,0.4093,0.7998,0.307s-0.0889-0.3223,0.5263-0.22
			c0.6152,0.1023,0.4443-0.2507,0.6836-0.266c0.2393-0.0153,0.3691,0.1535,0.2187-0.9619s0.7451,0.5526,0.1367-1.1307
			c0,0-0.1538-0.5091-0.5195-0.7265c0,0-0.082,0.3684-0.4956,0.0435c-0.4136-0.3249-1.227-0.44-0.8852-0.6958
			c0.3418-0.2558,0.5024-0.5986,0.4033-0.8135c0,0-0.4031,0.4214-1.104,0.1202c-0.5537-0.2379-0.6699,0.1995-1.2373,0.0716
			c0,0,0.0103-0.1458,0.4888-0.5219c0.4785-0.376-0.2768,0.1253-0.5742,0.1919c-0.2974,0.0665-0.3828,0.0128,0.2461-0.4733
			s1.873-1.3456,1.7021-2.0516c0,0,0.2939,0.3735,1.0664,0.1023c0.7724-0.2712,1.3466-0.3684,1.579-0.7674
			c0.2324-0.3991,0.8408-0.8033,0.998-0.8902c0.1572-0.087,0.3691-0.1484,0.1299,0.2302c-0.2393,0.3786-0.6289,1.0284-1.6953,1.4684
			s-1.4765,0.7623-1.6679,0.9926c-0.1914,0.2302-1.1621,0.747-0.5332,0.66c0.6289-0.087,1.7226,0.0153,1.2099-0.133
			s-1.0937,0.0921-0.622-0.3377c0.4717-0.4298,0.5537-0.573,1.2373-0.8595c0.6836-0.2865,1.4423-0.9414,1.3671-0.2456
			c-0.0752,0.6958-1.3466,1.4377-1.6611,1.6628s-0.1982,0.1893-0.1914,0.2814s-0.0479,0.2814-0.1777,0.3684
			c-0.1299,0.087-0.0889,0.1842-0.0547,0.3786c0.0342,0.1944-0.0342,0.2712,0.0615,0.3019c0.0957,0.0307,0.1914,0.046,0.2187,0.1842
			c0.0273,0.1381,0.0991,0.156,0.2837,0.1407c0.1846-0.0153,0.3008,0.0026,0.3144,0.11s0.188,0.2533,0.2085-0.0742
			c0.0205-0.3274,0.1401-0.3914-0.1948-0.2405c-0.3349,0.1509-0.4067,0.0972-0.3999-0.0588s-0.0308-0.1202-0.1709-0.133
			s-0.188-0.2098,0.0615-0.3402c0.2495-0.1305,0.2461,0.0026,0.5571-0.2558c0.311-0.2584,0.311-0.33,0.3589-0.4502
			c0.0478-0.1202-0.4443,0.3505-0.6802,0.4579S36.659,19.77,36.7,19.5014c0.041-0.2686,0.6289-0.6191,0.8989-0.6242
			s0.8784,0.1535,0.6152,0.5219c-0.2632,0.3684-1.0083,0.8058-0.687,0.8391c0.3213,0.0333,0.3725-0.0921,0.5571,0.0716
			c0.1846,0.1637,0.0137,0.4963-0.0718,0.6728c-0.0854,0.1765-0.2632,0.3991-0.3418,0.44c0,0-0.3384-0.6037-0.3281-0.1253
			c0.0103,0.4784-0.0718,0.6498,0,0.6677c0.0718,0.0179,0.4477,0.2686,0.5674,0.2737c0.1196,0.0051-0.6494,0.3607-0.3281,0.3837
			c0.3213,0.023,0.8305-0.1407,1.0083-0.4733c0,0-0.6528-0.1586-0.916-0.4042c0,0,0.7622-0.1791,0.5503-0.9132
			c0,0,0.7588,0.2072,0.4306,0.55c-0.3281,0.3428-0.5263,0.2916-0.2427,0.3888c0.2837,0.0972,0.4238,0.1791,0.4238,0.1791
			s0.194,0.0972,0.0816,0.2558s-0.1158,0.3991-0.0201,0.394s0.417-0.1535,0.147-0.3172c-0.27-0.1637,0.3076-0.1356,0.0615-0.2737
			c-0.2461-0.1381-0.311-0.1714-0.376-0.2379c-0.0649-0.0665,3.0897-1.916,1.497-1.2228c0,0,0.3315-0.7188,0.7964-0.7214
			c0.4648-0.0026,0.499,0.3658,0.2358,0.6446c-0.2632,0.2788-0.4341,0.7137-1.0527,0.816c0,0,0.8841,0.4332-0.1606,1.1409
			c0,0-0.2267,0.1074-0.1447,0.1859s0.7018-0.2729,0.7884-0.4707s0.2187-0.3513,0.4557-0.4673
			c0.237-0.116,1.4036-0.9107,1.7545-1.511s0.4466-0.6208,1.1302-1.1699c0.6836-0.5491,0.5651-0.44,0.6517-0.573
			s0.123-0.3513,0.4375-0.5287s1.5358-0.8561,1.9186-1.1324c0.3828-0.2763,1.1666-0.7845,1.5039-1.2143
			c0.3372-0.4298,1.2453-0.9787,1.472-0.8766s-0.0228,0.4229-0.556,0.8288s-1.8548,1.4735-2.0689,1.6372
			c-0.2142,0.1637-1.3352,0.9823-1.7545,1.0369c-0.4193,0.0546-0.3737,0.2012-0.6243,0.4741
			c-0.2506,0.2729-0.8294,0.8459-1.0254,1.0028s-0.6608,0.4775-0.6881,0.7026c-0.0273,0.2251,0.082,0.2524-0.2917,0.6037
			c-0.3737,0.3513-1.4674,1.146-1.8639,1.2722c0,0,0.7018,0.2319,0.2825,0.706c-0.4193,0.4741-0.3919,0.4059-0.4238,0.4366
			c0,0,1.0656-0.1569,0.3099,0.6719c0,0-0.1458,0.2388,0.1914-0.0102c0.3605-0.2662,0.2051-0.631,0.1641-0.6822
			c0,0,0.5651-0.3513,1.2168-0.3615c0.6517-0.0102,0.6289-0.0546,0.0456-0.2217c0,0,0.4147-0.5048,0.7656-0.2558
			c0.3509,0.249,0.237,0.3922-0.1322,0.5901c-0.3691,0.1978-0.916,0.2797-1.3216,0.5048c0,0,0.7702,0.1501,1.1849-0.1637
			c0.4147-0.3138,0.4329-0.1569,0.4876-0.1023c0.0547,0.0546,0.1003,0.1569-0.082,0.4195
			c-0.1823,0.2626-0.2005,0.2763-0.1914,0.3343c0.0091,0.058-0.0137,0.2388-0.3874,0.3002s-0.5423,0.2183-0.4147,0.3957
			c0.1276,0.1774,0.1322,0.6174-0.1868,0.5764s-0.2324-0.2933-0.3555-0.3922c-0.123-0.0989-0.2962-0.2524-0.8522,0.0375
			c-0.556,0.2899-0.6015-0.0546-0.5742-0.2353c0,0-0.36,0.3138-0.6608,0.0239c-0.3008-0.2899-0.0273-0.4025,0.1458-0.5491
			c0.1732-0.1467,0.8795-0.4536,0.4557-0.3991s-1.0573,0.0819-1.2031-0.2456c-0.1458-0.3274,0.3144-0.2899,0.3874-0.2592
			c0.0729,0.0307,0.3737,0.2729,0.3828-0.0443c0.0091-0.3172,0.4785-0.3513,0.319-0.4161
			c-0.1595-0.0648-0.3828,0.1364-0.4466,0.2149c0,0-0.3281-0.4571-0.8567-0.307c-0.5286,0.1501,0.1686,0.0887,0.3099,0.1126
			c0.1413,0.0239,0.0592,0.2865-0.4147,0.7129c-0.4739,0.4264-0.2598,0.2967,0.0911,0.2967s1.2122,0.0034,0.7109,0.4127
			c-0.5013,0.4093-0.7018,0.6139-0.9616,0.5423c-0.2598-0.0716,0.0319-0.2422,0.1458-0.3138
			c0.1139-0.0716,0.1823-0.1978-0.0638-0.1057s-0.3327,0.1091-0.5286-0.2388c-0.196-0.3479-0.1139-0.2456-0.0319-0.4741
			s0.2734-0.4707,0.0456-0.3854c-0.2279,0.0853-0.2051,0.0921-0.1868-0.1705c0.0182-0.2626-0.2598-0.3206-0.2598-0.3206
			s0.1094,0.2626,0.0091,0.4298c-0.1003,0.1671-0.1048,0.2251,0.0592,0.2695c0.1641,0.0443,0.319,0.1842,0.0957,0.3377
			c-0.2233,0.1535-0.196,0.133-0.0547,0.2251c0.1413,0.0921,0.3463,0.1978,0.1276,0.4127s-0.0365,0.1501,0.0729,0.1501
			s0.3569,0.0921,0.3608,0.3036s-0.0144,0.2626,0.341,0.0648c0.3555-0.1978,1.0664-0.174,1.0573,0.1023
			c-0.0091,0.2763-0.0911,0.3445,0.2871,0.1091c0.3782-0.2353,0.5469,0.2217,0.8066,0c0.2598-0.2217,0.4238-0.4366,0.7246-0.058
			c0.3008,0.3786,0.207,0.4931-0.1595,0.7606c-0.3665,0.2675,0.1777,0.0614,0.4557-0.0819c0.278-0.1433,1.0573-0.2388,1.5039-0.0409
			c0.4466,0.1978,0.5742,0.1535,0.9023,0.0171c0.3281-0.1364,0.4967-0.1671,0.9935,0.1637s0.8841,0.3922,1.1438,0.3854
			c0,0-0.5514,0.2149-1.1712,0.2558c-0.6198,0.0409-0.9297,0.1569-1.0527,0.2524c0,0,0.3727,0.2251,0.4461,0.5014
			c0,0,0.4061-0.0546,0.6066,0.0273c0,0-0.1048,0.2933,0.1458,0.4502c0.2506,0.1569,0.4238,0.2149,0.237,0.4298
			s0.2871,0.1228,0.0182,0.4264c-0.2689,0.3036-0.3418,0.4571-0.3509,0.7026c-0.0091,0.2456,0.0592,0.2831-0.1823,0.307
			c-0.2415,0.0239,0.041,0.2933-0.0684,0.614c-0.1094,0.3206-0.7838,0.2865-0.7565,1.146c0,0,0.1868-0.4195,0.5879-0.7879
			c0.401-0.3684,0.4147-0.4025,0.4056-0.6242c-0.0091-0.2217-0.0273-0.1705,0.1868-0.3377c0.2142-0.1671-0.0957-0.324,0.1185-0.5628
			c0.2142-0.2388,0.0273-0.191,0.278-0.4332c0.2506-0.2422-0.2187-0.2729,0.0365-0.5219c0.2552-0.249-0.6152-0.5321-0.3646-0.6924
			c0.2506-0.1603,0.6836-0.382-0.7747-0.3581c0,0,0.3509-0.5798,1.5813-0.4536c0,0-0.3236,0.2285-0.3509,0.4536
			c0,0,0.1413,0.0716,0.2279,0.0921c0,0-0.0476,0.165-0.2825,0.365c0,0,0.6517,0.365,0.7565,0.5798c0,0-0.3965,0.1228-0.4967,0.2967
			c0,0,0.1732,0.1978,0.2324,0.4536c0,0-0.442-0.0546-0.5013,0.2763s-0.1914,0.1057-0.1914,0.3002
			c0,0.1944,0.0137,0.2729-0.1413,0.3036c-0.1549,0.0307-0.0273,0.1944,0,0.3036c0.0273,0.1091,0.0775,0.3581,0.0547,0.4366
			c0,0-0.2233,0.0034-0.3281,0.0341c0,0,0.0684,0.4741-0.196,0.5423c-0.2643,0.0682,0.1413,0.1637-0.1413,0.2149
			s-0.2461,0.0682-0.5924,0.689c0,0,0.2962-0.1671,0.6015-0.3684c0.3053-0.2012-0.0228-0.1398,0.4831-0.6378
			c0.5058-0.498,0.4147-0.5355,0.3737-0.7879c-0.041-0.2524-0.0501-0.4571,0.1322-0.6958s0.2415-0.5116,0.8886-0.4775
			c0,0-0.1914-0.4305-0.4284-0.5427c0,0,0.3099-0.2145,0.638-0.2452c0,0-0.2871-0.3445-0.875-0.6788c0,0,0.4831-0.4161,0.597-0.6139
			c0,0-0.2233,0.0341-0.401-0.0068c0,0,0.0837-0.1991,0.5195-0.4843c0,0,0.2324,0.2251,0.2233,0.4605
			c0,0,0.7474-0.4298,1.1712-0.382c0,0,0.2142,0.5389-0.8248,1.5485c0,0,0.6426,0.0614,0.916,0.0239c0,0-0.1549,0.498-0.9342,0.7913
			c-0.7793,0.2933,0.1685,0.6361-0.6289,0.5764c-0.7974-0.0597-0.5514,0.2149-0.5286,0.6208
			c0.0228,0.4059,0.0501,0.822,0.0319,0.9346c0,0-0.638-0.2081-0.6243,0.4093c0.0137,0.6174-0.3281,0.747-0.3965,0.805
			c0,0-0.1851-0.1655-0.4648-0.2626C45.4201,32.0823,45.0244,32.8337,44.3856,33.2727z"/>
		<path class="st6" d="M43.4742,25.5335c0,0,0.2187-0.0358,0.5879,0.1944c0.3691,0.2302,0.7314-0.2456,0.3213-0.3684
			c-0.4101-0.1228,0.0068-0.266,0.376,0.0307c0.3691,0.2967,0.5127,0.1484,0.6494,0.046c0.1367-0.1023,0.3008-0.1586,0.0478-0.3326
			c-0.2529-0.174,0.1709-0.0921,0.3623,0.0307s0.1162,0.2507,0.0889,0.2865c-0.0273,0.0358-0.0479,0.4349,0.3281,0.0614
			c0.376-0.3735,0.5605-0.747,0.5537-0.9312c0,0,0.2051,0.1279,0.2324,0.3633c0.0273,0.2353,0.3144-0.1279,0.4101-0.2558
			s0.2598-0.4507,0.2392-0.6935c0,0,0.2529,0.3912,0.6289,0c0.376-0.3912,0.2119-0.1456,0.6631-0.2632
			c0.4512-0.1177,1.0185-0.4502,1.3261-0.8237s0.3281-0.1228,0.7246-0.2149s1.1962-0.6446,1.2714-0.9465
			c0.0752-0.3019,0.0615-0.486-0.0547-0.3837c-0.1162,0.1023-0.0684,0.0205-0.2393-0.087
			c-0.1709-0.1074-0.4238,0.1381-0.4238,0.1381s0.2529,0.1944,0.0615,0.2763c-0.1914,0.0819-0.376,0.353-0.7383,0.2507
			c-0.3623-0.1023-0.7383,0.3326-0.7383,0.3326s0.3144,0.2609-0.1094,0.4246c-0.4238,0.1637-0.3555,0.22-0.6152,0.0409
			c0,0-0.4512,0.573-0.7109,0.6907c0,0-0.123-0.0102-0.2051-0.1177c0,0-0.2939,0.3326-0.4443,0.3991
			c0,0-0.1846-0.1791-0.3555-0.2353c0,0-0.3555,0.44-0.6562,0.5781c0,0-0.0889-0.1637-0.2803-0.2763
			c0,0-0.0946,0.5755-0.7246,0.9158c0,0,0.041-0.1535-0.2734-0.3633c0,0-0.7793,0.6753-1.0869,0.7419
			c-0.3076,0.0665-0.0205-0.1433,0.0205-0.2302c0.041-0.087,0.2324-0.3735-0.1435-0.4912c-0.376-0.1177-0.3144,0.0819-0.3965,0.1177
			c-0.082,0.0358-0.0889-0.0665-0.3418-0.0307c-0.2529,0.0358-0.2119,0.1484-0.3213,0.1893
			c-0.1094,0.0409-0.5469-0.0716-0.5264,0.22c0.0205,0.2916,0.2256,0.4912-0.1572,0.66
			C42.442,25.646,42.9683,25.6102,43.4742,25.5335z"/>
		<path class="st5" d="M45.0532,24.7098c0,0,0.0889-0.3684-0.2324-0.5474c0,0,2.0644-0.3172,0.5058-1.1051
			c0,0,1.8525-0.3837,1.415-0.9772s-0.8628-0.4605-0.927-0.4502s0.3938-0.3428,0.5168-0.2967
			c0.123,0.046,1.6132,0.6191,1.2304,0.1279c-0.3828-0.4912-0.3486-0.4605-0.4101-0.6037c0,0,0.4922,0,1.2373,0.7265
			c0,0,0.1572-0.1637,0.1367-0.4605c0,0,0.5332,0.1484,0.6972,0.307c0,0,0.0889-0.1842,0.0547-0.2865
			c0,0,0.458,0.2456,0.6152,0.5065c0,0,0.2119-0.1842,0.2461-0.394c0,0,0.458,0.1893,0.5742,0.3326c0,0,0.1504-0.1995,0.0957-0.486
			c0,0,0.7588,0.2251,0.8613-0.2456c0,0,0.7633,0.1654,0.2673,0.4626c-0.6376,0.382-0.0645-0.0942-0.7184,0.3611
			c-0.5071,0.3531-0.7907,0.7674-1.0345,0.6822c-0.1792-0.0627-0.3942,0.4588-0.6403,0.2029
			c-0.2461-0.2558-0.2461-0.1381-0.417,0.1279c-0.1709,0.266-0.4375,0.5372-0.4375,0.5372s-0.1331-0.0767-0.234-0.1791
			c0,0-0.1488,0.2456-0.3402,0.4298c0,0-0.1504-0.1995-0.3896-0.3223c0,0-0.376,0.4349-0.6084,0.5833
			c0,0-0.2187-0.2149-0.4512-0.2865c0,0-0.0342,0.5884-0.4922,0.8902c0,0-0.0957-0.1944-0.3896-0.3121
			C45.7847,24.0344,45.5522,24.4064,45.0532,24.7098z"/>
		<path class="st5" d="M43.9664,23.8093c0,0-0.2508,0.1927-0.0889,0.3991s0.1709-0.0358,0.376-0.0563
			c0.2051-0.0205,2.7343-0.4553,0.4443-1.1409c0,0,0.0957-0.087,0.4922-0.1228c0.3965-0.0358,1.832-0.4246,1.1621-0.9363
			c-0.6699-0.5116-1.227,0.1739-0.6631-0.44c0.4512-0.4912,0.0889-0.7316,0.0889-0.7316s-1.333,0.8902-1.6269,1.0539
			c-0.2939,0.1637-0.7177,0.4758-0.2187,0.6395c0.499,0.1637,0.8408-0.5423,0.8886-0.3837c0.0479,0.1586-1.0048,0.7419-0.8545,1.013
			c0.1504,0.2712,0.1162,0.4963,0.376,0.4451c0.2598-0.0512,0.9638,0.133,0.3896,0.1126
			C44.1578,23.6405,43.9664,23.8093,43.9664,23.8093z"/>
		<path d="M44.8823,22.5358c0,0-0.2324,0.1633,0.0752,0.0814s0.9228-0.2149,0.8066-0.3735S45.2378,22.2753,44.8823,22.5358z"/>
		<path class="st6" d="M48.9427,19.8954c0,0,1.1757-0.0307,1.6611,0.2967c0.4853,0.3274,0.7177,0.5423,0.8613,0.5884
			c0,0-0.0205,0.4451-0.7724,0.1279c0,0,0.041,0.2149-0.041,0.4246c0,0-0.2803-0.1842-0.6015-0.266c0,0-0.0547,0.1688-0.1572,0.266
			c0,0-0.3349-0.3377-0.7109-0.44c0,0-0.0752,0.1688-0.1435,0.2302c0,0-0.4033-0.2302-0.7109-0.2251c0,0,0.0615,0.2456,0,0.3428
			c0,0-0.8545-0.6702-1.6132-0.5833c0,0,0.3691,0.5372,0.6084,0.8032c0,0-1.538-0.1228-1.2851-0.9516
			c0.2529-0.8288-0.0205-0.6206,0.9843-0.6147C48.0268,19.9005,48.9427,19.8954,48.9427,19.8954z"/>
		<path class="st5" d="M41.7311,22.1858c0,0-0.1777,0.1449,0,0.2677c0.1777,0.1228,0.7861-0.3172,0.8681-0.3786
			c0.082-0.0614,0.3008-0.0512,0,0.174s-0.6084,0.4707-0.7998,0.7163c0,0,1.0185-0.2763,1.6816-0.8493
			c0.6631-0.573-0.0308-0.2018,1.1005-0.747c1.1314-0.5451,1.7226-1.4223,1.1142-1.3302s-1.1552,0.7879-1.6269,1.0539
			c-0.4717,0.266-0.7383,0.3019-0.6631,0.1484c0.0752-0.1535,0.4238-0.0921,1.0732-0.6139c0.6494-0.5219,0.5058-0.486,0.5127-0.6702
			s-0.2461-0.6395,0.7314-1.1512c0.9775-0.5116,4.0194-2.2921,4.2791-2.9009c0,0-0.8886,0.0972-2.0575,0.9619
			s-1.7948,1.2688-2.1175,1.3763s-0.2818,0.0358-0.4937,0.2865s-1.3671,1.366-1.579,1.5298s-0.2734,0.2712-0.2916,0.605
			C43.4546,20.8163,42.1344,21.8107,41.7311,22.1858z"/>
		<path class="st5" d="M45.7505,19.8672c0,0-0.2256,0.1048-0.4443,0s-0.1504-0.5755,0.376-0.8569s1.4833-0.7009,1.9687-0.7623
			c0,0-0.0684,0.6088-1.579,1.1205C46.0718,19.3684,46.1675,19.6854,45.7505,19.8672z"/>
		<path class="st7" d="M46.2837,19.4707c0,0,0.044,0.1497,0,0.2865c0,0,2.8095,0.2712,4.2586-1.4377c0,0-1.9892,0.1842-2.7821,0.66
			c0,0,0.499-0.6242,1.9892-1.1409s2.0986-1.1563,2.2284-1.5093c0,0-1.8845,0.66-2.7821,0.66c0,0-0.1777-0.0051-0.3486,0.0921
			c-0.1709,0.0972-1.374,0.9721-1.6953,1.1205c0,0,0.6767-0.0563,0.916-0.2763C48.0678,17.9256,47.5975,19.1902,46.2837,19.4707z"/>
		<path class="st5" d="M40.904,21.0772c0,0-0.3623,0.2558-0.2119,0.3837c0.1504,0.1279,0.4094,0.1535,0.96-0.307
			c0.5507-0.4605,1.8836-1.6065,1.0413-1.6525c0,0-1.0786-0.0665-1.0413,0.5935C41.6897,20.7616,40.958,21.0354,40.904,21.0772z"/>
		<path class="st5" d="M38.4158,20.6884c0,0,0.7109,0.4144,0.4443,0.7572c0,0,2.1806-1.8521,1.5654-2.2511
			c-0.6152-0.3991-1.1005,0.353-0.9502,0.4298s0.4717-0.0665,0.3554,0.0767S38.5525,20.627,38.4158,20.6884z"/>
		<path class="st5" d="M37.8484,20.0898c0,0,0.4785,0.1433,0.499,0.3479c0.0205,0.2047,1.4423-1.0028,1.0664-1.5093
			c-0.1724-0.2323-0.9638-0.3274-0.998,0.1279c-0.0342,0.4553,0.7109-0.046,0.4512,0.2814
			C38.5263,19.7671,37.951,20.0182,37.8484,20.0898z"/>
		<path class="st5" d="M42.9654,19.0808c0,0-0.3046,0.2211-0.0312,0.3541c0.2734,0.133,0.4512-0.0767,0.5879-0.1995
			c0.1367-0.1228,0.8134-0.6191,0.9707-0.9363c0.1572-0.3172,0.3896-0.4144,0.6357-0.5781
			c0.2461-0.1637,1.9824-1.0284,3.0487-1.9851s0.622-0.7112,1.7294-1.3251c1.1074-0.6139,1.832-1.1767,2.0644-1.8418
			c0,0-0.5127,0.1688-0.9638,0.4605s-1.4697,0.9312-1.6747,1.0181s-0.4922,0.1023-0.6426,0.2609
			c-0.1504,0.1586-0.1367,0.3479-0.6699,0.7879s-3.288,2.3842-3.6229,2.6604C44.0621,18.0331,42.9654,19.0808,42.9654,19.0808z"/>
		<path class="st7" d="M40.749,19.7248c0,0,0.3008-0.1658,0.8659-0.1272c0.5651,0.0386,2.7981-2.1239,3.4452-2.5605
			c0.6471-0.4366,2.6705-1.8964,2.9439-2.1625s0.319-0.5526,0.556-0.7095c0.237-0.1569,0.4557-0.1364,1.0026-0.4502
			s3.1718-1.8828,3.0168-2.7969c0,0-3.91,2.3467-4.8123,3.1107c-0.9023,0.764-3.4087,2.4967-3.8553,2.7764
			s-0.8021,0.764-1.5494,1.3712C41.6149,18.7835,40.8766,19.2951,40.749,19.7248z"/>
		<path class="st7" d="M39.9287,18.8926c0,0,0.7236-0.074,0.8203,0.2797c0,0,1.5494-1.0642,1.9049-1.5008
			c0.3555-0.4366-0.1185-0.1842,0.7656-0.764c0.8841-0.5798,3.8189-2.6332,4.2381-3.0015c0.4193-0.3684,1.2122-0.8527,1.8502-1.2825
			c0.638-0.4298,3.1353-1.6508,2.8528-2.6536c0,0-1.832,1.2279-2.2421,1.4939c-0.4101,0.266-0.5833,0.116-1.0026,0.4434
			c-0.4193,0.3274-1.3398,0.9823-1.5039,1.187c-0.1641,0.2046-1.5676,1.2825-2.2512,1.7395
			c-0.6836,0.4571-2.2148,1.3439-2.953,1.9851S40.2386,18.647,39.9287,18.8926z"/>
		<path class="st7" d="M37.6737,18.6828c0,0,0.3661,0.0053,0.4755,0.1485c0,0,0.6768-0.5936,1.3968-0.007
			c0,0,2.6431-1.7873,2.9074-2.2375c0.2643-0.4502,0.6927-0.4571,1.7226-1.2074s1.677-1.0642,2.3606-1.5963
			s1.2578-1.1324,1.7499-1.453c0.4922-0.3206,1.7317-1.1324,1.5221-1.835c0,0-1.0026,0.573-1.6588,1.2893
			c-0.6562,0.7163-0.6015,0.1023-1.2669,0.7026c-0.6653,0.6003-1.6953,1.4189-2.552,1.8418
			c-0.8567,0.4229-0.3372,0.3752-0.957,0.7708c-0.6198,0.3957-0.5742,0.3343-0.8021,0.3888
			c-0.2279,0.0546-0.5742,0.2183-0.8021,0.4843c-0.2279,0.266-0.8385,0.6276-1.5039,1.0028S37.9646,18.3247,37.6737,18.6828z"/>
		<path class="st7" d="M38.4705,17.3117c0,0-0.1436-0.2967,0.1094-0.5065c0.2529-0.2098,0.7109-0.7623,0.7861-1.1102
			c0.0752-0.3479,0.0205-0.2916,0.7519-0.5935c0.7314-0.3019,2.3925-1.0795,3.329-1.6577s2.3583-1.5093,2.6522-1.7344
			s1.0071-0.7265,1.2965-0.9619c0,0,0.139,0.394-0.1754,0.6651c-0.3144,0.2712-1.5244,1.1205-1.7226,1.2535
			s-1.3125,0.88-1.6542,1.0693c-0.3418,0.1893-1.1894,0.6191-1.4902,0.8698c-0.3008,0.2507-0.262,0.3274-1.6041,0.9823
			s-1.4036,0.7214-1.3626,0.7726c0.041,0.0512,0.6426-0.2098,0.9297-0.3786c0.2871-0.1688,1.3876-0.6702,1.7158-0.9312
			s0.8818-0.6702,1.1211-0.8033s2.2216-1.32,2.789-1.7395c0.5674-0.4195,0.7246-0.5577,0.8476-0.486s0.3213,0.0767,0.0684,0.3172
			s-1.0595,0.9465-1.3671,1.1512s-1.2714,0.7777-1.538,0.9158c-0.2666,0.1381-0.3691,0.394-0.5195,0.5014
			c-0.1504,0.1074-0.5879,0.4195-1.1211,0.5423c-0.5332,0.1228-0.6289,0.5219-0.9775,0.747s-2.8295,1.5605-2.9047,1.627
			C38.4299,17.8233,38.5798,17.6698,38.4705,17.3117z"/>
		<path class="st7" d="M47.0561,11.7401c0,0-0.1367,0.1211-0.0615,0.1893c0.0992,0.09,0.4443,0.3326,0.875-0.0947
			s1.5876-1.3584,1.9627-1.5784s0.5528-0.4298,0.5392-0.7316C50.3714,9.5248,48.5941,10.4713,47.0561,11.7401z"/>
		<path class="st7" d="M49.5033,11.5764c0,0,0.2734-0.4553,0.9433-0.8851c0.6699-0.4298,1.6756-1.0554,1.8115-1.2074
			c0,0,0.2393,0.2712-0.2871,0.6037s-1.5517,1.013-1.6747,1.1102S49.9681,11.4433,49.5033,11.5764z"/>
		<path class="st6" d="M35.8797,16.534c0,0-0.7451,0.3991-0.4785,0.6498c0.2666,0.2507,0.6631,0.174,0.8271,0.1023
			c0.1641-0.0716,0.4785-0.1484,0.5263-0.1637s0.6972-0.1995,0.8613-0.5014c0.1641-0.3019,0.6015-0.6498,0.9502-0.9005
			c0.3486-0.2507,0.4717-0.5014,0.4238-0.6805C38.99,15.0401,36.0557,16.4262,35.8797,16.534z"/>
		<path class="st6" d="M31.4502,19.9772c0,0,0.5148-0.3061,1.2373-0.1126c0,0-0.0342-0.176-0.1435-0.2671
			c0,0,0.875-0.2292,1.0664-0.618c0.1914-0.3888,0.2324-0.307,0.4033-0.4195c0.1709-0.1126,1.3535-1.0642,1.2168-1.2688
			c-0.1367-0.2047-0.1641-0.4707-0.2666-0.5781c0,0-0.2461,0.3377-1.3945,0.8953s-2.4267,0.9772-3.3563,2.2307
			c-0.9297,1.2535-0.834,1.98,0.3008,2.2972c0,0,0.7998-0.5014,2.7479-0.3274c1.9482,0.174,2.6112,0.9056,2.7343,1.0386
			s0.5195,0.6139,0.1367,1.4274c0,0,0.3896,0.1688,0.4238-0.2046S36.6112,23.7837,36.7,23.84
			c0.0889,0.0563,0.1982,0.0665,0.1572-0.22c-0.041-0.2865-0.1777-0.926-0.3555-1.146c-0.1777-0.22,0.0205-0.1228,0.1367-0.0767
			c0.1162,0.046,0.5263,0.3786,0.2803-0.2353c-0.2461-0.6139-0.3076-0.3121-0.3144-0.2814s-0.0547,0.1842-0.5879-0.2149
			s-1.0185-0.5935-1.3808-0.6958c-0.3623-0.1023-0.1094-0.1023,0.1025-0.1791s0.499-0.1228,0.5947-0.3581
			c0,0-0.2119,0.0512-0.6015-0.087c-0.3896-0.1381-1.1689-0.1535-1.7978,0.3172c0,0,0.1982-0.7265-0.376-0.6856
			c-0.5742,0.0409-0.9775,0.0256-1.5859,0.5065c0,0-0.0342-0.7316,0.54-1.1102c0.5742-0.3786,0.499-0.1484,0.8203-0.2456
			c0.3213-0.0972,0.3486-0.4195,0.2119-0.5219c0,0,0.7519,0.1279,2.0165-0.9209c0,0-0.6795,0.8902-1.5052,1.0693
			c0,0-0.1308,0.4738-0.8804,0.5781C31.4252,19.4369,31.4434,19.8698,31.4502,19.9772z"/>
		<path class="st5" d="M29.2924,24.313c0,0,0.3689-2.2047,2.4335-2.3643c1.8092-0.1398,2.3834,0.0853,2.7434,0.2012
			s1.2395,0.3752,0.8978,0.6583c-0.3418,0.2831-0.5377,0.2319-0.5377,0.2319s0.3965-0.44,0.0365-0.515
			c-0.36-0.075-0.3919,0.1433-0.442,0.3274s-0.0729,0.4059-0.2506,0.5491c0,0-0.1823-0.2115-0.442-0.0273
			s-0.0365,0.191,0.0684,0.1603c0.1048-0.0307,0.2415-0.0853,0.2142,0.075c-0.0273,0.1603-0.1732,0.4366-0.6015,0.6617
			c-0.4284,0.2251-0.4056,0.2115-0.916,0.2933s-0.9843,0.2831-1.636,0.8425s-1.3649,0.3727-1.5084-0.2524
			C29.2286,24.619,29.2924,24.313,29.2924,24.313z"/>
		<path d="M31.6553,24.2442c0,0,0.1982-0.4349-0.1572-0.6344c0,0-1.087,0.1864-1.4082-0.1433c0,0,1.1826-0.0614,1.914-0.3479
			c0.7314-0.2865,0.5127-0.486,0.2598-0.5321c-0.2529-0.046-0.7177,0.0665-0.7656,0.2967c0,0-0.1436-0.2456,0.041-0.4093
			c0.1846-0.1637,0.4717-0.1944,0.7314-0.1177c0.2598,0.0767,0.4922,0.1893,1.3466-0.2558c0,0,0.4922,0.1126,0.5058,0.4451
			s-0.0342,0.4707-0.0752,0.5219c-0.041,0.0512-0.1025,0.1484-0.2051,0.1381c-0.1025-0.0102-0.2324-0.0358-0.3623,0.1944
			c-0.1299,0.2302-0.2078,0.4298-0.4252,0.5833c0,0,0.2543-0.7163-0.3746-0.8851c0,0-0.5195,0.307-0.916,0.3223
			C31.7646,23.4205,32.2705,23.8912,31.6553,24.2442z"/>
		<path class="st5" d="M32.79,22.9293c0,0-0.2393-0.2635,0.0752-0.2916c0.3144-0.0281,0.7314,0.2021,0.6494,0.3965
			C33.4326,23.2286,33.0634,23.2209,32.79,22.9293z"/>
		<path class="st3" d="M50.556,19.4349c0,0-0.5742,0.1637-0.041,0.5167c0.5332,0.353,0.7929,0.66,1.1826,0.7623
			c0.3896,0.1023,0.7929,0.2456,0.7861,0.6344s-0.082,0.5423-0.2939,0.8084s0.1162,0.3837,0.3965,0.2302
			c0.2803-0.1535,0.5195-0.2353,0.7041-0.3428c0.1846-0.1074,0.4922-0.0921,0.2119,0.0512
			c-0.2803,0.1433-0.5742,0.2302-0.2119,0.2405c0.3623,0.0102,2.5429,0.0512,3.0009-0.0972
			c0.458-0.1484,1.0527-0.1944,1.1074-0.7879c0,0,0.0205-0.2635,0.1914-0.3735c0.1709-0.11,0.2871-0.3633,0.0376-0.1919
			s-0.4409,0.2584-0.4888,0.2072c-0.0478-0.0512-0.0615-0.087,0.1196-0.1714c0.1811-0.0844,0.2837-0.0051,0.4512-0.2533
			c0.1675-0.2481,0.1511-0.2072,0.0619-0.3019c-0.0892-0.0947-0.2772-0.1637-0.1849-0.284s0.1846-0.4784-0.2153-0.2686
			c-0.3999,0.2098-1.1871,0.7504-1.5517,0.8357c-0.3646,0.0853-0.6426,0.1962-1.1347,0.2959
			c-0.4922,0.0997-0.7975,0.2055-1.3216,0.4954c-0.5241,0.2899-0.4876-0.1601-0.3965-0.2216c0,0,0.2005,0.3512,0.7337-0.1058
			c0.5332-0.4571,0.3596-0.0285,1.6633-0.4571c1.3037-0.4285,0.9843-0.498,1.4947-0.764s0.9935-0.2763,0.638-0.631
			c-0.3555-0.3547-0.3965-0.3854-0.8567,0s-1.7317,1.0062-2.4927,1.0232c0,0,2.9393-1.2688,2.6386-1.453
			c-0.3008-0.1842-0.6243-0.3479-0.8294-0.3922s-0.2598-0.0955-0.7337,0.116s-0.5514,0.2626-0.6881,0.2763
			s-0.5332,0.0921-1.0937,0.382s-0.8613,0.4059-1.235,0.6344c0,0,0.2598-0.5253,1.4173-0.8732
			c1.1575-0.3479,1.7499-0.6685,1.6223-0.7265c-0.1276-0.058-0.4147-0.1057-0.6334-0.0716
			c-0.2187,0.0341-0.1549-0.0171-0.8613,0.2626c-0.7064,0.2797-0.4056,0.2183-0.9752,0.3411
			c-0.5696,0.1228-0.8021,0.249-1.0846,0.3684c0,0,0.1152-0.1537,0.499-0.2942c0.1971-0.0722-0.2158-0.1465,0.3316-0.1687
			c0.0446-0.0018,0.0994,0.0112,0.1537-0.0044c0.7075-0.2029,1.4811-0.4809,1.3626-0.5014
			c-0.1185-0.0205-0.8066-0.0921-1.5039,0.2285c-0.6972,0.3206-0.3782,0.2115-0.6243,0.2626
			c-0.2461,0.0512-0.7656,0.3786-0.9388,0.5184C50.7975,19.3292,50.556,19.4349,50.556,19.4349z"/>
		<path class="st5" d="M33.3403,22.6121c0,0,0.2734,0.0819,0.3418,0.2737c0.0684,0.1919,0.2393-0.0844,0.2324-0.1714
			c-0.0068-0.087-0.1743-0.4707-0.4717-0.2916C33.1455,22.6019,33.2946,22.5955,33.3403,22.6121z"/>
		<path class="st6" d="M32.5781,26.4032c0,0,0.5835-0.2745,1.0732-0.2405c0,0-0.1914-0.6907,0.1504-0.573
			c0.3418,0.1177,0.2461,0.0716,0.3144,0.0665c0,0,0.0205-0.4553-0.0684-0.6344c0,0,0.3486,0.0819,0.7041,0.087
			c0,0-0.3349-0.6549,0.0342-1.1051c0,0,0.2027,0.4298,0.6584,0.5372c0,0,0.0022-0.1842,0-0.3786c0,0,0.2712-0.0307,0.4831,0.0819
			c0.2119,0.1126,0.3896-1.187-0.2393-1.4735c0,0-0.1504,0.2456-0.7383,0.3684c-0.5879,0.1228-0.5831,0.2409-0.8247,0.6832
			c-0.2416,0.4423-0.4535,0.4475-0.9457,0.7647c-0.4922,0.3172-0.7913,0.9619-0.8195,1.0181
			C32.3602,25.6051,32.6191,25.9223,32.5781,26.4032z"/>
		<path class="st8" d="M52.1897,18.8542c0.2137-0.0375-0.2158-0.1465,0.3316-0.1687c0.0446-0.0018,0.0994,0.0112,0.1537-0.0044
			c0.7075-0.2029,1.4811-0.4809,1.3626-0.5014c-0.1185-0.0205-0.8066-0.0921-1.5039,0.2285
			c-0.6972,0.3206-0.3782,0.2115-0.6243,0.2626c-0.2461,0.0512-0.7656,0.3786-0.9388,0.5184
			c-0.1732,0.1398-0.4147,0.2456-0.4147,0.2456s-0.5742,0.1637-0.041,0.5167c0.5332,0.353,0.7929,0.66,1.1826,0.7623
			c0.3896,0.1023,0.7929,0.2456,0.7861,0.6344s-0.082,0.5423-0.2939,0.8084s0.1162,0.3837,0.3965,0.2302
			c0.2803-0.1535,0.5195-0.2353,0.7041-0.3428c0.1846-0.1074,0.4922-0.0921,0.2119,0.0512
			c-0.2803,0.1433-0.5742,0.2302-0.2119,0.2405c0.3623,0.0102,2.5429,0.0512,3.0009-0.0972
			c0.458-0.1484,1.0527-0.1944,1.1074-0.7879c0,0,0.0205-0.2635,0.1914-0.3735c0.1709-0.11,0.2871-0.3633,0.0376-0.1919
			s-0.4409,0.2584-0.4888,0.2072c-0.0478-0.0512-0.0615-0.087,0.1196-0.1714c0.1811-0.0844,0.2837-0.0051,0.4512-0.2533
			c0.1675-0.2481,0.1511-0.2072,0.0619-0.3019c-0.0458-0.0486-0.1176-0.0904-0.1642-0.1359c0,0-0.1313-0.1148-0.2839-0.0176
			c-0.1527,0.0972-0.8226,0.3803-1.0914,0.4127c-0.2689,0.0324-0.5468,0.1467-1.0299,0.382s-1.2851,0.7146-1.4127,0.2695
			c0,0-0.3498,0.1248-0.4261,0.1637c-0.5387,0.2745-0.4916-0.1151-0.3965-0.2216c0,0-0.2825,0.3171-0.2711,0.0289
			c0.0114-0.2882,0.1937-0.2388,0.5081-0.3309s0.8112-0.2967,0.6061-0.4673s-0.4215,0.1694-0.6494,0.2731
			s-0.6836,0.1959-0.7542-0.135c-0.0706-0.3309-0.0684-0.5611-0.6858-0.5969c-0.6175-0.0358-0.5947-0.4212-0.4261-0.5867
			C51.4628,19.2388,51.6109,18.9557,52.1897,18.8542z"/>
		<path d="M54.1515,21.8464c0,0,0.9616-0.4434,1.8456-0.6515c0.8841-0.2081,0.1914,0.0273,0.041,0.075
			c-0.1504,0.0478-1.5266,0.5014-1.8502,0.6515C53.8644,22.0715,53.9311,21.943,54.1515,21.8464z"/>
		<path d="M54.3748,22.0408c0,0,1.08-0.3581,1.2806-0.2081c0.2005,0.1501,0.0365,0.075-0.2005,0.1091
			c-0.237,0.0341-0.8886,0.1433-1.0618,0.1398C54.2199,22.0783,54.3748,22.0408,54.3748,22.0408z"/>
		<path d="M56.1065,21.6656c0,0,0.2051-0.0375,0.2279,0.0375c0.0228,0.075-0.0911,0.0853-0.2051,0.0716
			C56.0154,21.7611,55.9151,21.6963,56.1065,21.6656z"/>
		<path class="st3" d="M27.5806,31.0761c0,0-0.0403-0.9482,0.4382-1.4291s2.8026-2.8996,3.1581-3.5756
			c0,0,0.3008,0.2091,0.3144,0.5928c0,0,0.3896-0.6711,0.6972-0.9239c0,0,0.2734,0.2792,0.2256,0.8369
			c0,0,0.5605-0.2967,1.4287-0.3019c0,0-0.3213,0.3786-0.3349,0.5986c0,0,1.2031-0.133,1.832-0.0307c0,0-1.6542,0.926-1.1894,1.0079
			c0.4648,0.0819,0.9502-0.0051,0.9502-0.0051s-0.5263,0.5372-1.3671,0.6446c0,0,1.0664-0.0153,1.2783,0.2251
			c0,0-1.039,0.1586-1.873,0.793c0,0-0.0779-0.0358-0.0834-0.2712c0,0-0.026,0.2098-0.2652,0.4093s-0.8134,0.6242-1.0254,0.8391
			s-0.6084,0.6395-1.0322,0.6191c0,0,0.0957-0.3274-0.2187-0.4298s-0.6767-0.0307-0.9297,0.2405c0,0-1.1211,0.0153-1.4765,0.0665
			c0,0,0.2529-0.4042,0.4853-0.3939c0.2324,0.0102,1.1689,0.1381,1.2509-0.5014c0.082-0.6395-0.6015-0.4707-0.3418-0.8493
			s0.1982-0.3633,0.2051-0.3991c0,0-0.2119,0.1177-0.3349,0.4553c-0.123,0.3377-0.2119,0.5986-0.6562,0.9363
			c-0.4443,0.3377-0.6283,0.5421-0.7514,0.7775C27.9646,31.0076,27.7618,31.0358,27.5806,31.0761z"/>
		<path d="M52.6477,21.5906c0,0,0.1413,0.191,0.0547,0.2797s-0.2096,0.174-0.1504,0.3104c0,0,0.0638-0.2251,0.3782-0.2626
			s1.0846-0.266,1.5677-0.4605s1.6087-0.7436,1.9869-0.7299c0,0-0.2786-0.0771-1.2828,0.3827s-1.8525,0.6781-2.176,0.719
			C52.7024,21.8703,52.9849,21.7713,52.6477,21.5906z"/>
		<path d="M51.9003,20.378c0,0,0.0182,0.0597,0.1003,0.0631c0.082,0.0034,0.1732-0.0767,0.1914-0.0887
			c0.0182-0.0119,0.0205-0.0392-0.0615-0.087c-0.082-0.0478-0.1253-0.0546-0.1891-0.0085
			C51.8775,20.303,51.847,20.3249,51.9003,20.378z"/>
		<path class="st3" d="M28.659,30.503c0,0,0.0365-0.1296,0.3646-0.1842s0.3418-0.2115,0.3008-0.2797
			c-0.041-0.0682-0.237-0.0682,0.082-0.4298c0,0,0.1139,0.0307,0.1914,0.1194C29.6752,29.8175,30.0352,30.5883,28.659,30.503z"/>
		<path class="st8" d="M27.8708,29.8332c0.0171,0.6319,0.8451,0.397,0.8451,0.397c-0.295,0.2242-0.4753,0.3897-0.5991,0.5444
			c0.0547-0.307-0.4669-0.3838-0.4669-0.3838C27.6928,30.2033,27.7614,30.0047,27.8708,29.8332z"/>
		<path class="st8" d="M30.9154,26.4566c0.1199-0.1568,0.2107-0.2888,0.2614-0.3853c0,0,0.3008,0.2091,0.3144,0.5928
			c0,0,0.3896-0.6711,0.6972-0.9239c0,0,0.2734,0.2792,0.2256,0.8369c0,0,0.5605-0.2967,1.4287-0.3019
			c0,0-0.3213,0.3786-0.3349,0.5986c0,0,1.2031-0.133,1.832-0.0307c0,0-1.6542,0.926-1.1894,1.0079
			c0.4648,0.0819,0.9502-0.0051,0.9502-0.0051s-0.5264,0.5372-1.3671,0.6446c0,0,1.0664-0.0153,1.2783,0.2251
			c0,0-0.3036,0.0463-0.7142,0.1891c0,0-0.3066-0.288-1.1952-0.2471c0,0,0.6912-0.3868,1.2395-0.5116
			c0,0-0.2415-0.3172-0.6198-0.0273c0,0-0.7519-0.5184-0.1322-0.9584c0,0-0.4375-0.0921-0.7246,0.1126
			c0,0,0.0137-0.3547,0.3327-0.515c0,0-0.8431-0.1364-1.0527,0.4843c0,0-0.1595-0.2558-0.0866-0.5457
			c0,0-0.5104,0.2936-0.7428,0.626C31.3158,27.3226,31.2389,26.692,30.9154,26.4566"/>
		<path class="st8" d="M29.2815,30.4666c-0.1513,0.0372-0.3538,0.0531-0.6225,0.0365c0,0,0.023-0.0817,0.1967-0.1427
			C28.8557,30.3604,28.9055,30.464,29.2815,30.4666"/>
		<path d="M30.8145,28.0763c0,0,0.3828,0.3019,0.5195,0.486c0,0,0.3486-0.2456,0.4785-0.4451c0,0,0.2734,0.1791,0.3691,0.4451
			c0,0,0.1914-0.133,0.2324-0.3172c0,0,0.4826,0.1023,0.6412,0.2609c0,0,0.0738-0.4656,0-0.7572c0,0,0.3363,0.0256,0.5414,0.1126
			c0,0-0.1907-0.307,0.783-0.7009c0,0-0.7363,0.158-1.0154,0.4809c0,0-0.3144,0.0154-0.4512-0.0819c0,0,0.0205,0.4707,0.0068,0.6958
			c0,0-0.1898-0.0767-0.5597-0.1637c0,0-0.0897,0.1535-0.1512,0.1893c0,0-0.2324-0.1842-0.3349-0.4195
			c0,0-0.3556,0.3229-0.4922,0.4605C31.3818,28.3218,31.0469,28.0865,30.8145,28.0763z"/>
		<path class="st4" d="M28.6134,32.8651c0,0,0.1504,0.0716,0.5058-0.2149c0.3555-0.2865,1.3603-0.926,1.456-1.4377
			c0.0957-0.5116-0.3213-0.5423-0.6494-0.394c-0.3281,0.1484-0.1914,0.4349-0.1777,0.527c0.0137,0.0921,0.0205,0.4502-0.5127,0.9465
			C28.7023,32.7883,28.6134,32.8651,28.6134,32.8651z"/>
		<path class="st4" d="M28.4972,33.0288c0,0-0.8066-0.3377-0.082-0.7009c0.7246-0.3633,1.0459-0.4605,1.1279-0.7623
			c0.082-0.3019,0.0342-0.2507-0.2324-0.1228c-0.2666,0.1279-1.2919,0.5884-1.4492,0.1586c0,0,0.4238,0.1637,0.9502-0.0921
			c0.5263-0.2558,0.957-0.3326,0.622-0.44c-0.3349-0.1074-1.5449,0.0256-1.7431,0.0819c-0.1982,0.0563-0.1504,0.046-0.1846,0.2456
			c-0.0342,0.1995-0.2598,0.6191-0.3418,0.7419c-0.082,0.1228-0.2803,0.6344,0.0889,0.8595
			C27.6222,33.2232,28.2073,33.2078,28.4972,33.0288z"/>
		<path d="M28.1829,31.2688c0,0-0.1848,0.0256-0.1506,0.0972c0.0342,0.0716,0.0824,0.0614,0.1506,0.0665
			c0.0682,0.0051,0.1707-0.0358,0.1844-0.0819C28.381,31.3046,28.2515,31.2535,28.1829,31.2688z"/>
		<path class="st3" d="M28.4493,32.8497c0,0-0.3828-0.1842,0.0478-0.4195c0.4306-0.2353,0.8955-0.4605,0.957-0.5577
			C29.4542,31.8725,29.2491,32.1641,28.4493,32.8497z"/>
	</g>
</g>
</svg>
