<?xml version="1.0" encoding="utf-8"?>
<!-- Generator: Adobe Illustrator 21.0.2, SVG Export Plug-In . SVG Version: 6.00 Build 0)  -->
<svg version="1.1" id="Layer_1" xmlns="http://www.w3.org/2000/svg" xmlns:xlink="http://www.w3.org/1999/xlink" x="0px" y="0px"
	 viewBox="0 0 335 335" style="enable-background:new 0 0 335 335;" xml:space="preserve">
<style type="text/css">
	.st0{fill:#004990;}
	.st1{fill:#FFFFFF;}
	.st2{fill:#EF3E42;}
</style>
<g>
	<g>
		<path class="st0" d="M197.73,2.78V19.4l-58.84,39.23h58.84v50.25h-59.07l59.07,39.38v19.25H168.7l-71.46-47.62v47.62H46.99v-47.62
			L0.85,150.63C0.28,156.18,0,161.81,0,167.5C0,260.01,75.01,335,167.51,335C260.01,335,335,260.01,335,167.5
			C335,85.32,275.8,17.01,197.73,2.78z M89.34,288.13l-17.22-18.1l-17.2,18.1l3.41-24.74l-24.86-2.16l21.47-12.75l-13.82-20.8
			l23.38,8.84l7.63-23.77l7.66,23.77l23.35-8.84l-13.82,20.8l21.47,12.75l-24.86,2.16L89.34,288.13z M269.02,164.72l-8.42-8.86
			l-8.42,8.86l1.71-12.11l-12.19-1.06l10.51-6.23l-6.75-10.16l11.39,4.33l3.74-11.63l3.75,11.63l11.4-4.33L269,145.33l10.52,6.23
			l-12.2,1.06L269.02,164.72z M167.51,0c-25.1,0-48.91,5.56-70.28,15.44v32.32l71.63-47.73C168.41,0.03,167.96,0,167.51,0z"/>
		<polygon class="st1" points="123.19,69.09 197.73,69.09 197.73,58.63 138.89,58.63 		"/>
		<polygon class="st1" points="86.77,112.9 86.77,167.5 97.24,167.5 97.24,119.88 		"/>
		<polygon class="st1" points="138.66,108.88 197.73,108.88 197.73,98.41 122.96,98.41 		"/>
		<path class="st1" d="M97.24,47.77V15.44c-3.55,1.65-7.04,3.4-10.47,5.28v34.03L97.24,47.77z"/>
		<path class="st1" d="M57.47,41.28c-2.9,2.52-5.74,5.11-8.46,7.84l8.46,5.63V41.28z"/>
		<path class="st1" d="M14.93,98.41c-0.89,1.95-1.74,3.94-2.57,5.95l8.91-5.95H14.93z"/>
		<polygon class="st1" points="46.99,119.88 46.99,167.5 57.47,167.5 57.47,112.9 		"/>
		<polygon class="st1" points="122.96,98.41 86.77,98.41 86.77,112.9 97.24,119.88 168.7,167.5 197.73,167.5 197.73,167.02 
			110.32,108.88 130.21,108.88 197.73,153.79 197.73,148.25 138.66,108.88 		"/>
		<path class="st1" d="M57.47,54.75l-8.46-5.63C42.81,55.3,37.15,61.99,32,69.09h25.47V54.75z"/>
		<path class="st1" d="M86.77,54.75v14.34h36.42l15.7-10.46l58.84-39.23V2.78c-1.09-0.2-2.15-0.41-3.24-0.58l-84.86,56.43H97.24
			v-4.99l80.18-53.32c-2.84-0.17-5.7-0.26-8.55-0.29L97.24,47.77L86.77,54.75z"/>
		<path class="st1" d="M57.47,112.9V98.41H21.27l-8.91,5.95c-3.16,7.73-5.73,15.74-7.72,24l29.29-19.48h13.06v4.55l-45.25,30.1
			c-0.34,2.36-0.66,4.73-0.9,7.11l46.15-30.76L57.47,112.9z"/>
		<path class="st2" d="M57.47,98.41v14.49v54.6h29.3v-54.6V98.41h36.19h74.77V69.09h-74.54H86.77V54.75V20.72
			c-10.51,5.8-20.32,12.71-29.3,20.56v13.47v14.34H32c-6.64,9.12-12.36,18.93-17.07,29.31h6.35H57.47z"/>
		<polygon class="st2" points="110.32,108.88 197.73,167.02 197.73,153.79 130.21,108.88 		"/>
		<path class="st2" d="M97.24,58.63h12.39L194.49,2.2c-5.62-0.91-11.31-1.55-17.07-1.88L97.24,53.64V58.63z"/>
		<path class="st2" d="M46.99,108.88H33.93L4.65,128.35c-1.19,4.98-2.16,10.03-2.9,15.17l45.25-30.1V108.88z"/>
		<polygon class="st1" points="89.31,248.48 103.13,227.68 79.78,236.52 72.12,212.76 64.49,236.52 41.11,227.68 54.93,248.48 
			33.46,261.23 58.33,263.39 54.92,288.13 72.12,270.03 89.34,288.13 85.92,263.39 110.78,261.23 		"/>
		<polygon class="st1" points="269,145.33 275.74,135.17 264.35,139.5 260.6,127.86 256.86,139.5 245.47,135.17 252.22,145.33 
			241.71,151.55 253.89,152.62 252.18,164.72 260.6,155.87 269.02,164.72 267.33,152.62 279.52,151.55 		"/>
	</g>
</g>
</svg>
