<?xml version="1.0" encoding="utf-8"?>
<!-- Generator: Adobe Illustrator 21.1.0, SVG Export Plug-In . SVG Version: 6.00 Build 0)  -->
<svg version="1.1" id="Layer_1" xmlns="http://www.w3.org/2000/svg" xmlns:xlink="http://www.w3.org/1999/xlink" x="0px" y="0px"
	 viewBox="0 0 60 60" style="enable-background:new 0 0 60 60;" xml:space="preserve">
<style type="text/css">
	.st0{fill:#01AD68;}
	.st1{fill:#0092C7;}
	.st2{fill:#E90538;}
	.st3{fill:#FFFFFF;}
</style>
<g>
	<g>
		<path class="st0" d="M29.9987,60c12.1045,0,22.5298-7.1746,27.2687-17.4995H2.7259C7.4675,52.8254,17.8928,60,29.9987,60z"/>
		<path class="st1" d="M29.9987,0C17.8928,0,7.4675,7.1753,2.7259,17.5007h54.5415C52.5285,7.1753,42.1032,0,29.9987,0z"/>
		<path class="st2" d="M0,30.0001c0,4.4634,0.9783,8.6944,2.7259,12.5004h54.5415C59.0163,38.6944,60,34.4635,60,30.0001
			c0-4.4615-0.9837-8.6931-2.7326-12.4993H2.7259C0.9783,21.3069,0,25.5386,0,30.0001z"/>
		<g>
			<path class="st3" d="M26.0037,19.7075c3.0997-0.4846,6.272,0.719,8.5221,2.8184c-1.8749-0.7419-3.936-1.5385-5.9799-1.0394
				c-3.8088,0.5964-6.9448,4.0313-7.1674,7.891c-0.4235,4.2725,2.915,8.5223,7.1674,9.1562c2.0613,0.52,4.105-0.2975,5.9799-1.0413
				c-2.9913,2.8774-7.7783,3.7888-11.5685,1.9688c-4.3997-1.9325-6.981-7.2243-5.756-11.8639
				C18.1487,23.4914,21.7874,20.1161,26.0037,19.7075L26.0037,19.7075z"/>
			<path class="st3" d="M37.7396,24.7176c0.0362,0,0.1099,0,0.1448,0c0.4261,0.8182,0.6714,1.7088,0.9502,2.5799
				c0.981-0.3478,1.9272-0.7966,2.8921-1.1901c-0.4075,0.9663-0.8886,1.8977-1.225,2.8814
				c0.8886,0.2782,1.7851,0.5181,2.5999,0.9483c0,0.0349,0,0.1065,0,0.1474c-0.8148,0.4254-1.7113,0.666-2.5797,0.9435
				c0.355,0.9891,0.7973,1.9332,1.1874,2.9002c-0.9637-0.4081-1.8937-0.8913-2.8747-1.2263
				c-0.2789,0.8905-0.5241,1.7858-0.9502,2.598c-0.0349,0-0.1086,0-0.1448,0c-0.4302-0.8122-0.6714-1.7075-0.9514-2.5812
				c-0.9825,0.3552-1.9313,0.8015-2.8922,1.1908c0.4075-0.9663,0.89-1.8923,1.225-2.8814
				c-0.8926-0.2775-1.7864-0.5181-2.5999-0.9435c0-0.0409,0-0.1125,0-0.1474c0.8135-0.4302,1.7073-0.6701,2.5758-0.9483
				c-0.3524-0.9837-0.7934-1.9319-1.1834-2.8995c0.9623,0.4116,1.8923,0.8953,2.8748,1.2263
				C37.0682,26.4265,37.3093,25.5358,37.7396,24.7176L37.7396,24.7176z"/>
		</g>
	</g>
</g>
</svg>
