<?xml version="1.0" encoding="utf-8"?>
<!-- Generator: Adobe Illustrator 21.1.0, SVG Export Plug-In . SVG Version: 6.00 Build 0)  -->
<svg version="1.1" id="Layer_1" xmlns="http://www.w3.org/2000/svg" xmlns:xlink="http://www.w3.org/1999/xlink" x="0px" y="0px"
	 viewBox="0 0 60 60" style="enable-background:new 0 0 60 60;" xml:space="preserve">
<style type="text/css">
	.st0{clip-path:url(#SVGID_2_);fill:#00267F;}
	.st1{clip-path:url(#SVGID_2_);fill:#FFC726;}
</style>
<g>
	<defs>
		<circle id="SVGID_1_" cx="30" cy="30" r="30"/>
	</defs>
	<clipPath id="SVGID_2_">
		<use xlink:href="#SVGID_1_"  style="overflow:visible;"/>
	</clipPath>
	<rect class="st0" width="20" height="60"/>
	<rect x="20" class="st1" width="20" height="60"/>
	<rect x="40" class="st0" width="20" height="60"/>
</g>
<path d="M38.0986,23.2405c-1.5161,0.3136-3.1042,1.0422-4.184,2.1573c-0.1234,0.1543,0.6697-0.1613,0.7404-0.1782
	c0.6002-0.1464-1.6446,7.4055-1.6446,7.4055l-2.0229-0.2982v-7.1721c0.4747-0.0142,1.2172,0.1111,1.6398,0.2545
	c-1.3663-1.3637-2.6268-4.8456-2.6268-4.8456s-1.262,3.4745-2.6274,4.834c0.4237-0.1381,1.1651-0.2614,1.6373-0.2509v7.17
	l-2.0235,0.3029c0,0-2.249-7.5214-1.644-7.4055c0.0717,0.0148,0.8674,0.3331,0.7414,0.1771
	c-1.0781-1.1166-2.6685-1.848-4.1835-2.1594c-0.137-0.0269-0.2081,0.03-0.0933,0.1913c2.1721,3.0282,3.7134,11.1883,3.7134,11.1883
	l3.4894-0.4674v5.2919h1.9772v-5.2814l3.4915,0.4637c0,0,1.5603-8.1454,3.7134-11.1852
	C38.3073,23.2695,38.2371,23.2131,38.0986,23.2405z"/>
<title>Flag of Barbados</title>
</svg>
