<?xml version="1.0" encoding="utf-8"?>
<!-- Generator: Adobe Illustrator 21.1.0, SVG Export Plug-In . SVG Version: 6.00 Build 0)  -->
<svg version="1.1" id="Layer_1" xmlns="http://www.w3.org/2000/svg" xmlns:xlink="http://www.w3.org/1999/xlink" x="0px" y="0px"
	 viewBox="0 0 60 60" style="enable-background:new 0 0 60 60;" xml:space="preserve">
<style type="text/css">
	.st0{fill:none;}
	.st1{fill:#FFFFFF;}
	.st2{fill:#00247D;}
	.st3{fill:#CF142B;}
	.st4{fill:#FFCC00;}
</style>
<g>
	<g>
		<path class="st0" d="M29.999,59.9337c-1.5823,0-3.13-0.118-4.6571-0.2953C26.8606,59.8752,28.4157,60,30,60
			c1.5861,0,3.1422-0.1248,4.6618-0.3616C33.1338,59.8157,31.5833,59.9337,29.999,59.9337z"/>
		<path class="st0" d="M27.7253,0.1384c0.7533-0.0419,1.5102-0.0712,2.2737-0.0712c0.7655,0,1.5224,0.0292,2.2766,0.0712
			c0.4768,0.0272,0.9509,0.0565,1.4221,0.1004c0.0777,0.0068,0.1536,0.0185,0.2314,0.0253C32.6419,0.0965,31.3331,0,30,0
			c-1.3116,0-2.5998,0.0935-3.8674,0.2563c0.0581-0.0049,0.1143-0.0136,0.1706-0.0185C26.7735,0.1949,27.2494,0.1647,27.7253,0.1384
			z"/>
		<path class="st1" d="M30.8807,36.9225c0.6726,0.0536,1.3472,0.151,2.0217,0.3285c0.1012-0.6297,0.1874-1.2759,0.2379-1.9631
			c0.0947-1.3208,0.0487-2.6844-0.0205-4.0285c-0.8919-0.389-1.7519-0.6151-2.6055-0.6804L30.8807,36.9225z"/>
		<path class="st1" d="M28.3868,43.1841c0.0712,1.08,0.1349,1.8364,0.2248,2.5109l0.1499-2.5869
			C28.6359,43.1315,28.5104,43.1548,28.3868,43.1841z"/>
		<path class="st1" d="M31.3922,45.7632c0.0449-0.617,0.1349-1.3587,0.3101-2.4992c0.0028-0.0205,0.0065-0.0399,0.0104-0.0595
			c-0.1593-0.0399-0.3157-0.0673-0.4741-0.0965L31.3922,45.7632z"/>
		<path class="st1" d="M25.8198,46.0059c-0.0216-0.4816-0.0244-1.0517-0.0057-1.8266c-0.0974,0.0468-0.1958,0.0887-0.2941,0.1325
			L25.8198,46.0059z"/>
		<path class="st1" d="M24.45,38.2666c0.6268-0.31,1.2489-0.5566,1.8691-0.7633c0.0328-0.6999,0.0478-1.4162,0.014-2.1717
			c-0.0562-1.2037-0.2285-2.4251-0.4282-3.6298c-0.8216,0.3977-1.6386,0.7164-2.4499,0.9338L24.45,38.2666z"/>
		<path class="st1" d="M29.4866,30.579c-0.8206,0.0624-1.6488,0.271-2.5042,0.6336c0.3513,1.3373,0.6904,2.7438,0.8628,4.0236
			c0.0843,0.6258,0.1452,1.2301,0.1968,1.8248c0.3598-0.0634,0.7195-0.1102,1.0773-0.1384L29.4866,30.579z"/>
		<path class="st1" d="M36.5449,32.6357c-0.7364-0.1969-1.4746-0.4845-2.2176-0.8285c0.1639,1.2311,0.3027,2.4933,0.3233,3.6386
			c0.014,0.8324-0.0057,1.6248-0.0375,2.3998c0.311,0.1287,0.622,0.2661,0.935,0.4211L36.5449,32.6357z"/>
		<path class="st1" d="M51.8962,47.7146c-0.2941,0.6345-0.5687,1.233-0.83,1.8275c0.148,0.0283,0.2979,0.0536,0.4469,0.0877
			l2.967-4.8951c-0.3532-0.1306-0.7111-0.2876-1.068-0.4512C52.9211,45.503,52.4039,46.6239,51.8962,47.7146z"/>
		<path class="st1" d="M44.2739,31.9855c-0.9425,0.4054-1.8774,0.6891-2.8106,0.8568c0.0263,1.3364,0.0244,2.7195-0.103,3.9438
			c-0.0815,0.8314-0.194,1.618-0.3148,2.3841c0.3804-0.0857,0.7644-0.1959,1.1551-0.3451L44.2739,31.9855z"/>
		<path class="st1" d="M39.9138,45.4484c-0.1012,0.6414-0.1743,1.1628-0.2229,1.6463l0.5059-1.6639
			C40.1012,45.4367,40.0084,45.4454,39.9138,45.4484z"/>
		<path class="st1" d="M46.7116,43.379c-0.1199,0.3812-0.2417,0.7594-0.3625,1.1337c-0.2408,0.7476-0.4694,1.4562-0.6736,2.1551
			c-0.3157,1.0692-0.5208,1.8061-0.6688,2.4845l2.67-6.0267C47.359,43.1879,47.0367,43.2718,46.7116,43.379z"/>
		<path class="st1" d="M42.3487,48.0781c0.1864-0.578,0.4431-1.2632,0.876-2.3042c0.1555-0.3801,0.3269-0.7466,0.4984-1.1131
			c-0.2707,0.1043-0.5406,0.1804-0.8113,0.2632L42.3487,48.0781z"/>
		<path class="st1" d="M46.8465,37.0998c0.2586-1.0683,0.4629-2.1678,0.6577-3.2449c0.2192-1.1949,0.4282-2.3188,0.6914-3.2565
			c-0.9416,0.1121-1.8962,0.4182-2.8967,0.9251l-1.1449,6.4264C45.0562,37.557,45.9537,37.2743,46.8465,37.0998z"/>
		<path class="st1" d="M34.2252,44.1968c-0.0291,0.6832-0.0403,1.2272-0.0318,1.731l0.2848-1.616
			C34.3939,44.2738,34.3095,44.2368,34.2252,44.1968z"/>
		<path class="st1" d="M37.7394,32.8813l-0.3625,6.1358c0.5845,0.1784,1.1597,0.2827,1.7322,0.3158
			c0.297-0.9221,0.5734-1.887,0.7785-2.9553c0.2099-1.0985,0.3214-2.2458,0.4047-3.3901
			C39.4407,33.0489,38.591,33.0187,37.7394,32.8813z"/>
		<path class="st1" d="M54.0622,38.0483c0.0731-0.232,0.1462-0.4649,0.2174-0.696c0.4047-1.3119,0.786-2.5489,1.2245-3.4894
			c0.1976-0.425,0.3794-0.7788,0.5536-1.0985c-0.9237-0.2106-1.8587-0.543-2.8096-0.9913l-1.6498,5.4136
			C52.4161,37.3796,53.2378,37.673,54.0622,38.0483z"/>
		<path class="st1" d="M36.9383,46.4621c0.0675-0.3528,0.1612-0.7564,0.2829-1.2456c-0.0693-0.0137-0.1386-0.0245-0.207-0.04
			L36.9383,46.4621z"/>
		<path class="st1" d="M48.2387,36.9147c0.7232-0.0507,1.4484-0.0517,2.1735,0.0428l2.389-5.3872
			c-0.0178-0.0088-0.0338-0.0147-0.0507-0.0235c-1.3303-0.6813-2.5763-1.0117-3.8242-0.9981
			c-0.1592,0.9309-0.2679,2.1054-0.3785,3.3521C48.4616,34.8678,48.3643,35.9019,48.2387,36.9147z"/>
		<path class="st1" d="M22.79,45.2144c0.0899,0.4406,0.1761,0.8216,0.268,1.1755l-0.0722-1.2135
			C22.9192,45.1911,22.8555,45.2007,22.79,45.2144z"/>
		<path class="st1" d="M16.5665,44.7553c0.0824,0.2788,0.164,0.5575,0.2501,0.8285c0.3336,1.0634,0.5715,1.7867,0.8225,2.4231
			l-0.5489-3.082C16.914,44.8713,16.7407,44.8177,16.5665,44.7553z"/>
		<path class="st1" d="M10.178,43.0194c-0.3373,0.0428-0.6764,0.1072-1.0193,0.2017c0.4797,1.0147,0.9069,2.0099,1.3191,2.9827
			c0.3035,0.7164,0.5892,1.3929,0.8862,2.043c0.1948,0.4269,0.3598,0.7856,0.5153,1.1131c0.0788,0.0069,0.1574,0.0078,0.2343,0.0156
			L10.178,43.0194z"/>
		<path class="st1" d="M12.1622,33.5919c0.6549,1.1667,1.3716,2.4573,1.9412,3.7127c0.5762,0.1667,1.1579,0.386,1.7425,0.6433
			l-1.1429-6.4234c-1.4653-0.7437-2.79-1.0586-4.1316-0.9699c0.0076,0.0195,0.0141,0.0351,0.0225,0.0546
			C10.9715,31.4699,11.5496,32.5001,12.1622,33.5919z"/>
		<path class="st1" d="M5.252,25.9198c2.8322-1.4523,5.4993-1.8441,8.2378-1.2076l-0.0103-0.0653l0.0177-0.0069l0.0235,0.078
			c1.0624,0.2495,2.1332,0.6385,3.2303,1.2018c0.1686,0.0868,0.3316,0.1521,0.4965,0.2272
			c-0.0319-1.0108,0.0965-1.7545,0.3448-2.6893l0.0187,0.0049c-0.0918,1.0887-0.1284,1.8062,0.0788,2.8853
			c1.4408,0.574,2.8077,0.7028,4.2102,0.4152l-0.2483-4.2001l0.0198-0.003l0.7251,4.0949c0.6052-0.1667,1.2198-0.4094,1.8532-0.735
			c0.3091-0.1579,0.6183-0.2827,0.9256-0.4161c0.0244-1.4797,0.2463-2.3248,0.6876-3.431l0.0187,0.0087
			c-0.237,1.1668-0.3598,1.8968-0.2276,3.2059c1.4062-0.5498,2.7974-0.8285,4.1868-0.849l0.1508-2.5733h0.0197l0.148,2.5733
			c1.0118,0.0146,2.0274,0.1774,3.0448,0.4737c0.2015-1.1863,0.5087-1.9203,1.0137-2.8326l0.0159,0.0117
			c-0.3542,1.0673-0.5593,1.7535-0.594,2.9622c0.6998,0.23,1.4016,0.5039,2.1099,0.8665c0.6323,0.3256,1.2488,0.5683,1.854,0.735
			l0.7251-4.0949l0.0188,0.003l-0.2473,4.2001c0.9668,0.1978,1.9205,0.1929,2.8873-0.0186
			c0.3766-1.5459,0.7926-2.3071,1.5027-3.2662l0.0151,0.0126c-0.5107,1.0723-0.7992,1.7458-0.9707,3.1182
			c0.5622-0.1657,1.129-0.388,1.7164-0.6892c1.083-0.5555,2.1548-0.9396,3.2218-1.1843l0.0291-0.0955l0.0112,0.0029v0.001
			l0.0112,0.003l-0.015,0.0818c2.7431-0.6219,5.4562-0.2369,8.2387,1.191c1.8118,0.9279,3.4064,1.2087,5.0787,0.8715
			c-0.2332-2.1912-0.7073-4.3093-1.3856-6.3327H33.6978h-1.4221h-4.5503h-1.4221H1.5589C0.8807,22.4819,0.4066,24.6,0.1734,26.7912
			C1.8456,27.1285,3.442,26.8477,5.252,25.9198z"/>
		<path class="st1" d="M56.5636,32.8647c-0.1462,0.3674-0.2942,0.7943-0.4554,1.3178c-0.2847,0.9113-0.5359,2.1161-0.8019,3.39
			c-0.0637,0.3071-0.1331,0.6287-0.2015,0.9475c0.9229,0.4367,1.795,0.7086,2.6523,0.8071l1.4146-2.3335
			c0.3138-1.3169,0.5471-2.664,0.682-4.0422C58.7558,33.0869,57.6634,33.0636,56.5636,32.8647z"/>
		<path class="st1" d="M15.0253,49.2244c-0.1687-0.5858-0.3391-1.309-0.5677-2.4398c-0.1986-0.9854-0.3269-1.9552-0.4628-2.9836
			c-0.0075-0.0575-0.015-0.117-0.0224-0.1745c-0.5677-0.2407-1.1177-0.4094-1.6582-0.5176L15.0253,49.2244z"/>
		<path class="st1" d="M47.8789,49.3979c0.0825-0.0088,0.1659-0.0098,0.2492-0.0166c0.1518-0.2807,0.3185-0.5819,0.5237-0.9386
			c0.4806-0.8363,0.9959-1.5996,1.543-2.4076c0.533-0.7856,1.0755-1.5996,1.5917-2.4895c-0.6689-0.2651-1.3228-0.4308-1.9703-0.5087
			L47.8789,49.3979z"/>
		<path class="st1" d="M17.7993,38.8242c0.7065,0.2709,1.395,0.4298,2.0789,0.4932c-0.044-0.9026-0.1227-1.8315-0.2829-2.8072
			c-0.1995-1.2213-0.5274-2.4388-0.8769-3.6328c-0.9921-0.1608-1.9899-0.46-2.9923-0.8908L17.7993,38.8242z"/>
		<path class="st1" d="M8.3633,46.9533c-0.2539-1.005-0.5237-2.0333-0.8685-3.0821c-0.0824,0.0399-0.1612,0.0692-0.2454,0.1121
			c-0.5828,0.2992-1.1571,0.54-1.7295,0.7506l2.9586,4.8814c0.1986-0.0458,0.3935-0.0809,0.5902-0.117
			C8.8084,48.6659,8.5873,47.8306,8.3633,46.9533z"/>
		<path class="st1" d="M4.9148,38.5113c-0.0937-0.156-0.1855-0.3139-0.2793-0.4688c-0.682-1.1337-1.3246-2.2058-1.7312-3.1659
			c-0.3111-0.7359-0.5247-1.3296-0.6746-1.8627c-0.6942,0.0477-1.3875,0.0224-2.0835-0.0634
			c0.1349,1.3763,0.3672,2.7215,0.681,4.0363l1.4175,2.3404C3.1085,39.2277,3.9854,38.9528,4.9148,38.5113z"/>
		<path class="st1" d="M22.2606,32.8813c-0.7448,0.1199-1.4905,0.1588-2.2344,0.1277c0.4075,1.0556,0.7944,2.1366,1.0558,3.1532
			c0.2745,1.0614,0.4825,2.0781,0.6623,3.0684c0.2905-0.0527,0.5828-0.1238,0.8788-0.2135L22.2606,32.8813z"/>
		<path class="st1" d="M5.3626,37.1486c0.208,0.2798,0.4272,0.5722,0.6445,0.8666c0.8057-0.3636,1.6021-0.6521,2.3899-0.8431
			l-1.6451-5.4c-1.3856,0.6561-2.7394,1.0644-4.0791,1.2126c0.194,0.423,0.4413,0.8908,0.7898,1.4718
			C3.9367,35.2459,4.6281,36.168,5.3626,37.1486z"/>
		<path class="st1" d="M12.4199,36.9362c-0.3382-0.8744-0.7111-1.736-1.0793-2.5791c-0.5443-1.238-1.0577-2.4057-1.3482-3.4252
			c-0.0309-0.1091-0.0543-0.2027-0.0824-0.305c-0.8563,0.1422-1.7294,0.4425-2.6606,0.9201
			c-0.0159,0.0088-0.0338,0.0147-0.0507,0.0235l2.3787,5.3668C10.5265,36.8104,11.4708,36.8094,12.4199,36.9362z"/>
		<path class="st1" d="M20.3279,47.1609c-0.0741-0.4542-0.1405-0.9864-0.208-1.7097c-0.105-0.0039-0.2117-0.0146-0.3167-0.0205
			L20.3279,47.1609z"/>
		<path class="st2" d="M33.6978,20.4585h24.7433c-0.0768-0.2282-0.1499-0.4571-0.2305-0.6833l-24.5128-5.8688V20.4585z"/>
		<path class="st2" d="M26.3032,13.9053L1.7903,19.7752c-0.0815,0.2262-0.1546,0.4551-0.2314,0.6833h24.7443V13.9053z"/>
		<path class="st2" d="M26.3032,0.2379c-0.0562,0.0049-0.1124,0.0136-0.1706,0.0185c-3.9404,0.5078-7.639,1.7779-10.9481,3.6611
			l11.1187,2.663V0.2379z"/>
		<path class="st2" d="M33.6978,6.5804l11.1177-2.663c-3.2902-1.8735-6.9683-3.1396-10.8863-3.6533
			c-0.0778-0.0068-0.1537-0.0185-0.2314-0.0253V6.5804z"/>
		<path class="st2" d="M35.5481,38.2666c-0.3129-0.155-0.624-0.2924-0.935-0.4211c-0.045,1.0936-0.119,2.1463-0.1948,3.1717
			c-0.06,0.7993-0.1153,1.5557-0.1537,2.2945c-0.015,0.3237-0.0299,0.6131-0.0393,0.8851c0.0843,0.0399,0.1687,0.077,0.253,0.115
			L35.5481,38.2666z"/>
		<path class="st2" d="M31.2385,43.108c0.1584,0.0292,0.3148,0.0566,0.4741,0.0965c0.1518-0.9757,0.3598-1.9085,0.5827-2.8919
			c0.2182-0.9815,0.4384-1.9914,0.6071-3.0616c-0.6745-0.1775-1.3491-0.2749-2.0217-0.3285L31.2385,43.108z"/>
		<path class="st2" d="M8.397,37.172c-0.7878,0.191-1.5842,0.4795-2.3899,0.8431c0.7889,1.0673,1.5964,2.2087,2.2007,3.316
			c0.3476,0.6404,0.6567,1.2681,0.9509,1.8899c0.3429-0.0945,0.682-0.1589,1.0193-0.2017L8.397,37.172z"/>
		<path class="st2" d="M53.412,44.2836c0.357,0.1637,0.7148,0.3207,1.068,0.4512l3.2771-5.4077
			c-0.8573-0.0985-1.7294-0.3704-2.6523-0.8071c-0.3081,1.4357-0.6567,2.9455-1.1045,4.2166
			C53.8111,43.2747,53.6135,43.7855,53.412,44.2836z"/>
		<path class="st2" d="M18.7184,32.8773c-0.103-0.3528-0.208-0.7047-0.311-1.0526c-0.3953-1.3169-0.7663-2.5597-0.9359-3.6163
			c-0.1339-0.8324-0.2042-1.4894-0.2239-2.0615c-0.1648-0.0751-0.3279-0.1403-0.4965-0.2272
			c-1.0971-0.5633-2.1679-0.9523-3.2303-1.2018l2.2053,7.2686C16.7285,32.4173,17.7263,32.7165,18.7184,32.8773z"/>
		<path class="st2" d="M33.1198,31.2594c-0.0151-0.2896-0.03-0.581-0.045-0.8686c-0.0731-1.3948-0.1462-2.7117-0.0674-3.7839
			c0.0506-0.6706,0.1162-1.2164,0.1967-1.695c-1.0174-0.2963-2.0329-0.4591-3.0448-0.4737l0.3551,6.1407
			C31.3678,30.6442,32.2279,30.8704,33.1198,31.2594z"/>
		<path class="st2" d="M41.4297,31.3909c0.0131,0.4698,0.0252,0.9572,0.0337,1.4514c0.9332-0.1677,1.8681-0.4513,2.8106-0.8568
			l2.1988-7.25c-1.0671,0.2446-2.1389,0.6287-3.2218,1.1843c-0.5874,0.3012-1.1542,0.5235-1.7164,0.6892
			c-0.0468,0.3655-0.0852,0.77-0.1162,1.2583C41.3584,28.8361,41.3922,30.077,41.4297,31.3909z"/>
		<path class="st2" d="M33.6687,26.6031c0.0515,0.9718,0.2305,2.1942,0.4188,3.4885c0.0796,0.5527,0.1621,1.1307,0.2398,1.7156
			c0.743,0.344,1.4812,0.6316,2.2176,0.8285l1.0586-5.9809c-0.6052-0.1667-1.2217-0.4094-1.854-0.735
			c-0.7083-0.3625-1.41-0.6365-2.1099-0.8665C33.6275,25.489,33.6359,25.988,33.6687,26.6031z"/>
		<path class="st2" d="M40.2923,32.9875c0.0366-0.4913,0.0694-0.9825,0.0975-1.4689c0.0881-1.3958,0.1705-2.7107,0.3757-3.7595
			c0.074-0.3792,0.1471-0.7067,0.222-1.0147c-0.9668,0.2115-1.9205,0.2164-2.8873,0.0186l-0.3607,6.1183
			C38.591,33.0187,39.4407,33.0489,40.2923,32.9875z"/>
		<path class="st2" d="M54.748,25.9198c-2.7825-1.4279-5.4956-1.813-8.2387-1.191l-1.2104,6.7948
			c1.0005-0.5068,1.9551-0.813,2.8967-0.9251c0.0393-0.1344,0.0749-0.2788,0.1152-0.4054c0.7092-2.1854,1.231-2.9544,2.2082-3.9515
			l0.013,0.0156c-0.8,1.238-1.1691,1.8803-1.5842,4.1524c-0.0084,0.0438-0.0141,0.0955-0.0216,0.1393
			c1.2479-0.0136,2.4939,0.3168,3.8242,0.9981c0.0169,0.0088,0.0328,0.0147,0.0507,0.0235l1.556-3.511l0.0178,0.0107l-1.127,3.703
			c0.9509,0.4484,1.8859,0.7807,2.8096,0.9913c0.6708-1.2233,1.232-1.7945,2.0892-2.4476l0.0104,0.0176
			c-0.7102,0.8294-1.1345,1.3646-1.5936,2.5304c1.0998,0.1988,2.1922,0.2222,3.2902,0.0867C59.9485,31.9796,60,30.9952,60,29.9991
			c0-1.084-0.0609-2.1541-0.1734-3.2078C58.1544,27.1285,56.5598,26.8477,54.748,25.9198z"/>
		<path class="st2" d="M7.4948,43.8713c-0.1864-0.5663-0.3897-1.1366-0.6361-1.7165c-0.5424-1.2652-1.2422-2.4719-1.9439-3.6435
			c-0.9294,0.4416-1.8063,0.7164-2.67,0.8159l3.2752,5.4068c0.5724-0.2106,1.1467-0.4513,1.7295-0.7506
			C7.3337,43.9404,7.4124,43.9112,7.4948,43.8713z"/>
		<path class="st2" d="M25.52,44.3118c0.0983-0.0438,0.1968-0.0857,0.2941-0.1325c0.0057-0.2223,0.0122-0.4494,0.0216-0.7096
			c0.0346-1.0128,0.1377-1.9884,0.2445-3.0207c0.0974-0.9504,0.1911-1.9261,0.2389-2.9456
			c-0.6202,0.2066-1.2423,0.4532-1.8691,0.7633L25.52,44.3118z"/>
		<path class="st2" d="M50.9771,49.7362c-0.4375,1.0088-0.726,1.7048-0.9546,2.353l1.4905-2.4593
			c-0.149-0.0341-0.2988-0.0594-0.4469-0.0877C51.039,49.6055,51.0043,49.6738,50.9771,49.7362z"/>
		<path class="st2" d="M15.846,37.9478c-0.5846-0.2573-1.1664-0.4766-1.7425-0.6433c0.1368,0.3031,0.2754,0.6063,0.3916,0.9026
			c0.7138,1.8218,1.2039,3.5421,1.6807,5.2041c0.1321,0.4639,0.2624,0.9074,0.3907,1.3441c0.1742,0.0624,0.3476,0.116,0.5237,0.1697
			L15.846,37.9478z"/>
		<path class="st2" d="M42.9118,44.924c0.2707-0.0828,0.5406-0.1589,0.8113-0.2632c0.2408-0.5058,0.4881-1.0098,0.7476-1.5274
			c0.6961-1.3841,1.4184-2.814,1.9702-4.5519c0.1545-0.4815,0.2848-0.9796,0.4056-1.4816c-0.8928,0.1745-1.7903,0.4571-2.6925,0.85
			L42.9118,44.924z"/>
		<path class="st2" d="M19.3105,31.2018c0.2343,0.579,0.4778,1.1902,0.7158,1.8072c0.7439,0.0311,1.4896-0.0078,2.2344-0.1277
			l-0.3607-6.1183c-1.4024,0.2876-2.7693,0.1588-4.2102-0.4152c0.0889,0.4629,0.2192,0.9844,0.4141,1.6414
			C18.3774,28.9024,18.8317,30.0204,19.3105,31.2018z"/>
		<path class="st2" d="M42.2007,38.8251c-0.3907,0.1491-0.7748,0.2593-1.1551,0.3451c-0.1724,1.0713-0.3664,2.0956-0.5603,3.0938
			c-0.15,0.7827-0.2942,1.5235-0.4179,2.2488c-0.058,0.345-0.1086,0.6492-0.1536,0.9357c0.0946-0.003,0.1874-0.0117,0.2829-0.0176
			L42.2007,38.8251z"/>
		<path class="st2" d="M26.6657,30.0292c0.104,0.3841,0.2108,0.7817,0.3167,1.1834c0.8553-0.3626,1.6835-0.5712,2.5042-0.6336
			l0.3542-6.1407c-1.3894,0.0205-2.7806,0.2992-4.1868,0.849c0.0403,0.3928,0.1012,0.8314,0.1921,1.3577
			C26.0099,27.5973,26.3294,28.7787,26.6657,30.0292z"/>
		<path class="st2" d="M22.6232,39.0171c-0.296,0.0897-0.5883,0.1608-0.8788,0.2135c0.1462,0.8041,0.2754,1.5927,0.3982,2.3646
			c0.1284,0.7886,0.2473,1.5342,0.3812,2.2574c0.0993,0.5254,0.1836,0.966,0.2661,1.3617c0.0655-0.0137,0.1292-0.0234,0.1958-0.038
			L22.6232,39.0171z"/>
		<path class="st2" d="M25.905,31.7018c-0.0665-0.4045-0.1367-0.8081-0.2061-1.2076c-0.2371-1.3676-0.461-2.662-0.5068-3.7381
			c-0.0197-0.4727-0.0234-0.8781-0.0169-1.2524c-0.3073,0.1334-0.6165,0.2582-0.9256,0.4161
			c-0.6333,0.3256-1.2479,0.5683-1.8532,0.735l1.0586,5.9809C24.2664,32.4183,25.0834,32.0995,25.905,31.7018z"/>
		<path class="st2" d="M29.1193,36.9225c-0.3578,0.0282-0.7176,0.0751-1.0773,0.1384c0.1133,1.2944,0.1724,2.5293,0.223,3.7322
			c0.0338,0.8022,0.0647,1.5596,0.1143,2.2975c0.0019,0.034,0.0047,0.0614,0.0076,0.0935c0.1237-0.0292,0.2491-0.0526,0.3747-0.0761
			L29.1193,36.9225z"/>
		<path class="st2" d="M11.8793,49.3599c0.2089,0.4387,0.3953,0.812,0.5799,1.1492l-0.3457-1.1337
			C12.0367,49.3677,11.9581,49.3668,11.8793,49.3599z"/>
		<path class="st2" d="M49.8163,43.0369c0.6475,0.078,1.3014,0.2436,1.9703,0.5087c0.3081-0.5302,0.6099-1.081,0.8909-1.6882
			c0.5499-1.1969,0.98-2.509,1.3846-3.8092c-0.8243-0.3753-1.646-0.6686-2.4639-0.8617L49.8163,43.0369z"/>
		<path class="st2" d="M37.0142,45.1764c0.0684,0.0156,0.1378,0.0264,0.207,0.04c0.0881-0.346,0.1875-0.7223,0.3139-1.1795
			c0.267-0.963,0.5892-1.8666,0.9312-2.8238c0.2164-0.6111,0.4337-1.236,0.6427-1.8802c-0.5724-0.0331-1.1477-0.1374-1.7322-0.3158
			L37.0142,45.1764z"/>
		<path class="st2" d="M9.5775,36.937l2.7366,6.1719c0.5405,0.1082,1.0905,0.2769,1.6582,0.5176
			c-0.2015-1.5411-0.4197-3.1347-0.9097-4.8269c-0.1817-0.6286-0.4038-1.2495-0.6427-1.8636
			C11.4708,36.8094,10.5265,36.8104,9.5775,36.937z"/>
		<path class="st2" d="M2.2297,33.0139c-0.2754-0.9825-0.326-1.7477-0.3035-2.7439l0.0206-0.0019
			c0.1612,1.0663,0.2886,1.7643,0.726,2.7166c1.3397-0.1482,2.6935-0.5565,4.0791-1.2126l-1.128-3.702l0.0187-0.0107l1.5561,3.511
			c0.0169-0.0088,0.0347-0.0147,0.0507-0.0235c0.9312-0.4776,1.8043-0.7778,2.6606-0.9201
			c-0.5453-1.9982-0.5528-2.9769-0.3504-4.4195l0.0197,0.002c0.0515,1.5479,0.1133,2.3286,0.9921,4.3453
			c1.3416-0.0887,2.6663,0.2262,4.1316,0.9699l-1.2133-6.8123c-2.7384-0.6365-5.4056-0.2446-8.2378,1.2076
			c-1.81,0.9279-3.4064,1.2087-5.0786,0.8715C0.0609,27.8449,0,28.9151,0,29.9991c0,0.9961,0.0515,1.9806,0.1462,2.9514
			C0.8422,33.0362,1.5355,33.0616,2.2297,33.0139z"/>
		<path class="st2" d="M19.8033,45.4308c0.1049,0.0059,0.2117,0.0166,0.3167,0.0205c-0.0225-0.2456-0.046-0.5078-0.0712-0.8012
			c-0.0825-1.0089-0.0947-1.9913-0.1087-3.0314c-0.0112-0.7516-0.0226-1.5167-0.0619-2.3014
			c-0.6839-0.0634-1.3724-0.2223-2.0789-0.4932L19.8033,45.4308z"/>
		<path class="st2" d="M50.4122,36.9575c-0.7251-0.0945-1.4502-0.0935-2.1735-0.0428c-0.1012,0.8032-0.2211,1.5946-0.3813,2.3169
			c-0.3345,1.5011-0.7354,2.852-1.1458,4.1474c0.3251-0.1072,0.6474-0.191,0.965-0.2534L50.4122,36.9575z"/>
		<path class="st2" d="M9.0687,49.4983c-0.1967,0.036-0.3916,0.0712-0.5902,0.117l1.5327,2.5303
			C9.777,51.594,9.524,50.9088,9.1681,49.8317C9.1324,49.7215,9.1035,49.6094,9.0687,49.4983z"/>
		<path class="st2" d="M47.5174,50.5803c0.1583-0.3402,0.3531-0.7262,0.6108-1.1989c-0.0834,0.0068-0.1667,0.0078-0.2492,0.0166
			L47.5174,50.5803z"/>
		<path class="st1" d="M33.6978,6.8377h2.4573l9.6759-2.3179c-0.3336-0.2076-0.6727-0.4074-1.0156-0.6024l-11.1177,2.663V6.8377z"/>
		<path class="st1" d="M49.0659,6.8377c-0.37-0.3061-0.7486-0.6024-1.1345-0.8899l-3.7137,0.8899H49.0659z"/>
		<path class="st1" d="M26.3032,13.649h-2.4583L2.153,18.8423c-0.1238,0.31-0.2492,0.6189-0.3626,0.9328l24.5129-5.8698V13.649z"/>
		<path class="st1" d="M4.8529,13.649c-0.6333,0.9728-1.2132,1.9836-1.7331,3.0304l12.6569-3.0304H4.8529z"/>
		<polygon class="st1" points="26.3032,13.649 26.3032,13.9053 26.3032,20.4585 27.7253,20.4585 27.7253,13.649 		"/>
		<polygon class="st1" points="32.6223,13.649 32.2757,13.649 32.2757,20.4585 33.6978,20.4585 33.6978,13.9063 		"/>
		<path class="st1" d="M32.3693,5.5403l0.0019,0.0282l0.117,1.2691h1.2095V6.5804V0.2388
			c-0.4712-0.0439-0.9453-0.0732-1.4221-0.1004v5.5432L32.3693,5.5403z"/>
		<path class="st1" d="M27.7253,5.6827V0.1384c-0.4759,0.0263-0.9518,0.0565-1.4221,0.0994v6.3425l1.0746,0.2573h0.1331
			l0.1199-1.2973L27.7253,5.6827z"/>
		<path class="st1" d="M32.6223,13.649l1.0755,0.2573l24.5128,5.8688c-0.3859-1.0615-0.8318-2.0927-1.3303-3.0948L44.2214,13.649
			H32.6223z"/>
		<path class="st1" d="M55.6643,14.4571c-0.1668-0.2739-0.343-0.54-0.5172-0.8081h-2.8584L55.6643,14.4571z"/>
		<path class="st1" d="M27.3777,6.8377l-1.0746-0.2573l-11.1187-2.663c-1.0811,0.616-2.1247,1.2906-3.1169,2.0314l3.7109,0.8889
			H27.3777z"/>
		<path class="st3" d="M15.7766,13.649L3.1198,16.6794c-0.3504,0.7058-0.6717,1.427-0.9668,2.1629l21.6919-5.1933H15.7766z"/>
		<path class="st3" d="M44.2177,6.8377l3.7137-0.8899c-0.6764-0.5059-1.38-0.9797-2.1004-1.428l-9.6759,2.3179H44.2177z"/>
		<path class="st3" d="M12.0676,5.9488c-0.3851,0.2875-0.7626,0.5838-1.1326,0.8889h4.8435L12.0676,5.9488z"/>
		<path class="st3" d="M44.2214,13.649l12.6588,3.0314c-0.3765-0.7593-0.7785-1.5031-1.216-2.2233l-3.3755-0.8081H44.2214z"/>
		<path class="st1" d="M23.8449,13.649h2.4583h1.4221v-1.194H5.6736c-0.2829,0.3909-0.5565,0.7885-0.8207,1.194h10.9237H23.8449z"/>
		<path class="st1" d="M26.1458,7.3299l0.875,0.6999h0.3804l0.1097-1.192h-0.1331H15.7786H10.935
			c-0.4647,0.3821-0.9125,0.7827-1.3529,1.192h16.7191L26.1458,7.3299z"/>
		<path class="st1" d="M32.2757,13.649h0.3466h11.5992h8.0673h2.8584c-0.2642-0.4055-0.5378-0.8032-0.8198-1.194H32.2757V13.649z"/>
		<path class="st1" d="M36.1551,6.8377h-2.4573h-1.2095l0.1087,1.192h0.3804l0.8769-0.6999l-0.1565,0.6999h16.721
			c-0.4403-0.4093-0.8891-0.81-1.3529-1.192h-4.8482H36.1551z"/>
		<path class="st3" d="M29.0519,7.6837L30,4.7362l0.9499,2.9475l1.3257-2.002V0.1384c-0.7542-0.0419-1.5112-0.0712-2.2766-0.0712
			c-0.7635,0-1.5205,0.0292-2.2737,0.0712v5.5442L29.0519,7.6837z"/>
		<polygon class="st3" points="32.2757,12.455 27.7253,12.455 27.7253,13.649 27.7253,20.4585 32.2757,20.4585 32.2757,13.649 		"/>
		<path class="st3" d="M32.2757,12.455h22.0517c-1.1571-1.6015-2.4648-3.084-3.9085-4.4252h-16.721l-0.3551,1.6064l0.0806,0.0429
			c0.0956,0.0555,0.1217,0.2378,0.0571,0.4074c-0.0525,0.1344-0.148,0.2261-0.237,0.2261c-0.0188,0-0.0328-0.0058-0.0469-0.0117
			l-0.1864,0.8402l0,0h-0.001l-0.0018,0.0117h-0.0057c-0.8263,0.6696-1.8906,1.04-3.0017,1.04s-2.1772-0.3704-3.0026-1.04h-0.0047
			l-0.0018-0.0107l-0.001-0.001c0-0.001,0-0.001,0-0.001l-0.1864-0.8392c-0.0151,0.0059-0.03,0.0117-0.0469,0.0117
			c-0.0899,0-0.1836-0.0916-0.2361-0.2261c-0.0655-0.1697-0.0393-0.3519,0.0581-0.4074l0.0787-0.0429l-0.356-1.6064H9.5822
			C8.1385,9.371,6.8297,10.8535,5.6736,12.455h22.0517H32.2757z"/>
		<path class="st3" d="M26.7566,10.2892c0.0113,0,0.0188-0.0039,0.0281-0.0068c-0.0187,0.0048-0.0393-0.004-0.058-0.0079
			C26.736,10.2765,26.7473,10.2892,26.7566,10.2892z"/>
		<polygon class="st3" points="27.4011,8.0297 27.0208,8.0297 27.375,8.3124 		"/>
		<path class="st3" d="M33.2434,10.2892c0.0093,0,0.0205-0.0127,0.0319-0.0147c-0.0206,0.0039-0.0403,0.0127-0.06,0.0079
			C33.2246,10.2853,33.2331,10.2892,33.2434,10.2892z"/>
		<polygon class="st3" points="32.9773,8.0297 32.5969,8.0297 32.6232,8.3124 		"/>
		<path class="st4" d="M33.0373,9.5084c-0.0103,0-0.0187,0.0107-0.0281,0.0136c0.0178-0.0039,0.0356-0.0117,0.0525-0.0078
			C33.0522,9.5123,33.0448,9.5084,33.0373,9.5084z"/>
		<path class="st4" d="M26.9627,9.4831c0.0899,0,0.1854,0.0916,0.2379,0.2261c0.0666,0.1716,0.0393,0.3538-0.058,0.4074
			l-0.3185,0.1775l0.058,0.2661c0.9556-0.6551,2.0339-1.002,3.1159-1.002c1.0849,0,2.1604,0.3489,3.1198,1.0059l0.059-0.271
			l-0.3195-0.1765c-0.0965-0.0536-0.1237-0.2359-0.06-0.4074c0.0544-0.1344,0.148-0.2261,0.2398-0.2261
			c0.0206,0,0.0403,0.0058,0.0581,0.0166l0.2304,0.1257l0.06-0.2748c-1.0146-0.8246-2.181-1.2594-3.3726-1.2594
			c-1.2011,0-2.3731,0.4416-3.3952,1.276l0.0572,0.2592l0.2295-0.1267C26.9234,9.4889,26.9421,9.4831,26.9627,9.4831z
			 M31.5908,8.7695c0.0824,0,0.1687,0.0166,0.2548,0.0507c0.2783,0.1043,0.4619,0.345,0.4122,0.5361
			c-0.0356,0.1268-0.163,0.2057-0.3391,0.2057c-0.0806,0-0.1714-0.0166-0.2558-0.0507c-0.134-0.0497-0.2511-0.1335-0.3279-0.235
			c-0.0787-0.1013-0.1087-0.2095-0.0843-0.3021C31.2835,8.8476,31.4137,8.7695,31.5908,8.7695z M29.4491,8.8251
			c0-0.1657,0.1143-0.3002,0.2511-0.3002h0.5996c0.1368,0,0.2492,0.1345,0.2492,0.3002V8.908c0,0.1647-0.1124,0.2992-0.2492,0.2992
			h-0.5996c-0.1368,0-0.2511-0.1345-0.2511-0.2992V8.8251z M28.1535,8.8202c0.0853-0.0341,0.1752-0.0507,0.2558-0.0507
			c0.1771,0,0.3063,0.0781,0.3391,0.2047c0.0506,0.191-0.1349,0.4328-0.4113,0.5371c-0.0853,0.0341-0.1742,0.0507-0.2558,0.0507
			c-0.1761,0-0.3055-0.079-0.3391-0.2057C27.6925,9.1653,27.8761,8.9245,28.1535,8.8202z"/>
		<path class="st4" d="M26.9627,9.5084c-0.0066,0-0.0141,0.0039-0.0225,0.0058c0.0169-0.0039,0.0338,0.0039,0.0525,0.0078
			C26.9824,9.5191,26.974,9.5084,26.9627,9.5084z"/>
		<path class="st4" d="M26.8887,10.5845l0.0469,0.2154c0.9415-0.6725,2.0048-1.0284,3.0756-1.0284
			c1.0624,0,2.1192,0.3519,3.0569,1.0147l0.044-0.1998c-0.9556-0.657-2.0329-1.0039-3.1141-1.0039
			C28.917,9.5825,27.8415,9.9295,26.8887,10.5845z"/>
		<path class="st4" d="M33.442,9.0971l0.3794-1.7127l-1.2141,0.9699l-0.2539-2.7536l-1.4109,2.1308L30.9369,7.712L30,4.8044
			l-0.9434,2.9271l-1.4119-2.1308l-0.253,2.7536l-1.2132-0.9699l0.3794,1.7117c1.0399-0.812,2.2287-1.2428,3.442-1.2428
			C31.2132,7.8534,32.404,8.2842,33.442,9.0971z"/>
		<path class="st4" d="M29.7002,9.1819h0.5996c0.1274,0,0.2304-0.1228,0.2304-0.2739V8.8251c0-0.1511-0.103-0.2749-0.2304-0.2749
			h-0.5996c-0.1274,0-0.2304,0.1238-0.2304,0.2749V8.908C29.4698,9.0591,29.5728,9.1819,29.7002,9.1819z"/>
		<path class="st4" d="M33.3915,9.3261l0.0459-0.2066C32.4003,8.3085,31.2104,7.8786,30,7.8786
			c-1.2123,0-2.3993,0.4299-3.4373,1.2409l0.0515,0.2252c1.023-0.8353,2.1978-1.2779,3.3989-1.2779
			C31.2067,8.0668,32.3722,8.5034,33.3915,9.3261z"/>
		<path class="st4" d="M28.0813,9.5396c0.0806,0,0.1667-0.0166,0.2511-0.0477c0.267-0.1043,0.4478-0.3315,0.4-0.5117
			c-0.0309-0.116-0.1546-0.1891-0.3232-0.1891c-0.0796,0-0.1667,0.0176-0.2501,0.0478c-0.2671,0.1013-0.4488,0.3324-0.4,0.5117
			C27.7909,9.4665,27.9127,9.5396,28.0813,9.5396z"/>
		<path class="st4" d="M31.6686,9.4919c0.0852,0.0311,0.1695,0.0477,0.2501,0.0477c0.1677,0,0.2923-0.0731,0.3222-0.189
			c0.0469-0.1794-0.133-0.4104-0.4-0.5117c-0.0834-0.0302-0.1695-0.0478-0.2501-0.0478c-0.1696,0-0.2923,0.0732-0.3232,0.1891
			c-0.0234,0.0867,0.0065,0.1861,0.0814,0.2817C31.424,9.3602,31.5373,9.4412,31.6686,9.4919z"/>
		<path class="st4" d="M26.9421,10.8233l0.0656,0.2992c0.8244-0.6676,1.8849-1.036,2.9923-1.036
			c1.1074,0,2.1698,0.3684,2.9942,1.037l0.0694-0.3129c-0.9341-0.6637-1.99-1.0147-3.0523-1.0147
			C28.9414,9.7959,27.8808,10.1507,26.9421,10.8233z"/>
		<path d="M32.9773,8.0297l-0.3541,0.2827l-0.0263-0.2827l-0.1087-1.192l-0.117-1.2691l-0.0019-0.0282l-0.0936,0.1413l-1.3257,2.002
			L30,4.7362l-0.9481,2.9475l-1.3266-2.001l-0.0946-0.1423l-0.1199,1.2973l-0.1097,1.192L27.375,8.3124l-0.3542-0.2827
			l-0.875-0.6999l0.1555,0.6999l0.356,1.6064l0.0178-0.0098l-0.0572-0.2592C26.6161,9.369,26.6142,9.37,26.6123,9.3719
			l-0.0112-0.0185c0.0037-0.0039,0.0084-0.0059,0.0132-0.0088l-0.0515-0.2252c-0.001,0.002-0.0037,0.0029-0.0047,0.0039
			l-0.0131-0.0195c0.0057-0.0029,0.0094-0.0049,0.0131-0.0078l-0.3794-1.7117l1.2132,0.9699l0.253-2.7536l1.4119,2.1308L30,4.8044
			l0.9369,2.9076l0.0056,0.0195l1.4109-2.1308l0.2539,2.7536l1.2141-0.9699L33.442,9.0971C33.4458,9.1,33.4495,9.101,33.4532,9.1039
			l-0.0094,0.0195c-0.0018-0.001-0.0056-0.0019-0.0065-0.0039l-0.0459,0.2066c0.0037,0.003,0.0075,0.0039,0.0121,0.0079
			l-0.013,0.0195c-0.001-0.001-0.0029-0.002-0.0047-0.0029l-0.06,0.2748l0.0169,0.0108l0.3551-1.6064l0.1565-0.6999L32.9773,8.0297z
			"/>
		<path d="M27.0077,11.1225l-0.0656-0.2992c-0.0037,0.002-0.0065,0.003-0.0075,0.0049l-0.0112-0.0215
			c0.0046-0.0029,0.0084-0.0048,0.0122-0.0068l-0.0469-0.2154c-0.0028,0.0019-0.0065,0.0029-0.0084,0.0049l-0.0083-0.0225
			c0.0028-0.0029,0.0065-0.0049,0.0103-0.0068l-0.058-0.2661l-0.0066,0.0039c-0.0047,0.0019-0.0094,0.001-0.014,0.0029
			l0.1864,0.8392c0.001-0.0039,0.0028-0.0078,0.0057-0.0097C26.9983,11.1274,27.004,11.1255,27.0077,11.1225z"/>
		<ellipse transform="matrix(0.8534 -0.5213 0.5213 0.8534 -1.8562 15.7056)" cx="26.9927" cy="11.1527" rx="0.0027" ry="0.0064"/>
		<ellipse transform="matrix(0.54 -0.8417 0.8417 0.54 5.797 32.912)" cx="33.0073" cy="11.1527" rx="0.0071" ry="0.0031"/>
		<path d="M33.1769,10.2931l-0.059,0.271c0.0019,0.0019,0.0075,0.0039,0.0094,0.0058l-0.0094,0.0205
			c-0.0019-0.0019-0.0037-0.0019-0.0057-0.0039l-0.044,0.1998c0.0029,0.003,0.0084,0.0039,0.0113,0.0069l-0.0122,0.0205
			c-0.0019-0.001-0.0037-0.002-0.0037-0.003l-0.0694,0.3129c0.0028,0.003,0.0075,0.0049,0.0094,0.0069
			c0.0037,0.0019,0.0056,0.0058,0.0065,0.0107l0.1864-0.8402c-0.0037-0.0019-0.0093-0.001-0.013-0.0029L33.1769,10.2931z"/>
		<path class="st4" d="M27.0189,11.1411c0.8188,0.6628,1.8774,1.0284,2.9811,1.0284c1.1017,0,2.1604-0.3655,2.983-1.0284
			c-0.8225-0.6657-1.8813-1.0293-2.983-1.0293C28.8964,10.1118,27.8377,10.4753,27.0189,11.1411z"/>
		<path d="M32.9942,11.1235c-0.8244-0.6686-1.8868-1.037-2.9942-1.037c-1.1074,0-2.1679,0.3684-2.9923,1.036
			c-0.0037,0.003-0.0094,0.0049-0.0122,0.0079c-0.0029,0.0019-0.0047,0.0058-0.0057,0.0097c0,0,0,0,0,0.001l0.001,0.001
			c0,0.0029,0.0018,0.0058,0.0047,0.0088c0.0009,0.0009,0.0009,0.0009,0.0018,0.0019c0.8254,0.6696,1.8915,1.04,3.0026,1.04
			s2.1754-0.3704,3.0017-1.04c0.0019-0.001,0.0019-0.001,0.0019-0.0019c0.0037-0.003,0.0056-0.0069,0.0056-0.0098h0.001l0,0
			c-0.001-0.0049-0.0028-0.0088-0.0065-0.0107C33.0017,11.1284,32.997,11.1265,32.9942,11.1235z M30,12.1694
			c-1.1036,0-2.1623-0.3655-2.9811-1.0284c0.8188-0.6657,1.8774-1.0293,2.9811-1.0293c1.1017,0,2.1604,0.3635,2.983,1.0293
			C32.1604,11.8039,31.1017,12.1694,30,12.1694z"/>
		<path d="M26.8821,10.5602c-0.0037,0.0019-0.0075,0.0039-0.0103,0.0068l0.0083,0.0225c0.0019-0.002,0.0057-0.003,0.0084-0.0049
			c0.9528-0.6551,2.0283-1.002,3.1094-1.002c1.0812,0,2.1585,0.3469,3.1141,1.0039c0.0019,0.002,0.0037,0.002,0.0057,0.0039
			l0.0094-0.0205c-0.0019-0.0019-0.0075-0.0039-0.0094-0.0058c-0.9593-0.657-2.0349-1.0059-3.1198-1.0059
			C28.916,9.5582,27.8377,9.9051,26.8821,10.5602z"/>
		<path d="M33.4373,9.1195c0.001,0.002,0.0047,0.0029,0.0065,0.0039l0.0094-0.0195C33.4495,9.101,33.4458,9.1,33.442,9.0971
			C32.404,8.2842,31.2132,7.8534,30,7.8534c-1.2133,0-2.4021,0.4308-3.442,1.2428c-0.0037,0.0029-0.0075,0.0049-0.0131,0.0078
			l0.0131,0.0195c0.001-0.001,0.0037-0.0019,0.0047-0.0039c1.038-0.811,2.225-1.2409,3.4373-1.2409
			C31.2104,7.8786,32.4003,8.3085,33.4373,9.1195z"/>
		<path d="M33.3858,9.3505c0.0018,0.0009,0.0037,0.0019,0.0047,0.0029l0.013-0.0195c-0.0046-0.004-0.0083-0.0049-0.0121-0.0079
			c-1.0193-0.8226-2.1848-1.2593-3.3783-1.2593c-1.2011,0-2.3759,0.4426-3.3989,1.2779c-0.0047,0.0029-0.0094,0.0049-0.0132,0.0088
			l0.0112,0.0185c0.0019-0.0019,0.0038-0.0029,0.0057-0.0048c1.0221-0.8344,2.1941-1.276,3.3952-1.276
			C31.2048,8.0911,32.3712,8.5259,33.3858,9.3505z"/>
		<path d="M26.9356,10.7999c-0.0037,0.002-0.0076,0.0039-0.0122,0.0068l0.0112,0.0215c0.001-0.0019,0.0037-0.0029,0.0075-0.0049
			c0.9387-0.6725,1.9993-1.0274,3.0691-1.0274c1.0624,0,2.1182,0.3509,3.0523,1.0147c0,0.001,0.0018,0.002,0.0037,0.003
			l0.0122-0.0205c-0.0029-0.003-0.0084-0.0039-0.0113-0.0069c-0.9377-0.6627-1.9946-1.0147-3.0569-1.0147
			C28.9404,9.7715,27.8771,10.1274,26.9356,10.7999z"/>
		<path d="M29.7002,9.2072h0.5996c0.1368,0,0.2492-0.1345,0.2492-0.2992V8.8251c0-0.1657-0.1124-0.3002-0.2492-0.3002h-0.5996
			c-0.1368,0-0.2511,0.1345-0.2511,0.3002V8.908C29.4491,9.0727,29.5634,9.2072,29.7002,9.2072z M29.4698,8.8251
			c0-0.1511,0.103-0.2749,0.2304-0.2749h0.5996c0.1274,0,0.2304,0.1238,0.2304,0.2749V8.908c0,0.1511-0.103,0.2739-0.2304,0.2739
			h-0.5996c-0.1274,0-0.2304-0.1228-0.2304-0.2739V8.8251z"/>
		<path d="M28.0813,9.562c0.0815,0,0.1705-0.0166,0.2558-0.0507c0.2764-0.1043,0.4618-0.346,0.4113-0.5371
			c-0.0328-0.1267-0.162-0.2047-0.3391-0.2047c-0.0806,0-0.1705,0.0166-0.2558,0.0507c-0.2773,0.1043-0.461,0.345-0.4113,0.5361
			C27.7759,9.4831,27.9052,9.562,28.0813,9.562z M28.1591,8.8388c0.0834-0.0302,0.1705-0.0478,0.2501-0.0478
			c0.1687,0,0.2923,0.0732,0.3232,0.1891c0.0478,0.1803-0.1331,0.4074-0.4,0.5117c-0.0843,0.0311-0.1705,0.0477-0.2511,0.0477
			c-0.1687,0-0.2904-0.0731-0.3222-0.189C27.7103,9.1712,27.8921,8.9401,28.1591,8.8388z"/>
		<path class="st4" d="M27.1839,9.7209c-0.0432-0.1122-0.1191-0.1824-0.1912-0.1989c-0.0187-0.0039-0.0356-0.0117-0.0525-0.0078
			c-0.0093,0.002-0.0187,0.002-0.0271,0.0069l-0.326,0.1793c-0.0881,0.0497-0.1106,0.2174-0.0487,0.3763
			c0.0421,0.1092,0.1162,0.1784,0.1883,0.1978c0.0187,0.0039,0.0393,0.0127,0.058,0.0079c0.0075-0.002,0.0169-0.002,0.0234-0.0059
			l0.327-0.1823C27.2232,10.0464,27.2438,9.8788,27.1839,9.7209z"/>
		<path d="M26.8241,10.2941l0.3185-0.1775c0.0974-0.0536,0.1246-0.2359,0.058-0.4074c-0.0525-0.1344-0.148-0.2261-0.2379-0.2261
			c-0.0206,0-0.0393,0.0058-0.0581,0.0166l-0.2295,0.1267l-0.0178,0.0098L26.5786,9.679c-0.0975,0.0555-0.1236,0.2378-0.0581,0.4074
			c0.0525,0.1344,0.1462,0.2261,0.2361,0.2261c0.0169,0,0.0319-0.0058,0.0469-0.0117c0.0046-0.0019,0.0093-0.001,0.014-0.0029
			L26.8241,10.2941z M26.7847,10.2824c-0.0093,0.0029-0.0168,0.0068-0.0281,0.0068c-0.0093,0-0.0205-0.0127-0.0299-0.0147
			c-0.0721-0.0195-0.1462-0.0886-0.1883-0.1978c-0.0619-0.1589-0.0393-0.3266,0.0487-0.3763l0.326-0.1793
			c0.0084-0.0049,0.0178-0.0049,0.0271-0.0069c0.0084-0.0019,0.0159-0.0058,0.0225-0.0058c0.0112,0,0.0197,0.0107,0.0299,0.0136
			c0.0721,0.0166,0.148,0.0867,0.1912,0.1989c0.06,0.1579,0.0393,0.3255-0.0487,0.3733l-0.327,0.1823
			C26.8016,10.2804,26.7922,10.2804,26.7847,10.2824z"/>
		<path class="st4" d="M33.0616,9.5142c-0.0169-0.0039-0.0346,0.0039-0.0525,0.0078c-0.074,0.0166-0.1499,0.0877-0.193,0.1989
			c-0.06,0.1579-0.0393,0.3255,0.0487,0.3733l0.3261,0.1823c0.0065,0.0039,0.015,0.0039,0.0244,0.0059
			c0.0197,0.0048,0.0393-0.004,0.06-0.0079c0.0299-0.0088,0.0618-0.0166,0.0899-0.0438c0.001-0.002,0.0019-0.0049,0.0037-0.0068
			c0.0365-0.0371,0.0694-0.0868,0.0918-0.1472c0.0627-0.1589,0.0393-0.3266-0.0468-0.3763l-0.3261-0.1793
			C33.0795,9.5162,33.0701,9.5162,33.0616,9.5142z"/>
		<path d="M33.0954,9.4997c-0.0178-0.0108-0.0375-0.0166-0.0581-0.0166c-0.0918,0-0.1854,0.0916-0.2398,0.2261
			c-0.0637,0.1716-0.0366,0.3538,0.06,0.4074l0.3195,0.1765l0.0066,0.0049c0.0037,0.0019,0.0093,0.001,0.013,0.0029
			c0.0141,0.0059,0.0281,0.0117,0.0469,0.0117c0.0889,0,0.1845-0.0916,0.237-0.2261c0.0647-0.1697,0.0385-0.3519-0.0571-0.4074
			l-0.0806-0.0429l-0.0169-0.0108L33.0954,9.4997z M33.4139,9.7004c0.0862,0.0497,0.1096,0.2174,0.0468,0.3763
			c-0.0224,0.0604-0.0553,0.1101-0.0918,0.1472c-0.0018,0.0019-0.0028,0.0048-0.0037,0.0068
			c-0.0281,0.0272-0.06,0.035-0.0899,0.0438c-0.0113,0.002-0.0225,0.0147-0.0319,0.0147c-0.0104,0-0.0188-0.0039-0.0281-0.0068
			c-0.0094-0.002-0.0178-0.002-0.0244-0.0059l-0.3261-0.1823c-0.0881-0.0478-0.1087-0.2154-0.0487-0.3733
			c0.0432-0.1112,0.1191-0.1824,0.193-0.1989c0.0094-0.0029,0.0178-0.0136,0.0281-0.0136c0.0075,0,0.015,0.0039,0.0244,0.0058
			c0.0084,0.002,0.0178,0.002,0.0262,0.0069L33.4139,9.7004z"/>
		<path d="M31.6629,9.5113c0.0843,0.0341,0.1752,0.0507,0.2558,0.0507c0.1761,0,0.3035-0.079,0.3391-0.2057
			c0.0497-0.191-0.1339-0.4318-0.4122-0.5361c-0.0861-0.0341-0.1724-0.0507-0.2548-0.0507c-0.1771,0-0.3073,0.0781-0.3401,0.2047
			c-0.0244,0.0926,0.0057,0.2008,0.0843,0.3021C31.4119,9.3778,31.5289,9.4616,31.6629,9.5113z M31.5908,8.791
			c0.0806,0,0.1667,0.0176,0.2501,0.0478c0.2671,0.1013,0.447,0.3324,0.4,0.5117c-0.0299,0.116-0.1545,0.189-0.3222,0.189
			c-0.0806,0-0.1649-0.0166-0.2501-0.0477c-0.1312-0.0507-0.2445-0.1317-0.3196-0.2301c-0.0749-0.0955-0.1049-0.1949-0.0814-0.2817
			C31.2985,8.8642,31.4212,8.791,31.5908,8.791z"/>
		<path class="st4" d="M38.3174,22.7344l-4.1222,23.3008c0.001,0.0477,0.0038,0.0945,0.0057,0.1403
			c0.9069,0.114,1.8082,0.2759,2.7028,0.463c0.001-0.0088,0.0047-0.0196,0.0056-0.0292L38.3174,22.7344z"/>
		<path d="M35.5481,38.2666l-1.0699,6.0452l-0.2848,1.616c0,0.0351,0,0.0722,0.0018,0.1073l4.1222-23.3008l-1.4081,23.8749
			c0.0084-0.0468,0.0198-0.0985,0.0291-0.1472l0.0759-1.2857l0.3626-6.1593l0.3625-6.1358l0.3607-6.1183l0.2473-4.2001
			l-0.0188-0.003l-0.7251,4.0949l-1.0586,5.9809L35.5481,38.2666z"/>
		<path class="st4" d="M46.4727,24.8115L39.6815,47.198c-0.0047,0.0458-0.0057,0.0896-0.0103,0.1354
			c0.8843,0.2642,1.7585,0.5683,2.626,0.9056c0-0.003,0.0018-0.0049,0.0028-0.0078L46.4727,24.8115z"/>
		<path d="M42.2007,38.8251l-2.004,6.6057l-0.5059,1.6639c-0.0019,0.0341-0.0066,0.0692-0.0094,0.1033l6.7913-22.3864L42.3,48.2312
			c0.015-0.0488,0.0337-0.1034,0.0487-0.1531l0.563-3.1541l1.2422-6.9741l1.1449-6.4264l1.2104-6.7948l0.015-0.0818l-0.0112-0.003
			v-0.001L46.5018,24.64l-0.0291,0.0955l-2.1988,7.25L42.2007,38.8251z"/>
		<path class="st4" d="M54.3057,28.225L44.984,49.2527c-0.0112,0.0497-0.0197,0.0975-0.0299,0.1462
			c0.1817,0.0877,0.3663,0.1657,0.5462,0.2573c0.6568,0.3334,1.3069,0.694,1.9497,1.0703c0.0018-0.0049,0.0056-0.0108,0.0075-0.0157
			L54.3057,28.225z"/>
		<path d="M47.6766,43.1256l-2.67,6.0267c-0.0084,0.0341-0.0169,0.0683-0.0225,0.1004l9.3217-21.0277l-6.8483,22.4858
			c0.0187-0.0409,0.0412-0.0877,0.06-0.1306l0.3616-1.1824l1.9374-6.361l1.782-5.8503l1.6498-5.4136l1.127-3.703l-0.0178-0.0107
			l-1.556,3.511l-2.389,5.3872L47.6766,43.1256z"/>
		<path class="st4" d="M49.9419,52.327c0.0169,0.0117,0.0328,0.0244,0.0487,0.035c4.4613-3.9895,7.716-9.2939,9.1662-15.3051
			l-9.1681,15.1287C49.9737,52.2334,49.9569,52.2802,49.9419,52.327z"/>
		<path d="M54.4801,44.7348l-2.967,4.8951l-1.4905,2.4593c-0.0104,0.0321-0.0224,0.0643-0.0338,0.0965l9.1681-15.1287
			c0.0047-0.0205,0.0093-0.0418,0.015-0.0633l-1.4146,2.3335L54.4801,44.7348z"/>
		<path class="st4" d="M30,22.0394l-1.3734,23.7598c0.0075,0.0507,0.0159,0.0994,0.0224,0.1501
			c0.4516-0.0176,0.9003-0.0409,1.3509-0.0409c0.461,0,0.9181,0.0234,1.3791,0.0419c0-0.0107,0.001-0.0244,0.0019-0.0341L30,22.0394
			z"/>
		<path d="M29.1193,36.9225l-0.3578,6.1855l-0.1499,2.5869c0.0056,0.0351,0.0094,0.0703,0.0151,0.1043L30,22.0394l1.381,23.8768
			c0.0018-0.0487,0.0075-0.1033,0.0112-0.153l-0.1537-2.6552l-0.3578-6.1855l-0.3664-6.3435l-0.3551-6.1407l-0.148-2.5733h-0.0197
			l-0.1508,2.5733l-0.3542,6.1407L29.1193,36.9225z"/>
		<path class="st4" d="M21.6826,22.7344l1.4015,23.7579c0.0132,0.0477,0.0271,0.0935,0.0393,0.1413
			c0.8947-0.1871,1.7941-0.348,2.7028-0.462c-0.001-0.0059-0.001-0.0137-0.001-0.0205L21.6826,22.7344z"/>
		<path d="M22.6232,39.0171l0.3626,6.1593l0.0722,1.2135c0.0075,0.0341,0.0168,0.0693,0.0262,0.1024l-1.4015-23.7579l4.1427,23.4168
			c-0.0018-0.0458-0.0037-0.0975-0.0056-0.1452L25.52,44.3118l-1.07-6.0452l-0.9949-5.631l-1.0586-5.9809l-0.7251-4.0949
			l-0.0198,0.003l0.2483,4.2001l0.3607,6.1183L22.6232,39.0171z"/>
		<path class="st4" d="M13.5273,24.8115l4.1503,23.2939c0.0159,0.0419,0.0346,0.0818,0.0515,0.1228
			c0.8675-0.3353,1.7416-0.6384,2.625-0.9026c-0.001-0.0049-0.001-0.0107-0.0028-0.0156L13.5273,24.8115z"/>
		<path d="M17.0902,44.925l0.5489,3.082c0.0131,0.0322,0.0244,0.0664,0.0385,0.0985l-4.1503-23.2939l6.8241,22.4985
			c-0.0075-0.0468-0.0141-0.1004-0.0234-0.1491l-0.5247-1.7301l-2.004-6.6066l-2.0732-6.8377l-2.2053-7.2686l-0.0235-0.078
			l-0.0177,0.0069l0.0103,0.0653l1.2133,6.8123l1.1429,6.4234L17.0902,44.925z"/>
		<path class="st4" d="M5.6943,28.225l6.8128,22.3719c0.0225,0.0399,0.044,0.077,0.0674,0.115
			c0.6343-0.3714,1.277-0.7261,1.9262-1.0556c0.1883-0.0955,0.3804-0.1774,0.5706-0.269c-0.0029-0.0079-0.0037-0.0157-0.0066-0.0225
			L5.6943,28.225z"/>
		<path d="M10.178,43.0194l1.9356,6.3561l0.3457,1.1337c0.0159,0.0282,0.0328,0.0595,0.0478,0.0877L5.6943,28.225l9.3704,21.1398
			c-0.013-0.0438-0.0262-0.0945-0.0393-0.1403l-2.7112-6.1155L9.5775,36.937l-2.3787-5.3668l-1.5561-3.511L5.6239,28.07l1.128,3.702
			l1.6451,5.4L10.178,43.0194z"/>
		<path class="st4" d="M10.0693,52.2812L0.8432,37.0569C2.2934,43.0681,5.55,48.3726,10.0103,52.363
			c0.0244-0.0166,0.0478-0.035,0.0721-0.0517C10.0768,52.3026,10.0721,52.2909,10.0693,52.2812z"/>
		<path d="M10.0113,52.1456l-1.5327-2.5303l-2.9586-4.8814l-3.2752-5.4068l-1.4175-2.3404
			c0.0057,0.0235,0.0104,0.0468,0.0159,0.0702l9.2262,15.2243C10.0506,52.2393,10.03,52.1895,10.0113,52.1456z"/>
		<path class="st4" d="M22.1238,41.5991c-0.2051-1.27-0.4168-2.5722-0.7091-3.9379c-0.0225-0.1013-0.0487-0.2066-0.0712-0.309
			c-0.0872-0.3899-0.1761-0.7807-0.2793-1.1813c-0.4168-1.6113-1.1373-3.3892-1.7725-4.9584
			c-0.4778-1.1824-0.9332-2.2994-1.2067-3.2176c-0.6389-2.1376-0.6259-2.9349-0.504-4.4194c-0.3617,1.4027-0.4497,2.391-0.09,4.6271
			c0.1687,1.0556,0.5396,2.2984,0.9332,3.6142c0.4581,1.5264,0.9312,3.1055,1.1917,4.6874
			c0.2979,1.8257,0.3223,3.4993,0.3438,5.1144c0.014,1.04,0.0271,2.0225,0.1096,3.0294c0.1031,1.2593,0.194,2.0372,0.3055,2.6727
			c0.5321-0.1588,1.0643-0.3109,1.6002-0.4425c0.3738-0.0916,0.7522-0.1618,1.1279-0.2407
			c-0.2023-0.7349-0.3653-1.5372-0.5967-2.7809C22.3703,43.1334,22.2504,42.3887,22.1238,41.5991z"/>
		<path d="M23.0579,46.3899c-0.0918-0.3538-0.1781-0.7349-0.268-1.1755c-0.0825-0.3958-0.1668-0.8363-0.2661-1.3617
			c-0.1339-0.7232-0.2529-1.4688-0.3812-2.2574c-0.1228-0.7719-0.252-1.5606-0.3982-2.3646
			c-0.1799-0.9903-0.3879-2.007-0.6623-3.0684c-0.2614-1.0167-0.6483-2.0976-1.0558-3.1532
			c-0.2379-0.617-0.4815-1.2282-0.7158-1.8072c-0.4787-1.1814-0.9331-2.2994-1.2067-3.2126
			c-0.1948-0.657-0.3251-1.1785-0.4141-1.6414c-0.2071-1.0791-0.1706-1.7965-0.0788-2.8853l-0.0187-0.0049
			c-0.2483,0.9348-0.3766,1.6785-0.3448,2.6893c0.0197,0.5721,0.09,1.2291,0.2239,2.0615c0.1696,1.0566,0.5406,2.2994,0.9359,3.6163
			c0.103,0.3479,0.208,0.6998,0.311,1.0526c0.3495,1.194,0.6774,2.4115,0.8769,3.6328c0.1602,0.9757,0.2389,1.9046,0.2829,2.8072
			c0.0393,0.7846,0.0507,1.5498,0.0619,2.3014c0.014,1.04,0.0262,2.0225,0.1087,3.0314c0.0252,0.2933,0.0486,0.5555,0.0712,0.8012
			c0.0674,0.7232,0.1339,1.2554,0.208,1.7097c0.0093,0.0487,0.0159,0.1023,0.0234,0.1491c0.0018,0.0049,0.0018,0.0107,0.0028,0.0156
			c0.0075-0.0019,0.0141-0.0029,0.0206-0.0049c-0.1115-0.6355-0.2023-1.4133-0.3055-2.6727
			c-0.0824-1.0069-0.0956-1.9893-0.1096-3.0294c-0.0216-1.6152-0.046-3.2888-0.3438-5.1144
			c-0.2605-1.5819-0.7336-3.161-1.1917-4.6874c-0.3935-1.3158-0.7645-2.5586-0.9332-3.6142
			c-0.3598-2.2361-0.2717-3.2244,0.09-4.6271c-0.1218,1.4845-0.1349,2.2818,0.504,4.4194c0.2735,0.9183,0.7288,2.0353,1.2067,3.2176
			c0.6352,1.5692,1.3556,3.3472,1.7725,4.9584c0.1031,0.4005,0.1921,0.7914,0.2793,1.1813c0.0224,0.1024,0.0486,0.2077,0.0712,0.309
			c0.2923,1.3656,0.504,2.6679,0.7091,3.9379c0.1265,0.7895,0.2465,1.5342,0.3823,2.2574c0.2314,1.2438,0.3944,2.046,0.5967,2.7809
			c0.0066-0.002,0.0131-0.003,0.0206-0.0039c-0.0122-0.0478-0.0262-0.0936-0.0393-0.1413
			C23.0747,46.4592,23.0654,46.424,23.0579,46.3899z"/>
		<path class="st4" d="M16.157,43.4199c-0.3504-1.2232-0.7091-2.4767-1.1589-3.777c-0.0356-0.1053-0.0778-0.2135-0.1152-0.3188
			c-0.1293-0.3665-0.2605-0.732-0.4066-1.1053c-0.5996-1.5264-1.5187-3.1668-2.33-4.6134
			c-0.6117-1.0926-1.1916-2.1239-1.5702-2.9846c-0.8815-2.0128-0.9621-2.8033-1.0127-4.2937
			c-0.1949,1.4485-0.1677,2.4427,0.4478,4.5978c0.2904,1.0176,0.8038,2.1844,1.3472,3.4212
			c0.6295,1.4348,1.2816,2.9193,1.7219,4.4448c0.5096,1.7593,0.726,3.4105,0.935,5.0061c0.1349,1.0274,0.2623,1.9981,0.4628,2.9836
			c0.2492,1.2302,0.4272,1.9855,0.6118,2.5967c0.861-0.4162,1.7351-0.7973,2.6204-1.1414c-0.2848-0.692-0.5406-1.4562-0.9125-2.6444
			C16.5805,44.8986,16.3753,44.1803,16.157,43.4199z"/>
		<path d="M17.6391,48.0069c-0.2511-0.6364-0.489-1.3597-0.8225-2.4231c-0.0861-0.271-0.1677-0.5498-0.2501-0.8285
			c-0.1284-0.4367-0.2586-0.8801-0.3907-1.3441c-0.4768-1.662-0.9668-3.3823-1.6807-5.2041
			c-0.1162-0.2963-0.2548-0.5995-0.3916-0.9026c-0.5697-1.2554-1.2863-2.546-1.9412-3.7127
			c-0.6126-1.0917-1.1907-2.122-1.5682-2.9827c-0.0084-0.0195-0.015-0.0351-0.0225-0.0546
			c-0.8788-2.0167-0.9405-2.7974-0.9921-4.3453l-0.0197-0.002c-0.2024,1.4426-0.1949,2.4212,0.3504,4.4195
			c0.0281,0.1023,0.0515,0.1959,0.0824,0.305c0.2905,1.0196,0.8038,2.1873,1.3482,3.4252c0.3682,0.8431,0.7411,1.7048,1.0793,2.5791
			c0.2389,0.614,0.461,1.235,0.6427,1.8636c0.49,1.6922,0.7083,3.2858,0.9097,4.8269c0.0075,0.0575,0.015,0.117,0.0224,0.1745
			c0.1358,1.0284,0.2642,1.9981,0.4628,2.9836c0.2286,1.1308,0.3991,1.854,0.5677,2.4398c0.0131,0.0458,0.0263,0.0965,0.0393,0.1403
			c0.0029,0.0068,0.0037,0.0146,0.0066,0.0225c0.0065-0.003,0.014-0.0059,0.0187-0.0098c-0.1846-0.6111-0.3625-1.3665-0.6118-2.5967
			c-0.2005-0.9854-0.3279-1.9562-0.4628-2.9836c-0.2089-1.5957-0.4254-3.2469-0.935-5.0061
			c-0.4403-1.5255-1.0924-3.01-1.7219-4.4448c-0.5434-1.2369-1.0568-2.4037-1.3472-3.4212
			c-0.6155-2.1551-0.6428-3.1494-0.4478-4.5978c0.0506,1.4904,0.1311,2.2809,1.0127,4.2937
			c0.3786,0.8607,0.9585,1.8919,1.5702,2.9846c0.8113,1.4466,1.7305,3.087,2.33,4.6134c0.1461,0.3733,0.2772,0.7388,0.4066,1.1053
			c0.0374,0.1053,0.0796,0.2135,0.1152,0.3188c0.4497,1.3002,0.8085,2.5538,1.1589,3.777c0.2183,0.7604,0.4235,1.4787,0.6408,2.1717
			c0.3719,1.1883,0.6277,1.9524,0.9125,2.6444c0.0056-0.0019,0.0121-0.0048,0.0187-0.0078
			c-0.0169-0.0409-0.0356-0.0808-0.0515-0.1228C17.6635,48.0733,17.6522,48.0392,17.6391,48.0069z"/>
		<path class="st4" d="M10.46,46.2145c-0.489-1.1531-0.992-2.3355-1.5889-3.55c-0.044-0.0916-0.0928-0.1843-0.1386-0.2759
			c-0.1743-0.3459-0.3504-0.693-0.5425-1.0439c-0.7682-1.4113-1.8718-2.8832-2.8424-4.1815
			c-0.7345-0.9777-1.4259-1.9017-1.9018-2.6932c-1.1074-1.8461-1.2778-2.6152-1.5027-4.0821
			c-0.0244,1.4669,0.119,2.4456,0.979,4.4769c0.4057,0.9601,1.0484,2.0303,1.7304,3.1649c0.7907,1.3158,1.6096,2.6784,2.2222,4.1132
			c0.7102,1.6581,1.1168,3.2565,1.5084,4.8034c0.2548,0.9942,0.4928,1.9338,0.8038,2.8765
			c0.3897,1.1814,0.6576,1.9007,0.9116,2.4767c0.8047-0.5575,1.6236-1.0887,2.4573-1.5761
			c-0.3598-0.6374-0.7026-1.3519-1.2104-2.465C11.0511,47.6083,10.7635,46.9319,10.46,46.2145z"/>
		<path d="M12.4592,50.5091c-0.1846-0.3373-0.371-0.7106-0.5799-1.1492c-0.1555-0.3275-0.3204-0.6862-0.5153-1.1131
			c-0.297-0.6502-0.5827-1.3266-0.8862-2.043c-0.4122-0.9728-0.8394-1.968-1.3191-2.9827
			c-0.2942-0.6218-0.6033-1.2495-0.9509-1.8899c-0.6043-1.1073-1.4119-2.2488-2.2007-3.316
			c-0.2173-0.2943-0.4365-0.5868-0.6445-0.8666c-0.7346-0.9805-1.426-1.9026-1.9-2.6921c-0.3485-0.581-0.5958-1.0488-0.7898-1.4718
			c-0.4375-0.9523-0.5649-1.6503-0.726-2.7166l-0.0206,0.0019c-0.0224,0.9962,0.0281,1.7614,0.3035,2.7439
			c0.1499,0.5331,0.3635,1.1268,0.6746,1.8627c0.4066,0.9601,1.0492,2.0323,1.7312,3.1659
			c0.0937,0.1549,0.1855,0.3128,0.2793,0.4688c0.7017,1.1716,1.4015,2.3783,1.9439,3.6435
			c0.2465,0.5799,0.4497,1.1501,0.6361,1.7165c0.3448,1.0488,0.6146,2.0771,0.8685,3.0821c0.2239,0.8772,0.445,1.7126,0.7054,2.545
			c0.0347,0.1111,0.0637,0.2232,0.0994,0.3334c0.3559,1.0771,0.6089,1.7623,0.8432,2.3139c0.0187,0.0439,0.0393,0.0936,0.058,0.1355
			c0.0028,0.0097,0.0075,0.0215,0.0131,0.0301c0.0056-0.0039,0.0093-0.0078,0.0159-0.0117
			c-0.2539-0.576-0.5219-1.2954-0.9116-2.4767c-0.311-0.9426-0.549-1.8822-0.8038-2.8765
			c-0.3916-1.5469-0.7982-3.1454-1.5084-4.8034c-0.6126-1.4348-1.4315-2.7974-2.2222-4.1132
			c-0.682-1.1347-1.3247-2.2048-1.7304-3.1649c-0.86-2.0314-1.0034-3.01-0.979-4.4769c0.2249,1.4669,0.3953,2.236,1.5027,4.0821
			c0.4759,0.7915,1.1673,1.7156,1.9018,2.6932c0.9707,1.2983,2.0742,2.7702,2.8424,4.1815c0.1921,0.3509,0.3682,0.698,0.5425,1.0439
			c0.0459,0.0916,0.0946,0.1842,0.1386,0.2759c0.5968,1.2145,1.0999,2.3969,1.5889,3.55c0.3035,0.7173,0.5911,1.3938,0.8854,2.0439
			c0.5078,1.1131,0.8506,1.8276,1.2104,2.465c0.0057-0.0039,0.0112-0.0078,0.0187-0.0117c-0.0234-0.038-0.0449-0.0751-0.0674-0.115
			C12.492,50.5686,12.4752,50.5374,12.4592,50.5091z"/>
		<path class="st4" d="M28.2453,40.7951c-0.0572-1.2955-0.1152-2.6239-0.2473-4.0276c-0.0084-0.0906-0.0197-0.1843-0.0291-0.2759
			c-0.0413-0.4113-0.0861-0.8255-0.1443-1.2505c-0.2229-1.6639-0.7298-3.545-1.1785-5.2041
			c-0.3363-1.2524-0.6548-2.4348-0.8198-3.3871c-0.3841-2.2243-0.2782-3.0119,0.0141-4.4604
			c-0.5209,1.3266-0.7224,2.2907-0.6277,4.5666c0.0459,1.0732,0.2679,2.3647,0.5059,3.7333
			c0.2754,1.5878,0.5603,3.2302,0.6352,4.8424c0.0843,1.8559-0.0899,3.5159-0.2548,5.1202c-0.1077,1.0303-0.208,2.007-0.2436,3.0197
			c-0.0431,1.2642-0.045,2.0488-0.0094,2.6971c0.9237-0.1141,1.854-0.1814,2.7825-0.2194
			c-0.1143-0.7622-0.1836-1.5829-0.2689-2.8569C28.3099,42.3546,28.279,41.5953,28.2453,40.7951z"/>
		<path d="M28.6116,45.6949c-0.0899-0.6744-0.1536-1.4309-0.2248-2.5109c-0.0029-0.0321-0.0057-0.0595-0.0076-0.0935
			c-0.0496-0.7379-0.0805-1.4953-0.1143-2.2975c-0.0505-1.2028-0.1097-2.4378-0.223-3.7322
			c-0.0515-0.5947-0.1124-1.1989-0.1968-1.8248c-0.1724-1.2798-0.5115-2.6863-0.8628-4.0236
			c-0.1059-0.4016-0.2127-0.7993-0.3167-1.1834c-0.3363-1.2505-0.6558-2.4319-0.8198-3.3842
			c-0.0909-0.5263-0.1518-0.965-0.1921-1.3577c-0.1321-1.3091-0.0093-2.0391,0.2276-3.2059l-0.0187-0.0087
			c-0.4413,1.1062-0.6633,1.9513-0.6876,3.431c-0.0065,0.3743-0.0028,0.7797,0.0169,1.2524
			c0.0459,1.0762,0.2698,2.3705,0.5068,3.7381c0.0694,0.3995,0.1396,0.8031,0.2061,1.2076
			c0.1996,1.2047,0.3719,2.4261,0.4282,3.6298c0.0338,0.7555,0.0188,1.4718-0.014,2.1717
			c-0.0478,1.0196-0.1415,1.9952-0.2389,2.9456c-0.1069,1.0322-0.2099,2.0079-0.2445,3.0207
			c-0.0094,0.2602-0.0159,0.4873-0.0216,0.7096c-0.0187,0.7749-0.0159,1.3451,0.0057,1.8266
			c0.0018,0.0477,0.0037,0.0994,0.0056,0.1452c0,0.0068,0,0.0146,0.001,0.0205c0.0065,0,0.0131-0.002,0.0197-0.0029
			c-0.0356-0.6483-0.0337-1.4329,0.0094-2.6971c0.0356-1.0127,0.1358-1.9894,0.2436-3.0197
			c0.1649-1.6044,0.3391-3.2643,0.2548-5.1202c-0.0749-1.6122-0.3598-3.2546-0.6352-4.8424
			c-0.2379-1.3685-0.46-2.6601-0.5059-3.7333c-0.0947-2.2759,0.1068-3.24,0.6277-4.5666c-0.2923,1.4485-0.3982,2.2361-0.0141,4.4604
			c0.1649,0.9523,0.4834,2.1347,0.8198,3.3871c0.4488,1.6591,0.9556,3.5402,1.1785,5.2041c0.0581,0.425,0.103,0.8392,0.1443,1.2505
			c0.0094,0.0916,0.0206,0.1852,0.0291,0.2759c0.1321,1.4036,0.1901,2.7321,0.2473,4.0276
			c0.0338,0.8002,0.0647,1.5596,0.1143,2.2974c0.0853,1.274,0.1546,2.0947,0.2689,2.8569c0.0075,0,0.0141,0,0.0206,0
			c-0.0065-0.0507-0.015-0.0994-0.0224-0.1501C28.6209,45.7652,28.6172,45.73,28.6116,45.6949z"/>
		<path class="st4" d="M51.8793,47.7029c0.5209-1.121,1.0549-2.2711,1.5571-3.5304c0.0543-0.1365,0.1068-0.2788,0.1612-0.4172
			c0.1292-0.3373,0.2585-0.6745,0.384-1.0284c0.5462-1.5528,0.95-3.469,1.3041-5.1602c0.268-1.275,0.519-2.4797,0.8029-3.393
			c0.6577-2.1308,1.0961-2.7312,1.9861-3.7742c-1.0286,0.7944-1.6272,1.4845-2.5529,3.4749
			c-0.4375,0.9396-0.8188,2.1756-1.2226,3.4865c-0.4712,1.5206-0.9546,3.0958-1.6067,4.5072
			c-0.7495,1.6297-1.6301,2.929-2.4827,4.1835c-0.5471,0.8071-1.0643,1.5702-1.5411,2.4066
			c-0.595,1.041-0.9434,1.7068-1.2001,2.2789c0.8338,0.4893,1.6517,1.0206,2.4564,1.5781c0.2398-0.7184,0.5434-1.4572,1.0344-2.5889
			C51.2441,49.0684,51.5523,48.4047,51.8793,47.7029z"/>
		<path d="M50.0225,52.0891c0.2286-0.6482,0.5172-1.3442,0.9546-2.353c0.0271-0.0624,0.0619-0.1307,0.089-0.194
			c0.2613-0.5946,0.5359-1.193,0.83-1.8275c0.5078-1.0907,1.025-2.2116,1.5159-3.431c0.2015-0.4981,0.3991-1.0089,0.5884-1.5469
			c0.4478-1.2711,0.7964-2.7809,1.1045-4.2166c0.0684-0.3188,0.1378-0.6404,0.2015-0.9475c0.266-1.2739,0.5172-2.4787,0.8019-3.39
			c0.1612-0.5235,0.3092-0.9504,0.4554-1.3178c0.459-1.1658,0.8834-1.701,1.5936-2.5304l-0.0104-0.0176
			c-0.8572,0.6531-1.4184,1.2243-2.0892,2.4476c-0.1742,0.3197-0.356,0.6735-0.5536,1.0985
			c-0.4385,0.9405-0.8198,2.1775-1.2245,3.4894c-0.0712,0.2311-0.1443,0.464-0.2174,0.696
			c-0.4046,1.3002-0.8347,2.6123-1.3846,3.8092c-0.2811,0.6073-0.5828,1.158-0.8909,1.6882
			c-0.5162,0.8899-1.0587,1.7039-1.5917,2.4895c-0.5471,0.808-1.0624,1.5712-1.543,2.4076
			c-0.2052,0.3567-0.3719,0.658-0.5237,0.9386c-0.2577,0.4727-0.4525,0.8588-0.6108,1.1989
			c-0.0188,0.0428-0.0413,0.0896-0.06,0.1306c-0.0019,0.0049-0.0057,0.0108-0.0075,0.0157
			c0.0075,0.0029,0.0131,0.0078,0.0187,0.0107c0.2567-0.5721,0.6052-1.2379,1.2001-2.2789c0.4768-0.8363,0.994-1.5995,1.5411-2.4066
			c0.8526-1.2545,1.7331-2.5538,2.4827-4.1835c0.6521-1.4114,1.1355-2.9866,1.6067-4.5072
			c0.4038-1.3109,0.7851-2.5469,1.2226-3.4865c0.9257-1.9904,1.5243-2.6805,2.5529-3.4749c-0.89,1.0429-1.3284,1.6434-1.9861,3.7742
			c-0.2839,0.9133-0.5349,2.118-0.8029,3.393c-0.3541,1.6911-0.7579,3.6074-1.3041,5.1602
			c-0.1255,0.3538-0.2548,0.6911-0.384,1.0284c-0.0544,0.1384-0.1069,0.2807-0.1612,0.4172
			c-0.5022,1.2593-1.0362,2.4094-1.5571,3.5304c-0.3269,0.7018-0.6352,1.3655-0.9199,2.0235
			c-0.491,1.1317-0.7945,1.8705-1.0344,2.5889c0.0047,0.0039,0.0112,0.0078,0.0169,0.0117c0.015-0.0468,0.0319-0.0936,0.0468-0.1413
			C50,52.1534,50.0121,52.1213,50.0225,52.0891z"/>
		<path class="st4" d="M46.3331,44.5029c0.3869-1.2067,0.785-2.4446,1.1402-3.7878c0.0271-0.1024,0.0515-0.2086,0.0796-0.3129
			c0.0974-0.3841,0.1939-0.771,0.2829-1.1755c0.3616-1.6297,0.5359-3.5948,0.6924-5.3288c0.117-1.3061,0.2257-2.5421,0.4-3.4934
			c0.4047-2.2204,0.7673-2.888,1.5271-4.0685c-0.9266,0.9592-1.439,1.7428-2.1239,3.8677c-0.3222,1.002-0.5593,2.2907-0.8029,3.6562
			c-0.2914,1.5849-0.5884,3.2244-1.07,4.7304c-0.5517,1.7389-1.2731,3.1698-1.9692,4.5549
			c-0.4478,0.8918-0.8713,1.733-1.2479,2.6414c-0.4722,1.1337-0.7382,1.8501-0.9256,2.4603
			c0.8835,0.3431,1.7575,0.7251,2.6195,1.1423c0.1526-0.7486,0.3691-1.5303,0.7232-2.7292
			C45.8629,45.9601,46.0896,45.2524,46.3331,44.5029z"/>
		<path d="M45.0066,49.1523c0.148-0.6784,0.3531-1.4153,0.6688-2.4845c0.2043-0.6989,0.4329-1.4075,0.6736-2.1551
			c0.1209-0.3743,0.2426-0.7525,0.3625-1.1337c0.4104-1.2954,0.8113-2.6463,1.1458-4.1474c0.1601-0.7223,0.28-1.5137,0.3813-2.3169
			c0.1256-1.0128,0.2229-2.0469,0.3092-3.0139c0.1105-1.2466,0.2192-2.4211,0.3785-3.3521
			c0.0075-0.0438,0.0131-0.0955,0.0216-0.1393c0.415-2.2721,0.7842-2.9144,1.5842-4.1524l-0.013-0.0156
			c-0.9772,0.9971-1.499,1.7662-2.2082,3.9515c-0.0403,0.1267-0.0759,0.271-0.1152,0.4054
			c-0.2632,0.9377-0.4722,2.0616-0.6914,3.2565c-0.1948,1.0771-0.3991,2.1766-0.6577,3.2449
			c-0.1208,0.502-0.2511,1.0001-0.4056,1.4816c-0.5518,1.7379-1.2741,3.1678-1.9702,4.5519
			c-0.2595,0.5176-0.5068,1.0216-0.7476,1.5274c-0.1714,0.3665-0.3429,0.733-0.4984,1.1131
			c-0.4329,1.041-0.6896,1.7262-0.876,2.3042c-0.0151,0.0497-0.0338,0.1043-0.0487,0.1531
			c-0.001,0.0029-0.0028,0.0048-0.0028,0.0078c0.0056,0.0019,0.013,0.0049,0.0187,0.0078c0.1874-0.6101,0.4534-1.3266,0.9256-2.4603
			c0.3766-0.9084,0.8001-1.7496,1.2479-2.6414c0.6961-1.3851,1.4175-2.816,1.9692-4.5549c0.4816-1.506,0.7786-3.1455,1.07-4.7304
			c0.2436-1.3655,0.4806-2.6542,0.8029-3.6562c0.6849-2.1249,1.1973-2.9085,2.1239-3.8677
			c-0.7598,1.1805-1.1224,1.8481-1.5271,4.0685c-0.1743,0.9513-0.283,2.1873-0.4,3.4934c-0.1565,1.734-0.3308,3.6991-0.6924,5.3288
			c-0.089,0.4044-0.1855,0.7914-0.2829,1.1755c-0.0281,0.1043-0.0525,0.2105-0.0796,0.3129
			c-0.3551,1.3432-0.7533,2.581-1.1402,3.7878c-0.2436,0.7496-0.4703,1.4572-0.6745,2.157
			c-0.3542,1.1989-0.5706,1.9807-0.7232,2.7292c0.0056,0.0029,0.0131,0.0069,0.0187,0.0098
			c0.0103-0.0487,0.0187-0.0965,0.0299-0.1462C44.9897,49.2206,44.9981,49.1864,45.0066,49.1523z"/>
		<path class="st4" d="M40.4666,42.2591c0.2436-1.2467,0.4899-2.5294,0.6838-3.9047c0.0225-0.1619,0.0413-0.3286,0.0638-0.4923
			c0.0449-0.3558,0.0918-0.7106,0.1292-1.08c0.1667-1.6736,0.1124-3.6474,0.0647-5.3912c-0.0366-1.3139-0.0702-2.5548-0.0094-3.5255
			c0.1452-2.2662,0.4244-2.9876,1.039-4.2839c-0.8037,1.1033-1.2197,1.964-1.6507,4.1825
			c-0.2061,1.0468-0.2876,2.3627-0.3765,3.7566c-0.0984,1.617-0.2042,3.2897-0.506,4.8628
			c-0.3429,1.814-0.8909,3.3521-1.4203,4.8376c-0.341,0.9582-0.6633,1.8618-0.9293,2.8219
			c-0.3336,1.2067-0.5172,1.9631-0.6314,2.6005c0.3692,0.0771,0.7364,0.1452,1.1017,0.235
			c0.5453,0.1335,1.0859,0.2886,1.6255,0.4494c0.0647-0.7672,0.1883-1.5771,0.3981-2.8209
			C40.1705,43.7806,40.3166,43.0427,40.4666,42.2591z"/>
		<path d="M39.6909,47.0947c0.0486-0.4835,0.1217-1.0049,0.2229-1.6463c0.045-0.2866,0.0956-0.5907,0.1536-0.9357
			c0.1237-0.7252,0.2679-1.466,0.4179-2.2488c0.1939-0.9981,0.3879-2.0225,0.5603-3.0938c0.1208-0.7661,0.2332-1.5527,0.3148-2.3841
			c0.1274-1.2243,0.1293-2.6074,0.103-3.9438c-0.0084-0.4942-0.0206-0.9815-0.0337-1.4514
			c-0.0375-1.3139-0.0713-2.5548-0.0113-3.5236c0.031-0.4883,0.0694-0.8928,0.1162-1.2583c0.1714-1.3724,0.46-2.0459,0.9707-3.1182
			l-0.0151-0.0126c-0.7101,0.9591-1.1261,1.7204-1.5027,3.2662c-0.0749,0.308-0.148,0.6355-0.222,1.0147
			c-0.2052,1.0488-0.2876,2.3637-0.3757,3.7595c-0.0281,0.4864-0.0609,0.9777-0.0975,1.4689
			c-0.0834,1.1443-0.1948,2.2916-0.4047,3.3901c-0.2051,1.0683-0.4815,2.0333-0.7785,2.9553
			c-0.2089,0.6443-0.4262,1.2691-0.6427,1.8802c-0.342,0.9572-0.6642,1.8608-0.9312,2.8238
			c-0.1264,0.4571-0.2258,0.8334-0.3139,1.1795c-0.1217,0.4893-0.2155,0.8928-0.2829,1.2456
			c-0.0093,0.0487-0.0206,0.1004-0.0291,0.1472c-0.0009,0.0097-0.0046,0.0205-0.0056,0.0292
			c0.0065,0.0009,0.014,0.0029,0.0197,0.0048c0.1143-0.6374,0.2979-1.3938,0.6314-2.6005c0.266-0.9601,0.5884-1.8637,0.9293-2.8219
			c0.5294-1.4855,1.0774-3.0236,1.4203-4.8376c0.3017-1.5731,0.4075-3.2458,0.506-4.8628c0.0889-1.3939,0.1705-2.7098,0.3765-3.7566
			c0.431-2.2185,0.847-3.0792,1.6507-4.1825c-0.6146,1.2964-0.8937,2.0177-1.039,4.2839c-0.0608,0.9708-0.0271,2.2116,0.0094,3.5255
			c0.0478,1.7438,0.1021,3.7176-0.0647,5.3912c-0.0374,0.3694-0.0843,0.7241-0.1292,1.08
			c-0.0225,0.1637-0.0412,0.3304-0.0638,0.4923c-0.1939,1.3753-0.4402,2.658-0.6838,3.9047
			c-0.1499,0.7836-0.2961,1.5215-0.4179,2.2477c-0.2098,1.2438-0.3335,2.0537-0.3981,2.8209
			c0.0065,0.0019,0.013,0.0039,0.0206,0.0058c0.0046-0.0458,0.0056-0.0896,0.0103-0.1354
			C39.6843,47.1638,39.6889,47.1288,39.6909,47.0947z"/>
		<path class="st4" d="M34.2468,43.3117c0.0346-0.7398,0.0927-1.4962,0.1508-2.2964c0.0974-1.2847,0.193-2.6026,0.2249-4.0061
			c0.0037-0.1189,0.0037-0.2407,0.0046-0.3597c0.0037-0.3957,0.0084-0.7924,0.0029-1.2037
			c-0.0291-1.6863-0.3129-3.6328-0.5622-5.3503c-0.1892-1.2954-0.3691-2.5176-0.4197-3.4904
			c-0.1217-2.2672,0.0721-3.0295,0.5321-4.4146c-0.6689,1.2272-0.9827,2.1502-1.1524,4.4175
			c-0.0787,1.0712-0.0093,2.3881,0.0675,3.782c0.0881,1.6189,0.1799,3.2936,0.0655,4.8998
			c-0.1331,1.854-0.4946,3.4681-0.8469,5.0296c-0.2257,1.003-0.4384,1.9514-0.5931,2.9495
			c-0.1921,1.2515-0.2839,2.0313-0.3222,2.6814c0.9303,0.039,1.8578,0.1072,2.7815,0.2232
			C34.1559,45.4026,34.1821,44.5799,34.2468,43.3117z"/>
		<path d="M34.1934,45.9279c-0.0084-0.5038,0.0028-1.0478,0.0318-1.731c0.0094-0.272,0.0244-0.5614,0.0393-0.8851
			c0.0384-0.7388,0.0937-1.4952,0.1537-2.2945c0.0759-1.0254,0.1499-2.0781,0.1948-3.1717
			c0.0318-0.7749,0.0515-1.5673,0.0375-2.3998c-0.0206-1.1453-0.1594-2.4076-0.3233-3.6386
			c-0.0777-0.5849-0.1602-1.1629-0.2398-1.7156c-0.1882-1.2944-0.3672-2.5167-0.4188-3.4885
			c-0.0328-0.615-0.0413-1.1141-0.0291-1.5498c0.0347-1.2087,0.2398-1.8949,0.594-2.9622l-0.0159-0.0117
			c-0.505,0.9123-0.8123,1.6463-1.0137,2.8326c-0.0805,0.4786-0.1461,1.0244-0.1967,1.695
			c-0.0788,1.0722-0.0057,2.3891,0.0674,3.7839c0.015,0.2876,0.0299,0.579,0.045,0.8686c0.0693,1.3441,0.1152,2.7077,0.0205,4.0285
			c-0.0505,0.6872-0.1367,1.3334-0.2379,1.9631c-0.1687,1.0702-0.3888,2.0801-0.6071,3.0616
			c-0.223,0.9834-0.4309,1.9163-0.5827,2.8919c-0.0038,0.0196-0.0076,0.039-0.0104,0.0595
			c-0.1752,1.1404-0.2652,1.8821-0.3101,2.4992c-0.0037,0.0497-0.0094,0.1043-0.0112,0.153
			c-0.001,0.0098-0.0019,0.0235-0.0019,0.0341c0.0057,0,0.0131,0,0.0197,0c0.0384-0.6502,0.1302-1.4299,0.3222-2.6814
			c0.1546-0.9981,0.3673-1.9465,0.5931-2.9495c0.3523-1.5616,0.7138-3.1756,0.8469-5.0296
			c0.1144-1.6063,0.0225-3.2809-0.0655-4.8998c-0.0768-1.3939-0.1462-2.7108-0.0675-3.782
			c0.1696-2.2672,0.4835-3.1903,1.1524-4.4175c-0.46,1.3851-0.6539,2.1473-0.5321,4.4146c0.0506,0.9728,0.2305,2.1951,0.4197,3.4904
			c0.2492,1.7175,0.5331,3.664,0.5622,5.3503c0.0056,0.4113,0.0009,0.8081-0.0029,1.2037c-0.0009,0.119-0.0009,0.2408-0.0046,0.3597
			c-0.0318,1.4036-0.1275,2.7215-0.2249,4.0061c-0.0581,0.8002-0.1162,1.5566-0.1508,2.2964
			c-0.0647,1.2682-0.0909,2.0909-0.0666,2.8618c0.0057,0,0.0131,0.002,0.0206,0.002c-0.0018-0.0458-0.0047-0.0926-0.0057-0.1403
			C34.1934,46,34.1934,45.963,34.1934,45.9279z"/>
		<path class="st4" d="M34.6618,59.6384c5.8245-0.9095,11.0905-3.4954,15.297-7.248C44.0866,48.2945,37.2719,45.9338,30,45.9338
			s-14.0866,2.3607-19.9588,6.4566c4.2075,3.7526,9.4754,6.3395,15.3007,7.248c1.5271,0.1774,3.0748,0.2953,4.6571,0.2953
			C31.5833,59.9337,33.1338,59.8157,34.6618,59.6384z"/>
		<path d="M49.9588,52.3904c0.0112-0.0098,0.0215-0.0186,0.0318-0.0283c-0.0159-0.0107-0.0318-0.0234-0.0487-0.035
			c-0.0057-0.0039-0.0122-0.0078-0.0169-0.0117c-0.8047-0.5575-1.6226-1.0888-2.4564-1.5781
			c-0.0057-0.0029-0.0112-0.0078-0.0187-0.0107c-0.6428-0.3763-1.2929-0.7369-1.9497-1.0703
			c-0.1799-0.0916-0.3645-0.1696-0.5462-0.2573c-0.0057-0.0029-0.0131-0.0069-0.0187-0.0098
			c-0.862-0.4172-1.736-0.7993-2.6195-1.1423c-0.0057-0.0029-0.0131-0.0059-0.0187-0.0078
			c-0.8675-0.3373-1.7417-0.6414-2.626-0.9056c-0.0076-0.0019-0.0141-0.0039-0.0206-0.0058
			c-0.5396-0.1608-1.0802-0.3158-1.6255-0.4494c-0.3653-0.0897-0.7326-0.1579-1.1017-0.235
			c-0.0057-0.0019-0.0131-0.0039-0.0197-0.0048c-0.8947-0.1871-1.796-0.349-2.7028-0.463c-0.0075,0-0.015-0.002-0.0206-0.002
			c-0.9237-0.116-1.8512-0.1842-2.7815-0.2232c-0.0065,0-0.014,0-0.0197,0c-0.461-0.0186-0.9181-0.0419-1.3791-0.0419
			c-0.4506,0-0.8994,0.0234-1.3509,0.0409c-0.0065,0-0.0131,0-0.0206,0c-0.9284,0.038-1.8587,0.1053-2.7825,0.2194
			c-0.0065,0.0009-0.0131,0.0029-0.0197,0.0029c-0.9088,0.114-1.8082,0.2749-2.7028,0.462
			c-0.0075,0.0009-0.014,0.0019-0.0206,0.0039c-0.3757,0.079-0.7541,0.1491-1.1279,0.2407
			c-0.5359,0.1316-1.068,0.2837-1.6002,0.4425c-0.0065,0.002-0.0131,0.003-0.0206,0.0049c-0.8835,0.2642-1.7575,0.5673-2.625,0.9026
			c-0.0066,0.003-0.0131,0.0059-0.0187,0.0078c-0.8854,0.3442-1.7594,0.7252-2.6204,1.1414
			c-0.0047,0.0039-0.0122,0.0068-0.0187,0.0098c-0.1902,0.0916-0.3823,0.1735-0.5706,0.269
			c-0.6492,0.3295-1.2919,0.6842-1.9262,1.0556c-0.0075,0.0039-0.013,0.0078-0.0187,0.0117
			c-0.8338,0.4874-1.6526,1.0186-2.4573,1.5761c-0.0066,0.0039-0.0104,0.0078-0.0159,0.0117
			c-0.0244,0.0167-0.0478,0.0351-0.0721,0.0517c0.0103,0.0098,0.0215,0.0186,0.0309,0.0273
			C15.9134,48.2945,22.7281,45.9338,30,45.9338S44.0866,48.2945,49.9588,52.3904z"/>
	</g>
</g>
</svg>
