<?xml version="1.0" encoding="utf-8"?>
<!-- Generator: Adobe Illustrator 21.0.2, SVG Export Plug-In . SVG Version: 6.00 Build 0)  -->
<svg version="1.1" id="Layer_2" xmlns="http://www.w3.org/2000/svg" xmlns:xlink="http://www.w3.org/1999/xlink" x="0px" y="0px"
	 viewBox="0 0 410.1469 410.1422" style="enable-background:new 0 0 410.1469 410.1422;" xml:space="preserve">
<style type="text/css">
	.st0{fill:#FFFFFF;}
	.st1{fill:#CE1126;}
</style>
<g>
	<path class="st0" d="M0,205.0716c0,87.2411,54.5634,161.5505,131.3513,191.1915l57.0925-24.9412l-95.138-41.568l95.138-41.5642
		l-95.138-41.5595l95.138-41.5586l-95.138-41.5595l95.138-41.5595l-95.138-41.568l95.138-41.5595l-57.0925-24.9505
		C54.5634,43.5202,0,117.8343,0,205.0716z"/>
	<path class="st1" d="M93.3059,80.3845l95.138,41.568l-95.138,41.5595l95.138,41.5595l-95.138,41.5586l95.138,41.5595
		l-95.138,41.5642l95.138,41.568l-57.0925,24.9412c22.9074,8.8406,47.6975,13.8792,73.724,13.8792
		c113.2592,0,205.0716-91.8077,205.0716-205.0706C410.1469,91.8124,318.3345,0,205.0753,0c-26.0266,0-50.8167,5.0432-73.724,13.8744
		l57.0925,24.9505L93.3059,80.3845z"/>
</g>
</svg>
