<?xml version="1.0" encoding="utf-8"?>
<!-- Generator: Adobe Illustrator 21.1.0, SVG Export Plug-In . SVG Version: 6.00 Build 0)  -->
<svg version="1.1" id="Layer_1" xmlns="http://www.w3.org/2000/svg" xmlns:xlink="http://www.w3.org/1999/xlink" x="0px" y="0px"
	 viewBox="0 0 60 60" style="enable-background:new 0 0 60 60;" xml:space="preserve">
<style type="text/css">
	.st0{fill:#1EB53A;}
	.st1{fill:#CE1126;}
	.st2{fill:#FFFFFF;}
</style>
<g>
	<g>
		<path class="st0" d="M56.8246,43.3739C58.8389,39.3433,60,34.8129,60,29.9997c0-4.814-1.1611-9.3451-3.1768-13.3756
			l-20.063,13.3742L56.8246,43.3739z"/>
		<path class="st1" d="M7.3373,10.3822L29.999,25.4906l22.6616-15.1091C47.1606,4.0312,39.06,0,29.9997,0
			C20.9388,0,12.8387,4.0319,7.3373,10.3822z"/>
		<path class="st0" d="M3.1761,16.6241C1.1606,20.6547,0,25.1857,0,29.9997c0,4.8132,1.1599,9.3435,3.1761,13.3742l20.063-13.3756
			L3.1761,16.6241z"/>
		<path class="st1" d="M52.6634,49.6136L29.999,34.5054L7.3354,49.6136C12.8361,55.966,20.9374,60,29.9997,60
			C39.0612,60,47.1632,55.966,52.6634,49.6136z"/>
		<path class="st2" d="M7.3373,10.3822c-1.639,1.8883-3.0334,3.9843-4.1612,6.2419l20.063,13.3742L3.1761,43.3739
			c1.1257,2.2582,2.5222,4.352,4.1593,6.2397L29.999,34.5054l22.6644,15.1083c1.6383-1.8863,3.0327-3.9809,4.1612-6.2397
			L36.7602,29.9984l20.063-13.3742c-1.1278-2.2582-2.5229-4.3536-4.1626-6.2426L29.999,25.4906L7.3373,10.3822z"/>
		<circle class="st2" cx="29.9984" cy="29.9992" r="15"/>
		<g>
			<polygon class="st1" points="30.0036,25.6408 29.8951,25.4604 29.0241,23.9549 27.308,23.9549 27.0976,23.9549 27.2013,23.7732 
				28.0625,22.2803 27.2013,20.794 27.0976,20.6131 27.308,20.6131 29.0241,20.6131 29.8951,19.1101 30.0036,18.9258 
				30.1056,19.1101 30.9747,20.6131 32.6901,20.6131 32.9031,20.6131 32.7973,20.794 31.9403,22.2803 32.7973,23.7732 
				32.9031,23.9549 32.6901,23.9549 30.9747,23.9549 30.1056,25.4604 30.0036,25.6408 			"/>
			<path class="st0" d="M30.0003,19.1691l0.9019,1.5646h1.7879l-0.8933,1.5466l0.8933,1.5532h-1.7879l-0.9019,1.5639l-0.9033-1.5639
				H27.308l0.8926-1.5532l-0.8926-1.5466h1.7891L30.0003,19.1691z M30.0003,18.6826l-0.2124,0.3671l-0.8309,1.4427h-1.649h-0.4216
				l0.2112,0.3591l0.8261,1.4287l-0.8261,1.4312l-0.2112,0.3619h0.4216h1.649l0.8309,1.4433l0.2124,0.3686l0.2111-0.3686
				l0.8309-1.4433h1.6478h0.4234l-0.2104-0.3619l-0.8255-1.4312l0.8255-1.4287l0.2104-0.3591h-0.4234h-1.6445l-0.8342-1.4427
				L30.0003,18.6826L30.0003,18.6826z"/>
			<g>
				<polygon class="st1" points="22.9986,37.6701 22.8948,37.4886 22.023,35.9842 20.3062,35.9842 20.0958,35.9842 20.199,35.7999 
					21.0567,34.3123 20.199,32.8235 20.0958,32.6424 20.3062,32.6424 22.023,32.6424 22.8948,31.1334 22.9986,30.9565 
					23.1031,31.1334 23.9702,32.6424 25.6837,32.6424 25.8961,32.6424 25.7943,32.8235 24.9352,34.3123 25.7943,35.7999 
					25.8961,35.9842 25.6837,35.9842 23.9702,35.9842 23.1031,37.4886 22.9986,37.6701 				"/>
				<path class="st0" d="M22.9986,31.1945l0.8993,1.5679h1.7858l-0.89,1.5499l0.89,1.5492h-1.7858l-0.8993,1.5654l-0.9045-1.5654
					h-1.7879l0.8932-1.5492l-0.8932-1.5499h1.7879L22.9986,31.1945z M22.9986,30.7127l-0.2144,0.3619l-0.8323,1.4453h-1.6457
					h-0.4228l0.2098,0.3659l0.8241,1.4265l-0.8241,1.4293l-0.2098,0.3633h0.4228h1.6491l0.8289,1.4447l0.2144,0.3659l0.2124-0.3659
					l0.8282-1.4447h1.6445h0.4289l-0.2111-0.3633l-0.8263-1.4293l0.8209-1.4265l0.213-0.3659h-0.4254h-1.6445l-0.8282-1.4453
					L22.9986,30.7127L22.9986,30.7127z"/>
			</g>
			<g>
				<polygon class="st1" points="37.0068,37.6701 36.8995,37.4886 36.0304,35.9842 34.3157,35.9842 34.1013,35.9842 
					34.2038,35.7999 35.0634,34.3123 34.2038,32.8235 34.1013,32.6424 34.3157,32.6424 36.0304,32.6424 36.8995,31.1334 
					37.0068,30.9565 37.1105,31.1334 37.9784,32.6424 39.6911,32.6424 39.9049,32.6424 39.8003,32.8235 38.9426,34.3123 
					39.8003,35.7999 39.9096,35.9842 39.6911,35.9842 37.9784,35.9842 37.1105,37.4886 37.0068,37.6701 				"/>
				<path class="st0" d="M37.0068,31.1945l0.8972,1.5679h1.7871l-0.8926,1.5499l0.8972,1.5492H37.904l-0.8972,1.5654l-0.9046-1.5654
					h-1.7865l0.8905-1.5492l-0.8905-1.5499h1.7865L37.0068,31.1945z M37.0068,30.7127l-0.2124,0.3619l-0.8342,1.4453h-1.6445
					h-0.4282l0.2138,0.3659l0.8275,1.4265l-0.8275,1.4293l-0.2104,0.3633h0.4247h1.6445l0.8342,1.4447l0.2124,0.3659l0.2083-0.3659
					l0.8316-1.4447h1.649h0.4223l-0.2085-0.3633l-0.8268-1.4293l0.8268-1.4265l0.2085-0.3659h-0.4269h-1.6443l-0.8316-1.4453
					L37.0068,30.7127L37.0068,30.7127z"/>
			</g>
		</g>
	</g>
</g>
</svg>
