<?xml version="1.0" encoding="utf-8"?>
<!-- Generator: Adobe Illustrator 21.1.0, SVG Export Plug-In . SVG Version: 6.00 Build 0)  -->
<svg version="1.1" id="Layer_1" xmlns="http://www.w3.org/2000/svg" xmlns:xlink="http://www.w3.org/1999/xlink" x="0px" y="0px"
	 viewBox="0 0 60 60" style="enable-background:new 0 0 60 60;" xml:space="preserve">
<style type="text/css">
	.st0{clip-path:url(#SVGID_2_);fill:#CF142B;}
	.st1{clip-path:url(#SVGID_2_);fill:#00247D;}
	.st2{clip-path:url(#SVGID_2_);fill:#FFFFFF;}
	.st3{fill:#FFFFFF;}
	.st4{fill:#2F8F22;}
	.st5{fill:#D40000;stroke:#000000;stroke-width:0.0618;stroke-linejoin:round;}
	.st6{fill:#64B4D1;stroke:#000000;stroke-width:0.0464;}
	.st7{fill:#FFFFFF;stroke:#00247D;stroke-width:0.0618;stroke-miterlimit:10;}
	.st8{fill:none;stroke:#000000;stroke-width:0.0618;stroke-miterlimit:10;}
	.st9{fill:#784421;stroke:#000000;stroke-width:0.0464;}
	.st10{fill:#64B4D1;stroke:#00247D;stroke-width:0.0464;stroke-miterlimit:2.613;}
	.st11{fill:#F5CE00;stroke:#000000;stroke-width:0.0618;stroke-miterlimit:2.613;}
	.st12{fill:#E4CB5E;stroke:#000000;stroke-width:0.0464;stroke-miterlimit:2.613;}
	.st13{fill:none;stroke:#000000;stroke-width:0.0464;stroke-miterlimit:10;}
	.st14{fill:#784421;stroke:#000000;stroke-width:0.0283;}
	.st15{fill:none;stroke:#000000;stroke-width:0.0155;stroke-miterlimit:2.613;}
	.st16{fill:none;stroke:#000000;stroke-width:0.0618;stroke-miterlimit:2.613;}
	.st17{fill:none;stroke:#000000;stroke-width:0.0464;stroke-miterlimit:2.613;}
	.st18{fill:none;stroke:#00247D;stroke-width:0.0618;stroke-miterlimit:10;}
	.st19{fill:#784421;}
	.st20{fill:none;stroke:#000000;stroke-width:0.1488;}
</style>
<title>Flag of Barbados</title>
<g>
	<defs>
		<circle id="SVGID_1_" cx="30" cy="30.0001" r="30"/>
	</defs>
	<clipPath id="SVGID_2_">
		<use xlink:href="#SVGID_1_"  style="overflow:visible;"/>
	</clipPath>
	<rect id="rect2414_2_" x="-30.4259" y="-0.2125" class="st0" width="120.8518" height="60.4256"/>
	<rect id="rect124_2_" x="-30.4259" y="-0.2125" class="st1" width="60.4259" height="30.2127"/>
	<path id="path146_2_" class="st2" d="M-30.4259-0.2125v3.3771l53.6704,26.8355H30v-3.3775L-23.6704-0.2125H-30.4259z M30-0.2125
		v3.3771l-53.6704,26.8355h-6.7555v-3.3775L23.2445-0.2125H30z"/>
	<path id="path136_2_" class="st2" d="M-5.2483-0.2125v30.2127h10.071V-0.2125H-5.2483z M-30.4259,9.8579v10.0709H30V9.8579
		H-30.4259z"/>
	<path id="path141_2_" class="st0" d="M-30.4259,11.8723v6.0424H30v-6.0424H-30.4259z M-3.234-0.2125v30.2127h6.0422V-0.2125H-3.234
		z"/>
	<path id="path150_2_" class="st0" d="M-30.4259,30.0002l20.1421-10.0714h4.5037l-20.1418,10.0714H-30.4259z M-30.4259-0.2125
		l20.1421,10.0704h-4.5037l-15.6384-7.8185V-0.2125z M5.3542,9.8579L25.4963-0.2125H30L9.8579,9.8579H5.3542z M30,30.0002
		L9.8579,19.9287h4.504L30,27.7481V30.0002z"/>
</g>
<g>
	<path class="st3" d="M52.4822,21.2095v15.7561c0,4.2086-8.4134,5.576-8.4134,5.576s-8.4134-1.3674-8.4134-5.576V21.2095H52.4822z"
		/>
	<path class="st4" d="M52.4822,36.9657c0,4.2086-8.4134,5.576-8.4134,5.576s-8.4134-1.3674-8.4134-5.576c0,0,0-0.339,0.1712-0.5317
		c0,0-0.0927,0.7,0.4451,1.2295c0,0-0.4219-0.7469-0.0093-1.4809c0,0-0.153,0.9444,0.4358,1.4867c0,0-0.3245-0.7714,0.0417-1.6317
		c0,0-0.1808,1.4072,0.459,1.6878c0,0,0.1761-0.8088-0.0788-1.3278c0,0,0.4405,0.1776,0.4172,1.3511c0,0,0.1391-0.173,0.1761-1.0192
		c0,0,0.0185,0.9678,0.3523,1.1922c0,0,0.102-0.0982-0.0371-0.5376c-0.1391-0.4395,0.0603-0.5937,0.0927-0.5844
		c0,0-0.0731,0.4862,0.3343,0.8509c0,0-0.1767-0.7621,0.0691-0.8649c0,0-0.051,0.6452,0.459,0.7901c0,0,0.0371-0.187-0.0742-0.3974
		c0,0-0.0973-0.2495-0.0232-0.4404c0,0,0.1623,0.5853,0.3848,0.6835c0,0-0.1345-0.343-0.0093-0.6835
		c0,0,0.0278,0.4871,0.4636,0.6881c0,0-0.2871-0.3771-0.1737-0.7917l2.8023,0.1371l1.4511,0.0692l4.3533-0.3076l0.7511-0.6452
		c0,0,0.2967,0.4114-0.1715,1.0613c0,0,0.4636-0.0842,0.612-0.8088c0,0,0.1901,0.4021-0.0696,0.8462
		c0,0,0.5146-0.5143,0.5888-1.0987c0,0,0.1994,0.5657-0.2875,1.1735c0,0,0.4358-0.145,0.6213-0.7901
		c0,0,0.1484,0.3886-0.2735,0.9377c0,0,0.7881-0.4187,0.765-1.2836c0,0,0.3291,0.4768-0.0464,1.1314c0,0,0.4033-0.36,0.4405-0.8977
		c0,0,0.2226,0.2431-0.0185,0.9116c0,0,0.4914-0.4629,0.5656-0.9631c0,0,0.1066,0.4629-0.3153,1.0472
		c0,0,0.2875-0.0701,0.561-0.6405c0,0,0.0742,0.2244-0.1761,0.6359c0,0,0.2689-0.0467,0.4497-0.561c0,0,0.0324,0.3086-0.0464,0.5844
		c0,0,0.2087-0.1356,0.255-0.72c0,0,0.1165,0.1917,0.1185,0.4301C52.4842,37.1222,52.4822,36.9657,52.4822,36.9657z"/>
	<path class="st5" d="M48.1497,27.8573c0,0-0.2924,0.0497-0.6679-0.0647c-0.3755-0.1144-0.5273-0.0679-0.6438,0
		c0,0,0.1524-0.3017-0.2185-0.54c0,0,0.1206,0.3046-0.0464,0.4469c0,0-0.0742,0.0698-0.1623-0.0353c0,0-0.1298-0.1333-0.2665-0.2361
		c0,0,0.3153-0.1098,0.2573-0.4301s-0.2295-0.3623-0.3222-0.4021c0,0,0.0324,0.145,0,0.2431c0,0-0.343-0.1917,0.1229-0.4629
		c0.4659-0.2712,0.3802-0.4301,0.2967-0.5681c-0.0834-0.1379-0.2619-0.2898-0.35-0.3436c0,0,0.0927,0.145,0.0765,0.2689
		c-0.0162,0.1239-0.2272,0.2034-0.1854-0.014c0.0417-0.2174-0.0023-0.18-0.007-0.4114c0,0,0.4149,0.1403,0.5772-0.2642
		c0,0,0.1599-0.4184-0.364-0.6265c0,0,0.1275,0.1706,0.0649,0.2992c0,0-0.1112,0.2104-0.2434,0.0397
		c-0.1322-0.1706-0.2156-0.2034-0.2017-0.4044c0,0,0.4752,0.0655,0.3454-0.4512c0,0-0.0765,0.3436-0.6931-0.1192
		c0,0,0.401-0.4114,0.2457-0.7434c0,0-0.0487-0.152-0.4845-0.0631c0,0,0.3779-0.2384,0.2179-0.4418c0,0-0.0811-0.1356-0.4335,0.042
		c0,0,0.1368-0.2361-0.2087-0.4909c0,0-0.2318,0.1216-0.3547,0.2337c0,0-0.2364-0.2992-0.3871-0.4184
		c0,0-0.2735,0.1052-0.343,0.4184c0,0-0.1275-0.152-0.4172-0.2221c0,0-0.1391,0.2572,0.0417,0.4815c0,0-0.1345-0.0047-0.3802-0.1122
		c0,0-0.2805-0.1333-0.2388,0.1075c0.0417,0.2408,0.0626,0.2945,0.1182,0.4067c0,0-0.6294-0.1461-0.6027,0.194
		c0.0185,0.2361,0.1066,0.4395,0.3014,0.6101c0,0-0.3523,0.4605-0.6537,0.1145c0,0-0.1043,0.1122,0.1206,0.4067
		c0,0,0.2249,0.2478,0.0394,0.4044c0,0-0.248,0.1987-0.3686-0.187c0,0-0.401,0.3997,0.0719,0.706c0,0,0.3037,0.173,0.6143-0.0935
		c0,0-0.095,0.7668-0.3918,0.6195c0,0-0.1785-0.1309,0.1414-0.2875c0,0-0.4613-0.0584-0.5355,0.3881
		c0,0-0.0569,0.3553,0.3454,0.4839c0,0,0.3106,0.1122-0.0116,0.353c0,0-0.2272,0.173-0.0788,0.4301c0,0,0.1785,0.2828-0.2735,0.3109
		c0,0-0.2457-0.0023-0.3338-0.035c0,0-0.0991,0.1843-0.0298,0.3949c0,0-0.2251-0.1677-0.7374,0.0179
		c-0.5123,0.1857-0.4729,0.0548-0.5146,0.1109c-0.0417,0.0561-0.1414,0.2454-0.1414,0.2454s0.2689,0.3273,0.2735,0.3203
		c0.0046-0.007-0.051,0.374-0.051,0.374l0.1322,0.0631l1.0547-0.4698l1.071-0.5581l0.861,0.0528l0.5461,0.13l0.7173,0.0522
		l0.5137-0.274h0.7441l0.8184,0.4078l0.934,0.5573l0.4868,0.0854l0.375-0.02V28.131L48.1497,27.8573z"/>
	<path class="st5" d="M39.6543,28.7418c0,0,0.408,0.2081,0.5783-0.0444c0,0,0.2226-0.4243-0.266-0.5716
		c0,0,0.266-0.3191-0.0191-0.6136c0,0-0.1495-0.1578-0.4103-0.042c0,0-0.1078-0.2244-0.3616-0.2174c0,0-0.2225-0.0035-0.299,0.2419
		c0,0-0.306-0.1262-0.4764,0.0561c0,0-0.2817,0.3156,0.1112,0.5646l0.2828,0.0257l0.2782-0.1286l0.3106,0.0889
		C39.3831,28.1013,39.3031,28.4157,39.6543,28.7418z"/>
	<path class="st6" d="M48.7614,27.9957c0.4915-0.0463,0.665,0.3685,0.665,0.3685c0.2576,0.6044-0.2895,0.927-0.2895,0.927
		c0.0417,0.1356,0.0464,0.3132,0.0464,0.3132c0.7696,0.0935,0.635,0.9584,0.635,0.9584l-0.2549-0.2104
		c-0.4451-0.173-0.904,0.2057-1.2332,0.8415c-0.3291,0.6359-0.1715,0.9351-0.1159,1.6878c0.0557,0.7527,1.2795,1.2016,1.2795,1.2016
		s-0.5795,1.4914-0.955,2.4498c-0.3755,0.9585-1.1591,0.561-1.3862,0.3591c-0.2272-0.2019-0.284-0.0897-0.3987,0
		c-0.1147,0.0897,0.5146,0.5806-0.6305,1.0434s-1.3445,0.8182-1.5346,0.9351c-0.1901,0.1169-0.9829,0.0374-1.0617-0.0608
		c-0.0788-0.0981-0.0324-0.0981-0.3291-0.2805c-0.2967-0.1823-0.7974-0.3413-1.3445-0.6078
		c-0.5471-0.2665-0.5332-0.6078-0.5285-0.6779c0.0046-0.0701,0.1901-0.6405-0.4506-0.187c-0.6407,0.4535-1.1859-0.216-1.1859-0.216
		c-0.1252-0.1645-0.6583-1.5933-0.6583-1.5933c-0.1437-0.533-0.4265-1.1548-0.4265-1.1548
		c0.0139-0.0047-0.0278,0.0655,0.4451-0.2057c0.4729-0.2712,0.6847-0.7223,0.8484-1.1688s0.0046-1.2109-0.0557-1.3652
		c-0.0603-0.1543-0.4126-0.8616-0.8489-1.0099c-0.4363-0.1482-0.7289,0.2197-0.7289,0.2197s-0.1346-0.8649,0.635-0.9584
		c0,0,0.0046-0.1776,0.0464-0.3132c0,0-0.5471-0.3226-0.2895-0.927c0,0,0.1735-0.4148,0.665-0.3685l-0.1189,0.2249
		c0,0-0.1237,1.2343,1.6829,0.4067s1.7524-0.9818,2.7817-0.4629l0.7511-0.014c0,0,1.0849-0.5018,1.4325-0.286
		c0.3477,0.2159,1.5994,0.9171,1.5994,0.9171s1.21,0.4538,1.4465-0.3832L48.7614,27.9957z"/>
	<path class="st7" d="M43.3255,33.347c0,0-0.0628-0.3788-0.1288-0.6242c0,0-0.1341-0.385,0.0947-0.6553l0.2837-0.3265
		c0,0,0.1763-0.2372,0.3945-0.2694c0,0,0.2183-0.0065,0.2391-0.0509c0.0208-0.0444,0.2596-0.4373,0.8276,0
		c0,0,0.1808-0.2898,0.459-0.339c0,0,0.3005-0.0912,0.4458,0.1333c0,0,0.3377-0.2561,0.6275,0.156c0,0,0.401-0.2255,0.6931,0.2229
		c0,0,0.3964-0.1933,0.6398,0.2188s0.1947,0.5804,0.1947,0.5804l0.1807,0.6545l0.64,0.7901l-1.4882,0.561H46.761l-1.3352,0.3576
		l-2.3713,0.1823l-0.6606-0.7784L43.3255,33.347z"/>
	<path class="st5" d="M41.3211,37.2882c0,0-0.3547,0.0211-0.5355,0.1122s-0.3199,0.1894-0.5285,0.3226
		c0,0-0.0973,0.1297-0.5076,0.0508c0,0-0.7093-0.17-0.7093,0.384c0,0-0.8484,0.0701-0.5007,0.8135c0,0,0.2364,0.5821,0.7232,0.1683
		c0,0-0.3129,0.4488,0.2921,0.6242c0,0,0.4312,0.1052,0.5563-0.3366c0,0,0.0696-0.1753-0.0973-0.3928
		c0,0,0.2087-0.042,0.3547-0.2665c0,0-0.4451,0.5625,0.0417,0.7651c0,0,0.6118,0.1535,0.6467-0.4847
		c0,0-0.0499-0.2945,0.1872-0.3997c0,0,0.4875-0.1122,0.71-0.6557C41.954,37.993,41.253,37.6197,41.3211,37.2882z"/>
	<path class="st5" d="M39.8889,31.6947c0,0-0.5471-0.252-0.8067,0c0,0-0.3617-0.2239-0.7418,0c0,0-0.3616,0.2363-0.612,0.4966
		c0,0-0.1761,0.1508-0.1112,0.6263c0,0,0.0927,0.3352,0.0371,0.5036c0,0-0.1205-0.0239-0.3616,0.2618
		c0,0-0.306,0.3544-0.5748,0.0416c0,0,0.0834,0.4353,0.5888,0.3652c0,0-0.2457,0.1917-0.0324,0.6873
		c0,0,0.1576,0.3506-0.0927,0.7901c0,0,0.4405-0.1776,0.4219-0.6966c0,0-0.0371-0.3506,0.0927-0.5984
		c0,0-0.1298,0.2253,0.1715,0.706c0,0,0.2318,0.3459,0.0417,0.706c0,0,0.4358-0.1589,0.3941-0.6873
		c-0.0417-0.5283-0.306-0.3086-0.1345-0.7948c0,0,0.0417,0.2491,0.1715,0.3747c0.1298,0.1256,0.2967,0.336,0.2272,0.6866
		c0,0,0.2596-0.3226,0.1994-0.6545s-0.1252-0.4323-0.1252-0.4323l0.8206-0.4653l0.408-0.7387L39.8889,31.6947z"/>
	<path class="st8" d="M38.6418,33.7794c0,0-0.3384-0.0234-0.3941-0.2852"/>
	<path class="st8" d="M37.6542,33.3212c0,0,0.118-0.0047,0.2246,0.1028c0,0,0.0814,0.1216,0.1973,0.1075"/>
	<path d="M39.1424,32.7836c0,0-0.1761,0-0.2735-0.0842c0,0-0.102-0.0701-0.1623,0.042c0,0-0.0927,0.1589,0.0788,0.2291
		c0,0,0.2133,0.1075-0.1252,0.3226c0,0,0.4033-0.145,0.2411-0.3413c0,0-0.1761-0.1262-0.1112-0.173c0,0,0.0185-0.0374,0.0881,0.0094
		C38.9478,32.835,39.0868,32.8163,39.1424,32.7836z"/>
	<polygon class="st9" points="44.6723,33.6768 43.3166,28.9952 43.267,29.0085 44.4649,33.7469 	"/>
	<path d="M39.9512,38.929c0,0-0.3199-0.1797-0.5841,0.0307c0,0,0.027-0.1169,0.2291-0.1683c0,0,0.1094-0.3086,0.4153-0.2805
		c0,0-0.1252,0.1496-0.2921,0.2759C39.7194,38.7866,39.8956,38.8049,39.9512,38.929z"/>
	<path class="st10" d="M38.8246,39.6726c0,0-0.5077-0.3191-0.233-0.8556c0,0,0.08-0.1543,0.233-0.1227
		c0,0,0.3164,0.0982,0.0696,0.5365C38.8941,39.2308,38.769,39.5148,38.8246,39.6726z"/>
	<path class="st10" d="M39.8538,40.1776c0,0-0.7232-0.3296-0.5007-0.8907c0,0,0.0688-0.1894,0.2291-0.1753
		c0,0,0.2789,0.014,0.2231,0.3857C39.8053,39.4973,39.7217,39.862,39.8538,40.1776z"/>
	<path d="M39.7008,38.0838c0,0-0.2173,0.1605-0.3057,0.268c0,0-0.0884-0.1098-0.2043-0.1765c0,0,0.1334-0.0176,0.2043,0.0425
		C39.3951,38.2178,39.5061,38.1103,39.7008,38.0838z"/>
	<path class="st10" d="M40.3441,40.0373c0,0,0.5667-0.1438,0.4625-0.7293c0,0-0.0557-0.256-0.2956-0.2209
		c0,0-0.2891,0.0738-0.1008,0.446C40.4101,39.5331,40.5214,39.7989,40.3441,40.0373z"/>
	<path class="st11" d="M42.9048,27.6491c0,0,0.3651,0.1119,0.5633,0.1927c0,0,0.5285,0.2384,1.1996,0
		c0,0,0.4538-0.1797,0.5143-0.1927l-0.3475,0.5294l-0.0174,0.2735l0.2174,0.3191c0,0-0.1304,0.0526-0.5199-0.1859
		c0,0-0.4312-0.3331-0.9458,0c0,0-0.2817,0.1908-0.5181,0.1859l0.3338-0.3727l-0.1287-0.3356L42.9048,27.6491z"/>
	<path class="st3" d="M40.5631,39.3377c0,0,0.0208-0.0281-0.0035-0.0403c0,0-0.0243-0.0105-0.0417,0.0237
		c0,0-0.0591,0.0938-0.0091,0.2222c0,0,0.0473,0.089,0.0243,0.1819c0,0-0.0031,0.0263,0.0178,0.0298c0,0,0.02-0.007,0.0239-0.0263
		c0,0,0.0283-0.0907-0.0204-0.1795C40.5545,39.5492,40.4953,39.4114,40.5631,39.3377z"/>
	<path class="st5" d="M48.4137,28.7418c0,0-0.408,0.2081-0.5783-0.0444c0,0-0.2225-0.4243,0.266-0.5716
		c0,0-0.266-0.3191,0.0191-0.6136c0,0,0.1495-0.1578,0.4103-0.042c0,0,0.1078-0.2244,0.3616-0.2174c0,0,0.2225-0.0035,0.299,0.2419
		c0,0,0.306-0.1262,0.4763,0.0561c0,0,0.2817,0.3156-0.1112,0.5646l-0.2828,0.0257l-0.2782-0.1286l-0.3106,0.0889
		C48.6849,28.1013,48.7649,28.4157,48.4137,28.7418z"/>
	<path class="st11" d="M45.1823,28.4123c0,0-0.0103,0.0842-0.0938,0.0935c0,0-0.0871,0.0281-0.1378-0.0804
		c0,0-0.0059-0.0246-0.0072-0.0365c-0.0058-0.0507-0.0231-0.1964,0.1345-0.3156c0,0,0.2573-0.2104,0.7488,0.0444
		c0,0,0.3894,0.187,0.6583,0.3459c0,0,0.6954,0.374,0.7789,0.4021c0,0,0.306,0.1543,0.7742,0.173c0,0,0.6398,0.0467,0.911-0.4021
		c0,0,0.2063-0.3413,0-0.5587c0,0-0.0834-0.0982-0.2206-0.0801c-0.0576,0.0076-0.1212,0.0341-0.1827,0.1058
		c0,0-0.0996,0.145,0.0162,0.2525c0,0,0.1507,0.0923,0.204-0.1028c0,0,0.0023-0.014,0.0069,0.0035
		c0.003,0.0113,0.0371,0.1601-0.0429,0.2863c0,0-0.386,0.5841-1.4476-0.0212l-1.4001-0.7853c0,0-0.7024-0.36-1.1219,0.2034
		c0,0-0.3384,0.4675,0.0973,0.7738c0,0,0.3245,0.194,0.5285-0.1145c0,0,0.1692-0.3039-0.0973-0.4371
		c0,0-0.2341-0.1098-0.3268,0.1239c-0.0927,0.2337,0.1808,0.2945,0.2063,0.1286C45.1684,28.4146,45.1754,28.3748,45.1823,28.4123z"
		/>
	<path class="st12" d="M39.6324,30.8223c0,0,0-0.7293,0-0.8766c0-0.0688,0.0005-0.1262,0.1048-0.2104
		c0.1043-0.0842,0.2156-0.2174,0.3755,0.1613c0,0,0.3129-0.3296,0.4172-0.3787c0,0,0.1808-0.1543,0.306,0.0701
		c0,0,0.1669-0.2525,0.299-0.3156c0,0,0.3129-0.2034,0.3268,0.4067l0.2434-0.2244c0,0,0.1877-0.1543,0.3964,0.0561
		c0,0,0.3547,0.3436,0.4033,0.4418c0,0,0.0783,0.1063,0.0843,0.2741c0,0-0.0009,0.1888,0.0964,0.2939
		c0,0,0.1112,0.0982,0.219,0.1192c0,0,0.2538,0.007,0.3442,0.2454c0,0,0.0417-0.0413,0.1669,1.1014v2.0825l-1.4048,1.6761
		l-2.2532-0.6452l-0.8971-0.3717l-0.2017-0.6592l0.8693-0.561l0.4729-1.2763l-0.153-0.8977L39.6324,30.8223z"/>
	<path class="st9" d="M45.8406,31.928l0.1066-0.1589l0.255-0.1964c0,0,0.3894,1.022,0.408,1.245v0.3172
		c0,0,0.5841,0.149,0.6862,1.0467l-0.4821,0.8883l-0.7557-0.4208l-0.2179-0.1589V31.928H45.8406z"/>
	<path class="st3" d="M38.6837,38.9451c0,0,0.0278-0.0368,0.0087-0.0526c0,0-0.0122-0.0176-0.0452,0.0246
		c0,0-0.1536,0.1717-0.0313,0.4357c0,0,0.0139,0.0377,0.0382,0.0254c0,0,0.0208-0.0105,0.0017-0.042
		C38.656,39.336,38.5465,39.1186,38.6837,38.9451z"/>
	<path class="st8" d="M40.9618,38.7726c0,0,0.0231-0.0795-0.0324-0.1636c0,0-0.0371-0.0608-0.0232-0.1403"/>
	<path class="st13" d="M41.4618,29.6792c0,0,0.0021,0.2192,0.0647,0.3806c0.0626,0.1613,0.2739,0.4403,0.2878,0.5911"/>
	<path class="st5" d="M46.7609,37.2882c0,0,0.3547,0.0211,0.5355,0.1122s0.3199,0.1894,0.5285,0.3226
		c0,0,0.0973,0.1297,0.5077,0.0508c0,0,0.7093-0.17,0.7093,0.384c0,0,0.8484,0.0701,0.5007,0.8135c0,0-0.2364,0.5821-0.7232,0.1683
		c0,0,0.3129,0.4488-0.2921,0.6242c0,0-0.4312,0.1052-0.5563-0.3366c0,0-0.0696-0.1753,0.0973-0.3928
		c0,0-0.2087-0.042-0.3547-0.2665c0,0,0.4451,0.5625-0.0417,0.7651c0,0-0.6118,0.1535-0.6467-0.4847
		c0,0,0.0499-0.2945-0.1871-0.3997c0,0-0.4875-0.1122-0.71-0.6557C46.1281,37.993,46.829,37.6197,46.7609,37.2882z"/>
	<line class="st13" x1="41.182" y1="30.6505" x2="41.7608" y2="35.3222"/>
	<line class="st13" x1="41.3158" y1="30.6404" x2="41.9649" y2="34.995"/>
	<line class="st13" x1="41.4374" y1="30.6202" x2="42.1851" y2="34.9389"/>
	<polygon class="st9" points="42.8272,34.4971 41.4714,29.8155 41.4218,29.8288 42.6198,34.5672 	"/>
	<line class="st13" x1="41.8522" y1="30.4487" x2="43.2213" y2="33.908"/>
	<line class="st13" x1="41.7608" y1="30.5046" x2="43.0821" y2="34.1184"/>
	<path class="st3" d="M39.5919,39.8456c0,0-0.1589-0.1523-0.1368-0.4254c0,0,0.0093-0.0584-0.0199-0.0665
		c0,0-0.0311-0.0129-0.0357,0.0548c0,0-0.044,0.2852,0.1484,0.4488c0,0,0.0131,0.0164,0.0344,0.0117
		C39.5822,39.869,39.605,39.8639,39.5919,39.8456z"/>
	<line class="st13" x1="41.914" y1="30.4017" x2="43.3255" y2="33.5574"/>
	<line class="st13" x1="41.5279" y1="30.5978" x2="42.3937" y2="34.8477"/>
	<path class="st11" d="M48.6102,33.7469c-0.6184-0.3509-0.754-1.1293-0.754-1.1293c-0.1495-0.7749,0.153-1.3886,0.153-1.3886
		c0.3999-0.845,1.0851-1.0023,1.0851-1.0023s-0.6713,0.4658-0.859,1.0934c0,0-0.1461,0.5295-0.0626,1.0519
		c0.0834,0.5225,0.0522,0.3892,0.1808,0.7924L48.6102,33.7469z"/>
	<path class="st14" d="M45.9473,31.7691l-2.5983,0.8204l-0.1417,1.1574c-0.6166,0.8932-1.8696,1.0517-1.8696,1.0517l0.9748,1.0379
		l1.873,0.3928l0.9829-0.7574l0.8901-0.8229c-0.0927-0.4395-0.0417-1.0916-0.0417-1.0916c0-0.1098,0.0417-0.367,0.0417-0.367
		S45.9055,32.1338,45.9473,31.7691z"/>
	<path class="st13" d="M43.2429,33.4561c0,0,1.7113-0.5344,2.7317-0.9634"/>
	<path class="st13" d="M42.4215,34.4316c0,0,2.1349-0.3857,3.637-1.2412l0.5517-0.3727"/>
	<path class="st15" d="M44.945,28.3983"/>
	<path class="st13" d="M46.6102,33.1348l-0.5934,0.4225c0,0-2.3876,1.101-4.2056,1.1304"/>
	<path class="st13" d="M46.0163,34.3397c0,0-1.8354,0.9451-2.8878,0.9592"/>
	<path class="st5" d="M48.2051,31.6947c0,0,0.5471-0.252,0.8067,0c0,0,0.3616-0.2239,0.7418,0c0,0,0.3616,0.2363,0.612,0.4966
		c0,0,0.1761,0.1508,0.1112,0.6263c0,0-0.0927,0.3352-0.0371,0.5036c0,0,0.1205-0.0239,0.3616,0.2618
		c0,0,0.306,0.3544,0.5748,0.0416c0,0-0.0834,0.4353-0.5888,0.3652c0,0,0.2457,0.1917,0.0324,0.6873
		c0,0-0.1576,0.3506,0.0927,0.7901c0,0-0.4405-0.1776-0.4219-0.6966c0,0,0.0371-0.3506-0.0927-0.5984
		c0,0,0.1298,0.2253-0.1715,0.706c0,0-0.2318,0.3459-0.0417,0.706c0,0-0.4358-0.1589-0.3941-0.6873
		c0.0417-0.5283,0.306-0.3086,0.1345-0.7948c0,0-0.0417,0.249-0.1715,0.3747c-0.1298,0.1256-0.2967,0.336-0.2272,0.6866
		c0,0-0.2596-0.3226-0.1994-0.6545s0.1252-0.4323,0.1252-0.4323l-0.8206-0.4653l-0.408-0.7387L48.2051,31.6947z"/>
	<path class="st7" d="M38.9097,34.6514c0,0,0.0765-0.3624,0.4242-0.2198c0,0,0.1182-0.5937,0.7511-0.6147
		c0.6328-0.0211,0.6676,0.6171,0.6676,0.6592c0,0,0.1859-0.274,0.4963-0.2422c0,0,0.5351-0.0316,0.3358,0.8276l0.1012,0.1078
		c0,0,0.4088-0.9597,1.2503-0.7072c0,0,0.8206,0.2501,0.2852,1.0449c0,0,0.405,0.526,0.7484,0.4768s0.6494-0.1543,0.9901-0.7574
		c0.3407-0.6031,1.1335-0.6943,1.3352-0.6592c0.2017,0.035,0.361,0.166,0.3939,0.3086c0,0,0.4198-1.401,1.9288-1.1809l0.605,0.3043
		l0.2295,0.1052l-0.3421,0.9654l-0.8334,1.8837L47.644,37.148l-0.6606-0.3787l-0.2295,0.123l-0.0188,0.5642l-0.8714,0.6272
		l-0.605,0.2494l-0.6676,0.4559l-0.1553,0.4075c0,0-0.3687-0.1553-0.7848,0l-0.1377-0.3373l-0.3894-0.3717l-1.5128-0.7136
		l-0.2733-0.8815l-0.2761-0.123l-0.3091,0.3541l-0.452,0.0527l-0.6746-0.4559L38.9097,34.6514z"/>
	<path class="st16" d="M45.4976,27.7928c0,0-0.5774-0.0257-0.5565,0.5728"/>
	<path class="st11" d="M49.2957,34.1499c-1.0049-0.3086-1.2795-1.3886-1.2795-1.3886c-0.2052-0.81,0.1252-1.5183,0.1252-1.5183
		c0.459-1.0779,1.2356-1.0777,1.2356-1.0777c0.3894-0.0105,0.4361,0.3226,0.4361,0.3226c0.0368,0.2361-0.129,0.3214-0.129,0.3214
		c-0.2665,0.145-0.4347-0.0514-0.4347-0.0514c-0.1112-0.145-0.0255-0.2735-0.0255-0.2735c0.0684-0.0958,0.1994-0.0538,0.1994-0.0538
		c0.1037,0.0321,0.0927,0.1618,0.0927,0.1618c0.0006,0.0035,0.0029,0.0035,0.0029,0.0035c0.0046-0.0012,0.0029-0.0029,0.0029-0.0029
		s0.0231-0.1589-0.1322-0.1753c0,0-0.3025-0.0655-0.6571,0.3764c0,0-0.467,0.5961-0.4659,1.3675c0,0-0.0591,1.4482,1.4499,1.8234
		c0,0-0.1634,0.2349-0.452,1.0835c0,0-0.3268,1.0905-0.6388,1.6801c0,0-0.4148,0.841-1.3397,0.4974c0,0-0.5507-0.2419-0.5494-0.6417
		c0,0-0.0382-0.3647,0.2921-0.3928c0,0,0.3234-0.0246,0.3199,0.2525c0,0,0.0087,0.2998-0.3442,0.2314
		c0,0-0.1235-0.0263-0.1008-0.1473c0,0,0.0197-0.1087,0.1686-0.0614c0,0,0.0046,0.0006,0.0052-0.0018
		c0,0,0.0017-0.0026-0.0035-0.0041c0,0-0.0576-0.0257-0.1185-0.0045c0,0-0.0545,0.0182-0.0589,0.1032
		c0,0-0.0035,0.0684,0.0696,0.1069c0,0,0.0887,0.0316,0.1582,0.0246c0,0,0.0935,0.1888,0.3052,0.2528
		c0.2946,0.0891,0.5373,0.0033,0.6858-0.1152c0.1616-0.1289,0.266-0.3541,0.2973-0.4094c0.0313-0.0552,0.3025-0.6627,0.5065-1.3161
		c0,0,0.1785-0.5634,0.321-0.8579L49.2957,34.1499z"/>
	<path class="st11" d="M46.4601,36.8955c0,0,0.1877-0.0254,0.1877,0.142c0,0-0.0115,0.2446-0.3095,0.1911
		c0,0-0.2938-0.0643-0.1895-0.3928c0,0,0.0696-0.2314,0.3477-0.1981c0,0,0.2695,0.0123,0.3877,0.3805
		c0,0,0.0904,0.3104-0.0643,0.5768c-0.1727,0.2974-0.6097,0.4927-0.8206,0.5792c0,0-0.845,0.332-1.097,0.5219
		c0,0-0.3865,0.2869-0.2156,0.554c0,0,0.0661,0.1017,0.1652,0.1017c0,0,0.113,0.0053,0.1322-0.1104c0,0,0.0006-0.0023-0.0012-0.0053
		c0,0-0.0017,0-0.0023,0.0029c0,0-0.0081,0.0707-0.0696,0.097c0,0-0.0823,0.0415-0.1686-0.0316c0,0-0.0915-0.0877-0.015-0.2238
		c0,0,0.1002-0.1677,0.3338-0.0684c0,0,0.2058,0.1017,0.1211,0.3203c0,0-0.0753,0.2011-0.3234,0.2006
		c0,0-0.1868-0.0062-0.3062-0.1314c-0.1864-0.1954-0.1965-0.576-0.0322-0.7729c0,0,0.1553-0.2093,0.4671-0.3366
		c0.1806-0.0738,0.5216-0.222,0.8762-0.3611c0.2493-0.0978,0.4776-0.2148,0.6259-0.3904c0,0,0.1322-0.1473,0.1704-0.3997
		c0,0,0.0365-0.1894-0.0788-0.2308c0,0-0.0586-0.0263-0.1229-0.0176c0,0-0.0017,0.0001-0.0022,0.0012
		C46.4563,36.8938,46.4537,36.8966,46.4601,36.8955z"/>
	<path class="st16" d="M46.4758,36.8943c0,0,0.2075-0.0374,0.3372,0.2093c0,0,0.0765,0.1589,0.0888,0.2509"/>
	<path class="st16" d="M46.9695,36.4727c0,0-0.2078,0.036-0.1008,0.3299c0.1008,0.277,0.2881,0.3679,0.3437,0.4064"/>
	<path class="st11" d="M42.9046,28.4122c0,0,0.0103,0.0842,0.0938,0.0935c0,0,0.0871,0.0281,0.1378-0.0804
		c0,0,0.0059-0.0246,0.0072-0.0365c0.0058-0.0507,0.0231-0.1964-0.1345-0.3156c0,0-0.2573-0.2104-0.7487,0.0444
		c0,0-0.3894,0.187-0.6583,0.346c0,0-0.6954,0.374-0.7789,0.4021c0,0-0.306,0.1543-0.7742,0.173c0,0-0.6398,0.0467-0.911-0.4021
		c0,0-0.2063-0.3413,0-0.5587c0,0,0.0834-0.0982,0.2206-0.0801c0.0576,0.0076,0.1212,0.0341,0.1827,0.1058
		c0,0,0.0996,0.145-0.0162,0.2525c0,0-0.1507,0.0923-0.204-0.1028c0,0-0.0023-0.014-0.007,0.0035
		c-0.003,0.0113-0.0371,0.1601,0.0429,0.2863c0,0,0.386,0.5841,1.4476-0.0212l1.4001-0.7853c0,0,0.7024-0.36,1.1219,0.2034
		c0,0,0.3384,0.4675-0.0973,0.7738c0,0-0.3245,0.194-0.5285-0.1145c0,0-0.1692-0.3039,0.0973-0.4371
		c0,0,0.2341-0.1098,0.3268,0.1239c0.0927,0.2337-0.1808,0.2945-0.2063,0.1286C42.9185,28.4146,42.9115,28.3748,42.9046,28.4122z"/>
	<path class="st11" d="M39.4767,33.7469c0.6184-0.3509,0.754-1.1293,0.754-1.1293c0.1495-0.7749-0.153-1.3886-0.153-1.3886
		c-0.3999-0.845-1.0851-1.0023-1.0851-1.0023s0.6713,0.4658,0.859,1.0934c0,0,0.1461,0.5295,0.0626,1.0519
		c-0.0834,0.5225-0.0522,0.3892-0.1808,0.7924L39.4767,33.7469z"/>
	<path class="st15" d="M43.0306,28.3983"/>
	<path class="st16" d="M42.5893,27.7928c0,0,0.5774-0.0257,0.5565,0.5728"/>
	<path class="st11" d="M38.7911,34.1499c1.0049-0.3086,1.2795-1.3886,1.2795-1.3886c0.2052-0.81-0.1252-1.5183-0.1252-1.5183
		c-0.459-1.0779-1.2356-1.0777-1.2356-1.0777c-0.3894-0.0105-0.4361,0.3226-0.4361,0.3226c-0.0368,0.2361,0.129,0.3214,0.129,0.3214
		c0.2665,0.145,0.4347-0.0514,0.4347-0.0514c0.1112-0.145,0.0255-0.2735,0.0255-0.2735c-0.0684-0.0958-0.1994-0.0538-0.1994-0.0538
		c-0.1037,0.0321-0.0927,0.1618-0.0927,0.1618c-0.0006,0.0035-0.0029,0.0035-0.0029,0.0035
		c-0.0046-0.0012-0.0029-0.0029-0.0029-0.0029s-0.0232-0.1589,0.1322-0.1753c0,0,0.3025-0.0655,0.6571,0.3764
		c0,0,0.467,0.5961,0.4659,1.3675c0,0,0.0591,1.4482-1.4499,1.8234c0,0,0.1634,0.2349,0.452,1.0835c0,0,0.3268,1.0905,0.6388,1.6801
		c0,0,0.4148,0.841,1.3397,0.4974c0,0,0.5507-0.2419,0.5494-0.6417c0,0,0.0382-0.3647-0.2921-0.3928
		c0,0-0.3234-0.0246-0.3199,0.2525c0,0-0.0087,0.2998,0.3442,0.2314c0,0,0.1235-0.0263,0.1008-0.1473
		c0,0-0.0197-0.1087-0.1686-0.0614c0,0-0.0046,0.0006-0.0052-0.0018c0,0-0.0017-0.0026,0.0035-0.0041
		c0,0,0.0576-0.0257,0.1185-0.0045c0,0,0.0545,0.0182,0.0589,0.1032c0,0,0.0035,0.0684-0.0696,0.1069
		c0,0-0.0887,0.0316-0.1582,0.0246c0,0-0.0935,0.1888-0.3052,0.2528c-0.2946,0.0891-0.5373,0.0033-0.6858-0.1152
		c-0.1616-0.1289-0.266-0.3541-0.2973-0.4094c-0.0313-0.0552-0.3025-0.6627-0.5065-1.3161c0,0-0.1785-0.5634-0.321-0.8579
		L38.7911,34.1499z"/>
	<path class="st11" d="M41.6267,36.8955c0,0-0.1877-0.0254-0.1877,0.142c0,0,0.0115,0.2446,0.3095,0.1911
		c0,0,0.2938-0.0643,0.1895-0.3928c0,0-0.0696-0.2314-0.3477-0.1981c0,0-0.2695,0.0123-0.3877,0.3805
		c0,0-0.0904,0.3105,0.0643,0.5768c0.1727,0.2974,0.6097,0.4927,0.8206,0.5792c0,0,0.845,0.332,1.097,0.5219
		c0,0,0.3865,0.2869,0.2156,0.554c0,0-0.0661,0.1017-0.1652,0.1017c0,0-0.113,0.0053-0.1322-0.1104c0,0-0.0006-0.0023,0.0012-0.0053
		c0,0,0.0017,0,0.0023,0.0029c0,0,0.0081,0.0707,0.0696,0.097c0,0,0.0823,0.0415,0.1686-0.0316c0,0,0.0915-0.0877,0.015-0.2238
		c0,0-0.1002-0.1677-0.3338-0.0684c0,0-0.2058,0.1017-0.1211,0.3203c0,0,0.0753,0.2011,0.3234,0.2006
		c0,0,0.1868-0.0062,0.3062-0.1314c0.1864-0.1954,0.1965-0.576,0.0322-0.7729c0,0-0.1553-0.2093-0.4671-0.3366
		c-0.1806-0.0738-0.5216-0.222-0.8762-0.3611c-0.2493-0.0978-0.4776-0.2148-0.6259-0.3904c0,0-0.1322-0.1473-0.1704-0.3997
		c0,0-0.0365-0.1894,0.0788-0.2308c0,0,0.0586-0.0263,0.1229-0.0176c0,0,0.0017,0.0001,0.0022,0.0012
		C41.6306,36.8937,41.6332,36.8966,41.6267,36.8955z"/>
	<path class="st16" d="M41.611,36.8943c0,0-0.2075-0.0374-0.3372,0.2093c0,0-0.0765,0.1589-0.0888,0.2509"/>
	<path class="st16" d="M41.1174,36.4726c0,0,0.2078,0.036,0.1008,0.3299c-0.1008,0.277-0.2881,0.3679-0.3437,0.4064"/>
	<path class="st16" d="M43.5411,28.3317c0,0,0.5023-0.3145,1.0153,0.0338"/>
	<path class="st17" d="M40.6829,31.4044c0,0,0.0696-0.2805-0.2503-0.7714c0,0-0.2087-0.4488-0.3199-0.7363"/>
	<path class="st17" d="M40.8359,29.5881c0,0,0.1811,0.4412,0.2434,0.6388c0,0,0.2247,0.5534,0.2723,0.6656"/>
	<path class="st13" d="M40.9263,31.7129c0,0,0.1889,0.2034,0.1674,0.547"/>
	<path class="st13" d="M40.3005,31.4956c0,0,0.2087,0.1005,0.1949,0.6545c0,0-0.021,0.4044,0.2919,0.6078"/>
	<path class="st13" d="M40.2722,32.9005c0,0,0.653-0.0713,0.6889,0.3308c0,0,0.0139,0.3857,0.2364,0.4278
		c0,0,0.3333,0.0316,0.3994,0.3401"/>
	<path class="st13" d="M40.4778,33.347c0,0,0.1147,0.1718,0.226,0.2454"/>
	<path class="st13" d="M41.3158,32.9227c0,0,0.1659,0.2513,0.1971,0.3986"/>
	<path class="st13" d="M42.0344,29.8966c0,0,0.153,0.2081,0.3014,0.3062"/>
	<path class="st13" d="M42.6464,31.1286c0,0,0.3245,0.1589,0.2689,0.9771c0,0-0.0417,0.4798,0.0927,0.7417"/>
	<path class="st9" d="M41.1176,30.5734l0.0208,0.0772c0,0,0.5818,0.0246,0.8959-0.3717l-0.0336-0.076
		C42.0007,30.2029,41.4931,30.1771,41.1176,30.5734z"/>
	<path class="st13" d="M43.2137,33.6949c0,0,2.0123-0.5999,2.7878-0.9497"/>
	<polygon class="st14" points="42.9744,29.9176 43.9697,29.5389 43.9932,29.6055 42.9977,29.9836 	"/>
	<line class="st13" x1="43.0821" y1="29.9516" x2="43.7428" y2="33.1904"/>
	<line class="st13" x1="43.1968" y1="29.908" x2="43.9534" y2="33.1319"/>
	<line class="st13" x1="43.3255" y1="29.8592" x2="44.1531" y2="33.0595"/>
	<line class="st13" x1="43.65" y1="29.7359" x2="44.7782" y2="32.1382"/>
	<line class="st13" x1="43.7992" y1="29.6792" x2="45.0023" y2="32.0675"/>
	<line class="st13" x1="43.9097" y1="29.6373" x2="45.2111" y2="32.0015"/>
	<line class="st13" x1="43.6981" y1="33.216" x2="44.2087" y2="33.0478"/>
	<path class="st13" d="M43.3115,32.8956c0,0,1.4968-0.4372,2.6296-0.8941"/>
	<path class="st13" d="M43.2914,33.0595c0,0,1.897-0.5019,2.6496-0.8681"/>
	<polyline class="st13" points="43.8703,34.6023 43.9697,34.9062 44.2412,34.8193 44.1485,34.5181 	"/>
	<polyline class="st13" points="44.6365,34.3839 44.7358,34.6878 45.0074,34.6009 44.9146,34.2998 	"/>
	<polyline class="st13" points="43.349,32.5895 43.3255,32.1783 45.8128,31.4231 45.9473,31.7691 	"/>
	<line class="st13" x1="44.3803" y1="31.8581" x2="44.5158" y2="32.221"/>
	<line class="st13" x1="45.2499" y1="31.594" x2="45.4083" y2="31.9392"/>
	<line class="st13" x1="45.4561" y1="31.5314" x2="45.6042" y2="31.8581"/>
	<line class="st13" x1="45.653" y1="31.4716" x2="45.8087" y2="31.8128"/>
	<polyline class="st13" points="45.8128,31.4231 46.0863,31.2688 46.2023,31.5727 	"/>
	<line class="st13" x1="45.9473" y1="31.3473" x2="46.0866" y2="31.6618"/>
	<path class="st18" d="M39.7789,36.082c0,0-0.4868-0.493,0-0.9759c0,0-0.5285-0.2584-0.4451-0.6746"/>
	<path class="st18" d="M40.6482,36.4726c0,0-0.5042,0.0687-0.3547-0.9131c0,0-0.2087,0.3892-0.2805,0.5892
		c-0.0538,0.1497-0.0182,0.3914,0.1952,0.5221c0.0853,0.0522,0.5373,0.17,0.6833-0.1295"/>
	<path class="st18" d="M40.0849,34.9705c0,0-0.2052,0.1894-0.0591,0.5365"/>
	<path class="st18" d="M40.297,35.016c0,0,0.0243,0.3366,0.1912,0.526"/>
	<path class="st18" d="M40.4412,34.8828c0,0-0.0016,0.3963,0.2835,0.6417"/>
	<path class="st18" d="M40.5829,34.746c0,0,0.0027,0.4453,0.333,0.7188"/>
	<path class="st18" d="M42.2233,35.3982c0,0,0.1669-0.3647,0.5181-0.3471c0,0-0.1704,0.0772-0.1669,0.2478
		c0,0-0.0208,0.2817,0.2817,0.3097c0,0,0.2434,0.0316,0.3651-0.1017"/>
	<path class="st18" d="M43.0544,37.0638c0,0-0.8658-0.4067-0.7754-0.9923c0,0,0.0347-0.3576,0.3844-0.526"/>
	<path class="st18" d="M42.4806,35.9172c0,0-0.0765,0.2525,0.0939,0.4278"/>
	<path class="st18" d="M42.6753,35.7453c0,0-0.1043,0.277,0.0696,0.4839"/>
	<path class="st18" d="M42.8838,35.6109c0,0-0.125,0.2291,0.0245,0.436"/>
	<path class="st18" d="M42.0946,37.1233c0,0,0.4729,0.4103,0.8415,0.4138"/>
	<path class="st18" d="M41.9452,37.2531c0,0,0.4419,0.3576,0.7182,0.4102"/>
	<path class="st18" d="M41.7782,37.3544c0,0,0.5463,0.4808,0.8851,0.5158"/>
	<path class="st18" d="M44.0001,38.3121c0,0-0.537,0.2893-0.1207,0.5952"/>
	<path class="st18" d="M43.6593,37.993c0,0,0.6085-0.3191,0.8727-0.4383"/>
	<path class="st18" d="M43.8784,38.1578c0,0,0.8797-0.5365,1.1405-0.6522"/>
	<path class="st18" d="M44.3304,38.1929c0,0,0.7511-0.5014,1.1544-0.7188"/>
	<path class="st18" d="M44.8276,38.1753c0,0,0.5181-0.4067,1.0188-0.7013"/>
	<path class="st18" d="M46.0238,36.9657c0,0-0.2538-0.3717-1.0883,0c0,0,0.306-0.2777,0.911-0.493"/>
	<path class="st18" d="M46.6889,34.8758c0,0,0.0684,0.3015-0.0046,0.4839"/>
	<path class="st18" d="M45.3353,36.338c0,0,0.1738-0.256,0.6155-0.3822c0,0,0.1191,0.298,0.4625,0.2314
		c0,0,0.5181-0.1017,0.3616-0.6697c0,0-0.1077-0.4243-0.6995-0.4664"/>
	<path class="st18" d="M47.8354,34.3397c0,0,0.6016,0.1083,0.5911,0.5992c0,0,0.0487,0.7363-0.7267,0.8801"/>
	<path class="st18" d="M48.3411,34.6421c0,0,0.1653-0.3589,0.5338-0.5062"/>
	<path class="st18" d="M48.427,33.9256c0,0,0.1643,0.2634,0.2766,0.3017"/>
	<path class="st18" d="M48.3411,34.1359c0,0,0.1549,0.1892,0.207,0.2209"/>
	<path class="st18" d="M48.2909,34.3182c0,0,0.0816,0.1205,0.1538,0.1584"/>
	<path class="st18" d="M45.1962,31.4716c0,0,0.1171-0.19,0.408-0.1093"/>
	<path class="st18" d="M46.7922,32.8956c0,0,0.1843-0.7688,0.8276-0.4849"/>
	<path class="st18" d="M47.359,32.3478c0,0,0.0661-0.3544-0.0939-0.535"/>
	<path class="st18" d="M46.9208,32.3231c0,0,0.0819,0.1466,0.0118,0.2664"/>
	<path class="st10" d="M48.2283,40.1775c0,0,0.7232-0.3296,0.5007-0.8907c0,0-0.0688-0.1894-0.2291-0.1753
		c0,0-0.2789,0.014-0.2231,0.3857C48.2768,39.4973,48.3604,39.862,48.2283,40.1775z"/>
	<path class="st3" d="M48.4902,39.8456c0,0,0.1589-0.1523,0.1368-0.4254c0,0-0.0093-0.0584,0.0199-0.0665
		c0,0,0.0311-0.013,0.0357,0.0548c0,0,0.0441,0.2852-0.1484,0.4488c0,0-0.0131,0.0164-0.0344,0.0117
		C48.4999,39.869,48.477,39.8639,48.4902,39.8456z"/>
	<path class="st10" d="M49.2575,39.6726c0,0,0.5077-0.3191,0.233-0.8556c0,0-0.08-0.1543-0.233-0.1227
		c0,0-0.3164,0.0982-0.0696,0.5365C49.1879,39.2308,49.3131,39.5148,49.2575,39.6726z"/>
	<path class="st3" d="M49.3844,38.945c0,0-0.0278-0.0368-0.0087-0.0526c0,0,0.0122-0.0176,0.0452,0.0246
		c0,0,0.1536,0.1717,0.0313,0.4357c0,0-0.0139,0.0377-0.0382,0.0254c0,0-0.0208-0.0105-0.0017-0.042
		C49.4122,39.336,49.5217,39.1186,49.3844,38.945z"/>
	<path class="st10" d="M47.738,40.0373c0,0-0.5667-0.1438-0.4625-0.7293c0,0,0.0557-0.256,0.2956-0.2209
		c0,0,0.2891,0.0738,0.1008,0.446C47.6719,39.5331,47.5606,39.7988,47.738,40.0373z"/>
	<path class="st3" d="M47.5189,39.3377c0,0-0.0208-0.0281,0.0035-0.0403c0,0,0.0243-0.0105,0.0417,0.0237
		c0,0,0.0591,0.0938,0.0091,0.2222c0,0-0.0473,0.089-0.0243,0.1819c0,0,0.0031,0.0263-0.0178,0.0298c0,0-0.02-0.007-0.0239-0.0263
		c0,0-0.0283-0.0907,0.0204-0.1795C47.5276,39.5492,47.5867,39.4114,47.5189,39.3377z"/>
	<path d="M48.1448,38.929c0,0,0.3199-0.1797,0.5841,0.0307c0,0-0.027-0.1169-0.2291-0.1683c0,0-0.1093-0.3086-0.4153-0.2805
		c0,0,0.1252,0.1496,0.2921,0.2759C48.3766,38.7866,48.2004,38.8049,48.1448,38.929z"/>
	<path d="M48.3813,38.0838c0,0,0.2173,0.1605,0.3057,0.268c0,0,0.0884-0.1098,0.2043-0.1765c0,0-0.1334-0.0176-0.2043,0.0425
		C48.687,38.2178,48.5759,38.1103,48.3813,38.0838z"/>
	<path class="st8" d="M47.1203,38.7726c0,0-0.0232-0.0795,0.0324-0.1636c0,0,0.0371-0.0608,0.0232-0.1403"/>
	<path class="st8" d="M49.4522,33.7794c0,0,0.3384-0.0234,0.3941-0.2852"/>
	<path class="st8" d="M50.4397,33.3212c0,0-0.1179-0.0047-0.2246,0.1028c0,0-0.0814,0.1216-0.1973,0.1075"/>
	<path d="M48.9515,32.7836c0,0,0.1761,0,0.2735-0.0842c0,0,0.102-0.0701,0.1623,0.042c0,0,0.0927,0.1589-0.0788,0.2291
		c0,0-0.2133,0.1075,0.1252,0.3226c0,0-0.4033-0.145-0.2411-0.3413c0,0,0.1761-0.1262,0.1112-0.173c0,0-0.0185-0.0374-0.0881,0.0094
		C49.1462,32.835,49.0071,32.8163,48.9515,32.7836z"/>
	<path class="st10" d="M49.1911,28.5261c0,0,0.0795-0.1083,0.047-0.4332s0.2496-0.3622,0.3581-0.2689
		c0,0,0.1121,0.0971,0.009,0.3032C49.5457,28.2462,49.4507,28.4001,49.1911,28.5261z"/>
	<path class="st3" d="M49.2971,28.2835c0,0,0.1057-0.1137,0.0553-0.3605c0,0-0.0004-0.0243,0.0136-0.026
		c0,0,0.0257-0.0065,0.03,0.0179c0,0,0.0568,0.2631-0.0626,0.4061c0,0-0.0218,0.0211-0.0364,0
		C49.2971,28.3209,49.2811,28.3058,49.2971,28.2835z"/>
	<path class="st10" d="M49.101,28.4079c0,0-0.0083-0.131-0.2347-0.3535c-0.2264-0.2226-0.0403-0.4277,0.0984-0.4259
		c0,0,0.1436,0.0022,0.1953,0.2211C49.1898,27.976,49.2151,28.1508,49.101,28.4079z"/>
	<path class="st3" d="M49.0658,28.1232c0,0,0.004-0.1604-0.2009-0.3279c0,0-0.0167-0.0195-0.0071-0.0298
		c0,0,0.0152-0.0218,0.035-0.0049c0,0,0.2207,0.1766,0.2261,0.3695c0,0-0.0025,0.0312-0.0278,0.0235
		C49.091,28.1534,49.0685,28.1516,49.0658,28.1232z"/>
	<path class="st10" d="M48.7936,28.3095c0,0-0.0592-0.1067-0.3387-0.2059c-0.2796-0.0992-0.204-0.3434-0.0864-0.3957
		c0,0,0.1221-0.0537,0.2528,0.1099C48.6968,27.9125,48.7876,28.0494,48.7936,28.3095z"/>
	<path class="st3" d="M48.6711,28.1133c0,0-0.0635-0.1471-0.3195-0.2116c0,0-0.0233-0.0106-0.019-0.024
		c0,0,0.0046-0.0263,0.0296-0.0193c0,0,0.2741,0.0659,0.3597,0.2385c0,0,0.0109,0.0293-0.0153,0.0331
		C48.7066,28.1301,48.6855,28.138,48.6711,28.1133z"/>
	<path class="st10" d="M48.9688,28.4163c0,0-0.1304,0.0366-0.4297-0.1078c-0.2994-0.1444-0.4305,0.1069-0.378,0.2414
		c0,0,0.0548,0.1392,0.2866,0.1147C48.5814,28.6505,48.7606,28.6155,48.9688,28.4163z"/>
	<path class="st3" d="M48.2726,28.5117c0,0,0.1357,0.0837,0.382-0.0115c0,0,0.0251-0.0048,0.0292,0.0087
		c0,0,0.0112,0.0242-0.0132,0.033c0,0-0.262,0.1045-0.4303,0.0127c0,0-0.0256-0.0177-0.0063-0.036
		C48.234,28.5186,48.2469,28.4998,48.2726,28.5117z"/>
	<path class="st16" d="M48.5308,27.4702c0,0,0.1495,0.0725,0.1147,0.2478"/>
	<path class="st8" d="M49.1914,27.4947c0,0,0.0585,0.1851-0.0061,0.2849"/>
	<path class="st10" d="M38.8769,28.5261c0,0-0.0795-0.1083-0.047-0.4332c0.0325-0.3249-0.2496-0.3622-0.3581-0.2689
		c0,0-0.1121,0.0971-0.009,0.3032C38.5223,28.2462,38.6173,28.4001,38.8769,28.5261z"/>
	<path class="st3" d="M38.7708,28.2835c0,0-0.1057-0.1137-0.0553-0.3605c0,0,0.0004-0.0243-0.0136-0.026
		c0,0-0.0257-0.0065-0.03,0.0179c0,0-0.0568,0.2631,0.0626,0.4061c0,0,0.0218,0.0211,0.0364,0
		C38.7708,28.3209,38.787,28.3058,38.7708,28.2835z"/>
	<path class="st10" d="M38.967,28.4079c0,0,0.0083-0.131,0.2347-0.3535c0.2264-0.2226,0.0403-0.4277-0.0984-0.4259
		c0,0-0.1436,0.0022-0.1953,0.2211C38.8781,27.976,38.8528,28.1508,38.967,28.4079z"/>
	<path class="st3" d="M39.0022,28.1232c0,0-0.004-0.1604,0.2009-0.3279c0,0,0.0167-0.0195,0.0071-0.0298
		c0,0-0.0152-0.0218-0.035-0.0049c0,0-0.2207,0.1766-0.2261,0.3695c0,0,0.0025,0.0312,0.0278,0.0235
		C38.977,28.1534,38.9995,28.1516,39.0022,28.1232z"/>
	<path class="st10" d="M39.2744,28.3095c0,0,0.0592-0.1067,0.3387-0.2059c0.2796-0.0992,0.204-0.3434,0.0864-0.3957
		c0,0-0.1221-0.0537-0.2528,0.1099C39.3712,27.9125,39.2803,28.0494,39.2744,28.3095z"/>
	<path class="st3" d="M39.3969,28.1133c0,0,0.0635-0.1471,0.3195-0.2116c0,0,0.0233-0.0106,0.019-0.024
		c0,0-0.0046-0.0263-0.0296-0.0193c0,0-0.2741,0.0659-0.3597,0.2385c0,0-0.0109,0.0293,0.0153,0.0331
		C39.3614,28.1301,39.3825,28.138,39.3969,28.1133z"/>
	<path class="st10" d="M39.0992,28.4163c0,0,0.1304,0.0366,0.4297-0.1078c0.2994-0.1444,0.4305,0.1069,0.378,0.2414
		c0,0-0.0548,0.1392-0.2866,0.1147C39.4866,28.6505,39.3074,28.6155,39.0992,28.4163z"/>
	<path class="st3" d="M39.7953,28.5117c0,0-0.1357,0.0837-0.382-0.0115c0,0-0.0251-0.0048-0.0292,0.0087
		c0,0-0.0112,0.0242,0.0132,0.033c0,0,0.262,0.1045,0.4303,0.0127c0,0,0.0256-0.0177,0.0063-0.036
		C39.834,28.5186,39.8212,28.4998,39.7953,28.5117z"/>
	<path class="st16" d="M39.5372,27.4702c0,0-0.1495,0.0725-0.1147,0.2478"/>
	<path class="st8" d="M38.8766,27.4947c0,0-0.0585,0.1851,0.0061,0.2849"/>
	<path d="M45.3666,25.7941c0,0,0.0947,0.2704,0.0539,0.5155c-0.0365,0.2191,0.0133,0.2758,0.0925,0.3192
		c0.0685,0.0375,0.2273-0.0281,0.2465-0.1999c0,0,0.1877,0.3664-0.1773,0.6136c0,0-0.2625,0.1613-0.485-0.0543
		c-0.0784-0.076-0.113-0.2857-0.0748-0.4804c0,0,0.0574-0.2639-0.0382-0.5347c0,0,0.1495,0.1595,0.1112,0.4777
		c0,0-0.0765,0.5708,0.3459,0.5427c0,0,0.2921-0.0035,0.3008-0.3576c0,0-0.1095,0.1262-0.2451,0.0842
		c-0.0961-0.0298-0.1843-0.1227-0.1686-0.2692C45.3447,26.2969,45.3875,26.029,45.3666,25.7941z"/>
	<path d="M44.8879,26.7315c0,0-0.0232,0.4512-0.4358,0.561c0,0,0.058-0.0818-0.0348-0.3062c0,0-0.0904-0.1309-0.0834-0.3343
		c0,0-0.1313,0.1028,0.0185,0.374c0.0904,0.1636,0.0116,0.36-0.0162,0.367C44.3084,27.4,45.0178,27.2995,44.8879,26.7315z"/>
	<path d="M44.3524,26.2826c0,0-0.0996-0.1122-0.1066-0.3717c-0.0069-0.2595-0.0557-0.3226-0.0904-0.353
		c0,0,0.051,0.2244,0.0371,0.3623s0.0093,0.2174,0.0278,0.2828c0,0-0.2249,0.035-0.3663-0.2922
		c-0.1351-0.3128-0.2712-0.2875-0.3384-0.2852c0,0,0.0784,0.0087,0.2364,0.2945C43.9099,26.2057,43.9537,26.2639,44.3524,26.2826z"
		/>
	<path d="M43.3001,25.6047c0,0,0.1299,0.3109,0.1345,0.4745c0,0-0.3014-0.1005-0.3825-0.3623c0,0-0.3222,0.1098-0.204,0.4815
		c0,0-0.2782-0.0982-0.4033-0.325c0,0,0.1553,0.1169,0.299,0.1683c0,0-0.0162-0.2992,0.3593-0.4114c0,0,0.0559,0.268,0.2434,0.332
		C43.3464,25.9624,43.3325,25.7941,43.3001,25.6047z"/>
	<path d="M43.7961,25.0717c0,0,0.1043,0.152,0.3176,0.1589c0.1019,0.0033,0.2116-0.0196,0.3176-0.1589
		c0,0-0.0139,0.2642-0.3176,0.2665C44.1137,25.3382,43.7961,25.3499,43.7961,25.0717z"/>
	<path d="M42.4823,26.8775c0,0,0.1582,0.1438,0.1912,0.1911c0,0,0.1112,0.1087,0.2068-0.0318c0,0,0.1218-0.2248,0.2713-0.2189
		c0,0-0.106,0.0737-0.2253,0.2862c0,0-0.0321,0.0784-0.1208,0.0872c-0.0415,0.0041-0.0939,0.0176-0.1732-0.0653
		C42.6325,27.1261,42.5641,27.0424,42.4823,26.8775z"/>
	<path d="M44.1137,24.0128c-0.3176-0.0001-0.0499,0.2454-0.0499,0.2454c0.0069,0.3892-0.3054,0.509-0.5181,0.3963
		c-0.2127-0.1128-0.0464-0.3963-0.0464-0.3963s-0.2399,0.1578-0.0869,0.3857s0.554,0.1262,0.7012-0.0842
		c0.1472,0.2104,0.5482,0.3121,0.7012,0.0842s-0.0869-0.3857-0.0869-0.3857s0.1663,0.2834-0.0464,0.3963
		c-0.2127,0.1127-0.5251-0.007-0.5181-0.3963C44.1635,24.2583,44.4312,24.0126,44.1137,24.0128z"/>
	<path d="M44.3061,23.592c0,0,0.1112,0.1894,0.0869,0.4768C44.393,24.0689,44.4938,23.7813,44.3061,23.592z"/>
	<path d="M43.3325,24.0373c0,0-0.0243-0.2069-0.226-0.2244C43.1065,23.8129,43.2769,23.9357,43.3325,24.0373z"/>
	<path d="M44.8972,24.0373c0,0,0.0243-0.2069,0.226-0.2244C45.1232,23.8129,44.9528,23.9357,44.8972,24.0373z"/>
	<path d="M43.0126,24.3529c0,0,0.1599,0.0491,0.2573-0.0701C43.2699,24.2828,43.0856,24.3319,43.0126,24.3529z"/>
	<path d="M42.4945,23.0836c0,0,0.186-0.0211,0.3721,0.256c0,0-0.1843,0.0982-0.2295,0.1578c0,0,0-0.0912,0.0904-0.1718
		C42.7275,23.3256,42.6927,23.1853,42.4945,23.0836z"/>
	<path d="M45.61,23.0836c0,0-0.186-0.0211-0.3721,0.256c0,0,0.1843,0.0982,0.2295,0.1578c0,0,0-0.0912-0.0904-0.1718
		C45.377,23.3256,45.4118,23.1853,45.61,23.0836z"/>
	<path d="M44.174,23.2903c0,0,0.1669,0.0458,0.3755-0.07c0,0,0.2573-0.1368,0.4207,0c0,0-0.1426-0.0635-0.4172,0.07
		C44.553,23.2903,44.2782,23.4409,44.174,23.2903z"/>
	<path class="st3" d="M44.3478,23.4588c0,0,0.1426-0.25,0.5772-0.2004C44.925,23.2584,44.8068,23.606,44.3478,23.4588z"/>
	<ellipse class="st19" cx="44.6476" cy="23.3812" rx="0.0859" ry="0.1089"/>
	<ellipse cx="44.6476" cy="23.3812" rx="0.051" ry="0.0668"/>
	<path d="M43.4159,22.9258c0,0,0.2747,0.0176,0.4416,0.1227c0,0,0.1773,0.1052,0.379-0.0456c0,0,0.2193-0.1262,0.36-0.3015
		c0,0-0.3357,0.2314-0.4608,0.2665c0,0-0.1147-0.0877-0.1599-0.2139c0,0,0.0174-0.0947,0.1982-0.27c0,0-0.2434,0.0737-0.2921,0.2805
		c0,0,0.0452,0.1262,0.1391,0.2244c0,0-0.0452,0.0211-0.1634-0.0526C43.8575,22.9363,43.6003,22.8486,43.4159,22.9258z"/>
	<path d="M44.1137,24.5756c-0.2376,0.2052,0,0.1841,0,0.1841S44.3513,24.7807,44.1137,24.5756z"/>
	<path d="M43.9762,23.2903c0,0-0.1669,0.0458-0.3756-0.07c0,0-0.2573-0.1368-0.4207,0c0,0,0.1426-0.0635,0.4172,0.07
		C43.5972,23.2903,43.8719,23.4409,43.9762,23.2903z"/>
	<path class="st3" d="M43.8024,23.4588c0,0-0.1426-0.25-0.5772-0.2004C43.2251,23.2584,43.3434,23.606,43.8024,23.4588z"/>
	<ellipse class="st19" cx="43.5026" cy="23.3812" rx="0.0859" ry="0.1089"/>
	<ellipse cx="43.5026" cy="23.3812" rx="0.051" ry="0.0668"/>
	<path class="st20" d="M52.5091,21.2095v15.7561c0,4.2086-8.4134,5.576-8.4134,5.576s-8.4134-1.3674-8.4134-5.576V21.2095H52.5091z"
		/>
</g>
</svg>
