<?xml version="1.0" encoding="utf-8"?>
<!-- Generator: Adobe Illustrator 21.1.0, SVG Export Plug-In . SVG Version: 6.00 Build 0)  -->
<svg version="1.1" id="Layer_1" xmlns="http://www.w3.org/2000/svg" xmlns:xlink="http://www.w3.org/1999/xlink" x="0px" y="0px"
	 viewBox="0 0 60 60" style="enable-background:new 0 0 60 60;" xml:space="preserve">
<style type="text/css">
	.st0{fill:#F7E017;}
	.st1{fill:#FFFFFF;}
	.st2{fill:#CF1126;}
</style>
<g>
	<g>
		<g>
			<path class="st0" d="M29.9987,60c8.9872,0,17.0297-3.9716,22.5259-10.2317L0.4986,35.3165C3.0115,49.3448,15.2473,60,29.9987,60z
				"/>
			<path class="st0" d="M29.9987,0c-8.9886,0-17.027,3.9703-22.5271,10.2317l52.0298,14.4525C56.9887,10.6552,44.7501,0,29.9987,0z"
				/>
			<path class="st1" d="M58.6786,38.8104C59.5337,36.0241,60,33.0663,60,30.0001c0-1.8186-0.1903-3.5884-0.4986-5.3159
				L7.4716,10.2317c-3.108,3.5407-5.3863,7.8132-6.5576,12.532L58.6786,38.8104z"/>
			<path d="M0,30.0001c0,1.8179,0.1876,3.5876,0.4986,5.3165l52.026,14.4518c2.7634-3.1447,4.8969-6.855,6.154-10.9579
				L0.914,22.7637C0.3391,25.0849,0,27.4999,0,30.0001z"/>
		</g>
	</g>
</g>
<path class="st2" d="M27.9699,47.5499c-1.6201-0.2151-3.1054-0.7305-4.1373-1.4368c-0.2-0.1372-0.3883-0.2494-0.4176-0.2494
	c-0.0301,0-0.0544,0.1523-0.0544,0.3406c0,0.5331-0.2142,0.8017-0.7531,0.9414c-0.5155,0.1339-1.3021-0.1364-1.9398-0.6653
	c-0.6603-0.5481-1.4226-0.9665-2.0678-1.1339c-0.5314-0.1389-1.2368-0.1163-1.7465,0.0544c-0.2368,0.0795-0.5063,0.1916-0.6,0.2494
	c-0.0929,0.0577-0.1975,0.1046-0.231,0.1046c-0.0904,0-0.0778-0.5732,0.0167-0.7565c0.1247-0.2402,0.4318-0.477,0.79-0.6075
	c0.1808-0.0661,0.3289-0.1506,0.3289-0.1883c0-0.0377-0.0611-0.1757-0.1356-0.3054c-0.2427-0.4251-0.1431-0.8368,0.2803-1.1607
	c0.4335-0.3314,1.1674-0.3883,1.8159-0.1414c0.1632,0.0619,0.3155,0.113,0.3381,0.113c0.0854,0,0.0335-0.1197-0.2017-0.4619
	c-0.2711-0.3967-0.3247-0.5925-0.2912-1.0644c0.0435-0.5975,0.5305-1.0862,1.1272-1.1297c0.487-0.0351,0.79,0.1289,1.5088,0.8134
	c2.1465,2.0469,4.4803,3.1749,7.2025,3.4804c0.687,0.077,2.0695,0.036,2.8803-0.0862c2.4494-0.369,4.9172-1.6008,6.8444-3.4159
	c0.5339-0.5029,0.7908-0.636,1.2285-0.6377c0.3808-0.0017,0.6477,0.1213,0.9205,0.4226c0.2485,0.2761,0.3331,0.5381,0.3063,0.9573
	c-0.0176,0.2686-0.0611,0.4008-0.2209,0.6611c-0.236,0.3841-0.1958,0.4192,0.2711,0.2385c0.631-0.246,1.4084-0.1322,1.8276,0.2661
	c0.369,0.3506,0.4042,0.7013,0.1172,1.1766c-0.1046,0.1741-0.19,0.3372-0.19,0.3632c0,0.0477,0.0795,0.0703,0.4628,0.1322
	c0.5013,0.0803,0.7883,0.4527,0.7883,1.0218c0,0.1707-0.0209,0.3096-0.0469,0.3096c-0.0251,0-0.2151-0.0695-0.4218-0.1548
	c-0.5841-0.241-0.9163-0.3029-1.5992-0.2987c-0.5197,0.0033-0.6987,0.0276-1.0611,0.1456
	c-0.5548,0.1816-1.1481,0.5314-1.6318,0.9623c-0.5331,0.4753-0.8686,0.6251-1.3875,0.6209c-0.482-0.005-0.8117-0.1448-0.9858-0.4201
	c-0.0929-0.1473-0.1063-0.2368-0.0837-0.5699c0.0151-0.2167,0.0117-0.3941-0.0059-0.3941c-0.0184,0-0.2059,0.1188-0.4176,0.2653
	c-0.5556,0.3816-0.9096,0.5707-1.5456,0.8226C32.9121,47.5014,30.113,47.8336,27.9699,47.5499L27.9699,47.5499z"/>
<path class="st2" d="M28.8569,43.8218c-3.2285-0.3099-6.3175-1.9915-8.1958-4.6575c-2.0393-2.7812-2.682-6.4533-2.0595-9.8109
	c0.3308-1.5286,0.9982-3.0583,2.1376-4.1468c-0.908,1.9249-1.2147,4.1313-0.7305,6.2168c0.7522,4.1634,4.2708,7.6879,8.4804,8.2976
	c1.6653,0.4821,3.388-0.0271,4.9788-0.5434c3.5092-1.2367,6.1824-4.5676,6.5086-8.2912c0.2792-2.0149-0.0301-4.11-0.9378-5.9344
	c0.5174,0.2736,1.1705,1.3462,1.5556,2.0675c1.3392,2.5944,1.4003,5.7034,0.6119,8.472c-1.0695,3.5228-3.7628,6.6091-7.3231,7.7307
	c-1.6157,0.5279-3.3341,0.6888-5.0258,0.5998L28.8569,43.8218z"/>
<path class="st2" d="M12.5958,39.1967c-0.2116-0.0331-0.4449,0.1751-0.3651,0.3931c0.1526,0.2203,0.4154,0.328,0.6526,0.4334
	c0.5683,0.2278,1.1865,0.3165,1.7967,0.3017c-0.2103-0.0005,0.0722,0.0022,0.1508-0.0001c0.4832,0.0014,0.9637-0.0856,1.4179-0.2494
	c0.2526-0.0888,0.5744-0.1694,0.6779-0.4488c0.101-0.182-0.082-0.3637-0.2666-0.3273c-0.257,0.0561-0.4973,0.1727-0.7523,0.2391
	c-0.55,0.1551-1.1292,0.2151-1.699,0.1683c-0.4167-0.0509-0.8204-0.1841-1.2059-0.3467
	C12.8691,39.3013,12.7437,39.2153,12.5958,39.1967L12.5958,39.1967z"/>
<path class="st2" d="M12.8309,38.3281c-0.2139-0.0318-0.3981,0.2143-0.3089,0.4107c0.1644,0.2384,0.4408,0.3653,0.6993,0.4769
	c0.4494,0.1798,0.9376,0.255,1.4205,0.2406c-0.1834-0.0005,0.063,0.0022,0.131-0.0001c0.4106,0.0005,0.8191-0.0807,1.1987-0.2369
	c0.2321-0.0903,0.5163-0.1778,0.6129-0.4332c0.075-0.1403,0.0178-0.3445-0.159-0.3554c-0.1614-0.008-0.3007,0.0947-0.4501,0.1408
	c-0.5427,0.2244-1.1399,0.3195-1.725,0.269c-0.3646-0.0469-0.7129-0.1814-1.0435-0.3373
	C13.0825,38.4432,12.9707,38.3496,12.8309,38.3281L12.8309,38.3281z"/>
<path class="st2" d="M13.1196,37.4955c-0.1833-0.022-0.3094,0.1848-0.2786,0.3499c0.0274,0.1451,0.1575,0.2425,0.2652,0.3314
	c0.446,0.3261,1.0111,0.465,1.5587,0.4468c-0.2127-0.0008,0.2853,0.0035,0.1335-0.0006c0.3468-0.0014,0.6894-0.0863,1.0013-0.2364
	c0.2083-0.0906,0.4528-0.1954,0.523-0.4332c0.0336-0.1108,0.0546-0.27-0.0704-0.3322c-0.1309-0.0731-0.2608,0.0394-0.3798,0.085
	c-0.4008,0.204-0.8473,0.3174-1.2977,0.3153c-0.3892,0.0131-0.7559-0.1505-1.0936-0.327
	C13.3588,37.6322,13.2578,37.5237,13.1196,37.4955L13.1196,37.4955z"/>
<path class="st2" d="M10.0443,25.205c-0.2726,0.2729-0.0644,0.7758-0.0792,1.1333c0.1412,1.1011,0.3167,2.2162,0.7278,3.2527
	c0.5034,1.0127,1.5725,1.5542,2.2203,2.4492c0.2316,0.4314,0.1494,0.9502,0.1982,1.4221c0.0383,1.2859,0.0264,2.5726,0.0039,3.8587
	c0.5806,0.2914,1.2112,0.5846,1.8792,0.4726c0.3959-0.0946,1.1307-0.1534,1.2131-0.5476c-0.032-2.2176-0.0528-4.436-0.0823-6.6532
	c-0.2251-0.6794-0.9164-1.031-1.4334-1.4656c-0.4267-0.4206-0.8238-0.8732-1.1873-1.3472
	c-0.2194-0.3697-1.0768-0.5029-0.7666,0.1403c0.1819,0.5568,0.6461,0.9715,0.7623,1.5567c0.0254,0.3206,0.4082,0.9104,0.0814,1.0974
	c-0.2078-0.3533-0.509-0.654-0.8939-0.8333c-0.3709-0.2765-0.984-0.3916-1.1179-0.8801c-0.0983-0.6929-0.4532-1.3207-0.911-1.8398
	c0.118-0.6223,0.0004-1.4006-0.5375-1.7983L10.0443,25.205L10.0443,25.205L10.0443,25.205z"/>
<path class="st2" d="M10.8736,25.3297c-0.2479,0.04-0.2395,0.356-0.1248,0.5221c0.122,0.3588,0.1553,0.7485,0.0892,1.1221
	c0.4408,0.516,0.7822,1.1333,0.885,1.8109c0.0025,0.2547,0.2705,0.339,0.4443,0.4649c0.4076,0.2595,0.8659,0.4478,1.229,0.7726
	c0.0764,0.0817,0.134,0.1696,0.0801,0.0029c-0.0566-0.2131-0.0858-0.4483-0.2528-0.6096c-0.2288-0.2459-0.5146-0.4655-0.848-0.5405
	c-0.0278-0.3443-0.1917-0.6605-0.3432-0.965c-0.1679-0.2911-0.3433-0.6031-0.631-0.7919c0.0116-0.5103,0.0032-1.0456-0.2164-1.5165
	C11.1205,25.4807,11.0257,25.337,10.8736,25.3297L10.8736,25.3297z"/>
<path class="st2" d="M11.5673,25.5331c-0.1727,0.0513-0.1397,0.2643-0.085,0.3947c0.0827,0.3611,0.0957,0.7342,0.089,1.1033
	c0.3172,0.2511,0.5157,0.6151,0.6964,0.9695c0.1133,0.2369,0.2206,0.4813,0.2641,0.7419c0.2574,0.0853,0.4826,0.2465,0.6838,0.4249
	c-0.0797-0.2412-0.2575-0.4279-0.3769-0.648c-0.1298-0.2291-0.2539-0.4679-0.3088-0.7274
	c-0.2475-0.2642-0.3839-0.6385-0.3298-1.0002c0.0111-0.3997-0.1179-0.8127-0.3854-1.1139
	C11.7471,25.6115,11.6667,25.5381,11.5673,25.5331L11.5673,25.5331z"/>
<path class="st2" d="M12.3564,25.6461c-0.0939,0.0166-0.1511,0.106-0.2014,0.1789c-0.0194,0.0731,0.0701,0.1516,0.0844,0.2309
	c0.1099,0.2755,0.1513,0.5777,0.1185,0.8725c-0.0072,0.2094,0.0677,0.4139,0.1744,0.5912c0.0308-0.1308,0.152-0.2248,0.2834-0.2377
	c0.0478-0.0084,0.1181,0.0158,0.0902-0.0571c-0.0334-0.4004-0.0944-0.8032-0.2344-1.1815
	c-0.0543-0.1351-0.1158-0.2774-0.2329-0.3699C12.4149,25.6564,12.3865,25.6419,12.3564,25.6461L12.3564,25.6461z"/>
<path class="st2" d="M47.4042,39.1967c0.2116-0.0331,0.4449,0.1751,0.3651,0.3931c-0.1526,0.2203-0.4154,0.328-0.6526,0.4334
	c-0.5683,0.2278-1.1865,0.3165-1.7967,0.3017c0.2103-0.0005-0.0722,0.0022-0.1508-0.0001
	c-0.4832,0.0014-0.9637-0.0856-1.4179-0.2494c-0.2526-0.0888-0.5744-0.1694-0.6779-0.4488c-0.101-0.182,0.082-0.3637,0.2666-0.3273
	c0.257,0.0561,0.4973,0.1727,0.7523,0.2391c0.55,0.1551,1.1292,0.2151,1.699,0.1683c0.4167-0.0509,0.8204-0.1841,1.2059-0.3467
	C47.1309,39.3013,47.2563,39.2153,47.4042,39.1967L47.4042,39.1967z"/>
<path class="st2" d="M47.1691,38.3281c0.2139-0.0318,0.3981,0.2143,0.3089,0.4107c-0.1644,0.2384-0.4408,0.3653-0.6992,0.4769
	c-0.4494,0.1798-0.9376,0.255-1.4205,0.2406c0.1834-0.0005-0.063,0.0022-0.131-0.0001c-0.4106,0.0005-0.8191-0.0807-1.1987-0.2369
	c-0.2321-0.0903-0.5163-0.1778-0.6129-0.4332c-0.075-0.1403-0.0178-0.3445,0.159-0.3554c0.1614-0.008,0.3007,0.0947,0.4501,0.1408
	c0.5427,0.2244,1.1399,0.3195,1.725,0.269c0.3646-0.0469,0.7129-0.1814,1.0435-0.3373
	C46.9175,38.4432,47.0293,38.3496,47.1691,38.3281L47.1691,38.3281z"/>
<path class="st2" d="M46.8804,37.4955c0.1833-0.022,0.3094,0.1848,0.2786,0.3499c-0.0274,0.1451-0.1575,0.2425-0.2652,0.3314
	c-0.446,0.3261-1.0111,0.465-1.5587,0.4468c0.2127-0.0008-0.2853,0.0035-0.1334-0.0006c-0.3468-0.0014-0.6894-0.0863-1.0013-0.2364
	c-0.2083-0.0906-0.4528-0.1954-0.523-0.4332c-0.0336-0.1108-0.0546-0.27,0.0704-0.3322c0.1309-0.0731,0.2608,0.0394,0.3798,0.085
	c0.4008,0.204,0.8473,0.3174,1.2977,0.3153c0.3892,0.0131,0.7559-0.1505,1.0936-0.327
	C46.6412,37.6322,46.7422,37.5237,46.8804,37.4955L46.8804,37.4955z"/>
<path class="st2" d="M49.9557,25.205c0.2726,0.2729,0.0644,0.7758,0.0792,1.1333c-0.1412,1.1011-0.3167,2.2162-0.7278,3.2527
	c-0.5033,1.0127-1.5725,1.5542-2.2203,2.4492c-0.2316,0.4314-0.1494,0.9502-0.1982,1.4221
	c-0.0383,1.2859-0.0264,2.5726-0.0039,3.8587c-0.5806,0.2914-1.2112,0.5846-1.8792,0.4726
	c-0.3959-0.0946-1.1307-0.1534-1.2131-0.5476c0.032-2.2176,0.0527-4.436,0.0822-6.6532c0.2251-0.6794,0.9164-1.031,1.4334-1.4656
	c0.4267-0.4206,0.8238-0.8732,1.1873-1.3472c0.2194-0.3697,1.0768-0.5029,0.7666,0.1403c-0.1819,0.5568-0.6461,0.9715-0.7623,1.5567
	c-0.0254,0.3206-0.4082,0.9104-0.0814,1.0974c0.2078-0.3533,0.509-0.654,0.8939-0.8333c0.3709-0.2765,0.984-0.3916,1.1179-0.8801
	c0.0983-0.6929,0.4532-1.3207,0.911-1.8398c-0.118-0.6223-0.0004-1.4006,0.5375-1.7983L49.9557,25.205L49.9557,25.205
	L49.9557,25.205z"/>
<path class="st2" d="M49.1264,25.3297c0.2479,0.04,0.2395,0.356,0.1248,0.5221c-0.122,0.3588-0.1553,0.7485-0.0892,1.1221
	c-0.4408,0.516-0.7822,1.1333-0.885,1.8109c-0.0025,0.2547-0.2705,0.339-0.4443,0.4649c-0.4076,0.2595-0.8659,0.4478-1.229,0.7726
	c-0.0764,0.0817-0.134,0.1696-0.0801,0.0029c0.0566-0.2131,0.0858-0.4483,0.2528-0.6096c0.2288-0.2459,0.5146-0.4655,0.848-0.5405
	c0.0278-0.3443,0.1917-0.6605,0.3432-0.965c0.1679-0.2911,0.3433-0.6031,0.631-0.7919c-0.0116-0.5103-0.0032-1.0456,0.2164-1.5165
	C48.8795,25.4807,48.9743,25.337,49.1264,25.3297L49.1264,25.3297z"/>
<path class="st2" d="M48.4327,25.5331c0.1727,0.0513,0.1397,0.2643,0.085,0.3947c-0.0827,0.3611-0.0957,0.7342-0.089,1.1033
	c-0.3172,0.2511-0.5157,0.6151-0.6964,0.9695c-0.1133,0.2369-0.2206,0.4813-0.2641,0.7419
	c-0.2574,0.0853-0.4826,0.2465-0.6838,0.4249c0.0797-0.2412,0.2575-0.4279,0.3769-0.648c0.1298-0.2291,0.2539-0.4679,0.3088-0.7274
	c0.2475-0.2642,0.3839-0.6385,0.3298-1.0002c-0.0111-0.3997,0.1179-0.8127,0.3854-1.1139
	C48.2528,25.6115,48.3333,25.5381,48.4327,25.5331L48.4327,25.5331z"/>
<path class="st2" d="M47.6436,25.6461c0.0939,0.0166,0.1511,0.106,0.2014,0.1789c0.0194,0.0731-0.0701,0.1516-0.0844,0.2309
	c-0.1099,0.2755-0.1513,0.5777-0.1185,0.8725c0.0072,0.2094-0.0677,0.4139-0.1744,0.5912c-0.0308-0.1308-0.152-0.2248-0.2834-0.2377
	c-0.0478-0.0084-0.118,0.0158-0.0902-0.0571c0.0334-0.4004,0.0944-0.8032,0.2344-1.1815c0.0543-0.1351,0.1158-0.2774,0.2329-0.3699
	C47.5851,25.6564,47.6135,25.6419,47.6436,25.6461L47.6436,25.6461z"/>
<path class="st2" d="M29.6377,39.7055c-1.1291-0.1075-2.1479-0.9305-2.4962-2.0084c0.0188-0.1857,0.2499,0.1039,0.3591,0.1234
	c0.205,0.1139,0.4268,0.2076,0.6629,0.2221c0.2977,0.1279,0.4817,0.4213,0.7658,0.5743c0.1319,0.1027,0.5987,0.3047,0.512-0.0221
	c-0.1094-0.1707-0.1846-0.387-0.0904-0.5825c0.1583-0.3473,0.4018-0.6497,0.6469-0.9394c0.1801-0.0602,0.3007,0.2951,0.4296,0.4148
	c0.1783,0.2744,0.3933,0.6091,0.2885,0.95c-0.1021,0.1263-0.1692,0.506,0.1038,0.3784c0.3365-0.1481,0.6122-0.3968,0.8913-0.6291
	c0.2442-0.1706,0.5568-0.1826,0.8128-0.3322c0.1186-0.0301,0.3657-0.2673,0.4172-0.1358c-0.1402,0.3755-0.3751,0.7119-0.6261,1.0218
	c-0.4066,0.4645-0.9567,0.8138-1.5721,0.9123C30.3792,39.7196,30.0059,39.7337,29.6377,39.7055L29.6377,39.7055z"/>
<path class="st2" d="M30.9649,38.3867c0.0249-0.2266-0.0267-0.458-0.1425-0.664c-0.1777-0.362-0.4286-0.6834-0.6733-1.0009
	c-0.2307-0.1351-0.3588,0.3061-0.5122,0.4328c-0.239,0.3579-0.5392,0.7244-0.5537,1.1746
	c-0.1345,0.2093-0.3853-0.1708-0.4934-0.2959c-0.2065-0.2921-0.3628-0.6377-0.3372-1.0031c-0.0245-0.5888,0.0885-1.175,0.303-1.7223
	c0.1619-0.4672,0.4247-0.921,0.398-1.4314c0.0188-0.3841-0.0592-0.8082-0.3704-1.0665c-0.2961-0.2323,0.1918-0.2818,0.3467-0.1613
	c0.2652,0.0178,0.4086,0.4559,0.6508,0.3475c0.0965-0.2288,0.1157-0.5018,0.3146-0.6803c0.1953-0.2674,0.3994,0.1135,0.4662,0.2919
	c0.1378,0.1567-0.0078,0.5445,0.216,0.5547c0.2683-0.1881,0.4596-0.504,0.8027-0.5728c0.1391-0.0794,0.3769-0.0106,0.1934,0.1494
	c-0.2539,0.238-0.4708,0.5356-0.517,0.8896c-0.0776,0.4441,0.0334,0.8946,0.227,1.2946c0.3721,0.7858,0.6599,1.6733,0.4716,2.5476
	c-0.0873,0.3886-0.3513,0.7235-0.6721,0.949C31.0426,38.4442,30.9785,38.4425,30.9649,38.3867L30.9649,38.3867z"/>
<path class="st2" d="M30.5632,32.4796c-0.1219-0.2196-0.2698-0.436-0.4747-0.5853c-0.1993-0.0004-0.3222,0.2509-0.4576,0.3826
	c-0.0949,0.1766-0.2102,0.4719-0.444,0.241c-0.3719-0.217-0.4377-0.6925-0.4353-1.0844c-0.0234-0.6352,0.2324-1.228,0.4596-1.8064
	c0.1446-0.3622,0.1089-0.7698,0.0208-1.1409c-0.111-0.4261-0.453-0.7216-0.7163-1.054c0.0179-0.1286,0.3544-0.0583,0.481-0.0339
	c0.2811,0.0712,0.4491,0.3201,0.6586,0.4959c0.1491-0.0451,0.0882-0.3464,0.1576-0.4881c0.0051-0.1993,0.2705-0.4622,0.38-0.1767
	c0.1639,0.1814-0.0052,0.5409,0.2066,0.6539c0.2018-0.0747,0.3013-0.2953,0.4909-0.395c0.1866-0.1272,0.45-0.1414,0.6509-0.0415
	c0.0707,0.1852-0.2209,0.3393-0.3054,0.5002c-0.3391,0.4189-0.4582,0.9967-0.313,1.5157c0.1151,0.4071,0.3191,0.7871,0.3895,1.2079
	c0.0847,0.473,0.0819,0.9698-0.0405,1.4359c-0.0732,0.283-0.3182,0.472-0.5712,0.5895
	C30.6383,32.6377,30.6054,32.5523,30.5632,32.4796L30.5632,32.4796z"/>
<path class="st2" d="M29.2979,27.2293c-0.2812-0.2059-0.3741-0.4025-0.3741-0.7916c0-0.1992,0.0368-0.3071,0.1682-0.4879
	c0.1933-0.2678,0.1582-0.3523-0.1155-0.2736c-0.4402,0.1264-0.6502,0.0109-0.6653-0.364c-0.0067-0.1833,0.0318-0.2611,0.2787-0.5573
	c0.1975-0.2377,0.2695-0.3623,0.2301-0.4017c-0.0385-0.0385-0.272,0.164-0.7515,0.6519c-0.3824,0.3891-0.8126,0.7866-0.9557,0.8837
	c-0.8234,0.5557-1.61,0.6418-1.969,0.2142c-0.1841-0.2184-0.1741-0.3414,0.0385-0.4736c0.0979-0.0603,0.2628-0.1992,0.3674-0.3088
	c0.2469-0.2569,0.9824-0.7875,1.3473-0.9715c0.2962-0.1498,0.3665-0.251,0.1741-0.251c-0.2494,0-1.0494,0.5205-1.6561,1.0778
	c-0.1782,0.1649-0.4351,0.3481-0.5699,0.4075c-0.3029,0.1339-0.8979,0.1833-1.1623,0.0962
	c-0.1866-0.0619-0.5272-0.3833-0.5272-0.4979c0-0.0301,0.0778-0.0971,0.1724-0.1481c0.0946-0.0502,0.2644-0.1732,0.3766-0.2711
	c0.4854-0.4259,1.405-0.8644,2.1347-1.0176c0.2318-0.0485,0.1464-0.1657-0.1121-0.154c-0.5013,0.0218-1.4962,0.4879-2.0904,0.9782
	c-0.6962,0.5741-1.7465,0.5197-2.0845-0.108c-0.0586-0.108-0.0929-0.2092-0.0761-0.2251c0.0159-0.0159,0.2226-0.0778,0.4594-0.1381
	c0.2561-0.0644,0.7632-0.2745,1.2477-0.5163c0.7623-0.3799,0.9883-0.4611,1.513-0.5456c0.236-0.0377,0.2485-0.1531,0.0192-0.1799
	c-0.2954-0.0351-0.7481,0.113-1.5481,0.5063c-1.0276,0.5054-1.3155,0.5925-1.8569,0.5607
	c-0.4937-0.0301-0.7724-0.1565-1.1732-0.5356c-0.2619-0.2485-0.6335-0.8795-0.5607-0.9523c0.0176-0.0176,0.1381,0,0.2678,0.0377
	c0.1439,0.0427,0.5565,0.0711,1.0536,0.072c0.6954,0.0017,0.8803-0.0167,1.2511-0.1239c0.6201-0.1791,1.4444-0.5983,2.0084-1.0192
	c1.0787-0.8067,1.9582-1.1305,3.0795-1.1356c1.0352-0.0042,1.6937,0.2351,2.277,0.8268c0.1975,0.2,0.3657,0.3297,0.3933,0.3021
	c0.0259-0.0259,0.0544-0.3757,0.0628-0.7774c0,0,0.3046-0.0293,0.369,0.0561c0,0.6519,0.0075,0.7029,0.1021,0.7029
	c0.0619,0,0.128-0.0636,0.169-0.1623c0.0887-0.2134,0.4167-0.5054,0.7674-0.6828c0.7573-0.3841,2.0678-0.3958,3.1205-0.0285
	c0.4435,0.1556,0.9356,0.4335,1.4042,0.795c0.4703,0.3615,1.4318,0.8452,2,1.0067c0.5749,0.1632,1.5883,0.2042,2.108,0.0862
	c0.2142-0.0485,0.4151-0.0887,0.4469-0.0887c0.1916,0-0.1347,0.6385-0.518,1.0126c-0.7004,0.6845-1.6117,0.6812-2.8937-0.01
	c-0.7992-0.4301-1.7548-0.6653-1.7548-0.431c0,0.0485,0.0502,0.0812,0.1247,0.0812c0.2778,0,0.8142,0.1866,1.5623,0.5414
	c0.8092,0.3849,1.2636,0.5473,1.5331,0.5473c0.1958,0,0.2017,0.1213,0.0192,0.3891c-0.1933,0.2854-0.5213,0.4268-0.9849,0.4259
	c-0.4427-0.0017-0.6887-0.0987-1.0845-0.4276c-0.6619-0.5506-2.3113-1.1649-2.2477-0.8368c0.0126,0.0653,0.092,0.1054,0.2619,0.1314
	c0.5741,0.0879,1.2477,0.4092,1.9372,0.9255c0.2126,0.1598,0.4335,0.3172,0.4895,0.3506c0.0946,0.0552,0.0962,0.072,0.0218,0.2117
	c-0.1238,0.231-0.436,0.41-0.7741,0.4452c-0.4377,0.0452-0.8184-0.0854-1.2126-0.4151c-0.8318-0.6962-1.6159-1.2-1.867-1.2
	c-0.205,0-0.113,0.113,0.2485,0.3046c0.4753,0.2519,0.964,0.5925,1.3239,0.923c0.1699,0.1573,0.3615,0.313,0.4251,0.3473
	c0.1506,0.0803,0.1448,0.1983-0.0209,0.4151c-0.169,0.2209-0.4485,0.318-0.8109,0.2795c-0.723-0.0762-1.287-0.4251-2.1732-1.3448
	c-0.3464-0.359-0.6552-0.6527-0.687-0.6527c-0.118,0-0.0485,0.1598,0.1799,0.4159c0.2828,0.3163,0.3372,0.4946,0.2301,0.7515
	c-0.0946,0.2276-0.2519,0.2803-0.5749,0.1933c-0.3305-0.0895-0.3824-0.0084-0.1657,0.2611c0.323,0.4025,0.2753,0.8954-0.1205,1.2343
	c-0.123,0.1046-0.2519,0.1908-0.287,0.1908c-0.0343,0-0.1213-0.0895-0.1941-0.1992c-0.2544-0.3866-0.4778-0.3841-0.7255,0.0067
	c-0.0862,0.1364-0.159,0.2469-0.1615,0.246C29.5523,27.4151,29.436,27.3314,29.2979,27.2293L29.2979,27.2293z"/>
<path class="st2" d="M30.5582,19.3749l-0.4293,0.3398l-0.3849-0.2904v2.3213l0.8142,0.01V19.3749z"/>
<path class="st2" d="M27.8987,16.9665c-0.0854,1.0971-0.364,1.8628-0.7515,2.7071l0.9289-0.8611l0.646,0.7674l0.6996-0.7808
	l0.7138,0.6594l0.6862-0.6862l0.713,0.8343l0.6193-0.6862l1.0494,0.7531c-0.3808-0.8444-0.8962-1.5598-0.8318-2.7481
	C31.3548,17.6812,28.9389,17.8176,27.8987,16.9665L27.8987,16.9665z"/>
<path class="st2" d="M29.7448,16.4067c-0.3732,0.0067-0.7665,0.0117-1.1205,0.0812c-0.2452,0.0485-0.4678,0.128-0.6536,0.2594
	c0.0301,0.7138,3.431,1.0117,4.3431,0.0134c-0.1916-0.1397-0.4259-0.2226-0.6837-0.2728c-0.3406-0.0661-0.7172-0.0728-1.0745-0.0787
	c0,0.1958,0.0017,0.3925,0.0017,0.5891l-0.8126-0.0025V16.4067L29.7448,16.4067z"/>
<path class="st2" d="M30.41,12.759l-0.528,0.0042v4.1322l0.5389,0.0025L30.41,12.759z"/>
<path class="st2" d="M30.4092,12.8653l-0.2017,1.9782l2.0352,0.9941l-1.0301-1.3774l1.4067-0.4561L30.4092,12.8653z"/>
<path class="st2" d="M30.1824,12.3498c-0.3088,0-0.5372,0.1155-0.5372,0.2527c0,0.1372,0.2285,0.2536,0.5372,0.2536
	s0.5356-0.1163,0.5356-0.2536C30.718,12.4653,30.4912,12.3498,30.1824,12.3498z"/>
<path class="st0" d="M29.251,47.0562c0.3339-0.1105,0.5239-0.313,0.6603-0.7029c0.0678-0.1941,0.1138-0.3958,0.1021-0.4485
	c-0.0285-0.1247-0.1724-0.118-0.3314,0.0142c-0.1088,0.0912-0.1222,0.1372-0.0912,0.323c0.0795,0.4686-0.087,0.5849-0.9741,0.6803
	c-0.0879,0.0092-0.3423-0.0059-0.5665-0.0335c-0.4218-0.0527-0.5724-0.0109-0.4193,0.1163c0.046,0.0385,0.1632,0.0904,0.2603,0.1146
	C28.128,47.1809,28.9975,47.1399,29.251,47.0562L29.251,47.0562z"/>
<path class="st0" d="M31.0895,46.9783c0.0502-0.046,0.2226-0.1255,0.3833-0.1774c0.2142-0.0686,0.3247-0.1423,0.4151-0.277
	c0.2603-0.3875,0.2117-0.7213-0.1707-1.1716c-0.2075-0.2444-0.2996-0.2377-0.4653,0.0335
	c-0.1431,0.2343-0.1397,0.2494,0.0661,0.3029c0.1079,0.0276,0.2117,0.1071,0.2686,0.205c0.2243,0.3883,0.1582,0.6285-0.1741,0.631
	c-0.3013,0.0025-0.3841,0.0452-0.4653,0.2402c-0.0427,0.1013-0.077,0.2092-0.077,0.2402
	C30.8703,47.0871,30.9841,47.0729,31.0895,46.9783L31.0895,46.9783z"/>
<path class="st0" d="M30.4862,46.5399c0.0569-0.154,0.077-0.431,0.0703-0.9958c-0.0042-0.4301-0.0209-0.795-0.0377-0.8117
	c-0.0502-0.0502-0.2979,0.1096-0.3305,0.2126c-0.0167,0.0536,0.0109,0.1774,0.0611,0.2745c0.077,0.1498,0.087,0.2895,0.0636,0.8762
	C30.2828,46.8369,30.3314,46.9616,30.4862,46.5399L30.4862,46.5399z"/>
<path class="st0" d="M29.0703,46.1867c0.0301-0.1381,0.0686-0.4209,0.0862-0.6276c0.0176-0.2067,0.0602-0.4678,0.0937-0.5808
	c0.0854-0.2895-0.0008-0.3657-0.2293-0.2033l-0.1699,0.1213l0.0351,0.4159c0.0326,0.3749-0.0268,1.0736-0.113,1.3448
	c-0.0234,0.072,0.01,0.0536,0.1046-0.0569C28.954,46.5114,29.041,46.3248,29.0703,46.1867z"/>
<path class="st0" d="M27.8142,46.3884c0.3056-0.2556,0.2704-0.6921,0.3381-1.0477c-0.007-0.2364,0.1509-0.5198,0.049-0.7266
	c-0.2855,0.0522-0.4615,0.3226-0.3153,0.592c0.0122,0.3128,0.0011,0.6534-0.1597,0.93c-0.1314,0.1809-0.5474,0.1358-0.5283-0.1206
	c0.1044-0.3855-0.3575-0.1979-0.5378-0.0968c-0.1394,0.097-0.4337,0.1042-0.3314-0.1387c-0.0675-0.3236-0.4837-0.1212-0.7098-0.1226
	c-0.2136-0.0039-0.0177-0.4327-0.3242-0.3574c-0.5695-0.0449-1.1982,0.005-1.6912-0.339c-0.2886-0.1387-0.2458-0.4858-0.0955-0.7104
	c0.1794-0.3067,0.2306-0.6903,0.5154-0.9283c0.2819-0.2704-0.2659-0.1562-0.3893-0.0651c-0.2746,0.1503-0.0195,0.5375-0.2443,0.7522
	c-0.1313,0.2227-0.3043,0.5302-0.6084,0.4878c-0.4385-0.0829-0.6913-0.4908-1.0056-0.7642
	c-0.2693-0.0537-0.1179,0.437,0.0212,0.5401c0.2751,0.206,0.5966,0.3561,0.9282,0.4451c0.33-0.0528,0.3407,0.3794,0.623,0.4472
	c0.5178,0.2413,1.0948,0.3135,1.6597,0.343c0.2219,0.0185,0.0971,0.4136,0.3888,0.3355c0.163,0.0423,0.5312-0.0607,0.5496,0.1287
	c-0.2471,0.2934,0.2372,0.2868,0.4164,0.2343c0.2295-0.0351,0.5227-0.1227,0.5833,0.1918c0.1915,0.2019,0.5433,0.1721,0.7765,0.0566
	C27.7554,46.4364,27.7862,46.414,27.8142,46.3884L27.8142,46.3884z"/>
<path class="st0" d="M22.8134,43.8553c0.0929-0.118,0.2318-0.3565,0.3088-0.5305c0.0761-0.1749,0.1908-0.3732,0.2536-0.441
	c0.1473-0.159,0.0653-0.2569-0.1724-0.2042c-0.1255,0.0276-0.1766,0.0736-0.1975,0.1824c-0.0711,0.3548-0.2,0.718-0.3146,0.887
	c-0.2075,0.3063-0.2126,0.3188-0.1272,0.3188C22.6083,44.0679,22.7205,43.9725,22.8134,43.8553L22.8134,43.8553z"/>
<path class="st0" d="M19.6786,41.8905c-0.2343,0-0.2444,0.1481-0.0159,0.2276c0.1105,0.0385,0.2042,0.1314,0.2795,0.2828
	c0.2226,0.4427,0.3531,0.5213,0.9439,0.5724l0.3791,0.0343l0.0184,0.2301c0.0092,0.1272,0.0393,0.2326,0.0686,0.2326
	c0.0293,0,0.1757-0.0636,0.3238-0.1389c0.2778-0.1406,0.5414-0.4686,0.5414-0.672c0-0.1331-0.2218-0.277-0.4234-0.277
	c-0.0895,0-0.2603,0.072-0.395,0.1699c-0.4218,0.3054-0.8728,0.2435-1.1197-0.154C20.077,42.0704,19.8652,41.8905,19.6786,41.8905
	L19.6786,41.8905z M21.7255,42.7064c0.1121,0,0.1397,0.0828,0.0787,0.241c-0.0418,0.1088-0.1782,0.1121-0.2192,0.005
	C21.5364,42.826,21.6042,42.7064,21.7255,42.7064L21.7255,42.7064z"/>
<path class="st0" d="M37.6017,42.1917c-0.1531,0.0059-0.1983,0.0393-0.2954,0.1833c-0.159,0.236-0.1749,0.7473-0.0285,0.928
	c0.0912,0.1121,0.1046,0.1146,0.2979,0.0343c0.2695-0.113,0.3146-0.1088,0.3138,0.036c-0.0017,0.3699-0.5322,1.0829-1.0879,1.4619
	c-0.1498,0.1021-0.2837,0.2159-0.2979,0.2536c-0.0402,0.1054,0.1657,0.082,0.4184-0.0469c0.3448-0.1757,0.7975-0.6377,0.9833-1.0017
	c0.1473-0.2904,0.1682-0.3891,0.1858-0.8971c0.0159-0.4678,0.0033-0.605-0.0761-0.7607c-0.0887-0.1749-0.1172-0.1908-0.3397-0.1908
	C37.6486,42.1917,37.6243,42.1909,37.6017,42.1917L37.6017,42.1917z M37.6201,42.5181c0.1155,0,0.1356,0.0259,0.149,0.1916
	c0.0117,0.1372-0.0126,0.2209-0.0887,0.2895c-0.1038,0.0937-0.1121,0.0929-0.2042-0.0469
	C37.3473,42.7549,37.4268,42.5181,37.6201,42.5181L37.6201,42.5181z"/>
<path class="st0" d="M35.0795,46.0896c0.4895-0.241,0.7782-0.5121,0.964-0.9046c0.0879-0.1866,0.1598-0.3623,0.1598-0.3925
	c0-0.0678-0.241-0.1799-0.3858-0.1799c-0.1439,0-0.1732-0.0996-0.1113-0.3749c0.0602-0.2686-0.0126-0.605-0.1305-0.605
	c-0.0427,0-0.118,0.0628-0.1682,0.1389c-0.077,0.118-0.0812,0.1682-0.0243,0.3397c0.0837,0.2544,0.0176,0.4444-0.21,0.6067
	c-0.1079,0.077-0.1674,0.1657-0.1674,0.2519c0,0.0728,0.0092,0.1322,0.0201,0.1322c0.0117,0,0.1305-0.0619,0.2644-0.1364
	l0.2444-0.1364l0.1439,0.113c0.0787,0.0619,0.1439,0.1632,0.1439,0.2251c0,0.2979-0.8494,0.7983-1.4326,0.8452
	c-0.3105,0.0251-0.3632,0.0142-0.4711-0.0929c-0.0879-0.0879-0.113-0.1615-0.0912-0.2653c0.0167-0.0795,0.0469-0.2243,0.0669-0.3213
	c0.0536-0.2594-0.0577-0.2243-0.2502,0.0787c-0.1582,0.2502-0.205,0.5172-0.1163,0.6577c0.0728,0.1146,0.5565,0.2243,0.8987,0.2033
	C34.6418,46.2603,34.8544,46.2001,35.0795,46.0896L35.0795,46.0896z"/>
<path class="st0" d="M38.3465,44.267c0.3079-0.3071,0.4385-0.6812,0.4402-1.2594l0.0008-0.4343l0.2544-0.1205
	c0.3305-0.1573,0.6435-0.4703,0.6435-0.6444c0-0.1791-0.0795-0.1699-0.2234,0.0251c-0.1046,0.1414-0.2444,0.2268-0.7557,0.4619
	c-0.1289,0.0594-0.1372,0.0912-0.1665,0.6318c-0.0343,0.6234-0.1188,0.8569-0.4669,1.2829
	c-0.2134,0.2594-0.2209,0.2937-0.0728,0.2937C38.0611,44.5039,38.2168,44.3976,38.3465,44.267z"/>
<path class="st0" d="M34.9925,43.9189c0.0293-0.0895-0.1406-0.1531-0.2142-0.0803c-0.031,0.031-0.0393,0.0845-0.0184,0.1188
	C34.8084,44.0352,34.9624,44.0093,34.9925,43.9189L34.9925,43.9189z"/>
<path class="st0" d="M39.6176,42.7214c0.0301-0.0895-0.1406-0.1531-0.2134-0.0803c-0.0318,0.0318-0.0402,0.0854-0.0192,0.1197
	C39.4335,42.8386,39.5875,42.8126,39.6176,42.7214L39.6176,42.7214z"/>
<path class="st0" d="M34.0511,39.4796c-0.1196,0.057-0.1817,0.1861-0.2649,0.2848c-0.0598,0.0407-0.0119,0.0787,0.0226,0.1171
	c0.2111,0.2274,0.3004,0.5344,0.4007,0.8208c0.0985,0.3381,0.2225,0.7011,0.1195,1.0534c-0.0405,0.1349-0.1467,0.2746-0.3052,0.2298
	c-0.2536-0.0158-0.5031-0.0831-0.7574-0.0805c-0.2264,0.0118-0.4013,0.2178-0.6328,0.1953
	c-0.1479,0.0097-0.1416-0.3028-0.279-0.2192c-0.068,0.1629-0.0345,0.3447-0.0426,0.517c0.0256,0.0247,0.0975,0.0032,0.1406,0.0104
	h0.4557c0.0322,0.1573,0.0282,0.3377,0.1412,0.4629c0.1582,0.0562,0.3361,0.0077,0.4863-0.0538
	c0.1611-0.075,0.1827-0.2687,0.2282-0.4197c0.0484-0.1622,0.2608-0.1197,0.3862-0.1834c0.3067-0.0895,0.5077-0.4083,0.4897-0.7219
	c-0.0198-0.4788-0.2025-0.9293-0.3411-1.3825c-0.0697-0.1997-0.118-0.408-0.1989-0.6029
	C34.0905,39.4904,34.071,39.4763,34.0511,39.4796L34.0511,39.4796z M33.2921,42.2177c0.1704-0.0111,0.2444,0.1983,0.2084,0.3372
	c-0.0638,0.1887-0.2958,0.0677-0.3428-0.0683C33.0715,42.3651,33.1247,42.2017,33.2921,42.2177L33.2921,42.2177z"/>
<path class="st0" d="M26.9824,40.6461c-0.0761-0.0017-0.1615,0.0268-0.246,0.0862c-0.4444,0.3113-0.5582,0.6795-0.2561,0.8234
	c0.2218,0.1063,0.1657,0.231-0.1833,0.4059c-0.4996,0.2494-0.9406,0.2184-1.7782-0.128c-0.2059-0.0854-0.2594-0.0527-0.2117,0.1356
	c0.046,0.1849,0.2151,0.2862,0.6352,0.3816c0.4519,0.1038,0.9983,0.0703,1.3498-0.0812c0.1715-0.0736,0.3749-0.2285,0.5464-0.4151
	l0.272-0.2987l0.3163,0.0393c0.39,0.0477,0.3975,0.0519,0.3975,0.2385c0,0.1481,0.0084,0.1515,0.3665,0.1849
	c0.2017,0.0192,0.4669,0.0368,0.5908,0.0368c0.1582,0.0008,0.2477,0.0285,0.3004,0.1021c0.0703,0.0979,0.1121,0.1029,0.7013,0.0502
	c0.5506-0.0502,0.6586-0.046,0.9071,0.0385c0.1766,0.0603,0.3707,0.0845,0.518,0.0686c0.4218-0.0477,1.0034-0.3925,1.0879-0.646
	c0.01-0.031,0.1632-0.0854,0.3397-0.1205c0.4259-0.0854,0.4444-0.1782,0.0469-0.2276c-0.1724-0.0218-0.431-0.0845-0.5749-0.1414
	c-0.1448-0.0569-0.3423-0.1046-0.4393-0.1046c-0.2142,0-0.4159,0.1339-0.4159,0.272c0,0.0904,0.0318,0.0996,0.2854,0.0736
	c0.2385-0.0243,0.308-0.0109,0.4335,0.0887c0.0828,0.0653,0.1381,0.1423,0.1205,0.1699c-0.0561,0.0912-0.554,0.318-0.7741,0.3531
	c-0.1473,0.0234-0.2661,0.0075-0.3816-0.0519c-0.1933-0.1004-0.4778-0.1155-0.5314-0.0293
	c-0.0226,0.0377-0.0837,0.0134-0.1674-0.0653l-0.1305-0.123l-0.2954,0.123c-0.3004,0.1247-0.4109,0.1197-0.4109-0.0234
	c0-0.0653-0.0879-0.0728-0.5305-0.0443c-0.4879,0.0318-0.5389,0.0234-0.6301-0.0787c-0.0845-0.0937-0.0862-0.1264-0.0259-0.2226
	c0.0552-0.0887,0.0552-0.1272,0.0025-0.1799c-0.0527-0.0527-0.1213-0.0519-0.3138,0c-0.4854,0.1297-0.6226,0.0569-0.6226-0.3222
	C27.2803,40.7867,27.1498,40.6486,26.9824,40.6461L26.9824,40.6461z M26.8619,40.9942c0.0259,0,0.0477,0.0159,0.0812,0.0494
	c0.0427,0.0427,0.0653,0.1172,0.0469,0.1649c-0.0435,0.113-0.2494,0.1088-0.2929-0.005c-0.0209-0.0552,0.0059-0.1172,0.0678-0.1623
	C26.8084,41.0093,26.836,40.9934,26.8619,40.9942L26.8619,40.9942z"/>
<path class="st0" d="M25.9916,41.3474c0.2954-0.1874,0.2887-0.1732,0.3314-0.6937c0.0293-0.3674,0.0243-0.395-0.0753-0.395
	c-0.1448,0-0.2201,0.159-0.2201,0.4619c0,0.1941-0.0301,0.2812-0.1339,0.3841c-0.246,0.246-0.8569,0.1339-0.9339-0.1716
	c-0.0259-0.1046,0.0075-0.1992,0.1356-0.3808c0.2669-0.3791,0.2067-0.472-0.1205-0.1841c-0.2251,0.1967-0.2653,0.2025-0.2226,0.0326
	c0.0393-0.1565-0.0427-0.2184-0.2259-0.1724c-0.0937,0.0234-0.1448,0.082-0.1674,0.1958c-0.0218,0.1113-0.0728,0.1732-0.1615,0.195
	c-0.1481,0.0377-0.4008-0.1029-0.4008-0.2226c0-0.0887,0.3782-0.5506,0.8636-1.0544c0.1833-0.1908,0.3331-0.3682,0.3331-0.395
	s-0.0979-0.0485-0.2176-0.0485c-0.1749,0-0.2176,0.0192-0.2176,0.1004c0,0.0552-0.2444,0.3757-0.5439,0.713
	c-0.6243,0.7029-0.6762,0.8494-0.3674,1.0368c0.2485,0.1523,0.5674,0.1406,0.8176-0.0293l0.2025-0.1381v0.2502
	c0,0.3197,0.0636,0.4343,0.3146,0.5674C25.2971,41.5658,25.6787,41.5457,25.9916,41.3474L25.9916,41.3474z"/>
<path class="st0" d="M39.0929,37.0034c-0.2315,0.1382-0.0504,0.4288-0.0153,0.6217c-0.0946,0.2633-0.4328,0.3342-0.6794,0.383
	c-0.3493,0.0578-0.5967,0.35-0.7296,0.6604c-0.072,0.2016-0.2457,0.5142-0.4351,0.2073c-0.1646-0.1668-0.4671-0.299-0.6617-0.1043
	c-0.1479,0.1408-0.1853,0.3479-0.2405,0.5358c-0.0873-0.1445-0.1264-0.3596-0.3113-0.4052
	c-0.2952,0.0415-0.1885,0.4137-0.0497,0.5672c0.1262,0.1789,0.2474,0.4149,0.1237,0.6274c-0.109,0.2554-0.4862,0.4276-0.7077,0.2092
	c-0.2069-0.1092-0.0685-0.4992-0.2723-0.5206c-0.1008,0.0728-0.1091,0.4808-0.2703,0.2596c-0.1164-0.189-0.0547-0.4479-0.197-0.6179
	c-0.1683,0.0209-0.3035,0.3106-0.2476,0.4662c0.2245,0.3027,0.3167,0.6825,0.4043,1.0433c0.0546,0.1445-0.008,0.4374,0.1272,0.4946
	c0.0937-0.2325,0.0066-0.4963,0.0804-0.731c0.2191-0.0275,0.4628,0.0725,0.6926,0.0193c0.3288-0.0427,0.5828-0.3201,0.6981-0.6155
	c0.0348-0.2221-0.0066-0.4475-0.0128-0.6709c0.2597,0.0402,0.5296,0.0394,0.7794,0.1237c0.1239,0.19-0.0393,0.4559-0.0736,0.6636
	c-0.1304,0.4228-0.4616,0.7297-0.7838,1.0123c-0.1347,0.0798-0.1528,0.2911,0.0462,0.1772
	c0.4329-0.1851,0.7556-0.5772,0.9413-1.0016c0.1355-0.3265,0.0266-0.6902,0.115-1.0241c0.1307-0.2507,0.4453-0.1979,0.6781-0.1971
	c0.2409-0.0092,0.4466-0.2899,0.3661-0.524c-0.0767-0.2717,0.2108-0.4026,0.4072-0.4997c0.2604-0.1314,0.4601-0.3983,0.4399-0.6994
	C39.294,37.3097,39.3016,37.0176,39.0929,37.0034L39.0929,37.0034z M38.1698,38.5725c0.279,0.0741-0.0505,0.6069-0.1987,0.2694
	C37.9254,38.713,38.0338,38.5678,38.1698,38.5725z M36.8753,38.9541c0.3631-0.0212,0.2327,0.5089-0.074,0.2682
	C36.6422,39.1424,36.6948,38.9442,36.8753,38.9541z"/>
<path class="st0" d="M23.7322,41.0026c0.01-0.0527-0.0167-0.0904-0.0644-0.0904c-0.1013,0-0.1623,0.0887-0.1146,0.1657
	C23.6025,41.1574,23.7113,41.1122,23.7322,41.0026L23.7322,41.0026z"/>
<path class="st0" d="M27.9866,40.5273c0-0.0778-0.0293-0.1071-0.0946-0.0946c-0.1423,0.0268-0.1582,0.2075-0.0184,0.2075
	C27.9515,40.6403,27.9866,40.6051,27.9866,40.5273z"/>
<path class="st0" d="M22.7222,37.9733c-0.1698-0.0349-0.2766,0.1088-0.3347,0.2458c-0.127,0.2134-0.282,0.4317-0.5099,0.5447
	c-0.1638,0.0455-0.3426-0.0168-0.4838-0.1013c-0.1686-0.0839-0.1303-0.2867-0.2025-0.4268
	c-0.1219-0.0958-0.3381,0.0412-0.3333,0.1901c-0.0135,0.1997,0.1733,0.315,0.3284,0.3922c0.1318,0.0807,0.3228,0.1256,0.3755,0.2889
	c-0.0037,0.1388,0.0522,0.2977,0.2212,0.2441c0.1891-0.0031,0.2381,0.2272,0.1617,0.3654c-0.0778,0.1558-0.1302,0.3382-0.093,0.5118
	c0.0904,0.0761,0.1827-0.128,0.2481-0.1863c0.0445-0.0593,0.0889-0.1186,0.1334-0.1779c0.3346,0.0181,0.6689,0.0608,1.0043,0.0489
	c0.2385-0.0043,0.4417-0.1516,0.5934-0.3243c0.2145-0.2243,0.3907-0.4878,0.6357-0.6813c0.1744-0.0426,0.0807-0.371-0.1015-0.2762
	c-0.1641,0.0615-0.2157,0.247-0.3294,0.3651c-0.1937,0.2345-0.3913,0.4726-0.6355,0.6564c-0.1778,0.0737-0.3825,0.0416-0.5651,0
	c-0.0762-0.0666,0.1514-0.1209,0.1831-0.195c0.1048-0.1047,0.2292-0.204,0.2899-0.3415c-0.0581-0.1268-0.2357-0.137-0.3609-0.1396
	c-0.3084,0.037-0.544,0.2959-0.8555,0.3203c-0.2364,0.0083-0.1134-0.2478-0.0068-0.3351c0.2085-0.2476,0.4338-0.4808,0.6515-0.7203
	c0.0618-0.0743,0.2852-0.1449,0.1423-0.2494C22.8286,37.9741,22.7746,37.9741,22.7222,37.9733L22.7222,37.9733z M22.8738,39.2259
	c0.1555,0.0875-0.0992,0.2307-0.2065,0.2111c-0.1408,0.0422-0.1433-0.1014-0.0183-0.13
	C22.7193,39.2705,22.7936,39.2323,22.8738,39.2259L22.8738,39.2259z M22.3953,39.5528c0.0885-0.0017,0.274,0.0834,0.0998,0.1378
	C22.3738,39.7846,22.2368,39.5949,22.3953,39.5528z"/>
<path class="st0" d="M26.1632,39.7691c0-0.118-0.2117-0.1013-0.2351,0.0184c-0.0151,0.077,0.0092,0.0954,0.1079,0.0812
	C26.1063,39.8587,26.1632,39.8143,26.1632,39.7691z"/>
<path class="st0" d="M35.5398,38.939c0.0218-0.113-0.1356-0.1883-0.2184-0.1054c-0.0828,0.0828-0.0067,0.2402,0.1054,0.2184
	C35.4787,39.0419,35.5297,38.9909,35.5398,38.939L35.5398,38.939z"/>
<path class="st0" d="M20.9472,37.79c0.1473-0.1264,0.149-0.1347,0.0854-0.4126c-0.0904-0.3891-0.0845-0.431,0.0636-0.4678
	c0.1874-0.0477,0.6636,0.2075,0.769,0.4117c0.082,0.1582,0.0795,0.169-0.0594,0.2979c-0.1498,0.1381-0.149,0.2996,0.0008,0.2996
	c0.1238,0,0.4661-0.3239,0.4661-0.4402c0-0.1615-0.3799-0.5431-0.6803-0.6828c-0.1858-0.087-0.3715-0.1272-0.5866-0.128
	c-0.3849,0-0.4368,0.0828-0.3331,0.5305c0.1222,0.5247-0.0435,0.5958-0.4661,0.2c-0.3138-0.2937-0.4377-0.5992-0.436-1.0803
	c0.0008-0.5163,0.1983-0.7715,0.6435-0.8318c0.2954-0.0393,0.2879-0.1088-0.0159-0.154c-0.4435-0.0669-0.8184,0.2293-0.9607,0.7582
	c-0.1582,0.5866,0.2042,1.3013,0.8452,1.6695C20.6184,37.9524,20.7523,37.9582,20.9472,37.79z"/>
<path class="st0" d="M38.4235,37.1465c0.036-0.036,0.0653-0.1172,0.0653-0.1799c0-0.0628,0.0611-0.1975,0.1356-0.2987
	c0.0753-0.1013,0.1364-0.205,0.1364-0.2301c0-0.1029-0.1699-0.0996-0.3038,0.0067c-0.1372,0.1071-0.2402,0.1096-0.2402,0.005
	c0-0.0259,0.0653-0.0795,0.1456-0.1188c0.1992-0.0971,0.2159-0.1933,0.0477-0.2703c-0.2159-0.0979-0.4326,0.0812-0.4552,0.3766
	c-0.0142,0.1975,0.0017,0.2318,0.154,0.3213c0.1389,0.082,0.1649,0.1255,0.1414,0.2427
	C38.2101,37.2043,38.2946,37.2754,38.4235,37.1465L38.4235,37.1465z"/>
<path class="st0" d="M40.0661,36.9607c0.1205-0.108,0.2184-0.231,0.2184-0.272s0.1038-0.1498,0.231-0.241
	c0.3607-0.2594,0.4402-0.5213,0.2787-0.9239c-0.0628-0.1582-0.2603-0.3766-0.6895-0.7632
	c-0.3297-0.2979-0.6335-0.5414-0.6728-0.5414c-0.1172,0-0.0962,0.431,0.0226,0.4686c0.2142,0.0686,0.3439,0.1565,0.6812,0.4603
	c0.3916,0.354,0.5724,0.6845,0.4736,0.8686c-0.0946,0.1782-0.2201,0.123-0.5657-0.2477c-0.1816-0.195-0.3615-0.354-0.3983-0.354
	c-0.0402,0.0008-0.0686,0.0711-0.0686,0.1699c0,0.1238,0.0661,0.2418,0.2452,0.441c0.292,0.3247,0.3205,0.5197,0.1013,0.6921
	c-0.0787,0.0619-0.1598,0.113-0.1799,0.113c-0.0192,0-0.0837-0.0971-0.1423-0.2151c-0.1222-0.2477-0.8695-1.0368-0.9816-1.0368
	c-0.051,0-0.0761,0.0636-0.0761,0.1891c0,0.1515,0.0301,0.205,0.1506,0.2669c0.1481,0.077,0.5146,0.446,0.8828,0.8912
	c0.1054,0.1272,0.2092,0.2301,0.2318,0.231C39.8302,37.1574,39.9465,37.0687,40.0661,36.9607L40.0661,36.9607z"/>
<path class="st0" d="M40.7992,34.8628c-0.0485-0.1565-1.0511-1.1883-1.154-1.1883c-0.0536,0-0.0703,0.0636-0.0577,0.2276
	c0.0142,0.1992,0.036,0.2335,0.1732,0.2695c0.0854,0.0226,0.3498,0.2301,0.5866,0.4603c0.236,0.2301,0.4435,0.405,0.4603,0.3874
	C40.8243,35.0026,40.821,34.9323,40.7992,34.8628L40.7992,34.8628z"/>
<path class="st0" d="M34.8117,46.4763c0,0.0754-0.0667,0.1366-0.149,0.1366c-0.0823,0-0.149-0.0612-0.149-0.1366
	c0-0.0754,0.0667-0.1366,0.149-0.1366C34.745,46.3397,34.8117,46.4008,34.8117,46.4763z"/>
<path class="st0" d="M35.3381,46.3005c0,0.0754-0.0667,0.1366-0.149,0.1366c-0.0823,0-0.149-0.0612-0.149-0.1366
	c0-0.0754,0.0667-0.1366,0.149-0.1366C35.2714,46.1639,35.3381,46.2251,35.3381,46.3005z"/>
</svg>
