<?xml version="1.0" encoding="utf-8"?>
<!-- Generator: Adobe Illustrator 21.0.2, SVG Export Plug-In . SVG Version: 6.00 Build 0)  -->
<svg version="1.1" id="Layer_1" xmlns="http://www.w3.org/2000/svg" xmlns:xlink="http://www.w3.org/1999/xlink" x="0px" y="0px"
	 viewBox="0 0 335 335" style="enable-background:new 0 0 335 335;" xml:space="preserve">
<style type="text/css">
	.st0{fill:#00923E;}
	.st1{fill:#F8C100;}
	.st2{fill:#28166F;}
	.st3{fill:#FFFFFF;}
</style>
<g>
	<g>
		<path class="st0" d="M334.9931,167.5004C334.9931,260.0085,260.0162,335,167.5149,335C74.9914,335,0,260.0085,0,167.5004
			C0,74.9991,74.9914,0,167.5149,0C260.0162,0,334.9931,74.9991,334.9931,167.5004z"/>
		<g>
			<path id="_x3C_Path_x3E__413_" class="st1" d="M13.963,167.5004l153.552,98.0419l153.5376-98.0419L167.5149,69.4509
				L13.963,167.5004z"/>
			<g>
				<path id="_x3C_Path_x3E__412_" class="st2" d="M167.5149,101.7351c36.2985,0,65.7285,29.4515,65.7285,65.7653
					c0,36.336-29.43,65.7653-65.7285,65.7653c-36.3506,0-65.7873-29.4293-65.7873-65.7653
					C101.7276,131.1866,131.1643,101.7351,167.5149,101.7351z"/>
				<path class="st3" d="M232.9287,174.119c-28.7636-22.9569-65.5034-36.1713-105.1917-34.7538
					c-7.011,0.236-13.88,0.9731-20.6368,2.1102c-1.4298,3.2549-2.5446,6.6447-3.4197,10.1502
					c7.909-1.5976,16.0502-2.5929,24.3936-2.8994c39.1642-1.3692,75.3278,12.3501,102.9243,35.9169
					C231.9263,181.2312,232.5623,177.7219,232.9287,174.119z"/>
				<g>
					<path class="st0" d="M108.9706,145.8307c-0.0973-0.636-0.0751-1.2053,0.0598-1.6505c0.0896-0.3517,0.262-0.6697,0.4567-0.9647
						c0.2094-0.2881,0.4712-0.5241,0.7409-0.6927c0.3739-0.2207,0.8153-0.3777,1.3539-0.4413
						c0.9356-0.1494,1.7141,0.0452,2.3646,0.5387c0.659,0.5088,1.0551,1.2796,1.1978,2.301
						c0.1569,1.0474-0.0153,1.8673-0.4944,2.5439c-0.4557,0.6551-1.1823,1.0405-2.1102,1.1861
						c-0.9501,0.131-1.7654-0.0559-2.3868-0.5425C109.5092,147.6229,109.1131,146.8666,108.9706,145.8307z M110.2877,145.6169
						c0.105,0.7149,0.3517,1.2497,0.7478,1.557c0.3747,0.321,0.8306,0.4559,1.3325,0.3777c0.5088-0.0598,0.9202-0.318,1.1892-0.7294
						c0.2774-0.423,0.367-1.003,0.2544-1.7248c-0.0965-0.7448-0.344-1.2612-0.7103-1.5677
						c-0.3816-0.3141-0.8457-0.4383-1.3624-0.3555c-0.5456,0.0751-0.9279,0.3103-1.2045,0.7256
						C110.2655,144.3113,110.1827,144.8729,110.2877,145.6169z"/>
					<path class="st0" d="M118.0176,147.8398l-0.5465-6.4057l2.7086-0.2467c0.6883-0.0674,1.2122-0.0483,1.5187,0.0261
						c0.3149,0.1011,0.5915,0.2804,0.794,0.5685c0.2167,0.2881,0.3438,0.6099,0.3814,0.9769
						c0.0299,0.4827-0.0749,0.8942-0.3142,1.2344c-0.2697,0.3371-0.6735,0.5616-1.2275,0.6927
						c0.2843,0.1303,0.5463,0.2912,0.7555,0.482c0.1801,0.1724,0.472,0.5088,0.8007,0.9578l0.9133,1.2091l-1.5417,0.1303
						l-1.085-1.3202c-0.3816-0.4682-0.6283-0.7593-0.7409-0.872c-0.1494-0.1195-0.2689-0.1946-0.4191-0.236
						c-0.1272-0.0444-0.3663-0.0598-0.6659-0.0146l-0.262,0.0299l0.2322,2.6749L118.0176,147.8398z M118.9898,144.0308
						l0.9654-0.0973c0.6139-0.0337,1.003-0.105,1.1524-0.1724c0.1571-0.0743,0.2843-0.1678,0.3364-0.3065
						c0.0906-0.131,0.105-0.2919,0.0906-0.4935c-0.0077-0.2245-0.0906-0.3931-0.2025-0.5126
						c-0.1347-0.105-0.3065-0.1908-0.5387-0.2023c-0.0973,0-0.4046,0.0115-0.9432,0.0636l-0.9946,0.082L118.9898,144.0308z"/>
					<path class="st0" d="M125.8291,140.7575l2.3646-0.0567c0.531-0.0299,0.9356,0,1.2344,0.0674
						c0.367,0.1195,0.6888,0.2804,0.9578,0.5762c0.2996,0.2804,0.4942,0.6138,0.6513,1.0329c0.1571,0.4,0.2467,0.9164,0.2467,1.5225
						c0.0153,0.5088-0.0222,0.9731-0.1494,1.3547c-0.1425,0.4636-0.3592,0.8566-0.658,1.1631
						c-0.2247,0.2168-0.5166,0.3893-0.8837,0.5279c-0.2919,0.082-0.6881,0.1494-1.1524,0.1831l-2.4464,0.0636L125.8291,140.7575z
						 M127.1386,141.8088l0.105,4.2495l0.9879-0.026c0.3592,0,0.6283-0.0376,0.7852-0.0636
						c0.1946-0.0743,0.3747-0.1647,0.5164-0.2919c0.1348-0.1303,0.2322-0.3364,0.3218-0.6398
						c0.0896-0.2728,0.105-0.6842,0.105-1.1631c-0.0153-0.4942-0.0751-0.8758-0.1647-1.1486
						c-0.0973-0.2621-0.2322-0.4789-0.3816-0.6176c-0.1724-0.1379-0.3739-0.2352-0.6214-0.2881
						c-0.1793-0.026-0.5387-0.0376-1.0696-0.026L127.1386,141.8088z"/>
					<path class="st0" d="M133.9028,146.9977l0.0973-6.4202l4.7592,0.0674l-0.0224,1.0965l-3.4716-0.0713l-0.023,1.4482
						l3.2325,0.0444l-0.0153,1.085l-3.2319-0.0598l-0.0452,1.7623l3.6066,0.0444v1.0742L133.9028,146.9977z"/>
					<path class="st0" d="M141.3636,147.1739l0.4482-6.4164l1.9232,0.1303l0.8681,4.464l1.4589-4.3031l1.9456,0.1387l-0.4492,6.4241
						l-1.2045-0.0896l0.3594-5.051l-1.639,4.9644l-1.2421-0.0896l-0.9047-5.1445l-0.3672,5.0433L141.3636,147.1739z"/>
					<path class="st0" d="M154.2033,148.3822l0.9655-6.3681l4.7138,0.7225l-0.1494,1.0811l-3.4342-0.5241l-0.2245,1.403
						l3.2097,0.4827l-0.1716,1.0773l-3.1883-0.4935l-0.2613,1.7317l3.5471,0.5463l-0.1649,1.0781L154.2033,148.3822z"/>
					<path class="st0" d="M165.3749,150.3354l1.4597-6.2823l2.0198,0.4682c0.7708,0.1755,1.2574,0.3249,1.4742,0.4375
						c0.3442,0.1946,0.5915,0.4567,0.7632,0.8268c0.1647,0.3701,0.2023,0.816,0.0751,1.298
						c-0.0896,0.4084-0.2245,0.7111-0.4337,0.9317c-0.2099,0.236-0.4191,0.3931-0.6666,0.4904
						c-0.2467,0.105-0.4858,0.1571-0.7179,0.1456c-0.3142,0-0.741-0.0858-1.3248-0.213l-0.8229-0.187l-0.5387,2.383
						L165.3749,150.3354z M167.8666,145.4039l-0.4337,1.7884l0.6959,0.1532c0.5086,0.1195,0.8304,0.1609,1.0105,0.1463
						c0.187-0.0268,0.3517-0.1088,0.4858-0.2322c0.1205-0.1126,0.2099-0.2621,0.2398-0.4528
						c0.0521-0.213,0.0299-0.4191-0.0598-0.6061c-0.1203-0.1946-0.2544-0.318-0.4567-0.3969
						c-0.1425-0.0598-0.4268-0.1571-0.8758-0.2575L167.8666,145.4039z"/>
					<path class="st0" d="M172.6709,152.0824l1.796-6.1995l2.6115,0.767c0.6657,0.1908,1.1223,0.3778,1.3836,0.5647
						c0.2697,0.2061,0.472,0.4682,0.5616,0.8084c0.082,0.3402,0.082,0.685-0.0153,1.0513
						c-0.1341,0.4643-0.3816,0.8229-0.7333,1.0329c-0.3517,0.2283-0.8153,0.3065-1.3838,0.2283
						c0.2168,0.2276,0.4115,0.4597,0.5233,0.7065c0.105,0.2322,0.2475,0.6551,0.4046,1.2091l0.4191,1.4175l-1.474-0.4268
						l-0.532-1.5968c-0.1716-0.5762-0.3065-0.9432-0.3961-1.1118c-0.0827-0.1456-0.1801-0.2766-0.2996-0.3555
						c-0.1272-0.0966-0.3142-0.1755-0.6138-0.2544l-0.2544-0.0705l-0.7333,2.5853L172.6709,152.0824z M174.9604,148.8719
						l0.9133,0.2544c0.5908,0.1686,1.0099,0.2544,1.1516,0.2437c0.1425-0.0077,0.2919-0.0598,0.4046-0.1502
						c0.1418-0.0935,0.2168-0.2429,0.2621-0.4375c0.0674-0.1985,0.0598-0.3854-0.023-0.5502
						c-0.0674-0.1571-0.1946-0.2881-0.3961-0.3739c-0.105-0.0375-0.3892-0.131-0.898-0.2804l-0.9655-0.2735L174.9604,148.8719z"/>
					<path class="st0" d="M181.0511,151.2295c0.1879-0.6061,0.4643-1.1041,0.7938-1.4704c0.2613-0.2621,0.531-0.4643,0.8605-0.6329
						c0.3141-0.1678,0.6582-0.2544,0.9723-0.2804c0.4413-0.0184,0.8904,0.0559,1.4145,0.2138
						c0.875,0.3103,1.4964,0.8375,1.8259,1.5746c0.344,0.7563,0.344,1.6167,0.0146,2.6006c-0.3295,0.98-0.8681,1.6535-1.5861,2.0274
						c-0.7333,0.3594-1.5493,0.4046-2.4397,0.0897c-0.9049-0.3142-1.5187-0.8306-1.8405-1.5639
						C180.6994,153.044,180.6994,152.1904,181.0511,151.2295z M182.3085,151.6257c-0.2322,0.6812-0.262,1.2574-0.0521,1.7133
						c0.187,0.4643,0.5387,0.7969,1.0252,0.9731c0.4936,0.1647,0.9425,0.1195,1.3761-0.1157
						c0.4567-0.2513,0.7785-0.7149,1.0254-1.4183c0.2396-0.6957,0.2841-1.2719,0.0749-1.7209
						c-0.1793-0.449-0.5164-0.7555-1.025-0.9501c-0.509-0.1571-0.9802-0.131-1.3993,0.0973
						C182.877,150.4587,182.5483,150.9299,182.3085,151.6257z"/>
					<path class="st0" d="M191.894,156.115l0.4115-1.0022l2.5668,1.0666l-0.9356,2.3638c-0.3594,0.1463-0.816,0.1877-1.3624,0.1877
						c-0.5532-0.0077-1.0773-0.1203-1.5784-0.3034c-0.6283-0.269-1.1072-0.6099-1.474-1.0628
						c-0.3519-0.4413-0.5542-0.9724-0.5764-1.5524c-0.0376-0.58,0.0674-1.1601,0.3141-1.7286
						c0.2322-0.6207,0.6138-1.1294,1.0628-1.4888c0.4638-0.3854,0.9877-0.5915,1.5938-0.636
						c0.4643-0.0414,0.98,0.0444,1.5493,0.2919c0.7256,0.2988,1.2344,0.6766,1.534,1.167c0.2845,0.4904,0.3739,1.0137,0.2615,1.6198
						l-1.2643-0.2728c0.0374-0.3333-0.0153-0.6291-0.1795-0.8904c-0.1647-0.262-0.4344-0.4827-0.7639-0.6137
						c-0.5387-0.2168-1.0321-0.2168-1.4666-0.0192c-0.449,0.2214-0.8005,0.6475-1.085,1.2873
						c-0.2766,0.7256-0.3362,1.3095-0.1793,1.7999c0.1793,0.4751,0.5241,0.8153,1.0252,1.0359
						c0.2391,0.1011,0.5233,0.1571,0.8306,0.1571c0.2843,0,0.5465-0.026,0.7708-0.0896l0.3218-0.7593L191.894,156.115z"/>
					<path class="st0" d="M196.024,160.4626l2.776-5.7912l2.4695,1.167c0.636,0.3073,1.0628,0.5578,1.2719,0.7969
						c0.2621,0.2437,0.3818,0.5241,0.4268,0.8865c0.0299,0.3371-0.0153,0.6888-0.187,1.0252
						c-0.2099,0.4452-0.494,0.7371-0.8904,0.9133c-0.4046,0.1418-0.8756,0.1418-1.4068-0.0191
						c0.1716,0.2582,0.3141,0.5241,0.3892,0.7747c0.082,0.262,0.1573,0.685,0.2245,1.2535l0.1571,1.4811l-1.4068-0.6582
						l-0.2398-1.6727c-0.0896-0.5946-0.1494-0.9877-0.2092-1.1524c-0.0529-0.1678-0.1348-0.2988-0.2245-0.4184
						c-0.1126-0.0973-0.3073-0.2023-0.5685-0.3333l-0.2475-0.1234l-1.1524,2.4282L196.024,160.4626z M198.8,157.672l0.8758,0.4191
						c0.5839,0.2613,0.9356,0.4115,1.0773,0.426c0.1724,0.0077,0.3073,0,0.449-0.0896c0.135-0.0751,0.2544-0.1985,0.3295-0.3739
						c0.0973-0.2099,0.1274-0.3816,0.0751-0.5578c-0.0299-0.1755-0.1502-0.3257-0.3371-0.4299
						c-0.082-0.0636-0.3816-0.1946-0.8382-0.4306l-0.9279-0.4375L198.8,157.672z"/>
					<path class="st0" d="M203.1476,163.9275l3.0534-5.6456l4.1897,2.2711l-0.5233,0.9425l-3.0534-1.6458l-0.6802,1.2719
						l2.8433,1.511l-0.5088,0.9731l-2.8435-1.5493l-0.8306,1.5493l3.15,1.6987l-0.5011,0.9578L203.1476,163.9275z"/>
					<path class="st0" d="M210.4513,165.5695l1.1371,0.5318c-0.1571,0.4115-0.187,0.7555-0.0827,1.0589
						c0.0827,0.2843,0.3073,0.5456,0.6214,0.7333c0.3741,0.2207,0.6959,0.3065,0.9654,0.2728
						c0.2766-0.0521,0.4636-0.1532,0.5984-0.3594c0.0674-0.131,0.0898-0.262,0.0822-0.4191
						c-0.0147-0.1195-0.1197-0.2804-0.2546-0.4712c-0.0896-0.131-0.3517-0.3854-0.7402-0.7854
						c-0.5241-0.5049-0.8237-0.9317-0.9279-1.2873c-0.1571-0.5164-0.0973-0.9915,0.1647-1.4214
						c0.1718-0.2843,0.3961-0.5019,0.7103-0.6398c0.3073-0.1502,0.6436-0.1946,1.0329-0.1502
						c0.3739,0.0567,0.7708,0.2176,1.2045,0.4643c0.6957,0.4299,1.1149,0.8904,1.265,1.4068
						c0.1793,0.5088,0.1121,1.0214-0.1724,1.5524l-1.1447-0.6283c0.1195-0.3141,0.1419-0.5724,0.0598-0.8045
						c-0.0751-0.2061-0.2697-0.4191-0.5984-0.6138c-0.3218-0.1831-0.599-0.2728-0.8681-0.2582
						c-0.1647,0.0191-0.3065,0.1011-0.3816,0.236c-0.0751,0.131-0.0896,0.2881-0.0299,0.4375
						c0.0743,0.1985,0.3364,0.5241,0.793,0.9838c0.4712,0.449,0.7708,0.8237,0.9501,1.1149c0.1724,0.2958,0.262,0.6138,0.262,0.9317
						c0.0153,0.3371-0.0973,0.659-0.2919,1.0145c-0.2092,0.3065-0.4567,0.557-0.8007,0.7333
						c-0.3594,0.1678-0.7256,0.2054-1.1371,0.1494c-0.3739-0.049-0.8229-0.2245-1.3093-0.5241
						c-0.666-0.4115-1.1074-0.9049-1.2796-1.4474C210.0842,166.8192,210.144,166.2169,210.4513,165.5695z"/>
					<path class="st0" d="M216.886,169.5393l1.1225,0.6061c-0.1724,0.3931-0.2099,0.7409-0.1494,1.0367
						c0.0965,0.295,0.2843,0.5609,0.636,0.767c0.3364,0.2467,0.6505,0.3364,0.9279,0.318c0.2613-0.0376,0.4789-0.1425,0.613-0.3517
						c0.0751-0.1241,0.1126-0.2437,0.0896-0.3747c-0.0146-0.1418-0.0896-0.3218-0.2237-0.5088
						c-0.0973-0.1195-0.3218-0.3816-0.6963-0.8007c-0.4936-0.5348-0.7932-0.9838-0.8676-1.3501
						c-0.1203-0.5241-0.0529-0.9877,0.2316-1.4068c0.1722-0.2621,0.4343-0.4789,0.7484-0.6176
						c0.3218-0.1272,0.6582-0.1571,1.0398-0.082c0.3594,0.0705,0.7409,0.2613,1.1524,0.5195
						c0.6513,0.4528,1.0773,0.9509,1.1976,1.4704c0.1494,0.5279,0.0598,1.0513-0.2544,1.5378l-1.0926-0.6773
						c0.1417-0.3065,0.1793-0.5685,0.0898-0.7969c-0.06-0.2207-0.2469-0.426-0.5542-0.6436
						c-0.3141-0.2015-0.5831-0.3065-0.8452-0.2988c-0.1801,0-0.2919,0.082-0.4115,0.2015
						c-0.0751,0.1425-0.0828,0.2697-0.0452,0.4344c0.0452,0.2168,0.3073,0.5685,0.7486,1.0329
						c0.4337,0.4819,0.7402,0.8674,0.8827,1.1593c0.1647,0.3073,0.24,0.6252,0.2247,0.9394
						c-0.0153,0.3402-0.1274,0.6658-0.3519,1.0022c-0.2092,0.3149-0.4866,0.5318-0.8452,0.6812
						c-0.3517,0.1494-0.6965,0.1946-1.0926,0.1157c-0.4191-0.0896-0.8536-0.2804-1.3018-0.6022
						c-0.6888-0.4529-1.1003-0.9463-1.2497-1.511C216.4523,170.7814,216.5566,170.1714,216.886,169.5393z"/>
					<path class="st0" d="M223.815,172.9812c0.3892-0.5164,0.8154-0.9018,1.2275-1.1332c0.3065-0.1762,0.6505-0.2996,1.0099-0.3517
						c0.3663-0.0414,0.6957-0.0299,1.0175,0.0444c0.4268,0.1012,0.8459,0.3218,1.2719,0.6398
						c0.7333,0.5724,1.1524,1.2536,1.265,2.0688c0.1042,0.8237-0.1646,1.6466-0.8082,2.4772
						c-0.6139,0.8268-1.3097,1.3056-2.1326,1.429c-0.8084,0.1195-1.5869-0.082-2.3345-0.662
						c-0.771-0.5839-1.1978-1.2681-1.302-2.0803C222.9392,174.6202,223.1936,173.8011,223.815,172.9812z M224.9077,173.752
						c-0.4413,0.58-0.6513,1.1302-0.5913,1.6351c0.045,0.5088,0.2619,0.9019,0.6886,1.2198
						c0.4038,0.3027,0.8528,0.4153,1.3539,0.3141c0.4789-0.0858,0.9578-0.4452,1.4145-1.0252
						c0.4337-0.5877,0.6436-1.1302,0.5984-1.6052c-0.0299-0.4896-0.2689-0.8827-0.6881-1.2083
						c-0.4268-0.3295-0.8904-0.4528-1.3692-0.3632C225.8356,172.8203,225.349,173.1574,224.9077,173.752z"/>
				</g>
				<polygon class="st3" points="188.3694,142.5344 188.9977,144.3979 190.9508,144.3979 189.3647,145.5464 189.9631,147.4015 
					188.3694,146.2682 186.7909,147.4015 187.4039,145.5464 185.8477,144.3979 187.7855,144.3979 				"/>
				<polygon class="st3" points="167.7624,195.6692 168.3907,197.5212 170.314,197.5212 168.7648,198.6621 169.3485,200.5286 
					167.7624,199.38 166.2056,200.5286 166.8115,198.6621 165.2178,197.5212 167.1634,197.5212 				"/>
				<polygon class="st3" points="214.432,189.1364 215.0526,191.0297 217.0431,191.0297 215.4417,192.1859 216.0555,194.0824 
					214.432,192.9154 212.8459,194.0824 213.4589,192.1859 211.8504,191.0297 213.8181,191.0297 				"/>
				<polygon class="st3" points="223.6426,190.7041 224.0395,191.8978 225.3115,191.8978 224.2786,192.6533 224.6908,193.8655 
					223.6426,193.1246 222.6174,193.8655 223.022,192.6533 222.0044,191.8978 223.2687,191.8978 				"/>
				<polygon class="st3" points="217.1029,195.4072 217.6492,197.0385 219.3778,197.0385 217.971,198.0522 218.5097,199.6942 
					217.1029,198.6728 215.7116,199.6942 216.2577,198.0522 214.8509,197.0385 216.5864,197.0385 				"/>
				<polygon class="st3" points="213.0028,200.8359 213.5338,202.4442 215.2249,202.4442 213.8556,203.4357 214.372,205.0524 
					213.0028,204.0533 211.6481,205.0524 212.1645,203.4357 210.7876,202.4442 212.494,202.4442 				"/>
				<polygon class="st3" points="207.7275,204.7682 208.1388,206.0025 209.4329,206.0025 208.3855,206.7772 208.8046,208.0269 
					207.7275,207.2484 206.6799,208.0269 207.0762,206.7772 206.0286,206.0025 207.3235,206.0025 				"/>
				<polygon class="st3" points="200.8205,203.4357 201.232,204.6593 202.5193,204.6593 201.4718,205.4149 201.868,206.6569 
					200.8205,205.8976 199.7808,206.6569 200.1769,205.4149 199.1371,204.6593 200.4313,204.6593 				"/>
				<polygon class="st3" points="193.3828,205.6846 193.8019,207.0354 195.1566,207.0354 194.0785,207.843 194.4976,209.1678 
					193.3828,208.3518 192.2457,209.1678 192.6717,207.843 191.55,207.0354 192.9414,207.0354 				"/>
				<polygon class="st3" points="200.9401,216.5566 201.3372,217.8024 202.6687,217.8024 201.599,218.5625 202.0182,219.823 
					200.9401,219.0445 199.8781,219.823 200.2742,218.5625 199.2191,217.8024 200.5363,217.8024 				"/>
				<polygon class="st3" points="187.5089,210.8252 188.0629,212.5201 189.8361,212.5201 188.3992,213.5713 188.9456,215.2662 
					187.5089,214.2035 186.0799,215.2662 186.6109,213.5713 185.1972,212.5201 186.9551,212.5201 				"/>
				<polygon class="st3" points="182.3683,203.9675 182.795,205.2578 184.1566,205.2578 183.0571,206.0585 183.4688,207.3534 
					182.3683,206.5596 181.2687,207.3534 181.6725,206.0585 180.5877,205.2578 181.9491,205.2578 				"/>
				<polygon class="st3" points="201.1646,209.3625 201.6963,210.9899 203.4096,210.9899 202.0251,212.0036 202.5415,213.6426 
					201.1646,212.6358 199.7511,213.6426 200.2896,212.0036 198.8973,210.9899 200.619,210.9899 				"/>
				<polygon class="st3" points="167.695,219.9203 167.8896,220.5111 168.5026,220.5111 168.0168,220.8781 168.1884,221.4727 
					167.695,221.1064 167.2008,221.4727 167.3808,220.8781 166.8866,220.5111 167.5149,220.5111 				"/>
				<polygon class="st3" points="185.1366,162.5467 185.5788,163.9014 186.9924,163.9014 185.863,164.7282 186.289,166.0752 
					185.1366,165.2515 183.9996,166.0752 184.4409,164.7282 183.2962,163.9014 184.703,163.9014 				"/>
				<polygon class="st3" points="167.7394,177.0407 168.1961,178.4697 169.6849,178.4697 168.4881,179.3378 168.9371,180.7745 
					167.7394,179.8803 166.5351,180.7745 166.9993,179.3378 165.7871,178.4697 167.2981,178.4697 				"/>
				<polygon class="st3" points="175.4546,183.0195 175.9557,184.5382 177.5495,184.5382 176.2775,185.4853 176.771,187.0116 
					175.4546,186.0576 174.175,187.0116 174.6615,185.4853 173.3521,184.5382 174.968,184.5382 				"/>
				<polygon class="st3" points="161.0426,183.2211 161.4321,184.4225 162.6892,184.4225 161.664,185.1673 162.068,186.3756 
					161.0426,185.6194 160.0174,186.3756 160.422,185.1673 159.3968,184.4225 160.6534,184.4225 				"/>
				<polygon class="st3" points="164.2531,188.6429 164.5144,189.462 165.345,189.462 164.6646,189.9409 164.926,190.7416 
					164.2531,190.2405 163.5643,190.7416 163.8263,189.9409 163.1451,189.462 163.9759,189.462 				"/>
				<polygon class="st3" points="113.1534,153.9941 113.7672,155.8645 115.7272,155.8645 114.1411,157.0023 114.7548,158.8612 
					113.1534,157.7019 111.5819,158.8612 112.1811,157.0023 110.5942,155.8645 112.5473,155.8645 				"/>
				<polygon class="st3" points="141.9392,168.9256 142.4332,170.4519 144.0347,170.4519 142.7328,171.3989 143.2265,172.9368 
					141.9392,171.9935 140.6227,172.9368 141.146,171.3989 139.8296,170.4519 141.4532,170.4519 				"/>
				<polygon class="st3" points="119.1101,181.9269 119.723,183.7827 121.6838,183.7827 120.0824,184.9573 120.6961,186.8131 
					119.1101,185.6569 117.5155,186.8131 118.1216,184.9573 116.5654,183.7827 118.504,183.7827 				"/>
				<polygon class="st3" points="125.5824,179.1432 125.8889,180.0903 126.8543,180.0903 126.0613,180.6588 126.3678,181.5905 
					125.5824,181.0251 124.8116,181.5905 125.1035,180.6588 124.3104,180.0903 125.2904,180.0903 				"/>
				<polygon class="st3" points="133.0876,188.931 133.581,190.5171 135.2424,190.5171 133.9028,191.4864 134.4193,193.0801 
					133.0876,192.0848 131.7183,193.0801 132.2271,191.4864 130.8801,190.5171 132.5489,190.5171 				"/>
				<polygon class="st3" points="140.9069,201.1615 141.4908,203.0204 143.4431,203.0204 141.8869,204.1621 142.4785,206.0025 
					140.9069,204.8655 139.3277,206.0025 139.9269,204.1621 138.3401,203.0204 140.3008,203.0204 				"/>
				<polygon class="st3" points="130.9023,195.5719 131.4342,197.1358 133.0952,197.1358 131.7407,198.1342 132.2646,199.7057 
					130.9023,198.7334 129.5629,199.7057 130.087,198.1342 128.7323,197.1358 130.3858,197.1358 				"/>
				<polygon class="st3" points="110.8639,188.6988 111.2677,189.9148 112.5626,189.9148 111.5144,190.6742 111.919,191.8978 
					110.8639,191.1531 109.8165,191.8978 110.2126,190.6742 109.1575,189.9148 110.4524,189.9148 				"/>
			</g>
		</g>
	</g>
</g>
</svg>
