<?xml version="1.0" encoding="utf-8"?>
<!-- Generator: Adobe Illustrator 21.1.0, SVG Export Plug-In . SVG Version: 6.00 Build 0)  -->
<svg version="1.1" id="Layer_1" xmlns="http://www.w3.org/2000/svg" xmlns:xlink="http://www.w3.org/1999/xlink" x="0px" y="0px"
	 viewBox="0 0 60 60" style="enable-background:new 0 0 60 60;" xml:space="preserve">
<style type="text/css">
	.st0{fill:#75AADB;}
	.st1{fill:#FFFFFF;}
</style>
<g>
	<g>
		<path class="st0" d="M30.0027,60c13.9378,0,25.6202-9.5186,28.9895-22.4018H1.0105C4.3783,50.4814,16.0647,60,30.0027,60z"/>
		<path class="st0" d="M30.0027,0C16.0647,0,4.3783,9.5193,1.0105,22.4011h57.9817C55.6229,9.5193,43.9405,0,30.0027,0z"/>
		<path class="st1" d="M1.0105,37.5982h57.9817c0.2185-0.831,0.4033-1.6733,0.5509-2.531H0.4596
			C0.6071,35.9249,0.792,36.7673,1.0105,37.5982z"/>
		<path class="st1" d="M59.543,24.934c-0.1476-0.859-0.3324-1.702-0.5509-2.5329H1.0105c-0.2185,0.831-0.4033,1.674-0.5509,2.5329
			H59.543z"/>
		<path d="M0,30.0001c0,1.7308,0.1795,3.416,0.4596,5.0671H59.543C59.8231,33.4161,60,31.7309,60,30.0001
			c0-1.7309-0.1769-3.4176-0.457-5.066H0.4596C0.1795,26.5825,0,28.2691,0,30.0001z"/>
	</g>
</g>
</svg>
