<?xml version="1.0" encoding="utf-8"?>
<!-- Generator: Adobe Illustrator 21.1.0, SVG Export Plug-In . SVG Version: 6.00 Build 0)  -->
<svg version="1.1" id="Layer_1" xmlns="http://www.w3.org/2000/svg" xmlns:xlink="http://www.w3.org/1999/xlink" x="0px" y="0px"
	 viewBox="0 0 60 60" style="enable-background:new 0 0 60 60;" xml:space="preserve">
<style type="text/css">
	.st0{clip-path:url(#SVGID_2_);}
	.st1{fill:#C8313E;}
	.st2{fill:#4AA657;}
	.st3{fill:#FFFFFF;}
</style>
<g>
	<defs>
		<circle id="SVGID_1_" cx="30" cy="30" r="30"/>
	</defs>
	<clipPath id="SVGID_2_">
		<use xlink:href="#SVGID_1_"  style="overflow:visible;"/>
	</clipPath>
	<g class="st0">
		<rect class="st1" width="120" height="60"/>
		<rect y="40" class="st2" width="120" height="20"/>
		<rect class="st3" width="13.3333" height="60"/>
		<g>
			<polygon class="st1" points="0.5797,12.7869 1.1594,12.7869 1.1594,13.7705 1.7391,13.7705 1.7391,12.7869 2.3188,12.7869 
				2.3188,11.8033 2.8986,11.8033 2.8986,10.8197 2.3188,10.8197 2.3188,9.8361 1.7391,9.8361 1.7391,8.8525 1.1594,8.8525 
				1.1594,9.8361 0.5797,9.8361 0.5797,10.8197 0,10.8197 0,11.8033 0.5797,11.8033 			"/>
			<rect y="6.8853" class="st1" width="0.5797" height="0.9836"/>
			<rect y="14.7541" class="st1" width="0.5797" height="0.9836"/>
			<polygon class="st1" points="0.5797,5.9016 1.1594,5.9016 1.1594,6.8853 1.7391,6.8853 1.7391,7.8688 2.3188,7.8688 
				2.3188,8.8525 2.8986,8.8525 2.8986,9.8361 3.4783,9.8361 3.4783,8.8525 4.058,8.8525 4.058,7.8688 4.6377,7.8688 4.6377,6.8853 
				5.2174,6.8853 5.2174,5.9016 5.7971,5.9016 5.7971,4.918 6.3768,4.918 6.3768,3.9344 5.7971,3.9344 5.7971,2.9508 5.2174,2.9508 
				5.2174,1.9672 4.6377,1.9672 4.6377,0.9836 4.058,0.9836 4.058,0 2.3188,0 2.3188,0.9836 1.7391,0.9836 1.7391,1.9672 
				1.1594,1.9672 1.1594,2.9508 0.5797,2.9508 0.5797,3.9344 0,3.9344 0,4.918 0.5797,4.918 			"/>
			<rect y="0.9836" class="st1" width="0.5797" height="0.9836"/>
			<polygon class="st1" points="5.2174,13.7705 5.2174,12.7869 5.7971,12.7869 5.7971,11.8033 6.3768,11.8033 6.3768,10.8197 
				5.7971,10.8197 5.7971,9.8361 5.2174,9.8361 5.2174,8.8525 4.6377,8.8525 4.6377,9.8361 4.058,9.8361 4.058,10.8197 
				3.4783,10.8197 3.4783,11.8033 4.058,11.8033 4.058,12.7869 4.6377,12.7869 4.6377,13.7705 			"/>
			<rect y="21.6393" class="st1" width="0.5797" height="0.9836"/>
			<polygon class="st1" points="4.058,29.9016 4.058,30.0984 4.058,30.4918 4.6377,30.4918 4.6377,30.0984 4.6377,29.9016 
				4.6377,29.5082 4.058,29.5082 			"/>
			<polygon class="st1" points="8.116,8.8525 8.116,9.8361 7.5363,9.8361 7.5363,10.8197 6.9565,10.8197 6.9565,11.8033 
				7.5363,11.8033 7.5363,12.7869 8.116,12.7869 8.116,13.7705 8.6957,13.7705 8.6957,12.7869 9.2754,12.7869 9.2754,11.8033 
				9.8551,11.8033 9.8551,10.8197 9.2754,10.8197 9.2754,9.8361 8.6957,9.8361 8.6957,8.8525 			"/>
			<rect x="12.7536" y="14.7541" class="st1" width="0.5797" height="0.9836"/>
			<polygon class="st1" points="12.7536,2.9508 12.1739,2.9508 12.1739,1.9672 11.5942,1.9672 11.5942,0.9836 11.0145,0.9836 
				11.0145,0 9.2754,0 9.2754,0.9836 8.6957,0.9836 8.6957,1.9672 8.116,1.9672 8.116,2.9508 7.5363,2.9508 7.5363,3.9344 
				6.9565,3.9344 6.9565,4.918 7.5363,4.918 7.5363,5.9016 8.116,5.9016 8.116,6.8853 8.6957,6.8853 8.6957,7.8688 9.2754,7.8688 
				9.2754,8.8525 9.8551,8.8525 9.8551,9.8361 10.4348,9.8361 10.4348,8.8525 11.0145,8.8525 11.0145,7.8688 11.5942,7.8688 
				11.5942,6.8853 12.1739,6.8853 12.1739,5.9016 12.7536,5.9016 12.7536,4.918 13.3333,4.918 13.3333,3.9344 12.7536,3.9344 			"/>
			<polygon class="st1" points="12.7536,9.8361 12.1739,9.8361 12.1739,8.8525 11.5942,8.8525 11.5942,9.8361 11.0145,9.8361 
				11.0145,10.8197 10.4348,10.8197 10.4348,11.8033 11.0145,11.8033 11.0145,12.7869 11.5942,12.7869 11.5942,13.7705 
				12.1739,13.7705 12.1739,12.7869 12.7536,12.7869 12.7536,11.8033 13.3333,11.8033 13.3333,10.8197 12.7536,10.8197 			"/>
			<rect x="12.7536" y="0.9836" class="st1" width="0.5797" height="0.9836"/>
			<rect x="12.7536" y="6.8853" class="st1" width="0.5797" height="0.9836"/>
			<polygon class="st1" points="6.7246,15.7377 6.9565,15.7377 6.9565,13.7705 6.7246,13.7705 6.6087,13.7705 6.3768,13.7705 
				6.3768,15.7377 6.6087,15.7377 			"/>
			<polygon class="st1" points="6.7246,1.9672 6.9565,1.9672 6.9565,0 6.7246,0 6.6087,0 6.3768,0 6.3768,1.9672 6.6087,1.9672 			
				"/>
			<polygon class="st1" points="6.6087,6.8853 6.3768,6.8853 6.3768,8.8525 6.6087,8.8525 6.7246,8.8525 6.9565,8.8525 
				6.9565,6.8853 6.7246,6.8853 			"/>
			<polygon class="st1" points="7.5363,27.541 6.9565,27.541 6.9565,28.5246 6.7246,28.5246 6.6087,28.5246 6.3768,28.5246 
				6.3768,27.541 5.7971,27.541 5.7971,26.5574 5.2174,26.5574 5.2174,28.5246 5.7971,28.5246 5.7971,29.5082 6.3768,29.5082 
				6.3768,29.9016 6.3768,30.0984 6.3768,30.4918 5.7971,30.4918 5.7971,31.4754 5.2174,31.4754 5.2174,33.4426 5.7971,33.4426 
				5.7971,32.459 6.3768,32.459 6.3768,31.4754 6.6087,31.4754 6.7246,31.4754 6.9565,31.4754 6.9565,32.459 7.5363,32.459 
				7.5363,33.4426 8.116,33.4426 8.116,31.4754 7.5363,31.4754 7.5363,30.4918 6.9565,30.4918 6.9565,30.0984 6.9565,29.9016 
				6.9565,29.5082 7.5363,29.5082 7.5363,28.5246 8.116,28.5246 8.116,26.5574 7.5363,26.5574 			"/>
			<rect x="12.7536" y="21.6393" class="st1" width="0.5797" height="0.9836"/>
			<path class="st1" d="M12.7536,16.7213h-0.5797v-0.9836h-0.5797v-0.9836h-0.5797v-0.9836h-0.5797v-0.9836H9.8551v0.9836H9.2754
				v0.9836H8.6957v0.9836H8.116v0.9836H7.5363v0.9836H6.9565v0.9836H6.7246H6.6087H6.3768v-0.9836H5.7971v-0.9836H5.2174v-0.9836
				H4.6377v-0.9836H4.058v-0.9836H3.4783v-0.9836H2.8986v0.9836H2.3188v0.9836H1.7391v0.9836H1.1594v0.9836H0.5797v0.9836H0v1.9672
				h0.5797v0.9836h0.5797v0.9836h0.5797v0.9836h0.5797v-0.9836h0.5797v-0.9836h0.5797v-0.9836H2.3188v-0.9836H4.058v0.9836h0.5797
				v0.9836h0.5797v0.9836H4.6377v0.9836H4.058v0.9836H3.4783v0.9836H2.8986v0.9836H2.3188v0.9836H1.7391v-0.9836H1.1594v-0.9836
				H0.5797v-0.9836H0v2.9508h0.5797v0.9836h0.5797v0.9836h0.5797v0.9836h0.5797v0.3934v0.1968v0.3934H1.7391v0.9836H1.1594v0.9836
				H0.5797v0.9836H0v2.9508h0.5797v-0.9836h0.5797v-0.9836h0.5797v-0.9836h0.5797v0.9836h0.5797v0.9836h0.5797v0.9836H4.058v0.9836
				h0.5797v0.9836h0.5797v0.9836H4.6377v0.9836H4.058v0.9836H2.3188v-0.9836h1.1594v-0.9836H2.8986v-0.9836H2.3188v-0.9836H1.7391
				v0.9836H1.1594v0.9836H0.5797v0.9836H0v1.9672h0.5797v0.9836h0.5797v0.9836h0.5797v0.9836h0.5797v0.9836h0.5797v0.9836h0.5797
				v-0.9836H4.058v-0.9836h0.5797v-0.9836h0.5797v-0.9836h0.5797v-0.9836h0.5797v-0.9836h0.2319h0.1159h0.2319v0.9836h0.5797v0.9836
				H8.116v0.9836h0.5797v0.9836h0.5797v0.9836h0.5797v0.9836h0.5797v-0.9836h0.5797v-0.9836h0.5797v-0.9836h0.5797v-0.9836h0.5797
				v-0.9836h0.5797v-1.9672h-0.5797v-0.9836h-0.5797v-0.9836h-0.5797v-0.9836h-0.5797v0.9836h-0.5797v0.9836H9.8551v0.9836h1.1594
				v0.9836H9.2754v-0.9836H8.6957v-0.9836H8.116v-0.9836h0.5797v-0.9836h0.5797v-0.9836h0.5797v-0.9836h0.5797v-0.9836h0.5797
				v-0.9836h0.5797v0.9836h0.5797v0.9836h0.5797v0.9836h0.5797v-2.9508h-0.5797V32.459h-0.5797v-0.9836h-0.5797v-0.9836h-0.5797
				v-0.3934v-0.1968v-0.3934h0.5797v-0.9836h0.5797V27.541h0.5797v-0.9836h0.5797v-2.9508h-0.5797v0.9836h-0.5797v0.9836h-0.5797
				v0.9836h-0.5797v-0.9836h-0.5797v-0.9836H9.8551v-0.9836H9.2754v-0.9836H8.6957v-0.9836H8.116v-0.9836h0.5797v-0.9836h0.5797
				v-0.9836h1.7391v0.9836H9.8551v0.9836h0.5797v0.9836h0.5797v0.9836h0.5797v-0.9836h0.5797v-0.9836h0.5797v-0.9836h0.5797v-1.9672
				h-0.5797V16.7213z M8.6957,25.5738v0.9836h0.5797v0.9836h0.5797v2.3607v0.1968v2.3607H9.2754v0.9836H8.6957v0.9836H8.116v0.9836
				H7.5363v0.9836H6.9565v0.9836H6.7246H6.6087H6.3768v-0.9836H5.7971v-0.9836H5.2174v-0.9836H4.6377v-0.9836H4.058V32.459H3.4783
				v-2.3607v-0.1968V27.541H4.058v-0.9836h0.5797v-0.9836h0.5797v-0.9836h0.5797v-0.9836h0.5797v-0.9836h0.2319h0.1159h0.2319
				v0.9836h0.5797v0.9836H8.116v0.9836H8.6957z"/>
			<polygon class="st1" points="6.7246,25.5738 6.9565,25.5738 6.9565,24.5901 6.7246,24.5901 6.6087,24.5901 6.3768,24.5901 
				6.3768,25.5738 6.6087,25.5738 			"/>
			<rect y="44.2623" class="st1" width="0.5797" height="0.9836"/>
			<rect y="52.1312" class="st1" width="0.5797" height="0.9836"/>
			<polygon class="st1" points="0.5797,50.1639 1.1594,50.1639 1.1594,51.1475 1.7391,51.1475 1.7391,50.1639 2.3188,50.1639 
				2.3188,49.1803 2.8986,49.1803 2.8986,48.1967 2.3188,48.1967 2.3188,47.2131 1.7391,47.2131 1.7391,46.2295 1.1594,46.2295 
				1.1594,47.2131 0.5797,47.2131 0.5797,48.1967 0,48.1967 0,49.1803 0.5797,49.1803 			"/>
			<polygon class="st1" points="6.3768,55.082 5.7971,55.082 5.7971,54.0984 5.2174,54.0984 5.2174,53.1147 4.6377,53.1147 
				4.6377,52.1312 4.058,52.1312 4.058,51.1475 3.4783,51.1475 3.4783,50.1639 2.8986,50.1639 2.8986,51.1475 2.3188,51.1475 
				2.3188,52.1312 1.7391,52.1312 1.7391,53.1147 1.1594,53.1147 1.1594,54.0984 0.5797,54.0984 0.5797,55.082 0,55.082 0,56.0656 
				0.5797,56.0656 0.5797,57.0492 1.1594,57.0492 1.1594,58.0328 1.7391,58.0328 1.7391,59.0164 2.3188,59.0164 2.3188,60 4.058,60 
				4.058,59.0164 4.6377,59.0164 4.6377,58.0328 5.2174,58.0328 5.2174,57.0492 5.7971,57.0492 5.7971,56.0656 6.3768,56.0656 			
				"/>
			<rect y="58.0328" class="st1" width="0.5797" height="0.9836"/>
			<polygon class="st1" points="6.3768,53.1147 6.6087,53.1147 6.7246,53.1147 6.9565,53.1147 6.9565,51.1475 6.7246,51.1475 
				6.6087,51.1475 6.3768,51.1475 			"/>
			<polygon class="st1" points="4.6377,46.2295 4.6377,47.2131 4.058,47.2131 4.058,48.1967 3.4783,48.1967 3.4783,49.1803 
				4.058,49.1803 4.058,50.1639 4.6377,50.1639 4.6377,51.1475 5.2174,51.1475 5.2174,50.1639 5.7971,50.1639 5.7971,49.1803 
				6.3768,49.1803 6.3768,48.1967 5.7971,48.1967 5.7971,47.2131 5.2174,47.2131 5.2174,46.2295 			"/>
			<rect y="37.3771" class="st1" width="0.5797" height="0.9836"/>
			<polygon class="st1" points="8.116,46.2295 8.116,47.2131 7.5363,47.2131 7.5363,48.1967 6.9565,48.1967 6.9565,49.1803 
				7.5363,49.1803 7.5363,50.1639 8.116,50.1639 8.116,51.1475 8.6957,51.1475 8.6957,50.1639 9.2754,50.1639 9.2754,49.1803 
				9.8551,49.1803 9.8551,48.1967 9.2754,48.1967 9.2754,47.2131 8.6957,47.2131 8.6957,46.2295 			"/>
			<rect x="12.7536" y="58.0328" class="st1" width="0.5797" height="0.9836"/>
			<polygon class="st1" points="12.7536,54.0984 12.1739,54.0984 12.1739,53.1147 11.5942,53.1147 11.5942,52.1312 11.0145,52.1312 
				11.0145,51.1475 10.4348,51.1475 10.4348,50.1639 9.8551,50.1639 9.8551,51.1475 9.2754,51.1475 9.2754,52.1312 8.6957,52.1312 
				8.6957,53.1147 8.116,53.1147 8.116,54.0984 7.5363,54.0984 7.5363,55.082 6.9565,55.082 6.9565,56.0656 7.5363,56.0656 
				7.5363,57.0492 8.116,57.0492 8.116,58.0328 8.6957,58.0328 8.6957,59.0164 9.2754,59.0164 9.2754,60 11.0145,60 
				11.0145,59.0164 11.5942,59.0164 11.5942,58.0328 12.1739,58.0328 12.1739,57.0492 12.7536,57.0492 12.7536,56.0656 
				13.3333,56.0656 13.3333,55.082 12.7536,55.082 			"/>
			<rect x="12.7536" y="52.1312" class="st1" width="0.5797" height="0.9836"/>
			<polygon class="st1" points="12.7536,47.2131 12.1739,47.2131 12.1739,46.2295 11.5942,46.2295 11.5942,47.2131 11.0145,47.2131 
				11.0145,48.1967 10.4348,48.1967 10.4348,49.1803 11.0145,49.1803 11.0145,50.1639 11.5942,50.1639 11.5942,51.1475 
				12.1739,51.1475 12.1739,50.1639 12.7536,50.1639 12.7536,49.1803 13.3333,49.1803 13.3333,48.1967 12.7536,48.1967 			"/>
			<rect x="12.7536" y="44.2623" class="st1" width="0.5797" height="0.9836"/>
			<polygon class="st1" points="6.6087,58.0328 6.3768,58.0328 6.3768,60 6.6087,60 6.7246,60 6.9565,60 6.9565,58.0328 
				6.7246,58.0328 			"/>
			<polygon class="st1" points="6.6087,44.2623 6.3768,44.2623 6.3768,46.2295 6.6087,46.2295 6.7246,46.2295 6.9565,46.2295 
				6.9565,44.2623 6.7246,44.2623 			"/>
			<rect x="12.7536" y="37.3771" class="st1" width="0.5797" height="0.9836"/>
			<polygon class="st1" points="9.2754,30.0984 9.2754,29.9016 9.2754,29.5082 8.6957,29.5082 8.6957,29.9016 8.6957,30.0984 
				8.6957,30.4918 9.2754,30.4918 			"/>
			<polygon class="st1" points="6.6087,34.4262 6.3768,34.4262 6.3768,35.4099 6.6087,35.4099 6.7246,35.4099 6.9565,35.4099 
				6.9565,34.4262 6.7246,34.4262 			"/>
		</g>
	</g>
</g>
</svg>
