<?xml version="1.0" encoding="utf-8"?>
<!-- Generator: Adobe Illustrator 21.0.2, SVG Export Plug-In . SVG Version: 6.00 Build 0)  -->
<svg version="1.1" id="Layer_1" xmlns="http://www.w3.org/2000/svg" xmlns:xlink="http://www.w3.org/1999/xlink" x="0px" y="0px"
	 viewBox="0 0 335 335" style="enable-background:new 0 0 335 335;" xml:space="preserve">
<style type="text/css">
	.st0{fill:#E31937;}
	.st1{fill:#FFFFFF;}
</style>
<g>
	<g>
		<path class="st0" d="M0,167.4986c0,54.7946,26.3089,103.4356,66.9774,134.0016V33.5037C26.3089,64.0589,0,112.7069,0,167.4986z"/>
		<path class="st0" d="M334.9929,167.4986c0-54.7917-26.328-103.4397-67.0103-133.9949v267.9965
			C308.6649,270.9457,334.9929,222.2931,334.9929,167.4986z"/>
		<path class="st1" d="M66.9774,33.5037v267.9965C94.9881,322.5306,129.7751,335,167.4945,335
			c37.7087,0,72.495-12.4694,100.4881-33.4998V33.5037C239.9895,12.4625,205.2032,0,167.4945,0
			C129.7751,0,94.9881,12.474,66.9774,33.5037z"/>
		<path class="st0" d="M167.4762,265.1347h3.438l-1.1033-45.6061c0-1.5186,1.9186-2.7385,3.1875-2.7239
			c14.2953,1.714,27.1204,3.2478,41.4126,4.9835l-3.6334-12.4656c-0.5762-2.1891,0.2621-4.5912,1.8857-5.9114l41.5513-35.2729
			l-8.62-4.2318c-3.7675-1.4213-2.7047-3.6443-1.3508-8.9864l6.3267-24.1052l-24.1275,5.3122
			c-2.35,0.367-3.9246-1.2007-4.2763-2.6787l-3.1131-11.3469l-19.0726,22.3506c-2.7163,3.5614-8.2162,3.5614-6.5068-4.7145
			l8.1679-45.2283l-10.9362,5.9259c-3.0787,1.7815-6.1466,2.0726-7.879-1.1294l-15.3504-29.4481l-15.332,29.4481
			c-1.7286,3.202-4.7927,2.9109-7.8751,1.1294l-10.9248-5.9259l8.1595,45.2283c1.6987,8.2759-3.7897,8.2759-6.4982,4.7145
			l-19.0881-22.3506l-3.0978,11.3469c-0.367,1.478-1.9232,3.0457-4.2724,2.6787l-24.1427-5.3122l6.3297,24.1052
			c1.3623,5.3421,2.432,7.5651-1.3501,8.9864l-8.62,4.2318l41.5505,35.2729c1.6313,1.3202,2.481,3.7223,1.8933,5.9114
			l-3.6365,12.4656c14.2838-1.7357,27.1241-3.2695,41.4011-4.9835c1.2949-0.0146,3.2067,1.2053,3.1875,2.7239l-1.0994,45.6061
			H167.4762z"/>
	</g>
</g>
</svg>
