<?xml version="1.0" encoding="utf-8"?>
<!-- Generator: Adobe Illustrator 21.1.0, SVG Export Plug-In . SVG Version: 6.00 Build 0)  -->
<svg version="1.1" id="Layer_1" xmlns="http://www.w3.org/2000/svg" xmlns:xlink="http://www.w3.org/1999/xlink" x="0px" y="0px"
	 viewBox="0 0 60 60" style="enable-background:new 0 0 60 60;" xml:space="preserve">
<style type="text/css">
	.st0{clip-path:url(#SVGID_2_);}
	.st1{fill:#008000;}
	.st2{fill:#FFE000;}
	.st3{fill:#802000;stroke:#7B3100;stroke-width:4.6666;}
</style>
<title>Flag of Barbados</title>
<g>
	<defs>
		<circle id="SVGID_1_" cx="30" cy="30" r="30"/>
	</defs>
	<clipPath id="SVGID_2_">
		<use xlink:href="#SVGID_1_"  style="overflow:visible;"/>
	</clipPath>
	<g class="st0">
		<rect x="-30" class="st1" width="120" height="60"/>
		<circle class="st2" cx="30" cy="30" r="12.5"/>
		<circle class="st1" cx="33.8976" cy="30" r="10.2857"/>
		<circle class="st2" cx="-9.4048" cy="17.5" r="13.0952"/>
		<path class="st3" d="M-10.3083,27.3738h3.2699c0,0,0.1476-0.2997-0.0329-0.4496s-0.8837-0.1829-0.6937-0.713
			c0.3906-1.0899,0.4451-0.7539,0.6903-3.3425c0.2452-2.5886,0.3633-6.6487,0.3633-6.6487h-0.4723c0,0,0.0908,1.2625-0.1817,2.9065
			c-0.2725,1.644-0.3542,1.7893-0.654,3.0518c-0.2997,1.2625-0.3451,1.3715-0.6176,2.1073
			c-0.2725,0.7357-0.2997,0.772-0.7266,1.4532c-0.4269,0.6812-0.2725,0.4269-0.5086,0.8356
			c-0.1181,0.2044-0.2634,0.1499-0.3429,0.2986C-10.2947,27.0218-10.3083,27.3737-10.3083,27.3738L-10.3083,27.3738z"/>
		<path class="st1" d="M-7.8131,7.9595c0.0272,0.5079-0.0239,1.1802-0.2344,1.7274c-0.2134,0.6097-0.4455,1.2175-0.434,1.8489
			c-0.3393,0.1154-0.689-0.7343-1.0156-0.2344c0.2455,0.6907,0.8124,1.2375,1.2007,1.8598c0.0655,0.1929,0.6243,0.6966,0.301,0.8138
			c-0.816-0.2793-1.0138-1.3132-1.52-1.9411c-0.5879-1.0566-1.6838-1.8035-2.9048-1.855c-0.4586,0.012-1.9498-0.1137-1.5618,0.6717
			c0.5714,0.3885,1.2755,0.6418,1.8396,1.0778c0.4204,0.0393,1.1823,0.741,1.1378,1.0062
			c-0.7393-0.2994-1.0853-0.6583-1.8819-0.9733c-1.0793-0.4168-2.5721-0.1661-3.1696,0.905
			c-0.1114,0.279-0.2759,1.092,0.0745,1.1695c0.4093-0.6391,0.9949-1.3536,1.8625-1.1619c0.6815,0.0532-0.7604,1.2695-0.2089,1.0248
			c0.1748-0.0776,0.5784-0.3425,0.8584-0.3702c0.28-0.0277,0.4363,0.1819,0.6488,0.2109c0.4249,0.058,0.5418,0.2361,0.5025,0.3397
			c-0.0465,0.1223-0.1814,0.0179-0.6133,0.1548c-0.216,0.0685-0.3287,0.2582-0.5806,0.3451
			c-0.2519,0.0869-0.7759,0.093-0.9717,0.016c-0.6851-0.2976-1.8082-0.2458-2.0218,0.6127
			c-0.0002,0.3775-0.3361-0.0417-0.4914,0.1214c-0.1164,0.4119-0.1465,0.8349-0.7575,0.7975
			c-0.3709,0.3891-0.7507,0.792-1.2217,1.0688c0.2764,0.6343,1.3714-0.6371,1.3202-0.101
			c-0.4787,0.6528,0.2463,0.7901,0.5637,0.2877c0.5368-0.5671,1.2015-1.2575,2.0025-0.6859
			c0.3815,0.3592,0.6031-0.1899,0.8793-0.1605c0.174,0.4461,0.3928,0.022,0.5903-0.1042c0.3232-0.0403,0.2323,0.4037,0.6163,0.1302
			c0.7654-0.5066,1.707-0.0809,2.4548-0.5738c0.7959-0.3626,0.1117,0.292-0.1079,0.548c-0.3497,0.6782-0.0464,1.5686-0.8049,1.9898
			c-0.3047,0.8083,0.36,1.8738-0.3179,2.4718c-0.0986,0.375,0.8718,0.332,1.1442,0.4861c0.4773,0.0189-0.0205-1.0924,0.453-1.2413
			c0.635,0.3931,0.6053-0.703,0.4742-1.041c0.0616-0.7685,0.1049-1.6087,0.4868-2.3048c0.406-0.8531,0.7817,0.3475,0.3273,0.6852
			c-0.2582,0.7845-0.6339,1.7662-0.0469,2.4957c0.1692,0.0379,0.3081,0.4479,0.5271,0.574c0.219,0.126,0.5182-0.032,0.5728-0.405
			c0.281-1.1234,0.1394-2.3315,0.5407-3.4242c0.2832-0.3385,0.6738-0.0546,0.8495,0.2567c0.5623,0.6528,0.9575,1.4688,1.6382,2.0067
			c0.6198,0.29,1.1679,0.7287,1.4536,1.3668c-0.0038,0.4923,1.3982,0.5678,0.9793,0.0206c-0.402-0.5327-0.1368-1.0655,0.2704-1.4198
			c0.2181,0.0538,0.1536-0.3368-0.0174-0.1823c-0.2738-0.0646-0.2913-0.5656,0.0892-0.3275c0.6409,0.2069-0.05-0.4638-0.2816-0.4844
			c-0.5419-0.3359-1.1645-0.7223-1.431-1.3062c0.7054,0.0072,1.4377,0.3877,2.1586,0.1517
			c0.5778-0.2969,1.1639,0.0248,1.3657,0.5341c0.4467-0.0713,0.2562-0.5192,0-0.6684c0.3267-0.1348,0.5526-0.4143,0.1565-0.6609
			c-0.2092-0.273,0.2805-0.7387-0.3214-0.7193c0.0197-0.4598-0.1614-0.8806-0.6626-1.0395
			c-0.5021-0.4252-1.9756,0.6264-1.9329-0.332c-0.1485-0.5216,0.5985-0.0697,0.8073-0.3299
			c0.2157-0.5499-1.0278-0.4963-0.6175-0.9226c0.268-0.1725,1.5256-0.4204,0.5394-0.605c-0.4922,0.1353-0.9147,0.0351-1.302-0.2085
			c-0.3531,0.5905-1.3612-0.3207-1.1816,0.7292c-0.1379,0.3956-1.039,1.4235-1.2829,0.636c0.2074-0.6172,1.275-0.819,0.9439-1.6512
			c-0.0508-0.5195-0.4815,0.0903-0.6844,0.0516c-0.1027-0.3234,0.3108-0.7045,0.599-0.7813
			c0.5719,0.4399,0.5892-0.5549,1.1331-0.474c0.3971-0.0882-0.1282-0.2585-0.239-0.3333c0.1088-0.2907,0.7184-0.4392,0.1207-0.6916
			c-0.5274-0.3913-0.9183,0.3895-1.3533,0.4312c-0.4175-0.4714,0.3791-0.698,0.599-0.9462c0.0118-0.185-0.4645-0.0558-0.3212-0.217
			C-5.102,8.4834-4.2586,8.4669-4.6536,8.133c-0.5948-0.2042-1.3624-0.1533-1.9331,0.1113
			C-6.9462,8.3607-7.052,9.1737-7.3619,9.1399c-0.1457-0.3619,0.0474-1.0759-0.4514-1.1806L-7.8131,7.9595z M-5.0006,15.9023
			c0.4532-0.0768,0.0096,0.6883-0.2083,0.6771c0.0193-0.2749-0.6555-0.2484-0.2369-0.488
			C-5.31,16.0037-5.1587,15.9368-5.0006,15.9023z"/>
		<g>
			<g>
				<path id="Star7" class="st2" d="M60,45.7143l0.8264,2.5696l2.5243-0.956l-1.4937,2.2482l2.3213,1.3775l-2.6891,0.2339
					l0.3703,2.6737L60,51.9048l-1.8595,1.9565l0.3703-2.6737l-2.6891-0.2339l2.3213-1.3775l-1.4937-2.2482l2.5243,0.956L60,45.7143z
					"/>
			</g>
			<g>
				<path id="Star7_1_" class="st2" d="M45,21.9643l0.8264,2.5696l2.5243-0.956l-1.4937,2.2483l2.3213,1.3775l-2.6891,0.2339
					l0.3703,2.6737L45,28.1548l-1.8595,1.9565l0.3703-2.6737l-2.6891-0.2339l2.3213-1.3775l-1.4937-2.2483l2.5243,0.956L45,21.9643z
					"/>
			</g>
			<g>
				<path id="Star7_2_" class="st2" d="M60,5.7143l0.8264,2.5696l2.5243-0.956L61.857,9.5762l2.3213,1.3775l-2.6891,0.2339
					l0.3703,2.6737L60,11.9048l-1.8595,1.9565l0.3703-2.6737l-2.6891-0.2339l2.3213-1.3775l-1.4937-2.2483l2.5243,0.956L60,5.7143z"
					/>
			</g>
			<g>
				<path id="Star7_3_" class="st2" d="M73.3333,17.9643l0.8264,2.5696l2.5243-0.956l-1.4937,2.2483l2.3213,1.3775l-2.6891,0.2339
					l0.3703,2.6737l-1.8595-1.9565l-1.8595,1.9565l0.3703-2.6737l-2.6891-0.2339l2.3213-1.3775l-1.4937-2.2483l2.5243,0.956
					L73.3333,17.9643z"/>
			</g>
			<g>
				<path id="Star5" class="st2" d="M66,30l0.6531,1.6011l1.7245,0.1264l-1.3209,1.1159l0.4127,1.6792L66,33.6111l-1.4695,0.9114
					l0.4127-1.6792l-1.3209-1.1159l1.7245-0.1264L66,30z"/>
			</g>
		</g>
	</g>
</g>
</svg>
