<?xml version="1.0" encoding="utf-8"?>
<!-- Generator: Adobe Illustrator 21.1.0, SVG Export Plug-In . SVG Version: 6.00 Build 0)  -->
<svg version="1.1" id="Layer_1" xmlns="http://www.w3.org/2000/svg" xmlns:xlink="http://www.w3.org/1999/xlink" x="0px" y="0px"
	 viewBox="0 0 60 60" style="enable-background:new 0 0 60 60;" xml:space="preserve">
<style type="text/css">
	.st0{fill:#00A3DD;}
	.st1{fill:#F7D618;}
	.st2{fill:#CE1021;}
</style>
<title>Flag of Barbados</title>
<g>
	<g>
		<g>
			<path class="st0" d="M30.0028,60C46.5701,60,60,46.5689,60,29.9997c0-2.3219-0.2894-4.5707-0.7866-6.7412L8.1255,50.4834
				C13.5989,56.3279,21.3613,60,30.0028,60z"/>
			<path class="st0" d="M30.0028,0C13.4314,0,0,13.4305,0,29.9997c0,2.3245,0.2909,4.5779,0.7894,6.7497L51.8812,9.5212
				C46.4092,3.6754,38.6442,0,30.0028,0z"/>
			<path class="st1" d="M8.1255,50.4834l51.0878-27.2249c-0.1836-0.796-0.3806-1.5867-0.6272-2.3573L6.5254,48.6454
				C7.0279,49.282,7.5695,49.8904,8.1255,50.4834z"/>
			<path class="st2" d="M6.5254,48.6454l52.0608-27.7441c-1.115-3.5073-2.8653-6.725-5.1035-9.5387L1.4167,39.1087
				C2.5329,42.6127,4.2832,45.8297,6.5254,48.6454z"/>
			<path class="st1" d="M0.7894,36.7494c0.1836,0.7968,0.3821,1.5881,0.6273,2.3593l52.066-27.7461
				c-0.5065-0.6385-1.0439-1.2464-1.6015-1.8414L0.7894,36.7494z"/>
		</g>
		<polygon class="st1" points="8.7796,21.6672 12.7372,18.7938 16.6894,21.6672 15.1816,17.0175 19.1338,14.1441 14.2462,14.1441 
			12.7372,9.4945 11.2268,14.1441 6.3364,14.1441 10.2914,17.0175 		"/>
	</g>
</g>
</svg>
