<?xml version="1.0" encoding="utf-8"?>
<!-- Generator: Adobe Illustrator 21.1.0, SVG Export Plug-In . SVG Version: 6.00 Build 0)  -->
<svg version="1.1" id="Layer_1" xmlns="http://www.w3.org/2000/svg" xmlns:xlink="http://www.w3.org/1999/xlink" x="0px" y="0px"
	 viewBox="0 0 60 60" style="enable-background:new 0 0 60 60;" xml:space="preserve">
<style type="text/css">
	.st0{fill:none;}
	.st1{fill:#009543;}
	.st2{fill:#DC241F;}
	.st3{fill:#FBDE4A;}
</style>
<title>Flag of Barbados</title>
<g>
	<circle class="st0" cx="30.0001" cy="30.0001" r="30"/>
	<g>
		<path class="st1" d="M30.0003,0C13.4305,0,0,13.4312,0,30.0003c0,4.0821,0.8235,7.9713,2.2991,11.5188L41.4406,2.2716
			C37.914,0.8135,34.0536,0,30.0003,0z"/>
		<path class="st2" d="M30.0003,60C46.5689,60,60,46.5689,60,30.0003c0-4.1284-0.8363-8.0618-2.3439-11.6393L18.4387,57.6842
			C21.9961,59.1723,25.9014,60,30.0003,60z"/>
		<path class="st3" d="M41.4406,2.2716L2.2991,41.5191c3.0348,7.2878,8.8565,13.1209,16.1396,16.1651L57.6561,18.361
			C54.5911,11.0879,48.7392,5.2862,41.4406,2.2716z"/>
	</g>
</g>
</svg>
