<?xml version="1.0" encoding="utf-8"?>
<!-- Generator: Adobe Illustrator 21.1.0, SVG Export Plug-In . SVG Version: 6.00 Build 0)  -->
<svg version="1.1" id="Layer_1" xmlns="http://www.w3.org/2000/svg" xmlns:xlink="http://www.w3.org/1999/xlink" x="0px" y="0px"
	 viewBox="0 0 60 60" style="enable-background:new 0 0 60 60;" xml:space="preserve">
<style type="text/css">
	.st0{clip-path:url(#SVGID_2_);fill:#00247D;}
	.st1{fill:none;}
	.st2{clip-path:url(#SVGID_4_);fill:none;}
	.st3{clip-path:url(#SVGID_6_);fill:none;}
	.st4{clip-path:url(#SVGID_8_);fill:#00247D;}
	.st5{clip-path:url(#SVGID_10_);fill:#FFFFFF;}
	.st6{clip-path:url(#SVGID_12_);fill:#FFFFFF;}
	.st7{clip-path:url(#SVGID_14_);fill:#CF142B;}
	.st8{clip-path:url(#SVGID_16_);fill:#CF142B;}
	.st9{fill:#E5E5E5;}
</style>
<title>Flag of Barbados</title>
<g>
	<g>
		<g>
			<defs>
				<circle id="SVGID_1_" cx="30" cy="30" r="30"/>
			</defs>
			<clipPath id="SVGID_2_">
				<use xlink:href="#SVGID_1_"  style="overflow:visible;"/>
			</clipPath>
			<rect id="rect2414_2_" x="-30.4259" y="-0.2126" class="st0" width="120.8518" height="60.4256"/>
		</g>
	</g>
</g>
<circle class="st1" cx="30" cy="30" r="30"/>
<circle class="st1" cx="30" cy="30" r="30"/>
<circle class="st1" cx="30" cy="30" r="30"/>
<circle class="st1" cx="30" cy="30" r="30"/>
<circle class="st1" cx="30" cy="30" r="30"/>
<circle class="st1" cx="30" cy="30" r="30"/>
<circle class="st1" cx="30" cy="30" r="30"/>
<g>
	<g>
		<g>
			<defs>
				<circle id="SVGID_3_" cx="30" cy="30" r="30"/>
			</defs>
			<clipPath id="SVGID_4_">
				<use xlink:href="#SVGID_3_"  style="overflow:visible;"/>
			</clipPath>
			<rect x="-45.6763" y="-1.4482" class="st2" width="106.7059" height="62.2446"/>
		</g>
	</g>
</g>
<g>
	<g>
		<g>
			<defs>
				<circle id="SVGID_5_" cx="30" cy="30" r="30"/>
			</defs>
			<clipPath id="SVGID_6_">
				<use xlink:href="#SVGID_5_"  style="overflow:visible;"/>
			</clipPath>
			<rect x="-45.6763" y="-1.4482" class="st3" width="106.7059" height="62.2446"/>
		</g>
	</g>
</g>
<g>
	<circle class="st1" cx="30" cy="30" r="30"/>
	<circle class="st1" cx="30" cy="30" r="30"/>
	<circle class="st1" cx="30" cy="30" r="30"/>
	<circle class="st1" cx="30" cy="30" r="30"/>
	<circle class="st1" cx="30" cy="30" r="30"/>
</g>
<g>
	<g>
		<g>
			<g>
				<defs>
					<circle id="SVGID_7_" cx="30" cy="30" r="30"/>
				</defs>
				<clipPath id="SVGID_8_">
					<use xlink:href="#SVGID_7_"  style="overflow:visible;"/>
				</clipPath>
				<rect id="rect124_2_" x="-30.4259" y="-0.2126" class="st4" width="60.4259" height="30.2127"/>
			</g>
		</g>
	</g>
</g>
<g>
	<g>
		<g>
			<g>
				<defs>
					<circle id="SVGID_9_" cx="30" cy="30" r="30"/>
				</defs>
				<clipPath id="SVGID_10_">
					<use xlink:href="#SVGID_9_"  style="overflow:visible;"/>
				</clipPath>
				<path id="path146_2_" class="st5" d="M-30.4259-0.2126v3.3771L23.2445,30H30v-3.3775L-23.6704-0.2126H-30.4259z M30-0.2126
					v3.3771L-23.6704,30h-6.7555v-3.3775L23.2445-0.2126H30z"/>
			</g>
		</g>
	</g>
</g>
<g>
	<g>
		<g>
			<g>
				<defs>
					<circle id="SVGID_11_" cx="30" cy="30" r="30"/>
				</defs>
				<clipPath id="SVGID_12_">
					<use xlink:href="#SVGID_11_"  style="overflow:visible;"/>
				</clipPath>
				<path id="path136_2_" class="st6" d="M-5.2483-0.2126v30.2127h10.071V-0.2126H-5.2483z M-30.4259,9.8578v10.0709H30V9.8578
					H-30.4259z"/>
			</g>
		</g>
	</g>
</g>
<g>
	<g>
		<g>
			<g>
				<defs>
					<circle id="SVGID_13_" cx="30" cy="30" r="30"/>
				</defs>
				<clipPath id="SVGID_14_">
					<use xlink:href="#SVGID_13_"  style="overflow:visible;"/>
				</clipPath>
				<path id="path141_2_" class="st7" d="M-30.4259,11.8722v6.0424H30v-6.0424H-30.4259z M-3.234-0.2126v30.2127h6.0422V-0.2126
					H-3.234z"/>
			</g>
		</g>
	</g>
</g>
<g>
	<g>
		<g>
			<g>
				<defs>
					<circle id="SVGID_15_" cx="30" cy="30" r="30"/>
				</defs>
				<clipPath id="SVGID_16_">
					<use xlink:href="#SVGID_15_"  style="overflow:visible;"/>
				</clipPath>
				<path id="path150_2_" class="st8" d="M-30.4259,30.0001l20.1421-10.0714h4.5037l-20.1418,10.0714H-30.4259z M-30.4259-0.2126
					l20.1421,10.0704h-4.5037l-15.6384-7.8185V-0.2126z M5.3542,9.8578L25.4963-0.2126H30L9.8579,9.8578H5.3542z M30,30.0001
					L9.8579,19.9286h4.504L30,27.748V30.0001z"/>
			</g>
		</g>
	</g>
</g>
<g>
	<polygon class="st9" points="44.6791,19.5487 45.1464,20.9862 46.6583,20.9862 45.4351,21.8751 45.9023,23.3126 44.6791,22.4243 
		43.4559,23.3126 43.9232,21.8751 42.6999,20.9862 44.2118,20.9862 	"/>
	<polygon class="st9" points="39.9607,20.5429 40.9719,21.666 42.3533,21.0512 41.5973,22.3605 42.6092,23.4842 41.13,23.1698 
		40.3741,24.4791 40.2166,22.9754 38.7374,22.6615 40.1188,22.0461 	"/>
	<polygon class="st9" points="36.0544,23.37 37.4357,23.9849 38.447,22.8618 38.2889,24.3655 39.6702,24.9803 38.1917,25.2942 
		38.0336,26.7979 37.2776,25.4886 35.7985,25.803 36.8104,24.6793 	"/>
	<polygon class="st9" points="33.636,27.5421 35.1479,27.5421 35.6146,26.104 36.0819,27.5421 37.5938,27.5421 36.3706,28.4304 
		36.8379,29.8686 35.6146,28.9797 34.392,29.8686 34.8593,28.4304 	"/>
	<polygon class="st9" points="33.1231,32.3367 34.5044,31.7219 34.3463,30.2182 35.3582,31.3418 36.7389,30.727 35.9835,32.0363 
		36.9948,33.16 35.5163,32.8456 34.7603,34.1549 34.6022,32.6512 	"/>
	<polygon class="st9" points="34.6051,36.9257 35.617,35.8021 34.861,34.4927 36.2424,35.1076 37.2536,33.9845 37.0955,35.4876 
		38.4769,36.103 36.9983,36.4169 36.8402,37.9206 36.0843,36.6113 	"/>
	<polygon class="st9" points="37.8257,40.5152 38.293,39.0771 37.0698,38.1882 38.5817,38.1882 39.049,36.7507 39.5156,38.1882 
		41.0276,38.1882 39.8049,39.0771 40.2716,40.5152 39.049,39.6264 	"/>
	<polygon class="st9" points="42.2274,42.4839 42.0693,40.9808 40.5907,40.6663 41.9715,40.0515 41.814,38.5477 42.8252,39.6714 
		44.2066,39.0566 43.4506,40.3659 44.4619,41.489 42.9833,41.1746 	"/>
	<polygon class="st9" points="47.0495,42.4927 46.2935,41.1834 44.815,41.4978 45.8262,40.3741 45.0703,39.0648 46.4516,39.6796 
		47.4635,38.5565 47.3054,40.0597 48.6867,40.6751 47.2076,40.9889 	"/>
	<polygon class="st9" points="51.4581,40.5392 50.2355,39.6504 49.0123,40.5392 49.4795,39.1011 48.2563,38.2128 49.7682,38.2128 
		50.2355,36.7747 50.7022,38.2128 52.2141,38.2128 50.9909,39.1011 	"/>
	<polygon class="st9" points="54.6916,36.9615 53.2125,36.647 52.4565,37.9563 52.2984,36.4526 50.8199,36.1382 52.2006,35.5233 
		52.0431,34.0196 53.0544,35.1433 54.4357,34.5285 53.6798,35.8378 	"/>
	<polygon class="st9" points="56.1895,32.3777 54.7109,32.6921 54.5528,34.1959 53.7969,32.8866 52.3177,33.201 53.3296,32.0773 
		52.5736,30.768 53.955,31.3828 54.9662,30.2591 54.8087,31.7629 	"/>
	<polygon class="st9" points="55.6941,27.5814 54.4709,28.4697 54.9381,29.9078 53.7149,29.0189 52.4917,29.9078 52.9589,28.4697 
		51.7357,27.5814 53.2476,27.5814 53.7149,26.1432 54.1822,27.5814 	"/>
	<polygon class="st9" points="53.2904,23.4011 52.5344,24.7098 53.5463,25.8335 52.0671,25.519 51.3112,26.8283 51.1531,25.3252 
		49.6745,25.0108 51.0559,24.3959 50.8978,22.8922 51.909,24.0159 	"/>
	<polygon class="st9" points="49.394,20.5593 49.2359,22.0631 50.6173,22.6779 49.1387,22.9923 48.9806,24.4961 48.2247,23.1867 
		46.7456,23.5006 47.7574,22.3775 47.0014,21.0682 48.3828,21.683 	"/>
</g>
</svg>
