<?xml version="1.0" encoding="utf-8"?>
<!-- Generator: Adobe Illustrator 21.1.0, SVG Export Plug-In . SVG Version: 6.00 Build 0)  -->
<svg version="1.1" id="Layer_1" xmlns="http://www.w3.org/2000/svg" xmlns:xlink="http://www.w3.org/1999/xlink" x="0px" y="0px"
	 viewBox="0 0 60 60" style="enable-background:new 0 0 60 60;" xml:space="preserve">
<style type="text/css">
	.st0{fill:#D42E12;}
	.st1{fill:#FFFFFF;}
	.st2{fill:#0035AD;}
</style>
<g>
	<g>
		<g>
			<path class="st0" d="M30.0007,60C46.569,60,60,46.5689,60,29.9997H0C0,46.5689,13.4324,60,30.0007,60z"/>
			<path class="st1" d="M30.0007,0C13.4324,0,0,13.4305,0,29.9997h60C60,13.4305,46.569,0,30.0007,0z"/>
			<path class="st2" d="M27.0255,29.9997V0.1494C11.8549,1.6445,0,14.4343,0,29.9997H27.0255z"/>
		</g>
		<polygon class="st1" points="13.5703,9.7069 15.3595,15.2069 21.1436,15.2069 16.4637,18.6055 18.2488,24.1057 13.5703,20.7063 
			8.8932,24.1057 10.6783,18.6055 5.9972,15.2069 11.7866,15.2069 		"/>
	</g>
</g>
</svg>
