<?xml version="1.0" encoding="utf-8"?>
<!-- Generator: Adobe Illustrator 21.0.2, SVG Export Plug-In . SVG Version: 6.00 Build 0)  -->
<svg version="1.1" id="Layer_1" xmlns="http://www.w3.org/2000/svg" xmlns:xlink="http://www.w3.org/1999/xlink" x="0px" y="0px"
	 viewBox="0 0 335 335" style="enable-background:new 0 0 335 335;" xml:space="preserve">
<style type="text/css">
	.st0{fill:#DE2910;}
	.st1{fill:#FFDE00;}
</style>
<g>
	<g>
		<path class="st0" d="M335,167.5c0,92.51-74.99,167.5-167.48,167.5C75,335,0,260.01,0,167.5C0,74.99,75,0,167.51,0
			C260.01,0,335,74.99,335,167.5z"/>
		<g>
			<g>
				<g>
					<polygon class="st1" points="74.72,66.17 85.53,99.55 120.65,99.55 92.27,120.2 103.08,153.59 74.72,132.95 46.29,153.59 
						57.14,120.2 28.74,99.55 63.86,99.55 					"/>
				</g>
				<polygon class="st1" points="166.2,48.74 165.46,60.28 176.18,64.56 164.98,67.39 164.24,78.93 158.05,69.18 146.86,72.03 
					154.24,63.13 148.09,53.38 158.82,57.63 				"/>
				<polygon class="st1" points="205.62,86.14 200.35,96.43 208.49,104.61 197.1,102.78 191.82,113.08 190.05,101.65 178.63,99.84 
					188.92,94.61 187.17,83.2 195.31,91.37 				"/>
				<polygon class="st1" points="193.77,132.97 197.29,143.96 208.86,143.98 199.51,150.75 203.08,161.76 193.74,154.95 
					184.38,161.74 187.95,150.75 178.63,143.96 190.18,143.98 				"/>
				<polygon class="st1" points="166.11,168.23 165.36,179.76 176.1,184.04 164.89,186.88 164.14,198.42 157.97,188.66 
					146.77,191.51 154.14,182.62 148,172.86 158.74,177.14 				"/>
			</g>
		</g>
	</g>
</g>
</svg>
