<?xml version="1.0" encoding="utf-8"?>
<!-- Generator: Adobe Illustrator 21.1.0, SVG Export Plug-In . SVG Version: 6.00 Build 0)  -->
<svg version="1.1" id="Layer_1" xmlns="http://www.w3.org/2000/svg" xmlns:xlink="http://www.w3.org/1999/xlink" x="0px" y="0px"
	 viewBox="0 0 60 60" style="enable-background:new 0 0 60 60;" xml:space="preserve">
<style type="text/css">
	.st0{fill:#FFFFFF;}
	.st1{fill:#002A8F;}
	.st2{fill:#CF142B;}
</style>
<g>
	<g>
		<path class="st0" d="M13.6794,48.0001h40.3219c2.6187-3.4911,4.4963-7.5672,5.3983-11.9998H29.3597L13.6794,48.0001z"/>
		<path class="st1" d="M54.0013,48.0001H13.6794l-4.5848,3.5066C14.4962,56.7594,21.8687,60,29.9997,60
			C39.814,60,48.5251,55.2845,54.0013,48.0001z"/>
		<path class="st1" d="M37.1985,30.0003l-7.8388,6h30.0399c0.3906-1.9413,0.6004-3.9461,0.6004-6
			c0-2.0565-0.2098-4.062-0.6004-6.0006H29.3597L37.1985,30.0003z"/>
		<path class="st1" d="M54.0013,12.0005C48.5251,4.7114,39.814,0,29.9997,0c-8.131,0-15.5034,3.2391-20.905,8.4906l4.5848,3.5099
			H54.0013z"/>
		<path class="st0" d="M29.3597,23.9997h30.0399c-0.9021-4.434-2.7796-8.5128-5.3983-11.9992H13.6794L29.3597,23.9997z"/>
		<path class="st2" d="M29.3597,36.0002l7.8388-6l-7.8388-6.0006L13.6794,12.0005L9.0946,8.4906C3.4873,13.9411,0,21.5606,0,30.0003
			c0,8.4378,3.4873,16.0552,9.0946,21.5064l4.5848-3.5066L29.3597,36.0002z M4.4388,28.5228h5.0171l1.5519-4.771l1.5487,4.771
			h5.0183l-4.0594,2.953l1.5526,4.7704l-4.0601-2.949l-4.0588,2.949l1.5513-4.7704L4.4388,28.5228z"/>
		<polygon class="st0" points="6.9489,36.2462 11.0077,33.2972 15.0678,36.2462 13.5153,31.4758 17.5747,28.5228 12.5564,28.5228 
			11.0077,23.7518 9.4558,28.5228 4.4388,28.5228 8.5003,31.4758 		"/>
	</g>
</g>
</svg>
