<?xml version="1.0" encoding="utf-8"?>
<!-- Generator: Adobe Illustrator 21.1.0, SVG Export Plug-In . SVG Version: 6.00 Build 0)  -->
<svg version="1.1" id="Layer_1" xmlns="http://www.w3.org/2000/svg" xmlns:xlink="http://www.w3.org/1999/xlink" x="0px" y="0px"
	 viewBox="0 0 60 60" style="enable-background:new 0 0 60 60;" xml:space="preserve">
<style type="text/css">
	.st0{fill:#003893;}
	.st1{fill:#FFFFFF;}
	.st2{fill:#CE1126;}
	.st3{fill:#FCD116;}
</style>
<g>
	<g>
		<circle class="st0" cx="30" cy="29.9999" r="30"/>
		<path class="st1" d="M59.535,35.093c0.2834-1.6511,0.4617-3.3344,0.4637-5.0658H0.0014c0.0021,1.7315,0.1783,3.4148,0.4623,5.0658
			H59.535z"/>
		<path class="st2" d="M1.8012,40.1602h56.3964c0.5863-1.6296,1.04-3.3204,1.3375-5.0672H0.4637
			C0.7633,36.8399,1.2143,38.5306,1.8012,40.1602z"/>
		<path class="st1" d="M4.1828,45.226H55.816c0.9462-1.6008,1.7422-3.2935,2.3816-5.0658H1.8012
			C2.4406,41.9326,3.2365,43.6252,4.1828,45.226z"/>
		<g>
			<path id="_x3C_Path_x3E__47_" class="st3" d="M14.3306,24.387l-0.5997,1.8474H11.789l1.5739,1.1418L12.76,29.223l1.5707-1.1451
				l1.5768,1.1451l-0.6025-1.8468l1.5734-1.1418h-1.9453L14.3306,24.387z"/>
			<path id="_x3C_Path_x3E__46_" class="st3" d="M9.4765,31.0758l-0.6051,1.8448H6.9261l1.5801,1.1424l-0.6058,1.8494l1.576-1.1438
				l1.568,1.1438l-0.5997-1.8494l1.5734-1.1424h-1.9446L9.4765,31.0758z"/>
			<path id="_x3C_Path_x3E__45_" class="st3" d="M9.4765,39.3407l-0.6051,1.8467H6.9261l1.5801,1.1445l-0.6058,1.85l1.576-1.1439
				l1.568,1.1439l-0.5997-1.85l1.5734-1.1445h-1.9446L9.4765,39.3407z"/>
			<path id="_x3C_Path_x3E__44_" class="st3" d="M14.3306,46.0294l-0.5997,1.8502H11.789l1.5739,1.139l-0.603,1.8467l1.5707-1.139
				l1.5768,1.139l-0.6025-1.8467l1.5734-1.139h-1.9453L14.3306,46.0294z"/>
			<path id="_x3C_Path_x3E__43_" class="st3" d="M22.1948,21.8306l-0.6018,1.8481h-1.9419l1.57,1.1445l-0.603,1.8467l1.5767-1.1419
				l1.568,1.1419l-0.5978-1.8467l1.5741-1.1445h-1.9413L22.1948,21.8306z"/>
			<path id="_x3C_Path_x3E__42_" class="st3" d="M22.1948,48.5825l-0.6018,1.8461h-1.9419l1.57,1.1458l-0.603,1.8467l1.5767-1.1444
				l1.568,1.1444l-0.5978-1.8467l1.5741-1.1458h-1.9413L22.1948,48.5825z"/>
			<path id="_x3C_Path_x3E__41_" class="st3" d="M30.0563,46.0294l-0.5977,1.8502h-1.95l1.5774,1.139l-0.5997,1.8467l1.57-1.139
				l1.5741,1.139l-0.6038-1.8467l1.5741-1.139h-1.9446L30.0563,46.0294z"/>
			<path id="_x3C_Path_x3E__40_" class="st3" d="M34.9165,31.0758l-0.603,1.8448h-1.9446l1.5767,1.1424l-0.5997,1.8494
				l1.5707-1.1438l1.5761,1.1438l-0.6025-1.8494l1.5707-1.1424h-1.9453L34.9165,31.0758z"/>
			<path id="_x3C_Path_x3E__39_" class="st3" d="M34.9165,39.3407l-0.603,1.8467h-1.9446l1.5767,1.1445l-0.5997,1.85l1.5707-1.1439
				l1.5761,1.1439l-0.6025-1.85l1.5707-1.1445h-1.9453L34.9165,39.3407z"/>
			<path id="_x3C_Path_x3E__38_" class="st3" d="M30.0563,24.387l-0.5977,1.8474h-1.95l1.5774,1.1418l-0.5997,1.8468l1.57-1.1451
				l1.5741,1.1451l-0.6038-1.8468l1.5741-1.1418h-1.9446L30.0563,24.387z"/>
		</g>
	</g>
</g>
</svg>
