<?xml version="1.0" encoding="utf-8"?>
<!-- Generator: Adobe Illustrator 21.1.0, SVG Export Plug-In . SVG Version: 6.00 Build 0)  -->
<svg version="1.1" id="Layer_1" xmlns="http://www.w3.org/2000/svg" xmlns:xlink="http://www.w3.org/1999/xlink" x="0px" y="0px"
	 viewBox="0 0 60 60" style="enable-background:new 0 0 60 60;" xml:space="preserve">
<style type="text/css">
	.st0{clip-path:url(#SVGID_2_);}
	.st1{fill:#0021AD;}
	.st2{fill:#1C8A42;}
	.st3{fill:#FFC639;}
	.st4{fill:#FFFFFF;}
</style>
<title>Flag of Barbados</title>
<g>
	<defs>
		<circle id="SVGID_1_" cx="30" cy="30" r="30"/>
	</defs>
	<clipPath id="SVGID_2_">
		<use xlink:href="#SVGID_1_"  style="overflow:visible;"/>
	</clipPath>
	<g class="st0">
		<rect x="-30" class="st1" width="120" height="60"/>
		<path class="st2" d="M-30,0H90v60L-30,0z"/>
		<circle class="st3" cx="30" cy="30" r="10.8384"/>
		<path class="st2" d="M23.3808,25.1316c0.7414,1.0172,1.865,2.7227,2.7686,2.2775c0.7052,0.0024,1.0692,0.052,1.1648,0.5213
			c1.6631,0.283,4.4584-0.4185,6.1976-2.6839c0,0,0.1464,0.0194,0.0956-0.8418c0.0097-0.375,0.5128-0.3,0.5249-0.1778
			c0.0702,0.1863,0.0581,0.3254,0.1524,0.3302c0.2141-0.0714,0.5068-0.5515,0.7523-0.8563c0.0665-0.1343,0.0302-0.2758,0.046-0.4451
			c0.1294-0.3181,0.4524-0.2492,0.5201-0.0822c0.0617,0.1076,0.0629,0.1899,0.1234,0.2975
			c0.3278,0.2189,0.9192,0.0145,0.9652,0.0145c0.0581-0.2673,0.2298-0.2419,0.2298-0.2419c0.2189-0.0484,0.133-0.029,0.277,0.046
			c-0.127,1.4406,0.283,1.5047,0.2492,2.2436c0.0145,0.8249-0.2492,1.0595-0.2492,1.374c0.0835,0.3846,1.3002,0.3979,0.8721,0.7233
			c-0.3762,0.2008,0.0012,0.5769-0.5648,0.7233c-1.6474,0.8358-1.9631,1.553-1.9631,1.553s-0.4137,0.7814-0.4596,0.7814
			c-0.2758,0.5213-0.6253,0.2371-0.8201,0.4911c-0.0968,0.3193-0.2056,1.0269-0.0121,1.3946
			c0.0968,0.5056-0.0121,0.7814-0.133,1.2869c-0.1089,1.0547-0.5274,1.2144-0.5757,1.5845
			c-0.1935,0.3955,0.0411,2.2534-0.1427,2.2534c-1.2264,0.0242-2.1662-0.2346-2.6513-0.3314
			c0.4729-2.0381,0.2891-3.8281,0.2891-4.012c-0.1209-1.4575-2.1832-1.1031-2.4989-1.2966
			c-0.2613-0.0556-0.4258-0.2685-0.5177-0.3604c-0.2915-0.0315-0.4004-0.098-0.6919-0.1282
			c-0.1451,0.0726-0.0581,0.1476-0.3822,0.248c-0.8225,0.0992-1.1853-0.7173-1.1853-0.7173
			c0.0399-0.2746-1.8493,0.0556-2.8763-0.1826c-0.4209,0.2346-0.6048,0.9289-0.9495,1.0112
			c-0.0097,0.2153-0.5673-0.1766-0.6798-0.3883c-0.023-0.6156,0.537-0.8878,0.537-0.8878c0.4451-0.3133,0.7088-0.3641,0.9229-0.5806
			c0.1076-0.5358,0.0532-0.9325,0.2818-1.3354c0.1935-0.3072,0.479-0.1633,0.6725-0.3012c0.208-0.1379,0.2963-1.0402,0.104-1.2869
			c0,0-0.8322-0.7511-0.8781-0.7971C22.6248,25.5755,23.2127,25.0747,23.3808,25.1316L23.3808,25.1316z"/>
		<path class="st3" d="M75.3516,11.7066c-0.4911-1.9433-4.8865-6.1285-8.1896-8.7918c-0.7886-0.5373-1.3026-0.2172-1.1998,0.5488
			c0.4112,0.6859,0.7197,1.44,1.1309,2.1259c0.1149,0.4572,0.3314,0.7772,0.4463,1.2343c0,0,0.0339,0.7887,0.1028,0.8573
			c1.0281,1.132,1.166,2.0918,1.166,2.0918c0.5939,1.1431,1.12,1.9774,2.1602,2.9148c1.166,0.7318,0.3084,3.0056,0.3423,4.2176
			c0,0.7656-0.5479,0.6749-1.0281,0.583c-3.7834-3.475-7.5329-3.4859-10.8361-4.4922c-1.2918-0.1367-1.3147,0.4802-0.8914,0.8225
			c2.309,2.4698,4.4801,4.1498,7.3381,5.5553c0.4802,0.2975,0.9604,0.5951,1.4406,0.8926c0.5479,0.4572,1.097,0.9144,1.645,1.3716
			c1.2688,0.8225,1.3728,1.5772,1.3728,1.645c0.0339,1.5433-0.7898,2.7432-1.0293,3.2233c-0.433,1.6364-1.3026,1.9207-1.3026,1.9207
			c-7.0649,4.7668-10.7684,6.0005-22.2216,4.526c-0.1718-0.0907-1.2688,0.0919,0,0.5491
			c2.9149,0.9712,10.0753,2.5291,17.0028-0.7511c1.6631-1.166,2.7758-0.7838,3.9805-1.4816
			c1.9788-1.2204,4.8042-2.7396,5.3183-2.9101c1.5433-0.8237,5.8638-1.749,6.8592-2.5727c1.1418-0.0919,2.3272-0.2419,2.407-1.224
			c0.375-0.2431,0.9241-0.0653,1.3316-0.866c0.9059-0.1572,0.7535-0.4814,0.7535-0.4814c-0.2286-0.6398-1.0753-0.9035-1.68-1.3716
			c-0.8926-0.2975-1.5095-0.3895-2.1614-0.0689c-0.2056,0.0919-0.4112,0.1826-0.6169,0.2746c0,0-0.9604-0.1379-0.9604-0.2056
			c-2.1336-0.1173-1.9255-7.1882-2.6803-10.1374L75.3516,11.7066z"/>
		<path class="st2" d="M80.3556,23.2812c-0.0617,0.1718-0.3373,0.2403-0.6155,0.1529c-0.2782-0.0874-0.4537-0.2975-0.392-0.4693l0,0
			c0.0617-0.1718,0.3373-0.2403,0.6155-0.1529C80.2418,22.8992,80.4173,23.1094,80.3556,23.2812z"/>
		<g>
			<path id="s" class="st4" d="M-7.4208,22.9128l-1.5301-1.4323l-1.5485,1.4124l0.166-2.0886l-2.0699-0.3304l1.737-1.1729
				l-1.0327-1.8236l2.0002,0.6264l0.7821-1.9445l0.7572,1.9544l2.0081-0.6009l-1.0561,1.8103l1.7218,1.1951l-2.074,0.3038
				l0.139,2.0909L-7.4208,22.9128z"/>
			<path class="st4" d="M-1.9932,40.2636l-1.6502-1.1l-1.6069,1.1597l0.5654-1.8682l-1.6298-1.1299l2-0.0534l0.5986-1.8595
				l0.6713,1.8359l2-0.0186L-2.63,38.4178L-1.9932,40.2636L-1.9932,40.2636z"/>
			<g>
				<path id="s_1_" class="st4" d="M-7.1182,55.2001l-1.5301-1.4323l-1.5485,1.4124l0.166-2.0886l-2.0699-0.3304l1.737-1.1729
					l-1.0327-1.8236l2.0002,0.6264l0.7821-1.9445l0.7572,1.9544l2.0081-0.6009l-1.0561,1.8103l1.7218,1.1951l-2.074,0.3038
					l0.139,2.0909L-7.1182,55.2001z"/>
			</g>
			<g>
				<path id="s_2_" class="st4" d="M-20.8687,37.6995l-1.5301-1.4323l-1.5485,1.4124l0.166-2.0886l-2.0699-0.3304l1.737-1.1729
					l-1.0327-1.8236l2.0002,0.6264l0.7821-1.9445l0.7572,1.9544l2.0081-0.6009l-1.0561,1.8103l1.7218,1.1951l-2.074,0.3038
					l0.139,2.0909L-20.8687,37.6995z"/>
			</g>
			<g>
				<path id="s_3_" class="st4" d="M5.5905,33.116l-1.5301-1.4323l-1.5485,1.4124l0.166-2.0886L0.608,30.6771l1.737-1.1729
					l-1.0327-1.8236l2.0002,0.6264l0.7821-1.9445l0.7572,1.9544l2.0081-0.6009l-1.0561,1.8103l1.7218,1.1951l-2.074,0.3038
					l0.139,2.0909L5.5905,33.116z"/>
			</g>
		</g>
	</g>
</g>
</svg>
