<?xml version="1.0" encoding="utf-8"?>
<!-- Generator: Adobe Illustrator 21.1.0, SVG Export Plug-In . SVG Version: 6.00 Build 0)  -->
<svg version="1.1" id="Layer_1" xmlns="http://www.w3.org/2000/svg" xmlns:xlink="http://www.w3.org/1999/xlink" x="0px" y="0px"
	 viewBox="0 0 60 60" style="enable-background:new 0 0 60 60;" xml:space="preserve">
<style type="text/css">
	.st0{fill:#FFFFFF;}
	.st1{fill:#ED8000;}
	.st2{fill:#4E5B31;}
</style>
<g>
	<g>
		<circle class="st0" cx="30" cy="30.0001" r="30"/>
		<g>
			<path class="st1" d="M48.3545,14.2814c0.9683,0.0235,1.8254-0.5058,2.6375-0.9595c-0.1441,0.317-0.1676,0.6882-0.3485,0.993
				c-0.2822,0.1361-0.6327,0.057-0.9026,0.2386c-0.4276,0.2813-0.8926,0.5179-1.296,0.8329
				c-0.3517,0.272-0.3162,0.8798-0.7913,1.0146c-0.6527,0.1829-1.0715,0.7343-1.4762,1.2415
				c-0.5757,0.1127-1.0615,0.4523-1.6029,0.6768c-0.4161,0.1695-0.7197,0.5179-1.0595,0.8149
				c-0.3364,0.3001-0.7096,0.5963-0.8583,1.0479c-0.0992,0.2259-0.1247,0.5481-0.3714,0.6761
				c-0.3497,0.2138-0.7671,0.067-1.139,0.0758c-0.439,0.1051-0.9676,0.3631-0.9583,0.8812c-0.587,0.4649-0.587,1.2838-0.5093,1.9511
				c0.1274,0.6441,0.6213,1.105,1.0494,1.5446c0.2171,0.2038,0.2599,0.4986,0.3933,0.7438
				c0.2606,0.3377,0.7471,0.4644,0.9174,0.8805c0.1125,0.2815,0.3719,0.4503,0.526,0.6989c0.126,0.2373,0.0817,0.5193,0.126,0.7666
				c-0.5529-0.3605-1.2149-0.4946-1.8583-0.5641c-0.3069,0.1922-0.6667,0.2244-1.0165,0.2164
				c0.1025,0.4054-0.2928,0.7559-0.6862,0.6204c-0.4201-0.2238-0.7585-0.6446-1.2524-0.6767
				c-0.7699-0.0697-1.7047-0.1361-2.2354,0.5421c-0.3833,0.5716-0.2231,1.3059-0.2801,1.9586
				c-0.3055,0.1957-0.4751,0.5093-0.5762,0.8483c-0.2834-0.0429-0.5756-0.1347-0.8563-0.0429
				c-0.3491,0.0999-0.5529,0.4376-0.7773,0.7084c-0.5643,0.0897-1.1526,0.2606-1.5567,0.6888
				c-0.2721,0.0784-0.5314,0.1923-0.7559,0.3605c-0.2171,0.0435-0.4074,0.1353-0.5755,0.268
				c-0.2808-0.0569-0.5776-0.0763-0.8598-0.0328c-0.2466,0.4195-0.7994,0.4409-1.2175,0.3069
				c-0.6641-0.1822-1.373-0.069-1.9513,0.2801c-0.6418,0.1924-1.1827,0.6782-1.4535,1.2866
				c-0.1916,0.5053,0.179,0.9583,0.4523,1.3428c-0.5086-0.0576-1.0407-0.0703-1.5479-0.136
				c0.1843-0.7431-0.3826-1.3542-0.9019-1.8038c-0.4832-0.3412-1.0822,0.0542-1.6129-0.1139
				c-0.3591,0.1923-0.7103,0.4522-1.1466,0.3497c-0.1038,0.057-0.2171,0.1134-0.331,0.1696
				c-0.4724-0.1696-0.9447-0.3598-1.4193-0.5267c-0.3155-0.1059-0.461-0.4456-0.7431-0.5804
				c-0.3062-0.077-0.6439-0.02-0.9033-0.2238c-0.2727-0.0328-0.5977-0.02-0.7457-0.2941c-0.26-0.3826-0.6969-0.5414-1.0715-0.7766
				c-0.0683-0.394-0.2359-0.7573-0.2929-1.1526c-0.057-0.2124-0.0656-0.4737-0.2251-0.652
				c-0.193-0.1595-0.4289-0.2492-0.6327-0.3966c-0.1125-0.258-0.1923-0.5301-0.3838-0.7419
				c0.2258-0.3075,0.0119-0.6084-0.0751-0.9026c0-0.3705,0.0978-0.7552-0.0248-1.1183c-0.2017-0.3377-0.4838-0.6413-0.5762-1.0239
				c-0.0462-0.3177,0.1011-0.6232,0.2258-0.9047c0.2393,0.4965,0.7324,0.7787,1.1164,1.1627
				c0.4074,0.1662,0.9361,0.1574,1.3087-0.0992c0.3605-0.2399,0.7324-0.4765,1.0602-0.7492
				c0.2827-0.3577,0.3042-0.8556,0.5762-1.2261c0.1125-0.1468,0.2473-0.2835,0.3705-0.4188
				c0.6206-0.1006,1.1399-0.5294,1.7831-0.4844c0.9476,0.0804,1.7832,0.6097,2.6282,0.9816
				c0.2687,0.1474,0.5521-0.0121,0.7901-0.1474c0.4503-0.2801,0.8777-0.7003,0.9923-1.251
				c0.1569-0.7104,0.1569-1.4448,0.1569-2.1658c0.0121-0.5193-0.1569-1.0165-0.1709-1.5223
				c0.8008,0.3376,1.6255,0.6204,2.4826,0.812c0.307,0.0329,0.5951-0.077,0.9033-0.1018c0.2359,0,0.4397,0.1234,0.6755,0.1468
				c0.1957-0.045,0.3719-0.1139,0.5649-0.1548c0.2494,0.0409,0.4397,0.2646,0.6862,0.3364c0.453,0.008,0.9027-0.1039,1.3323,0.02
				c0.5193,0.1481,1.0614,0.0697,1.5895,0.1817c0.9917-0.0892,2.0309-0.0697,2.9584-0.4846
				c0.4263-0.1353,0.9014,0.0449,1.3161-0.1595c0.463-0.2257,0.8135-0.6292,1.2531-0.8891c0.2701-0.205,0.609,0,0.914-0.0362
				c1.2182-0.057,2.3467-0.6192,3.4048-1.172c0.4844-0.2492,0.9261-0.5964,1.4567-0.7559c0.6399-0.1346,0.9461-0.7901,1.3408-1.2403
				c0.7666,0.1348,1.3872-0.3491,2.0747-0.5983c0.4187-0.1803,0.6184-0.6299,0.9722-0.902
				c0.2688-0.0998,0.5643-0.1139,0.8444-0.1695C48.2527,14.4846,48.2976,14.3846,48.3545,14.2814L48.3545,14.2814z"/>
		</g>
	</g>
</g>
<g>
	<polygon class="st2" points="19.741,42.4503 19.7408,42.4503 19.7412,42.4512 	"/>
	<path class="st2" d="M17.7909,40.4684c-0.0624,0.0024-0.1045,0.0126-0.1046,0.0126l-0.0011,0.0003v0.0004
		c0.0677,0.7676,0.6227,1.2617,1.0764,1.541c0.4896,0.3015,0.9702,0.4254,0.9792,0.4276c-0.3526-0.7958-0.7469-1.3635-1.174-1.6891
		c-0.3356-0.2552-0.613-0.2933-0.7486-0.2933C17.8087,40.4679,17.7995,40.4681,17.7909,40.4684z"/>
	<path class="st2" d="M17.6237,39.1587c0,0.1709,0.1191,0.3796,0.2478,0.5797c0.1226,0.1907,0.2467,0.3442,0.2482,0.346
		l-0.0002,0.0006h0.0008l0.0001-0.0009c0.0006-0.0061,0.061-0.622,0.061-1.2348c0-0.6119-0.6523-0.8567-0.6799-0.8667
		l-0.0011-0.0003c0.0025,0.0178,0.0321,0.2269,0.0614,0.4711C17.5849,38.6459,17.6237,38.9937,17.6237,39.1587z"/>
	<path class="st2" d="M17.2473,41.7083c-0.0002,0.0015-0.02,0.1521,0.0453,0.3034c0.0398,0.0921,0.1748,0.3061,0.5693,0.3061
		l-0.0001,0c0.1498,0,0.2463-0.0336,0.2889-0.0998c0.0529-0.084-0.011-0.1917-0.0319-0.2227
		c-0.1052-0.1565-0.3507-0.3143-0.6616-0.3143l-0.0135,0.0001c-0.0649,0.0009-0.1324,0.0097-0.1962,0.0257L17.2473,41.7083z"/>
	<path class="st2" d="M21.29,42.5916c0.0636,0.0688,0.1557,0.1067,0.2596,0.1067l0.0002-0.0001c0.0892,0,0.1637-0.0442,0.189-0.1129
		c0.0251-0.0676,0.0184-0.1511-0.0199-0.2483c-0.0696-0.1767-0.2318-0.355-0.4369-0.355l-0.0092,0.0002
		c-0.0409,0.001-0.0848,0.0109-0.1278,0.029c-0.0011,0.015-0.0127,0.1776,0.0287,0.3425
		C21.1996,42.4571,21.2377,42.535,21.29,42.5916z"/>
	<path class="st2" d="M17.3754,41.2005l0.0007-0.0001c-0.0007-0.0177-0.0154-0.2972-0.2624-0.5665
		c-0.2392-0.2607-0.7526-0.5784-1.8396-0.6103h-0.001c0.0003,0.0025,0.0327,0.2512,0.1471,0.5118
		c0.1052,0.2393,0.3044,0.5381,0.6558,0.602c0.3544,0.0644,0.6915,0.0779,0.9118,0.0779l-0.0004-0.0002
		C17.2208,41.2152,17.3738,41.2005,17.3754,41.2005z"/>
	<path class="st2" d="M16.3477,39.6303c0.3746,0.2147,0.7134,0.3621,0.9062,0.3943c0.0068,0.0011,0.0136,0.0017,0.0205,0.0017
		l-0.0007-0.0001c0.0131,0,0.0246-0.0025,0.036-0.0074c0.0123-0.0059,0.0249-0.0207,0.0315-0.0367
		c0.0159-0.0385,0.0124-0.081,0.0003-0.1458c-0.021-0.1137-0.0737-0.263-0.1656-0.4702c-0.1449-0.3263-0.3308-0.6615-0.3525-0.7004
		l-0.0026-0.0033c-0.0025-0.0032-0.2608-0.3285-0.5892-0.6523c-0.1903-0.1877-0.369-0.3395-0.5311-0.4513
		c-0.208-0.1433-0.3621-0.2083-0.5065-0.2106c-0.0381,0-0.0739,0.0055-0.1076,0.0167c-0.0028,0.0253-0.029,0.2802-0.0071,0.5862
		c0.0309,0.4312,0.1377,0.7541,0.3175,0.9596C15.5941,39.1363,15.9318,39.3918,16.3477,39.6303z"/>
	<path class="st2" d="M18.8227,42.6255c-0.2255-0.0451-0.4613-0.0679-0.7009-0.0679c-0.0201,0-0.0398,0.0002-0.0593,0.0005
		c-0.4963,0.0076-0.855,0.1084-0.8563,0.1087l-0.0025,0.0009c-0.0007,0.0061-0.0044,0.0423,0.0025,0.0878
		c0.0072,0.0476,0.0277,0.1223,0.0844,0.2074c0.0997,0.1499,0.3324,0.3571,0.8749,0.4927c0.31,0.0775,0.6394,0.1168,0.9789,0.1168
		l-0.0005,0.0002c0.5761,0,0.987-0.1154,0.9919-0.1162l0.0011-0.0002l-0.0004-0.0007
		C20.1321,43.4488,19.6849,42.7979,18.8227,42.6255z"/>
	<path class="st2" d="M25.139,44.1875c0.0647,0.0703,0.1569,0.1091,0.2594,0.1091l0.0002-0.0008
		c0.0892,0,0.1669-0.045,0.1915-0.1121c0.0246-0.0661,0.0169-0.1506-0.0224-0.251c-0.0694-0.1767-0.2314-0.3549-0.4369-0.3549
		l-0.0092,0.0002c-0.0409,0.001-0.0848,0.0109-0.1278,0.029c-0.0011,0.0157-0.0125,0.18,0.0287,0.3451
		C25.0478,44.0528,25.0859,44.1297,25.139,44.1875z"/>
	<path class="st2" d="M28.5328,45.863l-0.0007-0.0007l0.0016,0.0008l-0.0006-0.0011c-0.9303-1.7611-1.897-1.9512-2.2749-1.9512
		c-0.1307,0.0007-0.2171,0.024-0.2175,0.024l-0.0011,0.0003l-0.0002,0.0011c-0.0006,0.0039-0.0564,0.3937,0.2156,0.8151
		C26.51,45.1465,27.1122,45.6601,28.5328,45.863z"/>
	<path class="st2" d="M23.946,44.9326c0.0411,0.0886,0.1267,0.2189,0.3017,0.3376c0.3044,0.2066,0.7665,0.3112,1.3734,0.3113
		l-0.0007-0.0002c0.2823,0,0.5999-0.0237,0.9436-0.0687l0.0009-0.0001l-0.0007-0.0007c-0.7527-0.7292-1.466-0.8822-1.9351-0.8822
		c-0.0331,0.0001-0.0647,0.001-0.0961,0.0025c-0.371,0.0173-0.6194,0.1277-0.6355,0.135
		C23.8987,44.7807,23.9075,44.8496,23.946,44.9326z"/>
	<path class="st2" d="M20.7035,42.7957l-0.0301,0.0003c-0.1961,0.0038-0.3177,0.0474-0.3179,0.0474l-0.0017,0.0007
		c0.0034,0.0155,0.0229,0.0953,0.0743,0.1995c0.0545,0.1104,0.159,0.2773,0.347,0.4458c0.3339,0.2992,1.0021,0.6651,2.2897,0.7106
		v-0.0005C22.022,42.9781,21.1379,42.7957,20.7035,42.7957z"/>
	<path class="st2" d="M24.4638,44.0699l0.0006-0.0006h-0.0008c-0.4846-1.4536-1.4311-1.6896-1.9522-1.701
		c-0.0154-0.0004-0.0304-0.0006-0.0453-0.0006c-0.0147,0-0.0291,0.0002-0.0429,0.0006c-0.1907,0.0048-0.3173,0.0378-0.3192,0.0384
		c0.0043,0.0157,0.1016,0.353,0.4266,0.7151C22.8407,43.4673,23.4277,43.9121,24.4638,44.0699z"/>
	<polygon class="st2" points="23.0652,44.2 23.0647,44.2 23.0647,44.2003 	"/>
	<path class="st2" d="M26.232,45.9182h-0.0096c-0.463,0.0018-0.7496,0.1412-0.9084,0.2578
		c-0.1668,0.1223-0.2355,0.2534-0.2355,0.2534L25.0783,46.43l0.0006,0.0003c0.5257,0.3022,1.0735,0.4555,1.6282,0.4556
		l0.0011,0.0008l-0.0008-0.0008c0.8847,0,1.4932-0.3963,1.5194-0.4136C27.4515,46.1046,26.7804,45.9182,26.232,45.9182z"/>
	<path class="st2" d="M20.9225,42.4073l0.0025,0.0008l-0.0008-0.0026c-0.2908-0.9257-0.6324-1.6043-1.0151-2.0174
		c-0.3332-0.3595-0.6337-0.4415-0.831-0.4471c-0.0129-0.0003-0.0256-0.0007-0.0379-0.0007c-0.0084,0-0.0168,0.0002-0.025,0.0007
		c-0.1427,0.009-0.2359,0.0587-0.2362,0.0588c0.4067,0.9714,0.9685,1.5744,1.368,1.9093c0.4288,0.3594,0.7719,0.4967,0.7749,0.4979
		L20.9225,42.4073z"/>
	<path class="st2" d="M24.0359,45.6343l-0.0092,0.0002c-0.0409,0.001-0.0848,0.0109-0.1278,0.029
		c-0.0011,0.0157-0.0125,0.18,0.0287,0.3451c0.0252,0.1008,0.0633,0.1778,0.1164,0.2355c0.0647,0.0703,0.1569,0.1091,0.2594,0.1091
		l0.0002-0.0008c0.09,0,0.1669-0.0458,0.1915-0.1121c0.0246-0.0661,0.0169-0.1506-0.0224-0.251
		C24.4033,45.8126,24.2414,45.6343,24.0359,45.6343z"/>
	<path class="st2" d="M23.3721,44.8992c-0.3059-0.2294-0.7652-0.3458-1.3652-0.3458c-0.0406,0-0.0808,0.0006-0.1207,0.0016
		c-0.6695,0.0163-1.2646,0.1673-1.2704,0.1688l-0.0016,0.0004l0.0006,0.0007c0.5483,0.5482,1.4275,0.7437,2.0675,0.7437
		l0.0006,0.0011l0.0491-0.0016c0.3481-0.0056,0.5943-0.0611,0.732-0.1651c0.0651-0.0491,0.0974-0.1149,0.0864-0.1759
		C23.5373,45.0539,23.4789,44.9794,23.3721,44.8992z"/>
	<path class="st2" d="M20.7557,44.3049c0.02-0.0608,0.0151-0.1314-0.0147-0.2156c-0.0291-0.0818-0.0782-0.1588-0.1381-0.2165
		c-0.045-0.0432-0.1172-0.0948-0.2119-0.0948h-0.0002c-0.0365,0.0009-0.0698,0.0084-0.0996,0.0225l-0.0001,0.0015
		c-0.0001,0.0015-0.0104,0.1494,0.0238,0.3007c0.0205,0.0905,0.0493,0.1561,0.0907,0.2064
		c0.0501,0.0606,0.1241,0.0955,0.2029,0.0955V44.404C20.6837,44.404,20.7394,44.3532,20.7557,44.3049z"/>
	<path class="st2" d="M40.2592,42.4503c0.009-0.0022,0.4896-0.126,0.9792-0.4276c0.4537-0.2793,1.0087-0.7734,1.0764-1.541v-0.0004
		l-0.0011-0.0003c-0.0001,0-0.0422-0.0102-0.1046-0.0126c-0.0086-0.0003-0.0178-0.0005-0.0273-0.0005
		c-0.1355,0-0.4129,0.0381-0.7486,0.2933C41.0061,41.0868,40.6118,41.6545,40.2592,42.4503z"/>
	<polygon class="st2" points="40.2588,42.4512 40.2592,42.4503 40.259,42.4503 	"/>
	<path class="st2" d="M41.8797,40.085h0.0008l-0.0002-0.0006c0.0015-0.0018,0.1256-0.1553,0.2482-0.346
		c0.1287-0.2001,0.2478-0.4089,0.2478-0.5797c0-0.165,0.0388-0.5128,0.062-0.7054c0.0293-0.2443,0.0589-0.4534,0.0614-0.4711
		l-0.0011,0.0003c-0.0276,0.0101-0.6799,0.2548-0.6799,0.8667c0,0.6129,0.0604,1.2287,0.061,1.2348L41.8797,40.085z"/>
	<path class="st2" d="M33.4352,45.5125l0.0009,0.0001c0.3437,0.045,0.6612,0.0687,0.9436,0.0687l-0.0007,0.0002
		c0.6069-0.0001,1.069-0.1048,1.3734-0.3113c0.175-0.1187,0.2606-0.249,0.3017-0.3376c0.0385-0.083,0.0472-0.1519,0.0486-0.1656
		c-0.016-0.0074-0.2645-0.1177-0.6355-0.135c-0.0313-0.0015-0.0629-0.0024-0.0961-0.0025c-0.4691,0-1.1824,0.153-1.9351,0.8822
		L33.4352,45.5125z"/>
	<path class="st2" d="M41.8811,41.9952c-0.0209,0.031-0.0849,0.1386-0.0319,0.2227c0.0426,0.0663,0.1391,0.0998,0.2889,0.0998
		l-0.0001,0c0.3945,0,0.5296-0.214,0.5693-0.3061c0.0653-0.1513,0.0455-0.3019,0.0453-0.3034l-0.0002-0.0016
		c-0.0638-0.016-0.1313-0.0248-0.1962-0.0257l-0.0135-0.0001C42.2318,41.6809,41.9864,41.8388,41.8811,41.9952z"/>
	<path class="st2" d="M36.9353,44.1995V44.2c1.2875-0.0454,1.9558-0.4114,2.2897-0.7106c0.188-0.1684,0.2925-0.3354,0.347-0.4458
		c0.0514-0.1043,0.0709-0.1841,0.0743-0.1995l-0.0017-0.0007c-0.0002,0-0.1219-0.0435-0.3179-0.0474l-0.0301-0.0003
		C38.8621,42.7957,37.978,42.9781,36.9353,44.1995z"/>
	<path class="st2" d="M34.6013,44.2958l0.0002,0.0008c0.1025,0,0.1947-0.0388,0.2594-0.1091
		c0.0531-0.0578,0.0912-0.1347,0.1164-0.2355c0.0412-0.1651,0.0299-0.3294,0.0287-0.3451c-0.043-0.0181-0.0869-0.028-0.1278-0.029
		l-0.0092-0.0002c-0.2055,0-0.3675,0.1782-0.4369,0.3549c-0.0394,0.1004-0.047,0.1849-0.0224,0.251
		C34.4344,44.2508,34.5121,44.2958,34.6013,44.2958z"/>
	<path class="st2" d="M37.4693,43.1218c0.325-0.3621,0.4223-0.6994,0.4266-0.7151c-0.0019-0.0006-0.1285-0.0336-0.3192-0.0384
		c-0.0138-0.0004-0.0282-0.0006-0.0429-0.0006c-0.0148,0-0.0299,0.0002-0.0453,0.0006c-0.5211,0.0114-1.4677,0.2474-1.9522,1.701
		h-0.0008l0.0006,0.0006C36.5723,43.9121,37.1593,43.4673,37.4693,43.1218z"/>
	<polygon class="st2" points="36.9353,44.2003 36.9353,44.2 36.9348,44.2 	"/>
	<path class="st2" d="M38.4502,42.6982l0.0002,0.0001c0.1039,0,0.196-0.0379,0.2596-0.1067
		c0.0523-0.0565,0.0903-0.1345,0.1162-0.238c0.0414-0.1649,0.0299-0.3275,0.0287-0.3425c-0.043-0.0181-0.0869-0.028-0.1278-0.029
		L38.718,41.982c-0.2051,0-0.3673,0.1783-0.4369,0.355c-0.0383,0.0972-0.045,0.1807-0.0199,0.2483
		C38.2865,42.654,38.361,42.6982,38.4502,42.6982z"/>
	<path class="st2" d="M44.9136,37.365c-0.0337-0.0112-0.0696-0.0167-0.1076-0.0167c-0.1444,0.0024-0.2985,0.0674-0.5065,0.2106
		c-0.1621,0.1117-0.3409,0.2636-0.5311,0.4513c-0.3283,0.3238-0.5866,0.6491-0.5891,0.6523l-0.0026,0.0033
		c-0.0217,0.0389-0.2076,0.3741-0.3525,0.7004c-0.092,0.2072-0.1446,0.3566-0.1656,0.4702
		c-0.012,0.0647-0.0155,0.1072,0.0003,0.1458c0.0066,0.016,0.0192,0.0308,0.0315,0.0367c0.0115,0.0049,0.0229,0.0074,0.036,0.0074
		l-0.0007,0.0001c0.0069,0,0.0137-0.0007,0.0205-0.0017c0.1928-0.0322,0.5316-0.1796,0.9062-0.3943
		c0.4159-0.2385,0.7536-0.494,0.951-0.7194c0.1799-0.2056,0.2867-0.5284,0.3175-0.9596
		C44.9426,37.6452,44.9164,37.3903,44.9136,37.365z"/>
	<path class="st2" d="M41.221,39.9998c-0.0002-0.0001-0.0935-0.0498-0.2362-0.0588c-0.0083-0.0006-0.0166-0.0007-0.025-0.0007
		c-0.0123,0-0.025,0.0004-0.0379,0.0007c-0.1973,0.0056-0.4978,0.0876-0.831,0.4471c-0.3827,0.413-0.7243,1.0917-1.0151,2.0174
		l-0.0008,0.0026l0.0025-0.0008l0.0007-0.0003c0.003-0.0012,0.3461-0.1385,0.7749-0.4979
		C40.2526,41.5742,40.8143,40.9712,41.221,39.9998z"/>
	<path class="st2" d="M42.7939,42.6667c-0.0014-0.0003-0.3601-0.1011-0.8563-0.1087c-0.0196-0.0003-0.0393-0.0005-0.0593-0.0005
		c-0.2395,0-0.4753,0.0228-0.7009,0.0679c-0.8622,0.1724-1.3094,0.8233-1.3137,0.8298l-0.0004,0.0007l0.0011,0.0002
		c0.0049,0.0008,0.4157,0.1162,0.9919,0.1162l-0.0005-0.0002c0.3395,0,0.6689-0.0393,0.9789-0.1168
		c0.5425-0.1357,0.7752-0.3428,0.8749-0.4927c0.0566-0.0851,0.0772-0.1597,0.0844-0.2074c0.007-0.0455,0.0033-0.0818,0.0025-0.0878
		L42.7939,42.6667z"/>
	<path class="st2" d="M42.8862,40.6339c-0.247,0.2692-0.2616,0.5488-0.2624,0.5665l0.0007,0.0001
		c0.0016,0,0.1547,0.0147,0.3879,0.0147l-0.0004,0.0002c0.2203,0,0.5574-0.0135,0.9118-0.0779
		c0.3514-0.0639,0.5506-0.3627,0.6558-0.602c0.1145-0.2607,0.1468-0.5093,0.1471-0.5118h-0.001
		C43.6388,40.0556,43.1254,40.3732,42.8862,40.6339z"/>
	<path class="st2" d="M39.7088,43.8006c-0.0298-0.0141-0.0631-0.0216-0.0996-0.0225H39.609c-0.0947,0-0.1669,0.0516-0.2119,0.0948
		c-0.06,0.0577-0.1091,0.1346-0.1381,0.2165c-0.0299,0.0843-0.0347,0.1548-0.0147,0.2156c0.0164,0.0483,0.072,0.099,0.1473,0.099
		v0.0007c0.0788,0,0.1528-0.0349,0.2029-0.0955c0.0414-0.0503,0.0702-0.1159,0.0907-0.2064
		c0.0342-0.1512,0.0239-0.2992,0.0238-0.3007L39.7088,43.8006z"/>
	<path class="st2" d="M38.1138,44.555c-0.0399-0.001-0.0801-0.0016-0.1207-0.0016c-0.6,0-1.0593,0.1164-1.3652,0.3458
		c-0.1068,0.0801-0.1651,0.1547-0.1782,0.2278c-0.011,0.0611,0.0213,0.1269,0.0864,0.1759c0.1377,0.104,0.384,0.1595,0.732,0.1651
		l0.0491,0.0016l0.0006-0.0011c0.64,0,1.5192-0.1954,2.0675-0.7437l0.0006-0.0007l-0.0016-0.0004
		C39.3785,44.7223,38.7833,44.5713,38.1138,44.555z"/>
	<path class="st2" d="M34.686,46.176c-0.1588-0.1166-0.4454-0.256-0.9084-0.2578H33.768c-0.5484,0-1.2195,0.1864-1.9946,0.5541
		c0.0262,0.0174,0.6347,0.4136,1.5194,0.4136l-0.0008,0.0008l0.0011-0.0008c0.5546-0.0001,1.1024-0.1534,1.6282-0.4556
		l0.0006-0.0003l-0.0002-0.0007C34.9215,46.4294,34.8527,46.2984,34.686,46.176z"/>
	<path class="st2" d="M30.6855,46.6441l0.4641-0.2164l-0.248-0.2787l-0.8518,0.3647L30,46.5239l-0.0499-0.0102l-0.8518-0.3647
		l-0.248,0.2787l0.4641,0.2164l0.0702,0.0217l-1.146,0.8429l0.0009,0.0007c0.0024,0.002,0.171,0.1422,0.3385,0.2945
		c0.0747,0.0679,0.1689,0.1552,0.2354,0.2278c0.0307,0.0334,0.0577,0.0665,0.0761,0.0933c0.0113,0.0164,0.0176,0.0313,0.0206,0.0385
		l-0.073-0.0454l-0.0791,0.0615l0.1611,0.0151l0.0074,0.0016l0.0012,0.0007c0.0147-0.007,0.0178-0.01,0.0284-0.0201l0.0102-0.0096
		c0.0265-0.0243,0.0705-0.0673,0.1295-0.1345c0.109-0.1238,0.2552-0.3051,0.3838-0.4652c0.2549-0.3178,0.4656-0.5915,0.5053-0.6431
		L30,46.905l0.0151,0.0196c0.0397,0.0516,0.2503,0.3253,0.5053,0.6431c0.1286,0.1602,0.2748,0.3414,0.3838,0.4652
		c0.059,0.0672,0.103,0.1102,0.1295,0.1345l0.0102,0.0096c0.0106,0.0101,0.0137,0.013,0.0284,0.0201l0.0011-0.0007l0.0074-0.0016
		l0.1611-0.0151l-0.0791-0.0615l-0.073,0.0454c0.003-0.0072,0.0093-0.0221,0.0206-0.0385c0.0184-0.0268,0.0454-0.0599,0.0761-0.0933
		c0.0665-0.0726,0.1607-0.1598,0.2354-0.2278c0.1675-0.1523,0.3361-0.2926,0.3385-0.2945l0.0009-0.0007l-1.146-0.8429
		L30.6855,46.6441z"/>
	<path class="st2" d="M35.9733,45.6345l-0.0092-0.0002c-0.2055,0-0.3675,0.1782-0.4369,0.3549
		c-0.0394,0.1004-0.047,0.1849-0.0224,0.251c0.0245,0.0663,0.1015,0.1121,0.1915,0.1121l0.0002,0.0008
		c0.1025,0,0.1947-0.0388,0.2594-0.1091c0.0531-0.0578,0.0912-0.1347,0.1164-0.2355c0.0412-0.1651,0.0299-0.3294,0.0287-0.3451
		C36.0581,45.6454,36.0142,45.6355,35.9733,45.6345z"/>
	<path class="st2" d="M31.4672,45.863c1.4206-0.2029,2.0228-0.7165,2.2778-1.1116c0.2719-0.4214,0.2161-0.8112,0.2156-0.8151
		l-0.0002-0.0011l-0.0011-0.0003c-0.0004,0-0.0868-0.0233-0.2175-0.024c-0.3779,0-1.3446,0.1901-2.2749,1.9512l-0.0006,0.0011
		l0.0016-0.0008L31.4672,45.863z"/>
</g>
</svg>
