<?xml version="1.0" encoding="utf-8"?>
<!-- Generator: Adobe Illustrator 21.1.0, SVG Export Plug-In . SVG Version: 6.00 Build 0)  -->
<svg version="1.1" id="Layer_1" xmlns="http://www.w3.org/2000/svg" xmlns:xlink="http://www.w3.org/1999/xlink" x="0px" y="0px"
	 viewBox="0 0 60 60" style="enable-background:new 0 0 60 60;" xml:space="preserve">
<style type="text/css">
	.st0{fill:#6AB2E7;}
	.st1{fill:#12AD2B;}
	.st2{fill:#FFFFFF;}
	.st3{fill:#FF0000;}
</style>
<g>
	<g>
		<g>
			<path class="st0" d="M60,30.0004C60,13.4325,46.567,0,30.0007,0C19.5881,0,10.4219,5.3071,5.0388,13.3595l24.9619,16.6409H60z"/>
			<path class="st1" d="M60,30.0004H30.0007L5.0388,46.6413C10.4219,54.6936,19.5881,60,30.0007,60C46.567,60,60,46.5695,60,30.0004
				z"/>
			<path class="st2" d="M5.0388,13.3595C1.8574,18.1225,0,23.8443,0,30.0004c0,6.1567,1.8574,11.8779,5.0388,16.6409
				l24.9619-16.6409L5.0388,13.3595z"/>
		</g>
		<polygon class="st3" points="10.9995,25.4331 12.1346,28.9222 15.7984,28.9222 12.8314,31.0778 13.9664,34.5663 10.9995,32.4087 
			8.0312,34.5663 9.1663,31.0778 6.1993,28.9222 9.8684,28.9222 		"/>
	</g>
</g>
</svg>
