<?xml version="1.0" encoding="utf-8"?>
<!-- Generator: Adobe Illustrator 21.1.0, SVG Export Plug-In . SVG Version: 6.00 Build 0)  -->
<svg version="1.1" id="Layer_1" xmlns="http://www.w3.org/2000/svg" xmlns:xlink="http://www.w3.org/1999/xlink" x="0px" y="0px"
	 viewBox="0 0 335 335" style="enable-background:new 0 0 335 335;" xml:space="preserve">
<style type="text/css">
	.st0{fill:#D00C33;}
	.st1{fill:#FFFFFF;}
</style>
<g>
	<g>
		<path class="st0" d="M1.87,192.63c9.6,63.79,55.17,115.78,115.37,134.69V192.63H1.87z"/>
		<path class="st0" d="M117.25,7.68C57.04,26.59,11.47,78.59,1.87,142.37h115.37V7.68z"/>
		<path class="st0" d="M167.49,334.99h0.33c83.82-0.16,153.19-61.89,165.3-142.36H167.49V334.99z"/>
		<path class="st0" d="M167.49,142.37h165.63C321,61.86,251.57,0.11,167.71,0h-0.22V142.37z"/>
		<path class="st1" d="M167.49,192.63h165.63c1.24-8.2,1.88-16.59,1.88-25.13c0-8.54-0.64-16.93-1.88-25.13H167.49V0l0,0
			c-17.5,0-34.38,2.7-50.25,7.68v134.69H1.87C0.66,150.57,0,158.96,0,167.5c0,8.54,0.66,16.93,1.87,25.13h115.37v134.69
			c15.86,4.99,32.74,7.68,50.25,7.68v-0.01V192.63z"/>
	</g>
</g>
</svg>
