<?xml version="1.0" encoding="utf-8"?>
<!-- Generator: Adobe Illustrator 21.1.0, SVG Export Plug-In . SVG Version: 6.00 Build 0)  -->
<svg version="1.1" id="Layer_1" xmlns="http://www.w3.org/2000/svg" xmlns:xlink="http://www.w3.org/1999/xlink" x="0px" y="0px"
	 viewBox="0 0 60 60" style="enable-background:new 0 0 60 60;" xml:space="preserve">
<style type="text/css">
	.st0{fill:#156C3F;}
	.st1{fill:#FFCE00;}
	.st2{fill:#FFFFFF;}
	.st3{fill:#DE1F26;}
	.st4{fill:#000100;}
	.st5{fill:#8764A7;}
	.st6{fill:#EA0337;}
	.st7{fill:#FECE00;}
	.st8{fill:#009543;}
	.st9{fill:#AA5600;}
</style>
<g>
	<g>
		<path class="st0" d="M21.9999,1.113C11.8751,3.9113,3.9145,11.8719,1.1136,22.0001h20.8863V1.113z"/>
		<path class="st0" d="M38.0014,58.8876c10.1262-2.7989,18.0854-10.7588,20.8849-20.8872H38.0014V58.8876z"/>
		<path class="st0" d="M1.1136,38.0004c2.8009,10.1284,10.7615,18.0883,20.8863,20.8872V38.0004H1.1136z"/>
		<path class="st0" d="M58.8864,22.0001C56.0869,11.8719,48.1277,3.9113,38.0014,1.113v20.8872H58.8864z"/>
		<path class="st1" d="M21.9999,38.0004v20.8872c1.7208,0.4758,3.5019,0.8163,5.3326,0.9783V38.0004H21.9999z"/>
		<path d="M27.3325,38.0004v21.8655C28.213,59.9424,29.0988,60,30.0007,60c0.8993,0,1.7877-0.0576,2.6682-0.1341V38.0004H27.3325z"
			/>
		<path d="M32.6689,22.0001V0.1339C31.7884,0.057,30.9,0,30.0007,0c-0.9019,0-1.7877,0.057-2.6682,0.1339v21.8662H32.6689z"/>
		<path class="st2" d="M32.6689,22.0001h5.3326V1.113c-1.7221-0.4763-3.5005-0.8162-5.3326-0.979V22.0001z"/>
		<path class="st1" d="M58.8864,22.0001H27.3325V0.1339c-1.8307,0.1629-3.6118,0.5027-5.3326,0.979v20.8872H1.1136
			c-0.4772,1.7228-0.8161,3.4985-0.9797,5.3319h59.7321C59.7052,25.4986,59.3649,23.723,58.8864,22.0001z"/>
		<path d="M59.8661,27.3321H0.1339C0.0563,28.2119,0,29.0991,0,30.0003c0,0.9007,0.0563,1.7879,0.1339,2.6684h59.7321
			C59.9451,31.7881,60,30.9009,60,30.0003C60,29.0991,59.9451,28.2119,59.8661,27.3321z"/>
		<path class="st2" d="M0.1339,32.6686c0.1636,1.8326,0.5025,3.6084,0.9797,5.3318h31.5553v21.8655
			c1.832-0.1621,3.6104-0.5026,5.3326-0.9783V38.0004h20.8849c0.4785-1.7234,0.8188-3.4992,0.9797-5.3318H0.1339z"/>
		<g>
			<g>
				<ellipse class="st3" cx="30.0017" cy="29.9997" rx="16.6414" ry="16.6445"/>
				<g>
					<g>
						<polygon class="st0" points="30.0021,15.3476 30.5086,16.9069 32.1436,16.9069 30.8168,17.8631 31.3261,19.4284 
							30.0021,18.4614 28.6753,19.4284 29.1805,17.8631 27.8578,16.9069 29.4928,16.9069 						"/>
						<path d="M30.0021,18.5318l-1.4327,1.0413l0.5469-1.6833l-1.43-1.0339h1.7689l0.496-1.5151l0.0509-0.1634l0.5454,1.6785h1.7651
							l-1.4313,1.0339l0.5495,1.6833L30.0021,18.5318L30.0021,18.5318z M31.2175,19.2796l-0.4663-1.4313l1.2194-0.8865h-1.509
							l-0.4596-1.4239l-0.4665,1.4239h-1.513l1.2208,0.8865l-0.4596,1.4313l1.2182-0.8852L31.2175,19.2796L31.2175,19.2796z"/>
					</g>
					<g>
						<polygon class="st0" points="21.3916,18.1492 22.7116,19.1101 24.041,18.1492 23.5317,19.7024 24.8517,20.6661 
							23.2181,20.6661 22.7116,22.2213 22.2117,20.6661 20.5767,20.6661 21.8995,19.7024 						"/>
						<path d="M22.1635,20.7243h-1.7637l1.4272-1.0433l-0.4877-1.511l0.0523-0.0207L21.3393,18.17l-0.0497-0.1669l1.422,1.0394
							l1.4365-1.0394l-0.5507,1.6779l1.4339,1.0433h-1.7717l-0.5481,1.6812L22.1635,20.7243L22.1635,20.7243z M21.9597,19.7292
							l-1.2155,0.8765h1.4997l0.4677,1.4407l0.4623-1.4407h1.5104l-1.2182-0.8765l0.4649-1.4366l-1.2194,0.8872l-1.2129-0.8872
							L21.9597,19.7292L21.9597,19.7292z"/>
					</g>
					<g>
						<polygon class="st0" points="16.0697,25.4719 17.7061,25.4719 18.2114,23.9186 18.7193,25.4719 20.3529,25.4719 
							19.0329,26.4367 19.5394,27.9915 18.2114,27.0278 16.8872,27.9915 17.3911,26.4367 						"/>
						<path d="M18.2114,27.0982l-1.43,1.0413l0.5467-1.6833L16.039,25.516l0.0307-0.0442L16.039,25.516l-0.1381-0.1011h1.7663
							l0.5441-1.6773l0.5454,1.6773h1.7677l-1.4312,1.0413l0.5521,1.6893L18.2114,27.0982L18.2114,27.0982z M19.4308,27.8474
							l-0.4703-1.436l1.2182-0.8791h-1.5037l-0.4637-1.4346l-0.4665,1.4346h-1.5037l1.2182,0.8791l-0.4677,1.436l1.2196-0.89
							L19.4308,27.8474L19.4308,27.8474z"/>
					</g>
					<g>
						<polygon class="st0" points="16.0697,34.5261 17.3911,33.5638 16.8872,32.0092 18.2114,32.9715 19.5394,32.0092 
							19.0329,33.5638 20.3529,34.5261 18.7193,34.5261 18.2114,36.0793 17.7061,34.5261 						"/>
						<path d="M17.6672,34.585h-1.5975v-0.0589l0.0349,0.0414l-0.0349-0.0414v0.0589l-0.1688-0.0054l1.4272-1.0358l-0.5467-1.6833
							l1.43,1.0374l1.4286-1.042l-0.5467,1.688l1.4312,1.0412h-1.7677l-0.5454,1.6765L17.6672,34.585L17.6672,34.585z
							 M17.7449,34.4664l0.4665,1.436l0.4637-1.436h1.509l-1.2236-0.8771l0.4703-1.4374l-1.2195,0.8865l-1.2196-0.8865
							l0.4677,1.4374l-1.2182,0.8771H17.7449L17.7449,34.4664z"/>
					</g>
					<g>
						<polygon class="st0" points="21.3916,41.8515 21.8995,40.2969 20.5767,39.3339 22.2117,39.3339 22.7116,37.7779 
							23.2181,39.3339 24.8517,39.3339 23.5317,40.2969 24.041,41.8515 22.7116,40.8906 						"/>
						<path d="M22.7116,40.9529l-1.2893,0.9407l-0.1327,0.0972l0.5374-1.6725l-1.4272-1.0427h1.7637l0.5481-1.6819l0.5481,1.6819
							h1.7717l-1.4339,1.0427l0.5507,1.6725L22.7116,40.9529L22.7116,40.9529z M21.4437,41.8635l-0.0521-0.0121L21.4437,41.8635
							L21.4437,41.8635z M21.9597,40.2693l-0.461,1.4374l1.2129-0.8858l1.2194,0.8858l-0.4649-1.4374l1.2182-0.8845h-1.5104
							l-0.4623-1.4279l-0.4677,1.4279h-1.4997L21.9597,40.2693L21.9597,40.2693z"/>
					</g>
					<g>
						<polygon class="st0" points="30.0021,44.6538 29.4928,43.0897 27.8578,43.0897 29.1805,42.1376 28.6753,40.5715 
							30.0021,41.5377 31.3261,40.5715 30.8168,42.1376 32.1436,43.0897 30.5086,43.0897 						"/>
						<path d="M29.4552,43.148h-1.7689l1.43-1.038l-0.5401-1.6838l1.426,1.0373l1.4286-1.0373L30.8812,42.11l1.4313,1.038h-1.7651
							l-0.4972,1.5118l-0.0482,0.1667L29.4552,43.148L29.4552,43.148z M30.0021,44.6538l0.0482-0.0248L30.0021,44.6538
							L30.0021,44.6538z M29.2434,42.1476l-1.2208,0.8905h1.513l0.4665,1.424l0.4596-1.424h1.5117l-1.2222-0.8905l0.4663-1.4233
							l-1.2155,0.8812l-1.2182-0.8812L29.2434,42.1476L29.2434,42.1476z"/>
					</g>
					<g>
						<polygon class="st0" points="38.6072,41.8515 37.2898,40.8906 35.959,41.8515 36.4697,40.2969 35.1429,39.3339 
							36.7791,39.3339 37.2898,37.7779 37.7897,39.3339 39.4314,39.3339 38.1019,40.2969 						"/>
						<path d="M37.2898,40.9529l-1.4379,1.0379l0.5535-1.6725l-1.4313-1.0427h1.7637l0.5441-1.6819l0.5561,1.6819h1.7651
							l-1.4353,1.0427l0.4944,1.5111l-0.0549,0.0221l0.0389-0.0462l-0.0389,0.0462l0.0549-0.0221l0.0563,0.1614L37.2898,40.9529
							L37.2898,40.9529z M36.5327,40.2693l-0.4637,1.4374l1.2129-0.8858l1.2194,0.8819l-0.4596-1.4334l1.2155-0.8845h-1.5076
							l-0.4677-1.4279l-0.4557,1.4279h-1.5116L36.5327,40.2693L36.5327,40.2693z"/>
					</g>
					<g>
						<polygon class="st0" points="43.9316,34.5261 42.2953,34.5261 41.79,36.0793 41.2888,34.5261 39.6497,34.5261 
							40.9699,33.5638 40.4619,32.0092 41.79,32.9715 43.1114,32.0092 42.6089,33.5638 						"/>
						<path d="M41.2459,34.585h-1.7677l1.4287-1.0412l-0.5455-1.6833l1.4286,1.0374l1.4273-1.042l-0.5441,1.688l1.2906,0.938
							l-0.0321,0.0443v-0.0597v0.0597l0.0321-0.0443l0.1406,0.0978h-1.7717L41.79,36.2615L41.2459,34.585L41.2459,34.585z
							 M41.0422,33.5893l-1.2249,0.8771h1.5104l0.4624,1.436l0.4664-1.436h1.5049l-1.2208-0.8771l0.4651-1.4374L41.79,33.0385
							l-1.2196-0.8865L41.0422,33.5893L41.0422,33.5893z"/>
					</g>
					<g>
						<polygon class="st0" points="43.9316,25.4719 42.6089,26.4367 43.1114,27.9915 41.79,27.0278 40.4619,27.9915 
							40.9699,26.4367 39.6497,25.4719 41.2888,25.4719 41.79,23.9186 42.2953,25.4719 						"/>
						<path d="M41.79,27.0982l-1.4286,1.0413l0.5455-1.6833l-1.4287-1.0413h1.7677l0.5442-1.6773l0.5427,1.6773h1.5989v0.057v-0.057
							h0.1702l-1.4286,1.0413l0.5441,1.6893L41.79,27.0982L41.79,27.0982z M43.0056,27.8474l-0.4651-1.436l1.2208-0.8791h-1.5049
							L41.79,24.0976l-0.4624,1.4346h-1.5104l1.2249,0.8791l-0.4718,1.436l1.2196-0.89L43.0056,27.8474L43.0056,27.8474z"/>
					</g>
					<g>
						<polygon class="st0" points="38.6072,18.1492 38.1019,19.7024 39.4314,20.6661 37.7897,20.6661 37.2898,22.2213 
							36.7791,20.6661 35.1429,20.6661 36.4697,19.7024 35.959,18.1492 37.2898,19.1101 						"/>
						<path d="M36.7403,20.7243h-1.7689l1.4339-1.0433l-0.5535-1.6779l1.4379,1.0394l1.2865-0.9362l0.142-0.1032l-0.5507,1.6779
							l1.4353,1.0433h-1.7651l-0.5481,1.6812L36.7403,20.7243L36.7403,20.7243z M36.5327,19.7292l-1.2182,0.8765h1.5049
							l0.4704,1.4407l0.4637-1.4407h1.5037l-1.2155-0.8765l0.4596-1.4366l-1.2115,0.8872l-1.2208-0.8872L36.5327,19.7292
							L36.5327,19.7292z"/>
					</g>
				</g>
			</g>
			<g>
				<path class="st4" d="M29.2167,20.8288h0.1662c0.4114,0.0174,0.8242,0.1193,1.174,0.3498
					c0.3029,0.2017,0.5802,0.4563,0.8589,0.6969c0.2319,0.2091,0.4584,0.4128,0.6929,0.6031
					c0.268,0.2211,0.5548,0.4295,0.8846,0.5488c0.0375,0.0067,0.0777,0.0274,0.1072,0.0428
					c-0.1555,0.0188-0.3124,0.057-0.4812,0.0644c-0.126,0.0128-0.248,0.004-0.3779,0.004c0.2024,0.1253,0.406,0.2513,0.6325,0.3149
					c0.0818,0.0202,0.1703,0.0128,0.2507,0.0202c-0.0683,0.081-0.1313,0.1608-0.2064,0.2345
					c-0.0751,0.0837-0.1703,0.1553-0.2614,0.2197c0.2171,0.1448,0.4383,0.2995,0.697,0.3819
					c0.087,0.0256,0.1916,0.0256,0.288,0.0256c-0.1393,0.199-0.3135,0.3719-0.5253,0.4912
					c0.1715,0.1086,0.3538,0.2118,0.5521,0.2553c0.0711,0.0121,0.1408,0.0121,0.2145,0.0209
					c-0.1568,0.2071-0.3458,0.4007-0.583,0.5165c0.1608,0.1006,0.3296,0.189,0.5146,0.2487
					c0.0831,0.0147,0.1755,0.0147,0.2573,0.0147c-0.1341,0.1804-0.2936,0.3505-0.4865,0.4658
					c-0.2171,0.1394-0.4851,0.1983-0.7345,0.1776c-0.1795-0.0161-0.3578-0.0697-0.5146-0.132
					c0.6366,0.8477,1.1338,1.7972,1.5359,2.7742c0.3324,0.8235,0.5964,1.6778,0.7236,2.5597c0.055,0.3705,0.079,0.7471,0.055,1.1211
					c-0.0162,0.1602-0.0402,0.3249-0.0871,0.4805c-0.0148,0.0395-0.0067,0.0737,0.0121,0.1052
					c0.0844,0.3155,0.1179,0.6546,0.1099,0.985c0,0.0725-0.0174,0.1422,0,0.2178c0.0563,0.2272,0.0937,0.4684,0.0965,0.7022v0.1715
					c-0.0121,0.3284-0.0604,0.6541-0.1006,0.973c-0.15-0.3189-0.2841-0.6446-0.4342-0.9635
					c-0.004,0.2171-0.0161,0.4295-0.0295,0.6446c0.1194,0.0844,0.2038,0.2071,0.2373,0.3471
					c0.0388,0.1997-0.0202,0.4149-0.1648,0.5541c-0.059,0.0571-0.1193,0.0979-0.1971,0.1294
					c-0.0495,0.2868-0.1032,0.5662-0.2292,0.8349c-0.0602,0.122-0.1246,0.2439-0.2292,0.325
					c-0.0495,0.0382-0.1179,0.059-0.1781,0.0697c-0.043,0.1722-0.0778,0.3517-0.1529,0.5058
					c-0.0428,0.0865-0.0911,0.1709-0.1795,0.2131c-0.0618,0.0382-0.1501,0.0302-0.201-0.0114
					c-0.0725-0.053-0.1327-0.1286-0.1757-0.2097c-0.0911-0.1529-0.1567-0.3257-0.2116-0.4946
					c-0.1099,0.0128-0.2131-0.0462-0.2761-0.1193c-0.1099-0.1153-0.1822-0.246-0.248-0.3806c-0.1381,0.0207-0.2895,0-0.4289-0.0476
					c-0.1676,0.0797-0.3619,0.0476-0.536-0.0047c-0.1059,0.0804-0.2492,0.0804-0.374,0.069
					c-0.0589-0.0067-0.1165-0.0269-0.1795-0.0383c-0.0402-0.0168-0.0751,0.0114-0.1073,0.0215
					c-0.1407,0.0321-0.2813,0.01-0.4168-0.0302c-0.3069-0.0891-0.5869-0.2794-0.7866-0.5381c-0.2104,0-0.4142,0-0.6299,0
					c-0.1018,0-0.1996-0.0074-0.3069-0.004c-0.3565,0-0.717-0.0095-1.0789-0.0202c-0.3645-0.0187-0.733-0.0268-1.0909-0.0703
					c-0.0697-0.0074-0.1381-0.0108-0.1862-0.0597c-0.0818-0.063-0.1394-0.1434-0.1997-0.2231
					c-0.1434-0.1943-0.2654-0.4114-0.3712-0.6239c-0.0322-0.077-0.0711-0.1508-0.1006-0.2318v-0.0725
					c0.1662,0,0.3284,0,0.4879-0.0207c0.0616-0.0174,0.142-0.0309,0.1581-0.0939c0.0282-0.063,0.0376-0.136,0.0537-0.1997
					c0.0523-0.1521,0.1179-0.2922,0.2185-0.4073c0.1139-0.1327,0.2787-0.2198,0.4556-0.2198
					c0.327,0.0067,0.6204,0.2124,0.7894,0.4831c0.059,0.1053,0.0897,0.2345,0.1032,0.3532
					c0.0107,0.0589,0.0107,0.1193,0.0388,0.1642c0.0255,0.0355,0.067,0.0261,0.1046,0.0261
					c0.5172-0.0126,1.0306-0.0347,1.5439-0.0556c0.1393-0.1783,0.3162-0.3303,0.5119-0.4375
					c-0.1567-0.2312-0.2251-0.506-0.2613-0.788c-0.1206-0.0155-0.2264-0.11-0.2989-0.2152
					c-0.1139-0.1655-0.1783-0.3672-0.2225-0.5716c-0.0495-0.2452-0.067-0.5126-0.02-0.7666c0.004-0.0314-0.0081-0.0482-0.0228-0.069
					c-0.0295-0.0925-0.0604-0.1776-0.0899-0.2653c-0.008-0.0256-0.02-0.0476-0.0361-0.0697
					c-0.6166-0.6782-1.115-1.4608-1.4166-2.3379c-0.2197-0.6185-0.331-1.2766-0.3417-1.9367c-0.0228-0.4361,0-0.8777,0.0322-1.3214
					c0.0898-0.8979,0.2948-1.7952,0.7036-2.5985c0.0281-0.0549,0.0696-0.1059,0.0696-0.1695
					c-0.0026-0.1468,0.0697-0.2875,0.1757-0.39c0.0079-0.0925,0.0348-0.1857,0.0804-0.2601
					c0.0347-0.0616,0.0844-0.0991,0.1367-0.1555c0.0026-0.0911,0.0335-0.189,0.087-0.2699
					c-0.0186-0.0061-0.0402-0.0209-0.0576-0.0262c-0.1621,0.1186-0.3524,0.1883-0.5467,0.205
					c-0.146,0.0174-0.3096-0.0066-0.4423-0.0978c-0.1112,0.189-0.1715,0.4048-0.2304,0.6173
					c-0.1515-0.3372-0.2854-0.6803-0.3203-1.0508c-0.0161-0.2144,0.004-0.4523,0.126-0.6446
					c0.1099-0.1602,0.2815-0.2747,0.4703-0.325c0.0939-0.0267,0.1903-0.0555,0.2815-0.073
					c0.0563-0.3418,0.2185-0.6761,0.4999-0.8758C28.3885,20.9481,28.8066,20.8463,29.2167,20.8288L29.2167,20.8288z"/>
				<path class="st5" d="M28.4301,21.0975c0.3859-0.1494,0.8134-0.1869,1.2275-0.1367c0.2935,0.0388,0.5844,0.1367,0.8363,0.3069
					c0.2773,0.1817,0.5213,0.4055,0.7719,0.6259c0.3886,0.3484,0.7773,0.7036,1.2115,0.9977
					c0.0723,0.0416,0.1474,0.0832,0.2292,0.1294c-0.2721,0.0342-0.5562,0.0134-0.8175-0.0805
					c-0.0925-0.0321-0.1876-0.0697-0.2788-0.1146c-0.2573,0.1783-0.52,0.3719-0.8175,0.5005
					c-0.1876,0.0797-0.394,0.1301-0.6057,0.1615c-0.3055,0.0523-0.6178,0.0978-0.9273,0.0804
					c-0.3191-0.008-0.6473-0.0596-0.9395-0.1964c-0.0134-0.0059-0.0281-0.0126-0.0161-0.0335
					c0.0844-0.0978,0.1553-0.211,0.1434-0.3463c-0.0081-0.1488-0.1327-0.254-0.2573-0.2922
					c0.0294-0.0891,0.0535-0.1869,0.0294-0.2808c-0.0174-0.122-0.0737-0.2492-0.1795-0.3176
					c-0.1099-0.0765-0.2547-0.0804-0.3819-0.059c0.0468-0.2366,0.1474-0.4751,0.3136-0.6513
					C28.1003,21.2551,28.2651,21.1747,28.4301,21.0975L28.4301,21.0975z"/>
				<path class="st4" d="M29.1095,21.7421c0.1555-0.0167,0.3336,0.0081,0.477,0.102c0.0711,0.0495,0.1354,0.14,0.1327,0.2332
					c-0.0093,0.0925-0.0777,0.1782-0.1567,0.2197c-0.1287,0.0704-0.2949,0.0971-0.4383,0.0865
					c-0.1232-0.0161-0.2478-0.0482-0.3445-0.1279c-0.0616-0.0483-0.1072-0.1253-0.1044-0.205c0-0.0811,0.0428-0.1475,0.1085-0.1985
					C28.8763,21.7844,28.9929,21.7502,29.1095,21.7421L29.1095,21.7421z"/>
				<path class="st6" d="M29.0612,21.852c0.1488-0.0247,0.2975-0.0079,0.4275,0.059c0.0469,0.0295,0.0978,0.073,0.114,0.1286
					c0.0228,0.0523-0.0202,0.112-0.0671,0.1427c-0.0925,0.0731-0.2171,0.0885-0.3256,0.0966
					c-0.126-0.0081-0.2492-0.0235-0.3511-0.0966c-0.0349-0.0388-0.0792-0.077-0.0751-0.1319c0-0.0456,0.0321-0.0846,0.0709-0.1153
					C28.9178,21.8897,28.9929,21.8688,29.0612,21.852L29.0612,21.852z"/>
				<path class="st4" d="M29.1216,21.903c0.0951-0.0301,0.2238,0.0376,0.2185,0.1475c-0.0041,0.1065-0.1434,0.1674-0.2305,0.1279
					c-0.0697-0.0268-0.1234-0.0965-0.0992-0.1695C29.021,21.9526,29.0707,21.9144,29.1216,21.903L29.1216,21.903z"/>
				<path class="st7" d="M27.3204,22.2388c0.1567-0.0516,0.3108-0.0986,0.4824-0.0986c0.0965,0.0033,0.1997,0.0422,0.2533,0.1307
					c0.0537,0.0925,0.0818,0.2043,0.0537,0.3089c-0.039,0.136-0.1408,0.2559-0.2601,0.3224
					c-0.0844,0.0428-0.1715,0.0596-0.2533,0.1072c-0.3136,0.1669-0.5172,0.4993-0.6271,0.8268
					c-0.1018-0.2473-0.1809-0.5019-0.201-0.7659c-0.016-0.1957,0.0134-0.4094,0.1327-0.5742
					C27.0001,22.3634,27.1582,22.2709,27.3204,22.2388L27.3204,22.2388z"/>
				<path class="st4" d="M27.6366,22.3941c0.0416-0.0167,0.0845,0.0048,0.1139,0.0323c0.055,0.0602,0.039,0.1676-0.0321,0.2004
					c-0.0683,0.0342-0.1555-0.0161-0.1688-0.0885C27.5322,22.4752,27.5777,22.4055,27.6366,22.3941L27.6366,22.3941z"/>
				<path class="st7" d="M28.1284,22.7969c0.0858,0.0174,0.1757,0.067,0.2024,0.1521c0.0309,0.0932-0.0027,0.1857-0.063,0.2587
					c-0.1086,0.1582-0.2841,0.2547-0.4651,0.301c-0.1781,0.0461-0.3766,0.0516-0.5279-0.0523
					c0.1232-0.1856,0.2975-0.3358,0.5052-0.4081C27.922,22.9999,28.0494,22.9115,28.1284,22.7969L28.1284,22.7969z"/>
				<path class="st5" d="M31.6008,22.9617c0.0228-0.0167,0.0469,0,0.063,0.0046c0.0723,0.0335,0.1527,0.0637,0.2346,0.0925
					c0.0335,0.0081,0.0723,0.0167,0.1006,0.0416c0.1595,0.1099,0.3162,0.2225,0.4905,0.3103c0.13,0.077,0.268,0.1292,0.4168,0.1574
					c-0.1622,0.1864-0.3698,0.3377-0.6164,0.3974c-0.2252,0.063-0.4772,0.0382-0.7024-0.0349
					c-0.3148-0.0946-0.5949-0.2701-0.8577-0.4684C31.0474,23.3383,31.3275,23.1554,31.6008,22.9617L31.6008,22.9617z"/>
				<path class="st5" d="M30.4616,23.5433c0.0469-0.0093,0.0899-0.0268,0.1408-0.0314c0.0093-0.0033,0.0228,0,0.0321,0.0134
					c0.2854,0.2211,0.6044,0.4187,0.9528,0.5207c0.3137,0.0977,0.6648,0.0904,0.9569-0.059
					c0.2722,0.1776,0.5467,0.3733,0.8698,0.4456c0.0027,0.0174-0.0067,0.0248-0.0134,0.0281
					c-0.1313,0.1494-0.2841,0.264-0.4556,0.3284c-0.205,0.087-0.4396,0.0977-0.6553,0.0623
					c-0.2507-0.0597-0.4906-0.1643-0.7157-0.2956c-0.3082-0.1956-0.5857-0.4368-0.8444-0.6922
					C30.6171,23.7806,30.5314,23.6687,30.4616,23.5433L30.4616,23.5433z"/>
				<path class="st0" d="M28.3067,23.9059c-0.0549-0.1253-0.0281-0.2815,0.055-0.3973c0.2666,0.1018,0.5521,0.1574,0.8349,0.1648
					C29.21,23.7632,29.21,23.861,29.163,23.944c-0.0709,0.1536-0.2371,0.2547-0.41,0.2547
					C28.5654,24.2127,28.375,24.0888,28.3067,23.9059L28.3067,23.9059z"/>
				<path class="st0" d="M29.986,23.6311c0.1326-0.0207,0.2518-0.0423,0.3738-0.063c0.043,0.0978,0.1018,0.191,0.1796,0.268
					c-0.0188,0.0496-0.0215,0.0946-0.0269,0.1468c-0.1527,0.136-0.3912,0.1648-0.5776,0.077
					C30.0074,23.928,30.0328,23.7705,29.986,23.6311L29.986,23.6311z"/>
				<path class="st0" d="M29.3118,23.6827c0.1903,0,0.3847-0.014,0.5764-0.0415c0.0589,0.189-0.0255,0.4048-0.1917,0.5067
					c-0.1567,0.1025-0.3779,0.0978-0.5334-0.0155C29.2771,24.0131,29.3266,23.8396,29.3118,23.6827L29.3118,23.6827z"/>
				<path class="st0" d="M28.15,23.9059c0.0133-0.0081,0.0254-0.0181,0.0402-0.0201c0.0321,0.1386,0.1246,0.2748,0.2613,0.3471
					c0.1608,0.0925,0.3619,0.0985,0.5321,0.0295c-0.0349,0.1407-0.1314,0.2627-0.2654,0.3215
					c-0.1862,0.0885-0.4261,0.0262-0.5588-0.1339C28.032,24.2978,28.032,24.06,28.15,23.9059L28.15,23.9059z"/>
				<path class="st5" d="M30.632,23.9226c0.3377,0.3317,0.7008,0.6534,1.1378,0.8617c0.2425,0.118,0.5119,0.1931,0.7866,0.1931
					c0.1448-0.0021,0.2868-0.0276,0.4168-0.0832c0.0281-0.0181,0.063,0.0167,0.0978,0.0309
					c0.1822,0.1186,0.3805,0.2278,0.5923,0.2627c-0.1648,0.1969-0.3898,0.3538-0.6392,0.4135
					c-0.2506,0.0636-0.5186,0.018-0.7612-0.069c-0.3805-0.1475-0.7223-0.3867-1.0239-0.6561
					c-0.0977-0.087-0.1862-0.1781-0.2841-0.2633c-0.1381-0.1005-0.2385-0.2525-0.2961-0.4141
					C30.6346,24.1149,30.6118,24.0172,30.632,23.9226L30.632,23.9226z"/>
				<path class="st0" d="M30.4094,24.1685c0.0402-0.016,0.0778-0.0362,0.1113-0.0536c0.0362,0.1675,0.1193,0.3177,0.2252,0.4444
					c-0.0402,0.0964-0.0523,0.195-0.0443,0.2922c-0.0898,0.0247-0.1929,0.0247-0.2866,0c0.0723-0.1113,0.1246-0.2238,0.1165-0.3512
					C30.5314,24.3803,30.4791,24.2664,30.4094,24.1685L30.4094,24.1685z"/>
				<path class="st0" d="M29.6723,24.2864c0.0671-0.0361,0.1341-0.0844,0.1943-0.1386c0.1327,0.0683,0.2815,0.0797,0.4302,0.0649
					c0.0938,0.1012,0.1501,0.248,0.1125,0.3974c-0.0347,0.1741-0.2023,0.3149-0.3792,0.3397
					c-0.142,0.0255-0.2828-0.0247-0.3928-0.1058c0.0202-0.0549,0.0564-0.1039,0.0685-0.1541
					C29.7568,24.5593,29.734,24.4119,29.6723,24.2864L29.6723,24.2864z"/>
				<path class="st0" d="M29.0947,24.2162c0.138,0.1018,0.3096,0.136,0.4704,0.1018c0.0509,0.0851,0.0723,0.1822,0.0576,0.2794
					c-0.0281,0.132-0.1139,0.2413-0.2264,0.3096c-0.1796,0.1058-0.4128,0.1011-0.5924-0.0128
					c0.055-0.0811,0.1018-0.1695,0.1059-0.2815c0-0.0288,0.0307-0.0535,0.0509-0.0784C29.0451,24.45,29.084,24.3314,29.0947,24.2162
					L29.0947,24.2162z"/>
				<path class="st0" d="M27.9717,24.8266c-0.1193-0.146-0.1193-0.3719-0.0081-0.5288c0.0388,0.1569,0.1462,0.2861,0.2828,0.3579
					c0.1702,0.0986,0.3819,0.0986,0.5521,0.0047c-0.0416,0.1527-0.1501,0.2747-0.2961,0.3236
					C28.3148,25.0511,28.091,24.984,27.9717,24.8266L27.9717,24.8266z"/>
				<path class="st5" d="M30.8168,24.6604c0.0322-0.0047,0.0563,0.0268,0.0725,0.0469c0.3497,0.3257,0.7115,0.6406,1.1444,0.8423
					c0.3029,0.1493,0.6406,0.2304,0.9676,0.1662c0.0616-0.0128,0.122-0.0337,0.1796-0.0416
					c0.2076,0.1273,0.4288,0.2627,0.6674,0.3048c-0.1381,0.1615-0.3149,0.2996-0.5199,0.3767
					c-0.2051,0.0756-0.441,0.0756-0.6567,0.024c-0.268-0.0528-0.5213-0.1816-0.7531-0.337
					c-0.2708-0.1748-0.5281-0.3987-0.7639-0.6278c-0.1541-0.1125-0.2653-0.2801-0.319-0.4577
					C30.7981,24.8695,30.8088,24.7576,30.8168,24.6604L30.8168,24.6604z"/>
				<path class="st5" d="M27.4825,25.5416c0.0899-0.266,0.1957-0.5334,0.323-0.7873c0.0723,0.1641,0.2171,0.3008,0.3966,0.3484
					c0.1757,0.0462,0.3833,0,0.5308-0.1253c0.0804,0.0609,0.1849,0.0984,0.288,0.1125c0.0711,0.004,0.142,0,0.2118-0.0081
					c-0.0228,0.165,0.0269,0.3331,0.1354,0.4564c0.0817,0.0911,0.1876,0.1439,0.2988,0.1776
					c-0.1139,0.5253-0.0723,1.0728,0.0053,1.6021c-0.0147,0.6045,0.102,1.2075,0.2601,1.7912
					c0.2157,0.7719,0.5146,1.5225,0.8765,2.2381c-0.1769,0.1058-0.2694,0.3083-0.3351,0.4965
					c-0.1286,0.3987-0.1595,0.8309-0.067,1.2336c0.0026,0.0376-0.0161,0.067-0.0268,0.0992
					c-0.0831,0.2969-0.1099,0.6118-0.0751,0.9166c-0.6982-0.4482-1.3188-1.0131-1.8334-1.6571
					c-0.6097-0.7752-1.0533-1.6771-1.2584-2.6387c-0.079-0.3565-0.1165-0.7124-0.1313-1.0769c-0.0054-0.2848-0.0054-0.5709,0-0.8617
					C27.1126,27.0801,27.2279,26.2921,27.4825,25.5416L27.4825,25.5416z"/>
				<path class="st0" d="M29.3534,25.0511c0.0697-0.0383,0.1488-0.0737,0.2091-0.136c0.1339,0.1233,0.3257,0.1702,0.5038,0.14
					c-0.1956,0.1288-0.3015,0.3445-0.3699,0.5495c-0.1206-0.0235-0.2278-0.1011-0.2922-0.2051
					C29.3401,25.3024,29.3185,25.1697,29.3534,25.0511L29.3534,25.0511z"/>
				<path class="st8" d="M30.3277,24.9351c0.02,0.0054,0.0469,0.01,0.0709,0.0147c-0.0214,0.0027-0.0468,0.0027-0.063,0.0074
					C30.3303,24.9498,30.3277,24.9405,30.3277,24.9351L30.3277,24.9351z"/>
				<path class="st8" d="M30.6145,24.9753c0.0349-0.0047,0.0696-0.0181,0.1044-0.0255c0.0107,0.0209,0.0107,0.0342,0.0215,0.055
					C30.6936,24.9914,30.6547,24.9774,30.6145,24.9753L30.6145,24.9753z"/>
				<path class="st0" d="M30.3277,25.0725c0.1567-0.0288,0.3189,0.0093,0.4649,0.073c0.0564,0.1013,0.1194,0.1984,0.2038,0.2734
					c0.1741,0.1575,0.3445,0.3263,0.5267,0.4658c0.0602,0.0597,0.1313,0.0985,0.1876,0.1541
					c-0.0134,0.0128-0.0295,0.0242-0.0469,0.0349c0.1407,0.2352,0.2734,0.4811,0.386,0.727
					c0.1005,0.2197,0.1983,0.441,0.2627,0.6653c0.0321,0.1234,0.0616,0.2454,0.0482,0.3679c0,0.0288-0.0107,0.0556-0.0242,0.0804
					c-0.0884,0.0081-0.1621-0.0516-0.2278-0.0972c-0.201-0.1595-0.3726-0.3679-0.5347-0.5756
					c-0.0376-0.053-0.0898-0.0979-0.1099-0.1534c0.0202-0.1938-0.0295-0.384-0.0898-0.5622
					c-0.1086-0.3458-0.2587-0.6661-0.4249-0.9797c-0.0349,0.0167-0.0683,0.0302-0.1005,0.0516
					c0.134,0.2452,0.2532,0.4999,0.3538,0.768c0.063,0.1688,0.1233,0.3384,0.15,0.5207c0.0055,0.0502,0.0202,0.1079-0.0026,0.1641
					c-0.0093,0.0295-0.0349,0.0088-0.0563,0.0034c-0.0885-0.0511-0.1569-0.1254-0.2252-0.1931
					c-0.2425-0.2854-0.4274-0.5997-0.595-0.9166c-0.0335,0.0168-0.067,0.0301-0.0991,0.0556
					c0.1044,0.1909,0.2197,0.3766,0.3417,0.5676c0.0295,0.0461,0.0683,0.0984,0.0925,0.1574
					c0.0509,0.1474,0.1112,0.3008,0.1326,0.4637c0.0081,0.0355,0,0.0737-0.0133,0.1125c-0.0684,0-0.1193-0.0456-0.1702-0.0811
					c-0.1408-0.1279-0.2534-0.2713-0.3673-0.4194c-0.1234-0.1648-0.2305-0.3344-0.3405-0.5086
					c-0.0254,0.0133-0.0642,0.0349-0.0897,0.0502c0.1286,0.2292,0.2854,0.4537,0.4489,0.6573
					c0.0402,0.0597,0.0992,0.1019,0.1327,0.1688c0.0444,0.1153,0.0899,0.2433,0.1127,0.36c0.0174,0.0823,0.0294,0.1567,0,0.2251
					c-0.0899-0.0214-0.1501-0.0823-0.2171-0.1387c-0.2654-0.2579-0.4651-0.5688-0.658-0.8831
					c-0.0188,0.014-0.0402,0.0261-0.0604,0.0355c-0.0228-0.301-0.0228-0.6064,0.0335-0.8993
					c0.0376-0.2111,0.1006-0.4208,0.2252-0.583C30.0663,25.1771,30.1869,25.0939,30.3277,25.0725L30.3277,25.0725z"/>
				<path class="st0" d="M31.8072,26.1018c0.0912,0.059,0.1809,0.1139,0.2734,0.1702c0.0281,0.0161,0.055,0.0369,0.0697,0.0623
					c0.5976,0.764,1.0788,1.6264,1.4674,2.5162c0.3726,0.8451,0.6634,1.7175,0.8296,2.6275
					c0.0683,0.3826,0.1166,0.7773,0.1018,1.1753c-0.0456-0.5386-0.2425-1.0567-0.5091-1.5218
					c0.0535-0.1956,0.0119-0.3973-0.0349-0.5923c-0.0978-0.3666-0.2654-0.717-0.5025-1.0265
					c-0.0765-0.4035-0.2145-0.7961-0.4021-1.168c-0.1797-0.3693-0.394-0.7298-0.6795-1.0387
					c-0.0335-0.0354-0.0764-0.0642-0.0845-0.1172C32.1945,26.8134,32.0083,26.4495,31.8072,26.1018L31.8072,26.1018z"/>
				<path class="st0" d="M29.7273,26.8509c0.0883,0.1434,0.1862,0.2894,0.2801,0.4195c0.0121,0.0174,0.0228,0.0354,0.0254,0.0596
					c0.0683,0.2513,0.165,0.4825,0.2949,0.7036c0.0991,0.1822,0.2238,0.3605,0.3886,0.5053
					c0.0763,0.0663,0.1795,0.126,0.2922,0.1092c0.0602,0,0.1032-0.0388,0.146-0.0772c0.0711,0.258,0.1353,0.516,0.1608,0.7928
					c0.0054,0.0851,0.0107,0.1835-0.0255,0.276c-0.008,0.0274-0.0375,0.0557-0.0683,0.0349
					c-0.0844-0.0307-0.1474-0.0991-0.2037-0.1574c-0.1286-0.1441-0.2278-0.3049-0.3243-0.4671
					c-0.1757-0.3048-0.3298-0.6251-0.4557-0.94c-0.0361,0.0074-0.067,0.0181-0.1019,0.0355
					c0.126,0.3115,0.2734,0.6244,0.4423,0.9273c-0.0107,0.0704-0.0214,0.1434-0.0214,0.2192c0,0.2875,0.0683,0.5769,0.1541,0.8477
					c0.1327,0.3954,0.3162,0.7712,0.5575,1.0936c0.1287,0.1602,0.268,0.3143,0.4462,0.404
					c0.0523,0.1467,0.1018,0.3036,0.1715,0.4402c0.1689,0.3585,0.3954,0.6808,0.654,0.9776
					c0.1005,0.1139,0.2037,0.2332,0.2922,0.3512c-0.2278-0.195-0.4288-0.4109-0.6192-0.648
					c-0.2868-0.3478-0.5401-0.7157-0.7733-1.1029c-0.2815-0.457-0.528-0.9314-0.7464-1.4139
					c-0.2399-0.5414-0.4477-1.0983-0.6164-1.6598c-0.1569-0.5347-0.2828-1.0781-0.3431-1.6296
					C29.7313,26.9239,29.7313,26.8897,29.7273,26.8509L29.7273,26.8509z"/>
				<path class="st0" d="M31.0004,26.9488c0.0737,0.077,0.1541,0.1527,0.252,0.203c0.0375,0.0208,0.0885,0.0167,0.1353,0.0167
					c0.1153,0.1616,0.2386,0.3198,0.3726,0.4644c0.0202,0.0248,0.0442,0.0456,0.0469,0.069
					c0.0202,0.1153,0.0255,0.2306,0.0093,0.3451c-0.0121,0.063-0.0335,0.1239-0.083,0.1488c-0.063,0.0342-0.1327,0-0.185-0.0248
					c-0.1434-0.0858-0.2506-0.2258-0.3457-0.3585c-0.0443-0.0509-0.0483-0.122-0.0657-0.1796
					c-0.0349-0.0937-0.0683-0.1836-0.1018-0.276c0-0.0309,0.0121-0.0597,0.0121-0.0906
					C31.0608,27.1571,31.0272,27.0506,31.0004,26.9488L31.0004,26.9488z"/>
				<path class="st0" d="M30.7096,27.3179c0.0616,0.0504,0.1394,0.0978,0.2318,0.102c0.0979,0.2378,0.1703,0.4905,0.185,0.7511
					c0.0107,0.1046,0.0107,0.2198-0.0523,0.3177c-0.0295,0.061-0.1153,0.0656-0.1662,0.0368
					c-0.1446-0.059-0.2466-0.1809-0.3296-0.2994c-0.1595-0.2057-0.2734-0.4444-0.3672-0.6869
					c0.0965,0.1051,0.1917,0.2104,0.3096,0.278c0.0469,0.0302,0.1139,0.0523,0.1634,0.0342
					c0.0564-0.0207,0.0871-0.0764,0.0871-0.132C30.79,27.584,30.7512,27.4492,30.7096,27.3179L30.7096,27.3179z"/>
				<path class="st0" d="M32.4264,27.4841c0.2975,0.3465,0.5213,0.7587,0.6982,1.1733c0.1447,0.3573,0.2639,0.7278,0.3015,1.1118
					c0,0.1553,0.0135,0.3189-0.0723,0.4556c-0.0497,0.0637-0.1475,0.0723-0.2212,0.0423c-0.142-0.0557-0.2587-0.1615-0.3645-0.2721
					c-0.0202-0.0174-0.0281-0.0416-0.0416-0.0649c-0.079-0.3156-0.2185-0.6132-0.3698-0.8879
					c0.0509-0.0081,0.1045-0.0248,0.1448-0.0623c0.0589-0.063,0.0858-0.1582,0.0897-0.2419
					c0.0135-0.2534-0.0683-0.4951-0.1569-0.729c-0.0268-0.043,0.0242-0.0764,0.0269-0.1194
					C32.4894,27.7535,32.4585,27.6147,32.4264,27.4841L32.4264,27.4841z"/>
				<path class="st0" d="M31.9318,27.8085c0.1113,0.093,0.2345,0.2118,0.3886,0.2183c0.0832,0.189,0.1408,0.384,0.1608,0.5864
					c0.004,0.0944,0.0081,0.1916-0.0442,0.272c-0.0295,0.0456-0.0925,0.0516-0.1474,0.0356
					c-0.1045-0.0356-0.189-0.1118-0.2721-0.1829c-0.0375-0.0388-0.0777-0.073-0.0911-0.1286
					c-0.0281-0.108-0.0751-0.2231-0.1139-0.3338C31.9453,28.1603,31.9399,27.9659,31.9318,27.8085L31.9318,27.8085z"/>
				<path class="st0" d="M31.2256,28.0203c0.0898,0.0972,0.189,0.2057,0.3108,0.268c0.0509,0.0247,0.1139,0.0349,0.1703,0.0288
					c0.0924,0.2151,0.1674,0.4503,0.1795,0.6834c0.0027,0.1086,0.0148,0.2278-0.0442,0.3164
					c-0.0295,0.0469-0.0885,0.0683-0.1448,0.0469c-0.1139-0.0288-0.1996-0.1234-0.2815-0.1991
					c-0.0254-0.0247-0.0254-0.0596-0.0281-0.0877c-0.0375-0.2266-0.1044-0.4416-0.1662-0.6561
					C31.247,28.2883,31.243,28.157,31.2256,28.0203L31.2256,28.0203z"/>
				<path class="st6" d="M29.8318,28.094c0.0215,0.0972,0.0497,0.1842,0.0685,0.2787c0.1634,0.5762,0.3671,1.1399,0.6043,1.6845
					c0.3766,0.896,0.8482,1.7657,1.4407,2.5397c0.3029,0.3987,0.642,0.7747,1.048,1.0755c0.0602,0.0516,0.1313,0.0777,0.1769,0.1455
					c-0.1636,0.004-0.3029-0.0678-0.4383-0.1481c-0.2881-0.1783-0.5267-0.4283-0.7438-0.6875
					c-0.2345-0.2828-0.4556-0.5937-0.6553-0.9114c-0.2854-0.4663-0.5401-0.9609-0.7519-1.4641
					c-0.2411-0.5528-0.4449-1.1331-0.5949-1.7168C29.9256,28.6226,29.8626,28.3653,29.8318,28.094L29.8318,28.094z"/>
				<path class="st0" d="M31.9841,28.8504c0.0549,0.0483,0.1072,0.0911,0.1648,0.1253c0.0255,0.0114,0.0644,0.0288,0.0832,0.0624
					c0.1179,0.2063,0.2264,0.4315,0.3082,0.6639c0.0897,0.2433,0.1609,0.4972,0.1836,0.7558
					c0.0026,0.1241,0.0026,0.2547-0.0497,0.3673c-0.0174,0.0563-0.0696,0.0978-0.1339,0.0978c-0.0885,0-0.1689-0.0563-0.2426-0.1059
					c-0.063-0.0535-0.126-0.1132-0.1809-0.1728c-0.0134-0.0128-0.0255-0.0376-0.0362-0.0557
					c-0.1072-0.402-0.2761-0.7954-0.5065-1.1518c0.0763,0.0281,0.1595,0.0596,0.2385,0.0328
					c0.0764-0.0255,0.1327-0.0884,0.1581-0.1655C32.0176,29.1567,32.0043,29.0045,31.9841,28.8504L31.9841,28.8504z"/>
				<path class="st0" d="M30.6722,29.2163c0.0911,0.165,0.2037,0.3217,0.3431,0.4537c0.0589,0.0602,0.1393,0.1232,0.2278,0.1232
					c0.0549,0,0.1153-0.0456,0.1407-0.0977c0.0416-0.0892,0.0416-0.1864,0.0416-0.2902c0.264,0.388,0.457,0.833,0.5695,1.284
					c0.0483,0.2257,0.0911,0.4589,0.0442,0.6868c-0.0214,0.073-0.0549,0.1581-0.1313,0.1788
					c-0.0749,0.0248-0.1541-0.0114-0.2104-0.0462c-0.1488-0.0977-0.2627-0.2411-0.3698-0.3805
					c-0.1434-0.2017-0.2587-0.4154-0.3686-0.6406c-0.1005-0.2345-0.1876-0.4825-0.2425-0.7324
					C30.6801,29.5755,30.6547,29.398,30.6722,29.2163L30.6722,29.2163z"/>
				<path class="st0" d="M33.5333,29.7376c0.1462,0.2198,0.2573,0.4617,0.3391,0.7203c0.0509,0.1736,0.0951,0.3465,0.0858,0.5341
					c-0.1569-0.2533-0.3284-0.4839-0.5174-0.7177C33.5454,30.1188,33.5373,29.9192,33.5333,29.7376L33.5333,29.7376z"/>
				<path class="st0" d="M32.7909,30.1725c0.1099,0.0946,0.2252,0.1837,0.3591,0.2132c0.0725,0.0174,0.1541,0.004,0.2185-0.0248
					c0.2413,0.2968,0.4651,0.6044,0.6406,0.9495c0.1755,0.317,0.311,0.6594,0.3819,1.0246
					c0.0537,0.2419,0.0683,0.4925,0.0604,0.7371c-0.1408-0.3417-0.3137-0.6674-0.5281-0.9656
					c-0.1581-0.246-0.3377-0.4691-0.5227-0.6908c-0.1983-0.2554-0.3845-0.5139-0.5574-0.784
					c-0.0174-0.0248-0.0107-0.0637-0.0161-0.0965C32.8325,30.4158,32.8069,30.2971,32.7909,30.1725L32.7909,30.1725z"/>
				<path class="st0" d="M32.8069,30.7829c0.1018,0.1501,0.1997,0.301,0.3163,0.447c0.2051,0.2868,0.4435,0.5448,0.6446,0.8377
					c0.3431,0.4837,0.6299,1.0225,0.7478,1.6048c0.039,0.1983,0.063,0.4,0.063,0.6044c-0.1702-0.4496-0.4288-0.8738-0.7169-1.2564
					c-0.1822-0.2452-0.3886-0.4656-0.5709-0.7022c-0.3177-0.4035-0.6031-0.8336-0.8296-1.288
					c0.0751,0.0047,0.1434,0.0047,0.1983-0.0302C32.744,30.9579,32.7788,30.8633,32.8069,30.7829L32.8069,30.7829z"/>
				<path class="st0" d="M32.1356,30.8171c0.0496,0.0604,0.1246,0.1019,0.1795,0.1541c0.3003,0.646,0.7103,1.2203,1.1713,1.7591
					c0.3418,0.3947,0.638,0.8242,0.8644,1.2905c0.1983,0.4209,0.3177,0.8858,0.3243,1.3475c0,0.2413-0.0187,0.4839-0.0521,0.7164
					c-0.201-0.461-0.4142-0.9193-0.6808-1.3442c-0.4088-0.6681-0.906-1.2752-1.4058-1.8675
					c-0.2949-0.3531-0.5522-0.7538-0.6942-1.2001c0.0656,0,0.1286-0.0121,0.1702-0.0456c0.0911-0.0725,0.1259-0.1817,0.138-0.2963
					C32.1824,31.1602,32.1503,30.986,32.1356,30.8171L32.1356,30.8171z"/>
				<path class="st0" d="M30.6936,31.6172c0.0361-0.067,0.0911-0.1326,0.1648-0.1681c0.1113,0.2118,0.2318,0.4268,0.3591,0.6372
					c0.0214,0.0329,0.0483,0.0618,0.0416,0.1053c0.0067,0.2398-0.0161,0.4777-0.0885,0.7063
					c-0.0442,0.1614-0.1018,0.3215-0.2211,0.4461c-0.0537,0.0537-0.1327,0.1127-0.209,0.0846
					c-0.1006-0.0516-0.1541-0.1615-0.189-0.2594c-0.1046-0.3001-0.1046-0.6272-0.0644-0.9455
					C30.5207,32.0132,30.5809,31.8021,30.6936,31.6172L30.6936,31.6172z"/>
				<path class="st0" d="M31.373,32.3349c0.1569,0.2378,0.3243,0.4658,0.5093,0.6922c-0.0309,0.2144-0.0858,0.4362-0.1971,0.6252
					c-0.0509,0.0858-0.1139,0.1748-0.213,0.2111c-0.0725,0.0307-0.1461-0.0195-0.1903-0.0751
					c-0.0951-0.1186-0.1273-0.262-0.1581-0.4028c0-0.0302-0.0215-0.0623,0-0.0898C31.2979,33.0003,31.3528,32.6638,31.373,32.3349
					L31.373,32.3349z"/>
				<path class="st0" d="M28.9259,33.1108c0.1501,0.1468,0.2908,0.2828,0.4355,0.4181c-0.0725,0.0382-0.1648,0.0047-0.2212-0.0556
					C29.0451,33.3715,28.9782,33.2414,28.9259,33.1108L28.9259,33.1108z"/>
				<path class="st0" d="M31.9734,33.1317c0.1755,0.1976,0.3498,0.3806,0.5669,0.5381c-0.0388,0.2285-0.0965,0.4703-0.2198,0.666
					c-0.0576,0.0837-0.1232,0.1641-0.2171,0.185c-0.0723,0.0093-0.1514-0.0543-0.1876-0.118
					c-0.0858-0.1239-0.1193-0.2848-0.1353-0.4342c-0.0134-0.0703-0.0269-0.1413-0.0269-0.2185
					c0.0134-0.0261,0.0336-0.0556,0.0509-0.0858C31.8863,33.5008,31.9399,33.3125,31.9734,33.1317L31.9734,33.1317z"/>
				<path class="st0" d="M30.4737,33.267c0.0469,0.1186,0.1313,0.2338,0.2559,0.2666c0.114,0.0262,0.2198-0.0328,0.2922-0.1051
					c0.0175,0.0797,0.039,0.1641,0.0683,0.2413c0.0121,0.0247,0.0121,0.0542,0.0121,0.0803c-0.0121,0.1482-0.0121,0.3049,0,0.453
					c0.0095,0.0476-0.0161,0.0905-0.0335,0.1281c-0.0535,0.1106-0.1193,0.2197-0.2197,0.2868
					c-0.0564,0.0354-0.1301,0.0435-0.1877,0.0107c-0.0804-0.049-0.13-0.1408-0.1674-0.2292
					c-0.0751-0.179-0.0952-0.3759-0.0952-0.5636C30.3987,33.6449,30.4188,33.4525,30.4737,33.267L30.4737,33.267z"/>
				<path class="st0" d="M28.9728,33.4406c0.067,0.093,0.1514,0.1915,0.2706,0.2118c0.0751,0.0174,0.1462-0.0114,0.2117-0.0537
					c0.063,0.0597,0.1313,0.1125,0.2024,0.1676c0.0268,0.018,0.0174,0.0428,0.0268,0.0696
					c0.0121,0.1294,0.0349,0.2573,0.0725,0.3807c0.004,0.0342,0.0174,0.0677,0.008,0.1058
					c-0.0307,0.1287-0.0683,0.2452-0.1488,0.3424c-0.0469,0.0597-0.1232,0.1013-0.1957,0.0845
					c-0.1018-0.0316-0.1769-0.118-0.229-0.1984c-0.1046-0.1721-0.1622-0.3591-0.1903-0.5554
					C28.9647,33.809,28.9487,33.6268,28.9728,33.4406L28.9728,33.4406z"/>
				<path class="st0" d="M32.6301,33.7414c0.1488,0.0804,0.2882,0.1569,0.4503,0.1809c0,0.1441-0.024,0.2942-0.0563,0.4337
					c-0.0495,0.1741-0.1005,0.3517-0.2076,0.4944c-0.0483,0.0637-0.11,0.1327-0.1971,0.1414c-0.063,0-0.126-0.0463-0.1608-0.0979
					c-0.0709-0.0891-0.1018-0.2043-0.1353-0.3143c-0.0027-0.0288-0.0107-0.0589,0.0133-0.0837
					c0.1099-0.1246,0.1783-0.2794,0.2238-0.447C32.5952,33.9478,32.6193,33.8439,32.6301,33.7414L32.6301,33.7414z"/>
				<path class="st0" d="M31.2028,33.8707c0.063,0.0516,0.1381,0.1146,0.2278,0.1079c0.0884,0.0067,0.1527-0.0563,0.2238-0.0891
					c0.0187,0.2037,0.0602,0.4114,0.1783,0.5923c0.0187,0.0141-0.0027,0.0443-0.0054,0.0664
					c-0.0469,0.1051-0.1166,0.2097-0.2091,0.2767c-0.0523,0.0343-0.1246,0.0396-0.1715,0c-0.0939-0.067-0.1394-0.1809-0.1741-0.2908
					C31.2054,34.3223,31.1934,34.0931,31.2028,33.8707L31.2028,33.8707z"/>
				<path class="st0" d="M29.7996,33.8982c0.0537,0.0375,0.1059,0.0549,0.1515,0.0924c0.126,0.0818,0.2506,0.1622,0.3792,0.2433
					c0.0295,0.1306,0.0764,0.258,0.1488,0.3672c-0.0254,0.079-0.0763,0.1567-0.1434,0.2037c-0.0656,0.0335-0.1379,0-0.1876-0.0423
					c-0.0978-0.0844-0.1541-0.203-0.201-0.3182C29.8707,34.2667,29.8264,34.0891,29.7996,33.8982L29.7996,33.8982z"/>
				<path class="st0" d="M33.1876,33.9264c0.0187,0,0.0414-0.0041,0.0602-0.0041c0.0683,0.0985,0.1527,0.1957,0.2198,0.2982
					c0.0187,0.0939,0.0054,0.1957,0.0187,0.2882c0.0215,0.5079,0.0335,1.0078,0.0309,1.5116
					c-0.4463-0.0168-0.8926-0.0114-1.3348-0.0073c0.0362-0.0476,0.0657-0.1013,0.0778-0.1669
					c0.0026-0.0382-0.0081-0.0804,0.0188-0.1193c0.1086-0.2104,0.1581-0.4389,0.1822-0.6729
					c0.067,0.0349,0.1434,0.0597,0.2104,0.0349c0.1327-0.0288,0.2131-0.136,0.2815-0.2385
					c0.1179-0.2024,0.1769-0.4309,0.2104-0.6587C33.1809,34.1012,33.1876,34.0208,33.1876,33.9264L33.1876,33.9264z"/>
				<path class="st0" d="M33.5856,34.3913c0.205,0.2956,0.3954,0.5964,0.5562,0.9147c0.0054,0.1306-0.0041,0.2573-0.0041,0.3793
					c-0.0187,0.136-0.0187,0.2768-0.0268,0.4121c-0.1527-0.0556-0.3203-0.0556-0.4837-0.0677
					C33.6298,35.4796,33.6138,34.9308,33.5856,34.3913L33.5856,34.3913z"/>
				<path class="st0" d="M30.7712,34.7579c0.1743-0.0254,0.2842-0.1729,0.37-0.3162c0.0294,0.1553,0.0803,0.3209,0.1997,0.4402
					c0.0589,0.0635,0.1434,0.0884,0.2425,0.0803c-0.0469,0.2292-0.1112,0.4604-0.2559,0.652
					c-0.0616,0.0711-0.1515,0.1482-0.2534,0.1234c-0.0965-0.0309-0.1541-0.1234-0.1929-0.2024
					C30.7712,35.288,30.7566,35.0233,30.7712,34.7579L30.7712,34.7579z"/>
				<path class="st0" d="M29.8372,34.4785c0.063,0.1434,0.1407,0.2995,0.2813,0.3933c0.0683,0.0523,0.165,0.059,0.2452,0.0388
					c0,0.2031-0.0119,0.4074-0.0884,0.5971c-0.0376,0.0939-0.0938,0.1917-0.1864,0.2373c-0.0696,0.0347-0.1541,0.004-0.2076-0.043
					c-0.1125-0.0965-0.1796-0.2332-0.2319-0.3685c-0.063-0.1508-0.0964-0.3103-0.1139-0.4785
					C29.7018,34.7955,29.7796,34.6286,29.8372,34.4785L29.8372,34.4785z"/>
				<path class="st0" d="M31.9185,34.585c0.0549,0.0162,0.0991,0.0436,0.1488,0.0462c0.0549,0.0061,0.1044-0.0174,0.1514-0.03
					c0.0295,0.1232,0.0711,0.2459,0.142,0.3443c-0.0107,0.242-0.063,0.4732-0.1634,0.6943
					c-0.0469,0.1011-0.1059,0.2064-0.2131,0.272c-0.0523,0.0336-0.1327,0.0423-0.185,0.0081
					c-0.0924-0.0563-0.1446-0.1574-0.1755-0.2553c-0.0362-0.0792-0.0576-0.1535-0.0602-0.2279
					c0.0656-0.1661,0.1098-0.331,0.126-0.5086c0-0.0214,0.0214-0.0375,0.0389-0.0563
					C31.8165,34.7955,31.8769,34.6935,31.9185,34.585L31.9185,34.585z"/>
				<path class="st0" d="M30.5569,34.6935c0.0375,0.0215,0.0777,0.039,0.1044,0.0557c-0.0066,0.1788-0.0026,0.3645,0.0322,0.5428
					c0.0361,0.1769,0.0991,0.3552,0.2292,0.4837c-0.0497,0.0323-0.1099,0.0637-0.1715,0.0383
					c-0.1341-0.0516-0.2091-0.1903-0.2721-0.3144c-0.0174-0.0509-0.0602-0.0998-0.0388-0.1601
					c0.0335-0.1655,0.0388-0.335,0.0335-0.5146C30.5086,34.7881,30.5395,34.7404,30.5569,34.6935L30.5569,34.6935z"/>
				<path class="st9" d="M26.2335,35.3864c0.1179-0.1327,0.2975-0.1855,0.4637-0.1608c0.2278,0.0416,0.4288,0.1931,0.5614,0.384
					c0.0711,0.0972,0.1059,0.2218,0.118,0.3404c0.0134,0.0844,0.0134,0.1776,0.0644,0.2418
					c0.0521,0.0576,0.1218,0.0657,0.1876,0.0657c0.4918-0.0208,0.9837-0.0449,1.4741-0.059
					c-0.0576,0.1099-0.1099,0.2259-0.1381,0.3451c-0.0549,0.2492,0.0214,0.4979,0.1474,0.7116
					c-0.351,0.0034-0.6994-0.006-1.0466-0.018c-0.1595,0-0.3229,0.012-0.4744-0.0041c-0.3417,0-0.682-0.0174-1.0225-0.0341
					c-0.1849-0.0093-0.3738-0.0181-0.5588-0.0469c-0.063-0.0167-0.1019-0.081-0.1448-0.1205
					c-0.1581-0.1877-0.2801-0.3988-0.3926-0.6213c-0.0469-0.0763-0.0938-0.1608-0.1179-0.2452c0.1313,0,0.2599-0.0047,0.3912-0.0295
					c0.063-0.0174,0.1367-0.0382,0.1822-0.0937c0.0509-0.0563,0.063-0.1267,0.0764-0.1957
					C26.0365,35.6746,26.125,35.511,26.2335,35.3864L26.2335,35.3864z"/>
				<path class="st7" d="M30.2754,35.749c0.0602-0.0295,0.1153-0.0584,0.1741-0.0744c0.0295,0.0448,0.063,0.0911,0.102,0.1299
					c-0.2614,0.2125-0.4625,0.516-0.4852,0.8617c-0.012,0.2949,0.1314,0.589,0.3365,0.7961
					c0.1446,0.1529,0.3162,0.2801,0.5119,0.3586c-0.13,0.0421-0.2733,0.0133-0.4021-0.0283c-0.2452-0.0803-0.473-0.229-0.646-0.4187
					c-0.1648-0.1843-0.272-0.4222-0.272-0.6694c0.0121-0.2801,0.1702-0.5395,0.3686-0.7298c0.067-0.0475,0.1165-0.1065,0.1849-0.14
					C30.1978,35.814,30.2338,35.7757,30.2754,35.749L30.2754,35.749z"/>
				<path class="st7" d="M31.0688,35.9714c0.1341-0.1253,0.2815-0.2225,0.4383-0.2942c0.0414,0.1194,0.0965,0.2292,0.1943,0.3056
					c0.079,0.059,0.1728,0.0865,0.2506,0.059c-0.1448,0.0723-0.3042,0.1232-0.449,0.2157c-0.0871,0.0482-0.1621,0.1146-0.209,0.2083
					c-0.0978,0.1957-0.0764,0.4577,0.0898,0.6052c0.1743,0.1662,0.4235,0.2137,0.6245,0.341
					c0.0697,0.0502,0.1274,0.1227,0.1407,0.2071c0.0095,0.0623-0.0133,0.1346-0.0709,0.1688
					c-0.0899,0.0543-0.1957,0.0462-0.2908,0.0329c-0.2333-0.043-0.4544-0.1562-0.638-0.3036
					c-0.1943-0.1501-0.3431-0.3572-0.4061-0.5938c-0.0268-0.0972-0.0416-0.1936-0.0268-0.2908
					C30.7512,36.3722,30.8865,36.1402,31.0688,35.9714L31.0688,35.9714z"/>
				<path class="st7" d="M29.3896,36.0035c0.1032-0.1051,0.2332-0.1955,0.3672-0.2659c0.0468,0.0449,0.1098,0.0937,0.1781,0.1186
					c-0.2076,0.1816-0.3698,0.4221-0.4261,0.6875c-0.0537,0.2218,0,0.4523,0.0978,0.646c0.1541,0.2929,0.4181,0.5025,0.7008,0.6446
					c-0.1567,0.0142-0.3055-0.0247-0.4449-0.089c-0.2305-0.0918-0.4289-0.2406-0.583-0.4356
					c-0.1327-0.1743-0.2211-0.386-0.2211-0.6051C29.076,36.4365,29.2046,36.1918,29.3896,36.0035L29.3896,36.0035z"/>
				<path class="st7" d="M30.9964,35.8522c0.0188-0.0128,0.0388-0.0175,0.0563-0.0128c-0.1569,0.1394-0.2947,0.3103-0.3726,0.4986
					c-0.0549,0.1574-0.0937,0.3236-0.0656,0.4884c0.0321,0.2573,0.1648,0.4913,0.3443,0.6661
					c0.1313,0.1334,0.2882,0.2366,0.457,0.3203c-0.0575,0.0214-0.126,0.004-0.1849-0.0033
					c-0.2305-0.0476-0.4383-0.1528-0.6138-0.2921c-0.2077-0.1643-0.3752-0.394-0.4221-0.6661
					c-0.0549-0.2231,0.0255-0.4617,0.1448-0.6486c0.079-0.126,0.1781-0.2312,0.3002-0.3251
					c0.0657,0.0422,0.1501,0.0678,0.2331,0.0422C30.92,35.9117,30.9588,35.8843,30.9964,35.8522L30.9964,35.8522z"/>
				<path class="st9" d="M32.0673,36.1181c0.5159-0.004,1.0332-0.008,1.5465,0.0221c-0.1274,0.0725-0.2292,0.1978-0.2761,0.3479
					c-0.0563,0.199,0,0.418,0.1461,0.5702c0.0335,0.0395,0.083,0.0677,0.126,0.1018c-0.4772,0.0355-0.9502,0.0556-1.4246,0.0637
					c-0.0939,0-0.1904,0.0093-0.2962,0.0054c-0.0725-0.0302-0.1394-0.065-0.2159-0.0999c-0.0991-0.0414-0.1916-0.0977-0.2573-0.1849
					c-0.083-0.1046-0.0883-0.2494-0.0428-0.3773c0.0268-0.0972,0.0992-0.1655,0.1903-0.2252
					c0.1219-0.0804,0.2694-0.1267,0.4073-0.1816C31.9989,36.1402,32.0336,36.1181,32.0673,36.1181L32.0673,36.1181z"/>
				<path class="st9" d="M33.8148,36.1811c0.2131-0.0409,0.4369,0.0851,0.5106,0.2889c0.0884,0.2171,0,0.4717-0.201,0.5883
					c-0.1662,0.1058-0.4047,0.077-0.5441-0.059c-0.1541-0.1346-0.1957-0.3666-0.1099-0.5421
					C33.5333,36.3131,33.6633,36.2086,33.8148,36.1811L33.8148,36.1811z"/>
				<path class="st0" d="M33.5923,37.2701c0.1274-0.0114,0.2559-0.0209,0.3886-0.0409c-0.0576,0.2848-0.1193,0.5803-0.2547,0.8436
					c-0.0576,0.1006-0.1286,0.2131-0.2532,0.2406C33.5373,37.9676,33.5668,37.6192,33.5923,37.2701L33.5923,37.2701z"/>
				<path class="st0" d="M32.3607,37.3256c0.3793-0.008,0.7478-0.0288,1.1231-0.0409c-0.0228,0.3412-0.0576,0.6762-0.1153,1.0206
					c-0.0309,0.1688-0.0683,0.3283-0.1287,0.4918c-0.0335,0.0811-0.067,0.1735-0.1367,0.2318
					c-0.0281,0.0274-0.0777,0.0376-0.1098,0.0181c-0.0697-0.0428-0.1194-0.116-0.1608-0.1823
					c-0.1006-0.1869-0.1689-0.3846-0.2373-0.5857C32.5015,37.9609,32.4264,37.6534,32.3607,37.3256L32.3607,37.3256z"/>
				<path class="st0" d="M32.0806,37.3363c0.0576,0,0.1139-0.0067,0.1715-0.0067c0.063,0.3317,0.1448,0.6654,0.2413,0.9938
					c-0.0965-0.0141-0.1702-0.0978-0.2305-0.1709c-0.0535-0.0892-0.1044-0.171-0.146-0.2587
					c0.0684-0.043,0.1246-0.112,0.1353-0.1903C32.2709,37.5595,32.1945,37.4188,32.0806,37.3363L32.0806,37.3363z"/>
			</g>
		</g>
	</g>
</g>
</svg>
