<?xml version="1.0" encoding="utf-8"?>
<!-- Generator: Adobe Illustrator 21.0.2, SVG Export Plug-In . SVG Version: 6.00 Build 0)  -->
<svg version="1.1" id="Layer_1" xmlns="http://www.w3.org/2000/svg" xmlns:xlink="http://www.w3.org/1999/xlink" x="0px" y="0px"
	 viewBox="0 0 43.7 43.7" style="enable-background:new 0 0 43.7 43.7;" xml:space="preserve">
<style type="text/css">
	.st0{fill:#FFFFFF;}
	.st1{fill:#008638;}
	.st2{fill:#ED0000;}
</style>
<g>
	<g>
		<g>
			<path class="st0" d="M43.7,21.9C43.7,9.8,33.9,0,21.9,0v43.7C33.9,43.7,43.7,33.9,43.7,21.9z"/>
			<path class="st1" d="M0,21.9c0,12.1,9.8,21.9,21.9,21.9V0C9.8,0,0,9.8,0,21.9z"/>
		</g>
		<g>
			<polygon class="st2" points="27.9,16.9 27.8,20.7 31.3,22 27.7,23 27.5,26.8 25.5,23.7 21.8,24.7 24.2,21.7 22.1,18.6 25.6,19.9 
							"/>
			<path class="st2" d="M24.1,31.2c-5.1,0-9.3-4.2-9.3-9.3c0-5.1,4.2-9.3,9.3-9.3c2.9,0,5.6,1.4,7.3,3.5c-1.9-3.1-5.4-5.1-9.3-5.1
				c-6,0-10.9,4.9-10.9,10.9c0,6,4.9,10.9,10.9,10.9c3.9,0,7.3-2.1,9.3-5.1C29.6,29.8,27,31.2,24.1,31.2z"/>
		</g>
	</g>
</g>
</svg>
