<?xml version="1.0" encoding="utf-8"?>
<!-- Generator: Adobe Illustrator 21.1.0, SVG Export Plug-In . SVG Version: 6.00 Build 0)  -->
<svg version="1.1" id="Layer_1" xmlns="http://www.w3.org/2000/svg" xmlns:xlink="http://www.w3.org/1999/xlink" x="0px" y="0px"
	 viewBox="0 0 60 60" style="enable-background:new 0 0 60 60;" xml:space="preserve">
<style type="text/css">
	.st0{clip-path:url(#SVGID_2_);}
	.st1{fill:#CE1126;}
	.st2{fill:#FFFFFF;}
	.st3{fill:#FCD116;}
	.st4{fill:#FFCC00;}
</style>
<g>
	<g>
		<g>
			<defs>
				<circle id="SVGID_1_" cx="30" cy="30" r="30"/>
			</defs>
			<clipPath id="SVGID_2_">
				<use xlink:href="#SVGID_1_"  style="overflow:visible;"/>
			</clipPath>
			<g class="st0">
				<rect class="st1" width="60" height="20"/>
				<rect y="20" class="st2" width="60" height="20"/>
				<rect y="40" width="60" height="20"/>
			</g>
		</g>
	</g>
</g>
<g>
	<g>
		<g>
			<g id="_x3C_Path_x3E__10_" transform="matrix(1.000151,0,0,1,2.1783e-2,6.394885e-14)">
				<g>
					<path class="st3" d="M26.4038,36.5765c-0.2518-0.0592-0.2962-0.1629-0.2962-0.3111l0,0c0-0.0592,0.0148-0.1185,0.0148-0.1481
						l0,0c-0.3555-0.1481,0.0444-0.3851-0.474-0.5184l0,0v-0.0444c0.4888-0.0148,0.2814-0.2518,0.5036-0.2666l0,0
						c0.0148,0,0.0444,0,0.0444,0.0296l0,0c0-0.3259,0.2518-0.474,0.5184-0.474l0,0c0.0889,0,0.1629,0.0148,0.2518,0.0444l0,0
						c0.5628,0.1926,2.2958,0.2074,2.8291,0.2074l0,0c0.1037,0,0.1629,0,0.1629,0l0,0v0.0444c0,0-0.0592,0-0.1629,0l0,0
						c-0.548,0-2.2662-0.0148-2.8439-0.2074l0,0c-0.0741-0.0296-0.1629-0.0444-0.237-0.0444l0,0
						c-0.2518,0-0.474,0.1333-0.5036,0.4444l0,0c-0.0296,0-0.0444,0-0.0592,0l0,0c-0.1333-0.0148-0.0296,0.2074-0.3999,0.2666l0,0
						c0.3851,0.1629,0.0889,0.3999,0.3851,0.5036l0,0c0,0.0592,0,0.1185,0,0.1777l0,0c0,0.1333,0.0148,0.2074,0.2666,0.2666l0,0
						c0.785,0.1777,3.5697,0.2666,3.5697,0.2666l0,0v0.0444C29.9735,36.8431,27.2037,36.769,26.4038,36.5765L26.4038,36.5765z"/>
				</g>
			</g>
			<g id="_x3C_Path_x3E__9_" transform="matrix(1.000151,0,0,1,2.1783e-2,6.394885e-14)">
				<g>
					<path class="st3" d="M29.9735,36.7986c0,0,2.7698-0.0741,3.5696-0.2666l0,0c0.237-0.0592,0.2518-0.1333,0.2666-0.2666l0,0
						c0-0.0444,0-0.1037,0.0148-0.1926l0,0c0.2814-0.0741-0.0148-0.3111,0.3703-0.474l0,0
						c-0.3703-0.0444-0.2666-0.2814-0.3999-0.2666l0,0c-0.0148,0-0.0296,0-0.0889-0.0148l0,0c0-0.2962-0.2222-0.4295-0.474-0.4295
						l0,0c-0.0741,0-0.1629,0.0148-0.237,0.0444l0,0c-0.5777,0.1926-2.3106,0.2074-2.8439,0.2074l0,0c-0.1037,0-0.1629,0-0.1629,0
						l0,0v-0.0444c0,0,0.0592,0,0.1629,0l0,0c0.548,0,2.2662-0.0148,2.8439-0.2074l0,0c0.0741-0.0296,0.1629-0.0444,0.2518-0.0444
						l0,0c0.2666,0,0.5184,0.1481,0.4888,0.4444l0,0c0.0296,0,0.0444-0.0148,0.0741-0.0148l0,0
						c0.2222,0.0296,0.0296,0.2518,0.5036,0.2666l0,0v0.0444c-0.5036,0.1333-0.1037,0.3703-0.4592,0.4888l0,0
						c0,0.0592,0,0.1185,0,0.1777l0,0c0,0.1333-0.0444,0.2518-0.2962,0.3111l0,0c-0.7998,0.1926-3.5697,0.2666-3.5697,0.2666l0,0
						L29.9735,36.7986L29.9735,36.7986z"/>
				</g>
			</g>
		</g>
		<path class="st3" d="M27.519,35.7174c-0.0148,0.0296-0.0296,0.0592-0.0296,0.1037c0.0148,0.0296,0.0444,0.0592,0.0444,0.1037
			c-0.0444-0.0148-0.0741-0.0148-0.1185-0.0296s-0.0741,0-0.0889-0.0592c0-0.0592-0.0148-0.1185-0.0592-0.1629
			c-0.0148,0.0296-0.0296,0.0592-0.0296,0.0889c0.0148,0.0296,0.0444,0.0592,0.0444,0.1037
			c-0.0741-0.0148-0.2666-0.0148-0.2962-0.0889c-0.0444-0.1037-0.0444-0.2518-0.0592-0.3555
			c-0.0148,0.0296-0.0444,0.0741-0.0296,0.1185c-0.0592,0.0148-0.1037,0.0296-0.1333,0.0889c-0.0444,0.0592-0.0741,0.1037,0,0.1333
			c0.0741,0.0296,0.1037,0.0444,0.1629-0.0148c0.0148,0.1481,0.0741,0.1926,0.2074,0.2222
			c0.1481,0.0296,0.2962,0.0592,0.4444,0.0889c0-0.0741,0-0.1629-0.0148-0.237C27.5486,35.7766,27.5338,35.747,27.519,35.7174z
			 M26.8969,35.6729c-0.0148,0-0.0889-0.0148-0.0592-0.0296c0.0148-0.0296,0.0444-0.0296,0.0741-0.0296
			C26.9117,35.6433,26.9414,35.6581,26.8969,35.6729z M30.7776,35.7026c0.0741,0.0444,0.0741,0.0148,0.1037-0.0444
			c-0.0444-0.0296-0.0592-0.0592-0.1037,0c0,0.0444-0.0148,0.0444-0.0444,0.0148c-0.0592-0.0148-0.0592,0.0296-0.0741,0.0592
			c0.0296,0.0148,0.0592,0.0296,0.0889,0.0444C30.7628,35.747,30.7776,35.7322,30.7776,35.7026z M28.4522,35.7914
			c0.0296,0.0148,0.0444-0.0592,0.0444-0.0889c-0.0592-0.0296-0.0592-0.0592-0.0889-0.0889
			c-0.0148,0.0296-0.0296,0.0444-0.0296,0.0741c-0.0148,0.0592,0.0148,0.0592,0.0296,0.1037
			c0.0148,0.0889,0.0296,0.1777,0.0444,0.2666c-0.0741,0-0.1777,0-0.237-0.0444c-0.0296-0.0148,0.0592-0.1185-0.0148-0.1777
			c-0.0592-0.0444-0.1777-0.0592-0.2074,0.0296c-0.0296,0.1037,0.0444,0.0444,0.0741,0.1185c-0.0148,0-0.1037,0.0296-0.1037,0
			c0-0.0592-0.0148-0.1185-0.0592-0.1777c0,0.0296-0.0148,0.0444-0.0148,0.0741c-0.0148,0.0592,0.0148,0.0592,0.0296,0.1037
			c0.0148,0.0444,0.0148,0.0741-0.0296,0.1037c-0.1037,0.0889-0.1777,0.1037-0.2962,0.0148
			c-0.0444,0.0444,0.1333,0.1481,0.1926,0.1481c0.0741,0.0148,0.1777-0.0889,0.1777-0.1629c0.0592,0.0148,0.1185,0,0.1481-0.0444
			c0.0592,0.1037,0.2814,0.1037,0.3703,0.1037c0-0.0889,0-0.1629-0.0148-0.2518C28.467,35.8803,28.4522,35.8359,28.4522,35.7914z
			 M28.1115,35.9099c-0.0148,0-0.0296-0.0148-0.0296-0.0296c0-0.0148,0.0148-0.0296,0.0296-0.0296s0.0296,0.0296,0.0296,0.0444
			C28.1411,35.9247,28.1263,35.9099,28.1115,35.9099z M26.8821,35.3323c0.0148,0.0148,0.0444,0.0296,0.0592,0.0444
			c0.0148-0.0296,0.0296-0.0444,0.0444-0.0741c-0.0296-0.0148-0.0444-0.0444-0.0741-0.0592
			c-0.0148,0.0148-0.0296,0.0296-0.0444,0.0592c-0.0148-0.0148-0.0444-0.0296-0.0592-0.0444
			c-0.0148,0.0296-0.0296,0.0444-0.0444,0.0741c0.0296,0.0148,0.0592,0.0444,0.0741,0.0592
			C26.8525,35.3767,26.8673,35.3471,26.8821,35.3323z M27.3857,36.1469c0.0296,0.0296,0.0592,0.0444,0.1037,0.0741
			c0.0148-0.0296,0.0296-0.0592,0.0444-0.0889c-0.0296-0.0296-0.0741-0.0444-0.1037-0.0741
			C27.4153,36.0877,27.4005,36.1173,27.3857,36.1469z M27.208,36.0728c-0.0148-0.0148-0.0444-0.0296-0.0592-0.0444
			c-0.0296,0.0444-0.0592,0.0592-0.0148,0.0889c0.0148,0.0148,0.0296,0.0296,0.0592,0.0444
			c0.0148-0.0296,0.0296-0.0444,0.0296-0.0592c0.0148,0.0148,0.0444,0.0296,0.0592,0.0444
			c0.0148-0.0296,0.0296-0.0592,0.0444-0.0741c-0.0296-0.0148-0.0592-0.0444-0.0741-0.0592
			C27.2376,36.0284,27.2228,36.058,27.208,36.0728z M28.5558,35.9395c0,0.0592,0.0148,0.1037,0.0148,0.1629
			c0,0.0444-0.0296,0.1037,0.0148,0.1185c0.0296-0.0444,0.0444-0.0889,0.0444-0.1481c0-0.1333-0.0296-0.2814-0.0444-0.4147
			C28.5114,35.7766,28.541,35.821,28.5558,35.9395z M31.1775,35.9247c-0.0148,0.0444-0.0148,0.0741-0.0296,0.1037
			c0.0296,0.0296,0.0444,0.0444,0.0444,0.0889c-0.0444,0-0.2518,0.0592-0.2814,0.0148c-0.0592-0.0741-0.0592-0.2666-0.0741-0.3555
			c-0.0148,0.0444-0.0148,0.1185-0.0592,0.1481c-0.0592,0.0444-0.1037,0.0741-0.1333,0.1481
			c-0.0296,0.0592-0.0444,0.0889,0.0148,0.0889c0.0889,0.0148,0.1037,0,0.1629-0.0741c0,0.0444,0.0148,0.1185,0.0444,0.1481
			c0.0444,0.0444,0.1481,0.0148,0.1926,0.0148c0.0592,0,0.1629,0.0148,0.1629-0.0592c0-0.0592,0-0.1333-0.0148-0.1926
			C31.222,35.9692,31.2072,35.9544,31.1775,35.9247z M30.7924,36.0432c-0.0148,0-0.0592,0.0148-0.0592,0
			c0-0.0296,0.0592-0.0592,0.0889-0.0741C30.8221,36.0136,30.8369,36.0136,30.7924,36.0432z M31.533,36.0284
			c0.0296,0.0148,0.0444,0.0444,0.0444,0.0741c0.0148,0.0444-0.0444,0.1037-0.0741,0.1333
			c-0.0444,0.0444-0.0889,0.0889-0.1333,0.1037c-0.0592,0-0.1037-0.0592-0.1333,0c0.0592,0.0444,0.1481,0.1037,0.2222,0.0741
			c0.0592-0.0296,0.1629-0.1185,0.1629-0.1926c0-0.1037,0.0148-0.2074-0.0592-0.2814
			C31.5626,35.9544,31.5478,35.9988,31.533,36.0284z M33.2216,35.7322c-0.0741-0.0296-0.1037-0.1037-0.1777-0.1185
			c-0.0889-0.0148-0.1481,0.0741-0.1777,0.1333c0.0889-0.0444,0.1481-0.0148,0.2222,0.0444
			c-0.0889,0.0296-0.1926,0.0444-0.2814,0.0741c0-0.0296-0.0444-0.1629-0.0889-0.1629c-0.0592,0.0148-0.1037,0.1037-0.1185,0.1481
			c-0.0444,0.1037-0.2518,0.0889-0.3555,0.1333c0.0592-0.0296,0.0889-0.1037,0.0889-0.1629c0-0.0592-0.0296-0.1481-0.0889-0.0889
			c-0.0444,0.0444-0.0592,0.1037-0.0741,0.1629c-0.0296,0.0741-0.0444,0.0889-0.1185,0.1037c0-0.0741-0.0444-0.2666-0.1333-0.1333
			c-0.0592,0.0889-0.0889,0.2962,0.0741,0.2518c-0.0444,0.0592-0.0889,0.1185-0.1481,0.1333c-0.0296,0.0148-0.0592,0.0148-0.0889,0
			c-0.0444-0.0148-0.0592-0.0592-0.0889,0c0.0592,0.0444,0.1481,0.1185,0.237,0.0741c0.0592-0.0148,0.0889-0.0741,0.1185-0.1185
			c0.0148-0.0148,0.0148-0.0444,0.0296-0.0592c0.0148-0.0444,0.0296-0.0296,0.0889-0.0444c0,0.0741,0.0592,0.2518,0.1629,0.1777
			c0.0592-0.0444,0.1037-0.1777,0.0148-0.2074c0.0741-0.0148,0.1481-0.0296,0.2222-0.0444
			c0.0296-0.0148,0.0592-0.0444,0.0889-0.0741c0.0592,0.0148,0.1185,0.0296,0.1629,0.0148
			c0.1037-0.0148,0.2222-0.0444,0.3259-0.0741c0.0592-0.0148,0.1185-0.0296,0.1777-0.0444c0-0.0296,0-0.0592,0-0.0741
			C33.266,35.7174,33.266,35.747,33.2216,35.7322z M31.9626,36.0284c-0.1185,0.0148-0.0148-0.1333,0.0148,0
			C31.9774,36.0136,31.9626,36.0284,31.9626,36.0284z M32.1996,35.8803c0.0148-0.0296,0.0444-0.0444,0.0444,0.0148
			c0,0.0296-0.0592,0.0592-0.0889,0.0741C32.1699,35.9395,32.1847,35.9099,32.1996,35.8803z M32.2588,36.1913
			c-0.0444,0.0148-0.1037-0.0148-0.1037-0.0741c0.0296,0,0.0592,0,0.0889,0.0148C32.2588,36.1469,32.2884,36.1913,32.2588,36.1913z
			 M32.6291,35.8655c0.0296-0.1037,0.0889,0.0148,0.0741,0.0148S32.6587,35.8655,32.6291,35.8655z M32.955,36.0877
			c0.0296,0.0148,0.0741,0.0148,0.1037,0.0296c0.0148-0.0296,0.0444-0.0741,0.0592-0.1185
			c-0.0296-0.0148-0.0741-0.0148-0.1037-0.0296C32.9846,36.0136,32.9698,36.0432,32.955,36.0877z M31.1331,36.3098
			c0,0.0444-0.0148,0.0444-0.0444,0.0296c-0.0444-0.0296-0.0592,0.0296-0.0741,0.0741c0.0444,0.0296,0.0741,0.0592,0.0889,0
			c0-0.0444,0.0148-0.0444,0.0444-0.0148c0.0444,0.0296,0.0592-0.0296,0.0741-0.0741
			C31.1775,36.2802,31.1627,36.2506,31.1331,36.3098z M30.1555,36.1469c-0.0148,0.0148-0.1333,0.0444-0.1333,0.0148
			c0-0.0444,0-0.0889-0.0148-0.1333c-0.0741-0.1481-0.2518,0.0296-0.3259,0.0741c-0.0444,0.0296-0.1037,0.0741-0.1481,0.0592
			c-0.0592-0.0296,0.0148-0.1037-0.0592-0.1333c0,0.0741-0.0296,0.1333-0.1185,0.1185c-0.0592,0-0.0296-0.0148-0.0444-0.0592
			s-0.0296-0.0741-0.0592-0.1037c0,0.0296-0.0148,0.0444-0.0148,0.0741c-0.0148,0.0592,0.0148,0.0444,0.0296,0.1037
			c0.0296,0.0444,0,0.0741-0.0296,0.1185c-0.0889,0.0889-0.1777,0.1185-0.2814,0.0444c-0.0296,0.0444,0.0444,0.0741,0.0889,0.1037
			c0.0296,0.0296,0.0741,0.0444,0.1185,0.0296c0.0592-0.0148,0.1629-0.1037,0.1629-0.1777c0.0592,0,0.1037,0,0.1481-0.0592
			c0.0296,0.0889,0.1333,0.0741,0.2074,0.0741c0.1037,0,0.1926,0,0.2962,0c0.0592,0,0.1333,0.0148,0.1777-0.0296
			c0.0296-0.0296,0.0444-0.0148,0.0741,0c0.0444,0.0148,0.0889,0.0296,0.1333,0.0296c0-0.0741,0-0.1481-0.0296-0.2222
			C30.274,35.9099,30.2148,36.0877,30.1555,36.1469z M29.8,36.1617c-0.0444,0-0.0741,0-0.1185,0
			c0.0592-0.0444,0.1481-0.1037,0.2222-0.0741C30.037,36.1321,29.8297,36.1617,29.8,36.1617z M30.2148,36.1321
			c0.0296-0.1037,0.0889,0.0296,0.0741,0.0296C30.2592,36.1617,30.2296,36.1469,30.2148,36.1321z"/>
	</g>
	<g id="_x3C_Path_x3E__8_">
		<path class="st3" d="M25.0306,34.7842c0-0.0148,0.2666-6.0284,0.3555-8.0724l0,0c0.0296-0.6517,0.3259-0.8887,0.711-0.8887l0,0
			c0.3555,0,0.7998,0.2074,1.1849,0.4295l0,0c0.311,0.1926,0.6221,0.2518,0.9628,0.2518l0,0c0.548,0,1.1257-0.1481,1.7626-0.1481
			l0,0c0.6369,0,1.2146,0.1481,1.7626,0.1481l0,0c0.3407,0,0.6665-0.0592,0.9628-0.2518l0,0
			c0.3851-0.2222,0.8147-0.4295,1.1701-0.4295l0,0c0.3851,0,0.6813,0.237,0.711,0.8887l0,0
			c0.0889,2.0588,0.3555,8.0724,0.3555,8.0724l0,0h-0.0296v0.0148L25.0306,34.7842L25.0306,34.7842z M34.9101,34.7546
			c-0.0148-0.4147-0.2666-6.0728-0.3555-8.0576l0,0c-0.0296-0.6369-0.2962-0.8443-0.6517-0.8443l0,0
			c-0.3407,0-0.785,0.1926-1.1553,0.4295l0,0c-0.3111,0.1926-0.6517,0.2518-0.9924,0.2518l0,0c-0.548,0-1.1405-0.1481-1.7626-0.1481
			l0,0c-0.6221,0-1.2146,0.1481-1.7626,0.1481l0,0c-0.3407,0-0.6813-0.0592-0.9924-0.2518l0,0
			c-0.3851-0.2222-0.8147-0.4295-1.1553-0.4295l0,0c-0.3555,0-0.6221,0.2074-0.6517,0.8443l0,0
			c-0.0889,2.0588-0.3407,8.0428-0.3703,8.0576l0,0H34.9101L34.9101,34.7546z"/>
	</g>
	<g id="_x3C_Path_x3E__6_" transform="matrix(1.000151,0,0,1,2.1783e-2,6.394885e-14)">
		<g id="_x3C_Path_x3E__7_">
			<path class="st2" d="M30.7585,26.6525c0.2814,0.1629,0.7406,0.1629,0.7406,0.1629s-0.7406-1.022-0.548-1.8811
				c0.2518-1.1405-0.0148-1.5849-0.5036-1.7182c-0.3851-0.0889-0.5332-0.0444-0.711,0.0148
				c-0.1629,0.0592-0.3851,0.2814-0.3851,0.2814s-0.2518-0.1333-0.4444-0.1629c-0.1926-0.0296-0.4592,0-0.4592,0.3999l0.0592-0.0592
				c0,0,0.2814,0.0592,0.4444,0.1926c0.1185,0.1037,0.2814,0.548,0.3259,0.948c0.1185,0.8443-0.8443,1.9848-0.8443,1.9848
				s0.4592,0,0.7406-0.1629c-0.1037,0.1629-0.1629,0.2222-0.2814,0.3407c0.3407-0.0592,0.785-0.4444,0.785-0.4444l0.2814,0.3851
				l0.2814-0.3851c0,0,0.4592,0.3851,0.785,0.4444C30.9214,26.8747,30.877,26.8155,30.7585,26.6525z"/>
			<path class="st3" d="M31.0399,27.008c-0.3407-0.0592-0.7702-0.4295-0.7702-0.4592l0,0l-0.2962,0.4147l-0.0148-0.0296
				l-0.2518-0.3851c0,0-0.4444,0.3851-0.7998,0.4592l0,0l-0.0741,0.0148l0.0592-0.0444c0.1185-0.1037,0.1629-0.1629,0.2962-0.2962
				l0,0c-0.2814,0.1629-0.7554,0.1629-0.7554,0.1629l0,0h-0.0592l0.0296-0.0444c0,0,0.8443-1.0072,0.8443-1.8219l0,0
				c0-0.0444,0-0.1037-0.0148-0.1481l0,0c-0.0444-0.3999-0.2074-0.8443-0.3259-0.9331l0,0
				c-0.1481-0.1185-0.4147-0.1777-0.4147-0.1926l0,0l-0.1037,0.1037v-0.0592c0-0.3407,0.2074-0.4295,0.3851-0.4295l0,0
				c0.0444,0,0.0741,0,0.1037,0.0148l0,0c0.1926,0.0296,0.4295,0.1481,0.4295,0.1629l0,0c0.0148-0.0148,0.2222-0.2222,0.3851-0.2814
				l0,0c0.1037-0.0444,0.2074-0.0741,0.3555-0.0741l0,0c0.1037,0,0.2222,0.0148,0.3703,0.0592l0,0
				c0.3703,0.0889,0.6221,0.3703,0.6221,0.9776l0,0c0,0.2074-0.0296,0.474-0.1037,0.7702l0,0
				c-0.0148,0.0889-0.0296,0.1926-0.0296,0.2962l0,0c0,0.7702,0.5777,1.5701,0.5777,1.5701l0,0l0.0296,0.0444h-0.0444
				c0,0-0.3851,0-0.6665-0.1185l0,0c0.0741,0.1037,0.1333,0.1629,0.2222,0.2518l0,0l0.0592,0.0592L31.0399,27.008L31.0399,27.008z
				 M28.9663,26.9488c0.3111-0.0889,0.6962-0.4147,0.7258-0.4147l0,0l0.2666,0.3703l0.2962-0.3703c0,0,0.3851,0.3259,0.6962,0.4295
				l0,0c-0.0741-0.0741-0.1333-0.1481-0.2222-0.2814l0,0l0.0148-0.0148l0.0148-0.0148c0.2222,0.1333,0.5628,0.1481,0.6813,0.1629
				l0,0c-0.1185-0.1629-0.5628-0.8739-0.5628-1.5552l0,0c0-0.1037,0.0148-0.2074,0.0296-0.2962l0,0
				c0.0741-0.2962,0.1037-0.548,0.1037-0.7554l0,0c0-0.5925-0.237-0.8443-0.5925-0.9331l0,0
				c-0.1481-0.0296-0.2666-0.0444-0.3703-0.0444l0,0c-0.1333,0-0.237,0.0296-0.3407,0.0741l0,0
				c-0.1629,0.0592-0.3703,0.2814-0.3999,0.2814l0,0c0,0-0.2518-0.1333-0.4444-0.1629l0,0c-0.0296,0-0.0741-0.0148-0.1037-0.0148
				l0,0c-0.1481,0-0.311,0.0592-0.3259,0.3407l0,0l0.0444-0.0296c0,0,0.2814,0.0592,0.4592,0.1926l0,0
				c0.1333,0.1185,0.2814,0.548,0.3407,0.9628l0,0c0.0148,0.0592,0.0148,0.1037,0.0148,0.1629l0,0
				c0,0.7406-0.6665,1.6145-0.8295,1.807l0,0c0.1333,0,0.474-0.0296,0.711-0.1185l0,0
				C29.0848,26.8006,29.0403,26.8747,28.9663,26.9488L28.9663,26.9488z"/>
		</g>
	</g>
	<g id="_x3C_Path_x3E__5_">
		<path class="st3" d="M30.9406,23.5865c-0.1481-0.237-0.237-0.237-0.3851-0.3259c-0.2814-0.1777-0.6665-0.0592-0.8443,0
			s-0.3407,0.2666-0.3407,0.2666s0.2962,0,0.4147,0.1481c0.1185,0.1481,0.2518,0.0148,0.3555-0.0592
			c0.1185-0.0741,0.2074-0.1481,0.3555-0.1777C30.6443,23.4235,30.9406,23.5865,30.9406,23.5865z"/>
		<path class="st3" d="M29.7704,23.705c-0.1037-0.1333-0.3703-0.1481-0.3999-0.1481l0,0V23.542l-0.0148-0.0148
			c0,0,0.1777-0.2074,0.3555-0.2666l0,0c0.1037-0.0444,0.2814-0.1037,0.474-0.1037l0,0c0.1333,0,0.2666,0.0296,0.3851,0.1037l0,0
			c0.1333,0.0741,0.2518,0.1037,0.3851,0.3259l0,0l-0.0148,0.0148l-0.0148,0.0148c0,0-0.0592-0.0296-0.1481-0.0741l0,0
			c-0.0889-0.0296-0.1777-0.0741-0.2518-0.0741l0,0c-0.0148,0-0.0148,0-0.0296,0l0,0c-0.1333,0.0296-0.237,0.0889-0.3407,0.1777l0,0
			c-0.0741,0.0444-0.1629,0.1333-0.2518,0.1333l0,0C29.8593,23.779,29.8149,23.7494,29.7704,23.705L29.7704,23.705z
			 M29.8149,23.6754c0.0296,0.0444,0.0741,0.0592,0.1037,0.0592l0,0c0.0741,0,0.1481-0.0741,0.2222-0.1185l0,0
			c0.1037-0.0741,0.2074-0.1481,0.3555-0.1777l0,0c0.0148,0,0.0148,0,0.0296,0l0,0c0.1037,0,0.2518,0.0592,0.3407,0.1037l0,0
			c-0.1185-0.1629-0.2074-0.1777-0.3259-0.2518l0,0c-0.1037-0.0592-0.237-0.0889-0.3555-0.0889l0,0
			c-0.1777,0-0.3555,0.0592-0.4592,0.0889l0,0c-0.1333,0.0444-0.2814,0.1926-0.3407,0.2222l0,0
			C29.4594,23.5124,29.6964,23.5272,29.8149,23.6754L29.8149,23.6754z"/>
	</g>
	<path class="st2" d="M29.9333,23.4828c0,0.0444-0.0296,0.0741-0.0592,0.0741c-0.0444,0-0.0741-0.0296-0.0741-0.0741
		c0-0.0444,0.0296-0.0592,0.0741-0.0592C29.9037,23.4235,29.9333,23.4532,29.9333,23.4828z"/>
	<path class="st4" d="M28.4818,23.6605c0,0,0.3259-0.0889,0.6665,0.0889c0.311,0.1629,0.4888,0.4147,0.4888,0.4147
		s-0.1333-0.1629-0.2518-0.0741c-0.1629,0.1185-0.1333,0.4147-0.1333,0.4147s-0.0296-0.3703-0.2074-0.5332
		C28.8669,23.8087,28.4818,23.6605,28.4818,23.6605z"/>
	<g>
		<path class="st3" d="M29.1335,26.7118c0,0,0.3851-0.474,0.3851-1.022l0,0c0-0.0592,0-0.1333-0.0148-0.1926l0,0l0.0444-0.0148
			c0.0148,0.0592,0.0148,0.1333,0.0148,0.1926l0,0c0,0.5628-0.3851,1.0516-0.3851,1.0516l0,0l0,0L29.1335,26.7118L29.1335,26.7118z"
			/>
	</g>
	<g>
		<path class="st3" d="M30.4221,25.6898c0-0.0592,0-0.1333,0.0148-0.1926l0,0l0.0444,0.0148
			c-0.0148,0.0592-0.0148,0.1333-0.0148,0.1926l0,0c0,0.548,0.3851,1.0072,0.3851,1.0072l0,0l-0.0296,0.0296
			C30.8072,26.7266,30.4221,26.2526,30.4221,25.6898L30.4221,25.6898z"/>
	</g>
	<g>
		<path class="st3" d="M29.6519,26.5637c0.0148-0.0148,0.1926-0.4295,0.1777-0.8147l0,0c0-0.0741,0-0.1481-0.0148-0.2222l0,0h0.0444
			c0.0148,0.0741,0.0148,0.1481,0.0148,0.2222l0,0c0,0.3999-0.1629,0.7998-0.1926,0.8443l0,0L29.6519,26.5637L29.6519,26.5637z"/>
	</g>
	<g>
		<path class="st3" d="M30.0667,25.7342c0-0.0741,0-0.1481,0.0148-0.2222l0,0l0.0444,0.0148
			c-0.0148,0.0741-0.0148,0.1333-0.0148,0.2074l0,0c0,0.3999,0.1629,0.7998,0.1777,0.8295l0,0l-0.0296,0.0296
			C30.2296,26.534,30.0667,26.1341,30.0667,25.7342L30.0667,25.7342z"/>
	</g>
	<g>
		<polygon class="st3" points="28.3929,31.3923 27.8745,31.9552 28.1115,27.9263 28.5855,27.8671 		"/>
		<polygon class="st3" points="25.5639,34.1473 25.0454,34.7102 25.3861,26.5933 25.9045,26.3859 		"/>
		<polygon class="st3" points="26.3489,33.4363 25.8305,33.9992 26.1563,26.5192 26.6747,27.0228 		"/>
		<polygon class="st3" points="27.1191,32.7254 26.6007,33.2882 26.8821,27.1709 27.3265,27.5412 		"/>
		<polygon class="st3" points="27.7708,32.044 27.2524,32.6069 27.5042,27.6745 27.9634,27.8671 		"/>
	</g>
	<g>
		<polygon class="st3" points="31.5775,31.3923 32.0959,31.9552 31.8589,27.9263 31.3849,27.8671 		"/>
		<polygon class="st3" points="34.4065,34.1473 34.9249,34.7102 34.5843,26.5933 34.0658,26.3859 		"/>
		<polygon class="st3" points="33.6363,33.4363 34.1547,33.9992 33.814,26.5192 33.2956,27.0228 		"/>
		<polygon class="st3" points="32.8661,32.7254 33.3845,33.2882 33.1031,27.1709 32.6439,27.5412 		"/>
		<polygon class="st3" points="32.1996,32.044 32.7328,32.6069 32.4662,27.6745 32.0218,27.8671 		"/>
	</g>
	<g>
		<polygon class="st3" points="30.0963,31.4219 30.2888,34.3991 29.9926,34.7694 29.6964,34.3991 29.8741,31.4219 		"/>
		<polygon class="st3" points="30.2,31.4219 31.0739,34.2362 30.8813,34.6953 30.511,34.4139 29.9926,31.496 		"/>
		<polygon class="st3" points="29.7704,31.4219 28.8965,34.2362 29.1039,34.6953 29.4594,34.4139 29.9926,31.496 		"/>
	</g>
	<g>
		<g>
			<polygon class="st2" points="28.6003,35.1693 26.7636,34.5324 28.3189,30.1481 29.8741,31.1405 			"/>
			<path class="st3" d="M26.7488,34.5176l1.5701-4.3991l1.5849,1.0368l-1.2738,4.0288h-0.0148l-0.0148,0.0148L26.7488,34.5176
				L26.7488,34.5176z M26.7784,34.5028l1.807,0.6221l1.2738-3.9696l-1.5256-0.9776L26.7784,34.5028L26.7784,34.5028z"/>
		</g>
		<g>
			<polygon class="st3" points="28.0226,31.8811 27.8597,31.3923 27.9041,31.3775 28.0522,31.8219 28.5262,31.3775 28.5558,31.4071 
				28.0374,31.9107 			"/>
		</g>
		<g>
			<polygon class="st3" points="28.4374,30.6073 28.4818,30.6073 28.6892,32.207 29.1779,31.5552 29.2224,31.5849 28.6595,32.3255 
							"/>
		</g>
		<g>
			<polygon class="st3" points="29.0743,31.7922 29.1039,31.7626 29.4594,32.4143 29.4149,32.4291 			"/>
		</g>
		<g>
			<polygon class="st3" points="28.4818,32.4736 28.1263,32.992 28.1115,32.9327 27.9782,32.3106 27.4894,32.5921 27.4894,32.5921 
				27.4598,32.5476 27.993,32.281 28.1411,32.8735 28.5114,32.3551 28.7336,33.3475 29.252,32.9624 29.2816,32.992 28.704,33.4215 
							"/>
		</g>
		<g>
			<polygon class="st3" points="28.7336,33.6141 28.2004,34.1769 28.0374,33.4363 27.519,33.9103 27.2524,33.1994 27.282,33.1845 
				27.5338,33.8363 28.0671,33.3475 28.23,34.0881 28.7632,33.5252 28.9113,34.2066 28.8669,34.2214 			"/>
		</g>
		<g>
			<polygon class="st3" points="28.2004,34.962 28.1115,34.3843 27.6079,34.7694 27.4598,34.1029 26.8821,34.5769 26.8525,34.5324 
				27.4746,34.0288 27.6227,34.6805 28.1411,34.3102 28.1411,34.3399 28.2448,34.9175 28.8373,34.3695 28.8669,34.3991 
				28.2004,35.0064 			"/>
		</g>
	</g>
	<g>
		<g>
			<polygon class="st2" points="31.3849,35.1693 33.2216,34.5324 31.6663,30.1629 30.1111,31.1553 			"/>
			<path class="st3" d="M31.3849,35.1693h-0.0148l-1.259-4.0436l1.5701-1.0072l1.5552,4.4287l-1.8367,0.6369L31.3849,35.1693
				L31.3849,35.1693z M30.1259,31.1405l1.2738,3.9992l1.7922-0.5925l-1.5404-4.3547L30.1259,31.1405L30.1259,31.1405z"/>
		</g>
		<g>
			<polygon class="st3" points="31.4293,31.4219 31.459,31.3923 31.9181,31.8367 32.0811,31.3923 32.1255,31.4071 31.9478,31.9255 
							"/>
		</g>
		<g>
			<polygon class="st3" points="30.7628,31.5849 30.7924,31.5552 31.2812,32.207 31.4886,30.6221 31.533,30.6221 31.3257,32.3255 
							"/>
		</g>
		<g>
			<polygon class="st3" points="30.5258,32.4291 30.8813,31.7774 30.9109,31.7922 30.5703,32.444 			"/>
		</g>
		<g>
			<polygon class="st3" points="30.7036,33.0068 30.7332,32.9624 31.2516,33.3475 31.4738,32.3699 31.8441,32.8883 31.9922,32.2662 
				32.5254,32.5624 32.4958,32.6069 32.0218,32.3403 31.8589,32.992 31.4886,32.4736 31.2812,33.4363 			"/>
		</g>
		<g>
			<polygon class="st3" points="31.0739,34.2214 31.222,33.5252 31.7552,34.1029 31.9181,33.3623 32.4365,33.8511 32.6883,33.1994 
				32.7328,33.2142 32.4662,33.9251 31.9478,33.4512 31.7848,34.1917 31.2516,33.6289 31.1183,34.2362 			"/>
		</g>
		<g>
			<polygon class="st3" points="31.1183,34.4139 31.1479,34.3843 31.7404,34.9323 31.8441,34.3102 32.3477,34.6953 32.4958,34.0288 
				33.1179,34.5472 33.1327,34.5472 33.0883,34.5917 32.5254,34.1177 32.3773,34.7694 31.8737,34.3991 31.77,35.0212 			"/>
		</g>
	</g>
	<g>
		<g>
			<g id="_x3C_Path_x3E__4_" transform="matrix(1.000151,0,0,1,2.1783e-2,6.394885e-14)">
				<g id="_x32_1315904_2_">
					<path class="st2" d="M31.8842,34.7694c-0.4592,0.0592-0.9628,0.1185-1.3627,0.0592c-0.237,0-0.3999,0.3851,0.0444,0.4444
						c0.3999,0.0592,1.022,0,1.3627-0.0592c0.2814-0.0592,0.9035-0.1629,1.3034-0.2814c0.3999-0.1777,0.1185-0.5036-0.1185-0.4592
						C32.7877,34.5917,32.3286,34.7102,31.8842,34.7694z"/>
					<path class="st3" d="M30.566,35.3026c-0.2074-0.0296-0.2962-0.1333-0.2962-0.237l0,0c0-0.1333,0.1185-0.2518,0.2666-0.2518l0,0
						c0.1037,0.0148,0.2222,0.0148,0.3555,0.0148l0,0c0.311,0,0.6665-0.0444,0.9924-0.0889l0,0
						c0.4444-0.0592,0.9035-0.1777,1.2442-0.2814l0,0c0.0148,0,0.0296,0,0.0592,0l0,0c0.1481,0,0.2814,0.1185,0.2814,0.2666l0,0
						c0,0.0889-0.0592,0.1777-0.2074,0.2518l0,0c-0.3999,0.1185-1.022,0.2222-1.3183,0.2814l0,0
						c-0.237,0.0444-0.6221,0.0741-0.9776,0.0741l0,0C30.8178,35.3174,30.6845,35.3174,30.566,35.3026L30.566,35.3026z
						 M30.3142,35.0508c0,0.0889,0.0592,0.1629,0.2666,0.1926l0,0c0.1185,0.0148,0.2518,0.0148,0.3851,0.0148l0,0
						c0.3407,0,0.7258-0.0444,0.9628-0.0741l0,0c0.2814-0.0592,0.9183-0.1629,1.3034-0.2814l0,0
						c0.1333-0.0592,0.1777-0.1333,0.1777-0.2074l0,0c0-0.1037-0.1185-0.2222-0.237-0.2222l0,0c-0.0148,0-0.0296,0-0.0444,0l0,0
						c-0.3555,0.1185-0.7998,0.2222-1.259,0.2814l0,0c-0.3259,0.0444-0.6813,0.0741-1.0072,0.0741l0,0
						c-0.1333,0-0.2518,0-0.3555-0.0148l0,0C30.4178,34.8435,30.3142,34.962,30.3142,35.0508L30.3142,35.0508z"/>
				</g>
				<g id="path2035_2_">
					<path class="st3" d="M30.566,35.3026c-0.2074-0.0296-0.311-0.1333-0.2962-0.2518l0,0c0-0.1185,0.1037-0.237,0.2518-0.237l0,0
						h0.0148l0,0c0.0444,0,0.1037,0,0.1777,0l0,0c0.4295,0,1.1257-0.0592,1.1701-0.0592l0,0l0,0c0,0,0.9035-0.1926,1.2442-0.2814
						l0,0c0.0148,0,0.0296-0.0148,0.0592-0.0148l0,0c0.1481,0,0.2814,0.1333,0.2814,0.2666l0,0c0,0.0889-0.0592,0.1777-0.2222,0.237
						l0,0c-0.3999,0.1481-1.3183,0.2814-1.3183,0.2814l0,0c0,0-0.6221,0.0741-1.0813,0.0741l0,0
						C30.7437,35.3174,30.6548,35.3026,30.566,35.3026L30.566,35.3026z M30.3142,35.0508c0,0.0889,0.0592,0.1777,0.2666,0.2074l0,0
						c0.0741,0.0148,0.1629,0.0148,0.2814,0.0148l0,0c0.4444,0,1.0813-0.0741,1.0813-0.0741l0,0c0,0,0.9183-0.1333,1.3034-0.2814
						l0,0c0.1481-0.0444,0.1926-0.1185,0.1926-0.1926l0,0c0-0.1037-0.1185-0.2222-0.237-0.2222l0,0c-0.0148,0-0.0296,0-0.0444,0l0,0
						c-0.3555,0.1037-1.2442,0.2814-1.2442,0.2814l0,0v-0.0296v0.0296c0,0-0.7406,0.0592-1.1849,0.0592l0,0
						c-0.0741,0-0.1333,0-0.1777,0l0,0h-0.0148C30.403,34.8435,30.3142,34.9471,30.3142,35.0508L30.3142,35.0508z"/>
				</g>
			</g>
			<g>
				<path class="st2" d="M32.1847,35.1545c0.0148,0.1481-0.1333,0.474-0.1333,0.474s-0.2666-0.2814-0.2814-0.4295
					c-0.0148-0.1481,0.0741-0.2814,0.1777-0.2962C32.0662,34.8879,32.1699,35.0064,32.1847,35.1545z"/>
				<path class="st3" d="M32.0218,35.6433c0,0-0.2666-0.2814-0.2814-0.4444l0,0c0-0.0148,0-0.0296,0-0.0296l0,0
					c0-0.1481,0.0889-0.2666,0.2074-0.2814l0,0h0.0148l0,0c0.1333,0,0.2222,0.1185,0.2518,0.2814l0,0h-0.0296h0.0296
					c0,0.0148,0,0.0148,0,0.0296l0,0c0,0.1777-0.1481,0.4592-0.1481,0.4592l0,0l-0.0148,0.0296L32.0218,35.6433L32.0218,35.6433z
					 M31.9626,34.9175h-0.0148l0,0c-0.0889,0.0148-0.1629,0.1037-0.1629,0.237l0,0c0,0.0148,0,0.0148,0,0.0296l0,0
					c0.0148,0.1185,0.1926,0.3259,0.2518,0.3999l0,0c0.0296-0.0741,0.1185-0.2962,0.1185-0.4147l0,0c0-0.0148,0-0.0148,0-0.0148l0,0
					l0,0C32.1403,35.0212,32.0514,34.9175,31.9626,34.9175L31.9626,34.9175L31.9626,34.9175L31.9626,34.9175z"/>
			</g>
			<g>
				<path class="st2" d="M30.5554,35.273c-0.0148,0.1481-0.1481,0.0741-0.2666,0.3999c-0.1481-0.1777-0.1629-0.2962-0.1481-0.4592
					c0.0148-0.1629,0.1333-0.2666,0.237-0.2518C30.511,34.9916,30.5851,35.1249,30.5554,35.273z"/>
				<path class="st3" d="M30.274,35.6877c-0.1185-0.1481-0.1629-0.2518-0.1629-0.3703l0,0c0-0.0296,0-0.0592,0.0148-0.1037l0,0
					c0.0148-0.1481,0.1185-0.2666,0.2518-0.2666l0,0c0,0,0.0148,0,0.0296,0l0,0c0.1185,0.0148,0.1926,0.1333,0.1926,0.2814l0,0
					c0,0.0148,0,0.0296,0,0.0592l0,0h-0.0296h0.0296c-0.0296,0.1777-0.1629,0.0889-0.2666,0.3999l0,0l-0.0148,0.0444L30.274,35.6877
					L30.274,35.6877z M30.1703,35.2286c0,0.0296-0.0148,0.0592-0.0148,0.0889l0,0c0,0.1037,0.0296,0.1926,0.1185,0.311l0,0
					c0.1185-0.2814,0.2518-0.2222,0.2518-0.3555l0,0l0,0c0-0.0148,0-0.0296,0-0.0444l0,0c0-0.1185-0.0592-0.2222-0.1629-0.237l0,0
					h-0.0148l0,0C30.274,34.9916,30.1852,35.0805,30.1703,35.2286L30.1703,35.2286z"/>
			</g>
			<g>
				<path class="st2" d="M33.3104,34.9471c0.0741,0.1333,0.1629,0,0.3999,0.2666c0.0741-0.2222,0.0444-0.3407-0.0296-0.474
					s-0.2222-0.1926-0.3259-0.1333C33.2512,34.6509,33.2364,34.8138,33.3104,34.9471z"/>
				<path class="st3" d="M33.6956,35.2286c-0.2222-0.2518-0.2962-0.1185-0.3999-0.2666l0,0l0.0148-0.0148l0.0148-0.0148
					c0.0592,0.1037,0.1481,0,0.3703,0.2222l0,0c0.0148-0.0741,0.0296-0.1333,0.0296-0.1777l0,0c0-0.0889-0.0296-0.1629-0.0741-0.237
					l0,0c-0.0592-0.0889-0.1481-0.1481-0.2222-0.1481l0,0c-0.0296,0-0.0592,0-0.0741,0.0148l0,0
					c-0.0444,0.0296-0.0741,0.0889-0.0741,0.1629l0,0c0,0.0444,0.0148,0.1037,0.0444,0.1629l0,0l-0.0148,0.0148l-0.0148,0.0148
					c-0.0296-0.0592-0.0444-0.1185-0.0444-0.1777l0,0c0-0.0889,0.0296-0.1629,0.0889-0.1926l0,0
					c0.0296-0.0148,0.0592-0.0296,0.1037-0.0296l0,0c0.1037,0,0.1926,0.0592,0.2518,0.1629l0,0
					c0.0444,0.0741,0.0741,0.1629,0.0741,0.2666l0,0c0,0.0741-0.0148,0.1481-0.0444,0.237l0,0l-0.0148,0.0444L33.6956,35.2286
					L33.6956,35.2286z"/>
			</g>
			<g>
				<polygon class="st3" points="30.8072,35.0953 30.8072,35.0508 31.1183,35.0508 31.1183,35.0953 				"/>
			</g>
			<g>
				<polygon class="st3" points="31.296,35.036 31.5775,35.0212 31.5775,35.0656 31.296,35.0805 				"/>
			</g>
			<g>
				<polygon class="st3" points="32.2884,34.9175 32.5699,34.8583 32.5847,34.9027 32.3032,34.962 				"/>
			</g>
			<g>
				<polygon class="st3" points="32.7328,34.8138 33.0142,34.7546 33.029,34.799 32.7476,34.8583 				"/>
			</g>
		</g>
		<g>
			<g id="_x3C_Path_x3E__3_" transform="matrix(1.000151,0,0,1,2.1783e-2,6.394885e-14)">
				<g id="_x32_1315904_1_">
					<path class="st2" d="M28.0628,34.7694c0.4592,0.0592,0.9776,0.1185,1.3627,0.0592c0.237,0,0.3999,0.3851-0.0444,0.4444
						c-0.3999,0.0592-1.022,0-1.3627-0.0592c-0.2814-0.0592-0.9035-0.1629-1.3034-0.2814
						c-0.3999-0.1777-0.1185-0.5036,0.1185-0.4592C27.1741,34.5917,27.6184,34.7102,28.0628,34.7694z"/>
					<path class="st3" d="M28.0183,35.2434c-0.2814-0.0592-0.9035-0.1629-1.3183-0.2814l0,0
						c-0.1481-0.0592-0.2074-0.1629-0.2074-0.2518l0,0c0-0.1481,0.1481-0.2666,0.2814-0.2666l0,0c0.0148,0,0.0296,0,0.0592,0l0,0
						c0.3407,0.1185,0.7998,0.2222,1.2442,0.2814l0,0l0,0c0.3259,0.0444,0.6813,0.0889,0.9924,0.0889l0,0
						c0.1333,0,0.2518-0.0148,0.3555-0.0148l0,0c0.1333,0,0.2518,0.1185,0.2518,0.2518l0,0c0,0.1037-0.0889,0.2222-0.2962,0.237l0,0
						c-0.1185,0.0148-0.2518,0.0148-0.3999,0.0148l0,0C28.6404,35.3174,28.2553,35.2878,28.0183,35.2434L28.0183,35.2434z
						 M26.5223,34.7102c0,0.0741,0.0444,0.1481,0.1777,0.2074l0,0c0.3999,0.1037,1.022,0.2222,1.3034,0.2814l0,0
						c0.237,0.0444,0.6221,0.0741,0.9628,0.0741l0,0c0.1481,0,0.2666,0,0.3851-0.0148l0,0
						c0.2074-0.0296,0.2666-0.1185,0.2666-0.1926l0,0c0-0.1037-0.1037-0.2074-0.2074-0.2074l0,0
						c-0.1185,0.0148-0.237,0.0148-0.3555,0.0148l0,0c-0.3259,0-0.6813-0.0444-1.0072-0.0741l0,0v-0.0296v0.0296
						c-0.4444-0.0592-0.9035-0.1777-1.2442-0.2814l0,0c-0.0148,0-0.0296,0-0.0444,0l0,0
						C26.6556,34.5028,26.5223,34.6065,26.5223,34.7102L26.5223,34.7102z"/>
				</g>
				<g id="path2035_1_">
					<path class="st3" d="M28.0183,35.2434c0,0-0.9183-0.1333-1.3183-0.2814l0,0c-0.1481-0.0592-0.2222-0.1481-0.2222-0.237l0,0
						c0-0.1481,0.1481-0.2666,0.2814-0.2666l0,0c0.0148,0,0.0444,0,0.0592,0.0148l0,0c0.3555,0.0889,1.2442,0.2814,1.2442,0.2814
						l0,0l0,0c0.0444,0,0.7406,0.0592,1.1701,0.0592l0,0c0.0592,0,0.1185,0,0.1777,0l0,0h0.0148l0,0
						c0.1333,0,0.237,0.1185,0.237,0.237l0,0c0,0.1185-0.0889,0.2222-0.2962,0.2518l0,0c-0.0741,0.0148-0.1777,0.0148-0.2814,0.0148
						l0,0C28.6404,35.3174,28.0183,35.2434,28.0183,35.2434L28.0183,35.2434z M26.5223,34.725c0,0.0741,0.0444,0.1481,0.1926,0.1926
						l0,0c0.3851,0.1333,1.3034,0.2814,1.3034,0.2814l0,0c0,0,0.6221,0.0741,1.0813,0.0741l0,0c0.1037,0,0.2074,0,0.2814-0.0148l0,0
						c0.2074-0.0296,0.2666-0.1185,0.2666-0.2074l0,0c0-0.1037-0.0889-0.1926-0.1926-0.1926l0,0h-0.0148l0,0
						c-0.0444,0-0.1185,0-0.1777,0l0,0c-0.4444,0-1.1849-0.0592-1.1849-0.0592l0,0v-0.0296v0.0296c0,0-0.8887-0.1926-1.2442-0.2814
						l0,0c-0.0148,0-0.0296,0-0.0444,0l0,0C26.6556,34.5028,26.5223,34.6065,26.5223,34.725L26.5223,34.725z"/>
				</g>
			</g>
			<g>
				<path class="st2" d="M27.8153,35.1545c-0.0148,0.1481,0.1481,0.474,0.1481,0.474s0.2666-0.2814,0.2814-0.4295
					c0.0148-0.1481-0.0741-0.2814-0.1777-0.2962C27.9486,34.8879,27.8301,35.0064,27.8153,35.1545z"/>
				<path class="st3" d="M27.9338,35.6433c0,0-0.1481-0.2962-0.1481-0.4592l0,0c0-0.0148,0-0.0148,0-0.0296l0,0
					c0.0148-0.1481,0.1185-0.2814,0.237-0.2814l0,0c0.0148,0,0.0148,0,0.0148,0l0,0c0.1185,0.0148,0.2074,0.1333,0.2074,0.2814l0,0
					c0,0.0148,0,0.0296,0,0.0444l0,0c-0.0148,0.1777-0.2814,0.4444-0.2814,0.4444l0,0l-0.0148,0.0296L27.9338,35.6433
					L27.9338,35.6433z M27.8449,35.1693c0,0.1185,0.0889,0.3407,0.1333,0.4147l0,0c0.0592-0.0741,0.237-0.2814,0.2518-0.3999l0,0
					c0-0.0148,0-0.0296,0-0.0296l0,0c0-0.1333-0.0741-0.2222-0.1629-0.237l0,0h-0.0148l0,0c-0.0889,0-0.1777,0.1037-0.1926,0.237
					l0,0C27.8449,35.1545,27.8449,35.1693,27.8449,35.1693L27.8449,35.1693z"/>
			</g>
			<g>
				<path class="st2" d="M29.4446,35.273c0.0148,0.1481,0.1629,0.0741,0.2666,0.3999c0.1481-0.1777,0.1777-0.2962,0.1481-0.4592
					c-0.0296-0.1629-0.1333-0.2666-0.2518-0.2518C29.489,34.9916,29.4149,35.1249,29.4446,35.273z"/>
				<path class="st3" d="M29.6964,35.6877c-0.1037-0.3111-0.237-0.2222-0.2666-0.3999l0,0l0,0c0-0.0148,0-0.0444,0-0.0592l0,0
					c0-0.1333,0.0741-0.2518,0.1926-0.2666l0,0c0.0148,0,0.0148,0,0.0296,0l0,0c0.1185,0,0.2222,0.1185,0.2518,0.2666l0,0
					c0,0.0296,0,0.0592,0,0.0889l0,0c0,0.1185-0.0444,0.237-0.1629,0.3851l0,0l-0.0296,0.0296L29.6964,35.6877L29.6964,35.6877z
					 M29.726,35.6285c0.0889-0.1185,0.1185-0.2222,0.1185-0.3111l0,0c0-0.0296,0-0.0592,0-0.0889l0,0
					c-0.0148-0.1333-0.1185-0.237-0.2074-0.2222l0,0c-0.0148,0-0.0148,0-0.0148,0l0,0c-0.0889,0.0148-0.1481,0.1037-0.1481,0.2222
					l0,0c0,0.0148,0,0.0296,0,0.0444l0,0h-0.0296h0.0296C29.4742,35.4063,29.6075,35.3471,29.726,35.6285L29.726,35.6285z"/>
			</g>
			<g>
				<path class="st2" d="M26.6896,34.9471c-0.0741,0.1333-0.1629,0-0.3999,0.2666c-0.0741-0.2222-0.0444-0.3407,0.0296-0.474
					c0.0741-0.1333,0.2222-0.1926,0.3259-0.1333C26.7488,34.6509,26.7784,34.8138,26.6896,34.9471z"/>
				<path class="st3" d="M26.2748,35.2138c-0.0296-0.0889-0.0444-0.1629-0.0444-0.237l0,0c0-0.1037,0.0296-0.1777,0.0741-0.2666l0,0
					c0.0592-0.1037,0.1629-0.1629,0.2666-0.1629l0,0c0.0296,0,0.0592,0,0.0889,0.0296l0,0
					c0.0741,0.0444,0.1037,0.1185,0.1037,0.1926l0,0c0,0.0592-0.0148,0.1185-0.0444,0.1777l0,0
					c-0.1037,0.1481-0.1777,0.0148-0.3999,0.2666l0,0l-0.0296,0.0296L26.2748,35.2138L26.2748,35.2138z M26.3489,34.7398
					c-0.0444,0.0741-0.0741,0.1481-0.0741,0.237l0,0c0,0.0444,0.0148,0.1185,0.0296,0.1777l0,0
					c0.2222-0.2222,0.3111-0.1185,0.3703-0.2222l0,0c0.0296-0.0592,0.0444-0.1037,0.0444-0.1629l0,0
					c0-0.0741-0.0296-0.1333-0.0741-0.1629l0,0c-0.0296-0.0148-0.0444-0.0148-0.0741-0.0148l0,0
					C26.497,34.5917,26.4081,34.6509,26.3489,34.7398L26.3489,34.7398z"/>
			</g>
			<g>
				<polygon class="st3" points="28.8817,35.0953 28.8817,35.0508 29.1928,35.0508 29.1928,35.0953 				"/>
			</g>
			<g>
				<polygon class="st3" points="28.4225,35.0656 28.4225,35.0212 28.704,35.036 28.704,35.0805 				"/>
			</g>
			<g>
				<polygon class="st3" points="27.4153,34.9027 27.4301,34.8583 27.7116,34.9175 27.6968,34.962 				"/>
			</g>
			<g>
				<polygon class="st3" points="26.9858,34.799 26.9858,34.7546 27.2672,34.8138 27.2524,34.8583 				"/>
			</g>
		</g>
	</g>
	<g>
		<g id="_x3C_Path_x3E__1_" transform="matrix(1.000151,0,0,1,2.1783e-2,6.394885e-14)">
			<g id="_x3C_Path_x3E__2_">
				<path class="st2" d="M29.9735,27.2746c0.5777,0.4444,1.3034,0.6665,2.1625,0.6221c-0.0592,1.9848-0.6221,3.3475-2.1625,4.3695
					c-1.5404-1.022-2.1033-2.3847-2.1625-4.3695C28.67,27.956,29.4106,27.7338,29.9735,27.2746z"/>
				<path class="st3" d="M27.811,27.8819c0.0741,0,0.1481,0,0.2222,0l0,0c0.7554,0,1.4071-0.2222,1.9107-0.6221l0,0l0.0148,0.0148
					l0.0148-0.0148c0.5184,0.3999,1.1701,0.6221,1.9255,0.6221l0,0c0.0741,0,0.1481,0,0.2518,0.0148l0,0
					c-0.0592,1.9848-0.6221,3.3623-2.1922,4.3843l0,0C28.4182,31.259,27.8554,29.8963,27.811,27.8819L27.811,27.8819z
					 M29.9587,32.2514c1.5256-1.022,2.0885-2.3699,2.1773-4.3251l0,0c-0.0741,0-0.1481,0-0.2222,0l0,0
					c-0.7554,0-1.4071-0.2222-1.9404-0.6221l0,0c-0.5184,0.3999-1.1849,0.6221-1.9255,0.6221l0,0c-0.0741,0-0.1481,0-0.2074-0.0296
					l0,0C27.8998,29.8815,28.4627,31.2294,29.9587,32.2514L29.9587,32.2514z"/>
			</g>
		</g>
		<g>
			<path class="st3" d="M30.6591,27.8523c-0.237-0.0889-0.4592-0.2074-0.6221-0.3555c-0.2074,0.1629-0.4295,0.2814-0.6813,0.3703
				c-0.3851,0.1333-0.8295,0.1926-1.3034,0.1926c0.0889,1.4367,0.5332,2.5773,1.3034,3.3919
				c0.2074,0.2222,0.4295,0.4147,0.6813,0.5925c0.237-0.1481,0.4295-0.3407,0.6221-0.5332c0.7998-0.8147,1.259-1.97,1.3034-3.4363
				C31.5034,28.0745,31.0442,28.0004,30.6591,27.8523z"/>
			<path class="st3" d="M29.3261,31.4812c-0.7702-0.8147-1.2146-1.97-1.2886-3.4363l0,0c0.474,0,0.9183-0.0592,1.3034-0.1926l0,0
				c0.2518-0.0889,0.474-0.2074,0.6665-0.3555l0,0l0.0148-0.0148l0.0148,0.0148c0.1629,0.1481,0.3851,0.2666,0.6221,0.3555l0,0
				l-0.0148,0.0296l-0.0148,0.0296c-0.237-0.0889-0.4444-0.1926-0.6221-0.3407l0,0c-0.2074,0.1481-0.4147,0.2666-0.6665,0.3555l0,0
				c-0.3851,0.1333-0.8295,0.2074-1.2886,0.1777l0,0c0.0889,1.4219,0.5332,2.5624,1.3034,3.3771l0,0
				c0.2074,0.2222,0.4295,0.4147,0.6369,0.5777l0,0c0.2222-0.1481,0.4295-0.3259,0.6221-0.5332l0,0
				c0.7998-0.8147,1.2442-1.9552,1.3331-3.3919l0,0c-0.4592,0-0.9183-0.0592-1.3183-0.2074l0,0l0.0148-0.0296l0.0148-0.0296
				c0.3851,0.1481,0.8443,0.2074,1.3183,0.237l0,0c-0.0444,1.4812-0.5036,2.6365-1.3183,3.466l0,0
				c-0.1926,0.1926-0.3999,0.3851-0.6665,0.5332l0,0C29.7556,31.8959,29.5334,31.6885,29.3261,31.4812L29.3261,31.4812z"/>
		</g>
		<g>
			<path class="st2" d="M30.0222,27.4968c-0.2074,0.1629-0.4295,0.2814-0.6813,0.3703v3.5845
				c0.2074,0.2222,0.4295,0.4147,0.6813,0.5925c0.237-0.1481,0.4295-0.3407,0.6221-0.5332v-3.6585
				C30.4073,27.7782,30.2,27.6597,30.0222,27.4968z"/>
			<path class="st3" d="M28.0374,28.0745c0.0889,1.4367,0.5332,2.5773,1.3034,3.3919v-3.5845
				C28.9706,28.0004,28.5262,28.0745,28.0374,28.0745z"/>
			<path class="st3" d="M30.6591,27.8523v3.6585c0.7998-0.8147,1.259-1.97,1.3034-3.4363
				C31.5034,28.0745,31.0442,28.0004,30.6591,27.8523z"/>
		</g>
	</g>
</g>
</svg>
