<?xml version="1.0" encoding="utf-8"?>
<!-- Generator: Adobe Illustrator 21.1.0, SVG Export Plug-In . SVG Version: 6.00 Build 0)  -->
<svg version="1.1" id="Layer_1" xmlns="http://www.w3.org/2000/svg" xmlns:xlink="http://www.w3.org/1999/xlink" x="0px" y="0px"
	 viewBox="0 0 60 60" style="enable-background:new 0 0 60 60;" xml:space="preserve">
<style type="text/css">
	.st0{clip-path:url(#SVGID_2_);}
	.st1{fill:#FFFFFF;}
	.st2{fill:#007A3D;}
	.st3{fill:#C4111B;}
	.st4{fill:#CC0000;}
</style>
<g>
	<g>
		<g>
			<g>
				<g>
					<defs>
						<circle id="SVGID_1_" cx="30" cy="30" r="30"/>
					</defs>
					<clipPath id="SVGID_2_">
						<use xlink:href="#SVGID_1_"  style="overflow:visible;"/>
					</clipPath>
					<g class="st0">
						<rect width="60" height="20"/>
						<rect y="20" class="st1" width="60" height="20"/>
						<rect y="40" class="st2" width="60" height="20"/>
					</g>
				</g>
			</g>
		</g>
	</g>
	<path class="st3" d="M0,30c0,6.908,2.3409,13.2657,6.2645,18.3369L24.6014,30L6.2645,11.6631C2.3409,16.7343,0,23.092,0,30z"/>
</g>
<g>
	<g>
		<g>
			<path class="st4" d="M32.0975,30.0028c0-4.0786,2.984-7.4593,6.8873-8.0689c-0.5502-0.1175-1.1237-0.1838-1.7167-0.1838
				c-4.5556,0-8.2444,3.6959-8.2444,8.2528s3.6888,8.2472,8.2444,8.2472c0.5929,0,1.1665-0.065,1.7167-0.1812
				C35.0815,37.4621,32.0975,34.0814,32.0975,30.0028z"/>
		</g>
		<polygon class="st4" points="39.2873,24.5973 40.6295,28.7243 44.9763,28.7243 41.4628,31.2826 42.8021,35.4055 39.2873,32.8528 
			35.7809,35.4055 37.1229,31.2826 33.611,28.7243 37.9509,28.7243 		"/>
	</g>
</g>
</svg>
