<?xml version="1.0" encoding="utf-8"?>
<!-- Generator: Adobe Illustrator 21.0.2, SVG Export Plug-In . SVG Version: 6.00 Build 0)  -->
<svg version="1.1" id="Layer_1" xmlns="http://www.w3.org/2000/svg" xmlns:xlink="http://www.w3.org/1999/xlink" x="0px" y="0px"
	 viewBox="0 0 296.0192 296.0164" style="enable-background:new 0 0 296.0192 296.0164;" xml:space="preserve">
<style type="text/css">
	.st0{fill:#FFFFFF;}
	.st1{fill:#CF142B;}
</style>
<g>
	<g>
		<path class="st0" d="M293.7057,122.1055C282.9478,61.1305,234.8825,13.068,173.9137,2.3073v119.7982H293.7057z"/>
		<path class="st0" d="M122.1089,2.3073C61.134,13.068,13.0714,61.1305,2.2973,122.1055h119.8116V2.3073z"/>
		<path class="st0" d="M2.2973,173.9069c10.7741,60.9688,58.8367,109.0409,119.8116,119.8048V173.9069H2.2973z"/>
		<path class="st0" d="M173.9137,293.7117c60.9688-10.7639,109.0341-58.836,119.792-119.8048h-119.792V293.7117z"/>
		<path class="st1" d="M173.9137,173.9069h119.792c1.4841-8.414,2.3135-17.0552,2.3135-25.899
			c0-8.8404-0.8294-17.4885-2.3135-25.9024h-119.792V2.3073C165.4897,0.826,156.8449,0,148.0113,0
			c-8.8499,0-17.4919,0.826-25.9024,2.3073v119.7982H2.2973C0.8165,130.5194,0,139.1675,0,148.0079
			c0,8.8438,0.8165,17.485,2.2973,25.899h119.8116v119.8048c8.4105,1.4909,17.0525,2.3047,25.9024,2.3047
			c8.8336,0,17.4784-0.8138,25.9024-2.3047L173.9137,173.9069L173.9137,173.9069z"/>
	</g>
</g>
</svg>
