<?xml version="1.0" encoding="utf-8"?>
<!-- Generator: Adobe Illustrator 21.1.0, SVG Export Plug-In . SVG Version: 6.00 Build 0)  -->
<svg version="1.1" id="Layer_1" xmlns="http://www.w3.org/2000/svg" xmlns:xlink="http://www.w3.org/1999/xlink" x="0px" y="0px"
	 viewBox="0 0 60 60" style="enable-background:new 0 0 60 60;" xml:space="preserve">
<style type="text/css">
	.st0{fill:#12AD2B;}
	.st1{fill:#4189DD;}
	.st2{fill:#EA0437;}
	.st3{fill:#FEC726;}
</style>
<g>
	<g>
		<path class="st0" d="M60,30.0004C60,13.4321,46.5669,0,29.9999,0C19.5876,0,10.4196,5.3058,5.0389,13.3598l24.9611,16.6406H60z"/>
		<path class="st1" d="M60,30.0004H29.9999L5.0389,46.6422C10.4196,54.6942,19.5876,60,29.9999,60C46.5669,60,60,46.5699,60,30.0004
			z"/>
		<path class="st2" d="M5.0389,13.3598C1.8567,18.1222,0,23.8434,0,30.0004c0,6.1561,1.8567,11.8788,5.0389,16.6418l54.953-16.6418
			L5.0389,13.3598z"/>
		<path class="st3" d="M19.2834,20.6008c0.0469,0.0088,0.0946,0.0376,0.132,0.0664c0.5569,0.3666,1.0822,0.7847,1.5466,1.2664
			c0.4301,0.4295,0.8068,0.9188,1.0976,1.4623c0.0221,0.0375,0.0644,0.0656,0.0978,0.093c0.2955,0.2138,0.5614,0.4684,0.7859,0.7606
			c0.2245,0.2889,0.39,0.6199,0.5474,0.9549c0.0067-0.2225,0.0067-0.4442-0.0335-0.66c0-0.1569-0.0314-0.3123-0.0495-0.4704
			c-0.0663-0.3793-0.1534-0.7627-0.3505-1.0929c-0.0523-0.0904-0.1179-0.1655-0.1876-0.2392
			c0.2935-0.0181,0.575,0.1293,0.7645,0.3445c0.2111,0.2453,0.3498,0.5442,0.4584,0.8497c0.2359,0.6815,0.3291,1.4026,0.4014,2.1169
			c0.0174,0.2231,0.0316,0.4463,0.0495,0.6627c0.0725-0.004,0.0918-0.0831,0.116-0.1387c0.0985-0.2653,0.1072-0.5554,0.136-0.8343
			c0.0095-0.3786,0.0095-0.7606-0.067-1.1304c-0.0081-0.0355-0.0134-0.0737-0.0154-0.1099
			c0.4121,0.4228,0.6734,0.9697,0.7973,1.5365c0.0155,0.0704,0.0281,0.1415,0.0335,0.2118l0.0114,0.0148
			c0.0174,0.1334,0.0215,0.262,0.0376,0.3933c0.0476,0.8169-0.1099,1.6311-0.3277,2.4144
			c-0.0937,0.3438-0.2057,0.6834-0.3203,1.0165c-0.0295,0.0891-0.0737,0.1749-0.0811,0.2627
			c0.0832-0.0281,0.1448-0.0937,0.2004-0.1548c0.1757-0.1969,0.3036-0.4315,0.4048-0.6734c0.1037-0.2673,0.1802-0.5502,0.1735-0.831
			c0-0.0556,0-0.1032,0-0.1595c0.1006,0.0764,0.1755,0.1843,0.248,0.2889c0.2157,0.3129,0.321,0.6983,0.3036,1.0795
			c-0.0228,0.4979-0.2124,0.9756-0.4356,1.4158c-0.4181,0.8062-0.9702,1.5299-1.4655,2.2852
			c-0.014,0.0214-0.0307,0.0388-0.0469,0.0582c0.2224-0.1051,0.4135-0.2613,0.6057-0.4147
			c0.6473-0.5535,1.2256-1.2296,1.5178-2.0432c0.006-0.004,0.0195-0.0067,0.0207-0.008c0.0657,0.262,0.0618,0.5428,0.0262,0.8134
			c-0.0697,0.4055-0.2359,0.7894-0.453,1.1373c-0.195,0.315-0.4295,0.6077-0.6895,0.8752c-0.5234,0.5454-1.1217,1.0158-1.761,1.4226
			c-0.2701,0.1729-0.5515,0.3377-0.8423,0.4777c0.0449,0.0188,0.0965,0.0188,0.1427,0.0167c0.3417-0.0154,0.6715-0.14,1.0178-0.1474
			c0.1494-0.0047,0.3089,0.0154,0.4477,0.0818c-0.2333,0.3055-0.5636,0.5172-0.8932,0.7129
			c-0.3807,0.2118-0.7807,0.3914-1.1861,0.5467c-0.9019,0.3472-1.8474,0.589-2.8016,0.7473
			c-0.7115,0.1179-1.4326,0.1809-2.1522,0.2057c0.2385,0.0823,0.4723,0.1897,0.6599,0.3578
			c0.2071,0.1696,0.3652,0.4047,0.4335,0.6668c0.0255,0.093,0.0168,0.1936,0.0168,0.2894c-1.1813,0-2.3633,0-3.544,0
			c-0.0187-0.2948,0.1132-0.5797,0.3003-0.7987c0.2157-0.2419,0.5039-0.4095,0.8135-0.4899
			c-0.7653-0.0361-1.5325-0.0918-2.285-0.2251c-0.6908-0.1241-1.3797-0.3029-1.9895-0.6513
			c-0.3163-0.179-0.6037-0.4061-0.8342-0.6836c-0.0563-0.0737-0.1374-0.1125-0.2138-0.1608
			c-0.6197-0.3531-1.3106-0.5481-1.9988-0.7062c0.1225-0.1696,0.3289-0.2506,0.526-0.2782c0.3176-0.0388,0.6379,0.0276,0.9328,0.122
			c0.266,0.0851,0.5207,0.1883,0.7733,0.3049c0.0917,0.0421,0.1802,0.0904,0.2787,0.1179
			c-0.2043-0.2345-0.4751-0.3866-0.7424-0.5401c-0.6239-0.3551-1.2612-0.7084-1.7979-1.1915
			c-0.5421-0.4784-0.973-1.0976-1.1766-1.7966c-0.0858-0.2848-0.1239-0.579-0.1562-0.8724c0.0088,0,0.0309,0,0.0416-0.0027
			c0.1367,0.2104,0.2922,0.4095,0.4489,0.6004c0.4778,0.5857,1.0032,1.1392,1.6337,1.56c0.1044,0.0637,0.1976,0.1481,0.3189,0.1776
			c-0.4798-0.6265-0.9569-1.2483-1.3482-1.9284c-0.3117-0.5469-0.5764-1.1259-0.6782-1.745
			c-0.0395-0.2533-0.0321-0.5074-0.0187-0.7592c0.0456-0.3016,0.1279-0.5971,0.2806-0.8544
			c0.0255,0.0677,0.0336,0.1374,0.0497,0.2078c0.1246,0.5133,0.3731,0.9843,0.5869,1.4635
			c0.0093-0.0188,0.0207-0.0356,0.0376-0.0497c0.004,0.0255,0.0093,0.0509,0.0126,0.0858c0.0174-0.0656,0.006-0.13-0.0328-0.1776
			c-0.1186-0.4984-0.185-1.0145-0.2378-1.5258c0.0066-0.012,0.0154-0.0307,0.0228-0.0435
			c-0.0557-0.0718-0.0449-0.1736-0.0583-0.2587c0-0.1407-0.0274-0.2787-0.0242-0.4228c-0.0281-0.3545-0.0161-0.7057-0.0161-1.0648
			c0.0254-0.465,0.063-0.9454,0.1983-1.3991c0.0616-0.195,0.1394-0.394,0.2996-0.5348c0.0602,0.0678,0.0932,0.1495,0.1279,0.2285
			c0.1682,0.4002,0.2259,0.831,0.2708,1.2579c0.0409,0.4737,0.0141,0.9549,0.0207,1.4312c0.0918-0.1762,0.102-0.3773,0.1206-0.5716
			c0.0202-0.1065,0.0102-0.2211,0.0188-0.331c0.0281-0.2452,0-0.4945,0.0281-0.7418c0.006-0.1762-0.0026-0.3531,0.0202-0.526
			c0.0073-0.1655-0.0074-0.3298,0.02-0.4899c0-0.1481,0.0388-0.2981,0.0214-0.4476c0.0034,0.0288,0.0108,0.057,0.0148,0.0817
			c0.0361-0.3752,0.1172-0.7485,0.2419-1.109c0.1486-0.4154,0.3945-0.8168,0.7732-1.0614c0.118-0.0764,0.244-0.1494,0.3819-0.1782
			c-0.0858,0.3291-0.1702,0.6574-0.2244,0.9937c-0.0583,0.2956-0.1053,0.5878-0.1709,0.8819
			c-0.0564,0.2715-0.1227,0.5408-0.1964,0.8054c0.0737-0.0744,0.1132-0.1728,0.1702-0.258c0.195-0.3322,0.4402-0.6392,0.7666-0.8483
			c0.0423-0.0274,0.0904-0.0469,0.1213-0.0851c0.3022-0.5595,0.6948-1.0669,1.1076-1.5473c0.3759-0.4168,0.7766-0.8182,1.247-1.1297
			c0.2426-0.1501,0.5348-0.3063,0.8316-0.2199c-0.0041,0.0255-0.0067,0.0516-0.0255,0.0697
			c-0.2989,0.4161-0.6486,0.7934-1.0139,1.1526c-0.0268,0.0254-0.0542,0.0535-0.0488,0.0944
			c0.4737-0.3029,0.9783-0.5581,1.5036-0.7652c0.5508-0.2157,1.125-0.3826,1.7181-0.3987c0.3048,0.004,0.6258,0.0468,0.8784,0.2318
			c-0.2526,0.199-0.5428,0.3371-0.8423,0.4417c-0.6305,0.2211-1.2973,0.327-1.9258,0.5642
			c-0.1146,0.0382-0.2185,0.0999-0.3331,0.1387c0.1013,0.0463,0.205,0.059,0.3123,0.077c0.4912,0.065,0.9958,0.0362,1.4735-0.0951
			c0.0958-0.0221,0.1843-0.067,0.2841-0.0844c-0.1286,0.3243-0.4368,0.5428-0.7618,0.6406c-0.4116,0.13-0.8477,0.0898-1.2732,0.0991
			c-0.2801,0.0102-0.579,0.0228-0.8282,0.1689c-0.1039,0.057-0.1836,0.14-0.2594,0.2264c0.4149,0.0871,0.8544,0.0718,1.2577-0.0602
			c0.0276-0.0074,0.0523-0.01,0.0751-0.0181c-0.0616,0.1018-0.1313,0.1976-0.2285,0.2666c-0.2418,0.175-0.5414,0.244-0.8335,0.2668
			c-0.39,0.002-0.7766,0.0254-1.1552,0.1153c-0.5341,0.1233-1.0439,0.3927-1.4004,0.8195
			c-0.2613,0.3029-0.4423,0.6715-0.5736,1.0488c-0.0288,0.0985-0.0609,0.1969-0.0858,0.2975
			c0.0744-0.0551,0.1193-0.1408,0.181-0.2071c0.2753-0.3284,0.5112-0.6922,0.7973-1.0146c0.0904-0.0972,0.1822-0.1869,0.2882-0.2687
			c0.0188-0.018,0.0469-0.008,0.0751-0.0086c0.0516,0.1292,0.1098,0.2594,0.1039,0.4021c0.014,0.2813-0.0939,0.5542-0.2345,0.7873
			c-0.1575,0.2545-0.3612,0.4878-0.628,0.6258c-0.1339,0.0792-0.2633,0.1749-0.3852,0.2768
			c-0.2747,0.2492-0.5241,0.5328-0.6989,0.8605c-0.1334,0.2432-0.2378,0.5152-0.2157,0.7987c0.008,0,0.02-0.0021,0.0281-0.0021
			c0.1748-0.2071,0.325-0.4328,0.4247-0.6862c0.0429-0.1018,0.0771-0.2118,0.1622-0.2794c0.0637,0.1957,0.0758,0.4035,0.0563,0.6097
			c-0.0535,0.3559-0.2064,0.6936-0.3719,1.0106c-0.0937,0.1843-0.1574,0.3852-0.2004,0.583
			c-0.0468,0.2546-0.079,0.5065-0.1018,0.7632c-0.0093,0.2171-0.0609,0.4309-0.0791,0.6487
			c0.0402-0.0423,0.0637-0.0898,0.0858-0.1367c0.179-0.3954,0.2714-0.8196,0.3659-1.2377c0.0549-0.2137,0.0904-0.4336,0.1615-0.6399
			c0.0207,0.252,0.0737,0.4993,0.14,0.7431c0.0992,0.4323,0.2526,0.8524,0.3331,1.2907c0.0516,0.2513-0.0047,0.5119-0.0992,0.7485
			c-0.0978,0.2351-0.2506,0.4543-0.282,0.7136c-0.0107,0.2413,0.0167,0.4905,0.1039,0.717c0.0509,0.1575,0.1165,0.307,0.1748,0.4637
			c0.0081,0.0034,0.0242,0.0047,0.0328,0.0074c0.0195-0.4322,0.0376-0.8752-0.0502-1.3c-0.0128-0.0623-0.0255-0.12-0.0495-0.1749
			c0.1212,0.0898,0.2076,0.2151,0.2934,0.3371c0.2231,0.3217,0.3854,0.6848,0.5374,1.046c0.0785,0.2004,0.1676,0.3961,0.2338,0.6011
			c0.0557-0.0537,0.0537-0.1401,0.0644-0.2131c0.0047-0.1655,0.0202-0.327,0.0516-0.4905c0.0141-0.0067,0.0295-0.0107,0.0449-0.0161
			c0.2338,0.7324,0.6064,1.4119,1.0869,2.0083c0.4221,0.5159,0.9469,0.9763,1.5827,1.2129c0.2252,0.0877,0.4618,0.136,0.705,0.1474
			c0.1864,0.0147,0.3766,0.0542,0.5441,0.1441c0.2178,0.1145,0.453,0.2111,0.6996,0.2298c0-0.1742-0.0316-0.3484-0.0288-0.524
			c-0.0188-0.1508-0.0067-0.3015-0.0316-0.4524c-0.006-0.1239-0.006-0.2452-0.0221-0.3665c0.0054-0.1574-0.0281-0.3122-0.0241-0.467
			c-0.0161-0.13-0.0107-0.264-0.0307-0.394c-0.0074-0.1106-0.0027-0.2199-0.0114-0.3303c-0.0202-0.1482-0.0047-0.301-0.0302-0.453
			c0.0021-0.1722-0.0261-0.3478-0.0255-0.52c-0.0851,0.0268-0.1601,0.0777-0.2472,0.1058
			c-0.2875,0.1006-0.5878,0.1474-0.8919,0.1401c-0.3826,0.01-0.7719-0.0778-1.095-0.2855
			c-0.2499-0.1642-0.4476-0.4054-0.5535-0.6862c-0.1011-0.2554-0.1448-0.5308-0.1387-0.8042
			c0.0952,0.0383,0.1501,0.1367,0.2332,0.1978c0.2601,0.2365,0.5583,0.4496,0.9046,0.54c0.1715,0.043,0.3438,0.079,0.52,0.0744
			c-0.3162-0.1648-0.6158-0.3571-0.8945-0.5849c-0.2366-0.1985-0.4551-0.4323-0.6018-0.7036
			c-0.1039-0.1884-0.1648-0.4095-0.1401-0.6292c0.317,0.2251,0.6319,0.4509,0.9717,0.6372c0.1313,0.073,0.2692,0.1348,0.414,0.1755
			c-0.2366-0.2908-0.467-0.5984-0.6085-0.9521c-0.067-0.1689-0.0891-0.3545-0.0696-0.536c0.0288,0,0.057-0.0054,0.0784,0.0086
			c0.2948,0.1408,0.5502,0.3471,0.7873,0.5649c0.3726,0.327,0.6882,0.7124,0.9844,1.1078c0-0.0865,0.0014-0.1776-0.0147-0.2675
			c-0.0141-0.156,0-0.3136-0.0202-0.4663c-0.0073-0.1783-0.0026-0.3545-0.01-0.5281c-0.0316-0.3336-0.0021-0.6667-0.0302-0.9984
			c0-0.2915-0.006-0.5823-0.0093-0.8738c-0.0751,0-0.142,0.0361-0.2157,0.0563c-0.3096,0.0925-0.6654,0.1253-0.9643-0.0202
			c-0.2694-0.13-0.4489-0.3899-0.5616-0.6546c-0.1481-0.3645-0.2117-0.7585-0.2459-1.1446c0.0276,0.0093,0.051,0.0242,0.0624,0.0483
			c0.0877,0.1393,0.1835,0.2713,0.2901,0.3947c0.0709,0.073,0.1453,0.1481,0.2425,0.1862c0.0797,0.0281,0.1662,0.0047,0.2273-0.0542
			c0.0133-0.0174-0.0067-0.0397-0.0155-0.0583c-0.276-0.3598-0.4047-0.8142-0.4542-1.2571
			c-0.0309-0.1783-0.0174-0.3659-0.0195-0.5469c-0.0054-0.1822,0.0295-0.3619,0.0523-0.5435
			c0.13,0.4691,0.3686,0.9121,0.6896,1.2773c0.1158,0.1353,0.2439,0.2708,0.3892,0.3692c0.0088,0.0167,0.0167,0.0295,0.0242,0.0469
			c-0.006-0.0188-0.0074-0.0321-0.0093-0.0502c-0.1743-0.2452-0.3237-0.512-0.38-0.8048c-0.0093-0.1053-0.02-0.2345,0.0543-0.3203
			c0.0589-0.0725,0.1655-0.0797,0.2439-0.0523c0.1125,0.0435,0.2038,0.1186,0.2808,0.205c0.1488,0.1595,0.2841,0.3371,0.3746,0.5354
			c0.0817,0.1817,0.1279,0.3733,0.15,0.5704c0.0148,0.2057,0.0095,0.4147,0.0107,0.6272c0.0711-0.0563,0.1153-0.1394,0.1682-0.2092
			c0.2252-0.3243,0.4309-0.6741,0.52-1.0607c0.0489-0.1923,0.0369-0.394,0.0274-0.5944c-0.0321-0.2017-0.0823-0.4054-0.1628-0.6004
			l-0.0141-0.0081c-0.2773,0.0376-0.5762,0.0276-0.8282-0.1093c-0.2894-0.1487-0.4891-0.418-0.6439-0.6988
			c0.1353,0.0247,0.258,0.0837,0.3899,0.1139c0.2078,0.0523,0.447,0.1025,0.652,0.0033c0.1529-0.0717,0.2306-0.2299,0.2909-0.3826
			c-0.0055,0-0.0162,0-0.0209,0c-0.2861,0.1327-0.6137,0.215-0.9233,0.1348c-0.2627-0.0583-0.4872-0.2238-0.6748-0.4128
			c0-0.0074,0-0.0235,0-0.0302c0.1909-0.1562,0.4308-0.252,0.676-0.2499c0.327-0.0107,0.648,0.0884,0.9315,0.2418
			c0.0335,0.0128,0.0696,0.0248,0.1044,0.0369c-0.0228-0.1501-0.073-0.2894-0.087-0.4389
			c-0.0141-0.2312-0.0027-0.4658,0.0167-0.6956c0.1119,0,0.213,0.0469,0.3115,0.0865c0.258,0.1146,0.4691,0.3391,0.5502,0.6165
			c0.1125,0.4054-0.0134,0.8544-0.2815,1.1741c-0.0388,0.0604-0.0107,0.1407-0.0121,0.2078
			c0.0442,0.3926,0.1822,0.7706,0.2373,1.1606c0.0093,0,0.0274,0.0047,0.0355,0.0086c0.1145-0.3812,0.2801-0.7585,0.5721-1.0339
			c0.3003-0.3015,0.7593-0.3926,1.1647-0.2968c-0.2152,0.0944-0.3779,0.272-0.4697,0.4825
			c-0.112,0.2351-0.1655,0.4884-0.2594,0.7264c0.2493-0.0255,0.5032-0.122,0.6734-0.315c0.1287-0.1341,0.2045-0.3022,0.3016-0.4577
			c0.0462,0.024,0.0609,0.0797,0.0811,0.1239c0.0408,0.1011,0.0858,0.2085,0.0863,0.3231c0,0.1125,0.0128,0.2318-0.0261,0.3364
			c-0.0878,0.2968-0.2948,0.5293-0.5281,0.7197c-0.1976,0.1688-0.4201,0.3103-0.6472,0.4396
			c0.3203,0.0274,0.6606-0.0235,0.9321-0.2017c0.0951-0.0589,0.1635-0.146,0.2411-0.2285c0.0102,0,0.0281,0,0.0409,0
			c0.0067,0.1743,0.0141,0.3605-0.0623,0.526c-0.0898,0.238-0.2908,0.4188-0.516,0.5267c-0.2513,0.1253-0.534,0.1783-0.8121,0.1783
			c-0.2827-0.0054-0.5548-0.0951-0.8261-0.1615c-0.1294-0.0307-0.2727-0.0563-0.3907,0.0088
			c-0.1286,0.0844-0.1769,0.2392-0.215,0.3785c-0.063,0.2459-0.1234,0.4953-0.1676,0.7384
			c-0.0495,0.2601-0.0704,0.5207-0.0897,0.7808c-0.0027,0.1005-0.0095,0.203,0.0033,0.2989
			c0.0161-0.0302,0.0288-0.0604,0.0383-0.0952c0.1079-0.4308,0.2339-0.8631,0.418-1.2685c0.0564-0.1287,0.1294-0.2513,0.2038-0.3726
			c0.0442-0.0663,0.0897-0.1327,0.1514-0.1769c-0.0194,0.1185-0.057,0.2439-0.057,0.3672l-0.014,0.0174
			c0,0.0616-0.0047,0.1206-0.0134,0.1762c-0.0302,0.3577,0.0093,0.7224,0.0939,1.0688c0.0321,0,0.0663,0.0074,0.0965-0.0154
			c0.2687-0.1488,0.4965-0.3626,0.6815-0.6104c0.2009-0.2721,0.3477-0.6011,0.3745-0.949c0.0202,0.0095,0.0388,0.0095,0.059,0.0209
			c0.1595,0.1213,0.2975,0.2861,0.3531,0.4838c0.079,0.274,0,0.5636-0.1253,0.8175c-0.1917,0.3787-0.4858,0.6943-0.8296,0.9476
			c0.3847,0.0924,0.8007,0.1025,1.1766-0.0383c0.2198-0.083,0.4142-0.2225,0.5609-0.4033c0.006,0,0.0242-0.0067,0.0302-0.0067
			c0.0181,0.2887-0.0242,0.5971-0.1929,0.8396c-0.1595,0.2211-0.4109,0.3531-0.6668,0.4161
			c-0.402,0.0939-0.8189,0.0664-1.2175-0.0126c-0.0932-0.0174-0.1829-0.053-0.2747-0.053c-0.2197-0.0014-0.4428,0.063-0.6011,0.2137
			c-0.0709,0.0671-0.126,0.1555-0.146,0.252c-0.0161,0.0832-0.01,0.1676-0.0081,0.2513c0.0081,0.1656,0.0932,0.313,0.1408,0.4718
			c0.1962,0.6051,0.2332,1.2504,0.3812,1.8709c0.0288,0.1172,0.057,0.2318,0.1065,0.3424c0.0737-0.4028,0.1495-0.8068,0.264-1.2075
			c0.0537-0.1855,0.1199-0.3766,0.2098-0.5481c0.0951-0.1762,0.2285-0.3263,0.3712-0.463c0.1091-0.0993,0.2418-0.201,0.3973-0.2057
			c0.0939-0.0114,0.1648,0.0811,0.1776,0.1669c0.0328,0.27-0.0751,0.5294-0.185,0.7653c-0.0114,0.0221-0.008,0.053-0.008,0.077
			c0.4584-0.2727,0.7966-0.7083,1.042-1.1753c0.0073-0.0021,0.0193-0.006,0.0254-0.006c0.0388,0.122,0.0825,0.2492,0.0865,0.3806
			c0.0348,0.248-0.0242,0.5086-0.1427,0.7331c-0.2031,0.4075-0.5488,0.7217-0.8268,1.0802c0.2258,0,0.4208-0.1339,0.5742-0.2834
			c0.1648-0.1682,0.2889-0.3739,0.3477-0.5957c0.0664,0.1005,0.0906,0.2218,0.1134,0.3324c0.0582,0.2278,0.018,0.4698-0.0671,0.6815
			c-0.1501,0.3511-0.463,0.6097-0.8008,0.7746c-0.2727,0.1301-0.5802,0.2238-0.8865,0.1883
			c-0.0737-0.0066-0.1514,0.0167-0.215,0.0597c-0.1234,0.0871-0.2064,0.2197-0.272,0.3517
			c-0.1368,0.2929-0.2152,0.6145-0.2473,0.9349c-0.0355,0.2104-0.0174,0.4249-0.0161,0.6399c0.0342,0,0.0663-0.0067,0.1005-0.0195
			c0.5193-0.2183,1.0346-0.4408,1.5767-0.5849c0.3498-0.1006,0.707-0.1829,1.0668-0.2554c0.2378-0.0428,0.4717-0.1333,0.6634-0.2861
			c0.1923-0.1481,0.3263-0.3564,0.424-0.5769c0.1187-0.2634,0.1763-0.5435,0.2935-0.8074c0.1032-0.2266,0.2747-0.4135,0.4437-0.5978
			c0.2123-0.2199,0.4288-0.4356,0.6251-0.6688c0.0483-0.0616,0.0939-0.1206,0.1287-0.1876c0.0133,0,0.0268-0.0007,0.0402-0.0007
			c0.0019,0.0865,0.01,0.1722,0.0187,0.2627c-0.0087,0.201-0.0288,0.4028-0.071,0.6011c-0.0114,0.0469-0.0202,0.0932-0.0242,0.1441
			c0.0604-0.0409,0.1072-0.0999,0.1548-0.1548c0.1762-0.2159,0.317-0.4718,0.3733-0.7492c0.0576-0.2754-0.0081-0.5636,0.0528-0.8384
			c0.0504-0.2057,0.254-0.3336,0.3023-0.5414c0.0616-0.2245,0.0468-0.4658,0.0086-0.6936
			c-0.0388-0.2023-0.1025-0.4061-0.1964-0.5956c-0.0797-0.1536-0.1125-0.3237-0.1072-0.4939
			c-0.0114-0.3417,0.0844-0.6943,0.3036-0.9589c0.0844-0.102,0.1943-0.1964,0.3296-0.2166c0,0.1206-0.0307,0.2352-0.0261,0.3532
			c0,0.5528,0.1481,1.1069,0.4268,1.5848c0.0851,0.1446,0.1903,0.2801,0.3191,0.3933c0.0086,0.0033,0.0228,0.0053,0.0321,0.0086
			c0.0074-0.0858,0.0268-0.1648,0.0268-0.2492c-0.0019-0.1608,0.0074-0.3237-0.0242-0.4892
			c-0.0382-0.3812-0.2063-0.7371-0.3987-1.07c-0.1648-0.2963-0.2915-0.6139-0.3678-0.9435
			c-0.0402-0.1508-0.059-0.3096-0.0865-0.4632c-0.0221-0.1595-0.0235-0.3122-0.0423-0.4689c-0.0074-0.0999,0-0.1971-0.0107-0.2936
			c-0.0435-0.0556-0.1085-0.0892-0.1615-0.132c-0.2968-0.2373-0.5622-0.5093-0.7947-0.8089
			c-0.2627-0.3585-0.4891-0.7706-0.54-1.2255c-0.0034-0.1548-0.0134-0.3184,0.024-0.4732c0.0195-0.0851,0.0497-0.1688,0.0792-0.2525
			c0.0107-0.0081,0.0307-0.0242,0.0408-0.0329c0.1662,0.1032,0.317,0.2285,0.4363,0.3814c0.1072,0.1386,0.195,0.2881,0.274,0.4463
			c0.0784,0.1507,0.1462,0.315,0.2573,0.4516c0.1173,0.1655,0.3412,0.2392,0.5367,0.1962c-0.1869-0.2922-0.3557-0.599-0.5454-0.8905
			c-0.1843-0.2868-0.3847-0.5642-0.6011-0.8229c-0.0744-0.0858-0.2064-0.0744-0.3075-0.0435
			c-0.2452,0.0703-0.4804,0.156-0.7324,0.1876c-0.3089,0.0328-0.6273,0.0128-0.92-0.0825c-0.2292-0.077-0.4276-0.2118-0.6011-0.3733
			c-0.1046-0.1019-0.2185-0.1976-0.3163-0.3069c0.3257,0.0235,0.6553,0.0523,0.9783,0.0335c0.1789-0.0079,0.3619-0.016,0.5307-0.075
			c-0.0535-0.0435-0.116-0.0723-0.1776-0.1018c-0.5621-0.2774-1.1934-0.4-1.8165-0.345c-0.1897,0.0086-0.3773,0.0521-0.5642,0.0777
			c-0.3465,0.0328-0.6889-0.0691-0.9864-0.2318c-0.2894-0.1615-0.5421-0.3821-0.7498-0.636
			c-0.0254-0.0316-0.0449-0.0636-0.0644-0.0945c0.2454,0.1053,0.4946,0.2306,0.7647,0.244c0.073,0.0066,0.1453-0.0134,0.2111-0.0376
			c-0.0242-0.0751-0.0878-0.1274-0.1413-0.1769c-0.1582-0.1395-0.3753-0.2419-0.4409-0.4516
			c0.1702,0.0483,0.3477,0.0878,0.5272,0.0857c0.248,0.0021,0.4865-0.0764,0.7198-0.1588c0.2211-0.0797,0.4663-0.1648,0.7029-0.0985
			c0.2499,0.0744,0.4523,0.2527,0.6472,0.4208c0.2078,0.1943,0.4021,0.4035,0.6287,0.5824c0.1493,0.1065,0.3101,0.219,0.5005,0.2264
			c-0.2271-0.1467-0.4256-0.3338-0.6145-0.5253c-0.2753-0.2787-0.4979-0.6097-0.6197-0.9817
			C19.3679,21.2033,19.325,20.9011,19.2834,20.6008L19.2834,20.6008z"/>
	</g>
</g>
</svg>
