<?xml version="1.0" encoding="utf-8"?>
<!-- Generator: Adobe Illustrator 21.1.0, SVG Export Plug-In . SVG Version: 6.00 Build 0)  -->
<svg version="1.1" id="Layer_1" xmlns="http://www.w3.org/2000/svg" xmlns:xlink="http://www.w3.org/1999/xlink" x="0px" y="0px"
	 viewBox="0 0 335 335" style="enable-background:new 0 0 335 335;" xml:space="preserve">
<style type="text/css">
	.st0{fill:#FFFFFF;}
	.st1{fill:#005596;}
</style>
<g>
	<g>
		<path class="st0" d="M5.28,209.38c11.32,43.99,40.08,80.96,78.48,103.17V209.38H5.28z"/>
		<path class="st0" d="M83.76,22.47C45.37,44.67,16.6,81.62,5.28,125.63h78.48V22.47z"/>
		<path class="st0" d="M167.51,125.63h162.22C311.15,53.48,245.72,0.16,167.82,0h-0.31V125.63z"/>
		<path class="st0" d="M167.51,335h0.21c77.96-0.11,143.43-53.45,162.01-125.62H167.51V335z"/>
		<path class="st1" d="M167.51,209.38h162.22c3.46-13.39,5.29-27.42,5.29-41.88c0-14.45-1.83-28.49-5.29-41.87H167.51V0l0,0
			c-30.52,0-59.11,8.2-83.75,22.47v103.16H5.28C1.83,139.01,0,153.05,0,167.5c0,14.45,1.83,28.49,5.28,41.88h78.48v103.17
			c24.57,14.22,53.1,22.42,83.53,22.46h0.22V209.38z"/>
	</g>
</g>
</svg>
