<?xml version="1.0" encoding="utf-8"?>
<!-- Generator: Adobe Illustrator 21.1.0, SVG Export Plug-In . SVG Version: 6.00 Build 0)  -->
<svg version="1.1" id="Layer_1" xmlns="http://www.w3.org/2000/svg" xmlns:xlink="http://www.w3.org/1999/xlink" x="0px" y="0px"
	 viewBox="0 0 60 60" style="enable-background:new 0 0 60 60;" xml:space="preserve">
<style type="text/css">
	.st0{clip-path:url(#SVGID_2_);fill:#68BFE5;}
	.st1{fill:none;}
	.st2{clip-path:url(#SVGID_4_);fill:none;}
	.st3{clip-path:url(#SVGID_6_);fill:none;}
	.st4{clip-path:url(#SVGID_8_);fill:#00247D;}
	.st5{clip-path:url(#SVGID_10_);fill:#FFFFFF;}
	.st6{clip-path:url(#SVGID_12_);fill:#FFFFFF;}
	.st7{clip-path:url(#SVGID_14_);fill:#CF142B;}
	.st8{clip-path:url(#SVGID_16_);fill:#CF142B;}
	.st9{fill:#FFFFFF;}
	.st10{fill:#D21034;}
	.st11{fill:#FFFFFF;stroke:#000000;stroke-width:0.0578;stroke-miterlimit:3;}
	.st12{fill:#FFFFFF;stroke:#000000;stroke-width:0.058;stroke-miterlimit:3;}
	.st13{fill:#FFD100;stroke:#000000;stroke-width:0.0864;stroke-miterlimit:3;}
	.st14{fill:#FFFFFF;stroke:#000000;stroke-width:0.0259;stroke-miterlimit:3;}
	.st15{fill:#FFFFFF;stroke:#000000;stroke-width:0.0252;stroke-miterlimit:3;}
	.st16{fill:#00A651;stroke:#000000;stroke-width:0.0562;stroke-miterlimit:4.8;}
	.st17{fill:#964B36;stroke:#000000;stroke-width:0.0562;stroke-miterlimit:4.8;}
	.st18{fill:#964B36;stroke:#000000;stroke-width:0.0302;stroke-miterlimit:4.8;}
	.st19{stroke:#000000;stroke-width:0.0562;stroke-miterlimit:4.8;}
	.st20{fill:#FFFFFF;stroke:#000000;stroke-width:0.072;stroke-miterlimit:4.8;}
	.st21{fill:#964B36;stroke:#000000;stroke-width:0.0346;stroke-miterlimit:4.8;}
	.st22{fill:#FFF200;stroke:#000000;stroke-width:0.0346;stroke-miterlimit:4.8;}
	.st23{fill:#00A651;stroke:#000000;stroke-width:0.0346;stroke-miterlimit:4.8;}
	.st24{fill:none;stroke:#000000;stroke-width:0.3024;stroke-miterlimit:4.8;}
</style>
<title>Flag of Barbados</title>
<title>Flag of Equatorial Guinea</title>
<g>
	<g>
		<g>
			<g>
				<g>
					<defs>
						<circle id="SVGID_1_" cx="30" cy="30" r="30"/>
					</defs>
					<clipPath id="SVGID_2_">
						<use xlink:href="#SVGID_1_"  style="overflow:visible;"/>
					</clipPath>
					<rect id="rect2414_2_" x="-30.4259" y="-0.2126" class="st0" width="120.8518" height="60.4256"/>
				</g>
			</g>
		</g>
	</g>
</g>
<circle class="st1" cx="30" cy="30" r="30"/>
<circle class="st1" cx="30" cy="30" r="30"/>
<circle class="st1" cx="30" cy="30" r="30"/>
<circle class="st1" cx="30" cy="30" r="30"/>
<circle class="st1" cx="30" cy="30" r="30"/>
<circle class="st1" cx="30" cy="30" r="30"/>
<circle class="st1" cx="30" cy="30" r="30"/>
<g>
	<g>
		<g>
			<g>
				<g>
					<defs>
						<circle id="SVGID_3_" cx="30" cy="30" r="30"/>
					</defs>
					<clipPath id="SVGID_4_">
						<use xlink:href="#SVGID_3_"  style="overflow:visible;"/>
					</clipPath>
					<rect x="-45.6763" y="-1.4482" class="st2" width="106.7059" height="62.2446"/>
				</g>
			</g>
		</g>
	</g>
</g>
<g>
	<g>
		<g>
			<g>
				<g>
					<defs>
						<circle id="SVGID_5_" cx="30" cy="30" r="30"/>
					</defs>
					<clipPath id="SVGID_6_">
						<use xlink:href="#SVGID_5_"  style="overflow:visible;"/>
					</clipPath>
					<rect x="-45.6763" y="-1.4482" class="st3" width="106.7059" height="62.2446"/>
				</g>
			</g>
		</g>
	</g>
</g>
<g>
	<circle class="st1" cx="30" cy="30" r="30"/>
	<circle class="st1" cx="30" cy="30" r="30"/>
	<circle class="st1" cx="30" cy="30" r="30"/>
	<circle class="st1" cx="30" cy="30" r="30"/>
	<circle class="st1" cx="30" cy="30" r="30"/>
</g>
<g>
	<g>
		<g>
			<g>
				<g>
					<g>
						<defs>
							<circle id="SVGID_7_" cx="30" cy="30" r="30"/>
						</defs>
						<clipPath id="SVGID_8_">
							<use xlink:href="#SVGID_7_"  style="overflow:visible;"/>
						</clipPath>
						<rect id="rect124_2_" x="-30.4259" y="-0.2126" class="st4" width="60.4259" height="30.2127"/>
					</g>
				</g>
			</g>
		</g>
	</g>
</g>
<g>
	<g>
		<g>
			<g>
				<g>
					<g>
						<defs>
							<circle id="SVGID_9_" cx="30" cy="30" r="30"/>
						</defs>
						<clipPath id="SVGID_10_">
							<use xlink:href="#SVGID_9_"  style="overflow:visible;"/>
						</clipPath>
						<path id="path146_2_" class="st5" d="M-30.4259-0.2126v3.3771L23.2445,30H30v-3.3775L-23.6704-0.2126H-30.4259z M30-0.2126
							v3.3771L-23.6704,30h-6.7555v-3.3775L23.2445-0.2126H30z"/>
					</g>
				</g>
			</g>
		</g>
	</g>
</g>
<g>
	<g>
		<g>
			<g>
				<g>
					<g>
						<defs>
							<circle id="SVGID_11_" cx="30" cy="30" r="30"/>
						</defs>
						<clipPath id="SVGID_12_">
							<use xlink:href="#SVGID_11_"  style="overflow:visible;"/>
						</clipPath>
						<path id="path136_2_" class="st6" d="M-5.2483-0.2126v30.2127h10.071V-0.2126H-5.2483z M-30.4259,9.8578v10.0709H30V9.8578
							H-30.4259z"/>
					</g>
				</g>
			</g>
		</g>
	</g>
</g>
<g>
	<g>
		<g>
			<g>
				<g>
					<g>
						<defs>
							<circle id="SVGID_13_" cx="30" cy="30" r="30"/>
						</defs>
						<clipPath id="SVGID_14_">
							<use xlink:href="#SVGID_13_"  style="overflow:visible;"/>
						</clipPath>
						<path id="path141_2_" class="st7" d="M-30.4259,11.8722v6.0424H30v-6.0424H-30.4259z M-3.234-0.2126v30.2127h6.0422V-0.2126
							H-3.234z"/>
					</g>
				</g>
			</g>
		</g>
	</g>
</g>
<g>
	<g>
		<g>
			<g>
				<g>
					<g>
						<defs>
							<circle id="SVGID_15_" cx="30" cy="30" r="30"/>
						</defs>
						<clipPath id="SVGID_16_">
							<use xlink:href="#SVGID_15_"  style="overflow:visible;"/>
						</clipPath>
						<path id="path150_2_" class="st8" d="M-30.4259,30.0001l20.1421-10.0714h4.5037l-20.1418,10.0714H-30.4259z M-30.4259-0.2126
							l20.1421,10.0704h-4.5037l-15.6384-7.8185V-0.2126z M5.3542,9.8578L25.4963-0.2126H30L9.8579,9.8578H5.3542z M30,30.0001
							L9.8579,19.9286h4.504L30,27.748V30.0001z"/>
					</g>
				</g>
			</g>
		</g>
	</g>
</g>
<g id="coa">
	<path class="st9" d="M35.0099,25.0814V39.85c0,4.8304,8.7276,7.6986,8.7276,7.6986s8.7276-2.8684,8.7276-7.6986V25.0814H35.0099z"
		/>
	<path class="st10" d="M42.5277,30.2705v6.6497h-7.5178v2.4195h7.5178v7.7483l1.2098,0.4606l1.2098-0.4606v-7.7483h7.5178v-2.4195
		h-7.5178v-6.6497H42.5277z"/>
	<path class="st10" d="M35.0099,25.0814h17.4552v5.7032H35.0099L35.0099,25.0814z"/>
	<g id="lion">
		<g>
			<ellipse class="st11" cx="36.409" cy="28.5575" rx="0.981" ry="0.7894"/>
			<ellipse class="st12" cx="36.409" cy="28.148" rx="0.8723" ry="0.4409"/>
			<ellipse class="st12" cx="36.409" cy="29.0297" rx="0.8723" ry="0.4409"/>
			<ellipse class="st12" cx="36.409" cy="28.5576" rx="0.8723" ry="0.4409"/>
		</g>
		<path class="st13" d="M52.033,29.6533l-0.1429-0.3943c0,0-0.3913-0.1596-0.4211-0.3674
			c-0.0697-0.5541-0.2674-0.7617-0.5638-0.8409c-0.297-0.0792-0.4945,0.0496-0.4945,0.0496
			c-0.0894,0.1287-0.5347,0.1287-0.782,0.1383c-0.2473,0.0101-0.2515-0.1074-0.2515-0.1074
			c-0.1921,0.0014-0.2729-0.1398-0.2729-0.1398c-0.1257-0.2511-0.2193-0.345-0.2814-0.3768
			c0.3209,0.0048,0.5626-0.1434,0.9249-0.5235c0.3956-0.4156,0.678-0.2549,0.678-0.2549c-0.192,0.3881,0.0639,0.3538,0.0639,0.3538
			c0.5243-0.2668,0.0691-0.9398-0.0891-0.9101c-0.1582,0.0296-0.2034-0.077-0.2034-0.077c0.0048,0.1208-0.1757,0.1688-0.1757,0.1688
			c0.1354-0.7686-0.3233-0.9724-0.3233-0.9724c-0.0694,0.0692-0.1091,0.2076-0.1091,0.2076
			c-0.1284,0.4651-0.5538,0.3959-1.029,0.1682c-0.4747-0.2274-1.7411,0.2376-2.1367,0.3959
			c-0.3961,0.1583-1.1182,0.4057-1.7712,0.0396c-0.6528-0.3663-0.8115-0.297-1.0686-0.2276
			c-0.2574,0.0691-0.712,0.1783-0.8801,0.089c-0.1684-0.089-0.3603-0.0945-0.3603-0.0945c0.0458-0.0256-0.0257-0.133-0.0257-0.133
			c-0.1978-0.267,0.0257-0.4307,0.0257-0.4307s-0.3683,0.1037-0.2218,0.7323l0.0673,0.0943c0,0,0.0493,0.1977,0.1585,0.2572
			l-0.004,0.0433c0,0,0.0931-0.0433,0.1224,0.0852c0.0301,0.1286,0.1685,0.0099,0.2279-0.0988c0,0-0.0991,0.5739,0.6134,0.7123
			c0,0-0.0797-0.0891-0.0499-0.1485c0.0296-0.0594-0.0888-0.1092-0.0788-0.198c0.0098-0.0887-0.1778-0.1284-0.0298-0.198
			c0.1482-0.0692,0.2178-0.2078,0.5343-0.0198c0.3164,0.188,0.5641,0.1486,0.5641,0.1486s-0.193-0.3962-0.0867-0.3959
			c0.1064,0.0001,0.5849,0.5926,0.8205,0.5633c0.2356-0.029,0.6908-0.2962,0.9184-0.1973c0,0,0.0195-0.1187,0.89-0.2672
			c0.8707-0.1485,1.9447-0.5823,2.3475-0.2021c0,0,0.0471,0.3011,0.2151,0.3804c0,0-0.0301,0.6232-1.1079,0.2767l-0.391-0.1028
			c0,0-0.0601-0.1893-2.1102,0.338c0,0-0.1206,0.0421-0.1998,0.1016c-0.0794,0.0591-0.1883-0.0298-0.5939,0.1185
			c-0.4053,0.1487-1.9194,0.6434-2.849,0.4652l-0.0012,0.0025c-0.2048-0.0612-0.3966-0.0296-0.4044-0.0619
			c-0.01-0.0396,0.109,0.01,0.109,0.01c-0.0691-0.0793-0.0989-0.0857-0.0989-0.0857c-0.7817-0.0857-0.6435-0.4388-0.6435-0.4388
			l0.0398,0.1089c0.1287-0.1681-0.0499-0.5638-0.0499-0.5638l-0.0075,0.0013c-0.002-0.0122-0.0042-0.0243-0.0073-0.036
			l0.0646-0.0446c0.3761-0.3167,0.8115-0.3761,0.8115-0.3761c-0.2574-0.3164-0.8018-0.1482-0.8018-0.1482
			c0.01-0.3858-0.1482-0.8311-0.1482-0.8311c-0.5345,0.0594-0.8409,0.5045-0.8409,0.5045c-0.0198-0.3956-0.5245-0.623-0.5245-0.623
			c0.1878,0.2274,0.0694,0.7715,0.0694,0.7715l0.0198,0.0099c-0.0313-0.0008-0.0496,0-0.0496,0l-0.0112,0.1167l-0.0185-0.0078
			c0,0-0.1878,0.0691-0.4054,0.5638c0,0-0.022,0.1169-0.1062,0.2223c-0.0007-0.0137,0.0008-0.026-0.0009-0.0403
			c0,0-0.2431,0.3185-0.8048,0c0,0-0.7632-0.4528-1.0314-0.436c-0.2682,0.0167-0.4446,0.1425-0.4275,0.2179
			c0,0-0.6124-0.0504-0.8219,0.3017c0,0-0.4611,0.1677-0.067,0.5451c0,0,0.0528,0.164,0.1675,0.2519
			c0,0-0.0162-0.3445,0.0672-0.2433c0,0,0.0217,0.034,0.0629,0.0577c0.011,0.0483,0.048,0.1825,0.1299,0.2509l0.059-0.0188
			c0.009-0.0859,0.0276-0.1944,0.0467-0.2401c0.009,0.0012,0.0162,0.0022,0.0194,0.0025c-0.0026,0.0025-0.005,0.004-0.0075,0.0062
			l0.109,0.1677l0.1256-0.0671c0.0588-0.0086,0.1342,0.0504,0.1342,0.0504l0.1426-0.1174
			c-0.0009-0.0013-0.0017-0.0016-0.0026-0.0029c0.1404,0.0235,0.1788-0.2487,0.1788-0.2487
			c0.1262,0.0332,0.2441-0.004,0.3445-0.0648c0.0612,0.2257,0.5611,0.4677,0.5611,0.4677s0.0086-0.0008,0.0215-0.0018
			c-0.0423,0.027-0.0675,0.0474-0.0675,0.0474c0.2274,0.1586,0.6529,0.1189,0.6529,0.1189c-0.1779,0.0694-0.153,0.3987-0.153,0.3987
			c-0.104,0.0427-0.1142,0.1453-0.1142,0.1453c0.3463,0.1382,0.5829,0.0238,0.5829,0.0238c0.019,0.1127-0.009,0.1247-0.009,0.1247
			c-0.1384,0.2967-0.1978,0.5836-0.1978,0.5836c0.003,0.0013,0.0066,0.002,0.0095,0.003c-0.0042,0.0078-0.0095,0.0153-0.0128,0.0233
			c0,0-0.6037,0.2095-0.872,0.5031c0,0-0.0252-0.084-0.1008-0.084c-0.0754,0-0.3102-0.1926-0.4193-0.2263
			c-0.1088-0.0334-0.2682,0.0337-0.3102-0.0165c-0.0379-0.0458-0.0209-0.3893-0.0935-0.4447c0.0003,0,0.0014,0.0003,0.0014,0.0003
			l-0.0755-0.2095c-0.0503,0.1089-0.2598,0.0836-0.2598,0.0836c-0.0083,0.005-0.0405,0.0285-0.0862,0.0626
			c-0.0418,0.0022-0.09-0.0122-0.09-0.0122c-0.0215,0.0044-0.0428,0.0648-0.0584,0.1235c-0.0084,0.0062-0.0169,0.0127-0.0254,0.0192
			v-0.0588c-0.0417,0.0335-0.1256-0.0168-0.1593-0.0168c-0.0164,0-0.0367,0.048-0.0532,0.0974
			c-0.0853,0.0158-0.1983,0.02-0.1983,0.02c-0.0335,0.0168-0.0086,0.2767-0.0086,0.2767c-0.243,0.1343-0.1257,0.3354-0.1257,0.3354
			c0.1342,0.6541,1.2494,0.3605,1.3333,0.4446c0.0836,0.0839,0.2767,0.1004,0.3774,0.1004c0.1004,0,0.2261,0.2433,0.3688,0.2684
			c0.1427,0.0252,0-0.1928,0.6612-0.3507c0.661-0.158,0.8813-0.429,0.8813-0.429c0.207-0.0399,0.2647-0.2916,0.2801-0.3932
			c0.002,0.0468,0.0075,0.0987,0.015,0.1577c0.0298,0.2276-0.1275,0.3105-0.1275,0.3105l0.5728-0.172
			c0.2274-0.0594,0.1978-0.2574,0.1978-0.2574c0.2176,0.6234,0.6134,0.663,0.6134,0.663c0.0792-0.2375,0.0694-0.3068,0.0694-0.3068
			l0.178-0.0097c0.0073-0.1342-0.1112-0.2323-0.1798-0.2779l0.2787,0.169l0.1086-0.0198c0,0.0989,0.1485,0.1878,0.1485,0.1878
			l0.02-0.1283c0.1287,0.1682,0.366,0.1087,0.366,0.1087c-0.0048-0.0299-0.012-0.0608-0.021-0.0924
			c0.507,0.3129,1.3168-0.0856,1.3168-0.0856c0.2176,0.0494,0.2473-0.0792,0.2473-0.0792c0.2473,0.0296,0.3047-0.1395,0.3047-0.1395
			c0.5821-0.0504,0.9917-0.4642,0.9917-0.4642c0.2866-0.0198,0.296-0.2248,0.296-0.2248s0.2874,0.0567,0.5645-0.2897
			c0.6429-0.9199,1.6044-0.441,1.6044-0.441l-0.5559,0.0352c-1.4542-0.0098-0.8513,0.9792-0.8513,0.9792l0.0896-0.0095
			c0.1385,0.0296,0.6132,0.4056,0.4382,0.6857c-0.0028,0.0049-0.0066,0.0094-0.0098,0.0139
			c-0.2965,0.4059-0.8455,0.0188-1.002-0.3237c-0.1585-0.3462-0.4752-0.2669-0.4752-0.2669s-0.821,0.1385-0.4847,0.7915
			l0.0123,0.0004c0.0062,0.1593,0.1062,0.3409,0.3991,0.5213c0.1645,0.2327,0.7053,0.257,1.1025,0.1709
			c0.1848-0.0404,1.1602-0.4597,1.1602-0.4597c0.0715-0.2124,0.3139-0.1635,0.5315-0.4702s-0.3068-0.4156-0.4254-0.5836
			c-0.1189-0.1684,0.0298-0.1386,0.0298-0.1386c0.4747,0.2572,0.5142-0.564,0.5142-0.564c0.0496,0.4747,0.465,0.6034,0.465,0.6034
			c0.2574-0.2569,0.0696-0.7815,0.0696-0.7815c0.6134,1.0982,0.985,0.9233,0.985,0.9233c-0.3303-0.2045-0.164-0.4781-0.164-0.4781
			c0.2965,1.1674,1.5138,0.1485,1.5138,0.1485c-0.0594,0.168,0.0003,0.2668,0.109,0.3757c0.1087,0.1089,0.2374,0.1584,0.1783,0.3563
			c-0.0595,0.1978-0.6231,0.1584-0.6231,0.1584s-0.5543-0.0296-0.5046,0.4354c0.029,0.1086,0.3953,0.1482,0.5339,0.1186
			c0,0-0.0571,0.0124,0.1477,0.0398c0.0686,0.0088,0.1515,0.0103,0.2358,0.0075c0.2361-0.0073,0.4875-0.0474,0.4875-0.0474
			c0.3162-0.069,0.2669-0.1783,0.2669-0.1783c0.4843-0.0893,0.5341-0.4159,0.5341-0.4159L52.033,29.6533z"/>
		<g>
			<path d="M35.9571,27.6273c0.0004-0.0005,0.026-0.0611,0.0748-0.0684c0.0377-0.0056,0.0834,0.0223,0.1317,0.081l0.0264-0.0199
				c-0.0011-0.002-0.1306-0.1905-0.079-0.3237c0.023-0.0594,0.0802-0.1001,0.1697-0.1202l-0.0073-0.0326
				c-0.101,0.0232-0.166,0.0706-0.1934,0.1409c-0.0102,0.0263-0.0145,0.0541-0.0145,0.0818c0,0.0651,0.0229,0.131,0.0464,0.1816
				c-0.0293-0.0184-0.0578-0.026-0.0852-0.0219c-0.0497,0.0075-0.0739,0.0433-0.087,0.0666L35.9571,27.6273z"/>
			<path d="M51.2265,30.2186c-0.3305,0.0525-0.8157,0.0815-0.8543-0.0185c-0.0067-0.0178-0.0079-0.0892,0.2627-0.2654
				l-0.0315-0.0485c-0.2258,0.1471-0.3167,0.2534-0.2852,0.3346c0.0693,0.18,0.7776,0.0772,0.9191,0.0546L51.2265,30.2186z"/>
			<path d="M44.904,30.4095c-0.0753-0.1153-0.0415-0.2731,0.1007-0.4697l-0.0468-0.0338c-0.158,0.2173-0.1924,0.3978-0.1024,0.5353
				L44.904,30.4095z"/>
			<path d="M44.4576,29.9119c0.0073,0.1994,0.148,0.3844,0.4176,0.5496l0.0303-0.0494c-0.2524-0.1543-0.3833-0.3234-0.3902-0.5021
				c-0.0099-0.2745,0.2801-0.4862,0.2829-0.4885l-0.0338-0.0471C44.7515,29.3835,44.4463,29.6059,44.4576,29.9119L44.4576,29.9119z"
				/>
			<path d="M50.0952,29.986c-0.0906,0.1339-0.0603,0.296-0.0591,0.3028l0.0568-0.0111c-0.0005-0.0016-0.0268-0.1459,0.0506-0.2595
				c0.0465-0.0684,0.1214-0.1127,0.223-0.132l-0.0105-0.0569C50.2384,29.8517,50.1509,29.9043,50.0952,29.986z"/>
			<path d="M37.1788,27.4542l-0.0179-0.0045l-0.0024,0.0184c-0.0005,0.0018-0.0258,0.1774-0.1054,0.2252
				c-0.0223,0.0133-0.0463,0.0148-0.0741,0.0047l-0.1352-0.0823c-0.027-0.0238-0.0501-0.0412-0.0891-0.0298
				c-0.0078-0.01-0.0388-0.0521-0.0388-0.1197c0-0.0075,0.0005-0.0156,0.0016-0.0237c0.0096-0.0792,0.0649-0.1556,0.1649-0.2269
				l-0.019-0.027c-0.1084,0.0774-0.1683,0.1615-0.1789,0.2506c-0.0121,0.1032,0.0476,0.1733,0.0502,0.1763l0.008,0.0092l0.011-0.005
				c0.0301-0.0133,0.0388-0.0054,0.0681,0.0205l0.1459,0.0887c0.0371,0.0137,0.0714,0.0111,0.1024-0.0073
				c0.0824-0.0493,0.1113-0.193,0.118-0.233c0.3512,0.0755,0.6338-0.3514,0.6461-0.3698l-0.0281-0.0181
				C37.8037,27.1051,37.5153,27.5424,37.1788,27.4542L37.1788,27.4542z"/>
			<path d="M36.337,27.3886c-0.0175,0.0711-0.0055,0.1409,0.0351,0.2076c0.0388,0.0632,0.077,0.0968,0.1168,0.1021
				c0.0486,0.0067,0.0874-0.0293,0.1216-0.0608c0.0249-0.0233,0.0486-0.045,0.068-0.0436l0.0302,0.0208l0.026-0.0207l-0.0538-0.0332
				c-0.034-0.0025-0.0625,0.0239-0.0929,0.0523c-0.0303,0.0278-0.0614,0.0571-0.0946,0.0525
				c-0.0288-0.004-0.0599-0.0333-0.0929-0.0868c-0.0358-0.0587-0.0466-0.1202-0.0314-0.1822
				c0.0378-0.1567,0.2252-0.2718,0.2272-0.2729l-0.017-0.0283C36.5708,27.1003,36.3782,27.2185,36.337,27.3886z"/>
			<path d="M35.8538,29.6253c0.0168-0.0606,0.0633-0.1122,0.1382-0.1537c-0.0148,0.0014,0.0734,0.0731,0.149,0.0651
				c0,0,0.0307-0.0165,0.0491-0.0265c0.02,0.0173,0.151,0.1364,0.151,0.2874c0,0.0318-0.0058,0.0644-0.02,0.0975l0.0307,0.0129
				c0.0957-0.2268-0.1451-0.428-0.1473-0.4302l-0.0088-0.0069l-0.0149,0.0096l-0.0429,0.0233
				c-0.0619,0.0065-0.1425-0.0589-0.1431-0.0595c-0.1016,0.0443-0.1536,0.103-0.1728,0.1727L35.8538,29.6253z"/>
			<path d="M36.9721,29.0463c-0.0723,0.0061-0.2738,0.0446-0.3395,0.1491c-0.0238,0.0379-0.0273,0.0797-0.01,0.1248l0.0264,0.0703
				c0.0627,0.1688,0.1279,0.3431,0.1989,0.3825l0.0161-0.0289c-0.0603-0.0334-0.126-0.2097-0.1841-0.3652l-0.0263-0.0703
				c-0.0135-0.0356-0.0112-0.0669,0.0068-0.0957c0.054-0.0857,0.2351-0.1271,0.3144-0.1337
				c0.0461-0.0037,0.0612,0.1666,0.0703,0.2684l0.0329-0.003C37.0649,29.1948,37.051,29.0397,36.9721,29.0463L36.9721,29.0463z"/>
			<path d="M36.4198,29.2119c-0.0423,0.0378-0.0338,0.0949-0.0333,0.0974c0.0004,0.0156,0.0192,0.4369,0.2192,0.524l0.0131-0.0303
				c-0.181-0.0789-0.1993-0.4929-0.1995-0.497c-0.0001-0.0025-0.006-0.0443,0.0228-0.0696c0.0303-0.027,0.0906-0.029,0.1743-0.006
				l0.0088-0.0318C36.5288,29.172,36.4596,29.1764,36.4198,29.2119L36.4198,29.2119z"/>
			<path d="M36.2614,29.2465c-0.0885,0.0616-0.0849,0.2375-0.0848,0.2448l0.0331-0.0006c0-0.0018-0.0033-0.1658,0.0706-0.2171
				c0.0276-0.019,0.0639-0.0198,0.1081-0.002l0.0123-0.0306C36.3456,29.2186,36.2986,29.2204,36.2614,29.2465L36.2614,29.2465z"/>
		</g>
		<g>
			<path d="M41.0249,26.9213c0.0016,0.0028,0.0944,0.2121,0.0944,0.382c0,0.0302-0.0143,0.0516-0.021,0.0779
				c-0.0037-0.0098-0.036-0.0984-0.036-0.0984l-0.028,0.0711c-0.0013,0.004-0.0378,0.0996,0.0275,0.2076
				c0.0864,0.1424,0.3015,0.2336,0.6397,0.2706h-0.0001c0,0.0003,0.0042,0.004,0.0047,0.0047
				c-0.014,0.0019-0.0245,0.0058-0.0277,0.0088l-0.0136,0.0115l0.0018,0.0289c0.0087,0.0351,0.0488,0.0368,0.1284,0.0398
				c0.0135,0.0008,0.0353,0.004,0.0508,0.0048c0.0198,0.0055,0.0401,0.0111,0.0401,0.0111s-0.0055-0.0064-0.0067-0.0078
				c0.0771,0.0053,0.1637,0.0243,0.2579,0.0595c-0.0208,0.0054-0.0716,0.0181-0.0716,0.0181l0.0836,0.033
				c0.0063,0.0025,0.6228,0.2502,0.8779,0.4538c-0.0724,0.0628-0.3816,0.2938-0.9171,0.1618L42.02,28.638l0.0608,0.0695
				c0.0037,0.0041,0.3526,0.4042,0.4249,0.6469c-0.1215,0.0012-0.5894-0.003-0.7529-0.142l-0.0423,0.0385
				c0.0022,0.0035,0.2243,0.3295,0.2739,0.5836c-0.0636,0.0084-0.216,0.0146-0.3062-0.1032l-0.0416-0.0541
				c0,0-0.0168,0.1092-0.0226,0.1467c-0.0436-0.0328-0.0984-0.0819-0.0984-0.1345V29.655c0,0-0.1147,0.0208-0.132,0.0239
				c-0.0153-0.0092-0.2052-0.1244-0.2712-0.1644c-0.0233-0.0151-0.0385-0.0238-0.0436-0.0263
				c-0.0003-0.0003-0.0025-0.0016-0.0025-0.0016l-0.002-0.0011l-0.0281,0.0508c0,0,0.0323,0.0193,0.0416,0.0251
				c0.0581,0.0378,0.1574,0.1203,0.1675,0.2296c-0.0429,0.0025-0.1763,0.0098-0.1763,0.0098l0.0033,0.0307v0.0048
				c0,0.0181-0.0057,0.0939-0.0611,0.2649c-0.0834-0.0199-0.3866-0.1256-0.5658-0.639l-0.0558,0.0138
				c0.0003,0.0014,0.0009,0.0082,0.0009,0.0191c0,0.0467-0.0165,0.1641-0.1775,0.2059c-0.0009,0.0003-0.2989,0.0899-0.4646,0.1395
				c0.031-0.0443,0.0594-0.1052,0.0594-0.1933c0-0.0188-0.0012-0.0389-0.0037-0.0603c-0.01-0.0746-0.0161-0.1367-0.0161-0.1885
				c0-0.1081,0.0265-0.1725,0.1012-0.2183l-0.026-0.0516c-0.007,0.0028-0.6926,0.275-1.0326,0.162
				c0.0156-0.0664,0.0731-0.2997,0.1892-0.5484l-0.015,0.0143c0.0223-0.0095,0.045-0.0443,0.0263-0.156l-0.0062-0.038
				l-0.0348,0.0168c-0.0022,0.001-0.2198,0.0982-0.5341-0.017c0.0064-0.0258,0.0231-0.0721,0.0889-0.0994l0.0193-0.0078
				l-0.0018-0.021c0-0.0008-0.0008-0.0154-0.0008-0.0383c0-0.0849,0.0133-0.2837,0.1354-0.3314l-0.013-0.0559
				c-0.004,0.0005-0.3717,0.0299-0.5946-0.0941c0.0585-0.0404,0.1814-0.1147,0.3244-0.1352l0.0229-0.0033l0.0016-0.0229
				c0.0003-0.0011,0.0008-0.0079,0.0008-0.0187c0-0.029-0.0112-0.0878-0.0368-0.147c0.0849,0.0237,0.1866,0.045,0.2226,0.018
				l0.0123-0.0092l-0.0105-0.2231l-0.0578,0.0028c0,0,0.007,0.1479,0.0088,0.1845c-0.0363,0.002-0.1288-0.0165-0.2185-0.045
				l-0.0888-0.0283l0.0572,0.0737c0.0465,0.0597,0.0524,0.1339,0.0531,0.1679c-0.2009,0.0373-0.3583,0.1621-0.365,0.1677
				l-0.0296,0.0243l0.0313,0.0219c0.1728,0.1204,0.4431,0.1308,0.5819,0.1278c-0.0818,0.0921-0.0957,0.2464-0.0957,0.3234
				c0,0.0158,0.0005,0.02,0.0008,0.0278c-0.0982,0.053-0.1129,0.1525-0.1135,0.1571l-0.0022,0.0217l0.0203,0.0083
				c0.297,0.1184,0.4998,0.0613,0.5687,0.0358c0.0005,0.0092,0.0025,0.0218,0.0025,0.0283c0,0.0272-0.005,0.0355-0.005,0.0355
				c-0.146,0.3059-0.207,0.5967-0.2078,0.5994l-0.0047,0.024l0.0225,0.009c0.2757,0.1102,0.7709-0.0403,0.9902-0.1177
				c-0.0288,0.0496-0.0455,0.1054-0.0455,0.1749c0,0.0582,0.007,0.1237,0.0168,0.1967c0.0025,0.0185,0.0035,0.0356,0.0035,0.0521
				c0,0.1642-0.111,0.2263-0.1162,0.2291l0.022,0.0533l0.5728-0.172c0.1325-0.0344,0.1822-0.1127,0.2033-0.1792
				c0.2261,0.536,0.5809,0.5843,0.5966,0.5861l0.0231,0.002l0.0073-0.0218c0.0551-0.1647,0.0678-0.2483,0.0703-0.2887
				c0.0383-0.0017,0.1773-0.0095,0.1773-0.0095l0.0015-0.026c0.0003-0.0045,0.0003-0.0088,0.0003-0.013
				c0-0.0474-0.0148-0.0894-0.0353-0.127c0.0358,0.0216,0.0991,0.0601,0.0991,0.0601s0.0656-0.0119,0.0949-0.0173
				c0.0248,0.0957,0.1385,0.1709,0.1532,0.1799l0.0368,0.0221c0,0,0.0136-0.0873,0.0193-0.1253
				c0.1415,0.1266,0.3423,0.0889,0.3518,0.0866l0.0253-0.0065l-0.0037-0.0258c-0.0288-0.1936-0.1587-0.4239-0.2351-0.547
				c0.2514,0.1143,0.7093,0.1059,0.7318,0.1052l0.0341-0.0012l-0.0067-0.0334c-0.0406-0.2034-0.2948-0.5237-0.4011-0.651
				c0.5906,0.111,0.9078-0.1954,0.9214-0.2093l0.0207-0.022l-0.0228-0.02c-0.1986-0.1729-0.6562-0.3737-0.84-0.4506
				c0.01-0.0025,0.0644-0.0162,0.0644-0.0162l-0.0636-0.0356c-0.1537-0.0864-0.3167-0.0971-0.4269-0.1019l-0.0005-0.0009
				c-0.0699-0.08-0.1054-0.0928-0.1144-0.0948c-0.3994-0.0441-0.5458-0.156-0.5989-0.2424
				c-0.0045-0.0071-0.0022-0.0119-0.0055-0.0188c0.0086-0.0115,0.0175-0.0229,0.0175-0.0229
				c0.0385-0.0502,0.0523-0.1173,0.0523-0.1885c0-0.1834-0.0932-0.3929-0.0984-0.405L41.0249,26.9213L41.0249,26.9213z"/>
			<path d="M39.1864,26.8039c-0.0012,0.0057-0.0438,0.2246-0.2301,0.3272c-0.1402,0.0771-0.3255,0.0707-0.5501-0.0192l-0.0253-0.01
				l0.0027,0.027c0.0006,0.0056,0.0154,0.1342,0.1366,0.2284c0.1009,0.0786,0.2454,0.1062,0.4264,0.0864
				c-0.0606,0.0719-0.2552,0.3206-0.2552,0.5619c0,0.0127,0.0008,0.0255,0.002,0.038c0.0248,0.0178,0.3298,0.1004,0.4712-0.0804
				c0.005,0.0775,0.0273,0.3256,0.1242,0.4226c0.0531,0.0528,0.0656,0.13,0.0656,0.1916c0,0.0556-0.0105,0.0984-0.0105,0.0993
				l-0.011,0.0442l0.0368-0.0268c0.0118-0.0086,0.2922-0.214,0.3818-0.483c-0.0003,0.0007,0.0448-0.0675,0.1314-0.0954
				c-0.0018,0.0118-0.0033,0.0238-0.0033,0.0405c0,0.104,0.0455,0.2927,0.3482,0.4084l0.0248,0.0095l-0.0022-0.0264
				c-0.0003-0.0006-0.002-0.0213-0.002-0.0523c0-0.076,0.0105-0.2155,0.0829-0.2878c0.0476-0.0475,0.0619-0.1011,0.0619-0.1475
				c0-0.0366-0.008-0.0661-0.0162-0.0879c0.0611,0.0155,0.2056,0.062,0.2644,0.1721c0.0854,0.16,0.3844,0.0327,0.3971,0.0273
				l-0.0103-0.0315c-0.0012,0.0003-0.1257,0.0282-0.2043-0.0258c-0.0346-0.0238-0.0553-0.0603-0.0626-0.1088l-0.0138-0.1663
				c-0.003-0.0754-0.0135-0.1232-0.0513-0.1635c0.0396-0.0036,0.1189-0.0022,0.1525,0.0721
				c0.0528,0.1164,0.2341,0.1277,0.2416,0.1283l0.062,0.0033l-0.0521-0.0337c-0.0017-0.001-0.1582-0.1049-0.1312-0.2402
				l0.0226-0.0991c0.0429-0.1786,0.1142-0.4776,0.0561-0.6611l-0.0315,0.0101c0.0143,0.0458,0.0203,0.1001,0.0203,0.1581
				c0,0.1627-0.0461,0.356-0.0772,0.4852l-0.0228,0.1004c-0.0028,0.013-0.0037,0.0263-0.0037,0.0388
				c0,0.0876,0.0569,0.1545,0.1012,0.1948c-0.0533-0.0115-0.1272-0.0369-0.1549-0.0987c-0.0436-0.0955-0.1605-0.0999-0.2163-0.0886
				l-0.0391,0.0079l0.0333,0.0221c0.0525,0.0351,0.0541,0.0759,0.0578,0.1651l0.014,0.1698
				c0.0083,0.0579,0.034,0.1021,0.0764,0.1313c0.0371,0.0252,0.0804,0.0288,0.1199,0.0316
				c-0.0888,0.0232-0.2106,0.0376-0.2543-0.0446c-0.0824-0.1536-0.309-0.1946-0.3185-0.1964l-0.0346-0.006l0.0173,0.0303
				c0.0018,0.0033,0.0257,0.0469,0.0257,0.1024c0,0.0393-0.012,0.0843-0.0528,0.125c-0.0804,0.0811-0.0926,0.228-0.0926,0.3094
				c0,0.0159,0.0008,0.0181,0.001,0.0278c-0.2589-0.1088-0.3047-0.27-0.3047-0.3612c0-0.0388,0.0075-0.0646,0.0086-0.068
				l0.0075-0.0255l-0.0263,0.0044c-0.1257,0.0207-0.178,0.1231-0.1803,0.1275c-0.0719,0.2154-0.2671,0.3859-0.3378,0.4428
				c0.0022-0.018,0.0048-0.039,0.0048-0.0645c0-0.0673-0.0145-0.1531-0.0756-0.2143c-0.1029-0.1029-0.1169-0.4302-0.1169-0.4334
				l-0.0022-0.0591l-0.0288,0.0513c-0.1139,0.204-0.4464,0.106-0.4497,0.1052c-0.014-0.2578,0.2784-0.5876,0.2814-0.591
				l0.0306-0.034l-0.0451,0.0067c-0.191,0.0277-0.3393,0.0021-0.4409-0.0764c-0.0796-0.0617-0.1082-0.1402-0.1184-0.1799
				c0.2215,0.0825,0.4073,0.0871,0.5503,0.0081c0.1998-0.1104,0.2436-0.3367,0.2453-0.3462
				c0.2098-0.4757,0.3931-0.5508,0.3951-0.5513l-0.0115-0.031C39.5935,26.2343,39.4045,26.3087,39.1864,26.8039L39.1864,26.8039z"/>
			<path d="M39.6653,26.0989l-0.014,0.0005l-0.1702,0.2333l0.0506,0.005c0.9238,0.0899,1.4123,0.6472,1.4171,0.653l0.0213,0.0248
				l0.1675-0.182l-0.0123-0.0188C40.6568,26.0772,39.6753,26.0986,39.6653,26.0989L39.6653,26.0989z M39.6811,26.1568
				c0.1142,0.0003,0.9556,0.0263,1.3818,0.6719c-0.0208,0.0226-0.0673,0.0734-0.0921,0.1006
				c-0.0999-0.1035-0.5733-0.546-1.3853-0.6413C39.617,26.2447,39.6694,26.1729,39.6811,26.1568L39.6811,26.1568z"/>
			<path d="M39.5321,26.5864c-0.0789,0.1077-0.1523,0.2669-0.1523,0.3415c0,0.0143,0.0028,0.0255,0.0088,0.0326
				c0.0005,0.0007,0.0033,0.0009,0.0042,0.0021c-0.0962,0.0862-0.1535,0.2302-0.1535,0.3929c0,0.0895,0.0158,0.1828,0.0491,0.2717
				l0.0185,0.05c0.0906,0.2466,0.1688,0.4597,0.5608,0.3342c0.3776-0.1206,0.3924-0.1448,0.4875-0.3017l0.0248-0.0406
				c0.0518-0.0843,0.1084-0.1011,0.1688-0.119c0.0719-0.0216,0.1465-0.0437,0.2118-0.1728l0.0636-0.0953
				c0.0686-0.0945,0.1542-0.2117,0.1645-0.3617l-0.0331-0.0022c-0.0095,0.1404-0.0921,0.2534-0.1582,0.3443l-0.0664,0.0999
				c-0.0591,0.1164-0.1235,0.1357-0.1918,0.1561c-0.0636,0.0189-0.1289,0.0385-0.1875,0.1334l-0.0251,0.0408
				c-0.0914,0.151-0.1031,0.1704-0.469,0.2876c-0.362,0.1157-0.4282-0.0648-0.5198-0.3142l-0.0185-0.0506
				c-0.1032-0.275-0.0226-0.5523,0.1116-0.6516l0.0461-0.0342c0,0-0.0571,0.0064-0.0639,0.0073
				c-0.0007-0.0028-0.0015-0.0052-0.0015-0.0095c0-0.0449,0.0491-0.188,0.1467-0.3215c0.0834-0.1136,0.2801-0.2262,0.2822-0.2273
				l-0.0165-0.0287C39.816,26.3547,39.6194,26.4671,39.5321,26.5864L39.5321,26.5864z"/>
			<path d="M39.3564,27.5809c0.0648,0.0449,0.156,0.0418,0.2659,0c0.0005,0.0391,0.0092,0.1224,0.0776,0.1828
				c0.0804,0.0711,0.2135,0.0849,0.396,0.0413l-0.0078-0.0321c-0.171,0.0408-0.2944,0.0293-0.3663-0.0338
				c-0.0772-0.0681-0.0664-0.1765-0.0661-0.1774l0.003-0.0283l-0.0263,0.0111c-0.1107,0.0477-0.1973,0.0506-0.2574,0.009
				c-0.1077-0.0748-0.0996-0.2704-0.0994-0.2726l-0.0331-0.0016C39.2424,27.2882,39.2334,27.4955,39.3564,27.5809L39.3564,27.5809z"
				/>
			<path d="M39.5659,27.3173c-0.0473,0.0112-0.0595,0.0508-0.0595,0.0814c0,0.0073,0.0008,0.0142,0.0017,0.02
				c0.0083,0.0851,0.1007,0.1418,0.1846,0.1661c0.0816,0.0236,0.182,0.0251,0.2216-0.0257c0.0158-0.0203,0.0273-0.0569-0.0073-0.116
				C39.781,27.2289,39.5772,27.3129,39.5659,27.3173L39.5659,27.3173z M39.7019,27.5529c-0.0734-0.021-0.1542-0.0686-0.1607-0.1392
				c-0.0016-0.0067-0.0095-0.0542,0.0323-0.0641l0.0033-0.001c0.0075-0.0034,0.188-0.0818,0.3018,0.1116
				c0.0202,0.0345,0.0235,0.0608,0.0095,0.0786C39.8636,27.5705,39.7833,27.5768,39.7019,27.5529L39.7019,27.5529z M39.5626,27.3186
				c0.0003-0.0003,0.0033-0.0013,0.0033-0.0013L39.5626,27.3186z"/>
			<path d="M39.6797,27.7487c-0.0213,0.181-0.0083,0.1854,0.0047,0.1894l0.0115,0.0036l0.013-0.0153l0.1049-0.1383l-0.1317-0.0624
				L39.6797,27.7487L39.6797,27.7487z M39.71,27.7757c0.0187,0.0088,0.036,0.017,0.0531,0.0251
				c-0.0143,0.0182-0.0408,0.0536-0.0608,0.08C39.7028,27.8535,39.7061,27.8151,39.71,27.7757L39.71,27.7757z"/>
			<path d="M39.4068,27.6032l-0.007,0.1711l0.1437-0.1738l-0.1359-0.015L39.4068,27.6032L39.4068,27.6032z M39.4391,27.6224
				c0.0127,0.0015,0.0218,0.0022,0.0397,0.0042c-0.014,0.0168-0.0233,0.0283-0.0421,0.0509
				C39.4382,27.6509,39.4387,27.6361,39.4391,27.6224L39.4391,27.6224z"/>
			<path d="M39.311,27.5485c0.0012,0.0022,0.1069,0.2089,0.1256,0.2842c0.012,0.0479,0.0731,0.1024,0.146,0.1294
				c0.0726,0.0273,0.1407,0.0229,0.1915-0.0125l0.0954-0.0793c0.0318-0.0306,0.0423-0.0391,0.0681-0.0347l0.0055-0.0327
				c-0.0433-0.0073-0.0644,0.0129-0.0964,0.0435l-0.0914,0.0761c-0.0563,0.0393-0.1252,0.0226-0.1612,0.0087
				c-0.0681-0.0252-0.1174-0.0741-0.1255-0.1066c-0.0198-0.0788-0.1239-0.2822-0.1281-0.291L39.311,27.5485L39.311,27.5485z"/>
			<path d="M39.4486,26.9292c-0.1167,0.0538-0.166,0.1954-0.168,0.2013l0.0313,0.0109c0.0005-0.0014,0.0471-0.1346,0.1507-0.1822
				c0.0506-0.0232,0.1071-0.0224,0.1688,0.0018l0.0123-0.0306C39.5735,26.9022,39.5079,26.9019,39.4486,26.9292z"/>
			<path d="M40.2327,27.3008c0.0092,0.0069,0.2296,0.1739,0.1029,0.3775l0.0281,0.0175c0.1429-0.2296-0.109-0.4199-0.1112-0.4219
				L40.2327,27.3008L40.2327,27.3008z"/>
			<path d="M39.5703,27.3332c0,0-0.0343,0.1245,0.1409,0.1685c0,0-0.1648-0.0014-0.1752-0.044
				C39.5249,27.4152,39.5369,27.3209,39.5703,27.3332z"/>
			<path d="M40.106,27.4822c0,0.0108-0.0088,0.0197-0.0195,0.0197c-0.0105,0-0.0195-0.0089-0.0195-0.0197
				c0-0.0106,0.009-0.0195,0.0195-0.0195C40.0973,27.4627,40.106,27.4716,40.106,27.4822z"/>
			<path d="M40.1255,27.56c0,0.0108-0.0088,0.0198-0.0195,0.0198s-0.0193-0.009-0.0193-0.0198c0-0.0105,0.0086-0.0194,0.0193-0.0194
				S40.1255,27.5496,40.1255,27.56z"/>
			<circle cx="39.9937" cy="27.5215" r="0.0194"/>
			<path d="M40.047,27.6385c0,0.0105-0.0088,0.0193-0.0195,0.0193c-0.0105,0-0.0193-0.0087-0.0193-0.0193
				c0-0.0109,0.0088-0.0198,0.0193-0.0198C40.0381,27.6187,40.047,27.6275,40.047,27.6385z"/>
			<path d="M39.5357,27.1114c0,0.0108-0.0087,0.0196-0.0198,0.0196c-0.0105,0-0.0195-0.0089-0.0195-0.0196
				c0-0.0105,0.009-0.0195,0.0195-0.0195C39.527,27.0919,39.5357,27.1009,39.5357,27.1114z"/>
			<circle cx="39.5357" cy="27.1899" r="0.0194"/>
			<circle cx="39.4234" cy="27.151" r="0.0194"/>
			<path d="M39.4766,27.2677c0,0.0105-0.009,0.0195-0.0198,0.0195c-0.0105,0-0.0193-0.009-0.0193-0.0195
				c0-0.0109,0.0088-0.0198,0.0193-0.0198C39.4676,27.2479,39.4766,27.2568,39.4766,27.2677z"/>
			<path d="M39.818,26.58c0,0,0.2534,0.1559,0.0095,0.4485c0,0,0.1199-0.0891,0.1322-0.2421
				C39.9725,26.6335,39.8728,26.5115,39.818,26.58z"/>
			<path d="M40.7901,27.0005c-0.0816,0.0419-0.199-0.0357-0.2579-0.1091c-0.0586-0.0734-0.18-0.0921-0.2556,0.0418
				c-0.0754,0.1342-0.1843,0.1845-0.1843,0.1845s0.1064-0.0628,0.2159-0.1803c0.1089-0.1172,0.1718-0.0231,0.2787,0.0335
				c0.1069,0.0566,0.1237,0.069,0.199,0.0397L40.7901,27.0005L40.7901,27.0005z"/>
			<path d="M40.7692,27.0199c-0.0334,0.0251-0.0944,0.0461-0.1593-0.0065c-0.0648-0.0524-0.1194-0.1235-0.2011-0.0817
				c-0.0819,0.0421-0.2371,0.1593-0.2371,0.1593s0.2516-0.174,0.2999-0.1362c0.048,0.0378,0.1615,0.13,0.2305,0.1029
				C40.7715,27.0302,40.7692,27.0199,40.7692,27.0199L40.7692,27.0199z"/>
			<path d="M40.5762,27.1265c-0.0796-0.0607-0.1593,0.0712-0.2263,0.0547c-0.0671-0.017-0.1217-0.1281-0.1217-0.1281
				s0.0631,0.1174,0.151,0.0901c0.0881-0.0271,0.149-0.0817,0.2033-0.0399C40.6371,27.1454,40.5762,27.1265,40.5762,27.1265z"/>
			<path d="M40.4517,27.1431c-0.1572,0.0162-0.1727-0.1306-0.1727-0.132c0,0,0.0496,0.1281,0.1886,0.1049L40.4517,27.1431z"/>
			<path d="M40.4466,27.043c0.0103,0.0397,0.008,0.0578-0.034,0.0578c-0.0423,0-0.0711-0.0141-0.0711-0.0551
				C40.3414,27.0045,40.4404,27.0174,40.4466,27.043z"/>
			<path d="M39.8821,26.8248c0,0.0273-0.0226,0.0493-0.0504,0.0493s-0.0333-0.0188-0.0333-0.0458s0.0054-0.0525,0.0333-0.0525
				S39.8821,26.7978,39.8821,26.8248z"/>
			<path d="M39.7085,26.6491c0,0,0.2693,0.0029,0.1359,0.3399c0,0,0.1027-0.1677,0.0383-0.2884
				c-0.0646-0.1205-0.166-0.0901-0.166-0.0901S39.692,26.6332,39.7085,26.6491z"/>
			<path d="M39.7006,26.7838c-0.0008,0.0676,0.0443,0.1373,0.1337,0.2071l0.0206-0.0259c-0.0809-0.0631-0.1217-0.1239-0.1211-0.1805
				c0.0005-0.0566,0.0441-0.0902,0.0446-0.0906l-0.0198-0.0267C39.7562,26.669,39.7015,26.7106,39.7006,26.7838L39.7006,26.7838z"/>
			<path d="M39.7604,26.8406c0.0115,0.0388,0.0416,0.0681,0.0896,0.0873l0.0123-0.0306c-0.038-0.0151-0.0616-0.0373-0.0701-0.0658
				c-0.017-0.0573,0.029-0.1242,0.0296-0.1247l-0.0268-0.0193C39.7923,26.6911,39.7388,26.7683,39.7604,26.8406L39.7604,26.8406z"/>
			<path d="M40.1298,27.0279c0,0,0.0501,0.1089-0.0231,0.2263c-0.0734,0.1174-0.0714,0.1112-0.0714,0.1112
				s0.0881-0.1614,0.0546-0.2286C40.0567,27.0697,40.1298,27.0279,40.1298,27.0279L40.1298,27.0279z"/>
			<path d="M41.1775,28.1649c0.2767,0.0521,0.9008,0.5415,0.9073,0.5466l0.0359-0.0458c-0.0263-0.0203-0.642-0.503-0.9324-0.5576
				L41.1775,28.1649L41.1775,28.1649z"/>
			<path d="M41.4231,28.8555c0.0185,0.2455,0.2857,0.3981,0.2972,0.4042l0.0283-0.0504c-0.0028-0.0013-0.2514-0.1437-0.2679-0.3583
				L41.4231,28.8555z"/>
			<path d="M40.7599,28.9066c0,0.2754,0.2581,0.6085,0.2692,0.6227l0.0455-0.0358c-0.0025-0.0031-0.2569-0.3314-0.2569-0.5869
				H40.7599L40.7599,28.9066z"/>
			<path d="M39.8849,28.9376c0.0455,0.0909,0.0408,0.137,0.029,0.1595c-0.0137,0.0254-0.0418,0.0293-0.0428,0.0296l0.0067,0.0576
				c0.0213-0.0025,0.0639-0.0173,0.0864-0.0588c0.0276-0.0505,0.0182-0.1224-0.0276-0.2134L39.8849,28.9376L39.8849,28.9376z"/>
		</g>
		<g>
			<path class="st14" d="M35.9503,27.5795c0,0,0.0168,0.1843,0.1593,0.2937c0,0-0.0168-0.2016,0.0252-0.2852
				C36.1348,27.5879,36.0594,27.5041,35.9503,27.5795L35.9503,27.5795z"/>
			<path class="st14" d="M36.2347,27.6968c0,0,0.0337,0.1675,0.1343,0.2431l0.059-0.0168c0,0,0.0251-0.2098,0.0586-0.2349
				C36.5202,27.6633,36.3441,27.7637,36.2347,27.6968z"/>
			<path class="st14" d="M36.4868,27.6882l0.109,0.1677l0.1256-0.0671l-0.0251-0.2011
				C36.6963,27.5878,36.621,27.5708,36.4868,27.6882L36.4868,27.6882z"/>
			<path class="st14" d="M36.9981,27.722l-0.1426,0.1174c0,0-0.0753-0.0588-0.1342-0.0504l0.0253-0.1845
				C36.7466,27.6046,36.8472,27.5292,36.9981,27.722L36.9981,27.722z"/>
			<path class="st14" d="M35.9834,29.4575c0,0-0.0251-0.2599,0.0086-0.2767c0,0,0.1004,0.0335,0.1424-0.0086
				c0,0,0.0588,0.2098,0.0419,0.2936C36.1596,29.5496,36.059,29.5163,35.9834,29.4575L35.9834,29.4575z"/>
			<path class="st14" d="M36.6294,29.1889c0,0-0.0083-0.218,0.0335-0.2433c0,0,0.2095,0.0252,0.2598-0.0836l0.0755,0.2095
				C36.9983,29.0715,36.7635,29.0462,36.6294,29.1889z"/>
			<path class="st15" d="M36.4033,29.2307c0,0,0.0418-0.2263,0.0839-0.2347c0,0,0.109,0.0334,0.1425-0.0086l-0.0083,0.277
				C36.6214,29.2642,36.6297,29.1467,36.4033,29.2307L36.4033,29.2307z"/>
			<path class="st15" d="M36.1599,29.2645c0,0,0.0503-0.2013,0.0839-0.2013c0.0337,0,0.1175,0.0503,0.1593,0.0168v0.151
				c0,0-0.1848-0.0418-0.2096,0.2095L36.1599,29.2645L36.1599,29.2645z"/>
		</g>
	</g>
	<g id="sugarcanes">
		<path class="st16" d="M39.4284,33.4389c0,0,0.5699,0.5293,0.4209,0.9907c0,0,0.3663-0.7872-0.027-1.018
			C39.4284,33.181,39.4149,33.3578,39.4284,33.4389L39.4284,33.4389z"/>
		<path class="st17" d="M38.709,33.9538c0,0-0.1491,0.204,0.0136,0.3533c0,0-0.1763,0.2574-0.0404,0.4749
			c0,0-0.1088,0.2306-0.0816,0.475c0,0-0.0951,0.3799,0.1084,0.5566c0,0,0.2173,0.1086,0.3125,0.0136
			c0,0,0.1898-0.2849,0.0676-0.5839c0,0,0.1358-0.2441-0.0135-0.5563c0,0,0.0408-0.1765-0.0814-0.3798
			c0,0,0.0814-0.1359,0.0134-0.2444C39.0076,34.0628,38.7363,33.7775,38.709,33.9538L38.709,33.9538z"/>
		<path class="st16" d="M38.8718,33.2891c0,0-0.6785-1.3027-1.1536-1.3572c-0.4751-0.0544-0.5021-0.5156-0.5021-0.5156
			s0.0542,0.2172,0.4343,0.2172c0.38,0,1.113,0.5292,1.1943,0.9363c0.0813,0.4071,0.163,0.353,0.163,0.353L38.8718,33.2891
			L38.8718,33.2891z"/>
		<path class="st16" d="M38.8718,33.1941c0,0,0.2444-1.6422,1.3168-1.6695c1.0719-0.0273,0.7193,0.0814,0.977-0.0951
			c0,0-0.719,0.3803-1.1671,0.4344c-0.4477,0.0543-0.8143,0.9226-0.8007,1.0858c0.0135,0.1627-0.2442,0.475-0.3664,0.3666
			C38.7091,33.2076,38.8718,33.1941,38.8718,33.1941L38.8718,33.1941z"/>
		<path class="st16" d="M39.1159,33.8054c0,0,0.2442-0.6515,0.665-0.4341c0,0-0.326-0.6246-0.9094-0.0817
			C38.8715,33.2897,39.1294,33.6425,39.1159,33.8054L39.1159,33.8054z"/>
		<path class="st16" d="M38.3014,33.153c0,0,0.353,1.4524-0.19,1.9001c0,0,0.0135-0.7461-0.3122-1.1941
			C37.4737,33.411,38.1249,32.9227,38.3014,33.153L38.3014,33.153z"/>
		<path class="st16" d="M38.3425,33.4116c0,0,0.6381,0.6109,0.6789,0.8144c0.0408,0.2036,0.1898-0.6107-0.1086-0.8412
			c-0.2986-0.2311-0.6243-0.2717-0.6243-0.2717L38.3425,33.4116z"/>
		<path class="st17" d="M37.1658,35.0123c0,0,0.0578,0.2564,0.2152,0.306c0,0,0.0081,0.1905,0.1489,0.2483
			c0,0-0.0747,0.1573,0.0498,0.2564c0,0-0.0251,0.3145,0.0909,0.3808c0,0,0.2816-0.0165,0.3806-0.0994
			c0,0,0.0581-0.2065-0.0989-0.4138c0,0,0.0245-0.1986-0.1327-0.306c0,0,0.0497-0.2651-0.149-0.3642
			c0,0-0.0329-0.2153-0.1573-0.3227C37.5133,34.6976,37.2734,35.0369,37.1658,35.0123L37.1658,35.0123z"/>
		<path class="st16" d="M37.4798,34.6977c0,0-0.8358-0.3062-1.2992,0.1325c0,0,0.7115,0.0994,0.8027,0.2401
			C37.0743,35.2106,37.5127,34.8386,37.4798,34.6977L37.4798,34.6977z"/>
		<path class="st16" d="M37.2234,35.219c0,0-0.0661-0.0578-0.1488-0.1159c-0.0828-0.0578-0.7861-0.2482-0.8857,0.4303
			c0,0-0.2566-0.6702,0.1158-0.7614C36.6775,34.6809,36.9753,34.8963,37.2234,35.219"/>
		<path class="st16" d="M36.6733,33.8321c0,0,0.2576,0.5563,0.3528,0.5839c0.095,0.0268,0.1627-0.0678,0.1627-0.0678
			S36.8497,33.8459,36.6733,33.8321z"/>
		<path class="st16" d="M36.4832,32.9773c0,0-0.2173-0.7192-0.475-0.5293c-0.2579,0.19-0.19,0.7056-0.19,0.7056
			s-0.5158-0.529-0.2173-0.95C35.8998,31.783,36.4832,32.2444,36.4832,32.9773L36.4832,32.9773z"/>
		<path class="st17" d="M37.0672,34.4564c0,0,0,0.1358,0.0951,0.1763c0.0951,0.0408,0.2714,0.1084,0.2714,0.0273
			c0-0.0814-0.1356-0.3936-0.1902-0.3528C37.1891,34.3481,37.0945,34.3475,37.0672,34.4564L37.0672,34.4564z"/>
		<path class="st16" d="M36.9044,33.6153c0,0-0.0271-0.6242,0.3798-0.8552c0,0,0.0817,0.014,0.1224-0.1081
			c0,0-0.3261,0.7868-0.231,1.1805l-0.0135,0.0544"/>
		<path class="st16" d="M36.9858,32.8549c0,0,0.7328-1.5203,1.6287-0.991c0,0-0.9364,0.1901-1.2756,0.8552l-0.3395,0.5017
			L36.9858,32.8549L36.9858,32.8549z"/>
		<path class="st16" d="M36.5919,33.4116c0,0-0.2172-1.0178-0.3529-1.1533c-0.1358-0.1358-0.3666-0.2851-0.6381-0.0544
			c0,0,0.4752-0.4209,0.9773-0.0678c0.502,0.3529,0.3934,0.9093,0.3934,0.9093l-0.0541,0.7058l-0.3393-0.3122"/>
		<path class="st16" d="M37.379,34.6192c0,0-0.8958-1.696-1.4792-0.4882c0,0-0.1089,0.3119,0.0132,0.4339
			c0,0-0.3258-0.2441-0.1764-0.8412c0.1491-0.5969,1.1398-0.3258,1.4251,0.163c0.2849,0.4885,0.3666,0.7331,0.3258,0.7598
			C37.4466,34.6737,37.3789,34.6192,37.379,34.6192L37.379,34.6192z"/>
		<path class="st16" d="M39.9037,35.1081c0,0,0.6517-1.3437,1.0315-0.7331c0,0,0.1084,0.2985-0.0545,0.4209
			c0,0-0.2576-0.3122-0.4882,0.0678c-0.2308,0.3799-0.1358,0.353-0.1358,0.353S40.0122,35.2846,39.9037,35.1081L39.9037,35.1081z"/>
		<path class="st16" d="M40.8801,34.7956c0,0,0.3528,0.1898,0.2311,0.5698c0,0,0.4747-0.9091-0.1765-0.9907
			C40.9347,34.3747,41.0569,34.6598,40.8801,34.7956L40.8801,34.7956z"/>
		<path class="st16" d="M40.9212,33.8731c0,0,0.8552,0.2441,0.8823,0.6109c0,0,0.1495-0.7061-0.3393-0.9232
			C41.4642,33.561,40.8804,33.6561,40.9212,33.8731L40.9212,33.8731z"/>
		<path class="st16" d="M41.3014,32.7462c0.3666-0.7193,0.828,0.2307,0.828,0.2307s0.1627-0.7463-0.2985-0.8823
			c-0.4617-0.1357-0.7601,1.5878-0.7601,1.5878l-0.543,0.1222c0,0,0.1494-1.5062,0.9636-1.6422l0.0949,0.0137"/>
		<path class="st16" d="M40.6497,33.1804c0,0-0.5155-1.0585-0.8685-1.167c-0.353-0.1086,0.1903-0.2715,0.4073-0.068
			c0.2168,0.2034,0.624,0.4614,0.5834,1.0044L40.6497,33.1804L40.6497,33.1804z"/>
		<path class="st16" d="M40.1204,34.6328c0,0,0.1492-0.719,0.5563-0.9363c0.4071-0.2173,0.7872-0.1357,0.7872-0.1357
			s-0.4887,0.1084-0.5699,0.353c-0.0816,0.2441-0.2173,0.2576-0.2173,0.2576L40.1204,34.6328L40.1204,34.6328z"/>
		<path class="st17" d="M39.9037,35.1081c0,0-0.2306,0.4344-0.1765,0.5021c0,0-0.2441,0.3528-0.1492,0.5293
			c0,0,0.2444,0.19,0.353,0.1084c0,0,0.2846-0.3933,0.2033-0.6107c0,0,0.19-0.2576,0.1224-0.4204
			C40.2566,35.2168,39.9717,35.2303,39.9037,35.1081L39.9037,35.1081z"/>
		<g>
			<path d="M38.7097,34.3326c0.0153,0.0078,0.1523,0.0743,0.2445,0.0436l0.0659-0.0563l-0.0518-0.0257
				c-0.0338,0.0671-0.183,0.0118-0.2329-0.013L38.7097,34.3326z"/>
			<path d="M38.6874,34.7538l-0.0112,0.0569c0.0117,0.0022,0.2871,0.0556,0.4184-0.0611l-0.0385-0.0431
				C38.9463,34.8039,38.6902,34.7546,38.6874,34.7538L38.6874,34.7538z"/>
			<path d="M38.6176,35.2334l-0.034,0.0468c0.0033,0.0025,0.3233,0.2304,0.5281-0.0185l-0.0448-0.0368
				C38.8968,35.4315,38.629,35.2417,38.6176,35.2334z"/>
			<path d="M37.3747,35.3025l0.012,0.031c0.0115-0.0048,0.2826-0.1136,0.2999-0.3119l-0.0329-0.003
				C37.6381,35.1966,37.3773,35.3015,37.3747,35.3025z"/>
			<path d="M37.528,35.5503l0.0023,0.033c0.0105-0.0008,0.2609-0.0195,0.3046-0.1945l-0.0323-0.0083
				C37.765,35.5322,37.5305,35.55,37.528,35.5503z"/>
			<path d="M37.5799,35.8066l-0.0018,0.0333c0.012,0.0005,0.2924,0.015,0.3876-0.1402l-0.0283-0.0175
				C37.8524,35.8209,37.5827,35.8069,37.5799,35.8066z"/>
			<path d="M39.7064,35.6309c0.005,0.0053,0.1259,0.1247,0.2671,0.1194c0.0691-0.0025,0.1305-0.0343,0.1822-0.0938l-0.0438-0.038
				c-0.0408,0.047-0.0881,0.0721-0.1402,0.0741c-0.1156,0.0042-0.2235-0.1014-0.2246-0.1027L39.7064,35.6309L39.7064,35.6309z"/>
		</g>
	</g>
	<g id="palm">
		<g>
			<path class="st18" d="M48.1344,36.6232c-0.015,0.0058-0.0301,0.0148-0.0438,0.029L48.1344,36.6232z"/>
			<path class="st18" d="M49.1325,36.3733c-0.0097-0.0248-0.016-0.0143-0.0288-0.0253c-0.0182-0.015-0.0288-0.0631-0.0448-0.0811
				c-0.0095-0.011-0.0205-0.0003-0.0308-0.003c-0.0233-0.0513-0.0508-0.1054-0.0753-0.1549
				c0.0038-0.0057,0.0062-0.0125,0.0067-0.0231c0-0.002-0.0115-0.0416-0.0123-0.0433c-0.007-0.011-0.0181-0.0045-0.0248-0.0215
				c-0.0075-0.017-0.0018-0.0506-0.0045-0.0706c-0.002-0.0168-0.0086-0.026-0.0075-0.0496c0.001-0.0205,0.012-0.0443,0.0107-0.0623
				c-0.0005-0.0112-0.0137-0.0366-0.0177-0.0461c-0.0161-0.0388-0.0296-0.0754-0.0315-0.1232
				c-0.002-0.0433,0.0067-0.0698,0.0099-0.1074c0.0041-0.045-0.0198-0.0669-0.0198-0.1084
				c0.0003-0.0318,0.0137-0.0676,0.0175-0.0961c0.0053-0.0391,0.0057-0.0957,0.0024-0.1357
				c-0.0029-0.0383-0.0137-0.0614-0.0078-0.1044c0.0016-0.0105,0.0066-0.019,0.0078-0.0338
				c-0.0003-0.0105-0.0003-0.0207-0.0003-0.031v-0.0618c0-0.0201,0.002-0.0426,0.0003-0.0621
				c-0.0017-0.0162-0.0112-0.033-0.0112-0.0458c0-0.022,0.014-0.0325,0.011-0.0624c-0.0019-0.0215-0.005-0.0265-0.0099-0.0453
				c-0.0095-0.0355-0.003-0.0714-0.0088-0.1094c-0.0028-0.0182-0.0086-0.024-0.0103-0.0448
				c-0.0024-0.0245,0.0051-0.033,0.0075-0.0504c0.0025-0.0173,0.0051-0.04,0.0028-0.0583c-0.0028-0.022-0.0132-0.0376-0.0103-0.0616
				l-0.008,0.2724c-0.0067-0.2376-0.0162-0.4576-0.0162-0.4576l-0.3614-0.1697c0,0-0.0306,0.6635-0.0228,0.7558
				c0.0073,0.0926,0.0383,0.7256,0.0228,0.8027c-0.0156,0.0772-0.0536,0.4629-0.0536,0.4629s-0.1767,0.1235-0.2458,0.2622
				c-0.0694,0.139-0.0538,0.1853-0.0772,0.1853l0.1717-0.0268l-0.1279,0.0854c0.0264-0.0099,0.0541-0.0078,0.0797,0.0124
				c0.0029,0.0024,0.022,0.0188,0.0245,0.0188c0.0067,0,0.0161-0.0172,0.0243-0.0202c0.0266-0.009,0.0491,0.0409,0.0743,0.0371
				c0.0136-0.002,0.0321-0.0162,0.0431-0.0308c0.0092-0.0123,0.0127-0.0338,0.0223-0.042c0.0088-0.0075,0.0303,0.0012,0.0396,0.0012
				c0.0252,0,0.0508,0.0008,0.076,0c0.0336-0.001,0.0608-0.0483,0.0919-0.0751c0.0289-0.0243,0.0501-0.0328,0.081-0.031
				c0.0338,0.0025,0.0643,0.034,0.0987,0.036c0.026,0.0013,0.0441,0.0045,0.0651-0.0228c0.0145-0.019,0.0248-0.0473,0.0385-0.0671
				l0.0854-0.0132c0.0169,0.007,0.0342,0.0148,0.0487,0.0143c0.0218-0.001,0.0443-0.0037,0.0659-0.0003
				c0.0082,0.001,0.0245,0.0203,0.0312,0.0156c0.0046-0.0035,0.0124-0.0296,0.017-0.0373
				C49.1395,36.408,49.1363,36.382,49.1325,36.3733L49.1325,36.3733z"/>
			<path class="st18" d="M48.4016,36.611c0.0218,0,0.0417-0.005,0.0601,0.011c0.003,0.0058,0.0057,0.0113,0.0086,0.0168
				c0.006,0.0041,0.0123,0.0048,0.0181,0.0025c0.0123,0.0083,0.0148,0.013,0.0283,0.0161c0.0125,0.0027,0.0263-0.0005,0.0388-0.0003
				c0.0158,0.0005,0.0235,0.006,0.0383,0.012c0.0258,0.0105,0.0428,0.0005,0.0651-0.0156c0.0258-0.019,0.0353-0.0045,0.0601,0.0194
				c0.0186,0.0177,0.0148,0.0161,0.0315,0.004c0.0025-0.0057,0.0054-0.0112,0.0083-0.0161
				c0.0083-0.0035,0.0168-0.0057,0.0252-0.0073c0.0138-0.0065,0.0276-0.0057,0.0406-0.0107
				c0.0137-0.0054,0.0238-0.0206,0.0383-0.0178c0.0125,0.0025,0.0269,0.0127,0.0388,0.0165
				c0.0115,0.004,0.0165,0.0062,0.0261,0.0132c0.0172-0.0355,0.0553-0.0461,0.0796-0.0633c0.0253-0.0175,0.0488,0.0037,0.0766,0.004
				c0.0148,0,0.0207-0.0086,0.0313-0.012c0.0118-0.0043,0.0252,0.0019,0.0366-0.0028c0.012-0.0045,0.0143-0.0161,0.0275-0.0175
				c0.0245-0.003,0.0518,0.037,0.0764,0.0445c0.0137,0.0046,0.0774,0.0188,0.0681-0.028c-0.009-0.0446-0.049-0.0137-0.0576-0.045
				c-0.0046-0.0178,0.0048-0.0431-0.0008-0.0631c-0.0047-0.0182-0.0248-0.0393-0.0368-0.0433
				c-0.015-0.0048-0.0238,0.011-0.0366-0.0013c-0.0105-0.0098-0.0145-0.0463-0.0238-0.0608c-0.0124,0.009-0.02,0.0173-0.0363,0.014
				c-0.0186-0.0045-0.0168-0.0108-0.0306-0.0283c-0.0301-0.0376-0.0474,0.0226-0.0751,0.0131
				c-0.0211-0.0067-0.0406-0.0598-0.0571-0.0814c-0.0088-0.0115-0.0336-0.0488-0.0463-0.0405
				c-0.0215,0.014-0.002,0.0546-0.0132,0.0726c-0.008,0.0125-0.0366-0.0003-0.0468,0.0017
				c-0.0162,0.0035-0.0193,0.0078-0.031,0.0273c-0.0238,0.0393-0.0376,0.0706-0.0746,0.0661
				c-0.0175-0.002-0.0308-0.0198-0.0479-0.0133c-0.0182,0.007-0.0285,0.0265-0.0486,0.0288
				c-0.0145,0.0012-0.0313,0.0017-0.0455-0.0037c-0.014-0.0063-0.0298-0.0326-0.0426-0.0398
				c-0.0054-0.0045-0.011-0.0054-0.0172-0.0033c-0.0016-0.0008-0.0208-0.012-0.0211-0.012
				c-0.0223-0.0065-0.0205-0.0057-0.0296,0.0238c-0.0053,0.0182-0.0073,0.0371-0.014,0.0544
				c-0.0065,0.0145-0.0207,0.0325-0.029,0.0423c-0.0156,0.0168-0.0231,0.0123-0.0433,0.0183
				c-0.0162,0.0053-0.0378,0.0306-0.0466-0.002c-0.013-0.0491,0.036-0.1224-0.0186-0.1097
				c-0.0143,0.0033-0.0228,0.006-0.0315,0.0271c-0.0097,0.0243-0.0019,0.04-0.0062,0.0666
				c-0.0057,0.0335-0.0696,0.0899-0.057,0.1202c0.0086,0.0213,0.0371-0.0115,0.0448-0.0062c0.013,0.009,0.0092,0.0303,0.0185,0.0446
				c0.0194,0.0296,0.0766-0.0458,0.0799-0.005"/>
			<path class="st18" d="M48.1697,36.3481c-0.0001-0.0042-0.0009-0.0083-0.0012-0.0127c-0.0153-0.0028-0.0326-0.019-0.0466-0.0193
				c-0.0132-0.0008-0.0391,0.0315-0.0481,0.047c-0.028,0.0463-0.0202,0.1094-0.0673,0.1084
				c-0.0115-0.0003-0.0385-0.008-0.0487-0.001c-0.0177,0.0125-0.0065,0.0496-0.0065,0.0748c0,0.0238,0.0108,0-0.0019,0.0308
				c-0.0038,0.0085-0.0153,0.0112-0.0183,0.0226c-0.0095,0.0403,0.024,0.0275,0.0388,0.027c0.038-0.0003,0.0759-0.0003,0.1135,0
				c0.0228,0.0005,0.0366-0.0075,0.0578-0.0158c0.014-0.0048,0.0438-0.0045,0.0557-0.017c0.0042-0.0048,0.0181-0.0366,0.02-0.0441
				c0.003-0.0156-0.0029-0.0343,0.0008-0.0473c0.006-0.0228,0.0264-0.0141,0.0301-0.0448c0.0098-0.0754-0.0708-0.019-0.0581-0.0932"
				/>
		</g>
		<g>
			<path class="st19" d="M49.0813,34.2512c0,0.0976-0.0668,0.1763-0.1497,0.1763c-0.0818,0-0.1492-0.0786-0.1492-0.1763
				c0-0.0974,0.0673-0.1765,0.1492-0.1765C49.0145,34.0747,49.0813,34.1538,49.0813,34.2512z"/>
			<path class="st19" d="M48.5931,34.0337c0,0.0974-0.0669,0.1763-0.1493,0.1763c-0.0826,0-0.1497-0.0789-0.1497-0.1763
				s0.0671-0.1765,0.1497-0.1765C48.5262,33.8573,48.5931,33.9363,48.5931,34.0337z"/>
			<path class="st19" d="M48.8509,34.1014c0,0.0976-0.0669,0.1763-0.1493,0.1763s-0.1492-0.0786-0.1492-0.1763
				s0.0668-0.1765,0.1492-0.1765S48.8509,34.0038,48.8509,34.1014z"/>
			<path class="st19" d="M48.601,34.2627c0,0.0976-0.0671,0.1767-0.1495,0.1767s-0.1492-0.0792-0.1492-0.1767
				c0-0.0974,0.0668-0.1763,0.1492-0.1763S48.601,34.1652,48.601,34.2627z"/>
			<path class="st19" d="M48.8329,34.3974c0,0.0974-0.0673,0.1767-0.1494,0.1767c-0.0824,0-0.1495-0.0793-0.1495-0.1767
				c0-0.0974,0.0671-0.1763,0.1495-0.1763C48.7655,34.2212,48.8329,34.3,48.8329,34.3974z"/>
		</g>
		<path class="st16" d="M48.9049,32.4725c0,0,1.5063-2.1033,3.1215,0.0817c0,0,0.0135,0.2173-0.1358,0.4479l-0.0408-0.1763
			l-0.095,0.027l-0.027-0.1085l-0.1768-0.0135l0.0546-0.2308l-0.1903,0.1493l0.0273-0.163l-0.2172,0.2175l0.0273-0.4617
			l-0.2309,0.3936l0.0271-0.2712l-0.0813,0.1219l-0.049-0.1581l-0.0729,0.1581l-0.1089-0.0812v0.1085l-0.1898-0.1629l-0.0678,0.2171
			l-0.095-0.2305L50.3571,32.5l-0.0952-0.19l-0.0132,0.2037l-0.3125-0.1358l0.0678,0.19l-0.149-0.1084l0.027,0.1084l-0.2033-0.0405
			l0.0133,0.122l-0.2172-0.0408l0.0409,0.1084l-0.2987-0.0404l0.1082,0.1221l-0.0301,0.0497c0,0,1.6317-0.5381,1.7403,1.4975
			l-0.2986,0.1492l0.0816-0.1625l-0.0816-0.0545l-0.2441-0.1898l0.0678-0.2581l-0.0813,0.0273l-0.0137-0.1492l-0.0406,0.0271
			l-0.0952-0.1492l-0.0271,0.0544l-0.0678-0.1767l-0.0678,0.1224l-0.0409-0.2987l-0.1084,0.1903l-0.0138-0.1086l-0.0408,0.0678
			l-0.1357-0.163l-0.0404,0.1086l-0.0546-0.0814l-0.0405,0.0949l-0.1493-0.1359v0.109l-0.0949-0.0817l-0.0411,0.0544l-0.2303-0.1222
			l-0.0141,0.1084l-0.1218-0.1084l-0.0409,0.1084c0,0,1.4797,0.8417,1.018,2.2125l-0.0817,0.1763l-0.0268-0.4612l-0.1357,0.2441
			l0.0944-0.5293l-0.0944,0.0949l-0.014-0.2033l-0.1217,0.2033l-0.0414-0.2305l-0.0538,0.0678l-0.0818-0.353l-0.0678,0.1495
			l-0.1084-0.3936l-0.0813,0.1627l-0.0544-0.339l-0.0544,0.2035l-0.163-0.2987l-0.0269,0.1219l-0.0949-0.2441l-0.0546,0.0817
			c0,0-0.2714-0.0138-0.3527-0.0817c-0.0814-0.0676-0.3122,0.4073-0.3122,0.4073l0.0272-0.2852l-0.0949,0.1898V34.034
			l-0.1765,0.5699l-0.0408-0.4071l-0.095,0.3528l-0.0409-0.1084l-0.027,0.1494l-0.0544-0.0545l-0.0474,0.1602l-0.0886-0.0651v0.2171
			l-0.0813-0.1086l-0.0678,0.3258l-0.0406-0.1354v0.149l-0.0678-0.0811l-0.0681,0.3258l-0.0949-0.1357l-0.0133,0.2304l0.0404,0.1767
			L46.95,35.5409l0.0409,0.2846c0,0-0.4208-0.7869,0.0816-1.5471c0.5018-0.7596,1.1805-0.9634,1.1805-0.9634l-0.0681-0.0676
			l-0.0135-0.0681l-0.4071,0.2035l0.0137-0.1224l-0.1087,0.0951l-0.027-0.1357l-0.0681,0.1222l-0.0132-0.0544l-0.0952,0.1495
			l-0.0545-0.2173l-0.0677,0.2581l-0.064-0.1805L47.14,33.6812v-0.2849l-0.1086,0.2987l-0.0406-0.3258l-0.0813,0.3798v-0.3393
			l-0.1224,0.3393l-0.0813-0.3255l-0.0544,0.3119L46.57,33.4914l-0.0817,0.3663l-0.1219-0.3258l-0.0678,0.4887l-0.0813-0.1903
			l-0.0137,0.353l-0.0947-0.2171l0.0947,0.4612l-0.1222-0.1763l0.0409,0.2849l-0.1763-0.3122l0.0135,0.3668l-0.0951-0.1224
			l-0.0409,0.1358c0,0-0.0404-1.4114,0.9229-1.683c0.9639-0.2713,1.5882,0.0816,1.5882,0.0816l-0.3663-0.2985l0.0406-0.0951h-0.1357
			l0.0543-0.1086l-0.2849,0.0137l0.0813-0.1086l-0.2173,0.027v-0.0677l-0.1357,0.1083l0.0544-0.1219l-0.19,0.1219l-0.0116-0.1805
			l-0.0971,0.1537l-0.0538-0.163l-0.4346,0.434l0.1221-0.4477l-0.0813,0.0951l-0.0135-0.0951l-0.1222,0.1902l-0.0272-0.1358
			l-0.0544,0.1627l-0.0409-0.1898l-0.0946,0.1898l-0.0952-0.1761l-0.0405,0.2308l-0.0681-0.1224l-0.0814,0.1765l-0.1084-0.1087
			l-0.0137,0.1087l-0.2172-0.0951l0.0544,0.163l-0.163-0.1357l-0.0409,0.2171l-0.0947-0.1086l-0.0678,0.2717l-0.0678-0.258
			l-0.0678,0.2036c0,0,0.8487-2.1809,2.996-0.758c0,0,0.2338,0.2286,0.2882,0.3914c0.0544,0.163,0.0137,0.0274,0.0137,0.0274
			l-0.0409-1.5065l0.0814,0.6515l0.0543-0.2308l-0.0135,0.3393l0.2169-0.4751c0,0-0.2576,0.7873-0.1628,1.0722
			c0,0,0.0952-0.9092,0.4212-1.0179l-0.2987,0.6514l0.0949-0.0137l-0.0678,0.1359h0.0814l-0.0984,0.2153l-0.0509,0.1104
			l0.0541,0.1084L48.9049,32.4725L48.9049,32.4725z"/>
		<g>
			<path d="M48.6817,33.3575l0.0428,0.0385c0.0058-0.006,0.14-0.149,0.3653,0.0413l0.0373-0.0443
				C48.8577,33.1652,48.6829,33.3555,48.6817,33.3575z"/>
			<path d="M48.6161,32.6187l-0.0088,0.0522c0,0,0.0775-0.033,0.1046-0.0447c-0.0168,0.0299-0.0719,0.1259-0.0719,0.1259
				s0.1139-0.0378,0.1561-0.0519c-0.0681,0.0892-0.1936,0.2533-0.1936,0.2533l0.0461,0.0356l0.308-0.4034
				c0,0-0.1418,0.0474-0.1913,0.0639c0.02-0.0347,0.0821-0.1444,0.0821-0.1444s-0.1256,0.054-0.1655,0.0711
				c0.011-0.0669,0.0342-0.207,0.0342-0.207l-0.0573-0.0096L48.6161,32.6187L48.6161,32.6187z"/>
			<path d="M48.3288,32.6353c0,0,0.038,0.0842,0.0666,0.1468c-0.0124-0.0051-0.1062-0.0427-0.1062-0.0427l0.3132,0.5541
				c0,0,0.0378-0.0483,0.0401-0.0513c-0.0315,0.0809-0.0631,0.1625-0.0631,0.1625l0.0541,0.0211l0.135-0.3473l-0.0498-0.0283
				c0,0-0.0741,0.0949-0.1087,0.1392c-0.0293-0.0521-0.1377-0.2439-0.1891-0.3345c0.0065,0.0024,0.0869,0.0348,0.0869,0.0348
				s-0.0591-0.1305-0.0867-0.1911c0.0366,0.0228,0.1174,0.0734,0.1174,0.0734v-0.2065h-0.0579v0.1021
				c-0.045-0.0281-0.1917-0.1197-0.1917-0.1197L48.3288,32.6353L48.3288,32.6353z"/>
			<path d="M48.1315,33.3309l0.0231,0.0531c0.0848-0.0363,0.1547-0.0423,0.2077-0.017c0.0621,0.0298,0.0809,0.0938,0.0811,0.0944
				l0.0558-0.015c-0.0008-0.0037-0.0253-0.0899-0.1111-0.1312C48.3196,33.2821,48.2331,33.2873,48.1315,33.3309z"/>
			
				<rect x="48.3505" y="33.6079" transform="matrix(0.9879 -0.1549 0.1549 0.9879 -4.6458 7.9017)" width="0.0581" height="0.3072"/>
			
				<rect x="48.7513" y="33.6205" transform="matrix(0.9487 -0.3163 0.3163 0.9487 -8.1682 17.1609)" width="0.0581" height="0.2444"/>
			<rect x="48.9145" y="33.797" transform="matrix(0.97 -0.2432 0.2432 0.97 -6.7789 12.921)" width="0.0581" height="0.2388"/>
		</g>
	</g>
	<g id="dove">
		<g>
			<path class="st16" d="M37.3581,41.0028c0,0-0.2545-0.1156-0.3704-0.031c-0.1158,0.0851-0.1,0.2083-0.2004,0.2006
				c0,0,0.3856,0.0849,0.4703-0.0156c0.0848-0.0999,0.1004-0.131,0.1004-0.131"/>
			<path class="st16" d="M37.4049,41.1094c0,0-0.1675,0.2239-0.1096,0.355c0.0577,0.1313,0.1816,0.1425,0.1523,0.2388
				c0,0,0.1657-0.3582,0.0862-0.4627c-0.0796-0.1039-0.1062-0.1256-0.1062-0.1256"/>
			<path class="st16" d="M37.1226,40.4894c0,0-0.2672,0.0829-0.2971,0.2229c-0.0307,0.1402,0.0633,0.2223-0.0168,0.2831
				c0,0,0.3443-0.193,0.3412-0.3245c-0.0033-0.1313-0.0118-0.1644-0.0118-0.1644"/>
			<path class="st16" d="M37.2796,40.5816c0,0,0.1267-0.2496,0.0469-0.3685c-0.0796-0.1198-0.2039-0.1095-0.1917-0.2091
				c0,0-0.1018,0.3813-0.0053,0.4707c0.0967,0.0886,0.1269,0.1057,0.1269,0.1057"/>
			<path class="st16" d="M37.0175,40.4909c0,0,0.0061-0.2791-0.1175-0.352c-0.1235-0.0731-0.2311-0.0102-0.2634-0.1057
				c0,0,0.0739,0.3881,0.1997,0.4269c0.1257,0.0378,0.1604,0.0401,0.1604,0.0401"/>
			<path class="st16" d="M37.474,40.956c0,0,0.2929-0.1006,0.3163,0.2159c0.0231,0.3162-0.0156,0.2083-0.0156,0.2083
				s-0.1542-0.3393-0.3238-0.3934L37.474,40.956z"/>
		</g>
		<g>
			<path d="M37.3999,41.1145c0,0.0067,0.0307,0.2458,0.0307,0.2458l0.0412-0.0053l-0.031-0.2392
				c0.001,0.0003,0.1002-0.5257,0.1002-0.5257L37.5,40.5826L37.3999,41.1145L37.3999,41.1145z"/>
			<path d="M37.1334,41.0367l-0.0136,0.0391c0.1401,0.0493,0.3356-0.1047,0.3437-0.1112l-0.0259-0.0322
				C37.4359,40.9335,37.252,41.0788,37.1334,41.0367L37.1334,41.0367z"/>
			
				<rect x="37.1569" y="40.1692" transform="matrix(0.4514 -0.8923 0.8923 0.4514 -15.7715 55.4195)" width="0.0579" height="0.7346"/>
			
				<rect x="36.9778" y="40.5388" transform="matrix(0.7075 -0.7067 0.7067 0.7075 -17.8266 38.0638)" width="0.1854" height="0.0577"/>
			
				<rect x="37.1827" y="40.2616" transform="matrix(0.9081 -0.4188 0.4188 0.9081 -13.5102 19.2999)" width="0.0578" height="0.3315"/>
			<path d="M37.4488,40.9582l0.0037,0.0579c0.1783-0.0121,0.2218,0.1034,0.2221,0.1046l0.0569-0.0118
				C37.7247,41.0759,37.6534,40.9445,37.4488,40.9582L37.4488,40.9582z"/>
		</g>
		<path class="st20" d="M40.456,41.0914c0.2185-0.1224,0.2623-0.5514,0.2623-0.5514c-0.0523,0.1578-0.4544,0.3151-0.4544,0.3151
			c0.2972-0.1841,0.6554-1.0142,0.6554-1.0142c-0.0961,0.2973-0.8741,0.542-1.3726,0.8217
			c-0.4985,0.2796-0.2361,1.0843-0.2361,1.0843c-0.1397-0.0963-0.4109-0.5244-0.4632-0.9008
			c-0.0528-0.3758-0.2013-0.5243-0.5423-0.5681c-0.3412-0.0438-0.5421,0.3407-0.5421,0.3407l-0.507,0.2626l0.5155,0.0173
			c0,0,0.3677,0.1227,0.3677,0.4111c0,0.2887-0.3235,1.4427,0.2095,2.0899c0.371,0.4497,1.7402,0.7081,1.7402,0.7081"/>
		<path class="st20" d="M39.4507,41.9829c0,0,0.1049-0.516,0.4459-0.4984c0.341,0.0175,0.4372-0.3845,0.6382-0.4459
			c0.2011-0.0611,1.2416-0.3407,1.3553-0.8394c0,0-0.0962,0.8221-1.049,1.233c0,0,0.7691-0.2537,0.8568-0.4199
			c0,0-0.3412,0.7345-1.1717,0.8481c0,0,0.7781-0.0611,0.8918-0.2708c0,0-0.3498,0.4633-0.9267,0.5246
			c0,0,0.5332,0.2185,0.6732,0.0348c0,0-0.2886,0.341-0.6472,0.367l0.0964,0.0264c0,0-0.341,0.4023-0.717,0.1312
			c-0.3758-0.2712-0.3848,0.0702-0.3848,0.0702"/>
		<path class="st20" d="M40.227,42.7606c0,0,0.4391,0.7346,0.483,1.128c0,0,0.8395,0.9269,1.1542,0.979
			c0,0-0.1487,0.0611-0.4199-0.166c0,0,0.2274,0.2361,0.2712,0.2449c0.0435,0.009-0.1837-0.0175-0.2188-0.0789
			c0,0,0.0964,0.1402,0.1574,0.1577c0.0614,0.0175-0.0611-0.0175-0.0611-0.0175s-0.1139-0.0175-0.1663-0.0614
			c-0.0525-0.0436-0.0175,0.1135-0.0175,0.1135s-0.1312-0.035-0.1747-0.0786c-0.0438-0.0435,0.0175,0.0964,0.0175,0.0964
			l-0.1136-0.0264l-0.0786,0.0523c0,0-0.0088,0.0525-0.0616,0.0088c-0.0521-0.0433-0.1485,0-0.1485,0s-0.0702,0.0614-0.1049,0.0175
			c-0.0347-0.0436-0.1673,0.1682-0.1673,0.1682l-0.5505-1.3289"/>
		<g>
			
				<rect x="40.3968" y="43.7419" transform="matrix(0.8853 -0.4651 0.4651 0.8853 -16.0519 23.9115)" width="0.0825" height="1.4961"/>
			
				<rect x="40.7516" y="43.4945" transform="matrix(0.7458 -0.6661 0.6661 0.7458 -19.2001 38.4554)" width="0.0829" height="1.7871"/>
			
				<rect x="40.9365" y="43.3729" transform="matrix(0.6818 -0.7316 0.7316 0.6818 -19.369 44.0761)" width="0.0827" height="1.8569"/>
		</g>
		<g>
			<path d="M38.2244,40.7004c0,0-0.0887-0.1587-0.1658-0.0991c-0.077,0.0595-0.1213,0.0703-0.1346,0.0662
				c0,0,0.0774,0.0042,0.1214-0.0376C38.0895,40.5877,38.1646,40.6143,38.2244,40.7004L38.2244,40.7004z"/>
			<path d="M37.7448,40.6277c0,0,0.0486,0.1007,0.0493,0.1024c-0.0049,0.0003-0.055,0.1625-0.055,0.1625l0.0398,0.0123l0.054-0.1767
				c-0.0009-0.0153-0.0506-0.1182-0.0506-0.1182L37.7448,40.6277L37.7448,40.6277z"/>
			<path d="M38.2042,40.6759c0,0-0.0661,0.0774-0.1567,0.0551c-0.0902-0.022-0.0902-0.022-0.0902-0.022s0.0768,0.0043,0.1279,0.0067
				C38.1357,40.7178,38.2018,40.6915,38.2042,40.6759z"/>
			<path d="M38.1826,40.6918c0,0-0.0815-0.0861-0.1368-0.0618c0,0,0.0972-0.031,0.1523,0.0525L38.1826,40.6918z"/>
			<path d="M38.1689,40.6759c0,0-0.0926,0.0639-0.1943-0.0065l-0.0062-0.0048l0.0132-0.0042
				C37.9817,40.6605,38.1096,40.7133,38.1689,40.6759z"/>
			<circle cx="38.0899" cy="40.6603" r="0.0276"/>
		</g>
		<path d="M38.1646,43.1027c0,0-0.0717,0.132-0.0342,0.2116c0.038,0.0794,0.2082,0.1206,0.2308,0.2266
			c0.0228,0.1062,0.0796,0.1059,0.159,0.0912c0.0796-0.0153,0.0946-0.019,0.0946-0.019s-0.333-0.1781-0.4201-0.4652L38.1646,43.1027
			z"/>
	</g>
	<g id="bananas">
		<g>
			<path class="st21" d="M48.9287,40.4131c0,0,0.6062-0.7992,1.1437-0.5893c0.5376,0.2101,0.8869,0.3112,0.8869,0.3112
				s0.0102,0.5383-0.2757,0.5383c-0.2852,0-0.5586-0.5376-0.8185-0.3778c-0.2604,0.1595-0.4741,0.3781-0.491,0.4534
				C49.3573,40.8242,48.6856,40.8412,48.9287,40.4131L48.9287,40.4131z"/>
			<path class="st17" d="M46.628,44.2671c0,0-0.1676,0.176-0.092,0.2183c0.0759,0.0418,0.2266-0.0088,0.2266-0.0673
				C46.7624,44.3589,46.662,44.2503,46.628,44.2671L46.628,44.2671z"/>
			<path class="st17" d="M46.494,44.4348c0,0-0.3105-0.1768-0.5541,0.2431c-0.2439,0.4198-0.4451,1.1001-0.5879,1.1926
				c-0.1427,0.0923,1.3855-0.6718,1.4024-0.9908c0,0,0.1006-0.4116-0.0588-0.4034C46.5361,44.4851,46.5276,44.502,46.494,44.4348
				L46.494,44.4348z"/>
			<path class="st21" d="M46.5358,44.4853c0,0-0.3189,0.0751-0.3861,0.5283c-0.0671,0.4539-0.5123,0.6888-0.5374,0.7055"/>
			<path class="st21" d="M50.9601,40.1351c0,0-0.4852,0.1688-0.4014,0.5048"/>
		</g>
		<path class="st22" d="M47.2328,41.1181c0,0,0.0167-1.1504,0.9566-1.1001c0.1781,0.0165,0.0932,0.2266,0.0932,0.2266
			s0.2033-0.1424,0.2962,0.0839c0,0,0.2965-0.1342,0.3302,0.1598c0,0,0.3218-0.0418,0.2794,0.2183c0,0,0.2201-0.0503,0.2119,0.1345
			c0,0,0.2539-0.1008,0.2283,0.1595c0,0,0.2795-0.1847,0.2374,0.151c0,0,0.2879-0.2013,0.3891,0.1345
			c0.1016,0.3357-0.2877,1.0495-0.6687,1.2341"/>
		<g>
			<path d="M49.8446,41.1879c0.0013,0.009,0.1267,0.9-0.3786,1.226l0.0178,0.0281c0.5235-0.3378,0.3947-1.2498,0.3936-1.259
				L49.8446,41.1879L49.8446,41.1879z"/>
			<path d="M49.2362,42.1637l0.0233,0.0238c0.32-0.3114,0.3889-1.1504,0.3913-1.1859l-0.0327-0.0028
				C49.6172,41.0075,49.5477,41.861,49.2362,42.1637L49.2362,42.1637z"/>
			<path d="M48.9373,41.9642l0.033,0.0027c0.0411-0.5181,0.4461-1.1108,0.4505-1.1168l-0.0273-0.0186
				C49.3893,40.8374,48.9793,41.4373,48.9373,41.9642L48.9373,41.9642z"/>
			<path d="M48.7026,41.813l0.033,0.0033c0.0576-0.625,0.4704-1.0943,0.4745-1.0987l-0.0245-0.0221
				C49.1812,40.7,48.7613,41.177,48.7026,41.813L48.7026,41.813z"/>
			<path d="M48.3749,41.6041l0.033,0.0012c0.0328-0.738,0.517-1.1003,0.5218-1.1038l-0.0196-0.0268
				C48.9055,40.4784,48.4084,40.8492,48.3749,41.6041L48.3749,41.6041z"/>
			<path d="M48.0725,41.4205l0.0333-0.001c-0.0242-0.6717,0.4922-1.0738,0.4976-1.0779l-0.02-0.0263
				C48.578,40.3196,48.0479,40.7315,48.0725,41.4205L48.0725,41.4205z"/>
			<path d="M47.5274,41.175l0.0327,0.0041c0.09-0.7271,0.7371-0.9163,0.7436-0.9181l-0.009-0.0318
				C48.2882,40.2308,47.6197,40.4256,47.5274,41.175L47.5274,41.175z"/>
		</g>
		<path class="st23" d="M46.6784,42.5122c0,0-0.1593-1.0667,0.4787-1.4022c0,0,0.1179-0.0253,0.1847,0.1259
			c0,0,0.3361-0.1427,0.3445,0.1424c0,0,0.1677-0.1342,0.2098,0.0504c0,0,0.361-0.0754,0.2939,0.1932
			c0,0,0.3022-0.0839,0.277,0.1761c0,0,0.3024-0.1091,0.2518,0.1177c0,0,0.3189-0.0754,0.2436,0.1848
			c0,0,0.3948-0.0418,0.2772,0.2351c0,0,0.2939-0.0754,0.2266,0.1512c0,0,0.3863,0.0673,0.2098,0.3107
			c-0.1763,0.2432-0.6214,0.6127-1.0575,0.7722"/>
		<path class="st23" d="M46.3342,43.5866c0,0-0.2604-0.8897,0.2354-1.1168c0,0,0.0919-0.0253,0.1087,0.0673
			c0,0,0.1094-0.1429,0.1935-0.0168c0,0,0.2516-0.1176,0.3107,0.0671c0,0,0.1677-0.1429,0.2519,0.0668
			c0,0,0.1595-0.0668,0.1595,0.1009c0,0,0.2183-0.0924,0.2183,0.1092c0,0,0.2095-0.0839,0.1677,0.1427
			c0,0,0.3192,0.0503,0.2268,0.2014c0,0,0.2859,0.0753,0.1763,0.1932c0,0,0.3105-0.0335,0.1427,0.1763
			c0,0,0.2351-0.0753,0.1009,0.1851c-0.1345,0.2601-0.5541,0.5455-0.848,0.579"/>
		<path class="st23" d="M46.6445,44.2915c0,0-0.5541-0.5373-0.2935-0.6967c0,0,0.1171,0.0333,0.1593,0.151
			c0,0,0.1342-0.193,0.2101,0.0083c0,0,0.2016-0.0671,0.2016,0.0676l0.1593,0.1176c0,0,0.185-0.0169,0.1515,0.1007
			c0,0,0.2015-0.0253,0.193,0.0839c0,0,0.1765,0.0083,0.1598,0.1256c0,0,0.3019,0.0504,0.1677,0.2019
			c0,0-0.529,0.1089-0.8983-0.0421C46.8549,44.4092,46.6613,44.3418,46.6445,44.2915L46.6445,44.2915z"/>
		<g>
			<path d="M48.5449,43.4037l0.0118,0.0308c0.3283-0.1264,0.8985-0.9047,0.9229-0.9379l-0.0268-0.0198
				C49.4467,42.4852,48.8642,43.2807,48.5449,43.4037L48.5449,43.4037z"/>
			<path d="M48.3584,43.2618l0.0161,0.0288c0.2857-0.1593,0.8545-0.9128,0.8785-0.9448l-0.0264-0.02
				C49.2209,42.3338,48.638,43.1059,48.3584,43.2618L48.3584,43.2618z"/>
			<path d="M48.1963,43.1956l0.0213,0.0253c0.3017-0.2504,0.7411-1.0777,0.7598-1.1127l-0.0293-0.0156
				C48.9438,42.1011,48.4931,42.9492,48.1963,43.1956L48.1963,43.1956z"/>
			<path d="M48.048,43.0047l0.0328,0.0046c0.0573-0.4181,0.6447-1.0763,0.6504-1.0828l-0.0245-0.0221
				C48.6824,41.9317,48.1066,42.5767,48.048,43.0047L48.048,43.0047z"/>
			<path d="M46.8721,42.4963l0.0331-0.0029c-0.0493-0.5906,0.4451-1.2412,0.4501-1.2477l-0.0263-0.02
				C47.3237,41.2321,46.8218,41.8926,46.8721,42.4963z"/>
			<path d="M47.1832,42.5482l0.0328-0.0057c-0.0818-0.4736,0.4774-1.147,0.4832-1.1536l-0.0253-0.0215
				C47.6504,41.3954,47.099,42.059,47.1832,42.5482L47.1832,42.5482z"/>
			<path d="M47.6613,42.7225l0.0331-0.001c-0.0162-0.5406,0.5024-1.0825,0.5078-1.088l-0.0238-0.0231
				C48.1731,41.616,47.6444,42.168,47.6613,42.7225L47.6613,42.7225z"/>
			<path d="M46.5207,43.7018l0.031-0.0116c-0.1884-0.4995,0.1386-1.1391,0.142-1.1453l-0.0298-0.0153
				C46.6606,42.5362,46.327,43.1884,46.5207,43.7018L46.5207,43.7018z"/>
			<path d="M46.7381,43.7342l0.0315-0.0102c-0.1643-0.5088,0.1142-1.1907,0.1171-1.1974l-0.0308-0.0127
				C46.8533,42.5206,46.5704,43.2139,46.7381,43.7342L46.7381,43.7342z"/>
			<path d="M47.6383,44.2426l0.0113,0.0313c0.5358-0.1927,0.8861-0.6813,0.8895-0.6859l-0.027-0.0194
				C48.5088,43.5734,48.1646,44.0538,47.6383,44.2426L47.6383,44.2426z"/>
			<path d="M47.5281,44.1259l0.0135,0.0303c0.4273-0.1928,0.8257-0.7306,0.8295-0.7362l-0.0265-0.0194
				C48.3405,43.4061,47.9474,43.9367,47.5281,44.1259L47.5281,44.1259z"/>
			<path d="M47.4244,44.0856l0.0194,0.0269c0.3342-0.2421,0.7636-0.8628,0.7681-0.8692l-0.0272-0.0185
				C48.1802,43.2311,47.7542,43.8468,47.4244,44.0856L47.4244,44.0856z"/>
			<path d="M46.8886,43.7738l0.0328-0.0048c-0.0739-0.5339,0.2717-1.1671,0.2754-1.1734l-0.029-0.0161
				C47.1641,42.5861,46.8133,43.229,46.8886,43.7738L46.8886,43.7738z"/>
			<path d="M47.1212,43.9185l0.0223,0.0245c0.3448-0.3113,0.4622-1.1501,0.467-1.1856l-0.0328-0.0046
				C47.5766,42.7614,47.4572,43.6156,47.1212,43.9185L47.1212,43.9185z"/>
			<path d="M47.3574,44.0179l0.0194,0.0268c0.4867-0.352,0.6186-1.0279,0.6197-1.0344l-0.0323-0.0062
				C47.9628,43.0105,47.8334,43.6734,47.3574,44.0179L47.3574,44.0179z"/>
			<path d="M47.4136,42.5611c0,0.0315,0.0016,0.063,0.0045,0.0949c-0.0005-0.0027-0.3691,1.1941-0.3691,1.1941l0.0315,0.0098
				l0.37-1.2007c-0.0571-0.5804,0.4534-1.214,0.4584-1.2202l-0.0255-0.0207C47.8784,41.424,47.4136,42.001,47.4136,42.5611
				L47.4136,42.5611z"/>
			<path d="M47.7996,42.8535c-0.0048,0.0168-0.1172,0.8366-0.5593,1.1391l0.0187,0.0273c0.4547-0.311,0.5651-1.1193,0.5696-1.1535
				c0.1962-0.2336,0.6484-1.0524,0.653-1.0606l-0.029-0.016C48.448,41.7981,47.9976,42.6144,47.7996,42.8535L47.7996,42.8535z"/>
			<path d="M46.494,43.7493c0.0033,0.0172,0.0772,0.4245,0.1618,0.5682l0.0285-0.0167c-0.0818-0.1387-0.1567-0.553-0.1574-0.5574
				L46.494,43.7493L46.494,43.7493z"/>
			<path d="M46.7036,43.7544c0.0035,0.2028,0.0046,0.5355-0.0067,0.565l0.0308,0.0121c0.017-0.0426,0.0105-0.4885,0.0092-0.5774
				L46.7036,43.7544L46.7036,43.7544z"/>
			<path d="M46.7223,44.3355l0.0301,0.0135c0.142-0.3089,0.1857-0.522,0.1862-0.524l-0.0325-0.0065
				C46.9056,43.8202,46.8627,44.0303,46.7223,44.3355z"/>
			<path d="M46.754,44.3448l0.0168,0.0285c0.2634-0.153,0.3245-0.4192,0.3266-0.4303l-0.0322-0.0073
				C47.0644,43.9384,47.0046,44.1994,46.754,44.3448L46.754,44.3448z"/>
			<path d="M46.8029,44.3679l0.0033,0.0327c0.2581-0.0258,0.4339-0.3393,0.4414-0.3525l-0.0291-0.0161
				C47.2168,44.0354,47.0436,44.3438,46.8029,44.3679L46.8029,44.3679z"/>
			<path d="M46.8289,44.3844l0.002,0.033c0.4143-0.0255,0.6008-0.2732,0.6083-0.2836l-0.0268-0.0196
				C47.4107,44.1166,47.2269,44.3602,46.8289,44.3844L46.8289,44.3844z"/>
			<path d="M46.8584,44.3931l-0.0067,0.0323c0.0223,0.0051,0.5503,0.117,0.731-0.1582l-0.0277-0.0181
				C47.3869,44.5053,46.8636,44.3941,46.8584,44.3931L46.8584,44.3931z"/>
		</g>
	</g>
	<path class="st24" d="M35.0099,25.0814V39.85c0,4.8304,8.7276,7.6986,8.7276,7.6986s8.7276-2.8684,8.7276-7.6986V25.0814H35.0099z"
		/>
</g>
</svg>
