<?xml version="1.0" encoding="utf-8"?>
<!-- Generator: Adobe Illustrator 21.1.0, SVG Export Plug-In . SVG Version: 6.00 Build 0)  -->
<svg version="1.1" id="Layer_1" xmlns="http://www.w3.org/2000/svg" xmlns:xlink="http://www.w3.org/1999/xlink" x="0px" y="0px"
	 viewBox="0 0 60 60" style="enable-background:new 0 0 60 60;" xml:space="preserve">
<style type="text/css">
	.st0{clip-path:url(#SVGID_2_);fill:#00247D;}
	.st1{fill:none;}
	.st2{clip-path:url(#SVGID_4_);fill:none;}
	.st3{clip-path:url(#SVGID_6_);fill:none;}
	.st4{clip-path:url(#SVGID_8_);fill:#00247D;}
	.st5{clip-path:url(#SVGID_10_);fill:#FFFFFF;}
	.st6{clip-path:url(#SVGID_12_);fill:#FFFFFF;}
	.st7{clip-path:url(#SVGID_14_);fill:#CF142B;}
	.st8{clip-path:url(#SVGID_16_);fill:#CF142B;}
	.st9{fill:url(#SVGID_17_);stroke:#FFFFFF;stroke-width:0.7457;stroke-linejoin:bevel;}
	.st10{fill:url(#SVGID_18_);stroke:#FFFFFF;stroke-width:0.7457;stroke-linejoin:bevel;}
	.st11{fill:url(#SVGID_19_);stroke:#FFFFFF;stroke-width:0.7457;stroke-linejoin:bevel;}
	.st12{fill:url(#SVGID_20_);stroke:#FFFFFF;stroke-width:0.7457;stroke-linejoin:bevel;}
	.st13{fill:url(#SVGID_21_);stroke:#FFFFFF;stroke-width:0.7457;stroke-linejoin:bevel;}
	.st14{fill:url(#SVGID_22_);stroke:#FFFFFF;stroke-width:0.7457;stroke-linejoin:bevel;}
	.st15{fill:url(#SVGID_23_);stroke:#FFFFFF;stroke-width:0.7457;stroke-linejoin:bevel;}
	.st16{fill:url(#SVGID_24_);stroke:#FFFFFF;stroke-width:0.7457;stroke-linejoin:bevel;}
	.st17{fill:url(#SVGID_25_);stroke:#FFFFFF;stroke-width:0.7457;stroke-linejoin:bevel;}
	.st18{fill:url(#SVGID_26_);stroke:#000000;stroke-width:0.1119;stroke-linejoin:bevel;}
	.st19{fill:url(#SVGID_27_);stroke:#000000;stroke-width:0.1119;stroke-linejoin:bevel;}
	.st20{fill:url(#SVGID_28_);stroke:#000000;stroke-width:0.1119;stroke-linejoin:bevel;}
	.st21{fill:url(#SVGID_29_);stroke:#000000;stroke-width:0.1119;stroke-linejoin:bevel;}
	.st22{fill:url(#SVGID_30_);stroke:#000000;stroke-width:0.1119;stroke-linejoin:bevel;}
	.st23{fill:url(#SVGID_31_);stroke:#000000;stroke-width:0.1119;stroke-linejoin:bevel;}
	.st24{fill:url(#SVGID_32_);stroke:#000000;stroke-width:0.1119;stroke-linejoin:bevel;}
	.st25{fill:url(#SVGID_33_);stroke:#000000;stroke-width:0.1119;stroke-linejoin:bevel;}
	.st26{fill:url(#SVGID_34_);stroke:#000000;stroke-width:0.1119;stroke-linejoin:bevel;}
	.st27{fill:#0072C4;stroke:#FFFFFF;stroke-width:0.3729;}
	.st28{fill:#BCBCBC;}
	.st29{fill:#FEFEFE;}
	.st30{fill:#C4C4C2;stroke:#000000;stroke-width:0.0844;}
	.st31{fill:#005121;stroke:#002B0E;stroke-width:0.1205;}
	.st32{fill:#FFFFFF;}
	.st33{fill:none;stroke:#522108;stroke-width:0.0458;}
	.st34{fill:none;stroke:#522108;stroke-width:0.0467;}
	.st35{fill:#DD8B59;stroke:#522108;stroke-width:0.0458;}
	.st36{fill:#FECF3E;stroke:#522108;stroke-width:0.0458;}
	.st37{fill:#B6B6B4;stroke:#522108;stroke-width:0.0458;}
	.st38{stroke:#522108;stroke-width:0.0295;}
	.st39{fill:#FF0101;stroke:#522108;stroke-width:0.0458;}
	.st40{fill:#BE1017;stroke:#522108;stroke-width:0.0361;}
</style>
<title>Flag of Barbados</title>
<title>Flag of Equatorial Guinea</title>
<g>
	<g>
		<g>
			<g>
				<defs>
					<circle id="SVGID_1_" cx="30" cy="30" r="30"/>
				</defs>
				<clipPath id="SVGID_2_">
					<use xlink:href="#SVGID_1_"  style="overflow:visible;"/>
				</clipPath>
				<rect id="rect2414_2_" x="-30.4259" y="-0.2126" class="st0" width="120.8518" height="60.4256"/>
			</g>
		</g>
	</g>
</g>
<circle class="st1" cx="30" cy="30" r="30"/>
<circle class="st1" cx="30" cy="30" r="30"/>
<circle class="st1" cx="30" cy="30" r="30"/>
<circle class="st1" cx="30" cy="30" r="30"/>
<circle class="st1" cx="30" cy="30" r="30"/>
<circle class="st1" cx="30" cy="30" r="30"/>
<circle class="st1" cx="30" cy="30" r="30"/>
<g>
	<g>
		<g>
			<g>
				<defs>
					<circle id="SVGID_3_" cx="30" cy="30" r="30"/>
				</defs>
				<clipPath id="SVGID_4_">
					<use xlink:href="#SVGID_3_"  style="overflow:visible;"/>
				</clipPath>
				<rect x="-45.6763" y="-1.4482" class="st2" width="106.7059" height="62.2446"/>
			</g>
		</g>
	</g>
</g>
<g>
	<g>
		<g>
			<g>
				<defs>
					<circle id="SVGID_5_" cx="30" cy="30" r="30"/>
				</defs>
				<clipPath id="SVGID_6_">
					<use xlink:href="#SVGID_5_"  style="overflow:visible;"/>
				</clipPath>
				<rect x="-45.6763" y="-1.4482" class="st3" width="106.7059" height="62.2446"/>
			</g>
		</g>
	</g>
</g>
<g>
	<circle class="st1" cx="30" cy="30" r="30"/>
	<circle class="st1" cx="30" cy="30" r="30"/>
	<circle class="st1" cx="30" cy="30" r="30"/>
	<circle class="st1" cx="30" cy="30" r="30"/>
	<circle class="st1" cx="30" cy="30" r="30"/>
</g>
<g>
	<g>
		<g>
			<g>
				<g>
					<defs>
						<circle id="SVGID_7_" cx="30" cy="30" r="30"/>
					</defs>
					<clipPath id="SVGID_8_">
						<use xlink:href="#SVGID_7_"  style="overflow:visible;"/>
					</clipPath>
					<rect id="rect124_2_" x="-30.4259" y="-0.2126" class="st4" width="60.4259" height="30.2127"/>
				</g>
			</g>
		</g>
	</g>
</g>
<g>
	<g>
		<g>
			<g>
				<g>
					<defs>
						<circle id="SVGID_9_" cx="30" cy="30" r="30"/>
					</defs>
					<clipPath id="SVGID_10_">
						<use xlink:href="#SVGID_9_"  style="overflow:visible;"/>
					</clipPath>
					<path id="path146_2_" class="st5" d="M-30.4259-0.2126v3.3771L23.2445,30H30v-3.3775L-23.6704-0.2126H-30.4259z M30-0.2126
						v3.3771L-23.6704,30h-6.7555v-3.3775L23.2445-0.2126H30z"/>
				</g>
			</g>
		</g>
	</g>
</g>
<g>
	<g>
		<g>
			<g>
				<g>
					<defs>
						<circle id="SVGID_11_" cx="30" cy="30" r="30"/>
					</defs>
					<clipPath id="SVGID_12_">
						<use xlink:href="#SVGID_11_"  style="overflow:visible;"/>
					</clipPath>
					<path id="path136_2_" class="st6" d="M-5.2483-0.2126v30.2127h10.071V-0.2126H-5.2483z M-30.4259,9.8578v10.0709H30V9.8578
						H-30.4259z"/>
				</g>
			</g>
		</g>
	</g>
</g>
<g>
	<g>
		<g>
			<g>
				<g>
					<defs>
						<circle id="SVGID_13_" cx="30" cy="30" r="30"/>
					</defs>
					<clipPath id="SVGID_14_">
						<use xlink:href="#SVGID_13_"  style="overflow:visible;"/>
					</clipPath>
					<path id="path141_2_" class="st7" d="M-30.4259,11.8722v6.0424H30v-6.0424H-30.4259z M-3.234-0.2126v30.2127h6.0422V-0.2126
						H-3.234z"/>
				</g>
			</g>
		</g>
	</g>
</g>
<g>
	<g>
		<g>
			<g>
				<g>
					<defs>
						<circle id="SVGID_15_" cx="30" cy="30" r="30"/>
					</defs>
					<clipPath id="SVGID_16_">
						<use xlink:href="#SVGID_15_"  style="overflow:visible;"/>
					</clipPath>
					<path id="path150_2_" class="st8" d="M-30.4259,30.0001l20.1421-10.0714h4.5037l-20.1418,10.0714H-30.4259z M-30.4259-0.2126
						l20.1421,10.0704h-4.5037l-15.6384-7.8185V-0.2126z M5.3542,9.8578L25.4963-0.2126H30L9.8579,9.8578H5.3542z M30,30.0001
						L9.8579,19.9286h4.504L30,27.748V30.0001z"/>
				</g>
			</g>
		</g>
	</g>
</g>
<g>
	<g>
		<g id="scroll">
			
				<linearGradient id="SVGID_17_" gradientUnits="userSpaceOnUse" x1="40.3305" y1="22.2012" x2="37.8245" y2="23.6815" gradientTransform="matrix(1 0 0 -1 0 62)">
				<stop  offset="0" style="stop-color:#A43907;stop-opacity:0.9961"/>
				<stop  offset="1" style="stop-color:#FFFFFF"/>
			</linearGradient>
			<path class="st9" d="M40.2669,40.3913c0,0-0.5304-0.8628-0.9725-0.8012c-0.442,0.0616-0.8546,0.6163-0.8841,0.647
				c-0.0294,0.0309-0.6777-0.7087-0.6483-0.7395c0.0295-0.0308,0.6778-1.6331,1.0315-1.6947
				c0.3536-0.0616,1.1171,0.1179,1.1171,0.1795C39.9106,38.0441,40.2669,40.3913,40.2669,40.3913L40.2669,40.3913z"/>
			
				<linearGradient id="SVGID_18_" gradientUnits="userSpaceOnUse" x1="41.7351" y1="20.5902" x2="36.2333" y2="21.6089" gradientTransform="matrix(1 0 0 -1 0 62)">
				<stop  offset="0" style="stop-color:#A43907;stop-opacity:0.9961"/>
				<stop  offset="1" style="stop-color:#FFFFFF"/>
			</linearGradient>
			<path class="st10" d="M41.4457,39.4669c0,0.0616-0.1768,2.3419-0.943,3.1431c-0.7662,0.8012-2.0039,1.2942-2.446,1.1709
				c-0.442-0.1233-1.4439-2.4343-1.4439-2.4343s1.0609,1.1093,1.8565,0.9244c0.7957-0.1849,1.2672-1.5716,1.4145-2.2495
				c0.1474-0.6779,0.0295-2.003,0.0295-2.003L41.4457,39.4669L41.4457,39.4669z"/>
			
				<linearGradient id="SVGID_19_" gradientUnits="userSpaceOnUse" x1="52.0782" y1="23.0283" x2="49.5161" y2="22.879" gradientTransform="matrix(1 0 0 -1 0 62)">
				<stop  offset="0" style="stop-color:#A43907;stop-opacity:0.9961"/>
				<stop  offset="1" style="stop-color:#FFFFFF"/>
			</linearGradient>
			<path class="st11" d="M49.4096,40.3913c0,0,0.5304-0.8628,0.9725-0.8012c0.442,0.0616,0.8546,0.6163,0.8841,0.647
				c0.0294,0.0309,0.6777-0.7087,0.6483-0.7395c-0.0295-0.0308-0.6778-1.6331-1.0315-1.6947
				c-0.3536-0.0616-1.1171,0.1179-1.1171,0.1795C49.7659,38.0441,49.4096,40.3913,49.4096,40.3913L49.4096,40.3913z"/>
			
				<linearGradient id="SVGID_20_" gradientUnits="userSpaceOnUse" x1="53.1831" y1="21.3078" x2="47.75" y2="20.8463" gradientTransform="matrix(1 0 0 -1 0 62)">
				<stop  offset="0" style="stop-color:#A43907;stop-opacity:0.9961"/>
				<stop  offset="1" style="stop-color:#FFFFFF"/>
			</linearGradient>
			<path class="st12" d="M48.2309,39.4669c0,0.0616,0.1768,2.3419,0.943,3.1431c0.7662,0.8012,2.0039,1.2942,2.446,1.1709
				c0.442-0.1233,1.4439-2.4343,1.4439-2.4343s-1.0609,1.1093-1.8565,0.9244c-0.7957-0.1849-1.2672-1.5716-1.4145-2.2495
				c-0.1474-0.6779-0.0295-2.003-0.0295-2.003L48.2309,39.4669L48.2309,39.4669z"/>
			
				<linearGradient id="SVGID_21_" gradientUnits="userSpaceOnUse" x1="52.4981" y1="20.5276" x2="37.1775" y2="20.5276" gradientTransform="matrix(1 0 0 -1 0 62)">
				<stop  offset="0" style="stop-color:#A43907;stop-opacity:0.9961"/>
				<stop  offset="1" style="stop-color:#FFFFFF"/>
			</linearGradient>
			<path class="st13" d="M37.9363,39.1328c-0.3536,0.4314-0.5424,0.7648-0.6898,1.0114c-0.1473,0.2465-0.0607,0.5896,0.2796,1.0789
				c0.3669,0.5274,3.3835,2.589,7.3126,2.589c3.929,0,6.9456-2.0616,7.3126-2.589c0.3403-0.4894,0.4246-0.8324,0.2773-1.0789
				c-0.1473-0.2465-0.3338-0.58-0.6874-1.0114c0,0.647-2.499,2.9851-6.9024,2.9851S37.9363,39.7798,37.9363,39.1328z"/>
			
				<linearGradient id="SVGID_22_" gradientUnits="userSpaceOnUse" x1="37.593" y1="19.3812" x2="60.005" y2="19.1998" gradientTransform="matrix(1 0 0 -1 0 62)">
				<stop  offset="0" style="stop-color:#A43907;stop-opacity:0.9961"/>
				<stop  offset="1" style="stop-color:#FFFFFF"/>
			</linearGradient>
			<path class="st14" d="M51.5643,43.4367c0.0589-0.0924,0.6777-1.1709,0.6777-1.1709l-0.3393-0.2503
				c-0.1042,0.3051-0.4858,0.4044-0.5448,0.7742S51.6233,43.5292,51.5643,43.4367L51.5643,43.4367z"/>
			
				<linearGradient id="SVGID_23_" gradientUnits="userSpaceOnUse" x1="53.0738" y1="20.2759" x2="51.26" y2="20.1674" gradientTransform="matrix(1 0 0 -1 0 62)">
				<stop  offset="0" style="stop-color:#A43907;stop-opacity:0.9961"/>
				<stop  offset="1" style="stop-color:#FFFFFF"/>
			</linearGradient>
			<path class="st15" d="M52.1795,43.103c0,0,0.1179-0.5238-0.2652-0.5854c-0.3831-0.0616-0.586,0.2932-0.5304,0.154
				c0.0617-0.1545,0.2947-0.3081,0.3241-0.8319c0.0295-0.5239-0.0294-0.8012-0.0294-0.8012s0.1473-0.678,0.7662-0.5855
				c0.6188,0.0925,0.6483,0.5855,0.6483,0.7704c0,0.1849-0.0589,0.2773-0.0589,0.2773L52.1795,43.103L52.1795,43.103z"/>
			
				<linearGradient id="SVGID_24_" gradientUnits="userSpaceOnUse" x1="37.1969" y1="19.3845" x2="38.9468" y2="19.1069" gradientTransform="matrix(1 0 0 -1 0 62)">
				<stop  offset="0" style="stop-color:#A43907;stop-opacity:0.9961"/>
				<stop  offset="1" style="stop-color:#FFFFFF"/>
			</linearGradient>
			<path class="st16" d="M38.112,43.4367c-0.059-0.0924-0.6778-1.1709-0.6778-1.1709l0.3393-0.2503
				c0.1042,0.3051,0.4858,0.4044,0.5448,0.7742S38.053,43.5292,38.112,43.4367L38.112,43.4367z"/>
			
				<linearGradient id="SVGID_25_" gradientUnits="userSpaceOnUse" x1="38.9555" y1="19.4185" x2="35.9808" y2="21.0695" gradientTransform="matrix(1 0 0 -1 0 62)">
				<stop  offset="0" style="stop-color:#A43907;stop-opacity:0.9961"/>
				<stop  offset="1" style="stop-color:#FFFFFF"/>
			</linearGradient>
			<path class="st17" d="M37.4968,43.103c0,0-0.1179-0.5238,0.2652-0.5854c0.3831-0.0616,0.586,0.2932,0.5304,0.154
				c-0.0616-0.1545-0.2947-0.3081-0.3241-0.8319c-0.0295-0.5239,0.0294-0.8012,0.0294-0.8012s-0.1473-0.678-0.7662-0.5855
				c-0.6188,0.0925-0.6483,0.5855-0.6483,0.7704c0,0.1849,0.0589,0.2773,0.0589,0.2773L37.4968,43.103L37.4968,43.103z"/>
		</g>
	</g>
	<g id="scroll_1_">
		
			<linearGradient id="SVGID_26_" gradientUnits="userSpaceOnUse" x1="40.3305" y1="22.2012" x2="37.8245" y2="23.6815" gradientTransform="matrix(1 0 0 -1 0 62)">
			<stop  offset="0" style="stop-color:#A43907;stop-opacity:0.9961"/>
			<stop  offset="1" style="stop-color:#FFFFFF"/>
		</linearGradient>
		<path class="st18" d="M40.2669,40.3913c0,0-0.5304-0.8628-0.9725-0.8012c-0.442,0.0616-0.8546,0.6163-0.8841,0.647
			c-0.0294,0.0309-0.6777-0.7087-0.6483-0.7395c0.0295-0.0308,0.6778-1.6331,1.0315-1.6947
			c0.3536-0.0616,1.1171,0.1179,1.1171,0.1795C39.9106,38.0441,40.2669,40.3913,40.2669,40.3913L40.2669,40.3913z"/>
		
			<linearGradient id="SVGID_27_" gradientUnits="userSpaceOnUse" x1="41.7351" y1="20.5902" x2="36.2333" y2="21.6089" gradientTransform="matrix(1 0 0 -1 0 62)">
			<stop  offset="0" style="stop-color:#A43907;stop-opacity:0.9961"/>
			<stop  offset="1" style="stop-color:#FFFFFF"/>
		</linearGradient>
		<path class="st19" d="M41.4457,39.4669c0,0.0616-0.1768,2.3419-0.943,3.1431c-0.7662,0.8012-2.0039,1.2942-2.446,1.1709
			c-0.442-0.1233-1.4439-2.4343-1.4439-2.4343s1.0609,1.1093,1.8565,0.9244c0.7957-0.1849,1.2672-1.5716,1.4145-2.2495
			c0.1474-0.6779,0.0295-2.003,0.0295-2.003L41.4457,39.4669L41.4457,39.4669z"/>
		
			<linearGradient id="SVGID_28_" gradientUnits="userSpaceOnUse" x1="52.0782" y1="23.0283" x2="49.5161" y2="22.879" gradientTransform="matrix(1 0 0 -1 0 62)">
			<stop  offset="0" style="stop-color:#A43907;stop-opacity:0.9961"/>
			<stop  offset="1" style="stop-color:#FFFFFF"/>
		</linearGradient>
		<path class="st20" d="M49.4096,40.3913c0,0,0.5304-0.8628,0.9725-0.8012c0.442,0.0616,0.8546,0.6163,0.8841,0.647
			c0.0294,0.0309,0.6777-0.7087,0.6483-0.7395c-0.0295-0.0308-0.6778-1.6331-1.0315-1.6947
			c-0.3536-0.0616-1.1171,0.1179-1.1171,0.1795C49.7659,38.0441,49.4096,40.3913,49.4096,40.3913L49.4096,40.3913z"/>
		
			<linearGradient id="SVGID_29_" gradientUnits="userSpaceOnUse" x1="53.1831" y1="21.3078" x2="47.75" y2="20.8463" gradientTransform="matrix(1 0 0 -1 0 62)">
			<stop  offset="0" style="stop-color:#A43907;stop-opacity:0.9961"/>
			<stop  offset="1" style="stop-color:#FFFFFF"/>
		</linearGradient>
		<path class="st21" d="M48.2309,39.4669c0,0.0616,0.1768,2.3419,0.943,3.1431c0.7662,0.8012,2.0039,1.2942,2.446,1.1709
			c0.442-0.1233,1.4439-2.4343,1.4439-2.4343s-1.0609,1.1093-1.8565,0.9244c-0.7957-0.1849-1.2672-1.5716-1.4145-2.2495
			c-0.1474-0.6779-0.0295-2.003-0.0295-2.003L48.2309,39.4669L48.2309,39.4669z"/>
		
			<linearGradient id="SVGID_30_" gradientUnits="userSpaceOnUse" x1="52.4981" y1="20.5276" x2="37.1775" y2="20.5276" gradientTransform="matrix(1 0 0 -1 0 62)">
			<stop  offset="0" style="stop-color:#A43907;stop-opacity:0.9961"/>
			<stop  offset="1" style="stop-color:#FFFFFF"/>
		</linearGradient>
		<path class="st22" d="M37.9363,39.1328c-0.3536,0.4314-0.5424,0.7648-0.6898,1.0114c-0.1473,0.2465-0.0607,0.5896,0.2796,1.0789
			c0.3669,0.5274,3.3835,2.589,7.3126,2.589c3.929,0,6.9456-2.0616,7.3126-2.589c0.3403-0.4894,0.4246-0.8324,0.2773-1.0789
			c-0.1473-0.2465-0.3338-0.58-0.6874-1.0114c0,0.647-2.499,2.9851-6.9024,2.9851S37.9363,39.7798,37.9363,39.1328z"/>
		
			<linearGradient id="SVGID_31_" gradientUnits="userSpaceOnUse" x1="37.593" y1="19.3812" x2="60.005" y2="19.1998" gradientTransform="matrix(1 0 0 -1 0 62)">
			<stop  offset="0" style="stop-color:#A43907;stop-opacity:0.9961"/>
			<stop  offset="1" style="stop-color:#FFFFFF"/>
		</linearGradient>
		<path class="st23" d="M51.5643,43.4367c0.0589-0.0924,0.6777-1.1709,0.6777-1.1709l-0.3393-0.2503
			c-0.1042,0.3051-0.4858,0.4044-0.5448,0.7742S51.6233,43.5292,51.5643,43.4367L51.5643,43.4367z"/>
		
			<linearGradient id="SVGID_32_" gradientUnits="userSpaceOnUse" x1="53.0738" y1="20.2759" x2="51.26" y2="20.1674" gradientTransform="matrix(1 0 0 -1 0 62)">
			<stop  offset="0" style="stop-color:#A43907;stop-opacity:0.9961"/>
			<stop  offset="1" style="stop-color:#FFFFFF"/>
		</linearGradient>
		<path class="st24" d="M52.1795,43.103c0,0,0.1179-0.5238-0.2652-0.5854c-0.3831-0.0616-0.586,0.2932-0.5304,0.154
			c0.0617-0.1545,0.2947-0.3081,0.3241-0.8319c0.0295-0.5239-0.0294-0.8012-0.0294-0.8012s0.1473-0.678,0.7662-0.5855
			c0.6188,0.0925,0.6483,0.5855,0.6483,0.7704c0,0.1849-0.0589,0.2773-0.0589,0.2773L52.1795,43.103L52.1795,43.103z"/>
		
			<linearGradient id="SVGID_33_" gradientUnits="userSpaceOnUse" x1="37.1969" y1="19.3845" x2="38.9468" y2="19.1069" gradientTransform="matrix(1 0 0 -1 0 62)">
			<stop  offset="0" style="stop-color:#A43907;stop-opacity:0.9961"/>
			<stop  offset="1" style="stop-color:#FFFFFF"/>
		</linearGradient>
		<path class="st25" d="M38.112,43.4367c-0.059-0.0924-0.6778-1.1709-0.6778-1.1709l0.3393-0.2503
			c0.1042,0.3051,0.4858,0.4044,0.5448,0.7742S38.053,43.5292,38.112,43.4367L38.112,43.4367z"/>
		
			<linearGradient id="SVGID_34_" gradientUnits="userSpaceOnUse" x1="38.9555" y1="19.4185" x2="35.9808" y2="21.0695" gradientTransform="matrix(1 0 0 -1 0 62)">
			<stop  offset="0" style="stop-color:#A43907;stop-opacity:0.9961"/>
			<stop  offset="1" style="stop-color:#FFFFFF"/>
		</linearGradient>
		<path class="st26" d="M37.4968,43.103c0,0-0.1179-0.5238,0.2652-0.5854c0.3831-0.0616,0.586,0.2932,0.5304,0.154
			c-0.0616-0.1545-0.2947-0.3081-0.3241-0.8319c-0.0295-0.5239,0.0294-0.8012,0.0294-0.8012s-0.1473-0.678-0.7662-0.5855
			c-0.6188,0.0925-0.6483,0.5855-0.6483,0.7704c0,0.1849,0.0589,0.2773,0.0589,0.2773L37.4968,43.103L37.4968,43.103z"/>
	</g>
	<g>
		<path d="M39.4578,41.0644l-0.3211-0.2212l-0.0373,0.0593l0.0633,0.0523l0.0054,0.0315l-0.4043,0.6425l-0.0298,0.0072
			l-0.0709-0.0402l-0.0373,0.0593l0.3211,0.2212c0.11,0.0758,0.2039,0.1145,0.3086,0.1035
			c0.1364-0.0137,0.2526-0.0931,0.3424-0.2359C39.7579,41.4896,39.7131,41.2402,39.4578,41.0644L39.4578,41.0644z M39.3239,41.0692
			l0.0638,0.044c0.1749,0.1205,0.1903,0.289,0.0472,0.5164c-0.1431,0.2274-0.2978,0.2804-0.4727,0.1599l-0.0638-0.044
			L39.3239,41.0692L39.3239,41.0692z"/>
		<path d="M39.5662,42.2269l0.6381,0.319l0.1067-0.2339l-0.0807-0.0404l-0.0834,0.1285l-0.025,0.0132l-0.2756-0.1378l0.155-0.34
			l0.1544,0.0772l0.0083,0.0267l-0.0311,0.1l0.0702,0.0351l0.1383-0.3033l-0.0702-0.0351l-0.0548,0.0883l-0.025,0.0099
			L40.037,41.857l0.1419-0.3111l0.2364,0.1182l0.0077,0.0247l-0.0346,0.124l0.0832,0.0416l0.0936-0.2053l-0.599-0.2994
			l-0.0292,0.064l0.0695,0.0428l0.0107,0.0278l-0.3178,0.6968l-0.0285,0.0114l-0.0755-0.0297L39.5662,42.2269L39.5662,42.2269z"/>
		<path d="M40.4121,42.5827c0.0684,0.0565,0.1477,0.1,0.228,0.1271c0.2056,0.0693,0.3685-0.0066,0.4189-0.1708
			c0.025-0.0814,0.0078-0.1694-0.0493-0.245c-0.0578-0.0773-0.1179-0.1204-0.1487-0.1597
			c-0.0528-0.0665-0.0753-0.1197-0.0558-0.1832c0.0233-0.0759,0.0966-0.112,0.1881-0.0811
			c0.0401,0.0135,0.0668,0.0301,0.0856,0.0501l0.0116,0.0253l-0.0227,0.1507l0.0902,0.0304l0.0686-0.2234
			c-0.0696-0.057-0.1435-0.1001-0.2212-0.1264c-0.1792-0.0604-0.3322,0.0189-0.3792,0.1719
			c-0.0208,0.0677-0.0115,0.1454,0.0297,0.2186c0.0394,0.0696,0.0912,0.113,0.1328,0.1575
			c0.0738,0.0797,0.1037,0.1445,0.0808,0.2189c-0.0233,0.0759-0.1004,0.1108-0.202,0.0766
			c-0.0388-0.0131-0.073-0.0323-0.1043-0.0565l-0.01-0.0261l0.0308-0.1723l-0.0953-0.0321L40.4121,42.5827L40.4121,42.5827z"/>
		<path d="M41.0784,42.8409l0.3747,0.1263l0.0207-0.0676l-0.0819-0.0352l-0.0133-0.0288l0.2257-0.7352l0.026-0.0126l0.0861,0.0214
			l0.0207-0.0676l-0.3747-0.1263l-0.0207,0.0676l0.0806,0.0348l0.0141,0.0261l-0.2257,0.7352l-0.0268,0.0153l-0.0848-0.021
			L41.0784,42.8409L41.0784,42.8409z"/>
		<path d="M41.8833,42.0745l-0.0143,0.0695l0.0745,0.0239l0.0165,0.0244l-0.1556,0.7557l-0.0253,0.0181l-0.0774-0.0098
			l-0.0143,0.0695l0.3629,0.0802l0.0143-0.0695l-0.0771-0.0244l-0.0159-0.0272l0.0657-0.319
			c0.0077,0.0017,0.0154,0.0034,0.0219,0.0048c0.1299,0.0287,0.1508,0.0971,0.163,0.2406c0.0066,0.0726,0.005,0.139,0.0603,0.2105
			c0.0254,0.0338,0.0695,0.0612,0.1249,0.0735c0.0399,0.0088,0.0844,0.0142,0.1309,0.0171l0.014-0.0681
			c-0.0064-0.0014-0.0116-0.0026-0.0167-0.0037c-0.0862-0.0191-0.1204-0.0488-0.1314-0.1328
			c-0.0099-0.0762-0.0043-0.1551-0.0314-0.2263c-0.0202-0.0519-0.0585-0.0885-0.117-0.1177
			c0.1516,0.0023,0.2445-0.063,0.2713-0.1935c0.0324-0.1574-0.053-0.2653-0.2525-0.3094L41.8833,42.0745L41.8833,42.0745z
			 M42.1305,42.2136l0.0592,0.0131c0.1248,0.0276,0.177,0.1073,0.153,0.2235c-0.0269,0.1305-0.1048,0.1755-0.2424,0.1451
			c-0.0142-0.0031-0.0296-0.0065-0.0461-0.0117L42.1305,42.2136L42.1305,42.2136z"/>
		<path d="M42.6989,43.2594l0.7061,0.035l0.0113-0.259l-0.0894-0.0044l-0.0291,0.1523l-0.0181,0.0223l-0.305-0.0151l0.0165-0.3764
			l0.1709,0.0085l0.0176,0.0212l0.0086,0.1049l0.0775,0.0038l0.0147-0.3359l-0.0775-0.0038l-0.0177,0.1037l-0.0193,0.0193
			l-0.1709-0.0085l0.0151-0.3445l0.2617,0.013l0.0163,0.0197l0.0141,0.1284l0.092,0.0046l0.01-0.2273l-0.6627-0.0328l-0.0031,0.0709
			l0.0799,0.0113l0.0202,0.0213l-0.0338,0.7716l-0.0221,0.0221l-0.0805,0.0032L42.6989,43.2594L42.6989,43.2594z"/>
		<path d="M43.9402,42.44l-0.0024,0.2565l0.0931,0.0011l0.0231-0.1548l0.0218-0.0186l0.1621,0.0019l-0.0074,0.7884l-0.0232,0.0229
			l-0.0879,0.0061l-0.0007,0.071l0.4038,0.0048l0.0007-0.071l-0.0877-0.0082l-0.0228-0.0234l0.0074-0.7884l0.1621,0.0019
			l0.02,0.0191l0.0215,0.1554l0.0931,0.0011l0.0024-0.2565L43.9402,42.44L43.9402,42.44z"/>
		<path d="M44.7608,42.4678l0.0012,0.071l0.0785,0.0059l0.022,0.0228l0.0134,0.7695l-0.0212,0.0235l-0.0782,0.0086l0.0012,0.071
			l0.3821-0.0067l-0.0012-0.071l-0.0811-0.0058l-0.022-0.0228l-0.0064-0.3652l0.3902-0.0068l0.0064,0.3652l-0.0198,0.0235
			l-0.0809,0.0086l0.0012,0.071l0.3808-0.0066l-0.0012-0.071l-0.0785-0.0058l-0.022-0.0228l-0.0134-0.7695l0.0212-0.0235
			l0.0782-0.0087l-0.0012-0.071l-0.3808,0.0066l0.0012,0.071l0.0811,0.0059l0.0206,0.0228l0.0055,0.3174l-0.3902,0.0068
			l-0.0055-0.3174l0.0212-0.0235l0.0809-0.0087l-0.0012-0.071L44.7608,42.4678z"/>
		<path d="M45.8363,43.4163l0.7223-0.0661l-0.022-0.2583l-0.0915,0.0084l-0.0099,0.1551L46.4197,43.28l-0.312,0.0286l-0.032-0.3754
			l0.1748-0.016l0.0206,0.0185l0.0223,0.1027l0.0793-0.0073l-0.0285-0.335l-0.0793,0.0073l-0.0046,0.1053l-0.0172,0.0219
			l-0.1748,0.016l-0.0293-0.3436l0.2677-0.0245l0.0191,0.0172l0.031,0.1253l0.0942-0.0086l-0.0193-0.2267l-0.6779,0.0621
			l0.006,0.0707l0.0827-0.0002l0.0232,0.0183l0.0656,0.7695l-0.0196,0.0251l-0.0815,0.0147L45.8363,43.4163L45.8363,43.4163z"/>
		<path d="M46.8605,42.294l0.011,0.0701l0.0849-0.0071l0.0259,0.0162l0.1202,0.7624l-0.0191,0.0267l-0.0826,0.0214l0.011,0.0701
			l0.4-0.0683l-0.011-0.0701l-0.0876,0.0077l-0.0263-0.019l-0.0508-0.3218c0.0085-0.0014,0.0171-0.0029,0.0241-0.0041
			c0.1432-0.0245,0.1898,0.0307,0.2551,0.1591c0.0335,0.0647,0.0565,0.127,0.1392,0.1716c0.0384,0.0213,0.0935,0.0295,0.1545,0.0191
			c0.0439-0.0075,0.0914-0.02,0.14-0.0356l-0.0108-0.0687c-0.007,0.0012-0.0127,0.0022-0.0184,0.0032
			c-0.095,0.0162-0.1409,0.0021-0.1831-0.0715c-0.0382-0.0668-0.0617-0.1422-0.1155-0.1976
			c-0.0399-0.0402-0.0924-0.0591-0.1629-0.0632c0.1554-0.0574,0.2261-0.1547,0.2054-0.2862
			c-0.025-0.1588-0.152-0.2253-0.3719-0.1877L46.8605,42.294L46.8605,42.294z M47.1641,42.3259l0.0653-0.0112
			c0.1375-0.0235,0.2202,0.0299,0.2387,0.1472c0.0208,0.1317-0.0421,0.2041-0.1938,0.23c-0.0157,0.0027-0.0326,0.0056-0.0513,0.0073
			L47.1641,42.3259z"/>
		<path d="M48.057,43.0554l0.4103-0.1292l-0.0204-0.0679l-0.094,0.0221l-0.0286-0.0153l-0.2224-0.7391l0.0161-0.0264l0.0898-0.0359
			l-0.0204-0.0679l-0.4103,0.1292l0.0204,0.0679l0.0926-0.0215l0.0278,0.0125l0.2224,0.7391l-0.0153,0.0291l-0.0885,0.0354
			L48.057,43.0554L48.057,43.0554z"/>
		<path d="M48.9102,42.2558l0.0195,0.068l0.1039-0.0248l0.0276,0.0126l0.0813,0.2833c-0.035,0.0139-0.0608,0.0235-0.0745,0.0278
			c-0.2119,0.0662-0.3832-0.0391-0.455-0.2891c-0.0698-0.243,0.0154-0.4269,0.2206-0.491c0.0399-0.0125,0.079-0.0172,0.1206-0.0135
			l0.0278,0.0185l0.0684,0.139l0.1005-0.0314l-0.0678-0.236c-0.1107,0.0012-0.2127,0.0165-0.3036,0.0449
			c-0.3056,0.0955-0.4478,0.3472-0.366,0.6318c0.0829,0.2888,0.3358,0.4278,0.6249,0.3375c0.1005-0.0314,0.1968-0.0827,0.292-0.1533
			l-0.0929-0.3235l0.0164-0.0263l0.0779-0.0319l-0.0195-0.068L48.9102,42.2558L48.9102,42.2558z"/>
		<path d="M49.1228,41.6747l0.0307,0.0634l0.0775-0.0328l0.0305,0.0099l0.3325,0.6872l-0.0105,0.0315l-0.0713,0.0457l0.0307,0.0634
			l0.363-0.1916l-0.0307-0.0634l-0.0801,0.0342l-0.0305-0.0099l-0.1578-0.3261l0.3707-0.1956l0.1578,0.3261l-0.0092,0.0308
			l-0.0739,0.0471l0.0307,0.0634l0.3617-0.1909l-0.0307-0.0634l-0.0775,0.0328l-0.0305-0.0099l-0.3325-0.6872l0.0105-0.0315
			l0.0712-0.0458l-0.0307-0.0634l-0.3617,0.1909l0.0307,0.0634l0.0802-0.0341l0.0292,0.0106l0.1371,0.2834l-0.3707,0.1956
			l-0.1371-0.2834l0.0105-0.0315l0.0739-0.0472l-0.0307-0.0634L49.1228,41.6747L49.1228,41.6747z"/>
		<path d="M50.0315,41.1496l0.126,0.2204l0.0851-0.0531l-0.0564-0.1455l0.0105-0.0285l0.148-0.0924l0.3872,0.6771l-0.0095,0.033
			l-0.0767,0.0562l0.0349,0.061l0.3687-0.2302l-0.0349-0.061l-0.0836,0.0438l-0.0324-0.0068l-0.3872-0.6772l0.1481-0.0924
			l0.0277,0.0046l0.0971,0.1202l0.0852-0.0532l-0.126-0.2204L50.0315,41.1496L50.0315,41.1496z"/>
	</g>
</g>
<g>
	<path class="st27" d="M44.8381,41.672c0,0-7.1131-2.0964-7.0716-10.0718l0.0548-10.5423h14.0338l0.055,10.4818
		C51.9515,39.5151,44.8382,41.672,44.8381,41.672L44.8381,41.672z"/>
	<g>
		<path class="st28" d="M38.7976,23.4455c0.0117,0,0.0979-0.0818,0.1768-0.154c0.1102-0.0552,0.2122-0.1328,0.3242-0.1849
			c0.0835-0.0483,0.2484-0.0858,0.3241-0.1233c0.0993-0.052,0.1803-0.1118,0.2653-0.2157c0.0102-0.1379,0.0295-0.2369,0.0295-0.4005
			c0.1172-0.0564,0.2212-0.1111,0.3241-0.1541c0.1475-0.0415,0.1795-0.1005,0.3242-0.1233c0.0932-0.0325,0.2472-0.0309,0.383-0.0309
			c0.1466,0,0.2391,0.1042,0.3709,0.1289c0.1562,0.063,0.2291,0.1066,0.3536,0.2157c0.0704,0.089,0.1141,0.1614,0.2341,0.2285
			c0.095,0.0487,0.1839,0.1225,0.2947,0.154c0.1216,0.0705,0.2296,0.1113,0.3241,0.2157c0.0866,0.0615,0.1223,0.1529,0.2063,0.2156
			c0.0973,0.0808,0.1896,0.1534,0.2947,0.2157c0.1263,0.0846,0.2514,0.1489,0.4559,0.1305
			c0.1083-0.0064,0.2248-0.0188,0.3536,0.0052c0.1442,0,0.2849-0.0026,0.4126,0.0309c0.1503,0,0.272,0.0203,0.4126,0.0308
			c0.1317,0.0247,0.266,0.0309,0.4126,0.0309c0.1278,0.0333,0.2684,0.0308,0.4126,0.0308h0.4126h0.4126
			c0.1501,0,0.3021,0.0061,0.4126,0.0309c0.1487,0,0.2766-0.0139,0.4126-0.0309c0.16,0,0.2821-0.0293,0.4421-0.0308h0.501
			c0.1286,0.0352,0.293,0.0594,0.3831,0.1233c0.118,0.0336,0.1767,0.0895,0.2947,0.1233c0.0903,0.0463,0.2275,0.1197,0.2947,0.2156
			c0.0832,0.087,0.1686,0.2115,0.2358,0.339c0.082,0.1183,0.1133,0.2536,0.1768,0.4005c0.0337,0.1408,0.0571,0.2747,0.0589,0.4314
			c0.032,0.1336,0.0295,0.2806,0.0295,0.4314c-0.0337,0.1405-0.041,0.2969-0.0885,0.4314
			c-0.0051,0.1504-0.0352,0.2864-0.0589,0.4006c-0.0262,0.1261-0.0571,0.2073-0.0589,0.3698v0.4314
			c-0.0104,0.1415-0.0413,0.2454-0.0589,0.4005c-0.0713,0.1346-0.1396,0.292-0.2062,0.4623
			c-0.0981,0.0683-0.1831,0.1656-0.2358,0.2465c-0.0629,0.0388-0.0993,0.0978-0.0885,0.1233
			c0.1178,0.041,0.0885,0.123,0.0885,0.2773c0.0153,0.1188,0.0268,0.2661,0.0589,0.4006c0.0107,0.1471,0.0422,0.237,0.0884,0.3389
			c0.0465,0.0607,0.0555,0.0309-0.0589,0.0309c-0.0852,0.0668-0.1713,0.0318-0.2062-0.0925
			c-0.0687-0.0829-0.0914-0.1833-0.1179-0.3389c-0.0163-0.1427-0.0391-0.2817-0.0885-0.3698
			c-0.0151-0.1736-0.0613-0.1719-0.2358-0.1849c-0.083-0.0736-0.1926-0.0925-0.3536-0.0925c-0.1604,0-0.1739-0.0164-0.1768,0.1541
			v0.4314c-0.0277,0.125-0.0885,0.2264-0.1179,0.3389c-0.0879,0.0644-0.1336,0.1725-0.2358,0.2465
			c-0.0487,0.1399-0.1194,0.1643-0.2653,0.1849c-0.051-0.0637-0.1342-0.1468-0.1768-0.2157
			c0.0825-0.1384,0.1546-0.1593,0.2063-0.3081c0.0626-0.1227,0.0994-0.2022,0.1473-0.3081
			c-0.0629-0.0968-0.1194-0.1405-0.1768-0.2774c-0.0485-0.0745-0.1156-0.235-0.1473-0.3389
			c-0.0968-0.0337-0.2491-0.0391-0.3242-0.0925c-0.143-0.0332-0.1829,0.1233-0.3535,0.1233h-0.4126
			c-0.1825,0-0.228,0.1019-0.3831,0.0925c-0.0455,0.0148-0.1561-0.0065-0.3242,0c-0.1232,0.0429-0.2715,0.0308-0.4126,0.0308
			c-0.1495-0.0019-0.2718-0.0363-0.3831-0.0616c-0.1354-0.0371-0.2701-0.0746-0.4126-0.0924c-0.173,0-0.2374,0.0138-0.3536,0.0924
			c-0.0919,0.0545-0.2252,0.1792-0.3242,0.2465c-0.0419,0.1023-0.0637,0.2753-0.1179,0.4006
			c-0.0313,0.1202-0.0822,0.1964-0.1179,0.3081c-0.0399,0.1042-0.0776,0.2115-0.0884,0.3698
			c-0.01,0.2077-0.0554,0.1822-0.1768,0.1233c-0.0506-0.086-0.1314-0.1805-0.1768-0.2774c0.0268-0.1568,0.057-0.2348,0.0589-0.4005
			c-0.0287-0.1196-0.0956-0.1158-0.1768-0.0309c0,0.1613,0.0075,0.2858-0.0589,0.3698c-0.0332,0.1273-0.0866,0.1823-0.1768,0.2465
			c-0.0441,0.1144-0.1421,0.1667-0.2358,0.2157c-0.015-0.0052,0-0.0413,0-0.1233c-0.0706-0.1409-0.0051-0.2579-0.0051-0.4314
			c0.0018-0.1556-0.0071-0.2587,0.0381-0.4006c0-0.1494-0.0693-0.2915-0.0919-0.4005c-0.0548-0.1145-0.0864-0.1711-0.2358-0.2157
			c-0.105-0.0417-0.2562-0.0981-0.3242-0.1849c-0.0855-0.1109-0.1401-0.1566-0.2652-0.2157
			c-0.1356-0.0491-0.2014-0.0941-0.2947-0.1541c-0.0911-0.1005-0.1651-0.1441-0.2063-0.2773
			c-0.0615-0.0948-0.072-0.2708-0.1179-0.4006c-0.01-0.1353-0.0488-0.261-0.0884-0.3698c-0.0175-0.1353-0.0389-0.2343-0.0885-0.3698
			c-0.0164-0.1267-0.053-0.2592-0.0884-0.4005c0-0.1508,0.0024-0.2979-0.0295-0.4314v-0.4314
			c-0.0212-0.1245-0.029-0.3069-0.0589-0.4006c0-0.1676-0.0178-0.2623-0.0589-0.3698c-0.0674-0.1089-0.0729-0.1577-0.1768-0.1849
			c-0.0751,0.0957-0.1988,0.1348-0.3536,0.1541c-0.1082-0.0247-0.2608-0.0407-0.3831-0.0925
			c-0.1182-0.0291-0.199-0.0758-0.2947-0.1233c-0.0523-0.0806-0.1149-0.1718-0.1768-0.2465
			c-0.0183-0.1609-0.0534-0.2438-0.0589-0.4005C38.6797,23.5436,38.6825,23.6061,38.7976,23.4455L38.7976,23.4455z"/>
		<path class="st29" d="M40.5428,24.5557c0.1871-0.062,0.5956-0.3651,0.8305-0.5595c0.2674-0.1695,0.8147,0.0064,0.8366-0.4528
			c-0.0331,0.1381-0.3496,0.4813-0.5044,0.6891c-0.3411,0.2168,0.1669,0.4377,0.2488,0.1278
			c0.177-0.3169,0.4021-0.6386,0.7557-0.7633c-0.0645,0.2284-0.112,0.4505,0.0417,0.6538c0.0553-0.1,0.0691-0.5107,0.0632-0.1726
			c-0.1118,0.1923,0.1651,0.7523,0.1721,0.3166c0.0442-0.2755,0.0275,0.298,0.1116,0.3843c0.1762,0.3399,0.1607-0.3127,0.1998-0.442
			c0.0296-0.2443,0.0419-0.1799,0.0062-0.0033c-0.0355,0.2212,0.0381-0.462,0.0513-0.0854
			c0.0243,0.1969-0.0026,0.7321,0.1877,0.3074c0.1523-0.2525,0.1887-0.2562,0.0224-0.0322c-0.0542,0.0845,0.2499-0.46,0.1296-0.0802
			c-0.008,0.2728,0.0021,0.6786,0.1503,0.8567c0.1137-0.1402,0.0474-0.8689,0.1618-0.3681c0.0438,0.1412,0.0013,0.5343,0.186,0.2326
			c0.1995-0.2351,0.3094-0.439,0.2877-0.7614c0.0249-0.1645,0.1251-0.4291,0.2132-0.1377
			c-0.0605,0.3801,0.3352,0.6219,0.2868,0.9875c0.1776-0.2794,0.0976-0.6952-0.0206-0.9625
			c-0.025-0.3165,0.4813-0.1278,0.3554,0.1514c-0.0144,0.2007,0.2732,0.7162,0.2962,0.239
			c0.0386-0.2268,0.1635-0.2468,0.1362,0.0068c0.0521,0.1638,0.2748,0.6456,0.2507,0.226c0.0198-0.2286-0.037-0.4693,0.0658-0.6847
			c0.0729,0.1376,0.0806,0.349,0.1666,0.0872c0.1759-0.0053,0.0695,0.4837,0.2918,0.5883c0.0893,0.1755,0.3116,0.4622,0.2493,0.0845
			c0.0345-0.2045-0.1487-0.6273-0.0692-0.6818c0.2327,0.2955,0.3188,0.6856,0.6326,0.9241
			c0.2989,0.1516,0.0371-0.4193,0.0208-0.5665c-0.1782-0.098-0.3237-0.4786-0.0716-0.1812
			c0.1455,0.2642,0.5881,0.4954,0.7263,0.5528c-0.1319-0.0976-0.2521-0.1339-0.0284,0.0011
			c0.1656,0.0679-0.0982-0.4127-0.1943-0.4942c-0.0855-0.1537-0.5016-0.3777-0.3836-0.4837
			c0.3256,0.0704,0.4209,0.4264,0.6184,0.6487c0.1231,0.1031,0.4201,0.3223,0.2542-0.0047c0.0928-0.0387,0.551,0.4698,0.4418,0.062
			c-0.0755-0.1754-0.477-0.4919-0.4328-0.511c0.137,0.1983,0.0543,0.0565-0.0548-0.0474c0.397,0.0441,0.6301,0.4404,0.8798,0.6923
			c0.0311,0.1199,0.1219,0.704-0.0007,0.3209c-0.2582-0.1102,0.0996,0.524-0.1823,0.4417
			c-0.0127-0.1405-0.2614-0.4352-0.1411-0.1439c0.2073,0.4253,0.0511,0.8924,0.0695,1.3409c0.0055,0.2208-0.0051,0.4403-0.0208,0.66
			c0.015-0.1622,0.0275-0.4321,0.001-0.078c-0.0092,0.246-0.0999-0.355-0.2228-0.3856c-0.0255-0.1119-0.1223-0.6774-0.2038-0.34
			c0.0006,0.3306,0.3195,0.6775,0.0648,0.9689c-0.0859,0.0801-0.1313,0.3105-0.1771,0.069
			c-0.1254-0.2856-0.2057-0.5879-0.4255-0.8212c-0.0928-0.1818-0.4114-0.6226-0.3231-0.1599
			c0.0552,0.2091,0.0923,0.4212,0.078,0.638c-0.1237-0.3208-0.2925-0.619-0.4585-0.9152c0.024,0.1384,0.192,0.7322,0.0459,0.3474
			c-0.1011-0.3157-0.264-0.6308-0.5786-0.7708c-0.0869-0.0108,0.2113,0.5552,0.0963,0.5592
			c-0.0276-0.1825-0.1929-0.5887-0.3572-0.5145c0.0074,0.3261,0.14,0.6298,0.0642,0.9624c0.0165,0.3243-0.2-0.3225-0.2709-0.4092
			c-0.3184-0.1949,0.0233,0.5493-0.2291,0.2614c-0.2032-0.1427-0.3116-0.3004-0.2918-0.5665
			c-0.3779-0.0643-0.2321,0.3353-0.25,0.5624c-0.0319,0.1724-0.1249,0.4996-0.23,0.55c-0.0439-0.2491-0.0087-0.5099-0.0201-0.7638
			c0.0607-0.1458-0.0061-0.5204-0.1831-0.3424c-0.03,0.3289,0.1848,0.7467-0.0594,1.0153c-0.1293,0.1479-0.369-0.2308-0.5951-0.1296
			c-0.2872-0.1471-0.1694-0.6073-0.3644-0.8489c-0.1937-0.2028-0.1029,0.8127-0.2303,0.3316
			c0.0916-0.3064-0.4671-0.4262-0.3579-0.0995c0.1372,0.139,0.162,0.3134,0.144,0.4982c0.0389,0.2174-0.1226,0.2819-0.1602,0.0379
			c-0.0155-0.2689-0.4758-0.3804-0.3816-0.0267c-0.2413-0.1553-0.0148,0.6122-0.3105,0.3762
			c-0.3332-0.2324-0.5469,0.2058-0.912,0.1198c-0.2075,0.0346-0.704,0.0886-0.403-0.2127c0.2815-0.1698,0.4005-0.6829,0.7927-0.4204
			c0.2999-0.0175,0.6183-0.2287,0.8632-0.4254c0.2003-0.135,0.1107-0.4785-0.1348-0.2655
			c-0.2038,0.3062-0.7892,0.3059-0.9647,0.2816c0.174-0.1647,0.7061-0.1889,0.574-0.4774
			c-0.1953,0.0159-0.5382,0.3086-0.6482,0.1382c0.0683-0.0752,0.2925-0.2834,0.0339-0.1925
			c-0.3275,0.1067-0.6787,0.0807-1.0162,0.0539c-0.3378-0.3307,0.4927-0.2401,0.4806-0.4575
			c-0.0819-0.0068-0.4053,0.0369-0.2639-0.0819c0.2734,0.0054,0.5492,0.0262,0.7452-0.2333
			c0.1186-0.1232,0.5312-0.406,0.4303-0.5054c-0.3045,0.1753-0.6242,0.4728-1.0057,0.2995
			c0.3278-0.2445-0.1266-0.2654-0.3338-0.2415c-0.1507,0.0465-0.5697-0.1248-0.2113-0.1138
			c0.2442,0.0517,0.4867-0.2866,0.1109-0.2218C40.7084,24.5446,40.6239,24.56,40.5428,24.5557L40.5428,24.5557z"/>
		<path class="st29" d="M38.7386,24.0618c-0.0144-0.1592-0.0785-0.3174-0.052-0.4782c0.0784-0.1146,0.1869-0.1981,0.2877-0.2921
			c0.1805-0.1007,0.3522-0.2231,0.5564-0.2727c0.1418-0.0433,0.2646-0.1368,0.3572-0.2512c0.0456-0.1376-0.0349-0.3579,0.0941-0.432
			c0.1589-0.087,0.3308-0.143,0.4927-0.2229c0.1768-0.0571,0.3681-0.066,0.5514-0.0441c0.1468,0.0631,0.2955,0.1205,0.4412,0.1863
			c0.1317,0.0641,0.2287,0.1726,0.3177,0.285c0.1041,0.0949,0.2343,0.1565,0.3568,0.2243c0.1017,0.007,0.0682,0.1389,0.0036,0.1337
			c-0.0419,0.1951-0.2853,0.0296-0.3316-0.0854c0.0408-0.0758,0.0241,0.173-0.0538,0.1764
			c-0.1373,0.0607-0.1332-0.173-0.1533-0.2624c0.0174-0.0755-0.0422-0.1651-0.0733-0.0464
			c-0.0923,0.1016,0.0995,0.3193-0.101,0.2593c-0.149-0.0197-0.3155-0.0504-0.445,0.0484c-0.1083,0.113,0.1173,0.1594,0.1876,0.2142
			c0.0948,0.0892,0.2216,0.0011,0.332-0.0099c0.151-0.0522,0.3209-0.0251,0.4608,0.0448c0.0647,0.1397-0.065,0.2786-0.1888,0.3352
			c-0.1156,0.0627-0.2446,0.0898-0.3734,0.1055c-0.1888,0.0084-0.1522,0.2424-0.3361,0.2611
			c-0.1175,0.0497-0.2498,0.0611-0.3751,0.0446c-0.0247-0.0675,0.1245-0.1744,0.14-0.2776
			c0.1351-0.1607-0.1936-0.1314-0.1459,0.0218c0.0228,0.1039-0.2048,0.2572-0.1279,0.0807c0.0036-0.0949,0.102-0.2423-0.0636-0.1739
			c-0.0906-0.0008-0.2764-0.0041-0.2253,0.1367c-0.1124,0.0238-0.2564,0.0263-0.3528-0.0296
			c-0.0575-0.1535-0.2369-0.221-0.3493-0.0815c-0.112,0.1482-0.2676-0.0461-0.3788,0.0307
			c-0.0015,0.1389,0.1417,0.2116,0.2685,0.2105c0.1284-0.0113,0.2601-0.0351,0.3895-0.014
			c0.1191,0.1421-0.1137,0.1866-0.2243,0.1671c-0.149-0.0054-0.2822-0.0905-0.4337-0.0787
			c-0.0724-0.0102-0.2374,0.0798-0.0818,0.0919c0.1156,0.0235,0.3522,0.0156,0.2994,0.1969
			c-0.0906,0.0422-0.2028-0.0041-0.3053,0.0396c-0.0602-0.0155-0.2407,0.0332-0.1402-0.0185
			C38.91,24.1937,38.8071,24.1416,38.7386,24.0618L38.7386,24.0618z"/>
		<path class="st28" d="M39.3967,23.3355c-0.0069,0-0.0691,0.0433-0.125,0.0872c-0.0916,0.049-0.1894,0.1324-0.2501,0.1743
			c-0.0478,0.0383-0.0475,0.0549-0.1041,0.0654c0.0993-0.0141,0.1435-0.0393,0.2292-0.0872c0.1083-0.013,0.2131-0.036,0.2709-0.0872
			C39.4718,23.4691,39.4135,23.3822,39.3967,23.3355L39.3967,23.3355z"/>
		<path class="st28" d="M40.3553,22.3114c0.012,0,0.0364,0.0681,0.0833,0.109c0.03,0.0836,0.0576,0.1427,0.0625,0.2397
			c0.0256-0.1065,0.0692-0.1921,0.0834-0.3051c-0.0324-0.0574-0.0346-0.0843-0.125-0.0872
			C40.4594,22.3267,40.4663,22.2882,40.3553,22.3114z"/>
		<path class="st28" d="M40.7304,22.3332v0.0218c0-0.0588-0.0013-0.0288,0.0208,0.0872c0.0344,0.0731,0.0417,0.1515,0.0417,0.2615
			c0.0547-0.0408,0.1003-0.1223,0.125-0.1961C40.9179,22.3355,40.8946,22.3456,40.7304,22.3332z"/>
		<path class="st28" d="M41.5014,24.8389h0.0208c-0.0613,0-0.0268,0.0037,0.0834-0.0654c0.0713-0.0497,0.1297-0.1232,0.2292-0.1525
			c0.0965-0.0792,0.1707-0.1163,0.2708-0.1524c0.0488-0.0235,0.0919-0.0642,0.1459-0.0218c-0.0155,0.1075-0.0333,0.1481-0.125,0.196
			c-0.0474,0.0621-0.1221,0.0984-0.1875,0.1308c-0.0678,0.0312-0.1424,0.0327-0.1667,0.109
			C41.6589,24.9347,41.645,24.9259,41.5014,24.8389L41.5014,24.8389z"/>
		<path class="st28" d="M41.8973,25.4708c0.0372-0.0294,0.1677-0.1655,0.2292-0.2178c0.0696-0.0959,0.1399-0.1693,0.2084-0.2179
			c0.0607-0.0935,0.1385-0.1561,0.1876-0.2397c0.0579-0.0733,0.1005-0.1353,0.1667-0.2178c0,0.0953-0.0087,0.2216,0.0207,0.2832
			c0,0.1316-0.0145,0.1676-0.0624,0.2615c-0.0473,0.0771-0.0826,0.1282-0.1876,0.1743c-0.0947,0.0525-0.1514,0.0709-0.2292,0.1307
			c-0.0593,0.0382-0.1211,0.0761-0.1876,0.109C41.9835,25.5629,42.0109,25.5513,41.8973,25.4708L41.8973,25.4708z"/>
		<path class="st28" d="M41.2513,25.972h0.0208c-0.0613,0-0.0269,0.0037,0.0834-0.0654c0.0889-0.093,0.1597-0.1253,0.2709-0.1743
			c0.0846-0.0068,0.1869-0.0288,0.2501-0.0654c0.0504-0.0093,0.0854-0.0413,0.125,0c0.0654,0.0925,0.0835,0.1186-0.0208,0.1743
			c-0.0499,0.0443-0.1379,0.0888-0.2083,0.109c-0.0521,0.0449-0.155,0.0476-0.2501,0.0654c-0.0852,0-0.1325,0.0101-0.1667-0.0436
			l0.1667,0.0436C41.4371,26.0156,41.3897,26.0256,41.2513,25.972z"/>
		<path class="st28" d="M42.1473,25.972v-0.0218c0,0.0608-0.0025,0.0286,0.0417-0.0872c0.0781-0.1219,0.1075-0.1891,0.2084-0.2179
			c0.0472-0.0598,0.1291-0.0752,0.2292-0.109c0.0375,0.0655,0.0087,0.1418,0,0.2179c-0.0272,0.0813-0.1016,0.1387-0.1459,0.1961
			c-0.065,0.0461-0.0915,0.0905-0.1876,0.109C42.2137,26.0591,42.2559,26.0571,42.1473,25.972z"/>
		<path class="st30" d="M39.7092,23.2047c-0.0466,0,0.0821-0.0485,0.125-0.0654c0.0343-0.0756,0.0616-0.1292,0.125-0.1742
			c0.1044,0.0084,0.1556,0.0398,0.2084,0.1089c0.0877,0.025,0.1193,0.0687,0.2292,0.0872c0.0408,0.0361,0.0961,0.0402,0,0.0654
			c-0.0654,0.0361-0.1475,0.0436-0.2501,0.0436c-0.1075,0.0081-0.1843,0.0328-0.2501,0.0654
			C39.7573,23.3355,39.7797,23.3403,39.7092,23.2047L39.7092,23.2047z"/>
		<ellipse cx="40.001" cy="23.1394" rx="0.1042" ry="0.1089"/>
	</g>
	<g>
		<path class="st31" d="M40.3553,29.2188h0.0834c-0.2613,0-0.1051-0.0182,0.3334,0.3486c0.1837-0.16,0.1815-0.1816,0.3335,0.0872
			c0.0877,0.153,0.1134-0.0156,0.25-0.1742c0.0658,0.3166,0.108,0.6486,0.3335,0.3486c0.2575,0,0.5271-0.0224,0.6668,0.0872
			c0.1688,0.3279,0.1135-0.0556,0.2501,0.0872c0.367,0.046,0.36-0.3291,0.7598-0.4262c0.2485,0.3247,0.3573,0.0748,0.6669-0.0871
			c0.2299,0.0672,0.4466,0.432,0.4904,0.0774c0.1882-0.3211,0.2046-0.2937,0.3334,0c0.183,0.1724,0.2602-0.0862,0.4167-0.1742
			c0.279,0.1707,0.5902,0.1944,1.0002,0.0872c0.0694,0.2903,0.2444,0.1644,0.4167,0.0871c0.3687,0.162,0.4973,0.2116,0.9169,0
			c0.2078-0.2568,0.0902,0.0072,0.25,0.1743c0.3108-0.1009,0.225-0.1223,0.5835-0.0872c0.3603,0,0.3895-0.0091,0.5001-0.2614
			c0.1811,0.1893,0.2465,0.3258,0.5001,0.0872c0.3885,0.0119,0.2684,0.0513,0.5002-0.0872c0.1714,0.397,0.2117,0.1101,0.4167,0.2614
			c-0.135,0.358-0.3425,0.526-0.5834,0.6972c-0.1603,0.2777-0.2606,0.5775-0.5834,0.6973
			c-0.2356,0.2512-0.4866,0.3969-0.7502,0.6101c-0.3614,0.0945-0.7591,0.0872-1.167,0.0872h-1.1669h-1.167h-1.1669
			c-0.249,0.1301-0.6561,0.1921-1.0003,0.2614c-0.3843,0-0.8199,0.0047-1.0835-0.0872c-0.1787-0.1868-0.4922-0.3955-0.6668-0.6101
			c-0.1767-0.149-0.1818-0.4398-0.3335-0.6101c-0.1395-0.2494-0.1826-0.6396-0.3334-0.8716L40.3553,29.2188L40.3553,29.2188z"/>
		<path class="st31" d="M48.4403,30.0032v0.0872c0-0.2437,0.0103-0.1142-0.1667,0.3486c-0.0358,0.1124-0.1143,0.1388-0.2501,0.1743"
			/>
		<path class="st31" d="M47.6901,30.3518h0.0834c-0.3086,0.3048-0.5164,0.4452-0.5835,0.7844l0.5835-0.7844
			c-0.3086,0.3048-0.5164,0.4452-0.5835,0.7844"/>
		<path class="st31" d="M46.5232,29.9161c0,0.0078-0.0117,0.3109-0.0834,0.4357"/>
		<path class="st31" d="M46.1898,30.5261v0.0872V30.5261z"/>
		<path class="st31" d="M45.523,30.0032h0.0834H45.523z"/>
		<path class="st31" d="M40.8553,30.0032c0.0398,0,0.2038,0.2767,0.4167,0.4357c-0.053,0.255-0.1345,0.55,0,0.7844"/>
		<path class="st31" d="M41.5221,30.5261c0.0398,0,0.2038,0.2768,0.4168,0.4358L41.5221,30.5261
			c0.0398,0,0.2038,0.2768,0.4168,0.4358v0.0872c0-0.2693-0.0214-0.5513,0.0833-0.6973c0.0927,0.164,0.2097,0.4277,0.2501,0.1743
			c0.4694-0.0176,0.696-0.1554,1.0002-0.2614c0,0.1282-0.0197,0.0666,0.0834,0.1742"/>
		<path class="st31" d="M49.0238,30.0904h0.0834c-0.1572,0.137-0.2778,0.4163-0.4168,0.6101"/>
		<path class="st31" d="M45.6064,29.8289h0.6668"/>
	</g>
	<g>
		<path class="st32" d="M40.1593,30.4918c-1.0024,0-1.3347,1.0476-2.3371,1.0476c-0.0193,0-0.0376-0.0016-0.0564-0.0023v0.0634
			c-0.0038,0.7262,0.0533,1.4025,0.1574,2.0341c0.9247-0.0675,1.2682-1.0476,2.2361-1.0476c1.0024,0,1.337,1.0499,2.3394,1.0499
			c1.0024,0,1.337-1.0499,2.3394-1.0499s1.337,1.0499,2.3394,1.0499s1.337-1.0499,2.3394-1.0499
			c0.9653,0,1.3098,0.9731,2.229,1.0452c0.1101-0.6484,0.1683-1.3451,0.1644-2.0928V31.537
			c-0.0188,0.0008-0.0371,0.0023-0.0564,0.0023c-1.0024,0-1.3347-1.0476-2.3371-1.0476c-1.0024,0-1.337,1.0476-2.3394,1.0476
			s-1.337-1.0476-2.3394-1.0476c-1.0024,0-1.337,1.0476-2.3394,1.0476C41.4963,31.5393,41.1617,30.4918,40.1593,30.4918
			L40.1593,30.4918z"/>
		<path class="st32" d="M40.1593,34.581c-0.7798,0-1.1549,0.6321-1.7546,0.9137c0.2095,0.5776,0.4627,1.1033,0.7446,1.5855
			c0.2848-0.2153,0.5875-0.4016,1.01-0.4016c1.0024,0,1.337,1.0476,2.3394,1.0476c1.0024,0,1.337-1.0476,2.3394-1.0476
			s1.337,1.0476,2.3394,1.0476s1.337-1.0476,2.3394-1.0476c0.4132,0,0.7119,0.1783,0.9912,0.3876
			c0.2818-0.4799,0.5361-1.0048,0.7469-1.5784c-0.5902-0.2853-0.9654-0.9066-1.7381-0.9066c-1.0024,0-1.337,1.0476-2.3394,1.0476
			s-1.337-1.0476-2.3394-1.0476c-1.0024,0-1.337,1.0476-2.3394,1.0476C41.4963,35.6286,41.1617,34.581,40.1593,34.581
			L40.1593,34.581z"/>
		<path class="st32" d="M44.8381,38.6703c-1.0024,0-1.337,1.0499-2.3394,1.0499c-0.948,0-1.2989-0.9386-2.1821-1.0405
			c1.1803,1.3149,2.5188,2.1109,3.4316,2.5485c0.3087-0.2396,0.6284,0.2913,1.0899,0.2913c0.4582,0,0.7761-0.5336,1.0828-0.296
			c0.9027-0.4395,2.2248-1.2368,3.3987-2.5391c-0.8543,0.1249-1.2084,1.0358-2.1421,1.0358
			C46.1751,39.7202,45.8405,38.6703,44.8381,38.6703z"/>
	</g>
	<g>
		<g>
			<path class="st33" d="M38.6324,35.1105c0.1645-0.0573,0.9593-0.3152,0.9868-0.2866c0.0274,0.0287,1.535,1.5478,1.535,1.5478
				l-1.2609,0.258L38.6324,35.1105L38.6324,35.1105z"/>
			<g>
				<path class="st34" d="M41.6283,37.1009c0.0232-0.3597,0.6966-2.4055,0.6966-2.4055"/>
				<path class="st34" d="M41.8605,37.1253c0-0.0225,0.5341-2.4073,0.5341-2.4073"/>
				<path class="st34" d="M42.0435,37.129c0.0232-0.1349,0.444-2.411,0.444-2.411"/>
				<path class="st34" d="M41.8142,36.4489c0.1161,0,0.3483-0.0899,0.3483-0.0899"/>
				<path class="st34" d="M41.8838,36.1792c0-0.0225,0.3483-0.0899,0.3483-0.0899"/>
				<path class="st34" d="M41.9302,35.842l0.3715-0.0674"/>
				<path class="st34" d="M42.0928,35.5497c0,0.0225,0.2554,0.0225,0.2554,0.0225"/>
			</g>
			<g>
				<path class="st33" d="M45.7632,38.6912c-0.0274-0.6159-0.8223-4.1191-0.8223-4.1191"/>
				<path class="st33" d="M45.489,38.5757c0-0.0385-0.6305-3.965-0.6305-3.965"/>
				<path class="st33" d="M45.2149,38.2676c-0.0273-0.231-0.4659-3.657-0.4659-3.657"/>
				<path class="st33" d="M45.7357,38.1907c-0.137-0.1155-0.5482-0.2695-0.5482-0.2695"/>
				<path class="st33" d="M45.5438,37.5748c-0.137,0-0.4112-0.154-0.4112-0.154"/>
				<path class="st33" d="M45.4616,37.1129c0-0.0385-0.4112-0.154-0.4112-0.154"/>
				<path class="st33" d="M45.4068,36.5354L44.9682,36.42"/>
				<path class="st33" d="M45.2149,36.0349c0,0.0385-0.3015,0.0385-0.3015,0.0385"/>
				<path class="st33" d="M45.1326,35.573c-0.0548,0-0.3015,0.0769-0.3015,0.0769"/>
			</g>
			<g>
				<path class="st33" d="M47.8698,36.9699c-0.137,0-0.4112-0.1147-0.4112-0.1147"/>
				<path class="st33" d="M48.0891,37.8011c-0.0274-0.4586-0.8223-3.0669-0.8223-3.0669"/>
				<path class="st33" d="M47.815,37.7152c0-0.0287-0.6305-2.9523-0.6305-2.9523"/>
				<path class="st33" d="M47.5409,37.4858c-0.0273-0.172-0.4659-2.7229-0.4659-2.7229"/>
				<path class="st33" d="M47.7875,36.626c0-0.0287-0.4112-0.1147-0.4112-0.1147"/>
				<path class="st33" d="M47.7328,36.1961l-0.4386-0.086"/>
				<path class="st33" d="M47.5409,35.8234c0,0.0287-0.3015,0.0287-0.3015,0.0287"/>
				<path class="st33" d="M47.4586,35.4795c-0.0548,0-0.3015,0.0573-0.3015,0.0573"/>
			</g>
		</g>
		<g>
			<path class="st35" d="M44.5532,38.1487c0-0.0287,0.0822-7.1942,0.0822-7.1942s0.2467-0.0287,0.2467,0
				c0,0.0287-0.0273,7.1656-0.0548,7.1942C44.7999,38.1774,44.5258,38.206,44.5532,38.1487z"/>
			<path class="st35" d="M47.2396,31.2696c0,0.0574-0.0549,6.0478-0.0549,6.0478l-0.1919,0.2294l0.0549-6.2772L47.2396,31.2696
				L47.2396,31.2696z"/>
			<path class="st35" d="M42.47,36.7729c0.0273-0.1721,0.0273-5.3599,0.0273-5.3599l-0.1645-0.0287l-0.0273,5.3026L42.47,36.7729
				L42.47,36.7729z"/>
			<path class="st35" d="M41.4284,34.8238c0.1097,0,1.9736-0.3152,1.9736-0.3152l-0.0274,0.3152l-1.8365,0.2007L41.4284,34.8238
				L41.4284,34.8238z"/>
			<path class="st35" d="M41.4557,33.1614c0.1097,0.0287,2.2478-0.6019,2.2478-0.6019s0,0.2007-0.0274,0.2007
				c-0.0273,0-2.2203,0.6019-2.2203,0.6019L41.4557,33.1614L41.4557,33.1614z"/>
			<path class="st35" d="M41.5381,32.3302c-0.0274,0.1147,0.0273,0.258,0.0273,0.258l1.7817-0.6306c0,0,0.0822-0.1434,0-0.1434
				S41.5106,32.3876,41.5381,32.3302L41.5381,32.3302z"/>
			<path class="st35" d="M43.8954,31.9289c0.0548,0,1.8365-0.6019,1.8365-0.6019s0.0274,0.258,0,0.258
				c-0.0273,0-1.6721,0.5159-1.6721,0.5159L43.8954,31.9289L43.8954,31.9289z"/>
			<path class="st35" d="M43.7583,32.6742c0,0-0.0548,0.258-0.0273,0.258c0.0273,0,2.3299-0.6306,2.3299-0.6306v-0.172
				L43.7583,32.6742L43.7583,32.6742z"/>
			<path class="st35" d="M43.8405,34.7092v0.2006l1.9736-0.2865l-0.0548-0.1434L43.8405,34.7092L43.8405,34.7092z"/>
			<path class="st35" d="M46.1157,34.8525l0.0273,0.172c0,0,1.9736-0.258,1.9736-0.2866c0-0.0286,0-0.2006-0.0273-0.2006
				C48.0619,34.5373,46.1431,34.8812,46.1157,34.8525z"/>
			<path class="st35" d="M46.0882,33.0181l0.0274,0.2006l2.3299-0.6592c0,0,0.0549-0.172,0.0274-0.172
				C48.4456,32.3876,46.143,33.1041,46.0882,33.0181L46.0882,33.0181z"/>
			<path class="st35" d="M46.3349,32.1009c0,0-0.0273,0.172,0,0.172c0.0274,0,1.7269-0.4299,1.7269-0.4586
				c0-0.0286,0.1645-0.2007,0.0274-0.172C47.9522,31.671,46.3898,32.1869,46.3349,32.1009z"/>
		</g>
		<g>
			<path class="st36" d="M42.607,32.6742c0.2467-0.086,0.0822-0.2866,0.137-0.2866c0.0549,0,0.2467,0.1433,0.3564,0.0286
				c0.1097-0.1146,0.1919-0.4585,0.1371-0.4299c-0.0494,0.0258-1.2305,0.4693-1.4868,0.4744
				C41.9112,32.5226,42.3934,32.7487,42.607,32.6742L42.607,32.6742z"/>
			<path class="st36" d="M46.4172,32.2729c0,0,0.1371,0.3439,0.2741,0.2866c0.137-0.0573,0.2741-0.172,0.2741-0.172
				s0.1097,0.2866,0.3015,0.2293c0.1919-0.0573,0.3016-0.3726,0.3016-0.3726s0.1918,0.0574,0.274,0.0287
				c0.0823-0.0287,0.1919-0.4872,0.1919-0.4872L46.4172,32.2729L46.4172,32.2729z"/>
			<path class="st36" d="M46.2527,35.0532c-0.0274,0.0573,0.1371,0.2007,0.2741,0.2007c0.137,0,0.1919-0.2007,0.2192-0.1434
				c0.0274,0.0574,0.0274,0.3153,0.3838,0.2294c0.3564-0.086,0.3564-0.3439,0.3564-0.3439s-0.1097,0.086,0.137,0.1146
				c0.2467,0.0287,0.4934-0.3726,0.466-0.3726C48.0619,34.7378,46.3076,35.0819,46.2527,35.0532z"/>
			<path class="st36" d="M46.2527,33.1901c0,0-0.2741,0.3152-0.1919,0.7452c0.0822,0.43,0.1919,0.8026,0.2193,0.8026
				s0.3289-0.5732,0.6578-0.6019c0.3289-0.0287,0.932,0.3153,0.932,0.3153s-0.0822-0.688-0.0548-1.0032
				c0.0273-0.3153,0.4934-0.8598,0.4934-0.8598L46.2527,33.1901L46.2527,33.1901z"/>
			<path class="st36" d="M41.5106,35.0532c0.0274,0,0,0.258,0.2192,0.2007c0.2193-0.0574,0.2741-0.2007,0.2741-0.2007
				s0.0548,0.3152,0.3564,0.2866c0.3015-0.0287,0.4659-0.3726,0.4659-0.3726s0.0274,0.2579,0.2193,0.172
				c0.1919-0.086,0.2467-0.2866,0.2467-0.2866l-1.7269,0.258L41.5106,35.0532z"/>
			<path class="st36" d="M41.5106,33.3621c0,0-0.2467,0.086-0.1645,0.6019c0.0822,0.5159,0.2741,0.8026,0.3015,0.8026
				c0.0274,0,0.2467-0.4872,0.5756-0.5732c0.329-0.0861,0.9046,0.2579,0.9046,0.2579s-0.0549-0.4586,0.0274-0.8885
				c0.0822-0.43,0.3563-0.7453,0.3563-0.7453S41.5928,33.3621,41.5106,33.3621L41.5106,33.3621z"/>
			<path class="st36" d="M43.9502,32.0149c0.1097,0.0287,0.3016,0.3152,0.4112,0.2579c0.1097-0.0573,0.2741-0.2293,0.2741-0.2293
				s-0.0274,0.3439,0.1919,0.2865c0.2192-0.0573,0.2467-0.2865,0.2467-0.2865s0.1645,0.086,0.3015,0
				c0.1371-0.086,0.2741-0.516,0.2193-0.516S44.0051,32.0436,43.9502,32.0149L43.9502,32.0149z"/>
			<path class="st36" d="M43.8954,32.8462c0,0.0573-0.2741,0.5159-0.1919,0.9458c0.0822,0.4299,0.2467,0.8312,0.2741,0.8312
				c0.0274,0,0.4386-0.4586,0.795-0.5446c0.3563-0.086,0.8771,0.2866,0.8497,0.2866c-0.0274,0-0.1371-0.43-0.1371-0.7453
				c0-0.3153,0.4112-1.2899,0.4112-1.2899L43.8954,32.8462L43.8954,32.8462z"/>
			<path class="st36" d="M43.8954,34.9098c0,0.0287,0.0822,0.2294,0.2741,0.2294c0.1918,0,0.2192-0.2007,0.2192-0.2007
				s-0.0274,0.3439,0.2741,0.3153c0.3015-0.0287,0.4112-0.344,0.4112-0.344s0.0274,0.1721,0.2741,0.0861
				c0.2467-0.0861,0.5756-0.3726,0.5482-0.3726C45.869,34.6233,43.9228,34.9959,43.8954,34.9098L43.8954,34.9098z"/>
		</g>
		<g>
			<path class="st35" d="M41.5106,36.9735c0,0,0.2741,2.9523,3.4264,2.8663c3.1523-0.086,4.0294-2.9808,4.0294-2.9808
				s-1.3431-0.0574-1.3706-0.0574c-0.0273,0-1.0964,1.3758-2.467,1.3471c-1.3706-0.0287-1.8091-0.3726-2.1106-0.6592
				c-0.3015-0.2866-0.5756-0.7166-0.5756-0.7166l-1.5898-0.6593l0.0822,0.6306L41.5106,36.9735L41.5106,36.9735z"/>
			<path class="st35" d="M50.0208,36.6668c-0.0274-0.086-0.095-0.3812-0.095-0.3812v-0.3439l0.1517-0.3483
				c0,0-2.3848,0.3572-2.3848,0.3859c0-0.033-0.0147,0.6789-0.0147,0.6789L50.0208,36.6668L50.0208,36.6668z"/>
			<path class="st35" d="M49.5695,35.9417l-0.0548,0.6019h0.3837l-0.0273-0.6019H49.5695L49.5695,35.9417z"/>
			<path class="st35" d="M49.1583,35.9704l-0.0274,0.6305l0.2467-0.0286l0.0274-0.6019H49.1583L49.1583,35.9704z"/>
			<path class="st35" d="M48.7472,36.6009v-0.4872l0.2467-0.086l0.0274,0.4872L48.7472,36.6009z"/>
			<path class="st35" d="M48.2811,36.5723l0.0549-0.4299l0.274,0.0286l0.0274,0.4586L48.2811,36.5723L48.2811,36.5723z"/>
			<path class="st35" d="M47.7603,36.5723l0.0274-0.3726l0.2741-0.0287v0.4299L47.7603,36.5723z"/>
			<path class="st35" d="M47.4862,36.8015l2.604,0.0574l0.0274-0.2007l-2.6864-0.0287L47.4862,36.8015z"/>
			<path class="st35" d="M47.5959,36.085c0.3016,0,2.5767-0.4586,2.5767-0.4586s0.0822-0.2865,0-0.2865
				s-2.5767,0.5446-2.5767,0.5446V36.085L47.5959,36.085z"/>
			<path class="st35" d="M38.5502,35.0819l2.0832,1.0605l-0.0548,0.1433c0,0-2.0011-0.9745-2.0011-1.0032
				C38.5776,35.2538,38.605,35.1392,38.5502,35.0819z"/>
			<path class="st35" d="M39.5096,34.7665c0,0.086,0.3016,1.8344,0.3016,1.8344s0.1919,0.0287,0.1919,0
				c0-0.0286-0.329-1.8057-0.329-1.8057L39.5096,34.7665L39.5096,34.7665z"/>
		</g>
		<g>
			<g>
				<path class="st34" d="M43.7216,38.0039c0.0274-0.4765,0.8223-3.1868,0.8223-3.1868"/>
				<path class="st34" d="M43.9958,38.0361c0-0.0298,0.6305-3.1892,0.6305-3.1892"/>
				<path class="st34" d="M44.2117,38.041c0.0273-0.1787,0.5241-3.1941,0.5241-3.1941"/>
				<path class="st34" d="M43.7491,37.6166c0.137-0.0893,0.5482-0.2085,0.5482-0.2085"/>
				<path class="st34" d="M43.941,37.1401c0.137,0,0.4112-0.1192,0.4112-0.1192"/>
				<path class="st34" d="M44.0232,36.7828c0-0.0298,0.4112-0.1192,0.4112-0.1192"/>
				<path class="st34" d="M44.078,36.336l0.4386-0.0894"/>
				<path class="st34" d="M44.2699,35.9488c0,0.0298,0.3015,0.0298,0.3015,0.0298"/>
				<path class="st34" d="M44.3521,35.5914c0.0548,0,0.3015,0.0595,0.3015,0.0595"/>
			</g>
			<g>
				<path class="st33" d="M46.0476,37.9836c0.0274-0.4586,0.8223-3.0669,0.8223-3.0669"/>
				<path class="st33" d="M46.3217,37.8976c0-0.0287,0.6305-2.9523,0.6305-2.9523"/>
				<path class="st33" d="M46.5958,37.6682c0.0273-0.172,0.4659-2.7229,0.4659-2.7229"/>
				<path class="st33" d="M46.075,37.6109c0.137-0.086,0.5482-0.2007,0.5482-0.2007"/>
				<path class="st33" d="M46.2669,37.1523c0.137,0,0.4112-0.1147,0.4112-0.1147"/>
				<path class="st33" d="M46.3491,36.8084c0-0.0287,0.4112-0.1147,0.4112-0.1147"/>
				<path class="st33" d="M46.4039,36.3785l0.4386-0.086"/>
				<path class="st33" d="M46.5958,36.0058c0,0.0287,0.3015,0.0287,0.3015,0.0287"/>
				<path class="st33" d="M46.6781,35.6619c0.0548,0,0.3015,0.0573,0.3015,0.0573"/>
			</g>
			<g>
				<path class="st33" d="M43.4179,37.6778c-0.0274-0.4614-0.8223-3.0854-0.8223-3.0854"/>
				<path class="st33" d="M43.1437,37.5913c0-0.0289-0.6305-2.9701-0.6305-2.9701"/>
				<path class="st33" d="M42.8696,37.3606c-0.0273-0.173-0.4659-2.7393-0.4659-2.7393"/>
				<path class="st33" d="M43.3904,37.303c-0.137-0.0865-0.5482-0.2019-0.5482-0.2019"/>
				<path class="st33" d="M43.1985,36.8415c-0.137,0-0.4112-0.1154-0.4112-0.1154"/>
				<path class="st33" d="M43.1163,36.4955c0-0.0289-0.4112-0.1154-0.4112-0.1154"/>
				<path class="st33" d="M43.0615,36.063l-0.4386-0.0865"/>
				<path class="st33" d="M42.8696,35.6881c0,0.0289-0.3015,0.0289-0.3015,0.0289"/>
				<path class="st33" d="M42.7874,35.3421c-0.0548,0-0.3015,0.0576-0.3015,0.0576"/>
			</g>
		</g>
		<path class="st37" d="M40.7979,36.1423c0,0-0.5482-0.086-0.5208,0.0573c0.0274,0.1433,0.2741,0.2866,0.3016,0.3726
			c0.0273,0.086-0.0822,0.4012,0.0822,0.3726c0.1645-0.0287,0.3289-0.1434,0.3289-0.2294c0-0.086-0.0274-0.4872-0.0274-0.4872
			L40.7979,36.1423L40.7979,36.1423z"/>
		<g>
			<path class="st33" d="M41.4009,36.9449c0.0822,0,0.7127,0.1433,0.7127,0.1433l0.6578,0.9172"/>
			<path class="st33" d="M41.867,37.0595c0.0273,0.0287,0.5756,1.949,3.2071,1.949s3.262-2.1783,3.262-2.1783"/>
			<path class="st33" d="M48.7472,36.8875c0,0-1.2609,2.8663-3.6731,2.6656c-2.4122-0.2006-2.7959-1.1465-2.9878-1.6337
				c-0.1919-0.4873-0.3015-0.8885-0.3015-0.8885"/>
			<g>
				<path class="st33" d="M48.0619,34.5658c0.0274-0.086,0.1097-1.8057,0.1097-1.8057"/>
				<path class="st33" d="M49.9806,35.4258l-1.6995-2.809"/>
				<path class="st33" d="M44.8274,31.0404c0-0.0287,0.8497,0.3726,0.8497,0.4012c0,0.0287,3.0152,4.2134,3.0426,4.2134"/>
				<path class="st33" d="M47.2121,31.4416l0.7675,0.344l0.2467,0.6305"/>
				<path class="st33" d="M42.4426,31.3844c-0.0274,0,0.8497,0.6879,0.8497,0.6879l0.1097,0.5733"/>
				<path class="st33" d="M39.4548,35.5691c0.3837-0.172,3.0426-2.6083,3.0426-2.6083"/>
				<path class="st33" d="M38.7421,35.1105c0.329-0.2866,2.9878-2.6369,2.9878-2.6369"/>
				<path class="st33" d="M43.7309,32.8748l2.8234,4.9013"/>
				<path class="st33" d="M46.2212,34.9016c0,0,0.3331,1.1548,0.662,1.3267s0.7126,0.4586,0.7126,0.4586"/>
				<path class="st33" d="M46.1832,34.9256c0,0,0.234,1.3601,0.5629,1.618c0.3289,0.258,0.6579,0.5446,0.6579,0.5446"/>
				<path class="st33" d="M43.9095,34.8306c0,0,0.3289,1.8918,0.9869,2.3217c0.6578,0.4299,1.206,0.8026,1.206,0.8026"/>
				<path class="st33" d="M43.8821,34.802c0,0,0.7126,1.4905,1.3157,1.9491c0.6031,0.4585,1.4254,0.8885,1.4254,0.8885"/>
				<path class="st33" d="M41.5796,34.9166c0.1918,0.3439,0.1645,1.0032,0.3837,1.2325c0.2192,0.2294,0.5483,0.7453,0.5483,0.7453"
					/>
				<path class="st33" d="M41.6344,34.9453c0.1097,0.172,0.4155,1.0283,0.6031,1.2898c0.1371,0.2294,1.535,1.6911,1.535,1.6911"/>
			</g>
		</g>
		<g>
			<ellipse class="st38" cx="43.1008" cy="37.9979" rx="0.2056" ry="0.215"/>
			<ellipse class="st38" cx="44.1425" cy="38.4565" rx="0.1782" ry="0.1863"/>
			<ellipse class="st38" cx="45.4308" cy="38.5712" rx="0.1782" ry="0.1863"/>
			<ellipse class="st38" cx="46.5821" cy="38.1268" rx="0.1645" ry="0.1576"/>
			<ellipse class="st38" cx="47.4592" cy="37.5679" rx="0.1508" ry="0.1863"/>
		</g>
		<g>
			<path class="st39" d="M42.3196,31.4198c-0.0822,0.0574-1.4528,0.4013-1.2609,0.3726c0.1918-0.0286,1.2883,0.2866,1.2609,0.2007
				S42.3196,31.4772,42.3196,31.4198z"/>
			<path class="st39" d="M44.6497,30.9899c-0.0549,0-0.8498,0.3153-0.8224,0.3153c0.0274,0,0.9046,0.258,0.8772,0.2006
				C44.677,31.4485,44.677,31.0759,44.6497,30.9899L44.6497,30.9899z"/>
			<path class="st39" d="M47.0344,31.2765c-0.0549,0.0287-0.9869,0.258-0.8224,0.2866c0.1645,0.0287,0.795,0.258,0.795,0.2007
				C47.007,31.7064,47.007,31.3052,47.0344,31.2765z"/>
		</g>
		<g transform="matrix(0.04915326,-1.2962189,1.2382477,0.05145445,0,0)">
			
				<ellipse transform="matrix(0.0415 -0.9991 0.9991 0.0415 -59.989 10.7032)" class="st40" cx="-24.4159" cy="36.6184" rx="0.1523" ry="0.1455"/>
			
				<ellipse transform="matrix(0.0415 -0.9991 0.9991 0.0415 -60.5505 11.6931)" class="st40" cx="-24.1807" cy="37.406" rx="0.1523" ry="0.1455"/>
			
				<ellipse transform="matrix(0.0415 -0.9991 0.9991 0.0415 -60.5885 10.8912)" class="st40" cx="-24.6177" cy="37.0249" rx="0.1523" ry="0.1455"/>
			
				<ellipse transform="matrix(0.0415 -0.9991 0.9991 0.0415 -59.951 11.5051)" class="st40" cx="-23.9789" cy="36.9995" rx="0.1523" ry="0.1455"/>
			
				<ellipse transform="matrix(0.0415 -0.9991 0.9991 0.0415 -60.2697 11.1981)" class="st40" cx="-24.2983" cy="37.0122" rx="0.1523" ry="0.1455"/>
		</g>
	</g>
</g>
</svg>
