<?xml version="1.0" encoding="utf-8"?>
<!-- Generator: Adobe Illustrator 21.1.0, SVG Export Plug-In . SVG Version: 6.00 Build 0)  -->
<svg version="1.1" id="Layer_1" xmlns="http://www.w3.org/2000/svg" xmlns:xlink="http://www.w3.org/1999/xlink" x="0px" y="0px"
	 viewBox="0 0 60 60" style="enable-background:new 0 0 60 60;" xml:space="preserve">
<style type="text/css">
	.st0{fill:#0072C6;}
	.st1{fill:#FFFFFF;}
	.st2{fill:#EF2B2D;}
</style>
<title>Flag of Barbados</title>
<title>Flag of Equatorial Guinea</title>
<g>
	<g>
		<path class="st0" d="M0.2418,33.7495c0.1596,1.2766,0.3914,2.529,0.7043,3.7512h14.0546v18.4774
			c1.1975,0.6948,2.4524,1.3094,3.7496,1.8333v-24.062H0.2418z"/>
		<path class="st0" d="M59.0539,37.5008c0.3122-1.2222,0.5427-2.4746,0.7029-3.7512H26.249v26.0113
			C27.4786,59.9135,28.7276,60,29.9993,60V37.5008H59.0539z"/>
		<path class="st1" d="M59.0539,22.5006C55.7223,9.5616,43.9769,0,29.9993,0v22.5006H59.0539z"/>
		<path class="st1" d="M0.9461,37.5008c2.0289,7.879,7.1804,14.4989,14.0546,18.4774V37.5008H0.9461z"/>
		<path class="st1" d="M15.0006,4.0234C8.1264,8.0031,2.975,14.6202,0.9461,22.5006h14.0546V4.0234z"/>
		<path class="st1" d="M59.0539,37.5008H29.9993V60C43.9769,60,55.7223,50.4411,59.0539,37.5008z"/>
		<path class="st0" d="M18.7503,2.1892c-1.2972,0.5248-2.5522,1.1392-3.7496,1.8342v18.4772H0.9461
			c-0.3129,1.2196-0.5447,2.4734-0.7043,3.7498h18.5085V2.1892z"/>
		<path class="st0" d="M59.7568,26.2504c-0.1601-1.2764-0.3907-2.5302-0.7029-3.7498H29.9993V0
			c-1.2717,0-2.5208,0.0878-3.7503,0.2419v26.0085H59.7568z"/>
		<path class="st2" d="M59.7568,33.7495C59.9103,32.5206,60,31.2703,60,30.0004c0-1.2712-0.0897-2.5209-0.2432-3.75H26.249V0.2419
			c-2.6186,0.3264-5.1326,0.9898-7.4987,1.9473v24.0612H0.2418C0.0877,27.4795,0,28.7292,0,30.0004
			c0,1.2698,0.0877,2.5202,0.2418,3.7491h18.5085v24.062c2.3661,0.9589,4.8801,1.621,7.4987,1.9493V33.7495H59.7568z"/>
	</g>
</g>
</svg>
