<?xml version="1.0" encoding="utf-8"?>
<!-- Generator: Adobe Illustrator 21.1.0, SVG Export Plug-In . SVG Version: 6.00 Build 0)  -->
<svg version="1.1" id="Layer_1" xmlns="http://www.w3.org/2000/svg" xmlns:xlink="http://www.w3.org/1999/xlink" x="0px" y="0px"
	 viewBox="0 0 60 60" style="enable-background:new 0 0 60 60;" xml:space="preserve">
<style type="text/css">
	.st0{clip-path:url(#SVGID_2_);}
	.st1{fill:#CE1126;}
	.st2{fill:#007A5E;}
	.st3{fill:#FCD116;}
</style>
<g>
	<defs>
		<circle id="SVGID_1_" cx="30" cy="30" r="30"/>
	</defs>
	<clipPath id="SVGID_2_">
		<use xlink:href="#SVGID_1_"  style="overflow:visible;"/>
	</clipPath>
	<g class="st0">
		<path class="st1" d="M10.2029,52.5004C15.4881,57.1542,22.4041,60,29.9997,60c7.597,0,14.513-2.8458,19.7974-7.4996H10.2029z"/>
		<path class="st1" d="M49.7971,7.4991C44.5126,2.8453,37.5966,0,29.9997,0c-7.5956,0-14.5116,2.8453-19.7967,7.4991H49.7971z"/>
		<path class="st2" d="M4.3,45.4195l25.7003-15.4194L4.3,14.5798C1.5889,19.0896,0,24.3524,0,30.0001
			C0,35.6476,1.5889,40.9091,4.3,45.4195z"/>
		<path class="st3" d="M4.3,14.5798l25.7003,15.4202l25.7003-15.4202c-1.5976-2.6562-3.5891-5.041-5.9036-7.0808H10.2029
			C7.8885,9.5374,5.8983,11.9223,4.3,14.5798z"/>
		<path class="st3" d="M55.7007,45.4195L30.0003,30.0001L4.3,45.4195c1.5983,2.6576,3.5884,5.0424,5.9029,7.0809h39.5941
			C52.1115,50.4605,54.1031,48.0764,55.7007,45.4195z"/>
		<path class="st2" d="M60,30.0001c0-5.6469-1.5882-10.9092-4.2993-15.4202L30.0003,30.0001l25.7003,15.4194
			C58.4118,40.9084,60,35.6469,60,30.0001z"/>
		<polygon class="st3" points="27.9043,6.9315 30.0024,5.4064 32.0977,6.9315 31.2956,4.4648 33.395,2.9397 30.8011,2.9397 
			30.0024,0.4744 29.1996,2.9397 26.6043,2.9397 28.7017,4.4648 		"/>
		<polygon class="st3" points="17.9043,6.9315 20.0024,5.4064 22.0977,6.9315 21.2956,4.4648 23.395,2.9397 20.8011,2.9397 
			20.0024,0.4744 19.1996,2.9397 16.6043,2.9397 18.7017,4.4648 		"/>
		<polygon class="st3" points="37.9043,6.9315 40.0024,5.4064 42.0977,6.9315 41.2956,4.4648 43.395,2.9397 40.8011,2.9397 
			40.0024,0.4744 39.1996,2.9397 36.6043,2.9397 38.7017,4.4648 		"/>
		<polygon class="st3" points="27.9043,59.4995 30.0024,57.975 32.0977,59.4995 31.2956,57.0335 33.395,55.5084 30.8011,55.5084 
			30.0024,53.0418 29.1996,55.5084 26.6043,55.5084 28.7017,57.0335 		"/>
		<polygon class="st3" points="17.9043,59.4995 20.0024,57.975 22.0977,59.4995 21.2956,57.0335 23.395,55.5084 20.8011,55.5084 
			20.0024,53.0418 19.1996,55.5084 16.6043,55.5084 18.7017,57.0335 		"/>
		<polygon class="st3" points="37.9043,59.4995 40.0024,57.975 42.0977,59.4995 41.2956,57.0335 43.395,55.5084 40.8011,55.5084 
			40.0024,53.0418 39.1996,55.5084 36.6043,55.5084 38.7017,57.0335 		"/>
		<g>
			<path class="st3" d="M1.8616,26.6985c0.3954,1.5741-0.5581,3.2144,0,4.7758c0.4114,1.119,1.6116,1.6269,2.7066,1.8266
				c-0.3378-0.5133-0.5851-1.056-0.7204-1.6262c-0.126-0.5341-0.1636-1.0815-0.1146-1.6136c0.5105,0.2111,0.9696,0.5321,1.3777,0.92
				c0.4361,0.4081,0.8456,0.8772,1.1204,1.4274c0.4308-1.1694,0.3578-2.6952-0.636-3.5623
				C4.5287,27.8276,2.9411,27.6801,1.8616,26.6985z"/>
			<path class="st1" d="M3.8478,31.6746c0.4577,0.4322,0.9414,0.8557,1.5244,1.105c-0.0134-0.6099-0.1099-1.2156-0.2613-1.7986
				c-0.4081-0.388-0.8672-0.709-1.3777-0.92C3.6842,30.5931,3.7218,31.1405,3.8478,31.6746z"/>
		</g>
		<g>
			<circle class="st1" cx="30.0007" cy="29.9997" r="7.4997"/>
			<polygon class="st3" points="30.0003,23.5618 31.4859,28.1291 36.2899,28.1291 32.4033,30.9543 33.8869,35.5229 30.0003,32.6992 
				26.1145,35.5229 27.5987,30.9543 23.7122,28.1291 28.5174,28.1291 			"/>
		</g>
	</g>
</g>
</svg>
