<?xml version="1.0" encoding="utf-8"?>
<!-- Generator: Adobe Illustrator 21.1.0, SVG Export Plug-In . SVG Version: 6.00 Build 0)  -->
<svg version="1.1" id="Layer_1" xmlns="http://www.w3.org/2000/svg" xmlns:xlink="http://www.w3.org/1999/xlink" x="0px" y="0px"
	 viewBox="0 0 60 60" style="enable-background:new 0 0 60 60;" xml:space="preserve">
<style type="text/css">
	.st0{fill:#FFFFFF;}
	.st1{fill:#FF0000;}
</style>
<g>
	<g>
		<path class="st0" d="M59.5309,24.7497C57.3505,12.3906,47.6073,2.6489,35.2482,0.4677v24.2821H59.5309z"/>
		<path class="st0" d="M24.7492,0.4677C12.39,2.6489,2.6482,12.3906,0.4665,24.7497h24.2827V0.4677z"/>
		<path class="st0" d="M0.4665,35.2494C2.6482,47.6073,12.39,57.3511,24.7492,59.533V35.2494H0.4665z"/>
		<path class="st0" d="M35.2482,59.533c12.3591-2.1819,22.1023-11.9257,24.2827-24.2836H35.2482V59.533z"/>
		<path class="st1" d="M35.2482,35.2494h24.2827C59.8324,33.5442,60,31.7925,60,29.9999c0-1.7917-0.1676-3.5448-0.4691-5.2502
			H35.2482V0.4677C33.5421,0.1674,31.7892,0,29.9987,0c-1.7931,0-3.5448,0.1674-5.2495,0.4677v24.2821H0.4665
			C0.1636,26.4552,0,28.2082,0,29.9999c0,1.7926,0.1636,3.5442,0.4665,5.2495h24.2827V59.533C26.4539,59.8352,28.2056,60,29.9987,60
			c1.7905,0,3.5434-0.1648,5.2495-0.467V35.2494z"/>
		<path class="st1" d="M12.0187,38.9927c1.3026,0.1608,2.6147,0.1608,3.9027,0c-0.2573,1.3529-0.4088,2.7312-0.4798,4.0955
			c1.371-0.067,2.7447-0.2278,4.1036-0.4824c-0.1634,1.2966-0.1634,2.6092,0,3.9079c-1.3589-0.2559-2.7326-0.4175-4.1036-0.4831
			c0.071,1.377,0.2371,2.7407,0.4798,4.0943c-1.2879-0.1622-2.612-0.1622-3.9027,0c0.2627-1.3535,0.4195-2.7307,0.4851-4.1043
			c-1.3736,0.0756-2.7513,0.2371-4.1062,0.4931c0.1648-1.2987,0.1648-2.6113,0-3.9079c1.3549,0.2546,2.7326,0.4154,4.1062,0.4911
			C12.4383,41.7239,12.2814,40.3455,12.0187,38.9927L12.0187,38.9927z"/>
		<path class="st1" d="M44.076,38.9927c1.2986,0.1608,2.6134,0.1608,3.8999,0c-0.2601,1.3529-0.4101,2.7312-0.4825,4.0955
			c1.3737-0.067,2.7555-0.2278,4.1063-0.4824c-0.1662,1.2966-0.1662,2.6092,0,3.9079c-1.3508-0.2559-2.7326-0.4175-4.1063-0.4831
			c0.0725,1.377,0.2373,2.7407,0.4825,4.0943c-1.2866-0.1622-2.612-0.1622-3.8999,0c0.2601-1.3535,0.4142-2.7307,0.4798-4.1043
			c-1.371,0.0756-2.7473,0.2371-4.1022,0.4931c0.1634-1.2987,0.1634-2.6113,0-3.9079c1.3549,0.2546,2.7312,0.4154,4.1022,0.4911
			C44.4901,41.7239,44.336,40.3455,44.076,38.9927L44.076,38.9927z"/>
		<path class="st1" d="M12.0187,9.8737c1.3026,0.1609,2.6147,0.1609,3.9027,0c-0.2573,1.3536-0.4088,2.732-0.4798,4.0963
			c1.371-0.0664,2.7447-0.2285,4.1036-0.4825c-0.1634,1.298-0.1634,2.6094,0,3.908c-1.3589-0.2554-2.7326-0.4181-4.1036-0.4825
			c0.071,1.3756,0.2371,2.74,0.4798,4.0943c-1.2879-0.1629-2.612-0.1629-3.9027,0c0.2627-1.3543,0.4195-2.7319,0.4851-4.1057
			c-1.3736,0.0758-2.7513,0.2385-4.1062,0.4939c0.1648-1.2986,0.1648-2.61,0-3.908c1.3549,0.254,2.7326,0.4161,4.1062,0.4925
			C12.4383,12.6057,12.2814,11.2273,12.0187,9.8737L12.0187,9.8737z"/>
		<path class="st1" d="M44.076,9.8737c1.2986,0.1609,2.6134,0.1609,3.8999,0c-0.2601,1.3536-0.4101,2.732-0.4825,4.0963
			c1.3737-0.0664,2.7555-0.2285,4.1063-0.4825c-0.1662,1.298-0.1662,2.6094,0,3.908c-1.3508-0.2554-2.7326-0.4181-4.1063-0.4825
			c0.0725,1.3756,0.2373,2.74,0.4825,4.0943c-1.2866-0.1629-2.612-0.1629-3.8999,0c0.2601-1.3543,0.4142-2.7319,0.4798-4.1057
			c-1.371,0.0758-2.7473,0.2385-4.1022,0.4939c0.1634-1.2986,0.1634-2.61,0-3.908c1.3549,0.254,2.7312,0.4161,4.1022,0.4925
			C44.4901,12.6057,44.336,11.2273,44.076,9.8737L44.076,9.8737z"/>
	</g>
</g>
</svg>
