<?xml version="1.0" encoding="utf-8"?>
<!-- Generator: Adobe Illustrator 21.1.0, SVG Export Plug-In . SVG Version: 6.00 Build 0)  -->
<svg version="1.1" id="Layer_1" xmlns="http://www.w3.org/2000/svg" xmlns:xlink="http://www.w3.org/1999/xlink" x="0px" y="0px"
	 viewBox="0 0 60 60" style="enable-background:new 0 0 60 60;" xml:space="preserve">
<style type="text/css">
	.st0{fill:#FFFFFF;}
	.st1{fill:#DA000C;}
	.st2{fill:#DA000C;stroke:#000000;stroke-width:0.0908;stroke-linecap:square;}
	.st3{fill:#DA000C;stroke:#000000;stroke-width:0.0908;}
	.st4{fill:#F8D80E;stroke:#000000;stroke-width:0.0698;stroke-linecap:round;}
	.st5{fill:#F8D80E;stroke:#000000;stroke-width:0.0908;stroke-linecap:round;}
	.st6{fill:#F8D80E;stroke:#000000;stroke-width:0.0908;}
	.st7{fill:#F8D80E;stroke:#000000;stroke-width:0.093;}
	.st8{fill:#DA000C;stroke:#000000;stroke-width:0.0908;stroke-linejoin:round;}
</style>
<path class="st0" d="M60,30.0001C60,13.4294,46.5701,0,29.9999,0C13.432,0,0,13.4294,0,30.0001c0,3.4617,0.6165,6.7727,1.6959,9.867
	h56.6093C59.3842,36.7727,60,33.4618,60,30.0001z"/>
<path class="st1" d="M29.9999,60c13.1063,0,24.2199-8.4189,28.3054-20.1329H1.6959C5.7809,51.5811,16.8943,60,29.9999,60z"/>
<rect x="19.4566" y="29.3423" width="11.3543" height="7.8048"/>
<path class="st2" d="M25.3552,36.0061h-6.9313l-1.5364,1.0112v1.0715h8.4677"/>
<path class="st2" d="M22.4545,31.5227c0.9979,0,1.8129,0.8319,1.8129,1.8573v2.6224h1.3029v-9.935h-7.1464v9.935h2.2176V33.38
	C20.6415,32.3947,21.4425,31.5227,22.4545,31.5227z"/>
<rect x="20.8683" y="19.3466" width="3.2863" height="6.0248"/>
<path class="st2" d="M24.1454,24.4374h-2.8757v-1.0201h-2.1085v1.0201h-1.4304v-1.0201h-0.8538v1.8517h7.2683 M17.7309,25.2623
	h6.2042v0.805h-6.2042V25.2623z"/>
<path class="st2" d="M20.1925,17.1579v6.2593h1.0773v-1.7187c0-0.6439,0.4545-1.1708,1.0904-1.2031c0.0205-0.001,0.0402,0,0.061,0
	c0.6647,0,1.2031,0.5384,1.2031,1.2031v1.7187h1.0257v-6.2593H20.1925z"/>
<path class="st2" d="M19.8044,16.3097v0.8482h5.1893v-0.8482H19.8044z"/>
<path class="st2" d="M19.1391,14.6853v1.6244h6.226v-1.6244H24.406v0.8261h-1.1587v-0.8261h-1.7686v0.8261H20.32v-0.8261H19.1391z"
	/>
<path class="st2" d="M16.8875,37.0173h8.4998"/>
<path class="st2" d="M30.8871,36.5291h-5.7548l-1.7353,0.8372v1.2474h7.4901"/>
<path class="st3" d="M23.3951,37.3641h7.6693"/>
<g id="castle_half_1_">
	<rect x="29.189" y="29.3423" width="11.3543" height="7.8048"/>
	<path class="st2" d="M34.6448,36.0061h6.9313l1.5364,1.0112v1.0715h-8.4677"/>
	<path class="st2" d="M37.5455,31.5227c-0.9979,0-1.8129,0.8319-1.8129,1.8573v2.6224h-1.3029v-9.935h7.1464v9.935h-2.2176V33.38
		C39.3585,32.3947,38.5575,31.5227,37.5455,31.5227z"/>
	<rect x="35.8454" y="19.3466" width="3.2863" height="6.0248"/>
	<path class="st2" d="M35.8546,24.4374h2.8756v-1.0201h2.1085v1.0201h1.4304v-1.0201h0.8538v1.8517h-7.2683 M42.2691,25.2623H36.065
		v0.805h6.2042V25.2623z"/>
	<path class="st2" d="M39.8075,17.1579v6.2593h-1.0773v-1.7187c0-0.6439-0.4545-1.1708-1.0904-1.2031
		c-0.0205-0.001-0.0402,0-0.061,0c-0.6646,0-1.2031,0.5384-1.2031,1.2031v1.7187h-1.0257v-6.2593H39.8075z"/>
	<path class="st2" d="M40.1956,16.3097v0.8482h-5.1893v-0.8482H40.1956z"/>
	<path class="st2" d="M40.8609,14.6853v1.6244h-6.226v-1.6244h0.9591v0.8261h1.1587v-0.8261h1.7686v0.8261H39.68v-0.8261H40.8609z"
		/>
	<path class="st2" d="M43.1125,37.0173h-8.4998"/>
	<path class="st2" d="M29.1129,36.5291h5.7548l1.7353,0.8372v1.2474h-7.4901"/>
	<path class="st3" d="M36.6049,37.3641h-7.6693"/>
</g>
<g>
	<path class="st4" d="M33.0687,35.326c-0.4709,0.1567-0.8965,0.4203-1.3251,0.6658c-0.55,0.325-1.0834,0.679-1.5798,1.082
		c-0.1747,0.1152-0.3423,0.2414-0.4771,0.4033c-0.182,0.1557-0.3663,0.3645-0.3316,0.6232c0.0092,0.1141,0.155-0.134,0.2509-0.146
		c0.1672-0.096,0.3697-0.1269,0.5575-0.0836c0.2255-0.2375,0.5163-0.3966,0.7673-0.6043c0.5331-0.3978,1.1064-0.7394,1.6898-1.0575
		c0.2037-0.1044,0.4082-0.2104,0.6254-0.2842C33.1869,35.7251,33.1278,35.5255,33.0687,35.326L33.0687,35.326z"/>
	<path class="st5" d="M30.7807,36.6318v0.694"/>
	<path class="st5" d="M31.2094,36.3291v0.6889"/>
	<path class="st5" d="M31.6381,36.062v0.6845"/>
	<path class="st5" d="M32.0668,35.7983v0.7063"/>
	<path class="st4" d="M26.9647,35.3481c-0.0702,0.1959-0.1405,0.3918-0.2107,0.5877c0.9823,0.3726,1.9176,0.8655,2.8027,1.43
		c0.2999,0.2042,0.6151,0.4021,0.8509,0.6823c0.0519,0.1439-0.0912,0.2642-0.2331,0.2207c-0.1299-0.0441-0.2579-0.0943-0.395-0.0007
		c-0.1963,0.0893-0.3736,0.3799-0.0755,0.4774c0.4108,0.2759,1.0789,0.156,1.2764-0.3274c0.1032-0.2486,0.1098-0.5669-0.09-0.7708
		c-0.3659-0.4194-0.8511-0.7111-1.3167-1.0062C28.7417,36.1408,27.8753,35.6878,26.9647,35.3481L26.9647,35.3481z"/>
	<path class="st5" d="M29.654,36.746l-0.0554,0.5925"/>
	<path class="st5" d="M30.1476,37.0483l-0.1529,0.5801"/>
	<path class="st5" d="M30.6749,37.4514l-0.3209,0.4501"/>
	<path class="st5" d="M30.8365,38.5459l-0.4631-0.2485"/>
	<path class="st5" d="M30.9807,38.0577l-0.5314,0.0498"/>
	<path class="st5" d="M30.2954,38.8269l-0.0364-0.467"/>
	<path class="st5" d="M30.1008,38.2931l-0.4387,0.3233"/>
	<path class="st5" d="M27.9911,35.8415v0.5526"/>
	<path class="st5" d="M29.1064,36.4282v0.627"/>
	<path class="st5" d="M28.5488,36.1353v0.5888"/>
</g>
<path class="st6" d="M26.413,49.0809v1.4248h0.8926v-0.7152h1.2142v0.7152h0.9591v-1.4248H26.413z M26.413,51.0436v1.4304h3.0659
	v-1.4304h-0.9591v0.7152h-1.2142v-0.7152H26.413z"/>
<rect x="29.477" y="43.0647" class="st6" width="0.8853" height="10.3103"/>
<rect x="29.477" y="43.9566" class="st6" width="0.8853" height="8.8813"/>
<path class="st7" d="M29.9196,40.5375l1.885,1.0977l-1.885,1.0922l-1.885-1.0922L29.9196,40.5375z M27.397,41.2416h-0.4934v0.7873
	h0.4934l2.5226,1.4636l2.5226-1.4636h0.4934v-0.7873h-0.4934l-2.5226-1.4636L27.397,41.2416z"/>
<path class="st7" d="M29.8836,37.8541c-0.4291,0.0602-0.7497,0.4844-0.7263,0.9109c0.0016,0.6631-0.0033,1.3264,0.0025,1.9894
	c0.0228,0.4273,0.396,0.8101,0.8293,0.814c0.3521,0.0334,0.7059-0.1725,0.8536-0.4931c-0.1016-0.061-0.2033-0.122-0.3049-0.183
	c-0.0787,0.21-0.3058,0.3402-0.5267,0.316c-0.2901,0.0082-0.525-0.2739-0.499-0.556c0.0018-0.6588-0.0034-1.3178,0.0026-1.9765
	c0.016-0.2688,0.2723-0.4887,0.5407-0.4613c0.1111-0.0319,0.2639,0.1201,0.3326-0.0111c0.1036-0.1472-0.0735-0.2621-0.1719-0.3437
	C30.1074,37.8447,29.9937,37.8582,29.8836,37.8541L29.8836,37.8541z M30.9093,38.5471c-0.0703,0.1323-0.2158,0.211-0.3326,0.2804
	v1.333c0.1183,0.0684,0.2365,0.1368,0.3548,0.2051c-0.0014-0.5684,0.0027-1.1369-0.0021-1.7052
	C30.9238,38.6254,30.928,38.5719,30.9093,38.5471L30.9093,38.5471z"/>
<rect x="27.3039" y="15.5126" width="5.2032" height="9.448"/>
<path class="st3" d="M26.9396,15.5169v7.9059h1.6521v-2.3452c0-0.5409,0.3464-1.2918,1.4082-1.2918s1.4082,0.7509,1.4082,1.2918
	v2.3452h1.6521v-7.9059H26.9396z M29.745,16.4039h0.5101v2.7055H29.745V16.4039z M28.2813,16.9362h0.5156v1.9792h-0.5156V16.9362z
	 M31.2031,16.9362h0.5156v1.9792h-0.5156V16.9362z"/>
<path class="st3" d="M26.3797,14.3803v1.1255h7.2406v-1.1255H26.3797z"/>
<path class="st3" d="M25.6978,13.0719v1.3084h8.6045v-1.3084h-1.0811v0.7207h-1.2197v-0.7207h-1.3916v0.7207h-1.2197v-0.7207
	h-1.3916v0.7207h-1.2197v-0.7207H25.6978z"/>
<path class="st3" d="M24.1011,26.0673v0.815h11.7979v-0.815H24.1011z"/>
<path class="st3" d="M23.6187,23.4172v2.6501h12.7625v-2.6501h-1.2086v1.0201h-1.6078v-1.0201h-2.1567v1.0201h-2.8164v-1.0201
	h-2.1567v1.0201h-1.6078v-1.0201H23.6187z"/>
<path class="st8" d="M25.1544,26.8823v9.6412h2.2786v-3.6092c0-1.7001,1.1348-2.5004,2.5669-2.5004
	c1.3765,0,2.5669,0.8003,2.5669,2.5004v3.6092h2.2786v-9.6412H25.1544z"/>
</svg>
