<?xml version="1.0" encoding="utf-8"?>
<!-- Generator: Adobe Illustrator 21.1.0, SVG Export Plug-In . SVG Version: 6.00 Build 0)  -->
<svg version="1.1" id="Layer_1" xmlns="http://www.w3.org/2000/svg" xmlns:xlink="http://www.w3.org/1999/xlink" x="0px" y="0px"
	 viewBox="0 0 60 60" style="enable-background:new 0 0 60 60;" xml:space="preserve">
<style type="text/css">
	.st0{fill:#D00C33;}
	.st1{fill:#FFFFFF;}
</style>
<g>
	<g>
		<path class="st0" d="M29.9999,60C46.5692,60,60,46.5687,60,29.9999H0C0,46.5687,13.4332,60,29.9999,60z"/>
		<path class="st1" d="M29.9999,0C13.4332,0,0,13.4306,0,29.9999h60C60,13.4306,46.5692,0,29.9999,0z"/>
		<g>
			<path class="st1" d="M26.0156,44.9363c8.2481,0,14.9329-6.6868,14.9329-14.933H11.0832
				C11.0832,38.2495,17.7687,44.9363,26.0156,44.9363z"/>
			<path class="st0" d="M26.0156,15.0696c-8.2468,0-14.9324,6.6869-14.9324,14.9337h29.8653
				C40.9485,21.7565,34.2637,15.0696,26.0156,15.0696z"/>
		</g>
	</g>
</g>
</svg>
