<?xml version="1.0" encoding="utf-8"?>
<!-- Generator: Adobe Illustrator 21.1.0, SVG Export Plug-In . SVG Version: 6.00 Build 0)  -->
<svg version="1.1" id="Layer_1" xmlns="http://www.w3.org/2000/svg" xmlns:xlink="http://www.w3.org/1999/xlink" x="0px" y="0px"
	 viewBox="0 0 60 60" style="enable-background:new 0 0 60 60;" xml:space="preserve">
<style type="text/css">
	.st0{fill:#3A7728;}
	.st1{fill:#0C1C8C;}
	.st2{fill:#CE1126;}
	.st3{fill:#FFFFFF;}
</style>
<g>
	<g>
		<path class="st0" d="M30.0027,60c12.4355,0,23.1033-7.5667,27.6506-18.3472H2.3519C6.8992,52.4333,17.5658,60,30.0027,60z"/>
		<path class="st1" d="M0,29.9999c0,2.9946,0.4529,5.8827,1.2678,8.6127h57.4643C59.5484,35.8826,60,32.9945,60,29.9999
			c0-2.996-0.4516-5.882-1.2679-8.6134H1.2678C0.4529,24.1179,0,27.004,0,29.9999z"/>
		<path class="st2" d="M30.0027,0C17.5658,0,6.8992,7.5659,2.3519,18.3471h55.3014C53.106,7.5659,42.4382,0,30.0027,0z"/>
		<path class="st3" d="M58.2081,19.8649c-0.1836-0.5067-0.3458-1.0227-0.5548-1.5178H2.3519
			c-0.2104,0.4951-0.3752,1.0111-0.5588,1.5178c-0.1822,0.5058-0.3698,1.0065-0.5253,1.5217h57.4643
			C58.5767,20.8713,58.389,20.3707,58.2081,19.8649z"/>
		<path class="st3" d="M1.2678,38.6126c0.1555,0.516,0.3431,1.0172,0.5253,1.5218c0.1836,0.5065,0.3498,1.0251,0.5588,1.5184
			h55.3014c0.2078-0.4932,0.3712-1.0118,0.5548-1.5184c0.1809-0.5046,0.3686-1.0058,0.524-1.5218H1.2678z"/>
	</g>
</g>
</svg>
