<?xml version="1.0" encoding="utf-8"?>
<!-- Generator: Adobe Illustrator 21.1.0, SVG Export Plug-In . SVG Version: 6.00 Build 0)  -->
<svg version="1.1" id="Layer_1" xmlns="http://www.w3.org/2000/svg" xmlns:xlink="http://www.w3.org/1999/xlink" x="0px" y="0px"
	 viewBox="0 0 60 60" style="enable-background:new 0 0 60 60;" xml:space="preserve">
<style type="text/css">
	.st0{clip-path:url(#SVGID_2_);fill:#3E9A00;}
	.st1{clip-path:url(#SVGID_2_);fill:#FFFFFF;}
	.st2{clip-path:url(#SVGID_2_);fill:#E32118;}
	.st3{fill:#0073CE;}
	.st4{fill:#FFFFFF;stroke:#000000;stroke-width:0.1;}
	.st5{fill:#73452B;stroke:#000000;stroke-width:0.0749;}
	.st6{fill:#A36629;stroke:#000000;stroke-width:0.0749;}
	.st7{fill:none;stroke:#000000;stroke-width:0.0749;}
	.st8{fill:#009A3B;stroke:#000000;stroke-width:0.0749;}
	.st9{fill:#FFD700;stroke:#000000;stroke-width:0.1;}
</style>
<title>Flag of Barbados</title>
<g>
	<defs>
		<circle id="SVGID_1_" cx="30" cy="30" r="30"/>
	</defs>
	<clipPath id="SVGID_2_">
		<use xlink:href="#SVGID_1_"  style="overflow:visible;"/>
	</clipPath>
	<rect class="st0" width="60" height="20"/>
	<rect y="20" class="st1" width="60" height="20"/>
	<rect y="40" class="st2" width="60" height="20"/>
</g>
<path class="st3" d="M0,30c0,6.908,2.3409,13.2657,6.2645,18.3369L24.6014,30L6.2645,11.6631C2.3409,16.7343,0,23.092,0,30z"/>
<title>Flag of Equatorial Guinea</title>
<g>
	<g id="shield_1_">
		<path class="st4" d="M31.1999,23.9681h9.5661v10.0207c0,3.3719-4.3959,0.7743-4.7706,2.5726
			c-0.6494-1.8483-4.7706,0.8242-4.7706-2.7724C31.2249,30.2922,31.1999,23.9681,31.1999,23.9681z"/>
		<path class="st5" d="M36.6698,34.9629c0,0-0.1249,0.1249-0.3497,0.025c-0.2248-0.0999-0.2498-6.4191-0.2498-6.4191
			c0.4995-0.5495,0.8992-0.7243,0.8992-0.7243l0.2997,0.2498c-1.124,0.5745-1.0241,1.3987-0.9241,2.8224
			c0.025,0.5245,0.025,1.1989,0.1499,1.8483c0.1748,0.8242,0.5245,1.5236,0.5495,2.0481
			C37.0694,35.1377,36.6698,34.9629,36.6698,34.9629z"/>
		<path class="st5" d="M35.8955,27.6946h0.4496c-0.3747,3.6216-0.05,5.7697-0.05,6.8187c0,0.3497,0.1998,0.4746,0.1748,0.4746
			c-0.4496,0.4995-0.6744-0.025-0.6744-0.025L35.8955,27.6946z"/>
		<path class="st6" d="M35.1962,34.9629c-0.4246,0.1998-0.4746-0.1998-0.4496-0.2498c0.9241-1.8733,1.3238-5.9944,0.4746-6.444
			l0.05-0.3996c0.3247,0.0999,0.6244,0.5245,0.6244,0.5245c0.1249,4.6207,0,6.519-0.0749,6.5939
			c-0.4496,0.4746-0.6244-0.0749-0.6494-0.1249"/>
		<path class="st7" d="M35.1712,34.888c-0.0749-0.3996,0.6494-1.4237,0.5994-2.4977"/>
		<path class="st7" d="M36.3951,33.2645c0.2248,0.6244,0.3247,1.1739,0.2747,1.6984"/>
		<path class="st8" d="M37.3692,25.9962c0.1499-0.1748,0.1499-0.1748,0.4246-0.1748c0.05-0.3747,0.6744-0.3747,0.7243,0.0999
			c0.4995-0.0999,0.5994,0.1998,0.3996,0.4995c0.4746-0.1249,0.8992,0,0.7743,0.5495c0.8492,0.2248,0.5245,0.8242,0.1499,0.9491
			c-0.05,0.3747-0.3996,0.4995-0.8742,0.3497c-0.5994,0.4246-0.9491,0.2747-1.2239-0.1499c-0.6744,0.0999-0.7243-0.05-1.0241-0.4246
			c-0.5245,0.2248-0.6244,0.2248-1.074-0.05c-0.025,0.3497-0.1499,0.2498-0.3747,0.2248c0.025,0.4496-0.1499,0.6494-0.5495,0.4995
			c0.2997,0.6244-0.4746,0.8992-0.8492,0.3747c-0.3497,0.025-0.3747-0.0749-0.5495-0.1998
			c-0.1499,0.4995-0.6994,0.4246-0.7993,0.1499c-0.6994-0.0999-0.6244-0.4746-0.05-0.4995c0.05-0.3996,0.3996-0.3247,0.6244-0.2747
			c0.025-0.2498,0.1748-0.1998,0.2997-0.1499c-0.0749-0.1748-0.025-0.2747,0.1998-0.3247
			c-0.3247-0.4246-0.1249-0.5745,0.1998-0.7243c-0.1748-0.3996,0.1249-0.3747,0.3497-0.3996
			c-0.025-0.4246,0.0999-0.4995,0.5495-0.5495c-0.05-0.1499,0.025-0.2747,0.2747-0.2747c-0.1499-0.4246,0.05-0.522,0.4995-0.4496
			c0.0749-0.6169,1.3987-0.3247,1.2988,0.5245C37.1444,25.6216,37.2693,25.6965,37.3692,25.9962z"/>
		<g>
			<path class="st7" d="M34.6966,25.7714c0.0999,0.05,0.2248,0,0.2498,0.2747c0.1998-0.3497,0.4496-0.1499,0.4496,0.2498"/>
			<path class="st7" d="M36.7697,25.5716c-0.0999,0.1499-0.4746,0.1499-0.4246,0.5495c-0.1249-0.1748-0.3747-0.2248-0.4746-0.05"/>
			<path class="st7" d="M37.3692,25.9962c0,0.0999-0.025,0.3996-0.1249,0.5495"/>
			<path class="st7" d="M38.9177,26.4208c0.025,0.025-0.3497,0-0.5245,0.1249"/>
			<path class="st7" d="M39.8419,27.9194c-0.0999-0.05-0.2997-0.1748-0.4496,0.025c0-0.0999,0-0.3747-0.2747-0.3747"/>
			<path class="st7" d="M38.9677,28.2691c0-0.2498-0.05-0.3247-0.0999-0.3996"/>
			<path class="st7" d="M38.1435,27.9194c-0.1998-0.1499-0.3996,0.0749-0.3996,0.1998"/>
			<path class="st7" d="M36.6948,27.6946c0-0.0999-0.0749-0.2997,0.0999-0.3747"/>
			<path class="st7" d="M33.8474,28.7437c0.05-0.2498,0.2248-0.2498,0.1998-0.3747c-0.025-0.1998-0.2498-0.3747-0.5245-0.0999"/>
			<path class="st7" d="M34.0472,28.369c0.1499-0.05,0.2997-0.025,0.3497,0.05"/>
			<path class="st7" d="M33.6226,27.4449c0.0999-0.0999,0.3497-0.0749,0.4995,0"/>
			<path class="st7" d="M34.1222,26.8454c0.1249,0,0.3497-0.05,0.4246,0.1748c0.2747-0.4246,0.4746-0.3747,0.5245-0.2747"/>
			<path class="st7" d="M35.5708,26.6956c0.1998-0.0749,0.5495,0.1249,0.7493,0.4746c0.0999-0.2747,0.2498-0.2248,0.3996-0.2498"/>
			<path class="st7" d="M37.6689,27.1701c0.3247-0.1499,0.5245,0.1499,0.6244,0.2747c0.1499-0.1998,0.2747-0.1998,0.4246-0.1998"/>
			<path class="st7" d="M34.6467,27.7696c0.0749-0.1249,0.2498-0.1499,0.3747-0.0749c-0.025-0.2248,0.1249-0.3247,0.2248-0.2747"/>
		</g>
	</g>
	<g id="stars_1_">
		<path class="st9" d="M35.6707,22.5644l-0.5495,0.025l-0.2747,0.492l-0.2997-0.4696l-0.5495,0.0225l0.2498-0.4945l-0.2997-0.4696
			l0.5745-0.025l0.2498-0.492l0.2997,0.4696l0.5495-0.0225l-0.2498,0.4945L35.6707,22.5644z"/>
		<path class="st9" d="M33.3229,22.7467l-0.5495,0.1349l-0.1499,0.532l-0.3996-0.3996l-0.5245,0.1299l0.1499-0.532l-0.3747-0.4046
			l0.5245-0.1324l0.1499-0.5345l0.3996,0.3996l0.5495-0.1299l-0.1748,0.5345L33.3229,22.7467z"/>
		<path class="st9" d="M31.05,23.2138l-0.4995,0.2473l-0.025,0.5545l-0.4746-0.3047l-0.4995,0.2448l0.05-0.5545l-0.4746-0.3072
			l0.4995-0.2498l0.05-0.5545l0.4496,0.3047l0.4995-0.2448l-0.025,0.5545L31.05,23.2138z"/>
		<path class="st9" d="M36.3951,22.5644l0.5495,0.025l0.2498,0.492l0.2997-0.4696l0.5495,0.0225l-0.2498-0.4945l0.2997-0.4696
			l-0.5495-0.025l-0.2747-0.492l-0.2997,0.4696l-0.5495-0.0225l0.2498,0.4945L36.3951,22.5644z"/>
		<path class="st9" d="M38.7429,22.7467l0.5245,0.1349l0.1499,0.532l0.3996-0.3996l0.5245,0.1299l-0.1499-0.532l0.3996-0.4046
			l-0.5495-0.1324l-0.1499-0.5345L39.4922,21.94l-0.5245-0.1299l0.1499,0.5345L38.7429,22.7467z"/>
		<path class="st9" d="M40.9908,23.2138l0.4995,0.2473l0.025,0.5545l0.4746-0.3047l0.4995,0.2448l-0.025-0.5545l0.4496-0.3072
			l-0.4995-0.2498l-0.025-0.5545l-0.4746,0.3047l-0.4995-0.2448l0.05,0.5545L40.9908,23.2138z"/>
	</g>
	<g id="motto_1_">
		<g>
			<path class="st4" d="M41.6652,33.789l0.6244,0.8992l0.5745-0.8492l-0.3996-0.7243L41.6652,33.789z"/>
			<path class="st4" d="M37.6939,36.4116l0.05,0.8992c0,0,0.2498,0,0.4746-0.0749c0.1998-0.0749,0.3747-0.2248,0.3747-0.2248
				l-0.025-0.4746L37.6939,36.4116z"/>
			<path class="st4" d="M34.347,36.4116l-0.05,0.8742c0,0-0.2248,0-0.4496-0.05c-0.1998-0.05-0.3747-0.1748-0.3747-0.1748
				l-0.2498-0.5994L34.347,36.4116z"/>
			<path class="st4" d="M30.3257,33.789l-0.6494,0.8992l-0.6994-1.1489l0.5245-0.5495L30.3257,33.789z"/>
			<path class="st4" d="M33.4478,38.2099c0,0.8492,5.1452,0.8492,5.1452,0V37.011c0,0.6244-5.1452,0.4995-5.1452,0V38.2099z"/>
			<path class="st4" d="M28.8521,35.4375c0.4496,2.2979,4.5957,2.3478,4.5957,2.3478V37.011
				c-0.0999-0.2997,0.0749-0.3996,0.7493-0.4995c0.2747-0.025,0.1499-0.4246,0.1499-0.4246s-1.7983,0.3247-3.0722-0.1748
				c-1.7234-0.6994-1.9732-2.0481-1.9732-2.0481S29.1768,34.9129,28.8521,35.4375z"/>
			<path class="st4" d="M43.1638,35.4375c-0.4246,2.2979-4.5708,2.3478-4.5708,2.3478V37.011
				c0.0749-0.2997-0.0999-0.3996-0.7743-0.4995c-0.2747-0.025-0.1249-0.4246-0.1249-0.4246s1.7983,0.3247,3.0722-0.1748
				c1.6984-0.6994,1.8982-2.0481,1.8982-2.0481S42.8391,34.9129,43.1638,35.4375z"/>
			<path class="st4" d="M29.1768,34.5633c-1.1489-0.6244-0.2498-1.2738-0.1499-3.1221c0.1748,1.124,1.4487,1.5985,1.2988,2.3228
				c-0.5245,0.025-0.7743-0.7743-1.024,0.0999L29.1768,34.5633z"/>
			<path class="st4" d="M42.8391,34.5633c1.1489-0.6494,0.1998-1.2738,0.0999-3.1221c-0.1748,1.124-1.4237,1.5985-1.2738,2.3228
				c0.4995,0.025,0.7493-0.7743,0.9991,0.0999l0.1748,0.6744V34.5633z"/>
		</g>
		<g>
			<path d="M29.8761,35.4125l0.1249,0.0999l-0.2747,0.2997c-0.11,0.12-0.1366,0.1993-0.0602,0.2724
				c0.0948,0.0907,0.1615,0.0592,0.26-0.0476l0.2997-0.3247l0.0999,0.0999l-0.2994,0.3494c-0.1626,0.1897-0.3135,0.1463-0.44,0.0281
				c-0.1103-0.103-0.1735-0.2523-0.0113-0.4359l0.3022-0.3397L29.8761,35.4125z"/>
			<path d="M30.3757,35.8371l0.1249,0.0749l-0.025,0.5994l0.2747-0.4246l0.1249,0.0749l-0.3996,0.6494l-0.1499-0.0749l0.025-0.5994
				l-0.2747,0.4246l-0.1249-0.0749L30.3757,35.8371z"/>
			<path d="M30.6004,36.8861l0.3497-0.6994l0.1249,0.0749l-0.3247,0.6744L30.6004,36.8861z"/>
			<path d="M31.1499,36.2867l-0.2757,0.7238l0.2757,0.1004c0.257,0.0937,0.3777-0.0195,0.4593-0.2368
				c0.0824-0.221,0.0465-0.3836-0.2106-0.487L31.1499,36.2867z M31.2488,36.462c0.2585,0.0899,0.2742,0.1881,0.2038,0.3657
				c-0.0682,0.1686-0.1319,0.2345-0.3777,0.1079L31.2488,36.462z"/>
			<path d="M31.9742,36.5614l-0.4496,0.6744l0.1738,0.051l0.1004-0.1753l0.2997,0.0749l0.0255,0.1753l0.1738,0.024l-0.1738-0.7988
				L31.9742,36.5614z M32.0236,36.7368l0.0495,0.2997l-0.1993-0.0255L32.0236,36.7368z"/>
			<path d="M32.4013,36.6264l-0.0271,0.774l0.294,0.0058c0.2733,0.0052,0.351-0.1404,0.3576-0.3724
				c0.0068-0.236-0.0801-0.3785-0.3571-0.3925L32.4013,36.6264L32.4013,36.6264z M32.5512,36.7607
				c0.2738,0.0011,0.3207,0.0885,0.311,0.2796c-0.0091,0.1817-0.0488,0.2645-0.3218,0.224L32.5512,36.7607L32.5512,36.7607z"/>
			<path d="M35.0213,37.7104v0.7988h0.1753v-0.2997c0,0,0.1499,0.009,0.2742-0.024c0.0982-0.0255,0.1663-0.0884,0.1686-0.2435
				c0.0022-0.1521-0.0862-0.2315-0.239-0.2315h-0.3797H35.0213z M35.1967,37.8347l0.1761,0.0022
				c0.1469,0,0.1191,0.2225,0.0045,0.2225h-0.1806V37.8347L35.1967,37.8347z"/>
			<path d="M35.9205,37.7104l-0.3252,0.7988h0.1753l0.0749-0.1993h0.3252l0.0749,0.1993h0.1738l-0.3247-0.7993H35.92
				L35.9205,37.7104z M35.9954,37.8857l0.1244,0.2997H35.895L35.9954,37.8857z"/>
			<path d="M36.4201,38.3598l0.4246-0.5245H36.47v-0.1249h0.5994v0.1249l-0.4496,0.5245h0.4496v0.1499h-0.6494V38.3598z"/>
			<path d="M38.9427,36.8112l0.1499-0.025l0.0749,0.4496c0.0266,0.1599-0.0464,0.2689-0.1602,0.3108
				c-0.1296,0.0478-0.2949,0.0041-0.3144-0.2109l0.1249-0.025c0.0291,0.1287,0.0809,0.1398,0.1408,0.1197
				c0.0476-0.016,0.0721-0.0909,0.059-0.1696L38.9427,36.8112z"/>
			<path d="M39.1925,36.7662l0.1479-0.028l0.0684,0.3741c0.0293,0.1601,0.0795,0.2282,0.1836,0.21
				c0.1292-0.0226,0.1434-0.0949,0.1159-0.2375l-0.0919-0.3991l0.1513-0.0228l0.1004,0.4152
				c0.0587,0.2428-0.0681,0.3391-0.2384,0.3709c-0.1483,0.0277-0.306-0.01-0.3577-0.2495L39.1925,36.7662z"/>
			<path d="M39.9668,37.1109l0.1249-0.05c0.0613,0.11,0.1569,0.1044,0.2312,0.0715c0.1032-0.0456,0.115-0.1359,0.064-0.1664
				c-0.0728-0.0436-0.2465,0.0183-0.3401-0.0158c-0.1119-0.0408-0.16-0.1038-0.1543-0.2006
				c0.0069-0.1166,0.1094-0.1806,0.2209-0.2152c0.1248-0.0387,0.2479-0.025,0.3279,0.1269l-0.1499,0.05
				c-0.0488-0.0821-0.1115-0.0782-0.1673-0.0519c-0.0466,0.022-0.1195,0.0634-0.0805,0.13
				c0.0319,0.0545,0.2154,0.0191,0.3122,0.0231c0.1,0.0041,0.1808,0.0708,0.1943,0.167c0.0189,0.1341-0.0308,0.2067-0.1858,0.2672
				C40.1729,37.3213,40.0002,37.2377,39.9668,37.1109L39.9668,37.1109z"/>
			<path d="M40.6411,36.4865l-0.1998,0.0999l-0.05-0.1249l0.5495-0.2248l0.05,0.0999l-0.1998,0.0999l0.2248,0.5495l-0.1249,0.0749
				L40.6411,36.4865z"/>
			<path d="M40.9658,36.2117l0.1249-0.0749l0.3497,0.6494l-0.1249,0.0749L40.9658,36.2117z"/>
			<path d="M41.8151,36.2617l0.1499-0.05c0.0705,0.1482-0.0353,0.4175-0.2941,0.4119c-0.3787-0.0081-0.4197-0.4253-0.3602-0.5629
				c0.1-0.2311,0.3802-0.2267,0.5044-0.0988l-0.1249,0.0999c-0.0792-0.1016-0.2551-0.0376-0.267,0.0559
				c-0.0194,0.1525,0.0478,0.2944,0.1841,0.3617C41.7229,36.5366,41.9011,36.3931,41.8151,36.2617L41.8151,36.2617z"/>
			<path d="M41.7401,35.7372l0.1249-0.0999l0.4496,0.5994l-0.1249,0.0999L41.7401,35.7372z"/>
			<path d="M42.2147,35.3625l-0.1244,0.1004l0.2742,0.7493l0.1244-0.1244L42.414,35.938l0.2248-0.2008l0.1499,0.0749l0.1259-0.0989
				L42.2147,35.3625z M42.2641,35.5379l0.2503,0.1244l-0.1499,0.1499L42.2641,35.5379z"/>
		</g>
	</g>
</g>
</svg>
