<?xml version="1.0" encoding="utf-8"?>
<!-- Generator: Adobe Illustrator 21.1.0, SVG Export Plug-In . SVG Version: 6.00 Build 0)  -->
<svg version="1.1" id="Layer_1" xmlns="http://www.w3.org/2000/svg" xmlns:xlink="http://www.w3.org/1999/xlink" x="0px" y="0px"
	 viewBox="0 0 60 60" style="enable-background:new 0 0 60 60;" xml:space="preserve">
<style type="text/css">
	.st0{fill:#FFFFFF;}
	.st1{fill:#0061AA;}
</style>
<g>
	<g>
		<path class="st0" d="M54.9449,46.6641H5.0558c1.6871,2.5208,3.7463,4.7683,6.0976,6.6699h37.6911
			C51.1978,51.4324,53.257,49.1849,54.9449,46.6641z"/>
		<path class="st0" d="M59.811,33.3348H20.0011h-6.6686H0.1897C0.4463,35.6458,0.9642,37.8772,1.714,40h56.5718
			C59.0364,37.8772,59.5537,35.6458,59.811,33.3348z"/>
		<path class="st0" d="M33.3322,26.6661H59.811c-0.2573-2.3118-0.7747-4.5426-1.5252-6.6653H33.3322V26.6661z"/>
		<path class="st0" d="M33.3322,13.332v0.0019h21.6127c-1.6866-2.5181-3.7438-4.7649-6.095-6.6672H33.3322V13.332z"/>
		<path class="st1" d="M11.1534,53.334C16.3049,57.4993,22.8596,60,29.9999,60c7.1403,0,13.695-2.5007,18.8445-6.666H11.1534z"/>
		<path class="st1" d="M58.2858,40H1.714c0.8403,2.3728,1.9653,4.6088,3.3417,6.664h49.8892
			C56.3192,44.6089,57.4456,42.3728,58.2858,40z"/>
		<path class="st1" d="M13.3325,20.0008H1.714C0.6083,23.1287,0,26.4918,0,29.999c0,1.1271,0.067,2.2388,0.1897,3.3358h13.1428
			V20.0008z"/>
		<path class="st1" d="M33.3322,20.0008h24.9536c-0.8375-2.3728-1.9653-4.6109-3.3409-6.6668H33.3322V20.0008z"/>
		<path class="st1" d="M33.3322,20.0008H20.0011v13.334H59.811C59.9329,32.2379,60,31.1261,60,29.999
			c0-1.1278-0.0671-2.2374-0.189-3.333H33.3322V20.0008z"/>
		<path class="st1" d="M20.0011,13.332h13.3311V6.6668h15.5177C43.6983,2.5008,37.1416,0,29.9999,0
			c-3.5078,0-6.8709,0.6071-9.9988,1.7135V13.332z"/>
		<path class="st1" d="M13.3325,5.0539c-3.2713,2.1911-6.0864,5.0075-8.2767,8.2782h8.2767V5.0539z"/>
		<path class="st0" d="M13.3325,33.3348h6.6686v-13.334h13.3311V13.334V13.332H20.0011V1.7135
			c-2.3741,0.8396-4.6122,1.9646-6.6686,3.3404v8.2782H5.0558c-1.3764,2.0578-2.5035,4.2953-3.3417,6.6687h11.6184V33.3348z"/>
	</g>
</g>
</svg>
