<?xml version="1.0" encoding="utf-8"?>
<!-- Generator: Adobe Illustrator 22.0.0, SVG Export Plug-In . SVG Version: 6.00 Build 0)  -->
<svg version="1.1" id="Layer_1" xmlns="http://www.w3.org/2000/svg" xmlns:xlink="http://www.w3.org/1999/xlink" x="0px" y="0px"
	 viewBox="0 0 60 60" style="enable-background:new 0 0 60 60;" xml:space="preserve">
<style type="text/css">
	.st0{clip-path:url(#SVGID_2_);fill:#00247D;}
	.st1{clip-path:url(#SVGID_4_);fill:#00247D;}
	.st2{clip-path:url(#SVGID_6_);fill:#FFFFFF;}
	.st3{clip-path:url(#SVGID_8_);fill:#FFFFFF;}
	.st4{clip-path:url(#SVGID_10_);fill:#CF142B;}
	.st5{clip-path:url(#SVGID_12_);fill:#CF142B;}
	.st6{fill:#6A4C2D;stroke:#000000;stroke-width:0.0916;}
	.st7{fill:#FFFFFF;stroke:#000000;stroke-width:0.0916;}
	.st8{fill:url(#SVGID_13_);stroke:#000000;stroke-width:0.0916;}
	.st9{fill:#656263;stroke:#000000;stroke-width:0.0916;}
	.st10{stroke:#000000;stroke-width:0.1145;stroke-linejoin:round;stroke-opacity:0.9785;}
	.st11{fill:#FFBB00;stroke:#000000;stroke-width:0.091;}
	.st12{fill:#FFBB00;stroke:#000000;stroke-width:0.0916;}
	.st13{fill:#00713D;stroke:#000000;stroke-width:0.0916;}
	.st14{fill:none;stroke:#3EC26D;stroke-width:0.1145;stroke-linecap:round;}
	.st15{fill:#006B00;stroke:#000000;stroke-width:0.0916;}
	.st16{fill:#FFC900;stroke:#006B00;stroke-width:0.0631;stroke-linecap:round;}
	.st17{fill:#CDAD56;stroke:#000000;stroke-width:0.1145;stroke-linejoin:round;}
	.st18{fill:#CDAD56;stroke:#000000;stroke-width:0.1006;stroke-linejoin:round;}
	.st19{fill:#FFC900;}
	.st20{fill:#FFC900;stroke:#006B00;stroke-width:0.0631;stroke-linecap:round;stroke-linejoin:round;}
	.st21{fill:none;stroke:#006B00;stroke-width:0.1145;stroke-linecap:round;}
	.st22{fill:#E80000;stroke:#006B00;stroke-width:0.1145;stroke-linecap:round;}
	.st23{fill:#006B00;}
	.st24{fill:#FFC900;stroke:#FFC900;stroke-width:0.1145;stroke-linecap:round;stroke-linejoin:round;}
	.st25{fill:#E80000;stroke:#006B00;stroke-width:0.1145;stroke-linejoin:round;}
	.st26{fill:#E80000;stroke:#006B00;stroke-width:0.0916;stroke-linejoin:round;}
	.st27{fill:#FFC900;stroke:#006B00;stroke-width:0.0916;stroke-linejoin:round;}
	.st28{fill:none;}
	.st29{fill:url(#SVGID_14_);}
	.st30{fill:#C01500;stroke:#000000;stroke-width:0.0916;}
	.st31{fill:#C01500;stroke:#000000;stroke-width:0.091;}
	.st32{fill:#1E5AA6;stroke:#000000;stroke-width:0.0916;}
	.st33{fill:#1E5AA6;stroke:#000000;stroke-width:0.0887;}
	.st34{font-family:'Arial-BoldMT';}
	.st35{font-size:0.7962px;}
	.st36{font-size:0.7516px;}
	.st37{font-size:0.7679px;}
	.st38{font-size:0.7839px;}
	.st39{fill:none;stroke:#FFF700;stroke-width:0.0916;stroke-linecap:round;}
	.st40{fill:url(#SVGID_15_);stroke:#000000;stroke-width:0.0916;}
	.st41{fill:#FF7000;stroke:#000000;stroke-width:0.0916;}
	.st42{fill:none;stroke:#000000;stroke-width:0.0916;}
	.st43{fill:#FFFFFF;stroke:#000000;stroke-width:0.1145;stroke-linejoin:round;}
	.st44{fill:none;stroke:#FFFFFF;stroke-width:0.1145;stroke-linecap:round;}
	.st45{fill:#C75B00;stroke:#000000;stroke-width:0.0916;}
	.st46{fill:#CCCCCD;stroke:#CCCCCC;stroke-width:0.0916;}
	.st47{fill:#0000FF;stroke:#000000;stroke-width:0.0916;}
	.st48{fill:#CCCCCD;stroke:#CCCCCC;stroke-width:0.0868;}
	.st49{fill:#923F00;stroke:#000000;stroke-width:0.0916;}
	.st50{fill:#FFFEFF;stroke:#000000;stroke-width:0.0916;}
	.st51{fill:#5E0043;stroke:#000000;stroke-width:0.0916;}
	.st52{fill:#474747;stroke:#474747;stroke-width:0.1145;stroke-linejoin:round;}
	.st53{fill:none;stroke:#000000;stroke-width:0.1145;stroke-linecap:round;}
	.st54{fill:#B4B6B9;stroke:#000000;stroke-width:0.0916;}
	.st55{fill:url(#SVGID_16_);stroke:#000000;stroke-width:0.0916;}
	.st56{fill:#FF7000;stroke:#000000;stroke-width:0.0916;stroke-linejoin:round;}
	.st57{fill:#FF7000;stroke:#000000;stroke-width:0.1145;stroke-linejoin:round;}
	.st58{fill:url(#SVGID_17_);stroke:#000000;stroke-width:0.0916;}
	.st59{fill:url(#SVGID_18_);stroke:#000000;stroke-width:0.0916;}
	.st60{fill:#8A9396;stroke:#2B2B2B;stroke-width:0.0916;}
	.st61{fill:#CECFCF;stroke:#2B2B2B;stroke-width:0.0916;}
	.st62{fill:none;stroke:#2B2B2B;stroke-width:0.0572;}
	.st63{fill:#2B2B2B;stroke:#2B2B2B;stroke-width:0.0916;}
	.st64{fill:none;stroke:#2B2B2B;stroke-width:0.0916;}
	.st65{fill:#2B2B2B;stroke:#2B2B2B;stroke-width:0.1145;stroke-linejoin:round;}
	.st66{fill:#8A9396;stroke:#2B2B2B;stroke-width:0.1145;stroke-linejoin:round;}
	.st67{fill:none;stroke:#8A9396;stroke-width:0.1145;stroke-linecap:round;}
	.st68{fill:none;stroke:#2B2B2B;stroke-width:0.1145;stroke-linecap:round;}
</style>
<g>
	<g>
		<g>
			<g>
				<g>
					<defs>
						<circle id="SVGID_1_" cx="30" cy="30" r="30"/>
					</defs>
					<clipPath id="SVGID_2_">
						<use xlink:href="#SVGID_1_"  style="overflow:visible;"/>
					</clipPath>
					<rect id="rect2414_2_" x="-30.4259" y="-0.2126" class="st0" width="120.8518" height="60.4256"/>
				</g>
			</g>
		</g>
	</g>
	<g>
		<g>
			<g>
				<g>
					<defs>
						<circle id="SVGID_3_" cx="30" cy="30" r="30"/>
					</defs>
					<clipPath id="SVGID_4_">
						<use xlink:href="#SVGID_3_"  style="overflow:visible;"/>
					</clipPath>
					<rect id="rect124_2_" x="-30.4259" y="-0.2126" class="st1" width="60.4259" height="30.2127"/>
				</g>
			</g>
		</g>
	</g>
	<g>
		<g>
			<g>
				<g>
					<defs>
						<circle id="SVGID_5_" cx="30" cy="30" r="30"/>
					</defs>
					<clipPath id="SVGID_6_">
						<use xlink:href="#SVGID_5_"  style="overflow:visible;"/>
					</clipPath>
					<path id="path146_2_" class="st2" d="M-30.4259-0.2126v3.3771L23.2445,30H30v-3.3775L-23.6704-0.2126H-30.4259z M30-0.2126
						v3.3771L-23.6704,30h-6.7555v-3.3775L23.2445-0.2126H30z"/>
				</g>
			</g>
		</g>
	</g>
	<g>
		<g>
			<g>
				<g>
					<defs>
						<circle id="SVGID_7_" cx="30" cy="30" r="30"/>
					</defs>
					<clipPath id="SVGID_8_">
						<use xlink:href="#SVGID_7_"  style="overflow:visible;"/>
					</clipPath>
					<path id="path136_2_" class="st3" d="M-5.2483-0.2126v30.2127h10.071V-0.2126H-5.2483z M-30.4259,9.8578v10.0709H30V9.8578
						H-30.4259z"/>
				</g>
			</g>
		</g>
	</g>
	<g>
		<g>
			<g>
				<g>
					<defs>
						<circle id="SVGID_9_" cx="30" cy="30" r="30"/>
					</defs>
					<clipPath id="SVGID_10_">
						<use xlink:href="#SVGID_9_"  style="overflow:visible;"/>
					</clipPath>
					<path id="path141_2_" class="st4" d="M-30.4259,11.8722v6.0424H30v-6.0424H-30.4259z M-3.234-0.2126v30.2127h6.0422V-0.2126
						H-3.234z"/>
				</g>
			</g>
		</g>
	</g>
	<g>
		<g>
			<g>
				<g>
					<defs>
						<circle id="SVGID_11_" cx="30" cy="30" r="30"/>
					</defs>
					<clipPath id="SVGID_12_">
						<use xlink:href="#SVGID_11_"  style="overflow:visible;"/>
					</clipPath>
					<path id="path150_2_" class="st5" d="M-30.4259,30.0001l20.1421-10.0714h4.5037l-20.1418,10.0714H-30.4259z M-30.4259-0.2126
						l20.1421,10.0704h-4.5037l-15.6384-7.8185V-0.2126z M5.3542,9.8578L25.4963-0.2126H30L9.8579,9.8578H5.3542z M30,30.0001
						L9.8579,19.9286h4.504L30,27.748V30.0001z"/>
				</g>
			</g>
		</g>
	</g>
</g>
<g transform="matrix(0.621 0 0 0.621 461.4 21.482)">
	<path class="st6" d="M-676.6229,37.7105c0,0-0.3068,0.8096-0.4818,0.8096s-0.8096-0.3498-0.8096-0.3498
		s-0.4598,0.7446-0.7006,0.7876c-0.2408,0.044-0.8755-0.109-0.8755-0.109s-0.6127,0-0.6347-0.0879
		c-0.022-0.087,0.022-0.2619,0.022-0.2619s-0.8754,0.6997-1.0724,0.6557c-0.197-0.043-0.8536-0.8746-0.8536-0.8746l-0.1094,0.4378
		l-1.2474-0.044l-1.0944-0.7006c0,0-0.6128,1.0065-0.6346,0.9845c-0.0219-0.022-1.0724,0.2409-1.0724,0.2409l-0.0656-0.1969
		l-0.7004-0.4158c0,0,0.5471-0.7656,0.5471-0.7876c0-0.022-0.2626-0.1099-0.2626-0.1099l-0.3939,0.3288l-0.8098,0.5248
		l-0.8098-0.3718l0.3502-0.6567l0.0438-0.4817l0.6347-0.9625l7.7694-7.5511l3.83,7.0693L-676.6229,37.7105L-676.6229,37.7105z"/>
	<path class="st7" d="M-671.1031,38.1684l2.0222-0.0733l-0.8609-0.4249l7.7059-0.2903l-1.0889-0.4149l-0.9644-1.3069l-3.993-0.3004
		c0,0-0.3004-0.228-0.7885-0.1145c-0.0201-0.3105-0.3939-0.7153-0.3939-0.7153l-2.4581-0.1868l-1.535,1.0477l1.0367,2.655
		L-671.1031,38.1684L-671.1031,38.1684z"/>
	
		<linearGradient id="SVGID_13_" gradientUnits="userSpaceOnUse" x1="-1498.295" y1="-146.2618" x2="-1498.1486" y2="-142.1387" gradientTransform="matrix(0.9378 0 0 -0.4048 729.8579 -44.5091)">
		<stop  offset="0" style="stop-color:#474747"/>
		<stop  offset="1" style="stop-color:#FF5500"/>
	</linearGradient>
	<path class="st8" d="M-678.972,15.5216l0.2033-0.6924c0,0,0.3563-0.6008,0.3563-0.8664c0-0.2647,0.2656-0.5797,0.2656-0.5797
		s0.8142-0.2345,0.9873,0.2647c0.8765-1.3243,1.9049-0.0614,1.9049-0.0614l0.2849-0.3361l0.5806-0.7125
		c0,0,0.8252,0.7739,0.8353,0.9058c0.0101,0.1328,0.142,0.0412,0.142,0.0412l0.8966-0.0714c0,0,0.4249,0.3334,0.3361,0.9671
		c0.316,0.1868,0.6008,1.2831,0.6008,1.2831S-678.972,15.5216-678.972,15.5216z"/>
	<path class="st9" d="M-671.1022,23.7604c0.1548-0.0943,0.642-0.2491,0.5825-0.9616c-0.0596-0.7125-0.6768-0.7959-1.0212-0.7721
		c-0.3453,0.0238-0.6539,0.3205-0.6539,0.3205l-1.1402-0.7244c0,0,0.5706-3.5992,1.176-3.8245
		c0.5751-0.4149,0.6768-0.5944,0.6768-0.6887c0-0.0952-0.2134-0.3334-0.2134-0.3334l-3.7183-0.4396l-3.5159,0.4158
		c0,0-0.2729,0.4158-0.2372,0.5825c0.0357,0.1658,0.0476,0.3444,0.6768,0.8316c0.6969,0.5358,1.1759,3.6111,1.1759,3.6111
		s-0.9854,0.4863-1.045,0.4268c-0.0595-0.0586-0.3563-0.1181-0.511-0.0943c-0.1538,0.0238-0.6649,0.2848-0.6649,0.9616
		c0,0.6777,0.511,1.0697,0.511,1.0697s3.3611-0.392,3.8602,0.5339C-674.6767,23.559-671.4823,23.9509-671.1022,23.7604z"/>
	<path class="st10" d="M-667.481,20.0192c0,0,0.0375-0.3911,0.3159-0.577c0.2794-0.1859,2.1394-0.2793,2.5864,0
		c0.446,0.2793,0.6136,1.6558,0.6136,1.6558s0.2794,0.4836,0.2977,0.8371s0.0558,0.5953,0.0558,0.5953s1.4882,1.9352,1.5065,3.6835
		c0.1676,1.1906,0.1301,4.3713-0.3343,5.5802c-0.0192,1.5075-0.6511,2.4929-0.6511,2.4929s0.1484,0.2601,0.1301,0.5394
		c-0.0193,0.2793-0.1676,0.5394-0.1676,0.5394l2.176,1.0789l-0.7996-0.2976c0,0,0.8188,0.6887,0.7996,0.6704
		c-0.0183-0.0192-0.9113-0.4286-0.9113-0.4286l0.5394,0.5394c-0.0183-0.0183-1.3207-0.5953-1.3207-0.5953s0.6136,0.577,0.577,0.5587
		c-0.0376-0.0183-0.9864-0.4652-0.9864-0.4652s0.5953,0.6328,0.577,0.5953c-0.0183-0.0376-0.8553-0.3718-0.8553-0.3718l0.0366,0.316
		c0,0-0.6695-0.0375-0.6695-0.5394c-0.3352-0.1859-0.5577-0.4469-0.5577-0.4469l-1.5441-0.2601l-1.7492-5.2276l0.4094-8.836
		l0.1118-0.446L-667.481,20.0192L-667.481,20.0192z"/>
	<path class="st11" d="M-668.6496,48.2573c0,0-0.8957-1.8839-1.3417-1.9104c-0.403-0.7684,1.4003-7.0483,4.8887-7.4064
		c1.9177,0.1575,0.1575,2.2108-1.1036,1.5789c0.1575,0.5522,0.7876,1.3426,0.7876,1.3426S-667.9142,42.9408-668.6496,48.2573
		L-668.6496,48.2573z"/>
	<path class="st12" d="M-680.658,48.532c0,0,0.7418-2.1449,1.1915-2.1714c0.4506-0.0266-1.1915-7.1481-4.7653-7.2012
		c-1.9328,0.1594-0.1589,2.2237,1.1119,1.5881c-0.1588,0.5568-0.7942,1.3509-0.7942,1.3509S-681.399,43.1835-680.658,48.532z"/>
	<path class="st13" d="M-677.3793,35.1361c-0.0092-0.0174-0.8875,0.2757-0.3187,1.2318c0.043-0.37,0.4387-0.5944,0.4387-0.5944
		s-0.6026,0.7153,0.0349,1.3179c0.0778-0.5687,0.4396-0.7492,0.4396-0.7492s-0.4478,1.3179,0.0082,1.5844
		c0.0522-0.5257,0.3874-0.7574,0.3874-0.7574s-0.4048,1.1796-0.043,1.4461c0.043-0.4469,0.3444-0.6457,0.3444-0.6457
		s-0.1804,1.2236,0.293,1.3096c0.0092-0.4314,0.3535-0.8526,0.3535-0.8526s-0.1556,0.9983,0.5853,1.0422
		c0.0092-0.3792,0.1465-0.8096,0.1465-0.8096s0.3361,1.0587,0.827,0.8865c-0.0082-0.3096,0.0082-0.8957,0-0.8957
		c-0.0092,0,0.3096,1.0074,0.8957,0.8188c-0.0861-0.2848,0.0339-0.6209,0.0339-0.6209s0.3105,0.6292,0.8701,0.4222
		c0.0953-0.1896-0.0256-0.5596-0.0256-0.5596s0.8178,0.8444,1.0679,0.3361c0.25-0.5083-0.6548-0.6805-0.6548-0.6805h0.6118
		c0,0-0.1979-0.5165-1.0248-0.6292c0.2839-0.1291,0.577-0.0339,0.577-0.0339s-0.1722-0.6466-1.0166-0.7153
		c0.3279-0.1117,0.6896-0.0339,0.6896-0.0339s-0.1126-0.6118-1.0422-0.784c0.1465-0.1639,0.5422-0.1117,0.5422-0.1117
		s-0.37-0.577-0.7922-0.5431C-673.5731,35.55-677.3885,35.1278-677.3793,35.1361L-677.3793,35.1361z"/>
	<g>
		<g>
			<path class="st14" d="M-673.6161,38.2453c0,0,0.3361,0.1639,0.3278,0.3105"/>
			<path class="st14" d="M-673.4174,37.9788c0,0,0.4304,0.3013,0.4222,0.5248"/>
			<path class="st14" d="M-673.0392,37.8231c0,0,0.3453,0.2152,0.3618,0.5513"/>
			<path class="st14" d="M-672.4622,37.9614c0,0,0.1731,0.37,0.1127,0.4387"/>
			<path class="st14" d="M-672.1169,38.1592c0.0256,0.2931-0.0266,0.3187-0.0266,0.3187"/>
		</g>
		<path class="st14" d="M-676.3637,36.3074c0,0,0.4048,0.2583,0.3709,0.62"/>
		<path class="st14" d="M-676.3893,36.6179c0,0,0.1896,0.1804,0.1465,0.3013"/>
		<path class="st14" d="M-675.8893,36.3166c0,0,0.2665,0.37,0.1804,0.6283"/>
		<path class="st14" d="M-675.4332,36.5574c0,0,0.1209,0.2326,0.0092,0.3618"/>
		<path class="st14" d="M-675.218,36.6692c0,0,0.1465,0.2326,0.0174,0.3105"/>
		<path class="st14" d="M-675.381,37.4357c0,0,0.3782,0.0861,0.4304,0.37"/>
		<path class="st14" d="M-675.1575,37.1775c0,0,0.3965,0.0256,0.4396,0.4478"/>
		<path class="st14" d="M-674.6318,37.0309c0.0082,0,0.2665,0.457,0.2234,0.6026"/>
		<path class="st14" d="M-674.1235,37.074c0,0,0.1025,0.4396,0.0256,0.577"/>
		<path class="st14" d="M-673.7966,37.2461c0,0.0092,0.0082,0.5083,0.0082,0.5083"/>
		<path class="st14" d="M-674.2957,36.5574c0,0,0.2491,0.0943,0.2317,0.3361"/>
		<path class="st14" d="M-674.064,36.3331c0,0,0.3187,0.1813,0.2849,0.5257"/>
		<path class="st14" d="M-673.6931,36.1874c0,0,0.2757,0.327,0.1722,0.6887"/>
		<path class="st14" d="M-673.2114,36.2644c0,0-0.1026,0.4048-0.0605,0.5687"/>
		<path class="st14" d="M-672.9183,36.54c0,0-0.1804,0.1383-0.0861,0.3105"/>
		<path class="st14" d="M-674.4853,38.1162c0,0,0.0595,0.3105,0,0.3618"/>
		<path class="st14" d="M-674.8818,37.9358c0,0,0.1978,0.3444,0.1291,0.5165"/>
		<path class="st14" d="M-675.3041,37.9184c0,0,0.2244,0.2583,0.2152,0.4652"/>
		<path class="st14" d="M-675.6484,37.9697c0,0,0.207,0.1987,0.1896,0.3105"/>
		<path class="st14" d="M-675.8289,38.271c0,0,0.1978,0.207,0.1887,0.25"/>
	</g>
	<path class="st7" d="M-680.1131,24.1323c0.9497-0.0174,1.8994-0.0339,2.8491-0.0513c0,0,1.8821,0,2.0854,0.6109
		c0.3563-0.8142,1.9837-0.7629,1.9837-0.7629c0.9836-0.0339,1.9672-0.0678,2.9499-0.1017c0.0174,2.3738,0.0339,4.7477,0.0513,7.1215
		c-0.5761,2.7631-2.5772,4.7138-4.7816,5.5445c-2.6285-0.8481-4.2898-3.069-4.832-5.5958
		C-679.9098,28.6428-680.0115,26.3871-680.1131,24.1323L-680.1131,24.1323z"/>
	<path class="st15" d="M-679.0984,24.1057l4.1497,11.0578l3.7485-11.2987c-1.1631,0.0751-3.6578-0.1832-3.9674,0.8774
		C-675.6475,23.7934-678.2723,24.1762-679.0984,24.1057z"/>
	<path class="st16" d="M-676.2739,30.0925c0.1603,0.0833,0.1557-3.0012,0.3654-3.0964c0.0595-0.2555,0.0897-0.3673,0.1649-0.6383
		c-0.1804-0.3196-0.9882-0.3041-1.2877-0.0321c0.1346,0.4304,0.1942,0.5742,0.1942,0.5742
		C-676.4324,27.5548-676.513,30.1621-676.2739,30.0925z"/>
	<path class="st17" d="M-677.3857,6.2522c0,0,0.2939-0.3332,0.3068-0.413c0.0137-0.08,1.3326-0.1333,2.1183-1.5989
		c0.4396-0.7728,0-0.3198,0-0.3198l-0.0266-0.3731c0,0,0.5468-0.5196,0.3471-0.7994c-0.2006-0.2798-0.1337,0.3598-0.4534,0.3465
		c-0.3196-0.0134-0.1465-0.6928-0.1465-0.6928s-0.0266-0.08-0.12-0.1199c-0.1337,0.0133-0.0934,0.2532-0.2134,0.2798
		c-0.12,0.0267-0.2263-0.5596-0.2263-0.5596s-0.1996-0.2665-0.3737,0.5729c0.0934,0.8927,0.6667,0.7195,0.6667,1.3058
		c0,0.5862-0.5065,1.0392-0.653,1.0526c-0.1465,0.0133-0.0934-0.493-0.0934-0.493s-0.0797-0.2399-0.1328-0.2399
		s0.2931-0.0533,0.24-0.7195c-0.12-0.7994-0.2134,0.1866-0.4268,0.1465c-0.2134-0.0399-0.0531-0.7328,0.0266-0.8127
		c0.0797-0.08-0.0934-0.413-0.5596,0.4397c-0.0403,0.413-0.0934-0.1066-0.1868-0.08c-0.1594,0.3331-0.1328,0.5729,0.0934,0.8794
		c0.3334,0.3064,0.5468,0.6129,0.533,0.7728c-0.0128,0.1599-0.1868,0.5196-0.4259,0.5196c-0.2399,0,0.0128-0.4397,0-0.5863
		c-0.0137-0.1465-0.413-0.6795-0.413-0.6795s-0.2803-0.4531-0.2537-0.4663c0.0266-0.0134-0.0266-0.08-0.1594,0.3864
		c-0.1337,0.4663-0.294-0.3064-0.294-0.3064s-0.1859,0.5729,0.2134,0.9193c-0.3058-0.0399-0.3325,0.08-0.3325,0.08
		c0,0.1599,0.4131,0.2265,0.4662,0.5063c0.0531,0.2799-0.4268,0.4397-0.4268,0.4397s0.2006,0.2798,0.7592-0.2664
		c0.0137,0.3464-0.2125,0.5862-0.2125,0.5862C-677.5588,6.0434-677.4124,6.0345-677.3857,6.2522L-677.3857,6.2522z"/>
	<path class="st18" d="M-679.2137,6.2522c0,0-0.2491-0.3697-0.2601-0.4425c-0.0119-0.0727-1.2254,0.092-1.7994-1.3882
		c-0.3735-0.7032,0-0.291,0-0.291l0.0226-0.3395c0,0-0.3974-0.4861-0.2277-0.7407c0.1697-0.2546,0.0999,0.3273,0.3182,0.3285
		c0.2714-0.0121,0.1245-0.6305,0.1245-0.6305s0.0226-0.0727,0.1019-0.1091c0.1129,0.0121,0.1595,0.3769,0.2612,0.4011
		c0.1017,0.0243,0.3123-0.4293,0.3783-0.5225c0.0934-0.0133,0.0897-0.3757,0.2372,0.3881
		c-0.0788,0.8123-0.7519,0.6547-0.7519,1.1882c0,0.5334,0.4295,0.9456,0.5541,0.9578c0.1245,0.0121,0.0797-0.4486,0.0797-0.4486
		s0.0678-0.2182,0.1127-0.2182c0.0458,0-0.3956,0.0847-0.3499-0.5215c0.1016-0.5675,0.327,0.0365,0.5083,0.0001
		c0.1813-0.0364-0.0211-0.6001,0.0311-0.6862c0.0119-0.0861,0.2784-0.4558,0.3819,0.3601c0.0339,0.3759,0.239-0.3235,0.3178-0.2992
		c0.1365,0.3031-0.0596,0.7079-0.2519,0.9867c-0.283,0.2788-0.4112,0.5843-0.3993,0.7298c0.011,0.1454,0.0779,0.3262,0.2821,0.3262
		c0.2033,0,0.0687-0.2535,0.0797-0.3868s0.3508-0.5651,0.3508-0.5651c0.0668-0.1065,0.011-0.3056,0.0815-0.3977
		c0.1108,0.0012,0.1566-0.1527,0.2692,0.2716c0.1136,0.4243,0.2491-0.2789,0.2491-0.2789s0.1584,0.5214-0.1813,0.8366
		c0.2601-0.0364,0.283,0.0727,0.283,0.0727c0,0.1455-0.1237,0.2061-0.1694,0.4607c-0.0458,0.2546,0.1356,0.4001,0.1356,0.4001
		s-0.1694,0.2546-0.6448-0.2425c-0.0119,0.3152,0.1813,0.5335,0.1813,0.5335C-679.0673,6.0623-679.1909,6.0541-679.2137,6.2522z"/>
	<path class="st19" d="M-671.8926,25.7551c-0.2482-0.2253-0.2775-0.0284-0.3993-0.0788c-0.0604-0.0247-0.1072-0.0806-0.1594-0.1319
		c-0.0449-0.0467-0.0989-0.0659-0.1584-0.0907c-0.0229,0.0669-0.0449,0.1328-0.0677,0.1997s0.0632,0.1777,0.0613,0.2775
		c-0.0174,0.1484-0.0778,0.272-0.2646,0.3224c0.0531-0.1053,0.0833-0.1099,0.0668-0.239c-0.0073-0.0641-0.1877-0.1786-0.1658-0.239
		c0.033-0.098,0.0898-0.2106,0.0476-0.3086c-0.076,0.0522-0.1768,0.0247-0.2527,0.0568c-0.065,0.0284-0.0687,0.1484-0.1584,0.1978
		c-0.0916,0.043-0.294,0.022-0.4634-0.0742c0.1035-0.0778,0.1887-0.0256,0.2922-0.1035c0.0513-0.0394,0.0494-0.207,0.1008-0.2464
		c0.0522-0.0394,0.1758-0.0806,0.2271-0.12c-0.0467-0.0531-0.0439-0.1365-0.0907-0.1896c-0.0458-0.0531-0.2518-0.0421-0.2985-0.0943
		c-0.0934-0.1062-0.0751-0.2454-0.1685-0.3508c0.2408,0.0861,0.2061,0.2033,0.2665,0.1942c0.1136-0.055,0.2272-0.065,0.2867-0.0403
		c0.0604,0.0256,0.174,0.174,0.2335,0.1987c0.0229-0.0669,0.0559-0.1511,0.0779-0.218c0.0229-0.0669-0.1008-0.1823-0.0788-0.2491
		c0.0458-0.1328,0.1575-0.2509,0.2024-0.3847c0.0165,0.1291,0.0376,0.2372,0.0541,0.3654c0.0082,0.0641,0.1346,0.098,0.1428,0.1621
		c0.0082,0.065-0.0659,0.2134-0.0586,0.2784c0.0696-0.0137,0.1694-0.0046,0.2381-0.0183c0.0696-0.0137,0.1154-0.174,0.1841-0.1877
		c0.1383-0.0275,0.2382-0.0192,0.3783,0.0073c-0.1035,0.0962-0.1832,0.0898-0.2482,0.1777
		c-0.0513,0.0394,0.0201,0.1685-0.1292,0.2592c-0.0558,0.033-0.2033-0.0064-0.2555,0.033c0.0467,0.0531,0.0934,0.1053,0.1401,0.1584
		c0.0458,0.0531,0.2546,0.0778,0.3013,0.131C-671.9164,25.5152-671.8669,25.6416-671.8926,25.7551L-671.8926,25.7551z"/>
	<path class="st19" d="M-678.2732,25.8641c0.2482-0.2253,0.2775-0.0284,0.4002-0.0788c0.0595-0.0256,0.1063-0.0815,0.1584-0.1319
		c0.0449-0.0467,0.0989-0.0659,0.1584-0.0916c0.0229,0.0669,0.0458,0.1337,0.0677,0.2006c0.0229,0.0669-0.0623,0.1768-0.0604,0.2766
		c0.0165,0.1493,0.0769,0.272,0.2637,0.3233c-0.0531-0.1053-0.0833-0.1108-0.0668-0.239c0.0082-0.0641,0.1877-0.1786,0.1658-0.24
		c-0.033-0.0971-0.0898-0.2106-0.0477-0.3086c0.077,0.0531,0.1768,0.0256,0.2537,0.0568c0.0641,0.0293,0.0687,0.1493,0.1575,0.1987
		c0.0925,0.043,0.2949,0.022,0.4634-0.0742c-0.1035-0.0788-0.1887-0.0256-0.2921-0.1044c-0.0513-0.0385-0.0486-0.207-0.1008-0.2454
		c-0.0513-0.0394-0.1749-0.0815-0.2271-0.1209c0.0467-0.0522,0.0439-0.1365,0.0906-0.1896
		c0.0468-0.0522,0.2528-0.0412,0.2986-0.0943c0.0934-0.1053,0.076-0.2445,0.1685-0.3508c-0.2408,0.0861-0.2051,0.2033-0.2656,0.1951
		c-0.1145-0.055-0.2281-0.0659-0.2876-0.0403c-0.0595,0.0247-0.174,0.1731-0.2335,0.1987c-0.0229-0.0669-0.055-0.1511-0.0779-0.218
		c-0.0229-0.0669,0.1017-0.1823,0.0788-0.2491c-0.0449-0.1337-0.1575-0.2509-0.2025-0.3847
		c-0.0165,0.1282-0.0375,0.2363-0.054,0.3654c-0.0082,0.0641-0.1346,0.098-0.1429,0.1621
		c-0.0073,0.0641,0.0669,0.2134,0.0587,0.2775c-0.0696-0.0137-0.1694-0.0046-0.2382-0.0174
		c-0.0687-0.0147-0.1144-0.1749-0.1841-0.1887c-0.1382-0.0275-0.2372-0.0192-0.3782,0.0073
		c0.1035,0.0971,0.1832,0.0898,0.2482,0.1786c0.0513,0.0394-0.0201,0.1685,0.1291,0.2592c0.0559,0.033,0.2043-0.0064,0.2556,0.033
		c-0.0467,0.0522-0.0934,0.1053-0.1392,0.1584c-0.0467,0.0531-0.2555,0.0778-0.3013,0.1301
		C-678.2494,25.6242-678.2988,25.7506-678.2732,25.8641L-678.2732,25.8641z"/>
	<path class="st20" d="M-672.1151,26.4677c-0.2253,0.1749-1.6769,0.5422-1.6925,1.8033c-0.0146,1.2611,0.2546,1.5487-0.0146,1.5807
		c-0.5239,0-0.5989-1.4049-0.5843-2.0277c0.0156-0.6228,0.0302-0.5266,0.0302-0.5266s0.359,0.0952,0.3297,0.3993
		c-0.0302,0.3031,0.359-0.751,0.2244-1.0376c0.2391,0.239,0.5541,0.1438,0.5541,0.1273c0-0.0156-0.1795-0.207-0.2546-0.3508
		c-0.0751-0.1438,0.2693,0.0797,0.2693,0.0797s0.0146-0.24-0.2849-0.2235c-0.3892,0,0.0604-0.1282,0.0604-0.1282
		s0.2244,0.2079,0.3746-0.0156c-0.1649-0.1758-0.4048-0.272-0.4048-0.272s-0.2097-0.3984-0.4937-0.4781
		c-0.3297-0.0806-0.2848,0.1429-0.6594,0.1117c-0.0742,0.1429-0.0742,0.1594,0.0751,0.207
		c-0.2546,0.1758-0.1199,0.5266-0.1199,0.5266s0.4048-0.1749,0.3892,0.1117c-0.0146,0.2876-0.2391,0.2399-0.3892,0.0641
		c-0.1346-0.0797-0.1795,0.0797-0.1795,0.0797l0.2097,0.2235c0,0-0.4039-0.0156-0.5092,0.2555
		c0.2244-0.0156,0.3444,0.0485,0.3444,0.0485s-0.4644,0.207-0.5092,0.3187s-0.0595-0.1273-0.0742-0.1273
		c-0.0156,0-0.4497-0.1603-0.4497-0.1603l-0.1502,0.6905c0,0,0.3004,0.2995,0.4644,0.2033
		c0.1649-0.0952,0.4643-0.3828,0.6438-0.3031c-0.5239,0.3993-1.0477,0.9735-1.3325,1.0541
		c-0.0742-0.0641-0.3288-0.3196-0.4341-0.1923c-0.1044,0.1282-0.0294,0.2876,0.1053,0.272
		c0.1346-0.0165-0.4341,0.1273-0.3151,0.3673c0.12,0.239,0.1053,0.2235,0.2098,0.1594c0.1053-0.0641-0.0898-0.0797,0.2994-0.1914
		c0.3892-0.1117,0.3746-0.2235,0.3746-0.2235s-0.0751,0.1749-0.2848,0.2235c-0.2097,0.0476-0.3737,0.0476-0.3288,0.1117
		c0.0449,0.0632,0.1346,0.1749,0.1044,0.239c-0.0302,0.0641,0.4341-0.3352,0.5541-0.0156c0.3141-0.0165,0.5238-0.3993,0.3746-0.6228
		c0.0146,0.239,0.1649,0.3196,0.0742,0.4314c-0.0897,0.1117,0.7043-0.3673,0.3151-0.6548c0.1044,0.239,0.1199,0.4314,0.1199,0.4314
		s0.1795-0.0165,0.2244-0.0806c0.0449-0.0632-0.0898,0.1758-0.0303,0.2235c0.0596,0.0485,0.3444,0.3196,0.2244,0.511
		c-0.0742-0.1117-0.0898-0.2876-0.1795-0.2711c-0.0898,0.0156-0.4644,0.2876-0.6887,0.3031s0.2692,0.8307,0.2692,0.8307
		s-0.3444-0.0485-0.3892-0.0165s-0.2692-0.2876-0.3141-0.0952c-0.0751,0.239,0.0751,0.1429,0.0751,0.1429
		s-0.1951-0.0952-0.2995,0.0165c-0.1053,0.1117-0.2097,0.2235-0.1346,0.2711c0.0742,0.0476,0.4039,0.0476,0.4487,0.0321
		s-0.3746,0.0321-0.4039,0.0797c-0.0302,0.0476-0.0898,0.2235,0,0.2876c0.0897,0.0641,0.3141-0.0321,0.3288-0.0797
		c0.0156-0.0485,0.0302,0.1749,0.0302,0.1749s0.3892,0.0321,0.3892-0.3663c0-0.3993,0.0302,0.2867,0.0302,0.2867
		s0.3892,0.0641,0.4039-0.3352c0.0156-0.3984,0.0449,0.272,0.0449,0.272s0.2546-0.0806,0.2546-0.1438
		c0-0.0641-0.0146,0.7977-0.1942,1.0376c-0.2849-0.1923-0.4644,0.1273-0.4644,0.1273s0.0146,0.4625-0.0156,0.5742
		c-0.0293,0.1117,0.1951-0.0632,0.2097-0.1117c0.0156-0.0476,0.2849-0.1749,0.2995-0.207c0.0156-0.0321,0.0898-0.1914,0.0898-0.1914
		s-0.0596,0.2235-0.1639,0.2555c-0.1053,0.0311-0.2098,0.1429-0.1649,0.239c0.0449,0.0962,0.2097,0.1594,0.2692,0.2555
		c0.0596,0.0952,0.2693-0.5587,0.2693-0.5587l0.0156,0.1438c0,0,0.2692-0.0641,0.2994-0.1914
		c0.0294-0.1282-0.2848-0.2399-0.0302-0.4469c0.2546-0.2079,0,0.1914,0,0.1914s0.0898,0.3031,0.1493,0.3031
		c0.0604,0,0.2097-0.5751,0.0604-0.718c-0.1501-0.1438,0.2244,0.1749,0.2244,0.1749s0.2097-0.5907-0.0146-0.6704
		c-0.2253-0.0797-0.3297-0.1117-0.3297-0.1117s0.1199-0.1594,0.0595-0.1749c-0.0595-0.0165,0.3151,0.3508,0.3746,0.2546
		c0.0605-0.0952,0.1502-0.3828-0.2839-0.5422c-0.4351-0.1594-0.0156-0.6072-0.0156-0.6072s0.2701,0.3196,0.4643,0.1438
		c0.1942-0.1749-0.0146-0.1749-0.0146-0.1749s0.5532-0.3517,0.5687-0.5275c-0.1053-0.0156-0.2848,0.0165-0.2848,0.0165
		s0.315-0.2079,0.2399-0.5431c-0.12,0.1758-0.2849,0.1758-0.2849,0.1758s0.2702-0.2711,0.2244-0.5266
		c-0.1639,0.1273-0.1493,0.2235-0.2546,0.1914c-0.1044-0.0321-0.2839-1.0376,0.1356-1.1018
		c0.4185-0.0632,0.1942,0.4955,0.2088,0.4955c0.0156,0,0.6292-0.2555,0-0.6704c0.1502-0.0485,0.4644,0.239,0.4644,0.239
		s-0.1346-0.7024-0.8087-0.2711c0.1649-0.1758,0.2702-0.2876,0.4048-0.2555c0.1346,0.0321,0.6136-0.0165,0.6136-0.1594
		c-0.1191-0.0962-0.3737,0.0476-0.5092,0C-673.1189,27.0895-672.0254,27.0098-672.1151,26.4677L-672.1151,26.4677z"/>
	<path class="st21" d="M-676.8619,26.8818c0,0,0.5991-0.3352,0.8984,0.0803"/>
	<path class="st21" d="M-675.7239,27.6003c-0.0152,0-0.2098,0.2075-0.2548,0.2075"/>
	<path class="st21" d="M-675.3195,28.2708c0,0,0.5536,0.048,0.913-0.5427"/>
	<path class="st21" d="M-674.7209,28.0951c0,0,0.045,0.3196,0.1349,0.3196c0.0895,0-0.1496,0.0798-0.2396,0.0156
		c0.1047,0.1439,0.1648,0.3994,0,0.4948"/>
	<path class="st22" d="M-675.0056,32.1179c0,0-0.1946,0.2231-0.4343,0.2393"/>
	<path class="st21" d="M-674.7806,31.0961c0,0-0.1198-0.6382-0.045-0.7982c0.045-0.2075,0.2396-0.2873,0.3893-0.5584"/>
	<path class="st21" d="M-674.8408,30.6331c0,0-0.1497,0.3832-0.8083,0.2555"/>
	<path class="st21" d="M-674.6608,29.6753c0,0,0.0445,0.5109-0.5541,0.3196"/>
	<path class="st21" d="M-675.3948,27.3771c0,0-0.2396,0.2231-0.1497,0.5266"/>
	<path class="st23" d="M-674.4965,26.8182c0,0,0.3145-0.1277,0.3746-0.1919c0.0596-0.0636,0.1648-0.1913,0.1946-0.2873
		c0.0298-0.0954-0.2098-0.2393-0.09-0.4468c0.0748-0.0958,0.1795-0.1117,0.3594,0c0.1795,0.1115-0.1648-0.3511-0.3442-0.3671
		c-0.18-0.016-0.2998,0.1277-0.3443,0.0957c-0.045-0.0319,0.0147,0.1277-0.0601,0.1277s0.1496,0.1277,0.1349,0.2077
		c-0.0151,0.0798,0.2391,0.3509,0.2245,0.415C-674.0623,26.435-674.4217,26.8021-674.4965,26.8182z"/>
	<path class="st24" d="M-674.2715,25.7647c0.1365-0.0332,0.1584,0.0036,0.1345,0.1277
		C-674.2011,25.8579-674.2246,25.8289-674.2715,25.7647z"/>
	<path class="st25" d="M-675.2281,32.8765c0,0-0.0504,0.3342,0.0729,0.3618c-0.0063-0.1293,0.0264-0.2174,0.0567-0.2518
		C-675.1249,32.9735-675.2222,32.8786-675.2281,32.8765L-675.2281,32.8765z"/>
	<path class="st25" d="M-675.5059,32.4652c-0.1135-0.0172-0.3046,0.0829-0.2499,0.2039c0.0924-0.0845,0.1775,0.0068,0.2421-0.0792
		C-675.4941,32.5658-675.4995,32.4954-675.5059,32.4652L-675.5059,32.4652z"/>
	<path class="st25" d="M-675.5068,32.2264c0,0-0.1785-0.0302-0.2034,0.1017c0.1232-0.0167,0.1599-0.0308,0.201-0.0031
		C-675.4976,32.2968-675.5088,32.2332-675.5068,32.2264L-675.5068,32.2264z"/>
	<path class="st26" d="M-676.2634,30.3437c0,0,0.1071,0.0428,0.1375,0.1595C-676.0408,30.447-676.0002,30.1993-676.2634,30.3437z"/>
	<path class="st26" d="M-676.5284,30.6279c0.0044-0.0021,0.2244-0.1444,0.2469-0.0083c-0.0464,0.0495-0.067,0.0819-0.1032,0.0928
		C-676.413,30.7123-676.4697,30.6195-676.5284,30.6279z"/>
	<path class="st26" d="M-676.5504,31.0893c0.0039-0.0021,0.1414-0.1314,0.1942-0.0454c0.0523,0.0865-0.0425,0.0819-0.0425,0.0819
		S-676.4472,31.1023-676.5504,31.0893z"/>
	<path class="st26" d="M-676.7446,28.52c-0.002,0-0.176-0.0714-0.2489,0.0579c0.1154,0.0151,0.156,0.0584,0.2083,0.1017
		C-676.7993,28.6253-676.8233,28.5434-676.7446,28.52z"/>
	<path class="st26" d="M-677.082,29.4876c0,0,0.0078-0.2174,0.1046-0.306c0.0548,0.0323,0.0709,0.0839,0.1076,0.1486
		C-676.9426,29.3474-677.0399,29.3521-677.082,29.4876L-677.082,29.4876z"/>
	<path class="st26" d="M-676.6174,29.3323c0,0-0.1917,0.0949-0.1291,0.1986c0.0626-0.0714,0.1315-0.0495,0.1315-0.0516
		S-676.615,29.3349-676.6174,29.3323z"/>
	<path class="st27" d="M-676.8942,27.2499c-0.0689,0.0824,0.0851,0.2612,0.2465,0.2351
		C-676.6071,27.2911-676.8536,27.19-676.8942,27.2499z"/>
	<path class="st28" d="M-676.8962,26.8751c-0.0338,0.0912,0.1003,0.2195,0.178,0.1835
		C-676.6868,26.9647-676.861,26.8026-676.8962,26.8751z"/>
	<path class="st26" d="M-676.7162,27.1013c0,0,0.0303,0.1533,0.1697,0.1121c-0.022-0.1184-0.1193-0.207-0.1193-0.207
		C-676.6717,27.0414-676.6458,27.0951-676.7162,27.1013z"/>
	<path class="st26" d="M-676.6233,27.5455c0,0,0.0768,0.0881,0.2284-0.0928c-0.0685,0.0214-0.1898-0.0433-0.1898-0.0433
		S-676.5847,27.5346-676.6233,27.5455z"/>
	<path class="st27" d="M-676.903,26.8985c-0.0685,0.0819,0.0289,0.196,0.1902,0.1705
		C-676.6722,26.8751-676.8624,26.8386-676.903,26.8985z"/>
	
		<linearGradient id="SVGID_14_" gradientUnits="userSpaceOnUse" x1="-1643.0045" y1="-105.7944" x2="-1642.9944" y2="-107.7039" gradientTransform="matrix(0.7648 0 0 -0.4964 580.6954 -27.6246)">
		<stop  offset="0" style="stop-color:#B50000"/>
		<stop  offset="1" style="stop-color:#FFC500"/>
	</linearGradient>
	<path class="st29" d="M-676.8381,26.1325c0,0,0.6447-0.1841,0.9872,0.0925c0.3416,0.2757,0.3416,0.0256,0.3416,0.0256
		s0.5001,0.1841,0.6448,0.1447c0.1447-0.0394-0.1053,0.0137,0.0916-0.1053c0.1978-0.1181-0.3947,0.0266-0.4469-0.2235
		c-0.0925-0.1575,0.0128-0.3553-0.1969-0.2894c-0.1447-0.1841,0.0916-0.315,0.0394-0.5129
		c-0.1447,0.1053-0.2244-0.0394-0.3425,0.2235c-0.2757-0.0522-0.0394-0.4341-0.3416-0.4735c0,0.2766-0.2234,0.2894-0.2372,0.4478
		C-676.4296,25.5536-677.0084,25.8962-676.8381,26.1325z"/>
	<path class="st30" d="M-684.256,47.1015c0.4182-0.1007,2.6839,0.501,3.5576,1.4369c-0.1859-1.6677-0.6476-2.9453-0.6476-2.9453
		s-1.3502-0.3856-1.5356-0.1996C-683.1534,45.6792-683.9699,46.5373-684.256,47.1015z"/>
	<path class="st30" d="M-684.9467,39.3974c-0.1588,0.0266-0.3177,0.1328-0.4765,0.3975c-0.1854,0.4497-0.3177,1.5881-0.5825,1.8527
		s-0.5031,0.2912-0.5031,0.5303c0,0.2381,0.0266,0.794,0.7414,1.0056c0.7148,0.0266,1.8533-1.1384,1.8533-1.1384
		s0.5825-0.6356,0.8207-1.3234C-684.4702,41.198-685.4497,39.9268-684.9467,39.3974L-684.9467,39.3974z"/>
	<path class="st31" d="M-665.0357,46.8359c-0.4149-0.0998-2.7063,0.4982-3.5736,1.4287c0.1841-1.6577,0.6429-2.9288,0.6429-2.9288
		c0.1603-0.043,1.3252-0.3828,1.5093-0.1978C-666.1878,45.4218-665.3196,46.2754-665.0357,46.8359z"/>
	<path class="st31" d="M-664.3937,39.1767c0.1575,0.0266,0.2134,0.2335,0.3425,0.4973c0.1832,0.4469,0.3728,1.099,0.6356,1.3619
		c0.2628,0.2638,0.4991,0.653,0.4991,0.8902s-0.055,0.5568-0.7647,0.7675c-0.7089,0.0266-1.7374-0.8847-1.7374-0.8847
		s-0.5779-0.631-0.8142-1.3161C-664.8663,40.9672-663.9816,39.7473-664.3937,39.1767L-664.3937,39.1767z"/>
	<path class="st12" d="M-685.741,45.6462c0,0,1.4296,0.979,1.4562,1.4296c3.8392-5.6928,13.635-7.4668,19.2207-0.3975
		c0.7418-0.9799,1.5093-1.2968,1.5093-1.2968C-669.4317,37.7031-681.1343,38.6565-685.741,45.6462z"/>
	<g transform="translate(-.0000071526 .000045776)">
		<path class="st32" d="M-671.1764,23.8666l0.5596-0.0137l-0.9991,1.2657l1.1988,1.3994l-2.3583,2.971l2.2255,2.6779
			c-0.2446,0.5999-0.5284,1.1457-0.9067,1.6393l-1.2785-1.4131l2.3179-2.8904l-1.9049-2.1586
			C-672.3221,27.3441-671.1764,23.8666-671.1764,23.8666z"/>
		<path class="st32" d="M-679.1707,24.1194l-0.5999,0.0137l1.1191,1.2117l-1.1851,1.4791l2.4645,2.6788l-2.0386,2.731
			c0.2445,0.5999,0.5953,1.2657,0.9726,1.7584l1.2126-1.5322l-2.4911-2.7713l1.8253-2.318
			C-677.8913,27.3706-679.1707,24.1194-679.1707,24.1194z"/>
		<path class="st32" d="M-676.3994,31.3142l-0.8792,1.1723l3.1441,3.6377c0.555-0.2802,0.9909-0.5999,1.4662-0.9854l-1.6393-1.8921
			l0.6667-1.959l0.9589,1.1054l-2.9976,3.8245c-0.5019-0.2134-1.0569-0.5468-1.5587-0.9598l1.5853-2.0112L-676.3994,31.3142
			L-676.3994,31.3142z"/>
		<path class="st32" d="M-677.372,29.489l0.5733,0.7198l-0.3737-0.9726L-677.372,29.489z"/>
		<path class="st33" d="M-673.2681,30.1255c0.0119-0.0137,0.4625-0.6136,0.4625-0.6136l-0.1749-0.239L-673.2681,30.1255z"/>
	</g>
	<g>
		<text transform="matrix(1.0446 -1.2255 1.2255 1.0446 -684.3303 46.1304)" class="st34 st35">L</text>
		<text transform="matrix(1.1308 -1.1464 1.1464 1.1308 -683.8302 45.489)" class="st34 st35">E</text>
		<text transform="matrix(1.3012 -0.9291 0.9684 1.2866 -683.3508 44.8738)" class="st34 st36">O</text>
		<text transform="matrix(1.334 -0.9019 0.9019 1.334 -682.3326 44.0059)" class="st34 st35">T</text>
		<text transform="matrix(1.4528 -0.6945 0.6945 1.4528 -681.7868 43.58)" class="st34 st35">E</text>
		<text transform="matrix(1.4712 -0.6547 0.6547 1.4712 -681.0885 43.1269)" class="st34 st35">R</text>
		<text transform="matrix(1.494 -0.6009 0.6009 1.494 -680.342 42.711)" class="st34 st35">R</text>
		<text transform="matrix(1.6047 -0.1337 0.1337 1.6047 -676.4697 41.5373)" class="st34 st35">R</text>
		<text transform="matrix(1.6101 0.0241 -0.0241 1.6101 -674.1686 41.4105)" class="st34 st35">R</text>
		<text transform="matrix(1.3995 0.7965 -0.7965 1.3995 -669.537 42.4086)" class="st34 st35">R</text>
		<text transform="matrix(1.2371 1.0308 -1.0308 1.2371 -667.3541 43.6656)" class="st34 st35">E</text>
		<text transform="matrix(1.6089 0.3024 -0.2593 1.5893 -668.694 42.934)" class="st34 st37">O</text>
		<text transform="matrix(1.4752 -0.2153 0.2232 1.5948 -675.6647 41.4586)" class="st34 st38">O</text>
		<text transform="matrix(1.5104 -0.5585 0.5585 1.5104 -679.5309 42.3224)" class="st34 st35">A</text>
		<text transform="matrix(1.1348 1.1425 -1.1425 1.1348 -666.0338 44.7366)" class="st34 st35">A</text>
		<text transform="matrix(1.5788 0.3171 -0.3171 1.5788 -672.7355 41.47)" class="st34 st35">A</text>
		<text transform="matrix(1.5826 -0.2975 0.2975 1.5826 -678.7533 42.0014)" class="st34 st35">M</text>
		<text transform="matrix(1.6017 -0.1667 0.1667 1.6017 -677.2339 41.6347)" class="st34 st35">P</text>
		<text transform="matrix(1.6098 -0.0411 0.0411 1.6098 -674.8615 41.4168)" class="st34 st35">P</text>
		<text transform="matrix(1.4016 0.7929 -0.7929 1.4016 -670.2664 42.0376)" class="st34 st35">P</text>
		<text transform="matrix(1.5997 0.1847 -0.1847 1.5997 -673.2695 41.4347)" class="st34 st35">I</text>
		<text transform="matrix(1.1067 1.1697 -1.1697 1.1067 -665.4858 45.3135)" class="st34 st35">T</text>
		<text transform="matrix(1.2892 0.965 -0.965 1.2892 -668.0435 43.2099)" class="st34 st35">T</text>
		<text transform="matrix(1.5447 0.455 -0.455 1.5447 -671.8876 41.6318)" class="st34 st35">M</text>
		<text transform="matrix(1.0846 1.1903 -1.1903 1.0846 -666.7389 44.0918)" class="st34 st35">G</text>
	</g>
	<g>
		<path class="st39" d="M-666.643,20.1172c0,0,0.5532-0.4735,0.947-0.4872"/>
		<path class="st39" d="M-666.5633,20.0513c0.0128-0.0128,3.3016-0.4735,3.4059-0.5788"/>
		<path class="st39" d="M-666.5505,20.0779c0.0128-0.0137,3.6826-0.316,3.6826-0.316"/>
		<path class="st39" d="M-666.5633,20.0907c0,0,3.906-0.1841,4.1432,0.0137"/>
		<path class="st39" d="M-666.577,20.0779c0,0,3.8282,0.0266,3.8941,0.1181"/>
		<path class="st39" d="M-666.5633,20.0779l3.6826,0.3022"/>
		<path class="st39" d="M-666.6027,20.1044c0.0128,0,3.7485,0.3288,4.1167,0.8023"/>
		<path class="st39" d="M-662.2891,21.5771c-0.0128-0.0128-1.2758-1.513-4.3273-1.4864"/>
		<path class="st39" d="M-666.6027,20.1172c0,0,2.1174,0.1447,2.7878,0.881"/>
		<path class="st39" d="M-666.5633,20.0907c0,0,1.3673-0.2628,2.8015,1.4608"/>
	</g>
	
		<linearGradient id="SVGID_15_" gradientUnits="userSpaceOnUse" x1="-2552.4409" y1="49.401" x2="-2547.9963" y2="49.5869" gradientTransform="matrix(0.3472 0 0 -1.0934 220.6604 82.4753)">
		<stop  offset="0" style="stop-color:#D5DFFF"/>
		<stop  offset="1" style="stop-color:#FFFFFF"/>
	</linearGradient>
	<path class="st40" d="M-667.4251,21.6558c0,0,1.8976,0.0751,1.8976,0.261s-1.4141,0.5394-1.4324,1.3206
		c-0.0183,0.7812,1.0789,0.8371,1.1531,1.8225c0.0742,0.9864-0.8554,1.1347-1.0413,1.3957
		c-0.1868,0.1301-0.6328,1.5249-0.577,2.3436c0.0558,0.8188,0.2976,3.5901,0.7253,4.1487c0.3352,0.2601,0.8371,1.0972,1.3765,0.8371
		c0.5394-0.261,0.1676-1.2089,0.1118-1.4699c-0.0558-0.2601,0.2234-0.6878,0.2234-1.0789c0-0.3911-0.2051-0.707-0.1859-0.7995
		c0.0183-0.0934,1.5066,0.3535,1.4131,1.8225c-0.0925,1.4699-0.6878,1.023-0.6878,1.023s0.1859,1.8051-0.2793,2.0469
		c-0.8371,0.446-1.4507-0.0934-1.4507-0.0934l0.0787,0.3673l-0.6365-0.3297c0,0-0.8188-1.1723-1.0047-1.6934
		c-0.1859-0.5202-0.4094-2.8455-0.3352-3.3483c0.0742-0.5019,0.1301-3.4417,0.0934-3.5901
		c-0.0375-0.1493-0.1859-2.6046-0.0934-2.9765C-667.9828,23.2934-667.4068,21.6559-667.4251,21.6558z"/>
	<path class="st41" d="M-669.4711,21.1723c0,0,1.3207-1.2831,2.0836-1.1347c0.3901,0,0.0183,0.2793,0.0183,0.2793
		s0.6695,0.0559,0.7629,0.3535c0.0183,0.13-0.3168,0.1676-0.3168,0.1676s0.2793,0.0559,0.2976,0.2976
		C-666.6064,21.3774-669.4528,21.1906-669.4711,21.1723z"/>
	<path class="st42" d="M-669.3969,21.1164c0,0,1.4141-0.1859,2.0093-0.7812"/>
	<path class="st42" d="M-667.9645,20.7263c0,0,1.0413-0.0375,1.0413,0.1117"/>
	<path class="st43" d="M-664.2628,35.9429c0,0,0.8929-0.2051,1.1348-0.5211C-662.9788,35.3101-662.1975,36.5941-664.2628,35.9429z"
		/>
	<path class="st44" d="M-664.5045,28.5576c0,0,0.1118,0.6887-0.2042,1.153c-0.1676,0.1859-0.6704,0.5028-0.6704,0.7263
		c0,0.2225,0.1859,0.5202,0.1493,0.7812c-0.0375,0.2601-0.316,0.5211-0.2977,0.7437c0,0.2235,0.316,1.4141,0.2784,1.4324"/>
	<path class="st44" d="M-666.1411,26.3257c0,0-0.707,0.2418-0.8563,0.9488"/>
	<path class="st45" d="M-666.4397,20.7263c0,0,0.2427,0.6695,1.0239,0.0366C-665.9186,20.0751-666.4397,20.7446-666.4397,20.7263z"
		/>
	<path d="M-665.8624,20.6981c0,0.036-0.0375,0.0651-0.0837,0.0651c-0.0463,0-0.0837-0.0292-0.0837-0.0651
		c0-0.036,0.0375-0.0651,0.0837-0.0651C-665.8998,20.633-665.8624,20.6622-665.8624,20.6981z"/>
	<path class="st7" d="M-672.8276,19.1721c0,0,1.4818,1.6036,2.4407,1.5862c0.174,0.4707-0.4359,0.9085-0.6795,1.1173
		c-0.4882-0.1566-0.9296,0.0284-2.0625-1.3655C-673.0584,19.6209-672.8102,19.2069-672.8276,19.1721z"/>
	<path class="st7" d="M-670.8229,15.4419c0.1914-0.5925,0.5751-1.0633,0.9058-1.1155c-0.087-0.4533,0.6979-2.4572,2.9811-3.2247
		c0.1392,1.0285-0.9763,2.0396-0.9763,2.0396s3.3639-0.5751,4.0435-1.4296c-0.0696,0.3837-0.7492,2.7713-4.3402,2.7539
		c1.36,1.2904-0.435,2.3189-1.2025,2.0048C-667.9993,15.3897-669.8118,14.7449-670.8229,15.4419z"/>
	<path class="st46" d="M-669.6726,14.6057c0.6796-0.4359,0.9232-0.4359,1.4819-0.3489c-0.4012,0.0522-0.4012,0.0696-0.4012,0.0696
		s-0.0348,0.0522,0.2089,0.2793C-668.6615,14.5352-668.906,14.3786-669.6726,14.6057z"/>
	<path class="st42" d="M-669.9345,14.3264c0,0,1.3426-0.7144,2.0918-1.2025"/>
	<path class="st47" d="M-671.0848,21.8738c0,0,1.8481,0.5055,2.0569-2.144c-0.4011-1.1503-0.9589-3.6258-0.1044-4.3402
		c-0.7849-0.5403-1.6384,0.0174-1.6384,0.0174c-0.0522,0.1218-0.7501,1.1155,0.1914,2.8583
		c-2.231-0.5925-1.3243,1.5166-1.3243,1.5166c0.087-0.3315,1.2721-0.6447,1.5688,1.0459
		C-670.213,21.2465-671.137,21.8912-671.0848,21.8738z"/>
	<path class="st47" d="M-669.0104,19.7472c0,0,1.9526-1.0459,1.8995-3.5031c-1.6559,0.0348-2.2484,2.1779-2.2484,2.1779
		L-669.0104,19.7472z"/>
	<path class="st7" d="M-677.7603,19.6254c0,0-1.4461,1.2547-2.2658,0.8536c-0.6099,0.3663-1.3245-0.2784-1.3245-0.2784
		s0.8363,3.0845,3.8348,0.8536C-677.568,20.3746-677.7255,19.6776-677.7603,19.6254z"/>
	<path class="st47" d="M-680.0435,20.4268c0.1218-0.6447,0.6273-0.9589,1.0285-0.3489c0.5403,0.1053,1.0807-2.1083-0.8371-1.7428
		c0.5403-2.8931-1.0802-3.9738-1.0802-3.9738s-0.5752,3.2073-0.3138,3.7998c0.2615,0.5925-0.3834-1.0981-2.4576-1.5688
		c-0.0349,2.4233,2.3182,3.5562,2.3182,3.5562S-680.7231,20.7583-680.0435,20.4268z"/>
	<path class="st42" d="M-679.8521,18.3176c0,0-0.9058,0.7675-0.697,1.8134"/>
	<path class="st42" d="M-681.2286,18.2132c0,0-0.2092,0.7492,0.244,1.8124"/>
	<path class="st42" d="M-681.3681,20.2702c0,0,0.4183-0.6796,1.3246,0.1914"/>
	<path class="st7" d="M-681.1938,15.5637c0-0.0174-1.3769,0-0.5578,1.3948c-0.61,0.1914-1.9695-0.697-1.0283-1.883
		c-3.0851-0.0696-4.3401-1.5505-4.3401-2.9105c0.9064,0.9415,3.0677,0.5577,3.8346,1.1329
		c-0.9412-0.871-0.7495-2.0744-0.7495-2.0744s2.632,0.7849,3.1025,3.1203C-681.0892,14.7971-681.1589,15.5985-681.1938,15.5637z"/>
	<path class="st42" d="M-683.311,13.2375c0.5079,0.5165,1.8129,0.6713,2.4753,1.2465"/>
	<path class="st48" d="M-682.7101,14.7623c0,0,1.0804-0.1392,1.3935,0.2436c-0.4227,0-0.5637-0.1044-1.1743,0.1227
		c0.1722-0.0879,0.1252-0.2445,0.2192-0.2445C-682.1778,14.8842-682.6632,14.7623-682.7101,14.7623z"/>
	<path class="st49" d="M-677.3244,6.3088c0,0,0.5925-0.5229,1.2373-0.0523c-0.2913,0.8707-1.3417,0.5403-1.3417,0.5403
		s0.0349,0.4358-0.0696,0.6448c0.2097,0.1582,0.3828,0.6798,0.3828,0.6798s1.0807-0.2615,1.3078,0.2092
		c0.414-0.0571,0.7144,0,0.7144,0s0.8371-0.2092,1.1329-0.2092c0.2967,0,1.2372,0.244,1.3243,0.4183
		c0.0879,0.1743,0.4011,1.3422,0.6108,1.3247c0.2088-0.0174-0.5055,0.2789-0.6979-0.0174
		c-0.1914-0.2964-0.1392,0.3835-0.1392,0.3835s0.5925,0.6274,0.6621,0.7668c0.0696,0.1392-0.3654,1.2721-0.0348,2.057
		c-0.2903,0.0266-0.3132,0.3306-0.3132,0.3306c-0.0165,0.3453-0.4533,0.4359-0.4533,0.4359l-0.1044-0.4707l-0.2967,0.1749
		l0.1218-0.3663c0,0,0.4012-0.9763,0.436-1.2895c0.0348-0.3141-0.3663-0.8719-0.6796-0.8719c-0.3141,0-0.5403,0.9937-0.5403,0.9937
		s-0.1566,0.7492-0.1044,0.8188c0.0522,0.0696-0.2097-0.2436-0.2097-0.2436s-0.1392,0.4533-0.2436,0.5925
		s-0.3315,0.1914-0.3315,0.1914s-0.1566-0.4533-0.1044-0.6273c0.0522-0.174,0.8544-0.8536,0.7849-1.3417
		c-0.0706-0.4881,0-0.3663-0.0183-0.3837c-0.0174-0.0174-0.4177-0.366-0.4351-0.5577c-0.0174-0.1918-0.5229,0.244-1.1851,0.1045
		c-0.2033,0.3542-0.2271,1.2371-0.2271,1.2371s-0.0696,1.0633,0.0696,1.186c0.1401,0.1218-0.348,0.3828-0.348,0.3828l-0.3489,0.4707
		c0,0-0.1218-0.2958-0.1218-0.2784s-0.2445,0.174-0.2445,0.174l0.1401-0.3489c-0.0092-0.2638,0.3389-0.9845,0.3389-1.5945
		s0.0439-1.2637,0.0439-1.2637s-0.6448-0.0349-0.6274,0.6272c0.0175,0.6631-0.1566,0.6979-0.1218,0.8893
		c0.0348,0.1914,0.2088,0.7318,0.1566,0.8893c-0.0522,0.1566-0.261,0.2088-0.261,0.2088l-0.0522,0.087
		c0,0-0.6448,0.2967-0.6274,0.4185s-0.0174-0.3489-0.0174-0.3489l-0.0357-0.5055c0,0,0.3837-0.2436,0.3837-0.8536
		s-0.0879-0.697-0.0705-0.8362c0.0174-0.1401,0.1053-0.6457,0.0879-0.6979c-0.0174-0.0523-0.3654,0.1394-0.4707,0.1394
		c-0.1044,0,0.1923-0.366,0.2271-0.6274c0.0348-0.2615-0.3489,0.244-0.6622-0.0523c0.1456-0.3218,0.3654-0.4184,0.4003-0.6623
		c0.0348-0.244-0.2437,0.2092-0.4882,0.0349c0.0201-0.2339,0.2619-0.4358,0.2619-0.4358s-0.1987-0.0244-0.2793,0
		c-0.1566-0.0523,0.1749-0.2964,0.1923-0.6449c0.0174-0.3486-0.1923-0.488-0.1923-0.5055s-0.348-0.3138-0.4003-0.4358
		c-0.0522-0.122-0.0522-0.2615-0.0522-0.2615s-0.576,0.4184-1.2556-0.4706c0.6228-0.5315,1.2904-0.1395,1.2904-0.1395
		s0.174-0.488,0.9754-0.4532C-677.4462,5.9079-677.2896,6.3611-677.3244,6.3088L-677.3244,6.3088z"/>
	<path class="st47" d="M-672.9394,15.3247c0.0137,0,1.48,0.044,1.4947,0.8279c0.0146,0.783-0.4497,0.5806-0.4644,0.5806
		s-1.0743-0.131-1.0743-0.131L-672.9394,15.3247z"/>
	<path class="st50" d="M-674.3626,15.1067c0,0,1.829-0.0137,1.7273,0.784c-0.1017,0.7986-0.566,0.6393-0.566,0.6393l-0.8856-0.0733
		C-674.0869,16.4566-674.3626,15.1067-674.3626,15.1067z"/>
	<path class="st47" d="M-675.3929,15.0197l1.0596,0.087c0,0,0.6383,0.087,0.6099,0.697c-0.0293,0.6099-0.6539,0.6246-0.6539,0.6246
		l-1.0303-0.0586C-675.4075,16.3696-675.3929,15.0197-675.3929,15.0197z"/>
	<path class="st7" d="M-677.8748,15.3247c-0.0146,0-1.4809,0.044-1.4955,0.8279c-0.0137,0.783,0.4506,0.5806,0.4652,0.5806
		s1.0743-0.131,1.0743-0.131L-677.8748,15.3247z"/>
	<path class="st47" d="M-676.4525,15.1067c0,0-1.8289-0.0137-1.7273,0.784c0.1017,0.7986,0.566,0.6393,0.566,0.6393l0.8856-0.0733
		C-676.7282,16.4566-676.4525,15.1067-676.4525,15.1067z"/>
	<path class="st7" d="M-675.4213,15.0197l-1.0596,0.087c0,0-0.6393,0.087-0.61,0.697s0.653,0.6246,0.653,0.6246l1.0303-0.0586
		L-675.4213,15.0197z"/>
	<path class="st51" d="M-672.584,23.8328c0,0,0.762-1.1228,1.0834-1.0028c0.2803,0.0934,0.0669,0.9625-0.0668,1.0431
		L-672.584,23.8328z"/>
	<path class="st51" d="M-677.8071,24.0334c-0.2399-0.3343-0.588-1.2565-0.9085-1.0028c-0.2811,0.0934-0.0668,0.9625,0.0669,1.0431
		L-677.8071,24.0334z"/>
	<path class="st42" d="M-677.3024,21.8125c0,0,1.4846,0.9149,1.9718,0.9387s2.0313-1.1878,2.0313-1.1878"/>
	<path class="st51" d="M-677.1595,18.226l0.2848-0.3563l1.426,0.7244l1.4489-0.642l0.2849,0.2976l-1.6155,1.1402
		C-675.3306,19.3901-677.1595,18.226-677.1595,18.226z"/>
	<path class="st52" d="M-678.2915,18.2068c0.1154,0.1456,1.0367,1.2657,1.2034,2.1925c0.1658,0.9268-0.0952-1.2712-0.0952-1.2712
		s1.1402,0.5587,1.1759,0.9149s0.5449-0.0238,0.5696-0.0852l-3.3016-2.144L-678.2915,18.2068z"/>
	<path class="st52" d="M-672.6582,18.1427c0,0-1.1998,1.5798-1.0569,3.3016c-0.2473-0.8243-0.0476-2.1852-0.0476-2.1852
		l-0.261,0.1667c0,0-0.2729,1.164-0.6182,1.3417c-0.0577-0.1383-0.0467-0.1896-0.0467-0.1896s-0.3682,0.4744-0.4396,0.522
		c-0.0714,0.0476,0.0238,1.6036,0.0238,1.6036s0.1237,1.1283,0.2656,1.1164c-0.1621,0.0788-0.3608,0.2024-0.3608,0.2024
		l-0.1475-3.0113l0.337-0.3389c0,0,0.4515-0.5458,0.4872-1.0807c-0.196,0.1667-0.4158,0.2143-0.4158,0.2143
		s-0.0595,0.7601-0.2372,0.8664c-0.1786,0.1072-0.1832,0.3059-0.1832,0.3059l-0.0421-0.9937
		C-675.4011,19.9844-672.6582,18.1427-672.6582,18.1427z"/>
	<path class="st53" d="M-675.402,19.9716l0.2326,4.7504"/>
	<path class="st42" d="M-678.3236,22.2402c0,0,0.5458,0.3215,0.7483,1.295c1.7813-0.131,2.34,0.4991,2.34,0.4991
		s1.4608-0.7006,2.1384-0.5706c0.2372-0.4982,0.914-1.1402,0.914-1.1402"/>
	<path class="st54" d="M-679.0691,17.584l3.6671,2.3995l3.3025-2.2209c0,0,0.6887-0.3801,0.6292-0.653
		c-0.0586-0.2738-0.2967-0.1667-0.4158-0.1191c-0.1182,0.0476-3.4564,2.4114-3.4564,2.4114l-3.5516-2.2456
		c0,0-0.261-0.0824-0.3086,0.0833C-679.2504,17.4064-679.1048,17.5007-679.0691,17.584z"/>
	<path class="st52" d="M-672.5107,16.9613c0,0-0.9388-0.3984-0.9388-0.0531c0,0.3444,0.0266,0.3801,0.1777,0.6017
		c0.1502,0.2207-0.1154,0.3627-0.1154,0.3627s-0.0357-0.0971-0.0889-0.2482c-0.0531-0.1502-0.5577-0.2564-0.6017-0.4332
		c-0.0439-0.1777,0.1063-0.4607-0.1951-0.4955c-0.3004-0.0357-0.5925,0.1236-0.6548,0.4689
		c-0.0623,0.3453-0.4515,1.1503-0.4515,1.1503l0.0531-1.8317c0.6613,0.0467,1.8885,0.1914,2.8327,0.3004
		c-0.283-0.044,0.1062,0.0183,0.098,0.1154C-672.4219,16.9787-672.5199,16.9869-672.5107,16.9613z"/>
	<path class="st52" d="M-675.8307,16.5006c-0.1676,0-1.0092,0.0971-1.2217,0.2216c-0.2125,0.1236,0.3453,0.3178,0.2748,0.4863
		c-0.0705,0.1685-0.0797,0.5046-0.3453,0.4341c-0.2656-0.0714-1.1594-0.5138-1.186-0.664
		c-0.0266-0.1502-0.2125-0.1594-0.2125-0.1594S-675.9543,16.474-675.8307,16.5006z"/>
	<path class="st42" d="M-675.4259,16.29l-0.0064,2.2511"/>
	<path class="st42" d="M-677.1595,13.6377c0,0-1.0285,1.6696-1.0486,1.7209"/>
	
		<linearGradient id="SVGID_16_" gradientUnits="userSpaceOnUse" x1="-2151.2341" y1="22.6006" x2="-2150.0308" y2="22.6006" gradientTransform="matrix(0.4601 0 0 -0.8251 318.0121 32.9921)">
		<stop  offset="0" style="stop-color:#474747"/>
		<stop  offset="1" style="stop-color:#FF5500"/>
	</linearGradient>
	<path class="st55" d="M-675.2647,13.5965c0,0,0.4479,0.6109,0.3966,0.784c0.1832,0.1429,0.3874,0.7134,0.3874,0.7134"/>
	<path class="st42" d="M-673.5338,13.4948c0,0-0.9671,1.3646-0.9369,1.4663"/>
	<path d="M-678.4893,7.0061c-0.0219,0.0763-0.1452,0.1059-0.2754,0.066c-0.1301-0.0399-0.2179-0.134-0.196-0.2103
		c0.0219-0.0763,0.1451-0.1059,0.2753-0.066C-678.5551,6.8357-678.4673,6.9298-678.4893,7.0061z"/>
	<path d="M-678.0983,6.9792c0.0219,0.0763,0.1451,0.1059,0.2753,0.066c0.1302-0.0399,0.218-0.134,0.196-0.2103
		c-0.0219-0.0763-0.1452-0.1059-0.2754-0.066C-678.0325,6.8087-678.1202,6.9029-678.0983,6.9792z"/>
	<path class="st56" d="M-666.7758,35.246c0,0-0.359,0.0678-0.347,0.1007c0.011,0.0339-1.0432,0.0678-1.0651,0.0339
		c-0.0229-0.0339-0.1575,0.1795-0.1575,0.1795l0.1685-0.1007c0,0,0.2573,0.2683,0.3361,0.2464
		c0.0787-0.022-0.0339,0.1007-0.011,0.1236c0.022,0.022,0.1008-0.0449,0.1008-0.0449l1.7419-0.0293
		C-666.0092,35.7552-666.7758,35.246-666.7758,35.246z"/>
	<path class="st57" d="M-666.1265,35.7881l-1.4232,0.0412c0,0-0.3581,0.3251-0.381,0.403c-0.022,0.0788,0.2354,0.1007,0.2354,0.1007
		l0.0788,0.2693l0.1795-0.0669c0,0,1.2098,0.1795,2.3207-0.0678c0.5605-0.196,0.6584-0.4314,0.2656-0.5742
		C-665.2427,35.7506-666.1155,35.7936-666.1265,35.7881L-666.1265,35.7881z"/>
	
		<linearGradient id="SVGID_17_" gradientUnits="userSpaceOnUse" x1="-1228.3915" y1="-477.6144" x2="-1231.9979" y2="-474.2533" gradientTransform="matrix(1.5914 0 0 -0.2385 1293.4199 -75.1713)">
		<stop  offset="0" style="stop-color:#D5DFFF"/>
		<stop  offset="1" style="stop-color:#FFFFFF"/>
	</linearGradient>
	<path class="st58" d="M-670.9996,38.7078l2.5616-0.1145l-0.4771-0.4048l6.9283-0.2793l-0.239-0.5504l-7.7571,0.3114l0.9332,0.4359
		l-2.0955,0.0623l0.0623,0.218l-0.5495-0.0211C-671.6324,38.3653-671.0207,38.6034-670.9996,38.7078L-670.9996,38.7078z"/>
	
		<linearGradient id="SVGID_18_" gradientUnits="userSpaceOnUse" x1="-1932.9991" y1="-29.9918" x2="-1933.8866" y2="-28.1968" gradientTransform="matrix(0.5504 0 0 -0.6896 395.8968 8.0157)">
		<stop  offset="0" style="stop-color:#D5DFFF"/>
		<stop  offset="1" style="stop-color:#FFFFFF"/>
	</linearGradient>
	<path class="st59" d="M-668.1276,24.5572c-0.2042-0.1017-1.099-0.2235-2.0964,0.4277l0.0413,2.2997c0,0,1.4644-0.794,2.1769-0.6109
		C-668.047,25.9612-668.047,25.0463-668.1276,24.5572z"/>
	<g>
		<path class="st42" d="M-682.2916,31.5386l-6.0405,5.9969"/>
		<path class="st42" d="M-679.5994,31.5826l-4.9026,6.4566"/>
		<path class="st42" d="M-679.8182,29.8975l-6.5441,7.9229"/>
		<path class="st42" d="M-686.5593,37.7105l0.6346-0.7437"/>
		<path class="st42" d="M-678.5709,33.8804l-2.5389,3.5022"/>
		<path class="st42" d="M-681.2192,37.8424l0.0657,1.3344"/>
		<path class="st42" d="M-677.4114,35.1058l-2.6917,3.3712"/>
		<path class="st42" d="M-677.8922,38.2142l1.0944-1.795"/>
		<path class="st42" d="M-677.4764,36.0693l-1.3133,1.4882"/>
		<path class="st42" d="M-677.8702,34.669l-0.8975,1.0935"/>
		<path class="st42" d="M-679.0306,33.0708c0,0-2.7357,4.005-2.692,4.3337"/>
		<path class="st42" d="M-679.3154,32.5461c-0.065,0.043-2.3633,3.0855-2.3633,3.0855"/>
		<path class="st42" d="M-681.8101,36.5941l-0.4159,0.5037"/>
		<path class="st42" d="M-682.7512,37.8643l-0.6346,0.8316"/>
	</g>
	<path class="st60" d="M-682.5904,22.3207c0,0-0.1854,0.5825,0,0.8737c0.1853,0.2912,1.3502,2.6477,1.3502,2.6477
		s0.7946-0.9799,1.0858-1.0065c0.2913-0.0256,0.1584,2.5424,0.1584,2.5424s-0.4762,0.4497-0.7675,0.4231
		c-0.2914-0.0266,0.7144,1.0065,0.6878,1.8802c-0.0266,0.8737-1.3234,5.2157-1.8,5.2945c-0.4765,0.0797,0.2118-0.794,0.1854-1.0322
		c-0.0265-0.2381-0.1589-0.0797-0.2648-0.3444c-0.1059-0.2647,0.1589-0.6622,0.1058-0.9268
		c-0.0529-0.2647-0.2912-0.2116-0.3177-0.3966c-0.0264-0.1859,0.1589-0.2381,0.1324-0.4506
		c-0.0265-0.2116-0.3177-0.1584-0.2913-0.3444c0.0265-0.185,0.053-0.1053,0.0265-0.4497c-0.0265-0.3444-0.0794,0.2381-0.3707,0.2647
		c-0.2912,0.0266-0.5295,0.6887-0.5295,0.6887s-0.5825,0.8206-1.1649,0.4497c0.3442,0.7418,0.0795,1.0596-0.0529,1.0853
		c-0.1324,0.0266,0.1058,0.5825-0.2119,0.609c-0.3177,0.0266,0.2383,1.2446-0.1323,1.3509c0.3971,0.185,0.0794,0.4231,0.0794,0.4231
		s-0.9177,0.0769-0.7148,1.2712c-2.7005-0.9534-4.0242-2.5946-3.9978-4.2623c0.0265-1.6687,0.556-3.177,1.8533-3.733
		c0.3707-1.3774,1.006-2.8602,1.006-2.8602s-0.1058-0.609-0.0264-1.0056c0.0795-0.3975,0.4501-0.794,0.4501-0.794
		s-0.053-0.9534-0.0265-1.4296c0.0265-0.4772,0.2117-0.6887,0.2382-0.9534s-0.0794-1.6155,0.1854-1.8537
		c0.2648-0.2381,0.7678-0.2116,1.0325-0.37c0.2648-0.1594,0.6089-0.4506,0.9531-0.424c0.3441,0.0266,0.6354,0.2647,0.6354,0.2647
		s1.2974,0,1.3768,0.5028c0.0794,0.5037-0.2648,0.6887-0.2648,0.6887S-681.7961,21.6595-682.5904,22.3207L-682.5904,22.3207z"/>
	<path class="st61" d="M-683.7422,20.4865c0.0415,0.0768-0.0531,0.2084-0.2114,0.2941c-0.1583,0.0857-0.3203,0.0929-0.3619,0.0162
		c-0.0415-0.0768,0.0531-0.2084,0.2114-0.2941C-683.9457,20.417-683.7838,20.4097-683.7422,20.4865z"/>
	<path d="M-683.962,20.6202c0,0.0484-0.0441,0.0876-0.0984,0.0876s-0.0984-0.0392-0.0984-0.0876
		c0-0.0484,0.0441-0.0876,0.0984-0.0876S-683.962,20.5718-683.962,20.6202z"/>
	<path class="st62" d="M-682.0262,21.4965c0,0,0.3216,1.436-0.0629,2.427"/>
	<path class="st62" d="M-681.9273,20.8682c0,0,0.6273,0.8297,0.5464,1.8619"/>
	<path class="st62" d="M-681.8666,20.686c0.0202,0,0.5261,0.4451,0.5059,0.7482"/>
	<path class="st62" d="M-681.7451,20.5037c0,0,0.3441,0.2427,0.4249,0.4854"/>
	<path class="st42" d="M-681.907,20.3618c0,0-1.2345,2.0039-1.0726,3.2585"/>
	<path class="st62" d="M-681.8261,20.3013c0,0-1.6393,0.9717-1.9427,4.1487"/>
	<path class="st42" d="M-682.0082,20.8884l-0.6476,0.4854"/>
	<path class="st62" d="M-684.376,24.6323c0,0,0.9106-3.7842,2.5296-4.331"/>
	<path class="st63" d="M-681.219,25.9072c0,0,0.8705-1.0926,1.0729-1.0523c0.2024,0.0403,0.1411,2.5295,0.1411,2.5295
		s-0.6475,0.4854-0.7885,0.4652c-0.1421-0.0201,0.7281,1.1741,0.7079,1.6192s-0.0403,0.4451-0.0403,0.4451s0-0.2628-0.2024-0.6878
		s-0.0815-0.9113-1.3965-1.9837c-0.3239-0.6676,0.6476,0.4048,0.8498,0.2427C-680.6727,27.324-681.2393,25.9273-681.219,25.9072
		L-681.219,25.9072z"/>
	<path class="st64" d="M-682.7661,19.7527c0,0-0.3658,0.0998-0.4156,0.2491c-0.0499,0.1502-0.2661,0.2995-0.3825,0.2491
		c-0.1164-0.0495-0.3326-0.2326-0.3326-0.2326"/>
	<path class="st65" d="M-684.8447,21.0331c0,0-0.5488,0.5486-0.2826,0.6154c0.2661,0.0659,0.5488-0.4323,0.5488-0.4323
		s0,0.8481,0.2328,0.7144c0.2328-0.1328,0.9146-0.6145,0.9146-0.6145s0.2328-0.0174,0.2827,0
		c0.0499,0.0165,0.632,0.5147,1.0144,0.3324c-0.2161,0.5651-0.4656,0.6319-0.4656,0.6319s-0.3991,0.5156-0.9146,0.3984
		c-0.5155-0.1163-0.6486-0.3324-0.6486-0.3324s-0.4324,0.0339-0.5655-0.1658c-0.1329-0.1997-0.1829-0.316-0.1829-0.316
		s-0.2494,0.2491-0.316,0.1328C-685.2936,21.8811-685.2272,21.1988-684.8447,21.0331z"/>
	<path class="st64" d="M-681.735,20.2684c0,0-1.0144-0.2995-1.3636,0.1997c-0.3492,0.4982-0.2661,0.7812-0.0831,0.8307"/>
	<path d="M-681.5785,20.24c0,0.1196-0.0856,0.2165-0.1912,0.2165c-0.1056,0-0.1912-0.0969-0.1912-0.2165
		s0.0856-0.2166,0.1912-0.2166C-681.6641,20.0234-681.5785,20.1204-681.5785,20.24z"/>
	<path class="st63" d="M-684.5308,22.8281c0,0,0.4137,0.6365,0.9069,0.8114s-0.342,0.326-0.8353-0.0073
		c-0.3579-0.4854-0.2625-0.8352-0.2625-0.8352S-684.6262,22.7008-684.5308,22.8281z"/>
	<path class="st63" d="M-680.991,26.5831c0,0-1.1614-1.6146-1.4955-1.7025c-0.334-0.087,0.2545-0.1584,0.6125,0.1832
		c0.3579,0.3416-0.0955-0.5568-0.0955-0.5568L-680.991,26.5831z"/>
	<path class="st65" d="M-684.642,35.9136c0.4454-0.1191,2.3863,1.1137,2.8238,1.4241c0.4375,0.3096,1.3525,0.1108,1.3525,0.1108
		s-0.4222,0.2546-0.6843,0.3187c-0.2625,0.0632,0.7795,0.0632,0.7795,0.0632s-2.4818,0.6841-5.0034-0.6438
		C-685.6046,36.1526-684.833,35.9218-684.642,35.9136z"/>
	<path class="st63" d="M-681.8023,26.9805c0,0-0.3261-0.0632-0.4932-0.2546c-0.1671-0.1905-0.4057-0.6603-0.6523-0.8591
		c-0.2466-0.1987-1.4795-0.8746-1.925-0.827c-0.4454,0.0476-0.5807-0.0476-0.6364-0.1035s-0.2386,0.0238-0.2068,0.2546
		c0.0319,0.2308-0.342,0.74-0.2068,0.9781c0.1352,0.239,0.7716,1.2089,0.8989,1.241c0.1273,0.0321,0.0477,0.5651,0.0477,0.5651
		s0.5647,0.5724,0.7079,0.6045c0.1431,0.0321,0.2863,0.1355,0.2704,0.2702c-0.0159,0.1355-0.6205,0.8755-0.6205,0.8755
		s-0.6523,0.3416-0.6602,0.533c-0.008,0.1905,0.1591,0.588,0.6761,0.7153c0.517,0.1273,1.9091,0.0238,1.9807-0.0952
		c0.0715-0.1191,0.1829-0.8352,0.1351-0.9067c-0.0477-0.0714-0.3898-0.2867-0.5648-0.2546c-0.1749,0.0321-0.334,0.1749-0.3182,0.207
		c0.0159,0.0321-0.2465,0.1667-0.2465,0.0394s0.517-0.6997,0.5647-0.6521c0.0478,0.0476,0.7795,0.1191,0.9148,0.4854
		c0.1352,0.3654,0.1352,0.6283,0.517,0.5889c0.3818-0.0403,0.9146-0.3901,0.9623-1.1219c0.0476-0.7318-0.4293-1.2254-0.5486-1.2968
		c-0.1193-0.0714-0.517-0.3105-0.5488-0.4213C-681.7864,27.4339-681.866,27.0684-681.8023,26.9805L-681.8023,26.9805z"/>
	<path class="st63" d="M-688.683,30.2107c0,0,1.233-0.3187,1.5511-0.3105c0.3182,0.0073,1.5193,0.5642,1.8693,0.9067
		c0.3499,0.3416,1.0659,1.153,1.5352,1.0816c0.4693-0.0714,0.6046-0.1667,0.6046-0.1667l-0.183,0.3498
		c0,0-0.3818,0.1035-0.5727,0.0559c-0.1909-0.0476-0.5648-0.1676-0.9387-0.533c-0.3738-0.3663-1.5272-1.3527-2.5056-1.2813
		c-0.9785,0.0724-1.5432,1.0349-1.5432,1.0349s0.0079-0.4698,0.0477-0.5733c0.0398-0.1035-0.2068,0.2225-0.2068,0.2225
		L-688.683,30.2107L-688.683,30.2107z"/>
	<path class="st63" d="M-684.141,31.165c0.008,0.0073,0.3103,0.087,0.8193,0.087c0.5091,0,0.7795-0.2225,0.7795-0.2225
		l-0.0318-0.1987l0.0795-0.2784c0,0,0.3898,0.3975,0.3818,0.4771c-0.0079,0.0797-0.1591,0.1117-0.1591,0.1117l-0.0557-0.1914
		l-0.1352,0.1676c0,0-0.7398,0.588-1.1454,0.501c-0.4057-0.0879-0.7795-0.3498-0.6761-0.414
		C-684.1807,31.1412-684.1251,31.165-684.141,31.165z"/>
	<path class="st63" d="M-685.9387,32.2072c0,0-0.4455-0.0082-0.6443,0.087c-0.1989,0.0952-0.2704,0.2152-0.4058,0.1987
		c-0.1351-0.0156-0.2385-0.1905-0.1988-0.2619c0.0557-0.1117,0.3182-0.2546,0.8193-0.2152
		C-685.8671,32.0561-685.9387,32.2072-685.9387,32.2072L-685.9387,32.2072z"/>
	<path class="st63" d="M-684.3796,33.4161c0-0.0238-0.0319-0.6521-0.2784-0.9067c-0.2466-0.2546-0.5489-0.2546-0.6841-0.2235
		c-0.1352,0.0321,0.5012,0.3105,0.5648,0.4936s0.2704,0.6924,0.2147,0.8197c-0.0557,0.1264-0.1591-0.3581-0.5488-0.4936
		s-0.9307-0.0632-0.8193,0.1117c0.1114,0.1749,0.5489,0.0156,0.7716,0.3892c0.2227,0.3737,0.3898,0.7721,0.3898,0.7721
		l0.0717-0.2711l0.1988-0.055l0.0238-0.5174L-684.3796,33.4161L-684.3796,33.4161z"/>
	<path class="st65" d="M-684.6977,35.452l-0.4058-0.8114c0,0-0.1273-0.5165-0.4692-0.6603
		c-0.3421-0.1429-0.7955-0.1191-0.8035,0.0559c-0.008,0.1749,0.7318,0.3975,0.7795,0.4936
		c0.0477,0.0952,0.0239,0.2546-0.0397,0.2619c-0.0637,0.0082-0.3898-0.1191-0.5568-0.0797
		c-0.1671,0.0403-0.2625,0.2546-0.5091,0.1914c-0.2466-0.0641-0.4534-0.8508-0.3579-0.9305
		c0.0954-0.0797-0.183,0.1429-0.2387-0.0641c-0.0557-0.207,0.0796-0.8508-0.0159-0.9305c-0.0954-0.0797-0.5567-0.3581-0.5647-0.414
		c-0.008-0.055,0.0238-3.1651,2.625-0.588c-1.1137-1.3206-1.5512-1.1778-1.758-1.1851c-0.1511,0-1.1614,0.087-1.4159,1.3756
		c-0.2546,1.2886-0.5568,0.4854-0.5568,0.4854s-0.0557,0.5568,0.2148,0.7162c0.2704,0.1584-0.1273,0.62-0.1273,0.62
		s-0.4852-1.1851-0.4136-1.7025c-0.0955,0.414-0.0875,1.4397,0.525,2.5616c0.7159,0.7556,1.3921,1.4562,3.1898,2.2429
		C-684.65,35.6434-684.6977,35.4685-684.6977,35.452L-684.6977,35.452z"/>
	<path class="st66" d="M-686.4,35.4603c0,0,0.525,0.0632,0.6681,0.3343c0.1432,0.2702,0.2069,0.6841,0.2069,0.6841
		c0.0875-0.1749,0.1272-0.326,0.3022-0.4533c0.175-0.1273,0.3023-0.1438,0.2944-0.239c-0.008-0.0952-0.5568-0.6759-0.8353-0.7079
		c-0.2784-0.0321-0.7636,0.3022-0.7636,0.3022S-686.6147,35.5079-686.4,35.4603L-686.4,35.4603z"/>
	<g>
		<path class="st67" d="M-685.2009,36.8285c0,0,1.3605,0.62,3.6014,0.6603"/>
		<path class="st68" d="M-680.6589,30.5129c0,0-0.1163,1.142-0.9947,3.395"/>
		<path class="st64" d="M-680.8339,31.2154c0,0-0.2637,0.8197-0.9954,1.4342"/>
	</g>
</g>
</svg>
