<?xml version="1.0" encoding="utf-8"?>
<!-- Generator: Adobe Illustrator 21.1.0, SVG Export Plug-In . SVG Version: 6.00 Build 0)  -->
<svg version="1.1" id="Layer_1" xmlns="http://www.w3.org/2000/svg" xmlns:xlink="http://www.w3.org/1999/xlink" x="0px" y="0px"
	 viewBox="0 0 60 60" style="enable-background:new 0 0 60 60;" xml:space="preserve">
<style type="text/css">
	.st0{clip-path:url(#SVGID_2_);}
	.st1{fill:#C5213A;}
	.st2{fill:#263575;}
	.st3{fill:#6CADDE;}
	.st4{fill:#3678BC;}
	.st5{fill:#9B8330;}
	.st6{fill:#FBED1F;}
	.st7{fill:#009271;}
	.st8{fill:#7B4B1E;}
	.st9{fill:#FFFFFF;}
</style>
<g>
	<defs>
		<circle id="SVGID_1_" cx="30" cy="30" r="30"/>
	</defs>
	<clipPath id="SVGID_2_">
		<use xlink:href="#SVGID_1_"  style="overflow:visible;"/>
	</clipPath>
	<g id="XMLID_27_" class="st0">
		<rect id="XMLID_26_" x="-24" class="st1" width="108" height="60"/>
		<rect id="XMLID_25_" x="-21.3659" y="2.7273" class="st2" width="102.7317" height="54.5454"/>
		<g>
			<path id="XMLID_24_" class="st1" d="M30.034,13.6364c0,0-10.5705,7.4605-10.5705,16.2574c0,8.7983,10.5705,16.47,10.5705,16.47
				s10.5027-7.0389,10.5027-16.47C40.5367,20.4635,30.034,13.6364,30.034,13.6364"/>
			<path id="XMLID_23_" class="st3" d="M38.9459,32.8039c0.2319-0.936,0.3636-1.9079,0.3636-2.91
				c0-8.445-9.2756-14.7085-9.2756-14.7085s-9.4111,6.4752-9.4111,14.7085c0,0.9888,0.134,1.9522,0.3705,2.8854L38.9459,32.8039"/>
			<path id="XMLID_22_" class="st4" d="M29.9569,44.7445c0,0,7.275-4.9882,8.9859-11.9652H20.9864
				C22.7235,39.6218,29.9569,44.7445,29.9569,44.7445"/>
			<path id="XMLID_21_" class="st5" d="M39.2641,30.8798C37.6726,32.0537,28.7159,31.49,28.7159,31.49l-0.5007,1.3139h10.73
				c0.0447-0.1802,0.0855-0.3603,0.1225-0.5426L39.2641,30.8798"/>
			<g>
				<path id="XMLID_20_" class="st6" d="M29.4832,39.1848c-0.1364-0.9831-4.3254-2.036-6.5486-1.9494
					c0.6941,1.1274,1.4806,2.1591,2.2717,3.0761C26.3356,39.0567,29.5278,39.5092,29.4832,39.1848"/>
				<path id="XMLID_19_" class="st6" d="M37.9622,35.5295c-0.5323,0.0197-1.4983,0.1077-2.16,0.4645
					c-0.9544,0.5159-3.0913,1.0796-4.0466,0.7974c-0.9544-0.2815-2.455,0.6102-2.2725,0.7974
					c0.3027,0.3132,2.4997-0.0464,2.4997,1.9712c0,1.689-2.5452,0.9388-3.5458,1.6426c-0.6032,0.423-1.0238,0.8825-1.2626,1.1781
					c1.5622,1.4969,2.7855,2.3639,2.7855,2.3639s2.9003-1.9888,5.4686-5.2092l1.2079-1.6595
					C37.1233,37.1376,37.5747,36.3543,37.9622,35.5295"/>
			</g>
			<g>
				<path id="XMLID_18_" class="st7" d="M29.4547,22.5227c0,0-1.4498-0.8797-3.4272-0.4581
					c-1.9774,0.4223-2.4042,1.7059-2.4042,1.7059l0.6648-0.316l0.017,0.2815l0.597-0.3871l0.017,0.2815l0.5115-0.4919l0.084,0.316
					l0.4607-0.4223l0.0347,0.2287l0.7495-0.4926v0.3167l0.597-0.2822l-0.0508,0.2998l1.1255-0.2104c0,0-2.66,0.9142-3.0005,3.1134
					l0.5107-0.632l0.0516,0.2977l0.3235-0.6679l0.0855,0.2639l0.2896-0.6158l0.0847,0.3688l0.4429-0.6686l0.0347,0.3878
					l0.5107-0.7213v0.3505l0.5462-0.6158l-0.0169,0.4589c0,0,0.5284-0.4589,0.6979-0.4589l-0.6301,0.8452l0.2049,0.0704
					c0,0-0.4437,0.3695-0.4776,0.4398c-0.0339,0.0697,0.2904,0,0.2904,0s-0.3929,0.4215-0.4098,0.5454
					c-0.0169,0.1239,0.2558,0,0.2558,0s-0.3582,0.4743-0.4091,0.6517c-0.0516,0.1759,0.1872,0.0345,0.1872,0.0345
					s-0.2211,0.563-0.2388,0.7213c-0.0169,0.1569,0.2558-0.0359,0.2558-0.0359l0.1541,0.9677l0.2727-1.1598l0.1703,0.2639v-0.8276
					l0.1533,0.1401l-0.0169-0.544l0.2041,0.2104l-0.1017-0.6686l0.2211,0.2625l-0.0339-0.5616l0.2211,0.2294v-0.7396l0.2049,0.1921
					l0.0339-0.5081l0.2388,0.1225c0,0,0.0339-0.6158,0.3074-0.5982c0.2719,0.0162,0.6132,0.316,0.4768,0.456l0.2388-0.0683
					l-0.0508,0.5961l0.2211-0.1401L30.9014,25.09l0.1872-0.088l-0.0678,0.5623l0.2219-0.1386l0.0162,0.684l0.255-0.1921
					l-0.0169,0.8079l0.2557-0.2097v0.6679l0.2388-0.1745l0.2565,0.6503l-0.0516-0.9677l0.188,0.1576l-0.342-0.6855l0.2565-0.0359
					l-0.2735-0.4581l0.2558,0.0197l-0.3744-0.4581l0.255-0.0521l-0.5631-0.423l0.3074-0.1225l-0.5801-0.3878l0.2219-0.088
					l-0.4083-0.4398l0.426,0.1759l0.1356-0.2815l0.5115,0.423v-0.423l0.4429,0.6334l0.0516-0.3878l0.3413,0.4933l0.0678-0.228
					l0.2388,0.4919l0.1186-0.3681l0.2388,0.5278l0.0678-0.3709l0.2219,0.5813l0.2049-0.2294l0.1025,0.5989l0.2034-0.2294
					l0.1872,0.5278l0.2388-0.1935l0.2049,0.5989c0,0,0.5623-3.2028-4.2622-3.2563l-1.4321-0.2801"/>
				<path id="XMLID_17_" class="st7" d="M27.2384,19.6718l0.2719,0.3505l-0.1363,0.107l0.4607,0.2639l-0.1025,0.1928l0.4607,0.1759
					l-0.171,0.1415l0.4098,0.2449l-0.2727,0.0894l0.4938,0.2456l-0.0678,0.228l0.426,0.1063l-0.1872,0.1576l0.4938,0.4061
					l0.5631,0.404l0.3921-0.1401l-0.1541-0.7755c0,0-1.6192-2.2872-2.8803-2.1992"/>
				<path id="XMLID_16_" class="st7" d="M28.7213,17.455l0.188,0.456l-0.2565,0.0535l0.5801,0.5982l-0.4607,0.0176l0.5631,0.4567
					l-0.2735,0.0894l0.5123,0.5278l-0.2735,0.14l0.5284,0.5454l-0.3574,0.1401l0.597,0.5637l-0.3413,0.0183l0.3574,0.4736
					l-0.3235,0.1063c0,0,0.3921,0.7558,0.3744,1.0732l0.6648,0.0345c0,0,0.1025-2.0409,0.0177-2.3048l-0.171,0.1232l0.0508-0.7389
					l-0.2557,0.159l-0.0501-0.8797l-0.2565,0.2808l-0.067-0.8621l-0.188,0.2998l-0.188-0.8452l-0.2041,0.2639l-0.188-0.5447
					l-0.1533,0.2104l-0.426-0.4574"/>
				<path id="XMLID_15_" class="st7" d="M30.443,22.5924c0.188-1.2316,1.4328-3.0261,3.7685-3.0965l-0.5292,0.2815l0.3074,0.1407
					l-0.614,0.2294l0.3066,0.1921l-0.7326,0.0535l0.3744,0.2639l-0.5446,0.0704l-0.4268,0.088l0.3066,0.2984l-0.614,0.0697
					l0.3929,0.2118c0,0-0.9722,0.3519-1.0399,0.4581c0,0,3.2739-0.8621,4.0751,0.7375l-0.6317-0.2815l0.0516,0.2998l-0.4429-0.3343
					l0.0678,0.2463l-0.4599-0.2463l0.0678,0.2984l-0.4776-0.2815l0.1024,0.2653l-0.6139-0.2998l0.1024,0.2815l-0.5284-0.1759
					l0.0516,0.2984l-0.5292-0.0345l0.0516,0.3519l-1.6369-0.0359L30.443,22.591"/>
			</g>
			<g>
				<path id="XMLID_14_" class="st8" d="M29.9431,23.6537l0.3413-0.0232c-0.1595,3.3555-0.01,8.1664,0.4314,9.9476
					c0.7495,3.0254,2.935,4.1908,3.4549,4.4808c0.295,0.1633,0.1818,0.8438-0.4098,0.7974
					c-0.5901-0.0471-2.6523-1.6193-3.364-4.4344C29.4431,30.6447,29.9061,24.0471,29.9431,23.6537"/>
				<ellipse id="XMLID_13_" class="st8" cx="30.4946" cy="22.9267" rx="0.3854" ry="0.399"/>
				<ellipse id="XMLID_12_" class="st8" cx="29.8807" cy="22.7853" rx="0.3607" ry="0.3735"/>
				<ellipse id="XMLID_11_" class="st8" cx="29.8807" cy="23.437" rx="0.3369" ry="0.3488"/>
				<ellipse id="XMLID_10_" class="st8" cx="30.3406" cy="23.2609" rx="0.3607" ry="0.3735"/>
			</g>
			<g>
				<path id="XMLID_9_" d="M25.897,35.0679h0.3852v-2.2886H25.897V35.0679z"/>
				<path id="XMLID_8_" class="st8" d="M27.9109,35.8772c0,0-0.1579,0.0289-0.409,0.0619v-0.335h-0.2557v0.3638
					c-0.2619,0.0274-0.5793,0.05-0.9121,0.05c-0.3536,0-0.7102-0.0267-1.0045-0.0577v-0.347h-0.2819v0.3139
					c-0.2434-0.0317-0.4006-0.0591-0.4006-0.0591s-0.077,0.4398,1.6624,0.4398c1.7386,0,1.6023-0.4307,1.6023-0.4307"/>
				<path id="XMLID_7_" class="st8" d="M26.2601,35.0552c1.4097,0,2.5922-0.2337,2.5922-0.2337s0.181,0.9374-2.5922,0.9374
					c-2.7732,0-2.5459-0.7966-2.5459-0.7966S24.8512,35.0552,26.2601,35.0552"/>
				<path id="XMLID_6_" class="st9" d="M25.0776,31.0199c0,0,2.1823,0.8452,3.0467,3.8017c0,0-2.0005-0.4216-3.1376,0.0472h-0.6363
					C24.3504,34.8672,25.442,33.2261,25.0776,31.0199"/>
			</g>
			<g>
				<path id="XMLID_5_" class="st1" d="M25.3866,28.7946h-0.4044c-0.0316-0.1802-0.1078-0.3068-0.2288-0.3765
					c-0.0678-0.0401-0.1425-0.0591-0.2249-0.0591c-0.1595,0-0.2889,0.0781-0.3906,0.2393c-0.1025,0.159-0.1533,0.4011-0.1533,0.7214
					c0,0.3244,0.0555,0.5524,0.1656,0.689c0.1101,0.133,0.2357,0.2006,0.3767,0.2006c0.1379,0,0.2504-0.0528,0.3389-0.1597
					c0.0878-0.1056,0.1417-0.2456,0.1633-0.4194h-0.456v-0.4384h0.8196v1.4117h-0.2719l-0.0416-0.3287
					c-0.0793,0.1253-0.1502,0.2132-0.2134,0.2653c-0.1086,0.0894-0.2419,0.1337-0.4006,0.1337c-0.2604,0-0.4745-0.121-0.6401-0.3631
					c-0.1733-0.2421-0.2604-0.5743-0.2604-0.9951c0-0.4258,0.0878-0.7685,0.2634-1.0254c0.1741-0.2569,0.406-0.3849,0.6948-0.3849
					c0.2496,0,0.4506,0.0852,0.6024,0.2548C25.2764,28.3287,25.3642,28.5405,25.3866,28.7946"/>
				<path id="XMLID_4_" class="st1" d="M27.3116,29.5905v-1.6179h0.4175v1.6179c0,0.1802,0.017,0.3118,0.0485,0.3955
					c0.0501,0.1471,0.1579,0.2217,0.3258,0.2217c0.1656,0,0.2742-0.0746,0.3243-0.2217c0.0324-0.0837,0.047-0.2154,0.047-0.3955
					v-1.6179h0.4183v1.6179c0,0.2787-0.0324,0.4962-0.0971,0.6531c-0.1217,0.2843-0.352,0.4272-0.6933,0.4272
					c-0.3405,0-0.5724-0.1415-0.6941-0.4272C27.344,30.0881,27.3116,29.8692,27.3116,29.5905"/>
				<path class="st1" d="M31.7287,27.9716l-0.7038,2.6335h0.4322l0.1358-0.5412h0.7244l0.1276,0.5412h0.4445l-0.6997-2.6335H31.7287
					z M31.955,28.5724l0.2469,1.0355h-0.498L31.955,28.5724z"/>
				<path id="XMLID_1_" class="st1" d="M35.4864,30.0409l0.3551-2.0683h0.5908v2.6306h-0.3829v-1.7784
					c0-0.0521,0.0008-0.1239,0.0015-0.216c0.0008-0.0922,0.0015-0.1633,0.0015-0.2125l-0.3728,2.207h-0.399l-0.3698-2.207
					c0,0.0493,0.0008,0.1203,0.0015,0.2125c0.0008,0.0922,0.0015,0.164,0.0015,0.216v1.7784h-0.3829v-2.6306h0.5978L35.4864,30.0409
					"/>
			</g>
		</g>
	</g>
</g>
</svg>
