<?xml version="1.0" encoding="utf-8"?>
<!-- Generator: Adobe Illustrator 21.0.2, SVG Export Plug-In . SVG Version: 6.00 Build 0)  -->
<svg version="1.1" id="Layer_1" xmlns="http://www.w3.org/2000/svg" xmlns:xlink="http://www.w3.org/1999/xlink" x="0px" y="0px"
	 viewBox="0 0 335 335" style="enable-background:new 0 0 335 335;" xml:space="preserve">
<style type="text/css">
	.st0{fill:#FF0000;}
	.st1{fill:#FFFFFF;}
</style>
<g>
	<g>
		<path class="st0" d="M335,167.5004C335,260.0047,260.0086,335,167.4927,335S0,260.0047,0,167.5004C0,74.9846,74.9769,0,167.4927,0
			S335,74.9846,335,167.5004z"/>
		<g>
			<path class="st0" d="M163.0034,166.6698c1.3539,0,2.409,1.0811,2.409,2.4128c0,1.3248-1.0551,2.3906-2.409,2.3906
				c-1.3325,0-2.4098-1.0658-2.4098-2.3906C160.5936,167.7509,161.6709,166.6698,163.0034,166.6698z"/>
			<path class="st1" d="M163.0034,169.0826c-22.7554-9.1886-33.5975-37.9375-24.117-60.5534
				c5.1858-12.4029,24.3714-29.463,47.9344-23.5784c-9.1143,4.5683-15.228,10.8613-9.3012,19.807
				c6.5099,9.8169,3.4572,24.6327-9.1817,30.5441C158.5133,139.9415,149.9086,157.069,163.0034,169.0826z"/>
			<g>
				<path class="st0" d="M162.644,169.5202c-4.7813-3.9016-12.4811-8.0546-14.3744-23.6565l0,0
					c-0.2168-1.7692-0.3141-3.4189-0.3141-4.9943l0,0c0-12.5861,6.1061-19.7993,6.1505-19.833l0,0l0,0
					c0.2168-0.2544,0.5685-0.2691,0.8007-0.0782l0,0c0.2467,0.2207,0.262,0.557,0.0751,0.7969l0,0c0,0-1.4742,1.6872-2.963,4.9422
					l0,0c-1.4444,3.2733-2.9339,8.0699-2.9339,14.1721l0,0c0,1.534,0.105,3.1392,0.2996,4.8525l0,0
					c1.9156,15.257,9.0392,18.8822,13.9775,22.9156l0,0c0.2475,0.2168,0.2843,0.554,0.0751,0.7929l0,0
					c-0.0897,0.1205-0.2697,0.1986-0.4337,0.1986l0,0C162.8762,169.629,162.749,169.5836,162.644,169.5202L162.644,169.5202z"/>
				<polygon class="st0" points="155.8123,107.6687 159.7255,111.1444 164.2455,108.4917 162.1353,113.2883 166.056,116.7784 
					160.8557,116.2735 158.7455,121.0517 157.6153,115.9553 152.4149,115.4168 156.9349,112.7832 				"/>
			</g>
			<path class="st1" d="M163.0034,169.0826c1.7654-24.4909,25.7851-43.6313,50.2308-41.5548
				c13.3868,1.1486,35.5131,14.1645,37.1367,38.3972c-7.1236-7.2807-14.9951-11.1602-21.685-2.7645
				c-7.3405,9.1809-22.3654,10.8237-31.9134,0.6398C189.3647,155.8461,170.4036,152.89,163.0034,169.0826z"/>
			<g>
				<path class="st0" d="M162.487,168.8804c2.2221-5.7873,3.8311-14.3668,18.1006-20.9586l0,0
					c1.6014-0.7555,3.1423-1.3432,4.6387-1.8336l0,0c12.003-3.861,20.7127-0.2429,20.787-0.2092l0,0l0,0
					c0.3073,0.0972,0.4344,0.423,0.3073,0.7255l0,0c-0.1272,0.2883-0.4567,0.4269-0.741,0.2959l0,0
					c-0.0153,0.0259-2.0581-0.849-5.6195-1.2681l0,0c-3.5545-0.4007-8.5603-0.3479-14.3821,1.534l0,0
					c-1.4666,0.4674-2.9553,1.0513-4.5115,1.773l0,0c-13.9178,6.506-15.1974,14.3859-17.5321,20.3378l0,0
					c-0.1126,0.2921-0.4413,0.4377-0.7409,0.3065l0,0c-0.1494-0.0481-0.269-0.1715-0.3218-0.3401l0,0
					C162.4418,169.1125,162.4418,169.0083,162.487,168.8804L162.487,168.8804z"/>
				<polygon class="st0" points="219.243,143.3872 217.1481,148.1685 221.0536,151.6556 215.8386,151.143 213.6985,155.9281 
					212.6205,150.8173 207.3979,150.2747 211.94,147.6336 210.8252,142.5344 214.7383,146.0215 				"/>
			</g>
			<path class="st1" d="M163.0034,169.0826c23.832-5.8287,49.4301,11.134,54.9676,35.0342
				c3.0082,13.1017-2.5891,38.162-25.1568,47.1329c4.7292-9.0016,6.031-17.67-4.0258-21.479
				c-11-4.1788-17.165-17.9878-10.3862-30.1664C183.7,190.0865,180.6695,171.1476,163.0034,169.0826z"/>
			<g>
				<path class="st0" d="M163.0478,168.5141c6.1505,0.3479,14.861-0.7632,25.5008,10.8053l0,0
					c1.1899,1.2942,2.2374,2.5774,3.1576,3.8417l0,0c7.3634,10.2477,6.5926,19.6608,6.585,19.7205l0,0l0,0
					c-0.0376,0.3257-0.2988,0.5462-0.6138,0.5279l0,0c-0.2988-0.0261-0.531-0.2996-0.4858-0.5947l0,0
					c-0.0299,0,0.1647-2.2527-0.5318-5.7435l0,0c-0.7256-3.5239-2.2895-8.2714-5.8662-13.2481l0,0
					c-0.9126-1.2344-1.9156-2.4841-3.0902-3.7484l0,0c-10.4605-11.2612-18.355-10.0529-24.7377-10.446l0,0
					c-0.3073-0.0147-0.5387-0.2621-0.5241-0.5762l0,0c0.0222-0.1908,0.1126-0.3295,0.2544-0.4269l0,0
					C162.7789,168.5517,162.913,168.5064,163.0478,168.5141L163.0478,168.5141z"/>
				<polygon class="st0" points="204.6969,214.7199 199.5187,214.1736 197.3787,218.9702 196.286,213.8479 191.0933,213.2978 
					195.6125,210.6827 194.5275,205.5681 198.4261,209.0629 202.953,206.4439 200.8282,211.2213 				"/>
			</g>
			<path class="st1" d="M163.0034,169.0826c12.9071,20.8881,4.579,50.4561-16.4999,63.0529
				c-11.5455,6.8876-37.1061,9.2453-52.5655-9.4767c10.0268,1.7363,18.6913,0.3065,19.2154-10.4199
				c0.6061-11.7516,11.8528-21.8528,25.5161-19.1442C149.3546,195.2049,166.4522,186.5172,163.0034,169.0826z"/>
			<g>
				<path class="st0" d="M163.5643,168.9332c1.5486,5.9934,5.2755,13.8764-2.4764,27.5696l0,0
					c-0.8383,1.5455-1.7516,2.9406-2.6941,4.1982l0,0c-7.483,10.1464-16.6563,12.3163-16.716,12.324l0,0l0,0
					c-0.3218,0.0598-0.6137-0.1195-0.7034-0.4115l0,0c-0.0529-0.2881,0.1341-0.6022,0.4115-0.6628l0,0
					c0,0,2.1768-0.4973,5.3046-2.2742l0,0c3.1285-1.7401,7.1688-4.7292,10.813-9.6529l0,0
					c0.8904-1.2198,1.7654-2.5699,2.6113-4.0556l0,0c7.5274-13.4235,3.943-20.574,2.3493-26.739l0,0
					c-0.0667-0.3034,0.0973-0.6291,0.4122-0.6888l0,0c0.1716-0.0446,0.3364,0,0.4712,0.0857l0,0
					C163.4371,168.7087,163.5267,168.8137,163.5643,168.9332L163.5643,168.9332z"/>
				<polygon class="st0" points="132.3689,222.7898 131.2915,217.6414 126.0835,217.1029 130.6257,214.4839 129.5407,209.3694 
					133.4086,212.8748 137.9585,210.2712 135.8107,215.0456 139.717,218.558 134.4867,217.9709 				"/>
			</g>
			<path class="st1" d="M163.0034,169.0826c-15.9536,18.6431-46.6326,19.8031-65.0696,3.6105
				c-10.0866-8.8332-20.1732-32.4597-7.0937-52.9287c1.4068,10.0943,5.4249,17.8876,15.8034,15.1077
				c11.3509-3.0457,24.438,4.5644,26.0395,18.4292C133.9481,164.0991,147.4689,177.6881,163.0034,169.0826z"/>
			<g>
				<path class="st0" d="M163.3022,169.5508c-5.2004,3.3216-11.6053,9.2859-27.0049,6.113l0,0
					c-1.7363-0.3335-3.3147-0.7892-4.7966-1.2873l0,0c-11.957-4.0028-16.8287-12.0803-16.8731-12.1257l0,0v-0.0077
					c-0.1571-0.2803-0.0674-0.6283,0.1946-0.7776l0,0c0.2766-0.1649,0.6061-0.0751,0.7632,0.187l0,0
					c0.0146,0,1.167,1.9194,3.7484,4.3583l0,0c2.6565,2.4397,6.7198,5.369,12.5186,7.3144l0,0
					c1.452,0.472,2.986,0.9133,4.6694,1.2275l0,0c15.0924,3.0343,20.8015-2.5592,26.2042-5.9597l0,0
					c0.2398-0.1502,0.5915-0.0789,0.7563,0.1831l0,0c0.1195,0.1494,0.1272,0.3287,0.0521,0.4973l0,0
					C163.5122,169.3746,163.4294,169.468,163.3022,169.5508L163.3022,169.5508z"/>
				<polygon class="st0" points="102.4982,156.3809 107.0397,153.7803 105.97,148.6397 109.831,152.172 114.4108,149.5791 
					112.2332,154.342 116.1241,157.8551 110.916,157.2866 108.7461,162.0793 107.7063,156.9387 				"/>
			</g>
		</g>
	</g>
</g>
</svg>
