<?xml version="1.0" encoding="utf-8"?>
<!-- Generator: Adobe Illustrator 22.0.0, SVG Export Plug-In . SVG Version: 6.00 Build 0)  -->
<svg version="1.1" id="Layer_1" xmlns="http://www.w3.org/2000/svg" xmlns:xlink="http://www.w3.org/1999/xlink" x="0px" y="0px"
	 viewBox="0 0 60 60" style="enable-background:new 0 0 60 60;" xml:space="preserve">
<style type="text/css">
	.st0{clip-path:url(#SVGID_2_);fill:#00247D;}
	.st1{clip-path:url(#SVGID_4_);fill:#00247D;}
	.st2{clip-path:url(#SVGID_6_);fill:#FFFFFF;}
	.st3{clip-path:url(#SVGID_8_);fill:#FFFFFF;}
	.st4{clip-path:url(#SVGID_10_);fill:#CF142B;}
	.st5{clip-path:url(#SVGID_12_);fill:#CF142B;}
	.st6{fill:#FFFFFF;}
</style>
<g>
	<g>
		<g>
			<g>
				<defs>
					<circle id="SVGID_1_" cx="30" cy="30" r="30"/>
				</defs>
				<clipPath id="SVGID_2_">
					<use xlink:href="#SVGID_1_"  style="overflow:visible;"/>
				</clipPath>
				<rect id="rect2414_2_" x="-30.4259" y="-0.2126" class="st0" width="120.8518" height="60.4256"/>
			</g>
		</g>
	</g>
	<g>
		<g>
			<g>
				<defs>
					<circle id="SVGID_3_" cx="30" cy="30" r="30"/>
				</defs>
				<clipPath id="SVGID_4_">
					<use xlink:href="#SVGID_3_"  style="overflow:visible;"/>
				</clipPath>
				<rect id="rect124_2_" x="-30.4259" y="-0.2126" class="st1" width="60.4259" height="30.2127"/>
			</g>
		</g>
	</g>
	<g>
		<g>
			<g>
				<defs>
					<circle id="SVGID_5_" cx="30" cy="30" r="30"/>
				</defs>
				<clipPath id="SVGID_6_">
					<use xlink:href="#SVGID_5_"  style="overflow:visible;"/>
				</clipPath>
				<path id="path146_2_" class="st2" d="M-30.4259-0.2126v3.3771L23.2445,30H30v-3.3775L-23.6704-0.2126H-30.4259z M30-0.2126
					v3.3771L-23.6704,30h-6.7555v-3.3775L23.2445-0.2126H30z"/>
			</g>
		</g>
	</g>
	<g>
		<g>
			<g>
				<defs>
					<circle id="SVGID_7_" cx="30" cy="30" r="30"/>
				</defs>
				<clipPath id="SVGID_8_">
					<use xlink:href="#SVGID_7_"  style="overflow:visible;"/>
				</clipPath>
				<path id="path136_2_" class="st3" d="M-5.2483-0.2126v30.2127h10.071V-0.2126H-5.2483z M-30.4259,9.8578v10.0709H30V9.8578
					H-30.4259z"/>
			</g>
		</g>
	</g>
	<g>
		<g>
			<g>
				<defs>
					<circle id="SVGID_9_" cx="30" cy="30" r="30"/>
				</defs>
				<clipPath id="SVGID_10_">
					<use xlink:href="#SVGID_9_"  style="overflow:visible;"/>
				</clipPath>
				<path id="path141_2_" class="st4" d="M-30.4259,11.8722v6.0424H30v-6.0424H-30.4259z M-3.234-0.2126v30.2127h6.0422V-0.2126
					H-3.234z"/>
			</g>
		</g>
	</g>
	<g>
		<g>
			<g>
				<defs>
					<circle id="SVGID_11_" cx="30" cy="30" r="30"/>
				</defs>
				<clipPath id="SVGID_12_">
					<use xlink:href="#SVGID_11_"  style="overflow:visible;"/>
				</clipPath>
				<path id="path150_2_" class="st5" d="M-30.4259,30.0001l20.1421-10.0714h4.5037l-20.1418,10.0714H-30.4259z M-30.4259-0.2126
					l20.1421,10.0704h-4.5037l-15.6384-7.8185V-0.2126z M5.3542,9.8578L25.4963-0.2126H30L9.8579,9.8578H5.3542z M30,30.0001
					L9.8579,19.9286h4.504L30,27.748V30.0001z"/>
			</g>
		</g>
	</g>
</g>
<g id="Comwlth" transform="scale(2.1)">
	<path id="Star7" class="st6" d="M13.0611,19.0086l0.5103,1.5866l1.5586-0.5903l-0.9223,1.3882l1.4333,0.8505l-1.6604,0.1444
		l0.2286,1.6509l-1.1482-1.2081l-1.1482,1.2081l0.2286-1.6509l-1.6604-0.1444l1.4333-0.8505l-0.9223-1.3882l1.5586,0.5903
		L13.0611,19.0086z"/>
</g>
<g id="αCrucis">
	<path id="Star7_1_" class="st6" d="M44.657,32.9791l0.243,0.7555l0.7422-0.2811l-0.4392,0.661l0.6825,0.405l-0.7906,0.0688
		l0.1089,0.7861l-0.5468-0.5753l-0.5468,0.5753l0.1089-0.7861l-0.7906-0.0688l0.6825-0.405l-0.4392-0.661l0.7422,0.2811
		L44.657,32.9791z"/>
</g>
<g id="βCrucis">
	<path id="Star7_2_" class="st6" d="M40.2466,25.9959l0.243,0.7555l0.7422-0.2811l-0.4392,0.661l0.6825,0.405l-0.7906,0.0688
		l0.1089,0.7861l-0.5468-0.5753l-0.5468,0.5753l0.1089-0.7861l-0.7906-0.0688l0.6825-0.405l-0.4392-0.661l0.7422,0.2811
		L40.2466,25.9959z"/>
</g>
<g id="γCrucis">
	<path id="Star7_3_" class="st6" d="M44.657,21.2179l0.243,0.7555l0.7422-0.2811l-0.4392,0.661l0.6825,0.405l-0.7906,0.0688
		l0.1089,0.7861l-0.5468-0.5753l-0.5468,0.5753l0.1089-0.7861l-0.7906-0.0688l0.6825-0.405l-0.4392-0.661l0.7422,0.2811
		L44.657,21.2179z"/>
</g>
<g id="δCrucis">
	<path id="Star7_4_" class="st6" d="M48.5774,24.8198l0.243,0.7555l0.7422-0.2811l-0.4392,0.661l0.6825,0.405l-0.7906,0.0688
		l0.1089,0.7861L48.5774,26.64l-0.5468,0.5753l0.1089-0.7861l-0.7906-0.0688l0.6825-0.405l-0.4392-0.661l0.7422,0.2811
		L48.5774,24.8198z"/>
</g>
<g id="εCrucis">
	<path id="Star5" class="st6" d="M46.4212,28.3586l0.192,0.4708l0.5071,0.0371l-0.3884,0.3281l0.1214,0.4937l-0.4321-0.268
		l-0.4321,0.268l0.1214-0.4937l-0.3884-0.3281l0.5071-0.0371L46.4212,28.3586z"/>
</g>
</svg>
