<?xml version="1.0" encoding="utf-8"?>
<!-- Generator: Adobe Illustrator 21.1.0, SVG Export Plug-In . SVG Version: 6.00 Build 0)  -->
<svg version="1.1" id="Layer_1" xmlns="http://www.w3.org/2000/svg" xmlns:xlink="http://www.w3.org/1999/xlink" x="0px" y="0px"
	 viewBox="0 0 60 60" style="enable-background:new 0 0 60 60;" xml:space="preserve">
<style type="text/css">
	.st0{fill:#00209F;}
	.st1{fill:#D61517;}
	.st2{fill:#FFFFFF;}
	.st3{fill:#D61516;}
	.st4{fill:#393E90;}
	.st5{fill:#8E3836;}
	.st6{fill:#544B20;}
	.st7{fill:#F9F704;}
	.st8{fill:#3B75D9;}
	.st9{fill:#FEC502;}
	.st10{fill:#FAFC12;}
	.st11{fill:#F8F604;}
	.st12{fill:#31120A;}
	.st13{fill:#502D17;}
	.st14{fill:#FEFEFE;}
</style>
<g>
	<g>
		<path class="st0" d="M29.9999,60c12.1052,0,22.5298-7.1733,27.2707-17.5H2.7273C7.4687,52.8267,17.8954,60,29.9999,60z"/>
		<path class="st1" d="M29.9999,0C17.8954,0,7.4687,7.1766,2.7273,17.5h54.5434C52.5298,7.1766,42.1051,0,29.9999,0z"/>
		<path class="st2" d="M0,30.0003c0,4.4635,0.9796,8.693,2.7273,12.4997h54.5434C59.0168,38.6933,60,34.4638,60,30.0003
			c0-4.4634-0.9832-8.6922-2.7293-12.5003H2.7273C0.9796,21.3081,0,25.5369,0,30.0003z"/>
		<g>
			<g>
				<path class="st3" d="M29.9906,46.1386h-0.0302c-1.9225-0.0944-3.863-0.5233-5.3373-1.1848l0,0
					c-1.8621-0.8308-3.546-2.049-4.8795-3.5219l0,0c-0.8108-0.9026-1.4856-1.887-1.9943-2.9216l0,0
					c-0.5756-1.1699-0.9468-2.4337-1.1023-3.7531l0,0c-0.0301-0.2601-0.0368-0.6219-0.0368-0.8939l0,0
					c0-0.1776,0.0033-0.3182,0.0053-0.3531l0,0l0.0014-15.2579v-0.7598h0.7585h12.6245h12.6259h0.5662v0.1916h-0.1917h0.1917
					v-0.1916h0.1897v0.7598l0.0014,15.2538c0.0012,0.039,0.0066,0.1796,0.0033,0.3572l0,0c0,0.272-0.0047,0.6339-0.0349,0.8939l0,0
					c-0.1555,1.3194-0.5274,2.5831-1.1036,3.7531l0,0c-0.5093,1.0346-1.1841,2.019-1.9928,2.9216l0,0
					c-1.3316,1.4729-3.0161,2.6911-4.879,3.5219l0,0c-1.4769,0.6615-3.4141,1.0904-5.3406,1.1848l0,0l-0.0355,0.0021
					L29.9906,46.1386L29.9906,46.1386z M16.9947,18.2524v15.2612c-0.0012,0.0395-0.004,0.1755-0.004,0.3498l0,0
					c0,0.2627,0.004,0.6211,0.0322,0.8496l0,0c0.1534,1.2793,0.5086,2.4975,1.066,3.6286l0,0
					c0.4958,1.0023,1.1459,1.9593,1.9372,2.8351l0,0c1.2919,1.4319,2.935,2.6213,4.7537,3.4334l0,0
					c1.4165,0.6319,3.3216,1.0594,5.1979,1.1526l0,0h0.0221h0.0168c1.8823-0.0932,3.786-0.5207,5.2032-1.1526l0,0
					c1.8153-0.8121,3.4597-2.0016,4.753-3.4334l0,0c0.7873-0.8758,1.4407-1.8327,1.9379-2.8351l0,0
					c0.5535-1.1311,0.9107-2.3493,1.0648-3.6286l0,0c0.0247-0.2285,0.0328-0.5869,0.0328-0.8496l0,0
					c0-0.1743-0.0026-0.3103-0.0026-0.3531l0,0l-0.0021-15.2579l-0.0034-0.3805h-0.3745H29.9999H17.3754h-0.3807V18.2524
					L16.9947,18.2524z"/>
				<path class="st3" d="M29.9999,45.667h-0.0147c-1.8683-0.0925-3.7525-0.5093-5.1685-1.1405
					c-1.8017-0.8075-3.4348-1.9874-4.7221-3.4107c-0.7813-0.8698-1.4286-1.8181-1.9177-2.8144
					c-0.5542-1.1238-0.91-2.3319-1.0581-3.5991c-0.0483-0.3973-0.0316-1.1632-0.0316-1.192l0.0054-15.2579v-0.2854h0.2828h12.6245
					h12.6259h0.2808v0.2854l0.0047,15.2632c0,0.0235,0.016,0.7894-0.0295,1.1867c-0.1514,1.2672-0.5072,2.4753-1.06,3.5991
					c-0.4865,0.9963-1.1366,1.9446-1.9206,2.8144c-1.2852,1.4232-2.9156,2.6032-4.7194,3.4107
					c-1.416,0.6313-3.2988,1.048-5.1677,1.1405H29.9999L29.9999,45.667z"/>
				<g>
					<rect x="32.494" y="18.4655" class="st2" width="4.9908" height="5.3318"/>
					<rect x="27.5045" y="23.7973" class="st2" width="4.9896" height="5.348"/>
					<rect x="37.4849" y="23.7973" class="st2" width="4.9285" height="5.348"/>
					<rect x="17.5851" y="23.7973" class="st2" width="4.9306" height="5.348"/>
					<rect x="27.5045" y="34.4892" class="st2" width="4.9896" height="5.3466"/>
					<path class="st2" d="M37.4849,39.8358h2.8204c0.414-0.5574,0.7746-1.1485,1.0741-1.7562
						c0.5274-1.0682,0.8651-2.2235,1.0098-3.4343c0.0061-0.0456,0.0102-0.1011,0.0102-0.1562h-4.9145V39.8358z"/>
					<path class="st2" d="M22.5157,34.4892h-4.9185c0.0033,0.055,0.0067,0.1106,0.0128,0.1562
						c0.1407,1.2108,0.4824,2.366,1.0084,3.4343c0.3023,0.6077,0.6615,1.1987,1.0769,1.7562h2.8204V34.4892z"/>
					<rect x="22.5157" y="18.4655" class="st2" width="4.9888" height="5.3318"/>
					<rect x="32.494" y="29.1453" class="st2" width="4.9908" height="5.3439"/>
					<rect x="22.5157" y="29.1453" class="st2" width="4.9888" height="5.3439"/>
					<path class="st2" d="M32.494,39.8358v5.0116c0.9114-0.189,1.7631-0.4503,2.486-0.7747
						c0.8872-0.3987,1.7248-0.8858,2.5048-1.4514v-2.7856H32.494z"/>
					<path class="st2" d="M22.5157,39.8358v2.7856c0.7766,0.5655,1.619,1.0527,2.5014,1.4514
						c0.7251,0.3244,1.5768,0.5857,2.4874,0.7747v-5.0116H22.5157z"/>
				</g>
				<path class="st2" d="M42.6258,18.2524l0.0014,15.2632c0,0,0.0187,0.7719-0.0281,1.1545
					c-0.1448,1.2155-0.4879,2.4042-1.0299,3.5066c-0.4905,0.9963-1.1325,1.9211-1.877,2.7447
					c-1.2852,1.4226-2.8753,2.561-4.6249,3.3423c-1.5151,0.6781-3.4067,1.0346-5.0673,1.1197
					c-1.6638-0.0851-3.5529-0.4416-5.0686-1.1197c-1.7502-0.7813-3.3424-1.9198-4.6229-3.3423
					c-0.7452-0.8235-1.3865-1.7484-1.8789-2.7447c-0.5402-1.1024-0.8879-2.2911-1.0293-3.5066
					c-0.0469-0.3826-0.0262-1.1545-0.0262-1.1545l0.0014-15.2632h12.6245H42.6258z M43.192,17.6841h-0.5662H29.9999H17.3754h-0.5702
					v0.5682l-0.0014,15.2579c-0.0014,0.1098-0.0167,0.8241,0.0314,1.2248c0.1555,1.3007,0.5181,2.5431,1.0855,3.6916
					c0.502,1.0185,1.164,1.9874,1.9641,2.8767c1.3114,1.4528,2.9746,2.6568,4.8167,3.479c1.4453,0.6508,3.3672,1.0722,5.2682,1.1687
					h0.0302h0.0295c1.9017-0.0965,3.8216-0.5179,5.2669-1.1687c1.8394-0.8221,3.5052-2.0262,4.8139-3.479
					c0.8034-0.8893,1.4662-1.8581,1.9681-2.8767c0.5675-1.1485,0.93-2.3909,1.0855-3.6916c0.0469-0.4007,0.0321-1.115,0.0309-1.2248
					L43.192,18.2524V17.6841L43.192,17.6841z"/>
			</g>
			<g>
				<g>
					<path class="st1" d="M44.2347,5.9979l-0.0878,0.0382c-0.0014,0-0.2606,0.1053-0.6506,0.2654
						c-0.585,0.2426-1.4648,0.6025-2.1993,0.9019c-0.3685,0.1515-0.7022,0.2875-0.9435,0.3833
						c-0.1199,0.047-0.219,0.0858-0.2867,0.1127c-0.0188,0.008-0.0316,0.0114-0.045,0.0194l-0.0019-0.0033
						c-0.201-0.2071-0.9221-0.9904-1.5908-1.7249c-0.3331-0.3638-0.6547-0.7163-0.8919-0.9776
						c-0.12-0.13-0.2178-0.2371-0.2868-0.3136c-0.0328-0.0374-0.0616-0.0669-0.0784-0.0857
						c-0.0081-0.0121-0.0148-0.0187-0.0209-0.0221c-0.0012-0.0026-0.0026-0.0074-0.004-0.0074c0,0,0,0-0.0021,0l0,0l0,0
						l-0.0602-0.0695l-3.7344,2.2575l-3.5059-2.681l-3.2961,2.6407l-3.853-2.226l-2.8058,3.335l-4.2128-1.8046l-2.3219,4.162
						l3.38,6.7939l0.0937-0.0335c4.0689-1.4467,8.582-2.2273,12.9891-2.2401c0.0342,0,0.0676,0,0.1052,0
						c4.3744,0,8.8364,0.6929,13.2423,2.2735l0.0924,0.0342l3.3874-6.8328L44.2347,5.9979z"/>
					<path id="_x3C_Path_x3E__157_" class="st2" d="M16.7911,16.8566c4.0829-1.4528,8.6074-2.2341,13.0266-2.2468
						c4.4213-0.0107,8.931,0.6822,13.385,2.2796l3.3176-6.6914l-2.3312-4.06c0,0-4.1593,1.7059-4.1942,1.7059
						c-0.0349,0-2.9323-3.1868-2.9323-3.1868L33.343,6.9039l-3.4985-2.6723L26.559,6.865L22.72,4.6463l-2.7989,3.3278L15.727,6.1776
						l-2.2475,4.0238L16.7911,16.8566z"/>
					<g>
						<g>
							<path class="st4" d="M36.991,5.2294h0.0014c0.9455,1.0339,1.8909,2.0625,2.8351,3.0936v0.0134l-0.0047,0.004
								c-0.0402,0.118-0.0683,0.2386-0.1051,0.3579c-0.6045,2.1027-1.2068,4.2028-1.8066,6.3022
								c-0.6313-0.1306-1.2626-0.2561-1.8978-0.3591c-1.1023-0.1803-2.2159-0.2835-3.327-0.3707v-0.0126
								c0.2085-2.3079,0.4135-4.6169,0.6199-6.9247C34.5372,6.6339,35.7648,5.9275,36.991,5.2294L36.991,5.2294z"/>
							<path class="st3" d="M35.3734,8.5134C35.5,8.4973,35.63,8.496,35.7573,8.5006c0.0449,0,0.0932,0.0048,0.1381,0.0162
								c0.0637,0.014,0.1125,0.0623,0.1803,0.0749c0.0489,0.0021,0.0958,0.0021,0.144,0.0141
								c0.1127,0.0202,0.2192,0.0737,0.3277,0.1079c0.0918,0.0335,0.185,0.0502,0.2801,0.0537
								c0.1239,0.0121,0.2492,0.0086,0.3598-0.0469c0.043-0.0161,0.0797-0.0442,0.1239-0.063
								c0.0476-0.0067,0.0952,0.0033,0.1468,0.0033c0,0.0329,0,0.0657,0,0.0952c-0.1006,0.0737-0.191,0.1715-0.311,0.2118
								c-0.0858,0.0254-0.1641,0.0656-0.2506,0.0811c-0.1079,0.0221-0.2198,0.0187-0.3291,0.0187
								c-0.067,0-0.1313-0.008-0.1969-0.0121c0.0093,0.0201,0.0154,0.0369,0.0248,0.0543c0.0937,0.0281,0.1883,0.0609,0.278,0.1046
								c0.0918,0.0402,0.1843,0.0898,0.2808,0.1192c0.1018,0.0315,0.2083,0.0335,0.3129,0.0409
								c0.1689,0.0047,0.3351-0.0034,0.4986-0.0409c0.0402-0.0094,0.0797-0.0295,0.1239-0.0295c0.0388,0,0.0811,0,0.1253,0.0047
								c-0.0033,0.0248-0.0033,0.0516-0.0033,0.0818c-0.1769,0.0918-0.3512,0.1957-0.5441,0.2506
								c-0.1769,0.0549-0.3631,0.0549-0.5461,0.0449c-0.2333-0.0188-0.4691-0.0637-0.7017-0.1233
								c-0.0944-0.0255-0.1802-0.0771-0.266-0.118c-0.1267-0.0656-0.2701-0.1032-0.4114-0.1172
								c-0.1039-0.0114-0.2192-0.0081-0.3042,0.0595c-0.2446-0.1627-0.4879-0.3275-0.731-0.4898
								c0.0851-0.0844,0.1662-0.1769,0.2747-0.2332C34.9626,8.5684,35.1704,8.5389,35.3734,8.5134L35.3734,8.5134z"/>
							<path class="st5" d="M35.3835,8.5389c0.0314,0,0.0582-0.0081,0.0851-0.0081c0.014,0.0751,0.0563,0.1455,0.0563,0.2252
								c0,0.057-0.0014,0.1118-0.0027,0.1669c-0.0147-0.0054-0.0207-0.0209-0.0207-0.0369c-0.0093-0.065-0.0188-0.13-0.0395-0.1876
								C35.4451,8.6421,35.4103,8.5938,35.3835,8.5389L35.3835,8.5389z"/>
							<path class="st5" d="M36.0067,8.9462c-0.0141-0.1253-0.0215-0.2525-0.0295-0.3778c0.0281,0.0073,0.0542,0.02,0.0844,0.0254
								c-0.0081,0.0904-0.0202,0.1783-0.0268,0.2627C36.03,8.8893,36.03,8.9229,36.0067,8.9462L36.0067,8.9462z"/>
							<path class="st5" d="M34.639,8.7895c0.0409-0.0288,0.0837-0.0584,0.1253-0.0911c0.0637,0.0442,0.1327,0.0878,0.1823,0.1507
								C34.97,8.8799,34.9754,8.9195,34.98,8.9557c-0.0489-0.0328-0.0884-0.0723-0.1414-0.0992
								C34.775,8.827,34.7046,8.813,34.639,8.7895L34.639,8.7895z"/>
							<path class="st5" d="M36.4703,8.7761c0.0369-0.004,0.069,0.0134,0.0771,0.0509c0.0214,0.0751,0.0086,0.1541,0.0214,0.2326
								c-0.01-0.0041-0.0281-0.0041-0.0355-0.0074C36.4958,8.9678,36.4891,8.8679,36.4703,8.7761L36.4703,8.7761z"/>
							<path class="st5" d="M36.9776,8.8209c0.0207,0,0.0449,0,0.0644-0.0033c0,0.047,0,0.0999-0.0014,0.1467
								c-0.0262,0.0067-0.0516,0.0162-0.0832,0.0209C36.9621,8.9301,36.9702,8.876,36.9776,8.8209L36.9776,8.8209z"/>
							<path class="st6" d="M33.6312,9.0159c0.0081-0.0482,0.0449-0.0858,0.0797-0.1186c0.1541,0.0784,0.3042,0.1581,0.4597,0.2331
								c0.0375-0.0254,0.0642-0.0676,0.0998-0.0971c0.0576-0.0528,0.1313-0.0951,0.2057-0.1139
								c0.2466,0.1608,0.4912,0.3217,0.7331,0.4879c0.0167,0.0154,0.0402,0.0154,0.0623,0.0154
								c0.1669-0.006,0.337-0.0154,0.506-0.0188c-0.0423,0.1006-0.0972,0.1917-0.1769,0.2634
								c-0.132,0.1247-0.3089,0.1817-0.4744,0.2319c0.087,0.1608,0.1936,0.3196,0.3377,0.4449
								c0.0375,0.0328,0.0737,0.067,0.1205,0.0825c0.049,0.0093,0.0946,0.0281,0.1441,0.0328
								c0.0904,0.0047,0.1829,0.0047,0.2687,0.0254c0.0409,0.0081,0.0785,0.0329,0.1227,0.0369
								c0.0402-0.004,0.0737-0.0321,0.1153-0.0402c0.0756-0.0174,0.1553-0.0268,0.2351-0.0335c0.0369-0.0039,0.0725,0,0.1134,0.0033
								c0.0663,0.0128,0.1407,0.0034,0.205-0.0295c0.0402-0.0187,0.0811-0.0556,0.1327-0.0509c0.0549,0,0.1112-0.0107,0.1634,0.0102
								c0.0476,0.0221,0.0958,0.0335,0.1481,0.0301c0.069,0,0.1327-0.0342,0.2031-0.0342c0.0737,0.0041,0.1507-0.0033,0.2292,0.0041
								c0.0689,0.014,0.1379,0.0301,0.2083,0.0261c0.0576-0.0054,0.1193-0.0121,0.1662-0.0502
								c0.0616-0.0456,0.1232-0.0851,0.179-0.1381c0.0328-0.0302,0.0677-0.0657,0.1172-0.0704c0.0383,0,0.063,0.0402,0.0785,0.0704
								c0.0335,0.053,0.0287,0.116,0.0301,0.1742c0,0.0804,0,0.1643,0.0034,0.2494c0.0093,0.0998-0.0985,0.1588-0.1133,0.2492
								c0.0067,0.0349,0.0383,0.0597,0.049,0.0932c0.006,0.0483-0.0027,0.0999-0.0093,0.1488c0,0.0335-0.0169,0.059-0.0362,0.0844
								c-0.0516,0.0744-0.1099,0.1401-0.1581,0.2171c-0.0222,0.0402-0.0436,0.0818-0.0476,0.1267
								c-0.0114,0.1046-0.0281,0.2085-0.0141,0.3149c0.0027,0.0356,0.0221,0.0691,0.0383,0.0972
								c-0.0148,0.0328-0.0423,0.063-0.0697,0.0837c-0.0081,0.0878-0.0167,0.1743-0.0014,0.2561
								c0.0027,0.0375,0.0549,0.0375,0.0723,0.0623c0.0067,0.0851-0.0026,0.1762-0.0073,0.2634
								c0.0019,0.0254-0.0242,0.0414-0.0416,0.0542c-0.1253,0.1006-0.254,0.1983-0.3478,0.3284
								c-0.0221,0.0335-0.0502,0.0663-0.0502,0.1072c-0.0034,0.0716-0.0067,0.1467-0.0081,0.2211
								c-0.0784,0.0623-0.1581,0.1206-0.2352,0.1829c-0.1253-0.0481-0.2499-0.0904-0.3786-0.1406
								c0.0188-0.0328,0.0349-0.0644,0.053-0.0972c0.0657-0.0999,0.1306-0.201,0.1936-0.2982
								c0.0302-0.0456,0.0383-0.0958,0.0442-0.1453c0.0188-0.1127,0.0188-0.2279,0.0121-0.3377
								c-0.0012-0.0215-0.0087-0.045-0.0207-0.063c-0.0537-0.0811-0.1407-0.1374-0.2318-0.1569
								c-0.1134,0.128-0.2252,0.2499-0.3539,0.3598c-0.0281,0.0268-0.0609,0.0449-0.083,0.0737
								c-0.0288,0.0583-0.0221,0.132-0.0677,0.187c-0.0449,0.0521-0.1106,0.0703-0.1702,0.0917
								c-0.0202,0.053-0.0409,0.1026-0.0583,0.1555c-0.1253-0.0328-0.2506-0.0584-0.376-0.093
								c0.0222-0.0423,0.055-0.0765,0.0852-0.114c0.0261-0.0361,0.0233-0.0817,0.0261-0.1253
								c0.0033-0.0354,0.0288-0.0656,0.0456-0.0944c0.0865-0.1407,0.1722-0.2808,0.2587-0.4214
								c-0.0818,0.0121-0.1689,0.0301-0.2573,0.0186c-0.0469-0.0066-0.073-0.0462-0.0999-0.0804
								c-0.063,0.0423-0.1306,0.0992-0.2137,0.0804c-0.0369-0.0033-0.063-0.0341-0.0818-0.0595
								c-0.0409,0.0409-0.0878,0.0784-0.1441,0.0877c-0.0482,0.0095-0.1005,0-0.1488,0.0048
								c-0.0161,0.1272-0.0958,0.2339-0.1769,0.3283c-0.057,0.0669-0.1165,0.1334-0.1555,0.2145
								c-0.0335,0.0656-0.0254,0.1393-0.0314,0.209c-0.01,0.1032-0.01,0.2111-0.0221,0.3103
								c-0.0269,0.0402-0.0785,0.0556-0.1153,0.0858c-0.0316,0.02-0.057,0.0549-0.0832,0.0871c-0.0026,0-0.014-0.0041-0.0174-0.0041
								c-0.0281-0.0066-0.0563-0.0114-0.0851-0.0167c-0.0944-0.0301-0.195-0.057-0.2901-0.0817
								c0.0188-0.1099,0.0502-0.2306,0.122-0.3217c0.0335-0.0409,0.0777-0.0818,0.0751-0.1401c0.0026-0.1393,0-0.2794,0.0026-0.4214
								c0.004-0.1334,0.0818-0.254,0.1274-0.3779c-0.0456-0.0248-0.0905-0.0583-0.142-0.067
								c-0.069-0.0161-0.1381,0.0133-0.1997,0.0421c-0.0235,0.0121-0.0483,0.0235-0.0597,0.045
								c-0.0777,0.162-0.1836,0.3122-0.2854,0.463c-0.0161,0.0228-0.0081,0.0475-0.0081,0.0744
								c0.0027,0.0656,0,0.1406-0.0408,0.1983c-0.0248,0.0342-0.0469,0.067-0.0664,0.1019
								c-0.1434-0.0349-0.2901-0.0723-0.4309-0.1092c0.0081-0.077,0.0369-0.1467,0.0704-0.2178
								c0.0416-0.083,0.1153-0.1434,0.1622-0.2197c0.0576-0.1039,0.0937-0.2292,0.2036-0.2908
								c0.0081-0.0785,0.0014-0.1548,0.0141-0.2359c0.004-0.0455,0.0342-0.0844,0.0254-0.1327
								c-0.0242-0.1146-0.0449-0.2371-0.0033-0.3505c-0.0349,0-0.0751,0.0107-0.1039-0.0126
								c-0.0328-0.0288-0.0469-0.0865-0.0261-0.1274c0.0154-0.0395,0.0449-0.0725,0.073-0.1053
								c-0.0376-0.004-0.0844-0.0154-0.0952-0.0602c-0.0147-0.065,0.0235-0.132,0.0637-0.1803
								c0.1134-0.1179,0.2352-0.2257,0.3479-0.3424c-0.0564,0-0.1153-0.0047-0.1608-0.0402
								c-0.0095-0.008-0.0081-0.0268-0.0067-0.0421c0.008-0.0281,0.0268-0.0537,0.0421-0.0832
								c-0.0354-0.008-0.0904-0.0121-0.0998-0.059c-0.0141-0.057,0.0174-0.1139,0.0314-0.1702
								c-0.1353,0.0088-0.2694,0.0376-0.4047,0.0269c-0.0482,0-0.0965-0.0397-0.1046-0.0899
								c-0.0133-0.0737-0.008-0.1501,0.0302-0.2157c0.0416-0.0851,0.0897-0.1655,0.1294-0.2533
								c0.0442-0.1045,0.0858-0.2118,0.1091-0.3236c-0.0918-0.0683-0.1769-0.1501-0.2439-0.2445
								C33.6305,9.1587,33.6077,9.0803,33.6312,9.0159L33.6312,9.0159z"/>
							<path class="st7" d="M33.6446,9.0422c0.004-0.049,0.0375-0.0865,0.0683-0.1193c0.1548,0.0777,0.3089,0.156,0.4637,0.2358
								c0.0723-0.0744,0.1374-0.1534,0.2358-0.1909c0.0235-0.0121,0.0509-0.0329,0.0778-0.0155
								c0.2459,0.1622,0.4898,0.3263,0.7357,0.4925c0.1736-0.0072,0.3458-0.0126,0.52-0.0174
								c-0.0469,0.0925-0.1051,0.1836-0.1897,0.2507c-0.1333,0.1091-0.3008,0.1581-0.4623,0.2077
								c0.1099,0.1997,0.2413,0.4007,0.4328,0.536c0.0516,0.0262,0.1092,0.0423,0.1676,0.0516
								c0.1039,0.0081,0.2171,0.0034,0.3189,0.0376c0.0436,0.0154,0.0966,0.0495,0.1434,0.0248
								c0.0992-0.0543,0.2171-0.0543,0.3237-0.0664c0.0602-0.0054,0.1199,0.0154,0.1809,0.0074
								c0.0516-0.0034,0.1039-0.0127,0.1494-0.0422c0.0335-0.0154,0.0683-0.0456,0.1106-0.0456
								c0.0516,0,0.1032-0.0079,0.1553,0.0142c0.057,0.0235,0.122,0.0314,0.1877,0.0247c0.0549-0.0012,0.1105-0.0328,0.1688-0.0261
								c0.0737,0,0.1455-0.0067,0.2211,0c0.0797,0.0128,0.165,0.0328,0.2454,0.0248c0.0535-0.0121,0.1086-0.0155,0.1521-0.053
								c0.0676-0.055,0.1434-0.0999,0.2071-0.1622c0.0228-0.0181,0.0523-0.0428,0.0851-0.0414
								c0.0395,0.0186,0.0602,0.0629,0.0723,0.1037c0.0128,0.0785,0.0047,0.1529,0.0114,0.228
								c-0.0053,0.0588,0.0027,0.1186-0.0019,0.1809c-0.0283,0.0637-0.0818,0.1139-0.108,0.1809
								c-0.0207,0.0483,0.0235,0.0878,0.0497,0.1287c-0.0088,0.0596-0.0014,0.1179-0.0202,0.1748
								c-0.0763,0.1253-0.1969,0.2292-0.2292,0.3746c-0.014,0.1065-0.0314,0.2204-0.0221,0.3317
								c0.0054,0.0375,0.0209,0.0723,0.0376,0.1065c-0.0195,0.0221-0.0469,0.0442-0.0657,0.0683
								c-0.0128,0.0677-0.0128,0.1381-0.0128,0.2085c0.0014,0.0321,0.0014,0.0656,0.0221,0.0918
								c0.0174,0.0167,0.0423,0.0247,0.0644,0.0368c0,0.0885-0.008,0.1755-0.0121,0.2666
								c-0.1333,0.1046-0.2747,0.2078-0.3752,0.3451c-0.0248,0.0328-0.0502,0.0663-0.0609,0.1018
								c-0.006,0.0771-0.0074,0.1589-0.0108,0.2399c-0.0737,0.0537-0.1453,0.1119-0.2204,0.1696
								c-0.1132-0.0409-0.2292-0.0857-0.3451-0.1253c0.0141-0.0255,0.0281-0.0537,0.0436-0.0785
								c0.0663-0.1005,0.1286-0.199,0.1923-0.2982c0.0288-0.0421,0.0362-0.0917,0.0456-0.1393
								c0.0188-0.1186,0.0188-0.2433,0.0141-0.3652c0-0.0281-0.0174-0.0537-0.0362-0.0785
								c-0.057-0.0797-0.1494-0.1346-0.2452-0.1527c-0.1085,0.128-0.2299,0.2513-0.3572,0.3652
								c-0.0288,0.0248-0.0623,0.0483-0.0924,0.0785c-0.0262,0.0623-0.0174,0.1374-0.0657,0.1936
								c-0.0469,0.0435-0.1106,0.0589-0.1702,0.0844c-0.0167,0.0496-0.0349,0.0993-0.055,0.1427
								c-0.1098-0.0261-0.2204-0.0509-0.3336-0.0797c0.0375-0.0442,0.0897-0.0851,0.0985-0.1441
								c0.0093-0.0395-0.0014-0.0884,0.0233-0.1253c0.1032-0.1655,0.2071-0.335,0.3123-0.5053
								c-0.0804,0.0174-0.1641,0.0329-0.2494,0.0329c-0.0314,0-0.0663,0-0.0937-0.0195c-0.0228-0.0235-0.0328-0.0483-0.0537-0.0704
								c-0.069,0.0395-0.1407,0.112-0.2271,0.0871c-0.0375-0.008-0.053-0.0476-0.0637-0.0758
								c-0.0449,0.043-0.0904,0.0939-0.1562,0.1053c-0.0549,0.0081-0.1098,0.0033-0.1695,0.0033
								c-0.0026,0.1408-0.0992,0.2473-0.1829,0.3498c-0.069,0.0832-0.1455,0.1715-0.1688,0.2801
								c-0.0102,0.1474-0.0215,0.2982-0.0283,0.449c-0.0442,0.0354-0.0977,0.0576-0.1367,0.0937
								c-0.0194,0.0167-0.0382,0.0395-0.0549,0.063c-0.1186-0.0335-0.2392-0.063-0.3612-0.0965
								c0.0181-0.0918,0.0416-0.1876,0.0965-0.266c0.0288-0.0409,0.063-0.0751,0.0851-0.118
								c0.0167-0.0314,0.0141-0.0656,0.0141-0.1018c0-0.1253,0-0.2546,0.0014-0.3793c0.0067-0.1414,0.0925-0.2585,0.1313-0.3859
								c-0.0611-0.0335-0.1193-0.0865-0.1936-0.0865c-0.0865-0.004-0.1662,0.0409-0.2413,0.0784
								c-0.0804,0.179-0.1997,0.3404-0.3089,0.508c0.0067,0.0703,0.0114,0.14-0.0114,0.2063
								c-0.0202,0.0469-0.057,0.0838-0.0825,0.1308c-0.1346-0.0329-0.2646-0.0637-0.3994-0.0985
								c0.0195-0.0811,0.0483-0.1602,0.0958-0.2312c0.0402-0.0663,0.1032-0.1213,0.1421-0.195
								c0.039-0.063,0.063-0.1381,0.1085-0.1956c0.0235-0.0349,0.055-0.0543,0.0885-0.0778c0.0135-0.0878,0-0.179,0.0214-0.2687
								c0.0054-0.0328,0.0309-0.0656,0.0215-0.1032c-0.0128-0.0784-0.0316-0.1588-0.0283-0.2419c0-0.0528,0.0169-0.1037,0.039-0.156
								c-0.0355,0.0121-0.0785,0.0288-0.1173,0.0121c-0.0328-0.0221-0.0469-0.0744-0.0302-0.1113
								c0.0269-0.0516,0.0678-0.0911,0.1073-0.1306c-0.0316,0-0.0683,0.0014-0.0959-0.0074
								c-0.0281-0.0128-0.0428-0.0456-0.0347-0.0709c0.008-0.059,0.0442-0.1032,0.0837-0.1455
								c0.1172-0.1253,0.2499-0.2352,0.3605-0.3645c-0.0657,0.0054-0.1401,0.0161-0.1964-0.0281
								c-0.0054-0.0483,0.0395-0.0904,0.0563-0.128c-0.0435-0.0086-0.1132,0-0.1219-0.0602
								c0.0033-0.059,0.0314-0.1139,0.0449-0.1689c-0.1434-0.0033-0.2848,0.0376-0.4309,0.0214
								c-0.0409,0-0.0744-0.0287-0.0837-0.0703c-0.0128-0.055-0.0107-0.1174,0.0093-0.1702
								c0.0402-0.0885,0.0897-0.1608,0.1313-0.2494c0.0556-0.1206,0.1032-0.2459,0.1313-0.3793
								c-0.0891-0.067-0.1729-0.1453-0.2432-0.2332C33.66,9.1707,33.6312,9.1051,33.6446,9.0422L33.6446,9.0422z"/>
							<path class="st5" d="M35.7829,8.9348c0.0656,0.0504,0.1086,0.1206,0.1327,0.1991c0.014,0.0777-0.0262,0.1481-0.0858,0.1983
								c0.008-0.0536,0.0187-0.1125,0.0126-0.1615C35.8378,9.0843,35.8036,9.0106,35.7829,8.9348L35.7829,8.9348z"/>
							<path class="st5" d="M35.0939,8.9678c0.0839,0.0128,0.1541,0.0697,0.191,0.142c0.0268,0.0576,0.0268,0.1146,0.0335,0.1688
								c-0.0221,0.0188-0.0442,0.0336-0.0651,0.049c0-0.0865-0.0428-0.1548-0.0744-0.2271
								C35.1576,9.0489,35.1262,9.008,35.0939,8.9678L35.0939,8.9678z"/>
							<path class="st5" d="M36.4375,9.134c0.0095,0.004,0.0248,0.0086,0.0302,0.0247c0.0248,0.061,0.0435,0.1234,0.0395,0.195
								c-0.002,0.0335-0.0288,0.0583-0.0537,0.0785c-0.0361,0.0207-0.0723,0.0468-0.1112,0.0649
								c-0.0067-0.0181,0.0093-0.0268,0.0214-0.0382C36.4583,9.3792,36.4549,9.2411,36.4375,9.134L36.4375,9.134z"/>
							<path class="st5" d="M36.914,9.3416c0.0321,0.0074,0.0751,0.0074,0.1018,0.0295c0.0469,0.0456,0.0778,0.1079,0.0718,0.1709
								c-0.0027,0.0443-0.0262,0.0845-0.0456,0.1206c-0.0309-0.0014-0.059-0.0014-0.0906-0.008
								c0.0235-0.0504,0.0684-0.1066,0.0483-0.1689C36.9796,9.4341,36.9388,9.3906,36.914,9.3416L36.914,9.3416z"/>
							<path class="st5" d="M37.4205,9.3825c0.0262-0.0033,0.055-0.0033,0.0811-0.0033c0.0027,0.0656,0.0067,0.1333,0.0128,0.1957
								c-0.0235,0.0161-0.0502,0.0294-0.0758,0.0408C37.4333,9.5373,37.4286,9.4589,37.4205,9.3825L37.4205,9.3825z"/>
							<path class="st6" d="M35.1208,9.5594c0.144-0.0314,0.2962-0.0469,0.4482-0.0469c-0.0549,0.045-0.1099,0.0832-0.1648,0.1334
								c-0.0376,0.0281-0.0844,0.0402-0.1227,0.0704c-0.0321,0.0248-0.0683,0.0542-0.1139,0.0502
								c-0.0804-0.0081-0.15-0.0502-0.2157-0.0925C34.9733,9.5996,35.0537,9.5782,35.1208,9.5594L35.1208,9.5594z"/>
							<path class="st6" d="M34.2678,9.6265c0.0918-0.0108,0.1776-0.069,0.2694-0.069c0.081-0.0048,0.1439,0.0649,0.2285,0.069
								c-0.0516,0.0268-0.102,0.0516-0.1501,0.077c-0.0288,0.0161-0.0523,0.0449-0.0804,0.0483
								c-0.0449,0-0.0737-0.0355-0.1072-0.0557C34.3763,9.6707,34.3206,9.6486,34.2678,9.6265L34.2678,9.6265z"/>
							<path class="st6" d="M38.3339,10.2483c0,0,0.057,0.258-0.049,0.331c-0.0442,0.0349-0.1172,0.0516-0.1527,0.0221
								c-0.0281-0.0174-0.0537-0.0542-0.0456-0.0904C38.1181,10.3522,38.3339,10.2483,38.3339,10.2483z"/>
							<path class="st6" d="M37.0246,10.8259c0.0301-0.0214,0.0642,0,0.0924,0.0154c0.0188,0.1353,0.0342,0.2808,0.0624,0.4175
								c0.0012,0.0295,0.0093,0.0543,0.0093,0.0837c-0.0014,0.0295-0.0563,0.0295-0.0563-0.0033
								c-0.0141-0.0992-0.0167-0.1997-0.0504-0.2943C37.0627,10.9747,37.0239,10.9043,37.0246,10.8259L37.0246,10.8259z"/>
							<path class="st6" d="M34.4668,10.8413c0.0248-0.0235,0.0596,0,0.0878,0.0148c0.0187,0.1407,0.0388,0.2773,0.0623,0.4161
								c0.0066,0.0301,0.0147,0.0563,0.0147,0.0858c-0.0054,0.03-0.0583,0.03-0.0583-0.0034
								c-0.0161-0.0991-0.0187-0.1997-0.0535-0.2948C34.5043,10.9886,34.4614,10.9184,34.4668,10.8413L34.4668,10.8413z"/>
							<path class="st6" d="M34.8749,11.7653c0.0247-0.0207,0.0629,0,0.0877,0.0162c0.0221,0.1353,0.0388,0.276,0.0623,0.4168
								c0.0067,0.0254,0.0148,0.0535,0.0148,0.0797c-0.0041,0.0288-0.0563,0.0288-0.0563,0
								c-0.0162-0.0999-0.0208-0.1997-0.0523-0.2949C34.9131,11.9107,34.8736,11.8438,34.8749,11.7653L34.8749,11.7653z"/>
							<path class="st6" d="M37.3052,11.6869c0.0276-0.0207,0.0618,0,0.0865,0.0161c0.0208,0.1374,0.0383,0.2801,0.063,0.4202
								c0.006,0.0254,0.0128,0.0502,0.0141,0.0804c-0.0014,0.0314-0.0563,0.0314-0.0563-0.0034
								c-0.0141-0.0931-0.0208-0.1983-0.0537-0.2894C37.3421,11.8357,37.3019,11.7653,37.3052,11.6869L37.3052,11.6869z"/>
							<path class="st6" d="M35.3573,10.9452c0.0174-0.0114,0.0328-0.0033,0.053,0c0.0349,0.0944,0.0677,0.1943,0.1132,0.2901
								c0.0141,0.0355,0.0388,0.067,0.0302,0.1072c-0.0235,0.0329-0.0683,0.0155-0.1006,0.0155
								c-0.0382-0.1146-0.0563-0.2359-0.0897-0.3532C35.3587,10.9814,35.348,10.9633,35.3573,10.9452L35.3573,10.9452z"/>
							<path class="st6" d="M36.4804,10.7341c0.0187-0.01,0.0355-0.0027,0.0556,0c0.0342,0.0951,0.067,0.1957,0.1125,0.2875
								c0.0155,0.0382,0.0395,0.0703,0.0302,0.1119c-0.0235,0.0295-0.069,0.0134-0.1018,0.0134
								c-0.0376-0.1139-0.0563-0.2352-0.0878-0.3538C36.4837,10.7757,36.477,10.7515,36.4804,10.7341L36.4804,10.7341z"/>
							<path class="st6" d="M35.9202,10.8011c0.0161-0.008,0.0321,0,0.0489,0c0.0376,0.0999,0.069,0.199,0.116,0.2908
								c0.0154,0.0335,0.0395,0.0711,0.0302,0.1086c-0.0235,0.0316-0.0683,0.0174-0.1006,0.0174
								c-0.0388-0.1179-0.0556-0.2412-0.0865-0.3591C35.9215,10.8413,35.9128,10.8178,35.9202,10.8011L35.9202,10.8011z"/>
							<path class="st6" d="M37.4923,11.0893c-0.0074-0.0221-0.0141-0.0444-0.0041-0.0677
								c0.0276,0.0489,0.0443,0.1005,0.0624,0.1507c0.0361,0.0832,0.0737,0.1622,0.1253,0.2326
								c0.0723,0.0997,0.1634,0.1769,0.2553,0.2518c0.0147,0.0162,0.0235,0.0302,0.0369,0.0462
								c-0.0818,0.0121-0.1622-0.0114-0.242,0.0074c-0.0302,0.0141-0.0483,0.0395-0.0771,0.0597
								c-0.02-0.1006-0.0294-0.2085-0.0482-0.3082C37.5787,11.3331,37.5372,11.2099,37.4923,11.0893L37.4923,11.0893z"/>
							<path class="st6" d="M36.4737,11.2178c0.0033,0,0.01,0,0.0121,0c0.0254,0.1541,0.0147,0.3143-0.0335,0.4691
								c-0.0209,0.0677-0.0469,0.1334-0.0885,0.1943c-0.0135-0.02-0.0188-0.0361-0.0135-0.053
								c0.0155-0.0803,0.039-0.1588,0.0557-0.2432C36.4314,11.4645,36.4442,11.3392,36.4737,11.2178L36.4737,11.2178z"/>
							<path class="st6" d="M35.8505,11.372c0.0026,0,0.0107,0,0.0154,0c0.0248,0.1575,0.01,0.3196-0.0328,0.4718
								c-0.0242,0.0683-0.0516,0.136-0.0918,0.1957c-0.0128-0.0188-0.0141-0.0329-0.0128-0.053
								c0.0128-0.0798,0.0388-0.1615,0.0543-0.2419C35.8089,11.6226,35.8243,11.496,35.8505,11.372L35.8505,11.372z"/>
							<path class="st3" d="M33.6051,13.0144c0.1393,0.0288,0.2806,0.0616,0.4214,0.0911
								c-0.0034,0.0483,0.0047,0.0985-0.0021,0.1488c-0.0167,0.0549-0.0482,0.1053-0.0965,0.1334
								c-0.0442,0.02-0.0918,0.0349-0.1387,0.0349c-0.12,0-0.2406,0.008-0.3605,0.008c-0.0047-0.0663-0.0073-0.1333-0.014-0.1962
								C33.4784,13.1618,33.5407,13.0881,33.6051,13.0144L33.6051,13.0144z"/>
							<path class="st3" d="M35.8352,13.2824c0.0602-0.0623,0.1186-0.1253,0.1809-0.1836c0.1253,0.0335,0.2559,0.0583,0.3812,0.0932
								c-0.0067,0.0502-0.0019,0.1053-0.0288,0.1501c-0.0154,0.0254-0.0261,0.0596-0.0516,0.0804
								c-0.0449,0.0235-0.0984,0.0354-0.15,0.0307c-0.1099-0.0073-0.2185-0.0107-0.327-0.0154
								C35.8378,13.3876,35.8298,13.334,35.8352,13.2824L35.8352,13.2824z"/>
							<path class="st3" d="M36.8543,13.608c0.0737-0.0589,0.1415-0.1232,0.2164-0.1809c0.1248,0.0435,0.2514,0.0891,0.376,0.1286
								c-0.0027,0.0402-0.0014,0.0744-0.0081,0.1113c-0.0235,0.0992-0.1179,0.1681-0.2185,0.1602
								c-0.12-0.0107-0.2425-0.0195-0.3659-0.0316C36.8543,13.7333,36.8543,13.6703,36.8543,13.608L36.8543,13.608z"/>
							<path class="st3" d="M34.3441,13.6784c0.053-0.0523,0.1046-0.0992,0.1602-0.1515c0.1032,0.0155,0.2064,0.0329,0.3089,0.0523
								c0.0288,0.0054,0.0569,0.0102,0.0851,0.0167c0,0.0778-0.0221,0.1595-0.0797,0.2118
								c-0.0382,0.0248-0.0891,0.0362-0.1353,0.0456c-0.1132,0.0041-0.2264,0.0041-0.3391,0.0041
								C34.3441,13.7991,34.3441,13.736,34.3441,13.6784L34.3441,13.6784z"/>
						</g>
						<g>
							<path class="st4" d="M22.8286,5.1878h0.006c0.1648,0.0998,0.3357,0.1916,0.5026,0.2915
								c1.0601,0.6051,2.1236,1.2129,3.1863,1.8159c0.0154,0.0128,0.0355,0.0174,0.0483,0.0335
								c-0.8799,0-1.7598,0.0081-2.6356,0.0918c-0.4348,0.0449-0.8697,0.1032-1.2966,0.191
								c-0.8596,0.1822-1.9446,0.5904-2.5242,0.855C20.1155,8.4665,21.9314,6.2713,22.8286,5.1878L22.8286,5.1878z"/>
							<path class="st3" d="M23.8948,7.4205c0.8771-0.0837,1.7569-0.0918,2.6368-0.0918c0.0154,0,0.0274,0,0.0402,0
								c0.0489,0.5776,0.1018,1.1601,0.146,1.7389c-0.1125,0.0081-0.2238,0-0.335,0.0034c-0.2024,0.0046-0.4042,0.0046-0.6011,0.008
								c-0.4463,0.0134-0.8912,0.0436-1.3363,0.0885c-0.4831,0.0469-0.9656,0.1079-1.446,0.1862
								c-0.5105,0.0838-1.0225,0.1836-1.5223,0.3324c-0.3203,0.0951-0.6401,0.2131-0.9529,0.3291
								c-0.1012-0.3773-0.2023-0.7605-0.3055-1.1392c0-0.0161-0.0048-0.0302-0.0067-0.049
								c-0.0322-0.1179-0.0637-0.2385-0.0965-0.3605c0.7894-0.3799,1.6236-0.6727,2.4853-0.855
								C23.0243,7.5237,23.4606,7.4653,23.8948,7.4205L23.8948,7.4205z"/>
							<path class="st4" d="M25.7817,9.0789c0.1969-0.0033,0.3987-0.0033,0.6011-0.008c0.1112-0.0034,0.2225,0.0046,0.335-0.0034
								c0.0054,0.0911,0.0154,0.1817,0.0228,0.2741c0.0462,0.457,0.0851,0.9228,0.1274,1.3825
								c-1.0957-0.063-2.2047-0.0597-3.2942,0.1091c-0.8946,0.1334-1.7751,0.3593-2.6348,0.6494
								c-0.0102,0.0134-0.0014,0.0302,0,0.0469c0.1079,0.4242,0.2251,0.8403,0.3357,1.2645V12.81
								c-0.0093-0.0302-0.0167-0.0616-0.0248-0.0904c-0.2412-0.8993-0.4844-1.8012-0.7257-2.7045
								c0.3129-0.116,0.6327-0.234,0.9529-0.3291c0.4998-0.1488,1.0118-0.2485,1.5223-0.3324
								c0.4805-0.0784,0.963-0.1393,1.446-0.1862C24.8905,9.1226,25.3355,9.0924,25.7817,9.0789L25.7817,9.0789z"/>
							<path class="st3" d="M23.5738,10.8332c1.0895-0.1688,2.1985-0.1721,3.2942-0.1091c0.0047,0,0.0073,0.0033,0.0128,0.0033
								c0.0516,0.5937,0.1079,1.1834,0.1595,1.771l-0.0081,0.0074c-0.837,0.0516-1.6732,0.1146-2.5081,0.2218
								c-1.0413,0.132-2.0787,0.3196-3.1019,0.5769h-0.0074c-0.0421-0.1628-0.087-0.3196-0.1286-0.4817
								c-0.0047-0.0041-0.0114-0.0114-0.0114-0.0128l0,0V12.794c-0.1106-0.4242-0.2278-0.8403-0.3357-1.2645
								c-0.0014-0.0167-0.0102-0.0335,0-0.0469C21.7986,11.1925,22.6791,10.9666,23.5738,10.8332L23.5738,10.8332z"/>
							<path class="st4" d="M24.524,12.7276c0.8349-0.1072,1.6711-0.1702,2.5081-0.2218c0.0537,0.5857,0.1072,1.168,0.1634,1.7582
								v0.0255c-1.1251,0.0758-2.2468,0.201-3.3605,0.3786c-0.6567,0.0985-1.318,0.2178-1.9741,0.3324
								c-0.1956-0.7298-0.3912-1.4628-0.5863-2.1905c0,0.0014,0.0067,0.0086,0.0114,0.0128
								c0.0416,0.1621,0.0865,0.3189,0.1286,0.4817h0.0074C22.4453,13.0471,23.4827,12.8596,24.524,12.7276L24.524,12.7276z"/>
						</g>
						<g>
							<path class="st8" d="M15.8764,6.6634h0.0067c1.3837,0.6023,2.7668,1.2068,4.1519,1.8045
								c0.5849,2.1791,1.1679,4.355,1.7543,6.5327v0.0133c-0.5348,0.112-1.0662,0.2285-1.5941,0.3693
								c-0.5295,0.1367-1.0474,0.2934-1.562,0.4751c-0.593,0.203-1.178,0.4268-1.7637,0.6479
								c-1.0011-2.1106-1.9955-4.2255-2.996-6.3362v-0.0055C14.5396,8.9973,15.2097,7.8279,15.8764,6.6634L15.8764,6.6634z"/>
							<path class="st2" d="M20.0383,11.6226c0.0409-0.0563,0.0818-0.1139,0.122-0.1721c0.0784,0.4107,0.1065,0.8476-0.0202,1.259
								c-0.0937,0.3123-0.2861,0.595-0.526,0.8128c-0.1494,0.1401-0.3189,0.258-0.4945,0.3598
								c-0.0885,0.0529-0.181,0.0871-0.2747,0.128c-0.4302,0.1567-0.9007,0.193-1.3503,0.1005
								c-0.3458-0.069-0.6841-0.2238-0.9576-0.4523c-0.215-0.1755-0.3906-0.3959-0.5159-0.6439
								c0.4556,0.0797,0.9173,0.136,1.3844,0.1099c0.3671-0.0209,0.7337-0.0911,1.0848-0.2024
								c0.3331-0.142,0.6493-0.331,0.9233-0.5709C19.6578,12.1413,19.8568,11.888,20.0383,11.6226L20.0383,11.6226z"/>
							<g>
								<polygon class="st9" points="17.9208,8.6421 17.8043,9.4039 18.4905,9.9508 17.7178,10.2644 17.5416,11.0216 
									16.9479,10.5793 16.1953,10.9217 16.2878,10.1015 15.5468,9.5749 16.3829,9.2163 16.4801,8.4116 17.183,8.9195 								"/>
								<polygon class="st10" points="17.9015,8.6642 17.7808,9.4006 17.0296,9.7363 								"/>
								<polygon class="st10" points="16.5003,8.4632 17.0926,8.9176 17.0296,9.7363 								"/>
								<polygon class="st10" points="16.2511,10.8829 16.9257,10.5545 17.0296,9.7363 								"/>
								<polygon class="st10" points="15.6519,9.6077 16.2644,10.0385 17.0296,9.7363 								"/>
								<polygon class="st10" points="18.4295,9.9441 17.6957,10.2409 17.5208,10.9666 17.031,9.7363 								"/>
							</g>
						</g>
						<g>
							<path class="st8" d="M29.8512,4.7871h0.0007c1.1218,0.851,2.2421,1.702,3.3605,2.5517v0.0414
								c-0.1976,2.2937-0.3919,4.5888-0.5883,6.8858h-0.1099c-0.6767-0.0368-1.3522-0.0583-2.0297-0.0663
								c-1.0701-0.0107-2.1429,0.0242-3.2138,0.0663c-0.213-2.3004-0.4235-4.6035-0.6372-6.9079V7.3454
								C27.7043,6.4925,28.777,5.6408,29.8512,4.7871L29.8512,4.7871z"/>
							<g>
								<g>
									<path class="st6" d="M28.304,7.7482c0.0972,0.0469,0.1955,0.0958,0.2941,0.1427c0.0021,0.0751,0.0021,0.1455,0.0114,0.2192
										c0.0423,0,0.0925,0,0.1394,0c-0.0154-0.0563-0.0409-0.1113-0.0376-0.1709c0.0034-0.0155-0.0012-0.0329,0.0074-0.0436
										c0.0644-0.0349,0.1522,0,0.2078-0.0549c0.0281-0.0268,0.0589-0.0469,0.0891-0.0751c0.0657,0,0.1287,0,0.193,0.0047
										c0.0081,0.0402,0.0162,0.0858,0.0242,0.1253c-0.0616,0.0858-0.1232,0.1622-0.1788,0.2466
										c-0.0081,0.067,0.0059,0.1313,0.0033,0.1983c0.0523,0.0269,0.1072,0.0483,0.1595,0.0711
										c0.0181,0.1092,0.0395,0.2145,0.0563,0.3277c0.0865,0.0817,0.1655,0.1628,0.2506,0.2418
										c0.0081,0.0611,0.0081,0.1241,0.0222,0.1864c0.0187,0.0469,0.0656,0.0737,0.0837,0.1267
										c0.0194,0.0549,0.0281,0.1098,0.0435,0.1648c-0.0489-0.0014-0.0958-0.006-0.146-0.0095
										c0.0093,0.0985,0.014,0.1991,0.0214,0.2963c-0.059,0-0.1153,0.0026-0.1736,0c-0.0093,0.0904-0.0167,0.1783-0.0301,0.266
										c-0.1046,0.0034-0.2117,0.0034-0.3163,0.0114c-0.006,0.0469-0.0021,0.0999-0.0088,0.1501
										c-0.0233,0.0455-0.057,0.0911-0.0863,0.1381c-0.1971,0.0235-0.3954,0.0456-0.595,0.0656
										c-0.0737-0.0033-0.1415-0.0502-0.2178-0.0535c-0.0797,0-0.1529,0-0.2345-0.0048
										c-0.0027-0.0321-0.0041-0.0703-0.0121-0.0998c-0.0416-0.0362-0.0878-0.0623-0.132-0.0958
										c-0.0321-0.0215-0.0609-0.053-0.1018-0.0597c-0.0737-0.0107-0.1488-0.02-0.2192-0.0321
										c-0.014-0.0697-0.0254-0.1401-0.0388-0.2057c-0.049-0.0114-0.0992-0.0148-0.1488-0.0228
										c-0.0154-0.0509-0.0302-0.1018-0.0502-0.1541c-0.0121-0.0443-0.0436-0.0811-0.0725-0.116
										c0.0221-0.0669,0.0504-0.138,0.0725-0.2084c-0.0342-0.0301-0.0671-0.0616-0.1039-0.0918
										c0.0602-0.1019,0.1165-0.2104,0.1715-0.3129c0.0709-0.0147,0.1448-0.0302,0.2131-0.0435
										c-0.0027-0.112-0.0014-0.2185-0.0034-0.3298c0.059-0.0154,0.1186-0.0294,0.1796-0.0456
										c0.0067-0.0502,0.0147-0.0958,0.0174-0.1487c-0.0718-0.0958-0.1488-0.1909-0.2212-0.2908c-0.0073-0.0549,0-0.1172,0-0.1755
										c0.059,0.0054,0.1247,0,0.1817,0.0207c0.0582,0.0215,0.1151,0.0443,0.1702,0.063
										c0.0235,0.0081,0.0314,0.0295,0.0442,0.0469c0.0316,0.0449,0.063,0.0939,0.0939,0.1374
										c0.0314-0.008,0.063-0.0181,0.0911-0.0268c0.0067-0.0657,0.0093-0.128,0.0188-0.1944
										C28.1237,7.8702,28.2122,7.8105,28.304,7.7482L28.304,7.7482z"/>
									<path class="st11" d="M28.2752,7.8205c0.0114-0.0066,0.0221-0.0133,0.0321-0.0228
										c0.0121,0.0048,0.0214,0.0128,0.0355,0.0162c0.0067,0.0435,0.0147,0.0924,0.0167,0.1367
										c0.0663-0.0021,0.1306-0.0067,0.1964-0.0067c0,0.0388,0.0019,0.0851,0.0054,0.1299
										c-0.055-0.0127-0.1086-0.0248-0.165-0.0295c-0.014-0.0282-0.0301-0.0535-0.0456-0.0784c-0.0281,0-0.0596,0-0.0851,0.0033
										c-0.008,0.0262-0.0154,0.0516-0.0235,0.0785c-0.0596,0.0061-0.1172,0.01-0.1735,0.0133
										c0-0.0247,0.0014-0.0549,0.0026-0.0797c0.0611-0.0121,0.1253-0.0201,0.1864-0.0307
										C28.2645,7.9063,28.2698,7.8607,28.2752,7.8205L28.2752,7.8205z"/>
									<path class="st11" d="M28.7965,8.106c0.1258-0.0951,0.2492-0.1916,0.3759-0.2874c0.0054,0.0221,0.01,0.0389,0.0128,0.067
										c-0.0523,0.0677-0.102,0.1387-0.1555,0.2131c-0.0088,0.0128-0.0248,0.0281-0.0221,0.0502
										c0.0012,0.0616,0.0054,0.1293,0.008,0.195c-0.014,0.0161-0.0261,0.0295-0.0416,0.0482
										c-0.0663,0.0048-0.1306,0.0195-0.199,0.0048c-0.2834-0.053-0.5783-0.0295-0.847,0.0696
										c-0.0449,0.0141-0.0851,0.0469-0.1374,0.0341c-0.0342-0.0033-0.0677-0.0046-0.1079-0.0086
										c0.0088-0.0523,0.0155-0.1032,0.0202-0.1555c-0.0785-0.0944-0.1522-0.1943-0.2299-0.2968
										c0.0014-0.0375,0.0026-0.0737,0.0026-0.1118c0.0785,0.0883,0.1629,0.1709,0.2419,0.2553c0.057,0,0.1173,0,0.175,0
										c0.0047,0.006,0.0119,0.0188,0.0147,0.0214c0.063-0.0154,0.1253-0.0435,0.193-0.0435
										c0.1434-0.004,0.2882-0.0074,0.4309-0.0154c0.0858,0.0033,0.1736,0.0114,0.262,0.0033
										C28.7931,8.1355,28.7965,8.1201,28.7965,8.106L28.7965,8.106z"/>
									<path class="st11" d="M27.9207,8.5168c0.2197-0.0865,0.463-0.1199,0.7029-0.0978c0.063,0.0073,0.1253,0.0167,0.1849,0.0242
										c0.0436,0.0623,0.0871,0.1293,0.1308,0.1876c0.0408,0.0535,0.0187,0.1199,0.0233,0.1788
										c-0.0402,0.0081-0.0803,0.0202-0.1192,0.0295c-0.0523,0.0034-0.1005,0-0.1507,0c-0.0925-0.0093-0.185,0-0.2782-0.0093
										c0-0.0537,0-0.1125,0-0.1689c0.0537-0.0361,0.1073-0.069,0.1589-0.1065c-0.1053,0-0.2105,0-0.3143,0.0047
										c-0.0295,0-0.0557,0.0095-0.0804,0.0167c0.0354,0.0415,0.0937,0.055,0.142,0.0751c-0.0014,0.0664,0.0054,0.1354,0,0.2038
										c-0.1555-0.0055-0.3117-0.0055-0.4704-0.0055c-0.0268-0.0361-0.0597-0.0663-0.0704-0.1098
										c-0.0126-0.0302-0.01-0.0677-0.01-0.1006C27.8175,8.5938,27.853,8.5355,27.9207,8.5168L27.9207,8.5168z"/>
									<path class="st11" d="M28.8366,8.9757c0.0476-0.0482,0.1092-0.0865,0.1596-0.13c0.0126,0.0107,0.0261,0.0188,0.0402,0.0221
										c-0.0054,0.1327-0.0102,0.2626-0.0141,0.3947c-0.0597,0.0067-0.1227,0.0067-0.1762,0.0316
										c-0.0107,0.077-0.0107,0.1588-0.0174,0.2352c-0.0402,0.0456-0.0871,0.0817-0.1239,0.1319
										c-0.0878-0.0126-0.1803-0.0233-0.2675-0.0347c-0.0047-0.0355-0.0066-0.0738-0.0066-0.1106
										c0.0442-0.0335,0.1112-0.0335,0.136-0.0885c0.0126-0.0268,0.0207-0.0528,0.0314-0.0784
										c-0.0469,0.0221-0.0918,0.0549-0.1467,0.0583c-0.0604,0-0.1166,0.0121-0.1702,0
										c-0.0543-0.0114-0.1092-0.0167-0.1655-0.0281c0.0328,0.0328,0.063,0.0703,0.0984,0.0998
										c0.0402,0.0155,0.0818,0.0181,0.1206,0.0288c0,0.0402,0.0014,0.0832,0.0014,0.122
										c-0.0449,0.0248-0.0911,0.0483-0.1341,0.0818c-0.016-0.0081-0.0347-0.0107-0.0521-0.0155
										c-0.0174-0.0582-0.0209-0.1212-0.045-0.1762c-0.0414-0.0295-0.0877-0.053-0.13-0.0751
										c-0.0047-0.0374-0.006-0.0737-0.0128-0.1112c-0.0414-0.0174-0.087-0.0362-0.1326-0.055
										c-0.006-0.0321-0.0081-0.0642-0.0181-0.0978c-0.0209-0.018-0.0456-0.0335-0.0697-0.0468
										C27.741,9.0555,27.741,8.9805,27.741,8.902c0.0235,0,0.0469-0.0093,0.0718-0.0093
										c0.0221,0.0421,0.0402,0.0878,0.073,0.1232c0.0623,0.0683,0.1286,0.1361,0.1916,0.2038
										c0.0316,0.0047,0.0677,0.0154,0.1013,0.0127c0.0133-0.0161,0.018-0.0288,0.0233-0.0468
										c0.0276-0.0758,0.0624-0.1481,0.0892-0.2212c0.0583-0.0047,0.1146-0.0047,0.1695-0.0086
										c0.0611,0.0777,0.1186,0.1541,0.1736,0.2324c0.0288-0.0026,0.0583-0.0107,0.0837-0.0153
										C28.7582,9.1084,28.7931,9.0375,28.8366,8.9757L28.8366,8.9757z"/>
									<path class="st11" d="M29.2508,9.1587c0.0818-0.0066,0.1635-0.0174,0.2413-0.0247
										c-0.0027,0.0777,0.0723,0.1153,0.0979,0.1783c0.0121,0.0321,0.02,0.067,0.0268,0.0998
										c-0.0335-0.0047-0.0683-0.0047-0.1018-0.0081c-0.0288-0.0388-0.0549-0.0763-0.0818-0.1172
										c-0.0114,0.0107-0.0254,0.0174-0.0361,0.0255c0.0261,0.0449,0.0609,0.0823,0.083,0.1253
										c0.0121,0.0904,0.0121,0.1781,0.0214,0.266c-0.0402,0-0.0797,0-0.1199,0c-0.0181-0.0576-0.0302-0.1125-0.0489-0.1741
										c-0.0128,0.008-0.0281,0.008-0.0409,0.0161c0.0128,0.0542,0.0349,0.1092,0.0428,0.1709
										c-0.0066,0.0823-0.018,0.1695-0.0288,0.258c-0.0395,0-0.0784,0-0.1192,0c-0.0295-0.0671-0.0737-0.1301-0.1092-0.1957
										c-0.0066-0.0202-0.0066-0.0375-0.0066-0.0576c0-0.0985,0-0.201,0-0.3015c0-0.0155,0.0066-0.0288,0.0174-0.0402
										C29.1408,9.3041,29.1978,9.2324,29.2508,9.1587L29.2508,9.1587z"/>
									<path class="st11" d="M27.2673,9.3041c0.0656-0.0021,0.128-0.0067,0.1876-0.0067
										c0.0141,0.0697,0.0295,0.1448,0.0442,0.2185c-0.0723,0.0764-0.1488,0.1548-0.2285,0.2359
										c0.0101,0.0066,0.0188,0.0107,0.0262,0.0187c-0.0074,0-0.0214-0.004-0.0309-0.008
										c-0.0067-0.0262-0.0154-0.0509-0.0247-0.0764c0.0328-0.0818,0.0649-0.1628,0.0958-0.2439
										C27.3175,9.3959,27.2927,9.3537,27.2673,9.3041L27.2673,9.3041z"/>
									<path class="st11" d="M27.4288,9.8141c0.0321-0.0932,0.0703-0.1762,0.1065-0.2661
										c0.0188,0.0148,0.0342,0.0302,0.0537,0.0443c0.004,0.1406,0.0086,0.2813,0.0133,0.4228
										c-0.0482-0.0074-0.0965-0.0174-0.142-0.0209C27.4489,9.936,27.4301,9.8737,27.4288,9.8141L27.4288,9.8141z"/>
									<path class="st11" d="M28.245,9.7872c0.0509-0.0288,0.0992-0.0616,0.146-0.0911c0.0972,0.0235,0.195,0.045,0.2903,0.0623
										c-0.0155,0.0443-0.0202,0.0906-0.0516,0.1274c-0.0281,0.0316-0.0563,0.0683-0.0832,0.1039
										c-0.0609,0-0.1206,0-0.1836,0.0047c-0.0354-0.0328-0.0716-0.0703-0.1051-0.1032
										C28.2564,9.855,28.2503,9.8234,28.245,9.7872L28.245,9.7872z"/>
									<path class="st11" d="M28.7515,9.9441c0.0725-0.0402,0.1441-0.0784,0.2166-0.1153
										c0.0281,0.053,0.0582,0.0999,0.0863,0.1508c-0.0233,0-0.0456,0-0.0649,0c-0.0067,0.0589-0.0041,0.1219-0.0134,0.1815
										c-0.0134,0.0321-0.0382,0.0623-0.0583,0.0951c-0.0335-0.0294-0.0642-0.0582-0.0965-0.0877
										c-0.0093-0.0155-0.0281-0.0281-0.0314-0.0456C28.777,10.0633,28.7663,10.001,28.7515,9.9441L28.7515,9.9441z"/>
									<path class="st11" d="M27.7498,9.8911c0.0563-0.0033,0.1112-0.0054,0.1641-0.0093
										c0.0121,0.1032,0.0248,0.2037,0.0342,0.3068c-0.0093,0.0128-0.0188,0.0195-0.0309,0.0302
										c-0.0019-0.0074-0.0033-0.0207-0.0047-0.0302c-0.0623-0.0435-0.1232-0.0871-0.1862-0.1313
										C27.7357,10.0057,27.7431,9.9508,27.7498,9.8911L27.7498,9.8911z"/>
									<path class="st11" d="M28.4902,10.1732c0.0328-0.0088,0.0657-0.0248,0.0992-0.0342
										c0.0342,0.0495,0.067,0.1058,0.1032,0.1548c-0.0832,0.0093-0.1662,0.0207-0.2466,0.0295
										C28.4607,10.2737,28.4762,10.2269,28.4902,10.1732L28.4902,10.1732z"/>
									<path class="st11" d="M28.2543,10.2188c0.0349-0.0033,0.0731-0.0074,0.1106-0.0074c0.02,0.0369,0.0409,0.0751,0.063,0.1153
										c-0.0316,0.0034-0.0651,0.01-0.0992,0.0081c-0.0421-0.0081-0.0837-0.0269-0.1212-0.0376
										C28.2201,10.2718,28.2356,10.2448,28.2543,10.2188L28.2543,10.2188z"/>
									<ellipse class="st11" cx="28.0773" cy="9.0086" rx="0.0881" ry="0.0663"/>
									<ellipse class="st11" cx="28.6571" cy="9.0086" rx="0.0911" ry="0.0663"/>
								</g>
								<g>
									<path class="st6" d="M31.3341,7.7482c0.0958,0.0469,0.195,0.0958,0.2915,0.1427c0.0054,0.0751,0.0054,0.1455,0.01,0.2192
										c0.0449,0,0.0939,0,0.1394,0c-0.0141-0.0563-0.0395-0.1113-0.0329-0.1709c0-0.0155-0.0033-0.0329,0.0067-0.0436
										c0.0637-0.0349,0.1534,0,0.2057-0.0549c0.0309-0.0268,0.0611-0.0469,0.0925-0.0751c0.063,0,0.1253,0,0.1917,0.0047
										c0.0059,0.0402,0.0154,0.0858,0.02,0.1253c-0.0563,0.0858-0.1193,0.1622-0.1736,0.2466
										c-0.0114,0.067,0.0034,0.1313,0.0027,0.1983c0.053,0.0269,0.1032,0.0483,0.1602,0.0711
										c0.0174,0.1092,0.0375,0.2145,0.0549,0.3277c0.0832,0.0817,0.1676,0.1628,0.25,0.2418
										c0.0093,0.0611,0.0093,0.1241,0.0187,0.1864c0.0221,0.0469,0.069,0.0737,0.0892,0.1267
										c0.0161,0.0549,0.0254,0.1098,0.0421,0.1648c-0.0482-0.0014-0.0984-0.006-0.1474-0.0095
										c0.0067,0.0985,0.0161,0.1991,0.0207,0.2963c-0.0563,0-0.1151,0.0026-0.1715,0c-0.01,0.0904-0.0187,0.1783-0.0301,0.266
										c-0.1053,0.0034-0.2111,0.0034-0.3184,0.0114c-0.0012,0.0469,0,0.0999-0.008,0.1501
										c-0.0214,0.0455-0.0576,0.0911-0.0865,0.1381c-0.1964,0.0235-0.3954,0.0456-0.5951,0.0656
										c-0.0744-0.0033-0.1387-0.0502-0.2164-0.0535c-0.0784,0-0.1569,0-0.2352-0.0048
										c-0.0027-0.0321-0.0047-0.0703-0.0154-0.0998c-0.0362-0.0362-0.0878-0.0623-0.1267-0.0958
										c-0.0349-0.0215-0.0644-0.053-0.1032-0.0597c-0.0751-0.0107-0.1467-0.02-0.2185-0.0321
										c-0.0154-0.0697-0.0281-0.1401-0.0382-0.2057c-0.0523-0.0114-0.1013-0.0148-0.1522-0.0228
										c-0.0161-0.0509-0.0314-0.1018-0.0475-0.1541c-0.0174-0.0443-0.0469-0.0811-0.0744-0.116
										c0.0207-0.0669,0.0495-0.138,0.0709-0.2084c-0.0314-0.0301-0.0656-0.0616-0.0998-0.0918
										c0.0563-0.1019,0.1125-0.2104,0.1695-0.3129c0.073-0.0147,0.1434-0.0302,0.2131-0.0435
										c-0.0021-0.112-0.0021-0.2185-0.0074-0.3298c0.0616-0.0154,0.1239-0.0294,0.1857-0.0456
										c0.004-0.0502,0.0086-0.0958,0.0154-0.1487c-0.0737-0.0958-0.1488-0.1909-0.2245-0.2908
										c-0.0047-0.0549,0.0021-0.1172,0.0021-0.1755c0.0602,0.0054,0.1239,0,0.1823,0.0207
										c0.0556,0.0215,0.1139,0.0443,0.1722,0.063c0.0181,0.0081,0.0314,0.0295,0.0416,0.0469
										c0.0314,0.0449,0.0663,0.0939,0.0972,0.1374c0.0281-0.008,0.0596-0.0181,0.0911-0.0268
										c0.0053-0.0657,0.0079-0.128,0.014-0.1944C31.1505,7.8702,31.2423,7.8105,31.3341,7.7482L31.3341,7.7482z"/>
									<path class="st11" d="M31.3046,7.8205c0.0121-0.0066,0.0214-0.0133,0.0321-0.0228
										c0.0128,0.0048,0.0221,0.0128,0.0329,0.0162c0.0054,0.0435,0.0133,0.0924,0.02,0.1367
										c0.0637-0.0021,0.13-0.0067,0.1943-0.0067c0.0027,0.0388,0.0027,0.0851,0.0047,0.1299
										c-0.0516-0.0127-0.1065-0.0248-0.1634-0.0295c-0.0134-0.0282-0.0316-0.0535-0.0436-0.0784
										c-0.0294,0-0.0609,0-0.0863,0.0033c-0.0074,0.0262-0.0155,0.0516-0.0228,0.0785c-0.0597,0.0061-0.1173,0.01-0.177,0.0133
										c0-0.0247,0.0034-0.0549,0.0067-0.0797c0.0616-0.0121,0.1234-0.0201,0.1857-0.0307
										C31.2905,7.9063,31.2965,7.8607,31.3046,7.8205L31.3046,7.8205z"/>
									<path class="st11" d="M31.8239,8.106c0.1253-0.0951,0.2547-0.1916,0.3786-0.2874c0.0047,0.0221,0.008,0.0389,0.014,0.067
										c-0.0528,0.0677-0.1065,0.1387-0.1554,0.2131c-0.0095,0.0128-0.0235,0.0281-0.0235,0.0502
										c0,0.0616,0.0047,0.1293,0.008,0.195c-0.014,0.0161-0.0288,0.0295-0.0442,0.0482
										c-0.0644,0.0048-0.1327,0.0195-0.1957,0.0048c-0.2834-0.053-0.5802-0.0295-0.8482,0.0696
										c-0.045,0.0141-0.0871,0.0469-0.1387,0.0341c-0.0335-0.0033-0.069-0.0046-0.1053-0.0086
										c0.006-0.0523,0.0121-0.1032,0.0188-0.1555c-0.0771-0.0944-0.1534-0.1943-0.2312-0.2968
										c0.0053-0.0375,0.0053-0.0737,0.0053-0.1118c0.0778,0.0883,0.1582,0.1709,0.2387,0.2553c0.0589,0,0.1206,0,0.1769,0
										c0.0047,0.006,0.0107,0.0188,0.0167,0.0214c0.063-0.0154,0.1239-0.0435,0.1916-0.0435
										c0.1427-0.004,0.2861-0.0074,0.4302-0.0154c0.0878,0.0033,0.175,0.0114,0.2613,0.0033
										C31.8219,8.1355,31.8239,8.1201,31.8239,8.106L31.8239,8.106z"/>
									<path class="st11" d="M30.9467,8.5168c0.2238-0.0865,0.4665-0.1199,0.7031-0.0978
										c0.0623,0.0073,0.1253,0.0167,0.1895,0.0242c0.0423,0.0623,0.0839,0.1293,0.1294,0.1876
										c0.0409,0.0535,0.0167,0.1199,0.0235,0.1788c-0.0402,0.0081-0.0811,0.0202-0.1234,0.0295c-0.0482,0.0034-0.0965,0-0.1488,0
										c-0.0911-0.0093-0.1829,0-0.2754-0.0093c0-0.0537,0-0.1125,0-0.1689c0.0504-0.0361,0.108-0.069,0.1575-0.1065
										c-0.1046,0-0.2111,0-0.3117,0.0047c-0.0307,0-0.0556,0.0095-0.0804,0.0167c0.0336,0.0415,0.0932,0.055,0.1394,0.0751
										c0,0.0664,0.0027,0.1354,0.0027,0.2038c-0.1569-0.0055-0.3163-0.0055-0.4732-0.0055
										c-0.0268-0.0361-0.0589-0.0663-0.0716-0.1098c-0.0107-0.0302-0.0095-0.0677-0.0095-0.1006
										C30.8449,8.5938,30.8825,8.5355,30.9467,8.5168L30.9467,8.5168z"/>
									<path class="st11" d="M31.8662,8.9757c0.0482-0.0482,0.1072-0.0865,0.1608-0.13c0.0119,0.0107,0.0268,0.0188,0.0368,0.0221
										c-0.0014,0.1327-0.0074,0.2626-0.0121,0.3947c-0.0596,0.0067-0.1219,0.0067-0.1809,0.0316
										c-0.01,0.077-0.01,0.1588-0.0128,0.2352c-0.0409,0.0456-0.0878,0.0817-0.1239,0.1319
										c-0.0892-0.0126-0.1803-0.0233-0.2708-0.0347c-0.0021-0.0355-0.0021-0.0738-0.0047-0.1106
										c0.0469-0.0335,0.1125-0.0335,0.1346-0.0885c0.0141-0.0268,0.0222-0.0528,0.0322-0.0784
										c-0.0469,0.0221-0.0904,0.0549-0.1468,0.0583c-0.0582,0-0.1139,0.0121-0.1674,0
										c-0.0543-0.0114-0.1127-0.0167-0.1636-0.0281c0.0309,0.0328,0.0604,0.0703,0.0959,0.0998
										c0.0388,0.0155,0.0823,0.0181,0.1199,0.0288c0,0.0402,0.0026,0.0832,0.0026,0.122
										c-0.0456,0.0248-0.0918,0.0483-0.1327,0.0818c-0.0194-0.0081-0.0382-0.0107-0.0535-0.0155
										c-0.0162-0.0582-0.0235-0.1212-0.0436-0.1762c-0.0421-0.0295-0.0904-0.053-0.1313-0.0751
										c-0.0047-0.0374-0.0093-0.0737-0.0114-0.1112c-0.0469-0.0174-0.0877-0.0362-0.1346-0.055
										c-0.0067-0.0321-0.0074-0.0642-0.0221-0.0978c-0.0167-0.018-0.0416-0.0335-0.0637-0.0468
										c-0.0067-0.0785-0.0067-0.1534-0.0067-0.2319c0.0255,0,0.0523-0.0093,0.0758-0.0093
										c0.0235,0.0421,0.0402,0.0878,0.0716,0.1232c0.0664,0.0683,0.1287,0.1361,0.195,0.2038
										c0.0321,0.0047,0.0644,0.0154,0.1011,0.0127c0.0102-0.0161,0.0167-0.0288,0.0235-0.0468
										c0.0262-0.0758,0.057-0.1481,0.0871-0.2212c0.0543-0.0047,0.1113-0.0047,0.1709-0.0086
										c0.059,0.0777,0.116,0.1541,0.1736,0.2324c0.0268-0.0026,0.0535-0.0107,0.0837-0.0153
										C31.7877,9.1084,31.8219,9.0375,31.8662,8.9757L31.8662,8.9757z"/>
									<path class="st11" d="M32.2809,9.1587c0.0797-0.0066,0.1636-0.0174,0.2426-0.0247
										c-0.0067,0.0777,0.0703,0.1153,0.0951,0.1783c0.0128,0.0321,0.0207,0.067,0.0267,0.0998
										c-0.0349-0.0047-0.069-0.0047-0.1051-0.0081c-0.0248-0.0388-0.0516-0.0763-0.079-0.1172
										c-0.0095,0.0107-0.0235,0.0174-0.0355,0.0255c0.0274,0.0449,0.0602,0.0823,0.0851,0.1253
										c0.0128,0.0904,0.0128,0.1781,0.02,0.266c-0.0382,0-0.0791,0-0.12,0c-0.0161-0.0576-0.0314-0.1125-0.0468-0.1741
										c-0.0141,0.008-0.0281,0.008-0.0443,0.0161c0.0148,0.0542,0.0349,0.1092,0.0443,0.1709
										c-0.0048,0.0823-0.0188,0.1695-0.0281,0.258c-0.0397,0-0.0799,0-0.1194,0c-0.0281-0.0671-0.0756-0.1301-0.1079-0.1957
										c-0.0093-0.0202-0.0067-0.0375-0.008-0.0576c0.0012-0.0985,0-0.201,0-0.3015c-0.0014-0.0155,0.008-0.0288,0.0167-0.0402
										C32.171,9.3041,32.226,9.2324,32.2809,9.1587L32.2809,9.1587z"/>
									<path class="st11" d="M30.2968,9.3041c0.063-0.0021,0.1253-0.0067,0.1876-0.0067
										c0.0155,0.0697,0.0316,0.1448,0.0456,0.2185c-0.0756,0.0764-0.1507,0.1548-0.2318,0.2359
										c0.01,0.0066,0.0207,0.0107,0.0302,0.0187c-0.0114,0-0.0222-0.004-0.0329-0.008
										c-0.0066-0.0262-0.0187-0.0509-0.0254-0.0764c0.0335-0.0818,0.0663-0.1628,0.0972-0.2439
										C30.3451,9.3959,30.3202,9.3537,30.2968,9.3041L30.2968,9.3041z"/>
									<path class="st11" d="M30.4576,9.8141c0.0335-0.0932,0.0723-0.1762,0.1058-0.2661
										c0.0209,0.0148,0.0362,0.0302,0.053,0.0443c0.006,0.1406,0.0088,0.2813,0.0155,0.4228
										c-0.0476-0.0074-0.0959-0.0174-0.1462-0.0209C30.4764,9.936,30.4576,9.8737,30.4576,9.8141L30.4576,9.8141z"/>
									<path class="st11" d="M31.2744,9.7872c0.0516-0.0288,0.0992-0.0616,0.1462-0.0911c0.0958,0.0235,0.195,0.045,0.2887,0.0623
										c-0.014,0.0443-0.0174,0.0906-0.0523,0.1274c-0.0261,0.0316-0.0549,0.0683-0.0811,0.1039c-0.0609,0-0.1226,0-0.1822,0.0047
										c-0.0361-0.0328-0.073-0.0703-0.1044-0.1032C31.2865,9.855,31.2798,9.8234,31.2744,9.7872L31.2744,9.7872z"/>
									<path class="st11" d="M31.7823,9.9441c0.0711-0.0402,0.1448-0.0784,0.2111-0.1153c0.0316,0.053,0.063,0.0999,0.0946,0.1508
										c-0.0242,0-0.0476,0-0.0711,0c-0.006,0.0589-0.0012,0.1219-0.0086,0.1815c-0.0174,0.0321-0.0395,0.0623-0.0616,0.0951
										c-0.0322-0.0294-0.0637-0.0582-0.0946-0.0877c-0.0128-0.0155-0.0302-0.0281-0.0314-0.0456
										C31.8058,10.0633,31.7972,10.001,31.7823,9.9441L31.7823,9.9441z"/>
									<path class="st11" d="M30.7793,9.8911c0.0549-0.0033,0.1099-0.0054,0.1648-0.0093
										c0.0134,0.1032,0.0248,0.2037,0.0362,0.3068c-0.0114,0.0128-0.0228,0.0195-0.0336,0.0302
										c-0.0012-0.0074-0.0026-0.0207-0.0047-0.0302c-0.063-0.0435-0.1232-0.0871-0.1862-0.1313
										C30.7638,10.0057,30.7732,9.9508,30.7793,9.8911L30.7793,9.8911z"/>
									<path class="st11" d="M31.5197,10.1732c0.0329-0.0088,0.0657-0.0248,0.0985-0.0342
										c0.0328,0.0495,0.0676,0.1058,0.1004,0.1548c-0.0784,0.0093-0.1634,0.0207-0.2432,0.0295
										C31.4915,10.2737,31.5057,10.2269,31.5197,10.1732L31.5197,10.1732z"/>
									<path class="st11" d="M31.2825,10.2188c0.0368-0.0033,0.0751-0.0074,0.1112-0.0074
										c0.0209,0.0369,0.043,0.0751,0.065,0.1153c-0.0369,0.0034-0.069,0.01-0.1011,0.0081
										c-0.0409-0.0081-0.0832-0.0269-0.1227-0.0376C31.2503,10.2718,31.2658,10.2448,31.2825,10.2188L31.2825,10.2188z"/>
									<ellipse class="st11" cx="31.1076" cy="9.0086" rx="0.0891" ry="0.0663"/>
									<ellipse class="st11" cx="31.6862" cy="9.0086" rx="0.0885" ry="0.0663"/>
								</g>
								<g>
									<path class="st6" d="M29.8197,10.3889c0.1005,0.047,0.1969,0.0958,0.2975,0.1427c0,0.0744,0,0.1455,0.008,0.2145
										c0.0456,0,0.0932,0,0.1387,0c-0.0141-0.057-0.0388-0.1106-0.0376-0.1703c0.0034-0.0154-0.0012-0.0321,0.0095-0.0401
										c0.0656-0.0341,0.1541,0,0.2076-0.0543c0.0295-0.0268,0.0611-0.0537,0.0925-0.0744c0.0637,0,0.126,0,0.1897,0.004
										c0.0081,0.0402,0.0161,0.0818,0.0228,0.1247c-0.0602,0.0817-0.1199,0.1628-0.1776,0.2453
										c-0.0086,0.0623,0.0067,0.1306,0.0054,0.1956c0.0523,0.0281,0.1025,0.053,0.1575,0.0751
										c0.0167,0.1113,0.0395,0.2192,0.0563,0.3237c0.0837,0.0797,0.1676,0.1662,0.2506,0.2472
										c0.0081,0.059,0.0081,0.122,0.0207,0.1803c0.0188,0.0469,0.069,0.0804,0.0865,0.1299
										c0.0161,0.0537,0.0255,0.1127,0.0462,0.169c-0.053-0.0027-0.0998-0.0081-0.1514-0.0155
										c0.0093,0.0999,0.0161,0.2024,0.02,0.2989c-0.0563,0-0.1105,0-0.1709,0c-0.0093,0.0885-0.0181,0.1755-0.0281,0.2666
										c-0.1065,0.0021-0.2131,0.0055-0.3176,0.0088c-0.0055,0.0537-0.0007,0.0997-0.0081,0.1508
										c-0.0235,0.0482-0.0604,0.093-0.0865,0.14c-0.1969,0.0221-0.3967,0.0456-0.5944,0.0663
										c-0.0777-0.0033-0.1448-0.0509-0.2211-0.0535c-0.0778,0-0.1515,0-0.2312-0.0095c-0.0054-0.0281-0.008-0.0656-0.0161-0.0977
										c-0.0376-0.0383-0.0878-0.063-0.13-0.0966c-0.0329-0.0214-0.063-0.0509-0.102-0.0588
										c-0.0737-0.0081-0.1481-0.0174-0.219-0.0328c-0.0141-0.0664-0.0248-0.1374-0.0383-0.2078
										c-0.0509-0.0067-0.0977-0.01-0.1493-0.0221c-0.0155-0.0502-0.0316-0.1032-0.0483-0.1501
										c-0.0154-0.0476-0.0456-0.0804-0.0758-0.1179c0.0235-0.0637,0.0523-0.1341,0.0725-0.2052
										c-0.0329-0.0328-0.0657-0.0623-0.1006-0.0924c0.0583-0.108,0.1132-0.2118,0.1696-0.3143
										c0.0716-0.0174,0.1453-0.0329,0.215-0.0462c-0.0067-0.1113-0.0054-0.2185-0.0067-0.3244
										c0.059-0.0161,0.1213-0.0301,0.1809-0.0489c0.006-0.0476,0.0128-0.0999,0.0188-0.1474
										c-0.0751-0.1006-0.1521-0.1957-0.2225-0.2903c-0.0107-0.0595,0-0.1225,0-0.1755c0.0597,0.0014,0.1239-0.0047,0.1797,0.0209
										c0.0602,0.0214,0.1165,0.0414,0.1715,0.0623c0.0221,0.008,0.0321,0.0261,0.0456,0.0449
										c0.0314,0.0475,0.063,0.0918,0.0937,0.1387c0.0316-0.0121,0.063-0.0174,0.0925-0.0269
										c0.0047-0.0644,0.0095-0.1274,0.0154-0.193C29.6401,10.511,29.7299,10.4513,29.8197,10.3889L29.8197,10.3889z"/>
									<path class="st11" d="M29.7928,10.464c0.0102-0.0128,0.0209-0.0161,0.0329-0.0281
										c0.0093,0.0081,0.0221,0.0154,0.0328,0.0188c0.008,0.0435,0.0147,0.0891,0.02,0.1339
										c0.063-0.0047,0.1287-0.0047,0.195-0.0093c0,0.0442,0.0034,0.0851,0.0047,0.13c-0.0535-0.0074-0.1086-0.02-0.1648-0.0295
										c-0.014-0.0254-0.0314-0.0489-0.0456-0.0737c-0.0295,0-0.0556,0-0.0871,0.0034c-0.0066,0.0261-0.0147,0.0482-0.0228,0.073
										c-0.0563,0.0067-0.1151,0.0161-0.1728,0.0193c0-0.0293,0.0012-0.0549,0.0026-0.0844
										c0.0623-0.008,0.1246-0.0187,0.1864-0.0288C29.7795,10.5472,29.7875,10.5016,29.7928,10.464L29.7928,10.464z"/>
									<path class="st11" d="M30.3116,10.7462c0.126-0.0952,0.2518-0.1917,0.3799-0.2868
										c0.0034,0.0221,0.0067,0.0388,0.0107,0.0623c-0.0516,0.0737-0.1018,0.1427-0.1548,0.2124
										c-0.0093,0.0174-0.024,0.0321-0.024,0.0542c0.0012,0.063,0.008,0.1301,0.0093,0.1931
										c-0.0128,0.0187-0.0262,0.0321-0.0416,0.0482c-0.0677,0.0034-0.1327,0.0221-0.199,0.0074
										c-0.2834-0.0523-0.5797-0.0322-0.847,0.0709c-0.0456,0.0141-0.0871,0.0469-0.1394,0.0342
										c-0.0342-0.0026-0.0709-0.0086-0.1031-0.0086c0.0059-0.057,0.0107-0.1039,0.02-0.1569
										c-0.0818-0.0972-0.1569-0.1976-0.2318-0.2968c0.0012-0.0375,0.0026-0.0737,0.0026-0.1112
										c0.0771,0.0858,0.1608,0.1695,0.2399,0.2539c0.0583,0,0.1179,0,0.1776,0c0.0033,0.0034,0.0107,0.0155,0.0121,0.0209
										c0.0663-0.0174,0.1286-0.0423,0.1936-0.0423c0.1448-0.0047,0.2875-0.0128,0.4316-0.0161
										c0.0858,0.0033,0.1748,0.0081,0.2633,0C30.3116,10.7757,30.3116,10.7555,30.3116,10.7462L30.3116,10.7462z"/>
									<path class="st11" d="M29.4377,11.1583c0.2198-0.0878,0.4618-0.1253,0.7017-0.0985
										c0.0589,0.0026,0.1246,0.0153,0.1842,0.0248c0.045,0.0623,0.0899,0.1253,0.1341,0.1876
										c0.0409,0.0489,0.0154,0.1193,0.0221,0.1783c-0.0409,0.0047-0.0811,0.0174-0.1213,0.0247c-0.0502,0.0047-0.0991,0-0.1488,0
										c-0.0924-0.004-0.1849,0.0047-0.2774-0.004c0-0.0537,0-0.1132,0-0.1729c0.0516-0.0314,0.1051-0.0683,0.1567-0.1025
										c-0.1038,0-0.2083-0.0033-0.3122,0.0047c-0.0281,0-0.0563,0.0081-0.0797,0.0174c0.0362,0.0409,0.0918,0.053,0.1394,0.0744
										c-0.0014,0.0657,0.0019,0.132,0.0019,0.2038c-0.1555-0.0054-0.3136-0.0054-0.4717-0.0095
										c-0.0248-0.0328-0.059-0.0656-0.0704-0.1065c-0.0107-0.0349-0.0093-0.067-0.0093-0.0999
										C29.3345,11.2353,29.3681,11.1723,29.4377,11.1583L29.4377,11.1583z"/>
									<path class="st11" d="M30.353,11.6146c0.0483-0.0483,0.1079-0.0851,0.1615-0.128
										c0.0121,0.0095,0.0261,0.0141,0.0382,0.0221c-0.0054,0.128-0.0073,0.2614-0.0133,0.39
										c-0.0597,0.0121-0.1227,0.0121-0.1796,0.0341c-0.0093,0.0805-0.0093,0.1588-0.0161,0.238
										c-0.0388,0.0456-0.0858,0.081-0.1206,0.1272c-0.0904-0.0093-0.1809-0.02-0.2701-0.0314
										c-0.0014-0.0395-0.0014-0.0772-0.0067-0.1132c0.0469-0.0302,0.1146-0.0302,0.1368-0.0858
										c0.0119-0.0255,0.02-0.0516,0.0328-0.0772c-0.0469,0.0228-0.0925,0.0551-0.1462,0.0551
										c-0.0596,0.0026-0.1179,0.0161-0.1715,0.0026c-0.0542-0.0086-0.1105-0.016-0.1648-0.0274
										c0.0323,0.0328,0.0623,0.071,0.0999,0.0991c0.0388,0.0162,0.079,0.0181,0.1186,0.0288c0,0.0376,0,0.0785,0.0021,0.118
										c-0.043,0.0302-0.0892,0.0516-0.1334,0.0818c-0.0174-0.0048-0.0342-0.0128-0.053-0.0162
										c-0.0174-0.0595-0.0228-0.1158-0.0435-0.1708c-0.0409-0.0301-0.0911-0.053-0.1348-0.0777
										c0-0.0356-0.0047-0.0704-0.0093-0.1086c-0.0423-0.0214-0.0851-0.0388-0.132-0.0583
										c-0.006-0.0335-0.0114-0.0623-0.0214-0.0965c-0.0188-0.0221-0.0442-0.0335-0.0677-0.0469
										c-0.0027-0.0784-0.0027-0.1541-0.0027-0.2318c0.0248-0.0041,0.0483-0.0095,0.0718-0.0121
										c0.0233,0.0449,0.0402,0.0898,0.0737,0.1267c0.0656,0.0635,0.13,0.1353,0.1936,0.205
										c0.0342,0.004,0.0677,0.0153,0.1018,0.0121c0.0107-0.0155,0.0154-0.0329,0.0235-0.0483
										c0.0254-0.0751,0.059-0.1474,0.0878-0.2211c0.0582-0.0047,0.1132-0.0047,0.1695-0.0095
										c0.0596,0.0785,0.1172,0.1555,0.1736,0.2306c0.0288-0.0047,0.0582-0.0067,0.083-0.0128
										C30.2747,11.748,30.3116,11.6776,30.353,11.6146L30.353,11.6146z"/>
									<path class="st11" d="M30.7698,11.7982c0.0804-0.0114,0.1615-0.0167,0.2413-0.0281
										c-0.0047,0.0751,0.069,0.1206,0.0978,0.1836c0.01,0.0328,0.0181,0.0669,0.0249,0.0998
										c-0.0349-0.0054-0.0711-0.0054-0.1018-0.0114c-0.0269-0.0355-0.0564-0.0764-0.0797-0.1139
										c-0.0134,0.0081-0.0255,0.0174-0.0383,0.0255c0.0302,0.0414,0.0616,0.083,0.0865,0.1246
										c0.0107,0.0865,0.0107,0.1783,0.0202,0.2653c-0.0423,0-0.0818,0-0.122,0c-0.0161-0.0576-0.0316-0.1165-0.0469-0.1728
										c-0.0147,0.0026-0.0302,0.0073-0.0442,0.0119c0.014,0.0583,0.0362,0.114,0.0442,0.1682
										c-0.0067,0.0878-0.0174,0.1729-0.0281,0.2587c-0.0382,0-0.0784,0-0.1199,0.0047c-0.0281-0.0704-0.0751-0.13-0.1086-0.1957
										c-0.0093-0.02-0.0027-0.0381-0.0067-0.0583c0.004-0.0972,0-0.199,0-0.2988c-0.0026-0.0161,0.0067-0.0295,0.0154-0.0456
										C30.66,11.9456,30.7136,11.8733,30.7698,11.7982L30.7698,11.7982z"/>
									<path class="st11" d="M28.7864,11.9456c0.0623-0.0021,0.1246-0.0067,0.1876-0.0093
										c0.0114,0.0723,0.0309,0.142,0.0416,0.2171c-0.073,0.0817-0.1474,0.1574-0.2271,0.2352
										c0.0086,0.0066,0.0181,0.014,0.0261,0.0221c-0.008-0.0048-0.0214-0.0081-0.0314-0.0121
										c-0.0081-0.0255-0.0167-0.0476-0.0248-0.073c0.0328-0.0845,0.0657-0.1609,0.0965-0.2473
										C28.8354,12.0367,28.8085,11.9904,28.7864,11.9456L28.7864,11.9456z"/>
									<path class="st11" d="M28.9458,12.4542c0.0302-0.0939,0.0697-0.1762,0.1066-0.268
										c0.0167,0.0174,0.0335,0.0302,0.0516,0.0489c0.0053,0.1381,0.0107,0.2789,0.0154,0.4188
										c-0.0489-0.0067-0.0972-0.0147-0.1455-0.0221C28.9681,12.5734,28.9472,12.5139,28.9458,12.4542L28.9458,12.4542z"/>
									<path class="st11" d="M29.7647,12.4233c0.0476-0.0281,0.0952-0.0582,0.1455-0.0877
										c0.0958,0.0235,0.193,0.0402,0.2861,0.063c-0.0134,0.0402-0.0174,0.0904-0.049,0.1232
										c-0.0288,0.0355-0.0583,0.069-0.0837,0.1053c-0.0623,0.0047-0.122,0.0047-0.1829,0.0086
										c-0.0362-0.0335-0.0697-0.0717-0.1039-0.1072C29.7721,12.4951,29.7675,12.4609,29.7647,12.4233L29.7647,12.4233z"/>
									<path class="st11" d="M30.27,12.5795c0.0723-0.0355,0.1448-0.0737,0.2131-0.1139
										c0.0314,0.0516,0.0623,0.1032,0.0891,0.1548c-0.0248,0-0.0456,0-0.0657,0c-0.0066,0.0603-0.0053,0.1186-0.0133,0.1816
										c-0.0155,0.0328-0.0388,0.063-0.057,0.0946c-0.0349-0.0316-0.0657-0.0618-0.0985-0.0911
										c-0.0141-0.0114-0.0261-0.0235-0.0316-0.0416C30.2921,12.7015,30.2828,12.6425,30.27,12.5795L30.27,12.5795z"/>
									<path class="st11" d="M29.2661,12.5313c0.057-0.0027,0.1099-0.0074,0.165-0.0095
										c0.0126,0.1018,0.0268,0.2057,0.0361,0.3075c-0.0093,0.0088-0.0221,0.0195-0.0342,0.0302
										c0-0.008-0.0019-0.0214-0.0033-0.0328c-0.063-0.0409-0.1253-0.0844-0.187-0.128
										C29.2508,12.6425,29.2589,12.5862,29.2661,12.5313L29.2661,12.5313z"/>
									<path class="st11" d="M30.0073,12.814c0.0328-0.0121,0.0663-0.0249,0.1011-0.0375
										c0.0321,0.0528,0.0637,0.1044,0.1011,0.1581c-0.083,0.0087-0.1641,0.0168-0.2459,0.0295
										C29.9778,12.9146,29.9932,12.8649,30.0073,12.814L30.0073,12.814z"/>
									<path class="st11" d="M29.7721,12.8596c0.0362-0.0026,0.0723-0.008,0.1086-0.0107
										c0.0235,0.0402,0.0423,0.0777,0.0644,0.1153c-0.0329,0.006-0.0664,0.0093-0.1006,0.0093
										c-0.0414-0.0067-0.0797-0.0254-0.1239-0.0355C29.7393,12.9112,29.7547,12.8858,29.7721,12.8596L29.7721,12.8596z"/>
									<ellipse class="st11" cx="29.595" cy="11.6471" rx="0.0881" ry="0.0643"/>
									<ellipse class="st11" cx="30.1742" cy="11.6471" rx="0.0891" ry="0.0643"/>
								</g>
							</g>
						</g>
						<g>
							<path class="st3" d="M39.0555,11.3211c0.7036,0.1588,1.4046,0.3405,2.0948,0.5401c0.7968,0.2325,1.5801,0.4991,2.354,0.7961
								c0.3974,0.1527,0.7921,0.3069,1.1841,0.4717c-0.189,0.3719-0.3692,0.7464-0.5488,1.1197
								c-0.1179,0.2285-0.2271,0.459-0.3417,0.6908c-0.8838-0.3485-1.7757-0.6653-2.6803-0.9575
								c-0.8089-0.2613-1.6223-0.5113-2.4499-0.7063c-0.0516-0.0133-0.1011-0.0288-0.1567-0.0335
								c0.0154-0.0254,0.0247-0.0549,0.0288-0.0804c0.0475-0.1695,0.0998-0.335,0.1414-0.5045
								c0.0021-0.0034,0.0054-0.0102,0.0054-0.0181c0.0086-0.0248,0.0167-0.055,0.0248-0.0818
								C38.827,12.1453,38.9443,11.7324,39.0555,11.3211L39.0555,11.3211z"/>
							<path class="st2" d="M38.3037,13.982l0.2071-0.7398c0,0,1.5967,0.2741,2.89,0.7022c1.2954,0.433,2.4023,0.9938,2.4023,0.9938
								l-0.3417,0.6867L38.3037,13.982z"/>
							<path class="st2" d="M39.0555,11.3211l0.2098-0.7417c0,0,1.5921,0.272,2.89,0.7043c1.294,0.4315,2.8767,1.1552,2.8767,1.1552
								l-0.3438,0.6901L39.0555,11.3211z"/>
							<path class="st8" d="M39.8898,8.3486c0,0,2.7033-1.0983,4.0554-1.6438c0.6701,1.1231,1.3363,2.2509,2.0083,3.3733
								c0.0442,0.0703,0.0818,0.1453,0.1307,0.2157v0.0033c-0.0314,0.0443-0.0523,0.0958-0.0784,0.1468
								c-0.3243,0.6639-0.6487,1.3294-0.9737,1.9948c-0.782-0.3317-1.5674-0.6573-2.3688-0.9342
								c-1.1123-0.3826-2.2487-0.6822-3.3979-0.9253L39.8898,8.3486z"/>
							<path class="st8" d="M38.3205,13.9318c0,0,1.2879,0.3919,1.9286,0.589c0.414,0.1272,0.8248,0.2606,1.2417,0.394
								c0.6646,0.215,1.9835,0.6801,1.9835,0.6801s-0.1227,0.2808-0.4597,0.9628h-0.0014c-0.1957-0.081-0.394-0.1595-0.5923-0.2352
								c-0.6775-0.2613-1.3596-0.5012-2.0559-0.7009c-0.782-0.2257-1.5739-0.4081-2.364-0.5843v-0.008
								C38.1336,14.5615,38.3205,13.9318,38.3205,13.9318z"/>
							<polygon class="st9" points="43.3991,8.2045 43.5331,8.9643 44.3594,9.2626 43.7262,9.8074 43.8031,10.5793 43.1009,10.3522 
								42.4985,10.9184 42.3202,10.1096 41.4478,9.849 42.1265,9.2411 41.9604,8.4431 42.7899,8.7044 							"/>
							<polygon class="st10" points="43.3924,8.2347 43.511,8.9711 42.9052,9.528 							"/>
							<polygon class="st10" points="41.9959,8.4887 42.7029,8.7312 42.9052,9.528 							"/>
							<polygon class="st10" points="42.538,10.8561 43.0681,10.3348 42.9052,9.528 							"/>
							<polygon class="st10" points="41.5624,9.849 42.276,10.0573 42.9052,9.528 							"/>
							<polygon class="st10" points="44.2984,9.2707 43.7013,9.792 43.765,10.5358 42.9066,9.528 							"/>
							<path class="st12" d="M39.4985,11.9656c0.1736,0,0.3491,0,0.5247,0c0.0034,0.063-0.0014,0.128,0.0088,0.191
								c0.093,0.0469,0.1788,0.1099,0.2734,0.1615c0.1414,0.0737,0.2968,0.1172,0.4456,0.1836
								c0.0188,0.0086,0.0375,0.0154,0.0563,0.0154c0.3605,0.0302,0.717,0.0623,1.0748,0.0925
								c0.1662,0.0295,0.3296,0.0758,0.4818,0.1574c0.1051,0.0597,0.1976,0.1475,0.262,0.2506
								c0.0141,0.0181,0.0248,0.0497,0.0536,0.0557c0.3994,0.1306,0.8275,0.1843,1.249,0.1983
								c0.0725,0.0107,0.1562-0.0093,0.2185,0.0375c0.0342,0.0202,0.0516,0.0704,0.0295,0.108
								c-0.0436,0.0756-0.1253,0.1253-0.2038,0.1588c-0.1607,0.0656-0.3431,0.0616-0.5126,0.0321
								c-0.1387-0.0247-0.2713-0.0656-0.4047-0.0998c-0.0832-0.0234-0.1709-0.049-0.2654-0.049
								c0.0161,0.0462,0.0342,0.0832,0.0618,0.1199c0.0623,0.0878,0.1474,0.1662,0.2425,0.2245
								c0.0288,0.0154,0.0616,0.0235,0.0865,0.0402c-0.0047,0.1682-0.0047,0.3338-0.0081,0.4972
								c-0.0281,0.0395-0.0683,0.0663-0.0998,0.0944c-0.0376-0.0214-0.0784-0.0468-0.116-0.0742
								c0.0255-0.0343,0.0435-0.0751,0.0516-0.1206c0.0128-0.0704-0.0014-0.1367-0.0161-0.1991
								c-0.01-0.0563-0.0449-0.0924-0.0784-0.136c-0.0222-0.0368-0.0657-0.0563-0.1106-0.0616
								c-0.1508-0.0114-0.2955-0.065-0.4275-0.1481c-0.0388-0.0221-0.0731-0.0502-0.1153-0.0737
								c-0.0221-0.0041-0.0436,0.004-0.0677,0.008c-0.0456,0.0818-0.1132,0.1536-0.2038,0.1864
								c-0.0502,0.0026-0.0984-0.0074-0.1467-0.0074c-0.0723,0-0.1441-0.0207-0.2111-0.0349
								c-0.1239-0.0268-0.2492-0.0535-0.3698-0.0891c0.0033-0.0316-0.0181-0.0797,0.0154-0.1018
								c0.0469-0.0074,0.0898-0.0041,0.1334-0.0074c0.057-0.0047,0.1125,0.0167,0.1721,0.02
								c0.065,0.0095,0.1313,0.0121,0.1984,0.0121c-0.0007-0.0542-0.006-0.1105-0.0074-0.1655
								c-0.1641-0.0121-0.3296-0.0254-0.4837-0.083c-0.1441-0.0576-0.2882-0.1127-0.4323-0.1676
								c-0.0456-0.0161-0.0911-0.0382-0.1381-0.0416c-0.2351-0.0214-0.4703-0.0295-0.7055,0.0034
								c-0.069,0.0126-0.1394,0.0335-0.2098,0.0435c-0.1058,0.0161-0.2037,0.0495-0.3088,0.0663
								c-0.0504,0.0121-0.0985-0.0059-0.1475-0.0167c-0.0207-0.008-0.0495-0.018-0.0616-0.0428
								c-0.006-0.0248,0.0027-0.0537,0.0188-0.0751c0.2044-0.0302,0.4228-0.0235,0.6084-0.1239
								c-0.0154-0.0409-0.0314-0.0751-0.0596-0.1086c-0.1099-0.0048-0.2192-0.0048-0.3291-0.0048
								c-0.083,0-0.1715,0.0162-0.2525-0.012c-0.069-0.0227-0.1401-0.045-0.2045-0.0743c-0.0133-0.0081-0.0314-0.0114-0.0314-0.0288
								c-0.0054-0.0342-0.0188-0.0751-0.0114-0.1039c0.0442-0.004,0.0851,0.0167,0.1246,0.0261
								c0.1018,0.0288,0.2104,0.0329,0.315,0.0329c0.0985-0.0041,0.199-0.0041,0.2948-0.0329c0-0.0449,0.0081-0.0891,0.0054-0.1347
								c-0.0033-0.0422-0.0301-0.0797-0.0521-0.1159c-0.1327-0.0261-0.2675-0.0295-0.4007-0.0456
								c-0.0509-0.004-0.1039-0.0295-0.1287-0.077c-0.0128-0.0369-0.0128-0.0799-0.0067-0.122
								c0.069-0.0469,0.1534-0.0723,0.2231-0.1281C39.4415,12.0481,39.4697,12.0065,39.4985,11.9656L39.4985,11.9656z"/>
							<path class="st13" d="M39.5092,11.9865c0.1641,0,0.3277,0.0039,0.4905,0c0.006,0.0616,0.006,0.1246,0.006,0.1869
								c0.1099,0.0502,0.2024,0.1234,0.3075,0.1776c0.1234,0.0597,0.2494,0.0999,0.3686,0.1474
								c0.0375,0.0155,0.069,0.0376,0.1065,0.0376c0.3538,0.0375,0.711,0.0663,1.0648,0.0958
								c0.1206,0.0154,0.2338,0.0489,0.3445,0.0878c0.1601,0.057,0.3068,0.1534,0.398,0.2981
								c0.0209,0.0255,0.0316,0.0664,0.0676,0.0738c0.4409,0.1507,0.9141,0.1956,1.3758,0.2104
								c0.0402,0,0.0844,0.0154,0.1106,0.0435c0.0133,0.0121,0.0161,0.0268,0.0114,0.0423
								c-0.0141,0.0428-0.053,0.0763-0.0899,0.1051c-0.126,0.0906-0.2841,0.1153-0.4368,0.1127
								c-0.1964-0.0128-0.386-0.0725-0.5736-0.1227c-0.0978-0.0235-0.1923-0.0523-0.2901-0.0449
								c0.0026,0.0423,0.0107,0.0784,0.0328,0.1113c0.0825,0.136,0.2071,0.2431,0.3524,0.3108c0,0.1139,0,0.2259,0,0.3398
								c-0.0047,0.0456,0,0.0898-0.0114,0.1332c-0.02,0.0283-0.0502,0.0477-0.0751,0.0744
								c-0.0247-0.0161-0.0535-0.0342-0.077-0.0495c0.0161-0.0388,0.0335-0.0764,0.0395-0.1172
								c0.0081-0.0704,0.0033-0.1367-0.0128-0.1991c-0.0121-0.0677-0.053-0.1146-0.0918-0.1662
								c-0.0414-0.0428-0.1058-0.0509-0.1662-0.0589c-0.1681-0.0242-0.325-0.1046-0.4637-0.201
								c-0.0335-0.0321-0.0858-0.01-0.1219-0.004c-0.0395,0.0763-0.1018,0.144-0.1836,0.1769
								c-0.0778,0.0039-0.1622,0.0039-0.2406-0.0095c-0.1575-0.0428-0.3189-0.067-0.4698-0.1118
								c0-0.0214,0.0014-0.0409,0.0067-0.059c0.0556-0.0154,0.1125-0.0121,0.1736-0.0026c0.1098,0.0207,0.2264,0.0247,0.3397,0.0247
								c0.0021-0.0623-0.0033-0.1246,0.0027-0.1876c0.1112,0,0.2204-0.0154,0.3317-0.0154
								c-0.0309-0.1066-0.053-0.2231-0.1206-0.3103c-0.0509-0.0737-0.1334-0.1106-0.2171-0.132
								c-0.069-0.0207-0.142-0.0147-0.2159-0.0114c-0.2806,0.0081-0.5621,0.016-0.8443,0.0269c0,0.0414,0.0034,0.0837,0.01,0.1286
								c-0.1306-0.0121-0.2585-0.0201-0.3893-0.0235c-0.1199,0.0081-0.2432,0.0081-0.3605,0.0267
								c-0.077,0.0095-0.1467,0.0363-0.2244,0.0437c-0.1066,0.0194-0.205,0.0583-0.3096,0.0709
								c-0.057-0.008-0.1125-0.0228-0.1595-0.0516c0.0033-0.0161,0.0067-0.0288,0.0114-0.0449
								c0.1602-0.0181,0.3236-0.0214,0.4763-0.0703c0.0497-0.0127,0.0906-0.0369,0.1368-0.0536
								c0.006-0.0597-0.0195-0.1153-0.0664-0.1467c-0.0288-0.0081-0.059-0.0081-0.0877-0.0081c-0.1267,0-0.2533,0-0.3786,0.0014
								c-0.0737,0.0067-0.1388-0.0214-0.2031-0.0462c-0.0421-0.0154-0.0804-0.0248-0.1158-0.0449
								c-0.0322-0.0148-0.0235-0.0543-0.0309-0.0832c0.0851,0.0155,0.1669,0.0483,0.258,0.0497c0.0865,0,0.1748,0.0154,0.264,0.0033
								c0.0723-0.0047,0.1453-0.0093,0.2137-0.0375c0-0.0624,0.01-0.1301-0.0014-0.1924c-0.0167-0.0409-0.0388-0.0985-0.087-0.1032
								c-0.1206-0.02-0.2399-0.0267-0.3591-0.0335c-0.0462-0.0047-0.0966-0.0201-0.1234-0.0596
								c-0.0154-0.0316-0.0167-0.0738-0.0135-0.106c0.0657-0.0462,0.1387-0.0663,0.201-0.1113
								C39.4448,12.0783,39.4797,12.0367,39.5092,11.9865L39.5092,11.9865z"/>
							<path class="st14" d="M40.7569,13.0177c0.2968-0.0066,0.5909-0.0126,0.8838-0.0207
								c0.1025-0.0121,0.2111,0.0174,0.2968,0.0764c0.1046,0.073,0.1327,0.2137,0.1655,0.331
								c-0.1044,0.0033-0.2137,0.0128-0.3209,0.0181c-0.1817-0.0102-0.3719-0.0302-0.5402-0.1053
								c-0.1574-0.063-0.3136-0.1253-0.4704-0.1823C40.7649,13.0941,40.7637,13.0553,40.7569,13.0177L40.7569,13.0177z"/>
						</g>
					</g>
				</g>
			</g>
		</g>
	</g>
</g>
</svg>
