<?xml version="1.0" encoding="utf-8"?>
<!-- Generator: Adobe Illustrator 22.0.0, SVG Export Plug-In . SVG Version: 6.00 Build 0)  -->
<svg version="1.1" id="Layer_1" xmlns="http://www.w3.org/2000/svg" xmlns:xlink="http://www.w3.org/1999/xlink" x="0px" y="0px"
	 viewBox="0 0 60 60" style="enable-background:new 0 0 60 60;" xml:space="preserve">
<style type="text/css">
	.st0{clip-path:url(#SVGID_2_);}
	.st1{fill:#D21034;}
	.st2{fill:#00209F;}
	.st3{fill:#FFFFFF;}
	.st4{fill:#016A16;stroke:#016A16;stroke-width:0.0365;}
	.st5{fill:#F1B517;stroke:#000000;stroke-width:0.0365;}
	.st6{fill:#FFFFFF;stroke:#000000;stroke-width:0.0365;}
	.st7{fill:#0A328C;stroke:#000000;stroke-width:0.0365;}
	.st8{fill:#D20014;stroke:#000000;stroke-width:0.0365;}
	.st9{fill:#0A328C;stroke:#0A328C;stroke-width:0.0365;}
	.st10{fill:#D20014;stroke:#D20014;stroke-width:0.0365;}
	.st11{fill:#016A16;stroke:#000000;stroke-width:0.0365;}
	.st12{fill:#016A16;stroke:#FFFFFF;stroke-width:0.0475;stroke-linecap:round;}
	.st13{fill:#016A16;stroke:#FFFFFF;stroke-width:0.0362;stroke-linecap:round;}
	.st14{fill:#016A16;stroke:#F1B517;stroke-width:0.0365;}
	.st15{fill:#503200;stroke:#000000;stroke-width:0.0365;}
	.st16{fill:#F1B517;stroke:#000000;stroke-width:0.0365;stroke-linecap:round;}
	.st17{fill:#0A328C;stroke:#0A328C;stroke-width:0.0462;}
	.st18{fill:#F1B517;stroke:#000000;stroke-width:0.0374;}
	.st19{fill:#0A328C;stroke:#0A328C;stroke-width:0.0374;}
	.st20{fill:none;stroke:#000000;stroke-width:0.0374;}
	.st21{fill:#FFFFFF;stroke:#FFFFFF;stroke-width:0.0383;}
	.st22{fill:#F1B517;stroke:#000000;stroke-width:0.0462;}
	.st23{fill:#D20014;stroke:#F1B517;stroke-width:0.0365;}
</style>
<g>
	<defs>
		<circle id="SVGID_1_" cx="30" cy="30" r="30"/>
	</defs>
	<clipPath id="SVGID_2_">
		<use xlink:href="#SVGID_1_"  style="overflow:visible;"/>
	</clipPath>
	<g class="st0">
		<rect x="-20" class="st1" width="100" height="60"/>
		<rect x="-20" class="st2" width="100" height="30"/>
		<rect x="20.5358" y="22.4568" class="st3" width="18.9283" height="15.0683"/>
		<path class="st4" d="M33.8094,33.3532l-3.8628,0.1121l-3.8454,0.0437c0,0-1.9756,0.7307-2.7832,0.8947
			c-0.8052,0.1635-0.7005,0.428-1.3236,0.5673c-0.4991,0.1115-0.5567,0.1467-0.8495,0.1659
			c-0.1772,0.0116-0.3955,0.148-0.6089,0.2982v2.0898h18.9283v-1.9878c-0.2052-0.1118-0.4007-0.1887-0.6008-0.2567
			c-0.2781-0.0945-0.4655-0.1979-0.9645-0.3094c-0.6231-0.1393-0.5184-0.4038-1.3236-0.5673
			C35.7676,34.2397,33.8094,33.3532,33.8094,33.3532L33.8094,33.3532z"/>
		<path class="st5" d="M28.9058,28.7024l0.2794-0.0066l0.5111,2.1498l-0.109,0.6772L28.9058,28.7024L28.9058,28.7024z"/>
		<path class="st6" d="M28.6128,27.2692l0.1908,1.6567l0.2044-0.0131L28.6128,27.2692L28.6128,27.2692z"/>
		<path class="st5" d="M29.1444,30.9178l-0.8586-2.3076l0.3203-0.0197l1.0017,2.8204L29.1444,30.9178L29.1444,30.9178z"/>
		<path class="st6" d="M27.8838,27.2954l0.3543,1.6041h0.2862L27.8838,27.2954z"/>
		<path class="st5" d="M28.3812,30.1092l-0.5043-1.0848l0.2181-0.046l0.9199,1.8014L28.3812,30.1092L28.3812,30.1092z"/>
		<path class="st6" d="M27.216,27.7556l0.5588,1.5252h0.2862L27.216,27.7556z"/>
		<path class="st7" d="M28.4498,30.2728l-2.2871-2.4968c-0.7143,0.5656-0.5816,1.6042-0.5816,1.6042l2.5914,2.0332L28.4498,30.2728
			L28.4498,30.2728z"/>
		<path class="st8" d="M29.7722,31.647l-1.6967-1.7187c-0.7173,0.0249-0.1481,1.0958-0.112,1.2302l1.8087,1.5469L29.7722,31.647
			L29.7722,31.647z"/>
		<path class="st5" d="M29.6278,31.3514l-3.5079-3.7561L25.983,27.692l3.7122,4.1243L29.6278,31.3514L29.6278,31.3514z"/>
		<path class="st5" d="M25.9172,27.3544l-0.077-0.0892l0.0077-0.1783l-0.7239-0.4606l0.3234,0.7281l0.2464,0.0446l0.077,0.0891
			L25.9172,27.3544z"/>
		<path class="st5" d="M25.5476,27.622c0.1232-0.1486,0.2695-0.2972,0.5313-0.4383l0.2002,0.2897l-0.4312,0.364L25.5476,27.622z"/>
		<path class="st9" d="M25.1622,28.2556l0.1176,0.2053c0.0728-0.027,0.8063-0.6914,0.8063-0.6914l0.5263-0.0162l0.1512-0.1675
			c-0.3863-0.4159-0.7503,0.0594-0.7503,0.0594L25.1622,28.2556L25.1622,28.2556z"/>
		<path class="st10" d="M25.5822,28.6014c0.028-0.1837,0.3751-0.6428,0.4255-0.659c0.2606,0.0782,0.5031,0.2282,0.7671-0.3673
			c-0.2296,0.2917-0.6943-0.0054-0.6943-0.0054l-0.2016,0.1675l0.0056,0.081l-0.6103,0.5672L25.5822,28.6014L25.5822,28.6014z"/>
		<path class="st7" d="M27.4504,30.9344l-2.8734-2.2823c-0.4919,0.5006-0.0829,2.0463-0.0829,2.0463l2.8084,1.5214L27.4504,30.9344
			L27.4504,30.9344z"/>
		<path class="st8" d="M29.8332,32.7834L27.4695,30.89c-0.8072,0.1133-0.1726,1.3012-0.1245,1.4321l2.4962,1.3537L29.8332,32.7834
			L29.8332,32.7834z"/>
		<path class="st5" d="M29.7394,32.401l-5.1108-3.8363l-0.1174,0.1182l5.3674,4.191L29.7394,32.401L29.7394,32.401z"/>
		<path class="st5" d="M24.3856,28.3614l-0.0919-0.0749l-0.0245-0.1769l-0.7958-0.3323l0.4496,0.6628l0.2507,0.0026l0.0919,0.0749
			L24.3856,28.3614L24.3856,28.3614z"/>
		<path class="st5" d="M24.0698,28.6866c0.0946-0.167,0.2119-0.3378,0.4444-0.5207l0.2493,0.2518l-0.3592,0.4307L24.0698,28.6866
			L24.0698,28.6866z"/>
		<path class="st9" d="M23.785,29.3282l0.0318,0.212c0.0675-0.0377,0.7122-0.7452,0.7122-0.7452l0.5172-0.0954l0.1054-0.1666
			c-0.3594-0.4227-0.7426,0.1395-0.7426,0.1395L23.785,29.3282L23.785,29.3282z"/>
		<path class="st10" d="M24.1942,29.709c-0.0245-0.1964,0.2439-0.7725,0.291-0.7961c0.3093,0.092,0.5787,0.2305,0.6925-0.4137
			c-0.1794,0.3227-0.6922,0.0724-0.6922,0.0724l-0.1719,0.1958l0.0243,0.1062l-0.522,0.6739L24.1942,29.709L24.1942,29.709z"/>
		<path class="st7" d="M27.2448,32.3302c-0.0381-0.0092-3.7034-2.0884-3.7034-2.0884c-0.2668,0.4505-0.0255,1.1041,0.0915,1.2058
			c0.0068,0.3-0.1205,0.4613,0.1413,1.0878c0.0772,0.4073,0.2657,0.7826,0.54,1.0055c0.3342,1.2833,1.6445,1.3695,2.1492,0.3248
			L27.2448,32.3302L27.2448,32.3302z"/>
		<path class="st8" d="M29.6704,33.7024l-2.5096-1.4709c-0.8072,0.1133,0.0171,1.611,0.0652,1.7419l2.4232,0.8608L29.6704,33.7024
			L29.6704,33.7024z"/>
		<path class="st5" d="M29.2486,33.1692l-5.6699-3.0178l-0.0968,0.1344l5.9809,3.3293L29.2486,33.1692L29.2486,33.1692z"/>
		<path class="st5" d="M23.3056,29.9874l-0.1029-0.0601l-0.0529-0.171L22.31,29.5481l0.5515,0.5868l0.248-0.0353l0.1029,0.0601
			L23.3056,29.9874L23.3056,29.9874z"/>
		<path class="st5" d="M23.0464,30.3564c0.0664-0.1792,0.1546-0.3656,0.3545-0.5813l0.2871,0.2111l-0.2849,0.4796L23.0464,30.3564
			L23.0464,30.3564z"/>
		<path class="st9" d="M22.82,31.0362l0.1187,0.2334c0.0614-0.0464,0.6007-0.9156,0.6007-0.9156l0.4984-0.164l0.0938-0.2028
			c-0.4003-0.3698-0.6995,0.2685-0.6995,0.2685L22.82,31.0362L22.82,31.0362z"/>
		<path class="st10" d="M23.3544,31.3672c-0.0401-0.1997,0.0968-0.8394,0.14-0.8691c0.3121,0.0931,0.5727,0.1196,0.6446-0.5244
			c-0.1815,0.3059-0.6656,0.1907-0.6656,0.1907l-0.142,0.217l0.0299,0.0759l-0.4117,0.7902L23.3544,31.3672L23.3544,31.3672z"/>
		<path class="st5" d="M31.0659,28.7024l-0.2794-0.0066l-0.5111,2.1498l0.109,0.6772L31.0659,28.7024L31.0659,28.7024z"/>
		<path class="st6" d="M31.3589,27.2692l-0.1908,1.6567l-0.2044-0.0131L31.3589,27.2692L31.3589,27.2692z"/>
		<path class="st5" d="M30.8273,30.9178l0.8586-2.3076l-0.3203-0.0197l-1.0017,2.8204L30.8273,30.9178L30.8273,30.9178z"/>
		<path class="st6" d="M32.0879,27.2954l-0.3543,1.6041h-0.2862L32.0879,27.2954z"/>
		<path class="st5" d="M31.5905,30.1092l0.5043-1.0848l-0.2181-0.046l-0.9199,1.8014L31.5905,30.1092L31.5905,30.1092z"/>
		<path class="st6" d="M32.7557,27.7556l-0.5588,1.5252h-0.2862L32.7557,27.7556z"/>
		<path class="st7" d="M31.5219,30.2728l2.2871-2.4968c0.7143,0.5656,0.5816,1.6042,0.5816,1.6042l-2.5914,2.0332L31.5219,30.2728
			L31.5219,30.2728z"/>
		<path class="st8" d="M30.1995,31.647l1.6967-1.7187c0.7173,0.0249,0.1481,1.0958,0.112,1.2302l-1.8087,1.5469L30.1995,31.647
			L30.1995,31.647z"/>
		<path class="st5" d="M30.3439,31.3514l3.5079-3.7561l0.1369,0.0967l-3.7122,4.1243L30.3439,31.3514L30.3439,31.3514z"/>
		<path class="st5" d="M34.0545,27.3544l0.077-0.0892l-0.0077-0.1783l0.7239-0.4606l-0.3234,0.7281l-0.2464,0.0446l-0.077,0.0891
			L34.0545,27.3544z"/>
		<path class="st5" d="M34.4241,27.622c-0.1232-0.1486-0.2695-0.2972-0.5313-0.4383l-0.2002,0.2897l0.4312,0.364L34.4241,27.622z"/>
		<path class="st9" d="M34.8095,28.2556l-0.1176,0.2053c-0.0728-0.027-0.8063-0.6914-0.8063-0.6914l-0.5263-0.0162l-0.1512-0.1675
			c0.3863-0.4159,0.7503,0.0594,0.7503,0.0594L34.8095,28.2556L34.8095,28.2556z"/>
		<path class="st10" d="M34.3895,28.6014c-0.028-0.1837-0.3751-0.6428-0.4255-0.659c-0.2606,0.0782-0.5031,0.2282-0.7671-0.3673
			c0.2296,0.2917,0.6943-0.0054,0.6943-0.0054l0.2016,0.1675l-0.0056,0.081l0.6103,0.5672L34.3895,28.6014L34.3895,28.6014z"/>
		<path class="st7" d="M32.5213,30.9344l2.8734-2.2823c0.4919,0.5006,0.0829,2.0463,0.0829,2.0463l-2.8084,1.5214L32.5213,30.9344
			L32.5213,30.9344z"/>
		<path class="st8" d="M30.1385,32.7834l2.3637-1.8934c0.8072,0.1133,0.1726,1.3012,0.1245,1.4321l-2.4962,1.3537L30.1385,32.7834
			L30.1385,32.7834z"/>
		<path class="st5" d="M30.2323,32.401l5.1108-3.8363l0.1174,0.1182l-5.3674,4.191L30.2323,32.401L30.2323,32.401z"/>
		<path class="st5" d="M35.5861,28.3614l0.0919-0.0749l0.0245-0.1769l0.7958-0.3323l-0.4496,0.6628l-0.2507,0.0026l-0.0919,0.0749
			L35.5861,28.3614L35.5861,28.3614z"/>
		<path class="st5" d="M35.9019,28.6866c-0.0946-0.167-0.2119-0.3378-0.4444-0.5207l-0.2493,0.2518l0.3592,0.4307L35.9019,28.6866
			L35.9019,28.6866z"/>
		<path class="st9" d="M36.1867,29.3282l-0.0318,0.212c-0.0675-0.0377-0.7122-0.7452-0.7122-0.7452l-0.5172-0.0954l-0.1054-0.1666
			c0.3594-0.4227,0.7426,0.1395,0.7426,0.1395L36.1867,29.3282L36.1867,29.3282z"/>
		<path class="st10" d="M35.7775,29.709c0.0245-0.1964-0.2439-0.7725-0.291-0.7961c-0.3093,0.092-0.5787,0.2305-0.6925-0.4137
			c0.1794,0.3227,0.6922,0.0724,0.6922,0.0724l0.1719,0.1958l-0.0243,0.1062l0.522,0.6739L35.7775,29.709L35.7775,29.709z"/>
		<path class="st7" d="M32.7269,32.3302c0.0381-0.0092,3.7034-2.0884,3.7034-2.0884c0.2668,0.4505,0.0255,1.1041-0.0915,1.2058
			c-0.0068,0.3,0.1205,0.4613-0.1413,1.0878c-0.0772,0.4073-0.2657,0.7826-0.54,1.0055c-0.3342,1.2833-1.6445,1.3695-2.1492,0.3248
			L32.7269,32.3302L32.7269,32.3302z"/>
		<path class="st8" d="M30.3013,33.7024l2.5096-1.4709c0.8072,0.1133-0.0171,1.611-0.0652,1.7419l-2.4232,0.8608L30.3013,33.7024
			L30.3013,33.7024z"/>
		<path class="st5" d="M30.7231,33.1692l5.6699-3.0178l0.0968,0.1344l-5.9809,3.3293L30.7231,33.1692L30.7231,33.1692z"/>
		<path class="st5" d="M36.6661,29.9874l0.1029-0.0601l0.0529-0.171l0.8399-0.2082l-0.5515,0.5868l-0.248-0.0353l-0.1029,0.0601
			L36.6661,29.9874L36.6661,29.9874z"/>
		<path class="st5" d="M36.9253,30.3564c-0.0664-0.1792-0.1546-0.3656-0.3545-0.5813l-0.2871,0.2111l0.2849,0.4796L36.9253,30.3564
			L36.9253,30.3564z"/>
		<path class="st9" d="M37.1517,31.0362l-0.1187,0.2334c-0.0614-0.0464-0.6007-0.9156-0.6007-0.9156L35.934,30.19l-0.0938-0.2028
			c0.4003-0.3698,0.6995,0.2685,0.6995,0.2685L37.1517,31.0362L37.1517,31.0362z"/>
		<path class="st10" d="M36.6173,31.3672c0.0401-0.1997-0.0968-0.8394-0.14-0.8691c-0.3121,0.0931-0.5727,0.1196-0.6446-0.5244
			c0.1815,0.3059,0.6656,0.1907,0.6656,0.1907l0.142,0.217l-0.0299,0.0759l0.4117,0.7902L36.6173,31.3672L36.6173,31.3672z"/>
		<path class="st4" d="M29.7514,25.1206l-0.093,1.814h0.5799l-0.0848-1.7983l0.6045-0.0849l-0.067-0.7165l-1.5021,0.058
			l0.0084,0.6506L29.7514,25.1206L29.7514,25.1206z"/>
		<path class="st11" d="M29.9634,24.3796c-1.5528-1.5542-2.7756-0.7958-3.0667-0.5805c0.1925,0.0376,0.3652-0.0823,0.4546-0.0961
			c-0.056,0.0707-0.1732,0.2459-0.1732,0.2459s0.4801-0.2267,0.5338-0.206c-0.0692,0.0552-0.1456,0.1873-0.1456,0.1873
			c0.0358,0.0138,0.3058-0.2114,0.3591-0.2153c-0.0822,0.0931-0.1078,0.3055-0.1078,0.3055l0.2339-0.1089
			c0.0608,0.0431-0.0169,0.126,0.036,0.1217c0.3888-0.0319,0.9355,0.3555,1.0106,0.4745"/>
		<path class="st11" d="M29.579,24.6642c-0.1618-0.3708-3.1176-1.001-3.7119,0.0488c0.2326,0.0585,0.4551-0.1952,0.4551-0.1952
			L26.302,24.752l0.3945-0.3025l-0.1416,0.3122l0.3135-0.2537l-0.0101,0.2537l0.3843-0.4196l-0.0506,0.2439l0.3439-0.1464
			l-0.0405,0.2049"/>
		<path class="st11" d="M29.4476,24.7228c-0.7586-0.5074-1.9318-0.1659-1.9318-0.1659c-0.7485,0.4196-1.1474,0.3439-1.2441,1.1222
			c0.0708-0.0293,0.2731-0.2732,0.2731-0.2732l0.1517,0.3025l0.0506-0.4293l0.1214,0.3318l0.1821-0.5464l0.0405,0.3708
			l0.2832-0.3708l0.1315,0.1073l0.1214-0.283l0.1113,0.1854c0,0,0.1922-0.1171,0.3034-0.0488l0.2124-0.2439l0.0506,0.1756
			l0.1821-0.2147l0.0708,0.1561l0.1821-0.1659l-0.0101,0.1171l0.6271,0.0098"/>
		<path class="st11" d="M29.276,24.8106c-0.5287-0.0099-2.0453,0.5623-2.4375,1.1612c0.1562-0.0872,0.2525-0.127,0.2525-0.127
			l0.0774,0.2407l0.0946-0.2407l0.0202,0.1854c0.058-0.1448,0.1235-0.1611,0.2326-0.0098l0.0405-0.2244l0.0607,0.2147l0.1011-0.2342
			c0,0,0.0636,0.2538,0.1011,0.2439c0,0,0.1677-0.4389,0.2427-0.4586l0.0202,0.2732l0.1011-0.2732l0.091,0.2049l0.0202-0.2927
			l0.1011,0.2244c0,0,0.053-0.2207,0.1315-0.2635l0.1517,0.1366l0.6755-0.4853"/>
		<path class="st11" d="M29.3776,24.9356c-0.7042,0.2699-1.3341,1.2357-1.2858,1.6452c0.3129-0.3883,0.2455-0.3349,0.3854,0.1119
			c0,0,0.0529-0.3909,0.106-0.4374l0.0918,0.2893l0.0341-0.3784l0.0939,0.0043l-0.0241-0.2373l0.1399,0.107
			c-0.0327-0.1357-0.0675-0.1815,0.0772-0.2978c0,0-0.1833,0.0233-0.0386-0.3071l0.1351,0.1303c0,0-0.0241-0.1443,0.0241-0.2001
			l0.4968-0.1722"/>
		<path class="st11" d="M29.4458,25.008l-0.266,0.5067l0.1364,0.0395l-0.307,0.2303l0.2592-0.0263c0,0-0.3956,0.1448-0.4434,0.5331
			l0.4025-0.1777c0,0-0.3411,0.3488-0.3888,0.5594l0.2319-0.204c0,0-0.2251,0.2435-0.191,0.612l0.1705-0.1908
			c-0.0409,0.4475-0.0273,0.487,0.1774,0.8292c0,0-0.0546-0.5265,0.0068-0.5923l0.4502,0.4672l-0.2524-0.6647
			c0,0,0.2797,0.4212,0.4502,0.3817l-0.3547-0.5396l0.3479,0.283l-0.3956-0.5923l0.3684,0.1119c0,0-0.266-0.3356-0.2456-0.5462
			l0.2524,0.2764c0,0-0.0955-0.3159-0.0682-0.408l0.1296,0.0263l-0.2524-0.2896l0.1705-0.0329l-0.0205-0.1908l0.1228-0.0395
			l-0.0068-0.2106"/>
		<path class="st11" d="M29.7118,25.1594c-0.4366,0.5923-0.2115,1.507-0.4707,1.9743"/>
		<path class="st11" d="M30.0083,24.3796c1.5528-1.5542,2.7756-0.7958,3.0667-0.5805c-0.1925,0.0376-0.3652-0.0823-0.4546-0.0961
			c0.056,0.0707,0.1732,0.2459,0.1732,0.2459s-0.4801-0.2267-0.5338-0.206c0.0692,0.0552,0.1456,0.1873,0.1456,0.1873
			c-0.0358,0.0138-0.3058-0.2114-0.3591-0.2153c0.0822,0.0931,0.1078,0.3055,0.1078,0.3055l-0.2339-0.1089
			c-0.0608,0.0431,0.0169,0.126-0.036,0.1217c-0.3888-0.0319-0.9355,0.3555-1.0106,0.4745"/>
		<path class="st11" d="M30.3927,24.6642c0.1618-0.3708,3.1176-1.001,3.7119,0.0488c-0.2326,0.0585-0.4551-0.1952-0.4551-0.1952
			l0.0202,0.2342l-0.3945-0.3025l0.1416,0.3122l-0.3135-0.2537l0.0101,0.2537l-0.3843-0.4196l0.0506,0.2439l-0.3439-0.1464
			l0.0405,0.2049"/>
		<path class="st11" d="M30.5241,24.7228c0.7586-0.5074,1.9318-0.1659,1.9318-0.1659c0.7485,0.4196,1.1474,0.3439,1.2441,1.1222
			c-0.0708-0.0293-0.2731-0.2732-0.2731-0.2732l-0.1517,0.3025l-0.0506-0.4293l-0.1214,0.3318l-0.1821-0.5464l-0.0405,0.3708
			l-0.2832-0.3708l-0.1315,0.1073l-0.1214-0.283l-0.1113,0.1854c0,0-0.1922-0.1171-0.3034-0.0488l-0.2124-0.2439L31.667,24.957
			l-0.1821-0.2147l-0.0708,0.1561l-0.1821-0.1659l0.0101,0.1171l-0.6271,0.0098"/>
		<path class="st11" d="M30.6957,24.8106c0.5287-0.0099,2.0453,0.5623,2.4375,1.1612c-0.1562-0.0872-0.2525-0.127-0.2525-0.127
			l-0.0774,0.2407l-0.0946-0.2407l-0.0202,0.1854c-0.058-0.1448-0.1235-0.1611-0.2326-0.0098l-0.0405-0.2244l-0.0607,0.2147
			l-0.1011-0.2342c0,0-0.0636,0.2538-0.1011,0.2439c0,0-0.1677-0.4389-0.2427-0.4586l-0.0202,0.2732l-0.1011-0.2732l-0.091,0.2049
			l-0.0202-0.2927l-0.1011,0.2244c0,0-0.053-0.2207-0.1315-0.2635l-0.1517,0.1366l-0.6755-0.4853"/>
		<path class="st11" d="M30.5941,24.9356c0.7042,0.2699,1.3341,1.2357,1.2858,1.6452c-0.3129-0.3883-0.2455-0.3349-0.3854,0.1119
			c0,0-0.0529-0.3909-0.106-0.4374l-0.0918,0.2893l-0.0341-0.3784l-0.0939,0.0043l0.0241-0.2373l-0.1399,0.107
			c0.0327-0.1357,0.0675-0.1815-0.0772-0.2978c0,0,0.1833,0.0233,0.0386-0.3071l-0.1351,0.1303c0,0,0.0241-0.1443-0.0241-0.2001
			l-0.4968-0.1722"/>
		<path class="st11" d="M30.5259,25.008l0.266,0.5067l-0.1364,0.0395l0.307,0.2303l-0.2592-0.0263c0,0,0.3956,0.1448,0.4434,0.5331
			l-0.4025-0.1777c0,0,0.3411,0.3488,0.3888,0.5594l-0.2319-0.204c0,0,0.2251,0.2435,0.191,0.612l-0.1705-0.1908
			c0.0409,0.4475,0.0273,0.487-0.1774,0.8292c0,0,0.0546-0.5265-0.0068-0.5923l-0.4502,0.4672l0.2524-0.6647
			c0,0-0.2797,0.4212-0.4502,0.3817l0.3547-0.5396l-0.3479,0.283l0.3956-0.5923l-0.3684,0.1119c0,0,0.266-0.3356,0.2456-0.5462
			l-0.2524,0.2764c0,0,0.0955-0.3159,0.0682-0.408l-0.1296,0.0263l0.2524-0.2896l-0.1705-0.0329l0.0205-0.1908L30.0348,25.37
			l0.0068-0.2106"/>
		<path class="st11" d="M30.2599,25.1594c0.4366,0.5923,0.2115,1.507,0.4707,1.9743"/>
		<path class="st5" d="M30.189,33.307c0,0,0.2377-1.989,0.2372-2.8451c-0.0004-0.6737-0.1628-2.167-0.1628-2.167H29.58
			c0,0-0.104,1.4858-0.0884,2.1578c0.0199,0.8564,0.2372,2.8543,0.2372,2.8543L30.189,33.307L30.189,33.307z"/>
		<path class="st5" d="M29.5348,28.3906h0.7919l-0.093-0.5332h-0.574L29.5348,28.3906z"/>
		<path class="st5" d="M29.5854,27.9632h0.7077L30.1597,27.43h-0.4359L29.5854,27.9632z"/>
		<path class="st5" d="M29.631,27.531h0.5898l-0.0997-0.5332h-0.3753L29.631,27.531z"/>
		<path class="st5" d="M30.1418,26.9346h-0.4125l-0.0418,0.1928h0.4881L30.1418,26.9346z"/>
		<path class="st5" d="M30.2264,32.8734h-0.5241"/>
		<path class="st5" d="M30.255,32.484h-0.5881"/>
		<path class="st5" d="M30.3328,32.0888h-0.7454"/>
		<path class="st5" d="M30.3712,31.6582h-0.7801"/>
		<path class="st5" d="M30.3766,31.2278h-0.8203"/>
		<path class="st5" d="M30.4086,30.8342h-0.8898"/>
		<path class="st5" d="M30.4106,30.476h-0.9301"/>
		<path class="st5" d="M30.405,30.0438h-0.9301"/>
		<path class="st5" d="M30.374,29.6168h-0.899"/>
		<path class="st5" d="M30.3328,29.1828h-0.813"/>
		<path class="st5" d="M30.2934,28.791H29.559"/>
		<path class="st9" d="M29.9818,23.8088c-0.1377-0.0648-0.4491-0.2625-0.3567-0.3806l0.1427-0.2429
			c0.2021-0.4553-0.0037-0.2789-0.0252-0.421c-0.0206-0.1365,0.7729-0.0299,0.7847,0.2793
			c0.0033,0.0852-0.0589,0.0352-0.0504,0.5223l-0.1511,0.2915C30.2129,23.8679,30.0791,23.8546,29.9818,23.8088z"/>
		<path class="st5" d="M30.0784,24.9868l-0.1972-0.166l0.0546-1.421l0.193,0.0567C30.1288,23.4565,30.0784,24.9868,30.0784,24.9868z
			"/>
		<path class="st10" d="M30.3344,23.8492c0.1238-0.0725,0.2049-0.2886,0.1301-0.417c-0.2032-0.2575-0.3347-0.1512-0.6756-0.2672
			c-0.068,0.0724-0.2111,0.2117-0.1804,0.3158c0.4484,0.2111,0.2743,0.0313,0.4227,0.0576
			C30.1111,23.5526,30.1628,23.6474,30.3344,23.8492z"/>
		<path id="ip" class="st12" d="M27.7071,32.0503c-0.053-0.0986-0.2121-0.1704-0.3998-0.1704c-0.1876,0-0.3456,0.0718-0.3986,0.1704
			c-0.0122-0.0228-0.0198-0.0467-0.0198-0.0718c0-0.1338,0.1874-0.2422,0.4184-0.2422c0.2309,0,0.4184,0.1084,0.4184,0.2422
			C27.7257,32.0037,27.7194,32.0276,27.7071,32.0503L27.7071,32.0503z"/>
		<path class="st13" d="M27.6716,32.35c0,0.2598-0.1629,0.4706-0.3637,0.4706s-0.3637-0.2108-0.3637-0.4706v-0.2553h0.7273V32.35z"
			/>
		<ellipse class="st3" cx="27.3078" cy="32.0126" rx="0.3612" ry="0.1796"/>
		<path class="st14" d="M27.2252,32.215l-0.062-0.6594h0.2764l-0.0451,0.6594H27.2252L27.2252,32.215z"/>
		<path id="ip_1_" class="st12" d="M27.7076,32.0236c-0.053,0.0986-0.2121,0.1704-0.3998,0.1704
			c-0.1876,0-0.3456-0.0718-0.3986-0.1704c-0.0122,0.0228-0.0198,0.0467-0.0198,0.0718c0,0.1338,0.1874,0.2422,0.4184,0.2422
			c0.2309,0,0.4184-0.1084,0.4184-0.2422C27.7262,32.0703,27.7198,32.0464,27.7076,32.0236L27.7076,32.0236z"/>
		<path id="cannon_base" class="st5" d="M29.207,34.5572l-1.412-0.4379l-0.6152-1.0509l-2.1786-0.107l0.0757,0.7881l1.8558,0.3552
			l0.1765,0.3163l2.1332,0.5936L29.207,34.5572L29.207,34.5572z"/>
		<path class="st15" d="M27.7324,34.8508l-2.2297-3.2796l-0.1094,0.0823l2.2121,3.2933L27.7324,34.8508L27.7324,34.8508z"/>
		<path class="st6" d="M25.7102,31.7l-0.238-0.3984c-0.0446-0.0736-0.1122-0.0981-0.2117-0.0457
			c-0.0968,0.051-0.0874,0.1519-0.048,0.2246l0.2201,0.3704L25.7102,31.7L25.7102,31.7z"/>
		<path class="st5" d="M27.9972,32.8254l-4.4993-0.4573l-0.1094,0.6543l4.4774,0.4503L27.9972,32.8254L27.9972,32.8254z"/>
		<path class="st5" d="M23.4178,32.1994l-0.1167,0.9075h0.1896l0.1313-0.8302L23.4178,32.1994z"/>
		<path class="st5" d="M24.1688,32.347l-0.051,0.8161l0.1167,0.0141l0.0948-0.7246L24.1688,32.347L24.1688,32.347z"/>
		<path class="st5" d="M27.217,32.6988l-0.1094,0.7668l0.2188-0.007l0.0875-0.7598L27.217,32.6988L27.217,32.6988z"/>
		<path class="st5" d="M27.8872,32.7198l-0.1557,0.8868l0.2475,0.0359l0.0709-0.4664c0.0199,0.0937,0.1062,0.1648,0.2092,0.1648
			c0.1177,0,0.2138-0.0927,0.2138-0.2063s-0.0961-0.2052-0.2138-0.2052c-0.0818,0-0.1561,0.048-0.1883,0.1374l0.0465-0.3325
			L27.8872,32.7198L27.8872,32.7198z"/>
		<path class="st5" d="M26.2634,32.8638l-0.6188,0.6964l0.0722,0.0846l0.7941-0.5422L26.2634,32.8638z"/>
		<path class="st5" d="M24.8248,34.6l0.6188-0.6964l-0.0722-0.0846l-0.7941,0.5422L24.8248,34.6z"/>
		<path class="st5" d="M26.444,34.4258l-0.7528-0.582l-0.0773,0.0547l0.593,0.7512L26.444,34.4258z"/>
		<path class="st5" d="M24.5876,33.0826l0.7631,0.5621l0.0928-0.0696l-0.5981-0.7512L24.5876,33.0826z"/>
		<path class="st5" d="M25.418,32.6188l0.0729,0.9146l0.1027-0.0044l0.2414-0.8903L25.418,32.6188L25.418,32.6188z"/>
		<path class="st5" d="M25.6682,34.8378l-0.0729-0.9146l-0.113-0.0106l-0.1383,0.9251L25.6682,34.8378L25.6682,34.8378z"/>
		<path class="st5" d="M26.6802,33.6052l-0.9589,0.102l-0.0146,0.0915l0.9699,0.1266L26.6802,33.6052L26.6802,33.6052z"/>
		<path class="st5" d="M24.3986,33.9218l0.9362-0.148l0.0197-0.0728l-0.9683-0.1082L24.3986,33.9218L24.3986,33.9218z"/>
		<ellipse class="st5" cx="25.5386" cy="33.7096" rx="0.254" ry="0.245"/>
		<path class="st16" d="M26.8876,33.7096c0,0.7184-0.6043,1.3015-1.349,1.3015c-0.7446,0-1.349-0.5831-1.349-1.3015
			s0.6043-1.3015,1.349-1.3015C26.2833,32.4081,26.8876,32.9912,26.8876,33.7096z M26.6181,33.7096
			c0,0.5749-0.4836,1.0415-1.0795,1.0415s-1.0795-0.4666-1.0795-1.0415s0.4836-1.0415,1.0795-1.0415
			S26.6181,33.1347,26.6181,33.7096z"/>
		<path class="st5" d="M24.696,33.0528l-0.2114-0.1592"/>
		<path class="st5" d="M26.2068,32.8986l0.1805-0.1841"/>
		<path class="st5" d="M26.5934,34.5402l-0.2217-0.1741"/>
		<path class="st5" d="M24.696,34.7392l0.1908-0.204"/>
		<path class="st5" d="M29.2392,32.4244l0.231,1.1773l-0.1884,0.0992l-0.2027-1.2597L29.2392,32.4244L29.2392,32.4244z"/>
		<path class="st6" d="M29.1184,32.2728c-0.1071-0.0448-0.2463,0.031-0.4748-0.2583c-0.3757,0.3444-0.0214,0.3961,0.0357,0.737
			c0.1062,0.0437,0.1717-0.2646,0.4605-0.2962c0.0357-0.0034,0.4596-0.0406,0.4596-0.0406l-0.1064-0.145
			C29.493,32.2697,29.1982,32.2774,29.1184,32.2728L29.1184,32.2728z"/>
		<path class="st6" d="M29.2718,32.5036l-0.0428-0.3513c-0.0464-0.124-0.1999-0.0172-0.1999,0.0551l0.0393,0.3237L29.2718,32.5036z"
			/>
		<path id="bugle" class="st5" d="M28.153,33.4744l0.0038,0.3274c-0.1071,0.0367-0.0908,0.117-0.0873,0.2337l0.0038,0.9542
			c-0.038,0.0634-0.1555,0.0663-0.2108,0.1159c-0.0553,0.0496-0.0484,0.146,0.2039,0.2093l0.1951,0.007
			c0.2972-0.065,0.3586-0.1635,0.2095-0.219c-0.0793-0.0295-0.1836-0.0648-0.2234-0.1114l0.0066-0.2273l0.1929,0.007
			c0.0518,0,0.1505-0.1303,0.154-0.237l0.001-0.4941c-0.0069-0.2801-0.2171-0.3116-0.2759-0.3083l0.0041-0.258L28.153,33.4744
			L28.153,33.4744z M28.4791,34.0204c0.0035-0.08-0.1111-0.1514-0.1573-0.1534s-0.1469,0.0934-0.1504,0.1734v0.2001
			c0.0069,0.0734,0.0655,0.3218,0.1832,0.3401c0.0557,0.0087,0.1279-0.08,0.1279-0.1534L28.4791,34.0204L28.4791,34.0204z"/>
		<path class="st6" d="M26.855,34.4656C26.7277,34.4142,26.7289,34.7,26.7289,34.7l0.2006,0.0021
			c0.0877,0.0398,0.1583,0.1685,0.1024,0.2317c-0.0462,0.0522-0.4355-0.0882-0.4616-0.0074
			c0.0688,0.3883,0.5834,0.5377,0.7695,0.3679c0.1821-0.1661,0.2282-0.6096-0.3635-0.7257L26.855,34.4656L26.855,34.4656z"/>
		<path class="st6" d="M26.974,34.5712l-0.0585,0.1278"/>
		<path class="st5" d="M22.9886,34.611l-0.1926-0.8098"/>
		<path class="st5" d="M23.2224,34.5644l-0.2959-0.6306"/>
		<path class="st5" d="M23.7316,34.3986l-0.6674-0.3584"/>
		<path class="st5" d="M24.0206,34.3256l-1.2385-0.5377"/>
		<path class="st10" d="M22.043,33.2026c0,0-0.4508-0.0071-0.5311,0.0244c-0.0324,0.0127,0.1134,0.1649,0.0831,0.2231
			c-0.1126,0.2165-0.8789,0.1868-0.9394,0.1394c-0.1036-0.081,0.7137-0.1505,0.719-0.2057
			c0.0062-0.0633-0.1209-0.2293-0.1012-0.3312c0.0256-0.1321,0.3577-0.1813,0.3577-0.1813L22.043,33.2026L22.043,33.2026z"/>
		<path class="st15" d="M22.6466,33.61l-1.0204-0.8444c0,0-0.045-0.0476-0.0826-0.0066c-0.0368,0.0401,0.0138,0.0863,0.0138,0.0863
			l1.0527,0.8696L22.6466,33.61L22.6466,33.61z"/>
		<path class="st5" d="M23.6292,34.4434c-0.0181-0.0174-0.831-0.7216-0.831-0.7216l-0.0542-0.2057c0,0-0.1256,0.0851-0.1716,0.129
			c-0.0461,0.0439-0.1174,0.1638-0.1174,0.1638l0.2276,0.0105l0.719,0.6588L23.6292,34.4434z"/>
		<ellipse class="st5" cx="26.5068" cy="35.4112" rx="0.148" ry="0.143"/>
		<ellipse class="st5" cx="26.1282" cy="35.1432" rx="0.148" ry="0.143"/>
		<ellipse class="st5" cx="25.6182" cy="35.3186" rx="0.148" ry="0.143"/>
		<ellipse class="st5" cx="24.8306" cy="35.489" rx="0.148" ry="0.143"/>
		<ellipse class="st5" cx="24.4974" cy="35.528" rx="0.148" ry="0.143"/>
		<ellipse class="st5" cx="24.1692" cy="35.528" rx="0.148" ry="0.143"/>
		<ellipse class="st5" cx="23.836" cy="35.5182" rx="0.148" ry="0.143"/>
		<ellipse class="st5" cx="23.9976" cy="35.265" rx="0.148" ry="0.143"/>
		<ellipse class="st5" cx="24.3208" cy="35.2796" rx="0.148" ry="0.143"/>
		<ellipse class="st5" cx="24.6288" cy="35.2406" rx="0.148" ry="0.143"/>
		<ellipse class="st5" cx="24.4722" cy="34.9922" rx="0.148" ry="0.143"/>
		<ellipse class="st5" cx="24.1692" cy="34.9874" rx="0.148" ry="0.143"/>
		<path id="chain" class="st5" d="M27.294,35.5982c0-0.0633-0.1537-0.0361-0.1537-0.1101c0-0.0823,0.2344-0.0218,0.2668,0.0506
			c0.1319-0.1192,0.1888-0.0321,0.2696,0.0039c0.1151-0.1711,0.2574-0.1647,0.3963-0.0394
			c0.0803-0.0886,0.2819-0.0593,0.3513,0.0394c0.1329-0.1318,0.251-0.0993,0.3432-0.0039c0.0371-0.0693,0.0915-0.0541,0.1307-0.0039
			c0.0708-0.1257,0.2484-0.0879,0.3232-0.005c0.0665-0.0731,0.1345-0.016,0.2227,0.038c0.0596-0.0557,0.1557-0.0452,0.1557,0.0102
			c0,0.0578-0.1256,0.0374-0.1256,0.0948c0,0.0512,0.0916,0.0253,0.0916,0.09c0,0.0509-0.1359,0.07-0.157-0.0112
			c-0.046,0.0879-0.2124,0.0542-0.2288-0.0276c-0.0553,0.0668-0.1794,0.0871-0.2492-0.0118
			c-0.0573,0.0466-0.1259,0.0533-0.1574,0.0062c-0.1034,0.1112-0.2777,0.0883-0.3378-0.0342l-0.0587,0.0025
			c-0.1016,0.1379-0.2604,0.0742-0.304-0.0021c-0.1705,0.123-0.2724,0.0843-0.3677,0.0039c-0.1094,0.1333-0.2762,0.124-0.3146,0
			c-0.0736,0.0537-0.2273,0.0663-0.2273,0.0035C27.1635,35.6318,27.294,35.6537,27.294,35.5982L27.294,35.5982z M27.6249,35.6282
			c0,0.0286-0.039,0.0519-0.087,0.0519s-0.087-0.0232-0.087-0.0519c0-0.0286,0.039-0.0519,0.087-0.0519
			C27.5859,35.5763,27.6249,35.5995,27.6249,35.6282z M27.989,35.5846c0,0.0345-0.0469,0.0625-0.1047,0.0625
			c-0.0578,0-0.1047-0.028-0.1047-0.0625s0.0469-0.0625,0.1047-0.0625C27.9421,35.5221,27.989,35.5501,27.989,35.5846z
			 M28.704,35.624c0,0.0349-0.0425,0.0632-0.0948,0.0632s-0.0948-0.0283-0.0948-0.0632s0.0425-0.0632,0.0948-0.0632
			S28.704,35.5891,28.704,35.624z M28.3233,35.6074c0,0.0441-0.0415,0.0799-0.0927,0.0799c-0.0512,0-0.0927-0.0358-0.0927-0.0799
			c0-0.0441,0.0415-0.0799,0.0927-0.0799C28.2818,35.5275,28.3233,35.5633,28.3233,35.6074z M29.1352,35.6095
			c0,0.0394-0.0371,0.0714-0.0829,0.0714s-0.0829-0.032-0.0829-0.0714s0.0371-0.0714,0.0829-0.0714S29.1352,35.5701,29.1352,35.6095
			z M28.8865,35.6261c0,0.0255-0.024,0.0462-0.0536,0.0462c-0.0296,0-0.0536-0.0207-0.0536-0.0462
			c0-0.0255,0.024-0.0462,0.0536-0.0462C28.8625,35.5799,28.8865,35.6006,28.8865,35.6261z M29.3708,35.6448
			c0,0.0366-0.027,0.0663-0.0604,0.0663c-0.0333,0-0.0604-0.0297-0.0604-0.0663c0-0.0366,0.027-0.0663,0.0604-0.0663
			C29.3438,35.5785,29.3708,35.6082,29.3708,35.6448z"/>
		<path id="cannon_base_1_" class="st5" d="M30.7647,34.5572l1.412-0.4379l0.6152-1.0509l2.1786-0.107l-0.0757,0.7881
			l-1.8558,0.3552l-0.1765,0.3163l-2.1332,0.5936L30.7647,34.5572L30.7647,34.5572z"/>
		<path class="st15" d="M32.2393,34.8508l2.2297-3.2796l0.1094,0.0823l-2.2121,3.2933L32.2393,34.8508L32.2393,34.8508z"/>
		<path class="st6" d="M34.2615,31.7l0.238-0.3984c0.0446-0.0736,0.1122-0.0981,0.2117-0.0457
			c0.0968,0.051,0.0874,0.1519,0.048,0.2246l-0.2201,0.3704L34.2615,31.7L34.2615,31.7z"/>
		<path class="st5" d="M31.9745,32.8254l4.4993-0.4573l0.1094,0.6543l-4.4774,0.4503L31.9745,32.8254L31.9745,32.8254z"/>
		<path class="st5" d="M36.5539,32.1994l0.1167,0.9075H36.481l-0.1313-0.8302L36.5539,32.1994z"/>
		<path class="st5" d="M35.8029,32.347l0.051,0.8161l-0.1167,0.0141l-0.0948-0.7246L35.8029,32.347L35.8029,32.347z"/>
		<path class="st5" d="M32.7547,32.6988l0.1094,0.7668l-0.2188-0.007l-0.0875-0.7598L32.7547,32.6988L32.7547,32.6988z"/>
		<path class="st5" d="M32.0845,32.7198l0.1557,0.8868l-0.2475,0.0359l-0.0709-0.4664c-0.0199,0.0937-0.1062,0.1648-0.2092,0.1648
			c-0.1177,0-0.2138-0.0927-0.2138-0.2063s0.0961-0.2052,0.2138-0.2052c0.0818,0,0.1561,0.048,0.1883,0.1374l-0.0465-0.3325
			L32.0845,32.7198L32.0845,32.7198z"/>
		<path class="st5" d="M33.7083,32.8638l0.6188,0.6964l-0.0722,0.0846l-0.7941-0.5422L33.7083,32.8638z"/>
		<path class="st5" d="M35.1469,34.6l-0.6188-0.6964l0.0722-0.0846l0.7941,0.5422L35.1469,34.6z"/>
		<path class="st5" d="M33.5277,34.4258l0.7528-0.582l0.0773,0.0547l-0.593,0.7512L33.5277,34.4258z"/>
		<path class="st5" d="M35.3841,33.0826l-0.7631,0.5621l-0.0928-0.0696l0.5981-0.7512L35.3841,33.0826z"/>
		<path class="st5" d="M34.5537,32.6188l-0.0729,0.9146l-0.1027-0.0044l-0.2414-0.8903L34.5537,32.6188L34.5537,32.6188z"/>
		<path class="st5" d="M34.3035,34.8378l0.0729-0.9146l0.113-0.0106l0.1383,0.9251L34.3035,34.8378L34.3035,34.8378z"/>
		<path class="st5" d="M33.2915,33.6052l0.9589,0.102l0.0146,0.0915l-0.9699,0.1266L33.2915,33.6052L33.2915,33.6052z"/>
		<path class="st5" d="M35.5731,33.9218l-0.9362-0.148l-0.0197-0.0728l0.9683-0.1082L35.5731,33.9218L35.5731,33.9218z"/>
		<ellipse class="st5" cx="34.4331" cy="33.7096" rx="0.254" ry="0.245"/>
		<path class="st16" d="M33.0841,33.7096c0,0.7184,0.6044,1.3015,1.349,1.3015s1.349-0.5831,1.349-1.3015
			s-0.6043-1.3015-1.349-1.3015C33.6885,32.4081,33.0841,32.9912,33.0841,33.7096z M33.3536,33.7096
			c0,0.5749,0.4836,1.0415,1.0795,1.0415c0.5959,0,1.0795-0.4666,1.0795-1.0415s-0.4836-1.0415-1.0795-1.0415
			S33.3536,33.1347,33.3536,33.7096z"/>
		<path class="st5" d="M35.2757,33.0528l0.2114-0.1592"/>
		<path class="st5" d="M33.7649,32.8986l-0.1805-0.1841"/>
		<path class="st5" d="M33.3783,34.5402L33.6,34.3661"/>
		<path class="st5" d="M35.2757,34.7392l-0.1908-0.204"/>
		<path class="st5" d="M30.7325,32.4244l-0.231,1.1773l0.1884,0.0992l0.2027-1.2597L30.7325,32.4244L30.7325,32.4244z"/>
		<path class="st6" d="M30.8533,32.2728c0.1071-0.0448,0.2463,0.031,0.4748-0.2583c0.3757,0.3444,0.0214,0.3961-0.0357,0.737
			c-0.1062,0.0437-0.1717-0.2646-0.4605-0.2962c-0.0357-0.0034-0.4596-0.0406-0.4596-0.0406l0.1064-0.145
			C30.4787,32.2697,30.7735,32.2774,30.8533,32.2728L30.8533,32.2728z"/>
		<path class="st6" d="M30.6999,32.5036l0.0428-0.3513c0.0464-0.124,0.1999-0.0172,0.1999,0.0551l-0.0393,0.3237L30.6999,32.5036z"
			/>
		<path id="bugle_1_" class="st5" d="M31.8187,33.4744l-0.0038,0.3274c0.1071,0.0367,0.0908,0.117,0.0873,0.2337l-0.0038,0.9542
			c0.038,0.0634,0.1555,0.0663,0.2108,0.1159c0.0553,0.0496,0.0484,0.146-0.2039,0.2093l-0.1951,0.007
			c-0.2972-0.065-0.3586-0.1635-0.2095-0.219c0.0793-0.0295,0.1836-0.0648,0.2234-0.1114l-0.0066-0.2273l-0.1929,0.007
			c-0.0518,0-0.1505-0.1303-0.154-0.237l-0.001-0.4941c0.0069-0.2801,0.2171-0.3116,0.2759-0.3083l-0.0041-0.258L31.8187,33.4744
			L31.8187,33.4744z M31.4926,34.0204c-0.0035-0.08,0.1111-0.1514,0.1573-0.1534s0.1469,0.0934,0.1504,0.1734v0.2001
			c-0.0069,0.0734-0.0655,0.3218-0.1832,0.3401c-0.0557,0.0087-0.1279-0.08-0.1279-0.1534L31.4926,34.0204L31.4926,34.0204z"/>
		<path class="st6" d="M33.1167,34.4656C33.244,34.4142,33.2428,34.7,33.2428,34.7l-0.2006,0.0021
			c-0.0877,0.0398-0.1583,0.1685-0.1024,0.2317c0.0462,0.0522,0.4355-0.0882,0.4616-0.0074
			c-0.0688,0.3883-0.5834,0.5377-0.7695,0.3679c-0.1821-0.1661-0.2282-0.6096,0.3635-0.7257L33.1167,34.4656L33.1167,34.4656z"/>
		<path class="st6" d="M32.9977,34.5712l0.0585,0.1278"/>
		<path class="st5" d="M36.9831,34.611l0.1927-0.8098"/>
		<path class="st5" d="M36.7493,34.5644l0.2959-0.6306"/>
		<path class="st5" d="M36.2401,34.3986l0.6674-0.3584"/>
		<path class="st5" d="M35.9511,34.3256l1.2385-0.5377"/>
		<path class="st10" d="M37.9287,33.2026c0,0,0.4508-0.0071,0.5311,0.0244c0.0324,0.0127-0.1134,0.1649-0.0831,0.2231
			c0.1126,0.2165,0.8789,0.1868,0.9394,0.1394c0.1036-0.081-0.7137-0.1505-0.719-0.2057c-0.0062-0.0633,0.1209-0.2293,0.1012-0.3312
			c-0.0256-0.1321-0.3577-0.1813-0.3577-0.1813L37.9287,33.2026L37.9287,33.2026z"/>
		<path class="st15" d="M37.3251,33.61l1.0204-0.8444c0,0,0.045-0.0476,0.0826-0.0066c0.0368,0.0401-0.0138,0.0863-0.0138,0.0863
			l-1.0527,0.8696L37.3251,33.61L37.3251,33.61z"/>
		<path class="st5" d="M36.3425,34.4434c0.0181-0.0174,0.831-0.7216,0.831-0.7216l0.0542-0.2057c0,0,0.1256,0.0851,0.1716,0.129
			c0.0461,0.0439,0.1174,0.1638,0.1174,0.1638l-0.2276,0.0105l-0.719,0.6588L36.3425,34.4434z"/>
		<ellipse class="st5" cx="33.4649" cy="35.4112" rx="0.148" ry="0.143"/>
		<ellipse class="st5" cx="33.8435" cy="35.1432" rx="0.148" ry="0.143"/>
		<ellipse class="st5" cx="34.3535" cy="35.3186" rx="0.148" ry="0.143"/>
		<ellipse class="st5" cx="35.1411" cy="35.489" rx="0.148" ry="0.143"/>
		<ellipse class="st5" cx="35.4743" cy="35.528" rx="0.148" ry="0.143"/>
		<ellipse class="st5" cx="35.8025" cy="35.528" rx="0.148" ry="0.143"/>
		<ellipse class="st5" cx="36.1357" cy="35.5182" rx="0.148" ry="0.143"/>
		<ellipse class="st5" cx="35.9741" cy="35.265" rx="0.148" ry="0.143"/>
		<ellipse class="st5" cx="35.6509" cy="35.2796" rx="0.148" ry="0.143"/>
		<ellipse class="st5" cx="35.3429" cy="35.2406" rx="0.148" ry="0.143"/>
		<ellipse class="st5" cx="35.4995" cy="34.9922" rx="0.148" ry="0.143"/>
		<ellipse class="st5" cx="35.8025" cy="34.9874" rx="0.148" ry="0.143"/>
		<path id="chain_1_" class="st5" d="M32.6777,35.5982c0-0.0633,0.1537-0.0361,0.1537-0.1101c0-0.0823-0.2344-0.0218-0.2668,0.0506
			c-0.1319-0.1192-0.1888-0.0321-0.2696,0.0039c-0.1151-0.1711-0.2574-0.1647-0.3963-0.0394
			c-0.0803-0.0886-0.2819-0.0593-0.3513,0.0394c-0.1329-0.1318-0.251-0.0993-0.3432-0.0039
			c-0.0371-0.0693-0.0915-0.0541-0.1307-0.0039c-0.0708-0.1257-0.2484-0.0879-0.3232-0.005
			c-0.0665-0.0731-0.1345-0.016-0.2228,0.038c-0.0596-0.0557-0.1557-0.0452-0.1557,0.0102c0,0.0578,0.1256,0.0374,0.1256,0.0948
			c0,0.0512-0.0916,0.0253-0.0916,0.09c0,0.0509,0.1359,0.07,0.157-0.0112c0.046,0.0879,0.2124,0.0542,0.2288-0.0276
			c0.0553,0.0668,0.1794,0.0871,0.2492-0.0118c0.0573,0.0466,0.1259,0.0533,0.1574,0.0062
			c0.1034,0.1112,0.2777,0.0883,0.3378-0.0342l0.0587,0.0025c0.1016,0.1379,0.2604,0.0742,0.304-0.0021
			c0.1705,0.123,0.2724,0.0843,0.3677,0.0039c0.1094,0.1333,0.2762,0.124,0.3146,0c0.0736,0.0537,0.2273,0.0663,0.2273,0.0035
			C32.8082,35.6318,32.6777,35.6537,32.6777,35.5982L32.6777,35.5982z M32.3468,35.6282c0,0.0286,0.039,0.0519,0.087,0.0519
			s0.087-0.0232,0.087-0.0519c0-0.0286-0.039-0.0519-0.087-0.0519S32.3468,35.5995,32.3468,35.6282z M31.9827,35.5846
			c0,0.0345,0.0469,0.0625,0.1047,0.0625c0.0578,0,0.1047-0.028,0.1047-0.0625s-0.0469-0.0625-0.1047-0.0625
			C32.0296,35.5221,31.9827,35.5501,31.9827,35.5846z M31.2677,35.624c0,0.0349,0.0425,0.0632,0.0948,0.0632
			c0.0523,0,0.0948-0.0283,0.0948-0.0632s-0.0425-0.0632-0.0948-0.0632C31.3102,35.5608,31.2677,35.5891,31.2677,35.624z
			 M31.6484,35.6074c0,0.0441,0.0415,0.0799,0.0927,0.0799c0.0512,0,0.0927-0.0358,0.0927-0.0799
			c0-0.0441-0.0415-0.0799-0.0927-0.0799C31.6899,35.5275,31.6484,35.5633,31.6484,35.6074z M30.8365,35.6095
			c0,0.0394,0.0371,0.0714,0.0829,0.0714s0.0829-0.032,0.0829-0.0714s-0.0371-0.0714-0.0829-0.0714S30.8365,35.5701,30.8365,35.6095
			z M31.0852,35.6261c0,0.0255,0.024,0.0462,0.0536,0.0462c0.0296,0,0.0536-0.0207,0.0536-0.0462
			c0-0.0255-0.024-0.0462-0.0536-0.0462S31.0852,35.6006,31.0852,35.6261z M30.6009,35.6448c0,0.0366,0.027,0.0663,0.0604,0.0663
			c0.0333,0,0.0604-0.0297,0.0604-0.0663c0-0.0366-0.027-0.0663-0.0604-0.0663C30.6279,35.5785,30.6009,35.6082,30.6009,35.6448z"/>
		<path class="st17" d="M29.9674,33.1436c-0.5023,0-0.9099,0.1888-0.9099,0.4204c0,0.0397,0.0113,0.0779,0.0337,0.1144
			c0.1086,0.1258,0.4613,0.2175,0.8797,0.2175c0.3913,0,0.7249-0.0806,0.8553-0.194c0.0329-0.0434,0.0511-0.0894,0.0511-0.1379
			C30.8773,33.3324,30.4697,33.1436,29.9674,33.1436L29.9674,33.1436z"/>
		<path class="st18" d="M30.8854,33.5962v1.4116c0,0.1655-0.4097,0.2998-0.9145,0.2998c-0.5048,0-0.9145-0.1343-0.9145-0.2998
			v-1.4116c0,0.1655,0.4097,0.2998,0.9145,0.2998C30.4757,33.896,30.8854,33.7617,30.8854,33.5962z"/>
		<path class="st10" d="M29.0564,33.5964v0.2164l0.4439,1.3689l0.3544-1.0528l0.3893,1.0931l0.2849-1.0318l0.3566,0.6936V34.5
			l-0.3312-0.6727c-0.0372,0.0101-0.0768,0.0188-0.1185,0.0269l-0.2057,0.7624l-0.2894-0.7209
			c-0.0485-0.0006-0.0967-0.0016-0.1429-0.0045l-0.2905,0.7254l-0.3324-0.8734C29.0998,33.6997,29.0564,33.65,29.0564,33.5964
			L29.0564,33.5964z"/>
		<path class="st19" d="M30.8854,34.7442v0.2636c0,0.1655-0.4097,0.2998-0.9145,0.2998c-0.5048,0-0.9145-0.1343-0.9145-0.2998
			v-0.2636c0,0.1655,0.4097,0.2998,0.9145,0.2998C30.4757,35.044,30.8854,34.9097,30.8854,34.7442z"/>
		<path class="st18" d="M30.3474,35.017c-0.0744,0.0111-0.1537,0.0193-0.2371,0.0235l0.0023,0.2635
			c0.0834-0.0043,0.1627-0.0124,0.2371-0.0235L30.3474,35.017z"/>
		<path class="st18" d="M29.3736,34.971l-0.0023,0.2623c0.0706,0.0202,0.15,0.037,0.2371,0.0493v-0.2635
			C29.5223,35.007,29.4436,34.9909,29.3736,34.971L29.3736,34.971z"/>
		<path class="st18" d="M29.0564,34.7446v0.2635c0,0.0492,0.0371,0.0947,0.1011,0.1357l0.0046-0.2601
			C29.095,34.8419,29.0564,34.795,29.0564,34.7446L29.0564,34.7446z"/>
		<path class="st18" d="M30.8856,34.7726l-0.0046,0.0012c-0.016,0.0535-0.0757,0.1031-0.1662,0.1446l0.0012,0.2623
			c0.1061-0.049,0.1697-0.1081,0.1697-0.1727L30.8856,34.7726L30.8856,34.7726z"/>
		<path class="st20" d="M30.8854,33.6054v1.4024c0,0.1655-0.4097,0.2998-0.9145,0.2998c-0.5048,0-0.9145-0.1343-0.9145-0.2998
			v-1.4024"/>
		<path class="st21" d="M30.6784,33.504c0,0.1002-0.3168,0.1815-0.7075,0.1815s-0.7075-0.0812-0.7075-0.1815
			s0.3168-0.1815,0.7075-0.1815C30.3616,33.3225,30.6784,33.4038,30.6784,33.504z"/>
		<path class="st22" d="M29.7396,33.638l0.0314,0.25c0.0614,0.0045,0.1252,0.0076,0.1906,0.0078l0.0465-0.2579L29.7396,33.638
			L29.7396,33.638z"/>
		<path class="st22" d="M30.5602,33.5774l-0.1824,0.0493l0.0116,0.2354c0.062-0.0105,0.1204-0.0234,0.1732-0.0381L30.5602,33.5774
			L30.5602,33.5774z"/>
		<path class="st22" d="M29.4794,33.1958c-0.0518,0.0153-0.1002,0.0331-0.1441,0.0527l0.0256,0.1888l0.1162-0.037L29.4794,33.1958
			L29.4794,33.1958z"/>
		<path class="st22" d="M29.9674,33.1212c-0.0243,0-0.0482,0.0014-0.0721,0.0022l0.0395,0.2365l0.1209-0.0022l0.0476-0.2309
			C30.0589,33.1237,30.0137,33.1212,29.9674,33.1212L29.9674,33.1212z"/>
		<path class="st22" d="M30.502,33.2048l-0.0244,0.2067l0.1383,0.0489l0.0151-0.2029
			C30.5917,33.2381,30.5485,33.2205,30.502,33.2048L30.502,33.2048z"/>
		<path class="st5" d="M29.1986,33.76l0.0368-0.2575l-0.187-0.1013l0.0056,0.2931L29.1986,33.76L29.1986,33.76z"/>
		<path class="st5" d="M30.8792,33.7044l0.0083-0.2575l-0.1752,0.0523L30.8792,33.7044L30.8792,33.7044z"/>
		<path class="st5" d="M32.7372,32.0058c0.1662-0.0229,0.4125,0.2049,0.4273,0.4867c0.0117,0.2236-0.3383,0.2118-0.3383,0.2118
			c-0.0178,0.0916-0.2108,0.1764-0.3679,0.1832c-0.1524,0.0066,0.0415-0.2863,0.0415-0.2863
			c-0.095-0.2519,0.0297-0.5496,0.0297-0.5496L32.7372,32.0058L32.7372,32.0058z"/>
		<path class="st5" d="M32.4998,32.5896l0.1602-0.0057c0,0,0.0123,0.0826,0.0415,0.0859c0.0315,0.0035,0.0653-0.0802,0.0653-0.0802
			l0.2433-0.0057"/>
		<path class="st23" d="M32.8262,32.1718c0.1359-0.0983,0.0168-0.2961-0.0771-0.2977l-0.2196,0.0057
			c-0.1035,0.0021-0.2784,0.1145-0.2552,0.2118c0.0203,0.0849,0.0772,0.1235,0.1662,0.1088
			c0.0404-0.0067,0.1252-0.1127,0.1662-0.1145C32.6616,32.0835,32.7822,32.2036,32.8262,32.1718L32.8262,32.1718z"/>
		<path id="anchor" class="st5" d="M22.8484,34.971c-0.1233,0.0156-0.1462,0.1577-0.0999,0.2881
			c-0.5373,0.151-1.0173,0.3479-1.491,0.481c-0.0191-0.0947,0.2347-0.3689,0.2347-0.3689c0.0671,0.0324,0.1174,0.1861,0.1174,0.1861
			c0.0168-0.3158,0.3277-0.5258,0.3277-0.5258c-0.1846-0.0243-0.7463,0.1935-0.8135,0.2825c0,0,0.2174-0.0243,0.251,0
			c0,0-0.4282,0.4623-0.4474,0.5998c0.0666,0.1502,0.8053,0.2623,0.8053,0.2623c-0.0117,0.0389-0.2173,0.1861-0.2173,0.1861
			c0.2938,0.0645,0.7369-0.1436,0.8693-0.2702c0,0-0.3456-0.0285-0.6148-0.2467c0,0,0.0555,0.1358,0.0221,0.2007
			c0,0-0.4199-0.1211-0.4637-0.1906c0.0012-0.006,0.9932-0.2629,1.4735-0.4003c0.0178,0.0858,0.1132,0.248,0.2278,0.2097
			c0.0748-0.025,0.0511-0.1731,0.0232-0.278c0.027,0.0232,0.0621,0.037,0.1011,0.037c0.0845,0,0.1534-0.0654,0.1534-0.1469
			c0-0.0815-0.0689-0.148-0.1534-0.148c-0.0675,0-0.1238,0.0423-0.1441,0.1009C22.9908,35.1394,22.9409,34.9593,22.8484,34.971
			L22.8484,34.971z M23.2261,35.2766c0,0.0381-0.0321,0.069-0.0716,0.069s-0.0716-0.0309-0.0716-0.069
			c0-0.0381,0.0321-0.069,0.0716-0.069S23.2261,35.2384,23.2261,35.2766z"/>
		<path class="st5" d="M38.6136,35.5768c0.0366-0.0733-0.0324-0.4424-0.0324-0.4424c-0.0746,0.0083-0.1764,0.1362-0.1764,0.1362
			c0.0962-0.3023-0.173-0.8075-0.173-0.8075c0.1821,0.0381,0.7891,0.6257,0.8206,0.7315c0,0-0.2658-0.0948-0.306-0.0831
			c0.0434,0.3011,0.2516,0.4411,0.3298,0.5976c0,0-0.3451,0.0758-0.3105,0.3644l-0.2254,0.0042
			c-0.078-0.0962,0.0303-0.2551,0.0303-0.2551l-1.5477-0.6483c-0.0997-0.0418-0.3241-0.1436-0.2905-0.2635
			c0.0339-0.1209,0.4032,0.0502,0.4942,0.0795L38.6136,35.5768L38.6136,35.5768z"/>
		<path class="st5" d="M37.127,35.3082l0.1821-0.3346c0.065-0.0878-0.0694-0.184-0.1647-0.0711l-0.2038,0.3053
			C36.8495,35.3751,37.0403,35.4211,37.127,35.3082L37.127,35.3082z"/>
		<path class="st6" d="M26.2734,36.0732l-0.0126-0.365l-0.4414,0.0243L25.7942,36.13L26.2734,36.0732L26.2734,36.0732z"/>
		<path class="st6" d="M23.0474,36.5848l-0.5902-0.331c2.4337,0.223,2.9307-0.6258,3.5188-0.6712
			c0.3615-0.0282,0.418,0.4004-0.2825,0.1965l0.1812,0.4483c0,0-1.7277,0.9719-3.4258,0.5704L23.0474,36.5848L23.0474,36.5848z"/>
		<path class="st6" d="M33.6498,36.0732l0.0126-0.365l0.5398,0.0125l0.0252,0.3974L33.6498,36.0732L33.6498,36.0732z"/>
		<path class="st6" d="M36.9878,36.4954l0.5553-0.303c-2.7878,0.0831-2.153-0.4579-3.5478-0.6096
			c-0.3604-0.0391-0.6314,0.4241,0.2826,0.1965l-0.1812,0.4483l0.4384,0.0004c0.9496,0.6253,2.2312,0.6811,3.0803,0.4804
			L36.9878,36.4954L36.9878,36.4954z"/>
		<path class="st6" d="M25.6836,35.7816v0.6308c0,0,1.5456,0.5735,4.3038,0.5735c2.77,0,4.3038-0.5735,4.3038-0.5735v-0.6308
			c0,0-1.1698,0.5391-4.3038,0.5391C26.8653,36.3207,25.6836,35.7816,25.6836,35.7816z"/>
		<path d="M25.9146,36.416l0.1364-0.4619l0.0634,0.0174l-0.1203,0.4074l0.2358,0.0648l-0.0161,0.0545L25.9146,36.416L25.9146,36.416
			z M26.3619,36.2129l0.0076-0.0907l0.0203-0.0778l0.0675,0.0164l-0.0203,0.0778l-0.0386,0.0832L26.3619,36.2129L26.3619,36.2129z
			 M27.0269,36.1817l0.0646,0.0127l-0.0574,0.2719c-0.01,0.0473-0.0235,0.0838-0.0404,0.1094
			c-0.017,0.0256-0.0418,0.0443-0.0744,0.0561c-0.0326,0.0118-0.0725,0.013-0.1195,0.0038
			c-0.0457-0.009-0.0815-0.0239-0.1073-0.0448c-0.0259-0.0209-0.042-0.047-0.0483-0.0782
			c-0.0063-0.0312-0.0043-0.0718,0.0063-0.1216l0.0574-0.2719l0.0646,0.0127l-0.0573,0.2716
			c-0.0086,0.0409-0.011,0.0718-0.0073,0.0927c0.0038,0.0209,0.0142,0.0385,0.0311,0.0528c0.017,0.0143,0.0393,0.0241,0.0671,0.0295
			c0.0475,0.0093,0.0835,0.0056,0.108-0.0112c0.0246-0.0168,0.0431-0.0547,0.0555-0.1138L27.0269,36.1817L27.0269,36.1817z
			 M27.0996,36.6837l0.0804-0.4739l0.0667,0.0105l0.1949,0.4128l0.0631-0.3721l0.0623,0.0098l-0.0804,0.4739l-0.0667-0.0105
			l-0.1949-0.4131l-0.0631,0.3724L27.0996,36.6837L27.0996,36.6837z M27.6078,36.7605l0.0683-0.4757l0.0652,0.0087l-0.0683,0.4757
			L27.6078,36.7605z M27.7953,36.5507c0.0094-0.0792,0.0388-0.1388,0.0882-0.1787c0.0494-0.0399,0.1089-0.0561,0.1787-0.0484
			c0.0457,0.005,0.0856,0.0201,0.1197,0.0452c0.0342,0.0251,0.0586,0.0575,0.0734,0.0973c0.0148,0.0398,0.0193,0.0835,0.0137,0.1313
			c-0.0057,0.0484-0.021,0.0906-0.0457,0.1265c-0.0248,0.036-0.0569,0.0617-0.0963,0.0773
			c-0.0394,0.0155-0.0806,0.021-0.1236,0.0162c-0.0466-0.0051-0.0869-0.0206-0.121-0.0463
			c-0.0341-0.0257-0.0584-0.0584-0.0728-0.098C27.7951,36.6333,27.7903,36.5926,27.7953,36.5507L27.7953,36.5507z M27.8626,36.5591
			c-0.0068,0.0575,0.0038,0.1046,0.032,0.1412c0.0281,0.0366,0.0664,0.0576,0.1147,0.0629
			c0.0493,0.0054,0.0918-0.0068,0.1276-0.0367c0.0358-0.0299,0.0573-0.0756,0.0646-0.137c0.0046-0.0388,0.0018-0.0735-0.0084-0.104
			c-0.0102-0.0305-0.0274-0.0551-0.0517-0.074c-0.0243-0.0188-0.0528-0.03-0.0854-0.0336c-0.0463-0.0051-0.088,0.0059-0.125,0.0329
			C27.8939,36.4378,27.8712,36.4873,27.8626,36.5591L27.8626,36.5591z M28.3243,36.8423l0.0406-0.4786l0.0674,0.0053l0.2287,0.3963
			l0.0318-0.3758l0.0629,0.005l-0.0406,0.4786l-0.0673-0.0053l-0.2287-0.3967l-0.0319,0.3761L28.3243,36.8423L28.3243,36.8423z
			 M29.0222,36.8908l0.0217-0.4798l0.3355,0.0141l-0.0026,0.0566l-0.2697-0.0114l-0.0067,0.1486l0.2334,0.0098l-0.0026,0.0566
			l-0.2334-0.0098l-0.0099,0.218L29.0222,36.8908L29.0222,36.8908z M29.3889,36.9065l0.2008-0.4766l0.071,0.0014l0.1941,0.484
			l-0.075-0.0014l-0.0551-0.1465l-0.2081-0.0039l-0.0576,0.1444L29.3889,36.9065L29.3889,36.9065z M29.5364,36.712l0.1687,0.0031
			l-0.0493-0.1339c-0.015-0.0407-0.0261-0.0741-0.0333-0.1002c-0.007,0.0307-0.0165,0.0611-0.0287,0.0912L29.5364,36.712
			L29.5364,36.712z M29.9192,36.9142l0.001-0.4802l0.0659,0.0001l-0.001,0.4802L29.9192,36.9142L29.9192,36.9142z M30.2276,36.9128
			l-0.0063-0.4235l-0.164,0.0023l-0.0008-0.0567l0.3945-0.0054l0.0008,0.0567l-0.1647,0.0023l0.0063,0.4235l-0.0659,0.001
			L30.2276,36.9128z M30.716,36.9012l-0.0233-0.4797l0.0658-0.003l0.0205,0.4231l0.2449-0.0111l0.0027,0.0566L30.716,36.9012
			L30.716,36.9012z M31.051,36.8866l0.1553-0.4921l0.0708-0.0049l0.2386,0.4651l-0.0748,0.0051l-0.0686-0.1411l-0.2076,0.0143
			l-0.0438,0.1488L31.051,36.8866L31.051,36.8866z M31.1797,36.6801l0.1683-0.0116l-0.0616-0.1291
			c-0.0188-0.0392-0.033-0.0715-0.0426-0.0969c-0.0041,0.0312-0.0107,0.0623-0.02,0.0933L31.1797,36.6801L31.1797,36.6801z
			 M31.7641,36.8317l-0.0546-0.4773l0.3338-0.0355l0.0064,0.0563l-0.2683,0.0286l0.0169,0.1478l0.2322-0.0247l0.0064,0.0563
			l-0.2322,0.0247l0.0248,0.2169L31.7641,36.8317L31.7641,36.8317z M32.1291,36.5576c-0.0117-0.0789,0.0012-0.1437,0.0385-0.1944
			c0.0373-0.0507,0.0907-0.0808,0.1602-0.0904c0.0455-0.0063,0.0881-0.0014,0.1277,0.0145
			c0.0396,0.0159,0.0718,0.0414,0.0965,0.0762c0.0247,0.0349,0.0406,0.0761,0.0476,0.1237
			c0.0071,0.0482,0.0034,0.0927-0.0111,0.1336c-0.0145,0.0408-0.0388,0.0736-0.0729,0.0982
			c-0.0341,0.0247-0.0725,0.0399-0.1153,0.0458c-0.0464,0.0064-0.0894,0.0012-0.1292-0.0153
			c-0.0397-0.0166-0.0718-0.0423-0.0961-0.0771C32.1505,36.6376,32.1353,36.5994,32.1291,36.5576L32.1291,36.5576z M32.1965,36.5494
			c0.0085,0.0573,0.0311,0.1002,0.0679,0.1288c0.0368,0.0286,0.0793,0.0395,0.1275,0.0329c0.0491-0.0068,0.087-0.029,0.1138-0.0666
			c0.0268-0.0377,0.0357-0.0871,0.0266-0.1483c-0.0057-0.0387-0.0175-0.0715-0.0353-0.0985
			c-0.0178-0.027-0.041-0.0466-0.0694-0.0589c-0.0285-0.0123-0.0589-0.0162-0.0914-0.0117
			c-0.0462,0.0064-0.0836,0.0271-0.1124,0.0623C32.195,36.4244,32.1859,36.4778,32.1965,36.5494L32.1965,36.5494z M32.7192,36.7106
			l-0.0889-0.4725l0.2172-0.038c0.0437-0.0076,0.0776-0.0092,0.102-0.0047c0.0243,0.0045,0.0453,0.0163,0.0629,0.0354
			c0.0176,0.0191,0.0289,0.0417,0.0338,0.0677c0.0063,0.0335,0.0004,0.0637-0.0178,0.0907
			c-0.0182,0.0269-0.0502,0.0476-0.096,0.0621c0.0186,0.0049,0.0332,0.0105,0.0435,0.0167c0.0221,0.0134,0.044,0.0313,0.0656,0.0534
			l0.1094,0.1137l-0.0815,0.0143l-0.0833-0.087c-0.0243-0.0251-0.0439-0.044-0.059-0.0569
			c-0.0151-0.0129-0.028-0.0215-0.0388-0.0258s-0.0215-0.0068-0.0319-0.0074c-0.0076-0.0002-0.0198,0.0012-0.0365,0.0041
			l-0.0752,0.0132l0.0395,0.2098L32.7192,36.7106L32.7192,36.7106z M32.7344,36.4352l0.1393-0.0244
			c0.0296-0.0052,0.0522-0.0122,0.0678-0.021c0.0156-0.0088,0.0265-0.0205,0.0328-0.035c0.0062-0.0145,0.0079-0.0294,0.0051-0.0447
			c-0.0042-0.0223-0.0161-0.0392-0.0356-0.0507c-0.0195-0.0115-0.0474-0.014-0.0837-0.0076l-0.155,0.0271L32.7344,36.4352
			L32.7344,36.4352z M33.5206,36.3829l0.0679,0.0018c-0.0016,0.0538-0.0168,0.0979-0.0455,0.1323
			c-0.0288,0.0343-0.0684,0.057-0.119,0.068c-0.0523,0.0114-0.0973,0.0103-0.1349-0.0031
			c-0.0376-0.0134-0.0695-0.0378-0.0957-0.0731c-0.0262-0.0353-0.0445-0.0753-0.055-0.12c-0.0114-0.0488-0.0117-0.0934-0.0008-0.134
			c0.0108-0.0405,0.0319-0.0741,0.0632-0.1007c0.0313-0.0266,0.0683-0.0446,0.1112-0.0539
			c0.0486-0.0106,0.0922-0.0075,0.1309,0.0092c0.0387,0.0167,0.0696,0.0452,0.0927,0.0856l-0.0599,0.0281
			c-0.0192-0.0316-0.0414-0.0529-0.0664-0.0638c-0.025-0.0109-0.0538-0.0128-0.0863-0.0058
			c-0.0373,0.0081-0.0665,0.0235-0.0875,0.0462c-0.021,0.0227-0.0332,0.0497-0.0366,0.081
			c-0.0034,0.0313-0.0014,0.0624,0.0058,0.0933c0.0093,0.0398,0.0234,0.0733,0.0424,0.1004
			c0.019,0.0271,0.0429,0.0453,0.0717,0.0544c0.0288,0.0092,0.058,0.0106,0.0876,0.0041c0.036-0.0078,0.0641-0.0244,0.0844-0.0499
			c0.0203-0.0254,0.0302-0.0588,0.0299-0.1002L33.5206,36.3829z M33.7036,36.5135l-0.1339-0.4626l0.3467-0.0934l0.0158,0.0546
			l-0.2832,0.0763l0.041,0.1417l0.2652-0.0714l0.0157,0.0543l-0.2652,0.0714l0.0456,0.1574l0.2943-0.0793l0.0158,0.0546
			L33.7036,36.5135L33.7036,36.5135z"/>
	</g>
</g>
</svg>
