<?xml version="1.0" encoding="utf-8"?>
<!-- Generator: Adobe Illustrator 21.1.0, SVG Export Plug-In . SVG Version: 6.00 Build 0)  -->
<svg version="1.1" id="Layer_1" xmlns="http://www.w3.org/2000/svg" xmlns:xlink="http://www.w3.org/1999/xlink" x="0px" y="0px"
	 viewBox="0 0 60 60" style="enable-background:new 0 0 60 60;" xml:space="preserve">
<style type="text/css">
	.st0{fill:#FFFFFF;}
	.st1{fill:#0148C8;}
</style>
<g>
	<g>
		<polygon class="st0" points="36.3384,27.7499 37.5406,25.6659 35.139,25.6659 		"/>
		<polygon class="st0" points="35.1336,34.3288 37.5406,34.3288 36.3384,32.2495 		"/>
		<polygon class="st0" points="27.4597,25.6659 24.9603,30 27.4597,34.3288 32.5377,34.3288 35.0399,30 32.5377,25.6659 		"/>
		<path class="st0" d="M12.1449,54.1078C17.1323,57.81,23.3099,60,30.0001,60c6.6881,0,12.8658-2.19,17.854-5.8922H12.1449z"/>
		<path class="st0" d="M60,30c0-5.5108-1.4923-10.6705-4.0862-15.1092H4.0836C1.4923,19.3295,0,24.4892,0,30
			s1.4923,10.6692,4.0836,15.1072h51.8303C58.5065,40.6692,60,35.5108,60,30z M30.0001,43.233l-3.8423-6.6541h-5.6489h-1.9467
			L22.361,30l-2.8265-4.8964l-0.9723-1.6839h7.5955l3.8423-6.6553l3.8396,6.6553h7.5929l-3.7962,6.5775l3.8008,6.5816h-7.5976
			L30.0001,43.233z"/>
		<polygon class="st0" points="30.0001,21.2648 28.7563,23.4197 31.2418,23.4197 		"/>
		<path class="st0" d="M30.0001,0c-6.6902,0-12.8678,2.1919-17.8552,5.8915H47.854C42.8658,2.1919,36.6882,0,30.0001,0z"/>
		<polygon class="st0" points="23.6611,27.7472 24.8598,25.6659 22.4596,25.6659 		"/>
		<polygon class="st0" points="22.4596,34.3288 24.8598,34.3288 23.6611,32.2495 		"/>
		<polygon class="st0" points="30.0001,38.7299 31.2418,36.5789 28.7563,36.5789 		"/>
		<path class="st1" d="M47.854,5.8915H12.1449c-3.2593,2.4177-6.004,5.4827-8.0613,8.9993h51.8303
			C53.8593,11.3741,51.1134,8.3091,47.854,5.8915z"/>
		<path class="st1" d="M55.9138,45.1072H4.0836c2.0573,3.5173,4.802,6.5816,8.0613,9.0007H47.854
			C51.1099,51.6888,53.8593,48.6245,55.9138,45.1072z"/>
		<path class="st1" d="M37.6364,29.9973l3.7962-6.5775h-7.5929l-3.8396-6.6553l-3.8423,6.6553h-7.5955l0.9723,1.6839L22.361,30
			l-3.7988,6.5789h1.9467h5.6489l3.8423,6.6541l3.8396-6.6541h7.5976L37.6364,29.9973z M30.0001,21.2648l1.2417,2.155h-2.4855
			L30.0001,21.2648z M22.4596,34.3288l1.2015-2.0792l1.1988,2.0792H22.4596z M23.6611,27.7472l-1.2015-2.0813h2.4002
			L23.6611,27.7472z M30.0001,38.7299l-1.2438-2.151h2.4855L30.0001,38.7299z M32.5377,34.3288h-5.078L24.9603,30l2.4995-4.3341
			h5.078L35.0399,30L32.5377,34.3288z M35.1336,34.3288l1.2048-2.0792l1.2022,2.0792H35.1336z M36.3384,27.7499l-1.1994-2.084
			h2.4016L36.3384,27.7499z"/>
	</g>
</g>
</svg>
