<?xml version="1.0" encoding="utf-8"?>
<!-- Generator: Adobe Illustrator 22.0.0, SVG Export Plug-In . SVG Version: 6.00 Build 0)  -->
<svg version="1.1" id="Layer_1" xmlns="http://www.w3.org/2000/svg" xmlns:xlink="http://www.w3.org/1999/xlink" x="0px" y="0px"
	 viewBox="0 0 60 60" style="enable-background:new 0 0 60 60;" xml:space="preserve">
<style type="text/css">
	.st0{fill:#CF142B;}
	.st1{fill:#FFF200;}
	.st2{fill:#FFFFFF;}
</style>
<g>
	<defs>
		<circle id="SVGID_1_" cx="30" cy="30" r="30"/>
	</defs>
	<clipPath id="SVGID_2_">
		<use xlink:href="#SVGID_1_"  style="overflow:visible;"/>
	</clipPath>
</g>
<circle class="st0" cx="30" cy="30" r="30"/>
<g>
	<g>
		<g>
			<polygon class="st1" points="33.751,37.2978 32.9615,38.0103 33.2516,39.0334 32.4735,38.4506 31.684,39.1629 31.9927,38.0905 
				31.2147,37.5075 32.1837,37.4273 32.4922,36.3546 32.7823,37.3778 			"/>
			<path d="M31.5537,39.3714l0.3612-1.2547l-0.8831-0.6618l1.0997-0.091l0.3611-1.2552l0.3395,1.1973l1.1124-0.0919l-0.9066,0.8183
				l0.3332,1.1749l-0.8937-0.6694L31.5537,39.3714z M31.3976,37.5601l0.6729,0.5043l-0.2562,0.8899l0.6552-0.5911l0.6626,0.4963
				l-0.247-0.8712l0.6723-0.6068l-0.8249,0.0681l-0.2408-0.8492l-0.256,0.8903L31.3976,37.5601z"/>
		</g>
		<g>
			<path class="st1" d="M30.9136,41.024c-0.086,0.1764-0.1474,0.356-0.2088,0.5527c-0.1198,0.0521-0.2365,0.1166-0.3548,0.1567
				c-0.2563,0.0874-0.5081,0.178-0.7568,0.284c-0.2289,0.0968-0.4592,0.1965-0.691,0.2809
				c0.0782-0.2886,0.1627-0.6034,0.2394-0.9397c0.2887-0.0966,0.6266-0.1781,0.886-0.2316
				C30.3193,41.0669,30.6235,41.09,30.9136,41.024z"/>
			<path d="M28.7895,42.421l0.0387-0.1428c0.0837-0.3087,0.1648-0.6126,0.2387-0.9368l0.0096-0.042l0.0409-0.0137
				c0.3344-0.1119,0.7042-0.1947,0.8949-0.234c0.146-0.03,0.2947-0.04,0.4385-0.0496c0.1552-0.0104,0.3017-0.0202,0.446-0.053
				l0.1562-0.0355l-0.0701,0.1441c-0.0816,0.1675-0.1408,0.3378-0.2045,0.542l-0.0105,0.0335l-0.0322,0.014
				c-0.0415,0.0181-0.0828,0.0378-0.1238,0.0573c-0.0768,0.0365-0.1562,0.0744-0.237,0.1017
				c-0.2227,0.0759-0.4862,0.1689-0.7513,0.2818l-0.0887,0.0376c-0.1978,0.0839-0.4023,0.1707-0.6061,0.2449L28.7895,42.421z
				 M29.2068,41.4179c-0.0601,0.2603-0.1247,0.5078-0.1913,0.7557c0.1542-0.06,0.3086-0.1255,0.4592-0.1894l0.0887-0.0375
				c0.2695-0.1149,0.5364-0.209,0.7619-0.286c0.0724-0.0245,0.1443-0.0587,0.2204-0.095c0.032-0.0152,0.064-0.0305,0.0963-0.0451
				c0.0453-0.1435,0.0892-0.2713,0.1413-0.395c-0.108,0.0154-0.2164,0.0226-0.3223,0.0297
				c-0.1387,0.0093-0.2821,0.0188-0.4177,0.0468C29.8637,41.2392,29.5226,41.3153,29.2068,41.4179z"/>
		</g>
		<g>
			<path class="st2" d="M30.35,41.7334c0.1184-0.0401,0.2351-0.1045,0.3548-0.1567c-0.0616,0.2042-0.1213,0.4253-0.1997,0.6817
				c-0.069,0.2196-0.1519,0.4637-0.264,0.7417c-0.2964,0.7323-0.7062,1.167-1.0427,1.2913
				c-0.2456,0.0922-0.4529,0.0214-0.5511-0.215c-0.0844-0.2011-0.0598-0.4897,0.0185-0.8568
				c0.0568-0.2672,0.1427-0.5758,0.2365-0.9213c0.2318-0.0844,0.4621-0.1842,0.691-0.2809
				C29.8419,41.9114,30.0937,41.8208,30.35,41.7334z"/>
			<path d="M29.0013,44.4072c-0.1933,0-0.3441-0.1071-0.4249-0.3014c-0.0828-0.1973-0.0785-0.4672,0.0143-0.9023
				c0.0511-0.2405,0.1236-0.5067,0.2075-0.8151l0.0405-0.1487l0.0374-0.0136c0.2001-0.0728,0.4027-0.1588,0.5987-0.2419
				l0.0887-0.0375c0.2695-0.1149,0.5364-0.209,0.7619-0.286c0.0724-0.0245,0.1443-0.0587,0.2204-0.095
				c0.0426-0.0203,0.0854-0.0406,0.1286-0.0594l0.152-0.0662l-0.0479,0.1587c-0.0269,0.0895-0.0536,0.1823-0.0816,0.2799
				c-0.0359,0.125-0.0741,0.258-0.1181,0.4021c-0.0851,0.271-0.1696,0.5085-0.2662,0.748c-0.278,0.6869-0.6845,1.1858-1.0873,1.3346
				C29.1477,44.3924,29.0723,44.4072,29.0013,44.4072z M28.966,42.3567l-0.0196,0.0721c-0.0832,0.3062-0.1552,0.5705-0.2054,0.8068
				c-0.0847,0.3967-0.0917,0.6469-0.0228,0.8111c0.0801,0.1926,0.2428,0.252,0.4534,0.1729c0.2806-0.1037,0.69-0.486,0.9985-1.2483
				c0.0951-0.2355,0.1783-0.4694,0.262-0.7359c0.0436-0.1426,0.0815-0.2747,0.1172-0.399c0.0116-0.0403,0.0229-0.0798,0.0342-0.1185
				c-0.068,0.0322-0.1378,0.0643-0.2086,0.0883c-0.2227,0.0759-0.4862,0.1689-0.7513,0.2818l-0.0887,0.0376
				C29.349,42.2043,29.1573,42.2857,28.966,42.3567z"/>
		</g>
		<g>
			<path class="st2" d="M31.606,40.0782c-0.0859,0.109-0.175,0.2149-0.264,0.3161c-0.009,0.0108-0.0184,0.0216-0.0276,0.0323
				c-0.1813,0.2072-0.3056,0.3992-0.4007,0.5974c-0.2901,0.066-0.5943,0.0429-0.886,0.103c-0.2594,0.0535-0.5974,0.135-0.886,0.2316
				c0.0601-0.2516,0.1136-0.5159,0.1598-0.7924c0.0137-0.089,0.0215-0.1795,0.0215-0.2685
				c0.0046-0.2731-0.0553-0.5466-0.1612-0.8152c-0.5176-1.3006-2.1327-2.4923-3.0876-3.0803
				c-0.2904-0.1781-0.5791-0.3883-0.8691-0.6157c-0.6834-0.5342-1.3652-1.1592-2.0468-1.6814
				c-0.2456-0.1871-0.4899-0.3607-0.7355-0.5111c-1.2162-0.7479-1.4972-1.9655-0.7018-2.7609
				c0.1322-0.1321,0.2519-0.2657,0.364-0.4036c0.5634-0.6865,0.9304-1.4496,1.6721-2.4246c0.6509-0.8583,2.1957-2.0804,2.974-2.6718
				l2.5412,1.0423l0.2232,0.9763l0.4285,1.8727c-0.6786,0.3808-2.1381,1.2694-3.4294,2.077
				c-0.1888,0.1184-0.7369,0.3502-0.9949,0.6204c-0.0062,0.0048-0.0107,0.0108-0.0153,0.0153
				c-0.08,0.0907-0.1276,0.1829-0.1199,0.278c0.0431,0.0186,0.086,0.0369,0.129,0.0585c0.4007,0.1841,0.7554,0.4252,1.1439,0.6417
				c0.2456,0.1367,0.496,0.2718,0.737,0.4192c0.2165,0.1337,0.4252,0.2778,0.6172,0.4468c0.5023,0.4452,0.9167,1.1685,1.3297,1.9039
				c0.5867,1.0472,1.1685,2.1189,1.9931,2.4491C32.5091,38.6118,32.1434,39.3932,31.606,40.0782z"/>
			<path d="M29.0348,41.4753l0.0321-0.1346c0.0603-0.2521,0.1136-0.517,0.1588-0.7872c0.0135-0.0879,0.0204-0.1742,0.0204-0.2559
				c0.0042-0.2498-0.0483-0.5141-0.1559-0.787c-0.5679-1.4271-2.4831-2.69-3.0564-3.0431c-0.2645-0.1622-0.543-0.3594-0.8763-0.6206
				c-0.3244-0.2536-0.6533-0.5316-0.9713-0.8005c-0.3526-0.2981-0.7172-0.6064-1.0749-0.8805
				c-0.2711-0.2065-0.5095-0.3722-0.7288-0.5066c-0.6761-0.4158-1.1048-1.0024-1.1761-1.6094
				c-0.0551-0.468,0.1084-0.9195,0.4601-1.2712c0.1268-0.1268,0.2442-0.257,0.3587-0.3978
				c0.2827-0.3444,0.5213-0.7175,0.7739-1.1124c0.2479-0.3874,0.5287-0.8265,0.8967-1.3103
				c0.6471-0.8534,2.1502-2.0495,2.9886-2.6865l0.035-0.0265l2.6186,1.074l0.6735,2.9438l-0.0501,0.0281
				c-0.726,0.4074-2.244,1.3358-3.4262,2.0752c-0.0553,0.0346-0.1377,0.0774-0.2331,0.1269
				c-0.2405,0.1248-0.5698,0.2958-0.747,0.4814l-0.0175,0.0175c-0.054,0.0617-0.086,0.1194-0.0947,0.1731
				c0.0291,0.0127,0.057,0.0255,0.085,0.0395c0.2633,0.1209,0.5127,0.2699,0.7539,0.414c0.1275,0.0761,0.2594,0.1548,0.3929,0.2293
				l0.1435,0.0796c0.197,0.1089,0.4006,0.2216,0.5962,0.3412c0.2543,0.1571,0.4538,0.3015,0.6278,0.4547
				c0.5288,0.4687,0.9629,1.2419,1.3459,1.924l0.0484,0.0863c0.5553,0.9921,1.1296,2.018,1.9064,2.3291
				c0.4602,0.184,0.7351,0.432,0.8172,0.7372c0.125,0.4648-0.2219,0.979-0.4937,1.3254c-0.0809,0.1026-0.1706,0.2101-0.2668,0.3195
				l-0.0269,0.0315c-0.1681,0.1922-0.2919,0.3765-0.3899,0.5807l-0.016,0.0334l-0.0362,0.0082
				c-0.1559,0.0355-0.3154,0.0461-0.4697,0.0565c-0.1387,0.0093-0.2821,0.0188-0.4177,0.0468
				c-0.1874,0.0387-0.5504,0.1198-0.8772,0.2292L29.0348,41.4753z M26.7425,25.4208c-0.8383,0.6385-2.297,1.8033-2.9243,2.6305
				c-0.3643,0.4789-0.6433,0.9152-0.8896,1.3001c-0.2552,0.3989-0.4961,0.7756-0.7843,1.1268
				c-0.1176,0.1447-0.2385,0.2786-0.3691,0.4092c-0.3224,0.3224-0.4663,0.7182-0.4162,1.1447
				c0.0658,0.5601,0.4682,1.1056,1.1039,1.4965c0.2236,0.137,0.4663,0.3057,0.7418,0.5154
				c0.3608,0.2764,0.7268,0.5859,1.0807,0.8852c0.3169,0.2679,0.6447,0.545,0.9668,0.7968c0.3286,0.2576,0.6025,0.4516,0.862,0.6107
				c0.5837,0.3594,2.5334,1.6461,3.1189,3.1173c0.1151,0.292,0.1712,0.5762,0.1667,0.8449c0,0.0882-0.0076,0.1824-0.0224,0.2789
				c-0.038,0.2277-0.0817,0.4511-0.1303,0.6663c0.2965-0.0908,0.5989-0.1581,0.7652-0.1924c0.146-0.03,0.2947-0.04,0.4385-0.0496
				c0.1424-0.0095,0.2777-0.0186,0.4104-0.0454c0.1014-0.2035,0.2278-0.389,0.3955-0.5807l0.0264-0.0309
				c0.0957-0.1088,0.1837-0.214,0.2626-0.3144c0.2514-0.3203,0.5732-0.7924,0.4662-1.1906c-0.0688-0.256-0.313-0.4695-0.7259-0.6346
				c-0.8272-0.3313-1.4149-1.3813-1.9833-2.3967l-0.0483-0.0861c-0.377-0.6715-0.8044-1.4326-1.3136-1.884
				c-0.1672-0.1472-0.36-0.2867-0.6066-0.4389c-0.1925-0.1178-0.3947-0.2296-0.5902-0.3378l-0.1438-0.0797
				c-0.1356-0.0756-0.2685-0.1549-0.397-0.2317c-0.2487-0.1484-0.4835-0.2887-0.7416-0.4073
				c-0.0428-0.0213-0.0831-0.0387-0.1236-0.0562l-0.0424-0.0182l-0.0074-0.0476c-0.0089-0.1094,0.0365-0.219,0.1388-0.335
				l0.0058-0.0062c0.0044-0.0049,0.0092-0.0099,0.0145-0.0145c0.1954-0.2027,0.5356-0.3793,0.7844-0.5084
				c0.0924-0.048,0.1722-0.0894,0.2223-0.1208c1.1574-0.7238,2.6365-1.6288,3.3825-2.0507l-0.63-2.7544L26.7425,25.4208z"/>
		</g>
		<g>
			<path d="M24.5801,31.8717c-0.0081-0.0941,0.0268-0.1994,0.1099-0.3316c0.0369-0.0581,0.0791-0.1145,0.1163-0.1643
				c0.0161-0.0217,0.0317-0.0424,0.0461-0.0623c0.0053-0.0089,0.0136-0.0209,0.0212-0.0321l0.008-0.0118
				c0.1801-0.2774,0.3699-0.5395,0.5993-0.8532c0.4155-0.5694,0.8745-1.0441,1.403-1.4512c0.1124-0.0866,0.223-0.174,0.3333-0.2611
				c0.3178-0.2512,0.6464-0.511,1.0023-0.7363c0.4041-0.2561,0.7866-0.4701,1.1368-0.6358
				c0.1771-0.0844,0.3458-0.1575,0.5012-0.2171l0.055,0.1433c-0.1517,0.0582-0.3167,0.1296-0.4904,0.2124
				c-0.3447,0.1631-0.7216,0.374-1.1204,0.6268c-0.3492,0.221-0.6601,0.4668-0.9893,0.727
				c-0.1107,0.0875-0.2218,0.1753-0.3346,0.2623c-0.5169,0.398-0.9659,0.8626-1.3728,1.4201
				c-0.2279,0.3118-0.4164,0.5722-0.5951,0.8472l-0.0093,0.0138c-0.0066,0.0097-0.0137,0.0201-0.0208,0.0313
				c-0.0176,0.0246-0.0337,0.0461-0.0504,0.0686c-0.0373,0.0498-0.0759,0.1015-0.1094,0.1543
				c-0.0634,0.1007-0.0918,0.1781-0.0867,0.2363L24.5801,31.8717z"/>
		</g>
		<g>
			<path class="st2" d="M25.3401,31.6593c-0.2058-0.0185-0.3977-0.043-0.5851-0.0783c-0.0353-0.0046-0.0708-0.0121-0.1046-0.0199
				c-0.2933-0.0599-0.5726-0.152-0.8628-0.2963c-0.5419-0.2672-1.1777-0.5021-1.7027-0.8351"/>
			<path d="M25.3332,31.7357c-0.2201-0.0197-0.4139-0.0457-0.5924-0.0793c-0.0335-0.0043-0.0714-0.0122-0.1076-0.0206
				c-0.3138-0.064-0.5939-0.1602-0.8797-0.3024c-0.1797-0.0886-0.3667-0.1722-0.5647-0.2608
				c-0.3887-0.1738-0.7908-0.3536-1.145-0.5782l0.0823-0.1297c0.3447,0.2187,0.7416,0.3962,1.1254,0.5678
				c0.1993,0.0892,0.3875,0.1733,0.57,0.2633c0.2739,0.1362,0.542,0.2283,0.8442,0.29c0.0333,0.0076,0.0663,0.0148,0.0992,0.019
				c0.1778,0.0333,0.3668,0.0586,0.582,0.078L25.3332,31.7357z"/>
		</g>
		<g>
			<path class="st2" d="M24.9883,32.6114c-0.0276,0.0229-0.0553,0.0475-0.0814,0.0751c-0.109,0.0984-0.2118,0.2073-0.3132,0.3177
				c-0.1873,0.2059-0.3716,0.4177-0.5802,0.602c-0.2489,0.2195-0.5576,0.3578-0.8553,0.4989"/>
			<path d="M23.1911,34.1745l-0.0658-0.1388l0.0618-0.0292c0.2714-0.1282,0.5521-0.2607,0.7756-0.4579
				c0.1753-0.1548,0.3369-0.3336,0.4931-0.5065l0.0811-0.0896c0.0993-0.1081,0.2063-0.2218,0.3186-0.3231
				c0.0204-0.0219,0.0484-0.0479,0.0838-0.0772l0.098,0.1181c-0.0305,0.0254-0.0543,0.0473-0.0747,0.0689
				c-0.1059,0.0958-0.201,0.1955-0.3124,0.3168l-0.0805,0.0889c-0.1591,0.1761-0.3236,0.3582-0.5054,0.5187
				c-0.2399,0.2117-0.5306,0.3489-0.8117,0.4816L23.1911,34.1745z"/>
		</g>
		<g>
			<path class="st2" d="M27.3744,33.3344c-0.0293,0.192-0.0659,0.3807-0.1488,0.5665c-0.0952,0.209-0.2166,0.344-0.3777,0.453
				c-0.0892,0.06-0.1905,0.1121-0.3057,0.1644c-0.5236,0.2365-1.041,0.7154-1.3373,1.2682"/>
			<path d="M25.2726,35.8228l-0.1353-0.0726c0.2973-0.5548,0.8235-1.0536,1.3733-1.3019c0.126-0.0571,0.2169-0.1059,0.2945-0.1581
				c0.1587-0.1074,0.2669-0.2374,0.3507-0.4212c0.0749-0.1678,0.1113-0.3398,0.1429-0.5462l0.1517,0.0232
				c-0.0333,0.2187-0.0724,0.4021-0.1546,0.5862c-0.0964,0.2116-0.2211,0.3611-0.4048,0.4853
				c-0.0851,0.0573-0.1828,0.1099-0.3171,0.1708C26.0533,34.8233,25.5547,35.2964,25.2726,35.8228z"/>
		</g>
		<g>
			<path class="st2" d="M29.3213,35.6852c-0.3346,0.3009-0.7217,0.4928-1.2038,0.4714c-0.0138,0-0.029,0-0.0429-0.0015"/>
			<path d="M28.1903,36.235c-0.0253,0-0.0506-0.0006-0.0761-0.0017c-0.0137,0.0002-0.0311,0-0.0476-0.0018l0.0161-0.1527
				c0.0113,0.0012,0.0236,0.001,0.0349,0.0011c0.4172,0.0167,0.7938-0.1294,1.1525-0.4517l0.1026,0.1141
				C29.0045,36.0732,28.6169,36.235,28.1903,36.235z"/>
		</g>
		<g>
			<path d="M30.5877,39.4511c-0.002-0.0654,0.0404-0.1351,0.0893-0.2158c0.0423-0.0698,0.0903-0.1488,0.0975-0.2101
				c0.0194-0.1633-0.03-0.273-0.1822-0.4047c-0.2572-0.2223-0.53-0.3713-0.819-0.5291c-0.1014-0.0554-0.2041-0.1115-0.3077-0.1717
				c-0.564-0.3275-0.9238-0.6609-1.1323-1.0495c-0.1418-0.2645-0.2397-0.5466-0.3345-0.8195
				c-0.073-0.2102-0.1485-0.4275-0.2426-0.6311c-0.1948-0.4213-0.6662-0.7836-1.082-1.1033
				c-0.1377-0.1058-0.2677-0.2057-0.3847-0.3048c-0.1049-0.0888-0.2681-0.1857-0.441-0.2882
				c-0.4554-0.2702-1.0222-0.6063-1.0208-1.0918l0.1535,0.0005c-0.0012,0.3976,0.5238,0.709,0.9456,0.9592
				c0.1786,0.1059,0.3472,0.2059,0.4619,0.303c0.1143,0.0968,0.2429,0.1956,0.3791,0.3003c0.4298,0.3305,0.9171,0.705,1.1278,1.1606
				c0.0973,0.2106,0.174,0.4315,0.2482,0.6452c0.0928,0.2672,0.1887,0.5435,0.3248,0.7972
				c0.1945,0.3624,0.5358,0.6768,1.0741,0.9892c0.1025,0.0595,0.2039,0.1149,0.3043,0.1697
				c0.2963,0.1619,0.5762,0.3148,0.8458,0.5479c0.1337,0.1157,0.2662,0.2702,0.2343,0.5389
				c-0.0112,0.0943-0.0684,0.1885-0.1188,0.2716c-0.0265,0.0438-0.0667,0.1098-0.0671,0.1318L30.5877,39.4511z"/>
		</g>
		<g>
			<path class="st2" d="M30.6433,39.4487c0.02,0.1581,0.255,0.2625,0.3731,0.3315c0.1691,0.0984,0.3809,0.2534,0.5897,0.298"/>
			<path d="M31.5899,40.1532c-0.1763-0.0377-0.3472-0.1438-0.498-0.2373c-0.0397-0.0246-0.0779-0.0484-0.1141-0.0695
				c-0.0167-0.0097-0.0355-0.02-0.0557-0.0312c-0.1405-0.0772-0.3328-0.1828-0.3549-0.357l0.1524-0.0194
				c0.0122,0.0966,0.1713,0.184,0.2765,0.2418c0.0215,0.0119,0.0415,0.0229,0.0591,0.0332
				c0.0373,0.0217,0.0768,0.0461,0.1177,0.0716c0.1401,0.0869,0.299,0.1855,0.4493,0.2177L31.5899,40.1532z"/>
		</g>
		<g>
			<path class="st2" d="M29.1617,39.4825c0.4606,0.0796,1.0826-0.0739,1.4618-0.0754"/>
			<path d="M29.4629,39.5822c-0.1089,0-0.2149-0.0068-0.3143-0.0241l0.0261-0.1512c0.2816,0.0487,0.6354,0.0057,0.9475-0.0323
				c0.1841-0.0224,0.3582-0.0436,0.5009-0.0442l0.0007,0.1535c-0.1337,0.0005-0.3034,0.0212-0.4831,0.043
				C29.9237,39.5533,29.6871,39.5822,29.4629,39.5822z"/>
		</g>
		<g>
			<path class="st2" d="M29.3229,40.2977c0.089,0,0.1797-0.0046,0.2688,0c0.2547,0.0139,0.502,0.0431,0.7583,0.0416
				c0.2057,0,0.3947,0.046,0.599,0.0629c0.1304,0.0106,0.2609,0.003,0.3929-0.0079"/>
			<path d="M31.081,40.484c-0.0465,0-0.0921-0.0016-0.1382-0.0053c-0.0825-0.0068-0.1626-0.0182-0.24-0.0293
				c-0.1263-0.0181-0.2454-0.0328-0.3718-0.0332c-0.1663,0-0.3307-0.0124-0.49-0.0245c-0.0841-0.0063-0.1684-0.0127-0.2535-0.0173
				c-0.0565-0.003-0.1163-0.002-0.1741-0.0009c-0.0303,0.0005-0.0605,0.001-0.0906,0.001v-0.1535
				c0.0291,0,0.0585-0.0005,0.0879-0.001c0.0603-0.0012,0.1227-0.0021,0.1848,0.0011c0.0865,0.0047,0.1718,0.0112,0.257,0.0176
				c0.1621,0.0122,0.3282,0.0228,0.497,0.024c0.1309,0,0.2549,0.0177,0.3749,0.0348c0.0752,0.0107,0.153,0.0219,0.2309,0.0283
				c0.1186,0.0096,0.2378,0.0039,0.3803-0.0079l0.0126,0.153C31.2517,40.4788,31.165,40.484,31.081,40.484z"/>
		</g>
		<g>
			<path class="st2" d="M28.6658,43.2196c0.2072-0.1166,0.4038-0.2564,0.6141-0.3685c0.3885-0.2073,0.8246-0.3823,1.2253-0.5927"/>
			<path d="M28.7034,43.2865l-0.0753-0.1338c0.0919-0.0517,0.1841-0.1095,0.2731-0.1654c0.1105-0.0694,0.2248-0.1411,0.3426-0.2039
				c0.2007-0.1071,0.4172-0.2071,0.6267-0.3039c0.1992-0.092,0.4052-0.1873,0.599-0.2891l0.0714,0.136
				c-0.1974,0.1036-0.4052,0.1997-0.6061,0.2924c-0.2074,0.0959-0.4219,0.1949-0.6188,0.3
				c-0.1131,0.0603-0.225,0.1305-0.3332,0.1984C28.8922,43.1741,28.7986,43.2329,28.7034,43.2865z"/>
		</g>
		<g>
			<path class="st1" d="M24.7046,33.0915c-0.302-0.1927-0.2793-0.4755-0.6435-0.5732c-0.3796-0.1016-0.7683,0.0646-1.1126,0.152
				c-0.2657,0.0672-0.7338,0.2583-0.9581,0.0008c-0.2801-0.3215-0.0171-0.7511,0.3642-0.7506
				c0.5447,0.0009,1.0509,0.2477,1.6053,0.1558c0.2456-0.0406,0.4668-0.2722,0.6291-0.4503
				c0.3082-0.338,0.5826-0.4694,0.8407,0.0137C25.6452,32.0428,25.3992,33.5344,24.7046,33.0915z"/>
			<path d="M24.9477,33.2496c-0.0915,0-0.1872-0.0314-0.2844-0.0934c-0.1422-0.0907-0.2191-0.2-0.2869-0.2964
				c-0.086-0.1222-0.1539-0.2188-0.3351-0.2674c-0.0735-0.0196-0.1498-0.0292-0.233-0.0292c-0.2099,0-0.4223,0.062-0.6278,0.1219
				c-0.0725,0.0212-0.1437,0.042-0.2131,0.0595c-0.0385,0.0098-0.0813,0.0222-0.1269,0.0353
				c-0.1517,0.0439-0.3406,0.0985-0.515,0.0985c-0.17,0-0.3022-0.0528-0.3929-0.157c-0.1407-0.1614-0.1744-0.3683-0.0902-0.5534
				c0.0897-0.197,0.2905-0.3244,0.5116-0.3244c0.2378,0.0004,0.4677,0.0458,0.6901,0.0898c0.225,0.0445,0.4374,0.0864,0.6583,0.0864
				c0.086,0,0.1662-0.0063,0.2452-0.0195c0.2133-0.0352,0.4138-0.2385,0.585-0.4263c0.2066-0.2266,0.3686-0.3277,0.5252-0.3277
				c0.1677,0,0.3117,0.1168,0.44,0.3569c0.1569,0.2936,0.0893,0.9939-0.1316,1.3625C25.2547,33.1515,25.11,33.2496,24.9477,33.2496z
				 M23.8082,32.4097c0.0969,0,0.186,0.0112,0.2727,0.0345c0.235,0.0631,0.3296,0.1974,0.421,0.3273
				c0.0654,0.093,0.1273,0.1809,0.2439,0.2553c0.1968,0.1255,0.3571,0.0792,0.4883-0.1398
				c0.2072-0.3456,0.2484-0.9856,0.1278-1.2111c-0.0991-0.1856-0.1988-0.2758-0.3045-0.2758c-0.1082,0-0.2391,0.0882-0.4117,0.2776
				c-0.1885,0.2068-0.4116,0.4311-0.6734,0.4744c-0.0874,0.0145-0.1757,0.0215-0.2702,0.0215c-0.2359,0-0.4658-0.0455-0.6881-0.0894
				c-0.2152-0.0426-0.4377-0.0865-0.6597-0.0869c-0.1617,0-0.3076,0.092-0.3723,0.2345c-0.0594,0.1306-0.0354,0.2723,0.0662,0.3889
				c0.0612,0.0701,0.1518,0.1043,0.2772,0.1043c0.1527-0.0001,0.33-0.0513,0.4724-0.0924c0.0475-0.0137,0.0919-0.0266,0.1319-0.0367
				c0.0677-0.0172,0.137-0.0374,0.2078-0.058C23.3532,32.4748,23.5764,32.4097,23.8082,32.4097z"/>
		</g>
	</g>
	<g>
		<g>
			<polygon class="st1" points="37.37,16.9136 38.3818,17.2408 39.1228,16.4782 39.0069,17.4435 40.0185,17.771 38.9354,18.04 
				38.8197,19.005 38.2657,18.206 37.1826,18.4752 37.9235,17.7123 			"/>
			<path d="M38.8656,19.1896l-0.6288-0.9068l-1.2673,0.3149l0.8668-0.8927l-0.6356-0.9172l1.162,0.3757l0.8511-0.8758
				l-0.1332,1.1085l1.1837,0.3832l-1.2674,0.3148L38.8656,19.1896z M38.2946,18.1293l0.4792,0.691l0.1001-0.8347l0.8989-0.2232
				l-0.8396-0.2718l0.0987-0.822L38.401,17.318l-0.8617-0.2787l0.4713,0.6802l-0.6149,0.6331L38.2946,18.1293z"/>
		</g>
		<g>
			<path class="st1" d="M42.0156,17.5075c0.1959-0.0136,0.3821-0.0502,0.5829-0.0955c0.1052,0.0777,0.2194,0.1465,0.3131,0.2288
				c0.2039,0.1785,0.4082,0.3512,0.6245,0.5138c0.1982,0.1496,0.3997,0.2991,0.5889,0.4576
				c-0.2891,0.0767-0.604,0.1611-0.9336,0.2625c-0.2282-0.2017-0.4676-0.4534-0.6438-0.6514
				C42.3498,18.001,42.2177,17.7259,42.0156,17.5075z"/>
			<path d="M43.1728,18.9608l-0.0323-0.0285c-0.2649-0.2341-0.5211-0.5127-0.6503-0.6579c-0.099-0.1114-0.1821-0.2354-0.2624-0.3553
				c-0.0864-0.1291-0.1682-0.2511-0.2685-0.3595l-0.1089-0.1176l0.1598-0.0112c0.1861-0.013,0.3631-0.0469,0.5714-0.0938
				l0.0342-0.0077l0.0282,0.0209c0.0366,0.0271,0.0744,0.053,0.112,0.0789c0.07,0.0481,0.1423,0.0979,0.2062,0.1539
				c0.1765,0.1545,0.3883,0.336,0.6199,0.5102l0.0732,0.0552c0.1727,0.13,0.3513,0.2646,0.5188,0.4049l0.1135,0.0951l-0.1431,0.038
				c-0.3069,0.0814-0.609,0.1626-0.9308,0.2617L43.1728,18.9608z M42.1688,17.5697c0.0672,0.0858,0.1276,0.1759,0.1866,0.264
				c0.0774,0.1156,0.1575,0.2351,0.2496,0.3387c0.1217,0.1367,0.3579,0.3937,0.6052,0.6163
				c0.2583-0.0786,0.5039-0.1462,0.7501-0.2121c-0.1303-0.1044-0.2655-0.2063-0.3972-0.3055l-0.0732-0.0553
				c-0.2355-0.177-0.4501-0.3608-0.6288-0.5172c-0.0571-0.0502-0.1227-0.0952-0.192-0.1429
				c-0.0293-0.0202-0.0588-0.0404-0.0877-0.0612C42.4346,17.5271,42.3019,17.553,42.1688,17.5697z"/>
		</g>
		<g>
			<path class="st2" d="M42.9116,17.6409c-0.0938-0.0823-0.208-0.1511-0.3131-0.2288c0.2076-0.049,0.4291-0.1077,0.6904-0.1679
				c0.2246-0.0501,0.4774-0.1002,0.7745-0.1423c0.7821-0.1094,1.3635,0.0283,1.6394,0.2574
				c0.2028,0.1668,0.2452,0.3814,0.0893,0.5848c-0.1318,0.1737-0.3941,0.2966-0.7511,0.4123
				c-0.2598,0.0847-0.57,0.1645-0.916,0.2559c-0.1892-0.1585-0.3907-0.308-0.5889-0.4576
				C43.3198,17.9921,43.1156,17.8194,42.9116,17.6409z"/>
			<path d="M44.1062,18.6967l-0.0305-0.0255c-0.1645-0.1378-0.3415-0.2711-0.5126-0.4l-0.0732-0.0553
				c-0.2355-0.177-0.4501-0.3608-0.6288-0.5172c-0.0571-0.0502-0.1227-0.0952-0.192-0.1429
				c-0.039-0.0268-0.0782-0.0539-0.1163-0.0819l-0.1331-0.0984l0.1611-0.038c0.0878-0.0208,0.1781-0.0432,0.2728-0.0667
				c0.1294-0.0323,0.2671-0.0665,0.418-0.1012c0.2754-0.0614,0.5235-0.107,0.7809-0.1435c0.724-0.1012,1.3772,0.0069,1.6992,0.2744
				c0.2384,0.1961,0.2773,0.4608,0.1012,0.6906c-0.1292,0.1702-0.3651,0.3015-0.7883,0.4387
				c-0.2334,0.076-0.4997,0.1462-0.808,0.2275L44.1062,18.6967z M42.7815,17.4467c0.0619,0.0427,0.1246,0.0871,0.1808,0.1365
				c0.1765,0.1545,0.3883,0.336,0.6199,0.5102l0.0732,0.0552c0.1622,0.1222,0.3296,0.2483,0.4883,0.3795l0.0737-0.0195
				c0.3061-0.0807,0.5704-0.1504,0.7997-0.2251c0.386-0.1251,0.6062-0.2441,0.7137-0.3857c0.17-0.222,0.0248-0.3955-0.0769-0.4791
				c-0.2883-0.2395-0.8994-0.3359-1.58-0.2406c-0.2532,0.0359-0.4975,0.0808-0.7684,0.1412
				c-0.1494,0.0344-0.2862,0.0685-0.4148,0.1004C42.8537,17.4288,42.8173,17.4378,42.7815,17.4467z"/>
		</g>
		<g>
			<path class="st2" d="M40.8502,17.3808c0.1374,0.0199,0.2736,0.0442,0.4059,0.0706c0.014,0.0026,0.0281,0.0054,0.0417,0.008
				c0.2703,0.0531,0.4985,0.0647,0.7177,0.0481c0.2021,0.2184,0.3342,0.4934,0.532,0.7158c0.1762,0.198,0.4156,0.4497,0.6438,0.6514
				c-0.248,0.0739-0.5037,0.1598-0.7661,0.2579c-0.0839,0.0325-0.1662,0.0711-0.2435,0.1156
				c-0.2388,0.1327-0.4455,0.3213-0.6253,0.5474c-0.8675,1.0983-1.0919,3.0929-1.1236,4.2141
				c-0.009,0.3404-0.0468,0.6957-0.0987,1.0607c-0.121,0.8586-0.3212,1.7616-0.4328,2.6129
				c-0.0392,0.3063-0.0673,0.6047-0.075,0.8926c-0.0394,1.4269-0.9534,2.2793-2.0397,1.988
				c-0.1806-0.0483-0.3562-0.0852-0.5317-0.1131c-0.8764-0.1448-1.7205-0.0813-2.9358-0.2359
				c-1.0687-0.1346-2.8996-0.8614-3.8008-1.2397l-0.3681-2.7218l0.7337-0.6815l1.4079-1.3075
				c0.669,0.3975,2.1684,1.2169,3.5134,1.9313c0.197,0.1044,0.6718,0.4634,1.0346,0.5517c0.0071,0.003,0.0148,0.0038,0.021,0.0055
				c0.1184,0.0238,0.2218,0.019,0.3006-0.0352c-0.0056-0.0466-0.011-0.0929-0.014-0.1409
				c-0.0408-0.4392-0.0095-0.8669-0.0163-1.3116c-0.0044-0.2812-0.0123-0.5653-0.0053-0.8478
				c0.0072-0.2542,0.0279-0.5073,0.0783-0.758c0.1345-0.6575,0.5534-1.3781,0.9837-2.1036
				c0.6138-1.0315,1.2509-2.0714,1.1245-2.9505C39.1288,17.332,39.9883,17.2579,40.8502,17.3808z"/>
			<path d="M38.2049,30.6977c-0.1436,0-0.291-0.02-0.4383-0.0595c-0.175-0.0468-0.3465-0.0832-0.5239-0.1115
				c-0.4402-0.0727-0.8831-0.0928-1.352-0.1143c-0.4589-0.0209-0.9791-0.0446-1.5814-0.1212
				c-1.063-0.134-2.8501-0.8376-3.8208-1.2451l-0.0405-0.017l-0.3794-2.8047l2.2128-2.0552l0.0494,0.0293
				c0.7112,0.4227,2.2755,1.2737,3.5102,1.9295c0.0576,0.0305,0.136,0.0806,0.2266,0.1386c0.2282,0.1459,0.541,0.3456,0.7901,0.4063
				l0.0233,0.0062c0.0346,0.0067,0.0712,0.0108,0.1034,0.0108l0,0c0.0363,0,0.0676-0.005,0.0946-0.0152
				c-0.0034-0.0307-0.0064-0.0615-0.0083-0.093c-0.0269-0.2889-0.0227-0.5795-0.0186-0.8606
				c0.0022-0.1484,0.0044-0.3018,0.0021-0.4546L37.0518,25.11c-0.0041-0.2274-0.0083-0.4626-0.0025-0.6944
				c0.0085-0.2975,0.0338-0.5425,0.0798-0.7712c0.1417-0.6927,0.594-1.4551,0.993-2.1276l0.0493-0.0828
				c0.5823-0.9777,1.1844-1.9888,1.0652-2.8176c-0.0667-0.4628-0.0016-0.8117,0.1934-1.0369
				c0.185-0.2136,0.4792-0.3175,0.8997-0.3175c0.1553,0,0.3292,0.014,0.5315,0.0429c0.1294,0.0187,0.2635,0.042,0.4101,0.0714
				l0.0412,0.008c0.2507,0.0493,0.47,0.0639,0.6974,0.047l0.037-0.0028l0.0251,0.0272c0.1086,0.1172,0.1975,0.25,0.2835,0.3783
				c0.0774,0.1156,0.1575,0.2351,0.2496,0.3387c0.1268,0.1426,0.3784,0.4161,0.6372,0.6448l0.1036,0.0916l-0.1325,0.0395
				c-0.2478,0.0738-0.5039,0.16-0.7612,0.2562c-0.082,0.0318-0.1604,0.069-0.2321,0.1103c-0.218,0.1211-0.4207,0.2988-0.6034,0.5286
				c-0.9519,1.2052-1.088,3.4953-1.107,4.1684c-0.0083,0.3103-0.0398,0.6502-0.0994,1.0694
				c-0.0575,0.4076-0.1338,0.8314-0.2076,1.2413c-0.0819,0.4543-0.1665,0.9241-0.2251,1.3708
				c-0.0431,0.3366-0.0675,0.6261-0.0744,0.8846c-0.0345,1.2479-0.7327,2.1195-1.6979,2.1196H38.2049z M30.5885,28.9214
				c0.9719,0.4068,2.7097,1.0876,3.7402,1.2174c0.5962,0.0759,1.113,0.0994,1.5691,0.1202c0.4736,0.0216,0.9208,0.042,1.3695,0.1161
				c0.1823,0.029,0.3588,0.0666,0.539,0.1148c0.1344,0.0361,0.2686,0.0543,0.3988,0.0543c0.8773-0.0001,1.5124-0.8103,1.5444-1.9703
				c0.0071-0.2636,0.0319-0.5581,0.0756-0.9002c0.0591-0.4506,0.1441-0.9222,0.2263-1.3782
				c0.0736-0.4085,0.1497-0.8308,0.2067-1.2357c0.0588-0.4133,0.0899-0.7476,0.098-1.052c0.0194-0.6852,0.1589-3.0171,1.1401-4.2596
				c0.1956-0.2458,0.4135-0.4365,0.6483-0.5669c0.0773-0.0446,0.1629-0.0851,0.253-0.1201c0.2166-0.081,0.4318-0.1548,0.6421-0.2204
				c-0.2273-0.2115-0.4367-0.4397-0.5494-0.5663c-0.099-0.1114-0.1821-0.2354-0.2624-0.3553
				c-0.0794-0.1185-0.1548-0.2309-0.2442-0.3325c-0.2282,0.0137-0.4512-0.003-0.7005-0.0519l-0.0411-0.008
				c-0.1447-0.0289-0.2762-0.0518-0.4027-0.0701c-0.1949-0.0278-0.3616-0.0412-0.5097-0.0412c-0.3732,0-0.6296,0.0865-0.7836,0.2644
				c-0.1646,0.1901-0.2177,0.4978-0.1575,0.9146c0.1269,0.8825-0.4893,1.9173-1.0853,2.918l-0.0492,0.0827
				c-0.3928,0.6621-0.8381,1.4126-0.9745,2.0797c-0.0442,0.2197-0.0686,0.4565-0.0768,0.7448
				c-0.0057,0.2282-0.0016,0.4617,0.0025,0.6876l0.0027,0.1568c0.0024,0.1552,0.0001,0.3098-0.0021,0.4593
				c-0.0042,0.2897-0.0082,0.5634,0.0181,0.8464c0.003,0.0489,0.0084,0.0938,0.0137,0.1389l0.0056,0.0461l-0.0383,0.0264
				c-0.0602,0.0413-0.1343,0.0623-0.2204,0.0623l0,0c-0.0429,0-0.0883-0.0049-0.1389-0.0151
				c-0.0124-0.0027-0.0209-0.0048-0.0282-0.0072c-0.2732-0.0677-0.5962-0.2742-0.8324-0.4252
				c-0.0878-0.0561-0.1637-0.1046-0.2159-0.1323c-1.2085-0.6419-2.7329-1.4709-3.4672-1.9039l-2.0703,1.923L30.5885,28.9214z"/>
		</g>
		<g>
			<path d="M36.9605,27.6403c-0.0149,0-0.0303-0.0002-0.0462-0.0009c-0.0687-0.0028-0.1385-0.0111-0.2001-0.0185
				c-0.027-0.0032-0.053-0.0063-0.0776-0.0089c-0.0099-0.0001-0.0244-0.0012-0.0378-0.0021l-0.0145-0.0011
				c-0.3565-0.0186-0.7189-0.0577-1.0387-0.0923c-0.6999-0.075-1.3406-0.2351-1.9586-0.4895
				c-0.1319-0.0544-0.2635-0.1067-0.3947-0.1589c-0.3757-0.1494-0.7643-0.3039-1.1365-0.499
				c-0.4252-0.2228-0.8016-0.4472-1.1188-0.6667c-0.163-0.112-0.3107-0.2215-0.4388-0.3255l0.0967-0.1192
				c0.125,0.1014,0.2695,0.2085,0.4293,0.3183c0.3122,0.2162,0.6832,0.4373,1.1029,0.6572c0.3652,0.1913,0.7328,0.3375,1.122,0.4923
				c0.1318,0.0524,0.264,0.105,0.3965,0.1595c0.6043,0.2489,1.2313,0.4054,1.9166,0.4788c0.3178,0.0344,0.6779,0.0733,1.0312,0.0917
				l0.0168,0.0012c0.0116,0.0008,0.024,0.0017,0.0369,0.0021c0.0306,0.003,0.0576,0.0062,0.0856,0.0095
				c0.0617,0.0074,0.1255,0.015,0.1878,0.0176c0.1189,0.0039,0.1999-0.0097,0.2481-0.0433l0.0877,0.1261
				C37.1863,27.6173,37.0917,27.6403,36.9605,27.6403z"/>
		</g>
		<g>
			<path class="st2" d="M36.6923,27.0168c0.0869,0.1877,0.1616,0.3662,0.2248,0.5459c0.0135,0.0329,0.0246,0.0674,0.0348,0.1002
				c0.0947,0.284,0.1548,0.5722,0.1749,0.8956c0.0396,0.603,0.154,1.271,0.1281,1.8923"/>
			<path d="M37.3316,30.4541l-0.1534-0.0064c0.017-0.408-0.0277-0.8403-0.0709-1.2585c-0.0225-0.2172-0.0438-0.4225-0.0571-0.6256
				c-0.019-0.3049-0.0733-0.5833-0.1711-0.8764c-0.01-0.0323-0.0204-0.0646-0.0331-0.0955c-0.0599-0.17-0.1325-0.3464-0.2234-0.5427
				l0.1394-0.0645c0.0929,0.2008,0.1673,0.3816,0.2275,0.5527c0.013,0.0314,0.0249,0.0681,0.0357,0.103
				c0.1016,0.3045,0.1584,0.5953,0.1782,0.9136c0.0131,0.2,0.0342,0.4039,0.0566,0.6196
				C37.3038,29.597,37.349,30.0351,37.3316,30.4541z"/>
		</g>
		<g>
			<path class="st2" d="M37.6926,26.8454c0.0337,0.0126,0.0688,0.0241,0.1059,0.033c0.1394,0.0452,0.2854,0.0798,0.4319,0.1123
				c0.2716,0.0594,0.5475,0.113,0.8112,0.2016c0.3148,0.1056,0.5887,0.3039,0.8598,0.4911"/>
			<path d="M39.8576,27.7466l-0.0562-0.0388c-0.2466-0.171-0.5016-0.3478-0.7843-0.4426c-0.2199-0.074-0.4538-0.1242-0.68-0.1728
				l-0.1231-0.0266c-0.1425-0.0317-0.2942-0.0674-0.4391-0.1143c-0.0307-0.0071-0.0683-0.0188-0.1093-0.0342l0.054-0.1437
				c0.0349,0.013,0.0665,0.023,0.0967,0.0302c0.1447,0.0466,0.292,0.0812,0.4307,0.112l0.1223,0.0264
				c0.2304,0.0495,0.4685,0.1007,0.6966,0.1774c0.3034,0.1017,0.5676,0.2849,0.823,0.462l0.056,0.0387L39.8576,27.7466z"/>
		</g>
		<g>
			<path class="st2" d="M37.126,24.4175c0.1808-0.0708,0.3626-0.1334,0.5648-0.1545c0.2286-0.0217,0.4061,0.0158,0.5812,0.1009
				c0.0965,0.047,0.1924,0.1088,0.2952,0.1823c0.4667,0.3353,1.1401,0.544,1.767,0.5243"/>
			<path d="M40.253,25.1486c-0.6064,0-1.2622-0.2034-1.7307-0.5401c-0.1127-0.0807-0.2004-0.1349-0.284-0.1757
				c-0.1722-0.0837-0.3383-0.1125-0.5403-0.0934c-0.1832,0.0191-0.3501,0.0736-0.5441,0.1496l-0.056-0.143
				c0.2057-0.0805,0.3837-0.1383,0.5849-0.1594c0.2316-0.022,0.4236,0.0115,0.6227,0.1082c0.0917,0.0447,0.1861,0.103,0.3062,0.189
				c0.464,0.3333,1.1213,0.5282,1.7199,0.5099l0.0048,0.1535C40.3089,25.1481,40.2809,25.1485,40.253,25.1486z"/>
		</g>
		<g>
			<path class="st2" d="M38.188,21.5559c0.4282,0.1395,0.7878,0.3787,1.0103,0.8067c0.0068,0.012,0.0145,0.0251,0.0203,0.0381"/>
			<path d="M39.1484,22.4319c-0.004-0.0091-0.0094-0.0183-0.0144-0.0269c-0.1951-0.375-0.5111-0.6266-0.9698-0.776l0.0476-0.146
				c0.4988,0.1626,0.8438,0.4387,1.0546,0.8443c0.0084,0.0145,0.0162,0.0286,0.0223,0.0424L39.1484,22.4319z"/>
		</g>
		<g>
			<path d="M37.7904,26.9743l-0.0764-0.1332c0.3451-0.1977,0.3522-0.8082,0.358-1.2988c0.0025-0.2075,0.0048-0.4034,0.0315-0.5512
				c0.0266-0.1473,0.0479-0.308,0.0705-0.4782c0.0713-0.5376,0.1521-1.147,0.4411-1.5573c0.1336-0.1895,0.2866-0.3664,0.4346-0.5376
				c0.1851-0.214,0.3764-0.4352,0.528-0.68c0.2168-0.3499,0.3184-0.8026,0.3196-1.4248c0.0003-0.1186-0.0024-0.2344-0.0051-0.3487
				c-0.008-0.3374-0.0154-0.6562,0.0516-1.0061c0.0332-0.1736,0.1007-0.3654,0.3497-0.4723
				c0.0872-0.0374,0.1969-0.0349,0.2941-0.0329c0.0512,0.0011,0.1287,0.0027,0.1479-0.0079l0.0807,0.1306
				c-0.0557,0.0344-0.1373,0.0328-0.2319,0.0308c-0.0811-0.0019-0.1736-0.0038-0.2304,0.0205
				c-0.1512,0.0649-0.2215,0.1626-0.2594,0.3601c-0.064,0.3339-0.0567,0.6446-0.0489,0.9736
				c0.0028,0.1156,0.0055,0.2327,0.0052,0.3526c-0.0013,0.6519-0.1102,1.1302-0.3426,1.5053
				c-0.158,0.2551-0.3534,0.481-0.5424,0.6996c-0.1456,0.1682-0.2961,0.3423-0.4253,0.5256
				c-0.2672,0.3793-0.3454,0.9689-0.4144,1.489c-0.0228,0.172-0.0444,0.3345-0.0717,0.4852
				c-0.0245,0.1352-0.0267,0.325-0.0291,0.5258C38.2194,26.0739,38.2116,26.733,37.7904,26.9743z"/>
		</g>
		<g>
			<path class="st2" d="M40.7864,18.5293c0.1269-0.0961,0.0998-0.3518,0.1007-0.4889c0.0006-0.1955,0.0288-0.4565-0.0369-0.6596"/>
			<path d="M40.8327,18.5904L40.74,18.4681c0.0773-0.0586,0.0736-0.2399,0.0712-0.3599c-0.0005-0.0247-0.001-0.0478-0.0008-0.0683
				c0.0001-0.0429,0.0016-0.0893,0.0031-0.1375c0.0052-0.1649,0.011-0.3517-0.0363-0.4979l0.1461-0.0473
				c0.0555,0.1717,0.0492,0.3727,0.0436,0.5501c-0.0015,0.0466-0.0029,0.0915-0.003,0.1334
				c-0.0001,0.0195,0.0003,0.0412,0.0008,0.0644C40.968,18.2652,40.9724,18.4846,40.8327,18.5904z"/>
		</g>
		<g>
			<path class="st2" d="M41.5565,19.7957c-0.1614-0.4387-0.6052-0.9006-0.7961-1.2285"/>
			<path d="M41.4844,19.8222c-0.0986-0.2681-0.3126-0.5528-0.5013-0.8039c-0.1117-0.1486-0.2171-0.2889-0.289-0.4126l0.1327-0.0772
				c0.0674,0.1158,0.1702,0.2526,0.2791,0.3974c0.1952,0.2597,0.4163,0.554,0.5227,0.8432L41.4844,19.8222z"/>
		</g>
		<g>
			<path class="st2" d="M42.1817,19.2482c-0.0443-0.0768-0.0936-0.1531-0.1343-0.2327c-0.1154-0.2274-0.2136-0.4562-0.3432-0.6775
				c-0.1028-0.178-0.1575-0.3649-0.245-0.5502c-0.056-0.1181-0.1277-0.2273-0.2031-0.3364"/>
			<path d="M42.1152,19.2866c-0.0146-0.0253-0.0297-0.0505-0.0449-0.0758c-0.031-0.0516-0.063-0.105-0.0912-0.1603
				c-0.0395-0.0777-0.0768-0.1553-0.1141-0.2328c-0.0702-0.1461-0.1429-0.2971-0.227-0.4409
				c-0.0653-0.1131-0.112-0.2294-0.1571-0.3419c-0.0283-0.0706-0.0576-0.1436-0.091-0.2144
				c-0.0507-0.1071-0.1154-0.2076-0.1969-0.3256l0.1264-0.0872c0.0856,0.1241,0.154,0.2306,0.2093,0.3471
				c0.0354,0.075,0.0656,0.1502,0.0947,0.2229c0.0451,0.1124,0.0877,0.2186,0.1474,0.3218c0.087,0.1488,0.1611,0.3027,0.2327,0.4516
				c0.0368,0.0764,0.0736,0.1531,0.1125,0.2296c0.0258,0.0504,0.0565,0.1016,0.0861,0.151c0.0156,0.026,0.0312,0.052,0.0462,0.0781
				L42.1152,19.2866z"/>
		</g>
		<g>
			<path class="st2" d="M45.041,18.3564c-0.2046-0.1212-0.424-0.2213-0.6263-0.3475c-0.3737-0.2328-0.7435-0.523-1.1258-0.7648"/>
			<path d="M45.0018,18.4225c-0.0907-0.0538-0.1869-0.1046-0.2799-0.1538c-0.1154-0.0609-0.2346-0.124-0.3479-0.1947
				c-0.1933-0.1204-0.3886-0.2581-0.5774-0.3913c-0.179-0.1263-0.3641-0.2569-0.5489-0.3737l0.0821-0.1297
				c0.188,0.1189,0.3747,0.2506,0.5552,0.378c0.187,0.1319,0.3805,0.2683,0.5701,0.3864c0.1087,0.0678,0.2255,0.1296,0.3384,0.1892
				c0.0946,0.05,0.1924,0.1017,0.2865,0.1573L45.0018,18.4225z"/>
		</g>
		<g>
			<path class="st1" d="M38.2504,26.8509c-0.0163,0.358-0.2723,0.4798-0.1749,0.844c0.102,0.3798,0.4404,0.6331,0.688,0.8877
				c0.191,0.1963,0.5905,0.5063,0.4798,0.8292c-0.1383,0.4033-0.642,0.3903-0.8322,0.0599
				c-0.2715-0.472-0.3108-1.0337-0.6676-1.4682c-0.158-0.1921-0.4693-0.2681-0.7047-0.3196
				c-0.4468-0.0979-0.6975-0.2699-0.4085-0.7347C36.8719,26.5609,38.2867,26.028,38.2504,26.8509z"/>
			<path d="M38.8306,29.7939c-0.1989,0-0.3852-0.1088-0.486-0.284c-0.1181-0.2053-0.1938-0.4272-0.2668-0.6417
				c-0.1008-0.2959-0.1961-0.5754-0.3937-0.8161c-0.1374-0.1672-0.4136-0.2391-0.6617-0.2933
				c-0.2187-0.048-0.4806-0.1287-0.5652-0.3291c-0.0588-0.1393-0.0235-0.3098,0.108-0.5213
				c0.1716-0.2759,0.8037-0.5676,1.2298-0.5676c0.1828,0,0.3223,0.0489,0.4146,0.1454c0.0848,0.0887,0.1244,0.2125,0.1175,0.368
				c-0.0076,0.1686-0.0638,0.2897-0.1133,0.3966c-0.0629,0.1357-0.1126,0.2429-0.0641,0.4241
				c0.076,0.2831,0.2967,0.4942,0.5101,0.6984c0.0548,0.0525,0.1087,0.104,0.1588,0.1556c0.0275,0.0282,0.0594,0.0589,0.0935,0.0916
				c0.217,0.2085,0.5142,0.4942,0.4039,0.816C39.2404,29.6571,39.0544,29.7939,38.8306,29.7939z M37.795,26.4945
				c-0.4002,0-0.9678,0.2836-1.0994,0.4952c-0.1017,0.1636-0.1343,0.2916-0.0969,0.3805c0.044,0.1042,0.1891,0.18,0.4566,0.2387
				c0.2732,0.0597,0.5789,0.1406,0.7475,0.3458c0.2154,0.2622,0.3196,0.5681,0.4204,0.864
				c0.0708,0.2076,0.1438,0.4222,0.2546,0.6147c0.0734,0.1277,0.2087,0.207,0.3529,0.207c0.1585,0,0.2857-0.0947,0.3401-0.2535
				c0.0786-0.2292-0.1778-0.4756-0.365-0.6555c-0.0354-0.0341-0.0686-0.0659-0.0971-0.0953
				c-0.0489-0.0503-0.1015-0.1005-0.1549-0.1517c-0.218-0.2086-0.4651-0.445-0.5522-0.7696
				c-0.0629-0.2351,0.0062-0.3842,0.0731-0.5284c0.0478-0.1032,0.0929-0.2007,0.0993-0.3389c0.0049-0.112-0.0203-0.1978-0.075-0.255
				C38.0365,26.5275,37.9343,26.4945,37.795,26.4945z"/>
		</g>
	</g>
	<g>
		<g>
			<polygon class="st1" points="17.9073,23.9715 17.6846,22.9316 16.6538,22.6712 17.5475,22.2889 17.3255,21.2491 18.0998,22.0525 
				18.9935,21.6703 18.5785,22.5494 19.3531,23.3529 18.3221,23.0927 			"/>
			<path d="M17.8831,24.181l-0.2557-1.1942l-1.1839-0.2991l1.0264-0.439l-0.2597-1.2167l0.9059,0.9401l1.0144-0.4338l-0.4711,0.9979
				l0.9064,0.9401l-1.2064-0.3045L17.8831,24.181z M16.8641,22.6547l0.8777,0.2218l0.1897,0.8856l0.3532-0.7484l0.8557,0.216
				l-0.6428-0.6669l0.3589-0.7604l-0.7729,0.3305l-0.6427-0.6667l0.1843,0.863L16.8641,22.6547z"/>
		</g>
		<g>
			<path class="st1" d="M16.0987,19.6514c-0.1098-0.1629-0.2346-0.3059-0.3743-0.4572c0.0148-0.1298,0.0174-0.2631,0.0417-0.3855
				c0.0524-0.2658,0.1002-0.5291,0.1328-0.7977c0.0304-0.2465,0.0591-0.4959,0.1016-0.7387
				c0.2112,0.2118,0.4414,0.4424,0.6942,0.6772c-0.0606,0.2984-0.1588,0.6317-0.2423,0.8832
				C16.3589,19.1151,16.1868,19.367,16.0987,19.6514z"/>
			<path d="M16.1246,19.8271l-0.0895-0.1328c-0.1048-0.1554-0.2225-0.2915-0.3671-0.4481l-0.0239-0.0258l0.004-0.035
				c0.0052-0.0452,0.0088-0.091,0.0124-0.1365c0.0067-0.0846,0.0137-0.172,0.0303-0.2552c0.046-0.2333,0.0976-0.5099,0.1319-0.792
				l0.0109-0.0894c0.0264-0.2153,0.0535-0.4378,0.0913-0.6533l0.0255-0.1458l0.1044,0.1048
				c0.1938,0.1944,0.4351,0.4364,0.6921,0.6751l0.0316,0.0293l-0.0086,0.0422c-0.0705,0.3476-0.1836,0.7081-0.2447,0.8922
				c-0.0469,0.1414-0.1126,0.2753-0.1763,0.4048c-0.0686,0.1395-0.1333,0.2713-0.1771,0.4125L16.1246,19.8271z M15.8044,19.1677
				c0.1016,0.1107,0.1904,0.2125,0.2716,0.3199c0.0407-0.1011,0.0886-0.1985,0.1353-0.2937
				c0.0642-0.1305,0.1248-0.2539,0.1684-0.3854c0.0576-0.1733,0.1619-0.5058,0.2312-0.8324
				c-0.2023-0.189-0.3935-0.3782-0.5587-0.5435c-0.0254,0.1655-0.046,0.3341-0.066,0.4984l-0.011,0.0894
				c-0.0349,0.2869-0.0872,0.567-0.1337,0.8032c-0.0148,0.0746-0.0211,0.1538-0.0278,0.2377
				C15.8108,19.0967,15.8079,19.1322,15.8044,19.1677z"/>
		</g>
		<g>
			<path class="st2" d="M15.7661,18.8087c-0.0243,0.1224-0.0269,0.2557-0.0417,0.3855c-0.1461-0.1553-0.3075-0.3177-0.4906-0.5139
				c-0.1555-0.1696-0.3254-0.3634-0.5102-0.5997c-0.4859-0.6227-0.6573-1.1949-0.597-1.5484
				c0.0432-0.2588,0.2079-0.4031,0.4619-0.3698c0.2166,0.0274,0.4542,0.1932,0.7327,0.4442
				c0.2032,0.1829,0.4273,0.4118,0.6794,0.6657c-0.0425,0.2429-0.0713,0.4923-0.1016,0.7387
				C15.8663,18.2795,15.8185,18.5428,15.7661,18.8087z"/>
			<path d="M15.782,19.3674l-0.1135-0.1206c-0.0641-0.0682-0.1312-0.1378-0.2018-0.2109c-0.0903-0.0936-0.1863-0.1931-0.2891-0.3032
				c-0.1216-0.1327-0.3067-0.3392-0.5145-0.6047c-0.4555-0.5839-0.6844-1.1852-0.6122-1.6086
				c0.0506-0.3033,0.2556-0.4705,0.5476-0.433c0.2119,0.0268,0.4435,0.1654,0.7741,0.4632
				c0.1816,0.1636,0.3836,0.3672,0.5975,0.5829l0.1131,0.114l-0.0069,0.0391c-0.037,0.2116-0.064,0.4322-0.0901,0.6455
				l-0.011,0.0894c-0.0349,0.2869-0.0872,0.567-0.1337,0.8032c-0.0148,0.0746-0.0211,0.1538-0.0278,0.2377
				c-0.0037,0.0472-0.0076,0.0947-0.0129,0.1416L15.782,19.3674z M14.5182,16.2344c-0.2183,0-0.2923,0.1688-0.3159,0.3104
				c-0.0502,0.2948,0.0763,0.8405,0.5818,1.4886c0.2044,0.2613,0.3868,0.4647,0.5062,0.595
				c0.1017,0.1089,0.1971,0.2079,0.2869,0.3009c0.0292,0.0302,0.0578,0.0599,0.0858,0.089
				c0.0062-0.0749,0.0133-0.1513,0.0278-0.2245c0.046-0.2333,0.0976-0.5099,0.1319-0.792l0.0109-0.0894
				c0.0247-0.2022,0.0502-0.4108,0.0846-0.6141l-0.0572-0.0576c-0.2215-0.2234-0.4127-0.4163-0.5912-0.5769
				c-0.3015-0.2717-0.5146-0.4027-0.691-0.425C14.5577,16.2358,14.5376,16.2344,14.5182,16.2344z"/>
		</g>
		<g>
			<path class="st2" d="M16.5717,20.7239c-0.0517-0.1289-0.0986-0.2592-0.1419-0.3869c-0.0046-0.0133-0.0094-0.0269-0.014-0.0401
				c-0.089-0.2607-0.1929-0.4642-0.3172-0.6456c0.0881-0.2843,0.2602-0.5363,0.3539-0.8187
				c0.0835-0.2516,0.1817-0.5849,0.2423-0.8832c0.188,0.1779,0.3901,0.3563,0.6064,0.5345c0.0702,0.0565,0.1445,0.1086,0.222,0.1531
				c0.2341,0.1404,0.501,0.2252,0.7865,0.2679c1.385,0.2021,3.2248-0.601,4.2114-1.1339c0.2993-0.1626,0.6259-0.3075,0.968-0.4449
				c0.8041-0.3245,1.6864-0.6025,2.4791-0.9319c0.2851-0.119,0.5575-0.2438,0.8107-0.3813
				c1.2553-0.6792,2.4507-0.3139,2.7417,0.7725c0.0483,0.1805,0.1043,0.3511,0.1676,0.5173
				c0.3131,0.8311,0.7902,1.5303,1.2638,2.6602c0.4177,0.9929,0.7039,2.9417,0.8268,3.9114l-2.1731,1.6796l-0.9571-0.2947
				l-1.8363-0.5653c0.0099-0.7781-0.0304-2.4863-0.0839-4.0085c-0.0082-0.2228,0.0653-0.8134-0.0399-1.1717
				c-0.001-0.0077-0.0039-0.0146-0.0056-0.021c-0.0386-0.1144-0.0946-0.2018-0.1808-0.2426
				c-0.0376,0.0281-0.0752,0.0559-0.1151,0.0823c-0.3598,0.255-0.7458,0.4417-1.1276,0.6699
				c-0.2414,0.1444-0.4834,0.2935-0.7317,0.4288c-0.2239,0.1206-0.4534,0.2292-0.6956,0.3108
				c-0.6366,0.2123-1.4703,0.2099-2.3136,0.1997c-1.2003-0.0156-2.4192-0.0474-3.1174,0.5016
				C17.3901,22.2391,16.8962,21.5318,16.5717,20.7239z"/>
			<path d="M29.6211,25.639l-2.8863-0.8885l0.0007-0.0575c0.0104-0.8228-0.0346-2.6043-0.0839-4.0048
				c-0.0024-0.0653,0.0018-0.1582,0.0067-0.2659c0.0121-0.2705,0.0288-0.641-0.0434-0.8869l-0.0063-0.0236
				c-0.0264-0.078-0.0605-0.1346-0.1026-0.169c-0.0249,0.0183-0.0502,0.0363-0.0765,0.0537
				c-0.2367,0.1678-0.4907,0.3095-0.7363,0.4465c-0.1294,0.0723-0.2633,0.1469-0.3942,0.2252l-0.142,0.0852
				c-0.1924,0.1158-0.3914,0.2355-0.5924,0.3451c-0.2626,0.1415-0.4874,0.2419-0.7077,0.3162
				c-0.5461,0.1822-1.2195,0.2072-1.8658,0.2072c-0.1566,0-0.3147-0.0016-0.4732-0.0035l-0.0978-0.0013
				c-0.1966-0.0026-0.3933-0.0053-0.5878-0.0053c-1.0553,0-1.8645,0.0837-2.3836,0.4918c-0.3076,0.2422-0.5928,0.3649-0.8477,0.3649
				c-0.5846,0-0.908-0.6369-1.1005-1.1161c-0.0471-0.1174-0.094-0.2452-0.1434-0.3908l-0.0137-0.0393
				c-0.0826-0.242-0.1804-0.4413-0.308-0.6277l-0.0209-0.0306l0.011-0.0355c0.0473-0.1527,0.1177-0.296,0.1859-0.4347
				c0.0642-0.1305,0.1248-0.2539,0.1684-0.3854c0.06-0.1808,0.1709-0.5346,0.24-0.8744l0.0275-0.1355l0.1005,0.0951
				c0.1878,0.1778,0.3906,0.3564,0.6025,0.531c0.07,0.0564,0.1414,0.1057,0.2114,0.1458c0.2141,0.1284,0.4693,0.2151,0.7596,0.2585
				c0.1412,0.0206,0.2931,0.031,0.4512,0.031c1.418,0,3.0685-0.8088,3.7124-1.1566c0.2722-0.1479,0.5823-0.2905,0.9758-0.4486
				c0.3804-0.1534,0.7841-0.2988,1.1746-0.4392c0.4358-0.1568,0.8864-0.319,1.3037-0.4924c0.3126-0.1304,0.5754-0.254,0.8035-0.3778
				c0.4264-0.2307,0.867-0.3526,1.2744-0.3526c0.7915,0,1.3814,0.4384,1.5781,1.1727c0.046,0.172,0.1,0.3387,0.1652,0.5098
				c0.157,0.4167,0.3606,0.8096,0.5762,1.2256c0.2116,0.4085,0.4516,0.8713,0.6866,1.4322
				c0.4158,0.9883,0.6999,2.8874,0.8323,3.9314l0.0055,0.0436L29.6211,25.639z M26.8897,24.6375l2.7005,0.8314l2.1069-1.6285
				c-0.1336-1.0447-0.4128-2.8896-0.8159-3.8477c-0.2327-0.5552-0.4711-1.0152-0.6814-1.421
				c-0.2177-0.4201-0.4234-0.817-0.5834-1.2419c-0.0669-0.1759-0.1226-0.3475-0.1699-0.5245
				c-0.1776-0.663-0.7121-1.0589-1.4298-1.0589c-0.3819,0-0.7974,0.1155-1.2012,0.334c-0.2326,0.1263-0.5001,0.2521-0.8176,0.3846
				c-0.4208,0.1749-0.8732,0.3376-1.3107,0.4951c-0.3891,0.14-0.7915,0.2847-1.1692,0.4372
				c-0.3879,0.1558-0.6929,0.2961-0.96,0.4412c-0.6543,0.3534-2.3326,1.1751-3.7856,1.1751c-0.1655,0-0.3249-0.011-0.4736-0.0328
				c-0.3106-0.0464-0.5846-0.1399-0.8149-0.278c-0.0756-0.0434-0.1537-0.0972-0.2306-0.1591
				c-0.1784-0.147-0.35-0.2965-0.5119-0.4459c-0.0697,0.3034-0.1625,0.5984-0.2158,0.759
				c-0.0469,0.1414-0.1126,0.2753-0.1763,0.4048c-0.063,0.128-0.1227,0.2495-0.1658,0.3778
				c0.1254,0.1891,0.2228,0.3912,0.3053,0.6328l0.0139,0.0397c0.0485,0.1434,0.0945,0.2686,0.1406,0.3834
				c0.2794,0.6956,0.5838,1.0197,0.9579,1.0197c0.2195,0,0.4728-0.1117,0.7528-0.3321c0.5537-0.4354,1.3912-0.5246,2.4785-0.5246
				c0.1951,0,0.3925,0.0026,0.5897,0.0053l0.0977,0.0013c0.1579,0.0019,0.3154,0.0035,0.4713,0.0035
				c0.6334,0,1.2919-0.0241,1.817-0.1993c0.2117-0.0713,0.4289-0.1685,0.6835-0.3056c0.1978-0.1078,0.3953-0.2267,0.5863-0.3416
				l0.1424-0.0855c0.133-0.0796,0.2678-0.1548,0.3983-0.2275c0.2532-0.1413,0.4923-0.2747,0.7243-0.4392
				c0.0407-0.027,0.0771-0.054,0.1135-0.0812l0.037-0.0277l0.0418,0.0198c0.0991,0.0469,0.1713,0.1409,0.2207,0.2874
				c0.0039,0.0124,0.0062,0.0207,0.0077,0.0282c0.0781,0.2704,0.0608,0.6531,0.0483,0.9329
				c-0.0047,0.1043-0.0087,0.1943-0.0066,0.2534C26.8533,22.0534,26.8974,23.789,26.8897,24.6375z"/>
		</g>
		<g>
			<path d="M28.6725,25.6911l-0.1516-0.0243c0.0254-0.158,0.0459-0.3364,0.061-0.5307c0.0312-0.3789,0.0372-0.8107,0.0179-1.2838
				c-0.0171-0.4127-0.0745-0.805-0.1352-1.2203c-0.0204-0.1396-0.0409-0.2796-0.0598-0.4207
				c-0.0866-0.6476-0.2644-1.2689-0.5435-1.8992c-0.1292-0.2924-0.2756-0.6239-0.4361-0.9387l-0.0083-0.0169
				c-0.0048-0.0099-0.0099-0.0204-0.0156-0.0312c-0.0125-0.0273-0.0227-0.0513-0.0333-0.0761
				c-0.0248-0.058-0.0504-0.1179-0.0799-0.1739c-0.0554-0.1053-0.1082-0.1687-0.1615-0.1938l0.0653-0.1389
				c0.0858,0.0404,0.1595,0.1233,0.232,0.2612c0.0324,0.0614,0.0604,0.1271,0.0852,0.1851
				c0.0103,0.0241,0.0201,0.0472,0.0299,0.0689c0.0043,0.0077,0.0103,0.0201,0.016,0.0318l0.0071,0.0147
				c0.1622,0.3181,0.3095,0.6516,0.4395,0.9458c0.2851,0.6438,0.4667,1.2788,0.5553,1.941
				c0.0188,0.1405,0.0392,0.2799,0.0595,0.4189c0.0586,0.4009,0.1192,0.8154,0.1366,1.2362
				c0.0196,0.4794,0.0135,0.9176-0.0182,1.3024C28.7193,25.3492,28.6989,25.5268,28.6725,25.6911z"/>
		</g>
		<g>
			<path class="st2" d="M26.9957,19.5067c0.1189-0.169,0.2361-0.3229,0.3603-0.4673c0.0217-0.0282,0.0461-0.0553,0.0693-0.0806
				c0.1989-0.224,0.4184-0.42,0.6883-0.599c0.5023-0.3359,1.0235-0.7689,1.5746-1.0571"/>
			<path d="M27.0585,19.5509l-0.1256-0.0883c0.1273-0.1808,0.2465-0.3356,0.3649-0.4732c0.0203-0.0266,0.0462-0.0553,0.0708-0.0823
				c0.2139-0.2409,0.4374-0.4354,0.7026-0.6112c0.1663-0.1112,0.3318-0.2311,0.5072-0.358c0.3452-0.25,0.7022-0.5085,1.0743-0.7031
				l0.0711,0.1361c-0.3622,0.1893-0.7146,0.4446-1.0553,0.6913c-0.1765,0.1278-0.3433,0.2486-0.5121,0.3615
				c-0.2542,0.1685-0.4681,0.3548-0.6736,0.5862c-0.0224,0.0245-0.0454,0.0498-0.0658,0.0764
				C27.2992,19.2232,27.1828,19.3742,27.0585,19.5509z"/>
		</g>
		<g>
			<path class="st2" d="M26.3471,18.7261c-0.0059-0.0353-0.0136-0.0715-0.0245-0.108c-0.0307-0.1434-0.0736-0.2873-0.1186-0.43
				c-0.0846-0.2652-0.1759-0.531-0.2312-0.8034c-0.0658-0.3255-0.0312-0.6617-0.0046-0.9904"/>
			<path d="M26.2714,18.7387c-0.0061-0.0364-0.0134-0.0687-0.0223-0.0989c-0.0325-0.1506-0.0759-0.2947-0.1182-0.4288
				l-0.0375-0.1167c-0.0726-0.2252-0.1477-0.458-0.1957-0.6946c-0.0635-0.3137-0.037-0.6338-0.0115-0.9435l0.0056-0.0683
				l0.153,0.0123l-0.0056,0.0686c-0.0247,0.2989-0.0502,0.6081,0.009,0.9004c0.0462,0.228,0.1199,0.4567,0.1913,0.6779
				l0.0378,0.1174c0.0435,0.1379,0.0881,0.2862,0.1204,0.4373c0.0093,0.0305,0.018,0.0688,0.0251,0.1115L26.2714,18.7387z"/>
		</g>
		<g>
			<path class="st2" d="M24.5278,20.4311c-0.1517-0.1213-0.2969-0.2476-0.4163-0.4123c-0.1332-0.187-0.1896-0.3594-0.2034-0.5537
				c-0.0074-0.1071-0.0017-0.2212,0.0106-0.3468c0.057-0.5718-0.099-1.2593-0.4296-1.7923"/>
			<path d="M24.4798,20.4911c-0.1725-0.1379-0.3117-0.2634-0.4305-0.4272c-0.1351-0.1897-0.2021-0.3725-0.2178-0.5933
				c-0.007-0.1015-0.0037-0.2124,0.0108-0.3597c0.0566-0.5685-0.1036-1.2368-0.4184-1.7443l0.1305-0.081
				c0.3316,0.5348,0.5005,1.24,0.4406,1.8404c-0.0136,0.1383-0.0168,0.2414-0.0103,0.3339
				c0.0135,0.1909,0.0719,0.3496,0.1893,0.5144c0.1082,0.1493,0.2388,0.2667,0.4016,0.3969L24.4798,20.4911z"/>
		</g>
		<g>
			<path class="st2" d="M21.5186,20.9416c-0.0934-0.4404-0.066-0.8713,0.1934-1.2781c0.007-0.0118,0.0145-0.0251,0.0228-0.0365"/>
			<path d="M21.4435,20.9576c-0.1088-0.5129-0.0421-0.9497,0.2039-1.3354c0.0091-0.0157,0.017-0.0289,0.0256-0.0406l0.1238,0.0908
				c-0.0055,0.0075-0.0104,0.0163-0.0152,0.0243l-0.0049,0.0081c-0.2232,0.35-0.2831,0.7493-0.183,1.2209L21.4435,20.9576z"/>
		</g>
		<g>
			<path d="M18.1379,20.7694c-0.1037,0-0.2147-0.0297-0.3305-0.1163c-0.076-0.0569-0.1291-0.1534-0.1759-0.2386
				c-0.0246-0.0448-0.0618-0.1126-0.0806-0.124l0.0729-0.1351c0.0576,0.031,0.0969,0.1024,0.1423,0.1851
				c0.0393,0.0715,0.0839,0.1526,0.1333,0.1896c0.1319,0.0986,0.2515,0.1104,0.4415,0.0446
				c0.3211-0.1115,0.5865-0.2732,0.8676-0.4444c0.0988-0.0603,0.1988-0.1212,0.3029-0.1809
				c0.5645-0.3247,1.0343-0.4684,1.475-0.4558c0.2998,0.0092,0.5932,0.0655,0.8768,0.1199c0.2186,0.042,0.4445,0.0852,0.6679,0.1055
				c0.4617,0.0415,1.0108-0.185,1.4952-0.3851c0.1609-0.0664,0.3128-0.1291,0.4575-0.181c0.1295-0.0465,0.2951-0.1395,0.4704-0.238
				c0.4617-0.2593,1.0361-0.5823,1.4556-0.3379l-0.0772,0.1327c-0.3434-0.1999-0.8756,0.0989-1.3032,0.3392
				c-0.1811,0.1017-0.3521,0.1979-0.4938,0.2486c-0.1413,0.0507-0.2916,0.1127-0.4507,0.1784
				c-0.5007,0.2066-1.0686,0.4412-1.5676,0.3961c-0.231-0.0209-0.4607-0.0649-0.683-0.1076
				c-0.2777-0.0533-0.565-0.1084-0.8527-0.1172c-0.4117-0.014-0.8551,0.1255-1.3938,0.4355
				c-0.1029,0.059-0.2018,0.1193-0.2994,0.1788c-0.2883,0.1756-0.5605,0.3415-0.897,0.4583
				C18.3135,20.7468,18.2285,20.7693,18.1379,20.7694z"/>
		</g>
		<g>
			<path class="st2" d="M17.5981,20.205c-0.1468-0.0619-0.3544,0.0893-0.4737,0.1571c-0.1695,0.0972-0.4098,0.2033-0.5527,0.3617"/>
			<path d="M16.6288,20.7753l-0.1141-0.1028c0.1208-0.1339,0.2981-0.229,0.4546-0.3129c0.0411-0.0221,0.0807-0.0433,0.117-0.064
				c0.017-0.0097,0.0356-0.0209,0.0556-0.033c0.137-0.0828,0.3246-0.1966,0.4861-0.1283l-0.0596,0.1415
				c-0.0891-0.0376-0.2444,0.0561-0.347,0.1181c-0.0213,0.0128-0.0411,0.0248-0.059,0.035
				c-0.0372,0.0213-0.0781,0.0433-0.1205,0.066C16.8963,20.5729,16.7315,20.6613,16.6288,20.7753z"/>
		</g>
		<g>
			<path class="st2" d="M18.3098,18.9049c-0.2993,0.3591-0.4774,0.9744-0.6658,1.3034"/>
			<path d="M17.7107,20.2465l-0.1333-0.0763c0.0665-0.1161,0.1334-0.2733,0.2044-0.4397c0.1273-0.299,0.2718-0.6379,0.4691-0.8748
				l0.1179,0.0984c-0.1829,0.2195-0.3226,0.5473-0.4458,0.8366C17.8503,19.9614,17.7815,20.1226,17.7107,20.2465z"/>
		</g>
		<g>
			<path class="st2" d="M17.5232,18.637c-0.0445,0.0769-0.0859,0.1577-0.1345,0.2328c-0.1392,0.2135-0.2882,0.413-0.4149,0.6359
				c-0.103,0.1781-0.2373,0.3188-0.3542,0.4873c-0.0744,0.1077-0.1328,0.2243-0.1898,0.3442"/>
			<path d="M16.4992,20.37l-0.1388-0.0658c0.0525-0.1103,0.1151-0.2378,0.1961-0.3548c0.0472-0.0681,0.0972-0.1318,0.1455-0.1933
				c0.0749-0.0953,0.1456-0.1853,0.2053-0.2888c0.0855-0.1502,0.1821-0.2919,0.2756-0.4288
				c0.0475-0.0695,0.095-0.1392,0.1415-0.2106c0.0306-0.0472,0.0594-0.099,0.0871-0.149c0.015-0.027,0.03-0.0539,0.0452-0.0803
				l0.1328,0.077c-0.0148,0.0256-0.0293,0.0516-0.0438,0.0778c-0.0291,0.0523-0.059,0.1063-0.0926,0.1581
				c-0.0472,0.0724-0.0954,0.143-0.1434,0.2135c-0.0918,0.1344-0.1866,0.2734-0.2692,0.4186
				c-0.0656,0.1134-0.1429,0.212-0.2178,0.3073c-0.047,0.0598-0.0955,0.1216-0.1401,0.1858
				C16.6084,20.1443,16.549,20.2651,16.4992,20.37z"/>
		</g>
		<g>
			<path class="st2" d="M15.3212,16.6066c-0.0025,0.2379,0.0202,0.4778,0.0122,0.7164c-0.0148,0.4399-0.0814,0.9051-0.0997,1.3573"
				/>
			<path d="M15.3105,18.6834l-0.1534-0.0062c0.0089-0.2224,0.0297-0.45,0.0498-0.6701c0.0208-0.2278,0.0423-0.4634,0.0498-0.6866
				c0.0044-0.1282-0.0006-0.2603-0.0053-0.388c-0.0039-0.1069-0.008-0.2175-0.0069-0.3267l0.1535,0.0016
				c-0.0012,0.1055,0.0029,0.2142,0.0068,0.3194c0.0049,0.1304,0.0099,0.2652,0.0054,0.3988
				c-0.0077,0.2277-0.0294,0.4655-0.0504,0.6955C15.3399,18.2392,15.3193,18.4648,15.3105,18.6834z"/>
		</g>
		<g>
			<path class="st1" d="M30.1505,26.2529l0.5281,2.7899l-0.4374,0.0599c0,0-0.2043,0.1396-0.3057,0.1704l-0.6631-2.8975
				l-2.6794-0.9366l0.1658-0.4098c0,0-0.0184-0.2472,0.0045-0.3501l2.8421,0.8752l2.1512-1.8533l0.2718,0.3501
				c0,0,0.2227,0.1075,0.3008,0.1797L30.1505,26.2529z"/>
			<path d="M29.879,29.3707l-0.672-2.9365l-2.7155-0.9492l0.1894-0.4681c-0.0041-0.0632-0.0143-0.257,0.0074-0.3543l0.0181-0.0812
				l2.881,0.8872l2.1803-1.8784l0.3104,0.3998c0.0568,0.0282,0.2292,0.1162,0.3032,0.1845l0.0608,0.0563l-2.2083,2.0496
				l0.5352,2.8276l-0.4998,0.0685c-0.0529,0.0354-0.2153,0.141-0.3115,0.1703L29.879,29.3707z M26.6943,25.3932l2.6434,0.924
				l0.0095,0.0413l0.6424,2.8074c0.0764-0.0397,0.169-0.0999,0.2081-0.1266l0.015-0.0103l0.3753-0.0514l-0.5209-2.7523
				l2.1418-1.9879c-0.0729-0.0463-0.1714-0.0967-0.214-0.1173l-0.0163-0.0078l-0.2332-0.3005l-2.1221,1.8283l-2.7938-0.8603
				c-0.0034,0.086,0.0023,0.1964,0.0058,0.2437l0.0013,0.0178L26.6943,25.3932z"/>
		</g>
		<g>
			<path class="st1" d="M26.0731,18.2404c0.3179-0.1652,0.5515-0.0041,0.8184-0.2706c0.2778-0.2782,0.3279-0.6977,0.4246-1.0397
				c0.0744-0.2635,0.1431-0.7645,0.4783-0.8301c0.4181-0.082,0.6589,0.361,0.4679,0.6907c-0.273,0.4713-0.74,0.7862-0.9378,1.3123
				c-0.0872,0.233,0.0025,0.5406,0.0757,0.7699c0.1386,0.436,0.1151,0.7392-0.4322,0.7212
				C26.511,19.5791,25.342,18.6203,26.0731,18.2404z"/>
			<path d="M27.013,19.6716c-0.0154,0-0.0313-0.0002-0.0476-0.0007c-0.349-0.0114-1.0832-0.5138-1.191-0.988
				c-0.0489-0.2156,0.0445-0.3969,0.2632-0.5106c0.1497-0.0778,0.2828-0.0897,0.4002-0.1002
				c0.1488-0.0134,0.2665-0.024,0.3993-0.1566c0.2071-0.2073,0.2796-0.5039,0.3497-0.7909
				c0.0181-0.0737,0.0358-0.1461,0.0553-0.2153c0.0107-0.0378,0.0213-0.0808,0.0325-0.1266
				c0.0721-0.2923,0.1708-0.6926,0.5049-0.758c0.2305-0.0449,0.4407,0.0487,0.5521,0.2421c0.0993,0.1723,0.0982,0.3878-0.003,0.5625
				c-0.1188,0.2051-0.2732,0.3816-0.4227,0.5522c-0.2058,0.2352-0.4002,0.4573-0.5098,0.7486
				c-0.0824,0.2203,0.0213,0.5451,0.077,0.7196c0.0672,0.2112,0.1279,0.476,0.001,0.6497
				C27.3894,19.6152,27.2386,19.6716,27.013,19.6716z M27.8937,16.1667c-0.0273,0-0.0558,0.0029-0.0846,0.0085
				c-0.238,0.0465-0.3232,0.3919-0.3854,0.6441c-0.0117,0.0476-0.0228,0.0921-0.0338,0.1315
				c-0.0191,0.0676-0.0364,0.1382-0.0539,0.2101c-0.0716,0.2931-0.1528,0.6253-0.3902,0.863
				c-0.1722,0.1719-0.3359,0.1866-0.4942,0.2008c-0.1133,0.0102-0.2203,0.0198-0.3432,0.0837
				c-0.1574,0.0818-0.2176,0.1931-0.1842,0.3403c0.0879,0.3868,0.7562,0.859,1.0463,0.8685
				c0.195,0.0069,0.3224-0.0303,0.3798-0.1087c0.0663-0.0908,0.059-0.2536-0.0233-0.5125c-0.085-0.266-0.1677-0.5708-0.0745-0.8201
				c0.1195-0.3175,0.3323-0.5606,0.538-0.7957c0.1445-0.1652,0.294-0.336,0.4053-0.5282c0.0737-0.1273,0.0748-0.2839,0.0029-0.4088
				C28.134,16.2311,28.0229,16.1667,27.8937,16.1667z"/>
		</g>
	</g>
</g>
</svg>
