<?xml version="1.0" encoding="utf-8"?>
<!-- Generator: Adobe Illustrator 21.1.0, SVG Export Plug-In . SVG Version: 6.00 Build 0)  -->
<svg version="1.1" id="Layer_1" xmlns="http://www.w3.org/2000/svg" xmlns:xlink="http://www.w3.org/1999/xlink" x="0px" y="0px"
	 viewBox="0 0 60 60" style="enable-background:new 0 0 60 60;" xml:space="preserve">
<style type="text/css">
	.st0{clip-path:url(#SVGID_2_);}
	.st1{fill:#FF9933;}
	.st2{fill:#FFFFFF;}
	.st3{fill:#138808;}
	.st4{fill:#000066;}
</style>
<g>
	<g>
		<g>
			<defs>
				<circle id="SVGID_1_" cx="30" cy="30" r="30"/>
			</defs>
			<clipPath id="SVGID_2_">
				<use xlink:href="#SVGID_1_"  style="overflow:visible;"/>
			</clipPath>
			<g class="st0">
				<rect class="st1" width="60" height="20"/>
				<rect y="20" class="st2" width="60" height="20"/>
				<rect y="40" class="st3" width="60" height="20"/>
			</g>
		</g>
	</g>
</g>
<g>
	<path class="st4" d="M36.4881,27.6073c-0.1785,0.0444-0.359-0.057-0.4055-0.2325c-0.0465-0.1765,0.0551-0.3564,0.2315-0.4045
		c0.1795-0.045,0.3569,0.06,0.4039,0.231C36.7661,27.3818,36.6626,27.5593,36.4881,27.6073z"/>
	<path class="st4" d="M36.8851,29.3661c-0.1835,0-0.328-0.1459-0.328-0.3285c-0.0014-0.184,0.1445-0.3285,0.328-0.3285
		c0.1795,0,0.3285,0.1445,0.3285,0.3285C37.2135,29.2202,37.0646,29.3661,36.8851,29.3661z"/>
	<path class="st4" d="M36.8151,31.1704c-0.18-0.0465-0.2815-0.2269-0.2345-0.4045c0.045-0.1769,0.2274-0.2775,0.4034-0.2305
		c0.1765,0.046,0.2785,0.2275,0.232,0.4005C37.1676,31.114,36.9866,31.2169,36.8151,31.1704z"/>
	<path class="st4" d="M36.2772,32.8938c-0.157-0.0919-0.2105-0.2914-0.1195-0.452c0.0909-0.1554,0.2929-0.2099,0.4494-0.1174
		c0.1566,0.0914,0.21,0.2919,0.1191,0.452C36.6351,32.9308,36.4352,32.9838,36.2772,32.8938z"/>
	<path class="st4" d="M36.4881,27.6073c-0.1785,0.0444-0.359-0.057-0.4055-0.2325c-0.0465-0.1765,0.0551-0.3564,0.2315-0.4045
		c0.1795-0.045,0.3569,0.06,0.4039,0.231C36.7661,27.3818,36.6626,27.5593,36.4881,27.6073z"/>
	<path class="st4" d="M36.8851,29.3661c-0.1835,0-0.328-0.1459-0.328-0.3285c-0.0014-0.184,0.1445-0.3285,0.328-0.3285
		c0.1795,0,0.3285,0.1445,0.3285,0.3285C37.2135,29.2202,37.0646,29.3661,36.8851,29.3661z"/>
	<path class="st4" d="M36.8151,31.1704c-0.18-0.0465-0.2815-0.2269-0.2345-0.4045c0.045-0.1769,0.2274-0.2775,0.4034-0.2305
		c0.1765,0.046,0.2785,0.2275,0.232,0.4005C37.1676,31.114,36.9866,31.2169,36.8151,31.1704z"/>
	<path class="st4" d="M36.2772,32.8938c-0.157-0.0919-0.2105-0.2914-0.1195-0.452c0.0909-0.1554,0.2929-0.2099,0.4494-0.1174
		c0.1566,0.0914,0.21,0.2919,0.1191,0.452C36.6351,32.9308,36.4352,32.9838,36.2772,32.8938z"/>
	<g>
		<path class="st4" d="M29.3672,23.1127c0,0.1835-0.1479,0.331-0.3299,0.331c-0.1795,0-0.329-0.1475-0.329-0.331
			c0-0.1819,0.1495-0.328,0.329-0.328C29.2192,22.7847,29.3672,22.9307,29.3672,23.1127z"/>
		<path class="st4" d="M31.1721,23.1851c-0.0479,0.175-0.2305,0.28-0.4014,0.2345c-0.1791-0.048-0.2811-0.2289-0.2341-0.4044
			c0.0456-0.176,0.227-0.283,0.4025-0.2325C31.1146,22.8302,31.2181,23.0086,31.1721,23.1851z"/>
		<path class="st4" d="M32.894,23.7181c-0.091,0.161-0.2925,0.214-0.4485,0.123c-0.1575-0.0925-0.2119-0.29-0.1205-0.4504
			c0.0915-0.1559,0.2905-0.2135,0.4505-0.1225C32.9309,23.3601,32.9845,23.5646,32.894,23.7181z"/>
		<path class="st4" d="M34.4203,24.6835c-0.1275,0.129-0.3354,0.128-0.4655,0c-0.128-0.1285-0.128-0.3375,0-0.467
			c0.13-0.1289,0.338-0.1289,0.4655,0C34.5518,24.3461,34.5518,24.555,34.4203,24.6835z"/>
		<path class="st4" d="M35.6472,26.0089c-0.1599,0.091-0.3594,0.0355-0.4524-0.119c-0.091-0.1585-0.0371-0.3604,0.1225-0.452
			c0.159-0.09,0.3595-0.037,0.4509,0.1225C35.8587,25.7165,35.8051,25.9199,35.6472,26.0089z"/>
		<path class="st4" d="M35.3162,34.4237c-0.131-0.1325-0.1285-0.339,0-0.4679c0.126-0.129,0.3354-0.129,0.463,0
			c0.1289,0.1289,0.1289,0.3354,0,0.4654C35.6492,34.5467,35.4423,34.5467,35.3162,34.4237z"/>
		<path class="st4" d="M33.9899,35.6471c-0.0935-0.1604-0.04-0.36,0.1185-0.4515c0.156-0.091,0.359-0.0369,0.4509,0.1211
			c0.092,0.1564,0.039,0.3585-0.1204,0.4509C34.2798,35.8541,34.0773,35.8011,33.9899,35.6471z"/>
		<path class="st4" d="M32.3895,36.486c-0.0465-0.1794,0.0585-0.3569,0.234-0.4029c0.1755-0.047,0.3585,0.0545,0.4055,0.234
			c0.0465,0.177-0.0585,0.3555-0.2334,0.401C32.6165,36.764,32.4389,36.6585,32.3895,36.486z"/>
		<path class="st4" d="M30.6292,36.8845c0-0.1835,0.1495-0.328,0.329-0.328c0.1835-0.001,0.3334,0.1445,0.3334,0.328
			c0,0.1825-0.149,0.3295-0.3334,0.3295C30.7787,37.2095,30.6292,37.0635,30.6292,36.8845z"/>
		<path class="st4" d="M28.8278,36.8149c0.0465-0.1795,0.2305-0.281,0.4015-0.2354c0.1764,0.047,0.281,0.2279,0.2345,0.4039
			c-0.0465,0.1774-0.2275,0.2789-0.403,0.2324C28.8833,37.1689,28.7818,36.985,28.8278,36.8149z"/>
		<path class="st4" d="M27.1024,36.2761c0.091-0.156,0.295-0.209,0.45-0.1175c0.1604,0.0915,0.214,0.2889,0.1209,0.449
			c-0.0914,0.1564-0.2904,0.2095-0.4504,0.1195C27.0684,36.634,27.0155,36.4325,27.1024,36.2761z"/>
		<path class="st4" d="M25.5756,35.3156c0.1305-0.134,0.3395-0.129,0.4675,0c0.1299,0.1254,0.131,0.3375,0,0.4624
			c-0.13,0.1295-0.337,0.1295-0.4665,0C25.4486,35.6481,25.4486,35.4411,25.5756,35.3156z"/>
		<path class="st4" d="M24.3517,33.9877c0.158-0.0915,0.36-0.037,0.4525,0.1205c0.0905,0.158,0.0365,0.3604-0.123,0.4509
			c-0.158,0.0915-0.3575,0.033-0.4495-0.121C24.1408,34.2777,24.1942,34.0777,24.3517,33.9877z"/>
		<path class="st4" d="M23.5112,32.3889c0.1774-0.0465,0.3575,0.059,0.4045,0.235c0.0475,0.1769-0.0569,0.3585-0.234,0.4044
			c-0.1765,0.046-0.3529-0.0595-0.4015-0.2334C23.2358,32.6173,23.3368,32.4383,23.5112,32.3889z"/>
		<path class="st4" d="M23.1127,30.629c0.185,0,0.3295,0.151,0.3305,0.33c0,0.1825-0.1465,0.3324-0.3305,0.328
			c-0.1814,0-0.3259-0.1455-0.3285-0.328C22.7868,30.7785,22.9323,30.629,23.1127,30.629z"/>
		<path class="st4" d="M23.1833,28.8252c0.1779,0.0485,0.2815,0.2315,0.2345,0.405c-0.0445,0.175-0.2284,0.2805-0.4034,0.2325
			c-0.176-0.0465-0.279-0.227-0.235-0.4025C22.8303,28.8832,23.0133,28.7811,23.1833,28.8252z"/>
		<path class="st4" d="M23.7187,27.1013c0.1611,0.095,0.2126,0.294,0.1226,0.4509c-0.09,0.159-0.293,0.214-0.452,0.121
			c-0.1555-0.091-0.207-0.2905-0.1205-0.4509C23.3643,27.0678,23.5648,27.0153,23.7187,27.1013z"/>
		<path class="st4" d="M24.6827,25.576c0.1294,0.131,0.1294,0.338,0.0009,0.4669c-0.1254,0.13-0.3375,0.1311-0.466,0
			c-0.1259-0.1294-0.1259-0.3359,0-0.4655C24.3472,25.4475,24.5582,25.4475,24.6827,25.576z"/>
		<path class="st4" d="M26.0081,24.3521c0.0925,0.1599,0.0375,0.3589-0.1175,0.4509c-0.158,0.0925-0.3604,0.0365-0.4509-0.1215
			c-0.091-0.1599-0.0375-0.3589,0.1195-0.4514C25.7211,24.1416,25.9205,24.1941,26.0081,24.3521z"/>
		<path class="st4" d="M27.6069,23.5107c0.0475,0.1769-0.061,0.354-0.232,0.4044c-0.1754,0.049-0.3594-0.058-0.4034-0.235
			c-0.047-0.1755,0.056-0.3519,0.2305-0.4039C27.3819,23.2347,27.5609,23.3352,27.6069,23.5107z"/>
		<g>
			<polygon class="st4" points="29.8537,29.9771 30.0512,27.2268 29.8363,23.0802 29.6422,27.2283 			"/>
			<polygon class="st4" points="29.8537,29.9771 30.7577,27.3688 31.621,23.3107 30.3611,27.2664 			"/>
			<polygon class="st4" points="29.8537,29.9771 31.4021,27.6913 33.2879,23.9956 31.0466,27.4908 			"/>
			<polygon class="st4" points="29.8537,29.9771 31.9425,28.1712 34.7193,25.0875 31.6521,27.8817 			"/>
			<polygon class="st4" points="29.8537,29.9771 32.3345,28.7707 35.8172,26.5113 32.1335,28.4178 			"/>
			<polygon class="st4" points="29.8537,29.9771 32.565,29.4551 36.5122,28.1732 32.4575,29.0602 			"/>
			<polygon class="st4" points="29.8537,29.9771 32.6085,30.1756 36.7521,29.9566 32.6085,29.7651 			"/>
			<polygon class="st4" points="29.8537,29.9771 32.4644,30.881 36.5266,31.745 32.57,30.4885 			"/>
			<polygon class="st4" points="29.8537,29.9771 32.1425,31.5244 35.8377,33.4093 32.343,31.1704 			"/>
			<polygon class="st4" points="29.8537,29.9771 31.6621,32.0649 34.7448,34.8427 31.9521,31.7739 			"/>
			<polygon class="st4" points="29.8537,29.9771 31.0616,32.4619 33.3224,35.9431 31.416,32.2564 			"/>
			<polygon class="st4" points="29.8537,29.9771 30.3777,32.6879 31.66,36.6355 30.7721,32.5833 			"/>
			<polygon class="st4" points="29.8537,29.9771 29.6577,32.7318 29.8762,36.8775 30.0671,32.7318 			"/>
			<polygon class="st4" points="29.8537,29.9771 28.9528,32.5868 28.0873,36.648 29.3482,32.6924 			"/>
			<polygon class="st4" points="29.8537,29.9771 28.3093,32.2629 26.4255,35.962 28.6618,32.4648 			"/>
			<polygon class="st4" points="29.8537,29.9771 27.7709,31.7839 24.9941,34.8691 28.0573,32.0745 			"/>
			<polygon class="st4" points="29.8537,29.9771 27.3749,31.185 23.8888,33.4447 27.5799,31.5384 			"/>
			<polygon class="st4" points="29.8537,29.9771 27.1464,30.5041 23.1973,31.7829 27.2534,30.896 			"/>
			<polygon class="st4" points="29.8537,29.9771 27.1024,29.7796 22.9558,29.9991 27.1024,30.1911 			"/>
			<polygon class="st4" points="29.8537,29.9771 27.246,29.0756 23.1883,28.2152 27.1409,29.4701 			"/>
			<polygon class="st4" points="29.8537,29.9771 27.5684,28.4312 23.8702,26.5479 27.3664,28.7851 			"/>
			<polygon class="st4" points="29.8537,29.9771 28.0479,27.8947 24.9637,25.116 27.7594,28.1807 			"/>
			<polygon class="st4" points="29.8537,29.9771 28.6473,27.4973 26.3865,24.0161 28.2933,27.7008 			"/>
			<polygon class="st4" points="29.8537,29.9771 29.3332,27.2683 28.0479,23.3201 28.9362,27.3748 			"/>
		</g>
		<g>
			<path class="st4" d="M32.0255,22.4353c-4.1761-1.12-8.4733,1.3593-9.5916,5.5365c-1.1179,4.1792,1.3614,8.4717,5.5384,9.5932
				c4.1777,1.1194,8.4713-1.3594,9.5932-5.538C38.6849,27.8488,36.2052,23.5561,32.0255,22.4353z M28.2033,36.703
				c-3.7006-0.9949-5.9005-4.7981-4.9066-8.4988c0.9939-3.7042,4.7956-5.8985,8.5008-4.9071
				c3.6976,0.9919,5.8979,4.7966,4.904,8.4988C35.7102,35.496,31.9051,37.6944,28.2033,36.703z"/>
			<path class="st4" d="M31.347,30.361c-0.1995,0.7424-0.9648,1.1849-1.7069,0.9849c-0.7449-0.1979-1.1859-0.9629-0.9879-1.7078
				c0.201-0.746,0.9644-1.184,1.7088-0.9835C31.1076,28.8517,31.5451,29.6171,31.347,30.361z"/>
		</g>
		<path class="st4" d="M32.894,23.7181c-0.091,0.161-0.2925,0.214-0.4485,0.123c-0.1575-0.0925-0.2119-0.29-0.1205-0.4504
			c0.0915-0.1559,0.2905-0.2135,0.4505-0.1225C32.9309,23.3601,32.9845,23.5646,32.894,23.7181z"/>
		<path class="st4" d="M34.4203,24.6835c-0.1275,0.129-0.3354,0.128-0.4655,0c-0.128-0.1285-0.128-0.3375,0-0.467
			c0.13-0.1289,0.338-0.1289,0.4655,0C34.5518,24.3461,34.5518,24.555,34.4203,24.6835z"/>
		<path class="st4" d="M35.6472,26.0089c-0.1599,0.091-0.3594,0.0355-0.4524-0.119c-0.091-0.1585-0.0371-0.3604,0.1225-0.452
			c0.159-0.09,0.3595-0.037,0.4509,0.1225C35.8587,25.7165,35.8051,25.9199,35.6472,26.0089z"/>
		<path class="st4" d="M35.3162,34.4237c-0.131-0.1325-0.1285-0.339,0-0.4679c0.126-0.129,0.3354-0.129,0.463,0
			c0.1289,0.1289,0.1289,0.3354,0,0.4654C35.6492,34.5467,35.4423,34.5467,35.3162,34.4237z"/>
		<path class="st4" d="M33.9899,35.6471c-0.0935-0.1604-0.04-0.36,0.1185-0.4515c0.156-0.091,0.359-0.0369,0.4509,0.1211
			c0.092,0.1564,0.039,0.3585-0.1204,0.4509C34.2798,35.8541,34.0773,35.8011,33.9899,35.6471z"/>
		<path class="st4" d="M32.3895,36.486c-0.0465-0.1794,0.0585-0.3569,0.234-0.4029c0.1755-0.047,0.3585,0.0545,0.4055,0.234
			c0.0465,0.177-0.0585,0.3555-0.2334,0.401C32.6165,36.764,32.4389,36.6585,32.3895,36.486z"/>
		<path class="st4" d="M30.6292,36.8845c0-0.1835,0.1495-0.328,0.329-0.328c0.1835-0.001,0.3334,0.1445,0.3334,0.328
			c0,0.1825-0.149,0.3295-0.3334,0.3295C30.7787,37.2095,30.6292,37.0635,30.6292,36.8845z"/>
		<path class="st4" d="M28.8278,36.8149c0.0465-0.1795,0.2305-0.281,0.4015-0.2354c0.1764,0.047,0.281,0.2279,0.2345,0.4039
			c-0.0465,0.1774-0.2275,0.2789-0.403,0.2324C28.8833,37.1689,28.7818,36.985,28.8278,36.8149z"/>
		<path class="st4" d="M27.1024,36.2761c0.091-0.156,0.295-0.209,0.45-0.1175c0.1604,0.0915,0.214,0.2889,0.1209,0.449
			c-0.0914,0.1564-0.2904,0.2095-0.4504,0.1195C27.0684,36.634,27.0155,36.4325,27.1024,36.2761z"/>
		<path class="st4" d="M25.5756,35.3156c0.1305-0.134,0.3395-0.129,0.4675,0c0.1299,0.1254,0.131,0.3375,0,0.4624
			c-0.13,0.1295-0.337,0.1295-0.4665,0C25.4486,35.6481,25.4486,35.4411,25.5756,35.3156z"/>
		<path class="st4" d="M24.3517,33.9877c0.158-0.0915,0.36-0.037,0.4525,0.1205c0.0905,0.158,0.0365,0.3604-0.123,0.4509
			c-0.158,0.0915-0.3575,0.033-0.4495-0.121C24.1408,34.2777,24.1942,34.0777,24.3517,33.9877z"/>
		<path class="st4" d="M23.5112,32.3889c0.1774-0.0465,0.3575,0.059,0.4045,0.235c0.0475,0.1769-0.0569,0.3585-0.234,0.4044
			c-0.1765,0.046-0.3529-0.0595-0.4015-0.2334C23.2358,32.6173,23.3368,32.4383,23.5112,32.3889z"/>
		<path class="st4" d="M23.1127,30.629c0.185,0,0.3295,0.151,0.3305,0.33c0,0.1825-0.1465,0.3324-0.3305,0.328
			c-0.1814,0-0.3259-0.1455-0.3285-0.328C22.7868,30.7785,22.9323,30.629,23.1127,30.629z"/>
		<path class="st4" d="M23.1833,28.8252c0.1779,0.0485,0.2815,0.2315,0.2345,0.405c-0.0445,0.175-0.2284,0.2805-0.4034,0.2325
			c-0.176-0.0465-0.279-0.227-0.235-0.4025C22.8303,28.8832,23.0133,28.7811,23.1833,28.8252z"/>
		<path class="st4" d="M23.7187,27.1013c0.1611,0.095,0.2126,0.294,0.1226,0.4509c-0.09,0.159-0.293,0.214-0.452,0.121
			c-0.1555-0.091-0.207-0.2905-0.1205-0.4509C23.3643,27.0678,23.5648,27.0153,23.7187,27.1013z"/>
		<path class="st4" d="M24.6827,25.576c0.1294,0.131,0.1294,0.338,0.0009,0.4669c-0.1254,0.13-0.3375,0.1311-0.466,0
			c-0.1259-0.1294-0.1259-0.3359,0-0.4655C24.3472,25.4475,24.5582,25.4475,24.6827,25.576z"/>
		<path class="st4" d="M26.0081,24.3521c0.0925,0.1599,0.0375,0.3589-0.1175,0.4509c-0.158,0.0925-0.3604,0.0365-0.4509-0.1215
			c-0.091-0.1599-0.0375-0.3589,0.1195-0.4514C25.7211,24.1416,25.9205,24.1941,26.0081,24.3521z"/>
		<path class="st4" d="M27.6069,23.5107c0.0475,0.1769-0.061,0.354-0.232,0.4044c-0.1754,0.049-0.3594-0.058-0.4034-0.235
			c-0.047-0.1755,0.056-0.3519,0.2305-0.4039C27.3819,23.2347,27.5609,23.3352,27.6069,23.5107z"/>
		<path class="st4" d="M29.3672,23.1127c-0.0014,0.1845-0.1485,0.3295-0.3299,0.331c-0.1785,0.002-0.3305-0.1465-0.329-0.331
			c0-0.1819,0.1495-0.328,0.329-0.328C29.2192,22.7868,29.3672,22.9332,29.3672,23.1127z"/>
	</g>
</g>
</svg>
