<?xml version="1.0" encoding="utf-8"?>
<!-- Generator: Adobe Illustrator 21.1.0, SVG Export Plug-In . SVG Version: 6.00 Build 0)  -->
<svg version="1.1" id="Layer_1" xmlns="http://www.w3.org/2000/svg" xmlns:xlink="http://www.w3.org/1999/xlink" x="0px" y="0px"
	 viewBox="0 0 60 60" style="enable-background:new 0 0 60 60;" xml:space="preserve">
<style type="text/css">
	.st0{clip-path:url(#SVGID_2_);fill:#00247D;}
	.st1{clip-path:url(#SVGID_4_);fill:#FFFFFF;}
	.st2{fill:none;}
	.st3{clip-path:url(#SVGID_6_);fill:none;}
	.st4{clip-path:url(#SVGID_8_);fill:none;}
	.st5{clip-path:url(#SVGID_10_);fill:#002B7F;}
	.st6{clip-path:url(#SVGID_12_);fill:#00247D;}
	.st7{clip-path:url(#SVGID_14_);fill:#FFFFFF;}
	.st8{clip-path:url(#SVGID_16_);fill:#FFFFFF;}
	.st9{clip-path:url(#SVGID_18_);fill:#CF142B;}
	.st10{clip-path:url(#SVGID_20_);fill:#CF142B;}
	.st11{fill:#954215;}
	.st12{fill:#FFFFFF;}
	.st13{fill:#2D6F0D;}
	.st14{fill:#9B9B9B;}
	.st15{fill:#BA0019;}
	.st16{fill:#EFD930;}
	.st17{fill:#1C2A7D;}
	.st18{fill:#4D822C;}
</style>
<title>Flag of Barbados</title>
<g>
	<defs>
		<circle id="SVGID_1_" cx="30" cy="30" r="30"/>
	</defs>
	<clipPath id="SVGID_2_">
		<use xlink:href="#SVGID_1_"  style="overflow:visible;"/>
	</clipPath>
	<rect id="rect2414_2_" x="-30.4259" y="-0.2126" class="st0" width="120.8518" height="60.4256"/>
</g>
<g>
	<defs>
		<circle id="SVGID_3_" cx="30" cy="30" r="30"/>
	</defs>
	<clipPath id="SVGID_4_">
		<use xlink:href="#SVGID_3_"  style="overflow:visible;"/>
	</clipPath>
	<rect x="-45.6763" y="-1.4482" class="st1" width="106.7059" height="62.2446"/>
</g>
<circle class="st2" cx="30" cy="30" r="30"/>
<circle class="st2" cx="30" cy="30" r="30"/>
<circle class="st2" cx="30" cy="30" r="30"/>
<circle class="st2" cx="30" cy="30" r="30"/>
<circle class="st2" cx="30" cy="30" r="30"/>
<circle class="st2" cx="30" cy="30" r="30"/>
<circle class="st2" cx="30" cy="30" r="30"/>
<g>
	<defs>
		<circle id="SVGID_5_" cx="30" cy="30" r="30"/>
	</defs>
	<clipPath id="SVGID_6_">
		<use xlink:href="#SVGID_5_"  style="overflow:visible;"/>
	</clipPath>
	<rect x="-45.6763" y="-1.4482" class="st3" width="106.7059" height="62.2446"/>
</g>
<g>
	<defs>
		<circle id="SVGID_7_" cx="30" cy="30" r="30"/>
	</defs>
	<clipPath id="SVGID_8_">
		<use xlink:href="#SVGID_7_"  style="overflow:visible;"/>
	</clipPath>
	<rect x="-45.6763" y="-1.4482" class="st4" width="106.7059" height="62.2446"/>
</g>
<g>
	<defs>
		<circle id="SVGID_9_" cx="30" cy="30" r="30"/>
	</defs>
	<clipPath id="SVGID_10_">
		<use xlink:href="#SVGID_9_"  style="overflow:visible;"/>
	</clipPath>
	<path id="wave_11_" class="st5" d="M91.1641,52.0244c-1.3707,0.8247-2.5483,2.752-6.1898,2.752
		c-7.2808,0-9.1014-4.0576-14.5625-4.0576c-3.6405,0-5.4609,4.0576-9.1014,4.0576c-7.2816,0-9.1018-4.0576-14.563-4.0576
		c-3.6407,0-5.4611,4.0576-9.1018,4.0576c-7.2814,0-9.1018-4.0576-14.5628-4.0576c-3.6409,0-5.4611,4.0576-9.1018,4.0576
		c-7.2814,0-9.1018-4.0576-14.563-4.0576c-3.6409,0-5.4611,4.0576-9.1018,4.0576c-7.2814,0-9.1018-4.0576-14.5628-4.0576
		c-3.6409,0-4.7331,2.8914-6.9174,2.8914v5.2236c2.1844,0,3.2766-2.8912,6.9174-2.8912c5.4609,0,7.2814,4.0574,14.5628,4.0574
		c3.6407,0,5.4609-4.0574,9.1018-4.0574C4.8789,55.9426,6.6996,60,13.9809,60c3.6407,0,5.4609-4.0574,9.1018-4.0574
		c5.4609,0,7.2814,4.0574,14.5628,4.0574c3.6407,0,5.4611-4.0574,9.1018-4.0574c5.4611,0,7.2814,4.0574,14.563,4.0574
		c3.6405,0,5.4609-4.0574,9.1014-4.0574c5.4611,0,7.2818,4.0574,14.5625,4.0574c3.6415,0,4.8191-1.1499,6.1898-1.9744V52.0244z"/>
	<path id="wave_10_" class="st5" d="M91.1641,41.8807c-1.3707,0.8247-2.5483,2.752-6.1898,2.752
		c-7.2808,0-9.1014-4.0576-14.5625-4.0576c-3.6405,0-5.4609,4.0576-9.1014,4.0576c-7.2816,0-9.1018-4.0576-14.563-4.0576
		c-3.6407,0-5.4611,4.0576-9.1018,4.0576c-7.2814,0-9.1018-4.0576-14.5628-4.0576c-3.6409,0-5.4611,4.0576-9.1018,4.0576
		c-7.2814,0-9.1018-4.0576-14.563-4.0576c-3.6409,0-5.4611,4.0576-9.1018,4.0576c-7.2814,0-9.1018-4.0576-14.5628-4.0576
		c-3.6409,0-4.7331,2.8914-6.9174,2.8914v5.2236c2.1844,0,3.2766-2.8912,6.9174-2.8912c5.4609,0,7.2814,4.0574,14.5628,4.0574
		c3.6407,0,5.4609-4.0574,9.1018-4.0574c5.4609,0,7.2816,4.0574,14.563,4.0574c3.6407,0,5.4609-4.0574,9.1018-4.0574
		c5.4609,0,7.2814,4.0574,14.5628,4.0574c3.6407,0,5.4611-4.0574,9.1018-4.0574c5.4611,0,7.2814,4.0574,14.563,4.0574
		c3.6405,0,5.4609-4.0574,9.1014-4.0574c5.4611,0,7.2818,4.0574,14.5625,4.0574c3.6415,0,4.8191-1.1499,6.1898-1.9744V41.8807z"/>
	<path id="wave_9_" class="st5" d="M91.1641,31.7369c-1.3707,0.8247-2.5483,2.752-6.1898,2.752
		c-7.2808,0-9.1014-4.0576-14.5625-4.0576c-3.6405,0-5.4609,4.0576-9.1014,4.0576c-7.2816,0-9.1018-4.0576-14.563-4.0576
		c-3.6407,0-5.4611,4.0576-9.1018,4.0576c-7.2814,0-9.1018-4.0576-14.5628-4.0576c-3.6409,0-5.4611,4.0576-9.1018,4.0576
		c-7.2814,0-9.1018-4.0576-14.563-4.0576c-3.6409,0-5.4611,4.0576-9.1018,4.0576c-7.2814,0-9.1018-4.0576-14.5628-4.0576
		c-3.6409,0-4.7331,2.8914-6.9174,2.8914v5.2236c2.1844,0,3.2766-2.8912,6.9174-2.8912c5.4609,0,7.2814,4.0574,14.5628,4.0574
		c3.6407,0,5.4609-4.0574,9.1018-4.0574c5.4609,0,7.2816,4.0574,14.563,4.0574c3.6407,0,5.4609-4.0574,9.1018-4.0574
		c5.4609,0,7.2814,4.0574,14.5628,4.0574c3.6407,0,5.4611-4.0574,9.1018-4.0574c5.4611,0,7.2814,4.0574,14.563,4.0574
		c3.6405,0,5.4609-4.0574,9.1014-4.0574c5.4611,0,7.2818,4.0574,14.5625,4.0574c3.6415,0,4.8191-1.1499,6.1898-1.9744V31.7369z"/>
	<path id="wave_8_" class="st5" d="M91.1641,21.5931c-1.3707,0.8247-2.5483,2.752-6.1898,2.752
		c-7.2808,0-9.1014-4.0576-14.5625-4.0576c-3.6405,0-5.4609,4.0576-9.1014,4.0576c-7.2816,0-9.1018-4.0576-14.563-4.0576
		c-3.6407,0-5.4611,4.0576-9.1018,4.0576c-7.2814,0-9.1018-4.0576-14.5628-4.0576c-3.6409,0-5.4611,4.0576-9.1018,4.0576
		c-7.2814,0-9.1018-4.0576-14.563-4.0576c-3.6409,0-5.4611,4.0576-9.1018,4.0576c-7.2814,0-9.1018-4.0576-14.5628-4.0576
		c-3.6409,0-4.7331,2.8914-6.9174,2.8914v5.2236c2.1844,0,3.2766-2.8912,6.9174-2.8912c5.4609,0,7.2814,4.0574,14.5628,4.0574
		c3.6407,0,5.4609-4.0574,9.1018-4.0574c5.4609,0,7.2816,4.0574,14.563,4.0574c3.6407,0,5.4609-4.0574,9.1018-4.0574
		c5.4609,0,7.2814,4.0574,14.5628,4.0574c3.6407,0,5.4611-4.0574,9.1018-4.0574c5.4611,0,7.2814,4.0574,14.563,4.0574
		c3.6405,0,5.4609-4.0574,9.1014-4.0574c5.4611,0,7.2818,4.0574,14.5625,4.0574c3.6415,0,4.8191-1.1499,6.1898-1.9744V21.5931z"/>
	<path id="wave_7_" class="st5" d="M91.1641,11.4494c-1.3707,0.8247-2.5483,2.752-6.1898,2.752
		c-7.2808,0-9.1014-4.0576-14.5625-4.0576c-3.6405,0-5.4609,4.0576-9.1014,4.0576c-7.2816,0-9.1018-4.0576-14.563-4.0576
		c-3.6407,0-5.4611,4.0576-9.1018,4.0576c-7.2814,0-9.1018-4.0576-14.5628-4.0576c-3.6409,0-5.4611,4.0576-9.1018,4.0576
		c-7.2814,0-9.1018-4.0576-14.563-4.0576c-3.6409,0-5.4611,4.0576-9.1018,4.0576c-7.2814,0-9.1018-4.0576-14.5628-4.0576
		c-3.6409,0-4.7331,2.8914-6.9174,2.8914v5.2236c2.1844,0,3.2766-2.8912,6.9174-2.8912c5.4609,0,7.2814,4.0574,14.5628,4.0574
		c3.6407,0,5.4609-4.0574,9.1018-4.0574c5.4609,0,7.2816,4.0574,14.563,4.0574c3.6407,0,5.4609-4.0574,9.1018-4.0574
		c5.4609,0,7.2814,4.0574,14.5628,4.0574c3.6407,0,5.4611-4.0574,9.1018-4.0574c5.4611,0,7.2814,4.0574,14.563,4.0574
		c3.6405,0,5.4609-4.0574,9.1014-4.0574c5.4611,0,7.2818,4.0574,14.5625,4.0574c3.6415,0,4.8191-1.1499,6.1898-1.9744V11.4494z"/>
	<path id="wave_6_" class="st5" d="M91.1641,1.3056c-1.3707,0.8247-2.5483,2.752-6.1898,2.752C77.6935,4.0576,75.8728,0,70.4117,0
		c-3.6405,0-5.4609,4.0576-9.1014,4.0576C54.0287,4.0576,52.2085,0,46.7473,0c-3.6407,0-5.4611,4.0576-9.1018,4.0576
		C30.3641,4.0576,28.5437,0,23.0828,0c-3.6409,0-5.4611,4.0576-9.1018,4.0576C6.6996,4.0576,4.8791,0-0.582,0
		c-3.6409,0-5.4611,4.0576-9.1018,4.0576C-16.9652,4.0576-18.7857,0-24.2466,0c-3.6409,0-4.7331,2.8914-6.9174,2.8914V8.115
		c2.1844,0,3.2766-2.8912,6.9174-2.8912c5.4609,0,7.2814,4.0574,14.5628,4.0574c3.6407,0,5.4609-4.0574,9.1018-4.0574
		c5.4609,0,7.2816,4.0574,14.563,4.0574c3.6407,0,5.4609-4.0574,9.1018-4.0574c5.4609,0,7.2814,4.0574,14.5628,4.0574
		c3.6407,0,5.4611-4.0574,9.1018-4.0574c5.4611,0,7.2814,4.0574,14.563,4.0574c3.6405,0,5.4609-4.0574,9.1014-4.0574
		c5.4611,0,7.2818,4.0574,14.5625,4.0574c3.6415,0,4.8191-1.1499,6.1898-1.9744V1.3056z"/>
</g>
<g>
	<g>
		<defs>
			<circle id="SVGID_11_" cx="30" cy="30" r="30"/>
		</defs>
		<clipPath id="SVGID_12_">
			<use xlink:href="#SVGID_11_"  style="overflow:visible;"/>
		</clipPath>
		<rect id="rect124_2_" x="-30.4259" y="-0.2126" class="st6" width="60.4259" height="30.2127"/>
	</g>
</g>
<g>
	<g>
		<defs>
			<circle id="SVGID_13_" cx="30" cy="30" r="30"/>
		</defs>
		<clipPath id="SVGID_14_">
			<use xlink:href="#SVGID_13_"  style="overflow:visible;"/>
		</clipPath>
		<path id="path146_2_" class="st7" d="M-30.4259-0.2126v3.3771L23.2445,30H30v-3.3775L-23.6704-0.2126H-30.4259z M30-0.2126v3.3771
			L-23.6704,30h-6.7555v-3.3775L23.2445-0.2126H30z"/>
	</g>
</g>
<g>
	<g>
		<defs>
			<circle id="SVGID_15_" cx="30" cy="30" r="30"/>
		</defs>
		<clipPath id="SVGID_16_">
			<use xlink:href="#SVGID_15_"  style="overflow:visible;"/>
		</clipPath>
		<path id="path136_2_" class="st8" d="M-5.2483-0.2126v30.2127h10.071V-0.2126H-5.2483z M-30.4259,9.8578v10.0709H30V9.8578
			H-30.4259z"/>
	</g>
</g>
<g>
	<g>
		<defs>
			<circle id="SVGID_17_" cx="30" cy="30" r="30"/>
		</defs>
		<clipPath id="SVGID_18_">
			<use xlink:href="#SVGID_17_"  style="overflow:visible;"/>
		</clipPath>
		<path id="path141_2_" class="st9" d="M-30.4259,11.8722v6.0424H30v-6.0424H-30.4259z M-3.234-0.2126v30.2127h6.0422V-0.2126
			H-3.234z"/>
	</g>
</g>
<g>
	<g>
		<defs>
			<circle id="SVGID_19_" cx="30" cy="30" r="30"/>
		</defs>
		<clipPath id="SVGID_20_">
			<use xlink:href="#SVGID_19_"  style="overflow:visible;"/>
		</clipPath>
		<path id="path150_2_" class="st10" d="M-30.4259,30.0001l20.1421-10.0714h4.5037l-20.1418,10.0714H-30.4259z M-30.4259-0.2126
			l20.1421,10.0704h-4.5037l-15.6384-7.8185V-0.2126z M5.3542,9.8578L25.4963-0.2126H30L9.8579,9.8578H5.3542z M30,30.0001
			L9.8579,19.9286h4.504L30,27.748V30.0001z"/>
	</g>
</g>
<g>
	<path class="st11" d="M43.078,19.3955L42.7631,49.246c0,1.5718,1.4231,1.5718,1.5718,0L44.02,19.3955
		C44.02,19.3955,43.078,19.3955,43.078,19.3955z"/>
	<path class="st12" d="M43.4922,50.5713c-0.4229,0-0.875-0.4155-0.875-1.3253l0.315-29.9964h1.2336v0.1444l0.3149,29.8505
		C44.3933,50.1645,43.9209,50.5713,43.4922,50.5713L43.4922,50.5713z M43.2209,19.5412L42.909,49.2474
		c-0.003,1.4304,1.1431,1.4101,1.2802-0.016l-0.3121-29.6902L43.2209,19.5412L43.2209,19.5412z"/>
	<polygon class="st13" points="46.3267,30.4888 45.3381,29.4039 45.0961,30.5005 44.6645,28.9126 44.262,29.7115 44.192,28.0246 
		43.7896,28.8221 43.7196,27.1336 43.3172,27.9313 43.0898,25.9468 42.6873,26.7457 42.4599,24.7584 42.0573,25.5574 
		41.8271,23.5701 41.7162,22.577 41.9144,22.1774 42.4306,22.3714 43.2618,23.1589 44.9241,24.735 43.8918,24.3472 45.5539,25.9234 
		44.5215,25.5356 46.1838,27.1104 45.1515,26.7225 46.6562,28.0012 45.6269,27.6134 47.1317,28.8921 46.0963,28.5028 
		47.2454,29.8837 46.0556,29.1999 	"/>
	<path class="st12" d="M45.1019,30.8285l-0.4607-1.6972l-0.4433,0.8864l-0.0699-1.6899l-0.4026,0.7976l-0.0728-1.6886
		l-0.3821,0.7627l-0.2303-1.9846l-0.3996,0.8006l-0.2304-1.9875l-0.3996,0.7991l-0.3733-3.2414l0.2071-0.4433l0.6153,0.156
		l2.7996,2.6465L44.227,24.557l1.6623,1.5763l-1.0325-0.3894l1.6622,1.5762l-0.9739-0.366L47.05,28.233l-1.0295-0.3893
		l1.5049,1.2787l-1.1782-0.4418l1.2365,1.4873l-1.4143-0.8136l0.2944,1.3998l-1.0819-1.1855L45.1019,30.8285L45.1019,30.8285z
		 M45.2944,29.2391l0.8982,0.9843l-0.2508-1.1795l0.9653,0.5541l-1.0586-1.2715l0.8894,0.3339l-1.5048-1.2787l1.0324,0.3879
		l-1.5078-1.2773l1.0907,0.4097l-1.6593-1.5762l1.0293,0.3879l-1.6593-1.5763l1.0295,0.3879L42.378,22.43l-0.4929-0.1778
		l-0.0992,0.3601l0.3209,2.6756l0.3994-0.7991l0.2276,1.9875l0.4024-0.8006l0.2304,1.9875l0.42-0.8326l0.0699,1.6869l0.3996-0.7975
		l0.0729,1.6856l0.3558-0.7116l0.4024,1.4799L45.2944,29.2391L45.2944,29.2391z"/>
	<polygon points="45.1049,30.5018 45.2127,28.4123 44.9036,27.8322 44.2767,29.716 44.8978,27.819 44.4282,26.9397 43.8013,28.8251 
		44.4224,26.9266 43.7984,25.7543 43.3288,27.9326 43.7954,25.7426 43.1685,24.566 42.6989,26.7472 43.1627,24.5542 
		42.5386,23.3789 42.0691,25.5589 42.5327,23.3673 41.9028,22.1834 42.5357,23.363 44.9299,24.7249 44.9183,24.7453 
		42.5416,23.3776 43.1713,24.5542 45.5599,25.9132 45.548,25.9337 43.1802,24.5688 43.8071,25.7426 46.1896,27.1001 46.178,27.122 
		43.8129,25.7572 44.44,26.9309 46.6621,27.991 46.6534,28.0115 44.4487,26.947 44.9183,27.8218 47.1345,28.8819 47.1258,28.9024 
		44.9241,27.838 45.242,28.4314 47.2512,29.8734 47.2396,29.8923 45.2478,28.443 46.3384,30.4829 46.318,30.4932 45.2157,28.4212 	
		"/>
	<polygon class="st13" points="34.7465,16.3231 36.362,16.9386 35.8924,15.7181 37.304,17.1091 37.1698,16.1104 38.3129,17.7755 
		38.1758,16.7796 39.3191,18.4447 39.1879,17.4474 40.6635,19.3356 40.5293,18.3397 42.0077,20.225 41.8737,19.2307 
		43.3522,21.1175 44.09,22.0623 44.1571,22.5595 43.5504,22.6134 42.2732,22.2212 39.7185,21.4369 40.9288,21.3289 38.3743,20.5459 
		39.5874,20.438 37.0299,19.6535 38.2401,19.5485 36.0209,18.9858 37.234,18.8793 35.0148,18.3164 36.225,18.2115 34.2741,17.3731 
		35.8225,17.4912 	"/>
	<path class="st12" d="M43.5418,22.7083l-4.3101-1.3225l1.2102-0.108l-2.5546-0.783l1.2132-0.1065l-2.5605-0.786l1.1403-0.0992
		l-2.2164-0.5613l1.2103-0.108l-2.2222-0.5629l1.391-0.1209l-2.123-0.914l1.8722,0.1429l-1.184-1.286l1.7905,0.6838l-0.5482-1.4291
		l1.5224,1.5019l-0.1487-1.117l1.1402,1.6638l-0.1341-0.9959l1.1431,1.6681l-0.1254-0.9507l1.4756,1.8867l-0.1313-0.9944
		l1.4756,1.8853l-0.1341-0.9959l2.4321,3.1043l0.0992,0.6416L43.5418,22.7083L43.5418,22.7083z M40.2056,21.4865l3.3566,1.0323
		l0.4899-0.0437l-0.0554-0.4011l-1.983-2.5138l0.1341,0.9944l-1.4785-1.8853l0.1312,0.9959l-1.4756-1.8882l0.1399,1.0455
		l-1.1403-1.6637l0.1342,0.9959l-1.1431-1.6651l0.1195,0.8778l-1.3005-1.2773l0.3908,1.0119l-1.4377-0.5482l0.9653,1.0485
		l-1.222-0.0918l1.7731,0.7625l-1.0294,0.0905l2.2162,0.5599l-1.2102,0.1078l2.2222,0.5629l-1.2862,0.1123l2.5576,0.783
		l-1.2132,0.108l2.5547,0.783L40.2056,21.4865L40.2056,21.4865z"/>
	<polygon points="44.1659,22.5494 42.8243,21.6643 39.7185,21.4513 39.7185,21.4222 42.8098,21.6555 41.4683,20.7705 
		38.3743,20.5604 38.3771,20.5313 41.4538,20.7617 40.1181,19.881 37.0269,19.6681 37.0299,19.639 40.1036,19.8722 38.7708,18.9929 
		36.0209,19.0003 36.0209,18.9712 38.7562,18.9828 37.756,18.3238 35.0148,18.3311 35.0148,18.3033 37.7385,18.3136 
		37.0648,17.8673 34.2741,17.3876 34.2769,17.3584 37.0532,17.86 34.7407,16.3349 34.7551,16.3115 37.0997,17.866 35.8808,15.7255 
		37.1086,17.8718 37.7706,18.3106 37.1552,16.1147 37.7851,18.3194 38.7795,18.9785 38.1642,16.7839 38.7912,18.9871 
		40.1239,19.8693 39.1733,17.4517 40.1355,19.878 41.4683,20.7602 40.5146,18.3442 41.4799,20.769 42.8098,21.6511 41.862,19.235 
		42.8243,21.6599 	"/>
	<polygon class="st13" points="53.5037,18.4054 52.1621,19.3897 53.6435,19.5574 51.5731,20.0442 52.6782,20.3738 50.4358,20.5356 
		51.541,20.8638 49.2984,21.027 50.4036,21.3566 47.7819,21.6847 48.8843,22.0127 46.2655,22.3365 47.3679,22.6675 44.7461,22.994 
		43.4368,23.1544 42.8856,22.9925 43.0927,22.4998 44.0549,21.6802 45.9855,20.0399 45.5743,21.0257 47.5049,19.3867 
		47.0879,20.371 49.0185,18.7306 48.6073,19.7147 50.1586,18.2406 49.7446,19.2233 51.2959,17.7463 50.8819,18.7319 52.6084,17.586 
		51.8151,18.7319 	"/>
	<path class="st12" d="M43.428,23.2537l-0.6737-0.1998l0.248-0.5905l3.2282-2.7573l-0.4142,0.9856l1.9306-1.6388l-0.4112,0.9827
		l1.9276-1.639l-0.3908,0.9332l1.5543-1.4756l-0.4141,0.9827l1.5485-1.4755l-0.4666,1.114l1.878-1.2482l-0.9448,1.3648l1.878-0.3616
		l-1.4902,1.0907l1.7907,0.2026l-2.2601,0.5321l1.2627,0.3762l-2.2397,0.1619l1.1023,0.328l-2.2397,0.1633l1.0352,0.3091
		l-2.6187,0.3282l1.1053,0.3295l-2.6217,0.3237l1.1023,0.3309L43.428,23.2537L43.428,23.2537z M43.014,22.93l0.4315,0.1268
		l3.4558-0.4287l-1.1023-0.3295l2.6188-0.3252l-1.1023-0.328l2.6217-0.328l-1.1694-0.3485l2.2425-0.1618l-1.1052-0.3295
		l2.2426-0.1604l-0.9449-0.2844l1.8782-0.4433l-1.1752-0.1311l1.1956-0.8765l-1.5018,0.2902l0.6444-0.9273l-1.5718,1.044
		l0.3586-0.8559l-1.5543,1.4785l0.414-0.9843l-1.5485,1.4741l0.4345-1.0367l-1.9305,1.6403l0.414-0.9843l-1.9304,1.639l0.414-0.9858
		l-2.5896,2.2004L43.014,22.93L43.014,22.93z"/>
	<polygon points="42.8914,23.0057 44.4021,22.3481 45.9739,20.0311 45.9972,20.0487 44.4166,22.3408 45.9243,21.6847 
		47.4903,19.3794 47.5166,19.3955 45.9389,21.6802 47.4437,21.0242 49.0067,18.7218 49.033,18.7378 47.4582,21.0184 
		48.9629,20.3636 50.147,18.2333 50.1703,18.2479 48.9776,20.3578 50.1032,19.8679 51.2843,17.7405 51.3077,17.7536 
		50.1207,19.8606 50.8849,19.5281 52.5966,17.5772 52.62,17.5947 50.8965,19.5238 53.4978,18.3923 53.5095,18.4199 50.8644,19.5617 
		53.6435,19.5427 50.8528,19.566 50.1062,19.8882 52.6812,20.3608 50.0916,19.8955 48.9689,20.3796 51.5439,20.8492 
		48.9513,20.3869 47.4554,21.0343 50.4036,21.3421 47.4408,21.0401 45.9331,21.6906 48.8873,21.9981 45.9213,21.6964 
		44.4166,22.3453 47.3707,22.6528 44.4021,22.3511 	"/>
	<polygon class="st13" points="53.2878,28.338 51.611,27.8524 52.2117,29.0307 50.6573,27.7578 50.8965,28.7406 49.5842,27.1716 
		49.8204,28.1558 48.5052,26.5869 48.7472,27.5697 47.0704,25.8052 47.3125,26.7895 45.6386,25.0223 45.8776,26.008 
		44.2037,24.2436 43.3668,23.3615 43.2472,22.8701 43.8422,22.7681 45.1603,23.0597 47.7877,23.6386 46.5922,23.8412 
		49.2226,24.4186 48.0269,24.6199 50.6573,25.2003 49.4616,25.4029 51.7306,25.7863 50.5377,25.9876 52.8067,26.374 51.611,26.5737 
		53.6435,27.2533 52.0892,27.2591 	"/>
	<path class="st12" d="M52.5032,29.3908l-1.6856-1.3793l0.2655,1.1023l-1.3123-1.5704l0.2391,0.9843l-1.3152-1.5675l0.2304,0.9346
		l-1.6769-1.7643l0.242,0.9842l-1.6768-1.7672l0.239,0.9842l-2.7558-2.9045l-0.1662-0.6329l0.697-0.1195l4.456,0.977l-1.1929,0.2011
		l2.6306,0.5789l-1.1957,0.1998l2.6274,0.5804l-1.1227,0.191l2.2717,0.3834l-1.1956,0.2013l2.2718,0.3864l-1.3735,0.2304
		l2.2163,0.7422l-1.8839,0.0072l1.3211,1.1913l-1.8605-0.5394L52.5032,29.3908L52.5032,29.3908z M50.4998,27.504l1.4232,1.1651
		l-0.4959-0.9696l1.4873,0.4317l-1.0703-0.9653l1.222-0.0058l-1.8459-0.6168l1.0149-0.1706l-2.269-0.3864l1.1928-0.1998
		l-2.2659-0.3834l1.2655-0.2144l-2.6304-0.5817l1.1927-0.1998l-2.6274-0.5789l1.1956-0.2026l-3.4674-0.764l-0.4579,0.0845
		L43.46,23.34l2.2397,2.3446l-0.2392-0.9858l1.6739,1.7644l-0.239-0.9828l1.6739,1.7643l-0.2536-1.0324l1.3181,1.5718
		l-0.2392-0.9856l1.3153,1.5703L50.4998,27.504L50.4998,27.504z"/>
	<polygon points="52.2233,29.0219 50.7653,26.982 50.0653,26.6001 50.911,28.7361 50.0508,26.5912 48.9864,26.0123 49.8349,28.1514 
		48.9718,26.005 47.5515,25.2322 48.7589,27.5638 47.5399,25.225 46.1168,24.4507 47.3241,26.7822 46.1051,24.4434 44.6821,23.6692 
		45.8894,26.0022 44.6703,23.6619 43.2385,22.8818 44.6733,23.6589 47.7877,23.624 47.7877,23.6531 44.6879,23.6677 
		46.1168,24.4405 49.2226,24.4041 49.2226,24.4332 46.1314,24.4478 47.5545,25.2192 50.6573,25.1856 50.6573,25.2147 
		47.5692,25.2264 48.9951,25.9992 51.7306,25.7718 51.7334,25.8009 49.0127,26.008 50.0711,26.5811 52.8067,26.3593 
		52.8095,26.3886 50.0888,26.5912 50.8149,26.9835 53.6465,27.2387 53.6435,27.2677 50.8265,26.9908 53.2936,28.3263 
		53.2791,28.3497 50.7769,26.9878 	"/>
	<polygon class="st13" points="35.8547,28.9184 36.6945,27.7447 35.4142,27.9298 36.9948,27.0301 35.9857,26.985 37.8026,26.3404 
		36.7937,26.2953 38.6105,25.6507 37.5985,25.6026 39.6866,24.7292 38.6745,24.6841 40.7626,23.8063 39.7536,23.7625 
		41.8416,22.8891 42.8827,22.4502 43.3901,22.4735 43.3551,22.9547 42.7864,23.8996 41.6463,25.7863 41.7103,24.8197 
		40.5702,26.7065 40.6342,25.7397 39.4911,27.6279 39.5582,26.6612 38.6862,28.3177 38.7504,27.3524 37.8784,29.0087 
		37.9426,28.0421 36.8344,29.4477 37.1698,28.2505 	"/>
	<path class="st12" d="M36.6448,29.8224l0.3938-1.4129l-1.4464,0.7349l0.9244-1.2905l-1.5222,0.2188l1.7118-0.9726l-1.1461-0.0524
		l1.8168-0.6445l-1.009-0.0451l1.8198-0.6446l-0.9595-0.0453l2.088-0.8733l-1.009-0.0453l2.0851-0.8778l-1.0119-0.0438
		l3.4703-1.4537l0.6269,0.0205l-0.0379,0.5658l-1.8985,3.1582l0.0642-0.9668l-1.1431,1.8883l0.067-0.9668l-1.1431,1.8883
		l0.0642-0.9172l-0.872,1.6549l0.0641-0.9653l-0.8718,1.658l0.0728-1.0892L36.6448,29.8224L36.6448,29.8224z M37.301,28.0932
		l-0.277,0.9797l1.0206-1.2903l-0.0582,0.8442l0.872-1.6565l-0.0642,0.9653l0.8748-1.6593l-0.0728,1.0177l1.1431-1.8882
		l-0.064,0.9666l1.1373-1.8839l-0.0612,0.9653l1.5339-2.5416l0.0175-0.3601l-0.4228-0.019l-2.7528,1.1636l1.009,0.0422
		l-2.0909,0.8778l1.0148,0.0467l-2.091,0.8748l1.0673,0.0496l-1.8168,0.6445l1.009,0.0451l-1.8168,0.6446l0.8748,0.0393
		l-1.4522,0.8239l1.041-0.1502L36.12,28.6923L37.301,28.0932L37.301,28.0932z"/>
	<polygon points="36.8461,29.4505 36.8228,29.4404 37.7093,27.3393 35.8633,28.9257 35.8487,28.9067 37.7269,27.2998 
		35.4172,27.9414 37.7355,27.2925 37.7355,27.294 38.2605,26.8449 35.9857,26.9966 38.2692,26.8347 39.0683,26.1524 
		36.7937,26.3069 39.0799,26.1421 40.1444,25.2322 37.6015,25.6158 40.156,25.2235 41.2205,24.3108 38.6775,24.6957 41.2321,24.302 
		42.2965,23.3921 39.7536,23.7742 42.3082,23.3834 43.3814,22.4647 42.3111,23.3848 41.6579,25.7893 41.6345,25.7835 
		42.2995,23.3921 41.2321,24.3108 40.5819,26.7093 40.5555,26.7035 41.2234,24.3194 40.156,25.2382 39.5028,27.6309 
		39.4795,27.6236 40.1444,25.2453 39.0799,26.1626 38.6979,28.319 38.6745,28.3147 39.0683,26.1727 38.275,26.8552 37.8901,29.0117 
		37.8668,29.0074 38.2605,26.8654 37.7181,27.332 	"/>
	<polygon class="st13" points="51.0802,13.4463 49.4588,14.5326 49.1934,13.3662 48.234,14.9789 48.0619,14.2017 47.2804,15.8565 
		47.1696,15.094 46.5629,16.7884 46.2159,15.9718 45.6065,18.0321 45.2594,17.2156 44.6499,19.2774 44.303,18.4623 43.6935,20.5196 
		43.3901,21.5505 43.5651,21.9589 44.2155,21.7488 45.344,20.9119 47.6041,19.238 46.3004,19.6651 48.5606,17.997 47.2571,18.4229 
		49.517,16.752 48.2136,17.1791 50.4707,15.8726 48.931,16.2444 51.3632,14.9832 49.8845,15.3696 51.6692,13.9524 50.1237,14.6901 	
		"/>
	<path class="st12" d="M43.5127,22.0711l-0.2071-0.4856l0.9828-3.3931l0.347,0.8151l0.6095-2.0618l0.347,0.8151l0.6095-2.0588
		l0.353,0.837l0.6532-1.8198l0.1194,0.8254l0.767-1.6228l0.178,0.8121l0.9593-1.6112l0.2887,1.2597l1.9744-1.3225L50.43,14.4423
		l1.9276-0.92l-2.0763,1.6491l1.8488-0.4827l-2.4904,1.2905l1.4231-0.3426l-2.0442,1.1825l1.0061-0.331l-2.2601,1.6724
		l1.3065-0.4257l-2.2571,1.6666l1.2977-0.4259l-3.8405,2.8463L43.5127,22.0711L43.5127,22.0711z M44.3174,18.7319l-0.8399,2.8433
		l0.1342,0.2726l0.5744-0.1866l2.9075-2.1593L45.79,19.9306l2.2631-1.6711l-1.3036,0.4243l2.2571-1.6696l-1.5981,0.525l2.47-1.4289
		l-1.6563,0.3994l2.3737-1.2319l-1.1052,0.2901l1.4902-1.1869l-1.1606,0.5555l0.8486-1.1037l-1.2714,0.85l-0.242-1.0746
		l-0.9625,1.6155l-0.1633-0.7407l-0.7961,1.6871l-0.102-0.6998l-0.5629,1.5674l-0.3382-0.7961l-0.6095,2.0617l-0.3441-0.8179
		l-0.6125,2.0617L44.3174,18.7319L44.3174,18.7319z"/>
	<polygon points="43.5767,21.9675 44.5245,20.7238 44.2883,18.8298 44.5333,20.7136 45.4782,19.4712 45.2448,17.586 45.4869,19.461 
		46.4347,18.2173 46.2217,16.3451 46.4434,18.2056 47.3883,16.9692 47.0937,15.4498 47.397,16.9561 48.1056,16.0315 47.989,14.556 
		48.1173,16.0229 48.6655,15.549 49.1,13.7132 48.6714,15.5446 50.4416,14.0209 50.462,14.0412 48.6627,15.5897 51.0539,14.3401 
		51.0657,14.3649 48.6539,15.5985 48.6568,15.5942 48.1319,16.0461 50.7069,15.183 50.7157,15.2093 48.1114,16.0636 
		47.4086,16.9793 49.8116,16.0724 49.8204,16.0987 47.3941,16.9968 46.4551,18.2216 49.033,16.9925 49.0476,17.0173 
		46.4405,18.2378 45.4985,19.4669 48.0998,18.2421 48.1114,18.2668 45.484,19.4815 44.5392,20.7121 47.1026,19.4757 
		47.1142,19.5004 44.5274,20.7296 	"/>
	<polygon class="st13" points="42.2819,11.4093 43.0082,13.0643 43.9442,12.1895 43.7838,13.9931 44.4021,13.4084 44.0638,15.1714 
		44.6179,14.5705 44.1075,16.2867 44.9006,15.7472 44.1687,17.7785 44.962,17.236 44.2299,19.2671 45.0232,18.7261 44.2912,20.7574 
		43.9237,21.7707 43.5301,22.0434 43.1015,21.568 42.6435,20.3476 41.7308,17.9095 42.5853,18.8603 41.6724,16.4209 42.524,17.3686 
		41.6142,14.9306 42.4657,15.88 41.3312,13.7539 42.419,14.7616 41.1096,12.5933 42.139,13.5863 41.4771,11.577 42.3433,12.9011 	
		"/>
	<path class="st12" d="M43.5155,22.1586l-0.4783-0.5323l-1.5485-4.1162l0.8516,0.9492l-0.9099-2.438l0.8515,0.9492l-0.9098-2.4393
		l0.6794,0.7595l-1.041-1.9509l1.0177,0.9405l-1.3356-2.212l1.2539,1.2118l-0.7582-2.3024l1.0556,1.6125l-0.067-1.6373l0.8633,1.964
		l1.0089-0.9448l-0.1574,1.8007l0.6444-0.6138l-0.3295,1.7293l0.6007-0.6518l-0.5453,1.8416l0.8108-0.5526l-0.7321,2.0296
		l0.7933-0.541l-0.7319,2.0297l0.7931-0.5409l-1.1899,3.2983L43.5155,22.1586L43.5155,22.1586z M41.9758,18.3106l1.2073,3.2282
		l0.3586,0.3908l0.3324-0.2304l0.9769-2.75l-0.7931,0.5409l0.7291-2.0296l-0.7903,0.5409l0.7319-2.0327l-0.7728,0.5265
		l0.4724-1.5923l-0.5074,0.5496l0.3442-1.7948l-0.5862,0.5569l0.1604-1.8065l-0.8604,0.802l-0.589-1.3444l0.0526,1.3459
		l-0.6767-1.0353l0.5658,1.7177l-0.8019-0.7757l1.2832,2.1244l-1.1636-1.0746l1.2278,2.3009l-1.0237-1.1373l0.9129,2.4365
		l-0.8517-0.9492l0.9129,2.4423L41.9758,18.3106L41.9758,18.3106z"/>
	<polygon points="43.5418,22.0419 43.4776,20.5591 41.9933,18.3558 42.0166,18.3412 43.4747,20.5401 43.4105,19.0601 
		41.8912,16.8539 41.9144,16.8395 43.4105,19.0412 43.3435,17.5626 41.8532,15.3681 41.8766,15.3535 43.3435,17.5436 
		43.2793,16.0709 41.7482,14.2367 41.7687,14.2205 43.2765,16.052 43.2209,14.9409 41.5295,13.0774 41.5471,13.0584 
		43.2151,14.9175 43.0343,14.2701 41.7424,12.2011 41.7657,12.1865 43.0284,14.2498 42.4569,12.1953 42.4803,12.1895 
		43.0722,14.3139 43.7868,12.519 43.0752,14.3227 43.253,14.9555 44.2271,13.7291 43.256,14.9716 43.2997,16.0724 44.4517,14.8914 
		43.2997,16.0884 43.361,17.5641 44.6499,16.0491 43.361,17.5772 43.4193,19.0528 44.7316,17.5407 43.4222,19.0673 43.4806,20.5459 
		44.7899,19.0324 43.4806,20.5591 	"/>
	<polygon class="st13" points="32.5564,23.589 34.6764,22.1207 33.615,21.5725 35.4726,21.8903 34.834,21.0475 36.639,21.7211 
		36.0004,20.8828 37.8056,21.5563 37.167,20.7136 39.3424,21.4513 38.7038,20.6115 40.8297,21.7065 40.191,20.8638 42.3666,21.6046 
		43.431,22.1513 43.7489,22.5727 43.323,22.8658 42.1566,23.0305 40.2756,23.8091 40.6198,23.1369 38.2838,23.4664 39.1325,22.8804 
		36.7469,23.5729 37.5956,22.9839 35.5805,23.7378 36.4816,22.7943 34.4139,23.9069 35.315,22.9606 33.6178,24.1358 
		34.5685,22.8352 	"/>
	<path class="st12" d="M33.2388,24.5046l1.0877-1.4843l-2.4,0.8983l2.578-1.7877l-1.4349-0.7407l2.1989,0.3763l-0.6883-0.9071
		l1.8052,0.6737l-0.6386-0.8384l1.808,0.6737l-0.6299-0.8312l2.1756,0.7422l-0.7-0.923l2.126,1.095l-0.5775-0.7625l2.4468,0.8326
		l1.0732,0.5511l0.4052,0.5192l-0.5015,0.347l-1.2015,0.1793l-2.0822,0.8647l0.3733-0.7363L37.931,23.605l0.7086-0.4899
		l-2.3855,0.6912l0.7116-0.4944l-1.7118,0.6416l0.7815-0.8209l-2.0675,1.114l0.6912-0.7247L33.2388,24.5046L33.2388,24.5046z
		 M34.8136,22.65l-0.8166,1.1183l1.9744-1.3677l-1.114,1.1679l2.0705-1.1155l-1.0207,1.0688l2.3184-0.866l-0.9885,0.6839
		l2.3883-0.6942l-0.9856,0.6825l2.1347-0.3019l-0.3151,0.611l1.6653-0.6868l1.1868-0.1705l0.3121-0.226l-0.2625-0.35l-1.0353-0.522
		l-1.8925-0.6429l0.6998,0.9229l-2.1259-1.095l0.5804,0.7641l-2.1784-0.7421l0.6503,0.8559l-1.8052-0.6737l0.6387,0.8385
		l-1.8082-0.6737l0.5892,0.7787l-1.5136-0.2581l0.6853,0.3528l-1.6594,1.1506L34.8136,22.65L34.8136,22.65z"/>
	<polygon points="34.0698,23.7246 34.0523,23.7057 35.3676,22.2839 33.2299,23.2069 33.2212,23.1822 35.4055,22.2388 
		34.3294,21.8552 35.42,22.2343 36.572,22.0682 35.1722,21.3173 36.5894,22.0653 37.5605,22.0507 37.7122,22.0593 37.7211,22.0535 
		36.3387,21.138 37.7355,22.0535 37.7269,22.0608 39.2258,22.1527 37.5081,20.9337 39.2403,22.1527 40.7422,22.2199 
		39.0362,20.9031 40.7568,22.2212 42.139,22.3772 40.5264,21.135 42.1537,22.3802 43.7489,22.5595 42.1741,22.3948 42.2499,22.4531 
		40.576,23.5029 40.5614,23.4796 42.2323,22.4516 42.1595,22.3933 40.7189,22.2447 38.692,23.3498 38.6775,23.328 40.7013,22.2447 
		39.2082,22.1774 37.3536,23.3192 37.339,23.2959 39.1937,22.1761 37.6976,22.0856 36.0121,23.4548 35.9946,23.4344 
		37.6831,22.0856 37.5577,22.0783 36.5603,22.0959 34.8456,23.6225 34.8282,23.602 36.5428,22.0987 35.3851,22.2767 	"/>
	<polygon class="st14" points="39.981,40.3544 43.6409,39.6997 47.4554,40.3544 45.6851,41.0907 42.4219,41.1432 	"/>
	<path d="M42.419,41.1621l-2.4438-0.7903l3.6627-0.6912l3.8203,0.6547l-1.7643,0.7728L42.419,41.1621L42.419,41.1621z
		 M43.6379,39.7186l-3.6539,0.6547l2.4408,0.7524l3.2604-0.0541l1.7644-0.7347L43.6379,39.7186L43.6379,39.7186z"/>
	<path class="st15" d="M43.67,34.4402c-0.6386,0.2232-1.3472-0.3119-2.5021,0.5614c0,0-2.0121-0.8632-2.1638,1.1257
		c-0.0028,0.0832,0.3179,0.5672,0.3646,0.5323c0.2507-0.194-0.1196,0.1895-0.1196,0.2435c0,0.0582,0.0379,0.0888,0.0496,0.1108
		c0.0117,0.0248,0.0407,0.0627,0.0496,0.1677c0.0059,0.105-0.2304,0.3922-0.1313,0.4957c0.0992,0.105,0.105,0.4097,0.105,0.4957
		c0,0.0875,0.0612,0.3267,0.105,0.3763c0.0438,0.0496,0.1196,0.1735,0.1196,0.2785s0.0409,0.3952,0.0233,0.4696
		c-0.0175,0.0743,0.1109,0.1676,0.2276,0.2041c0.1166,0.0349,1.633,0.0627,3.759,0.0263c2.1259-0.0364,2.8345,0.3003,3.7123-0.0205
		c0.1371-0.0496,0.1634-0.1603,0.1487-0.2231c-0.0117-0.0612,0-0.2582,0.0379-0.3077c0.0379-0.0496,0.2858-0.4433,0.2362-0.5205
		c0.0466-0.0409,0.3907,0.2013,0.1691-0.0146c-0.0554-0.0569,0.0321-0.6401,0.064-0.764c0.0321-0.121,0.0789-0.3528,0.1343-0.3966
		s-0.0963-0.2041-0.0847-0.2319c0.0088-0.0306,0.0526-0.1209,0.108-0.1633c0,0,0.108-0.5015,0.0408-0.7494
		c-0.064-0.245-0.3061-1.3575-1.8138-1.1345C46.3092,35.0016,44.2912,34.2259,43.67,34.4402L43.67,34.4402z"/>
	<path d="M46.4026,39.6764c-0.2362,0-0.4957-0.019-0.802-0.0438c-0.4461-0.0336-0.9916-0.0773-1.7118-0.0773l-0.3295,0.003
		c-2.0589,0.0349-3.6365,0.0131-3.7707-0.0278c-0.1167-0.0379-0.2742-0.1385-0.2479-0.2405c0.0088-0.0409-0.003-0.172-0.0117-0.2771
		c-0.0088-0.0744-0.0146-0.1442-0.0146-0.1852c0-0.0919-0.064-0.2084-0.1108-0.258c-0.0495-0.0584-0.1108-0.3092-0.1108-0.3967
		c0-0.086-0.0059-0.3791-0.0963-0.4752c-0.0757-0.0789-0.0058-0.2218,0.0554-0.3485c0.0321-0.0657,0.0672-0.1342,0.0642-0.1661
		c-0.0058-0.0817-0.0263-0.1181-0.0379-0.1416c-0.0349-0.0524-0.0612-0.086-0.0612-0.1384c0-0.0278,0.0291-0.0685,0.1224-0.1853
		c0.0088-0.0087,0.0147-0.0175,0.0234-0.0276c-0.1721-0.1502-0.3937-0.4797-0.3879-0.5629
		c0.0845-1.1095,0.7407-1.3414,1.2802-1.3414c0.4813,0,0.9215,0.1866,0.9274,0.1881c0.7786-0.614,1.3444-0.5424,1.7877-0.5148
		c0.277,0.019,0.5104,0.0161,0.6912-0.0481c0.5832-0.1954,2.5867,0.5351,2.6595,0.5629c0.9187-0.1691,1.5981,0.242,1.8256,1.1315
		c0.0758,0.2741-0.0293,0.7668-0.0351,0.7873c-0.0612,0.0539-0.0992,0.1386-0.1078,0.1662c0.0758,0.1153,0.1312,0.2013,0.0728,0.245
		c-0.0349,0.0291-0.0758,0.1954-0.1021,0.2959c-0.0582,0.2364-0.1282,0.767-0.0903,0.8211
		c0.0728,0.0714,0.0875,0.0947,0.0787,0.1194l-0.1283-0.0131c-0.0438-0.019-0.1021-0.0451-0.1283-0.0451
		c0.0787,0.0627-0.2217,0.5088-0.2275,0.5132c-0.0291,0.0379-0.0408,0.2217-0.0321,0.2843
		c0.0146,0.0614-0.0028,0.1969-0.1662,0.2567C47.0121,39.6341,46.7409,39.6764,46.4026,39.6764L46.4026,39.6764z M43.8888,39.4955
		c0.7232,0,1.2715,0.0423,1.7147,0.0772c0.7407,0.0584,1.2073,0.0715,1.6564-0.0947c0.1226-0.0437,0.1371-0.1416,0.1284-0.1866
		c-0.0118-0.0642-0.003-0.2728,0.0438-0.3325c0.064-0.0875,0.2623-0.4375,0.2332-0.4871c0.0759-0.0524,0.1254-0.0306,0.1925,0
		c-0.0961-0.0903,0.0263-0.7567,0.038-0.8019c0.0612-0.2522,0.0963-0.3748,0.1459-0.4125c0.0087-0.0176-0.0409-0.092-0.0584-0.1196
		l-0.038-0.0992c0.0088-0.0293,0.0554-0.1284,0.1197-0.1764l0,0c-0.0088,0,0.0933-0.4826,0.0291-0.7175
		c-0.2274-0.8836-0.7728-1.2597-1.7789-1.1125c-0.035-0.0087-2.0852-0.7524-2.6334-0.5628
		c-0.1895,0.0641-0.4315,0.0641-0.7144,0.0509c-0.455-0.0276-0.9914-0.0889-1.7789,0.506h-0.0029
		c-0.0379,0-0.4666-0.1793-0.9303-0.1793c-0.7466,0-1.1548,0.4317-1.2218,1.2832c-0.003,0.0655,0.2712,0.4783,0.3324,0.5015
		c0.0584-0.0539,0.0728-0.0569,0.0875-0.0569c0.0437,0.0438,0.0291,0.0642-0.067,0.1808c-0.0379,0.0481-0.1021,0.1298-0.1079,0.1502
		l0.0467,0.0948c0.0203,0.0379,0.0466,0.0817,0.0524,0.1793c0.0029,0.0481-0.0321,0.1166-0.0699,0.1954
		c-0.0526,0.1035-0.1138,0.2332-0.0672,0.2813c0.1021,0.108,0.1138,0.398,0.1138,0.5161c0,0.0875,0.0612,0.3166,0.0962,0.3573
		c0.0466,0.0525,0.1253,0.1837,0.1253,0.2974c0,0.0409,0.0058,0.108,0.0118,0.1808c0.0117,0.1196,0.0233,0.245,0.0117,0.2961
		c-0.0117,0.0466,0.0933,0.1326,0.2069,0.1677c0.1021,0.0319,1.5661,0.0597,3.7504,0.0261L43.8888,39.4955L43.8888,39.4955z"/>
	<path class="st16" d="M41.0892,35.7219c-0.0992,0.0366-0.1983,0.8851-0.1138,1.1578c0.0614,0.1925,0.1312,0.3179,0.1721,0.3996
		c-0.0846-0.1328-0.2771-0.385-0.4959-0.3645c-0.2741,0.0233-0.2011,0.9069-0.1866,0.9608v0.0015l0,0h0.003
		c0.0088-0.022,0.0729-0.3938,0.3442-0.4185c0.1808-0.0145,0.344,0.1793,0.4052,0.2625c0.003,0.0263,0.006,0.0539,0.0118,0.0802
		c-0.0293,0.0875-0.0321,0.2858-0.1254,0.5439c-0.1138,0.3121-0.5687,0.3834-0.6474,0.3936
		c0.0205-0.0014,0.7524-0.0685,0.9944-0.0889h0.003l0,0c0.0028,0,0.0028,0,0.0028-0.0015c0.242-0.0205,0.974-0.086,0.9944-0.0889
		c-0.0758,0.0044-0.5482,0.0161-0.7349-0.2712c-0.1546-0.2347-0.1953-0.4287-0.2449-0.5075
		c-0.0029-0.0291-0.0058-0.0554-0.0117-0.0845c0.0408-0.0904,0.1545-0.3106,0.3324-0.3266
		c0.2713-0.0234,0.4259,0.3281,0.4403,0.3513c0,0,0-0.0028,0,0c0-0.0028,0-0.0028,0-0.0028v-0.0015
		c0-0.0554-0.1399-0.9317-0.414-0.9069c-0.2187,0.0188-0.347,0.3003-0.3966,0.4446c0.0203-0.0875,0.0554-0.261,0.064-0.4185
		c0.0176-0.2886-0.2886-1.1227-0.3907-1.114C41.0922,35.7219,41.0922,35.7219,41.0892,35.7219L41.0892,35.7219z M41.1504,37.2822
		c0.0088,0.0145,0.0175,0.0261,0.0234,0.0365l0.0203,0.0888c0,0,0.0905,0.2903,0.0905,0.2931
		C41.2788,37.6904,41.1593,37.2997,41.1504,37.2822L41.1504,37.2822z M41.4187,37.2588c-0.0028,0.0176-0.0291,0.42-0.0321,0.4331
		c0,0,0.0175-0.3907,0.0175-0.3922l0.003,0.086C41.4101,37.3755,41.4159,37.2749,41.4187,37.2588L41.4187,37.2588z"/>
	<path d="M40.4593,38.7577l-0.0028-0.0379l0,0l0,0l0,0c0.0875-0.0102,0.522-0.083,0.6299-0.382
		c0.0582-0.1633,0.0815-0.3032,0.0962-0.4054c0.0088-0.0584,0.0175-0.105,0.0291-0.1371c-0.064-0.1399-0.2157-0.3194-0.3791-0.3194
		c-0.1253,0.0103-0.2683,0.0862-0.344,0.3923c0-0.0014-0.003-0.0044-0.0058-0.0058c0.0554-0.3323,0.2128-0.4112,0.3295-0.4228l0,0
		c0.2011,0,0.3587,0.1896,0.4198,0.2698c0.003,0.1283-0.0028,0.172-0.0116,0.2289c-0.0175,0.1035-0.0408,0.245-0.0992,0.4127
		c-0.07,0.1881-0.2537,0.2916-0.414,0.347c0.242-0.0218,0.589-0.0525,0.7406-0.0655c0.1808-0.0176,0.6183-0.0569,0.8517-0.0773
		c-0.1692,0.0132-0.4696-0.0554-0.5979-0.2552c-0.1021-0.1545-0.1545-0.2916-0.1925-0.3907
		c-0.0205-0.0511-0.0379-0.0905-0.0526-0.1196c0.0291-0.1968,0.1487-0.4213,0.3354-0.4388
		c0.1954,0.0423,0.3267,0.1151,0.4491,0.3455c-0.0263-0.0597-0.1692-0.869-0.4112-0.869c-0.2129,0.0175-0.3354,0.2785-0.3908,0.433
		c-0.0146-0.0976,0.0175-0.2683,0.0263-0.4243c0.0175-0.2478-0.2246-0.9492-0.3472-1.0804
		c-0.0992,0.0116-0.2128,0.8326-0.1253,1.1198c0.0496,0.1575,0.1078,0.2712,0.1457,0.3513
		c-0.0028-0.0029-0.0058-0.0059-0.0117-0.0087c0.0146,0.019,0.0263,0.0364,0.035,0.0511c-0.0203-0.0219-0.038-0.0453-0.0554-0.0685
		c-0.0875-0.0773-0.2478-0.2683-0.4286-0.2683c-0.0612,0.0029-0.0904,0.0233-0.1166,0.0612
		c-0.1313,0.1866-0.0992,0.7509-0.0817,0.8617c-0.0524-0.1005-0.0903-0.6824,0.0526-0.8835
		c0.0319-0.0467,0.0728-0.0715,0.1194-0.0745l0,0c0.1722,0,0.3179,0.1241,0.4112,0.2377c-0.0408-0.0714-0.0757-0.153-0.105-0.2493
		c-0.0817-0.2653,0.0088-1.1373,0.1254-1.1825c0.1896,0.1677,0.4345,0.875,0.42,1.1345c-0.006,0.1123-0.0234,0.2319-0.0438,0.3237
		c0.0496-0.1634,0.172-0.3528,0.3557-0.3703l0,0c0.3004,0,0.4375,0.8705,0.4375,0.9259c-0.1603-0.2203-0.2916-0.3295-0.4345-0.3295
		c-0.1896,0.016-0.3004,0.2259-0.3412,0.3164c0.0263,0.0962,0.0438,0.1386,0.067,0.194c0.035,0.0977,0.0875,0.2304,0.1866,0.3806
		c0.1545,0.239,0.5162,0.2653,0.6649,0.2653c0,0,0,0.0015,0,0.0029c0.0321-0.0029,0.0495-0.0044,0.0554-0.0059
		c-0.0205,0.003-0.0379,0.0073-0.0582,0.0088c-0.0437,0.0379-0.7088,0.0977-0.9332,0.1181
		C41.2116,38.6891,40.4797,38.7563,40.4593,38.7577L40.4593,38.7577z"/>
	<path class="st16" d="M41.1767,37.7152c0,0,0.0758-0.0642,0.1545-0.0715c0.0789-0.0058,0.1692,0.0394,0.1692,0.0394l0.0175,0.1472
		c0,0-0.0904-0.0481-0.1692-0.0408c-0.0815,0.0073-0.1545,0.07-0.1545,0.07L41.1767,37.7152z"/>
	<path d="M41.1797,37.896l-0.0204-0.1793c0.0086-0.019,0.0875-0.0832,0.172-0.0905l0,0c0.0963,0,0.1722,0.0394,0.175,0.0409
		l0.0291,0.1603c-0.0261,0.016-0.102-0.0205-0.172-0.0205c-0.0875,0.0073-0.1575,0.0657-0.1575,0.067L41.1797,37.896L41.1797,37.896
		z"/>
	<path class="st16" d="M46.0963,35.7715c-0.105,0.0132-0.3791,0.8239-0.3528,1.1112c0.0205,0.1983,0.0612,0.3382,0.0845,0.4256
		c-0.0524-0.1487-0.1895-0.4345-0.4082-0.4593c-0.2712-0.0334-0.3849,0.8428-0.3821,0.8982v0.0029l0,0v0.0015
		c0.0146-0.019,0.1575-0.3718,0.4288-0.3383c0.1749,0.0219,0.2945,0.245,0.3382,0.3383c-0.0028,0.0291-0.0058,0.0539-0.0058,0.0846
		c-0.0466,0.0772-0.0904,0.2712-0.2362,0.5044c-0.172,0.28-0.6328,0.2582-0.7116,0.2523c0.0205,0,0.7495,0.089,0.9916,0.1196
		c0,0,0,0,0.003,0l0,0c0,0,0,0,0.0029,0c0.242,0.0291,0.9711,0.1151,0.9886,0.1181c-0.0759-0.0132-0.5395-0.0992-0.6619-0.417
		c-0.1021-0.261-0.1021-0.4608-0.1342-0.5498c0.003-0.0276,0.0058-0.0539,0.0058-0.0816c0.0584-0.0817,0.2159-0.2726,0.3938-0.2522
		c0.2712,0.0321,0.35,0.4112,0.3587,0.4345l0,0l0.0029-0.0015l0,0c0.0117-0.0582,0.0524-0.9419-0.2217-0.9754
		c-0.2158-0.0263-0.3994,0.2216-0.4783,0.3513c0.0379-0.0787,0.105-0.2434,0.1487-0.3951c0.0758-0.2785-0.0466-1.1592-0.1487-1.1694
		C46.0993,35.7744,46.0963,35.7715,46.0963,35.7715L46.0963,35.7715z M45.831,37.3113c0.0088,0.0175,0.0117,0.0291,0.0146,0.0423
		l0.0029,0.086c0,0.0045,0.0291,0.3077,0.0291,0.3077C45.8718,37.737,45.8368,37.3302,45.831,37.3113L45.831,37.3113z
		 M46.0993,37.3449c-0.0088,0.016-0.1196,0.4052-0.1226,0.4155c0,0,0.0993-0.3791,0.1021-0.3806l-0.0175,0.0875
		C46.0672,37.457,46.0905,37.3579,46.0993,37.3449L46.0993,37.3449z"/>
	<path d="M46.8371,38.8481l-0.9914-0.1166c-0.2362-0.0306-0.9157-0.1138-0.9916-0.1196h-0.003l0.0059-0.019v0.019
		c0.2538-0.0351,0.557-0.067,0.6911-0.28c0.0933-0.1487,0.1429-0.2799,0.178-0.3762c0.0233-0.0569,0.0408-0.1007,0.0582-0.1283
		c-0.0378-0.159-0.1545-0.3748-0.3207-0.3966c-0.1633,0.0145-0.2946,0.1035-0.3996,0.3121c0,0-0.0028-0.003-0.0058-0.006
		c0.0875-0.2347,0.2217-0.344,0.3733-0.344c0.2187,0.0248,0.3441,0.2537,0.3908,0.35c-0.0233,0.1311-0.0408,0.172-0.0612,0.2259
		c-0.038,0.0977-0.0875,0.2319-0.1808,0.3806c-0.1166,0.1866-0.347,0.2435-0.5278,0.2595c0.2041,0.0117,0.6211,0.0627,0.7903,0.0847
		l0.7437,0.0875c-0.1633-0.0614-0.353-0.1692-0.4288-0.3616c-0.064-0.1663-0.0875-0.3077-0.105-0.4127
		c-0.0116-0.0584-0.0175-0.1065-0.0291-0.1371c0.0642-0.1765,0.2129-0.3587,0.3907-0.3587
		c0.1954,0.0205,0.3209,0.1633,0.3966,0.4243c-0.0145-0.0715,0.0059-0.6635-0.1399-0.8647
		c-0.0263-0.0394-0.0554-0.0599-0.0933-0.0642h-0.003c-0.2158,0-0.3791,0.2129-0.4578,0.3412
		c0.0058-0.0948,0.0728-0.2595,0.1166-0.4082c0.067-0.2465-0.0233-0.9916-0.1196-1.1315c0-0.0015-0.0028-0.0015-0.0028-0.0015
		c-0.0963,0-0.3763,0.7757-0.347,1.0731c0.0145,0.175,0.0495,0.3034,0.0728,0.3907c0-0.0013-0.003-0.0028-0.0059-0.0058
		c0.0059,0.0132,0.0117,0.0263,0.0146,0.0366c-0.0118-0.019-0.0234-0.0395-0.0321-0.0599c-0.07-0.0961-0.1983-0.3513-0.3967-0.3733
		c-0.0466-0.0146-0.0757,0.0146-0.1078,0.0467c-0.1603,0.1632-0.242,0.694-0.2536,0.8136
		c-0.0263-0.1021,0.0495-0.6591,0.2274-0.8399c0.0379-0.0394,0.0787-0.0584,0.1224-0.0584c0.175,0.019,0.2946,0.1706,0.3674,0.3077
		c-0.0233-0.0743-0.0379-0.1575-0.0466-0.2537c-0.0263-0.28,0.2449-1.114,0.3675-1.1316c0.1515,0.1823,0.2478,0.9376,0.175,1.1972
		c-0.0321,0.1108-0.0759,0.2304-0.1138,0.3179c0.0817-0.156,0.2274-0.3004,0.3938-0.3004c0.0815,0.0073,0.1194,0.0336,0.1545,0.0816
		c0.1633,0.2289,0.1254,0.8821,0.1166,0.9186c-0.1138-0.2668-0.2304-0.4009-0.3821-0.4183l0,0c-0.1925,0-0.3354,0.188-0.3733,0.2435
		c0.0059,0.0992,0.0146,0.1472,0.0234,0.2084c0.0175,0.1021,0.0408,0.242,0.105,0.4054c0.1166,0.3063,0.5599,0.3923,0.6474,0.4054
		L46.8371,38.8481L46.8371,38.8481z M45.9039,37.8434l-0.0438-0.0875c-0.0028-0.0072-0.0058-0.0218-0.0291-0.2668
		c-0.0088-0.0817-0.0146-0.1574-0.0175-0.172l0.0175,0.0422v-0.0481l0.0175-0.003c0.0029,0.0058,0.0088,0.0554,0.0146,0.1181
		l0.0059,0.0146c-0.003,0.019,0.0263,0.3047,0.0263,0.3047L45.9039,37.8434L45.9039,37.8434z M45.9914,37.7691
		c0-0.0014,0-0.0043,0.003-0.0043c-0.0321-0.0218-0.0146-0.086,0.0087-0.1604c0.0175-0.0627,0.0321-0.1108,0.0437-0.1502
		c0,0,0,0,0-0.0015l0,0c0.0233-0.0744,0.0321-0.1093,0.0379-0.1166l-0.0233,0.0379c0-0.0015,0-0.003,0-0.003l0.0612-0.1209
		l-0.0437,0.2201v-0.0044c-0.0117,0.0468-0.0263,0.1006-0.0408,0.1472c-0.0205,0.073-0.0379,0.1342-0.0437,0.1517l0,0l0,0
		C45.9944,37.7662,45.9914,37.7677,45.9914,37.7691L45.9914,37.7691z"/>
	<path class="st16" d="M45.7668,37.737c0,0,0.0846-0.0437,0.1663-0.0349c0.0787,0.0132,0.1545,0.0743,0.1545,0.0743l-0.0116,0.1472
		c0,0-0.0759-0.064-0.1576-0.0743c-0.0787-0.0102-0.1633,0.0351-0.1633,0.0351L45.7668,37.737z"/>
	<path d="M46.0905,37.9602l-0.0263-0.0219c-0.0028-0.0015-0.0728-0.0612-0.1487-0.07h-0.0029c-0.0875,0-0.1487,0.0306-0.1487,0.0321
		l-0.0146-0.1633c0.0117-0.0175,0.0845-0.0539,0.1633-0.0539c0.1078,0.0132,0.1808,0.0773,0.1837,0.0787L46.0905,37.9602
		L46.0905,37.9602z"/>
	<path class="st16" d="M39.2695,37.1815l0.3908-0.4798c0,0,0.0349,0.0496,0,0c-0.8019-1.0338-0.8429-1.6273-0.7524-1.9291
		c0.0933-0.2989,0.2712-0.6284,0.7524-1.028c0.4811-0.4009,0.8136-0.1778,1.2655-0.1778c0.4491,0,0.5687,0.0992,0.9595,0.1502
		c0.3908,0.0496,1.4435,0.0992,1.4435,0.0992v-0.2741c0,0,0.0409,0.0073,0,0c-0.4636-0.0875-1.0528,0-1.4435-0.0992
		c-0.3908-0.1021-0.7203-0.1269-1.1431-0.1269c-0.417,0-0.7232-0.1239-0.9916,0.0526c-0.2711,0.175-0.6007,0.4768-0.8427,0.7261
		c-0.2392,0.2522-0.3588,0.7554-0.3295,1.0789c0.0292,0.3267,0.1516,0.6009,0.3295,0.8531
		c0.1808,0.2493,0.1515,0.4506,0.2099,0.6284C39.1791,36.8286,39.2695,37.2063,39.2695,37.1815L39.2695,37.1815z"/>
	<path d="M39.2695,37.1975c-0.0146,0-0.0146,0-0.0496-0.1341c-0.0321-0.1196-0.0788-0.2989-0.1138-0.4039
		c-0.0205-0.0569-0.0321-0.1168-0.0409-0.1795c-0.0233-0.1298-0.0466-0.277-0.169-0.4446c-0.1954-0.2756-0.3034-0.557-0.3325-0.8604
		c-0.0291-0.325,0.0904-0.8326,0.3353-1.0906c0.2217-0.2304,0.5599-0.5439,0.8428-0.7291c0.1604-0.1036,0.3703-0.1036,0.6386-0.0773
		c0.1108,0.0117,0.2304,0.0233,0.3616,0.0233c0.4082,0,0.7407,0.0219,1.149,0.1284c0.1983,0.0496,0.4491,0.0511,0.7144,0.0524
		c0.248,0.0015,0.5017,0.003,0.7262,0.0452v0.0263l0.0145-0.0073l-0.0058,0.0132h0.003l-0.0117-0.003l0.0117,0.2597
		c-0.0205,0.0145-1.0703-0.0365-1.4582-0.0847c-0.1515-0.0203-0.2653-0.0481-0.3703-0.0728
		c-0.1633-0.0408-0.315-0.0773-0.5892-0.0773c-0.1253,0-0.239-0.0175-0.3499-0.0335c-0.3267-0.0467-0.6183-0.0306-0.9071,0.2071
		c-0.5161,0.433-0.6707,0.7727-0.7466,1.022c-0.0933,0.3121-0.0379,0.8968,0.7495,1.916l-0.0175,0.0219l-0.0058-0.003l-0.0088,0.022
		l0,0L39.2695,37.1975L39.2695,37.1975z M40.1094,33.2884c-0.1459,0-0.2538,0.0276-0.3529,0.0919
		c-0.28,0.1836-0.6153,0.4942-0.8369,0.7261c-0.2392,0.2493-0.3558,0.748-0.3267,1.0659c0.0263,0.2989,0.1343,0.5759,0.3267,0.8472
		c0.1255,0.172,0.1515,0.3237,0.175,0.4548c0.0087,0.0614,0.0175,0.1211,0.0379,0.1765c0.038,0.1035,0.0845,0.2843,0.1166,0.4039
		c0.0087,0.0422,0.0205,0.0773,0.0263,0.0991l0.3733-0.4608c-0.7961-1.0119-0.8487-1.6067-0.7524-1.9246
		c0.0757-0.2524,0.2304-0.5979,0.7552-1.0353c0.2916-0.2435,0.595-0.264,0.9274-0.2129c0.1108,0.0146,0.2246,0.0321,0.347,0.0321
		c0.2771,0,0.4317,0.0379,0.595,0.0787c0.105,0.0248,0.2157,0.0526,0.3674,0.0715c0.3908,0.0496,1.4405,0.0992,1.4405,0.0992
		l-0.0146-0.2595c-0.2128-0.0278-0.4636-0.0293-0.7086-0.0306c-0.2653-0.0015-0.519-0.003-0.7231-0.0541
		c-0.4025-0.1065-0.7349-0.1267-1.1403-0.1267c-0.1312,0-0.2508-0.0117-0.3646-0.0234
		C40.2814,33.2986,40.194,33.2884,40.1094,33.2884L40.1094,33.2884z"/>
	<path class="st16" d="M47.9395,37.1815l-0.3938-0.4798c0,0-0.0321,0.0496,0,0c0.8019-1.0338,0.8428-1.6273,0.7524-1.9291
		c-0.0904-0.2989-0.2683-0.6284-0.7524-1.028c-0.4783-0.4009-0.8106-0.1778-1.2627-0.1778c-0.452,0-0.5716,0.0992-0.9623,0.1502
		c-0.3908,0.0496-1.4405,0.0992-1.4405,0.0992v-0.2741c0,0-0.0409,0.0073,0,0c0.4636-0.0875,1.0498,0,1.4405-0.0992
		c0.3908-0.1021,0.7233-0.1269,1.1431-0.1269c0.4201,0,0.7233-0.1239,0.9944,0.0526c0.2713,0.175,0.6008,0.4768,0.8399,0.7261
		c0.242,0.2522,0.3616,0.7554,0.3325,1.0789c-0.0321,0.3267-0.1517,0.6009-0.3325,0.8531
		c-0.1808,0.2493-0.1487,0.4506-0.2099,0.6284C48.0298,36.8286,47.9395,37.2063,47.9395,37.1815L47.9395,37.1815z"/>
	<path d="M47.9395,37.1975l-0.0117-0.0058L47.537,36.712c0.7873-1.0382,0.8427-1.6229,0.7494-1.9349
		c-0.0758-0.2493-0.2274-0.589-0.7494-1.022c-0.2858-0.2377-0.5774-0.2508-0.9041-0.2071c-0.1138,0.016-0.2274,0.0335-0.35,0.0335
		c-0.2741,0-0.4287,0.0366-0.592,0.0773c-0.105,0.0248-0.2158,0.0526-0.3675,0.0728c-0.3908,0.0496-1.4434,0.0992-1.4434,0.0992
		l-0.0146-0.2886c0.2362-0.0569,0.4899-0.0584,0.7349-0.0599c0.2653-0.0014,0.5162-0.0029,0.7173-0.0539
		c0.4084-0.105,0.7407-0.127,1.1461-0.127c0.1313,0,0.2508-0.0116,0.3646-0.0233c0.2682-0.0263,0.4782-0.0263,0.6386,0.0773
		c0.28,0.1837,0.6183,0.4972,0.8427,0.7291c0.245,0.258,0.3646,0.7669,0.3355,1.0906c-0.0293,0.3048-0.1401,0.5877-0.3355,0.8604
		c-0.1194,0.1676-0.1457,0.3164-0.1691,0.4461c-0.0088,0.0612-0.0205,0.1211-0.0379,0.178
		c-0.0351,0.1005-0.0816,0.2711-0.1108,0.3907C47.9511,37.1975,47.9511,37.1975,47.9395,37.1975L47.9395,37.1975z M46.9362,33.4895
		c0.2276,0,0.42,0.0758,0.6211,0.2435c0.525,0.4375,0.6795,0.7845,0.7554,1.0353c0.0963,0.3179,0.0437,0.9127-0.7554,1.9436
		l0.3763,0.4418c0.0059-0.0233,0.0175-0.0627,0.0291-0.1108c0.0321-0.1196,0.0758-0.2916,0.1108-0.3923
		c0.0205-0.0554,0.0293-0.1138,0.0379-0.175c0.0234-0.1326,0.0496-0.2843,0.175-0.4563c0.1925-0.2698,0.3004-0.5454,0.3295-0.8472
		c0.0293-0.3179-0.0875-0.8151-0.3265-1.0659c-0.2217-0.2332-0.5599-0.5453-0.8399-0.7261
		c-0.1545-0.1006-0.3616-0.0978-0.6183-0.073c-0.1138,0.0118-0.2332,0.0234-0.3674,0.0234c-0.4054,0-0.7349,0.0203-1.1373,0.1254
		c-0.2041,0.0524-0.4578,0.0539-0.7261,0.0554c-0.245,0.0014-0.4959,0.0029-0.7174,0.0451l0.0117,0.2582
		c0.0117-0.0132,1.0412-0.0627,1.4261-0.1123c0.1487-0.019,0.2595-0.0467,0.3645-0.0715c0.1634-0.0407,0.3209-0.0787,0.5979-0.0787
		c0.1226,0,0.2362-0.0175,0.3441-0.0321C46.7321,33.5042,46.8342,33.4895,46.9362,33.4895L46.9362,33.4895z"/>
	<rect x="42.9497" y="33.3145" class="st16" width="1.394" height="2.8595"/>
	<path d="M44.3612,36.19h-1.4115l-0.0175-2.8754l1.4115-0.016L44.3612,36.19L44.3612,36.19z M44.3263,33.3145l-1.3765,0.0161
		l0.0147,2.8433l1.3618-0.0175L44.3263,33.3145L44.3263,33.3145z"/>
	<path class="st16" d="M43.1159,30.7921c0,0,0.1517,0.1225,0.2655,0.2814c0.1166,0.1574,0.1953,0.347,0.1953,0.347
		s-0.1925-0.0817-0.347-0.194c-0.1604-0.1166-0.28-0.2668-0.28-0.2668v1.0615c0,0,0.1196-0.1487,0.28-0.2639
		c0.1545-0.1167,0.347-0.1969,0.347-0.1969s-0.0612,0.159-0.0992,0.35c-0.0379,0.1707-0.3324,0.5672-0.3324,0.5672l0.8602,0.0554
		c0,0-0.1429-0.452-0.2011-0.6226c-0.0642-0.1866-0.0875-0.35-0.0875-0.35s0.1925,0.0802,0.35,0.1969
		c0.1545,0.1151,0.277,0.2639,0.277,0.2639v-1.0615c0,0-0.1224,0.1502-0.277,0.2668c-0.1575,0.1123-0.35,0.194-0.35,0.194
		s0.0817-0.1896,0.1953-0.347c0.1167-0.159,0.2655-0.2814,0.2655-0.2814H43.1159z"/>
	<path d="M44.0201,32.5447l-0.8749-0.0569c-0.0058-0.0205,0.2858-0.4125,0.3207-0.5804c0.0349-0.169,0.0875-0.3134,0.0992-0.344
		c-0.0233,0.0233-0.1925,0.0992-0.3295,0.2011c-0.1545,0.1138-0.277,0.2625-0.2799,0.2625l-0.0175-1.0673l0,0
		c0.0233,0,0.1429,0.1457,0.2974,0.258c0.1371,0.1006,0.3033,0.175,0.3383,0.1896c-0.0234-0.0248-0.0991-0.191-0.2013-0.328
		c-0.1108-0.156-0.2595-0.2771-0.2625-0.2786l1.0674-0.019c0.0058,0.0205-0.1429,0.1416-0.2567,0.2976
		c-0.1021,0.1371-0.1778,0.3032-0.1925,0.3382c0.0263-0.0248,0.1953-0.0992,0.3324-0.1998
		c0.1517-0.1136,0.2741-0.2638,0.2741-0.2638l0.0205,1.0673c-0.0029,0-0.0029,0-0.0029,0c-0.0234,0-0.1429-0.1444-0.2917-0.2567
		c-0.1399-0.1035-0.3149-0.1807-0.344-0.1925c0.0145,0.0205,0.0408,0.1676,0.0962,0.3353L44.0201,32.5447L44.0201,32.5447z
		 M43.5739,31.5518c0.0117,0.0132-0.0495,0.1705-0.0875,0.3601c-0.0379,0.172-0.3209,0.5554-0.3325,0.5716l0.837,0.0394
		l-0.1954-0.6095c-0.0642-0.1866-0.0903-0.3515-0.0903-0.3515c0.0407-0.0147,0.2157,0.0743,0.3674,0.1866
		c0.1545,0.1153,0.277,0.264,0.28,0.2668l-0.0176-1.047c-0.0145,0.0351-0.1253,0.1648-0.2624,0.2655
		c-0.1575,0.1136-0.35,0.1953-0.353,0.1953c-0.0116-0.0145,0.07-0.2069,0.1838-0.3616c0.1167-0.1589,0.2653-0.2813,0.2683-0.2828
		l-1.047,0.0175c0.035,0.0132,0.1662,0.1254,0.2653,0.2653c0.1138,0.1547,0.1954,0.3471,0.1954,0.3485
		c-0.0146,0.0234-0.2099-0.0699-0.3646-0.1822c-0.1545-0.1153-0.28-0.2655-0.28-0.2683l0.0176,1.047
		c0.0145-0.0351,0.1253-0.1634,0.2623-0.264C43.3784,31.6335,43.5709,31.5518,43.5739,31.5518L43.5739,31.5518z"/>
	<path class="st16" d="M44.3379,32.6847c0,0.3805-0.3091,0.6925-0.6911,0.6925c-0.3821,0-0.6912-0.3121-0.6912-0.6925
		c0-0.3821,0.3091-0.6941,0.6912-0.6941C44.0288,31.9906,44.3379,32.3027,44.3379,32.6847L44.3379,32.6847z"/>
	<path d="M43.6468,33.3919c-0.3908,0-0.7058-0.3164-0.7058-0.7071c0-0.3922,0.3151-0.7101,0.7058-0.7101
		c0.3907,0,0.7086,0.3179,0.7086,0.7101C44.3554,33.0755,44.0375,33.3919,43.6468,33.3919L43.6468,33.3919z M43.6468,32.0067
		c-0.3733,0-0.6766,0.3033-0.6766,0.678c0,0.3733,0.3033,0.6766,0.6766,0.6766c0.3733,0,0.6765-0.3033,0.6765-0.6766
		C44.3233,32.31,44.0201,32.0067,43.6468,32.0067L43.6468,32.0067z"/>
	<path class="st16" d="M42.9702,32.7839h1.3735c0,0,0.0233-0.2668-0.0758-0.3661h-0.4287l-0.0088-0.4009h-0.1546H43.428
		l-0.0087,0.4009c0,0-0.2858,0.0146-0.42,0.0146c-0.0584,0.1633-0.0496,0.178-0.0496,0.178L42.9702,32.7839z"/>
	<path d="M44.3554,32.794h-1.3852l-0.0321-0.1837c-0.0059-0.0103,0.0263-0.1051,0.0524-0.1808
		c0.1431-0.0073,0.4288-0.0219,0.4288-0.0219l-0.003-0.3908l0.4141-0.0102l0.0204,0.4111l0.4171-0.0102
		c0.1079,0.1035,0.0875,0.366,0.0875,0.3776V32.794L44.3554,32.794z M43.428,32.027l0.003,0.3908
		c-0.0117,0.0103-0.2974,0.0248-0.4317,0.0248c-0.0437,0.1401-0.0407,0.1648-0.0407,0.1648l0.0233,0.175l1.3531-0.0088
		c0.0029-0.0481,0.0088-0.2639-0.0757-0.3485l-0.42,0.003l-0.0175-0.4112L43.428,32.027L43.428,32.027z"/>
	<path class="st16" d="M42.7603,36.0777c0,0,0.2537,0.2028,0.4432,0.4651c0.1925,0.2625,0.3267,0.5834,0.3267,0.5834
		s-0.3179-0.1342-0.5832-0.3252c-0.2625-0.194-0.4666-0.4433-0.4666-0.4433v1.7702c0,0,0.2041-0.2508,0.4666-0.4405
		c0.2653-0.1938,0.5832-0.328,0.5832-0.328s-0.1342,0.3194-0.3267,0.5847c-0.1895,0.2595-0.4432,0.4622-0.4432,0.4622h1.7731
		c0,0-0.2508-0.2028-0.4433-0.4622c-0.1954-0.2653-0.3267-0.5847-0.3267-0.5847s0.3209,0.1343,0.5804,0.328
		c0.2625,0.1896,0.4696,0.4405,0.4696,0.4405v-1.7702c0,0-0.2071,0.2493-0.4696,0.4433c-0.2595,0.191-0.5804,0.3252-0.5804,0.3252
		s0.1313-0.3209,0.3267-0.5834c0.1925-0.2623,0.4433-0.4651,0.4433-0.4651H42.7603z"/>
	<path d="M44.5333,38.4223h-1.7731c-0.006-0.0291,0.2449-0.2317,0.4315-0.4869c0.172-0.2362,0.2975-0.5192,0.3209-0.5731
		c-0.038,0.0379-0.3209,0.1647-0.5571,0.3382c-0.2567,0.1866-0.4608,0.4345-0.4636,0.436l-0.0263-1.7789
		c0.0175-0.0044,0.2274,0.2377,0.4899,0.4316c0.2362,0.1692,0.5191,0.2945,0.5716,0.3192
		c-0.0379-0.0378-0.1633-0.3222-0.3354-0.5554c-0.1895-0.2582-0.4375-0.4608-0.4403-0.4638l1.7819-0.0261
		c0.0087,0.0291-0.2422,0.2317-0.4316,0.4899c-0.172,0.2332-0.3004,0.5176-0.3209,0.5701c0.0379-0.038,0.3237-0.1647,0.5541-0.3339
		c0.2596-0.1896,0.4637-0.439,0.4666-0.4418l0.0263,1.7804c-0.0263-0.003-0.2304-0.2392-0.4929-0.4273
		c-0.2304-0.1735-0.5162-0.3018-0.5686-0.3237c0.035,0.038,0.1634,0.3224,0.3354,0.5586c0.1895,0.2552,0.4403,0.4578,0.4403,0.4593
		l0.035,0.0276L44.5333,38.4223L44.5333,38.4223z M43.5243,37.3449c0.0174,0.0233-0.1168,0.3455-0.3092,0.608
		c-0.1895,0.258-0.4403,0.4636-0.4432,0.4651l1.7205-0.0263c-0.0728-0.0627-0.2653-0.2347-0.417-0.4388
		c-0.1925-0.2625-0.3265-0.5847-0.3265-0.5877c0.0261-0.0145,0.344,0.1153,0.6065,0.3106c0.2595,0.1881,0.4666,0.4404,0.4666,0.4433
		l-0.0233-1.7498c-0.0233,0.0526-0.2129,0.2726-0.4433,0.4448c-0.2595,0.1881-0.5832,0.3237-0.5862,0.3265
		c-0.0203-0.0248,0.1138-0.3455,0.3062-0.6065c0.1925-0.261,0.4461-0.4651,0.4491-0.4666l-1.7497,0.0248
		c0.0525,0.0218,0.2713,0.2099,0.4403,0.4418c0.1925,0.261,0.3267,0.5817,0.3295,0.5862c-0.0291,0.0145-0.3412-0.1153-0.6065-0.3062
		c-0.2595-0.194-0.4666-0.4448-0.4666-0.4476l0.0233,1.7497c0.0233-0.054,0.21-0.2728,0.4433-0.4404
		C43.2006,37.4818,43.5213,37.3462,43.5243,37.3449L43.5243,37.3449z"/>
	<path class="st16" d="M39.389,39.0844l0.872-0.1531c0,0-0.2828-0.1575-0.519-0.3821c-0.2334-0.2231-0.4228-0.5192-0.4228-0.5192
		s0.3382,0.0773,0.6298,0.2217c0.2917,0.1444,0.5366,0.3558,0.5366,0.3558l-0.3062-1.744c0,0-0.1603,0.2815-0.3819,0.5162
		c-0.2246,0.2362-0.5162,0.4214-0.5162,0.4214s0.0758-0.3369,0.2187-0.6299c0.1457-0.2916,0.3557-0.5351,0.3557-0.5351
		l-0.8718,0.1547L39.389,39.0844z"/>
	<path d="M39.3745,39.1018v-0.0146l-0.4054-2.292l0.8836-0.1735c0.0117,0.0276-0.1983,0.2712-0.3412,0.557
		c-0.1254,0.261-0.2013,0.5614-0.2129,0.6168c0.0321-0.0437,0.2858-0.2157,0.4871-0.4257c0.2216-0.2319,0.3791-0.5103,0.3791-0.5133
		l0.3353,1.7468c0.0117,0.0452-0.2713-0.1953-0.5571-0.3382c-0.2595-0.1284-0.5599-0.2042-0.6181-0.2172
		c0.0438,0.0319,0.2216,0.2916,0.4287,0.4899c0.2304,0.2231,0.5103,0.3791,0.5132,0.3806L39.3745,39.1018L39.3745,39.1018z
		 M39.844,36.626l-0.8574,0.1793l0.4142,2.2616l0.8457-0.1474c-0.0584-0.0131-0.3062-0.1603-0.5133-0.3586
		c-0.2332-0.2231-0.4228-0.5191-0.4257-0.522c0.0203-0.0291,0.3615,0.0554,0.6503,0.1998c0.2887,0.1429,0.5366,0.3543,0.5394,0.3572
		l-0.3323-1.7175c-0.0088,0.0554-0.1575,0.3033-0.3588,0.5117c-0.2216,0.2349-0.5131,0.4228-0.5161,0.4243
		c-0.0233-0.0205,0.0554-0.3573,0.1954-0.6489C39.631,36.8753,39.8411,36.6289,39.844,36.626L39.844,36.626z"/>
	<path class="st16" d="M47.4379,36.6361c0,0,0.2099,0.2435,0.3557,0.5351c0.1429,0.2931,0.2187,0.6299,0.2187,0.6299
		s-0.2916-0.1852-0.5161-0.4214c-0.2246-0.2347-0.382-0.5162-0.382-0.5162l-0.3092,1.744c0,0,0.245-0.2114,0.5366-0.3558
		c0.2946-0.1444,0.6327-0.2217,0.6327-0.2217s-0.1866,0.2961-0.4228,0.5192c-0.2362,0.2246-0.519,0.3821-0.519,0.3821l0.8748,0.1531
		l0.4024-2.2936L47.4379,36.6361z"/>
	<path d="M47.919,39.1018l-0.8894-0.156c0-0.0291,0.28-0.1852,0.5103-0.4082c0.21-0.1983,0.3849-0.4579,0.417-0.5075
		c-0.0466,0.0306-0.347,0.1065-0.6095,0.2349c-0.2828,0.1429-0.5278,0.3513-0.5308,0.3528l0.2829-1.7571l0,0
		c0.0291,0,0.1896,0.2786,0.4082,0.509c0.2013,0.21,0.455,0.382,0.5045,0.4141c-0.0291-0.0438-0.105-0.3442-0.2332-0.6067
		c-0.1401-0.2843-0.35-0.5278-0.3528-0.5307l0.8865,0.1297L47.919,39.1018L47.919,39.1018z M47.9715,38.0169
		c0.0146,0.0248-0.175,0.3209-0.4112,0.5439c-0.2334,0.2231-0.5162,0.3821-0.5191,0.3835l0.8545,0.1226l0.3996-2.2791
		l-0.8487-0.1356c0.0496,0.0306,0.2334,0.2537,0.3616,0.5119c0.14,0.2929,0.2187,0.6298,0.2187,0.6342
		c-0.0467-0.0176-0.3207-0.1765-0.5424-0.4084c-0.2216-0.2347-0.3819-0.5162-0.3849-0.519l-0.277,1.7263
		c0.0291-0.0481,0.2536-0.2304,0.5131-0.3586C47.6274,38.0943,47.9657,38.0169,47.9715,38.0169L47.9715,38.0169z"/>
	<path class="st16" d="M39.3978,38.9954l0.0058,1.2685c0,0,2.123-0.7231,4.2461-0.7231c2.1229,0,4.2459,0.7231,4.2459,0.7231
		v-1.2685c0,0-2.1259-0.7233-4.2489-0.7233C41.5209,38.2721,39.3978,38.9954,39.3978,38.9954L39.3978,38.9954z"/>
	<path d="M47.9103,40.2844l-0.0205-0.0059c-0.0205-0.0073-2.1434-0.7217-4.2401-0.7217c-2.0968,0-4.2199,0.7144-4.2431,0.7217
		l-0.0263-1.2831c0.0321-0.0218,2.1638-0.7393,4.2664-0.7393s4.2315,0.7174,4.2547,0.7247L47.9103,40.2844L47.9103,40.2844z
		 M43.6468,38.2882c-2.0968,0-4.2257,0.7144-4.246,0.7217l0.0175,1.2539c0-0.0218,2.1288-0.7393,4.2315-0.7393
		c1.9916,0,4.0097,0.6446,4.2313,0.7189v-1.2482l0,0C47.8491,38.9954,45.7319,38.2882,43.6468,38.2882L43.6468,38.2882z"/>
	<path class="st12" d="M39.1995,36.5035c0,0.1808-0.1459,0.325-0.3209,0.325c-0.1808,0-0.3265-0.1442-0.3265-0.325
		c0-0.178,0.1457-0.3237,0.3265-0.3237C39.0536,36.1798,39.1995,36.3256,39.1995,36.5035L39.1995,36.5035z"/>
	<path d="M38.8787,36.8475c-0.1895,0-0.347-0.153-0.347-0.344c0-0.1896,0.1575-0.3442,0.347-0.3442
		c0.1866,0,0.3383,0.1545,0.3383,0.3442C39.217,36.6945,39.0653,36.8475,38.8787,36.8475L38.8787,36.8475z M38.8787,36.1988
		c-0.169,0-0.3061,0.1384-0.3061,0.3048c0,0.1676,0.1371,0.3047,0.3061,0.3047c0.1634,0,0.3004-0.1371,0.3004-0.3047
		C39.1791,36.3372,39.042,36.1988,38.8787,36.1988L38.8787,36.1988z"/>
	<path class="st12" d="M38.7854,35.7671c0,0.1793-0.1457,0.3237-0.3237,0.3237c-0.1779,0-0.3237-0.1444-0.3237-0.3237
		c0-0.1778,0.1459-0.3252,0.3237-0.3252C38.6396,35.4419,38.7854,35.5893,38.7854,35.7671L38.7854,35.7671z"/>
	<path d="M38.4616,36.1098c-0.1895,0-0.344-0.153-0.344-0.3427c0-0.191,0.1545-0.3441,0.344-0.3441
		c0.1896,0,0.3442,0.1532,0.3442,0.3441C38.8058,35.9567,38.6513,36.1098,38.4616,36.1098L38.4616,36.1098z M38.4616,35.4624
		c-0.169,0-0.3033,0.1371-0.3033,0.3047c0,0.1662,0.1343,0.3048,0.3033,0.3048c0.1663,0,0.3034-0.1386,0.3034-0.3048
		C38.765,35.5995,38.628,35.4624,38.4616,35.4624L38.4616,35.4624z"/>
	<path class="st12" d="M38.6979,34.9025c0,0.1778-0.1457,0.3222-0.3236,0.3222c-0.178,0-0.3237-0.1444-0.3237-0.3222
		c0-0.1793,0.1457-0.3237,0.3237-0.3237C38.5521,34.5788,38.6979,34.7231,38.6979,34.9025L38.6979,34.9025z"/>
	<path d="M38.3743,35.2451c-0.1896,0-0.3441-0.153-0.3441-0.3426c0-0.1895,0.1545-0.3442,0.3441-0.3442
		c0.1895,0,0.344,0.1547,0.344,0.3442C38.7183,35.0921,38.5638,35.2451,38.3743,35.2451L38.3743,35.2451z M38.3743,34.5992
		c-0.1663,0-0.3034,0.1371-0.3034,0.3033c0,0.1661,0.1371,0.3032,0.3034,0.3032c0.1691,0,0.3061-0.1371,0.3061-0.3032
		C38.6803,34.7363,38.5433,34.5992,38.3743,34.5992L38.3743,34.5992z"/>
	<path class="st12" d="M38.9575,34.0947c0,0.1808-0.1429,0.3252-0.3237,0.3252c-0.1779,0-0.3209-0.1444-0.3209-0.3252
		c0-0.1765,0.1429-0.3237,0.3209-0.3237C38.8146,33.771,38.9575,33.9182,38.9575,34.0947L38.9575,34.0947z"/>
	<path d="M38.6338,34.4389c-0.1866,0-0.3411-0.1532-0.3411-0.3442c0-0.1896,0.1545-0.3427,0.3411-0.3427
		c0.1895,0,0.344,0.153,0.344,0.3427C38.9778,34.2857,38.8233,34.4389,38.6338,34.4389L38.6338,34.4389z M38.6338,33.7914
		c-0.1662,0-0.3032,0.1371-0.3032,0.3033c0,0.1677,0.1371,0.3062,0.3032,0.3062c0.1692,0,0.3063-0.1385,0.3063-0.3062
		C38.94,33.9285,38.8029,33.7914,38.6338,33.7914L38.6338,33.7914z"/>
	<path class="st12" d="M39.5058,33.4326c0,0.1795-0.1459,0.3237-0.3237,0.3237c-0.178,0-0.3237-0.1442-0.3237-0.3237
		c0-0.1778,0.1457-0.325,0.3237-0.325C39.3599,33.1076,39.5058,33.2548,39.5058,33.4326L39.5058,33.4326z"/>
	<path d="M39.182,33.7768c-0.1896,0-0.3412-0.1545-0.3412-0.3442c0-0.191,0.1515-0.344,0.3412-0.344
		c0.1895,0,0.3412,0.153,0.3412,0.344C39.5232,33.6223,39.3715,33.7768,39.182,33.7768L39.182,33.7768z M39.182,33.1279
		c-0.1663,0-0.3034,0.1371-0.3034,0.3048c0,0.1663,0.1371,0.3048,0.3034,0.3048c0.1662,0,0.3033-0.1384,0.3033-0.3048
		C39.4853,33.265,39.3482,33.1279,39.182,33.1279L39.182,33.1279z"/>
	<path class="st12" d="M40.2551,32.9719c0,0.178-0.1457,0.3224-0.3237,0.3224c-0.1778,0-0.3237-0.1444-0.3237-0.3224
		c0-0.1808,0.1459-0.3222,0.3237-0.3222C40.1094,32.6497,40.2551,32.7911,40.2551,32.9719L40.2551,32.9719z"/>
	<path d="M39.9315,33.3132c-0.1895,0-0.344-0.1532-0.344-0.3414c0-0.1895,0.1545-0.3426,0.344-0.3426
		c0.1896,0,0.3441,0.1532,0.3441,0.3426C40.2756,33.16,40.1211,33.3132,39.9315,33.3132L39.9315,33.3132z M39.9315,32.6686
		c-0.1662,0-0.3033,0.1371-0.3033,0.3032c0,0.1664,0.1371,0.3019,0.3033,0.3019s0.3032-0.1356,0.3032-0.3019
		C40.2347,32.8057,40.0977,32.6686,39.9315,32.6686L39.9315,32.6686z"/>
	<path class="st12" d="M41.0922,33.0303c0,0.1765-0.1487,0.3207-0.3267,0.3207c-0.175,0-0.3237-0.1442-0.3237-0.3207
		c0-0.1808,0.1487-0.3252,0.3237-0.3252C40.9434,32.7051,41.0922,32.8494,41.0922,33.0303L41.0922,33.0303z"/>
	<path d="M40.7655,33.3714c-0.1895,0-0.3412-0.153-0.3412-0.3411c0-0.191,0.1517-0.3442,0.3412-0.3442
		c0.1896,0,0.3441,0.1532,0.3441,0.3442C41.1096,33.2184,40.9551,33.3714,40.7655,33.3714L40.7655,33.3714z M40.7655,32.724
		c-0.1662,0-0.3033,0.1386-0.3033,0.3063c0,0.1661,0.1371,0.3019,0.3033,0.3019c0.1691,0,0.3062-0.1358,0.3062-0.3019
		C41.0717,32.8626,40.9347,32.724,40.7655,32.724L40.7655,32.724z"/>
	<path class="st12" d="M41.9262,33.1673c0,0.1779-0.1459,0.3252-0.3237,0.3252c-0.1808,0-0.3237-0.1474-0.3237-0.3252
		s0.1429-0.3237,0.3237-0.3237C41.7804,32.8436,41.9262,32.9895,41.9262,33.1673L41.9262,33.1673z"/>
	<path d="M41.6025,33.5115c-0.1896,0-0.3441-0.1532-0.3441-0.3442c0-0.1896,0.1545-0.3441,0.3441-0.3441
		c0.1895,0,0.3412,0.1545,0.3412,0.3441C41.9437,33.3583,41.792,33.5115,41.6025,33.5115L41.6025,33.5115z M41.6025,32.8626
		c-0.1691,0-0.3034,0.1386-0.3034,0.3047c0,0.1677,0.1343,0.3048,0.3034,0.3048c0.1662,0,0.3033-0.1371,0.3033-0.3048
		C41.9058,33.0011,41.7687,32.8626,41.6025,32.8626L41.6025,32.8626z"/>
	<path class="st12" d="M42.7603,33.2548c0,0.1778-0.143,0.3222-0.3209,0.3222c-0.1808,0-0.3237-0.1444-0.3237-0.3222
		c0-0.1793,0.1429-0.3252,0.3237-0.3252C42.6173,32.9296,42.7603,33.0755,42.7603,33.2548L42.7603,33.2548z"/>
	<path d="M42.4394,33.596c-0.1895,0-0.3442-0.1517-0.3442-0.3412c0-0.1896,0.1547-0.3441,0.3442-0.3441
		c0.1866,0,0.3412,0.1545,0.3412,0.3441C42.7806,33.4443,42.6261,33.596,42.4394,33.596L42.4394,33.596z M42.4394,32.9501
		c-0.1692,0-0.3062,0.1371-0.3062,0.3047c0,0.1662,0.137,0.3018,0.3062,0.3018c0.1662,0,0.3033-0.1356,0.3033-0.3018
		C42.7427,33.0872,42.6056,32.9501,42.4394,32.9501L42.4394,32.9501z"/>
	<path class="st12" d="M48.0095,36.5035c0,0.1808,0.1457,0.325,0.3207,0.325c0.1808,0,0.3237-0.1442,0.3237-0.325
		c0-0.178-0.1429-0.3237-0.3237-0.3237C48.1552,36.1798,48.0095,36.3256,48.0095,36.5035L48.0095,36.5035z"/>
	<path d="M48.3302,36.8475c-0.1866,0-0.3412-0.153-0.3412-0.344c0-0.1896,0.1545-0.3442,0.3412-0.3442
		c0.1896,0,0.3441,0.1545,0.3441,0.3442C48.6743,36.6975,48.5226,36.8475,48.3302,36.8475L48.3302,36.8475z M48.3302,36.1988
		c-0.1662,0-0.3004,0.1384-0.3004,0.3048c0,0.1676,0.1342,0.3047,0.3004,0.3047c0.1722,0,0.3032-0.1342,0.3032-0.3047
		C48.6334,36.3372,48.4994,36.1988,48.3302,36.1988L48.3302,36.1988z"/>
	<path class="st12" d="M48.4235,35.7671c0,0.1793,0.1459,0.3237,0.3237,0.3237c0.178,0,0.3237-0.1444,0.3237-0.3237
		c0-0.1778-0.1457-0.3252-0.3237-0.3252C48.5694,35.4419,48.4235,35.5893,48.4235,35.7671L48.4235,35.7671z"/>
	<path d="M48.7472,36.1098c-0.1895,0-0.3442-0.153-0.3442-0.3427c0-0.191,0.1547-0.3441,0.3442-0.3441
		c0.1896,0,0.3441,0.1532,0.3441,0.3441C49.0913,35.9567,48.9368,36.1098,48.7472,36.1098L48.7472,36.1098z M48.7472,35.4624
		c-0.1692,0-0.3063,0.1371-0.3063,0.3047c0,0.1662,0.1371,0.3048,0.3063,0.3048c0.1662,0,0.3032-0.1386,0.3032-0.3048
		C49.0504,35.5995,48.9134,35.4624,48.7472,35.4624L48.7472,35.4624z"/>
	<path class="st12" d="M48.511,34.9025c0,0.1778,0.1429,0.3222,0.3209,0.3222c0.1808,0,0.3237-0.1444,0.3237-0.3222
		c0-0.1793-0.1429-0.3237-0.3237-0.3237C48.6539,34.5788,48.511,34.7231,48.511,34.9025L48.511,34.9025z"/>
	<path d="M48.8318,35.2451c-0.1866,0-0.3413-0.153-0.3413-0.3426c0-0.1895,0.1547-0.3442,0.3413-0.3442
		c0.1895,0,0.344,0.1547,0.344,0.3442C49.1759,35.0921,49.0214,35.2451,48.8318,35.2451L48.8318,35.2451z M48.8318,34.5992
		c-0.1663,0-0.3034,0.1371-0.3034,0.3033c0,0.1661,0.1371,0.3032,0.3034,0.3032c0.1691,0,0.3033-0.1371,0.3033-0.3032
		C49.1351,34.7363,49.0009,34.5992,48.8318,34.5992L48.8318,34.5992z"/>
	<path class="st12" d="M48.2515,34.0947c0,0.1808,0.1429,0.3252,0.3207,0.3252c0.1808,0,0.3237-0.1444,0.3237-0.3252
		c0-0.1765-0.1429-0.3237-0.3237-0.3237C48.3944,33.771,48.2515,33.9182,48.2515,34.0947L48.2515,34.0947z"/>
	<path d="M48.5722,34.4389c-0.1866,0-0.3412-0.1532-0.3412-0.3442c0-0.1896,0.1545-0.3427,0.3412-0.3427
		c0.1896,0,0.3441,0.153,0.3441,0.3427C48.9163,34.2857,48.7618,34.4389,48.5722,34.4389L48.5722,34.4389z M48.5722,33.7914
		c-0.1662,0-0.3033,0.1371-0.3033,0.3033c0,0.1677,0.1371,0.3062,0.3033,0.3062c0.1691,0,0.3062-0.1385,0.3062-0.3062
		C48.8784,33.9285,48.7414,33.7914,48.5722,33.7914L48.5722,33.7914z"/>
	<path class="st12" d="M47.7032,33.4326c0,0.1795,0.1429,0.3237,0.3237,0.3237c0.1778,0,0.3237-0.1442,0.3237-0.3237
		c0-0.1778-0.1459-0.325-0.3237-0.325C47.8461,33.1076,47.7032,33.2548,47.7032,33.4326L47.7032,33.4326z"/>
	<path d="M48.0269,33.7768c-0.1896,0-0.3442-0.1545-0.3442-0.3442c0-0.191,0.1545-0.344,0.3442-0.344
		c0.1895,0,0.3412,0.153,0.3412,0.344C48.3681,33.6223,48.2164,33.7768,48.0269,33.7768L48.0269,33.7768z M48.0269,33.1279
		c-0.1692,0-0.3033,0.1371-0.3033,0.3048c0,0.1663,0.1341,0.3048,0.3033,0.3048c0.1662,0,0.3033-0.1384,0.3033-0.3048
		C48.3302,33.265,48.1931,33.1279,48.0269,33.1279L48.0269,33.1279z"/>
	<path class="st12" d="M46.9537,32.9719c0,0.178,0.1459,0.3224,0.3237,0.3224c0.178,0,0.3237-0.1444,0.3237-0.3224
		c0-0.1808-0.1457-0.3222-0.3237-0.3222C47.0996,32.6497,46.9537,32.7911,46.9537,32.9719L46.9537,32.9719z"/>
	<path d="M47.2774,33.3132c-0.1895,0-0.344-0.1532-0.344-0.3414c0-0.1895,0.1545-0.3426,0.344-0.3426
		c0.1896,0,0.3442,0.1532,0.3442,0.3426C47.6215,33.16,47.467,33.3132,47.2774,33.3132L47.2774,33.3132z M47.2774,32.6686
		c-0.1662,0-0.3061,0.1371-0.3061,0.3032c0,0.1664,0.1399,0.3019,0.3061,0.3019c0.1664,0,0.3034-0.1356,0.3034-0.3019
		C47.5808,32.8057,47.4437,32.6686,47.2774,32.6686L47.2774,32.6686z"/>
	<path class="st12" d="M46.1168,33.0303c0,0.1765,0.1459,0.3207,0.3237,0.3207s0.3237-0.1442,0.3237-0.3207
		c0-0.1808-0.1459-0.3252-0.3237-0.3252S46.1168,32.8494,46.1168,33.0303L46.1168,33.0303z"/>
	<path d="M46.4405,33.3714c-0.1896,0-0.3442-0.153-0.3442-0.3411c0-0.191,0.1545-0.3442,0.3442-0.3442
		c0.1895,0,0.3441,0.1532,0.3441,0.3442C46.7846,33.2184,46.63,33.3714,46.4405,33.3714L46.4405,33.3714z M46.4405,32.724
		c-0.1662,0-0.3033,0.1386-0.3033,0.3063c0,0.1661,0.1371,0.3019,0.3033,0.3019c0.1661,0,0.3032-0.1358,0.3032-0.3019
		C46.7437,32.8626,46.6067,32.724,46.4405,32.724L46.4405,32.724z"/>
	<path class="st12" d="M45.2827,33.1673c0,0.1779,0.1459,0.3252,0.3237,0.3252s0.3237-0.1474,0.3237-0.3252
		s-0.1459-0.3237-0.3237-0.3237S45.2827,32.9895,45.2827,33.1673L45.2827,33.1673z"/>
	<path d="M45.6065,33.5115c-0.1896,0-0.3442-0.1532-0.3442-0.3442c0-0.1896,0.1545-0.3441,0.3442-0.3441
		c0.1896,0,0.3442,0.1545,0.3442,0.3441C45.9506,33.3583,45.7961,33.5115,45.6065,33.5115L45.6065,33.5115z M45.6065,32.8626
		c-0.1662,0-0.3033,0.1386-0.3033,0.3047c0,0.1677,0.1371,0.3048,0.3033,0.3048c0.1661,0,0.3032-0.1371,0.3032-0.3048
		C45.9097,33.0011,45.7726,32.8626,45.6065,32.8626L45.6065,32.8626z"/>
	<path class="st12" d="M44.4458,33.2548c0,0.1778,0.1457,0.3222,0.3238,0.3222c0.1807,0,0.3237-0.1444,0.3237-0.3222
		c0-0.1793-0.143-0.3252-0.3237-0.3252C44.5916,32.9296,44.4458,33.0755,44.4458,33.2548L44.4458,33.2548z"/>
	<path d="M44.7696,33.596c-0.1896,0-0.3414-0.1517-0.3414-0.3412c0-0.1896,0.1517-0.3441,0.3414-0.3441
		c0.1894,0,0.344,0.1545,0.344,0.3441C45.1136,33.4443,44.959,33.596,44.7696,33.596L44.7696,33.596z M44.7696,32.9501
		c-0.1664,0-0.3034,0.1371-0.3034,0.3047c0,0.1662,0.1371,0.3018,0.3034,0.3018c0.1661,0,0.3032-0.1356,0.3032-0.3018
		C45.0728,33.0872,44.9357,32.9501,44.7696,32.9501L44.7696,32.9501z"/>
	<path class="st12" d="M43.9704,35.7773c0,0.1795-0.1429,0.3237-0.3237,0.3237c-0.1778,0-0.3237-0.1442-0.3237-0.3237
		c0-0.1778,0.1459-0.3222,0.3237-0.3222C43.8276,35.4551,43.9704,35.5995,43.9704,35.7773L43.9704,35.7773z"/>
	<path d="M43.6468,36.1214c-0.1866,0-0.3412-0.1545-0.3412-0.3442c0-0.1895,0.1545-0.3425,0.3412-0.3425
		c0.1896,0,0.3441,0.153,0.3441,0.3425C43.9909,35.9669,43.8364,36.1214,43.6468,36.1214L43.6468,36.1214z M43.6468,35.474
		c-0.1662,0-0.3033,0.137-0.3033,0.3032c0,0.1663,0.1371,0.3048,0.3033,0.3048c0.1691,0,0.3032-0.1384,0.3032-0.3048
		C43.95,35.6111,43.8159,35.474,43.6468,35.474L43.6468,35.474z"/>
	<path class="st12" d="M43.9704,35.2029c0,0.1793-0.1429,0.3222-0.3237,0.3222c-0.1778,0-0.3237-0.1429-0.3237-0.3222
		c0-0.178,0.1459-0.3222,0.3237-0.3222C43.8276,34.8807,43.9704,35.0249,43.9704,35.2029L43.9704,35.2029z"/>
	<path d="M43.6468,35.544c-0.1866,0-0.3412-0.1517-0.3412-0.3411c0-0.1896,0.1545-0.3427,0.3412-0.3427
		c0.1896,0,0.3441,0.153,0.3441,0.3427C43.9909,35.3923,43.8364,35.544,43.6468,35.544L43.6468,35.544z M43.6468,34.8996
		c-0.1662,0-0.3033,0.1371-0.3033,0.3033c0,0.1661,0.1371,0.3017,0.3033,0.3017c0.1691,0,0.3032-0.1356,0.3032-0.3017
		C43.95,35.0367,43.8159,34.8996,43.6468,34.8996L43.6468,34.8996z"/>
	<path class="st12" d="M43.9704,34.7391c0,0.1808-0.1429,0.3252-0.3237,0.3252c-0.1778,0-0.3237-0.1444-0.3237-0.3252
		c0-0.1763,0.1459-0.3207,0.3237-0.3207C43.8276,34.4184,43.9704,34.5628,43.9704,34.7391L43.9704,34.7391z"/>
	<path d="M43.6468,35.0833c-0.1866,0-0.3412-0.153-0.3412-0.3442c0-0.188,0.1545-0.3411,0.3412-0.3411
		c0.1896,0,0.3441,0.1532,0.3441,0.3411C43.9909,34.9302,43.8364,35.0833,43.6468,35.0833L43.6468,35.0833z M43.6468,34.4374
		c-0.1662,0-0.3033,0.1356-0.3033,0.3017c0,0.1677,0.1371,0.3063,0.3033,0.3063c0.1691,0,0.3032-0.1386,0.3032-0.3063
		C43.95,34.573,43.8159,34.4374,43.6468,34.4374L43.6468,34.4374z"/>
	<path class="st12" d="M43.9704,34.3208c0,0.1793-0.1429,0.3237-0.3237,0.3237c-0.1778,0-0.3237-0.1444-0.3237-0.3237
		c0-0.178,0.1459-0.3252,0.3237-0.3252C43.8276,33.9955,43.9704,34.1428,43.9704,34.3208L43.9704,34.3208z"/>
	<path d="M43.6468,34.6648c-0.1866,0-0.3412-0.1545-0.3412-0.344c0-0.1911,0.1545-0.3442,0.3412-0.3442
		c0.1896,0,0.3441,0.153,0.3441,0.3442C43.9909,34.5102,43.8364,34.6648,43.6468,34.6648L43.6468,34.6648z M43.6468,34.016
		c-0.1662,0-0.3033,0.1371-0.3033,0.3048c0,0.1676,0.1371,0.3047,0.3033,0.3047c0.1691,0,0.3032-0.1371,0.3032-0.3047
		C43.95,34.1531,43.8159,34.016,43.6468,34.016L43.6468,34.016z"/>
	<path class="st12" d="M43.9704,32.9719c0,0.178-0.1429,0.3224-0.3237,0.3224c-0.1778,0-0.3237-0.1444-0.3237-0.3224
		c0-0.1808,0.1459-0.3222,0.3237-0.3222C43.8276,32.6497,43.9704,32.7911,43.9704,32.9719L43.9704,32.9719z"/>
	<path d="M43.6468,33.3132c-0.1866,0-0.3412-0.1532-0.3412-0.3414c0-0.1895,0.1545-0.3426,0.3412-0.3426
		c0.1896,0,0.3441,0.1532,0.3441,0.3426C43.9909,33.16,43.8364,33.3132,43.6468,33.3132L43.6468,33.3132z M43.6468,32.6686
		c-0.1662,0-0.3033,0.1371-0.3033,0.3032c0,0.1664,0.1371,0.3019,0.3033,0.3019c0.1691,0,0.3032-0.1356,0.3032-0.3019
		C43.95,32.8057,43.8159,32.6686,43.6468,32.6686L43.6468,32.6686z"/>
	<path class="st12" d="M43.9704,33.0303c0,0.1765-0.1429,0.3207-0.3237,0.3207c-0.1778,0-0.3237-0.1442-0.3237-0.3207
		c0-0.1808,0.1459-0.3252,0.3237-0.3252C43.8276,32.7051,43.9704,32.8494,43.9704,33.0303L43.9704,33.0303z"/>
	<path d="M43.6468,33.3714c-0.1866,0-0.3412-0.153-0.3412-0.3411c0-0.191,0.1545-0.3442,0.3412-0.3442
		c0.1896,0,0.3441,0.1532,0.3441,0.3442C43.9909,33.2184,43.8364,33.3714,43.6468,33.3714L43.6468,33.3714z M43.6468,32.724
		c-0.1662,0-0.3033,0.1386-0.3033,0.3063c0,0.1661,0.1371,0.3019,0.3033,0.3019c0.1691,0,0.3032-0.1358,0.3032-0.3019
		C43.95,32.8626,43.8159,32.724,43.6468,32.724L43.6468,32.724z"/>
	<path class="st12" d="M43.9704,33.3292c0,0.1778-0.1429,0.3222-0.3237,0.3222c-0.1778,0-0.3237-0.1444-0.3237-0.3222
		c0-0.1779,0.1459-0.3222,0.3237-0.3222C43.8276,33.007,43.9704,33.1513,43.9704,33.3292L43.9704,33.3292z"/>
	<path d="M43.6468,33.6704c-0.1866,0-0.3412-0.1531-0.3412-0.3412c0-0.1896,0.1545-0.3427,0.3412-0.3427
		c0.1896,0,0.3441,0.153,0.3441,0.3427C43.9909,33.5173,43.8364,33.6704,43.6468,33.6704L43.6468,33.6704z M43.6468,33.0259
		c-0.1662,0-0.3033,0.1371-0.3033,0.3033s0.1371,0.3017,0.3033,0.3017c0.1691,0,0.3032-0.1355,0.3032-0.3017
		S43.8159,33.0259,43.6468,33.0259L43.6468,33.0259z"/>
	<path class="st12" d="M43.9704,33.7374c0,0.1808-0.1429,0.3252-0.3237,0.3252c-0.1778,0-0.3237-0.1444-0.3237-0.3252
		c0-0.1764,0.1459-0.3222,0.3237-0.3222C43.8276,33.4152,43.9704,33.5611,43.9704,33.7374L43.9704,33.7374z"/>
	<path d="M43.6468,34.0815c-0.1866,0-0.3412-0.153-0.3412-0.3441c0-0.188,0.1545-0.3412,0.3412-0.3412
		c0.1896,0,0.3441,0.1532,0.3441,0.3412C43.9909,33.9285,43.8364,34.0815,43.6468,34.0815L43.6468,34.0815z M43.6468,33.4356
		c-0.1662,0-0.3033,0.1356-0.3033,0.3018c0,0.1676,0.1371,0.3047,0.3033,0.3047c0.1691,0,0.3032-0.1371,0.3032-0.3047
		C43.95,33.5712,43.8159,33.4356,43.6468,33.4356L43.6468,33.4356z"/>
	<path class="st12" d="M44.0608,37.1713c0,0.229-0.1866,0.417-0.417,0.417c-0.2302,0-0.4199-0.188-0.4199-0.417
		c0-0.2332,0.1896-0.4199,0.4199-0.4199C43.8741,36.7514,44.0608,36.938,44.0608,37.1713L44.0608,37.1713z"/>
	<path d="M43.6438,37.6087c-0.242,0-0.4403-0.1954-0.4403-0.4375c0-0.242,0.1983-0.4403,0.4403-0.4403
		c0.2422,0,0.4375,0.1983,0.4375,0.4403C44.0812,37.4133,43.8859,37.6087,43.6438,37.6087L43.6438,37.6087z M43.6438,36.7732
		c-0.2216,0-0.3966,0.1779-0.3966,0.3981c0,0.2187,0.175,0.3967,0.3966,0.3967c0.2187,0,0.3967-0.178,0.3967-0.3967
		C44.0405,36.9511,43.8625,36.7732,43.6438,36.7732L43.6438,36.7732z"/>
	<path class="st12" d="M39.6952,37.9266c0,0.2304-0.1866,0.4185-0.4199,0.4185c-0.2303,0-0.417-0.1881-0.417-0.4185
		s0.1866-0.417,0.417-0.417C39.5086,37.5096,39.6952,37.6962,39.6952,37.9266L39.6952,37.9266z"/>
	<path d="M39.2754,38.3654c-0.2392,0-0.4375-0.1968-0.4375-0.4388c0-0.2405,0.1983-0.4375,0.4375-0.4375
		c0.2449,0,0.4403,0.1969,0.4403,0.4375C39.7157,38.1686,39.5202,38.3654,39.2754,38.3654L39.2754,38.3654z M39.2754,37.53
		c-0.2187,0-0.3967,0.1778-0.3967,0.3966c0,0.2202,0.178,0.3966,0.3967,0.3966c0.2216,0,0.3994-0.1764,0.3994-0.3966
		C39.6748,37.7078,39.4969,37.53,39.2754,37.53L39.2754,37.53z"/>
	<path class="st12" d="M48.406,37.9266c0,0.2304-0.1866,0.4185-0.417,0.4185s-0.417-0.1881-0.417-0.4185s0.1866-0.417,0.417-0.417
		S48.406,37.6962,48.406,37.9266L48.406,37.9266z"/>
	<path d="M47.989,38.3654c-0.242,0-0.4403-0.1968-0.4403-0.4388c0-0.2405,0.1983-0.4375,0.4403-0.4375s0.4375,0.1969,0.4375,0.4375
		C48.4265,38.1686,48.231,38.3654,47.989,38.3654L47.989,38.3654z M47.989,37.53c-0.2188,0-0.3966,0.1778-0.3966,0.3966
		c0,0.2202,0.1778,0.3966,0.3966,0.3966c0.2187,0,0.3966-0.1764,0.3966-0.3966C48.3856,37.7078,48.2077,37.53,47.989,37.53
		L47.989,37.53z"/>
	<rect x="43.0402" y="38.5887" class="st17" width="1.2889" height="0.5613"/>
	<path d="M44.3437,39.166h-1.3035l-0.0176-0.5774l1.3065-0.0161L44.3437,39.166L44.3437,39.166z M44.3146,38.5887l-1.2744,0.0145
		l0.0145,0.5468l1.2599-0.0145V38.5887L44.3146,38.5887z"/>
	<path class="st18" d="M45.0961,39.0042c0.003,0.1662,0.2653,0.3295,0.5862,0.3645c0.3207,0.0321,0.5744-0.0772,0.5716-0.2478
		c-0.003-0.1662-0.2683-0.3295-0.5862-0.3631C45.3469,38.727,45.0933,38.8365,45.0961,39.0042L45.0961,39.0042z"/>
	<path d="M45.7901,39.4007L45.7901,39.4007l-0.1108-0.0044c-0.3382-0.0379-0.6095-0.21-0.6123-0.3922
		c0-0.0526,0.0203-0.1036,0.064-0.1444c0.0817-0.0832,0.245-0.1341,0.4317-0.1341l0.108,0.0058
		c0.3382,0.0349,0.6037,0.2056,0.6123,0.3893c0,0.0539-0.0233,0.1035-0.064,0.1459C46.1372,39.3527,45.9797,39.4007,45.7901,39.4007
		L45.7901,39.4007z M45.6239,38.7839c-0.2507,0-0.3878,0.0438-0.4549,0.1138c-0.0321,0.0321-0.0496,0.067-0.0466,0.1065
		c0.0028,0.1502,0.2595,0.3047,0.5627,0.3382l0.105,0.0045c0.1722,0,0.3179-0.0438,0.3909-0.1168
		c0.0321-0.0319,0.0466-0.0699,0.0466-0.1093c-0.0029-0.1502-0.2625-0.3048-0.5628-0.3369
		C45.6502,38.7839,45.6386,38.7839,45.6239,38.7839L45.6239,38.7839z"/>
	<polygon class="st15" points="39.4036,39.3016 39.0799,39.6238 39.4562,39.8396 40.328,39.6064 40.1735,39.1106 	"/>
	<path d="M39.4532,39.8615l-0.3821-0.2202l0.3179-0.3543l0.7787-0.1953l0.1808,0.5088L39.4532,39.8615L39.4532,39.8615z
		 M40.1532,39.1179l-0.7437,0.2026l-0.3149,0.3179l0.3616,0.1808l0.866-0.2319L40.1532,39.1179L40.1532,39.1179z"/>
	<polygon class="st15" points="47.9657,39.3016 48.2894,39.6238 47.9132,39.8396 47.0412,39.6064 47.1959,39.1106 	"/>
	<path d="M47.919,39.8615l-0.8836-0.2347l0.1401-0.522l0.7961,0.1763l0.3323,0.3282L47.919,39.8615L47.919,39.8615z M47.1899,39.131
		l-0.1283,0.4827l0.8486,0.2056l0.3674-0.2129l-0.3267-0.2901L47.1899,39.131L47.1899,39.131z"/>
	<path class="st18" d="M42.2732,39.0042c-0.003,0.1662-0.2683,0.3295-0.5862,0.3645c-0.3207,0.0321-0.5746-0.0772-0.5716-0.2478
		c0.0028-0.1662,0.2653-0.3295,0.5862-0.3631C42.0224,38.727,42.2791,38.8365,42.2732,39.0042L42.2732,39.0042z"/>
	<path d="M41.5791,39.4007c-0.1895,0-0.344-0.0481-0.4287-0.1341c-0.0408-0.0424-0.064-0.092-0.0612-0.1459
		c0.003-0.1837,0.2713-0.3543,0.6095-0.3893l0.1108-0.0058c0.1866,0,0.35,0.0509,0.4317,0.1356
		c0.0407,0.0407,0.0612,0.0903,0.0584,0.1429c-0.003,0.1822-0.2713,0.3543-0.6095,0.3922L41.5791,39.4007L41.5791,39.4007z
		 M41.8095,38.7796c-0.4054,0.0364-0.6649,0.191-0.6677,0.3427c0,0.0392,0.0145,0.0758,0.0466,0.1078
		c0.0728,0.0745,0.2188,0.1168,0.3908,0.1168l0.105-0.0045c0.3004-0.0335,0.5599-0.188,0.5629-0.3397
		c0-0.0379-0.0146-0.0728-0.0438-0.105C42.1303,38.8233,41.9845,38.7796,41.8095,38.7796L41.8095,38.7796z"/>
	<path class="st12" d="M42.7603,38.6279c0,0.0905-0.07,0.1604-0.1575,0.1604c-0.0905,0-0.1603-0.0699-0.1603-0.1604
		c0-0.0845,0.0699-0.1574,0.1603-0.1574C42.6902,38.4705,42.7603,38.5434,42.7603,38.6279L42.7603,38.6279z"/>
	<path d="M42.6027,38.8014c-0.0963,0-0.175-0.0772-0.175-0.1735c0-0.1836,0.3442-0.1881,0.3442,0
		C42.7719,38.7257,42.6989,38.8014,42.6027,38.8014L42.6027,38.8014z M42.6027,38.4835c-0.0816,0-0.1487,0.0657-0.1487,0.1444
		c0,0.1634,0.2916,0.1664,0.2916,0C42.7457,38.5477,42.6814,38.4835,42.6027,38.4835L42.6027,38.4835z"/>
	<path class="st12" d="M42.8098,39.1354c0,0.0875-0.07,0.1589-0.1605,0.1589c-0.0875,0-0.1574-0.0714-0.1574-0.1589
		c0-0.086,0.0699-0.159,0.1574-0.159C42.7398,38.9764,42.8098,39.0494,42.8098,39.1354L42.8098,39.1354z"/>
	<path d="M42.6494,39.3089c-0.0933,0-0.172-0.0788-0.172-0.1735c0-0.1911,0.3442-0.1881,0.3442,0
		C42.8215,39.2301,42.7457,39.3089,42.6494,39.3089L42.6494,39.3089z M42.6494,38.991c-0.0787,0-0.1429,0.0642-0.1429,0.1444
		c0,0.1619,0.2887,0.1604,0.2887,0C42.7952,39.0553,42.731,38.991,42.6494,38.991L42.6494,38.991z"/>
	<path class="st12" d="M40.7743,38.9895c0,0.086-0.073,0.1545-0.1604,0.1545c-0.0875,0-0.1575-0.0685-0.1575-0.1545
		c0-0.089,0.07-0.1618,0.1575-0.1618C40.7013,38.8277,40.7743,38.9005,40.7743,38.9895L40.7743,38.9895z"/>
	<path d="M40.6139,39.1572c-0.0963,0-0.1721-0.0743-0.1721-0.1677c0.003-0.1925,0.3442-0.191,0.3442,0
		C40.786,39.0814,40.7101,39.1572,40.6139,39.1572L40.6139,39.1572z M40.6139,38.8408c-0.0788,0-0.143,0.067-0.143,0.1487
		c-0.0029,0.156,0.2887,0.156,0.2887,0C40.7597,38.9079,40.6955,38.8408,40.6139,38.8408L40.6139,38.8408z"/>
	<path class="st12" d="M40.9726,39.4649c0,0.086-0.0701,0.1589-0.1604,0.1589c-0.0875,0-0.1575-0.0729-0.1575-0.1589
		c0-0.0875,0.07-0.159,0.1575-0.159C40.9025,39.306,40.9726,39.3774,40.9726,39.4649L40.9726,39.4649z"/>
	<path d="M40.8122,39.637c-0.0933,0-0.1722-0.0774-0.1722-0.172c0.003-0.1896,0.3472-0.1911,0.3442,0
		C40.9842,39.5596,40.9084,39.637,40.8122,39.637L40.8122,39.637z M40.8122,39.3191c-0.0788,0-0.1429,0.0642-0.1429,0.1459
		c0,0.1589,0.2886,0.1619,0.2886,0C40.958,39.3833,40.8939,39.3191,40.8122,39.3191L40.8122,39.3191z"/>
	<path class="st12" d="M44.6032,38.6279c0,0.0905,0.07,0.1604,0.1575,0.1604c0.0903,0,0.1603-0.0699,0.1603-0.1604
		c0-0.0845-0.07-0.1574-0.1603-0.1574C44.6733,38.4705,44.6032,38.5434,44.6032,38.6279L44.6032,38.6279z"/>
	<path d="M44.7608,38.8014c-0.0963,0-0.172-0.0757-0.172-0.1735c0-0.1881,0.347-0.1881,0.347,0
		C44.9357,38.7257,44.8569,38.8014,44.7608,38.8014L44.7608,38.8014z M44.7608,38.4835c-0.0787,0-0.1459,0.0642-0.1459,0.1444
		c0,0.1664,0.2917,0.1634,0.2917,0C44.9066,38.5477,44.8424,38.4835,44.7608,38.4835L44.7608,38.4835z"/>
	<path class="st12" d="M44.5537,39.1354c0,0.0875,0.07,0.1589,0.1575,0.1589c0.0903,0,0.1603-0.0714,0.1603-0.1589
		c0-0.086-0.07-0.159-0.1603-0.159C44.6237,38.9764,44.5537,39.0494,44.5537,39.1354L44.5537,39.1354z"/>
	<path d="M44.7112,39.3089c-0.0933,0-0.172-0.0788-0.172-0.1735c0-0.1896,0.344-0.1896,0.344,0
		C44.8832,39.2301,44.8073,39.3089,44.7112,39.3089L44.7112,39.3089z M44.7112,38.991c-0.0787,0-0.1459,0.0642-0.1459,0.1444
		c0,0.1619,0.2916,0.1619,0.2916,0C44.8569,39.0553,44.7929,38.991,44.7112,38.991L44.7112,38.991z"/>
	<path class="st12" d="M46.5892,38.9895c0,0.086,0.07,0.1545,0.1575,0.1545s0.1574-0.0685,0.1574-0.1545
		c0-0.089-0.0699-0.1618-0.1574-0.1618S46.5892,38.9005,46.5892,38.9895L46.5892,38.9895z"/>
	<path d="M46.7467,39.1572c-0.0963,0-0.1721-0.0743-0.1721-0.1677c0-0.1925,0.3441-0.1925,0.3441,0
		C46.9187,39.0829,46.8429,39.1572,46.7467,39.1572L46.7467,39.1572z M46.7467,38.8408c-0.0788,0-0.1429,0.067-0.1429,0.1487
		c0,0.159,0.2886,0.159,0.2886,0C46.8925,38.9079,46.8284,38.8408,46.7467,38.8408L46.7467,38.8408z"/>
	<path class="st12" d="M46.3909,39.4649c0,0.086,0.067,0.1589,0.1575,0.1589c0.0875,0,0.1574-0.0729,0.1574-0.1589
		c0-0.0875-0.0699-0.159-0.1574-0.159C46.458,39.306,46.3909,39.3774,46.3909,39.4649L46.3909,39.4649z"/>
	<path d="M46.5485,39.637c-0.0933,0-0.1722-0.0774-0.1722-0.172c0-0.1896,0.3442-0.1911,0.3442,0
		C46.7205,39.5596,46.6418,39.637,46.5485,39.637L46.5485,39.637z M46.5485,39.3191c-0.0788,0-0.1459,0.0642-0.1459,0.1459
		c0,0.1589,0.2916,0.1619,0.2916,0C46.6942,39.3833,46.63,39.3191,46.5485,39.3191L46.5485,39.3191z"/>
	<path class="st12" d="M46.8925,41.2059c0.1226-0.0205,0.8545-0.194,1.009-0.2873c-0.0992-0.1793-0.277-0.3207-0.1399-0.2595
		c0.0757,0.0306,0.1341-0.2159-0.0817-0.4054c-0.6329,0.2071-2.1464,0.5847-4.0448,0.5847c-1.9422,0-3.4733-0.3996-4.1061-0.6037
		c-0.2187,0.1881-0.1487,0.4024-0.1633,0.4812c0,0,0,0.1005,0.0409,0.1822c0.2128,0.2334,0.9069,0.3472,1.0265,0.3689
		c0.5716,0.0992,1.1431,0.2464,3.202,0.2464C45.5394,41.5135,46.3209,41.3051,46.8925,41.2059L46.8925,41.2059z"/>
	<path d="M43.6351,41.5456c-1.8518,0-2.505-0.1196-3.03-0.2143l-0.175-0.0321c-0.5657-0.1021-0.9069-0.2289-1.047-0.3791
		c-0.0466-0.0948-0.0496-0.1998-0.0496-0.2041c0-0.1721-0.0087-0.3485,0.175-0.5045c0.4666,0.1341,2.0472,0.5949,4.1265,0.5949
		c2.1434,0,3.7356-0.4856,4.0332-0.5832c0.1953,0.1515,0.21,0.3252,0.1808,0.4067h-0.006l-0.0933,0.0569
		c0.0788,0.0715,0.137,0.1401,0.1779,0.2159c-0.1691,0.1384-0.9041,0.3134-1.0295,0.3339l-0.2565,0.0481
		C46.0963,41.3882,45.2739,41.5456,43.6351,41.5456L43.6351,41.5456z M39.5202,40.2654c-0.1283,0.1312-0.1224,0.2814-0.1195,0.3821
		c-0.0029,0.0699-0.0029,0.1632,0.035,0.2362c0.0845,0.0904,0.3265,0.2304,0.9798,0.3485l0.2013,0.0349
		c0.522,0.0963,1.1694,0.2144,3.0183,0.2144c1.633,0,2.4526-0.156,2.9949-0.2597l0.2567-0.0466
		c0.1196-0.0205,0.8487-0.194,0.9974-0.2829c-0.0496-0.0321-0.105-0.0977-0.1429-0.1457l-0.0584-0.1138l0.1108-0.0438
		c0.0146-0.0612,0-0.194-0.1341-0.3121c-0.2683,0.105-1.8694,0.5935-4.0244,0.5935C41.5471,40.8705,39.9577,40.4068,39.5202,40.2654
		L39.5202,40.2654z"/>
	<path class="st12" d="M40.3718,39.898c-0.1224,0.0233-0.8922,0.2961-1.0468,0.3879c0,0.0028,0,0.0028,0,0.0028
		c0.0117,0.0802-0.1342,0.4521,0.0817,0.6416c0.6298-0.2056,2.4-0.8209,4.3014-0.8209c1.9452,0,3.5549,0.6153,4.1848,0.8209
		c0.2158-0.1895,0.0699-0.5614,0.0845-0.6416c0,0-0.003,0,0-0.0028c-0.1545-0.0919-0.9273-0.3646-1.047-0.3879
		c-0.5716-0.0992-1.1606-0.4651-3.2224-0.4651C41.8036,39.4329,40.9405,39.7988,40.3718,39.898L40.3718,39.898z"/>
	<path d="M47.9015,40.9667l-0.2246-0.0743c-0.7173-0.2448-2.2134-0.7509-3.9689-0.7509c-1.8052,0-3.4791,0.5526-4.1936,0.7873
		l-0.1282,0.0263c-0.178-0.156-0.1313-0.4141-0.105-0.5672l-0.003-0.0203l0.0293-0.105c0.1603-0.0993,0.936-0.3733,1.0556-0.3952
		c0.1341-0.0248,0.2828-0.0612,0.4578-0.105c0.5657-0.1444,1.4231-0.3616,2.8871-0.3616c1.5543,0,2.2629,0.2056,2.7791,0.3543
		c0.1663,0.0468,0.3092,0.0875,0.4463,0.1123c0.1196,0.0219,0.8953,0.2931,1.0586,0.3922l0.0291,0.1328
		c0.0233,0.153,0.067,0.4082-0.1079,0.5628L47.9015,40.9667L47.9015,40.9667z M39.3453,40.3135
		c0.0118,0,0.0059,0.0364-0.0029,0.0846c-0.0233,0.1414-0.0642,0.3776,0.0875,0.5089c0.7815-0.2756,2.4613-0.8297,4.2781-0.8297
		c1.7672,0,3.2691,0.5103,3.9894,0.7539l0.1866,0.0642c0.1341-0.1328,0.0962-0.3573,0.0728-0.4929
		c-0.0087-0.0539-0.0174-0.0933-0.0117-0.1196c-0.1341-0.0582-0.8982-0.3295-1.0235-0.3543
		c-0.1401-0.0248-0.2829-0.0655-0.4521-0.1138c-0.5132-0.1472-1.216-0.3498-2.7616-0.3498c-1.4552,0-2.3067,0.2158-2.8725,0.3587
		c-0.1749,0.0453-0.3267,0.0832-0.4608,0.105c-0.1224,0.0248-0.8866,0.2961-1.0353,0.385
		C39.3424,40.3135,39.3424,40.3135,39.3453,40.3135L39.3453,40.3135z"/>
	<path d="M39.8148,40.3617c0.0028,0.0261-0.0175,0.0496-0.0468,0.0524c-0.0261,0.0044-0.0524-0.0146-0.0554-0.0407
		c-0.0058-0.0263,0.0176-0.0496,0.0438-0.0541C39.7886,40.315,39.8119,40.3354,39.8148,40.3617L39.8148,40.3617z"/>
	
		<ellipse transform="matrix(0.9936 -0.1134 0.1134 0.9936 -4.3211 4.7695)" class="st2" cx="39.7653" cy="40.3687" rx="0.0514" ry="0.0478"/>
	<path d="M39.7565,40.4928c0.0058,0.0249-0.0175,0.0482-0.0466,0.0526c-0.0291,0.003-0.0554-0.0146-0.0554-0.0423
		c-0.003-0.0263,0.0145-0.0496,0.0438-0.0539C39.7273,40.4462,39.7536,40.4667,39.7565,40.4928L39.7565,40.4928z"/>
	
		<ellipse transform="matrix(0.9949 -0.1004 0.1004 0.9949 -3.8653 4.191)" class="st2" cx="39.7031" cy="40.4955" rx="0.0513" ry="0.0484"/>
	<path d="M39.8702,40.5628c0.0058,0.0278-0.0146,0.0526-0.0438,0.0541c-0.0291,0.0013-0.0584-0.0161-0.0612-0.0438
		c0-0.0248,0.0175-0.0496,0.0466-0.0511C39.8411,40.5177,39.8674,40.5366,39.8702,40.5628L39.8702,40.5628z"/>
	
		<ellipse transform="matrix(0.9952 -0.0976 0.0976 0.9952 -3.7694 4.08)" class="st2" cx="39.8174" cy="40.5678" rx="0.0527" ry="0.048"/>
	<polygon points="39.7711,40.4768 40.2289,40.2639 40.0103,40.4113 40.156,40.3923 40.0278,40.4667 40.2493,40.4579 	"/>
	<polygon points="39.6457,40.5074 40.2172,40.2406 40.0131,40.4361 40.2144,40.2421 39.8702,40.4462 40.0773,40.4389 
		40.1532,40.366 40.086,40.4389 40.2493,40.4316 40.0394,40.4885 40.2465,40.4331 40.0278,40.4915 40.0569,40.4609 	"/>
	<path d="M41.4946,39.882c0.0029,0.0261-0.0175,0.0496-0.0467,0.0539c-0.0291,0.0015-0.0554-0.0146-0.0582-0.0423
		c-0.003-0.0263,0.0175-0.0511,0.0466-0.0541C41.4655,39.8367,41.4916,39.8572,41.4946,39.882L41.4946,39.882z"/>
	
		<ellipse transform="matrix(0.9939 -0.1104 0.1104 0.9939 -4.1502 4.8191)" class="st2" cx="41.443" cy="39.8877" rx="0.0528" ry="0.0485"/>
	<path d="M41.4362,40.0132c0,0.0248-0.0175,0.0496-0.0496,0.0524c-0.0291,0.0015-0.0554-0.0145-0.0582-0.0422
		c0-0.0263,0.0175-0.0511,0.0496-0.0526C41.4041,39.9665,41.4304,39.987,41.4362,40.0132L41.4362,40.0132z"/>
	
		<ellipse transform="matrix(0.9956 -0.0939 0.0939 0.9956 -3.5747 4.0627)" class="st2" cx="41.3841" cy="40.0176" rx="0.0541" ry="0.0476"/>
	<path d="M41.55,40.0846c0.003,0.0263-0.0205,0.0496-0.0466,0.0526c-0.0293,0.0029-0.0556-0.0161-0.0584-0.0424
		c-0.003-0.0276,0.0175-0.0496,0.0466-0.0524C41.5209,40.038,41.5441,40.0569,41.55,40.0846L41.55,40.0846z"/>
	
		<ellipse transform="matrix(0.9953 -0.0964 0.0964 0.9953 -3.6712 4.1872)" class="st2" cx="41.497" cy="40.0864" rx="0.0527" ry="0.0478"/>
	<polygon points="41.4478,39.9956 41.9028,39.7842 41.6871,39.9315 41.8357,39.9111 41.7045,39.9855 41.9291,39.9766 	"/>
	<polygon points="41.3196,40.0262 41.8941,39.7609 41.69,39.9563 41.8883,39.7624 41.5471,39.965 41.7541,39.9563 41.8329,39.8848 
		41.7629,39.9563 41.9291,39.9505 41.7162,40.0074 41.9232,39.9519 41.7045,40.0102 41.7338,39.9781 	"/>
	<path d="M43.5767,39.6559c-0.0029,0.0278-0.0291,0.0467-0.0582,0.0394c-0.0293-0.0015-0.0496-0.0263-0.0467-0.0541
		c0.0058-0.0261,0.0291-0.0423,0.0584-0.0408C43.5593,39.6049,43.5797,39.6296,43.5767,39.6559L43.5767,39.6559z"/>
	
		<ellipse transform="matrix(0.1382 -0.9904 0.9904 0.1382 -1.7586 77.2736)" class="st2" cx="43.5232" cy="39.6473" rx="0.0478" ry="0.053"/>
	<path d="M43.4864,39.7697c-0.003,0.0248-0.0293,0.0437-0.0554,0.0393c-0.0293-0.0014-0.0496-0.0261-0.0467-0.0539
		c0.0029-0.0263,0.0293-0.0452,0.0554-0.0407C43.4689,39.7186,43.4892,39.7434,43.4864,39.7697L43.4864,39.7697z"/>
	
		<ellipse transform="matrix(0.142 -0.9899 0.9899 0.142 -2.0886 77.1098)" class="st2" cx="43.4359" cy="39.7597" rx="0.0475" ry="0.0516"/>
	<path d="M43.5826,39.8674c-0.0029,0.0263-0.0322,0.0437-0.0612,0.0407c-0.0263-0.0058-0.0466-0.0306-0.0438-0.0567
		c0.003-0.0263,0.0293-0.0438,0.0584-0.0394C43.5651,39.8148,43.5855,39.8396,43.5826,39.8674L43.5826,39.8674z"/>
	
		<ellipse transform="matrix(0.1503 -0.9886 0.9886 0.1503 -2.4227 76.8998)" class="st2" cx="43.5261" cy="39.8594" rx="0.0486" ry="0.0531"/>
	<polygon points="43.5038,39.758 43.9996,39.6589 43.7517,39.7492 43.9004,39.7682 43.7547,39.809 43.9763,39.8527 	"/>
	<polygon points="43.9704,39.8775 43.7489,39.8337 43.7547,39.8337 43.498,39.7828 43.9793,39.6384 43.5097,39.7828 
		43.7517,39.7842 43.9034,39.7419 43.7633,39.8337 43.9821,39.8279 	"/>
	<path d="M45.5043,40.0569c0.0058-0.0263-0.0145-0.0495-0.0438-0.054c-0.0291-0.0029-0.0554,0.0146-0.0582,0.0422
		c-0.0059,0.0263,0.0175,0.0496,0.0437,0.0541C45.4782,40.102,45.5015,40.0818,45.5043,40.0569L45.5043,40.0569z"/>
	
		<ellipse transform="matrix(0.1149 -0.9934 0.9934 0.1149 0.4464 80.6054)" class="st2" cx="45.4561" cy="40.0522" rx="0.0487" ry="0.0513"/>
	<path d="M45.4461,39.9242c0.0029-0.0263-0.0175-0.0496-0.0467-0.0526c-0.0291-0.0043-0.0554,0.0161-0.0554,0.0424
		c-0.0029,0.0276,0.0146,0.0524,0.0467,0.0524C45.4168,39.9708,45.4431,39.9519,45.4461,39.9242L45.4461,39.9242z"/>
	
		<ellipse transform="matrix(0.099 -0.9951 0.9951 0.099 1.1792 81.1362)" class="st2" cx="45.394" cy="39.9169" rx="0.0476" ry="0.0513"/>
	<path d="M45.5599,39.8542c0.0028-0.0263-0.0146-0.0496-0.0437-0.0524c-0.0293-0.003-0.0556,0.016-0.0614,0.0422
		c-0.0028,0.0276,0.0205,0.0496,0.0467,0.0524C45.5306,39.9009,45.5599,39.882,45.5599,39.8542L45.5599,39.8542z"/>
	
		<ellipse transform="matrix(0.0962 -0.9954 0.9954 0.0962 1.4692 81.3123)" class="st2" cx="45.5094" cy="39.8471" rx="0.0479" ry="0.0528"/>
	<polygon points="45.4605,39.9432 45.9155,40.1516 45.6968,40.0074 45.8456,40.0277 45.7172,39.9534 45.9418,39.9621 	"/>
	<polygon points="45.9069,40.1764 45.4489,39.968 45.9389,39.9359 45.4577,39.9695 45.7377,40.0641 45.6823,40.0292 
		45.8456,40.0029 45.8601,40.0059 45.694,40.0335 45.9301,40.1313 	"/>
	<path d="M47.1987,40.4973c0.003-0.0248-0.0175-0.0496-0.0466-0.0511c-0.0293-0.0043-0.0555,0.0146-0.0584,0.0408
		c-0.003,0.0263,0.0205,0.0511,0.0466,0.054C47.1696,40.5454,47.1959,40.5235,47.1987,40.4973L47.1987,40.4973z"/>
	
		<ellipse transform="matrix(0.0976 -0.9952 0.9952 0.0976 2.243 83.4615)" class="st2" cx="47.145" cy="40.4939" rx="0.0478" ry="0.0527"/>
	<path d="M47.1403,40.3675c0.003-0.0278-0.0203-0.0496-0.0466-0.054c-0.0291-0.0014-0.0554,0.0161-0.0584,0.0437
		c-0.0058,0.0263,0.0176,0.0511,0.0468,0.0541C47.1112,40.4141,47.1345,40.3936,47.1403,40.3675L47.1403,40.3675z"/>
	
		<ellipse transform="matrix(0.0976 -0.9952 0.9952 0.0976 2.3202 83.2856)" class="st2" cx="47.0866" cy="40.3634" rx="0.0492" ry="0.0527"/>
	<path d="M47.2541,40.2975c0.003-0.0278-0.0175-0.0495-0.0466-0.0539c-0.0293-0.0045-0.0554,0.016-0.0584,0.0423
		c-0.0029,0.0263,0.0175,0.0496,0.0467,0.0524C47.225,40.3427,47.2512,40.3238,47.2541,40.2975L47.2541,40.2975z"/>
	
		<ellipse transform="matrix(0.11 -0.9939 0.9939 0.11 1.9598 82.7765)" class="st2" cx="47.2015" cy="40.2939" rx="0.0477" ry="0.0528"/>
	<polygon points="47.1521,40.385 47.6099,40.5949 47.3912,40.4477 47.5399,40.468 47.4086,40.3966 47.6362,40.404 	"/>
	<polygon points="47.5982,40.6182 47.1433,40.4098 47.6332,40.3792 47.1521,40.4113 47.4321,40.5074 47.3765,40.4695 
		47.5399,40.4432 47.5515,40.4462 47.3883,40.474 47.6245,40.5731 	"/>
</g>
</svg>
