<?xml version="1.0" encoding="utf-8"?>
<!-- Generator: Adobe Illustrator 21.1.0, SVG Export Plug-In . SVG Version: 6.00 Build 0)  -->
<svg version="1.1" id="Layer_1" xmlns="http://www.w3.org/2000/svg" xmlns:xlink="http://www.w3.org/1999/xlink" x="0px" y="0px"
	 viewBox="0 0 60 60" style="enable-background:new 0 0 60 60;" xml:space="preserve">
<style type="text/css">
	.st0{clip-path:url(#SVGID_2_);}
	.st1{fill:#CE1126;}
	.st2{fill:#FFFFFF;}
	.st3{fill:#017B3F;}
</style>
<g>
	<g>
		<g>
			<defs>
				<circle id="SVGID_1_" cx="30" cy="30" r="30"/>
			</defs>
			<clipPath id="SVGID_2_">
				<use xlink:href="#SVGID_1_"  style="overflow:visible;"/>
			</clipPath>
			<g class="st0">
				<rect class="st1" width="60" height="20"/>
				<rect y="20" class="st2" width="60" height="20"/>
				<rect y="40" width="60" height="20"/>
			</g>
		</g>
	</g>
</g>
<g>
	<g>
		<path class="st3" d="M39.0483,26.1403c-0.126-0.0664-0.2678-0.1732-0.3151-0.2378c-0.0709-0.0991-0.0296-0.103,0.2627-0.0237
			c0.5237,0.1421,0.8616,0.0867,1.1965-0.1969l0.2954-0.2491l0.3478,0.1771c0.1915,0.0966,0.3948,0.1635,0.4535,0.1482
			c0.1506-0.0398,0.463-0.4404,0.4528-0.5791c-0.0122-0.1714,0.1326-0.1285,0.2023,0.0594
			c0.1389,0.3684-0.0635,0.7911-0.4212,0.8848c-0.1748,0.0456-0.3361,0.0287-0.6005-0.0632
			c-0.325-0.1134-0.3803-0.1118-0.5434,0.0129C40.014,26.3528,39.5054,26.379,39.0483,26.1403L39.0483,26.1403z"/>
		<path class="st3" d="M40.343,24.9564c-0.1271-0.1617-0.2798-0.7731-0.2304-0.9232c0.0434-0.1299,0.0881-0.1558,0.2064-0.1188
			c0.2073,0.0648,0.2552,0.2078,0.2243,0.6918C40.5192,25.0009,40.4607,25.1046,40.343,24.9564L40.343,24.9564z"/>
	</g>
	<path class="st3" d="M25.0953,24.5174c-0.0418,0.2959,0.5251,1.0314,0.781,1.1647c-0.1739,0.0779-0.3903,0.0427-0.5497,0.1303
		c-0.8916,0.8916-4.148,4.0663-4.7427,4.8253c1.7613,0.0348,3.7149-0.0239,5.3662-0.0994
		c-0.0016-1.1967,1.1333-1.2586,1.8928-1.6945c0.3907,0.6154,1.372,0.5682,1.4946,1.4946c0,1.1089,0.002,2.7792,0.002,3.9852
		c-4.9818,0-10.0649,0-15.0467,0c-0.2647,1.169-1.3198,2.0608-2.79,1.6938c0.4549-0.4749,1.2209-0.6385,1.4949-1.295
		c0.2315-1.4375-0.4618-2.3253-0.9104-3.1408c0.7417-0.2699,0.8541-0.3372,1.6082-0.844c-0.5291,1.608,1.3756,1.4314,2.7898,1.3946
		c0.0477-0.5459,0.0201-1.1904-0.3988-1.2701c0.5411-0.1965,0.631-0.2638,1.4949-0.9964c0,0.6644,0,1.5023,0,2.1663
		c3.3619,0,6.9882-0.0251,10.4201-0.0251c0-0.678,0.1795-1.767-0.3571-1.767c-0.5124,0-0.0242,1.3941-0.4223,1.3941
		c-0.3982,0-5.3567,0-8.0467,0c0-0.2999-0.0077-0.9269-0.0077-1.3785c0.341-0.3412,0.3006-0.3117,2.6306-2.6419
		C22.0304,27.3813,23.6651,25.9047,25.0953,24.5174L25.0953,24.5174z"/>
	<path class="st3" d="M45.2088,24.46c0.5619,0.3022,1.0066,0.7207,1.6943,0.8968c-0.0797,0.2846-0.3331,0.3973-0.3995,0.6972
		c0,2.0258,0,4.0518,0,6.0774c0.7683,0.1694,0.93-0.266,1.2957-0.498c0.0998,0.9727,0.7193,1.9264,0.6974,2.6898
		c-1.0956,0-2.192,0-3.288,0C45.2088,31.0361,45.2088,27.7481,45.2088,24.46L45.2088,24.46z"/>
	<path class="st3" d="M40.8248,27.7148c0,0,1.1961-1.0097,1.1961-1.0486c0,1.7268,0,3.5767,0,5.3039l0.8614-0.0014
		c0-2.0208-0.0267-4.0703-0.0267-5.9482c0.3496-0.3498,1.0343-0.8564,1.2055-1.2103c0,3.6105,0,6.6666,0,9.4987
		c-2.4269,0-6.9544,0.0029-7.5528,0.0029c-0.1113-1.9716-0.1303-4.0134,2.1679-3.5744c0-0.3361,0-0.535,0-0.8044
		c-0.07-0.1375-0.196,0.0332-0.2254-0.1457c0.365-0.3652,0.4885-0.4582,1.4766-1.3214c0,1.0416,0.0183,3.5003,0.0183,3.5003
		c0.2417,0,0.7121,0.0009,0.8711,0.0009C40.8169,31.9675,40.8248,27.8506,40.8248,27.7148L40.8248,27.7148z M37.9896,31.916
		c0.1617,0.2428,0.7125,0.2385,0.6866-0.1705C38.5833,31.4083,37.8597,31.5368,37.9896,31.916z"/>
	<circle class="st3" cx="16.1256" cy="35.4432" r="0.4612"/>
	<path class="st3" d="M30.3586,24.4695c0.5619,0.3024,1.0066,0.7207,1.6943,0.8968c-0.0797,0.2846-0.3333,0.3973-0.3993,0.6972
		c0,2.0258,0,4.0516,0,6.0776c0.7681,0.1692,0.9298-0.2663,1.2954-0.4982c0.0996,0.9727,0.7193,1.9262,0.6974,2.6898
		c-1.0956,0-2.192,0-3.288,0C30.3586,31.0456,30.3586,27.7575,30.3586,24.4695L30.3586,24.4695z"/>
</g>
</svg>
