<?xml version="1.0" encoding="utf-8"?>
<!-- Generator: Adobe Illustrator 21.1.0, SVG Export Plug-In . SVG Version: 6.00 Build 0)  -->
<svg version="1.1" id="Layer_1" xmlns="http://www.w3.org/2000/svg" xmlns:xlink="http://www.w3.org/1999/xlink" x="0px" y="0px"
	 viewBox="0 0 60 60" style="enable-background:new 0 0 60 60;" xml:space="preserve">
<style type="text/css">
	.st0{fill:#00529B;}
	.st1{fill:#FFFFFF;}
	.st2{fill:#EE3424;}
</style>
<g>
	<g>
		<path class="st0" d="M14.9993,4.0226C8.1283,7.9996,2.9739,14.6202,0.9449,22.4998h14.0545V4.0226z"/>
		<path class="st0" d="M30.0028,22.4998h29.0525C55.7276,9.5662,43.989,0.0088,30.0229,0h-0.02V22.4998z"/>
		<path class="st0" d="M30.0028,59.9988h0.02c13.9661-0.0081,25.7048-9.5662,29.0324-22.4998H30.0028V59.9988z"/>
		<path class="st0" d="M0.9449,37.499c2.029,7.8791,7.1834,14.4995,14.0545,18.4765V37.499H0.9449z"/>
		<path class="st1" d="M30.0028,37.499h29.0525c0.3136-1.2195,0.5428-2.4753,0.7022-3.7498H26.2503v26.0076
			C27.4778,59.9102,28.7282,60,30.0028,60v-0.0012V37.499z"/>
		<path class="st1" d="M0.2426,33.7492c0.1595,1.2745,0.3886,2.5303,0.7022,3.7498h14.0545v18.4765
			c1.2022,0.6943,2.4539,1.3087,3.7512,1.8361V33.7492H0.2426z"/>
		<path class="st1" d="M59.7575,26.2503c-0.1595-1.2772-0.3886-2.531-0.7022-3.7505H30.0028V0l0,0
			c-1.2746,0-2.525,0.0871-3.7525,0.2406v26.0097H59.7575z"/>
		<path class="st1" d="M18.7505,2.1872c-1.2973,0.5253-2.549,1.1404-3.7512,1.8354v18.4772H0.9449
			c-0.3136,1.2195-0.5428,2.4732-0.7022,3.7505h18.5079V2.1872z"/>
		<path class="st2" d="M59.7575,33.7492C59.9116,32.5196,60,31.2692,60,30.0001c0-1.2719-0.0884-2.5229-0.2425-3.7498H26.2503
			V0.2406c-2.6187,0.3277-5.137,0.9884-7.4997,1.9467v24.063H0.2426C0.0885,27.4771,0,28.7282,0,30.0001
			c0,1.2691,0.0885,2.5195,0.2426,3.7491h18.5079v24.0623c2.3628,0.9563,4.881,1.6196,7.4997,1.9453V33.7492H59.7575z"/>
	</g>
</g>
</svg>
