<?xml version="1.0" encoding="utf-8"?>
<!-- Generator: Adobe Illustrator 21.1.0, SVG Export Plug-In . SVG Version: 6.00 Build 0)  -->
<svg version="1.1" id="Layer_1" xmlns="http://www.w3.org/2000/svg" xmlns:xlink="http://www.w3.org/1999/xlink" x="0px" y="0px"
	 viewBox="0 0 60 60" style="enable-background:new 0 0 60 60;" xml:space="preserve">
<style type="text/css">
	.st0{fill:#308A2A;}
	.st1{fill:#F9DA00;}
</style>
<g>
	<g>
		<path d="M57.1844,42.6916C58.9842,38.8346,60,34.5372,60,30.0001c0-4.3945-0.9556-8.5646-2.6562-12.3251L38.4459,30.2386
			L57.1844,42.6916z"/>
		<path class="st0" d="M52.2203,9.8497C46.7321,3.8021,38.8064,0,29.9987,0C21.187,0,13.2611,3.8021,7.7757,9.8497l22.223,14.7728
			L52.2203,9.8497z"/>
		<path d="M2.6496,17.675C0.9528,21.4355,0,25.6055,0,30.0001c0,4.5371,1.0118,8.8345,2.8144,12.6915l18.7357-12.453L2.6496,17.675z
			"/>
		<path class="st0" d="M51.9456,50.4419L29.9987,35.8526L8.0478,50.4419C13.5278,56.3199,21.3304,60,29.9987,60
			C38.663,60,46.4682,56.3199,51.9456,50.4419z"/>
		<path class="st1" d="M51.9456,50.4419c2.1241-2.2817,3.8986-4.8924,5.2388-7.7503l-18.7385-12.453L57.3438,17.675
			c-1.296-2.88-3.0315-5.5155-5.1235-7.8253L29.9987,24.6225L7.7757,9.8497c-2.0946,2.3098-3.8275,4.9453-5.1262,7.8253
			l18.9005,12.5636L2.8144,42.6916c1.3335,2.8579,3.1092,5.4686,5.2334,7.7503l21.9508-14.5893L51.9456,50.4419z"/>
	</g>
</g>
</svg>
