<?xml version="1.0" encoding="utf-8"?>
<!-- Generator: Adobe Illustrator 21.0.2, SVG Export Plug-In . SVG Version: 6.00 Build 0)  -->
<svg version="1.1" id="Layer_1" xmlns="http://www.w3.org/2000/svg" xmlns:xlink="http://www.w3.org/1999/xlink" x="0px" y="0px"
	 viewBox="0 0 335 335" style="enable-background:new 0 0 335 335;" xml:space="preserve">
<style type="text/css">
	.st0{fill:#006600;}
	.st1{fill:#BB0000;}
	.st2{fill:#FFFFFF;}
</style>
<g>
	<g>
		<path class="st0" d="M322.14,231.7h-115.3c-0.47,0.88-0.95,1.76-1.44,2.66l28.79,47.7l-4.05,2.24l-27.36-45.37
			c-9.44,15.86-23.02,33.04-33.03,35.52l0,0l0,0c-0.81,0.2-1.59,0.35-2.33,0.35c-0.76,0-1.55-0.15-2.36-0.35l0,0l0,0
			c-10.03-2.48-23.59-19.65-33.01-35.52l-27.39,45.37l-4.04-2.24l28.79-47.71c-0.51-0.89-0.99-1.78-1.45-2.66H12.68
			C37.86,292.34,97.64,335,167.41,335C237.16,335,296.96,292.34,322.14,231.7z"/>
		<path class="st1" d="M214.07,214.95h113.96c4.46-15.05,6.86-30.96,6.86-47.45c0-16.49-2.42-32.42-6.86-47.46H214.07
			C225.32,152.09,225.32,182.88,214.07,214.95z"/>
		<path class="st1" d="M120.71,120.04H6.75C2.31,135.08-0.1,151.01-0.1,167.5c0,16.48,2.42,32.4,6.85,47.45h113.96
			C109.48,182.88,109.48,152.09,120.71,120.04z"/>
		<path class="st1" d="M125.28,214.95h0.04c5.69-15.82,9.35-31.63,9.35-47.45c0-15.81-3.66-31.64-9.35-47.46h-0.04
			C136.48,152.13,136.48,182.85,125.28,214.95z"/>
		<path class="st1" d="M209.51,120.04h-0.03c-5.69,15.82-9.36,31.65-9.36,47.46c0,15.82,3.67,31.63,9.36,47.45h0.03
			C198.29,182.85,198.29,152.13,209.51,120.04z"/>
		<path d="M107.59,90.17C105.24,86.3,91.84,50.7,91.84,50.7s25.54,28.9,27.87,32.77c3.51,5.81,7.03,11.61,5.3,17.73l1.26,2.1h1.69
			c9.2-17.39,25.51-39.89,37.1-42.75v-0.01v0.01c0.81-0.19,1.6-0.35,2.36-0.35c0.75,0,1.53,0.16,2.33,0.35v-0.01v0.01
			c11.57,2.86,27.9,25.37,37.09,42.75h1.68l1.27-2.1c-1.74-6.11,1.79-11.91,5.29-17.73c2.34-3.86,27.88-32.77,27.88-32.77
			s-13.41,35.61-15.74,39.47c-3.45,5.68-6.88,11.35-13.01,13.12h107.92C296.93,42.65,237.16,0,167.41,0
			C97.65,0,37.89,42.65,12.68,103.29h107.9C114.46,101.52,111.01,95.85,107.59,90.17z"/>
		<path class="st2" d="M125.32,120.04c-0.74-2.06-1.5-4.11-2.32-6.18c0.82,2.07,1.56,4.12,2.28,6.18H125.32z"/>
		<path class="st2" d="M123,113.86c0.52-1.29,1.11-2.67,1.77-4.12l-3.82-6.31c-0.14-0.03-0.25-0.09-0.37-0.13H12.68
			c-2.27,5.44-4.23,11.03-5.93,16.75h113.96C121.43,117.98,122.18,115.93,123,113.86z"/>
		<path class="st2" d="M209.51,120.04c0.73-2.06,1.48-4.11,2.29-6.18c-0.8,2.07-1.56,4.12-2.32,6.18H209.51z"/>
		<path class="st2" d="M208.52,103.29h-1.68c0.26,0.5,0.52,1,0.77,1.5L208.52,103.29z"/>
		<path class="st2" d="M213.83,103.42l-3.81,6.31c0.67,1.45,1.27,2.83,1.77,4.12c0.8,2.07,1.56,4.12,2.27,6.18h113.96
			c-1.7-5.72-3.65-11.31-5.91-16.75H214.21C214.07,103.33,213.97,103.4,213.83,103.42z"/>
		<path class="st2" d="M127.95,103.29h-1.69l0.91,1.51C127.43,104.3,127.69,103.8,127.95,103.29z"/>
		<path class="st2" d="M123,221.14c-0.82-2.06-1.57-4.14-2.29-6.19H6.75c1.69,5.71,3.67,11.3,5.93,16.75h115.28
			C125.91,227.84,124.21,224.23,123,221.14z"/>
		<path class="st2" d="M125.28,214.95c-0.71,2.05-1.47,4.13-2.28,6.19c0.82-2.05,1.58-4.14,2.32-6.19H125.28z"/>
		<path class="st2" d="M209.48,214.95c0.76,2.05,1.52,4.14,2.32,6.19c-0.81-2.06-1.56-4.14-2.29-6.19H209.48z"/>
		<path class="st2" d="M211.8,221.14c-1.2,3.09-2.92,6.7-4.96,10.56h115.3c2.25-5.45,4.21-11.04,5.9-16.75H214.07
			C213.36,217,212.6,219.07,211.8,221.14z"/>
		<path class="st2" d="M230.14,284.31l4.05-2.24l-28.79-47.7c-0.85,1.51-1.71,3.02-2.62,4.57L230.14,284.31z"/>
		<path class="st2" d="M100.61,282.07l4.04,2.24l27.39-45.37c-0.93-1.55-1.8-3.07-2.63-4.58L100.61,282.07z"/>
		<path class="st2" d="M210.02,109.73l3.81-6.31c0.14-0.03,0.24-0.09,0.37-0.13c6.14-1.77,9.56-7.44,13.01-13.12
			c2.33-3.86,15.74-39.47,15.74-39.47s-25.54,28.9-27.88,32.77c-3.5,5.81-7.03,11.61-5.29,17.73l-1.27,2.1l-0.91,1.5
			C208.49,106.51,209.31,108.16,210.02,109.73z"/>
		<path class="st2" d="M126.26,103.29l-1.26-2.1c1.74-6.11-1.79-11.91-5.3-17.73C117.37,79.6,91.84,50.7,91.84,50.7
			s13.4,35.6,15.75,39.47c3.42,5.68,6.88,11.35,13,13.12c0.13,0.04,0.23,0.1,0.37,0.13l3.82,6.31c0.71-1.57,1.53-3.22,2.4-4.93
			L126.26,103.29z"/>
		<path class="st1" d="M211.8,221.14c-0.8-2.05-1.56-4.14-2.32-6.19c-5.69-15.82-9.36-31.63-9.36-47.45
			c0-15.81,3.67-31.64,9.36-47.46c0.76-2.06,1.52-4.11,2.32-6.18c-0.5-1.29-1.11-2.67-1.77-4.12c-0.71-1.57-1.53-3.23-2.42-4.94
			c-0.25-0.51-0.51-1-0.77-1.5c-9.2-17.38-25.52-39.89-37.09-42.75c13.32,27.56,13.3,66.32,0,93.89c0-31.3,0-62.61,0-93.89
			c-0.81-0.19-1.59-0.35-2.33-0.35c-0.76,0-1.55,0.16-2.36,0.35c0,31.28,0,62.59,0,93.89c-13.32-27.57-13.33-66.33,0-93.89
			c-11.59,2.86-27.9,25.36-37.1,42.75c-0.26,0.51-0.52,1.01-0.78,1.51c-0.88,1.71-1.69,3.36-2.4,4.93
			c-0.67,1.45-1.26,2.83-1.77,4.12c0.82,2.07,1.58,4.12,2.32,6.18c5.69,15.82,9.35,31.65,9.35,47.46c0,15.82-3.66,31.63-9.35,47.45
			c-0.74,2.05-1.5,4.14-2.32,6.19c1.21,3.09,2.91,6.7,4.95,10.56c0.46,0.87,0.94,1.76,1.45,2.66c0.83,1.5,1.71,3.03,2.63,4.58
			c9.43,15.86,22.98,33.04,33.01,35.52c-13.33-27.57-13.32-66.32,0-93.87c0,31.29,0,62.58,0,93.87c0.81,0.2,1.6,0.35,2.36,0.35
			c0.75,0,1.53-0.15,2.33-0.35c0-31.29,0-62.59,0-93.87c13.3,27.56,13.32,66.3,0,93.87c10.01-2.48,23.59-19.65,33.03-35.52
			c0.91-1.55,1.77-3.06,2.62-4.57c0.49-0.9,0.97-1.78,1.44-2.66C208.88,227.84,210.59,224.23,211.8,221.14z M167.41,180.92
			c-12.62,0-12.62-26.84,0-26.84C180,154.08,180,180.92,167.41,180.92z"/>
		<path d="M209.51,214.95c0.73,2.05,1.48,4.13,2.29,6.19c0.8-2.06,1.56-4.14,2.27-6.19c11.25-32.06,11.25-62.85,0-94.91
			c-0.71-2.06-1.47-4.11-2.27-6.18c-0.81,2.07-1.56,4.12-2.29,6.18C198.29,152.13,198.29,182.85,209.51,214.95z"/>
		<path d="M125.28,120.04c-0.72-2.06-1.47-4.11-2.28-6.18c-0.82,2.07-1.57,4.12-2.29,6.18c-11.23,32.06-11.23,62.85,0,94.91
			c0.72,2.05,1.47,4.13,2.29,6.19c0.82-2.06,1.57-4.14,2.28-6.19C136.48,182.85,136.48,152.13,125.28,120.04z"/>
		<path class="st2" d="M167.41,154.08c-12.62,0-12.62,26.84,0,26.84C180,180.92,180,154.08,167.41,154.08z"/>
		<path class="st2" d="M169.74,180.58c0,31.29,0,62.58,0,93.87l0,0l0,0C183.06,246.88,183.05,208.14,169.74,180.58z"/>
		<path class="st2" d="M165.05,154.43c0-31.3,0-62.61,0-93.89v-0.01v0.01C151.72,88.11,151.73,126.86,165.05,154.43z"/>
		<path class="st2" d="M165.05,180.58c-13.32,27.56-13.33,66.3,0,93.87l0,0l0,0C165.05,243.16,165.05,211.86,165.05,180.58z"/>
		<path class="st2" d="M169.74,154.43c13.3-27.57,13.32-66.33,0-93.89v-0.01v0.01C169.74,91.82,169.74,123.13,169.74,154.43z"/>
	</g>
</g>
</svg>
