<?xml version="1.0" encoding="utf-8"?>
<!-- Generator: Adobe Illustrator 22.0.0, SVG Export Plug-In . SVG Version: 6.00 Build 0)  -->
<svg version="1.1" id="Layer_1" xmlns="http://www.w3.org/2000/svg" xmlns:xlink="http://www.w3.org/1999/xlink" x="0px" y="0px"
	 viewBox="0 0 60 60" style="enable-background:new 0 0 60 60;" xml:space="preserve">
<style type="text/css">
	.st0{clip-path:url(#SVGID_2_);fill:#E8112D;}
	.st1{clip-path:url(#SVGID_2_);fill:#FFEF00;}
	.st2{clip-path:url(#SVGID_2_);}
	.st3{clip-path:url(#SVGID_4_);fill:#E8112D;}
	.st4{clip-path:url(#SVGID_6_);fill:#E8112D;}
</style>
<g>
	<defs>
		<circle id="SVGID_1_" cx="30" cy="30" r="30"/>
	</defs>
	<clipPath id="SVGID_2_">
		<use xlink:href="#SVGID_1_"  style="overflow:visible;"/>
	</clipPath>
	<rect x="-20" class="st0" width="100" height="60"/>
	<path id="r1" class="st1" d="M29.16,40.8C30,43,28.2,46.4,30,48c-0.6-2.4,1.4-5,0.84-7.2S28.32,38.6,29.16,40.8z"/>
	<path id="r1_1_" class="st1" d="M19.2,29.16C17,30,13.6,28.2,12,30c2.4-0.6,5,1.4,7.2,0.84S21.4,28.32,19.2,29.16z"/>
	<path id="r1_2_" class="st1" d="M30.84,19.2C30,17,31.8,13.6,30,12c0.6,2.4-1.4,5-0.84,7.2S31.68,21.4,30.84,19.2z"/>
	<path id="r1_3_" class="st1" d="M40.8,30.84C43,30,46.4,31.8,48,30c-2.4,0.6-5-1.4-7.2-0.84S38.6,31.68,40.8,30.84z"/>
	<path id="r1_4_" class="st1" d="M25.8637,40.0118c0.119,2.3519-2.6435,5.0293-1.426,7.1072
		c0.171-2.4679,2.8766-4.3227,3.0238-6.588C27.6087,38.2656,25.7447,37.6599,25.8637,40.0118z"/>
	<path id="r1_5_" class="st1" d="M19.9882,25.8637c-2.3519,0.119-5.0293-2.6435-7.1072-1.426
		c2.4679,0.171,4.3227,2.8766,6.588,3.0238S22.3401,25.7447,19.9882,25.8637z"/>
	<path id="r1_6_" class="st1" d="M34.1363,19.9882c-0.1191-2.3519,2.6435-5.0293,1.426-7.1072
		c-0.171,2.4679-2.8766,4.3227-3.0238,6.588C32.3913,21.7344,34.2553,22.3401,34.1363,19.9882z"/>
	<path id="r1_7_" class="st1" d="M40.0118,34.1363c2.3519-0.1191,5.0293,2.6435,7.1072,1.426
		c-2.4679-0.171-4.3227-2.8766-6.588-3.0238C38.2656,32.3913,37.6599,34.2553,40.0118,34.1363z"/>
	<path id="r1_8_" class="st1" d="M22.9723,38.2436c-0.6136,2.2736-4.0683,3.9662-3.5525,6.3187
		c0.9253-2.2943,4.0716-3.2222,4.9116-5.3312S23.5859,35.9701,22.9723,38.2436z"/>
	<path id="r1_9_" class="st1" d="M21.7564,22.9723c-2.2736-0.6136-3.9662-4.0683-6.3187-3.5525
		c2.2943,0.9253,3.2222,4.0716,5.3312,4.9116S24.0299,23.5859,21.7564,22.9723z"/>
	<path id="r1_10_" class="st1" d="M37.0277,21.7564c0.6136-2.2736,4.0683-3.9662,3.5525-6.3187
		c-0.9253,2.2943-4.0716,3.2222-4.9116,5.3312S36.4141,24.0299,37.0277,21.7564z"/>
	<path id="r1_11_" class="st1" d="M38.2436,37.0277c2.2736,0.6136,3.9662,4.0683,6.3187,3.5525
		c-2.2943-0.9253-3.2222-4.0716-5.3312-4.9116S35.9701,36.4141,38.2436,37.0277z"/>
	<path id="r1_12_" class="st1" d="M20.7689,35.6685c-1.2861,1.9727-5.0948,2.5149-5.3312,4.9116
		c1.589-1.8961,4.868-1.8063,6.3187-3.5525C23.207,35.2815,22.055,33.6958,20.7689,35.6685z"/>
	<path id="r1_13_" class="st1" d="M24.3315,20.7689c-1.9727-1.2861-2.5149-5.0948-4.9116-5.3312
		c1.8961,1.589,1.8063,4.868,3.5525,6.3187S26.3042,22.055,24.3315,20.7689z"/>
	<path id="r1_14_" class="st1" d="M39.2311,24.3315c1.2861-1.9727,5.0948-2.5149,5.3312-4.9116
		c-1.589,1.8961-4.868,1.8063-6.3187,3.5525C36.793,24.7185,37.945,26.3042,39.2311,24.3315z"/>
	<path id="r1_15_" class="st1" d="M35.6685,39.2311c1.9727,1.2861,2.5149,5.0948,4.9116,5.3312
		c-1.8961-1.589-1.8063-4.868-3.5525-6.3187C35.2815,36.793,33.6958,37.945,35.6685,39.2311z"/>
	<path id="r1_16_" class="st1" d="M19.469,32.5385c-1.8328,1.4787-5.6226,0.8175-6.588,3.0238
		c2.0971-1.3123,5.1879-0.2136,7.1072-1.426S21.3018,31.0598,19.469,32.5385z"/>
	<path id="r1_17_" class="st1" d="M27.4615,19.469c-1.4787-1.8328-0.8175-5.6226-3.0238-6.588
		c1.3123,2.0971,0.2136,5.1879,1.426,7.1072S28.9402,21.3018,27.4615,19.469z"/>
	<path id="r1_18_" class="st1" d="M40.531,27.4615c1.8327-1.4787,5.6226-0.8175,6.588-3.0238
		c-2.0971,1.3123-5.1879,0.2136-7.1072,1.426C38.0926,27.0762,38.6982,28.9402,40.531,27.4615z"/>
	<path id="r1_19_" class="st1" d="M32.5385,40.531c1.4787,1.8327,0.8175,5.6226,3.0238,6.588
		c-1.3123-2.0971-0.2136-5.1879-1.426-7.1072C32.9238,38.0926,31.0598,38.6982,32.5385,40.531z"/>
	<path id="r1_20_" class="st1" d="M27.4809,40.5356c0.4855,2.3043-1.8242,5.3809-0.2967,7.2428
		c-0.2172-2.4643,2.1649-4.7194,1.956-6.9799C28.9312,38.5379,26.9953,38.2313,27.4809,40.5356z"/>
	<path id="r1_21_" class="st1" d="M19.4644,27.4809c-2.3043,0.4855-5.3809-1.8242-7.2428-0.2967
		c2.4643-0.2172,4.7194,2.1649,6.98,1.956C21.4621,28.9312,21.7687,26.9953,19.4644,27.4809z"/>
	<path id="r1_22_" class="st1" d="M32.5191,19.4644c-0.4855-2.3043,1.8242-5.3809,0.2967-7.2428
		c0.2172,2.4643-2.1649,4.7194-1.956,6.98C31.0688,21.4621,33.0047,21.7687,32.5191,19.4644z"/>
	<path id="r1_23_" class="st1" d="M40.5356,32.5191c2.3043-0.4855,5.3809,1.8242,7.2428,0.2967
		c-2.4643,0.2172-4.7194-2.1649-6.9799-1.956C38.5379,31.0688,38.2313,33.0047,40.5356,32.5191z"/>
	<path id="r1_24_" class="st1" d="M24.3485,39.2415c-0.2503,2.3416-3.3977,4.5538-2.5203,6.7966
		c0.555-2.4108,3.5174-3.8194,4.0172-6.0339S24.5988,36.9,24.3485,39.2415z"/>
	<path id="r1_25_" class="st1" d="M20.7585,24.3485c-2.3416-0.2503-4.5538-3.3977-6.7966-2.5203
		c2.4108,0.555,3.8194,3.5174,6.0339,4.0172S23.1,24.5988,20.7585,24.3485z"/>
	<path id="r1_26_" class="st1" d="M35.6515,20.7585c0.2503-2.3416,3.3977-4.5538,2.5203-6.7966
		c-0.555,2.4108-3.5174,3.8194-4.0172,6.0339C33.6548,22.2102,35.4012,23.1,35.6515,20.7585z"/>
	<path id="r1_27_" class="st1" d="M39.2415,35.6515c2.3416,0.2503,4.5538,3.3977,6.7966,2.5203
		c-2.4108-0.555-3.8194-3.5174-6.0339-4.0172C37.7898,33.6548,36.9,35.4012,39.2415,35.6515z"/>
	<path id="r1_28_" class="st1" d="M21.7693,37.0428c-0.9617,2.1496-4.6386,3.281-4.4972,5.6851
		c1.2728-2.1213,4.5255-2.5456,5.6851-4.4972S22.7309,34.8932,21.7693,37.0428z"/>
	<path id="r1_29_" class="st1" d="M22.9572,21.7693c-2.1496-0.9617-3.281-4.6386-5.6851-4.4972
		c2.1213,1.2728,2.5456,4.5255,4.4972,5.6851S25.1068,22.7309,22.9572,21.7693z"/>
	<path id="r1_30_" class="st1" d="M38.2307,22.9572c0.9617-2.1496,4.6386-3.281,4.4972-5.6851
		c-1.2728,2.1213-4.5255,2.5456-5.6851,4.4972C35.8831,23.7209,37.2691,25.1068,38.2307,22.9572z"/>
	<path id="r1_31_" class="st1" d="M37.0428,38.2307c2.1496,0.9617,3.281,4.6386,5.6851,4.4972
		c-2.1213-1.2728-2.5456-4.5255-4.4972-5.6851C36.2791,35.8831,34.8932,37.2691,37.0428,38.2307z"/>
	<path id="r1_32_" class="st1" d="M19.9958,34.1547c-1.5789,1.7472-5.4255,1.687-6.0339,4.0172
		c1.866-1.6242,5.0906-1.0225,6.7966-2.5203C22.4645,34.1538,21.5746,32.4074,19.9958,34.1547z"/>
	<path id="r1_33_" class="st1" d="M25.8453,19.9958c-1.7472-1.5789-1.687-5.4255-4.0172-6.0339
		c1.6242,1.866,1.0225,5.0906,2.5203,6.7966C25.8462,22.4645,27.5926,21.5746,25.8453,19.9958z"/>
	<path id="r1_34_" class="st1" d="M40.0042,25.8453c1.5789-1.7472,5.4255-1.687,6.0339-4.0172
		c-1.866,1.6242-5.0906,1.0225-6.7966,2.5203C37.5355,25.8462,38.4254,27.5926,40.0042,25.8453z"/>
	<path id="r1_35_" class="st1" d="M34.1547,40.0042c1.7472,1.5789,1.687,5.4255,4.0172,6.0339
		c-1.6242-1.866-1.0225-5.0906-2.5203-6.7966C34.1538,37.5355,32.4074,38.4254,34.1547,40.0042z"/>
	<path id="r1_36_" class="st1" d="M19.2016,30.8598c-2.0415,1.1738-5.6812-0.0721-6.98,1.956
		c2.2766-0.9681,5.1574,0.6006,7.2428-0.2967C21.5497,31.6219,21.2431,29.686,19.2016,30.8598z"/>
	<path id="r1_37_" class="st1" d="M29.1402,19.2016c-1.1738-2.0415,0.0721-5.6812-1.956-6.98
		c0.9681,2.2766-0.6006,5.1574,0.2967,7.2428C28.3781,21.5497,30.314,21.2431,29.1402,19.2016z"/>
	<path id="r1_38_" class="st1" d="M40.7984,29.1402c2.0415-1.1738,5.6812,0.0721,6.98-1.956
		c-2.2766,0.9681-5.1575-0.6006-7.2428,0.2967C38.4503,28.3781,38.7569,30.314,40.7984,29.1402z"/>
	<path id="r1_39_" class="st1" d="M30.8598,40.7984c1.1738,2.0415-0.0721,5.6812,1.956,6.98
		c-0.9681-2.2766,0.6006-5.1575-0.2967-7.2428C31.6219,38.4503,29.686,38.7569,30.8598,40.7984z"/>
	<circle class="st0" cx="30" cy="30" r="10.8"/>
	<circle class="st1" cx="30" cy="29.4" r="9"/>
	<g class="st2">
		<defs>
			<circle id="SVGID_3_" cx="30" cy="30" r="10"/>
		</defs>
		<clipPath id="SVGID_4_">
			<use xlink:href="#SVGID_3_"  style="overflow:visible;"/>
		</clipPath>
		<path class="st3" d="M20.7779,37.2c-0.0014-8.3407,6.7588-15.1033,15.0995-15.1047s15.1033,6.7588,15.1047,15.0995
			c0,0.0018,0,0.0035,0,0.0053h0.1221c0-8.0104-6.4937-14.5042-14.5042-14.5042S22.0958,29.1896,22.0958,37.2H20.7779z"/>
		<path class="st3" d="M22.9595,37.2c0-7.7985,6.322-14.1205,14.1205-14.1205S51.2005,29.4015,51.2005,37.2h0.1693
			c0-7.4944-6.0754-13.5698-13.5698-13.5698S24.2302,29.7056,24.2302,37.2H22.9595z"/>
		<path class="st3" d="M38.28,23.9791c-7.3017,0-13.2209,5.9192-13.2209,13.2209S30.9783,50.4209,38.28,50.4209l0.72-0.493
			c-7.0294,0.0002-12.7281-5.6982-12.7282-12.7276c-0.0002-7.0294,5.6982-12.7281,12.7276-12.7282c0.0002,0,0.0004,0,0.0006,0
			L38.28,23.9791z"/>
	</g>
	<g class="st2">
		<defs>
			<circle id="SVGID_5_" cx="30" cy="30" r="10"/>
		</defs>
		<clipPath id="SVGID_6_">
			<use xlink:href="#SVGID_5_"  style="overflow:visible;"/>
		</clipPath>
		<path class="st4" d="M39.2221,37.2c0.0014-8.3407-6.7588-15.1033-15.0995-15.1047S9.0194,28.8541,9.0179,37.1947
			c0,0.0018,0,0.0035,0,0.0053H8.8958c0-8.0104,6.4937-14.5042,14.5042-14.5042S37.9042,29.1896,37.9042,37.2H39.2221z"/>
		<path class="st4" d="M37.0405,37.2c0-7.7985-6.322-14.1205-14.1205-14.1205S8.7995,29.4015,8.7995,37.2H8.6302
			c0-7.4944,6.0754-13.5698,13.5698-13.5698S35.7698,29.7056,35.7698,37.2H37.0405z"/>
		<path class="st4" d="M21.72,23.9791c7.3017,0,13.2209,5.9192,13.2209,13.2209S29.0217,50.4209,21.72,50.4209L21,49.9279
			c7.0294,0.0002,12.7281-5.6982,12.7282-12.7276S28.03,24.4722,21.0006,24.4721c-0.0002,0-0.0004,0-0.0006,0L21.72,23.9791z"/>
	</g>
</g>
</svg>
