<?xml version="1.0" encoding="utf-8"?>
<!-- Generator: Adobe Illustrator 21.1.0, SVG Export Plug-In . SVG Version: 6.00 Build 0)  -->
<svg version="1.1" id="Layer_1" xmlns="http://www.w3.org/2000/svg" xmlns:xlink="http://www.w3.org/1999/xlink" x="0px" y="0px"
	 viewBox="0 0 60 60" style="enable-background:new 0 0 60 60;" xml:space="preserve">
<style type="text/css">
	.st0{fill:#000099;}
	.st1{fill:#CC0000;}
	.st2{fill:#FFFFFF;stroke:#000000;stroke-width:0.1536;}
	.st3{fill:#FFFFFF;stroke:#000000;stroke-width:0.1536;stroke-linejoin:bevel;}
	.st4{fill:#FFFFFF;stroke:#000000;stroke-width:0.1512;stroke-linejoin:bevel;}
	.st5{fill:#FFFFFF;stroke:#000000;stroke-width:0.157;}
	.st6{fill:none;stroke:#000000;stroke-width:0.128;}
	.st7{fill:none;stroke:#000000;stroke-width:0.1536;}
	.st8{fill:#FFFFFF;stroke:#000000;stroke-width:0.1655;stroke-linejoin:bevel;}
	.st9{fill:#FFFFFF;stroke:#000000;stroke-width:0.1672;}
	.st10{fill:#FFFFFF;stroke:#000000;stroke-width:0.1669;}
</style>
<path class="st0" d="M29.9999,0C20.1873,0,11.4737,4.7127,6.0011,11.9998h47.9983C48.5255,4.7127,39.8132,0,29.9999,0z"/>
<path class="st0" d="M29.9999,60c9.8133,0,18.5256-4.7127,24.0002-12.0006H6.0011C11.4723,55.2873,20.184,60,29.9999,60z"/>
<path class="st1" d="M53.9994,11.9998H6.0011C2.2347,17.0127,0,23.2458,0,29.9996c0,6.7531,2.2347,12.9849,6.0011,17.9998h47.999
	C57.7666,42.9845,60,36.7527,60,29.9996C60,23.2458,57.7666,17.0127,53.9994,11.9998z"/>
<path class="st2" d="M29.7058,20.8604l-0.6315-0.4342v-0.5158c0.2213,0.0512,0.4699,0.072,0.4942,0.3441
	c0.0771-0.388,0.2161-0.5883,0.4345-0.7394c0.2185,0.1511,0.3574,0.3515,0.4345,0.7394c0.0243-0.2721,0.2729-0.2929,0.4945-0.3441
	v0.5158l-0.6319,0.4342H29.7058z"/>
<path class="st3" d="M20.9834,28h18.2132v7.0081H20.9834V28z"/>
<path class="st3" d="M38.2571,31.8699h0.5739v2.6399h-0.5739V31.8699z M20.9834,30.5655h18.2132v0.8146H20.9834V30.5655z
	 M20.9834,29.4612h18.2132v0.7186H20.9834V29.4612z"/>
<path class="st4" d="M20.9834,28.3585h18.2132v0.6968H20.9834V28.3585z"/>
<path class="st3" d="M25.7783,31.8699h0.5739v2.6399h-0.5739V31.8699z M33.6189,31.8699h0.5739v2.6399h-0.5739V31.8699z
	 M21.1274,31.8699h0.5739v2.6399h-0.5739V31.8699z M22.2525,31.8699h0.5739v2.6399h-0.5739V31.8699z M23.4529,31.8699h0.5739v2.6399
	h-0.5739V31.8699z M24.6532,31.8699h0.5739v2.6399h-0.5739V31.8699z M34.7073,31.8699h0.5739v2.6399h-0.5739V31.8699z
	 M35.9076,31.8699h0.5739v2.6399h-0.5739V31.8699z M37.1079,31.8699h0.5739v2.6399h-0.5739V31.8699z"/>
<path class="st2" d="M13.8597,35.3765c0.2817-0.1436,0.6029-0.4776,0.708-0.8514h30.9c0.1052,0.3739,0.4265,0.7079,0.7082,0.8514
	H13.8597z"/>
<path class="st2" d="M29.6226,17.3314c0,0-0.023-0.6581,0.3601-0.6653c0.3835,0.007,0.3601,0.6653,0.3601,0.6653H29.6226z
	 M27.6236,26.0602v-0.886c-0.0128-0.443-0.4417-0.475-0.4542-0.798c0,0-0.0554-0.4845,0.0723-0.7055
	c0.1735,0.6477,0.4891,0.5288,0.4891,0.2625c0-0.2325-0.1788-0.4488-0.5454-1.0131c-0.1172-0.1805-0.0448-0.7458,0.1196-0.9479
	c0.0635,0.4913,0.1364,0.7266,0.3473,0.7266c0.1288,0,0.234-0.0839,0.234-0.33c0-0.3132-0.2121-0.4713-0.3164-0.7562
	c-0.1216-0.3326-0.0378-0.6715,0.1642-0.861c0.0867,0.4849,0.0608,0.6781,0.2764,0.6781c0.4342-0.1373,0-0.766-0.0928-0.9246
	c-0.1066-0.1849,0.1436-0.5538,0.1436-0.5538c0.1381,0.4305,0.1825,0.4657,0.3313,0.4257c0.1879-0.0504,0.1637-0.3291-0.0656-0.5542
	c-0.1447-0.1424-0.1293-0.354,0.0261-0.524c0.156,0.3049,0.3558,0.2865,0.375,0.1053l-0.1255-0.7029h2.7616l-0.137,0.6802
	c-0.0392,0.1945,0.2234,0.2369,0.3867-0.0824c0.1556,0.17,0.1708,0.3817,0.0261,0.524c-0.2292,0.2252-0.2535,0.5038-0.0656,0.5542
	c0.1488,0.04,0.1933,0.0048,0.3313-0.4257c0,0,0.2245,0.2513,0.1436,0.5538c-0.0928,0.1584-0.527,0.7874-0.0928,0.9246
	c0.2154,0,0.1897-0.1933,0.2762-0.6781c0.2021,0.1895,0.2858,0.5285,0.1642,0.861c-0.104,0.2849-0.3162,0.443-0.3162,0.7562
	c0,0.2462,0.1051,0.33,0.2337,0.33c0.2113,0,0.2841-0.2353,0.3478-0.7266c0.164,0.2021,0.2365,0.7674,0.1194,0.9478
	c-0.3665,0.5643-0.5454,0.7805-0.5454,1.0131c0,0.2663,0.3153,0.3852,0.4891-0.2625c0.1276,0.2209,0.072,0.7055,0.072,0.7055
	c-0.0125,0.323-0.4414,0.355-0.4541,0.798v0.886H27.6236z M28.7792,18.695l-0.0635-0.5001h2.5348l-0.0634,0.5001H28.7792z
	 M28.9488,18.1844l-0.0544-0.4113h2.1771l-0.0544,0.4113H28.9488z M29.2945,17.7587l-0.0363-0.4113h1.4497l-0.0362,0.4113H29.2945z
	 M34.5792,35.3765c-0.3244-0.1248-0.7965-0.4673-0.7965-0.8114v-3.8886l0.4222-0.5374h-8.4464l0.4049,0.5378v3.8885
	c0,0.3441-0.3244,0.6866-0.6487,0.8114L34.5792,35.3765z"/>
<path class="st3" d="M27.2603,31.8699h0.5739v2.6399h-0.5739V31.8699z M32.1129,31.8699h0.5739v2.6399h-0.5739V31.8699z"/>
<path class="st2" d="M25.6071,25.7129v4.4262h8.6461v-0.9534l0.0125-3.473c-0.3534,0.1389-0.4155,0.4593-0.4155,0.4593v1.885H26.048
	v-1.8849c0,0-0.0871-0.3204-0.4408-0.4593H25.6071z"/>
<path class="st2" d="M33.0796,35.3765c-0.2826-0.1248-0.8982-0.4673-0.8982-0.8114v-4.3516
	c0.0605-0.243,0.3899-0.3864,0.6018-0.5374H27.05c0.2729,0.1444,0.5771,0.2644,0.6858,0.5378v4.3516
	c0,0.3441-0.4865,0.6866-0.7692,0.8114L33.0796,35.3765z"/>
<path class="st2" d="M33.8494,29.7221v-3.1348h-0.7858v-0.3057h-6.2162v0.3057h-0.7858v3.1348H33.8494z M31.8408,35.3765
	c-0.2769-0.1248-0.6802-0.4673-0.6802-0.8114v-3.7153l0.2276-0.3377H28.557l0.2273,0.3377v3.7155
	c0,0.3444-0.4033,0.6866-0.6802,0.8114L31.8408,35.3765z"/>
<path class="st5" d="M29.2561,30.5127h1.435v4.8617h-1.435V30.5127z"/>
<path class="st3" d="M31.4439,29.4436c0.0032-0.3201,0.9343-0.3345,1.4135-0.6074h-5.754c0.4792,0.2727,1.3884,0.2951,1.3884,0.6074
	l0.1948,0.6213l2.382,0.0957L31.4439,29.4436z"/>
<path class="st2" d="M32.569,26.0602c0-0.7842,0.0328-1.0861,0.2737-1.0861v2.4935c-0.5906,0.2145-1.0123,0.9683-1.0123,0.9683
	h-3.7147c0,0-0.4217-0.7538-1.0124-0.9683v-2.4935c0.2969,0,0.2988,0.3156,0.2988,1.0861H32.569z M32.8427,25.7386
	c0-0.8991,0.7762-1.0003,0.7762-1.0003v0.8002c-0.2953-0.0128-0.4379,0.2526-0.4379,0.6472s0.238,0.4011,0.238,0.4011v2.271h-0.5762
	L32.8427,25.7386z"/>
<path class="st2" d="M27.1067,25.7386c0-0.8991-0.7762-1.0003-0.7762-1.0003v0.8002c0.2953-0.0128,0.4379,0.2526,0.4379,0.6472
	s-0.238,0.4011-0.238,0.4011v2.271h0.5762L27.1067,25.7386z"/>
<path class="st6" d="M28.6367,19.5432h2.7413 M28.3118,20.3994H31.66 M27.9869,21.4381h3.9858 M27.6477,22.7073h4.7271
	 M27.5388,24.1541h4.8695"/>
<path class="st7" d="M26.0616,28.8738h7.7878 M28.5327,28.8754h2.8866v1.0611h-2.8866V28.8754z"/>
<path class="st2" d="M28.171,26.5244c0.4785,0.5746,0.4342,1.5492,0.4289,2.1238h2.7755c-0.0056-0.5746-0.0499-1.5492,0.4286-2.1238
	H28.171z M29.7314,19.9417l-0.3803-0.1959v-0.5597c0.1552,0.0464,0.33,0.0656,0.347,0.3134
	c0.0541-0.3537,0.1517-0.3364,0.3052-0.4742c0.1532,0.1376,0.2508,0.1205,0.3049,0.4742c0.0171-0.2477,0.1916-0.2668,0.3473-0.3137
	v0.5598l-0.3806,0.1959L29.7314,19.9417z"/>
<path class="st2" d="M29.661,22.2928l-0.7263-0.6378v-0.758c0.2545,0.0752,0.5405,0.1059,0.5685,0.5051
	c0.0885-0.5698,0.2484-0.8642,0.4993-1.0862c0.2513,0.222,0.4113,0.5163,0.4998,1.0861c0.028-0.3992,0.3137-0.4299,0.5682-0.5053
	v0.7578l-0.726,0.6378L29.661,22.2928z M31.0006,23.1394l-0.6568,0.9084h-0.7436l-0.6568-0.9084H31.0006z M28.5647,24.6646
	c0.3286,0.1796,0.4497,0.5373,0.4849,1.2088h1.8485c0.0352-0.6715,0.1564-1.0291,0.4849-1.2088H28.5647z"/>
<path class="st3" d="M31.4103,23.1394v-0.9126c-0.3121,0.0859-0.5142,0.2705-0.6043,0.5214c0-0.303-0.3985-1.0014-0.8334-1.3492
	c-0.436,0.3892-0.8414,1.0211-0.8332,1.3492c-0.0741-0.2388-0.2921-0.4353-0.6042-0.5214v0.9126H31.4103z"/>
<path class="st3" d="M31.5496,24.6646v-0.9126c-0.3422,0.0859-0.5637,0.2705-0.6626,0.5214c0-0.303-0.4369-1.0016-0.9134-1.3492
	c-0.4779,0.3892-0.9223,1.0211-0.9134,1.3492c-0.0813-0.2388-0.3204-0.4353-0.6626-0.5214v0.9126H31.5496z"/>
<path class="st3" d="M31.9337,26.5372v-1.0526c-0.4257,0.11-0.6901,0.4246-0.8242,0.6082c0-0.5698-0.6434-1.4388-1.1363-1.7234
	c-0.5057,0.2921-1.1363,1.1899-1.1363,1.7234c-0.1376-0.1825-0.3985-0.4982-0.8242-0.6082v1.0526H31.9337z"/>
<path class="st3" d="M31.7032,28.8738v-1.0822c-0.3755,0.1472-0.4878,0.5089-0.6059,0.7549
	c0.0464-1.0979-0.6181-2.2774-1.1242-2.5767c-0.5062,0.2993-1.1832,1.5044-1.1242,2.5767
	c-0.1213-0.2444-0.2305-0.6077-0.6059-0.7549v1.0822H31.7032z"/>
<path class="st2" d="M31.4407,30.5127v-1.0822c-0.3934,0.0936-0.4177,0.2385-0.5429,0.4811
	c0.0464-0.6557-0.4177-1.4036-0.9239-1.7029c-0.5062,0.2993-0.9705,1.0473-0.9241,1.7029
	c-0.1248-0.2425-0.1404-0.3873-0.5426-0.4811v1.0822H31.4407z"/>
<path class="st2" d="M14.5679,34.525v-3.2713c-0.1072-0.4166-0.4609-0.785-0.7266-0.8588v-2.8799l0.5986,0.3239l0.6837,3.0105
	v3.6756H14.5679z"/>
<path class="st2" d="M14.5679,34.5378v-3.2841c-0.1072-0.4164-0.4609-0.7849-0.7266-0.8586v-3.0798
	c0.4017,0,0.5986,0.5238,0.5986,0.5238l0.6837,3.0105v3.663L14.5679,34.5378z"/>
<path class="st2" d="M14.1422,35.3765c0.2769-0.1248,0.6802-0.4673,0.6802-0.8114v-4.0887l-0.19-0.3374h6.9657l-0.2718,0.3374
	v4.0887c0,0.3441,0.2769,0.6866,0.5538,0.8114H14.1422z"/>
<path class="st2" d="M20.4744,35.3765c-0.2769-0.1248-0.6802-0.4673-0.6802-0.8114v-3.8886l0.5794-0.5378l-4.7354,0.0003
	l0.5794,0.5374v3.8886c0,0.3441-0.4033,0.6866-0.6802,0.8114H20.4744z"/>
<path class="st2" d="M19.8102,35.3765c-0.2769-0.1248-0.6802-0.4673-0.6802-0.8114v-3.5154l0.3793-0.5378h-3.0085l0.3793,0.5378
	v3.5154c0,0.3441-0.4033,0.6866-0.6802,0.8114H19.8102z"/>
<path class="st2" d="M17.2863,30.5127h1.4375v4.8643h-1.4375V30.5127z"/>
<path class="st3" d="M15.3306,31.8699h0.5739v2.6399h-0.5739V31.8699z M20.252,31.8699h0.5739v2.6399H20.252V31.8699z
	 M14.8408,27.4174h0.6914v2.7064h-0.6914V27.4174z M14.8408,26.9085h0.6874v0.5025h-0.6874V26.9085z"/>
<path class="st8" d="M20.5272,28h0.9859v2.0892h-0.9859V28z"/>
<path class="st2" d="M15.521,30.103v-4.6317c0.1972,0,0.2276,0.6786,0.6802,0.6786c0.2353,0,0.2103-0.281,0.0781-0.5101
	c-0.1172-0.2029-0.262-0.483-0.0651-1.0051c0.1351,0.3995,0.4982,0.5262,0.4312,0.2758c-0.1152-0.4302-0.4473-0.5009-0.1985-1.1687
	c0.0867,0.557,0.444,0.5325,0.3572,0.2087c-0.0976-0.3649-0.2998-0.5144-0.0506-1.0288c0.1397,0.5842,0.3284,0.5498,0.3284,0.1873
	c0-0.5355-0.0205-1.1133,0.6727-1.3276c0,0,0.04-0.491,0.29-0.491s0.2902,0.491,0.2902,0.491
	c0.693,0.2145,0.6725,0.7922,0.6725,1.3277c0,0.3625,0.1889,0.3969,0.3284-0.1873c0.2494,0.5144,0.0472,0.6639-0.0504,1.0288
	c-0.0871,0.3238,0.2705,0.3484,0.3569-0.2087c0.249,0.6677-0.0829,0.7385-0.1985,1.1687c-0.0669,0.2505,0.2961,0.1237,0.4312-0.2756
	c0.1969,0.5217,0.052,0.8018-0.0651,1.0051c-0.1322,0.2289-0.1573,0.5101,0.0784,0.5101c0.4523,0,0.4827-0.6786,0.6799-0.6786
	v4.6317L15.521,30.103z M14.4381,26.6044v3.5338h0.4017v-3.5428C14.6952,26.5223,14.5591,26.5111,14.4381,26.6044L14.4381,26.6044z"
	/>
<path class="st2" d="M14.4508,28.8914c0.4981,0.2545,0.9915,0.5494,1.1163,1.2472h-1.1163V28.8914z M21.3595,27.8335v2.3058h0.3257
	v-2.3115C21.5835,27.7801,21.4446,27.7726,21.3595,27.8335z"/>
<path class="st2" d="M21.686,28.8738c-0.4981,0.2545-0.9915,0.5494-1.1163,1.2472h1.1163V28.8738z"/>
<path class="st2" d="M18.3922,23.4883l0.2903-0.2441v-0.3126c-0.1063,0.0104-0.1642,0.0469-0.2426,0.1498
	c-0.0667-0.2073-0.2135-0.3689-0.41-0.4694c-0.1969,0.1005-0.3435,0.255-0.4102,0.4621c-0.0784-0.1029-0.1364-0.132-0.2426-0.1424
	v0.3126l0.2905,0.2441H18.3922z"/>
<path class="st2" d="M18.5475,24.2709l0.1349-0.2921v-0.4065c-0.1063,0.0107-0.1642,0.0477-0.2426,0.152
	c-0.0667-0.2101-0.2135-0.3742-0.41-0.476c-0.1969,0.102-0.3435,0.2586-0.4102,0.4686c-0.0784-0.104-0.1364-0.1338-0.2426-0.1444
	v0.4065l0.1351,0.2919L18.5475,24.2709z"/>
<path class="st2" d="M18.5683,25.332l0.4313-0.5261v-0.519c-0.1578,0.0176-0.2439,0.0805-0.3604,0.257
	c-0.0992-0.3556-0.3169-0.4334-0.6091-0.6059c-0.2921,0.1725-0.5101,0.2377-0.6091,0.5933
	c-0.1165-0.1765-0.2026-0.2266-0.3601-0.2444v0.519l0.431,0.5261H18.5683z"/>
<path class="st2" d="M18.6947,26.3739c0,0,0.5025-0.4385,0.5325-0.6792v-0.5549c-0.1948,0.0227-0.379,0.0733-0.5229,0.3012
	c-0.1224-0.4593-0.3137-0.5874-0.6741-0.8102c-0.3606,0.2228-0.5517,0.3508-0.6741,0.8102
	c-0.144-0.2281-0.3281-0.2785-0.5229-0.3014v0.5547c0.0634,0.2407,0.5323,0.6792,0.5323,0.6792L18.6947,26.3739z"/>
<path class="st2" d="M18.9092,28.2977c0,0,0.6882-0.7618,0.7042-1.0589v-0.8652c-0.2577,0.0357-0.5013,0.2129-0.6914,0.5682
	c-0.162-0.716-0.4145-1.2154-0.8915-1.5627c-0.4769,0.3473-0.7298,0.8466-0.8915,1.5628c-0.1905-0.3556-0.4342-0.533-0.6917-0.5685
	v0.8652c0.0493,0.2969,0.7042,1.0589,0.7042,1.0589L18.9092,28.2977z"/>
<path class="st2" d="M18.9092,29.4356c0,0,0.5883-0.5989,0.7042-0.8588v-0.8652c-0.2577,0.0357-0.5013,0.2129-0.6914,0.5682
	c-0.162-0.716-0.4145-1.1261-0.8915-1.4734c-0.4769,0.3473-0.7298,0.7573-0.8915,1.4735c-0.1905-0.3558-0.4342-0.533-0.6917-0.5685
	v0.8652c0.1493,0.2599,0.7042,0.8588,0.7042,0.8588L18.9092,29.4356z"/>
<path class="st2" d="M19.146,30.0966c-0.1717-0.7471-0.3195-1.3012-1.1464-1.8629c-0.827,0.5618-0.9747,1.1158-1.1464,1.8629H19.146
	z"/>
<path class="st2" d="M19.5718,30.5127v-1.0822c-0.3755,0.1472-0.7149,0.3649-0.8402,0.6074
	c-0.1396-0.6008-0.4091-0.8655-0.7445-1.2291c-0.3356,0.3636-0.5602,0.6283-0.7002,1.2291
	c-0.1252-0.2425-0.4645-0.4601-0.8402-0.6074v1.0822H19.5718z"/>
<path class="st2" d="M45.4359,34.525v-3.2713c0.1072-0.4166,0.4609-0.785,0.7266-0.8588v-2.8799l-0.5986,0.3239l-0.6837,3.0105
	v3.6756H45.4359z"/>
<path class="st2" d="M45.4359,34.5378v-3.2841c0.1072-0.4164,0.4609-0.7849,0.7266-0.8586v-3.0798
	c-0.4017,0-0.5986,0.5238-0.5986,0.5238l-0.6837,3.0105v3.663L45.4359,34.5378z"/>
<path class="st2" d="M45.8616,35.3765c-0.2769-0.1248-0.6802-0.4673-0.6802-0.8114v-4.0887l0.19-0.3374h-6.9657l0.2718,0.3374
	v4.0887c0,0.3441-0.2769,0.6866-0.5538,0.8114H45.8616z"/>
<path class="st2" d="M39.5294,35.3765c0.2769-0.1248,0.6802-0.4673,0.6802-0.8114v-3.8886l-0.5794-0.5378l4.7354,0.0003
	l-0.5794,0.5374v3.8886c0,0.3441,0.4033,0.6866,0.6802,0.8114H39.5294z"/>
<path class="st2" d="M40.1936,35.3765c0.2769-0.1248,0.6802-0.4673,0.6802-0.8114v-3.5154l-0.3793-0.5378h3.0085l-0.3793,0.5378
	v3.5154c0,0.3441,0.4033,0.6866,0.6802,0.8114H40.1936z"/>
<path class="st2" d="M42.7175,30.5127H41.28v4.8643h1.4375V30.5127z"/>
<path class="st3" d="M44.6733,31.8699h-0.5739v2.6399h0.5739V31.8699z M39.7519,31.8699H39.178v2.6399h0.5739V31.8699z
	 M45.163,27.4174h-0.6914v2.7064h0.6914V27.4174z M45.163,26.9085h-0.6874v0.5025h0.6874V26.9085z"/>
<path class="st8" d="M39.4766,28h-0.9859v2.0892h0.9859V28z"/>
<path class="st2" d="M44.4828,30.103v-4.6317c-0.1972,0-0.2276,0.6786-0.6802,0.6786c-0.2353,0-0.2103-0.281-0.0781-0.5101
	c0.1172-0.2029,0.262-0.483,0.0651-1.0051c-0.1351,0.3995-0.4982,0.5262-0.4312,0.2758c0.1152-0.4302,0.4473-0.5009,0.1985-1.1687
	c-0.0867,0.557-0.444,0.5325-0.3572,0.2087c0.0976-0.3649,0.2998-0.5144,0.0506-1.0288c-0.1397,0.5842-0.3284,0.5498-0.3284,0.1873
	c0-0.5355,0.0205-1.1133-0.6727-1.3276c0,0-0.04-0.491-0.29-0.491c-0.25,0-0.2902,0.491-0.2902,0.491
	c-0.693,0.2145-0.6725,0.7922-0.6725,1.3277c0,0.3625-0.1889,0.3969-0.3284-0.1873c-0.2494,0.5144-0.0472,0.6639,0.0504,1.0288
	c0.0871,0.3238-0.2705,0.3484-0.3569-0.2087c-0.249,0.6677,0.0829,0.7385,0.1985,1.1687c0.0669,0.2505-0.2961,0.1237-0.4312-0.2756
	c-0.1969,0.5217-0.052,0.8018,0.0651,1.0051c0.1322,0.2289,0.1573,0.5101-0.0784,0.5101c-0.4523,0-0.4827-0.6786-0.6799-0.6786
	v4.6317L44.4828,30.103z M45.5657,26.6044v3.5338H45.164v-3.5428C45.3087,26.5223,45.4447,26.5111,45.5657,26.6044L45.5657,26.6044z
	"/>
<path class="st2" d="M45.5531,28.8914c-0.4981,0.2545-0.9915,0.5494-1.1163,1.2472h1.1163V28.8914z M38.6444,27.8335v2.3058h-0.3257
	v-2.3115C38.4203,27.7801,38.5592,27.7726,38.6444,27.8335z"/>
<path class="st2" d="M38.3179,28.8738c0.4981,0.2545,0.9915,0.5494,1.1163,1.2472h-1.1163V28.8738z"/>
<path class="st2" d="M41.6116,23.4883l-0.2903-0.2441v-0.3126c0.1063,0.0104,0.1642,0.0469,0.2426,0.1498
	c0.0667-0.2073,0.2135-0.3689,0.41-0.4694c0.1969,0.1005,0.3435,0.255,0.4102,0.4621c0.0784-0.1029,0.1364-0.132,0.2426-0.1424
	v0.3126l-0.2905,0.2441H41.6116z"/>
<path class="st2" d="M41.4564,24.2709l-0.1349-0.2921v-0.4065c0.1063,0.0107,0.1642,0.0477,0.2426,0.152
	c0.0667-0.2101,0.2135-0.3742,0.41-0.476c0.1969,0.102,0.3435,0.2586,0.4102,0.4686c0.0784-0.104,0.1364-0.1338,0.2426-0.1444
	v0.4065l-0.1351,0.2919L41.4564,24.2709z"/>
<path class="st2" d="M41.4356,25.332l-0.4313-0.5261v-0.519c0.1578,0.0176,0.2439,0.0805,0.3604,0.257
	c0.0992-0.3556,0.3169-0.4334,0.6091-0.6059c0.2921,0.1725,0.5101,0.2377,0.6091,0.5933c0.1165-0.1765,0.2026-0.2266,0.3601-0.2444
	v0.519l-0.431,0.5261H41.4356z"/>
<path class="st2" d="M41.3091,26.3739c0,0-0.5025-0.4385-0.5325-0.6792v-0.5549c0.1948,0.0227,0.379,0.0733,0.5229,0.3012
	c0.1224-0.4593,0.3137-0.5874,0.6741-0.8102c0.3606,0.2228,0.5517,0.3508,0.6741,0.8102c0.144-0.2281,0.3281-0.2785,0.5229-0.3014
	v0.5547c-0.0634,0.2407-0.5323,0.6792-0.5323,0.6792L41.3091,26.3739z"/>
<path class="st2" d="M41.0947,28.2977c0,0-0.6882-0.7618-0.7042-1.0589v-0.8652c0.2577,0.0357,0.5013,0.2129,0.6914,0.5682
	c0.162-0.716,0.4145-1.2154,0.8915-1.5627c0.4769,0.3473,0.7298,0.8466,0.8915,1.5628c0.1905-0.3556,0.4342-0.533,0.6917-0.5685
	v0.8652c-0.0493,0.2969-0.7042,1.0589-0.7042,1.0589L41.0947,28.2977z"/>
<path class="st2" d="M41.0947,29.4356c0,0-0.5883-0.5989-0.7042-0.8588v-0.8652c0.2577,0.0357,0.5013,0.2129,0.6914,0.5682
	c0.162-0.716,0.4145-1.1261,0.8915-1.4734c0.4769,0.3473,0.7298,0.7573,0.8915,1.4735c0.1905-0.3558,0.4342-0.533,0.6917-0.5685
	v0.8652c-0.1493,0.2599-0.7042,0.8588-0.7042,0.8588L41.0947,29.4356z"/>
<path class="st2" d="M40.8578,30.0966c0.1717-0.7471,0.3195-1.3012,1.1464-1.8629c0.827,0.5618,0.9747,1.1158,1.1464,1.8629H40.8578
	z"/>
<path class="st2" d="M40.4321,30.5127v-1.0822c0.3755,0.1472,0.7149,0.3649,0.8402,0.6074
	c0.1396-0.6008,0.4091-0.8655,0.7445-1.2291c0.3356,0.3636,0.5602,0.6283,0.7002,1.2291c0.1252-0.2425,0.4645-0.4601,0.8402-0.6074
	v1.0822H40.4321z"/>
<rect x="13.0438" y="35.3332" class="st2" width="33.912" height="0.988"/>
<rect x="12.4299" y="36.3304" class="st2" width="35.1396" height="1.2884"/>
<polygon class="st2" points="47.5695,37.6187 12.4299,37.6283 11.4027,37.6187 11.4027,39.3187 48.597,39.3187 48.597,37.619 "/>
<rect x="10.3682" y="39.3296" class="st2" width="39.2639" height="2.0022"/>
<polygon class="st2" points="49.6323,41.3318 49.6323,41.335 10.3683,41.335 10.3683,41.3318 9.3333,41.3318 9.3333,43.3339 
	50.6667,43.3339 50.6667,41.3318 "/>
<path class="st9" d="M16.7246,35.3381h2.5615v7.9919h-2.5615V35.3381z"/>
<path class="st10" d="M17.2911,35.3381h1.4271v7.992h-1.4271V35.3381z"/>
<path class="st9" d="M28.6751,35.3381h2.5617v7.9919h-2.5617V35.3381z"/>
<path class="st10" d="M29.2593,35.3381h1.4271v7.992h-1.4271L29.2593,35.3381z"/>
<path class="st9" d="M40.6962,35.3381h2.5615v7.9919h-2.5615V35.3381z"/>
<path class="st10" d="M41.2627,35.3381h1.4271v7.992h-1.4271V35.3381z"/>
<path class="st7" d="M14.5679,34.525h30.9 M17.2655,42.3257h1.4795 M17.2655,41.3254h1.4795 M17.2655,40.3251h1.4795
	 M17.2655,39.3248h1.4795 M17.2655,38.3245h1.4795 M17.2655,37.3242h1.4795 M17.2655,36.3239h1.4795 M29.2657,42.3273h1.3775
	 M29.2657,41.3265h1.3775 M29.2657,40.3256h1.3775 M29.2657,39.3248h1.3775 M29.2657,38.324h1.3775 M29.2657,37.3233h1.3775
	 M29.2657,36.3223h1.3775 M41.2371,42.3257h1.4795 M41.2371,41.3254h1.4795 M41.2371,40.3251h1.4795 M41.2371,39.3248h1.4795
	 M41.2371,38.3245h1.4795 M41.2371,37.3242h1.4795 M41.2371,36.3239h1.4795"/>
</svg>
