<?xml version="1.0" encoding="utf-8"?>
<!-- Generator: Adobe Illustrator 22.0.0, SVG Export Plug-In . SVG Version: 6.00 Build 0)  -->
<svg version="1.1" id="Layer_1" xmlns="http://www.w3.org/2000/svg" xmlns:xlink="http://www.w3.org/1999/xlink" x="0px" y="0px"
	 viewBox="0 0 60 60" style="enable-background:new 0 0 60 60;" xml:space="preserve">
<style type="text/css">
	.st0{clip-path:url(#SVGID_2_);}
	.st1{fill:#CE1126;}
	.st2{fill:#FCD116;stroke:#BD9C08;stroke-width:0.3;}
	.st3{fill:#FCD116;stroke:#BD9C08;stroke-width:0.3;stroke-linejoin:round;}
	.st4{fill:#FCD116;stroke:#BD9C08;stroke-width:0.36;}
	.st5{fill:#FCD116;stroke:#BD9C08;stroke-width:0.24;}
	.st6{fill:#FCD116;stroke:#BD9C08;stroke-width:0.24;stroke-linecap:round;}
	.st7{fill:none;stroke:#BD9C08;stroke-width:0.24;stroke-linecap:round;}
	.st8{fill:none;stroke:#BD9C08;stroke-width:0.24;}
	.st9{fill:#BD9C08;}
	.st10{fill:#003F87;}
	.st11{fill:#FFFFFF;}
</style>
<g>
	<defs>
		<circle id="SVGID_1_" cx="30" cy="30" r="30"/>
	</defs>
	<clipPath id="SVGID_2_">
		<use xlink:href="#SVGID_1_"  style="overflow:visible;"/>
	</clipPath>
	<g class="st0">
		<rect x="-30" class="st1" width="120" height="60"/>
		<g>
			<path class="st2" d="M39.878,28.258C41.63,28.728,44.28,28.61,45.47,30c-1.75-0.47-3.91,2.362-5.592,1.742
				c1.486,1.04-21.608,0-19.756,0C18.37,31.272,15.72,31.39,14.53,30c1.75,0.47,3.91-2.362,5.592-1.742
				c-1.486-1.04-4.062-1.846-4.66-3.55c1.486,1.04,4.508-0.888,5.852,0.276c-1.04-1.484-3.214-3.114-3.166-4.928
				c1.04,1.486,4.542,0.69,5.404,2.26c-0.468-1.752-1.882-4.01-1.288-5.714c0.47,1.7516,3.996,2.1866,4.306,3.972
				c0.158-1.8062-0.48-4.4206,0.744-5.8098c-0.158,1.8066,3.026,3.4194,2.686,5.2052c0.766-1.6434,1.19-4.2984,2.686-5.2052
				c-0.766,1.6436,1.734,4.2398,0.744,5.8098c1.282-1.2818,2.52-3.6572,4.306-3.972c-1.282,1.2822,0.084,4.548-1.288,5.714
				c1.642-0.766,3.582-2.5754,5.404-2.26c-1.644,0.766-1.482,4.308-3.166,4.928c1.808-0.158,4.234-1.182,5.852-0.276
				C42.732,24.866,41.73,28.258,39.878,28.258z"/>
			<path class="st3" d="M21.672,30l-6.318-2.582l6.82-0.266l-5.054-4.588l6.5,2.084l-3.18-6.0396l5.396,4.1796l-0.922-6.7618
				l3.64,5.7738L30,15.1294L31.446,21.8l3.64-5.7738l-0.922,6.7618l5.394-4.1796L36.38,24.648l6.498-2.084l-5.052,4.588l6.818,0.266
				L38.328,30l6.316,2.582h-29.29L21.672,30L21.672,30z"/>
			<circle class="st4" cx="30" cy="30" r="8.2716"/>
			<path class="st5" d="M32.72,9.9724l4.436,0.0294c0.028-0.1876-0.38-0.561-0.73-0.6156c-1.122-0.1764-1.964,0.1872-3.328,0.2012
				L32.72,9.9724L32.72,9.9724z"/>
			<path class="st5" d="M23.886,8.9286c1.042,1.316,3.062,2.2306,4.99,2.2426c2.6,0.016,5.484-2.0882,8.97-2.7324L26.464,8.2044
				c-1.474-1.009-2.592-0.881-3.354-0.2554l-2.176,0.0658c-0.308,0.1678,0.254,0.8686,0.71,0.8942L23.886,8.9286z"/>
			<path class="st5" d="M29.032,8.1736c-0.414-1.9036-1.942-2.724-3.778-2.9674c-2.122-0.2812-7.004-0.5694-10.248-1.501
				c1.404,1.3802,4.342,2.0692,6.384,2.3808c2.162,0.33,4.266,0.8108,5.934,2.0702L29.032,8.1736L29.032,8.1736z"/>
			<path class="st6" d="M27.654,9.4442c0.678,0.8708,1.73,0.8216,2.862,0.0618c1.128-0.7572,2.354-2.8894,2.946-2.9244
				c4.138-0.2404,9.144-1.9872,11.532-3.3362C41.966,3.674,38.966,4.16,35.912,4.172c-5.21,0.0208-5.826,2.3936-7.95,4.0572"/>
			<path class="st7" d="M28.462,8.4206c1.11-0.7072,2.012-1.6302,3.052-2.4012c1.722-1.2764,3.71-1.3138,5.846-1.3402
				c1.892-0.0232,5.208-0.8138,7.008-1.2356"/>
			<path class="st8" d="M27.306,8.0872c-0.326-1.7022-1.92-2.213-3.932-2.5188c-2.19-0.3326-4.424-0.5178-6.608-1.1214
				c-0.542-0.1496-1.046-0.414-1.57-0.621"/>
			<path class="st7" d="M28.004,10.5966c2.056,0.1508,3.582-0.4672,5.336-1.3412"/>
			<path class="st7" d="M20.926,8.3662h2.592"/>
			<circle class="st9" cx="24.35" cy="8.0874" r="0.324"/>
		</g>
		<rect x="-30" y="33" class="st10" width="120" height="27"/>
		<path id="w" class="st11" d="M-30,51.428c4,0,8,2.572,12,2.572s8-2.572,12-2.572S2,54,6,54s8-2.572,12-2.572S26,54,30,54
			s8-2.572,12-2.572S50,54,54,54s8-2.572,12-2.572S74,54,78,54s8-2.572,12-2.572v-4.286c-4,0-8,2.572-12,2.572s-8-2.572-12-2.572
			s-8,2.572-12,2.572s-8-2.572-12-2.572s-8,2.572-12,2.572s-8-2.572-12-2.572s-8,2.572-12,2.572s-8-2.572-12-2.572
			s-8,2.572-12,2.572s-8-2.572-12-2.572V51.428z"/>
		<g>
			<path id="w_1_" class="st11" d="M-30,42.8566c4,0,8,2.572,12,2.572s8-2.572,12-2.572s8,2.572,12,2.572s8-2.572,12-2.572
				s8,2.572,12,2.572s8-2.572,12-2.572s8,2.572,12,2.572s8-2.572,12-2.572s8,2.572,12,2.572s8-2.572,12-2.572v-4.286
				c-4,0-8,2.572-12,2.572s-8-2.572-12-2.572s-8,2.572-12,2.572s-8-2.572-12-2.572s-8,2.572-12,2.572s-8-2.572-12-2.572
				s-8,2.572-12,2.572s-8-2.572-12-2.572s-8,2.572-12,2.572s-8-2.572-12-2.572V42.8566z"/>
		</g>
		<g>
			<path id="w_2_" class="st11" d="M-30,34.2852c4,0,8,2.572,12,2.572s8-2.572,12-2.572s8,2.572,12,2.572s8-2.572,12-2.572
				s8,2.572,12,2.572s8-2.572,12-2.572s8,2.572,12,2.572s8-2.572,12-2.572s8,2.572,12,2.572s8-2.572,12-2.572v-4.286
				c-4,0-8,2.572-12,2.572s-8-2.572-12-2.572s-8,2.572-12,2.572s-8-2.572-12-2.572s-8,2.572-12,2.572s-8-2.572-12-2.572
				s-8,2.572-12,2.572s-8-2.572-12-2.572s-8,2.572-12,2.572s-8-2.572-12-2.572V34.2852z"/>
		</g>
	</g>
</g>
</svg>
