<?xml version="1.0" encoding="utf-8"?>
<!-- Generator: Adobe Illustrator 21.1.0, SVG Export Plug-In . SVG Version: 6.00 Build 0)  -->
<svg version="1.1" id="Layer_1" xmlns="http://www.w3.org/2000/svg" xmlns:xlink="http://www.w3.org/1999/xlink" x="0px" y="0px"
	 viewBox="0 0 335 335" style="enable-background:new 0 0 335 335;" xml:space="preserve">
<style type="text/css">
	.st0{fill:#FFC61E;}
	.st1{fill:#3A75C4;}
	.st2{fill:#CE1126;}
	.st3{fill:#FFFFFF;}
	.st4{fill:#3D8E33;}
</style>
<g>
	<g>
		<g>
			<path class="st0" d="M31.04,70.58l19.75,13.17H312.4C283.43,33.73,229.45,0,167.49,0C111.15,0,61.41,27.91,31.04,70.58z"/>
			<path class="st1" d="M312.42,251.25H50.8l-19.76,13.17C61.39,307.06,111.1,334.97,167.4,335h0.18
				C229.51,334.97,283.44,301.24,312.42,251.25z"/>
			<path class="st2" d="M50.8,251.25h261.62C326.69,226.59,335,198.04,335,167.5c0,0,0,0,0-0.01H176.43L50.8,251.25z"/>
			<path class="st3" d="M176.43,167.49H335c0-30.55-8.32-59.09-22.6-83.75H50.78L176.43,167.49z"/>
			<path class="st4" d="M50.78,83.74L31.04,70.58c-3.01,4.25-5.83,8.64-8.45,13.17C8.31,108.4,0,136.95,0,167.49c0,0,0,0,0,0
				c0,30.54,8.3,59.09,22.58,83.75c2.63,4.53,5.44,8.92,8.46,13.17l19.76-13.17l125.63-83.75L50.78,83.74z"/>
		</g>
		<g>
			<path class="st3" d="M40.65,167.49c0-20.94,15.62-38.24,35.81-40.93c-3.91-1.18-8.07-1.83-12.38-1.83
				c-23.61,0-42.75,19.14-42.75,42.76c0,23.62,19.14,42.77,42.75,42.77c4.31,0,8.46-0.64,12.38-1.84
				C56.26,205.74,40.65,188.45,40.65,167.49z"/>
			<g>
				<polygon class="st3" points="76.46,129.83 78.3,135.49 84.27,135.49 79.46,138.99 81.26,144.65 76.46,141.16 71.66,144.65 
					73.49,138.99 68.66,135.49 74.63,135.49 				"/>
				<polygon class="st3" points="76.46,149.99 78.3,155.66 84.27,155.66 79.46,159.16 81.26,164.83 76.46,161.32 71.66,164.83 
					73.49,159.16 68.66,155.66 74.63,155.66 				"/>
				<polygon class="st3" points="76.46,170.16 78.3,175.83 84.27,175.83 79.46,179.33 81.26,184.99 76.46,181.5 71.66,184.99 
					73.49,179.33 68.66,175.83 74.63,175.83 				"/>
				<polygon class="st3" points="76.46,190.33 78.3,195.99 84.27,195.99 79.46,199.5 81.26,205.16 76.46,201.67 71.66,205.16 
					73.49,199.5 68.66,195.99 74.63,195.99 				"/>
			</g>
		</g>
	</g>
</g>
</svg>
