<?xml version="1.0" encoding="utf-8"?>
<!-- Generator: Adobe Illustrator 21.0.2, SVG Export Plug-In . SVG Version: 6.00 Build 0)  -->
<svg version="1.1" id="Layer_1" xmlns="http://www.w3.org/2000/svg" xmlns:xlink="http://www.w3.org/1999/xlink" x="0px" y="0px"
	 viewBox="0 0 335 335" style="enable-background:new 0 0 335 335;" xml:space="preserve">
<style type="text/css">
	.st0{fill:#FFFFFF;}
	.st1{fill:#CE1126;}
	.st2{fill:#003F87;}
</style>
<g>
	<g>
		<path class="st0" d="M334.9893,167.496c0,92.5158-74.9882,167.504-167.4931,167.504C74.9844,335,0,260.0118,0,167.496
			C0,74.9997,74.9844,0,167.4962,0C260.0011,0,334.9893,74.9997,334.9893,167.496z"/>
		<g>
			<g>
				<path class="st1" d="M233.7229,163.2499c3.3299,36.5927-23.6218,68.9314-60.1922,72.2797
					c-36.5658,3.3184-68.9314-23.6256-72.2605-60.1884c-3.3222-36.5735,23.6179-68.9498,60.1845-72.272
					C198.0244,99.747,230.3892,126.6802,233.7229,163.2499z"/>
				<path class="st2" d="M110.6154,134.9368c-9.5023,15.7208-4.5083,36.1398,11.1826,45.6238
					c15.7055,9.5177,36.1169,4.4967,45.6161-11.1864c9.5023-15.694,29.9184-20.685,45.5977-11.1673
					c15.7055,9.4839,20.711,29.9069,11.1857,45.5679c-18.9939,31.4109-59.8099,41.3998-91.2208,22.3982
					C101.6104,207.1567,91.61,166.3369,110.6154,134.9368z"/>
			</g>
			<g>
				<polygon points="26.1548,115.7405 34.789,121.5659 72.0927,66.249 63.48,60.4274 				"/>
				<polygon points="39.4659,124.7194 48.0779,130.5518 85.4077,75.2203 76.7688,69.3835 				"/>
				<polygon points="52.7509,133.6871 61.3813,139.5048 98.6927,84.1687 90.0615,78.3663 				"/>
			</g>
			<g>
				<g>
					<polygon points="256.331,224.7217 264.9614,230.5501 282.2307,204.9232 273.6225,199.091 					"/>
					<polygon points="236.2966,254.4263 244.9239,260.2141 262.2154,234.6094 253.5995,228.7955 					"/>
				</g>
				<g>
					<polygon points="269.6268,233.6969 278.2465,239.5406 295.5387,213.8984 286.9114,208.0692 					"/>
					<polygon points="249.5969,263.3716 258.2205,269.2077 275.5234,243.5953 266.8884,237.7631 					"/>
				</g>
				<g>
					
						<rect x="280.4243" y="227.5632" transform="matrix(0.5592 -0.829 0.829 0.5592 -62.5511 347.8849)" width="30.8963" height="10.4035"/>
					<polygon points="262.885,272.3506 271.5124,278.1645 288.8046,252.5445 280.1773,246.716 					"/>
				</g>
			</g>
			<g>
				<polygon points="286.9114,130.515 295.5387,124.7194 258.2534,69.3835 249.5969,75.205 				"/>
				<g>
					<polygon points="280.188,91.8759 288.8046,86.0467 271.5124,60.4274 262.885,66.249 					"/>
					<polygon points="300.2148,121.5659 308.823,115.7405 291.5537,90.1021 282.9233,95.9428 					"/>
				</g>
				<g>
					
						<rect x="244.062" y="78.6151" transform="matrix(0.8289 -0.5594 0.5594 0.8289 -9.9824 155.5188)" width="10.3975" height="30.9284"/>
					<polygon points="273.6225,139.5048 282.2307,133.6871 264.9614,108.0418 256.3417,113.8701 					"/>
				</g>
			</g>
			<g>
				<polygon points="90.073,260.2141 98.6927,254.4263 61.3813,199.091 52.7509,204.9232 				"/>
				<polygon points="63.48,278.1645 72.0927,272.3506 34.789,217.0482 26.1694,222.866 				"/>
				<g>
					<polygon points="56.7351,239.5406 65.3656,233.6969 48.0963,208.0692 39.4659,213.8754 					"/>
					<polygon points="76.7688,269.1853 85.4077,263.3716 68.1154,237.7631 59.4774,243.577 					"/>
				</g>
			</g>
		</g>
	</g>
</g>
</svg>
