<?xml version="1.0" encoding="utf-8"?>
<!-- Generator: Adobe Illustrator 21.1.0, SVG Export Plug-In . SVG Version: 6.00 Build 0)  -->
<svg version="1.1" id="Layer_1" xmlns="http://www.w3.org/2000/svg" xmlns:xlink="http://www.w3.org/1999/xlink" x="0px" y="0px"
	 viewBox="0 0 60 60" style="enable-background:new 0 0 60 60;" xml:space="preserve">
<style type="text/css">
	.st0{clip-path:url(#SVGID_2_);fill:#00247D;}
	.st1{fill:none;}
	.st2{clip-path:url(#SVGID_4_);fill:none;}
	.st3{clip-path:url(#SVGID_6_);fill:none;}
	.st4{clip-path:url(#SVGID_8_);fill:#00247D;}
	.st5{clip-path:url(#SVGID_10_);fill:#FFFFFF;}
	.st6{clip-path:url(#SVGID_12_);fill:#FFFFFF;}
	.st7{clip-path:url(#SVGID_14_);fill:#CF142B;}
	.st8{clip-path:url(#SVGID_16_);fill:#CF142B;}
	.st9{fill:#FFFFFF;stroke:#FFFFFF;stroke-width:0.6418;stroke-linejoin:round;}
	.st10{fill:#FCEA83;stroke:#FFFFFF;stroke-width:0.6418;stroke-linejoin:round;}
	.st11{fill:#DB161C;stroke:#FFFFFF;stroke-width:0.6418;stroke-linejoin:round;}
	.st12{fill:#073163;stroke:#FFFFFF;stroke-width:0.6418;stroke-linejoin:round;}
	.st13{fill:#059334;stroke:#FFFFFF;stroke-width:0.6418;stroke-linejoin:round;}
	.st14{stroke:#FFFFFF;stroke-width:0.6418;stroke-linejoin:round;}
	.st15{fill:#00493D;stroke:#FFFFFF;stroke-width:0.6418;stroke-linejoin:round;}
	.st16{fill:none;stroke:#FFFFFF;stroke-width:0.6418;stroke-linejoin:round;}
	.st17{fill:#FCEA83;stroke:#000000;stroke-width:0.0961;}
	.st18{fill:#DB161C;stroke:#000000;stroke-width:0.0961;}
	.st19{fill:#00493D;}
	.st20{fill:#FFFFFF;stroke:#000000;stroke-width:0.0961;}
	.st21{fill:#073163;stroke:#000000;stroke-width:0.0961;}
	.st22{fill:#F9D050;stroke:#000000;stroke-width:0.0432;}
	.st23{fill:none;stroke:#000000;stroke-width:0.0432;}
	.st24{fill:#059334;stroke:#000000;stroke-width:0.0961;}
	.st25{stroke:#000000;stroke-width:0.0961;}
	.st26{fill:#00493D;stroke:#000000;stroke-width:0.0961;}
	.st27{fill:none;stroke:#000000;stroke-width:0.0961;}
	.st28{fill:#FFFFFF;}
	.st29{fill:#CF142B;}
	.st30{fill:#0B50A0;}
	.st31{fill:#F9D050;stroke:#000000;stroke-width:0.0961;}
	.st32{fill:#073163;}
	.st33{fill:#F9D050;}
	.st34{fill:#024919;}
</style>
<title>Flag of Barbados</title>
<g>
	<g>
		<defs>
			<circle id="SVGID_1_" cx="30" cy="30" r="30"/>
		</defs>
		<clipPath id="SVGID_2_">
			<use xlink:href="#SVGID_1_"  style="overflow:visible;"/>
		</clipPath>
		<rect id="rect2414_2_" x="-30.4259" y="-0.2126" class="st0" width="120.8518" height="60.4256"/>
	</g>
</g>
<circle class="st1" cx="30" cy="30" r="30"/>
<circle class="st1" cx="30" cy="30" r="30"/>
<circle class="st1" cx="30" cy="30" r="30"/>
<circle class="st1" cx="30" cy="30" r="30"/>
<circle class="st1" cx="30" cy="30" r="30"/>
<circle class="st1" cx="30" cy="30" r="30"/>
<circle class="st1" cx="30" cy="30" r="30"/>
<g>
	<g>
		<defs>
			<circle id="SVGID_3_" cx="30" cy="30" r="30"/>
		</defs>
		<clipPath id="SVGID_4_">
			<use xlink:href="#SVGID_3_"  style="overflow:visible;"/>
		</clipPath>
		<rect x="-45.6763" y="-1.4482" class="st2" width="106.7059" height="62.2446"/>
	</g>
</g>
<g>
	<g>
		<defs>
			<circle id="SVGID_5_" cx="30" cy="30" r="30"/>
		</defs>
		<clipPath id="SVGID_6_">
			<use xlink:href="#SVGID_5_"  style="overflow:visible;"/>
		</clipPath>
		<rect x="-45.6763" y="-1.4482" class="st3" width="106.7059" height="62.2446"/>
	</g>
</g>
<g>
	<circle class="st1" cx="30" cy="30" r="30"/>
	<circle class="st1" cx="30" cy="30" r="30"/>
	<circle class="st1" cx="30" cy="30" r="30"/>
	<circle class="st1" cx="30" cy="30" r="30"/>
	<circle class="st1" cx="30" cy="30" r="30"/>
</g>
<g>
	<g>
		<g>
			<defs>
				<circle id="SVGID_7_" cx="30" cy="30" r="30"/>
			</defs>
			<clipPath id="SVGID_8_">
				<use xlink:href="#SVGID_7_"  style="overflow:visible;"/>
			</clipPath>
			<rect id="rect124_2_" x="-30.4259" y="-0.2126" class="st4" width="60.4259" height="30.2127"/>
		</g>
	</g>
</g>
<g>
	<g>
		<g>
			<defs>
				<circle id="SVGID_9_" cx="30" cy="30" r="30"/>
			</defs>
			<clipPath id="SVGID_10_">
				<use xlink:href="#SVGID_9_"  style="overflow:visible;"/>
			</clipPath>
			<path id="path146_2_" class="st5" d="M-30.4259-0.2126v3.3771L23.2445,30H30v-3.3775L-23.6704-0.2126H-30.4259z M30-0.2126
				v3.3771L-23.6704,30h-6.7555v-3.3775L23.2445-0.2126H30z"/>
		</g>
	</g>
</g>
<g>
	<g>
		<g>
			<defs>
				<circle id="SVGID_11_" cx="30" cy="30" r="30"/>
			</defs>
			<clipPath id="SVGID_12_">
				<use xlink:href="#SVGID_11_"  style="overflow:visible;"/>
			</clipPath>
			<path id="path136_2_" class="st6" d="M-5.2483-0.2126v30.2127h10.071V-0.2126H-5.2483z M-30.4259,9.8578v10.0709H30V9.8578
				H-30.4259z"/>
		</g>
	</g>
</g>
<g>
	<g>
		<g>
			<defs>
				<circle id="SVGID_13_" cx="30" cy="30" r="30"/>
			</defs>
			<clipPath id="SVGID_14_">
				<use xlink:href="#SVGID_13_"  style="overflow:visible;"/>
			</clipPath>
			<path id="path141_2_" class="st7" d="M-30.4259,11.8722v6.0424H30v-6.0424H-30.4259z M-3.234-0.2126v30.2127h6.0422V-0.2126
				H-3.234z"/>
		</g>
	</g>
</g>
<g>
	<g>
		<g>
			<defs>
				<circle id="SVGID_15_" cx="30" cy="30" r="30"/>
			</defs>
			<clipPath id="SVGID_16_">
				<use xlink:href="#SVGID_15_"  style="overflow:visible;"/>
			</clipPath>
			<path id="path150_2_" class="st8" d="M-30.4259,30.0001l20.1421-10.0714h4.5037l-20.1418,10.0714H-30.4259z M-30.4259-0.2126
				l20.1421,10.0704h-4.5037l-15.6384-7.8185V-0.2126z M5.3542,9.8578L25.4963-0.2126H30L9.8579,9.8578H5.3542z M30,30.0001
				L9.8579,19.9286h4.504L30,27.748V30.0001z"/>
		</g>
	</g>
</g>
<g>
	<g id="border_1_">
		<g>
			<path id="shield_3_" class="st9" d="M49.8654,26.9483v6.2476c0,5.4146-2.5631,7.2729-5.9913,8.7467
				c-3.4282-1.4738-6.0234-3.3321-6.0234-8.7467v-6.2476H49.8654L49.8654,26.9483z"/>
		</g>
		<g>
			<g id="motto1_3_">
				<path class="st10" d="M34.1341,41.43c0.1922,0.5126,1.5699,1.1855,3.1719,0.3204c1.0893-0.6087,1.7942-1.4738,2.467-3.0117
					c0.1922-0.3845,0.2883-0.8651-0.1602-1.1534c-0.3524-0.2563-0.9291-0.5447-1.1855-0.801
					c-0.1282-0.1282-0.2563-0.2243-0.3524-0.3204c0.0641,0.0641,0.1282,0.1282,0.1922,0.2243
					c0.6408,0.7689-0.032,1.8903-0.7369,2.5631c-0.5126,0.4806-1.4418,1.666-2.7874,0.5447
					C34.4545,39.5397,33.7817,40.597,34.1341,41.43L34.1341,41.43z"/>
				<path class="st10" d="M53.6138,41.43c-0.2243,0.5126-1.602,1.1855-3.1719,0.3204c-1.0893-0.6087-1.7942-1.4738-2.4991-3.0117
					c-0.1602-0.3845-0.2563-0.8651,0.1922-1.1534c0.3524-0.2563,0.9291-0.5447,1.1854-0.801
					c0.1282-0.1282,0.2243-0.2243,0.3524-0.3204c-0.0641,0.0641-0.1282,0.1282-0.1922,0.2243
					c-0.6408,0.7689,0.032,1.8903,0.7049,2.5631c0.5126,0.4806,1.4738,1.666,2.8195,0.5447
					C53.2935,39.5397,53.9342,40.597,53.6138,41.43L53.6138,41.43z"/>
				<path class="st10" d="M43.8741,44.1854c2.5631,0,6.504-1.1534,8.6185-5.1903c0.3524-0.6728,0-1.0253-0.4165-1.2495
					c-0.4486-0.1922-0.9932-0.6408-1.2816-0.9291c0.5126,0.5126,0.4165,0.8651,0.0641,1.4418
					c-1.634,2.7233-3.8767,4.101-6.9845,4.101c-3.1078,0-5.3505-1.3777-6.9845-4.101c-0.3524-0.5767-0.4486-0.9291,0.032-1.4418
					c-0.2563,0.2884-0.833,0.7369-1.2816,0.9291c-0.4165,0.2243-0.7689,0.5767-0.4165,1.2495
					C37.3381,43.032,41.311,44.1854,43.8741,44.1854L43.8741,44.1854z"/>
			</g>
		</g>
		<g>
			<g id="motto2_3_">
				<path class="st11" d="M37.9468,38.7708c-0.0641-0.3204-0.4806-0.1922-0.6087,0.1922c-0.1602-0.2243-0.3204-0.4486-0.4485-0.7049
					c-0.3845-0.5767-0.4486-0.9612,0.0961-1.5058c0.2563-0.2563,0.7689-0.5447,1.1214-0.2243
					C38.8439,37.1368,38.4594,38.13,37.9468,38.7708L37.9468,38.7708z"/>
				<path class="st11" d="M49.7693,38.7708c0.0641-0.3204,0.5126-0.1922,0.6408,0.1922c0.1602-0.2243,0.3204-0.4486,0.4486-0.7049
					c0.3845-0.5767,0.4485-0.9612-0.1282-1.5058c-0.2243-0.2563-0.7369-0.5447-1.1214-0.2243
					C48.9042,37.1368,49.2567,38.13,49.7693,38.7708L49.7693,38.7708z"/>
				<path class="st11" d="M34.1341,41.43c-0.3204-0.4806-0.5767-1.7301-0.6408-2.0505c-0.0961-0.2883-0.1282-0.5447,0.2243-0.6728
					s0.6728,0.3204,0.833,0.7049c0.1602,0.3845,0.4165,0.9612,0.7049,1.666C34.5507,40.6611,33.9739,40.9494,34.1341,41.43
					L34.1341,41.43z"/>
				<path class="st11" d="M53.6138,41.43c0.2883-0.4806,0.5447-1.7301,0.6408-2.0505c0.0641-0.2883,0.1282-0.5447-0.2243-0.6728
					c-0.3524-0.1282-0.6728,0.3204-0.833,0.7049c-0.1602,0.3845-0.4165,0.9612-0.7049,1.666
					C53.1973,40.6611,53.742,40.9494,53.6138,41.43L53.6138,41.43z"/>
			</g>
		</g>
		<g>
			<g id="rope_3_">
				<path class="st9" d="M41.407,26.9163c-0.4165,0.0961-0.7049,0.1282-1.0893-0.2243c-0.2563-0.2563-0.1922-0.7049,0.0641-0.8651
					c0.2883-0.1922,0.5447-0.3204,0.8971-0.2243c0.3524,0.0961,1.2816,0.9612,1.0573,0.9932
					C42.1119,26.5959,41.7595,26.8202,41.407,26.9163L41.407,26.9163z"/>
				<path class="st9" d="M42.4003,25.3784c0.1282-0.0961,0.2884-0.1602,0.7049-0.1922c0.3845-0.032,0.6728-0.032,0.7689,0.2563
					c0.1282,0.3524,0.2243,0.7689,0.4806,0.9612c-0.1602,0.0961-0.9612,0.1922-1.2495,0.032
					C42.7207,26.2434,42.6245,25.5065,42.4003,25.3784L42.4003,25.3784z"/>
				<path class="st9" d="M45.1556,25.4105c0.1282-0.0961,0.2884-0.0961,0.7049-0.0641c0.4165,0.032,0.5767,0.0641,0.6728,0.3524
					c0.0961,0.3204,0,0.7369,0.1922,1.0253c-0.1922,0.0641-0.833,0.0641-1.0573-0.1602
					C45.3158,26.3076,45.3479,25.5707,45.1556,25.4105L45.1556,25.4105z"/>
				<path class="st12" d="M47.078,25.6027c-0.2884-0.0641-0.4806-0.0961-0.6087,0c0.1602,0.1922,0.032,0.9612,0.3524,1.2175
					c0.2243,0.1602,0.801,0.1922,0.9291-0.1602C47.911,26.3396,47.911,25.859,47.078,25.6027L47.078,25.6027z"/>
				<path class="st12" d="M43.778,25.2823c0.0961-0.0961,0.2884-0.1282,0.6728-0.1282c0.4165,0,0.6728,0.0641,0.801,0.3204
					c0.1282,0.3204,0.0961,0.7369,0.3204,0.9932c-0.0961,0.1282-0.9612,0.1282-1.2175-0.0641
					C44.0022,26.1794,43.9702,25.4425,43.778,25.2823L43.778,25.2823z"/>
				<path class="st12" d="M41.0546,25.5706c0-0.1602,0.2243-0.1922,0.801-0.2243c0.5767-0.0641,0.6087-0.032,0.801,0.3845
					c0.0961,0.2243,0.2243,0.6087,0.4806,0.7369c-0.7049,0.1602-0.9291,0.2563-1.3136,0.032
					c-0.2884-0.1602-0.6087-0.5447-0.6728-0.7049C41.1187,25.6988,41.1187,25.6027,41.0546,25.5706L41.0546,25.5706z"/>
			</g>
		</g>
		<g>
			<g id="turtle_3_">
				<path class="st13" d="M41.1187,22.7191c-0.2243,0-0.4165-0.0961-0.5447-0.2563c-0.2243-0.2884-0.833-0.4165-1.0893-0.1602
					c-0.0961,0.0641-0.2243,0.0641-0.3204,0.0961c-0.1602,0-0.3524,0.1602-0.2884,0.4806c0.1282-0.0961,0.1602,0,0.2563,0
					c0.0641-0.032,0.032,0.032,0.032,0.0961c0,0.1602,0.3524,0.4806,0.6728,0.4485c0.3524,0,0.5126,0.1282,0.5767,0.1922
					c0.0961,0.0961,0.032,0.0641,0.0961,0.2243c0.0961,0.0961,0.1282,0.1282-0.032,0.2563c-0.2243,0.1922-0.3845,0.6408,0,0.9932
					c0.4165,0.3204,1.4738,0.801,2.6593-0.1282c1.1534-0.8971,2.9476-0.3845,3.0758-0.0641
					c0.1602,0.3204,0.2243,0.5126,0.2563,0.6728c0.032,0.1282,0.1922,0.2563,0.4165,0.2243c0.2243,0,0.4806,0.0961,0.6087,0.1922
					c0.1602,0.0961,0.3845,0.0641,0.3204-0.2243c-0.1282-0.8971-0.6728-1.0253-0.7369-1.4418
					c0.3204,0.032,0.5447,0.032,0.6728-0.0961c0.0961-0.1282,0.2243-0.3524,0.3524-0.4165c0.0961-0.0641,0.0961-0.1282-0.032-0.0961
					c-0.1602,0.032-0.2563,0.0961-0.5447,0.0641C46.0527,23.6162,41.9196,22.4949,41.1187,22.7191L41.1187,22.7191z"/>
				<path class="st14" d="M47.6547,23.8085c-0.1602,0.0961-0.3204,0.2563-0.6087,0.6408c-0.3204,0.4165-1.2816,0.833-2.467,0.833
					c-1.1534,0-1.8583-0.1922-2.3709-0.6087c-0.2884-0.2243-0.5126-0.3524-0.7049-0.4486c-0.3524-0.1602-0.4165-0.5126-0.3204-0.801
					c-0.0961,0.1602-0.1602,0.3204-0.3524,0.2884c-0.1282,0-0.3845,0-0.3204,0.1282c-0.032-0.0641-0.032-0.1602-0.0641-0.1922
					c-0.032-0.032-0.0641-0.0641-0.0641-0.0641c0.0961,0.0641,0.3204-0.1282,0.4806-0.1282
					c0.1282,0.032,0.2884-0.1282,0.2563-0.3204c-0.032-0.1602-0.0641-0.2884-0.0961-0.4165
					c0.2563-0.1282,3.6204,0.4806,4.2932,0.5447C45.9886,23.2959,47.911,23.5842,47.6547,23.8085L47.6547,23.8085z"/>
				<path class="st13" d="M41.5673,22.591c0.3204-0.3204,0.7049-0.4806,1.0893-0.3845h0.0961
					c0.1922-0.1602,0.6408-0.1922,0.8971-0.0641h0.1282c0.3845-0.1282,1.1214,0,1.3777,0.2563l0.0961,0.0641
					c0.8651-0.0641,1.3777,0.3204,1.9864,0.9291c0.0641,0.0641,0.1602,0.1922,0.3204,0.2243
					c0.1922,0.032,0.2243,0.1282,0.0641,0.2243c-0.1922,0.0961-0.3524,0.2563-0.6728,0.6087
					c-0.2884,0.3845-1.2175,0.7689-2.3709,0.7689c-1.1214,0-1.7942-0.1922-2.3068-0.5767
					c-0.2884-0.2243-0.5126-0.3524-0.6728-0.4485c-0.1922-0.0641-0.4485-0.3204-0.3524-0.5767
					c0.0641-0.2563-0.0961-0.5767-0.2243-0.8971c0.0961-0.0641,0.3524-0.1602,0.4806-0.0961L41.5673,22.591L41.5673,22.591z"/>
				<g>
					<path class="st15" d="M47.2382,23.392c-0.6087-0.6087-1.1214-0.9932-1.9864-0.9291c0,0.032,0,0.1282-0.032,0.1922
						c0.5126,0.1922,1.2495,0.7689,1.5699,1.1855C46.9178,23.7124,47.142,23.5522,47.2382,23.392L47.2382,23.392z"/>
					<path class="st15" d="M45.1556,22.3988c-0.2563-0.2563-0.9932-0.3845-1.3777-0.2563c0,0.1282,0,0.3204-0.0641,0.4485
						c0.2243,0.0961,0.4165,0.3204,0.6087,0.5447c0.1282-0.032,0.4485-0.1282,0.6087-0.1602
						C44.9954,22.8473,45.1236,22.559,45.1556,22.3988z"/>
					<path class="st15" d="M43.6498,22.1425c-0.2563-0.1282-0.7049-0.0961-0.8971,0.0641
						c-0.0641,0.1282-0.0961,0.3845-0.0961,0.5126c0.1282,0,0.3204,0.0961,0.3845,0.1602c0.1922-0.0641,0.4486-0.1922,0.5447-0.2884
						C43.6178,22.4628,43.6818,22.2706,43.6498,22.1425L43.6498,22.1425z"/>
					<path class="st15" d="M41.5673,22.591c0.3204-0.3204,0.7049-0.4806,1.0893-0.3845c-0.0641,0.0961-0.0961,0.2884-0.0961,0.4806
						c-0.3524-0.032-0.801,0.0641-0.9932,0.1922V22.591z"/>
					<path class="st15" d="M46.6615,23.9046c-0.2884-0.4165-0.9932-0.8971-1.4738-1.1214c0,0.032-0.0641,0.1602-0.0961,0.2563
						c0.1922,0.2884,0.5767,0.9291,0.7369,1.2816C45.9887,24.2571,46.4372,24.0648,46.6615,23.9046L46.6615,23.9046z"/>
					<path class="st15" d="M44.2265,24.6095c0.0641-0.4486,0.0961-1.0893,0.0961-1.3136c0.1602-0.032,0.4806-0.1282,0.6087-0.1602
						c0.1602,0.2563,0.5447,0.9291,0.7049,1.2495C45.2517,24.4813,44.611,24.6415,44.2265,24.6095L44.2265,24.6095z"/>
					<path class="st15" d="M43.1051,23.0715c0.1602-0.0641,0.3845-0.1922,0.5447-0.3204c0.1282,0.0961,0.3845,0.3204,0.4806,0.4485
						c0,0.2884-0.0961,1.1214-0.1282,1.4097c-0.2563,0-0.6728-0.0641-0.8971-0.1922
						C43.1372,23.9366,43.1692,23.3919,43.1051,23.0715L43.1051,23.0715z"/>
					<path class="st15" d="M41.5032,23.456c0.032-0.0641,0.0641-0.2884,0.0641-0.3845c0.2563-0.1602,0.8971-0.3204,1.3777-0.0641
						c0.032,0.3204,0,1.1214-0.032,1.3136C42.4964,24.0007,41.8235,23.5521,41.5032,23.456L41.5032,23.456z"/>
				</g>
				<g>
					<path d="M39.9012,22.8793c-0.0641,0-0.0961-0.1922-0.2243-0.1922c-0.032,0-0.1282,0.032-0.1602,0
						c0,0.0641,0.032,0.1282,0.0641,0.1602C39.6128,22.9434,39.773,22.8793,39.9012,22.8793L39.9012,22.8793z"/>
					<path class="st16" d="M39.9012,23.424c0.3845,0,0.4486-0.4806,0.6408-0.5126"/>
					<path class="st16" d="M40.1255,23.456c0.2884,0.1282,0.5126-0.5447,0.7369-0.5126"/>
					<path class="st16" d="M39.5488,22.623c0.0961,0,0.1602-0.1282,0.3204,0.032c0.0641,0.0641,0.1602,0.0961,0.2243,0.0961"/>
					<path class="st16" d="M40.0293,23.1036c-0.1282,0.1922-0.3524,0.3204-0.4806,0.2563"/>
					<path class="st16" d="M39.4847,22.3026c-0.0961,0.0641-0.1602,0.1922-0.2243,0.2884"/>
					<path class="st16" d="M39.1643,22.7832v0.1602"/>
				</g>
			</g>
		</g>
		<g>
			<g id="pineapple1_3_">
				<path class="st14" d="M42.5925,22.3026c-0.6728-0.5126-1.4738-0.9932-2.2107-1.0893c0.4806,0.2884,1.8262,1.3456,2.1787,1.6981"
					/>
				<path class="st14" d="M42.977,21.822c-0.801-0.5447-1.7301-1.1534-2.6272-1.2175c0.6728,0.3524,1.666,1.1855,2.2107,1.8583"/>
				<path class="st14" d="M44.0022,20.925c0.4486-0.9932,0.9291-1.5379,1.5699-2.1466c-0.3204,0.6728-0.6728,2.0505-0.833,2.5952"/>
				<path class="st14" d="M44.7071,20.7648c0.3204-0.7049,0.801-1.3136,1.634-1.6981c-0.4165,0.4165-1.0573,1.666-1.2175,2.3389"/>
				<path class="st14" d="M44.9954,21.4055c0.3845-0.5447,1.1534-1.5699,2.5311-2.1146c-0.801,0.801-1.9864,2.2748-2.2748,2.8515"/>
				<path class="st14" d="M45.444,22.1104c0.5767-0.3204,1.7301-0.833,2.5631-0.6728c-0.5126,0.1922-2.0505,0.8971-2.7233,1.5379"/>
				<path class="st14" d="M45.3158,21.8861c0.5447-0.5767,1.5379-1.4418,2.5952-1.7942c-0.7689,0.7369-2.4029,2.4029-2.6272,2.6593"
					/>
				<path class="st14" d="M43.778,21.5337c-0.3845-1.1855-0.9612-2.3068-1.8262-2.6593c0.4806,0.7049,1.0893,1.7301,1.4097,3.268"/>
				<path class="st14" d="M43.041,21.5017c-0.6408-0.7689-1.5058-1.5379-2.4991-1.6981c0.6728,0.3845,1.7942,1.5058,2.2107,2.5952"
					/>
				<path class="st14" d="M43.3935,21.4696c-0.801-1.4418-1.4097-1.6981-1.7622-1.9864c0.2884,0.5447,0.9932,1.9864,1.4097,2.5952"
					/>
				<path class="st16" d="M41.7915,21.3735c0.3845,0.2243,0.9612,0.7689,1.1534,1.1214"/>
				<path class="st14" d="M41.7915,22.0463c0.1922,0.1602,0.5447,0.3524,0.8651,0.6408"/>
				<path class="st14" d="M45.6042,22.5269c0.3204-0.2563,1.0253-0.6728,1.3777-0.801"/>
				<path class="st14" d="M45.3799,22.3026c0.3204-0.4165,0.9612-0.9932,1.1854-1.1855"/>
				<path class="st14" d="M46.277,20.3162c-0.2884,0.3204-0.9612,1.1214-1.2175,1.5058"/>
				<path class="st14" d="M45.444,20.0278c-0.2243,0.2884-0.6728,1.1214-0.801,1.4097"/>
				<path class="st14" d="M42.9129,20.092c0.1922,0.5126,0.5447,1.3777,0.6728,1.7301"/>
				<path class="st14" d="M42.6245,20.6366c0.1282,0.1922,0.3845,0.6408,0.4806,0.9612"/>
			</g>
		</g>
		<g>
			<g id="pineapple2_3_">
				<path class="st14" d="M43.7138,20.4764c0-0.2884,0.1922-0.6087,0.3845-0.6087c0.2243,0,0.3845,0.3845,0.3845,0.6087
					c0,0.2563-0.1922,0.4806-0.3845,0.4806C43.9061,20.957,43.7138,20.7647,43.7138,20.4764z"/>
				<path class="st14" d="M43.2973,20.7327c0.032-0.3204,0.2563-0.5767,0.4485-0.5447c0.1922,0.032,0.2884,0.4165,0.2563,0.6408
					c-0.032,0.2563-0.2563,0.4485-0.4165,0.4165C43.4255,21.2453,43.2653,21.021,43.2973,20.7327z"/>
				<path class="st14" d="M44.1624,20.8288c-0.0641-0.2884,0.0641-0.6087,0.2563-0.6408c0.1922-0.032,0.3845,0.2884,0.4165,0.5447
					c0.0641,0.2563-0.0961,0.5126-0.2563,0.5126C44.4188,21.2774,44.1945,21.1172,44.1624,20.8288z"/>
				<path class="st14" d="M43.6818,21.0851c0-0.3204,0.1922-0.6087,0.3845-0.6087c0.2243,0,0.3845,0.3524,0.3845,0.6087
					s-0.1922,0.4806-0.3845,0.4806C43.8741,21.5657,43.6818,21.3735,43.6818,21.0851z"/>
				<path class="st14" d="M43.1051,21.2453c0-0.2884,0.2243-0.6087,0.4165-0.6087c0.1922,0,0.3845,0.3845,0.3845,0.6087
					c0,0.2563-0.2243,0.4806-0.3845,0.4806C43.3294,21.7259,43.1051,21.5337,43.1051,21.2453L43.1051,21.2453z"/>
				<path class="st14" d="M44.2906,21.1172c0-0.2884,0.1922-0.6087,0.3845-0.6087c0.2243,0,0.3845,0.3845,0.3845,0.6087
					c0,0.2563-0.1922,0.4806-0.3845,0.4806C44.4828,21.5978,44.2906,21.4055,44.2906,21.1172z"/>
				<path class="st14" d="M44.1624,21.3735c0-0.3204,0.2243-0.6087,0.4165-0.6087c0.1922,0,0.3845,0.3524,0.3845,0.6087
					c0,0.2563-0.1922,0.4806-0.3845,0.4806C44.3867,21.8541,44.1624,21.6618,44.1624,21.3735L44.1624,21.3735z"/>
				<path class="st14" d="M43.6498,21.6618c0-0.3204,0.1922-0.6087,0.3845-0.6087c0.2243,0,0.3845,0.3845,0.3845,0.6087
					c0,0.2563-0.1922,0.4806-0.3845,0.4806C43.842,22.1424,43.6498,21.9502,43.6498,21.6618z"/>
				<path class="st14" d="M42.8488,21.6618c0-0.3204,0.1602-0.6087,0.3204-0.6087c0.1602,0,0.2884,0.3845,0.2884,0.6087
					c0,0.2563-0.1602,0.4806-0.2884,0.4806C43.009,22.1424,42.8488,21.9502,42.8488,21.6618z"/>
				<path class="st14" d="M44.643,21.5978c0-0.2884,0.1602-0.5767,0.3204-0.5767c0.1602,0,0.3204,0.3524,0.3204,0.5767
					c0,0.2884-0.1922,0.4806-0.3204,0.4806C44.8032,22.0784,44.643,21.8861,44.643,21.5978L44.643,21.5978z"/>
				<path class="st14" d="M44.8353,22.1425c0.0641-0.3204,0.2563-0.5767,0.3845-0.5447c0.1282,0.032,0.1602,0.4165,0.0961,0.6408
					c-0.032,0.2884-0.2243,0.4485-0.3524,0.4165C44.8353,22.623,44.7712,22.3988,44.8353,22.1425z"/>
				<path class="st14" d="M44.2265,22.0463c0.032-0.2884,0.2243-0.5767,0.3845-0.5447c0.1922,0,0.2884,0.3845,0.2563,0.6087
					c-0.032,0.2884-0.1922,0.4806-0.3524,0.4485C44.3546,22.5589,44.1944,22.3347,44.2265,22.0463z"/>
				<path class="st14" d="M43.3294,22.1425c-0.0961-0.3204-0.2883-0.5447-0.4165-0.5126c-0.1282,0.032-0.1602,0.4165-0.0961,0.6408
					c0.0641,0.2563,0.2563,0.4165,0.3845,0.3845C43.2974,22.623,43.3935,22.3988,43.3294,22.1425L43.3294,22.1425z"/>
				<path class="st14" d="M43.1051,22.0783c0-0.2884,0.1602-0.5767,0.3204-0.5767c0.1922,0,0.3204,0.3524,0.3204,0.5767
					c0,0.2884-0.1602,0.4806-0.3204,0.4806C43.2974,22.5589,43.1051,22.3667,43.1051,22.0783L43.1051,22.0783z"/>
				<path class="st14" d="M43.5857,22.2065c0-0.3204,0.1922-0.6087,0.3845-0.6087c0.2243,0,0.3845,0.3524,0.3845,0.6087
					c0,0.2563-0.1922,0.4806-0.3845,0.4806C43.7779,22.6871,43.5857,22.4949,43.5857,22.2065z"/>
				<path class="st14" d="M43.7459,18.6822c-0.0641,0.2563-0.2884,0.4806-0.1282,0.833c-0.2884-0.0961-0.5447-0.1282-0.7689,0.1282
					c0.2884-0.032,0.5447,0.0641,0.6728,0.2563c-0.2563-0.032-0.3845,0.0961-0.4485,0.2563
					c0.2243-0.0641,0.4485-0.1282,0.5447-0.0961c-0.0961,0.0961-0.2563,0.2563-0.2884,0.3845
					c0.1922-0.1602,0.4165-0.1282,0.5447-0.2243c-0.0961,0.2243,0.0961,0.4485,0.2563,0.6728
					c-0.032-0.3204,0.1602-0.5447,0.0641-0.7049c0.2884,0.0641,0.3204,0.3204,0.7369,0.3204
					c-0.1602-0.0961-0.2563-0.4165-0.4485-0.4165c0.0961-0.032,0.4806-0.0641,0.5447,0c-0.0641-0.1282-0.2883-0.2563-0.4165-0.2563
					c0.1282-0.1282,0.3524-0.3845,0.5126-0.4485c-0.2243,0.032-0.5767,0.0641-0.7049,0.2563
					c0.3204-0.2563,0.2563-0.7369,0.6087-0.801c-0.1922-0.032-0.4806,0.0961-0.7049,0.3204
					c0.0961-0.1922,0.0961-0.4485,0.2243-0.5126c-0.2563,0.0641-0.5447,0.3845-0.6408,0.5447
					C43.9061,19.0346,43.81,18.7783,43.7459,18.6822L43.7459,18.6822z"/>
				<path class="st14" d="M43.9061,19.1948c0,0.0961,0,0.2884-0.032,0.3524"/>
				<path class="st14" d="M44.3226,19.1628c-0.0641,0.0641-0.1922,0.2884-0.1922,0.4806"/>
				<path class="st16" d="M44.5148,19.5473c-0.0961,0.0641-0.1922,0.1602-0.2243,0.2884"/>
			</g>
		</g>
	</g>
	<g id="motto_1_">
		<g id="motto1_2_">
			<path class="st17" d="M34.1341,41.43c0.1922,0.5126,1.5699,1.1855,3.1719,0.3204c1.0893-0.6087,1.7942-1.4738,2.467-3.0117
				c0.1922-0.3845,0.2883-0.8651-0.1602-1.1534c-0.3524-0.2563-0.9291-0.5447-1.1855-0.801
				c-0.1282-0.1282-0.2563-0.2243-0.3524-0.3204c0.0641,0.0641,0.1282,0.1282,0.1922,0.2243
				c0.6408,0.7689-0.032,1.8903-0.7369,2.5631c-0.5126,0.4806-1.4418,1.666-2.7874,0.5447
				C34.4545,39.5397,33.7817,40.597,34.1341,41.43L34.1341,41.43z"/>
			<path class="st17" d="M53.6138,41.43c-0.2243,0.5126-1.602,1.1855-3.1719,0.3204c-1.0893-0.6087-1.7942-1.4738-2.4991-3.0117
				c-0.1602-0.3845-0.2563-0.8651,0.1922-1.1534c0.3524-0.2563,0.9291-0.5447,1.1854-0.801
				c0.1282-0.1282,0.2243-0.2243,0.3524-0.3204c-0.0641,0.0641-0.1282,0.1282-0.1922,0.2243
				c-0.6408,0.7689,0.032,1.8903,0.7049,2.5631c0.5126,0.4806,1.4738,1.666,2.8195,0.5447
				C53.2935,39.5397,53.9342,40.597,53.6138,41.43L53.6138,41.43z"/>
			<path class="st17" d="M43.8741,44.1854c2.5631,0,6.504-1.1534,8.6185-5.1903c0.3524-0.6728,0-1.0253-0.4165-1.2495
				c-0.4486-0.1922-0.9932-0.6408-1.2816-0.9291c0.5126,0.5126,0.4165,0.8651,0.0641,1.4418
				c-1.634,2.7233-3.8767,4.101-6.9845,4.101c-3.1078,0-5.3505-1.3777-6.9845-4.101c-0.3524-0.5767-0.4486-0.9291,0.032-1.4418
				c-0.2563,0.2884-0.833,0.7369-1.2816,0.9291c-0.4165,0.2243-0.7689,0.5767-0.4165,1.2495
				C37.3381,43.032,41.311,44.1854,43.8741,44.1854L43.8741,44.1854z"/>
		</g>
		<g id="motto2_2_">
			<path class="st18" d="M37.9468,38.7708c-0.0641-0.3204-0.4806-0.1922-0.6087,0.1922c-0.1602-0.2243-0.3204-0.4486-0.4485-0.7049
				c-0.3845-0.5767-0.4486-0.9612,0.0961-1.5058c0.2563-0.2563,0.7689-0.5447,1.1214-0.2243
				C38.8439,37.1368,38.4594,38.13,37.9468,38.7708L37.9468,38.7708z"/>
			<path class="st18" d="M49.7693,38.7708c0.0641-0.3204,0.5126-0.1922,0.6408,0.1922c0.1602-0.2243,0.3204-0.4486,0.4486-0.7049
				c0.3845-0.5767,0.4485-0.9612-0.1282-1.5058c-0.2243-0.2563-0.7369-0.5447-1.1214-0.2243
				C48.9042,37.1368,49.2567,38.13,49.7693,38.7708L49.7693,38.7708z"/>
			<path class="st18" d="M34.1341,41.43c-0.3204-0.4806-0.5767-1.7301-0.6408-2.0505c-0.0961-0.2883-0.1282-0.5447,0.2243-0.6728
				s0.6728,0.3204,0.833,0.7049c0.1602,0.3845,0.4165,0.9612,0.7049,1.666C34.5507,40.6611,33.9739,40.9494,34.1341,41.43
				L34.1341,41.43z"/>
			<path class="st18" d="M53.6138,41.43c0.2883-0.4806,0.5447-1.7301,0.6408-2.0505c0.0641-0.2883,0.1282-0.5447-0.2243-0.6728
				c-0.3524-0.1282-0.6728,0.3204-0.833,0.7049c-0.1602,0.3845-0.4165,0.9612-0.7049,1.666
				C53.1973,40.6611,53.742,40.9494,53.6138,41.43L53.6138,41.43z"/>
		</g>
		<g>
			<path class="st19" d="M35.9924,38.5465l-0.2563,0.1282c-0.0641,0.032-0.0641,0.0961-0.0641,0.1282H35.64l-0.1282-0.2884h0.032
				c0,0.032,0.032,0.0641,0.0961,0.032l0.5447-0.2884c0.0641-0.032,0.0641-0.0641,0.032-0.0961l0.032-0.032l0.1602,0.3204h-0.032
				c-0.032-0.032-0.0641-0.0641-0.1282-0.032l-0.2243,0.1282l0.0961,0.1922l0.2563-0.0961c0.0641-0.032,0.032-0.0961,0.032-0.1282
				h0.032l0.1282,0.2883c-0.032-0.032-0.0641-0.0641-0.1282-0.032l-0.5447,0.2884c-0.0641,0.032-0.0641,0.0641-0.032,0.0961
				l-0.032,0.032l-0.1602-0.2884l0.032-0.032c0.032,0.032,0.0641,0.0641,0.1282,0.032l0.2563-0.1282L35.9924,38.5465
				L35.9924,38.5465z"/>
			<path class="st19" d="M36.5371,38.963c0.0641-0.032,0.0641-0.0641,0.032-0.1282h0.032l0.3204,0.4806l-0.2243,0.1602v-0.032
				c0.1282-0.0961,0.1282-0.2243,0.0961-0.2563s-0.0641-0.0641-0.0641-0.0961c-0.032,0-0.032-0.032-0.0961,0.032
				c-0.032,0.032-0.2243,0.1602-0.2243,0.1602c0.032,0.032,0.0641,0.1282,0.2243,0.032h0.032l-0.3524,0.2563v-0.032
				c0.1602-0.1282,0.0961-0.2243,0.0641-0.2563l-0.2243,0.1602c-0.0641,0.032-0.0641,0.0641-0.0641,0.0961
				c0.032,0,0.032,0.032,0.0641,0.0641c0.032,0.0641,0.1282,0.1282,0.2884,0.0641l0.032,0.032l-0.2563,0.0961l-0.3204-0.5126h0.032
				c0.032,0.032,0.0641,0.0641,0.1282,0.032L36.5371,38.963L36.5371,38.963z"/>
			<path class="st19" d="M37.0497,40.1805l-0.2243,0.1922c-0.032,0.032-0.032,0.0961,0,0.1282h-0.032l-0.2243-0.2243l0.032-0.032
				c0.032,0.032,0.0641,0.0641,0.1282,0l0.4165-0.4165c0.0641-0.032,0.0641-0.0641,0.032-0.1282l0.2243,0.2563
				c-0.032-0.032-0.0961-0.032-0.1282,0l-0.1922,0.1922l0.1602,0.1602l0.1922-0.1602c0.0641-0.0641,0.032-0.0961,0-0.1282
				l0.032-0.032l0.2243,0.2563h-0.032c-0.032,0-0.0641-0.032-0.1282,0.032l-0.4165,0.3845
				c-0.0641,0.0641-0.0641,0.0961-0.032,0.1282v0.032l-0.2243-0.2563c0.032,0,0.0961,0.032,0.1282,0l0.2243-0.2243L37.0497,40.1805
				L37.0497,40.1805z"/>
			<path class="st19" d="M37.5303,40.8533l0.0961,0.0961c0.1282-0.2884,0.1282-0.2884,0.1282-0.2884s-0.0961,0.032-0.2563,0.1282
				L37.5303,40.8533l-0.032,0.032l-0.0641-0.0641c-0.032,0.032-0.0641,0.032-0.0961,0.0641
				c-0.0961,0.0641-0.0641,0.0961-0.032,0.1282v0.032l-0.1602-0.1602h0.032l0.1282-0.032c0.6408-0.3524,0.6408-0.3524,0.6408-0.3524
				l0.032,0.032c0,0-0.032,0.032-0.3204,0.6728c0,0.0641-0.032,0.0961,0,0.1602l-0.2563-0.2243l0.032-0.032
				c0.032,0.0641,0.0961,0.0641,0.1282,0c0-0.032,0.032-0.0961,0.032-0.1282l-0.0961-0.0961L37.5303,40.8533L37.5303,40.8533z"/>
			<path class="st19" d="M37.7866,41.4941l0.032-0.032c0.032,0.032,0.0641,0.032,0.1282,0l0.4165-0.5447l-0.032-0.032
				c-0.0641-0.032-0.1602-0.032-0.2563,0.0641v-0.032l0.1282-0.1602l0.4806,0.3524l-0.1602,0.1922h-0.032
				c0.0961-0.0961,0.0641-0.2243,0-0.2563v-0.032l-0.4165,0.5447c-0.0641,0.032-0.032,0.0961,0,0.1282h-0.032L37.7866,41.4941
				L37.7866,41.4941z"/>
			<path class="st19" d="M38.6196,41.6223l-0.1602,0.2243c-0.032,0.0641,0,0.0961,0.032,0.1282l-0.032,0.032l-0.2563-0.1922v-0.032
				c0.0641,0.032,0.0961,0.032,0.1282-0.032l0.3524-0.4806c0.032-0.0641,0-0.0961-0.032-0.1282l0.032-0.032l0.2563,0.1922v0.032
				c-0.0641-0.032-0.0961-0.032-0.1282,0.032l-0.1602,0.2243l0.1922,0.1282l0.1602-0.2243c0.032-0.0641,0-0.0961-0.032-0.1282
				l0.032-0.032l0.2563,0.1922v0.032c-0.032-0.032-0.0961-0.032-0.1282,0.032l-0.3204,0.5126c-0.0641,0.032-0.032,0.0641,0,0.0961
				v0.032l-0.2883-0.1922h0.032c0.032,0,0.0641,0,0.0961-0.032l0.1602-0.2563L38.6196,41.6223L38.6196,41.6223z"/>
			<path class="st19" d="M39.2604,42.5194l0.032-0.032c0.032,0.032,0.0961,0.032,0.1282-0.032l0.2563-0.5447
				c0.032-0.0641,0-0.0961-0.032-0.1282l0.5447,0.2563l-0.1282,0.2563l-0.032-0.032c0.0961-0.1282,0-0.2563-0.032-0.2884
				c-0.032,0-0.0641-0.032-0.0961-0.032s-0.032,0-0.0641,0.0641c-0.032,0.032-0.1282,0.2243-0.1282,0.2243
				c0.032,0.032,0.0961,0.0961,0.2243-0.0641h0.032l-0.1922,0.3845l-0.032-0.032c0.0961-0.1922-0.032-0.2243-0.0641-0.2243
				l-0.1282,0.2563c-0.032,0.0641,0,0.0961,0.032,0.0961v0.032L39.2604,42.5194L39.2604,42.5194z"/>
			<path class="st19" d="M40.1895,42.9679c-0.0961-0.0641-0.0961-0.2563,0-0.4485c0.0641-0.1922,0.1922-0.3524,0.3204-0.2884
				c0.0961,0.032,0.0641,0.2243,0,0.4165C40.4138,42.8718,40.2856,43,40.1895,42.9679l-0.032,0
				c0.2243,0.0961,0.3845-0.032,0.4806-0.2563c0.0961-0.1922,0.0641-0.4165-0.1282-0.5126
				c-0.1922-0.0961-0.3845,0.032-0.4806,0.2563c-0.0961,0.2243-0.0641,0.4485,0.1282,0.5126L40.1895,42.9679L40.1895,42.9679z"/>
			<path class="st19" d="M41.1828,43.032l0.1282-0.3845c0.032-0.0641,0-0.0961-0.032-0.1282l0.1602,0.032v0.032
				c-0.032,0-0.0641,0-0.0961,0.0641l-0.1282,0.3845c-0.0641,0.1602-0.1602,0.2884-0.3524,0.2243
				c-0.1282-0.032-0.2243-0.1922-0.1602-0.3524l0.1602-0.4165c0.032-0.0641,0-0.0961-0.032-0.1282v-0.032l0.2884,0.1282v0.032
				c-0.032-0.032-0.0961-0.032-0.0961,0.032l-0.1602,0.4165c-0.032,0.1282-0.032,0.2563,0.0641,0.2884
				C41.0226,43.2563,41.1187,43.1922,41.1828,43.032L41.1828,43.032z"/>
			<path class="st19" d="M41.4711,42.6155c0-0.032,0-0.032-0.032-0.032l0.2243,0.032l0.1922,0.6087l0.0961-0.3845
				c0.032-0.0641,0-0.0961-0.032-0.1282l0.1922,0.032l-0.032,0.032c-0.032,0-0.0641,0-0.0961,0.0641l-0.1602,0.7049h-0.032
				l-0.2563-0.7689l-0.1602,0.5126c0,0.0961,0.032,0.0961,0.0641,0.1282v0.032l-0.1922-0.0641v-0.032
				c0.032,0.032,0.0961,0,0.0961-0.0641l0.1602-0.5767L41.4711,42.6155L41.4711,42.6155z"/>
			<path class="st19" d="M42.5605,43.2563c-0.0641,0.2884-0.1922,0.3524-0.2563,0.3524h-0.0641c0,0-0.032-0.032,0-0.0641
				l0.0961-0.6408c0.032-0.032,0.032-0.0641,0.0641-0.032h0.0641C42.5284,42.8718,42.5925,43,42.5605,43.2563l0.0961,0.032
				c0.0641-0.3204-0.0641-0.4485-0.2243-0.4806c-0.1282-0.032-0.3204-0.0641-0.3204-0.0641v0.032
				c0.032,0.032,0.0961,0.032,0.0641,0.1282l-0.0961,0.5767c-0.032,0.0641-0.0641,0.0961-0.0961,0.0961h-0.032l0.3204,0.0641
				c0.1602,0.032,0.3204,0,0.3845-0.3524L42.5605,43.2563L42.5605,43.2563z"/>
			<path class="st19" d="M42.8488,43c0-0.0641-0.0641-0.0961-0.0961-0.0961v-0.032l0.5767,0.0641l-0.032,0.2563
				c0-0.1602-0.0961-0.2243-0.1602-0.2243c-0.032-0.032-0.0641-0.032-0.0961-0.032c-0.032,0-0.032,0-0.032,0.0961
				c0,0.032-0.032,0.2563-0.032,0.2563c0.032,0,0.1282,0.032,0.1922-0.1602l-0.032,0.4165h-0.032
				c0-0.1922-0.0961-0.1922-0.1282-0.1922l-0.032,0.2884c0,0.0641,0,0.0641,0.032,0.0641l0.0641,0.032
				c0.0961,0,0.1922-0.032,0.2563-0.2243h0.032l-0.0641,0.2563l-0.6087-0.0641c0.0641,0,0.0961-0.032,0.1282-0.0961L42.8488,43
				L42.8488,43z"/>
			<path class="st19" d="M43.9061,43.3845c0,0.2884-0.0961,0.3845-0.1922,0.3845c-0.032-0.032-0.032-0.032-0.0641-0.032
				l-0.032-0.032l0.032-0.6728c0-0.032,0-0.032,0.032-0.032h0.0641C43.81,43,43.9061,43.0961,43.9061,43.3845h0.1282
				c0-0.3204-0.1602-0.4165-0.3204-0.4165c-0.1282-0.032-0.3204-0.032-0.3204-0.032v0.032c0.032,0,0.0961,0.032,0.0961,0.0961
				l-0.032,0.6087c0,0.0641-0.032,0.0961-0.0641,0.0961v0.032h0.2884c0.1602,0,0.3204-0.0641,0.3524-0.4165H43.9061L43.9061,43.3845
				z"/>
			<path class="st19" d="M44.8353,43.6408c0,0.0641,0.032,0.0641,0.0961,0.0641v0.032l-0.3524,0.032
				c0.032-0.032,0.0961-0.0641,0.0961-0.1282L44.611,43.032c-0.032-0.0641-0.0641-0.0641-0.1282-0.0641v-0.032l0.3524-0.032
				c-0.032,0.032-0.0961,0.0641-0.0641,0.1282L44.8353,43.6408L44.8353,43.6408z"/>
			<path class="st19" d="M45.1556,43.7048v-0.032c0.032,0,0.0641-0.032,0.0641-0.0961l-0.1282-0.6728h-0.032
				c-0.0641,0.032-0.1282,0.0961-0.0961,0.2243h-0.032l-0.032-0.2243l0.5767-0.0961l0.032,0.2243h-0.032
				c0-0.1282-0.0961-0.1602-0.1922-0.1602h-0.032l0.1282,0.6728c0,0.0641,0.032,0.0961,0.0961,0.0961v0.032L45.1556,43.7048
				L45.1556,43.7048z"/>
			<path class="st19" d="M46.5333,43.064l-0.1282-0.3845c0-0.0641-0.0641-0.0641-0.0961-0.0641v-0.032l0.1602-0.0641v0.032
				c-0.032,0.032-0.032,0.032-0.032,0.0961l0.1282,0.4165c0.032,0.1282,0.032,0.3204-0.1602,0.3845
				c-0.1282,0.032-0.2884-0.032-0.3204-0.2243l-0.1282-0.4165c-0.032-0.0641-0.0641-0.0641-0.0961-0.0641l-0.032-0.032
				l0.3204-0.0961v0.032c-0.032,0.032-0.0641,0.0641-0.032,0.1282l0.0961,0.4165c0.032,0.1282,0.1282,0.1922,0.2243,0.1922
				C46.5333,43.3524,46.5654,43.2242,46.5333,43.064L46.5333,43.064z"/>
			<path class="st19" d="M46.8858,42.8398c0.1602-0.0641,0.1282-0.1602,0.0961-0.2563c-0.032-0.0961-0.0961-0.1602-0.1602-0.1282
				c-0.032,0-0.0641,0.032-0.032,0.0641L46.8858,42.8398l0.032,0.032l0.0641,0.2563c0.032,0.0641,0.0961,0.0641,0.1282,0.032v0.032
				l-0.2884,0.1282l-0.032-0.032c0.0641-0.032,0.0641-0.0641,0.0641-0.1282l-0.2243-0.5447
				c-0.032-0.0961-0.0641-0.0641-0.1282-0.0641v-0.032l0.3204-0.1282c0.1282-0.032,0.2563,0,0.3204,0.1282
				c0.032,0.1602-0.032,0.2563-0.1602,0.3204c-0.032,0-0.0641,0.032-0.0641,0.032L46.8858,42.8398L46.8858,42.8398z"/>
			<path class="st19" d="M47.6868,42.9359c-0.0961,0.032-0.2243-0.0961-0.3204-0.3204c-0.0961-0.1922-0.0961-0.3845,0-0.4165
				c0.0961-0.032,0.2243,0.0961,0.3204,0.2884C47.7829,42.6795,47.7829,42.8718,47.6868,42.9359
				c0.1922-0.0641,0.2563-0.2884,0.1602-0.5126c-0.0961-0.1922-0.2884-0.3204-0.4806-0.2563
				c-0.1922,0.0961-0.2563,0.3204-0.1602,0.5126C47.3023,42.9038,47.4945,43.032,47.6868,42.9359L47.6868,42.9359z"/>
			<path class="st19" d="M47.7188,42.0388h-0.032h-0.032l0.1922-0.1282l0.5767,0.3204l-0.1922-0.3524
				c-0.032-0.0641-0.0961-0.0641-0.1282-0.0641v-0.032l0.1602-0.0641c-0.032,0.032-0.0641,0.0641,0,0.1282l0.3204,0.6408
				l-0.032,0.032l-0.7049-0.3845l0.2563,0.4806c0.032,0.0641,0.0961,0.0641,0.1282,0.032v0.032l-0.1602,0.0961v-0.032
				c0.032-0.032,0.032-0.0641,0-0.1282l-0.2563-0.5126L47.7188,42.0388L47.7188,42.0388z"/>
			<path class="st19" d="M49.1605,42.1349v-0.032c0-0.032,0.032-0.0641,0-0.1282l-0.3845-0.5447h-0.032
				c-0.0641,0.032-0.0961,0.1602,0,0.2563l-0.032,0.032l-0.1282-0.2243l0.4806-0.3204l0.1282,0.1922
				c-0.0961-0.0961-0.1922-0.0961-0.2563-0.0641l-0.032,0.032l0.3845,0.5447c0.032,0.0641,0.0961,0.0641,0.1282,0.032v0.032
				L49.1605,42.1349z"/>
			<path class="st19" d="M49.513,41.366l0.1922,0.2243c0.032,0.032,0.0961,0.032,0.1282,0v0.032l-0.2563,0.2243v-0.032
				c0.032-0.032,0.032-0.0641,0-0.1282l-0.3845-0.4806c-0.032-0.0641-0.0641-0.032-0.1282-0.032l0.2563-0.2243v0.032
				c0,0.032-0.032,0.0641,0,0.1282l0.1602,0.1922l0.1922-0.1282l-0.1602-0.2243c-0.032-0.0641-0.0961-0.032-0.1282-0.032
				l0.2563-0.2243v0.032c-0.032,0.032-0.032,0.0641,0,0.1282l0.3845,0.4806c0.032,0.032,0.0641,0.032,0.0961,0l0.032,0.032
				l-0.2563,0.2243l-0.032-0.032c0.032-0.032,0.0641-0.0641,0.032-0.1282l-0.1922-0.2243L49.513,41.366L49.513,41.366z"/>
			<path class="st19" d="M49.8013,40.6931c-0.032-0.032-0.0961-0.032-0.1282,0v-0.032l0.4165-0.3845l0.1922,0.1922h-0.032
				c-0.0961-0.1282-0.2243-0.0641-0.2884-0.032c0,0.032-0.032,0.032-0.0641,0.0641c0,0,0,0.032,0.032,0.0961
				c0.032,0.032,0.1922,0.1922,0.1922,0.1922c0.032-0.032,0.1282-0.0961,0-0.2563h0.032l0.2563,0.2884v0.032
				c-0.1602-0.1602-0.2243-0.0641-0.2563-0.032l0.1922,0.1922c0.032,0.0641,0.0641,0.0641,0.0641,0.0641
				c0.032-0.032,0.0641-0.0641,0.0961-0.0961c0.032-0.032,0.0641-0.1282,0-0.3204h0.032l0.1282,0.2243l-0.4165,0.4165l-0.032-0.032
				c0.032-0.032,0.0641-0.0641,0-0.1282L49.8013,40.6931L49.8013,40.6931z"/>
			<path class="st19" d="M50.5699,39.796c-0.032,0.032-0.032,0.0961,0.032,0.1282c0.0641,0.0641,0.1282,0.0641,0.2563,0
				c0.0641-0.032,0.1922-0.0641,0.2884,0.032c0.1602,0.1602,0.0961,0.2884,0.0641,0.3524c-0.032,0.032-0.0961,0.0641-0.1282,0.0961
				c-0.032,0-0.032,0-0.032,0.032v0.032l-0.2243-0.1922h0.032c0.1282,0.0641,0.2563,0.0961,0.3204,0
				c0.0641-0.0641,0-0.1282-0.032-0.1602c-0.0641-0.0641-0.1282-0.0641-0.2243,0c-0.0961,0.032-0.2243,0.032-0.3204-0.032
				c-0.1282-0.1282-0.1282-0.2243-0.0641-0.3204c0.032-0.032,0.0961-0.0641,0.1282-0.0961c0.032,0,0.032,0,0-0.0641l0.2243,0.1602
				h-0.032C50.6981,39.6999,50.602,39.7319,50.5699,39.796L50.5699,39.796z"/>
			<path class="st19" d="M50.8588,39.5397c-0.0641-0.032-0.0961,0-0.1282,0.032h-0.032l0.3524-0.5126l0.2243,0.1602l-0.032,0.032
				c-0.1282-0.0961-0.2563-0.032-0.2884,0c0,0.032-0.032,0.0641-0.032,0.0961c-0.032,0-0.032,0.032,0.032,0.0641
				c0.032,0.032,0.2243,0.1602,0.2243,0.1602c0.032-0.032,0.0961-0.0961-0.032-0.2243v-0.032l0.3204,0.2563
				c-0.1922-0.0961-0.2243,0-0.2563,0.032l0.2243,0.1602c0.0641,0.032,0.0961,0.032,0.0961,0.032
				c0-0.032,0.032-0.0641,0.0641-0.0961c0.032-0.0641,0.0641-0.1602-0.0641-0.2884l0.032-0.032l0.1602,0.1922l-0.3204,0.4806h-0.032
				c0.032-0.0641,0.032-0.0961-0.032-0.1602L50.8588,39.5397L50.8588,39.5397z"/>
			<path class="st19" d="M51.7239,38.963l-0.0961,0.1602c-0.1282-0.1282-0.1922-0.2243-0.1922-0.2243L51.7239,38.963h0.0641
				c0.032,0,0.0961,0.032,0.1282,0.032c0.0961,0.032,0.0641,0.0641,0.032,0.1282h0.032l0.1602-0.2883
				c-0.0641,0.0641-0.0961,0.032-0.1602,0.032c-0.6728-0.1282-0.7369-0.1602-0.7369-0.1602v0.032l0.5126,0.5767
				c0.032,0.032,0.032,0.0961,0.032,0.1282h0.032l0.0961-0.1602l-0.032-0.032c-0.032,0.0641-0.0641,0.0961-0.1282,0
				c-0.032-0.032-0.0641-0.0641-0.0641-0.0641l0.0961-0.2243H51.7239z"/>
			<path class="st19" d="M51.5313,38.2582c-0.032,0.032-0.032,0.0961,0.0641,0.1282c0.0961,0.032,0.1282,0,0.2243-0.0641
				c0.0961-0.0641,0.1922-0.1282,0.3204-0.0641c0.1922,0.0961,0.1602,0.2563,0.1282,0.3204
				c-0.032,0.032-0.0641,0.0961-0.0961,0.1282v0.032v0.032l-0.2563-0.1282c0.1602,0.032,0.2883,0,0.3204-0.0961
				c0.032-0.0641-0.032-0.1282-0.0641-0.1602c-0.0641-0.032-0.1282,0-0.2243,0.0641c-0.0961,0.0961-0.1922,0.1282-0.3204,0.0641
				c-0.1282-0.0641-0.1922-0.1602-0.1282-0.2563c0-0.0641,0.0641-0.0961,0.0961-0.1282c0-0.032,0-0.032-0.032-0.0641v-0.032
				l0.2563,0.1282h-0.032C51.6274,38.13,51.5313,38.1941,51.5313,38.2582L51.5313,38.2582z"/>
		</g>
	</g>
	<g id="crest_1_">
		<g id="rope_2_">
			<path class="st20" d="M41.407,26.9163c-0.4165,0.0961-0.7049,0.1282-1.0893-0.2243c-0.2563-0.2563-0.1922-0.7049,0.0641-0.8651
				c0.2883-0.1922,0.5447-0.3204,0.8971-0.2243c0.3524,0.0961,1.2816,0.9612,1.0573,0.9932
				C42.1119,26.5959,41.7595,26.8202,41.407,26.9163L41.407,26.9163z"/>
			<path class="st20" d="M42.4003,25.3784c0.1282-0.0961,0.2884-0.1602,0.7049-0.1922c0.3845-0.032,0.6728-0.032,0.7689,0.2563
				c0.1282,0.3524,0.2243,0.7689,0.4806,0.9612c-0.1602,0.0961-0.9612,0.1922-1.2495,0.032
				C42.7207,26.2434,42.6245,25.5065,42.4003,25.3784L42.4003,25.3784z"/>
			<path class="st20" d="M45.1556,25.4105c0.1282-0.0961,0.2884-0.0961,0.7049-0.0641c0.4165,0.032,0.5767,0.0641,0.6728,0.3524
				c0.0961,0.3204,0,0.7369,0.1922,1.0253c-0.1922,0.0641-0.833,0.0641-1.0573-0.1602
				C45.3158,26.3076,45.3479,25.5707,45.1556,25.4105L45.1556,25.4105z"/>
			<path class="st21" d="M47.078,25.6027c-0.2884-0.0641-0.4806-0.0961-0.6087,0c0.1602,0.1922,0.032,0.9612,0.3524,1.2175
				c0.2243,0.1602,0.801,0.1922,0.9291-0.1602C47.911,26.3396,47.911,25.859,47.078,25.6027L47.078,25.6027z"/>
			<path class="st21" d="M43.778,25.2823c0.0961-0.0961,0.2884-0.1282,0.6728-0.1282c0.4165,0,0.6728,0.0641,0.801,0.3204
				c0.1282,0.3204,0.0961,0.7369,0.3204,0.9932c-0.0961,0.1282-0.9612,0.1282-1.2175-0.0641
				C44.0022,26.1794,43.9702,25.4425,43.778,25.2823L43.778,25.2823z"/>
			<path class="st21" d="M41.0546,25.5706c0-0.1602,0.2243-0.1922,0.801-0.2243c0.5767-0.0641,0.6087-0.032,0.801,0.3845
				c0.0961,0.2243,0.2243,0.6087,0.4806,0.7369c-0.7049,0.1602-0.9291,0.2563-1.3136,0.032
				c-0.2884-0.1602-0.6087-0.5447-0.6728-0.7049C41.1187,25.6988,41.1187,25.6027,41.0546,25.5706L41.0546,25.5706z"/>
		</g>
		<g>
			<g id="pineapple1_2_">
				<path class="st22" d="M42.5925,22.3026c-0.6728-0.5126-1.4738-0.9932-2.2107-1.0893c0.4806,0.2884,1.8262,1.3456,2.1787,1.6981"
					/>
				<path class="st22" d="M42.977,21.822c-0.801-0.5447-1.7301-1.1534-2.6272-1.2175c0.6728,0.3524,1.666,1.1855,2.2107,1.8583"/>
				<path class="st22" d="M44.0022,20.925c0.4486-0.9932,0.9291-1.5379,1.5699-2.1466c-0.3204,0.6728-0.6728,2.0505-0.833,2.5952"/>
				<path class="st22" d="M44.7071,20.7648c0.3204-0.7049,0.801-1.3136,1.634-1.6981c-0.4165,0.4165-1.0573,1.666-1.2175,2.3389"/>
				<path class="st22" d="M44.9954,21.4055c0.3845-0.5447,1.1534-1.5699,2.5311-2.1146c-0.801,0.801-1.9864,2.2748-2.2748,2.8515"/>
				<path class="st22" d="M45.444,22.1104c0.5767-0.3204,1.7301-0.833,2.5631-0.6728c-0.5126,0.1922-2.0505,0.8971-2.7233,1.5379"/>
				<path class="st22" d="M45.3158,21.8861c0.5447-0.5767,1.5379-1.4418,2.5952-1.7942c-0.7689,0.7369-2.4029,2.4029-2.6272,2.6593"
					/>
				<path class="st22" d="M43.778,21.5337c-0.3845-1.1855-0.9612-2.3068-1.8262-2.6593c0.4806,0.7049,1.0893,1.7301,1.4097,3.268"/>
				<path class="st22" d="M43.041,21.5017c-0.6408-0.7689-1.5058-1.5379-2.4991-1.6981c0.6728,0.3845,1.7942,1.5058,2.2107,2.5952"
					/>
				<path class="st22" d="M43.3935,21.4696c-0.801-1.4418-1.4097-1.6981-1.7622-1.9864c0.2884,0.5447,0.9932,1.9864,1.4097,2.5952"
					/>
				<path class="st23" d="M41.7915,21.3735c0.3845,0.2243,0.9612,0.7689,1.1534,1.1214"/>
				<path class="st22" d="M41.7915,22.0463c0.1922,0.1602,0.5447,0.3524,0.8651,0.6408"/>
				<path class="st22" d="M45.6042,22.5269c0.3204-0.2563,1.0253-0.6728,1.3777-0.801"/>
				<path class="st22" d="M45.3799,22.3026c0.3204-0.4165,0.9612-0.9932,1.1854-1.1855"/>
				<path class="st22" d="M46.277,20.3162c-0.2884,0.3204-0.9612,1.1214-1.2175,1.5058"/>
				<path class="st22" d="M45.444,20.0278c-0.2243,0.2884-0.6728,1.1214-0.801,1.4097"/>
				<path class="st22" d="M42.9129,20.092c0.1922,0.5126,0.5447,1.3777,0.6728,1.7301"/>
				<path class="st22" d="M42.6245,20.6366c0.1282,0.1922,0.3845,0.6408,0.4806,0.9612"/>
			</g>
			<g id="pineapple2_2_">
				<path class="st22" d="M43.7138,20.4764c0-0.2884,0.1922-0.6087,0.3845-0.6087c0.2243,0,0.3845,0.3845,0.3845,0.6087
					c0,0.2563-0.1922,0.4806-0.3845,0.4806C43.9061,20.957,43.7138,20.7647,43.7138,20.4764z"/>
				<path class="st22" d="M43.2973,20.7327c0.032-0.3204,0.2563-0.5767,0.4485-0.5447c0.1922,0.032,0.2884,0.4165,0.2563,0.6408
					c-0.032,0.2563-0.2563,0.4485-0.4165,0.4165C43.4255,21.2453,43.2653,21.021,43.2973,20.7327z"/>
				<path class="st22" d="M44.1624,20.8288c-0.0641-0.2884,0.0641-0.6087,0.2563-0.6408c0.1922-0.032,0.3845,0.2884,0.4165,0.5447
					c0.0641,0.2563-0.0961,0.5126-0.2563,0.5126C44.4188,21.2774,44.1945,21.1172,44.1624,20.8288z"/>
				<path class="st22" d="M43.6818,21.0851c0-0.3204,0.1922-0.6087,0.3845-0.6087c0.2243,0,0.3845,0.3524,0.3845,0.6087
					s-0.1922,0.4806-0.3845,0.4806C43.8741,21.5657,43.6818,21.3735,43.6818,21.0851z"/>
				<path class="st22" d="M43.1051,21.2453c0-0.2884,0.2243-0.6087,0.4165-0.6087c0.1922,0,0.3845,0.3845,0.3845,0.6087
					c0,0.2563-0.2243,0.4806-0.3845,0.4806C43.3294,21.7259,43.1051,21.5337,43.1051,21.2453L43.1051,21.2453z"/>
				<path class="st22" d="M44.2906,21.1172c0-0.2884,0.1922-0.6087,0.3845-0.6087c0.2243,0,0.3845,0.3845,0.3845,0.6087
					c0,0.2563-0.1922,0.4806-0.3845,0.4806C44.4828,21.5978,44.2906,21.4055,44.2906,21.1172z"/>
				<path class="st22" d="M44.1624,21.3735c0-0.3204,0.2243-0.6087,0.4165-0.6087c0.1922,0,0.3845,0.3524,0.3845,0.6087
					c0,0.2563-0.1922,0.4806-0.3845,0.4806C44.3867,21.8541,44.1624,21.6618,44.1624,21.3735L44.1624,21.3735z"/>
				<path class="st22" d="M43.6498,21.6618c0-0.3204,0.1922-0.6087,0.3845-0.6087c0.2243,0,0.3845,0.3845,0.3845,0.6087
					c0,0.2563-0.1922,0.4806-0.3845,0.4806C43.842,22.1424,43.6498,21.9502,43.6498,21.6618z"/>
				<path class="st22" d="M42.8488,21.6618c0-0.3204,0.1602-0.6087,0.3204-0.6087c0.1602,0,0.2884,0.3845,0.2884,0.6087
					c0,0.2563-0.1602,0.4806-0.2884,0.4806C43.009,22.1424,42.8488,21.9502,42.8488,21.6618z"/>
				<path class="st22" d="M44.643,21.5978c0-0.2884,0.1602-0.5767,0.3204-0.5767c0.1602,0,0.3204,0.3524,0.3204,0.5767
					c0,0.2884-0.1922,0.4806-0.3204,0.4806C44.8032,22.0784,44.643,21.8861,44.643,21.5978L44.643,21.5978z"/>
				<path class="st22" d="M44.8353,22.1425c0.0641-0.3204,0.2563-0.5767,0.3845-0.5447c0.1282,0.032,0.1602,0.4165,0.0961,0.6408
					c-0.032,0.2884-0.2243,0.4485-0.3524,0.4165C44.8353,22.623,44.7712,22.3988,44.8353,22.1425z"/>
				<path class="st22" d="M44.2265,22.0463c0.032-0.2884,0.2243-0.5767,0.3845-0.5447c0.1922,0,0.2884,0.3845,0.2563,0.6087
					c-0.032,0.2884-0.1922,0.4806-0.3524,0.4485C44.3546,22.5589,44.1944,22.3347,44.2265,22.0463z"/>
				<path class="st22" d="M43.3294,22.1425c-0.0961-0.3204-0.2883-0.5447-0.4165-0.5126c-0.1282,0.032-0.1602,0.4165-0.0961,0.6408
					c0.0641,0.2563,0.2563,0.4165,0.3845,0.3845C43.2974,22.623,43.3935,22.3988,43.3294,22.1425L43.3294,22.1425z"/>
				<path class="st22" d="M43.1051,22.0783c0-0.2884,0.1602-0.5767,0.3204-0.5767c0.1922,0,0.3204,0.3524,0.3204,0.5767
					c0,0.2884-0.1602,0.4806-0.3204,0.4806C43.2974,22.5589,43.1051,22.3667,43.1051,22.0783L43.1051,22.0783z"/>
				<path class="st22" d="M43.5857,22.2065c0-0.3204,0.1922-0.6087,0.3845-0.6087c0.2243,0,0.3845,0.3524,0.3845,0.6087
					c0,0.2563-0.1922,0.4806-0.3845,0.4806C43.7779,22.6871,43.5857,22.4949,43.5857,22.2065z"/>
				<path class="st22" d="M43.7459,18.6822c-0.0641,0.2563-0.2884,0.4806-0.1282,0.833c-0.2884-0.0961-0.5447-0.1282-0.7689,0.1282
					c0.2884-0.032,0.5447,0.0641,0.6728,0.2563c-0.2563-0.032-0.3845,0.0961-0.4485,0.2563
					c0.2243-0.0641,0.4485-0.1282,0.5447-0.0961c-0.0961,0.0961-0.2563,0.2563-0.2884,0.3845
					c0.1922-0.1602,0.4165-0.1282,0.5447-0.2243c-0.0961,0.2243,0.0961,0.4485,0.2563,0.6728
					c-0.032-0.3204,0.1602-0.5447,0.0641-0.7049c0.2884,0.0641,0.3204,0.3204,0.7369,0.3204
					c-0.1602-0.0961-0.2563-0.4165-0.4485-0.4165c0.0961-0.032,0.4806-0.0641,0.5447,0c-0.0641-0.1282-0.2883-0.2563-0.4165-0.2563
					c0.1282-0.1282,0.3524-0.3845,0.5126-0.4485c-0.2243,0.032-0.5767,0.0641-0.7049,0.2563
					c0.3204-0.2563,0.2563-0.7369,0.6087-0.801c-0.1922-0.032-0.4806,0.0961-0.7049,0.3204
					c0.0961-0.1922,0.0961-0.4485,0.2243-0.5126c-0.2563,0.0641-0.5447,0.3845-0.6408,0.5447
					C43.9061,19.0346,43.81,18.7783,43.7459,18.6822L43.7459,18.6822z"/>
				<path class="st22" d="M43.9061,19.1948c0,0.0961,0,0.2884-0.032,0.3524"/>
				<path class="st22" d="M44.3226,19.1628c-0.0641,0.0641-0.1922,0.2884-0.1922,0.4806"/>
				<path class="st23" d="M44.5148,19.5473c-0.0961,0.0641-0.1922,0.1602-0.2243,0.2884"/>
			</g>
		</g>
		<g id="turtle_2_">
			<path class="st24" d="M41.1187,22.7191c-0.2243,0-0.4165-0.0961-0.5447-0.2563c-0.2243-0.2884-0.833-0.4165-1.0893-0.1602
				c-0.0961,0.0641-0.2243,0.0641-0.3204,0.0961c-0.1602,0-0.3524,0.1602-0.2884,0.4806c0.1282-0.0961,0.1602,0,0.2563,0
				c0.0641-0.032,0.032,0.032,0.032,0.0961c0,0.1602,0.3524,0.4806,0.6728,0.4485c0.3524,0,0.5126,0.1282,0.5767,0.1922
				c0.0961,0.0961,0.032,0.0641,0.0961,0.2243c0.0961,0.0961,0.1282,0.1282-0.032,0.2563c-0.2243,0.1922-0.3845,0.6408,0,0.9932
				c0.4165,0.3204,1.4738,0.801,2.6593-0.1282c1.1534-0.8971,2.9476-0.3845,3.0758-0.0641
				c0.1602,0.3204,0.2243,0.5126,0.2563,0.6728c0.032,0.1282,0.1922,0.2563,0.4165,0.2243c0.2243,0,0.4806,0.0961,0.6087,0.1922
				c0.1602,0.0961,0.3845,0.0641,0.3204-0.2243c-0.1282-0.8971-0.6728-1.0253-0.7369-1.4418
				c0.3204,0.032,0.5447,0.032,0.6728-0.0961c0.0961-0.1282,0.2243-0.3524,0.3524-0.4165c0.0961-0.0641,0.0961-0.1282-0.032-0.0961
				c-0.1602,0.032-0.2563,0.0961-0.5447,0.0641C46.0527,23.6162,41.9196,22.4949,41.1187,22.7191L41.1187,22.7191z"/>
			<path class="st25" d="M47.6547,23.8085c-0.1602,0.0961-0.3204,0.2563-0.6087,0.6408c-0.3204,0.4165-1.2816,0.833-2.467,0.833
				c-1.1534,0-1.8583-0.1922-2.3709-0.6087c-0.2884-0.2243-0.5126-0.3524-0.7049-0.4486c-0.3524-0.1602-0.4165-0.5126-0.3204-0.801
				c-0.0961,0.1602-0.1602,0.3204-0.3524,0.2884c-0.1282,0-0.3845,0-0.3204,0.1282c-0.032-0.0641-0.032-0.1602-0.0641-0.1922
				c-0.032-0.032-0.0641-0.0641-0.0641-0.0641c0.0961,0.0641,0.3204-0.1282,0.4806-0.1282c0.1282,0.032,0.2884-0.1282,0.2563-0.3204
				c-0.032-0.1602-0.0641-0.2884-0.0961-0.4165c0.2563-0.1282,3.6204,0.4806,4.2932,0.5447
				C45.9886,23.2959,47.911,23.5842,47.6547,23.8085L47.6547,23.8085z"/>
			<path class="st24" d="M41.5673,22.591c0.3204-0.3204,0.7049-0.4806,1.0893-0.3845h0.0961
				c0.1922-0.1602,0.6408-0.1922,0.8971-0.0641h0.1282c0.3845-0.1282,1.1214,0,1.3777,0.2563l0.0961,0.0641
				c0.8651-0.0641,1.3777,0.3204,1.9864,0.9291c0.0641,0.0641,0.1602,0.1922,0.3204,0.2243
				c0.1922,0.032,0.2243,0.1282,0.0641,0.2243c-0.1922,0.0961-0.3524,0.2563-0.6728,0.6087
				c-0.2884,0.3845-1.2175,0.7689-2.3709,0.7689c-1.1214,0-1.7942-0.1922-2.3068-0.5767c-0.2884-0.2243-0.5126-0.3524-0.6728-0.4485
				c-0.1922-0.0641-0.4485-0.3204-0.3524-0.5767c0.0641-0.2563-0.0961-0.5767-0.2243-0.8971
				c0.0961-0.0641,0.3524-0.1602,0.4806-0.0961L41.5673,22.591L41.5673,22.591z"/>
			<g>
				<path class="st26" d="M47.2382,23.392c-0.6087-0.6087-1.1214-0.9932-1.9864-0.9291c0,0.032,0,0.1282-0.032,0.1922
					c0.5126,0.1922,1.2495,0.7689,1.5699,1.1855C46.9178,23.7124,47.142,23.5522,47.2382,23.392L47.2382,23.392z"/>
				<path class="st26" d="M45.1556,22.3988c-0.2563-0.2563-0.9932-0.3845-1.3777-0.2563c0,0.1282,0,0.3204-0.0641,0.4485
					c0.2243,0.0961,0.4165,0.3204,0.6087,0.5447c0.1282-0.032,0.4485-0.1282,0.6087-0.1602
					C44.9954,22.8473,45.1236,22.559,45.1556,22.3988z"/>
				<path class="st26" d="M43.6498,22.1425c-0.2563-0.1282-0.7049-0.0961-0.8971,0.0641c-0.0641,0.1282-0.0961,0.3845-0.0961,0.5126
					c0.1282,0,0.3204,0.0961,0.3845,0.1602c0.1922-0.0641,0.4486-0.1922,0.5447-0.2884
					C43.6178,22.4628,43.6818,22.2706,43.6498,22.1425L43.6498,22.1425z"/>
				<path class="st26" d="M41.5673,22.591c0.3204-0.3204,0.7049-0.4806,1.0893-0.3845c-0.0641,0.0961-0.0961,0.2884-0.0961,0.4806
					c-0.3524-0.032-0.801,0.0641-0.9932,0.1922V22.591z"/>
				<path class="st26" d="M46.6615,23.9046c-0.2884-0.4165-0.9932-0.8971-1.4738-1.1214c0,0.032-0.0641,0.1602-0.0961,0.2563
					c0.1922,0.2884,0.5767,0.9291,0.7369,1.2816C45.9887,24.2571,46.4372,24.0648,46.6615,23.9046L46.6615,23.9046z"/>
				<path class="st26" d="M44.2265,24.6095c0.0641-0.4486,0.0961-1.0893,0.0961-1.3136c0.1602-0.032,0.4806-0.1282,0.6087-0.1602
					c0.1602,0.2563,0.5447,0.9291,0.7049,1.2495C45.2517,24.4813,44.611,24.6415,44.2265,24.6095L44.2265,24.6095z"/>
				<path class="st26" d="M43.1051,23.0715c0.1602-0.0641,0.3845-0.1922,0.5447-0.3204c0.1282,0.0961,0.3845,0.3204,0.4806,0.4485
					c0,0.2884-0.0961,1.1214-0.1282,1.4097c-0.2563,0-0.6728-0.0641-0.8971-0.1922C43.1372,23.9366,43.1692,23.3919,43.1051,23.0715
					L43.1051,23.0715z"/>
				<path class="st26" d="M41.5032,23.456c0.032-0.0641,0.0641-0.2884,0.0641-0.3845c0.2563-0.1602,0.8971-0.3204,1.3777-0.0641
					c0.032,0.3204,0,1.1214-0.032,1.3136C42.4964,24.0007,41.8235,23.5521,41.5032,23.456L41.5032,23.456z"/>
			</g>
			<g>
				<path d="M39.9012,22.8793c-0.0641,0-0.0961-0.1922-0.2243-0.1922c-0.032,0-0.1282,0.032-0.1602,0
					c0,0.0641,0.032,0.1282,0.0641,0.1602C39.6128,22.9434,39.773,22.8793,39.9012,22.8793L39.9012,22.8793z"/>
				<path class="st27" d="M39.9012,23.424c0.3845,0,0.4486-0.4806,0.6408-0.5126"/>
				<path class="st27" d="M40.1255,23.456c0.2884,0.1282,0.5126-0.5447,0.7369-0.5126"/>
				<path class="st27" d="M39.5488,22.623c0.0961,0,0.1602-0.1282,0.3204,0.032c0.0641,0.0641,0.1602,0.0961,0.2243,0.0961"/>
				<path class="st27" d="M40.0293,23.1036c-0.1282,0.1922-0.3524,0.3204-0.4806,0.2563"/>
				<path class="st27" d="M39.4847,22.3026c-0.0961,0.0641-0.1602,0.1922-0.2243,0.2884"/>
				<path class="st27" d="M39.1643,22.7832v0.1602"/>
			</g>
		</g>
	</g>
	<g>
		<path id="shield_2_" class="st28" d="M49.8654,26.9483v6.2476c0,5.4146-2.5631,7.2729-5.9913,8.7467
			c-3.4282-1.4738-6.0234-3.3321-6.0234-8.7467v-6.2476H49.8654L49.8654,26.9483z"/>
		<path class="st29" d="M43.8741,32.2348c0.2884,0,0.7369-0.2563,1.1214-0.6408c0.4165-0.4485,1.1214-0.6087,1.8583,0
			c0.7369,0.6087,1.1855,0.3524,1.5699,0c0.3845-0.3524,0.7049-0.4806,1.4418-0.4806v-4.1651H37.8507v4.1651
			c0.7369,0,1.0573,0.1282,1.4418,0.4806c0.3845,0.3524,0.833,0.6087,1.5699,0c0.7689-0.6087,1.4418-0.4485,1.8903,0
			C43.1052,31.9785,43.5537,32.2348,43.8741,32.2348L43.8741,32.2348z"/>
		<g>
			<path class="st30" d="M43.8741,35.4387c0.3845,0,1.1534-0.4165,1.3456-0.5126c0.7049-0.4165,1.2175-0.032,1.634,0.1602
				c0.4485,0.1922,1.2816,0.4165,1.7942,0c0.5126-0.4165,0.801-0.3845,1.1534-0.3845c0.0641-0.4806,0.0641-0.9612,0.0641-1.5058
				v-0.3845c-0.4485-0.0961-0.6728,0.032-1.1534,0.4486c-0.4806,0.4165-1.0253,0.3204-1.7301,0.0641
				c-0.6728-0.2884-1.3456-0.801-2.0185,0c-0.1922,0.2243-0.6408,0.5447-1.0893,0.5447c-0.4806,0-0.8971-0.3204-1.0893-0.5447
				c-0.7049-0.801-1.3456-0.2884-2.0185,0c-0.7049,0.2563-1.2816,0.3524-1.7622-0.0641c-0.4486-0.4165-0.6728-0.5447-1.1534-0.4486
				v0.3845c0,0.5447,0.032,1.0253,0.0961,1.5058c0.3524,0,0.6087-0.032,1.1214,0.3845s1.3777,0.1922,1.7942,0
				c0.4486-0.1922,0.9612-0.5767,1.666-0.1602C42.7207,35.0222,43.4576,35.4387,43.8741,35.4387L43.8741,35.4387z"/>
			<path class="st30" d="M43.8741,36.8164c0.4806,0,1.0573-0.1922,1.5699-0.4806c0.6408-0.3524,1.0893-0.1922,1.7301,0.1282
				c0.6728,0.3204,1.2175,0.2243,1.602,0c0.1922-0.1282,0.3524-0.3845,0.7689-0.2884c-0.1922,0.801-0.4806,1.5058-0.833,2.0826
				c-0.6408,0.1602-0.9932,0.1602-1.666-0.1282c-0.6728-0.3204-1.5058-0.5126-1.9544-0.2243
				c-0.4165,0.2563-0.8651,0.3845-1.2175,0.3845s-0.801-0.1282-1.2175-0.3845c-0.4485-0.2884-1.2816-0.0961-1.9544,0.2243
				c-0.6728,0.2884-1.0253,0.2884-1.666,0.1282c-0.3524-0.5767-0.6408-1.2816-0.833-2.0826
				c0.4165-0.0961,0.5767,0.1602,0.7689,0.2884c0.3524,0.2243,0.9291,0.3204,1.5699,0c0.6728-0.3204,1.1214-0.4806,1.7622-0.1282
				C42.8168,36.6241,43.3935,36.8164,43.8741,36.8164L43.8741,36.8164z"/>
			<path class="st30" d="M43.8741,41.9427c1.2816-0.5447,2.467-1.1534,3.4282-1.9864c-0.2563-0.0961-0.4165-0.032-0.6408-0.1922
				c-0.2243-0.1602-0.8971-0.2243-1.4738,0.0961c-0.6087,0.2884-0.8651,0.3524-1.3136,0.3524c-0.4485,0-0.7049-0.0641-1.3136-0.3524
				c-0.5767-0.3204-1.2495-0.2563-1.4738-0.0961c-0.2243,0.1602-0.3845,0.0961-0.6408,0.1922
				C41.4071,40.7892,42.5605,41.398,43.8741,41.9427L43.8741,41.9427z"/>
		</g>
		<g id="lion_1_">
			<path class="st31" d="M43.041,28.5183c0.032,0.0641-0.032,0.2243,0,0.2884c0.0641,0.1282,0.0641,0.1922,0.1602,0.2563h0.2243
				c0.7049,0,1.5379-0.2884,2.2427-0.2884c0.6728,0,1.0893,0.2243,1.4738,0.2243c0.2243,0,0.4165-0.1602,0.4165-0.3204
				s-0.2563-0.2563-0.801-0.2563c-0.7689,0-1.1855,0.1922-1.8262,0.1922c-0.9612,0-1.1214-0.3524-1.1214-0.5126
				s0.1602-0.3845,0.6728-0.3845c0.1602,0,0.2884-0.032,0.3524-0.0961c0.032-0.0641,0.1282-0.1922,0.3204-0.2884
				c0.2243-0.1282,0.6728,0,0.8971-0.1602c0,0.1282-0.1922,0.3204-0.3524,0.3845c0.3204-0.0961,0.6728-0.0961,0.7369,0.1602
				c-0.1602-0.0961-0.4165-0.032-0.5126,0c-0.1282,0.032-0.1922,0.0641-0.3204,0.0961c0.1282-0.032,0.1922,0.2243,0.3845,0.2243
				c-0.1922,0.1602-0.5126,0.1602-0.833,0.032c-0.0961-0.032-0.3524-0.1282-0.5126-0.1282c-0.3204,0-0.5126,0.0641-0.5126,0.1922
				c0,0.1602,0.1922,0.2563,0.7689,0.2563c0.5767,0,0.8971-0.1602,1.7622-0.1602c-0.0641-0.0961,0.032-0.1922-0.0961-0.2884
				c0.3204,0,0.6728,0.0961,0.801,0.3204c-0.032-0.2243,0.1602-0.4165,0.0961-0.6087c0.1922,0.032,0.3524,0.2243,0.3845,0.3845
				c0-0.0961,0.1282-0.0961,0.1282-0.1922c0.1922,0.0961,0.2883,0.3204,0.2563,0.5126c0.0961-0.1602,0.1922-0.0961,0.2563-0.2884
				c0.0641,0.1282,0.032,0.5126-0.1922,0.6408c0.1922-0.1282,0.4806-0.1282,0.6728,0.0961
				c-0.1922-0.032-0.2883,0.0641-0.3845,0.0961c-0.3845,0.2243-1.0253,0.3524-1.5058,0.3204
				c-0.5126-0.032-0.5767-0.1282-0.8971-0.1282c0.1922,0.032,0.5767,0.4165,0.9291,0.4165c0.2243,0,0.3845,0,0.4806-0.032
				c0.0961-0.032,0.2563,0,0.3845,0.0641c0.0961,0.0961,0.2884,0.1922,0.4165,0.1602c-0.032,0.1282-0.0961,0.1922-0.1922,0.2243
				c0.1602,0.0961,0.0641,0.1602,0.2243,0.2884c-0.0641,0-0.1282,0.0641-0.2243,0.032c0.0961,0.0961,0.0961,0.2243,0.1922,0.2884
				c-0.032,0-0.1282,0.032-0.1922,0c0.0961,0.1282,0,0.2884,0.0961,0.3524c0.0961,0.1282-0.0961,0.2884-0.2563,0.1602
				c0.032,0.0961-0.0641,0.1922-0.1602,0.1602c-0.0961-0.032-0.1602-0.1282-0.1282-0.1602c0-0.032,0-0.032,0.032-0.0641
				c-0.0641,0.0961-0.1922,0.0961-0.2563,0.0641c-0.032-0.032-0.0641-0.0641-0.0641-0.0961
				c-0.2243,0.0641-0.3204-0.1282-0.2884-0.2243c0.032-0.0961,0.2243-0.1282,0.2884-0.0961c0.0641,0.032,0.1282,0.0641,0.1922,0
				c0.0641-0.032,0.0961-0.0961,0.0961-0.1602c0-0.0961-0.0961-0.3845-0.5126-0.3524c-0.4806,0.032-1.2495-0.0961-1.634-0.2243
				c-0.032-0.032-0.0641-0.032-0.0961-0.0641c0,0.1282-0.1282,0.1922-0.1282,0.3204c0,0.1602,0.0641,0.2884,0.2563,0.3524
				c-0.0961,0.1602-0.2563,0.1282-0.3204,0.032c0,0.0961-0.1282,0.1602-0.1282,0.2884c-0.032-0.0641-0.0641-0.0961-0.0961-0.1602
				c-0.0961,0.2243-0.3524,0.3524-0.4806,0.2884c-0.1602,0.1282-0.3524,0.0961-0.4165-0.032c-0.0961,0.0641-0.2243,0.0641-0.2884,0
				c0,0.0961-0.0641,0.0641-0.0961,0.1922c0,0.0641-0.1282,0.0961-0.1922,0.0641c-0.0641-0.032-0.0961-0.1602-0.032-0.2243
				c-0.0961,0.0641-0.1922,0.0641-0.2563,0c0-0.0641,0-0.1602,0.0641-0.1922h0.0641c-0.0641-0.032-0.1602,0-0.2243-0.032
				c-0.0641-0.0641-0.0641-0.1282-0.032-0.1922c0.032-0.032,0.1282-0.0961,0.1922-0.032l0.032,0.032
				c0-0.0641,0.032-0.1282,0.0641-0.1282c0.0641-0.032,0.1602-0.032,0.2563,0.0641c0.0641,0.0961,0.1282,0.0961,0.3204,0.0641
				c0.1602,0,0.4165-0.1602,0.6087-0.3204c-0.5447-0.0961-0.2243-0.4485-0.0641-0.5767c-0.1282-0.032-0.3204-0.032-0.4486,0.032
				c-0.6728,0.3524-1.3777,0.7689-1.8262,0.6408c0,0.0641,0.032,0.1282,0.0641,0.1922c-0.0961,0-0.2884,0-0.3524-0.0961
				c-0.032,0.0641-0.0961,0.2243-0.032,0.3524c-0.0641-0.0641-0.2563-0.1282-0.3524-0.1602c0.0641,0.0641,0,0.1922,0.032,0.2884
				c-0.0961-0.0961-0.2563-0.1602-0.3204-0.0961s-0.1922,0.0961-0.2884,0.0641c-0.0641,0.0961-0.1602,0.1602-0.2563,0.1922
				c0-0.0641,0-0.1602-0.032-0.1922c-0.032,0.0961-0.1282,0.2243-0.2563,0.2884c0-0.0641,0-0.1602-0.032-0.2243
				c0,0.1282-0.2563,0.1922-0.2884,0.2884c0.032-0.0961,0.032-0.1922,0.032-0.2563c-0.0641,0.0961-0.1602,0.1922-0.3204,0.2243
				c0.032-0.0641,0.0641-0.1282,0.032-0.1922c-0.032,0.1282-0.2243,0.1922-0.3845,0.1602c0,0.0641-0.1282,0.1602-0.2883,0.0641
				c-0.0961-0.032-0.1602-0.1282-0.0961-0.1922c-0.1282,0-0.2563-0.1282-0.1922-0.2243c0-0.032,0.032-0.0641,0.032-0.0961
				c-0.0961-0.0641-0.1282-0.1922-0.032-0.2884c0.032-0.032,0.1282-0.032,0.1922-0.032c0-0.2563,0.2243-0.2563,0.3204-0.0641
				c0.0641,0.0961,0.2563,0.2563,0.4165,0.2243c0.0641,0,0.0961-0.032,0.1602-0.032c0.1922-0.0641,0.5767-0.2243,0.801-0.4165
				c0.032-0.0961,0.032-0.1602,0.032-0.2243c-0.1282,0.0641-0.2563,0.1282-0.3204,0.2243v-0.0961
				c-0.0961,0-0.2563-0.032-0.3204-0.032c0.032-0.032,0.0641-0.1922,0.1282-0.2243c-0.1602,0.032-0.3204,0-0.4485-0.032
				c0.0641-0.0641,0.0641-0.1602,0.0961-0.2563c-0.0641,0.032-0.2243-0.032-0.3524,0c0.032-0.0961,0.0641-0.2243,0.1602-0.2563
				c-0.1282,0.032-0.2884,0-0.4485-0.0641c0.1282,0,0.1922-0.1602,0.2884-0.1602c-0.2563,0-0.3204-0.1282-0.4485-0.1922
				c0.0961,0.032,0.1602-0.0641,0.2563-0.0641c-0.0961-0.032-0.2563-0.1922-0.1922-0.2884c-0.032,0.032-0.0641,0.0961-0.1282,0.1282
				c-0.0641,0.032-0.1922,0-0.2884-0.0961c-0.0641-0.1282-0.032-0.2884,0.0961-0.3204c-0.1602-0.032-0.1602-0.1922-0.0961-0.2563
				c0.032-0.0641,0.1602-0.1602,0.2243-0.0641c0.032,0.032,0.0641,0.0961,0.0961,0.1282c-0.032-0.0641-0.032-0.1922-0.032-0.2884
				c0.032-0.0961,0.0961-0.0961,0.1922-0.1282c0.0961,0,0.1602,0.0961,0.1602,0.1922s0.032,0.1602,0.0641,0.2884
				c0-0.032,0.032-0.0961,0.032-0.1282c0-0.1282,0.1602-0.0961,0.2563-0.0641c0.0961,0.032,0.1282,0.2243,0,0.3204
				c-0.0641,0.0641-0.032,0.1602,0.032,0.2243c0.2243,0.3524,0.6087,0.6408,0.9291,0.6728c0-0.1282,0.0641-0.2563,0.1602-0.3524
				c0-0.0641,0.032-0.1602,0.0641-0.2243c0.032-0.1922,0.1282-0.2884,0.2563-0.2243c-0.032-0.032-0.0641-0.0641-0.0641-0.0961
				c-0.0961-0.0961-0.1922-0.2563-0.1282-0.3845c0.0641-0.1282,0.2563-0.0961,0.3204-0.032
				c-0.032-0.1922,0.1922-0.3524,0.1922-0.4485c0.032,0.0961,0.0961,0.2243,0.0641,0.3204c0.032-0.1282,0.2563-0.2884,0.4165-0.3524
				c-0.0641,0.0961,0.1282,0.2563,0.0961,0.3524c0.0641-0.1602,0.3204-0.2563,0.5126-0.2563
				c-0.0641,0.0641-0.0641,0.1922-0.0641,0.2563c0.0961,0,0.2563-0.032,0.3204-0.1282c0,0.1282-0.0641,0.2563-0.1282,0.3204
				c0.032-0.032,0.1602-0.032,0.2563-0.032c-0.0961,0.0961-0.0641,0.1922-0.1602,0.2563c0.1282-0.0641,0.2884-0.0641,0.3204,0.0641
				c0.0641,0.0961-0.032,0.2563-0.0961,0.3524C43.1371,28.4542,43.0731,28.5183,43.041,28.5183L43.041,28.5183z"/>
			<g>
				<path class="st27" d="M41.0546,28.9027c-0.2243,0.0961-0.2884,0.3204-0.3204,0.4485"/>
				<path class="st27" d="M41.0226,29.127c-0.3204,0.1922-0.4485,0.3524-0.3845,0.7049"/>
				<path class="st27" d="M41.1828,30.0882c0.1922-0.0641,0.3204-0.1282,0.4806-0.4165"/>
				<path class="st27" d="M41.5673,29.7998c-0.0641,0.1282,0,0.3524-0.0961,0.4485c0.1602-0.0961,0.2884-0.2243,0.3204-0.4485"/>
				<path class="st27" d="M41.6313,30.1522c0.1282-0.0641,0.3204-0.2563,0.4165-0.4806c-0.032,0.0961,0,0.2563-0.0641,0.3524
					c0.1602-0.1602,0.2243-0.2563,0.2563-0.4165c0,0.032,0.032,0.0961,0.032,0.1282c0.0641-0.0641,0.1282-0.1282,0.1282-0.2563"/>
				<path class="st27" d="M42.4003,29.5755v0.1602c0.1282-0.0961,0.1602-0.2243,0.1602-0.3845"/>
				<path class="st27" d="M42.5284,29.5435c0.1922-0.1282,0.2243-0.3204,0.2243-0.6087"/>
				<path class="st27" d="M42.7527,29.2551c0.1282-0.0961,0.1602-0.1602,0.1602-0.4485"/>
				<path class="st27" d="M42.4963,27.9415c-0.0641,0-0.1282,0.032-0.1282,0.1282c0,0.0641-0.0961,0.1602-0.0961,0.2563
					c-0.032,0.1282-0.0961,0.1602-0.1922,0.1282c-0.0961-0.0641-0.0961-0.0641-0.0961-0.1602c0-0.1282,0.1602-0.1602,0.1602-0.2884
					c0.032-0.0641,0.0641-0.1602,0.0961-0.1602c-0.1602,0.0961-0.3845,0.032-0.4165-0.1602"/>
				<path class="st27" d="M42.7848,28.0377c-0.0641,0.032-0.1282-0.0641-0.2243-0.032c-0.032,0-0.1282,0.032-0.1602,0"/>
				<path class="st27" d="M42.3362,28.1978c0.032,0.032,0.1922,0.0961,0.3524,0.032c-0.1282,0.032-0.2243-0.1282-0.0961-0.2243"/>
				<path class="st27" d="M42.0478,27.8775c-0.1282,0-0.2243,0.0961-0.1922,0.1922c0.032,0.0961,0.1602,0.0961,0.2563,0.032"/>
				<path class="st27" d="M41.8235,29.4794c0.032-0.032,0.0641-0.0961,0.0641-0.1282c0.0641,0,0.1282-0.032,0.1602-0.0641
					c0.1282,0,0.2243-0.0961,0.2563-0.1922c0.0641,0,0.0961-0.1602,0.1282-0.2243c0.032,0.032,0.0961,0,0.1282-0.1282
					c0.0641,0.032,0.1602,0,0.1922-0.0961"/>
				<path class="st27" d="M41.4391,28.4221c0,0.032-0.0641,0.0961-0.1282,0.1282c0.032,0.0641,0,0.2243-0.0641,0.2563
					c0.032,0.0641,0,0.1602-0.032,0.2243c0,0.032,0.032,0.1282,0.032,0.1602"/>
				<path class="st27" d="M41.5673,27.7813c-0.0641,0.1602-0.032,0.3524,0.0961,0.3845"/>
				<path class="st27" d="M41.6313,28.294c-0.032,0.1602-0.032,0.3845-0.0641,0.4806c-0.032,0.0641-0.0961,0.2884,0.1602,0.3524
					c0.2884,0.0641,0.4485,0.032,0.6087-0.4485"/>
				<path class="st27" d="M42.8168,29.928c0,0.032-0.032,0.0961-0.0961,0.0961"/>
				<path class="st27" d="M43.041,29.8639c0,0.0641-0.0641,0.1602-0.0961,0.1922"/>
				<path class="st27" d="M43.2653,29.7998c0,0.0641,0,0.1602-0.0641,0.1922"/>
				<path class="st27" d="M41.3109,27.8134c0.032,0,0.0641,0.0641,0.0961,0.1282c-0.0961-0.0641-0.1922,0.0961-0.1282,0.1922"/>
				<path class="st27" d="M41.2148,28.358c-0.032,0.032-0.0961,0.0641-0.1282,0.0961"/>
				<path class="st27" d="M41.1187,28.6464c-0.032,0-0.0641,0.032-0.0961,0.032"/>
				<path class="st27" d="M39.5808,28.0697c0-0.032,0-0.032,0.032-0.0641"/>
				<path class="st27" d="M39.2925,27.9735c-0.032,0-0.032,0-0.0641-0.032"/>
				<path class="st27" d="M39.3245,28.4221h0.0641"/>
				<path class="st27" d="M39.1963,28.2299c-0.0641-0.0641-0.1602-0.0961-0.1922-0.0961"/>
				<path class="st27" d="M40.9585,29.4153c-0.2243,0.1922-0.3204,0.3524-0.3524,0.5767"/>
				<path class="st27" d="M41.1828,29.5755c-0.0641,0.1282-0.1602,0.2243-0.2563,0.2884"/>
				<path class="st27" d="M39.9333,30.5367c-0.2563,0.0641-0.4485,0.032-0.6408-0.0961c-0.032-0.032-0.0641-0.032-0.0961-0.0641"/>
				<path class="st27" d="M40.8944,30.0882c-0.032,0.1282-0.0641,0.2884-0.1282,0.3204c0.2563-0.1282,0.4806-0.3204,0.5126-0.6087"
					/>
				<path class="st27" d="M39.0361,30.6969c0.0961-0.032,0.1922,0.032,0.2563-0.032"/>
				<path class="st27" d="M44.611,29.6396c0.0641,0.032,0.1602,0.0641,0.1922,0.0961c0.032-0.0641,0.1602-0.1602,0.2563-0.1922"/>
				<path class="st27" d="M42.3362,30.3125c-0.032-0.1282,0.032-0.2884,0.2243-0.3524"/>
				<path class="st27" d="M41.0866,30.8571c0.032-0.0641,0.032-0.1602,0.0641-0.2243"/>
				<path class="st27" d="M39.6769,30.9532c-0.032,0.0641-0.0961,0.1282-0.0961,0.1922"/>
				<path class="st27" d="M39.1963,31.0173c0,0,0-0.032,0.032-0.032c0.0641-0.032,0.1602-0.0961,0.1922-0.1602"/>
				<path class="st27" d="M43.5537,30.5688c-0.0641,0.032-0.0961,0-0.1282-0.032"/>
				<path class="st27" d="M43.5216,30.729c0,0-0.032,0.032-0.0641,0.032"/>
				<path class="st27" d="M43.6818,30.8891c-0.032,0.032-0.0641,0.0641-0.0961,0.0641"/>
				<path class="st27" d="M44.611,30.9532c0.0641-0.032,0.0961-0.0961,0.1282-0.2243"/>
				<path class="st27" d="M44.1945,30.9212c0.0961-0.032,0.1602-0.0961,0.2563-0.1922"/>
				<path class="st27" d="M45.0915,30.6649c0-0.0641,0-0.1282,0.032-0.1922"/>
				<path class="st27" d="M47.4625,30.9532c-0.0641-0.0641-0.0641-0.1602,0.032-0.2243c0.0641-0.032,0.0961-0.0641,0.1602-0.0961"/>
				<path class="st27" d="M45.5081,29.8318c-0.5126-0.2243-0.4806-0.5126-0.8971-0.4806"/>
				<path class="st27" d="M47.7828,30.825c0.032,0.032,0,0.1282,0,0.1602"/>
				<path class="st27" d="M48.0712,30.825c-0.032,0.0961-0.032,0.1282-0.032,0.2243"/>
				<path class="st27" d="M45.6042,27.8134h-0.2563"/>
				<path class="st27" d="M42.9129,28.9027c0,0.0641,0.0961,0.1922,0.3524,0.1922c-0.032,0-0.0641-0.032-0.0641-0.032"/>
				<path class="st27" d="M43.041,28.5183c-0.032,0.032-0.0641,0-0.0641,0c-0.0641-0.0641,0.032-0.1922,0.1282-0.2563
					c-0.0961,0.032-0.1602,0.032-0.2243,0.032c-0.0641,0.1922-0.2563,0.2884-0.3845,0.1602
					c-0.032,0.1282-0.1922,0.2884-0.3204,0.2563c-0.1282-0.0641-0.1602-0.1602-0.1282-0.2563c-0.1602,0.1922-0.3524,0.0641-0.4165,0
					c-0.032-0.0641,0-0.2243,0.0641-0.4165"/>
			</g>
			<path d="M45.0915,29.7357c-0.0961,0.0641-0.1922,0-0.2884,0.0961c-0.0641,0.0641,0.032,0.0961,0.0961,0.0961
				c-0.032,0.0961-0.032,0.1282,0.1282,0.1282c-0.0641,0.0961,0.1282,0.1282,0.0961,0.2563
				c0.0961-0.0961,0.0961-0.2243,0.0641-0.3204C45.1556,29.8959,44.9954,29.8318,45.0915,29.7357L45.0915,29.7357z"/>
			<g>
				<path class="st32" d="M42.176,28.7105c-0.1282-0.0641-0.1602-0.1602-0.1282-0.2563c-0.032,0.0641-0.0961,0.0961-0.1602,0.0961
					c-0.1282,0.2884-0.2884,0.5447-0.4806,0.5447c-0.2243,0.032-0.1922,0.2563-0.032,0.2563
					C41.7274,29.4153,41.8876,29.2872,42.176,28.7105z"/>
				<path class="st32" d="M39.0041,27.9415c0.0961-0.0961,0.032-0.1922-0.032-0.2243c-0.0961-0.032-0.2884,0-0.3845,0.1602
					c0.0961-0.032,0.1922-0.032,0.2243,0.032C38.8439,27.9736,38.908,28.0376,39.0041,27.9415L39.0041,27.9415z"/>
				<path class="st32" d="M39.1643,27.3648c0.2243,0,0.2884,0.032,0.3204,0.1282c0.032,0.0641-0.032,0.1602-0.0961,0.1602
					c-0.0961,0-0.1922-0.0641-0.1602-0.0961C39.2604,27.493,39.2604,27.3969,39.1643,27.3648z"/>
				<path class="st32" d="M39.8051,27.8775c0.1602,0.032,0.2243-0.0641,0.1282-0.1922c-0.032-0.0961-0.1282-0.1602-0.2884-0.1282
					C39.8051,27.6532,39.6449,27.8134,39.8051,27.8775L39.8051,27.8775z"/>
				<path class="st32" d="M38.6196,28.4221c0.0961,0.1602,0.2563,0.1602,0.3204,0.1282c0.0961-0.032,0.1282-0.1282,0.0961-0.1922
					c-0.0641-0.0961-0.1602-0.1282-0.1922,0C38.7798,28.4862,38.6837,28.4542,38.6196,28.4221z"/>
				<path class="st32" d="M39.1002,30.3765c-0.0641-0.1282-0.2563-0.1282-0.4165,0c0.0641-0.032,0.1922,0,0.2243,0.0641
					c0.032,0.0641,0.0961,0.0641,0.1282,0.0641C39.0681,30.4726,39.1322,30.4406,39.1002,30.3765z"/>
				<path class="st32" d="M39.3565,30.1843c0-0.1602-0.2243-0.1922-0.3524-0.1282c0.0641,0,0.1602,0.0641,0.1602,0.1282
					c0.032,0.0641,0.0961,0.0961,0.1282,0.0961C39.3565,30.2484,39.3885,30.2163,39.3565,30.1843z"/>
				<path class="st32" d="M39.0361,30.761c-0.1922-0.032-0.2884,0.1922-0.2884,0.3524c0.032-0.0961,0.1282-0.1602,0.2243-0.1282
					c0.0961,0,0.1282-0.032,0.1282-0.0961C39.1323,30.8251,39.1002,30.793,39.0361,30.761L39.0361,30.761z"/>
				<path class="st32" d="M39.0682,31.3057c0.0641,0.032,0.1282-0.032,0.1602-0.1282c0-0.0641,0.1282-0.0641,0.1602-0.032
					c0.0641,0.032,0.0641,0.1602-0.032,0.2243C39.2924,31.4018,39.1322,31.4338,39.0682,31.3057L39.0682,31.3057z"/>
				<path class="st32" d="M43.5216,30.3445c-0.0641-0.032-0.2243-0.0961-0.3524,0c0.0961-0.032,0.1602,0.032,0.1922,0.0961
					c0,0.0641,0.0961,0.0961,0.1282,0.032C43.5216,30.4406,43.5537,30.3765,43.5216,30.3445z"/>
				<path class="st32" d="M43.2333,30.5688c-0.1282-0.0641-0.2884,0.0961-0.3204,0.2243c0.032-0.032,0.1602-0.0961,0.2243-0.0961
					c0.0641,0.032,0.1282,0,0.1282-0.0641C43.2974,30.6008,43.2974,30.5688,43.2333,30.5688z"/>
				<path class="st32" d="M43.3935,30.825c-0.0961,0-0.2243,0.1282-0.2243,0.2563c0.032-0.0641,0.0961-0.0961,0.1602-0.0641
					c0.0641,0,0.1602-0.032,0.1602-0.0961S43.4576,30.825,43.3935,30.825L43.3935,30.825z"/>
				<path class="st32" d="M43.6818,31.0814c-0.0641-0.032-0.1602,0-0.1602,0.0961c0,0.0961,0,0.1922-0.032,0.2243
					c0.0641-0.0641,0.1282-0.0961,0.1922-0.1282C43.7139,31.2416,43.7459,31.1454,43.6818,31.0814L43.6818,31.0814z"/>
				<path class="st32" d="M47.3023,30.793c-0.0641-0.0641-0.1602-0.032-0.1922,0.032c-0.032,0.0641-0.0641,0.2243,0,0.3524
					c0-0.0641,0.0641-0.1602,0.1282-0.1602C47.3343,30.9852,47.3664,30.8571,47.3023,30.793L47.3023,30.793z"/>
				<path class="st32" d="M47.4945,30.9212c-0.1282,0.0641-0.1282,0.2884-0.032,0.4165c0-0.0641,0.032-0.1602,0.0961-0.1922
					c0.0961,0,0.1282-0.1282,0.0961-0.1922C47.5906,30.8891,47.5265,30.9212,47.4945,30.9212L47.4945,30.9212z"/>
				<path class="st32" d="M47.879,31.0493c-0.0641-0.032-0.1282,0.032-0.1282,0.0961c-0.032,0.0961,0.032,0.2243,0.1282,0.2884
					c0-0.0641,0.032-0.1282,0.0641-0.1602C48.0392,31.2095,48.0071,31.0814,47.879,31.0493z"/>
				<path class="st32" d="M48.1673,31.0173c-0.0641,0-0.1282,0.0961-0.0641,0.1922c0.032,0.0641,0.0961,0.0961,0.2243,0.0641
					c-0.032,0-0.0961-0.0961-0.0641-0.1282C48.2955,31.0814,48.2634,31.0173,48.1673,31.0173z"/>
			</g>
		</g>
		<g id="star_5_">
			<path class="st33" d="M39.2604,37.0086l1.602-4.934l1.602,4.934l-4.1971-3.0437h5.1904L39.2604,37.0086z"/>
			<path class="st34" d="M39.5808,36.5601l3.3321-2.435h-4.101l3.3,2.435l-1.2495-3.9088L39.5808,36.5601z"/>
		</g>
		<g>
			<g id="star_4_">
				<path class="st33" d="M45.2838,37.0086l1.602-4.934l1.602,4.934l-4.1971-3.0437h5.1904L45.2838,37.0086z"/>
				<path class="st34" d="M45.6042,36.5601l3.3321-2.435h-4.101l3.3,2.435l-1.2495-3.9088L45.6042,36.5601z"/>
			</g>
		</g>
		<g>
			<g id="star_3_">
				<path class="st33" d="M42.2721,40.5009l1.602-4.934l1.602,4.934l-4.1971-3.0437h5.1904L42.2721,40.5009z"/>
				<path class="st34" d="M42.5925,40.0524l3.3321-2.435h-4.101l3.3,2.435l-1.2495-3.9088L42.5925,40.0524z"/>
			</g>
		</g>
		<path class="st27" d="M49.8654,26.9483v6.2476c0,5.4146-2.5631,7.2729-5.9913,8.7467c-3.4282-1.4738-6.0234-3.3321-6.0234-8.7467
			v-6.2476H49.8654L49.8654,26.9483z"/>
	</g>
</g>
</svg>
