<?xml version="1.0" encoding="utf-8"?>
<!-- Generator: Adobe Illustrator 22.0.0, SVG Export Plug-In . SVG Version: 6.00 Build 0)  -->
<svg version="1.1" id="Layer_1" xmlns="http://www.w3.org/2000/svg" xmlns:xlink="http://www.w3.org/1999/xlink" x="0px" y="0px"
	 viewBox="0 0 60 60" style="enable-background:new 0 0 60 60;" xml:space="preserve">
<style type="text/css">
	.st0{clip-path:url(#SVGID_2_);fill:#00AFCA;}
	.st1{clip-path:url(#SVGID_2_);fill:#FEC50C;}
	.st2{clip-path:url(#SVGID_2_);fill:#FEC50C;stroke:#00AFCA;stroke-width:0.0763;}
</style>
<g>
	<defs>
		<circle id="SVGID_1_" cx="30" cy="30" r="30"/>
	</defs>
	<clipPath id="SVGID_2_">
		<use xlink:href="#SVGID_1_"  style="overflow:visible;"/>
	</clipPath>
	<rect x="-30" class="st0" width="120" height="60"/>
	<circle class="st1" cx="34.8283" cy="25.2" r="8.073"/>
	<path id="r" class="st1" d="M34.8283,16.026c0.48-0.006,0.66-0.306,0.66-0.666c0-0.48-0.66-2.766-0.66-2.766
		s-0.66,2.286-0.66,2.766C34.1683,15.72,34.3483,16.026,34.8283,16.026z"/>
	<path id="r_1_" class="st1" d="M44.0023,25.2c0.006,0.48,0.306,0.66,0.666,0.66c0.48,0,2.766-0.66,2.766-0.66
		s-2.286-0.66-2.766-0.66C44.3083,24.54,44.0023,24.72,44.0023,25.2z"/>
	<path id="r_2_" class="st1" d="M34.8283,34.374c-0.48,0.006-0.66,0.306-0.66,0.666c0,0.48,0.66,2.766,0.66,2.766
		s0.66-2.286,0.66-2.766C35.4883,34.68,35.3083,34.374,34.8283,34.374z"/>
	<path id="r_3_" class="st1" d="M25.6543,25.2c-0.006-0.48-0.306-0.66-0.666-0.66c-0.48,0-2.766,0.66-2.766,0.66
		s2.286,0.66,2.766,0.66C25.3483,25.86,25.6543,25.68,25.6543,25.2z"/>
	<path id="r_4_" class="st1" d="M38.339,16.7243c0.4458,0.1781,0.7269-0.0301,0.8646-0.3627
		c0.1837-0.4435,0.4487-2.808,0.4487-2.808s-1.4846,1.8594-1.6683,2.3029C37.8464,16.1891,37.8956,16.5406,38.339,16.7243z"/>
	<path id="r_5_" class="st1" d="M43.304,28.7107c-0.1781,0.4458,0.0301,0.7269,0.3627,0.8646
		c0.4435,0.1837,2.808,0.4487,2.808,0.4487s-1.8594-1.4846-2.3029-1.6683C43.8392,28.2181,43.4877,28.2673,43.304,28.7107z"/>
	<path id="r_6_" class="st1" d="M31.3176,33.6757c-0.4458-0.1781-0.7269,0.0301-0.8646,0.3627
		c-0.1837,0.4435-0.4487,2.808-0.4487,2.808s1.4846-1.8594,1.6683-2.3029C31.8102,34.2109,31.761,33.8594,31.3176,33.6757z"/>
	<path id="r_7_" class="st1" d="M26.3526,21.6893c0.1781-0.4458-0.0301-0.7269-0.3627-0.8646
		c-0.4435-0.1837-2.808-0.4487-2.808-0.4487s1.8594,1.4846,2.3029,1.6683C25.8173,22.1819,26.1689,22.1327,26.3526,21.6893z"/>
	<path id="r_8_" class="st1" d="M41.3153,18.713c0.3437,0.3352,0.6831,0.2503,0.9376-0.0042
		c0.3394-0.3394,1.4892-2.4225,1.4892-2.4225s-2.0831,1.1498-2.4225,1.4892C41.065,18.0299,40.9759,18.3736,41.3153,18.713z"/>
	<path id="r_9_" class="st1" d="M41.3153,31.687c-0.3352,0.3437-0.2503,0.6831,0.0042,0.9376
		c0.3394,0.3394,2.4225,1.4892,2.4225,1.4892s-1.1498-2.0831-1.4892-2.4225C41.9984,31.4367,41.6547,31.3476,41.3153,31.687z"/>
	<path id="r_10_" class="st1" d="M28.3413,31.687c-0.3437-0.3352-0.6831-0.2503-0.9376,0.0042
		c-0.3394,0.3394-1.4892,2.4225-1.4892,2.4225s2.0831-1.1498,2.4225-1.4892C28.5916,32.3701,28.6807,32.0264,28.3413,31.687z"/>
	<path id="r_11_" class="st1" d="M28.3413,18.713c0.3352-0.3437,0.2503-0.6831-0.0042-0.9376
		c-0.3394-0.3394-2.4225-1.4892-2.4225-1.4892s1.1498,2.0831,1.4892,2.4225C27.6582,18.9633,28.0019,19.0524,28.3413,18.713z"/>
	<path id="r_12_" class="st1" d="M43.304,21.6893c0.1892,0.4412,0.5353,0.4927,0.8679,0.3549
		c0.4435-0.1837,2.3029-1.6683,2.3029-1.6683s-2.3646,0.2651-2.808,0.4487C43.3341,20.9624,43.1203,21.2458,43.304,21.6893z"/>
	<path id="r_13_" class="st1" d="M38.339,33.6757c-0.4412,0.1892-0.4927,0.5353-0.3549,0.8679
		c0.1837,0.4435,1.6683,2.3029,1.6683,2.3029s-0.2651-2.3646-0.4487-2.808C39.0659,33.7058,38.7825,33.492,38.339,33.6757z"/>
	<path id="r_14_" class="st1" d="M26.3526,28.7107c-0.1892-0.4412-0.5353-0.4927-0.8679-0.3549
		c-0.4435,0.1837-2.3029,1.6683-2.3029,1.6683s2.3646-0.2651,2.808-0.4487C26.3225,29.4376,26.5363,29.1542,26.3526,28.7107z"/>
	<path id="r_15_" class="st1" d="M31.3176,16.7243c0.4412-0.1892,0.4927-0.5353,0.3549-0.8679
		c-0.1837-0.4435-1.6683-2.3029-1.6683-2.3029s0.2651,2.3646,0.4487,2.808C30.5907,16.6942,30.8741,16.908,31.3176,16.7243z"/>
	<path id="r_16_" class="st1" d="M36.6181,16.2023c0.4719,0.0878,0.707-0.1714,0.7772-0.5244
		c0.0936-0.4708-0.1077-2.8416-0.1077-2.8416s-1.0933,2.1133-1.1869,2.5841C36.0304,15.7734,36.1473,16.1086,36.6181,16.2023z"/>
	<path id="r_17_" class="st1" d="M43.826,26.9898c-0.0878,0.4719,0.1714,0.707,0.5244,0.7772
		c0.4708,0.0936,2.8416-0.1077,2.8416-0.1077s-2.1133-1.0933-2.5841-1.1869C44.2549,26.4021,43.9197,26.519,43.826,26.9898z"/>
	<path id="r_18_" class="st1" d="M33.0385,34.1977c-0.472-0.0878-0.707,0.1714-0.7772,0.5244
		c-0.0936,0.4708,0.1077,2.8416,0.1077,2.8416s1.0933-2.1133,1.1869-2.5841C33.6262,34.6266,33.5093,34.2914,33.0385,34.1977z"/>
	<path id="r_19_" class="st1" d="M25.8306,23.4102c0.0878-0.4719-0.1714-0.707-0.5244-0.7772
		c-0.4708-0.0936-2.8416,0.1077-2.8416,0.1077s2.1133,1.0933,2.5841,1.1869C25.4017,23.9979,25.7369,23.881,25.8306,23.4102z"/>
	<path id="r_20_" class="st1" d="M39.9251,17.5721c0.4024,0.2617,0.7188,0.1122,0.9188-0.1871
		c0.2667-0.3991,0.9879-2.6665,0.9879-2.6665s-1.8188,1.5341-2.0855,1.9332C39.5463,16.951,39.526,17.3054,39.9251,17.5721z"/>
	<path id="r_21_" class="st1" d="M42.4562,30.2968c-0.2617,0.4024-0.1122,0.7188,0.1871,0.9188
		c0.3991,0.2667,2.6665,0.9879,2.6665,0.9879s-1.5341-1.8188-1.9332-2.0855C43.0773,29.918,42.7229,29.8977,42.4562,30.2968z"/>
	<path id="r_22_" class="st1" d="M29.7315,32.8279c-0.4024-0.2617-0.7188-0.1122-0.9188,0.1871
		c-0.2667,0.3991-0.9879,2.6665-0.9879,2.6665s1.8188-1.5341,2.0855-1.9332C30.1103,33.449,30.1306,33.0946,29.7315,32.8279z"/>
	<path id="r_23_" class="st1" d="M27.2004,20.1032c0.2617-0.4024,0.1122-0.7188-0.1871-0.9188
		c-0.3991-0.2667-2.6665-0.9879-2.6665-0.9879s1.5341,1.8188,1.9332,2.0855C26.5793,20.482,26.9337,20.5023,27.2004,20.1032z"/>
	<path id="r_24_" class="st1" d="M42.4562,20.1032c0.2717,0.3958,0.6211,0.3788,0.9204,0.1788
		c0.3991-0.2667,1.9332-2.0855,1.9332-2.0855s-2.2674,0.7213-2.6665,0.9879C42.3439,19.3844,42.1895,19.7041,42.4562,20.1032z"/>
	<path id="r_25_" class="st1" d="M39.9251,32.8279c-0.3958,0.2717-0.3788,0.6211-0.1788,0.9204
		c0.2667,0.3991,2.0855,1.9332,2.0855,1.9332s-0.7213-2.2674-0.9879-2.6665C40.6439,32.7157,40.3242,32.5612,39.9251,32.8279z"/>
	<path id="r_26_" class="st1" d="M27.2004,30.2968c-0.2717-0.3958-0.6211-0.3788-0.9204-0.1788
		c-0.3991,0.2667-1.9332,2.0855-1.9332,2.0855s2.2674-0.7213,2.6665-0.9879C27.3126,31.0156,27.4671,30.6959,27.2004,30.2968z"/>
	<path id="r_27_" class="st1" d="M29.7315,17.5721c0.3958-0.2717,0.3788-0.6211,0.1788-0.9204
		c-0.2667-0.3991-2.0855-1.9332-2.0855-1.9332s0.7213,2.2674,0.9879,2.6665C29.0127,17.6843,29.3324,17.8388,29.7315,17.5721z"/>
	<path id="r_28_" class="st1" d="M43.826,23.4102c0.0995,0.4696,0.4289,0.5876,0.782,0.5174
		c0.4708-0.0936,2.5841-1.1869,2.5841-1.1869s-2.3708-0.2013-2.8416-0.1077C43.9974,22.7032,43.7324,22.9395,43.826,23.4102z"/>
	<path id="r_29_" class="st1" d="M36.6181,34.1977c-0.4696,0.0995-0.5876,0.4289-0.5174,0.782
		c0.0936,0.4708,1.1869,2.5841,1.1869,2.5841s0.2013-2.3708,0.1077-2.8416C37.3251,34.3691,37.0888,34.1041,36.6181,34.1977z"/>
	<path id="r_30_" class="st1" d="M25.8306,26.9898c-0.0995-0.4696-0.4289-0.5876-0.782-0.5174
		c-0.4708,0.0936-2.5841,1.1869-2.5841,1.1869s2.3708,0.2013,2.8416,0.1077C25.6592,27.6968,25.9242,27.4605,25.8306,26.9898z"/>
	<path id="r_31_" class="st1" d="M33.0385,16.2023c0.4696-0.0995,0.5876-0.4289,0.5174-0.782
		c-0.0936-0.4708-1.1869-2.5841-1.1869-2.5841s-0.2013,2.3708-0.1077,2.8416C32.3315,16.0309,32.5678,16.2959,33.0385,16.2023z"/>
	<path class="st1" d="M33.388,42.688c-0.216,0.012-0.426,0.04-0.632,0.106c-0.282,0.038-0.552,0.136-0.832,0.182l-0.112,0.018
		l-0.188,0.018c0.012,0.052,0.02,0.104,0.02,0.156c0,0.054-0.006,0.106-0.02,0.15c-0.012,0.042-0.05,0.094-0.08,0.126
		c-0.04,0.044-0.082,0.082-0.132,0.106c-0.048,0.024-0.102,0.034-0.156,0.038c-0.054,0.002-0.11,0-0.162-0.02
		c-0.054-0.018-0.104-0.052-0.15-0.092c-0.056,0.014-0.114,0.024-0.168,0.03c-0.056,0.006-0.108,0.006-0.158,0
		c-0.056-0.016-0.114-0.034-0.168-0.056c-0.054-0.022-0.106-0.05-0.156-0.082c-0.204,0.12-0.432,0.234-0.556,0.444
		c-0.07,0.096-0.084,0.206-0.1,0.32c-0.01,0.14,0.026,0.288,0.086,0.418c0.022,0.038,0.04-0.138,0.108-0.162
		c0.114-0.094,0.256-0.162,0.4-0.2c0.122-0.062,0.106,0.004,0.056,0.1c-0.012,0.05-0.08,0.24,0.012,0.144
		c0.406-0.18,0.856-0.216,1.294-0.25c0.636-0.066,1.274-0.08,1.912-0.088c0.6,0.008,1.2,0.016,1.8,0.038
		c0.286,0.008,0.574,0.072,0.856,0.024c0.068-0.018,0.174-0.022,0.214-0.062c-0.128-0.074-0.278-0.076-0.42-0.094h-1.144
		c-0.318-0.032-0.65-0.036-0.95-0.156c-0.08-0.032-0.154-0.108-0.23-0.026c-0.114,0.04-0.236,0.068-0.356,0.076
		c-0.21,0.016-0.42-0.028-0.614-0.106c0.14-0.194,0.308-0.364,0.462-0.544c-0.124-0.02-0.244-0.046-0.368-0.076
		C32.974,43.018,33.176,42.848,33.388,42.688L33.388,42.688z"/>
	<path class="st1" d="M42.732,44.7606c-0.4347,0.261-0.7665-0.2017-1.1299-0.3405c-0.2595,0.1409-0.2837,0.6125-0.5262,0.8358
		c-0.2901,0.3301-0.6456-0.0922-0.6191-0.4179c-0.347,0.2924-0.5224,0.9553-1.0834,0.8668
		c-0.2659-0.2169-0.4633-0.6721-0.6664-0.1538c-0.1657,0.2533-0.6066,0.6137-0.835,0.2312
		c-0.0707-0.3377-0.2401-0.735-0.4238-0.1985c-0.1261,0.3795-0.531,0.6587-0.9227,0.4925c-0.2144-0.1753,0.1719-0.8236-0.101-0.7775
		c-0.408,0.2697-0.6452,0.9395-1.2145,0.8858c-0.2211-0.2482,0.1342-0.6686-0.1083-0.9441
		c-0.2863,0.3674-0.6038,0.9053-1.0989,0.9441c-0.2393-0.1939,0.0094-0.7501-0.1434-0.8324
		c-0.5081,0.3047-1.0441,0.8477-1.683,0.6776c0.249-0.9524,1.2894-1.2865,2.1643-1.3608c1.5053-0.185,3.089,0.1552,4.5374-0.3881
		c0.234-0.1424,0.801-0.3444,0.5991-0.6746c-0.1788-0.2608,0.4652-0.1588,0.5271-0.4634c-0.0383-0.3858,0.2956-0.3327,0.6218-0.3665
		c1.4626-0.0631,2.9073,0.2449,4.3655,0.2973c0.1101,0.7105-0.6781,1.2094-1.3126,0.99c-0.3031,0.0491-0.7576-0.6969-0.6685-0.1542
		C42.9495,44.1942,42.9923,44.5704,42.732,44.7606 M30.288,43.3058c0.3386,0.3099,0.576-0.0584,0.8925-0.1929
		c1.0615-0.3651,1.9877-1.0031,2.9008-1.6406c0.5533-0.4578,1.0328-1.0515,1.7758-1.2c1.4493-0.4382,2.9899-0.385,4.4449-0.7894
		c1.1078-1.5169,2.9895-2.0579,4.5658-2.9299c0.3539-0.1099,0.4907-0.4012,0.6037-0.7228c0.6017-0.9498,1.4213-1.7914,2.3907-2.3663
		c0.4586-0.2506,1.0058-0.395,1.5251-0.2803c-0.0372,0.6184-0.392,1.1665-0.8203,1.5942c0.3505-0.0077,0.6518-0.2291,1.006-0.2167
		c0.1214,0.6347-0.564,0.9668-0.9287,1.362c0.2031,0.0473,0.9812,0.1061,0.5572,0.3095c-0.5403,0.375-1.1573,0.6325-1.6561,1.0679
		c0.4602,0.0827,0.5126,0.1805,0.0447,0.3469c-0.2533,0.1717-0.7405,0.2317-0.7876,0.5662c0.3476,0.2136-0.1601,0.4258-0.356,0.4953
		c-0.3745,0.0872-0.7679,0.2499-0.2704,0.5344c-0.1882,0.2843-0.5919,0.3449-0.9214,0.3168c0.1,0.3222,0.2447,0.6827-0.1735,0.8248
		c-0.9374,0.7087-2.0376,1.2241-3.2161,1.342c1.4722,0.1132,2.9884-0.1601,4.2464-0.9607c0.1661-0.1964,1.0369-0.4074,0.5498-0.5725
		c-0.2293-0.0954-0.721-0.2014-0.7542-0.3762c0.6813-0.4204,1.5398-0.2708,2.2728-0.5205c0.019-0.2373-0.5575-0.1713-0.7724-0.2253
		c-0.5126-0.042-0.4825-0.1728,0.0117-0.2213c0.6253-0.1655,1.3336-0.1982,1.8596-0.6059c-0.4283-0.1984-0.967-0.0237-1.4239-0.1857
		c0.7747-0.339,1.6885-0.373,2.3836-0.8822c0.3166-0.3523-0.4056-0.2421-0.616-0.2336c-0.4291,0.0747-0.6274-0.1307-0.1399-0.3089
		c0.8323-0.6136,1.886-1.0123,2.4706-1.9018c0.1385-0.1991,0.326-0.7991-0.1157-0.5833c-0.5809,0.1931-1.0919,0.8461-1.7537,0.6441
		c1.304-1.0106,2.5448-2.1612,3.436-3.5598c0.046-0.4034-0.5871-0.4471-0.7519-0.1303c-0.8378,0.8072-1.596,1.7601-2.6686,2.2662
		c1.0273-0.9915,1.8766-2.1655,2.6176-3.3823c0.1589-0.3619,0.5858-0.7972,0.3541-1.199c-0.3735-0.3092-0.8408-0.0262-1.0349,0.3438
		c-0.6512,0.8501-1.1458,1.8425-1.9832,2.535c0.7331-1.3993,1.4923-2.8889,1.5107-4.5028c-0.0022-0.3323-0.069-0.8216-0.5202-0.7595
		c-0.3577,0.0641-0.2728,0.5995-0.4202,0.8702c-0.3247,1.1026-0.4771,2.2967-1.143,3.2623c0.1498-0.896,0.412-1.83,0.2107-2.7348
		c-0.094-0.4044-0.747-0.2305-0.6629,0.1697c-0.7801,3.9516-3.4316,7.4076-6.8994,9.4068
		c-1.5878,0.8984-3.3614,1.4776-5.1658,1.7401c-0.4854,0.1063-1.0103,0.0439-1.4743,0.2094
		c-1.1242,0.862-1.8047,2.3044-3.2281,2.7561c-0.6379,0.317-1.4698,0.3813-1.9259,0.974
		C30.2949,43.134,30.2864,43.2218,30.288,43.3058"/>
	<path class="st1" d="M34.548,39.297c-0.21,0.3812-0.3336,0.8195-0.6036,1.1608c-0.8125-0.7393-1.9903-0.7148-3.0208-0.764
		c-0.8506-0.0454-1.7756-0.1239-2.4338-0.7306c-0.6923-0.5671-1.2575-1.3034-2.0311-1.7636
		c-0.7061-0.192-1.418-0.4323-1.9857-0.9163c-1.2132-0.9889-1.908-2.4562-3.0935-3.476c-0.226-0.2225-0.4925-0.3949-0.7457-0.5836
		c-0.2406,0.0586-0.1317,0.5779-0.4261,0.3132c-0.1602-0.114-0.5609-0.1251-0.597,0.0342c0.3624,0.4776,0.7252,1.0229,0.7754,1.6338
		c-0.2472,0.0253-0.6867-0.0522-0.8092,0.0398c0.3283,0.492,0.749,0.9284,1.2271,1.2758c-0.2293,0.0369-0.6812,0.0168-0.7691,0.1092
		c0.4746,0.3868,0.9835,0.782,1.6048,0.8814c0.1272,0.1677-0.1859,0.4914,0.0774,0.6346c0.1527,0.0624,0.6567,0.1668,0.3095,0.3405
		c-0.2382,0.1605-0.1498,0.5347,0.1548,0.5262c0.1926,0.0983,0.6251,0.1225,0.6589,0.2927
		c-0.1707,0.1737-0.7019,0.3797-0.2498,0.5424c0.4223,0.2342,0.904,0.3863,1.3863,0.403c-0.242,0.2036-0.5402,0.3192-0.7894,0.5108
		c1.113,0.6526,2.3468,1.0818,3.566,1.4951c0.4855,0.1622,0.9764,0.3134,1.4797,0.4086c-1.4621-0.0844-2.8753-0.5173-4.207-1.1097
		c-0.6902-0.3027-1.385-0.5952-2.0924-0.8559c0.3102-0.1614,0.6689-0.2008,0.9905-0.3405c-0.6677-0.1337-1.3971-0.1776-1.984-0.5446
		c0.09-0.1605,0.431-0.1681,0.6196-0.2499c0.3547-0.085,0.5747-0.188,0.0746-0.2188c-0.5043-0.1369-1.0827-0.0755-1.5271-0.3797
		c0.0286-0.1824,0.4937-0.1189,0.6832-0.1976c0.2385-0.041,0.5037-0.0753,0.6944-0.2358c-0.7796-0.3233-1.7994-0.0942-2.4101-0.7828
		c-0.1409-0.2623,0.4373-0.051,0.602-0.0947c0.4183,0,0.868,0.1329,1.2664-0.0357c-1.136-0.4987-2.3529-0.9657-3.2193-1.8883
		c-0.0962-0.1483-0.3844-0.5535-0.1519-0.6036c0.6743,0.0892,1.1624,0.8252,1.8838,0.7106c0.0958-0.1292-0.419-0.3409-0.5475-0.5255
		c-1.0517-0.9025-2.0725-1.8818-2.8095-3.064c-0.0507-0.3948,0.5698-0.4539,0.7332-0.149c0.8043,0.7747,1.5308,1.6786,2.5325,2.2075
		c0.3555,0.1723-0.2041-0.204-0.2786-0.3405c-0.9256-1.0748-1.8068-2.21-2.4537-3.4759c-0.1158-0.2282-0.3077-0.6412,0.0388-0.7626
		c0.3463-0.1735,0.6901,0.0629,0.8657,0.3604c0.6805,0.8583,1.1813,1.8784,2.029,2.5935c-0.7222-1.4015-1.4933-2.8769-1.512-4.4897
		c0.0169-0.3127,0.037-0.7855,0.461-0.7727c0.356-0.054,0.2998,0.4018,0.4165,0.6191c0.3507,1.1848,0.5037,2.4673,1.2073,3.5134
		c-0.1554-0.8789-0.3841-1.7841-0.2322-2.6776c0.0351-0.2934,0.3653-0.3822,0.5809-0.2048
		c0.1743,0.4266,0.2106,0.9533,0.3694,1.4095c0.9036,3.0911,2.9325,5.8099,5.5765,7.6344c2.1775,1.4935,4.7617,2.3849,7.3992,2.5405
		c0.2382,0.0208,0.4773,0.0279,0.7159,0.0426"/>
	<circle class="st1" cx="31.2" cy="43.2532" r="0.142"/>
	<circle class="st2" cx="31.188" cy="43.2304" r="0.0579"/>
	<path class="st1" d="M8.4998,4.3753c0,0-0.5767-0.4846-0.7724-0.2415c-0.315,0.3909,0.9684,2.3381,0.9684,3.0238
		c0,1.1255-0.751,1.4317-1.6784,1.5923C6.3951,8.8578,5.3818,8.7048,5.3818,8.7048c0.1908-0.2564,0.3149-0.3319,0.6364-0.3524
		c-0.3579-0.1858-0.7223-0.5891-0.7223-1.217c0-0.9683,0.3986-1.3673,0.3986-2.459c0-0.6056-0.4966-1.3765-0.4966-1.3765
		c0.8777,0.0878,1.3127,0.9005,1.0652,1.55c0.1397,0.0201,0.2666-0.0113,0.3755-0.1146c0.0642,0.18-0.0372,0.389-0.173,0.569
		c0.1094,0.0585,0.1897,0.0234,0.364-0.0126C6.813,5.4773,6.7019,5.6744,6.43,5.8599C7.219,5.655,7.7045,6.205,7.7045,6.7807
		c0,0.4349-0.3047,0.7466-0.6026,0.7466c-0.0963,0-0.2377-0.0396-0.3174-0.0992C6.7282,7.5478,6.7572,7.708,6.8151,7.8277
		C6.5968,7.7699,6.4582,7.6403,6.5569,7.3704C6.3892,7.355,6.2558,7.2983,6.165,7.1904c0.0919-0.1177,0.2314-0.1856,0.3918-0.18
		c-0.1221-0.252,0.014-0.393,0.2122-0.5074c0,0-0.1261,0.5073,0.1959,0.5073c0.1448,0,0.2767-0.0471,0.2767-0.2605
		c0-0.1858-0.1624-0.4432-0.538-0.4269C6.3283,6.3393,6.0239,6.5818,6.0239,7.1813c0,0.553,0.446,0.828,1.0337,0.8458
		c0.53,0.0164,0.9301-0.2708,0.9301-0.8175c0-0.7277-1.0505-2.3864-1.0505-3.0349c0-0.4865,0.4375-0.7581,0.8656-0.7581
		c0.5551,0,1.0235,0.5497,1.0235,0.5497L8.5002,4.3751L8.4998,4.3753z"/>
	<path id="op" class="st1" d="M8.621,17.5284c0,1.2162-1.0919,1.8413-1.9499,1.8413c-1.156,0-1.7714-0.6911-1.7714-1.5959
		c0-0.5128,0.094-0.8347,0.3304-1.3255c0,0,1.9068-3.9655,2.6492-5.4992c0.0926-0.1913,0.1224-0.4091,0.1224-0.7283
		c0-0.493-0.4782-0.896-0.9796-0.9083C6.565,9.301,6.067,9.7386,6.067,10.2372c0,0.6056,0.3141,0.8756,0.6367,0.8756
		c0.3969,0,0.5551-0.1632,0.5551-0.4419c0-0.1942-0.0938-0.2782-0.2286-0.2782c-0.3405,0-0.2449,0.4583-0.2449,0.4583
		c-0.1691-0.037-0.308-0.2098-0.2286-0.4255c-0.1237-0.0275-0.2396-0.0925-0.3306-0.1964c0.0913-0.0885,0.196-0.1568,0.3306-0.18
		C6.4771,9.7857,6.5836,9.6571,6.8139,9.603C6.7675,9.7042,6.7659,9.7974,6.7813,9.8853c0.3626-0.1031,0.9184,0.061,0.9184,0.6874
		c0,0.6219-0.4316,1.1456-1.2409,1.0147c0.1925,0.092,0.2904,0.2804,0.3102,0.491c-0.1469-0.0573-0.3102-0.0655-0.3102-0.0655
		c0.0946,0.1668,0.226,0.3107,0.2204,0.6383c-0.15-0.0682-0.2894-0.1945-0.4816-0.1146c0.3018,0.5938-0.069,1.4107-1.0123,1.6039
		c0.3452-0.4047,0.5143-0.8416,0.5143-1.2766c0-1.4098-0.3918-1.6467-0.3918-2.6268c0-0.4101,0.2108-0.8529,0.6286-1.1539v0.0164
		C5.6602,9.0257,5.4833,8.8897,5.3816,8.705C6.0125,8.5261,6.9296,8.5294,7.422,8.7231C7.988,8.7887,8.3831,9.223,8.4995,9.4433
		c0.1164,0.2202,0.3426,1.0172,0,1.7347c-0.3749,0.7853-2.1427,4.5335-2.6938,5.7119c-0.1169,0.2499-0.1878,0.515-0.1878,0.802
		c0,0.7218,0.6612,0.9738,1.0367,0.9738c0.449,0,0.9061-0.342,0.9061-0.7692c0-0.2707-0.1469-0.4337-0.3592-0.4337
		c-0.5075,0-0.4767,0.4317-0.3755,0.7037c-0.3159-0.142-0.4995-0.3955-0.449-0.6628c-0.1788-0.0245-0.349-0.1093-0.5061-0.2864
		c0.1236-0.1561,0.2743-0.274,0.5061-0.2782c-0.1012-0.4147,0.1764-0.5901,0.449-0.6874c-0.0862,0.3044-0.1428,0.6547,0.3755,0.6547
		c0.3779,0,0.6755,0.0655,0.849,0.311C8.0608,16.89,8.0915,15.597,8.0915,15.597c0.0218-0.4859-0.6503-0.472-1.0775-0.3273
		c0.1612-0.5597,0.4919-0.8623,1.2571-0.7856c-0.1857-0.0777-0.3837-0.2525-0.3837-0.5892
		c0.0001-0.4556,0.3697-0.9603,0.6124-1.1095L8.621,17.5284L8.621,17.5284z"/>
	<path id="op_1_" class="st1" d="M8.621,21.1764c0-1.2162-1.0919-1.8413-1.9499-1.8413c-1.156,0-1.7714,0.6911-1.7714,1.5959
		c0,0.5128,0.094,0.8347,0.3304,1.3255c0,0,1.9068,3.9655,2.6492,5.4992c0.0926,0.1913,0.1224,0.409,0.1224,0.7283
		c0,0.493-0.4782,0.896-0.9796,0.9083C6.565,29.4038,6.067,28.9662,6.067,28.4676c0-0.6056,0.3141-0.8756,0.6367-0.8756
		c0.3969,0,0.5551,0.1632,0.5551,0.4419c0,0.1942-0.0938,0.2782-0.2286,0.2782c-0.3405,0-0.2449-0.4583-0.2449-0.4583
		c-0.1691,0.037-0.308,0.2098-0.2286,0.4255c-0.1237,0.0275-0.2396,0.0925-0.3306,0.1964c0.0913,0.0885,0.196,0.1568,0.3306,0.18
		c-0.0797,0.2632,0.0268,0.3918,0.2571,0.446c-0.0465-0.1013-0.0481-0.1944-0.0327-0.2823c0.3626,0.1031,0.9184-0.061,0.9184-0.6874
		c0-0.6219-0.4316-1.1456-1.2409-1.0147c0.1925-0.092,0.2904-0.2804,0.3102-0.491c-0.1469,0.0573-0.3102,0.0655-0.3102,0.0655
		c0.0946-0.1668,0.226-0.3107,0.2204-0.6383c-0.15,0.0682-0.2894,0.1945-0.4816,0.1146c0.3018-0.5938-0.069-1.4107-1.0123-1.6039
		c0.3452,0.4047,0.5143,0.8416,0.5143,1.2766c0,1.4098-0.3918,1.6467-0.3918,2.6268c0,0.4101,0.2108,0.8529,0.6286,1.1539v-0.0164
		c-0.2761,0.0739-0.453,0.2099-0.5547,0.3946c0.6309,0.1789,1.5479,0.1756,2.0404-0.0181c0.566-0.0655,0.9611-0.4998,1.0775-0.7202
		c0.1164-0.2202,0.3426-1.0172,0-1.7347c-0.3749-0.7853-2.1427-4.5335-2.6938-5.7119c-0.1169-0.2499-0.1878-0.515-0.1878-0.802
		c0-0.7218,0.6612-0.9738,1.0367-0.9738c0.449,0,0.9061,0.342,0.9061,0.7692c0,0.2707-0.1469,0.4337-0.3592,0.4337
		c-0.5075,0-0.4767-0.4317-0.3755-0.7037c-0.3159,0.142-0.4995,0.3955-0.449,0.6628c-0.1788,0.0245-0.349,0.1093-0.5061,0.2864
		c0.1236,0.1561,0.2743,0.274,0.5061,0.2782c-0.1012,0.4147,0.1764,0.5901,0.449,0.6874c-0.0862-0.3044-0.1428-0.6547,0.3755-0.6547
		c0.3779,0,0.6755-0.0655,0.849-0.311c0.0102,0.3273,0.0408,1.6203,0.0408,1.6203c0.0218,0.4859-0.6503,0.472-1.0775,0.3273
		c0.1612,0.5597,0.4919,0.8623,1.2571,0.7856c-0.1857,0.0777-0.3837,0.2525-0.3837,0.5892
		c0.0001,0.4556,0.3697,0.9603,0.6124,1.1095L8.621,21.1764L8.621,21.1764z"/>
	<path class="st1" d="M8.4998,4.3753c0,0,0.5767-0.4846,0.7724-0.2415c0.315,0.3909-0.9684,2.3381-0.9684,3.0238
		c0,1.1255,0.751,1.4317,1.6784,1.5923c0.6223,0.1079,1.6355-0.0451,1.6355-0.0451c-0.1908-0.2564-0.3149-0.3319-0.6364-0.3524
		c0.3579-0.1858,0.7223-0.5891,0.7223-1.217c0-0.9683-0.3986-1.3673-0.3986-2.459c0-0.6056,0.4966-1.3765,0.4966-1.3765
		c-0.8777,0.0878-1.3127,0.9005-1.0652,1.55c-0.1397,0.0201-0.2666-0.0113-0.3755-0.1146c-0.0642,0.18,0.0372,0.389,0.173,0.569
		c-0.1094,0.0585-0.1897,0.0234-0.364-0.0126c0.0165,0.1855,0.1277,0.3825,0.3996,0.568C9.7805,5.655,9.295,6.205,9.295,6.7807
		c0,0.4349,0.3047,0.7466,0.6026,0.7466c0.0963,0,0.2377-0.0396,0.3174-0.0992c0.0562,0.1197,0.0273,0.2799-0.0307,0.3996
		c0.2183-0.0577,0.3569-0.1874,0.2583-0.4573c0.1677-0.0154,0.3011-0.0721,0.3918-0.18c-0.0919-0.1177-0.2314-0.1856-0.3918-0.18
		c0.1221-0.252-0.014-0.393-0.2122-0.5074c0,0,0.1261,0.5073-0.1959,0.5073c-0.1448,0-0.2767-0.0471-0.2767-0.2605
		c0-0.1858,0.1624-0.4432,0.538-0.4269c0.3755,0.0164,0.6799,0.2589,0.6799,0.8584c0,0.553-0.446,0.828-1.0337,0.8458
		c-0.53,0.0164-0.9301-0.2708-0.9301-0.8175c0-0.7277,1.0505-2.3864,1.0505-3.0349c0-0.4865-0.4375-0.7581-0.8656-0.7581
		c-0.5551,0-1.0235,0.5497-1.0235,0.5497l0.3261,0.4089L8.4998,4.3753z"/>
	<path id="op_2_" class="st1" d="M8.3786,17.5284c0,1.2162,1.0919,1.8413,1.9499,1.8413c1.156,0,1.7714-0.6911,1.7714-1.5959
		c0-0.5128-0.094-0.8347-0.3304-1.3255c0,0-1.9068-3.9655-2.6492-5.4992c-0.0926-0.1913-0.1224-0.4091-0.1224-0.7283
		c0-0.493,0.4782-0.896,0.9796-0.9083c0.4571-0.0114,0.9551,0.4261,0.9551,0.9247c0,0.6056-0.3141,0.8756-0.6367,0.8756
		c-0.3969,0-0.5551-0.1632-0.5551-0.4419c0-0.1942,0.0938-0.2782,0.2286-0.2782c0.3405,0,0.2449,0.4583,0.2449,0.4583
		c0.1691-0.037,0.308-0.2098,0.2286-0.4255c0.1237-0.0275,0.2396-0.0925,0.3306-0.1964c-0.0913-0.0885-0.196-0.1568-0.3306-0.18
		c0.0797-0.2632-0.0268-0.3918-0.2571-0.446c0.0465,0.1013,0.0481,0.1944,0.0327,0.2823c-0.3626-0.1031-0.9184,0.061-0.9184,0.6874
		c0,0.6219,0.4316,1.1456,1.2409,1.0147c-0.1925,0.092-0.2904,0.2804-0.3102,0.491c0.1469-0.0573,0.3102-0.0655,0.3102-0.0655
		c-0.0946,0.1668-0.226,0.3107-0.2204,0.6383c0.15-0.0682,0.2894-0.1945,0.4816-0.1146c-0.3018,0.5938,0.069,1.4107,1.0123,1.6039
		c-0.3452-0.4047-0.5143-0.8416-0.5143-1.2766c0-1.4098,0.3918-1.6467,0.3918-2.6268c0-0.4101-0.2108-0.8529-0.6286-1.1539v0.0164
		c0.2761-0.0739,0.453-0.2099,0.5547-0.3947C10.987,8.5261,10.07,8.5294,9.5775,8.7231C9.0115,8.7887,8.6164,9.223,8.5,9.4433
		c-0.1164,0.2202-0.3426,1.0172,0,1.7347c0.3749,0.7853,2.1427,4.5335,2.6938,5.7119c0.1169,0.2499,0.1878,0.515,0.1878,0.802
		c0,0.7218-0.6612,0.9738-1.0367,0.9738c-0.449,0-0.9061-0.342-0.9061-0.7692c0-0.2707,0.1469-0.4337,0.3592-0.4337
		c0.5075,0,0.4767,0.4317,0.3755,0.7037c0.3159-0.142,0.4995-0.3955,0.449-0.6628c0.1788-0.0245,0.349-0.1093,0.5061-0.2864
		c-0.1236-0.1561-0.2743-0.274-0.5061-0.2782c0.1012-0.4147-0.1764-0.5901-0.449-0.6874c0.0862,0.3044,0.1428,0.6547-0.3755,0.6547
		c-0.3779,0-0.6755,0.0655-0.849,0.311C8.9387,16.89,8.9081,15.597,8.9081,15.597c-0.0218-0.4859,0.6503-0.472,1.0775-0.3273
		c-0.1612-0.5597-0.4919-0.8623-1.2571-0.7856c0.1857-0.0777,0.3837-0.2525,0.3837-0.5892
		c-0.0001-0.4556-0.3697-0.9603-0.6124-1.1095L8.3786,17.5284L8.3786,17.5284z"/>
	<path id="op_3_" class="st1" d="M8.3786,21.1764c0-1.2162,1.0919-1.8413,1.9499-1.8413c1.156,0,1.7714,0.6911,1.7714,1.5959
		c0,0.5128-0.094,0.8347-0.3304,1.3255c0,0-1.9068,3.9655-2.6492,5.4992c-0.0926,0.1913-0.1224,0.409-0.1224,0.7283
		c0,0.493,0.4782,0.896,0.9796,0.9083c0.4571,0.0114,0.9551-0.4261,0.9551-0.9247c0-0.6056-0.3141-0.8756-0.6367-0.8756
		c-0.3969,0-0.5551,0.1632-0.5551,0.4419c0,0.1942,0.0938,0.2782,0.2286,0.2782c0.3405,0,0.2449-0.4583,0.2449-0.4583
		c0.1691,0.037,0.308,0.2098,0.2286,0.4255c0.1237,0.0275,0.2396,0.0925,0.3306,0.1964c-0.0913,0.0885-0.196,0.1568-0.3306,0.18
		c0.0797,0.2632-0.0268,0.3918-0.2571,0.446c0.0465-0.1013,0.0481-0.1944,0.0327-0.2823c-0.3626,0.1031-0.9184-0.061-0.9184-0.6874
		c0-0.6219,0.4316-1.1456,1.2409-1.0147c-0.1925-0.092-0.2904-0.2804-0.3102-0.491c0.1469,0.0573,0.3102,0.0655,0.3102,0.0655
		c-0.0946-0.1668-0.226-0.3107-0.2204-0.6383c0.15,0.0682,0.2894,0.1945,0.4816,0.1146c-0.3018-0.5938,0.069-1.4107,1.0123-1.6039
		c-0.3452,0.4047-0.5143,0.8416-0.5143,1.2766c0,1.4098,0.3918,1.6467,0.3918,2.6268c0,0.4101-0.2108,0.8529-0.6286,1.1539v-0.0164
		c0.2761,0.0739,0.453,0.2099,0.5547,0.3946c-0.6309,0.1789-1.5479,0.1756-2.0404-0.0181c-0.566-0.0655-0.9611-0.4998-1.0775-0.7202
		c-0.1164-0.2202-0.3426-1.0172,0-1.7347c0.3749-0.7853,2.1427-4.5335,2.6938-5.7119c0.1169-0.2499,0.1878-0.515,0.1878-0.802
		c0-0.7218-0.6612-0.9738-1.0367-0.9738c-0.449,0-0.9061,0.342-0.9061,0.7692c0,0.2707,0.1469,0.4337,0.3592,0.4337
		c0.5075,0,0.4767-0.4317,0.3755-0.7037c0.3159,0.142,0.4995,0.3955,0.449,0.6628c0.1788,0.0245,0.349,0.1093,0.5061,0.2864
		c-0.1236,0.1561-0.2743,0.274-0.5061,0.2782c0.1012,0.4147-0.1764,0.5901-0.449,0.6874c0.0862-0.3044,0.1428-0.6547-0.3755-0.6547
		c-0.3779,0-0.6755-0.0655-0.849-0.311c-0.0102,0.3273-0.0408,1.6203-0.0408,1.6203c-0.0218,0.4859,0.6503,0.472,1.0775,0.3273
		c-0.1612,0.5597-0.4919,0.8623-1.2571,0.7856c0.1857,0.0777,0.3837,0.2525,0.3837,0.5892
		c-0.0001,0.4556-0.3697,0.9603-0.6124,1.1095L8.3786,21.1764L8.3786,21.1764z"/>
	<path class="st1" d="M8.4998,55.6247c0,0-0.5767,0.4846-0.7724,0.2415c-0.315-0.3909,0.9684-2.3381,0.9684-3.0238
		c0-1.1255-0.751-1.4317-1.6784-1.5923c-0.6223-0.1079-1.6355,0.0451-1.6355,0.0451c0.1908,0.2564,0.3149,0.3319,0.6364,0.3524
		c-0.3579,0.1858-0.7223,0.5891-0.7223,1.217c0,0.9683,0.3986,1.3673,0.3986,2.459c0,0.6056-0.4966,1.3765-0.4966,1.3765
		c0.8777-0.0878,1.3127-0.9005,1.0652-1.55c0.1397-0.0201,0.2666,0.0113,0.3755,0.1146c0.0642-0.18-0.0372-0.389-0.173-0.569
		c0.1094-0.0585,0.1897-0.0234,0.364,0.0126c-0.0165-0.1855-0.1277-0.3825-0.3996-0.568c0.7891,0.2049,1.2746-0.3451,1.2746-0.9208
		c0-0.4349-0.3047-0.7466-0.6026-0.7466c-0.0963,0-0.2377,0.0396-0.3174,0.0992c-0.0562-0.1197-0.0273-0.2799,0.0307-0.3996
		c-0.2183,0.0577-0.3569,0.1874-0.2583,0.4573c-0.1677,0.0154-0.3011,0.0721-0.3918,0.18c0.0919,0.1177,0.2314,0.1856,0.3918,0.18
		c-0.1221,0.252,0.014,0.393,0.2122,0.5074c0,0-0.1261-0.5073,0.1959-0.5073c0.1448,0,0.2767,0.0471,0.2767,0.2605
		c0,0.1858-0.1624,0.4432-0.538,0.4269c-0.3755-0.0164-0.6799-0.2589-0.6799-0.8584c0-0.553,0.446-0.828,1.0337-0.8458
		c0.53-0.0164,0.9301,0.2708,0.9301,0.8175c0,0.7277-1.0505,2.3864-1.0505,3.0349c0,0.4865,0.4375,0.7581,0.8656,0.7581
		c0.5551,0,1.0235-0.5497,1.0235-0.5497l-0.3261-0.4089L8.4998,55.6247z"/>
	<path id="op_4_" class="st1" d="M8.621,42.4716c0-1.2162-1.0919-1.8413-1.9499-1.8413c-1.156,0-1.7714,0.6911-1.7714,1.5959
		c0,0.5128,0.094,0.8347,0.3304,1.3255c0,0,1.9068,3.9655,2.6492,5.4992c0.0926,0.1913,0.1224,0.409,0.1224,0.7283
		c0,0.493-0.4782,0.896-0.9796,0.9083C6.565,50.699,6.067,50.2614,6.067,49.7628c0-0.6056,0.3141-0.8756,0.6367-0.8756
		c0.3969,0,0.5551,0.1632,0.5551,0.4419c0,0.1942-0.0938,0.2782-0.2286,0.2782c-0.3405,0-0.2449-0.4583-0.2449-0.4583
		c-0.1691,0.037-0.308,0.2098-0.2286,0.4255c-0.1237,0.0275-0.2396,0.0925-0.3306,0.1964c0.0913,0.0885,0.196,0.1568,0.3306,0.18
		c-0.0797,0.2632,0.0268,0.3918,0.2571,0.446c-0.0465-0.1013-0.0481-0.1944-0.0327-0.2823c0.3626,0.1031,0.9184-0.061,0.9184-0.6874
		c0-0.6219-0.4316-1.1456-1.2409-1.0147c0.1925-0.092,0.2904-0.2804,0.3102-0.491c-0.1469,0.0573-0.3102,0.0655-0.3102,0.0655
		c0.0946-0.1668,0.226-0.3107,0.2204-0.6383c-0.15,0.0682-0.2894,0.1945-0.4816,0.1146c0.3018-0.5938-0.069-1.4107-1.0123-1.6039
		c0.3452,0.4047,0.5143,0.8416,0.5143,1.2766c0,1.4098-0.3918,1.6467-0.3918,2.6268c0,0.4101,0.2108,0.8529,0.6286,1.1539v-0.0164
		c-0.2761,0.0739-0.453,0.2099-0.5547,0.3946c0.6309,0.1789,1.5479,0.1756,2.0404-0.0181c0.566-0.0655,0.9611-0.4998,1.0775-0.7202
		c0.1164-0.2202,0.3426-1.0172,0-1.7347c-0.3749-0.7853-2.1427-4.5335-2.6938-5.7119c-0.1169-0.2499-0.1878-0.515-0.1878-0.802
		c0-0.7218,0.6612-0.9738,1.0367-0.9738c0.449,0,0.9061,0.342,0.9061,0.7692c0,0.2707-0.1469,0.4337-0.3592,0.4337
		c-0.5075,0-0.4767-0.4317-0.3755-0.7037c-0.3159,0.142-0.4995,0.3955-0.449,0.6628c-0.1788,0.0245-0.349,0.1093-0.5061,0.2864
		c0.1236,0.1561,0.2743,0.274,0.5061,0.2782c-0.1012,0.4147,0.1764,0.5901,0.449,0.6874c-0.0862-0.3044-0.1428-0.6547,0.3755-0.6547
		c0.3779,0,0.6755-0.0655,0.849-0.311C8.0608,43.11,8.0915,44.403,8.0915,44.403c0.0218,0.4859-0.6503,0.472-1.0775,0.3273
		c0.1612,0.5597,0.4919,0.8623,1.2571,0.7856c-0.1857,0.0777-0.3837,0.2525-0.3837,0.5892
		c0.0001,0.4556,0.3697,0.9603,0.6124,1.1095L8.621,42.4716L8.621,42.4716z"/>
	<path id="op_5_" class="st1" d="M8.621,38.8236c0,1.2162-1.0919,1.8413-1.9499,1.8413c-1.156,0-1.7714-0.6911-1.7714-1.5959
		c0-0.5128,0.094-0.8347,0.3304-1.3255c0,0,1.9068-3.9655,2.6492-5.4992c0.0926-0.1913,0.1224-0.4091,0.1224-0.7283
		c0-0.493-0.4782-0.896-0.9796-0.9083C6.565,30.5962,6.067,31.0338,6.067,31.5324c0,0.6056,0.3141,0.8756,0.6367,0.8756
		c0.3969,0,0.5551-0.1632,0.5551-0.4419c0-0.1942-0.0938-0.2782-0.2286-0.2782c-0.3405,0-0.2449,0.4583-0.2449,0.4583
		c-0.1691-0.037-0.308-0.2098-0.2286-0.4255c-0.1237-0.0275-0.2396-0.0925-0.3306-0.1964c0.0913-0.0885,0.196-0.1568,0.3306-0.18
		c-0.0797-0.2632,0.0268-0.3918,0.2571-0.446c-0.0465,0.1013-0.0481,0.1944-0.0327,0.2823c0.3626-0.1031,0.9184,0.061,0.9184,0.6874
		c0,0.6219-0.4316,1.1456-1.2409,1.0147c0.1925,0.092,0.2904,0.2804,0.3102,0.491c-0.1469-0.0573-0.3102-0.0655-0.3102-0.0655
		c0.0946,0.1668,0.226,0.3107,0.2204,0.6383c-0.15-0.0682-0.2894-0.1945-0.4816-0.1146c0.3018,0.5938-0.069,1.4107-1.0123,1.6039
		c0.3452-0.4047,0.5143-0.8416,0.5143-1.2766c0-1.4098-0.3918-1.6467-0.3918-2.6268c0-0.4101,0.2108-0.8529,0.6286-1.1539v0.0164
		c-0.2761-0.0739-0.453-0.2099-0.5547-0.3946c0.6309-0.1789,1.5479-0.1756,2.0404,0.0181c0.566,0.0655,0.9611,0.4998,1.0775,0.7202
		c0.1164,0.2202,0.3426,1.0172,0,1.7347c-0.3749,0.7853-2.1427,4.5335-2.6938,5.7119c-0.1169,0.2499-0.1878,0.515-0.1878,0.802
		c0,0.7218,0.6612,0.9738,1.0367,0.9738c0.449,0,0.9061-0.342,0.9061-0.7692c0-0.2707-0.1469-0.4337-0.3592-0.4337
		c-0.5075,0-0.4767,0.4317-0.3755,0.7037c-0.3159-0.142-0.4995-0.3955-0.449-0.6628c-0.1788-0.0245-0.349-0.1093-0.5061-0.2864
		c0.1236-0.1561,0.2743-0.274,0.5061-0.2782c-0.1012-0.4147,0.1764-0.5901,0.449-0.6874c-0.0862,0.3044-0.1428,0.6547,0.3755,0.6547
		c0.3779,0,0.6755,0.0655,0.849,0.311c0.0102-0.3273,0.0408-1.6203,0.0408-1.6203c0.0218-0.4859-0.6503-0.472-1.0775-0.3273
		c0.1612-0.5597,0.4919-0.8623,1.2571-0.7856c-0.1857-0.0777-0.3837-0.2525-0.3837-0.5892
		c0.0001-0.4556,0.3697-0.9603,0.6124-1.1095L8.621,38.8236L8.621,38.8236z"/>
	<path class="st1" d="M8.4998,55.6247c0,0,0.5767,0.4846,0.7724,0.2415c0.315-0.3909-0.9684-2.3381-0.9684-3.0238
		c0-1.1255,0.751-1.4317,1.6784-1.5923c0.6223-0.1079,1.6355,0.0451,1.6355,0.0451c-0.1908,0.2564-0.3149,0.3319-0.6364,0.3524
		c0.3579,0.1858,0.7223,0.5891,0.7223,1.217c0,0.9683-0.3986,1.3673-0.3986,2.459c0,0.6056,0.4966,1.3765,0.4966,1.3765
		c-0.8777-0.0878-1.3127-0.9005-1.0652-1.55c-0.1397-0.0201-0.2666,0.0113-0.3755,0.1146c-0.0642-0.18,0.0372-0.389,0.173-0.569
		c-0.1094-0.0585-0.1897-0.0234-0.364,0.0126c0.0165-0.1855,0.1277-0.3825,0.3996-0.568C9.7805,54.345,9.295,53.795,9.295,53.2193
		c0-0.4349,0.3047-0.7466,0.6026-0.7466c0.0963,0,0.2377,0.0396,0.3174,0.0992c0.0562-0.1197,0.0273-0.2799-0.0307-0.3996
		c0.2183,0.0577,0.3569,0.1874,0.2583,0.4573c0.1677,0.0154,0.3011,0.0721,0.3918,0.18c-0.0919,0.1177-0.2314,0.1856-0.3918,0.18
		c0.1221,0.252-0.014,0.393-0.2122,0.5074c0,0,0.1261-0.5073-0.1959-0.5073c-0.1448,0-0.2767,0.0471-0.2767,0.2605
		c0,0.1858,0.1624,0.4432,0.538,0.4269c0.3755-0.0164,0.6799-0.2589,0.6799-0.8584c0-0.553-0.446-0.828-1.0337-0.8458
		c-0.53-0.0164-0.9301,0.2708-0.9301,0.8175c0,0.7277,1.0505,2.3864,1.0505,3.0349c0,0.4865-0.4375,0.7581-0.8656,0.7581
		c-0.5551,0-1.0235-0.5497-1.0235-0.5497l0.3261-0.4089L8.4998,55.6247z"/>
	<path id="op_6_" class="st1" d="M8.3786,42.4716c0-1.2162,1.0919-1.8413,1.9499-1.8413c1.156,0,1.7714,0.6911,1.7714,1.5959
		c0,0.5128-0.094,0.8347-0.3304,1.3255c0,0-1.9068,3.9655-2.6492,5.4992c-0.0926,0.1913-0.1224,0.409-0.1224,0.7283
		c0,0.493,0.4782,0.896,0.9796,0.9083c0.4571,0.0114,0.9551-0.4261,0.9551-0.9247c0-0.6056-0.3141-0.8756-0.6367-0.8756
		c-0.3969,0-0.5551,0.1632-0.5551,0.4419c0,0.1942,0.0938,0.2782,0.2286,0.2782c0.3405,0,0.2449-0.4583,0.2449-0.4583
		c0.1691,0.037,0.308,0.2098,0.2286,0.4255c0.1237,0.0275,0.2396,0.0925,0.3306,0.1964c-0.0913,0.0885-0.196,0.1568-0.3306,0.18
		c0.0797,0.2632-0.0268,0.3918-0.2571,0.446c0.0465-0.1013,0.0481-0.1944,0.0327-0.2823c-0.3626,0.1031-0.9184-0.061-0.9184-0.6874
		c0-0.6219,0.4316-1.1456,1.2409-1.0147c-0.1925-0.092-0.2904-0.2804-0.3102-0.491c0.1469,0.0573,0.3102,0.0655,0.3102,0.0655
		c-0.0946-0.1668-0.226-0.3107-0.2204-0.6383c0.15,0.0682,0.2894,0.1945,0.4816,0.1146c-0.3018-0.5938,0.069-1.4107,1.0123-1.6039
		c-0.3452,0.4047-0.5143,0.8416-0.5143,1.2766c0,1.4098,0.3918,1.6467,0.3918,2.6268c0,0.4101-0.2108,0.8529-0.6286,1.1539v-0.0164
		c0.2761,0.0739,0.453,0.2099,0.5547,0.3946c-0.6309,0.1789-1.5479,0.1756-2.0404-0.0181C9.0115,51.2113,8.6164,50.777,8.5,50.5567
		c-0.1164-0.2202-0.3426-1.0172,0-1.7347c0.3749-0.7853,2.1427-4.5335,2.6938-5.7119c0.1169-0.2499,0.1878-0.515,0.1878-0.802
		c0-0.7218-0.6612-0.9738-1.0367-0.9738c-0.449,0-0.9061,0.342-0.9061,0.7692c0,0.2707,0.1469,0.4337,0.3592,0.4337
		c0.5075,0,0.4767-0.4317,0.3755-0.7037c0.3159,0.142,0.4995,0.3955,0.449,0.6628c0.1788,0.0245,0.349,0.1093,0.5061,0.2864
		c-0.1236,0.1561-0.2743,0.274-0.5061,0.2782c0.1012,0.4147-0.1764,0.5901-0.449,0.6874c0.0862-0.3044,0.1428-0.6547-0.3755-0.6547
		c-0.3779,0-0.6755-0.0655-0.849-0.311C8.9387,43.11,8.9081,44.403,8.9081,44.403c-0.0218,0.4859,0.6503,0.472,1.0775,0.3273
		c-0.1612,0.5597-0.4919,0.8623-1.2571,0.7856c0.1857,0.0777,0.3837,0.2525,0.3837,0.5892
		c-0.0001,0.4556-0.3697,0.9603-0.6124,1.1095L8.3786,42.4716L8.3786,42.4716z"/>
	<path id="op_7_" class="st1" d="M8.3786,38.8236c0,1.2162,1.0919,1.8413,1.9499,1.8413c1.156,0,1.7714-0.6911,1.7714-1.5959
		c0-0.5128-0.094-0.8347-0.3304-1.3255c0,0-1.9068-3.9655-2.6492-5.4992c-0.0926-0.1913-0.1224-0.4091-0.1224-0.7283
		c0-0.493,0.4782-0.896,0.9796-0.9083c0.4571-0.0114,0.9551,0.4261,0.9551,0.9247c0,0.6056-0.3141,0.8756-0.6367,0.8756
		c-0.3969,0-0.5551-0.1632-0.5551-0.4419c0-0.1942,0.0938-0.2782,0.2286-0.2782c0.3405,0,0.2449,0.4583,0.2449,0.4583
		c0.1691-0.037,0.308-0.2098,0.2286-0.4255c0.1237-0.0275,0.2396-0.0925,0.3306-0.1964c-0.0913-0.0885-0.196-0.1568-0.3306-0.18
		c0.0797-0.2632-0.0268-0.3918-0.2571-0.446c0.0465,0.1013,0.0481,0.1944,0.0327,0.2823c-0.3626-0.1031-0.9184,0.061-0.9184,0.6874
		c0,0.6219,0.4316,1.1456,1.2409,1.0147c-0.1925,0.092-0.2904,0.2804-0.3102,0.491c0.1469-0.0573,0.3102-0.0655,0.3102-0.0655
		c-0.0946,0.1668-0.226,0.3107-0.2204,0.6383c0.15-0.0682,0.2894-0.1945,0.4816-0.1146c-0.3018,0.5938,0.069,1.4107,1.0123,1.6039
		c-0.3452-0.4047-0.5143-0.8416-0.5143-1.2766c0-1.4098,0.3918-1.6467,0.3918-2.6268c0-0.4101-0.2108-0.8529-0.6286-1.1539v0.0164
		c0.2761-0.0739,0.453-0.2099,0.5547-0.3946c-0.6309-0.1789-1.5479-0.1756-2.0404,0.0181c-0.566,0.0655-0.9611,0.4998-1.0775,0.7202
		c-0.1164,0.2202-0.3426,1.0172,0,1.7347c0.3749,0.7853,2.1427,4.5335,2.6938,5.7119c0.1169,0.2499,0.1878,0.515,0.1878,0.802
		c0,0.7218-0.6612,0.9738-1.0367,0.9738c-0.449,0-0.9061-0.342-0.9061-0.7692c0-0.2707,0.1469-0.4337,0.3592-0.4337
		c0.5075,0,0.4767,0.4317,0.3755,0.7037c0.3159-0.142,0.4995-0.3955,0.449-0.6628c0.1788-0.0245,0.349-0.1093,0.5061-0.2864
		c-0.1236-0.1561-0.2743-0.274-0.5061-0.2782c0.1012-0.4147-0.1764-0.5901-0.449-0.6874c0.0862,0.3044,0.1428,0.6547-0.3755,0.6547
		c-0.3779,0-0.6755,0.0655-0.849,0.311c-0.0102-0.3273-0.0408-1.6203-0.0408-1.6203c-0.0218-0.4859,0.6503-0.472,1.0775-0.3273
		c-0.1612-0.5597-0.4919-0.8623-1.2571-0.7856c0.1857-0.0777,0.3837-0.2525,0.3837-0.5892
		c-0.0001-0.4556-0.3697-0.9603-0.6124-1.1095L8.3786,38.8236L8.3786,38.8236z"/>
</g>
</svg>
