<?xml version="1.0" encoding="utf-8"?>
<!-- Generator: Adobe Illustrator 21.0.2, SVG Export Plug-In . SVG Version: 6.00 Build 0)  -->
<svg version="1.1" id="Layer_1" xmlns="http://www.w3.org/2000/svg" xmlns:xlink="http://www.w3.org/1999/xlink" x="0px" y="0px"
	 viewBox="0 0 335 335" style="enable-background:new 0 0 335 335;" xml:space="preserve">
<style type="text/css">
	.st0{fill:#F93F26;}
	.st1{fill:#FFFFFF;}
	.st2{fill:#009E3F;}
</style>
<g>
	<g>
		<g>
			<path class="st0" d="M167.5,0c-54.79,0-103.44,26.31-134,67.01h267.99C270.93,26.31,222.29,0,167.5,0z"/>
			<path class="st0" d="M167.5,335c54.79,0,103.44-26.32,134-66.99h-268C64.05,308.68,112.69,335,167.5,335z"/>
			<path class="st1" d="M301.49,67.01H33.5C12.47,94.98,0,129.78,0,167.5C0,205.21,12.47,240,33.5,268.01h268
				c21.03-28.01,33.49-62.8,33.49-100.51C334.99,129.78,322.53,94.98,301.49,67.01z"/>
		</g>
		<path class="st2" d="M256.26,219.59c-1.52-2.14-3.57-3.8-5.63-5.35c-4.83-3.62-10.14-6.58-15.47-9.43
			c-3.42-1.88-6.9-3.66-9.99-6.13c-0.93-0.87-2.11-1.88-1.89-3.32c0.43-1.14,1.48-1.82,2.45-2.41c1.53-0.88,3.08-1.74,4.82-2.13
			c4.49,0.96,7.92,4.52,12.47,5.44c2.62,0.6,5.18-0.46,7.71-0.86c-5.76-4.89-11.83-9.5-17.37-14.7c-1.06-1.02-1.85-2.28-2.99-3.24
			c-2.35-2.01-5.31-3.3-8.4-3.66c-2.14-0.31-4.38,0.07-6.43-0.83c-0.52-0.23-0.96-0.89-0.78-1.48c0.62-1.19,2.08-1.49,3.25-1.79
			c5.71-1.15,11.61-0.89,17.37-1.45c2.23-0.22,4.55-0.44,6.65-1.35c0-0.36,0-0.72-0.02-1.04c-1.1-1.15-2.64-1.62-4.07-2.18
			c-5.95-2.1-12.06-3.66-18.16-5.08c-1.79-0.54-3.81-0.92-5.06-2.43c-0.53-1.07,0.34-2.48,1.55-2.49c4.3-0.36,8.53,0.81,12.78,1.32
			c2.25,0.28,4.6,0.74,6.85,0.07c-0.1-1.14-1.12-1.88-1.97-2.49c-3.09-2.27-6.56-3.94-9.85-5.92c-4.44-2.75-8.84-5.72-12.82-9.18
			c-3.6-3.39-7.28-6.7-11.56-9.21c-1.73-0.99-3.75-1.65-5.15-3.15c-0.56-0.51-0.4-1.32-0.44-1.98c1.73-1.85,4.49-1.71,6.74-1.23
			c2.21,0.4,3.94,1.97,6.14,2.41c4.06,0.99,8.3,0.88,12.42,0.55c-2.96-0.83-5.76-2.17-8.33-3.81c-3.48-2.2-6.87-4.58-10.02-7.19
			c-0.59-0.56-1.37-1.1-1.58-1.94c1.9-0.4,3.84-0.43,5.74-0.23c2.16,0.09,4.3,0.19,6.45,0.36c-3.21-2.53-6.45-5.03-9.68-7.49
			c-4.09-3.09-8.46-6.09-13.54-7.21c-2.93-0.67-5.86-1.24-8.76-1.94c-1.96-0.44-3.57-1.72-5.1-3c-2.02-1.81-3.79-3.91-5.31-6.2
			c-1.73-2.51-2.79-5.32-4.01-8.05c-0.09,0-0.28,0-0.37,0.02c-1.61,2.57-2.95,5.33-4.99,7.57c-1.99,2.2-4.11,4.32-6.51,6
			c-2.45,1.8-4.8,3.72-6.94,5.83c-1.56,1.51-2.8,3.25-4.23,4.84c2.14-0.42,4.28-1.03,6.33-1.75c1.07-0.34,2.23-1.1,3.23-0.18
			c-0.44,1-1.05,1.92-1.88,2.63c-2.36,2.11-5.03,3.89-7.92,5.15c-2.13,0.94-4.1,2.16-6.02,3.5c-1.53,1.1-3.05,2.27-4.14,3.81
			c0,0.14,0,0.49,0,0.66c0.94,0.26,1.91,0.33,2.87,0.1c1.27-0.2,2.8-0.71,3.93,0.22c1.03,1.16,1.74,2.82,1.15,4.32
			c-1.6,0.87-3.5,0.4-5.13,1.08c-2.24,0.8-4.28,2.2-5.76,4.07c-1.01,1.22-1.03,2.96-2.2,4.08c-1.98,2.07-4.75,3.03-7.27,4.32
			c-3.89,2.02-7.68,4.29-11.19,6.95c-0.95,0.76-2.01,1.52-2.7,2.61c-0.33,0.48,0.09,1.05,0.21,1.56c1.05,0.47,2.2,0.73,3.36,0.67
			c2.88-0.11,5.69-0.82,8.41-1.69c0.95-0.26,1.88-0.71,2.89-0.76c1.08-0.07,1.71,1.06,2.18,1.9c0.84,1.74,1.87,3.49,1.81,5.49
			c-0.99,2.2-2.62,4.01-4.06,5.87c-1.8,2.2-3.99,4.33-6.8,5.12c-1.96,0.47-4.02,0.86-5.8,1.87c-2.82,1.59-5.11,3.97-7.42,6.23
			c-1.53,1.61-3.22,3.12-4.87,4.62c-1.26,1.03-2.53,2.2-4.16,2.63c0.06,0.25,0.09,0.48,0.13,0.71c1.83,1.44,4.07,2.74,6.46,2.7
			c4.09-0.84,7.41-3.58,10.82-5.84c0.89-0.46,1.99-1.28,3.02-0.71c1.76,1.1,2.95,2.97,3.41,4.99c0.32,1.35,0.23,2.94-0.88,3.94
			c-1.54,1.48-3.51,2.44-5.37,3.44c-5.35,2.62-10.25,6.09-14.69,10.06c-3.33,2.89-6.13,6.52-9.97,8.78c-1.96,1.24-4.23,0-6.33,0.33
			c0.95,1.66,2.39,3.18,4.28,3.73c2.2,0.86,4.58,0.21,6.78-0.28c5.9-1.58,11.59-3.73,17.02-6.55c2.4-1.16,4.33-3.08,6.82-4.04
			c2.29-0.96,4.96-1.12,7.27-0.04c1.14,0.56,2.53,1.46,2.29,2.92c-0.28,1.58-1.59,2.68-2.77,3.6c-3.72,2.73-8,4.51-12.28,6.15
			c-6.37,2.37-13.09,3.82-19.38,6.48c0,0.16,0,0.53,0,0.71c0.46,1.07,1.03,2.2,2.22,2.63c2.92,1.14,6.11,1.03,9.18,0.78
			c4.86-0.32,9.53-1.92,13.98-3.75c5.86-2.24,11.49-4.97,17.24-7.46c2.02-0.72,4.21-1.84,6.33-1.03c2.6,1.03,5.1,2.56,6.78,4.81
			c0.74,0.99,1.13,2.17,1.49,3.36c0.36,2.72-0.3,5.47-1.37,7.97c-2.08,4.8-5.27,9.02-8.62,13.03c-3.07,3.77-7.19,6.64-11.87,8.1
			c-1.88,0.69-3.97,0.86-5.68,1.96c-1.7,1.04-3.17,2.41-4.55,3.84c-1,1.09-2.13,2.31-2.19,3.92c0.74,0.04,1.49,0.04,2.24,0.04
			c1.03-1.03,1.77-2.24,2.91-3.13c2.24-1.85,5.04-2.96,7.92-3.44c2.21-0.23,4.52-0.14,6.7-0.71c4.99-1.21,9.56-3.95,13.29-7.48
			c2.45-2.1,5.49-4.03,8.85-3.77c1.96,0.09,3.41,1.71,5.34,1.78c2.21,0.23,4.07-1.31,6.25-1.28c0.7,0,1.5,0.07,1.96,0.65
			c0.94,1.01,0.46,2.53,1.15,3.66c0.73,1.31,1.95,2.24,3.24,2.98c2.75,1.71,5.2,3.9,7.57,6.11c0.87,0.83,1.9,1.53,3.14,1.59
			c0.23-2.94-2.82-4.83-2.73-7.76c3.15-0.26,6.32,0.02,9.46,0.4c2.44,0.35,5.1,0.57,7.16,2.04c3.22,2.42,5.15,6.24,8.69,8.21
			c1.36,0.19,3.03,0.44,4.18-0.54c0-0.3,0-0.56,0-0.83c-3.29-3.87-7.34-7-11.16-10.31c-3.17-2.76-6.42-5.64-8.5-9.32
			c-2.49-4.37-2.7-9.54-2.7-14.44c0.07-3.18-0.2-6.43,0.6-9.56c0.37-1.52,1.4-2.79,2.57-3.8c0.94-0.94,2.26-1.48,3.57-1.22
			c3.4,0.67,6.24,2.71,9.36,4.03c2.27,1.03,4.77,1.45,7.27,1.49c6.37,0.19,12.72-0.24,19.04,0c2.49,0.09,4.88,0.82,7.02,2.02
			c4.1,2.26,8.07,4.72,11.9,7.42c1.79,1.33,3.75,2.6,6.03,2.89c1.37,0.24,3.09-0.23,3.68-1.64
			C257.49,221.79,256.85,220.55,256.26,219.59z M130,175.83c-2.4,1.02-4.92,1.89-7.55,2.2c-0.89,0.08-1.99,0.23-2.7-0.45
			c-0.89-0.86-1.31-2.04-1.83-3.11c-0.57-1.31-1.35-2.59-1.38-4.03c2.88-0.85,5.87-1.08,8.86-1.28c2.59-0.07,5.18-0.29,7.74,0.37
			c0.8,0.21,1.61,0.48,2.24,1.04c0.48,0.31,0.28,0.92,0.37,1.4C134.25,173.83,132.12,174.89,130,175.83z M131.07,148.55
			c-1.43,0.34-2.42-0.92-3.2-1.9c-1.1-1.51-2.32-3-2.78-4.85c-0.23-0.77,0.33-1.62,1.11-1.85c1.27-0.5,2.67-0.66,4.03-0.55
			c1.26,0.21,2.26,1.13,2.96,2.16c1.1,1.64,1.99,3.45,3.05,5.13C134.5,147.32,132.86,148.18,131.07,148.55z M172.03,116.08
			c0.86-1.26,2.66-1.48,4.03-1c1.3,0.36,2.1,1.83,1.73,3.14c-0.39,0.67-1.23,0.72-1.92,0.84c-1.46,0.12-3.07,0.14-4.28-0.8
			C171.6,117.52,171.55,116.72,172.03,116.08z M169.58,134.55c0.56,0.96-0.37,2.04-1.16,2.53c-1.04,0.6-2.22,1.56-3.45,1.01
			c-1.69-0.54-3.36-1.13-5.04-1.71c2.33-0.92,4.56-2.2,7.05-2.66C167.87,133.58,169.06,133.66,169.58,134.55z M151.83,121.64
			c0.7-0.22,1.37,0.04,1.95,0.26c0.48,2.27-0.83,4.41-2.37,5.91c-1.53,1.43-3.47,2.39-5.42,3.07c-0.96,0.31-1.98,0.29-2.97,0.18
			c-0.02-0.71-0.14-1.51,0.28-2.17c0.89-1.65,2.29-3.05,3.71-4.33C148.44,123.38,150.02,122.2,151.83,121.64z M143.02,113.09
			c0.19-0.9,1.17-1.21,1.97-1.26c1.12-0.05,2.42,0,3.18,0.97c-0.28,1.34-1.44,2.25-2.38,3.14c-0.8,0.67-1.68,1.24-2.63,1.67
			C142.74,116.11,142.69,114.54,143.02,113.09z M144.9,196.32c-0.05,1.11-0.33,2.61-1.56,3.02c-0.74,0.09-1.43-0.53-1.86-1.05
			c-1.47-1.92-1.89-4.39-2.51-6.69c-0.3-1.02-0.41-2.11-0.35-3.12c1.65-0.49,3.7-0.31,4.83,1.08
			C145.06,191.41,145.03,193.99,144.9,196.32z M144.46,141.33c-1.1,1.31-2.24,2.62-3.64,3.58c-0.42,0.31-0.94,0.15-1.4,0.2
			c-0.99-1.72-2-3.54-2.15-5.56c0.09-0.53,0.19-1.12,0.68-1.45c1.37-0.95,3.14-0.76,4.71-0.8c1.17,0.05,2.57,0.05,3.39,1.04
			C145.9,139.49,145.18,140.47,144.46,141.33z M146.13,160.04c0.28-1.22,1.81-0.83,2.64-0.47c1.71,0.85,3.95,2.22,3.57,4.42
			c-1.64,0.87-3.34-0.26-4.53-1.39C147.11,161.9,146.22,161.11,146.13,160.04z M155.45,198.24c-1.38,0.27-2.33-1-2.9-2.08
			c-0.68-1.32-1.41-2.7-1.55-4.21c1.93-0.24,4.03,0.6,4.85,2.49C155.95,195.73,156,197.06,155.45,198.24z M158.05,123.07
			c-0.18-0.09-0.52-0.3-0.66-0.4c-0.65-1.23,0.02-2.53,0.99-3.33c1.36-1.26,3.04-2.04,4.67-2.82c1.24-0.57,2.64-1.17,4-0.84
			c1.22,0.64,1.08,2.27,0.99,3.43c-0.1,1.3-1.4,2.01-2.48,2.42C163.11,122.33,160.59,122.92,158.05,123.07z M159.76,162.3
			c-0.91-1.28-1.69-3.12-0.77-4.6c0.66-1.03,2.02-1.19,3.09-0.76c0.79,1.79,0.27,3.87-0.98,5.34
			C160.64,162.3,160.2,162.3,159.76,162.3z M164.01,199.3c-0.39-1.23-0.76-2.45-1.09-3.67l-0.13-0.22
			c-0.48-1.78-1.13-3.55-1.06-5.45c2.57-0.04,5.31,0.36,7.56,1.71C167.82,194.42,165.88,196.85,164.01,199.3z M172.91,168.66
			c-0.81,0.74-2.01,0.48-2.9,0.06c-1.45-0.66-2.86-1.71-3.38-3.33c-0.55-2.23,0.8-4.46,2.44-5.86c2.11,1.4,3.48,3.79,4.16,6.18
			C173.42,166.67,173.56,167.81,172.91,168.66z M179,168.94c-0.18,0.37-0.29,0.73-0.41,1.08c-0.66-0.14-1.42-0.14-1.84-0.74
			c-1.1-1.4-1.14-3.33-0.57-4.97c1.84-0.38,2.47,1.77,2.82,3.12C179,167.95,179,168.45,179,168.94z M179.01,136.96
			c-0.42,0.82-0.96,1.69-1.84,2.05c-1.36,0.66-2.94,0.53-4.4,0.37c0-0.69,0.03-1.38,0.42-1.96c0.84-1.4,1.76-2.8,3.03-3.81
			c0.66-0.55,1.8-0.82,2.35,0.02C179.32,134.58,179,135.88,179.01,136.96z M198.47,154.11c0.56-1.31,1.41-2.64,2.81-3.12
			c2.16-0.86,5.22,0.59,5.15,3.12c0.16,1.78-1.35,3.56-3.17,3.51c-1.68,0.14-3.2-0.8-4.32-1.94
			C198.57,155.27,198.17,154.66,198.47,154.11z M181.48,119.39c0.09-1.14,0.38-2.45,1.46-3.06c1.42-0.79,3.22-0.96,4.78-0.37
			c0,0.71-0.03,1.42-0.09,2.09c0.09-0.58,0.18-1.22,0.28-1.85c-0.05,1.41-0.25,2.86-1.05,4.02c-1.13,1.28-3.16,1.63-4.74,0.97
			C181.43,120.89,181.43,120.02,181.48,119.39z M193.63,143.9c-0.9,0.67-2.13,0.58-3.16,0.45c-1.97-0.36-3.98-0.93-5.9-1.67
			c-0.7-0.27-1.64-0.69-1.46-1.6c0.43-2.42,2.63-4.24,5.02-4.53c1.97-0.24,4.01,0.25,5.72,1.33c0.95,0.58,1.31,1.81,1.05,2.88
			C194.73,141.82,194.56,143.15,193.63,143.9z M207.49,183.95c-1.05,1.82-2.93,3.13-4.92,3.79c-2.97,0.98-6.48,0.19-8.53-2.18
			c-0.37-0.45-0.18-1.14,0.3-1.43c2.14-1.78,4.52-3.35,7.3-3.94c1.84-0.3,4.06-0.45,5.56,0.84
			C208.04,181.75,208.02,183.07,207.49,183.95z M219.05,192.86c-1.97-0.4-4.01-0.49-5.97-1.04c-0.88-0.33-2.13-0.93-1.96-2.07
			c0.47-1.25,1.5-2.17,2.44-3.03c1.55-1.31,3.19-2.52,5.04-3.17c0.48-0.22,1.05-0.19,1.52,0.05c1.63,0.65,3.08,1.74,4.18,3.14
			C223.14,189.19,221.11,191.17,219.05,192.86z"/>
	</g>
</g>
</svg>
