<?xml version="1.0" encoding="utf-8"?>
<!-- Generator: Adobe Illustrator 22.0.0, SVG Export Plug-In . SVG Version: 6.00 Build 0)  -->
<svg version="1.1" id="Layer_1" xmlns="http://www.w3.org/2000/svg" xmlns:xlink="http://www.w3.org/1999/xlink" x="0px" y="0px"
	 viewBox="0 0 60 60" style="enable-background:new 0 0 60 60;" xml:space="preserve">
<style type="text/css">
	.st0{clip-path:url(#SVGID_2_);fill:#002B7F;}
	.st1{clip-path:url(#SVGID_2_);fill:#CE1126;}
	.st2{clip-path:url(#SVGID_2_);fill:#FFD83D;}
	.st3{clip-path:url(#SVGID_2_);fill:#FFD83D;stroke:#000000;stroke-width:0.15;stroke-linecap:round;stroke-linejoin:round;}
	.st4{clip-path:url(#SVGID_2_);stroke:#000000;stroke-width:0.15;stroke-linecap:round;stroke-linejoin:round;}
	.st5{clip-path:url(#SVGID_2_);fill:#FFD83D;stroke:#000000;stroke-width:0.2;stroke-linecap:round;stroke-linejoin:round;}
	.st6{clip-path:url(#SVGID_2_);fill:none;stroke:#000000;stroke-width:0.15;stroke-linecap:round;stroke-linejoin:round;}
	.st7{clip-path:url(#SVGID_2_);}
</style>
<g>
	<defs>
		<circle id="SVGID_1_" cx="30" cy="30" r="30"/>
	</defs>
	<clipPath id="SVGID_2_">
		<use xlink:href="#SVGID_1_"  style="overflow:visible;"/>
	</clipPath>
	<rect x="-20" class="st0" width="100" height="60"/>
	<rect x="-20" y="30" class="st1" width="100" height="30"/>
	<path class="st2" d="M16.6377,13.2289l-0.1838,6.25H10.112c-0.7803-1.5168-1.4246-2.8051-1.4246-4.5496
		c0-1.46,1.1483-2.6195,2.8033-2.6195C13.2426,12.3097,15.1675,12.9001,16.6377,13.2289z"/>
	<path class="st3" d="M9.4456,13.5161v3.6075"/>
	<path class="st3" d="M9.955,13.1479v4.8034"/>
	<path class="st3" d="M10.4643,12.8952v5.7225"/>
	<path class="st3" d="M10.9736,12.7771v4.4881"/>
	<path class="st3" d="M11.483,12.7548v4.5327"/>
	<path class="st3" d="M11.9923,12.5965v4.6885"/>
	<path class="st3" d="M12.5017,12.5965v4.6885"/>
	<path class="st3" d="M13.011,12.6424v4.6885"/>
	<path class="st3" d="M13.5204,12.6884v4.6885"/>
	<path class="st3" d="M14.0297,12.9871v4.6885"/>
	<path class="st3" d="M14.5391,13.033v5.2859"/>
	<path class="st3" d="M15.0484,13.033v4.6885"/>
	<path class="st3" d="M15.5577,13.033v4.6885"/>
	<path class="st4" d="M12.6395,12.7923c1.0763,0.1775,3.4406,1.2837,3.171,2.7803c-0.3821,2.1209-1.6208,1.2698-3.2629,0.9651
		l-1.2408,0.4136c-0.444,0.4532-1.0978,0.8684-1.5395,0.3217H9.032v2.8722h8.1342v-6.9393L12.6395,12.7923z"/>
	<circle class="st5" cx="16.2815" cy="12.2983" r="0.494"/>
	<circle class="st5" cx="15.1713" cy="12.0311" r="0.494"/>
	<circle class="st5" cx="14.045" cy="11.7482" r="0.494"/>
	<circle class="st5" cx="12.9143" cy="11.5596" r="0.494"/>
	<circle class="st5" cx="11.7836" cy="11.4481" r="0.494"/>
	<circle class="st5" cx="10.6749" cy="11.5113" r="0.494"/>
	<circle class="st5" cx="9.6179" cy="11.8732" r="0.494"/>
	<circle class="st5" cx="8.7276" cy="12.528" r="0.494"/>
	<circle class="st5" cx="8.0957" cy="13.4414" r="0.494"/>
	<circle class="st5" cx="7.7912" cy="14.5156" r="0.494"/>
	<circle class="st5" cx="7.8027" cy="15.6301" r="0.494"/>
	<circle class="st5" cx="8.0152" cy="16.7215" r="0.494"/>
	<path class="st5" d="M16.4998,12.9531l-0.046,0.6434c-1.2291-0.1883-2.9715-0.8732-4.5956-0.8732
		c-1.5006,0-2.6654,0.6003-2.6654,2.114c0,1.4918,0.6318,2.8485,1.4706,4.2279l-0.8732,0.4136
		C9.01,17.962,8.3656,16.6737,8.3656,14.9292c0-1.46,1.1483-2.8952,3.125-2.8952C13.2426,12.034,15.0296,12.6244,16.4998,12.9531z"
		/>
	<path class="st2" d="M17.756,13.2289l0.1838,6.25h6.3419c0.7803-1.5168,1.4246-2.8051,1.4246-4.5496
		c0-1.46-1.1483-2.6195-2.8033-2.6195C21.1511,12.3097,19.2262,12.9001,17.756,13.2289z"/>
	<path class="st3" d="M24.9481,13.5161v3.6075"/>
	<path class="st3" d="M24.4388,13.1479v4.8034"/>
	<path class="st3" d="M23.9294,12.8952v5.7225"/>
	<path class="st3" d="M23.4201,12.7771v4.4881"/>
	<path class="st3" d="M22.9108,12.7548v4.5327"/>
	<path class="st3" d="M22.4014,12.5965v4.6885"/>
	<path class="st3" d="M21.8921,12.5965v4.6885"/>
	<path class="st3" d="M21.3827,12.6424v4.6885"/>
	<path class="st3" d="M20.8734,12.6884v4.6885"/>
	<path class="st3" d="M20.364,12.9871v4.6885"/>
	<path class="st3" d="M19.8547,13.033v5.2859"/>
	<path class="st3" d="M19.3453,13.033v4.6885"/>
	<path class="st3" d="M18.836,13.033v4.6885"/>
	<path class="st4" d="M21.7542,12.7923c-1.0763,0.1775-3.4406,1.2837-3.171,2.7803c0.3821,2.1209,1.6208,1.2698,3.2629,0.9651
		l1.2408,0.4136c0.444,0.4532,1.0978,0.8684,1.5395,0.3217h0.7353v2.8722h-8.1342v-6.9393L21.7542,12.7923z"/>
	<circle class="st5" cx="18.1122" cy="12.2983" r="0.494"/>
	<circle class="st5" cx="19.2225" cy="12.0311" r="0.494"/>
	<circle class="st5" cx="20.3488" cy="11.7482" r="0.494"/>
	<circle class="st5" cx="21.4795" cy="11.5596" r="0.494"/>
	<circle class="st5" cx="22.6101" cy="11.4481" r="0.494"/>
	<circle class="st5" cx="23.7188" cy="11.5113" r="0.494"/>
	<circle class="st5" cx="24.7758" cy="11.8732" r="0.494"/>
	<circle class="st5" cx="25.6662" cy="12.528" r="0.494"/>
	<circle class="st5" cx="26.2981" cy="13.4414" r="0.494"/>
	<circle class="st5" cx="26.6026" cy="14.5156" r="0.494"/>
	<circle class="st5" cx="26.5911" cy="15.6301" r="0.494"/>
	<circle class="st5" cx="26.3785" cy="16.7215" r="0.494"/>
	<path class="st5" d="M17.8939,12.9531l0.046,0.6434c1.2291-0.1883,2.9715-0.8732,4.5956-0.8732
		c1.5006,0,2.6654,0.6003,2.6654,2.114c0,1.4918-0.6318,2.8485-1.4706,4.2279l0.8732,0.4136
		c0.7803-1.5168,1.4246-2.8051,1.4246-4.5496c0-1.46-1.1483-2.8952-3.125-2.8952C21.1511,12.034,19.3641,12.6244,17.8939,12.9531z"
		/>
	<path class="st5" d="M17.1969,6.3125l-0.5156,0.9656l0.5156,0.9625l0.5156-0.9625L17.1969,6.3125z M17.1969,8.75l-0.5156,0.9625
		l0.5156,0.9656l0.5156-0.9656L17.1969,8.75z"/>
	<path class="st5" d="M15.3587,8.4953l0.8132,0.5156l0.8105-0.5156l-0.8105-0.5156L15.3587,8.4953z M17.4113,8.4953l0.8105,0.5156
		l0.8132-0.5156l-0.8132-0.5156L17.4113,8.4953z"/>
	<circle class="st5" cx="17.1969" cy="8.5069" r="0.3906"/>
	<circle class="st5" cx="17.1969" cy="11" r="1.0455"/>
	<path class="st6" d="M16.9344,9.9875c0,0.3114-0.0022,0.4924-0.0031,0.6625c-0.252,0.0112-0.5006,0.0377-0.7437,0.0781
		 M18.2062,10.7281c-0.2432-0.0405-0.4917-0.0669-0.7437-0.0781c0-0.1698,0-0.3503,0-0.6625 M16.1844,11.2563
		c0.3295-0.055,0.6674-0.0844,1.0125-0.0844s0.683,0.0293,1.0125,0.0844"/>
	<path class="st5" d="M16.175,12.7688c-0.0992,1.7082-0.3009,3.4479-0.9656,4.7125l1.0812-0.4375
		c0.3776-1.4329,0.457-3.2843,0.5719-4.1594L16.175,12.7688z M18.2188,12.7688l-0.6875,0.1156
		c0.1149,0.8751,0.1942,2.7265,0.5719,4.1594l1.0813,0.4375C18.5196,16.2167,18.3179,14.477,18.2188,12.7688z"/>
	<path class="st5" d="M17.1953,16.4688c-1.2913,0-2.2399,0.6087-2.2969,2.1594c-0.3157-0.5555-1.651-2.3026-2.8969-2.0687
		c-0.741,0.1391-1.3957,1.1666-1.2844,2.3438c-0.6135-1.763-2.4107-2.0519-3.7219-1.0094c1.1642,0.9573,1.6821,3.7835,2.6625,5.0094
		h7.5375h7.5375c0.9804-1.2259,1.5014-4.0521,2.6656-5.0094c-1.3112-1.0425-3.1084-0.7536-3.7219,1.0094
		c0.1113-1.1772-0.5465-2.2047-1.2875-2.3438c-1.2459-0.2338-2.5781,1.5133-2.8938,2.0687
		C19.4384,17.0774,18.4867,16.4688,17.1953,16.4688z"/>
	<path class="st4" d="M24.7107,22.9026c0,0.5581-3.3662,1.1719-7.5138,1.1719s-7.5138-0.6138-7.5138-1.1719
		c0-0.5581,3.3662-0.8502,7.5138-0.8502S24.7107,22.3445,24.7107,22.9026z"/>
	<circle class="st3" cx="17.1969" cy="12.4445" r="0.3504"/>
	<circle class="st3" cx="17.1969" cy="13.2027" r="0.3734"/>
	<circle class="st3" cx="17.1969" cy="14.0184" r="0.4079"/>
	<circle class="st3" cx="17.1969" cy="14.9261" r="0.4653"/>
	<circle class="st3" cx="17.1969" cy="15.9371" r="0.5113"/>
	<path class="st7" d="M16.9938,16.9206c-0.0553-0.0007-0.1076,0.0459-0.0938,0.1344c0.0163,0.1044,0.0367,0.2995,0.0562,0.4312
		c0.0221,0.1493,0.1091,0.113,0.1313-0.0031c0.0221-0.1161,0.0132-0.1906,0.0187-0.4063
		C17.109,16.969,17.049,16.9213,16.9938,16.9206z M17.4,16.9206c-0.0553,0.0007-0.1153,0.0484-0.1125,0.1563
		c0.0055,0.2157-0.0034,0.2901,0.0187,0.4063c0.0221,0.1161,0.1092,0.1524,0.1313,0.0031c0.0195-0.1317,0.04-0.3269,0.0562-0.4312
		C17.5076,16.9665,17.4553,16.9199,17.4,16.9206z M16.6313,16.9768c-0.0506,0.007-0.103,0.0581-0.1,0.1125
		c0.0055,0.0995,0.033,0.2189,0.0437,0.3687c0.011,0.1548,0.1202,0.0947,0.1313,0.0063c0.011-0.0885,0.0235-0.2192,0.0125-0.3906
		c-0.0041-0.0643-0.0322-0.0926-0.0656-0.0969C16.6462,16.9759,16.6385,16.9758,16.6313,16.9768z M17.7406,16.9768
		c-0.0334,0.0043-0.0615,0.0326-0.0656,0.0969c-0.011,0.1714,0.0015,0.3022,0.0125,0.3906
		c0.0111,0.0884,0.1202,0.1486,0.1313-0.0063c0.0107-0.1499,0.0382-0.2692,0.0437-0.3687c0.003-0.0544-0.0494-0.1055-0.1-0.1125
		C17.7553,16.9758,17.7476,16.9759,17.7406,16.9768z M16.1969,17.1518c-0.0463,0.012-0.0888,0.0677-0.075,0.1313
		c0.0276,0.1272,0.0531,0.2678,0.0531,0.3969c0,0.1106,0.0945,0.0711,0.1-0.0063c0.0055-0.0774,0.0156-0.2414,0.0156-0.3906
		C16.2906,17.1716,16.2432,17.1399,16.1969,17.1518z M18.1656,17.1518c-0.0329,0.0091-0.0625,0.0477-0.0625,0.1313
		c0,0.1493,0.0101,0.3132,0.0156,0.3906c0.0055,0.0774,0.1,0.1169,0.1,0.0063c0-0.1291,0.0255-0.2697,0.0531-0.3969
		c0.0138-0.0636-0.0287-0.1193-0.075-0.1313C18.1853,17.1488,18.1766,17.1488,18.1656,17.1518z M12.2563,17.1689
		c-0.0554-0.0018-0.0943,0.0733-0.0562,0.1563c0.0608,0.1327,0.1254,0.2165,0.1875,0.3594
		c0.0553,0.1272,0.1401,0.0479,0.1125-0.0406c-0.0277-0.0885-0.0577-0.187-0.1406-0.375
		C12.3283,17.1984,12.2895,17.17,12.2563,17.1689z M22.1375,17.1689c-0.0332,0.0011-0.072,0.0295-0.1031,0.1
		c-0.0829,0.188-0.113,0.2865-0.1406,0.375c-0.0276,0.0885,0.0572,0.1678,0.1125,0.0406c0.0621-0.1429,0.1267-0.2266,0.1875-0.3594
		C22.2318,17.2423,22.1929,17.1671,22.1375,17.1689z M12.6563,17.1752c-0.0408,0.0124-0.0655,0.0642-0.0406,0.125
		c0.0498,0.1216,0.1217,0.2464,0.1719,0.3781c0.0442,0.1161,0.1426,0.0832,0.1094-0.0219c-0.0332-0.1051-0.043-0.1666-0.1094-0.3656
		C12.7543,17.1913,12.697,17.1627,12.6563,17.1752z M21.7062,17.1752c-0.0349,0.0074-0.0751,0.041-0.1,0.1156
		c-0.0663,0.1991-0.0762,0.2606-0.1094,0.3656c-0.0332,0.1051,0.0652,0.138,0.1094,0.0219
		c0.0502-0.1318,0.1221-0.2565,0.1719-0.3781c0.0249-0.0608,0.0002-0.1126-0.0406-0.125
		C21.7273,17.1721,21.7179,17.1727,21.7062,17.1752z M13.1563,17.2721c-0.0514,0.0098-0.0912,0.0882-0.0563,0.1844
		c0.0443,0.1216,0.1072,0.2368,0.1625,0.375c0.0553,0.1382,0.1471,0.1103,0.125,0.0219c-0.0221-0.0885-0.0492-0.2351-0.1156-0.4562
		C13.2429,17.3003,13.1962,17.2645,13.1563,17.2721z M21.2375,17.2721c-0.04-0.0076-0.0866,0.0282-0.1156,0.125
		c-0.0664,0.2212-0.0935,0.3678-0.1156,0.4562c-0.0221,0.0885,0.0697,0.1164,0.125-0.0219c0.0553-0.1382,0.1182-0.2534,0.1625-0.375
		C21.3287,17.3603,21.2889,17.2818,21.2375,17.2721z M11.9188,17.3408c-0.0557,0.0057-0.1064,0.0965-0.0719,0.1656
		c0.0553,0.1106,0.0904,0.1482,0.1438,0.2656c0.0553,0.1216,0.1159,0.0274,0.0938-0.05c-0.0221-0.0774-0.0505-0.1676-0.0781-0.2781
		C11.986,17.3629,11.9522,17.3374,11.9188,17.3408z M22.475,17.3408c-0.0334-0.0034-0.0672,0.0221-0.0875,0.1031
		c-0.0276,0.1106-0.056,0.2007-0.0781,0.2781c-0.0221,0.0774,0.0384,0.1716,0.0938,0.05c0.0534-0.1174,0.0884-0.155,0.1437-0.2656
		C22.5814,17.4373,22.5307,17.3465,22.475,17.3408z M15.7719,17.6206c-0.0584-0.0001-0.1207,0.0774-0.1,0.15
		c0.0332,0.1161,0.0845,0.2191,0.1219,0.3688c0.0332,0.1327,0.1274,0.0666,0.1219-0.0219s-0.0207-0.2088-0.0594-0.3969
		C15.8417,17.6501,15.8069,17.6206,15.7719,17.6206z M18.6219,17.6206c-0.035,0-0.0699,0.0295-0.0844,0.1
		c-0.0387,0.188-0.0538,0.3084-0.0594,0.3969s0.0887,0.1546,0.1219,0.0219c0.0374-0.1497,0.0887-0.2526,0.1219-0.3688
		C18.7426,17.698,18.6803,17.6205,18.6219,17.6206z M17.1969,17.7393c-0.0719,0-0.0819,0.0966-0.0844,0.175
		c-0.0083,0.2571-0.115,0.5069-0.2062,0.6313c-0.0912,0.1244-0.2256,0.0913-0.35,0.025s-0.1986-0.1161-0.3312-0.2156
		c-0.1327-0.0995-0.2334-0.0413-0.075,0.1844c0.4617,0.658,0.9625,1.2205,0.9625,2.2937c0,0.1388,0.0242,0.1813,0.0844,0.1813
		s0.0875-0.0425,0.0875-0.1813c0-1.0733,0.4976-1.6357,0.9594-2.2937c0.1584-0.2257,0.0577-0.2839-0.075-0.1844
		c-0.1327,0.0996-0.2068,0.1493-0.3312,0.2156c-0.1244,0.0663-0.2588,0.0994-0.35-0.025c-0.0913-0.1244-0.198-0.3741-0.2062-0.6313
		C17.2787,17.8359,17.2688,17.7393,17.1969,17.7393z M13.6688,17.5783c-0.0063-0.0002-0.0132,0.0014-0.0188,0.0031
		c-0.0269,0.0085-0.0448,0.0409-0.0344,0.0969c0.0185,0.1002,0.088,0.2966,0.1156,0.3906c0.0277,0.094,0.1433,0.074,0.1156-0.0531
		c-0.0277-0.1272-0.0262-0.1656-0.0594-0.3094C13.7694,17.6278,13.7128,17.5795,13.6688,17.5783z M20.725,17.5783
		c-0.0441,0.0012-0.1006,0.0495-0.1187,0.1281c-0.0332,0.1438-0.0317,0.1822-0.0594,0.3094
		c-0.0276,0.1271,0.088,0.1471,0.1156,0.0531c0.0276-0.094,0.0971-0.2904,0.1156-0.3906c0.0104-0.056-0.0075-0.0884-0.0344-0.0969
		C20.7382,17.5797,20.7313,17.5781,20.725,17.5783z M11.5719,17.6189c-0.0579,0.0045-0.0994,0.0772-0.0406,0.1844
		c0.0634,0.1157,0.1721,0.2608,0.2219,0.3438s0.1358,0.027,0.075-0.0781c-0.0608-0.1051-0.0812-0.2257-0.1531-0.375
		C11.648,17.6379,11.6066,17.6162,11.5719,17.6189z M22.8219,17.6189c-0.0347-0.0027-0.0762,0.019-0.1031,0.075
		c-0.0719,0.1493-0.0923,0.2699-0.1531,0.375c-0.0608,0.1051,0.0252,0.1611,0.075,0.0781s0.1585-0.2281,0.2219-0.3438
		C22.9213,17.6962,22.8798,17.6235,22.8219,17.6189z M8.4031,17.9518c-0.0668-0.0035-0.0877,0.117-0.025,0.1969
		c0.0913,0.1161,0.1548,0.1777,0.2594,0.2719c0.083,0.0746,0.1071-0.0222,0.0656-0.0969c-0.0415-0.0746-0.1014-0.1506-0.1844-0.275
		C8.4733,17.9805,8.4335,17.9535,8.4031,17.9518z M25.9906,17.9518c-0.0304,0.0016-0.0702,0.0287-0.1156,0.0969
		c-0.0829,0.1244-0.1429,0.2004-0.1844,0.275c-0.0415,0.0746-0.0173,0.1715,0.0656,0.0969
		c0.1046-0.0942,0.1681-0.1558,0.2594-0.2719C26.0783,18.0689,26.0574,17.9483,25.9906,17.9518z M8.9063,18.0518
		c-0.0532,0.0007-0.0883,0.04-0.0469,0.1313c0.0594,0.1306,0.1377,0.2786,0.1875,0.3781c0.0498,0.0995,0.2014,0.1329,0.1406-0.0219
		c-0.0608-0.1548-0.0728-0.2344-0.1281-0.3781C9.0317,18.0893,8.9595,18.0511,8.9063,18.0518z M25.4875,18.0518
		c-0.0532-0.0007-0.1255,0.0375-0.1531,0.1094c-0.0553,0.1438-0.0673,0.2233-0.1281,0.3781
		c-0.0608,0.1548,0.0909,0.1214,0.1406,0.0219c0.0498-0.0996,0.1281-0.2475,0.1875-0.3781
		C25.5758,18.0918,25.5407,18.0525,25.4875,18.0518z M7.9313,18.0862c-0.0774,0.0008-0.084,0.0784-0.0156,0.1281
		c0.0913,0.0663,0.2,0.14,0.3062,0.225c0.1244,0.0995,0.1726,0.008,0.1063-0.075c-0.0663-0.0829-0.131-0.167-0.2969-0.25
		C7.9898,18.0936,7.957,18.0859,7.9313,18.0862z M26.4625,18.0862c-0.0258-0.0003-0.0585,0.0074-0.1,0.0281
		c-0.1659,0.083-0.2305,0.1671-0.2969,0.25c-0.0663,0.083-0.0181,0.1745,0.1063,0.075c0.1062-0.085,0.215-0.1587,0.3062-0.225
		C26.5465,18.1646,26.5399,18.087,26.4625,18.0862z M15.4969,18.1581c-0.0433,0.0061-0.0806,0.0552-0.0625,0.1187
		c0.0332,0.1161,0.0708,0.2391,0.0938,0.3594c0.0221,0.1161,0.1565,0.1176,0.1344,0.0125
		c-0.0221-0.1051-0.0332-0.2365-0.0719-0.3969c-0.0145-0.0601-0.0448-0.089-0.075-0.0938
		C15.5093,18.1571,15.5031,18.1572,15.4969,18.1581z M18.8781,18.1581c-0.0302,0.0047-0.0605,0.0336-0.075,0.0938
		c-0.0387,0.1604-0.0498,0.2918-0.0719,0.3969c-0.0221,0.1051,0.1122,0.1036,0.1344-0.0125
		c0.0229-0.1202,0.0606-0.2433,0.0938-0.3594c0.0181-0.0635-0.0192-0.1127-0.0625-0.1187
		C18.8907,18.1572,18.8844,18.1571,18.8781,18.1581z M12.4875,17.9596c-0.034,0.0094-0.0536,0.0744-0.0281,0.1656
		c0.141,0.506,0.1843,0.7724,0.1594,0.8969c-0.0249,0.1244-0.0932,0.1415-0.1844,0.1c-0.0912-0.0415-0.1983-0.1013-0.2813-0.1594
		c-0.0829-0.0581-0.1692,0.0114-0.05,0.1094c0.6055,0.4977,1.0252,1.0664,1.1875,1.7563c0.0332,0.141,0.1218,0.1576,0.0969,0
		c-0.1372-0.869-0.1636-1.5833,0.0437-2.0313c0.0779-0.1683-0.0006-0.33-0.125-0.0562c-0.0829,0.1825-0.2171,0.2545-0.325,0.0969
		c-0.1078-0.1576-0.3305-0.578-0.3969-0.7687c-0.0249-0.0715-0.0556-0.1046-0.0813-0.1094
		C12.4978,17.9586,12.4924,17.9582,12.4875,17.9596z M21.8906,17.9596c-0.0257,0.0047-0.0564,0.0378-0.0812,0.1094
		c-0.0663,0.1908-0.2891,0.6112-0.3969,0.7687c-0.1078,0.1576-0.2421,0.0856-0.325-0.0969
		c-0.1244-0.2737-0.2029-0.1121-0.125,0.0562c0.2074,0.4479,0.181,1.1623,0.0438,2.0313c-0.0249,0.1576,0.0637,0.141,0.0969,0
		c0.1623-0.6898,0.582-1.2586,1.1875-1.7563c0.1192-0.098,0.0329-0.1675-0.05-0.1094c-0.0829,0.0581-0.19,0.1179-0.2813,0.1594
		s-0.1595,0.0244-0.1844-0.1c-0.0249-0.1244,0.0184-0.3909,0.1594-0.8969c0.0254-0.0912,0.0059-0.1562-0.0281-0.1656
		C21.9014,17.9582,21.896,17.9586,21.8906,17.9596z M9.4438,18.2018c-0.0546,0.0007-0.0999,0.0389-0.075,0.1219
		c0.0399,0.1329,0.1224,0.2764,0.15,0.3594c0.0277,0.0829,0.1166,0.0442,0.1-0.0719s-0.0247-0.1853-0.0469-0.3125
		C9.5608,18.2351,9.4984,18.2011,9.4438,18.2018z M24.95,18.2018c-0.0546-0.0007-0.1171,0.0333-0.1281,0.0969
		c-0.0221,0.1272-0.0303,0.1964-0.0469,0.3125s0.0723,0.1548,0.1,0.0719c0.0276-0.0829,0.1101-0.2265,0.15-0.3594
		C25.0499,18.2408,25.0046,18.2025,24.95,18.2018z M11.3219,18.0283c-0.0635-0.0114-0.0726,0.1524-0.0188,0.2188
		c0.0719,0.0885,0.1717,0.1955,0.2719,0.3156c0.0829,0.0996,0.1342,0.0111,0.0844-0.0719c-0.0498-0.083-0.1236-0.1711-0.2562-0.3813
		C11.3699,18.057,11.343,18.0321,11.3219,18.0283z M23.0719,18.0283c-0.0212,0.0038-0.0481,0.0287-0.0812,0.0813
		c-0.1327,0.2101-0.2065,0.2983-0.2563,0.3813c-0.0498,0.0829,0.0014,0.1714,0.0844,0.0719c0.1001-0.1201,0.2-0.2271,0.2719-0.3156
		C23.1445,18.1807,23.1354,18.0169,23.0719,18.0283z M9.8719,18.4237c-0.0394-0.0028-0.0728,0.0292-0.0563,0.1094
		c0.0231,0.1116,0.0567,0.2043,0.0844,0.3094C9.9276,18.9475,10,18.9295,10,18.83c0-0.0995-0.0178-0.2106-0.0344-0.3156
		C9.9573,18.4618,9.9113,18.4265,9.8719,18.4237z M24.5219,18.4237c-0.0394,0.0028-0.0855,0.0381-0.0938,0.0906
		c-0.0166,0.1051-0.0344,0.2161-0.0344,0.3156c0,0.0996,0.0724,0.1176,0.1,0.0125c0.0277-0.1051,0.0612-0.1977,0.0844-0.3094
		C24.5947,18.4529,24.5613,18.4209,24.5219,18.4237z M11.1813,18.5658c-0.0619,0.0093-0.1163,0.0692-0.0437,0.1625
		c0.1161,0.1493,0.2432,0.2541,0.2875,0.3094c0.0442,0.0553,0.1563,0.0349,0.0844-0.0813c-0.0735-0.1186-0.1846-0.2615-0.2344-0.35
		C11.2563,18.5733,11.2184,18.5602,11.1813,18.5658z M23.1875,18.5658c-0.0272,0.0029-0.0548,0.0157-0.0688,0.0406
		c-0.0498,0.0885-0.1609,0.2314-0.2344,0.35c-0.0719,0.1161,0.0402,0.1366,0.0844,0.0813c0.0443-0.0553,0.1714-0.1601,0.2875-0.3094
		c0.0726-0.0933,0.0181-0.1532-0.0438-0.1625C23.2032,18.5644,23.1966,18.5649,23.1875,18.5658z M9.1156,18.9831
		c-0.0488-0.0044-0.0657,0.035,0,0.125c0.1493,0.2046,0.314,0.5142,0.325,0.6469c0.0111,0.1327-0.0545,0.1313-0.1156,0.1313
		c-0.1825,0-0.2716-0.1332-0.4375-0.1719c-0.1659-0.0387-0.19,0.0485-0.0719,0.1344c0.6082,0.4424,1.2179,0.9359,1.4625,1.3844
		c0.0995,0.1825,0.2341,0.2492,0.1594,0.075c-0.2287-0.5337-0.2841-0.9857-0.2344-1.2594c0.0498-0.2737,0.1177-0.458,0.1094-0.6156
		c-0.0083-0.1576-0.0977-0.1468-0.1344,0c-0.0249,0.0996-0.0731,0.2315-0.1062,0.2813c-0.0332,0.0498-0.1666,0.0777-0.2937-0.0938
		c-0.1272-0.1714-0.4481-0.5014-0.5531-0.5844C9.1856,19.0051,9.1449,18.9857,9.1156,18.9831z M25.2781,18.9831
		c-0.0293,0.0027-0.07,0.022-0.1094,0.0531c-0.1051,0.0829-0.4259,0.413-0.5531,0.5844c-0.1272,0.1714-0.2606,0.1435-0.2938,0.0938
		c-0.0332-0.0498-0.0814-0.1817-0.1062-0.2813c-0.0367-0.1468-0.1261-0.1576-0.1344,0c-0.0083,0.1576,0.0596,0.3419,0.1094,0.6156
		c0.0498,0.2737-0.0057,0.7257-0.2344,1.2594c-0.0747,0.1742,0.0599,0.1075,0.1594-0.075c0.2446-0.4485,0.8543-0.942,1.4625-1.3844
		c0.1181-0.0858,0.094-0.1731-0.0719-0.1344c-0.1659,0.0387-0.255,0.1719-0.4375,0.1719c-0.0611,0-0.1267,0.0015-0.1156-0.1313
		c0.011-0.1327,0.1757-0.4423,0.325-0.6469C25.3438,19.018,25.327,18.9787,25.2781,18.9831z"/>
	<path class="st3" d="M10.0127,22.2651l0.195,0.6174 M10.4137,22.1481l0.1728,0.624 M10.847,22.0768l0.1187,0.6365 M11.249,21.9964
		l0.127,0.6349 M11.7646,21.9455l0.1033,0.6392 M12.313,21.9462l0.1112,0.6378 M12.8484,21.7651l0.0804,0.6425 M13.3521,21.7976
		l0.0804,0.6425 M13.8395,21.7327l0.0804,0.6425 M14.3288,21.6822l0.0442,0.646 M14.8516,21.682l0.0384,0.6463 M15.3257,21.6493
		l0.0327,0.6466 M15.8484,21.6167l0.0271,0.6469 M16.4495,21.6005l0.0271,0.6469 M24.3811,22.2651l-0.195,0.6174 M23.98,22.1481
		l-0.1728,0.624 M23.5468,22.0768l-0.1187,0.6365 M23.1448,21.9964l-0.127,0.6349 M22.6292,21.9455l-0.1033,0.6392 M22.0807,21.9462
		l-0.1112,0.6378 M21.5454,21.7651l-0.0804,0.6425 M21.0417,21.7976l-0.0804,0.6425 M20.5542,21.7327l-0.0804,0.6425
		 M20.065,21.6822l-0.0442,0.646 M19.5421,21.682l-0.0383,0.6463 M19.0681,21.6493l-0.0327,0.6466 M18.5454,21.6167l-0.0271,0.6469
		 M17.9442,21.6005l-0.0271,0.6469 M17.1969,21.5584v0.7123"/>
</g>
</svg>
