<?xml version="1.0" encoding="utf-8"?>
<!-- Generator: Adobe Illustrator 21.0.2, SVG Export Plug-In . SVG Version: 6.00 Build 0)  -->
<svg version="1.1" id="Layer_1" xmlns="http://www.w3.org/2000/svg" xmlns:xlink="http://www.w3.org/1999/xlink" x="0px" y="0px"
	 viewBox="0 0 335 335" style="enable-background:new 0 0 335 335;" xml:space="preserve">
<style type="text/css">
	.st0{fill:#FFCE00;}
	.st1{fill:#9C1E3D;}
	.st2{fill:#007229;}
	.st3{fill:#FF7300;}
	.st4{fill:#FECE00;}
</style>
<g>
	<g>
		<g>
			<path class="st0" d="M127.67,18.98h117.11C221.65,6.91,195.4,0,167.5,0c-27.91,0-54.16,6.91-77.29,18.98h16.23v297.04H90.21
				C113.34,328.09,139.59,335,167.5,335c27.9,0,54.15-6.91,77.28-18.98H127.67V18.98z"/>
			<path class="st1" d="M335.01,167.51c0-64.62-36.64-120.58-90.23-148.54H127.67v297.04h117.11
				C298.36,288.08,335.01,232.1,335.01,167.51z"/>
			<path class="st2" d="M32.19,265.95V69.04C12.02,96.71,0,130.65,0,167.51C0,204.34,12.02,238.28,32.19,265.95z"/>
			<path class="st3" d="M106.44,18.98H90.21C67.19,30.99,47.37,48.2,32.19,69.04v196.9c15.18,20.85,35,38.07,58.01,50.07h16.23
				V18.98z"/>
		</g>
		<g>
			<path class="st4" d="M168.03,108.53c0.81-1.82,1.69-3.74,3.36-5c-0.1,0.43-0.16,0.85-0.26,1.28c-1.14,5.72-1.41,11.58-1.69,17.4
				c-0.28,1.68-0.07,3.4-0.23,5.1c-0.26,2.53,0.04,5.16-0.29,7.67c-0.14,8.3-0.14,16.59-0.08,24.85c0.08,1.83-0.13,3.69,0.17,5.49
				c0.07,1.56,0.09,3.14,0.12,4.74c-3.27,1.53-7.03,1.27-10.48,0.4c0.08-0.3,0.17-0.65,0.24-0.93c0.01-1.41,0.27-2.8,0.31-4.18
				c0.28-2.05,0.24-4.15,0.54-6.18c0.13-1.67,0.21-3.38,0.47-5.06c0.03-1.32,0.23-2.63,0.31-3.96c0.22-1.51,0.29-3.08,0.46-4.6
				c0.52-3.74,0.82-7.54,1.42-11.24c0.07-0.99,0.23-1.92,0.33-2.85c0.25-1.1,0.32-2.19,0.54-3.28c0.13-0.88,0.27-1.77,0.45-2.63
				c0.13-0.73,0.27-1.49,0.37-2.2c0.18-0.82,0.3-1.65,0.5-2.47c0.23-1.24,0.54-2.48,0.8-3.73c0.37-1.47,0.73-2.92,1.18-4.38
				c0.24-0.83,0.49-1.65,0.76-2.47c0.12-0.29,0.26-0.57,0.37-0.85C167.81,109.17,167.89,108.85,168.03,108.53L168.03,108.53z"/>
			<path class="st4" d="M182.7,139.81c3.81,1.18,7.79,1.38,11.79,1.62c2.04,0.06,4.08,0.17,6.12,0.08c1.06-0.34,2.23-0.95,3.35-0.44
				c1.53,0.75,2.86,1.91,3.78,3.33c0.46,0.91,0.79,1.92,1.09,2.9c0.03,0.22,0.05,0.7,0.08,0.94c-1.07-0.46-2.1-0.94-3.25-1.11
				c-2.54-0.45-5.13-0.11-7.57,0.57c0.06-1.02,0.08-2.03,0-3.03c-0.13-0.1-0.4-0.26-0.52-0.35c-3.12,0.78-6.45,1.38-9.62,0.52
				C185.51,144.2,183.4,142.26,182.7,139.81L182.7,139.81z"/>
			<path class="st4" d="M150.59,167.19c1-1.55,2.96-2.22,4.75-2.01c0.69,0,1.32,0.39,1.89,0.79c-0.03,0.44-0.03,0.91-0.06,1.37
				c-0.28,0.34-0.61,0.67-0.86,1.09c-0.23,0.45,0.29,0.77,0.53,1.11c1.74,1.71,4.23,2.33,6.6,2.42c2.66,0.02,5.43-0.48,7.7-1.95
				c-0.44-0.93-0.66-1.89-0.55-2.84c1.53-1.86,4.55-0.37,5.05,1.65c0.07,0.53,0.05,1.09,0.02,1.62c-1.2,2.32-3.76,3.25-6.15,3.73
				c-4.33,0.84-8.83,0.68-13.06-0.52c-1.96-0.61-4.08-1.5-5.34-3.23C150.38,169.52,150.51,168.24,150.59,167.19L150.59,167.19z"/>
			<path class="st4" d="M173.8,175.4c1.77-0.2,3.64-0.13,5.22,0.79c2.27,1.32,3.46,3.79,4.52,6.08c0.59,1.41,1.14,2.79,1.74,4.21
				c0.28,0.64,0.55,1.28,0.88,1.95c0.81,1.62,1.67,3.2,2.95,4.52c2.25,2.25,4.39,4.71,5.91,7.57c0.64,1.24,0.59,2.65,0.45,3.97
				c-0.09,0.19-0.19,0.38-0.3,0.55c-0.88,1.45-2.51,2.4-4.21,2.28c-2.88-0.16-5.25-2.02-7.23-3.94c-1.45-1.51-2.78-3.17-3.94-4.93
				c-0.22-0.37-0.61-0.61-0.94-0.87c-0.07,0.64-0.1,1.25-0.22,1.88c-0.13,0.37-0.27,0.76-0.4,1.14c-0.63,0.64-1.59,0.64-2.4,0.37
				c-1.34-0.41-2.57-1.09-3.67-1.92c0.01-0.1,0.01-0.26,0.01-0.33c0.61-0.78,1.2-1.58,1.86-2.33c0.37-0.5,0.79-0.99,0.94-1.56
				c0-0.62-0.21-1.17-0.37-1.71c-0.14-0.47-0.26-0.92-0.43-1.38c-0.61-1.58-1.46-3.1-2.56-4.42c0.53-0.4,1.28-0.76,1.41-1.49
				c-0.2-0.79-0.8-1.38-1.32-2c0.37-0.27,0.78-0.53,1.17-0.82c-0.03-0.46,0.02-0.93-0.07-1.4c-0.17-0.49-0.55-0.79-0.91-1.14
				c0.4-0.2,0.79-0.48,1.21-0.76c0.08-0.99-0.2-1.92-0.57-2.82c0.12,0,0.34-0.02,0.46-0.06C173.27,176.4,173.56,175.94,173.8,175.4
				L173.8,175.4z"/>
			<path class="st4" d="M154.33,176.33c1.17-0.52,2.44-0.41,3.67-0.25c1.87,0.33,3.76,0.71,5.68,0.64c1.83-0.08,3.64-0.5,5.51-0.66
				c0.6-0.08,1.17,0.19,1.69,0.55c-0.03,0.33-0.03,0.73-0.03,1.1c-1.33,0.97-2.97,1.17-4.52,1.37c-2.61,0.32-5.28,0.32-7.9-0.02
				c-1.47-0.25-3.08-0.52-4.14-1.68C154.33,177,154.33,176.66,154.33,176.33L154.33,176.33z"/>
			<path class="st4" d="M154.69,180.89c0.56-0.27,1.11-0.52,1.71-0.47c1.92,0.12,3.79,0.73,5.72,0.69c2.15,0.04,4.24-0.72,6.41-0.61
				c0.74,0,1.28,0.54,1.71,1.12c-0.55,0.51-1.17,0.98-1.88,1.21c-2.81,0.86-5.74,0.78-8.6,0.56c-1.73-0.18-3.65-0.27-5.01-1.47
				C154.72,181.55,154.72,181.23,154.69,180.89L154.69,180.89z"/>
			<path class="st4" d="M160.58,185.07c2.69,0.32,5.27-0.46,7.93-0.71c0.7-0.1,1.35,0.13,2.01,0.37c-0.1,0.04-0.27,0.06-0.4,0.06
				c0.04,0.16,0.07,0.49,0.07,0.64c-1.41,1.19-3.21,1.6-4.95,1.92c-2.4,0.46-4.89,0.33-7.28-0.28c-0.85-0.2-1.73-0.55-2.22-1.32
				l-0.13-0.11c0.1-0.26,0.22-0.55,0.31-0.83C157.48,184.48,159.04,184.99,160.58,185.07L160.58,185.07z"/>
			<path class="st4" d="M168.25,188.01c0.76-0.17,1.56-0.19,2.36-0.15c0,0.31,0,0.58,0,0.83c-0.61,0.53-1.3,1.03-2.07,1.29
				c-2.84,1.03-5.85,1.29-8.84,1.12c-1.36-0.12-2.8-0.17-3.94-0.91c-0.43-0.22-0.34-0.75-0.38-1.11c2.15-0.52,4.34-0.17,6.52-0.28
				C164.05,188.88,166.13,188.43,168.25,188.01L168.25,188.01z"/>
			<path class="st4" d="M262.77,189.85c3.2-1.32,6.76-2.33,10.28-1.64c1.94,0.36,3.67,1.5,4.71,3.16c0.44,0.73,0.75,1.56,1.04,2.36
				c0.06,0.29,0.14,0.58,0.22,0.91c0.04,0.62,0.04,1.29-0.11,1.92c-0.11,0.73-0.24,1.48-0.35,2.19c-0.64,2.75-1.47,5.37-2.42,7.98
				c-0.06,0.22-0.14,0.44-0.2,0.67c-0.22,0.54-0.38,1.14-0.48,1.74c1.19-0.29,2.17-1.08,3.29-1.56c1.71-0.76,3.64-0.87,5.48-0.55
				c-1.26,3.36-4.39,5.47-7.4,7.15c0,0.58,0,1.16-0.12,1.74c-0.09,0.83-0.22,1.63-0.42,2.41c-0.25,1.04-0.55,2.07-0.87,3.08
				c-0.15,0.49-0.29,0.97-0.46,1.48c-0.8,2.5-1.73,4.98-2.57,7.44c-4.55,0.01-9.11,0.01-13.6,0c0.61-1.47,1.66-2.79,1.92-4.4
				c-1.38,1.29-2.27,3.02-3.56,4.41c-1.61-0.01-3.23,0-4.83-0.01c1.45-1.71,2.84-3.46,4.24-5.23c-0.15-0.02-0.42-0.02-0.53-0.07
				c-1.91,2.08-4.07,4.01-6.65,5.14c-0.7,0.34-1.48,0.44-2.27,0.52c0.03-0.52,0.04-1.04,0.09-1.56c0.54-1.83,1.21-3.79,2.75-5.06
				c1.66-1.44,4.04-1.6,6.14-1.19c1.61,0.26,3.1,0.96,4.63,1.41c0.08-0.22,0.18-0.61,0.25-0.85c0.2-0.82,0.43-1.62,0.66-2.43
				c0.06-0.21,0.13-0.47,0.18-0.67c0.25-0.88,0.47-1.76,0.64-2.66c0.08-0.49,0.16-1.01,0.27-1.52c0.2-1.86,0.12-3.73-0.47-5.5
				c-0.61-1.37-1.74-2.35-2.66-3.49c-1.88-1.96-3.79-3.97-5-6.42c-0.12-0.27-0.25-0.55-0.37-0.83c-0.35-1.52-0.59-3.4,0.55-4.65
				C256.91,192.84,259.78,191.15,262.77,189.85L262.77,189.85z"/>
			<path class="st4" d="M154,192.62c0.52-0.35,1.09-0.82,1.74-0.72c0.82,0.05,1.65,0.19,2.43,0.52c0.76,0.33,1.08,1.17,1.49,1.86
				c0.16,0.2,0.31,0.38,0.49,0.61c0.1,0,0.25,0.02,0.32,0.02c1.18-1,2.47-2.15,4.06-2.36c1.41-0.13,2.45,1.02,3.19,2.04
				c0.8-0.61,1.44-1.49,2.36-1.95c0.73-0.4,1.57-0.49,2.39-0.54c0.13,0.07,0.36,0.22,0.48,0.27c0.14,0.31,0.31,0.6,0.46,0.91
				c0.22,0.85,0.47,1.82,0.06,2.65c-0.58,0.98-1.72,1.41-2.81,1.65c-1.56,0.28-3.15,0.22-4.72,0c1.23,0.91,1.74,2.56,1.61,4.06
				c0.04,1.17-0.6,2.18-0.87,3.28c0.24,1.82,2.31,2.24,3.78,2.65c-0.25-0.82-0.46-1.61-0.68-2.4c-0.02-0.52-0.02-1.05-0.05-1.55
				c0.31-0.58,0.68-1.3,1.45-1.26c2.03,0,3.68,1.71,4.49,3.44c0,0.49,0.02,0.93,0.02,1.41c-0.72,1.38-2.27,1.97-3.68,2.2
				c-2.16,0.4-4.33,0.27-6.5,0.18c0.03,0.59,0.03,1.14,0.05,1.71c1.34,0.23,2.72,0.73,3.46,1.95c0.12,0.28,0.23,0.53,0.32,0.79
				c-0.91,1.22-2.57,0.97-3.84,0.61c0.11,0.96,0.11,1.91,0.06,2.89c-0.37,0.34-0.68,1.06-1.29,0.91c-0.81-0.5-1.21-1.41-1.56-2.27
				c-0.04-0.29-0.07-0.6-0.07-0.89c-0.19,0.09-0.53,0.27-0.73,0.32c-1.11,0.22-2.07-0.52-3-1.04c0.7-1.71,2.74-1.93,3.73-3.31
				c0.14-0.58,0.25-1.18,0.31-1.81c-2.38,0.27-4.83,0.38-7.15-0.17c-1.04-0.29-2.25-0.84-2.64-1.95c-0.27-0.57-0.13-1.19,0-1.71
				c0.01-0.14,0.06-0.38,0.11-0.5c0.37-0.73,0.69-1.56,1.28-2.18c1.05-0.57,2.42-0.82,3.5-0.22c0.94,0.64,0.73,1.92,0.72,2.9
				c-0.04,0.69-0.4,1.26-0.72,1.83c-0.16,0.08-0.4,0.19-0.54,0.24c2.12,0.52,4.33-1.28,4.33-3.42c-0.15-0.64-0.51-1.2-0.83-1.74
				c-0.19-0.91-0.11-1.84,0.16-2.73c0.46-0.72,0.99-1.41,1.51-2.06c-2.44,0.4-5.1,0.7-7.35-0.53c-0.88-0.45-1.47-1.27-1.89-2.13
				c0-0.49,0-1.02,0-1.52C153.63,193.24,153.81,192.92,154,192.62L154,192.62z"/>
			<path class="st4" d="M205.19,129.23c-0.35-0.46-0.76-0.67-1.08-0.67c-0.04,0-0.09,0-0.15,0.03c-0.22,0.05-0.44,0.23-0.61,0.58
				c-0.17,0.35-0.27,0.83-0.27,1.38c0,0.4,0.05,0.83,0.17,1.27c0.17,0.76,0.5,1.42,0.85,1.88c0.41,0.43,0.79,0.67,1.09,0.67
				c0.05,0,0.12,0,0.17-0.02c0.24-0.05,0.43-0.23,0.61-0.58c0.17-0.35,0.27-0.82,0.27-1.36c0-0.41-0.06-0.84-0.18-1.27
				C205.92,130.34,205.58,129.69,205.19,129.23z M305.02,205.72c-1.59-1.04-2.38-2.88-2.82-4.63c-0.1-1.58-0.1-3.14-0.01-4.69
				c0.17-1.51,0.49-2.99,0.94-4.44c0.11-0.34,0.29-0.73,0.43-1.11c0.16-0.36,0.3-0.73,0.45-1.1c0.76-1.77,1.53-3.51,2.3-5.21
				c1.05-2.42,2.13-4.85,2.99-7.36c0.55-1.47,1-3.02,1.35-4.61c0.43-2.13,0.76-4.37,0.43-6.55c-0.28-2.15-1.24-4.21-2.9-5.63
				c-1.13-1.17-2.67-1.74-4.12-2.45c1.49-1.56,2.69-3.38,3.48-5.36c1.17-2.81,2.03-5.97,1.32-9.04c-0.02-0.11-0.07-0.33-0.12-0.44
				c-0.4-1.27-1.03-2.43-1.94-3.44c-2.32-2.71-5.74-4.18-9.14-5.18c-5.63-1.57-11.57-1.86-17.35-1.57
				c-0.76,0.01-1.49,0.14-2.19,0.39c-2.69,0.9-5.49,1.81-8.42,1.86c-1.65,0.07-3.18-0.72-4.56-1.55c-2.04-1.34-3.79-3.17-5.54-4.88
				c-0.19,0-0.33-0.02-0.46-0.02c-0.08,0.88-0.26,1.7-0.34,2.54c-0.19,0.9-0.28,1.8-0.45,2.69c-0.96-0.62-1.73-1.55-2.26-2.56
				l-0.07-0.07c-0.13-0.4-0.28-0.81-0.48-1.21c-0.04-0.66-0.02-1.32,0-1.98c0.37-0.87,0.86-1.68,1.41-2.45
				c0.13-0.04,0.43-0.13,0.55-0.19c-1.77-0.7-3.87-1.36-5.75-0.55c-1.52,0.77-2.67,2.1-3.81,3.37c0.05-0.49,0.12-1,0.2-1.48
				c0.52-1.1,0.86-2.27,1.45-3.34c0.74-1.41,1.61-2.95,3.18-3.52c1.47-0.2,2.95,0.41,4.21,1.09c1.53,0.87,2.98,1.84,4.27,3.01
				c0.12,0.03,0.29,0.05,0.4,0.08c0-2.38-0.05-4.76,0.02-7.14c1.71,2.08,3.11,4.3,4.71,6.46c0.22,0.25,0.45,0.46,0.73,0.68
				c0.28-1.97,0.76-3.92,0.79-5.9c0.14-0.05,0.34-0.07,0.48-0.1c0.52,0.72,1,1.5,1.41,2.28c0.05,0.67,0.05,1.35,0,2.01
				c-0.46,1.07-1.04,2.08-1.74,2.99c1.62,0,3.37,0.08,4.76-0.82c1.2-1.06,1.38-2.73,1.72-4.19c0.81,0.23,1.22,1.03,1.77,1.63
				c1.29,1.58,2.75,3.17,4.68,4.05c1.74,0.83,3.62,1.21,5.52,1.5c-0.5-1.52-1.51-2.84-1.95-4.34c0.04,0.05,0.19,0.22,0.25,0.29
				c4.26,2.12,8.36,4.83,13.1,5.81c1.96,0.4,4.18,0.4,5.78-0.91c0.96-0.85,1.68-2.08,1.56-3.39c0.04-2.24-2.73-3.97-4.71-2.8
				c-1.02,0.44-1.54,1.53-1.9,2.57c-0.04,0.88-0.07,1.75-0.07,2.66c-1.23-0.59-2.29-1.41-3.47-2.09
				c-7.48-4.56-15.37-8.55-23.77-11.13c-4.25-1.28-8.75-2.29-13.22-1.78c-3.5,0.7-6.94,1.78-9.99,3.58
				c-2.42,1.44-4.56,3.52-5.76,6.09c-0.9,2.34-1.17,4.88-0.78,7.3c0.12,0.82,0.3,1.64,0.49,2.42c-1.37,1.03-2.41,2.54-2.69,4.29
				l-0.11,0.22c-0.04,1.06-0.13,2.11,0.11,3.16c0.21,0.87,0.49,1.68,0.85,2.47c0.2,0.32,0.42,0.64,0.6,0.98
				c0.07-0.03,0.22-0.03,0.31-0.04c0.23-0.87,0.55-1.68,0.89-2.49c0.76-1.69,1.83-3.39,3.5-4.34c0.6-0.34,1.31-0.69,1.99-0.34
				c1.26,0.68,2.33,1.66,3.5,2.44c1.18,0.79,2.48,1.27,3.82,1.66c2.76,0.79,5.56,1.26,8.37,1.73c1.44,0.15,2.86,0.06,4.3,0.09
				c3.75-0.09,7.52-0.2,11.19-1.03c2.93-0.86,5.71-2.05,8.66-2.76c1.65-0.41,3.41-0.81,5.04-0.15c3.18,1,5.87,3.63,6.89,6.84
				c0.13,0.67,0.27,1.33,0.27,2.01c0.01,1.97,0,3.92,0,5.91c-2.13-0.05-4.28-0.21-6.29-0.87c-1.32-0.41-2.62-1.05-3.96-1.54
				c-1.99-0.81-4.25-0.96-6.4-0.81c-7.42,0.16-14.6,2.3-21.81,3.68c-1.67,0.32-3.39,0.48-5.04,0.91
				c-5.27,1.32-10.75,1.19-16.01,2.31c-1.68,0.37-3.36,0.72-5.07,0.61c0.1-0.03,0.34-0.16,0.45-0.22c0.43-0.7,0.87-1.37,1.34-2.04
				c-0.57-1.04-0.87-2.18-1.22-3.31c-0.31,0.37-0.74,0.69-1.31,0.69c-0.16,0-0.34,0-0.52-0.07c-0.57-0.19-1.16-1-1.82-2.12
				c-0.63-1.13-1.27-2.57-1.87-3.99c-0.83-1.98-1.53-3.93-1.88-4.91l-0.9,7.97l-5.49-7.86c0.37,1.54,1.11,4.89,1.11,6.26
				c0,0.18-0.01,0.34-0.04,0.46c-0.03,0.1-0.1,0.24-0.26,0.28c0,0-0.04,0-0.05,0c-0.28,0-0.73-0.2-1.26-0.48
				c-0.55-0.29-1.17-0.66-1.79-1.04c-0.87-0.54-1.68-1.07-2.06-1.32c-0.02,0.88-0.05,3.54-0.22,5.25c-0.07,0.68-0.12,1.2-0.25,1.47
				c-0.05,0.04-0.09,0.15-0.22,0.15l0,0c-0.05,0-0.09,0-0.12-0.03c-0.18-0.1-0.53-0.48-0.97-1.02c-0.44-0.52-0.99-1.21-1.53-1.89
				c-1.09-1.33-2.1-2.66-2.1-2.66l0.28-0.21c0,0,2.27,2.96,3.58,4.55c0.35,0.41,0.69,0.75,0.81,0.86c0-0.03,0.05-0.04,0.05-0.11
				c0.04-0.19,0.1-0.45,0.13-0.76c0.06-0.66,0.12-1.53,0.17-2.41c0.06-1.76,0.08-3.51,0.08-3.51v-0.31l0.26,0.17
				c0,0,2.49,1.69,4.06,2.52c0.52,0.26,0.94,0.43,1.09,0.43c0.02-0.01,0.02-0.01,0.02-0.01c0.01-0.09,0.04-0.22,0.04-0.38
				c0.01-0.85-0.34-2.62-0.67-4.18c-0.31-1.53-0.66-2.86-0.66-2.86l0.29-0.13l5.49,7.85l0.9-7.8l0.31-0.04c0,0,0.52,1.53,1.29,3.49
				c0.76,1.99,1.74,4.39,2.69,6.05c0.62,1.1,1.24,1.88,1.62,1.96c0.14,0.04,0.28,0.05,0.41,0.05c0.49,0,0.85-0.3,1.11-0.71
				c-0.03,0.02-0.1,0.02-0.16,0.05l1.53-13.78c-0.52-0.14-1.33-0.7-2.08-1.32c-0.88-0.71-1.9-1.69-2.9-2.66
				c-1.53-1.48-2.91-2.95-3.52-3.58l0.31,8.25l-2.95-2.68c0.06,0.43,0.15,1.06,0.15,1.68c0,0.37-0.04,0.74-0.13,1.03
				c-0.08,0.29-0.25,0.53-0.58,0.54c0,0,0,0-0.03,0c-0.31,0-0.76-0.24-1.29-0.57c-0.56-0.37-1.18-0.82-1.78-1.28
				c-0.79-0.61-1.53-1.21-1.92-1.55c0.08,0.58,0.18,1.59,0.18,2.48c0,0.49-0.02,0.96-0.12,1.32c-0.1,0.36-0.25,0.67-0.6,0.75
				c-0.03,0.01-0.08,0.01-0.13,0.01c-0.37-0.01-0.87-0.25-1.47-0.61c-0.59-0.35-1.26-0.84-1.88-1.31c-0.58-0.45-1.16-0.89-1.58-1.26
				c0.29,0.52,0.69,1.14,1.07,1.83c0.77,1.47,1.59,3.04,1.59,3.86c0,0.14-0.04,0.28-0.13,0.4c-0.09,0.1-0.22,0.17-0.36,0.17l0,0
				c-0.02,0-0.02,0-0.03,0c-0.49-0.02-1.13-0.41-1.96-0.95c-0.79-0.57-1.72-1.29-2.59-2.06c-1.73-1.48-3.27-2.95-3.29-2.95l0,0
				l0.25-0.23c0,0,0.87,0.82,2.03,1.86c1.15,1.03,2.61,2.27,3.82,3.12c0.76,0.54,1.47,0.89,1.76,0.89h0.02c0.06,0,0.08,0,0.09-0.04
				c0.05-0.02,0.05-0.09,0.05-0.2c0.02-0.63-0.77-2.27-1.55-3.69c-0.79-1.44-1.58-2.67-1.58-2.67l0.25-0.22c0,0,0.61,0.54,1.44,1.18
				c0.81,0.67,1.87,1.48,2.74,2c0.58,0.35,1.1,0.55,1.31,0.55c0.04,0,0.05,0,0.07-0.01c0.13-0.02,0.25-0.18,0.35-0.49
				c0.07-0.34,0.1-0.78,0.1-1.25c0-1.32-0.25-2.86-0.25-2.86l-0.07-0.45l0.34,0.28c0,0,0.61,0.52,1.4,1.16
				c0.79,0.64,1.8,1.41,2.6,1.9c0.52,0.34,0.98,0.56,1.13,0.56c0,0,0,0,0.03,0c0.1-0.01,0.19-0.09,0.25-0.32
				c0.09-0.24,0.12-0.57,0.12-0.93c0-0.97-0.19-2.1-0.19-2.1l-0.09-0.46l3.06,2.77l-0.34-8.34l0.31,0.34c0,0,1.03,1.1,2.39,2.48
				c1.35,1.38,3.02,2.99,4.3,4.08c0.79,0.67,1.56,1,1.92,1.15l0.5-4.46c-0.43-2.06-1.35-3.98-2.66-5.63c0-0.07,0-0.16,0-0.22
				c1.57-0.73,3.19-1.62,4-3.18c0.57-1.1,0.84-2.31,1.11-3.5c0.09-0.29,0.15-0.55,0.21-0.82c-3.23,1.31-6.73,3.18-10.3,2.11
				c-0.08-0.92-0.39-1.82-1-2.53c-1.32-1.59-3.03-2.78-4.59-4.11c-0.08-0.03-0.28-0.03-0.37-0.05c0.02,1.24,0,2.45-0.04,3.7
				c-0.38,1.21-0.93,2.93-2.57,2.78c-0.76-1.15-1.59-2.33-2.63-3.26c-1.4-1.3-3.32-2.01-5.24-1.92c0.08,0.26,0.19,0.55,0.31,0.79
				c0.09,1.2,0.08,2.39,0,3.56c-0.69,1.61-2.08,3.08-3.92,3.02c-0.63-1.22-1.32-2.51-2.37-3.43c-1.14-0.99-2.74-1.3-4.17-0.89
				c-1.5,0.35-2.7,1.38-4.04,2.01c2.33,0.36,5,1.34,6.07,3.67c-2.35,0.2-4.61,0.77-6.84,1.32c-2.98,0.78-5.96,1.58-8.87,2.52
				c-0.54,0.13-1.03,0.22-1.53,0.22c0.16-0.09,0.36-0.16,0.54-0.22c0.61-0.83,1.18-1.74,1.18-2.81c-0.47-0.49-1.02-0.91-1.67-1.04
				c-1.8-0.36-4-0.22-5.18,1.34c-0.1,1.11-0.16,2.27,0.31,3.26c0.68,1.32,1.54,2.52,2.6,3.58c1,0.97,2,2.02,3.32,2.53
				c1.19-0.55,2.07-1.52,3.29-1.9c0.81,1.58,1.66,3.26,3.07,4.42c1.27,1.06,2.94,1.55,4.51,1.91c0-1.36-0.04-2.68,0.01-4.03
				c1.44,1.36,2.76,2.84,4.21,4.15c1.18,1.03,2.22,2.23,3.26,3.35c0.55,0.66,0.95,1.46,1.32,2.25c0.11,0.3,0.19,0.63,0.33,0.94
				c0.07,0.29,0.18,0.61,0.23,0.93c0.04,0.28,0.12,0.58,0.17,0.88c0.08,0.4,0.16,0.84,0.22,1.24c-2.05-0.72-4.11-1.62-6.32-1.74
				c-1.92-0.1-3.78,0.4-5.62,0.69c0-1.11,0.01-2.21,0.04-3.32c-1.26,0.13-2.48,0.62-3.73,0.7c-1.46,0.15-2.9,0.19-4.32,0.07
				c-2.16-0.31-4.24-0.97-6.38-1.43c0.71,1.47,1.14,3.05,1.57,4.63c0.28,1.53,0.74,3.37-0.36,4.67c-0.85,0.93-1.77,1.78-2.66,2.66
				c1.2,0.64,2.64,0.46,3.82-0.15c2.11-1.06,3.88-2.73,5.43-4.49c-0.28,2.51-0.59,5.08-1.32,7.53c0.1,0.01,0.32,0.01,0.43,0.01
				c1.32-0.78,2.05-2.21,2.55-3.64c0.14-0.58,0.28-1.18,0.39-1.8c0.12-0.67,0.13-1.41,0.17-2.09c0.69-0.08,1.38-0.08,2.05,0
				c-0.06,0.34-0.16,0.69-0.23,1.05c-0.08,0.31-0.16,0.62-0.26,0.92c0,0.49,0,0.97,0.02,1.47c0.16,0.44,0.3,0.94,0.44,1.41
				c0.54,0.96,1.34,1.84,2.39,2.25c-0.02-1.06-0.02-2.15,0.02-3.2c0.25-0.85,0.43-1.68,0.88-2.42c0.49-0.83,1.35-1.28,2.21-1.56
				c-0.02,0.23-0.05,0.69-0.09,0.95c-0.22,0.7-0.37,1.44-0.54,2.15c-0.13,0.64-0.25,1.3-0.35,1.92c-0.08,0.1-0.19,0.3-0.26,0.39
				c0.6,0,1.26,0.03,1.79-0.34c1.27-0.73,1.96-2.06,2.63-3.31c0.08-0.07,0.31-0.24,0.4-0.31c0.82,0.31,2,0.78,1.93,1.86
				c0,1.62-0.14,3.25,0,4.87c-2.55,0.95-5.03,2.16-7.3,3.68c-1.86,1.23-3.66,2.66-5.51,3.9c-3.01,2.15-5.5,5.05-6.9,8.51
				c-1.37,3.41-1.53,7.24-0.41,10.75c0.03,0.12,0.08,0.35,0.1,0.45c0.1,0.28,0.2,0.56,0.34,0.85c0.09,0.29,0.21,0.61,0.31,0.92
				c0.67,1.3,1.27,2.64,2.28,3.7c1.56,1.59,3.13,3.2,4.4,5.09c2.6,2.21,5.51,3.94,8.27,5.93c0-1.3-0.02-2.62-0.08-3.94
				c-0.25-1.84-0.07-3.7-0.37-5.48c-0.02-2.12-0.29-4.18-0.28-6.23c-0.24-1.05-0.16-2.14-0.08-3.18c0.08,1.84,0.69,3.6,0.96,5.44
				c0.06,1.39,0.28,2.79,0.25,4.15c0.03,1.1-0.05,2.18,0.05,3.26c0.14,0.85,0.37,1.65,0.58,2.46c0.31,1.38,0.71,2.69,1,4.03
				c0.23,0.85,0.48,1.72,0.71,2.59c0.35,1.44,0.61,2.93,0.94,4.42c0.31,2.3,0.49,4.71,0,7.05c-0.55,1.7-1.44,3.55-3.14,4.39
				c-1.9,0.74-3.99,0.01-5.94,0.4c-1.19,0.28-2.55,0.18-3.58,0.98c-1.09,0.82-1.55,2.18-1.99,3.43c-0.09,0.46-0.18,0.93-0.31,1.36
				c-0.16,0.61-0.31,1.21-0.43,1.82c-0.07,0.06-0.29,0.13-0.43,0.18c1.28,0.22,2.67,0.24,3.84-0.39c1.77-0.95,2.99-2.59,4.54-3.8
				c-0.21,1.05-0.88,1.88-1.55,2.67c-0.1,0.18-0.22,0.42-0.34,0.62c-0.12,0.32-0.25,0.63-0.38,0.98c1.23,0.1,2.51,0.01,3.63-0.51
				c2.14-0.89,3.52-2.79,5.27-4.23c0,0.14,0.02,0.39,0.02,0.52c-0.05,0-0.1,0.04-0.16,0.04c-0.72,1.49-1.65,2.78-2.6,4.14
				c5.59,0.06,11.15,0,16.75,0.02c1.1,0.12,2.02-0.85,2.45-1.79c0.4-1.79-0.48-3.5-1.11-5.16c-0.16-0.52-0.37-1.04-0.57-1.56
				c-0.04-0.53-0.06-1.06-0.1-1.58c1.29-1.77,3.53-2.1,5.27-3.21c1.22-0.72,2.18-1.84,2.81-3.11c0.26-0.63,0.43-1.35,0.46-2.04
				c-1.09,0.14-2.19,0.25-3.26,0.48c-2.83,0.5-5.46,1.65-8.08,2.77c0.22-0.56,0.52-1.12,0.74-1.68c0.47-1.06,0.92-2.18,1.32-3.28
				c0.16-0.52,0.32-1.03,0.43-1.53c0.26-1.01,0.37-2.09,1.05-2.97c2.05-2.75,4.42-5.27,6.38-8.1c2.26-3.05,4.08-6.38,5.66-9.81
				c0.01-0.15,0.08-0.42,0.08-0.57l0.28,0.02c-0.01-0.12-0.08-0.32-0.11-0.43l0.28-0.03c0-0.16-0.02-0.49-0.05-0.67l0.22,0.06
				c0.14-0.63,0.3-1.29,0.43-1.91c0.01,0.47,0.05,0.98,0.05,1.44l-0.23-0.05c-0.02,0.13-0.02,0.43-0.05,0.55
				c-0.08,0.35-0.14,0.67-0.21,1.04h-0.13c-0.22,0.87-0.55,1.69-0.88,2.51c-0.27,0.64-0.55,1.32-0.89,1.98
				c-0.11,0.22-0.21,0.46-0.31,0.71c-1.01,1.93-2.15,3.85-3.42,5.65c-1.94,2.83-4.31,5.31-6.63,7.83c0,0.43,0,0.87,0,1.31
				c-0.11,0.08-0.28,0.19-0.39,0.28c1.3,0.01,2.48-0.35,3.73-0.61c9.71-2.13,18.86-6.28,27.43-11.32c2.16-1.38,4.56-2.37,6.63-3.94
				c2.21-1.43,4.6-2.6,7.15-3.4c3.04-0.92,6.45-1.5,9.5-0.25c1.67,0.58,2.96,1.9,3.83,3.4c1.75,1.52,3.26,3.23,5.04,4.62
				c1.2,0.91,2.17,2.07,3.34,3.03c1.62,1.49,3.49,2.98,3.99,5.22c0.11,0.43,0.2,0.89,0.33,1.32c0.06,1.92,0.04,3.84-0.04,5.74
				c0.08,1.83,0.04,3.67,0.21,5.51c-0.11,1.32-0.11,2.65-0.39,3.97c-0.11,0.22-0.2,0.48-0.27,0.69c-1.13,1.09-2.79,0.52-4.02-0.05
				c-1.99-0.95-4.31-1.66-6.5-0.98c-2.44,0.76-3.95,3.06-4.74,5.38c-0.25,0.82-0.44,1.62-0.61,2.44c-0.1,0.69-0.12,1.39-0.16,2.09
				c0.92,0.02,1.86-0.02,2.67-0.4c0.97-0.44,1.59-1.32,2.51-1.81c-0.26,0.68-0.55,1.32-0.79,2.01c-0.11,0.02-0.29,0.1-0.38,0.12
				c1.77,0.36,3.71,0.36,5.34-0.53c1.1-0.55,1.86-1.54,2.77-2.38c-0.16,1.1-0.66,2.12-1.41,2.97c0.86,0.23,1.74,0.37,2.62,0.46
				c2.01,0.14,4.03,0.4,6.02,0.43c0.05-0.95,0.09-1.96,0.13-2.93c1.15,0.34,2.21,0.87,3.37,1.17c2.4,0.65,4.98,0.93,7.32-0.07
				c0.8-0.37,0.83-1.32,1.1-2.04c-0.05-0.32-0.12-0.7-0.16-1.03c-0.1-0.69-0.2-1.36-0.41-2c-0.11-0.48-0.25-0.91-0.37-1.38
				c-0.29-1.2-0.53-2.47-0.55-3.71c0.24-1.32,0.85-2.55,1.78-3.51c-1.59-0.7-2.85-2.1-3.27-3.79c1.85-0.03,3.69-0.12,5.44-0.76
				c2.03-0.68,3.59-2.33,4.54-4.24C310.24,207.27,307.31,207.33,305.02,205.72z M206.59,134.04c-0.22,0.44-0.59,0.81-1.06,0.94
				c-0.1,0.03-0.21,0.03-0.32,0.03c-0.6,0-1.14-0.36-1.58-0.9c-0.46-0.55-0.8-1.29-1.03-2.15c-0.13-0.49-0.16-0.97-0.16-1.41
				c0-0.62,0.1-1.21,0.31-1.65c0.22-0.47,0.58-0.83,1.05-0.96c0.12-0.03,0.22-0.03,0.31-0.03c0.61,0,1.14,0.39,1.61,0.91
				c0.44,0.55,0.82,1.29,1.01,2.13c0.12,0.49,0.18,0.99,0.18,1.44C206.91,133.01,206.81,133.59,206.59,134.04z M204.94,126.36
				l0.24-0.22c0,0,0.36,0.41,0.99,1.02c0.64,0.63,1.5,1.47,2.56,2.3c2.15,1.67,4.89,3.31,7.43,3.31c0.01,0,0.05,0,0.05,0
				c-0.66-0.77-2.48-2.93-2.5-4.68c0-0.1,0.02-0.2,0.02-0.28l0.05-0.26l0.22,0.13c0,0,1.39,0.9,3.22,1.8c1.85,0.89,4.19,1.8,6,1.8
				c0.48,0,0.91-0.05,1.27-0.18c-0.28-0.26-0.85-0.76-1.44-1.3c-0.83-0.83-1.68-1.78-1.72-2.54c0-0.07,0-0.1,0.02-0.13l0.02-0.16
				l0.16,0.03c0,0,0.76,0.1,1.86,0.22c1.1,0.13,2.52,0.24,3.94,0.24c1.94,0.02,3.82-0.24,4.57-0.93l0.22,0.25
				c-0.92,0.82-2.81,1.02-4.79,1.02c-2.45,0-4.97-0.37-5.65-0.45c0.06,0.54,0.82,1.47,1.6,2.21c0.82,0.79,1.63,1.44,1.63,1.44
				l0.2,0.18l-0.23,0.11c-0.49,0.24-1.05,0.33-1.67,0.33c-3.34-0.01-8.04-2.83-9.16-3.5c0,0.94,0.64,2.13,1.3,3.05
				c0.67,0.95,1.32,1.64,1.32,1.64l0.23,0.25l-0.34,0.04c-0.13,0-0.27,0-0.42,0C210.8,133.08,204.94,126.36,204.94,126.36z
				 M215.19,162.15c-1.09-0.31-2.28-2.07-3.24-3.74c-0.61-1.07-1.11-2.07-1.43-2.69l-0.2,3.69l0,0l0,0l0,0l-0.33-0.02l0.25-4.34
				l0.31-0.07c0,0,0.7,1.59,1.68,3.26c0.85,1.49,1.95,3.05,2.8,3.49c-0.14-1.1-0.61-5.26-0.61-7.42c0-0.55,0.01-0.94,0.11-1.18
				l0.31,0.1c-0.06,0.16-0.1,0.56-0.1,1.08c0,1.24,0.16,3.15,0.31,4.75c0.18,1.61,0.34,2.91,0.34,2.91l0.04,0.23L215.19,162.15z
				 M234.8,161.96l-0.07,0.02h-0.05c-1.43-0.24-3.14-2.39-4.64-4.47c-0.55-0.78-1.06-1.59-1.47-2.26c0.99,3.33,1.23,7.82,1.23,7.82
				l0.02,0.24l-0.22-0.07c-3.45-0.85-6.52-6.07-7.46-7.86c0.06,3.43,2.09,5.99,3.08,7.07c0.34,0.37,0.6,0.56,0.6,0.56l0.2,0.2
				l-0.27,0.09c-0.19,0.04-0.37,0.09-0.55,0.09c-0.85,0-1.79-0.61-2.73-1.49c-0.95-0.91-1.9-2.08-2.76-3.24
				c-1.71-2.34-3.03-4.68-3.03-4.68l0.29-0.15c0,0,0.73,1.29,1.81,2.93c1.09,1.64,2.53,3.59,3.9,4.89c0.92,0.85,1.83,1.41,2.52,1.41
				c0.06,0,0.1,0,0.17,0c-0.81-0.82-3.58-3.73-3.58-7.88c0-0.13,0.01-0.29,0.01-0.44l0.04-0.63l0.28,0.55c0,0,0.24,0.45,0.66,1.18
				c0.39,0.7,0.99,1.65,1.69,2.62c1.32,1.86,3.14,3.83,4.98,4.39c-0.03-0.55-0.13-1.92-0.37-3.57c-0.28-2.01-0.79-4.4-1.58-5.85
				c-0.04-0.07-0.07-0.12-0.07-0.12l0.29-0.16l0,0l0,0c0,0,0,0.04,0.03,0.04c0,0,0,0,0.01,0.01c0.18,0.34,1.22,2.18,2.54,4.09
				c1.41,2.07,3.19,4.15,4.36,4.33c0.04-0.01,0.08-0.04,0.13-0.1c0.12-0.09,0.25-0.24,0.42-0.45c0.31-0.45,0.62-1.15,0.62-2.25
				c0-0.18-0.02-0.36-0.04-0.54l0.34-0.05c0.01,0.2,0.02,0.4,0.02,0.58C236.17,161.16,234.83,161.94,234.8,161.96z"/>
		</g>
		<path class="st4" d="M134.47,26.72c0.4-0.31,0.85-0.64,1.3-0.94c2.18,1.69,3.97,3.77,5.97,5.65c1.84-2.12,4.89-2.4,7.48-2.12
			c1.62,0.25,3.43,0.82,4.27,2.34c2.81,4.43,4.82,9.29,7.03,14.02c0.65,1.37,1.25,2.79,2,4.13c0.06,0.22,0.1,0.65,0.14,0.88
			c-2.17-0.72-4.45-0.88-6.72-1.1c-3.85-0.34-7.77-0.61-11.47-1.8c-2.72-0.94-5.63-2.51-6.64-5.4c-0.16-1.7-0.25-3.37,0.05-5.05
			c0.16-0.54,0.31-1.06,0.48-1.62c0.1-0.34,0.26-0.65,0.37-1c0.28-0.53,0.66-1,0.85-1.59C138.94,30.3,136.44,28.61,134.47,26.72
			L134.47,26.72z"/>
		<path class="st4" d="M134.47,308.27c0.4,0.31,0.85,0.64,1.3,0.94c2.18-1.67,3.97-3.76,5.97-5.62c1.84,2.1,4.89,2.38,7.48,2.1
			c1.62-0.24,3.43-0.81,4.27-2.35c2.81-4.41,4.82-9.29,7.03-14c0.65-1.37,1.25-2.79,2-4.14c0.06-0.22,0.1-0.67,0.14-0.89
			c-2.17,0.72-4.45,0.89-6.72,1.12c-3.85,0.31-7.77,0.59-11.47,1.78c-2.72,0.97-5.63,2.52-6.64,5.39c-0.16,1.71-0.25,3.4,0.05,5.06
			c0.16,0.56,0.31,1.08,0.48,1.62c0.1,0.34,0.26,0.67,0.37,1c0.28,0.54,0.66,1.01,0.85,1.61
			C138.94,304.7,136.44,306.39,134.47,308.27L134.47,308.27z"/>
	</g>
</g>
</svg>
