<?xml version="1.0" encoding="utf-8"?>
<!-- Generator: Adobe Illustrator 22.0.0, SVG Export Plug-In . SVG Version: 6.00 Build 0)  -->
<svg version="1.1" id="Layer_1" xmlns="http://www.w3.org/2000/svg" xmlns:xlink="http://www.w3.org/1999/xlink" x="0px" y="0px"
	 viewBox="0 0 60 60" style="enable-background:new 0 0 60 60;" xml:space="preserve">
<style type="text/css">
	.st0{clip-path:url(#SVGID_2_);}
	.st1{fill:#009543;}
	.st2{fill:#FFFFFF;}
	.st3{fill:#00209F;}
	.st4{stroke:#000000;stroke-width:0.1;}
	.st5{fill:none;stroke:#000000;stroke-width:0.5;}
</style>
<g>
	<defs>
		<circle id="SVGID_1_" cx="30" cy="30" r="30"/>
	</defs>
	<clipPath id="SVGID_2_">
		<use xlink:href="#SVGID_1_"  style="overflow:visible;"/>
	</clipPath>
	<g class="st0">
		<rect x="-15" class="st1" width="90" height="60"/>
		<rect x="-15" class="st2" width="90" height="42"/>
		<rect x="-15" class="st3" width="90" height="18"/>
		<g>
			<path class="st4" d="M29.952,19.1138C29.61,19.1212,29.2764,19.5,29.2764,19.5l0.0295,4.0466l-1.2776,1.3384h1.0342
				l-0.0087,2.3206l-6.1182,8.2386l-0.9044-0.3126l-1.5808,3.3722c0,0,3.91,2.4484,9.585,2.3814
				c6.2288-0.0741,9.6128-2.4942,9.6128-2.4942l-1.6335-3.3288L37.2146,35.41l-6.1966-8.1958l-0.0087-2.3898h1.0342l-1.4076-1.3218
				l0.0083-4.0318c0,0-0.3503-0.3641-0.6923-0.3567L29.952,19.1138z"/>
			<path class="st5" d="M32.086,28.802h-4.2306c0,0-1.5355-3.2352-1.2866-5.497c0.2534-2.303,1.5697-3.3926,3.3196-3.4118
				c2.069-0.0231,3.1534,1.0138,3.481,3.3196c0.3246,2.2848-1.2834,5.5894-1.2834,5.5894L32.086,28.802z"/>
			<path class="st2" d="M22.558,36.514c-0.0692,0.0922-0.5763,1.1065-0.5763,1.1065l0.876-0.1844L22.558,36.514L22.558,36.514z"/>
			<path class="st2" d="M23.064,37.828l-0.9221,0.2997l1.1065,0.438L23.064,37.828L23.064,37.828z"/>
			<path class="st2" d="M23.48,36.536l0.4611,1.3601l1.1296-0.3227l-0.2997-0.6455L23.48,36.536z"/>
			<path class="st2" d="M24.194,38.382l0.1614,0.5533l1.4984,0.3688l-0.5994-1.2679L24.194,38.382L24.194,38.382z"/>
			<path class="st2" d="M25.854,37.228l0.5302,1.2679l1.1296-0.438l-0.3688-0.5533L25.854,37.228z"/>
			<path class="st2" d="M26.592,38.958l0.1844,0.4841l1.752,0.2536l-0.7377-1.1526L26.592,38.958L26.592,38.958z"/>
			<path class="st2" d="M28.274,37.598l0.6455,1.1296l1.6367-0.5994l-0.1844-0.438L28.274,37.598L28.274,37.598z"/>
			<path class="st2" d="M29.22,39.142l0.3458,0.5994l2.0286-0.0692l-0.7607-1.1296L29.22,39.142L29.22,39.142z"/>
			<path class="st2" d="M31.364,37.644l0.5533,0.9452l1.291-0.6224l-0.3458-0.5072L31.364,37.644L31.364,37.644z"/>
			<path class="st2" d="M33.484,38.358l-1.291,0.6455l0.3458,0.5533l1.729-0.2766L33.484,38.358L33.484,38.358z"/>
			<path class="st2" d="M33.9,37.366l0.6685,0.8299l1.0835-0.853l-0.3688-0.3919L33.9,37.366L33.9,37.366z"/>
			<path class="st2" d="M35.882,37.804l-1.0374,0.7838l0.2766,0.4841l1.4293-0.3688L35.882,37.804L35.882,37.804z"/>
			<path class="st2" d="M37.312,36.168l0.2536,0.3688l-0.7146,1.0604l-0.7377-0.9452L37.312,36.168L37.312,36.168z"/>
			<path class="st2" d="M37.796,37.09l0.438,0.876l-0.876,0.2997l-0.0692-0.415L37.796,37.09L37.796,37.09z"/>
		</g>
	</g>
</g>
</svg>
