<?xml version="1.0" encoding="utf-8"?>
<!-- Generator: Adobe Illustrator 21.1.0, SVG Export Plug-In . SVG Version: 6.00 Build 0)  -->
<svg version="1.1" id="Layer_1" xmlns="http://www.w3.org/2000/svg" xmlns:xlink="http://www.w3.org/1999/xlink" x="0px" y="0px"
	 viewBox="0 0 335 335" style="enable-background:new 0 0 335 335;" xml:space="preserve">
<style type="text/css">
	.st0{clip-path:url(#SVGID_2_);}
	.st1{fill:#239E46;}
	.st2{fill:#E70013;}
	.st3{fill:#FFFFFF;}
</style>
<g>
	<defs>
		<circle id="SVGID_1_" cx="167.5" cy="167.5" r="167.5"/>
	</defs>
	<clipPath id="SVGID_2_">
		<use xlink:href="#SVGID_1_"  style="overflow:visible;"/>
	</clipPath>
	<g class="st0">
		<rect x="-167.5" y="0" class="st1" width="670" height="335"/>
		<rect x="-167.5" y="0" width="670" height="251.25"/>
		<rect x="-167.5" y="0" class="st2" width="670" height="83.75"/>
		<g>
			<path class="st3" d="M160.5627,203.8838c-20.0942,0-36.3838-16.2896-36.3838-36.3838s16.2896-36.3838,36.3838-36.3838
				c7.8998,0,15.2054,2.5258,21.1705,6.8026c-7.5801-7.5945-18.0599-12.2938-29.6376-12.2938c-23.127,0-41.875,18.748-41.875,41.875
				s18.748,41.875,41.875,41.875c11.5778,0,22.0576-4.6993,29.6376-12.2938C175.7681,201.358,168.4625,203.8838,160.5627,203.8838z"
				/>
			<polygon class="st3" points="215.4836,167.5 228.7794,149.2 207.2664,156.1899 193.9706,137.8899 193.9706,160.51 
				172.4576,167.5 193.9706,174.49 193.9706,197.1101 207.2664,178.8101 228.7794,185.8 			"/>
		</g>
	</g>
</g>
</svg>
