<?xml version="1.0" encoding="utf-8"?>
<!-- Generator: Adobe Illustrator 21.0.2, SVG Export Plug-In . SVG Version: 6.00 Build 0)  -->
<svg version="1.1" id="Layer_1" xmlns="http://www.w3.org/2000/svg" xmlns:xlink="http://www.w3.org/1999/xlink" x="0px" y="0px"
	 viewBox="0 0 335 335" style="enable-background:new 0 0 335 335;" xml:space="preserve">
<style type="text/css">
	.st0{fill:#E70013;}
	.st1{fill:#008400;}
</style>
<g>
	<g>
		<path class="st0" d="M334.9893,167.5c0,92.4973-74.989,167.5-167.4969,167.5S0,259.9973,0,167.5C0,74.9958,74.9844,0,167.4924,0
			S334.9893,74.9958,334.9893,167.5z"/>
		<g>
			<g>
				<path class="st1" d="M147.6196,147.687H83.3941l73.1141,55.6686l10.9696-8.3431l-44.3182-33.7156l20.236-0.0598
					L147.6196,147.687z"/>
				<path d="M83.3941,147.5667l64.2255-0.0069v0.1272l0.1119,0.0299l-4.3359,13.6474l-20.1647-0.1793l44.3144,33.9248
					l-11.1114,8.3354L83.3941,147.5667L83.3941,147.5667z M156.4339,203.2583l10.9535-8.1485l-44.2278-33.9401l20.1164,0.0375
					l4.1865-13.3931l-63.9971-0.2176L156.4339,203.2583L156.4339,203.2583z"/>
			</g>
			<g>
				<path class="st1" d="M187.3467,147.687L167.451,83.7573l-27.894,89.9834l10.9657,8.35l16.9214-54.5392l6.2928,20.1356H187.3467z
					"/>
				<path d="M139.4374,173.703l28.1262-89.9978l19.8996,63.9443l-0.1165,0.0375v0.1272l-13.7302-0.0896l-6.0713-20.1356
					l-17.1053,54.599L139.4374,173.703L139.4374,173.703z M139.6282,173.6502l10.7711,8.4105l17.1459-54.5615l6.1916,20.0674
					h13.4528l-19.6261-63.7719L139.6282,173.6502L139.6282,173.6502z"/>
			</g>
			<g>
				<path class="st1" d="M199.6143,187.2908l51.9051-39.6038l-90.3458,0.0299l-4.1903,13.5202h54.7714l-16.3383,12.4959
					L199.6143,187.2908z"/>
				<path d="M199.6143,187.2908l-0.1157,0.0299l-4.1604-13.685l16.405-12.279l-54.8833-0.164l4.3137-13.5961l90.417,0.1877
					l-51.9012,39.5961L199.6143,187.2908L199.6143,187.2908z M156.9832,161.1176l54.8419,0.2092l-16.2924,12.3763l4.1413,13.3786
					l51.8453-39.2674l-90.2186-0.0674L156.9832,161.1176L156.9832,161.1176z"/>
			</g>
			<g>
				<path class="st1" d="M167.451,211.7286l51.9916,39.4766l-27.9171-89.9681h-13.5838l16.9252,54.547l-16.4019-12.414
					L167.451,211.7286z"/>
				<path d="M167.369,211.8182l0.082-0.0896l-0.082-0.105l11.1673-8.35l16.218,12.5403l-16.8126-54.6963l13.6965,0.0751
					l27.7255,90.0952L167.369,211.8182L167.369,211.8182z M219.3192,251.2427l-27.7937-89.8861l-13.4789-0.164l16.7413,54.6886
					l-16.2518-12.4208l-10.8868,8.2527L219.3192,251.2427L219.3192,251.2427z"/>
			</g>
			<g>
				<path class="st1" d="M135.3221,187.2533l-19.787,63.9895l73.0497-55.6464l-4.1635-13.5057l-44.3029,33.7301l6.2138-20.1723
					L135.3221,187.2533z"/>
				<path d="M135.195,187.2234l0.1272,0.0299l0.0674-0.0896l11.0439,8.53l-6.3939,20.0229l44.5013-33.6712l4.1152,13.6482
					l-73.2443,55.497L135.195,187.2234L135.195,187.2234z M115.4563,251.1378l73.0129-55.5039l-3.9727-13.4459l-44.4906,33.5884
					l6.2368-20.0376l-10.8531-8.2679L115.4563,251.1378L115.4563,251.1378z"/>
			</g>
		</g>
	</g>
</g>
</svg>
