<?xml version="1.0" encoding="utf-8"?>
<!-- Generator: Adobe Illustrator 22.0.0, SVG Export Plug-In . SVG Version: 6.00 Build 0)  -->
<svg version="1.1" id="Layer_1" xmlns="http://www.w3.org/2000/svg" xmlns:xlink="http://www.w3.org/1999/xlink" x="0px" y="0px"
	 viewBox="0 0 60 60" style="enable-background:new 0 0 60 60;" xml:space="preserve">
<style type="text/css">
	.st0{fill:#FFFFFF;}
	.st1{clip-path:url(#SVGID_2_);fill:#CC092F;}
	.st2{clip-path:url(#SVGID_4_);fill:#FFD200;}
	.st3{clip-path:url(#SVGID_6_);fill:#0046AE;}
	.st4{fill:#F5D402;}
	.st5{fill:#B07F55;}
	.st6{fill:#D10429;}
	.st7{fill:#CC092F;}
	.st8{fill:#097754;}
	.st9{fill:#0B45BB;}
	.st10{fill:#FFD200;}
</style>
<circle class="st0" cx="30" cy="30" r="30"/>
<g>
	<g>
		<defs>
			<circle id="SVGID_1_" cx="30" cy="30" r="30"/>
		</defs>
		<clipPath id="SVGID_2_">
			<use xlink:href="#SVGID_1_"  style="overflow:visible;"/>
		</clipPath>
		<rect x="40" class="st1" width="20" height="60"/>
	</g>
	<g>
		<defs>
			<circle id="SVGID_3_" cx="30" cy="30" r="30"/>
		</defs>
		<clipPath id="SVGID_4_">
			<use xlink:href="#SVGID_3_"  style="overflow:visible;"/>
		</clipPath>
		<rect x="20" class="st2" width="20" height="60"/>
	</g>
	<g>
		<defs>
			<circle id="SVGID_5_" cx="30" cy="30" r="30"/>
		</defs>
		<clipPath id="SVGID_6_">
			<use xlink:href="#SVGID_5_"  style="overflow:visible;"/>
		</clipPath>
		<rect class="st3" width="20" height="60"/>
	</g>
</g>
<path d="M27.9823,20.2773c-0.1243,0-0.233,0.0317-0.2963,0.081c0.1007,0.0293,0.1739,0.1222,0.1739,0.235v0.2864h-0.2864
	c-0.1122,0-0.2051-0.0721-0.2351-0.1718c-0.0493,0.0634-0.081,0.172-0.081,0.2963c0,0.1244,0.0317,0.233,0.081,0.2963
	c0.0294-0.1007,0.1222-0.1739,0.2351-0.1739h0.2864v1.3766c0,0.1082-0.0677,0.198-0.162,0.2311
	c0.1366,0.0186,0.2542,0.2019,0.2864,0.3022c0.0323-0.1,0.1499-0.2836,0.2864-0.3022c-0.0953-0.0325-0.164-0.1222-0.164-0.2311
	v-1.3767h0.2864c0.1122,0,0.2051,0.0721,0.2351,0.1719c0.0493-0.0634,0.0809-0.172,0.0809-0.2963
	c0-0.1243-0.0316-0.233-0.0809-0.2963c-0.0294,0.1007-0.1222,0.1738-0.2351,0.1738h-0.2864v-0.2864
	c0-0.1122,0.0721-0.2051,0.1719-0.2351C28.2153,20.309,28.1066,20.2773,27.9823,20.2773L27.9823,20.2773z"/>
<path class="st4" d="M27.9823,20.3367c-0.0647,0-0.1218,0.0121-0.1698,0.0276c0.0642,0.0558,0.1067,0.1367,0.1067,0.2291v0.2864
	c0,0.0041-0.0012,0.008-0.002,0.0119v0.0454h-0.0455c-0.0039,0.0008-0.0078,0.002-0.0118,0.002h-0.2864
	c-0.0913,0-0.1713-0.0418-0.2271-0.1047c-0.0161,0.0486-0.0296,0.1041-0.0296,0.1699c0,0.0647,0.0121,0.1218,0.0276,0.1698
	c0.0558-0.0642,0.1367-0.1066,0.2291-0.1066h0.3457c-0.0004,0.0059-0.002,0.0117-0.002,0.0177v0.0296
	c0.0008,0.0039,0.002,0.0078,0.002,0.0118v1.3766c0,0.0894-0.0461,0.1597-0.1067,0.2153c0.0433,0.0267,0.0806,0.0604,0.1126,0.0988
	c0.0284,0.0341,0.0397,0.0676,0.0593,0.1027c0.0196-0.035,0.0308-0.0685,0.0593-0.1027c0.0314-0.0377,0.0682-0.0702,0.1106-0.0968
	c-0.0611-0.0554-0.1067-0.1275-0.1067-0.2173v-1.434h0.0474c0.0039-0.0008,0.0078-0.0019,0.0118-0.0019h0.2864
	c0.0913,0,0.1712,0.0418,0.2271,0.1046c0.016-0.0485,0.0297-0.104,0.0297-0.1698c0-0.0647-0.0122-0.1218-0.0277-0.1698
	c-0.0558,0.0642-0.1367,0.1066-0.2291,0.1066h-0.2864c-0.004,0-0.008-0.0012-0.0118-0.002h-0.0454v-0.0454
	c-0.0008-0.0038-0.002-0.0078-0.002-0.0119v-0.2864c0-0.0913,0.0418-0.1712,0.1047-0.2271
	C28.1035,20.3503,28.048,20.3367,27.9823,20.3367"/>
<path d="M31.5673,25.3218c-0.175-0.1243-0.3186-0.2648-0.4207-0.4286c-0.2458-0.3944-0.3496-0.8786-0.3496-1.3707
	c0-0.208,0.233-0.4422,0.233-0.6104c0-0.2543-0.0237-0.4068-0.0237-0.4068c0.0827,0.0113,0.2271,0.158,0.2271,0.158
	s-0.005-0.422-0.1383-0.4957c0,0,0.0539-0.0555,0.2489-0.0612c-0.0548-0.1387-0.3259-0.3081-0.3259-0.3081
	c0.0135-0.0243,0.0386-0.0453,0.0711-0.0632c0.0681-0.0377,0.1638-0.0625,0.237-0.077c-0.078-0.0162-0.1679-0.0409-0.2666-0.0731
	c-0.2254-0.0734-0.4907-0.1812-0.7387-0.3002c-0.4526-0.2171-0.7975-0.2311-0.9876-0.2311c-0.1379,0-0.3411,0.0038-0.4602,0.083
	c-0.109,0.0723-0.1001,0.1664-0.1383,0.1995c-0.0899,0.0778-0.2439,0.075-0.318,0.075c-0.48,0-0.4977,0.5136-0.4977,0.5136
	s0.1227-0.1857,0.3397-0.1857c0.3608,0,0.634,0.1965,0.634,0.2706c0,0.03-0.0372,0.0355-0.0395,0.0355
	c-0.2357,0-0.5913-0.1357-0.7803-0.1422v0.0928c0.4217,0.1467,0.8493,0.3545,0.8493,1.27c0,0.5765-0.069,1.1648-0.3575,1.6275
	c-0.1022,0.1639-0.2476,0.3041-0.4227,0.4286l1.7125,0.3086L31.5673,25.3218z"/>
<path d="M29.8548,24.936l-1.7124,0.3858c-0.0779-0.0235-0.4442-0.1374-0.7012-0.2805c-0.4524-0.252-0.687-0.5028-1.2246-0.5274
	v-0.4089c0-0.2185,0.0791-0.4153,0.0791-0.6241c-0.2266-0.0608-0.8557-0.8299-1.436-1.1713
	c-0.8538,0.553-1.5149,1.4609-1.5149,1.8784c0,0,0.0257,8.9707,0,12.0959c0,0.1801-0.1086,0.4346-0.1086,0.4346
	c0.3117-0.1319,0.8831-0.9136,1.0034-1.2108v0.1423c0.4707-0.2147,0.8154-0.7787,0.9698-1.0705
	c0.0027,0.0422,0.0099,0.1481,0.0099,0.1481c0.4205-0.3687,0.9559-2.5479,0.9559-2.5479l0.8922,0.8768
	c0,0-0.3227,0.655-0.4484,0.7722c0,0,0.0843,0.0107,0.1797,0.0099c-0.0587,0.0844-0.5072,0.7302-0.6478,0.9737
	c-0.1316,0.2279-0.2244,0.1264-0.4266,0.1264c-0.1677,0-0.5479,0.2672-0.6103,0.3753c-0.0656,0.1136-0.1145,0.2517-0.1145,0.3654
	c0,0.125,0.1323,0.2963,0.1323,0.2963c0.0142-0.0598,0.0395-0.081,0.0395-0.081s0.3477,0.4332,0.399,0.4898
	c0.0399,0.0441,0.2178,0.0728,0.2805,0.0159c0.1569-0.1426,0.3087-0.2424,0.4484-0.4484c0.0719-0.1061,0.0774-0.2278,0.16-0.3418
	c0.2763-0.3812,0.8262-1.1111,0.952-1.2779c0.0084,0.0464,0.0156,0.0851,0.0236,0.1323c0.1425-0.2877,0.8276-0.8375,0.8276-0.8375
	l0.7168,0.3299c0,0-1.3383,3.0764-2.5262,3.5494c0,0,0.5168,0.2196,1.1515,0.5491c0.0926,0.0481,0.1879,0.0997,0.2844,0.1521
	c0.0799-0.0962,0.164-0.2031,0.2469-0.3141c0.3795-0.5077,0.7506-1.0962,0.7506-1.0962c0.0258,0.1528-0.1745,0.6248-0.5135,1.2069
	c-0.0667,0.1144-0.1362,0.234-0.2133,0.3555c0.086,0.0491,0.1713,0.0987,0.2568,0.1502c0.6287,0.3783,1.2191,0.8132,1.4378,1.2127
	l0.1543-0.3862l-0.1543-0.3862V25.4483l0.0772-0.1929L29.8548,24.936z"/>
<path class="st5" d="M29.854,38.9504c-0.2218-0.2406-0.6856-0.5346-1.2068-0.8058c0.6302-1.1311,0.9425-2.9189,0.796-3.2749
	c0,0-0.2587,0.9272-0.5748,1.4557c-0.2927,0.4894-0.653,1.0398-1.0014,1.4478c-0.2866-0.1223-0.5645-0.2249-0.8019-0.2963
	c1.044-0.8042,2.1115-3.4624,2.1115-3.4624l-1.1039-0.5116c0,0-0.413,0.4815-0.5471,0.5709c0,0-0.0573-0.2394-0.0909-0.3239
	c0,0-0.1582,0.1197-0.2448,0.1225c0,0-0.0259-0.1625-0.0454-0.2687c-0.109,0.0727-0.2903,0.0573-0.2903,0.0573
	c0.1592-0.0754,0.3476-0.5373,0.3476-0.5373l-1.0541-1.4022c0,0-0.3703,1.7793-0.792,2.145v-7.6617l0.3338,0.31l0.5056-0.4721
	v-0.3595l-0.4484,0.4187v-1.0844c0.0676-0.1022,0.1124-0.1785,0.1461-0.239c0.0726,0.1265,0.3071,0.5143,0.5826,0.7525
	c0.0453-0.1843,0.3437-0.3595,0.3437-0.3595s0.1069,0.2897,0.2705,0.3614c0.0576-0.1014,0.401-0.3259,0.401-0.3259
	s-0.2938,0.0446-0.4128,0.1561c-0.1022-0.0229-0.1284-0.4266-0.1284-0.4266s-0.4324,0.2106-0.5076,0.3614
	c-0.0825-0.0223-0.2108-0.3468-0.2608-0.48c0.0754-0.0082,0.182-0.0177,0.322-0.0177c0.1233,0,0.2811,0.0584,0.4464,0.1363
	c0.1816,0.0855,0.3716,0.1938,0.5412,0.2706c0.2173,0.0984,0.5461,0.1184,0.6419,0.1225c-0.1098,0.0772-0.2305,0.1476-0.3614,0.2133
	c0,0,0.5174-0.0048,0.8809-0.1857c0.1297-0.0834,0.2642-0.1665,0.3792-0.2647c-0.0499,0.1386-0.1276,0.3024-0.2489,0.4424
	c0.5338-0.0452,0.7997-0.35,0.875-0.4523c0.0354,0.0916,0.0985,0.2387,0.1975,0.3654h0.1929v13.1179L29.854,38.9504z"/>
<path class="st5" d="M25.9204,23.5205l0.0098,0.2449v0.721c-0.1936-0.0666-0.437-0.3848-0.555-0.553v-0.0988
	c0-0.0929,0.0547-0.1608,0.0948-0.1975l-0.1165-0.0414c-0.0444,0.0507-0.0928,0.1259-0.0928,0.2232v0.0573l-0.3476,0.3733
	l-0.3417-0.5175v-0.1264c0-0.0852,0.0655-0.1802,0.1205-0.2449l-0.1146-0.0415c-0.0578,0.0749-0.1185,0.1759-0.1185,0.2706v0.1027
	c-0.0804,0.0832-0.393,0.405-0.393,0.405s-0.1569-0.3371-0.1995-0.4286c0.2394-0.3316,0.6276-0.7029,0.9934-0.9694
	C24.8597,22.6993,25.6531,23.4278,25.9204,23.5205L25.9204,23.5205z"/>
<path class="st5" d="M23.9094,24.2197v0.5946l-0.2765,0.2567v-0.8829c0-0.0845,0.0354-0.1864,0.0948-0.2983L23.9094,24.2197z"/>
<path class="st5" d="M24.7706,24.4488v0.3674l-0.318,0.2983v-1.1495L24.7706,24.4488z"/>
<path class="st5" d="M24.34,25.1125l-0.318-0.2963v-0.4305l0.318-0.3338V25.1125z"/>
<path class="st5" d="M25.7917,24.6661c-0.0738,0.1044-0.2673,0.3596-0.476,0.4721v-1.0093
	C25.3636,24.2085,25.5833,24.5638,25.7917,24.6661z"/>
<path class="st5" d="M25.2031,24.1802v0.9323l-0.318-0.2963v-0.3298L25.2031,24.1802z"/>
<path class="st5" d="M23.9094,25.1737v0.9303l-0.2765-0.2588v-0.4128L23.9094,25.1737z"/>
<path class="st5" d="M24.3398,25.4719v0.3338l-0.3181,0.2962v-0.9263L24.3398,25.4719z"/>
<path class="st5" d="M24.7703,25.1757v0.9264l-0.318-0.2983v-0.3298L24.7703,25.1757z"/>
<path class="st5" d="M25.2029,25.4739v0.3298l-0.318,0.2982v-0.9263L25.2029,25.4739z"/>
<path class="st5" d="M25.6334,26.104l-0.3181-0.2983v-0.31c0.1097-0.0669,0.22-0.19,0.3181-0.32L25.6334,26.104z"/>
<path class="st5" d="M24.8276,26.5148l0.3358-0.3121v7.6636c0,0,0.0234,0.3803,0.0395,0.6281
	c-0.1493,0.1509-0.711,0.7189-0.711,0.7189v-9.0126L24.8276,26.5148z"/>
<path class="st5" d="M24.3001,34.927c0,0.2463-0.4498,0.8208-0.6676,0.952v-9.6741l0.3318,0.31l0.3358-0.3121V34.927z"/>
<path class="st6" d="M27.0889,34.0955l0.2449-0.1679c0,0,0.0163,0.081,0.0375,0.1916c-0.1049,0.1434-0.7073,0.9655-1.0053,1.3668
	c-0.0741,0.0997-0.1364,0.3535-0.1364,0.3535s-0.1086-0.0514-0.1086-0.1441c0-0.0911,0.0119-0.1995,0.0119-0.1995
	s-0.0811,0.0928-0.2213,0.0928c0-0.112,0.2166-0.2335,0.2252-0.393c-0.1652,0.1225-0.3086,0.0596-0.4997,0.1185
	c-0.2081,0.0641-0.266,0.1515-0.3298,0.1482c-0.0376-0.002-0.0716-0.0669-0.0573-0.1067c0.0248-0.0689,0.2822-0.2598,0.4621-0.2943
	c0.0431-0.0083,0.3821,0.0738,0.4504-0.0316c0.2813-0.4341,0.7381-1.1389,0.7821-1.2068c0.029-0.0069,0.0557-0.0143,0.077-0.0277
	C27.0217,33.7953,27.0191,34.0172,27.0889,34.0955L27.0889,34.0955z"/>
<path class="st6" d="M25.5142,35.4483c0.0136,0.0157,0.0124,0.0388-0.002,0.0513l-0.1106,0.0968
	c-0.0145,0.0125-0.0377,0.0098-0.0513-0.0059c-0.0137-0.0157-0.0125-0.0388,0.002-0.0514l0.1106-0.0968
	c0.0072-0.0063,0.0165-0.009,0.0257-0.0079C25.4977,35.4355,25.5073,35.4404,25.5142,35.4483L25.5142,35.4483z"/>
<path class="st6" d="M25.6821,35.5648c0.0331,0.0381,0.0309,0.0921-0.004,0.1225l-0.2686,0.235
	c-0.035,0.0304-0.0913,0.0243-0.1245-0.0138c-0.0331-0.0381-0.031-0.0941,0.004-0.1244l0.2686-0.2331
	c0.0131-0.0114,0.0309-0.0184,0.0474-0.0198C25.6325,35.529,25.6614,35.541,25.6821,35.5648z"/>
<path class="st6" d="M25.836,35.7465c0.0331,0.0381,0.031,0.0921-0.004,0.1225l-0.2705,0.235
	c-0.035,0.0304-0.0894,0.0243-0.1225-0.0138c-0.0331-0.0381-0.031-0.0941,0.004-0.1244l0.2686-0.2331
	c0.0131-0.0114,0.0289-0.0184,0.0454-0.0198C25.7845,35.7107,25.8153,35.7227,25.836,35.7465L25.836,35.7465z"/>
<path class="st6" d="M25.9287,35.8907c0.0275-0.0022,0.0564,0.0078,0.077,0.0316c0.0331,0.0381,0.031,0.0941-0.0039,0.1244
	l-0.2687,0.2331c-0.035,0.0304-0.0894,0.0243-0.1225-0.0139s-0.0329-0.0921,0.002-0.1225l0.2706-0.235
	C25.8964,35.8971,25.9122,35.892,25.9287,35.8907L25.9287,35.8907z"/>
<path d="M29.8532,24.936l1.7124,0.3858c0.0779-0.0235,0.4442-0.1374,0.7012-0.2805c0.4524-0.252,0.687-0.5028,1.2246-0.5274v-0.4089
	c0-0.2185-0.0791-0.4153-0.0791-0.6241c0.2266-0.0608,0.8557-0.8299,1.436-1.1713c0.8538,0.553,1.5149,1.4609,1.5149,1.8784
	c0,0-0.0257,8.9707,0,12.0959c0,0.1801,0.1086,0.4346,0.1086,0.4346c-0.3117-0.1319-0.8831-0.9136-1.0034-1.2108v0.1423
	c-0.4707-0.2147-0.8154-0.7787-0.9698-1.0705c-0.0027,0.0422-0.0099,0.1481-0.0099,0.1481
	c-0.4205-0.3687-0.9559-2.5479-0.9559-2.5479l-0.8922,0.8768c0,0,0.3227,0.655,0.4484,0.7722c0,0-0.0843,0.0107-0.1797,0.0099
	c0.0587,0.0844,0.5072,0.7302,0.6478,0.9737c0.1316,0.2279,0.2244,0.1264,0.4266,0.1264c0.1677,0,0.5479,0.2672,0.6103,0.3753
	c0.0656,0.1136,0.1145,0.2517,0.1145,0.3654c0,0.125-0.1323,0.2963-0.1323,0.2963c-0.0142-0.0598-0.0395-0.081-0.0395-0.081
	s-0.3477,0.4332-0.399,0.4898c-0.0399,0.0441-0.2178,0.0728-0.2805,0.0159c-0.1569-0.1426-0.3087-0.2424-0.4484-0.4484
	c-0.0719-0.1061-0.0774-0.2278-0.16-0.3418c-0.2763-0.3812-0.8262-1.1111-0.952-1.2779c-0.0084,0.0464-0.0156,0.0851-0.0236,0.1323
	c-0.1425-0.2877-0.8276-0.8375-0.8276-0.8375l-0.7168,0.3299c0,0,1.3383,3.0764,2.5262,3.5494c0,0-0.5168,0.2196-1.1515,0.5491
	c-0.0926,0.0481-0.1879,0.0997-0.2844,0.1521c-0.0799-0.0962-0.164-0.2031-0.2469-0.3141
	c-0.3795-0.5077-0.7506-1.0962-0.7506-1.0962c-0.0259,0.1528,0.1745,0.6248,0.5135,1.2069c0.0667,0.1144,0.1362,0.234,0.2133,0.3555
	c-0.086,0.0491-0.1713,0.0987-0.2568,0.1502c-0.6287,0.3783-1.2191,0.8132-1.4378,1.2127l-0.1543-0.3862l0.1543-0.3862V25.4483
	l-0.0772-0.1929L29.8532,24.936z"/>
<path class="st5" d="M29.854,38.9504c0.2218-0.2406,0.6856-0.5346,1.2068-0.8058c-0.6302-1.1311-0.9425-2.9189-0.7959-3.2749
	c0,0,0.2587,0.9272,0.5748,1.4557c0.2927,0.4894,0.653,1.0398,1.0014,1.4478c0.2866-0.1223,0.5645-0.2249,0.8019-0.2963
	c-1.044-0.8042-2.1114-3.4624-2.1114-3.4624l1.1039-0.5116c0,0,0.413,0.4815,0.5471,0.5709c0,0,0.0573-0.2394,0.0909-0.3239
	c0,0,0.1582,0.1197,0.2448,0.1225c0,0,0.0259-0.1625,0.0454-0.2687c0.109,0.0727,0.2903,0.0573,0.2903,0.0573
	c-0.1592-0.0754-0.3476-0.5373-0.3476-0.5373l1.0541-1.4022c0,0,0.3703,1.7793,0.792,2.145v-7.6617l-0.3338,0.31l-0.5056-0.4721
	v-0.3595l0.4484,0.4187v-1.0844c-0.0676-0.1022-0.1124-0.1785-0.1461-0.239c-0.0726,0.1265-0.3071,0.5143-0.5826,0.7525
	c-0.0453-0.1843-0.3437-0.3595-0.3437-0.3595s-0.1069,0.2897-0.2705,0.3614c-0.0576-0.1014-0.401-0.3259-0.401-0.3259
	s0.2938,0.0446,0.4128,0.1561c0.1022-0.0229,0.1284-0.4266,0.1284-0.4266s0.4324,0.2106,0.5076,0.3614
	c0.0825-0.0223,0.2108-0.3468,0.2608-0.48c-0.0754-0.0082-0.182-0.0177-0.322-0.0177c-0.1233,0-0.2811,0.0584-0.4464,0.1363
	c-0.1816,0.0855-0.3716,0.1938-0.5412,0.2706c-0.2173,0.0984-0.5461,0.1184-0.6419,0.1225
	c0.1098,0.0772,0.2305,0.1476,0.3614,0.2133c0,0-0.5174-0.0048-0.8809-0.1857c-0.1297-0.0834-0.2642-0.1665-0.3792-0.2647
	c0.0499,0.1386,0.1276,0.3024,0.2489,0.4424c-0.5338-0.0452-0.7997-0.35-0.875-0.4523c-0.0354,0.0916-0.0985,0.2387-0.1975,0.3654
	h-0.1929v13.1179L29.854,38.9504z"/>
<path class="st5" d="M33.7877,23.5205l-0.0098,0.2449v0.721c0.1936-0.0666,0.437-0.3848,0.555-0.553v-0.0988
	c0-0.0929-0.0547-0.1608-0.0948-0.1975l0.1165-0.0414c0.0444,0.0507,0.0928,0.1259,0.0928,0.2232v0.0573l0.3476,0.3733
	l0.3417-0.5175v-0.1264c0-0.0852-0.0655-0.1802-0.1205-0.2449l0.1146-0.0415c0.0578,0.0749,0.1185,0.1759,0.1185,0.2706v0.1027
	c0.0804,0.0832,0.393,0.405,0.393,0.405s0.1569-0.3371,0.1995-0.4286c-0.2394-0.3316-0.6276-0.7029-0.9934-0.9694
	C34.8483,22.6993,34.0549,23.4278,33.7877,23.5205L33.7877,23.5205z"/>
<path class="st5" d="M35.7986,24.2197v0.5946l0.2765,0.2567v-0.8829c0-0.0845-0.0354-0.1864-0.0948-0.2983L35.7986,24.2197z"/>
<path class="st5" d="M34.9374,24.4488v0.3674l0.318,0.2983v-1.1495L34.9374,24.4488z"/>
<path class="st5" d="M35.368,25.1125l0.318-0.2963v-0.4305l-0.318-0.3338V25.1125z"/>
<path class="st5" d="M33.9163,24.6661c0.0738,0.1044,0.2673,0.3596,0.476,0.4721v-1.0093
	C34.3444,24.2085,34.1247,24.5638,33.9163,24.6661z"/>
<path class="st5" d="M34.5049,24.1802v0.9323l0.318-0.2963v-0.3298L34.5049,24.1802z"/>
<path class="st5" d="M35.7986,25.1737v0.9303l0.2765-0.2588v-0.4128L35.7986,25.1737z"/>
<path class="st5" d="M35.3682,25.4719v0.3338l0.3181,0.2962v-0.9263L35.3682,25.4719z"/>
<path class="st5" d="M34.9377,25.1757v0.9264l0.318-0.2983v-0.3298L34.9377,25.1757z"/>
<path class="st5" d="M34.5051,25.4739v0.3298l0.318,0.2982v-0.9263L34.5051,25.4739z"/>
<path class="st5" d="M34.0746,26.104l0.3181-0.2983v-0.31c-0.1097-0.0669-0.22-0.19-0.3181-0.32L34.0746,26.104z"/>
<path class="st5" d="M34.8804,26.5148l-0.3358-0.3121v7.6636c0,0-0.0234,0.3803-0.0395,0.6281
	c0.1493,0.1509,0.711,0.7189,0.711,0.7189v-9.0126L34.8804,26.5148z"/>
<path class="st5" d="M35.4079,34.927c0,0.2463,0.4498,0.8208,0.6676,0.952v-9.6741l-0.3318,0.31l-0.3358-0.3121V34.927z"/>
<path class="st6" d="M32.6191,34.0955l-0.2449-0.1679c0,0-0.0163,0.081-0.0375,0.1916c0.1049,0.1434,0.7073,0.9655,1.0053,1.3668
	c0.0741,0.0997,0.1364,0.3535,0.1364,0.3535s0.1086-0.0514,0.1086-0.1441c0-0.0911-0.0119-0.1995-0.0119-0.1995
	s0.0811,0.0928,0.2213,0.0928c0-0.112-0.2166-0.2335-0.2252-0.393c0.1652,0.1225,0.3086,0.0596,0.4997,0.1185
	c0.2081,0.0641,0.266,0.1515,0.3298,0.1482c0.0376-0.002,0.0716-0.0669,0.0573-0.1067c-0.0248-0.0689-0.2822-0.2598-0.4621-0.2943
	c-0.0431-0.0083-0.3821,0.0738-0.4504-0.0316c-0.2813-0.4341-0.7381-1.1389-0.7821-1.2068c-0.029-0.0069-0.0557-0.0143-0.077-0.0277
	C32.6863,33.7953,32.6889,34.0172,32.6191,34.0955L32.6191,34.0955z"/>
<path class="st6" d="M34.1938,35.4483c-0.0136,0.0157-0.0124,0.0388,0.002,0.0513l0.1106,0.0968
	c0.0145,0.0125,0.0377,0.0098,0.0513-0.0059c0.0137-0.0157,0.0125-0.0388-0.002-0.0514l-0.1106-0.0968
	c-0.0072-0.0063-0.0165-0.009-0.0257-0.0079C34.2103,35.4355,34.2007,35.4404,34.1938,35.4483L34.1938,35.4483z"/>
<path class="st6" d="M34.0259,35.5648c-0.0331,0.0381-0.0309,0.0921,0.004,0.1225l0.2686,0.235
	c0.035,0.0304,0.0913,0.0243,0.1245-0.0138c0.0331-0.0381,0.031-0.0941-0.004-0.1244l-0.2686-0.2331
	c-0.0131-0.0114-0.0309-0.0184-0.0474-0.0198C34.0755,35.529,34.0467,35.541,34.0259,35.5648z"/>
<path class="st6" d="M33.872,35.7465c-0.0331,0.0381-0.031,0.0921,0.004,0.1225l0.2705,0.235
	c0.035,0.0304,0.0894,0.0243,0.1225-0.0138c0.0331-0.0381,0.031-0.0941-0.004-0.1244l-0.2686-0.2331
	c-0.0131-0.0114-0.0289-0.0184-0.0454-0.0198C33.9235,35.7107,33.8927,35.7227,33.872,35.7465L33.872,35.7465z"/>
<path class="st6" d="M33.7793,35.8907c-0.0275-0.0022-0.0564,0.0078-0.077,0.0316c-0.0331,0.0381-0.031,0.0941,0.0039,0.1244
	l0.2686,0.2331c0.035,0.0304,0.0894,0.0243,0.1225-0.0139s0.0329-0.0921-0.002-0.1225l-0.2706-0.235
	C33.8116,35.8971,33.7958,35.892,33.7793,35.8907L33.7793,35.8907z"/>
<path class="st5" d="M29.4578,21.18c0.4421,0,0.753,0.2016,1.1713,0.3871c0.1096,0.0486,0.2103,0.088,0.3001,0.1185
	c-0.0563,0.0499-0.1001,0.1-0.1126,0.1423c0,0,0.1875,0.0347,0.2725,0.1916c0,0-0.1782,0.0202-0.2074,0.1244
	c0.0998,0.0075,0.199,0.1334,0.1995,0.2548l-0.2528-0.0791c0,0,0.0612,0.2839,0.0612,0.5925c0,0.1576-0.2271,0.3432-0.2271,0.6103
	c0,0.8385,0.2112,1.1609,0.3615,1.4201c0.0588,0.1014,0.1065,0.2181,0.2054,0.3062c-0.4328-0.2305-0.7545-0.5185-0.7545-0.7861
	v-1.0132h-0.1126v1.0132c0,0.194,0.0474,0.2844,0.0474,0.2844c0.0679,0.2147,0.2053,0.546,0.2904,0.6794
	c-0.3982-0.2152-0.6005-0.4847-0.6005-0.5846v-1.3925h-0.1126v1.4122l0.0217,0.0968c-0.0483,0.0725-0.111,0.1584-0.1541,0.1876
	c-0.0429-0.0292-0.1038-0.1152-0.1521-0.1876l0.0218-0.0968v-1.4122h-0.1126v1.3925c0,0.0999-0.2023,0.3694-0.6005,0.5846
	c0.0851-0.1335,0.2224-0.4648,0.2903-0.6794c0,0,0.0474-0.0904,0.0474-0.2844v-1.0132h-0.1126v1.0132
	c0,0.2673-0.3205,0.5558-0.7525,0.7861c0.0979-0.0881,0.145-0.2053,0.2034-0.3061c0.1643-0.2835,0.3674-0.6437,0.3674-1.669
	c0-0.3848-0.0569-0.6464-0.156-0.8296c-0.0301-0.0604-0.0707-0.2212,0.16-0.2212c0.1195,0,0.3931,0.2114,0.3931,0.2114
	s-0.0113-0.1686-0.1501-0.2647c-0.023-0.0159-0.0612-0.0661-0.0612-0.1126c0-0.0349,0.0598-0.121,0.1066-0.1422
	c0.0321-0.0146-0.47-0.1021-0.47-0.3298c0-0.0474,0.0298-0.079,0.1342-0.079c0.1368,0,0.3593,0.1639,0.557,0.1639
	c0.1462,0,0.2038-0.0356,0.3535-0.0356c0.183,0,0.5646,0.3464,0.6952,0.3338c-0.146-0.0916-0.3817-0.4385-0.7387-0.4385
	c-0.1239,0-0.236,0.0277-0.3516,0.0277c-0.1482,0-0.2941-0.1363-0.4543-0.1363c-0.1073,0-0.2272,0.006-0.245-0.0218
	c-0.0311-0.0484-0.0031-0.0765,0.0257-0.1165c0.0544-0.0755,0.207-0.0974,0.3575-0.1027c0.0451-0.0016,0.0902-0.0024,0.1324-0.0019
	C29.3853,21.1784,29.4242,21.18,29.4578,21.18L29.4578,21.18z"/>
<path class="st7" d="M28.0224,21.7222c0,0,0.0933-0.1767,0.3293-0.1767c0.0986,0,0.4241-0.0068,0.4241-0.0068
	c0.0434,0.1127,0.2411,0.301,0.2411,0.4969c0,0-0.2007-0.3618-0.761-0.3618C28.1151,21.6737,28.0223,21.7222,28.0224,21.7222
	L28.0224,21.7222z"/>
<path class="st6" d="M28.9334,22.1046c0,0-0.1193,0.1257-0.1453,0.1928c-0.1181-0.0448-0.3241-0.257-0.3241-0.257
	S28.6386,22.1423,28.9334,22.1046L28.9334,22.1046z"/>
<path d="M28.7443,21.7716c0,0-0.1377-0.0441-0.1377-0.0904c0-0.0589,0.0669-0.0589,0.1068-0.013
	C28.741,21.6998,28.7443,21.7716,28.7443,21.7716L28.7443,21.7716z"/>
<ellipse cx="29.3368" cy="21.7751" rx="0.1972" ry="0.156"/>
<circle class="st4" cx="29.3369" cy="21.7751" r="0.1374"/>
<circle cx="29.3369" cy="21.7751" r="0.0583"/>
<polygon points="26.1954,36.0463 26.8205,36.3873 26.6688,37.0829 26.0437,36.7419 "/>
<path d="M23.2834,29.363l-0.2252,0.1027l2.544,5.572h0.2706L23.2834,29.363z M26.2836,35.9344L26.1,36.124l0.1146,0.2528
	l0.2232-0.1027L26.2836,35.9344z"/>
<path d="M24.0739,33.7564c0,0,0.2143,0.4426,0.3771,0.5033c-0.0842-0.023-0.3577,0.0774-0.3577,0.0774s0.4822,0.4308,0.8912,0.459
	c0.3469,0.0239,0.5153-0.1492,0.5153-0.1492l-0.0695-0.3675c0,0-0.2122-0.2563-0.5518-0.3745
	C24.5354,33.7854,24.0739,33.7565,24.0739,33.7564L24.0739,33.7564z"/>
<path d="M25.6894,32.9635c0,0-0.2959,0.2533-0.3769,0.5467c-0.081,0.2934,0.0528,0.6268,0.0528,0.6268l0.2486,0.4638
	c0,0,0.3446-0.1834,0.4912-0.4576c0.1466-0.2742,0.0928-0.6442,0.0928-0.6442s-0.273,0.1016-0.3077,0.1466
	C25.9478,33.3414,25.6893,32.9635,25.6894,32.9635L25.6894,32.9635z"/>
<path d="M24.7383,32.8451c0,0-0.3365,0.1137-0.6633,0.0941c-0.3113-0.0188-0.5701-0.2802-0.5701-0.2802s0.258-0.1746,0.3854-0.1514
	c-0.1401-0.0512-0.3432-0.4021-0.3432-0.4021s0.2887-0.0872,0.5446,0.0093c0.256,0.0966,0.4792,0.3769,0.4792,0.3769
	L24.7383,32.8451L24.7383,32.8451z"/>
<path d="M24.8541,31.2015c0,0,0.1683,0.3485,0.1284,0.4696c0.0522-0.0806,0.2498-0.2062,0.2498-0.2062s0.1194,0.5642,0.0052,0.9127
	c-0.1142,0.3484-0.462,0.4811-0.462,0.4811l-0.3836-0.7461c0,0-0.0571-0.2764,0.0625-0.4953
	C24.574,31.3984,24.8541,31.2014,24.8541,31.2015L24.8541,31.2015z"/>
<path d="M22.6645,30.279c0,0,0.3637-0.0382,0.6964,0.0997c0.2782,0.1155,0.3634,0.3254,0.3634,0.3254l0.137,0.3673
	c0,0-0.3959,0.1485-0.7087,0.035c-0.3128-0.1136-0.5427-0.4892-0.5427-0.4892s0.2186-0.0829,0.3018-0.0518
	C22.7907,30.5116,22.6646,30.279,22.6645,30.279L22.6645,30.279L22.6645,30.279z"/>
<path d="M23.8085,29.5972c0,0,0.1596,0.205,0.1644,0.4408c0.0426-0.1254,0.2418-0.2639,0.2418-0.2639s0.2049,0.496,0.16,0.8481
	c-0.045,0.3522-0.3399,0.5605-0.3399,0.5605l-0.3677-0.698c0,0-0.1198-0.2861-0.0845-0.508
	C23.6179,29.7548,23.8085,29.5972,23.8085,29.5972L23.8085,29.5972z"/>
<path d="M22.5488,28.2623c0,0-0.0659,0.3802,0.0463,0.5992c0.1002,0.1954,0.1641,0.2383,0.1641,0.2383
	c-0.1911-0.1261-0.4801-0.137-0.4801-0.137s0.1029,0.4136,0.3487,0.6023s0.6248,0.1446,0.6248,0.1446s0.2492-0.3318,0.2319-0.6893
	c-0.0173-0.3575-0.3012-0.7407-0.3012-0.7407s-0.112,0.2323-0.1218,0.4057C22.9888,28.5067,22.5487,28.2623,22.5488,28.2623
	L22.5488,28.2623z"/>
<path d="M25.5196,34.6311l0.0102,0.1365c0.2267,0.0021,0.2604-0.0205,0.3185,0.051c0.0387,0.0476,0.1308,0.0892,0.2233,0.0469
	c0.0926-0.0422,0.1341-0.1534,0.0918-0.246c-0.0422-0.0926-0.1283-0.1127-0.2112-0.0963c-0.0509,0.01-0.0844,0.0507-0.1276,0.073
	C25.7426,34.6386,25.5195,34.6311,25.5196,34.6311L25.5196,34.6311z"/>
<path d="M25.4999,34.5269l0.1103,0.0808c-0.1183,0.1935-0.1553,0.2101-0.1254,0.2973c0.0199,0.058,0.0064,0.1581-0.0785,0.2142
	c-0.0849,0.0561-0.2012,0.0324-0.2573-0.0524c-0.0561-0.0849-0.0276-0.1684,0.0302-0.2301
	c0.0355-0.0379,0.0876-0.0448,0.1294-0.0696C25.3881,34.7199,25.4999,34.5268,25.4999,34.5269L25.4999,34.5269z"/>
<path d="M24.7321,32.9064l0.0102,0.1365c0.2267,0.0021,0.2604-0.0205,0.3185,0.051c0.0387,0.0476,0.1308,0.0892,0.2233,0.0469
	c0.0926-0.0422,0.1341-0.1534,0.0918-0.246c-0.0422-0.0926-0.1283-0.1127-0.2112-0.0963c-0.0509,0.0101-0.0844,0.0507-0.1275,0.073
	C24.9551,32.9139,24.7321,32.9065,24.7321,32.9064L24.7321,32.9064z"/>
<path d="M24.778,32.9547l0.0965,0.0971c-0.147,0.1726-0.1861,0.1834-0.1702,0.2741c0.0106,0.0605-0.0183,0.1572-0.1109,0.1995
	c-0.0926,0.0422-0.2037,0.0008-0.246-0.0918c-0.0422-0.0926-0.0011-0.1707,0.0656-0.2227c0.0409-0.0318,0.0936-0.0306,0.1386-0.0485
	C24.6376,33.1281,24.778,32.9547,24.778,32.9547L24.778,32.9547z"/>
<path d="M23.969,31.2918l0.0102,0.1365c0.2267,0.0021,0.2604-0.0204,0.3186,0.051c0.0387,0.0475,0.1307,0.0891,0.2233,0.0468
	c0.0925-0.0422,0.134-0.1534,0.0918-0.246c-0.0423-0.0926-0.1283-0.1126-0.2113-0.0963c-0.0509,0.0101-0.0844,0.0507-0.1276,0.073
	C24.1919,31.2992,23.9689,31.2917,23.969,31.2918L23.969,31.2918z"/>
<path d="M24.0319,31.2632l0.0964,0.0971c-0.147,0.1727-0.186,0.1834-0.1702,0.2741c0.0106,0.0604-0.0182,0.1572-0.1108,0.1994
	c-0.0926,0.0422-0.2037,0.0008-0.246-0.0918c-0.0422-0.0926-0.001-0.1708,0.0656-0.2227c0.0409-0.0319,0.0935-0.0306,0.1387-0.0486
	C23.8915,31.4366,24.0319,31.2632,24.0319,31.2632L24.0319,31.2632z"/>
<path d="M23.1561,29.5872l0.0102,0.1364c0.2267,0.0021,0.2605-0.0204,0.3185,0.051c0.0387,0.0476,0.1308,0.0892,0.2233,0.047
	c0.0926-0.0423,0.1341-0.1534,0.0918-0.246s-0.1283-0.1127-0.2113-0.0963c-0.0509,0.0101-0.0843,0.0507-0.1275,0.073
	C23.379,29.5946,23.156,29.5872,23.1561,29.5872L23.1561,29.5872z"/>
<path d="M23.2189,29.5586l0.0964,0.0971c-0.1469,0.1727-0.1861,0.1834-0.1701,0.2741c0.0106,0.0604-0.0183,0.1572-0.1108,0.1994
	c-0.0926,0.0422-0.2037,0.0008-0.246-0.0918c-0.0423-0.0926-0.0011-0.1708,0.0655-0.2227c0.041-0.0318,0.0936-0.0306,0.1387-0.0486
	C23.0785,29.7321,23.2189,29.5587,23.2189,29.5586L23.2189,29.5586z"/>
<polygon class="st4" points="26.2854,36.2435 26.6731,36.455 26.5791,36.8865 26.1914,36.6749 "/>
<path class="st4" d="M24.5882,32.5021c-0.0813,0.0337-0.2018-0.32-0.2903-0.5138c-0.0908-0.1989-0.2751-0.5054-0.2228-0.5293
	c0.0575-0.0262,0.1331,0.1347,0.2261,0.3383C24.3941,32.0006,24.6643,32.4704,24.5882,32.5021L24.5882,32.5021z"/>
<path class="st4" d="M23.7537,30.6389c-0.0812,0.0338-0.1701-0.1978-0.2586-0.3916c-0.0908-0.1989-0.1792-0.3393-0.1269-0.3633
	c0.0575-0.0262,0.1424,0.148,0.2167,0.3108C23.6569,30.3526,23.8298,30.6073,23.7537,30.6389L23.7537,30.6389z"/>
<path class="st4" d="M25.6843,34.8633c-0.0638,0.0171-0.3422-0.5657-0.5673-1.0588c-0.225-0.493-0.3927-0.892-0.3403-0.9158
	c0.0575-0.0263,0.2397,0.4395,0.4649,0.9326C25.4668,34.3145,25.7321,34.8505,25.6843,34.8633L25.6843,34.8633z"/>
<path class="st8" d="M22.6607,28.4934c0,0-0.0098,0.2778,0.0821,0.4354c0.0919,0.1576,0.2972,0.2205,0.2972,0.2205
	s0.0098-0.2778-0.0821-0.4353C22.8659,28.5563,22.6607,28.4934,22.6607,28.4934z"/>
<path class="st8" d="M22.4685,29.1219c0,0,0.2413,0.0142,0.3807,0.121c0.1393,0.1068,0.1933,0.3293,0.1933,0.3293
	s-0.16,0.0162-0.2992-0.0906C22.6039,29.3748,22.4685,29.1219,22.4685,29.1219z"/>
<path class="st8" d="M23.2259,28.5609c0,0-0.0803,0.184-0.071,0.3824c0.0092,0.1984,0.125,0.422,0.125,0.422
	s0.1047-0.2382,0.0955-0.4367C23.3662,28.7302,23.2539,28.6171,23.2259,28.5609L23.2259,28.5609z"/>
<path class="st8" d="M22.8196,30.3496c0,0,0.1185,0.1654,0.3009,0.2556c0.1824,0.0902,0.4542,0.0935,0.4542,0.0935
	s-0.1357-0.176-0.3181-0.2662C23.0742,30.3424,22.8196,30.3495,22.8196,30.3496L22.8196,30.3496z"/>
<path class="st8" d="M22.8783,30.7339c0,0,0.0871,0.1706,0.2463,0.2437c0.1593,0.0732,0.4851,0.0671,0.4851,0.0671
	s-0.125-0.1594-0.2843-0.2325C23.1662,30.739,22.8782,30.7339,22.8783,30.7339L22.8783,30.7339z"/>
<path class="st8" d="M23.7954,29.8241c0,0-0.0963,0.1591-0.0868,0.3344c0.0095,0.1754,0.1245,0.367,0.1245,0.367
	s0.0809-0.2196,0.0715-0.395C23.8951,29.9551,23.7953,29.8241,23.7954,29.8241L23.7954,29.8241z"/>
<path class="st8" d="M24.1499,30.049c0,0-0.1647,0.2211-0.1884,0.4484c-0.0236,0.2272,0.0937,0.4607,0.0937,0.4607
	s0.199-0.1998,0.2226-0.427C24.3015,30.3038,24.1499,30.0491,24.1499,30.049L24.1499,30.049z"/>
<path class="st8" d="M23.6958,32.1479c0,0,0.0198,0.0817,0.0886,0.1685c0.0688,0.0868,0.1866,0.1787,0.1866,0.1787
	s0.1138-0.0366,0.2552-0.006c0.1414,0.0307,0.3295,0.1566,0.3295,0.1566s-0.2024-0.3021-0.4126-0.4196
	C23.9329,32.1087,23.6959,32.1479,23.6958,32.1479L23.6958,32.1479z"/>
<path class="st8" d="M23.675,32.6672c0,0,0.2621-0.112,0.4779-0.0831c0.2159,0.0289,0.4105,0.1995,0.4105,0.1995
	s-0.2917,0.1009-0.5076,0.0721C23.8399,32.8268,23.6749,32.6672,23.675,32.6672L23.675,32.6672z"/>
<path class="st8" d="M24.7827,31.4488c0,0-0.2318,0.2455-0.2512,0.4586c-0.0194,0.213,0.1879,0.4116,0.1879,0.4116
	s-0.0102-0.1367,0.0255-0.2266c0.0357-0.09,0.1116-0.186,0.1116-0.186s0.0323-0.1097,0.0198-0.1977
	C24.8589,31.5858,24.7827,31.4488,24.7827,31.4488L24.7827,31.4488z"/>
<path class="st8" d="M25.1153,31.7331c0,0-0.2185,0.221-0.2762,0.4577c-0.0578,0.2367,0.0451,0.4891,0.0451,0.4891
	s0.1987-0.1567,0.2564-0.3934C25.1984,32.0499,25.1152,31.7331,25.1153,31.7331L25.1153,31.7331z"/>
<path class="st8" d="M25.6624,33.1599c0,0,0.099,0.2066,0.124,0.3794c0.0252,0.1727,0.0019,0.2325,0.0019,0.2325
	s-0.1023,0.1006-0.1482,0.1597c-0.059,0.076-0.0676,0.2151-0.0676,0.2151s-0.2055-0.3054-0.1738-0.5287
	C25.4303,33.3948,25.6623,33.1599,25.6624,33.1599L25.6624,33.1599z"/>
<path class="st8" d="M26.0952,33.6379c0,0-0.2631,0.1737-0.3674,0.352c-0.1045,0.1781-0.0503,0.3607-0.0503,0.3607
	s0.1874-0.0165,0.2919-0.1947C26.0738,33.9778,26.0952,33.6379,26.0952,33.6379L26.0952,33.6379z"/>
<path class="st8" d="M24.3668,34.3718c0,0,0.3791-0.0103,0.6108,0.0466c0.2317,0.0569,0.3161,0.1811,0.3161,0.1811
	s-0.2605,0.122-0.4923,0.065C24.5697,34.6077,24.3667,34.3717,24.3668,34.3718L24.3668,34.3718z"/>
<path class="st8" d="M24.3027,33.9219c0,0,0.171,0.2652,0.3921,0.3614c0.3047,0.1325,0.6576,0.0683,0.6576,0.0683
	s-0.1917-0.2349-0.4554-0.3386C24.6332,33.9093,24.3027,33.9219,24.3027,33.9219L24.3027,33.9219z"/>
<path d="M37.2825,28.7154L37.332,28.82c0,0-0.0802,0.0275-0.1166,0.0987c-0.0363,0.0713,0.0237,0.1719,0.0237,0.1719
	s-0.4168-0.0364-0.4819,0.0059c-0.059,0.0382,0.025,0.3269-0.0139,0.5708c-0.0541,0.3399-0.1881,0.3114-0.1936,0.3772
	c-0.0053,0.064,0.0514,0.1639,0.0514,0.1639s-0.0782,0.0246-0.0948,0.0573c-0.0268,0.0525,0.0187,0.1495-0.0138,0.2133
	c-0.1813,0.3558-0.4491,0.8811-0.6261,1.2286c-0.0247,0.0485-0.0912,0.067-0.1245,0.1323
	c-0.0307,0.0603-0.0059,0.1481-0.0059,0.1481s-0.1173,0.007-0.158,0.0869c-0.0433,0.0849-0.0178,0.1995-0.0178,0.1995
	s-0.0742,0.0095-0.1107,0.081c-0.0389,0.0764,0.027,0.1165,0.01,0.1501c-0.238,0.4669-0.5183,1.0173-0.6894,1.353
	c-0.0629,0.1234-0.2831,0.1482-0.4109,0.399c-0.124,0.2433,0.0533,0.4227,0.0533,0.4227s-0.1841,0.0167-0.233,0.1126
	c-0.0499,0.0978-0.0104,0.2463,0.1225,0.314c0.1329,0.0677,0.2781,0.0129,0.3279-0.0849c0.0489-0.096-0.0494-0.2548-0.0494-0.2548
	s0.2494,0.0359,0.3733-0.2074c0.1278-0.2508,0.0201-0.4414,0.083-0.5649c0.1711-0.3357,0.4514-0.886,0.6893-1.353
	c0.0172-0.0336,0.0875-0.0045,0.1264-0.0809c0.0364-0.0715,0-0.1363,0-0.1363s0.1089-0.0475,0.1521-0.1324
	c0.0407-0.0799-0.0217-0.1797-0.0217-0.1797s0.0858-0.0306,0.1165-0.0908c0.0333-0.0653,0.0088-0.1292,0.0335-0.1778
	c0.1771-0.3475,0.4449-0.8727,0.6262-1.2285c0.0325-0.0639,0.1372-0.0857,0.1639-0.1383c0.0167-0.0326-0.0098-0.1106-0.0098-0.1106
	s0.1153-0.0114,0.1639-0.0534c0.0501-0.0431-0.0516-0.1357,0.1916-0.3792c0.1745-0.1747,0.4559-0.2775,0.4523-0.3476
	c-0.0041-0.0776-0.2785-0.393-0.2785-0.393s0.1158-0.0098,0.1521-0.0809c0.0363-0.0712,0.0119-0.1541,0.0119-0.1541l0.1145-0.0198
	l0-0.5432L37.2825,28.7154z M33.4962,36.2804c-0.0173,0.0338-0.0205,0.0801,0,0.1204c0,0-0.1382-0.0432-0.1857-0.0198
	c-0.0447,0.0221,0,0.6736,0,0.6736s0.5515-0.3479,0.5431-0.397c-0.0089-0.0522-0.1244-0.1402-0.1244-0.1402
	c0.0447-0.0072,0.0795-0.0352,0.0968-0.0691c0.0181-0.0357,0.0206-0.1377-0.1047-0.2015c-0.0469-0.0239-0.0887-0.031-0.1225-0.0276
	C33.5427,36.2248,33.5076,36.2581,33.4962,36.2804L33.4962,36.2804z"/>
<path class="st4" d="M37.3829,28.7372l0.2607,0.1324l-0.0039-0.3141L37.3829,28.7372z"/>
<path class="st4" d="M37.2822,28.9269c-0.0335,0.0657-0.001,0.1499,0.0731,0.1876c0.0741,0.0377,0.16,0.0144,0.1936-0.0513
	c0.0335-0.0657,0.0009-0.1499-0.0731-0.1876c-0.0278-0.0142-0.0569-0.0197-0.0849-0.0178
	C37.3442,28.8609,37.3031,28.8858,37.2822,28.9269L37.2822,28.9269z"/>
<path class="st4" d="M36.8338,29.1659c-0.0274,0.0177,0.0099,0.2525,0.002,0.4523c-0.0075,0.1884-0.0677,0.2414-0.1007,0.3062
	c-0.0304,0.0598-0.1402,0.1304-0.1402,0.1304l0.0908,0.0909c0,0,0.0591-0.0921,0.1521-0.2746
	c0.1097-0.2153,0.1061-0.6053,0.1383-0.6261c0.028-0.0181,0.2568-0.0751,0.2568-0.0751c0,0-0.21-0.0113-0.3259-0.0098
	C36.8682,29.1604,36.8402,29.1618,36.8338,29.1659z"/>
<path class="st4" d="M36.8577,30.2502c0,0,0.0304-0.0844,0.1363-0.2923c0.1277-0.2507,0.4004-0.4326,0.4068-0.478
	c0.0066-0.0468-0.0948-0.2666-0.0948-0.2666s-0.2406,0.0461-0.2746,0.079c-0.0329,0.0318-0.0184,0.3575-0.1461,0.6083
	c-0.1059,0.2079-0.158,0.2844-0.158,0.2844L36.8577,30.2502z"/>
<path class="st4" d="M37.472,29.4977c0.002,0.0382-0.3149,0.2647-0.4247,0.4799c-0.093,0.1825-0.1323,0.2845-0.1323,0.2845
	l0.1264,0.0198c0,0-0.0087-0.1299,0.0217-0.1896c0.033-0.0647,0.0416-0.1439,0.1896-0.2607c0.157-0.1238,0.3691-0.232,0.3674-0.2647
	c-0.0016-0.0302-0.237-0.3219-0.237-0.3219S37.4702,29.4645,37.472,29.4977L37.472,29.4977z"/>
<path class="st4" d="M36.5437,30.9059c0.1904-0.3738,0.2486-0.3992,0.2726-0.4464c0.0258-0.0506,0.0196-0.1188-0.0652-0.162
	c-0.0318-0.0162-0.0591-0.0203-0.0829-0.0177c-0.0399,0.0043-0.0689,0.0296-0.0849,0.0612c-0.024,0.0471-0.011,0.1102-0.2015,0.484
	l-0.4326,0.8473c0,0-0.0453,0.0832,0.0395,0.1264c0.0848,0.0432,0.1225-0.0435,0.1225-0.0435L36.5437,30.9059z"/>
<path class="st4" d="M35.7794,31.8777c-0.0236,0.0463,0.0168,0.1144,0.0909,0.1521c0.074,0.0377,0.1542,0.0305,0.1777-0.0158
	c0.0236-0.0463-0.0187-0.1144-0.0928-0.1521c-0.037-0.0189-0.0747-0.0265-0.1067-0.0237
	C35.8165,31.8411,35.7912,31.8546,35.7794,31.8777z"/>
<path class="st4" d="M35.6193,32.1187c-0.0306,0.0599,0.0171,0.146,0.1067,0.1917c0.0896,0.0456,0.1867,0.0342,0.2173-0.0257
	c0.0306-0.06-0.0171-0.1459-0.1067-0.1916c-0.0336-0.0171-0.0669-0.0261-0.0987-0.0276
	C35.6847,32.0629,35.6384,32.0812,35.6193,32.1187L35.6193,32.1187z"/>
<path class="st4" d="M35.5186,32.3874c-0.0236,0.0463,0.0169,0.1143,0.0909,0.1521c0.074,0.0377,0.1541,0.0305,0.1778-0.0158
	c0.0236-0.0463-0.0169-0.1144-0.0909-0.1521c-0.037-0.0189-0.0766-0.0265-0.1086-0.0237
	C35.5558,32.3506,35.5304,32.3642,35.5186,32.3874L35.5186,32.3874z"/>
<path class="st4" d="M35.4534,32.6441c0,0-0.4803,0.9453-0.6497,1.2779c-0.0542,0.1063-0.2821,0.1725-0.3714,0.3477
	c-0.0899,0.1762-0.0265,0.3412,0.0908,0.4009c0.1173,0.0598,0.2894,0.0163,0.3793-0.16c0.0892-0.1752,0.0091-0.3994,0.0632-0.5057
	c0.1695-0.3327,0.6498-1.2779,0.6498-1.2779s0.0473-0.0832-0.0375-0.1264c-0.0212-0.0108-0.0397-0.0119-0.0553-0.0099
	C35.4758,32.5968,35.4534,32.6441,35.4534,32.6441z"/>
<path class="st4" d="M34.2384,34.8385c-0.036,0.0706,0.0052,0.1647,0.0928,0.2093c0.0877,0.0447,0.1892,0.0232,0.2252-0.0474
	c0.036-0.0706-0.0072-0.1647-0.0948-0.2094c-0.0329-0.0168-0.0664-0.0246-0.0988-0.0237
	C34.3089,34.7689,34.2609,34.7944,34.2384,34.8385L34.2384,34.8385z"/>
<path class="st4" d="M33.5986,36.2823c-0.0274,0.0009-0.0501,0.0096-0.0592,0.0277c-0.0184,0.0361,0.0196,0.0931,0.0849,0.1264
	c0.0653,0.0333,0.1336,0.0302,0.1521-0.0059c0.0184-0.0362-0.0197-0.0931-0.0849-0.1264
	C33.6588,36.2874,33.6261,36.2814,33.5986,36.2823L33.5986,36.2823z"/>
<path class="st4" d="M33.3734,36.46v0.4661l0.3793-0.2726c0,0-0.0514-0.0908-0.164-0.1482
	C33.4762,36.4482,33.3734,36.46,33.3734,36.46L33.3734,36.46z"/>
<path class="st4" d="M33.6135,26.0784c0-0.2556,0.3358-0.5076,0.3358-0.5076h-8.1889c0,0,0.3358,0.2519,0.3358,0.5076v6.0954
	c0,0.1606,0.0496,0.2651,0.1284,0.3673c0.0787,0.1101,0.2465,0.2622,0.4207,0.3753c0.5378,0.3493,1.437,0.7176,2.1174,1.0271
	c0.5669,0.2579,0.7975,0.3619,1.0922,0.7269c0.2947-0.3649,0.5273-0.4689,1.0942-0.7269c0.6802-0.3095,1.5795-0.6778,2.1174-1.0271
	c0.1742-0.1131,0.342-0.2652,0.4207-0.3753c0.0788-0.1022,0.1264-0.2068,0.1264-0.3673L33.6135,26.0784z"/>
<path class="st6" d="M26.2897,29.527v-3.4487c0-0.1952-0.0988-0.314-0.0988-0.314h7.3278c0,0-0.0988,0.1189-0.0988,0.314
	l0.0021,3.4487l-3.5662,1.0803L26.2897,29.527z"/>
<path class="st9" d="M33.422,29.527l-2.2082-0.0415h-2.7159l-2.2082,0.0415v2.6468c0,0.133,0.138,0.4447,0.9343,0.8414
	c1.3161,0.6558,2.3277,0.962,2.6309,1.3352c0.3032-0.3732,1.3148-0.6794,2.6309-1.3352c0.7962-0.3967,0.9342-0.7083,0.9342-0.8414
	L33.422,29.527z"/>
<path d="M31.1604,29.3889c0,0,1.2739-0.3212,1.2739-1.6828c0-1.0634-1.2772-1.591-1.3135-1.8448
	c-0.1248,0.4391,0.4266,1.0456,0.4266,1.7638c0,0.9293-0.6854,0.9738-0.6854,0.9738c-0.1604,0-0.2254,0.1145-0.2884,0.1145
	c-0.1349-0.0141-0.1984-0.1857-0.3318-0.1857c-0.1253,0-0.2215,0.1936-0.3871,0.1936c-0.1656,0-0.2598-0.1936-0.3852-0.1936
	c-0.1333,0-0.1969,0.1716-0.3318,0.1857c-0.063,0-0.1281-0.1145-0.2884-0.1145c0,0-0.6853-0.0445-0.6853-0.9738
	c0-0.7182,0.5515-1.3248,0.4266-1.7638c-0.0362,0.2538-1.3134,0.7813-1.3134,1.8448c0,1.3616,1.2739,1.6828,1.2739,1.6828
	l-0.3634,0.6616c0,0,0.5265,0.0264,0.8059,0.2647c0.3369,0.2874,0.3041,0.8962,0.3041,1.3391c0,0.349-0.0441,0.7172-0.2232,0.869
	c-0.2404,0.2039-0.403,0.219-0.403,0.4583c0,0.1996,0.1534,0.2396,0.403,0.3714c0.3197,0.1687,0.3048,0.395,0.7801,0.395
	c0.4754,0,0.4624-0.2262,0.7822-0.395c0.2496-0.1317,0.403-0.1717,0.403-0.3714c0-0.2393-0.1626-0.2544-0.403-0.4583
	c-0.1791-0.1519-0.2232-0.5201-0.2232-0.869c0-0.4429-0.0328-1.0518,0.3041-1.3391c0.2795-0.2383,0.8058-0.2647,0.8059-0.2647
	L31.1604,29.3889z"/>
<path d="M29.8547,25.9558l-0.2213,0.6282l-0.6024-0.2864L29.3174,26.9l-0.6281,0.2232l0.6281,0.2232l-0.2864,0.6005l0.6024-0.2864
	l0.2213,0.6281l0.2232-0.6281l0.6024,0.2864l-0.2864-0.6005l0.6281-0.2232L30.394,26.9l0.2864-0.6025l-0.6024,0.2864
	L29.8547,25.9558z"/>
<path d="M28.4978,29.4857c0,0-0.7866-0.1923-1.0804-0.5807c-0.5136,0.4621-1.1278,0.6222-1.1278,0.6222s0.6407,0.2893,1.1278,0.6577
	C27.6418,29.8633,28.4978,29.4857,28.4978,29.4857L28.4978,29.4857z"/>
<path d="M31.2136,29.4857c0,0,0.856,0.3776,1.0805,0.6992c0.487-0.3685,1.1277-0.6577,1.1277-0.6577s-0.6141-0.1602-1.1277-0.6222
	C32.0002,29.2934,31.2136,29.4857,31.2136,29.4857L31.2136,29.4857z"/>
<path d="M28.8199,30.323l-0.3062,0.3061l0.3062,0.3061l0.3061-0.3061L28.8199,30.323z"/>
<path d="M30.8918,30.323l-0.3061,0.3061l0.3061,0.3061l0.3062-0.3061L30.8918,30.323z"/>
<path d="M28.7429,32.1105c0,0.3868-0.0375,0.5906-0.0375,0.5906s0.4316-0.127,0.5175-0.5649
	c0.0403-0.2053,0.0851-0.9614-0.1225-1.0903l-0.5629-0.1106C28.5983,31.0857,28.7429,31.5517,28.7429,32.1105L28.7429,32.1105z"/>
<path d="M30.6113,31.0459c-0.2076,0.1289-0.1627,0.885-0.1225,1.0903c0.0859,0.4378,0.5175,0.5649,0.5175,0.5649
	s-0.0375-0.2038-0.0375-0.5906c0-0.5588,0.1446-1.0248,0.2054-1.1752L30.6113,31.0459z"/>
<path d="M27.4157,31.0678c-0.1941,0.0487-0.3114,0.2463-0.2627,0.4405c0.0074,0.0297,0.0197,0.0571,0.0336,0.083
	c-0.0283-0.0094-0.0578-0.0157-0.0889-0.0178c-0.0125-0.0008-0.0253-0.0004-0.0375,0c-0.1837,0.0062-0.3368,0.1506-0.3496,0.3378
	c-0.0137,0.1996,0.1381,0.3715,0.3378,0.3852c0.0298,0.002,0.0588,0.0009,0.0868-0.004c-0.0172,0.0236-0.032,0.0487-0.0434,0.077
	c-0.0747,0.1857,0.0158,0.3994,0.2015,0.4741c0.1857,0.0747,0.3973-0.0178,0.472-0.2034c0.0114-0.0284,0.0178-0.056,0.0218-0.085
	c0.0171,0.0237,0.0377,0.0455,0.0612,0.0652c0.1535,0.1284,0.3832,0.1081,0.5116-0.0454c0.1284-0.1535,0.1081-0.3812-0.0455-0.5096
	c-0.0232-0.0194-0.049-0.0347-0.075-0.0474c0.0279-0.009,0.055-0.0213,0.0809-0.0375c0.1696-0.1063,0.2209-0.3322,0.1145-0.5017
	c-0.0731-0.1166-0.2015-0.1765-0.3298-0.1679c-0.0584,0.0039-0.1169,0.0221-0.1699,0.0553
	c-0.0259,0.0162-0.0489,0.0343-0.0691,0.0553c0-0.0292-0.0025-0.0592-0.0099-0.0889c-0.0426-0.1699-0.1987-0.2818-0.3674-0.2746
	C27.4647,31.059,27.44,31.0617,27.4157,31.0678L27.4157,31.0678z"/>
<path d="M31.267,32.1224c0.0392,0.3699,0.3398,0.6798,0.711,0.7683c-0.0634-0.1037-0.1055-0.2192-0.1185-0.3417
	c-0.0465-0.4387,0.2928-0.7941,0.7565-0.7941c0.0731,0,0.1439,0.009,0.2133,0.0257c-0.1635-0.268-0.4713-0.4543-0.8059-0.4543
	C31.5597,31.3265,31.2204,31.6838,31.267,32.1224z"/>
<path class="st10" d="M27.9785,27.6251c0,0.6994,0.373,1.112,0.871,1.112c0.095,0,0.1989,0.1284,0.2884,0.1284
	c0.1459,0,0.243-0.162,0.3318-0.162c0.1129,0,0.1891,0.1777,0.3851,0.1777c0.1961,0,0.2742-0.1777,0.3871-0.1777
	c0.0888,0,0.1859,0.162,0.3318,0.162c0.0895,0,0.1934-0.1284,0.2884-0.1284c0.4981,0,0.8711-0.4126,0.8711-1.112
	c0-0.5704-0.479-1.2659-0.4266-1.3787c0,0,0.9342,0.6701,0.9342,1.4596c0,1.2718-1.2898,1.5861-1.2898,1.5861l0.2903,0.6537
	c0,0-0.3998,0.06-0.6439,0.2568c-0.3256,0.2626-0.3299,0.9719-0.3299,1.4517c0,0.5652,0.021,0.8046,0.2252,0.958
	c0.2153,0.1618,0.3772,0.1966,0.3772,0.3615c0,0.1436-0.1676,0.2024-0.3852,0.2982c-0.2474,0.1091-0.2721,0.2983-0.63,0.2983
	c-0.358,0-0.3807-0.1892-0.6281-0.2983c-0.2175-0.0958-0.3852-0.1546-0.3852-0.2982c0-0.1649,0.1619-0.1997,0.3772-0.3615
	c0.2042-0.1533,0.2252-0.3928,0.2252-0.958c0-0.4798-0.0042-1.1891-0.3298-1.4517c-0.2441-0.1969-0.6439-0.2568-0.6439-0.2568
	l0.2903-0.6537c0,0-1.2897-0.3143-1.2897-1.5861c0-0.7895,0.9343-1.4596,0.9343-1.4596
	C28.4575,26.3592,27.9785,27.0547,27.9785,27.6251L27.9785,27.6251z M29.367,32.8771c-0.2534,0-0.4148,0.0535-0.4148,0.1304
	c0,0.0769,0.1614,0.1284,0.4148,0.1284c0.0675,0,0.1442-0.0393,0.1442-0.1284C29.5112,32.9184,29.4345,32.8771,29.367,32.8771
	L29.367,32.8771z M30.3447,32.8771c-0.0675,0-0.1442,0.0413-0.1442,0.1304c0,0.0891,0.0767,0.1284,0.1442,0.1284
	c0.2534,0,0.4148-0.0514,0.4148-0.1284C30.7594,32.9305,30.5981,32.8771,30.3447,32.8771L30.3447,32.8771z"/>
<path class="st10" d="M29.857,26.3787l0.1422,0.401l0.3832-0.1837l-0.1817,0.3851l0.399,0.1423l-0.399,0.1422l0.1817,0.3832
	l-0.3832-0.1817l-0.1442,0.399l-0.1422-0.399l-0.3832,0.1817l0.1817-0.3832l-0.399-0.1422l0.399-0.1423l-0.1817-0.3851
	l0.3832,0.1837L29.857,26.3787L29.857,26.3787z"/>
<path class="st10" d="M28.0771,29.5096c-0.0001,0-0.6597,0.4898-0.6597,0.4898l-0.0079,0.0098l-0.0138-0.0118l-0.7308-0.4582
	c0,0,0.4663-0.1608,0.7407-0.4404C27.6651,29.3959,28.0771,29.5096,28.0771,29.5096L28.0771,29.5096z"/>
<path class="st10" d="M33.0465,29.5392c0,0-0.4865,0.2423-0.7309,0.4582l-0.0138,0.0118l-0.0079-0.0098
	c-0.231-0.2651-0.6597-0.4898-0.6597-0.4898s0.4119-0.1136,0.6715-0.4108C32.5802,29.3784,33.0465,29.5392,33.0465,29.5392z"/>
<path class="st10" d="M28.8199,30.4692l0.16,0.1599l-0.16,0.162l-0.162-0.162L28.8199,30.4692z"/>
<path class="st10" d="M30.8918,30.4692l0.162,0.1599l-0.162,0.162l-0.16-0.162L30.8918,30.4692z"/>
<path class="st10" d="M29.0373,31.1683c0.1118,0.1543,0.0928,0.4036,0.0928,0.7506c0,0.3498-0.2627,0.4839-0.2627,0.4839
	c0-0.8409-0.0867-1.043-0.1323-1.2977L29.0373,31.1683z"/>
<path class="st10" d="M30.9767,31.105c-0.0457,0.2547-0.1323,0.4569-0.1323,1.2977c0,0-0.2627-0.134-0.2627-0.4839
	c0-0.347-0.019-0.5963,0.0928-0.7506L30.9767,31.105L30.9767,31.105z"/>
<path id="leaf" class="st10" d="M27.7949,31.4232c0.0079,0.0315,0.0087,0.0624,0.0059,0.0929
	c-0.0023,0.0252-0.009,0.0481-0.0177,0.0711c-0.0437-0.016-0.091-0.0237-0.1402-0.0237c-0.1219,0-0.231,0.0536-0.3061,0.1383
	c-0.0197-0.0174-0.0368-0.0367-0.0513-0.0593c-0.0162-0.025-0.0299-0.0524-0.0375-0.083c-0.0379-0.151,0.0544-0.3039,0.2054-0.3417
	c0.0188-0.0048,0.0386-0.0071,0.0573-0.0079C27.6413,31.2043,27.7617,31.2912,27.7949,31.4232L27.7949,31.4232z"/>
<path id="leaf_1_" class="st10" d="M28.216,31.9502c-0.0275,0.0172-0.0567,0.0276-0.0865,0.0343
	c-0.0247,0.0056-0.0486,0.0063-0.0731,0.0051c0.0017-0.0465-0.0056-0.0939-0.0208-0.1407
	c-0.0377-0.1159-0.1224-0.2031-0.2262-0.2484c0.0105-0.0241,0.0235-0.0464,0.0405-0.0671c0.0188-0.0231,0.0406-0.0446,0.0673-0.0613
	c0.1319-0.0827,0.3058-0.0421,0.3885,0.0898c0.0104,0.0164,0.0187,0.0345,0.0252,0.052
	C28.3767,31.7365,28.3313,31.8778,28.216,31.9502L28.216,31.9502z"/>
<path id="leaf_2_" class="st10" d="M27.8449,32.5135c-0.0249-0.0208-0.0437-0.0454-0.0594-0.0717
	c-0.013-0.0218-0.021-0.0443-0.0274-0.0679c0.0448-0.0128,0.0876-0.0343,0.1274-0.0632c0.0986-0.0716,0.1554-0.1792,0.1664-0.2919
	c0.0262,0.0025,0.0514,0.0081,0.0763,0.0178c0.0278,0.0107,0.055,0.0248,0.0791,0.045c0.1194,0.0999,0.1346,0.2778,0.0347,0.3972
	c-0.0124,0.0149-0.027,0.0285-0.0417,0.04C28.0978,32.6004,27.9494,32.6009,27.8449,32.5135L27.8449,32.5135z"/>
<path id="leaf_3_" class="st10" d="M27.1945,32.3347c0.0121-0.0301,0.0296-0.0556,0.0498-0.0786
	c0.0167-0.0191,0.0356-0.0336,0.0561-0.0471c0.026,0.0386,0.0597,0.0727,0.0995,0.1016c0.0986,0.0716,0.2184,0.0924,0.329,0.0681
	c0.0057,0.0257,0.0082,0.0514,0.0067,0.0781c-0.0016,0.0298-0.0066,0.06-0.0184,0.0892c-0.0581,0.1444-0.2227,0.2138-0.367,0.1557
	c-0.018-0.0072-0.0354-0.0169-0.051-0.0273C27.1901,32.6021,27.1438,32.4611,27.1945,32.3347L27.1945,32.3347z"/>
<path id="leaf_4_" class="st10" d="M27.1636,31.6609c0.0324,0.0022,0.0621,0.011,0.0901,0.0231
	c0.0233,0.01,0.043,0.0235,0.0621,0.0388c-0.0287,0.0366-0.0507,0.0792-0.0659,0.1261c-0.0377,0.1159-0.0204,0.2363,0.0369,0.3339
	c-0.0227,0.0134-0.0463,0.0237-0.0722,0.0305c-0.0288,0.0077-0.0591,0.0122-0.0905,0.0101
	c-0.1553-0.0106-0.2722-0.1457-0.2615-0.301c0.0013-0.0194,0.0051-0.0389,0.0102-0.0569
	C26.9079,31.7393,27.0277,31.6517,27.1636,31.6609L27.1636,31.6609z"/>
<circle class="st10" cx="27.6428" cy="31.9765" r="0.2726"/>
<path class="st10" d="M32.4283,31.609c-0.4525,0.0875-0.7782,0.4872-0.7308,0.954c-0.1442-0.1195-0.2497-0.2803-0.2686-0.4582
	c-0.0367-0.3464,0.2149-0.6143,0.5945-0.6143C32.1685,31.4905,32.308,31.5349,32.4283,31.609L32.4283,31.609z"/>
</svg>
