<?xml version="1.0" encoding="utf-8"?>
<!-- Generator: Adobe Illustrator 22.0.0, SVG Export Plug-In . SVG Version: 6.00 Build 0)  -->
<svg version="1.1" id="Layer_1" xmlns="http://www.w3.org/2000/svg" xmlns:xlink="http://www.w3.org/1999/xlink" x="0px" y="0px"
	 viewBox="0 0 60 60" style="enable-background:new 0 0 60 60;" xml:space="preserve">
<style type="text/css">
	.st0{clip-path:url(#SVGID_2_);fill:#003893;}
	.st1{clip-path:url(#SVGID_2_);fill:#FFFFFF;}
	.st2{clip-path:url(#SVGID_2_);fill:#DD7500;}
</style>
<g>
	<defs>
		<circle id="SVGID_1_" cx="30" cy="30" r="30"/>
	</defs>
	<clipPath id="SVGID_2_">
		<use xlink:href="#SVGID_1_"  style="overflow:visible;"/>
	</clipPath>
	<rect x="-27" class="st0" width="114" height="60"/>
	<path class="st1" d="M-27,59.04V57.6L87,7v17.48L-27,59.04z"/>
	<path class="st2" d="M-27,58.08v-0.96L87,0.96v11.76L-27,58.08z"/>
	<polygon class="st1" points="10.7368,22.6748 23.5072,21.9072 10.7368,21.1396 17.771,18.4603 10.3391,19.6572 16.4406,15.2484 
		9.5717,18.328 14.3242,12.4902 8.4864,17.2427 11.566,10.3738 7.1572,16.4752 8.3541,9.0434 5.6748,16.0776 4.9072,3.3072 
		4.1396,16.0776 1.4603,9.0434 2.6572,16.4753 -1.7516,10.3738 1.328,17.2427 -4.5098,12.4902 0.2427,18.328 -6.6262,15.2484 
		-0.5247,19.6572 -7.9566,18.4603 -0.9224,21.1396 -13.6928,21.9072 -0.9224,22.6748 -7.9566,25.3541 -0.5248,24.1572 
		-6.6262,28.566 0.2427,25.4864 -4.5098,31.3242 1.328,26.5717 -1.7516,33.4406 2.6572,27.3391 1.4603,34.771 4.1396,27.7368 
		4.9072,40.5072 5.6748,27.7368 8.3541,34.771 7.1572,27.3392 11.566,33.4406 8.4864,26.5717 14.3242,31.3242 9.5717,25.4864 
		16.4406,28.566 10.3392,24.1572 17.771,25.3541 	"/>
</g>
</svg>
