<?xml version="1.0" encoding="utf-8"?>
<!-- Generator: Adobe Illustrator 22.0.0, SVG Export Plug-In . SVG Version: 6.00 Build 0)  -->
<svg version="1.1" id="Layer_1" xmlns="http://www.w3.org/2000/svg" xmlns:xlink="http://www.w3.org/1999/xlink" x="0px" y="0px"
	 viewBox="0 0 60 60" style="enable-background:new 0 0 60 60;" xml:space="preserve">
<style type="text/css">
	.st0{fill:#D20000;}
	.st1{fill:#FFE600;}
	.st2{fill:none;stroke:#FFFF00;stroke-width:0.0157;stroke-miterlimit:10;}
</style>
<g>
	<path class="st0" d="M24.2187,59.4416h0.0003c0.0003,0,0.0009,0.0003,0.0012,0.0003c1.8683,0.3722,3.7997,0.5542,5.7748,0.5542
		c1.8233,0,3.6087-0.1639,5.3426-0.4756c0.1195-0.0214,0.2387-0.0438,0.3576-0.0667c0.0596-0.0115,0.1192-0.023,0.1785-0.0348
		v-0.0003c0.0003,0,0.0009-0.0003,0.0012-0.0003c0.0043-0.0009,0.0084-0.0016,0.0127-0.0025c0.0003,0,0.0003,0,0.0006,0
		c7.3671-1.4681,13.7613-5.6348,18.1089-11.4254c0.0602-0.0804,0.1201-0.1608,0.1794-0.2418
		c0.0298-0.0404,0.0596-0.081,0.0891-0.1217c0.059-0.081,0.1177-0.1624,0.1757-0.2443c0.0236-0.0329,0.0472-0.0661,0.0705-0.0993
		c0.059-0.0829,0.117-0.1661,0.1748-0.2499c0.0506-0.0733,0.1009-0.1465,0.1509-0.2201c0.0301-0.0444,0.0599-0.0888,0.0897-0.1335
		c0.0199-0.0289,0.0391-0.0581,0.0584-0.0872c0.0419-0.0627,0.0832-0.1254,0.1245-0.1884c0.0283-0.0422,0.0556-0.0848,0.0829-0.1273
		c0.0295-0.045,0.0584-0.09,0.0872-0.1354c0.0289-0.0453,0.0577-0.0907,0.0863-0.136c0.2294-0.3629,0.4514-0.7311,0.6656-1.1046
		c0.1108-0.1934,0.2198-0.3884,0.3263-0.5846c0.0199-0.036,0.0394-0.0717,0.0584-0.1077c0.0407-0.0754,0.081-0.1512,0.1211-0.2269
		c0.0295-0.0559,0.0587-0.1118,0.0879-0.1676c0.0332-0.064,0.0661-0.1279,0.099-0.1922v-0.0003
		c1.6243-3.1806,2.6972-6.6894,3.0937-10.4006c0-0.0003,0-0.0003,0-0.0006c0.1056-0.9919,0.1633-1.9984,0.1701-3.0167
		c0.0003-0.068,0.0006-0.136,0.0006-0.204c0-0.23-0.0025-0.4595-0.0078-0.6883c-0.0133-0.597-0.0444-1.1894-0.0925-1.7771
		c-0.0071-0.0885-0.0146-0.177-0.0227-0.2651c0-0.0003,0-0.0003,0-0.0006c-0.0841-0.9301-0.2102-1.8481-0.3772-2.7519
		c-0.0121-0.0652-0.0245-0.1307-0.0369-0.1956c-0.3868-2.0201-0.9764-3.9683-1.7466-5.822
		c-0.2366-0.5691-0.4899-1.1291-0.7597-1.6799c-0.1267-0.2586-0.2571-0.515-0.3912-0.7693
		c-0.0239-0.0459-0.0481-0.0919-0.0726-0.1375c-0.0363-0.0686-0.0733-0.1369-0.1105-0.2052
		c-0.0273-0.0509-0.0553-0.1018-0.0832-0.1524c-0.0326-0.0596-0.0655-0.1189-0.0987-0.1779
		c-0.0165-0.0295-0.0326-0.0587-0.0497-0.0882c-0.0208-0.0376-0.0422-0.0748-0.0636-0.1124
		c-0.0189-0.0332-0.0379-0.0664-0.0571-0.0997c-0.0363-0.063-0.0726-0.1257-0.1093-0.1884
		c-0.0366-0.0627-0.0736-0.1254-0.1105-0.1878c-0.0537-0.0907-0.108-0.181-0.1627-0.2707
		c-0.0351-0.0577-0.0705-0.1155-0.1059-0.1729c-0.0435-0.0705-0.0875-0.1406-0.1316-0.2108
		c-0.0422-0.0671-0.0848-0.1341-0.1276-0.2009c-0.0019-0.0031-0.0037-0.0059-0.0056-0.0087
		c-0.0127-0.0199-0.0251-0.0397-0.0382-0.0599c-0.0087-0.0133-0.0174-0.0267-0.0264-0.0404
		c-0.0546-0.0848-0.1099-0.1692-0.1655-0.2533c-0.0158-0.0236-0.0317-0.0475-0.0475-0.0711c0,0,0,0,0-0.0003l-0.0003-0.0003
		c0.0003-0.0003,0.0003-0.0003,0-0.0003c-0.0028-0.0043-0.0056-0.0084-0.0084-0.0127c-0.04-0.0602-0.0804-0.1205-0.1211-0.1801
		c-0.0233-0.0348-0.0469-0.0692-0.0705-0.1037c-0.0071-0.0102-0.0143-0.0208-0.0214-0.031v-0.0003
		c-0.0332-0.0487-0.0667-0.0975-0.1003-0.1459c-0.0006-0.0006-0.0009-0.0012-0.0016-0.0019
		c-0.0075-0.0112-0.0152-0.0224-0.023-0.0335c0.0003-0.0003,0.0003-0.0003,0-0.0003c-0.0155-0.022-0.0307-0.0438-0.0463-0.0658
		c-0.0028-0.004-0.0056-0.0084-0.0087-0.0124c-0.0025-0.0037-0.0053-0.0078-0.0081-0.0115
		c-0.0205-0.0295-0.041-0.0584-0.0615-0.0875c-0.0205-0.0292-0.041-0.0581-0.0615-0.0872
		c-0.0155-0.0217-0.0314-0.0435-0.0469-0.0652c-0.0469-0.0661-0.0944-0.1319-0.1422-0.1974
		C49.9381,6.4225,43.4735,2.1245,35.9993,0.6061l-0.0009,0.0037c-1.8183-0.3722-3.6969-0.5781-5.6189-0.6023
		c-0.0534-0.0009-0.1068-0.0019-0.1605-0.0028h-0.6023c-0.177,0.0022-0.3533,0.0059-0.5296,0.0112
		c-0.9394,0.0286-1.868,0.1006-2.7839,0.2127c-0.0571,0.0071-0.1142,0.0143-0.1714,0.0217
		c-0.6858,0.0875-1.3641,0.1978-2.0344,0.3288H24.097c-0.0003,0-0.0006,0-0.0009,0.0003V0.5791h-0.0003v0.0003l0.0012,0.0043v0.0006
		h-0.0003C16.5892,2.0811,10.0929,6.3799,5.7431,12.3447c-0.0456,0.0627-0.0913,0.1257-0.1363,0.1888
		c-0.0453,0.063-0.0903,0.1264-0.135,0.1897c-0.0351,0.0497-0.0702,0.0997-0.1049,0.1496c-0.0224,0.032-0.0447,0.064-0.0667,0.0962
		c-0.0317,0.0456-0.063,0.0913-0.0944,0.1372c-0.0438,0.064-0.0875,0.1285-0.1307,0.1931s-0.0863,0.1292-0.1292,0.194
		c-0.041,0.0621-0.082,0.1245-0.1226,0.1869c-0.0019,0.0028-0.0037,0.0056-0.0053,0.0084
		c-0.0422,0.0652-0.0844,0.1307-0.1264,0.1962c-0.0087,0.0137-0.0174,0.0273-0.0261,0.041
		c-0.0332,0.0518-0.0661,0.104-0.0987,0.1565c-0.0012,0.0019-0.0022,0.0034-0.0034,0.0053
		c-0.0006,0.0012-0.0016,0.0022-0.0022,0.0034c-0.0363,0.0581-0.0726,0.1164-0.1087,0.1751
		c-0.009,0.014-0.0177,0.0279-0.0261,0.0422c-0.0019,0.0031-0.0037,0.0059-0.0056,0.009c-0.0087,0.014-0.0174,0.0276-0.0258,0.0416
		c-0.0283,0.0459-0.0562,0.0922-0.0841,0.1385c-0.0019,0.0031-0.0034,0.0059-0.0053,0.0087
		c-0.0124,0.0205-0.0245,0.0407-0.0366,0.0612c-0.04,0.0664-0.0798,0.1332-0.1192,0.1999c-0.0012,0.0022-0.0025,0.004-0.0037,0.0062
		c-0.0053,0.009-0.0106,0.0177-0.0158,0.0267c-0.0245,0.0419-0.0491,0.0838-0.0736,0.1257
		c-0.0273,0.0469-0.0546,0.0938-0.0817,0.1409c-0.027,0.0469-0.054,0.0941-0.0807,0.1413
		c-0.0096,0.0165-0.0189,0.0329-0.0279,0.0494c-0.0056,0.0099-0.0115,0.0199-0.0171,0.0301
		c-0.0099,0.0174-0.0196,0.0348-0.0295,0.0525c-0.0286,0.0506-0.0568,0.1012-0.0848,0.1518
		c-0.0528,0.0953-0.1049,0.1906-0.1565,0.2866c-0.0171,0.0314-0.0338,0.0627-0.0506,0.0944
		c-0.0385,0.0714-0.0764,0.1431-0.1139,0.2148c-0.0214,0.041-0.0428,0.082-0.0643,0.1233c-0.036,0.0692-0.0717,0.1388-0.1071,0.2086
		c-0.0354,0.0699-0.0708,0.1394-0.1056,0.2096c-0.0273,0.055-0.0546,0.1099-0.0817,0.1649
		c-1.5759,3.2089-2.5954,6.7403-2.9323,10.4686c-0.0155,0.1689-0.0292,0.3384-0.0419,0.5082
		c-0.0124,0.1698-0.0236,0.3399-0.0332,0.5107c-0.0062,0.1139-0.0121,0.2276-0.0174,0.3418
		c-0.005,0.1142-0.0096,0.2285-0.0133,0.3427c-0.0118,0.3434-0.0177,0.688-0.0177,1.0338c0,1.0903,0.0581,2.167,0.1717,3.2272
		c0.23,2.1499,0.687,4.2321,1.3471,6.2219C2,40.9005,2.5892,42.3032,3.2769,43.6468c0.7879,1.5392,1.7047,3.0015,2.7367,4.3722
		c0.2692,0.3576,0.5467,0.7091,0.832,1.054c0.0466,0.0568,0.0934,0.1136,0.1406,0.1698c0.0823,0.0987,0.1652,0.1965,0.2493,0.294
		c0.0255,0.0298,0.0512,0.0596,0.0767,0.0891c0.0438,0.0509,0.0879,0.1012,0.1323,0.1518c0.2872,0.3272,0.5806,0.6482,0.8814,0.9624
		c0,0.0003,0,0.0003,0,0.0003c0.0789,0.0816,0.1574,0.163,0.2366,0.244c0.0792,0.081,0.159,0.1614,0.2394,0.2415
		c0.04,0.0401,0.0804,0.0801,0.1208,0.1198c0.1208,0.1195,0.2428,0.2378,0.366,0.3552c3.6898,3.5218,8.2765,6.1119,13.3828,7.3932
		c0.5104,0.1279,1.0264,0.2431,1.547,0.3446l-0.0006,0.0028H24.2187z"/>
	<path class="st1" d="M21.6242,23.3489l-0.3983,0.6752l-0.8454,1.4321L20.3681,25.45L3.0555,16.7939
		c0.7684-1.5647,1.6693-3.0527,2.6876-4.4492L21.6242,23.3489z"/>
	<path class="st1" d="M21.6242,37.2024L6.0135,48.019c-1.032-1.3707-1.9487-2.8329-2.7367-4.3722l17.1024-8.5512l0.0012-0.0006
		l0.7389,1.2518L21.6242,37.2024z"/>
	<path class="st1" d="M19.1533,29.1395v2.2753L0.177,33.2267c-0.1136-1.0602-0.1745-2.1369-0.1745-3.2272
		c0-0.9227,0.0458-1.8357,0.1277-2.737L19.1533,29.1395z"/>
	<path class="st1" d="M54.2671,12.3739c1.0152,1.3955,1.913,2.8823,2.6789,4.4451l-17.2744,8.6372l-1.2437-2.1074L54.2671,12.3739z"
		/>
	<path class="st1" d="M39.6716,35.095l17.0534,8.5264v0.0003c-0.7851,1.538-1.6991,2.9987-2.7277,4.3687L38.428,37.2024
		L39.6716,35.095z"/>
	<path class="st1" d="M59.8676,27.2687c0.0813,0.8994,0.1224,1.8103,0.1224,2.7308c0,1.0882-0.0572,2.163-0.1699,3.2213
		l-18.9078-1.8059v-2.2753L59.8676,27.2687z"/>
	<path class="st1" d="M35.9983,0.6098L31.4554,19.593l-0.0006,0.004l-0.0078,0.0316h-2.8997l-0.0075-0.0313l-0.0006-0.0029
		l-4.4398-19c0.6697-0.1394,1.3474-0.2538,2.0322-0.3439c0.0571-0.0075,0.1142-0.0147,0.1714-0.0218
		c0.9158-0.1146,1.8444-0.1874,2.7839-0.2151C29.2633,0.0083,29.4396,0,29.6166,0h0.6023c0.0537,0,0.1071,0.0042,0.1605,0.0052
		C32.3014,0.0294,34.18,0.2376,35.9983,0.6098z"/>
	<path class="st1" d="M35.8837,59.4164v-0.0006l-4.4275-18.4821l-0.0047-0.0083l-0.0044-0.0079h-2.8997l-0.0012,0.0079
		l-0.0003,0.0032l-0.0022,0.009l-4.3234,18.5038l-0.0012,0.001l-0.0003,0.0069h0.0003C26.0876,59.8254,28.0196,60,29.995,60
		c1.7094,0,3.3855-0.1477,5.017-0.4247c0.0487-0.0081,0.0975-0.0155,0.1459-0.0239c0.0059-0.0009,0.0115-0.0014,0.0171-0.0026
		c0.0543-0.0093,0.1083-0.0187,0.1627-0.0286c0.1195-0.0214,0.2387-0.0437,0.3576-0.0666c0.0596-0.0115,0.1169-0.0229,0.1762-0.0347
		L35.8837,59.4164z"/>
	<circle class="st0" cx="29.9991" cy="30.2616" r="10.764"/>
	<circle class="st1" cx="29.9991" cy="30.2458" r="8.957"/>
	<path class="st2" d="M60.0003,29.6555v0.0019c0,0.1139-0.0028,0.2279-0.0028,0.3421c0,0.0338-0.0031,0.068-0.0037,0.1021
		c-0.0003,0.0338-0.0022,0.0677-0.0025,0.1018c-0.0003,0.0795-0.0016,0.159-0.0028,0.2384
		c-0.0006,0.0605-0.002,0.1211-0.0033,0.1813c-0.0006,0.0366-0.0013,0.0736-0.0026,0.1102
		c-0.0012,0.0615-0.0028,0.1229-0.0047,0.1841c-0.0015,0.0574-0.0034,0.1146-0.0053,0.1717
		c-0.0006,0.022-0.0016,0.0438-0.0022,0.0655c-0.0009,0.0211-0.0016,0.0422-0.0025,0.063
		c-0.0012,0.0317-0.0025,0.0633-0.0037,0.0947c-0.0006,0.0177-0.0016,0.0354-0.0025,0.0531
		c-0.0012,0.0351-0.0031,0.0699-0.0047,0.1046c-0.0031,0.0633-0.0062,0.1267-0.0096,0.1897
		c-0.0028,0.0543-0.0056,0.1087-0.009,0.1627c-0.0075,0.1341-0.0161,0.2679-0.0255,0.4014
		c-0.0096,0.1335-0.0202,0.2667-0.0317,0.3999c-0.0168,0.1996-0.0331,0.3986-0.0542,0.597
		c-0.3965,3.7112-1.4717,7.22-3.0852,10.4006v0.0003c-0.235,0.4325-0.4642,0.859-0.7064,1.2791
		c-0.2155,0.3735-0.4387,0.7417-0.6672,1.1046c-0.0286,0.0453-0.0582,0.0906-0.0871,0.136
		c-0.0289,0.0453-0.0581,0.0903-0.0876,0.1354c-0.3766,0.5855-0.7729,1.1571-1.1908,1.7137
		c-4.3483,5.7919-10.7462,9.9585-18.1149,11.426c-0.0034,0.0006-0.0066,0.0012-0.01,0.0019c-0.0003,0-0.0025,0.0003-0.0028,0.0003
		c-0.0003,0-0.0009,0.0003-0.0013,0.0003c-1.9009,0.3775-3.8667,0.5772-5.8788,0.5772c-1.9754,0-3.9074-0.1785-5.776-0.5544h-0.0006
		c-0.0003,0-0.0003,0-0.0006,0c-0.5203-0.1097-1.036-0.2186-1.5464-0.3474c-5.1064-1.289-9.6931-3.8742-13.3828-7.3932
		c-0.1232-0.1173-0.2453-0.2356-0.366-0.3552c-0.0404-0.0397-0.0807-0.0798-0.1208-0.1198
		c-0.0804-0.0801-0.1547-0.1605-0.2339-0.2415c-0.0792-0.081-0.1687-0.1624-0.2314-0.244c0,0,0,0,0-0.0003
		c-0.3133-0.3145-0.6037-0.6352-0.8915-0.9624c-0.0444-0.0506-0.0887-0.1009-0.1325-0.1518
		c-0.0255-0.0295-0.0514-0.0593-0.0768-0.0891c-0.0841-0.0975-0.1671-0.1953-0.2494-0.294
		c-0.0472-0.0562-0.0941-0.113-0.1407-0.1698c-0.2831-0.3443-0.5585-0.6954-0.8274-1.0524
		c-0.0009-0.0009-0.0016-0.0022-0.0025-0.0031c-1.0307-1.37-1.949-2.832-2.7364-4.37c-0.0003-0.0006-0.0006-0.0009-0.0006-0.0016
		c-0.6877-1.343-1.2782-2.7457-1.759-4.1971c-0.66-1.9897-1.1176-4.072-1.3477-6.2219C0.0584,32.1668,0,31.0901,0,29.9998
		c0-0.3458,0.0059-0.6905,0.0174-1.0338c0.0037-0.1143,0.0084-0.2285,0.0133-0.3427c0.0053-0.1142,0.0112-0.2279,0.0174-0.3418
		c0.0096-0.1708,0.0208-0.3409,0.0332-0.5107c0.0127-0.1698,0.0264-0.3393,0.0419-0.5082
		c0.3368-3.7283,1.3564-7.2597,2.9323-10.4686c0.027-0.055,0.0543-0.1099,0.0817-0.1649c0.0348-0.0702,0.0702-0.1397,0.1056-0.2096
		c0.0354-0.0699,0.0711-0.1394,0.1071-0.2086c0.0214-0.0413,0.0428-0.0823,0.0643-0.1232c0.0376-0.0717,0.0754-0.1434,0.1139-0.2148
		c0.0168-0.0317,0.0335-0.063,0.0506-0.0944c0.0515-0.0959,0.1037-0.1912,0.1565-0.2866c0.0279-0.0506,0.0562-0.1012,0.0848-0.1518
		c0.0099-0.0177,0.0196-0.0351,0.0295-0.0525c0.0056-0.0102,0.0115-0.0202,0.0171-0.0301c0.009-0.0165,0.0183-0.0329,0.0279-0.0494
		c0.0267-0.0472,0.0537-0.0944,0.0807-0.1413c0.027-0.0472,0.0543-0.0941,0.0816-0.1409c0.0245-0.0419,0.0491-0.0838,0.0736-0.1257
		c0.0053-0.009,0.0106-0.0177,0.0158-0.0267c0.0012-0.0022,0.0025-0.004,0.0037-0.0062c0.0394-0.0667,0.0792-0.1335,0.1192-0.1999
		c0.0121-0.0205,0.0242-0.0407,0.0366-0.0612c0.0019-0.0028,0.0034-0.0056,0.0053-0.0087c0.0279-0.0463,0.0559-0.0925,0.0841-0.1385
		c0.0084-0.014,0.0171-0.0276,0.0258-0.0416c0.0177-0.0295,0.0357-0.0587,0.0537-0.0879c0-0.0003,0.0003-0.0003,0.0006-0.0006
		c0.0286-0.0459,0.0571-0.0919,0.086-0.1378c0.0007-0.0012,0.0015-0.0023,0.0022-0.0034c0.373-0.5964,0.7662-1.1828,1.1797-1.7494
		C10.0926,6.3741,16.5889,2.0756,24.0957,0.5718h0.0016c0.6703-0.1253,1.3486-0.2376,2.0344-0.3251
		c0.0571-0.0075,0.1142-0.0128,0.1714-0.0199c0.9158-0.1121,1.8444-0.1832,2.7839-0.2118c0.1763-0.0053,0.3527-0.0085,0.5296-0.0107
		c0.1257-0.0016,0.2518-0.0023,0.3778-0.0023c0.0748,0,0.1496,0.0014,0.2245,0.0026c0.0537,0.0009,0.1071,0.0019,0.1605,0.0028
		c1.922,0.0242,3.8006,0.2266,5.6189,0.5988c0.0003,0.0003,0.0006-0.0032,0.0009-0.0032h0.0003
		c7.4736,1.5352,13.9376,5.8171,18.2666,11.7679c0.0003,0.0003,0.0006,0.0039,0.0009,0.0042
		c0.0475,0.0655,0.095,0.1306,0.1422,0.1952c0.0155,0.0217,0.0314,0.0439,0.0469,0.0656c0.0413,0.0571,0.0826,0.1154,0.1229,0.175
		c0.0028,0.0037,0.0056,0.0079,0.0081,0.0116c0.0031,0.004,0.0059,0.0065,0.0087,0.0105c0.0155,0.0227,0.031,0.0514,0.0463,0.067
		c0.0003,0,0.0003,0,0.0003,0s0,0.001-0.0003,0.001c0.0075,0.0106,0.0152,0.0221,0.023,0.0326
		c0.0006,0.0006,0.0009,0.0017,0.0015,0.0023c0.0248,0.0329,0.0533,0.0657,0.0759,0.099c0.0112,0.0158,0.0098,0.0313,0.0412,0.0474
		v0.0003c0,0.0102,0.006,0.0208,0.0128,0.031c0.0236,0.0345,0.0431,0.0689,0.0663,0.1037c0.0419,0.0618,0.0815,0.1236,0.1227,0.1857
		c0.0003,0.0003-0.0003,0.0009-0.0003,0.0012c0.0012,0.0019,0.002,0.0037,0.003,0.0059c0.0003,0,0.0002,0-0.0001,0.0003
		c0,0,0.0006,0.0003,0.0003,0.0006c0.0031,0.0053,0.0084,0.0106,0.0125,0.0161c0.032,0.0481,0.0646,0.0966,0.096,0.145v0.0003
		c0.0313,0.0543,0.0704,0.1087,0.1055,0.163c0.0081,0.0118,0.0147,0.0242,0.0237,0.036c0.0003,0.0003-0.0006,0.0003-0.0002,0.0006
		c0,0.0003-0.0001,0.0006,0.0002,0.0009c0.0006,0.0009,0.001,0.0019,0.0019,0.0028c0.0146,0.0199,0.0263,0.04,0.039,0.0599
		c0.0314,0.0481,0.0648,0.0966,0.0962,0.145v0.0003c0.0627,0.0913,0.1182,0.1829,0.175,0.2751
		c0.1422,0.23,0.2636,0.462,0.4203,0.696v0.0003c0.0313,0.0934,0.1029,0.1875,0.1563,0.2816
		c0.294,0.5188,0.5643,1.0472,0.8306,1.5843v0.0003c0.2663,0.5508,0.5218,1.1108,0.7565,1.6799
		c0.7653,1.8537,1.3585,3.8018,1.7484,5.822c0.0124,0.0649,0.0277,0.1304,0.0398,0.1956c0.1683,0.9037,0.2907,1.8218,0.3847,2.7519
		c0,0.0003,0,0.0003,0,0.0006c0,0.0081-0.0007,0.0161-0.0004,0.0242c0.0003,0.0022-0.0006,0.004-0.0006,0.0059
		c0.0003,0.0009-0.0002,0.0016-0.0002,0.0025c0.0053,0.0773,0.0106,0.1549,0.0156,0.2325c0.0397,0.5877,0.0756,1.18,0.0924,1.7771
		c0.0012,0.0456,0.003,0.0916,0.0046,0.1375c0.0025,0.0686,0.0074,0.1372,0.0087,0.2058
		C59.9951,29.6549,60.0003,29.6552,60.0003,29.6555z"/>
</g>
</svg>
