<?xml version="1.0" encoding="utf-8"?>
<!-- Generator: Adobe Illustrator 22.0.0, SVG Export Plug-In . SVG Version: 6.00 Build 0)  -->
<svg version="1.1" id="Layer_1" xmlns="http://www.w3.org/2000/svg" xmlns:xlink="http://www.w3.org/1999/xlink" x="0px" y="0px"
	 viewBox="0 0 60 60" style="enable-background:new 0 0 60 60;" xml:space="preserve">
<style type="text/css">
	.st0{clip-path:url(#SVGID_2_);fill:#C4272F;}
	.st1{clip-path:url(#SVGID_4_);fill:#015197;}
	.st2{clip-path:url(#SVGID_6_);fill:#C4272F;}
	.st3{fill:#F9CF02;}
	.st4{fill:#C4272F;}
	.st5{fill:#F9CF02;stroke:#C4272F;stroke-width:0.3;}
	.st6{fill:none;stroke:#C4272F;stroke-width:0.3;}
</style>
<g>
	<g>
		<g>
			<defs>
				<circle id="SVGID_1_" cx="30" cy="30" r="30"/>
			</defs>
			<clipPath id="SVGID_2_">
				<use xlink:href="#SVGID_1_"  style="overflow:visible;"/>
			</clipPath>
			<rect x="40" class="st0" width="20" height="60"/>
		</g>
	</g>
	<g>
		<g>
			<defs>
				<circle id="SVGID_3_" cx="30" cy="30" r="30"/>
			</defs>
			<clipPath id="SVGID_4_">
				<use xlink:href="#SVGID_3_"  style="overflow:visible;"/>
			</clipPath>
			<rect x="20" class="st1" width="20" height="60"/>
		</g>
	</g>
	<g>
		<g>
			<defs>
				<circle id="SVGID_5_" cx="30" cy="30" r="30"/>
			</defs>
			<clipPath id="SVGID_6_">
				<use xlink:href="#SVGID_5_"  style="overflow:visible;"/>
			</clipPath>
			<rect class="st2" width="20" height="60"/>
		</g>
	</g>
</g>
<g>
	<circle class="st3" cx="10.5" cy="26" r="2.75"/>
	<circle class="st4" cx="10.5" cy="24.75" r="3"/>
	<circle class="st3" cx="10.5" cy="25.25" r="2"/>
	<path class="st3" d="M9.25,21.5c0,0.6904,0.5596,1.25,1.25,1.25s1.25-0.5596,1.25-1.25c0-0.5-0.3125-0.5625-0.3125-0.75
		S11.625,20.3125,11.25,20c0.1875,0.3125-0.125,0.375-0.125,0.6875S11.25,21,11.25,21.25c0,0.1381-0.1119,0.25-0.25,0.25
		s-0.25-0.1119-0.25-0.25c0-0.25,0.25-0.5,0.25-0.875s-0.0625-0.5-0.25-0.8125S10.25,19,10.5,18.75
		c-0.375,0.125-0.1875,0.625-0.1875,0.9375s-0.25,0.5-0.25,0.875S10.25,21,10.25,21.25c0,0.1381-0.1119,0.25-0.25,0.25
		s-0.25-0.1119-0.25-0.25c0-0.25,0.125-0.25,0.125-0.5625S9.5625,20.3125,9.75,20c-0.375,0.3125-0.1875,0.5625-0.1875,0.75
		S9.25,21,9.25,21.5z"/>
	<path class="st3" d="M5,29.25v12h2.5v-12H5z M13.5,29.25v12H16v-12H13.5z M8,31.25v1h5v-1H8z M8,38.25v1h5v-1H8z M8,29.25h5
		l-2.5,1.5L8,29.25z M8,39.75h5l-2.5,1.5L8,39.75z"/>
	<circle class="st5" cx="10.5" cy="35.25" r="2.65"/>
	<path class="st6" d="M10.5,32.6c0.7318,0,1.325,0.5932,1.325,1.325S11.2318,35.25,10.5,35.25s-1.325,0.5932-1.325,1.325
		S9.7682,37.9,10.5,37.9"/>
	<g>
		<circle class="st4" cx="10.5" cy="33.925" r="0.5"/>
		<circle class="st4" cx="10.5" cy="36.575" r="0.5"/>
	</g>
</g>
</svg>
