<?xml version="1.0" encoding="utf-8"?>
<!-- Generator: Adobe Illustrator 21.1.0, SVG Export Plug-In . SVG Version: 6.00 Build 0)  -->
<svg version="1.1" id="Layer_1" xmlns="http://www.w3.org/2000/svg" xmlns:xlink="http://www.w3.org/1999/xlink" x="0px" y="0px"
	 viewBox="0 0 60 60" style="enable-background:new 0 0 60 60;" xml:space="preserve">
<style type="text/css">
	.st0{fill:#00785E;}
	.st1{fill:#FBD116;}
	.st2{fill:#FFFFFF;}
</style>
<circle class="st0" cx="30" cy="30" r="30"/>
<g>
	<polygon class="st1" points="30,14.5259 28.311,19.7251 32.7336,16.5121 27.2664,16.5121 31.689,19.7251 	"/>
	<polygon class="st1" points="19.0202,22.5755 17.4222,26.0038 20.7297,24.1692 16.9761,23.7086 19.7422,26.2882 	"/>
	<polygon class="st1" points="21.7573,18.0105 22.8632,21.6279 24.095,18.0506 20.9961,20.2206 24.7787,20.2862 	"/>
	<g>
		<path class="st2" d="M24.2125,44.3708c1.7912,0.7119,3.7437,1.1033,5.7875,1.1033s3.9964-0.3915,5.7875-1.1033H30H24.2125z"/>
		<path class="st2" d="M19.7966,41.701c0.276,0.2366,0.56,0.4639,0.8522,0.6811H30h9.3512
			c0.2922-0.2172,0.5762-0.4445,0.8522-0.6811H30H19.7966z"/>
		<path class="st2" d="M21.6423,43.0631c0.5061,0.3193,1.0313,0.6109,1.5742,0.8717H30h6.7835
			c0.5429-0.2608,1.0681-0.5524,1.5742-0.8717H30H21.6423z"/>
		<path class="st2" d="M18.4182,40.3661c0.1353,0.1479,0.2739,0.2933,0.4146,0.4359H30h11.1672
			c0.1408-0.1427,0.2794-0.2881,0.4146-0.4359H30H18.4182z"/>
		<path class="st2" d="M35.8026,37.1786c-0.5363,0-1.0616-0.0479-1.5716-0.1396c0.2397,0.0196,0.4823,0.0307,0.7271,0.0307
			c3.7796,0,7.0073-2.3764,8.2709-5.7151c-1.2297-0.5128-2.5787-0.796-3.9936-0.796c-2.5318,0-4.8531,0.9072-6.6566,2.4136
			c1.8885-1.9701,4.5438-3.1992,7.4851-3.2037c0.1883-0.3647,0.4381-0.6924,0.7356-0.9697
			c-0.1572-0.007-0.3154-0.0111-0.4742-0.0111c-2.9569,0-5.6262,1.2371-7.5191,3.2215c1.0869-1.4685,1.7299-3.285,1.7299-5.2511
			c0-1.5807-0.4157-3.0644-1.1434-4.3487c-0.1608,0.5361-0.4458,1.0186-0.8207,1.4149c0.543,1.1459,0.8471,2.4268,0.8471,3.7783
			c0,2.0347-0.6889,3.9092-1.8457,5.4035c0.942-1.4055,1.4916-3.0954,1.4916-4.9132c0-0.8757-0.1277-1.7217-0.3652-2.5206
			c-0.6347-2.134-1.9811-3.526-2.6997-4.1702c-0.7186,0.6442-2.0651,2.0362-2.6997,4.1702
			c-0.2375,0.7989-0.3652,1.6449-0.3652,2.5206c0,1.8178,0.5496,3.5077,1.4916,4.9132c-1.1568-1.4943-1.8457-3.3688-1.8457-5.4035
			c0-1.3515,0.3041-2.6325,0.8471-3.7783c-0.3749-0.3963-0.6599-0.8787-0.8207-1.4149c-0.7277,1.2844-1.1434,2.768-1.1434,4.3487
			c0,1.9661,0.643,3.7826,1.7299,5.2511c-1.8929-1.9844-4.5622-3.2215-7.5191-3.2215c-0.1588,0-0.3171,0.004-0.4742,0.0111
			c0.2976,0.2773,0.5473,0.605,0.7356,0.9697c2.9413,0.0045,5.5966,1.2336,7.4851,3.2037
			c-1.8035-1.5064-4.1249-2.4136-6.6566-2.4136c-1.4149,0-2.7639,0.2832-3.9936,0.796c1.2636,3.3387,4.4913,5.7151,8.2709,5.7151
			c0.2448,0,0.4874-0.0111,0.7271-0.0307c-0.51,0.0916-1.0353,0.1396-1.5716,0.1396c-2.3848,0-4.5494-0.9458-6.1401-2.4824
			c-0.3311,0.1274-0.6862,0.207-1.0565,0.229c1.6202,1.8325,3.9878,2.9891,6.6243,2.9891c2.5043,0,4.766-1.0432,6.3749-2.7184
			c1.6089,1.6752,3.8706,2.7184,6.3749,2.7184c2.6365,0,5.0041-1.1566,6.6243-2.9891c-0.3703-0.022-0.7254-0.1015-1.0565-0.229
			C40.352,36.2328,38.1875,37.1786,35.8026,37.1786z"/>
		<path class="st2" d="M33.5408,38.2179C31.804,37.6925,30.6266,36.7423,30,36.1493c-0.6266,0.593-1.804,1.5432-3.5408,2.0686
			c-0.8109,0.2454-1.6708,0.3772-2.5616,0.3772h-6.8798c0.2028,0.298,0.4154,0.5889,0.6377,0.8717h6.6507
			c2.1686,0.0001,4.1553-0.7822,5.6938-2.0797c1.5385,1.2974,3.5252,2.0798,5.6938,2.0797h6.6507
			c0.2223-0.2828,0.4349-0.5737,0.6377-0.8717h-6.8798C35.2117,38.5951,34.3517,38.4633,33.5408,38.2179z"/>
	</g>
	<polygon class="st1" points="40.9798,22.5755 42.5778,26.0038 39.2703,24.1692 43.0239,23.7086 40.2579,26.2882 	"/>
	<polygon class="st1" points="38.2427,18.0105 37.1368,21.6279 35.905,18.0506 39.0039,20.2206 35.2213,20.2862 	"/>
</g>
</svg>
