<?xml version="1.0" encoding="utf-8"?>
<!-- Generator: Adobe Illustrator 22.0.0, SVG Export Plug-In . SVG Version: 6.00 Build 0)  -->
<svg version="1.1" id="Layer_1" xmlns="http://www.w3.org/2000/svg" xmlns:xlink="http://www.w3.org/1999/xlink" x="0px" y="0px"
	 viewBox="0 0 60 60" style="enable-background:new 0 0 60 60;" xml:space="preserve">
<style type="text/css">
	.st0{clip-path:url(#SVGID_2_);}
	.st1{fill:#0071BC;}
	.st2{fill:#FFFFFF;stroke:#000000;stroke-width:0.1534;}
	.st3{fill:none;stroke:#000000;stroke-width:0.1534;}
	.st4{fill:#F7DF73;stroke:#000000;stroke-width:0.1918;stroke-linejoin:round;}
	.st5{fill:#F7DF73;stroke:#000000;stroke-width:0.1926;stroke-linejoin:round;}
	.st6{fill:#8C1800;}
	.st7{fill:#8C1800;stroke:#8C1800;stroke-width:0.1918;}
	.st8{fill:#8C1800;stroke:#8C1800;stroke-width:0.1926;}
	.st9{fill:none;stroke:#8C1800;stroke-width:0.2493;stroke-linecap:round;}
	.st10{fill:none;stroke:#8C1800;stroke-width:0.2301;stroke-linecap:round;}
	.st11{fill:none;stroke:#8C1800;stroke-width:0.2109;stroke-linecap:round;}
	.st12{fill:none;stroke:#8C1800;stroke-width:0.1918;stroke-linecap:round;}
	.st13{fill:none;stroke:#8C1800;stroke-width:0.1151;stroke-linecap:round;}
	.st14{fill:none;stroke:#8C1800;stroke-width:0.2504;stroke-linecap:round;}
	.st15{fill:none;stroke:#8C1800;stroke-width:0.2311;stroke-linecap:round;}
	.st16{fill:none;stroke:#8C1800;stroke-width:0.2119;stroke-linecap:round;}
	.st17{fill:none;stroke:#8C1800;stroke-width:0.1926;stroke-linecap:round;}
	.st18{fill:none;stroke:#8C1800;stroke-width:0.1156;stroke-linecap:round;}
	.st19{fill:#217900;stroke:#000000;stroke-width:0.1534;stroke-linejoin:round;}
	.st20{fill:none;stroke:#6B18B5;stroke-width:0.1534;stroke-linejoin:round;}
	.st21{fill:none;stroke:#6B18B5;stroke-width:0.0793;stroke-linejoin:round;}
	.st22{fill:#6B18B5;}
	.st23{fill:#FFD200;stroke:#EF8A10;stroke-width:0.1534;}
	.st24{fill:#FFD200;stroke:#EF8A10;stroke-width:0.1918;}
	.st25{fill:#DE2010;stroke:#000000;stroke-width:0.1889;}
	.st26{fill:#DE2010;stroke:#000000;stroke-width:0.1692;}
	.st27{fill:#FFE300;}
	.st28{fill:#FFD200;stroke:#EF8A10;stroke-width:0.0799;}
	.st29{fill:#217900;stroke:#000000;stroke-width:0.1918;stroke-linejoin:round;}
	.st30{fill:#8C8A8C;stroke:#000000;stroke-width:0.1534;}
	.st31{fill:none;stroke:#000000;stroke-width:0.1534;stroke-linecap:round;}
	.st32{fill:#FFFFFF;stroke:#000000;stroke-width:0.1598;stroke-linejoin:round;}
</style>
<g>
	<defs>
		<circle id="SVGID_1_" cx="30" cy="30" r="30"/>
	</defs>
	<clipPath id="SVGID_2_">
		<use xlink:href="#SVGID_1_"  style="overflow:visible;"/>
	</clipPath>
	<g class="st0">
		<rect x="-30" class="st1" width="120" height="60"/>
		<g>
			<g>
				<path class="st2" d="M34.5842,41.5398c0,0,1.398-1.4786,2.7422-1.1964c0.4033-1.5593,1.9222-1.6803,1.9222-1.6803
					s-0.1479-1.7206,1.8012-2.097c0.0538-1.1695,1.2367-2.1373,1.2367-2.1373s-0.242-1.8147,0.9947-2.2314
					c-0.7528-1.4383,0.2554-2.4868,0.242-2.5137s-1.277-2.2717-0.1479-2.9169c-1.1964-1.0082-0.8065-2.1507-0.8065-2.1507
					s-1.3039-0.3361-0.8334-1.8954c-1.0754-0.1882-1.2904-1.9222-1.2904-1.9222s-1.6534,0.336-1.855-1.1023
					c-1.0888,0.1748-1.2098-0.9006-1.2232-0.9006s-2.1642,0.578-2.5944-1.0485c-0.8334,0.4302-1.1964-0.3361-1.1964-0.3361
					s-1.1964,0.5915-1.9088-0.5511c-1.4249,0.8872-2.218-0.0403-2.218-0.0403s-1.8685,1.2367-2.4868,0.2823
					c-1.1023,1.1157-2.0835,0.6318-2.0835,0.6318s-0.8334,1.4786-2.1776,1.1023c-0.3092,1.3711-1.855,1.398-1.855,1.398
					s0.1613,1.2098-1.6937,1.5324c-0.242,1.4249-1.2098,1.6668-1.2098,1.6668s0.0941,1.3845-0.7796,1.8281
					c0.3092,0.7797-0.4974,1.734-0.4974,1.734s0.8603,1.0754-0.3092,2.2852c1.1291,0.2957,0.3092,2.2448,0.3092,2.2448
					s1.5593,0.699,0.578,1.9894c1.1157,0.3629,0.7662,1.2501,0.7796,1.7744c0.7124,0.3226,1.3442,0.1613,1.035,1.5996
					c2.1911,0.242,1.156,1.4518,1.156,1.4518s1.0216,0.0403,0.6183,0.8469c1.8685-0.0403,2.1373,1.398,2.1373,1.398
					s1.734-0.457,1.9626,0.2151c0.2285,0.6721-0.7528,5.2021-0.7528,5.2021s-1.4652,0-2.554-1.1695
					c-2.554-0.0672-1.9894-1.7475-2.0298-1.7475c-0.0403,0-0.8469,0.3092-1.2636-1.0888c-1.7072,0.3495-1.6534-1.0888-1.6668-1.1022
					c-0.0134-0.0134-0.7662-0.3495-0.4839-1.0619c-1.7609,0.1613-1.6265-1.5593-1.6265-1.5593
					c-0.3853-0.1568-0.5287-0.5153-0.4705-0.8737c-0.2285-0.0807-1.7878-0.1075-0.9813-2.1642
					c-1.4921-0.9006-0.5646-1.9357-0.5646-1.9357s-2.0567-1.0619-0.4705-2.2852c-1.1829-1.7475,0.0941-2.6212,0.0941-2.6212
					s-1.6399-1.6668,0.0269-2.8497c-0.2688-2.5271,1.2367-3.132,1.2367-3.132s-0.7931-2.0567,1.3577-2.917
					c0.1344-2.0835,1.6399-2.1373,1.6399-2.1373s0.0403-1.6534,2.4061-1.4921c0.457-1.4786,2.0701-1.1829,2.0701-1.1829
					s0.4974-1.7878,2.6884-0.9275c1.1157-2.1776,2.7691-1.0619,2.7691-1.0619s1.0485-0.6856,1.5727-0.4705
					c0.6657-1.144,2.0829-0.0443,2.9992,0.177c0.3321-0.1291,1.5174-1.0239,2.4315,0.1052
					c1.2098-0.7931,2.2449,0.6318,2.2449,0.6318s1.6668-0.8468,2.4465,1.0888c3.5353-0.3226,3.0245,1.9894,3.0245,1.9894
					s2.7825-0.6318,2.1776,2.1373c2.5271,0.1747,2.2717,1.8416,2.2717,1.8416s1.5996,1.2098,0.9006,2.2986
					c1.4249,0.0672,0.9006,1.4383,0.9006,1.4383s1.0888,0.4167,0.1882,2.1104c2.0835,1.6668,0.4033,3.3202,0.3898,3.3068
					c-0.0135-0.0134,1.1157,1.3442,0.0941,2.9035c0.3092,2.4734-0.941,3.1051-0.941,3.1051s0.3226,1.5996-1.0754,2.0567
					c-0.0269,1.8819-1.8013,2.1104-1.8013,2.1104s0.4705,0.8175-1.2904,1.6778c-0.0695,1.2592-1.9088,1.3602-1.9088,1.3602
					s-0.1747,2.312-2.5137,1.6937c-0.5677,1.8551-3.3068,1.3039-3.3605,1.277C35.0547,45.5053,34.5842,41.5533,34.5842,41.5398
					L34.5842,41.5398z"/>
				<path class="st3" d="M37.8503,43.4845c0,0-0.2074,0.3989,0.6223,0.75"/>
				<path class="st3" d="M39.5098,42.5425c0,0,0.9255-0.2234,1.5479,0"/>
				<path class="st3" d="M42.2705,40.2131c0,0.016-0.1277,0.4149,0.6064,0.9893"/>
				<path class="st3" d="M42.797,39.176c0,0,0.5425,0.3989,1.4522,0.383"/>
				<path class="st3" d="M37.3238,40.3407c0,0,0.0319,1.0532-0.5106,1.5479"/>
				<path class="st3" d="M39.1427,38.713c0,0,0.8936,0.2234,1.6277-0.1436"/>
				<path class="st3" d="M44.8712,37.1653c0,0,0.1915,0.2713,1.1808,0.2234"/>
				<path class="st3" d="M41.0099,36.5429c0.0319,0.016,1.1649,0.383,1.883,0.0479"/>
				<path class="st3" d="M43.2751,32.2019c0,0,0.0479-0.0638,0.3989,1.1649"/>
				<path class="st3" d="M44.1528,28.7394c0,0-0.0479,0.6542-0.5745,0.9415"/>
				<path class="st3" d="M47.5202,26.0587c0,0-0.766,0.6223-0.6223,0.8776"/>
				<path class="st3" d="M43.7064,25.6115c0,0,0.3989,0.6702-0.2553,1.1329"/>
				<path class="st3" d="M41.7758,22.7397c0,0,0.6862-0.0319,0.9894,0.5585"/>
				<path class="st3" d="M43.2117,18.3995c0,0.016,0.1436,0.1436-0.1277,0.4149"/>
				<path class="st3" d="M38.3125,18.4629c0,0,0.367,0.5745,0.3032,1.2766"/>
				<path class="st3" d="M40.435,16.5162c0.1596-0.016,0.7021-0.2553,0.7021-0.2553"/>
				<path class="st3" d="M38.0731,14.2343c-0.016,0-0.2074,0.7181,0.1436,0.9734"/>
				<path class="st3" d="M37.1954,17.5055c0,0.766,0.6064,0.5745,0.1915,1.3085"/>
				<path class="st3" d="M35.7119,16.8672c-0.016,0-0.9574,0.734-0.9574,0.8617"/>
				<path class="st3" d="M33.254,16.4683c0,0,0.3989,0.3989,0.3032,0.9415"/>
				<path class="st3" d="M29.9667,15.9895c-0.016,0.0319-0.3351,0.7181-0.5585,0.8458"/>
				<path class="st3" d="M27.0632,16.0055c0.016,0,0.3191,0.6383-0.0798,1.1011"/>
				<path class="st3" d="M21.8928,18.6548c0.016,0.0319,0.8138,0.1596,0.8138,0.1596"/>
				<path class="st3" d="M19.898,20.5054c0.016-0.016,0.9734-0.3032,0.9734-0.3032"/>
				<path class="st3" d="M18.3503,21.7026c0.0319,0,0.6702,0.1117,0.8297,0.0319"/>
				<path class="st3" d="M17.9031,22.2925c0,0,0.2074,0.1117,0.0319,1.1808"/>
				<path class="st3" d="M14.7918,19.4841l0.383,0.5745"/>
				<path class="st3" d="M13.4828,22.436c0-0.016,0.383,0.5745,0.8937,0.6862"/>
				<path class="st3" d="M16.4989,25.4363c0.016,0,0.6223-0.1277,0.7181-0.1915"/>
				<path class="st3" d="M16.2277,27.6063c0.016,0-0.016-0.3989,0.4787-0.6702"/>
				<path class="st3" d="M15.5736,28.5959c0,0.016,0.4628,0.5904,0.7819,0.6702"/>
				<path class="st3" d="M15.3025,29.6972c0.0479-0.016,0.5425-0.4468,1.117-0.4149"/>
				<path class="st3" d="M15.1423,31.1806c0,0,0.016,0.4947,1.484,0.367"/>
				<path class="st3" d="M15.2866,32.9202c0-0.016,0.4308-0.9894,1.3085-1.3564"/>
				<path class="st3" d="M16.4672,34.165c0,0,0.1277-0.4149,0.8617-0.7021"/>
				<path class="st3" d="M17.2807,35.8087c0,0,0.5266-0.4308,0.7181-0.4947"/>
				<path class="st3" d="M17.9356,37.0852c0,0,0.3191,0.3351,1.117-0.2394"/>
				<path class="st3" d="M14.0894,37.3563c0.0957-0.016,1.2606-0.2872,1.6596,0.3192"/>
				<path class="st3" d="M14.5524,38.3141c0,0,1.2287-0.1596,1.3883-0.0319"/>
				<path class="st3" d="M18.9402,38.5694c0,0-0.1596,0.3351,1.3564-0.2234"/>
				<path class="st3" d="M20.8233,39.176c-0.2713,0.4628,0.0638,0.8297-0.2872,1.0372"/>
				<path class="st3" d="M16.2119,39.8143c0.0479-0.0319,0.5585-0.2074,0.4787-0.9415"/>
				<path class="st3" d="M16.6749,40.9148c0.0638-0.016,0.9096-0.383,1.0851-0.1915"/>
				<path class="st3" d="M18.3344,41.9844c0,0,0.1117-0.75,0.3511-0.8297"/>
				<path class="st3" d="M19.6109,43.1174c0,0,0.7021-0.016,1.0053-0.2394"/>
				<path class="st3" d="M20.9668,40.5802c0.016,0.016,0.6543,0.3511,2.0107,0.016"/>
				<path class="st3" d="M21.4774,43.628c0,0,0.1915,0.9734,0.1755,1.1968"/>
				<path class="st3" d="M40.4826,20.7924l0.5266,0"/>
				<path class="st3" d="M32.0892,16.1491c0,0-0.2074,0.6064-0.4787,0.7659"/>
				<path class="st3" d="M26.3924,12.7023c0.016,0.016,0.0638,0.4947-0.2394,0.9096"/>
				<path class="st3" d="M23.5206,13.7875c0,0.016,0.1277,0.5426-0.7181,0.7181"/>
			</g>
			<g>
				<g>
					<path class="st4" d="M34.8936,43.7707c0,0,7.9708-2.2515,10.378-12.0343c-1.3975,10.0418-10.1195,13.2244-10.1195,13.2244
						l-0.2588-1.1905L34.8936,43.7707z"/>
					<path class="st5" d="M24.4459,43.559c0,0-7.898-2.292-10.2828-12.2507C15.5478,41.53,24.1898,44.7705,24.1898,44.7705
						l0.2564-1.2119L24.4459,43.559z"/>
				</g>
				<g>
					<path class="st6" d="M35.7111,44.3804c0.2464,0,0.8558-0.6743,1.206-0.7521c0.3501-0.0778,0.389-0.4279-0.013-0.4409
						c-0.402-0.013-0.7521,0.4539-0.7521,0.4539s-0.3501,0.2983-0.7132,0.3372C35.0757,44.0174,35.3091,44.4712,35.7111,44.3804
						L35.7111,44.3804z"/>
					<path class="st6" d="M37.4094,43.1356c0,0-0.2464-0.0908,0.389-0.3372c0.6354-0.2464,0.5965-0.5317,0.804-0.6484
						c0.2075-0.1167,0.6484-0.4279,0.7391-0.2464c0.0908,0.1815-0.4668,0.5446-0.5965,0.5835
						c-0.1297,0.0389-0.7651,0.6224-0.9466,0.6743C37.6169,43.2134,37.4872,43.1875,37.4094,43.1356L37.4094,43.1356z"/>
					<path class="st6" d="M23.6364,44.1798c-0.2441,0-0.848-0.6864-1.1949-0.7656c-0.3469-0.0792-0.3855-0.4356,0.0128-0.4488
						c0.3983-0.0132,0.7452,0.462,0.7452,0.462s0.3469,0.3036,0.7067,0.3432C24.2659,43.8102,24.0347,44.2722,23.6364,44.1798
						L23.6364,44.1798z"/>
					<path class="st6" d="M21.9531,42.9128c0,0,0.2441-0.0924-0.3855-0.3432c-0.6296-0.2508-0.591-0.5412-0.7966-0.66
						c-0.2056-0.1188-0.6424-0.4356-0.7324-0.2508c-0.0899,0.1848,0.4626,0.5544,0.591,0.594
						c0.1285,0.0396,0.7581,0.6336,0.938,0.6864S21.8761,42.9656,21.9531,42.9128L21.9531,42.9128z"/>
					<path class="st7" d="M40.301,40.9568c0,0-0.8299,0.4798-0.7132,0.5965c0.1167,0.1167,0.8558-0.4539,0.8688-0.4668
						C40.4696,41.0735,40.7679,40.7104,40.301,40.9568L40.301,40.9568z"/>
					<path class="st8" d="M19.0877,40.6951c0,0,0.8223,0.4884,0.7067,0.6072c-0.1156,0.1188-0.848-0.462-0.8608-0.4752
						C18.9207,40.8139,18.6251,40.4443,19.0877,40.6951L19.0877,40.6951z"/>
				</g>
				<g>
					<path class="st9" d="M41.5332,39.7381c-0.5446,0.6095-0.5446,0.5965-0.5446,0.5965"/>
					<path class="st10" d="M42.3498,38.7399l-0.5187,0.6354"/>
					<path class="st11" d="M43.1673,37.4428l-0.5835,0.9337"/>
					<path class="st12" d="M43.8547,36.1203l-0.4798,0.9596"/>
					<path class="st12" d="M44.1655,35.4201l-0.1556,0.3372"/>
					<path class="st13" d="M44.516,34.4996l-0.1297,0.402"/>
					<path class="st14" d="M17.8674,39.4543c0.5396,0.6204,0.5396,0.6072,0.5396,0.6072"/>
					<path class="st15" d="M17.0579,38.4378l0.5139,0.6468"/>
					<path class="st16" d="M16.2484,37.1177l0.5782,0.9504"/>
					<path class="st17" d="M15.5673,35.7714l0.4754,0.9768"/>
					<path class="st17" d="M15.2589,35.0586l0.1542,0.3432"/>
					<path class="st18" d="M14.9124,34.1214l0.1285,0.4092"/>
				</g>
			</g>
			<g>
				<g>
					<path class="st19" d="M17.5963,19.3549c0.0068,0,0.5928,0.5082,0.4834,1.2742c-0.1094,0.766-0.5518,1.8307-0.4629,2.624
						c0.0543,0.318,0.0338,0.8879,0.0338,0.8879s-0.5312-0.7548-0.538-1.5618c-0.0068-0.807,0.5752-1.5732,0.5752-2.1682
						C17.6877,19.8159,17.5826,19.3412,17.5963,19.3549L17.5963,19.3549z"/>
					<path class="st19" d="M17.3061,19.5832c0,0-0.7689,0.734-0.868,1.4474c-0.0731,0.3677-0.1015,2.0811-0.1101,2.8416
						c-0.0173,0.2333-0.114,1.1543-0.1345,1.4894c-0.0205,0.3351,0.5656-0.572,0.5991-1.3106
						c-0.0183-0.7645-0.0184-2.3749,0.0594-2.6169c0.0691-0.3111,0.0541-0.6548,0.161-0.9668
						C17.1545,20.0343,17.3129,19.5901,17.3061,19.5832L17.3061,19.5832z"/>
				</g>
				<g>
					<path class="st20" d="M12.2721,24.4745c0,0,0.5212,0.7217,0.6148,1.136c0.0936,0.4143,0.2673,1.2296,0.4945,1.5637
						c0.2272,0.3341,1.5236,2.1918,1.5904,2.967c0.0134,0.5079-0.5346,1.3766-1.3499,1.3899
						c-0.5079-0.0133-1.8176-0.3475-1.8711-1.4701c-0.0535-1.1226,0.4009-1.1494,0.4544-1.831
						C12.2587,27.5484,12.2721,24.4879,12.2721,24.4745L12.2721,24.4745z"/>
					<path class="st21" d="M21.2268,14.6469c0,0-0.5396,0.0385-0.9551,0.2637c-0.3219,0.1985-0.8672,0.4841-1.2482,1.0124
						c-0.9691,0.7555-2.4272,1.108-2.887,1.7357c-0.2753,0.427-0.2583,1.454,0.4313,1.8889
						c0.4409,0.2524,1.7336,0.6474,2.3625-0.2841c0.6289-0.9315,0.2545-1.1904,0.5629-1.8006
						c0.5089-1.3987,1.7266-2.8046,1.7335-2.8161L21.2268,14.6469z"/>
					<path class="st21" d="M34.3164,13.2835c0,0-0.403-0.3609-0.8538-0.5027c-0.3665-0.0932-0.977-0.0526-1.6086-0.1146
						c-1.2169-0.1707-2.4715-1.0508-3.2422-0.9445c-0.4982,0.0993-1.2243,0.8259-1.057,1.6239
						c0.1253,0.4923,0.676,1.4881,1.7826,1.2919c1.1067-0.1962,1.0971-0.4376,1.75-0.6405
						C32.6799,13.1041,34.3033,13.2865,34.3164,13.2835L34.3164,13.2835z"/>
					<path class="st21" d="M47.299,25.9009c0.0909-0.2077-0.0765-0.598-0.1953-1.0554c-0.1154-0.3602-0.2876-0.9191-0.709-1.4159
						c-0.5007-1.1222-0.4149-2.6612-0.9137-3.2582c-0.3484-0.3697-1.3494-0.6-1.9372-0.0349
						c-0.3509,0.3674-1.0448,1.5274-0.2916,2.3616c0.7532,0.8342,1.0815,0.52,1.5997,0.9659
						C46.0874,24.2938,46.6925,25.7486,47.299,25.9009L47.299,25.9009z"/>
					<path class="st21" d="M46.8558,35.704c0.1687-0.2336,0.4708-0.6838,0.4349-1.0588c-0.0284-0.297,0.1361-1.1973,0.1541-1.5901
						c0.1117-1.2237,0.8776-2.217,0.6694-3.2803c-0.1232-0.4929-0.845-1.1959-1.6341-0.9902
						c-0.4857,0.149-1.5671,0.744-1.3178,1.8399c0.2494,1.0959,0.6035,1.0778,0.8377,1.7201
						C46.6723,33.6725,46.2421,35.2498,46.8558,35.704z"/>
				</g>
				<g>
					<path class="st22" d="M29.3498,12.3157c0.0001-0.1727-0.1942-0.3127-0.4338-0.3127s-0.4339,0.14-0.4338,0.3127
						c-0.0001,0.1727,0.1942,0.3127,0.4338,0.3127S29.3499,12.4884,29.3498,12.3157z"/>
					<path class="st22" d="M29.5354,13.043c0-0.1656-0.1999-0.2998-0.4466-0.2998c-0.2466,0-0.4466,0.1342-0.4466,0.2998
						s0.1999,0.2998,0.4466,0.2998C29.3354,13.3429,29.5354,13.2086,29.5354,13.043z"/>
					<path class="st22" d="M30.0904,12.1818c0,0-0.5104,0.3828-0.2998,0.5359c0.2105,0.1531,0.791-0.3317,0.791-0.3317
						S30.0904,12.1818,30.0904,12.1818z"/>
					<path class="st22" d="M45.0892,20.9454c0.0002-0.1088-0.0509-0.2094-0.1338-0.2639c-0.0829-0.0545-0.1851-0.0545-0.268,0
						s-0.1339,0.1551-0.1338,0.2639c-0.0002,0.1088,0.0509,0.2094,0.1338,0.2639c0.0829,0.0545,0.1851,0.0545,0.268,0
						C45.0384,21.1548,45.0894,21.0542,45.0892,20.9454z"/>
					<path class="st22" d="M44.895,20.2152c0-0.1815-0.1253-0.3286-0.2799-0.3286c-0.1546,0-0.2799,0.1471-0.2799,0.3286
						c0,0.1815,0.1253,0.3286,0.2799,0.3286S44.895,20.3966,44.895,20.2152z"/>
					<path class="st22" d="M45.029,21.7002c0-0.0941-0.049-0.1704-0.1095-0.1704c-0.0605,0-0.1095,0.0763-0.1095,0.1704
						c0,0.0941,0.049,0.1704,0.1095,0.1704C44.9799,21.8706,45.029,21.7943,45.029,21.7002z"/>
					<path class="st22" d="M45.4793,20.3737c0-0.1075-0.049-0.1947-0.1095-0.1947c-0.0605,0-0.1095,0.0872-0.1095,0.1947
						s0.049,0.1947,0.1095,0.1947C45.4303,20.5685,45.4793,20.4813,45.4793,20.3737z"/>
					<path class="st22" d="M44.2496,20.5077c0-0.0874-0.049-0.1582-0.1095-0.1582c-0.0605,0-0.1095,0.0708-0.1095,0.1582
						c0,0.0874,0.049,0.1582,0.1095,0.1582C44.2005,20.6659,44.2496,20.5951,44.2496,20.5077z"/>
					<path class="st22" d="M44.4446,21.5543c0-0.1412-0.1035-0.2557-0.2312-0.2557c-0.1277,0-0.2313,0.1145-0.2312,0.2557
						c0,0.1412,0.1035,0.2557,0.2312,0.2557C44.3411,21.81,44.4447,21.6955,44.4446,21.5543z"/>
					<path class="st22" d="M43.8357,21.0913c0-0.121-0.0872-0.2191-0.1947-0.2191c-0.1075,0-0.1947,0.0981-0.1947,0.2191
						c0,0.121,0.0872,0.2191,0.1947,0.2191S43.8357,21.2123,43.8357,21.0913z"/>
					<path class="st22" d="M43.739,20.4713c0.0001-0.0653-0.0324-0.1256-0.0851-0.1583c-0.0527-0.0327-0.1178-0.0327-0.1705,0
						c-0.0527,0.0327-0.0852,0.093-0.0851,0.1583c-0.0001,0.0653,0.0324,0.1256,0.0851,0.1583c0.0527,0.0327,0.1178,0.0327,0.1705,0
						C43.7066,20.5969,43.739,20.5365,43.739,20.4713z"/>
					<path class="st22" d="M46.5132,23.6269c-0.2514-0.3318-0.6538-0.4716-0.8989-0.3122
						c-0.2451,0.1593-0.2399,0.5574,0.0115,0.8892c0.2514,0.3318,0.6538,0.4716,0.8989,0.3122
						C46.7697,24.3568,46.7646,23.9587,46.5132,23.6269z"/>
					<path class="st22" d="M47.2276,29.7471c0.0487-0.4071-0.1498-0.7656-0.4435-0.8007c-0.2936-0.0351-0.5712,0.2664-0.6199,0.6735
						s0.1498,0.7656,0.4435,0.8007C46.9014,30.4558,47.1789,30.1542,47.2276,29.7471z"/>
					<path class="st22" d="M47.3783,33.3103c0.0837-0.4014-0.0832-0.7757-0.3727-0.836c-0.2895-0.0604-0.592,0.2161-0.6757,0.6175
						c-0.0837,0.4014,0.0832,0.7757,0.3727,0.836C46.992,33.9881,47.2946,33.7117,47.3783,33.3103L47.3783,33.3103z"/>
					<path class="st22" d="M48.0649,29.9755c0-0.1613-0.109-0.2921-0.2434-0.2921c-0.1344,0-0.2434,0.1308-0.2434,0.2921
						s0.109,0.2921,0.2434,0.2921C47.9559,30.2676,48.0649,30.1368,48.0649,29.9755z"/>
					<path class="st22" d="M47.4686,30.6447l-0.499,0.5659c0,0-0.4685,0.0122-0.4442,0.1643
						c0.0243,0.1521,0.645,0.6085,0.6389,0.791c-0.0061,0.1826,0.4138-0.0426,0.4138-0.0426s0.3347-1.0162,0.3347-1.0223
						c0-0.0061-0.0183-0.7059-0.2008-0.6937C47.5295,30.4195,47.48,30.6318,47.4686,30.6447L47.4686,30.6447z"/>
					<path class="st22" d="M14.6483,30.4211c0-0.1311-0.1063-0.2375-0.2375-0.2375c-0.1312,0-0.2375,0.1063-0.2375,0.2375
						c0,0.1311,0.1063,0.2375,0.2375,0.2375S14.6483,30.5522,14.6483,30.4211L14.6483,30.4211z"/>
					<path class="st22" d="M14.8727,29.6956c0-0.1384-0.1063-0.2507-0.2375-0.2507c-0.1312,0-0.2375,0.1122-0.2375,0.2507
						s0.1063,0.2507,0.2375,0.2507C14.7664,29.9463,14.8727,29.834,14.8727,29.6956z"/>
					<path class="st22" d="M12.9222,26.2442c-0.0891-0.1996-0.2746-0.3109-0.4143-0.2486
						c-0.1397,0.0623-0.1808,0.2747-0.0918,0.4743c0.0891,0.1996,0.2745,0.3109,0.4143,0.2486
						C12.9702,26.6562,13.0113,26.4438,12.9222,26.2442z"/>
					<path class="st22" d="M13.5114,28.3945c-0.1223-0.2587-0.3771-0.403-0.5691-0.3222c-0.192,0.0808-0.2484,0.356-0.126,0.6148
						s0.3771,0.403,0.5691,0.3222C13.5773,28.9284,13.6337,28.6532,13.5114,28.3945z"/>
					<path class="st22" d="M14.1417,29.9707c0.0396-0.3232-0.0943-0.62-0.2991-0.6631c-0.2048-0.043-0.403,0.184-0.4426,0.5072
						c-0.0396,0.3232,0.0943,0.62,0.2991,0.6631C13.9039,30.521,14.1021,30.2939,14.1417,29.9707z"/>
					<path class="st22" d="M13.13,30.2014c0.1267-0.2999,0.0793-0.6221-0.1059-0.7196s-0.438,0.0666-0.5647,0.3665
						c-0.1267,0.2999-0.0793,0.6221,0.1059,0.7196S13.0033,30.5014,13.13,30.2014z"/>
					<path class="st22" d="M12.6693,29.5235c0-0.153-0.1181-0.2771-0.2639-0.2771c-0.1457,0-0.2639,0.124-0.2639,0.2771
						s0.1181,0.2771,0.2639,0.2771C12.5512,29.8006,12.6693,29.6765,12.6693,29.5235z"/>
					<path class="st22" d="M12.4584,28.8377c0-0.1384-0.1063-0.2507-0.2375-0.2507s-0.2375,0.1122-0.2375,0.2507
						s0.1063,0.2507,0.2375,0.2507C12.3521,29.0884,12.4584,28.9761,12.4584,28.8377z"/>
					<path class="st22" d="M12.682,27.5183c0-0.2332-0.1034-0.4222-0.2309-0.4222c-0.1275,0-0.2309,0.189-0.2309,0.4222
						c0,0.2332,0.1034,0.4222,0.2309,0.4222S12.682,27.7515,12.682,27.5183z"/>
					<path class="st22" d="M13.3924,27.4169c0.0308-0.2311-0.0468-0.4321-0.1732-0.449c-0.1264-0.0168-0.2538,0.1569-0.2846,0.388
						c-0.0308,0.2311,0.0468,0.4321,0.1732,0.449C13.2343,27.8217,13.3617,27.648,13.3924,27.4169z"/>
					<path class="st22" d="M18.4549,17.3174c0.0941-0.3273-0.003-0.6563-0.2168-0.7348c-0.2138-0.0785-0.4634,0.1232-0.5575,0.4506
						c-0.0941,0.3273,0.0029,0.6563,0.2168,0.7348C18.1112,17.8464,18.3608,17.6447,18.4549,17.3174z"/>
					<path class="st22" d="M17.494,18.7745c0.282-0.24,0.4025-0.5719,0.2691-0.7412c-0.1334-0.1694-0.4701-0.1121-0.7521,0.1279
						s-0.4025,0.5719-0.2691,0.7412C16.8752,19.0718,17.212,19.0145,17.494,18.7745z"/>
					<path class="st22" d="M16.9326,17.9655c0.2789-0.206,0.398-0.4909,0.2661-0.6363c-0.1319-0.1454-0.4649-0.0962-0.7438,0.1098
						c-0.2789,0.206-0.398,0.4909-0.2661,0.6363C16.3208,18.2207,16.6538,18.1716,16.9326,17.9655z"/>
					<path class="st22" d="M19.0948,16.5434c0.1881-0.1438,0.2684-0.3425,0.1794-0.444c-0.089-0.1014-0.3135-0.0672-0.5016,0.0766
						c-0.1881,0.1438-0.2684,0.3425-0.1794,0.444C18.6822,16.7215,18.9067,16.6872,19.0948,16.5434z"/>
					<path class="st22" d="M17.9681,17.9213c0.1286-0.1987,0.1372-0.413,0.0193-0.4785c-0.1179-0.0655-0.3178,0.0424-0.4464,0.2412
						s-0.1372,0.413-0.0193,0.4785C17.6397,18.228,17.8395,18.12,17.9681,17.9213z"/>
					<path class="st22" d="M19.5943,17.0698c0.2022-0.1704,0.281-0.3962,0.176-0.5043c-0.105-0.1081-0.3541-0.0575-0.5564,0.1129
						c-0.2022,0.1704-0.281,0.3962-0.176,0.5043C19.143,17.2908,19.3921,17.2403,19.5943,17.0698z"/>
					<path class="st22" d="M16.6551,19.056c0.189-0.0094,0.3318-0.1036,0.3187-0.2103c-0.013-0.1067-0.1768-0.1856-0.3659-0.1762
						c-0.189,0.0094-0.3317,0.1036-0.3187,0.2103C16.3023,18.9865,16.4661,19.0654,16.6551,19.056L16.6551,19.056z"/>
					<path class="st22" d="M20.2135,16.0142c0.1286-0.1987,0.1372-0.413,0.0193-0.4785c-0.1179-0.0655-0.3178,0.0424-0.4464,0.2412
						c-0.1286,0.1987-0.1372,0.413-0.0193,0.4785C19.8851,16.3209,20.0849,16.2129,20.2135,16.0142z"/>
				</g>
				<g>
					<path class="st23" d="M34.2213,17.1852c0,0,0.997-0.4599,1.282-1.3164c0.285-0.8565-0.8628-0.8647-1.0145-0.5925
						c-0.1516,0.2722,0.1293,0.9501,0.057,1.1293C34.4734,16.5848,34.0678,17.0174,34.2213,17.1852L34.2213,17.1852z"/>
					<path class="st24" d="M25.3855,17.4977c0,0,0.6472-0.8869,0.4794-1.7738c-0.1678-0.8869-1.1746-0.3356-1.1746-0.024
						s0.5753,0.7671,0.5993,0.9588C25.3136,16.8505,25.1697,17.4258,25.3855,17.4977L25.3855,17.4977z"/>
					<path class="st24" d="M23.6356,18.025c0,0,0.6472-0.8869,0.4794-1.7738c-0.1678-0.8869-1.1746-0.3356-1.1746-0.024
						s0.5753,0.7671,0.5993,0.9588C23.5637,17.3778,23.4198,17.9531,23.6356,18.025L23.6356,18.025z"/>
					<path class="st24" d="M21.6938,18.6247c0,0,0.6472-0.8869,0.4794-1.7738c-0.1678-0.8869-1.1746-0.3356-1.1746-0.024
						s0.5753,0.7671,0.5993,0.9588C21.6219,17.9775,21.4781,18.5527,21.6938,18.6247L21.6938,18.6247z"/>
					<path class="st24" d="M20.3277,19.9908c0,0,0.6472-0.8869,0.4794-1.7738c-0.1678-0.8869-1.1746-0.3356-1.1746-0.024
						s0.5753,0.7671,0.5993,0.9588C20.2558,19.3436,20.112,19.9189,20.3277,19.9908L20.3277,19.9908z"/>
					<path class="st24" d="M18.8894,21.3093c0,0,0.6472-0.8869,0.4794-1.7738c-0.1678-0.8869-1.1746-0.3356-1.1746-0.024
						c0,0.3116,0.5753,0.7671,0.5993,0.9588C18.8175,20.6621,18.6737,21.2374,18.8894,21.3093L18.8894,21.3093z"/>
					<path class="st23" d="M22.1957,13.6287c0,0-0.8619,0.6802-0.9388,1.5796c-0.0769,0.8994,1.041,0.6391,1.1249,0.339
						c0.0838-0.3002-0.3478-0.8935-0.3193-1.0847C22.091,14.2714,22.3842,13.756,22.1957,13.6287L22.1957,13.6287z"/>
					<path class="st23" d="M25.0723,12.7418c0,0-0.8619,0.6802-0.9388,1.5796c-0.0769,0.8994,1.041,0.6391,1.1249,0.339
						c0.0838-0.3002-0.3478-0.8935-0.3193-1.0847C24.9675,13.3845,25.2608,12.8691,25.0723,12.7418L25.0723,12.7418z"/>
					<path class="st23" d="M14.3534,20.5069c0,0,0.1821,1.0828,0.9337,1.5826c0.7516,0.4998,1.0609-0.6056,0.838-0.8234
						c-0.2229-0.2178-0.9507-0.1246-1.1046-0.2415C14.8665,20.9078,14.5556,20.4029,14.3534,20.5069L14.3534,20.5069z"/>
					<path class="st23" d="M12.9167,24.1835c0,0,0.0089,1.0979,0.6723,1.7101c0.6634,0.6122,1.1432-0.4306,0.9575-0.6808
						c-0.1857-0.2502-0.9191-0.2731-1.0527-0.4128C13.3602,24.6603,13.1328,24.1126,12.9167,24.1835L12.9167,24.1835z"/>
					<path class="st23" d="M16.2309,28.2906c0,0-0.3919-1.0257-1.2273-1.3676c-0.8354-0.3419-0.9208,0.8028-0.6593,0.9724
						c0.2614,0.1696,0.9566-0.0652,1.1306,0.019C15.6488,27.9987,16.0532,28.4324,16.2309,28.2906L16.2309,28.2906z"/>
					<path class="st23" d="M15.5427,26.5154c0,0,0.6644-0.8741,0.5139-1.7641s-1.1678-0.3584-1.1739-0.0468
						c-0.0061,0.3116,0.5603,0.7781,0.5805,0.9703C15.4834,25.8669,15.3285,26.4393,15.5427,26.5154L15.5427,26.5154z"/>
					<path class="st23" d="M36.259,18.0721c0,0,0.997-0.4599,1.282-1.3164c0.285-0.8565-0.8628-0.8647-1.0145-0.5925
						c-0.1516,0.2722,0.1293,0.9501,0.057,1.1293C36.5111,17.4717,36.1055,17.9043,36.259,18.0721L36.259,18.0721z"/>
					<path class="st23" d="M39.2743,19.5761c0,0,0.5864-0.9282,0.3597-1.8019c-0.2267-0.8737-1.1944-0.2563-1.1735,0.0546
						c0.0208,0.3109,0.6253,0.7269,0.6621,0.9166C39.1592,18.9352,39.0542,19.5189,39.2743,19.5761L39.2743,19.5761z"/>
					<path class="st23" d="M47.5019,28.1185c0,0-0.3933-1.0251-1.2291-1.3658c-0.8358-0.3407-0.9197,0.8041-0.658,0.9733
						c0.2617,0.1692,0.9565-0.0665,1.1306,0.0175C46.9194,27.8275,47.3244,28.2607,47.5019,28.1185L47.5019,28.1185z"/>
					<path class="st23" d="M43.4789,28.7552c0,0,0.0228-1.0977,0.6939-1.7014c0.6711-0.6037,1.1376,0.445,0.9488,0.6929
						c-0.1889,0.2479-0.9225,0.2614-1.0578,0.3994C43.9283,28.2841,43.6941,28.8288,43.4789,28.7552L43.4789,28.7552z"/>
					<path class="st23" d="M42.8311,17.1145c0,0-1.0264-0.3899-1.8375,0.0063c-0.8111,0.3962-0.0134,1.2215,0.2872,1.1391
						c0.3005-0.0823,0.5878-0.7575,0.7664-0.8313C42.2259,17.3549,42.8187,17.3416,42.8311,17.1145L42.8311,17.1145z"/>
					<path class="st23" d="M40.4826,15.1489c0,0-1.0264-0.3899-1.8375,0.0063c-0.8111,0.3962-0.0134,1.2215,0.2872,1.1391
						c0.3005-0.0823,0.5878-0.7575,0.7664-0.8313C39.8774,15.3892,40.4702,15.376,40.4826,15.1489L40.4826,15.1489z"/>
					<path class="st23" d="M36.9789,13.2746c0,0-0.8702,0.6696-0.9581,1.5679c-0.0879,0.8984,1.0331,0.6518,1.1206,0.3527
						c0.0875-0.2991-0.3368-0.8977-0.306-1.0885C36.8662,13.9159,37.1657,13.4041,36.9789,13.2746L36.9789,13.2746z"/>
					<path class="st23" d="M34.6994,12.7257c0,0-0.3968,1.0238-0.0061,1.8375s1.2213,0.0216,1.141-0.2795
						c-0.0803-0.3011-0.7535-0.5929-0.8261-0.772C34.9356,13.3326,34.9264,12.7397,34.6994,12.7257L34.6994,12.7257z"/>
					<path class="st23" d="M28.2287,16.6708c0,0,0.7098-0.8377,0.6066-1.7344c-0.1031-0.8967-1.1471-0.4198-1.1697-0.109
						c-0.0226,0.3108,0.5182,0.8067,0.5282,0.9997C28.2039,16.0201,28.0187,16.5835,28.2287,16.6708L28.2287,16.6708z"/>
				</g>
				<g>
					<path class="st25" d="M45.986,28.6609c-0.0398-0.3211-0.1945-0.6031-0.4057-0.7399c-0.2112-0.1367-0.4467-0.1073-0.6177,0.0772
						c-0.171,0.1845-0.2515,0.496-0.2111,0.817c0.0398,0.3211,0.1945,0.6031,0.4057,0.7399
						c0.2112,0.1367,0.4467,0.1073,0.6177-0.0772C45.9459,29.2934,46.0263,28.9819,45.986,28.6609L45.986,28.6609z"/>
					<path class="st25" d="M45.8536,27.0394c-0.0398-0.3211-0.1945-0.6031-0.4057-0.7399
						c-0.2112-0.1367-0.4467-0.1073-0.6177,0.0772c-0.171,0.1845-0.2515,0.496-0.2111,0.817
						c0.0398,0.3211,0.1945,0.6031,0.4057,0.7399c0.2112,0.1367,0.4467,0.1073,0.6177-0.0772
						C45.8134,27.6719,45.8939,27.3604,45.8536,27.0394L45.8536,27.0394z"/>
					<path class="st25" d="M45.5245,25.3078c-0.0679-0.3163-0.2468-0.5837-0.4692-0.7014
						c-0.2224-0.1176-0.4544-0.0676-0.6085,0.1312c-0.1541,0.1988-0.2069,0.5162-0.1385,0.8324
						c0.0679,0.3163,0.2468,0.5837,0.4692,0.7014s0.4544,0.0676,0.6085-0.1312C45.5401,25.9413,45.593,25.624,45.5245,25.3078
						L45.5245,25.3078z"/>
					<path class="st25" d="M44.9243,23.4985c-0.1463-0.2886-0.3874-0.5015-0.6325-0.5586c-0.245-0.0571-0.4566,0.0504-0.555,0.282
						c-0.0984,0.2315-0.0685,0.5519,0.0783,0.8402c0.1463,0.2886,0.3874,0.5015,0.6325,0.5586
						c0.245,0.0571,0.4566-0.0504,0.555-0.282C45.1009,24.1071,45.0711,23.7868,44.9243,23.4985z"/>
					<path class="st25" d="M44.2829,22.0467c-0.1463-0.2886-0.3874-0.5015-0.6325-0.5586c-0.245-0.0571-0.4566,0.0504-0.555,0.282
						c-0.0984,0.2315-0.0685,0.5519,0.0783,0.8402c0.1463,0.2886,0.3874,0.5015,0.6325,0.5586
						c0.245,0.0571,0.4566-0.0504,0.555-0.282C44.4595,22.6554,44.4296,22.335,44.2829,22.0467z"/>
					<path class="st25" d="M43.3711,20.587c-0.1702-0.2751-0.4285-0.4669-0.6775-0.503c-0.249-0.0361-0.4507,0.0889-0.5291,0.328
						s-0.0215,0.5557,0.1491,0.8305c0.1702,0.2751,0.4285,0.4669,0.6775,0.503s0.4507-0.0889,0.5291-0.328
						C43.5986,21.1785,43.5417,20.8619,43.3711,20.587z"/>
					<path class="st25" d="M42.357,19.1805c-0.196-0.2574-0.4716-0.4233-0.7229-0.4352c-0.2513-0.0119-0.44,0.1321-0.4949,0.3776
						c-0.0549,0.2455,0.0323,0.5552,0.2287,0.8122c0.196,0.2574,0.4717,0.4233,0.7229,0.4352
						c0.2513,0.0119,0.44-0.1321,0.4949-0.3776C42.6406,19.7472,42.5534,19.4375,42.357,19.1805z"/>
					<path class="st25" d="M41.147,17.8687c-0.2312-0.2263-0.528-0.3504-0.7784-0.3258s-0.4162,0.1945-0.4349,0.4453
						c-0.0188,0.2509,0.1124,0.5446,0.3441,0.7705c0.2312,0.2263,0.528,0.3504,0.7784,0.3258
						c0.2504-0.0247,0.4162-0.1945,0.4349-0.4453S41.3787,18.0946,41.147,17.8687L41.147,17.8687z"/>
					<path class="st25" d="M39.7849,16.662c-0.2511-0.204-0.558-0.3004-0.8051-0.2528c-0.247,0.0476-0.3965,0.2319-0.3921,0.4834
						c0.0044,0.2515,0.1621,0.532,0.4135,0.7356c0.2511,0.204,0.558,0.3004,0.8051,0.2528c0.247-0.0476,0.3965-0.2319,0.3921-0.4834
						C40.1939,17.146,40.0363,16.8656,39.7849,16.662z"/>
					<path class="st25" d="M38.3419,15.6988c-0.2814-0.1595-0.6002-0.2036-0.8358-0.1156
						c-0.2357,0.0879-0.3525,0.2945-0.3064,0.5418c0.0461,0.2473,0.2481,0.4977,0.5298,0.6567
						c0.2814,0.1595,0.6002,0.2036,0.8358,0.1156c0.2357-0.0879,0.3525-0.2945,0.3064-0.5418
						C38.8256,16.1082,38.6236,15.8578,38.3419,15.6988z"/>
					<path class="st25" d="M36.7268,14.8437c-0.2948-0.1332-0.6162-0.1481-0.8429-0.0391c-0.2267,0.109-0.3243,0.3254-0.2558,0.5675
						s0.2924,0.4731,0.5874,0.6058c0.2948,0.1332,0.6162,0.1481,0.8429,0.0391c0.2267-0.109,0.3243-0.3254,0.2558-0.5675
						C37.2458,15.2074,37.0218,14.9765,36.7268,14.8437L36.7268,14.8437z"/>
					<path class="st25" d="M35.1426,14.2059c-0.3031-0.1132-0.6247-0.1065-0.8436,0.0175c-0.2189,0.124-0.3017,0.3464-0.2172,0.5833
						c0.0845,0.237,0.3234,0.4524,0.6267,0.565c0.3031,0.1132,0.6247,0.1065,0.8436-0.0175
						c0.2189-0.124,0.3017-0.3464,0.2172-0.5833C35.6848,14.534,35.4459,14.3185,35.1426,14.2059z"/>
					<path class="st25" d="M33.5331,13.7009c-0.3108-0.0897-0.631-0.0585-0.8398,0.0818c-0.2088,0.1403-0.2744,0.3684-0.1721,0.5982
						c0.1023,0.2298,0.357,0.4264,0.668,0.5156c0.3108,0.0897,0.631,0.0585,0.8398-0.0818
						c0.2088-0.1403,0.2744-0.3684,0.1721-0.5982C34.0987,13.9866,33.844,13.7901,33.5331,13.7009z"/>
					<path class="st25" d="M31.761,13.3988c-0.3209-0.0408-0.6325,0.0394-0.8172,0.2102c-0.1847,0.1708-0.2144,0.4063-0.0779,0.6176
						c0.1365,0.2113,0.4184,0.3663,0.7394,0.4065c0.3209,0.0408,0.6325-0.0394,0.8172-0.2102
						c0.1847-0.1708,0.2144-0.4063,0.0779-0.6176C32.3639,13.594,32.082,13.439,31.761,13.3988z"/>
					<path class="st25" d="M30.0119,13.3001c-0.3232-0.0133-0.6269,0.0932-0.7963,0.2791c-0.1695,0.1859-0.179,0.4231-0.025,0.622
						c0.154,0.1989,0.4481,0.3293,0.7714,0.342c0.3232,0.0133,0.6269-0.0932,0.7963-0.2791c0.1695-0.1859,0.179-0.4231,0.025-0.622
						C30.6293,13.4432,30.3352,13.3128,30.0119,13.3001L30.0119,13.3001z"/>
					<path class="st25" d="M28.4095,13.3567c-0.3232-0.0133-0.6269,0.0932-0.7963,0.2791c-0.1695,0.1859-0.179,0.4231-0.025,0.622
						c0.154,0.1989,0.4481,0.3293,0.7714,0.342c0.3232,0.0133,0.6269-0.0932,0.7963-0.2791c0.1695-0.1859,0.179-0.4231,0.025-0.622
						C29.0269,13.4998,28.7328,13.3694,28.4095,13.3567L28.4095,13.3567z"/>
					<path class="st25" d="M26.5312,13.5792c-0.3154,0.0718-0.5806,0.254-0.6955,0.4778c-0.1149,0.2238-0.062,0.4552,0.1387,0.6068
						c0.2007,0.1517,0.5187,0.2005,0.834,0.1282c0.3154-0.0718,0.5806-0.254,0.6955-0.4778
						c0.1149-0.2238,0.062-0.4552-0.1387-0.6068C27.1645,13.5557,26.8465,13.5068,26.5312,13.5792z"/>
					<path class="st25" d="M24.8225,14.0074c-0.3084,0.0976-0.5577,0.301-0.6537,0.5335c-0.096,0.2325-0.0242,0.4587,0.1883,0.5933
						c0.2125,0.1346,0.5335,0.1571,0.8417,0.059c0.3084-0.0976,0.5577-0.301,0.6537-0.5335
						c0.096-0.2325,0.0242-0.4587-0.1883-0.5933C25.4517,13.9318,25.1308,13.9093,24.8225,14.0074z"/>
					<path class="st25" d="M23.2637,14.6749c-0.2946,0.1336-0.5179,0.3653-0.5855,0.6076s0.0306,0.4584,0.2576,0.5667
						c0.2271,0.1083,0.5484,0.0924,0.8427-0.0417c0.2946-0.1336,0.5179-0.3653,0.5855-0.6076
						c0.0677-0.2423-0.0306-0.4584-0.2576-0.5667C23.8794,14.5249,23.5581,14.5408,23.2637,14.6749z"/>
					<path class="st25" d="M21.7089,15.4719c-0.2822,0.1583-0.4848,0.4082-0.5315,0.6553c-0.0467,0.2472,0.0696,0.4541,0.305,0.5426
						c0.2355,0.0885,0.5543,0.0453,0.8362-0.1135c0.2822-0.1583,0.4848-0.4082,0.5315-0.6553
						c0.0467-0.2472-0.0696-0.4541-0.305-0.5426C22.3096,15.2698,21.9908,15.3131,21.7089,15.4719z"/>
					<path class="st25" d="M20.2381,16.4695c-0.2633,0.188-0.4376,0.4584-0.4572,0.7092c-0.0196,0.2508,0.1185,0.4438,0.3622,0.5063
						c0.2437,0.0624,0.5559-0.0152,0.8189-0.2037c0.2633-0.188,0.4376-0.4584,0.4572-0.7092
						c0.0196-0.2508-0.1185-0.4438-0.3622-0.5063C20.8133,16.2034,20.5011,16.2811,20.2381,16.4695z"/>
					<path class="st25" d="M18.8767,17.501c-0.2464,0.2096-0.3972,0.4938-0.3955,0.7454c0.0017,0.2516,0.1556,0.4322,0.4037,0.4738
						c0.2481,0.0416,0.5526-0.0622,0.7987-0.2722c0.2464-0.2096,0.3972-0.4938,0.3955-0.7454
						c-0.0017-0.2516-0.1556-0.4322-0.4037-0.4738C19.4273,17.1872,19.1228,17.291,18.8767,17.501z"/>
					<path class="st25" d="M17.6755,18.7563c-0.2308,0.2267-0.3608,0.521-0.3411,0.7718c0.0197,0.2508,0.1862,0.4199,0.4367,0.4436
						c0.2504,0.0237,0.5467-0.1017,0.7771-0.3288c0.2308-0.2267,0.3608-0.521,0.3411-0.7718
						c-0.0197-0.2508-0.1862-0.4199-0.4367-0.4436C18.2022,18.4038,17.9059,18.5291,17.6755,18.7563z"/>
					<path class="st25" d="M16.6408,20.1517c-0.211,0.2452-0.3159,0.5494-0.2753,0.7976c0.0406,0.2483,0.2207,0.4029,0.4723,0.4055
						c0.2515,0.0026,0.5363-0.1471,0.7469-0.3927c0.211-0.2452,0.3159-0.5494,0.2753-0.7976
						c-0.0406-0.2483-0.2207-0.4029-0.4723-0.4055C17.1362,19.7564,16.8514,19.9061,16.6408,20.1517z"/>
					<path class="st25" d="M15.6949,21.5805c-0.1836,0.2664-0.2555,0.5799-0.1886,0.8225c0.0669,0.2425,0.2624,0.377,0.5128,0.3529
						c0.2504-0.0242,0.5176-0.2034,0.7007-0.4701c0.1836-0.2663,0.2555-0.5799,0.1886-0.8225
						c-0.0669-0.2425-0.2624-0.377-0.5128-0.3529C16.1453,21.1346,15.8781,21.3138,15.6949,21.5805z"/>
					<path class="st25" d="M14.9068,23.2003c-0.1351,0.2939-0.1521,0.6152-0.0445,0.8427c0.1076,0.2274,0.3233,0.3264,0.5658,0.2595
						c0.2425-0.0668,0.4749-0.2893,0.6096-0.5835c0.1351-0.2939,0.1521-0.6152,0.0445-0.8427
						c-0.1076-0.2274-0.3233-0.3264-0.5658-0.2595C15.2739,22.6837,15.0414,22.9062,14.9068,23.2003z"/>
					<path class="st25" d="M14.2828,24.8931c-0.1079,0.305-0.0957,0.6265,0.032,0.8432c0.1277,0.2167,0.3515,0.2957,0.587,0.2072
						c0.2355-0.0886,0.4468-0.3312,0.5542-0.6363c0.1079-0.305,0.0957-0.6265-0.032-0.8432
						c-0.1277-0.2167-0.3515-0.2957-0.587-0.2072C14.6015,24.3453,14.3902,24.588,14.2828,24.8931z"/>
					<path class="st26" d="M13.7413,28.0979c-0.0302,0.2582,0.0602,0.5057,0.237,0.6492s0.4131,0.161,0.6198,0.0461
						c0.2067-0.115,0.3523-0.3449,0.3819-0.6032c0.0302-0.2582-0.0602-0.5057-0.237-0.6492
						c-0.1768-0.1435-0.4131-0.161-0.6198-0.0461C13.9165,27.6097,13.7709,27.8397,13.7413,28.0979L13.7413,28.0979z"/>
					<path class="st25" d="M13.8856,26.6018c-0.0722,0.3154-0.0231,0.6333,0.1287,0.8339c0.1518,0.2006,0.3832,0.2534,0.6069,0.1383
						c0.2237-0.115,0.4057-0.3803,0.4774-0.6958c0.0722-0.3154,0.0231-0.6333-0.1287-0.8339
						c-0.1518-0.2006-0.3832-0.2534-0.6069-0.1383C14.1392,26.021,13.9572,26.2863,13.8856,26.6018z"/>
				</g>
				<g>
					<path class="st27" d="M44.6944,25.8351c0.1971-0.211,0.3804-0.2706,0.6124-0.1937c-0.0818-0.5565-0.2579-0.7454-0.4725-0.6783
						C44.6198,25.0301,44.5227,25.3162,44.6944,25.8351L44.6944,25.8351z"/>
					<path class="st27" d="M44.9957,27.5152c0.2124-0.1955,0.3997-0.2412,0.6253-0.147c-0.0396-0.5611-0.201-0.7627-0.42-0.712
						C44.982,26.7068,44.8636,26.9848,44.9957,27.5152L44.9957,27.5152z"/>
					<path class="st27" d="M44.2829,24.3024c0.137-0.2541,0.2992-0.3583,0.5431-0.3429c-0.2205-0.5175-0.4387-0.6554-0.6292-0.5361
						C44.0063,23.5428,43.9851,23.8441,44.2829,24.3024L44.2829,24.3024z"/>
					<path class="st27" d="M43.5352,22.7738c0.137-0.2541,0.2992-0.3583,0.5431-0.3429c-0.2205-0.5175-0.4387-0.6554-0.6292-0.5361
						C43.2586,22.0141,43.2374,22.3155,43.5352,22.7738L43.5352,22.7738z"/>
					<path class="st27" d="M41.7425,19.9733c0.0944-0.2728,0.2377-0.4018,0.481-0.4257c-0.3008-0.4753-0.5384-0.5764-0.7072-0.428
						C41.3474,19.268,41.3749,19.5689,41.7425,19.9733L41.7425,19.9733z"/>
					<path class="st27" d="M40.5706,18.7531c0.084-0.2762,0.2224-0.4105,0.4645-0.4436c-0.3185-0.4636-0.5598-0.5556-0.7229-0.401
						C40.1492,18.0632,40.188,18.3628,40.5706,18.7531L40.5706,18.7531z"/>
					<path class="st27" d="M38.108,16.6746c-0.0051-0.2886,0.0852-0.459,0.3054-0.5651c-0.4459-0.343-0.7037-0.3562-0.8112-0.1589
						C37.4946,16.148,37.6238,16.4211,38.108,16.6746L38.108,16.6746z"/>
					<path class="st27" d="M39.3892,17.6357c0.0449-0.2852,0.1633-0.4373,0.3986-0.5037c-0.3797-0.415-0.6314-0.4727-0.7715-0.2969
						C38.8762,17.0108,38.9562,17.3022,39.3892,17.6357L39.3892,17.6357z"/>
					<path class="st27" d="M36.6451,15.8675c-0.0349-0.2866,0.0373-0.4654,0.2454-0.5936
						c-0.4789-0.2952-0.7367-0.2817-0.8233-0.0743C35.9806,15.407,36.1373,15.6653,36.6451,15.8675L36.6451,15.8675z"/>
					<path class="st27" d="M35.1505,15.2151c-0.0755-0.2786-0.0296-0.4659,0.1579-0.6226
						c-0.5162-0.2236-0.7694-0.1734-0.8255,0.0443C34.4269,14.8545,34.619,15.0877,35.1505,15.2151L35.1505,15.2151z"/>
					<path class="st27" d="M33.5402,14.7162c-0.0988-0.2712-0.069-0.4617,0.1047-0.6337c-0.5332-0.1791-0.7813-0.1076-0.8187,0.114
						C32.7887,14.4181,32.9998,14.6342,33.5402,14.7162L33.5402,14.7162z"/>
					<path class="st27" d="M31.9584,14.41c-0.1182-0.2634-0.1022-0.4555,0.0586-0.6396c-0.5448-0.1401-0.7871-0.0508-0.8083,0.1729
						C31.1873,14.167,31.4135,14.3673,31.9584,14.41L31.9584,14.41z"/>
					<path class="st27" d="M30.2831,14.2815c-0.1449-0.2497-0.1489-0.4425-0.0081-0.6423c-0.5564-0.0828-0.7881,0.0311-0.786,0.2558
						C29.4909,14.1198,29.7367,14.2956,30.2831,14.2815L30.2831,14.2815z"/>
					<path class="st27" d="M27.0037,14.5286c-0.2008-0.2074-0.2511-0.3935-0.1627-0.6214
						c-0.5599,0.0537-0.7573,0.2201-0.7012,0.4377C26.196,14.5626,26.4769,14.6739,27.0037,14.5286L27.0037,14.5286z"/>
					<path class="st27" d="M28.618,14.3161c-0.1709-0.2327-0.1956-0.4239-0.0771-0.6377c-0.5621-0.0225-0.7802,0.1156-0.754,0.3388
						C27.8131,14.2405,28.0763,14.3888,28.618,14.3161L28.618,14.3161z"/>
					<path class="st27" d="M25.4196,14.8708c-0.2284-0.1765-0.305-0.3535-0.2501-0.5916c-0.5464,0.1335-0.718,0.3265-0.6312,0.5338
						C24.6251,15.0203,24.919,15.0902,25.4196,14.8708L25.4196,14.8708z"/>
					<path class="st27" d="M22.3868,16.2652c-0.2579-0.1298-0.3666-0.289-0.3581-0.5332c-0.5111,0.235-0.6428,0.4571-0.5181,0.6441
						C21.6352,16.5631,21.9371,16.5758,22.3868,16.2652L22.3868,16.2652z"/>
					<path class="st27" d="M23.8489,15.5182c-0.2402-0.1602-0.3288-0.3314-0.2906-0.5728
						c-0.5358,0.1712-0.6935,0.3756-0.5925,0.5764C23.0667,15.7226,23.3648,15.7719,23.8489,15.5182L23.8489,15.5182z"/>
					<path class="st27" d="M19.6665,18.1592c-0.2792-0.0732-0.4188-0.2063-0.4613-0.4469c-0.4509,0.3363-0.5334,0.581-0.3725,0.7379
						C18.9935,18.6072,19.2914,18.5568,19.6665,18.1592L19.6665,18.1592z"/>
					<path class="st27" d="M20.9644,17.097c-0.2727-0.0949-0.4014-0.2384-0.4249-0.4816c-0.4758,0.3-0.5772,0.5374-0.4291,0.7065
						C20.2584,17.491,20.5593,17.464,20.9644,17.097L20.9644,17.097z"/>
					<path class="st27" d="M18.5136,19.2954c-0.2847-0.0475-0.4358-0.1673-0.5-0.4031c-0.4184,0.3759-0.4784,0.6271-0.3039,0.7687
						C17.8841,19.8027,18.1762,19.7254,18.5136,19.2954L18.5136,19.2954z"/>
					<path class="st27" d="M17.4797,20.6362c-0.2879-0.0215-0.4492-0.1271-0.5346-0.3561
						c-0.3826,0.4124-0.4195,0.6679-0.2329,0.7931C16.8989,21.1985,17.1827,21.095,17.4797,20.6362L17.4797,20.6362z"/>
					<path class="st27" d="M16.6155,22.0079c-0.2878,0.0228-0.4634-0.0568-0.5828-0.27c-0.3149,0.4661-0.3122,0.7243-0.1087,0.8194
						C16.1276,22.6525,16.3923,22.5067,16.6155,22.0079L16.6155,22.0079z"/>
					<path class="st27" d="M15.8559,23.4723c-0.2824,0.06-0.4668,0.0038-0.6129-0.1921c-0.2518,0.503-0.2156,0.7586-0.0014,0.8266
						C15.4558,24.1748,15.6993,23.9959,15.8559,23.4723L15.8559,23.4723z"/>
					<path class="st27" d="M15.2485,24.9748c-0.2693,0.104-0.4603,0.0777-0.6356-0.0926c-0.1689,0.5365-0.0927,0.7832,0.1296,0.8164
						C14.9648,25.7319,15.1769,25.5167,15.2485,24.9748L15.2485,24.9748z"/>
					<path class="st27" d="M14.8418,26.6501c-0.2617,0.1218-0.4541,0.1084-0.6404-0.0498
						c-0.1326,0.5467-0.0401,0.7877,0.1839,0.8059C14.6094,27.4244,14.8066,27.1955,14.8418,26.6501L14.8418,26.6501z"/>
					<path class="st27" d="M14.6761,28.044c-0.2464,0.1305-0.4384,0.1459-0.6398,0.0473c-0.0733,0.4455,0.044,0.6216,0.2679,0.6057
						C14.5281,28.6811,14.6992,28.4754,14.6761,28.044L14.6761,28.044z"/>
					<path class="st27" d="M42.8684,21.4116c0.0985-0.2713,0.2438-0.3981,0.4874-0.4183c-0.2935-0.4799-0.5296-0.5845-0.7006-0.4387
						C42.4841,20.7003,42.507,21.0016,42.8684,21.4116L42.8684,21.4116z"/>
					<path class="st27" d="M45.1796,29.2167c0.2124-0.1955,0.3997-0.2412,0.6253-0.147c-0.0396-0.5611-0.201-0.7627-0.42-0.712
						C45.1659,28.4084,45.0476,28.6863,45.1796,29.2167L45.1796,29.2167z"/>
				</g>
				<path class="st28" d="M41.6474,22.0443c0,0,0.5864-0.9282,0.3597-1.8019c-0.2267-0.8737-1.1944-0.2563-1.1735,0.0546
					c0.0208,0.3109,0.6253,0.7269,0.6621,0.9166C41.5323,21.4035,41.4273,21.9871,41.6474,22.0443L41.6474,22.0443z"/>
				<g>
					<path class="st19" d="M42.977,20.0828c-0.0068,0-0.636,0.6292-0.5266,1.3951c0.1094,0.766,0.595,1.7098,0.5061,2.503
						c-0.0889,0.7934-0.2325,1.3199-0.2325,1.3199s0.7386-0.8412,0.7454-1.6481c0.0068-0.807-0.5061-1.8671-0.5061-2.462
						C42.9633,20.5957,42.9907,20.069,42.977,20.0828L42.977,20.0828z"/>
					<path class="st19" d="M44.1465,22.654c0,0-0.4924,0.3625-0.4445,1.1968c0.0479,0.8343,0.9096,2.3663,0.9096,2.3663
						s0.6292,1.2925,0.6087,1.6277c-0.0205,0.3351,0.1163-0.3214,0.0547-1.06c-0.0615-0.7386-1.0122-2.3663-1.0122-2.3663
						s-0.2052-0.3351-0.1846-0.8891C44.0986,22.9756,44.1533,22.661,44.1465,22.654L44.1465,22.654z"/>
					<path class="st29" d="M30.448,14.3243c0,0,2.1133,0.0821,2.1269,1.4499c-0.0068,0.212,0,0.465-0.0752,1.0737
						c0.4172-0.2257,0.6976-0.8549,0.6429-1.2584C33.1493,14.2012,31.255,13.2506,30.448,14.3243L30.448,14.3243z"/>
					<path class="st29" d="M29.108,14.2628c0,0,1.7029-0.3556,1.7166,1.0122c0.0137,1.3678-0.5403,1.5866-0.5403,1.5866
						s1.3063-0.2804,1.3131-1.6687C31.6042,13.8046,29.9151,13.1892,29.108,14.2628L29.108,14.2628z"/>
					<path class="st29" d="M45.6498,29.9358c0.0392,0.6136,0.6397,1.2011,0.4047,2.2717c-0.3003,1.2142-1.3578,4.0996-1.175,4.6087
						c-0.3133-0.4309-0.2611-0.8356-0.2872-1.4361c-0.0261-0.6006,0.8747-2.8331,0.9531-3.5904
						C45.5454,31.1109,45.6106,30.1839,45.6498,29.9358L45.6498,29.9358z"/>
					<path class="st29" d="M45.6498,29.9493c0,0,0.9792,1.2403,0.927,2.2195c-0.0522,0.9792-0.6006,2.1281-0.4178,2.6373
						c-0.3133-0.4309-0.3917-0.705-0.4178-1.3056c-0.0261-0.6006,0.4831-1.2665,0.3786-1.9192
						C46.0153,30.9284,45.6367,29.9492,45.6498,29.9493L45.6498,29.9493z"/>
					<path class="st29" d="M13.5732,30.2228c-0.0392,0.6136-0.4961,1.162-0.2611,2.2326c0.3003,1.2142,1.3709,2.7548,1.2011,4.5173
						c0.3133-0.4309,0.4047-0.9139,0.4309-1.5146c0.0261-0.6006-1.188-2.6243-1.2665-3.3815
						C13.6776,31.3979,13.6123,30.4709,13.5732,30.2228L13.5732,30.2228z"/>
					<path class="st29" d="M13.5732,30.2363c0,0-0.9531,1.2011-0.9009,2.1803c0.0131,0.6528,1.2142,3.3815,1.0315,3.8906
						c0.3133-0.4308,0.4047-0.3786,0.3917-1.0315c-0.3525-1.6711-0.9792-2.7418-0.8747-3.3945
						C13.3252,31.2285,13.5863,30.2362,13.5732,30.2363L13.5732,30.2363z"/>
				</g>
			</g>
			<g>
				<path class="st30" d="M32.0916,18.4685c0,0,1.7013,0.1071,1.7846,1.0827c0.0833,0.9756-0.4045,1.5704-0.4045,1.5704
					s0.2141,2.1058-1.4514,2.7244c-1.7846,0.2142-4.5804,0.0476-4.5804,0.0476s-0.8209,0.2023-1.154-1.499
					c-0.3331-1.7013-0.4283-2.9029-0.4283-2.9029s0.1666-0.9518,1.3682-1.0112c1.2016-0.0595,4.854,0.0119,4.866-0.0119
					L32.0916,18.4685z"/>
				<path class="st31" d="M33.4593,21.1095c0,0-0.9161,1.1421-0.8209,1.6061"/>
				<path class="st30" d="M32.2343,23.7863c0.226,0.1904,0.4402,0.4045,0.4878,1.1065c0.0476,0.7019,0.0952,1.4039,0.0952,1.4039
					l1.1897,10.7078l1.0469,7.745l0.0714,1.2016c0,0-0.2498,0.8804-0.9518,0.9518c-0.5116,1.0707-3.2836,1.3801-3.5572,1.3682
					c-0.2498-0.0119-1.1302-0.3807-1.6656-0.3331c-0.5354,0.0476-1.4633,0.4045-1.8798,0.345
					c-0.4164-0.0595-1.3563-0.3807-1.5228-1.0588c-1.1659-0.3688-1.3563-1.2611-1.3563-1.2611l1.2611-8.9587l1.2254-11.3262
					c0,0,0.1428-1.5109,0.7495-1.737c0.6306-0.0595,3.8903,0.0595,4.8064-0.1547L32.2343,23.7863z"/>
				<path class="st3" d="M25.8097,39.2886l-0.2498,7.9235"/>
				<path class="st3" d="M33.5069,40.3352l0.7019,6.5316"/>
				<path class="st32" d="M29.8565,19.2526l2.3725,7.3018l7.6766,0.0003l-6.2104,4.513l2.372,7.302l-6.2107-4.5127l-6.2107,4.5126
					l2.372-7.302l-6.2104-4.5131l7.6766-0.0003L29.8565,19.2526z"/>
			</g>
		</g>
	</g>
</g>
</svg>
