<?xml version="1.0" encoding="utf-8"?>
<!-- Generator: Adobe Illustrator 21.1.0, SVG Export Plug-In . SVG Version: 6.00 Build 0)  -->
<svg version="1.1" id="Layer_1" xmlns="http://www.w3.org/2000/svg" xmlns:xlink="http://www.w3.org/1999/xlink" x="0px" y="0px"
	 viewBox="0 0 335 335" style="enable-background:new 0 0 335 335;" xml:space="preserve">
<style type="text/css">
	.st0{fill:#1EB53A;}
	.st1{fill:#FCD116;}
</style>
<g>
	<g>
		<path class="st0" d="M335,167.49C335,259.99,259.99,335,167.49,335C74.98,335,0,259.99,0,167.49C0,74.98,74.98,0,167.49,0
			C259.99,0,335,74.98,335,167.49z"/>
		<g>
			<path class="st1" d="M167.49,204.05c-51.82,0-94.63-38.3-101.76-88.12c-0.63,4.59-0.98,9.26-0.98,14.01
				c0,56.73,46,102.75,102.74,102.75c56.76,0,102.73-46.03,102.73-102.75c0-4.75-0.34-9.41-0.96-14.01
				C262.11,165.75,219.28,204.05,167.49,204.05z"/>
			<polygon class="st1" points="167.49,66.57 176.16,93.19 204.15,93.19 181.5,109.65 190.15,136.29 167.49,119.83 144.84,136.29 
				153.49,109.65 130.83,93.19 158.83,93.19 			"/>
		</g>
	</g>
</g>
</svg>
