<?xml version="1.0" encoding="utf-8"?>
<!-- Generator: Adobe Illustrator 22.0.0, SVG Export Plug-In . SVG Version: 6.00 Build 0)  -->
<svg version="1.1" id="Layer_1" xmlns="http://www.w3.org/2000/svg" xmlns:xlink="http://www.w3.org/1999/xlink" x="0px" y="0px"
	 viewBox="0 0 60 60" style="enable-background:new 0 0 60 60;" xml:space="preserve">
<style type="text/css">
	.st0{clip-path:url(#SVGID_2_);fill:#00247D;}
	.st1{clip-path:url(#SVGID_4_);fill:#00247D;}
	.st2{clip-path:url(#SVGID_6_);fill:#FFFFFF;}
	.st3{clip-path:url(#SVGID_8_);fill:#FFFFFF;}
	.st4{clip-path:url(#SVGID_10_);fill:#CF142B;}
	.st5{clip-path:url(#SVGID_12_);fill:#CF142B;}
	.st6{fill:#FFFFFF;}
	.st7{fill:#00A2BD;stroke:#000000;stroke-width:0.1055;}
	.st8{fill:#A53D08;}
	.st9{fill:#FF9A08;stroke:#000000;stroke-width:0.0563;}
	.st10{fill:none;stroke:#FFDF00;stroke-width:0.0563;stroke-linecap:round;}
	.st11{fill:none;stroke:#FFDF00;stroke-width:0.1055;stroke-linecap:round;}
	.st12{fill:#008021;stroke:#000000;stroke-width:0.0232;}
	.st13{fill:#FFE1CF;stroke:#000000;stroke-width:0.0232;}
	.st14{fill:#870F00;stroke:#000000;stroke-width:0.0232;}
	.st15{fill:none;stroke:#000000;stroke-width:0.0232;}
</style>
<g>
	<g>
		<g>
			<g>
				<g>
					<defs>
						<circle id="SVGID_1_" cx="30" cy="30" r="30"/>
					</defs>
					<clipPath id="SVGID_2_">
						<use xlink:href="#SVGID_1_"  style="overflow:visible;"/>
					</clipPath>
					<rect id="rect2414_2_" x="-30.4259" y="-0.2126" class="st0" width="120.8518" height="60.4256"/>
				</g>
			</g>
		</g>
	</g>
	<g>
		<g>
			<g>
				<g>
					<defs>
						<circle id="SVGID_3_" cx="30" cy="30" r="30"/>
					</defs>
					<clipPath id="SVGID_4_">
						<use xlink:href="#SVGID_3_"  style="overflow:visible;"/>
					</clipPath>
					<rect id="rect124_2_" x="-30.4259" y="-0.2126" class="st1" width="60.4259" height="30.2127"/>
				</g>
			</g>
		</g>
	</g>
	<g>
		<g>
			<g>
				<g>
					<defs>
						<circle id="SVGID_5_" cx="30" cy="30" r="30"/>
					</defs>
					<clipPath id="SVGID_6_">
						<use xlink:href="#SVGID_5_"  style="overflow:visible;"/>
					</clipPath>
					<path id="path146_2_" class="st2" d="M-30.4259-0.2126v3.3771L23.2445,30H30v-3.3775L-23.6704-0.2126H-30.4259z M30-0.2126
						v3.3771L-23.6704,30h-6.7555v-3.3775L23.2445-0.2126H30z"/>
				</g>
			</g>
		</g>
	</g>
	<g>
		<g>
			<g>
				<g>
					<defs>
						<circle id="SVGID_7_" cx="30" cy="30" r="30"/>
					</defs>
					<clipPath id="SVGID_8_">
						<use xlink:href="#SVGID_7_"  style="overflow:visible;"/>
					</clipPath>
					<path id="path136_2_" class="st3" d="M-5.2483-0.2126v30.2127h10.071V-0.2126H-5.2483z M-30.4259,9.8578v10.0709H30V9.8578
						H-30.4259z"/>
				</g>
			</g>
		</g>
	</g>
	<g>
		<g>
			<g>
				<g>
					<defs>
						<circle id="SVGID_9_" cx="30" cy="30" r="30"/>
					</defs>
					<clipPath id="SVGID_10_">
						<use xlink:href="#SVGID_9_"  style="overflow:visible;"/>
					</clipPath>
					<path id="path141_2_" class="st4" d="M-30.4259,11.8722v6.0424H30v-6.0424H-30.4259z M-3.234-0.2126v30.2127h6.0422V-0.2126
						H-3.234z"/>
				</g>
			</g>
		</g>
	</g>
	<g>
		<g>
			<g>
				<g>
					<defs>
						<circle id="SVGID_11_" cx="30" cy="30" r="30"/>
					</defs>
					<clipPath id="SVGID_12_">
						<use xlink:href="#SVGID_11_"  style="overflow:visible;"/>
					</clipPath>
					<path id="path150_2_" class="st5" d="M-30.4259,30.0001l20.1421-10.0714h4.5037l-20.1418,10.0714H-30.4259z M-30.4259-0.2126
						l20.1421,10.0704h-4.5037l-15.6384-7.8185V-0.2126z M5.3542,9.8578L25.4963-0.2126H30L9.8579,9.8578H5.3542z M30,30.0001
						L9.8579,19.9286h4.504L30,27.748V30.0001z"/>
				</g>
			</g>
		</g>
	</g>
</g>
<g>
	<path class="st6" d="M36.2219,30.1792h14.9544l-0.0178,10.6411c0.1244,4.2777-2.5418,6.9321-7.4476,8.1289
		c-3.4833-0.8651-7.5003-2.6544-7.5063-8.0075l0.0178-10.7625H36.2219z"/>
	<path class="st7" d="M36.5529,30.5h14.2916l-0.017,10.1968c0.1189,4.099-2.4292,6.6425-7.1175,7.7894
		c-3.3292-0.8288-7.1682-2.5436-7.1739-7.6731l0.017-10.313H36.5529z"/>
	<path class="st8" d="M50.7336,41.9046c-0.5199,3.9127-3.5332,5.6222-7.024,6.5296c-3.0897-0.8289-6.4139-2.1521-7.0583-6.5099
		l14.0824-0.0197L50.7336,41.9046z"/>
	<path d="M43.1437,32.3994l-0.0199-1.2851l1.0162,0.01l0.01,1.2752h2.7794l0.01,0.9962l-2.7894,0.01l-0.0223,11.7488l-0.9912,0.0062
		l-0.0127-11.765l-2.77,0.01l0.0006-1.0161L43.1437,32.3994z"/>
	<g>
		<path class="st9" d="M40.8936,42.3894l2.5442,2.6394c0.8798-0.967,0.2695-4.5813-0.8876-5.247
			c-0.1387,0.428-0.3745,0.9411-0.6253,1.1066c-0.5516,0.3759-1.9032,0.8154-1.4514,1.0968
			c0.103-0.1427,0.3725-0.2774,0.4993,0.0397c0.1506,0.4993-0.5627,0.5311-0.5627,0.5311s-0.4518-0.0555-0.531-0.5153
			c-0.0793-0.4596,0.6729-0.8793,0.7371-0.9114c0.0634-0.0238,1.0462-0.2853,1.2127-1.1572c0.2061-0.856,0.42-0.7292,0.4597-0.745
			c1.2839,0.1268,2.1241,2.4254,2.1717,4.0423c0.0475,1.6169-0.6578,2.6869-0.7847,2.7582
			c-0.1268,0.0713-3.0594-3.4795-3.0594-3.4795L40.8936,42.3894L40.8936,42.3894z"/>
		<path class="st9" d="M42.7483,39.9324l0.0158,4.7635"/>
		<path class="st9" d="M42.463,40.0195c0,0.0079,0.0158,4.3277,0.0158,4.3277"/>
		<path class="st9" d="M42.1538,40.6457l0.0158,3.4399"/>
		<path class="st9" d="M41.9002,40.8914l0.0159,2.8455"/>
		<path class="st9" d="M41.6307,41.0182v2.4016"/>
		<path class="st9" d="M41.3374,41.2085v1.9022"/>
		<path class="st9" d="M41.0838,41.3591v1.4583"/>
		<g>
			<path class="st10" d="M40.8539,42.6907l2.6235,3.004"/>
			<path class="st11" d="M43.6042,40.7963c0,0,1.189,2.5998,0.0872,4.7398"/>
			<path class="st11" d="M40.5448,42.1437c0,0,0.0872-0.2299,0.1982-0.1347"/>
			<path class="st11" d="M40.3388,41.478c0,0-0.4756,0.42-0.214,0.6896"/>
		</g>
	</g>
	<g>
		<path class="st12" d="M44.1575,34.8666c0.1761-0.1511,0.2675-0.2434,0.3766-0.2266c0.1091,0.0168,0.2576,0.0084,0.3666-0.0252
			c0.1094-0.0336,0.6507-0.1007,0.8733-0.0252c0.0755,0.0084,0.1761,0.0504,0.3312,0.1805
			c0.1555,0.1301,0.3821,0.3567,0.3066,0.9863c-0.0755,0.6295-0.0508,0.8988-0.084,1.2507
			c-0.0586,0.6212-0.1964,1.1326-0.4447,1.0912c0.3357,0.5876,0.3692,1.0912,0.5873,1.4941
			c0.2185,0.4029,0.3526,1.2255,0.2686,2.1153c-0.0836,0.8898-0.3187,2.8874,0.3861,4.2305c-0.1175,0.0839-0.4027,0-0.6548-0.2686
			c-0.2517-0.2686-0.3622-0.2598-0.5707-0.1007c-0.6378,0.4869-1.2351,1.0736-2.115,0.4869
			c-0.2015-0.1343-0.2653-0.2954-0.1175-0.7051c0.3692-1.024,0.5486-2.429,0.4904-3.0889L44.1575,34.8666L44.1575,34.8666z"/>
		<g>
			<path class="st13" d="M44.7624,34.2371c0.0461,0.1427,0.0711,0.3273-0.0044,0.4952c-0.0755,0.1679-0.0921,0.3693,0.0335,0.6128
				c0.2015-0.2854,0.4871-0.2266,0.6548-0.3945c0.168-0.1679,0.2015-0.3274,0.3276-0.361c-0.126-0.1091-0.3191-0.2266-0.2771-0.5456
				c0.042-0.319,0.4867-0.5791,0.084-1.066c-0.2601-0.3143-0.6382-0.2266-0.8018-0.1049c-0.077,0.0572-0.1426,0.1385-0.1677,0.193
				c-0.0254,0.0546,0.0063,0.1787-0.0549,0.2518c-0.0416,0.0503-0.0925,0.1004-0.1511,0.1427
				c-0.0376,0.0273-0.0612,0.0671-0.021,0.1133c0.0162,0.0185,0.0457,0.0224,0.0781,0.0337
				c-0.0188,0.0378-0.0402,0.0754-0.0612,0.1027c-0.0199,0.0256-0.0114,0.05,0.0125,0.0709
				c-0.0317,0.1007,0.0295,0.1116-0.0125,0.1872c-0.0365,0.0653-0.0859,0.1426,0.0505,0.2182
				C44.4894,34.2077,44.6681,34.2491,44.7624,34.2371L44.7624,34.2371z"/>
			<path class="st13" d="M43.1298,35.9075c-0.2351,0.0588-0.6128-0.0419-0.8983-0.0084c-0.126,0.0149-0.2266-0.0503-0.2097-0.1762
				c0.0166-0.1259,0.0335-0.319,0.0081-0.4952c-0.0391-0.2747,0.0925-0.6547,0.2771-1.0744
				c0.1846-0.4197,0.2771-0.6547,0.2771-0.852c0-0.1301,0.0125-0.277,0.1301-0.3525c0.087-0.0558,0.1035-0.11,0.1345-0.1553
				c0.0711-0.1049,0.1382-0.1301,0.1466-0.0671c0.0052,0.0374-0.0085,0.0713-0.042,0.1217c0.0755-0.063,0.2038-0.1364,0.2329-0.1574
				c0.0295-0.021,0.1787-0.1259,0.1868-0.0273c0.059-0.0294,0.0987-0.0273,0.1135,0.0042c0.0158,0.034,0.0063,0.0483-0.0232,0.0735
				c0.042-0.0084,0.0903,0.0651,0.0063,0.1301c0.0442-0.0147,0.0881,0.0588,0.0107,0.1259
				c-0.0803,0.0693-0.1721,0.1175-0.2015,0.1721c-0.0295,0.0546-0.2288,0.2078-0.3084,0.2413
				c-0.08,0.0336-0.084,0.0796-0.084,0.1972c0,1.2926-0.1551,1.1876-0.1551,1.4983c0,0.0839-0.0169,0.1595,0.0671,0.1343
				c0.084-0.0252,0.2056-0.0629,0.3316-0.0629V35.9075L43.1298,35.9075z"/>
			<path class="st13" d="M43.1799,38.6942c0.3795-0.1897,0.8143-0.2602,1.0409-0.3189c0.2266-0.0588,0.5877-0.235,0.7638-0.3273
				c0.1765-0.0924,0.3191-0.2183,0.4197-0.2518c0.101-0.0336,0.2137-0.103,0.2771-0.2266c0.3272-0.638,0.5037-1.1499,0.5037-1.5948
				c0-0.2938-0.0755-0.6212-0.3611-0.3861c-0.2682,0.2209-0.5604,0.6468-0.6378,0.9569c-0.1175,0.47-0.2181,0.5708-0.2436,0.6631
				c-0.0251,0.0924-0.1201,0.0923-0.2351,0.1175c-0.4952,0.1091-0.6128,0.1846-0.9819,0.4616s-0.7723,0.5205-1.0409,0.6715
				c-0.2686,0.1511-0.3187,0.1679-0.3777,0.2896c-0.0586,0.1217-0.1131,0.214-0.1636,0.2686
				c-0.0505,0.0545-0.0648,0.1183-0.0545,0.1846c0.0085,0.0546-0.0169,0.3064-0.021,0.3903
				c-0.0044,0.0839,0.0166,0.1049,0.0505,0.1091c0.0335,0.0042,0.0796-0.0126,0.0965-0.1133
				c-0.0169,0.1007,0.1216,0.0671,0.1301-0.0084c-0.0044,0.1091,0.1426,0.0462,0.1511-0.0546c0,0.0713,0.1113,0.022,0.1216-0.0126
				c0.0251-0.0839,0.0461-0.1763,0.0796-0.2434c0.049-0.0975,0.1013-0.2237,0.1975-0.2938
				C43.0038,38.8957,42.9533,38.8075,43.1799,38.6942L43.1799,38.6942z"/>
			<path class="st13" d="M45.8995,45.5688c0.0254,0.0923,0.0715,0.1973,0.0881,0.2602c0.0169,0.0629-0.0125,0.0826-0.0291,0.1175
				c-0.0881,0.1847-0.1828,0.479-0.1975,0.6379c-0.0081,0.0923-0.0711,0.1805-0.1006,0.235
				c-0.0324,0.0602-0.0199,0.1066,0.0545,0.1637c0.0357,0.0273,0.1511-0.0084,0.1636-0.0671
				c0.042,0.0419,0.1175,0.0252,0.1511-0.0378c0.038,0.0378,0.101,0.0126,0.143-0.0503c0.0376,0.0252,0.0921-0.0252,0.1131-0.0588
				c0.059,0.0294,0.122-0.0063,0.1238-0.1217c0.0004-0.0232,0.0147-0.063,0.0317-0.0902c0.0166-0.0273,0.0228-0.0797,0.021-0.1259
				c-0.0022-0.0462,0.0273-0.1385,0.0671-0.2035c0.0398-0.0651,0.1091-0.1805,0.0796-0.2896
				c-0.0273-0.1017-0.0711-0.0923-0.1091-0.2392c-0.0921-0.0966-0.2181-0.2309-0.3482-0.2393
				C46.0215,45.4513,45.9459,45.5394,45.8995,45.5688L45.8995,45.5688z"/>
			<path class="st13" d="M43.5115,46.2907c0.1175,0.1175,0.3821,0.1217,0.5667-0.0756c-0.0671-0.0294-0.2141-0.0965-0.2811-0.1511
				C43.7046,46.1563,43.5996,46.2612,43.5115,46.2907z"/>
		</g>
		<path class="st14" d="M44.6994,32.9445c0.0461-0.298,0.2572-0.2909,0.3902-0.2602c0.0545,0.0126,0.189,0.0252,0.3147-0.0084
			c0.2491-0.0664,0.4366,0.021,0.4116,0.2602c0.0671,0.0503,0.1382,0.1678,0.1256,0.2686c-0.0125,0.1007,0.0085,0.1427,0.101,0.1552
			c0.0921,0.0126,0.2896,0.1259,0.1592,0.2854c0.126,0.0756,0.2226,0.2686,0.1555,0.3987
			c-0.0671,0.1301-0.2686,0.1511-0.3526,0.0336c-0.0921,0.042-0.2436,0.0504-0.3357-0.0461c-0.063,0.0755-0.2226,0.0671-0.252,0
			c-0.0291-0.0672-0.0788-0.1031-0.1382-0.1217c-0.0674-0.021-0.0715-0.2056,0.0291-0.2266
			c-0.0125-0.0546-0.0081-0.1175,0.0169-0.1469c0.0251-0.0294,0.0041-0.0839-0.0545-0.1301
			c-0.059-0.0462-0.1091-0.2224-0.0505-0.3189c-0.1006,0.0336-0.3231-0.063-0.3692-0.1301
			C44.8041,32.8899,44.7414,32.8857,44.6994,32.9445z"/>
		<g>
			<path class="st15" d="M44.7624,34.2371c0.1636-0.021,0.2181-0.1217,0.3397-0.1133"/>
			<path class="st15" d="M44.4139,33.7813c0.0107,0.0094,0.0243,0.0171,0.0398,0.0256c0.0332,0.0179,0.0693,0.02,0.1028,0.0241"/>
			<path class="st15" d="M44.4625,33.6077c0.0228,0.0079,0.0472,0.0194,0.0689,0.0419"/>
			<path class="st15" d="M44.842,32.9445c-0.0965-0.0923,0.1636-0.2812,0.4366-0.0126c0.0508,0.0501,0.1802,0.0504,0.2181,0.0378"/>
			<path class="st15" d="M45.2197,33.0872c0.126-0.0294,0.3147-0.0294,0.3692,0.1133c0.0549,0.1427,0.164,0.0504,0.252,0.2183
				c0.0881,0.1679,0.2266,0.3567,0.3607,0.2266"/>
			<path class="st15" d="M45.6689,34.0315c-0.038-0.0504-0.0545-0.1595-0.0295-0.2351c-0.0505-0.0587-0.0295-0.1804,0-0.2392"/>
			<path class="st15" d="M45.3078,33.6831c0.0044,0.0504,0.0715,0.1427,0.1765,0.1595"/>
			<path class="st15" d="M46.0045,34.0776c-0.0586-0.0755-0.0505-0.1427-0.0376-0.235"/>
			<path class="st15" d="M45.3918,33.2425c-0.0041,0.0755,0.042,0.1763,0.1216,0.2098c0.0169,0.0419,0.101,0.1595,0.2686,0.1427"/>
			<path class="st15" d="M45.8159,32.9361c-0.0921-0.0715-0.217-0.1595-0.3821-0.1813"/>
			<path class="st15" d="M44.7915,35.345c-0.1426,0.1931-0.2351,0.4616-0.1677,0.8394c0.0671,0.3777,0.1761,0.9317-0.101,1.1835"/>
			<path class="st15" d="M45.8829,38.0982c-0.1931-0.0419-0.4702-0.0419-0.6212,0.0672s-0.4031,0.1175-0.5707,0.0336"/>
			<path class="st15" d="M45.4758,38.0857c-0.168,0.0294-0.2476,0.1469-0.2476,0.4574s-0.0671,0.7638-0.0085,1.2087"/>
			<path class="st15" d="M45.1692,38.2158c-0.1091,0.0294-0.2222,0.0335-0.2012,0.3273"/>
			<path class="st15" d="M44.6029,38.5515c0.0041-0.1805,0.0671-0.3483,0.1846-0.319"/>
			<path class="st15" d="M45.8115,38.5851c0.0085-0.3987-0.0796-0.512-0.1971-0.5078c0.1595,0.0042,0.2682,0.0237,0.3357,0.6757
				c0.0505,0.4868,0.1522,0.6592,0.2686,1.0409c0.3021,0.9905,0.1511,2.5181,0.3021,3.0554"/>
			<path class="st15" d="M45.5808,38.7026c0.3187,0.9234,0.4867,1.9474-0.0335,3.5926c0.3522,0.9737,0.7049,1.6787,0.7719,2.0817"/>
			<path class="st15" d="M44.5734,40.885c0.0586-0.2098-0.1511-0.235,0.0335-0.9737c0.08-0.32,0.0925-0.512,0.042-0.6128"/>
			<path class="st15" d="M44.649,39.7351c-0.0755,0.3274,0.2436,0.9401,0.084,1.385"/>
			<path class="st15" d="M44.3383,41.204c0,0.2854,0.0671,0.6547,0.0505,0.9401c-0.0169,0.2854,0.0995,0.4176,0.2351,0.6883
				c0.4867,0.9737,0.818,1.6684,0.7719,2.5853c-0.0081,0.1679,0.0505,0.5204-0.1256,0.6211"/>
			<path class="st15" d="M44.3508,46.2865c0.0505,0.0042,0.105-0.021,0.168-0.1721c0.063-0.1511,0.2646-1.0576,0.1805-1.6788"/>
			<path class="st15" d="M44.8,45.1407c0.0251,0.193,0.0251,0.5875-0.1006,0.8981"/>
			<path class="st15" d="M45.1191,44.5615c0.0755,0.4113,0.0671,0.7807,0.0085,1.0408"/>
			<path class="st15" d="M44.9511,45.6023c0.0085,0.1679,0.084,0.5876-0.042,0.6212"/>
			<path class="st15" d="M45.5808,43.655c0.3102,0.4868,0.5538,1.6872,0.8139,1.939"/>
			<path class="st15" d="M45.8494,45.4009c-0.0085-0.1343-0.0169-0.3189-0.0925-0.4029"/>
			<path class="st15" d="M42.496,39.5252c0.0041-0.0924-0.0125-0.1805,0.0881-0.3232"/>
			<path class="st15" d="M42.345,39.5798c0.0125-0.3232,0.0081-0.3526,0.1006-0.4407"/>
			<path class="st15" d="M42.2149,39.5882c0.0041-0.2308-0.0254-0.3106,0.0671-0.4575"/>
			<path class="st15" d="M43.373,32.6633c-0.0357,0.0231-0.2454,0.1825-0.3335,0.2497"/>
			<path class="st15" d="M43.4632,32.7409c-0.0398,0.0063-0.1551,0.1007-0.3607,0.2602"/>
			<path class="st15" d="M43.4695,32.871c-0.0648,0.0294-0.1886,0.149-0.3021,0.2287"/>
			<path class="st15" d="M42.9533,32.8479c-0.0313,0.0231-0.0921,0.0902-0.1216,0.1133"/>
			<path class="st15" d="M45.8785,46.916c-0.0188-0.021-0.0188-0.0945,0.0147-0.1763"/>
			<path class="st15" d="M46.0296,46.8782c-0.0228-0.0231,0-0.1238,0.0232-0.1889"/>
			<path class="st15" d="M46.1725,46.8279c-0.0273-0.0126-0.0357-0.0714,0.0041-0.1511"/>
			<path class="st15" d="M46.2856,46.7691c-0.0188-0.0063-0.0273-0.0378,0.0063-0.1301"/>
		</g>
		<g>
			<path d="M44.6342,33.2088c0.0608,0.0797,0.1238,0.0713,0.1349,0.1227c0.0111,0.0515,0.0192,0.0551,0.031,0.0704
				c0.0118,0.0152-0.0287,0.0122-0.0486,0.0039c-0.0195-0.0082-0.0689-0.0074-0.0991-0.0069
				c-0.0298,0.0005-0.0656-0.0349-0.0431-0.039c0.0221-0.0041,0.0192-0.0111,0.0158-0.0268
				c-0.0033-0.0156,0.0125-0.0403,0.0217-0.0449c0.0096-0.0045,0.0029-0.0037-0.0055-0.0247
				C44.6324,33.2426,44.6213,33.1917,44.6342,33.2088L44.6342,33.2088z"/>
			<path d="M44.6711,33.1358c0.0682,0.008,0.1857,0.0448,0.2494,0.1154c0.0501,0.0555,0.0092,0.0408-0.0162,0.0429
				c-0.0254,0.0021-0.0752-0.0159-0.1002-0.0474c-0.0247-0.0315-0.0987-0.0714-0.1382-0.0818
				C44.642,33.1586,44.6195,33.1297,44.6711,33.1358L44.6711,33.1358z"/>
		</g>
	</g>
</g>
</svg>
