<?xml version="1.0" encoding="utf-8"?>
<!-- Generator: Adobe Illustrator 21.1.0, SVG Export Plug-In . SVG Version: 6.00 Build 0)  -->
<svg version="1.1" id="Layer_1" xmlns="http://www.w3.org/2000/svg" xmlns:xlink="http://www.w3.org/1999/xlink" x="0px" y="0px"
	 viewBox="0 0 60 60" style="enable-background:new 0 0 60 60;" xml:space="preserve">
<style type="text/css">
	.st0{fill:#FFFFFF;}
	.st1{fill:#CF142B;}
	.st2{fill:#E60D2E;}
	.st3{fill:#96877D;}
	.st4{fill:#CCCCCC;}
	.st5{fill:#D0D0D0;}
	.st6{fill:none;stroke:#96877D;stroke-width:0.0437;}
	.st7{fill:#96877D;stroke:#000000;stroke-width:0.0173;}
</style>
<g>
	<path class="st0" d="M0,29.9973C0,46.5661,13.4299,60,29.9999,60V0C13.4299,0,0,13.4301,0,29.9973z"/>
	<path class="st1" d="M60,29.9973C60,13.4301,46.5673,0,29.9999,0v60C46.5673,60,60,46.5661,60,29.9973z"/>
</g>
<path class="st2" d="M4.5345,16.9222v3.8667H8.401c0,0.6443,0.6445,1.2888,1.2889,1.2888v3.8664h3.8663v-3.8664
	c0.6445,0,1.2889-0.6445,1.2889-1.2888h3.8665v-3.8667H14.845c0-0.6443-0.6445-1.2888-1.2889-1.2888V11.767H9.6899v3.8664
	c-0.6445,0-1.2889,0.6445-1.2889,1.2888C8.401,16.9222,4.5345,16.9222,4.5345,16.9222z"/>
<path class="st3" d="M4.7924,17.1799v3.3512h3.8663c0,0.6442,0.6445,1.2887,1.2889,1.2887v3.8664h3.3508v-3.8664
	c0.6445,0,1.2889-0.6445,1.2889-1.2887h3.8663v-3.3512h-3.8663c0-0.6443-0.6445-1.2888-1.2889-1.2888v-3.8664H9.9476v3.8664
	c-0.6445,0-1.2889,0.6445-1.2889,1.2888C8.6587,17.1799,4.7924,17.1799,4.7924,17.1799z"/>
<path class="st4" d="M4.9214,17.3088v3.0932h3.8663c0,0.6443,0.6445,1.289,1.2889,1.289v3.8664h3.0931V21.691
	c0.6445,0,1.2889-0.6447,1.2889-1.289h3.8663v-3.0932h-3.8663c0-0.6442-0.6445-1.2887-1.2889-1.2887v-3.8664h-3.0931v3.8664
	c-0.6445,0-1.2889,0.6445-1.2889,1.2887H4.9214z"/>
<path class="st3" d="M9.8351,15.974c0.2265,0.2265,0.1653,0.6549-0.1367,0.957c-0.302,0.302-0.7304,0.3632-0.9569,0.1367
	c-0.2265-0.2265-0.1653-0.6549,0.1367-0.957C9.1802,15.8088,9.6086,15.7475,9.8351,15.974z"/>
<path class="st5" d="M8.6959,16.6574l0.0911-0.0912l0.3645,0.1822l-0.1823-0.3645l0.0911-0.0912l0.3645,0.7291l-0.7291-0.3645
	L8.6959,16.6574z"/>
<path class="st5" d="M9.2427,16.1106l0.0911-0.0911l0.5468,0.5468l-0.0911,0.0911L9.2427,16.1106z"/>
<path class="st3" d="M14.5046,17.0677c-0.2265,0.2265-0.6549,0.1653-0.957-0.1367c-0.302-0.302-0.3632-0.7304-0.1367-0.9569
	c0.2265-0.2265,0.6549-0.1653,0.957,0.1367C14.6699,16.4128,14.7311,16.8412,14.5046,17.0677z"/>
<path class="st5" d="M13.8212,15.9284l0.0912,0.0911l-0.1822,0.3645l0.3645-0.1823l0.0912,0.0911l-0.7291,0.3645l0.3645-0.7291
	L13.8212,15.9284z"/>
<path class="st5" d="M14.368,16.4753l0.0911,0.0911l-0.5468,0.5468l-0.0911-0.0911L14.368,16.4753z"/>
<path class="st3" d="M13.411,21.7372c-0.2265-0.2265-0.1653-0.6549,0.1367-0.957c0.302-0.302,0.7304-0.3632,0.9569-0.1367
	c0.2265,0.2265,0.1653,0.6549-0.1367,0.957C14.0658,21.9025,13.6374,21.9637,13.411,21.7372z"/>
<path class="st5" d="M14.5502,21.0538l-0.0911,0.0912l-0.3645-0.1822l0.1823,0.3645l-0.0911,0.0912l-0.3645-0.7291l0.7291,0.3645
	L14.5502,21.0538z"/>
<path class="st5" d="M14.0033,21.6006l-0.0911,0.0911l-0.5468-0.5468l0.0911-0.0911L14.0033,21.6006z"/>
<path class="st3" d="M8.7414,20.6436c0.2265-0.2265,0.6549-0.1653,0.957,0.1367c0.302,0.302,0.3632,0.7304,0.1367,0.9569
	c-0.2265,0.2265-0.6549,0.1653-0.957-0.1367C8.5762,21.2984,8.515,20.87,8.7414,20.6436z"/>
<path class="st5" d="M9.4248,21.7828l-0.0912-0.0911l0.1822-0.3645l-0.3645,0.1823l-0.0912-0.0911l0.7291-0.3645l-0.3645,0.7291
	L9.4248,21.7828z"/>
<path class="st5" d="M8.8781,21.2359l-0.0911-0.0911l0.5468-0.5468l0.0911,0.0911L8.8781,21.2359z"/>
<circle class="st6" cx="11.623" cy="18.8556" r="2.7069"/>
<circle class="st6" cx="11.623" cy="18.8556" r="2.0623"/>
<circle cx="10.592" cy="21.0462" r="0.1289"/>
<circle cx="12.654" cy="21.0462" r="0.1289"/>
<path d="M11.5375,21.0462v0.1344h-0.1719c-0.1719,0-0.1719,0.1344,0,0.1344h0.1719v0.1344c0.0006,0.1392,0.15,0.1562,0.1609,0.0117
	l0.0109-0.1453h0.1719c0.1718,0,0.1718-0.1344,0-0.1344h-0.1719V21.047c0-0.1344-0.1718-0.1344-0.1718,0L11.5375,21.0462z"/>
<path d="M9.1051,19.5228l0.1772-0.0422l-0.0196-0.0821c-0.0045-0.0188-0.0119-0.0317-0.0223-0.0384
	c-0.0104-0.0068-0.0282-0.0087-0.0535-0.0057L9.1839,19.342l0.1526-0.0364l0.0029,0.0123c-0.0175,0.0044-0.0298,0.0097-0.0369,0.016
	c-0.0072,0.0063-0.0119,0.0137-0.0142,0.0224c-0.0023,0.0086-0.0016,0.0205,0.002,0.0356l0.0196,0.0821l0.1417-0.0338
	c0.0228-0.0054,0.0376-0.0105,0.0442-0.0151c0.005-0.0035,0.0087-0.0093,0.011-0.0174c0.003-0.011,0.0032-0.0219,0.0007-0.0325
	l-0.0039-0.0163l0.0123-0.0029l0.0461,0.1935l-0.0123,0.0029l-0.0038-0.016c-0.0044-0.0186-0.0131-0.0309-0.026-0.0367
	c-0.0084-0.0036-0.0261-0.0022-0.0531,0.0042l-0.2913,0.0694c-0.0228,0.0054-0.0376,0.0105-0.0442,0.0151
	c-0.005,0.0035-0.0087,0.0092-0.011,0.017c-0.003,0.0108-0.0033,0.0216-0.0007,0.0325l0.0038,0.016L9.1111,19.657l-0.08-0.3355
	l0.0981-0.0279l0.0028,0.0116c-0.0197,0.0108-0.0336,0.0212-0.0416,0.0312c-0.008,0.01-0.0129,0.0211-0.0147,0.0334
	s0.0002,0.0301,0.0058,0.0536L9.1051,19.5228L9.1051,19.5228z M8.9909,18.723c0.0034-0.0601,0.0291-0.1108,0.0772-0.1523
	c0.0481-0.0415,0.1063-0.0603,0.1745-0.0564c0.0703,0.004,0.1274,0.0294,0.1713,0.0764c0.0439,0.047,0.0641,0.102,0.0606,0.165
	c-0.0036,0.0637-0.0292,0.116-0.077,0.1568c-0.0477,0.0408-0.1075,0.0592-0.1794,0.0551c-0.0735-0.0041-0.132-0.0325-0.1756-0.0852
	C9.0047,18.8366,8.9875,18.7835,8.9909,18.723L8.9909,18.723z M9.0155,18.7309c-0.0023,0.0414,0.0112,0.0755,0.0405,0.1023
	c0.0365,0.0333,0.0916,0.0521,0.1653,0.0562c0.0755,0.0043,0.1346-0.0086,0.1771-0.0386c0.0323-0.0231,0.0497-0.055,0.052-0.0957
	c0.0024-0.0435-0.0125-0.0803-0.0448-0.1105c-0.0323-0.0302-0.085-0.0474-0.158-0.0515c-0.0792-0.0045-0.1391,0.0078-0.1798,0.0368
	C9.0354,18.653,9.018,18.6867,9.0155,18.7309L9.0155,18.7309z M9.687,17.8844l-0.044,0.1157l-0.2584,0.0695
	c-0.0037,0.011-0.0069,0.0199-0.0095,0.0268c-0.0011,0.0028-0.0022,0.0057-0.0036,0.0089
	c-0.0013,0.0032-0.0027,0.0064-0.0043,0.0097l0.1259,0.0479c0.0273,0.0104,0.0453,0.0138,0.0542,0.0104
	c0.0125-0.0045,0.0218-0.0149,0.0279-0.0311l0.0064-0.0169l0.0118,0.0045l-0.0707,0.1856l-0.0118-0.0045l0.0062-0.0163
	c0.007-0.0183,0.006-0.0337-0.0029-0.0461c-0.0049-0.007-0.0197-0.0152-0.0444-0.0246l-0.2799-0.1065
	c-0.0273-0.0104-0.0453-0.0138-0.0542-0.0104c-0.0125,0.0047-0.0219,0.0153-0.0282,0.0317L9.1015,18.155l-0.0118-0.0045
	l0.0601-0.1578c0.0175-0.046,0.0338-0.0786,0.0488-0.0979c0.015-0.0193,0.0344-0.0331,0.0582-0.0415
	c0.0238-0.0084,0.0482-0.0078,0.0731,0.0017c0.0266,0.0101,0.0464,0.0276,0.0594,0.0524c0.013,0.0248,0.0166,0.057,0.0108,0.0965
	l0.1583-0.0421c0.0363-0.0096,0.062-0.0199,0.0769-0.0311c0.015-0.0111,0.0282-0.028,0.0398-0.0507L9.687,17.8844L9.687,17.8844z
	 M9.3472,18.1073c0.0015-0.004,0.0029-0.0075,0.0042-0.0105c0.0012-0.0029,0.0022-0.0054,0.003-0.0073
	c0.0157-0.0413,0.0186-0.0759,0.0087-0.1037c-0.0099-0.0278-0.0287-0.047-0.0564-0.0575c-0.0271-0.0103-0.0523-0.0102-0.0756,0.0003
	c-0.0234,0.0105-0.0404,0.0297-0.051,0.0576c-0.0047,0.0124-0.009,0.0298-0.013,0.0525L9.3472,18.1073L9.3472,18.1073z
	 M10.3335,16.5717l0.0896,0.1163l-0.01,0.0065c-0.03-0.024-0.058-0.0386-0.0841-0.0437c-0.0376-0.0074-0.0746,0.0007-0.111,0.0242
	c-0.0495,0.0321-0.0745,0.0761-0.075,0.132c-0.0002,0.0471,0.0145,0.0935,0.0441,0.1392c0.024,0.0371,0.0531,0.0663,0.0873,0.0876
	c0.0342,0.0213,0.0675,0.0316,0.1,0.0308c0.0325-0.0008,0.0609-0.0091,0.0854-0.025c0.0143-0.0093,0.027-0.0201,0.0381-0.0324
	c0.011-0.0123,0.0205-0.026,0.0283-0.0412l-0.0728-0.1125c-0.0126-0.0195-0.0224-0.0313-0.0293-0.0354
	c-0.0069-0.0041-0.0144-0.0057-0.0227-0.0049c-0.0083,0.0009-0.0202,0.0064-0.0359,0.0165l-0.0071-0.0109l0.1506-0.0976
	l0.0071,0.0109L10.509,16.737c-0.0149,0.0097-0.0219,0.0213-0.021,0.0348c0.0008,0.0096,0.0079,0.0248,0.0214,0.0456l0.0771,0.1191
	c-0.0143,0.0261-0.0304,0.0489-0.0482,0.0683c-0.0178,0.0194-0.0398,0.0376-0.0661,0.0546
	c-0.0752,0.0487-0.1479,0.0616-0.2181,0.0386c-0.0527-0.0172-0.0943-0.0494-0.1249-0.0967
	c-0.0222-0.0342-0.0352-0.0724-0.0391-0.1144c-0.0046-0.0499,0.0035-0.096,0.0246-0.1381c0.0177-0.0351,0.046-0.0652,0.0848-0.0904
	c0.0142-0.0092,0.0278-0.0164,0.0408-0.0216c0.0131-0.0052,0.0327-0.0107,0.0591-0.0167c0.0133-0.0029,0.0218-0.0056,0.0254-0.0079
	c0.0036-0.0024,0.0057-0.006,0.0061-0.0111c0.0004-0.005-0.0023-0.0126-0.008-0.0227L10.3335,16.5717L10.3335,16.5717z
	 M11.0883,16.6239l-0.1734,0.0461l-0.0116,0.0788c-0.0029,0.0194-0.0031,0.0334-0.0009,0.042
	c0.0018,0.0068,0.0067,0.012,0.0145,0.0154c0.0079,0.0034,0.0228,0.0031,0.0448-0.0011l0.0032,0.0122l-0.1411,0.0375l-0.0032-0.0122
	c0.0178-0.0083,0.0288-0.0158,0.0329-0.0225c0.0084-0.0136,0.0152-0.0383,0.0202-0.0743l0.0595-0.4106l0.0116-0.0031l0.255,0.3312
	c0.0205,0.0266,0.0371,0.043,0.0497,0.0492c0.0126,0.0062,0.0282,0.0074,0.0468,0.0037l0.0032,0.0122l-0.1767,0.047l-0.0032-0.0122
	c0.0176-0.0056,0.0289-0.0118,0.0338-0.0185c0.0049-0.0067,0.0064-0.0137,0.0045-0.021c-0.0026-0.0097-0.0111-0.0238-0.0254-0.0424
	L11.0883,16.6239L11.0883,16.6239z M11.0726,16.6019l-0.1241-0.1608l-0.0298,0.2018L11.0726,16.6019L11.0726,16.6019z
	 M11.891,16.5995l0.0112,0.0028l-0.0445,0.1242l-0.3587-0.014l0.0005-0.0126l0.0174,0.0007
	c0.0196,0.0008,0.0338-0.0051,0.0428-0.0175c0.0051-0.0071,0.0081-0.0239,0.0091-0.0503l0.0116-0.2989
	c0.0011-0.0289-0.0014-0.0471-0.0075-0.0547c-0.0085-0.0104-0.0215-0.0159-0.039-0.0166l-0.0174-0.0007l0.0005-0.0126l0.2097,0.0082
	l-0.0005,0.0126c-0.0246-0.0012-0.0419,0.0004-0.052,0.0048c-0.0101,0.0044-0.0171,0.0102-0.021,0.0173
	c-0.0039,0.0071-0.0064,0.0245-0.0075,0.0521l-0.0113,0.291c-0.0008,0.0189,0.0006,0.032,0.004,0.0392
	c0.0025,0.0049,0.0066,0.0086,0.0122,0.0111c0.0056,0.0025,0.0233,0.0043,0.0532,0.0055l0.0338,0.0013
	c0.0355,0.0014,0.0606-0.0003,0.0751-0.0049c0.0146-0.0047,0.028-0.0135,0.0404-0.0263S11.878,16.6278,11.891,16.5995
	L11.891,16.5995z M12.5083,16.7647l0.01,0.0058l-0.0771,0.107l-0.3408-0.1127l0.004-0.012l0.0166,0.0055
	c0.0186,0.0062,0.0339,0.0045,0.0459-0.005c0.0068-0.0054,0.0144-0.0207,0.0227-0.0458l0.0939-0.284
	c0.0091-0.0275,0.0117-0.0457,0.008-0.0546c-0.0053-0.0123-0.0163-0.0212-0.0329-0.0267l-0.0166-0.0055l0.004-0.012l0.1993,0.0659
	l-0.004,0.012c-0.0233-0.0079-0.0404-0.0112-0.0513-0.0098c-0.0109,0.0014-0.0192,0.005-0.025,0.0108
	c-0.0057,0.0058-0.013,0.0218-0.0216,0.0479l-0.0914,0.2765c-0.0059,0.018-0.0083,0.0309-0.007,0.0387
	c0.0011,0.0054,0.004,0.0101,0.0087,0.014c0.0047,0.004,0.0212,0.0106,0.0496,0.02l0.0321,0.0106
	c0.0338,0.0112,0.0583,0.0165,0.0735,0.016c0.0153-0.0005,0.0306-0.0052,0.0461-0.0141
	C12.4702,16.8045,12.488,16.7883,12.5083,16.7647L12.5083,16.7647z M13.0058,17.0282l-0.1465-0.1037l-0.0679,0.0415
	c-0.0167,0.0102-0.0277,0.019-0.0328,0.0262c-0.0041,0.0058-0.0049,0.0128-0.0025,0.021c0.0024,0.0083,0.0122,0.0195,0.0296,0.0337
	l-0.0073,0.0103l-0.1191-0.0843l0.0073-0.0103c0.0178,0.0084,0.0306,0.012,0.0384,0.0108c0.0158-0.0022,0.0392-0.0129,0.07-0.0321
	l0.3535-0.2172l0.0098,0.0069l-0.0911,0.408c-0.0073,0.0328-0.0093,0.056-0.006,0.0697c0.0033,0.0137,0.0124,0.0264,0.0271,0.0383
	l-0.0073,0.0103l-0.1493-0.1057l0.0073-0.0103c0.0156,0.0099,0.0276,0.0146,0.0359,0.0141c0.0083-0.0005,0.0147-0.0039,0.019-0.01
	c0.0058-0.0082,0.0112-0.0237,0.0163-0.0467L13.0058,17.0282L13.0058,17.0282z M13.0126,17.002l0.0441-0.1983L12.8826,16.91
	L13.0126,17.002L13.0126,17.002z M13.5624,17.1033l0.0749,0.1011l-0.1105,0.4347l0.2148-0.1592
	c0.0229-0.017,0.0353-0.0301,0.0371-0.0394c0.0027-0.0125-0.0014-0.026-0.0123-0.0407l-0.0096-0.0129l0.0102-0.0075l0.0961,0.1296
	l-0.0102,0.0075l-0.0098-0.0132c-0.0117-0.0157-0.0247-0.0234-0.0391-0.0229c-0.0088,0.0003-0.0237,0.0082-0.0446,0.0237
	l-0.3139,0.2327l-0.0073-0.0099l0.1179-0.4678l-0.2293,0.17c-0.0229,0.017-0.0353,0.03-0.0373,0.0392
	c-0.0025,0.0127,0.0016,0.0262,0.0123,0.0407l0.0098,0.0132l-0.0102,0.0075L13.2052,17.4l0.0102-0.0075l0.0096,0.0129
	c0.0118,0.0159,0.0249,0.0237,0.0393,0.0232c0.0088-0.0003,0.0237-0.0082,0.0446-0.0237l0.259-0.192
	c0.0046-0.0202,0.0069-0.0345,0.0068-0.0431c-0.0001-0.0086-0.0024-0.0195-0.007-0.0329c-0.0023-0.0065-0.0074-0.0152-0.0154-0.026
	L13.5624,17.1033L13.5624,17.1033z M14.1468,18.1804l-0.1008,0.0411l-0.0043-0.0122c0.0172-0.0087,0.029-0.0165,0.0353-0.0233
	c0.0101-0.0111,0.0162-0.0232,0.0181-0.0363c0.002-0.0132-0.0002-0.0288-0.0066-0.0468l-0.0218-0.0616l-0.3339,0.1181
	c-0.0269,0.0095-0.0426,0.0183-0.0472,0.0265c-0.0061,0.0114-0.0062,0.0255-0.0002,0.0425l0.0054,0.0151l-0.0119,0.0042
	l-0.0656-0.1853l0.0119-0.0042l0.0055,0.0155c0.0065,0.0185,0.0168,0.0296,0.0307,0.0334c0.0085,0.0023,0.0251-0.0009,0.0496-0.0096
	l0.3339-0.1181l-0.0186-0.0525c-0.0072-0.0204-0.0139-0.0344-0.0199-0.0419c-0.008-0.0097-0.0193-0.0165-0.0337-0.0204
	c-0.0144-0.0038-0.0318-0.003-0.0521,0.0025l-0.0043-0.0122l0.1043-0.0311L14.1468,18.1804L14.1468,18.1804z M13.7799,19.0026
	l-0.0064-0.1236l0.2083-0.1679c-0.0011-0.0116-0.0018-0.021-0.0022-0.0283c-0.0002-0.003-0.0003-0.0061-0.0003-0.0096
	c-0.0001-0.0034-0.0001-0.007,0-0.0106l-0.1345,0.007c-0.0291,0.0015-0.0471,0.0056-0.0538,0.0124
	c-0.0096,0.0092-0.0139,0.0224-0.013,0.0397l0.0009,0.0181l-0.0126,0.0007l-0.0103-0.1983l0.0126-0.0007l0.0009,0.0174
	c0.001,0.0196,0.0081,0.0332,0.0213,0.041c0.0073,0.0044,0.0242,0.0059,0.0506,0.0046l0.2991-0.0155
	c0.0291-0.0015,0.0471-0.0056,0.0538-0.0124c0.0096-0.0094,0.0139-0.0229,0.013-0.0404l-0.0009-0.0174l0.0126-0.0007l0.0088,0.1686
	c0.0026,0.0492,0.0008,0.0856-0.0051,0.1093c-0.006,0.0237-0.0181,0.0442-0.0365,0.0615c-0.0184,0.0173-0.0409,0.0266-0.0675,0.028
	c-0.0284,0.0015-0.0536-0.0065-0.0755-0.024c-0.0219-0.0175-0.0382-0.0454-0.0489-0.0839L13.8663,18.88
	c-0.0294,0.0234-0.0486,0.0433-0.0578,0.0595s-0.0145,0.037-0.0159,0.0624L13.7799,19.0026L13.7799,19.0026z M14.0007,18.6615
	c0.0003,0.0043,0.0003,0.0081,0.0004,0.0113c0.0001,0.0032,0.0002,0.0058,0.0003,0.0079c0.0023,0.0442,0.0136,0.0769,0.0339,0.0984
	c0.0203,0.0214,0.0452,0.0314,0.0748,0.0298c0.0289-0.0015,0.0519-0.0118,0.0691-0.0308c0.0172-0.019,0.025-0.0435,0.0234-0.0733
	c-0.0007-0.0132-0.0038-0.031-0.0093-0.0533L14.0007,18.6615L14.0007,18.6615z M14.1278,19.615l-0.041,0.1564l-0.0122-0.0032
	l0.0023-0.0086c0.0015-0.0057,0.0012-0.0148-0.001-0.0271s-0.0068-0.0243-0.0139-0.0358c-0.0071-0.0115-0.0196-0.0267-0.0375-0.0455
	l-0.1419-0.1528L13.77,19.4688c-0.0276-0.0072-0.0456-0.0087-0.054-0.0043c-0.0115,0.0059-0.0196,0.018-0.0243,0.036l-0.0038,0.0145
	l-0.0122-0.0032l0.05-0.1905l0.0122,0.0032l-0.0042,0.0159c-0.005,0.019-0.0028,0.0339,0.0066,0.0448
	c0.0058,0.0067,0.0212,0.0133,0.0464,0.0199l0.1061,0.0278l0.2201-0.0737c0.0259-0.0088,0.0422-0.015,0.0491-0.0187
	c0.0069-0.0037,0.0163-0.0127,0.0283-0.027c0.0034-0.0038,0.0061-0.0099,0.0083-0.0183l0.0122,0.0032l-0.0503,0.1918l-0.0122-0.0032
	l0.0026-0.0099c0.0027-0.0104,0.0028-0.0205,0.0003-0.0305c-0.0026-0.01-0.0087-0.0162-0.0184-0.0188
	c-0.0079-0.0021-0.024,0.0009-0.0483,0.0089l-0.1691,0.0557l0.1151,0.1242c0.0173,0.0187,0.0309,0.0293,0.0411,0.032
	c0.0062,0.0016,0.0121,0.0015,0.0178-0.0004c0.0057-0.0019,0.0107-0.0055,0.015-0.0107c0.0043-0.0052,0.008-0.0138,0.0112-0.0257
	L14.1278,19.615L14.1278,19.615z"/>
<path class="st7" d="M13.0942,19.2497c0.0452-0.0114,0.1199-0.0022,0.1199-0.0022s0.0065,0.0311-0.0131,0.0414
	c0.0218,0.0125,0.1003,0.0087,0.1003,0.0087s-0.0305,0.0234-0.0458,0.0327c0.0283,0.0027,0.0632,0.0392,0.0632,0.0392
	s-0.0654,0.0109-0.0937-0.0044c0.0174,0.0349,0.0153,0.0654,0.0153,0.0654s-0.1057-0.0262-0.1438-0.0959"/>
<path class="st7" d="M12.9173,19.1902c-0.0256,0.0632-0.2136-0.0545-0.2136-0.0545s0.0828,0.1313,0.207,0.146"/>
<path class="st7" d="M10.5705,20.3955h2.2012l0.17-0.1351l-0.2833-0.1526l-0.4359-0.1482l-0.1744-0.0959l-0.3225,0.0174
	l-0.2702,0.1438l-0.3705,0.0436l-0.0872,0.1003l-0.2746,0.0218l-0.4315-0.0087l0.7192,0.1133l-0.5928-0.0305L10.5705,20.3955
	L10.5705,20.3955z"/>
<path class="st7" d="M11.7562,19.7635c-0.2757-0.1482-0.3563,0.2169-0.4751,0.3051c0.1602,0.0272,0.2811-0.1231,0.4184-0.1961
	c0.1041,0.2835,0.2681,0.0959,0.2681,0.0959s0.1711,0.2713,0.3988,0.1482c0.0621,0.0469,0.1308,0.0044,0.1308,0.0044
	s0.0828,0.0153,0.1003-0.0218c0.0436,0.0153,0.0915-0.0392,0.0915-0.0392s0.0948,0.0011,0.1133-0.0479
	c0.1406,0.0251,0.3269-0.2877,0.3269-0.2877l0.0567-0.109l0.0828-0.0174c0,0,0.0055-0.0545-0.0392-0.0523
	c-0.0011-0.0327-0.0294-0.0501-0.0697-0.0436c0.0076-0.0196-0.0218-0.0349-0.0218-0.0349
	c-0.0785,0.0196-0.0828,0.2179-0.0828,0.2179s-0.1373,0.1046-0.1874,0.1308c-0.0022-0.1133-0.1918-0.267-0.1526-0.34
	c0.0392-0.073,0.1624,0.1122,0.2702,0.0785c0.1079-0.0338,0.1609-0.1741,0.1656-0.2833c-0.0305-0.0741-0.1046-0.1961-0.1046-0.1961
	l-0.0697-0.0044l-0.061-0.1482c0,0-0.1286,0.0839-0.1264,0.1569s0.1351,0.1351,0.1351,0.1351s-0.0767,0.0479-0.1482,0.0262
	c-0.0065,0.0741,0.0872,0.0599,0.122,0.061c0.0174,0.0534,0.0697,0.0828,0.0697,0.0828s0.0327,0.0817-0.0523,0.0741
	c-0.085-0.0076-0.1853-0.2035-0.3051-0.1133c-0.1275,0.0959,0.0567,0.2702,0.0567,0.2702s-0.1122,0.0588-0.1787,0.2092
	C12.2171,19.5957,12.058,19.7025,11.7562,19.7635L11.7562,19.7635z"/>
<path class="st7" d="M11.3598,19.3756c0.1133,0.1068,0.0343,0.2843,0.0785,0.3182c0.0469,0.036,0.1133-0.0174,0.1133-0.0174
	c0.1188,0.0316,0.3313-0.0349,0.3313-0.0349c0.0935,0.0523,0.0566-0.0249,0.1133-0.0218c0.0501,0.1286,0.2179,0.1046,0.2179,0.1046
	s-0.1536-0.1569-0.2485-0.2005c-0.073,0.0436-0.2855,0.0501-0.3225,0.0436c-0.0413-0.0073-0.0153-0.0578-0.0349-0.0872
	c0.0781-0.076,0.0163-0.2648-0.0262-0.3356C11.4089,19.0292,11.202,19.2269,11.3598,19.3756L11.3598,19.3756z"/>
<path class="st7" d="M10.606,19.0566c-0.1425,0.0385-0.3899-0.1842-0.5055-0.0986s-0.0616,0.2959,0.0154,0.4007
	c0.0753,0.1024-0.1102,0.1395-0.1603,0.2003c-0.0471,0.0572,0.0154,0.1233,0.0154,0.1233l0.0524,0.0339l-0.0092,0.0771
	l0.0277,0.0925c0,0,0.0254,0.0223,0.0339-0.0062c0.0239,0.0239,0.0025,0.093,0.0616,0.1017
	c-0.0212-0.0442,0.0154-0.1664,0.0154-0.1664s0.1032,0.0077,0.1294-0.037c0.0262-0.0447-0.0247-0.1418-0.0247-0.1418h0.0308
	c-0.0347-0.0239-0.0462-0.0955-0.0462-0.0955s0.1433-0.0455,0.1418-0.1541c-0.0015-0.1086-0.2327-0.2242-0.1479-0.2805
	c0.094-0.0624,0.2574,0.1618,0.3976,0.0586c0.1388-0.1022,0.0493-0.0031,0.0493-0.0031S10.7465,19.0187,10.606,19.0566
	L10.606,19.0566z"/>
<path class="st7" d="M11.3419,17.5298c-0.1907-0.0795-0.5803-0.0845-0.7977-0.1918c-0.0953,0.006-0.1378,0.0812-0.1417,0.1112
	c-0.0997-0.0049-0.1673,0.152-0.1526,0.1831c-0.1814-0.0736-0.2659,0.2136-0.207,0.2724c-0.1547,0.0065-0.1357,0.2043-0.1504,0.2593
	c-0.0496,0.1204,0.011,0.1609,0.109,0.1177c0.0147,0.0523-0.0059,0.0816-0.0501,0.0915c0.2686,0.3074,0.4204-0.1891,0.656-0.1874
	c0.2942-0.0861,0.4097-0.231,0.4097-0.231l0.1155,0.0153L11.3419,17.5298L11.3419,17.5298z"/>
<circle class="st7" cx="11.5882" cy="17.3098" r="0.2811"/>
<path class="st7" d="M11.0935,19.5236c-0.1744-0.0316-0.4631-0.2125-0.4925-0.449c0.1624-0.6375,0.9999-0.3046,1.0721-0.784
	c-0.0184-0.3163,0.0382-0.6295,0.2137-0.8941c0.0817-0.1035,0.1874-0.1308,0.1874-0.1308s0.0189,0.0675-0.0087,0.1133
	c0.1384-0.0153,0.328,0.0621,0.4577,0.0697c0.0381,0.0774,0.0349,0.1057,0.0262,0.1526c-0.0087,0.0469-0.061,0.0349-0.061,0.0349
	c-0.0338,0.0321-0.0745,0.0647-0.1656,0.0479c-0.0687,0.0523-0.2136,0.0654-0.2136,0.0654s0.3029,0.3193,0.2528,0.4184
	c0.0632,0.0294,0.1569,0.17,0.1569,0.17s0.207-0.109,0.2746-0.2092c0.1199,0,0.316,0.1253,0.4141,0.1395
	c0.1199,0.097,0.2397,0.1961,0.2397,0.1961s-0.1428,0.0937-0.2049-0.0305c-0.0752,0.0065-0.2376-0.1733-0.462-0.1177
	c-0.0065,0.1994-0.2267,0.34-0.2267,0.34s0.2055-0.0288,0.3182,0.0392c0.1166,0.0981,0.2877,0.231,0.2877,0.231l0.1526,0.2615
	c0,0-0.1395,0.024-0.1918-0.1569c-0.0523,0.146-0.0545-0.0904-0.2615-0.2005c-0.0632,0.0076-0.0948,0.012-0.1482-0.0305
	c-0.1493,0.0403-0.3258,0.1275-0.5361,0.1046c-0.1493,0.0469-0.2583,0.1711-0.4097,0.2397
	c-0.1515,0.0687-0.1961,0.0349-0.1961,0.0349l-0.122,0.0044c-0.0176,0.0735-0.0076,0.1853-0.0741,0.2049
	c0.0425,0.0458-0.0305,0.2408-0.1046,0.2746c0.0349,0.1253,0.137,0.1637,0.2441,0.2267c0,0,0.0948-0.0436,0.1569,0.0131
	c0.0621,0.0567,0.1264,0.2179,0.1264,0.2179s-0.1293,0.0087-0.17-0.0087c-0.0407-0.0175-0.0447-0.0599-0.0915-0.0479
	c-0.2953-0.2626-0.451-0.1582-0.4795-0.2179C11.0251,19.7849,11.124,19.6249,11.0935,19.5236L11.0935,19.5236z"/>
<path class="st7" d="M10.3841,18.3536c0.0154-0.0193,0.1233,0.0216,0.1233,0.0216l0.1973,0.1233l0.4007,0.2589l0.1418,0.2065
	l-0.2558-0.0832l-0.3544-0.3051l-0.1911-0.1233C10.4457,18.4522,10.3687,18.3728,10.3841,18.3536L10.3841,18.3536z"/>
<path class="st7" d="M12.7539,19.0098c-0.1384-0.0349-0.4795,0.3792-0.4795,0.3792l0.2572,0.279
	C12.5316,19.668,12.5393,19.1929,12.7539,19.0098z"/>
<path class="st7" d="M11.0674,17.8546c-0.0755,0.0967-0.0822,0.2917,0.016,0.3703c0.0093,0.1183,0.1099,0.357,0.1889,0.3794
	c0.0864,0.0245,0.4315,0.1046,0.5666,0.0828c-0.0258,0.219,0.146,0.3948,0.3051,0.51c-0.0012,0.0197-0.0014,0.0436,0.017,0.0679
	c0.0178,0.0235,0.1014,0.0278,0.1051,0.0149c0.0371,0.0521,0.2167,0.075,0.2297,0.0518c0.0127-0.0226-0.2642-0.2153-0.3256-0.2741
	c-0.0522-0.0973-0.151-0.3142-0.1744-0.4882c-0.1359-0.1616-0.3691-0.1584-0.3691-0.1584l0.0073-0.3167l0.0131-0.3574
	l-0.1264-0.0654c0,0,0.0255-0.0116,0.0392-0.0262c0.0307,0.0132,0.0884-0.0485,0.0959-0.0659
	c0.0291,0.0103,0.0554,0.0102,0.0605-0.0054c0.0045-0.0137,0.0097-0.0748,0.0203-0.1064c0.0954-0.084-0.0139-0.262-0.1597-0.2649
	c-0.1443-0.0029-0.1766,0.1721-0.1739,0.1854c0.0136,0.0549,0.0106,0.0826,0,0.0959c-0.0109,0.0136-0.061,0.0436-0.061,0.0436
	s-0.0806-0.0381-0.1787,0c-0.0981,0.0381-0.2081,0.0894-0.2136,0.1526c-0.0447,0.0065-0.1177,0.0643-0.1308,0.1133
	c-0.0392-0.0076-0.0904,0.0251-0.1744,0.1613c-0.1504,0.0665-0.1591,0.3879-0.1591,0.3879s-0.0406,0.0591-0.0425,0.0904
	c-0.0019,0.0313,0.0142,0.0599,0.0338,0.0545c0.0022,0.0207,0.0294,0.0392,0.0414,0.0327c0.0044,0.0207,0.0343,0.0323,0.0523,0.0294
	c0.0016,0.0142,0.0597,0.0106,0.0643-0.0022c0.0051-0.0141-0.0057-0.0848,0.0011-0.0904c0.0063-0.0052,0.0545,0.0316,0.0676,0.0218
	c0.0131-0.0098-0.0025-0.0412-0.0098-0.0534c-0.0065-0.0109-0.0479-0.0229-0.0578-0.0741c-0.0098-0.0512,0.0262-0.122,0.0262-0.122
	s0.1635-0.1286,0.182-0.2386C10.9671,18.0028,11.0323,17.8952,11.0674,17.8546L11.0674,17.8546z"/>
<path class="st7" d="M10.783,17.3936c0.0373-0.0913,0.1722-0.0828,0.1722-0.0828s0.0482-0.1269,0.2299-0.0512
	c0.0684-0.0528,0.2485,0.0229,0.2485,0.0229s0.0674-0.0898,0.1558-0.0795c0.1637,0.0191,0.191,0.1692,0.1809,0.1951
	c-0.0896,0.0226-0.2449-0.0728-0.3629-0.0458c-0.0689,0.039-0.1806,0.0801-0.2223,0.1362
	C11.0758,17.4999,10.9592,17.3879,10.783,17.3936L10.783,17.3936z"/>
<path class="st7" d="M11.1241,17.5451c0.0409-0.0251,0.1411-0.0691,0.2092-0.0153c0.0714,0.0768,0.1809,0.1482,0.1809,0.1482
	l0.1242,0.0523l0.0567,0.0349l-0.0371,0.5688c-0.115-0.1177-0.2227-0.1383-0.3051-0.2768
	c-0.0441-0.0594-0.0104-0.2021-0.0872-0.2964C11.1889,17.6666,11.1072,17.6029,11.1241,17.5451L11.1241,17.5451z"/>
<path class="st7" d="M11.4227,17.7094c0,0,0.0651-0.0123,0.0832,0.0031c0.0227,0.0077,0.0447,0.0143,0.0509,0.0339
	c0.0247,0.0073,0.0416,0.02,0.0416,0.0385c0.0231,0.0062,0.0324,0.0478,0.0324,0.0478l-0.0216,0.0324
	c0,0-0.0247-0.0231-0.0277-0.0478c-0.0156-0.0077-0.0501-0.0158-0.0586-0.0385c-0.027-0.0027-0.0443-0.0166-0.0493-0.0401
	C11.4485,17.7445,11.4227,17.7094,11.4227,17.7094L11.4227,17.7094z"/>
<path class="st7" d="M11.9739,17.3381c-0.0371-0.0414-0.1024-0.0109-0.1024-0.0109l-0.1744,0.3008l-0.0763,0.0632l-0.0065,0.2354
	l0.0632,0.2201l-0.0218,0.17c0,0,0.0878-0.0824,0.0981-0.1286c0.0098-0.0441-0.0327-0.1874-0.0327-0.1874
	s-0.0523-0.0894,0.0109-0.255C11.7952,17.58,11.939,17.4427,11.9739,17.3381L11.9739,17.3381z"/>
<path class="st7" d="M12.4043,17.6061c0,0-0.2722,0.389-0.7179,0.5274c-0.1231,0.0294-0.0785-0.2877-0.0785-0.2877l-0.0305,0.0087
	c0,0-0.0687,0.3106,0.0959,0.3138c0.4479-0.0883,0.7839-0.5598,0.7839-0.5598l-0.0536-0.0024L12.4043,17.6061z"/>
<path class="st7" d="M12.5889,19.8426c0,0-0.0414,0.0305-0.0959,0c-0.0283-0.0654-0.1046-0.0697-0.1046-0.0697
	s-0.0491-0.1411-0.1264-0.1003c-0.012-0.073-0.0959-0.0349-0.0959-0.0349s-0.0022-0.1057-0.1003-0.0915
	c0.0327-0.121-0.1351-0.1133-0.1351-0.1133s-0.0054-0.1362-0.2528-0.109c0.5329-0.2386,0.9546,0.3749,0.9546,0.3749"/>
<path class="st7" d="M12.8416,19.8945c0,0,0.1231,0.1384,0.1874,0.1395c0.0643,0.0011,0.0697-0.1351,0.0697-0.1351
	s0.0207,0.0588,0.0523,0.0436c-0.0033,0.0414,0.0392,0.0523,0.0392,0.0523s-0.1112,0.2583-0.4272,0.0131"/>
<path class="st7" d="M11.8778,19.9472l-0.0436,0.1787c0,0-0.0556,0.0501-0.0392,0.061c0.0163,0.0109,0.1046-0.0174,0.1046-0.0174
	s0.1373-0.0163,0.1787-0.0567c0.0283,0.0643,0.0915,0.0697,0.0915,0.0697s0.0044-0.0272-0.0044-0.0436
	c0.0305,0.0055,0.0567-0.0044,0.0567-0.0044s0.0174-0.0501-0.0218-0.0697c0.0044-0.0371,0.0229-0.0697-0.0436-0.0654
	c-0.049,0.0523-0.17,0.1122-0.2005,0.0915c-0.0305-0.0207,0.1199-0.0872,0.0785-0.1744"/>
</svg>
