<?xml version="1.0" encoding="utf-8"?>
<!-- Generator: Adobe Illustrator 21.1.0, SVG Export Plug-In . SVG Version: 6.00 Build 0)  -->
<svg version="1.1" id="Layer_1" xmlns="http://www.w3.org/2000/svg" xmlns:xlink="http://www.w3.org/1999/xlink" x="0px" y="0px"
	 viewBox="0 0 60 60" style="enable-background:new 0 0 60 60;" xml:space="preserve">
<style type="text/css">
	.st0{fill:#FCEB0F;}
	.st1{fill:#169253;}
	.st2{fill:#012A87;}
	.st3{fill:#DC181E;}
</style>
<g>
	<g>
		<path class="st0" d="M4.0498,44.9979h51.9018C58.5112,40.5807,60,35.4705,60,29.9973H0C0,35.4705,1.4888,40.5807,4.0498,44.9979z"
			/>
		<path class="st1" d="M30.0007,60c11.0959,0,20.7647-6.0416,25.9509-15.0021H4.0498C9.2372,53.9584,18.9048,60,30.0007,60z"/>
		<path class="st2" d="M0,29.9973h60c0-5.4666-1.4888-10.5822-4.0484-14.998H4.0498C1.4888,19.4152,0,24.5307,0,29.9973z"/>
		<path class="st3" d="M30.0007,0C18.9048,0,9.2372,6.0415,4.0498,14.9993h51.9018C50.764,6.0415,41.0966,0,30.0007,0z"/>
	</g>
</g>
</svg>
