<?xml version="1.0" encoding="utf-8"?>
<!-- Generator: Adobe Illustrator 21.1.0, SVG Export Plug-In . SVG Version: 6.00 Build 0)  -->
<svg version="1.1" id="Layer_1" xmlns="http://www.w3.org/2000/svg" xmlns:xlink="http://www.w3.org/1999/xlink" x="0px" y="0px"
	 viewBox="0 0 60 60" style="enable-background:new 0 0 60 60;" xml:space="preserve">
<style type="text/css">
	.st0{fill:#D21034;}
	.st1{fill:#007E3A;}
	.st2{fill:#FFFFFF;}
</style>
<g>
	<g>
		<g>
			<path class="st0" d="M30,0C19.3,0,10,5.6,4.7,14h50.7C50,5.6,40.7,0,30,0z"/>
			<path class="st0" d="M30,60c10.7,0,20-5.6,25.3-14H4.7C10,54.4,19.3,60,30,60z"/>
			<path class="st1" d="M55.3,14H4.7C1.7,18.6,0,24.1,0,30c0,5.9,1.7,11.4,4.7,16h50.7c2.9-4.6,4.7-10.1,4.7-16
				C60,24.1,58.3,18.6,55.3,14z"/>
		</g>
		<path class="st2" d="M27.9,30c0-5.1,3.5-9.4,8.3-10.6c-0.5-0.1-1.1-0.1-1.7-0.1c-5.9,0-10.7,4.8-10.7,10.7
			c0,5.9,4.8,10.7,10.7,10.7c0.6,0,1.1,0,1.7-0.1C31.4,39.4,27.9,35.1,27.9,30z"/>
	</g>
</g>
</svg>
