<?xml version="1.0" encoding="utf-8"?>
<!-- Generator: Adobe Illustrator 21.1.0, SVG Export Plug-In . SVG Version: 6.00 Build 0)  -->
<svg version="1.1" id="Layer_1" xmlns="http://www.w3.org/2000/svg" xmlns:xlink="http://www.w3.org/1999/xlink" x="0px" y="0px"
	 viewBox="0 0 60 60" style="enable-background:new 0 0 60 60;" xml:space="preserve">
<style type="text/css">
	.st0{clip-path:url(#SVGID_2_);}
	.st1{clip-path:url(#SVGID_4_);fill:#CE1126;}
	.st2{clip-path:url(#SVGID_6_);fill:#339E35;}
	.st3{fill:#CE1126;}
</style>
<g>
	<g>
		<defs>
			<circle id="SVGID_1_" cx="30" cy="30" r="30"/>
		</defs>
		<clipPath id="SVGID_2_">
			<use xlink:href="#SVGID_1_"  style="overflow:visible;"/>
		</clipPath>
		<rect class="st0" width="60" height="20"/>
	</g>
	<g>
		<defs>
			<circle id="SVGID_3_" cx="30" cy="30" r="30"/>
		</defs>
		<clipPath id="SVGID_4_">
			<use xlink:href="#SVGID_3_"  style="overflow:visible;"/>
		</clipPath>
		<rect y="20" class="st1" width="60" height="20"/>
	</g>
	<g>
		<defs>
			<circle id="SVGID_5_" cx="30" cy="30" r="30"/>
		</defs>
		<clipPath id="SVGID_6_">
			<use xlink:href="#SVGID_5_"  style="overflow:visible;"/>
		</clipPath>
		<rect y="40" class="st2" width="60" height="20"/>
	</g>
</g>
<g>
	<path class="st3" d="M30.456,4.5843c0-0.4945-0.128-0.9851-0.4563-0.9851c-0.3303,0-0.4563,0.4906-0.4563,0.9851
		c0,1.1982,0.4563,3.8302,0.4563,3.8302S30.456,5.7825,30.456,4.5843z"/>
	<path class="st3" d="M29.0307,8.4575c0,0,0.2273-2.6603,0.1227-3.8557c-0.0416-0.4905-0.2145-0.9702-0.5414-0.9421
		c-0.3298,0.0295-0.4128,0.5321-0.3672,1.0251C28.3479,5.8776,29.0307,8.4575,29.0307,8.4575z"/>
	<path class="st3" d="M28.0691,8.5821c0,0-0.0054-2.6696-0.2123-3.8463c-0.0858-0.4853-0.2989-0.9516-0.6213-0.8926
		c-0.3256,0.0563-0.3631,0.5588-0.278,1.0507C27.1646,6.0666,28.0691,8.5821,28.0691,8.5821z"/>
	<path class="st3" d="M27.1256,8.7965c0,0-0.2399-2.6655-0.5493-3.8208c-0.1294-0.4771-0.3779-0.9167-0.697-0.8323
		C25.561,4.2305,25.565,4.7358,25.693,5.2128C26.004,6.3667,27.1256,8.7965,27.1256,8.7965z"/>
	<path class="st3" d="M26.2016,9.0833c0,0-0.4717-2.6308-0.8791-3.7538c-0.1702-0.4637-0.4604-0.8819-0.7659-0.7733
		c-0.3117,0.1166-0.2614,0.6218-0.0925,1.0869C24.8702,6.7688,26.2016,9.0833,26.2016,9.0833z"/>
	<path class="st3" d="M25.3077,9.4545c0,0-0.6982-2.5799-1.2048-3.6613c-0.2083-0.4516-0.5327-0.8391-0.8316-0.701
		c-0.2968,0.1394-0.205,0.6366,0.0027,1.0855C23.78,7.266,25.3077,9.4545,25.3077,9.4545z"/>
	<path class="st3" d="M24.4487,9.9008c0,0-0.9214-2.506-1.5199-3.5434c-0.2466-0.4235-0.603-0.788-0.8884-0.6246
		c-0.2875,0.1662-0.1508,0.6527,0.0979,1.0855C22.7359,7.849,24.4487,9.9008,24.4487,9.9008z"/>
	<path class="st3" d="M23.6331,10.4235c0,0-1.1378-2.4244-1.824-3.4001c-0.2834-0.4047-0.6687-0.7357-0.9395-0.5467
		C20.6004,6.667,20.7773,7.144,21.06,7.5475C21.7462,8.5312,23.6331,10.4235,23.6331,10.4235z"/>
	<path class="st3" d="M22.8659,11.0091c0,0-1.3475-2.3103-2.1127-3.2257c-0.3203-0.3753-0.7331-0.6687-0.9844-0.4584
		c-0.2513,0.2118-0.0349,0.6687,0.2822,1.0453C20.8201,9.2911,22.8659,11.0091,22.8659,11.0091z"/>
	<path class="st3" d="M22.1509,11.6671c0,0-1.5398-2.1885-2.3868-3.0301c-0.3498-0.3498-0.7873-0.6084-1.0206-0.3726
		c-0.2325,0.2373,0.0248,0.6687,0.3746,1.0173C19.9638,10.1286,22.1509,11.6671,22.1509,11.6671z"/>
	<path class="st3" d="M18.2684,10.2694c0.9141,0.7706,3.2258,2.1067,3.2258,2.1067s-1.7254-2.0383-2.6394-2.8077
		c-0.38-0.3162-0.8384-0.5321-1.0474-0.2867C17.595,9.539,17.8879,9.9491,18.2684,10.2694z"/>
	<path class="st3" d="M17.5053,11.3282c0.9816,0.6888,3.4027,1.8212,3.4027,1.8212s-1.8977-1.8884-2.8781-2.5745
		c-0.4061-0.2773-0.8831-0.4582-1.0688-0.1876C16.7728,10.6567,17.1018,11.044,17.5053,11.3282z"/>
	<path class="st3" d="M16.8384,12.4472c1.0387,0.5977,3.5475,1.5158,3.5475,1.5158s-2.0551-1.7154-3.0898-2.3065
		c-0.4275-0.2439-0.9186-0.3819-1.0808-0.0978C16.0497,11.8482,16.413,12.198,16.8384,12.4472z"/>
	<path class="st3" d="M16.275,13.6238c1.0841,0.5013,3.6647,1.1994,3.6647,1.1994s-2.1985-1.5265-3.28-2.0316
		c-0.4463-0.2078-0.9481-0.3003-1.0862-0.0041C15.4374,13.0918,15.8254,13.4135,16.275,13.6238z"/>
	<path class="st3" d="M15.8112,14.8381c1.1285,0.4101,3.7572,0.8791,3.7572,0.8791s-2.3239-1.3254-3.4422-1.7382
		c-0.4663-0.1688-0.9723-0.2157-1.0809,0.0925C14.9294,14.3811,15.3475,14.6719,15.8112,14.8381z"/>
	<path class="st3" d="M14.6265,15.3969c-0.0844,0.3203,0.3538,0.5669,0.833,0.7036c0.4282,0.1099,1.0653,0.2157,1.6946,0.3003
		h1.5868c-0.7807-0.3498-2.2274-0.9744-3.0462-1.1915C15.2209,15.0859,14.7097,15.0793,14.6265,15.3969z"/>
	<path class="st3" d="M31.7546,4.6848c0.0409-0.4931-0.0409-0.9956-0.3666-1.0251c-0.3324-0.0281-0.4999,0.4517-0.5421,0.9421
		c-0.1053,1.1955,0.1206,3.8557,0.1206,3.8557S31.6514,5.8776,31.7546,4.6848z"/>
	<path class="st3" d="M32.7618,3.8432c-0.325-0.059-0.5355,0.4073-0.6199,0.8926c-0.2097,1.1767-0.2171,3.8463-0.2171,3.8463
		s0.91-2.5155,1.1157-3.6882C33.1263,4.402,33.0847,3.8995,32.7618,3.8432z"/>
	<path class="st3" d="M34.3036,5.2128c0.1273-0.477,0.132-0.9851-0.1883-1.0695c-0.3156-0.0844-0.5649,0.3552-0.6948,0.8323
		c-0.3096,1.1553-0.5482,3.8208-0.5482,3.8208S33.9954,6.3667,34.3036,5.2128z"/>
	<path class="st3" d="M35.5346,5.6431c0.1695-0.4651,0.2171-0.973-0.0939-1.0869c-0.3115-0.1086-0.5957,0.3096-0.7652,0.7733
		c-0.4087,1.123-0.8812,3.7538-0.8812,3.7538S35.1264,6.7688,35.5346,5.6431z"/>
	<path class="st3" d="M36.724,6.1777c0.2071-0.4489,0.2994-0.9461,0-1.0855c-0.3003-0.1407-0.6192,0.2494-0.8316,0.701
		c-0.5032,1.0814-1.2022,3.6613-1.2022,3.6613S36.218,7.266,36.724,6.1777z"/>
	<path class="st3" d="M37.8618,6.8184c0.2459-0.4328,0.3793-0.9219,0.0932-1.0855c-0.2856-0.1634-0.6387,0.201-0.8872,0.6246
		c-0.5971,1.0374-1.5192,3.5434-1.5192,3.5434S37.264,7.849,37.8618,6.8184z"/>
	<path class="st3" d="M38.9373,7.5475c0.2834-0.4035,0.4603-0.8845,0.1897-1.0708c-0.2708-0.189-0.6527,0.142-0.9409,0.5467
		c-0.6827,0.9757-1.8233,3.4001-1.8233,3.4001S38.2518,8.5312,38.9373,7.5475z"/>
	<path class="st3" d="M37.134,11.0091c0,0,2.0431-1.718,2.813-2.6388c0.3156-0.3766,0.5327-0.8377,0.2815-1.0453
		c-0.2547-0.2131-0.6654,0.083-0.9809,0.4584C38.4789,8.6987,37.134,11.0091,37.134,11.0091z"/>
	<path class="st3" d="M37.849,11.6671c0,0,2.1838-1.5385,3.0322-2.3854c0.3498-0.3486,0.6044-0.7894,0.3712-1.0173
		c-0.2338-0.2358-0.6668,0.0228-1.0213,0.3726C39.3889,9.4787,37.849,11.6671,37.849,11.6671z"/>
	<path class="st3" d="M38.5038,12.3761c0,0,2.3084-1.3361,3.2264-2.1067c0.3779-0.3203,0.6701-0.7304,0.459-0.9877
		c-0.2104-0.248-0.6667-0.0295-1.0467,0.2867C40.2285,10.335,38.5038,12.3761,38.5038,12.3761z"/>
	<path class="st3" d="M39.0928,13.1494c0,0,2.4176-1.1324,3.3993-1.8212c0.4061-0.2842,0.7338-0.6741,0.5428-0.9409
		c-0.1883-0.272-0.662-0.0898-1.0681,0.1876C40.9891,11.261,39.0928,13.1494,39.0928,13.1494z"/>
	<path class="st3" d="M39.6127,13.9629c0,0,2.5067-0.9181,3.5441-1.5158c0.4302-0.2492,0.7913-0.6031,0.6239-0.8886
		c-0.1643-0.2867-0.6513-0.146-1.0802,0.0978C41.6671,12.2475,39.6127,13.9629,39.6127,13.9629z"/>
	<path class="st3" d="M40.061,14.8233c0,0,2.5745-0.6981,3.6614-1.1994c0.4489-0.2104,0.8382-0.5388,0.7002-0.8363
		c-0.1374-0.2988-0.6351-0.2037-1.0862,0.0041C42.2575,13.2968,40.061,14.8233,40.061,14.8233z"/>
	<path class="st3" d="M40.4275,15.7172c0,0,2.6328-0.4691,3.7572-0.8791c0.4665-0.1662,0.8812-0.457,0.7693-0.7666
		c-0.114-0.3122-0.6159-0.2613-1.0796-0.0925C42.7526,14.3918,40.4275,15.7172,40.4275,15.7172z"/>
	<path class="st3" d="M44.5385,16.1005c0.4791-0.1367,0.92-0.3886,0.8349-0.7036c-0.0858-0.3217-0.5944-0.311-1.0701-0.1876
		c-0.8194,0.2171-2.2689,0.8457-3.0502,1.1915h1.5867C43.4731,16.3162,44.1089,16.2104,44.5385,16.1005z"/>
	<path class="st3" d="M29.9997,9.8231c-4.2638,0-7.8742,2.754-9.1695,6.5777h18.3376C37.8704,12.5771,34.2613,9.8231,29.9997,9.8231
		z"/>
</g>
</svg>
