<?xml version="1.0" encoding="utf-8"?>
<!-- Generator: Adobe Illustrator 21.1.0, SVG Export Plug-In . SVG Version: 6.00 Build 0)  -->
<svg version="1.1" id="Layer_1" xmlns="http://www.w3.org/2000/svg" xmlns:xlink="http://www.w3.org/1999/xlink" x="0px" y="0px"
	 viewBox="0 0 335 335" style="enable-background:new 0 0 335 335;" xml:space="preserve">
<style type="text/css">
	.st0{fill:#DC241F;}
	.st1{fill:#FFFFFF;}
	.st2{fill:#0035AD;}
	.st3{fill:#FFD100;}
</style>
<g>
	<g>
		<path class="st0" d="M78.2839,309.2295h178.4467c11.5609-7.2883,22.1525-15.9827,31.5694-25.7782H46.7069
			C56.12,293.2467,66.7269,301.9411,78.2839,309.2295z"/>
		<g>
			<path class="st0" d="M4.5345,206.1481h325.9348c1.9792-8.3588,3.3254-16.9712,3.9951-25.7705H0.5425
				C1.2229,189.177,2.5592,197.7894,4.5345,206.1481z"/>
			<path class="st0" d="M26.3912,257.6884h282.2245c5.2195-8.1412,9.7648-16.7536,13.5439-25.7705H12.8588
				C16.6302,240.9349,21.1793,249.5473,26.3912,257.6884z"/>
			<path class="st0" d="M256.7498,25.7774H78.2648c-11.557,7.2884-22.1639,15.9536-31.5655,25.7629h241.6084
				C278.9022,41.731,268.3106,33.0658,256.7498,25.7774z"/>
			<g>
				<path class="st1" d="M12.8588,231.9179h309.3008c3.4457-8.2684,6.2141-16.8884,8.3097-25.7698H4.5345
					C6.6447,215.0295,9.4131,223.6495,12.8588,231.9179z"/>
				<path class="st1" d="M46.7069,283.4513H288.3c7.5879-7.8715,14.3897-16.5139,20.3157-25.7629H26.3912
					C32.3287,266.9374,39.1266,275.5798,46.7069,283.4513z"/>
				<path class="st1" d="M167.5034,335c32.8114,0,63.3862-9.4736,89.2272-25.7705H78.2839
					C104.1249,325.5264,134.7028,335,167.5034,335z"/>
				<path class="st1" d="M4.5345,128.8519h325.9417c-2.1025-8.8821-4.8709-17.4945-8.3166-25.7705H12.8473
					C9.4016,111.3574,6.6371,119.9698,4.5345,128.8519z"/>
				<path class="st1" d="M0,167.4851c0,4.3476,0.2168,8.6201,0.5425,12.8925h333.9219c0.3256-4.2725,0.5432-8.545,0.5432-12.8925
					c0-4.3399-0.2176-8.6277-0.5432-12.8703H0.5425C0.2168,158.8573,0,163.1451,0,167.4851z"/>
				<path class="st1" d="M46.6993,51.5403c-7.5872,7.9021-14.3783,16.5145-20.3081,25.7629h282.2322
					c-5.9229-9.2484-12.7247-17.8608-20.3157-25.7629H46.6993z"/>
				<path class="st1" d="M167.5034,0c-32.8076,0-63.3969,9.4506-89.2387,25.7774h178.485C230.9003,9.4506,200.3148,0,167.5034,0z"/>
			</g>
			<path class="st0" d="M0.5425,154.6147h333.9219c-0.6697-8.8001-2.016-17.4048-3.9882-25.7629H4.5345
				C2.5592,137.2099,1.2198,145.8146,0.5425,154.6147z"/>
			<path class="st0" d="M12.8473,103.0813h309.3123c-3.7714-9.0315-8.3243-17.6294-13.5362-25.7782H26.3912
				C21.1724,85.452,16.6225,94.0498,12.8473,103.0813z"/>
			<path class="st2" d="M167.3916,0C74.9355,0.0521,0,75.0137,0,167.4697c0,4.4296,0.2168,8.7694,0.5609,13.1025h166.8307V0z"/>
			<g>
				<path class="st3" d="M86.9185,142.6202c-20.8245,0-37.7198-16.9037-37.7198-37.7428c0-20.81,16.8953-37.713,37.7198-37.713
					c6.1206,0,11.8827,1.4887,16.9896,4.0632c-7.2431-5.6493-16.3344-9.0613-26.2418-9.0613
					c-23.5891,0-42.711,19.1327-42.711,42.711c0,23.6075,19.122,42.7187,42.711,42.7187c9.8997,0,18.9871-3.3821,26.2234-9.0545
					C98.7935,141.1382,93.0392,142.6202,86.9185,142.6202z"/>
				<polygon class="st3" points="120.6172,69.0723 123.666,91.5504 136.1701,72.6192 129.1438,94.1915 148.6359,82.5487 
					132.9481,98.9506 155.5426,96.9155 134.3028,104.8774 155.5426,112.8615 132.9481,110.8486 148.6359,127.2282 
					129.1438,115.5845 136.1701,137.1647 123.666,118.2335 120.6172,140.7115 117.5868,118.2335 105.0789,137.1647 
					112.0868,115.5845 92.617,127.2282 108.2894,110.8486 85.6987,112.8615 106.9385,104.8774 85.6987,96.9155 108.2894,98.9506 
					92.617,82.5487 112.0868,94.1915 105.0789,72.6192 117.5868,91.5504 				"/>
			</g>
		</g>
	</g>
</g>
</svg>
