<?xml version="1.0" encoding="utf-8"?>
<!-- Generator: Adobe Illustrator 22.0.0, SVG Export Plug-In . SVG Version: 6.00 Build 0)  -->
<svg version="1.1" id="Layer_1" xmlns="http://www.w3.org/2000/svg" xmlns:xlink="http://www.w3.org/1999/xlink" x="0px" y="0px"
	 viewBox="0 0 60 60" style="enable-background:new 0 0 60 60;" xml:space="preserve">
<style type="text/css">
	.st0{clip-path:url(#SVGID_2_);}
	.st1{fill:#FFFFFF;}
	.st2{fill:#007168;}
	.st3{fill:#FCE100;}
	.st4{fill:#D21034;}
	.st5{fill:#FFFFFF;stroke:#000000;stroke-width:0.0598;stroke-linecap:round;stroke-linejoin:round;}
	.st6{fill:none;stroke:#000000;stroke-width:0.0598;stroke-linecap:round;stroke-linejoin:round;}
	.st7{stroke:#000000;stroke-width:0.0598;stroke-linecap:round;stroke-linejoin:round;}
</style>
<g>
	<defs>
		<circle id="SVGID_1_" cx="30" cy="30" r="30"/>
	</defs>
	<clipPath id="SVGID_2_">
		<use xlink:href="#SVGID_1_"  style="overflow:visible;"/>
	</clipPath>
	<g class="st0">
		<rect x="-15" width="90" height="60"/>
		<rect x="-15" class="st1" width="90" height="20.625"/>
		<rect x="-15" class="st2" width="90" height="18.75"/>
		<rect x="-15" y="39.35" class="st1" width="90" height="20.65"/>
		<rect x="-15" y="41.25" class="st3" width="90" height="18.75"/>
		<path class="st4" d="M-15,0v60l39.375-30L-15,0z"/>
		<path class="st3" d="M10.7929,34.8414l-3.4996-2.5623l-3.4949,2.563l1.3554-4.1201l-3.5175-2.5318l4.3373,0.0159l1.3209-4.1278
			l1.3252,4.1299l4.3339-0.0193l-3.5183,2.5366L10.7929,34.8414z"/>
		<path class="st5" d="M4.2558,31.9683h2.5211c0.2028,0.2276,0.6554,0.3204,1.0865-0.0027
			c0.7902-0.4327,2.3189,0.0027,2.3189,0.0027l0.301-0.3198l-0.7338-2.4082L9.4862,28.958c0,0-0.5644-0.3386-1.6368-0.2257
			c-1.0724,0.1129-1.4487-0.0376-1.4487-0.0376S5.46,28.8075,5.1966,28.9392c-0.029,0.0234-0.301,0.301-0.301,0.301L4.2558,31.9683z
			"/>
		<path class="st6" d="M4.7638,31.3474c0,0,2.4082-0.301,3.1044,0.6208c-0.3932,0.269-0.7393,0.2912-1.1101,0.0189
			c0.0591-0.0984,0.8655-0.9407,2.9162-0.6585"/>
		<path class="st7" d="M7.3414,28.9392L7.3226,31.592 M9.4862,28.9768l0.4516,2.1072 M5.2214,28.9437l-0.2506,1.0867"/>
		<path class="st7" d="M2.6184,32.2571l0.5929,0.6951c0.0696,0.0415,0.1315,0.0389,0.1933,0l0.8787-1.0544l0.369-0.4569
			c0.0571-0.0677,0.0754-0.1432,0.0703-0.2109l0.7055-0.6269c0.0577,0.004,0.0921,0.0105,0.1498,0.0144
			c-0.0682-0.0177-0.1182-0.0509-0.0645-0.1256l0.1582-0.123l0.123,0.1581c0,0-0.1757,0.2285-0.1933,0.2285
			c-0.0176,0-0.1933,0-0.1933,0l-0.369,0.3339l0.1613,0.1426l0.2429,0.6658l0.2988-0.2109l-0.1933-0.6853l0.4218-0.4569
			l-0.1582-0.2461l0.1055-0.1406c0,0,1.4597,0.919,2.0221,0.673c0.0152,0.0055,0.034-0.6554,0.034-0.6554
			s-1.5113-0.1581-1.5465-0.4569c-0.0351-0.2987,0.3339-0.3339,0.3339-0.3339L6.603,29.1564l0.0352-0.1231l0.2636,0.3339
			l0.5975-0.5097l3.5147,4.0068c0.1919-0.0778,0.2329-0.1247,0.2461-0.3163c-0.0049-0.0048-3.4444-3.954-3.4444-3.954l0.2636-0.2811
			c0.0519-0.0586,0.0702-0.0835,0.0703-0.1758l0.4042-0.3514c0.1216,0.0418,0.1991,0.1146,0.2636,0.2109l1.1112-0.9417
			c0.0293,0.0293,0.1182,0.0586,0.1786,0.0256l1.8372-1.7634L9.942,26.7312l-0.0703-0.0527c0-0.0586,0.0726-0.0731,0-0.1757
			c-0.0778-0.0934-0.1933,0.0879-0.2109,0.0879c-0.0176,0-0.2898-0.0962-0.3495-0.2181l-0.0196,0.3235l-0.5097,0.4745L8.3956,27.153
			l-0.5624,0.5448l-0.0703,0.2109l0.0879,0.1758c0,0-0.2988,0.2636-0.2988,0.246c0-0.0175-0.0604-0.0777-0.063-0.0855l0.2563-0.2309
			l0.0351-0.1582l-0.0855-0.1335c-0.0259,0.0188-0.3538,0.362-0.3714,0.3268c-0.0293-0.0328-0.9489-1.072-0.9489-1.072
			l0.0527-0.1933l-0.5975-0.6502c-0.2178-0.0752-0.5624-0.0879-0.6327,0.3866c-0.0547,0.1114-0.5096,0.0176-0.5096,0.0176
			l-0.246,0.0527l-1.3883,1.9682l0.7732,0.9314l1.5816-2.0034l0.047-0.5675l0.3319,0.3711c0.1106,0.0142,0.216,0.0155,0.3163-0.0351
			l0.937,1.0459l-0.156,0.1522c0.0527,0.0586,0.089,0.096,0.1417,0.1546c0.0527-0.0351,0.1031-0.0773,0.1558-0.1125
			c0.0176,0.0235,0.0469,0.068,0.0645,0.0915c-0.0785,0.0427-0.1336,0.0996-0.2121,0.1423
			c-0.1257-0.0819-0.247-0.1839-0.2377-0.3462l-0.5272,0.4393l-0.0176,0.0879l-1.564,1.3004l-0.1406,0.0176l-0.0351,0.4042
			l1.0193-0.8435V29.666l0.1054,0.0879l0.7908-0.6326c0,0,0.0527,0.0703,0.0352,0.0703c-0.0176,0-0.703,0.6327-0.703,0.6327
			l-0.0175,0.0703l-0.123,0.1055l-0.0703-0.0527l-0.949,0.8435H4.4591L3.9319,31.318c-0.136,0.0118-0.2538,0.0262-0.369,0.1054
			L2.6184,32.2571z"/>
	</g>
</g>
</svg>
