<?xml version="1.0" encoding="utf-8"?>
<!-- Generator: Adobe Illustrator 22.0.0, SVG Export Plug-In . SVG Version: 6.00 Build 0)  -->
<svg version="1.1" id="Layer_1" xmlns="http://www.w3.org/2000/svg" xmlns:xlink="http://www.w3.org/1999/xlink" x="0px" y="0px"
	 viewBox="0 0 60 60" style="enable-background:new 0 0 60 60;" xml:space="preserve">
<style type="text/css">
	.st0{clip-path:url(#SVGID_2_);}
	.st1{fill:#D21034;}
	.st2{fill:#FFFFFF;}
	.st3{fill:#009543;}
	.st4{fill:#003580;}
	.st5{fill:#FFCE00;}
</style>
<g>
	<defs>
		<circle id="SVGID_1_" cx="30" cy="30" r="30"/>
	</defs>
	<clipPath id="SVGID_2_">
		<use xlink:href="#SVGID_1_"  style="overflow:visible;"/>
	</clipPath>
	<g class="st0">
		<polygon class="st1" points="61.4587,0 74.9912,0 74.9912,9.0217 -1.4821,60 -14.9912,60 -14.9912,51.0369 		"/>
		<polygon class="st2" points="74.9912,12.0035 74.9912,9.0217 -1.4821,60 3.0404,60 		"/>
		<polygon class="st3" points="74.9912,60 74.9912,12.0035 3.0404,60 		"/>
		<polygon class="st2" points="-14.9912,47.9965 -14.9912,51.0369 61.4587,0 56.9596,0 		"/>
		<polygon class="st4" points="-14.9912,0 -14.9912,47.9965 56.9596,0 		"/>
		<circle class="st5" cx="13.0009" cy="14.4982" r="5.0029"/>
		<g>
			<path class="st5" d="M4.3937,19.4851l4.3-0.7456c-0.7186-0.7331-1.2513-1.6495-1.522-2.6729L4.3937,19.4851z"/>
			<path class="st5" d="M12.9819,8.4979c3.3195,0,6.0105,2.6963,6.0105,6.0223c0,0.5234-0.0668,1.0312-0.192,1.5154l4.1785-1.5418
				l-4.1828-1.5729l2.8559-3.4271l-4.4112,0.7557l0.7381-4.3937l-3.4446,2.8295l-1.5378-4.1652l-1.5729,4.1564l-3.3861-2.812
				l0.7235,4.3497l-4.4025-0.703l2.8301,3.3997C7.8912,10.3664,10.2186,8.4979,12.9819,8.4979z"/>
			<path class="st5" d="M7.9965,23.1406l3.4028-2.8095c-1.0189-0.2779-1.9302-0.8174-2.6573-1.5424L7.9965,23.1406z"/>
			<path class="st5" d="M18.7962,16.0511c-0.5406,2.0669-2.1498,3.7001-4.2005,4.2715l3.392,2.8092l-0.7293-4.3761l4.3673,0.703
				L18.7962,16.0511z"/>
			<path class="st5" d="M7.1848,12.9254l-4.1619,1.5596l4.1295,1.5063c-0.118-0.4709-0.181-0.9636-0.181-1.4712
				C6.9713,13.968,7.0459,13.4334,7.1848,12.9254z"/>
			<path class="st5" d="M11.4347,20.3407l1.5617,4.1356l1.5481-4.1398c-0.4984,0.1341-1.0221,0.206-1.5627,0.206
				C12.4469,20.5425,11.9284,20.4721,11.4347,20.3407z"/>
			<path class="st5" d="M18.7962,16.0511c0.0014-0.0052,0.0028-0.0103,0.0042-0.0155l-0.013,0.0048L18.7962,16.0511z"/>
			<path class="st5" d="M14.5446,20.3365c0.0171-0.0046,0.0342-0.0091,0.0512-0.0139l-0.0351-0.0291L14.5446,20.3365z"/>
			<path class="st5" d="M7.1523,15.9914c0.0063,0.0251,0.0128,0.0502,0.0194,0.0752l0.0427-0.0526L7.1523,15.9914z"/>
			<path class="st5" d="M7.1887,12.9111c-0.0013,0.0048-0.0026,0.0096-0.0039,0.0144l0.0121-0.0045L7.1887,12.9111z"/>
			<path class="st5" d="M8.6937,18.7395c0.0161,0.0164,0.0321,0.0329,0.0484,0.0491l0.0102-0.0593L8.6937,18.7395z"/>
			<path class="st5" d="M11.3993,20.3311c0.0118,0.0032,0.0236,0.0065,0.0354,0.0096l-0.0112-0.0296L11.3993,20.3311z"/>
		</g>
	</g>
</g>
</svg>
