<?xml version="1.0" encoding="utf-8"?>
<!-- Generator: Adobe Illustrator 21.1.0, SVG Export Plug-In . SVG Version: 6.00 Build 0)  -->
<svg version="1.1" id="Layer_1" xmlns="http://www.w3.org/2000/svg" xmlns:xlink="http://www.w3.org/1999/xlink" x="0px" y="0px"
	 viewBox="0 0 60 60" style="enable-background:new 0 0 60 60;" xml:space="preserve">
<style type="text/css">
	.st0{clip-path:url(#SVGID_2_);}
	.st1{fill:#F4C600;stroke:#F4C600;stroke-width:0.045;}
	.st2{fill:#D32927;stroke:#D32927;stroke-width:0.045;}
	.st3{fill:#F4C600;stroke:#F4C600;stroke-width:0.0353;}
	.st4{fill:#D32927;stroke:#D32927;stroke-width:0.0353;}
	.st5{fill:#D32927;}
	.st6{fill:#FFFFFF;stroke:#FFFFFF;stroke-width:0.045;}
	.st7{fill:#1F1A17;stroke:#1F1A17;stroke-width:0.045;}
	.st8{fill:#1A3C86;stroke:#1A3C86;stroke-width:0.045;}
</style>
<g>
	<defs>
		<circle id="SVGID_1_" cx="30" cy="30" r="30"/>
	</defs>
	<clipPath id="SVGID_2_">
		<use xlink:href="#SVGID_1_"  style="overflow:visible;"/>
	</clipPath>
	<g id="Layer_x0020_1" class="st0">
		<g id="_122816256">
			<polygon id="_122568304" class="st1" points="-17.9972,0 78,0 78,60 -17.9972,60 			"/>
			<g>
				<polygon id="_122567920" class="st2" points="-17.9985,0 77.999,0 77.999,19.992 -17.9985,19.992 				"/>
				<path id="_122567536" class="st3" d="M-1.0938,4.4804C-1.0886,4.5917-1.1675,4.757-1.1675,4.757
					c-0.4721,0.0851-0.2213-0.5533-0.4867-0.752C-1.3741,3.9768-1.1068,4.2003-1.0938,4.4804L-1.0938,4.4804z"/>
				<path id="_122563776" class="st3" d="M-2.2589,4.5159c0.2654,0.5959-0.1475,1.4329,0.5014,1.8017
					c0.1622,0.0426,0.2802-0.0851,0.354-0.1986C-1.492,5.7643-1.8313,5.5515-1.8018,5.1259
					c0.2802-0.2128,0.8849,0.1986,1.0324-0.3121C-0.7251,4.7286-0.6366,4.757-0.5629,4.757
					c0.6194,0.6384-0.4277,1.2768,0.0443,1.8727c1.0914,0.6952,2.0501,2.0003,3.5396,1.972
					c1.7551,0.4966,3.7904,0.5675,5.6634,0.6101c-0.059,0.2553-0.6342,0.156-0.4277,0.5816c0.177,0.1986,0.4277,0.3972,0.708,0.4398
					c-0.1623,0.1561-0.2361,0.4399-0.4573,0.4824c0.5162,0.1419,0.6489,0.7661,1.1208,0.9506
					c0.1033,0.1134,0.1623,0.2695,0.295,0.3404c0.6637-0.4398,0.708-1.3762,1.0619-2.0145l0.177,0.0709
					c-0.295,0.8938-0.9144,1.9294-0.5752,3.036c1.2242-0.454,1.0915-1.8443,1.5928-2.7239c0.0443,0,0.118-0.0284,0.1475,0.0284
					c-0.118,0.7235-0.4867,1.3477-0.5014,2.1138c0.118,0.1419,0.3539,0.1845,0.5014,0.071c0.1475-0.0851,0.4277-0.1986,0.5605,0
					c0.059,0.0284,0.0885,0.1277,0.177,0.0993c0.059-0.6668,1.0029-0.2128,1.0618-0.7803c-0.0442-0.0567-0.1327-0.0284-0.177-0.1135
					v-0.0568c0.4425-0.0568,1.0914-0.227,1.4158,0.1702c0.059,0.1703-0.1475,0.1561-0.2507,0.1986
					c-0.1327,0.0568-0.236-0.0993-0.3539,0c0.0147,0.1276,0.3539,0.3263,0.0737,0.4823c-0.2802,0.0567-0.5457-0.1277-0.7817,0
					c0.0885,0.3405,0.5457,0.4115,0.8259,0.61c0.118,0.227-0.236,0.4115-0.3982,0.5108c-0.3098,0.0142-0.59-0.1702-0.8849-0.0993
					c0.059,0.2695,0.3687,0.3831,0.6047,0.4682v0.0709c-0.59,0.0993-1.1356-0.1419-1.5633-0.5391h-0.1327
					c-0.0443,0.3121-0.0885,0.7235,0.0295,1.0215c-0.3687,0.0426-0.5457-0.3122-0.7374-0.5533
					c-0.2507-0.3122-0.1917-0.8088-0.6342-0.979c-0.1475,0.1561-0.0295,0.3831,0.0295,0.5391
					c-0.2654,0.2696,0.0148,0.9506-0.5604,0.9222c-0.3097-0.3405-0.5162-0.7377-0.9587-0.8938
					c-0.0737-0.4824,0.059-1.0073-0.3982-1.2911c-0.1033,0.2838-0.0295,0.7235-0.3834,0.8229
					c-0.1327-0.7235-1.3569-1.4754-0.3835-2.1848c0-0.0993,0-0.2128-0.118-0.2695c-0.059,0.0567-0.1623,0.0283-0.236,0.0283
					c0-0.4114,0.2064-1.1775-0.3245-1.3903C6.1477,9.2544,4.4516,9.1408,2.8735,8.7719l-0.3244,0.071
					c1.4601,0.908,3.3184,0.2696,4.7786,1.1492c0.2359,0.1277,0.3097,0.4823,0.2212,0.7519
					c-0.1327,0.2412-0.1475,0.5675-0.4277,0.7093l-0.5605-0.2269c-0.1032,0.1844,0.2065,0.3121,0.1327,0.5392
					c-0.2949,0.0709-0.2949-0.3548-0.4866-0.5108c-0.1623-0.1135-0.3098-0.227-0.5015-0.2412
					c-0.1475,0.1986,0.0885,0.4114,0.1033,0.6101c-0.472,0.0283-0.4572-0.6668-0.9587-0.7094
					c-0.1032,0.2554,0.177,0.4398,0.2213,0.681c-0.4277,0.0425-0.5015-0.9931-1.0325-0.5391c-0.1032,0.1561,0.3688,0.4257,0,0.3689
					c-0.2802-0.2553-0.3834-0.8371-0.8849-0.6526c0.0296,0.1136,0.0886,0.1986,0.0738,0.3121
					c-0.3097-0.0709-0.3688-0.9789-0.8112-0.5816c0.0147,0.0993,0.1327,0.2128,0.0295,0.3121
					c-0.3687-0.1986-0.413-0.7376-0.8112-0.8937c-0.1327,0.1135-0.0443,0.3404-0.0737,0.454
					c-0.1769,0.0425-0.2654-0.2979-0.4277-0.0709c1.1798,1.1917,2.8759,1.9862,4.7785,1.9719
					c0.118,0.0426,0.1917,0.1561,0.177,0.2696c-0.1623,0.227-0.413,0.0852-0.6341,0.071L5.425,12.8153
					c-0.3097-0.1843-0.5604-0.4965-0.9587-0.4681c-0.2064,0.1419,0.118,0.4114-0.1474,0.4681
					c-0.2803-0.2128-0.2361-0.7802-0.7375-0.7093c-0.3097,0.1419,0.3687,0.9931-0.3245,0.5817
					c-0.1622-0.2979-0.1917-0.7661-0.6342-0.9221c-0.3097,0.1276-0.1327,0.4681-0.177,0.6809
					c-0.2802-0.0993-0.177-0.454-0.2802-0.6809c-0.0885-0.071-0.0885-0.2412-0.2508-0.2412
					c-0.2507,0.0425-0.0884,0.3262-0.1327,0.4823c-0.3981-0.1277-0.059-0.7803-0.5752-0.8938
					c-0.1327-0.0284-0.2802,0.0425-0.2802,0.1702c-0.0147,0.1845,0.118,0.298,0.0738,0.4824
					c-0.2655-0.0993-0.354-0.4257-0.354-0.7095c-0.0885-0.156-0.177-0.3404-0.3982-0.4114
					c-0.2213,0.1419-0.1328,0.4682-0.1033,0.681c0.0737,0.0284,0.0295,0.085,0.0443,0.1276
					c-0.413-0.1276-0.2802-0.6525-0.354-1.0214c-0.118-0.0993-0.1622-0.298-0.3539-0.2696
					c-0.2213,0.2696-0.1771,0.7093-0.1771,0.9931c-0.5161-0.2695-0.177-1.0215-0.5751-1.3619
					C-1.3298,9.6941-1.4331,9.68-1.551,9.6941c-0.2508,0.1702-0.1181,0.5391-0.1033,0.7803c-0.1918,0-0.3393-0.2412-0.3983-0.4114
					C-2.4064,9.2259-1.4773,8.6868-1.905,7.9208c-0.0885-0.4398-0.6194-0.7235-1.0619-0.7803
					C-3.3946,7.183-3.8518,7.637-4.2353,7.2682c0.059-0.3405,0.472-0.6243,0.1327-1.0215c0-0.1277,0.1622-0.1987,0.2803-0.1987
					c0.5162-0.0141,0.9439,0.298,1.2093,0.7094c0.0885,0.0993,0.2655,0.1419,0.3835,0.071c0.295-0.4398-0.3244-0.5959-0.531-0.8512
					C-3.0407,5.821-3.3946,5.7643-3.5716,5.438c0.0296-0.5391,0.6932-0.5959,0.7522-1.135
					C-2.7162,3.9625-2.2147,4.2037-2.2589,4.5159L-2.2589,4.5159z"/>
				<path id="_122563144" class="st3" d="M-3.3503,4.4449l-0.0443,0.2696c-0.59,0.3121-0.7227-0.2696-1.2758-0.2519
					c-0.2501,0.0081,0.2765-0.3014,0.5678-0.2872C-3.8076,4.1612-3.4831,4.218-3.3503,4.4449L-3.3503,4.4449z"/>
				<path id="_122562760" class="st3" d="M12.5781,4.1754c0.177,0.3546-0.236,0.837,0.2064,1.0497
					c0.4573-0.4398,1.0177-0.6525,1.6224-0.7519l0.4277-0.2696c-0.2065,0.3689-0.5309,0.6952-0.6047,1.1208
					c0.2802,0.1419,0.3982-0.2979,0.6489-0.3405c0.5458-0.0568,0.9882-0.3263,1.4454-0.61
					c-0.0148,0.5816-0.649,0.9505-0.9145,1.4045l0.1032,0.0993l1.1357-0.3121c-0.7669,0.6242,0.059,1.7876-0.8555,2.3125
					c0.2654,0.1419,0.4867,0.2838,0.6343,0.5534c0.0294,0.2979,0,0.5817-0.2507,0.7803c-0.3835,0.2553-0.9439,0.4255-1.4158,0.1986
					c0,0.6384,0.7374,0.8796,1.0029,1.3619c-0.59,0.4824-1.1652-0.1276-1.7109-0.2695c-0.0738,0.2695,0.1327,0.5107,0.2212,0.7519
					c-0.1622,0.0426-0.6194-0.2695-0.7079,0.1419c-0.0737,0.1561,0.2655,0.3122,0,0.3973c-0.354-0.0283-0.6489,0.0567-0.9587,0.1135
					c0.118-0.61,0.0885-1.4754,0.885-1.745c-0.0738-0.4682,0.5456-0.3547,0.6783-0.6101l-0.9291-0.2412
					c-0.118,0.2128,0.0148,0.6526-0.3539,0.7803c-0.3688,0.1277-0.708-0.0283-0.9587-0.2979
					c-0.118-0.1419,0.0737-0.2553,0.118-0.3831c0.2655,0.0993,0.5752,0.0142,0.7079-0.227l0.059-0.0709
					c-0.0885-0.1561-0.236-0.0142-0.3835-0.0993c-0.1327-0.1277-0.3982-0.1277-0.4572-0.2838
					c0.2212-0.0141,0.3982,0.1703,0.6047,0.1135c-0.0442-0.2979-0.3687-0.3547-0.6047-0.4114
					c-0.1475-0.0142-0.2507,0.1276-0.3244,0.2412l-0.2065-0.1136c-0.2654,0.5391,0.8554,0.9931-0.1033,1.1918
					c-0.3539,0.0568-0.5014-0.3263-0.6489-0.5391c-0.1327-0.3973,0.4867-0.4399,0.4277-0.752
					c-0.413-0.0283-0.7374-0.3405-1.0914-0.4114c0.1475,0.3831,0.6342,0.7377,0.2507,1.1634
					c0.3982,0.5107,0.177,1.1633-0.118,1.6741c-0.0737,0.0851-0.1918,0.1135-0.3097,0.0993c0-0.2412-0.3688,0.0425-0.2802-0.2412
					c-0.118-0.0993-0.3245-0.0425-0.2508-0.2696c0.1476-0.0284,0.3245-0.227,0.3097-0.4114
					c0.0296-0.1702-0.0295-0.3121-0.177-0.4114C9.3186,9.6374,9.0975,9.7084,9.0385,9.5807
					C8.9942,9.382,9.3039,9.5523,9.3924,9.4104c0.2213-0.156,0-0.4398,0.1032-0.6384l0.5604-0.383
					c-0.118-0.0568-0.1917-0.3122-0.3539-0.1703c-0.2803,0.1844-0.2655,0.681-0.6637,0.681C8.655,8.928,8.301,8.7719,8.0798,8.5592
					c0.4868-0.0567,1.0177-0.1986,1.2684-0.681C9.3777,7.637,9.186,7.5802,9.0975,7.3675c-0.177-0.3689-0.1327-0.9221,0.118-1.2485
					c0.2654-0.1702,0.3834-0.454,0.7079-0.4823c-0.0295,0.1418,0.0148,0.3688,0.1771,0.4398
					c0.4277-0.0141,0.2654-0.5533,0.4572-0.8087c0.236-0.1135,0.2654-0.3688,0.3097-0.5817l0.2213,0.7803
					C11.3245,4.7996,12.2241,4.7428,12.5781,4.1754L12.5781,4.1754z"/>
				<path id="_122562600" class="st3" d="M33.3146,5.2962c0.8849,0.1277,1.9468,0.2979,2.5073-0.5391l0.295-0.383
					c0.0589,0.0141,0.1327,0.0851,0.1327,0.1419c-0.0886,0.5391-0.6048,1.0356-1.0177,1.2201
					c-0.5604,0.2696-1.5338-0.0567-2.1975,0.1419c0.1475,0.1845,0.5014,0.0284,0.6047,0.2696
					c-1.5781,0.1561-2.7432-0.8796-4.4246-0.6526c-0.6341,0.0284-1.2832,0.0567-1.8435,0.2412
					c0.0295,0.1419,0.1769,0.1277,0.2802,0.1702c1.4307,0.071,2.8023-0.0284,4.1002,0.3405v0.0425
					c1.0914,0.298,2.5073,0.5392,3.6134,0.0993v0.1277c-2.2122,1.1918-4.1001-0.6952-6.4451-0.227
					c-0.0148,0.0284-0.0738,0.0426-0.059,0.0993c0.4277,0.0709,0.9439,0.3122,1.0618,0.7803
					c0.059,0.3121,0.0296,0.681-0.1179,0.9505c-0.1918-0.2412-0.0443-0.6242-0.2803-0.8512c-0.354-0.4824-0.8849-0.681-1.4896-0.681
					l-0.059,0.071c0.4278,0.0993,0.9144,0.3121,1.1209,0.7093c0.118,0.298,0.236,0.7093,0.0442,0.9931
					c-0.1475-0.3831-0.236-0.908-0.7521-1.1208c-0.8702-0.681-2.1386-0.4682-3.1857-0.7519
					c-0.8407-0.3121-0.7817-1.5038-1.7698-1.4329c-1.2684,0.0142-2.5368,0.0425-3.5692,0.61
					c1.1651-0.2128,2.4925-0.4682,3.7904-0.2695c0.1033,0.0425,0.1917,0.1702,0.1033,0.2695
					c-1.1062-0.0851-2.3893-0.1702-3.3332,0.3405c-0.1475,0.1561-0.1475,0.3688,0,0.5107c0.8406,0.6952,1.9248,0.4926,3.1857,0.5534
					c1.1061,0.0532,2.6547-0.298,3.8641,0.1276c-2.0205,0.3547-4.3803,0.4682-6.5188,0.2128
					c-0.4867-0.1135-0.9439-0.3121-1.4159-0.4823c-0.118,0.0993,0.059,0.1702,0.118,0.2412
					c0.8259,0.6668,1.8694,0.5923,3.0382,0.7093c1.9108,0.1913,3.6725-0.1419,5.4864-0.2979l0.1475,0.071
					c-2.0501,0.6951-5.6413,0.6065-6.8729,0.3972c-1.3228-0.2248-2.64-0.2553-3.0382-1.5606
					c-0.0443-0.4965,0.2655-0.908,0.708-1.1633c1.8878-0.9789,4.0226-0.8441,6.5483-0.9505
					C28.3277,4.2622,30.7815,4.4804,33.3146,5.2962L33.3146,5.2962z"/>
				<path id="_122546936" class="st3" d="M45.025,5.4948c0.1917-0.2412-0.177-0.4539-0.2065-0.7094
					c0.7669,0.2979,1.1946,1.291,2.1533,1.0499c0.2065-0.0851,0.118-0.2554,0.0442-0.3689
					c-0.1769-0.2128-0.5604-0.4114-0.6046-0.7094l1.1356,0.5107c0.2507-0.0851-0.0443-0.2553,0-0.4114
					c0.1327,0,0.1917,0.1561,0.3539,0.0993c0.1623-0.156,0-0.3405,0-0.5107c0.3687,0.1561,0.5457,0.6384,0.9587,0.7802
					c0.2065-0.1134-0.118-0.3121,0-0.4681c0.413,0.1135,0.8849,0.6526,1.1651,1.0498c0.5014,0.0568,1.0767,0.3263,1.5485,0.0284
					c0.1475-0.3405-0.2801-0.454-0.2801-0.7803c0.2655,0.1986,0.5162,0.2979,0.7521,0.4824
					c0.059-0.2838-0.2507-0.5108-0.2213-0.8229c0.3098-0.0426,0.5162,0.5107,0.7522,0.2412l-0.0737-0.1702
					c0.3539,0.1135,0.5309,0.5108,0.8111,0.7094c0.0885,0.1135,0.2212,0.0426,0.2507-0.0567
					c-0.0443-0.2129-0.2064-0.4398-0.1474-0.6242c0.5457,0.1844,0.7669,0.7093,1.2831,0.9647
					c1.6814,0.0568,3.4365,0.0284,4.8375,0.7377c0.413,0.2128,0.6342,0.6242,0.7817,0.9931
					c0.413-0.5391,1.2536-0.5391,1.9173-0.4114c0.9291,0.2128,1.7256,1.1633,2.758,0.7235c-0.1623,0.4682-0.59,1.0782-1.1652,1.1208
					c-1.0324,0.0142-1.814-0.5533-2.7284-0.8229c-1.1356,0.0568-0.8997,1.6457-2.1238,1.6741c-1.7845,0.2979-3.6576,0-5.4865,0
					c-3.4659-0.1845-6.8285-0.5959-10.2649-0.8229c-0.3982,0.0709-0.826,0.0426-1.1651,0.2412
					c2.9792,0.0283,5.6192,1.0782,8.5984,1.2201c2.7138,0.2696,5.7962,1.6031,8.392,0.1702c0.413-0.1702,0.6784-0.454,1.1356-0.5391
					c0.4572,0.5391,1.0029,1.1492,1.6962,1.291c0.0147,0.2554-0.3245,0.3972-0.2802,0.61c0.236-0.0284,0.4424-0.2411,0.5604-0.3972
					c0.1032,0.2127-0.0884,0.4398-0.177,0.61c0.2065,0.0425,0.4572-0.071,0.6048-0.1703c0.0295,0.454-0.3834,0.7377-0.7522,0.9506
					c-0.059,0.0425-0.1475,0.0567-0.2065,0.1418c0.4277,0.0993,0.7964-0.156,1.1651-0.3121
					c-0.059,0.7945-1.1799,0.9364-1.7993,1.3336c0.0886,0.2412,0.4573,0.1844,0.6342,0.0993
					c0.177-0.2269,0.5014-0.3121,0.7374-0.1702c0.0885,0.0993,0.2507,0.1702,0.2507,0.298
					c-0.531,0.1419-0.9881,0.4256-1.5929,0.4114c0,0.0568,0.0591,0.1135,0.1032,0.0993l1.0324,0.1135
					c-0.295,0.227-0.7079,0.5249-1.2094,0.3972c-0.0737-0.0567-0.1622-0.0709-0.2802-0.0567
					c-0.0442,0.4256,0.531,0.4681,0.8112,0.6809c-0.1623,0.1986-0.5162,0.1845-0.767,0.1277
					c-0.236,0.0142-0.5014-0.1844-0.6784,0.0426l0.4277,0.3404c-0.3245-0.0425-0.6195,0.0284-0.8554,0.1986l0.3982,0.4114
					c-0.472,0.1561-0.8997-0.1418-1.3863-0.1418c-0.2213-0.1419-0.472-0.4398-0.7375-0.2696
					c0.1033,0.1702,0.295,0.3121,0.4572,0.4823c-0.7817,0.2271-1.0913-0.908-1.9173-0.9646
					c-0.2065,0.2128,0.2065,0.2553,0.177,0.4823c0.0738,0.156,0.1623,0.3405,0.0738,0.5107
					c-0.3392,0.3122-0.3835-0.2554-0.7818-0.0284c-0.1179,0.1419-0.1621,0.3122-0.3834,0.3406
					c-0.2212-0.0426-0.3835-0.0568-0.4572-0.2412c-0.177-0.3405,0.5014-0.7094-0.0442-0.8229
					c-0.6047,0.2554-0.118,0.681-0.4867,1.0215c-0.1327,0.1419-0.3393,0.0426-0.472-0.0284
					c-0.0147-0.0993-0.0885-0.1702-0.059-0.2696c0.2654-0.0141,0.5161-0.0992,0.6636-0.3121
					c-0.0442-0.0425-0.0442-0.0993-0.1032-0.1418c-0.2802,0.1135-0.5752,0.383-0.8849,0.2128
					c-0.236-0.1703-0.3097-0.3972-0.4277-0.6101c0.1623-0.2979,0.5457-0.156,0.7818-0.1702
					c0.1179,0.0851,0.2507,0.156,0.4277,0.1276l0.1769-0.1702c-0.2802-0.3263-0.7227-0.5391-1.1651-0.4398
					c-0.3392,0.1844-0.5604,0.7235-1.0028,0.5391c-0.0885-0.1135-0.1181-0.2412-0.1033-0.3973
					c0.2064-0.1702,0.4571,0.1702,0.6784-0.0425l0.177-0.1986c-0.1475-0.1136-0.3834,0.0709-0.5752-0.0425
					c-0.1623-0.1703-0.3244-0.5108-0.2064-0.7378c0.4423-0.2696,0.8406,0.1844,1.2684,0.227
					c0.3097,0.1986,0.7521,0.3547,1.1061,0.1419c-0.0295-0.2412-0.295-0.3263-0.5014-0.3688
					c0.1327-0.1702,0.4572-0.0709,0.5014-0.3121c-0.1475-0.3547-0.4867,0.1135-0.6784-0.1419c0.4866,0,0.3244-0.7803,0.8849-0.5391
					c0.3981,0.3121,0.6489,1.0924,1.3126,1.0499c0.4573-0.0425,0.8702-0.2554,1.1651-0.6101
					c0.0296-0.1986-0.0147-0.383-0.1032-0.5391c-1.8878-1.2768-4.6753-0.6668-6.6516,0c-1.6223,0.2979-3.5397,0.5959-5.1767,0.1277
					l0.118-0.0568c2.5368-0.0425,5.0145-0.2412,7.2858-0.8937c0.3245-0.0568,0.6785-0.0142,0.9587-0.1702
					c-0.2065-0.5675-0.8406-0.9931-1.3864-1.2202c-0.3097,0.2271-0.6637-0.2979-1.0176-0.0709
					c0.1327,0.1986,0.6341,0.298,0.4867,0.6526c-0.295-0.3688-0.7522-0.6526-1.2389-0.7235l-0.0738,0.0709
					c0.2065,0.227,0.4867,0.3689,0.649,0.6101c-0.236,0.0284-0.3982-0.298-0.6785-0.2412l-0.0738,0.0709
					c0.2213,0.1561,0.4867,0.4114,0.5752,0.681c-0.1033,0.0284-0.2802-0.227-0.4277-0.1276
					c0.1328,0.0993,0.1771,0.3405,0.1032,0.5108c-0.7374,0.3121-1.7108,0.1561-2.4039-0.1419l-0.8112-0.6525
					c-0.1475,0.1561-0.0295,0.3688,0.0296,0.5107c0.0737,0.071,0.1474,0.1702,0.0737,0.2412l-0.1475,0.071
					c-0.7374-0.0426-1.1062-0.5534-1.7255-0.8796c-0.1033,0.3122,0.4572,0.5959,0.2064,0.8512
					c-0.5604-0.1561-1.0767-0.3831-1.5192-0.7945c-0.1917,0.2837,0.3541,0.4539,0.4277,0.7235
					c-0.3982-0.071-0.8259-0.2412-1.1799-0.5108c-0.0737,0.1845,0.118,0.3547,0.2507,0.5108
					c0.0737,0.1561,0.472,0.0993,0.2802,0.2979c-0.3983,0.0142-0.6931-0.2412-1.0177-0.4398l-0.1474,0.2128l-0.4277-0.4824
					c-0.1328,0.1277,0,0.4115-0.236,0.4398l-0.3983-0.7094l-0.2064,0.4398c-0.2803-0.2128-0.5015-0.5533-0.6342-0.8796
					c-0.1327,0.071-0.1623,0.1986-0.1475,0.3405l0.1032,0.0993c-0.0737,0.0709-0.177,0.1986-0.2802,0.0992
					c-0.1622-0.3263-0.4277-0.6384-0.3245-1.0214c-0.118,0.0142-0.2655,0.227-0.3539,0.3689
					c-0.2655-0.3831-0.472-0.9932-1.0914-0.9505c-0.1475-0.0142-0.2655,0.0141-0.3539,0.1418
					c1.0324,1.3195,2.4334,2.6388,4.1443,2.8233c0.6785,0.071,1.3716,0.1419,2.0501,0.1986
					c-1.9469,0.2553-3.8052-0.0709-5.162-1.362c-0.6489-1.2626-1.9468-2.2416-3.3627-2.4401c-0.6489,0-1.3274-0.0425-1.8879,0.1702
					c1.3274,0.071,2.699,0.1419,3.6134,1.0782c0.0886,0.5391-0.7227,0.6242-0.6341,1.1633
					c0.1327,0.3547,0.2507,0.8228,0.6341,0.9506c0.1623,0.0141,0.3392,0.1277,0.5015,0.0425
					c0.0146-0.0425,0.0884-0.1703,0.1033-0.1135c0.2507,0.2696,0.3981,0.6243,0.2802,0.9931
					c-0.1327,0.1561-0.1771,0.4115-0.1033,0.61c0.177,0.0851,0.1033,0.2696,0.1475,0.4115
					c-0.4573,0.1561-0.8702,0.0851-1.2389-0.2412c-0.1181,0.0851-0.0885,0.2696-0.0443,0.3831
					c0.1475,0.1135,0.354,0.2127,0.4277,0.3688c-0.2654-0.0851-0.5162-0.1561-0.7817-0.2412
					c-0.1327,0.2128-0.177,0.454-0.2507,0.681c-0.3244-0.0567-0.6637-0.3546-1.0177-0.3405
					c-0.118,0.2838,0.4425,0.3548,0.1327,0.5818c-0.4129,0.1135-0.6784-0.4398-1.0176-0.1986
					c0.0737,0.1419,0.1475,0.3405,0.0737,0.5108c-0.3539,0.2412-1.2241-1.0215-0.9586,0.0568
					c-0.2802,0.156-0.3098-0.2412-0.531-0.298c-0.2065,0.0568-0.2065,0.298-0.1475,0.4398
					c-0.354-0.0285-0.6931-0.5108-1.0177-0.2412c-0.0442,0.2127,0.0443,0.3547,0.2065,0.4823
					c-0.5162,0.1277-0.7374-0.383-1.2094-0.4398c-0.118,0.1702,0.2212,0.2412,0.1474,0.4398c-0.3687,0.0993-0.8259-0.6668-0.9586,0
					c0.1179,0.0425,0.2212,0.1561,0.177,0.2979c-0.2655,0.0709-0.5605-0.0425-0.7374-0.1986
					c-0.177-0.156-0.2655-0.4398-0.5309-0.4823c-0.1327,0.1277,0.1179,0.1986,0.0295,0.3404c-0.236,0.1135-0.4572-0.3547-0.5605,0
					c-0.0442,0.2128,0.2065,0.3122,0.177,0.5108c-0.6489-0.1561-1.4896-0.3973-1.6371-1.1492l-0.2065-0.2128
					c-0.2802,0.1703-0.0295,0.6101-0.2064,0.8512c-0.1032,0.071-0.236,0.0285-0.354,0.0426c-0.1917-0.2553-0.3245-0.6242-0.708-0.61
					c-0.1917,0.0425-0.3687,0.2128-0.5752,0.0992c-0.4129-0.4681,0.885-0.7235,0.177-1.0923
					c-0.4129,0.0567-0.3392,0.7802-0.8407,0.5107c-0.177-0.3547-0.4866-0.5249-0.8259-0.681
					c0.0147-0.156,0.2802-0.3121,0.472-0.3405c0.6489-0.2979,1.7993,1.0215,1.6961-0.2695
					c-0.4277-0.454-1.0914-0.1277-1.5928-0.2696c0-0.3831,0.1032-0.8229,0.3097-1.135c0.7816,0.0567,1.2831,0.5958,1.8141,1.1633
					c0.2802-0.1277,0.1621-0.5108,0.1326-0.7519L26.84,13.5672c0.1032-0.1845,0.3982-0.0567,0.5605-0.1702
					c0.3981-0.0284,0.6931-0.5675,1.1061-0.2695c-0.0885,0.3121-0.1622,0.6525-0.0737,0.9931
					c0.3097,0.4966,0.8406,0.8938,1.4158,1.0215c1.1798-0.0568,2.4335-0.0426,3.3184-0.7235
					c-1.1209-0.1277-2.5662-0.1986-3.112-1.362c-0.1327-0.5533,0.2213-0.7377,0.5014-1.1207
					c0.413-0.3263,0.8555-0.5959,1.3716-0.681l0.118-0.0993l-0.118-0.071c-4.4393-0.3688-7.7725,2.0714-11.7104,2.9936
					c-1.0766,0.2127-2.1975,0.6099-3.3626,0.3121c0.0295-0.1986-0.0884-0.3263,0.1474-0.4114
					c4.926-0.0568,8.746-2.8942,13.6277-3.2063c0.1475-0.0425,0.354-0.0283,0.4573-0.1276
					c-1.0472-0.1135-2.1828,0.0284-3.112,0.2695c0.0148-0.0567-0.0443-0.0993-0.0737-0.1419l-0.1475,0.1419l-0.0737-0.1702
					l-0.2065,0.1702c-0.0147-0.0425,0.0295-0.1135-0.0295-0.1419l-0.1769,0.1419l-0.1181-0.0993
					c-0.0442,0.0426-0.0442,0.0993-0.1032,0.1278c0.0294-0.0568-0.0294-0.0851-0.0737-0.1278l-0.2065,0.1986l-0.0737-0.1986
					l-0.2802,0.2412c0-0.0709-0.0296-0.2127-0.1033-0.1419c-0.177,0.0993-0.0738,0.4115-0.354,0.3405
					c0.0148-0.0851,0.1033-0.1561,0.0738-0.2695c-0.2213,0.0425-0.2802,0.2979-0.472,0.4398c0.059-0.0993,0.059-0.2696,0-0.3689
					c-0.236,0.1136-0.2213,0.454-0.4867,0.5391l-0.0442-0.3121c-0.1917,0.1702-0.236,0.4398-0.4867,0.5533
					c0.0295-0.1135,0.1033-0.3547-0.0443-0.5107c-0.2802,0.2127-0.2654,0.5249-0.5899,0.681c0-0.1844,0.1474-0.383,0-0.5534
					c-0.3098,0.1561-0.1917,0.5818-0.531,0.7236c0.0295-0.2554-0.0443-0.4966-0.2508-0.61
					c-0.0294,0.3121-0.0442,0.7519-0.3982,0.8086c0.059-0.2553-0.0442-0.5249-0.2064-0.6384
					c-0.1475,0.2696-0.1181,0.6384-0.4277,0.8086c0.0737-0.227,0.0443-0.4965-0.1032-0.681
					c-0.236,0.3263-0.1917,0.8654-0.708,0.9932c0.1033-0.1986,0.2507-0.5675,0.1475-0.8938l-0.118-0.0993
					c-0.1917,0.3405-0.2507,0.8371-0.7078,0.9505c0.1327-0.2411,0.2064-0.61,0.0737-0.8796
					c-0.177,0.2979-0.3098,0.7661-0.7079,0.9222c-0.059-0.2838,0.1327-0.6101-0.0296-0.8938
					c-0.2064,0.3689-0.4277,0.752-0.7816,1.0215c0.177-0.298,0.1327-0.7661,0.0295-1.0783
					c-0.1917,0.2412-0.2949,0.5959-0.5604,0.8513c-0.0885,0.1419-0.0885,0.2979-0.2802,0.3404l0.0295-1.064h-0.0737
					c-0.2507,0.2979-0.3392,0.6951-0.5899,0.9506h-0.118c0.118-0.298,0.3834-0.7095,0.0738-1.0215
					c-0.2803,0.0993-0.177,0.454-0.3541,0.6526c-0.0884,0.1419-0.2654,0.3122-0.3834,0.3689
					c0.0295-0.2838,0.1032-0.6243-0.0737-0.908c-0.2213,0.3122-0.2655,0.5674-0.3834,0.908
					c-0.1328-0.2412-0.5162-0.3263-0.7522-0.298c0.0737-0.1703,0.3245-0.227,0.4572-0.383c0.1475-0.227,0.3244-0.4824,0.2212-0.7803
					c-0.236-0.1845-0.5162,0.0851-0.7522-0.0994c-0.0442-0.1276,0.2213-0.156,0.3245-0.2412l-0.0295-0.0284
					c0.2507-0.1277,0.3982-0.3405,0.5899-0.5107c-0.2654-0.1702-0.6636-0.2554-0.8111-0.5108
					c5.5454,0.1703,11.0319-0.4114,16.5626-0.5533c2.5958-0.2129,5.1768-0.4824,7.7282-0.8087l0.0591-0.0709
					c-0.7964-0.1276-1.6961-0.0567-2.4778,0.0709c-6.8728,0.752-13.9668,1.0924-21.1641,1.0215
					c-0.1033-0.0284-0.2102,0.0603-0.3098-0.071c-0.0147-0.1844,0.3098-0.2128,0.4867-0.2411
					c7.8757,0.1844,15.545-0.3405,23.052-1.1208c2.8023-0.1986,5.9586-0.3547,8.7755,0c2.6695,0.1419,5.2357,0.5391,7.9642,0.5817
					c0.7079-0.0425,1.4011-0.1419,2.0206-0.4398c0.2065-0.1845,0.3244-0.4823,0.177-0.7236
					c-0.3835-0.4256-0.9291-0.4398-1.4601-0.5107l-2.7285-0.1277L43.7567,7.0696C39.6713,7.183,35.6302,7.3958,31.5154,7.41
					c-0.3835,0.0568-0.826,0.1702-1.2095,0.0284c2.1534-0.7235,4.6753-0.0141,7.0056-0.3405
					c2.522-0.0993,4.9851-0.3547,7.5808-0.2979l10.7959,0.0284c1.1356,0.156,2.5367-0.0426,3.1857,1.0498
					c0.1475-0.1419,0.0295-0.3546-0.0443-0.5107c-0.8701-0.9221-2.1533-0.8796-3.3921-0.9506L41.6623,6.4594
					c-1.7255,0.2554-3.5249,0.0426-5.2653,0.298c-0.1474-0.0567-0.6194,0.0142-0.3982-0.298
					c0.8407-0.6951,2.0648-0.5248,3.1857-0.5533c0-0.1561-0.118-0.3973-0.2803-0.4682c0-0.0425,0.0147-0.0851-0.0295-0.1135
					c0.354-0.0284,0.6047,0.1702,0.8406,0.3122c0.1623-0.071,0.059-0.1703,0.0443-0.2696c-0.118-0.0993-0.3097-0.1844-0.3982-0.3405
					c0.2802-0.1419,0.4572,0.1135,0.6784,0.1702c0.0885-0.1135,0-0.2553-0.0737-0.3405c0.3982-0.0993,0.7374,0.3972,1.0619,0.5817
					c0.0147-0.1135-0.0147-0.2696-0.1033-0.3831c0.177-0.1702,0.3687,0.0284,0.5309,0.0993
					c0.472,0.3263,0.7965,0.9647,1.4454,0.8512c0.1622,0.0142,0.2654-0.1277,0.3981-0.1986
					c-0.0884-0.1276-0.2802-0.2695-0.2507-0.4823c0.2654-0.0284,0.4424,0.1702,0.6785,0.2412c0-0.2837-0.2507-0.5391-0.531-0.7519
					l0.4129-0.0284V4.4449C44.1401,4.7428,44.5088,5.1968,45.025,5.4948L45.025,5.4948z"/>
				<path id="_122546064" class="st4" d="M-2.2885,5.2251c-0.0589,0.071-0.2212,0.1561-0.3244,0.071
					c0.0148-0.2412-0.0148-0.4682-0.1033-0.681C-2.4506,4.7145-2.3327,4.9556-2.2885,5.2251L-2.2885,5.2251z"/>
				<path id="_122545400" class="st4" d="M31.7512,5.2251c0.177,0.0143,0.3539-0.0283,0.5014,0.0426
					c-0.236,0.227-0.7227,0.1136-1.0618,0.0993c-1.7256-0.6668-3.8494-0.4114-5.7667-0.61
					C27.6216,4.601,29.775,4.6578,31.7512,5.2251L31.7512,5.2251z"/>
				<path id="_122544656" class="st4" d="M11.8259,5.736c-0.1033-0.3547,0.1475-0.6951,0.4572-0.9506
					C12.2536,5.1543,12.1799,5.5374,11.8259,5.736z"/>
				<path id="_122544040" class="st4" d="M13.5957,5.8069l-0.2064-0.0284c-0.118-0.2979,0.1621-0.5959,0.4277-0.7235l0.2064-0.0993
					C13.8907,5.1684,13.7285,5.5231,13.5957,5.8069L13.5957,5.8069z"/>
				<path id="_122543656" class="st4" d="M-0.5186,5.2962C-0.5777,5.438-0.5481,5.736-0.8136,5.665h-0.1327
					c-0.0738-0.1702,0.1622-0.1276,0.177-0.2695c0.059-0.1419-0.1327-0.2696,0.0295-0.3689
					C-0.6071,5.0833-0.5481,5.1543-0.5186,5.2962L-0.5186,5.2962z"/>
				<path id="_122543040" class="st3" d="M36.397,5.0266c0.1475,0.4823-0.5162,0.7235-0.7817,0.9789h-0.2065
					C35.5711,5.5799,36.2053,5.4664,36.397,5.0266z"/>
				<path id="_122542376" class="st4" d="M26.7957,6.3176c-0.3687,0.298-0.9365,0.1136-1.2684,0
					c-0.5714-0.2943-1.1614-1.0214-0.8849-1.2201c0.3135-0.0497,0.3288,0.4851,0.6047,0.7378
					C25.8592,6.3956,26.427,6.3885,26.7957,6.3176L26.7957,6.3176z"/>
				<path id="_122541744" class="st4" d="M15.7196,5.1259c-0.413,0.3689-0.8259,0.752-1.1357,1.1917
					c-0.2212,0.0568-0.177-0.227-0.1327-0.3404C14.7315,5.5231,15.2623,5.3387,15.7196,5.1259L15.7196,5.1259z"/>
				<path id="_122541112" class="st4" d="M10.8083,5.9062c-0.0443,0.0425-0.0885,0.0993-0.1475,0.071
					c-0.1327-0.1986-0.0738-0.4966,0.0295-0.681C10.7935,5.4806,10.8968,5.6934,10.8083,5.9062L10.8083,5.9062z"/>
				<path id="_122540280" class="st4" d="M9.9824,6.8284c-0.2507,0-0.3835-0.227-0.413-0.4398V6.2183
					C9.7168,6.4453,10.1593,6.4453,9.9824,6.8284z"/>
				<path id="_122539888" class="st4" d="M15.7196,7.2682c-0.0738,0.0709-0.1917,0.1561-0.2803,0.0709
					c-0.2507-0.3547,0.4131-0.6526,0.5015-1.0215C16.0587,6.6723,15.8818,7.0127,15.7196,7.2682L15.7196,7.2682z"/>
				<path id="_122539120" class="st4" d="M12.2831,7.3674c0.0885-0.2837,0.1327-0.5817,0.118-0.908
					c0.2212,0.5675,0.0737,1.2911-0.295,1.7025c0.1033-0.4114-0.5751-0.3405-0.8406-0.5533
					c-0.2065-0.1844-0.5458-0.2412-0.6047-0.5391c0.2803,0.2695,0.5605-0.1136,0.8849,0.0709
					c-0.0738-0.2696-0.4277-0.5107-0.7374-0.5533l-0.295,0.0425c0.0295-0.1419,0.2212-0.1703,0.3244-0.2412
					C11.531,6.3602,11.7669,7.0553,12.2831,7.3674L12.2831,7.3674z"/>
				<path id="_122538600" class="st3" d="M31.4711,6.8993l-1.062,0.2412l-0.6046-0.6526
					C30.4239,6.4737,30.9843,6.6014,31.4711,6.8993L31.4711,6.8993z"/>
				<path id="_122537712" class="st4" d="M-3.2913,6.6297c0.118,0.1419-0.0148,0.3263-0.1328,0.3973
					c-0.177,0.0993-0.3539,0-0.4277-0.1277V6.7574C-3.6453,6.9703-3.4684,6.6865-3.2913,6.6297L-3.2913,6.6297z"/>
				<path id="_122537080" class="st3" d="M-4.486,6.8284c-0.0443,0.383-0.5604,0.085-0.7817,0.2695
					c0.059-0.1845,0.1365-0.3653,0.531-0.4398C-4.6188,6.6439-4.486,6.7007-4.486,6.8284L-4.486,6.8284z"/>
				<path id="_122536696" class="st4" d="M13.109,7.6512c0.5457-0.0284,1.5191-0.2554,1.9469,0.2696
					c-0.3098-0.0426-0.7965-0.227-1.0029,0.0284c0.236,0.0709,0.472,0.1986,0.6489,0.3121c-0.4277,0.1277-0.9881,0.3405-1.3864,0
					c-0.1327-0.0425-0.2065-0.2554-0.3834-0.1702c-0.177,0.071-0.0738,0.3405-0.3245,0.298
					c0.2507-0.5675,0.4131-1.2769,0.9882-1.6316C13.4335,7.0553,13.1533,7.3107,13.109,7.6512z"/>
				<path id="_122536064" class="st4" d="M9.8054,7.1972c0.0294,0.0993-0.0296,0.1702-0.059,0.2412
					C9.5989,7.3533,9.3481,7.1263,9.3481,6.9277C9.5104,6.9986,9.7169,7.0553,9.8054,7.1972L9.8054,7.1972z"/>
				<path id="_122535680" class="st4" d="M-0.2089,7.4384c-0.118,0.2696-0.3097,0.6384-0.708,0.6526
					c0.0738-0.3263,0.3392-0.7235,0.6785-0.7803L-0.2089,7.4384L-0.2089,7.4384z"/>
				<path id="_122534808" class="st3" d="M11.6383,7.2777c-0.1593,0.0851-0.0531,0.2724-0.0885,0.4086
					c-0.0708-0.0511-0.177-0.1703-0.1239-0.2894C11.4967,7.3458,11.5321,7.2267,11.6383,7.2777L11.6383,7.2777z"/>
				<path id="_122534424" class="st3" d="M-2.3622,7.8498c0.2212,0.3405,0.059,0.7945-0.1475,1.0924h-0.0737
					c-0.1476-0.3688-0.0738-0.8938-0.59-1.0215c-0.1033-0.0709-0.3245-0.0709-0.295-0.2128
					C-3.0849,7.6228-2.6719,7.5519-2.3622,7.8498L-2.3622,7.8498z"/>
				<path id="_122534040" class="st4" d="M62.6641,7.9492c0.0738-0.071-0.059-0.1561-0.0737-0.2412
					c0.5457,0.0709,1.0766,0.6242,1.7255,0.5107c-0.177,0.2837-0.531,0.4256-0.8849,0.3122
					c-1.0029-0.0993-1.7993-1.0925-2.8907-0.5817c0.0885-0.1561,0.2507-0.2696,0.4572-0.3405
					C61.617,7.5661,62.1184,7.7931,62.6641,7.9492L62.6641,7.9492z"/>
				<path id="_122533656" class="st4" d="M60.0094,8.2187c-0.0147,0.3688-0.2212,0.6668-0.5014,0.9221
					c-0.5604,0.4682-1.3274,0.454-2.05,0.5108l-4.1444-0.1986l-7.4333-0.61c-0.0295-0.071-0.0885-0.0284-0.1475-0.0425
					c1.0029-0.2128,1.9469,0.1277,2.9497,0.0993c3.0824,0.0567,5.9879,0.61,9.1294,0.4539
					c0.6489-0.1277,1.4306-0.0851,1.7698-0.8228c0.0442-0.2412,0.2065-0.5675,0-0.7803
					C59.7882,7.8214,59.9357,8.0343,60.0094,8.2187L60.0094,8.2187z"/>
				<path id="_122532904" class="st4" d="M0.4989,7.9492c0.1033,0.3121-0.2064,0.4539-0.4277,0.5533l-0.3097,0.0567
					c0.2212-0.1844,0.3982-0.5817,0.6637-0.7093L0.4989,7.9492L0.4989,7.9492z"/>
				<path id="_122532272" class="st3" d="M13.771,7.8925c-0.0959,0.0922-0.2109,0.332-0.0959,0.498
					c-0.0958-0.0553-0.1725-0.2213-0.1341-0.3689C13.6175,7.9847,13.6559,7.8556,13.771,7.8925L13.771,7.8925z"/>
				<path id="_122531888" class="st4" d="M1.2512,8.5024c0.059,0.3547-0.3834,0.3973-0.6047,0.5391
					c-0.177-0.3262,0.2802-0.5107,0.4277-0.7093C1.148,8.3747,1.2217,8.389,1.2512,8.5024L1.2512,8.5024z"/>
				<path id="_122531272" class="st4" d="M16.0441,8.5308c-0.2212,0.227-0.5458,0.2837-0.8555,0.1986L15.1591,8.701
					C15.3656,8.5875,15.7196,8.3322,16.0441,8.5308z"/>
				<path id="_122530664" class="st3" d="M-3.0701,8.6727c-0.0332,0.3653-0.3393,0.5958-0.6785,0.61
					C-3.4093,9.1267-3.6895,8.1193-3.0701,8.6727z"/>
				<path id="_122529776" class="st4" d="M10.2774,8.8713c0.0295,0.1845-0.2213,0.1986-0.3244,0.2696H9.8497
					c-0.059-0.1702,0.1917-0.3121,0.2802-0.4681C10.2331,8.6868,10.3068,8.7578,10.2774,8.8713L10.2774,8.8713z"/>
				<path id="_122529168" class="st4" d="M15.7196,8.9706c-0.1622,0.3405-0.59,0.2128-0.9144,0.2412
					C14.9526,8.928,15.3804,8.9848,15.7196,8.9706z"/>
				<path id="_122528504" class="st4" d="M50.1574,10.7157c-0.5457,0.3404-1.2684,0.0567-1.9025,0.0992
					c-2.3745-0.156-4.3362-1.3478-6.7991-1.1917c0.7669-0.3688,1.6519-0.0284,2.4778-0.0425
					C45.9541,10.0773,47.9894,10.5738,50.1574,10.7157L50.1574,10.7157z"/>
				<path id="_122527888" class="st4" d="M14.8052,10.1339v0.0709c-0.2065-0.0425-0.3393-0.1986-0.4277-0.383
					C14.6576,9.6658,14.7461,9.9353,14.8052,10.1339L14.8052,10.1339z"/>
				<path id="_122527272" class="st4" d="M14.2742,9.8644c-0.059,0.1844,0.1032,0.3405,0,0.5108l-0.354-0.4114
					C13.9792,9.8786,14.1267,9.8361,14.2742,9.8644z"/>
				<path id="_122526504" class="st3" d="M11.8259,10.2332c-0.1917,0.6527-0.5973,1.5783-0.9366,2.1742
					c0,0,0.1291-1.1882,0.6085-2.2877C11.601,10.0773,11.7964,10.1624,11.8259,10.2332L11.8259,10.2332z"/>
				<path id="_122526120" class="st4" d="M60.5698,11.0135c0.2951,0.5249-0.0884,1.0215-0.2064,1.5038
					c-0.1475,0.0426-0.295,0.1845-0.4277,0.1277c0.3539-0.3972,0.5014-1.0214,0.2802-1.5322l-0.177-0.1276
					c-0.7523,0.2411-1.5634,0.4965-2.4041,0.4398c0.826-0.1844,1.5487-0.5674,2.3303-0.8512
					C60.3044,10.5454,60.4076,10.8008,60.5698,11.0135L60.5698,11.0135z"/>
				<path id="_122525088" class="st4" d="M36.9279,10.9852c0.2802,0.0992,0.59,0.1844,0.7817,0.4398
					c0.0147,0.2696-0.295,0.3121-0.472,0.4114c-0.3982,0.0425-0.7079-0.3688-1.0914-0.1702
					c-0.059,0.2411,0.2654,0.1276,0.3244,0.2695l0.2065,0.1986l-1.2685-0.298v0.0993c0.3688,0.2128,0.8408,0.3973,1.062,0.7519
					c-0.3244-0.0851-0.6342-0.3972-0.9587-0.2412l0.7818,0.5817c-0.5015,0.2695-1.0325,0.7377-1.6666,0.6384
					c-0.2802-0.0567-0.6489-0.0993-0.7521-0.3689c0.1179-0.0851,0.2507,0.0851,0.3539,0.0284
					c-0.3393-0.4681-0.9587-0.5817-1.4749-0.7803c0.2803-0.2127,0.6637,0.0993,1.0177,0.0993
					c-0.1475-0.2553-0.6342-0.3121-0.8849-0.5107c0.3244-0.1419,0.5604,0.1844,0.8553,0.0709
					c-0.4277-0.298-1.0471-0.2838-1.519-0.5391v-0.0993c0.9439-1.1066,2.6252-0.6527,3.7756-0.3122
					C36.3085,11.1696,36.6625,11.1838,36.9279,10.9852L36.9279,10.9852z"/>
				<path id="_122522144" class="st4" d="M54.6557,12.6876c-0.4277,0.227-0.3539-0.3972-0.6341-0.5533
					C54.3313,12.1627,54.5378,12.4323,54.6557,12.6876z"/>
				<path id="_122521760" class="st5" d="M55.0834,12.5457c0,0.0852,0.0147,0.1703-0.0737,0.2129
					c-0.2508-0.0993-0.2803-0.3973-0.4572-0.5817C54.759,12.2195,55.0097,12.3188,55.0834,12.5457L55.0834,12.5457z"/>
				<path id="_122521128" class="st4" d="M55.6144,12.5174c0,0.0851,0.0148,0.227-0.1032,0.2412
					c-0.2655-0.0993-0.2655-0.4114-0.4572-0.5817C55.2751,12.2195,55.4521,12.333,55.6144,12.5174L55.6144,12.5174z"/>
				<path id="_122520496" class="st3" d="M27.194,12.9288c0.059,0.1276-0.1033,0.1419-0.177,0.1702
					c-0.5014,0.071-0.3687-0.5249-0.7818-0.5817C26.6187,12.4039,27.0316,12.631,27.194,12.9288L27.194,12.9288z"/>
				<path id="_122520336" class="st3" d="M7.2686,12.5457c-0.9586,0.4824-1.9615,0.9648-2.8317,1.5748
					c-0.0148,0.0284,0.0294,0.0709,0.059,0.0567c1.2094-0.5817,2.3746-1.064,3.7609-1.2484
					c0.2655,0.1986,0.2213,0.5675,0.1771,0.8512l-0.3541,0.3405c0.236,0.1135,0.5163,0.227,0.8112,0.1277
					c0.2065-0.0568,0.3245-0.3405,0.6047-0.2412c0.1475,0.1845,0.236,0.4257,0.3098,0.5818
					c-0.1475,0.0284-0.2803-0.2128-0.413-0.0284l0.177,0.2695c-0.2508,0.0285-0.5458-0.1986-0.7817-0.0709
					c0.0147,0.227,0.2655,0.3121,0.4277,0.4114c-0.3097,0.3547-0.9734,0.0567-1.4159,0C7.6521,15.2839,7.829,15.44,7.9028,15.5393
					c-0.3392,0.0993-0.7079-0.1561-0.9881-0.0568c0.0147,0.2127,0.295,0.2127,0.3835,0.3404c-0.4277,0-0.9439,0-1.3422-0.1418
					c-0.1475,0.0567-0.0296,0.1844,0.0295,0.2412c0.059,0.0993,0.1622,0.0851,0.2507,0.1276v0.071
					c-0.5457,0.0993-0.9733-0.2554-1.4896-0.0284c0,0.1703,0.2065,0.1277,0.2802,0.2412c0.7818,0.0425,1.4307,0.3689,2.0649,0.7378
					c-0.6785,0.0283-1.3422-0.2129-1.8878-0.6101c-0.1475,0.0425-0.4129-0.0993-0.4572,0.1419l0.3982,0.5107
					c-0.5309,0.1561-0.7964-0.837-1.3126-0.4823c-0.0296,0.2411,0.1622,0.3689,0.3097,0.4823
					c-0.8849,0.2838-1.1061-1.2484-1.9468-0.6526c0.295,0.1703,0.4277,0.3263,0.649,0.5817
					c0.0737,0.156-0.2065,0.2128-0.3244,0.1418c-0.2802-0.1418-0.3098-0.5674-0.6785-0.5816
					c-0.1475,0.1135,0.0295,0.4682-0.2802,0.4114c-0.2802-0.1986-0.5162-0.3972-0.6637-0.7519
					c-0.0885-0.0284-0.177,0.0283-0.177,0.0993c-0.0885,0.2128,0.1475,0.2979,0.059,0.5107
					c-0.2359,0.1561-0.2803-0.1702-0.4572-0.1986c0.118-0.3405-0.0442-0.6668-0.1327-0.9647
					c-0.2213-0.1844-0.3393-0.3688-0.6047-0.4398c-0.3392,0.3404,0.2507,0.6526,0.3539,0.9931
					c0.0148,0.2979-0.0737,0.5675-0.2802,0.7803h-0.118c0.118-0.1845,0.2064-0.4257,0.2212-0.681
					c-0.1033-0.0852-0.2065-0.1986-0.354-0.2412c-0.1476,0.1845,0.1474,0.3263,0,0.5108c-0.2213-0.0142-0.4867-0.3406-0.8111-0.1703
					c-0.1475,0.1277-0.3245,0.1703-0.5015,0.2412c0.1032-0.1419,0.2212-0.3547,0.0737-0.5108c-0.118-0.1986-0.3245-0.0567-0.4572,0
					c-0.2949,0.2696-0.6931,0.3831-0.9291,0.7094c-0.5752,0.0425-0.1623-0.7661-0.7374-0.8087
					c-0.0296-0.1135-0.1917-0.156-0.1771-0.2696c0-0.1844,0.1475-0.2411,0.2802-0.3404c0.6194-0.1419,1.1062,0.2412,1.6666,0.0568
					c0.059-0.0426,0.0148-0.1278,0.0295-0.1986c-0.1032-0.2412-0.3097,0.0283-0.4572-0.0993
					c-0.5309-0.1419-1.0914-0.2128-1.6223-0.0426c-0.2359-0.4398,0.236-0.7945,0.2803-1.2201h0.4277
					c0.5014,0.3263,1.0176,0.6668,1.6223,0.7803l0.1475-0.1277c-0.177-0.6243-0.9735-0.2554-1.1799-0.7945
					c-0.059-0.4966,0.6047-0.4398,0.6047-0.908c0.1033-0.1136,0.2655-0.1277,0.3983-0.0709
					c0.2654,0.1986,0.2949,0.4966,0.4572,0.7519c0.8554,0.9647,2.404,0.3688,3.4954,0.7803
					c2.0205,0.1135,3.3922-1.3052,5.1325-1.8444L7.2686,12.5457L7.2686,12.5457z"/>
				<path id="_122519704" class="st3" d="M-2.8931,12.9288c-0.0148,0.0993,0.0442,0.2553-0.1033,0.2695
					c-0.3245-0.0568-0.3835-0.3972-0.5752-0.5817C-3.3061,12.6451-3.0407,12.7018-2.8931,12.9288L-2.8931,12.9288z"/>
				<path id="_122510800" class="st4" d="M57.9151,13.0565c0.3098,0.2696,0.4277,0.6669,0.3245,1.0641
					c-0.1771,0.3263-0.3687,0.7945-0.8849,0.7378h-0.118c0.236-0.1561,0.4868-0.3405,0.531-0.6101
					c0.0737-0.3263-0.0738-0.5817-0.2803-0.8087c-0.3391-0.3688-0.7964-0.5107-1.2388-0.5816
					C56.7942,12.7444,57.4727,12.7444,57.9151,13.0565L57.9151,13.0565z"/>
				<path id="_122509304" class="st4" d="M60.673,13.9787c0.0296,0.3121-0.3834,0.3263-0.2802,0.681
					c-0.4424,0.1561-0.2507,0.7803-0.8554,0.7803c0.2212,0.2695-0.236,0.3688-0.4129,0.4114
					c-0.354-0.0284-0.767,0.0851-1.0029-0.2412c0.177-0.0709,0.4572-0.0993,0.5752-0.2979l-0.0737-0.071
					c0.177-0.1845,0.5456-0.0568,0.7374-0.2412c-0.0442-0.0851-0.1327-0.071-0.2065-0.071c0.1475-0.2695,0.5752-0.156,0.6785-0.4682
					l-0.2212-0.1135c0.1474-0.2554,0.6047-0.1845,0.4572-0.5675l-0.2065-0.1419c0.2802-0.1986,0.5162-0.4681,0.6784-0.7519
					C61.0123,13.2126,60.2896,13.6807,60.673,13.9787L60.673,13.9787z"/>
				<path id="_122508640" class="st4" d="M-1.728,13.397c0.0295,0.0993,0.1475,0.2554,0,0.3405
					c-0.0737,0.0142-0.1475,0.1277-0.2064,0.0425c-0.1917-0.1276-0.0738-0.383-0.3245-0.454
					C-2.2885,12.9288-1.7723,13.2126-1.728,13.397L-1.728,13.397z"/>
				<path id="_122507824" class="st4" d="M33.4178,14.1773c-0.9439,0.071-1.9025-0.3405-2.581-0.9506
					C31.766,13.397,32.5182,13.9644,33.4178,14.1773z"/>
				<path id="_122506896" class="st4" d="M28.2116,13.6098c-0.059,0.2128,0.0147,0.4965-0.236,0.61
					c-0.0885-0.0709-0.1622-0.2979-0.177-0.4114c0.0296-0.1561,0.0443-0.3689,0.2065-0.4398
					C28.1673,13.3545,28.1821,13.4963,28.2116,13.6098L28.2116,13.6098z"/>
				<path id="_122506112" class="st3" d="M16.4718,13.8084c0.0295,0.5107-0.5752,0.6668-0.885,0.9506
					c-0.2507,0.0283-0.4129-0.227-0.6489-0.1277c-0.0442,0.156,0.1327,0.5249-0.1769,0.5674
					c-0.4425,0.071-0.9145-0.3972-1.2389-0.0284c-0.236,0.0426-0.5014-0.0425-0.5604-0.2695
					c0.0295-0.1702,0.0443-0.3689,0.2065-0.4398c0.7226,0.0993,1.6665,0.3122,2.1238-0.3405
					c0.1032-0.2412,0.1327-0.5391,0.3982-0.681C16.0293,13.3686,16.2357,13.5956,16.4718,13.8084L16.4718,13.8084z"/>
				<path id="_122505480" class="st3" d="M54.1691,13.7375c0.0443,0.071-0.0885,0.2129-0.1475,0.3121
					c-0.1623-0.0284-0.3098-0.2553-0.4573-0.383C53.7118,13.5247,53.9921,13.6524,54.1691,13.7375L54.1691,13.7375z"/>
				<path id="_122504848" class="st5" d="M38.8308,14.3475c-0.1327,0.3404-0.5162,0.5674-0.8407,0.5816
					c0.3687-0.3547,0.7226-0.7803,0.7817-1.291C38.9488,13.78,38.8602,14.1347,38.8308,14.3475L38.8308,14.3475z"/>
				<path id="_122504232" class="st4" d="M25.9845,14.1489v0.0709c-0.1917-0.3405-1.0766,0.1419-0.6636-0.4823
					C25.5863,13.78,25.8371,13.9078,25.9845,14.1489z"/>
				<path id="_122503600" class="st3" d="M24.5392,14.0496c0.0148,0.5249-0.7079,0.0851-0.9291,0.4398
					c-0.0148-0.2838,0.3687-0.4965,0.6489-0.6101C24.4212,13.8227,24.4654,13.9503,24.5392,14.0496L24.5392,14.0496z"/>
				<path id="_122458032" class="st3" d="M-4.5598,14.4894c0.0148,0.1135-0.0148,0.2412-0.1475,0.2696
					c-0.236-0.0568-0.5309-0.1702-0.7669-0.0284C-5.3119,14.4753-4.6925,13.8794-4.5598,14.4894L-4.5598,14.4894z"/>
				<path id="_122457272" class="st4" d="M37.4589,14.759v0.0993c-1.1947,1.0498-2.817,1.3478-4.4689,1.4754l-0.5604-0.1135
					c0.1623-0.1703,0-0.4965,0.2507-0.6101c0.5162,0.1561,1.3274,0.3263,1.6961-0.1276c0.3834-0.0993,1.0029,0.227,1.1651-0.2838
					c0.3392-0.227,0.6932,0.1702,1.0325-0.0567l0.0295-0.383C36.9279,14.8583,37.2229,14.5603,37.4589,14.759L37.4589,14.759z"/>
				<path id="_122456656" class="st4" d="M1.5315,15.2698l-0.0443,0.2411c-0.1328-0.2553-0.5752-0.5107-0.2803-0.8229
					C1.4872,14.759,1.5019,15.0143,1.5315,15.2698z"/>
				<path id="_122456040" class="st4" d="M2.2394,15.0285L2.1951,15.44c-0.2212-0.1702-0.413-0.298-0.3834-0.6384
					C2.0033,14.5178,2.2246,14.8583,2.2394,15.0285L2.2394,15.0285z"/>
				<path id="_122455424" class="st4" d="M2.903,15.071l-0.0295,0.3405c-0.236-0.1418-0.3097-0.383-0.4277-0.61
					C2.6524,14.532,2.844,14.8866,2.903,15.071z"/>
				<path id="_122455040" class="st3" d="M12.0029,15.0001c0.5458,0.0709,1.1356,0.227,1.2832,0.7803
					c0.0147,0.1419-0.1475,0.1277-0.2212,0.1702c-0.59,0.0994-1.0324-0.4681-1.5929-0.1702
					c0.0296,0.3263,0.5752,0.1845,0.4572,0.5107c-0.3982,0.071-0.8111-0.3546-1.1946-0.0993
					c0.0885,0.1703,0.2065,0.3405,0.4277,0.3689c-0.8554,0.4398-1.1947-0.7945-1.9468-0.4398
					c0.0147,0.3688,0.6784,0.3688,0.4867,0.7803c-0.7374,0.5533-1.0914-0.7235-1.7699-0.3405
					c-0.0147,0.2127,0.2655,0.2412,0.3245,0.4114c-0.5014-0.0284-0.8997-0.4682-1.4601-0.4682
					c1.6961-0.2837,3.2594-0.8228,4.6458-1.816C11.7227,14.5745,11.8259,14.9575,12.0029,15.0001L12.0029,15.0001z"/>
				<path id="_122454152" class="st4" d="M-3.6011,14.7306c0.118,0.2695-0.177,0.2412-0.3539,0.3404h-0.2213
					c-0.0737-0.0993,0-0.1986,0.0738-0.2695C-3.9403,14.9718-3.7633,14.7448-3.6011,14.7306L-3.6011,14.7306z"/>
				<path id="_122453768" class="st4" d="M28.9933,15.823c-0.177,0.2838-0.472,0.2838-0.7816,0.2696
					c0.2802-0.2837,0.6341-0.6525,0.7079-1.064C29.1556,15.2555,29.0818,15.5534,28.9933,15.823L28.9933,15.823z"/>
				<path id="_122453128" class="st3" d="M52.0454,15.44c-0.0295,0.3121-0.5162,0.0993-0.7079,0.3121h-0.0738
					c-0.0591-0.2695,0.3244-0.4398,0.5309-0.5533C51.9568,15.1562,52.0011,15.3548,52.0454,15.44z"/>
				<path id="_122452496" class="st4" d="M30.4091,15.5393c0,0.2695-0.1033,0.4681-0.3097,0.5816H29.952
					c0.0442-0.2696,0.2064-0.4965,0.1474-0.8086C30.3207,15.142,30.3207,15.44,30.4091,15.5393L30.4091,15.5393z"/>
				<path id="_122451856" class="st4" d="M29.7454,15.752c0,0.2979-0.295,0.5391-0.531,0.681h-0.2507
					c0.1032-0.2128,0.295-0.3547,0.4277-0.5817l0.1327-0.5391C29.7602,15.3264,29.6718,15.596,29.7454,15.752L29.7454,15.752z"/>
				<path id="_122451088" class="st4" d="M25.4979,15.9223c-0.0737,0.0709-0.177,0.1419-0.2507,0.0709
					c-0.236-0.1986,0.1623-0.3262,0.0738-0.5532C25.5273,15.5109,25.4831,15.7379,25.4979,15.9223z"/>
				<path id="_122450456" class="st3" d="M24.5687,16.1635c0.0737,0.2695-0.6637,0.5391-0.6637,0.5391
					c0.0147-0.2838,0.0621-0.4411,0.2427-0.7037C24.2658,15.8429,24.6424,15.9506,24.5687,16.1635z"/>
				<path id="_122449824" class="st4" d="M-2.6129,16.1635c-0.059,0.2127-0.3392,0.3404-0.5604,0.3972
					c-0.0443-0.0851-0.1623-0.1419-0.118-0.2696C-3.0554,16.2769-2.8637,16.05-2.6129,16.1635L-2.6129,16.1635z"/>
				<path id="_122449440" class="st4" d="M27.3709,16.6317c-0.0443,0.156,0.0885,0.3973-0.1032,0.4398
					c-0.2213-0.1702-0.3393-0.4823-0.2951-0.7378C27.2678,16.1493,27.2972,16.4756,27.3709,16.6317L27.3709,16.6317z"/>
				<path id="_122448800" class="st3" d="M-3.9993,16.5607v0.1135c-0.236,0.0851-0.4867,0.1844-0.6637,0.3404
					c-0.0442-0.2837,0.2065-0.4681,0.4277-0.6525C-4.0878,16.3479-4.0288,16.4473-3.9993,16.5607L-3.9993,16.5607z"/>
				<path id="_122448160" class="st4" d="M55.6144,17.2843v0.0284c-0.1327-0.0851-0.3539-0.2128-0.3244-0.4114
					c0.059-0.0285,0.0884-0.1278,0.177-0.0993C55.4078,16.9579,55.5701,17.1283,55.6144,17.2843L55.6144,17.2843z"/>
				<path id="_122447544" class="st3" d="M-0.9906,16.9013c0.0147,0.383-0.2507,0.681-0.4867,0.9221h-0.1033
					C-1.0348,17.5963-1.8313,16.6033-0.9906,16.9013z"/>
				<path id="_122443872" class="st3" d="M53.2399,17.114c-0.177,0.1845-0.5162,0.1845-0.7816,0.2696
					c-0.0443-0.1134,0.0442-0.2696,0.1179-0.3689c0.1328-0.0993,0.3097-0.2553,0.4867-0.1419
					C53.122,16.9579,53.1662,17.0431,53.2399,17.114L53.2399,17.114z"/>
				<path id="_122442984" class="st3" d="M26.6187,17.2133c0.0738,0.2412-0.1622,0.4256-0.354,0.5107l-0.2803,0.071
					c0.059-0.1845,0.0806-0.5901,0.3245-0.7235C26.4565,17.0431,26.5745,17.114,26.6187,17.2133z"/>
				<path id="_122442352" class="st3" d="M56.3517,17.5822c0.0295,0.156-0.0148,0.2696-0.1033,0.383
					c0.0147-0.2127-0.4867-0.383-0.1033-0.5817C56.2779,17.3836,56.2927,17.5113,56.3517,17.5822L56.3517,17.5822z"/>
			</g>
			<g>
				<polygon id="_122441360" class="st6" points="-17.9993,55.1355 77.973,55.1355 77.973,59.84 -17.9993,59.84 				"/>
				<path id="_122441200" class="st7" d="M18.5515,32.7675c-0.0572-0.3245,0.0757-0.7656-0.0239-0.907l-1.2412-2.9359
					c-0.7638,0.1671-0.907-0.7876-0.2666-1.0531c0.5053-0.0925,6.7302-1.2764,6.7302-1.2764
					c1.4131-0.783,2.8452-1.5659,4.2583-2.3488c-0.0955-0.2099-0.2913-0.6683-0.2674-0.6683
					c0.3819-0.2268,0.7996-0.3938,1.3127-0.4177c0,0,0.191,0.5728,0.191,0.5608c0,0,0.2626-0.0477,0.2745-0.0358
					c-0.0119,0.0119-0.0861-0.6353-0.0836-0.7041c0.4416-0.1433,1.1553-0.1074,1.5754-0.0119c0,0-0.0716,0.7041-0.0835,0.7041
					c0.0728,0.0228,0.2506,0.0477,0.2506,0.0477c0.0119,0,0.1528-0.549,0.1551-0.5608c0.4416,0,1.0622,0.2029,1.4321,0.4057
					l-0.1551,0.3461c0,0,1.9095,0.5848,1.8856,0.6086l9.6581-1.9196c0.2594-0.0495,0.4079,0.0342,0.4742,0.2846
					c0.1074,0.4058-0.4535,0.6803-1.3009,0.8235c-0.907,2.8762-2.2579,5.8598-3.7474,8.6285
					c1.3606,1.4799,8.4495,4.9886,8.4495,4.9886h7.0412c0.3581,0,0.8648,0.3981,0.8648,0.8564
					c0.2101,0.0764,0.4583,0.0383,0.592,0.2864c0.0573,0.5157-0.5346,0.401-0.7829,0.6875
					c-0.2865,0.5346-0.7829,1.0311-1.1457,1.5084v0.3247c0.3628,0.0955,0.9167-0.0573,1.0502,0.3628
					c0,0.1527-0.0191,0.3056-0.1719,0.401c-0.1337,0.0191-0.3436-0.0573-0.3628,0.1528c0.1146,0.3628-0.2101,0.5537-0.3819,0.821
					c-0.5211,0.0888-0.3628,0.5538-0.3628,0.5538c0.0573,0.5538,0.1616,1.1963,0.0088,1.731l-0.639,0.0066l-0.0055-2.0832
					c-0.0239,0-0.3103,0.0191-0.5013,0c0,0,0,2.0528-0.0088,2.0832l-0.8593,0.8592c-0.1909,1.394,0.5155,3.3416-0.9739,3.9909
					c-0.3627,0.1336-0.6643,0.1317-1.0502-0.1719c-0.2864-0.2673-0.4201-0.7065-0.2291-1.0693
					c0.1718-0.3629,0.611-0.4965,1.012-0.5347c-0.0573-0.3055-0.4393-0.1909-0.6493-0.2864l0.0573-0.401
					c0.802-1.3557,1.7417-2.9425,2.1045-4.4701c0,0-0.4447,0.0005-0.4297,0c-0.2864,1.1839-0.864,2.3463-1.5514,3.3774
					c0.2101-0.9356,0.3246-2.2508,0.1909-3.3774c0.0239,0-0.4296,0-0.4057,0c0.358,4.3202-1.7186,7.1606-4.4532,8.671
					c0,0-0.5592,0.1962-1.6811,0.1962c-0.4058,0-7.1844,0-7.2203,0l-0.5609-1.4798h8.2346c1.5992,0,5.1557-2.7449,4.01-7.3874
					c0.0239,0-0.2434,0-0.358,0c0.9786,4.3202-2.2198,6.9697-4.01,6.9697h-7.5425c-0.2745-0.2029,0.1194-0.4297,0.0477-0.8951
					h7.2799c1.2412,0,3.8667-2.0647,2.8404-6.0746c0.0136,0.0125-0.4535,0-0.4297,0c1.0025,2.9359-1.0025,5.7763-2.7927,5.6569
					c-0.4296,0-6.9935,0-6.9935,0c-0.3102-0.4655-0.8711-0.7041-1.5937-0.5948c-0.3245,0.0954-0.6953,0.2511-0.829,0.5948h-1.1457
					c-0.3103-0.4296-0.9276-0.7667-1.6534-0.5948c-0.3056,0.0954-0.6714,0.2511-0.8051,0.5948
					c0.0041,0.0006-0.833-0.0071-1.2531,0.0119c-0.2983-0.4535-0.9396-0.7786-1.6462-0.6067
					c-0.3247,0.0954-0.6905,0.2511-0.8242,0.5948c-0.318-0.0145-0.8115-0.0119-0.8115-0.0119
					c-0.0831-0.0456-0.217-0.2992-0.2929-0.3537c-0.471-0.3384-1.3139-0.3829-1.6994-0.1337
					c-0.311,0.201-0.4185,0.3919-0.401,0.4965c-3.3351-0.0807-7.1224,0.4391-8.7646-2.7115
					c-0.5155-1.0311-0.6332-2.2742-0.4965-3.5707c0.0064,0.0076-0.4351-0.0044-0.4351-0.0044
					c-0.2268,2.554,0.416,4.6444,2.4592,5.7901c2.0432,1.1457,4.403,0.8455,7.124,0.9171c-0.0239,0.5251,0.3461,0.7877,0.5132,0.907
					c-0.0002,0.007-3.1152,0.0146-3.1149,0c-1.939-0.0564-4.2282-0.2337-5.5917-0.8693c-2.3678-1.3747-3.3607-3.9717-3.1507-6.7404
					c-0.0054-0.0044-0.2894,0.0148-0.4231-0.0044c-0.1719,2.8261,0.6715,5.5418,3.1728,7.0695
					c1.4032,0.7682,3.7632,0.9132,5.8376,0.9505c-0.0119-0.0009,3.8317-0.0019,3.8309,0c0.1528,0.4583,0.3938,1.4798,0.4178,1.4798
					c-0.0239-0.0119-4.8812-0.0119-4.8812-0.0119c-2.7604-0.0109-5.5949-0.3358-7.5537-2.3803
					c-1.8331-1.9095-2.6741-4.5894-2.5587-7.1032c0.004-0.0044-0.4645,0.0058-0.4495-0.0044
					c-0.0955,3.628,1.4424,7.2222,4.8031,8.9025c2.441,1.0388,4.1118,0.8717,6.4159,0.9547l4.3195-0.0115l0.3461,1.2769
					c-5.7404,1.1815-10.0607,0.7042-13.2392-3.0031c-2.0751-2.4203-3.7617-5.213-5.0792-8.1535
					c-0.3246-0.0382-0.693,0.0578-0.8784-0.3246c-0.0174-0.5127-0.6237-0.7132-0.6619-1.1333c0.7638,0,0.2745-0.74,0.1671-0.9667
					c-0.4201-0.7256-1.1099-1.2889-1.8976-1.5276c-0.2148-0.0239-0.1671-0.4535,0-0.4416c0.8355-0.1194,1.2412-1.098,2.0288-1.0025
					h7.3039L18.5515,32.7675L18.5515,32.7675z"/>
				<path id="_122440424" class="st1" d="M30.5814,23.9599c0.3055-0.019,0.8473,0.1313,0.8473,0.1432l0.1313-0.4774l0.5847,0.1552
					l-0.3747,0.8856c-0.8974-0.2865-2.1482-0.2769-3.0265,0.0094l-0.3938-0.8712c0.1312-0.0716,0.3938-0.1552,0.5251-0.1791
					c-0.0119,0.0049,0.1862,0.4584,0.191,0.4655c0.2674-0.0764,0.7758-0.1361,0.7877-0.1313l-0.0358-0.5967
					c0.179-0.0478,0.6206-0.0478,0.7757,0C30.5933,23.5661,30.5814,23.96,30.5814,23.9599L30.5814,23.9599z"/>
				<path id="_122439760" class="st1" d="M42.79,23.8048c-0.8951,2.8523-2.1307,5.6516-3.582,8.2484c0,0-1.3469-1.1953-1.8004-1.792
					c0.9547-2.2915,2.3956-4.2648,4.4395-6.2537C41.8234,24.0076,42.5227,23.843,42.79,23.8048L42.79,23.8048z"/>
				<polygon id="_122439376" class="st1" points="32.1805,24.9982 32.479,24.2106 34.054,24.6164 				"/>
				<path id="_122438768" class="st1" d="M40.5465,24.2822c-1.2412,0.4202-2.9423,1.6035-4.3171,0.8398
					C36.2024,25.0937,40.5465,24.2703,40.5465,24.2822L40.5465,24.2822z"/>
				<path id="_122438152" class="st1" d="M30.7484,25.2609v-0.2268c0.3342,0,0.7041,0.0358,0.7996,0.0955
					C31.3929,25.1773,30.7484,25.2609,30.7484,25.2609z"/>
				<path id="_122437544" class="st1" d="M34.9885,25.4083c-1.0502,0.9547-2.6352,1.4513-3.9909,0.8593
					C30.9993,26.2633,34.9854,25.404,34.9885,25.4083z"/>
				<path id="_122436912" class="st1" d="M29.8517,26.4585c-0.4009,0.9165-1.5856,1.3205-2.3868,1.3748
					c-0.6872,0.0466-1.2221-0.2291-1.6421-0.6492C27.1784,26.974,28.496,26.6495,29.8517,26.4585L29.8517,26.4585z"/>
				<path id="_122436296" class="st1" d="M22.061,28.7499c-0.6874,0.0955-1.3939-0.1146-1.9286-0.4201l4.1246-0.8593
					C23.8559,28.2916,22.9012,28.5781,22.061,28.7499L22.061,28.7499z"/>
				<path id="_122435560" class="st1" d="M18.5993,31.3354c-0.3437-0.8592-0.682-1.669-1.0639-2.49l1.5651-0.3504
					C18.8618,29.1872,18.6948,30.3425,18.5993,31.3354z"/>
				<path id="_122434928" class="st1" d="M38.979,32.5116c-0.8792,1.2823-1.5084,2.5397-2.4823,3.7045
					c-0.1718-1.8523,0.1472-3.8782,0.7201-5.4536C37.2168,30.7625,38.3386,32.0037,38.979,32.5116L38.979,32.5116z"/>
				<path id="_122434072" class="st1" d="M22.6148,43.8158c0.5537,0.6492,1.1736,1.4088,1.8801,1.9243h-4.8692
					c-1.4202,0.0477-1.9095-1.3009-1.8227-3.4328c0.4384-0.0282,1.226,0.1031,1.2793-0.4965v-0.4201
					c0.2292,0.0383,0.5408-0.1041,0.5316-0.3527c-0.012-0.3222-0.1496-0.3537-0.3406-0.4301l-0.42-0.0382v-2.0622
					c0.1719,0.019,0.4503-0.107,0.4264-0.3695c-0.0172-0.1897-0.1019-0.318-0.331-0.3562
					c-0.4201,0.1337-0.5879-0.8134-1.1369-0.9089c0.0238,0.0239-3.7713,0-3.7713,0l4.488-3.502
					C18.9867,37.2472,20.4762,40.7034,22.6148,43.8158L22.6148,43.8158z"/>
				<path id="_122433464" class="st1" d="M17.7161,37.398c0.179,0.0716,0.2776,0.3265,0.2776,0.3265H5.4293l0.6866-0.3503
					L17.7161,37.398L17.7161,37.398z"/>
				<path id="_122432840" class="st6" d="M39.38,45.4771c-2.0814-1.6041-3.9335-3.4562-6.0914-4.8692
					c0.9166-0.9738,2.0902-2.1596,2.7347-3.0667C36.5573,39.7354,37.4515,43.2239,39.38,45.4771L39.38,45.4771z"/>
				<path id="_122432200" class="st1" d="M55.0465,37.8276c0.2626,0.0478,0.2586,0.2597,0.2967,0.3552H42.5115
					c0,0,0.039-0.3378,0.2189-0.379C43.553,37.7854,55.0465,37.8276,55.0465,37.8276z"/>
				<path id="_122431560" class="st1" d="M18.0319,38.4692c0.2292,0.0191,0.1497,0.3848,0.1337,0.401H5.983
					c0,0-0.1416-0.243-0.42-0.401C5.937,38.4841,18.0319,38.4692,18.0319,38.4692L18.0319,38.4692z"/>
				<path id="_122430936" class="st1" d="M55.1145,38.9275c-0.1337,0.1337-0.2101,0.3628-0.3819,0.401H42.5119
					c-0.0383-0.1528,0.0191-0.3436,0.1336-0.401H55.1145L55.1145,38.9275z"/>
				<path id="_122430312" class="st1" d="M29.2924,43.2459l-1.2411-0.907c-0.012-0.1552,0.0239-1.6828,0.0239-1.6589
					c0.4057-0.1671,0.8593-0.2744,1.2228-0.244L29.2924,43.2459L29.2924,43.2459z"/>
				<path id="_122429672" class="st1" d="M31.5893,40.5697c0.0184,0.0029,0.1342,0.9673,0.1497,0.9576
					c0,0-0.9296,0.7636-1.2532,1.0622v-2.196C30.8266,40.3512,31.3214,40.4532,31.5893,40.5697z"/>
				<path id="_122428936" class="st1" d="M31.9896,41.3125l-0.1194-0.6683c0,0,0.4655,0.0954,0.6087,0.2267L31.9896,41.3125
					L31.9896,41.3125z"/>
				<path id="_122428312" class="st1" d="M27.2874,41.778c0-0.0716,0.0802-0.6817,0.0716-0.6803
					c0.1551-0.1194,0.2021-0.1926,0.4177-0.2864l-0.0239,1.2889L27.2874,41.778z"/>
				<path id="_122427712" class="st1" d="M33.747,41.6772l-0.7257,0.0764l-0.1129-0.6798
					C33.2187,41.2051,33.4932,41.4438,33.747,41.6772L33.747,41.6772z"/>
				<path id="_122426856" class="st1" d="M32.105,41.9063c-0.0076-0.0035-0.0256-0.1117-0.0198-0.1165
					c0.1113-0.1466,0.4423-0.4066,0.549-0.537l0.101,0.5581L32.105,41.9063L32.105,41.9063z"/>
				<path id="_122426216" class="st1" d="M18.4203,41.3483c0.0955,0.0955,0.1074,0.3103-0.0256,0.3671H6.9951
					c-0.1273-0.009-0.1631-0.3432,0-0.3628C7.4407,41.3602,18.4203,41.3483,18.4203,41.3483L18.4203,41.3483z"/>
				<path id="_122425576" class="st1" d="M26.9175,42.0285c0.0208-0.0113,0.0128,0.0879,0.0128,0.1451
					c-0.0008-0.0018-0.5617-0.0377-0.5538-0.0381l0.0637-0.3099C26.4402,41.8256,26.7235,41.9575,26.9175,42.0285L26.9175,42.0285z"
					/>
				<path id="_122424912" class="st1" d="M54.307,41.7898c0.1432,0-0.0239,0.37-0.179,0.382
					c-0.1074,0.0119-11.2533,0.0018-11.2533,0.0018c-0.2871-0.0496-0.1678-0.3838-0.0008-0.3718
					C43.2798,41.7898,53.6387,41.7779,54.307,41.7898L54.307,41.7898z"/>
				<path id="_122424528" class="st1" d="M38.6545,45.7444h-3.6281L34.11,41.9063C35.6567,43.2047,37.146,44.465,38.6545,45.7444z"
					/>
				<path id="_122423712" class="st1" d="M34.0335,42.8611l-0.7448,0.0955l-0.2131-0.9399
					c-0.0173,0.0125,0.7153-0.1069,0.716-0.0955L34.0335,42.8611z"/>
				<path id="_122423072" class="st1" d="M32.3,44.8331c-0.3819-0.1551-1.3128-0.5132-1.8141-0.8712
					c0.0111,0.0008,0-0.7996,0-0.7996l1.3326-1.1223C32.0287,42.9374,32.1664,43.9166,32.3,44.8331z"/>
				<path id="_122422272" class="st1" d="M33.0215,42.9948c0.0184,0.0124-0.6977,0.1317-0.6875,0.1336
					c0.0017-0.0018-0.1893-0.9566-0.1909-0.9547c0.67-0.1212,0.67-0.1212,0.67-0.1212S33.0161,43.0072,33.0215,42.9948
					L33.0215,42.9948z"/>
				<path id="_122421656" class="st1" d="M25.4496,45.4895c-0.0954,0.0382-0.1838,0.1074-0.2984,0.1074
					c-0.1551-1.3247,0.2705-2.4112,0.9007-3.3278L25.4496,45.4895L25.4496,45.4895z"/>
				<path id="_122420920" class="st1" d="M15.9698,42.3074c-0.3421,4.4114,2.5337,4.9007,4.1094,4.9007
					c0.1194,0,22.9139,0,22.9139,0c0.9301,0.003,2.6494-1.5515,1.8856-4.2725c-0.0239,0,0.296,0,0.4297,0
					c0.8831,3.0075-1.1219,4.7261-2.0711,4.642h-23.334c-4.7172,0.0243-4.4109-4.22-4.3537-5.2702H15.9698L15.9698,42.3074z"/>
				<path id="_122420224" class="st1" d="M17.1536,42.3074c-0.0581,3.397,0.8848,4.0534,3.212,4.0056l21.726-0.0148
					c1.3789,0.0148,2.0472-1.8827,1.5459-3.3626h0.3819c0.716,1.8618-0.4058,3.7235-1.6946,3.7235H19.6972
					c-3.0074,0.0477-2.9-2.7449-2.9-4.3561L17.1536,42.3074L17.1536,42.3074z"/>
				<polygon id="_122419648" class="st1" points="26.7774,43.2239 26.1855,43.1857 26.3447,42.4224 26.8936,42.4582 				"/>
				<path id="_122419264" class="st1" d="M27.729,42.6491c0.0017,0.003-0.0159,0.4601-0.035,0.6702
					c-0.0126-0.0019-0.5855-0.0496-0.592-0.0382l0.09-0.8111c0,0,0.3461,0.0239,0.3341,0.0239
					C27.5262,42.494,27.7185,42.6315,27.729,42.6491L27.729,42.6491z"/>
				<path id="_122418880" class="st1" d="M27.9804,44.4268c-0.0127-0.1547,0.0232-1.6345,0.0232-1.6345l1.1695,0.8115
					C29.1731,43.6039,28.1706,44.4035,27.9804,44.4268L27.9804,44.4268z"/>
				<path id="_122418272" class="st1" d="M34.301,43.9113l-0.7829,0.0955l-0.144-0.7848c0.2292-0.0573,0.4989-0.0382,0.728-0.0955
					L34.301,43.9113L34.301,43.9113z"/>
				<path id="_122417664" class="st1" d="M33.2665,44.0574l-0.7607,0.1403l-0.1337-0.7829
					c-0.0126-0.0138,0.7075-0.1707,0.7154-0.157L33.2665,44.0574L33.2665,44.0574z"/>
				<path id="_122417040" class="st1" d="M26.7385,43.5084l-0.0947,0.7276l-0.6332-0.0473
					c-0.0174,0.0149,0.1432-0.7399,0.1368-0.7356C26.1418,43.4488,26.7259,43.4947,26.7385,43.5084L26.7385,43.5084z"/>
				<path id="_122416264" class="st1" d="M27.694,43.5866c-0.0246,0.0053-0.0191,0.4965-0.0382,0.7447
					c0.0017,0.0005-0.7025-0.0592-0.6873-0.0573l0.0955-0.7256C27.2739,43.5676,27.6814,43.58,27.694,43.5866z"/>
				<path id="_122415648" class="st1" d="M27.9558,45.7402c0.0016-0.0042,0.0052-0.7684,0.0239-0.7877
					c0.399-0.2313,0.8419-0.546,1.3127-0.9189l0.0056,1.7109L27.9558,45.7402z"/>
				<path id="_122415040" class="st1" d="M33.768,45.1791l-0.179-0.9308c-0.0127-0.0018,0.7177-0.1045,0.7399-0.1074l0.2029,0.919
					L33.768,45.1791L33.768,45.1791z"/>
				<path id="_122414656" class="st7" d="M8.1408,44.8852c-0.1035,0.2105-0.9156,0.6192-1.2849,0.5208
					c0.0119,0.2745,0.1909,0.4631,0.2864,0.5967c1.1457,0.9739,2.9461,1.4984,3.2326,3.1788
					c0.2673,0.8784-0.9575,3.5685-0.9306,3.5728c-0.2895-0.0281-0.8115-0.1433-0.8354-0.1671
					c0.549-1.1218,1.4031-3.0237,0.8112-3.9021c-0.9738-1.4704-3.7235-1.7758-3.3034-3.9908
					c0.5919,0.1719,1.219-0.0257,1.6581-0.5413L8.1408,44.8852z"/>
				<path id="_122414016" class="st1" d="M33.4935,45.2389c-0.0103-0.0066-0.8712-0.2745-0.8712-0.2864
					c0.0128-0.0155-0.0716-0.5012-0.0597-0.5012c-0.0008,0.0101,0.7416-0.1331,0.7519-0.1313L33.4935,45.2389L33.4935,45.2389z"/>
				<path id="_122413632" class="st1" d="M26.6055,44.5033l-0.058,0.5686l-0.728,0.2745l0.1551-0.8832
					C25.9812,44.4614,26.5834,44.487,26.6055,44.5033L26.6055,44.5033z"/>
				<path id="_122413032" class="st1" d="M32.3835,45.7402H30.486v-1.3486c0.2148,0.1909,1.8379,0.8473,1.8379,0.8473
					L32.3835,45.7402L32.3835,45.7402z"/>
				<path id="_122412144" class="st1" d="M27.6336,44.6422c-0.1552,0.0835-0.4893,0.2506-0.7639,0.3341l0.0477-0.4296
					c0.0149,0,0.5238,0.0324,0.7162,0.0596C27.6235,44.6186,27.6336,44.6183,27.6336,44.6422L27.6336,44.6422z"/>
				<path id="_122411760" class="st1" d="M34.6865,45.6446c-0.1719-0.0572-0.7638-0.2745-0.7399-0.2625
					c0.0041,0.0149,0.6435-0.1012,0.6325-0.0836C34.5902,45.2809,34.6738,45.6572,34.6865,45.6446z"/>
				<path id="_122411160" class="st7" d="M9.0518,46.4562c-0.4177,0.0119-1.0789-0.389-1.2889-0.7518
					c0.2029,0.0358,0.6564-0.2983,0.6564-0.2983L9.0518,46.4562L9.0518,46.4562z"/>
				<path id="_122410640" class="st1" d="M27.5978,45.1077l-0.0375,0.6368l-0.774-0.0043c-0.0119,0,0.0239-0.3341,0.0477-0.3341
					C26.8818,45.3463,27.3591,45.2389,27.5978,45.1077L27.5978,45.1077z"/>
				<path id="_122410040" class="st1" d="M33.768,45.7402h-1.0622l-0.0596-0.3938C32.6462,45.3344,33.3146,45.5969,33.768,45.7402z"
					/>
				<polygon id="_122409656" class="st1" points="25.7957,45.7402 26.4759,45.5134 26.4521,45.7402 				"/>
				<path id="_122409272" class="st7" d="M52.1215,52.607l-1.098,0.1776c-0.2291-1.2602-2.134-1.7126-2.0576-3.0874l0.6492-0.7829
					C49.4241,50.7283,52.1406,50.9076,52.1215,52.607L52.1215,52.607z"/>
				<path id="_122408888" class="st7" d="M27.5261,49.9053c0,0-1.3281-0.0056-1.3247,0c-0.0119-0.0955-0.0585-0.1499-0.0542-0.3037
					l0.2213-0.5914c-0.0103,0.0221,0.6397,0.0069,0.6325,0C26.9652,49.3563,27.1084,49.7263,27.5261,49.9053L27.5261,49.9053z"/>
				<path id="_122408256" class="st7" d="M30.6769,49.0102c0.0119,0.2626,0.0119,0.5132,0.4535,0.8951h-1.6708
					c-0.191-0.2506,0.2267-0.3938,0.1432-0.8951C29.5974,48.994,30.6649,49.0102,30.6769,49.0102L30.6769,49.0102z"/>
				<path id="_122407624" class="st7" d="M17.8116,54.0345c-2.9836-0.1193-5.654-0.7337-7.7544-1.1633
					c0.4058-0.74,0.9478-2.6013,1.0625-3.3651C12.7753,52.3399,15.5918,53.5572,17.8116,54.0345L17.8116,54.0345z"/>
				<path id="_122407240" class="st7" d="M50.594,52.857c-1.8141,0.4201-5.0717,0.9951-6.3846,1.0668
					c1.8379-0.6922,3.3427-2.5005,4.3929-3.7798C48.8888,51.4567,50.4413,51.8832,50.594,52.857L50.594,52.857z"/>
				<polygon id="_122406648" class="st7" points="28.5883,51.8025 26.4521,51.8025 25.9389,50.323 28.1229,50.323 				"/>
				<polygon id="_122406056" class="st7" points="32.2165,51.8025 29.7818,51.8025 29.2447,50.323 31.7509,50.323 				"/>
				<path id="_122405536" class="st7" d="M46.3115,51.931c-1.1074,1.2221-2.8411,2.0078-4.1061,2.0794
					c0,0-3.3178-0.2148-4.5351-0.6205c-0.0716-0.2148-0.4296-1.2412-0.4296-1.2412h8.1153
					C45.6902,52.1487,46.0061,52.0264,46.3115,51.931L46.3115,51.931z"/>
				<polygon id="_122404944" class="st7" points="32.5145,52.9125 30.1875,52.889 29.925,52.149 32.3,52.149 				"/>
				<polygon id="_122404352" class="st7" points="36.3815,53.199 33.78,52.9605 33.517,52.149 36.0355,52.149 				"/>
				<path id="_122403736" class="st7" d="M28.7077,52.149c0.0477,0.1552,0.2213,0.731,0.2745,0.8593
					c-0.4392-0.0381-2.1244,0.1791-2.1244,0.1671l-0.2983-1.0264H28.7077L28.7077,52.149z"/>
				<path id="_122403352" class="st2" d="M29.703,22.8859c-0.4654-0.1551-1.5124-0.3308-1.9811-0.3938
					c-0.7996-0.1074-2.8165-0.2148-4.0498,0.5317c-0.3062,0.3037,0.4099,0.8049,0.3246,1.1839
					c-0.2251,0.6712-0.5003,0.8341-1.2514,0.9815c-2.2533,0.191-3.7323-1.478-5.7564-1.8599
					c-0.4972-0.0615-0.9149-0.0019-0.8784,0.3819c0.3096,0.6307,0.4269,1.3338,0.1337,2.1005
					c-0.8027,2.0986-5.8151,0.5471-9.1328,0.3801c-1.4609-0.0736-3.107,0.5938-3.6416,0.8994
					c1.9858-1.7568,3.9552-1.84,7.3891-1.3767c3.0074,0.4058,4.3918,0.1909,4.4689-0.7237
					c-0.0532-0.9471-0.7215-1.0664-0.4948-1.7705c0.2216-0.6881,0.8463-0.8854,1.5515-1.0145
					c1.6796-0.3073,5.6688,2.6972,6.333,1.8684c0.2291-0.4582-0.8154-0.7508-0.4016-1.3671
					c0.8018-0.9929,1.9455-1.1745,3.3296-1.3009c1.2237-0.1116,2.8237,0.2196,4.0457,0.6206
					C29.7255,21.9577,29.703,22.9725,29.703,22.8859L29.703,22.8859z"/>
				<path id="_122402424" class="st7" d="M29.323,21.3344c0-0.3508,0.4138-0.6353,0.9242-0.6353
					c0.5105,0,0.9243,0.2844,0.9243,0.6353c0,0.351-0.4139,0.6354-0.9243,0.6354C29.7368,21.9698,29.323,21.6853,29.323,21.3344z"/>
				<path id="_122401784" class="st1" d="M28.4666,25.2966c0.2291-0.0954,0.8258-0.2506,1.2435-0.2387c0,0,0,0.3223-0.0023,0.3341
					c-0.0096-0.0239-3.3225,0.5729-4.9456,0.9739l3.3607-1.8331L28.4666,25.2966L28.4666,25.2966z"/>
				<path id="_122401400" class="st7" d="M12.0235,29.2707c0-0.3229,0.3687-0.5848,0.8235-0.5848
					c0.4548,0,0.8235,0.2619,0.8235,0.5848c0,0.323-0.3686,0.5848-0.8235,0.5848C12.3922,29.8555,12.0235,29.5937,12.0235,29.2707z"
					/>
				<polygon id="_122400808" class="st7" points="12.465,29.772 13.2169,29.772 13.2169,36.8729 12.465,36.8729 				"/>
				<path id="_122400096" class="st2" d="M12.465,32.9823c-1.0741-0.7041-1.5413,0.1316-2.453-0.1652
					c-1.0318-0.336-1.6039-0.1527-2.2532,0.1909c0.2865-0.6874,0.0757-2.5319-0.1392-2.8183
					c0.3103-0.1909,0.9143-0.4862,2.2588,0.0687c0.7009,0.2893,1.4211-0.8201,2.5866-0.0449
					C12.465,30.2136,12.465,32.9704,12.465,32.9823L12.465,32.9823z"/>
				<polygon id="_122399368" class="st7" points="10.7107,36.8729 12.465,32.9465 12.465,33.7223 11.0687,36.8729 				"/>
				<polygon id="_122398776" class="st7" points="14.9713,36.8729 13.2169,32.9465 13.2169,33.7223 14.6132,36.8729 				"/>
				<path id="_122398392" class="st1" d="M42.1455,37.3265c-0.4178,0.0716-0.5508,0.4936-0.4742,0.8564
					c-0.3016,0.003-0.6053,0.1563-0.5642,0.4207c-0.019,0.3246,0.2865,0.4057,0.5642,0.4004v1.986
					c-0.2483,0-0.5157-0.0573-0.6875,0.1719c-0.0763,0.1146-0.0007,0.244-0.0198,0.3776c0.1528,0.2483,0.459,0.1952,0.7073,0.2143
					c-0.0765,0.4583,0.3054,0.8211,0.6492,1.012c0.3055,0.0764,0.6492,0.3247,0.7255,0.6492
					c0.1146,0.382,0.1568,0.8193,0.0422,1.2393c-0.4773,1.1267-1.086,1.1696-2.6964,1.0903
					c-1.5045-1.4484-1.8768-2.6088-2.6542-4.4873c-0.6638-1.6038-0.8273-2.4813-1.1894-4.2888
					c0.993-1.3557,2.172-3.079,2.7926-4.2009c2.363,1.8618,5.2607,3.3368,7.8766,4.5589H42.1455L42.1455,37.3265z"/>
				<path id="_122398008" class="st7" d="M47.743,29.76c0-0.323,0.3687-0.5848,0.8234-0.5848c0.4548,0,0.8235,0.2617,0.8235,0.5848
					c0,0.323-0.3687,0.5848-0.8235,0.5848C48.1117,30.3448,47.743,30.083,47.743,29.76z"/>
				<polygon id="_122397416" class="st7" points="48.1845,30.2613 48.9365,30.2613 48.9365,37.3622 48.1845,37.3622 				"/>
				<path id="_122397032" class="st2" d="M48.1845,33.4716c-1.0741-0.7042-1.5413,0.1316-2.453-0.1653
					c-1.0319-0.336-1.604-0.1527-2.2532,0.191c0.2865-0.6874,0.0756-2.532-0.1392-2.8183c0.3103-0.191,0.9142-0.4863,2.2588,0.0687
					c0.7009,0.2893,1.4211-0.82,2.5866-0.0448C48.1845,30.7029,48.1845,33.4597,48.1845,33.4716z"/>
				<polygon id="_122366216" class="st7" points="46.43,37.3622 48.1845,33.4358 48.1845,34.2116 46.788,37.3622 				"/>
				<polygon id="_122365432" class="st7" points="50.6905,37.3622 48.9365,33.4358 48.9365,34.2116 50.3325,37.3622 				"/>
				<path id="_122365048" class="st1" d="M8.6341,40.2862L8.121,39.4507c0.1593-0.083,0.3819-0.1074,0.5163-0.1222L8.6341,40.2862
					L8.6341,40.2862z"/>
				<path id="_122364216" class="st1" d="M8.4551,40.3935l-0.9635-0.4158c0.0684-0.169,0.2368-0.2907,0.3549-0.3719
					C7.8238,39.6154,8.4568,40.3989,8.4551,40.3935L8.4551,40.3935z"/>
				<polygon id="_122363504" class="st1" points="7.3007,40.5697 7.3579,40.245 8.3358,40.5697 				"/>
				<path id="_122363120" class="st1" d="M8.8966,40.2981l0.5132-0.8354c-0.1591-0.083-0.3819-0.1074-0.5163-0.1223L8.8966,40.2981
					L8.8966,40.2981z"/>
				<path id="_122362288" class="st1" d="M9.0757,40.4055l0.9636-0.4158c-0.0685-0.169-0.2368-0.2908-0.355-0.3719
					C9.707,39.6273,9.074,40.4109,9.0757,40.4055L9.0757,40.4055z"/>
				<polygon id="_122361712" class="st1" points="10.2303,40.5816 10.173,40.257 9.195,40.5816 				"/>
				<path id="_122361328" class="st1" d="M12.5367,40.2743l-0.5132-0.8354c0.1593-0.083,0.3819-0.1075,0.5163-0.1223
					L12.5367,40.2743z"/>
				<path id="_122360496" class="st1" d="M12.3576,40.3816l-0.9635-0.4158c0.0684-0.169,0.2367-0.2907,0.3549-0.3718
					C11.7263,39.6035,12.3593,40.387,12.3576,40.3816L12.3576,40.3816z"/>
				<polygon id="_122359920" class="st1" points="11.2032,40.5578 11.2604,40.2331 12.2383,40.5578 				"/>
				<path id="_122359536" class="st1" d="M12.7992,40.2862l0.5132-0.8355c-0.1591-0.083-0.3819-0.1074-0.5163-0.1222
					L12.7992,40.2862L12.7992,40.2862z"/>
				<path id="_122358704" class="st1" d="M12.9782,40.3935l0.9636-0.4158c-0.0686-0.169-0.2368-0.2907-0.355-0.3719
					C13.6095,39.6154,12.9766,40.3989,12.9782,40.3935L12.9782,40.3935z"/>
				<polygon id="_122358128" class="st1" points="14.1327,40.5697 14.0755,40.245 13.0976,40.5697 				"/>
				<path id="_122357744" class="st1" d="M16.4392,40.2622l-0.5132-0.8354c0.1592-0.083,0.3819-0.1074,0.5163-0.1222
					L16.4392,40.2622z"/>
				<path id="_122356912" class="st1" d="M16.2601,40.3697l-0.9635-0.4159c0.0684-0.169,0.2367-0.2907,0.3549-0.3719
					C15.6288,39.5915,16.2618,40.375,16.2601,40.3697L16.2601,40.3697z"/>
				<polygon id="_122356336" class="st1" points="15.1057,40.5458 15.1629,40.2212 16.1408,40.5458 				"/>
				<path id="_122355952" class="st1" d="M16.7017,40.2743l0.5132-0.8354c-0.1592-0.083-0.3819-0.1075-0.5163-0.1223
					L16.7017,40.2743z"/>
				<path id="_122355120" class="st1" d="M16.8808,40.3816l0.9636-0.4158c-0.0686-0.169-0.2368-0.2907-0.355-0.3718
					C17.5121,39.6035,16.8791,40.387,16.8808,40.3816L16.8808,40.3816z"/>
				<polygon id="_122354544" class="st1" points="18.0353,40.5578 17.9781,40.2331 17,40.5578 				"/>
				<path id="_122354160" class="st1" d="M44.485,40.6919l-0.5132-0.8354c0.1592-0.083,0.3819-0.1075,0.5164-0.1223L44.485,40.6919
					L44.485,40.6919z"/>
				<path id="_122353328" class="st1" d="M44.306,40.7993l-0.9635-0.4158c0.0684-0.169,0.2367-0.2907,0.3549-0.3718
					C43.6748,40.0212,44.3077,40.8047,44.306,40.7993z"/>
				<polygon id="_122352752" class="st1" points="43.1515,40.9754 43.2085,40.6507 44.1865,40.9754 				"/>
				<path id="_122352368" class="st1" d="M44.7475,40.7038l0.5132-0.8355c-0.1592-0.083-0.382-0.1074-0.5163-0.1222L44.7475,40.7038
					L44.7475,40.7038z"/>
				<path id="_122351536" class="st1" d="M44.9265,40.8113l0.9635-0.4159c-0.0685-0.169-0.2368-0.2907-0.3549-0.3719
					C45.5578,40.0331,44.9248,40.8167,44.9265,40.8113L44.9265,40.8113z"/>
				<polygon id="_122350960" class="st1" points="46.081,40.9874 46.0235,40.6628 45.046,40.9874 				"/>
				<path id="_122350576" class="st1" d="M48.3875,40.68l-0.5132-0.8354c0.1593-0.083,0.382-0.1074,0.5164-0.1222L48.3875,40.68
					L48.3875,40.68z"/>
				<path id="_122349744" class="st1" d="M48.2085,40.7874l-0.9635-0.4159c0.0684-0.169,0.2367-0.2907,0.3549-0.3719
					C47.5773,40.0092,48.2102,40.7927,48.2085,40.7874z"/>
				<polygon id="_122349168" class="st1" points="47.054,40.9635 47.111,40.6389 48.089,40.9635 				"/>
				<path id="_122348784" class="st1" d="M48.65,40.6919l0.5131-0.8354c-0.1592-0.083-0.3819-0.1075-0.5163-0.1223L48.65,40.6919
					L48.65,40.6919z"/>
				<path id="_122348168" class="st1" d="M48.829,40.7993l0.9635-0.4158c-0.0685-0.169-0.2368-0.2907-0.3549-0.3718
					C49.4603,40.0212,48.8273,40.8047,48.829,40.7993L48.829,40.7993z"/>
				<polygon id="_122347592" class="st1" points="49.9835,40.9754 49.926,40.6507 48.9485,40.9754 				"/>
				<path id="_122347208" class="st1" d="M52.29,40.6681l-0.5132-0.8354c0.1593-0.083,0.382-0.1075,0.5163-0.1222L52.29,40.6681z"/>
				<path id="_122346592" class="st1" d="M52.111,40.7754l-0.9635-0.4158c0.0684-0.169,0.2367-0.2907,0.3548-0.3719
					C51.4797,39.9973,52.1127,40.7809,52.111,40.7754L52.111,40.7754z"/>
				<polygon id="_122346208" class="st1" points="50.9565,40.9516 51.0135,40.6269 51.9915,40.9516 				"/>
				<path id="_122345824" class="st1" d="M52.5525,40.68l0.5131-0.8354c-0.1591-0.083-0.3818-0.1074-0.5163-0.1222L52.5525,40.68z"
					/>
				<path id="_122309600" class="st1" d="M52.7315,40.7874l0.9636-0.4159c-0.0685-0.169-0.2368-0.2907-0.3549-0.3719
					C53.3628,40.0092,52.7299,40.7927,52.7315,40.7874z"/>
				<polygon id="_122309216" class="st1" points="53.886,40.9635 53.8285,40.6389 52.851,40.9635 				"/>
				<path id="_122307320" class="st8" d="M37.77,55.645c7.7576,1.8979,8.1978-0.9429,18.859-0.561
					c5.722,0.2051,5.2817,1.2413,12.1773,1.2413c2.9297,0,6.2581-0.6999,9.1911-1.1649c0,0-0.0243-2.5114-0.0497-2.5281
					c-2.9217,0.5775-5.6822,1.2869-9.3369,1.3536c-5.0122,0.0913-8.3628-1.6711-12.7398-1.6711
					c-5.7219,0-8.666,1.7904-13.9868,1.6949c0,0-3.79-0.382-5.0372-0.7162l-3.9613-0.3581
					c-1.1109-0.0328-2.4452-0.0477-3.6556,0.012c-1.0538,0.0407-2.4232,0.1887-3.3866,0.3581
					c-3.7902,0.6804-5.1266,0.8008-8.534,0.7281c-4.4748-0.0955-8.2151-1.7427-12.6174-1.7427
					c-4.6949,0-7.0674,1.7188-10.2701,1.7188c-3.4233,0-8.485-2.6976-12.4218-1.1697v2.7214
					c5.0372-1.48,7.3907,0.7639,12.6175,0.7639c4.3036,0,5.6726-1.3267,10.2455-1.2891c5.7953,0.0478,9.5703,1.2891,12.6664,1.2891
					c3.3256,0,5.3306-0.358,8.9618-0.931c0.6969-0.1194,1.9073-0.2148,3.515-0.2805c1.2532-0.0298,2.1091-0.0179,3.619,0.0537
					C34.8053,55.2631,36.2847,55.3705,37.77,55.645L37.77,55.645z"/>
				<path id="_122306936" class="st8" d="M-18,57.4715c3.9124-1.2384,7.8451,0.585,11.6394,0.8594
					c2.6409,0.191,6.5505-1.2489,10.7346-1.3368c4.5482-0.0955,8.3628,1.1458,12.9753,1.3149
					c2.9448,0.1079,8.2204-1.1218,13.5068-1.2432c4.157-0.0955,5.5025,0.402,9.7328,1.1096
					c0.5474,0.0916,1.1367,0.1289,1.7605,0.1263c4.4497-0.0184,8.1519-1.3032,12.4945-1.2836
					c5.3062,0.0239,8.0605,1.3129,13.0821,1.3129c6.0006,0,7.2583-0.584,9.9732-1.0248c0.0739-0.0255,0.0527,2.649,0.0527,2.649
					L-18,59.9952L-18,57.4715L-18,57.4715z"/>
				<path id="_122306552" class="st7" d="M34.3405,49.0173c0.0119,0.2626,0.0119,0.5131,0.4535,0.8951h-1.6708
					c-0.1909-0.2507,0.2268-0.3938,0.1433-0.8951C33.261,49.0012,34.3286,49.0173,34.3405,49.0173L34.3405,49.0173z"/>
				<polygon id="_122305960" class="st7" points="35.928,51.8025 33.41,51.8025 32.8725,50.323 35.415,50.323 				"/>
				<polygon id="_122305368" class="st1" points="8.1448,42.303 17.1672,42.303 17.1672,42.4701 8.1448,42.4701 				"/>
				<polygon id="_122304776" class="st1" points="43.757,42.9356 54.4025,42.9356 54.4025,43.1027 43.757,43.1027 				"/>
				<polygon id="_122576816" class="st1" points="27.0368,41.6586 27.0965,41.2051 26.7146,41.4676 				"/>
				<polygon id="_122576224" class="st7" points="29.7101,21.7164 30.7484,21.7164 30.7484,23.1604 29.7101,23.1604 				"/>
				<polygon id="_122575632" class="st1" points="25.772,52.2225 26.2493,52.2225 27.741,57.3045 27.1682,57.3285 				"/>
				<polygon id="_122575040" class="st1" points="29.1784,52.188 29.6358,52.191 31.3213,57.066 30.7245,57.066 				"/>
				<polygon id="_122574448" class="st1" points="32.74,52.2575 33.1455,52.2575 34.7585,57.197 34.233,57.173 				"/>
				<polygon id="_122574080" class="st1" points="36.524,52.2445 36.894,52.2445 38.971,57.8655 38.458,57.77 				"/>
				<path id="_122818496" class="st7" d="M25.8609,48.9524c0.0781,0.3562-0.089,0.4874-0.1606,0.6545
					c0.8211,2.2724,1.7496,5.3776,2.5897,7.6499l-0.549,0.0477l-2.4346-7.8409c0.191-0.0716,0.4655-0.5131-0.0756-0.6831
					c-0.2673-0.0573-0.5808-0.033-0.6492,0.2673c-0.0383,0.2673,0.229,0.3246,0.3627,0.4583
					c0.7829,2.4823,1.5913,5.3066,2.2596,7.8461l-0.4177,0.0836l-2.1092-7.6624c-0.3055-0.2101-0.638-0.6272-0.4089-0.9901
					C24.631,48.2297,25.6883,48.318,25.8609,48.9524L25.8609,48.9524z"/>
				<path id="_122818232" class="st7" d="M29.1548,48.9845c0.078,0.3562-0.0891,0.4874-0.1607,0.6545
					c0.8211,2.2723,1.9405,5.1545,2.7807,7.4269h-0.4773l-2.6972-7.5701c0.191-0.0716,0.4655-0.5132-0.0756-0.6832
					c-0.2673-0.0573-0.5808-0.0329-0.6492,0.2673c-0.0382,0.2673,0.2291,0.3246,0.3627,0.4582
					c0.783,2.4824,1.8419,4.988,2.5103,7.5276l-0.4296,0.0477l-2.3479-7.308c-0.3055-0.21-0.638-0.6272-0.4089-0.9899
					C27.9249,48.2618,28.9822,48.3502,29.1548,48.9845L29.1548,48.9845z"/>
				<path id="_122817496" class="st7" d="M32.8065,49.0165c0.078,0.3562-0.0891,0.4875-0.1607,0.6546
					c0.8212,2.2723,1.8451,5.361,2.6852,7.6333l-0.5609-0.0835l-2.5182-7.693c0.1909-0.0715,0.4655-0.5131-0.0756-0.6832
					c-0.2673-0.0573-0.5808-0.0329-0.6492,0.2672c-0.0383,0.2673,0.2291,0.3247,0.3628,0.4583
					c0.7829,2.4823,1.6867,5.0514,2.3551,7.591l-0.4654-0.0358l-2.1569-7.2878c-0.3056-0.2101-0.6381-0.6272-0.409-0.99
					C31.5766,48.2939,32.6339,48.3823,32.8065,49.0165L32.8065,49.0165z"/>
				<path id="_122816760" class="st7" d="M36.4585,49.0487c0.0781,0.3562-0.0891,0.4875-0.1606,0.6546
					c0.8211,2.2723,2.382,5.9973,3.2222,8.2696l-0.549-0.0955l-3.0671-8.3173c0.1909-0.0716,0.4654-0.5132-0.0756-0.6832
					c-0.2673-0.0574-0.5807-0.0329-0.6492,0.2673c-0.0382,0.2673,0.2291,0.3246,0.3628,0.4583
					c0.7829,2.4824,2.2357,5.6518,2.904,8.1914l-0.537-0.1074l-2.6343-7.8167c-0.3055-0.21-0.638-0.6272-0.409-0.9899
					C35.2287,48.326,36.286,48.4143,36.4585,49.0487L36.4585,49.0487z"/>
				<path id="_122816480" class="st6" d="M36.2295,31.6715c-0.4942,1.9685-0.4965,3.4562-0.3246,5.1939
					c-0.802,1.2603-2.0009,2.3755-3.0321,3.5402c-2.0288-0.8832-4.5677-0.7524-6.1717,0.4315
					c-1.4321,1.0121-2.1005,2.5778-2.1577,4.1245c-2.3638-2.4317-3.0321-3.7684-3.9527-6.1295
					c-1.0702-2.7448-1.6858-4.6944-1.4185-7.425c0.0764-0.8783,0.2538-1.7405,0.4638-2.5616
					c0.8211,0.6492,2.0241,0.6683,3.0742,0.4965c0.9357-0.2864,2.0432-0.7829,2.3869-1.8331
					c0.8402,1.0883,2.1856,1.1247,3.4077,0.8192c0.802-0.2099,1.4998-0.8765,2.0343-1.5066
					c1.2794,0.6683,3.2462,0.3819,4.4492-0.4583c0.3055-0.2291,0.5919-0.5347,0.7255-0.8784
					c0.7066,0.802,2.1833,0.4922,2.807,0.3247c0.6175-0.1661,1.4702-0.7257,1.4702-0.7257
					C38.1772,26.9551,36.8111,29.3543,36.2295,31.6715L36.2295,31.6715z"/>
			</g>
		</g>
	</g>
</g>
</svg>
