<?xml version="1.0" encoding="utf-8"?>
<!-- Generator: Adobe Illustrator 22.0.0, SVG Export Plug-In . SVG Version: 6.00 Build 0)  -->
<svg version="1.1" id="Layer_1" xmlns="http://www.w3.org/2000/svg" xmlns:xlink="http://www.w3.org/1999/xlink" x="0px" y="0px"
	 viewBox="0 0 60 60" style="enable-background:new 0 0 60 60;" xml:space="preserve">
<style type="text/css">
	.st0{clip-path:url(#SVGID_2_);fill:#007934;}
	.st1{clip-path:url(#SVGID_2_);fill:#FFFFFF;}
	.st2{fill:#007934;}
</style>
<g>
	<defs>
		<circle id="SVGID_1_" cx="30" cy="30" r="30"/>
	</defs>
	<clipPath id="SVGID_2_">
		<use xlink:href="#SVGID_1_"  style="overflow:visible;"/>
	</clipPath>
	<rect x="40" class="st0" width="20" height="60"/>
	<rect x="20" class="st1" width="20" height="60"/>
	<rect class="st0" width="20" height="60"/>
</g>
<path class="st2" d="M30.2391,15.6443c-0.0579,0.6265-0.1159,1.2534-0.1738,1.88c-0.2122,0.032-0.4243,0.0638-0.6365,0.0958
	c0,0,0.4421,0.2482,0.5192,0.4976c0.0124,0.0399,0.0074,0.073-0.0105,0.0978c-0.0059,0.0078-0.0149,0.0164-0.023,0.0229
	c-0.1281,0.0984-0.5067,0.052-0.5067,0.052c0,0,0.5016,0.4232,0.5402,0.5767c0.0009,0.0036,0.002,0.0069,0.0021,0.0104
	c0,0.0029,0.0006,0.0076,0,0.0104c-0.0006,0.0022-0.0033,0.0062-0.0042,0.0083c-0.0034,0.0075-0.0096,0.016-0.0167,0.0229
	c-0.1179,0.1089-0.6742,0.1395-0.6742,0.1395s0.6167,0.4398,0.6553,0.6891c0.035,0.226,0.0056,0.3583,0,0.381
	c-0.0431-0.0368-1.0377-0.8726-1.6792-0.6287c-0.032,0.0166-0.0509,0.0324-0.0586,0.0479c-0.0034,0.0077-0.0041,0.0173-0.0021,0.025
	c0.0449,0.139,0.9521,0.2814,1.585,0.8286c-0.0157,0.1369-1.8036-0.4356-1.8697-0.077c0.0559,0.1011,1.9241,0.3704,2.0623,0.6142
	c-0.688,0.0256-2.1094-0.1514-2.0623,0.075c-0.1438,0.2613,1.3425,0.1137,1.966,0.3269c0.1828,0.2065,0.1651,0.38-0.1528,0.4018
	c-0.601-0.2857-1.946-0.4981-1.9493-0.1332c0,0.0004-0.0001,0.0017,0,0.0021c0.0001,0.0004,0.0019,0.0017,0.0021,0.0021
	c0.0006,0.0012,0.0012,0.0031,0.0021,0.0042c0.0021,0.0021,0.0069,0.0043,0.0105,0.0062c0.1519,0.0758,1.4044,0.0388,1.876,0.3498
	c-0.6686,0.1512-2.9357-0.3068-2.9501-0.0833c0.0646,0.1044,0.4233,0.5626,1.0406,0.5434c0.6173-0.0192,2.0454,0.2496,2.1419,0.4414
	c0.003,0.006,0.003,0.0121,0.0021,0.0167c-0.0418,0.1338-1.8807-0.408-2.5879-0.075c-0.733,0.3453,2.1018,0.136,2.5648,0.5579
	c0.463,0.422-0.9254-0.0396-0.9254-0.0396c0,0-1.928-0.2675-2.2173-0.1332c-0.2894,0.1343-0.6177,0.4414-0.6177,0.4414
	s0.1924,0.3827,0.3853,0.306c0.0294-0.0117,0.0495-0.0141,0.0607-0.0104c0.0003,0.0001,0.0018-0.0001,0.0021,0
	c0.0003,0.0001,0.0018,0.0019,0.0021,0.0021c0.0004,0.0003,0.0017,0.0017,0.0021,0.0021c0.0003,0.0004,0.0018,0.0017,0.0021,0.0021
	c0.0001,0.0001,0.002,0.0019,0.0021,0.0021c0.0009,0.0019,0.0018,0.006,0.0021,0.0083c0.0045,0.0575-0.1319,0.2248-0.1319,0.2248
	s2.7017,0.6508,3.2997,1.2262c0.598,0.5755-3.4337-0.9015-3.4337-0.9015c0,0-1.6204,0.5945,0.0963,0.6329
	c-0.1913,0.2784,0.0793,0.4497,0.0963,0.4601c0,0,2.8555,0.5952,3.1448,1.0555c0.2894,0.4603-1.9481-0.4419-2.4497-0.6912
	c-0.4839-0.2406-1.8307,0.1272-1.9074,0.2394c-0.0006,0.0009-0.0017,0.0033-0.0021,0.0042c-0.0001,0.0004,0.0001,0.0017,0,0.0021
	c-0.0001,0.0009-0.0001,0.0034,0,0.0042c0.0001,0.0004-0.0001,0.0017,0,0.0021c0.0001,0.0004-0.0001,0.0017,0,0.0021
	c0.0001,0.0004,0.0019,0.0017,0.0021,0.0021c0.0001,0.0004-0.0001,0.0017,0,0.0021c0.0009,0.0015,0.003,0.0047,0.0042,0.0062
	c0.0003,0.0004,0.0017,0.0017,0.0021,0.0021c0.0863,0.0945,0.6875,0.2247,0.7056,0.3872c0.0001,0.0007,0,0.0014,0,0.0021
	c0.0003,0.0087-0.0024,0.0189-0.0063,0.0271c-0.0757,0.146-0.793,0.2081-0.8229,0.3456c-0.0004,0.0024-0.0021,0.0059-0.0021,0.0083
	c0,0.1535,3.6083,0.9015,4.5727,1.7071s-2.8349-0.9598-2.8349-0.9598s0.2122,0.2876,0,0.3643
	c-0.2122,0.0767-0.966-1.074-2.2005-0.3643c-0.2249,0.292,1.0779,0.5238,1.4091,0.5559c-0.1131,0.2891-0.2117,0.3848,0.2512,0.6725
	c0.0506,0.0315,0.0791,0.0505,0.09,0.0604c0.0003,0.0003,0.0018,0.0018,0.0021,0.0021l0.0021,0.0021
	c0.0001,0.0001-0.0001,0.0019,0,0.0021c0,0.0001,0.0001,0.002,0,0.0021c-0.0001,0-0.0018,0-0.0021,0c-0.0003,0-0.0018,0-0.0021,0
	c-0.0717-0.0112-0.9034-0.4362-0.9904-0.4539c-0.0009-0.0001-0.0035,0.0001-0.0042,0c-0.0003,0-0.0019,0-0.0021,0
	c0,0.0384,0.0963,0.4996,0.0963,0.4996c-0.4274-0.3452-0.944-0.4493-1.4279-0.0958c-0.0007,0.0205-0.0043,0.3515,0.4816,0.5559
	c-0.2738,0.5563,0.3094,0.3836,1.2353,0.9015c-1.3761-0.3576-1.4863,0.3067-0.5025,0.4601
	c0.9838,0.1534,3.6849,0.2496,4.3215,1.0742c0.1343,0.174,0.1707,0.2614,0.1445,0.2894c-0.1062,0.0957-1.0829-0.6068-1.2248-0.6329
	c-0.0003,0.0001-0.0018-0.0003-0.0021,0c-0.0003,0.0003-0.0018,0.0018-0.0021,0.0021c-0.0018,0.0022-0.0045,0.0067-0.0063,0.0104
	c-0.0347,0.0763-0.067,0.408-0.067,0.408c-0.4115-0.2368-0.7891-0.4493-1.2813-0.5496c-0.0386,0.0767-0.0305,0.1856-0.0691,0.2623
	c-0.4467-0.3203-0.8358-0.5455-1.4845-0.5767c-0.0257,0.1023-0.0517,0.2058-0.0775,0.3081c0,0-0.5408-0.6713-1.6017,0
	c-0.5924,0.4223,2.2379,0.1529,2.7009,0.6516c0.463,0.4986,0.0963,0.5746,0.0963,0.5746c-0.3858-0.1406-0.77-0.2799-1.1557-0.4205
	c0,0-1.3709-0.2506-1.7567,0.0562c-0.3858,0.3069,5.6323,1.0552,5.8059,1.88c0.1171,0.4473-1.4139-0.4684-2.7386-0.8619
	c-0.0512,0.1464-0.1037,0.2929-0.1549,0.4393c-0.0314-0.0309-0.5438-0.5265-1.1181-0.6121
	c-0.0001,0.0003-0.0019,0.0016-0.0021,0.0021c-0.0001,0.0007,0,0.0032,0,0.0042c0.0009,0.063,0.1173,0.5121,0.1173,0.5121
	c0,0-1.4838-0.6913-2.2361-0.3269c-0.7523,0.3644,2.6226,0.5562,2.9312,0.9015c0.0338,0.0378,0.0478,0.0653,0.0461,0.0833
	c-0.0006,0.0031-0.0027,0.0078-0.0042,0.0104c-0.0745,0.1086-1.081-0.2924-1.1808-0.0937c-0.1158,0.2302-1.755-0.4214-1.7357-0.1145
	c0.0193,0.3069,0.2324,0.4788,0.2324,0.4788c0,0,3.4143,0.3259,3.53,0.7286c0.1157,0.4028-1.8906-0.229-1.8906-0.229
	s-0.1941,0.2863-0.0398,0.4205c0.006,0.0052,0.0108,0.0103,0.0126,0.0125c0.0001,0.0001,0,0.002,0,0.0021
	c-0.0001,0-0.0018,0.0001-0.0021,0c-0.0697-0.0229-1.1568-0.7309-1.0511-0.1874c-0.4254-0.1684-1.5236-0.6901-1.3693-0.2873
	c0.152,0.3969,3.0165,0.9619,3.1008,0.9785c-0.0758,0.0059-1.2872,0.1067-1.2311,0.4226c-1.6236-0.9835-1.6198-0.3937-1.5829-0.3477
	c0.0001,0.0001-0.0001,0.002,0,0.0021c-0.0912-0.0143-2.0887-0.5092-0.5004,0.3456c0.8518,0.4584,1.0594,0.637,1.0637,0.7058
	c0,0.0015,0.0001,0.0048,0,0.0062c-0.0003,0.0018-0.0015,0.0046-0.0021,0.0062c-0.0001,0.0004-0.0019,0.0017-0.0021,0.0021
	c-0.0007,0.0012-0.0013,0.0031-0.0021,0.0042c-0.0003,0.0003-0.0018,0.0018-0.0021,0.0021
	c-0.0003,0.0003-0.0018,0.0018-0.0021,0.0021c-0.0003,0.0003-0.0017,0.0018-0.0021,0.0021
	c-0.0004,0.0003-0.0017,0.0018-0.0021,0.0021c-0.033,0.021-0.1128,0.0122-0.1361,0.0125c-0.001,0-0.0035-0.0001-0.0042,0
	c-0.0004,0.0001-0.002,0.0019-0.0021,0.0021l0.0021,0.0021c0.0227,0.0335,0.1473,0.3718,0.1403,0.4309
	c-0.0001,0.001-0.0018,0.0034-0.0021,0.0042c-0.0001,0.0003,0.0001,0.0018,0,0.0021c-0.0001,0.0001-0.002-0.0001-0.0021,0
	c-0.0001,0.0001,0.0001,0.002,0,0.0021c-0.0001,0-0.0019,0-0.0021,0c-0.0001,0-0.0019,0-0.0021,0
	c-0.0696-0.0174-1.1216-0.5764-1.4824-0.6141c-0.3666-0.0384-2.103,0.4789-0.2512,1.2845c1.8518,0.8056,2.9893-0.1922,4.0116-0.077
	c1.0223,0.1151,1.5055,0.288,1.4091,0.6142c-0.0965,0.326-1.0458-1.069-2.0435,0.1374c-1.1349-0.2233-1.9049-0.3525-1.3191,0.4767
	c-1.8534-0.6887-2.9852,0.2101-0.6511,0.5746c2.2936,0.0672,3.7038-0.5559,3.7038-0.5559s0.3869,0.7111,0.9464,0.2123
	c0.5332-0.4753,0.5751,0.1296,0.5946,0.1874c0.0003,0.0009,0.0018,0.0016,0.0021,0.0021c0.0001,0.0001-0.0001,0.002,0,0.0021
	c0.0001,0,0.0019,0,0.0021,0c0.0412-0.0103,0.5381-0.2311,0.5381-0.2311c0.045,0,0.0911,0,0.1361,0v4.603
	c0.6237,0.0064,1.246,0.0123,1.8697,0.0187c0,0-0.598-4.0077-0.2701-4.5447c0.3177-0.5202,0.6181-0.4641,0.6365-0.4601
	c0,0,1.2155,0.3636,1.3504,0.306c0.0016-0.0007,0.0048-0.0013,0.0063-0.0021c0.001-0.0006,0.0032-0.0015,0.0042-0.0021
	c0.0023-0.0015,0.0062-0.0045,0.0084-0.0062c0.0004-0.0003,0.0017-0.0017,0.0021-0.0021c0.0988-0.0897-0.0019-0.4435,0.6156-0.3893
	c0.1906-0.069,0.1179-0.3712,0.2408-0.4455c0.0022-0.0013,0.0061-0.0031,0.0084-0.0042c0.0046-0.0022,0.0116-0.0047,0.0168-0.0062
	c0.0072-0.0021,0.0168-0.0033,0.0251-0.0042c0.1929-0.0192,3.9154,1.0349,4.7255,0.0375c-0.2122-0.5562-0.9461-0.0379-1.139-0.0187
	c-0.1736,0-0.9072-0.3452-1.3316,0c-0.3858-0.2877-2.1398-0.4788-2.1398-0.4788c-0.2315-0.2302,4.1859,0.1143,4.4366-0.0583
	c0.5208-0.5179-0.964-0.4599-1.1955-0.2873c-0.4115-0.2494-0.9286-0.2309-1.2437-0.0583c-0.1511-0.3594-1.5854-0.2037-2.3826-0.306
	c-0.2552-0.1488-0.2127-0.2343-0.0398-0.3269c1.6653,0.0704,3.3222,0.2866,4.9956,0.2123c0.4523-0.5863-0.5694-0.8075-1.1955-0.3081
	c-0.3676-0.601-1.119-0.0195-1.6205-0.077c-0.5015-0.0576-0.2701-0.6705,0.3664-0.5746c0.6366,0.0959,1.7748-0.0391,1.9869-0.3269
	c0.2121-0.2877-0.1267-0.5791-1.1767-0.306c-0.3554-0.3454-1.1368-0.0006-1.5033,0.1145c-0.4876-0.2705-1.6221-0.0376-2.0079,0.0583
	c-0.3777-0.2334,1.9869-0.6141,1.9869-0.6141c0.9127-0.0161,1.4275-0.1731,1.7168-0.2498c1.3798-0.7353-0.0192-0.8134-0.7432-0.279
	c-0.4494-0.3489-0.8763,0.0302-1.2813,0.1645c-0.3798,0.1259-1.0821,0.2175-1.1683,0.1811
	c-0.001-0.0004-0.0034-0.0016-0.0042-0.0021c-0.0001-0.0001-0.0019-0.0019-0.0021-0.0021l-0.0021-0.0021
	c-0.0001-0.0001,0-0.0019,0-0.0021c0-0.0001,0-0.0018,0-0.0021c0.0003-0.0009,0.0015-0.0032,0.0021-0.0042
	c0.0569-0.0877,1.0971-0.7224,1.0971-0.7224s1.3504-0.097,1.6205-0.1353c0.1646-0.0234,0.7414-0.2949,0.7412-0.3956
	c-0.0048-0.0625-0.2452-0.0567-0.9736,0.127c-0.6559,0.0576-1.041,0.0204-1.2918,0.0396c-0.4033-0.0415-0.5732-0.0837-0.6072-0.1207
	c-0.0013-0.0016-0.0034-0.0047-0.0042-0.0062c-0.0028-0.0067-0.001-0.0144,0.0042-0.0208c0.0013-0.0015,0.0046-0.0048,0.0063-0.0062
	c0.0989-0.0785,0.737-0.1353,0.737-0.1353s1.9481-0.1776,2.077-0.279c0.0004-0.0004,0.0017-0.0017,0.0021-0.0021
	c0.0007-0.0009,0.0016-0.0034,0.0021-0.0042c0.0001-0.0004,0.002-0.0017,0.0021-0.0021c0.0401-0.792-1.6527-0.4263-1.698-0.4205
	c0.0048-0.5569-1.5278-0.0082-1.5996,0c-0.0001,0-0.002,0-0.0021,0c-0.0659-0.0386-0.0947-0.0794-0.1005-0.1166
	c-0.0019-0.0142-0.0001-0.0301,0.0042-0.0437c0.0384-0.1148,0.2701-0.204,0.2701-0.204c0.4244-0.1023,1.0589-0.1342,1.2248-0.2686
	c0,0,1.1978-0.0105,1.34-0.3269c-0.2939-0.8063-2.5348,0.1427-2.8349,0.2873c-0.0601,0-0.0969-0.015-0.1152-0.0396
	c-0.0985-0.1431,0.3877-0.6145,0.4041-0.6308c0.0001-0.0001,0.0017-0.0019,0.0021-0.0021c0.0741-0.0209,1.8633-0.1119,2.7177-1.2637
	c0.0603-0.7122-1.0218,0.4018-1.0218,0.4018c-0.0808-0.9236-1.1766,0.0586-1.8132,0.1353c-0.6365,0.0767-0.6551-0.288-0.2115-0.3456
	c0.4436-0.0575,0.9447-0.0199,1.1955-0.6912c0.2507-0.6713,1.004,0.0391,1.139-0.2103c0.1308-0.2416-0.2465-0.4475-0.2701-0.4601
	c0,0,0.559-0.5771-0.3476-0.5579c-0.8974,0.019-2.0577-0.1118-2.0812-0.1145c0.0563-0.0214,0.9704-0.3642,1.8299-0.3456
	c0.8874,0.0192,0.4049-0.6329-0.4439-0.6329c-0.8487,0-1.2918-0.2873-1.2918-0.2873c0.4823-0.179,0.9645-0.3581,1.4468-0.5371
	c-0.0322-0.1342-0.0642-0.2676-0.0963-0.4018c0,0,0.8484-0.6718-0.3476-0.5184c-1.196,0.1535-1.3316,0.1728-1.3316,0.1728
	s-2.3543,0.3587-2.4099,0.3643c-0.0001,0-0.0019,0-0.0021,0c-0.0228-0.0035-0.256-0.0756-0.2994-0.1645
	c-0.0013-0.0029-0.0033-0.0075-0.0042-0.0104c-0.001-0.0035-0.0018-0.0089-0.0021-0.0125c-0.0003-0.0042-0.0007-0.0103,0-0.0146
	c0.0097-0.0468,0.0823-0.0975,0.268-0.1436c0.6173-0.1534,2.7981-0.594,3.126-0.4788c0.0423,0.0148,0.0731,0.0115,0.0921-0.0042
	c0.123-0.1106-0.2861-0.8162-1.2898-0.916c-1.1574-0.1151-1.8697,0.2873-1.8697,0.2873s-0.7531-0.2695-0.0586-0.4996
	c0.6944-0.2301,1.7943,0.077,1.7943,0.077c0,0,1.2338-0.365,0.2115-0.5184c-1.0223-0.1535-1.3447,0.138-1.8132,0.1541
	c-0.187-0.2321,1.6051-0.2869,1.7168-0.4788c-0.189-0.3454-1.2978,0-1.9472,0c-0.2762-0.1165-0.2945-0.3061,0.0188-0.4226
	c0.6623-0.0256,1.2849,0.0131,1.9472-0.0125c-0.0193-0.3516,0.0004-0.7684-0.0188-1.12c-0.8401-0.1526-1.8252,0.1118-2.2968,0.0895
	c0.1262-0.3837,1.9399-0.4827,2.1419-0.5871c0.4167-0.518-1.7397-0.008-1.7922,0c-0.3828-0.0562-0.3596-0.2968-0.1173-0.4414
	c0.5594-0.064,1.8138,0.0815,1.7189-0.2956c-0.0727-0.3534-0.8697-0.1642-1.1976-0.0874c-0.3279,0.0767-0.8103,0.0187-0.8103,0.0187
	c-0.21-0.2811,1.891-0.1662,1.8718-0.3831c-0.0274-0.249-1.3318-0.0775-1.7755-0.0583c-0.3412-0.2341,1.6043-0.3898,1.6959-0.4205
	c0.0004-0.0003,0.0018-0.0019,0.0021-0.0021c0.0727-0.6376-1.3504,0-1.6205,0c-0.0464,0-0.0816-0.0115-0.1068-0.0312
	c-0.0056-0.0046-0.012-0.0114-0.0168-0.0167c-0.0927-0.1076-0.0105-0.3539-0.0105-0.3539s0.5072-0.2266,0.5381-0.2811
	c0.0001-0.0004,0.0019-0.0017,0.0021-0.0021c0.0001-0.0001,0-0.0019,0-0.0021c0-0.0001,0-0.0019,0-0.0021
	c-0.0001-0.0003-0.0019-0.0018-0.0021-0.0021c-0.0012-0.0016-0.004-0.0044-0.0063-0.0062
	c-0.0595-0.0456-0.4084-0.1607-0.4543-0.1645c-0.0003,0-0.0018,0-0.0021,0c-0.0003-0.0001-0.0018-0.0019-0.0021-0.0021
	c-0.0006-0.0004-0.0016-0.0015-0.0021-0.0021c-0.0003-0.0003-0.0019-0.0017-0.0021-0.0021
	c-0.0263-0.0536,0.0063-0.4351,0.0063-0.4351s0.4019-0.2994,0.4271-0.4185c0.0001-0.001-0.0001-0.0032,0-0.0042
	c0.0001-0.001,0-0.0032,0-0.0042c0-0.0009,0-0.0033,0-0.0042c-0.0001-0.0009,0.0001-0.0033,0-0.0042
	c-0.0001-0.0004,0.0001-0.0017,0-0.0021c-0.0003-0.0012-0.0016-0.003-0.0021-0.0042c-0.0001-0.0004,0.0001-0.0017,0-0.0021
	c-0.0001-0.0003-0.0019-0.0017-0.0021-0.0021c-0.0004-0.0007-0.0016-0.0014-0.0021-0.0021
	c-0.0007-0.001-0.0013-0.0033-0.0021-0.0042c-0.0003-0.0003-0.0018-0.0018-0.0021-0.0021c-0.0016-0.0013-0.0043-0.003-0.0063-0.0042
	c-0.0009-0.0004-0.0033-0.0017-0.0042-0.0021c-0.1015-0.0485-0.5213,0.0958-0.5213,0.0958c0-0.1279,0-0.2552,0-0.3831
	c0,0,0.3676-0.0397,0.4062-0.2123c0.0023-0.0101,0.0012-0.0201,0-0.0291c-0.0006-0.0036-0.001-0.009-0.0021-0.0125
	c-0.0024-0.0074-0.006-0.0162-0.0105-0.0229c-0.0007-0.001-0.0034-0.0032-0.0042-0.0042c-0.0841-0.108-0.4271-0.1228-0.4271-0.1228
	c-0.0643-0.6713-0.1283-1.3419-0.1926-2.0131L30.2391,15.6443z M29.8958,22.2189v0.2644c0,0-0.4326-0.022-0.513-0.0895
	c-0.0004-0.0003-0.0018-0.0018-0.0021-0.0021c-0.0003-0.0003-0.0018-0.0017-0.0021-0.0021
	c-0.0003-0.0003-0.0018-0.0017-0.0021-0.0021c-0.0003-0.0003-0.0018-0.0017-0.0021-0.0021
	c-0.0007-0.001-0.0016-0.0031-0.0021-0.0042c-0.0001-0.0003,0.0001-0.0017,0-0.0021c-0.0001-0.0003-0.002-0.0017-0.0021-0.0021
	c-0.0001-0.0003,0.0001-0.0017,0-0.0021c-0.0001-0.0007,0-0.0034,0-0.0042c0-0.0004,0-0.0017,0-0.0021
	c0.0001-0.0004-0.0001-0.0017,0-0.0021c0.0004-0.0015,0.0013-0.0047,0.0021-0.0062c0.0001-0.0004,0.0019-0.0017,0.0021-0.0021
	c0.001-0.0016,0.0028-0.0046,0.0042-0.0062c0.0004-0.0004,0.0017-0.0017,0.0021-0.0021c0.0009-0.0009,0.0033-0.0033,0.0042-0.0042
	c0.0029-0.0025,0.0067-0.0057,0.0105-0.0083c0.1451-0.101,0.4349-0.0986,0.492-0.1145c0.0004-0.0001,0.0017,0.0001,0.0021,0
	c0.0004-0.0001,0.0017-0.0019,0.0021-0.0021c0.0003-0.0001,0.0018,0.0001,0.0021,0C29.8939,22.2208,29.8955,22.2191,29.8958,22.2189
	L29.8958,22.2189z M30.5092,22.5707c0.0149,0,0.8617,0.0072,0.9359,0.1166c0.0006,0.0009,0.0016,0.0032,0.0021,0.0042
	c0.0006,0.0014,0.0017,0.0048,0.0021,0.0062c0.0001,0.001-0.0001,0.0032,0,0.0042c0,0.0015,0.0003,0.0047,0,0.0062
	c-0.0004,0.0016-0.0014,0.0047-0.0021,0.0062c-0.0647,0.1366-0.9213,0.2186-0.9213,0.2186L30.5092,22.5707L30.5092,22.5707z
	 M30.4611,23.0933c0.0003,0.0001,0.0018-0.0001,0.0021,0c0.0003,0.0001,0.0017-0.0001,0.0021,0
	c0.0503,0.0132,0.401,0.0245,0.4439,0.0833c0.0004,0.0006,0.0018,0.0015,0.0021,0.0021c0.0001,0.0003-0.0001,0.0018,0,0.0021
	c0.0003,0.0006,0.0019,0.0015,0.0021,0.0021c0.0001,0.0003-0.0001,0.0018,0,0.0021c0,0.0003,0,0.0018,0,0.0021
	c0,0.0003,0,0.0018,0,0.0021c0,0.0003,0,0.0018,0,0.0021c-0.0001,0.0003,0.0001,0.0018,0,0.0021
	c-0.0001,0.0003-0.002,0.0018-0.0021,0.0021c-0.0001,0.0003,0.0001,0.0018,0,0.0021c-0.0006,0.001-0.0014,0.0032-0.0021,0.0042
	c-0.0003,0.0003-0.0018,0.0017-0.0021,0.0021c-0.0003,0.0003,0.0003,0.0017,0,0.0021c-0.0727,0.0883-0.3963,0.1124-0.4125,0.1124
	c-0.0001,0-0.002,0.0001-0.0021,0c-0.0001-0.0001,0.0001-0.002,0-0.0021c-0.0003-0.0004-0.0018-0.0016-0.0021-0.0021
	C30.4756,23.2841,30.4611,23.0933,30.4611,23.0933L30.4611,23.0933z M27.8795,23.7886c0.2765-0.0143,0.8251,0.0505,1.8551,0.3331
	c0,0.0218,0.0209,0.2873,0.0126,0.331c-0.0001,0.0003-0.002,0.0018-0.0021,0.0021c-0.0001,0.0003,0.0001,0.0019,0,0.0021
	c-0.0001,0.0001-0.0019,0.0021-0.0021,0.0021c-0.0161-0.0081-1.8738-0.5389-2.0435-0.5309c-0.0046,0.0001-0.0103,0.0004-0.0147,0
	c-0.0037-0.0004-0.009-0.0013-0.0126-0.0021c-0.0046-0.0012-0.0106-0.0044-0.0147-0.0062
	c-0.0015-0.0007-0.0049-0.0013-0.0063-0.0021c-0.0004-0.0003-0.0016-0.0018-0.0021-0.0021
	c-0.0056-0.0038-0.0112-0.0096-0.0147-0.0146c-0.0003-0.0004-0.0019-0.0017-0.0021-0.0021
	c-0.0004-0.0009-0.0017-0.0033-0.0021-0.0042c-0.0001-0.0004,0.0001-0.0017,0-0.0021c-0.0003-0.0009-0.0019-0.0033-0.0021-0.0042
	c-0.0001-0.0004,0.0001-0.0016,0-0.0021c-0.0001-0.0009,0-0.0033,0-0.0042c0-0.0009-0.0001-0.0032,0-0.0042
	c0.0003-0.0023,0.0013-0.006,0.0021-0.0083c0.0023-0.0057,0.007-0.013,0.0126-0.0187
	C27.6712,23.8234,27.7424,23.7957,27.8795,23.7886L27.8795,23.7886z M28.8426,24.5735c0.2961-0.0106,1.0056,0.1592,1.0448,0.1499
	c0,0.0563,0.0314,0.3221-0.0042,0.3768c-0.0003,0.0004-0.0017,0.0017-0.0021,0.0021c-0.0003,0.0004-0.0017,0.0017-0.0021,0.0021
	c-0.0004,0.0003-0.0017,0.0018-0.0021,0.0021c-0.0007,0.0004-0.0034,0.0018-0.0042,0.0021c-0.0004,0.0001-0.0016-0.0001-0.0021,0
	c-0.0009,0.0001-0.0032,0.0001-0.0042,0c-0.0004-0.0001-0.0016,0.0001-0.0021,0c-0.0603-0.015-1.1073-0.3456-1.1474-0.4809
	c-0.0006-0.0022,0-0.0062,0-0.0083c0.0004-0.0047,0.0027-0.0105,0.0063-0.0146c0.0004-0.0004,0.0016-0.0017,0.0021-0.0021
	c0.0004-0.0004,0.0016-0.0017,0.0021-0.0021C28.7475,24.5847,28.789,24.5754,28.8426,24.5735L28.8426,24.5735z M31.757,25.3021
	c0.2828-0.0055,0.4824,0.0186,0.4083,0.1041c-0.2019,0.2329-1.5975,0.4247-1.5975,0.4247l-0.0251-0.4247
	C30.5727,25.4018,31.2818,25.3113,31.757,25.3021L31.757,25.3021z M27.7622,26.6262c0.2373-0.0126,0.79,0.117,2.0205,0.635
	l0.0084,0.306c0,0-2.0838-0.6284-2.1565-0.7328C27.5988,26.783,27.5322,26.6384,27.7622,26.6262L27.7622,26.6262z M31.845,27.0821
	c0.0634-0.0032,0.108,0.0032,0.1235,0.0187c0.0004,0.0004,0.0018,0.0016,0.0021,0.0021c0.0009,0.0014,0.0016,0.0047,0.0021,0.0062
	c0.0003,0.0016,0.0021,0.0045,0.0021,0.0062c-0.0009,0.0088-0.0075,0.0206-0.0188,0.0333c-0.1939,0.2169-1.2353,0.433-1.2353,0.433
	s0-0.273,0-0.2811c0.0001,0,0.0019,0,0.0021,0C30.7702,27.2991,31.5347,27.0978,31.845,27.0821L31.845,27.0821z M27.2765,27.1196
	c0.3111-0.0164,1.0135,0.1477,2.5879,0.8889c0,0.0077,0.014,0.2633,0.0084,0.2873c-0.0001,0-0.0019,0.0001-0.0021,0
	c-0.0933-0.0299-2.8328-0.9868-2.8328-0.9868C27.0348,27.2986,26.9936,27.1345,27.2765,27.1196L27.2765,27.1196z M32.4919,28.3167
	c0.0796-0.0033,0.1318,0.0035,0.1445,0.0208c0.0012,0.002,0.0019,0.006,0.0021,0.0083c-0.0003,0.0083-0.0072,0.0189-0.0209,0.0312
	c-0.2484,0.2231-1.8322,0.4934-1.8885,0.4976c-0.0003,0-0.0019,0-0.0021,0c-0.0001-0.0001-0.0019,0.0001-0.0021,0
	c-0.0001-0.0001-0.0019-0.0019-0.0021-0.0021c-0.0006-0.0007-0.0017-0.0032-0.0021-0.0042c-0.0001-0.0004,0.0001-0.0017,0-0.0021
	c-0.0003-0.0009-0.0019-0.0032-0.0021-0.0042c-0.0101-0.0517,0.0227-0.2328,0.0251-0.2582c0-0.0004,0-0.0018,0-0.0021
	c0.0001,0.0001,0.0019-0.0001,0.0021,0c0.0003,0,0.0017,0.0021,0.0021,0.0021c0.0004,0,0.0016,0,0.0021,0
	C30.8513,28.6023,32.0651,28.3345,32.4919,28.3167L32.4919,28.3167z M27.8355,29.0142c0.4715-0.0242,1.9002,0.6272,1.9702,0.6475
	c0.0001,0,0.002,0,0.0021,0c-0.0073,0.0291-0.0086,0.2643-0.0147,0.3019c-0.0001,0.001,0.0001,0.0036,0,0.0042
	c-0.0001,0.0001-0.002-0.0001-0.0021,0c-0.0385-0.0205-1.9966-0.8285-2.0833-0.7641
	C27.6538,29.0763,27.7098,29.0206,27.8355,29.0142L27.8355,29.0142z M32.0481,29.1849c0.0981-0.0043,0.1699,0,0.1926,0.0125
	c0.0028,0.0017,0.0053,0.0041,0.0063,0.0062c0.0001,0.0003-0.0001,0.0017,0,0.0021c0,0.0004,0,0.0017,0,0.0021
	c-0.0001,0.0009,0.0004,0.0033,0,0.0042c-0.0003,0.0004-0.0018,0.0016-0.0021,0.0021c-0.0014,0.0018-0.004,0.0042-0.0063,0.0062
	c-0.1454,0.1285-1.4949,0.3935-1.4949,0.3935s-0.0063-0.2486-0.0063-0.2727C30.7757,29.3329,31.6469,29.2025,32.0481,29.1849
	L32.0481,29.1849z M31.9392,30.0447c0.095-0.0031,0.1623,0.0022,0.178,0.0187l0.0021,0.0021c0.0004,0.0007-0.0001,0.0034,0,0.0042
	c0.0001,0.0004,0.0021,0.0017,0.0021,0.0021c0,0.0004-0.002,0.0017-0.0021,0.0021c-0.0001,0.0009,0.0004,0.0033,0,0.0042
	c-0.0003,0.0004-0.0018,0.0016-0.0021,0.0021c-0.0012,0.0019-0.0025,0.0043-0.0042,0.0062
	c-0.0013,0.0015-0.0046,0.0047-0.0063,0.0062c-0.1457,0.125-1.2898,0.3643-1.2898,0.3643s-0.0314-0.273-0.0314-0.2811
	C30.8172,30.1766,31.5822,30.0565,31.9392,30.0447L31.9392,30.0447z M27.1111,30.1134c0.276-0.0174,0.9601,0.0957,2.6486,0.7058
	l0.0565,0.3289c0,0-2.8114-0.9024-2.8914-0.9306c0.0001,0-0.0001-0.0019,0-0.0021c0.0001-0.0017-0.0004-0.006,0-0.0104
	c0.001-0.0083,0.0052-0.0213,0.0147-0.0333C26.9592,30.1475,27.0045,30.12,27.1111,30.1134L27.1111,30.1134z M30.8148,30.8274
	c0.0339,0.0072,0.5053,0.0228,0.5925,0.0958c0.0004,0.0003,0.0017,0.0017,0.0021,0.0021c0.0003,0.0003,0.0017,0.0017,0.0021,0.0021
	c0.0003,0.0003,0.0018,0.0017,0.0021,0.0021c0.0009,0.0012,0.0014,0.0031,0.0021,0.0042c0.0001,0.0004,0.0019,0.0017,0.0021,0.0021
	c0.0007,0.0015,0.0017,0.0047,0.0021,0.0062c0.0001,0.0004-0.0001,0.0017,0,0.0021c0,0.0004,0,0.0017,0,0.0021
	c0,0.0009,0.0001,0.0034,0,0.0042c-0.0001,0.0004,0.0001,0.0017,0,0.0021c-0.0001,0.0009-0.0018,0.0033-0.0021,0.0042
	c-0.0001,0.0004,0.0001,0.0017,0,0.0021c-0.0004,0.0009-0.0016,0.0033-0.0021,0.0042c-0.0727,0.1125-0.5653,0.1541-0.5653,0.1541
	S30.8263,30.8965,30.8148,30.8274L30.8148,30.8274z M31.956,31.4687c0.1098-0.0026,0.1886,0.0099,0.2052,0.0416
	c0.0094,0.0215-0.0087,0.0533-0.0607,0.0958c-0.4039,0.3293-1.2835,0.3935-1.2835,0.3935v-0.3622c0.0001,0,0.0017,0,0.0021,0
	C30.869,31.6314,31.5915,31.4774,31.956,31.4687L31.956,31.4687z M33.0761,31.8059c0.1394-0.0053,0.1995,0.018,0.2178,0.05
	c0.0015,0.0028,0.0033,0.0074,0.0042,0.0104c0.0013,0.0054,0.0025,0.013,0.0021,0.0187c-0.0045,0.0413-0.0494,0.0907-0.0837,0.1228
	c-0.1373,0.1285-2.3261,0.8182-2.3261,0.8182s-0.0165-0.4575-0.0084-0.4976C32.1616,31.9429,32.7875,31.8168,33.0761,31.8059
	L33.0761,31.8059z M31.6607,33.1009c0.1392-0.0052,0.248,0.003,0.2806,0.0354c0.002,0.0021,0.005,0.006,0.0063,0.0083
	c0.0007,0.0015,0.0016,0.0047,0.0021,0.0062c0.0004,0.0016-0.0001,0.0046,0,0.0062c0.0001,0.0028,0.0007,0.0074,0,0.0104
	c-0.0016,0.0061-0.0058,0.0137-0.0105,0.0208c-0.1873,0.1827-1.0971,0.2103-1.0971,0.2103v-0.2269
	C31.0129,33.1659,31.3933,33.1108,31.6607,33.1009L31.6607,33.1009z M32.5715,33.4735c0.0433-0.001,0.0696,0.006,0.0733,0.0187
	c0.0001,0.001,0.0001,0.0031,0,0.0042c-0.0022,0.0106-0.0149,0.0267-0.0419,0.0458c-0.3635,0.257-1.7294,0.5205-1.7294,0.5205
	s0.0169-0.1796,0.0251-0.2228C30.9366,33.8394,32.2446,33.4815,32.5715,33.4735L32.5715,33.4735z M33.3378,33.7587
	c0.161-0.0015,0.2838,0.0221,0.3538,0.0729c0.0001,0,0.002,0,0.0021,0c0,0.0001,0,0.0019,0,0.0021c0,0.0003,0,0.0018,0,0.0021
	c0,0.0007,0.0001,0.0033,0,0.0042c-0.0069,0.0498-0.1092,0.284-0.469,0.3851c-0.4488-0.0399-2.3534,0.52-2.3911,0.5288
	c-0.0001-0.0001-0.002,0.0001-0.0021,0c-0.0001-0.0007,0.0001-0.0031,0-0.0042c-0.001-0.0359,0.0251-0.229,0.0251-0.229
	C31.5133,34.1303,32.7064,33.7647,33.3378,33.7587L33.3378,33.7587z M28.4615,34.858c0.0042-0.0001,0.0081,0,0.0126,0
	c0.8239,0.0883,1.1316,0.395,1.2186,0.5184c-0.1643,0.2866-1.4663-0.3562-1.3295-0.4934
	C28.3788,34.869,28.411,34.859,28.4615,34.858L28.4615,34.858z M33.1829,34.9121c0.0327-0.0013,0.0626,0.0054,0.0837,0.0187
	c0.0086,0.0057,0.0172,0.014,0.023,0.0229c0.0079,0.0128,0.0132,0.0301,0.0147,0.05c-0.0861,0.1322-0.5312,0.0745-0.559,0.0708
	C32.7677,35.0665,33.0247,34.9181,33.1829,34.9121L33.1829,34.9121z M31.4179,35.8031c0.0611-0.0025,0.1118,0.0036,0.1403,0.0208
	c0.0034,0.0022,0.0077,0.0057,0.0105,0.0083c0.0009,0.0009,0.0034,0.0032,0.0042,0.0042c0.0012,0.0014,0.0033,0.0047,0.0042,0.0062
	c0.0009,0.0016,0.0014,0.0046,0.0021,0.0062c0.0052,0.0156,0.0032,0.037-0.0105,0.0625c-0.1292,0.241-0.6951,0.152-0.6951,0.152
	v-0.1686c0.0001,0,0.002,0,0.0021,0C30.9075,35.8974,31.2193,35.8112,31.4179,35.8031L31.4179,35.8031z M28.0847,36.4381
	c0.1741-0.0087,0.3263,0.1048,0.4857,0.1957c0.3554-0.0723,1.0845,0.0562,1.0845,0.0562v0.3206
	c0,0.0003-0.0016,0.0019-0.0021,0.0021c-0.0003,0.0001-0.0017-0.0001-0.0021,0c-0.0664,0.0115-0.9209-0.0256-1.1117-0.1457
	c-0.1557,0-0.5963-0.2313-0.6302-0.3498c-0.0003-0.001-0.0019-0.0032-0.0021-0.0042c-0.0003-0.0015,0.0001-0.0048,0-0.0062
	c0-0.001,0-0.0032,0-0.0042c0-0.0009-0.0001-0.0033,0-0.0042c0.0001-0.0004-0.0001-0.0016,0-0.0021
	c0.0001-0.0009,0.0018-0.0033,0.0021-0.0042c0.0001-0.0004-0.0001-0.0017,0-0.0021C27.9697,36.4579,28.029,36.4409,28.0847,36.4381
	L28.0847,36.4381z M31.822,36.5963c0.1337-0.0072,0.1903,0.0339,0.0858,0.1811c-0.2908,0.4096-1.0427,0.2415-1.0427,0.2415
	l-0.0314-0.254C31.0989,36.7752,31.5837,36.6091,31.822,36.5963L31.822,36.5963z M29.0122,37.4269
	c0.304-0.0141,0.6344,0.1062,0.6344,0.1062c0.0078,0.0154,0.1634,0.3205,0.0251,0.4226c-0.0051,0.0037-0.0108,0.0073-0.0167,0.0104
	c-0.1696,0.0883-0.9804-0.069-1.028-0.3935C28.7224,37.4725,28.8637,37.4338,29.0122,37.4269L29.0122,37.4269z M25.8779,37.5852
	c0.2781-0.0166,0.5887,0.1537,0.6239,0.1707c0.0004,0.0001,0.0018-0.0001,0.0021,0c0,0.0096-0.0105,0.3081-0.0105,0.3081
	s-0.5504-0.1526-0.7245-0.4601C25.8039,37.5944,25.8411,37.5874,25.8779,37.5852L25.8779,37.5852z M31.173,37.6268
	c0.3101-0.002,0.6848,0.0705,0.7391,0.1749c0.0103,0.0214,0.0072,0.0449-0.0126,0.0687c-0.1535,0.1847-1.0259,0.0167-1.0259,0.0167
	v-0.2248C30.9512,37.6396,31.0581,37.6275,31.173,37.6268L31.173,37.6268z"/>
</svg>
