<?xml version="1.0" encoding="utf-8"?>
<!-- Generator: Adobe Illustrator 21.1.0, SVG Export Plug-In . SVG Version: 6.00 Build 0)  -->
<svg version="1.1" id="Layer_1" xmlns="http://www.w3.org/2000/svg" xmlns:xlink="http://www.w3.org/1999/xlink" x="0px" y="0px"
	 viewBox="0 0 60 60" style="enable-background:new 0 0 60 60;" xml:space="preserve">
<style type="text/css">
	.st0{fill:#EF2B2D;}
	.st1{fill:#FFFFFF;}
	.st2{fill:#002868;}
</style>
<g>
	<g>
		<path class="st0" d="M59.0551,22.5007C55.7235,9.5604,43.9795,0,29.9987,0v22.5007H59.0551z"/>
		<path class="st0" d="M0.9421,37.498c2.0304,7.8799,7.1834,14.4987,14.0572,18.4763V37.498H0.9421z"/>
		<path class="st0" d="M14.9993,4.0244C8.1255,8.0006,2.9725,14.6194,0.9421,22.5007h14.0572V4.0244z"/>
		<path class="st0" d="M59.0551,37.498H29.9987V60C43.9795,60,55.7235,50.4396,59.0551,37.498z"/>
		<path class="st1" d="M18.7505,2.1898c-1.2987,0.5267-2.553,1.1378-3.7512,1.8346v18.4763H0.9421
			c-0.3108,1.2182-0.5428,2.4712-0.7022,3.747h18.5106V2.1898z"/>
		<path class="st1" d="M0.2399,33.7497c0.1595,1.2758,0.3914,2.5275,0.7022,3.7483h14.0572v18.4763
			c1.1982,0.6968,2.4525,1.3093,3.7512,1.8346V33.7497H0.2399z"/>
		<path class="st1" d="M59.0551,37.498c0.3137-1.2208,0.5429-2.4724,0.7036-3.7483H26.2489v26.009
			C27.4751,59.9115,28.7268,60,29.9987,60V37.498H59.0551z"/>
		<path class="st1" d="M59.7587,26.2477c-0.1607-1.2758-0.3899-2.5288-0.7036-3.747H29.9987V0
			c-1.2719,0-2.5236,0.0871-3.7498,0.2426v26.0051H59.7587z"/>
		<path class="st2" d="M59.7587,33.7497C59.9116,32.5181,60,31.2692,60,30.0001c0-1.2718-0.0884-2.5209-0.2413-3.7524H26.2489
			V0.2426c-2.6187,0.327-5.1342,0.9904-7.4984,1.9471v24.0579H0.2399C0.0858,27.4792,0,28.7282,0,30.0001
			c0,1.2691,0.0858,2.518,0.2399,3.7496h18.5106v24.0592c2.3641,0.9569,4.8797,1.6215,7.4984,1.9499v-26.009H59.7587z"/>
	</g>
</g>
</svg>
