<?xml version="1.0" encoding="utf-8"?>
<!-- Generator: Adobe Illustrator 21.1.0, SVG Export Plug-In . SVG Version: 6.00 Build 0)  -->
<svg version="1.1" id="Layer_1" xmlns="http://www.w3.org/2000/svg" xmlns:xlink="http://www.w3.org/1999/xlink" x="0px" y="0px"
	 viewBox="0 0 60 60" style="enable-background:new 0 0 60 60;" xml:space="preserve">
<style type="text/css">
	.st0{fill:#FFFFFF;}
	.st1{fill:#003893;}
	.st2{fill:#CE1126;}
</style>
<g>
	<g>
		<path class="st0" d="M50.7424,51.6403C56.436,46.1806,60,38.5124,60,30c0-0.201-0.0268-0.394-0.0301-0.5937H28.5078
			L50.7424,51.6403z"/>
		<path class="st0" d="M0,30c0,10.2613,5.1628,19.3112,13.02,24.72V5.28C5.1628,10.6875,0,19.7387,0,30z"/>
		<path class="st0" d="M30.0007,0c-4.4855,0-8.7249,1.0144-12.5456,2.7794l42.5149,26.6188C59.6456,13.1118,46.3649,0,30.0007,0z"/>
		<path class="st1" d="M20.2654,58.353C23.3215,59.4024,26.5874,60,30.0007,60s6.6792-0.5976,9.7353-1.647H20.2654z"/>
	</g>
	<path class="st1" d="M54.2415,27.758H24.5309l24.988,24.992c0.4188-0.3591,0.8235-0.7276,1.2235-1.1096L28.5078,29.4063h31.4622
		c0-0.0014,0-0.004,0-0.0081L17.4551,2.7794c-0.591,0.2666-1.188,0.5333-1.7583,0.8442L54.2415,27.758z"/>
	<path class="st1" d="M14.6703,4.2496c-0.5569,0.331-1.115,0.662-1.6503,1.0305v49.44c0.5353,0.3685,1.0934,0.7008,1.6503,1.0306
		V4.2496z"/>
	<path class="st2" d="M54.2415,27.758L15.6968,3.6237c-0.3503,0.1903-0.6807,0.4181-1.0265,0.6259v51.501
		c1.7595,1.0532,3.629,1.9271,5.5951,2.6024H39.736c3.6264-1.2475,6.9358-3.1546,9.7829-5.6031l-24.988-24.992H54.2415z"/>
	<g>
		<path class="st0" d="M29.5283,22.3197l-0.7318-0.5561l1.4407-1.0749l-1.7442-0.4475l0,0l0.9172-1.5452l-1.7777,0.2573l0,0
			l0.2533-1.7823l-1.5472,0.9219c0-0.004,0-0.004,0-0.004l-0.4442-1.7407l-1.0788,1.4406l-1.0775-1.4406l-0.4477,1.7407
			c0,0,0,0,0,0.004l-1.5451-0.9219l0.2552,1.7823l0,0l-1.7816-0.2573l0.9159,1.5452l0,0l-1.7435,0.4475l1.4427,1.0749l-0.731,0.5561
			c-1.7314-1.0372-3.097-2.624-3.8421-4.5242c0.0033,4.7279,3.8314,8.5406,8.5547,8.5406c4.7205,0,8.5499-3.8126,8.5526-8.5406
			C32.6207,19.6958,31.2598,21.2825,29.5283,22.3197z"/>
		<polygon class="st0" points="30.447,44.5671 30.447,44.5671 34.0063,43.0622 30.447,41.5478 30.447,41.5478 32.7755,38.4629 
			28.938,38.9359 28.938,38.9359 29.4096,35.0965 26.3234,37.427 26.3234,37.427 24.8158,33.8677 23.3047,37.427 23.3047,37.427 
			20.2204,35.0965 20.6936,38.9359 20.6936,38.9359 16.8561,38.4629 19.1818,41.5478 19.1818,41.5478 15.6245,43.0622 
			19.1818,44.5671 19.1818,44.5671 16.8561,47.6548 20.6936,47.1791 20.6936,47.1791 20.6936,47.1791 20.6936,47.1791 
			20.2204,51.0145 23.3047,48.6907 23.3047,48.6907 24.8158,52.2488 26.3234,48.6907 26.3234,48.6907 29.4096,51.0145 
			28.938,47.1791 28.938,47.1791 28.938,47.1791 28.938,47.1791 32.7755,47.6548 		"/>
	</g>
</g>
</svg>
