<?xml version="1.0" encoding="utf-8"?>
<!-- Generator: Adobe Illustrator 22.0.0, SVG Export Plug-In . SVG Version: 6.00 Build 0)  -->
<svg version="1.1" id="Layer_1" xmlns="http://www.w3.org/2000/svg" xmlns:xlink="http://www.w3.org/1999/xlink" x="0px" y="0px"
	 viewBox="0 0 60 60" style="enable-background:new 0 0 60 60;" xml:space="preserve">
<style type="text/css">
	.st0{clip-path:url(#SVGID_2_);}
	.st1{fill:#002B7F;}
	.st2{fill:#FFC61E;}
	.st3{fill:#FFFFFF;}
</style>
<g>
	<defs>
		<circle id="SVGID_1_" cx="30" cy="30" r="30"/>
	</defs>
	<clipPath id="SVGID_2_">
		<use xlink:href="#SVGID_1_"  style="overflow:visible;"/>
	</clipPath>
	<g class="st0">
		<rect x="-30" class="st1" width="120" height="60"/>
		<rect x="-30" y="27.5" class="st2" width="120" height="5"/>
		<path class="st3" d="M18.4583,52.5l-1.0946-4.3733l-3.1346,3.2401l1.2387-4.3346l-4.3347,1.2387l3.2401-3.1346L10,44.0417
			l4.3733-1.0946l-3.2401-3.1346l4.3347,1.2387l-1.2387-4.3346l3.1346,3.2401l1.0946-4.3733l1.0946,4.3733l3.1346-3.2401
			l-1.2387,4.3346l4.3347-1.2387l-3.2401,3.1346l4.3733,1.0946l-4.3733,1.0946l3.2401,3.1346l-4.3347-1.2387l1.2387,4.3346
			l-3.1346-3.2401L18.4583,52.5z"/>
	</g>
</g>
</svg>
