<?xml version="1.0" encoding="utf-8"?>
<!-- Generator: Adobe Illustrator 22.0.0, SVG Export Plug-In . SVG Version: 6.00 Build 0)  -->
<svg version="1.1" id="Layer_1" xmlns="http://www.w3.org/2000/svg" xmlns:xlink="http://www.w3.org/1999/xlink" x="0px" y="0px"
	 viewBox="0 0 60 60" style="enable-background:new 0 0 60 60;" xml:space="preserve">
<style type="text/css">
	.st0{clip-path:url(#SVGID_2_);}
	.st1{fill:#002868;}
	.st2{clip-path:url(#SVGID_2_);fill:none;}
	.st3{clip-path:url(#SVGID_2_);fill:#FFFFFF;}
	.st4{clip-path:url(#SVGID_4_);}
	.st5{clip-path:url(#SVGID_4_);fill:#CF142B;}
	.st6{clip-path:url(#SVGID_2_);fill:#CF142B;}
	.st7{fill:#FCD116;}
</style>
<g>
	<defs>
		<circle id="SVGID_1_" cx="30" cy="30" r="30"/>
	</defs>
	<clipPath id="SVGID_2_">
		<use xlink:href="#SVGID_1_"  style="overflow:visible;"/>
	</clipPath>
	<g class="st0">
		<rect id="XMLID_22_" x="-30" class="st1" width="120" height="60"/>
	</g>
	<path class="st2" d="M-30,0l20,10l4,2l1.436,0.718l1.408,0.704l1.73,0.864L0,15l1.59,0.794l0.39,0.196l2.584,1.292L6,18l4,2l20,10
		 M30,0L10,10l-4,2l-1.436,0.718l-1.408,0.704l-1.73,0.864L0,15l-1.59,0.794l-0.39,0.196l-2.584,1.292L-6,18l-4,2l-20,10"/>
	<polygon id="XMLID_19_" class="st3" points="30,26.646 31.342,27.316 28.658,32.684 23.29,30 5,20.854 3,19.854 2.35,19.53 
		0,18.354 -2.35,19.53 -3,19.854 -5,20.854 -23.29,30 -28.658,32.684 -30,30 -30,26.646 -16.708,20 -6.708,15 -16.708,10 -30,3.354 
		-30,0 -23.29,0 -5,9.146 -3,10.146 -2.35,10.47 -0.49,11.402 0,11.646 0.49,11.402 2.35,10.47 3,10.146 5,9.146 23.29,0 30,0 
		31.342,2.684 30,3.354 16.708,10 6.708,15 16.708,20 	"/>
	<g class="st0">
		<defs>
			<path id="SVGID_3_" d="M-30,0v15h70v15H30L-30,0z M-30,30v10H0V0h30L-30,30z"/>
		</defs>
		<clipPath id="SVGID_4_">
			<use xlink:href="#SVGID_3_"  style="overflow:visible;"/>
		</clipPath>
		<path class="st4" d="M-30,0l60,30 M30,0l-60,30"/>
		<polygon id="XMLID_14_" class="st5" points="29.1056,31.7889 0,17.236 -29.1056,31.7889 -30.8944,28.2111 -4.4722,15 
			-30.8944,1.7889 -29.1056,-1.7889 0,12.764 29.1056,-1.7889 30.8943,1.7889 4.4722,15 30.8943,28.2111 		"/>
	</g>
	<path class="st2" d="M0,0v2.29v2.072v2.074v3.46v1.75v1.776V15v1.95v1.404v1.75v2.186v2.072v2.074V30v10 M-30,15h10.524h1.096h1.76
		h1.096h8.816h1.604h2.422h1.024H0h1.658h1.024h2.422h1.604h8.816h1.096h1.76h1.096H30h10"/>
	<polygon id="XMLID_11_" class="st3" points="5,40 -5,40 -5,20 -30,20 -30,10 -5,10 -5,0 5,0 5,10 40,10 40,20 5,20 	"/>
	<path class="st2" d="M0,0v2.29v2.072v2.074v3.46v1.75v1.776V15v1.95v1.404v1.75v2.186v2.072v2.074V30v10 M-30,15h10.524h1.096h1.76
		h1.096h8.816h1.604h2.422h1.024H0h1.658h1.024h2.422h1.604h8.816h1.096h1.76h1.096H30h10"/>
	<polygon id="XMLID_8_" class="st6" points="3,40 -3,40 -3,18 -30,18 -30,12 -3,12 -3,0 3,0 3,12 40,12 40,18 3,18 	"/>
	<g class="st0">
		<path id="XMLID_7_" class="st7" d="M30,0h60v60H-30V30h60V0z"/>
	</g>
	<g class="st0">
		<path class="st7" d="M4.8541,13.4228H4.8299C4.1625,11.3811,2.2646,9.8961,0,9.8961s-4.1625,1.485-4.8299,3.5267h-0.0242
			l0.0197,0.0143C-4.9947,13.9326-5.1039,14.4512-5.1039,15c0,1.6956,0.8359,3.1871,2.1084,4.1152L-3,19.1292l0.0114-0.0083
			C-2.147,19.7325-1.12,20.1039,0,20.1039s2.147-0.3714,2.9886-0.983L3,19.1292l-0.0045-0.0139
			C4.2679,18.1871,5.1039,16.6956,5.1039,15c0-0.5488-0.1092-1.0674-0.2695-1.5629L4.8541,13.4228z"/>
		<polygon class="st7" points="-16.8264,14.363 -17.5,12.29 -18.1736,14.363 -20.3531,14.363 -18.5898,15.6441 -19.2634,17.717 
			-17.5,16.4359 -15.7366,17.717 -16.4102,15.6441 -14.6468,14.363 		"/>
		<polygon class="st7" points="18.5898,15.6441 20.3531,14.363 18.1736,14.363 17.5,12.29 16.8264,14.363 14.6469,14.363 
			16.4102,15.6441 15.7366,17.717 17.5,16.4359 19.2634,17.717 		"/>
		<polygon class="st7" points="0.6736,24.363 0,22.29 -0.6736,24.363 -2.8531,24.363 -1.0898,25.6441 -1.7634,27.717 0,26.4359 
			1.7634,27.717 1.0898,25.6441 2.8531,24.363 		"/>
		<polygon class="st7" points="-1.0898,5.6441 -1.7634,7.717 0,6.4359 1.7634,7.717 1.0898,5.6441 2.8531,4.363 0.6736,4.363 
			0,2.29 -0.6736,4.363 -2.8531,4.363 		"/>
	</g>
</g>
</svg>
