<?xml version="1.0" encoding="utf-8"?>
<!-- Generator: Adobe Illustrator 21.1.0, SVG Export Plug-In . SVG Version: 6.00 Build 0)  -->
<svg version="1.1" id="Layer_1" xmlns="http://www.w3.org/2000/svg" xmlns:xlink="http://www.w3.org/1999/xlink" x="0px" y="0px"
	 viewBox="0 0 60 60" style="enable-background:new 0 0 60 60;" xml:space="preserve">
<style type="text/css">
	.st0{fill:#FFFFFF;}
	.st1{fill:#E31937;}
	.st2{fill:#004990;}
</style>
<g>
	<g>
		<path class="st0" d="M44.7243,29.1993l1.9498-1.4152l1.9512,1.4152l-0.7479-2.2915l1.9499-1.4166h-2.4068l-0.7464-2.2928
			l-0.7424,2.2928h-2.4122l1.9498,1.4166L44.7243,29.1993z M44.5916,25.8451h1.5907l0.4918-1.5198l0.4918,1.5198h1.5973
			l-1.2918,0.9353l0.4892,1.5129l-1.2865-0.934l-1.2865,0.934l0.4904-1.5129L44.5916,25.8451z"/>
		<polygon class="st1" points="45.3877,28.2933 46.6742,27.3594 47.9606,28.2933 47.4714,26.7804 48.7633,25.8451 47.166,25.8451 
			46.6742,24.3253 46.1823,25.8451 44.5916,25.8451 45.8781,26.7804 		"/>
		<g>
			<path class="st2" d="M35.4187,0.4985v2.9723l-10.5451,7.0301h10.5451v8.9987H24.8346l10.5841,7.0516v3.4481h-5.2036
				l-12.7978-8.5297v8.5297H8.4185v-8.5297l-8.2672,5.5091C0.0523,27.9704,0,28.9795,0,29.9993l0,0
				c0.0026,16.5663,13.4344,29.9993,30.0007,29.9993S60,46.5656,60,29.9993C60,15.281,49.3959,3.046,35.4187,0.4985z
				 M48.6254,29.1993l-1.9512-1.4152l-1.9498,1.4152l0.7451-2.2915l-1.9498-1.4166h2.4122l0.7424-2.2928l0.7464,2.2928h2.4068
				l-1.9499,1.4166L48.6254,29.1993z M30.0583,0h-0.1153c-4.4745,0.008-8.7133,1.0023-12.5258,2.7687v5.7878l12.8273-8.5497
				C30.1829,0.0053,30.1213,0,30.0583,0z"/>
			<polygon class="st0" points="15.5411,20.218 15.5411,29.9993 17.4172,29.9993 17.4172,21.4696 			"/>
			<polygon class="st0" points="24.8346,19.4996 35.4187,19.4996 35.4187,17.6249 22.0231,17.6249 			"/>
			<polygon class="st0" points="8.4185,21.4696 8.4185,29.9993 10.2933,29.9993 10.2933,20.218 			"/>
			<path class="st0" d="M17.4172,8.5564V2.7687c-0.6338,0.2908-1.2625,0.6057-1.8762,0.9421v6.0947L17.4172,8.5564z"/>
			<path class="st0" d="M2.6748,17.6249c-0.1581,0.3525-0.3136,0.7077-0.4609,1.064l1.5947-1.064H2.6748z"/>
			<polygon class="st0" points="35.4187,10.5009 24.8735,10.5009 22.0607,12.3731 35.4187,12.3731 			"/>
			<path class="st0" d="M10.2933,7.3933C9.7733,7.8422,9.2653,8.3098,8.7789,8.799l1.5144,1.0064V7.3933z"/>
			<polygon class="st0" points="22.0231,17.6249 15.5411,17.6249 15.5411,20.218 17.4172,21.4696 30.2151,29.9993 35.4187,29.9993 
				35.4187,29.9122 19.7624,19.4996 23.323,19.4996 35.4187,27.547 35.4187,26.5512 24.8346,19.4996 			"/>
			<path class="st0" d="M10.2933,9.8055L8.7789,8.799c-1.1069,1.1069-2.1267,2.305-3.0486,3.574h4.563V9.8055z"/>
			<path class="st0" d="M15.5411,9.8055v2.5676h6.5196l2.8129-1.8722l10.5451-7.0301V0.4985
				c-0.1956-0.0376-0.3886-0.0751-0.5842-0.1073L19.6351,10.5009h-2.2178V9.6072L31.775,0.0563
				c-0.508-0.0321-1.0173-0.0483-1.5305-0.0496L17.4172,8.5564L15.5411,9.8055z"/>
			<path class="st0" d="M10.2933,20.218v-2.5932H3.8086l-1.5947,1.064c-0.5655,1.3843-1.0252,2.8196-1.3776,4.3017l5.2424-3.491
				h2.3398v0.8149L0.3122,25.707c-0.0603,0.4194-0.1165,0.8428-0.1609,1.2717l8.2672-5.5091L10.2933,20.218z"/>
			<path class="st1" d="M10.2933,17.6249v2.5932v9.7813h5.2478V20.218v-2.5932h6.482h13.3956v-5.2518h-13.358h-6.5196V9.8055V3.7107
				c-1.8801,1.0385-3.6384,2.2768-5.2478,3.6826v2.4122v2.5676h-4.563c-1.1874,1.6349-2.2138,3.3918-3.0555,5.2518h1.1338H10.2933z"
				/>
			<polygon class="st1" points="19.7624,19.4996 35.4187,29.9122 35.4187,27.547 23.323,19.4996 			"/>
			<path class="st1" d="M17.4172,10.5009h2.2178L34.8345,0.3912c-1.0052-0.1634-2.0249-0.276-3.0594-0.335L17.4172,9.6072V10.5009z"
				/>
			<path class="st1" d="M8.4185,19.4996H6.0787l-5.2424,3.491c-0.2159,0.8898-0.3914,1.7944-0.524,2.7164l8.1063-5.3926V19.4996z"/>
		</g>
	</g>
</g>
</svg>
