<?xml version="1.0" encoding="utf-8"?>
<!-- Generator: Adobe Illustrator 21.0.2, SVG Export Plug-In . SVG Version: 6.00 Build 0)  -->
<svg version="1.1" id="Layer_1" xmlns="http://www.w3.org/2000/svg" xmlns:xlink="http://www.w3.org/1999/xlink" x="0px" y="0px"
	 viewBox="0 0 43.7 43.7" style="enable-background:new 0 0 43.7 43.7;" xml:space="preserve">
<style type="text/css">
	.st0{fill:#0067C6;}
	.st1{fill:#FFFFFF;}
	.st2{fill:#D21034;}
</style>
<g>
	<g>
		<path class="st0" d="M0,21.8613c0,12.0723,9.7876,21.8594,21.8599,21.8594V21.8613H0z"/>
		<path class="st1" d="M21.8599,21.8613v21.8594c12.0737,0,21.8604-9.7871,21.8604-21.8594H21.8599z"/>
		<path class="st1" d="M21.8599,0C9.7876,0,0,9.7881,0,21.8613h21.8599V0z"/>
		<path class="st2" d="M43.7203,21.8613C43.7203,9.7881,33.9336,0,21.8599,0v21.8613H43.7203z"/>
		<polygon class="st0" points="10.9297,5.7539 12.2129,9.709 16.3726,9.709 13.0083,12.1504 14.2911,16.1074 10.9297,13.6602 
			7.565,16.1074 8.8521,12.1504 5.4874,9.709 9.647,9.709 		"/>
		<polygon class="st2" points="31.6246,26.4512 32.9073,30.4014 37.0669,30.4014 33.7022,32.8457 34.9874,36.8008 31.6246,34.3565 
			28.2603,36.8008 29.5459,32.8457 26.1817,30.4014 30.3418,30.4014 		"/>
	</g>
</g>
</svg>
