<?xml version="1.0" encoding="utf-8"?>
<!-- Generator: Adobe Illustrator 21.1.0, SVG Export Plug-In . SVG Version: 6.00 Build 0)  -->
<svg version="1.1" id="Layer_1" xmlns="http://www.w3.org/2000/svg" xmlns:xlink="http://www.w3.org/1999/xlink" x="0px" y="0px"
	 viewBox="0 0 60 60" style="enable-background:new 0 0 60 60;" xml:space="preserve">
<style type="text/css">
	.st0{clip-path:url(#SVGID_2_);}
	.st1{fill:#CE1126;}
	.st2{fill:#FFFFFF;}
	.st3{clip-path:url(#SVGID_4_);}
	.st4{fill:#FF9C10;}
	.st5{fill:#083D9C;stroke:#083D9C;stroke-width:0.3086;}
	.st6{fill:#083D9C;stroke:#083D9C;stroke-width:0.2898;}
	.st7{fill:#CE1126;stroke:#630810;stroke-width:0.2898;stroke-linejoin:round;}
	.st8{fill:#630810;stroke:#630810;stroke-width:0.4187;stroke-linecap:round;}
</style>
<g>
	<defs>
		<circle id="SVGID_1_" cx="30" cy="30" r="30"/>
	</defs>
	<clipPath id="SVGID_2_">
		<use xlink:href="#SVGID_1_"  style="overflow:visible;"/>
	</clipPath>
	<g class="st0">
		<rect x="-15" class="st1" width="90" height="60"/>
		<rect x="-15" y="15" class="st2" width="90" height="30"/>
		<g>
			<defs>
				<ellipse id="SVGID_3_" cx="30" cy="30.15" rx="12.8773" ry="13.2283"/>
			</defs>
			<clipPath id="SVGID_4_">
				<use xlink:href="#SVGID_3_"  style="overflow:visible;"/>
			</clipPath>
			<g class="st3">
				<g>
					<path class="st4" d="M26.5935,28.653l-2.1863-0.0629v-0.8643L26.5935,28.653L26.5935,28.653z"/>
					<path class="st4" d="M26.5845,28.401l-2.1773-1.1074v-1.4403c0,0-0.2551,0.0359-0.2187-0.2521
						c0.012-0.6002,1.6,1.0954,2.4139,1.6476l-0.0182,1.1524L26.5845,28.401z"/>
					<path class="st4" d="M17.1555,32.1555l4.5909,0.036v-2.8449l-5.247-0.2505l0.656,3.0608L17.1555,32.1555z"/>
					<path class="st4" d="M16.9365,28.23l4.8826,0.4681l-0.0363-2.0166l-4.7733-1.8726L16.9365,28.23L16.9365,28.23z"/>
					<path class="st4" d="M17.9205,24.198l3.7531,1.8004l0.5359-0.5529c0,0-0.3451-0.235-0.3281-0.4513
						c0.0065-0.2187,0.3472-0.2519,0.3537-0.4893c0.0063-0.2187-0.3859-0.245-0.3902-0.4639
						c-0.0256-0.2372,0.3023-0.4915,0.3023-0.4915l-3.3886-2.9169L17.9205,24.198L17.9205,24.198z"/>
					<path class="st4" d="M42.552,32.1915h-4.8461l-0.0363-2.7728l5.3196-0.3962l-0.4372,3.1691L42.552,32.1915z"/>
					<path class="st4" d="M42.6705,28.1865c-0.0612-0.4502-0.1254-0.8992-0.2297-1.3406c-0.1397-0.591-0.3181-1.1725-0.5344-1.7391
						c-0.016-0.0418-0.0399-0.0802-0.0563-0.1219l-4.1437,1.7343l0.0375,2.0532L42.6705,28.1865L42.6705,28.1865z"/>
					<path class="st4" d="M39.8385,21.5205c-0.8266,0.625-1.6532,1.25-2.4797,1.875c0.0041,0.1794,0.1829,0.3173,0.2322,0.4891
						c0.1145,0.2409-0.1131,0.4539-0.2539,0.6242c-0.1141,0.157,0.1318,0.2371,0.2136,0.3299
						c0.18,0.1848,0.0232,0.4743-0.1685,0.5818c0.231,0.1382,0.3476,0.3968,0.3984,0.6516c1.2375-0.6438,2.475-1.2875,3.7125-1.9312
						C41.0492,23.2054,40.4955,22.321,39.8385,21.5205L39.8385,21.5205z"/>
					<path class="st4" d="M32.934,28.716l2.0768-0.0899l0.0363-0.8285l-2.1132,0.9184L32.934,28.716z"/>
					<path class="st4" d="M32.9325,28.266l-0.0089-0.9362c0,0,1.9672-1.7554,2.3863-2.0796c0,0.3602-0.2276,0.6391-0.2276,0.6391
						v1.3685L32.9325,28.266L32.9325,28.266z"/>
					<path class="st4" d="M20.181,20.3805c0.0363,0.036,2.2077,2.421,2.2077,2.421c0.0609-0.226,0.5615-0.2604,1.0716-0.2243
						c0.5103,0.0359,0.9169-0.0338,0.9169,0.3264c0,0.36-0.2589,0.3089-0.2589,0.561s0.3879,0.231,0.3879,0.5547
						c0,0.3241-0.2813,0.258-0.2827,0.5089c-0.0009,0.2074,0.2934,0.2185,0.2934,0.2185l2.0677,1.9808l0.009-2.1157l-4.263-6.6078
						l-2.1496,2.3767L20.181,20.3805z"/>
					<path class="st4" d="M23.592,17.8785c0.0324,0.0961,2.8875,5.8359,2.8875,5.8359s0.0324-5.3869,0.5191-5.6756l-0.811-1.4751
						L23.592,17.8785L23.592,17.8785z"/>
					<path class="st4" d="M32.9115,17.259c-0.3594,1.2422-0.7188,2.4843-1.0781,3.7266c0.3361,0.04,0.6756,0.0508,1.0134,0.0321
						c0.3037,0.0261,0.0671,0.3108,0.0833,0.4793c-0.0015,0.7639-0.003,1.5279-0.0045,2.2917
						c1.0156-1.7937,2.0313-3.5875,3.0468-5.3812c-0.7005-0.3656-1.4441-0.6372-2.1924-0.8858
						C33.4947,17.4209,33.2046,17.3336,32.9115,17.259L32.9115,17.259z"/>
					<path class="st4" d="M36.7035,18.816c-1.2562,1.9312-2.5125,3.8625-3.7687,5.7938c-0.0016,0.7437-0.0031,1.4875-0.0047,2.2312
						c0.8392-0.7984,1.6826-1.5926,2.5191-2.3935c0.1588-0.2248-0.504-0.3349-0.1727-0.6088
						c0.3001-0.0946,0.351-0.5794,0.035-0.6726c-0.2604-0.3823,0.2355-0.5849,0.548-0.543
						c0.4351,0.0199,0.8833-0.0947,1.3088,0.0261c0.2342,0.224,0.45-0.3383,0.6798-0.4648
						c0.4545-0.4572,0.9095-0.9138,1.3588-1.3761C38.4662,20.0364,37.6208,19.366,36.7035,18.816L36.7035,18.816z"/>
				</g>
				<g>
					<path class="st5" d="M26.982,41.3115c-0.9267,0.0523-1.8501,0.6777-2.2828,1.0125c0.777,0.3401,1.6065,0.6055,2.4891,0.7875
						c1.4062,0.2361,2.8125,0.2344,4.2188,0.2344c0.2296-0.0289,0.4567-0.0616,0.6797-0.0984l2.9625-0.9984
						c0,0-1.4251-0.9407-2.5546-0.9c-1.1297,0.0407-1.8923,1.1457-2.8032,1.0641c-0.9109-0.0815-1.2757-1.1016-2.5875-1.1016
						C27.0628,41.3115,27.023,41.3092,26.982,41.3115L26.982,41.3115z"/>
					<path class="st6" d="M21.6015,40.5465l16.8345,0.0721c0,0-1.4574-1.5485-3.1701-1.5844
						c-1.7126-0.0363-1.2387,0.7202-2.5504,0.828c-1.3117,0.1081-1.6398-0.7921-2.8422-0.7562
						c-1.2023,0.0359-1.8948,0.7562-2.8055,0.7924c-0.9109,0.0359-2.0769-0.9005-2.7693-0.8642
						c-0.6924,0.0359-3.1701,1.0802-3.1701,1.0802l0.4737,0.4321L21.6015,40.5465z"/>
					<path class="st6" d="M19.452,38.565l20.769,0.0722c0.3278-0.4681-1.0203-1.5844-2.259-1.6926
						c-1.0205,0.0359-1.749,1.0443-2.5871,1.0804c-0.8381,0.0359-1.7853-1.0445-2.7328-1.0082
						c-0.9473,0.0359-1.9311,1.0082-2.8785,1.0082c-0.9473,0-1.6397-1.0445-2.8419-1.0445c-1.2024,0-1.749,1.1524-2.66,1.0804
						c-0.9111-0.0721-1.7127-1.1523-2.587-1.1523c-0.8744,0-2.3319,1.2963-2.6234,1.2242c-0.2915-0.072,0.3642,0.5402,0.4009,0.4321
						L19.452,38.565z"/>
					<path class="st6" d="M27.4815,36.579l4.6362-0.0027c0.0361-0.036-1.038-1.5825-2.3174-1.4734
						C28.3751,35.1397,27.4069,36.579,27.4815,36.579L27.4815,36.579z"/>
					<path class="st6" d="M42.2655,36.468h-6.3441c0,0,0.8211-0.4796,1.045-0.9221c0.4104,0.2213,0.2985,0.4426,1.1196,0.4794
						c0.8209,0.0369,1.6045-0.9219,2.3885-0.885C41.258,35.1772,42.2655,36.5049,42.2655,36.468L42.2655,36.468z"/>
					<path class="st6" d="M17.265,36.468h6.3441c0,0-0.8211-0.4796-1.045-0.9221c-0.4104,0.2213-0.2985,0.4426-1.1196,0.4794
						c-0.8208,0.0369-1.6046-0.9219-2.3885-0.885C18.2726,35.1772,17.265,36.5049,17.265,36.468L17.265,36.468z"/>
					<path class="st6" d="M17.739,34.497l4.5182,0.0359c0,0-0.2915-0.6121-0.3278-1.3683
						c-1.1663-0.3959-2.1135,0.8642-2.9516,0.9002c-0.8378,0.0359-1.7122-0.9002-1.7122-0.9002L17.739,34.497L17.739,34.497z"/>
					<path class="st6" d="M41.8605,34.497l-4.5183,0.0359c0,0,0.2916-0.6121,0.3279-1.3683
						c1.1662-0.3959,2.1133,0.8642,2.9515,0.9002c0.838,0.0359,1.7124-0.9002,1.7124-0.9002L41.8605,34.497L41.8605,34.497z"/>
					<path class="st6" d="M28.6335,34.533l2.2953-0.0718c0,0,0.0366-0.6843-1.1659-0.6843
						C28.5605,33.7769,28.6699,34.5692,28.6335,34.533L28.6335,34.533z"/>
				</g>
				<g>
					<path class="st7" d="M27.4305,27.15l4.7734,1.2605v-6.7343c-2.1864,0.1081-4.008-4.1052-0.1457-4.3932
						c-3.7894-0.5402-4.2269,0.4321-4.6639,1.4764l0.0363,8.3905L27.4305,27.15z"/>
					<path class="st7" d="M28.491,33.237c-1.0382,1.6995-3.8137,1.1955-4.4628,0.009c-0.1945-0.0545-0.0794-7.32-0.0794-7.32
						s-0.3101-0.1396-0.3244-0.363c-0.0142-0.2256,0.4217-0.2461,0.4217-0.5349c0-0.2885-0.4452-0.1754-0.4541-0.4659
						c0.0019-0.2777,0.4752-0.2394,0.4541-0.4961c-0.025-0.2893-0.5301-0.2464-0.5515-0.5131
						c-0.0164-0.2118,0.3613-0.3965,0.4662-0.4918c-0.0679,0.0033-0.3508-0.0042-0.3526-0.0051
						c-0.265,0.0054-0.5301,0.0107-0.795,0.0161c-0.5648,0.0006,0.0098,0.1217,0.0015,0.4438
						c-0.0052,0.2104-0.2864,0.3504-0.3116,0.5333c-0.0089,0.1878,0.4024,0.3197,0.4076,0.5451
						c0.0047,0.2011-0.4041,0.2148-0.3894,0.4017c0.0254,0.3163,0.3621,0.3858,0.3571,0.5773
						c-0.0052,0.1912-0.4531,0.2642-0.4543,0.4168c0.0156,0.2952,0.0649,7.471,0.0649,7.471
						c0.7138,3.6555,4.8342,4.5854,6.0022-0.2243L28.491,33.237z"/>
					<path class="st7" d="M31.2075,33.237c1.0382,1.6995,3.8136,1.1955,4.4627,0.009c0.1945-0.0545,0.0795-7.32,0.0795-7.32
						s0.3101-0.1396,0.3243-0.363c0.0142-0.2256-0.3944-0.2461-0.3944-0.5349c0-0.2885,0.418-0.1754,0.4268-0.4659
						c-0.0018-0.2777-0.4388-0.2574-0.4176-0.5142c0.0249-0.2891,0.368-0.2554,0.3875-0.522
						c0.0164-0.2297-0.2154-0.3695-0.3204-0.4648c0.0679,0.0033,0.3325-0.0042,0.3344-0.0051
						c0.2649,0.0054,0.53,0.0107,0.7949,0.0161c0.5649,0.0006-0.0098,0.1217-0.0014,0.4438
						c0.0051,0.2104,0.2863,0.3504,0.3116,0.5333c0.0088,0.1878-0.4025,0.3197-0.4077,0.5451
						c-0.0046,0.2011,0.4043,0.2148,0.3895,0.4017c-0.0254,0.3163-0.3621,0.3858-0.3569,0.5773
						c0.0051,0.1912,0.4531,0.2642,0.4542,0.4168c-0.0155,0.2952-0.0647,7.4711-0.0647,7.4711
						c-0.7139,3.6555-4.8342,4.5854-6.0022-0.2243L31.2075,33.237z"/>
				</g>
				<g>
					<path class="st8" d="M27.249,33.5595c0.4009-0.2162,0.7652-0.4321,1.0203-0.9364l-1.5669,0.0359
						c0,0-0.7285,0.4323-1.093,0.9005L27.249,33.5595L27.249,33.5595z"/>
					<path class="st8" d="M32.313,33.5595c-0.4009-0.2162-0.765-0.4321-1.0202-0.9364l1.5668,0.0359c0,0,0.7286,0.4323,1.093,0.9005
						L32.313,33.5595L32.313,33.5595z"/>
					<path class="st8" d="M24.4065,32.0475l10.7854,0.0359"/>
					<g id="x">
						<path class="st8" d="M24.9165,29.4915l1.2753,1.6926"/>
						<path class="st8" d="M24.9165,31.1835l1.3847-1.6565"/>
						<path class="st8" d="M25.6455,29.382l-0.0364,1.0443"/>
					</g>
					<g>
						<g id="x_1_">
							<path class="st8" d="M26.957,29.4915l1.2753,1.6926"/>
							<path class="st8" d="M26.957,31.1835l1.3847-1.6565"/>
							<path class="st8" d="M27.686,29.382l-0.0364,1.0443"/>
						</g>
					</g>
					<g>
						<g id="x_2_">
							<path class="st8" d="M29.0339,29.4915l1.2753,1.6926"/>
							<path class="st8" d="M29.0339,31.1835l1.3847-1.6565"/>
							<path class="st8" d="M29.7629,29.382l-0.0364,1.0443"/>
						</g>
					</g>
					<g>
						<g id="x_3_">
							<path class="st8" d="M31.1837,29.4915l1.2753,1.6926"/>
							<path class="st8" d="M31.1837,31.1835l1.3847-1.6565"/>
							<path class="st8" d="M31.9127,29.382l-0.0364,1.0443"/>
						</g>
					</g>
					<g>
						<g id="x_4_">
							<path class="st8" d="M33.2606,29.4915l1.2753,1.6926"/>
							<path class="st8" d="M33.2606,31.1835l1.3847-1.6565"/>
							<path class="st8" d="M33.9896,29.382l-0.0364,1.0443"/>
						</g>
					</g>
				</g>
			</g>
		</g>
	</g>
</g>
</svg>
