<?xml version="1.0" encoding="utf-8"?>
<!-- Generator: Adobe Illustrator 22.0.0, SVG Export Plug-In . SVG Version: 6.00 Build 0)  -->
<svg version="1.1" id="Layer_1" xmlns="http://www.w3.org/2000/svg" xmlns:xlink="http://www.w3.org/1999/xlink" x="0px" y="0px"
	 viewBox="0 0 60 60" style="enable-background:new 0 0 60 60;" xml:space="preserve">
<style type="text/css">
	.st0{clip-path:url(#SVGID_2_);}
	.st1{fill:#CE1126;}
	.st2{fill:#FCD116;}
	.st3{fill:#FFFFFF;}
</style>
<g>
	<defs>
		<circle id="SVGID_1_" cx="30" cy="30" r="30"/>
	</defs>
	<clipPath id="SVGID_2_">
		<use xlink:href="#SVGID_1_"  style="overflow:visible;"/>
	</clipPath>
	<g class="st0">
		<rect x="-10" width="80" height="60"/>
		<path class="st1" d="M-10,0h80v60L-10,0z"/>
		<path class="st2" d="M39.5297,17.4327c-0.5909,0.7632-1.9891-0.7677-3.6641-0.8026c-1.675-0.035-2.8615,1.6052-3.35,2.1636
			s-2.0588,3.4895-2.0239,3.8036s0.9772-0.8724,1.3261-1.0817c0.0349,0.4188-0.3839,0.9073-0.2792,1.0469
			c0.1047,0.1395,1.2213-0.8375,1.6052-0.8724c0.1047,0.2792-0.2094,0.5583-0.1047,0.977c0.1397,0.1395,0.7678-0.698,1.1865-0.8724
			c0.0697,0.3141-0.3839,0.9073-0.1397,1.2911c0.1745,0.0349,1.2213-1.1864,1.5703-1.3261c0.349-0.1397-0.1745,1.1516,0,1.2563
			c0.3141-0.2094,1.2912-1.3261,1.6053-1.4656c0.3141-0.1395-0.0349,1.4308,0.1047,1.4308
			c0.3838-0.2792,1.3609-1.6052,1.4656-1.8145c0.1047-0.2094-0.1047,2.0239,0.977,3.2105c1.0817,1.1865,2.722,2.5474,2.8964,2.5474
			c0.2094-0.3839-0.0697-1.1864,0.1047-1.1516c0.4885,0.5234,1.3958,1.2911,1.6052,1.2911c0.2094,0-0.1397-0.8375,0.1395-0.8375
			c0.5584,0.5234,2.1636,2.5823,5.3042,3.5245c-0.2094-0.5933-0.6631-1.1167-0.698-1.3958
			c0.2094,0.0349,0.9423,0.3839,1.0818,0.3489c0.1395-0.035-1.5354-2.0938-1.4308-2.373c0.3839-0.0349,0.5584,0.2094,0.698,0.0349
			c-0.1745-0.2791-1.6401-1.9192-1.6401-2.3031c0-0.3839,0.4537,0.0698,0.5933,0c0.1395-0.0698-0.5583-1.5355-0.4188-1.7099
			c0.1395-0.1744,1.6749,0.9422,2.0588,0.9422c0.3839,0,0.1047-1.3609,0.2792-1.4308c0.1745-0.0698,1.4657,0.7328,1.7448,0.7328
			c0.2791,0,0.2442-0.5933,0.3489-0.5234c0.1047,0.0698,3.1406,3.1058,2.0937,6.6651c-1.0469,2.5475-3.1405,3.9084-6.2114,2.7917
			c0.1744,0.2792,1.8145,1.6401,3.5942,1.1516s3.9432-1.8844,3.6989-5.3739c-0.2442-3.4895-1.3959-3.9781-1.5703-4.5016
			c-0.1744-0.5234,0.2793,0.1395,0.6631,0.2792c0.3838,0.1397-0.0698-0.7329-0.1745-1.1168
			c-0.1047-0.3839,1.1516,0.8026,1.4656,0.9073c0.3141,0.1047-0.7328-2.8614-1.0469-3.0708
			c-0.3141-0.2094,0.3141,0.0697,0.5234,0.1395c0.2094,0.0698-1.9193-3.2453-2.373-3.2453c-0.4536,0,0.3838-0.1745,0.6281-0.1745
			c0.2443,0-2.4426-2.1636-2.8963-2.1636c-0.4537,0,0.9769-0.5584,1.1166-0.5933c0.2443,0.0349-3.1057-1.7797-6.1067,0.0349
			c-0.1745-0.1394,1.4134-1.2387,1.4656-1.7098c0.0175-0.1222-0.5233-0.3839-0.5583-0.5234
			c-0.035-0.1395,0.8375-0.5583,0.8724-0.8724c-0.2094-0.2792-0.5933-0.1745-0.8026-0.2442
			c-0.0522-0.2617,0.7329-0.9073,0.6631-1.1864c-0.0523-0.157-0.6282-0.2094-0.7678-0.1047
			c-0.1395,0.1047,0.3665-0.7328,0.2792-0.977c-0.0697-0.1047-0.3489-0.0349-0.6281,0.0349
			c-0.1745-0.0349,0.9073-1.5355,0.698-1.7448c-0.2094-0.2094-3.1407,1.5353-4.2225,3.4895s-0.2441,3.5245-0.3838,4.1875
			s-0.3142,1.3261-0.7678,1.3261c-0.4536,0-1.5004-0.698-1.8494-1.0469c-0.349-0.3489-0.4188-0.5933-0.9073-0.7328
			c-0.4886-0.1395-1.6052,0.2792-2.0239,0.3141c-0.4188,0.0349-2.0589-0.3141-2.1636-0.2094
			c-0.1047,0.1047,1.6052,0.7328,1.9891,0.9422c0.3839,0.2094,0.4189,0.4886,0.698,0.663
			C37.75,15.5831,40.3672,16.3509,39.5297,17.4327z M49.7542,22.353c0.8375,0.8375,6.4906,4.6062,6.4906,9.2125
			s-4.1178,4.4668-5.3042,4.3272c1.3261,1.1166,6.3511,0.9072,6.3511-4.3272c0-4.6063-6.4906-9.2125-7.3281-9.6313
			C49.126,21.5155,48.9167,21.5155,49.7542,22.353z"/>
		<g>
			<polygon class="st3" points="14.5982,41.2675 14.1364,39.7654 13.6694,41.2675 12.1875,41.2675 13.3872,42.1756 12.9431,43.6041 
				14.1191,42.7296 15.3296,43.6458 14.875,42.1675 16.0852,41.2675 			"/>
			<polygon class="st3" points="8.5452,23.4137 7.6572,26.2706 10.009,24.5217 12.4299,26.3542 11.5208,23.3975 13.9413,21.5975 
				10.9673,21.5975 10.0435,18.5933 9.1097,21.5975 6.1458,21.5975 			"/>
			<polygon class="st3" points="1.8006,33.3167 0.8769,30.3125 -0.0569,33.3167 -3.0208,33.3167 -0.6215,35.1329 -1.5095,37.9898 
				0.8423,36.2409 3.2632,38.0733 2.3541,35.1167 4.7746,33.3167 			"/>
			<polygon class="st3" points="20.6439,34.2833 23.0644,32.4833 20.0904,32.4833 19.1667,29.4792 18.2329,32.4833 15.269,32.4833 
				17.6683,34.2995 16.7803,37.1565 19.1321,35.4075 21.553,37.24 			"/>
			<polygon class="st3" points="10.9673,49.15 10.0435,46.1458 9.1097,49.15 6.1458,49.15 8.5452,50.9662 7.6572,53.8231 
				10.009,52.0742 12.4299,53.9067 11.5208,50.95 13.9413,49.15 			"/>
		</g>
	</g>
</g>
</svg>
