<?xml version="1.0" encoding="utf-8"?>
<!-- Generator: Adobe Illustrator 21.0.2, SVG Export Plug-In . SVG Version: 6.00 Build 0)  -->
<svg version="1.1" id="Layer_1" xmlns="http://www.w3.org/2000/svg" xmlns:xlink="http://www.w3.org/1999/xlink" x="0px" y="0px"
	 viewBox="0 0 335 335" style="enable-background:new 0 0 335 335;" xml:space="preserve">
<style type="text/css">
	.st0{fill:#0038A8;}
	.st1{fill:#CE1126;}
	.st2{fill:#FFFFFF;}
	.st3{fill:#FCD116;}
</style>
<g>
	<g>
		<path class="st0" d="M335.0146,167.5042C335.0146,75.0051,260.0103,0,167.5111,0C109.3719,0,58.1913,29.6309,28.1345,74.6082
			l139.3766,92.8961H335.0146z"/>
		<path class="st1" d="M335.0146,167.5042H167.5111L28.1345,260.4141C58.1913,305.3768,109.3719,335,167.5111,335
			C260.0103,335,335.0146,260.0026,335.0146,167.5042z"/>
		<path class="st2" d="M28.1345,74.6082C10.3708,101.1864,0,133.1366,0,167.5042c0,34.3745,10.3708,66.3101,28.1345,92.9099
			l139.3766-92.9099L28.1345,74.6082z"/>
		<g>
			<path id="_x3C_Path_x3E__174_" class="st3" d="M38.4453,240.9148l-6.4576-2.776l-4.5942,5.2899l0.6804-6.9733l-6.4722-2.724
				l6.8545-1.5415l0.6061-6.9733l3.569,6.0385l6.8239-1.5868l-4.6693,5.2531L38.4453,240.9148z"/>
			<path class="st3" d="M91.4364,171.5368c1.0022-1.0397,2.0052-2.0803,2.9928-3.1353c-0.9126-0.7777-2.8281-3.2549-4.0479-3.1047
				c-2.9928,0.3739-5.9634,0.7179-8.934,1.0772c-3.0158,0.374-2.799-0.9056,0.0069-1.3845
				c2.6266-0.4636,5.2157-0.9279,7.8345-1.3914c-1.8634-1.4589-1.9905-1.9079-4.1605-1.3317
				c-2.4917,0.6582-5.896,2.8433-6.8085,0.1793c-0.5914-1.7585-1.9983-2.4917-0.2696-3.4418
				c1.3545-0.7486,2.7161-1.4895,4.0707-2.2297c2.5515-1.3991,2.5216-1.4297,2.9254-4.2954
				c-1.9906,1.3171-3.9958,2.6266-5.9864,3.9736c-0.8972,0.5984-1.773,1.1968-2.671,1.7807
				c-1.4665,0.9731-0.0674-1.5638,0.2322-1.8106c2.4994-1.9385,4.998-3.8609,7.4898-5.7841
				c1.7361-1.347,1.1001-3.0457,1.0848-5.2156c-1.2045,0.0751-4.3023-0.3739-5.0731,0.5685
				c-1.9079,2.3423-3.7858,4.6693-5.6868,7.0039c-1.9002,2.3423-2.6258,1.2573-0.9578-1.0175
				c1.5715-2.1477,3.1277-4.3023,4.6616-6.45c-2.3192,0.2245-2.7461-0.0153-3.9129,1.9377
				c-0.8008,1.3324-1.609,2.6718-2.3945,3.9958c-1.0474,1.7362-0.4787,1.7807-2.5515,0.7632
				c-1.691-0.8382-3.6295-0.3287-3.0756-2.3791c0.4115-1.5041,0.8306-3.0005,1.2275-4.4969
				c0.7555-2.7691,0.7257-2.776-1.0781-5.0884c-0.4259,2.3722-0.8673,4.7213-1.2941,7.0936
				c-0.1946,1.062-0.3739,2.1101-0.5609,3.1951c-0.3218,1.6757-1.1823-1.1003-1.1224-1.4818
				c0.3286-3.1354,0.6734-6.2776,1.0097-9.4052c0.2168-2.163-1.4443-2.8886-3.0081-4.3628
				c-0.8076,0.898-3.2472,2.8059-3.0901,4.0257c0.3517,2.9859,0.7333,5.9565,1.0926,8.9493
				c0.344,3.0227-0.9057,2.7682-1.4068-0.0299c-0.4712-2.6043-0.9432-5.2079-1.4144-7.8268
				c-1.4589,1.8481-1.9232,1.983-1.324,4.1605c0.4115,1.511,0.8229,3.015,1.2121,4.4969c0.5388,1.9599,0.9647,1.586-1.1823,2.3645
				c-1.7882,0.6436-2.6863,2.2519-3.7037,0.4712c-0.7709-1.3393-1.5563-2.6787-2.3348-4.018
				c-1.4589-2.4994-1.4818-2.4994-4.3925-2.8059c1.3767,1.96,2.7835,3.9284,4.1605,5.9113
				c0.6213,0.8528,1.2273,1.7355,1.8709,2.6035c0.9578,1.3992-1.5945,0.0821-1.8489-0.2244
				c-1.9975-2.4243-4.0027-4.8709-5.9856-7.3104c-1.3614-1.691-3.0679-1.0099-5.2155-0.9501
				c0.0826,1.1968-0.2767,4.3176,0.6964,5.0654c2.3791,1.8558,4.7361,3.6594,7.1158,5.4776
				c2.4244,1.8703,1.3692,2.5959-0.9876,0.9945c-2.1699-1.4964-4.3628-3.0005-6.5404-4.467
				c0.2697,2.2902,0.0453,2.7162,2.0358,3.8464c2.3346,1.3317,6.158,2.0503,4.9007,4.7061c-0.7777,1.7063-0.2544,3.405-2.245,2.8886
				c-1.4887-0.4191-2.9928-0.8152-4.4892-1.1823c-2.7982-0.7486-2.7982-0.7179-5.0578,1.085
				c2.3417,0.4191,4.7214,0.8382,7.0928,1.2419c1.0704,0.187,2.1178,0.374,3.1507,0.554c1.6912,0.2843-1.0405,1.1823-1.4443,1.1371
				c-3.1277-0.3065-6.2776-0.6206-9.3907-0.9501c-2.1998-0.2168-2.9032,1.4366-4.385,3.0304
				c0.9133,0.7785,2.8665,3.2326,4.0785,3.0756c2.9553-0.3969,5.9481-0.7862,8.9417-1.1524
				c2.9706-0.3969,2.7683,0.875-0.0077,1.3914c-2.6266,0.4942-5.2301,0.98-7.8345,1.4589c1.8413,1.452,1.983,1.9232,4.1682,1.3095
				c2.5814-0.7103,5.8362-2.9101,6.8016-0.1716c0.6206,1.7585,2.1324,2.5361,0.3739,3.5391
				c-1.3393,0.7555-2.671,1.5117-4.041,2.2672c-2.4917,1.4442-2.4841,1.4665-2.8503,4.362c1.9898-1.3692,3.9728-2.7308,5.9412-4.1
				c0.8673-0.5915,1.7585-1.1976,2.6411-1.8036c1.4366-0.9723,0.0751,1.5638-0.2322,1.8036
				c-2.4687,1.9676-4.9235,3.9506-7.3702,5.9412c-1.7209,1.347-1.0396,3.038-1.003,5.2003c1.2052-0.105,4.3099,0.3141,5.0587-0.6658
				c1.8556-2.3423,3.7114-4.6992,5.5817-7.0714c1.8558-2.379,2.5745-1.3094,0.9578,1.0253
				c-1.5186,2.1622-3.0379,4.3253-4.549,6.5021c2.327-0.2689,2.7461-0.0444,3.8908-2.0052c0.7854-1.347,1.5485-2.671,2.3048-4.0103
				c1.0099-1.7439,0.4712-1.8183,2.4986-0.8529c1.714,0.8306,3.5322,0.3065,3.0005,2.3493
				c-0.3885,1.4664-0.8007,2.9629-1.2045,4.4517c-0.7333,2.799-0.6881,2.8135,1.1302,5.0807
				c0.4115-2.3645,0.8152-4.7359,1.2267-7.1082c0.1802-1.0397,0.3892-2.1101,0.5616-3.1498
				c0.2988-1.6841,1.1823,1.0551,1.1447,1.4512c-0.344,3.1353-0.6513,6.263-0.9578,9.3907
				c-0.2245,2.192,1.4443,2.9032,3.0227,4.3773c0.7785-0.9057,3.2326-2.8434,3.0756-4.0778
				c-0.3816-2.9636-0.7785-5.9488-1.1447-8.934c-0.3892-2.9705,0.875-2.7614,1.3914,0c0.4865,2.6412,0.9876,5.2371,1.4665,7.8491
				c1.4443-1.8634,1.9155-1.9983,1.3095-4.1827c-0.4335-1.4895-0.8382-2.9859-1.2642-4.4823
				c-0.5241-1.9301-0.9578-1.5715,1.1593-2.3569c1.7585-0.6582,2.612-2.2749,3.6671-0.4865
				c0.7932,1.347,1.5707,2.6862,2.3639,3.9958c1.4672,2.4917,1.5039,2.4841,4.3772,2.7913
				c-1.3692-1.9462-2.7605-3.8985-4.1751-5.8439c-0.6137-0.8911-1.2267-1.7738-1.8481-2.6488
				c-1.0099-1.4144,1.5715-0.0905,1.8259,0.2092c2.0052,2.4465,4.0103,4.8708,6.0308,7.2882
				c1.3769,1.6986,3.0604,0.9953,5.2225,0.9424c-0.0973-1.2045,0.262-4.2946-0.7179-5.0432
				c-2.4096-1.8404-4.7888-3.6587-7.1533-5.4999c-2.4465-1.8183-1.347-2.5584,0.9501-0.9723
				c2.2076,1.4888,4.4072,2.9706,6.5994,4.4594c-0.2912-2.3117-0.0667-2.7385-2.0427-3.8686
				c-2.2741-1.242-6.1878-2.0351-4.998-4.5942c0.7631-1.6833,0.2766-3.2847,2.2297-2.7461
				c1.4964,0.3969,2.9861,0.8083,4.4823,1.2198c2.7683,0.7555,2.776,0.7333,5.0807-1.0696
				c-2.058-0.3816-4.0854-0.7486-6.1511-1.1225c-1.0848-0.2023-2.1622-0.4115-3.2694-0.5984
				c-0.4268-0.0827-2.2527-1.6014-0.6657-1.4221C83.3774,170.6687,87.3885,171.1108,91.4364,171.5368z"/>
			<path id="_x3C_Path_x3E__173_" class="st3" d="M121.2466,173.1834l4.1605-5.6646l-4.1904-5.6271l6.689,2.1776l4.0709-5.7167
				l-0.0299,7.0185l6.7043,2.0956l-6.6598,2.1622l0.0451,7.0261l-4.1077-5.6945L121.2466,173.1834z"/>
			<path id="_x3C_Path_x3E__172_" class="st3" d="M38.4078,94.0255l-6.4354,2.8357l-4.6164-5.2822l0.7179,6.9733l-6.4722,2.7691
				l6.8767,1.4734l0.6206,6.9963l3.5468-6.0684l6.8315,1.5493l-4.6915-5.2079L38.4078,94.0255z"/>
		</g>
	</g>
</g>
</svg>
