<?xml version="1.0" encoding="utf-8"?>
<!-- Generator: Adobe Illustrator 21.0.2, SVG Export Plug-In . SVG Version: 6.00 Build 0)  -->
<svg version="1.1" id="Layer_1" xmlns="http://www.w3.org/2000/svg" xmlns:xlink="http://www.w3.org/1999/xlink" x="0px" y="0px"
	 viewBox="0 0 335 335" style="enable-background:new 0 0 335 335;" xml:space="preserve">
<style type="text/css">
	.st0{fill:#FFFFFF;}
	.st1{fill:#006600;}
</style>
<g>
	<g>
		<g>
			<path class="st0" d="M0,167.5073c0,66.0197,38.296,122.9703,93.7993,150.2373v-300.49C38.296,44.5439,0,101.4723,0,167.5073z"/>
			<path class="st1" d="M167.4996,335c92.512,0,167.5042-74.9846,167.5042-167.4927C335.0038,74.9983,260.0116,0,167.4996,0
				c-26.4808,0-51.4323,6.3375-73.7004,17.2546v300.49C116.0674,328.6917,141.0188,335,167.4996,335z"/>
		</g>
		<g>
			<path class="st0" d="M283.7624,203.2594c-31.1395,27.7083-78.8601,24.9177-106.5539-6.2709
				c-27.6746-31.1425-24.8947-78.8371,6.2747-106.5155c1.3393-1.2275,2.7683-2.2895,4.179-3.3752
				c-33.291,10.5663-57.4303,41.6789-57.4303,78.4716c0,45.4794,36.8939,82.3396,82.3511,82.3396
				c33.3133,0,61.938-19.8223,74.9133-48.3015C286.2726,200.865,285.068,202.1369,283.7624,203.2594z"/>
			<polygon class="st0" points="241.9263,104.8168 255.2564,119.1169 272.9754,110.8632 263.514,127.9615 276.8556,142.2608 
				257.6624,138.527 248.1703,155.64 245.7835,136.2146 226.6056,132.5259 244.317,124.2422 			"/>
		</g>
	</g>
</g>
</svg>
