<?xml version="1.0" encoding="utf-8"?>
<!-- Generator: Adobe Illustrator 22.0.0, SVG Export Plug-In . SVG Version: 6.00 Build 0)  -->
<svg version="1.1" id="Layer_1" xmlns="http://www.w3.org/2000/svg" xmlns:xlink="http://www.w3.org/1999/xlink" x="0px" y="0px"
	 viewBox="0 0 60 60" style="enable-background:new 0 0 60 60;" xml:space="preserve">
<style type="text/css">
	.st0{clip-path:url(#SVGID_2_);fill:#00247D;}
	.st1{clip-path:url(#SVGID_4_);fill:#00247D;}
	.st2{clip-path:url(#SVGID_6_);fill:#FFFFFF;}
	.st3{clip-path:url(#SVGID_8_);fill:#FFFFFF;}
	.st4{clip-path:url(#SVGID_10_);fill:#CF142B;}
	.st5{clip-path:url(#SVGID_12_);fill:#CF142B;}
	.st6{fill:#F7E017;stroke:#000000;stroke-width:0.0007;}
	.st7{fill:#337321;stroke:#000000;stroke-width:0.0007;}
	.st8{fill:#316D3A;stroke:#000000;stroke-width:0.0007;}
	.st9{fill:none;stroke:#000000;stroke-width:0.0007;}
	.st10{fill:#006EC7;stroke:#000000;stroke-width:0.0007;}
	.st11{fill:#F7E017;}
	.st12{fill:#FFFFFF;stroke:#000000;stroke-width:0.0007;}
	.st13{fill:#E5E5E5;stroke:#000000;stroke-width:0.0007;}
	.st14{fill:#96877D;stroke:#000000;stroke-width:0.0007;}
	.st15{fill:#CF142B;stroke:#000000;stroke-width:0.0007;}
</style>
<g>
	<g>
		<g>
			<g>
				<g>
					<defs>
						<circle id="SVGID_1_" cx="30" cy="30" r="30"/>
					</defs>
					<clipPath id="SVGID_2_">
						<use xlink:href="#SVGID_1_"  style="overflow:visible;"/>
					</clipPath>
					<rect id="rect2414_2_" x="-30.4259" y="-0.2126" class="st0" width="120.8518" height="60.4256"/>
				</g>
			</g>
		</g>
	</g>
	<g>
		<g>
			<g>
				<g>
					<defs>
						<circle id="SVGID_3_" cx="30" cy="30" r="30"/>
					</defs>
					<clipPath id="SVGID_4_">
						<use xlink:href="#SVGID_3_"  style="overflow:visible;"/>
					</clipPath>
					<rect id="rect124_2_" x="-30.4259" y="-0.2126" class="st1" width="60.4259" height="30.2127"/>
				</g>
			</g>
		</g>
	</g>
	<g>
		<g>
			<g>
				<g>
					<defs>
						<circle id="SVGID_5_" cx="30" cy="30" r="30"/>
					</defs>
					<clipPath id="SVGID_6_">
						<use xlink:href="#SVGID_5_"  style="overflow:visible;"/>
					</clipPath>
					<path id="path146_2_" class="st2" d="M-30.4259-0.2126v3.3771L23.2445,30H30v-3.3775L-23.6704-0.2126H-30.4259z M30-0.2126
						v3.3771L-23.6704,30h-6.7555v-3.3775L23.2445-0.2126H30z"/>
				</g>
			</g>
		</g>
	</g>
	<g>
		<g>
			<g>
				<g>
					<defs>
						<circle id="SVGID_7_" cx="30" cy="30" r="30"/>
					</defs>
					<clipPath id="SVGID_8_">
						<use xlink:href="#SVGID_7_"  style="overflow:visible;"/>
					</clipPath>
					<path id="path136_2_" class="st3" d="M-5.2483-0.2126v30.2127h10.071V-0.2126H-5.2483z M-30.4259,9.8578v10.0709H30V9.8578
						H-30.4259z"/>
				</g>
			</g>
		</g>
	</g>
	<g>
		<g>
			<g>
				<g>
					<defs>
						<circle id="SVGID_9_" cx="30" cy="30" r="30"/>
					</defs>
					<clipPath id="SVGID_10_">
						<use xlink:href="#SVGID_9_"  style="overflow:visible;"/>
					</clipPath>
					<path id="path141_2_" class="st4" d="M-30.4259,11.8722v6.0424H30v-6.0424H-30.4259z M-3.234-0.2126v30.2127h6.0422V-0.2126
						H-3.234z"/>
				</g>
			</g>
		</g>
	</g>
	<g>
		<g>
			<g>
				<g>
					<defs>
						<circle id="SVGID_11_" cx="30" cy="30" r="30"/>
					</defs>
					<clipPath id="SVGID_12_">
						<use xlink:href="#SVGID_11_"  style="overflow:visible;"/>
					</clipPath>
					<path id="path150_2_" class="st5" d="M-30.4259,30.0001l20.1421-10.0714h4.5037l-20.1418,10.0714H-30.4259z M-30.4259-0.2126
						l20.1421,10.0704h-4.5037l-15.6384-7.8185V-0.2126z M5.3542,9.8578L25.4963-0.2126H30L9.8579,9.8578H5.3542z M30,30.0001
						L9.8579,19.9286h4.504L30,27.748V30.0001z"/>
				</g>
			</g>
		</g>
	</g>
</g>
<g>
	<path class="st6" d="M36.3821,42.3048c-0.5949,0.5038-1.1619,1.24-1.3014,1.9056c-0.3923,1.8721-0.9128,2.2886-1.716,1.887
		c0,1.0058,0.8812,1.082,1.2679,0.4945c0,0.9426,0.3421,1.7606,1.1136,2.4577c0.3253,0.2937,0.3867,0.093,0.2324-0.2324
		c-0.1543-0.3253-0.1543-1.3757-0.4629-1.9781c0.4945,0.3551,1.2214,0.1543,1.1601-0.8199
		c-0.6339,0.3718-1.2642,0.3569-1.3293-0.5261C35.2666,44.4576,35.6701,42.9536,36.3821,42.3048z"/>
	<path class="st6" d="M35.6292,34.8591c0.0428-0.3718-0.0372-0.7529-0.3086-0.9928c-0.5243-0.4611-1.0374-0.3086-1.4204,0.0632
		c-0.5726-0.3086-0.8756,0.7864-1.5245,0.6023c0.1078,0.3551,0.2789,0.5094,0.6023,0.3867c-0.3402,0.3086,0,0.6804-0.4016,1.0504
		c0.7269,0.2324,1.1136-0.1692,1.082-0.8663c0.2789,0.2473,0.7102,0.2324,0.9426-0.0465c-0.3867-0.1246-0.3885-0.4592-0.2324-0.7734
		C34.6011,33.8199,35.6905,33.8385,35.6292,34.8591z"/>
	<path class="st7" d="M37.3061,40.2375c-0.8199,0.4332-2.3183,0.2473-2.4577-0.8199s0.8961-1.5468,1.1749-1.6843
		c0.4332-0.2175,0.7734,0.1692,0.634,0.6191c0.4796-0.1692,0.5875-0.7269,0.3551-1.0504c0.6339,0.0465,1.2214-0.4332,1.4687-1.1136
		c-0.2231,0.2119-0.8292,0.0688-1.3274,0.0372c0.1543-0.1692,0.1524-0.5001,0.106-0.6711
		c-0.5243,0.5391-1.2828,0.2919-2.2867,1.8535c0.1543-0.541,0.448-1.623,0.6191-2.335c0.0167-0.0706,0.0297-0.1413,0.039-0.2138
		c0.0595-1.0206-1.0281-1.0392-1.2605-0.5745c0.2547,0.2863,0.1208,0.6209,0.0297,1.1285c-0.1078,0.6023-0.3402,1.9948-0.541,2.4577
		c-0.0614-0.7269-0.541-0.7734-0.634-1.1285c-0.1394,0.093-0.2157,0.3402-0.1859,0.5094c-0.171-0.1859-0.7585,0.0465-0.9742-0.2324
		c-0.2324,0.4629,0.1394,0.9277,0.5261,1.1285c-0.225,0.0149-0.2789,0.2863-0.5261,0.2863c0.3328,0.3867,0.673,0.541,1.0671,0.5726
		c0.3941,0.0316,0.6879,0.1785,0.9277,0.6563C34.4468,40.4383,35.9192,40.9402,37.3061,40.2375z"/>
	<path class="st6" d="M39.3474,39.2931c-0.4629,1.2828-1.7308,2.1956-2.3034,2.335c-0.9742,0.2361-2.9597,1.201-3.4914,1.6974
		c-0.0837-0.0186-0.1617-0.0483-0.2194-0.0892c-0.2621-0.1859-0.4796-0.7883-0.0149-1.2995
		c1.4538-1.3609,3.0155-0.7734,3.9896-1.7011c-0.8199,0.4332-2.3183,0.2473-2.4577-0.8199
		c0.8812,0.2324,2.4745,0.2473,3.7405-1.1136C38.7599,38.4899,39.2544,39.0774,39.3474,39.2931z"/>
	<path class="st7" d="M36.3821,42.3048c-0.7343,0.6228-1.1155,2.1528-1.0374,3.1884c0.0223,0.2882,0.1022,0.4834,0.2249,0.6024
		c0.0539-0.5875,0.4629-2.1064,1.5059-2.7831c0.8812-0.5726,2.2569-1.8554,2.7682-3.3241c-0.093-0.2621-0.2473-0.448-0.541-0.634
		C38.7952,40.7413,37.4399,41.4069,36.3821,42.3048z"/>
	<path class="st8" d="M38.8752,38.6982c-0.2621,0.3941-0.8589,0.9351-1.4296,1.1526c0.1227-0.1394,0.1617-0.316,0.1692-0.4629
		c-0.7269,0.2789-2.1807,0.2473-2.7682,0.0316c0.8812,0.2324,2.4745,0.2473,3.7405-1.1136
		C38.7134,38.4435,38.8212,38.5662,38.8752,38.6982z"/>
	<path class="st7" d="M33.3183,41.9367c-1.1824,1.1062-0.4016,2.071,0.0614,2.2886c-0.1227,0.7734,0.6023,0.6804,0.5875,1.3293
		c0.2937-0.1692,0.3718-0.6191,0.3253-0.9742c0.3718,0.4016,1.3144-0.0465,1.5152,0.6953c0.1246-0.8199-0.5094-1.6379-1.2977-1.5616
		c0.3253-0.2937,0.1394-0.7734-0.1692-0.8961c-0.0614,0.6023-0.7418,0.6023-1.0058,0.4183
		C33.0711,43.0503,32.8535,42.448,33.3183,41.9367z"/>
	<path class="st6" d="M35.8764,48.9715c-0.1283,0.0744-0.119,0.2398-0.039,0.3477c0.1617,0.2157-0.1153,0.7065,0.409,0.8124
		c0.1543,0.0316,0.2733-0.0632,0.3328-0.2398c0.1617-0.4871-0.3551-0.541-0.4016-0.7734S35.9843,48.9102,35.8764,48.9715z"/>
	<path class="st6" d="M36.317,49.8843c-0.1729,0.0799-0.3253,0.1933-0.2547,0.7492c0.0279,0.2305,0.0149,0.7883-0.1859,0.7957
		c0.1227,0.0614,0.3867,0.1283,0.4945-0.0149c0.1041,0.1748,0.3402,0.1246,0.4332-0.093c0.1227,0.1004,0.2937-0.0688,0.2937-0.2157
		c0.1078,0.0688,0.3253-0.0316,0.2696-0.3625c0.132,0.0465,0.3012-0.0465,0.3625-0.132c-0.1933-0.039-0.6804-0.3012-0.7957-0.5094
		C36.819,49.8918,36.5178,49.7914,36.317,49.8843z"/>
	<g>
		<path class="st9" d="M33.6381,34.2475c0.0781-0.1153,0.1655-0.2231,0.2621-0.3179"/>
		<path class="st9" d="M36.5792,36.2943c0.1357-0.0781,0.3439-0.0874,0.5745-0.0725"/>
		<path class="st9" d="M36.371,51.4144c-0.0539-0.0781-0.0744-0.4016-0.0353-0.5986"/>
		<path class="st9" d="M36.8041,51.3214c-0.0855-0.0651-0.2473-0.29-0.2752-0.4871"/>
		<path class="st9" d="M37.0979,51.1058c-0.1078-0.0502-0.3718-0.3904-0.4295-0.6098"/>
		<path class="st9" d="M37.3674,50.7414c-0.1283-0.0279-0.5187-0.2826-0.6804-0.5522"/>
	</g>
	<path class="st6" d="M44.4952,41.9534c1.9019,1.5933,2.0246,2.8593,1.7308,3.6029c-0.1543-0.6953-0.9426-1.7773-1.7624-2.0562
		L44.4952,41.9534z"/>
	<path class="st7" d="M41.0949,41.0555h3.5248c0,0,0,0.9277,0,4.1737c0,3.5565-1.9781,5.6591-3.9896,6.7708
		c-2.0097-1.1136-3.9896-3.2162-3.9896-6.7708c0-3.246,0-4.1737,0-4.1737h2.4745c0.0037,0.2157,0.0242,0.541,0.2789,0.8663
		C39.9776,41.8642,40.6376,41.4273,41.0949,41.0555z"/>
	<path class="st10" d="M44.6198,41.0555c0,0,0,0.9277,0,4.1737c0,1.0727-0.1803,2.0153-0.4871,2.8351l-3.5007-6.4232l-3.5007,6.4232
		c-0.3068-0.8217-0.4871-1.7624-0.4871-2.8351c0-3.246,0-4.1737,0-4.1737H44.6198L44.6198,41.0555z"/>
	<path class="st11" d="M44.2387,47.7575c-0.0614,0.1896-0.1748,0.4964-0.2603,0.686L40.632,42.223l-3.3464,6.2205
		c-0.0874-0.1896-0.1989-0.4964-0.2603-0.686l3.6085-6.689L44.2387,47.7575z"/>
	<path class="st6" d="M42.2215,50.0461c0.093,0.0465,0.264,0.132,0.3402,0.1636c0.1859-0.3718,0.2157-0.8961,0.1543-1.3609
		c-0.2008,0.5112-0.8812,0.4945-1.0671,0.8031c0.1134,0.0576,0.2194,0.132,0.3105,0.1971
		c-0.2324,0.2324-0.7752,0.6209-1.0839,0.7139v-3.3166c0-0.2324-0.0781-0.4257-0.0781-0.6191c0,0,0-0.5317,0-0.686
		s-0.0316-0.3793-0.1692-0.3793c-0.1394,0-0.1692,0.225-0.1692,0.3793c0,0.1543,0,0.686,0,0.686
		c0,0.1933-0.0781,0.4183-0.0781,0.6191v3.3166c-0.1692-0.4945-0.8366-0.3253-1.1452-0.8199
		c0.1208-0.0297,0.2491-0.039,0.3718-0.0149c-0.2324-0.7883-0.8663-0.8496-0.989-1.082c0,0.3253-0.1394,1.082,0.0781,1.4073
		c0.0483-0.0576,0.1208-0.119,0.2101-0.171c0.2621,0.5726,1.4445,0.5745,1.7234,1.517
		C40.8532,51.0519,41.6582,50.6503,42.2215,50.0461z"/>
	<path class="st6" d="M40.6301,47.2872c0.2621,0,1.0969-0.0855,1.3999-0.0855c0.0781,0,0.1432-0.1171,0.1432-0.2621
		c0-0.145-0.0632-0.2621-0.1432-0.2621c-0.3012,0-1.1359-0.0855-1.3999-0.0855c-0.2621,0-1.0969,0.0855-1.3999,0.0855
		c-0.0781,0-0.1431,0.1171-0.1431,0.2621c0,0.145,0.0632,0.2621,0.1431,0.2621C39.5333,47.2017,40.368,47.2872,40.6301,47.2872z"/>
	<path class="st6" d="M40.461,45.9282c-0.0558-0.0446-0.1283-0.0725-0.2101-0.0725c-0.1748,0-0.3179,0.1301-0.3179,0.29
		c0,0.1599,0.1413,0.29,0.3179,0.29c0.1748,0,0.316-0.1301,0.316-0.29c0-0.1246,0.1803-0.1246,0.1803,0
		c0,0.251-0.2231,0.4536-0.4964,0.4536c-0.2751,0-0.4964-0.2026-0.4964-0.4536c0-0.251,0.2231-0.4536,0.4964-0.4536
		c0.0818,0,0.1599,0.0186,0.2287,0.0502C40.474,45.7832,40.461,45.8613,40.461,45.9282z"/>
	<path class="st6" d="M39.2321,47.2017c0.0781,0,0.1413-0.1171,0.1413-0.2621c0-0.145-0.0632-0.2621-0.1413-0.2621"/>
	<path class="st6" d="M39.3474,47.2017c0.0781,0,0.1413-0.1171,0.1413-0.2621c0-0.145-0.0632-0.2621-0.1413-0.2621"/>
	<path class="st6" d="M40.1115,47.2556c0.0948,0,0.171-0.1413,0.171-0.316s-0.0762-0.316-0.171-0.316"/>
	<path class="st6" d="M40.2881,47.2686c0.0985,0,0.1785-0.1487,0.1785-0.3309c0-0.1822-0.0799-0.3309-0.1785-0.3309"/>
	<path class="st6" d="M40.883,47.2723c0.1004,0,0.1803-0.1506,0.1803-0.3346s-0.0818-0.3346-0.1803-0.3346"/>
	<path class="st6" d="M41.0689,47.263c0.0985,0,0.1785-0.145,0.1785-0.3235c0-0.1785-0.0799-0.3235-0.1785-0.3235"/>
	<path class="st6" d="M41.8999,47.2054c0.0799,0,0.145-0.119,0.145-0.2677s-0.0651-0.2677-0.145-0.2677"/>
	<path class="st6" d="M38.9068,49.8825c0.0948-0.0576,0.2101-0.1097,0.3309-0.1376"/>
	<path class="st6" d="M42.0524,49.9141c-0.0279-0.0204-0.0595-0.0409-0.0911-0.0651"/>
	<path class="st6" d="M42.2215,50.0461c0.2157-0.2324,0.396-0.4945,0.4964-0.7957"/>
	<path class="st12" d="M39.9218,44.0077c0-0.0762,0.0614-0.1078,0.1339-0.1617c0.0874-0.0651,0.1227-0.0967,0.2008-0.0967h1.0151
		c0.0744,0,0.093,0.0186,0.093,0.0892v1.3776c0,0.0688-0.0167,0.0892-0.093,0.0892h-1.3497v-1.3125"/>
	<path class="st13" d="M41.0206,45.4262c0.1339,0,0.1097-0.0037,0.2026-0.0967c0.0985-0.0967,0.0892-0.0892,0.0892-0.1785v-1.2623
		c0-0.0651-0.0167-0.0837-0.0855-0.0837h-0.9388c-0.0744,0-0.106,0.0297-0.1859,0.0911c-0.0669,0.0502-0.1227,0.0818-0.1227,0.1524
		v1.3776H41.0206L41.0206,45.4262z"/>
	<path class="st12" d="M41.1209,45.3965c0,0.0688-0.0167,0.0892-0.093,0.0892h-1.0151c-0.0762,0-0.0911-0.0186-0.0911-0.0892V44.017
		c0-0.0688,0.0167-0.0892,0.0911-0.0892h1.0151c0.0762,0,0.093,0.0186,0.093,0.0892V45.3965z"/>
	<path class="st14" d="M43.0879,40.2468c0.1971,0.2212,0.2621,0.5168,0.1543,0.8068h-0.2937
		c0.1227-0.3718,0.0465-0.725-0.4796-0.7715c-0.7864-0.0688-1.7011,1.4538-3.0768,1.6379
		c-0.4016-0.4796-0.3811-1.3925,0.1301-1.8256c-0.264-0.7604-0.8199-1.597-1.2066-1.9576
		c-0.2528-0.0409-0.5447-0.0613-0.7325-0.0502c0.2008-0.4332,0.7734-0.8886,1.2382-1.0746
		c0.0744-0.1097,0.1562-0.2157,0.2305-0.3105c0.0465-0.5949,2.876-0.316,3.4784,0.0539
		C42.532,37.4228,42.7941,39.6444,43.0879,40.2468z"/>
	<g>
		<path d="M39.6597,40.6539c-0.0669-1.0299-0.4834-1.8796-1.069-2.4577c0.2789,0.0781,0.8496,0.0781,1.2363-0.2008
			c0.5094-0.3402,1.8405-0.9351,2.3276-0.6804c0.039,0.0855,0.0614,0.2789,0.0316,0.4016c-0.1153-0.3086-1.3999,0.1692-1.7624,0.316
			c-0.3477,0.1617-0.502,0.3793-0.3793,0.8663c-0.2008-0.1692-0.132-0.3328-0.3402-0.4555c0.0837,0.2008,0.1524,0.5633,0.1766,0.857
			c-0.0781-0.2082-0.2157-0.6563-0.5187-0.9203c0.2621,0.5094,0.4908,1.7345,0.383,2.3852c0.2082,0,0.6693-0.2045,0.8533-0.3514
			c-0.1617,0.2324-0.6302,0.3941-0.9314,0.4555c-0.1357,0.1617-0.2287,0.58-0.2212,0.8124
			C39.4255,41.3957,39.5147,40.6985,39.6597,40.6539z"/>
		<path d="M43.0879,40.2468c-0.2566-0.2844-0.7343-0.4387-1.3441-0.2733c0.093-0.0465,0.2937-0.1246,0.4722-0.1543
			c-0.0223-0.1617-0.1692-0.8589-0.1933-1.0281l0.171-0.0688c0.0855,0.4183,0.1933,0.8961,0.2621,1.0894
			c0.0539,0.0149,0.1785,0.039,0.2863,0.093c-0.0465-0.1617-0.3086-1.3293-0.3012-1.4538l0.2324-0.1246
			C42.7644,38.9603,42.9113,39.8805,43.0879,40.2468z"/>
	</g>
	<path class="st14" d="M42.9503,41.0555c0.1227-0.3718,0.0465-0.725-0.4796-0.7715c-0.4071-0.0353-0.8496,0.3607-1.372,0.7715
		H42.9503z"/>
	<path class="st14" d="M39.5333,37.724c-0.2324,0.0316-0.7492-0.0149-1.0132-0.1004c0.0149-0.0706,0.0428-0.1413,0.0762-0.2194
		c-0.1617,0.1078-0.4704,0.3198-0.5875,0.4666C38.3806,37.9489,39.1466,37.988,39.5333,37.724z"/>
	<path class="st9" d="M39.524,40.0962c0.0855,0.2473,0.1413,0.4852,0.1487,0.6972"/>
	<path class="st9" d="M38.8231,37.0138c-0.1394,0.2045-0.2621,0.4239-0.303,0.6098c0.2621,0.0855,0.7808,0.132,1.0132,0.1004"/>
	<path class="st9" d="M38.3174,38.1386c0.1004,0.0167,0.1933,0.0353,0.2733,0.0576c0.2789,0.0781,0.8496,0.0781,1.2363-0.2008
		c0.3867-0.2789,1.4371-1.1433,2.6288-1.2363"/>
	<path class="st9" d="M38.0107,37.8709c0.3718,0.0781,1.1378,0.1153,1.5226-0.1469c0.8961-0.6098,1.7624-0.9667,2.6288-1.0132"/>
	<path class="st7" d="M44.4952,41.9534c1.2976,0.8961,2.2569,1.7624,2.5358,3.153c0.2789,1.3906,0.805,1.7624,1.4538,1.3906
		c-0.1543,0.8031-0.9593,0.8961-1.6379,0.2789c0.0614,0.9277-0.3086,2.0413-1.2679,2.4429
		c-0.0614-0.5559,0.3068-0.9965,0.2008-1.4538c-0.0465-0.2008-0.0614-0.6656,0.2008-0.8812
		c-0.5094,0.1692-1.3144-0.1543-1.3906-0.9128c0.5875,0.2789,1.3441,0.3253,1.6379-0.4183
		C46.5198,44.8127,46.3971,43.5448,44.4952,41.9534z"/>
	<path class="st7" d="M46.1349,34.7178c0.4016-1.0504,1.4538-0.9426,1.8089-0.4945c1.0355-0.5875,1.1749,0.7418,2.0562,0.4796
		c-0.0149,0.2473-0.3086,0.4796-0.634,0.4629c0.3402,0.3086-0.1394,0.7734,0.5875,1.0504
		c-0.6191,0.3086-1.4836-0.0149-1.7159-0.8663c-0.2008,0.4016-0.9277,0.4016-1.2214,0.0781c0.634-0.1692,0.5875-0.7567,0.2324-0.989
		C46.8897,34.2047,46.2576,34.2995,46.1349,34.7178z"/>
	<path class="st7" d="M42.9986,37.0324c0.2882,0.9296,0.8849,1.7959,1.5282,2.3852c0.7418,0.6804,1.8628,0.5094,2.4893-0.1394
		c0.0149,1.2939-1.3255,1.3943-2.071,0.989c-0.3291-0.1785-0.5949-0.0855-0.2789,0.2008c0.4796,0.4332,1.5282,0.7548,2.7663,1.0206
		c2.164,0.4629,1.3925,2.1807,0.7585,2.164c0.1822-0.0037,0.3309-0.1933,0.0688-0.4295c-1.8777-1.6899-5.6963-1.0244-5.6349-4.7965
		c-0.4016,0.989-2.0562,0.6023-1.2828-0.5726c0.2473,0.2008,0.6804,0.2157,0.805-0.093c0.0967-0.2398,0.0335-0.6581-0.3997-1.0188
		c0.0706-0.0056,0.225,0,0.2082-0.1785c0.0186,0.1041,0.1134,0.2584,0.3569,0.2064c0.0688,0.1097,0.1431,0.1822,0.2417,0.1432
		c0.0186-0.0074,0.0781-0.0372,0.0539-0.1469C42.6268,36.9748,42.8704,37.0473,42.9986,37.0324z"/>
	<path class="st6" d="M44.9433,40.2672c0.8961,0.5875,1.9112,0.5875,2.8444-0.4945c0.2937-0.3402,0.7567-0.634,1.082-0.6656
		c0.3253-0.0316,0.3086-0.3402,0.5559-0.4016c-0.1543-0.0465-0.2157-0.2324-0.448-0.2082c0.58-0.2008,0.409-0.6656,0.6953-0.8886
		c-0.2324,0.0855-0.5949-0.2621-0.9277,0.1785c0.0855-0.2008-0.0316-0.4406-0.1153-0.5336
		c0.0316,0.2324-0.4555,0.2789-0.5484,0.8663c-0.0521,0.3291-0.2324,0.3086-0.2621-0.2008
		c-0.0223-0.3737-0.2008-1.4073-0.4164-1.9316c-0.2157-0.5261-0.2659-1.2475,0.0279-1.3553
		c-0.0446-0.0744-0.106-0.1413-0.1822-0.1896c-0.3588-0.2342-0.989-0.1394-1.1136,0.2789c-0.4016,1.0504,0.7269,1.6546,0.634,2.7979
		c-0.1692-0.8496-1.5468-1.0671-1.53-1.9019c-0.448,0.2008-0.3867,0.5726-0.2157,0.8663c-0.2789-0.4332-0.9128,0.2789-1.4538-0.3086
		c-0.0614,0.7734,0.6191,1.0671,1.175,1.0969c-0.2789,0.4945,0.093,0.9128,0.4629,1.0504c0.0149-0.8663,1.7903-0.5112,1.8089,0.9742
		C47.031,40.561,45.6702,40.6688,44.9433,40.2672z"/>
	<path class="st6" d="M47.4326,41.4887c2.164,0.4629,1.3925,2.1807,0.7585,2.164c-0.4034-0.0093-0.7883-0.3477-0.8124-0.6414
		c-0.4629,0.2473-0.3402,0.7343,0.0149,0.9277c-0.9742-0.1153-1.3832,0.5261-1.4073,1.2289
		c0.1785-0.3253,0.7195-0.3477,0.9203-0.2789s0.7195,0.1078,0.9277-0.1246c-0.171,0.1469,0.1078,0.4871-0.132,0.7492
		c0.8124-0.0316,1.1675-0.7883,1.0281-1.121C49.7825,43.437,49.5817,41.8754,47.4326,41.4887z"/>
	<path class="st6" d="M45.7854,48.834c0.1413,0.0874,0.1227,0.2733,0.0279,0.3904c-0.1915,0.2342,0.0967,0.7938-0.4927,0.8886
		c-0.1748,0.0279-0.303-0.0837-0.3607-0.2826c-0.1599-0.5503,0.4202-0.5875,0.4815-0.8459
		C45.5047,48.728,45.6664,48.7596,45.7854,48.834z"/>
	<path class="st6" d="M45.2537,49.8323c0.1896,0.0967,0.3532,0.2305,0.2528,0.8477c-0.0428,0.2566-0.0521,0.8794,0.1729,0.8961
		c-0.1413,0.0632-0.4369,0.1246-0.5522-0.039c-0.1246,0.1896-0.3848,0.1227-0.4796-0.1227
		c-0.1432,0.106-0.3253-0.0911-0.3179-0.2547c-0.1246,0.0725-0.3607-0.0483-0.2863-0.4164
		c-0.1487,0.0465-0.3346-0.0651-0.3997-0.1617c0.2175-0.0353,0.7715-0.3068,0.911-0.5354
		C44.6923,49.8193,45.0325,49.7207,45.2537,49.8323z"/>
	<path class="st9" d="M45.1255,51.5389c0.0632-0.0837,0.1004-0.4462,0.0651-0.6674"/>
	<path class="st9" d="M44.6477,51.4162c0.0985-0.0688,0.2882-0.3123,0.3272-0.5317"/>
	<path class="st9" d="M44.3279,51.1615c0.1227-0.0521,0.4313-0.4202,0.5057-0.6637"/>
	<path class="st9" d="M44.0416,50.7451c0.1431-0.0242,0.5912-0.2919,0.7827-0.5875"/>
	<path class="st6" d="M42.625,38.4286c-0.026,1.584,0.6321,2.3871,1.5449,2.9076c-0.3384-0.2026-0.1915-0.8979-0.6488-1.1229
		c0.1078-0.0074,0.2789,0.1469,0.5484,0.0855c-0.132-0.2937-0.3477-0.7418-0.8496-0.8031c0.132-0.0149,0.4183,0.0316,0.6023-0.039
		C43.5601,39.0532,42.8648,39.2466,42.625,38.4286z"/>
	<path class="st6" d="M42.4614,36.9209c-0.0558-0.0186-0.1023-0.0744-0.1487-0.1469c-0.2435,0.0521-0.3384-0.1022-0.3569-0.2064
		c0.0149,0.1785-0.1376,0.171-0.2101,0.1766c0.435,0.3607,0.4982,0.779,0.4016,1.0188c-0.1246,0.3086-0.5559,0.2937-0.805,0.093
		c-0.0316,0.6563,0.8199,0.8738,1.1285,0.0465c0,0.1394,0.1785,0.1246,0.225,0.3086C42.915,37.856,42.7477,37.3447,42.4614,36.9209z
		"/>
	<path class="st7" d="M41.1024,33.7827c-0.3867-0.3551-0.5652-0.95-0.5484-1.2902c0.0149-0.3402,0.1543-0.712,0.6488-0.5559
		c-0.1543,0-0.0465,0.3086-0.2082,0.3402c0.132,0.0465,0.3086-0.0613,0.3328-0.132c0.0316,0.1078,0.2324,0.0781,0.2473,0.2008
		c0.0781-0.0613-0.0074-0.3625-0.1227-0.4257c0.0855-0.0465,0.132-0.2863,0.093-0.4016c-0.0781,0.0149-0.1933,0.1246-0.2157,0.2789
		c0.039-0.1246-0.0074-0.4332-0.225-0.4796c-0.0614,0.0855-0.0781,0.2937,0.0074,0.409c-0.2008-0.0465-0.4945,0.0855-0.5652,0.2547
		c0.0149-0.2045,0.0446-0.4964,0.171-0.6804c0.0428-0.0613-0.0614-0.1692-0.1432-0.0223c-0.1506-0.2937-0.5522-0.448-0.7306-0.3012
		c-0.1785,0.1469-0.4164-0.0688-0.5633,0.1617c-0.1469,0.2324-0.6451,0.2566-0.6191,0.502c0.0149,0.1469-0.0205,0.3737-0.093,0.4555
		c-0.1785,0.2008,0.0855,0.3477,0.132,0.5261c-0.0316-0.5875,0.9035-1.7308,1.8405-1.2828
		c-0.0855,0.1469-0.1599,0.4406-0.1859,0.7957c-0.039,0.5261,0.039,1.2679,0.5484,1.7011L41.1024,33.7827z"/>
	<path class="st15" d="M41.3794,31.9422c-0.0056-0.1394,0.2361-0.3198,0.5596-0.316c0.3904,0.0037,0.6916,0.3588,1.0039,0.3253
		c0.3123-0.0353,0.158,0.1394,0.093,0.1859s-0.1041,0.1153-0.0818,0.2008c0.0223,0.0855-0.0167,0.1413-0.1431,0.0613
		c-0.2789-0.1748-0.5559,0.0688-0.924-0.0651C41.5727,32.2155,41.3887,32.1504,41.3794,31.9422z"/>
	<path class="st14" d="M39.788,35.5916c-0.1543-0.4871-0.7418-1.0206-1.0281-1.1433l-0.0149-0.2621
		c0.1543-0.0614,0.5261-0.3551,0.6953-0.5187c1.1601,0.5559,2.7366-0.2324,3.4635-1.0504l0.2789,0.1692l-0.1394,0.1859
		l-0.1469-0.0781c-0.1785,0.2157-0.8422,0.8403-1.043,0.9723c0.2696,0.0688,0.6395,0.1153,0.7418,0.1097
		c0.6488-0.4648,1.1582-0.8812,1.4055-0.9128l0.2082,0.2789l-0.1859,0.132l-0.1469-0.0855
		c-0.6953,0.5726-1.4836,1.8238-1.794,2.6585C41.6508,35.9541,40.104,36.0155,39.788,35.5916z"/>
	<path class="st9" d="M41.8534,33.8664c-0.1004-0.026-0.1859-0.0539-0.2398-0.0837c-0.1246,0.1153-0.4332,0.2157-0.8273,0.2324"/>
	<path class="st9" d="M39.8493,35.4206c-0.1041-0.5763,0.0614-1.214,0.3551-1.4073c0.6414,0.4257,1.7401,0.4257,2.3889-0.039"/>
	<path class="st9" d="M39.8493,35.1194c0.4945-0.0149,1.5691,0.0688,1.8312,0.1078s0.7027,0.1469,0.6414,0.2789"/>
	<path class="st9" d="M40.078,35.0376l0.1432-0.1413L40.078,34.755l-0.1413,0.1394L40.078,35.0376z"/>
	<path class="st7" d="M40.4145,32.1597c-0.1785-0.2473-0.6674-0.3253-0.7734,0.0074c-0.0465,0.1469-0.1153,0.3012-0.2324,0.3718
		c-0.1153,0.0688-0.0892,0.2807-0.039,0.3718c0.1227,0.225,0.0149,0.4406,0.2547,0.5875c0-0.1785,0.2621-0.3625,0.4871-0.409
		s0.5633-0.2473,0.6098-0.4722C40.7696,32.3902,40.8477,32.2043,40.4145,32.1597z"/>
	<path class="st14" d="M39.3009,34.385h0.0614l0.0019,0.422c0.013,0.0037,0.026,0.0112,0.0372,0.0186l0.3644-0.2101l0.0316,0.0539
		l-0.3662,0.2119c0.0019,0.013,0.0037,0.0279,0.0019,0.0409l0.3644,0.2101l-0.0316,0.0539l-0.3681-0.2082
		c-0.0093,0.0093-0.0223,0.0186-0.0353,0.0223v0.4202h-0.0614v-0.422c-0.013-0.0037-0.026-0.0112-0.0372-0.0186L38.8993,35.19
		l-0.0316-0.0539l0.3662-0.2119c-0.0019-0.013-0.0037-0.0279-0.0019-0.0409l-0.3644-0.2101l0.0316-0.0539l0.3662,0.2101
		c0.0093-0.0093,0.0223-0.0186,0.0353-0.0223L39.3009,34.385L39.3009,34.385z"/>
	<path class="st14" d="M39.8512,35.4187c-0.132,0.1339-0.316,0.2157-0.5205,0.2157c-0.4053,0-0.7325-0.3272-0.7325-0.7325
		c0-0.4053,0.3272-0.7325,0.7325-0.7325c0.238,0,0.448,0.1134,0.5819,0.2882c-0.0372,0.093-0.0818,0.2993-0.0855,0.3923
		c-0.026-0.2528-0.238-0.4499-0.4982-0.4499c-0.277,0-0.5001,0.225-0.5001,0.5001c0,0.277,0.2249,0.5001,0.5001,0.5001
		c0.2305,0,0.4313-0.1617,0.4889-0.3755C39.8196,35.1212,39.8233,35.3425,39.8512,35.4187z"/>
	<path class="st7" d="M39.022,36.1159c-0.0465-0.0539-0.132-0.2008-0.1227-0.3086c0.0688-0.0074,0.2008,0.039,0.2621,0.1004
		c-0.0074-0.0781-0.039-0.2473-0.0223-0.3253c0.0855,0.0316,0.2621,0.132,0.3253,0.2473c-0.0149-0.0781-0.0465-0.2789-0.0149-0.4016
		c0.093,0.0539,0.2473,0.2008,0.2789,0.3012c0.0074-0.1543,0.0614-0.409,0.1078-0.4722c0.0688,0.0688,0.1785,0.132,0.2473,0.225
		c0.0149-0.1246,0.0781-0.2714,0.1692-0.3086c0.0688,0.0781,0.1785,0.2547,0.2008,0.4555c0.0688-0.0223,0.1617-0.1394,0.2008-0.2008
		c0.039,0.0613,0.0781,0.1692,0.0539,0.3012c0.0855-0.0781,0.1859-0.1859,0.2082-0.2789c0.0614,0.0465,0.1785,0.1617,0.2082,0.2863
		c-0.0149-0.1004-0.0074-0.2789-0.039-0.3793c0.1153,0.0614,0.2082,0.1692,0.2324,0.2863c0.0316-0.1078,0.1004-0.3012,0.1617-0.3476
		c0.0614,0.1246,0.1246,0.2714,0.1153,0.3941c0.039-0.0781,0.1004-0.2157,0.1617-0.2473c0.0539,0.0855,0.0465,0.2714,0.0316,0.3718
		c0.0539-0.0781,0.1543-0.1692,0.2157-0.2008c0.0074,0.0465,0.0149,0.1394,0,0.2082c0.0688-0.039,0.1859-0.2473,0.225-0.3551
		c0.1078,0.0539,0.2157,0.2398,0.2249,0.3328c0.0781-0.0316,0.2324-0.1692,0.2789-0.2473c0,0.0539,0.0242,0.2008-0.0074,0.316
		c0.0465-0.0465,0.093-0.1394,0.1153-0.1785c0.0316,0.0781,0.0074,0.2621-0.0242,0.3625c0.0688-0.0614,0.171-0.1004,0.2324-0.1004
		c0.0074,0.132-0.0855,0.3625-0.171,0.5336C42.1379,36.2795,40.5837,36.2014,39.022,36.1159z"/>
	<path class="st11" d="M41.6099,32.0221c-0.0037-0.0576,0.1227-0.1859,0.3514-0.184c0.2733,0.0019,0.5261,0.2026,0.7436,0.1878
		c0.2194-0.0149,0.1115,0.0576,0.0651,0.0762c-0.0465,0.0186-0.0725,0.0483-0.0576,0.0818c0.0167,0.0353-0.0112,0.0576-0.1004,0.026
		c-0.1952-0.0706-0.3904,0.0279-0.647-0.026C41.7437,32.1337,41.6155,32.1076,41.6099,32.0221z"/>
	<path class="st6" d="M39.2618,36.5806c-0.2324,0.2789-0.4629,0.2324-0.5094,0.0539c-0.0465-0.1785,0.1246-0.2621,0.0614-0.4183
		c-0.0614-0.1543,0.1004-0.225,0.1785-0.1543c0.0781,0.0688,0.3253-0.1543,0.4332,0.0781s0.1933,0.3941,0.132,0.4871
		C39.4942,36.7201,39.3083,36.6736,39.2618,36.5806z"/>
	<path class="st6" d="M40.2583,36.1623c-0.0428-0.1023,0.1971-0.2975,0.3216-0.158c0.1246,0.1394,0.3179-0.1506,0.4257,0.0688
		c0.1078,0.2212,0.1432,0.3365,0.1971,0.4592c0.0539,0.1246-0.2937,0.1896-0.4016,0.0818c0.0149,0.0725-0.3012,0.1301-0.3867-0.0781
		C40.368,36.4263,40.3178,36.2981,40.2583,36.1623z"/>
	<path class="st6" d="M41.8664,36.2906c-0.0576-0.1078,0.225-0.2621,0.3718-0.0651c0.039-0.0818,0.3179-0.0967,0.3365,0.1394
		c0.0186,0.2361,0.0279,0.3755,0.0353,0.4685c0.0074,0.093-0.1692,0.1785-0.2975-0.0576c-0.2287,0.0465-0.3328-0.0818-0.3588-0.2157
		C41.9259,36.4226,41.8981,36.3557,41.8664,36.2906z"/>
	<path class="st7" d="M39.4124,36.1363c-0.0353-0.0781,0.1971-0.2324,0.3551-0.1153c0.158,0.1153,0.3774-0.1004,0.4722,0.1078
		c0.1896,0.422,0.2008,0.4518,0.1432,0.5336c-0.0576,0.0818-0.3049,0.0502-0.3681-0.0614c-0.0112,0.0781-0.225,0.0651-0.3365,0.0037
		C39.5519,36.5342,39.4626,36.2757,39.4124,36.1363z"/>
	<path class="st7" d="M41.0392,36.1549c-0.0539-0.119,0.3086-0.2249,0.4685-0.0149c0.0818-0.0744,0.2584-0.0781,0.3588,0.1506
		c0.1004,0.2287,0.1153,0.3551,0.0428,0.4127c-0.0521,0.0409-0.2398,0.0725-0.3012-0.0316
		c-0.0855,0.0539-0.3476,0.0074-0.4053-0.1394C41.1451,36.3873,41.0949,36.259,41.0392,36.1549z"/>
	<path class="st7" d="M42.5785,36.3836c-0.0074-0.1078,0.1896-0.158,0.2621,0c0.0744,0.158,0.3086,0.0149,0.3291,0.2789
		c0.0037,0.0502-0.0279,0.2435-0.1004,0.3365c-0.0725,0.093-0.4332,0-0.4555-0.1971
		C42.5896,36.6029,42.5822,36.4914,42.5785,36.3836z"/>
	<g>
		<path class="st9" d="M39.2618,36.5806c-0.0855-0.1153-0.2008-0.3012-0.3476-0.1004"/>
		<path class="st9" d="M40.0166,36.5992c-0.0502-0.0651-0.1153-0.1748-0.1394-0.2584"/>
		<path class="st9" d="M40.8012,36.616c-0.0539-0.039-0.1357-0.1153-0.1785-0.1971"/>
		<path class="st9" d="M40.7305,36.2088c0.1357,0.0149,0.2287,0.1432,0.2696,0.2008c0.0428,0.0576,0.132,0.1617,0.2008,0.1748"/>
		<path class="st9" d="M41.608,36.6736c-0.0465-0.0744-0.093-0.1394-0.1041-0.1933"/>
		<path class="st9" d="M41.5076,36.14c0.0465,0.0651,0.0818,0.119,0.1078,0.1822"/>
		<path class="st9" d="M42.3108,36.774c-0.0614-0.1153-0.158-0.2287-0.2398-0.2659"/>
		<path class="st9" d="M42.281,36.3483c0.0074,0.2287,0.3123,0.2435,0.3253,0.4053"/>
		<path class="st9" d="M42.8406,36.3836c0.0316,0.0576,0.0428,0.1153,0.0465,0.2119"/>
	</g>
</g>
</svg>
