<?xml version="1.0" encoding="utf-8"?>
<!-- Generator: Adobe Illustrator 21.0.2, SVG Export Plug-In . SVG Version: 6.00 Build 0)  -->
<svg version="1.1" id="Layer_1" xmlns="http://www.w3.org/2000/svg" xmlns:xlink="http://www.w3.org/1999/xlink" x="0px" y="0px"
	 viewBox="0 0 335 335" style="enable-background:new 0 0 335 335;" xml:space="preserve">
<style type="text/css">
	.st0{fill:#CE1126;}
	.st1{fill:#3D8E33;}
	.st2{fill:#FCD856;}
	.st3{fill:#FFFFFF;}
	.st4{fill:#0072C6;}
</style>
<g>
	<g>
		<path class="st0" d="M167.51,0c-10.51,0-20.77,1.01-30.72,2.87v329.28c9.95,1.85,20.22,2.84,30.72,2.84
			C260.01,335,335,260.02,335,167.51C335,75,260.01,0,167.51,0z"/>
		<path class="st1" d="M0,167.51c0,82,58.96,150.21,136.79,164.65V2.87C58.96,17.28,0,85.5,0,167.51z"/>
		<g>
			<g>
				<g>
					<g id="_x3C_Path_x3E__742_">
						<path class="st2" d="M203.12,220.29c-25.58-0.77-142.83-73.95-143.65-85.59l6.5-10.81c11.61,16.9,131.46,88.06,143.24,85.56
							L203.12,220.29z"/>
						<path d="M59.35,134.64l6.71-10.82c11.32,16.54,127.4,85.6,142.44,85.56l0,0c0.25,0,0.47-0.03,0.8,0.13l0,0l-6.08,10.84
							l-0.1-0.06l-0.01,0.13C177.41,219.58,60.28,146.56,59.35,134.64L59.35,134.64z M59.58,134.67
							c0.7,11.44,117.86,84.66,143.45,85.49l0,0l6.18-10.59c-0.22,0.03-0.46,0.06-0.72,0.06l0,0
							c-15.31-0.04-131.15-68.98-142.43-85.67l0,0L59.58,134.67L59.58,134.67z"/>
					</g>
					<g>
						<path id="_x3C_Path_x3E__741_" class="st2" d="M64.6,122.42c-2.3,6.17,30.57,26.51,70.17,50.57
							c39.58,24.08,73.7,38.96,76.2,36.83c0.16-0.27,1.26-2.17,1.17-2.15c-0.49,0.72-1.63,0.94-3.43,0.41
							c-10.72-3.08-38.59-15.87-73.13-36.83c-34.52-20.93-64.56-40.22-69.23-48.41c-0.32-0.58-0.55-1.64-0.5-2.42h-0.11l-1,1.73
							L64.6,122.42L64.6,122.42z M203.71,220.63c-0.42,0.79-1.22,0.82-2.78,0.67c-9.55-1.08-38.59-15.2-72.91-35.75
							c-39.96-23.91-72.97-45.7-69.39-51.41l0.96-1.74l0.2,0.07c-3.2,9.67,65.15,48.71,69.15,51.23
							c39.54,24.5,72.88,38.8,75.82,35.09l-1.06,1.85V220.63z"/>
						<path d="M202.08,221.48c-0.34,0-0.73-0.04-1.17-0.07l0,0c-9.63-1.07-38.63-15.22-72.99-35.75l0,0
							c-37.96-22.79-69.64-43.46-69.71-50.54l0,0c0-0.4,0.07-0.74,0.28-1.03l0,0l1.13-1.81l0.28,0.24c-0.06,0.22-0.1,0.43-0.1,0.67
							l0,0c-0.1,10.51,65.28,47.97,69.21,50.4l0,0c35.33,21.9,65.81,35.65,73.85,35.65l0,0c0.93,0,1.53-0.19,2.02-0.39l0,0
							l-1.25,1.73l0.02,0.01h-0.02l-0.04,0.05h0.13l0.1,0.06c-0.31,0.59-0.88,0.79-1.66,0.79l0,0
							C202.13,221.48,202.1,221.48,202.08,221.48L202.08,221.48z M58.72,134.22c-0.18,0.24-0.24,0.54-0.24,0.89l0,0
							c-0.08,6.7,31.65,27.62,69.6,50.32l0,0c34.3,20.53,63.37,34.67,72.85,35.72l0,0c0.44,0.04,0.82,0.07,1.16,0.07l0,0
							c0.81-0.01,1.23-0.16,1.5-0.67l0,0l0.01,0.02l1.26-1.69c-0.37,0.43-1.06,0.63-2.01,0.63l0,0
							c-8.22-0.01-38.61-13.78-73.97-35.69l0,0c-3.95-2.51-69.27-39.69-69.34-50.62l0,0c0-0.28,0.04-0.52,0.19-0.59l0,0l-0.03-0.13
							L58.72,134.22L58.72,134.22z M203.71,220.63l-0.07-0.05l0.19,0.05H203.71L203.71,220.63z M134.68,173.09
							c-38.3-23.3-70.27-42.98-70.34-50.02l0,0c0-0.24,0.04-0.48,0.13-0.7l0,0l0.12,0.04l-0.11-0.06l0.14-0.26l1.11-1.8l0.25,0.16
							c-0.01,0.04-0.01,0.1-0.01,0.17l0,0c0,0.75,0.22,1.65,0.49,2.15l0,0c4.61,8.13,34.69,27.45,69.19,48.36l0,0
							c34.53,20.97,62.39,33.75,73.08,36.82l0,0c0.66,0.19,1.22,0.28,1.7,0.28l0,0c0.67,0,1.12-0.16,1.46-0.35l0,0
							c0.08-0.13,0.12-0.22,0.12-0.22H212h0.12v-0.13c0.01,0.01,0.1-0.02,0.14,0.13l0,0c-0.04,0.26-1.02,1.93-1.21,2.25l0,0
							c-0.22,0.16-0.52,0.22-0.94,0.22l0,0C204,210.13,171.76,195.66,134.68,173.09L134.68,173.09z M64.58,123.07
							c-0.08,6.65,31.96,26.57,70.24,49.8l0,0c37.02,22.55,69.36,37.02,75.28,37.02l0,0c0.4,0,0.64-0.07,0.75-0.15l0,0
							c0.09-0.14,0.55-0.97,0.88-1.54l0,0c-0.34,0.2-0.79,0.31-1.3,0.31l0,0c-0.51,0-1.1-0.09-1.77-0.3l0,0
							c-10.74-3.1-38.59-15.88-73.15-36.84l0,0c-34.54-20.94-64.55-40.19-69.28-48.46l0,0c-0.3-0.54-0.52-1.42-0.53-2.19l0,0
							l-0.86,1.5l-0.13,0.28H64.7C64.63,122.66,64.58,122.86,64.58,123.07L64.58,123.07z M65.85,120.55l-0.01-0.08l-0.04,0.05
							C65.81,120.53,65.83,120.54,65.85,120.55L65.85,120.55z"/>
					</g>
				</g>
				<g>
					<g id="_x3C_Path_x3E__740_">
						<path class="st2" d="M135.62,225.24c30.87,0.15,57.78-4.35,70.08-10.75l4.47-7.83c-10.68,5.84-39.73,11.88-74.51,10.98
							c-28.34-0.19-58.62-3.15-73.14-11.35l6.56,9.1C80.91,221.91,109.09,225.21,135.62,225.24z"/>
						<path d="M135.62,225.36v-0.25c0.52,0,1.04,0,1.55,0l0,0c30.2,0,56.39-4.47,68.42-10.67l0,0l4.65-7.68
							c-10,5.46-35.93,11.08-67.61,11.08l0,0c-2.3,0-4.64-0.01-6.97-0.08l0,0c-28.35-0.19-58.63-3.16-73.04-11.57l0,0l6.51,9.08
							c11.77,6.49,39.96,9.8,66.48,9.83l0,0V225.36c-26.56-0.03-54.72-3.31-66.63-9.91l0,0l-6.41-9.29
							c14.48,8.16,44.75,11.15,73.08,11.34l0,0c2.33,0.06,4.66,0.08,6.97,0.08l0,0c31.64,0.01,57.57-5.63,67.67-10.88l0,0l-4.55,7.9
							c-12.14,6.29-38.36,10.75-68.58,10.75l0,0C136.66,225.36,136.15,225.36,135.62,225.36L135.62,225.36z"/>
					</g>
					<g id="_x3C_Path_x3E__739_">
						<path class="st2" d="M136.04,218.76c-19.62-0.13-35.23-0.88-48.91-3.41c-12.41-2.26-21.39-6.58-26.09-8.99l-0.82-1.74
							c2.42,1.79,13.26,6.24,27.24,8.88c13.25,2.33,28.7,3.41,48.54,3.32c17.49,0.05,34.47-0.78,47.89-3.32
							c13.35-2.55,23.74-5.63,27.93-8.4l-1.33,2.39c-1.71,1.92-13.72,5.47-26.31,7.84C170.64,217.79,153.63,218.79,136.04,218.76
							L136.04,218.76z M136.04,225.95c-17.8-0.06-34.21-1.14-46.99-3.48c-9.26-1.83-15.41-4.05-19.99-6.46l-1.72-2.6
							c3.34,2.13,9.92,4.88,22.01,7.21c12.68,2.35,29,3.43,46.69,3.48c16.84-0.13,32.75-1.03,45.62-3.27
							c11-1.97,23.47-5.49,26.76-9.2l-1.93,3.11c-3.69,2.79-13.81,5.94-24.04,7.96C169.5,225.03,152.88,225.98,136.04,225.95z"/>
						<path d="M136.04,225.95v0.11c-17.81-0.05-34.23-1.11-47.01-3.47l0,0c-9.28-1.8-15.43-4.05-20.08-6.53l0,0l-1.53-2.78
							c3.31,2.11,9.88,4.87,21.96,7.2l0,0c12.65,2.33,28.98,3.41,46.66,3.47l0,0c16.82-0.13,32.75-1.05,45.59-3.26l0,0
							c10.97-1.97,23.44-5.51,26.89-9.02l0,0c-3.37,3.8-15.82,7.3-26.83,9.29l0,0c-12.88,2.23-28.8,3.11-45.64,3.26l0,0
							c-17.68-0.06-34.04-1.13-46.72-3.49l0,0c-12.1-2.33-18.69-5.09-21.87-7.42l0,0l1.68,2.57c4.56,2.41,10.7,4.63,19.96,6.45l0,0
							c12.77,2.34,29.17,3.41,46.97,3.46l0,0c0.31,0,0.65,0,0.96,0l0,0c16.48,0,32.72-0.95,45.42-3.25l0,0
							c10.21-2.01,20.33-5.19,23.94-7.9l0,0l2.14-2.98c0,0,0.01,0,0.03-0.01l0,0l-1.98,3.16c-3.73,2.84-13.84,5.96-24.09,7.98l0,0
							c-12.72,2.3-28.97,3.25-45.46,3.25l0,0c-0.34,0-0.67,0-0.96,0.01l0,0L136.04,225.95L136.04,225.95z M136.04,218.89v-0.13
							V218.89c-19.63-0.13-35.23-0.88-48.94-3.4l0,0c-12.42-2.27-21.44-6.61-26.2-9.08l0,0l-0.62-1.9
							c2.37,1.77,13.23,6.23,27.2,8.88l0,0c12.83,2.25,27.69,3.32,46.68,3.32l0,0c0.59,0,1.2,0,1.83,0l0,0c0.39,0,0.76,0,1.13,0l0,0
							c17.08,0,33.6-0.85,46.74-3.34l0,0c13.33-2.55,23.72-5.63,28.06-8.22l0,0l-1.35,2.42c-1.8,1.98-13.78,5.48-26.38,7.88l0,0
							c-13.34,2.42-30.04,3.43-47.33,3.43l0,0C136.57,218.89,136.3,218.88,136.04,218.89L136.04,218.89z M136.87,218.63
							c17.28,0,33.96-1.01,47.29-3.41l0,0c12.54-2.37,24.62-5.96,26.21-7.8l0,0l1.51-2.22c-4.23,2.8-14.61,5.87-27.97,8.42l0,0
							c-13.15,2.49-29.7,3.34-46.78,3.34l0,0c-0.36,0-0.74,0.02-1.14,0.02l0,0c-0.62-0.02-1.23-0.02-1.82-0.02l0,0
							c-18.99,0-33.87-1.06-46.75-3.34l0,0c-13.99-2.64-24.83-7.09-27.09-9.05l0,0l0.76,1.67c4.69,2.42,13.67,6.74,26.05,8.99l0,0
							c13.66,2.53,29.27,3.28,48.88,3.41l0,0c0.09,0,0.19,0,0.28,0l0,0C136.49,218.63,136.69,218.63,136.87,218.63L136.87,218.63z"
							/>
					</g>
				</g>
				<g>
					<g id="_x3C_Path_x3E__738_">
						<path class="st2" d="M136.57,184.93c28.56-0.24,64-4.03,84.26-12.28v-7.24c-11.96,6.77-51.97,11.25-84.49,11.92
							c-38.42-0.38-69.69-5.63-83.29-14.96l-0.19,9.32C77.86,182.5,103.64,184.79,136.57,184.93z"/>
						<path d="M136.57,185.05L136.57,185.05L136.57,185.05L136.57,185.05L136.57,185.05L136.57,185.05z M52.73,171.69l0.4-9.42
							c13.54,9.29,44.79,14.55,83.18,14.91l0,0c32.51-0.64,72.54-5.16,84.64-11.78l0,0l-0.08,7.36
							c-20.29,8.27-55.72,12.03-84.3,12.28l0,0v-0.13v0.13C103.64,184.93,77.82,182.63,52.73,171.69L52.73,171.69z M52.91,171.56
							c24.96,10.8,50.73,13.09,83.66,13.22l0,0c28.53-0.23,63.98-4.02,84.12-12.14l0,0l0.19-7.14
							c-12.02,6.8-52.02,11.27-84.58,11.94l0,0c-38.42-0.37-69.69-5.61-83.13-15.08l0,0L52.91,171.56L52.91,171.56z"/>
					</g>
					<g>
						<path id="_x3C_Path_x3E__737_" class="st2" d="M221.79,172.83c-0.68,1.14-13.94,5.78-33.4,9.24
							c-13.18,2.06-30.42,3.82-51.91,3.85c-20.41,0.02-37.07-1.48-49.7-3.23c-20.44-3.27-30.99-7.83-34.9-9.44
							c0.38-0.76-0.34-1.29,0-2.01c11.23,4.6,22.8,7.36,35.21,9.27c12.56,1.75,29.02,3.27,49.32,3.23
							c21.4-0.01,38.42-1.92,51.54-3.9c19.99-3.26,32.33-7.54,33.84-9.51V172.83L221.79,172.83z"/>
						<path d="M136.15,186.04c-20.27,0-36.83-1.48-49.39-3.22l0,0c-20.44-3.29-31.02-7.85-35-9.65l0,0c0.07-0.14,0.1-0.28,0.1-0.4
							l0,0c0-0.35-0.22-0.7-0.22-1.13l0,0c0-0.15,0.04-0.32,0.3-0.52l0,0c11.22,4.59,22.78,7.35,35.17,9.25l0,0
							c12.4,1.74,28.6,3.24,48.55,3.24l0,0c0.25,0,0.49-0.02,0.75,0l0,0c21.41-0.02,38.42-1.92,51.54-3.9l0,0
							c19.94-3.26,32.32-7.58,33.98-9.38l0,0v2.5h-0.13l0.1,0.05c-0.8,1.27-13.96,5.84-33.46,9.32l0,0
							c-13.21,2.06-30.44,3.83-51.94,3.85l0,0C136.36,186.05,136.25,186.04,136.15,186.04L136.15,186.04z M51.9,171.64
							c-0.01,0.32,0.22,0.68,0.23,1.13l0,0c0,0.15-0.04,0.33-0.19,0.35l0,0c3.9,1.61,14.44,6.15,34.86,9.44l0,0
							c12.54,1.73,29.09,3.22,49.35,3.22l0,0c0.1,0,0.21,0,0.34,0l0,0c21.47-0.02,38.7-1.78,51.89-3.85l0,0
							c19.37-3.4,32.66-8.11,33.28-9.16l0,0l0.22-2.36c-1.59,2.04-13.91,6.26-33.9,9.54l0,0c-13.15,1.99-30.17,3.9-51.59,3.9l0,0
							c-0.25,0-0.49,0-0.75,0l0,0c-19.97,0-36.17-1.5-48.59-3.23l0,0c-12.4-1.92-23.99-4.68-35.06-9.32l0,0
							C51.92,171.41,51.9,171.53,51.9,171.64L51.9,171.64z"/>
					</g>
					<g>
						<path id="_x3C_Path_x3E__736_" class="st2" d="M221.79,172.83c-0.68,1.14-13.94,5.78-33.4,9.24
							c-13.18,2.06-30.42,3.82-51.91,3.85c-20.41,0.02-37.07-1.48-49.7-3.23c-20.44-3.27-30.99-7.83-34.9-9.44
							c0.38-0.77-0.34-1.29,0-2.01c11.23,4.6,22.82,7.36,35.21,9.27c12.56,1.75,29.02,3.27,49.32,3.23
							c21.4-0.01,38.42-1.92,51.54-3.9c19.99-3.26,32.33-7.54,33.84-9.51V172.83L221.79,172.83z M221.79,165.46
							c-2.15,1.79-16.81,5.69-35.75,8.8c-12.67,1.86-28.76,3.54-49.33,3.54c-19.52,0.01-35.51-1.31-47.63-3.14
							c-19.28-2.59-37.18-11.25-37.18-11.25l-0.02-2.8c0,0,17.87,9.13,37.41,11.95c12,1.74,27.99,3.05,47.43,3.01
							c20.47-0.02,36.38-1.7,48.97-3.58c19.07-2.65,34.58-7.65,36.11-8.89V165.46L221.79,165.46z"/>
						<path d="M136.15,186.04c-20.27,0-36.83-1.48-49.39-3.22l0,0c-20.44-3.29-31.02-7.85-35-9.65l0,0c0.07-0.14,0.1-0.28,0.1-0.42
							l0,0c0-0.33-0.22-0.69-0.22-1.11l0,0c0-0.15,0.04-0.31,0.3-0.52l0,0c11.22,4.59,22.78,7.35,35.17,9.25l0,0
							c12.4,1.74,28.6,3.24,48.55,3.24l0,0c0.25,0,0.49-0.02,0.75,0l0,0c21.41-0.02,38.42-1.92,51.54-3.9l0,0
							c19.94-3.26,32.32-7.58,33.98-9.38l0,0v2.5h-0.13l0.1,0.05c-0.8,1.26-13.96,5.84-33.46,9.32l0,0
							c-13.21,2.06-30.44,3.83-51.94,3.85l0,0C136.36,186.05,136.25,186.04,136.15,186.04L136.15,186.04z M51.9,171.64
							c-0.01,0.32,0.22,0.67,0.23,1.11l0,0c0,0.16-0.04,0.35-0.19,0.37l0,0c3.9,1.61,14.44,6.15,34.86,9.44l0,0
							c12.54,1.73,29.09,3.22,49.35,3.22l0,0c0.1,0,0.21,0,0.34,0l0,0c21.47-0.02,38.7-1.78,51.89-3.85l0,0
							c19.37-3.4,32.66-8.14,33.28-9.16l0,0l0.22-2.36c-1.59,2.04-13.91,6.26-33.9,9.54l0,0c-13.15,1.99-30.17,3.9-51.59,3.9l0,0
							c-0.25,0-0.49,0-0.75,0l0,0c-19.97,0-36.17-1.5-48.59-3.23l0,0c-12.38-1.92-23.99-4.68-35.06-9.32l0,0
							C51.91,171.41,51.9,171.53,51.9,171.64L51.9,171.64z M136.01,177.92c-19.23,0-34.98-1.32-46.97-3.13l0,0
							c-19.31-2.59-37.21-11.25-37.29-11.37l0,0l0.17-2.91c0.04,0,17.85,9.12,37.38,11.92l0,0c11.85,1.71,27.54,3.02,46.63,3.02l0,0
							c0.26,0,0.52,0,0.78,0l0,0c20.45-0.01,36.37-1.7,48.94-3.58l0,0c19.04-2.64,34.6-7.66,36.27-8.75l0,0v2.35h-0.13l0.08,0.09
							c-2.24,1.85-16.84,5.7-35.82,8.84l0,0c-12.68,1.85-28.78,3.53-49.35,3.53l0,0C136.48,177.92,136.24,177.92,136.01,177.92
							L136.01,177.92z M51.94,163.31c0.05,0,17.9,8.64,37.14,11.22l0,0c11.98,1.79,27.71,3.13,46.93,3.13l0,0
							c0.24,0,0.48,0.02,0.7,0.02l0,0c20.55,0,36.64-1.69,49.3-3.55l0,0c18.86-3.08,33.5-7,35.66-8.74l0,0l0.19-2.17
							c-1.59,1.28-17.07,6.25-36.16,8.91l0,0c-12.58,1.88-28.52,3.55-48.98,3.58l0,0c-0.28-0.01-0.52-0.01-0.78-0.01l0,0
							c-19.11,0-34.82-1.3-46.68-3.02l0,0C69.87,169.9,52.13,160.89,52,160.61l0,0L51.94,163.31L51.94,163.31z"/>
					</g>
				</g>
				<g>
					<g id="_x3C_Path_x3E__735_">
						<path class="st2" d="M137.02,141.74c25.58-0.19,57.19-3.49,75.35-10.74l-3.9-6.33c-10.76,5.9-42.52,9.84-71.67,10.43
							c-34.47-0.32-58.82-3.55-71-11.72l-3.71,6.76C84.51,139.63,107.49,141.65,137.02,141.74z"/>
						<path d="M137.01,141.74v0.13c-29.53-0.09-52.53-2.12-75.03-11.79l0,0l3.9-6.82c12.11,8.14,36.46,11.37,70.92,11.69l0,0
							c29.12-0.59,60.89-4.53,71.76-10.36l0,0l3.85,6.53c-18.2,7.24-49.8,10.54-75.4,10.74l0,0L137.01,141.74L137.01,141.74z
							 M62.15,130.02c22.38,9.48,45.33,11.5,74.86,11.59l0,0c25.58-0.19,57.18-3.49,75.25-10.56l0,0l-3.74-6.29
							c-10.81,5.93-42.55,9.86-71.71,10.45l0,0c-34.47-0.31-58.85-3.52-70.89-11.78l0,0L62.15,130.02L62.15,130.02z"/>
					</g>
					<g id="_x3C_Path_x3E__734_">
						<path class="st2" d="M213.41,131.16c-0.61,0.99-12.46,5.07-29.91,8.1c-11.86,1.8-27.3,3.36-46.57,3.38
							c-18.31,0.01-33.27-1.3-44.57-2.84c-18.33-2.88-27.79-6.87-31.29-8.28c0.32-0.66,0.55-1.14,0.85-1.77
							c10.09,4.03,19.59,6.43,30.71,8.15c11.25,1.52,26.05,2.84,44.25,2.83c19.19-0.02,34.46-1.69,46.24-3.44
							c17.91-2.87,27.69-6.59,29.06-8.31L213.41,131.16L213.41,131.16z M209.99,124.71c-1.97,1.54-11.62,4.97-28.64,7.67
							c-11.35,1.67-25.78,3.12-44.24,3.14c-17.52,0.02-31.83-1.17-42.73-2.77c-11.4-1.49-20.85-4.34-29.78-7.51
							c0.34-0.57,0.69-1.14,1.03-1.7c2.56,1.31,11.44,4.87,28.93,7.38c10.78,1.51,25.1,2.65,42.55,2.63
							c18.37,0,32.65-1.5,43.91-3.13c17.1-2.34,26.32-6.7,27.71-7.82L209.99,124.71z"/>
						<path d="M136.57,142.75c-18.16,0-33.01-1.31-44.24-2.83l0,0c-18.34-2.88-27.83-6.87-31.4-8.46l0,0
							c0.32-0.67,0.53-1.13,1.01-1.84l0,0c10.08,4.02,19.57,6.42,30.68,8.14l0,0c11.18,1.51,25.84,2.82,43.91,2.82l0,0
							c0.1,0,0.22,0,0.33,0.02l0,0c19.19-0.02,34.43-1.7,46.21-3.46l0,0c17.89-2.84,27.69-6.6,29.2-8.25l0,0l1.25,2.19l-0.12,0.05
							l0.12,0.08c-0.73,1.12-12.52,5.1-30.02,8.16l0,0c-11.85,1.81-27.29,3.36-46.58,3.37l0,0
							C136.81,142.75,136.69,142.75,136.57,142.75L136.57,142.75z M61.1,131.39c3.51,1.43,12.95,5.41,31.27,8.27l0,0
							c11.23,1.53,26.08,2.84,44.21,2.84l0,0c0.12,0,0.23,0,0.34,0l0,0c19.26-0.01,34.7-1.57,46.54-3.38l0,0
							c17.08-2.94,28.89-7,29.78-7.99l0,0l-0.98-2.09c-1.47,1.82-11.21,5.5-29.15,8.37l0,0c-11.79,1.76-27.04,3.42-46.25,3.46l0,0
							c-0.1-0.02-0.21,0-0.32,0l0,0c-18.09,0-32.76-1.32-43.95-2.84l0,0c-11.12-1.73-20.65-4.13-30.57-8.22l0,0
							C61.72,130.42,61.5,130.9,61.1,131.39L61.1,131.39z M136.75,135.63c-17.37,0-31.55-1.18-42.38-2.75l0,0
							c-17.29-2.24-26.51-6.34-29.89-7.69l0,0c0.34-0.58,0.69-1.16,1.21-1.75l0,0c2.53,1.29,11.41,4.86,28.9,7.35l0,0
							c10.69,1.51,24.87,2.63,42.14,2.63l0,0c0.12,0,0.23,0,0.37,0.02l0,0c18.36,0,32.64-1.51,43.91-3.14l0,0
							c17.07-2.33,26.3-6.71,27.83-7.76l0,0l1.27,2.1l-0.12,0.07l0.08,0.09c-2.01,1.59-11.65,4.99-28.7,7.72l0,0
							c-11.34,1.66-25.78,3.09-44.26,3.1l0,0C136.99,135.63,136.87,135.63,136.75,135.63L136.75,135.63z M64.65,125.12
							c3.31,1.21,12.5,5.25,29.77,7.51l0,0c10.81,1.56,24.98,2.75,42.34,2.75l0,0c0.12,0,0.24,0.02,0.35,0.02l0,0
							c18.45-0.03,32.89-1.48,44.23-3.14l0,0c16.75-2.68,26.4-6.05,28.49-7.59l0,0l-1-1.98c-1.44,1.18-10.65,5.51-27.78,7.86l0,0
							c-11.25,1.62-25.55,3.14-43.93,3.14l0,0c-0.13-0.02-0.25-0.02-0.37-0.02l0,0c-17.29,0-31.5-1.12-42.19-2.63l0,0
							c-17.5-2.51-26.39-6.08-28.8-7.43l0,0C65.4,124.17,65.05,124.73,64.65,125.12L64.65,125.12z"/>
					</g>
				</g>
				<g>
					<path class="st2" d="M136.78,85c-45.55,0-82.48,36.97-82.48,82.51c0,45.58,36.93,82.5,82.48,82.5
						c45.57,0,82.51-36.91,82.51-82.5C219.3,121.97,182.35,85,136.78,85z M136.78,242.09c-41.18,0-74.57-33.39-74.57-74.58
						c0-41.18,33.39-74.58,74.57-74.58c41.21,0,74.61,33.4,74.61,74.58C211.39,208.7,177.99,242.09,136.78,242.09z"/>
					<g>
						<path class="st2" d="M220.13,167.51c0,46.04-37.32,83.35-83.35,83.35c-46.01,0-83.33-37.31-83.33-83.35
							c0-46.03,37.32-83.33,83.33-83.33C182.82,84.17,220.13,121.48,220.13,167.51z M136.78,85.85c-45.07,0-81.67,36.57-81.67,81.66
							c0,45.11,36.61,81.68,81.67,81.68c45.12,0,81.69-36.57,81.69-81.68C218.47,122.42,181.9,85.85,136.78,85.85z"/>
						<path d="M53.31,167.51c0-46.1,37.38-83.48,83.47-83.48l0,0c46.11,0,83.48,37.38,83.48,83.48l0,0
							c0,46.1-37.37,83.48-83.48,83.48l0,0C90.69,250.99,53.31,213.61,53.31,167.51L53.31,167.51z M53.58,167.51
							c0.09,45.97,37.26,83.13,83.21,83.22l0,0c45.97-0.09,83.13-37.26,83.22-83.22l0,0c-0.1-45.97-37.26-83.11-83.22-83.22l0,0
							C90.84,84.4,53.67,121.54,53.58,167.51L53.58,167.51z M54.98,167.51c0-45.16,36.66-81.79,81.81-81.79l0,0v0.13v0.13
							c-45.01,0.08-81.46,36.51-81.55,81.52l0,0c0.08,45.04,36.54,81.46,81.55,81.55l0,0c45.05-0.08,81.47-36.51,81.55-81.55l0,0
							c-0.08-45.02-36.51-81.45-81.55-81.52l0,0v-0.13v-0.13c45.19,0,81.82,36.63,81.82,81.79l0,0c0,45.19-36.63,81.81-81.82,81.81
							l0,0C91.63,249.32,54.98,212.7,54.98,167.51L54.98,167.51z"/>
					</g>
					<g>
						<path class="st2" d="M212.22,167.51c0,41.66-33.76,75.42-75.44,75.42c-41.65,0-75.41-33.76-75.41-75.42
							c0-41.65,33.76-75.4,75.41-75.4C178.46,92.1,212.22,125.86,212.22,167.51z M136.78,93.74c-40.73,0-73.74,33.05-73.74,73.76
							c0,40.74,33.01,73.74,73.74,73.74c40.76,0,73.78-33.01,73.78-73.74C210.56,126.79,177.54,93.74,136.78,93.74z"/>
						<path d="M61.24,167.51c0-41.72,33.81-75.55,75.54-75.55l0,0c41.75,0,75.56,33.82,75.56,75.55l0,0
							c0,41.74-33.81,75.56-75.56,75.56l0,0C95.05,243.07,61.24,209.25,61.24,167.51L61.24,167.51z M61.5,167.51
							c0.08,41.57,33.7,75.21,75.28,75.3l0,0c41.6-0.09,75.22-33.72,75.3-75.3l0,0c-0.08-41.57-33.7-75.21-75.3-75.28l0,0
							C95.2,92.3,61.58,125.94,61.5,167.51L61.5,167.51z M62.89,167.51c0-40.79,33.08-73.89,73.89-73.89l0,0v0.11v0.13
							c-40.66,0.07-73.54,33.01-73.63,73.64l0,0c0.09,40.66,32.97,73.54,73.63,73.61l0,0c40.68-0.08,73.55-32.95,73.64-73.61l0,0
							c-0.08-40.64-32.96-73.57-73.64-73.64l0,0v-0.13v-0.11c40.81,0,73.9,33.1,73.9,73.89l0,0c0,40.81-33.09,73.86-73.9,73.86l0,0
							C95.97,241.37,62.89,208.32,62.89,167.51L62.89,167.51z"/>
					</g>
				</g>
				<g>
					<g id="_x3C_Path_x3E__733_">
						<path class="st2" d="M135.94,149.92c34.76-0.2,71.03,4.96,84.89,12.23v8.93c-12.06-6.62-45.61-13.54-84.84-12.51
							c-31.94,0.22-66.01,3.6-83.12,12.93v-10.32C66.92,153.73,106.04,149.98,135.94,149.92z"/>
						<path d="M52.8,161.07c14.11-7.47,53.2-11.22,83.13-11.28l0,0l0,0c0.63-0.02,1.25-0.02,1.89-0.02l0,0
							c34.2,0,69.39,5.09,83.13,12.38l0,0l-0.2,9.05c-11.2-6.16-41.16-12.59-76.93-12.59l0,0c-2.59,0-5.22,0.04-7.83,0.1l0,0
							c-31.92,0.22-66,3.6-83.26,12.8l0,0L52.8,161.07L52.8,161.07z M52.98,161.18L52.8,171.4c17.17-9.35,51.24-12.74,83.17-12.95
							l0,0c2.63-0.07,5.25-0.1,7.86-0.1l0,0c35.8,0,65.77,6.42,76.87,12.74l0,0l0.06-8.82c-13.57-7.15-48.78-12.24-82.93-12.24l0,0
							c-0.64,0-1.27,0.02-1.87,0.02l0,0C106.04,150.09,66.91,153.88,52.98,161.18L52.98,161.18z"/>
					</g>
					<g id="_x3C_Path_x3E__732_">
						<path class="st2" d="M136.39,157.3c19.83-0.05,39,1.08,54.24,3.93c14.21,2.66,29.24,6.73,31.17,8.91v2.7
							c-4.7-3.14-16.42-6.63-31.45-9.56c-15.1-2.88-34.27-3.85-54-3.79c-22.36-0.09-39.76,1.14-54.68,3.77
							c-15.77,3.02-27.05,7.34-29.77,9.38v-2.83c5.25-2.76,15.37-6.07,29.38-8.63C96.71,158.3,114.28,157.43,136.39,157.3
							L136.39,157.3z M136.39,149.11c18.98-0.05,37.71,1.06,52.33,3.73c11.53,2.27,28.92,5.87,33.08,9.06v3.54
							c-3.73-4.21-21.57-8.24-33.96-10.5c-14.49-2.54-32.47-3.56-51.44-3.7c-19.9,0.05-38.33,1.3-52.61,3.94
							c-13.63,2.67-28.15,5.79-31.88,8.23v-2.96c5.16-2.77,21.1-5.32,31.56-7.39C97.84,150.39,116.36,149.17,136.39,149.11z"/>
						<path d="M190.31,163.41c-14.68-2.8-33.22-3.78-52.39-3.78l0,0c-0.52,0-1.06-0.02-1.57,0l0,0c-0.74,0-1.47-0.02-2.21-0.02l0,0
							c-21.33,0-38.07,1.22-52.46,3.78l0,0c-15.74,3.02-27.05,7.34-29.92,9.26l0,0l0.07-2.94c5.27-2.78,15.41-6.08,29.42-8.64l0,0
							c15.45-2.9,33.04-3.76,55.15-3.9l0,0v0.13v0.12c-22.11,0.14-39.68,1-55.1,3.91l0,0c-13.99,2.55-24.1,5.86-29.28,8.49l0,0
							l-0.19,2.73c2.75-2.07,14.04-6.39,29.82-9.42l0,0c14.41-2.54,31.18-3.78,52.51-3.78l0,0c0.73,0,1.47,0.02,2.21,0.02l0,0
							c0.52-0.02,1.05,0,1.57,0l0,0c19.17,0,37.74,0.98,52.45,3.79l0,0c15.05,2.94,26.76,6.42,31.31,9.69l0,0l0.01-2.61
							c-1.81-2.11-16.9-6.22-31.08-8.89l0,0c-14.94-2.78-33.63-3.92-53-3.92l0,0c-0.42,0-0.82,0-1.22,0l0,0v-0.12v-0.13
							c0.4,0,0.8,0,1.22,0l0,0c19.39,0,38.09,1.14,53.05,3.93l0,0c14.21,2.69,29.2,6.71,31.26,9.05l0,0l-0.21,2.81
							C217.06,169.84,205.33,166.33,190.31,163.41L190.31,163.41z M187.8,155.07c-14.49-2.54-32.45-3.55-51.41-3.7l0,0
							c-19.9,0.05-38.32,1.3-52.58,3.95l0,0c-13.63,2.64-28.17,5.79-32.06,8.1l0,0l0.07-3.08c5.2-2.77,21.15-5.32,31.61-7.39l0,0
							c14.39-2.68,32.93-3.91,52.96-3.97l0,0v0.26l0,0v-0.26c0.41,0,0.83,0,1.26,0l0,0c18.54,0,36.78,1.1,51.08,3.74l0,0
							c11.55,2.27,28.9,5.84,33.19,9.18l0,0l-0.24,3.63C218.05,161.37,200.18,157.31,187.8,155.07L187.8,155.07z M187.85,154.81
							c12.42,2.27,30.23,6.26,33.82,10.63l0,0l0.04-3.45c-4.09-3.15-21.5-6.74-33.02-9.02l0,0c-14.29-2.63-32.52-3.73-51.04-3.73
							l0,0c-0.42,0-0.83,0-1.26,0l0,0l0,0l0,0c-20.02,0.07-38.54,1.27-52.92,3.95l0,0c-10.45,2.06-26.41,4.63-31.46,7.26l0,0
							l-0.19,2.87c3.81-2.48,18.3-5.58,31.94-8.26l0,0c14.3-2.64,32.74-3.91,52.64-3.95l0,0
							C155.35,151.25,173.34,152.26,187.85,154.81L187.85,154.81z"/>
					</g>
				</g>
				<g>
					<g id="_x3C_Path_x3E__731_">
						<path class="st2" d="M136.43,111.04c31.2-0.16,58.4,4.37,70.85,10.75l4.53,7.84c-10.81-5.81-40.17-11.88-75.34-10.98
							c-28.65,0.19-59.28,3.14-74.63,11.34l5.41-9.07C79.88,114.41,109.62,111.07,136.43,111.04z"/>
						<path d="M67.2,120.81c12.66-6.54,42.39-9.88,69.23-9.89l0,0v-0.03c0.52,0,1.05,0,1.58,0l0,0c30.54,0,57.04,4.48,69.37,10.83
							l0,0l4.37,8.02c-10.06-5.41-36.26-11.07-68.24-11.06l0,0c-2.33,0-4.68,0.02-7.03,0.09l0,0c-28.64,0.19-59.26,3.16-74.75,11.16
							l0,0L67.2,120.81L67.2,120.81z M67.35,121l-5.57,8.86c15.4-8.19,46.04-11.16,74.68-11.34l0,0c2.36-0.08,4.71-0.1,7.05-0.1l0,0
							c32.02,0,58.22,5.64,68.19,11.27l0,0l-4.49-7.8c-12.2-6.24-38.69-10.74-69.2-10.74l0,0c-0.52,0-1.06,0-1.58,0.02l0,0
							C109.62,111.19,79.88,114.55,67.35,121L67.35,121z"/>
					</g>
					<g id="_x3C_Path_x3E__730_">
						<path class="st2" d="M136.84,117.54c17.79-0.05,34.98,0.96,48.69,3.41c12.69,2.38,24.86,5.93,26.59,7.84l1.32,2.38
							c-4.21-2.77-14.72-5.79-28.21-8.37c-13.56-2.58-30.72-3.4-48.44-3.36c-20.05-0.09-35.67,0.97-49.06,3.35
							c-14.13,2.66-23.95,6.4-26.4,8.2l1.34-2.52c4.68-2.36,12.19-5.29,24.74-7.54C101.23,118.41,117.03,117.65,136.84,117.54
							L136.84,117.54z M136.84,110.35c17.02-0.04,33.84,0.9,46.93,3.25c10.35,2.01,20.55,5.16,24.3,7.95l1.97,3.16
							c-3.34-3.75-15.93-7.27-27.06-9.26c-13.01-2.23-29.12-3.13-46.14-3.26c-17.88,0.04-34.38,1.13-47.17,3.49
							c-12.24,2.33-20.12,5.06-23.45,7.22l1.71-2.62c4.63-2.42,12.06-4.64,21.45-6.47C102.26,111.45,118.86,110.4,136.84,110.35z"/>
						<path d="M185.21,122.93c-13.17-2.5-29.77-3.37-46.95-3.37l0,0c-0.5,0-0.98,0-1.47,0.01l0,0c-0.76-0.01-1.51-0.01-2.25-0.01
							l0,0c-18.98,0-33.91,1.06-46.78,3.35l0,0c-14.11,2.65-23.94,6.41-26.55,8.02l0,0l1.4-2.57c4.71-2.37,12.21-5.31,24.77-7.56
							l0,0c13.85-2.52,29.64-3.28,49.45-3.39l0,0c0.45-0.01,0.91-0.01,1.35-0.01l0,0c17.31,0,33.99,1,47.36,3.43l0,0
							c12.72,2.37,24.84,5.89,26.69,7.89l0,0l1.14,2.54C209.19,128.54,198.69,125.5,185.21,122.93L185.21,122.93z M185.26,122.66
							c13.5,2.58,23.98,5.62,28.04,8.57l0,0l-1.29-2.37c-1.64-1.84-13.85-5.42-26.53-7.79l0,0c-13.36-2.39-30.02-3.42-47.31-3.42
							l0,0c-0.44,0-0.9,0.01-1.34,0.01l0,0v-0.13v0.13c-19.82,0.1-35.6,0.86-49.42,3.39l0,0c-12.53,2.26-20.02,5.16-24.64,7.48l0,0
							l-1.53,2.34c2.49-1.82,12.31-5.56,26.47-8.22l0,0c12.88-2.3,27.83-3.34,46.82-3.34l0,0c0.74,0,1.5,0,2.25,0l0,0
							c0.48,0,0.97,0,1.47,0l0,0C155.45,119.31,172.05,120.16,185.26,122.66L185.26,122.66z M209.93,124.77l-1.94-3.12
							c-3.71-2.77-13.92-5.93-24.27-7.92l0,0c-12.88-2.32-29.33-3.26-46.06-3.26l0,0c-0.28,0-0.55,0-0.84,0.01l0,0
							c-17.97,0.05-34.56,1.1-47.45,3.46l0,0c-9.4,1.83-16.79,4.06-21.36,6.41l0,0l-1.89,2.44c3.35-2.17,11.23-4.9,23.5-7.24l0,0
							c12.79-2.34,29.31-3.44,47.19-3.48l0,0c17.02,0.13,33.13,1.02,46.15,3.26l0,0c11.13,1.99,23.69,5.48,26.92,9.44l0,0
							c-3.31-3.67-15.89-7.23-26.98-9.18l0,0c-12.99-2.23-29.09-3.12-46.1-3.26l0,0c-17.85,0.04-34.38,1.13-47.15,3.48l0,0
							c-12.23,2.33-20.11,5.07-23.59,7.03l0,0l1.76-2.67c4.65-2.43,12.09-4.65,21.48-6.49l0,0c12.91-2.35,29.51-3.41,47.49-3.43l0,0
							v-0.03c0.29,0,0.57,0,0.85,0l0,0c16.73,0,33.19,0.93,46.1,3.25l0,0c10.38,2.03,20.59,5.14,24.42,8.01l0,0l1.76,3.32
							C209.94,124.78,209.93,124.78,209.93,124.77L209.93,124.77z M209.91,124.77h0.02v0.01l0,0L209.91,124.77L209.91,124.77z"/>
					</g>
					<g>
						<path id="_x3C_Path_x3E__729_" class="st2" d="M136.84,117.54c17.79-0.05,34.98,0.96,48.66,3.41
							c12.72,2.38,24.89,5.93,26.62,7.84l1.32,2.38c-4.21-2.77-14.72-5.79-28.21-8.38c-13.56-2.57-30.72-3.41-48.44-3.35
							c-20.05-0.09-35.67,0.97-49.04,3.35c-14.15,2.66-23.97,6.4-26.42,8.2l1.34-2.52c4.68-2.36,12.19-5.29,24.74-7.54
							C101.23,118.41,117.03,117.65,136.84,117.54L136.84,117.54z M136.84,110.35c17.02-0.04,33.84,0.9,46.93,3.25
							c10.35,2.01,20.55,5.16,24.3,7.95l1.97,3.16c-3.34-3.75-15.93-7.27-27.06-9.26c-13-2.23-29.12-3.13-46.14-3.26
							c-17.88,0.04-34.38,1.13-47.17,3.49c-12.24,2.31-20.12,5.05-23.45,7.22l1.71-2.62c4.63-2.42,12.06-4.64,21.45-6.47
							C102.26,111.45,118.86,110.4,136.84,110.35z"/>
						<path d="M185.21,122.91c-13.06-2.47-29.51-3.35-46.54-3.35l0,0c-0.63,0-1.26,0-1.88,0.01l0,0c-0.76-0.01-1.51-0.01-2.25-0.01
							l0,0c-18.98,0-33.91,1.06-46.77,3.35l0,0c-14.13,2.65-23.96,6.41-26.56,8.02l0,0l1.4-2.57c4.71-2.37,12.21-5.31,24.77-7.56
							l0,0c13.85-2.52,29.64-3.28,49.45-3.39l0,0c0.45-0.01,0.91-0.01,1.35-0.01l0,0c17.31,0,33.99,1,47.34,3.43l0,0
							c12.74,2.37,24.86,5.89,26.71,7.89l0,0l1.14,2.54C209.19,128.54,198.69,125.5,185.21,122.91L185.21,122.91z M185.26,122.66
							c13.5,2.59,23.98,5.63,28.04,8.58l0,0l-1.29-2.37c-1.64-1.84-13.85-5.42-26.55-7.79l0,0c-13.34-2.39-30-3.42-47.29-3.42l0,0
							c-0.44,0-0.9,0.01-1.34,0.01l0,0v-0.13v0.13c-19.82,0.1-35.6,0.86-49.42,3.39l0,0c-12.53,2.26-20.02,5.16-24.64,7.48l0,0
							l-1.53,2.34c2.49-1.82,12.31-5.56,26.47-8.22l0,0c12.88-2.3,27.83-3.34,46.82-3.34l0,0c0.74,0,1.5,0,2.25,0l0,0
							c0.61,0,1.26,0,1.88,0l0,0C155.71,119.31,172.16,120.18,185.26,122.66L185.26,122.66z M209.93,124.77l-1.94-3.12
							c-3.71-2.77-13.92-5.93-24.27-7.92l0,0c-12.88-2.32-29.33-3.26-46.06-3.26l0,0c-0.28,0-0.55,0-0.84,0.01l0,0v-0.13v0.13
							c-17.97,0.05-34.56,1.1-47.45,3.46l0,0c-9.4,1.83-16.79,4.06-21.36,6.41l0,0l-1.89,2.44c3.35-2.19,11.23-4.92,23.5-7.24l0,0
							c12.79-2.34,29.31-3.44,47.19-3.48l0,0c17.02,0.13,33.14,1.02,46.15,3.26l0,0c11.13,1.99,23.69,5.48,26.92,9.44l0,0
							c-3.31-3.67-15.89-7.23-26.98-9.18l0,0c-12.98-2.23-29.09-3.12-46.1-3.26l0,0c-17.85,0.04-34.38,1.13-47.15,3.48l0,0
							c-12.23,2.3-20.11,5.07-23.59,7.03l0,0l1.76-2.67c4.65-2.43,12.09-4.65,21.48-6.49l0,0c12.91-2.35,29.52-3.41,47.49-3.46l0,0
							c0.29,0,0.57,0,0.85,0l0,0c16.73,0,33.19,0.93,46.1,3.25l0,0c10.38,2.03,20.59,5.14,24.42,8.01l0,0l1.76,3.32
							C209.94,124.78,209.93,124.78,209.93,124.77L209.93,124.77z M209.91,124.77h0.02v0.01l0,0L209.91,124.77L209.91,124.77z"/>
					</g>
				</g>
				<g>
					<g id="_x3C_Path_x3E__728_">
						<path class="st2" d="M136.18,194.39c25.6,0.19,57.19,3.47,75.34,10.71l-3.91,6.4c-10.74-5.96-42.49-9.88-71.65-10.45
							c-34.49,0.31-58.37,3.85-70.31,10.58l-3.32-5.66C83.68,196.48,106.65,194.47,136.18,194.39z"/>
						<path d="M62.28,205.85c21.37-9.48,44.36-11.51,73.91-11.59l0,0v0.26v-0.26c25.61,0.18,57.19,3.48,75.46,10.89l0,0l-4.11,6.46
							c-10.67-5.94-42.43-9.86-71.57-10.44l0,0c-34.48,0.31-58.35,3.84-70.43,10.51l0,0L62.28,205.85L62.28,205.85z M62.44,205.89
							l3.16,5.61c11.99-6.75,35.86-10.27,70.37-10.59l0,0c29.18,0.59,60.9,4.48,71.53,10.52l0,0l3.97-6.21
							c-18.13-7.24-49.72-10.53-75.3-10.7l0,0C106.64,194.59,83.71,196.61,62.44,205.89L62.44,205.89z"/>
					</g>
					<g>
						<path id="_x3C_Path_x3E__727_" class="st2" d="M211.73,204.97l-1.27,2.19c-1.38-1.75-11.1-5.45-28.91-8.34
							c-11.7-1.76-26.87-3.4-45.95-3.4c-18.1-0.04-32.8,1.27-43.98,2.81c-11.09,1.72-20.52,4.14-30.55,8.13
							c-0.31-0.63-0.52-1.08-0.85-1.74c3.5-1.42,12.88-5.43,31.11-8.3c11.27-1.52,26.14-2.82,44.33-2.81
							c19.16,0.01,34.5,1.56,46.29,3.35C199.3,199.87,211.09,203.98,211.73,204.97L211.73,204.97z M205.55,212.62
							c-3.45-1.74-12.09-5.02-26.05-6.95c-11.21-1.59-25.4-3.08-43.65-3.1c-17.34-0.02-31.59,1.11-42.29,2.63
							c-17.41,2.48-26.25,6.11-28.8,7.39c-0.34-0.57-0.67-1.13-1.02-1.71c3.31-1.18,12.45-5.25,29.63-7.5
							c10.84-1.59,25.05-2.76,42.47-2.75c18.35,0.02,32.71,1.47,43.98,3.1c14.02,2.24,23.01,4.98,26.79,6.75L205.55,212.62z"/>
						<path d="M179.49,205.8c-11.2-1.6-25.4-3.1-43.65-3.11l0,0c-0.14,0-0.3,0-0.43,0l0,0c-17.12,0-31.24,1.12-41.84,2.63l0,0
							c-17.4,2.48-26.23,6.1-28.92,7.33l0,0c-0.34-0.58-0.68-1.13-0.94-1.92l0,0c3.3-1.18,12.47-5.26,29.65-7.51l0,0
							c10.77-1.57,24.87-2.74,42.13-2.74l0,0c0.12,0,0.23-0.01,0.37,0l0,0c18.35,0.01,32.71,1.47,43.99,3.1l0,0
							c14.03,2.24,23.01,4.98,26.89,6.94l0,0l-1.08,2.15l-0.12-0.04l-0.06,0.11C202.05,211.01,193.42,207.72,179.49,205.8
							L179.49,205.8z M93.39,203.49c-17.18,2.25-26.29,6.33-29.53,7.33l0,0c0.33,0.57,0.67,1.14,0.85,1.65l0,0
							c2.57-1.29,11.4-4.92,28.83-7.4l0,0c10.62-1.51,24.74-2.64,41.87-2.64l0,0c0.15,0,0.29,0,0.44,0l0,0
							c18.26,0.03,32.45,1.52,43.68,3.14l0,0c13.8,1.89,22.41,5.14,25.94,6.9l0,0l1.08-1.86c-3.76-1.77-12.74-4.5-26.76-6.75l0,0
							c-11.26-1.62-25.61-3.08-43.95-3.1l0,0c-0.13,0-0.24,0-0.36,0l0,0C118.23,200.75,104.13,201.91,93.39,203.49L93.39,203.49z
							 M181.54,198.95c-11.7-1.75-26.87-3.41-45.94-3.41l0,0c-0.23,0-0.46,0-0.66,0l0,0c-17.8,0-32.28,1.28-43.31,2.82l0,0
							c-11.08,1.72-20.49,4.12-30.68,8.05l0,0c-0.31-0.62-0.52-1.08-0.78-1.92l0,0c3.49-1.43,12.89-5.42,31.14-8.28l0,0
							c11.19-1.52,25.96-2.84,44-2.84l0,0c0.1,0,0.22,0,0.34,0.01l0,0c19.16,0.01,34.51,1.56,46.3,3.35l0,0
							c17.4,3.04,29.13,7.07,29.88,8.16l0,0l-0.1,0.08l0.1,0.06l-1.48,2.22C209.04,205.57,199.31,201.82,181.54,198.95
							L181.54,198.95z M135.6,195.28c19.08,0,34.26,1.64,45.97,3.4l0,0c17.82,2.9,27.51,6.58,28.76,8.39l0,0l1.23-2.1
							c-0.92-0.98-12.66-5.05-29.65-7.98l0,0c-11.76-1.8-27.1-3.34-46.26-3.34l0,0c-0.14-0.01-0.25,0-0.34,0l0,0
							c-18.03,0-32.77,1.3-43.97,2.79l0,0c-18.22,2.88-27.57,6.88-31.01,8.11l0,0c0.34,0.66,0.55,1.11,0.69,1.68l0,0
							c10.04-3.99,19.49-6.4,30.58-8.11l0,0c11.04-1.54,25.52-2.83,43.34-2.83l0,0C135.15,195.28,135.37,195.28,135.6,195.28
							L135.6,195.28z"/>
					</g>
				</g>
				<g>
					<g>
						<rect x="140.12" y="83.77" class="st2" width="1.77" height="167.49"/>
						<path d="M139.99,251.25l0.13-167.63l1.9,0.14v167.49h-0.13v0.13L139.99,251.25L139.99,251.25z M140.12,251.13h1.64
							l0.13-167.24l-1.65-0.13L140.12,251.13L140.12,251.13z"/>
					</g>
					<g>
						<rect x="131.7" y="83.77" class="st2" width="1.77" height="167.49"/>
						<path d="M131.57,251.25l0.12-167.63l1.9,0.14v167.49h-0.13v0.13L131.57,251.25L131.57,251.25z M131.69,251.12h1.65
							l0.11-167.22l-1.63-0.13L131.69,251.12L131.69,251.12z"/>
					</g>
					<g>
						<rect x="133.47" y="84.59" class="st2" width="6.65" height="165.84"/>
						<path d="M133.33,250.43l0.13-165.98l6.79,0.14v165.84h-0.13v0.13L133.33,250.43L133.33,250.43z M133.45,250.3h6.53
							l0.13-165.58l-6.53-0.13L133.45,250.3L133.45,250.3z"/>
					</g>
				</g>
				<g>
					<g id="_x3C_Path_x3E__726_">
						<path class="st2" d="M66.54,120.83c25.78-0.35,144.66,72.67,145.01,86.07l-7.37,11.3c-3.32-15.58-123.97-86.63-143.87-85.29
							L66.54,120.83z"/>
						<path d="M60.88,133.03c-0.2,0-0.41,0-0.7-0.19l0,0l6.24-12.09l0.11,0.08l-0.02-0.14c0.06,0,0.13-0.01,0.19-0.01l0,0
							c26.26,0.07,144.47,72.61,144.95,86.29l0,0l-7.62,11.25C200.87,202.95,82.29,132.96,60.88,133.03L60.88,133.03z
							 M204.05,218.12l7.38-11.22c-0.25-13.17-118.72-86.04-144.72-85.98l0,0c-0.03,0-0.05,0.01-0.1,0.02l0,0l-6.32,11.84
							c0.18-0.01,0.38-0.04,0.59-0.04l0,0C82.54,132.82,200.88,202.56,204.05,218.12L204.05,218.12z M66.54,120.95h0.01l0,0H66.54
							L66.54,120.95z"/>
					</g>
					<g id="_x3C_Path_x3E__725_">
						<path class="st2" d="M59.55,132.49c4.8-3.26,39.92,12.39,76.67,34.55c36.63,22.22,71.63,47.34,68.49,52.03l-1.03,1.65
							l-0.48,0.38c0.11-0.07,0.64-0.72-0.05-2.47c-1.56-5.13-26.41-24.95-67.64-49.84c-40.17-23.97-73.66-38.41-77.02-34.26
							L59.55,132.49L59.55,132.49z M212.3,207.73c2.99-5.95-29.56-30.46-69.96-54.4c-41.31-23.39-71.08-37.17-76.5-33.07l-1.23,2.2
							c0,0.12,0.05-0.15,0.31-0.35c0.98-0.88,2.6-0.82,3.34-0.82c9.38,0.16,36.11,12.46,73.67,33.96
							c16.4,9.59,69.44,43.59,69.24,53.16c0,0.83,0.08,0.98-0.24,1.38L212.3,207.73z"/>
						<path d="M203.12,220.99l0.02-0.02L203.12,220.99c0.01-0.01,0.24-0.25,0.24-0.82l0,0c0-0.35-0.09-0.84-0.34-1.5l0,0
							c-1.48-5.03-26.35-24.89-67.58-49.76l0,0c-35.54-21.24-65.94-34.97-74.65-34.97l0,0c-1.14,0-1.86,0.24-2.42,0.52l0,0
							l1.06-2.02l0.11,0.05l-0.07-0.1c0.46-0.31,1.14-0.46,2.03-0.46l0,0c9.14,0.02,41.24,14.81,74.75,35l0,0
							c35.11,21.33,68.68,45.14,68.75,51.44l0,0c0,0.28-0.08,0.54-0.2,0.77l0,0l-1.06,1.68l-0.31,0.08
							c-0.06,0.08-0.13,0.13-0.21,0.13l0,0C203.2,221.03,203.15,221.01,203.12,220.99L203.12,220.99z M135.57,168.68
							c41.26,24.91,66.08,44.67,67.7,49.91l0,0c0.25,0.67,0.35,1.17,0.35,1.58l0,0c-0.02,0.19-0.03,0.34-0.07,0.48l0,0l0.02-0.01
							l1.01-1.65c0.12-0.19,0.17-0.38,0.17-0.63l0,0c0.08-5.89-33.54-29.98-68.61-51.23l0,0c-33.48-20.17-65.66-34.97-74.63-34.96
							l0,0c-0.84,0-1.48,0.14-1.86,0.4l0,0l-1.26,1.86c0.41-0.55,1.23-0.75,2.39-0.75l0,0C69.66,133.7,99.98,147.44,135.57,168.68
							L135.57,168.68z M210.82,209.72l0.12-0.19c0.09-0.15,0.1-0.27,0.1-0.52l0,0c0-0.16,0-0.35,0.03-0.54l0,0
							c-0.07-0.08-0.03-0.13-0.03-0.13l0,0c0.08-9.43-52.83-43.46-69.18-52.97l0,0c-37.53-21.5-64.31-33.81-73.59-33.94l0,0
							c-0.09,0-0.19-0.02-0.28-0.02l0,0c-0.82,0-2.16,0.07-2.99,0.82l0,0c-0.16,0.1-0.17,0.16-0.25,0.22l0,0l-0.01,0.02
							c0,0,0,0.01-0.03-0.01l0,0c-0.05,0.02-0.11,0.04-0.24,0.04l0,0c0,0,0-0.03,0.02-0.09l0,0l1.26-2.25
							c0.66-0.51,1.65-0.74,2.99-0.74l0,0c9.78,0.02,37.22,13.18,73.68,33.82l0,0c38.62,22.91,70.12,46.24,70.19,53.61l0,0
							c0,0.35-0.07,0.67-0.2,0.95l0,0l-0.11-0.07l0.1,0.08l-1.1,1.32C211.29,209.42,211.2,209.6,210.82,209.72L210.82,209.72
							L210.82,209.72z M211.3,208.41c0,0.24,0,0.41,0,0.58l0,0l0.88-1.32l0,0c0.1-0.22,0.17-0.5,0.17-0.82l0,0
							c0.06-7.01-31.47-30.55-70.06-53.39l0,0c-36.44-20.62-63.92-33.79-73.55-33.79l0,0c-1.31,0-2.25,0.24-2.8,0.66l0,0l-0.84,1.48
							c0.91-0.63,2.16-0.65,2.89-0.65l0,0c0.1,0,0.19,0.01,0.28,0.01l0,0c9.45,0.16,36.16,12.46,73.73,33.97l0,0
							c16.39,9.62,69.22,43.37,69.3,53.2l0,0h-0.04L211.3,208.41L211.3,208.41z"/>
					</g>
				</g>
			</g>
			<g>
				<g>
					<path id="_x3C_Path_x3E__724_" class="st3" d="M87.32,175.84c0,13.53,5.56,25.8,14.55,34.78c9.02,8.98,21.27,14.64,34.83,14.64
						c13.66,0,26.04-5.54,35.02-14.49c8.99-8.96,14.55-21.32,14.55-34.91l0,0v-66.1H87.32V175.84L87.32,175.84z"/>
					<path d="M101.79,210.71c-9.04-9.01-14.61-21.31-14.61-34.88l0,0l0.13-66.2l99.09,0.13v66.1c0,13.63-5.57,26.02-14.59,35.01l0,0
						c-9,8.96-21.41,14.52-35.11,14.52l0,0C123.1,225.39,110.8,219.71,101.79,210.71L101.79,210.71z M101.97,210.52
						c8.99,8.96,21.21,14.61,34.74,14.61l0,0c13.63,0,25.96-5.54,34.91-14.45l0,0c8.97-8.94,14.53-21.27,14.53-34.83l0,0l0.13-65.97
						l-98.84-0.13v66.07C87.44,189.33,92.99,201.57,101.97,210.52L101.97,210.52z"/>
				</g>
				<g id="_x3C_Path_x3E__723_">
					<path class="st0" d="M89.34,175.84v0.02l0,0c0,12.98,5.36,24.79,13.97,33.36c8.63,8.58,20.51,13.91,33.51,13.91
						c13.09,0,24.92-5.3,33.51-13.84c8.58-8.55,13.92-20.36,13.92-33.39l0,0v-64.01H89.39L89.34,175.84z"/>
					<path d="M103.22,209.31c-8.65-8.59-14.02-20.43-14.02-33.45l0,0v-0.03l0.18-64.08l95.01,0.13v64.01
						c0,13.06-5.37,24.9-13.97,33.47l0,0c-8.61,8.57-20.48,13.89-33.6,13.89l0,0C123.77,223.25,111.87,217.92,103.22,209.31
						L103.22,209.31z M89.46,175.86c0,12.93,5.34,24.72,13.94,33.26l0,0c8.61,8.54,20.45,13.86,33.43,13.86l0,0
						c13.05,0,24.84-5.28,33.42-13.81l0,0c8.56-8.51,13.89-20.29,13.89-33.28l0,0l0.13-63.89l-94.75-0.12l-0.05,63.95V175.86
						L89.46,175.86z"/>
				</g>
				<g id="_x3C_Path_x3E__722_">
					<path class="st3" d="M108.72,172.91v0.01l0,0c0,8.45,3.17,16.11,8.28,21.68c5.09,5.6,12.12,9.07,19.83,9.07
						c7.73,0,14.76-3.44,19.82-9.02c5.09-5.57,8.24-13.24,8.24-21.7l0,0v-41.62h-56.13L108.72,172.91z"/>
					<path d="M116.89,194.69c-5.13-5.6-8.3-13.3-8.3-21.77l0,0v-0.01h0.02h0.24l-0.26-0.01l0.16-41.69l56.26,0.13v41.61
						c0,8.49-3.18,16.19-8.28,21.78l0,0c-5.09,5.6-12.15,9.07-19.91,9.07l0,0C129.07,203.81,121.99,200.31,116.89,194.69
						L116.89,194.69z M108.85,172.92c0,8.41,3.15,16.04,8.23,21.6l0,0c5.07,5.57,12.08,9.03,19.74,9.03l0,0
						c7.68,0,14.67-3.42,19.74-8.98l0,0c5.05-5.55,8.19-13.19,8.19-21.61l0,0l0.13-41.48l-56-0.13l-0.03,41.56V172.92L108.85,172.92
						z"/>
				</g>
				<g>
					<g id="_x3C_Path_x3E__721_">
						<path class="st4" d="M130.63,168.7L130.63,168.7L130.63,168.7c0,1.86,0.69,3.53,1.8,4.77c1.12,1.23,2.65,1.99,4.35,1.99
							c1.72,0,3.27-0.76,4.37-1.99c1.14-1.22,1.81-2.9,1.81-4.77l0,0v-9.15h-12.33V168.7z"/>
					</g>
					<g>
						<g id="_x3C_Path_x3E__720_">
							<path class="st3" d="M140.2,161.55c-0.7,0-1.25,0.55-1.25,1.23c0,0.68,0.55,1.23,1.25,1.23c0.69,0,1.24-0.55,1.24-1.23
								C141.43,162.1,140.88,161.55,140.2,161.55z"/>
						</g>
						<g id="_x3C_Path_x3E__719_">
							<path class="st3" d="M136.71,164.87c-0.67,0-1.23,0.55-1.23,1.23c0,0.7,0.56,1.25,1.23,1.25c0.68,0,1.25-0.55,1.25-1.25
								C137.96,165.42,137.39,164.87,136.71,164.87z"/>
						</g>
						<g id="_x3C_Path_x3E__718_">
							<path class="st3" d="M140.17,168.35c-0.68,0-1.24,0.56-1.24,1.25c0,0.67,0.56,1.23,1.24,1.23c0.71,0,1.24-0.56,1.24-1.23
								C141.41,168.91,140.88,168.35,140.17,168.35z"/>
						</g>
						<g id="_x3C_Path_x3E__717_">
							<path class="st3" d="M133.43,168.35c-0.7,0-1.26,0.58-1.26,1.26c0,0.67,0.56,1.23,1.26,1.23c0.67,0,1.24-0.55,1.24-1.23
								C134.67,168.92,134.1,168.35,133.43,168.35z"/>
						</g>
						<g id="_x3C_Path_x3E__716_">
							<path class="st3" d="M133.41,161.55c-0.68,0-1.24,0.55-1.24,1.23c0,0.68,0.56,1.22,1.24,1.22c0.68,0,1.25-0.54,1.25-1.22
								C134.66,162.1,134.09,161.55,133.41,161.55z"/>
						</g>
					</g>
				</g>
				<g>
					<g id="_x3C_Path_x3E__715_">
						<path class="st4" d="M113.25,168.7L113.25,168.7L113.25,168.7c0,1.86,0.7,3.53,1.82,4.77c1.11,1.23,2.68,1.99,4.37,1.99
							s3.26-0.76,4.36-1.99c1.12-1.22,1.83-2.9,1.83-4.77l0,0v-9.15h-12.38V168.7z"/>
					</g>
					<g>
						<g id="_x3C_Path_x3E__714_">
							<path class="st3" d="M122.82,161.55c-0.67,0-1.24,0.55-1.24,1.23c0,0.68,0.57,1.23,1.24,1.23c0.69,0,1.23-0.55,1.23-1.23
								C124.05,162.1,123.51,161.55,122.82,161.55z"/>
						</g>
						<g id="_x3C_Path_x3E__713_">
							<path class="st3" d="M119.35,164.87c-0.69,0-1.25,0.55-1.25,1.23c0,0.7,0.56,1.25,1.25,1.25c0.68,0,1.24-0.55,1.24-1.25
								C120.59,165.42,120.03,164.87,119.35,164.87z"/>
						</g>
						<g id="_x3C_Path_x3E__712_">
							<path class="st3" d="M122.82,168.35c-0.69,0-1.25,0.56-1.25,1.25c0,0.67,0.56,1.23,1.25,1.23c0.67,0,1.23-0.56,1.23-1.23
								C124.05,168.91,123.49,168.35,122.82,168.35z"/>
						</g>
						<g id="_x3C_Path_x3E__711_">
							<path class="st3" d="M116.05,168.35c-0.67,0-1.24,0.58-1.24,1.26c0,0.67,0.58,1.23,1.24,1.23c0.7,0,1.26-0.55,1.26-1.23
								C117.31,168.92,116.74,168.35,116.05,168.35z"/>
						</g>
						<g id="_x3C_Path_x3E__710_">
							<path class="st3" d="M116.05,161.55c-0.68,0-1.24,0.55-1.24,1.23c0,0.68,0.56,1.22,1.24,1.22c0.68,0,1.24-0.54,1.24-1.22
								C117.29,162.1,116.73,161.55,116.05,161.55z"/>
						</g>
					</g>
				</g>
				<g>
					<g id="_x3C_Path_x3E__709_">
						<path class="st4" d="M147.99,168.7L147.99,168.7L147.99,168.7c0,1.86,0.7,3.53,1.81,4.77c1.14,1.23,2.69,1.99,4.35,1.99
							c1.71,0,3.27-0.76,4.39-1.99c1.11-1.22,1.83-2.9,1.83-4.77l0,0v-9.15h-12.37V168.7z"/>
					</g>
					<g>
						<g id="_x3C_Path_x3E__708_">
							<path class="st3" d="M157.56,161.55c-0.66,0-1.24,0.55-1.24,1.23c0,0.68,0.58,1.23,1.24,1.23c0.69,0,1.24-0.55,1.24-1.23
								C158.8,162.1,158.24,161.55,157.56,161.55z"/>
						</g>
						<g id="_x3C_Path_x3E__707_">
							<path class="st3" d="M154.08,164.87c-0.67,0-1.23,0.55-1.23,1.23c0,0.7,0.56,1.25,1.23,1.25c0.69,0,1.26-0.55,1.26-1.25
								C155.33,165.42,154.76,164.87,154.08,164.87z"/>
						</g>
						<g id="_x3C_Path_x3E__706_">
							<path class="st3" d="M157.54,168.35c-0.67,0-1.22,0.56-1.22,1.25c0,0.67,0.55,1.23,1.22,1.23c0.68,0,1.26-0.56,1.26-1.23
								C158.8,168.91,158.22,168.35,157.54,168.35z"/>
						</g>
						<g id="_x3C_Path_x3E__705_">
							<path class="st3" d="M150.81,168.35c-0.7,0-1.26,0.58-1.26,1.26c0,0.67,0.56,1.23,1.26,1.23c0.65,0,1.23-0.55,1.23-1.23
								C152.03,168.92,151.46,168.35,150.81,168.35z"/>
						</g>
						<g id="_x3C_Path_x3E__704_">
							<path class="st3" d="M150.77,161.55c-0.67,0-1.24,0.55-1.24,1.23c0,0.68,0.58,1.22,1.24,1.22c0.69,0,1.26-0.54,1.26-1.22
								C152.03,162.1,151.46,161.55,150.77,161.55z"/>
						</g>
					</g>
				</g>
				<g>
					<g id="_x3C_Path_x3E__703_">
						<path class="st4" d="M130.63,189.61v0.02l0,0c0,1.85,0.69,3.54,1.8,4.77c1.12,1.24,2.65,1.99,4.35,1.99
							c1.72,0,3.27-0.75,4.37-1.98c1.14-1.22,1.81-2.92,1.81-4.78l0,0v-9.15l-12.33-0.02V189.61z"/>
					</g>
					<g>
						<g id="_x3C_Path_x3E__702_">
							<path class="st3" d="M140.2,182.46c-0.7,0-1.25,0.57-1.25,1.24c0,0.67,0.55,1.24,1.25,1.24c0.69,0,1.24-0.57,1.24-1.24
								C141.43,183.03,140.88,182.46,140.2,182.46z"/>
						</g>
						<g id="_x3C_Path_x3E__525_">
							<path class="st3" d="M136.71,185.8c-0.67,0-1.23,0.56-1.23,1.26c0,0.66,0.56,1.21,1.23,1.21c0.68,0,1.25-0.55,1.25-1.21
								C137.96,186.36,137.39,185.8,136.71,185.8z"/>
						</g>
						<g id="_x3C_Path_x3E__524_">
							<path class="st3" d="M140.17,189.26c-0.68,0-1.24,0.57-1.24,1.24c0,0.68,0.56,1.24,1.24,1.24c0.71,0,1.24-0.56,1.24-1.24
								C141.41,189.83,140.88,189.26,140.17,189.26z"/>
						</g>
						<g id="_x3C_Path_x3E__523_">
							<path class="st3" d="M133.43,189.27c-0.7,0-1.26,0.56-1.26,1.24c0,0.68,0.56,1.25,1.26,1.25c0.67,0,1.24-0.57,1.24-1.25
								C134.67,189.84,134.1,189.27,133.43,189.27z"/>
						</g>
						<g id="_x3C_Path_x3E__522_">
							<path class="st3" d="M133.41,182.46c-0.68,0-1.24,0.57-1.24,1.24c0,0.67,0.56,1.24,1.24,1.24c0.68,0,1.25-0.57,1.25-1.24
								C134.66,183.03,134.09,182.46,133.41,182.46z"/>
						</g>
					</g>
				</g>
				<g>
					<g id="_x3C_Path_x3E__520_">
						<path class="st4" d="M130.63,147.78L130.63,147.78L130.63,147.78c0,1.86,0.69,3.55,1.8,4.78c1.12,1.2,2.65,1.97,4.35,1.97
							c1.72,0,3.27-0.76,4.37-1.95c1.14-1.24,1.81-2.94,1.81-4.78l0,0v-9.17h-12.33V147.78z"/>
					</g>
					<g>
						<g id="_x3C_Path_x3E__519_">
							<path class="st3" d="M140.2,140.62c-0.7,0-1.25,0.55-1.25,1.23c0,0.69,0.55,1.24,1.25,1.24c0.69,0,1.24-0.55,1.24-1.24
								C141.43,141.18,140.88,140.62,140.2,140.62z"/>
						</g>
						<g id="_x3C_Path_x3E__518_">
							<path class="st3" d="M136.71,143.96c-0.67,0-1.23,0.55-1.23,1.21c0,0.71,0.56,1.26,1.23,1.26c0.68,0,1.25-0.55,1.25-1.26
								C137.96,144.51,137.39,143.96,136.71,143.96z"/>
						</g>
						<g id="_x3C_Path_x3E__517_">
							<path class="st3" d="M140.17,147.42c-0.68,0-1.24,0.55-1.24,1.24c0,0.68,0.56,1.23,1.24,1.23c0.71,0,1.24-0.55,1.24-1.23
								C141.41,147.97,140.88,147.42,140.17,147.42z"/>
						</g>
						<g id="_x3C_Path_x3E__516_">
							<path class="st3" d="M133.43,147.44c-0.7,0-1.26,0.56-1.26,1.24c0,0.68,0.56,1.22,1.26,1.22c0.67,0,1.24-0.54,1.24-1.22
								C134.67,148,134.1,147.44,133.43,147.44z"/>
						</g>
						<g id="_x3C_Path_x3E__514_">
							<path class="st3" d="M133.41,140.62c-0.68,0-1.24,0.55-1.24,1.23c0,0.67,0.56,1.24,1.24,1.24c0.68,0,1.25-0.55,1.25-1.24
								C134.66,141.18,134.09,140.62,133.41,140.62z"/>
						</g>
					</g>
				</g>
				<g>
					<g>
						<path id="_x3C_Path_x3E__513_" class="st2" d="M167.75,128.47h13.7l-0.64-5.28h-12.5L167.75,128.47z"/>
						<path d="M167.75,128.6v-0.12l-0.12-0.04l0.68-5.38l12.64,0.11l0.5,5.42H167.75L167.75,128.6z M181.31,128.49l-0.5-5.16
							l-12.38-0.13l-0.55,5.16L181.31,128.49L181.31,128.49z"/>
					</g>
					<g>
						<g>
							<path class="st2" d="M174.53,123.64c1.71,0.02,3.44,2.78,3.46,4.83h-6.82C171.19,126.33,172.85,123.64,174.53,123.64z"/>
							<path d="M171.04,128.46c0.03-2.19,1.68-4.92,3.48-4.95l0,0v0.25c-1.54,0-3.23,2.62-3.34,4.58l0,0l6.68,0.12
								c0-1.96-1.75-4.71-3.34-4.7l0,0v-0.26c1.86,0.05,3.55,2.87,3.47,5.1l0,0L171.04,128.46L171.04,128.46z"/>
						</g>
						<g>
							<path id="_x3C_Path_x3E__512_" class="st2" d="M174.54,124.8c0,0,2,0.97,2,3.67c-2,0-2,0-3.88,0
								C172.66,125.77,174.54,124.8,174.54,124.8z"/>
							<path d="M172.52,128.47c0-2.78,1.95-3.79,1.96-3.79l0,0l0.06,0.13l0.06-0.13c0.01,0,2.06,1,1.94,3.93l0,0
								C174.53,128.6,174.54,128.6,172.52,128.47L172.52,128.47z M172.66,128.34c1.87,0,1.89,0,3.75,0.13l0,0
								c0-2.36-1.53-3.34-1.86-3.52l0,0C174.25,125.13,172.78,126.08,172.66,128.34L172.66,128.34z"/>
						</g>
					</g>
					<g>
						<path id="_x3C_Path_x3E__510_" class="st2" d="M167.83,120.84h13.53c0.28,0,0.52,0.24,0.52,0.57l0,0
							c0,0.34-0.25,0.61-0.52,0.61h-13.53c-0.29,0-0.51-0.26-0.51-0.61l0,0C167.32,121.08,167.54,120.84,167.83,120.84z"/>
						<path d="M167.82,122.14c-0.37,0-0.63-0.34-0.63-0.73l0,0c0-0.4,0.27-0.7,0.63-0.7l0,0v0.13v0.12c-0.22,0-0.37,0.17-0.39,0.45
							l0,0c0.02,0.29,0.19,0.46,0.39,0.46l0,0h13.54c0.19,0,0.4-0.19,0.4-0.46l0,0c-0.02-0.27-0.19-0.45-0.4-0.45l0,0h-13.54v-0.12
							v-0.13h13.54c0.35,0,0.66,0.29,0.66,0.7l0,0c0,0.4-0.3,0.72-0.66,0.73l0,0H167.82L167.82,122.14z"/>
					</g>
					<g>
						<path id="_x3C_Path_x3E__509_" class="st2" d="M167.49,128.49h14.22c0.31,0,0.54,0.27,0.54,0.61l0,0
							c0,0.37-0.23,0.62-0.54,0.62h-14.22c-0.31,0-0.55-0.25-0.55-0.62l0,0C166.93,128.76,167.17,128.49,167.49,128.49z"/>
						<path d="M167.48,129.85c-0.39,0-0.68-0.33-0.68-0.74l0,0c0-0.4,0.28-0.74,0.68-0.74l0,0v0.13v0.13
							c-0.22,0-0.42,0.19-0.43,0.48l0,0c0.01,0.31,0.2,0.49,0.43,0.49l0,0h14.23c0.2,0,0.4-0.17,0.41-0.49l0,0
							c-0.01-0.28-0.21-0.48-0.41-0.48l0,0h-14.23v-0.13v-0.13h14.23c0.37,0,0.67,0.34,0.67,0.74l0,0c0,0.41-0.3,0.74-0.67,0.74l0,0
							H167.48L167.48,129.85z"/>
					</g>
					<g>
						<path id="_x3C_Path_x3E__508_" class="st2" d="M168.11,122.02h12.95c0.27,0,0.49,0.26,0.49,0.58l0,0
							c0,0.33-0.22,0.58-0.49,0.58h-12.95c-0.26,0-0.49-0.25-0.49-0.58l0,0C167.63,122.28,167.85,122.02,168.11,122.02z"/>
						<path d="M168.11,123.31c-0.34,0-0.61-0.33-0.61-0.71l0,0c0-0.38,0.27-0.71,0.61-0.72l0,0v0.14v0.12
							c-0.17,0-0.35,0.19-0.35,0.46l0,0c0,0.28,0.18,0.46,0.35,0.46l0,0h12.95c0.19,0,0.35-0.17,0.36-0.46l0,0
							c-0.01-0.28-0.17-0.46-0.36-0.46l0,0h-12.95v-0.12v-0.14h12.95c0.37,0.01,0.62,0.34,0.62,0.72l0,0c0,0.38-0.25,0.71-0.62,0.71
							l0,0H168.11L168.11,123.31z"/>
					</g>
					<g>
						<g id="_x3C_Path_x3E__507_">
							<path class="st2" d="M176.24,115.32l0.22,5.52l-3.59-0.01l0.26-5.51H176.24z"/>
							<path d="M172.73,120.81l0.4-5.64l3.11,0.02v0.13l0.13-0.01l0.09,5.66L172.73,120.81L172.73,120.81z M172.86,120.69l3.47,0.16
								l-0.22-5.4l-2.86-0.12L172.86,120.69L172.86,120.69z"/>
						</g>
						<g>
							<path id="_x3C_Path_x3E__506_" class="st2" d="M172.42,113.21h1v0.73h0.73v-0.73h1.02v0.73h0.75v-0.73h1.04v1.68
								c0,0.26-0.22,0.44-0.47,0.44h-3.61c-0.22,0-0.46-0.21-0.46-0.44V113.21L172.42,113.21z"/>
							<path d="M172.87,115.45c-0.31-0.01-0.57-0.25-0.58-0.57l0,0v-1.68h0.13v-0.13l1.13,0.13l-0.13,0.6l0.61,0.13l0.13-0.86
								l1.14,0.13l-0.12,0.6l0.61,0.13l0.13-0.86l1.15,0.13v1.68c0,0.33-0.28,0.57-0.58,0.57l0,0H172.87L172.87,115.45z
								 M172.55,114.88c0,0.14,0.18,0.31,0.32,0.31l0,0h3.62c0.18-0.02,0.31-0.13,0.34-0.31l0,0l0.14-1.56l-0.92-0.12l-0.12,0.86
								l-0.87-0.13l0.13-0.61l-0.9-0.12l-0.12,0.86l-0.88-0.13l0.13-0.61h-0.87V114.88L172.55,114.88z"/>
						</g>
						<g id="_x3C_Path_x3E__505_">
							<path d="M174.3,117.65c-0.03-0.52,0.73-0.55,0.73,0v1.26h-0.73V117.65z"/>
						</g>
						<g>
							<path id="_x3C_Path_x3E__503_" class="st2" d="M176.81,115.85h1.03v0.73h0.73v-0.75h1.01v0.75h0.71v-0.75h1.05v1.7
								c0,0.26-0.22,0.43-0.44,0.43h-3.61c-0.24,0-0.48-0.2-0.48-0.43V115.85L176.81,115.85z"/>
							<path d="M177.29,118.06c-0.31,0-0.61-0.22-0.61-0.55l0,0v-1.67h0.13v-0.13l1.16,0.13l-0.13,0.59l0.58,0.13l0.14-0.88
								l1.12,0.13l-0.11,0.61l0.58,0.13l0.13-0.88l1.18,0.13v1.69c0,0.35-0.31,0.55-0.58,0.55l0,0H177.29L177.29,118.06z
								 M176.94,117.52c0,0.14,0.16,0.28,0.34,0.28l0,0h3.6c0.17,0,0.32-0.1,0.32-0.28l0,0l0.13-1.56l-0.92-0.13l-0.13,0.88
								l-0.85-0.13l0.13-0.61l-0.9-0.13l-0.11,0.88l-0.86-0.13l0.13-0.6h-0.9V117.52L176.94,117.52z"/>
						</g>
						<g id="_x3C_Path_x3E__502_">
							<path class="st2" d="M180.71,117.95l0.08,2.9h-3.43l0.1-2.9H180.71z"/>
							<path d="M177.23,120.84l0.23-3.02h3.25v0.12l0.11-0.01l-0.05,3.04L177.23,120.84L177.23,120.84z M177.35,120.7l3.29,0.14
								l-0.07-2.78l-2.99-0.11L177.35,120.7L177.35,120.7z"/>
						</g>
						<g>
							<path id="_x3C_Path_x3E__501_" class="st2" d="M167.98,115.85h0.99v0.73h0.76v-0.75l0.99,0.02v0.73h0.73v-0.75h1.02v1.7
								c0,0.26-0.21,0.43-0.43,0.43h-3.6c-0.22,0-0.46-0.2-0.46-0.43V115.85L167.98,115.85z"/>
							<path d="M168.44,118.08c-0.31-0.01-0.59-0.24-0.6-0.55l0,0v-1.69h0.13v-0.13l1.11,0.13l-0.13,0.61l0.61,0.14l0.13-0.88
								l1.12,0.13l-0.12,0.61l0.6,0.14l0.13-0.88l1.15,0.13v1.7c0,0.34-0.28,0.55-0.56,0.55l0,0H168.44L168.44,118.08z
								 M168.1,117.52c0,0.13,0.19,0.28,0.34,0.28l0,0h3.6c0.16,0,0.3-0.1,0.31-0.28l0,0l0.13-1.57l-0.9-0.13l-0.13,0.88l-0.86-0.12
								l0.11-0.61l-0.86-0.14l-0.13,0.88l-0.88-0.12l0.13-0.61h-0.87V117.52L168.1,117.52z"/>
						</g>
						<g id="_x3C_Path_x3E__500_">
							<path class="st2" d="M171.82,117.95l0.11,2.9h-3.42l0.1-2.9H171.82z"/>
							<path d="M168.4,120.84l0.22-3.04h3.2v0.15h0.13l-0.02,3.02L168.4,120.84L168.4,120.84z M168.52,120.7l3.28,0.14l-0.09-2.78
								l-2.97-0.11L168.52,120.7L168.52,120.7z M171.7,117.96L171.7,117.96L171.7,117.96L171.7,117.96z"/>
						</g>
						<g id="_x3C_Path_x3E__499_">
							<path d="M178.72,119.18c-0.02-0.52,0.73-0.52,0.73,0v0.79h-0.73V119.18z"/>
						</g>
						<g id="_x3C_Path_x3E__498_">
							<path d="M169.87,119.18c-0.02-0.52,0.73-0.52,0.71,0v0.79h-0.71V119.18z"/>
						</g>
					</g>
				</g>
				<g>
					<g>
						<path id="_x3C_Path_x3E__497_" class="st2" d="M167.75,168.17h13.7l-0.64-5.3h-12.5L167.75,168.17z"/>
						<path d="M167.75,168.3v-0.12l-0.12-0.02l0.68-5.41l12.64,0.11l0.5,5.44H167.75L167.75,168.3z M181.31,168.2l-0.5-5.19
							l-12.38-0.12l-0.55,5.16L181.31,168.2L181.31,168.2z"/>
					</g>
					<g>
						<g>
							<path class="st2" d="M174.53,163.32c1.71,0.02,3.44,2.79,3.46,4.86h-6.82C171.19,166,172.85,163.32,174.53,163.32z"/>
							<path d="M171.04,168.17c0.03-2.23,1.68-4.95,3.48-4.98l0,0v0.26c-1.54-0.02-3.23,2.6-3.34,4.59l0,0l6.68,0.13
								c0-2.01-1.75-4.74-3.34-4.72l0,0v-0.27c1.86,0.06,3.55,2.87,3.47,5.11l0,0L171.04,168.17L171.04,168.17z"/>
						</g>
						<g>
							<path id="_x3C_Path_x3E__496_" class="st2" d="M174.54,164.48c0,0,2,0.93,2,3.69c-2,0-2,0-3.88,0
								C172.66,165.42,174.54,164.48,174.54,164.48z"/>
							<path d="M172.52,168.17c0-2.81,1.95-3.81,1.96-3.81l0,0l0.06,0.12l0.06-0.12c0.01,0,2.06,0.99,1.94,3.94l0,0
								C174.53,168.3,174.54,168.3,172.52,168.17L172.52,168.17z M172.66,168.04c1.87,0,1.89,0,3.75,0.13l0,0
								c0-2.38-1.53-3.36-1.86-3.55l0,0C174.25,164.8,172.78,165.76,172.66,168.04L172.66,168.04z"/>
						</g>
					</g>
					<g>
						<path id="_x3C_Path_x3E__495_" class="st2" d="M167.83,160.54h13.53c0.28,0,0.52,0.25,0.52,0.57l0,0c0,0.34-0.25,0.6-0.52,0.6
							h-13.53c-0.29,0-0.51-0.26-0.51-0.6l0,0C167.32,160.79,167.54,160.54,167.83,160.54z"/>
						<path d="M167.82,161.84c-0.37,0-0.63-0.35-0.63-0.73l0,0c0-0.4,0.27-0.7,0.63-0.7l0,0v0.12v0.14c-0.22,0-0.37,0.16-0.39,0.43
							l0,0c0.02,0.29,0.19,0.47,0.39,0.47l0,0h13.54c0.19,0,0.4-0.19,0.4-0.47l0,0c-0.02-0.26-0.19-0.43-0.4-0.43l0,0h-13.54v-0.14
							v-0.12h13.54c0.35,0,0.66,0.3,0.66,0.7l0,0c0,0.4-0.3,0.72-0.66,0.73l0,0H167.82L167.82,161.84z"/>
					</g>
					<g>
						<path id="_x3C_Path_x3E__494_" class="st2" d="M167.49,168.2h14.22c0.31,0,0.54,0.28,0.54,0.61l0,0
							c0,0.36-0.23,0.62-0.54,0.62h-14.22c-0.31,0-0.55-0.26-0.55-0.62l0,0C166.93,168.47,167.17,168.2,167.49,168.2z"/>
						<path d="M167.48,169.56c-0.39,0-0.68-0.34-0.68-0.75l0,0c0-0.41,0.28-0.74,0.68-0.74l0,0v0.13v0.12
							c-0.22,0-0.42,0.2-0.43,0.49l0,0c0.01,0.31,0.2,0.49,0.43,0.49l0,0h14.23c0.2,0,0.4-0.17,0.41-0.49l0,0
							c-0.01-0.28-0.21-0.49-0.41-0.49l0,0h-14.23v-0.12v-0.13h14.23c0.37,0,0.67,0.33,0.67,0.74l0,0c0,0.41-0.3,0.75-0.67,0.75l0,0
							H167.48L167.48,169.56z"/>
					</g>
					<g>
						<path id="_x3C_Path_x3E__493_" class="st2" d="M168.11,161.71h12.95c0.27,0,0.49,0.25,0.49,0.56l0,0
							c0,0.34-0.22,0.59-0.49,0.59h-12.95c-0.26,0-0.49-0.25-0.49-0.59l0,0C167.63,161.96,167.85,161.71,168.11,161.71z"/>
						<path d="M168.11,162.98c-0.34,0-0.61-0.32-0.61-0.71l0,0c0-0.35,0.27-0.69,0.61-0.69l0,0v0.13v0.13
							c-0.17,0-0.35,0.17-0.35,0.43l0,0c0,0.27,0.18,0.46,0.35,0.46l0,0h12.95c0.19,0,0.35-0.19,0.36-0.46l0,0
							c-0.01-0.26-0.17-0.43-0.36-0.43l0,0h-12.95v-0.13v-0.13h12.95c0.37,0,0.62,0.34,0.62,0.69l0,0c0,0.39-0.25,0.71-0.62,0.71
							l0,0H168.11L168.11,162.98z"/>
					</g>
					<g>
						<g id="_x3C_Path_x3E__492_">
							<path class="st2" d="M176.24,155.01l0.22,5.53l-3.59-0.01l0.26-5.52H176.24z"/>
							<path d="M172.73,160.5l0.4-5.65l3.11,0.02V155l0.13-0.01l0.09,5.69L172.73,160.5L172.73,160.5z M172.86,160.4l3.47,0.14
								l-0.22-5.42l-2.86-0.11L172.86,160.4L172.86,160.4z"/>
						</g>
						<g>
							<path id="_x3C_Path_x3E__491_" class="st2" d="M172.42,152.89h1v0.75h0.73v-0.75h1.02v0.75h0.75v-0.75h1.04v1.68
								c0,0.26-0.22,0.44-0.47,0.44h-3.61c-0.22,0-0.46-0.22-0.46-0.44V152.89L172.42,152.89z"/>
							<path d="M172.87,155.12c-0.31-0.01-0.57-0.25-0.58-0.57l0,0v-1.67h0.13v-0.12l1.13,0.12l-0.13,0.6l0.61,0.15l0.13-0.87
								l1.14,0.12l-0.12,0.6l0.61,0.15l0.13-0.87l1.15,0.12v1.67c0,0.34-0.28,0.57-0.58,0.57l0,0H172.87L172.87,155.12z
								 M172.55,154.55c0,0.13,0.18,0.32,0.32,0.32l0,0h3.62c0.18-0.02,0.31-0.13,0.34-0.32l0,0l0.14-1.53l-0.92-0.13l-0.12,0.86
								l-0.87-0.11l0.13-0.61l-0.9-0.13l-0.12,0.86l-0.88-0.11l0.13-0.61h-0.87V154.55L172.55,154.55z"/>
						</g>
						<g id="_x3C_Path_x3E__490_">
							<path d="M174.3,157.32c-0.03-0.52,0.73-0.54,0.73,0v1.29h-0.73V157.32z"/>
						</g>
						<g>
							<path id="_x3C_Path_x3E__489_" class="st2" d="M176.81,155.52h1.03v0.73h0.73v-0.74h1.01v0.74h0.71v-0.74h1.05v1.7
								c0,0.26-0.22,0.42-0.44,0.42h-3.61c-0.24,0-0.48-0.19-0.48-0.42V155.52L176.81,155.52z"/>
							<path d="M177.29,157.74c-0.31,0-0.61-0.23-0.61-0.55l0,0v-1.68h0.13v-0.13l1.16,0.13l-0.13,0.6l0.58,0.13l0.14-0.88
								l1.12,0.14l-0.11,0.61l0.58,0.13l0.13-0.88l1.18,0.14v1.68c0,0.35-0.31,0.55-0.58,0.55l0,0H177.29L177.29,157.74z
								 M176.94,157.2c0,0.14,0.16,0.29,0.34,0.29l0,0h3.6c0.17,0,0.32-0.1,0.32-0.29l0,0l0.13-1.57l-0.92-0.11l-0.13,0.86
								l-0.85-0.13l0.13-0.62l-0.9-0.11l-0.11,0.86l-0.86-0.13l0.13-0.61h-0.9V157.2L176.94,157.2z"/>
						</g>
						<g id="_x3C_Path_x3E__488_">
							<path class="st2" d="M180.71,157.62l0.08,2.92h-3.43l0.1-2.92H180.71z"/>
							<path d="M177.23,160.53l0.23-3.04h3.25v0.13h0.11l-0.05,3.05L177.23,160.53L177.23,160.53z M177.35,160.41l3.29,0.13
								l-0.07-2.81l-2.99-0.12L177.35,160.41L177.35,160.41z"/>
						</g>
						<g>
							<path id="_x3C_Path_x3E__487_" class="st2" d="M167.98,155.52h0.99v0.73h0.76v-0.74l0.99,0.01v0.73h0.73v-0.74h1.02v1.7
								c0,0.26-0.21,0.42-0.43,0.42h-3.6c-0.22,0-0.46-0.19-0.46-0.42V155.52L167.98,155.52z"/>
							<path d="M168.44,157.75c-0.31-0.02-0.59-0.22-0.6-0.54l0,0v-1.7h0.13v-0.13l1.11,0.13l-0.13,0.6l0.61,0.13l0.13-0.88
								l1.12,0.14l-0.12,0.6l0.6,0.13l0.13-0.88l1.15,0.13v1.71c0,0.34-0.28,0.54-0.56,0.54l0,0H168.44L168.44,157.75z
								 M168.1,157.21c0,0.13,0.19,0.27,0.34,0.27l0,0h3.6c0.16,0,0.3-0.1,0.31-0.27l0,0l0.13-1.57l-0.9-0.13l-0.13,0.88l-0.86-0.14
								l0.11-0.61l-0.86-0.13l-0.13,0.88l-0.88-0.14l0.13-0.61h-0.87V157.21L168.1,157.21z"/>
						</g>
						<g id="_x3C_Path_x3E__486_">
							<path class="st2" d="M171.82,157.62l0.11,2.92h-3.42l0.1-2.92H171.82z"/>
							<path d="M168.4,160.53l0.22-3.04h3.2v0.14l0.13-0.01l-0.02,3.05L168.4,160.53L168.4,160.53z M168.52,160.41l3.28,0.13
								l-0.09-2.81l-2.97-0.11L168.52,160.41L168.52,160.41z M171.7,157.63L171.7,157.63L171.7,157.63L171.7,157.63z"/>
						</g>
						<g id="_x3C_Path_x3E__485_">
							<path d="M178.72,158.87c-0.02-0.52,0.73-0.52,0.73,0v0.79h-0.73V158.87z"/>
						</g>
						<g id="_x3C_Path_x3E__484_">
							<path d="M169.87,158.87c-0.02-0.52,0.73-0.52,0.71,0v0.79h-0.71V158.87z"/>
						</g>
					</g>
				</g>
				<g>
					<g>
						<path id="_x3C_Path_x3E__483_" class="st2" d="M92.18,168.17h13.69l-0.63-5.3H92.72L92.18,168.17z"/>
						<path d="M92.18,168.3v-0.12l-0.13-0.02l0.67-5.41l12.66,0.11l0.49,5.44H92.18L92.18,168.3z M105.73,168.2l-0.49-5.19
							l-12.41-0.12l-0.52,5.16L105.73,168.2L105.73,168.2z"/>
					</g>
					<g>
						<g>
							<path class="st2" d="M98.94,163.32c1.72,0.02,3.43,2.79,3.46,4.86h-6.8C95.61,166,97.27,163.32,98.94,163.32z"/>
							<path d="M95.47,168.17c0.02-2.23,1.68-4.95,3.47-4.98l0,0v0.26c-1.53-0.02-3.21,2.6-3.35,4.59l0,0l6.67,0.13
								c-0.01-2.01-1.75-4.74-3.33-4.72l0,0v-0.27c1.86,0.06,3.53,2.87,3.46,5.11l0,0L95.47,168.17L95.47,168.17z"/>
						</g>
						<g>
							<path id="_x3C_Path_x3E__482_" class="st2" d="M98.97,164.48c0,0,1.97,0.93,1.97,3.69c-1.97,0-1.97,0-3.85,0
								C97.09,165.42,98.97,164.48,98.97,164.48z"/>
							<path d="M96.95,168.17c0-2.81,1.95-3.81,1.96-3.81l0,0l0.06,0.12l0.05-0.12c0.01,0,2.05,0.99,1.92,3.94l0,0
								C98.95,168.3,98.97,168.3,96.95,168.17L96.95,168.17z M97.09,168.04c1.86,0,1.89,0,3.73,0.13l0,0c0-2.38-1.52-3.36-1.84-3.55
								l0,0C98.67,164.8,97.19,165.76,97.09,168.04L97.09,168.04z"/>
						</g>
					</g>
					<g>
						<path id="_x3C_Path_x3E__481_" class="st2" d="M92.27,160.54h13.52c0.27,0,0.52,0.25,0.52,0.57l0,0c0,0.34-0.25,0.6-0.52,0.6
							H92.27c-0.31,0-0.52-0.26-0.52-0.6l0,0C91.75,160.79,91.96,160.54,92.27,160.54z"/>
						<path d="M92.25,161.84c-0.38,0-0.64-0.35-0.64-0.73l0,0c0-0.4,0.28-0.7,0.64-0.7l0,0v0.12v0.14c-0.22,0-0.38,0.16-0.39,0.43
							l0,0c0.01,0.29,0.18,0.47,0.39,0.47l0,0h13.54c0.17,0,0.38-0.19,0.38-0.47l0,0c-0.01-0.26-0.19-0.43-0.38-0.43l0,0H92.25
							v-0.14v-0.12h13.54c0.34,0,0.64,0.3,0.64,0.7l0,0c0,0.4-0.29,0.72-0.64,0.73l0,0H92.25L92.25,161.84z"/>
					</g>
					<g>
						<path id="_x3C_Path_x3E__480_" class="st2" d="M91.92,168.2h14.21c0.3,0,0.54,0.28,0.54,0.61l0,0c0,0.36-0.24,0.62-0.54,0.62
							H91.92c-0.31,0-0.56-0.26-0.56-0.62l0,0C91.36,168.47,91.6,168.2,91.92,168.2z"/>
						<path d="M91.91,169.56c-0.39,0-0.69-0.34-0.69-0.75l0,0c0-0.41,0.29-0.74,0.69-0.74l0,0v0.13v0.12c-0.22,0-0.43,0.2-0.43,0.49
							l0,0c0.01,0.31,0.19,0.49,0.43,0.49l0,0h14.22c0.22,0,0.4-0.17,0.41-0.49l0,0c-0.01-0.28-0.19-0.49-0.41-0.49l0,0H91.91v-0.12
							v-0.13h14.22c0.38,0,0.67,0.33,0.67,0.74l0,0c0,0.41-0.28,0.75-0.67,0.75l0,0H91.91L91.91,169.56z"/>
					</g>
					<g>
						<path id="_x3C_Path_x3E__479_" class="st2" d="M92.53,161.71h12.95c0.29,0,0.49,0.25,0.49,0.56l0,0
							c0,0.34-0.19,0.59-0.49,0.59H92.53c-0.25,0-0.49-0.25-0.49-0.59l0,0C92.04,161.96,92.28,161.71,92.53,161.71z"/>
						<path d="M92.53,162.98c-0.34,0-0.61-0.32-0.61-0.71l0,0c0-0.35,0.28-0.69,0.61-0.69l0,0v0.13v0.13
							c-0.16,0-0.35,0.17-0.35,0.43l0,0c0,0.27,0.19,0.46,0.35,0.46l0,0h12.95c0.19,0,0.34-0.19,0.36-0.46l0,0
							c-0.02-0.26-0.17-0.43-0.36-0.43l0,0H92.53v-0.13v-0.13h12.95c0.37,0,0.61,0.34,0.61,0.69l0,0c0,0.39-0.24,0.71-0.61,0.71l0,0
							H92.53L92.53,162.98z"/>
					</g>
					<g>
						<g id="_x3C_Path_x3E__478_">
							<path class="st2" d="M100.66,155.01l0.22,5.53l-3.6-0.01l0.26-5.52H100.66z"/>
							<path d="M97.16,160.5l0.38-5.65l3.12,0.02V155l0.12-0.01l0.1,5.69L97.16,160.5L97.16,160.5z M97.29,160.4l3.46,0.14
								l-0.22-5.42l-2.86-0.11L97.29,160.4L97.29,160.4z"/>
						</g>
						<g>
							<path id="_x3C_Path_x3E__477_" class="st2" d="M96.86,152.89h1v0.75h0.73v-0.75h1.02v0.75h0.75v-0.75h1.02v1.68
								c0,0.26-0.21,0.44-0.45,0.44h-3.61c-0.22,0-0.46-0.22-0.46-0.44V152.89L96.86,152.89z"/>
							<path d="M97.3,155.12c-0.31-0.01-0.57-0.25-0.59-0.57l0,0v-1.67h0.13v-0.12l1.12,0.12l-0.13,0.6l0.61,0.15l0.13-0.87
								l1.14,0.12l-0.12,0.6l0.61,0.15l0.14-0.87l1.15,0.12v1.67c0,0.34-0.3,0.57-0.58,0.57l0,0H97.3L97.3,155.12z M96.98,154.55
								c0,0.13,0.19,0.32,0.33,0.32l0,0h3.61c0.17-0.02,0.31-0.13,0.32-0.32l0,0l0.13-1.53l-0.9-0.13l-0.12,0.86l-0.88-0.11
								l0.13-0.61l-0.89-0.13l-0.13,0.86l-0.87-0.11l0.13-0.61h-0.87V154.55L96.98,154.55z"/>
						</g>
						<g id="_x3C_Path_x3E__476_">
							<path d="M98.73,157.32c-0.02-0.52,0.74-0.54,0.74,0v1.29h-0.74V157.32z"/>
						</g>
						<g>
							<path id="_x3C_Path_x3E__475_" class="st2" d="M101.23,155.52h1.02v0.73h0.73v-0.74h1.01v0.74h0.73v-0.74h1.06v1.7
								c0,0.26-0.22,0.42-0.47,0.42h-3.59c-0.25,0-0.49-0.19-0.49-0.42V155.52L101.23,155.52z"/>
							<path d="M101.7,157.74c-0.31,0-0.59-0.23-0.59-0.55l0,0v-1.68h0.12v-0.13l1.14,0.13l-0.13,0.6l0.6,0.13l0.13-0.88l1.14,0.14
								l-0.13,0.61l0.61,0.13l0.13-0.88l1.18,0.14v1.68c0,0.35-0.31,0.55-0.6,0.55l0,0H101.7L101.7,157.74z M101.36,157.2
								c0,0.14,0.16,0.29,0.34,0.29l0,0h3.61c0.18,0,0.34-0.1,0.34-0.29l0,0l0.14-1.57l-0.94-0.11l-0.12,0.86l-0.86-0.13l0.13-0.62
								l-0.88-0.11l-0.13,0.86l-0.87-0.13l0.14-0.61h-0.88V157.2L101.36,157.2z"/>
						</g>
						<g id="_x3C_Path_x3E__474_">
							<path class="st2" d="M105.12,157.62l0.08,2.92h-3.43l0.1-2.92H105.12z"/>
							<path d="M101.64,160.53l0.22-3.04h3.26v0.13h0.12l-0.04,3.05L101.64,160.53L101.64,160.53z M101.77,160.41l3.31,0.13
								l-0.08-2.81l-3-0.12L101.77,160.41L101.77,160.41z"/>
						</g>
						<g>
							<path id="_x3C_Path_x3E__473_" class="st2" d="M92.4,155.52h0.98v0.73h0.76v-0.74l1.01,0.01v0.73h0.73v-0.74h1.03v1.7
								c0,0.26-0.21,0.42-0.43,0.42h-3.61c-0.24,0-0.47-0.19-0.47-0.42V155.52L92.4,155.52z"/>
							<path d="M92.87,157.75c-0.31-0.02-0.58-0.22-0.6-0.54l0,0v-1.7h0.13v-0.13l1.11,0.13l-0.13,0.6l0.62,0.13l0.13-0.88
								l1.14,0.14l-0.12,0.6l0.61,0.13l0.12-0.88l1.16,0.13v1.71c0,0.34-0.28,0.54-0.55,0.54l0,0H92.87L92.87,157.75z M92.52,157.21
								c0,0.13,0.17,0.27,0.35,0.27l0,0h3.61c0.15,0,0.28-0.1,0.31-0.27l0,0l0.13-1.57l-0.9-0.13l-0.14,0.88l-0.86-0.14l0.13-0.61
								l-0.88-0.13l-0.13,0.88l-0.88-0.14l0.13-0.61h-0.86V157.21L92.52,157.21z"/>
						</g>
						<g id="_x3C_Path_x3E__472_">
							<path class="st2" d="M96.26,157.62l0.1,2.92h-3.44l0.12-2.92H96.26z"/>
							<path d="M92.81,160.53l0.23-3.04h3.23v0.14l0.12-0.01l-0.02,3.05L92.81,160.53L92.81,160.53z M92.92,160.41l3.3,0.13
								l-0.09-2.81l-2.97-0.11L92.92,160.41L92.92,160.41z M96.13,157.63L96.13,157.63L96.13,157.63L96.13,157.63z"/>
						</g>
						<g id="_x3C_Path_x3E__471_">
							<path d="M103.13,158.87c-0.02-0.52,0.73-0.52,0.73,0v0.79h-0.73V158.87z"/>
						</g>
						<g id="_x3C_Path_x3E__470_">
							<path d="M94.29,158.87c-0.02-0.52,0.73-0.52,0.71,0v0.79h-0.71V158.87z"/>
						</g>
					</g>
				</g>
				<g>
					<g>
						<path id="_x3C_Path_x3E__469_" class="st2" d="M129.94,128.48h13.72l-0.62-5.29h-12.54L129.94,128.48z"/>
						<path d="M129.94,128.6v-0.12l-0.12-0.03l0.68-5.39l12.66,0.13l0.5,5.41H129.94L129.94,128.6z M143.53,128.5l-0.49-5.17
							l-12.41-0.13l-0.55,5.16L143.53,128.5L143.53,128.5z"/>
					</g>
					<g>
						<g>
							<path class="st2" d="M136.74,123.64c1.71,0.02,3.43,2.8,3.46,4.84h-6.81C133.4,126.34,135.06,123.64,136.74,123.64z"/>
							<path d="M133.27,128.47c0.01-2.2,1.67-4.93,3.46-4.95l0,0v0.25c-1.53-0.02-3.2,2.6-3.34,4.56l0,0l6.67,0.13
								c-0.01-1.97-1.76-4.71-3.34-4.69l0,0v-0.28c1.85,0.07,3.55,2.87,3.47,5.1l0,0L133.27,128.47L133.27,128.47z"/>
						</g>
						<g>
							<path id="_x3C_Path_x3E__468_" class="st2" d="M136.75,124.8c0,0,1.99,0.97,1.99,3.68c-1.99,0-1.99,0-3.87,0
								C134.88,125.77,136.75,124.8,136.75,124.8z"/>
							<path d="M134.76,128.48c0-2.79,1.91-3.81,1.94-3.81l0,0l0.06,0.13l0.05-0.13c0.02,0,2.07,1,1.95,3.93l0,0
								C136.74,128.6,136.75,128.6,134.76,128.48L134.76,128.48z M134.88,128.34c1.86,0,1.88,0,3.73,0.14l0,0
								c0-2.36-1.53-3.35-1.86-3.54l0,0C136.45,125.13,135,126.08,134.88,128.34L134.88,128.34z"/>
						</g>
					</g>
					<g>
						<path id="_x3C_Path_x3E__467_" class="st2" d="M130.03,120.84h13.54c0.28,0,0.52,0.25,0.52,0.58l0,0
							c0,0.33-0.25,0.59-0.52,0.59h-13.54c-0.3,0-0.52-0.26-0.52-0.59l0,0C129.52,121.09,129.73,120.84,130.03,120.84z"/>
						<path d="M130.03,122.14c-0.39,0-0.65-0.34-0.65-0.71l0,0c0-0.41,0.27-0.7,0.65-0.7l0,0v0.12v0.13c-0.22,0-0.39,0.17-0.4,0.46
							l0,0c0.01,0.28,0.19,0.46,0.4,0.46l0,0h13.54c0.19,0,0.4-0.19,0.4-0.46l0,0c-0.01-0.28-0.19-0.46-0.4-0.46l0,0h-13.54v-0.13
							v-0.12h13.54c0.35,0,0.64,0.28,0.64,0.7l0,0c0,0.39-0.28,0.71-0.64,0.71l0,0H130.03L130.03,122.14z"/>
					</g>
					<g>
						<path id="_x3C_Path_x3E__466_" class="st2" d="M129.68,128.5h14.25c0.29,0,0.52,0.27,0.52,0.61l0,0
							c0,0.37-0.23,0.62-0.52,0.62h-14.25c-0.31,0-0.56-0.25-0.56-0.62l0,0C129.12,128.77,129.37,128.5,129.68,128.5z"/>
						<path d="M129.68,129.85c-0.39,0-0.69-0.32-0.69-0.74l0,0c0-0.4,0.29-0.75,0.69-0.75l0,0v0.13v0.13
							c-0.22,0-0.43,0.21-0.43,0.49l0,0c0.01,0.3,0.2,0.49,0.43,0.49l0,0h14.25c0.19,0,0.37-0.17,0.39-0.49l0,0
							c-0.01-0.28-0.19-0.49-0.39-0.49l0,0h-14.25v-0.13v-0.13h14.25c0.36,0,0.65,0.34,0.65,0.75l0,0c0,0.42-0.29,0.74-0.65,0.74
							l0,0H129.68L129.68,129.85z"/>
					</g>
					<g>
						<path id="_x3C_Path_x3E__465_" class="st2" d="M130.33,122.02h12.97c0.28,0,0.47,0.26,0.47,0.58l0,0c0,0.33-0.19,0.6-0.47,0.6
							h-12.97c-0.26,0-0.5-0.27-0.5-0.6l0,0C129.82,122.28,130.06,122.02,130.33,122.02z"/>
						<path d="M130.33,123.31c-0.35,0-0.64-0.34-0.64-0.72l0,0c0-0.37,0.28-0.71,0.64-0.72l0,0v0.14v0.13
							c-0.17,0-0.37,0.18-0.37,0.45l0,0c0,0.28,0.2,0.46,0.37,0.46l0,0h12.95c0.19,0,0.34-0.17,0.36-0.46l0,0
							c-0.02-0.27-0.17-0.45-0.36-0.45l0,0h-12.95v-0.13v-0.14h12.95c0.37,0.01,0.62,0.34,0.62,0.72l0,0c0,0.38-0.25,0.72-0.62,0.72
							l0,0H130.33L130.33,123.31z"/>
					</g>
					<g>
						<g id="_x3C_Path_x3E__464_">
							<path class="st2" d="M138.44,115.33l0.22,5.51l-3.59-0.01l0.26-5.5H138.44z"/>
							<path d="M134.96,120.81l0.38-5.64l3.1,0.02v0.13h0.12l0.1,5.65L134.96,120.81L134.96,120.81z M135.08,120.7l3.45,0.15
								l-0.21-5.4l-2.87-0.12L135.08,120.7L135.08,120.7z"/>
						</g>
						<g>
							<path id="_x3C_Path_x3E__463_" class="st2" d="M134.65,113.21h0.98v0.73h0.73v-0.73h1.02v0.73h0.76v-0.73h1.03v1.68
								c0,0.27-0.22,0.44-0.46,0.44h-3.61c-0.21,0-0.43-0.22-0.43-0.44V113.21L134.65,113.21z"/>
							<path d="M135.09,115.46c-0.29-0.01-0.56-0.26-0.57-0.58l0,0v-1.68h0.12v-0.12l1.11,0.12l-0.13,0.6l0.61,0.13l0.12-0.85
								l1.14,0.12l-0.12,0.6l0.61,0.13l0.15-0.85l1.15,0.12v1.68c0,0.34-0.29,0.58-0.58,0.58l0,0H135.09L135.09,115.46z
								 M134.77,114.88c0,0.14,0.19,0.31,0.31,0.31l0,0h3.61c0.17-0.02,0.32-0.12,0.33-0.31l0,0l0.13-1.54l-0.91-0.13l-0.11,0.88
								l-0.88-0.14l0.12-0.6l-0.88-0.13l-0.13,0.88l-0.86-0.14l0.13-0.6h-0.85V114.88L134.77,114.88z"/>
						</g>
						<g id="_x3C_Path_x3E__462_">
							<path d="M136.51,117.65c-0.01-0.52,0.73-0.55,0.73,0v1.26h-0.73V117.65z"/>
						</g>
						<g>
							<path id="_x3C_Path_x3E__461_" class="st2" d="M139.02,115.85h1.01v0.73h0.74v-0.76h1.01v0.76h0.74v-0.76h1.05v1.7
								c0,0.26-0.22,0.43-0.45,0.43h-3.63c-0.25,0-0.47-0.2-0.47-0.43V115.85L139.02,115.85z"/>
							<path d="M139.48,118.06c-0.31,0-0.61-0.22-0.61-0.54l0,0v-1.68h0.14v-0.13l1.14,0.13l-0.13,0.59l0.6,0.13l0.14-0.88
								l1.14,0.14l-0.13,0.61l0.6,0.13l0.13-0.88l1.17,0.14v1.69c0,0.35-0.3,0.54-0.58,0.54l0,0H139.48L139.48,118.06z
								 M139.14,117.52c0,0.14,0.17,0.29,0.34,0.29l0,0h3.62c0.17,0,0.32-0.11,0.32-0.29l0,0l0.14-1.57l-0.94-0.12l-0.12,0.87
								l-0.86-0.13l0.13-0.62l-0.89-0.12l-0.12,0.87l-0.87-0.13l0.13-0.61h-0.89V117.52L139.14,117.52z"/>
						</g>
						<g id="_x3C_Path_x3E__460_">
							<path class="st2" d="M142.92,117.95l0.09,2.9h-3.45l0.11-2.9H142.92z"/>
							<path d="M139.42,120.84l0.25-3.02h3.25v0.13l0.13-0.01l-0.04,3.03L139.42,120.84L139.42,120.84z M139.55,120.71l3.31,0.15
								l-0.07-2.8l-3-0.11L139.55,120.71L139.55,120.71z"/>
						</g>
						<g>
							<path id="_x3C_Path_x3E__459_" class="st2" d="M130.18,115.85h1v0.73h0.76v-0.76l1.02,0.02v0.73h0.72v-0.76h1.04v1.7
								c0,0.26-0.21,0.43-0.44,0.43h-3.61c-0.22,0-0.47-0.2-0.47-0.43V115.85L130.18,115.85z"/>
							<path d="M130.65,118.08c-0.31-0.01-0.6-0.23-0.61-0.55l0,0v-1.68h0.13v-0.13l1.12,0.13l-0.13,0.59l0.63,0.14l0.13-0.88
								l1.14,0.15l-0.11,0.59l0.59,0.14l0.13-0.88l1.16,0.13v1.7c0,0.35-0.28,0.55-0.56,0.55l0,0H130.65L130.65,118.08z
								 M130.3,117.52c0,0.13,0.19,0.28,0.35,0.28l0,0h3.61c0.17,0,0.3-0.1,0.31-0.28l0,0l0.13-1.56l-0.91-0.13l-0.13,0.88
								l-0.87-0.13l0.13-0.61l-0.88-0.14l-0.13,0.88l-0.89-0.13l0.13-0.61h-0.86V117.52L130.3,117.52z"/>
						</g>
						<g id="_x3C_Path_x3E__458_">
							<path class="st2" d="M134.05,117.95l0.1,2.9h-3.43l0.1-2.9H134.05z"/>
							<path d="M130.6,120.84l0.22-3.02h3.23v0.14l0.13-0.01l-0.02,3.04L130.6,120.84L130.6,120.84z M130.72,120.71l3.29,0.13
								l-0.08-2.78l-2.99-0.11L130.72,120.71L130.72,120.71z M133.93,117.96v-0.02V117.96L133.93,117.96z"/>
						</g>
						<g id="_x3C_Path_x3E__457_">
							<path d="M140.93,119.18c-0.02-0.52,0.73-0.52,0.73,0v0.79h-0.73V119.18z"/>
						</g>
						<g id="_x3C_Path_x3E__456_">
							<path d="M132.08,119.18c-0.02-0.52,0.73-0.52,0.72,0v0.79h-0.72V119.18z"/>
						</g>
					</g>
				</g>
				<g>
					<g>
						<path id="_x3C_Path_x3E__455_" class="st2" d="M92.18,128.47h13.69l-0.63-5.28H92.72L92.18,128.47z"/>
						<path d="M92.18,128.6v-0.12l-0.13-0.04l0.67-5.38l12.66,0.11l0.49,5.42H92.18L92.18,128.6z M105.73,128.49l-0.49-5.16
							l-12.41-0.13l-0.52,5.16L105.73,128.49L105.73,128.49z"/>
					</g>
					<g>
						<g>
							<path class="st2" d="M98.94,123.64c1.72,0.02,3.43,2.78,3.46,4.83h-6.8C95.61,126.33,97.27,123.64,98.94,123.64z"/>
							<path d="M95.47,128.46c0.02-2.19,1.68-4.92,3.47-4.95l0,0v0.25c-1.53,0-3.21,2.62-3.35,4.58l0,0l6.67,0.12
								c-0.01-1.96-1.75-4.71-3.33-4.7l0,0v-0.26c1.86,0.05,3.53,2.87,3.46,5.1l0,0L95.47,128.46L95.47,128.46z"/>
						</g>
						<g>
							<path id="_x3C_Path_x3E__454_" class="st2" d="M98.97,124.8c0,0,1.97,0.97,1.97,3.67c-1.97,0-1.97,0-3.85,0
								C97.09,125.77,98.97,124.8,98.97,124.8z"/>
							<path d="M96.95,128.47c0-2.78,1.95-3.79,1.96-3.79l0,0l0.06,0.13l0.05-0.13c0.01,0,2.05,1,1.92,3.93l0,0
								C98.95,128.6,98.97,128.6,96.95,128.47L96.95,128.47z M97.09,128.34c1.86,0,1.89,0,3.73,0.13l0,0c0-2.36-1.52-3.34-1.84-3.52
								l0,0C98.67,125.13,97.19,126.08,97.09,128.34L97.09,128.34z"/>
						</g>
					</g>
					<g>
						<path id="_x3C_Path_x3E__453_" class="st2" d="M92.27,120.84h13.52c0.27,0,0.52,0.24,0.52,0.57l0,0
							c0,0.34-0.25,0.61-0.52,0.61H92.27c-0.31,0-0.52-0.26-0.52-0.61l0,0C91.75,121.08,91.96,120.84,92.27,120.84z"/>
						<path d="M92.25,122.14c-0.38,0-0.64-0.34-0.64-0.73l0,0c0-0.4,0.28-0.7,0.64-0.7l0,0v0.13v0.12c-0.22,0-0.38,0.17-0.39,0.45
							l0,0c0.01,0.29,0.18,0.46,0.39,0.46l0,0h13.54c0.17,0,0.38-0.19,0.38-0.46l0,0c-0.01-0.27-0.19-0.45-0.38-0.45l0,0H92.25
							v-0.12v-0.13h13.54c0.34,0,0.64,0.29,0.64,0.7l0,0c0,0.4-0.29,0.72-0.64,0.73l0,0H92.25L92.25,122.14z"/>
					</g>
					<g>
						<path id="_x3C_Path_x3E__452_" class="st2" d="M91.92,128.49h14.21c0.3,0,0.54,0.27,0.54,0.61l0,0c0,0.37-0.24,0.62-0.54,0.62
							H91.92c-0.31,0-0.56-0.25-0.56-0.62l0,0C91.36,128.76,91.6,128.49,91.92,128.49z"/>
						<path d="M91.91,129.85c-0.39,0-0.69-0.33-0.69-0.74l0,0c0-0.4,0.29-0.74,0.69-0.74l0,0v0.13v0.13c-0.22,0-0.43,0.19-0.43,0.48
							l0,0c0.01,0.31,0.19,0.49,0.43,0.49l0,0h14.22c0.22,0,0.4-0.17,0.41-0.49l0,0c-0.01-0.28-0.19-0.48-0.41-0.48l0,0H91.91v-0.13
							v-0.13h14.22c0.38,0,0.67,0.34,0.67,0.74l0,0c0,0.41-0.28,0.74-0.67,0.74l0,0H91.91L91.91,129.85z"/>
					</g>
					<g>
						<path id="_x3C_Path_x3E__451_" class="st2" d="M92.53,122.02h12.95c0.29,0,0.49,0.26,0.49,0.58l0,0
							c0,0.33-0.19,0.58-0.49,0.58H92.53c-0.25,0-0.49-0.25-0.49-0.58l0,0C92.04,122.28,92.28,122.02,92.53,122.02z"/>
						<path d="M92.53,123.31c-0.34,0-0.61-0.33-0.61-0.71l0,0c0-0.38,0.28-0.71,0.61-0.72l0,0v0.14v0.12
							c-0.16,0-0.35,0.19-0.35,0.46l0,0c0,0.28,0.19,0.46,0.35,0.46l0,0h12.95c0.19,0,0.34-0.17,0.36-0.46l0,0
							c-0.02-0.28-0.17-0.46-0.36-0.46l0,0H92.53v-0.12v-0.14h12.95c0.37,0.01,0.61,0.34,0.61,0.72l0,0c0,0.38-0.24,0.71-0.61,0.71
							l0,0H92.53L92.53,123.31z"/>
					</g>
					<g>
						<g id="_x3C_Path_x3E__450_">
							<path class="st2" d="M100.66,115.32l0.22,5.52l-3.6-0.01l0.26-5.51H100.66z"/>
							<path d="M97.16,120.81l0.38-5.64l3.12,0.02v0.13l0.12-0.01l0.1,5.66L97.16,120.81L97.16,120.81z M97.29,120.69l3.46,0.16
								l-0.22-5.4l-2.86-0.12L97.29,120.69L97.29,120.69z"/>
						</g>
						<g>
							<path id="_x3C_Path_x3E__449_" class="st2" d="M96.86,113.21h1v0.73h0.73v-0.73h1.02v0.73h0.75v-0.73h1.02v1.68
								c0,0.26-0.21,0.44-0.45,0.44h-3.61c-0.22,0-0.46-0.21-0.46-0.44V113.21L96.86,113.21z"/>
							<path d="M97.3,115.45c-0.31-0.01-0.57-0.25-0.59-0.57l0,0v-1.68h0.13v-0.13l1.12,0.13l-0.13,0.6l0.61,0.13l0.13-0.86
								l1.14,0.13l-0.12,0.6l0.61,0.13l0.14-0.86l1.15,0.13v1.68c0,0.33-0.3,0.57-0.58,0.57l0,0H97.3L97.3,115.45z M96.98,114.88
								c0,0.14,0.19,0.31,0.33,0.31l0,0h3.61c0.17-0.02,0.31-0.13,0.32-0.31l0,0l0.13-1.56l-0.9-0.12l-0.12,0.86l-0.88-0.13
								l0.13-0.61l-0.89-0.12l-0.13,0.86l-0.87-0.13l0.13-0.61h-0.87V114.88L96.98,114.88z"/>
						</g>
						<g id="_x3C_Path_x3E__448_">
							<path d="M98.73,117.65c-0.02-0.52,0.74-0.55,0.74,0v1.26h-0.74V117.65z"/>
						</g>
						<g>
							<path id="_x3C_Path_x3E__447_" class="st2" d="M101.23,115.85h1.02v0.73h0.73v-0.75h1.01v0.75h0.73v-0.75h1.06v1.7
								c0,0.26-0.22,0.43-0.47,0.43h-3.59c-0.25,0-0.49-0.2-0.49-0.43V115.85L101.23,115.85z"/>
							<path d="M101.7,118.06c-0.31,0-0.59-0.22-0.59-0.55l0,0v-1.67h0.12v-0.13l1.14,0.13l-0.13,0.59l0.6,0.13l0.13-0.88l1.14,0.13
								l-0.13,0.61l0.61,0.13l0.13-0.88l1.18,0.13v1.69c0,0.35-0.31,0.55-0.6,0.55l0,0H101.7L101.7,118.06z M101.36,117.52
								c0,0.14,0.16,0.28,0.34,0.28l0,0h3.61c0.18,0,0.34-0.1,0.34-0.28l0,0l0.14-1.56l-0.94-0.13l-0.12,0.88l-0.86-0.13l0.13-0.61
								l-0.88-0.13l-0.13,0.88l-0.87-0.13l0.14-0.6h-0.88V117.52L101.36,117.52z"/>
						</g>
						<g id="_x3C_Path_x3E__446_">
							<path class="st2" d="M105.12,117.95l0.08,2.9h-3.43l0.1-2.9H105.12z"/>
							<path d="M101.64,120.84l0.22-3.02h3.26v0.12l0.12-0.01l-0.04,3.04L101.64,120.84L101.64,120.84z M101.77,120.7l3.31,0.14
								l-0.08-2.78l-3-0.11L101.77,120.7L101.77,120.7z"/>
						</g>
						<g>
							<path id="_x3C_Path_x3E__445_" class="st2" d="M92.4,115.85h0.98v0.73h0.76v-0.75l1.01,0.02v0.73h0.73v-0.75h1.03v1.7
								c0,0.26-0.21,0.43-0.43,0.43h-3.61c-0.24,0-0.47-0.2-0.47-0.43V115.85L92.4,115.85z"/>
							<path d="M92.87,118.08c-0.31-0.01-0.58-0.24-0.6-0.55l0,0v-1.69h0.13v-0.13l1.11,0.13l-0.13,0.61l0.62,0.14l0.13-0.88
								l1.14,0.13l-0.12,0.61l0.61,0.14l0.12-0.88l1.16,0.13v1.7c0,0.34-0.28,0.55-0.55,0.55l0,0H92.87L92.87,118.08z M92.52,117.52
								c0,0.13,0.17,0.28,0.35,0.28l0,0h3.61c0.15,0,0.28-0.1,0.31-0.28l0,0l0.13-1.57l-0.9-0.13l-0.14,0.88l-0.86-0.12l0.13-0.61
								l-0.88-0.14l-0.13,0.88l-0.88-0.12l0.13-0.61h-0.86V117.52L92.52,117.52z"/>
						</g>
						<g id="_x3C_Path_x3E__444_">
							<path class="st2" d="M96.26,117.95l0.1,2.9h-3.44l0.12-2.9H96.26z"/>
							<path d="M92.81,120.84l0.23-3.04h3.23v0.15h0.12l-0.02,3.02L92.81,120.84L92.81,120.84z M92.92,120.7l3.3,0.14l-0.09-2.78
								l-2.97-0.11L92.92,120.7L92.92,120.7z M96.13,117.96L96.13,117.96L96.13,117.96L96.13,117.96z"/>
						</g>
						<g id="_x3C_Path_x3E__443_">
							<path d="M103.13,119.18c-0.02-0.52,0.73-0.52,0.73,0v0.79h-0.73V119.18z"/>
						</g>
						<g id="_x3C_Path_x3E__442_">
							<path d="M94.29,119.18c-0.02-0.52,0.73-0.52,0.71,0v0.79h-0.71V119.18z"/>
						</g>
					</g>
				</g>
				<g>
					<g>
						<path id="_x3C_Path_x3E__441_" class="st2" d="M108.22,209.01l9.68-9.7l-4.18-3.28l-8.85,8.84L108.22,209.01z"/>
						<path d="M108.32,209.1l-0.09-0.1l-0.12,0.08l-3.33-4.32l9.03-8.85l4.2,3.49L108.32,209.1L108.32,209.1z M117.82,199.42l-4-3.3
							l-8.86,8.67l3.27,4.03L117.82,199.42L117.82,199.42z"/>
					</g>
					<g>
						<g>
							<path class="st2" d="M109.59,200.78c1.21-1.21,4.39-0.46,5.87,0.99l-4.82,4.8C109.14,205.02,108.41,201.97,109.59,200.78z"/>
							<path d="M110.54,206.66c-1.53-1.59-2.3-4.67-1.05-5.96l0,0l0.18,0.19c-1.09,1.08-0.43,4.1,0.87,5.59l0,0l4.83-4.62
								c-1.43-1.41-4.61-2.1-5.69-0.97l0,0l-0.18-0.19c1.34-1.28,4.53-0.49,6.06,1.15l0,0L110.54,206.66L110.54,206.66z"/>
						</g>
						<g>
							<path id="_x3C_Path_x3E__440_" class="st2" d="M110.41,201.58c0,0,2.09-0.72,4.02,1.21c-1.4,1.41-1.4,1.41-2.73,2.73
								C109.76,203.59,110.41,201.58,110.41,201.58z"/>
							<path d="M111.6,205.61c-1.98-1.98-1.33-4.04-1.32-4.06l0,0l0.12,0.03l-0.04-0.12c0.01-0.01,2.16-0.75,4.15,1.43l0,0
								C113.11,204.3,113.12,204.29,111.6,205.61L111.6,205.61z M111.6,205.42c1.32-1.3,1.33-1.32,2.74-2.53l0,0
								c-1.68-1.69-3.46-1.31-3.83-1.2l0,0C110.44,202.03,110.06,203.75,111.6,205.42L111.6,205.42z"/>
						</g>
					</g>
					<g>
						<path id="_x3C_Path_x3E__439_" class="st2" d="M102.87,203.55l9.57-9.57c0.19-0.19,0.54-0.21,0.79,0.04l0,0
							c0.23,0.23,0.24,0.59,0.04,0.79l-9.57,9.58c-0.19,0.19-0.54,0.16-0.79-0.06l0,0C102.67,204.08,102.66,203.75,102.87,203.55z"
							/>
						<path d="M103.79,204.46c-0.28,0.27-0.7,0.22-0.97-0.04l0,0c-0.28-0.28-0.31-0.7-0.04-0.96l0,0l0.09,0.09l0.09,0.1
							c-0.14,0.16-0.14,0.38,0.04,0.59l0,0c0.21,0.19,0.47,0.19,0.61,0.05l0,0l9.58-9.58c0.13-0.13,0.13-0.42-0.06-0.61l0,0
							c-0.19-0.17-0.45-0.17-0.59-0.03l0,0l-9.58,9.58l-0.09-0.1l-0.09-0.09l9.58-9.57c0.25-0.25,0.67-0.26,0.96,0.04l0,0
							c0.28,0.28,0.29,0.71,0.05,0.98l0,0L103.79,204.46L103.79,204.46z"/>
					</g>
					<g>
						<path id="_x3C_Path_x3E__438_" class="st2" d="M108.05,209.21l10.06-10.07c0.2-0.21,0.58-0.19,0.8,0.05l0,0
							c0.26,0.26,0.26,0.61,0.07,0.82l-10.05,10.07c-0.23,0.21-0.58,0.21-0.85-0.05l0,0C107.84,209.79,107.83,209.42,108.05,209.21z
							"/>
						<path d="M109.01,210.17c-0.27,0.28-0.73,0.26-1.01-0.04l0,0c-0.29-0.28-0.33-0.73-0.05-1.01l0,0l0.1,0.09l0.09,0.09
							c-0.16,0.16-0.16,0.44,0.03,0.64l0,0c0.23,0.22,0.49,0.22,0.66,0.04l0,0l10.05-10.06c0.13-0.15,0.15-0.4-0.06-0.64l0,0
							c-0.2-0.19-0.47-0.19-0.62-0.05l0,0l-10.06,10.07l-0.09-0.09l-0.1-0.09l10.06-10.07c0.28-0.26,0.72-0.22,1,0.05l0,0
							c0.29,0.3,0.31,0.73,0.05,1l0,0L109.01,210.17L109.01,210.17z"/>
					</g>
					<g>
						<path id="_x3C_Path_x3E__437_" class="st2" d="M103.9,204.17l9.16-9.16c0.2-0.19,0.53-0.15,0.76,0.07l0,0
							c0.24,0.22,0.27,0.56,0.07,0.76l-9.16,9.15c-0.18,0.19-0.52,0.16-0.77-0.06l0,0C103.74,204.71,103.72,204.37,103.9,204.17z"/>
						<path d="M104.82,205.07c-0.25,0.25-0.68,0.22-0.95-0.06l0,0c-0.26-0.26-0.31-0.68-0.06-0.93l0,0l0.09,0.1l0.1,0.09
							c-0.13,0.12-0.13,0.38,0.06,0.57l0,0c0.19,0.19,0.46,0.17,0.58,0.06l0,0l9.16-9.15c0.13-0.13,0.11-0.37-0.07-0.58l0,0
							c-0.19-0.18-0.44-0.19-0.57-0.05l0,0l-9.16,9.15l-0.1-0.09l-0.09-0.1l9.16-9.15c0.27-0.26,0.67-0.2,0.94,0.07l0,0
							c0.27,0.27,0.34,0.67,0.08,0.94l0,0L104.82,205.07L104.82,205.07z"/>
					</g>
					<g>
						<g id="_x3C_Path_x3E__436_">
							<path class="st2" d="M104.92,193.7l4.06,3.74l-2.56,2.52l-3.71-4.06L104.92,193.7z"/>
							<path d="M106.34,200.05l-3.71-4.25l2.2-2.2l0.09,0.09l0.08-0.1l4.08,3.94L106.34,200.05L106.34,200.05z M106.34,199.87
								l2.55-2.34l-3.97-3.66l-2.12,1.95L106.34,199.87L106.34,199.87z"/>
						</g>
						<g>
							<path id="_x3C_Path_x3E__435_" class="st2" d="M100.72,194.89l0.7-0.7l0.52,0.51l0.51-0.51l-0.51-0.52l0.71-0.72l0.53,0.52
								l0.52-0.52l-0.52-0.53l0.72-0.73l1.2,1.2c0.17,0.19,0.14,0.45-0.02,0.63l-2.55,2.57c-0.16,0.14-0.47,0.16-0.64,0
								L100.72,194.89L100.72,194.89z"/>
							<path d="M102.64,196.16c-0.23,0.22-0.6,0.22-0.82,0l0,0l-1.18-1.17l0.09-0.08l-0.09-0.1l0.88-0.7l0.34,0.51l0.52-0.32
								l-0.51-0.71l0.89-0.72l0.33,0.51l0.55-0.34l-0.52-0.7l0.92-0.74l1.18,1.2c0.23,0.23,0.19,0.6-0.01,0.81l0,0L102.64,196.16
								L102.64,196.16z M102,195.99c0.1,0.1,0.35,0.09,0.46,0l0,0l2.55-2.57c0.12-0.13,0.13-0.31,0.01-0.46l0,0l-0.99-1.18
								l-0.75,0.55l0.53,0.7l-0.7,0.52l-0.35-0.52l-0.71,0.55l0.52,0.7l-0.71,0.52l-0.34-0.52l-0.61,0.62L102,195.99L102,195.99z"/>
						</g>
						<g id="_x3C_Path_x3E__434_">
							<path d="M105.18,196.69c-0.37-0.34,0.16-0.88,0.52-0.52l0.91,0.91l-0.52,0.51L105.18,196.69z"/>
						</g>
						<g>
							<path id="_x3C_Path_x3E__433_" class="st2" d="M105.68,193.65l0.71-0.72l0.53,0.52l0.52-0.52l-0.52-0.53l0.7-0.72l0.53,0.52
								l0.52-0.5l-0.52-0.53l0.74-0.75l1.2,1.2c0.18,0.18,0.13,0.45-0.03,0.61l-2.54,2.56c-0.18,0.17-0.49,0.19-0.64,0.04
								L105.68,193.65L105.68,193.65z"/>
							<path d="M107.59,194.9c-0.22,0.22-0.58,0.26-0.81,0.04l0,0l-1.18-1.18l0.09-0.1l-0.09-0.1l0.9-0.71l0.34,0.52l0.52-0.34
								l-0.53-0.71l0.91-0.72l0.34,0.52l0.52-0.32l-0.53-0.73l0.93-0.73l1.18,1.18c0.25,0.26,0.18,0.61-0.02,0.81l0,0L107.59,194.9
								L107.59,194.9z M106.96,194.74c0.09,0.1,0.31,0.09,0.44-0.03l0,0l2.55-2.56c0.13-0.13,0.15-0.31,0.01-0.43l0,0l-1-1.2
								l-0.73,0.58l0.52,0.7l-0.7,0.52l-0.35-0.54l-0.71,0.55l0.53,0.7l-0.7,0.52l-0.34-0.51l-0.61,0.61L106.96,194.74
								L106.96,194.74z"/>
						</g>
						<g id="_x3C_Path_x3E__432_">
							<path class="st2" d="M109.91,192.38l2.13,2.01l-2.42,2.42l-2-2.12L109.91,192.38z"/>
							<path d="M109.52,196.91l-1.99-2.31l2.29-2.3l0.09,0.09l0.08-0.1l2.12,2.19L109.52,196.91L109.52,196.91z M109.52,196.71
								l2.42-2.23l-2.03-1.92l-2.2,2.04L109.52,196.71L109.52,196.71z"/>
						</g>
						<g>
							<path id="_x3C_Path_x3E__431_" class="st2" d="M99.45,199.91l0.7-0.7l0.5,0.51l0.55-0.54l-0.53-0.52l0.72-0.7l0.51,0.52
								l0.52-0.52l-0.52-0.53l0.72-0.73l1.2,1.2c0.19,0.18,0.15,0.44,0,0.61l-2.56,2.56c-0.14,0.16-0.46,0.2-0.62,0.03L99.45,199.91
								L99.45,199.91z"/>
							<path d="M101.34,201.15c-0.22,0.21-0.58,0.26-0.8,0.04l0,0l-1.2-1.19l0.11-0.1l-0.1-0.08l0.89-0.7l0.31,0.51l0.55-0.34
								l-0.54-0.72l0.9-0.7l0.33,0.52l0.52-0.34l-0.54-0.71l0.92-0.72l1.19,1.21c0.24,0.23,0.19,0.58,0,0.79l0,0L101.34,201.15
								L101.34,201.15z M100.71,201.01c0.09,0.09,0.32,0.07,0.45-0.05l0,0l2.54-2.57c0.11-0.11,0.13-0.28,0.02-0.41l0,0l-1.02-1.21
								l-0.73,0.55l0.52,0.72l-0.7,0.52l-0.34-0.52l-0.71,0.52l0.52,0.72l-0.71,0.55l-0.34-0.53l-0.6,0.61L100.71,201.01
								L100.71,201.01z"/>
						</g>
						<g id="_x3C_Path_x3E__430_">
							<path class="st2" d="M103.65,198.65l2.14,1.98l-2.42,2.44l-2-2.14L103.65,198.65z"/>
							<path d="M103.25,203.15l-1.98-2.32l2.27-2.28l0.1,0.1l0.09-0.1l2.13,2.18L103.25,203.15L103.25,203.15z M103.25,202.98
								l2.45-2.24l-2.05-1.92l-2.19,2.02L103.25,202.98L103.25,202.98z M103.56,198.74L103.56,198.74L103.56,198.74L103.56,198.74z"
								/>
						</g>
						<g id="_x3C_Path_x3E__429_">
							<path d="M109.4,194.68c-0.38-0.36,0.14-0.88,0.51-0.53l0.55,0.57l-0.51,0.52L109.4,194.68z"/>
						</g>
						<g id="_x3C_Path_x3E__428_">
							<path d="M103.15,200.93c-0.39-0.36,0.14-0.89,0.5-0.52l0.56,0.56l-0.51,0.52L103.15,200.93z"/>
						</g>
					</g>
				</g>
				<g>
					<g>
						<path id="_x3C_Path_x3E__427_" class="st2" d="M156.16,199.26l9.69,9.7l3.31-4.18l-8.86-8.84L156.16,199.26z"/>
						<path d="M156.07,199.36l0.09-0.08l-0.08-0.1l4.31-3.32l8.86,9l-3.49,4.21L156.07,199.36L156.07,199.36z M165.75,208.87l3.32-4
							l-8.7-8.84l-4.03,3.25L165.75,208.87L165.75,208.87z"/>
					</g>
					<g>
						<g>
							<path class="st2" d="M164.37,200.65c1.2,1.22,0.47,4.39-0.98,5.85l-4.8-4.79C160.14,200.18,163.2,199.47,164.37,200.65z"/>
							<path d="M158.51,201.61c1.58-1.56,4.67-2.32,5.96-1.06l0,0l-0.18,0.17c-1.07-1.08-4.11-0.42-5.6,0.88l0,0l4.62,4.8
								c1.41-1.42,2.11-4.57,0.98-5.68l0,0l0.19-0.19c1.27,1.35,0.48,4.53-1.17,6.05l0,0L158.51,201.61L158.51,201.61z"/>
						</g>
						<g>
							<path id="_x3C_Path_x3E__426_" class="st2" d="M163.57,201.49c0,0,0.73,2.08-1.2,4c-1.39-1.38-1.39-1.38-2.72-2.72
								C161.57,200.82,163.57,201.49,163.57,201.49z"/>
							<path d="M159.55,202.68c1.97-2,4.05-1.35,4.06-1.32l0,0l-0.05,0.13l0.13-0.05c0,0,0.75,2.16-1.43,4.14l0,0
								C160.88,204.17,160.89,204.18,159.55,202.68L159.55,202.68z M159.74,202.68c1.31,1.31,1.32,1.32,2.54,2.72l0,0
								c1.68-1.67,1.29-3.45,1.2-3.81l0,0C163.13,201.5,161.42,201.13,159.74,202.68L159.74,202.68z"/>
						</g>
					</g>
					<g>
						<path id="_x3C_Path_x3E__425_" class="st2" d="M161.61,193.94l9.56,9.56c0.2,0.2,0.21,0.55-0.01,0.77l0,0
							c-0.25,0.22-0.61,0.24-0.79,0.05l-9.56-9.56c-0.21-0.21-0.18-0.55,0.05-0.79l0,0C161.09,193.73,161.41,193.73,161.61,193.94z"
							/>
						<path d="M160.7,194.86c-0.26-0.27-0.21-0.7,0.06-0.97l0,0c0.29-0.29,0.69-0.31,0.95-0.05l0,0l-0.1,0.1l-0.09,0.09
							c-0.16-0.16-0.37-0.16-0.59,0.04l0,0c-0.18,0.2-0.19,0.46-0.04,0.61l0,0l9.56,9.57c0.14,0.14,0.42,0.14,0.61-0.05l0,0
							c0.19-0.19,0.18-0.45,0.03-0.6l0,0l-9.56-9.56l0.09-0.09l0.1-0.1l9.55,9.58c0.26,0.25,0.27,0.67-0.02,0.96l0,0
							c-0.28,0.26-0.7,0.29-0.97,0.05l0,0L160.7,194.86L160.7,194.86z"/>
					</g>
					<g>
						<path id="_x3C_Path_x3E__424_" class="st2" d="M155.96,199.09l10.06,10.06c0.22,0.22,0.18,0.58-0.04,0.82l0,0
							c-0.26,0.26-0.61,0.28-0.83,0.06l-10.07-10.06c-0.22-0.22-0.21-0.58,0.05-0.84l0,0C155.37,198.9,155.74,198.87,155.96,199.09z
							"/>
						<path d="M154.99,200.06c-0.27-0.27-0.25-0.72,0.05-1.03l0,0c0.28-0.28,0.73-0.31,1.02-0.04l0,0l-0.1,0.1l-0.09,0.1
							c-0.15-0.16-0.43-0.16-0.65,0.04l0,0c-0.2,0.22-0.2,0.48-0.04,0.64l0,0l10.06,10.07c0.16,0.14,0.42,0.16,0.64-0.06l0,0
							c0.19-0.2,0.19-0.49,0.04-0.62l0,0l-10.06-10.07l0.09-0.1l0.1-0.1l10.06,10.07c0.26,0.26,0.23,0.72-0.05,1l0,0
							c-0.3,0.29-0.75,0.32-1.01,0.06l0,0L154.99,200.06L154.99,200.06z"/>
					</g>
					<g>
						<path id="_x3C_Path_x3E__423_" class="st2" d="M161.01,194.95l9.14,9.17c0.19,0.2,0.16,0.51-0.07,0.74l0,0
							c-0.22,0.23-0.55,0.27-0.74,0.07l-9.17-9.15c-0.18-0.19-0.16-0.53,0.07-0.76l0,0C160.47,194.8,160.82,194.78,161.01,194.95z"
							/>
						<path d="M160.08,195.87c-0.25-0.23-0.2-0.66,0.07-0.93l0,0c0.26-0.27,0.7-0.31,0.94-0.07l0,0l-0.09,0.1l-0.1,0.1
							c-0.12-0.12-0.39-0.13-0.56,0.05l0,0c-0.21,0.19-0.2,0.45-0.07,0.58l0,0l9.16,9.14c0.12,0.13,0.37,0.13,0.58-0.08l0,0
							c0.16-0.19,0.18-0.42,0.05-0.55l0,0l-9.15-9.14l0.1-0.1l0.09-0.1l9.15,9.16c0.25,0.26,0.19,0.67-0.08,0.93l0,0
							c-0.25,0.27-0.65,0.33-0.91,0.06l0,0L160.08,195.87L160.08,195.87z"/>
					</g>
					<g>
						<g id="_x3C_Path_x3E__422_">
							<path class="st2" d="M171.47,195.99l-3.73,4.06l-2.53-2.57l4.08-3.7L171.47,195.99z"/>
							<path d="M165.11,197.37l4.27-3.69l2.17,2.2l-0.09,0.09l0.09,0.09l-3.92,4.07L165.11,197.37L165.11,197.37z M165.29,197.39
								l2.36,2.56l3.64-3.96l-1.92-2.13L165.29,197.39L165.29,197.39z"/>
						</g>
						<g>
							<path id="_x3C_Path_x3E__421_" class="st2" d="M170.28,191.8l0.7,0.7l-0.52,0.52l0.52,0.5l0.52-0.51l0.71,0.73l-0.52,0.51
								l0.52,0.54l0.52-0.52l0.73,0.73l-1.19,1.18c-0.19,0.18-0.46,0.16-0.64-0.02l-2.53-2.55c-0.16-0.15-0.16-0.46-0.02-0.63
								L170.28,191.8L170.28,191.8z"/>
							<path d="M169.03,193.7c-0.22-0.22-0.23-0.59-0.02-0.82l0,0l1.17-1.2l0.09,0.09l0.1-0.09l0.69,0.9l-0.5,0.33l0.33,0.52
								l0.7-0.51l0.71,0.89l-0.5,0.34l0.33,0.53l0.71-0.52l0.73,0.91l-1.18,1.18c-0.25,0.22-0.61,0.19-0.82-0.01l0,0L169.03,193.7
								L169.03,193.7z M169.19,193.06c-0.1,0.1-0.09,0.36,0.02,0.46l0,0l2.53,2.56c0.13,0.1,0.31,0.13,0.46,0l0,0l1.19-1l-0.56-0.73
								l-0.7,0.52l-0.53-0.72l0.52-0.34l-0.54-0.71l-0.7,0.52l-0.52-0.71l0.52-0.33l-0.61-0.61L169.19,193.06L169.19,193.06z"/>
						</g>
						<g id="_x3C_Path_x3E__420_">
							<path d="M168.48,196.25c0.35-0.38,0.89,0.13,0.52,0.51l-0.9,0.89l-0.52-0.51L168.48,196.25z"/>
						</g>
						<g>
							<path id="_x3C_Path_x3E__419_" class="st2" d="M171.5,196.73l0.72,0.73l-0.51,0.52l0.51,0.51l0.54-0.52l0.72,0.73l-0.53,0.52
								l0.52,0.52l0.52-0.52l0.74,0.74l-1.2,1.19c-0.19,0.19-0.46,0.13-0.61-0.02l-2.55-2.55c-0.18-0.17-0.21-0.47-0.04-0.64
								L171.5,196.73L171.5,196.73z"/>
							<path d="M170.28,198.64c-0.22-0.22-0.25-0.59-0.04-0.82l0,0l1.18-1.18l0.09,0.09l0.08-0.09l0.73,0.9l-0.51,0.33l0.32,0.52
								l0.73-0.53l0.71,0.91l-0.52,0.34l0.32,0.51l0.73-0.53l0.73,0.94l-1.2,1.19c-0.25,0.25-0.6,0.17-0.8-0.02l0,0L170.28,198.64
								L170.28,198.64z M170.42,198.01c-0.1,0.1-0.09,0.33,0.03,0.45l0,0l2.55,2.56c0.13,0.13,0.31,0.16,0.44,0.03l0,0l1.2-1.02
								l-0.57-0.73l-0.7,0.53l-0.52-0.7l0.54-0.35l-0.55-0.71l-0.7,0.52l-0.51-0.7l0.5-0.33l-0.62-0.62L170.42,198.01L170.42,198.01
								z"/>
						</g>
						<g id="_x3C_Path_x3E__418_">
							<path class="st2" d="M172.78,200.98l-2,2.13l-2.42-2.43l2.12-1.99L172.78,200.98z"/>
							<path d="M168.27,200.57l2.3-1.98l2.3,2.3l-0.09,0.09l0.1,0.08l-2.19,2.14L168.27,200.57L168.27,200.57z M168.46,200.57
								l2.23,2.45l1.92-2.04l-2.03-2.21L168.46,200.57L168.46,200.57z"/>
						</g>
						<g>
							<path id="_x3C_Path_x3E__417_" class="st2" d="M165.26,190.49l0.7,0.71l-0.52,0.51l0.54,0.54l0.52-0.52l0.7,0.72l-0.52,0.52
								l0.52,0.52l0.53-0.53l0.73,0.73l-1.2,1.19c-0.19,0.19-0.45,0.16-0.61,0l-2.56-2.56c-0.15-0.17-0.19-0.48-0.03-0.64
								L165.26,190.49L165.26,190.49z"/>
							<path d="M164.01,192.4c-0.21-0.22-0.25-0.59-0.04-0.82l0,0l1.19-1.18l0.1,0.09l0.09-0.09l0.7,0.87l-0.52,0.33l0.35,0.55
								l0.71-0.53l0.7,0.91l-0.5,0.33l0.33,0.52l0.7-0.52l0.73,0.91l-1.2,1.2c-0.24,0.24-0.59,0.19-0.79-0.02l0,0L164.01,192.4
								L164.01,192.4z M164.15,191.76c-0.08,0.09-0.06,0.34,0.05,0.45l0,0l2.57,2.56c0.12,0.13,0.28,0.14,0.41,0.02l0,0l1.21-1.01
								l-0.55-0.74l-0.7,0.53l-0.52-0.7l0.52-0.34l-0.52-0.72l-0.71,0.52l-0.54-0.72l0.51-0.35l-0.6-0.61L164.15,191.76
								L164.15,191.76z"/>
						</g>
						<g id="_x3C_Path_x3E__416_">
							<path class="st2" d="M166.52,194.71l-1.99,2.13l-2.43-2.43l2.13-1.99L166.52,194.71z"/>
							<path d="M162.01,194.33l2.31-2l2.3,2.3l-0.11,0.09l0.1,0.08l-2.18,2.13L162.01,194.33L162.01,194.33z M162.19,194.33
								l2.23,2.41l1.93-2.03l-2.03-2.21L162.19,194.33L162.19,194.33z M166.42,194.63L166.42,194.63L166.42,194.63L166.42,194.63z"
								/>
						</g>
						<g id="_x3C_Path_x3E__415_">
							<path d="M170.49,200.45c0.34-0.37,0.87,0.16,0.5,0.52l-0.56,0.56l-0.5-0.52L170.49,200.45z"/>
						</g>
						<g id="_x3C_Path_x3E__414_">
							<path d="M164.23,194.21c0.36-0.39,0.89,0.16,0.52,0.51l-0.57,0.55l-0.51-0.5L164.23,194.21z"/>
						</g>
					</g>
				</g>
			</g>
		</g>
	</g>
</g>
</svg>
