<?xml version="1.0" encoding="utf-8"?>
<!-- Generator: Adobe Illustrator 21.1.0, SVG Export Plug-In . SVG Version: 6.00 Build 0)  -->
<svg version="1.1" id="Layer_1" xmlns="http://www.w3.org/2000/svg" xmlns:xlink="http://www.w3.org/1999/xlink" x="0px" y="0px"
	 viewBox="0 0 60 60" style="enable-background:new 0 0 60 60;" xml:space="preserve">
<style type="text/css">
	.st0{fill:#FFFFFF;}
	.st1{fill:#70193D;}
</style>
<g>
	<g>
		<path class="st0" d="M0,30.0013C0,43.9017,9.4671,55.56,22.2953,58.9654l3.0382-1.9419l-5.2818-3.3773l5.2818-3.3772
			l-5.2818-3.3786l5.2818-3.38l-5.2818-3.3786l5.2818-3.3786l-5.2818-3.3746l5.2818-3.3773l-5.2818-3.3772l5.2818-3.38
			l-5.2818-3.3772l5.2818-3.3732l-5.2818-3.3813l5.2818-3.38l-5.2818-3.3786l5.2818-3.376l-3.0382-1.9393
			C9.4671,4.4387,0,16.1009,0,30.0013z"/>
		<path class="st1" d="M20.0518,6.3538l5.2818,3.3786l-5.2818,3.38l5.2818,3.3813l-5.2818,3.3732l5.2818,3.3772l-5.2818,3.38
			l5.2818,3.3772l-5.2818,3.3773l5.2818,3.3746l-5.2818,3.3786l5.2818,3.3786l-5.2818,3.38l5.2818,3.3786l-5.2818,3.3772
			l5.2818,3.3773l-3.0382,1.9419C24.7573,59.6194,27.3291,60,29.9987,60C46.5687,60,60,46.5701,60,30.0013
			C60,13.4327,46.5687,0,29.9987,0c-2.6696,0-5.2414,0.3833-7.7034,1.0386l3.0382,1.9393L20.0518,6.3538z"/>
	</g>
</g>
</svg>
