<?xml version="1.0" encoding="utf-8"?>
<!-- Generator: Adobe Illustrator 21.1.0, SVG Export Plug-In . SVG Version: 6.00 Build 0)  -->
<svg version="1.1" id="Layer_1" xmlns="http://www.w3.org/2000/svg" xmlns:xlink="http://www.w3.org/1999/xlink" x="0px" y="0px"
	 viewBox="0 0 60 60" style="enable-background:new 0 0 60 60;" xml:space="preserve">
<style type="text/css">
	.st0{clip-path:url(#SVGID_2_);}
	.st1{fill:#002495;}
	.st2{fill:#FFFFFF;}
</style>
<g>
	<defs>
		<circle id="SVGID_1_" cx="30" cy="30" r="30"/>
	</defs>
	<clipPath id="SVGID_2_">
		<use xlink:href="#SVGID_1_"  style="overflow:visible;"/>
	</clipPath>
	<g class="st0">
		<g id="qtr">
			<path class="st1" d="M-9.4772,0h32.8977v23.4205H-9.4772V0z"/>
			<path class="st2" d="M18.091,15.9329c0.2105-0.3158,0.1974-1.0001-0.2237-1.2501c-0.329-0.1579-0.6843-0.0921-0.8553,0.0395
				c-0.2763,0.1711-0.5395,0.6974-0.5395,1.237h0.9475v1.0659h-1.9739c0.0263,0.5395,0.329,0.9869,0.8817,1.2238
				c-0.0658,0.2237-0.4079,0.6974-0.8685,0.6711c-0.0921,0.5-0.1711,0.7764-0.5922,1.2238c-0.4079-0.4474-0.5-0.7237-0.5922-1.2238
				c-0.4606,0.0263-0.7895-0.4343-0.8685-0.6711c0.5527-0.2369,0.8553-0.6843,0.8817-1.2238h-1.9739v-1.0659h0.9475
				c0-0.5395-0.2632-1.0659-0.5395-1.237c-0.1711-0.1447-0.5395-0.1974-0.8553-0.0395c-0.4211,0.2369-0.4474,0.9343-0.2237,1.2501
				c-2.0002-0.3685-1.8028-2.3028-1.1185-3.0003c0.5527-0.5658,1.1448-0.658,1.6186-0.4737
				c1.0527,0.3816,1.7633,1.6317,1.7896,3.5135h0.5527c0-1.7107-0.3027-2.2502-1.0659-4.3951
				c-0.3948-1.0132-0.1579-2.2634,0.5395-3.4082c0.25-0.4079,0.5658-0.7895,0.9211-1.1843
				c0.3553,0.3948,0.6711,0.7764,0.9211,1.1843c0.6974,1.158,0.9343,2.4081,0.5395,3.4082
				c-0.7764,2.1449-1.0659,2.6845-1.0659,4.3951h0.5527c0.0395-1.8686,0.7369-3.1319,1.7896-3.5135
				c0.4606-0.1842,1.0659-0.0921,1.6186,0.4737c0.6843,0.6974,0.8817,2.6318-1.1185,3.0003L18.091,15.9329z"/>
		</g>
		<g>
			<g id="qtr_1_">
				<path class="st1" d="M36.5795,0h32.8977v23.4205H36.5795V0z"/>
				<path class="st2" d="M48.3569,15.9329c0.2105-0.3158,0.1974-1.0001-0.2237-1.2501c-0.329-0.1579-0.6843-0.0921-0.8553,0.0395
					c-0.2763,0.1711-0.5395,0.6974-0.5395,1.237h0.9475v1.0659h-1.9739c0.0263,0.5395,0.329,0.9869,0.8817,1.2238
					c-0.0658,0.2237-0.4079,0.6974-0.8685,0.6711c-0.0921,0.5-0.1711,0.7764-0.5922,1.2238c-0.4079-0.4474-0.5-0.7237-0.5922-1.2238
					c-0.4606,0.0263-0.7895-0.4343-0.8685-0.6711c0.5527-0.2369,0.8553-0.6843,0.8817-1.2238h-1.9739v-1.0659h0.9475
					c0-0.5395-0.2632-1.0659-0.5395-1.237c-0.1711-0.1447-0.5395-0.1974-0.8553-0.0395c-0.4211,0.2369-0.4474,0.9343-0.2237,1.2501
					c-2.0002-0.3685-1.8028-2.3028-1.1185-3.0003c0.5527-0.5658,1.1448-0.658,1.6186-0.4737
					c1.0527,0.3816,1.7633,1.6317,1.7896,3.5135h0.5527c0-1.7107-0.3027-2.2502-1.0659-4.3951
					c-0.3948-1.0132-0.1579-2.2634,0.5395-3.4082c0.25-0.4079,0.5658-0.7895,0.9211-1.1843
					c0.3553,0.3948,0.6711,0.7764,0.9211,1.1843c0.6974,1.158,0.9343,2.4081,0.5395,3.4082
					c-0.7764,2.1449-1.0659,2.6845-1.0659,4.3951h0.5527c0.0395-1.8686,0.7369-3.1319,1.7896-3.5135
					c0.4606-0.1842,1.0659-0.0921,1.6186,0.4737c0.6843,0.6974,0.8817,2.6318-1.1185,3.0003L48.3569,15.9329z"/>
			</g>
		</g>
		<g>
			<g id="qtr_2_">
				<path class="st1" d="M-9.4772,36.5795h32.8977V60H-9.4772V36.5795z"/>
				<path class="st2" d="M18.091,48.8306c0.2105-0.3158,0.1974-1.0001-0.2237-1.2501c-0.329-0.1579-0.6843-0.0921-0.8553,0.0395
					c-0.2763,0.1711-0.5395,0.6974-0.5395,1.237h0.9475v1.0659h-1.9739c0.0263,0.5395,0.329,0.9869,0.8817,1.2238
					c-0.0658,0.2237-0.4079,0.6974-0.8685,0.6711c-0.0921,0.5-0.1711,0.7764-0.5922,1.2238c-0.4079-0.4474-0.5-0.7238-0.5922-1.2238
					c-0.4606,0.0263-0.7895-0.4342-0.8685-0.6711c0.5527-0.2369,0.8553-0.6843,0.8817-1.2238h-1.9739V48.857h0.9475
					c0-0.5395-0.2632-1.0659-0.5395-1.237c-0.1711-0.1447-0.5395-0.1974-0.8553-0.0395c-0.4211,0.2369-0.4474,0.9343-0.2237,1.2501
					c-2.0002-0.3685-1.8028-2.3028-1.1185-3.0003c0.5527-0.5658,1.1448-0.658,1.6186-0.4737
					c1.0527,0.3816,1.7633,1.6317,1.7896,3.5135h0.5527c0-1.7107-0.3027-2.2502-1.0659-4.3951
					c-0.3948-1.0133-0.1579-2.2634,0.5395-3.4082c0.25-0.4079,0.5658-0.7895,0.9211-1.1843
					c0.3553,0.3948,0.6711,0.7764,0.9211,1.1843c0.6974,1.158,0.9343,2.4081,0.5395,3.4082
					c-0.7764,2.1449-1.0659,2.6844-1.0659,4.3951h0.5527c0.0395-1.8686,0.7369-3.1319,1.7896-3.5135
					c0.4606-0.1842,1.0659-0.0921,1.6186,0.4737c0.6843,0.6974,0.8817,2.6318-1.1185,3.0003H18.091z"/>
			</g>
		</g>
		<g>
			<g id="qtr_3_">
				<path class="st1" d="M36.5795,36.5795h32.8977V60H36.5795V36.5795z"/>
				<path class="st2" d="M48.3569,48.8306c0.2105-0.3158,0.1974-1.0001-0.2237-1.2501c-0.329-0.1579-0.6843-0.0921-0.8553,0.0395
					c-0.2763,0.1711-0.5395,0.6974-0.5395,1.237h0.9475v1.0659h-1.9739c0.0263,0.5395,0.329,0.9869,0.8817,1.2238
					c-0.0658,0.2237-0.4079,0.6974-0.8685,0.6711c-0.0921,0.5-0.1711,0.7764-0.5922,1.2238c-0.4079-0.4474-0.5-0.7238-0.5922-1.2238
					c-0.4606,0.0263-0.7895-0.4342-0.8685-0.6711c0.5527-0.2369,0.8553-0.6843,0.8817-1.2238h-1.9739V48.857h0.9475
					c0-0.5395-0.2632-1.0659-0.5395-1.237c-0.1711-0.1447-0.5395-0.1974-0.8553-0.0395c-0.4211,0.2369-0.4474,0.9343-0.2237,1.2501
					c-2.0002-0.3685-1.8028-2.3028-1.1185-3.0003c0.5527-0.5658,1.1448-0.658,1.6186-0.4737
					c1.0527,0.3816,1.7633,1.6317,1.7896,3.5135h0.5527c0-1.7107-0.3027-2.2502-1.0659-4.3951
					c-0.3948-1.0133-0.1579-2.2634,0.5395-3.4082c0.25-0.4079,0.5658-0.7895,0.9211-1.1843
					c0.3553,0.3948,0.6711,0.7764,0.9211,1.1843c0.6974,1.158,0.9343,2.4081,0.5395,3.4082
					c-0.7764,2.1449-1.0659,2.6844-1.0659,4.3951h0.5527c0.0395-1.8686,0.7369-3.1319,1.7896-3.5135
					c0.4606-0.1842,1.0659-0.0921,1.6186,0.4737c0.6843,0.6974,0.8817,2.6318-1.1185,3.0003H48.3569z"/>
			</g>
		</g>
	</g>
</g>
</svg>
