<?xml version="1.0" encoding="utf-8"?>
<!-- Generator: Adobe Illustrator 21.1.0, SVG Export Plug-In . SVG Version: 6.00 Build 0)  -->
<svg version="1.1" id="Layer_1" xmlns="http://www.w3.org/2000/svg" xmlns:xlink="http://www.w3.org/1999/xlink" x="0px" y="0px"
	 viewBox="0 0 60 60" style="enable-background:new 0 0 60 60;" xml:space="preserve">
<style type="text/css">
	.st0{fill:#00A1DE;}
	.st1{fill:#20603D;}
	.st2{fill:#FAD201;}
</style>
<g>
	<g>
		<path class="st0" d="M29.9996,0C13.4325,0,0,13.4301,0,30.0014h60C60,13.4301,46.5687,0,29.9996,0z"/>
		<path class="st1" d="M4.0452,44.9994C9.2357,53.9585,18.903,60,29.9996,60c11.0979,0,20.7646-6.0415,25.9544-15.0006H4.0452z"/>
		<path class="st2" d="M60,30.0014H0c0,5.4692,1.4888,10.5834,4.0452,14.998H55.954C58.5103,40.5849,60,35.4707,60,30.0014z"/>
	</g>
</g>
<g>
	<circle class="st2" cx="40.5897" cy="16.6153" r="3.4944"/>
	<g>
		<path class="st2" d="M41.0603,12.8353l-0.4706-5.7501l-0.4624,5.7488c0.1519-0.0184,0.3056-0.0308,0.4624-0.0308
			C40.7494,12.8033,40.9058,12.8162,41.0603,12.8353z"/>
		<path class="st2" d="M38.1232,7.41l1.041,5.6716c0.2851-0.1152,0.5877-0.1949,0.9021-0.2382L38.1232,7.41z"/>
		<path class="st2" d="M35.8247,8.362l2.4746,5.2113c0.2477-0.1868,0.5163-0.3475,0.8058-0.47L35.8247,8.362z"/>
		<path class="st2" d="M38.2501,13.6101l-4.3991-3.7336l3.7385,4.3925C37.782,14.0231,38.0037,13.8022,38.2501,13.6101z"/>
		<path class="st2" d="M32.3364,11.8502l4.7448,3.2731c0.1232-0.2893,0.2841-0.5577,0.4714-0.805L32.3364,11.8502z"/>
		<path class="st2" d="M31.3844,14.1487l5.4347,1.9351c0.044-0.3143,0.124-0.6168,0.2397-0.9017L31.3844,14.1487z"/>
		<path class="st2" d="M36.8097,16.1447l-5.7501,0.4706l5.7488,0.4624c-0.0184-0.1519-0.0308-0.3056-0.0308-0.4624
			C36.7777,16.4556,36.7906,16.2992,36.8097,16.1447z"/>
		<path class="st2" d="M31.3844,19.0819l5.6716-1.041c-0.1152-0.2851-0.1949-0.5876-0.2381-0.9021L31.3844,19.0819z"/>
		<path class="st2" d="M32.3364,21.3804l5.2113-2.4746c-0.1868-0.2477-0.3475-0.5163-0.47-0.8058L32.3364,21.3804z"/>
		<path class="st2" d="M37.5845,18.955l-3.7336,4.3992l4.3925-3.7385C37.9976,19.423,37.7766,19.2013,37.5845,18.955z"/>
		<path class="st2" d="M35.8247,24.8686l3.2731-4.7448c-0.2893-0.1232-0.5577-0.284-0.805-0.4714L35.8247,24.8686z"/>
		<path class="st2" d="M38.1232,25.8207l1.9351-5.4346c-0.3143-0.044-0.6168-0.124-0.9017-0.2397L38.1232,25.8207z"/>
		<path class="st2" d="M40.1192,20.3953l0.4706,5.7501l0.4624-5.7488c-0.1519,0.0184-0.3056,0.0308-0.4624,0.0308
			C40.4301,20.4273,40.2737,20.4144,40.1192,20.3953z"/>
		<path class="st2" d="M43.0563,25.8207l-1.041-5.6716c-0.2851,0.1152-0.5877,0.1949-0.9021,0.2382L43.0563,25.8207z"/>
		<path class="st2" d="M45.3548,24.8686l-2.4746-5.2113c-0.2477,0.1868-0.5163,0.3475-0.8058,0.47L45.3548,24.8686z"/>
		<path class="st2" d="M42.9294,19.6205l4.3992,3.7336L43.59,18.9615C43.3974,19.2075,43.1757,19.4285,42.9294,19.6205z"/>
		<path class="st2" d="M48.8431,21.3804l-4.7448-3.2731c-0.1232,0.2892-0.284,0.5577-0.4714,0.805L48.8431,21.3804z"/>
		<path class="st2" d="M49.7951,19.0819l-5.4347-1.9351c-0.044,0.3143-0.124,0.6168-0.2397,0.9017L49.7951,19.0819z"/>
		<path class="st2" d="M44.3698,17.0859l5.7501-0.4706l-5.7488-0.4624c0.0184,0.1519,0.0308,0.3056,0.0308,0.4624
			C44.4018,16.775,44.3888,16.9314,44.3698,17.0859z"/>
		<path class="st2" d="M49.7951,14.1487l-5.6716,1.041c0.1151,0.2851,0.1949,0.5876,0.2382,0.9021L49.7951,14.1487z"/>
		<path class="st2" d="M48.8431,11.8502l-5.2113,2.4746c0.1868,0.2477,0.3475,0.5163,0.47,0.8058L48.8431,11.8502z"/>
		<path class="st2" d="M43.595,14.2757l3.7336-4.3991L42.936,13.615C43.1819,13.8076,43.4029,14.0293,43.595,14.2757z"/>
		<path class="st2" d="M45.3548,8.362l-3.2731,4.7448c0.2892,0.1232,0.5577,0.2841,0.805,0.4714L45.3548,8.362z"/>
		<path class="st2" d="M43.0563,7.41l-1.9351,5.4346c0.3143,0.044,0.6168,0.124,0.9017,0.2397L43.0563,7.41z"/>
	</g>
</g>
</svg>
