<?xml version="1.0" encoding="utf-8"?>
<!-- Generator: Adobe Illustrator 21.0.2, SVG Export Plug-In . SVG Version: 6.00 Build 0)  -->
<svg version="1.1" id="Layer_2" xmlns="http://www.w3.org/2000/svg" xmlns:xlink="http://www.w3.org/1999/xlink" x="0px" y="0px"
	 viewBox="0 0 288.5 288.4" style="enable-background:new 0 0 288.5 288.4;" xml:space="preserve">
<style type="text/css">
	.st0{fill:#009531;}
	.st1{fill:#FFFFFF;}
</style>
<g>
	<g>
		<path class="st0" d="M288.5,144.2c0,79.7-64.6,144.2-144.2,144.2C64.6,288.4,0,223.9,0,144.2C0,64.6,64.6,0,144.2,0
			C223.9,0,288.5,64.6,288.5,144.2z"/>
	</g>
</g>
<g>
	<path class="st1" d="M62.5689,93.4987c1.2088-3.3707,1.2749-6.2726-0.0764-5.1937c-1.1535,0.924-1.8479-0.0124-0.9695-1.0914
		c1.161-1.4276,2.731-1.8993,2.9953,0.6864C64.7205,89.8591,63.314,92.2927,62.5689,93.4987z"/>
	<path class="st1" d="M72.62,111.7341c0.372,4.2012,1.4971,12.0802,1.554,14.7862c0.057,2.7087,0.4495,1.9556,1.1644,0.446
		c0.7155-1.5113,0.5287-3.1804,0.3897-5.3736c-0.1493-2.3231-0.3042-6.2299-0.744-11.4127c0.8465-0.7656,1.7409-1.8673,2.114-2.6204
		c0.8733-1.7722,1.0824-1.5836,1.4686-0.172c0.7594,2.7862,3.5319,4.6217,7.2598,1.9477c3.4435-2.4684,2.0115-7.613,0.421-13.186
		c1.3358,0.2512,1.7346-0.8089,1.0031-2.1949c-0.4238-0.8072-1.0567-1.5842-1.6326-2.2724
		c-0.5759-0.6881-1.2282-1.2692-1.7723-0.5571c-0.5446,0.712-1.076,1.2943-1.4179,1.7215
		c-0.3417,0.4272-0.3212,0.9149,0.1516,2.0764c1.3324,3.2659,2.3134,6.7915,2.5669,8.7506
		c0.2512,1.9556-0.4415,2.3213-1.7027,2.3481c-1.2613,0.0274-3.0602-0.3099-3.7501-3.0984
		c-0.6899-2.7879-0.9622-4.1505-0.8607-5.9752c0.1008-1.824,0.2847-3.1012-1.0163-4.9651c-1.3006-1.8639-1.4482-1.6172-1.766-0.5936
		c-0.3259,1.0584-0.7212,2.5048-0.307,4.2423c0.6158,2.5794,0.9906,4.8677,1.3165,6.3295c0.2329,1.0476-0.7657,3.2664-2.3795,4.4228
		c-0.29-3.4447-0.8927-8.141-1.1809-11.9326c2.0889-0.6062,0.9337-3.307-0.5993-6.2191c-1.1855-2.2467-1.7107-1.3654-2.5225,0.0542
		c-0.8118,1.419-0.2216,2.0536,0.4318,3.1616c-0.4682,0.9906,0.2626,2.3766,0.5953,4.8928
		c0.2244,1.6851,0.5429,6.374,0.8448,10.4311c-1.6201,0-2.5333-1.0539-3.1394-2.4655c-1.2532-2.9161-0.9319-5.663-0.3389-7.3584
		c0.5953-1.6941,1.1365-4.4461,0.1396-5.1269c-0.9953-0.6785-2.228,0.1345-3.0415,1.4151
		c-1.3558,2.1299-2.7281,5.0904-2.8483,8.3136c-0.0455,1.1934-0.4591,3.725-1.0003,4.649
		c-0.5412,0.9211-1.2971,1.0448-2.1613-0.3384c-1.3786-2.2137-1.766-7.8596-1.6868-10.7353c0.0393-1.4287-0.3737-1.734-0.8277-0.041
		c-1.5079,5.6146,0.2484,11.6291,1.4954,14.1971c1.2453,2.5669,2.9782,1.9642,4.1334-0.0882
		c1.7563-3.1224,1.0408-5.9656,2.6268-10.5576c1.0111-2.9326,1.2594-0.728,0.9541,1.0174
		C65.743,104.2966,66.0216,111.8355,72.62,111.7341z"/>
	<path class="st1" d="M77.6216,87.2432c-0.3429,0.9479-0.1247,2.1334,0.4512,2.8688c0.5759,0.736,1.7215,0.785,2.3294,0.1521
		c0.6391-0.6676,0.6471-0.8038,1.1649,0.1015c0.405,0.7086,1.5381,0.5696,1.8731-0.1522c0.3133-0.6739,0.6488-1.2373,0.3042-2.0251
		c-0.3453-0.7884-0.4165-0.519-0.6079,0.405c-0.3036,1.4686-1.6834,1.0664-1.7215-0.7092c-0.0382-1.7751-0.364-0.8875-0.9115,0.3549
		c-0.7593,1.7215-1.8736,1.3165-1.8736-0.2028C78.6299,86.8177,78.1839,85.6909,77.6216,87.2432z"/>
	<path class="st1" d="M58.6268,122.3235c3.3423-4.0132,7.7332-6.146,9.8757-6.8074c1.4623-0.4529,2.1539-1.0208,2.1824,0.3099
		c0.0284,1.3324-0.0206,1.3734-1.2362,1.7152c-2.7184,0.7583-8.2664,3.5542-10.1269,4.9942
		C58.3973,123.251,57.2614,123.963,58.6268,122.3235z"/>
	<path class="st1" d="M61.0291,129.7701c0.1943,1.1143,0.1105,1.8908,0.1219,2.453c0.0171,0.7719-0.4227,1.6298-0.7138,2.6774
		c-1.3654,4.9367,0.7201,7.4147,1.8719,5.5685c1.1519-1.8469,1.6555-1.5825,1.6076-0.1761
		c-0.172,5.0512-4.9321,5.3629-5.3007,1.2345c-0.5919-6.64,0.9018-7.6716,1.3985-9.9816
		C60.3341,130.0658,60.869,128.8638,61.0291,129.7701z"/>
	<path class="st1" d="M85.7017,119.6843c-0.4922,0.1692-0.9479,0.3196-1.3501,0.454c-1.9904,0.6648-2.4336-0.2056-2.3208-1.4703
		c0.1139-1.2623,0.3304-1.6868,1.6594-1.0852C84.2508,117.8358,85.0227,118.6332,85.7017,119.6843l3.1349-1.2111
		c-0.5321-1.2703-1.3706-2.3071-2.7282-3.606c-2.0986-2.0126-3.7506-2.114-5.5052,0.3971
		c-1.7232,2.4672-1.6189,3.0255-1.4765,5.2648c0.1413,2.2405-0.3099,2.997,1.3865,3.6156c1.6942,0.6187,2.4211,0.3657,3.4573,0.0205
		c0.7867-0.2625,1.9129-0.6454,3.1474-1.0914c0.2278,1.2248,0.1042,2.4273-0.6455,3.3513
		c-4.2348,5.2062-10.9711,8.9278-13.9031,5.483c-1.5808-1.8594-2.2735-4.7869-1.7882-8.3028
		c0.3959-2.8626-0.5252-1.6013-0.8527-0.5429c-1.0493,3.3877-1.3655,8.2999,0.0427,10.7461
		c1.9767,3.4384,5.152,4.9373,10.1497,2.6808c4.9999-2.2553,9.8676-6.1905,9.6574-11.7003c-0.0382-1.01-0.0872-1.8832-0.1584-2.662
		c0.5583-0.221,1.3496-0.8476,1.8719-1.0755c0.1015,1.8702-0.0524,4.1899,0.0189,6.1301c0.2215,5.8897-2.0429,7.6774-4.1711,9.3647
		c-2.9372,2.3287-6.8866,3.848-10.3297,4.3545c-7.9536,1.1695-9.87-3.9466-9.7349-10.7729
		c0.0222-1.1365,0.4301-1.7409,0.3953-3.3718c-0.0615-2.8962-0.4238-2.3977-1.2977,0.5172
		c-0.8465,2.8324-1.9175,9.3801,0.8135,14.7418c2.7316,5.3627,12.2005,3.8372,19.5081,0.3161
		c7.3087-3.5211,8.1017-10.173,7.7724-16.8016c-0.0854-1.7534-0.1914-3.6145-0.3133-5.6049c0.2313-0.1646,0.421-0.323,0.5571-0.4751
		c1.0061,3.3422,5.8801,2.4718,7.4147,0.5383c0.7759-0.9781,0.7947-1.1205,1.5701-0.0507c1.0635,1.4686,4.6204,2.0258,5.5097-0.1424
		c0.8875-2.1681,0.7377-4.2565,0.5161-5.9342c-0.2233-1.677-0.5822-1.5409-1.685-0.6773c-1.1034,0.8642-0.2234,1.0733-0.0872,2.2473
		c0.5064,4.3546-3.3422,4.0509-3.7979-0.5223c-0.2752-2.7754-0.7247-1.7198-1.1143-0.4398
		c-1.6549,5.434-6.3802,6.4816-5.9051,0.1629c0.1327-1.7705-1.0066-1.2419-1.693-0.5235c-0.4911,0.5127-1.0192,0.9838-1.5666,1.419
		c-0.3418-5.1076-0.7725-11.0025-1.2868-17.9711c1.3688,1.7215,2.728-0.2689,1.7756-2.212
		c-0.7326-1.4936-1.7882-4.9372-2.4576-6.8154c-0.6721-1.8782-1.0094-1.312-2.4495,0.2609
		c-1.4367,1.5728-1.149,1.9875-0.5537,3.5877c-0.1424,2.0582,0.1789,4.0144,0.6409,8.1177
		c0.3275,2.9178,1.2515,8.9733,1.7483,16.6068c-0.7281,0.3987-1.7421,1.0601-2.4524,1.3717L85.7017,119.6843z"/>
	<path class="st1" d="M102.366,127.8384c0.2529,0.8813,0.1515,2.707-0.2028,3.5553c-0.4432,1.0573-0.0063,1.5255,0.7024,0.1709
		c0.7189-1.37,1.1063-2.9668,0.8391-4.5966c-0.2056-1.2453-0.1743-1.5381-1.2595-2.0292c-1.0858-0.4916-1.4435,0.2643-1.8434,1.2077
		C100.1267,127.2654,100.7943,128.6183,102.366,127.8384z"/>
	<path class="st1" d="M105.5117,102.186c-1.3387,1.8007-2.453,4.2822-0.5065,5.8988c1.071,0.8898,3.2916-0.2101,4.0954-1.9807
		c0.8021-1.7693,0.4745-2.0855-0.9223-0.4699c-1.9152,2.2137-3.9199,0.2227-1.8833-2.8341
		C107.7078,100.6792,106.9421,100.2634,105.5117,102.186z"/>
	<g>
		<path class="st1" d="M108.5691,91.8119c0.2466-0.5144,0.4523-1.0317,0.6135-1.5506c0.2108-0.6825-0.4495-1.3216-0.9178-0.2598
			C107.9487,90.7216,107.8188,91.3055,108.5691,91.8119l-1.3103,2.2092c-1.4686-1.2299-1.5301-3.1492-0.9023-4.8205
			c1.3262-3.5319,6.0276-3.1138,4.7977,1.5096c-0.2057,0.769-0.4888,1.6412-0.9223,2.5731c0.6044,0.9719,0.2945,2.13-1.0362,1.8565
			c-1.6236,2.4667-4.4502,5.1538-9.5641,7.4512c-2.2917,1.0317-2.6586,0.1977-0.9308-0.8892
			c3.4054-2.1425,6.5357-4.8171,8.558-7.6807L108.5691,91.8119z"/>
	</g>
	<path class="st1" d="M113.9393,92.2898c-1.8702,5.1931-1.7786,10.2506,2.0257,14.5167c2.2342,2.5031,3.9022,1.312,4.8973-1.3039
		c0.9953-2.6142,1.6412-5.2221,2.3755-6.918c0.7354-1.6999,1.3023-1.3484,1.1263,0.2564c-0.3509,3.2311-0.4905,8.5004,2.776,10.4624
		c3.2658,1.9625,8.2817-1.4464,9.961-4.918c5.3309,7.0451,9.9702,3.7251,10.496-2.981c0.1647-2.106-0.8197-6.6872-1.4087-8.0071
		c-0.5885-1.32-0.1709-1.3985,0.6174-0.6426c0.7879,0.7537,2.2707,1.2817,1.5205-1.0157c-0.7502-2.2958-1.758-3.5364-2.9719-4.5619
		c-1.2134-1.0254-1.4811-0.4591-1.9557,0.3213c-0.4728,0.7816-0.3589,1.022-1.0476,1.6674
		c-0.6864,0.646-0.5411,0.9941-0.0205,2.3134c2.0001,5.0734,3.9654,12.5599,0.7092,13.2669
		c-2.8614,0.622-4.7361-5.6425-4.8518-8.513c-0.1487-3.7125-0.5662-6.8582-1.3102-8.8742c-0.744-2.0172-1.0573-2.3482-1.6394-1.2276
		c-0.4034,0.7798-0.5316,1.3432-1.0033,2.1943c-0.4733,0.8516-0.041,1.0857,0.2974,2.6478
		c1.7882,8.2327,1.611,11.8928-2.1265,14.0769c-3.7376,2.1835-5.7172,0.0598-5.7724-2.5322
		c-0.0552-2.592-0.0986-5.6806,0.2022-8.0003c0.3008-2.3196,0.7976-2.7469,0.0034-3.9227
		c-0.7975-1.1747-1.4463-0.7964-2.5634,0.7468c-2.3391,3.2266-4.6525,8.6982-5.4375,11.3312
		c-0.7844,2.6335-2.5218,1.7027-3.6139-0.5253c-1.2721-2.5902-1.133-7.4118-0.7058-9.2883
		C114.9459,90.9796,114.7117,90.1473,113.9393,92.2898z"/>
	<path class="st1" d="M129.7348,87.7194c-0.7388,0.8705-0.818,0.9753-0.0632,1.9369c0.6488,0.8277,1.7124,3.4766,1.4179,6.0766
		c-0.1424,1.2612,0.1299,2.4005,0.6454,0.2865c0.5161-2.114,0.3828-5.0557-0.2153-6.7949
		C130.9215,87.4853,130.2823,87.0774,129.7348,87.7194z"/>
	<g>
		<path class="st1" d="M146.6982,117.9753c0.8448-0.225,1.693-0.4341,2.5476-0.6238c2.4905-0.5537,1.1062-0.7719-0.5999-1.8559
			c-1.7039-1.0858-2.359-1.0716-2.2388,0.1407C146.4749,116.3387,146.4515,117.0416,146.6982,117.9753l-3.0602,0.8796
			c-1.9716-2.8928-0.6887-5.0244,0.8129-7.1966c1.9055-2.7503,4.915-1.8798,8.4247,0.5697
			c3.5097,2.4479,2.0969,6.3102-1.2265,8.2504c-0.8875,0.519-1.9664,0.9747-3.1485,1.407c0.2609,0.8779-0.1555,1.112-1.2424,0.4347
			c-2.9862,1.01-7.0291,2.5606-9.7538,3.9973c3.3708,0.302,17.3525-0.0188,20.1518-0.266c2.7994-0.2467,2.3419,0.2296,1.5506,2.5829
			c-0.7912,2.3543-1.7107,2.1248-4.1505,2.5441c-3.7233,0.6397-9.1146,2.2427-13.096,3.9152
			c-3.9842,1.6737-2.6124,4.5254,1.4384,6.0288c3.1953,0.8653,2.7834,1.2025,2.2616,3.0351
			c-0.5224,1.8338-0.4842,2.2439-4.3107,1.6326c-9.4056-1.4999-12.8538-6.7088-14.3252-10.7791
			c-5.9279,8.2995-11.5533,12.8014-16.9241,11.4474c-2.6865-0.6773-4.011-3.0637-4.2593-6.1655
			c-3.6966,1.8042-8.0402,3.2949-13.5694,5.0039c-1.2988,0.4017-2.3624-0.1805-0.6756-1.0128
			c3.7409-1.8497,9.6272-5.0432,14.3999-8.3154c0.446-2.2028,1.4589-5.0335,2.5601-7.1891
			c0.6266-1.2276,0.9177-0.7656,0.9399,0.2609c0.0177,0.85-0.2432,2.9264-0.18,4.4673c0.924-0.6995,2.0536-1.4982,2.633-2.0251
			c3.263-2.9686,6.9026-4.7664,4.4051-9.5043c-1.0709-2.0331-1.8513-3.5125-2.2467-4.5316
			c-2.073-0.7976-1.4435-1.9306-0.5509-3.9136c0.8927-1.9813,1.2693-2.4666,3.1725-0.2546
			c2.6843,3.1206,2.9941,4.5162,1.1188,4.2758c2.9657,7.5065,2.249,11.3016-2.2786,15.8429
			c-2.1517,2.1613-4.3642,3.872-6.8388,5.3423c-0.2501,2.0109,0.5224,3.9683,4.3169,3.4031
			c4.8164-0.7178,10.3393-7.152,12.6795-12.0717c-1.0396-4.0987-3.377-11.3681-4.8028-15.1057
			c-0.7417-1.946-0.0108-2.7104,0.6113-4.2183c0.6214-1.5096,1.0692-2.453,1.8604-0.4147
			c0.7913,2.0399,3.3263,7.0319,4.5767,12.9882c1.2481,5.953,0.9838,11.0988,4.0349,13.9311
			c1.3609,1.2647,3.1411,1.9973,4.9783,2.5003c-1.345-4.0065,1.5221-6.959,5.4562-8.4231
			c-2.3738-2.1755-6.0544-1.8656-10.0705-2.0394c-3.1046-0.1361-2.6728-0.4466-1.8895-3.1747
			c0.7832-2.7275,1.7836-3.0727,4.0069-3.9619c2.9623-1.1838,6.0163-2.3294,9.1494-3.2978L146.6982,117.9753z"/>
	</g>
	<path class="st1" d="M133.1306,113.2089c-0.2467,1.5951,0.1487,2.6615,0.728,3.4431c0.5759,0.7821,1.7625,0.6836,2.0918-0.1931
		c0.405-1.079,0.6079-1.2151,1.3513-0.405c0.8072,0.8829,3.5005,0.1583,2.1618-3.9148c-0.5508-1.6708-0.8311-1.329-0.8135,0.6078
		c0.0285,2.8928-0.9017,2.8706-1.9306,0.1043c-0.3953-1.0647-0.8704-1.0806-0.9273,0.3008c-0.1106,2.6996-1.2277,3.038-1.8668,0.405
		C133.6245,112.3226,133.3983,111.4715,133.1306,113.2089z"/>
	<path class="st1" d="M167.7284,87.7513c-0.499,0.8705-0.8197,1.627,0.1424,2.3323c0.9251,0.6824,2.3197,2.4973,1.7358,4.6843
		c-0.4387,1.636-0.0399,2.8608,1.014,0.4916c1.0698-2.4063,0.2153-5.348-0.8545-7.2011
		C168.8199,86.4189,168.2679,86.8051,167.7284,87.7513z"/>
	<path class="st1" d="M176.4391,130.3221c-0.9872-5.2374-5.7616-13.6445-12.8823-24.6298c-0.2307-2.862-0.3828-5.614-0.3845-8.0305
		c1.0048,1.1,1.7613,0.4528,1.3797-1.0112c-0.7167-2.7469-1.7894-4.9811-2.9731-7.9975c-0.5189-1.3193-1.7688-1.6121-2.4496,0.2626
		c-0.7924,2.1904-0.8527,2.6825,0.1601,4.1335c-0.0558,1.7341,0.462,4.5066,0.6632,7.0388
		c-1.2157-1.8264-2.8866-4.2064-4.1968-6.1462c1.9813,0.7976,3.1839,0.212,1.4589-1.7141
		c-1.7232-1.9254-4.1966-3.9289-5.7205-5.2989c-1.5238-1.3689-2.253-0.5127-2.0394,0.7906c0.2153,1.304,0.2359,2.2394,0.1646,3.2693
		c-0.0729,1.0288,0.1994,1.6999,1.7529,2.2981c2.9975,4.016,6.0988,8.1478,8.8839,12.2699
		c0.3862,3.5507,1.0538,7.3959,1.4178,10.5319c0.8591,7.4124,2.2849,17.1377,1.1137,21.3692
		c-0.867,3.1331,0.0684,4.5094,1.5079-0.2866c1.4401-4.7965,1.2693-9.2935,0.4164-16.4239
		c-0.3417-2.8483-0.5064-6.3261-0.8573-9.5954c4.8894,7.646,9.298,14.8397,11.2884,19.8242
		C176.2147,133.6564,177.178,134.2323,176.4391,130.3221z"/>
	<path class="st1" d="M168.6615,100.9088c0.3925,1.3655,1.0824,2.0969,1.3643,0.3908c0.2484-1.4999,0.7059-1.9778,0.9747-0.3481
		c0.2678,1.6299,1.1963,1.3769,1.4925-0.123c0.2957-1.5034,0.8369-2.4023,1.0596-0.6773c0.2233,1.7243,0.0496,2.2877-0.1276,2.8055
		c-0.1743,0.5173-1.0037,1.144-1.7659,0.413c-0.7628-0.7331-1.051-0.7217-1.6395-0.1537c-1.2362,1.1945-1.7471,0.3434-1.9431-1.2675
		C167.9073,100.5517,168.4103,100.0275,168.6615,100.9088z"/>
	<path class="st1" d="M149.8598,140.5624c1.2168-0.7092,1.7945-1.2282,2.6963-1.668c0.9023-0.4398,1.6075-0.3292,0.9496,1.7312
		c-0.7246,2.2593-0.4244,2.9999,1.1028,2.4302c1.3912-0.5218,2.22-1.0283,3.4721-1.5472c1.0237-0.4227,2.1818-0.4939,0.5771,0.8289
		c-1.3085,1.0795-3.1645,2.4119-4.2184,2.6836c-2.3703,0.6113-3.5113-0.3446-3.0602-2.1772
		c0.4523-1.8326,0.826-2.4496-0.6016-1.8799C149.1096,141.6299,149.2361,140.9259,149.8598,140.5624z"/>
	<path class="st1" d="M179.1638,95.9659c0.8596,0.8209,1.983,0.8903,1.3848-0.8722c-0.5981-1.7631-1.0191-3.9022-1.6201-5.8515
		c-0.6032-1.95-0.9878-2.4103-1.7152-1.4589c-0.7269,0.949-1.3723,1.337-1.9181,2.0029c-0.5474,0.6648-0.6614,1.9368,0.016,3.0448
		c2.5048,17.6783,2.6711,25.473,3.0203,31.9831c0.3498,6.5129,1.239,9.5703-2.7834,13.9601
		c-4.4559,4.8609-7.1902,5.9752-9.1145,6.481c-2.4872,0.6552-3.3593,1.7187,0.3042,1.5193
		c5.5695-0.3036,6.2788-0.5064,10.8201-5.6806c2.5128-2.8671,3.7854-6.5289,3.5997-15.2162
		C180.8352,110.7435,178.8237,104.1514,179.1638,95.9659z"/>
	<path class="st1" d="M187.2137,96.5412c1.6075,0.9006,3.3011,1.3313,2.0445-0.6038c-1.2567-1.9357-2.2599-5.0928-3.0574-7.4124
		c-0.7958-2.318-0.9622-2.1898-2.2467-0.2324c-1.991,3.0334-0.2723,5.9147,0.2022,9.466
		c1.668,12.4881,3.2693,25.2138,3.7125,28.5588c0.503,3.774,1.0824,6.2128,0.1077,10.3491
		c-0.2912,1.2338,0.1959,1.6377,0.9843,0.1184c3.2311-6.2377,1.0129-11.6228,0.658-15.1547
		c-0.5349-5.3166-2.3795-19.5758-2.7834-25.3151"/>
	<path class="st1" d="M195.2966,106.0625c-0.2564,1.0795-1.7358,1.0699-1.6201-0.1008c0.115-1.1712,0.025-1.0066,0.0063-1.942
		c-0.0194-0.9347,1.0897-1.4714,1.7152-0.6437c0.6249,0.8271,1.8321,3.3337,2.228,4.3073c0.3953,0.9729,0.6231,0.7405,0.5947-0.6204
		c-0.033-1.5415-0.2911-2.9179-0.1646-3.8834c0.0826-0.6107,0.3924-1.3165,1.1746-1.8953c0.7827-0.5764,1.2008-0.7251,1.5489,0.2939
		c0.3497,1.0226,1.0334,1.1206,0.6944,1.9529c-0.4745,1.1724-1.6167-1.2214-2.2279,0.405
		c-0.4427,1.1775-0.0946,4.5003-0.1202,5.5764c-0.0222,1.0744-0.4809,2.6586-1.337,0.8226
		C197.2494,109.1769,196.3471,107.1609,195.2966,106.0625z"/>
	<path class="st1" d="M194.8916,120.3422c-0.0399-0.7086,0.3115-1.0128,1.7722-2.1772c1.1142-0.8892,4.3533-3.2727,5.4528-4.3248
		c1.0983-1.0522,1.9197-2.0036,2.0872-0.6979c0.1692,1.3039,0.388,1.8041-0.9069,2.4405c-1.2942,0.6357-4.6695,2.6802-5.7724,3.5444
		C196.4217,119.9908,194.9423,121.2537,194.8916,120.3422z"/>
	<path class="st1" d="M226.8006,129.6687c-0.1316-1.726-0.638-3.2658-2.7549-6.4371c-2.0354-3.0477-3.9865-5.8767-5.8442-8.5227
		c-0.6169-7.0399-1.3893-14.5372-1.4383-18.4713c1.002,0.8909,1.6839,0.0336,1.231-1.4982
		c-0.4523-1.5319-1.3826-5.6476-2.0491-7.3173c-0.6659-1.668-1.3592-1.3005-2.2387,0.1902
		c-0.8802,1.4903-1.4242,2.2024-0.9086,3.3827c0.2643,6.7254,1.2691,13.2907,2.2803,19.3087
		c-1.8656-2.608-3.6128-5.0193-5.2346-7.2774c-0.1595-2.584-0.315-5.1857-0.4603-7.752c1.0698,0.818,1.4874,0.6676,0.9622-0.932
		c-0.5258-1.6018-1.7882-4.9389-2.3801-6.4674c-0.5953-1.5306-0.9924-1.5682-1.7848-0.3355
		c-1.2629,1.9636-1.6109,3.3041-0.5445,5.1509c0.1458,1.7278,0.2882,3.3895,0.4238,4.9857
		c-0.9838-1.4225-1.9016-2.7851-2.7407-4.0953c1.0397,0.5383,1.8611-0.4142,0.7184-1.4179
		c-1.1439-1.0032-3.3325-2.8261-4.2942-4.1141c-0.9621-1.288-1.9892-1.2658-1.9624-0.0507
		c0.0222,1.1206,0.1395,2.2411-0.0268,3.1776c-0.1663,0.9382-0.1538,1.8924,1.198,3.5256c2.7133,3.2853,5.3053,6.6616,7.6967,9.8836
		c0.9827,11.5864,1.5569,19.0723,1.3387,23.8022c-0.1282,2.76-1.1222,4.371-2.6062,4.8706
		c-1.4863,0.4973-3.0021-0.4967-4.4485-2.617c-2.5236-3.6931-3.4618-3.0095-5.4163,0.209
		c-1.8958,3.1253-3.2425,5.6773-4.2252,7.8483c-0.9827,2.171-2.625,3.9813-4.0873,1.2094
		c-1.4607-2.7726-1.6218-5.9467-1.5757-8.1906c0.0456-2.2439-0.2803-4.0161-1.1302-0.4432
		c-2.0599,8.6417-0.8573,10.4487,1.4783,12.3964c2.9497,2.4621,3.8754,2.711,5.4323,0.5395
		c2.9952-4.1756,3.8497-7.9326,5.5809-10.0261c1.3501-1.6315,1.4527-0.3589,2.0651,0.4227c1.7294,2.2057,3.3359,3.0129,5.774,3.4294
		c2.4388,0.4158,6.8804-1.6429,6.5198-9.7651c-0.2187-4.9276-0.6459-11.5898-1.0983-18.7533
		c2.3704,3.2869,4.4468,6.2332,6.1222,8.5085c0.7502,4.711,1.2583,8.8821,1.0493,12.2636
		c-0.2439,3.9307,0.5508,3.9147,1.3512-0.1219c0.3168-1.5854,0.2182-4.9509-0.0587-9.0303c3.1252,4.1614,4.9834,6.9021,6.2726,8.991
		C226.4394,132.4795,227.1709,134.5838,226.8006,129.6687z"/>
	<path class="st1" d="M220.0877,91.0491c-0.6785,1.0665-0.6027,1.345,0.1983,2.6598c0.7975,1.3153,1.5534,3.893,1.5283,5.9262
		c-0.0284,2.032,0.6677,1.7374,1.0477-0.0917c0.3827-1.8326,0.2387-5.2632-0.7947-7.7645
		C221.0327,89.2769,220.6306,90.1975,220.0877,91.0491z"/>
	<path class="st1" d="M229.5583,94.7029c1.2886,1.2345,1.9796,0.7993,1.0983-1.1444c-0.883-1.9449-1.7688-4.0287-2.6517-5.9718
		c-0.883-1.9431-1.1536-1.5176-2.2439-0.0917c-1.0921,1.4242-1.2123,2.4085-0.7725,3.2408
		c2.2188,18.596,3.2123,28.2518,3.5256,33.8504c0.4529,8.1211-1.4874,12.7479-9.4296,18.0048
		c-2.625,1.7374-5.5268,3.7626,0.6096,2.2291c6.1346-1.533,12.6715-5.5856,11.9942-22.5456
		C231.0873,107.1483,229.1219,100.4611,229.5583,94.7029z"/>
	<path class="st1" d="M213.1937,139.1411c-0.4655,1.2025-2.8677,0.2723-1.9147-1.0789c0.7275-1.0351,2.4274-1.1741,3.1469-0.2786
		c1.7932,2.2279-0.8699,5.2061-2.1124,6.0731c-1.2436,0.8671-2.212,0.8226-0.3668-0.7627
		C213.1156,142.0874,213.9165,140.1773,213.1937,139.1411z"/>
	<path class="st1" d="M78.9051,192.045c38.7689,0.4574,85.0316,0.9701,124.4175,0.1298c4.2787-0.0917,6.1016,0.5367,6.4656,4.2395
		c0.3099,3.1553-0.6391,5.7251-2.8249,5.8658c-1.8098,0.119-3.8527-2.1061-2.6945-5.8436
		c-49.6477,1.4874-86.4764,1.6332-98.0433,1.4492C94.6579,197.7057,82.6762,198.1756,78.9051,192.045z"/>
	<path class="st1" d="M198.5055,199.6391c-0.0142-0.6517-0.9268-1.0522-1.329-1.0442c-0.4022,0.0091-1.2943,0.4495-1.2818,1.0995
		l-5.3513,0.1139c-0.1618-0.34-0.4752-0.7417-0.9702-1.3085l-0.1629-7.5987c1.427-1.7785,1.247-1.9665,0.1772-3.5
		c-0.5162-0.7406-0.891-1.5523-1.8924,0.0393c-0.9958,1.5842-1.1747,1.7739,0.3258,3.4909l0.1612,7.597
		c-1.4258,1.7802-1.2373,1.9625-0.1755,3.5034c1.0682,1.5461,1.4066,0.7183,1.8907-0.041c0.1966-0.3071,0.3595-0.5634,0.4859-0.7878
		l5.5417-0.1174c0.0143,0.6517,0.9258,1.0698,1.3273,1.0601c0.4022-0.0096,1.296-0.4654,1.2818-1.1154l8.0037-0.1709l-0.0301-1.391
		L198.5055,199.6391z"/>
</g>
</svg>
