<?xml version="1.0" encoding="utf-8"?>
<!-- Generator: Adobe Illustrator 21.0.2, SVG Export Plug-In . SVG Version: 6.00 Build 0)  -->
<svg version="1.1" id="Layer_1" xmlns="http://www.w3.org/2000/svg" xmlns:xlink="http://www.w3.org/1999/xlink" x="0px" y="0px"
	 viewBox="0 0 357.0511 357.043" style="enable-background:new 0 0 357.0511 357.043;" xml:space="preserve">
<style type="text/css">
	.st0{fill:#0079C1;}
	.st1{fill:#FFFFFF;}
</style>
<g>
	<g>
		<path class="st0" d="M13.1749,111.2042C4.7057,131.987,0,154.6995,0,178.5293c0,23.8215,4.7057,46.5341,13.1749,67.3095
			l100.988-67.3095L13.1749,111.2042z"/>
		<path class="st0" d="M304.233,51.8055C271.9812,19.7938,227.5763,0,178.5301,0C129.475,0,85.0699,19.7938,52.8035,51.8055
			l125.7266,83.818L304.233,51.8055z"/>
		<path class="st0" d="M343.8762,245.8388c8.4702-20.7755,13.1749-43.488,13.1749-67.3095c0-23.8297-4.7047-46.5422-13.1749-67.325
			l-100.9796,67.325L343.8762,245.8388z"/>
		<path class="st0" d="M178.5301,221.435L52.8035,305.253c32.2665,32.0116,76.6715,51.79,125.7266,51.79
			c49.0462,0,93.4512-19.7784,125.7029-51.7827L178.5301,221.435z"/>
		<path class="st1" d="M304.233,305.2603c16.9227-16.7869,30.4878-36.9719,39.6432-59.4215l-100.9796-67.3095l100.9796-67.325
			c-9.1554-22.4341-22.7206-42.5954-39.6432-59.3987l-125.7029,83.818L52.8035,51.8055
			C35.872,68.6088,22.3222,88.7701,13.1749,111.2042l100.988,67.325l-100.988,67.3095
			c9.1472,22.4496,22.697,42.6264,39.6285,59.4142l125.7266-83.818L304.233,305.2603z"/>
	</g>
</g>
</svg>
