<?xml version="1.0" encoding="utf-8"?>
<!-- Generator: Adobe Illustrator 21.1.0, SVG Export Plug-In . SVG Version: 6.00 Build 0)  -->
<svg version="1.1" id="Layer_1" xmlns="http://www.w3.org/2000/svg" xmlns:xlink="http://www.w3.org/1999/xlink" x="0px" y="0px"
	 viewBox="0 0 335 335" style="enable-background:new 0 0 335 335;" xml:space="preserve">
<style type="text/css">
	.st0{fill:#005B99;}
	.st1{fill:#FCD116;}
</style>
<g>
	<g>
		<path class="st0" d="M108.87,10.57C54.14,31.02,13.02,79.29,2.61,138.19h106.26V10.57z"/>
		<path class="st0" d="M2.61,196.81c10.41,58.9,51.53,107.17,106.26,127.61V196.81H2.61z"/>
		<path class="st0" d="M332.4,138.19C318.53,59.66,250,0,167.52,0v138.19H332.4z"/>
		<path class="st0" d="M332.4,196.81H167.52V335C250,335,318.53,275.35,332.4,196.81z"/>
		<path class="st1" d="M332.4,196.81c1.68-9.53,2.6-19.31,2.6-29.3c0-10.02-0.93-19.8-2.6-29.33H167.52V0
			c-20.65,0-40.39,3.76-58.64,10.57v127.61H2.61C0.93,147.71,0,157.49,0,167.51c0,9.99,0.93,19.77,2.61,29.3h106.26v127.61
			c18.25,6.85,38,10.58,58.64,10.58V196.81H332.4z"/>
	</g>
</g>
</svg>
