<?xml version="1.0" encoding="utf-8"?>
<!-- Generator: Adobe Illustrator 21.0.2, SVG Export Plug-In . SVG Version: 6.00 Build 0)  -->
<svg version="1.1" id="Layer_1" xmlns="http://www.w3.org/2000/svg" xmlns:xlink="http://www.w3.org/1999/xlink" x="0px" y="0px"
	 viewBox="0 0 335 335" style="enable-background:new 0 0 335 335;" xml:space="preserve">
<style type="text/css">
	.st0{fill:#FFFFFF;}
	.st1{fill:#F42A41;}
</style>
<g>
	<g>
		<path class="st0" d="M167.5073,335c92.5111,0,167.5042-74.9932,167.5042-167.4966H0C0,260.0068,75.0008,335,167.5073,335z"/>
		<path class="st1" d="M167.5073,0C75.0008,0,0,74.9778,0,167.5034h335.0115C335.0115,74.9778,260.0183,0,167.5073,0z"/>
	</g>
	<g>
		<path class="st0" d="M65.4526,98.6839c0-20.4955,12.0768-38.0808,29.482-46.1923c-3.4343-0.7777-6.9698-1.2268-10.6332-1.2268
			c-26.1749,0-47.4114,21.2364-47.4114,47.419c0,26.1972,21.2365,47.4115,47.4114,47.4115c3.6634,0,7.1989-0.4567,10.6332-1.2421
			C77.5294,136.7188,65.4526,119.1342,65.4526,98.6839z"/>
		<g>
			<polygon class="st0" points="117.0807,60.3265 119.8078,68.8348 128.7537,68.8348 121.5211,74.0721 124.275,82.543 
				117.0807,77.3049 109.8336,82.543 112.5867,74.0721 105.3656,68.8348 114.2969,68.8348 			"/>
			<polygon class="st0" points="143.4234,80.0588 146.1697,88.5519 155.101,88.5519 147.8761,93.7899 150.6484,102.2676 
				143.4234,97.0296 136.1993,102.2676 138.9562,93.7899 131.7428,88.5519 140.6627,88.5519 			"/>
			<polygon class="st0" points="90.2468,80.0588 93.0007,88.5519 101.9198,88.5519 94.6956,93.7899 97.4526,102.2676 
				90.2468,97.0296 83.015,102.2676 85.7834,93.7899 78.5508,88.5519 87.4784,88.5519 			"/>
			<polygon class="st0" points="133.322,111.4572 136.0828,119.935 145.0325,119.935 137.8038,125.1952 140.55,133.6883 
				133.322,128.428 126.1163,133.6883 128.8809,125.1952 121.6452,119.935 130.5758,119.935 			"/>
			<polygon class="st0" points="100.5505,111.4572 103.2967,119.935 112.2465,119.935 105.0215,125.1952 107.7831,133.6883 
				100.5505,128.428 93.3409,133.6883 96.0948,125.1952 88.8584,119.935 97.7935,119.935 			"/>
		</g>
	</g>
</g>
</svg>
