<?xml version="1.0" encoding="utf-8"?>
<!-- Generator: Adobe Illustrator 22.0.0, SVG Export Plug-In . SVG Version: 6.00 Build 0)  -->
<svg version="1.1" id="Layer_1" xmlns="http://www.w3.org/2000/svg" xmlns:xlink="http://www.w3.org/1999/xlink" x="0px" y="0px"
	 viewBox="0 0 60 60" style="enable-background:new 0 0 60 60;" xml:space="preserve">
<style type="text/css">
	.st0{clip-path:url(#SVGID_2_);fill:#00247D;}
	.st1{clip-path:url(#SVGID_4_);fill:#00247D;}
	.st2{clip-path:url(#SVGID_6_);fill:#FFFFFF;}
	.st3{clip-path:url(#SVGID_8_);fill:#FFFFFF;}
	.st4{clip-path:url(#SVGID_10_);fill:#CF142B;}
	.st5{clip-path:url(#SVGID_12_);fill:#CF142B;}
	.st6{fill:#8FC5FF;stroke:#FFFFFF;stroke-width:0.0716;}
	.st7{fill:#366CC9;}
	.st8{fill:#5D3100;}
	.st9{fill:#FFFF00;stroke:#FFFFFF;stroke-width:0.0695;}
	.st10{fill:#CF6200;}
	.st11{fill:#00B800;}
	.st12{fill:#00D860;}
	.st13{fill:#FFFF00;stroke:#000000;stroke-width:0.0089;}
	.st14{fill:#FFFFFF;stroke:#000000;stroke-width:0.0089;}
	.st15{stroke:#000000;stroke-width:0.0089;}
	.st16{fill:none;stroke:#000000;stroke-width:0.0089;}
	.st17{fill:#EF072D;stroke:#000000;stroke-width:0.0089;}
	.st18{fill:#FFFF00;}
	.st19{fill:#FFFFFF;}
	.st20{fill:none;stroke:#000000;stroke-width:0.0177;}
</style>
<g>
	<g>
		<g>
			<g>
				<g>
					<defs>
						<circle id="SVGID_1_" cx="30" cy="30" r="30"/>
					</defs>
					<clipPath id="SVGID_2_">
						<use xlink:href="#SVGID_1_"  style="overflow:visible;"/>
					</clipPath>
					<rect id="rect2414_2_" x="-30.4259" y="-0.2126" class="st0" width="120.8518" height="60.4256"/>
				</g>
			</g>
		</g>
	</g>
	<g>
		<g>
			<g>
				<g>
					<defs>
						<circle id="SVGID_3_" cx="30" cy="30" r="30"/>
					</defs>
					<clipPath id="SVGID_4_">
						<use xlink:href="#SVGID_3_"  style="overflow:visible;"/>
					</clipPath>
					<rect id="rect124_2_" x="-30.4259" y="-0.2126" class="st1" width="60.4259" height="30.2127"/>
				</g>
			</g>
		</g>
	</g>
	<g>
		<g>
			<g>
				<g>
					<defs>
						<circle id="SVGID_5_" cx="30" cy="30" r="30"/>
					</defs>
					<clipPath id="SVGID_6_">
						<use xlink:href="#SVGID_5_"  style="overflow:visible;"/>
					</clipPath>
					<path id="path146_2_" class="st2" d="M-30.4259-0.2126v3.3771L23.2445,30H30v-3.3775L-23.6704-0.2126H-30.4259z M30-0.2126
						v3.3771L-23.6704,30h-6.7555v-3.3775L23.2445-0.2126H30z"/>
				</g>
			</g>
		</g>
	</g>
	<g>
		<g>
			<g>
				<g>
					<defs>
						<circle id="SVGID_7_" cx="30" cy="30" r="30"/>
					</defs>
					<clipPath id="SVGID_8_">
						<use xlink:href="#SVGID_7_"  style="overflow:visible;"/>
					</clipPath>
					<path id="path136_2_" class="st3" d="M-5.2483-0.2126v30.2127h10.071V-0.2126H-5.2483z M-30.4259,9.8578v10.0709H30V9.8578
						H-30.4259z"/>
				</g>
			</g>
		</g>
	</g>
	<g>
		<g>
			<g>
				<g>
					<defs>
						<circle id="SVGID_9_" cx="30" cy="30" r="30"/>
					</defs>
					<clipPath id="SVGID_10_">
						<use xlink:href="#SVGID_9_"  style="overflow:visible;"/>
					</clipPath>
					<path id="path141_2_" class="st4" d="M-30.4259,11.8722v6.0424H30v-6.0424H-30.4259z M-3.234-0.2126v30.2127h6.0422V-0.2126
						H-3.234z"/>
				</g>
			</g>
		</g>
	</g>
	<g>
		<g>
			<g>
				<g>
					<defs>
						<circle id="SVGID_11_" cx="30" cy="30" r="30"/>
					</defs>
					<clipPath id="SVGID_12_">
						<use xlink:href="#SVGID_11_"  style="overflow:visible;"/>
					</clipPath>
					<path id="path150_2_" class="st5" d="M-30.4259,30.0001l20.1421-10.0714h4.5037l-20.1418,10.0714H-30.4259z M-30.4259-0.2126
						l20.1421,10.0704h-4.5037l-15.6384-7.8185V-0.2126z M5.3542,9.8578L25.4963-0.2126H30L9.8579,9.8578H5.3542z M30,30.0001
						L9.8579,19.9286h4.504L30,27.748V30.0001z"/>
				</g>
			</g>
		</g>
	</g>
</g>
<g id="g3684" transform="matrix(4.166406,0,0,4.166869,-666.166,-2413.139)">
	<g id="g50">
		<path id="path52" class="st6" d="M171.9851,588.2559c-0.0033,1.1588-0.1861,2.4073-1.6862,3.002
			c-1.5001-0.5947-1.683-1.8431-1.6862-3.002H171.9851z"/>
	</g>
	<g id="g54">
		<path id="path56" class="st7" d="M170.2989,591.2578c0.68-0.2696,1.0894-0.6736,1.3339-1.1427
			c-0.0366,0.0015-0.1133-0.0007-0.1465-0.0031c-0.0369-0.0024-1.4383-0.1431-1.6043-0.204
			c-0.1444-0.0529-0.6953,0.045-0.9524,0.1369C169.1696,590.5438,169.5851,590.9749,170.2989,591.2578z"/>
	</g>
	<g id="g58">
		<path id="path60" class="st8" d="M169.2506,590.5394c0.0229-0.0074,0.0667-0.0057,0.0839-0.0026
			c0.0203,0.0037,0.024,0.0056,0.0314-0.0166c0.0074-0.0221,0.024-0.0166,0.0369-0.0055c0.0129,0.011,0.0461,0.0055,0.059-0.0129
			c0.0129-0.0184,0.0166-0.0165,0.0295-0.0037c0.0129,0.0129,0.0184,0.0092,0.0314,0.0055c0.0129-0.0036,0.035-0.0184,0.0461-0.0386
			c0.0111-0.0203,0.0276-0.0277,0.0368-0.0166c0.0092,0.011,0.0184,0.0166,0.0314,0.0147c0.0129-0.0018,0.0166,0.0111,0.0148,0.0276
			c-0.0018,0.0166,0.0055,0.0203,0.0369-0.0055c0.0277,0.0276,0.0368,0.0165,0.0368-0.0129c0-0.0295-0.0073-0.1383-0.0184-0.1531
			c-0.0111-0.0148-0.0221-0.0572-0.024-0.0904c-0.0035-0.0627-0.0037-0.0663-0.0793-0.1051c0-0.0221-0.0055-0.0314-0.059-0.0276
			c0.0018-0.0074-0.0074-0.0295-0.0184-0.0388s-0.0129-0.0129-0.0074-0.0386c0.0221,0.0018,0.0461-0.0019,0.059-0.0203
			c0.0128-0.0184,0.0553-0.0148,0.0811-0.0037c0.0258,0.011,0.059,0.0129,0.1088,0.0055c0.0184-0.0147,0.0498-0.0313,0.083-0.0498
			c0.0331-0.0184,0.0424-0.0258,0.0442-0.0516c0.0048-0.0662-0.0184-0.142-0.0369-0.1769
			c-0.0184-0.0351-0.0239-0.0793-0.0497-0.1347c-0.0281-0.0602-0.0277-0.0756-0.059-0.1124
			c-0.0086-0.0102-0.0184-0.0185-0.0203-0.0387c-0.0018-0.0203-0.0092-0.048-0.0313-0.0682
			c-0.0558-0.0512-0.0775-0.2158-0.0996-0.3375c-0.0127-0.0698-0.0037-0.2342-0.0331-0.26
			c-0.0498-0.0406-0.0738-0.0332-0.107-0.0461c-0.024-0.0332-0.035-0.0995-0.0571-0.1586c-0.035,0.0056-0.059,0.0425-0.083,0.0554
			c-0.024,0.0129-0.0277,0.0129-0.0277,0.0461c0,0.0331-0.0184,0.0792-0.0516,0.1309c-0.0332,0.0516-0.0886,0.0369-0.1346,0.1143
			c-0.1015-0.1235-0.1033-0.1586-0.1107-0.1936c-0.0074-0.035-0.024-0.0424-0.0811-0.0922c0-0.0148-0.0074-0.0737-0.0018-0.1069
			c-0.0424-0.035-0.0738-0.0295-0.094-0.0037c-0.0203,0.0259-0.035,0.0645-0.0664,0.0793c-0.0188,0.0239-0.0755,0.0842-0.1219,0.156
			C168.6703,589.3929,168.8151,590.0299,169.2506,590.5394z"/>
	</g>
	<g id="g62">
		<path id="path64" class="st9" d="M171.9851,588.2559c0.0013-0.4365-0.023-0.8604-0.0119-1.2317
			c-0.5605-0.2509-1.2981-0.3024-1.6742-0.3024c-0.3762,0-1.1138,0.0516-1.6743,0.3024c0.0111,0.3713-0.0131,0.7952-0.0119,1.2317
			H171.9851z"/>
	</g>
	<g id="g66">
		<path id="path68" class="st10" d="M168.7039,588.7611c0.0184,0.0295,0.0517,0.0803,0.0553,0.1078
			c0.0129-0.0267,0.0231-0.0386,0.0258-0.0552c0.0028-0.0166,0.0221-0.0489,0.0148-0.0665
			c-0.0074-0.0175-0.0129-0.0313,0.0074-0.0184c0.0202,0.0129,0.0163,0.0353,0.0119,0.0683
			c-0.0119,0.0903-0.0497,0.1088-0.0553,0.1696c0.0544,0.1282,0.0138,0.1743,0.0728,0.2996
			c0.0092,0.0056,0.0338-0.0043,0.0412-0.0024c0.0313-0.0222,0.0547-0.0142,0.0989-0.0049
			c0.0443,0.0092,0.0683,0.0405,0.0683,0.0682c0,0.0276,0,0.035,0.0092,0.0516c0.0092,0.0166,0.0277,0.0424,0.024,0.0609
			s0.0037,0.0295,0.0092,0.0387c0.0055,0.0092-0.0018,0.0295-0.0074,0.0424c-0.0055,0.0129-0.0037,0.0295,0.0184,0.0572
			c0.0221,0.0276,0.0737,0.1439,0.0737,0.212c0,0.0682,0.0037,0.0996,0.0314,0.1124c0.0277,0.0129,0.0369,0.024,0.0332,0.0535
			c-0.0037,0.0295,0.0129,0.1826,0.0166,0.2065s0.0129,0.0184,0.024,0.0314c0.011,0.0128,0.0184,0.0276,0.0553,0.0276
			s0.0725-0.0049,0.0965-0.0012c0.0332,0.0461,0.0535,0.1088,0.0609,0.1475c0.0074,0.0388,0.0067,0.0916,0.0197,0.0916
			s0.0258,0.0018,0.0221-0.0461c-0.0037-0.048-0.0074-0.0553-0.024-0.0792c-0.0166-0.024-0.0258-0.035-0.0166-0.0498
			c0.0092-0.0148,0.0111-0.0388,0.0074-0.0572c-0.0037-0.0185-0.0092-0.0461,0.0221-0.0092
			c0.0314,0.0369,0.0406,0.0461,0.0498,0.059c0.0092,0.0129,0.0128,0.0369,0.0111,0.059c-0.0018,0.0221,0.0018,0.0313,0.0147,0.0202
			c0.0129-0.011,0.0295,0.0074,0.0221,0.0314c-0.0074,0.024,0.0018,0.0388,0.024,0.0461s0.0314,0.0129,0.0369,0.0295
			s0.024,0.0239,0.024-0.0092c0-0.0332-0.0129-0.1033-0.0221-0.1254c-0.0092-0.0222-0.0166-0.0701-0.0184-0.0978
			c-0.0018-0.0276-0.0074-0.035-0.0203-0.0405c-0.0129-0.0055-0.024-0.0147-0.0258-0.0276
			c-0.0018-0.0129-0.0129-0.0175-0.0212-0.0175s-0.0156-0.0065-0.0202-0.0157s-0.0092-0.0101-0.0184-0.011
			c-0.0092-0.001-0.024,0.0046-0.0286-0.0102c-0.0046-0.0147-0.0111-0.0359-0.0203-0.0479
			c-0.0092-0.012-0.0175-0.0157-0.0184-0.0571c-0.0009-0.0415-0.0018-0.0471-0.0148-0.0618c-0.0129-0.0148-0.035-0.0534-0.0443-0.07
			c-0.0092-0.0166-0.0184-0.0332-0.0184,0.0018c0,0.035,0,0.0534,0.0221,0.0663c0.0221,0.0129,0.0277,0.0129,0.0184,0.0314
			c-0.0092,0.0184,0,0.0314,0.0037,0.0443c0.0037,0.0129,0.0111,0.0258,0,0.0387c-0.0111,0.0129-0.0221,0.0092-0.0203-0.011
			s-0.0055-0.0443-0.0147-0.0609c-0.0092-0.0166-0.0166-0.0276-0.0277-0.0184c-0.0111,0.0092-0.0203-0.0018-0.0129-0.0092
			c0.0074-0.0074,0.0055-0.0129,0-0.0185c-0.0055-0.0055-0.0074-0.011,0.0018-0.0221c0.0092-0.0111,0.0092-0.0166,0.0037-0.0424
			c-0.0055-0.0258-0.0461-0.1549-0.0646-0.1844c-0.0185-0.0295-0.0166-0.0516,0.0074-0.0221
			c0.024,0.0295,0.0443,0.0553,0.0461,0.0792c0.0018,0.024,0.0074,0.0388,0.0148,0.048s0.0129,0.0056,0.0166-0.0148
			c0.0037-0.0203,0.0184-0.0129-0.0074-0.0516c-0.0258-0.0388-0.0738-0.1033-0.0922-0.2195s-0.0258-0.1936-0.0443-0.2249
			c-0.0184-0.0314-0.0239-0.0388-0.0258-0.0682c-0.0018-0.0295,0-0.059-0.0129-0.0811c-0.0129-0.0222-0.0221-0.0258-0.024,0.0074
			c-0.0018,0.0331,0.0018,0.1069,0.0111,0.1199c0.0092,0.0129,0.0037,0.046,0.0018,0.0645s-0.0309,0.0367,0.0295,0.0738
			c0.024,0.0148,0.0202,0.0351,0.0166,0.048c-0.0037,0.0129-0.0074,0.011-0.0203-0.0092c-0.0129-0.0203-0.0258-0.0369-0.0387-0.048
			c-0.0129-0.011-0.0148-0.0184-0.0129-0.0443s0.0074-0.0443,0-0.0535c-0.0074-0.0092-0.0111-0.0018-0.0148,0.0129
			c-0.0037,0.0148-0.0074,0.0554-0.0148,0.0664c-0.0074,0.011-0.0111,0.0037-0.0166-0.0203s0.0018-0.0608,0.0148-0.1032
			s0.0203-0.0867,0.0092-0.142c-0.0111-0.0554-0.0055-0.072-0.048-0.118c-0.0424-0.0461-0.0903-0.0904-0.1106-0.1475
			c-0.0203-0.0572-0.024-0.107-0.0461-0.1329c-0.0221-0.0258-0.0534-0.059-0.0737-0.0682c0-0.0443,0-0.0646,0-0.0848
			c0-0.0203-0.0092-0.0332-0.0332-0.0295c-0.024,0.0037-0.0387,0.024-0.0534,0.0516c-0.0148,0.0276-0.0258,0.0147-0.0461,0.0627
			S168.7039,588.7095,168.7039,588.7611z"/>
	</g>
	<g id="g70">
		<path id="path72" class="st10" d="M168.8366,589.3014c0.0148,0.0092,0.0289,0.0154,0.051,0.0043
			c0.0221-0.011,0.0486-0.043,0.0781-0.0116c0.0294,0.0313,0.0461,0.0829,0.0461,0.1235c0,0.0405,0,0.1161,0.0461,0.1586
			c0.0461,0.0424,0.07,0.0866,0.0719,0.142c0.0018,0.0553,0.0221,0.1401,0.0277,0.1623c0.0055,0.022,0.0184,0.0479,0.0332,0.0626
			c0.0148,0.0148,0.0258,0.0572,0.0277,0.1014s-0.0055,0.0756,0,0.0978c0.0055,0.0221,0,0.0406-0.0166,0.0295
			c-0.0166-0.011-0.0203-0.0166-0.0295-0.035c-0.0092-0.0184-0.0203-0.0148-0.0111,0.0129
			c0.0092,0.0277,0.0369,0.0535,0.0609,0.0535c0.024,0,0.0314,0.0037,0.0461,0.0184c0.0147,0.0148,0.0165,0.0222,0.0424,0.0222
			s0.0295,0,0.0535,0.0074c0.024,0.0074,0.024,0.0037,0.0369,0c0.0129-0.0037,0.0258,0.0074,0.035,0.0313
			c0.0092,0.024,0.0314,0.0903,0.0314,0.1088c0,0.0184,0,0.0369,0.0129,0.0553c0.0129,0.0185,0.0092,0.0369-0.0055,0.0259
			c-0.0148-0.0111-0.0148-0.0074-0.0258-0.0056c-0.0111,0.0018-0.0184-0.0037-0.0331-0.0129
			c-0.0148-0.0092-0.0055-0.0074-0.0203-0.0295c-0.0148-0.0222-0.024-0.0295-0.024-0.0129s-0.0018,0.0369-0.0129,0.0277
			c-0.0111-0.0093-0.0166-0.0093-0.0258,0c-0.0092,0.0092-0.0129,0.0166-0.024-0.0019c-0.0111-0.0184-0.024-0.0184-0.035-0.0221
			c-0.0111-0.0037-0.0111-0.0037-0.0165-0.0203c-0.0055-0.0166-0.0221-0.0203-0.0369-0.0203c-0.0148,0-0.0221-0.0074-0.024-0.0185
			c-0.0018-0.011-0.0111-0.0184-0.0184-0.0239c-0.0074-0.0056-0.0037-0.0185-0.0055-0.0314
			c-0.0018-0.0129-0.0129-0.0074-0.0203-0.0111c-0.0074-0.0037-0.0129-0.0018-0.0129-0.0203s-0.0074-0.024-0.0129-0.0369
			c-0.0055-0.0129,0-0.0258,0.0037-0.0405c0.0037-0.0148,0.0018-0.024-0.0091-0.0369c-0.0111-0.0129-0.0018-0.0258-0.0314-0.0516
			c-0.0295-0.0258-0.0443-0.0037-0.0535-0.0645c-0.0092-0.0609-0.0277-0.1863-0.0443-0.2065
			c-0.0166-0.0203-0.0276-0.035-0.0442-0.0406s-0.0277-0.0018-0.0295-0.0369c-0.0018-0.035-0.0129-0.0792-0.035-0.1014
			c-0.0221-0.0221-0.0314-0.0295-0.0424-0.0387c-0.0111-0.0093-0.0148-0.0259,0-0.0571c0.0148-0.0314,0.0092-0.0738,0.0074-0.0941
			c-0.0018-0.0202-0.0074-0.046-0.0037-0.0682s0.0018-0.0498-0.0037-0.0646S168.8274,589.3124,168.8366,589.3014z"/>
	</g>
	<g id="g74">
		<path id="path76" class="st10" d="M169.281,588.7771c-0.025,0.0321-0.0516,0.059-0.086,0.0836
			c-0.0344,0.0247-0.0787,0.0443-0.0541,0.0861c0.0246,0.0418,0.0443,0.0468,0.0492,0.0787c0.005,0.0319,0.0123,0.059,0.0369,0.0664
			c0.0246,0.0073,0.0344,0.0024,0.0344,0.054c0,0.0517,0,0.0714,0.0221,0.091c0.0221,0.0197,0.0197,0.0393,0.0295,0.0861
			c0.0098,0.0467,0.0098,0.1475,0.0393,0.2163c0.0295,0.0688,0.0959,0.1992,0.0885,0.2263
			c-0.0074,0.027-0.0172,0.0467,0.0123,0.0786c0.0295,0.032,0.0492,0.0787,0.0517,0.1057c0.0024,0.0271,0.0074,0.0369,0.0368,0.0271
			c0.0295-0.0099,0.0443-0.0197,0.0541-0.032c0.0098-0.0123,0.0294-0.0098,0.0565,0.0049c0.027,0.0148,0.0688,0.0295,0.0934,0.0148
			c0.0246-0.0148,0.0369-0.0369,0.059-0.0369c0.0344-0.0246,0.0467-0.0762,0.0541-0.0909c0.0074-0.0148,0.0025-0.0148-0.0123-0.0295
			s-0.0074-0.0394-0.0099-0.0639c-0.0024-0.0247-0.0123-0.0615-0.0418-0.1156c-0.0294-0.0541-0.0467-0.1205-0.0663-0.1376
			c-0.0197-0.0173-0.0295-0.059-0.032-0.0787c-0.0024-0.0197-0.0246-0.0369-0.0393-0.0517
			c-0.0148-0.0146-0.0295-0.0368-0.0467-0.1229c-0.0172-0.0861-0.0295-0.1475-0.0295-0.1623s-0.0025-0.0172-0.0172-0.0222
			c-0.0148-0.0049-0.0221-0.0295-0.0172-0.0417c0.0049-0.0123-0.005-0.0246-0.0099-0.0393c-0.0049-0.0148,0-0.0418,0.0099-0.0566
			c0.0098-0.0148,0.0074-0.0565-0.0025-0.0909c-0.0099-0.0344-0.0197-0.064-0.059-0.0689
			c-0.0393-0.0049-0.0467-0.0147-0.0614-0.0467c-0.0148-0.0319-0.0295-0.0885-0.0344-0.1008
			c-0.0049-0.0123-0.0123-0.0148-0.0418,0.0099c-0.0295,0.0245-0.0393,0.0327-0.0393,0.0787c0,0.0295,0.0049,0.0393,0.0147,0.0565
			c0.0099,0.0172,0.0123,0.0222,0.0197,0.0688c0.0074,0.0467,0.0492,0.1205-0.005,0.1623
			c-0.0541,0.0418-0.0467,0.0516-0.0442,0.0811c0.0024,0.0295-0.0148,0.0491-0.0246,0.0073c-0.0098-0.0417,0-0.0663,0.0295-0.086
			c0.0295-0.0197,0.0565-0.0443,0.0369-0.0713c-0.0197-0.027-0.027-0.0909-0.0295-0.1205
			C169.3031,588.7648,169.2982,588.7549,169.281,588.7771z"/>
	</g>
	<g id="g78">
		<path id="path80" class="st11" d="M168.843,589.404c-0.0014,0.02,0.0031,0.042,0.0047,0.0596
			c0.0018,0.0203,0.0074,0.0627-0.0074,0.0941c-0.0148,0.0313-0.0111,0.0479,0,0.0571c0.0006,0.0005,0.0012,0.001,0.0018,0.0015
			c0.0301-0.0101,0.034-0.0436,0.0259-0.0599c-0.0086-0.0172-0.0061-0.0381,0.0037-0.0553c0.0099-0.0172,0.0099-0.027,0.0013-0.0394
			c-0.0087-0.0123-0.0087-0.0123,0.0012-0.0467C168.8828,589.3848,168.8609,589.385,168.843,589.404z"/>
	</g>
	<g id="g82">
		<path id="path84" class="st11" d="M169.1575,589.8804c-0.0055-0.0222-0.0258-0.107-0.0277-0.1623
			c-0.0018-0.0554-0.0258-0.0996-0.0719-0.142c-0.036-0.0331-0.0439-0.0864-0.0455-0.1274c-0.027-0.0165-0.0385-0.009-0.0362,0.0217
			c0.0024,0.0331,0.0356,0.0491,0.0307,0.097c-0.0049,0.048-0.0049,0.0357,0.0184,0.059c0.0233,0.0234,0.0319,0.0455,0.0197,0.0554
			c-0.0123,0.0098-0.0136,0.027,0.0037,0.0331c0.0172,0.0062,0.0184,0.0246,0.016,0.0418
			c-0.0025,0.0172,0.0135,0.0209,0.0233,0.0332c0.0099,0.0123,0.0111,0.0418,0.0013,0.059
			c-0.0099,0.0172-0.0111,0.0442,0.0061,0.0295c0.0172-0.0148,0.0246-0.0013,0.0381,0.022
			c0.0117,0.0201,0.0215,0.0139,0.0342,0.0078C169.1633,589.8991,169.1597,589.8894,169.1575,589.8804z"/>
	</g>
	<g id="g86">
		<path id="path88" class="st11" d="M169.3972,590.3101c-0.0111,0.0222-0.024,0.0148-0.0351,0.0037
			c-0.0111-0.011-0.024-0.011-0.0184-0.0314c0.0055-0.0203,0.0037-0.0239-0.0111-0.035c-0.0017-0.0013-0.0034-0.0024-0.0051-0.0035
			c-0.0046-0.0001-0.01-0.0001-0.017-0.0001c-0.0258,0-0.0277-0.0074-0.0424-0.0222c-0.0033-0.0032-0.0062-0.006-0.0091-0.0082
			c-0.0003,0.0035-0.0001,0.0082-0.0001,0.0138c0,0.0203,0,0.0166-0.0203,0.0221c-0.0203,0.0056-0.0166-0.0203-0.0203-0.0369
			c-0.001-0.0043-0.0021-0.0074-0.0032-0.0099c-0.0222-0.0043-0.0456-0.0276-0.054-0.0527
			c-0.0092-0.0276,0.0018-0.0313,0.0111-0.0129c0.0092,0.0184,0.0129,0.024,0.0295,0.035c0.0166,0.0111,0.0221-0.0074,0.0166-0.0295
			c-0.0018-0.0071-0.0022-0.0154-0.002-0.0245c-0.004-0.0071-0.0094-0.0129-0.0164-0.0161
			c-0.0295-0.0129-0.0203-0.0166-0.0184-0.0406c0.0018-0.0239-0.0037-0.0239-0.0221-0.0111
			c-0.0184,0.0129-0.0203-0.0018-0.0203-0.0386c0-0.0369-0.024-0.0369-0.0294-0.0111c-0.0055,0.0258-0.0148,0.0092-0.0258-0.0276
			c-0.0111-0.0369-0.0258-0.0461-0.0277-0.011c-0.0016,0.0297-0.0098,0.0367-0.0291,0.0203
			c0.0034,0.0214,0.0064,0.0414,0.0088,0.0572c0.0092,0.0608,0.024,0.0387,0.0535,0.0645c0.0295,0.0258,0.0203,0.0388,0.0314,0.0516
			c0.011,0.0129,0.0128,0.0222,0.0091,0.0369c-0.0037,0.0146-0.0091,0.0276-0.0037,0.0405
			c0.0055,0.0129,0.0129,0.0185,0.0129,0.0369s0.0055,0.0166,0.0129,0.0203c0.0046,0.0023,0.0106,0.001,0.0149,0.0029
			c0.0047-0.0062,0.0091-0.0139,0.0146-0.0195c0.0221-0.0221,0.0553,0.0019,0.0664,0.0295c0.0111,0.0276,0.0239,0.035,0.0405,0.0129
			c0.0166-0.0222,0.0111-0.0185,0.0295,0.0018c0.0184,0.0203,0.0258,0.0166,0.0258,0.0166s0.0184-0.0074,0.0314,0.0037
			c0.0129,0.0111,0.0203,0.0092,0.0442-0.0258C169.4433,590.2769,169.4083,590.2879,169.3972,590.3101z"/>
	</g>
	<g id="g90">
		<path id="path92" class="st11" d="M169.463,589.2983c0.0073-0.0541,0.0024-0.1082,0.0246-0.1279
			c0.0221-0.0197,0.0492-0.059,0.0467,0.0246c-0.0024,0.0836-0.0049,0.0787-0.0221,0.0983
			c-0.0172,0.0197-0.032,0.0246-0.0148,0.0566c0.0172,0.0319,0.0197,0.0344,0.0172,0.0836
			c-0.0024,0.0492-0.0024,0.0688,0.0172,0.0934s0.0246,0.027,0.0295,0.0541c0.0049,0.027,0.0221,0.064,0.0442,0.0836
			s0.0468,0.0762,0.0492,0.1155c0.0025,0.0393,0.0369,0.0492,0.0688,0.0762c0.032,0.027-0.0073,0.0467-0.0319,0.0344
			c-0.0246-0.0123-0.0148,0-0.0295,0.0172c-0.0148,0.0173-0.0197,0.0197-0.0319-0.0098c-0.0123-0.0295-0.0541-0.0492-0.0738-0.0566
			c-0.0197-0.0074-0.0368-0.0394-0.0541-0.0713c-0.0148-0.0275-0.044-0.0475-0.0707-0.0496
			c0.0074,0.0208,0.0114,0.037,0.0092,0.0447c-0.0074,0.027-0.0172,0.0467,0.0123,0.0786c0.0295,0.032,0.0492,0.0787,0.0517,0.1057
			c0.0024,0.0271,0.0074,0.0369,0.0368,0.0271c0.0295-0.0099,0.0443-0.0197,0.0541-0.032c0.0098-0.0123,0.0294-0.0098,0.0565,0.0049
			c0.027,0.0148,0.0688,0.0295,0.0934,0.0148c0.0246-0.0148,0.0369-0.0369,0.059-0.0369c0.0344-0.0246,0.0467-0.0762,0.0541-0.0909
			c0.0074-0.0148,0.0025-0.0148-0.0123-0.0295s-0.0074-0.0394-0.0099-0.0639c-0.0024-0.0247-0.0123-0.0615-0.0418-0.1156
			c-0.0294-0.0541-0.0467-0.1205-0.0663-0.1376c-0.0197-0.0173-0.0295-0.059-0.032-0.0787
			c-0.0024-0.0197-0.0246-0.0369-0.0393-0.0517c-0.0148-0.0146-0.0295-0.0368-0.0467-0.1229
			c-0.0135-0.0673-0.0239-0.1194-0.0278-0.1461c-0.0177,0.0282-0.0297,0.035-0.0361,0.0157
			c-0.0074-0.022-0.0172-0.0344-0.027-0.0197c-0.0099,0.0148-0.0123-0.0123-0.0123-0.0245c0-0.0123-0.0024-0.0148-0.0148-0.0148
			c-0.0123,0-0.0024-0.0197-0.0074-0.0565c-0.0049-0.0369-0.0123-0.0418-0.0172,0.0024s-0.0295,0.0713-0.0197,0.0811
			c0.0098,0.0099,0.0049,0.0295-0.005,0.059c-0.0098,0.0295-0.0049,0.0467,0.0025,0.0663c0.0074,0.0197-0.0049,0.0566-0.0099,0.0886
			C169.431,589.3204,169.4556,589.3524,169.463,589.2983z"/>
	</g>
	<g id="g94">
		<path id="path96" class="st11" d="M169.0136,588.8564c-0.0182,0.0014-0.0307,0.0173-0.0203,0.0732
			c0.0065,0.0345-0.0197,0.027-0.0294,0.0098c-0.0099-0.0172-0.0172-0.054-0.0369-0.0861
			c-0.0197-0.0319-0.0099,0.0222-0.0123,0.0517c-0.0025,0.0295,0.0172,0.0295,0.0344,0.054
			c0.0172,0.0247,0.0024,0.0345-0.0172,0.0345s-0.0098,0.0393-0.0049,0.0663c0.0049,0.027-0.0049,0.032-0.0197,0.0099
			c-0.0147-0.0222-0.0049-0.0566-0.0024-0.0983c0.0024-0.0418,0.0049-0.032-0.0221-0.0418
			c-0.027-0.0099-0.0221-0.0148-0.0123-0.0394c0.0098-0.0245,0.0197-0.0369,0.0074-0.0492
			c-0.0123-0.0123-0.0099-0.0197,0.0098-0.0222c0.0197-0.0024,0.0123-0.0172,0.0295-0.0221
			c0.0172-0.0049,0.0246,0.0024,0.027-0.0295c0.0021-0.0267,0.011-0.043,0.031-0.035
			C168.9872,588.7734,169.0029,588.8373,169.0136,588.8564z"/>
	</g>
	<g id="g98">
		<path id="path100" class="st11" d="M169.2614,589.1459c0,0.0517,0,0.0714,0.0221,0.091c0.0221,0.0197,0.0197,0.0393,0.0295,0.0861
			c0.0098,0.0467,0.0098,0.1475,0.0393,0.2163c0.0088,0.0205,0.0209,0.0466,0.0333,0.0737
			c0.0163-0.0128,0.0305-0.0349,0.0356-0.0466c0.0073-0.0172-0.0148-0.0516-0.032-0.0811
			c-0.0172-0.0295,0.0025-0.0394,0.0197-0.0763c0.0172-0.0368-0.0024-0.0393-0.0294-0.0492
			c-0.0271-0.0098-0.0271-0.0344-0.0419-0.0737s-0.0123-0.0565-0.0024-0.0787c0.0098-0.0221,0.0024-0.0393-0.0172-0.0443
			c-0.0197-0.0049-0.0148-0.0197-0.0074-0.0442c0.0074-0.0247,0.0123-0.0295-0.0172-0.0222
			c-0.0224,0.0056-0.0277,0.0097-0.0344,0.0178C169.2606,589.1216,169.2614,589.1315,169.2614,589.1459z"/>
	</g>
	<g id="g102">
		<path id="path104" class="st8" d="M169.5441,589.2491c-0.0027,0.0295-0.0025,0.0443-0.0099,0.0541
			c-0.0073,0.0098-0.0024,0.0246,0.005,0.0394c0.0074,0.0148,0.0123,0.0344,0.0049,0.0615s0.0049,0.0491,0.0197,0.0565
			s0.0221,0,0.0172,0.0344c-0.005,0.0344,0.0148,0.0713,0.0319,0.0861c0.0172,0.0148,0.0295,0.0393,0.027,0.0541
			c-0.0024,0.0148,0.0123,0.0295,0.0295,0.0369c0.0172,0.0073,0.0148,0.0098,0.0148,0.0197s0.0074,0.0098,0.027,0.0147
			c0.0197,0.0049,0.0344,0.0173,0.0565,0.0443s0.0541,0.0417,0.0492,0.0123c-0.0049-0.0295,0-0.0492-0.0295-0.064
			c-0.0294-0.0147-0.0516-0.0861-0.0639-0.1352c-0.0123-0.0492-0.0516-0.1155-0.0737-0.1278
			c-0.0025-0.0345,0.0025-0.0516-0.0197-0.0689c-0.0221-0.0172-0.0295-0.0393-0.0295-0.0565s-0.0123-0.0393-0.0221-0.0443
			c-0.0098-0.0049-0.0148-0.0172-0.0148-0.032S169.5466,589.2221,169.5441,589.2491z"/>
	</g>
	<g id="g106">
		<path id="path108" class="st12" d="M169.4138,590.5682c0.0442-0.0037,0.1641-0.0388,0.177-0.0498
			c0.0295,0.0203,0.0812,0.048,0.1033,0.048c-0.0424,0.0092-0.0701,0.0037-0.0812-0.0037c0.0055,0.0129,0.0203,0.0333,0.0295,0.0351
			c-0.0406-0.0018-0.0866-0.0111-0.1014-0.0258C169.506,590.5866,169.447,590.5903,169.4138,590.5682z"/>
	</g>
	<g id="g110">
		<path id="path112" class="st12" d="M169.4931,590.6235c0.0157,0.0046,0.094,0.0175,0.1042,0.0175
			c-0.0258,0.0221-0.0037,0.0433,0.0397,0.0396c-0.0212,0.0027-0.0443,0.0107-0.0286,0.0138
			c0.0378,0.0074,0.1401-0.0203,0.1604-0.0313C169.7337,590.7083,169.5632,590.7498,169.4931,590.6235z"/>
	</g>
	<g id="g114">
		<path id="path116" class="st12" d="M169.5632,590.736c0.0211-0.011,0.0737-0.0073,0.0986,0.0046
			C169.6341,590.7507,169.5798,590.7507,169.5632,590.736z"/>
	</g>
	<g id="g118">
		<path id="path120" d="M169.6424,590.7341c0.0378-0.0065,0.1447,0.0194,0.1826-0.0037c-0.0129,0.0341-0.0802,0.0388-0.1033,0.0314
			c-0.023-0.0074-0.0451-0.0166-0.0608-0.0157C169.6692,590.7415,169.6554,590.7406,169.6424,590.7341z"/>
	</g>
	<g id="g122">
		<path id="path124" class="st12" d="M169.6812,590.7867c0.0286,0.0045,0.1309-0.0083,0.1623-0.0203
			c0.0331,0.0111,0.0986,0.0286,0.1134,0.0267c-0.0314,0.0194-0.0913,0.0083-0.1106,0
			C169.7909,590.8116,169.7457,590.8171,169.6812,590.7867z"/>
	</g>
	<g id="g126">
		<path id="path128" class="st12" d="M169.7301,590.804c0.0409,0.0092,0.0759,0.0026,0.1161-0.0109
			c0.0126,0.0054,0.0421,0.012,0.07,0.0107c0.0185,0.0106,0.0434,0.0253,0.0674,0.0272c-0.0249,0.0101-0.1162,0-0.1346-0.0101
			c-0.0461,0.0009-0.1254,0.011-0.1447,0.0267C169.7033,590.8346,169.7117,590.8167,169.7301,590.804z"/>
	</g>
	<g id="g130">
		<path id="path132" d="M169.6812,590.5959c0.0319,0.0106,0.1475,0.0055,0.2065-0.0222c0.0233-0.0109,0.0377,0.0074,0.0111,0.0166
			c-0.0959,0.0332-0.1715,0.0461-0.2268,0.0166C169.6501,590.5953,169.648,590.5848,169.6812,590.5959z"/>
	</g>
	<g id="g134">
		<path id="path136" class="st12" d="M170.2473,590.4391c-0.142,0.0663-0.2361,0.0866-0.4333,0.0258
			c-0.0184-0.0057-0.0314,0-0.0111,0.0129s0.1291,0.0424,0.1549,0.0443c0.0258,0.0018,0.0166,0.0138,0.0009,0.0184
			c-0.0157,0.0046-0.0203,0.0157,0.0009,0.0074s0.1397-0.0114,0.1881,0.0138c0.0211,0.0111,0.0267,0.0092,0.0248,0.0009
			s0.0092-0.0138,0.0249-0.0156c0.0157-0.0019,0.0249-0.0074,0.0129-0.012c-0.012-0.0046-0.0138-0.0074-0.0046-0.012
			c0.0092-0.0046,0.0101-0.0093-0.0037-0.012s-0.0231-0.0065-0.0101-0.0129c0.0129-0.0064,0.0323-0.0111,0.047-0.0129
			C170.2426,590.4751,170.2362,590.4484,170.2473,590.4391z"/>
	</g>
	<g id="g138">
		<path id="path140" d="M170.0112,590.4557c0.0812,0.0057,0.2305-0.0314,0.3098-0.1088c0.0276,0.0165,0.0663,0.035,0.0866,0.0387
			s0.0387,0.0222,0.0074,0.0222c-0.0314,0-0.0756-0.0129-0.0959-0.0222c-0.1052,0.0646-0.2282,0.0858-0.3062,0.0793
			C169.991,590.4631,169.9854,590.4539,170.0112,590.4557z"/>
	</g>
	<g id="g142">
		<path id="path144" class="st12" d="M169.7715,590.0132c0.0277,0.0193,0.0766,0.0516,0.1401,0.047
			c0.0314,0.0249,0.0802,0.0461,0.1024,0.0507c-0.0424,0.0175-0.0886,0.0323-0.1006,0.0461
			c-0.0194-0.0184-0.0442-0.0157-0.0507-0.0249c-0.0184,0.0148-0.0157,0.024-0.0037,0.0314
			c0.012,0.0074,0.1051,0.0231,0.1281,0.0166c0.0231-0.0065,0.0292,0.0126,0.0101,0.0193
			c-0.0498,0.0175-0.1466,0.0009-0.1798-0.0525c-0.0332-0.0535-0.0618-0.0738-0.1521-0.0249
			c-0.0101-0.0258-0.0101-0.0323-0.0277-0.0323s-0.0498-0.0231-0.0249-0.0222
			C169.6378,590.0685,169.7116,590.0574,169.7715,590.0132z"/>
	</g>
	<g id="g146">
		<path id="path148" class="st12" d="M169.7936,590.1321c-0.0154,0.0038-0.059,0.0277-0.0746,0.0295
			c-0.0157,0.0018-0.0434,0.024-0.0148,0.0249c0.0285,0.0009,0.0654-0.0305,0.0857-0.0332S169.8121,590.1275,169.7936,590.1321z"/>
	</g>
	<g id="g150">
		<path id="path152" class="st12" d="M169.8831,590.2252c-0.0109,0.0019-0.058,0.0129-0.071,0.012
			c-0.0129-0.0009-0.0258,0.0027-0.0249,0.012c0.0009,0.0093,0.0046,0.0148-0.0148,0.0129s-0.036,0.0056-0.0406,0.011
			c-0.0046,0.0056-0.0083,0.0111,0.0111,0.0129c0.0194,0.0018,0.0295,0.0037,0.0517-0.0065s0.0434-0.0258,0.0673-0.0267
			C169.8858,590.252,169.9098,590.2206,169.8831,590.2252z"/>
	</g>
	<g id="g154">
		<path id="path156" d="M169.8167,590.2823c0.0201,0.0131,0.1198,0.0471,0.1558,0.0443c0.036-0.0027,0.0292,0.0144,0.0018,0.0203
			c-0.0563,0.012-0.125-0.0125-0.1715-0.0498C169.7798,590.2787,169.801,590.2722,169.8167,590.2823z"/>
	</g>
	<g id="g158">
		<path id="path160" class="st12" d="M170.2888,590.3312c-0.0763,0.0244-0.154,0.0157-0.1853,0.0074
			c-0.0314-0.0083-0.06-0.0101-0.0387,0.0102c0.0212,0.0202,0.0895,0.0341,0.1281,0.0239
			c-0.1374,0.0314-0.1733,0.0286-0.2074,0.0231c-0.0341-0.0055-0.0982-0.0043-0.1254-0.0018
			c-0.0203,0.0018-0.048-0.0009-0.06-0.0083c-0.012-0.0074-0.0157-0.0212,0.0203-0.0175c0.0359,0.0037,0.0406-0.0037,0.0092-0.0083
			c-0.0314-0.0046-0.0747,0.0083-0.0323,0.035c0.0424,0.0267,0.1355-0.0018,0.1946,0.0148c0.059,0.0166,0.1843,0.0286,0.3033-0.0673
			C170.3013,590.3373,170.3118,590.3239,170.2888,590.3312z"/>
	</g>
	<g id="g162">
		<path id="path164" class="st12" d="M169.9144,590.2188c0.0028,0.0092,0.0028,0.0193,0,0.0258s-0.0028,0.0148,0.0092,0.0056
			c0.012-0.0093,0.0194-0.0203,0.0314-0.0139s0.0424,0.0056,0.0562,0.0037c0.0139-0.0018,0.0184-0.0046-0.0018-0.0129
			c-0.0203-0.0083-0.0406-0.0111-0.0517-0.0102c-0.0111,0.001-0.0249-0.0018-0.0341-0.0055
			C169.9144,590.2076,169.9117,590.2095,169.9144,590.2188z"/>
	</g>
	<g id="g166">
		<path id="path168" class="st12" d="M170.1108,590.2547c-0.0157,0.0009-0.0434-0.0092-0.0581-0.0157s-0.0359-0.0074-0.0202,0.0139
			c0.0156,0.0212,0.0839,0.0332,0.1078,0.0231c0.024-0.0101,0.0138-0.0212,0.0377-0.0065c0.024,0.0148,0.0489,0.0249,0.0664,0.0249
			c0.0175,0,0.024,0,0.0046-0.011c-0.0194-0.0111-0.0286-0.0139-0.0304-0.0231c-0.0018-0.0092-0.0046-0.0148,0.0129-0.0092
			c0.0175,0.0055,0.0378,0.0157,0.0517,0.0083s0.0396-0.024,0.0627-0.024l0.0055-0.0139c-0.0332-0.0027-0.0544,0.0074-0.0636,0.011
			c-0.0092,0.0037-0.0258,0.0056-0.0434,0.0028c-0.0175-0.0028-0.0406-0.0046-0.0461-0.0092
			c-0.0055-0.0046-0.0055-0.0083,0.0092-0.0111c0.0148-0.0027,0.0194-0.0129-0.0009-0.0092
			c-0.0203,0.0037-0.0746,0.0018-0.1032-0.0074c-0.0286-0.0092-0.0406-0.0101-0.0526-0.0055s-0.0101,0.0175,0.0074,0.0184
			c0.0175,0.0009,0.0572,0.0046,0.071,0.0175s0.012,0.0139-0.0037,0.0074C170.1099,590.2298,170.0813,590.2335,170.1108,590.2547z"
			/>
	</g>
	<g id="g170">
		<path id="path172" class="st12" d="M170.3514,590.2215l-0.0055,0.0139c0.0341-0.0009,0.1171,0.0074,0.1438,0.024
			c0.0258-0.0203,0.0212-0.0268,0.0397-0.0231c0.0184,0.0037,0.0415,0.0101,0.0517,0.0046
			c0.0101-0.0055,0.0175-0.0046,0.0286-0.0027c0.011,0.0018,0.035-0.0027,0.0488-0.011c0.0138-0.0083,0.0424-0.0194,0.059-0.0194
			s0.0368-0.0037,0.0065-0.0083c-0.0304-0.0046-0.0766,0.0046-0.0923,0.0102c-0.0156,0.0055-0.0627,0.0092-0.0903,0.0092
			c-0.0277,0-0.0654,0.0138-0.0968,0.0055S170.3699,590.2215,170.3514,590.2215z"/>
	</g>
	<g id="g174">
		<path id="path176" d="M170.7783,590.2049c-0.0553,0.0406-0.1217,0.0498-0.2009,0.0554c-0.0231,0.0016-0.016,0.0082,0.0037,0.0101
			c0.0829,0.0083,0.1789-0.0222,0.2102-0.0554C170.8003,590.2054,170.7993,590.1896,170.7783,590.2049z"/>
	</g>
	<g id="g178">
		<path id="path180" class="st12" d="M170.4012,590.299c0.024,0.0009,0.1069,0.0221,0.1337,0.0313
			c0.0203-0.0018,0.0258-0.0064,0.0221-0.0138c-0.0037-0.0074-0.0065-0.0157,0.0304-0.0139
			c0.0368,0.0018,0.1217,0.0009,0.1374,0.0009c0.0129-0.0056,0.0414-0.0276,0.0544-0.0286
			c-0.0331,0.0018-0.1714,0.0092-0.1889,0.0073c-0.0175-0.0018-0.0267,0-0.0378,0.0065c-0.0111,0.0065-0.0175,0.0092-0.0314,0.0037
			c-0.0138-0.0056-0.0387-0.0129-0.0525-0.0046C170.4547,590.2962,170.4261,590.2888,170.4012,590.299z"/>
	</g>
	<g id="g182">
		<path id="path184" class="st12" d="M170.7249,590.3036c0.0129-0.0056,0.0414-0.0276,0.0544-0.0286
			c0.024-0.0019,0.0517,0.0083,0.0646,0.0101c0.0129,0.0018,0.0267-0.0009,0.0175-0.011c-0.0092-0.0102-0.0009-0.0277,0.0369-0.0231
			c0.0378,0.0046,0.0571,0.011,0.094,0.0074c0.0369-0.0037,0.0535,0.0239,0.1235-0.0037c-0.0055,0.0276,0.0074,0.0295,0.0203,0.024
			s0.0277-0.0037,0.0498,0.0129c0.0221,0.0166,0.1568,0.0184,0.1881,0.0129c0.0313-0.0055,0.0479,0.0111,0.0239,0.0184
			c-0.0239,0.0074-0.0295,0.0185-0.0239,0.0259c0.0055,0.0073,0.011,0.0165-0.0184,0.0128
			c-0.0295-0.0037-0.035,0.0056-0.0498,0.0166c-0.0148,0.011-0.0184,0.0148-0.059,0.0074c-0.0405-0.0074-0.0479-0.0018-0.07,0.0018
			c-0.0221,0.0037-0.0277,0.0037-0.0498-0.0037c-0.0221-0.0074-0.07-0.0148-0.0995-0.0056
			c-0.0295,0.0092-0.0517,0.0184-0.0775,0.011c-0.0258-0.0073-0.0277-0.0037-0.0111-0.0203s0.0203-0.0148,0.0517-0.0184
			c0.0314-0.0037,0.0554-0.0129,0.0332-0.0258c-0.0221-0.0129-0.0295-0.0111-0.059,0.0037
			c-0.0295,0.0148-0.0443,0.0239-0.0774,0.0056c-0.0332-0.0184-0.0498-0.0148-0.072-0.0092
			C170.793,590.3303,170.7562,590.3174,170.7249,590.3036z"/>
	</g>
	<g id="g186">
		<path id="path188" class="st12" d="M170.8355,590.3589c-0.0422,0.006-0.0536-0.0212-0.0977-0.0156
			c-0.0148,0.0018-0.0397,0.0202-0.0055,0.0175c0.0341-0.0027,0.071,0.0157,0.1042,0.0129
			C170.8696,590.3708,170.8548,590.3561,170.8355,590.3589z"/>
	</g>
	<g id="g190">
		<path id="path192" class="st12" d="M170.7866,590.3912c0.0222-0.0081,0.0683,0.0074,0.0876,0.0037
			c0.0194-0.0037,0.0378,0.0083,0.0175,0.0148s-0.0692-0.012-0.0913-0.0056C170.7783,590.4105,170.7562,590.4022,170.7866,590.3912z
			"/>
	</g>
	<g id="g194">
		<path id="path196" class="st12" d="M170.3459,590.5101c0.0304,0.001,0.1401-0.0037,0.1835-0.0959
			c0.0033-0.0071,0.0065-0.0101,0.0203-0.0009s0.0646,0.0397,0.1595,0.048c0.0266,0.0024,0.0553,0.0157,0.0018,0.012
			c-0.0535-0.0037-0.1383-0.0185-0.1669-0.036c-0.048,0.0756-0.1341,0.0845-0.1982,0.0829
			C170.3072,590.5193,170.3164,590.5092,170.3459,590.5101z"/>
	</g>
	<g id="g198">
		<path id="path200" class="st12" d="M170.5829,590.3847c-0.0148,0.0203-0.0655,0.0554-0.0885,0.0572
			c-0.023,0.0018-0.0922-0.0046-0.1097-0.011c-0.0175-0.0065-0.0387-0.0046-0.0138,0.0129s0.0867,0.0295,0.1115,0.024
			c0.0249-0.0056,0.0535-0.0139,0.0729-0.0018c0.0194,0.012,0.0553,0.035,0.0765,0.0303c0.0212-0.0045,0.0646-0.0045,0.0784,0.0019
			s0.0378,0.0258,0.0018,0.0147c-0.036-0.011-0.0655-0.0018-0.0821-0.0092c0.0184,0.0258,0.0603,0.0673,0.0959,0.0673
			c0.0083,0,0.0138,0.0148-0.0037,0.0231c0.0175,0.0083,0.058,0.0148,0.0793-0.0046c-0.0055,0.0074-0.0028,0.012,0.0065,0.0166
			c0.0092,0.0046,0.0203,0.011,0.0037,0.0129c-0.0166,0.0019-0.0544,0.0065-0.0654,0.0019c0.0359,0.0229,0.1291,0.0599,0.224,0.0414
			c0.0181-0.0035,0.0277-0.011-0.0018-0.0101c-0.0609,0.0018-0.0645,0.0009-0.0756-0.0054
			c-0.0111-0.0065-0.0092-0.012,0.0083-0.0175c0.0174-0.0056,0.0617-0.012,0.0802-0.012s0.0369-0.0074-0.0009-0.0074
			c-0.0378,0-0.0839,0-0.1023-0.0065c-0.0184-0.0064-0.0323-0.0147-0.0129-0.0276c0.0194-0.0129,0.0397-0.0092,0.0489-0.0212
			c-0.0609-0.0009-0.1356-0.0332-0.0941-0.0626c0.0096-0.0069,0.0065-0.0074-0.0092-0.0092
			c-0.0157-0.0018-0.0617-0.0148-0.0811-0.0258c-0.0194-0.0111-0.0065-0.0203,0.0092-0.0231
			C170.7027,590.4401,170.6308,590.4207,170.5829,590.3847z"/>
	</g>
	<g id="g202">
		<path id="path204" class="st12" d="M171.124,590.3829c-0.0332,0.0249-0.0959,0.035-0.1226,0.035s-0.0304,0.0092-0.0092,0.012
			c0.0212,0.0028,0.0443,0.0056,0.0535,0.0028c0.0092-0.0028,0.0148-0.0037,0.0285,0.0027
			c0.0138,0.0065,0.0434,0.0101,0.0692,0.0018c0.0258-0.0083,0.0682-0.012,0.0857-0.011s0.0369,0.0018,0.0018-0.0083
			c-0.035-0.0101-0.0922-0.0027-0.106,0.0009c-0.0138,0.0037-0.0517,0.0009-0.0314-0.0056c0.0203-0.0064,0.0378-0.0166,0.048-0.0249
			C171.1342,590.3865,171.1296,590.3847,171.124,590.3829z"/>
	</g>
	<g id="g206">
		<path id="path208" class="st12" d="M171.1065,590.4548c-0.0286,0.0212-0.07,0.0414-0.1125,0.0433
			c0.0387,0.0138,0.071,0.0535,0.0959,0.0516c-0.012,0.0074-0.0267,0.0184-0.0424,0.0203c0.024,0.0065,0.0645-0.0009,0.0977-0.0193
			c0.0553,0.0157,0.1272,0.0056,0.1512-0.0148c-0.036,0-0.0793-0.0129-0.0986-0.0295c0.0175,0,0.0341-0.0111,0.0424-0.0212
			C171.1988,590.4926,171.1277,590.4724,171.1065,590.4548z"/>
	</g>
	<g id="g210">
		<path id="path212" class="st12" d="M171.0475,590.57c0.0157-0.0018,0.0304-0.0129,0.0424-0.0203
			c-0.0304,0.0101-0.1632-0.0111-0.2028-0.0461c-0.0397-0.035-0.0397-0.0083-0.012,0.0166
			C170.9028,590.5451,170.9516,590.5829,171.0475,590.57z"/>
	</g>
	<g id="g214">
		<path id="path216" class="st12" d="M171.1453,590.6548c-0.0166,0.0092-0.0959,0.0147-0.1217,0.0092
			c-0.0258-0.0056-0.0369-0.0028-0.0304,0.0074c0.0065,0.0101,0.0092,0.0193-0.012,0.0166
			c-0.0212-0.0028-0.059,0.0018-0.0746,0.0074c-0.0157,0.0055-0.035,0.0193-0.0018,0.0138c0.0331-0.0055,0.0636-0.012,0.0885-0.0055
			c0.0249,0.0064,0.1134,0.0083,0.1309,0.0009c0.0175-0.0074,0.0055-0.0074-0.0028-0.0074s-0.012-0.0056,0-0.0111
			C171.1333,590.6807,171.1425,590.665,171.1453,590.6548z"/>
	</g>
	<g id="g218">
		<path id="path220" class="st12" d="M170.3782,590.5479c-0.0332,0.0147-0.1438,0.0443-0.1733,0.0461
			c-0.0369,0.0166-0.0663,0.0258-0.0848,0.0258c0.0129,0.0111,0.0627,0.0221,0.0829,0.0166
			c-0.0111,0.011-0.0368,0.0239-0.0461,0.0295c0.0294-0.0037,0.0645,0.0037,0.0793,0.0056
			c-0.0387,0.0221-0.0922,0.0295-0.1198,0.0258c0.0092,0.0129,0.0221,0.0258,0.0387,0.0258
			c-0.035,0.0092-0.0775,0.0092-0.0996,0.0018c0.0092,0.0184,0.0184,0.0295,0.0314,0.0314
			c-0.0295,0.0037-0.0664,0.0092-0.0977-0.0092c0.0239,0.0314,0.0774,0.0424,0.1567,0.0332
			c0.0793-0.0092,0.1457-0.0443,0.1641-0.059c-0.0332,0.0037-0.0775,0.0055-0.0996,0.0018c0.0443-0.011,0.1401-0.0516,0.1567-0.0682
			c-0.0184,0-0.0368-0.0056-0.0498-0.0148c0.0258,0.0037,0.1162-0.0073,0.1439-0.0184c-0.0332-0.0074-0.0535-0.0277-0.0627-0.0406
			c0.1161,0.0369,0.2454,0.0248,0.3079,0.0092c0.0148-0.0037,0.0165-0.0225-0.0129-0.0203c-0.0517,0.0037-0.1512-0.011-0.177-0.024
			c0.024,0.0185,0.0535,0.0295,0.0738,0.0332C170.5423,590.5922,170.4759,590.6014,170.3782,590.5479z"/>
	</g>
	<g id="g222">
		<path id="path224" class="st12" d="M170.1569,590.6659c0.0092-0.0056,0.035-0.0184,0.0461-0.0295
			c-0.0203,0.0055-0.07-0.0055-0.0829-0.0166c0.0184,0,0.0479-0.0092,0.0848-0.0258c-0.0663-0.0018-0.1125-0.0018-0.1364-0.0148
			c-0.024-0.0129-0.0682-0.0092-0.0848-0.0055c-0.0166,0.0037-0.0111,0.0314,0.059,0.024
			c-0.0295,0.0203-0.1088,0.0276-0.1383,0.0203c0.0074,0.0239,0.0129,0.0479,0.0055,0.0609
			c0.0387,0.0221,0.1401,0.0498,0.1899,0.0461c-0.0443-0.0166-0.0683-0.035-0.0314-0.0388
			C170.1053,590.6825,170.1256,590.6751,170.1569,590.6659z"/>
	</g>
	<g id="g226">
		<path id="path228" d="M170.0426,590.7858c0.0883-0.0074,0.2065-0.009,0.3006-0.0886c0.024-0.0203,0.0401-0.0135,0.0166,0.0074
			c-0.0497,0.0443-0.1733,0.105-0.2913,0.1069C170.0203,590.8123,169.9984,590.7894,170.0426,590.7858z"/>
	</g>
	<g id="g230">
		<path id="path232" class="st12" d="M170.7036,590.6401c-0.0221,0.0083-0.0839,0.0184-0.1023,0.0157
			c-0.0184-0.0028-0.0452-0.0037-0.06,0.0055s-0.0157,0.0148,0.0046,0.0166c0.0203,0.0019,0.0461,0.0037,0.059,0.0028
			c-0.0166,0.0092-0.0277,0.0221-0.0314,0.0276c0.0295-0.0074,0.0839,0.0056,0.0995,0.0148
			c-0.012,0.0037-0.0258-0.0009-0.036-0.0065c0.0498,0.0526,0.1973,0.0526,0.2213,0.0433
			c-0.0111,0.0083-0.0212,0.0166-0.0323,0.0194c0.0415,0.0074,0.0894,0.0065,0.1364-0.0212
			c-0.0157,0.0028-0.0627-0.0018-0.0746-0.0027c0.0092-0.0092,0.023-0.0175,0.0359-0.0212
			c-0.0184-0.0037-0.0765-0.0018-0.0903,0.0056c0.0055-0.011,0.0157-0.0249,0.0267-0.0295c-0.0729,0-0.1614-0.0009-0.1936-0.0184
			c0.0517,0.0056,0.1088-0.0249,0.1328-0.0249C170.759,590.6659,170.7147,590.6567,170.7036,590.6401z"/>
	</g>
	<g id="g234">
		<path id="path236" class="st12" d="M170.5183,590.6807c-0.036,0.0074-0.0903,0.0221-0.1051,0.0304s-0.0304,0.0129,0.0018,0.0129
			s0.1198,0.0037,0.1392,0.0065c-0.0489-0.0074-0.1152-0.0092-0.1281-0.0092s-0.0277-0.0009-0.0037-0.0083
			C170.4464,590.7056,170.4778,590.689,170.5183,590.6807z"/>
	</g>
	<g id="g238">
		<path id="path240" class="st12" d="M170.4455,590.7664c0.0128,0,0.0691,0,0.0912-0.0193
			c0.0231,0.0175,0.0673,0.0424,0.0959,0.0424c0.0286,0,0.0258,0.0074,0.0009,0.0101c-0.0248,0.0027-0.0737-0.0119-0.0986-0.0303
			C170.5017,590.7812,170.4741,590.7711,170.4455,590.7664z"/>
	</g>
	<g id="g242">
		<path id="path244" class="st12" d="M170.0186,591.0144c0.0571,0.0222,0.1328,0.0388,0.188,0.0203
			c0.0314,0.0276,0.0959,0.0295,0.1309,0.0221c0.035-0.0074,0.0664-0.011,0.1051,0.0019c0.0387,0.0129,0.118,0.0138,0.1401,0.0322
			c-0.0203,0.001-0.0636,0-0.0738,0.0029c-0.0101,0.0027-0.0046,0.0092,0.0138,0.0193c-0.0627-0.0037-0.1706,0.0231-0.2037,0.0516
			c0.0119-0.0286,0.0488-0.0673,0.1069-0.0673c-0.0332-0.0119-0.1392-0.0128-0.1733,0.0083
			c-0.0101-0.011-0.0221-0.0294-0.0231-0.0368C170.1735,591.1011,170.0629,591.055,170.0186,591.0144z"/>
	</g>
	<g id="g246">
		<path id="path248" class="st12" d="M169.872,590.9112c0.0681-0.0098,0.1144-0.0314,0.1347-0.0517
			c0.012,0.0111,0.0617,0.0222,0.1161,0.0056c-0.0111,0.0083-0.012,0.024-0.0074,0.0323c-0.036,0.0009-0.1042,0.0184-0.1272,0.0305
			c-0.0231,0.0119-0.0904,0.0202-0.1125,0.0082C169.8536,590.9241,169.8527,590.9139,169.872,590.9112z"/>
	</g>
	<g id="g250">
		<path id="path252" class="st12" d="M170.1154,590.8973c-0.036,0.0009-0.1042,0.0184-0.1272,0.0305
			c0.0046,0.0092,0.0074,0.0239,0.0083,0.0341c0.0663-0.024,0.2185-0.0387,0.2766-0.0295
			c-0.0277,0.0019-0.0802,0.0304-0.1097,0.0341c0.0719-0.0055,0.142,0.0093,0.1604,0.0139
			c0.0184,0.0046,0.0221,0.0184,0.0083,0.0314c-0.0138,0.0129-0.0202,0.0148,0.0092,0.0157
			c0.0295,0.0009,0.0904-0.0028,0.1181-0.0295c-0.0111-0.012-0.0397-0.0074-0.048-0.0157c0.0194-0.0064,0.0415-0.0203,0.0498-0.0304
			c-0.0498-0.001-0.0683-0.0019-0.0849-0.0056c-0.0166-0.0036-0.0286-0.0083-0.0083-0.0193
			c0.0203-0.0111,0.0295-0.0203,0.036-0.0277c-0.036,0.0102-0.0922,0.0184-0.1392-0.0184c0.0175,0.0046,0.059,0.0018,0.0737-0.0046
			c-0.0157-0.0083-0.0285-0.0147-0.0414-0.0147c0.0378-0.0185,0.1125-0.0351,0.2046,0.0018
			c0.0461-0.0037,0.0959-0.0018,0.1309,0.0074c0.0148-0.0148,0.0461-0.0498,0.0627-0.059
			c-0.1088,0.0092-0.3043-0.0111-0.3006-0.0682c-0.035,0.0461-0.1161,0.0719-0.1512,0.0645
			c-0.0037,0.0166,0.0111,0.0369,0.024,0.048c-0.0369,0.0074-0.0996,0.0129-0.1291,0.0074
			c0.0166,0.0166,0.0479,0.0314,0.0663,0.0295C170.1662,590.8928,170.1459,590.9001,170.1154,590.8973z"/>
	</g>
	<g id="g254">
		<path id="path256" class="st12" d="M170.3413,591.0273c0.0295,0.0009,0.0904-0.0028,0.1181-0.0295
			c-0.0111-0.012-0.0397-0.0074-0.048-0.0157c0.0194-0.0064,0.0415-0.0203,0.0498-0.0304c0.0774-0.0064,0.1466-0.0027,0.1797-0.0129
			c0.0332-0.0101,0.1181-0.0046,0.1347-0.0092c-0.0738,0.0119-0.0886,0.0184-0.0922,0.0304
			c-0.0037,0.012,0.024,0.0221,0.0415,0.0221c-0.0332-0.0018-0.0747,0.0332-0.0784,0.0471c-0.0442-0.0258-0.0654,0.0046-0.07,0.0148
			c-0.0184-0.0074-0.0793-0.0056-0.1107,0.0212c-0.0405-0.012-0.0673-0.0184-0.1078-0.012
			C170.3828,591.0476,170.3782,591.031,170.3413,591.0273z"/>
	</g>
	<g id="g258">
		<path id="path260" class="st12" d="M170.6953,590.8116c0.0249-0.001,0.0793,0.0018,0.0986-0.001
			c-0.0129,0.0065-0.0294,0.0185-0.0331,0.024c0.0627-0.0074,0.1484-0.012,0.1733-0.0083
			c-0.0304-0.0046-0.0617,0.0148-0.0774,0.0249c-0.0157,0.0102-0.0065,0.0166,0.0148,0.0194
			c0.0212,0.0027,0.0498,0.0193,0.0111,0.0138c-0.0387-0.0055-0.1152-0.0055-0.1337-0.0027s-0.0286-0.0065-0.0018-0.0101
			c0.0267-0.0037,0.0451-0.0129,0.058-0.0203c-0.0221,0.0056-0.0645,0.0056-0.0774,0.0019
			c-0.0129-0.0037-0.0212-0.0111-0.0065-0.0148c0.0148-0.0037,0.0046-0.0092-0.0111-0.0074s-0.0553,0.0184-0.0775,0.0397
			C170.6566,590.8457,170.6778,590.8235,170.6953,590.8116z"/>
	</g>
	<g id="g262">
		<path id="path264" d="M170.4141,590.8531c0.0304,0.0341,0.0663,0.0535,0.1235,0.0553c0.012,0.0004,0.0343,0.0165,0.0055,0.0176
			c-0.0775,0.0027-0.1161-0.0157-0.1503-0.0655C170.3859,590.8502,170.3989,590.8359,170.4141,590.8531z"/>
	</g>
	<g id="g266">
		<path id="path268" d="M170.8761,590.2086c0.0407,0.0193,0.1226,0.036,0.1863,0.0333c0.0111-0.0005,0.0333,0.0114,0.0055,0.0138
			c-0.0719,0.0065-0.1364-0.0036-0.1963-0.0369C170.8548,590.2095,170.8604,590.2012,170.8761,590.2086z"/>
	</g>
	<g id="g270">
		<path id="path272" class="st12" d="M170.9176,590.2076c0.0627-0.0018,0.1097-0.0009,0.1291,0.0176
			c0.0359-0.0111,0.1005-0.0176,0.1152-0.0148c0.0148,0.0027,0.0314-0.0037-0.0028-0.012c-0.0341-0.0082-0.1134-0.011-0.1383-0.0063
			c-0.0249,0.0045-0.1024,0.0073-0.1281,0.0045C170.9037,590.1984,170.911,590.2003,170.9176,590.2076z"/>
	</g>
	<g id="g274">
		<path id="path276" class="st12" d="M171.1609,590.2325c0.0295-0.0157,0.1143-0.0009,0.1401-0.012
			c-0.0184,0.0222,0.059,0.024,0.1263,0.0065c-0.0258,0.0166-0.0811,0.0193-0.1051,0.0295
			c-0.024,0.0102-0.0369,0.0028-0.0553-0.0055C171.2485,590.2427,171.2015,590.2261,171.1609,590.2325z"/>
	</g>
	<g id="g278">
		<path id="path280" class="st12" d="M171.4274,590.2271c-0.0673,0.0175-0.1447,0.0157-0.1263-0.0065
			c-0.0258,0.011-0.1106-0.0037-0.1401,0.012c0.0304-0.0184,0.0535-0.0037,0.0756-0.0415c0.0138,0.0029,0.0461,0.0047,0.0572-0.0101
			c0.0194,0.0046,0.0535,0.0129,0.0636,0.023c0.0101,0.0101,0.0258-0.0027,0.0128-0.0184c0.0304-0.0111,0.0111,0.0131,0.0821-0.0046
			c0.0148-0.0037,0.0507-0.0101,0.0627-0.011C171.491,590.1893,171.4624,590.2104,171.4274,590.2271z"/>
	</g>
	<g id="g282">
		<path id="path284" class="st13" d="M170.1181,589.9177c-0.0012-0.1395-0.0147-1.3071-0.0147-1.577
			c0-0.0646-0.0332-0.0516-0.0332,0c0,0.0489,0,1.4241,0,1.5696C170.0855,589.9131,170.1061,589.9159,170.1181,589.9177z"/>
	</g>
	<g id="g286">
		<path id="path288" class="st13" d="M170.6312,588.2559l0.0576,1.6647l-0.0101,0.0133l-0.0334,0.0005l-0.0364-1.6785H170.6312z"/>
	</g>
	<g id="g290">
		<path id="path292" class="st13" d="M171.1167,589.6614c-0.0047-0.1695-0.026-0.9542-0.0342-1.341
			c-0.0011-0.0516-0.0318-0.0426-0.0313,0.0018c0.0033,0.3116,0.0219,1.1829,0.0253,1.3401
			C171.0886,589.6624,171.1094,589.6612,171.1167,589.6614z"/>
	</g>
	<g id="g294">
		<path id="path296" class="st14" d="M170.3486,588.5325l-0.4905-0.0073c-0.0276,0.0995,0.0959,0.0977,0.1421,0.0718
			c0.0534,0.0406,0.094,0.0369,0.1235,0.0037c0.0424,0.035,0.0959,0.0258,0.118,0.0037
			C170.3008,588.6487,170.3616,588.6044,170.3486,588.5325z"/>
	</g>
	<g id="g298">
		<path id="path300" class="st14" d="M170.3855,588.7795l-0.5016-0.0018c-0.0866,0.0829,0.0258,0.1235,0.1218,0.0663
			c0.0129,0.0276,0.0719,0.0443,0.118,0.0222c0.0424,0.0332,0.0959,0.0092,0.1235-0.0184
			C170.2989,588.8717,170.3597,588.8791,170.3855,588.7795z"/>
	</g>
	<g id="g302">
		<path id="path304" class="st14" d="M170.3708,589.093l-0.4831-0.0037c-0.0092,0.0866,0.0885,0.0756,0.1272,0.0535
			c0.0369,0.0571,0.1181,0.0443,0.1494,0.011c0.0461,0.0314,0.0885,0.024,0.1125-0.0056
			C170.3303,589.1945,170.3745,589.1355,170.3708,589.093z"/>
	</g>
	<g id="g306">
		<path id="path308" class="st14" d="M170.3948,589.4065l-0.5403-0.0092c-0.0295,0.0922,0.0534,0.1088,0.0922,0.0867
			c0.0129,0.0535,0.0848,0.035,0.1032-0.0037c0.0277,0.0277,0.0627,0.0129,0.0793-0.0055c0.0074,0.0498,0.07,0.0516,0.118,0.0092
			C170.345,589.5522,170.4372,589.4728,170.3948,589.4065z"/>
	</g>
	<g id="g310">
		<path id="path312" class="st14" d="M170.8742,589.2775l-0.4499-0.0037c0.0203,0.0922,0.0645,0.1161,0.1364,0.0627
			c0.0535,0.0554,0.142,0.035,0.1641,0.0074C170.8226,589.4231,170.8761,589.3309,170.8742,589.2775z"/>
	</g>
	<g id="g314">
		<path id="path316" class="st14" d="M170.8281,588.9695l-0.4352-0.0129c0.0074,0.1106,0.1125,0.1069,0.166,0.059
			c0.0406,0.0516,0.1125,0.0369,0.1383,0C170.7525,589.0709,170.8428,589.0377,170.8281,588.9695z"/>
	</g>
	<g id="g318">
		<path id="path320" class="st14" d="M170.8853,588.6228h-0.4684c0.0055,0.0775,0.1088,0.1217,0.1881,0.048
			c0.0221,0.0885,0.1069,0.0609,0.1438,0.0258C170.8023,588.7648,170.9258,588.6874,170.8853,588.6228z"/>
	</g>
	<g id="g322">
		<path id="path324" class="st14" d="M170.8576,588.3868l-0.4186,0.0056c-0.0074,0.0682,0.0922,0.0977,0.1291,0.0424
			c0.0203,0.035,0.0903,0.0313,0.1106-0.0019c0.0332,0.0517,0.0738,0.0166,0.0866,0
			C170.8133,588.468,170.865,588.4514,170.8576,588.3868z"/>
	</g>
	<g id="g326">
		<path id="path328" class="st14" d="M171.3481,588.5399l-0.5126-0.0055c-0.0018,0.0534,0.0535,0.0756,0.0866,0.0534
			c0,0.0516,0.0719,0.0682,0.1181,0.0276c0.0314,0.0443,0.1235,0.0572,0.1604-0.0037
			C171.2762,588.6745,171.3573,588.6302,171.3481,588.5399z"/>
	</g>
	<g id="g330">
		<path id="path332" class="st14" d="M171.3407,588.9603l-0.5016-0.0018c0.0037,0.07,0.0848,0.094,0.1309,0.0571
			c0.0111,0.059,0.0738,0.0627,0.1106,0.0332c0.0443,0.0498,0.1181,0.0535,0.1586-0.0018
			C171.3002,589.069,171.3463,589.0174,171.3407,588.9603z"/>
	</g>
	<g id="g334">
		<path id="path336" class="st14" d="M171.3149,589.3383l-0.3965-0.0056c0,0.0701,0.083,0.0793,0.1199,0.0425
			c0.0387,0.0461,0.0977,0.0461,0.1309,0.0092C171.2227,589.4305,171.3038,589.4176,171.3149,589.3383z"/>
	</g>
	<g id="g338">
		<path id="path340" class="st15" d="M170.6787,589.9338c-0.2139,0.0037-0.4315,0.0037-0.579-0.0184
			c-0.1475-0.0222-0.194-0.0428-0.295-0.1032c-0.1512-0.0903-0.1881-0.1125-0.402-0.2379c-0.0328-0.0192-0.0683,0.0046-0.0221,0.035
			c0.2157,0.142,0.2974,0.1946,0.4001,0.2619c0.1069,0.07,0.1759,0.1323,0.2415,0.2065c0.0849,0.0959,0.1475,0.0978,0.1862,0.083
			c0.0387-0.0148,0.0996-0.0351,0.1604-0.0203c0.0609,0.0148,0.142,0.0166,0.1844,0.0092c0.0387,0.0351,0.1272,0.0277,0.177,0.0166
			c0.0497-0.011,0.0866-0.0166,0.1217-0.0092c0.035,0.0074,0.0885,0.0019,0.1235-0.0037s0.1272-0.0148,0.1918-0.0056
			c0.0645,0.0092,0.1309,0.0037,0.1733-0.0092c0.0424-0.0129,0.1198-0.0092,0.1457-0.0018
			c0.0368-0.0277,0.0553-0.0627,0.0645-0.0995c0.0434-0.0056,0.0578-0.0109,0.0673-0.036c0.0175-0.0461,0.0341-0.0913,0.0397-0.1115
			h0.0175l0.0055-0.0415l-0.0359-0.0415l0.0129-0.0793l0.0387-0.0092c0.0018-0.024-0.0092-0.0609-0.0166-0.0756
			c-0.2323,0.0092-0.4601,0.0166-0.6232,0.0203c-0.0184,0.0148-0.0387,0.0535-0.0424,0.0775
			c-0.0995,0.0165-0.1586,0.0239-0.1844,0.0294c-0.0258,0.0056-0.0402,0.0076-0.0608,0.0351
			C170.7359,589.8491,170.7046,589.9006,170.6787,589.9338z"/>
	</g>
	<g id="g342">
		<path id="path344" class="st15" d="M171.4253,589.6522c0.0113-0.0391,0.0414-0.1444,0.0961-0.3434
			c0.0092-0.0332-0.0231-0.0463-0.035-0.0037c-0.065,0.2324-0.0895,0.3195-0.0978,0.3485
			C171.4011,589.6534,171.419,589.652,171.4253,589.6522z"/>
	</g>
	<g id="g346">
		<path id="path348" class="st14" d="M171.7851,589.2627c-0.0784,0.0405-0.1162,0.0562-0.1521,0.0424
			c-0.0331-0.0127-0.0817-0.0199-0.1101-0.0059c-0.0001,0.003-0.0005,0.0062-0.0015,0.0096
			c-0.0336,0.1226-0.058,0.2095-0.0744,0.2674c0.058,0.0205,0.158,0.0233,0.1814-0.0018c0.0239-0.0258,0.0894-0.0203,0.1226-0.0184
			c0.0212-0.0277,0.0295-0.0618,0.024-0.0784s-0.0037-0.0461,0.0046-0.0691C171.7879,589.3853,171.799,589.3106,171.7851,589.2627z"
			/>
	</g>
	<g id="g350">
		<path id="path352" class="st16" d="M170.0002,588.597c-0.0867,0.2508-0.3873,0.8132-0.5686,0.9944"/>
	</g>
	<g id="g354">
		<path id="path356" class="st16" d="M169.5708,589.6732c0.2058-0.1592,0.7263-0.676,0.8148-0.8936"/>
	</g>
	<g id="g358">
		<path id="path360" class="st16" d="M169.8877,589.0894c-0.0239,0.1899-0.0788,0.5287-0.1083,0.7076"/>
	</g>
	<g id="g362">
		<path id="path364" class="st16" d="M169.9683,589.5128c-0.07,0.0682-0.1694,0.1874-0.2432,0.252"/>
	</g>
	<g id="g366">
		<path id="path368" class="st16" d="M170.628,589.1336c-0.059,0.0571-0.1263,0.1238-0.1853,0.1404"/>
	</g>
	<g id="g370">
		<path id="path372" class="st16" d="M170.6619,589.1428c0.0519,0.0553,0.1256,0.1177,0.1865,0.1343"/>
	</g>
	<g id="g374">
		<path id="path376" class="st16" d="M170.6215,588.8367c-0.0534,0.0461-0.1328,0.1003-0.2046,0.1205"/>
	</g>
	<g id="g378">
		<path id="path380" class="st16" d="M170.6518,588.8478c0.0461,0.0387,0.0952,0.0952,0.1542,0.121"/>
	</g>
	<g id="g382">
		<path id="path384" class="st16" d="M170.428,588.6228c0.0571-0.0166,0.1422-0.0609,0.1865-0.1069"/>
	</g>
	<g id="g386">
		<path id="path388" class="st16" d="M170.6398,588.5067c0.05,0.0571,0.1459,0.1033,0.1938,0.1161"/>
	</g>
	<g id="g390">
		<path id="path392" class="st16" d="M170.439,588.3924c0.059-0.0129,0.132-0.0443,0.1708-0.0997"/>
	</g>
	<g id="g394">
		<path id="path396" class="st16" d="M170.632,588.278c0.0497,0.0424,0.1372,0.1037,0.1943,0.1093"/>
	</g>
	<g id="g398">
		<path id="path400" class="st16" d="M171.0528,588.4431c-0.032,0.0332-0.1104,0.0928-0.1602,0.0919"/>
	</g>
	<g id="g402">
		<path id="path404" class="st16" d="M171.0853,588.4402c0.0231,0.0369,0.0812,0.0934,0.1144,0.098"/>
	</g>
	<g id="g406">
		<path id="path408" class="st16" d="M170.8595,588.9584c0.0645-0.0222,0.1549-0.075,0.2001-0.1293"/>
	</g>
	<g id="g410">
		<path id="path412" class="st16" d="M171.095,588.8331c0.0189,0.0341,0.0908,0.111,0.1314,0.1267"/>
	</g>
	<g id="g414">
		<path id="path416" class="st16" d="M170.9359,589.3329c0.0295-0.0064,0.1098-0.0463,0.1318-0.0933"/>
	</g>
	<g id="g418">
		<path id="path420" class="st16" d="M171.1047,589.2138c0.0304,0.0378,0.1051,0.1069,0.1512,0.1235"/>
	</g>
	<g id="g422">
		<path id="path424" class="st16" d="M169.9209,589.3984c0.0903-0.0286,0.2729-0.1394,0.3633-0.2446"/>
	</g>
	<g id="g426">
		<path id="path428" class="st16" d="M170.1115,589.2867c0.0756,0.0534,0.1634,0.1069,0.2307,0.1189"/>
	</g>
	<g id="g430">
		<path id="path432" class="st16" d="M169.9043,589.0895c0.0498-0.0212,0.1152-0.0574,0.166-0.1099"/>
	</g>
	<g id="g434">
		<path id="path436" class="st16" d="M170.1083,588.9723c0.0203,0.0285,0.1694,0.1196,0.233,0.1205"/>
	</g>
	<g id="g438">
		<path id="path440" class="st16" d="M170.0702,588.6782c-0.0387,0.0313-0.1318,0.0876-0.177,0.0995"/>
	</g>
	<g id="g442">
		<path id="path444" class="st16" d="M170.1055,588.68c0.0517,0.0359,0.1537,0.0994,0.2238,0.0994"/>
	</g>
	<g id="g446">
		<path id="path448" class="st16" d="M170.0702,588.3896c-0.0415,0.047-0.1115,0.1196-0.1696,0.1362"/>
	</g>
	<g id="g450">
		<path id="path452" class="st16" d="M170.1037,588.4006c0.0323,0.0517,0.1187,0.1215,0.175,0.1307"/>
	</g>
	<g id="g454">
		<path id="path456" class="st16" d="M170.85,588.7109c0.1293,0.2383,0.369,0.5297,0.6115,0.6827"/>
	</g>
	<g id="g458">
		<path id="path460" class="st16" d="M170.4621,588.4467c0.1963,0.2821,0.5818,0.9008,0.9484,1.1292"/>
	</g>
	<g id="g462">
		<path id="path464" class="st16" d="M171.4781,589.3346c-0.059,0.0821-0.165,0.2102-0.3402,0.3268"/>
	</g>
	<g id="g466">
		<path id="path468" class="st16" d="M171.4562,589.4125c-0.1235-0.1973-0.1874-0.4467-0.2798-0.7751"/>
	</g>
	<g id="g470">
		<path id="path472" class="st16" d="M170.1744,589.5143l0.1521,0.4186"/>
	</g>
	<g id="g474">
		<path id="path476" class="st16" d="M170.1461,589.5046l0.1345,0.4269"/>
	</g>
	<g id="g478">
		<path id="path480" class="st16" d="M170.1172,589.4849l0.1249,0.4443"/>
	</g>
	<g id="g482">
		<path id="path484" class="st16" d="M170.1046,589.4918l0.0964,0.4348"/>
	</g>
	<g id="g486">
		<path id="path488" class="st16" d="M170.1974,589.9108h0.1205"/>
	</g>
	<g id="g490">
		<path id="path492" class="st16" d="M170.3019,589.8654h-0.1137"/>
	</g>
	<g id="g494">
		<path id="path496" class="st16" d="M170.2894,589.8304h-0.1097"/>
	</g>
	<g id="g498">
		<path id="path500" class="st16" d="M170.2766,589.7949h-0.1047"/>
	</g>
	<g id="g502">
		<path id="path504" class="st16" d="M170.2627,589.7562h-0.0996"/>
	</g>
	<g id="g506">
		<path id="path508" class="st16" d="M170.1557,589.7228h0.0945"/>
	</g>
	<g id="g510">
		<path id="path512" class="st16" d="M170.1488,589.6914h0.0897"/>
	</g>
	<g id="g514">
		<path id="path516" class="st16" d="M170.1413,589.6573h0.0853"/>
	</g>
	<g id="g518">
		<path id="path520" class="st16" d="M170.1345,589.6268h0.0805"/>
	</g>
	<g id="g522">
		<path id="path524" class="st16" d="M170.1274,589.5953h0.0765"/>
	</g>
	<g id="g526">
		<path id="path528" class="st16" d="M170.1212,589.5662h0.0724"/>
	</g>
	<g id="g530">
		<path id="path532" class="st16" d="M170.114,589.5392h0.0703"/>
	</g>
	<g id="g534">
		<path id="path536" class="st16" d="M170.1101,589.5164h0.0655"/>
	</g>
	<g id="g538">
		<path id="path540" class="st16" d="M169.9915,589.5171l-0.0857,0.3499"/>
	</g>
	<g id="g542">
		<path id="path544" class="st16" d="M170.0165,589.5112l-0.0736,0.3697"/>
	</g>
	<g id="g546">
		<path id="path548" class="st16" d="M170.0362,589.4977l-0.0595,0.3937"/>
	</g>
	<g id="g550">
		<path id="path552" class="st16" d="M170.0613,589.4894l-0.0432,0.4117"/>
	</g>
	<g id="g554">
		<path id="path556" class="st16" d="M170.0702,589.8776h-0.1364"/>
	</g>
	<g id="g558">
		<path id="path560" class="st16" d="M170.0702,589.8398h-0.1579"/>
	</g>
	<g id="g562">
		<path id="path564" class="st16" d="M170.0702,589.8011h-0.1486"/>
	</g>
	<g id="g566">
		<path id="path568" class="st16" d="M170.0702,589.7642h-0.1394"/>
	</g>
	<g id="g570">
		<path id="path572" class="st16" d="M170.0702,589.7264h-0.1304"/>
	</g>
	<g id="g574">
		<path id="path576" class="st16" d="M170.0702,589.6849h-0.12"/>
	</g>
	<g id="g578">
		<path id="path580" class="st16" d="M170.0702,589.649h-0.1113"/>
	</g>
	<g id="g582">
		<path id="path584" class="st16" d="M170.0702,589.6121h-0.1019"/>
	</g>
	<g id="g586">
		<path id="path588" class="st16" d="M170.0702,589.5762h-0.0934"/>
	</g>
	<g id="g590">
		<path id="path592" class="st16" d="M170.0702,589.5448h-0.086"/>
	</g>
	<g id="g594">
		<path id="path596" class="st16" d="M170.0702,589.5199h-0.0795"/>
	</g>
	<g id="g598">
		<path id="path600" class="st16" d="M170.0702,589.9103v-0.4172"/>
	</g>
	<g id="g602">
		<path id="path604" class="st16" d="M170.529,589.3557l-0.2859,0.5733"/>
	</g>
	<g id="g606">
		<path id="path608" class="st16" d="M170.547,589.3461l-0.2434,0.5856"/>
	</g>
	<g id="g610">
		<path id="path612" class="st16" d="M170.5645,589.3401l-0.1931,0.5948"/>
	</g>
	<g id="g614">
		<path id="path616" class="st16" d="M170.5771,589.3503l-0.1501,0.5845"/>
	</g>
	<g id="g618">
		<path id="path620" class="st16" d="M170.4335,589.908h-0.1798"/>
	</g>
	<g id="g622">
		<path id="path624" class="st16" d="M170.4474,589.8555H170.28"/>
	</g>
	<g id="g626">
		<path id="path628" class="st16" d="M170.4557,589.8131h-0.154"/>
	</g>
	<g id="g630">
		<path id="path632" class="st16" d="M170.4701,589.767h-0.1457"/>
	</g>
	<g id="g634">
		<path id="path636" class="st16" d="M170.4775,589.7302h-0.1346"/>
	</g>
	<g id="g638">
		<path id="path640" class="st16" d="M170.4904,589.6877h-0.1268"/>
	</g>
	<g id="g642">
		<path id="path644" class="st16" d="M170.5031,589.6382h-0.1148"/>
	</g>
	<g id="g646">
		<path id="path648" class="st16" d="M170.5128,589.6003h-0.1056"/>
	</g>
	<g id="g650">
		<path id="path652" class="st16" d="M170.5238,589.5573h-0.0956"/>
	</g>
	<g id="g654">
		<path id="path656" class="st16" d="M170.5314,589.5277h-0.0885"/>
	</g>
	<g id="g658">
		<path id="path660" class="st16" d="M170.5386,589.5001h-0.0811"/>
	</g>
	<g id="g662">
		<path id="path664" class="st16" d="M170.5458,589.4719h-0.0747"/>
	</g>
	<g id="g666">
		<path id="path668" class="st16" d="M170.5522,589.4471h-0.0687"/>
	</g>
	<g id="g670">
		<path id="path672" class="st16" d="M170.5587,589.4222h-0.0629"/>
	</g>
	<g id="g674">
		<path id="path676" class="st16" d="M170.5651,589.3966h-0.0568"/>
	</g>
	<g id="g678">
		<path id="path680" class="st16" d="M170.5711,589.3735h-0.0511"/>
	</g>
	<g id="g682">
		<path id="path684" class="st16" d="M170.757,589.3651l0.1251,0.3959"/>
	</g>
	<g id="g686">
		<path id="path688" class="st16" d="M170.7808,589.3732l0.1518,0.3799"/>
	</g>
	<g id="g690">
		<path id="path692" class="st16" d="M170.8025,589.3741l0.1777,0.3716"/>
	</g>
	<g id="g694">
		<path id="path696" class="st16" d="M171.0229,589.7136l-0.196-0.3469"/>
	</g>
	<g id="g698">
		<path id="path700" class="st16" d="M171.0228,589.7133h-0.1555"/>
	</g>
	<g id="g702">
		<path id="path704" class="st16" d="M170.9962,589.6663h-0.1433"/>
	</g>
	<g id="g706">
		<path id="path708" class="st16" d="M170.9696,589.6193h-0.1313"/>
	</g>
	<g id="g710">
		<path id="path712" class="st16" d="M170.943,589.5723h-0.1198"/>
	</g>
	<g id="g714">
		<path id="path716" class="st16" d="M170.9164,589.5252h-0.1085"/>
	</g>
	<g id="g718">
		<path id="path720" class="st16" d="M170.8898,589.4783h-0.0965"/>
	</g>
	<g id="g722">
		<path id="path724" class="st16" d="M170.8631,589.4312h-0.0847"/>
	</g>
	<g id="g726">
		<path id="path728" class="st16" d="M170.8365,589.3842h-0.0732"/>
	</g>
	<g id="g730">
		<path id="path732" class="st16" d="M170.9972,589.3954l-0.1224,0.3671"/>
	</g>
	<g id="g734">
		<path id="path736" class="st16" d="M171.0339,589.3788l-0.1135,0.3763"/>
	</g>
	<g id="g738">
		<path id="path740" class="st16" d="M170.9729,589.7468l0.0833-0.3542"/>
	</g>
	<g id="g742">
		<path id="path744" class="st16" d="M171.0776,589.4046l-0.0701,0.337"/>
	</g>
	<g id="g746">
		<path id="path748" class="st16" d="M170.889,589.72h0.1228"/>
	</g>
	<g id="g750">
		<path id="path752" class="st16" d="M170.9042,589.6743h0.1171"/>
	</g>
	<g id="g754">
		<path id="path756" class="st16" d="M170.9195,589.6287h0.1115"/>
	</g>
	<g id="g758">
		<path id="path760" class="st16" d="M170.9347,589.5831h0.1058"/>
	</g>
	<g id="g762">
		<path id="path764" class="st16" d="M170.95,589.5374h0.1"/>
	</g>
	<g id="g766">
		<path id="path768" class="st16" d="M170.9652,589.4918h0.0943"/>
	</g>
	<g id="g770">
		<path id="path772" class="st16" d="M170.9805,589.4461h0.0885"/>
	</g>
	<g id="g774">
		<path id="path776" class="st16" d="M170.9958,589.4005h0.0729"/>
	</g>
	<g id="g778">
		<path id="path780" class="st16" d="M171.1335,589.408l0.06,0.2516"/>
	</g>
	<g id="g782">
		<path id="path784" class="st16" d="M171.1558,589.3964l0.0829,0.2623"/>
	</g>
	<g id="g786">
		<path id="path788" class="st16" d="M171.1839,589.395l0.0905,0.2627"/>
	</g>
	<g id="g790">
		<path id="path792" class="st16" d="M171.2211,589.4098l0.0906,0.2467"/>
	</g>
	<g id="g794">
		<path id="path796" class="st16" d="M171.3036,589.6347h-0.1162"/>
	</g>
	<g id="g798">
		<path id="path800" class="st16" d="M171.2899,589.5978h-0.1104"/>
	</g>
	<g id="g802">
		<path id="path804" class="st16" d="M171.2762,589.5609h-0.1058"/>
	</g>
	<g id="g806">
		<path id="path808" class="st16" d="M171.2626,589.524h-0.1015"/>
	</g>
	<g id="g810">
		<path id="path812" class="st16" d="M171.2489,589.4872h-0.0963"/>
	</g>
	<g id="g814">
		<path id="path816" class="st16" d="M171.2353,589.4503h-0.0911"/>
	</g>
	<g id="g818">
		<path id="path820" class="st16" d="M171.2216,589.4134h-0.0864"/>
	</g>
	<g id="g822">
		<path id="path824" class="st11" d="M170.0481,590.0648c0.0572-0.0368,0.1549-0.0294,0.2047,0.0074
			c0.059-0.0331,0.166-0.024,0.2158,0.0203c0.0756-0.0516,0.1401-0.059,0.2139-0.0092c0.0572-0.0405,0.1457-0.0442,0.2139,0.0037
			c0.0663-0.0314,0.1401-0.0571,0.2046,0.011c-0.0387-0.0276-0.1217-0.0516-0.2046,0.0129
			c-0.0646-0.0646-0.177-0.0406-0.2139,0.0037c-0.048-0.0572-0.1494-0.0664-0.2102,0.0037
			c-0.0663-0.0554-0.1659-0.0572-0.2194-0.0148C170.2104,590.0703,170.1477,590.0427,170.0481,590.0648z"/>
	</g>
	<g id="g826">
		<path id="path828" class="st10" d="M171.0559,589.9855c-0.2932,0.0507-0.9321,0.0147-1.0723-0.0203
			c-0.0482-0.0121-0.035-0.0295,0.0055-0.0203c0.1615,0.0367,0.5061,0.0369,0.6961,0.0276
			c0.0369-0.0489,0.0949-0.1318,0.1125-0.1549c0.0175-0.0231,0.0253-0.0252,0.0618-0.0314c0.0654-0.011,0.1028-0.017,0.1595-0.0267
			c0.0009,0.0074,0.0009,0.0166,0.0009,0.0222c-0.0046,0.0037-0.0092,0.0101-0.0129,0.012c0,0.0378,0.0074,0.13,0.0148,0.1632
			c0.0074-0.0009,0.0166-0.0037,0.0212-0.0046C171.0559,589.9486,171.0687,589.9818,171.0559,589.9855z"/>
	</g>
	<g id="g830">
		<path id="path832" class="st10" d="M171.5361,589.9996c0.0106-0.0003,0.0326-0.0008,0.0387-0.0009
			c0.012-0.0003,0.0288-0.0085,0.0362-0.027c0.0074-0.0184,0.0302-0.0867,0.0385-0.1152l-0.0295-0.0445
			c0.0065-0.0367,0.0148-0.0864,0.0157-0.0966c0.0148-0.0056,0.0304-0.0111,0.0377-0.0139
			c0.0018-0.0083-0.0018-0.0309-0.0092-0.0382c-0.1263,0.0048-0.5043,0.0179-0.5735,0.0189c-0.0166,0-0.024-0.0007-0.0304,0.0231
			c-0.035,0.1309,0.0134,0.3146,0.1457,0.4203c0.0092,0.0074,0.0209,0.0012,0.0055-0.0129
			c-0.0221-0.0203-0.0562-0.0618-0.0793-0.1028c0.0258-0.0004,0.0782-0.0012,0.0939-0.0019
			c0.0075,0.031,0.0311,0.0964,0.0357,0.1075c0.0046,0.0111,0.016,0.0126,0.0106-0.0039c-0.0127-0.0387-0.0194-0.0828-0.0249-0.1041
			c0.024-0.0005,0.0692-0.0001,0.0968-0.0017c0.0014,0.035,0.0051,0.082,0.006,0.0949c0.0009,0.0129,0.012,0.0139,0.0122-0.0009
			c0.0003-0.0147,0.0006-0.0771,0.0004-0.0955c0.0312-0.0009,0.0711-0.0022,0.0859-0.0022
			c-0.0021,0.0199-0.0059,0.0844-0.0073,0.0946c-0.0021,0.0151,0.0057,0.0222,0.0094,0.0009
			c0.0037-0.0212,0.0111-0.0708,0.0131-0.0959c0.0125-0.0004,0.0453-0.0017,0.0592-0.0021
			c-0.0014,0.0197-0.0198,0.0794-0.0253,0.0951c-0.0055,0.0157,0.0034,0.0162,0.0096,0.0013
			C171.5141,590.0809,171.5343,590.021,171.5361,589.9996z"/>
	</g>
	<g id="g834">
		<path id="path836" d="M171.1176,589.9846c-0.0101-0.0203-0.0415-0.0924-0.0443-0.145c0.0268-0.0005,0.0937-0.0018,0.1259-0.0024
			c0.0048,0.0396,0.017,0.1249,0.0234,0.1451C171.1849,589.9832,171.1388,589.9844,171.1176,589.9846z"/>
	</g>
	<g id="g838">
		<path id="path840" d="M171.2214,589.8367c0.0035,0.0302,0.0193,0.134,0.0219,0.146c0.0274-0.0016,0.0908-0.0018,0.1018-0.0027
			c-0.0011-0.0277-0.0056-0.1315-0.0061-0.1462C171.3103,589.8345,171.2358,589.8364,171.2214,589.8367z"/>
	</g>
	<g id="g842">
		<path id="path844" d="M171.0784,589.7082c-0.0051,0.0266-0.006,0.0833-0.0046,0.1074c0.0323,0.0007,0.1118-0.0012,0.1228-0.0022
			c-0.0027-0.0275-0.007-0.0773-0.0098-0.1084C171.1604,589.7062,171.0959,589.7077,171.0784,589.7082z"/>
	</g>
	<g id="g846">
		<path id="path848" d="M171.2103,589.7047c0.0009,0.0258,0.0067,0.089,0.0085,0.1083c0.0279-0.0007,0.0961-0.0022,0.1192-0.003
			c-0.0012-0.0236-0.005-0.0997-0.0054-0.1089C171.2955,589.702,171.2337,589.7043,171.2103,589.7047z"/>
	</g>
	<g id="g850">
		<path id="path852" d="M171.3567,589.7003c0.0011,0.024,0.0042,0.0917,0.0033,0.1092c0.0296-0.0007,0.0861-0.0013,0.1037-0.0027
			c0.0013-0.024,0.0052-0.0928,0.0034-0.1104C171.4338,589.6976,171.3809,589.6994,171.3567,589.7003z"/>
	</g>
	<g id="g854">
		<path id="path856" d="M171.4873,589.6957c0,0.0203-0.0026,0.0916-0.0035,0.111c0.0293-0.0012,0.0959-0.0035,0.1132-0.0039
			c0.0046-0.0238,0.0138-0.0855,0.0166-0.1116C171.586,589.6921,171.5076,589.6951,171.4873,589.6957z"/>
	</g>
	<g id="g858">
		<path id="path860" d="M171.6016,589.8264c-0.0378,0.0012-0.0986,0.0029-0.1192,0.0036c-0.0032,0.0467-0.009,0.1274-0.0118,0.1458
			c0.0333-0.0007,0.1005-0.0028,0.1153-0.0032c0.0111-0.0222,0.035-0.0912,0.0406-0.1125
			C171.6182,589.8472,171.6118,589.8398,171.6016,589.8264z"/>
	</g>
	<g id="g862">
		<path id="path864" d="M171.3606,589.8333c0,0.0166,0.0029,0.1354,0.0036,0.1456c0.0216-0.0007,0.0778-0.0015,0.0861-0.0024
			c0.0042-0.0463,0.0105-0.1349,0.0116-0.146C171.4237,589.8315,171.3861,589.8326,171.3606,589.8333z"/>
	</g>
	<g id="g866">
		<path id="path868" d="M170.8715,589.8048l-0.048,0.0085c-0.0221,0.0358-0.1042,0.1464-0.1143,0.1593
			c0.0571-0.0016,0.1465-0.0034,0.168-0.0054C170.8756,589.9376,170.8716,589.8195,170.8715,589.8048z"/>
	</g>
	<g id="g870">
		<path id="path872" d="M170.8927,589.8008c0.0011,0.0378,0.0048,0.1386,0.0057,0.1653c0.0283-0.0016,0.0805-0.005,0.1017-0.0069
			c-0.0049-0.0475-0.0138-0.1611-0.0157-0.1749C170.9606,589.7887,170.9139,589.7969,170.8927,589.8008z"/>
	</g>
	<g id="g874">
		<path id="path876" class="st15" d="M170.3975,589.4022c0.0065,0.0001,0.0073,0.0056-0.0001,0.0056l-0.5448-0.0067
			c-0.0074-0.0001-0.0064-0.0056,0.0001-0.0056L170.3975,589.4022z"/>
	</g>
	<g id="g878">
		<path id="path880" class="st15" d="M170.8257,588.9663c0.0065,0.0002,0.0072,0.0057-0.0002,0.0056l-0.4316-0.0118
			c-0.0074-0.0002-0.0063-0.0057,0.0001-0.0056L170.8257,588.9663z"/>
	</g>
	<g id="g882">
		<path id="path884" class="st15" d="M170.3704,589.0906c0.0065,0.0001,0.0073,0.0056-0.0001,0.0055l-0.4831-0.0035
			c-0.0074,0-0.0064-0.0055,0-0.0055L170.3704,589.0906z"/>
	</g>
	<g id="g886">
		<path id="path888" class="st15" d="M170.3846,588.7771c0.0065,0,0.0074,0.0055,0,0.0055l-0.5053-0.0026
			c-0.0074,0-0.0064-0.0055,0.0001-0.0054L170.3846,588.7771z"/>
	</g>
	<g id="g890">
		<path id="path892" class="st15" d="M170.3496,588.5297c0.0065,0.0001,0.0072,0.0057-0.0001,0.0056l-0.4909-0.0074
			c-0.0074-0.0001-0.0064-0.0057,0.0001-0.0056L170.3496,588.5297z"/>
	</g>
	<g id="g894">
		<path id="path896" class="st14" d="M170.858,588.3847c0.0065-0.0001,0.0074,0.0054,0.0001,0.0056l-0.4213,0.004
			c-0.0074,0.0001-0.0065-0.0055-0.0001-0.0056L170.858,588.3847z"/>
	</g>
	<g id="g898">
		<path id="path900" class="st15" d="M170.8839,588.6205c0.0065,0,0.0074,0.0056,0,0.0056h-0.4656c-0.0074,0-0.0065-0.0056,0-0.0056
			H170.8839z"/>
	</g>
	<g id="g902">
		<path id="path904" class="st15" d="M171.3411,588.9562c0.0065,0,0.0074,0.0056,0,0.0056h-0.5018c-0.0074,0-0.0065-0.0056,0-0.0056
			H171.3411z"/>
	</g>
	<g id="g906">
		<path id="path908" class="st15" d="M171.3481,588.5366c0.0065,0.0001,0.0073,0.0056-0.0001,0.0056l-0.5126-0.0051
			c-0.0074-0.0001-0.0064-0.0056,0.0001-0.0056L171.3481,588.5366z"/>
	</g>
	<g id="g910">
		<path id="path912" class="st15" d="M170.8742,589.274c0.0065,0.0001,0.0073,0.0056-0.0001,0.0056l-0.451-0.003
			c-0.0074-0.0001-0.0064-0.0056,0.0001-0.0056L170.8742,589.274z"/>
	</g>
	<g id="g914">
		<path id="path916" class="st15" d="M171.3149,589.3352c0.0065,0.0001,0.0073,0.0056-0.0001,0.0056l-0.3964-0.0052
			c-0.0074-0.0001-0.0063-0.0056,0.0002-0.0056L171.3149,589.3352z"/>
	</g>
	<g id="g918">
		<path id="path920" class="st17" d="M171.6726,589.4111c0.0111-0.0248,0.0127-0.0817,0.0063-0.1032
			c-0.0172,0.0034-0.0317,0.0027-0.0459-0.0029c-0.0074-0.0029-0.0156-0.0054-0.0242-0.0075
			c-0.0016,0.0285-0.0119,0.1011-0.0247,0.1293c-0.0223,0.0063-0.0672-0.0011-0.0927-0.0091
			c-0.0067,0.0242-0.0129,0.0464-0.0186,0.0668c0.0317,0.0073,0.0715,0.0067,0.103-0.0006
			c-0.0025,0.0426-0.0081,0.0814-0.0311,0.1083c0.0377,0.0009,0.0714-0.0047,0.0837-0.0179
			c0.0011-0.0013,0.0024-0.0024,0.0038-0.0034c0.0174-0.0291,0.0179-0.067,0.0221-0.0925c0.0128,0.0009,0.0294-0.0027,0.0368-0.0101
			s0.0194-0.0111,0.0314-0.0101c0.0109,0.0008,0.028-0.0015,0.0496-0.0102c0.0006-0.0131,0.0031-0.0272,0.0076-0.0396
			c0.0024-0.0068,0.005-0.018,0.0072-0.0316C171.7594,589.39,171.6981,589.4119,171.6726,589.4111z"/>
	</g>
	<g id="g922">
		<path id="path924" d="M169.9128,587.0087c-0.0561,0.0016-0.1783,0.0028-0.204,0.0172c-0.0256,0.0145-0.0369,0.0209,0.008,0.0289
			c0.0449,0.008,0.1209,0.0294,0.1626,0.0551c0.0416,0.0256,0.0766,0.071,0.0651,0.1358c-0.0344,0.1946,0.0673,0.3818,0.2148,0.4524
			c0.0143,0.0068,0.0177,0.012,0.0145,0.0385c-0.0032,0.0265-0.0128,0.0706-0.0209,0.0818c-0.008,0.0113-0.012,0.0297,0.0136,0.0209
			c-0.0176,0.0329-0.0569,0.0987-0.0689,0.1155c-0.1179-0.0144-0.214,0.0016-0.2229,0.1251
			c-0.0009,0.012,0.0033,0.0313,0.0216,0.0009c0.0184-0.0305,0.0393-0.0594,0.0898-0.0674
			c-0.0296,0.0457-0.0392,0.0867-0.0344,0.1131c0.0048,0.0265,0.012,0.0425,0.0248,0.0088
			c0.0128-0.0336,0.0365-0.0651,0.0617-0.0842c0.0096-0.0071,0.016-0.0088,0.0088,0.0121s0.0032,0.0658,0.0177,0.0811
			c0.0144,0.0151,0.0216,0.0088,0.0176-0.0161c-0.004-0.0249,0.0023-0.0769,0.0329-0.0931
			c0.0441-0.0232,0.0817-0.0112,0.0994,0.0193c0.0176,0.0305,0.0329,0.0016,0.0136-0.0329
			c-0.0192-0.0345-0.0393-0.0586-0.0714-0.061c0.0281-0.0497,0.0609-0.1099,0.0682-0.1219c0.0072-0.0121,0.0184-0.0177,0.028-0.0104
			c0.0096,0.0072,0.016,0.0063,0.0257-0.0136c0.0096-0.0201,0.0264-0.0794,0.0504-0.1035c0.0121-0.0033,0.0313-0.0081,0.0385-0.0145
			c0.0313,0.0457,0.0593,0.0963,0.0666,0.1075c0.0072,0.0112,0.0152,0.016,0.008,0.0393c-0.0072,0.0233-0.0321,0.097-0.036,0.1131
			c-0.0874,0.0032-0.1274,0.0048-0.1555,0.0537c-0.0123,0.0214,0.0072,0.0297,0.0281,0.0184
			c0.0208-0.0112,0.0504-0.0209,0.0657-0.0184c0.0152,0.0024,0.0224,0.0102,0.0072,0.0176
			c-0.0536,0.0265-0.0872,0.0601-0.0849,0.1067c0.0008,0.0168,0.0077,0.0251,0.0209,0.0024c0.0184-0.032,0.0521-0.0641,0.093-0.073
			c-0.0024,0.0393,0.0065,0.097,0.0304,0.1091c0.0241,0.012,0.0258-0.0002,0.0168-0.0233c-0.0144-0.0369,0.0006-0.074,0.0185-0.0939
			c0.0377-0.0417,0.1235,0.016,0.1395,0.0305c0.016,0.0144,0.0306,0.0204,0.0216-0.0168c-0.0121-0.0497-0.0826-0.0786-0.1427-0.0866
			c0.0168-0.081,0.0617-0.2446,0.0858-0.3007c0.0353,0.0192,0.0628-0.0316,0.1218-0.0097c0.0993,0.0369,0.2484,0.1299,0.2741,0.1508
			c0.0256,0.0209,0.0353,0.0161,0.0481,0.0048c0.0128-0.0112,0.0353,0,0.0529,0.0032c0.0177,0.0032,0.0337,0.0081,0.0112-0.0369
			c-0.0224-0.0449-0.0769-0.1235-0.1683-0.1845c0.0545,0.0048,0.1283,0.0048,0.1283-0.0096c0-0.0145-0.085-0.0417-0.1203-0.0449
			c0.0337-0.008,0.085-0.0273,0.109-0.0546c0.0143-0.0161-0.0028-0.0198-0.0529-0.0208c-0.1539-0.0032-0.2308-0.002-0.311-0.0482
			c-0.1282-0.0738-0.2016-0.1515-0.2645-0.1844c-0.0336-0.0177-0.0541-0.0584-0.0671-0.0936
			c-0.0417-0.1123-0.0396-0.1628-0.1374-0.1997C170.0765,586.9171,169.9641,586.9623,169.9128,587.0087z"/>
	</g>
	<g id="g926">
		<path id="path928" class="st14" d="M169.919,587.0343c-0.0249-0.0009-0.0738-0.0068-0.1143-0.0027
			c-0.0092,0.0009-0.0203,0.0055,0.0018,0.0083c0.0221,0.0027,0.082,0.0175,0.1032,0.0248c0.0212,0.0074,0.012,0.0185-0.0065,0.0139
			c-0.0185-0.0046-0.0253,0.0022-0.0101,0.0129c0.0784,0.0554,0.0867,0.0765,0.0664,0.2664
			c0.0148,0.0101,0.0267,0.0175,0.0397,0.024c0.0129,0.0065,0.0092,0.0157-0.0046,0.012c-0.0138-0.0037-0.0267,0.0046-0.0046,0.0093
			c0.0221,0.0046,0.0322,0.0147,0.0111,0.0138c-0.0212-0.0009-0.0461,0.0175-0.0046,0.0129
			c0.0414-0.0046,0.058,0.0148,0.0092,0.0157c-0.0489,0.0009-0.0304,0.0166-0.0046,0.0166c0.0461,0,0.0322,0.0129,0.0203,0.0129
			c-0.012,0-0.0175,0.0157,0.0129,0.0129c0.0304-0.0027,0.0424-0.0037,0.0534-0.0018c0.0111,0.0018,0.0157,0.011-0.0009,0.012
			c-0.0166,0.0009-0.0157,0.0129,0.0092,0.0129s0.0353,0.0075,0.0129,0.012c-0.0092,0.0018-0.022,0.0065,0.0046,0.0101
			c0.0461,0.0065,0.048,0.0175,0.0332,0.0194c-0.0148,0.0018-0.0166,0.0101,0.0046,0.012c0.0211,0.0018,0.0396,0.0083,0.0221,0.0129
			c-0.0175,0.0046-0.0267,0.0147-0.0047,0.0166c0.0221,0.0018,0.0406,0.0101,0.024,0.0157
			c-0.0166,0.0055-0.0203,0.0157,0.0009,0.0147c0.0212-0.0009,0.0295,0.0111,0.0148,0.0193
			c-0.0148,0.0083-0.0249,0.0138-0.0341-0.0009c-0.0092-0.0148-0.0147-0.0194-0.0175-0.0083
			c-0.0028,0.011-0.0092,0.0037-0.0166-0.0129c-0.0074-0.0166-0.0203-0.0212-0.0166-0.0083
			c0.0037,0.0129-0.0129,0.0148-0.0286,0.0083c0.0581,0.059,0.1438,0.1125,0.2803,0.0571c0.0116-0.0047,0.0138,0,0.0231,0.0193
			c0.0092,0.0194,0.035,0.0618,0.0443,0.0775c0.0092,0.0157,0.0165,0.0015,0.0211-0.0139c0.0184-0.0609,0.0323-0.1061,0.0378-0.1226
			c0.0055-0.0166,0.0314-0.0332,0.0231,0.0248c0.0203-0.0139,0.1102-0.0269,0.1798-0.0009
			c0.0765,0.0286,0.1534,0.0729,0.1927,0.1024c0.0074,0.0055,0.0166,0.012,0.035,0.0101c0.0184-0.0018,0.0231-0.0046-0.012-0.0369
			c-0.035-0.0323-0.0202-0.048,0.0018-0.0323c0.0221,0.0157,0.0341,0.0065,0.0175-0.0129
			c-0.0166-0.0194-0.0562-0.0571-0.0691-0.0663c-0.0129-0.0092-0.0148-0.0129-0.0443-0.0148s-0.0922-0.0018-0.1106-0.0018
			c-0.0185,0-0.024,0.0018,0.0166,0.0166c0.0405,0.0146,0.1235,0.0682,0.142,0.0811c0.0184,0.0129,0.0314,0.0425-0.0092,0.0167
			c-0.0406-0.0259-0.1678-0.1051-0.2526-0.1346c-0.1936,0.0129-0.3467,0.0388-0.461-0.0866
			c-0.0548-0.0601-0.0572-0.1973,0.035-0.2545c-0.0184-0.0157-0.0157-0.0249-0.0083-0.0286
			c0.0074-0.0037,0.0101-0.0074,0.0028-0.0166c-0.0073-0.0092-0.0065-0.0175,0-0.0211c-0.0202-0.011-0.0294-0.024-0.0285-0.0378
			c-0.0249-0.0055-0.036-0.035-0.0692-0.0258c-0.0332,0.0092-0.0498,0.0018-0.0599-0.0065
			c-0.0102-0.0083-0.0184-0.012-0.0369-0.0101s-0.0332-0.0056-0.0341-0.0148c-0.0009-0.0092,0.0156-0.0137,0.0406-0.0027
			c0.0525,0.0231,0.0949,0.0341,0.1272-0.0092c0.0323-0.0433-0.0092-0.0839-0.071-0.0959
			C169.9873,586.9679,169.9421,587.0131,169.919,587.0343z"/>
	</g>
	<g id="g930">
		<path id="path932" class="st14" d="M170.2288,587.0186c-0.0186-0.0201-0.0517-0.0388-0.0682-0.0443
			c-0.0166-0.0056-0.0184,0.011-0.0092,0.0193c-0.0074,0.011-0.0101,0.0378,0.0028,0.0452c0.0129,0.0074,0.013,0.0179,0.0009,0.0239
			c-0.0184,0.0092-0.0122,0.0582,0.0156,0.0443c0.0092-0.0046,0.0166-0.0028,0.0148,0.0046s0.0018,0.0166,0.0101,0.0184
			c0.0083,0.0019,0.0074,0.0139,0.0055,0.0185c-0.0018,0.0046,0.0009,0.0065,0.0101,0.0074
			c0.0092,0.0009,0.0101,0.023-0.0065,0.0304c0.0203,0,0.0258-0.0037,0.0314,0.0129c0.0055,0.0165,0.0277,0.0202,0.0277,0.0405
			c0,0.0203-0.0037,0.024-0.0277,0.0203c-0.024-0.0037-0.0332,0.0037-0.0406,0.0129s-0.0092,0.0184,0.0092,0.0193
			s0.0221,0.0092,0.0037,0.0175c-0.0184,0.0083-0.0488,0.0028-0.0534,0.0203c-0.0046,0.0175,0,0.0258,0.0138,0.0193
			c0.0138-0.0064,0.0424-0.0184,0.0535-0.0248c0.0111-0.0065,0.0212-0.0074,0.0304,0.0074
			c0.0092,0.0148,0.0018,0.0313-0.0138,0.0184c-0.0157-0.0129-0.0231-0.001-0.0323,0.0064c-0.0092,0.0074-0.0231,0.012-0.0378,0.012
			c-0.0147,0-0.0248,0.002-0.023,0.0351c0.0055,0.0996,0.0829,0.1733,0.2249,0.1714c0.142-0.0018,0.2121-0.0037,0.2333-0.0009
			c-0.047-0.0258-0.0766-0.0397-0.0932-0.0378c-0.0166,0.0018-0.0304,0.0046-0.0231-0.0083
			c0.0074-0.0129-0.0009-0.0129-0.0083-0.0185c-0.0074-0.0055-0.0165-0.0129-0.0313,0.0028s-0.0498,0.0332-0.0673,0.0369
			c-0.0175,0.0037-0.0387,0.0028-0.0221-0.0138s0.0535-0.0222,0.0646-0.0295c0.0111-0.0074,0.0111-0.0119,0.0111-0.0175
			s-0.0028-0.0212,0.0184-0.0092c0.0424,0.024,0.1088,0.0599,0.1263,0.059c0.0175-0.0009,0.0295-0.0083,0.0138-0.0184
			c-0.0157-0.0102-0.0203-0.0248-0.0157-0.0304c0.0046-0.0056,0.0074-0.011,0.035,0.0046c0.0276,0.0156,0.0728,0.0359,0.0894,0.0433
			s0.0387,0.0046,0.0046-0.0203c-0.0341-0.0248-0.1401-0.0949-0.1696-0.1171c-0.0295-0.0222-0.0166,0.0046-0.0138,0.0129
			s-0.0203,0.0184-0.0323,0.0083s-0.0203-0.0212-0.0037-0.0305s0.0203-0.0101-0.0046-0.0323
			c-0.0248-0.022-0.0322-0.0202-0.0267-0.0018c0.0055,0.0184,0.0074,0.0388-0.0184,0.0286
			c-0.0258-0.0101-0.0387-0.0221-0.0221-0.0323c0.0166-0.0101,0.0378-0.0156,0.0101-0.0386c-0.0277-0.0231-0.0194,0-0.0258,0.0129
			c-0.0065,0.0129-0.0277,0.0129-0.0397,0.0028s-0.0175-0.0203-0.0092-0.0286s0.0074-0.0129,0.0194-0.0065
			c0.012,0.0065,0.0304,0.0028,0.0083-0.0166c-0.0221-0.0193-0.0304-0.011-0.0258,0c0.0046,0.0111-0.0129,0.0305-0.0405,0.0046
			c-0.0131-0.0122-0.0129-0.0286,0.0009-0.0314c0.0138-0.0027,0.0151-0.0099,0.0055-0.024
			C170.262,587.1458,170.2851,587.0794,170.2288,587.0186z"/>
	</g>
	<g id="g934">
		<path id="path936" class="st10" d="M170.2382,587.0297c-0.0048,0.0073-0.0066,0.007-0.0155,0.0129
			c-0.011,0.0073-0.0135,0.0283,0.005,0.0258c0.0128-0.0017,0.0202-0.0093,0.0253-0.0154
			C170.2488,587.0451,170.244,587.0374,170.2382,587.0297z"/>
	</g>
	<g id="g938">
		<path id="path940" class="st10" d="M170.1805,586.9833c-0.0142,0.0138-0.0167,0.02-0.0094,0.02
			c0.0086,0,0.0049,0.0012-0.0013,0.011c-0.0061,0.0099,0.0123,0.0148,0.0197,0.0074c0.0074-0.0074,0.0086-0.0099,0.0123,0
			c0.003,0.008,0.0151,0.0004,0.0228-0.0073C170.212,587.0022,170.1951,586.991,170.1805,586.9833z"/>
	</g>
	<g id="g942">
		<path id="path944" class="st10" d="M170.1551,587.0628c-0.0184,0.0092-0.0122,0.0582,0.0156,0.0443
			c0.0092-0.0046,0.0166-0.0028,0.0148,0.0046c-0.001,0.0039-0.0004,0.0084,0.0017,0.012c0.011-0.0046,0.022-0.0123,0.0306-0.0221
			c0.0172-0.0197,0.0012-0.0184-0.0246-0.0184c-0.0258,0-0.0332-0.0049-0.0087-0.0197c0.022-0.0132,0.0077-0.0223-0.0228-0.0181
			C170.1662,587.0516,170.164,587.0584,170.1551,587.0628z"/>
	</g>
	<g id="g946">
		<path id="path948" class="st10" d="M170.2608,587.1717c-0.0136-0.0148-0.005-0.0222,0.0098-0.0295
			c0.0036-0.0018,0.0061-0.004,0.0079-0.0068c-0.0042-0.0162-0.0075-0.0318-0.0119-0.047c-0.0077,0.0022-0.0167,0.0194-0.0193,0.028
			c-0.0037,0.0123-0.0074,0.0197-0.0197,0.0159c-0.0109-0.0032-0.0219,0.009-0.0241,0.0222
			c0.0017,0.0007,0.0043,0.0012,0.0078,0.0016c0.0051,0.0005,0.0077,0.0074,0.0061,0.0148
			c0.0333-0.0011,0.0389,0.0219,0.0446,0.0377c0.0062,0.0172,0.0135,0.0148,0.0184,0.0049S170.2743,587.1864,170.2608,587.1717z"/>
	</g>
	<g id="g950">
		<path id="path952" class="st18" d="M170.2706,587.3647c-0.006,0.0136-0.0062,0.0123-0.0258,0.0134
			c-0.0197,0.0013-0.0444,0.0046-0.0553,0.0161c-0.0059,0.0061-0.0399,0.0078-0.0399,0.0227c-0.0001,0.0151,0,0.0277,0.0148,0.0286
			c0.0147,0.0009,0.0165,0.0027,0.0111,0.0138c-0.0056,0.0111-0.0092,0.0295,0.0165,0.0314
			c0.0258,0.0018,0.0443-0.0065,0.0507,0.0082c0.0065,0.0148-0.0005,0.0383,0.0046,0.0471
			c0.0051,0.0087,0.0226,0.0143,0.0496,0.0227c0.018,0.0056,0.0861,0.0088,0.107,0.0064c0.0209-0.0025,0.0131-0.015-0.0079-0.0168
			c-0.0209-0.0018-0.0363-0.0049-0.0412-0.0202c-0.0049-0.0154-0.0092-0.0234,0.0025-0.0363
			c0.0116-0.0129,0.0233-0.0228,0.0166-0.0443c-0.0068-0.0215-0.0179-0.0468-0.0424-0.0535
			c-0.0246-0.0068-0.0168-0.0404-0.0412-0.0436C170.281,587.3591,170.2731,587.3591,170.2706,587.3647z"/>
	</g>
	<g id="g954">
		<path id="path956" class="st10" d="M170.1514,587.5644c0.0211,0.0018,0.0396,0.0083,0.0221,0.0129
			c-0.0175,0.0046-0.0267,0.0147-0.0047,0.0166c0.0221,0.0018,0.0406,0.0101,0.024,0.0157
			c-0.0166,0.0055-0.0203,0.0157,0.0009,0.0147c0.0212-0.0009,0.0295,0.0111,0.0148,0.0193
			c-0.0148,0.0083-0.0249,0.0138-0.0341-0.0009c-0.0092-0.0148-0.0147-0.0194-0.0175-0.0083
			c-0.0028,0.011-0.0092,0.0037-0.0166-0.0129c-0.0074-0.0166-0.0203-0.0212-0.0166-0.0083
			c0.0037,0.0129-0.0129,0.0148-0.0286,0.0083c0.0155,0.0157,0.0329,0.0309,0.0526,0.0439
			c0.0226-0.0078,0.0476-0.0015,0.0561-0.0006c0.0092,0.0009,0.0378,0.0074,0.0535,0.0157
			c0.0157,0.0083,0.0258-0.0065,0.0194-0.0231c-0.0065-0.0165-0.0074-0.011-0.0157-0.0018
			c-0.0083,0.0092-0.0101-0.0037-0.0092-0.023c0.0008-0.0163-0.0101-0.012-0.0138-0.0018s-0.012-0.0065-0.0074-0.0166
			s-0.0009-0.0138-0.0092-0.011s-0.0092,0-0.0101-0.0184c-0.0009-0.0185-0.0092-0.0157-0.012-0.0083
			c-0.0028,0.0073-0.0101-0.0028-0.0212-0.0176c-0.0096-0.0129-0.0208-0.0053-0.0401,0.0024
			C170.1404,587.5626,170.1448,587.5638,170.1514,587.5644z"/>
	</g>
	<g id="g958">
		<path id="path960" class="st18" d="M170.3754,587.6787c-0.1008,0.0409-0.1734,0.0227-0.2281-0.0135
			c0.0226-0.0078,0.0481-0.0012,0.0566-0.0003c0.0092,0.0009,0.0378,0.0074,0.0535,0.0157
			c0.0157,0.0083,0.0258-0.0065,0.0194-0.0231c0.0138,0.0175,0.024,0.0295,0.0405,0.0286
			C170.3339,587.6852,170.3616,587.6824,170.3754,587.6787z"/>
	</g>
	<g id="g962">
		<path id="path964" class="st18" d="M170.16,587.2147c-0.0062-0.0209-0.0123-0.0258-0.0233-0.0245
			c-0.0111,0.0012-0.016-0.0013-0.0283-0.0062c-0.0123-0.0049-0.0282,0.0012-0.0307,0.0233s-0.016,0.0332-0.0344,0.0467
			c-0.0184,0.0135-0.0295,0.0246-0.0295,0.0468s-0.0049,0.0283-0.0172,0.0443c-0.0055,0.0071-0.0132,0.0151-0.0204,0.0237
			c0.0079,0.0049,0.0154,0.0093,0.0232,0.0131c0.0129,0.0065,0.0092,0.0157-0.0046,0.012
			c-0.0138-0.0037-0.0267,0.0046-0.0046,0.0093c0.0221,0.0046,0.0322,0.0147,0.0111,0.0138
			c-0.0212-0.0009-0.0461,0.0175-0.0046,0.0129c0.0414-0.0046,0.058,0.0148,0.0092,0.0157
			c-0.0489,0.0009-0.0304,0.0166-0.0046,0.0166c0.0461,0,0.0322,0.0129,0.0203,0.0129c-0.012,0-0.0175,0.0157,0.0129,0.0129
			c0.0004-0.0001,0.0008-0.0001,0.0013-0.0001c0.0044-0.0046,0.0077-0.0103,0.0101-0.0174c0.0049-0.0148,0.0098-0.0579,0.027-0.0701
			c0.0172-0.0123,0.0258-0.0295,0.0258-0.0418c0-0.0123,0.0258-0.0663,0.043-0.0799
			C170.1588,587.265,170.1662,587.2356,170.16,587.2147z"/>
	</g>
	<g id="g966">
		<path id="path968" class="st10" d="M170.1243,587.2159c-0.0175-0.0117-0.0344-0.0049-0.0344,0.0172
			c0,0.0222-0.0111,0.0283-0.0258,0.0356c-0.0147,0.0074-0.0282,0.0258-0.0307,0.0431c-0.0024,0.0172,0.0025,0.0282-0.0098,0.0417
			c-0.0123,0.0135-0.0135,0.0245-0.0049,0.0319c0.0086,0.0074,0.0086,0.0087,0.0123,0.0197
			c0.0037,0.0111,0.0246-0.0012,0.0246-0.0134c0-0.0123,0.005-0.0123,0.0184-0.0197c0.0135-0.0074,0.0357-0.0431,0.0307-0.0529
			c-0.0049-0.0098-0.0172-0.0184-0.0012-0.032c0.016-0.0135,0.0332-0.0148,0.0332-0.0283c0-0.0135,0.0049-0.0184,0.0098-0.0233
			C170.1514,587.2307,170.1354,587.2233,170.1243,587.2159z"/>
	</g>
	<g id="g970">
		<path id="path972" d="M170.1243,587.1975c-0.0115-0.0045-0.0184,0.0197-0.0024,0.0233
			C170.1378,587.2245,170.1403,587.2036,170.1243,587.1975z"/>
	</g>
	<g id="g974">
		<path id="path976" d="M170.121,587.2288c-0.0122,0.0015-0.0258,0.0176-0.0055,0.0148
			C170.1357,587.2408,170.144,587.226,170.121,587.2288z"/>
	</g>
	<g id="g978">
		<path id="path980" d="M170.097,587.2592c-0.0126,0.0063-0.0101,0.0231,0.0083,0.011
			C170.1237,587.2583,170.1283,587.2435,170.097,587.2592z"/>
	</g>
	<g id="g982">
		<path id="path984" d="M170.0773,587.2848c-0.0126,0.0062-0.0101,0.0229,0.0083,0.011
			C170.1041,587.2839,170.1087,587.2691,170.0773,587.2848z"/>
	</g>
	<g id="g986">
		<path id="path988" d="M170.0515,587.2964c-0.0126,0.0063-0.0046,0.0231,0.0138,0.0111
			C170.0838,587.2955,170.0829,587.2807,170.0515,587.2964z"/>
	</g>
	<g id="g990">
		<path id="path992" d="M170.0675,587.3118c-0.0126,0.0063-0.0046,0.023,0.0138,0.011
			C170.0997,587.3109,170.0988,587.2961,170.0675,587.3118z"/>
	</g>
	<g id="g994">
		<path id="path996" d="M170.0453,587.3185c-0.0126,0.0063-0.0046,0.0231,0.0138,0.011
			C170.0776,587.3176,170.0767,587.3029,170.0453,587.3185z"/>
	</g>
	<g id="g998">
		<path id="path1000" d="M170.0595,587.3364c-0.0126,0.0063-0.0046,0.0231,0.0138,0.011
			C170.0917,587.3354,170.0908,587.3207,170.0595,587.3364z"/>
	</g>
	<g id="g1002">
		<path id="path1004" d="M170.0379,587.3469c-0.0126,0.0062-0.0046,0.0229,0.0138,0.011S170.0693,587.3312,170.0379,587.3469z"/>
	</g>
	<g id="g1006">
		<path id="path1008" d="M170.0398,587.3634c-0.0126,0.0063-0.0046,0.0231,0.0138,0.011
			C170.0721,587.3625,170.0712,587.3477,170.0398,587.3634z"/>
	</g>
	<g id="g1010">
		<path id="path1012" class="st10" d="M170.0296,587.5182c-0.0127,0.0016-0.0209,0.0198-0.0049,0.0234
			c0.016,0.0037,0.0197,0.0049,0.0197,0.0172c0,0.0123,0.005,0.0295,0.0221,0.0308c0.0172,0.0013,0.032-0.0184,0.0172-0.0245
			c-0.0148-0.0062-0.0283-0.0111-0.0295-0.0247C170.0531,587.5269,170.0395,587.5171,170.0296,587.5182z"/>
	</g>
	<g id="g1014">
		<path id="path1016" class="st18" d="M170.4823,587.4128c0.0023,0.0028,0.0051,0.0059,0.0084,0.0087
			c0.012,0.0101,0.035,0,0.0323-0.0083s-0.0157-0.0351,0.0138-0.0129c0.0295,0.0222,0.1355,0.0922,0.1696,0.1171
			c0.0341,0.0249,0.012,0.0277-0.0046,0.0203s-0.0618-0.0277-0.0894-0.0433c-0.0277-0.0157-0.0304-0.0102-0.035-0.0046
			c-0.0039,0.0046-0.0008,0.0157,0.0094,0.0252c-0.0165,0.0024-0.0432-0.0012-0.0509-0.0187
			c-0.0092-0.0212-0.0314-0.0471-0.047-0.0673C170.483,587.4213,170.4813,587.4167,170.4823,587.4128z"/>
	</g>
	<g id="g1018">
		<path id="path1020" class="st12" d="M171.3969,590.4336c-0.023,0.0157-0.0534,0.0433-0.0332,0.082
			c0.0024-0.0013,0.0047-0.0028,0.007-0.0042c0.0902-0.1091,0.1674-0.2238,0.2335-0.343c0.0008-0.0042,0.0015-0.0081,0.002-0.0115
			c-0.0258,0.0222-0.0664,0.0443-0.083,0.0497c0.0111,0.0295-0.0405,0.0683-0.0682,0.0793
			c0.0111,0.0184,0.0074,0.0461-0.0166,0.0516c0.0055,0.0165-0.0129,0.0165-0.035,0.0258s-0.0332,0.0166-0.0405,0.0277
			c0.0119-0.0065,0.0285-0.012,0.0378-0.0092c0.0092,0.0027,0.0111,0.0166-0.0055,0.0203
			c-0.0166,0.0037-0.0276,0.0129-0.0332,0.0203C171.3859,590.4133,171.42,590.4179,171.3969,590.4336z"/>
	</g>
	<g id="g1022">
		<path id="path1024" class="st15" d="M170.3035,587.3791c-0.0273-0.0238-0.0341-0.0093-0.0231,0.0055
			c0.0111,0.0148,0.0028,0.0222-0.0212,0.0258c-0.024,0.0037-0.06,0.0083-0.0747,0.0083s-0.0322,0.0203,0.0028,0.0185
			c0.035-0.0019,0.0941-0.0139,0.1098-0.0203C170.3127,587.4104,170.3256,587.3984,170.3035,587.3791z"/>
	</g>
	<g id="g1026">
		<path id="path1028" class="st15" d="M170.3569,587.4206c-0.0225-0.0203-0.0304-0.0148-0.0249,0
			c0.0055,0.0147-0.0046,0.0175-0.0193,0.0221c-0.0148,0.0046-0.0729,0.024-0.0978,0.0268
			c-0.0249,0.0027-0.0304,0.0203,0.0065,0.0193s0.1078-0.0305,0.1161-0.0359c0.0083-0.0056,0.0111-0.0166,0.0203-0.0111
			C170.3671,587.4473,170.3754,587.4372,170.3569,587.4206z"/>
	</g>
	<g id="g1030">
		<path id="path1032" class="st15" d="M170.3736,587.4796c-0.0163,0.0097-0.0571,0.0276-0.0737,0.0322
			c-0.0166,0.0046-0.0304,0.023,0.0046,0.0203c0.035-0.0027,0.0765-0.035,0.0876-0.0414c0.0111-0.0065,0.0166-0.011,0.0258-0.0101
			c0.0092,0.0009,0.0258-0.012-0.0046-0.0286c-0.0304-0.0166-0.0489-0.0083-0.0341,0.0046S170.3828,587.4741,170.3736,587.4796z"/>
	</g>
	<g id="g1034">
		<path id="path1036" d="M170.0862,587.0155c-0.0451-0.0296-0.0965,0.0324-0.0467,0.0664
			C170.0831,587.1117,170.1293,587.0438,170.0862,587.0155z"/>
	</g>
	<g id="g1038">
		<path id="path1040" class="st19" d="M170.0301,587.0426l0.0133,0.0009c-0.0028,0.0138,0.0111,0.0345,0.0323,0.0294
			C170.0587,587.0859,170.0255,587.0711,170.0301,587.0426z"/>
	</g>
	<g id="g1042">
		<path id="path1044" class="st19" d="M170.2049,587.7141c0.0136,0.004,0.061,0.0088,0.077,0.0096
			c-0.008,0.0169-0.0153,0.0281-0.0201,0.0402c-0.0048,0.012-0.0072,0.0128-0.008-0.0056
			c-0.0008-0.0185-0.0112-0.0305-0.0208-0.0113c-0.0097,0.0193-0.0145,0.0265-0.0192,0.0345
			c-0.0048,0.0081-0.0121,0.0113-0.0097-0.0088S170.2057,587.7317,170.2049,587.7141z"/>
	</g>
	<g id="g1046">
		<path id="path1048" class="st20" d="M171.9851,588.2559c-0.0033,1.1588-0.1861,2.4073-1.6862,3.002
			c-1.5001-0.5947-1.683-1.8431-1.6862-3.002H171.9851z"/>
	</g>
	<g id="g3680">
		<path id="path3682" class="st20" d="M171.9851,588.2559c0.0013-0.4365-0.023-0.8604-0.0119-1.2317
			c-0.5605-0.2509-1.2981-0.3024-1.6742-0.3024c-0.3762,0-1.1138,0.0516-1.6743,0.3024c0.0111,0.3713-0.0131,0.7952-0.0119,1.2317
			H171.9851z"/>
	</g>
</g>
</svg>
