<?xml version="1.0" encoding="utf-8"?>
<!-- Generator: Adobe Illustrator 21.1.0, SVG Export Plug-In . SVG Version: 6.00 Build 0)  -->
<svg version="1.1" id="Layer_1" xmlns="http://www.w3.org/2000/svg" xmlns:xlink="http://www.w3.org/1999/xlink" x="0px" y="0px"
	 viewBox="0 0 60 60" style="enable-background:new 0 0 60 60;" xml:space="preserve">
<style type="text/css">
	.st0{clip-path:url(#SVGID_2_);fill:#FFFFFF;}
	.st1{clip-path:url(#SVGID_4_);fill:#005DA4;}
	.st2{clip-path:url(#SVGID_6_);fill:#ED1C24;}
	.st3{fill:#FF0000;}
	.st4{fill:#005DA4;}
	.st5{fill:#FDE403;}
	.st6{fill:#FFFFFF;}
</style>
<g>
	<g>
		<g>
			<defs>
				<circle id="SVGID_1_" cx="30" cy="30" r="30"/>
			</defs>
			<clipPath id="SVGID_2_">
				<use xlink:href="#SVGID_1_"  style="overflow:visible;"/>
			</clipPath>
			<rect class="st0" width="60" height="20"/>
		</g>
	</g>
	<g>
		<g>
			<defs>
				<circle id="SVGID_3_" cx="30" cy="30" r="30"/>
			</defs>
			<clipPath id="SVGID_4_">
				<use xlink:href="#SVGID_3_"  style="overflow:visible;"/>
			</clipPath>
			<rect y="20" class="st1" width="60" height="20"/>
		</g>
	</g>
	<g>
		<g>
			<defs>
				<circle id="SVGID_5_" cx="30" cy="30" r="30"/>
			</defs>
			<clipPath id="SVGID_6_">
				<use xlink:href="#SVGID_5_"  style="overflow:visible;"/>
			</clipPath>
			<rect y="40" class="st2" width="60" height="20"/>
		</g>
	</g>
</g>
<g>
	<g>
		<path class="st3" d="M11.606,13.2831l12.6201,0.0097l0.2978,0.1094c-0.1401,2.3047-0.291,4.5078-0.4287,6.8086
			c-0.039,1.8848-0.5742,3.7812-1.7217,5.3018c-1.0883,1.4892-2.6836,2.5918-4.4526,3.1357
			c-2.251-0.6719-4.1875-2.2998-5.2227-4.4131c-0.6318-1.2422-0.8857-2.6318-0.937-4.0244
			c-0.1382-2.3125-0.4272-6.8086-0.4272-6.8086L11.606,13.2831z"/>
		<path class="st4" d="M11.606,13.2831c3.958-1.7198,8.664-1.708,12.6201,0.0097c0,0-0.2735,4.7491-0.4082,6.9532
			c-0.0362,1.7998-0.5498,3.6191-1.6465,5.0722c-1.0435,1.4238-2.5669,2.4805-4.2647,3.001
			c-2.1523-0.6436-4.0053-2.2022-4.998-4.2246c-0.6025-1.1885-0.8467-2.5156-0.897-3.8486
			C11.8804,18.0301,11.606,13.2831,11.606,13.2831z"/>
	</g>
	<g>
		<path class="st5" d="M16,13.1131c0.0645-0.1367,0.1421-0.2744,0.2056-0.416c0.0356,0.1026,0.1367,0.3164,0.1782,0.416
			c0.1113-0.0127,0.3393-0.0341,0.4531-0.0498c-0.0889,0.128-0.1767,0.252-0.2671,0.3789c0.0904,0.1143,0.1782,0.2413,0.2671,0.3663
			c-0.1138-0.0118-0.3418-0.0342-0.4531-0.0498c-0.065,0.1445-0.1275,0.2929-0.1929,0.4316
			c-0.0615-0.1387-0.1264-0.2871-0.1792-0.4316c-0.1113,0.0156-0.3393,0.038-0.4502,0.0498c0.0879-0.125,0.1743-0.252,0.2647-0.3663
			c-0.0679-0.1005-0.2022-0.2783-0.2647-0.3789C15.6724,13.079,15.8911,13.1004,16,13.1131L16,13.1131z"/>
		<path class="st5" d="M19.6558,12.6971c0.0639,0.1416,0.125,0.2793,0.1894,0.416c0.1167-0.0127,0.3423-0.0341,0.4551-0.0498
			c-0.0869,0.128-0.1729,0.252-0.2642,0.3789c0.065,0.0918,0.2051,0.2793,0.2642,0.3663c-0.1128-0.0118-0.3384-0.0342-0.4551-0.0498
			c-0.0513,0.1044-0.1255,0.3193-0.1782,0.4179c-0.061-0.1396-0.124-0.2656-0.2017-0.4023
			c-0.1132,0.0107-0.3261,0.0224-0.4301,0.0224c0.0644-0.0859,0.1816-0.2627,0.2417-0.3652
			c-0.0601-0.0898-0.189-0.2783-0.2417-0.3682c0.1162,0.0157,0.331,0.0371,0.4428,0.0498
			C19.5259,13.0135,19.6206,12.7997,19.6558,12.6971L19.6558,12.6971z"/>
		<path class="st5" d="M17.7437,15.4276c0.041-0.1006,0.1313-0.3135,0.1811-0.4141c0.063,0.1377,0.1255,0.2774,0.2158,0.4024
			c0.0996-0.0108,0.314-0.0264,0.4146-0.0264c-0.062,0.0889-0.1758,0.2666-0.2383,0.3574c0.0625,0.0996,0.188,0.291,0.2383,0.3799
			c-0.1118-0.0146-0.3301-0.041-0.4424-0.0527c-0.0498,0.1025-0.1382,0.3037-0.188,0.417c-0.0635-0.1367-0.1138-0.2754-0.1811-0.417
			c-0.1104,0.0117-0.3365,0.0381-0.4507,0.0527c0.0874-0.1289,0.1767-0.2549,0.2636-0.3799
			c-0.0639-0.0908-0.2006-0.2802-0.2636-0.3701C17.4072,15.3895,17.6333,15.4159,17.7437,15.4276L17.7437,15.4276z"/>
		<path class="st6" d="M16.4443,20.3749c0.4947-0.9991,0.9859-1.9844,1.4805-2.9727c0.5068,0.9883,0.9985,1.9736,1.4927,2.9727
			c0.3291-0.4434,0.6587-0.8858,0.9883-1.3301c0.8339,1.1142,1.6523,2.2139,2.4868,3.3164
			c-0.0225,0.832-0.7041,1.5918-1.5528,1.6289c-0.644,0.1035-1.1362-0.4668-1.7832-0.4316
			c-0.583-0.0118-1.0517,0.4843-1.6464,0.4443c-0.5928,0.0127-1.0484-0.4678-1.6426-0.4443
			c-0.6319-0.0118-1.1392,0.5478-1.7822,0.4316c-0.8355-0.0508-1.48-0.8076-1.5191-1.6289
			c0.8335-1.0889,1.6558-2.2022,2.4922-3.3164C15.7886,19.4891,16.1143,19.9315,16.4443,20.3749L16.4443,20.3749z"/>
		<path class="st6" d="M15.1284,24.3973c0.4204-0.1523,0.8208-0.416,1.2783-0.3545c0.5323,0.0362,0.9595,0.4414,1.5035,0.4287
			c0.5947,0.0391,1.0507-0.4414,1.6464-0.4287c0.5962-0.04,1.0655,0.4414,1.6416,0.4287c0.3965,0.0245,0.7496-0.167,1.1001-0.3144
			c-0.1386,0.2266-0.2504,0.4658-0.417,0.6553c-0.5278,0.2529-1.1196,0.1269-1.603-0.1426
			c-0.5185-0.2637-1.1269-0.1738-1.6201,0.1064c-0.5176,0.2774-1.1504,0.1905-1.6562-0.0898
			c-0.5186-0.2803-1.1387-0.1904-1.6348,0.0898c-0.4409,0.2412-0.9561,0.2022-1.4258,0.0489
			c-0.1143-0.2256-0.2422-0.4541-0.3818-0.668C14.042,24.3973,14.5996,24.5995,15.1284,24.3973L15.1284,24.3973z"/>
		<path class="st6" d="M14.3687,25.4315c0.5952,0.0772,1.1035-0.2773,1.6557-0.4141c0.7236-0.1777,1.293,0.4913,2.0156,0.4014
			c0.5044-0.0137,0.897-0.3906,1.3887-0.418c0.7334-0.0839,1.3159,0.544,2.065,0.4307c-0.9375,1.1397-2.1636,2.0391-3.5689,2.5205
			C16.5347,27.4706,15.2915,26.5712,14.3687,25.4315L14.3687,25.4315z"/>
	</g>
</g>
</svg>
