<?xml version="1.0" encoding="utf-8"?>
<!-- Generator: Adobe Illustrator 21.1.0, SVG Export Plug-In . SVG Version: 6.00 Build 0)  -->
<svg version="1.1" id="Layer_1" xmlns="http://www.w3.org/2000/svg" xmlns:xlink="http://www.w3.org/1999/xlink" x="0px" y="0px"
	 viewBox="0 0 60 60" style="enable-background:new 0 0 60 60;" xml:space="preserve">
<style type="text/css">
	.st0{clip-path:url(#SVGID_2_);fill:#FFFFFF;}
	.st1{clip-path:url(#SVGID_4_);fill:#0B4EA2;}
	.st2{clip-path:url(#SVGID_6_);fill:#EE1C25;}
	.st3{fill:#FFFFFF;}
	.st4{fill:#EE1C25;}
	.st5{fill:#0B4EA2;}
</style>
<g>
	<g>
		<defs>
			<circle id="SVGID_1_" cx="30" cy="30" r="30"/>
		</defs>
		<clipPath id="SVGID_2_">
			<use xlink:href="#SVGID_1_"  style="overflow:visible;"/>
		</clipPath>
		<rect class="st0" width="60" height="20"/>
	</g>
	<g>
		<defs>
			<circle id="SVGID_3_" cx="30" cy="30" r="30"/>
		</defs>
		<clipPath id="SVGID_4_">
			<use xlink:href="#SVGID_3_"  style="overflow:visible;"/>
		</clipPath>
		<rect y="20" class="st1" width="60" height="20"/>
	</g>
	<g>
		<defs>
			<circle id="SVGID_5_" cx="30" cy="30" r="30"/>
		</defs>
		<clipPath id="SVGID_6_">
			<use xlink:href="#SVGID_5_"  style="overflow:visible;"/>
		</clipPath>
		<rect y="40" class="st2" width="60" height="20"/>
	</g>
</g>
<g>
	<g>
		<path class="st3" d="M29.525,17.5083c-6.3515,0-12.7085,0-19.0615,0c-0.2788,3.9072-0.7212,7.8515-0.27,11.7705
			c0.2895,2.584,1.0776,5.1621,2.5586,7.3301c1.768,2.622,4.4287,4.5166,7.2436,5.8828c2.8106-1.378,5.4727-3.2608,7.2422-5.8828
			c1.4805-2.168,2.27-4.7461,2.5596-7.3301C30.2462,25.3598,29.7975,21.4155,29.525,17.5083z"/>
	</g>
	<g>
		<path class="st4" d="M10.9181,18.104c6.0503,0,12.105,0,18.1533,0c0.2593,3.7207,0.6851,7.4775,0.2593,11.207
			c-0.2774,2.4648-1.0269,4.918-2.4365,6.9795c0.1938-1.0967-0.544-2.2295-1.6011-2.5527
			c-0.8257-0.2725-1.8008-0.0508-2.4102,0.5918c-0.3266-0.8575-0.9873-1.6182-1.8803-1.918c-0.0088-1.1533,0-2.3037,0-3.4561
			c0.4658-0.0088,0.9365,0,1.4018,0c1.1323,0.0137,2.2471,0.2227,3.356,0.4278c-0.3306-0.9268-0.3306-1.9434-0.0088-2.8721
			c-1.0723,0.2051-2.1616,0.4082-3.2588,0.4268c-0.4897,0.0156-0.981,0-1.4741,0.0156c-0.0249-0.7832-0.0249-1.5596-0.0069-2.334
			c1.2598-0.0098,2.5088,0.1934,3.7373,0.4355c-0.3203-0.9287-0.3203-1.9443,0.0127-2.874
			c-1.2412,0.2412-2.4902,0.4639-3.7592,0.4268c-0.0088-1.2129,0.2055-2.4072,0.436-3.5947c-0.9365,0.3203-1.9521,0.3203-2.8906,0
			c0.2324,1.1875,0.4482,2.3818,0.438,3.5947c-1.2691,0.0371-2.5171-0.1856-3.7574-0.4268c0.3301,0.9297,0.3218,1.9453,0.0113,2.874
			c1.2373-0.2304,2.4863-0.4707,3.7563-0.4267c-0.0283,0.7773,0.0161,1.5517-0.0283,2.3252c-0.4897-0.0156-0.9819,0-1.4707-0.0156
			c-1.0982-0.0186-2.1875-0.2217-3.2598-0.4268c0.3189,0.9287,0.3189,1.9453-0.0078,2.8721
			c1.5684-0.3194,3.1597-0.5088,4.7564-0.4141c-0.0093,1.1465,0.0102,2.2891,0,3.4424c-0.7427,0.2539-1.3579,0.8164-1.6944,1.5117
			c-0.0639,0.1377-0.1108,0.2803-0.1894,0.4063c-0.625-0.6631-1.6431-0.876-2.4888-0.5645
			c-1.0107,0.3496-1.7075,1.4639-1.519,2.5254c-1.4087-2.0615-2.1587-4.5147-2.4351-6.9795
			C10.2325,25.5815,10.649,21.8247,10.9181,18.104L10.9181,18.104z"/>
		<path class="st3" d="M18.548,19.0132c0.9385,0.3203,1.9541,0.3203,2.8906,0c-0.2305,1.1875-0.4448,2.3818-0.436,3.5947
			c1.269,0.0371,2.518-0.1856,3.7592-0.4268c-0.333,0.9297-0.333,1.9453-0.0127,2.874c-1.2285-0.2421-2.4775-0.4453-3.7373-0.4355
			c-0.018,0.7744-0.018,1.5508,0.0069,2.334c0.4931-0.0156,0.9844,0,1.4741-0.0156c1.0972-0.0186,2.1865-0.2217,3.2588-0.4268
			c-0.3218,0.9287-0.3218,1.9453,0.0088,2.8721c-1.1089-0.2051-2.2237-0.4141-3.356-0.4278c-0.4653,0-0.936-0.0088-1.4018,0
			c0,1.1524-0.0088,2.3028,0,3.4561c-0.6416-0.2354-1.3745-0.2354-2.0166,0c0.0102-1.1533-0.0093-2.2959,0-3.4424
			c-1.5967-0.0947-3.188,0.0947-4.7564,0.4141c0.3267-0.9268,0.3267-1.9434,0.0078-2.8721
			c1.0723,0.2051,2.1616,0.4082,3.2598,0.4268c0.4888,0.0156,0.981,0,1.4707,0.0156c0.0444-0.7735,0-1.5479,0.0283-2.3252
			c-1.27-0.044-2.519,0.1963-3.7563,0.4267c0.3105-0.9287,0.3188-1.9443-0.0113-2.874c1.2403,0.2412,2.4883,0.4639,3.7574,0.4268
			C18.9962,21.395,18.7804,20.2007,18.548,19.0132L18.548,19.0132z"/>
		<path class="st5" d="M18.986,32.4116c0.6421-0.2354,1.375-0.2354,2.0166,0c0.893,0.2998,1.5537,1.0605,1.8803,1.918
			c0.6094-0.6426,1.5845-0.8643,2.4102-0.5918c1.0571,0.3232,1.7949,1.456,1.6011,2.5527c-1.687,2.499-4.2251,4.292-6.8985,5.6035
			c-2.6787-1.3008-5.2143-3.1045-6.9013-5.6035c-0.1885-1.0615,0.5083-2.1758,1.519-2.5254
			c0.8457-0.3115,1.8638-0.0986,2.4888,0.5645c0.0786-0.126,0.1255-0.2686,0.1894-0.4063
			C17.6281,33.228,18.2433,32.6655,18.986,32.4116L18.986,32.4116z"/>
	</g>
</g>
</svg>
