<?xml version="1.0" encoding="utf-8"?>
<!-- Generator: Adobe Illustrator 22.0.0, SVG Export Plug-In . SVG Version: 6.00 Build 0)  -->
<svg version="1.1" id="Layer_1" xmlns="http://www.w3.org/2000/svg" xmlns:xlink="http://www.w3.org/1999/xlink" x="0px" y="0px"
	 viewBox="0 0 60 60" style="enable-background:new 0 0 60 60;" xml:space="preserve">
<style type="text/css">
	.st0{clip-path:url(#SVGID_2_);fill:#012A87;}
	.st1{clip-path:url(#SVGID_2_);fill:#DC171D;}
	.st2{clip-path:url(#SVGID_2_);fill:#FFFFFF;}
	.st3{clip-path:url(#SVGID_2_);fill:#FFFF00;}
	.st4{clip-path:url(#SVGID_2_);fill:#F9D90F;stroke:#000000;stroke-width:0.0194;}
	.st5{clip-path:url(#SVGID_2_);fill:#62AFE1;}
	.st6{clip-path:url(#SVGID_2_);fill:none;stroke:#000000;stroke-width:0.0833;}
	.st7{clip-path:url(#SVGID_2_);fill:#F9D90F;}
	.st8{clip-path:url(#SVGID_2_);fill:none;stroke:#000000;stroke-width:0.0194;}
	.st9{clip-path:url(#SVGID_2_);fill:#7E7E7E;}
	.st10{clip-path:url(#SVGID_2_);fill:#F9B60F;stroke:#000000;stroke-width:0.0194;}
	.st11{clip-path:url(#SVGID_2_);fill:#BC715F;}
	.st12{clip-path:url(#SVGID_2_);fill:#008830;}
	.st13{clip-path:url(#SVGID_2_);}
</style>
<g>
	<defs>
		<circle id="SVGID_1_" cx="30" cy="30" r="30"/>
	</defs>
	<clipPath id="SVGID_2_">
		<use xlink:href="#SVGID_1_"  style="overflow:visible;"/>
	</clipPath>
	<path class="st0" d="M-15,0h90v60h-90V0z"/>
	<path class="st1" d="M-15,0h90v30h-90V0z"/>
	<path class="st2" d="M-15,0v60l40-30L-15,0z"/>
	<path class="st3" d="M12.907,26.0519l0.0064-0.2492c0,0-0.1338-0.2132,0.0216-0.4422c0,0-0.3301-0.1746-0.2533-0.448
		c0,0-0.2984-0.0763-0.2764-0.4045c0,0-0.322-0.0224-0.3555-0.2965c0,0-0.3221,0.0529-0.4638-0.2141c0,0-0.3142,0.0613-0.4028-0.159
		c0,0-0.3055,0.1059-0.4867-0.1531c0,0-0.3226,0.1304-0.4577-0.114c-0.1334,0.2436-0.456,0.1141-0.456,0.1141
		c-0.1791,0.2579-0.4867,0.1508-0.4867,0.1508c-0.0855,0.2211-0.3988,0.1584-0.3988,0.1584
		c-0.1413,0.2673-0.4629,0.2142-0.4629,0.2142c-0.0316,0.2733-0.3533,0.2957-0.3533,0.2957
		c0.0254,0.3291-0.2726,0.4038-0.2726,0.4038c0.0787,0.2733-0.251,0.4475-0.251,0.4475c0.1593,0.2304,0.0268,0.4419,0.0268,0.4419
		l-0.0074,0.2299l5.331,0.0246"/>
	<path class="st4" d="M12.907,26.0519l0.0065-0.2492c0,0-0.1338-0.2132,0.0216-0.4423c0,0-0.3302-0.1746-0.2533-0.448
		c0,0-0.2985-0.0764-0.2765-0.4046c0,0-0.3221-0.0223-0.3554-0.2965c0,0-0.3222,0.053-0.4639-0.2141
		c0,0-0.3143,0.0613-0.4028-0.1589c0,0-0.3054,0.1058-0.4866-0.1531c0,0-0.3226,0.1303-0.4578-0.1141
		c-0.1334,0.2436-0.456,0.1141-0.456,0.1141c-0.1791,0.258-0.4868,0.1509-0.4868,0.1509c-0.0856,0.2211-0.3989,0.1584-0.3989,0.1584
		c-0.1413,0.2673-0.463,0.2141-0.463,0.2141c-0.0316,0.2735-0.3532,0.2958-0.3532,0.2958c0.0254,0.329-0.2725,0.4036-0.2725,0.4036
		c0.0786,0.2733-0.251,0.4475-0.251,0.4475c0.1593,0.2304,0.0268,0.4418,0.0268,0.4418L7.577,26.0272l5.3309,0.0246L12.907,26.0519
		L12.907,26.0519z"/>
	<path class="st1" d="M12.7824,25.7407c-0.8374-0.0837-1.8015-0.2826-2.5458,0.1365c-0.4989-0.2941-1.1936-0.276-1.7852-0.2184
		c-0.3213,0.0575-0.6991,0.0575-1.0346,0.1123l-0.0527,0.0074c-0.6091,0.0404-1.1616-0.1395-1.6909-0.376
		c0.1681,0.9538,0.3546,1.9314,0.4463,2.93c0.1996,1.479-0.6999,2.7207-0.3309,4.1818c0.2202,0.7011,0.9913,1.1087,1.697,1.1895
		c0.6833,0.0402,1.3902,0.1522,2.0226,0.2895c0.1202,0.025,0.2629,0.0809,0.3459,0.1166c0.1742,0.073,0.3018,0.18,0.4137,0.2945
		c0.3818-0.3976,0.9412-0.5082,1.4933-0.5665c0.9949-0.1163,2.2214-0.0531,2.8305-0.9542v-0.0511
		c0.3309-0.4983,0.2869-1.2587,0.1435-1.8235c-0.0097-0.1969-0.0622-0.3706-0.0909-0.5585c-0.6078-1.6049-0.0873-3.41,0.1743-5.0277
		c-0.3195,0.1746-0.6759,0.2571-1.0313,0.3444c-0.2833,0.0379-0.5994,0.0207-0.8864,0.0052l-0.1189-0.032"/>
	<path class="st5" d="M14.0331,30.3468c-0.004,0.1057,0.0531,0.1887,0.0737,0.2864c0.1163,0.7016,0.2287,1.6309-0.4937,2.0662
		c-0.7991,0.508-1.847,0.2905-2.7717,0.5594c-0.1847,0.0513-0.4393,0.2211-0.5692,0.3413
		c-0.0834-0.0548-0.1671-0.1391-0.2748-0.1886c-0.7609-0.4045-1.75-0.269-2.6087-0.4875c-0.4314-0.1364-0.8812-0.4724-0.9905-0.9139
		c-0.2809-1.1583,0.3918-2.1454,0.3124-3.2945c-0.0514-0.8775-0.1989-1.7199-0.4015-2.5426
		c0.6714,0.3128,1.4485,0.3649,2.2034,0.215c0.559-0.0781,1.2099-0.0798,1.7338,0.1567c0.2887-0.1243,0.6266-0.1799,0.9378-0.2142
		c0.5915,0.0575,1.2273,0.1646,1.8365,0.1603c0.4068-0.0212,0.7763-0.1388,1.13-0.2955c-0.2098,1.3598-0.6126,2.784-0.1181,4.1517"
		/>
	<path class="st2" d="M12.8253,30.6179l-0.0064-1.2786h0.1574l-1.9545-1.2622l-0.0036-0.6561h0.1888l-0.9774-0.6998l-0.9724,0.6994
		h0.1882l0.0036,0.6554l-1.944,1.2607l0.1553,0.0009l0.0066,1.2777l5.1581,0.0036"/>
	<path class="st6" d="M12.8253,30.6179l-0.0065-1.2786h0.1574l-1.9546-1.2622l-0.0036-0.6559h0.1889l-0.9774-0.6999l-0.9725,0.6994
		h0.1882l0.0036,0.6554l-1.9441,1.2606l0.1554,0.0009l0.0065,1.2777l5.1582,0.0036L12.8253,30.6179L12.8253,30.6179z"/>
	<path class="st2" d="M13.4261,32.2975l0.0004,0.4001l-6.2968-0.007l-0.0026-0.3985l6.2995,0.0054"/>
	<path class="st6" d="M13.4261,32.2974l0.0004,0.4002l-6.2969-0.007l-0.0026-0.3984l6.2995,0.0053h-0.0004V32.2974z"/>
	<path class="st2" d="M7.5479,32.2733l-0.0052-1.354l0.255-0.0005l-0.0141,1.3698l0.0155-1.3587l-0.3673-0.0105v-0.2905
		l5.6277,0.0062l0.0026,0.2878h-0.347l0.0064,1.3711l-0.0122-1.3711h0.2583l0.0057,1.3557"/>
	<path class="st6" d="M7.5479,32.2734l-0.0053-1.354l0.255-0.0005l-0.0141,1.3698l0.0154-1.3588l-0.3673-0.0105v-0.2905
		l5.6276,0.0062l0.0027,0.2878h-0.3471l0.0065,1.371l-0.0123-1.3711h0.2584l0.0058,1.3556 M8.7577,31.9398l-0.004-0.9442H7.998
		l0.0043,0.9433L8.7577,31.9398 M8.7577,31.9398l-0.004-0.9442H7.998l0.0043,0.9433L8.7577,31.9398 M8.7576,31.9398l-0.004-0.9442
		H7.9979l0.0043,0.9433L8.7576,31.9398 M8.7575,31.9398l-0.004-0.9442H7.9978l0.0043,0.9433L8.7575,31.9398 M8.7574,31.9398
		l-0.004-0.9442H7.9978l0.0043,0.9433L8.7574,31.9398 M8.2035,31.1925l0.0022,0.5485h0.3458l-0.0017-0.5485H8.2035 M12.4514,31.9424
		l-0.0043-0.9433l-0.7531-0.0009l0.0036,0.9442H12.4514 M11.8976,31.196l0.004,0.5468h0.3453l-0.003-0.5467L11.8976,31.196
		 M12.4457,30.4051l-0.0043-0.9442h-0.7541l0.0027,0.9442h0.7562h-0.0004H12.4457z M11.8919,29.6596l0.0022,0.5476h0.3455
		l-0.0004-0.5476h-0.3467 M8.7517,30.4016l-0.0053-0.9425l-0.7543-0.0009l0.0036,0.9428h0.7561v0.0006L8.7517,30.4016z
		 M8.1978,29.6561l0.0018,0.5467l0.3462,0.0009l-0.0026-0.5476H8.1979 M10.1192,30.4033l-0.0036-0.9424L9.3608,29.46l0.0032,0.9433
		L10.1192,30.4033 M9.5658,29.657l0.0017,0.5467l0.3458,0.0017L9.9112,29.657L9.5658,29.657 M11.1733,30.4051l-0.0053-0.9442
		L10.4137,29.46l0.0036,0.9433l0.7561,0.0018 M10.619,29.658l0.0027,0.5485h0.3458l-0.0018-0.5485H10.619"/>
	<path class="st2" d="M11.3601,30.1156l0.0084,2.1766l-2.1867-0.0036l-0.0079-2.1748l2.1859,0.0017"/>
	<path class="st6" d="M11.3601,30.1155l0.0084,2.1767l-2.1867-0.0036l-0.0079-2.1748l2.1858,0.0017H11.3601z M9.1606,30.7368
		l2.2016,0.0017 M9.1606,30.7368l2.2016,0.0017 M9.1606,30.7368l2.2016,0.0017 M9.1606,30.7368l2.2016,0.0017 M9.1606,30.7368
		l2.2016,0.0017 M9.4353,32.2913L9.428,30.7531 M11.1025,32.2922l-0.0074-1.5374 M12.1584,29.1886l-1.2313-0.8992l-1.3837-0.0017
		L8.3217,29.185L12.1584,29.1886 M9.65,27.5433l0.0022,0.5484l1.1638,0.0009l-0.0022-0.5485L9.65,27.5433 M9.65,27.5433
		l0.0022,0.5484l1.1638,0.0009l-0.0022-0.5485L9.65,27.5433"/>
	<path class="st6" d="M9.6499,27.5433l0.0022,0.5484l1.1638,0.0009l-0.0022-0.5485L9.6499,27.5433"/>
	<path class="st6" d="M9.9654,27.6792l0.0018,0.2733h0.5345l-0.0018-0.2733H9.9654 M10.2297,26.9192l0.6474,0.4575L9.5872,27.375
		L10.2297,26.9192 M10.2297,26.9193l0.6474,0.4575l-1.2898-0.0017L10.2297,26.9193 M10.2297,26.9194l0.6474,0.4575l-1.2898-0.0017
		L10.2297,26.9194 M10.2297,26.9195l0.6474,0.4575l-1.2898-0.0017L10.2297,26.9195 M10.2297,26.9195l0.6474,0.4575l-1.2898-0.0017
		L10.2297,26.9195"/>
	<path class="st2" d="M12.8469,26.609c0.1839-0.0044,0.2313,0.7573,0.2317,1.1346c0.1579,0.0444,0.5082,0.2645,0.6631,0.4636
		l-1.7765-0.0026c0.1527-0.1966,0.5004-0.4176,0.657-0.4619c0-0.3778,0.0386-1.1391,0.2247-1.1346"/>
	<path class="st6" d="M12.8468,26.609c0.184-0.0043,0.2314,0.7573,0.2318,1.1346c0.1579,0.0443,0.5082,0.2645,0.6631,0.4637
		l-1.7764-0.0026c0.1528-0.1966,0.5003-0.4177,0.657-0.462c0-0.3777,0.0386-1.139,0.2247-1.1345 M9.2762,30.1766h0.1593
		L9.389,30.2621 M9.2762,30.1767h0.1593L9.389,30.2621 M9.2762,30.1767h0.1593L9.389,30.2622 M9.2762,30.1768h0.1593L9.389,30.2623
		 M9.2762,30.1769h0.1593L9.389,30.2624c0,0,0.0768,0.0987,0.0013,0.2119l0.0418,0.0786H9.2784l0.0417-0.0745
		c0,0-0.0786-0.1312,0.0036-0.2159L9.2763,30.177 M9.601,30.177h0.1593l-0.0461,0.0855c0,0,0.0768,0.0962,0.0005,0.2119
		L9.756,30.553H9.6028l0.0412-0.0745c0,0-0.0768-0.1312,0.004-0.2159l-0.0469-0.0854 M9.9551,30.1772h0.1589l-0.0474,0.0855
		c0,0,0.0776,0.0987,0.0013,0.2119l0.0417,0.0804l-0.1523-0.0017l0.0408-0.0745c0,0-0.0776-0.1303,0.0031-0.2159l-0.0465-0.0854
		h0.0004L9.9551,30.1772z M10.355,30.1779h0.1603l-0.0469,0.0865c0,0,0.0767,0.097,0.0004,0.2106l0.043,0.0799h-0.1545
		l0.0412-0.0746c0,0-0.0768-0.132,0.0053-0.2159l-0.0483-0.0865H10.355L10.355,30.1779z M10.7104,30.1779h0.159l-0.0469,0.0865
		c0,0,0.0771,0.097,0.0007,0.2102l0.0422,0.0804h-0.1531l0.0399-0.0746c0,0-0.0771-0.1312,0.0061-0.2159L10.7104,30.1779
		 M11.0638,30.179l0.1589-0.0009l-0.0469,0.0865c0,0,0.0786,0.0969,0.0022,0.2105l0.0399,0.08h-0.1537l0.0412-0.0747
		c0,0-0.0768-0.1312,0.0053-0.2158L11.0638,30.179"/>
	<path class="st7" d="M10.2775,35.0823c0.8189,0.0026,1.826-0.1646,2.2977-0.4086l1.0361-0.0916l0.0206,1.264
		c-0.8777,0.484-2.9042,0.5879-3.3501,0.5844c-0.4463,0.0036-2.4978-0.1022-3.3795-0.5879l0.0114-1.265l1.0382,0.0936
		c0.4718,0.2427,1.5097,0.4111,2.3275,0.4111h-0.0021"/>
	<path class="st8" d="M10.2775,35.0823c0.8188,0.0027,1.8259-0.1646,2.2977-0.4085l1.0361-0.0918l0.0206,1.2641
		c-0.8777,0.4839-2.9042,0.5879-3.35,0.5844c-0.4464,0.0036-2.4979-0.1022-3.3796-0.5879l0.0114-1.2649l1.0383,0.0935
		c0.4718,0.2427,1.5096,0.4111,2.3276,0.4111L10.2775,35.0823"/>
	<path class="st7" d="M4.2352,29.6904l0.9128,0.2905l-0.276,1.4777l-0.864,0.1342c0,0-0.1456-0.777,0.2274-1.9032"/>
	<path class="st8" d="M4.2352,29.6904l0.9128,0.2905l-0.2761,1.4777l-0.864,0.1342c0,0-0.1456-0.777,0.2273-1.9033V29.6904
		L4.2352,29.6904z"/>
	<path class="st9" d="M4.8714,31.4424l-0.8636,0.1505l0.5464-0.777L4.8714,31.4424"/>
	<path class="st10" d="M4.8715,31.4423l-0.8636,0.1505l0.5463-0.777l0.3172,0.6265"/>
	<path class="st7" d="M3.6892,30.7548l0.8799,0.0637c0.0197,0.7454,0.1102,3.5903,3.5076,3.7447l-0.1058,1.035
		C3.8353,35.6412,3.5211,32.1089,3.6892,30.7548"/>
	<path class="st8" d="M3.6892,30.7549l0.8799,0.0636c0.0198,0.7455,0.1102,3.5903,3.5076,3.7448l-0.1057,1.035
		C3.8354,35.6412,3.5212,32.1088,3.6892,30.7549L3.6892,30.7549z M6.9186,35.8102l1.0369-0.2263 M6.9187,35.8102l1.0369-0.2263
		 M6.9188,35.8102l1.0369-0.2263 M6.9189,35.8102l1.0369-0.2263 M6.9189,35.8102l1.0369-0.2263"/>
	<path class="st3" d="M16.2479,29.7009l-0.9094,0.2878l0.2883,1.4756l0.8658,0.139c0,0,0.1392-0.7765-0.2448-1.9032"/>
	<path class="st4" d="M16.2479,29.7009l-0.9093,0.2878l0.2884,1.4755l0.8658,0.1391c0,0,0.1391-0.7766-0.245-1.9033L16.2479,29.7009
		L16.2479,29.7009z"/>
	<path class="st9" d="M15.6269,31.4489l0.8658,0.1553l-0.5538-0.7773L15.6269,31.4489"/>
	<path class="st10" d="M15.6269,31.4489l0.8658,0.1553l-0.5538-0.7774L15.6269,31.4489"/>
	<path class="st7" d="M16.8039,30.7667l-0.8812,0.0601c-0.0127,0.7446-0.0776,3.5908-3.4752,3.7417l0.1155,1.0342
		c4.1347,0.0478,4.4191-3.4829,4.2408-4.8364"/>
	<path class="st8" d="M16.8039,30.7667l-0.8812,0.0602c-0.0128,0.7446-0.0776,3.5907-3.4752,3.7416l0.1155,1.0341
		c4.1347,0.0478,4.4191-3.4829,4.2409-4.8363v0.0003L16.8039,30.7667z M13.6179,35.8159l-1.0395-0.2278"/>
	<path class="st0" d="M9.7275,35.7053c-0.0232,0.015-0.0547,0.0189-0.0912,0.0172L9.4722,35.714l0.014-0.2048L9.649,35.518
		c0.032,0.0021,0.0575,0.0084,0.0733,0.018c0.0329,0.0172,0.0474,0.0487,0.0444,0.0925c-0.0021,0.0378-0.0154,0.0624-0.0396,0.0768
		 M9.4516,36.028l0.0162-0.2497l0.1913,0.0132C9.721,35.7963,9.767,35.78,9.7983,35.7485c0.0323-0.0308,0.0491-0.0712,0.0512-0.1168
		c0.004-0.0532-0.0097-0.0966-0.0412-0.1286c-0.0303-0.0308-0.0733-0.0469-0.1274-0.0522l-0.2733-0.017l-0.0377,0.5879
		l0.0811,0.0053 M10.0466,35.5361l0.2001,0.0021 M10.0466,35.5361l0.2001,0.0021 M10.0466,35.5361l0.2001,0.0021 M10.0466,35.5361
		l0.2001,0.0021 M10.0466,35.5361l0.2001,0.0021c0.029,0.0026,0.0517,0.0062,0.0685,0.0141
		c0.0308,0.0145,0.0452,0.0434,0.0452,0.0855c0,0.0395-0.0114,0.0658-0.0338,0.0817c-0.0215,0.0143-0.0526,0.021-0.0899,0.021
		l-0.1922-0.0021l0.0017-0.2023 M10.043,36.0569l0.0018-0.251l0.1877,0.0026c0.0333,0,0.058,0.0026,0.075,0.0109
		c0.0277,0.0127,0.0412,0.0395,0.0425,0.0763l0.0049,0.0987c0.0013,0.0236,0.0017,0.0382,0.0031,0.0479
		c0.0027,0.0069,0.004,0.0143,0.0074,0.0197h0.1009l-0.0017-0.0127c-0.0114-0.0061-0.0206-0.0179-0.0245-0.0359
		c-0.0036-0.0114-0.0053-0.0286-0.0062-0.0501l-0.0017-0.0785c-0.0013-0.0356-0.0074-0.0601-0.021-0.0737
		c-0.0133-0.0179-0.0319-0.0312-0.0532-0.0379c0.0281-0.0147,0.0492-0.0319,0.0645-0.0529
		c0.0145-0.0234,0.0219-0.0527,0.0219-0.0887c0-0.0675-0.0275-0.1136-0.0837-0.1386c-0.0303-0.0136-0.069-0.0208-0.1145-0.0215
		L9.9639,35.469l-0.0021,0.5896h0.0811 M10.6692,35.9336c-0.036-0.0438-0.0553-0.0987-0.0597-0.1636
		c-0.0041-0.0816,0.0117-0.144,0.0491-0.186c0.0378-0.0458,0.0864-0.0676,0.15-0.0711c0.0641-0.0036,0.1168,0.017,0.1558,0.0574
		c0.0401,0.0395,0.0627,0.0944,0.0668,0.1628c0.0021,0.0658-0.0093,0.1241-0.0395,0.1754
		c-0.0298,0.0522-0.0794,0.0816-0.1526,0.0834C10.7628,35.9959,10.7057,35.978,10.6692,35.9336 M10.5727,35.5624
		c-0.0377,0.0584-0.0531,0.1259-0.0491,0.2075c0.0057,0.0882,0.0329,0.161,0.0842,0.2159c0.057,0.0548,0.1325,0.0824,0.2256,0.0773
		c0.0996-0.0045,0.1746-0.0422,0.2256-0.1116c0.0412-0.0626,0.061-0.1355,0.0565-0.2254c-0.0057-0.0803-0.0289-0.1457-0.0723-0.1944
		c-0.055-0.0654-0.1352-0.0943-0.2441-0.0899c-0.1026,0.0066-0.1782,0.0444-0.2268,0.1206 M13.3441,34.7144
		c0.0565-0.0097,0.1058-0.007,0.1505,0.0084c0.0658,0.0206,0.1102,0.0694,0.1377,0.144l-0.0812,0.0113
		c-0.0175-0.0403-0.0425-0.068-0.0763-0.0834c-0.0329-0.0143-0.0741-0.0179-0.1215-0.0109
		c-0.0529,0.0071-0.1004,0.0362-0.1308,0.0801c-0.0308,0.0474-0.0399,0.1107-0.0263,0.1913
		c0.0113,0.0668,0.0359,0.1234,0.0763,0.161c0.0372,0.0386,0.0922,0.0522,0.1637,0.0422c0.0537-0.0089,0.0966-0.0303,0.1269-0.0673
		c0.0315-0.0351,0.0408-0.0882,0.0303-0.1566l-0.1892,0.029l-0.0097-0.0649l0.2633-0.0404l0.0514,0.312l-0.0522,0.0079
		l-0.0324-0.0719c-0.0219,0.0326-0.0439,0.0575-0.0633,0.072c-0.0323,0.0254-0.0763,0.0416-0.1311,0.0495
		c-0.0711,0.0109-0.1361-0.0018-0.1949-0.0395c-0.0645-0.0479-0.1062-0.1189-0.122-0.2175c-0.0172-0.097-0.0018-0.18,0.0429-0.2454
		c0.0426-0.0631,0.1045-0.1,0.1879-0.1118 M13.9394,34.6686l0.1888-0.0685c0.0258-0.0096,0.0483-0.0129,0.0675-0.0105
		c0.0346,0.0026,0.0601,0.0233,0.0746,0.0644c0.0136,0.0352,0.0136,0.0658-0.0018,0.0874
		c-0.0162,0.0223-0.0416,0.0386-0.0786,0.0522l-0.1772,0.0637L13.9394,34.6686 M14.1282,35.156l-0.0922-0.2365l0.1755-0.0632
		c0.0331-0.0105,0.0558-0.0162,0.073-0.0145c0.0311,0.0039,0.0549,0.0229,0.0706,0.0587l0.0401,0.0902
		c0.0086,0.0223,0.0157,0.0359,0.0215,0.0421c0.0026,0.0079,0.0083,0.0127,0.0127,0.0179l0.0952-0.0351l-0.0052-0.0127
		c-0.0141,0-0.0276-0.0079-0.0378-0.0233c-0.0074-0.0109-0.0145-0.0267-0.0246-0.0451l-0.0311-0.0737
		c-0.0141-0.0321-0.0286-0.0518-0.0452-0.0637c-0.0194-0.0102-0.0408-0.0161-0.0627-0.0172
		c0.0193-0.0223,0.0334-0.0448,0.0386-0.071c0.0057-0.0268,0.0031-0.0565-0.0096-0.0899c-0.0242-0.0627-0.0685-0.0969-0.1308-0.1013
		c-0.0329-0.0026-0.0707,0.0044-0.1141,0.0197l-0.2652,0.0943l0.2142,0.5545l0.0776-0.0286 M14.8184,34.8638l-0.3366-0.4908
		l0.3694-0.2357l0.0408,0.0592L14.5894,34.39l0.1035,0.15l0.2795-0.1799l0.0382,0.0575l-0.2795,0.1799l0.1141,0.1654l0.308-0.1971
		l0.0408,0.058l-0.3761,0.24 M15.1128,33.9961l0.0966-0.1062c0.0447-0.0474,0.0921-0.0689,0.144-0.0627
		c0.0517,0.0043,0.1045,0.0315,0.1606,0.0807c0.0153,0.0118,0.029,0.0272,0.0429,0.0444c0.0247,0.032,0.0391,0.0601,0.0484,0.0882
		c0.008,0.0352,0.0062,0.0673-0.0061,0.0979c-0.0074,0.0153-0.0206,0.0333-0.0404,0.0549l-0.0969,0.1053l-0.3488-0.3032
		 M15.6232,34.2264c0.0685-0.0753,0.0834-0.1567,0.0435-0.2483c-0.0257-0.0538-0.0625-0.1015-0.108-0.14
		c-0.0617-0.0549-0.1263-0.083-0.1943-0.0882c-0.0755-0.0057-0.1395,0.0215-0.1953,0.0824l-0.1646,0.1764l0.4538,0.3959
		l0.1646-0.1772 M15.9745,33.7688l-0.5223-0.3068l0.0426-0.0675l0.523,0.305l-0.0429,0.0701 M16.1794,33.4126l-0.5638-0.2257
		l0.1663-0.3966l0.0685,0.0263l-0.1356,0.3268l0.1698,0.0668l0.1269-0.3012l0.0649,0.0269l-0.1254,0.3005l0.19,0.0773l0.1392-0.3308
		l0.0685,0.0258l-0.1694,0.4038 M16.4385,32.7201l-0.5932-0.1312l0.0197-0.0916l0.5481-0.1853l-0.4814-0.1061l0.0176-0.0719
		l0.5933,0.1276l-0.0189,0.0891l-0.5488,0.1891l0.4813,0.104l-0.0172,0.0763 M16.3916,31.9668l0.0074-0.0746
		c0.0343,0.0009,0.0633-0.0043,0.0851-0.0162c0.0431-0.0233,0.068-0.0675,0.0746-0.1331c0.0027-0.0306,0.0014-0.0574-0.0057-0.0829
		c-0.0127-0.0491-0.0403-0.0763-0.0846-0.0809c-0.0329-0.0034-0.0565,0.0045-0.0737,0.0225
		c-0.0154,0.0205-0.0316,0.0503-0.0439,0.0924l-0.0272,0.0776c-0.0175,0.0508-0.0338,0.086-0.0513,0.1057
		c-0.0281,0.0369-0.0675,0.0496-0.1181,0.0462c-0.0539-0.0057-0.0978-0.0272-0.129-0.0685
		c-0.032-0.0378-0.0452-0.0917-0.0372-0.1585c0.0052-0.061,0.0254-0.1123,0.0614-0.1535c0.0334-0.0378,0.0851-0.0558,0.1514-0.0487
		l-0.0061,0.0744c-0.0324,0-0.0583,0.0057-0.0771,0.019c-0.0343,0.0189-0.0532,0.0588-0.0589,0.1171
		c-0.0049,0.0483,0.0017,0.0809,0.0202,0.1054c0.0185,0.0206,0.0416,0.0338,0.0689,0.036c0.029,0.0026,0.0517-0.0066,0.0675-0.0289
		c0.0113-0.0155,0.0249-0.0487,0.0434-0.1027l0.0268-0.0816c0.0132-0.0378,0.029-0.0667,0.0474-0.0873
		c0.0329-0.0342,0.0758-0.0487,0.1299-0.0446c0.0658,0.0069,0.1128,0.0342,0.1369,0.0842c0.0238,0.0504,0.0331,0.1062,0.0272,0.1694
		c-0.0074,0.0716-0.0306,0.1276-0.0737,0.1654C16.5103,31.9589,16.4566,31.9721,16.3916,31.9668 M4.0925,31.9307l0.0136,0.0737
		c-0.0329,0.0066-0.0592,0.0198-0.0786,0.0369c-0.0346,0.0324-0.0465,0.0811-0.0346,0.1474c0.0052,0.028,0.0153,0.0556,0.028,0.0776
		c0.0263,0.0446,0.0606,0.0626,0.104,0.0555c0.0321-0.0057,0.0532-0.0179,0.0633-0.0408c0.0097-0.0224,0.0167-0.0567,0.0189-0.1005
		l0.0039-0.083c0.0027-0.0513,0.0084-0.0916,0.0197-0.1141c0.0181-0.0404,0.0519-0.0654,0.1023-0.0737
		c0.05-0.0101,0.1019,0.0021,0.1422,0.0333c0.0412,0.0286,0.0685,0.0781,0.0786,0.1438c0.0129,0.0602,0.007,0.1142-0.0167,0.1628
		c-0.0229,0.0474-0.0667,0.0763-0.1338,0.0887L4.3901,32.264c0.0311-0.0115,0.0544-0.0224,0.0698-0.0378
		c0.0263-0.0295,0.0343-0.072,0.0242-0.1304c-0.0079-0.0474-0.0242-0.0781-0.0487-0.0934c-0.0243-0.018-0.0484-0.025-0.0747-0.0206
		c-0.0293,0.0043-0.0487,0.0206-0.058,0.0469c-0.0057,0.0175-0.01,0.0539-0.0141,0.1097l-0.004,0.0859
		c-0.0021,0.0404-0.0084,0.0738-0.0219,0.0966c-0.0215,0.0422-0.058,0.068-0.111,0.0764c-0.0671,0.0114-0.1189-0.0039-0.1558-0.0469
		c-0.0379-0.0421-0.0611-0.0925-0.073-0.1553c-0.0131-0.0746-0.0034-0.1325,0.0265-0.179c0.0302-0.0479,0.078-0.0755,0.143-0.0847
		 M4.0552,32.7084l0.5801-0.1746l0.1352,0.4086l-0.0708,0.0222L4.5892,32.629L4.4128,32.682l0.1023,0.3102l-0.0676,0.0215
		l-0.1014-0.311l-0.1965,0.0587l0.1123,0.3432l-0.0694,0.0198L4.0552,32.7084 M4.3124,33.4165l0.5338-0.283l0.057,0.0995
		l-0.3669,0.3879l0.5359-0.0917l0.0552,0.0987L4.595,33.9091l-0.0377-0.0654l0.3141-0.1653
		c0.0114-0.0067,0.029-0.0163,0.0545-0.0298c0.025-0.0114,0.0532-0.0268,0.0812-0.0413l-0.5336,0.0909l-0.0391-0.0694l0.3642-0.3865
		l-0.0175,0.0089c-0.0114,0.0066-0.0311,0.0162-0.058,0.0315c-0.0188,0.012-0.0384,0.0226-0.0588,0.0316L4.351,33.4824
		l-0.0386-0.0668 M5.3069,34.2025c-0.0268-0.0062-0.0532-0.0215-0.0791-0.0483l-0.1128-0.1163l0.1517-0.1391l0.1138,0.1159
		c0.0219,0.0215,0.0359,0.0425,0.0434,0.0605c0.0105,0.0346,0,0.0663-0.032,0.0961C5.363,34.1981,5.334,34.2092,5.3069,34.2025
		 M4.8781,34.2565l0.186-0.1707l0.1321,0.1338c0.0426,0.0434,0.086,0.0632,0.1317,0.0622c0.0457-0.0021,0.089-0.0209,0.1216-0.0529
		c0.0394-0.0352,0.0583-0.0764,0.0583-0.1207c-0.0005-0.0429-0.0202-0.0834-0.0567-0.1211l-0.1896-0.1935l-0.4415,0.4055
		l0.057,0.0575 M5.4102,34.7303l0.32-0.5014l0.3783,0.2299l-0.0395,0.0597l-0.3107-0.186L5.662,34.4843l0.2857,0.1732L5.9108,34.715
		l-0.2862-0.1724l-0.1088,0.1698l0.3147,0.1891l-0.0378,0.0592L5.4102,34.7303 M6.3571,34.6334l0.1922,0.0611
		c0.0272,0.0083,0.0469,0.0188,0.0601,0.0308c0.0246,0.0233,0.0311,0.0565,0.0167,0.0969c-0.0117,0.0351-0.0298,0.058-0.058,0.0676
		c-0.025,0.0043-0.0565,0.0043-0.0934-0.0072l-0.1812-0.0578L6.3571,34.6334 M6.1913,35.1262l0.0799-0.2391l0.179,0.0584
		c0.032,0.0084,0.0552,0.0199,0.0667,0.0316c0.0219,0.0197,0.0286,0.0492,0.0175,0.0856l-0.0268,0.095
		c-0.0062,0.0233-0.0093,0.0386-0.0119,0.0457c0,0.0075,0,0.0155,0.0013,0.0206l0.0944,0.0308l0.0057-0.0136
		c-0.0102-0.008-0.0159-0.0224-0.0155-0.0404c0.0021-0.011,0.0053-0.0286,0.0114-0.0487l0.0229-0.0764
		c0.0092-0.0333,0.0127-0.0584,0.0043-0.0763c-0.0078-0.0206-0.0212-0.0387-0.0386-0.0522
		c0.0298-0.0053,0.0558-0.0145,0.0776-0.0308c0.0208-0.0179,0.0382-0.0429,0.0488-0.078c0.0215-0.0637,0.0096-0.1168-0.0379-0.1571
		c-0.0236-0.0211-0.0574-0.0391-0.1017-0.0558L6.3,34.5426L6.1122,35.102l0.0786,0.0241"/>
	<path class="st11" d="M7.006,24.9457c0.0694-0.1672,0.7118-0.6231,2.82-0.4234c0,0,0.3563,0.2175,0.5657,0.1896
		c0.1195-0.0155-0.0701,0.0074-0.226-0.1221c-0.1588-0.1293-0.1926-0.3948,0.1703-0.3878c0.3612,0.0093,1.7132,0.0856,1.7387,0.2071
		c0.0236,0.1229-0.7148,0.1742-0.9895,0.1671c-0.2762-0.0074-0.244,0.1322,0.0308,0.1216c0.8582-0.0308,1.7952-0.3331,2.7847,0.3668
		c0.1181,0.0851-0.2984,0.0987-0.6206-0.0382c0,0-0.8729,0.0453-1.2503-0.0166c0,0-0.2901,0.236-0.6679,0.2127
		c0.0492,0.1224-0.1395,0.5791-1.3275,0.2355c-0.196,0.0601-0.911,0.1799-0.8328-0.0324c-0.1882,0-0.5183,0.0605-0.5674-0.0465
		c-0.0474-0.1052,0.581-0.2647,0.6912-0.3786c0,0-1.3294,0.0127-1.5813-0.079c0,0-0.7842,0.176-0.738,0.0233"/>
	<path class="st12" d="M7.432,26.8069c0.0286-0.0386,0.0399-0.1079,0.1005-0.1062c0.1317,0.0351,0.2211,0.2759,0.3831,0.1197
		c0.0575-0.0127,0.0794,0.0655,0.1268,0.0746c0.0302,0.1338,0.1377-0.0272,0.218-0.0181c0.1716-0.0763,0.3839-0.0944,0.5871-0.0565
		c0.0062,0.1312-0.0966,0.2759-0.2255,0.3506c0.0027,0.132,0.1225,0.2168,0.1202,0.3497c-0.0205,0.0496-0.0034,0.1276-0.0785,0.1438
		c-0.0952-0.017-0.1892-0.027-0.2681-0.0801c-0.0097-0.0097-0.0175-0.0286-0.0378-0.0224
		c-0.0097,0.0444,0.0597,0.0883,0.0869,0.1334c-0.0479,0.0816-0.1272,0.007-0.1939,0.0079
		c-0.0198,0.047-0.0009,0.1063-0.0492,0.1365c-0.0843-0.0026-0.1014-0.0942-0.1531-0.14c-0.0532,0.0575,0.0372,0.0916,0.0501,0.1374
		c-0.0325,0.1728-0.0282,0.3417-0.2011,0.4549l-0.1159,0.0575c-0.0315-0.0869-0.0117-0.2186-0.0329-0.3094
		c-0.0685,0.1114-0.1219,0.2089-0.2225,0.3032c-0.1175-0.0386-0.186-0.1773-0.2118-0.2922
		c-0.0492-0.1339-0.0211-0.2941,0.0846-0.391c-0.036-0.0701-0.1593-0.054-0.1769-0.154c-0.1847-0.1202-0.2869,0.2106-0.4064,0.0386
		c-0.0386-0.1606,0.0075-0.3603,0.1238-0.4801c-0.0258-0.0658-0.1118-0.0487-0.1627-0.0864
		c-0.1162-0.0987-0.2839-0.2031-0.2755-0.3814c0.318-0.1202,0.6985-0.032,0.9298,0.2098"/>
	<path class="st7" d="M7.5971,26.7889c-0.0074,0.1456,0.0983,0.0394,0.1767,0.1276c-0.0613-0.0241-0.1061,0.1062-0.1662,0.0315
		l-0.0378,0.0361c0.0219,0.0499,0.0644,0.0565,0.0202,0.1114c-0.0658,0.025-0.079-0.0575-0.1098-0.0899
		c-0.0052-0.0143,0.01-0.0416-0.014-0.0513c-0.0372,0.0315-0.0763,0.0429-0.1277,0.0378c-0.014-0.0281-0.0411-0.065-0.0136-0.0864
		c0.0505-0.068,0.1288,0.0245,0.1669-0.0233c0.0061-0.0422-0.0308-0.0935,0.017-0.1225c0.0329,0.0057,0.0751-0.0122,0.0887,0.029
		 M7.9908,26.9083c0.0039,0.0281-0.0145,0.0675,0.0223,0.0873c0.0479-0.0259,0.0987-0.0062,0.1264,0.0413
		c-0.0004,0.0255,0.0074,0.0588-0.0258,0.0712l-0.0747-0.014c0.0052-0.0145-0.0185-0.0238-0.0277-0.0379
		c-0.0329-0.01-0.0522,0.0167-0.0768,0.0329c0.0185,0.0281,0.061,0.0435,0.0508,0.0794c-0.0438,0.0439-0.0653-0.0377-0.1136-0.0172
		c-0.0329-0.0126,0.0118-0.0811-0.0399-0.1016c-0.0614,0-0.0206,0.1007-0.0992,0.0613c-0.0281-0.0316-0.0558-0.0742-0.0255-0.1097
		c0.0329-0.022,0.0887-0.0163,0.1166,0.0122c0.0479-0.0529,0.0527-0.2579,0.1673-0.1052 M7.5006,27.1198
		c0.0321,0.0461-0.0069,0.1088,0.0338,0.1601c0.0641-0.1197,0.1259,0.0259,0.2023,0.0145c0.0233,0.0286,0.0079,0.068,0.0122,0.1005
		c-0.0942,0.025-0.2079,0.0548-0.2912-0.0206l-0.0234,0.0267c0.0497,0.0462,0.0966,0.0983,0.057,0.1755
		c-0.0706,0.0154-0.1799,0.0172-0.2154-0.0557c-0.0186-0.0601,0.0429-0.1035-0.022-0.1518
		c-0.0469,0.0584-0.0448,0.1365-0.1426,0.0834c-0.0606-0.0335-0.0787-0.1023-0.0483-0.1603
		c0.0632-0.0996,0.1739,0.0031,0.2422-0.0456c0.0097-0.0856-0.0219-0.1603,0.0565-0.2075c0.0673-0.0119,0.0984,0.0385,0.1392,0.0806
		"/>
	<path class="st2" d="M7.7682,27.172c-0.0315,0.1456-0.1412-0.0075-0.1926-0.0136C7.6441,27.0368,7.6871,27.1978,7.7682,27.172
		 M8.1101,27.3303c-0.0763,0.0215-0.0645-0.0737-0.1023-0.111l0.0296-0.0267C8.0649,27.226,8.0859,27.2861,8.1101,27.3303"/>
	<path class="st7" d="M8.0065,27.3014c0.022,0.0504-0.0496,0.0909,0.0114,0.1276c0.0193-0.0162,0.0429-0.0386,0.0531-0.0479
		c0.0522,0.0155,0.1128,0.0248,0.1493,0.0764c0.0391,0.1071-0.0694,0.1045-0.1308,0.1343l-0.061-0.0026
		c0.0145-0.0298-0.0263-0.0425-0.0365-0.0631c-0.028-0.007-0.0513,0.0017-0.067,0.0254c0.0136,0.068,0.0966,0.1211,0.0109,0.1816
		c-0.0724-0.0047-0.1847,0.0234-0.1782-0.0767c-0.0272-0.0565,0.0737-0.1438-0.0342-0.1474
		c-0.0356,0.0763-0.0746,0.15-0.1672,0.0776l0.0114-0.1088c0.0887,0.0026,0.1935,0.0179,0.2334-0.0812
		c0.0255-0.0719-0.0444-0.1382,0.018-0.1953C7.9095,27.1808,7.9604,27.2414,8.0065,27.3014"/>
	<path class="st13" d="M7.9416,27.465c0.0228,0.0539-0.0386,0.0575-0.0677,0.0843c-0.0391,0.0031-0.0662-0.0123-0.0899-0.0386
		c-0.0175-0.0654,0.0311-0.072,0.0685-0.0978C7.896,27.3948,7.914,27.4453,7.9416,27.465"/>
	<path class="st2" d="M7.8885,27.5001c-0.0097,0.0127-0.0233,0.0087-0.0378,0.0122L7.8371,27.447
		c0.0289,0.0026,0.0665,0.0118,0.0512,0.0531"/>
</g>
</svg>
