<?xml version="1.0" encoding="utf-8"?>
<!-- Generator: Adobe Illustrator 21.1.0, SVG Export Plug-In . SVG Version: 6.00 Build 0)  -->
<svg version="1.1" id="Layer_1" xmlns="http://www.w3.org/2000/svg" xmlns:xlink="http://www.w3.org/1999/xlink" x="0px" y="0px"
	 viewBox="0 0 60 60" style="enable-background:new 0 0 60 60;" xml:space="preserve">
<style type="text/css">
	.st0{clip-path:url(#SVGID_2_);}
	.st1{fill:#3E5EB9;}
	.st2{fill:#FFD900;}
	.st3{fill:#B10C0C;}
	.st4{fill:#FFFFFF;stroke:#000000;stroke-width:0.1354;}
	.st5{fill:#FFD900;stroke:#000000;stroke-width:0.1354;}
	.st6{fill:#FFD900;stroke:#000000;stroke-width:0.145;}
	.st7{stroke:#FFFFFF;stroke-width:0.9302;}
	.st8{stroke:#000000;stroke-width:0.9302;}
	.st9{fill:#3D5DA7;stroke:#000000;stroke-width:0.1148;}
	.st10{fill:#A70000;}
	.st11{fill:#3D5DA7;stroke:#000000;stroke-width:0.1433;}
	.st12{fill:#3D5DA7;stroke:#000000;stroke-width:0.1109;}
</style>
<g>
	<defs>
		<circle id="SVGID_1_" cx="30" cy="30" r="30"/>
	</defs>
	<clipPath id="SVGID_2_">
		<use xlink:href="#SVGID_1_"  style="overflow:visible;"/>
	</clipPath>
	<g class="st0">
		<rect x="-15" class="st1" width="90" height="60"/>
		<rect x="-15" y="11.25" class="st2" width="90" height="37.5"/>
		<rect x="-15" y="15" class="st3" width="90" height="30"/>
		<g>
			<g id="e">
				<path class="st4" d="M49.5541,25.3951l-2.4459,0.8632l2.4459,0.8632L52,26.2583L49.5541,25.3951z"/>
				<path class="st5" d="M12.6023,25.9711h35.3428c0.1728,0,0.3128,0.1288,0.3128,0.2877v0c0,0.1589-0.1401,0.2877-0.3128,0.2877
					H12.6023c-0.1728,0-0.3128-0.1288-0.3128-0.2877v0C12.2895,26.1,12.4295,25.9711,12.6023,25.9711z"/>
				<path class="st5" d="M47.3978,26.5462c0.1437,0,0.2879-0.1439,0.2879-0.2877c0-0.1438-0.1441-0.2877-0.2878-0.2877"/>
				<path class="st5" d="M47.1098,26.5462c0.1437,0,0.2879-0.1439,0.2879-0.2877c0-0.1438-0.1441-0.2877-0.2878-0.2877"/>
				<path class="st5" d="M46.8217,26.5462c0.1437,0,0.2879-0.1439,0.2879-0.2877c0-0.1438-0.1441-0.2877-0.2878-0.2877"/>
			</g>
			<g>
				<g id="e_1_">
					<path class="st4" d="M47.2105,27.1223l-2.4459,0.8632l2.4459,0.8632l2.4459-0.8632L47.2105,27.1223z"/>
					<path class="st5" d="M10.2587,27.6984h35.3428c0.1728,0,0.3128,0.1288,0.3128,0.2877v0c0,0.1589-0.1401,0.2877-0.3128,0.2877
						H10.2587c-0.1728,0-0.3128-0.1288-0.3128-0.2877v0C9.9458,27.8272,10.0859,27.6984,10.2587,27.6984z"/>
					<path class="st5" d="M45.0542,28.2735c0.1437,0,0.2879-0.1439,0.2879-0.2877s-0.1441-0.2877-0.2878-0.2877"/>
					<path class="st5" d="M44.7661,28.2735c0.1437,0,0.2879-0.1439,0.2879-0.2877S44.91,27.698,44.7662,27.698"/>
					<path class="st5" d="M44.4781,28.2735c0.1437,0,0.2879-0.1439,0.2879-0.2877s-0.1441-0.2877-0.2878-0.2877"/>
				</g>
			</g>
			<path class="st6" d="M6.366,29.5687h48.0666c0.235,0,0.4254,0.1932,0.4254,0.4316v0c0,0.2384-0.1905,0.4316-0.4254,0.4316H6.366
				c-0.235,0-0.4254-0.1932-0.4254-0.4316v0C5.9406,29.7619,6.1311,29.5687,6.366,29.5687z"/>
		</g>
		<path class="st4" d="M44.5184,29.9998c-2.8775,2.8773-6.7145,8.6324-14.3882,8.6324c-6.7145,0-11.5097-5.7551-14.3882-8.6324
			c2.8775-2.8778,7.6733-8.6329,14.3882-8.6329C37.8035,21.3668,41.6399,27.1219,44.5184,29.9998L44.5184,29.9998z"/>
		<path d="M29.1261,24.3698c0.7655,0.861,0.1263,1.2082,0.9367,1.2647c0.8546,0.0627,0.3701,0.9099,1.0889,0.9393
			c0.5026,0.022-0.0502,2.0295,0.4336,2.692c0.4928,0.6906,0.9055,0.2023,0.9142,0.7013c0.0086,0.5161-1.3412,0.464-1.3649,2.0536
			c-0.0396,0.9161-1.1391,0.9747-1.1916,1.5642c-0.0653,0.5544,2.1661,0.8657,2.1363,1.362
			c-0.0306,0.4948-2.4093,0.4174-2.5128,0.9817c-0.0531,0.5069,3.2678,0.9223,3.5349,2.3883
			c-0.4955,0.1621-1.9054,0.3146-2.971,0.3154c-6.7134,0.0048-11.5097-5.7556-14.3872-8.6329
			c2.8775-2.8778,7.6733-8.6329,14.3882-8.6329c0,0-1.9931,1.8211-1.0042,3.0028L29.1261,24.3698z"/>
		<g>
			<g>
				<g id="b">
					<path id="a" class="st7" d="M21.4629,29.232V26.93 M22.8578,26.93v2.302 M24.2538,26.93v2.302"/>
					<g>
						<path id="a_1_" class="st7" d="M21.4629,33.0693v-2.302 M22.8578,30.7672v2.302 M24.2538,30.7672v2.302"/>
					</g>
				</g>
				<g id="c">
					<g id="b_1_">
						<path id="a_2_" class="st7" d="M25.6487,29.232V26.93 M27.0436,26.93v2.302 M28.4395,26.93v2.302"/>
						<g>
							<path id="a_3_" class="st7" d="M25.6487,33.0693v-2.302 M27.0436,30.7672v2.302 M28.4395,30.7672v2.302"/>
						</g>
					</g>
				</g>
			</g>
			<g>
				<g>
					<g>
						<g id="b_2_">
							<path id="a_4_" class="st8" d="M32.0139,29.232V26.93 M33.4088,26.93v2.302 M34.8047,26.93v2.302"/>
							<g>
								<path id="a_5_" class="st8" d="M32.0139,33.0693v-2.302 M33.4088,30.7672v2.302 M34.8047,30.7672v2.302"/>
							</g>
						</g>
						<g id="c_1_">
							<g id="b_3_">
								<path id="a_6_" class="st8" d="M36.1996,29.232V26.93 M37.5945,26.93v2.302 M38.9904,26.93v2.302"/>
								<g>
									<path id="a_7_" class="st8" d="M36.1996,33.0693v-2.302 M37.5945,30.7672v2.302 M38.9904,30.7672v2.302"/>
								</g>
							</g>
						</g>
					</g>
					<g>
						<path class="st9" d="M51.4174,29.6573c-0.4359,0.755,0.3345-0.2511,2.2142,1.0128c0.3484,0.2348,0.6527,0.855,0.6527,1.285
							c-0.0884-0.0591-0.1541-0.1908-0.2515-0.2763c-0.1364,0.1367,0.1302,0.7631,0.1692,1.0592
							c-0.2939-0.1645-0.2656-0.2423-0.3632-0.4445c0.0194,0.2443-0.0505,0.9172,0.0665,1.1764
							c-0.2316-0.0662-0.2162-0.2526-0.3372-0.2901c0.0823,0.2933-0.0717,0.6124-0.0308,0.9422
							c-0.1354-0.1339-0.2796-0.2389-0.3424-0.293c-0.0106,0.157-0.2604,0.5696-0.266,0.7181
							c-0.1148-0.0694-0.146-0.1776-0.1652-0.2504c-0.1427,0.1794-0.65,0.8418-0.6825,1.0438
							c-0.3909-0.3453-1.3922-1.1859-1.5225-1.6322c-0.1152,0.2533-0.282,0.3388-0.6116,0.5237
							c-0.1302-0.7072-0.6174-1.5022-0.3568-2.1084c-0.1846,0.1095-0.3366,0.219-0.5211,0.3536
							c0.1748-1.0243,1.0663-2.2253,2.3486-2.8201H51.4174z"/>
						<path class="st10" d="M49.7918,33.3959c0.181-0.3618,0.3477-0.4765,0.4646-0.7094c0.2066-0.4094,0.2361-0.7351,0.4161-0.6874
							c0.18,0.0477,0.1798,0.2154-0.0534,0.618C50.3859,33.0196,50.2751,33.1056,49.7918,33.3959L49.7918,33.3959z"/>
						<path class="st10" d="M51.0155,34.258c-0.0233-0.2755,0.0566-0.3905,0.0421-0.5678
							c-0.0249-0.3121-0.1525-0.5263,0.0135-0.5415c0.166-0.0152,0.2435,0.0912,0.244,0.4058
							c0.0005,0.3145-0.0481,0.3971-0.2995,0.7037L51.0155,34.258z"/>
						<path class="st10" d="M51.9441,34.7978c-0.0725-0.3845-0.0182-0.555-0.0647-0.8028
							c-0.0808-0.4359-0.2406-0.7228-0.0868-0.7627c0.1538-0.0399,0.2466,0.1011,0.3049,0.5432
							C52.1557,34.2175,52.125,34.339,51.9441,34.7978L51.9441,34.7978z"/>
						<path class="st10" d="M52.91,32.1037c-0.2268-0.1721-0.3591-0.1837-0.5054-0.2943c-0.2576-0.1941-0.388-0.4019-0.4708-0.2987
							c-0.0829,0.1031-0.0241,0.2159,0.2459,0.395c0.2699,0.1791,0.3614,0.1932,0.7304,0.198H52.91z"/>
						<path class="st10" d="M52.7498,33.3798c-0.1195-0.2483-0.2453-0.3112-0.3227-0.4709
							c-0.1367-0.2807-0.1369-0.5235-0.2851-0.4613c-0.1483,0.0622-0.1601,0.1893-0.0016,0.4611
							C52.2989,33.1802,52.3819,33.2295,52.7498,33.3798L52.7498,33.3798z"/>
						<path class="st11" d="M8.0527,30.3845c-0.0244-0.2199,0.0227-0.2461-0.1126-0.4119c0.1969,0.0824,0.2044,0.3013,0.4438,0.1459
							c0.0879-0.0455,0.1263-0.0469,0.0194-0.2912c0.2497,0.0116,1.0672,0.292,1.1981,0.2984
							c0.3437,0.0158,0.9713-0.3612,1.4069,0.1023c0.4181,0.4226,0.2785,0.8612,0.2785,1.4465
							c-0.168-0.0805-0.087-0.1202-0.2653-0.3294c0.1336,0.5115-0.0072,1.4339-0.0072,1.9764
							c-0.0686-0.1308-0.0585-0.074-0.1256-0.2095c-0.1783,0.4952-0.3919,0.5971-0.3919,1.1824
							c-0.0644-0.2295-0.0022-0.181-0.0738-0.3017c-0.1732,0.376-1.3355,0.6973-0.8876,1.0762
							c-0.4043-0.237-0.5815-0.2121-0.7648-0.4253c-0.079,0.051-0.1417,0.1474-0.2151,0.2797
							c-0.7107-0.327-0.4566-1.0323-1.0134-1.5035c-0.0964,0.1975-0.0525,0.1689-0.1566,0.4904
							c-0.1127-0.4466-0.1435-0.7303-0.2703-1.0586c-0.1094,0.182-0.0996,0.1122-0.2982,0.3872
							c-0.0822-0.544-0.2159-0.6724-0.1631-1.0323c-0.2111,0.149-0.0729,0.0886-0.2839,0.2719
							c0.1999-1.3939,1.0634-2.4239,1.683-2.0941L8.0527,30.3845z"/>
						<path class="st10" d="M7.1783,32.6596c0.1831-0.4488,0.3482-0.5897,0.4665-0.8786c0.209-0.5078,0.243-0.9138,0.4186-0.8519
							c0.1755,0.0619,0.1727,0.271-0.0621,0.77C7.7664,32.1982,7.6565,32.3039,7.1783,32.6596L7.1783,32.6596z"/>
						<path class="st10" d="M7.8716,33.7826c0.0734-0.4024,0.1892-0.5489,0.2369-0.808c0.0845-0.4556,0.0374-0.7949,0.2005-0.777
							c0.1632,0.0178,0.2,0.1898,0.0914,0.6431c-0.1086,0.4533-0.1835,0.5606-0.529,0.942H7.8716z"/>
						<path class="st10" d="M8.7009,34.5632c0.0206-0.3901,0.1121-0.5424,0.1258-0.7936c0.0248-0.4419-0.0603-0.7583,0.0953-0.7601
							c0.1556-0.0018,0.211,0.1571,0.1634,0.5996C9.0377,34.0514,8.9801,34.1618,8.7009,34.5632z"/>
						<path class="st10" d="M10.4817,32.012c-0.3405-0.3392-0.5464-0.4026-0.766-0.6207c-0.3869-0.3831-0.5739-0.7429-0.7117-0.6154
							c-0.1378,0.1275-0.0549,0.3187,0.3525,0.6833C9.7639,31.8238,9.9056,31.877,10.4817,32.012z"/>
						<path class="st10" d="M10.2742,33.3234c-0.2218-0.3406-0.3845-0.4288-0.5277-0.648
							c-0.2525-0.3851-0.3393-0.7161-0.4824-0.6341c-0.1432,0.082-0.1112,0.2549,0.1625,0.6283
							C9.7001,33.0428,9.8102,33.1115,10.2742,33.3234L10.2742,33.3234z"/>
						<path class="st12" d="M25.4782,22.8993c-0.3986,0.771,0.698-0.2564,2.417,1.0342c0.3186,0.2398,0.7752,1.1871,0.7752,1.6262
							c-0.366-0.0779-1.0141-0.4391-1.0141-0.4391s0.7606,0.7618,0.7606,1.64c-0.2687-0.168-0.4032-0.1428-0.4925-0.3491
							c0,0.2843,0.239,0.4655,0.239,0.9046c-0.194-0.1548-0.3582-0.2579-0.5223-0.3485c0.2535,0.4391-0.462,1.291-0.1039,1.5753
							c-0.6262-0.0905-1.267-0.4907-1.5205-0.9298c-0.1344,0.0905-0.149,0.2328-0.1542,0.3843
							c0.0197,0.0164-0.9533-0.7222-0.8638-1.0059c-0.1305,0.1831-0.1489,0.2837-0.1787,0.4901
							c-0.3574-0.3525-0.6851-0.705-0.8043-1.1607c-0.1588,0.2064-0.1688,0.2064-0.3276,0.4127
							c-0.1191-0.7222-0.1191-0.6964,0.1191-1.3154c-0.1688,0.1118-0.3078,0.2236-0.4766,0.3612
							c0.1598-1.0459,0.9751-2.2724,2.1478-2.8799L25.4782,22.8993z"/>
						<path class="st10" d="M24.4952,26.6661c0.0638-0.5313,0.2026-0.7314,0.2441-1.0735c0.074-0.6017-0.0138-1.0415,0.1994-1.0303
							c0.2132,0.0111,0.2747,0.2331,0.1692,0.8335c-0.1053,0.6004-0.1943,0.7462-0.6128,1.2704L24.4952,26.6661z"/>
						<path class="st10" d="M25.6081,27.639c-0.0432-0.4482,0.0396-0.639,0.0121-0.9278c-0.0473-0.508-0.2043-0.8522-0.0184-0.8838
							s0.2798,0.1388,0.2998,0.6517C25.9216,26.9921,25.8719,27.1288,25.6081,27.639L25.6081,27.639z"/>
						<path class="st10" d="M27.3454,28.4326c-0.1889-0.3879-0.3513-0.5035-0.4733-0.7531
							c-0.2154-0.4387-0.2604-0.797-0.4266-0.7321c-0.1662,0.065-0.157,0.2503,0.083,0.6797
							C26.7685,28.0566,26.877,28.1442,27.3454,28.4326z"/>
						<path class="st10" d="M27.9467,24.959c-0.4812-0.2533-0.7284-0.2565-1.0385-0.4193
							c-0.5461-0.2854-0.8639-0.6078-0.9767-0.4304c-0.1129,0.1775,0.0378,0.3539,0.6008,0.6134
							c0.563,0.2594,0.7359,0.2717,1.4145,0.2363H27.9467z"/>
						<path class="st10" d="M28.1229,26.4103c-0.3504-0.2915-0.5576-0.3344-0.7836-0.5219
							c-0.3981-0.329-0.5962-0.6522-0.7293-0.5212c-0.1329,0.131-0.0441,0.3041,0.3738,0.6141S27.5446,26.3297,28.1229,26.4103
							L28.1229,26.4103z"/>
					</g>
				</g>
			</g>
		</g>
	</g>
</g>
</svg>
