<?xml version="1.0" encoding="utf-8"?>
<!-- Generator: Adobe Illustrator 22.0.0, SVG Export Plug-In . SVG Version: 6.00 Build 0)  -->
<svg version="1.1" id="Layer_1" xmlns="http://www.w3.org/2000/svg" xmlns:xlink="http://www.w3.org/1999/xlink" x="0px" y="0px"
	 viewBox="0 0 60 60" style="enable-background:new 0 0 60 60;" xml:space="preserve">
<style type="text/css">
	.st0{clip-path:url(#SVGID_2_);fill:#00247D;}
	.st1{clip-path:url(#SVGID_4_);fill:#00247D;}
	.st2{clip-path:url(#SVGID_6_);fill:#FFFFFF;}
	.st3{clip-path:url(#SVGID_8_);fill:#FFFFFF;}
	.st4{clip-path:url(#SVGID_10_);fill:#CF142B;}
	.st5{clip-path:url(#SVGID_12_);fill:#CF142B;}
	.st6{fill:#FFFFFF;}
	.st7{fill:#FDC300;}
	.st8{fill:#FF9E3D;stroke:#000000;stroke-width:0.023;}
	.st9{fill:#FF927F;stroke:#000000;stroke-width:0.023;}
	.st10{fill:#FF9EE1;stroke:#000000;stroke-width:0.023;}
	.st11{fill:#00A728;stroke:#000000;stroke-width:0.023;}
	.st12{fill:#FCC300;stroke:#000000;stroke-width:0.023;}
	.st13{fill:#EF072D;stroke:#000000;stroke-width:0.023;}
	.st14{stroke:#000000;stroke-width:0.023;}
	.st15{fill:#B95A1E;stroke:#000000;stroke-width:0.0262;}
	.st16{fill:#B95A1E;stroke:#FDC301;stroke-width:0.0661;}
</style>
<g>
	<g>
		<g>
			<g>
				<g>
					<g>
						<defs>
							<circle id="SVGID_1_" cx="30" cy="30" r="30"/>
						</defs>
						<clipPath id="SVGID_2_">
							<use xlink:href="#SVGID_1_"  style="overflow:visible;"/>
						</clipPath>
						<rect id="rect2414_2_" x="-30.4259" y="-0.2126" class="st0" width="120.8518" height="60.4256"/>
					</g>
				</g>
			</g>
		</g>
	</g>
	<g>
		<g>
			<g>
				<g>
					<g>
						<defs>
							<circle id="SVGID_3_" cx="30" cy="30" r="30"/>
						</defs>
						<clipPath id="SVGID_4_">
							<use xlink:href="#SVGID_3_"  style="overflow:visible;"/>
						</clipPath>
						<rect id="rect124_2_" x="-30.4259" y="-0.2126" class="st1" width="60.4259" height="30.2127"/>
					</g>
				</g>
			</g>
		</g>
	</g>
	<g>
		<g>
			<g>
				<g>
					<g>
						<defs>
							<circle id="SVGID_5_" cx="30" cy="30" r="30"/>
						</defs>
						<clipPath id="SVGID_6_">
							<use xlink:href="#SVGID_5_"  style="overflow:visible;"/>
						</clipPath>
						<path id="path146_2_" class="st2" d="M-30.4259-0.2126v3.3771L23.2445,30H30v-3.3775L-23.6704-0.2126H-30.4259z M30-0.2126
							v3.3771L-23.6704,30h-6.7555v-3.3775L23.2445-0.2126H30z"/>
					</g>
				</g>
			</g>
		</g>
	</g>
	<g>
		<g>
			<g>
				<g>
					<g>
						<defs>
							<circle id="SVGID_7_" cx="30" cy="30" r="30"/>
						</defs>
						<clipPath id="SVGID_8_">
							<use xlink:href="#SVGID_7_"  style="overflow:visible;"/>
						</clipPath>
						<path id="path136_2_" class="st3" d="M-5.2483-0.2126v30.2127h10.071V-0.2126H-5.2483z M-30.4259,9.8578v10.0709H30V9.8578
							H-30.4259z"/>
					</g>
				</g>
			</g>
		</g>
	</g>
	<g>
		<g>
			<g>
				<g>
					<g>
						<defs>
							<circle id="SVGID_9_" cx="30" cy="30" r="30"/>
						</defs>
						<clipPath id="SVGID_10_">
							<use xlink:href="#SVGID_9_"  style="overflow:visible;"/>
						</clipPath>
						<path id="path141_2_" class="st4" d="M-30.4259,11.8722v6.0424H30v-6.0424H-30.4259z M-3.234-0.2126v30.2127h6.0422V-0.2126
							H-3.234z"/>
					</g>
				</g>
			</g>
		</g>
	</g>
	<g>
		<g>
			<g>
				<g>
					<g>
						<defs>
							<circle id="SVGID_11_" cx="30" cy="30" r="30"/>
						</defs>
						<clipPath id="SVGID_12_">
							<use xlink:href="#SVGID_11_"  style="overflow:visible;"/>
						</clipPath>
						<path id="path150_2_" class="st5" d="M-30.4259,30.0001l20.1421-10.0714h4.5037l-20.1418,10.0714H-30.4259z M-30.4259-0.2126
							l20.1421,10.0704h-4.5037l-15.6384-7.8185V-0.2126z M5.3542,9.8578L25.4963-0.2126H30L9.8579,9.8578H5.3542z M30,30.0001
							L9.8579,19.9286h4.504L30,27.748V30.0001z"/>
					</g>
				</g>
			</g>
		</g>
	</g>
</g>
<g>
	<path class="st6" d="M54.3155,28.9632v7.5075c0,6.1636-2.421,11.8058-9.6034,15.2353c-7.1826-3.4295-9.6037-9.0717-9.6037-15.2354
		v-7.5075h19.2069L54.3155,28.9632z"/>
	<path class="st7" d="M53.6695,29.7283v7.0024c0,5.7489-2.2582,11.0115-8.9573,14.2102c-6.6992-3.1987-8.9573-8.4613-8.9573-14.2103
		v-7.0024L53.6695,29.7283L53.6695,29.7283z"/>
	<g>
		<path class="st8" d="M40.5412,32.7973c-0.1296-0.0973-0.2703-0.1567-0.4646-0.1621c0.043-0.4755-0.3026-0.6808-0.5512-0.7672
			c-0.2483-0.0865-0.3349-0.1837-0.3779-0.3782c-0.0433-0.1945-0.173-0.3134-0.3999-0.3782
			c-0.227-0.0649-0.4216-0.2918-0.5079-0.3999c-0.0863-0.1081-0.119-0.0865-0.1836,0.0973
			c-0.065,0.1837-0.3243,0.5295-0.0867,0.5403c-0.1726,0.1404-0.2699,0.3026-0.162,0.5187
			c-0.119,0.0973-0.2053,0.2377-0.0433,0.2918c0.1623,0.054,0.2053,0.0973,0.2163,0.1405c-0.1458,0-0.1836,0.2918,0.162,0.3566
			c-0.0756,0.0108-0.108,0.2485,0.0327,0.2485c-0.1946,0-0.357,0.2918-0.6052,0.2918c-0.2486,0-0.3783,0.054-0.3889,0.1621
			c-0.011,0.1081-0.1407,0.2377-0.2053,0.2918c0.1836,0.0216,0.3022,0,0.3996-0.0757c0.0973-0.0757,0.2593-0.0973,0.3676-0.0108
			c0.108,0.0865,0.3349,0.1297,0.4429,0.1081c-0.2376,0.1621-0.4106,0.3782-0.4322,0.5835c-0.0217,0.2053-0.162,0.443-0.3243,0.5079
			c-0.162,0.0648-0.3779,0.2377-0.4535,0.4431c0.2053,0.5079,0.4965,0.6333,0.7885,0.7672
			c0.5189,0.2378,0.8428,0.4107,1.0591,0.6484c0.2159,0.2377,0.3026,0.0648,0.6265,0.4754
			c0.3243,0.4107,0.6269,1.1887,0.9508,1.3184c0.3243,0.1297,0.7348,0.0432,0.9724-0.3674
			C41.611,37.6384,41.7623,33.4889,40.5412,32.7973L40.5412,32.7973z"/>
		<path class="st9" d="M41.0925,31.0683c-0.3026,0.3242-0.6919,0.6484-0.6269,1.2319c0.065,0.5835,0.1296,1.5345-0.4106,1.8587
			c-0.5402,0.3242-0.7995,1.1455-0.1513,1.6209c0.6482,0.4755,0.6698,1.0591,0.7778,1.5994
			c0.1083,0.5403,0.3893,0.9725,0.8215,0.6051c0.4319,0.0648,0.6698-0.1081,0.6698-0.4538s0.0217-0.5403,0.3456-0.6484
			c0.3243-0.1081,0.4106-0.2161,0.5619-0.5079c0.1513-0.2918,0.2376-0.4215,0.1513-0.5944c-0.0863-0.1729-0.119-0.5295-0.054-0.7888
			c0.065-0.2593-0.0863-0.3998-0.173-0.5619c-0.0863-0.1621-0.1186-0.3026-0.0757-0.5187c0.0433-0.2161-0.0646-0.3566-0.2159-0.4647
			c-0.1513-0.1081-0.2163-0.2161-0.1836-0.389c0.0323-0.1729-0.1083-0.2809-0.2703-0.4106
			c-0.162-0.1297-0.2809-0.3026-0.2809-0.5619C41.9783,31.8247,41.4814,31.2195,41.0925,31.0683L41.0925,31.0683z"/>
		<path class="st10" d="M41.2111,38.1247c0.7238-0.1837,0.6592-1.3724,0.5512-1.8695c-0.1083-0.4971-0.386-1.2091-0.173-1.7722
			c0.3026-0.7996-0.3676-1.5561-0.1946-1.8587c0.173-0.3026,0.1513-0.4647,0.1296-0.5619
			c-0.0213-0.0973-0.1836-0.1729-0.1943,0.0324c-0.011,0.2053-0.065,0.2809-0.1946,0.4106c-0.1296,0.1297-0.0973,0.4106,0,0.724
			c0.0973,0.3134,0.3026,0.7889-0.0217,1.4156c-0.3239,0.6268-0.1906,0.906-0.0646,1.1995
			C41.2434,36.2984,41.7084,37.8762,41.2111,38.1247L41.2111,38.1247z"/>
		<path class="st8" d="M37.9695,31.3493c0.0812,0,0.238-0.0325,0.238,0.0756"/>
		<path class="st8" d="M37.8075,31.8679c0.0973-0.0703,0.2703,0.0108,0.4429-0.0919"/>
		<path class="st8" d="M37.9805,32.3001c0.1296,0,0.3026-0.0054,0.4646-0.1351"/>
		<path class="st8" d="M38.1424,32.6568c0.119,0,0.3404-0.0756,0.3944-0.2323"/>
		<path class="st8" d="M38.1751,32.9053c0.2321-0.0108,0.5402,0.0757,0.5832-0.0054"/>
		<path class="st8" d="M38.1858,33.6725c0.162-0.1513,0.5457-0.2539,0.632-0.4106"/>
		<path class="st8" d="M38.5964,31.2628c0.2699,0.0865,0.1583,0.2535,0.2916,0.3566c0.238,0.1837,0.0217,0.389,0.2163,0.4431
			c0.1943,0.054,0.191,0.0869,0.1403,0.3026c-0.0595,0.254,0.1836,0.2647,0.0973,0.4323"/>
		<path class="st8" d="M40.0767,32.6352c-0.108,0-0.4267,0.0108-0.5619,0.2972"/>
		<path class="st8" d="M37.7697,35.7528c0.1245,0.0216,0.1866-0.0491,0.2214-0.1189c0.0378-0.0757,0.054-0.1297,0.1675-0.1351
			c0.1135-0.0054,0.2864-0.0378,0.3243-0.1243c0.0378-0.0864,0.173-0.0054,0.2864-0.2323c0.1135-0.2269,0.1891-0.4971,0.4914-0.5943
			"/>
	</g>
	<g>
		<g>
			<path class="st11" d="M46.3417,40.4747c0.1223,0.1777-0.0044,0.3698,0.2031,0.4466c0.2431,0.09,0.0308,0.4097,0.3177,0.5224
				c0.2541,0.1,0.0018,0.4057,0.2765,0.5429c0.2457,0.1229-0.0411,0.4098,0.2868,0.5737c0.3276,0.1639-0.0617,0.5327,0.1844,0.6761
				c0.2457,0.1434-0.0819,0.5122,0.2049,0.6556c0.2868,0.1434-0.123,0.4302,0.1432,0.6351
				c0.2662,0.2049-0.0613,0.5122,0.2049,0.6966c0.2662,0.1844-0.1634,0.4306,0.1025,0.6966
				c0.2049,0.2049-0.0738,0.4055,0.0819,0.7171c0.1025,0.2049-0.1025,1.0244-0.6761,0.9424
				c-0.2049,0.3483-1.0037,0.6556-1.2905,0.5532c-0.2868,0.2049-1.2086,0.4917-1.6801,0.041
				c-0.4708,0.4507-1.3929,0.1639-1.6797-0.041c-0.2868,0.1024-1.0856-0.2049-1.2905-0.5532
				c-0.5736,0.082-0.7785-0.7376-0.6761-0.9424c0.1557-0.3116-0.123-0.5122,0.0819-0.7171c0.2659-0.266-0.1638-0.5122,0.1025-0.6966
				c0.2662-0.1844-0.0613-0.4917,0.2049-0.6966c0.2662-0.2049-0.1436-0.4918,0.1432-0.6351
				c0.2868-0.1434-0.0408-0.5122,0.2049-0.6556c0.246-0.1434-0.1432-0.5122,0.1844-0.6761
				c0.3279-0.1639,0.0411-0.4508,0.2868-0.5737c0.2747-0.1373,0.0224-0.443,0.2765-0.5429
				c0.2868-0.1127,0.0745-0.4324,0.3177-0.5224c0.2108-0.078,0.0764-0.2751,0.2093-0.4551
				C43.6767,40.7062,45.565,40.8784,46.3417,40.4747L46.3417,40.4747z"/>
			<path class="st11" d="M43.6154,40.5319c-0.2255,0.2254,0.0411,0.3893-0.1844,0.6556c-0.2255,0.2664-0.0206,0.4098-0.2049,0.6556
				c-0.1844,0.2459,0.0819,0.3688-0.123,0.6351c-0.2046,0.2663,0.0411,0.4303-0.1844,0.6556
				c-0.2251,0.2254,0.0411,0.4303-0.1844,0.6761c-0.2251,0.2459,0.0411,0.4097-0.1844,0.6351
				c-0.2251,0.2254,0.0411,0.4713-0.1844,0.6966c-0.2251,0.2254,0.0411,0.5122-0.2049,0.7786
				c-0.2457,0.2663,0.0411,0.4712-0.1638,0.6761c-0.2049,0.2049-0.0206,0.4097-0.1638,0.5532
				c-0.1436,0.1434-0.1638,0.3432-0.1025,0.4303"/>
			<path class="st11" d="M44.0454,40.6139c-0.2046,0.2663,0.1025,0.3893-0.0819,0.6146c-0.1844,0.2254,0.0819,0.3073-0.0613,0.5737
				c-0.1432,0.2664,0.1025,0.3278-0.0819,0.5941c-0.1844,0.2664,0.1025,0.4712-0.1025,0.7376
				c-0.2049,0.2663,0.1025,0.4097-0.0819,0.6761c-0.1844,0.2663,0.0819,0.4097-0.0819,0.6146
				c-0.1642,0.2049,0.1227,0.4097-0.0819,0.6556c-0.2049,0.2459,0.0819,0.4303-0.0823,0.6556
				c-0.1638,0.2254,0.0617,0.4712-0.0819,0.6556c-0.1432,0.1844,0.1025,0.4508-0.1025,0.6966
				c-0.2049,0.2459,0.0411,0.4098-0.0819,0.5737c-0.123,0.1639-0.22,0.4046-0.1025,0.4712"/>
			<path class="st11" d="M44.7009,40.8598c-0.1021,0.4284,0.1436,0.8092,0,1.1661c-0.1432,0.357,0.1025,0.4998,0.0206,0.7854
				c-0.0819,0.2856,0.1025,0.4998-0.0206,0.8092c-0.1227,0.3094,0.1642,0.5474,0,0.952c-0.1638,0.4046,0.1058,0.5053,0,0.9044
				c-0.1227,0.4641,0.2049,0.71,0,1.0378c-0.2046,0.3278,0.1847,0.4098,0.0206,0.7785c-0.1638,0.3688,0.1025,0.5122-0.0206,0.881"/>
			<path class="st11" d="M45.7869,40.5319c0.2255,0.2254-0.0411,0.3893,0.1844,0.6556c0.2255,0.2664,0.0206,0.4098,0.2049,0.6556
				s-0.0819,0.3688,0.123,0.6351c0.2046,0.2663-0.0411,0.4303,0.1844,0.6556c0.2251,0.2254-0.0411,0.4303,0.1844,0.6761
				c0.2251,0.2459-0.0411,0.4097,0.1844,0.6351c0.2251,0.2254-0.0411,0.4713,0.1844,0.6966
				c0.2251,0.2254-0.0411,0.5122,0.2049,0.7786c0.2457,0.2663-0.0411,0.4712,0.1638,0.6761
				c0.2049,0.2049,0.0206,0.4097,0.1638,0.5532c0.1436,0.1434,0.1642,0.3432,0.1025,0.4303"/>
			<path class="st11" d="M45.3568,40.6139c0.2045,0.2663-0.1025,0.3893,0.0819,0.6146c0.1844,0.2254-0.0819,0.3073,0.0613,0.5737
				c0.1436,0.2664-0.1025,0.3278,0.0819,0.5941c0.1844,0.2664-0.1025,0.4712,0.1025,0.7376
				c0.2049,0.2663-0.1025,0.4097,0.0819,0.6761c0.1844,0.2663-0.0819,0.4097,0.0819,0.6146
				c0.1642,0.2049-0.1227,0.4097,0.0823,0.6556c0.2046,0.2459-0.0823,0.4303,0.0819,0.6556
				c0.1638,0.2254-0.0617,0.4712,0.0819,0.6556c0.1432,0.1844-0.1025,0.4508,0.1025,0.6966
				c0.2049,0.2459-0.0411,0.4098,0.0819,0.5737c0.123,0.1639,0.2203,0.4046,0.1025,0.4712"/>
		</g>
		<g>
			<path class="st12" d="M43.3131,41.5461c0.0004,0.092-0.0018,0.1836-0.087,0.2971c-0.1844,0.2459,0.0819,0.3688-0.123,0.6351
				c-0.2046,0.2664,0.0411,0.4303-0.1844,0.6556c-0.2251,0.2254,0.0411,0.4303-0.1844,0.6761
				c-0.2251,0.2459,0.0411,0.4097-0.1844,0.6351c-0.2251,0.2254,0.0411,0.4713-0.1844,0.6966
				c-0.2251,0.2254,0.0411,0.5122-0.2049,0.7786c-0.2457,0.2663,0.0411,0.4712-0.1638,0.6761
				c-0.2049,0.2049-0.0206,0.4097-0.1638,0.5532c0.2457-0.1844,0.2457-0.4712,0.43-0.6146
				c0.1844-0.1435-0.0613-0.3483,0.0411-0.4508c0.1025-0.1024,0.0206-0.5327,0.2049-0.7376
				c0.1844-0.2049,0.0206-0.6146,0.1844-0.7581c0.1638-0.1434,0.0408-0.5737,0.2457-0.7171c0.2049-0.1434,0-0.4917,0.1638-0.6761
				c0.1642-0.1844,0-0.4712,0.1642-0.6966c0.1638-0.2254,0.0073-0.43,0.1227-0.6146
				C43.4413,41.8023,43.4413,41.2081,43.3131,41.5461L43.3131,41.5461z"/>
			<path class="st12" d="M43.9022,41.8023c-0.1432,0.2663,0.1025,0.3278-0.0819,0.5941c-0.1844,0.2663,0.1025,0.4712-0.1025,0.7376
				c-0.2049,0.2663,0.1025,0.4097-0.0819,0.6761c-0.1844,0.2663,0.0819,0.4097-0.0819,0.6146
				c-0.1642,0.2049,0.1227,0.4097-0.0819,0.6556c-0.2049,0.2459,0.0819,0.4303-0.0823,0.6556
				c-0.1638,0.2254,0.0617,0.4712-0.0819,0.6556c-0.1432,0.1844,0.1025,0.4508-0.1025,0.6966
				c-0.2049,0.2459,0.0411,0.4098-0.0819,0.5737c0.246-0.082,0.1539-0.42,0.246-0.4917c0.0922-0.0717-0.0308-0.5429,0.1124-0.6659
				c0.1436-0.1229-0.0922-0.5021,0.0411-0.6659c0.2255-0.2766,0.0308-0.461,0.1638-0.6761
				c0.1333-0.2152-0.0507-0.4913,0.0514-0.6351c0.1741-0.2459-0.0771-0.4675,0.051-0.6454c0.1844-0.2561-0.0356-0.467,0.0922-0.6351
				c0.1946-0.2561-0.0206-0.5122,0.0617-0.6454C44.0252,42.4681,44.1581,41.8944,43.9022,41.8023L43.9022,41.8023z"/>
			<path class="st12" d="M44.7009,42.0259c-0.1432,0.357,0.1025,0.4998,0.0206,0.7854c-0.0819,0.2856,0.1025,0.4998-0.0206,0.8092
				c-0.1227,0.3094,0.1642,0.5474,0,0.952c-0.1638,0.4046,0.1058,0.5053,0,0.9044c-0.1227,0.4641,0.2049,0.71,0,1.0378
				c-0.2046,0.3278,0.2347,0.4363,0.0206,0.7785c-0.1025,0.1639,0.0103,0.5839,0.1741,0.082
				c0.1642-0.502-0.1227-0.5634,0.0206-0.7683c0.1436-0.2049-0.051-0.7478,0.0103-1.0347c0.0617-0.2868-0.1432-0.6761-0.0103-0.9834
				c0.1333-0.3073-0.2049-0.6351-0.0716-0.9015c0.1333-0.2663-0.0613-0.5941,0.0613-0.8093c0.123-0.2151-0.0922-0.502-0.0408-0.6249
				C44.9161,42.13,44.8137,41.6759,44.7009,42.0259L44.7009,42.0259z"/>
		</g>
		<path class="st13" d="M46.2374,40.7163c0-2.3151-0.3276-3.1142-1.5365-3.1142c-1.2086,0-1.5362,0.799-1.5362,3.1142H46.2374
			L46.2374,40.7163z"/>
		<path class="st14" d="M43.1648,40.7163c0-2.3151,0.3276-3.1142,1.5362-3.1142c-0.5531,0-0.8909,0.4302-0.9831,0.717
			s-0.0411,0.2664,0.0819,0.1537c0.123-0.1127,0.0613,0.1332-0.0408,0.2663c-0.1025,0.1332-0.2049,0.5122-0.0617,0.3893
			c0.1436-0.1229,0.256,0.0205,0.1025,0.2356s-0.2868,0.7171-0.1333,0.5429c0.1539-0.1742,0.1844,0.1127,0.0925,0.2561
			c-0.0925,0.1434-0.0823,0.2663,0,0.2049c0.0819-0.0614,0.0716,0.2356-0.0103,0.3483H43.1648L43.1648,40.7163z"/>
		<path class="st14" d="M46.0021,40.5832c0-1.8132-0.2251-2.3561-0.6757-2.5405c-0.2552-0.1046-0.2626-0.0819-0.1407,0.0819
			c0.1219,0.1639,0.1032,0.3995-0.0095,0.2356c-0.1124-0.1639-0.1498-0.1946-0.1968-0.1229
			c-0.047,0.0717,0.1311,0.4097,0.2626,0.7171c0.1058,0.2472,0.0375,0.3687-0.1219,0.1229
			c-0.1594-0.2459-0.1594-0.0231-0.0195,0.1844c0.1796,0.2663,0.1741,1.0756,0.1741,1.4137L46.0021,40.5832L46.0021,40.5832z"/>
		<path class="st13" d="M44.7009,41.0544c0.4814,0,1.0084-0.0858,1.3625-0.2233c0.4201-0.1631,0.4425-0.3064,0.2971-0.4894
			c-0.1025-0.1288-0.3279-0.0515-0.5428,0.0429c-0.2152,0.0944-0.8094,0.1546-1.1168,0.1546c-0.307,0-0.9012-0.0601-1.1164-0.1546
			c-0.2148-0.0944-0.4403-0.1717-0.5428-0.0429c-0.1454,0.183-0.123,0.3263,0.2971,0.4894
			C43.6925,40.9686,44.2199,41.0544,44.7009,41.0544z"/>
	</g>
	<g>
		<g>
			<path class="st15" d="M49.3721,37.9894c0,0,0.3153,0.5444,0.5466,0.9412c0.2313,0.3968,0.4187,0.4872,0.5861,0.3695
				c0.1675-0.1177,0.0253-0.4412-0.1089-0.5946c-0.1342-0.1535-0.8719-0.8736-0.8719-0.8736L49.3721,37.9894L49.3721,37.9894z"/>
			<path class="st15" d="M49.2971,38.0313c0,0,0.1249,0.6242,0.2174,1.0797c0.0924,0.4554,0.2405,0.6066,0.4356,0.5546
				c0.1951-0.0521,0.1635-0.407,0.0856-0.5988c-0.0779-0.1919-0.5454-1.1304-0.5454-1.1304L49.2971,38.0313L49.2971,38.0313z"/>
			<path class="st15" d="M49.1644,38.0509c0,0-0.0007,0.6379,0,1.1037c0.0007,0.4657,0.1158,0.646,0.3169,0.6379
				c0.2011-0.0082,0.2401-0.3623,0.2016-0.567c-0.0384-0.2048-0.3109-1.2252-0.3109-1.2252L49.1644,38.0509L49.1644,38.0509z"/>
			<path class="st15" d="M48.9572,37.9894c0,0-0.3153,0.5444-0.5466,0.9412c-0.2313,0.3968-0.4187,0.4872-0.5861,0.3695
				c-0.1675-0.1177-0.0253-0.4412,0.1089-0.5946c0.1342-0.1535,0.8719-0.8736,0.8719-0.8736L48.9572,37.9894L48.9572,37.9894z"/>
			<path class="st15" d="M49.0322,38.0313c0,0-0.1249,0.6242-0.2174,1.0797c-0.0924,0.4554-0.2405,0.6066-0.4356,0.5546
				c-0.1951-0.0521-0.1635-0.407-0.0856-0.5988c0.0779-0.1919,0.5454-1.1304,0.5454-1.1304L49.0322,38.0313L49.0322,38.0313z"/>
			<path class="st15" d="M49.1648,38.0509c0,0,0.0007,0.6379,0,1.1037c-0.0007,0.4657-0.1158,0.646-0.3169,0.6379
				c-0.2011-0.0082-0.2401-0.3623-0.2016-0.567c0.0384-0.2048,0.3109-1.2252,0.3109-1.2252L49.1648,38.0509L49.1648,38.0509z"/>
		</g>
		<g>
			<path class="st15" d="M49.5139,33.1422c0,0,0.5136-0.5455,1.4123-1.091c0.8987-0.5455,1.5489-0.9651,1.6691-0.8728
				c0,0.1091-0.7704,0.6546-1.4123,1.091c-0.6419,0.4364-1.4123,1.091-1.4123,1.091L49.5139,33.1422L49.5139,33.1422z"/>
			<path class="st15" d="M49.5735,33.5786c0,0,0.5077-0.3204,1.4812-0.7637c0.9583-0.3936,2.311-0.3273,2.311-0.2182
				c-0.1283,0.1091-1.2839,0.1091-2.0543,0.4364c-0.7353,0.3124-1.4812,0.7637-1.4812,0.7637L49.5735,33.5786L49.5735,33.5786z"/>
			<path class="st15" d="M49.5789,34.3301c0,0,0.447-0.216,1.4812-0.5455c1.0271-0.3273,2.3906-0.1091,2.3906,0
				c-0.1283,0.1091-1.2351,0.0428-2.0055,0.2182c-0.7971,0.1709-1.6095,0.5455-1.6095,0.5455L49.5789,34.3301L49.5789,34.3301z"/>
			<path class="st15" d="M49.6278,35.0932c0,0,0.5151-0.4371,1.6123-0.5455c1.1039-0.1091,2.0027,0.5455,2.0027,0.6546
				c-0.1283,0.1091-1.1555-0.4802-1.9259-0.3959c-0.8161,0.0841-1.4323,0.505-1.4323,0.505L49.6278,35.0932L49.6278,35.0932z"/>
			<path class="st15" d="M49.3721,32.693c0,0,0.8277-0.5455,0.8277-0.9819c0-0.4364-0.3649-0.8728-0.4683-1.091
				c0.2069,0,0.6753,0.6546,0.6753,1.091c0,0.4769-0.7778,1.2001-0.7778,1.2001L49.3721,32.693L49.3721,32.693z"/>
			<path class="st15" d="M49.3721,32.693c0,0-0.1035-0.3273-0.1035-0.9819c0-0.7637,0.4566-1.2494,0.6207-1.4183
				c0.0427,0.1689-0.4138,0.7637-0.4138,1.4183c0,0.4769,0.1533,1.2001,0.1533,1.2001L49.3721,32.693L49.3721,32.693z"/>
			<path class="st15" d="M48.8154,33.1422c0,0-0.5136-0.5455-1.4123-1.091c-0.8987-0.5455-1.5489-0.9651-1.6691-0.8728
				c0,0.1091,0.7704,0.6546,1.4123,1.091c0.6419,0.4364,1.4123,1.091,1.4123,1.091L48.8154,33.1422L48.8154,33.1422z"/>
			<path class="st15" d="M48.7558,33.5786c0,0-0.5077-0.3204-1.4812-0.7637c-0.9583-0.3936-2.311-0.3273-2.311-0.2182
				c0.1283,0.1091,1.2839,0.1091,2.0542,0.4364c0.7353,0.3124,1.4812,0.7637,1.4812,0.7637L48.7558,33.5786L48.7558,33.5786z"/>
			<path class="st15" d="M48.7503,34.3301c0,0-0.447-0.216-1.4812-0.5455c-1.0271-0.3273-2.3906-0.1091-2.3906,0
				c0.1283,0.1091,1.2351,0.0428,2.0055,0.2182c0.7971,0.1709,1.6095,0.5455,1.6095,0.5455L48.7503,34.3301L48.7503,34.3301z"/>
			<path class="st15" d="M48.7015,35.0932c0,0-0.5151-0.4371-1.6123-0.5455c-1.1039-0.1091-2.0027,0.5455-2.0027,0.6546
				c0.1283,0.1091,1.1555-0.4802,1.9259-0.3959c0.8161,0.0841,1.4323,0.505,1.4323,0.505L48.7015,35.0932L48.7015,35.0932z"/>
			<path class="st15" d="M48.9572,32.693c0,0-0.8277-0.5455-0.8277-0.9819c0-0.4364,0.3649-0.8728,0.4683-1.091
				c-0.2069,0-0.6753,0.6546-0.6753,1.091c0,0.4769,0.7778,1.2001,0.7778,1.2001L48.9572,32.693L48.9572,32.693z"/>
			<path class="st15" d="M48.9572,32.693c0,0,0.1035-0.3273,0.1035-0.9819c0-0.7637-0.4566-1.2494-0.6207-1.4183
				c-0.0427,0.1689,0.4138,0.7637,0.4138,1.4183c0,0.4769-0.1533,1.2001-0.1533,1.2001L48.9572,32.693L48.9572,32.693z"/>
		</g>
		<g>
			<path class="st16" d="M51.855,40.5481c-0.3216-0.7532-0.4138-2.0729-0.4138-2.2911c0-0.6145,0.1924-3.6031,0.2069-4.8003
				c0.0145-1.1973-0.7242-1.8547-1.4484-1.8547c-0.6207,0-1.0346,0.4364-1.0346,1.091h0.3104c0-0.4364,0.3104-0.7637,0.7242-0.7637
				c0.6207,0,1.0978,0.5157,1.138,1.5274c0.0444,1.1693-0.1245,4.2056-0.1035,5.0185C51.2553,39.2882,51.5335,40.013,51.855,40.5481
				L51.855,40.5481z"/>
			<path class="st16" d="M46.4743,40.5481c0.3216-0.7532,0.4138-2.0729,0.4138-2.2911c0-0.6145-0.1924-3.6031-0.2069-4.8003
				c-0.0145-1.1973,0.7242-1.8547,1.4484-1.8547c0.6207,0,1.0346,0.4364,1.0346,1.091h-0.3104c0-0.4364-0.3104-0.7637-0.7242-0.7637
				c-0.6207,0-1.0978,0.5157-1.138,1.5274c-0.0444,1.1693,0.1245,4.2056,0.1035,5.0185
				C47.074,39.2882,46.7958,40.013,46.4743,40.5481L46.4743,40.5481z"/>
		</g>
		<g>
			<path class="st15" d="M49.1651,38.0388c0.5783-0.0086,0.642-0.2182,0.642-0.2182s0.1284-0.4364,0.0642-0.5455
				c-0.0642-0.1091-0.7062-0.1091-0.7062-0.1091L49.1651,38.0388L49.1651,38.0388z"/>
			<path class="st15" d="M49.1651,37.6024c0.6207,0,0.7242-0.2182,0.7242-0.2182s0.2069-0.4364,0.1035-0.5455
				c-0.1035-0.1091-0.8276-0.1091-0.8276-0.1091V37.6024L49.1651,37.6024z"/>
			<path class="st15" d="M49.1651,37.166c0.5173,0,0.8277-0.2182,0.8277-0.2182s0.2069-0.4364,0.1035-0.5455
				c-0.1035-0.1091-0.9311-0.1091-0.9311-0.1091L49.1651,37.166L49.1651,37.166z"/>
			<path class="st15" d="M49.1651,36.6205c0.9318-0.0086,0.9311-0.2802,0.9311-0.2802s0.2069-0.4364,0.1035-0.5455
				c-0.1035-0.1091-1.0346-0.047-1.0346-0.047V36.6205L49.1651,36.6205z"/>
			<path class="st15" d="M49.1651,36.1841c0.9318-0.0086,1.0346-0.2182,1.0346-0.2182s0.2069-0.4364,0.1035-0.5455
				c-0.1035-0.1091-1.138-0.1091-1.138-0.1091L49.1651,36.1841L49.1651,36.1841z"/>
			<path class="st15" d="M49.1651,35.6387c0.9318-0.0086,1.138-0.2182,1.138-0.2182s0.2069-0.4364,0.1035-0.5455
				c-0.1035-0.1091-1.2415-0.1091-1.2415-0.1091V35.6387z"/>
			<path class="st15" d="M49.1651,35.0932c0.9318-0.0086,1.2415-0.2182,1.2415-0.2182s0.1034-0.4364,0-0.5455
				c-0.1035-0.1091-1.2415-0.1091-1.2415-0.1091V35.0932z"/>
			<path class="st15" d="M49.1651,34.5477c0.9318-0.0086,1.2415-0.2182,1.2415-0.2182s0-0.4364-0.1035-0.5455
				c-0.1035-0.1091-1.138-0.1091-1.138-0.1091V34.5477z"/>
			<path class="st15" d="M49.1651,34.0022c0.9318-0.0086,1.138-0.2182,1.138-0.2182s0-0.4364-0.1035-0.5455
				c-0.1035-0.1091-1.0346-0.1091-1.0346-0.1091L49.1651,34.0022L49.1651,34.0022z"/>
			<path class="st15" d="M49.1651,32.6337c0.7249,0.0009,1.0381,0.6305,1.0363,0.6177l-0.2087,0.2054
				c-0.1109,0.1091-0.8276,0.1091-0.8187,0.1085L49.1651,32.6337L49.1651,32.6337z"/>
			<path class="st15" d="M49.1641,38.0388c-0.5783-0.0086-0.642-0.2182-0.642-0.2182s-0.1284-0.4364-0.0642-0.5455
				c0.0642-0.1091,0.7062-0.1091,0.7062-0.1091L49.1641,38.0388L49.1641,38.0388z"/>
			<path class="st15" d="M49.1641,37.6024c-0.6207,0-0.7242-0.2182-0.7242-0.2182s-0.2069-0.4364-0.1035-0.5455
				c0.1035-0.1091,0.8277-0.1091,0.8277-0.1091V37.6024L49.1641,37.6024z"/>
			<path class="st15" d="M49.1641,37.166c-0.5173,0-0.8277-0.2182-0.8277-0.2182s-0.2069-0.4364-0.1035-0.5455
				c0.1035-0.1091,0.9311-0.1091,0.9311-0.1091L49.1641,37.166L49.1641,37.166z"/>
			<path class="st15" d="M49.1641,36.6205c-0.9318-0.0086-0.9311-0.2802-0.9311-0.2802s-0.2069-0.4364-0.1035-0.5455
				c0.1035-0.1091,1.0346-0.047,1.0346-0.047V36.6205L49.1641,36.6205z"/>
			<path class="st15" d="M49.1641,36.1841c-0.9318-0.0086-1.0346-0.2182-1.0346-0.2182s-0.2069-0.4364-0.1035-0.5455
				c0.1035-0.1091,1.138-0.1091,1.138-0.1091L49.1641,36.1841L49.1641,36.1841z"/>
			<path class="st15" d="M49.1641,35.6387c-0.9318-0.0086-1.138-0.2182-1.138-0.2182s-0.2069-0.4364-0.1035-0.5455
				c0.1035-0.1091,1.2415-0.1091,1.2415-0.1091V35.6387z"/>
			<path class="st15" d="M49.1641,35.0932c-0.9318-0.0086-1.2415-0.2182-1.2415-0.2182s-0.1034-0.4364,0-0.5455
				c0.1035-0.1091,1.2415-0.1091,1.2415-0.1091V35.0932z"/>
			<path class="st15" d="M49.1641,34.5477c-0.9318-0.0086-1.2415-0.2182-1.2415-0.2182s0-0.4364,0.1035-0.5455
				c0.1035-0.1091,1.138-0.1091,1.138-0.1091V34.5477z"/>
			<path class="st15" d="M49.1641,34.0022c-0.9318-0.0086-1.138-0.2182-1.138-0.2182s0-0.4364,0.1035-0.5455
				c0.1035-0.1091,1.0346-0.1091,1.0346-0.1091L49.1641,34.0022L49.1641,34.0022z"/>
			<path class="st15" d="M49.1641,32.6337c-0.7249,0.0009-1.0381,0.6305-1.0363,0.6177l0.2087,0.2054
				c0.1109,0.1091,0.8277,0.1091,0.8188,0.1085L49.1641,32.6337L49.1641,32.6337z"/>
		</g>
	</g>
</g>
</svg>
