<?xml version="1.0" encoding="utf-8"?>
<!-- Generator: Adobe Illustrator 21.1.0, SVG Export Plug-In . SVG Version: 6.00 Build 0)  -->
<svg version="1.1" id="Layer_1" xmlns="http://www.w3.org/2000/svg" xmlns:xlink="http://www.w3.org/1999/xlink" x="0px" y="0px"
	 viewBox="0 0 60 60" style="enable-background:new 0 0 60 60;" xml:space="preserve">
<style type="text/css">
	.st0{clip-path:url(#SVGID_2_);}
	.st1{fill:#002F66;}
	.st2{fill:#FFFFFF;}
	.st3{fill:#EF4135;}
</style>
<g>
	<defs>
		<circle id="SVGID_1_" cx="30" cy="30" r="30"/>
	</defs>
	<clipPath id="SVGID_2_">
		<use xlink:href="#SVGID_1_"  style="overflow:visible;"/>
	</clipPath>
	<g class="st0">
		<rect x="-15" class="st1" width="90" height="60"/>
		<g>
			<rect x="-3" class="st2" width="36.6" height="24.6"/>
			<rect x="-3" class="st1" width="12" height="24"/>
			<rect x="21" class="st3" width="12" height="24"/>
		</g>
		<g>
			<path class="st2" d="M36.2501,28.6592l1.1529,1.8357h3.2797v6.4026l-2.4625-3.8505l-3.3132,5.2833h1.6118l1.7014-3.0446
				l3.4923,6.2683l3.4923-6.2683l1.7014,3.0446h1.6118l-3.3132-5.2833l-2.4625,3.8505v-3.5371h1.4775l1.097-1.7462h-2.5745V30.495
				h3.2797l1.1529-1.8357H36.2501z M40.1006,36.4946h-3.5819v1.2537h3.5819V36.4946z M46.9062,36.4946h-3.5819v1.2537h3.5819
				V36.4946z"/>
			<g>
				<path id="s" class="st2" d="M41.7125,42.8076l1.1053,3.4018L39.924,44.107h3.5769l-2.8938,2.1025L41.7125,42.8076z"/>
			</g>
			<g>
				<path id="s_1_" class="st2" d="M37.6829,39.7631l1.1053,3.4018l-2.8938-2.1025h3.5769l-2.8938,2.1025L37.6829,39.7631z"/>
			</g>
			<g>
				<path id="s_2_" class="st2" d="M45.7421,39.7631l1.1053,3.4018l-2.8938-2.1025h3.5769l-2.8938,2.1025L45.7421,39.7631z"/>
			</g>
			<g>
				<path id="s_3_" class="st2" d="M34.2801,30.7188l1.1053,3.4018l-2.8938-2.1025h3.5769l-2.8938,2.1025L34.2801,30.7188z"/>
			</g>
			<g>
				<path id="s_4_" class="st2" d="M49.1448,30.7188l1.1053,3.4018l-2.8938-2.1025h3.5769l-2.8938,2.1025L49.1448,30.7188z"/>
			</g>
		</g>
	</g>
</g>
</svg>
