<?xml version="1.0" encoding="utf-8"?>
<!-- Generator: Adobe Illustrator 21.1.0, SVG Export Plug-In . SVG Version: 6.00 Build 0)  -->
<svg version="1.1" id="Layer_1" xmlns="http://www.w3.org/2000/svg" xmlns:xlink="http://www.w3.org/1999/xlink" x="0px" y="0px"
	 viewBox="0 0 60 60" style="enable-background:new 0 0 60 60;" xml:space="preserve">
<style type="text/css">
	.st0{fill:#FFFFFF;}
	.st1{fill:#DE1018;}
	.st2{fill:#00247D;}
</style>
<g>
	<g>
		<path class="st0" d="M58.3529,39.9319H1.6437c1.2852,3.7342,3.2788,7.1295,5.8204,10.0341h45.0671
			C55.0755,47.0614,57.0689,43.6661,58.3529,39.9319z"/>
		<path class="st1" d="M52.5311,49.9659H7.4641C12.2526,55.4241,18.9756,59.1313,26.5597,60h6.8785
			C41.0236,59.1313,47.7447,55.4241,52.5311,49.9659z"/>
		<path class="st1" d="M29.9999,0C21.2124,0,13.3093,3.7906,7.8213,9.8297h44.3533C46.6892,3.7906,38.7849,0,29.9999,0z"/>
		<path class="st0" d="M52.1746,9.8297H7.8213c-2.6228,2.8897-4.69,6.2904-6.0403,10.0367h56.4345
			C56.8667,16.1201,54.798,12.7194,52.1746,9.8297z"/>
		<path class="st2" d="M60,30.1008c0-3.5929-0.632-7.0394-1.7845-10.2344H1.781C0.6272,23.0614,0,26.5079,0,30.1008
			c0,3.4438,0.5835,6.749,1.6437,9.8311h56.7093C59.4157,36.8498,60,33.5446,60,30.1008z"/>
	</g>
</g>
</svg>
