<?xml version="1.0" encoding="utf-8"?>
<!-- Generator: Adobe Illustrator 21.1.0, SVG Export Plug-In . SVG Version: 6.00 Build 0)  -->
<svg version="1.1" id="Layer_1" xmlns="http://www.w3.org/2000/svg" xmlns:xlink="http://www.w3.org/1999/xlink" x="0px" y="0px"
	 viewBox="0 0 60 60" style="enable-background:new 0 0 60 60;" xml:space="preserve">
<style type="text/css">
	.st0{clip-path:url(#SVGID_2_);fill:#CC0000;}
	.st1{clip-path:url(#SVGID_4_);fill:#FFFFFF;}
	.st2{clip-path:url(#SVGID_6_);fill:#006600;}
	.st3{fill:#F8C300;}
</style>
<g>
	<g>
		<g>
			<defs>
				<circle id="SVGID_1_" cx="30" cy="30" r="30"/>
			</defs>
			<clipPath id="SVGID_2_">
				<use xlink:href="#SVGID_1_"  style="overflow:visible;"/>
			</clipPath>
			<rect y="0" class="st0" width="60" height="20"/>
		</g>
	</g>
	<g>
		<g>
			<defs>
				<circle id="SVGID_3_" cx="30" cy="30" r="30"/>
			</defs>
			<clipPath id="SVGID_4_">
				<use xlink:href="#SVGID_3_"  style="overflow:visible;"/>
			</clipPath>
			<rect y="20" class="st1" width="60" height="20"/>
		</g>
	</g>
	<g>
		<g>
			<defs>
				<circle id="SVGID_5_" cx="30" cy="30" r="30"/>
			</defs>
			<clipPath id="SVGID_6_">
				<use xlink:href="#SVGID_5_"  style="overflow:visible;"/>
			</clipPath>
			<rect y="40" class="st2" width="60" height="20"/>
		</g>
	</g>
</g>
<g>
	<path class="st3" d="M36.8894,34.2028c-1.1649,0.4641-2.4854-0.104-2.9495-1.269c-0.3558,0.3338-0.813,0.5387-1.2989,0.5824
		c-1.2014,0.1079-2.2629-0.7786-2.3708-1.9801v-1.7259c0.0122-0.3966,0.3436-0.7083,0.7402-0.6961
		c0.2479,0.0076,0.4743,0.1426,0.599,0.357c0.2949-0.8888-0.1867-1.8484-1.0756-2.1432c-0.8888-0.2949-1.8484,0.1867-2.1432,1.0756
		c-0.1149,0.3466-0.1149,0.721,0,1.0676c0.1995-0.343,0.6393-0.4594,0.9823-0.2599c0.2144,0.1247,0.3494,0.3511,0.357,0.5991v1.7259
		c-0.108,1.2014-1.1694,2.088-2.3709,1.9801c-0.4858-0.0437-0.9431-0.2487-1.2989-0.5824c-0.4641,1.1649-1.7846,1.733-2.9494,1.269
		c-0.1715-0.0683-0.334-0.1573-0.484-0.265c0.2098,2.0938,3.3483,1.6663,3.5821-0.3695c0.9858,1.7307,3.1532,1.2353,3.788-0.8841
		h0.0065c0.6348,2.1194,2.8022,2.6148,3.788,0.8841c0.2338,2.0358,3.3723,2.4633,3.5821,0.3695
		C37.2234,34.0455,37.0609,34.1345,36.8894,34.2028z M30,29.27c-0.2479-0.4269-0.7407-0.6478-1.2243-0.5489
		c0.0754-0.5491,0.507-0.9807,1.0561-1.0561c0.6761-0.0929,1.2996,0.3799,1.3925,1.0561C30.7407,28.6222,30.2479,28.8431,30,29.27z"
		/>
	<path class="st3" d="M27.6342,35.2541c-0.4379,0.9453-1.3131,1.1077-2.0787,0.3446c0,0,0.3077-0.2174,0.6372-0.2774
		c-0.0618-0.2629,0.0649-0.6266,0.2434-0.8233c0.1872,0.128,0.4485,0.3845,0.515,0.6825
		C27.4127,35.1207,27.6342,35.2541,27.6342,35.2541L27.6342,35.2541z"/>
	<path class="st3" d="M31.0598,35.147c-0.5859,0.8614-1.4759,0.8791-2.107,0.0016c0,0,0.339-0.1644,0.6739-0.1699
		c-0.0181-0.2695,0.1661-0.6077,0.3742-0.7727c0.1639,0.1567,0.38,0.4524,0.397,0.7572
		C30.863,34.9794,31.0598,35.1471,31.0598,35.147L31.0598,35.147z"/>
	<path class="st3" d="M35.4223,37.8773c-3.5468-1.0573-7.296-1.0573-10.8449,0l-0.3056-1.0284
		c3.7451-1.1141,7.7091-1.1162,11.4562,0L35.4223,37.8773z"/>
	<polygon class="st3" points="24.3977,27.2625 23.3537,27.2625 23.031,26.2696 22.7084,27.2625 21.6645,27.2625 22.5091,27.8762 
		22.1865,28.8691 23.0311,28.2554 23.8757,28.8691 23.5531,27.8762 	"/>
	<polygon class="st3" points="22.2756,31.286 21.953,30.2931 21.6304,31.286 20.5863,31.286 21.431,31.8997 21.1084,32.8926 
		21.953,32.2789 22.7976,32.8926 22.475,31.8997 23.3196,31.286 	"/>
	<polygon class="st3" points="30.3226,23.239 30,22.2461 29.6774,23.239 28.6334,23.239 29.478,23.8526 29.1554,24.8455 30,24.2319 
		30.8447,24.8455 30.5221,23.8526 31.3666,23.239 	"/>
	<polygon class="st3" points="26.2991,24.3171 25.9765,23.3241 25.6539,24.3171 24.6098,24.3171 25.4545,24.9307 25.1318,25.9237 
		25.9765,25.31 26.8211,25.9237 26.4985,24.9307 27.3431,24.3171 	"/>
	<polygon class="st3" points="34.5455,24.9307 35.3902,24.3171 34.3461,24.3171 34.0235,23.3241 33.7009,24.3171 32.6569,24.3171 
		33.5015,24.9307 33.1789,25.9237 34.0235,25.31 34.8682,25.9237 	"/>
	<polygon class="st3" points="36.969,28.2554 37.8136,28.8691 37.491,27.8762 38.3356,27.2625 37.2916,27.2625 36.969,26.2696 
		36.6463,27.2625 35.6023,27.2625 36.4469,27.8762 36.1243,28.8691 	"/>
	<polygon class="st3" points="38.5691,31.8997 39.4137,31.286 38.3697,31.286 38.0471,30.2931 37.7245,31.286 36.6804,31.286 
		37.5251,31.8997 37.2024,32.8926 38.0471,32.2789 38.8917,32.8926 	"/>
	<path class="st3" d="M34.4572,35.5992c-0.7184,0.7545-1.5994,0.6271-2.0792-0.3415c0,0,0.3613-0.1071,0.6926-0.058
		c0.026-0.2688,0.2628-0.5726,0.4951-0.7015c0.1362,0.1813,0.3012,0.5082,0.2684,0.8118
		C34.2903,35.4017,34.4572,35.5992,34.4572,35.5992L34.4572,35.5992z"/>
</g>
</svg>
