<?xml version="1.0" encoding="utf-8"?>
<!-- Generator: Adobe Illustrator 22.0.0, SVG Export Plug-In . SVG Version: 6.00 Build 0)  -->
<svg version="1.1" id="Layer_1" xmlns="http://www.w3.org/2000/svg" xmlns:xlink="http://www.w3.org/1999/xlink" x="0px" y="0px"
	 viewBox="0 0 60 60" style="enable-background:new 0 0 60 60;" xml:space="preserve">
<style type="text/css">
	.st0{clip-path:url(#SVGID_2_);}
	.st1{fill:#00247D;}
	.st2{fill:#FED100;}
	.st3{fill:#FFFFFF;}
</style>
<g>
	<defs>
		<circle id="SVGID_1_" cx="30" cy="30" r="30"/>
	</defs>
	<clipPath id="SVGID_2_">
		<use xlink:href="#SVGID_1_"  style="overflow:visible;"/>
	</clipPath>
	<g class="st0">
		<rect x="-30" class="st1" width="120" height="60"/>
		<g>
			<path class="st2" d="M11.1984,51.6273c-0.6779-0.0057,6.3735-3.7582,12.2754-8.5649
				c7.735-6.2995,24.3942-16.3855,29.2918-18.0244c0.5119-0.1713-1.0499,0.8721-1.2526,1.2101
				c-5.2289,6.189-1.0555,17.8677,5.4796,23.7386c1.9651,1.5029,1.8644,1.5819,5.5074,1.7291v0.3402L11.1984,51.6273
				L11.1984,51.6273z"/>
			<path class="st2" d="M10.7732,52.3099c0,0-0.4975,0.3554-0.4961,0.6201c0.0016,0.2938,0.5581,0.6821,0.5581,0.6821l50.601,0.5581
				l0.9302-0.6201l-1.3022-0.8061L10.7732,52.3099L10.7732,52.3099z"/>
		</g>
		<g>
			<polygon class="st3" points="13.4452,16.1439 12.907,17.8003 14.3161,16.7766 15.7252,17.8003 15.1869,16.1438 16.596,15.1201 
				14.8543,15.1201 14.3161,13.4636 13.7778,15.1201 12.0361,15.1201 			"/>
			<polygon class="st3" points="24.0728,23.9472 25.247,23.094 23.7955,23.094 23.347,21.7137 22.8985,23.0941 21.4471,23.0941 
				22.6213,23.9472 22.1728,25.3276 23.347,24.4744 24.5213,25.3276 			"/>
			<polygon class="st3" points="4.3181,25.7205 3.7799,24.0641 3.2417,25.7206 1.5,25.7206 2.9091,26.7443 2.3709,28.4008 
				3.78,27.377 5.189,28.4008 4.6508,26.7443 6.0599,25.7205 			"/>
			<polygon class="st3" points="14.944,42.3558 14.3161,40.4232 13.6881,42.3558 11.6561,42.3558 13.3001,43.5502 12.6722,45.4827 
				14.3161,44.2883 15.96,45.4827 15.3321,43.5501 16.976,42.3558 			"/>
		</g>
	</g>
</g>
</svg>
