<?xml version="1.0" encoding="utf-8"?>
<!-- Generator: Adobe Illustrator 22.0.0, SVG Export Plug-In . SVG Version: 6.00 Build 0)  -->
<svg version="1.1" id="Layer_1" xmlns="http://www.w3.org/2000/svg" xmlns:xlink="http://www.w3.org/1999/xlink" x="0px" y="0px"
	 viewBox="0 0 60 60" style="enable-background:new 0 0 60 60;" xml:space="preserve">
<style type="text/css">
	.st0{clip-path:url(#SVGID_2_);}
	.st1{fill:#28AE66;}
	.st2{fill:#FFFFFF;}
	.st3{fill:#CA3745;}
	.st4{fill:#383739;}
	.st5{fill:#FAAE29;}
</style>
<g>
	<defs>
		<circle id="SVGID_1_" cx="30" cy="30" r="30"/>
	</defs>
	<clipPath id="SVGID_2_">
		<use xlink:href="#SVGID_1_"  style="overflow:visible;"/>
	</clipPath>
	<g class="st0">
		<rect x="-12.2126" y="0.0596" class="st1" width="84.4253" height="59.9404"/>
		<g>
			<path id="crescent" class="st2" d="M29.7018,9.9586c2.4952,1.0713,4.2434,3.5506,4.2434,6.4377
				c0,3.8671-3.136,7.0031-7.003,7.0031c-1.7312,0-3.3156-0.6289-4.538-1.6702c0.7562,0.3243,1.5825,0.5202,2.4531,0.5582
				c3.8634,0.1687,7.1332-2.8275,7.3018-6.6909C32.257,13.3535,31.2879,11.3107,29.7018,9.9586L29.7018,9.9586z"/>
			<path id="star" class="st2" d="M23.0223,15.1064l0.7934-2.442l-2.0773,1.5092h2.5677l-2.0773-1.5092L23.0223,15.1064z"/>
			<g>
				<path id="star_1_" class="st2" d="M23.0223,11.5042l0.7934-2.442l-2.0773,1.5092h2.5677l-2.0773-1.5092L23.0223,11.5042z"/>
			</g>
			<g>
				<path id="star_2_" class="st2" d="M26.5811,13.3502l0.7934-2.442l-2.0773,1.5092h2.5677l-2.0773-1.5092L26.5811,13.3502z"/>
			</g>
			<g>
				<path id="star_3_" class="st2" d="M19.4637,16.8626l0.7934-2.442l-2.0773,1.5092h2.5677l-2.0773-1.5092L19.4637,16.8626z"/>
			</g>
			<g>
				<path id="star_4_" class="st2" d="M23.0223,18.7085l0.7934-2.442l-2.0773,1.5092h2.5677l-2.0773-1.5092L23.0223,18.7085z"/>
			</g>
		</g>
		<g>
			<rect x="-2.0818" y="-0.5048" class="st3" width="15.1965" height="60.5048"/>
			<g id="ornm5">
				<g id="ornm">
					<path class="st4" d="M-2.0818-4.5v0.5929l0.8546,0.8599l-0.2882,0.2884l0.6111,0.6089l-0.2683,0.2617v-0.3792h-0.5217v0.454
						l1.1775,1.1857h0.5962l0.0646-0.4166h-0.3428l0.3726-0.3739L1.108-0.5048L0.1739,0.4139L-0.1987,0.04h0.3428L0.0795-0.382
						h-0.5962l-1.1775,1.1858v0.454h0.5217V0.8786l0.2683,0.2617l-0.6111,0.6089l0.2882,0.2938l-0.8546,0.8546v0.5929l1.4458-1.4475
						l-0.2882-0.2938l0.6062-0.6089l-0.5217-0.5234l0.3478-0.3418l0.6658,0.6623l1.4608-1.4421L0.1739-1.9469l-0.6658,0.6676
						l-0.3478-0.3472l0.5217-0.5234l-0.6062-0.6089l0.2882-0.2884L-2.0818-4.5L-2.0818-4.5z M-2.0818-1.6211v2.2326l0.3379-0.3685
						v-0.4326h0.3577l0.2882-0.3151l-0.2882-0.3098h-0.3577v-0.438L-2.0818-1.6211L-2.0818-1.6211z M0.3826-0.8306L0.3329-0.5262
						l0.0497,0.3098l0.308-0.3098L0.3826-0.8306z"/>
					<path class="st5" d="M-2.0818-4.4359v0.47l0.9142,0.9187l-0.2882,0.2884l0.6111,0.6089l-0.3677,0.3685v-0.4433h-0.4422v0.3952
						l1.1577,1.159h0.5366l0.0546-0.3312h-0.3975l0.477-0.4807l0.9937,0.9774L0.1739,0.4726l-0.477-0.4754h0.3975L0.0396-0.3392
						H-0.497l-1.1577,1.159V1.215h0.4422V0.7717l0.3677,0.3685l-0.6111,0.6089l0.2882,0.2938l-0.9142,0.9133v0.47l1.3862-1.3834
						l-0.2882-0.2938l0.6062-0.6089l-0.5217-0.5234l0.4074-0.4059l0.6658,0.6676l1.3962-1.3834L0.1738-1.8882L-0.492-1.2205
						l-0.4074-0.4059l0.5217-0.5234l-0.6062-0.6089l0.2882-0.2884l-1.3862-1.3887L-2.0818-4.4359z M-2.0818-1.557v2.1044
						l0.2981-0.3205v-0.4647h0.3826l0.2484-0.2671l-0.2484-0.2671h-0.3826v-0.4647L-2.0818-1.557L-2.0818-1.557z M0.4124-0.7451
						l-0.0348,0.219l0.0348,0.219l0.2186-0.219L0.4124-0.7451z"/>
				</g>
				<g>
					<g id="ornm_1_">
						<path class="st4" d="M-2.0818,6.5126v0.5929l0.8546,0.8599l-0.2882,0.2884l0.6111,0.6089l-0.2683,0.2617V8.7452h-0.5217v0.454
							l1.1775,1.1857h0.5962l0.0646-0.4166h-0.3428l0.3726-0.3739l0.9341,0.9133l-0.9341,0.9187l-0.3726-0.3739h0.3428
							l-0.0646-0.422h-0.5962l-1.1775,1.1858v0.454h0.5217v-0.3792l0.2683,0.2617l-0.6111,0.6089l0.2882,0.2938l-0.8546,0.8546
							v0.5929l1.4458-1.4475l-0.2882-0.2938l0.6062-0.6089l-0.5217-0.5234l0.3478-0.3418l0.6658,0.6623l1.4608-1.4421L0.1739,9.0657
							l-0.6658,0.6676l-0.3478-0.3472l0.5217-0.5234l-0.6062-0.6089l0.2882-0.2884L-2.0818,6.5126L-2.0818,6.5126z M-2.0818,9.3915
							v2.2326l0.3379-0.3685v-0.4326h0.3577l0.2882-0.3151l-0.2882-0.3098h-0.3577V9.76L-2.0818,9.3915L-2.0818,9.3915z
							 M0.3826,10.1819l-0.0497,0.3044l0.0497,0.3098l0.308-0.3098L0.3826,10.1819z"/>
						<path class="st5" d="M-2.0818,6.5766v0.47l0.9142,0.9187l-0.2882,0.2884l0.6111,0.6089l-0.3677,0.3685V8.7879h-0.4422v0.3952
							l1.1577,1.159h0.5366l0.0546-0.3312h-0.3975l0.477-0.4807l0.9937,0.9774l-0.9937,0.9774l-0.477-0.4754h0.3975l-0.0548-0.3365
							H-0.497l-1.1577,1.159v0.3952h0.4422v-0.4433l0.3677,0.3685l-0.6111,0.6089l0.2882,0.2938l-0.9142,0.9133v0.47l1.3862-1.3834
							l-0.2882-0.2938l0.6062-0.6089l-0.5217-0.5234l0.4074-0.4059l0.6658,0.6676l1.3962-1.3834L0.1738,9.1244L-0.492,9.792
							l-0.4074-0.4059l0.5217-0.5234l-0.6062-0.6089l0.2882-0.2884l-1.3862-1.3887L-2.0818,6.5766z M-2.0818,9.4555V11.56
							l0.2981-0.3205v-0.4647h0.3826l0.2484-0.2671l-0.2484-0.2671h-0.3826V9.776L-2.0818,9.4555L-2.0818,9.4555z M0.4124,10.2674
							l-0.0348,0.219l0.0348,0.219l0.2186-0.219L0.4124,10.2674z"/>
					</g>
				</g>
				<g>
					<g id="ornm_2_">
						<path class="st4" d="M-2.0818,17.8873v0.5929l0.8546,0.8599l-0.2882,0.2884l0.6111,0.6089l-0.2683,0.2617v-0.3792h-0.5217
							v0.454l1.1775,1.1857h0.5962l0.0646-0.4166h-0.3428l0.3726-0.3739l0.9341,0.9133l-0.9341,0.9187l-0.3726-0.3739h0.3428
							l-0.0646-0.422h-0.5962l-1.1775,1.1858v0.454h0.5217v-0.3792l0.2683,0.2617l-0.6111,0.6089l0.2882,0.2938l-0.8546,0.8546
							v0.5929l1.4458-1.4475l-0.2882-0.2938l0.6062-0.6089l-0.5217-0.5234l0.3478-0.3418l0.6658,0.6623l1.4608-1.4421
							l-1.4608-1.4421l-0.6658,0.6676l-0.3478-0.3472l0.5217-0.5234l-0.6062-0.6089l0.2882-0.2884L-2.0818,17.8873L-2.0818,17.8873z
							 M-2.0818,20.7662v2.2326l0.3379-0.3685v-0.4326h0.3577l0.2882-0.3151l-0.2882-0.3098h-0.3577v-0.438L-2.0818,20.7662
							L-2.0818,20.7662z M0.3826,21.5567l-0.0497,0.3044l0.0497,0.3098l0.308-0.3098L0.3826,21.5567z"/>
						<path class="st5" d="M-2.0818,17.9514v0.47l0.9142,0.9187l-0.2882,0.2884l0.6111,0.6089l-0.3677,0.3685v-0.4433h-0.4422
							v0.3952l1.1577,1.159h0.5366l0.0546-0.3312h-0.3975l0.477-0.4807l0.9937,0.9774l-0.9937,0.9774l-0.477-0.4754h0.3975
							l-0.0548-0.3365H-0.497l-1.1577,1.159v0.3952h0.4422V23.159l0.3677,0.3685l-0.6111,0.6089l0.2882,0.2938l-0.9142,0.9133v0.47
							l1.3862-1.3834l-0.2882-0.2938l0.6062-0.6089l-0.5217-0.5234l0.4074-0.4059l0.6658,0.6676l1.3962-1.3834l-1.3962-1.3834
							l-0.6658,0.6676l-0.4074-0.4059l0.5217-0.5234l-0.6062-0.6089l0.2882-0.2884l-1.3862-1.3887L-2.0818,17.9514z
							 M-2.0818,20.8303v2.1044l0.2981-0.3205v-0.4647h0.3826l0.2484-0.2671l-0.2484-0.2671h-0.3826v-0.4647L-2.0818,20.8303
							L-2.0818,20.8303z M0.4124,21.6421l-0.0348,0.219l0.0348,0.219l0.2186-0.219L0.4124,21.6421z"/>
					</g>
				</g>
				<g>
					<g id="ornm_3_">
						<path class="st4" d="M-2.0818,29.2618v0.5929l0.8546,0.8599l-0.2882,0.2884l0.6111,0.6089l-0.2683,0.2617v-0.3792h-0.5217
							v0.454l1.1775,1.1857h0.5962l0.0646-0.4166h-0.3428l0.3726-0.3739L1.108,33.257l-0.9341,0.9187l-0.3726-0.3739h0.3428
							l-0.0646-0.422h-0.5962l-1.1775,1.1858v0.454h0.5217v-0.3792l0.2683,0.2617l-0.6111,0.6089l0.2882,0.2938l-0.8546,0.8546
							v0.5929l1.4458-1.4475l-0.2882-0.2938l0.6062-0.6089l-0.5217-0.5234l0.3478-0.3418l0.6658,0.6623l1.4608-1.4421
							l-1.4608-1.4421l-0.6658,0.6676l-0.3478-0.3472l0.5217-0.5234l-0.6062-0.6089l0.2882-0.2884L-2.0818,29.2618L-2.0818,29.2618z
							 M-2.0818,32.1407v2.2326l0.3379-0.3685v-0.4326h0.3577l0.2882-0.3151l-0.2882-0.3098h-0.3577v-0.438L-2.0818,32.1407
							L-2.0818,32.1407z M0.3826,32.9312l-0.0497,0.3044l0.0497,0.3098l0.308-0.3098L0.3826,32.9312z"/>
						<path class="st5" d="M-2.0818,29.3259v0.47l0.9142,0.9187l-0.2882,0.2884l0.6111,0.6089l-0.3677,0.3685v-0.4433h-0.4422
							v0.3952l1.1577,1.159h0.5366l0.0546-0.3312h-0.3975l0.477-0.4807l0.9937,0.9774l-0.9937,0.9774l-0.477-0.4754h0.3975
							l-0.0548-0.3365H-0.497l-1.1577,1.159v0.3952h0.4422v-0.4433l0.3677,0.3685l-0.6111,0.6089l0.2882,0.2938l-0.9142,0.9133v0.47
							l1.3862-1.3834l-0.2882-0.2938l0.6062-0.6089l-0.5217-0.5234l0.4074-0.4059l0.6658,0.6676l1.3962-1.3834l-1.3962-1.3834
							l-0.6658,0.6676l-0.4074-0.4059l0.5217-0.5234l-0.6062-0.6089l0.2882-0.2884l-1.3862-1.3887L-2.0818,29.3259z
							 M-2.0818,32.2048v2.1044l0.2981-0.3205v-0.4647h0.3826l0.2484-0.2671L-1.4011,32.99h-0.3826v-0.4647L-2.0818,32.2048
							L-2.0818,32.2048z M0.4124,33.0167l-0.0348,0.219l0.0348,0.219l0.2186-0.219L0.4124,33.0167z"/>
					</g>
				</g>
				<g>
					<g id="ornm_4_">
						<path class="st4" d="M-2.0818,40.6364v0.5929l0.8546,0.8599l-0.2882,0.2884l0.6111,0.6089l-0.2683,0.2617V42.869h-0.5217
							v0.454l1.1775,1.1857h0.5962l0.0646-0.4166h-0.3428l0.3726-0.3739l0.9341,0.9133l-0.9341,0.9187l-0.3726-0.3739h0.3428
							l-0.0646-0.422h-0.5962l-1.1775,1.1858v0.454h0.5217V46.015l0.2683,0.2617l-0.6111,0.6089l0.2882,0.2938l-0.8546,0.8546
							v0.5929l1.4458-1.4475l-0.2882-0.2938l0.6062-0.6089l-0.5217-0.5234l0.3478-0.3418l0.6658,0.6623l1.4608-1.4421
							l-1.4608-1.4421l-0.6658,0.6676L-0.8397,43.51l0.5217-0.5234l-0.6062-0.6089l0.2882-0.2884L-2.0818,40.6364L-2.0818,40.6364z
							 M-2.0818,43.5153v2.2326l0.3379-0.3685v-0.4326h0.3577l0.2882-0.3151l-0.2882-0.3098h-0.3577v-0.438L-2.0818,43.5153
							L-2.0818,43.5153z M0.3826,44.3058l-0.0497,0.3044L0.3826,44.92l0.308-0.3098L0.3826,44.3058z"/>
						<path class="st5" d="M-2.0818,40.7005v0.47l0.9142,0.9187l-0.2882,0.2884l0.6111,0.6089l-0.3677,0.3685v-0.4433h-0.4422
							v0.3952l1.1577,1.159h0.5366l0.0546-0.3312h-0.3975l0.477-0.4807l0.9937,0.9774L0.1739,45.609l-0.477-0.4754h0.3975
							l-0.0548-0.3365H-0.497l-1.1577,1.159v0.3952h0.4422v-0.4433l0.3677,0.3685l-0.6111,0.6089l0.2882,0.2938l-0.9142,0.9133v0.47
							l1.3862-1.3834l-0.2882-0.2938l0.6062-0.6089l-0.5217-0.5234l0.4074-0.4059l0.6658,0.6676l1.3962-1.3834l-1.3962-1.3834
							l-0.6658,0.6676l-0.4074-0.4059l0.5217-0.5234l-0.6062-0.6089l0.2882-0.2884l-1.3862-1.3887L-2.0818,40.7005z
							 M-2.0818,43.5794v2.1044l0.2981-0.3205v-0.4647h0.3826l0.2484-0.2671l-0.2484-0.2671h-0.3826v-0.4647L-2.0818,43.5794
							L-2.0818,43.5794z M0.4124,44.3913l-0.0348,0.219l0.0348,0.219l0.2186-0.219L0.4124,44.3913z"/>
					</g>
				</g>
			</g>
			<g>
				<g id="ornm5_1_">
					<g id="ornm_5_">
						<path class="st4" d="M13.1148-4.5v0.5929l-0.8546,0.8599l0.2882,0.2884l-0.6111,0.6089l0.2683,0.2617v-0.3792h0.5217v0.454
							l-1.1775,1.1857h-0.5962l-0.0646-0.4166h0.3428l-0.3726-0.3739L9.925-0.5048l0.9341,0.9187L11.2317,0.04h-0.3428l0.0646-0.422
							h0.5962l1.1775,1.1858v0.454h-0.5217V0.8786l-0.2683,0.2617l0.6111,0.6089l-0.2882,0.2938l0.8546,0.8546v0.5929
							l-1.4458-1.4475l0.2882-0.2938l-0.6062-0.6089l0.5217-0.5234L11.5248,0.275l-0.6658,0.6623L9.3983-0.5048l1.4608-1.4421
							l0.6658,0.6676l0.3478-0.3472l-0.5217-0.5234l0.6062-0.6089l-0.2882-0.2884L13.1148-4.5L13.1148-4.5z M13.1148-1.6211v2.2326
							L12.7769,0.243v-0.4326h-0.3577L12.131-0.5048l0.2882-0.3098h0.3577v-0.438L13.1148-1.6211L13.1148-1.6211z M10.6504-0.8306
							l0.0497,0.3044l-0.0497,0.3098l-0.308-0.3098L10.6504-0.8306z"/>
						<path class="st5" d="M13.1148-4.4359v0.47l-0.9142,0.9187l0.2882,0.2884l-0.6111,0.6089l0.3677,0.3685v-0.4433h0.4422v0.3952
							l-1.1577,1.159h-0.5366l-0.0546-0.3312h0.3975l-0.477-0.4807L9.8654-0.5048l0.9937,0.9774l0.477-0.4754h-0.3975l0.0548-0.3365
							h0.5366l1.1577,1.159V1.215h-0.4422V0.7717l-0.3677,0.3685l0.6111,0.6089l-0.2882,0.2938l0.9142,0.9133v0.47l-1.3862-1.3834
							l0.2882-0.2938l-0.6062-0.6089l0.5217-0.5234L11.525,0.2109l-0.6658,0.6676L9.463-0.5048l1.3962-1.3834l0.6658,0.6676
							l0.4074-0.4059l-0.5217-0.5234l0.6062-0.6089l-0.2882-0.2884l1.3862-1.3887L13.1148-4.4359z M13.1148-1.557v2.1044
							l-0.2981-0.3205v-0.4647h-0.3826l-0.2484-0.2671l0.2484-0.2671h0.3826v-0.4647L13.1148-1.557L13.1148-1.557z M10.6206-0.7451
							l0.0348,0.219l-0.0348,0.219l-0.2186-0.219L10.6206-0.7451z"/>
					</g>
					<g>
						<g id="ornm_6_">
							<path class="st4" d="M13.1148,6.5126v0.5929l-0.8546,0.8599l0.2882,0.2884l-0.6111,0.6089l0.2683,0.2617V8.7452h0.5217v0.454
								l-1.1775,1.1857h-0.5962l-0.0646-0.4166h0.3428l-0.3726-0.3739L9.925,10.5078l0.9341,0.9187l0.3726-0.3739h-0.3428
								l0.0646-0.422h0.5962l1.1775,1.1858v0.454h-0.5217v-0.3792l-0.2683,0.2617l0.6111,0.6089l-0.2882,0.2938l0.8546,0.8546
								v0.5929l-1.4458-1.4475l0.2882-0.2938l-0.6062-0.6089l0.5217-0.5234l-0.3478-0.3418l-0.6658,0.6623l-1.4608-1.4421
								l1.4608-1.4421l0.6658,0.6676l0.3478-0.3472l-0.5217-0.5234l0.6062-0.6089l-0.2882-0.2884L13.1148,6.5126L13.1148,6.5126z
								 M13.1148,9.3915v2.2326l-0.3379-0.3685v-0.4326h-0.3577l-0.2882-0.3151l0.2882-0.3098h0.3577V9.76L13.1148,9.3915
								L13.1148,9.3915z M10.6504,10.1819l0.0497,0.3044l-0.0497,0.3098l-0.308-0.3098L10.6504,10.1819z"/>
							<path class="st5" d="M13.1148,6.5766v0.47l-0.9142,0.9187l0.2882,0.2884l-0.6111,0.6089l0.3677,0.3685V8.7879h0.4422v0.3952
								l-1.1577,1.159h-0.5366l-0.0546-0.3312h0.3975l-0.477-0.4807l-0.9937,0.9774l0.9937,0.9774l0.477-0.4754h-0.3975
								l0.0548-0.3365h0.5366l1.1577,1.159v0.3952h-0.4422v-0.4433l-0.3677,0.3685l0.6111,0.6089l-0.2882,0.2938l0.9142,0.9133v0.47
								l-1.3862-1.3834l0.2882-0.2938l-0.6062-0.6089l0.5217-0.5234l-0.4074-0.4059l-0.6658,0.6676L9.463,10.5077l1.3962-1.3834
								L11.525,9.792l0.4074-0.4059l-0.5217-0.5234l0.6062-0.6089l-0.2882-0.2884l1.3862-1.3887L13.1148,6.5766z M13.1148,9.4555
								V11.56l-0.2981-0.3205v-0.4647h-0.3826l-0.2484-0.2671l0.2484-0.2671h0.3826V9.776L13.1148,9.4555L13.1148,9.4555z
								 M10.6206,10.2674l0.0348,0.219l-0.0348,0.219l-0.2186-0.219L10.6206,10.2674z"/>
						</g>
					</g>
					<g>
						<g id="ornm_7_">
							<path class="st4" d="M13.1148,17.8873v0.5929l-0.8546,0.8599l0.2882,0.2884l-0.6111,0.6089l0.2683,0.2617v-0.3792h0.5217
								v0.454l-1.1775,1.1857h-0.5962l-0.0646-0.4166h0.3428l-0.3726-0.3739L9.925,21.8825l0.9341,0.9187l0.3726-0.3739h-0.3428
								l0.0646-0.422h0.5962l1.1775,1.1858v0.454h-0.5217v-0.3792l-0.2683,0.2617l0.6111,0.6089l-0.2882,0.2938l0.8546,0.8546
								v0.5929l-1.4458-1.4475l0.2882-0.2938l-0.6062-0.6089l0.5217-0.5234l-0.3478-0.3418l-0.6658,0.6623l-1.4608-1.4421
								l1.4608-1.4421l0.6658,0.6676l0.3478-0.3472l-0.5217-0.5234l0.6062-0.6089l-0.2882-0.2884L13.1148,17.8873L13.1148,17.8873z
								 M13.1148,20.7662v2.2326l-0.3379-0.3685v-0.4326h-0.3577l-0.2882-0.3151l0.2882-0.3098h0.3577v-0.438L13.1148,20.7662
								L13.1148,20.7662z M10.6504,21.5567l0.0497,0.3044l-0.0497,0.3098l-0.308-0.3098L10.6504,21.5567z"/>
							<path class="st5" d="M13.1148,17.9514v0.47l-0.9142,0.9187l0.2882,0.2884l-0.6111,0.6089l0.3677,0.3685v-0.4433h0.4422
								v0.3952l-1.1577,1.159h-0.5366l-0.0546-0.3312h0.3975l-0.477-0.4807l-0.9937,0.9774l0.9937,0.9774l0.477-0.4754h-0.3975
								l0.0548-0.3365h0.5366l1.1577,1.159v0.3952h-0.4422V23.159l-0.3677,0.3685l0.6111,0.6089l-0.2882,0.2938l0.9142,0.9133v0.47
								l-1.3862-1.3834l0.2882-0.2938l-0.6062-0.6089l0.5217-0.5234l-0.4074-0.4059l-0.6658,0.6676L9.463,21.8825l1.3962-1.3834
								l0.6658,0.6676l0.4074-0.4059l-0.5217-0.5234l0.6062-0.6089l-0.2882-0.2884l1.3862-1.3887L13.1148,17.9514z M13.1148,20.8303
								v2.1044l-0.2981-0.3205v-0.4647h-0.3826l-0.2484-0.2671l0.2484-0.2671h0.3826v-0.4647L13.1148,20.8303L13.1148,20.8303z
								 M10.6206,21.6421l0.0348,0.219l-0.0348,0.219l-0.2186-0.219L10.6206,21.6421z"/>
						</g>
					</g>
					<g>
						<g id="ornm_8_">
							<path class="st4" d="M13.1148,29.2618v0.5929l-0.8546,0.8599l0.2882,0.2884l-0.6111,0.6089l0.2683,0.2617v-0.3792h0.5217
								v0.454l-1.1775,1.1857h-0.5962l-0.0646-0.4166h0.3428l-0.3726-0.3739L9.925,33.257l0.9341,0.9187l0.3726-0.3739h-0.3428
								l0.0646-0.422h0.5962l1.1775,1.1858v0.454h-0.5217v-0.3792l-0.2683,0.2617l0.6111,0.6089l-0.2882,0.2938l0.8546,0.8546
								v0.5929l-1.4458-1.4475l0.2882-0.2938l-0.6062-0.6089l0.5217-0.5234l-0.3478-0.3418l-0.6658,0.6623l-1.4608-1.4421
								l1.4608-1.4421l0.6658,0.6676l0.3478-0.3472l-0.5217-0.5234l0.6062-0.6089l-0.2882-0.2884L13.1148,29.2618L13.1148,29.2618z
								 M13.1148,32.1407v2.2326l-0.3379-0.3685v-0.4326h-0.3577L12.131,33.257l0.2882-0.3098h0.3577v-0.438L13.1148,32.1407
								L13.1148,32.1407z M10.6504,32.9312l0.0497,0.3044l-0.0497,0.3098l-0.308-0.3098L10.6504,32.9312z"/>
							<path class="st5" d="M13.1148,29.3259v0.47l-0.9142,0.9187l0.2882,0.2884l-0.6111,0.6089l0.3677,0.3685v-0.4433h0.4422
								v0.3952l-1.1577,1.159h-0.5366l-0.0546-0.3312h0.3975l-0.477-0.4807L9.8654,33.257l0.9937,0.9774l0.477-0.4754h-0.3975
								l0.0548-0.3365h0.5366l1.1577,1.159v0.3952h-0.4422v-0.4433l-0.3677,0.3685l0.6111,0.6089l-0.2882,0.2938l0.9142,0.9133v0.47
								l-1.3862-1.3834l0.2882-0.2938l-0.6062-0.6089l0.5217-0.5234l-0.4074-0.4059l-0.6658,0.6676L9.463,33.257l1.3962-1.3834
								l0.6658,0.6676l0.4074-0.4059l-0.5217-0.5234l0.6062-0.6089l-0.2882-0.2884l1.3862-1.3887L13.1148,29.3259z M13.1148,32.2048
								v2.1044l-0.2981-0.3205v-0.4647h-0.3826l-0.2484-0.2671l0.2484-0.2671h0.3826v-0.4647L13.1148,32.2048L13.1148,32.2048z
								 M10.6206,33.0167l0.0348,0.219l-0.0348,0.219l-0.2186-0.219L10.6206,33.0167z"/>
						</g>
					</g>
					<g transform="matrix(-1,0,0,1,377.99597,0)">
						<g id="ornm_9_">
							<path class="st4" d="M13.1148,40.6364v0.5929l-0.8546,0.8599l0.2882,0.2884l-0.6111,0.6089l0.2683,0.2617V42.869h0.5217
								v0.454l-1.1775,1.1857h-0.5962l-0.0646-0.4166h0.3428l-0.3726-0.3739L9.925,44.6316l0.9341,0.9187l0.3726-0.3739h-0.3428
								l0.0646-0.422h0.5962l1.1775,1.1858v0.454h-0.5217V46.015l-0.2683,0.2617l0.6111,0.6089l-0.2882,0.2938l0.8546,0.8546v0.5929
								l-1.4458-1.4475l0.2882-0.2938l-0.6062-0.6089l0.5217-0.5234l-0.3478-0.3418l-0.6658,0.6623l-1.4608-1.4421l1.4608-1.4421
								l0.6658,0.6676l0.3478-0.3472l-0.5217-0.5234l0.6062-0.6089l-0.2882-0.2884L13.1148,40.6364L13.1148,40.6364z
								 M13.1148,43.5153v2.2326l-0.3379-0.3685v-0.4326h-0.3577l-0.2882-0.3151l0.2882-0.3098h0.3577v-0.438L13.1148,43.5153
								L13.1148,43.5153z M10.6504,44.3058l0.0497,0.3044L10.6504,44.92l-0.308-0.3098L10.6504,44.3058z"/>
							<path class="st5" d="M13.1148,40.7005v0.47l-0.9142,0.9187l0.2882,0.2884l-0.6111,0.6089l0.3677,0.3685v-0.4433h0.4422
								v0.3952l-1.1577,1.159h-0.5366l-0.0546-0.3312h0.3975l-0.477-0.4807l-0.9937,0.9774l0.9937,0.9774l0.477-0.4754h-0.3975
								l0.0548-0.3365h0.5366l1.1577,1.159v0.3952h-0.4422v-0.4433l-0.3677,0.3685l0.6111,0.6089l-0.2882,0.2938l0.9142,0.9133v0.47
								l-1.3862-1.3834l0.2882-0.2938l-0.6062-0.6089l0.5217-0.5234l-0.4074-0.4059l-0.6658,0.6676L9.463,44.6316l1.3962-1.3834
								l0.6658,0.6676l0.4074-0.4059l-0.5217-0.5234l0.6062-0.6089l-0.2882-0.2884l1.3862-1.3887L13.1148,40.7005z M13.1148,43.5794
								v2.1044l-0.2981-0.3205v-0.4647h-0.3826l-0.2484-0.2671l0.2484-0.2671h0.3826v-0.4647L13.1148,43.5794L13.1148,43.5794z
								 M10.6206,44.3913l0.0348,0.219l-0.0348,0.219l-0.2186-0.219L10.6206,44.3913z"/>
						</g>
					</g>
				</g>
				<path id="branch" class="st5" d="M-0.849,53.0242c0.075,0.3436,0.3291,0.6029,0.3897,0.9593
					c0.1212-0.3716,0.233-0.683,0.1495-1.0895c-0.0597-0.2907-0.2872-0.4981-0.3136-0.7968
					C-0.8714,52.3369-0.9248,52.6769-0.849,53.0242L-0.849,53.0242z M-0.9119,54.4639c0.2104,0.3101,0.5028,0.5479,0.8258,0.7065
					c-0.0636-0.2716,0.0557-0.4761,0.1882-0.6918c0.1596-0.2596,0.2373-0.5145,0.1073-0.8134
					c-0.0606,0.1554-0.1421,0.2844-0.2376,0.4173c-0.1413,0.2073-0.2343,0.3916-0.256,0.6574
					c-0.1634-0.1302-0.2353-0.3247-0.3227-0.5128c-0.1332-0.2695-0.3482-0.4949-0.5952-0.6422
					C-1.1365,53.8873-1.086,54.207-0.9119,54.4639L-0.9119,54.4639z M0.2681,55.3881c-0.045,0.1722-0.0838,0.3429-0.0751,0.5229
					c-0.139-0.161-0.3236-0.2822-0.4883-0.4119c-0.2243-0.195-0.4857-0.3325-0.6691-0.5808
					c0.0274,0.3654,0.1728,0.6634,0.4491,0.8857c0.292,0.2349,0.6442,0.3613,0.9318,0.608
					c-0.0431-0.3323,0.0705-0.5986,0.1674-0.9041c0.0807-0.2919,0.0026-0.5883-0.1816-0.8108
					C0.405,54.9437,0.3326,55.1554,0.2681,55.3881L0.2681,55.3881z M0.9234,56.5108c0.0605,0.2521,0.2286,0.4572,0.3433,0.6821
					c-0.3094-0.1032-0.5825-0.2836-0.8622-0.4534c-0.3332-0.195-0.695-0.3192-0.9966-0.5767
					c0.1501,0.5974,0.5221,0.9438,1.0664,1.1204C0.8464,57.4041,1.16,57.3438,1.6116,57.54
					c-0.0518-0.3286-0.143-0.6833-0.2876-0.9796c-0.1122-0.2143-0.2366-0.4257-0.3058-0.6617
					C0.9179,56.0926,0.8704,56.2898,0.9234,56.5108L0.9234,56.5108z M2.062,57.425c0.1065,0.1962,0.2472,0.3613,0.4216,0.4916
					c-0.4393,0.0301-0.7928-0.2692-1.2211-0.2822c-0.2645-0.008-0.5157,0.0803-0.7854,0.0538
					c0.3201,0.2322,0.6553,0.435,1.0451,0.4892c0.5067,0.0704,0.9739-0.0666,1.5329-0.013
					c-0.2612-0.1982-0.3919-0.4634-0.5547-0.7486c-0.212-0.3562-0.4121-0.6101-0.8245-0.6674
					C1.8414,56.9484,1.9378,57.1961,2.062,57.425L2.062,57.425z M3.6222,58.2088c-0.7739,0.1414-1.5155,0.3244-2.3059,0.3328
					c0.8847,0.3316,1.7183,0.3915,2.5958,0.0492c0.4742-0.185,0.8378-0.2841,1.1959-0.2565
					c0.5234,0.0404,1.1594,0.2624,1.8634,1.0605l0.2767-0.238C6.2391,58.1905,4.9191,57.9717,3.6222,58.2088L3.6222,58.2088z"/>
				<g transform="matrix(-1,0,0,1,378.03633,0)">
					<path id="branch_1_" class="st5" d="M11.8857,53.0242c-0.075,0.3436-0.3291,0.6029-0.3897,0.9593
						c-0.1212-0.3716-0.233-0.683-0.1495-1.0895c0.0597-0.2907,0.2872-0.4981,0.3136-0.7968
						C11.9081,52.3369,11.9616,52.6769,11.8857,53.0242L11.8857,53.0242z M11.9486,54.4639
						c-0.2104,0.3101-0.5028,0.5479-0.8258,0.7065c0.0636-0.2716-0.0557-0.4761-0.1882-0.6918
						c-0.1596-0.2596-0.2373-0.5145-0.1073-0.8134c0.0606,0.1554,0.1421,0.2844,0.2376,0.4173
						c0.1413,0.2073,0.2343,0.3916,0.256,0.6574c0.1634-0.1302,0.2353-0.3247,0.3227-0.5128
						c0.1332-0.2695,0.3482-0.4949,0.5952-0.6422C12.1733,53.8873,12.1228,54.207,11.9486,54.4639L11.9486,54.4639z
						 M10.7687,55.3881c0.045,0.1722,0.0838,0.3429,0.0751,0.5229c0.139-0.161,0.3236-0.2822,0.4883-0.4119
						c0.2243-0.195,0.4857-0.3325,0.6691-0.5808c-0.0274,0.3654-0.1728,0.6634-0.4491,0.8857
						c-0.292,0.2349-0.6442,0.3613-0.9318,0.608c0.0431-0.3323-0.0705-0.5986-0.1674-0.9041
						c-0.0807-0.2919-0.0026-0.5883,0.1816-0.8108C10.6317,54.9437,10.7041,55.1554,10.7687,55.3881L10.7687,55.3881z
						 M10.1134,56.5108c-0.0605,0.2521-0.2286,0.4572-0.3433,0.6821c0.3094-0.1032,0.5825-0.2836,0.8622-0.4534
						c0.3332-0.195,0.695-0.3192,0.9966-0.5767c-0.1501,0.5974-0.5221,0.9438-1.0664,1.1204
						c-0.3721,0.1208-0.6858,0.0606-1.1373,0.2567c0.0518-0.3286,0.143-0.6833,0.2876-0.9796
						c0.1122-0.2143,0.2366-0.4257,0.3058-0.6617C10.1189,56.0926,10.1664,56.2898,10.1134,56.5108L10.1134,56.5108z M8.9747,57.425
						c-0.1065,0.1962-0.2472,0.3613-0.4216,0.4916c0.4393,0.0301,0.7928-0.2692,1.2211-0.2822
						c0.2645-0.008,0.5157,0.0803,0.7854,0.0538c-0.3201,0.2322-0.6553,0.435-1.0451,0.4892
						c-0.5067,0.0704-0.9739-0.0666-1.5329-0.013c0.2612-0.1982,0.3919-0.4634,0.5547-0.7486
						c0.212-0.3562,0.4121-0.6101,0.8245-0.6674C9.1953,56.9484,9.099,57.1961,8.9747,57.425L8.9747,57.425z M7.4146,58.2088
						c0.7739,0.1414,1.5155,0.3244,2.3059,0.3328c-0.8847,0.3316-1.7183,0.3915-2.5958,0.0492
						c-0.4742-0.185-0.8378-0.2841-1.1959-0.2565c-0.5234,0.0404-1.1594,0.2624-1.8634,1.0605l-0.2767-0.238
						C4.7976,58.1905,6.1177,57.9717,7.4146,58.2088L7.4146,58.2088z"/>
				</g>
				<g>
					<path class="st4" d="M-0.1805,6.5883l-1.2177-0.8027V3.856l1.2177-0.8027v-1.021l1.1507-0.7449h0.9193l1.7492-1.0577h3.7553
						l1.7493,1.0577h0.9193l1.1507,0.7449v1.021l1.2177,0.8027l-0.0001,1.9296l-1.2176,0.8027v1.021l-1.1507,0.7449H9.1434
						L7.3941,9.412H3.6388L1.8895,8.3543H0.9702l-1.1507-0.7449L-0.1805,6.5883z"/>
					<path class="st1" d="M3.6469,0.275L1.898,1.3326H0.9838L-0.1391,2.059v1.0202l-1.2173,0.8012v1.8801l1.2173,0.8012v1.0255
						l1.1179,0.7264H1.898L3.6469,9.371h3.7363l1.7489-1.0576h0.9192l1.1229-0.7264V6.5616l1.2173-0.8012V3.8803l-1.2173-0.8012
						V2.059l-1.1229-0.7264H9.1322L7.3833,0.275C7.3833,0.275,3.6469,0.275,3.6469,0.275z M3.7513,0.6649h3.5326l1.7489,1.0576
						H9.947l0.8496,0.5501v1.0202l1.2223,0.8012v1.4528l-1.2223,0.8012v1.0202L9.947,7.9182H9.0328L7.2839,8.9758H3.7513
						L2.0024,7.9182H1.0881L0.2336,7.3681V6.3479l-1.2173-0.8012V4.0939l1.2173-0.8012V2.2726l0.8546-0.5501h0.9142
						C2.0024,1.7225,3.7513,0.6649,3.7513,0.6649z"/>
					<path class="st5" d="M5.4963,4.8424V0.707h-1.736L2.011,1.7647h-0.912L0.274,2.2988v1.0185L-0.9436,4.12v0.6792l6.4802-0.0001
						v4.1355h1.736l1.7493-1.0577h0.912l0.8249-0.5341V6.3243l1.2177-0.8027V4.8424L5.4963,4.8424z"/>
					<path class="st2" d="M-0.9436,4.8424l-0.0001,0.6792L0.274,6.3243v1.0185l0.8249,0.5341h0.912l1.7493,1.0577h1.736V4.7991
						l6.4802,0.0001V4.1199l-1.2177-0.8027V2.2987L9.9338,1.7647h-0.912L7.2725,0.707h-1.736v4.1354L-0.9436,4.8424z"/>
					<g id="carp1h">
						<g id="carp1q">
							<path class="st4" d="M1.7127,2.1454L1.4129,1.845l-0.297,0.1969l0.3003,0.301L1.0306,2.5996h0.8413l0.725,0.7352
								l0.2319-0.2633L2.124,2.3567V1.8714L1.7127,2.1454z"/>
							<path class="st4" d="M3.1315,2.0134L2.8317,1.7131L2.5347,1.91l0.3003,0.301L2.4494,2.4677h0.8413l0.725,0.7352
								l0.2319-0.2633L3.5428,2.2247V1.7395L3.1315,2.0134z"/>
							<path class="st4" d="M1.6086,3.0081L1.3089,2.7078l-0.297,0.1969l0.3002,0.301L0.9266,3.4624H1.768l0.725,0.7352
								l0.2319-0.2633L2.0199,3.2194V2.7341L1.6086,3.0081z"/>
							<path class="st4" d="M5.5164,0.6639H4.7572L4.36,1.0754H3.5856L3.0133,1.3947l0.1334,0.3495l0.5103-0.2881h0.2235
								L4.663,2.4289l0.8534-0.5586L5.5164,0.6639z"/>
							<path class="st3" d="M1.4079,1.8991L1.6773,2.169L1.4516,2.3193L1.1818,2.0489L1.4079,1.8991z M2.0838,1.949v0.4263
								l0.6883,0.698L2.5954,3.2738L1.8879,2.5564H1.1717L2.0838,1.949L2.0838,1.949z"/>
							<path class="st3" d="M2.8267,1.7671L3.0961,2.037L2.8704,2.1873L2.6007,1.917L2.8267,1.7671z M3.5026,1.817v0.4263
								l0.6883,0.698L4.0142,3.1419L3.3067,2.4246H2.5905L3.5026,1.817L3.5026,1.817z"/>
							<path class="st3" d="M1.3039,2.7618l0.2693,0.2699L1.3476,3.182L1.0779,2.9117L1.3039,2.7618z M1.9798,2.8117V3.238
								l0.6883,0.698L2.4914,4.1366L1.784,3.4192H1.0677L1.9798,2.8117L1.9798,2.8117z"/>
							<path class="st3" d="M5.4963,0.707H4.7734L4.3762,1.1185H3.5954l-0.531,0.2962l0.1027,0.2691l0.48-0.2709H3.899
								l0.7722,0.9601l0.8251-0.5401L5.4963,0.707z"/>
						</g>
						<g transform="matrix(1,0,0,-1,0,105.62254)">
							<g id="carp1q_1_">
								<path class="st4" d="M1.7127,7.4962L1.4129,7.7965l-0.297-0.1969l0.3003-0.301L1.0306,7.0419h0.8413l0.725-0.7352
									L2.8289,6.57L2.124,7.2849v0.4852L1.7127,7.4962z"/>
								<path class="st4" d="M3.1315,7.6281L2.8317,7.9285l-0.297-0.1969l0.3003-0.301L2.4494,7.1739h0.8413l0.725-0.7352
									L4.2477,6.702L3.5428,7.4169v0.4852L3.1315,7.6281z"/>
								<path class="st4" d="M1.6086,6.6334L1.3089,6.9338l-0.297-0.1969l0.3002-0.301L0.9266,6.1792H1.768l0.725-0.7352
									l0.2319,0.2633L2.0199,6.4222v0.4852L1.6086,6.6334z"/>
								<path class="st4" d="M5.5164,8.9777H4.7572L4.36,8.5661H3.5856L3.0133,8.2469l0.1334-0.3495l0.5103,0.2881h0.2235
									L4.663,7.2127l0.8534,0.5586L5.5164,8.9777z"/>
								<path class="st3" d="M1.4079,7.7425l0.2694-0.2699L1.4516,7.3223L1.1818,7.5926L1.4079,7.7425z M2.0838,7.6926V7.2663
									l0.6883-0.698L2.5954,6.3677L1.8879,7.0851H1.1717L2.0838,7.6926L2.0838,7.6926z"/>
								<path class="st3" d="M2.8267,7.8745l0.2694-0.2699L2.8704,7.4542L2.6007,7.7246L2.8267,7.8745z M3.5026,7.8245V7.3983
									l0.6883-0.698L4.0142,6.4997L3.3067,7.217H2.5905L3.5026,7.8245L3.5026,7.8245z"/>
								<path class="st3" d="M1.3039,6.8798l0.2693-0.2699L1.3476,6.4596L1.0779,6.7299L1.3039,6.8798z M1.9798,6.8298V6.4036
									l0.6883-0.698L2.4914,5.505L1.784,6.2223H1.0677L1.9798,6.8298L1.9798,6.8298z"/>
								<path class="st3" d="M5.4963,8.9346H4.7734L4.3762,8.523H3.5954l-0.531-0.2962l0.1027-0.2691l0.48,0.2709H3.899
									l0.7722-0.9601l0.8251,0.5401L5.4963,8.9346z"/>
							</g>
						</g>
						<path class="st4" d="M1.2067,3.4997l-0.362-0.1454L0.836,3.3608L0.3687,3.7094v0.0937l-0.7486,1.0176l0.7486,1.0176v0.0938
							l0.476,0.355l0.362-0.1454L0.9858,5.9846V5.6854l0.0878-0.1129h0.3922V4.0691H1.0736L0.9858,3.9562V3.657L1.2067,3.4997z"/>
						<path class="st3" d="M0.4088,3.7319l0.4415-0.3293l0.2685,0.1078L0.9456,3.6338v0.338l0.1092,0.1404h0.3708v1.4171H1.0548
							L0.9456,5.6697v0.338l0.1732,0.1233L0.8503,6.2389L0.4088,5.9096l0.0001-0.0862l-0.7376-1.0026l0.7376-1.0027L0.4088,3.7319z"
							/>
					</g>
					<g id="carp1">
						<g id="carp1h_1_">
							<g id="carp1q_2_">
								<path class="st4" d="M9.3201,2.1454L9.6199,1.845l0.297,0.1969l-0.3003,0.301l0.3855,0.2568H9.1608l-0.725,0.7352
									L8.2038,3.0715l0.705-0.7149V1.8714L9.3201,2.1454z"/>
								<path class="st4" d="M7.9013,2.0134L8.201,1.7131L8.4981,1.91l-0.3003,0.301l0.3855,0.2568H7.742L7.017,3.2029L6.785,2.9396
									L7.49,2.2247V1.7395L7.9013,2.0134z"/>
								<path class="st4" d="M9.4241,3.0081l0.2998-0.3003l0.297,0.1969l-0.3002,0.301l0.3855,0.2568H9.2648l-0.725,0.7352
									L8.3079,3.9343l0.7049-0.7149V2.7341L9.4241,3.0081z"/>
								<path class="st4" d="M5.5164,0.6639h0.7592l0.3972,0.4116h0.7744l0.5722,0.3193L7.886,1.7442L7.3757,1.4561H7.1522
									L6.3697,2.4289L5.5163,1.8703L5.5164,0.6639z"/>
								<path class="st3" d="M9.6249,1.8991L9.3555,2.169l0.2257,0.1503L9.851,2.0489L9.6249,1.8991z M8.949,1.949v0.4263
									l-0.6883,0.698l0.1767,0.2006l0.7074-0.7174h0.7163L8.949,1.949L8.949,1.949z"/>
								<path class="st3" d="M8.2061,1.7671L7.9367,2.037l0.2257,0.1503L8.4321,1.917L8.2061,1.7671z M7.5301,1.817v0.4263
									l-0.6883,0.698l0.1767,0.2006L7.726,2.4246h0.7163L7.5301,1.817L7.5301,1.817z"/>
								<path class="st3" d="M9.7288,2.7618L9.4595,3.0317L9.6852,3.182l0.2697-0.2703L9.7288,2.7618z M9.053,2.8117V3.238
									l-0.6883,0.698l0.1767,0.2006l0.7074-0.7173h0.7163L9.053,2.8117L9.053,2.8117z"/>
								<path class="st3" d="M5.5364,0.707h0.7229l0.3973,0.4116h0.7808l0.531,0.2962L7.8656,1.6839l-0.48-0.2709H7.1338
									L6.3616,2.3731L5.5364,1.8329L5.5364,0.707z"/>
							</g>
							<g transform="matrix(-1,0,0,1,377.99368,0)">
								<g id="carp1q_3_">
									<path class="st4" d="M9.3201,7.4962l0.2998,0.3003l0.297-0.1969l-0.3003-0.301l0.3855-0.2568H9.1608l-0.725-0.7352
										L8.2038,6.57l0.705,0.7149v0.4852L9.3201,7.4962z"/>
									<path class="st4" d="M7.9013,7.6281L8.201,7.9285l0.297-0.1969l-0.3003-0.301l0.3855-0.2568H7.742L7.017,6.4387
										L6.785,6.702L7.49,7.4169v0.4852L7.9013,7.6281z"/>
									<path class="st4" d="M9.4241,6.6334l0.2998,0.3003l0.297-0.1969L9.7206,6.436l0.3855-0.2568H9.2648L8.5398,5.444
										L8.3079,5.7073l0.7049,0.7149v0.4852L9.4241,6.6334z"/>
									<path class="st4" d="M5.5164,8.9777h0.7592l0.3972-0.4116h0.7744l0.5722-0.3193L7.886,7.8973L7.3757,8.1854H7.1522
										L6.3697,7.2127L5.5163,7.7713L5.5164,8.9777z"/>
									<path class="st3" d="M9.6249,7.7425L9.3555,7.4726l0.2257-0.1503L9.851,7.5926L9.6249,7.7425z M8.949,7.6926V7.2663
										l-0.6883-0.698l0.1767-0.2006l0.7074,0.7174h0.7163L8.949,7.6926L8.949,7.6926z"/>
									<path class="st3" d="M8.2061,7.8745L7.9367,7.6045l0.2257-0.1503l0.2697,0.2703L8.2061,7.8745z M7.5301,7.8245V7.3983
										l-0.6883-0.698l0.1767-0.2006L7.726,7.217h0.7163L7.5301,7.8245L7.5301,7.8245z"/>
									<path class="st3" d="M9.7288,6.8798L9.4595,6.6099l0.2257-0.1503l0.2697,0.2703L9.7288,6.8798z M9.053,6.8298V6.4036
										l-0.6883-0.698L8.5413,5.505l0.7074,0.7173h0.7163L9.053,6.8298L9.053,6.8298z"/>
									<path class="st3" d="M5.5364,8.9346h0.7229L6.6566,8.523h0.7808l0.531-0.2962L7.8656,7.9577l-0.48,0.2709H7.1338
										L6.3616,7.2685L5.5364,7.8086L5.5364,8.9346z"/>
								</g>
							</g>
							<path class="st4" d="M9.8261,3.4997l0.362-0.1454l0.0087,0.0065l0.4674,0.3486v0.0937l0.7486,1.0176l-0.7486,1.0176v0.0938
								l-0.476,0.355l-0.362-0.1454l0.2209-0.1573V5.6854L9.9592,5.5725H9.567V4.0691h0.3922l0.0878-0.1129V3.657L9.8261,3.4997z"/>
							<path class="st3" d="M10.6239,3.7319l-0.4415-0.3293L9.9139,3.5105l0.1732,0.1233v0.338L9.978,4.1122H9.6072v1.4171H9.978
								l0.1092,0.1404v0.338L9.9139,6.1311l0.2685,0.1078l0.4415-0.3293l-0.0001-0.0862l0.7376-1.0026l-0.7376-1.0027
								L10.6239,3.7319z"/>
						</g>
						<path class="st4" d="M0.564,5.675L0.3602,5.4854V5.3941L-0.077,4.8208l0.4373-0.5733V4.1561l0.2038-0.1896l0.3661,0.32
							L0.7188,4.2848L1.031,4.6255h0.7134l0.561-0.4716V2.9101h1.4032l1.6296-1.075V1.553L5.0891,1.3745h-0.079L4.7387,1.5697
							l-0.042,0.1456L4.4844,1.4038L4.897,1.0311h0.066l0.4656-0.3673h0.1755l0.4656,0.3673h0.066l0.4126,0.3726L6.3361,1.7154
							L6.294,1.5697L6.0226,1.3745h-0.079L5.6944,1.553v0.282l1.6296,1.075h1.4032v1.2438l0.561,0.4716h0.7134l0.3122-0.3406
							l-0.2113,0.0018l0.3661-0.32l0.2038,0.1896v0.0913l0.4373,0.5733l-0.4373,0.5733v0.0914L10.4687,5.675l-0.3661-0.32
							l0.2113,0.0018L10.0017,5.016H9.2883l-0.561,0.4717v1.2438H7.3241l-1.6296,1.075v0.282l0.2492,0.1785h0.079L6.294,8.0718
							l0.042-0.1456l0.2123,0.3115L6.1357,8.6104h-0.066L5.6041,8.9777H5.4286L4.963,8.6104H4.897L4.4843,8.2377l0.2124-0.3115
							l0.042,0.1456l0.2713,0.1952h0.079l0.2493-0.1785v-0.282l-1.6296-1.075H2.3055V5.4877L1.7444,5.016H1.031L0.7188,5.3567
							L0.9301,5.355L0.564,5.675z"/>
						<path class="st5" d="M5.5365,8.3006l0.1784,0.1466L5.5365,8.5938V8.3006L5.5365,8.3006z M4.9695,8.5672h0.0066l0.4656,0.3673
							h0.0544V8.648L5.2518,8.4472l0.2443-0.2008V7.7081L3.7524,6.5577H2.4633V5.4018L1.7978,4.8423H0.7939L0.5416,5.149
							L0.2893,4.8423l-0.2979,0.0001l0.409,0.5362v0.0871l0.162,0.1513l0.2603-0.2178L0.6698,5.4003V5.3459l0.3404-0.373h0.748
							l0.5874,0.4938v1.2217H3.72l1.6584,1.094v0.3291L5.1012,8.3102H4.9978l-0.2933-0.211L4.6819,8.0209l-0.143,0.2098
							l0.3727,0.3365H4.9695L4.9695,8.5672z M0.5418,4.5577l0.1987,0.2414H0.3431L0.5418,4.5577z M5.4962,1.0477L5.318,1.1943
							l0.1783,0.1465V1.0477z M10.2923,4.8424l0.1987,0.2414l0.1987-0.2414H10.2923L10.2923,4.8424z M6.0565,1.0742L5.5909,0.707
							H5.5365v0.2864l0.2444,0.2009L5.5365,1.3953v0.5381l1.7438,1.1504h1.2891v1.1559l0.6656,0.5595h1.0037l0.2524-0.3066
							l0.2524,0.3066h0.298l-0.409-0.5362V4.1759l-0.162-0.1513l-0.2603,0.2178l0.1528-0.0013v0.0545l-0.3404,0.373h-0.748
							L8.687,4.1748V2.9532H7.3126l-1.6584-1.094V1.5299l0.2773-0.1986h0.1034l0.2933,0.211l0.0226,0.0783l0.143-0.2098
							L6.121,1.0742L6.0565,1.0742L6.0565,1.0742z"/>
						<path class="st2" d="M5.4962,8.5937L5.318,8.4472l0.1783-0.1465V8.5937z M0.7405,4.8424L0.5418,5.0838L0.3431,4.8424H0.7405z
							 M6.0631,8.5672H6.0565L5.5909,8.9346H5.5365v-0.075V8.6481l0.2444-0.2009L5.5365,8.2463V7.7081l1.7438-1.1504h1.2891V5.4019
							l0.6656-0.5595h1.0038l0.2523,0.3067l0.2523-0.3067l0.298,0.0001l-0.409,0.5362v0.0871l-0.162,0.1513l-0.2603-0.2178
							l0.1528,0.0013V5.3459l-0.3404-0.373h-0.748L8.687,5.4667v1.2217H7.3126l-1.6584,1.094v0.3291l0.2773,0.1986h0.1034
							l0.2933-0.211l0.0226-0.0783l0.143,0.2098L6.121,8.5672H6.0631L6.0631,8.5672z M10.4909,4.5578l-0.1987,0.2414h0.3974
							L10.4909,4.5578z M4.9762,1.0743L5.4419,0.707h0.0544v0.2864L5.2518,1.1944l0.2444,0.2009l0.0001,0.5381L3.7525,3.0838h-1.289
							v1.1559L1.7979,4.7993h-1.004L0.5416,4.4926L0.2892,4.7992h-0.2977l0.409-0.5362V4.1759l0.162-0.1513l0.2602,0.2178
							L0.6699,4.2412v0.0545l0.3405,0.373h0.748l0.5874-0.4938V2.9532h1.3744l1.6584-1.094V1.5299L5.1013,1.3314H4.9979
							l-0.2933,0.211L4.682,1.6207l-0.143-0.2098l0.3727-0.3366C4.9118,1.0743,4.9762,1.0743,4.9762,1.0743z M5.5365,1.341
							l0.1784-0.1466L5.5365,1.0478V1.341z"/>
						<path class="st1" d="M5.4963,4.8424V1.984L3.7639,3.1269H2.5036v1.1337L1.8631,4.7992l3.6735-0.0001v2.8584l1.7324-1.1429
							h1.2602V5.3809l0.6405-0.5385L5.4963,4.8424z"/>
						<path class="st3" d="M1.863,4.8424l0.6406,0.5385v1.1337h1.2602l1.7325,1.1429V4.7991l3.6733,0.0001L8.5291,4.2607V3.1269
							H7.2689L5.5365,1.9841v2.8583L1.863,4.8424z"/>
						<path class="st4" d="M3.6516,3.4344L3.3519,3.1341l-0.297,0.1968l0.3003,0.301L2.9696,3.8886H3.811l0.725,0.7353
							l0.2319-0.2634L4.063,3.6457V3.1605L3.6516,3.4344z"/>
						<path class="st4" d="M7.3809,6.2071l0.2998,0.3003l0.297-0.1969l-0.3002-0.301l0.3855-0.2567H7.2215l-0.725-0.7353
							L6.2646,5.281l0.7049,0.7149v0.4852L7.3809,6.2071z"/>
						<path class="st4" d="M3.6516,6.2071L3.3519,6.5075l-0.297-0.1969l0.3002-0.301L2.9696,5.7529H3.811l0.725-0.7353L4.7679,5.281
							l-0.705,0.7149v0.4852L3.6516,6.2071z"/>
						<path class="st4" d="M7.3809,3.4344l0.2998-0.3003l0.297,0.1968l-0.3002,0.301l0.3855,0.2568H7.2215l-0.725,0.7353
							L6.2646,4.3605l0.7049-0.7149V3.1605L7.3809,3.4344z"/>
						<path class="st3" d="M7.6856,6.4535L7.4163,6.1835L7.642,6.0332l0.2697,0.2703L7.6856,6.4535z M7.0098,6.4035V5.9773
							l-0.6883-0.698l0.1767-0.2007l0.7074,0.7174h0.7163L7.0098,6.4035L7.0098,6.4035z M3.347,3.1881L3.6164,3.458L3.3906,3.6083
							L3.1209,3.338L3.347,3.1881z M4.0229,3.238v0.4262l0.6883,0.698L4.5344,4.5629L3.827,3.8455H3.1108L4.0229,3.238L4.0229,3.238
							z"/>
						<path class="st1" d="M7.6856,3.1881L7.4163,3.458L7.642,3.6083L7.9117,3.338L7.6856,3.1881z M7.0098,3.238v0.4262
							l-0.6883,0.698l0.1767,0.2007l0.7074-0.7174h0.7163L7.0098,3.238L7.0098,3.238z M3.347,6.4535l0.2693-0.2699L3.3906,6.0332
							L3.1209,6.3036L3.347,6.4535z M4.0228,6.4035V5.9773l0.6883-0.698L4.5344,5.0787L3.827,5.7961H3.1107L4.0228,6.4035
							L4.0228,6.4035z"/>
						<path class="st4" d="M7.3793,4.8208L5.5164,6.1555L3.6535,4.8208l1.8629-1.3347L7.3793,4.8208z"/>
						<path class="st2" d="M5.4963,3.5523L3.7561,4.7992h3.5207L5.5366,3.5523v2.5368l1.7403-1.2468H3.756l1.7403,1.2468V3.5523z"/>
						<path class="st4" d="M6.0146,5.2798v0.367H5.0183v-0.367H4.3735v-0.918h0.6448v-0.367h0.9963v0.367h0.6447v0.918H6.0146z"/>
						<path class="st3" d="M5.0585,4.038v0.367H4.4138v0.3942h1.0826V4.038L5.0585,4.038L5.0585,4.038z M5.5366,4.7992h1.0826
							V4.4049H5.9744V4.038H5.5366L5.5366,4.7992L5.5366,4.7992z M4.4138,4.8424v0.3942h0.6447v0.367h0.4378V4.8424L4.4138,4.8424
							L4.4138,4.8424z M5.5366,5.6036h0.4378v-0.367h0.6447V4.8424H5.5366V5.6036L5.5366,5.6036z"/>
					</g>
					<g id="carpets">
						<path class="st4" d="M8.6945,20.0275v-0.5879h1.4998v-0.5879h1.4998v-5.3124h-1.4998v-0.5879H8.6945v-0.5879H7.1947v-0.5879
							H3.8382v0.5879H2.3384v0.5879H0.8385v0.5879h-1.4998v5.3124h1.4998v0.5879h1.4998v0.5879h1.4998v0.5879h3.3566v-0.5879H8.6945
							z"/>
						<path class="st3" d="M3.8805,11.8173v0.5875H2.38v0.5875H0.8795v0.5875H-0.621v5.229h1.5005v0.5876H2.38v0.5874h1.5005v0.5874
							h3.2741V19.984h1.5006v-0.5874h1.5006v-0.5876h1.5004v-5.229h-1.5004v-0.5875H8.6552v-0.5875H7.1547v-0.5875H3.8805
							L3.8805,11.8173z M4.278,12.2446h2.4792v0.5875h1.5006v0.5875h1.5006v0.5875h1.5004v4.3744H9.7583v0.5876H8.2577v0.5874
							H6.7572v0.5874H4.278v-0.5874H2.7774v-0.5874H1.277v-0.5876h-1.5005v-4.3744H1.277v-0.5875h1.5005v-0.5875H4.278V12.2446z"/>
						<path class="st3" d="M2.8159,19.5141v-0.588H1.3161v-0.5879h-1.4998v-4.2858h1.4998v-0.5879h1.4998v-0.5879h1.4998v-0.5879
							h2.4015v0.5879H8.217v0.5879h1.4997v0.5879h1.4998v4.2858H9.7168v0.5879H8.217v0.588H6.7172v0.5879H4.3157v-0.5879H2.8159z"/>
						<path class="st4" d="M3.1641,13.3119l-0.3885-0.3157v0.6061l-0.372,0.2541l-0.001-0.3794l-0.3568,0.3445l-0.3568-0.3445
							l-0.001,0.3794L1.276,13.5749v0.562l-0.3331,0.2593l-0.0009-0.3446l-0.3958,0.3082l-0.3958-0.3082l-0.0009,0.3446
							l-0.3733-0.2905v1.7024h-0.4373v0.7749h0.4373v1.7024l0.3733-0.2906l0.0009,0.3446l0.3958-0.3081l0.3957,0.3081l0.001-0.3446
							l0.3331,0.2593v0.562l0.4122-0.2816l0.001,0.3794l0.3568-0.3445l0.3568,0.3445l0.001-0.3794l0.372,0.2541v0.6062
							l0.3885-0.3157l0.0008,0.4234l0.3807-0.366l0.3808,0.366l0.0008-0.4234l0.3483,0.283v0.6465l0.5207-0.5102v0.5996L5.5164,19.6
							l0.7203,0.4978v-0.5996l0.5207,0.5102v-0.6465l0.3482-0.283l0.0008,0.4234l0.3808-0.366l0.3808,0.366l0.0008-0.4234
							l0.3884,0.3157v-0.6062l0.3721-0.2541l0.0009,0.3794l0.3568-0.3445l0.3568,0.3445l0.0009-0.3794l0.4123,0.2816v-0.562
							l0.3331-0.2593l0.0009,0.3446l0.3957-0.3081l0.3958,0.3081l0.0009-0.3446l0.3733,0.2905v-1.7023h0.4373V15.808H11.257v-1.7024
							l-0.3733,0.2905l-0.0009-0.3446l-0.3958,0.3082l-0.3958-0.3082l-0.0008,0.3446l-0.3331-0.2593v-0.562l-0.4123,0.2816
							l-0.0009-0.3794l-0.3568,0.3445l-0.3568-0.3445l-0.0009,0.3794l-0.3721-0.2542v-0.6061l-0.3884,0.3156l-0.0008-0.4234
							l-0.3808,0.3661l-0.3808-0.3661l-0.0008,0.4234l-0.3482-0.2831v-0.6464l-0.5207,0.5102v-0.5996l-0.7203,0.4978l-0.7202-0.4978
							v0.5996l-0.5207-0.5102v0.6464l-0.3483,0.283l-0.0008-0.4234l-0.3808,0.3661L3.165,12.8885L3.1641,13.3119z"/>
						<g>
							<path class="st1" d="M0.1894,14.4806l0.0009-0.3446l0.3558,0.2771l0.012-0.0094l0.3438-0.2677l0.0009,0.3446l0.3732-0.2904
								v4.0103l-0.3732-0.2904l-0.0009,0.3446l-0.3558-0.2771l-0.3558,0.2771l-0.0009-0.3446l-0.3732,0.2904v-1.6609H-0.621v-0.6884
								h0.4373v-1.6609L0.1894,14.4806z"/>
							<path class="st1" d="M3.2049,12.985l0.3407,0.3276l0.3407-0.3276l0.0008,0.4137l0.3882-0.3155v6.2247l-0.3882-0.3155
								l-0.0008,0.4137l-0.3407-0.3276l-0.3407,0.3276l-0.0008-0.4137l-0.3882,0.3155v-6.2247l0.3882,0.3155L3.2049,12.985z"/>
							<path class="st1" d="M7.828,12.985l-0.3407,0.3276L7.1466,12.985l-0.0008,0.4137l-0.3882-0.3155v6.2247l0.3882-0.3155
								l0.0008,0.4137l0.3407-0.3276l0.3407,0.3276l0.0008-0.4137l0.3882,0.3155v-6.2247l-0.3882,0.3155L7.828,12.985z"/>
							<path class="st1" d="M10.8435,14.4806l-0.0009-0.3446l-0.3558,0.2771l-0.012-0.0094L10.131,14.136l-0.0009,0.3446
								L9.757,14.1903v4.0103l0.3731-0.2904l0.0009,0.3446l0.3558-0.2771l0.3558,0.2771l0.0009-0.3446l0.3731,0.2904v-1.6609h0.4373
								v-0.6884h-0.4373v-1.6609L10.8435,14.4806z"/>
						</g>
						<g>
							<path class="st5" d="M1.7291,13.5738l0.3168,0.306l0.3168-0.306l0.0009,0.3613l0.4121-0.2815v5.0837l-0.4121-0.2815
								l-0.0009,0.3613l-0.3168-0.3059l-0.3168,0.3059l-0.0009-0.3613l-0.4121,0.2815v-5.0837l0.4121,0.2815L1.7291,13.5738z"/>
							<path class="st5" d="M4.8364,12.9905l-0.5207-0.5102v7.4302l0.5207-0.5102v0.6183l0.68-0.4699h0.0001h0.0001l0.68,0.4699
								v-0.6183l0.5207,0.5102v-7.4302l-0.5207,0.5102v-0.6183l-0.68,0.4699H5.5164H5.5164l-0.68-0.4699V12.9905z"/>
							<path class="st5" d="M9.3039,13.5738l-0.3168,0.306l-0.3169-0.306l-0.0008,0.3613l-0.4121-0.2815v5.0837l0.4121-0.2815
								l0.0008,0.3613l0.3169-0.3059l0.3168,0.3059l0.0009-0.3613l0.4121,0.2815v-5.0837l-0.4121,0.2815L9.3039,13.5738z"/>
						</g>
						<g id="carp2h">
							<g id="carp2q">
								<path class="st4" d="M0.3844,15.4651c0.0455,0.0494,0.1,0.0744,0.1618,0.0744c0.0617,0,0.1162-0.025,0.1618-0.0744
									c0.1425-0.1543,0.1472-0.4333,0.1458-0.6341c0,0-0.1647,0.1871-0.1944,0.2208c-0.0207-0.0385-0.1132-0.2101-0.1132-0.2101
									s-0.0925,0.1717-0.1132,0.2101c-0.0297-0.0338-0.1944-0.2208-0.1944-0.2208C0.2371,15.0317,0.2419,15.3108,0.3844,15.4651
									L0.3844,15.4651z"/>
								<path class="st4" d="M1.9489,15.0328l-0.12-0.1289v-0.2568l-0.2756,0.2746l0.4926,0.5295l0.4926-0.5295l-0.2756-0.2746
									v0.2568L2.143,15.0328v-0.4549l0.2125-0.1961l-0.3096-0.2858l-0.3096,0.2858l0.2125,0.1961L1.9489,15.0328z"/>
								<path class="st4" d="M3.4485,14.5226l-0.1199-0.1289v-0.2568L3.053,14.4114l0.4926,0.5295l0.4926-0.5295l-0.2756-0.2746
									v0.2568l-0.12,0.1289v-0.455l0.2125-0.1961l-0.3096-0.2857l-0.3096,0.2857l0.2125,0.1961V14.5226z"/>
								<path class="st2" d="M0.5462,14.9279c0.0246,0.0456,0.1054,0.1956,0.1054,0.1956s0.1138-0.1294,0.1603-0.1821
									c-0.0056,0.2268-0.0519,0.4059-0.1324,0.4931c-0.0378,0.0409-0.0826,0.0617-0.1332,0.0617
									c-0.0507,0-0.0955-0.0208-0.1332-0.0616c-0.0805-0.0872-0.1269-0.2664-0.1324-0.4932
									c0.0464,0.0528,0.1602,0.1821,0.1602,0.1821C0.4759,15.0583,0.5111,14.993,0.5462,14.9279L0.5462,14.9279z"/>
								<path class="st2" d="M3.6026,14.0478v0.5792l0.2004-0.2153v-0.1757l0.1774,0.1768L3.5457,14.88L3.111,14.4127l0.1774-0.1768
									v0.1757l0.2004,0.2153v-0.5792l-0.191-0.1763l0.2479-0.2288l0.2478,0.2288L3.6026,14.0478z"/>
								<path class="st3" d="M2.1028,14.5581v0.5792l0.2004-0.2154v-0.1756l0.1774,0.1767l-0.4347,0.4673l-0.4346-0.4673
									l0.1774-0.1767v0.1756l0.2004,0.2154v-0.5792l-0.191-0.1763l0.2478-0.2288l0.2479,0.2288L2.1028,14.5581z"/>
							</g>
							<g transform="matrix(-1,0,0,1,377.9958,0)">
								<g id="carp2q_1_">
									<path class="st4" d="M10.6486,15.4651c-0.0455,0.0494-0.1,0.0744-0.1618,0.0744c-0.0617,0-0.1162-0.025-0.1618-0.0744
										c-0.1425-0.1543-0.1472-0.4333-0.1458-0.6341c0,0,0.1647,0.1871,0.1944,0.2208c0.0207-0.0385,0.1132-0.2101,0.1132-0.2101
										s0.0925,0.1717,0.1132,0.2101c0.0297-0.0338,0.1944-0.2208,0.1944-0.2208C10.7959,15.0317,10.791,15.3108,10.6486,15.4651
										L10.6486,15.4651z"/>
									<path class="st4" d="M9.0841,15.0328l0.12-0.1289v-0.2568l0.2756,0.2746l-0.4926,0.5295l-0.4926-0.5295L8.77,14.6472
										v0.2568L8.89,15.0328v-0.4549l-0.2125-0.1961l0.3096-0.2858l0.3096,0.2858l-0.2125,0.1961L9.0841,15.0328z"/>
									<path class="st4" d="M7.5844,14.5226l0.1199-0.1289v-0.2568l0.2756,0.2746L7.4873,14.941l-0.4926-0.5295l0.2756-0.2746
										v0.2568l0.12,0.1289v-0.455l-0.2125-0.1961l0.3096-0.2857l0.3096,0.2857l-0.2125,0.1961V14.5226z"/>
									<path class="st2" d="M10.4868,14.9279c-0.0246,0.0456-0.1054,0.1956-0.1054,0.1956s-0.1138-0.1294-0.1603-0.1821
										c0.0056,0.2268,0.0519,0.4059,0.1324,0.4931c0.0378,0.0409,0.0826,0.0617,0.1332,0.0617
										c0.0507,0,0.0955-0.0208,0.1332-0.0616c0.0805-0.0872,0.1269-0.2664,0.1324-0.4932
										c-0.0464,0.0528-0.1602,0.1821-0.1602,0.1821C10.5571,15.0583,10.5219,14.993,10.4868,14.9279L10.4868,14.9279z"/>
									<path class="st2" d="M7.4304,14.0478v0.5792L7.23,14.4116v-0.1757l-0.1774,0.1768L7.4872,14.88l0.4347-0.4672
										l-0.1774-0.1768v0.1757L7.5441,14.627v-0.5792l0.191-0.1763l-0.2479-0.2288l-0.2478,0.2288L7.4304,14.0478z"/>
									<path class="st3" d="M8.9302,14.5581v0.5792l-0.2004-0.2154v-0.1756l-0.1774,0.1767l0.4347,0.4673l0.4346-0.4673
										l-0.1774-0.1767v0.1756l-0.2004,0.2154v-0.5792l0.191-0.1763l-0.2478-0.2288l-0.2479,0.2288L8.9302,14.5581z"/>
								</g>
							</g>
							<path class="st4" d="M6.106,14.7159l-0.1614-0.2397l0.4138-0.4106l-0.3858-0.3408v0.2414l-0.1614,0.1484v-0.4379
								l0.3645-0.2888l-0.6594-0.5225L4.857,13.3879l0.3645,0.2888v0.4379l-0.1614-0.1484v-0.2414l-0.3859,0.3408l0.4139,0.4106
								l-0.1614,0.2397H6.106z"/>
							<path class="st3" d="M5.0056,14.6727l0.1361-0.2023l-0.4061-0.403L5.02,13.8163v0.1698l0.2418,0.2224v-0.5536l-0.337-0.2669
								l0.5916-0.4687L6.108,13.388l-0.3369,0.2669v0.5536l0.2417-0.2224v-0.1698l0.2845,0.2512l-0.4061,0.403l0.1361,0.2023H5.0056
								z"/>
							<path class="st4" d="M5.2151,13.388l0.3013,0.2387l0.3013-0.2387l-0.3013-0.2388l-0.0119,0.0095L5.2151,13.388z"/>
							<path class="st1" d="M5.5164,13.203c0.0199,0.0157,0.1983,0.1571,0.2336,0.185c-0.0352,0.0279-0.2137,0.1693-0.2336,0.185
								c-0.0199-0.0157-0.1983-0.1571-0.2335-0.185C5.318,13.3601,5.4965,13.2187,5.5164,13.203z"/>
						</g>
						<g id="carp2">
							<g id="carp2h_1_">
								<g id="carp2q_2_">
									<path class="st4" d="M0.3844,16.9257c0.0455-0.0494,0.1-0.0744,0.1618-0.0744c0.0617,0,0.1162,0.025,0.1618,0.0744
										c0.1425,0.1543,0.1472,0.4333,0.1458,0.6341c0,0-0.1647-0.1871-0.1944-0.2208c-0.0207,0.0385-0.1132,0.2101-0.1132,0.2101
										s-0.0925-0.1717-0.1132-0.2101c-0.0297,0.0338-0.1944,0.2208-0.1944,0.2208C0.2371,17.359,0.2419,17.08,0.3844,16.9257
										L0.3844,16.9257z"/>
									<path class="st4" d="M1.9489,17.3579l-0.12,0.1289v0.2568L1.5533,17.469l0.4926-0.5295l0.4926,0.5295l-0.2756,0.2746
										v-0.2568L2.143,17.3579v0.4549l0.2125,0.1961l-0.3096,0.2858l-0.3096-0.2858l0.2125-0.1961L1.9489,17.3579z"/>
									<path class="st4" d="M3.4485,17.8681l-0.1199,0.1289v0.2568L3.053,17.9793l0.4926-0.5295l0.4926,0.5295l-0.2756,0.2746
										v-0.2568l-0.12-0.1289v0.455l0.2125,0.1961l-0.3096,0.2857l-0.3096-0.2857l0.2125-0.1961V17.8681z"/>
									<path class="st2" d="M0.5462,17.4629c0.0246-0.0456,0.1054-0.1956,0.1054-0.1956s0.1138,0.1294,0.1603,0.1821
										c-0.0056-0.2268-0.0519-0.4059-0.1324-0.4931c-0.0378-0.0409-0.0826-0.0617-0.1332-0.0617
										c-0.0507,0-0.0955,0.0208-0.1332,0.0616c-0.0805,0.0872-0.1269,0.2664-0.1324,0.4932
										c0.0464-0.0528,0.1602-0.1821,0.1602-0.1821C0.4759,17.3325,0.5111,17.3977,0.5462,17.4629L0.5462,17.4629z"/>
									<path class="st2" d="M3.6026,18.3429v-0.5792l0.2004,0.2153v0.1757l0.1774-0.1768l-0.4346-0.4672L3.111,17.978
										l0.1774,0.1768v-0.1757l0.2004-0.2153v0.5792l-0.191,0.1763l0.2479,0.2288l0.2478-0.2288L3.6026,18.3429z"/>
									<path class="st3" d="M2.1028,17.8327v-0.5792l0.2004,0.2154v0.1756l0.1774-0.1767l-0.4347-0.4673l-0.4346,0.4673
										l0.1774,0.1767v-0.1756l0.2004-0.2154v0.5792l-0.191,0.1763l0.2478,0.2288l0.2479-0.2288L2.1028,17.8327z"/>
								</g>
								<g transform="matrix(1,0,0,-1,0,331.21644)">
									<g id="carp2q_3_">
										<path class="st4" d="M10.6486,16.9257c-0.0455-0.0494-0.1-0.0744-0.1618-0.0744c-0.0617,0-0.1162,0.025-0.1618,0.0744
											c-0.1425,0.1543-0.1472,0.4333-0.1458,0.6341c0,0,0.1647-0.1871,0.1944-0.2208c0.0207,0.0385,0.1132,0.2101,0.1132,0.2101
											s0.0925-0.1717,0.1132-0.2101c0.0297,0.0338,0.1944,0.2208,0.1944,0.2208C10.7959,17.359,10.791,17.08,10.6486,16.9257
											L10.6486,16.9257z"/>
										<path class="st4" d="M9.0841,17.3579l0.12,0.1289v0.2568l0.2756-0.2746l-0.4926-0.5295L8.4945,17.469L8.77,17.7435
											v-0.2568L8.89,17.3579v0.4549l-0.2125,0.1961l0.3096,0.2858l0.3096-0.2858l-0.2125-0.1961L9.0841,17.3579z"/>
										<path class="st4" d="M7.5844,17.8681l0.1199,0.1289v0.2568l0.2756-0.2746l-0.4926-0.5295l-0.4926,0.5295l0.2756,0.2746
											v-0.2568l0.12-0.1289v0.455l-0.2125,0.1961l0.3096,0.2857l0.3096-0.2857l-0.2125-0.1961V17.8681z"/>
										<path class="st2" d="M10.4868,17.4629c-0.0246-0.0456-0.1054-0.1956-0.1054-0.1956s-0.1138,0.1294-0.1603,0.1821
											c0.0056-0.2268,0.0519-0.4059,0.1324-0.4931c0.0378-0.0409,0.0826-0.0617,0.1332-0.0617
											c0.0507,0,0.0955,0.0208,0.1332,0.0616c0.0805,0.0872,0.1269,0.2664,0.1324,0.4932
											c-0.0464-0.0528-0.1602-0.1821-0.1602-0.1821C10.5571,17.3325,10.5219,17.3977,10.4868,17.4629L10.4868,17.4629z"/>
										<path class="st2" d="M7.4304,18.3429v-0.5792L7.23,17.9791v0.1757L7.0526,17.978l0.4346-0.4672l0.4347,0.4672
											l-0.1774,0.1768v-0.1757l-0.2004-0.2153v0.5792l0.191,0.1763l-0.2479,0.2288l-0.2478-0.2288L7.4304,18.3429z"/>
										<path class="st3" d="M8.9302,17.8327v-0.5792l-0.2004,0.2154v0.1756l-0.1774-0.1767l0.4347-0.4673l0.4346,0.4673
											l-0.1774,0.1767v-0.1756l-0.2004-0.2154v0.5792l0.191,0.1763l-0.2478,0.2288l-0.2479-0.2288L8.9302,17.8327z"/>
									</g>
								</g>
								<path class="st4" d="M6.106,17.6748l-0.1614,0.2397l0.4138,0.4106L5.9726,18.666v-0.2414l-0.1614-0.1484v0.4379
									l0.3645,0.2888l-0.6594,0.5225L4.857,19.0028l0.3645-0.2888v-0.4379l-0.1614,0.1484v0.2414l-0.3859-0.3408l0.4139-0.4106
									l-0.1614-0.2397H6.106z"/>
								<path class="st3" d="M5.0056,17.718l0.1361,0.2023l-0.4061,0.403L5.02,18.5744v-0.1698l0.2418-0.2224v0.5536l-0.337,0.2669
									l0.5916,0.4687l0.5916-0.4687l-0.3369-0.2669v-0.5536l0.2417,0.2224v0.1698l0.2845-0.2512l-0.4061-0.403l0.1361-0.2023
									H5.0056z"/>
								<path class="st4" d="M5.2151,19.0027l0.3013-0.2387l0.3013,0.2387l-0.3013,0.2388L5.5044,19.232L5.2151,19.0027z"/>
								<path class="st1" d="M5.5164,19.1878c0.0199-0.0157,0.1983-0.1571,0.2336-0.185c-0.0352-0.0279-0.2137-0.1693-0.2336-0.185
									c-0.0199,0.0157-0.1983,0.1571-0.2335,0.185C5.318,19.0306,5.4965,19.172,5.5164,19.1878z"/>
							</g>
							<path class="st4" d="M10.8544,15.9475h-0.6601v-0.2829H8.1764l-1.4047-0.9919h-0.006H4.2611l-1.4046,0.9919H0.8386v0.2829
								H0.1784v0.4959h0.6601v0.2829h2.0179l1.4046,0.9919h2.5107l1.4047-0.9919h2.0178v-0.2829h0.6601V15.9475z"/>
							<path class="st3" d="M4.273,14.7175l-1.4061,0.9881H0.8795v0.2831H0.2187V16.4h0.6608v0.2831h1.9874l1.4061,0.9935h2.4892
								l1.4011-0.9935h1.9924V16.4h0.6608v-0.4113h-0.6608v-0.2831H8.1633l-1.4011-0.9881H4.273z M4.3028,14.8617h2.4246
								l1.2868,0.908v0.1389h1.4359v0.5768H8.0143v0.1389L6.7275,17.527H4.3028l-1.2819-0.9027v-0.1389H1.5801v-0.5768h1.4409
								v-0.1389L4.3028,14.8617z"/>
							<path class="st3" d="M6.7173,14.9064l1.255,0.8857v0.1572h1.4382v0.4921H7.9723v0.1573l-1.255,0.8857H4.3154l-1.255-0.8857
								v-0.1573H1.6222v-0.4921h1.4382v-0.1572l1.255-0.8857H6.7173z"/>
							<g>
								<path class="st4" d="M3.6922,16.6985l0.5434,0.4385l0.3575-0.2885l-0.2078-0.1677l-0.1497,0.1208l-0.1278-0.1031
									l2.0464-1.6517H5.7387L3.6922,16.6985z M4.8784,17.344H5.294l2.0465-1.6517l-0.5434-0.4385l-0.3575,0.2885L6.6474,15.71
									l0.1497-0.1208l0.1278,0.1032L4.8784,17.344z M5.7387,17.344h0.4155l-2.0464-1.6517l0.1278-0.1032L4.3853,15.71
									l0.2078-0.1677l-0.3575-0.2885l-0.5434,0.4385L5.7387,17.344z M6.9249,16.6985l-0.1278,0.1031l-0.1497-0.1208
									l-0.2078,0.1677l0.3575,0.2885l0.5434-0.4385L5.294,15.0469H4.8784L6.9249,16.6985z"/>
								<path class="st4" d="M3.2807,16.1954l0.3652,0.2608l0.3652-0.2608l-0.3652-0.2608L3.2807,16.1954z"/>
								<path class="st4" d="M5.1512,16.1954l0.3652,0.2608l0.3652-0.2608l-0.3652-0.2608L5.1512,16.1954z"/>
								<path class="st4" d="M7.7523,16.1954L7.387,16.4562l-0.3652-0.2608l0.3652-0.2608L7.7523,16.1954z"/>
								<path class="st5" d="M7.2736,16.6985l-0.4764,0.3845l-0.2906-0.2345l0.1409-0.1137l0.1497,0.1208l0.1947-0.1571
									L4.999,15.0901h0.2817L7.2736,16.6985z M6.0338,17.3007H5.7522l-1.9929-1.6084l0.4764-0.3845l0.2905,0.2345L4.3854,15.656
									l-0.1497-0.1208L4.041,15.6924L6.0338,17.3007z M5.2807,17.3007H4.999l1.9929-1.6084l-0.1947-0.1572L6.6475,15.656
									l-0.1409-0.1136l0.2906-0.2345l0.4764,0.3845L5.2807,17.3007z M5.7522,15.0901h0.2816L4.041,16.6985l0.1947,0.1571
									l0.1497-0.1208l0.1408,0.1137l-0.2905,0.2345l-0.4764-0.3845L5.7522,15.0901z"/>
								<path class="st1" d="M3.6459,15.9866l0.2926,0.2089l-0.2926,0.2089l-0.2926-0.2089L3.6459,15.9866z"/>
								<path class="st1" d="M5.5165,15.9866l0.2926,0.2089l-0.2926,0.2089L5.224,16.1955L5.5165,15.9866z"/>
								<path class="st1" d="M7.3871,15.9866l-0.2926,0.2089l0.2926,0.2089l0.2925-0.2089L7.3871,15.9866z"/>
							</g>
						</g>
						<g id="carp3">
							<g>
								<path class="st4" d="M-0.9077,27.141l-0.1433,0.2179l0.2569,0.2112l-0.2569,0.2112l0.1433,0.2179l0.2985,0.0373
									l0.289-0.2401l0.7206,0.4921v-0.4086L-0.0532,27.57l0.4535-0.3097v-0.4086l-0.7206,0.4921l-0.289-0.24L-0.9077,27.141z"/>
								<path class="st4" d="M-0.9077,25.7213l-0.1433,0.2179l0.2569,0.2112l-0.2569,0.2112l0.1433,0.2179l0.2985,0.0372
									l0.289-0.2401l0.7206,0.4921v-0.4087l-0.4535-0.3097l0.4535-0.3097V25.432l-0.7206,0.4921l-0.289-0.24L-0.9077,25.7213z"/>
								<path class="st4" d="M-0.9077,29.4188l-0.1433-0.2179l0.2569-0.2112l-0.2569-0.2112l0.1433-0.2179l0.2985-0.0372l0.289,0.24
									l0.7206-0.4921V28.68l-0.4535,0.3097l0.4535,0.3097v0.4086l-0.7206-0.4921l-0.289,0.2401L-0.9077,29.4188z"/>
								<path class="st4" d="M11.9407,27.141l0.1433,0.2179L11.8271,27.57l0.2569,0.2112l-0.1433,0.2179l-0.2984,0.0373
									l-0.289-0.2401l-0.7207,0.4921v-0.4086l0.4536-0.3097l-0.4536-0.3097v-0.4086l0.7207,0.4921l0.289-0.24L11.9407,27.141z"/>
								<path class="st4" d="M11.9407,25.7213l0.1433,0.2179l-0.2569,0.2112l0.2569,0.2112l-0.1433,0.2179l-0.2984,0.0372
									l-0.289-0.2401l-0.7207,0.4921v-0.4087l0.4536-0.3097l-0.4536-0.3097V25.432l0.7207,0.4921l0.289-0.24L11.9407,25.7213z"/>
								<path class="st4" d="M11.9407,29.4188l0.1433-0.2179l-0.2569-0.2112l0.2569-0.2112l-0.1433-0.2179l-0.2984-0.0372
									l-0.289,0.24l-0.7207-0.4921V28.68l0.4536,0.3097l-0.4536,0.3097v0.4086l0.7207-0.4921l0.289,0.2401L11.9407,29.4188z"/>
								<path class="st4" d="M9.0557,23.2665v0.5905h0.3996v0.261h0.3925v-0.4752H9.4977v-0.3763H9.0557z"/>
								<path class="st4" d="M10.2335,24.1978v0.5905h0.3992v0.261h0.3929v-0.4752h-0.35v-0.3763H10.2335L10.2335,24.1978z"/>
								<path class="st4" d="M1.9773,23.2665v0.5905H1.5776v0.261H1.1852v-0.4752h0.35v-0.3763H1.9773z"/>
								<path class="st4" d="M9.0557,31.8736v-0.5905h0.3996v-0.261h0.3925v0.4751H9.4977v0.3763H9.0557z"/>
								<path class="st4" d="M1.9773,31.8736v-0.5905H1.5776v-0.261H1.1852v0.4751h0.35v0.3763H1.9773z"/>
								<path class="st4" d="M10.2335,30.9424v-0.5905h0.3992v-0.261h0.3929v0.4751h-0.35v0.3763H10.2335L10.2335,30.9424z"/>
								<path class="st4" d="M0.7995,24.1978v0.5905H0.4003v0.261H0.0075v-0.4752h0.35v-0.3763H0.7995L0.7995,24.1978z"/>
								<path class="st4" d="M0.7995,30.9424v-0.5905H0.4003v-0.261H0.0075v0.4751h0.35v0.3763H0.7995L0.7995,30.9424z"/>
								<path class="st4" d="M6.9944,23.2528c-0.0255-0.0266-0.3049-0.3183-0.3049-0.3183l-0.2995,0.2983
									c0,0,0.2347,0.2449,0.2611,0.2725l-0.337,0.3517h0.5004l0.1801-0.1879l0.1801,0.1879h0.5003l-0.337-0.3517
									c0.0264-0.0276,0.261-0.2725,0.261-0.2725l-0.2995-0.2983C7.1975,23.0405,7.096,23.1467,6.9944,23.2528L6.9944,23.2528z"/>
								<path class="st4" d="M5.5165,23.2528c-0.0254-0.0266-0.3049-0.3183-0.3049-0.3183l-0.2995,0.2983
									c0,0,0.2346,0.2449,0.2611,0.2725l-0.337,0.3517h0.5003l0.1801-0.1879l0.1801,0.1879h0.5003l-0.337-0.3517
									c0.0264-0.0276,0.261-0.2725,0.261-0.2725l-0.2995-0.2983C5.7197,23.0405,5.6181,23.1467,5.5165,23.2528L5.5165,23.2528z"/>
								<path class="st4" d="M4.0387,23.2528c0.0255-0.0266,0.3049-0.3183,0.3049-0.3183l0.2995,0.2983
									c0,0-0.2347,0.2449-0.2611,0.2725l0.337,0.3517H4.2187l-0.18-0.1879l-0.1801,0.1879H3.3583l0.337-0.3517
									c-0.0264-0.0276-0.2611-0.2725-0.2611-0.2725l0.2995-0.2983C3.8355,23.0405,3.9371,23.1467,4.0387,23.2528L4.0387,23.2528z"
									/>
								<path class="st4" d="M6.9944,31.8874c-0.0255,0.0266-0.3049,0.3182-0.3049,0.3182l-0.2995-0.2983
									c0,0,0.2347-0.2448,0.2611-0.2724l-0.337-0.3517h0.5004l0.1801,0.1879l0.1801-0.1879h0.5003l-0.337,0.3517
									c0.0264,0.0276,0.261,0.2724,0.261,0.2724l-0.2995,0.2983C7.1975,32.0996,7.096,31.9934,6.9944,31.8874L6.9944,31.8874z"/>
								<path class="st4" d="M5.5165,31.8874c-0.0254,0.0266-0.3049,0.3182-0.3049,0.3182l-0.2995-0.2983
									c0,0,0.2346-0.2448,0.2611-0.2724l-0.337-0.3517h0.5003l0.1801,0.1879l0.1801-0.1879h0.5003l-0.337,0.3517
									c0.0264,0.0276,0.261,0.2724,0.261,0.2724l-0.2995,0.2983C5.7197,32.0996,5.6181,31.9934,5.5165,31.8874L5.5165,31.8874z"/>
								<path class="st4" d="M4.0387,31.8874c0.0255,0.0266,0.3049,0.3182,0.3049,0.3182l0.2995-0.2983
									c0,0-0.2347-0.2448-0.2611-0.2724l0.337-0.3517H4.2187l-0.18,0.1879l-0.1801-0.1879H3.3583l0.337,0.3517
									c-0.0264,0.0276-0.2611,0.2724-0.2611,0.2724l0.2995,0.2983C3.8355,32.0996,3.9371,31.9934,4.0387,31.8874L4.0387,31.8874z"
									/>
							</g>
							<g>
								<path class="st1" d="M0.3601,27.9035v0.3062l-0.6827-0.4662l-0.2984,0.2479l-0.2644-0.033l-0.1105-0.1681l0.2679-0.2202
									l-0.2679-0.2202l0.1106-0.1681l0.2643-0.033l0.2984,0.2478l0.6827-0.4662v0.3062l-0.4884,0.3335L0.3601,27.9035z"/>
								<path class="st1" d="M0.3601,26.4839v0.3063l-0.6827-0.4662l-0.2984,0.2478l-0.2644-0.033l-0.1105-0.1681l0.2679-0.2202
									l-0.2679-0.2202l0.1106-0.1681l0.2643-0.033l0.2984,0.2478l0.6827-0.4661v0.3062l-0.4884,0.3334L0.3601,26.4839z"/>
								<path class="st1" d="M0.3601,28.6563v-0.3062l-0.6827,0.4662l-0.2984-0.2479l-0.2644,0.033l-0.1105,0.1681l0.2679,0.2202
									L-0.9959,29.21l0.1106,0.1681l0.2643,0.033l0.2984-0.2478l0.6827,0.4662v-0.3062l-0.4884-0.3335L0.3601,28.6563z"/>
								<path class="st1" d="M10.6729,27.9035v0.3062l0.6827-0.4662l0.2983,0.2479l0.2644-0.033l0.1105-0.1681l-0.2679-0.2202
									l0.2679-0.2202l-0.1105-0.1681l-0.2644-0.033l-0.2983,0.2478l-0.6827-0.4662v0.3062l0.4883,0.3335L10.6729,27.9035z"/>
								<path class="st1" d="M10.6729,26.4839v0.3063l0.6827-0.4662l0.2983,0.2478l0.2644-0.033l0.1105-0.1681l-0.2679-0.2202
									l0.2679-0.2202l-0.1105-0.1681l-0.2644-0.033l-0.2983,0.2478l-0.6827-0.4661v0.3062l0.4883,0.3334L10.6729,26.4839z"/>
								<path class="st1" d="M10.6729,28.6563v-0.3062l0.6827,0.4662l0.2983-0.2479l0.2644,0.033l0.1105,0.1681l-0.2679,0.2202
									l0.2679,0.2202l-0.1105,0.1681l-0.2644,0.033l-0.2983-0.2478l-0.6827,0.4662v-0.3062l0.4883-0.3335L10.6729,28.6563z"/>
								<path class="st1" d="M9.4575,23.3098v0.3763h0.35v0.3887h-0.312v-0.261H9.0959v-0.5041L9.4575,23.3098L9.4575,23.3098z"/>
								<path class="st1" d="M10.6353,24.241v0.3763h0.35v0.3888h-0.3121v-0.261h-0.3996V24.241H10.6353z"/>
								<path class="st1" d="M1.5754,23.3098v0.3763h-0.35v0.3887h0.3121v-0.261H1.937v-0.5041L1.5754,23.3098L1.5754,23.3098z"/>
								<path class="st1" d="M9.4575,31.8303V31.454h0.35v-0.3887h-0.312v0.261H9.0959v0.5041L9.4575,31.8303L9.4575,31.8303z"/>
								<path class="st1" d="M1.5754,31.8303V31.454H1.2253v-0.3887h0.3121v0.261H1.937v0.5041L1.5754,31.8303L1.5754,31.8303z"/>
								<path class="st1" d="M10.6353,30.8991v-0.3763h0.35v-0.3887h-0.3121v0.261h-0.3996v0.5041L10.6353,30.8991L10.6353,30.8991z
									"/>
								<path class="st1" d="M0.3977,24.241v0.3763h-0.35v0.3888h0.3121v-0.261h0.3996V24.241H0.3977z"/>
								<path class="st1" d="M0.3978,30.8991v-0.3763H0.0477v-0.3887h0.3121v0.261h0.3996v0.5041L0.3978,30.8991L0.3978,30.8991z"/>
								<path class="st1" d="M6.6889,22.9942c0.0249,0.026,0.3056,0.3189,0.3056,0.3189s0.2806-0.2928,0.3055-0.3189
									c0.0236,0.0235,0.2144,0.2135,0.2405,0.2395C7.5134,23.2618,7.28,23.5054,7.28,23.5054l0.2956,0.3085H7.1908l-0.1964-0.205
									l-0.1964,0.205H6.4132l0.2956-0.3085c0,0-0.2334-0.2436-0.2604-0.2717C6.4745,23.2076,6.6652,23.0176,6.6889,22.9942
									L6.6889,22.9942z"/>
								<path class="st1" d="M5.211,22.9942c0.0249,0.026,0.3055,0.3189,0.3055,0.3189s0.2806-0.2928,0.3056-0.3189
									c0.0236,0.0235,0.2143,0.2135,0.2404,0.2395c-0.027,0.0281-0.2604,0.2717-0.2604,0.2717l0.2956,0.3085H5.7128l-0.1964-0.205
									l-0.1964,0.205H4.9352l0.2956-0.3085c0,0-0.2334-0.2436-0.2604-0.2717C4.9966,23.2076,5.1873,23.0176,5.211,22.9942z"/>
								<path class="st1" d="M4.3443,22.9942c-0.025,0.026-0.3056,0.3189-0.3056,0.3189s-0.2806-0.2928-0.3055-0.3189
									c-0.0236,0.0235-0.2144,0.2135-0.2405,0.2395c0.027,0.0281,0.2604,0.2717,0.2604,0.2717l-0.2956,0.3085h0.3848l0.1964-0.205
									l0.1964,0.205H4.62l-0.2956-0.3085c0,0,0.2334-0.2436,0.2604-0.2717C4.5587,23.2076,4.3679,23.0176,4.3443,22.9942z"/>
								<path class="st1" d="M6.6889,32.146c0.0249-0.0261,0.3056-0.3189,0.3056-0.3189s0.2806,0.2928,0.3055,0.3189
									c0.0236-0.0235,0.2144-0.2135,0.2405-0.2395C7.5134,31.8783,7.28,31.6348,7.28,31.6348l0.2956-0.3085H7.1908l-0.1964,0.2049
									L6.798,31.3263H6.4132l0.2956,0.3085c0,0-0.2334,0.2435-0.2604,0.2717C6.4745,31.9325,6.6652,32.1225,6.6889,32.146
									L6.6889,32.146z"/>
								<path class="st1" d="M5.211,32.146c0.0249-0.0261,0.3055-0.3189,0.3055-0.3189S5.797,32.1199,5.822,32.146
									c0.0236-0.0235,0.2143-0.2135,0.2404-0.2395c-0.027-0.0282-0.2604-0.2717-0.2604-0.2717l0.2956-0.3085H5.7128
									l-0.1964,0.2049l-0.1964-0.2049H4.9352l0.2956,0.3085c0,0-0.2334,0.2435-0.2604,0.2717
									C4.9966,31.9325,5.1873,32.1225,5.211,32.146z"/>
								<path class="st1" d="M4.3443,32.146c-0.025-0.0261-0.3056-0.3189-0.3056-0.3189s-0.2806,0.2928-0.3055,0.3189
									c-0.0236-0.0235-0.2144-0.2135-0.2405-0.2395c0.027-0.0282,0.2604-0.2717,0.2604-0.2717l-0.2956-0.3085h0.3848
									l0.1964,0.2049l0.1964-0.2049H4.62l-0.2956,0.3085c0,0,0.2334,0.2435,0.2604,0.2717
									C4.5587,31.9325,4.3679,32.1225,4.3443,32.146z"/>
							</g>
							<path class="st4" d="M1.5374,30.3951v0.9312h7.9581v-0.9312h1.1773v-5.6501H9.4955v-0.9312H1.5374v0.9312H0.3601v5.6501
								H1.5374z"/>
							<path class="st3" d="M1.58,23.8563v0.9294H0.4025v5.5654H1.58v0.9294h7.8751v-0.9294h1.1776v-5.5655H9.4551v-0.9294
								L1.58,23.8563L1.58,23.8563z M2.0868,24.2142h6.8616v0.8973l0.2832,0.2244h1.0683v4.4705H9.2266l-0.2782,0.2189v0.9026
								H2.0868v-0.8973l-0.2832-0.2242H0.7304v-4.4705h1.0682l0.2882-0.2244L2.0868,24.2142L2.0868,24.2142z"/>
							<path class="st3" d="M2.1265,24.2569v0.8226L3.16,24.2569H2.1265z M7.8701,24.2569l1.0335,0.8226v-0.8226H7.8701z
								 M0.7751,25.3786v0.7691l0.9738-0.7691H0.7751L0.7751,25.3786z M9.2813,25.3786l0.9788,0.7744v-0.7744H9.2813z
								 M10.26,28.9838l-0.9788,0.7799H10.26V28.9838z M0.7751,28.9891v0.7746h0.9738L0.7751,28.9891z M2.1265,30.0628v0.8172H3.155
								L2.1265,30.0628z M8.9035,30.0628l-1.0284,0.8172h1.0284V30.0628z"/>
							<path class="st1" d="M7.8034,24.2577c0.0106,0.0084,2.4404,1.9376,2.4566,1.9504v2.7237
								c-0.0162,0.0129-2.446,1.9421-2.4565,1.9505H3.2294c-0.0105-0.0084-2.4403-1.9376-2.4565-1.9505v-2.7237
								c0.0162-0.0128,2.446-1.9421,2.4565-1.9504H7.8034L7.8034,24.2577z"/>
							<path class="st4" d="M1.358,29.2455l-0.2824-0.3524l0.2652-0.3308l-0.2652-0.3308l0.2652-0.3307l-0.2652-0.3308
								l0.2652-0.3308l-0.2652-0.3308l0.2651-0.3308L1.0755,26.247l0.2824-0.3523h8.317l0.2824,0.3523l-0.2652,0.3308l0.2652,0.3308
								l-0.2652,0.3308l0.2652,0.3308l-0.2652,0.3308l0.2652,0.3307l-0.2652,0.3308l0.2652,0.3308l-0.2824,0.3524H1.358z
								 M7.075,24.6838l-0.3278-0.3036l-0.3078,0.285l-0.3076-0.285l-0.3077,0.285l-0.3077-0.285l-0.3077,0.285l-0.3077-0.285
								l-0.3076,0.285l-0.3077-0.285l-0.3278,0.3036v5.7725L4.2857,30.76l0.3077-0.285l0.3076,0.285l0.3077-0.285l0.3077,0.285
								l0.3077-0.285l0.3077,0.285l0.3076-0.285l0.3078,0.285l0.3278-0.3037V24.6838z"/>
							<g>
								<path class="st5" d="M6.4194,24.7036l-0.2876-0.2664l-0.2876,0.2664v5.7328l0.2876,0.2663l0.2876-0.2663V24.7036z"/>
								<path class="st5" d="M5.1886,24.7036L4.901,24.4372l-0.2876,0.2664v5.7328l0.2876,0.2663l0.2876-0.2663V24.7036z"/>
								<path class="st5" d="M1.3764,29.2024l-0.2478-0.3092l0.2478-0.3092h8.2801l0.2478,0.3092l-0.2478,0.3092H1.3764z"/>
								<path class="st5" d="M9.6565,27.2609L9.9043,27.57l-0.2478,0.3091h-8.28L1.1287,27.57l0.2478-0.3092H9.6565z"/>
								<path class="st5" d="M9.6565,26.5562l0.2478-0.3092l-0.2478-0.3091H1.3764L1.1286,26.247l0.2478,0.3092H9.6565z"/>
							</g>
							<g>
								<path class="st3" d="M7.0348,24.7036l-0.2876-0.2664l-0.2876,0.2664v5.7328l0.2876,0.2663l0.2875-0.2663L7.0348,24.7036z"/>
								<path class="st3" d="M4.5733,24.7036l-0.2876-0.2664L3.998,24.7036v5.7328l0.2876,0.2663l0.2876-0.2663V24.7036z"/>
								<path class="st3" d="M1.3765,28.5407l-0.2478-0.3092l0.2478-0.3092h8.28l0.2478,0.3092l-0.2478,0.3092H1.3765z"/>
								<path class="st3" d="M1.3765,27.2177l-0.2478-0.3092l0.2478-0.3092h8.28l0.2478,0.3092l-0.2478,0.3092H1.3765z"/>
								<path class="st3" d="M5.8041,30.4365l-0.2876,0.2663l-0.2876-0.2663v-5.7328l0.2876-0.2664l0.2876,0.2664V30.4365z"/>
							</g>
							<path class="st4" d="M8.2962,24.8155H2.7166v0.4764H2.0036v4.5565h0.7131v0.4763h5.5997v-0.4763h0.7131v-4.5565H8.3163
								v-0.4764H8.2962z"/>
							<path class="st3" d="M2.7576,24.8603v0.4755H2.0421v4.4705h0.7155v0.4753h0.5863l-1.1676-1.0522v-3.317l1.1676-1.0522
								L2.7576,24.8603L2.7576,24.8603z M7.6914,24.8603l1.1626,1.0522v3.317l-1.1626,1.0522h0.5862v-0.4753h0.7105v-4.4705H8.2776
								v-0.4755L7.6914,24.8603L7.6914,24.8603z"/>
							<g>
								<path class="st1" d="M3.4084,24.8603c-0.011,0.01-1.1783,1.0609-1.1925,1.0736v3.2741
									c0.0141,0.0128,1.1814,1.0636,1.1925,1.0736h4.2183c0.0111-0.01,1.1734-1.0609,1.1875-1.0736v-3.2741
									C8.8,25.9212,7.6377,24.8703,7.6267,24.8603H3.4084z M3.468,25.0419h4.0941l1.0831,0.9774v3.1032l-1.0831,0.9721H3.468
									l-1.0782-0.9721v-3.1032L3.468,25.0419z"/>
								<path class="st1" d="M4.5523,29.1717l0.1833,0.0851l0.0337,0.2301l-0.2307,0.2182l0.3351,0.3483H4.5513l-0.2305-0.2386
									l-0.2306,0.2386H3.7677l0.3352-0.3483l-0.2308-0.2182l0.0338-0.2301l0.1832-0.0851l0.2317,0.1991l0.0126-0.0108
									L4.5523,29.1717z"/>
								<path class="st1" d="M5.7482,29.1717l0.1832,0.0851l0.0338,0.2301l-0.2307,0.2182l0.3351,0.3483H5.7471l-0.2306-0.2386
									L5.286,30.0534H4.9635l0.3352-0.3483l-0.2307-0.2182l0.0338-0.2301l0.1832-0.0851l0.2316,0.1991l0.0126-0.0108
									L5.7482,29.1717z"/>
								<path class="st1" d="M6.4807,29.1717l-0.1832,0.0851l-0.0338,0.2301l0.2307,0.2182l-0.3351,0.3483h0.3224l0.2306-0.2386
									l0.2305,0.2386h0.3224l-0.3351-0.3483l0.2307-0.2182l-0.0338-0.2301L6.944,29.1717l-0.2316,0.1991l-0.0126-0.0108
									L6.4807,29.1717z"/>
								<path class="st1" d="M4.5523,25.9684l0.1833-0.0851l0.0337-0.23L4.5386,25.435l0.3351-0.3483H4.5513l-0.2305,0.2385
									l-0.2306-0.2385H3.7677l0.3352,0.3483l-0.2308,0.2181l0.0338,0.2301l0.1832,0.0851l0.2317-0.1991l0.0126,0.0108
									L4.5523,25.9684z"/>
								<path class="st1" d="M5.7482,25.9684l0.1832-0.0851l0.0338-0.23L5.7345,25.435l0.3351-0.3483H5.7471l-0.2306,0.2385
									L5.286,25.0867H4.9635l0.3352,0.3483l-0.2307,0.2181l0.0338,0.2301l0.1832,0.0851l0.2316-0.1991l0.0126,0.0108
									L5.7482,25.9684z"/>
								<path class="st1" d="M6.4807,25.9684l-0.1832-0.0851l-0.0338-0.23l0.2307-0.2182l-0.3351-0.3483h0.3224l0.2306,0.2385
									l0.2305-0.2385h0.3224L6.9302,25.435l0.2307,0.2181l-0.0338,0.2301L6.944,25.9684l-0.2316-0.1991l-0.0126,0.0108
									L6.4807,25.9684z"/>
								<path class="st1" d="M8.603,26.3358l-0.1829,0.1628l0.1829,0.1628v0.2699l-0.2813-0.2492c0,0-0.1892,0.1842-0.2019,0.1966
									c-0.0162-0.0022-0.1985-0.0268-0.2165-0.0292c-0.008-0.0159-0.065-0.1287-0.0763-0.1513
									c0.0189-0.0202,0.1863-0.1996,0.1863-0.1996s-0.1674-0.1795-0.1863-0.1997c0.0113-0.0226,0.0682-0.1354,0.0763-0.1513
									c0.018-0.0024,0.2003-0.0271,0.2165-0.0293c0.0127,0.0124,0.2019,0.1967,0.2019,0.1967L8.603,26.066V26.3358z"/>
								<path class="st1" d="M8.603,27.4073l-0.1829,0.1628l0.1829,0.1627v0.27l-0.2813-0.2492c0,0-0.1892,0.1842-0.2019,0.1966
									c-0.0162-0.0022-0.1985-0.0269-0.2165-0.0292c-0.008-0.0159-0.065-0.1288-0.0763-0.1513
									c0.0189-0.0202,0.1863-0.1996,0.1863-0.1996s-0.1674-0.1795-0.1863-0.1997c0.0113-0.0225,0.0682-0.1353,0.0763-0.1513
									c0.018-0.0024,0.2003-0.027,0.2165-0.0292c0.0127,0.0124,0.2019,0.1966,0.2019,0.1966l0.2813-0.2491V27.4073L8.603,27.4073z
									"/>
								<path class="st1" d="M8.603,28.8043l-0.1829-0.1628l0.1829-0.1628v-0.2699l-0.2813,0.2492c0,0-0.1892-0.1843-0.2019-0.1967
									c-0.0162,0.0022-0.1985,0.0269-0.2165,0.0292c-0.008,0.0159-0.065,0.1288-0.0763,0.1513
									c0.0189,0.0203,0.1863,0.1997,0.1863,0.1997s-0.1674,0.1795-0.1863,0.1997c0.0113,0.0225,0.0682,0.1353,0.0763,0.1513
									c0.018,0.0024,0.2003,0.027,0.2165,0.0292c0.0127-0.0124,0.2019-0.1966,0.2019-0.1966l0.2813,0.2492V28.8043z"/>
								<path class="st1" d="M2.4302,26.3358l0.1829,0.1628l-0.1829,0.1628v0.2699l0.2813-0.2492c0,0,0.1892,0.1842,0.2019,0.1966
									c0.0162-0.0022,0.1985-0.0268,0.2165-0.0292c0.008-0.0159,0.0649-0.1287,0.0763-0.1513
									c-0.0189-0.0202-0.1863-0.1996-0.1863-0.1996s0.1674-0.1795,0.1863-0.1997c-0.0114-0.0226-0.0682-0.1354-0.0763-0.1513
									c-0.018-0.0024-0.2003-0.0271-0.2165-0.0293c-0.0127,0.0124-0.2019,0.1967-0.2019,0.1967L2.4302,26.066V26.3358z"/>
								<path class="st1" d="M2.4302,27.4073l0.1829,0.1628l-0.1829,0.1627v0.27l0.2813-0.2492c0,0,0.1892,0.1842,0.2019,0.1966
									c0.0162-0.0022,0.1985-0.0269,0.2165-0.0292c0.008-0.0159,0.0649-0.1288,0.0763-0.1513
									c-0.0189-0.0202-0.1863-0.1996-0.1863-0.1996s0.1674-0.1795,0.1863-0.1997c-0.0114-0.0225-0.0682-0.1353-0.0763-0.1513
									c-0.018-0.0024-0.2003-0.027-0.2165-0.0292c-0.0127,0.0124-0.2019,0.1966-0.2019,0.1966l-0.2813-0.2491V27.4073
									L2.4302,27.4073z"/>
								<path class="st1" d="M2.4302,28.8043l0.1829-0.1628l-0.1829-0.1628v-0.2699l0.2813,0.2492c0,0,0.1892-0.1843,0.2019-0.1967
									c0.0162,0.0022,0.1985,0.0269,0.2165,0.0292c0.008,0.0159,0.0649,0.1288,0.0763,0.1513
									c-0.0189,0.0203-0.1863,0.1997-0.1863,0.1997s0.1674,0.1795,0.1863,0.1997c-0.0114,0.0225-0.0682,0.1353-0.0763,0.1513
									c-0.018,0.0024-0.2003,0.027-0.2165,0.0292c-0.0127-0.0124-0.2019-0.1966-0.2019-0.1966l-0.2813,0.2492V28.8043z"/>
							</g>
							<path class="st3" d="M3.483,25.0848c-0.0109,0.0098-0.9945,0.8951-1.0384,0.9347c0.0887,0.079,0.1744,0.1616,0.2633,0.2404
								c0.0225-0.0219,0.1938-0.187,0.1938-0.187l0.2534,0.0374l0.0994,0.1976c0,0-0.1546,0.1663-0.1789,0.1923
								c0.0243,0.026,0.1789,0.1923,0.1789,0.1923L3.155,26.8901l-0.2534,0.032c0,0-0.1713-0.1597-0.1938-0.1816l-0.2782,0.251
								v0.0855c0.0936,0.0833,0.1843,0.1678,0.2782,0.251c0.0225-0.0218,0.1938-0.1816,0.1938-0.1816l0.2534,0.032l0.0994,0.1976
								c0,0-0.1546,0.1663-0.1789,0.1923c0.0243,0.026,0.1789,0.1923,0.1789,0.1923l-0.0994,0.203l-0.2534,0.032
								c0,0-0.1713-0.165-0.1938-0.1869l-0.2782,0.251v0.0908l0.2782,0.251c0.0225-0.0218,0.1938-0.1869,0.1938-0.1869
								l0.2534,0.0374l0.0994,0.1976c0,0-0.1546,0.1663-0.1789,0.1923c0.0243,0.026,0.1789,0.1923,0.1789,0.1923L3.155,29.0319
								l-0.2534,0.0374c0,0-0.1713-0.165-0.1938-0.1869c-0.0885,0.0784-0.175,0.1567-0.2633,0.235
								c0.0439,0.0396,1.0276,0.9249,1.0384,0.9347h0.2286l0.3329-0.3472l-0.2136-0.203l0.0397-0.2777l0.2236-0.1015l0.2286,0.1923
								l0.2236-0.1923l0.2236,0.1015l0.0447,0.2777l-0.2186,0.203l0.323,0.3312l0.323-0.3312l-0.2186-0.203l0.0397-0.2777
								l0.2286-0.1015l0.2236,0.1923l0.2286-0.1923l0.2236,0.1015l0.0397,0.2777l-0.2136,0.203l0.318,0.3365l0.323-0.3365
								l-0.2136-0.203l0.0397-0.2777l0.2286-0.1015l0.2236,0.1923l0.2236-0.1923l0.2286,0.1015l0.0397,0.2777l-0.2136,0.203
								l0.3329,0.3472h0.2236c0.0109-0.0098,0.9945-0.8951,1.0384-0.9347c-0.0885-0.0784-0.1747-0.1565-0.2633-0.235
								c-0.0225,0.0219-0.1888,0.1869-0.1888,0.1869l-0.2534-0.0374l-0.1043-0.1976c0,0,0.1546-0.1663,0.1789-0.1923
								c-0.0243-0.026-0.1789-0.1923-0.1789-0.1923l0.1043-0.1976l0.2534-0.0374c0,0,0.1663,0.1651,0.1888,0.1869l0.2782-0.251
								v-0.0908l-0.2782-0.251c-0.0225,0.0219-0.1888,0.1869-0.1888,0.1869l-0.2534-0.032l-0.1043-0.203
								c0,0,0.1546-0.1663,0.1789-0.1923c-0.0243-0.026-0.1789-0.1923-0.1789-0.1923l0.1043-0.1976l0.2534-0.032
								c0,0,0.1663,0.1598,0.1888,0.1816c0.0933-0.0826,0.1852-0.1634,0.2782-0.2457v-0.0961l-0.2782-0.2457
								c-0.0225,0.0219-0.1888,0.1816-0.1888,0.1816l-0.2534-0.032l-0.1043-0.1976c0,0,0.1546-0.1663,0.1789-0.1923
								c-0.0243-0.026-0.1789-0.1923-0.1789-0.1923l0.1043-0.1976l0.2534-0.0374c0,0,0.1663,0.1651,0.1888,0.1869
								c0.089-0.0789,0.1793-0.1561,0.2683-0.235c-0.0342-0.0308-1.0325-0.9302-1.0434-0.94H7.3236l-0.3329,0.3472l0.2136,0.203
								l-0.0397,0.2777l-0.2286,0.1068l-0.2236-0.1923l-0.2236,0.1923l-0.2286-0.1068l-0.0397-0.2777l0.2136-0.203l-0.318-0.3312
								l-0.323,0.3312l0.2136,0.203l-0.0397,0.2777l-0.2236,0.1068l-0.2286-0.1923l-0.2236,0.1923l-0.2286-0.1068l-0.0397-0.2777
								l0.2186-0.203l-0.323-0.3312l-0.323,0.3312l0.2186,0.203l-0.0447,0.2777l-0.2236,0.1068l-0.2236-0.1923l-0.2286,0.1923
								l-0.2236-0.1068l-0.0397-0.2777l0.2136-0.203l-0.3379-0.3472L3.483,25.0848z M2.4296,27.4616v0.219l0.1192-0.1122
								L2.4296,27.4616z"/>
							<g>
								<path class="st2" d="M4.3226,29.8758L4.1487,30.052h0.3428L4.3226,29.8758z"/>
								<path class="st2" d="M5.5151,29.8758L5.3462,30.052H5.689L5.5151,29.8758z"/>
								<path class="st2" d="M6.7124,29.8758L6.5386,30.052h0.3477L6.7124,29.8758L6.7124,29.8758z"/>
								<path class="st2" d="M4.1437,25.0848l0.1789,0.1815l0.1739-0.1815H4.1437z"/>
								<path class="st2" d="M5.3412,25.0848l0.1739,0.1815l0.1789-0.1815H5.3412z"/>
								<path class="st2" d="M6.5387,25.0848l0.1738,0.1815l0.1739-0.1815H6.5387L6.5387,25.0848z"/>
								<path class="st2" d="M8.6005,26.3933l-0.1192,0.1068l0.1192,0.1015V26.3933z"/>
								<path class="st2" d="M8.6005,27.4615l-0.1192,0.1068l0.1192,0.1068V27.4615z"/>
								<path class="st2" d="M8.6005,28.5351l-0.1192,0.1068l0.1192,0.1068V28.5351z"/>
								<path class="st2" d="M2.4296,26.3881v0.2189l0.1192-0.1068L2.4296,26.3881z"/>
								<path class="st2" d="M2.4296,27.4615v0.2189l0.1192-0.1121L2.4296,27.4615z"/>
								<path class="st2" d="M2.4296,28.5299v0.2189l0.1192-0.1068L2.4296,28.5299z"/>
							</g>
							<g>
								<path class="st4" d="M6.5392,27.2122v-0.3823H6.1793v-0.4191H4.8537v0.4191H4.4937v0.3823H3.9966v0.7158h0.4971v0.3823
									h0.3599v0.4192h1.3256v-0.4192h0.3599v-0.3823h0.497v-0.7158H6.5392z"/>
								<path class="st5" d="M5.4963,26.4539v0.4321l-0.5698,0.3482v0.3143H4.0368v-0.2931h0.497v-0.3823h0.3599v-0.4192H5.4963z"/>
								<path class="st5" d="M5.5366,28.6863v-0.4321l0.5698-0.3483v-0.3142H6.996v0.293H6.499v0.3823H6.1391v0.4192L5.5366,28.6863
									z"/>
								<path class="st2" d="M6.1063,27.5485v-0.3143L5.5366,26.886v-0.4321h0.6025v0.4192H6.499v0.3823h0.497v0.2931H6.1063z"/>
								<path class="st2" d="M4.0369,27.5917h0.8897v0.3142l0.5698,0.3483v0.4321H4.8939v-0.4192H4.5339v-0.3823h-0.497
									L4.0369,27.5917z"/>
								<path class="st3" d="M4.9668,27.5917v0.2913l0.5296,0.3237v-0.615H4.9668z"/>
								<path class="st1" d="M5.4963,26.9335l-0.5296,0.3236v0.2913h0.5296V26.9335z"/>
								<path class="st3" d="M6.0662,27.5485v-0.2913l-0.5296-0.3236v0.6149H6.0662z"/>
								<path class="st1" d="M5.5366,28.2067l0.5296-0.3237v-0.2913H5.5366V28.2067z"/>
							</g>
						</g>
						<g id="carp4">
							<path class="st4" d="M0.6995,35.1658v1.1815h-1.0474v1.0717h-1.0616v3.0513h1.0616v1.0717h1.0474v1.1815h3.8083
								l0.6697,0.4326L4.8557,43.364h-1.358l-0.1171-0.142h1.2306l-0.3467-0.3753H2.5041l0.7976,0.8926h1.6508l0.5639-0.3642
								l0.5639,0.3642h1.6509l0.7975-0.8926H6.7685L6.4217,43.222h1.2307l-0.1172,0.142h-1.358l-0.3218-0.2078l0.6698-0.4326h3.8083
								V41.542h1.0474v-1.0717h1.0615V37.419h-1.0615v-1.0717h-1.0474v-1.1815H6.5251l-0.6698-0.4325l0.3218-0.2079h1.358
								l0.1172,0.142H6.4217l0.3468,0.3753h1.7603l-0.7975-0.8926H6.0803l-0.5639,0.3642l-0.5639-0.3642H3.3017l-0.7976,0.8926
								h1.7604l0.3467-0.3753H3.3806l0.1171-0.142h1.358l0.3218,0.2079l-0.6697,0.4325H0.6995z"/>
							<path class="st3" d="M6.5137,42.6785h3.781v-1.1804h1.0434v-1.0736h1.0633v-2.9644h-1.0633v-1.0682h-1.0434v-1.1804h-3.781
								l-1.5701-1.0202H3.319l-0.7204,0.8065h1.6496l0.2683-0.2884H3.2892l0.1888-0.2297h1.3912l1.7787,1.1537h3.2494v1.1804h1.0484
								v1.0736h1.0633v2.1151h-1.0633v1.0736H9.8973v1.1804H6.6479l-1.7787,1.1483H3.478l-0.1888-0.2243h1.2272l-0.2683-0.2884
								H2.5985l0.7204,0.8065h1.6247L6.5137,42.6785z M4.3822,42.2565H1.1328v-1.1804H0.0894v-1.0736h-1.0633v-2.1151h1.0633
								v-1.0736h1.0434v-1.1804h3.2494l1.7837-1.1537h1.3862l0.1888,0.2297H6.5187l0.2683,0.2884h1.6495l-0.7204-0.8065H6.0914
								l-1.5701,1.0202h-3.781v1.1804H-0.308v1.0682h-1.0633v2.9644h1.0633v1.0736h1.0484v1.1804h3.781l1.5701,1.0202h1.6247
								l0.7204-0.8065H6.787l-0.2683,0.2884H7.741l-0.1888,0.2243H6.166L4.3822,42.2565z"/>
							<path class="st5" d="M5.5151,34.95l-1.1229,0.7264H1.1726v1.1804H0.1292v1.0736h-1.0633V39.96h1.0633v1.0736h1.0434v1.1804
								h3.2196l1.1229,0.7211L6.638,42.214h3.2196v-1.1804h1.0484V39.96h1.0633v-2.0296h-1.0633v-1.0736H9.8576v-1.1804H6.638
								L5.5151,34.95z M5.5151,35.2491l1.0583,0.6837h3.0507v1.1804h1.0484v1.0682h1.0583v1.5222h-1.0583v1.0736H9.6241v1.1804
								H6.5734l-1.0583,0.6837l-1.0533-0.6837H1.4111v-1.1804H0.3627v-1.0736h-1.0633v-1.5222h1.0633v-1.0682h1.0484v-1.1804h3.0507
								L5.5151,35.2491z"/>
							<path class="st1" d="M9.5824,40.7347v1.1815H6.5618l-1.0454,0.6752L4.471,41.9162H1.4505v-1.1815H0.4031V39.663h-1.0615
								v-1.4366h1.0615v-1.0717h1.0474v-1.1815h3.0149H4.471l1.0454-0.6752l1.0454,0.6752h3.0206v1.1815h1.0474v1.0717h1.0615
								v1.4366h-1.0615v1.0717H9.5824z"/>
							<g>
								<path class="st4" d="M1.846,40.3207v1.1435h1.6604L1.846,40.2804V40.3207z"/>
								<path class="st4" d="M1.846,37.5687v-1.1436h1.6604L1.846,37.6089V37.5687z"/>
								<path class="st4" d="M9.187,40.3207v1.1435H7.5266l1.6604-1.1838V40.3207z"/>
								<path class="st4" d="M9.187,37.5687v-1.1436H7.5266l1.6604,1.1838V37.5687z"/>
								<path class="st3" d="M1.8862,40.361l1.4868,1.0601H1.8862V40.361z"/>
								<path class="st3" d="M1.8862,37.5284c0.0578-0.0413,1.3855-0.9879,1.4868-1.0601H1.8862V37.5284z"/>
								<path class="st3" d="M9.1468,40.361c-0.0579,0.0413-1.3855,0.9879-1.4868,1.0601h1.4868V40.361z"/>
								<path class="st3" d="M9.1468,37.5284c-0.0579-0.0412-1.3855-0.9879-1.4868-1.0601h1.4868V37.5284z"/>
							</g>
							<g id="carp4y">
								<path class="st4" d="M3.9637,38.6311v-0.584H3.7784l-0.8889-0.5975l-0.0106,0.0072l-0.8782,0.5903H1.8153v0.584H1.3974
									v0.6272h0.4179v0.5839h0.1853l0.8889,0.5975l0.8889-0.5975h0.1853v-0.5839h0.6362v-0.6272L3.9637,38.6311z"/>
								<path class="st3" d="M2.8895,37.5007l0.8131,0.5465H2.0765L2.8895,37.5007L2.8895,37.5007z M3.7026,39.8423l-0.813,0.5465
									l-0.813-0.5465H3.7026L3.7026,39.8423z"/>
								<path class="st3" d="M3.5057,38.6744v0.5408H2.4917v-0.5408H3.5057z"/>
								<g>
									<path class="st5" d="M3.9236,39.2583v0.5408H2.9096v-0.5408H3.9236z"/>
									<path class="st5" d="M2.8695,39.2583v0.5408H1.8555v-0.5408H2.8695z"/>
									<path class="st5" d="M4.5598,38.6744v0.5408H3.5458v-0.5408H4.5598z"/>
									<path class="st5" d="M2.4516,38.6744v0.5408H1.4376v-0.5408H2.4516z"/>
									<path class="st5" d="M3.9236,38.0904v0.5407H2.9096v-0.5407H3.9236z"/>
									<path class="st5" d="M2.8695,38.0904v0.5407H1.8555v-0.5407H2.8695z"/>
								</g>
								<g>
									<path class="st4" d="M2.1724,38.7945v0.3005H1.717v-0.3005H2.1724z"/>
									<path class="st4" d="M2.5903,38.2105v0.3005H2.1349v-0.3005H2.5903z"/>
									<path class="st4" d="M3.6443,38.2105v0.3005H3.1889v-0.3005H3.6443z"/>
									<path class="st4" d="M3.2264,38.7945v0.3005H2.771v-0.3005H3.2264z"/>
									<path class="st4" d="M4.2805,38.7945v0.3005H3.8251v-0.3005H4.2805z"/>
									<path class="st4" d="M3.6443,39.3785v0.3005H3.1889v-0.3005H3.6443z"/>
									<path class="st4" d="M2.5903,39.3785v0.3005H2.1349v-0.3005H2.5903z"/>
								</g>
								<g>
									<path class="st2" d="M2.1294,38.8406H1.7598v0.2083h0.3697V38.8406z"/>
									<path class="st2" d="M2.5473,38.2566H2.1777v0.2083h0.3697V38.2566z"/>
									<path class="st2" d="M3.6014,38.2566H3.2318v0.2083h0.3697V38.2566z"/>
									<path class="st2" d="M3.1835,38.8406H2.8139v0.2083h0.3697V38.8406z"/>
									<path class="st2" d="M4.2376,38.8406H3.868v0.2083h0.3697V38.8406z"/>
									<path class="st2" d="M3.6014,39.4245H3.2318v0.2083h0.3697V39.4245z"/>
									<path class="st2" d="M2.5473,39.4245H2.1777v0.2083h0.3697V39.4245z"/>
								</g>
							</g>
							<g transform="matrix(-1,0,0,1,377.99506,0)">
								<g id="carp4y_1_">
									<path class="st4" d="M7.0692,38.6311v-0.584h0.1853l0.8889-0.5975l0.0106,0.0072l0.8782,0.5903h0.1853v0.584h0.4179v0.6272
										H9.2176v0.5839H9.0323l-0.8889,0.5975l-0.8889-0.5975H7.0692v-0.5839H6.433v-0.6272L7.0692,38.6311z"/>
									<path class="st3" d="M8.1433,37.5007l-0.8131,0.5465h1.6261L8.1433,37.5007L8.1433,37.5007z M7.3303,39.8423l0.813,0.5465
										l0.813-0.5465H7.3303L7.3303,39.8423z"/>
									<path class="st3" d="M7.5272,38.6744v0.5408h1.0139v-0.5408H7.5272z"/>
									<g>
										<path class="st5" d="M7.1093,39.2583v0.5408h1.0139v-0.5408H7.1093z"/>
										<path class="st5" d="M8.1634,39.2583v0.5408h1.0139v-0.5408H8.1634z"/>
										<path class="st5" d="M6.4731,38.6744v0.5408h1.0139v-0.5408H6.4731z"/>
										<path class="st5" d="M8.5813,38.6744v0.5408h1.0139v-0.5408H8.5813z"/>
										<path class="st5" d="M7.1093,38.0904v0.5407h1.0139v-0.5407H7.1093z"/>
										<path class="st5" d="M8.1634,38.0904v0.5407h1.0139v-0.5407H8.1634z"/>
									</g>
									<g>
										<path class="st4" d="M8.8605,38.7945v0.3005h0.4554v-0.3005H8.8605z"/>
										<path class="st4" d="M8.4426,38.2105v0.3005H8.898v-0.3005H8.4426z"/>
										<path class="st4" d="M7.3886,38.2105v0.3005H7.844v-0.3005H7.3886z"/>
										<path class="st4" d="M7.8065,38.7945v0.3005h0.4554v-0.3005H7.8065z"/>
										<path class="st4" d="M6.7524,38.7945v0.3005h0.4554v-0.3005H6.7524z"/>
										<path class="st4" d="M7.3886,39.3785v0.3005H7.844v-0.3005H7.3886z"/>
										<path class="st4" d="M8.4426,39.3785v0.3005H8.898v-0.3005H8.4426z"/>
									</g>
									<g>
										<path class="st2" d="M8.9034,38.8406h0.3697v0.2083H8.9034V38.8406z"/>
										<path class="st2" d="M8.4855,38.2566h0.3697v0.2083H8.4855V38.2566z"/>
										<path class="st2" d="M7.4314,38.2566h0.3697v0.2083H7.4314V38.2566z"/>
										<path class="st2" d="M7.8493,38.8406H8.219v0.2083H7.8493V38.8406z"/>
										<path class="st2" d="M6.7952,38.8406h0.3697v0.2083H6.7952V38.8406z"/>
										<path class="st2" d="M7.4314,39.4245h0.3697v0.2083H7.4314V39.4245z"/>
										<path class="st2" d="M8.4855,39.4245h0.3697v0.2083H8.4855V39.4245z"/>
									</g>
								</g>
							</g>
							<g id="carp4r">
								<path class="st4" d="M6.5907,37.6556v0.5839H6.4054L5.5164,38.837l-0.0106-0.0071l-0.8782-0.5903H4.4423v-0.5839h-0.527
									v-0.6272h0.527v-0.5839h0.1853l0.8889-0.5975l0.8889,0.5975h0.1853v0.5839h0.527v0.6272H6.5907z"/>
								<path class="st5" d="M5.5165,38.786l0.8131-0.5465H4.7035L5.5165,38.786L5.5165,38.786z M6.3295,36.4444l-0.813-0.5465
									l-0.813,0.5465H6.3295L6.3295,36.4444z"/>
								<g>
									<path class="st3" d="M6.5505,37.0284v-0.5407H5.5366v0.5407H6.5505z"/>
									<path class="st3" d="M5.4964,37.0284v-0.5407H4.4825v0.5407H5.4964z"/>
									<path class="st3" d="M7.0775,37.6123v-0.5408H6.0636v0.5408H7.0775z"/>
									<path class="st3" d="M6.0234,37.6123v-0.5408H5.0095v0.5408H6.0234z"/>
									<path class="st3" d="M4.9693,37.6123v-0.5408H3.9554v0.5408H4.9693z"/>
									<path class="st3" d="M6.5505,38.1963v-0.5408H5.5366v0.5408H6.5505z"/>
									<path class="st3" d="M5.4964,38.1963v-0.5408H4.4825v0.5408H5.4964z"/>
								</g>
								<g>
									<path class="st4" d="M5.2171,36.6077v0.3005H4.7617v-0.3005H5.2171z"/>
									<path class="st4" d="M6.2712,36.6077v0.3005H5.8158v-0.3005H6.2712z"/>
									<path class="st4" d="M4.6901,37.1917v0.3005H4.2346v-0.3005H4.6901z"/>
									<path class="st4" d="M5.7442,37.1917v0.3005H5.2888v-0.3005H5.7442z"/>
									<path class="st4" d="M6.7983,37.1917v0.3005H6.3429v-0.3005H6.7983z"/>
									<path class="st4" d="M5.2171,37.7757v0.3005H4.7617v-0.3005H5.2171z"/>
									<path class="st4" d="M6.2712,37.7757v0.3005H5.8158v-0.3005H6.2712z"/>
								</g>
								<g>
									<path class="st2" d="M5.1743,36.6538H4.8046v0.2083h0.3697V36.6538z"/>
									<path class="st2" d="M6.2284,36.6538H5.8587v0.2083h0.3697V36.6538z"/>
									<path class="st2" d="M4.6472,37.2378H4.2775v0.2083h0.3697V37.2378z"/>
									<path class="st2" d="M5.7014,37.2378H5.3317v0.2083h0.3697V37.2378z"/>
									<path class="st2" d="M6.7554,37.2378H6.3857v0.2083h0.3697V37.2378z"/>
									<path class="st2" d="M5.1743,37.8218H4.8046V38.03h0.3697V37.8218z"/>
									<path class="st2" d="M6.2284,37.8218H5.8587V38.03h0.3697V37.8218z"/>
								</g>
							</g>
							<g>
								<g id="carp4r_1_">
									<path class="st4" d="M6.5907,40.8611v0.5839H6.4054l-0.8889,0.5975l-0.0106-0.0071l-0.8782-0.5903H4.4423v-0.5839h-0.527
										v-0.6272h0.527V39.65h0.1853l0.8889-0.5975L6.4054,39.65h0.1853v0.5839h0.527v0.6272H6.5907z"/>
									<path class="st5" d="M5.5165,41.9916l0.8131-0.5465H4.7035L5.5165,41.9916L5.5165,41.9916z M6.3295,39.65l-0.813-0.5465
										L4.7035,39.65H6.3295L6.3295,39.65z"/>
									<g>
										<path class="st3" d="M6.5505,40.2339v-0.5407H5.5366v0.5407H6.5505z"/>
										<path class="st3" d="M5.4964,40.2339v-0.5407H4.4825v0.5407H5.4964z"/>
										<path class="st3" d="M7.0775,40.8179v-0.5408H6.0636v0.5408H7.0775z"/>
										<path class="st3" d="M6.0234,40.8179v-0.5408H5.0095v0.5408H6.0234z"/>
										<path class="st3" d="M4.9693,40.8179v-0.5408H3.9554v0.5408H4.9693z"/>
										<path class="st3" d="M6.5505,41.4019v-0.5408H5.5366v0.5408H6.5505z"/>
										<path class="st3" d="M5.4964,41.4019v-0.5408H4.4825v0.5408H5.4964z"/>
									</g>
									<g>
										<path class="st4" d="M5.2171,39.8133v0.3005H4.7617v-0.3005H5.2171z"/>
										<path class="st4" d="M6.2712,39.8133v0.3005H5.8158v-0.3005H6.2712z"/>
										<path class="st4" d="M4.6901,40.3973v0.3005H4.2346v-0.3005H4.6901z"/>
										<path class="st4" d="M5.7442,40.3973v0.3005H5.2888v-0.3005H5.7442z"/>
										<path class="st4" d="M6.7983,40.3973v0.3005H6.3429v-0.3005H6.7983z"/>
										<path class="st4" d="M5.2171,40.9812v0.3005H4.7617v-0.3005H5.2171z"/>
										<path class="st4" d="M6.2712,40.9812v0.3005H5.8158v-0.3005H6.2712z"/>
									</g>
									<g>
										<path class="st2" d="M5.1743,39.8594H4.8046v0.2083h0.3697V39.8594z"/>
										<path class="st2" d="M6.2284,39.8594H5.8587v0.2083h0.3697V39.8594z"/>
										<path class="st2" d="M4.6472,40.4434H4.2775v0.2083h0.3697V40.4434z"/>
										<path class="st2" d="M5.7014,40.4434H5.3317v0.2083h0.3697V40.4434z"/>
										<path class="st2" d="M6.7554,40.4434H6.3857v0.2083h0.3697V40.4434z"/>
										<path class="st2" d="M5.1743,41.0273H4.8046v0.2083h0.3697V41.0273z"/>
										<path class="st2" d="M6.2284,41.0273H5.8587v0.2083h0.3697V41.0273z"/>
									</g>
								</g>
							</g>
						</g>
						<g id="carp5">
							<path class="st4" d="M-0.2359,47.8339l3.9447-2.2822h0.0051H7.324l3.9447,2.2822v3.7604L7.324,53.8764H3.7088l-3.9447-2.2821
								L-0.2359,47.8339z"/>
							<path class="st1" d="M3.7215,45.5949l-3.9152,2.2647v3.7067l3.9152,2.2647h3.5921l3.9154-2.2647v-3.7067l-3.9154-2.2647
								H3.7215z M3.791,45.8993h3.4532l3.7066,2.1418v3.349l-3.7066,2.1418H3.7889l-3.7065-2.1418v-3.349L3.791,45.8993z"/>
							<path class="st5" d="M5.5366,49.6924v3.7957H7.234l3.6756-2.1264v-1.626l-5.4132,0V45.94H3.799l-3.6757,2.1264v1.626
								L5.5366,49.6924z"/>
							<path class="st2" d="M5.4963,49.6924v3.7957H3.7989l-3.6757-2.1264v-1.626l5.4132,0V45.94H7.234l3.6756,2.1264v1.626
								L5.4963,49.6924z"/>
							<path class="st4" d="M5.8463,53.2756v-1.0971l-0.3299,0.225l-0.33-0.225v1.0971H4.16l0.6926-0.546v-0.7788l-1.0562-0.7204
								h-0.738v-3.0326h0.738l1.0562-0.7204v-0.7788L4.16,46.1527h0.0614h0.965v1.0971l0.33-0.2251l0.3299,0.2251v-1.0971h1.0264
								l-0.6926,0.546v0.7788l1.0562,0.7204h0.738v3.0326h-0.738l-1.0562,0.7204v0.7788l0.6926,0.546H5.8463z"/>
							<path class="st5" d="M5.8878,46.1984v1.1323L5.535,47.0904v0.3205l1.6147,1.1055h0.5317v1.1752h0.2534v-1.4528H7.2243
								l-1.0831-0.7372V46.679l0.611-0.4806H5.8878z M3.1004,49.7343v1.4528h0.7055l1.0881,0.7423v0.8226l-0.6112,0.4806h0.8646
								v-1.1323l0.3477,0.2405v-0.3312l-1.6147-1.0949H3.3538v-1.1804L3.1004,49.7343L3.1004,49.7343z"/>
							<path class="st2" d="M4.2828,46.1984L4.894,46.679v0.8226l-1.0881,0.7372H3.1003v1.4528h0.2534v-1.1752h0.5267l1.6147-1.1002
								v-0.3258l-0.3477,0.2403v-1.1323L4.2828,46.1984L4.2828,46.1984z M7.6813,49.7343v1.1804H7.1496l-1.6147,1.0949v0.3312
								l0.3528-0.2405v1.1323h0.8644l-0.611-0.4806v-0.8226l1.0831-0.7423h0.7105v-1.4528L7.6813,49.7343L7.6813,49.7343z"/>
							<path class="st3" d="M3.3922,50.8696h0.5007l1.6236,1.1073l1.6235-1.1073h0.5008v-2.3109H7.1458H7.1399l-1.6235-1.1073
								l-1.6236,1.1073H3.3922L3.3922,50.8696z"/>
							<path class="st4" d="M6.6402,50.2633h0.3467V50.087H6.7261v-0.3205h0.5573v0.8174H6.7491l0.0001,0.5576H5.6493v-0.8012h0.484
								v0.3205H5.9459v0.1602h0.5067v-0.3063L4.3925,49.165H4.0459v0.1763h0.2608v0.3205H3.7493v-0.8173h0.5343v-0.5576h0.0201
								h1.0797v0.8012h-0.484v-0.3205h0.1875v-0.1602H4.5801v0.3063L6.6402,50.2633z M6.4526,48.9137v-0.3063H5.9459v0.1602h0.1875
								v0.3205h-0.484v-0.8012h1.0998v0.5576h0.5342v0.8173H6.7261v-0.3205h0.2608V49.165H6.6402l-2.06,1.3496v0.3063h0.5067
								v-0.1602H4.8993v-0.3205h0.484v0.8013H4.2836v-0.5577H3.7493v-0.8173h0.5574v0.3205H4.0459v0.1763h0.3467L6.4526,48.9137z"/>
							<path class="st2" d="M6.4928,50.4904v0.3738H5.9057v-0.2466h0.1875v-0.2341H5.6895v0.7147h1.0194v-0.5576h0.5343v-0.7308
								H6.7663v0.234h0.2608v0.2627H6.629l-2.089-1.3685v-0.3738h0.5871v0.2466H4.9396v0.2341h0.4036v-0.7148H4.3238v0.5576H3.7896
								v0.7309h0.4769v-0.2341H4.0057v-0.2627h0.3981L6.4928,50.4904z M6.629,49.1218h0.3981v0.2627H6.7663v0.2341h0.4769v-0.7309
								H6.709v-0.5576H5.6896v0.7148h0.4036v-0.2341H5.9057v-0.2466h0.5871v0.3738l-2.089,1.3685H4.0057v-0.2627h0.2608v-0.2341
								H3.7896v0.7309h0.5342v0.5576h1.0194v-0.7148H4.9396v0.2341h0.1875v0.2466H4.5399v-0.3738L6.629,49.1218z"/>
							<g>
								<path class="st4" d="M10.1171,49.9042v1.1861H9.6476v-0.4189H9.1743v0.4189H8.7048v-1.1861h0.4695v0.4189h0.4733v-0.4189
									H10.1171z"/>
								<path class="st4" d="M8.437,51.4788v1.1861H7.9675V52.246H7.4942v0.4189H7.0247v-1.1861h0.4695v0.4189h0.4733v-0.4189H8.437
									z"/>
								<path class="st4" d="M10.1171,49.5239v-1.1861H9.6476v0.4189H9.1743v-0.4189H8.7048v1.1861h0.4695V49.105h0.4733v0.4189
									H10.1171z"/>
								<path class="st4" d="M0.9158,49.9042v1.1861h0.4695v-0.4189h0.4733v0.4189h0.4695v-1.1861H1.8586v0.4189H1.3853v-0.4189
									H0.9158z"/>
								<path class="st4" d="M0.9158,49.5239v-1.1861h0.4695v0.4189h0.4733v-0.4189h0.4695v1.1861H1.8586V49.105H1.3853v0.4189
									H0.9158z"/>
								<path class="st4" d="M8.437,47.9494v-1.1861H7.9675v0.4189H7.4942v-0.4189H7.0247v1.1861h0.4695v-0.4189h0.4733v0.4189
									H8.437z"/>
								<path class="st4" d="M2.5959,51.4788v1.1861h0.4695V52.246h0.4733v0.4189h0.4695v-1.1861H3.5387v0.4189H3.0654v-0.4189
									H2.5959z"/>
								<path class="st4" d="M2.5959,47.9494v-1.1861h0.4695v0.4189h0.4733v-0.4189h0.4695v1.1861H3.5387v-0.4189H3.0654v0.4189
									H2.5959z"/>
								<path class="st4" d="M8.7171,47.1181v0.9007h1.5569L8.7171,47.1181z"/>
								<path class="st4" d="M2.3157,52.31v-0.9007H0.7588L2.3157,52.31z"/>
								<path class="st4" d="M2.3157,47.1181v0.9007H0.7588L2.3157,47.1181z"/>
								<path class="st4" d="M8.7171,52.31v-0.9007h1.5569L8.7171,52.31z"/>
							</g>
							<g>
								<path class="st3" d="M9.6877,50.6282v0.4189h0.3891v-1.0996H9.6877v0.4189H9.134v-0.4189H8.7449v1.0996H9.134v-0.4189
									H9.6877z"/>
								<path class="st3" d="M8.0077,52.2027v0.4189h0.3891V51.522H8.0077v0.4189H7.454V51.522H7.0649v1.0996H7.454v-0.4189H8.0077z
									"/>
								<path class="st3" d="M9.6877,48.8v-0.4189h0.3891v1.0996H9.6877v-0.4189H9.134v0.4189H8.7449v-1.0996H9.134V48.8H9.6877z"/>
								<path class="st3" d="M1.3451,50.6282v0.4189H0.956v-1.0996h0.3891v0.4189h0.5537v-0.4189h0.3891v1.0996H1.8988v-0.4189
									H1.3451z"/>
								<path class="st3" d="M1.3451,48.8v-0.4189H0.956v1.0996h0.3891v-0.4189h0.5537v0.4189h0.3891v-1.0996H1.8988V48.8H1.3451z"
									/>
								<path class="st3" d="M8.0077,47.2254v-0.4189h0.3891v1.0997H8.0077v-0.4189H7.454v0.4189H7.0649v-1.0997H7.454v0.4189
									H8.0077z"/>
								<path class="st3" d="M3.0252,52.2027v0.4189H2.6361V51.522h0.3891v0.4189h0.5537V51.522H3.968v1.0996H3.5789v-0.4189H3.0252
									z"/>
								<path class="st3" d="M3.0252,47.2254v-0.4189H2.6361v1.0997h0.3891v-0.4189h0.5537v0.4189H3.968v-1.0997H3.5789v0.4189
									H3.0252z"/>
							</g>
							<path class="st5" d="M8.7595,47.1917v0.7852h1.3565L8.7595,47.1917z M0.9192,51.4541l1.3564,0.7852v-0.7852H0.9192
								L0.9192,51.4541z"/>
							<path class="st2" d="M2.2756,47.1917l-1.3564,0.7852h1.3564V47.1917z M8.7595,51.4541v0.7852l1.3565-0.7852H8.7595z"/>
						</g>
					</g>
				</g>
			</g>
		</g>
	</g>
</g>
</svg>
