<?xml version="1.0" encoding="utf-8"?>
<!-- Generator: Adobe Illustrator 21.0.2, SVG Export Plug-In . SVG Version: 6.00 Build 0)  -->
<svg version="1.1" id="Layer_1" xmlns="http://www.w3.org/2000/svg" xmlns:xlink="http://www.w3.org/1999/xlink" x="0px" y="0px"
	 viewBox="0 0 335 335" style="enable-background:new 0 0 335 335;" xml:space="preserve">
<style type="text/css">
	.st0{fill:#E70013;}
	.st1{fill:#FFFFFF;}
</style>
<g>
	<g>
		<path class="st0" d="M335.0222,167.492c0,92.5166-75.006,167.508-167.5073,167.508C75.006,335,0,260.0085,0,167.492
			C0,74.9761,75.006,0,167.5149,0C260.0162,0,335.0222,74.9761,335.0222,167.492z"/>
		<g>
			<path class="st1" d="M167.5073,83.7456c46.2579,0,83.7387,37.5038,83.7387,83.7464c0,46.2732-37.4808,83.7617-83.7387,83.7617
				c-46.2725,0-83.731-37.4884-83.731-83.7617C83.7762,121.2494,121.2348,83.7456,167.5073,83.7456z"/>
			<g>
				<path class="st0" d="M191.1829,219.8636c-28.9281,0-52.387-23.4282-52.387-52.3716c0-28.9282,23.4588-52.3632,52.387-52.3632
					c13.7676,0,26.2341,5.3345,35.602,13.9997c-11.8972-16.4172-31.2253-27.1022-53.0896-27.1022
					c-36.1414,0-65.458,29.3174-65.458,65.4657c0,36.1644,29.3166,65.4887,65.458,65.4887c21.8643,0,41.1924-10.685,53.0896-27.162
					C217.417,214.5506,204.9505,219.8636,191.1829,219.8636z"/>
				<polygon class="st0" points="182.5629,129.8242 199.3165,153.2156 226.7849,144.4753 209.7095,167.6866 226.4784,191.0703 
					199.1594,182.0089 182.084,205.1674 182.2556,176.3963 154.9442,167.3349 182.3828,158.6175 				"/>
			</g>
		</g>
	</g>
</g>
</svg>
