<?xml version="1.0" encoding="utf-8"?>
<!-- Generator: Adobe Illustrator 21.1.0, SVG Export Plug-In . SVG Version: 6.00 Build 0)  -->
<svg version="1.1" id="Layer_1" xmlns="http://www.w3.org/2000/svg" xmlns:xlink="http://www.w3.org/1999/xlink" x="0px" y="0px"
	 viewBox="0 0 60 60" style="enable-background:new 0 0 60 60;" xml:space="preserve">
<style type="text/css">
	.st0{fill:#E30A17;}
	.st1{fill:#FFFFFF;}
</style>
<g>
	<g>
		<circle class="st0" cx="30.0004" cy="30.0006" r="30"/>
		<g>
			<path class="st1" d="M25.5233,40.905c-6.0227,0-10.9048-4.8783-10.9048-10.9037c0-6.0228,4.8822-10.9023,10.9048-10.9023
				c3.0045,0,5.7224,1.2129,7.6965,3.1789c-2.4445-3.4871-6.4878-5.779-11.071-5.779c-7.4594,0-13.4993,6.043-13.4993,13.5024
				c0,7.4568,6.04,13.4997,13.4993,13.4997c4.5833,0,8.6293-2.2877,11.071-5.7748C31.2457,39.6882,28.5278,40.905,25.5233,40.905z"
				/>
			<polygon class="st1" points="38.5938,24.2118 41.112,27.8491 45.3522,26.5744 42.6705,30.0938 45.1913,33.7311 41.0141,32.2662 
				38.3351,35.7882 38.429,31.3657 34.2584,29.9021 38.4946,28.6329 			"/>
		</g>
	</g>
</g>
</svg>
