<?xml version="1.0" encoding="utf-8"?>
<!-- Generator: Adobe Illustrator 22.0.0, SVG Export Plug-In . SVG Version: 6.00 Build 0)  -->
<svg version="1.1" id="Layer_1" xmlns="http://www.w3.org/2000/svg" xmlns:xlink="http://www.w3.org/1999/xlink" x="0px" y="0px"
	 viewBox="0 0 60 60" style="enable-background:new 0 0 60 60;" xml:space="preserve">
<style type="text/css">
	.st0{clip-path:url(#SVGID_2_);fill:#5B97B1;}
	.st1{clip-path:url(#SVGID_4_);fill:#00247D;}
	.st2{clip-path:url(#SVGID_6_);fill:#FFFFFF;}
	.st3{clip-path:url(#SVGID_8_);fill:#FFFFFF;}
	.st4{clip-path:url(#SVGID_10_);fill:#CF142B;}
	.st5{clip-path:url(#SVGID_12_);fill:#CF142B;}
	.st6{fill:#FFCE00;}
</style>
<g>
	<g>
		<g>
			<g>
				<g>
					<g>
						<defs>
							<circle id="SVGID_1_" cx="30" cy="30" r="30"/>
						</defs>
						<clipPath id="SVGID_2_">
							<use xlink:href="#SVGID_1_"  style="overflow:visible;"/>
						</clipPath>
						<rect id="rect2414_2_" x="-30.4259" y="-0.2126" class="st0" width="120.8518" height="60.4256"/>
					</g>
				</g>
			</g>
		</g>
	</g>
	<g>
		<g>
			<g>
				<g>
					<g>
						<defs>
							<circle id="SVGID_3_" cx="30" cy="30" r="30"/>
						</defs>
						<clipPath id="SVGID_4_">
							<use xlink:href="#SVGID_3_"  style="overflow:visible;"/>
						</clipPath>
						<rect id="rect124_2_" x="-30.4259" y="-0.2126" class="st1" width="60.4259" height="30.2127"/>
					</g>
				</g>
			</g>
		</g>
	</g>
	<g>
		<g>
			<g>
				<g>
					<g>
						<defs>
							<circle id="SVGID_5_" cx="30" cy="30" r="30"/>
						</defs>
						<clipPath id="SVGID_6_">
							<use xlink:href="#SVGID_5_"  style="overflow:visible;"/>
						</clipPath>
						<path id="path146_2_" class="st2" d="M-30.4259-0.2126v3.3771L23.2445,30H30v-3.3775L-23.6704-0.2126H-30.4259z M30-0.2126
							v3.3771L-23.6704,30h-6.7555v-3.3775L23.2445-0.2126H30z"/>
					</g>
				</g>
			</g>
		</g>
	</g>
	<g>
		<g>
			<g>
				<g>
					<g>
						<defs>
							<circle id="SVGID_7_" cx="30" cy="30" r="30"/>
						</defs>
						<clipPath id="SVGID_8_">
							<use xlink:href="#SVGID_7_"  style="overflow:visible;"/>
						</clipPath>
						<path id="path136_2_" class="st3" d="M-5.2483-0.2126v30.2127h10.071V-0.2126H-5.2483z M-30.4259,9.8578v10.0709H30V9.8578
							H-30.4259z"/>
					</g>
				</g>
			</g>
		</g>
	</g>
	<g>
		<g>
			<g>
				<g>
					<g>
						<defs>
							<circle id="SVGID_9_" cx="30" cy="30" r="30"/>
						</defs>
						<clipPath id="SVGID_10_">
							<use xlink:href="#SVGID_9_"  style="overflow:visible;"/>
						</clipPath>
						<path id="path141_2_" class="st4" d="M-30.4259,11.8722v6.0424H30v-6.0424H-30.4259z M-3.234-0.2126v30.2127h6.0422V-0.2126
							H-3.234z"/>
					</g>
				</g>
			</g>
		</g>
	</g>
	<g>
		<g>
			<g>
				<g>
					<g>
						<defs>
							<circle id="SVGID_11_" cx="30" cy="30" r="30"/>
						</defs>
						<clipPath id="SVGID_12_">
							<use xlink:href="#SVGID_11_"  style="overflow:visible;"/>
						</clipPath>
						<path id="path150_2_" class="st5" d="M-30.4259,30.0001l20.1421-10.0714h4.5037l-20.1418,10.0714H-30.4259z M-30.4259-0.2126
							l20.1421,10.0704h-4.5037l-15.6384-7.8185V-0.2126z M5.3542,9.8578L25.4963-0.2126H30L9.8579,9.8578H5.3542z M30,30.0001
							L9.8579,19.9286h4.504L30,27.748V30.0001z"/>
					</g>
				</g>
			</g>
		</g>
	</g>
</g>
<g>
	<polygon class="st6" points="23.3463,50.4161 22.6199,48.1805 21.8935,50.4161 19.5429,50.4161 21.4446,51.7977 20.7182,54.0334 
		22.6199,52.6517 24.5216,54.0333 23.7952,51.7977 25.6969,50.4161 	"/>
	<polygon class="st6" points="33.0131,48.6774 33.7394,46.4419 31.8377,47.8235 29.9361,46.4419 30.6624,48.6774 28.7607,50.0591 
		31.1114,50.0591 31.8377,52.2947 32.5641,50.0591 34.9147,50.0591 	"/>
	<polygon class="st6" points="33.7394,38.5614 31.8377,39.9431 29.9361,38.5614 30.6624,40.797 28.7607,42.1787 31.1114,42.1787 
		31.8377,44.4142 32.5641,42.1787 34.9147,42.1786 33.0131,40.797 	"/>
	<polygon class="st6" points="41.1533,46.6856 41.8797,44.4501 39.978,45.8317 38.0763,44.4501 38.8027,46.6856 36.9009,48.0673 
		39.2516,48.0673 39.978,50.3028 40.7043,48.0673 43.055,48.0673 	"/>
	<polygon class="st6" points="39.2516,30.9209 39.978,33.1565 40.7043,30.9209 43.055,30.9209 41.1533,29.5392 41.8797,27.3037 
		39.978,28.6853 38.0763,27.3037 38.8027,29.5392 36.9009,30.9209 	"/>
	<polygon class="st6" points="46.0283,40.6644 45.3019,38.4289 44.5756,40.6644 42.2249,40.6644 44.1266,42.0461 43.4003,44.2817 
		45.302,42.9 47.2036,44.2817 46.4773,42.0461 48.3789,40.6644 	"/>
	<polygon class="st6" points="46.0929,28.5828 46.8192,30.8183 47.5456,28.5827 49.8962,28.5827 47.9945,27.2011 48.7209,24.9655 
		46.8192,26.3472 44.9175,24.9655 45.6439,27.2011 43.7422,28.5828 	"/>
	<polygon class="st6" points="52.9017,36.2397 52.1753,34.0042 51.4489,36.2397 49.0983,36.2397 51,37.6214 50.2736,39.857 
		52.1753,38.4753 54.077,39.857 53.3506,37.6214 55.2523,36.2397 	"/>
	<polygon class="st6" points="51,22.5 50.2736,24.7356 52.1753,23.3539 54.077,24.7356 53.3506,22.5 55.2523,21.1183 
		52.9017,21.1183 52.1753,18.8828 51.4489,21.1183 49.0983,21.1183 	"/>
</g>
</svg>
