<?xml version="1.0" encoding="utf-8"?>
<!-- Generator: Adobe Illustrator 21.0.2, SVG Export Plug-In . SVG Version: 6.00 Build 0)  -->
<svg version="1.1" id="Layer_1" xmlns="http://www.w3.org/2000/svg" xmlns:xlink="http://www.w3.org/1999/xlink" x="0px" y="0px"
	 viewBox="0 0 335 335" style="enable-background:new 0 0 335 335;" xml:space="preserve">
<style type="text/css">
	.st0{fill:#FF0000;}
	.st1{fill:#000099;}
	.st2{fill:#FFFFFF;}
</style>
<g>
	<g>
		<path class="st0" d="M335,167.4908c0,92.5224-74.9983,167.5054-167.4985,167.5054C74.9868,334.9962,0,260.0133,0,167.4908
			C0,74.983,74.9868,0,167.5015,0C260.0017,0,335,74.983,335,167.4908z"/>
		<g>
			<path class="st1" d="M167.3897,0C74.9308,0.0452,0,75.0136,0,167.4755c0,4.4226,0.2168,8.7701,0.5609,13.0947h166.8288V0z"/>
			<g>
				<polygon class="st2" points="88.119,76.7115 94.9874,51.2034 101.8496,76.7115 				"/>
				<polygon class="st2" points="72.8988,84.3891 65.963,58.8954 84.8036,77.595 				"/>
				<polygon class="st2" points="63.6053,98.5457 44.6897,79.9143 70.486,86.7682 				"/>
				<polygon class="st2" points="62.7227,115.3818 36.9187,108.6177 62.7227,101.8083 				"/>
				<polygon class="st2" points="70.486,130.4373 44.7043,137.2987 63.6053,118.6743 				"/>
				<polygon class="st2" points="84.8036,139.6327 65.963,158.3246 72.8988,132.8616 				"/>
				<polygon class="st2" points="101.8496,140.4862 94.9874,165.9944 88.119,140.4862 				"/>
				<polygon class="st2" points="117.0729,132.8616 124.0316,158.3246 105.1643,139.6327 				"/>
				<polygon class="st2" points="126.3847,118.6743 145.282,137.2987 119.5117,130.4373 				"/>
				<polygon class="st2" points="127.249,101.8083 153.0491,108.6177 127.249,115.3818 				"/>
				<polygon class="st2" points="119.5117,86.7682 145.282,79.9143 126.3847,98.5457 				"/>
				<polygon class="st2" points="105.1643,77.595 124.0316,58.9108 117.0729,84.3891 				"/>
				<path class="st1" d="M128.5286,108.6023c0,18.318-15.0179,33.1558-33.5412,33.1558c-18.508,0-33.5221-14.8378-33.5221-33.1558
					c0-18.2873,15.014-33.1405,33.5221-33.1405C113.5107,75.4618,128.5286,90.315,128.5286,108.6023z"/>
				<path class="st2" d="M124.7795,108.6023c0,16.2523-13.3222,29.4519-29.7921,29.4519c-16.4461,0-29.799-13.1996-29.799-29.4519
					c0-16.2592,13.3529-29.4435,29.799-29.4435C111.4572,79.1589,124.7795,92.3432,124.7795,108.6023z"/>
			</g>
		</g>
	</g>
</g>
</svg>
