<?xml version="1.0" encoding="utf-8"?>
<!-- Generator: Adobe Illustrator 21.1.0, SVG Export Plug-In . SVG Version: 6.00 Build 0)  -->
<svg version="1.1" id="Layer_1" xmlns="http://www.w3.org/2000/svg" xmlns:xlink="http://www.w3.org/1999/xlink" x="0px" y="0px"
	 viewBox="0 0 60 60" style="enable-background:new 0 0 60 60;" xml:space="preserve">
<style type="text/css">
	.st0{fill:#1EB53A;}
	.st1{fill:#00A3DD;}
	.st2{fill:#FCD116;}
</style>
<g>
	<g>
		<path class="st0" d="M29.9999,0C13.4317,0,0,13.4287,0,29.9987c0,1.7329,0.1795,3.4228,0.4616,5.0752L46.0496,4.684
			C41.4047,1.7329,35.9106,0,29.9999,0z"/>
		<path class="st1" d="M29.9999,60C46.5689,60,60,46.5701,60,29.9987c0-1.7329-0.179-3.4202-0.4625-5.0766l-45.59,30.3913
			C18.5932,58.2645,24.0885,60,29.9999,60z"/>
		<path class="st2" d="M13.9475,55.3134l45.59-30.3913c-0.2297-1.3456-0.5219-2.6696-0.926-3.9522l-47.9352,31.958
			C11.7068,53.799,12.8044,54.5871,13.9475,55.3134z"/>
		<path class="st2" d="M46.0496,4.684L0.4616,35.0739c0.2292,1.347,0.5227,2.6737,0.926,3.9522L49.3223,7.0668
			C48.2917,6.1984,47.192,5.4103,46.0496,4.684z"/>
		<path d="M54.9576,13.359c-1.5739-2.3534-3.475-4.4708-5.6353-6.2922L1.3877,39.0261c0.8584,2.7259,2.0987,5.283,3.6553,7.6149
			c1.572,2.3521,3.4736,4.4682,5.6334,6.2869l47.9352-31.958C57.7531,18.244,56.5128,15.6883,54.9576,13.359z"/>
	</g>
</g>
</svg>
