<?xml version="1.0" encoding="utf-8"?>
<!-- Generator: Adobe Illustrator 21.1.0, SVG Export Plug-In . SVG Version: 6.00 Build 0)  -->
<svg version="1.1" id="Layer_1" xmlns="http://www.w3.org/2000/svg" xmlns:xlink="http://www.w3.org/1999/xlink" x="0px" y="0px"
	 viewBox="0 0 60 60" style="enable-background:new 0 0 60 60;" xml:space="preserve">
<style type="text/css">
	.st0{fill:#FFE700;}
	.st1{fill:#DE3908;}
	.st2{fill:#FFFFFF;}
	.st3{fill:#231F20;}
	.st4{fill:#DE3107;}
	.st5{fill:#FEE601;}
	.st6{fill:#9BA59C;}
	.st7{fill:#FFFEFF;}
</style>
<g>
	<g>
		<g>
			<path class="st0" d="M7.6832,49.9996H52.314c2.5906-2.8895,4.621-6.2694,5.941-10.0004H1.7436
				C3.0624,43.7301,5.0954,47.1101,7.6832,49.9996z"/>
			<path d="M1.7436,39.9991h56.5115C59.3661,36.8684,60,33.5126,60,29.9987H0C0,33.5126,0.6339,36.8684,1.7436,39.9991z"/>
			<path class="st1" d="M29.9987,60c8.8747,0,16.8233-3.8744,22.3153-10.0004H7.6832C13.1767,56.1256,21.1226,60,29.9987,60z"/>
			<path class="st0" d="M7.6832,10.0004c-2.5878,2.8867-4.6196,6.2694-5.9397,10.0004h56.5115
				c-1.3214-3.731-3.3517-7.1137-5.941-10.0004H7.6832z"/>
			<path d="M29.9987,0c-8.8733,0-16.822,3.8718-22.3155,10.0004H52.314C46.822,3.8718,38.872,0,29.9987,0z"/>
			<path class="st1" d="M0,29.9987h60c0-3.5113-0.6339-6.8671-1.7449-9.9978H1.7436C0.6339,23.1316,0,26.4874,0,29.9987z"/>
		</g>
		<g>
			<g>
				<ellipse class="st2" cx="29.999" cy="29.9994" rx="9.461" ry="9.459"/>
				<path class="st3" d="M20.4994,29.9987c0-5.2428,4.2524-9.4993,9.4993-9.4993l0,0c5.2428,0,9.4993,4.2565,9.4993,9.4993l0,0
					c0,5.2481-4.2565,9.4993-9.4993,9.4993l0,0C24.7518,39.498,20.4994,35.2468,20.4994,29.9987L20.4994,29.9987z M20.5745,29.9987
					c0.0107,5.2066,4.2216,9.4135,9.4242,9.4242l0,0c5.2026-0.0107,9.4147-4.2176,9.4228-9.4242l0,0
					c-0.0081-5.2053-4.2202-9.4107-9.4228-9.4214l0,0C24.7961,20.588,20.5852,24.7934,20.5745,29.9987L20.5745,29.9987z"/>
			</g>
			<g>
				<path d="M27.6266,21.5422c0.335-0.3512,0.8389-0.4637,1.3094-0.4637c0.4865-0.0161,0.9796,0.063,1.4205,0.2747
					c0.268,0.1407,0.5241,0.3217,0.6956,0.5709c0.2358,0.2573,0.4463,0.5481,0.5307,0.8886
					c0.0335,0.1112,0.0644,0.2251,0.0482,0.3457c-0.3136,0.0832-0.6339,0.1569-0.9609,0.2266
					c0.0336,0.4301-0.1433,0.8482-0.3966,1.186c-0.13,0.1809-0.3029,0.3324-0.4611,0.4825c-0.2452,0.2922-0.3564,0.6687-0.4154,1.04
					c-0.0697,0.5293-0.0402,1.0695,0.0509,1.6002c0.2721-0.0537,0.5174,0.1032,0.7545,0.2104
					c0.9851,0.4758,1.9634,0.9757,2.9725,1.4139c0.1341,0.0563,0.2694,0.1086,0.4074,0.1501
					c0.067,0.0187,0.0939,0.0991,0.1246,0.1527c0.5187,0.1916,1.0199,0.4435,1.4407,0.8001
					c0.3312,0.272,0.6085,0.6151,0.7774,1.0105c0.1433,0.3191,0.2104,0.6741,0.2076,1.0267c0,0.7625-0.2975,1.497-0.7343,2.1188
					c-0.2694,0.3807-0.5992,0.7331-0.9985,0.9811c-0.1783,0.1005-0.3752,0.1997-0.5883,0.1943
					c-0.0067-0.0416-0.0026-0.0858,0.0255-0.1193c0.0978-0.1636,0.209-0.3203,0.3215-0.4704
					c-0.0937,0.0602-0.1969,0.1232-0.3095,0.1232c-0.055,0.0027-0.1287-0.0295-0.1287-0.0898
					c0.004-0.0804,0.0604-0.1527,0.1099-0.2131c-0.1971,0.0697-0.3807,0.1702-0.5871,0.2131
					c-0.0414,0.0093-0.0763-0.0093-0.1151-0.0161c-0.0041-0.0174-0.0202-0.0537-0.0255-0.0711
					c0.0604-0.0777,0.1381-0.1407,0.1997-0.2211c-0.0763-0.0295-0.1474-0.0751-0.2104-0.1287c0-0.0119-0.0054-0.0321-0.0081-0.0414
					c0.3377-0.1703,0.6406-0.4168,0.8242-0.7466c0.1864-0.3283,0.2506-0.7157,0.2078-1.0815
					c-0.0402,0.3498-0.2601,0.6622-0.5576,0.8524c-0.024-0.02-0.0456-0.0469-0.0696-0.0656
					c0.0937-0.1555,0.1446-0.3324,0.1446-0.5067c-0.0187,0.0014-0.063,0.0081-0.0817,0.0107
					c-0.0911-0.1661-0.1703-0.335-0.2747-0.4984c-0.2854-0.0657-0.583-0.1193-0.8793-0.1555
					c-0.2064-0.0242-0.4154-0.0483-0.6258-0.0174c-0.0523,0.0121-0.1246,0.0242-0.1462,0.0871
					c-0.0228,0.1313,0.0215,0.2653,0.0671,0.3819c0.1086,0.2854,0.2653,0.5535,0.4342,0.8054
					c0.0576,0.0965,0.1434,0.1755,0.1741,0.2948c0.043,0.1783-0.02,0.3672-0.1381,0.5067c-0.0549,0.0523-0.1246,0.1099-0.205,0.0937
					c-0.2841-0.0294-0.5616-0.0549-0.8443-0.0602c-0.1769,0-0.3619-0.0067-0.5348,0.0442c-0.0361,0.0845-0.0589,0.1729-0.063,0.264
					c-0.0119,0.3015-0.0026,0.6018,0.0134,0.9019c0.0402,0.4986,0.0871,1.0011,0.1569,1.5011c0.3552,0,0.721,0.0375,1.052,0.1836
					c0.1956,0.0858,0.3618,0.2371,0.4556,0.4275c-0.5012-0.0697-1.0199-0.0751-1.5239,0.0161
					c-0.4905,0.0885-0.9649,0.2668-1.3884,0.5267c-0.2452,0.1541-0.4757,0.3296-0.6687,0.5455
					c-0.0751-0.1127-0.1112-0.2547-0.0642-0.3874c0.0858-0.2774,0.2774-0.4984,0.4757-0.7009
					c-0.4247-0.0644-0.8617-0.0537-1.2933-0.0281c0.0349-0.2211,0.2614-0.3203,0.4504-0.394
					c0.4396-0.1515,0.914-0.2038,1.3831-0.2104c0.1662-0.0041,0.3336,0.0121,0.4998,0.0335
					c0.0108-0.5241-0.0549-1.0507-0.0965-1.5734c-0.0388-0.3619-0.0751-0.7278-0.1219-1.0923
					c-0.4732,0.0107-0.9462-0.0188-1.4167-0.0697c-0.1822-0.0295-0.3913-0.0295-0.544,0.0897
					c-0.2373,0.1729-0.3365,0.4651-0.4249,0.7331c-0.0349,0.0844-0.0483,0.1876-0.1206,0.248
					c-0.0751,0.0335-0.1394-0.0388-0.1648-0.0979c-0.0939-0.1957-0.1099-0.4101-0.1515-0.6218
					c-0.0549,0.1581-0.1099,0.3082-0.1313,0.4691c-0.0402,0.1983-0.0335,0.4047-0.0228,0.6004
					c-0.2413-0.1676-0.315-0.4718-0.3257-0.7533c-0.1286,0.2896-0.2492,0.571-0.3752,0.8605
					c-0.0576-0.39-0.1127-0.7934-0.0134-1.1834c0.0604-0.2547,0.201-0.4972,0.4316-0.6366
					c0.2439-0.1581,0.5428-0.1809,0.8201-0.2452c0.6018-0.0644,1.2089-0.0309,1.8119-0.0161
					c0.2252,0.0174,0.4477,0.0268,0.6687,0.0537c0.0443-0.1703,0.0336-0.3431,0.0336-0.516c0-0.3298-0.0336-0.6487-0.0618-0.9716
					c-0.2627-0.2238-0.4905-0.4865-0.745-0.7131c-0.4276-0.1326-0.8001-0.3899-1.1312-0.6794
					c-0.189-0.1634-0.3618-0.3417-0.5253-0.5253c-0.0375,0.0202-0.0817,0.0965-0.1286,0.0509
					c-0.3056-0.3203-0.5655-0.6875-0.725-1.0976c-0.1703-0.4382-0.2238-0.9154-0.1582-1.3803
					c0.079-0.5643,0.307-1.1057,0.6018-1.5936c0.2787-0.461,0.6285-0.8872,1.0118-1.2731c-0.1353-0.0509-0.2734-0.1541-0.2935-0.311
					c-0.024-0.2506,0.1408-0.4717,0.3056-0.6513c-0.3082,0.0469-0.6165,0.0885-0.9314,0.1099
					c-0.1353,0.0054-0.2734,0.0134-0.4021-0.0349c0.315-0.0885,0.6353-0.1501,0.9569-0.2104
					c0.1327-0.0242,0.2666-0.0469,0.398-0.0523c0.0067-0.0242,0.0188-0.0737,0.0214-0.0965c-0.0763,0-0.1514,0.0026-0.2237,0.0107
					c-0.4074,0.067-0.8042,0.1555-1.2022,0.2546c0,0.0188-0.0067,0.0657-0.0095,0.0871c-0.0119-0.0469-0.0442-0.1072-0.0054-0.1541
					c0.0644-0.0965,0.1757-0.1488,0.2721-0.201c0.3524-0.1688,0.729-0.2747,1.1016-0.3859
					c-0.126-0.2533-0.1046-0.5588,0.0174-0.8054c0.0469-0.1059,0.1193-0.1917,0.1755-0.2908
					C28.0406,22.2967,27.833,21.9187,27.6266,21.5422L27.6266,21.5422z"/>
				<path class="st4" d="M27.7552,21.5649c0.3042-0.2936,0.7519-0.3819,1.162-0.3819c0,0.189-0.0335,0.3792-0.0254,0.5735
					c-0.0134,0.189-0.0349,0.3779-0.0269,0.5683c-0.1836,0.0656-0.3631,0.1394-0.5119,0.2599c-0.0161,0-0.0388-0.0053-0.0497-0.0053
					C28.1252,22.2363,27.9428,21.9013,27.7552,21.5649L27.7552,21.5649z"/>
				<path class="st5" d="M29.0297,21.1856c0.1327-0.0242,0.2601,0.0027,0.3928,0.0095c0.5214,0.067,1.0588,0.2478,1.4272,0.6405
					c0.043,0.0336-0.004,0.0778-0.02,0.1099c-0.1769,0.2573-0.3298,0.5334-0.5227,0.7814
					c-0.2894-0.2949-0.7022-0.4544-1.1111-0.4383c-0.079,0-0.1567,0.0081-0.2345,0.0161
					C28.9801,21.9348,29.0217,21.5596,29.0297,21.1856L29.0297,21.1856z"/>
				<path class="st4" d="M30.9315,21.9657c0.3108,0.2922,0.5588,0.6794,0.603,1.1123c-0.3015,0.0683-0.5951,0.1569-0.8979,0.2024
					c-0.0442-0.1743-0.1313-0.3377-0.2478-0.4691C30.5696,22.5285,30.7518,22.2471,30.9315,21.9657L30.9315,21.9657z"/>
				<path class="st6" d="M29.7052,22.8313c0.193,0.0965,0.3645,0.2466,0.4356,0.449c0.1046,0.2934,0.0228,0.6232-0.1501,0.8805
					c-0.1232,0.1876-0.3015,0.3552-0.5279,0.4021c-0.1166,0.0228-0.2668,0.0616-0.3484-0.0469
					c-0.0618-0.0871-0.102-0.2199-0.0281-0.3163c0.13-0.1634,0.3792-0.1916,0.4918-0.3766
					C29.7628,23.5323,29.7548,23.1637,29.7052,22.8313L29.7052,22.8313z"/>
				<path class="st7" d="M28.6733,23.4988c0.1219-0.0683,0.2801,0.0414,0.2653,0.1795c-0.0026,0.1313-0.1728,0.2212-0.2813,0.142
					C28.5339,23.7562,28.5432,23.5498,28.6733,23.4988L28.6733,23.4988z"/>
				<path class="st4" d="M28.184,24.4772c0.0563-0.0241,0.0992,0.0388,0.1462,0.0616c0.1165,0.0965,0.2881,0.1783,0.3069,0.3457
					c-0.0349,0.0911-0.0737,0.1796-0.1394,0.2506c-0.1179,0.0845-0.2627,0.1394-0.4061,0.1622
					c-0.1488-0.02-0.2666-0.1836-0.2183-0.331C27.9214,24.776,28.0406,24.6098,28.184,24.4772L28.184,24.4772z"/>
				<path class="st6" d="M28.1117,26.1952c0.2439-0.4154,0.5253-0.8108,0.8389-1.1699c0.0295,0.0121,0.0537,0.024,0.0858,0.0388
					c-0.1688,0.6218-0.465,1.2034-0.524,1.8494c-0.0523,0.4597,0.0751,0.9302,0.3108,1.3256
					c-0.1367-0.0067-0.2666-0.0215-0.402-0.0295c0.0361,0.1393,0.0858,0.2747,0.1353,0.4061
					c-0.1381-0.0081-0.2761-0.0295-0.4114-0.0416c0.0549,0.1166,0.1232,0.2264,0.1796,0.3445
					c-0.1086-0.0281-0.2131-0.055-0.3231-0.0778c0.0362,0.1247,0.0711,0.2547,0.0751,0.386
					c-0.0147,0.0107-0.0483,0.0242-0.0683,0.0362c-0.0711-0.0469-0.1434-0.102-0.2145-0.1488
					c-0.008,0.1648-0.0281,0.3229-0.0683,0.4798c-0.0804-0.1541-0.1581-0.3123-0.209-0.4825
					c-0.1527-0.4825-0.1274-1.0079-0.0093-1.4956C27.6373,27.1133,27.8517,26.6375,28.1117,26.1952L28.1117,26.1952z"/>
				<path class="st6" d="M29.409,27.833c0.0723-0.0671,0.185-0.0523,0.2747-0.0349c0.1862,0.0428,0.3578,0.142,0.5293,0.2251
					c1.0267,0.496,2.0438,1.0213,3.0986,1.4635c-0.2064-0.0642-0.4142-0.1139-0.6219-0.1662
					c0.0899,0.0939,0.1796,0.1877,0.2734,0.2828c-0.3203-0.1005-0.6379-0.1997-0.9568-0.2962
					c-0.1743-0.0563-0.3364-0.1353-0.5079-0.2118c-0.2292-0.106-0.4651-0.2104-0.6996-0.3231
					c-0.1783-0.0911-0.3847-0.1098-0.5843-0.087c-0.1581,0.0187-0.2962,0.1474-0.3189,0.3015
					c-0.0416,0.2613,0.0644,0.5574,0.2989,0.6875c0.2144,0.1326,0.4289,0.2653,0.6674,0.3564
					c0.272,0.2064,0.5186,0.4558,0.7666,0.6782c0,0.0187,0,0.0563,0,0.071c0.2466,0.189,0.5093,0.3526,0.7464,0.5469
					c0.4048,0.3269,0.7921,0.6969,1.0548,1.1511c0.0751,0.1448,0.1755,0.2963,0.1286,0.4637
					c-0.0696-0.079-0.1086-0.1755-0.1688-0.2627c-0.4235-0.7036-1.0306-1.3054-1.7703-1.6699
					c-0.2601-0.1313-0.5415-0.2292-0.8256-0.3001c-0.4208-0.1006-0.8229-0.307-1.1097-0.6353
					c-0.3631-0.4102-0.5214-0.9676-0.5107-1.5051c0.0067-0.1755,0.0121-0.3672,0.1073-0.5214
					C29.3179,27.975,29.3434,27.8906,29.409,27.833L29.409,27.833z"/>
				<path class="st7" d="M30.1863,28.7952c0.1581-0.0482,0.3243-0.0147,0.4825,0.0322c0.3913,0.1795,0.7773,0.3685,1.1739,0.5279
					c0.4383,0.1462,0.8739,0.2747,1.3067,0.4155c0.1903,0.1969,0.3685,0.3994,0.5455,0.603
					c-0.3726-0.1702-0.7398-0.3564-1.1231-0.5012c-0.0871-0.0402-0.1809-0.0349-0.2761-0.0402
					c0.181,0.1353,0.3417,0.2882,0.4758,0.4677c0.0416,0.059,0.0951,0.1234,0.122,0.1971
					c-0.3565-0.1153-0.7197-0.2038-1.0923-0.2627c-0.0027,0.0375-0.0509,0.0898-0.0054,0.1139
					c0.1541,0.1099,0.3095,0.2104,0.4435,0.3417c-0.1755-0.0188-0.3484-0.0349-0.5227-0.0321
					c-0.2385-0.2319-0.4851-0.457-0.7411-0.6675c-0.083-0.0737-0.2024-0.0925-0.2922-0.15
					c-0.1783-0.0939-0.3471-0.1971-0.5119-0.3029c-0.1434-0.1315-0.2064-0.3351-0.1783-0.5255
					C30.0068,28.9104,30.0871,28.8247,30.1863,28.7952L30.1863,28.7952z"/>
				<path class="st4" d="M33.0114,29.5162c0.1876,0.0376,0.3672,0.1018,0.5495,0.1622c0.4851,0.1648,0.9542,0.3859,1.367,0.6955
					c0.39,0.2908,0.721,0.6675,0.9114,1.1124c0.1326,0.2948,0.1849,0.6218,0.2009,0.9488
					c-0.0161,0.8429-0.3659,1.6618-0.8992,2.3119c-0.244,0.2962-0.516,0.5655-0.8498,0.7545
					c-0.1032,0.0616-0.2157,0.1151-0.3364,0.1313c0.1702-0.2721,0.3699-0.5241,0.5951-0.7586
					c-0.0027-0.0161-0.0081-0.0469-0.0081-0.0616c-0.0321,0.004-0.063-0.0107-0.0884,0.0067
					c-0.1943,0.1407-0.3779,0.3417-0.6285,0.3645c0.0589-0.1353,0.1595-0.2425,0.2747-0.3324
					c-0.0027-0.0242-0.0054-0.0469-0.0054-0.0683c-0.1099-0.0188-0.1957,0.0604-0.2922,0.0965
					c-0.181,0.0737-0.3579,0.1689-0.5455,0.1984c0.055-0.0509,0.1139-0.0979,0.1702-0.1582
					c0.0309-0.0268,0.0081-0.0683,0.0095-0.1032c-0.0497-0.0147-0.1046-0.0307-0.1595-0.0442c0-0.0081,0-0.0335,0-0.0416
					c0.3806-0.2171,0.6982-0.5614,0.8415-0.9783c0.1703-0.4636,0.1341-0.9782-0.0066-1.4473c-0.0322,0-0.0657,0-0.1046,0
					c0.0951,0.4221,0.0026,0.8979-0.3122,1.202c0.02-0.1581,0.0549-0.3122,0.0347-0.4717c-0.0522-0.4101-0.2854-0.768-0.544-1.0708
					c-0.4075-0.4677-0.8993-0.8617-1.4207-1.1994c0.2252-0.0188,0.4396,0.0349,0.6594,0.0535
					c-0.0469-0.1446-0.1595-0.2465-0.2747-0.3484c0.0161-0.0214,0.0375-0.0349,0.0602-0.0521
					c0.3056,0.0709,0.6004,0.1607,0.8979,0.2439c-0.1018-0.2306-0.2546-0.4275-0.414-0.6218
					c0.0402,0.0133,0.0804,0.0214,0.1193,0.0361c0.3538,0.1582,0.7048,0.3377,1.0641,0.5026
					c0.0751,0.0269,0.0924-0.0737,0.0414-0.1139c-0.1983-0.2225-0.4007-0.4368-0.5963-0.6606
					C33.2299,29.6918,33.1025,29.6247,33.0114,29.5162L33.0114,29.5162z"/>
				<path class="st6" d="M29.555,30.3954c0.2266,0.3215,0.4758,0.6272,0.7733,0.8778c0.0939,0.0723,0.185,0.1488,0.2761,0.2264
					c-0.0188,0.0242-0.0375,0.055-0.0537,0.0778c-0.1527-0.0965-0.3377-0.1246-0.5079-0.0832
					c-0.1676,0.0215-0.3229,0.0911-0.4758,0.1462C29.3769,31.2532,29.4439,30.7974,29.555,30.3954L29.555,30.3954z"/>
				<path class="st7" d="M30.4638,32.8894c0.3698,0.1943,0.67,0.5374,0.7894,0.9476c0.0294,0.1179,0.0602,0.2627-0.0215,0.3685
					c-0.067,0.0509-0.1474,0.0576-0.2251,0.0616c-0.1729,0.0067-0.3458-0.0026-0.5146-0.0388
					C30.4812,33.7806,30.4638,33.3357,30.4638,32.8894L30.4638,32.8894z"/>
			</g>
		</g>
	</g>
</g>
</svg>
