<?xml version="1.0" encoding="utf-8"?>
<!-- Generator: Adobe Illustrator 21.0.2, SVG Export Plug-In . SVG Version: 6.00 Build 0)  -->
<svg version="1.1" id="Layer_1" xmlns="http://www.w3.org/2000/svg" xmlns:xlink="http://www.w3.org/1999/xlink" x="0px" y="0px"
	 viewBox="0 0 311.4896 311.1504" style="enable-background:new 0 0 311.4896 311.1504;" xml:space="preserve">
<style type="text/css">
	.st0{fill:#01247D;}
	.st1{fill:#FFFFFF;}
	.st2{fill:#CF142B;}
</style>
<g>
	<g>
		<path class="st0" d="M12.2477,95.8124c-1.7863,4.2601-3.3847,8.6391-4.7818,13.0799h24.4255L12.2477,95.8124z"/>
		<path class="st0" d="M299.49,215.5536c1.8105-4.3441,3.4438-8.7778,4.8615-13.3091h-24.8318L299.49,215.5536z"/>
		<path class="st0" d="M45.503,265.1625c17.577,17.7016,39.3479,31.1985,63.7314,38.8569v-81.3419L45.503,265.1625z"/>
		<path class="st0" d="M109.2344,7.131c-24.4568,7.6797-46.2939,21.2322-63.8873,39.017l63.8873,42.596V7.131z"/>
		<path class="st0" d="M304.3514,108.8923c-1.4034-4.4409-2.999-8.8198-4.781-13.0799l-19.6373,13.0799H304.3514z"/>
		<path class="st0" d="M202.583,304.0193c24.3842-7.6584,46.1615-21.1553,63.7279-38.8569l-63.7279-42.485V304.0193z"/>
		<path class="st0" d="M7.4659,202.2445c1.4177,4.5312,3.0446,8.965,4.8615,13.3091l19.9711-13.3091H7.4659z"/>
		<path class="st0" d="M266.4745,46.148c-17.6012-17.7848-39.4412-31.3373-63.8916-39.017v81.613L266.4745,46.148z"/>
		<path class="st1" d="M309.0535,182.7979H183.1371V308.725c6.62-1.1814,13.1283-2.7243,19.4459-4.7056v-81.3419l63.7279,42.485
			c7.2107-7.2556,13.6984-15.2342,19.3662-23.8106l-58.7896-39.1074h36.9496l32.039,21.3155
			c1.2646-2.6339,2.478-5.3027,3.6139-8.0064l-19.9704-13.3091h24.8318C306.3356,195.9198,307.8892,189.4357,309.0535,182.7979z"/>
		<path class="st1" d="M109.2344,7.131v81.613L45.3471,46.148c-7.0164,7.0819-13.3511,14.8314-18.8972,23.1573l59.5332,39.5871
			H49.03L16.216,87.0766c-1.407,2.8631-2.7314,5.7681-3.9683,8.7358l19.6437,13.0799H7.4659
			c-1.9877,6.3247-3.5306,12.8159-4.7049,19.4601h125.9299V2.4183C122.0467,3.5933,115.552,5.1433,109.2344,7.131z"/>
		<path class="st1" d="M2.761,182.7979c1.1743,6.6378,2.7172,13.1219,4.7049,19.4466h24.8326l-19.9711,13.3091
			c3.8018,9.0903,8.4547,17.7151,13.8165,25.8396l58.8386-39.1487h24.2518v8.4441l-70.6532,46.9885
			c2.2347,2.572,4.5312,5.0735,6.9218,7.4854l63.7314-42.485v81.3419c6.3176,1.9813,12.8123,3.5242,19.4566,4.7056V182.7979H2.761z"
			/>
		<path class="st1" d="M304.3514,108.8923h-24.4184l19.6373-13.0799c-3.9064-9.3756-8.6982-18.2851-14.2827-26.6324
			l-59.7176,39.7123H202.583v-9.2781l70.1949-46.6832c-2.0468-2.3073-4.1284-4.5868-6.3033-6.783L202.583,88.744V7.131
			c-6.3176-1.9877-12.8259-3.5377-19.4459-4.7127v125.9342h125.9164C307.8892,121.7082,306.3356,115.217,304.3514,108.8923z"/>
		<path class="st2" d="M309.0535,128.3524H183.1371V2.4183C174.2831,0.8547,165.1922,0,155.9105,0
			c-9.2917,0-18.3897,0.8547-27.2195,2.4183v125.9342H2.761c-1.5707,8.8469-2.4254,17.9442-2.4254,27.2231
			c0,9.2845,0.8547,18.3755,2.4254,27.2224h125.9299V308.725c8.8298,1.5706,17.9279,2.4254,27.2195,2.4254
			c9.2817,0,18.3727-0.8547,27.2266-2.4254V182.7979h125.9164c1.5778-8.8469,2.4361-17.9378,2.4361-27.2224
			C311.4896,146.2967,310.6313,137.1993,309.0535,128.3524z"/>
		<path class="st2" d="M226.8875,202.2445l58.7896,39.1074c3.7704-5.6849,7.183-11.6274,10.1991-17.7919l-32.039-21.3155H226.8875z"
			/>
		<path class="st2" d="M202.583,108.8923h22.9872L285.2878,69.18c-3.8153-5.6991-8.0028-11.1128-12.5099-16.249L202.583,99.6142
			V108.8923z"/>
		<path class="st2" d="M109.2344,202.2445H84.9826l-58.8386,39.1487c3.7883,5.6991,7.9437,11.1413,12.4373,16.2839l70.6532-46.9885
			V202.2445z"/>
		<path class="st2" d="M85.9832,108.8923L26.4499,69.3053c-3.7911,5.6714-7.2072,11.6132-10.2339,17.7713l32.814,21.8158H85.9832z"
			/>
	</g>
</g>
</svg>
