<?xml version="1.0" encoding="utf-8"?>
<!-- Generator: Adobe Illustrator 21.0.2, SVG Export Plug-In . SVG Version: 6.00 Build 0)  -->
<svg version="1.1" id="Layer_3" xmlns="http://www.w3.org/2000/svg" xmlns:xlink="http://www.w3.org/1999/xlink" x="0px" y="0px"
	 viewBox="0 0 320 320" style="enable-background:new 0 0 320 320;" xml:space="preserve">
<style type="text/css">
	.st0{fill:#FFFFFF;}
	.st1{fill:#BF0A30;}
	.st2{fill:#002868;}
</style>
<g>
	<g>
		<g>
			<path class="st0" d="M4.3,196.9h311.4c1.9-8,3.2-16.2,3.8-24.6H0.5C1.2,180.7,2.4,188.9,4.3,196.9z"/>
			<path class="st0" d="M25.2,246.2h269.6c5-7.8,9.3-16,12.9-24.6H12.3C15.9,230.2,20.2,238.4,25.2,246.2z"/>
			<path class="st0" d="M74.8,295.4h170.5c11-7,21.2-15.2,30.2-24.6H44.6C53.6,280.2,63.7,288.4,74.8,295.4z"/>
			<path class="st0" d="M245.3,24.6H74.8c-11,6.9-21.2,15.2-30.2,24.6h230.8C266.4,39.9,256.3,31.6,245.3,24.6z"/>
			<g>
				<path class="st1" d="M12.3,221.6h295.5c3.3-7.9,5.9-16.1,7.9-24.6H4.3C6.3,205.4,9,213.6,12.3,221.6z"/>
				<path class="st1" d="M44.6,270.8h230.8c7.2-7.5,13.7-15.8,19.4-24.6H25.2C30.9,255,37.4,263.3,44.6,270.8z"/>
				<path class="st1" d="M160,320c31.3,0,60.6-9.1,85.2-24.6H74.8C99.5,311,128.7,320,160,320z"/>
				<path class="st1" d="M4.3,123.1h311.4c-2-8.5-4.7-16.7-7.9-24.6H12.3C9,106.4,6.3,114.6,4.3,123.1z"/>
				<path class="st1" d="M0,160c0,4.1,0.2,8.2,0.5,12.3h319c0.3-4.1,0.5-8.2,0.5-12.3c0-4.2-0.2-8.2-0.5-12.3H0.5
					C0.2,151.8,0,155.9,0,160z"/>
				<path class="st1" d="M44.6,49.2C37.4,56.8,30.9,65,25.2,73.9h269.6c-5.7-8.8-12.2-17.1-19.4-24.6H44.6z"/>
				<path class="st1" d="M160,0c-31.3,0-60.6,9-85.3,24.6h170.5C220.6,9,191.4,0,160,0z"/>
			</g>
			<path class="st0" d="M0.5,147.7h319c-0.6-8.4-1.9-16.6-3.8-24.6H4.3C2.4,131.1,1.2,139.3,0.5,147.7z"/>
			<path class="st0" d="M12.3,98.5h295.5c-3.6-8.6-8-16.8-12.9-24.6H25.2C20.2,81.6,15.9,89.8,12.3,98.5z"/>
		</g>
		<g>
			<path class="st2" d="M159.9,0C71.6,0,0,71.7,0,160c0,4.2,0.2,8.4,0.5,12.5h159.4V0z"/>
			<g>
				<path class="st0" d="M9.8,104.9c-0.2,0.6-0.4,1.2-0.6,1.8h0L9.8,104.9z"/>
				<path class="st0" d="M8,110c-0.5,1.7-1.1,3.4-1.6,5.2L8,110L8,110z"/>
				<polygon class="st0" points="15.7,163.3 11,159.8 6.3,163.3 8.1,157.7 3.3,154.3 9.2,154.3 11,148.7 12.8,154.3 18.6,154.3 
					13.9,157.7 				"/>
				<polygon class="st0" points="37.2,139.3 32.4,135.8 27.7,139.3 29.5,133.7 24.8,130.3 30.6,130.3 32.4,124.7 34.2,130.3 
					40.1,130.3 35.3,133.7 				"/>
				<polygon class="st0" points="35.8,84.9 37.6,90.5 32.9,87 28.1,90.5 29.9,84.9 25.2,81.5 31.1,81.5 32.9,75.9 34.7,81.5 
					40.5,81.5 				"/>
				<polygon class="st0" points="59.5,163.3 54.8,159.8 50,163.3 51.8,157.7 47.1,154.3 52.9,154.3 54.8,148.7 56.6,154.3 
					62.4,154.3 57.7,157.7 				"/>
				<polygon class="st0" points="59.8,108.5 57.7,110.1 59.5,115.6 54.8,112.2 50,115.6 51.8,110.1 49.7,108.5 47.1,106.6 
					52.9,106.6 54.8,101.1 56.6,106.6 62.4,106.6 				"/>
				<polygon class="st0" points="57.7,60.1 59.5,65.7 54.8,62.3 50,65.7 51.8,60.1 47.1,56.7 52.9,56.7 54.8,51.1 56.6,56.7 
					62.4,56.7 				"/>
				<polygon class="st0" points="80.9,141 76.2,137.6 71.5,141 73.3,135.4 68.5,132 74.4,132 76.2,126.4 78,132 83.8,132 
					79.1,135.4 				"/>
				<polygon class="st0" points="79.6,86.7 81.4,92.2 76.6,88.8 71.9,92.2 73.7,86.7 69,83.2 74.8,83.2 76.6,77.7 78.4,83.2 
					84.3,83.2 				"/>
				<polygon class="st0" points="80,37.3 81.8,42.8 77.1,39.4 72.3,42.8 74.1,37.3 69.4,33.8 75.2,33.8 77.1,28.3 78.8,33.8 
					84.7,33.8 				"/>
				<polygon class="st0" points="103.2,163.3 98.5,159.8 93.8,163.3 95.6,157.7 90.8,154.3 96.7,154.3 98.5,148.7 100.3,154.3 
					106.1,154.3 101.4,157.7 				"/>
				<polygon class="st0" points="103.5,108.5 101.4,110.1 103.2,115.6 98.5,112.2 93.8,115.6 95.6,110.1 93.5,108.5 90.8,106.6 
					96.7,106.6 98.5,101.1 100.3,106.6 106.1,106.6 				"/>
				<polygon class="st0" points="101.4,60.1 103.2,65.7 98.5,62.3 93.8,65.7 95.6,60.1 90.8,56.7 96.7,56.7 98.5,51.1 100.3,56.7 
					106.1,56.7 				"/>
				<polygon class="st0" points="124.7,141 119.9,137.6 115.2,141 117,135.4 112.3,132 118.1,132 119.9,126.4 121.7,132 127.6,132 
					122.9,135.4 				"/>
				<polygon class="st0" points="123.3,86.7 125.1,92.2 120.4,88.8 115.6,92.2 117.4,86.7 112.7,83.2 118.6,83.2 120.4,77.7 
					122.2,83.2 128,83.2 				"/>
				<polygon class="st0" points="123.7,37.3 125.5,42.8 120.8,39.4 116.1,42.8 117.9,37.3 113.2,33.8 119,33.8 120.8,28.3 
					122.6,33.8 128.5,33.8 				"/>
				<polygon class="st0" points="147,163.3 142.3,159.8 137.5,163.3 139.3,157.7 134.6,154.3 140.4,154.3 142.3,148.7 144,154.3 
					149.9,154.3 145.2,157.7 				"/>
				<polygon class="st0" points="147.3,108.5 145.2,110.1 147,115.6 142.3,112.2 137.5,115.6 139.3,110.1 137.2,108.5 134.6,106.6 
					140.4,106.6 142.3,101.1 144,106.6 149.9,106.6 				"/>
				<polygon class="st0" points="145.2,60.1 147,65.7 142.3,62.3 137.5,65.7 139.3,60.1 134.6,56.7 140.4,56.7 142.3,51.1 144,56.7 
					149.9,56.7 				"/>
				<polygon class="st0" points="145.2,11.3 147,16.9 142.3,13.4 137.5,16.9 139.3,11.3 134.6,7.9 140.4,7.9 142.3,2.3 144,7.9 
					149.9,7.9 				"/>
				<path class="st0" d="M98.5,13.4l4.7,3.4l-1.8-5.6l0.7-0.5c-2.5,1-4.9,2-7.4,3.1l-1,3L98.5,13.4z"/>
				<polygon class="st0" points="98.5,51.1 96.7,56.7 90.8,56.7 95.6,60.1 93.8,65.7 98.5,62.3 103.2,65.7 101.4,60.1 106.1,56.7 
					100.3,56.7 				"/>
				<polygon class="st0" points="98.5,101.1 96.7,106.6 90.8,106.6 93.5,108.5 95.6,110.1 93.8,115.6 98.5,112.2 103.2,115.6 
					101.4,110.1 103.5,108.5 106.1,106.6 100.3,106.6 				"/>
				<polygon class="st0" points="100.3,154.3 98.5,148.7 96.7,154.3 90.8,154.3 95.6,157.7 93.8,163.3 98.5,159.8 103.2,163.3 
					101.4,157.7 106.1,154.3 				"/>
				<polygon class="st0" points="54.8,51.1 52.9,56.7 47.1,56.7 51.8,60.1 50,65.7 54.8,62.3 59.5,65.7 57.7,60.1 62.4,56.7 
					56.6,56.7 				"/>
				<polygon class="st0" points="54.8,101.1 52.9,106.6 47.1,106.6 49.7,108.5 51.8,110.1 50,115.6 54.8,112.2 59.5,115.6 
					57.7,110.1 59.8,108.5 62.4,106.6 56.6,106.6 				"/>
				<polygon class="st0" points="56.6,154.3 54.8,148.7 52.9,154.3 47.1,154.3 51.8,157.7 50,163.3 54.8,159.8 59.5,163.3 
					57.7,157.7 62.4,154.3 				"/>
				<path class="st0" d="M6.3,115.6L6.3,115.6c0.1-0.2,0.1-0.3,0.2-0.5L6.3,115.6z"/>
				<path class="st0" d="M11,101.1l-1.3,3.8c0.4-1.2,0.9-2.3,1.4-3.4L11,101.1z"/>
				<path class="st0" d="M15.7,115.6l-1.8-5.6l2.1-1.5l2.6-1.9h-5.9l-1.7-5.2c-0.5,1.1-0.9,2.3-1.4,3.4l-0.6,1.8h0
					c-0.4,1.1-0.8,2.2-1.1,3.4l0.1,0l-1.7,5.1c0,0.2-0.1,0.3-0.1,0.4l4.7-3.4L15.7,115.6z"/>
				<polygon class="st0" points="12.8,154.3 11,148.7 9.2,154.3 3.3,154.3 8.1,157.7 6.3,163.3 11,159.8 15.7,163.3 13.9,157.7 
					18.6,154.3 				"/>
				<polygon class="st0" points="120.4,77.7 118.6,83.2 112.7,83.2 117.4,86.7 115.6,92.2 120.4,88.8 125.1,92.2 123.3,86.7 
					128,83.2 122.2,83.2 				"/>
				<polygon class="st0" points="121.7,132 119.9,126.4 118.1,132 112.3,132 117,135.4 115.2,141 119.9,137.6 124.7,141 
					122.9,135.4 127.6,132 				"/>
				<polygon class="st0" points="76.6,77.7 74.8,83.2 69,83.2 73.7,86.7 71.9,92.2 76.6,88.8 81.4,92.2 79.6,86.7 84.3,83.2 
					78.4,83.2 				"/>
				<polygon class="st0" points="78,132 76.2,126.4 74.4,132 68.5,132 73.3,135.4 71.5,141 76.2,137.6 80.9,141 79.1,135.4 
					83.8,132 				"/>
				<polygon class="st0" points="32.9,75.9 31.1,81.5 25.2,81.5 29.9,84.9 28.1,90.5 32.9,87 37.6,90.5 35.8,84.9 40.5,81.5 
					34.7,81.5 				"/>
				<polygon class="st0" points="34.2,130.3 32.4,124.7 30.6,130.3 24.8,130.3 29.5,133.7 27.7,139.3 32.4,135.8 37.2,139.3 
					35.3,133.7 40.1,130.3 				"/>
				<polygon class="st0" points="142.3,51.1 140.4,56.7 134.6,56.7 139.3,60.1 137.5,65.7 142.3,62.3 147,65.7 145.2,60.1 
					149.9,56.7 144,56.7 				"/>
				<polygon class="st0" points="77.1,28.3 75.2,33.8 69.4,33.8 74.1,37.3 72.3,42.8 77.1,39.4 81.8,42.8 80,37.3 84.7,33.8 
					78.8,33.8 				"/>
				<polygon class="st0" points="120.8,28.3 119,33.8 113.2,33.8 117.9,37.3 116.1,42.8 120.8,39.4 125.5,42.8 123.7,37.3 
					128.5,33.8 122.6,33.8 				"/>
				<polygon class="st0" points="142.3,2.3 140.4,7.9 134.6,7.9 139.3,11.3 137.5,16.9 142.3,13.4 147,16.9 145.2,11.3 149.9,7.9 
					144,7.9 				"/>
				<polygon class="st0" points="142.3,101.1 140.4,106.6 134.6,106.6 137.2,108.5 139.3,110.1 137.5,115.6 142.3,112.2 147,115.6 
					145.2,110.1 147.3,108.5 149.9,106.6 144,106.6 				"/>
				<polygon class="st0" points="144,154.3 142.3,148.7 140.4,154.3 134.6,154.3 139.3,157.7 137.5,163.3 142.3,159.8 147,163.3 
					145.2,157.7 149.9,154.3 				"/>
			</g>
		</g>
	</g>
</g>
</svg>
