<?xml version="1.0" encoding="utf-8"?>
<!-- Generator: Adobe Illustrator 21.1.0, SVG Export Plug-In . SVG Version: 6.00 Build 0)  -->
<svg version="1.1" id="Layer_1" xmlns="http://www.w3.org/2000/svg" xmlns:xlink="http://www.w3.org/1999/xlink" x="0px" y="0px"
	 viewBox="0 0 60 60" style="enable-background:new 0 0 60 60;" xml:space="preserve">
<style type="text/css">
	.st0{clip-path:url(#SVGID_2_);}
	.st1{fill:#1EB53A;}
	.st2{fill:#0099B5;}
	.st3{fill:#CE1126;}
	.st4{fill:#FFFFFF;}
</style>
<g>
	<defs>
		<circle id="SVGID_1_" cx="30" cy="30" r="30"/>
	</defs>
	<clipPath id="SVGID_2_">
		<use xlink:href="#SVGID_1_"  style="overflow:visible;"/>
	</clipPath>
	<g class="st0">
		<rect y="40.8" class="st1" width="120" height="19.2"/>
		<rect class="st2" width="120" height="19.2"/>
		<g>
			<rect y="39.6" class="st3" width="120" height="1.2"/>
			<rect y="19.2" class="st3" width="120" height="1.2"/>
		</g>
		<path class="st4" d="M12,9.6c0-3.5674,2.5951-6.527,6-7.0986C17.6096,2.4359,17.2091,2.4,16.8,2.4c-3.9764,0-7.2,3.2235-7.2,7.2
			s3.2235,7.2,7.2,7.2c0.4091,0,0.8096-0.0359,1.2-0.1014C14.5951,16.127,12,13.1674,12,9.6z"/>
		<polygon class="st4" points="27.57,14.915 27.2467,13.92 26.9234,14.915 25.8772,14.915 26.7236,15.53 26.4003,16.525 
			27.2467,15.91 28.0931,16.525 27.7698,15.53 28.6162,14.915 		"/>
		<polygon class="st4" points="27.2467,8.16 26.9234,9.155 25.8772,9.155 26.7236,9.77 26.4003,10.765 27.2467,10.15 
			28.0931,10.765 27.7698,9.77 28.6162,9.155 27.57,9.155 		"/>
		<polygon class="st4" points="22.44,14.915 22.1167,13.92 21.7934,14.915 20.7472,14.915 21.5936,15.53 21.2703,16.525 
			22.1167,15.91 22.9631,16.525 22.6398,15.53 23.4862,14.915 		"/>
		<polygon class="st4" points="32.9633,14.915 32.64,13.92 32.3167,14.915 31.2705,14.915 32.1169,15.53 31.7936,16.525 
			32.64,15.91 33.4864,16.525 33.1631,15.53 34.0095,14.915 		"/>
		<polygon class="st4" points="32.64,8.16 32.3167,9.155 31.2705,9.155 32.1169,9.77 31.7936,10.765 32.64,10.15 33.4864,10.765 
			33.1631,9.77 34.0095,9.155 32.9633,9.155 		"/>
		<polygon class="st4" points="32.64,2.4 32.3167,3.395 31.2705,3.395 32.1169,4.01 31.7936,5.005 32.64,4.39 33.4864,5.005 
			33.1631,4.01 34.0095,3.395 32.9633,3.395 		"/>
		<polygon class="st4" points="38.4,2.4 38.0767,3.395 37.0305,3.395 37.8769,4.01 37.5536,5.005 38.4,4.39 39.2464,5.005 
			38.9231,4.01 39.7695,3.395 38.7233,3.395 		"/>
		<polygon class="st4" points="38.7233,14.915 38.4,13.92 38.0767,14.915 37.0305,14.915 37.8769,15.53 37.5536,16.525 38.4,15.91 
			39.2464,16.525 38.9231,15.53 39.7695,14.915 		"/>
		<polygon class="st4" points="37.8769,9.77 37.5536,10.765 38.4,10.15 39.2464,10.765 38.9231,9.77 39.7695,9.155 38.7233,9.155 
			38.4,8.16 38.0767,9.155 37.0305,9.155 		"/>
		<polygon class="st4" points="44.4008,2.4 44.0775,3.395 43.0313,3.395 43.8777,4.01 43.5544,5.005 44.4008,4.39 45.2472,5.005 
			44.9239,4.01 45.7703,3.395 44.7241,3.395 		"/>
		<polygon class="st4" points="44.7241,14.915 44.4008,13.92 44.0775,14.915 43.0313,14.915 43.8777,15.53 43.5544,16.525 
			44.4008,15.91 45.2472,16.525 44.9239,15.53 45.7703,14.915 		"/>
		<polygon class="st4" points="43.8777,9.77 43.5544,10.765 44.4008,10.15 45.2472,10.765 44.9239,9.77 45.7703,9.155 
			44.7241,9.155 44.4008,8.16 44.0775,9.155 43.0313,9.155 		"/>
	</g>
</g>
</svg>
