<?xml version="1.0" encoding="utf-8"?>
<!-- Generator: Adobe Illustrator 22.0.0, SVG Export Plug-In . SVG Version: 6.00 Build 0)  -->
<svg version="1.1" id="Layer_1" xmlns="http://www.w3.org/2000/svg" xmlns:xlink="http://www.w3.org/1999/xlink" x="0px" y="0px"
	 viewBox="0 0 60 60" style="enable-background:new 0 0 60 60;" xml:space="preserve">
<style type="text/css">
	.st0{clip-path:url(#SVGID_2_);}
	.st1{fill:#FFFFFF;}
	.st2{fill:#FFE000;}
	.st3{fill:#FFFFFF;stroke:#000000;stroke-width:0.3846;stroke-linecap:round;stroke-linejoin:round;}
	.st4{fill:#FFE000;stroke:#000000;stroke-width:0.3846;stroke-linecap:round;stroke-linejoin:round;}
	.st5{fill:#FF0000;stroke:#000000;stroke-width:0.48;stroke-linecap:round;stroke-linejoin:round;}
	.st6{fill:none;stroke:#000000;stroke-width:0.3846;stroke-linecap:round;stroke-linejoin:round;}
	.st7{fill:#CCCCCC;stroke:#000000;stroke-width:0.3846;stroke-linejoin:round;}
	.st8{fill:none;stroke:#000000;stroke-width:0.3846;stroke-linejoin:round;}
	.st9{fill:#FFFFFF;stroke:#000000;stroke-width:0.3846;stroke-linejoin:round;}
	.st10{fill:#FFE000;stroke:#000000;stroke-width:0.3846;stroke-linejoin:round;}
	.st11{fill:#FA0204;stroke:#000000;stroke-width:0.3846;stroke-linejoin:round;}
</style>
<g>
	<defs>
		<circle id="SVGID_1_" cx="30" cy="30" r="30"/>
	</defs>
	<clipPath id="SVGID_2_">
		<use xlink:href="#SVGID_1_"  style="overflow:visible;"/>
	</clipPath>
	<g class="st0">
		<rect class="st1" width="60" height="60"/>
		<rect class="st2" width="30" height="60"/>
		<path class="st3" d="M42.7457,23.767l0.3866,0.0922l0.6159,0.1001l0.2822,0.031l-0.0498,1.198c0,0-0.0674,0.7963-0.1845,1.1751
			c-0.0868,0.2808-0.3787,0.7963-0.3787,0.7963l-0.1845,0.2816l-1.0877-0.942c0,0,0.1854-0.2627,0.2525-0.4079
			c0.0842-0.1821,0.1845-0.573,0.1845-0.573l0.1068-0.6215l0.0583-0.7866L42.7457,23.767z M41.3779,27.4025l0.9906,0.8643
			c0,0-0.2003,0.1783-0.3205,0.2331c-0.2358,0.1075-0.4984,0.1804-0.7575,0.1748c-0.1855-0.004-0.3677-0.0713-0.5364-0.1485
			c-0.3773-0.1724-0.7928-0.3535-1.036-0.6896c-0.0861-0.1189-0.1201-0.2777-0.1173-0.4245
			c0.0031-0.1664,0.1507-0.4759,0.1507-0.4759s0.0574,0.2073,0.1232,0.2885c0.1083,0.1337,0.2668,0.2233,0.4223,0.297
			c0.1163,0.0552,0.2435,0.0965,0.372,0.1041c0.1668,0.0098,0.3399-0.0162,0.4953-0.0777
			C41.2444,27.5164,41.3779,27.4025,41.3779,27.4025L41.3779,27.4025z"/>
		<path class="st3" d="M39.8076,21.0641c0,0,0.0791,0.1584,0.1031,0.2431c0.0412,0.1448,0.0698,0.2958,0.0687,0.4464
			c-0.0011,0.1509-0.0352,0.3009-0.0755,0.4464c-0.0604,0.2179-0.1517,0.4268-0.2472,0.6318
			c-0.0606,0.13-0.1453,0.2478-0.206,0.3777c-0.0979,0.2095-0.1678,0.4309-0.2541,0.6455c-0.072,0.1791-0.1647,0.3506-0.2197,0.5356
			c-0.073,0.2457-0.1095,0.5014-0.1442,0.7554c-0.0299,0.2185-0.0535,0.4387-0.0549,0.6592
			c-0.0017,0.2616,0.0062,0.5258,0.0549,0.7828c0.0483,0.2546,0.1194,0.5089,0.2335,0.7416
			c0.0919,0.1876,0.2144,0.3625,0.3571,0.515c0.118,0.1261,0.257,0.2342,0.4052,0.3227c0.1347,0.0805,0.2868,0.1275,0.4326,0.1854
			c0.2014,0.0801,0.6104,0.2241,0.6104,0.2241s-0.5646-0.2782-0.7615-0.5125c-0.1628-0.1938-0.2525-0.4469-0.309-0.6936
			c-0.0655-0.2857-0.0572-0.5874-0.0275-0.879c0.032-0.3137,0.1243-0.6196,0.2197-0.9202c0.1007-0.3172,0.2423-0.62,0.3708-0.927
			c0.0926-0.2213,0.1986-0.4368,0.2884-0.6592c0.106-0.2626,0.2103-0.5264,0.2953-0.7966c0.0518-0.1648,0.1164-0.3293,0.1303-0.5015
			c0.0151-0.187-0.0092-0.3778-0.0521-0.5605c-0.0601-0.2559-0.1344-0.5196-0.2841-0.7356c-0.0901-0.13-0.2136-0.2437-0.3545-0.3156
			c-0.1376-0.0703-0.301-0.1296-0.4526-0.0997C39.8841,20.9858,39.8076,21.0641,39.8076,21.0641L39.8076,21.0641z"/>
		<path class="st3" d="M41.0782,22.6943c0,0,0.1069-0.4318,0.125-0.6525c0.0155-0.1888,0.0054-0.3797-0.0146-0.5681
			c-0.0222-0.2096-0.0352-0.427-0.1165-0.6215c-0.0843-0.2017-0.2166-0.3871-0.3739-0.539
			c-0.155-0.1497-0.3431-0.2713-0.5438-0.3496c-0.2112-0.0824-0.4438-0.1027-0.6701-0.1165
			c-0.1941-0.0119-0.3898,0.0046-0.5827,0.0291c-0.1115,0.0142-0.2237,0.0319-0.3302,0.068
			c-0.0987,0.0334-0.2816,0.136-0.2816,0.136l0.7186,1.1751c0,0,0.2249-0.1324,0.3496-0.1651
			c0.1319-0.0345,0.2718-0.0371,0.4079-0.0291c0.1382,0.0081,0.2814,0.0214,0.4079,0.0777c0.161,0.0716,0.2998,0.1916,0.4211,0.3193
			c0.1465,0.1541,0.2772,0.3309,0.359,0.5271c0.076,0.1822,0.086,0.3857,0.1133,0.5812
			C41.0731,22.6086,41.0782,22.6943,41.0782,22.6943L41.0782,22.6943z"/>
		<path class="st4" d="M41.2092,21.7602c0,0-0.128-0.3974-0.2489-0.5634c-0.1404-0.1927-0.3208-0.3694-0.5341-0.4759
			c-0.2263-0.1129-0.7439-0.1492-0.7439-0.1492l0.2739,0.5071l-0.4792-0.0117l-0.2502-0.4184l-0.4616,0.2089l-0.2296-0.3755
			l0.4903-0.2274L38.8,19.8904l0.4902-0.0466l0.2134,0.3528c0,0,0.381,0.0012,0.5661,0.04
			c0.1257,0.0264,0.2492,0.0698,0.3629,0.1297c0.1088,0.0573,0.2088,0.1325,0.2987,0.2163c0.1082,0.1008,0.2096,0.2127,0.285,0.3399
			c0.0733,0.1236,0.157,0.4015,0.157,0.4015L41.2092,21.7602z"/>
		<path class="st4" d="M37.9596,20.2822l0.7656,1.1182 M38.2939,20.0868l-0.3608,0.2109l-0.3433,0.2609l0.7416,1.1331l0.3296-0.2541
			l0.3389-0.1964L38.2939,20.0868z"/>
		<path class="st4" d="M39.691,24.8609l0.4292-0.8858l0.4593,0.1827l0.1861-0.4574l-0.4566-0.2129l0.2369-0.5116l-0.3365-0.1511
			l-0.2541,0.491l-0.4606-0.1926l-0.2023,0.4791l0.4466,0.1873l-0.412,0.879L39.691,24.8609z"/>
		<path class="st4" d="M43.1261,24.5959l0.437-0.0097v0.505l0.4208,0.02l-0.0716,0.5126l-0.3926-0.0247
			c0,0-0.0648,0.3018-0.1229,0.4439c-0.0603,0.1474-0.2319,0.4176-0.2319,0.4176l-0.4661-0.1165c0,0,0.1686-0.2652,0.2331-0.4079
			c0.0577-0.1278,0.136-0.3982,0.136-0.3982l-0.4785-0.0604l0.0833-0.4846l0.4341,0.0303L43.1261,24.5959z"/>
		<path class="st3" d="M46.4803,23.767l-0.3865,0.0922l-0.6159,0.1001l-0.2822,0.031l0.0498,1.198c0,0,0.0674,0.7963,0.1845,1.1751
			c0.0868,0.2808,0.3787,0.7963,0.3787,0.7963l0.1845,0.2816l1.0877-0.942c0,0-0.1854-0.2627-0.2525-0.4079
			c-0.0842-0.1821-0.1845-0.573-0.1845-0.573l-0.1068-0.6215l-0.0583-0.7866L46.4803,23.767z M47.8481,27.4025l-0.9906,0.8643
			c0,0,0.2003,0.1783,0.3205,0.2331c0.2358,0.1075,0.4984,0.1804,0.7575,0.1748c0.1855-0.004,0.3677-0.0713,0.5364-0.1485
			c0.3773-0.1724,0.7928-0.3535,1.036-0.6896c0.0861-0.1189,0.1201-0.2777,0.1173-0.4245
			c-0.0031-0.1664-0.1507-0.4759-0.1507-0.4759s-0.0574,0.2073-0.1232,0.2885c-0.1083,0.1337-0.2668,0.2233-0.4223,0.297
			c-0.1163,0.0552-0.2435,0.0965-0.372,0.1041c-0.1668,0.0098-0.3399-0.0162-0.4953-0.0777
			C47.9816,27.5164,47.8481,27.4025,47.8481,27.4025L47.8481,27.4025z"/>
		<path class="st3" d="M49.4184,21.0641c0,0-0.0791,0.1584-0.1031,0.2431c-0.0412,0.1448-0.0698,0.2958-0.0687,0.4464
			c0.0011,0.1509,0.0352,0.3009,0.0755,0.4464c0.0604,0.2179,0.1517,0.4268,0.2472,0.6318c0.0606,0.13,0.1453,0.2478,0.206,0.3777
			c0.0979,0.2095,0.1679,0.4309,0.2541,0.6455c0.072,0.1791,0.1647,0.3506,0.2197,0.5356c0.0731,0.2457,0.1095,0.5014,0.1442,0.7554
			c0.0299,0.2185,0.0535,0.4387,0.0549,0.6592c0.0017,0.2616-0.0062,0.5258-0.0549,0.7828
			c-0.0483,0.2546-0.1194,0.5089-0.2335,0.7416c-0.0919,0.1876-0.2144,0.3625-0.3571,0.515
			c-0.118,0.1261-0.257,0.2342-0.4052,0.3227c-0.1347,0.0805-0.2868,0.1275-0.4326,0.1854
			c-0.2014,0.0801-0.6104,0.2241-0.6104,0.2241s0.5646-0.2782,0.7615-0.5125c0.1628-0.1938,0.2525-0.4469,0.309-0.6936
			c0.0655-0.2857,0.0572-0.5874,0.0275-0.879c-0.032-0.3137-0.1243-0.6196-0.2197-0.9202c-0.1007-0.3172-0.2423-0.62-0.3708-0.927
			c-0.0926-0.2213-0.1986-0.4368-0.2884-0.6592c-0.106-0.2626-0.2103-0.5264-0.2953-0.7966
			c-0.0518-0.1648-0.1164-0.3293-0.1303-0.5015c-0.0151-0.187,0.0092-0.3778,0.0521-0.5605
			c0.0601-0.2559,0.1344-0.5196,0.2841-0.7356c0.0901-0.13,0.2136-0.2437,0.3545-0.3156c0.1376-0.0703,0.301-0.1296,0.4526-0.0997
			C49.3419,20.9858,49.4184,21.0641,49.4184,21.0641L49.4184,21.0641z"/>
		<path class="st3" d="M48.1478,22.6943c0,0-0.1069-0.4318-0.125-0.6525c-0.0155-0.1888-0.0054-0.3797,0.0146-0.5681
			c0.0222-0.2096,0.0352-0.427,0.1165-0.6215c0.0843-0.2017,0.2166-0.3871,0.3739-0.539c0.155-0.1497,0.3431-0.2713,0.5438-0.3496
			c0.2112-0.0824,0.4438-0.1027,0.6701-0.1165c0.1941-0.0119,0.3898,0.0046,0.5827,0.0291c0.1115,0.0142,0.2238,0.0319,0.3302,0.068
			c0.0987,0.0334,0.2816,0.136,0.2816,0.136l-0.7186,1.1751c0,0-0.2249-0.1324-0.3496-0.1651
			c-0.1319-0.0345-0.2718-0.0371-0.4079-0.0291c-0.1382,0.0081-0.2814,0.0214-0.4079,0.0777
			c-0.161,0.0716-0.2998,0.1916-0.4211,0.3193c-0.1464,0.1541-0.2772,0.3309-0.359,0.5271c-0.076,0.1822-0.086,0.3857-0.1133,0.5812
			C48.1529,22.6086,48.1478,22.6943,48.1478,22.6943L48.1478,22.6943z"/>
		<path class="st4" d="M48.0168,21.7602c0,0,0.128-0.3974,0.2489-0.5634c0.1404-0.1927,0.3208-0.3694,0.5341-0.4759
			c0.2263-0.1129,0.7439-0.1492,0.7439-0.1492l-0.2739,0.5071l0.4792-0.0117l0.2502-0.4184l0.4616,0.2089l0.2296-0.3755
			L50.2,20.2548l0.2259-0.3644l-0.4902-0.0466l-0.2134,0.3528c0,0-0.381,0.0012-0.5661,0.04
			c-0.1257,0.0264-0.2492,0.0698-0.3629,0.1297c-0.1088,0.0573-0.2088,0.1325-0.2987,0.2163
			c-0.1082,0.1008-0.2096,0.2127-0.285,0.3399c-0.0733,0.1236-0.157,0.4015-0.157,0.4015L48.0168,21.7602z"/>
		<path class="st4" d="M51.2664,20.2822l-0.7656,1.1182 M50.9321,20.0868l0.3608,0.2109l0.3433,0.2609l-0.7416,1.1331
			l-0.3296-0.2541l-0.3389-0.1964L50.9321,20.0868z"/>
		<path class="st4" d="M49.535,24.8609l-0.4292-0.8858l-0.4593,0.1827l-0.1861-0.4574l0.4566-0.2129l-0.2369-0.5116l0.3365-0.1511
			l0.2541,0.491l0.4606-0.1926l0.2023,0.4791l-0.4466,0.1873l0.412,0.879L49.535,24.8609z"/>
		<path class="st4" d="M46.0999,24.5959l-0.437-0.0097v0.505l-0.4208,0.02l0.0716,0.5126l0.3926-0.0247
			c0,0,0.0648,0.3018,0.1229,0.4439c0.0603,0.1474,0.2319,0.4176,0.2319,0.4176l0.4661-0.1165c0,0-0.1686-0.2652-0.2331-0.4079
			c-0.0577-0.1278-0.136-0.3982-0.136-0.3982l0.4785-0.0604l-0.0833-0.4846l-0.4341,0.0303L46.0999,24.5959z"/>
		<path class="st3" d="M42.1598,17.6544l-0.6581,0.7067l0.4051,1.2223l0.2321,0.8591l-0.6655,0.6198l1.2175,1.6917l3.8698-0.3719
			l1.2434-1.3325l-0.4745-0.428l-0.0106-1.0382l0.4051-1.2223l-0.6098-0.6174l-0.5506-1.4702c0,0-0.1152-0.4099-0.2129-0.5974
			c-0.0583-0.1121-0.1399-0.211-0.2198-0.309c-0.0955-0.1175-0.192-0.2369-0.3089-0.333c-0.1061-0.0871-0.229-0.1523-0.3502-0.2163
			c-0.1306-0.0688-0.2616-0.1429-0.4044-0.1793c-0.1474-0.0375-0.4546-0.037-0.4546-0.037s-0.307-0.0006-0.4548,0.037
			c-0.1428,0.0364-0.2738,0.1105-0.4042,0.1793c-0.1214,0.064-0.2443,0.1292-0.3502,0.2163
			c-0.1171,0.0962-0.2136,0.2156-0.3091,0.333c-0.0797,0.098-0.1613,0.1969-0.2196,0.309
			c-0.0977,0.1875-0.2129,0.5974-0.2129,0.5974L42.1598,17.6544z"/>
		<ellipse id="svg_167" class="st5" cx="44.6174" cy="23.3288" rx="2.3422" ry="0.6952"/>
		<path class="st4" d="M47.1185,22.3951c0,0-0.0763-0.0683-0.119-0.096c-0.0899-0.0582-0.1864-0.1073-0.2865-0.1457
			c-0.1346-0.0515-0.2773-0.0789-0.4176-0.1117c-0.1607-0.0375-0.3219-0.0753-0.4856-0.0971
			c-0.1914-0.0255-0.3848-0.0369-0.5778-0.0388c-0.2066-0.0021-0.619,0.0291-0.619,0.0291s-0.4121-0.0312-0.619-0.0291
			c-0.193,0.0019-0.3865,0.0134-0.5778,0.0388c-0.1636,0.0218-0.3248,0.0596-0.4856,0.0971
			c-0.1403,0.0328-0.283,0.0601-0.4176,0.1117c-0.1,0.0383-0.1966,0.0875-0.2865,0.1457c-0.0428,0.0277-0.119,0.096-0.119,0.096
			 M47.3564,21.3705c0,0-0.1244-0.1264-0.2064-0.1421c-0.053-0.0101-0.1138,0.0052-0.1578,0.0364
			c-0.0569,0.0404-0.0949,0.1094-0.1117,0.1772c-0.015,0.0607-0.0085,0.1288,0.0146,0.1869
			c0.0195,0.0492,0.0504,0.1041,0.0995,0.1238c0.1152,0.0462,0.3692-0.0486,0.3692-0.0486L47.3564,21.3705z M47.4802,21.2842
			c0.1392,0.0041,0.1899,0.0746,0.2269,0.1554 M41.8695,21.3705l-0.0074,0.3338c0,0,0.254,0.0948,0.3692,0.0486
			c0.0492-0.0197,0.08-0.0746,0.0995-0.1238c0.023-0.0581,0.0296-0.1263,0.0146-0.1869c-0.0168-0.0678-0.0548-0.1368-0.1117-0.1772
			c-0.044-0.0313-0.1048-0.0468-0.1578-0.0364C41.9933,21.2446,41.8695,21.3705,41.8695,21.3705L41.8695,21.3705z M41.7458,21.2842
			c-0.1392,0.0041-0.1899,0.0746-0.2269,0.1554 M46.2749,21.4719l-0.2027-0.0227 M42.9511,21.4719l0.2027-0.0227 M44.9776,21.4688
			c-0.0688-0.0101-0.1824-0.101-0.1824-0.101 M44.2484,21.4688c0.0688-0.0101,0.1824-0.101,0.1824-0.101 M47.8133,20.9034
			c0,0-0.1012,0.0803-0.1748,0.0926l-0.0291,0.0155c0,0-0.0467,0.1375-0.0879,0.1962c-0.0413,0.0588-0.1552,0.15-0.1552,0.15
			s-0.1149-0.0995-0.1859-0.1188c-0.0465-0.0127-0.0999-0.013-0.1446,0.0052c-0.0474,0.0193-0.0851,0.0608-0.1137,0.1034
			c-0.0337,0.0502-0.0649,0.11-0.0621,0.1704c0.0034,0.0723,0.093,0.1964,0.093,0.1964l-0.0619,0.1083l-0.0879,0.057
			c-0.1515-0.0459-0.3031-0.0944-0.4547-0.1809c-0.0416-0.0453-0.0806-0.1032-0.1085-0.2168c0,0,0.109-0.0646,0.1343-0.1188
			c0.0284-0.0609,0.04-0.1441,0.0052-0.2016c-0.0388-0.0639-0.1266-0.097-0.2013-0.0982c-0.0547-0.0009-0.1125,0.0274-0.15,0.0673
			c-0.0403,0.0429-0.0714,0.1072-0.0619,0.1652c0.0097,0.0592,0.1137,0.1395,0.1137,0.1395s-0.0432,0.1094-0.0921,0.1303
			c-0.1443,0.0617-0.2395,0.097-0.3659,0.1165c-0.1251,0.0193-0.2657,0.0352-0.3912-0.0005
			c-0.081-0.023-0.1643-0.0655-0.2152-0.1327c-0.0151-0.02-0.0206-0.0722-0.0206-0.0722s0.1552-0.0403,0.217-0.0879
			c0.0614-0.0473,0.1268-0.1096,0.1395-0.1861c0.0127-0.0768-0.0281-0.1582-0.0724-0.2222c-0.0439-0.0635-0.11-0.1137-0.1807-0.1446
			c-0.0319-0.0139-0.1034-0.0155-0.1034-0.0155s-0.0151,0.0137-0.0225,0.0206c-0.0299,0.0384-0.0709,0.0687-0.1144,0.0914
			c-0.0008,0.0004-0.0018,0.0012-0.0026,0.0016c-0.0011,0.0006-0.0031,0.0011-0.0042,0.0016
			c-0.0091,0.0045-0.018,0.0098-0.0272,0.0136c-0.0048,0.002-0.0122,0.0022-0.0178,0.0037
			c-0.0305,0.0103-0.0593,0.0187-0.0593,0.0187s0.0927,0.0287,0.1188,0.0656c0.0161,0.0228,0.0231,0.0506,0.026,0.0795
			c0.0036,0.0171,0.0056,0.0344,0.0049,0.0511c-0.0011,0.0266-0.0077,0.0536-0.0169,0.0799
			c-0.0084,0.0307-0.0201,0.0602-0.0401,0.0839c-0.0108,0.0129-0.0241,0.0236-0.0382,0.0333
			c-0.0007,0.0005-0.0012,0.0013-0.0019,0.0019c-0.0007,0.0006-0.0021,0.0009-0.0028,0.0014
			c-0.0249,0.0161-0.053,0.028-0.0811,0.0359c-0.0329,0.0092-0.1005,0.0019-0.1029,0.0016c0.0025,0,0.1322-0.0002,0.184-0.0375
			c0.0016-0.001,0.0031-0.0022,0.0047-0.0033c0.0362-0.0289,0.0624-0.0714,0.0783-0.1172c0.005-0.0184,0.01-0.037,0.0117-0.0555
			c0.0023-0.0243,0.0028-0.0502,0.0002-0.0755c-0.0079-0.038-0.0255-0.075-0.0532-0.0996c-0.058-0.0515-0.2238-0.0578-0.2259-0.0579
			c-0.0026,0.0001-0.1678,0.0064-0.2257,0.0579c-0.0277,0.0246-0.0453,0.0616-0.0532,0.0996
			c-0.0025,0.0252-0.0021,0.0511,0.0002,0.0755c0.0018,0.0185,0.0067,0.0371,0.0117,0.0555
			c0.0159,0.0458,0.042,0.0883,0.0783,0.1172c0.0016,0.0011,0.0031,0.0022,0.0047,0.0033c0.0517,0.0373,0.1815,0.0375,0.184,0.0375
			c-0.0024,0.0003-0.07,0.0075-0.1029-0.0016c-0.0281-0.0078-0.0562-0.0198-0.0811-0.0359
			c-0.0007-0.0005-0.0021-0.0009-0.0028-0.0014c-0.0007-0.0005-0.0012-0.0013-0.0019-0.0019
			c-0.0141-0.0096-0.0274-0.0204-0.0382-0.0333c-0.0199-0.0237-0.0317-0.0532-0.0401-0.0839
			c-0.0091-0.0263-0.0158-0.0533-0.0169-0.0799c-0.0007-0.0167,0.0014-0.034,0.0049-0.0511
			c0.0029-0.0288,0.0101-0.0566,0.0262-0.0795c0.0261-0.0369,0.1186-0.0656,0.1186-0.0656s-0.0288-0.0084-0.0593-0.0187
			c-0.0055-0.0015-0.0128-0.0018-0.0176-0.0037c-0.0093-0.0038-0.0184-0.0092-0.0277-0.0138
			c-0.001-0.0005-0.0028-0.0009-0.0037-0.0014c-0.0006-0.0003-0.0015-0.001-0.0021-0.0014
			c-0.0437-0.0227-0.0851-0.0531-0.1151-0.0916c-0.0074-0.0069-0.0225-0.0206-0.0225-0.0206s-0.0712,0.0015-0.1031,0.0155
			c-0.0707,0.0309-0.137,0.0811-0.1809,0.1446c-0.0443,0.064-0.0852,0.1454-0.0724,0.2222
			c0.0127,0.0765,0.0783,0.1388,0.1397,0.1861c0.0618,0.0476,0.2168,0.0879,0.2168,0.0879s-0.0055,0.0522-0.0206,0.0722
			c-0.0509,0.0671-0.1341,0.1096-0.2152,0.1327c-0.1254,0.0356-0.2661,0.0198-0.3912,0.0005
			c-0.1264-0.0195-0.2216-0.0548-0.3659-0.1165c-0.0489-0.0209-0.0921-0.1303-0.0921-0.1303s0.104-0.0803,0.1137-0.1395
			c0.0095-0.0581-0.0216-0.1223-0.0619-0.1652c-0.0375-0.0399-0.095-0.0681-0.1498-0.0673
			c-0.0747,0.0012-0.1628,0.0344-0.2016,0.0982c-0.0349,0.0574-0.0232,0.1407,0.0052,0.2016
			c0.0252,0.0542,0.1343,0.1188,0.1343,0.1188c-0.0279,0.1136-0.0669,0.1715-0.1085,0.2168
			c-0.1515,0.0865-0.3031,0.135-0.4547,0.1809l-0.0877-0.057l-0.0621-0.1083c0,0,0.0897-0.1241,0.093-0.1964
			c0.0028-0.0604-0.0284-0.1202-0.0621-0.1704c-0.0285-0.0425-0.0662-0.084-0.1137-0.1034
			c-0.0447-0.0182-0.0981-0.0179-0.1446-0.0052c-0.071,0.0194-0.1859,0.1188-0.1859,0.1188s-0.1139-0.0912-0.1552-0.15
			c-0.0412-0.0587-0.0877-0.1962-0.0877-0.1962l-0.0291-0.0155c-0.0737-0.0121-0.1751-0.0926-0.1751-0.0926l-0.1066,0.0225
			c0,0-0.0984,0.0527-0.0996,0.0996c-0.0016,0.0648,0.0894,0.094,0.1305,0.1441c0.0353,0.043,0.0682,0.088,0.0994,0.1341
			c0.0294,0.0434,0.0682,0.0834,0.0825,0.1338c0.0156,0.0551-0.0234,0.1193,0,0.1716c0.0295,0.0658,0.0906,0.13,0.1613,0.1444
			c0.0628,0.0128,0.1821-0.0619,0.1821-0.0619l-0.0035,0.4772l0.2473,0.2234l0.2334,0.4875l-0.0926,0.1235l0.0274,0.24
			c0.1796-0.23,0.492-0.331,0.7725-0.4116c0.3776-0.1085,1.0697-0.1162,1.3922-0.1132c0.1075,0.001,0.1741,0.0033,0.1741,0.0033
			s1.0631-0.0346,1.5661,0.1099c0.2805,0.0806,0.5929,0.1815,0.7725,0.4116l0.0274-0.24l-0.0926-0.1235l0.2334-0.4875l0.2473-0.2234
			l-0.0035-0.4772c0,0,0.1193,0.0747,0.1821,0.0619c0.0707-0.0144,0.1318-0.0785,0.1613-0.1444
			c0.0234-0.0522-0.0156-0.1165,0-0.1716c0.0143-0.0504,0.0531-0.0904,0.0825-0.1338c0.0312-0.046,0.0643-0.0911,0.0996-0.1341
			c0.0411-0.0501,0.1319-0.0793,0.1303-0.1441c-0.0012-0.0469-0.0996-0.0996-0.0996-0.0996L47.8133,20.9034L47.8133,20.9034z
			 M44.2533,20.8409c0.0252,0.0236,0.0745,0.0683,0.1151,0.0916c0.0019,0.001,0.0039,0.0018,0.0059,0.0028
			c0.0121,0.0063,0.0288,0.012,0.0452,0.0176c0.0699,0.019,0.1904,0.0064,0.1931,0.0061h0.0002h0.0005
			c0.0027,0.0003,0.1232,0.0129,0.1931-0.0061c0.0162-0.0055,0.0329-0.0111,0.045-0.0173c0.0023-0.0011,0.0046-0.0021,0.0068-0.0033
			c0.0406-0.0234,0.0893-0.0679,0.1144-0.0914c0.0125-0.0161,0.0232-0.0334,0.0312-0.0518
			c0.0277-0.0639,0.0264-0.1467-0.0049-0.2088c-0.0369-0.0731-0.1242-0.1079-0.1941-0.1507
			c-0.0602-0.0368-0.1899-0.0894-0.192-0.0902c-0.0024,0.001-0.1314,0.0534-0.1915,0.0902
			c-0.0699,0.0428-0.1574,0.0776-0.1943,0.1507c-0.0314,0.0622-0.0326,0.145-0.0049,0.2088
			C44.2302,20.8075,44.2408,20.8247,44.2533,20.8409L44.2533,20.8409z"/>
		<path class="st4" d="M47.5385,19.9149c0,0-0.2613-0.1215-0.3982-0.1651c-0.2499-0.0796-0.5096-0.1252-0.7672-0.1748
			c-0.2992-0.0577-0.6062-0.0732-0.9029-0.1426c-0.0934-0.0219-0.1807-0.0665-0.2747-0.0858
			c-0.1296-0.0267-0.2655-0.069-0.3949-0.0412c-0.0712,0.0153-0.1877,0.1099-0.1877,0.1099s-0.1168-0.0946-0.1877-0.1099
			c-0.1293-0.028-0.2653,0.0145-0.3949,0.0412c-0.0939,0.0194-0.1813,0.064-0.2747,0.0858
			c-0.2967,0.0694-0.6037,0.085-0.9029,0.1426c-0.2576,0.0496-0.5173,0.0952-0.7672,0.1748
			c-0.1369,0.0436-0.3982,0.1651-0.3982,0.1651 M46.4265,18.832c0,0,0.1284-0.0678,0.1748-0.1214
			c0.0308-0.0356,0.0602-0.0791,0.0633-0.1261c0.0036-0.0546-0.0149-0.1165-0.0534-0.1554
			c-0.0375-0.0378-0.0975-0.0532-0.1507-0.0534c-0.0445-0.0001-0.0922,0.0147-0.1261,0.0436
			c-0.0391,0.0334-0.0667,0.0849-0.0729,0.1359c-0.0052,0.0435,0.0122,0.0888,0.0328,0.1275
			C46.3255,18.7415,46.4265,18.832,46.4265,18.832z M42.7995,18.832c0,0,0.101-0.0906,0.1322-0.1493
			c0.0206-0.0387,0.0381-0.084,0.0328-0.1275c-0.0061-0.051-0.0338-0.1026-0.0729-0.1359
			c-0.0339-0.0289-0.0816-0.0437-0.1261-0.0436c-0.0532,0.0002-0.113,0.0156-0.1505,0.0534
			c-0.0385,0.0389-0.0571,0.1007-0.0534,0.1554c0.0031,0.0469,0.0322,0.0905,0.063,0.1261
			C42.6711,18.7642,42.7995,18.832,42.7995,18.832z M41.8137,19.2642l-0.2864,0.3738c0,0-0.002,0.0986,0.0195,0.1409
			c0.0295,0.0582,0.1406,0.1359,0.1406,0.1359l0.0204,0.5133l-0.2714,0.4704l-0.0237,0.0049l0.1751,0.0926
			c0.0082,0.0013,0.0163,0.0027,0.0237,0.0021c0.1051-0.0082,0.1697-0.1262,0.2611-0.1786c0.1164-0.0667,0.2403-0.1197,0.364-0.1716
			c0.171-0.0717,0.3446-0.1376,0.5217-0.1924c0.2233-0.0691,0.4486-0.1382,0.6799-0.1716c0.1752-0.0252,0.3531-0.0371,0.5304-0.0347
			c0.0591,0.0008,0.1181,0.003,0.177,0.007c0.1577,0.0107,0.4649,0.0817,0.4673,0.0823c0.0021-0.0005,0.3098-0.0716,0.4676-0.0823
			c0.2354-0.0159,0.4738-0.006,0.7073,0.0277c0.2313,0.0333,0.4566,0.1025,0.6799,0.1716c0.1771,0.0548,0.3507,0.1208,0.5217,0.1924
			c0.1237,0.0518,0.2476,0.1049,0.364,0.1716c0.0914,0.0524,0.156,0.1704,0.2611,0.1786c0.0074,0.0006,0.0156-0.0007,0.0239-0.0021
			l0.1748-0.0926l-0.0237-0.0049l-0.2714-0.4704l0.0204-0.5133c0,0,0.1113-0.0778,0.1409-0.1359
			c0.0215-0.0422,0.0192-0.1409,0.0192-0.1409l-0.2864-0.3738c0,0-0.1444,0.1442-0.2379,0.1748
			c-0.0492,0.0161-0.1059,0.0154-0.1554,0c-0.06-0.0186-0.1064-0.0675-0.1554-0.1069c-0.1106-0.089-0.2214-0.181-0.3108-0.2913
			c-0.0512-0.0632-0.1263-0.2088-0.1263-0.2088s-0.3098,0.2434-0.4952,0.2913c-0.1818,0.047-0.383,0.0385-0.5632-0.0145
			c-0.0452-0.0133-0.1207-0.0736-0.1207-0.0736c-0.2118-0.1349-0.4236-0.2087-0.6342-0.1884
			c-0.2106-0.0203-0.4224,0.0535-0.6342,0.1884c0,0-0.0757,0.0603-0.1209,0.0736c-0.1802,0.0531-0.3814,0.0615-0.5632,0.0145
			c-0.1855-0.0479-0.4952-0.2913-0.4952-0.2913s-0.0751,0.1456-0.1263,0.2088c-0.0894,0.1103-0.2002,0.2023-0.3108,0.2913
			c-0.049,0.0394-0.0954,0.0882-0.1554,0.1069c-0.0495,0.0154-0.1062,0.0161-0.1554,0
			C41.9581,19.4084,41.8137,19.2642,41.8137,19.2642L41.8137,19.2642z"/>
		<path class="st4" d="M47.6614,19.1127c0,0,0.0107-0.1369-0.0039-0.2029c-0.0134-0.0605-0.0407-0.1186-0.0753-0.17
			c-0.0363-0.0539-0.1355-0.1402-0.1355-0.1402 M47.4123,19.2642c0,0,0.0815,0.003,0.1165-0.0145
			c0.0625-0.0312,0.1458-0.1505,0.1458-0.1505s0.1599,0.1106,0.2475,0.097c0.0432-0.0067,0.0791-0.0452,0.102-0.0825
			c0.0243-0.0395,0.0396-0.0908,0.0293-0.1359c-0.0082-0.036-0.0398-0.0636-0.068-0.0874c-0.0547-0.0463-0.1535-0.0399-0.1894-0.102
			c-0.0284-0.0491-0.011-0.1154,0.0047-0.1699c0.0327-0.1137,0.114-0.2076,0.1798-0.3059c0.0417-0.0624,0.127-0.1052,0.1359-0.1798
			c0.0048-0.0403-0.0485-0.1118-0.0485-0.1118s-0.1253-0.0028-0.1845,0.0148c-0.0979,0.0291-0.1994,0.0719-0.2688,0.1467
			c-0.0577,0.0622-0.0749,0.1528-0.1052,0.232c-0.0231,0.0602-0.0581,0.1845-0.0581,0.1845s-0.145-0.0003-0.2088,0.0291
			c-0.0844,0.0388-0.1707,0.0998-0.2088,0.1845c-0.0299,0.0664-0.0258,0.1505,0,0.2187c0.026,0.0686,0.0838,0.1257,0.1458,0.165
			C47.2476,19.2396,47.4123,19.2642,47.4123,19.2642L47.4123,19.2642z M41.7792,18.5997c0,0-0.0992,0.0863-0.1355,0.1402
			c-0.0346,0.0514-0.0619,0.1095-0.0753,0.1699c-0.0146,0.0661-0.0039,0.2029-0.0039,0.2029 M41.1581,18.0211
			c0,0-0.0533,0.0715-0.0485,0.1118c0.0089,0.0746,0.0942,0.1173,0.1359,0.1798c0.0657,0.0983,0.1471,0.1922,0.1798,0.3059
			c0.0157,0.0545,0.0331,0.1209,0.0047,0.1699c-0.0359,0.0621-0.1346,0.0557-0.1894,0.102
			c-0.0282,0.0238-0.0597,0.0514-0.068,0.0874c-0.0103,0.0452,0.005,0.0964,0.0293,0.1359c0.0229,0.0373,0.0587,0.0758,0.102,0.0825
			c0.0876,0.0135,0.2475-0.097,0.2475-0.097s0.0833,0.1193,0.1458,0.1505c0.035,0.0175,0.1165,0.0145,0.1165,0.0145
			s0.1649-0.0246,0.2332-0.068c0.062-0.0393,0.1196-0.0964,0.1455-0.165c0.0258-0.0681,0.0299-0.1523,0-0.2187
			c-0.0382-0.0847-0.1245-0.1456-0.2088-0.1845c-0.0638-0.0294-0.2088-0.0291-0.2088-0.0291s-0.0351-0.1242-0.0581-0.1845
			c-0.0303-0.0793-0.0475-0.1698-0.1052-0.232c-0.0695-0.0748-0.171-0.1176-0.2688-0.1467
			C41.2834,18.0183,41.1581,18.0211,41.1581,18.0211L41.1581,18.0211z M44.4131,18.3647l0.1998-0.0585l0.1998,0.0585
			 M44.4648,18.8467c0,0-0.1555-0.1418-0.1845-0.2379c-0.0127-0.042-0.0108-0.0924,0.0097-0.1311
			c0.028-0.0529,0.1408-0.1117,0.1408-0.1117s-0.17-0.0826-0.2137-0.1602c-0.0247-0.0439-0.0278-0.1019-0.0146-0.1505
			c0.021-0.0772,0.0792-0.1433,0.1408-0.1942c0.0764-0.0632,0.2694-0.1262,0.2694-0.1262s0.1926,0.0629,0.2694,0.1262
			c0.0617,0.0509,0.1198,0.1171,0.1408,0.1942c0.0132,0.0486,0.0101,0.1066-0.0146,0.1505
			c-0.0436,0.0776-0.2136,0.1602-0.2136,0.1602s0.1128,0.0587,0.1408,0.1117c0.0205,0.0387,0.0224,0.0891,0.0097,0.1311
			c-0.029,0.0961-0.1845,0.2379-0.1845,0.2379l-0.148,0.0097L44.4648,18.8467z M45.009,18.2014c0,0,0.3225,0.1374,0.4317,0.2666
			c0.0305,0.036,0.0564,0.084,0.0534,0.1311c-0.0108,0.1671-0.2476,0.437-0.2476,0.437l-0.4783-0.1988h-0.3107l-0.4783,0.1988
			c0,0-0.2369-0.2699-0.2476-0.437c-0.003-0.0471,0.0229-0.0951,0.0534-0.1311c0.1093-0.1291,0.4317-0.2666,0.4317-0.2666"/>
		<path class="st4" d="M44.2646,16.062l0.1933-0.1488l0.1562,0.0034l-0.1597-0.0034c0,0-0.0862-0.0587-0.1099-0.103
			c-0.023-0.043-0.034-0.0965-0.024-0.1442c0.0133-0.0637,0.05-0.131,0.1063-0.1638c0.0537-0.0313,0.1861-0.0113,0.1861-0.0113
			s0.1321-0.0202,0.1861,0.0113c0.0562,0.0328,0.093,0.1001,0.1063,0.1638c0.0099,0.0477-0.001,0.1012-0.024,0.1442
			c-0.0237,0.0443-0.1099,0.103-0.1099,0.103l-0.1597,0.0034l0.1562-0.0034l0.1933,0.1488 M46.2232,16.1836l-0.0643,0.1117
			 M46.942,15.8152l-0.1804,0.0236 M46.966,16.0501l-0.2764,0.0145 M46.6536,15.7346c0.0352,0.0225,0.0997,0.0686,0.1103,0.1112
			c0.0186,0.0751-0.0162,0.1697-0.0753,0.2196c-0.0573,0.0483-0.222,0.036-0.222,0.036 M42.106,16.9076
			c0,0,0.2711-0.0677,0.4069-0.1003c0.1939-0.0465,0.3864-0.1007,0.5827-0.136c0.2223-0.0399,0.4469-0.0692,0.6722-0.0853
			c0.2811-0.0201,0.8452-0.0137,0.8452-0.0137s0.5637-0.0063,0.8452,0.0137c0.2253,0.0161,0.4499,0.0454,0.6722,0.0853
			c0.1963,0.0353,0.3887,0.0894,0.5827,0.136c0.1358,0.0326,0.4069,0.1003,0.4069,0.1003 M43.0026,16.1836l0.0643,0.1117
			 M42.2837,15.8152l0.1804,0.0236 M42.2598,16.0501l0.2764,0.0145 M42.3808,16.4504c0,0,0.301-0.0765,0.453-0.1082
			c0.1662-0.0346,0.3329-0.0677,0.5013-0.0893c0.1936-0.0249,0.3888-0.0373,0.5838-0.0463c0.2311-0.0106,0.694-0.0088,0.694-0.0088
			s0.4625-0.0018,0.694,0.0088c0.195,0.009,0.3902,0.0214,0.5838,0.0463c0.1683,0.0216,0.3351,0.0547,0.5013,0.0893
			c0.152,0.0316,0.453,0.1082,0.453,0.1082 M42.7593,16.1015c0,0-0.1647,0.0123-0.222-0.036
			c-0.0592-0.0499-0.094-0.1445-0.0753-0.2196c0.0147-0.0591,0.1332-0.1251,0.1332-0.1251 M44.1104,17.4968
			c-0.2874,0.0174-0.5762,0.0354-0.8595,0.0874c-0.295,0.0542-0.5877,0.1295-0.8692,0.2331
			c-0.2667,0.0981-0.5489,0.5434-0.7703,0.3653c-0.0476-0.0383,0.0181-0.122,0.0412-0.1785
			c0.0448-0.1094,0.1063-0.2144,0.1854-0.3021c0.0579-0.0643,0.1914-0.0727,0.206-0.1579c0.0106-0.062-0.0834-0.0982-0.103-0.1579
			c-0.0251-0.0762-0.0369-0.1635-0.0137-0.2403c0.0298-0.0986,0.1566-0.1483,0.1854-0.2472c0.025-0.086-0.0611-0.188-0.0206-0.2678
			c0.0512-0.1008,0.2721-0.0667,0.2884-0.1785c0.008-0.0545-0.0918-0.0715-0.1099-0.1236
			c-0.0128-0.0368,0.0074-0.0778,0.0069-0.1167c-0.0007-0.0528,0.0094-0.1104-0.0137-0.1579
			c-0.0206-0.0422-0.0888-0.0514-0.103-0.0961c-0.0134-0.0424-0.0041-0.0992,0.0275-0.1305
			c0.0249-0.0246,0.0872,0.0106,0.103-0.0206c0.032-0.063-0.0609-0.1275-0.0893-0.1923c-0.0338-0.0771-0.077-0.1515-0.0961-0.2335
			c-0.0152-0.0648-0.071-0.1653-0.0137-0.1991c0.0656-0.0388,0.1314,0.0777,0.1923,0.1236
			c0.0803,0.0605,0.1706,0.1156,0.2266,0.1991c0.0404,0.0603,0.0178,0.1562,0.0708,0.2058c0.0635,0.0596,0.1862,0.0118,0.252,0.0688
			c0.0565,0.049,0.1066,0.1332,0.0893,0.206c-0.0166,0.0696-0.1808,0.0676-0.1648,0.1373c0.0189,0.0828,0.1635,0.0763,0.2472,0.0618
			c0.0488-0.0085,0.0831-0.0539,0.1236-0.0824c0.0315-0.0221,0.0573-0.0536,0.0927-0.0687
			c0.0406-0.0173,0.1305-0.0223,0.1305-0.0223l-0.0515-0.012c0,0-0.0761-0.0607-0.0841-0.1047
			c-0.0075-0.0415,0.0105-0.0896,0.0395-0.1202c0.0325-0.0343,0.0849-0.0518,0.1322-0.0515
			c0.0395,0.0003,0.0827,0.0159,0.1099,0.0446c0.0279,0.0294,0.0438,0.0747,0.0395,0.115c-0.0038,0.0352-0.0271,0.0691-0.0549,0.091
			c-0.0302,0.0237-0.1099,0.0343-0.1099,0.0343l0.0549,0.0155l0.1476,0.2026l0.6369-0.0349c0,0,0.0786-0.0801,0.0631-0.1238
			c-0.0165-0.0468-0.0601-0.064-0.136-0.0607c-0.2059,0.009-0.2481-0.1639-0.2404-0.2889c0.0065-0.104,0.1316-0.1746,0.2282-0.2137
			c0.093-0.0376,0.2589,0.0862,0.3011-0.0049c0.037-0.0798-0.1396-0.1205-0.1675-0.2039c-0.0121-0.0361-0.0122-0.0801,0.0049-0.1141
			c0.0435-0.0869,0.1371-0.1447,0.2258-0.1845c0.0374-0.0168,0.1213-0.0194,0.1213-0.0194s0.0836,0.0025,0.1213,0.0194
			c0.0887,0.0397,0.1823,0.0976,0.2258,0.1845c0.017,0.034,0.0169,0.078,0.0049,0.1141c-0.0279,0.0834-0.2045,0.1241-0.1675,0.2039
			c0.0422,0.0911,0.208-0.0328,0.3011,0.0049c0.0966,0.0391,0.2217,0.1096,0.2282,0.2137c0.0078,0.125-0.0344,0.298-0.2404,0.2889
			c-0.0759-0.0033-0.1194,0.0139-0.136,0.0607c-0.0154,0.0437,0.0631,0.1238,0.0631,0.1238l0.6369,0.0349l0.1476-0.2026
			l0.0549-0.0155c0,0-0.0797-0.0107-0.1099-0.0343c-0.0279-0.0219-0.0512-0.0558-0.0549-0.091
			c-0.0043-0.0403,0.0116-0.0856,0.0395-0.115c0.0272-0.0287,0.0703-0.0444,0.1099-0.0446
			c0.0473-0.0003,0.0997,0.0172,0.1322,0.0515c0.029,0.0306,0.047,0.0787,0.0395,0.1202c-0.008,0.0441-0.0841,0.1047-0.0841,0.1047
			l-0.0515,0.012c0,0,0.0899,0.005,0.1305,0.0223c0.0354,0.0151,0.0612,0.0466,0.0927,0.0687
			c0.0405,0.0285,0.0748,0.074,0.1236,0.0824c0.0837,0.0145,0.2283,0.021,0.2472-0.0618c0.0159-0.0697-0.1483-0.0678-0.1648-0.1373
			c-0.0173-0.0728,0.0327-0.157,0.0893-0.206c0.0658-0.057,0.1885-0.0093,0.252-0.0688c0.0529-0.0496,0.0304-0.1456,0.0708-0.2058
			c0.056-0.0835,0.1463-0.1386,0.2266-0.1991c0.0608-0.0459,0.1267-0.1624,0.1923-0.1236c0.0573,0.0339,0.0014,0.1344-0.0137,0.1991
			c-0.0192,0.082-0.0624,0.1564-0.0961,0.2335c-0.0283,0.0647-0.1212,0.1293-0.0893,0.1923c0.0158,0.0312,0.0781-0.004,0.103,0.0206
			c0.0316,0.0313,0.0409,0.0881,0.0275,0.1305c-0.0142,0.0448-0.0824,0.0539-0.103,0.0961
			c-0.0231,0.0475-0.013,0.1051-0.0137,0.1579c-0.0006,0.039,0.0196,0.0799,0.0069,0.1167
			c-0.0181,0.0521-0.1178,0.0691-0.1099,0.1236c0.0163,0.1119,0.2372,0.0777,0.2884,0.1785
			c0.0405,0.0798-0.0456,0.1818-0.0206,0.2678c0.0288,0.0989,0.1556,0.1486,0.1854,0.2472
			c0.0232,0.0768,0.0113,0.1641-0.0137,0.2403c-0.0196,0.0597-0.1136,0.096-0.103,0.1579c0.0146,0.0853,0.1481,0.0937,0.206,0.1579
			c0.0791,0.0878,0.1406,0.1928,0.1854,0.3021c0.0231,0.0565,0.0888,0.1403,0.0412,0.1785
			c-0.2214,0.1781-0.5036-0.2672-0.7703-0.3653c-0.2815-0.1035-0.5741-0.1789-0.8692-0.2331c-0.2832-0.052-0.572-0.07-0.8595-0.0874
			c-0.1672-0.0101-0.5025-0.0097-0.5025-0.0097S44.278,17.4867,44.1104,17.4968L44.1104,17.4968z"/>
		<path class="st4" d="M44.8574,14.2896l-0.2444,0.0028l-0.2444-0.0028 M44.775,13.4765c0.0634-0.1344-0.0474-0.234-0.1619-0.3326
			c-0.1145,0.0986-0.2253,0.1982-0.1619,0.3326 M44.7887,14.598c0.0935,0.0069,0.2072,0.1024,0.2781,0.0412
			c0.0321-0.0277,0.0162-0.0879,0-0.127c-0.0378-0.0912-0.2019-0.111-0.2094-0.2094c-0.0065-0.0849,0.1246-0.1251,0.1511-0.206
			c0.0132-0.0402,0.0163-0.088,0-0.127c-0.066-0.1579-0.3478-0.1668-0.3967-0.3283c-0.0216-0.0716,0.1424-0.1558,0.1632-0.1649
			c0.1041-0.0451,0.2329,0.0638,0.3357,0.0192c0.0696-0.0302,0.147-0.099,0.1457-0.1748c-0.0014-0.0825-0.0894-0.1516-0.1651-0.1845
			c-0.1466-0.0638-0.3893,0.1417-0.4795,0.0097c-0.083-0.1215,0.2074-0.2659,0.1687-0.4079
			c-0.0184-0.0674-0.1675-0.1262-0.1675-0.1262s-0.1489,0.0585-0.1675,0.1262c-0.039,0.1419,0.2517,0.2864,0.1687,0.4079
			c-0.0902,0.132-0.3329-0.0735-0.4795-0.0097c-0.0757,0.0329-0.1636,0.102-0.1651,0.1845
			c-0.0013,0.0758,0.0761,0.1446,0.1457,0.1748c0.1028,0.0446,0.2316-0.0643,0.3357-0.0192
			c0.0208,0.009,0.1848,0.0933,0.1632,0.1649c-0.0488,0.1615-0.3306,0.1705-0.3966,0.3283c-0.0163,0.0391-0.0132,0.0868,0,0.127
			c0.0265,0.0809,0.1576,0.1211,0.1511,0.206c-0.0075,0.0984-0.1717,0.1182-0.2094,0.2094c-0.0162,0.0391-0.0321,0.0994,0,0.127
			c0.071,0.0612,0.1847-0.0343,0.2781-0.0412c0.0584-0.0043,0.1757,0,0.1757,0S44.7299,14.5937,44.7887,14.598z"/>
		<path class="st6" d="M46.8898,22.884c0,0-0.1717-0.0725-0.2593-0.1042c-0.1583-0.0573-0.3182-0.1112-0.4807-0.1554
			c-0.1584-0.0431-0.3176-0.0885-0.4807-0.1068c-0.3498-0.0392-1.056-0.0049-1.056-0.0049s-0.7058-0.0344-1.056,0.0049
			c-0.1631,0.0183-0.3223,0.0637-0.4807,0.1068c-0.1625,0.0442-0.3224,0.0981-0.4807,0.1554
			c-0.0876,0.0317-0.2593,0.1042-0.2593,0.1042 M47.1818,17.544c0,0-0.2869-0.1141-0.4326-0.1648
			c-0.1224-0.0425-0.2449-0.086-0.3708-0.1167c-0.1535-0.0375-0.3104-0.0609-0.467-0.0824
			c-0.2254-0.0309-0.4522-0.053-0.6794-0.0668c-0.206-0.0125-0.619-0.0146-0.619-0.0146s-0.4126,0.002-0.619,0.0146
			c-0.2271,0.0138-0.4539,0.0359-0.6794,0.0668c-0.1566,0.0215-0.3134,0.0449-0.467,0.0824
			c-0.1259,0.0308-0.2484,0.0742-0.3708,0.1167c-0.1458,0.0507-0.4326,0.1648-0.4326,0.1648 M41.7044,20.4338
			c0,0,0.4214-0.142,0.6337-0.2081c0.2191-0.0682,0.4362-0.1455,0.6604-0.1942c0.2684-0.0583,0.5427-0.0871,0.8158-0.1165
			c0.2654-0.0286,0.7987-0.0583,0.7987-0.0583s0.5329,0.0296,0.7987,0.0583c0.2731,0.0294,0.5473,0.0582,0.8158,0.1165
			c0.2242,0.0487,0.4413,0.1261,0.6604,0.1942c0.2123,0.0661,0.6337,0.2081,0.6337,0.2081"/>
		<path class="st7" d="M36.7987,21.697l2.4281,2.0811c0,0-0.1232,0.2691-0.1747,0.4077c-0.0475,0.1278-0.0916,0.2575-0.1235,0.39
			c-0.047,0.1955-0.0992,0.5949-0.0992,0.5949l-2.8306-2.5928C36.0389,21.9854,36.3724,21.7743,36.7987,21.697L36.7987,21.697z"/>
		<path class="st7" d="M36.4558,22.9967l-0.5828,0.652l0.364,0.3502l-0.5631,0.5494l-0.364-0.364l-0.6123,0.6528l-0.0057,0.8098
			l1.394,1.0919l0.4807-0.3571l-0.0275-0.776l0.3708,0.206l0.3708-0.2266l0.0206,0.7004l-0.3021-0.2197l-0.3296,0.4326
			l-0.0343,0.7691l1.0507,0.9339l1.2732-1.1299l-0.0962-0.3387l-0.0553-0.3043l-0.0299-0.6031l0.0475-0.6585L36.4558,22.9967z"/>
		<path class="st7" d="M35.873,23.6487l-0.0149,0.7198l0.3754-0.3663L35.873,23.6487z"/>
		<path class="st8" d="M37.7264,27.3702l-0.0437,0.8223 M37.2361,24.8403l0.0155,0.7628 M36.8961,25.187l0.0199,0.6212
			 M36.5698,24.936l0.013,0.6942 M36.0684,25.9956l0.0075,0.7355 M36.6696,26.4989l1.0575,0.8855l1.0813-0.949 M34.704,24.8305
			l1.3819,1.1806l0.4532-0.4052l-0.3571-0.3021l0.3983-0.3777l0.309,0.2678l0.3502-0.3571l0.4532,0.4395l-0.4116,0.3227
			l0.3842,0.3502l-0.364,0.3365"/>
		<path class="st7" d="M45.6324,29.5044l1.1664,1.0699l0.2583,0.7543l-1.5034-0.1602l-0.8559-0.8466l-0.9113-0.8442l-3.9369-3.4113
			c0,0,0.0835-0.3144,0.1352-0.4685c0.075-0.2232,0.1648-0.4412,0.2535-0.6593c0.0223-0.0547,0.07-0.1629,0.07-0.1629l4.3923,3.8938
			L45.6324,29.5044z"/>
		<path class="st7" d="M46.6241,29.665c0.6503,0.9088,1.7446,1.7673,2.0769,2.1802c0.3323,0.4129,0.5463,0.805,0.062,1.3329
			c-0.4844,0.5279-1.0335,0.2284-1.4672-0.062c-0.4337-0.2904-1.1905-1.2313-2.2732-1.9529L46.6241,29.665z"/>
		<path class="st7" d="M46.2408,31.194l-0.8441-0.381 M46.379,29.8941c0.0582,0.1912,0.0138,0.4026,0.087,0.586
			c0.0724,0.1813,0.3365,0.4794,0.3365,0.4794s-0.1679,0.0235-0.2463,0.0539c-0.1135,0.0441-0.2869,0.065-0.3161,0.1833
			c-0.0255,0.1034,0.0975,0.1926,0.1702,0.2705c0.0697,0.0747,0.1595,0.1289,0.2476,0.1806
			c0.1473,0.0864,0.2974,0.1837,0.4654,0.214c0.2104,0.0379,0.6031-0.2581,0.6395-0.0475c0.0151,0.0876-0.1773,0.0315-0.2571,0.0707
			c-0.1862,0.0915-0.2796,0.2908-0.1157,0.4295c0.1052,0.089,0.2706,0.0563,0.408,0.0677c0.1317,0.0109,0.2822-0.0659,0.3965,0.0004
			c0.1347,0.078,0.304,0.2665,0.2326,0.4048c-0.0735,0.1423-0.3476,0.1385-0.4782,0.0458c-0.0966-0.0685-0.0707-0.2274-0.085-0.3449
			c-0.0042-0.035,0-0.0705,0-0.1057"/>
		<circle class="st7" cx="51.712" cy="35.5235" r="3.1125"/>
		<path class="st9" d="M50.5471,35.6556c-0.5365,0-0.9715,0.4349-0.9715,0.9715c0,0.5365,0.4349,0.9715,0.9715,0.9715
			c0.5365,0,0.9715-0.4349,0.9715-0.9715l0.3366-0.0146c0,0.5365,0.4349,0.9715,0.9715,0.9715s0.9715-0.4349,0.9715-0.9715
			c0-0.5365-0.4349-0.9715-0.9715-0.9715l0.0146-0.1905c0.5365,0,0.9715-0.4349,0.9715-0.9715s-0.4349-0.9715-0.9715-0.9715
			c-0.5365,0-0.9715,0.4349-0.9715,0.9715l-0.3366-0.0292c0-0.5365-0.4349-0.9715-0.9715-0.9715
			c-0.5365,0-0.9715,0.4349-0.9715,0.9715c0,0.5365,0.4349,0.9715,0.9715,0.9715L50.5471,35.6556z"/>
		<circle class="st7" cx="51.712" cy="34.7052" r="0.3507"/>
		<circle class="st7" cx="52.5448" cy="35.5236" r="0.3507"/>
		<circle class="st7" cx="51.7266" cy="36.2688" r="0.3507"/>
		<circle class="st7" cx="50.8643" cy="35.5236" r="0.3507"/>
		<path class="st9" d="M51.6535,37.4021c-0.1281,0.263-0.3029,0.3826-0.5261,0.5261c0.3179,0.1381,0.7056,0.1127,1.0521,0
			C51.9564,37.8165,51.7946,37.6402,51.6535,37.4021z M49.8156,35.4765c-0.263-0.1281-0.3826-0.3029-0.5261-0.5261
			c-0.1381,0.3179-0.1127,0.7056,0,1.0521C49.4012,35.7794,49.5775,35.6176,49.8156,35.4765L49.8156,35.4765z M53.6375,35.5642
			c0.263-0.1281,0.3826-0.3029,0.5261-0.5261c0.1381,0.3179,0.1127,0.7056,0,1.0521C54.052,35.8671,53.8757,35.7053,53.6375,35.5642
			L53.6375,35.5642z M51.7558,33.624c-0.1281-0.263-0.3029-0.3826-0.5261-0.5261c0.3179-0.1381,0.7056-0.1127,1.0521,0
			C52.0587,33.2096,51.8969,33.3859,51.7558,33.624z"/>
		<path class="st10" d="M36.8035,21.6917c0,0,0.0169-0.1215,0-0.1785c-0.0275-0.0929-0.0858-0.1792-0.1579-0.2438
			c-0.061-0.0546-0.1394-0.0942-0.2197-0.1099c-0.0868-0.017-0.1791-0.0028-0.2644,0.0206
			c-0.0581,0.0159-0.1621,0.0797-0.1621,0.0797l-0.3564,0.1469l-0.1323,0.424c0,0-0.0762,0.1339-0.0944,0.2077
			c-0.0194,0.079-0.0338,0.1649-0.0137,0.2438c0.0236,0.0926,0.0776,0.1827,0.1511,0.2438c0.068,0.0565,0.159,0.0895,0.2472,0.0961
			c0.0678,0.0051,0.1991-0.0446,0.1991-0.0446C36.038,22.1308,36.2366,21.79,36.8035,21.6917L36.8035,21.6917z"/>
		<path class="st10" d="M36.0065,21.2555l-0.9301-0.4085l-0.0755,0.0721l0.5069,0.9168c0,0,0.1422-0.2097,0.2245-0.3057
			C35.8165,21.432,36.0065,21.2555,36.0065,21.2555L36.0065,21.2555z"/>
		<circle class="st10" cx="34.975" cy="20.7663" r="0.3828"/>
		<path class="st10" d="M37.5886,22.3741c0.0814,0.6709,0.1757,1.3417,0.3846,2.0126l0.7457,0.683
			c-0.159-0.7016-0.4426-1.4031-0.4408-2.1047L37.5886,22.3741z"/>
		<path class="st10" d="M38.7132,23.338l-2.0517-0.1529l0.6528,0.598l1.8736,0.0811l0.0275-0.0958L38.7132,23.338z"/>
		<path class="st10" d="M41.2406,25.6061c-0.5387,0.203-0.754,0.5354-0.9086,0.8921c-0.1525,0.0134-0.2953,0.0148-0.3458-0.0992
			c0.1283-0.8328,0.725-1.0932,0.8581-1.1459C41.2031,25.1853,41.1366,25.4655,41.2406,25.6061z"/>
		<path class="st10" d="M41.9011,26.2277c-0.5387,0.203-0.754,0.5354-0.9086,0.8921c-0.1525,0.0134-0.2953,0.0148-0.3458-0.0992
			c0.1283-0.8328,0.725-1.0932,0.8581-1.1459C41.8636,25.8069,41.7971,26.087,41.9011,26.2277L41.9011,26.2277z"/>
		<path class="st10" d="M49.4078,32.5126c-0.1761-0.0048-0.3619,0.0361-0.3619,0.0361c0.0073,0.1925-0.0707,0.398-0.2831,0.6295
			c-0.1833,0.1998-0.376,0.2809-0.5681,0.289l-0.0002,0.0002c0,0-0.0682,0.4236,0.0621,0.558
			c0.1525,0.1574,0.6509,0.093,0.6509,0.093l0.0424-0.0272c0.1896-0.3659,0.4499-0.6906,0.7659-0.9551l0.008-0.0302
			c0,0,0.0729-0.3966-0.0516-0.516c-0.0564-0.0545-0.1587-0.0737-0.2644,0L49.4078,32.5126z"/>
		<circle class="st10" cx="54.1084" cy="33.0102" r="0.4238"/>
		<circle class="st10" cx="54.2546" cy="37.92" r="0.4238"/>
		<circle class="st10" cx="49.4908" cy="38.1977" r="0.4238"/>
		<path class="st10" d="M52.4394,21.697l-2.4281,2.0811c0,0,0.1232,0.2691,0.1747,0.4077c0.0475,0.1278,0.0916,0.2575,0.1235,0.39
			c0.047,0.1955,0.0992,0.5949,0.0992,0.5949l2.8306-2.5928C53.1992,21.9854,52.8658,21.7743,52.4394,21.697L52.4394,21.697z"/>
		<path class="st10" d="M52.7824,22.9967l0.5828,0.652l-0.364,0.3502l0.5631,0.5494l0.364-0.364l0.6123,0.6528l0.0057,0.8098
			l-1.394,1.0919l-0.4807-0.3571l0.0275-0.776l-0.3708,0.206l-0.3708-0.2266l-0.0206,0.7004l0.3021-0.2197l0.3296,0.4326
			l0.0343,0.7691l-1.0507,0.9339l-1.2732-1.1299l0.0962-0.3387l0.0553-0.3043l0.0299-0.6031l-0.0475-0.6585L52.7824,22.9967z"/>
		<path class="st10" d="M53.3651,23.6487l0.0149,0.7198l-0.3754-0.3663L53.3651,23.6487z"/>
		<path class="st8" d="M51.5117,27.3702l0.0437,0.8223 M52.002,24.8403l-0.0155,0.7628 M52.342,25.187l-0.0199,0.6212
			 M52.6683,24.936l-0.013,0.6942 M53.1697,25.9956l-0.0075,0.7355 M52.5686,26.4989l-1.0575,0.8855l-1.0813-0.949 M54.5342,24.8305
			l-1.3819,1.1806L52.699,25.606l0.3571-0.3021l-0.3983-0.3777l-0.309,0.2678l-0.3502-0.3571l-0.4532,0.4395l0.4116,0.3227
			l-0.3841,0.3502l0.364,0.3365"/>
		<path class="st10" d="M43.6057,29.5044l-1.1665,1.0699l-0.2583,0.7543l1.5034-0.1602l0.8559-0.8466l0.9113-0.8442l3.9369-3.4113
			c0,0-0.0835-0.3144-0.1352-0.4685c-0.075-0.2232-0.1648-0.4412-0.2535-0.6593c-0.0223-0.0547-0.07-0.1629-0.07-0.1629
			l-4.3923,3.8938L43.6057,29.5044z"/>
		<path class="st10" d="M42.6141,29.665c-0.6503,0.9088-1.7446,1.7673-2.0769,2.1802c-0.3323,0.4129-0.5464,0.805-0.062,1.3329
			c0.4844,0.5279,1.0335,0.2284,1.4672-0.062c0.4337-0.2904,1.1905-1.2313,2.2732-1.9529L42.6141,29.665z"/>
		<path class="st10" d="M42.9973,31.194l0.8441-0.381 M42.8591,29.8941c-0.0582,0.1912-0.0138,0.4026-0.087,0.586
			c-0.0724,0.1813-0.3365,0.4794-0.3365,0.4794s0.1679,0.0235,0.2463,0.0539c0.1135,0.0441,0.2869,0.065,0.3161,0.1833
			c0.0255,0.1034-0.0975,0.1926-0.1702,0.2705c-0.0697,0.0747-0.1595,0.1289-0.2476,0.1806
			c-0.1473,0.0864-0.2974,0.1837-0.4654,0.214c-0.2104,0.0379-0.6031-0.2581-0.6395-0.0475
			c-0.0151,0.0876,0.1773,0.0315,0.2571,0.0707c0.1862,0.0915,0.2796,0.2908,0.1157,0.4295
			c-0.1052,0.089-0.2706,0.0563-0.408,0.0677c-0.1317,0.0109-0.2822-0.0659-0.3965,0.0004c-0.1347,0.078-0.304,0.2665-0.2326,0.4048
			c0.0735,0.1423,0.3476,0.1385,0.4782,0.0458c0.0966-0.0685,0.0707-0.2274,0.085-0.3449c0.0042-0.035,0-0.0705,0-0.1057"/>
		<circle class="st10" cx="37.5262" cy="35.5235" r="3.1125"/>
		<path class="st9" d="M38.691,35.6556c0.5365,0,0.9715,0.4349,0.9715,0.9715c0,0.5365-0.4349,0.9715-0.9715,0.9715
			s-0.9715-0.4349-0.9715-0.9715l-0.3366-0.0146c0,0.5365-0.4349,0.9715-0.9715,0.9715S35.44,37.149,35.44,36.6125
			c0-0.5365,0.4349-0.9715,0.9715-0.9715l-0.0146-0.1905c-0.5365,0-0.9715-0.4349-0.9715-0.9715s0.4349-0.9715,0.9715-0.9715
			c0.5365,0,0.9715,0.4349,0.9715,0.9715l0.3366-0.0292c0-0.5365,0.4349-0.9715,0.9715-0.9715c0.5365,0,0.9715,0.4349,0.9715,0.9715
			c0,0.5365-0.4349,0.9715-0.9715,0.9715L38.691,35.6556z"/>
		<circle class="st10" cx="37.5261" cy="34.7052" r="0.3507"/>
		<circle class="st10" cx="36.6933" cy="35.5236" r="0.3507"/>
		<circle class="st10" cx="37.5115" cy="36.2688" r="0.3507"/>
		<circle class="st10" cx="38.3738" cy="35.5236" r="0.3507"/>
		<path class="st9" d="M37.5846,37.4021c0.1281,0.263,0.3029,0.3826,0.5261,0.5261c-0.3179,0.1381-0.7056,0.1127-1.0521,0
			C37.2817,37.8165,37.4436,37.6402,37.5846,37.4021z M39.4225,35.4765c0.263-0.1281,0.3826-0.3029,0.5261-0.5261
			c0.1381,0.3179,0.1127,0.7056,0,1.0521C39.837,35.7794,39.6607,35.6176,39.4225,35.4765L39.4225,35.4765z M35.6006,35.5642
			c-0.263-0.1281-0.3826-0.3029-0.5261-0.5261c-0.1381,0.3179-0.1127,0.7056,0,1.0521
			C35.1861,35.8671,35.3625,35.7053,35.6006,35.5642L35.6006,35.5642z M37.4823,33.624c0.1281-0.263,0.3029-0.3826,0.5261-0.5261
			c-0.3179-0.1381-0.7056-0.1127-1.0521,0C37.1795,33.2096,37.3413,33.3859,37.4823,33.624z"/>
		<path class="st7" d="M52.4346,21.6917c0,0-0.0169-0.1215,0-0.1785c0.0275-0.0929,0.0858-0.1792,0.1579-0.2438
			c0.061-0.0546,0.1394-0.0942,0.2197-0.1099c0.0868-0.017,0.1791-0.0028,0.2644,0.0206c0.0581,0.0159,0.1621,0.0797,0.1621,0.0797
			l0.3564,0.1469l0.1323,0.424c0,0,0.0762,0.1339,0.0944,0.2077c0.0195,0.079,0.0338,0.1649,0.0137,0.2438
			c-0.0236,0.0926-0.0776,0.1827-0.1511,0.2438c-0.068,0.0565-0.159,0.0895-0.2472,0.0961
			c-0.0678,0.0051-0.1991-0.0446-0.1991-0.0446C53.2001,22.1308,53.0015,21.79,52.4346,21.6917L52.4346,21.6917z"/>
		<path class="st7" d="M53.2317,21.2555l0.9301-0.4085l0.0755,0.0721l-0.5069,0.9168c0,0-0.1422-0.2097-0.2245-0.3057
			C53.4217,21.432,53.2317,21.2555,53.2317,21.2555L53.2317,21.2555z"/>
		<circle class="st7" cx="54.2631" cy="20.7663" r="0.3828"/>
		<path class="st7" d="M51.6496,22.3741c-0.0814,0.6709-0.1757,1.3417-0.3846,2.0126l-0.7457,0.683
			c0.159-0.7016,0.4426-1.4031,0.4408-2.1047L51.6496,22.3741z"/>
		<path class="st7" d="M50.5249,23.338l2.0517-0.1529l-0.6528,0.598l-1.8736,0.0811l-0.0275-0.0958L50.5249,23.338z"/>
		<path class="st7" d="M47.9975,25.6061c0.5387,0.203,0.754,0.5354,0.9086,0.8921c0.1525,0.0134,0.2953,0.0148,0.3459-0.0992
			c-0.1283-0.8328-0.725-1.0932-0.8581-1.1459C48.0351,25.1853,48.1016,25.4655,47.9975,25.6061z"/>
		<path class="st7" d="M47.337,26.2277c0.5387,0.203,0.754,0.5354,0.9086,0.8921c0.1525,0.0134,0.2953,0.0148,0.3459-0.0992
			c-0.1283-0.8328-0.725-1.0932-0.8581-1.1459C47.3746,25.8069,47.4411,26.087,47.337,26.2277L47.337,26.2277z"/>
		<path class="st7" d="M39.8303,32.5126c0.1761-0.0048,0.3619,0.0361,0.3619,0.0361c-0.0073,0.1925,0.0707,0.398,0.2831,0.6295
			c0.1833,0.1998,0.376,0.2809,0.5681,0.289l0.0002,0.0002c0,0,0.0682,0.4236-0.0621,0.558
			c-0.1525,0.1574-0.6509,0.093-0.6509,0.093l-0.0424-0.0272c-0.1896-0.3659-0.4499-0.6906-0.7659-0.9551l-0.008-0.0302
			c0,0-0.0729-0.3966,0.0516-0.516c0.0564-0.0545,0.1587-0.0737,0.2644,0L39.8303,32.5126z"/>
		<circle class="st7" cx="35.1297" cy="33.0102" r="0.4238"/>
		<circle class="st7" cx="34.9836" cy="37.92" r="0.4238"/>
		<circle class="st7" cx="39.7473" cy="38.1977" r="0.4238"/>
		<path id="piece1" class="st11" d="M44.8606,28.2187c0,0.1291-0.108,0.179-0.3178,0.179c-0.2098,0-0.3069-0.0608-0.3069-0.19
			c0-0.1291,0.097-0.1607,0.3069-0.1607C44.7526,28.047,44.8606,28.0896,44.8606,28.2187z"/>
		<path id="piece1_1_" class="st11" d="M45.014,28.5621c0,0.1291-0.108,0.179-0.3178,0.179s-0.3069-0.0608-0.3069-0.19
			c0-0.1291,0.097-0.1607,0.3069-0.1607S45.014,28.433,45.014,28.5621z"/>
		<path class="st11" d="M45.0562,29.0086c-0.0425,0.1219-0.1609,0.1335-0.3591,0.0643c-0.1981-0.0691-0.2697-0.1585-0.2272-0.2804
			c0.0425-0.1219,0.1446-0.1198,0.3427-0.0507C45.0107,28.8109,45.0987,28.8866,45.0562,29.0086L45.0562,29.0086z"/>
		<path id="piece2" class="st11" d="M45.0602,29.3402c-0.0256,0.1266-0.1413,0.1541-0.347,0.1125
			c-0.2057-0.0415-0.2887-0.1204-0.2632-0.247c0.0256-0.1266,0.1269-0.1383,0.3326-0.0968
			C44.9884,29.1506,45.0858,29.2137,45.0602,29.3402L45.0602,29.3402z"/>
		<path id="piece2_1_" class="st11" d="M45.1553,29.7277c-0.0256,0.1266-0.1413,0.1541-0.347,0.1125
			c-0.2057-0.0415-0.2887-0.1204-0.2632-0.247c0.0256-0.1266,0.1269-0.1383,0.3326-0.0968
			C45.0834,29.538,45.1808,29.6011,45.1553,29.7277L45.1553,29.7277z"/>
		<path class="st11" d="M46.1215,29.1888c-0.0622-0.0166-0.0553-0.1273-0.038-0.1893c0.0266-0.0952,0.2005-0.2186,0.2005-0.2186
			s0.0424,0.1335,0.0228,0.1964C46.2789,29.0668,46.2121,29.213,46.1215,29.1888L46.1215,29.1888z"/>
		<path class="st11" d="M45.895,29.3861c-0.0677-0.0149-0.0764-0.1325-0.0587-0.1996c0.0274-0.1038,0.2315-0.2238,0.2315-0.2238
			s0.0354,0.145,0.0125,0.2119C46.0499,29.2633,45.9865,29.4062,45.895,29.3861L45.895,29.3861z"/>
		<path class="st11" d="M45.6365,29.7602c-0.103-0.0273-0.0913-0.2103-0.0638-0.3133c0.0227-0.085,0.0892-0.2189,0.1747-0.198
			c0.1,0.0244,0.0987,0.1997,0.0745,0.2998C45.7997,29.6399,45.7271,29.7843,45.6365,29.7602L45.6365,29.7602z"/>
		<path class="st11" d="M45.3295,30.0526c-0.1011-0.0222-0.1442-0.1833-0.1239-0.2849c0.0212-0.1066,0.1286-0.2498,0.2348-0.2263
			c0.1071,0.0237,0.1441,0.2005,0.1183,0.3071C45.5346,29.9478,45.4294,30.0745,45.3295,30.0526z"/>
		<path class="st11" d="M45.2762,30.2299c-0.0258,0.1221-0.1801,0.1646-0.2751,0.1337c-0.0997-0.0325-0.2299-0.1725-0.2026-0.3006
			c0.0275-0.1293,0.1963-0.1635,0.2958-0.1254C45.1871,29.9731,45.3018,30.1093,45.2762,30.2299L45.2762,30.2299z"/>
		<path class="st11" d="M43.2353,29.047c0,0,0.1233,0.0608,0.1764,0.115c0.0557,0.057,0.1227,0.0797,0.089,0.1661
			c-0.0339,0.0872-0.1402,0.0573-0.195-0.0037C43.2545,29.2674,43.2353,29.047,43.2353,29.047L43.2353,29.047z"/>
		<path class="st11" d="M43.8442,29.2574c0.1251,0.0251,0.1226,0.1709,0.0586,0.2603c-0.0671,0.0939-0.2612,0.2158-0.3924,0.1893
			c-0.1324-0.0268-0.1162-0.1862-0.0431-0.2798C43.5356,29.34,43.7206,29.2326,43.8442,29.2574L43.8442,29.2574z"/>
		<path id="piece3" class="st11" d="M44.2622,29.5332c0.1165,0.0521,0.0819,0.1937,0,0.2668
			c-0.0862,0.0768-0.3023,0.153-0.4244,0.0982c-0.1232-0.0553-0.0724-0.2072,0.0196-0.2824
			c0.0858-0.0701,0.2899-0.1341,0.405-0.0827L44.2622,29.5332z"/>
		<path id="piece3_1_" class="st11" d="M44.5982,29.7891c0.1165,0.0521,0.0819,0.1937,0,0.2668
			c-0.0862,0.0768-0.3023,0.153-0.4244,0.0982c-0.1232-0.0553-0.0724-0.2072,0.0196-0.2824
			c0.0858-0.0701,0.2899-0.1341,0.405-0.0827L44.5982,29.7891z"/>
		<path class="st11" d="M44.7113,30.0163c0.1149,0.0181,0.1457,0.178,0.11,0.2807c-0.0374,0.1079-0.1794,0.2561-0.2999,0.2369
			c-0.1216-0.0194-0.1436-0.1952-0.1008-0.3032C44.4605,30.1299,44.5978,29.9984,44.7113,30.0163L44.7113,30.0163z"/>
		<path class="st11" d="M45.0024,30.3679c0.0952,0.0554,0.0728,0.2302,0.0099,0.3248c-0.0661,0.0993-0.2363,0.2069-0.3361,0.1486
			c-0.1007-0.0588-0.0657-0.2472,0.0052-0.3451C44.7474,30.405,44.9084,30.3132,45.0024,30.3679L45.0024,30.3679z"/>
		<path class="st11" d="M42.9365,29.4106c0.1018-0.009,0.1724,0.1432,0.171,0.254c-0.0014,0.1164-0.0796,0.2977-0.1865,0.307
			c-0.1079,0.0094-0.1754-0.1608-0.1696-0.2787C42.7569,29.583,42.8359,29.4195,42.9365,29.4106L42.9365,29.4106z"/>
		<path class="st11" d="M43.2698,29.7036c0.0998,0.0224,0.1207,0.1888,0.0857,0.294c-0.0368,0.1105-0.1664,0.2593-0.271,0.2357
			c-0.1056-0.0239-0.1182-0.2066-0.0768-0.317C43.0463,29.8132,43.1713,29.6815,43.2698,29.7036L43.2698,29.7036z"/>
		<path class="st11" d="M43.579,29.9098c0.1181,0.0278,0.1428,0.2345,0.1014,0.3652c-0.0435,0.1372-0.197,0.3221-0.3209,0.2927
			c-0.125-0.0297-0.1399-0.2565-0.0909-0.3937C43.3143,30.0459,43.4623,29.8823,43.579,29.9098L43.579,29.9098z"/>
		<path class="st11" d="M43.8293,30.1632c0.1203-0.0155,0.2161,0.1694,0.2232,0.3063c0.0074,0.1437-0.0713,0.3708-0.1976,0.3868
			c-0.1275,0.0161-0.2211-0.191-0.2234-0.3367C43.6293,30.3836,43.7104,30.1785,43.8293,30.1632L43.8293,30.1632z"/>
		<path id="piece4" class="st11" d="M44.1262,30.3758c0.1094-0.0128,0.1964,0.1404,0.2028,0.2539
			c0.0068,0.1191-0.0648,0.3073-0.1796,0.3206c-0.1158,0.0134-0.2009-0.1584-0.203-0.2791
			C43.9445,30.5586,44.0182,30.3885,44.1262,30.3758L44.1262,30.3758z"/>
		<path id="piece4_1_" class="st11" d="M44.4331,30.6243c0.1094-0.0128,0.1964,0.1404,0.2028,0.2539
			c0.0068,0.1191-0.0648,0.3073-0.1796,0.3206c-0.1158,0.0134-0.2009-0.1584-0.203-0.2791
			C44.2514,30.807,44.3251,30.6369,44.4331,30.6243L44.4331,30.6243z"/>
		<path id="piece5" class="st11" d="M46.3027,30.0211c-0.0778,0.0683-0.2331,0.0075-0.3029-0.069
			c-0.0733-0.0803-0.125-0.2517-0.0432-0.3232c0.0826-0.0722,0.2469,0.0027,0.3175,0.0867
			C46.3399,29.7939,46.3796,29.9537,46.3027,30.0211L46.3027,30.0211z"/>
		<path id="piece5_1_" class="st11" d="M46.1347,30.3281c-0.0778,0.0683-0.2331,0.0075-0.3029-0.069
			c-0.0733-0.0803-0.125-0.2517-0.0432-0.3232c0.0826-0.0722,0.2469,0.0027,0.3175,0.0867
			C46.1719,30.1009,46.2116,30.2607,46.1347,30.3281L46.1347,30.3281z"/>
		<path id="piece5_2_" class="st11" d="M45.8352,30.584c-0.0778,0.0683-0.2331,0.0075-0.3029-0.069
			c-0.0733-0.0803-0.125-0.2517-0.0432-0.3232c0.0826-0.0722,0.2469,0.0027,0.3175,0.0867
			C45.8724,30.3567,45.9121,30.5165,45.8352,30.584L45.8352,30.584z"/>
		<path class="st11" d="M45.7246,30.7483c-0.0273,0.0999-0.1904,0.1347-0.2908,0.1094c-0.1054-0.0266-0.243-0.1411-0.2142-0.2459
			c0.0291-0.1058,0.2075-0.1338,0.3127-0.1026C45.6303,30.5382,45.7515,30.6496,45.7246,30.7483z"/>
		<path class="st11" d="M45.2923,30.6766c0.0874,0.0609,0.0669,0.2532,0.009,0.3573c-0.0607,0.1093-0.217,0.2277-0.3086,0.1635
			c-0.0925-0.0647-0.0603-0.272,0.0048-0.3797C45.0581,30.7174,45.206,30.6164,45.2923,30.6766L45.2923,30.6766z"/>
		<path class="st11" d="M44.8709,30.9012c0.0952,0.0554,0.0728,0.2302,0.0099,0.3248c-0.0661,0.0993-0.2363,0.2069-0.3361,0.1486
			c-0.1007-0.0588-0.0657-0.2472,0.0052-0.3451C44.6159,30.9383,44.7769,30.8465,44.8709,30.9012L44.8709,30.9012z"/>
		<path id="piece6" class="st11" d="M43.9522,31.5098c-0.0814,0.0776-0.0181,0.2705,0.0666,0.3668
			c0.0889,0.101,0.2831,0.1945,0.3684,0.1129c0.0861-0.0824,0.007-0.2886-0.0862-0.3871
			C44.2139,31.5104,44.0325,31.4332,43.9522,31.5098L43.9522,31.5098z"/>
		<path id="piece6_1_" class="st11" d="M43.7765,31.8406c-0.0814,0.0776-0.0181,0.2705,0.0666,0.3668
			c0.0889,0.101,0.2831,0.1945,0.3684,0.1129c0.0861-0.0824,0.007-0.2886-0.0862-0.3871
			C44.0382,31.8411,43.8569,31.7639,43.7765,31.8406L43.7765,31.8406z"/>
		<path id="piece7" class="st11" d="M43.6999,32.1492c-0.1044,0.042-0.117,0.2446-0.074,0.3653
			c0.0452,0.1268,0.1909,0.2855,0.3004,0.2413c0.1105-0.0447,0.1134-0.2655,0.0633-0.3916
			C43.9428,32.2466,43.803,32.1077,43.6999,32.1492L43.6999,32.1492z"/>
		<path id="piece7_1_" class="st11" d="M43.4468,32.5057c-0.1044,0.042-0.117,0.2446-0.074,0.3653
			c0.0452,0.1268,0.1909,0.2855,0.3004,0.2412c0.1105-0.0447,0.1134-0.2655,0.0633-0.3916
			C43.6897,32.6031,43.5498,32.4642,43.4468,32.5057L43.4468,32.5057z"/>
		<path id="piece8" class="st11" d="M43.2638,32.905c-0.1097,0.0249-0.1543,0.2229-0.131,0.349
			c0.0245,0.1323,0.1432,0.3122,0.2583,0.2858c0.1161-0.0266,0.1541-0.2441,0.1246-0.3766
			C43.4882,33.0397,43.3722,32.8804,43.2638,32.905L43.2638,32.905z"/>
		<path id="piece8_1_" class="st11" d="M43.0209,33.2873c-0.1097,0.0249-0.1543,0.2229-0.131,0.349
			c0.0245,0.1323,0.1432,0.3122,0.2583,0.2858c0.1161-0.0266,0.1541-0.2441,0.1246-0.3766
			C43.2453,33.422,43.1293,33.2627,43.0209,33.2873L43.0209,33.2873z"/>
		<path id="piece9" class="st11" d="M42.8174,33.6792c-0.1124,0.0041-0.193,0.1904-0.1934,0.3186
			c-0.0005,0.1346,0.0828,0.3333,0.2008,0.3288c0.1191-0.0046,0.1967-0.2113,0.1922-0.3469
			C43.0129,33.8532,42.9285,33.6751,42.8174,33.6792L42.8174,33.6792z"/>
		<path id="piece9_1_" class="st11" d="M42.5695,34.139c-0.1124,0.0041-0.193,0.1904-0.1934,0.3186
			c-0.0005,0.1346,0.0828,0.3333,0.2008,0.3288c0.1191-0.0046,0.1967-0.2113,0.1922-0.3469
			C42.765,34.313,42.6805,34.135,42.5695,34.139L42.5695,34.139z"/>
		<path id="piece9_2_" class="st11" d="M42.2801,34.5677c-0.1124,0.0041-0.193,0.1904-0.1934,0.3186
			c-0.0005,0.1346,0.0828,0.3333,0.2008,0.3288c0.1191-0.0046,0.1967-0.2113,0.1922-0.3469
			C42.4756,34.7417,42.3911,34.5636,42.2801,34.5677L42.2801,34.5677z"/>
		<path id="piece9_3_" class="st11" d="M41.9806,34.9346c-0.1124,0.0041-0.193,0.1904-0.1934,0.3186
			c-0.0005,0.1346,0.0828,0.3333,0.2008,0.3288c0.1191-0.0046,0.1967-0.2113,0.1922-0.3469
			C42.176,35.1086,42.0916,34.9306,41.9806,34.9346L41.9806,34.9346z"/>
		<path id="piece9_4_" class="st11" d="M41.6705,35.2754c-0.1124,0.0041-0.193,0.1904-0.1934,0.3186
			c-0.0005,0.1346,0.0828,0.3333,0.2008,0.3288c0.1191-0.0046,0.1967-0.2113,0.1922-0.3469
			C41.866,35.4494,41.7815,35.2714,41.6705,35.2754L41.6705,35.2754z"/>
		<path id="piece9_5_" class="st11" d="M41.3297,35.5546c-0.1124,0.0041-0.193,0.1904-0.1934,0.3186
			c-0.0005,0.1346,0.0828,0.3333,0.2008,0.3288c0.1191-0.0046,0.1967-0.2113,0.1922-0.3469
			C41.5252,35.7286,41.4407,35.5505,41.3297,35.5546L41.3297,35.5546z"/>
		<path id="piece9_6_" class="st11" d="M41.004,35.8541c-0.1124,0.0041-0.193,0.1904-0.1934,0.3186
			c-0.0005,0.1346,0.0828,0.3333,0.2008,0.3288c0.1191-0.0046,0.1967-0.2113,0.1922-0.3469
			C41.1995,36.0281,41.115,35.85,41.004,35.8541L41.004,35.8541z"/>
		<path class="st11" d="M40.627,36.0041l-0.1263,0.4943c0,0,0.0704,0.176,0.144,0.1686c0.1315-0.0132,0.1672-0.2171,0.1922-0.3469
			C40.8596,36.1179,40.627,36.0041,40.627,36.0041z"/>
		<path class="st11" d="M48.413,36.318c0.0386,0.147,0.3662,0.2715,0.3662,0.2715l-0.1596-0.6662
			C48.4824,35.927,48.3918,36.2218,48.413,36.318z"/>
		<path class="st11" d="M48.3842,35.7828c-0.1046-0.0413-0.2532,0.097-0.305,0.2143c-0.0544,0.1231-0.0578,0.3386,0.0521,0.3817
			c0.1109,0.0436,0.2649-0.1147,0.3153-0.2407C48.4935,36.0206,48.4876,35.8236,48.3842,35.7828L48.3842,35.7828z"/>
		<path id="piece10" class="st11" d="M48.0197,35.4881c-0.1123-0.0058-0.2091,0.1726-0.2208,0.3003
			c-0.0123,0.134,0.053,0.3393,0.171,0.3452c0.119,0.006,0.2146-0.1931,0.2221-0.3286
			C48.199,35.6787,48.1306,35.4938,48.0197,35.4881L48.0197,35.4881z"/>
		<path id="piece10_1_" class="st11" d="M47.6981,35.1593c-0.1123-0.0058-0.2091,0.1726-0.2209,0.3003
			c-0.0123,0.134,0.0531,0.3393,0.171,0.3452c0.119,0.006,0.2146-0.1931,0.2221-0.3286
			C47.8774,35.3499,47.809,35.165,47.6981,35.1593L47.6981,35.1593z"/>
		<path id="piece10_2_" class="st11" d="M47.3986,34.7866c-0.1123-0.0058-0.2091,0.1726-0.2208,0.3003
			c-0.0123,0.134,0.0531,0.3393,0.171,0.3452c0.119,0.006,0.2146-0.1931,0.2221-0.3286
			C47.5779,34.9772,47.5095,34.7923,47.3986,34.7866L47.3986,34.7866z"/>
		<path id="piece10_3_" class="st11" d="M47.0918,34.4724c-0.1123-0.0058-0.2091,0.1726-0.2208,0.3003
			c-0.0123,0.134,0.0531,0.3393,0.171,0.3452c0.119,0.006,0.2146-0.1931,0.2221-0.3286
			C47.2712,34.663,47.2028,34.4782,47.0918,34.4724L47.0918,34.4724z"/>
		<path id="piece10_4_" class="st11" d="M46.8434,34.0414c-0.1123-0.0058-0.2091,0.1726-0.2208,0.3003
			c-0.0123,0.134,0.0531,0.3393,0.171,0.3452c0.119,0.006,0.2146-0.1931,0.2221-0.3286
			C47.0228,34.232,46.9544,34.0471,46.8434,34.0414L46.8434,34.0414z"/>
		<path id="piece10_5_" class="st11" d="M46.573,33.6542c-0.1123-0.0058-0.2091,0.1726-0.2208,0.3003
			c-0.0123,0.134,0.0531,0.3393,0.171,0.3452c0.119,0.006,0.2146-0.1931,0.2222-0.3286
			C46.7523,33.8448,46.6839,33.66,46.573,33.6542L46.573,33.6542z"/>
		<path id="piece10_6_" class="st11" d="M46.3246,33.245c-0.1123-0.0058-0.2091,0.1726-0.2208,0.3003
			c-0.0123,0.134,0.0531,0.3393,0.171,0.3452c0.119,0.006,0.2146-0.1931,0.2222-0.3286
			C46.5039,33.4356,46.4355,33.2508,46.3246,33.245L46.3246,33.245z"/>
		<path id="piece10_7_" class="st11" d="M46.1054,32.7701c-0.1123-0.0058-0.2091,0.1726-0.2208,0.3003
			c-0.0123,0.134,0.0531,0.3393,0.171,0.3452c0.119,0.006,0.2146-0.1931,0.2222-0.3286
			C46.2848,32.9607,46.2164,32.7758,46.1054,32.7701L46.1054,32.7701z"/>
		<path id="piece10_8_" class="st11" d="M45.8642,32.339c-0.1123-0.0058-0.2091,0.1726-0.2208,0.3003
			c-0.0123,0.134,0.0531,0.3393,0.171,0.3452c0.119,0.006,0.2146-0.1931,0.2221-0.3286
			C46.0436,32.5296,45.9752,32.3448,45.8642,32.339L45.8642,32.339z"/>
		<path id="piece10_9_" class="st11" d="M45.667,31.8276c-0.1123-0.0058-0.2091,0.1726-0.2208,0.3003
			c-0.0123,0.134,0.0531,0.3393,0.171,0.3452c0.119,0.006,0.2146-0.1931,0.2221-0.3286
			C45.8463,32.0182,45.7779,31.8334,45.667,31.8276L45.667,31.8276z"/>
		<path class="st11" d="M45.2124,31.3094c0,0-0.0395,0.6402,0.1929,0.6813c0.1449,0.0256,0.2587-0.3578,0.2587-0.3578
			L45.2124,31.3094z"/>
		<path id="piece11" class="st11" d="M44.6885,38.658c-0.0691,0.0888,0.0219,0.2702,0.1199,0.353
			c0.1028,0.0868,0.3086,0.1507,0.381,0.0573c0.073-0.0942-0.0356-0.2865-0.1424-0.3702
			C44.9474,38.62,44.7567,38.5703,44.6885,38.658L44.6885,38.658z"/>
		<path id="piece11_1_" class="st11" d="M45.1277,38.6064c-0.0691,0.0888,0.0219,0.2702,0.1199,0.353
			c0.1028,0.0868,0.3086,0.1507,0.381,0.0574c0.073-0.0942-0.0356-0.2865-0.1423-0.3702
			C45.3866,38.5684,45.1959,38.5187,45.1277,38.6064L45.1277,38.6064z"/>
		<path id="piece11_2_" class="st11" d="M45.5719,38.5186c-0.0691,0.0888,0.0219,0.2702,0.1199,0.353
			c0.1028,0.0868,0.3086,0.1507,0.381,0.0574c0.073-0.0942-0.0356-0.2865-0.1423-0.3702
			C45.8308,38.4805,45.6401,38.4309,45.5719,38.5186L45.5719,38.5186z"/>
		<path id="piece12" class="st11" d="M45.9883,38.4912c-0.055,0.0981,0.0623,0.2639,0.1715,0.331
			c0.1147,0.0704,0.3278,0.1026,0.3853-0.0005c0.058-0.1041-0.0782-0.2779-0.1963-0.3446
			C46.2386,38.4147,46.0426,38.3943,45.9883,38.4912L45.9883,38.4912z"/>
		<path id="piece12_1_" class="st11" d="M46.4688,38.4139c-0.055,0.0981,0.0623,0.2639,0.1715,0.3309
			c0.1147,0.0704,0.3278,0.1026,0.3853-0.0005c0.058-0.1041-0.0782-0.2779-0.1963-0.3446
			C46.7191,38.3375,46.5231,38.317,46.4688,38.4139L46.4688,38.4139z"/>
		<path id="piece13" class="st11" d="M46.8835,38.2903c-0.0457,0.1028,0.0864,0.257,0.2013,0.3137
			c0.1207,0.0595,0.3358,0.0719,0.3836-0.0361c0.0482-0.109-0.1035-0.2695-0.2273-0.3251
			C47.1257,38.1911,46.9286,38.1888,46.8835,38.2903L46.8835,38.2903z"/>
		<path id="piece13_1_" class="st11" d="M47.3381,38.1562c-0.0457,0.1028,0.0864,0.257,0.2013,0.3137
			c0.1207,0.0595,0.3358,0.0719,0.3836-0.0361c0.0482-0.109-0.1035-0.2695-0.2273-0.3251
			C47.5802,38.0569,47.3832,38.0546,47.3381,38.1562L47.3381,38.1562z"/>
		<path id="piece14" class="st11" d="M47.7902,38.0134c-0.0395,0.1053,0.1014,0.2515,0.2195,0.3013
			c0.124,0.0523,0.3395,0.052,0.3808-0.0587c0.0416-0.1116-0.1192-0.2629-0.2461-0.3111
			C48.0261,37.9,47.8293,37.9093,47.7902,38.0134L47.7902,38.0134z"/>
		<path id="piece14_1_" class="st11" d="M48.2501,37.8636c-0.0395,0.1053,0.1014,0.2515,0.2195,0.3013
			c0.124,0.0523,0.3395,0.052,0.3808-0.0587c0.0416-0.1116-0.1192-0.2629-0.2461-0.3111
			C48.486,37.7502,48.2891,37.7596,48.2501,37.8636L48.2501,37.8636z"/>
		<path id="piece14_2_" class="st11" d="M48.6943,37.6776c-0.0395,0.1053,0.1014,0.2515,0.2195,0.3013
			c0.124,0.0523,0.3395,0.052,0.3808-0.0587c0.0416-0.1116-0.1192-0.2629-0.2461-0.3111
			C48.9302,37.5642,48.7333,37.5736,48.6943,37.6776L48.6943,37.6776z"/>
		<path id="piece14_3_" class="st11" d="M49.1698,37.4813c-0.0395,0.1053,0.1014,0.2515,0.2195,0.3013
			c0.124,0.0523,0.3395,0.052,0.3808-0.0587c0.0416-0.1116-0.1192-0.2629-0.2461-0.3111
			C49.4056,37.3679,49.2088,37.3773,49.1698,37.4813L49.1698,37.4813z"/>
		<path id="piece14_4_" class="st11" d="M49.6502,37.3262c-0.0395,0.1053,0.1014,0.2515,0.2195,0.3013
			c0.124,0.0523,0.3395,0.052,0.3808-0.0587c0.0416-0.1116-0.1192-0.2629-0.2461-0.3111
			C49.8861,37.2129,49.6892,37.2222,49.6502,37.3262L49.6502,37.3262z"/>
		<path id="piece14_5_" class="st11" d="M49.7071,36.9492c-0.0395,0.1053,0.1014,0.2515,0.2195,0.3013
			c0.124,0.0523,0.3395,0.052,0.3808-0.0587c0.0416-0.1116-0.1192-0.2629-0.2461-0.3111
			C49.943,36.8358,49.7461,36.8452,49.7071,36.9492L49.7071,36.9492z"/>
		<path class="st11" d="M49.601,36.8371c0,0,0.3252,0.0478,0.3549-0.069c0.0395-0.1551-0.3701-0.3059-0.3701-0.3059L49.601,36.8371z
			"/>
		<path id="piece15" class="st11" d="M40.8389,37.8142c-0.0957,0.0592-0.0736,0.261-0.0106,0.3726
			c0.0662,0.1172,0.2368,0.2487,0.3371,0.1865c0.1012-0.0628,0.0664-0.2809-0.0045-0.3966
			C41.0948,37.8687,40.9334,37.7557,40.8389,37.8142L40.8389,37.8142z"/>
		<path id="piece15_1_" class="st11" d="M41.2934,38.0002c-0.0957,0.0592-0.0736,0.261-0.0106,0.3726
			c0.0662,0.1172,0.2368,0.2487,0.3371,0.1865c0.1012-0.0628,0.0664-0.2809-0.0045-0.3966
			C41.5494,38.0547,41.3879,37.9417,41.2934,38.0002L41.2934,38.0002z"/>
		<path id="piece15_2_" class="st11" d="M41.7276,38.0674c-0.0957,0.0592-0.0736,0.261-0.0106,0.3726
			c0.0662,0.1172,0.2368,0.2487,0.3371,0.1865c0.1012-0.0628,0.0664-0.2809-0.0045-0.3966
			C41.9835,38.1219,41.8221,38.0089,41.7276,38.0674L41.7276,38.0674z"/>
		<path id="piece15_3_" class="st11" d="M42.2028,38.1862c-0.0957,0.0592-0.0736,0.261-0.0106,0.3726
			c0.0662,0.1172,0.2368,0.2487,0.3371,0.1865c0.1012-0.0628,0.0664-0.2809-0.0045-0.3966
			C42.4587,38.2407,42.2973,38.1277,42.2028,38.1862L42.2028,38.1862z"/>
		<path id="piece15_4_" class="st11" d="M42.6317,38.2481c-0.0957,0.0592-0.0736,0.261-0.0106,0.3726
			c0.0662,0.1172,0.2368,0.2488,0.3371,0.1865c0.1012-0.0628,0.0664-0.2809-0.0045-0.3966
			C42.8876,38.3026,42.7262,38.1896,42.6317,38.2481L42.6317,38.2481z"/>
		<path id="piece15_5_" class="st11" d="M43.0553,38.3359c-0.0957,0.0592-0.0736,0.261-0.0106,0.3726
			c0.0662,0.1172,0.2368,0.2488,0.3371,0.1865c0.1012-0.0628,0.0664-0.2809-0.0045-0.3966
			C43.3112,38.3905,43.1498,38.2775,43.0553,38.3359L43.0553,38.3359z"/>
		<path id="piece15_6_" class="st11" d="M43.4892,38.4547c-0.0957,0.0592-0.0736,0.261-0.0106,0.3726
			c0.0662,0.1172,0.2368,0.2487,0.3371,0.1865c0.1012-0.0628,0.0664-0.2809-0.0045-0.3966
			C43.7451,38.5093,43.5837,38.3963,43.4892,38.4547L43.4892,38.4547z"/>
		<path id="piece15_7_" class="st11" d="M43.9181,38.5322c-0.0957,0.0592-0.0736,0.261-0.0106,0.3726
			c0.0662,0.1172,0.2368,0.2488,0.3371,0.1865c0.1012-0.0629,0.0664-0.2809-0.0045-0.3966
			C44.174,38.5868,44.0126,38.4738,43.9181,38.5322L43.9181,38.5322z"/>
		<path id="piece15_8_" class="st11" d="M44.3573,38.5994c-0.0957,0.0592-0.0736,0.261-0.0106,0.3726
			c0.0662,0.1172,0.2368,0.2488,0.3371,0.1865c0.1012-0.0629,0.0664-0.2809-0.0045-0.3966
			C44.6132,38.654,44.4518,38.541,44.3573,38.5994L44.3573,38.5994z"/>
		<path class="st11" d="M39.5558,36.4202c-0.1-0.0515-0.2615,0.0715-0.3247,0.183c-0.0663,0.1171-0.0911,0.3311,0.014,0.385
			c0.106,0.0543,0.275-0.0879,0.3376-0.2083C39.641,36.6677,39.6546,36.4711,39.5558,36.4202L39.5558,36.4202z"/>
		<path class="st11" d="M39.4082,36.8256c-0.106-0.0377-0.2497,0.1056-0.2975,0.2246c-0.0502,0.1249-0.0462,0.3403,0.0651,0.3797
			c0.1123,0.0398,0.2608-0.1237,0.3069-0.2513C39.5256,37.0595,39.5129,36.8628,39.4082,36.8256L39.4082,36.8256z"/>
		<path class="st11" d="M39.5458,37.1986c-0.109-0.028-0.2391,0.1278-0.2759,0.2506c-0.0386,0.1289-0.0152,0.3431,0.0993,0.3723
			c0.1155,0.0294,0.2485-0.1468,0.2828-0.2781C39.6838,37.4209,39.6534,37.2262,39.5458,37.1986L39.5458,37.1986z"/>
		<path class="st11" d="M39.8969,37.3514c-0.108-0.0315-0.2432,0.1199-0.284,0.2415c-0.0428,0.1276-0.0264,0.3424,0.087,0.3753
			c0.1144,0.0332,0.2532-0.1386,0.2917-0.2687C40.0276,37.5782,40.0035,37.3825,39.8969,37.3514L39.8969,37.3514z"/>
		<path id="piece16" class="st11" d="M40.1258,37.4114c-0.1091,0.0272-0.1496,0.2261-0.1236,0.3517
			c0.0273,0.1318,0.1498,0.3091,0.2643,0.2803c0.1156-0.029,0.1488-0.2473,0.1165-0.3791
			C40.353,37.5414,40.2336,37.3846,40.1258,37.4114L40.1258,37.4114z"/>
		<path id="piece16_1_" class="st11" d="M40.5288,37.5612c-0.1091,0.0272-0.1496,0.2261-0.1236,0.3517
			c0.0273,0.1318,0.1498,0.3091,0.2643,0.2803c0.1156-0.029,0.1488-0.2473,0.1165-0.3791
			C40.756,37.6911,40.6366,37.5343,40.5288,37.5612L40.5288,37.5612z"/>
		<path id="piece6_2_" class="st11" d="M44.1588,31.2413c-0.0814,0.0776-0.0181,0.2705,0.0666,0.3668
			c0.0889,0.101,0.2831,0.1945,0.3684,0.1129c0.0861-0.0824,0.007-0.2886-0.0862-0.3871
			C44.4205,31.2419,44.2392,31.1646,44.1588,31.2413L44.1588,31.2413z"/>
		<path id="piece6_3_" class="st11" d="M44.064,31.6651c-0.0814,0.0776-0.0181,0.2705,0.0666,0.3668
			c0.0889,0.101,0.2831,0.1945,0.3684,0.1129c0.0861-0.0824,0.007-0.2886-0.0862-0.3871
			C44.3257,31.6657,44.1444,31.5884,44.064,31.6651L44.064,31.6651z"/>
		<path id="piece6_4_" class="st11" d="M44.07,32.1501c-0.0814,0.0776-0.0181,0.2705,0.0666,0.3668
			c0.0889,0.101,0.2831,0.1945,0.3684,0.1129c0.0861-0.0824,0.007-0.2886-0.0862-0.3871
			C44.3317,32.1507,44.1504,32.0735,44.07,32.1501L44.07,32.1501z"/>
		<path id="piece6_5_" class="st11" d="M44.064,32.6587c-0.0814,0.0776-0.0181,0.2705,0.0666,0.3668
			c0.0889,0.101,0.2831,0.1945,0.3684,0.1129c0.0861-0.0824,0.007-0.2886-0.0862-0.3871
			C44.3257,32.6593,44.1444,32.582,44.064,32.6587L44.064,32.6587z"/>
		<path id="piece6_6_" class="st11" d="M44.0858,33.1555c-0.0814,0.0776-0.0181,0.2705,0.0666,0.3668
			c0.0889,0.101,0.2831,0.1945,0.3684,0.1129c0.0861-0.0824,0.007-0.2886-0.0862-0.3871
			C44.3475,33.1561,44.1662,33.0788,44.0858,33.1555L44.0858,33.1555z"/>
		<path id="piece6_7_" class="st11" d="M44.0054,33.6158c-0.0814,0.0776-0.0181,0.2705,0.0666,0.3668
			c0.0889,0.101,0.2831,0.1945,0.3684,0.1129c0.0861-0.0824,0.007-0.2886-0.0862-0.3871
			C44.2671,33.6164,44.0858,33.5392,44.0054,33.6158L44.0054,33.6158z"/>
		<path id="piece6_8_" class="st11" d="M44.064,34.1273c-0.0814,0.0776-0.0181,0.2705,0.0666,0.3668
			c0.0889,0.101,0.2831,0.1945,0.3684,0.1129c0.0861-0.0824,0.007-0.2886-0.0862-0.3871
			C44.3257,34.1278,44.1444,34.0506,44.064,34.1273L44.064,34.1273z"/>
		<path id="piece6_9_" class="st11" d="M44.0054,34.5437c-0.0814,0.0776-0.0181,0.2705,0.0666,0.3668
			c0.0889,0.101,0.2831,0.1945,0.3684,0.1129c0.0861-0.0824,0.007-0.2886-0.0862-0.3871
			C44.2671,34.5442,44.0858,34.467,44.0054,34.5437L44.0054,34.5437z"/>
		<path id="piece6_10_" class="st11" d="M44.064,34.9529c-0.0814,0.0776-0.0181,0.2705,0.0666,0.3668
			c0.0889,0.101,0.2831,0.1945,0.3684,0.1129c0.0861-0.0824,0.007-0.2886-0.0862-0.3871
			C44.3257,34.9534,44.1444,34.8762,44.064,34.9529L44.064,34.9529z"/>
		<path id="piece6_11_" class="st11" d="M44.064,35.4425c-0.0814,0.0776-0.0181,0.2705,0.0666,0.3668
			c0.0889,0.101,0.2831,0.1945,0.3684,0.1129c0.0861-0.0824,0.007-0.2886-0.0862-0.3871
			C44.3257,35.443,44.1444,35.3658,44.064,35.4425L44.064,35.4425z"/>
		<path id="piece6_12_" class="st11" d="M44.0347,35.9246c-0.0814,0.0776-0.0181,0.2705,0.0666,0.3668
			c0.0889,0.101,0.2831,0.1945,0.3684,0.1129c0.0861-0.0824,0.007-0.2886-0.0862-0.3871
			C44.2964,35.9252,44.1151,35.848,44.0347,35.9246L44.0347,35.9246z"/>
		<path id="piece6_13_" class="st11" d="M44.0419,36.385c-0.0814,0.0776-0.0181,0.2705,0.0666,0.3668
			c0.0889,0.101,0.2831,0.1945,0.3684,0.1129c0.0861-0.0824,0.007-0.2886-0.0862-0.3871
			C44.3036,36.3855,44.1223,36.3083,44.0419,36.385L44.0419,36.385z"/>
		<path id="piece6_14_" class="st11" d="M44.0566,36.8743c-0.0814,0.0776-0.0181,0.2705,0.0666,0.3668
			c0.0889,0.101,0.2831,0.1945,0.3684,0.1129c0.0861-0.0824,0.007-0.2886-0.0862-0.3871
			C44.3183,36.8749,44.1369,36.7976,44.0566,36.8743L44.0566,36.8743z"/>
		<path id="piece6_15_" class="st11" d="M44.0566,37.3493c-0.0814,0.0776-0.0181,0.2705,0.0666,0.3668
			c0.0889,0.101,0.2831,0.1945,0.3684,0.1129c0.0861-0.0824,0.007-0.2886-0.0862-0.3871
			C44.3183,37.3498,44.1369,37.2726,44.0566,37.3493L44.0566,37.3493z"/>
		<path id="piece6_16_" class="st11" d="M44.0419,37.8242c-0.0814,0.0776-0.0181,0.2705,0.0666,0.3668
			c0.0889,0.101,0.2831,0.1945,0.3684,0.1129c0.0861-0.0824,0.007-0.2886-0.0862-0.3871
			C44.3036,37.8248,44.1223,37.7476,44.0419,37.8242L44.0419,37.8242z"/>
		<path id="piece6_17_" class="st11" d="M44.0126,38.3064c-0.0814,0.0776-0.0181,0.2705,0.0666,0.3668
			c0.0889,0.101,0.2831,0.1945,0.3684,0.1129c0.0861-0.0824,0.007-0.2886-0.0862-0.3871
			C44.2743,38.307,44.093,38.2297,44.0126,38.3064L44.0126,38.3064z"/>
		<path id="piece6_18_" class="st11" d="M44.0126,38.8325c-0.0814,0.0776-0.0181,0.2705,0.0666,0.3668
			c0.0889,0.101,0.2831,0.1945,0.3684,0.1129c0.0861-0.0824,0.007-0.2886-0.0862-0.3871
			C44.2743,38.833,44.093,38.7558,44.0126,38.8325L44.0126,38.8325z"/>
		<path id="piece6_19_" class="st11" d="M43.9982,39.3804c-0.0814,0.0776-0.0181,0.2705,0.0666,0.3668
			c0.0889,0.101,0.2831,0.1945,0.3684,0.1129c0.0861-0.0824,0.007-0.2886-0.0862-0.3871
			C44.2599,39.381,44.0786,39.3037,43.9982,39.3804L43.9982,39.3804z"/>
		<path id="piece6_20_" class="st11" d="M43.9982,39.8918c-0.0814,0.0776-0.0181,0.2705,0.0666,0.3668
			c0.0889,0.101,0.2831,0.1945,0.3684,0.1129c0.0861-0.0824,0.007-0.2886-0.0862-0.3871
			C44.2599,39.8924,44.0786,39.8152,43.9982,39.8918L43.9982,39.8918z"/>
		<path id="piece6_21_" class="st11" d="M43.9982,40.3668c-0.0814,0.0776-0.0181,0.2705,0.0666,0.3668
			c0.0889,0.101,0.2831,0.1945,0.3684,0.1129c0.0861-0.0824,0.007-0.2886-0.0862-0.3871
			C44.2599,40.3674,44.0786,40.2901,43.9982,40.3668L43.9982,40.3668z"/>
		<path id="piece6_22_" class="st11" d="M43.9836,40.9003c-0.0814,0.0776-0.0181,0.2705,0.0666,0.3668
			c0.0889,0.101,0.2831,0.1945,0.3684,0.1129c0.0861-0.0824,0.007-0.2886-0.0862-0.3871
			C44.2453,40.9009,44.064,40.8236,43.9836,40.9003L43.9836,40.9003z"/>
		<path id="piece17" class="st11" d="M45.1738,31.2763c0.0586,0.089-0.0317,0.26-0.1239,0.3353
			c-0.0969,0.079-0.2859,0.1311-0.3473,0.0376c-0.0619-0.0944,0.0447-0.275,0.145-0.3509
			C44.9411,31.2275,45.1159,31.1884,45.1738,31.2763L45.1738,31.2763z"/>
		<path id="piece17_1_" class="st11" d="M45.2395,31.6634c0.0586,0.089-0.0317,0.26-0.1239,0.3353
			c-0.0969,0.079-0.2859,0.1311-0.3472,0.0376c-0.0619-0.0944,0.0447-0.275,0.145-0.3509
			C45.0069,31.6146,45.1816,31.5756,45.2395,31.6634L45.2395,31.6634z"/>
		<path id="piece17_2_" class="st11" d="M45.2321,32.0947c0.0586,0.089-0.0317,0.26-0.1239,0.3353
			c-0.0969,0.079-0.2859,0.1311-0.3472,0.0376c-0.0619-0.0944,0.0447-0.275,0.145-0.3509
			C44.9994,32.0459,45.1742,32.0068,45.2321,32.0947L45.2321,32.0947z"/>
		<path id="piece17_3_" class="st11" d="M45.2249,32.533c0.0586,0.089-0.0317,0.26-0.1239,0.3353
			c-0.0969,0.079-0.2859,0.1311-0.3472,0.0376c-0.0619-0.0944,0.0447-0.275,0.145-0.3509
			C44.9922,32.4842,45.167,32.4451,45.2249,32.533L45.2249,32.533z"/>
		<path id="piece17_4_" class="st11" d="M45.2174,32.935c0.0586,0.089-0.0317,0.26-0.1239,0.3353
			c-0.0969,0.079-0.2859,0.1311-0.3472,0.0376c-0.0619-0.0944,0.0447-0.275,0.145-0.3509
			C44.9848,32.8862,45.1596,32.8471,45.2174,32.935L45.2174,32.935z"/>
		<path id="piece17_5_" class="st11" d="M45.2395,33.366c0.0586,0.089-0.0317,0.26-0.1239,0.3353
			c-0.0969,0.079-0.2859,0.1311-0.3472,0.0376c-0.0619-0.0944,0.0447-0.275,0.145-0.3509
			C45.0069,33.3172,45.1816,33.2781,45.2395,33.366L45.2395,33.366z"/>
		<path id="piece17_6_" class="st11" d="M45.2102,33.7824c0.0586,0.089-0.0317,0.26-0.1239,0.3353
			c-0.0969,0.079-0.2859,0.1311-0.3473,0.0376c-0.0619-0.0944,0.0447-0.275,0.145-0.3509
			C44.9776,33.7336,45.1524,33.6945,45.2102,33.7824L45.2102,33.7824z"/>
		<path class="st11" d="M45.198,34.2254c0.0647,0.092-0.035,0.2689-0.1368,0.3468c-0.1069,0.0817-0.3155,0.1356-0.3833,0.0389
			c-0.0684-0.0976,0.0494-0.2844,0.1601-0.3629C44.9412,34.175,45.1341,34.1346,45.198,34.2254L45.198,34.2254z"/>
		<path id="piece18" class="st11" d="M45.1702,34.6459c0.0814,0.0776,0.0181,0.2705-0.0666,0.3668
			c-0.0889,0.101-0.2831,0.1945-0.3684,0.1129c-0.0861-0.0824-0.007-0.2886,0.0862-0.3871
			C44.9085,34.6465,45.0898,34.5692,45.1702,34.6459L45.1702,34.6459z"/>
		<path id="piece18_1_" class="st11" d="M45.1848,35.1355c0.0814,0.0776,0.0181,0.2705-0.0666,0.3668
			c-0.0889,0.101-0.2831,0.1945-0.3684,0.1129c-0.0861-0.0824-0.007-0.2886,0.0862-0.3871
			C44.9231,35.1361,45.1044,35.0588,45.1848,35.1355L45.1848,35.1355z"/>
		<path id="piece18_2_" class="st11" d="M45.1922,35.6177c0.0814,0.0776,0.0181,0.2705-0.0666,0.3668
			c-0.0889,0.101-0.2831,0.1945-0.3684,0.1129c-0.0861-0.0824-0.007-0.2886,0.0862-0.3871
			C44.9305,35.6182,45.1119,35.541,45.1922,35.6177L45.1922,35.6177z"/>
		<path id="piece18_3_" class="st11" d="M45.1776,36.1366c0.0814,0.0776,0.0181,0.2705-0.0666,0.3668
			c-0.0889,0.101-0.2831,0.1945-0.3684,0.1129c-0.0861-0.0824-0.007-0.2886,0.0862-0.3871
			C44.9159,36.1371,45.0972,36.0599,45.1776,36.1366L45.1776,36.1366z"/>
		<path id="piece18_4_" class="st11" d="M45.1922,36.6187c0.0814,0.0776,0.0181,0.2705-0.0666,0.3668
			c-0.0889,0.101-0.2831,0.1945-0.3684,0.1129c-0.0861-0.0824-0.007-0.2886,0.0862-0.3871
			C44.9305,36.6193,45.1119,36.542,45.1922,36.6187L45.1922,36.6187z"/>
		<path id="piece18_5_" class="st11" d="M45.1776,37.1083c0.0814,0.0776,0.0181,0.2705-0.0666,0.3668
			c-0.0889,0.101-0.2831,0.1945-0.3684,0.1129c-0.0861-0.0824-0.007-0.2886,0.0862-0.3871
			C44.9159,37.1089,45.0972,37.0316,45.1776,37.1083L45.1776,37.1083z"/>
		<path id="piece18_6_" class="st11" d="M45.1848,37.5977c0.0814,0.0776,0.0181,0.2705-0.0666,0.3668
			c-0.0889,0.101-0.2831,0.1945-0.3684,0.1129c-0.0861-0.0824-0.007-0.2886,0.0862-0.3871
			C44.9231,37.5982,45.1044,37.521,45.1848,37.5977L45.1848,37.5977z"/>
		<path id="piece18_7_" class="st11" d="M45.1848,38.0945c0.0814,0.0776,0.0181,0.2705-0.0666,0.3668
			c-0.0889,0.101-0.2831,0.1945-0.3684,0.1129c-0.0861-0.0824-0.007-0.2886,0.0862-0.3871
			C44.9231,38.095,45.1044,38.0178,45.1848,38.0945L45.1848,38.0945z"/>
		<path id="piece18_8_" class="st11" d="M45.163,38.5915c0.0814,0.0776,0.0181,0.2705-0.0666,0.3668
			c-0.0889,0.101-0.2831,0.1945-0.3684,0.1129c-0.0861-0.0824-0.007-0.2886,0.0862-0.3871
			C44.9013,38.5921,45.0826,38.5148,45.163,38.5915L45.163,38.5915z"/>
		<path id="piece18_9_" class="st11" d="M45.1922,39.0444c0.0814,0.0776,0.0181,0.2705-0.0666,0.3668
			c-0.0889,0.101-0.2831,0.1945-0.3684,0.1129c-0.0861-0.0824-0.007-0.2886,0.0862-0.3871
			C44.9305,39.045,45.1119,38.9677,45.1922,39.0444L45.1922,39.0444z"/>
		<path id="piece18_10_" class="st11" d="M45.1922,39.5194c0.0814,0.0776,0.0181,0.2705-0.0666,0.3668
			c-0.0889,0.101-0.2831,0.1945-0.3684,0.1129c-0.0861-0.0824-0.007-0.2886,0.0862-0.3871
			C44.9305,39.5199,45.1119,39.4427,45.1922,39.5194L45.1922,39.5194z"/>
		<path id="piece18_11_" class="st11" d="M45.1776,40.0308c0.0814,0.0776,0.0181,0.2705-0.0666,0.3668
			c-0.0889,0.101-0.2831,0.1945-0.3684,0.1129c-0.0861-0.0824-0.007-0.2886,0.0862-0.3871
			C44.9159,40.0314,45.0972,39.9541,45.1776,40.0308L45.1776,40.0308z"/>
		<path id="piece18_12_" class="st11" d="M45.1776,40.5348c0.0814,0.0776,0.0181,0.2705-0.0666,0.3668
			c-0.0889,0.101-0.2831,0.1945-0.3684,0.1129c-0.0861-0.0824-0.007-0.2886,0.0862-0.3871
			C44.9159,40.5354,45.0972,40.4581,45.1776,40.5348L45.1776,40.5348z"/>
		<path class="st11" d="M44.3914,44.3582c0.4776,0.1326,0.7622,0.1257,1.1573,0.0103l-0.4185-0.6716"/>
		<path class="st10" d="M45.3194,42.6278l-0.761-0.1954c0,0,0.0088-0.8444,0.4893-0.7708
			C45.4467,41.7228,45.3354,42.6299,45.3194,42.6278L45.3194,42.6278z"/>
		<circle class="st10" cx="44.9493" cy="41.3513" r="0.31"/>
		<path class="st11" d="M45.2489,43.0046c0.1692,0.4287,0.2729,0.7978,0.1137,1.2813 M45.5449,44.3678
			c-0.2454-0.1981-0.878-0.14-1.1516-0.0083c-0.1069,0-0.3947-1.9978,0.6173-1.9484C45.94,42.4564,45.6094,44.377,45.5449,44.3678
			L45.5449,44.3678z"/>
		<path class="st11" d="M43.5648,44.7922c0.463,0.2937,0.894,0.2673,1.3019,0.0103l-0.9661-1.0074"/>
		<circle class="st10" cx="44.2415" cy="41.7181" r="0.31"/>
		<path class="st10" d="M44.6239,42.7205l-0.7853-0.0155c0,0-0.1019-0.6387,0.3875-0.6665
			C44.6323,42.0155,44.6401,42.7192,44.6239,42.7205L44.6239,42.7205z"/>
		<path class="st11" d="M44.2466,44.6578c-0.1503-0.3338-0.1659-0.7446-0.124-1.1883 M43.8953,44.6784
			c-0.1844-0.3164-0.2186-0.7204-0.0723-1.2296 M44.8647,44.8081c-0.1182-0.1486-0.9655-0.2119-1.2983-0.0094
			c-0.1205,0-0.445-2.2524,0.696-2.1967C45.3101,42.6531,44.9375,44.8185,44.8647,44.8081L44.8647,44.8081z"/>
	</g>
</g>
</svg>
