<?xml version="1.0" encoding="utf-8"?>
<!-- Generator: Adobe Illustrator 21.1.0, SVG Export Plug-In . SVG Version: 6.00 Build 0)  -->
<svg version="1.1" id="Layer_1" xmlns="http://www.w3.org/2000/svg" xmlns:xlink="http://www.w3.org/1999/xlink" x="0px" y="0px"
	 viewBox="0 0 60 60" style="enable-background:new 0 0 60 60;" xml:space="preserve">
<style type="text/css">
	.st0{clip-path:url(#SVGID_2_);}
	.st1{fill:#F7D117;}
	.st2{fill:#0033AB;}
	.st3{fill:#CF142B;}
	.st4{fill:#FFFFFF;}
</style>
<g>
	<g>
		<defs>
			<circle id="SVGID_1_" cx="30" cy="30" r="30"/>
		</defs>
		<clipPath id="SVGID_2_">
			<use xlink:href="#SVGID_1_"  style="overflow:visible;"/>
		</clipPath>
		<g class="st0">
			<rect class="st1" width="60" height="20"/>
			<rect y="20" class="st2" width="60" height="20"/>
			<rect y="40" class="st3" width="60" height="20"/>
		</g>
	</g>
	<g>
		<polygon class="st4" points="13.2564,33.1684 13.9372,35.2189 15.9997,35.1773 14.3568,36.4868 15.0362,38.5414 13.3422,37.2977 
			11.6951,38.6097 12.2929,36.527 10.5988,35.2873 12.6587,35.2457 		"/>
		<polygon class="st4" points="17.2502,27.7913 17.1631,29.9492 19.109,30.6366 17.1054,31.284 17.025,33.4432 15.8711,31.6821 
			13.8742,32.3321 15.1635,30.5978 14.0137,28.8367 15.9595,29.5243 		"/>
		<polygon class="st4" points="22.883,24.162 22.036,26.1562 23.6187,27.487 21.5214,27.3838 20.6757,29.3755 20.2174,27.3236 
			18.12,27.2204 19.9386,26.053 19.4842,24.0011 21.063,25.3333 		"/>
		<polygon class="st4" points="29.431,22.7587 27.9422,24.3228 28.9473,26.1267 27.0201,25.2904 25.5299,26.8585 25.8274,24.7811 
			23.8974,23.9435 26.011,23.4918 26.3111,21.4118 27.3204,23.2131 		"/>
		<polygon class="st4" points="36.0529,23.7545 34.107,24.6899 34.4153,26.7325 32.9062,25.2743 30.9616,26.2152 31.9695,24.371 
			30.4617,22.9061 32.5966,23.2318 33.6098,21.3903 33.9167,23.4342 		"/>
		<polygon class="st4" points="41.9028,27.018 39.7519,27.2109 39.3189,29.2307 38.421,27.3303 36.266,27.5219 37.8649,26.1562 
			36.9682,24.2557 38.8512,25.3119 40.4447,23.9461 40.0186,25.9633 		"/>
		<polygon class="st4" points="46.2276,32.1364 44.1423,31.5534 43.0259,33.2917 42.8584,31.2009 40.7717,30.6205 42.7484,29.9062 
			42.5783,27.8101 43.9734,29.4639 45.9475,28.7455 44.8325,30.4852 		"/>
		<polygon class="st4" points="48.467,38.4503 46.7222,37.173 45.0617,38.4033 45.6407,36.3836 43.8971,35.1104 45.9984,35.1332 
			46.5774,33.1148 47.2971,35.1492 49.4012,35.1773 47.7434,36.4117 		"/>
	</g>
</g>
</svg>
