<?xml version="1.0" encoding="utf-8"?>
<!-- Generator: Adobe Illustrator 21.1.0, SVG Export Plug-In . SVG Version: 6.00 Build 0)  -->
<svg version="1.1" id="Layer_1" xmlns="http://www.w3.org/2000/svg" xmlns:xlink="http://www.w3.org/1999/xlink" x="0px" y="0px"
	 viewBox="0 0 60 60" style="enable-background:new 0 0 60 60;" xml:space="preserve">
<style type="text/css">
	.st0{clip-path:url(#SVGID_2_);fill:#00247D;}
	.st1{clip-path:url(#SVGID_4_);fill:#00247D;}
	.st2{clip-path:url(#SVGID_6_);fill:#FFFFFF;}
	.st3{clip-path:url(#SVGID_8_);fill:#FFFFFF;}
	.st4{clip-path:url(#SVGID_10_);fill:#CF142B;}
	.st5{clip-path:url(#SVGID_12_);fill:#CF142B;}
	.st6{fill:#FFFFFF;}
	.st7{fill:#006129;stroke:#000000;stroke-width:0.1215;}
	.st8{fill:none;stroke:#F7C600;stroke-width:0.1215;}
	.st9{fill:#F7C600;stroke:#000000;stroke-width:0.0608;}
	.st10{fill:url(#SVGID_13_);stroke:#000000;stroke-width:0.0608;}
	.st11{fill:url(#SVGID_14_);stroke:#000000;stroke-width:0.0608;}
	.st12{fill:url(#SVGID_15_);stroke:#000000;stroke-width:0.0608;}
	.st13{fill:url(#SVGID_16_);stroke:#000000;stroke-width:0.0608;}
	.st14{fill:url(#SVGID_17_);stroke:#000000;stroke-width:0.0608;}
	.st15{fill:url(#SVGID_18_);stroke:#000000;stroke-width:0.0608;}
	.st16{fill:url(#SVGID_19_);stroke:#000000;stroke-width:0.0608;}
	.st17{fill:url(#SVGID_20_);stroke:#000000;stroke-width:0.0608;}
	.st18{fill:url(#SVGID_21_);stroke:#000000;stroke-width:0.0608;}
	.st19{fill:url(#SVGID_22_);stroke:#000000;stroke-width:0.0608;}
	.st20{fill:url(#SVGID_23_);stroke:#000000;stroke-width:0.0608;}
	.st21{fill:url(#SVGID_24_);stroke:#000000;stroke-width:0.0608;}
	.st22{fill:#FFC6B5;stroke:#000000;stroke-width:0.0608;}
	.st23{fill:#FFFFFF;stroke:#000000;stroke-width:0.0608;}
	.st24{fill:#9C5100;stroke:#000000;stroke-width:0.0608;}
	.st25{fill:none;stroke:#000000;stroke-width:0.0608;}
	.st26{fill:none;stroke:#000000;stroke-width:0.0608;stroke-linejoin:round;}
	.st27{fill:none;stroke:#000000;stroke-width:0.1094;stroke-linejoin:round;}
	.st28{fill:#F7C600;stroke:#000000;stroke-width:0.1215;}
	.st29{fill:none;stroke:#000000;stroke-width:0.1215;}
</style>
<title>Flag of Barbados</title>
<g>
	<g>
		<defs>
			<circle id="SVGID_1_" cx="30" cy="30" r="30"/>
		</defs>
		<clipPath id="SVGID_2_">
			<use xlink:href="#SVGID_1_"  style="overflow:visible;"/>
		</clipPath>
		<rect id="rect2414_2_" x="-30.4259" y="-0.2126" class="st0" width="120.8518" height="60.4256"/>
	</g>
	<g>
		<defs>
			<circle id="SVGID_3_" cx="30" cy="30" r="30"/>
		</defs>
		<clipPath id="SVGID_4_">
			<use xlink:href="#SVGID_3_"  style="overflow:visible;"/>
		</clipPath>
		<rect id="rect124_2_" x="-30.4259" y="-0.2126" class="st1" width="60.4259" height="30.2127"/>
	</g>
	<g>
		<defs>
			<circle id="SVGID_5_" cx="30" cy="30" r="30"/>
		</defs>
		<clipPath id="SVGID_6_">
			<use xlink:href="#SVGID_5_"  style="overflow:visible;"/>
		</clipPath>
		<path id="path146_2_" class="st2" d="M-30.4259-0.2126v3.3771L23.2445,30H30v-3.3775L-23.6704-0.2126H-30.4259z M30-0.2126v3.3771
			L-23.6704,30h-6.7555v-3.3775L23.2445-0.2126H30z"/>
	</g>
	<g>
		<defs>
			<circle id="SVGID_7_" cx="30" cy="30" r="30"/>
		</defs>
		<clipPath id="SVGID_8_">
			<use xlink:href="#SVGID_7_"  style="overflow:visible;"/>
		</clipPath>
		<path id="path136_2_" class="st3" d="M-5.2483-0.2126v30.2127h10.071V-0.2126H-5.2483z M-30.4259,9.8578v10.0709H30V9.8578
			H-30.4259z"/>
	</g>
	<g>
		<defs>
			<circle id="SVGID_9_" cx="30" cy="30" r="30"/>
		</defs>
		<clipPath id="SVGID_10_">
			<use xlink:href="#SVGID_9_"  style="overflow:visible;"/>
		</clipPath>
		<path id="path141_2_" class="st4" d="M-30.4259,11.8722v6.0424H30v-6.0424C30,11.8722-30.4259,11.8722-30.4259,11.8722z
			 M-3.234-0.2126v30.2127h6.0422V-0.2126H-3.234z"/>
	</g>
	<g>
		<defs>
			<circle id="SVGID_11_" cx="30" cy="30" r="30"/>
		</defs>
		<clipPath id="SVGID_12_">
			<use xlink:href="#SVGID_11_"  style="overflow:visible;"/>
		</clipPath>
		<path id="path150_2_" class="st5" d="M-30.4259,30.0001l20.1421-10.0714h4.5037l-20.1418,10.0714H-30.4259z M-30.4259-0.2126
			l20.1421,10.0704h-4.5037l-15.6384-7.8185V-0.2126z M5.3542,9.8578L25.4963-0.2126H30L9.8579,9.8578H5.3542z M30,30.0001
			L9.8579,19.9286h4.504L30,27.748V30.0001z"/>
	</g>
</g>
<g>
	<path class="st6" d="M36.366,21.2201l16.1254-0.0598l-0.0299,14.3603c0,0,0.5684,2.184-6.7613,5.5048
		c2.6327-0.2693,5.5048-3.0815,5.5048-3.0815s1.1668-1.4958,1.7352-0.6582c0.5684,0.8377,1.1069,1.2565,1.5258,1.5856
		c0.4188,0.3291,0.7479,1.2266,0.1197,1.8848s-1.6155,0.7479-1.8848-0.0598c-0.4188,0.2094-2.9917,3.3208-8.2572,3.4704
		c-5.3552-0.0898-8.2871-3.5003-8.2871-3.5003s-0.718,1.1369-1.7352,0.2393c-0.9873-1.1668-0.2393-1.9147-0.2393-1.9147
		s0.8377-0.4787,1.077-0.8078c0.3889-0.4488,0.5086-1.0471,1.1668-1.0471c0.7778,0.0598,1.077,0.6881,1.077,0.6881
		s2.6926,2.8422,5.5945,3.2011c-6.5516-3.1415-6.791-5.0862-6.7611-5.5649l0.0299-14.2406L36.366,21.2201z"/>
	<path class="st7" d="M36.7549,21.609l15.3775-0.0898V35.341c0.0299,1.795-2.9917,3.62-7.7187,5.9535
		c-4.8765-2.5131-7.6888-4.0388-7.7187-5.9835L36.7549,21.609L36.7549,21.609z"/>
	<g id="lamp_23_">
		<path class="st8" d="M38.8475,23.6518l0.9077-1.3331l0.9121,1.3359"/>
		<path class="st9" d="M39.9374,23.1534c0,0.0996-0.0807,0.1803-0.1803,0.1803c-0.0996,0-0.1803-0.0807-0.1803-0.1803
			c0-0.0996,0.0807-0.1803,0.1803-0.1803C39.8567,22.9731,39.9375,23.0539,39.9374,23.1534z"/>
		<path class="st9" d="M39.0181,24.6365l1.4072,0.004c0,0,0.0221-0.1826-0.147-0.2936c0.7371-0.1014,0.5456-0.7515,1.1629-0.7883
			c0.1198,0.0184-0.3225,0.2764-0.3225,0.2764s-0.3722,0.2626-0.2027,0.3962c0.1346,0.106,0.1935-0.0645,0.2119-0.1935
			c0.0184-0.129,0.5989-0.2119,0.5159-0.5804c-0.1382-0.304-0.949,0.2027-0.949,0.2027l-0.5784-0.0032
			c-0.0361-0.0649-0.1955-0.3253-0.3601-0.3265c-0.1953,0.0071-0.3329,0.3297-0.3329,0.3297h-0.8384h-0.4699
			c0,0-0.0449,0.3357,0.6185,0.4002c0.1493,0.1951,0.2651,0.2496,0.395,0.3C39.0421,24.4322,39.0178,24.5195,39.0181,24.6365
			L39.0181,24.6365z"/>
		<path class="st9" d="M39.1194,24.3509l1.1721-0.004"/>
		<path class="st9" d="M38.5826,23.6598c0,0,0.0938,0.5482,0.5266,0.678"/>
		
			<linearGradient id="SVGID_13_" gradientUnits="userSpaceOnUse" x1="-667.7775" y1="59.6308" x2="-668.4557" y2="59.857" gradientTransform="matrix(0.9961 0 0 -2.2526 703.5562 157.2999)">
			<stop  offset="0" style="stop-color:#FF0000"/>
			<stop  offset="1" style="stop-color:#FFFF00"/>
		</linearGradient>
		<path class="st10" d="M38.5105,23.6526c0.0433-0.2092,0.1226-0.2452,0.2092-0.5121c0.0144-0.2597-0.2092-0.2308-0.1443-0.3967
			c0.1154-0.1803,0.0577-0.3534-0.1587-0.4905c0.0433,0.238-0.2813,0.4616-0.2813,0.6564c0,0.1948,0.1659,0.1515,0.1443,0.4472
			c0.0144,0.1731-0.0433,0.1298-0.0577,0.2957L38.5105,23.6526L38.5105,23.6526z"/>
		<path class="st9" d="M39.923,22.3528c0,0.0916-0.0742,0.1659-0.1658,0.1659c-0.0916,0-0.1659-0.0743-0.1658-0.1659
			c0-0.0916,0.0742-0.1659,0.1658-0.1659C39.8488,22.1869,39.923,22.2612,39.923,22.3528z"/>
	</g>
	<g>
		<g id="lamp_22_">
			<path class="st8" d="M38.7978,26.3117l0.9077-1.3331l0.9121,1.3359"/>
			<path class="st9" d="M39.8877,25.8134c0,0.0996-0.0807,0.1803-0.1803,0.1803c-0.0996,0-0.1803-0.0807-0.1803-0.1803
				c0-0.0996,0.0807-0.1803,0.1803-0.1803C39.807,25.633,39.8877,25.7138,39.8877,25.8134z"/>
			<path class="st9" d="M38.9684,27.2964l1.4072,0.004c0,0,0.0221-0.1826-0.147-0.2936c0.7371-0.1014,0.5456-0.7515,1.1629-0.7883
				c0.1198,0.0184-0.3225,0.2764-0.3225,0.2764s-0.3722,0.2626-0.2027,0.3962c0.1346,0.106,0.1935-0.0645,0.2119-0.1935
				c0.0184-0.129,0.5989-0.2119,0.5159-0.5804c-0.1382-0.304-0.949,0.2027-0.949,0.2027l-0.5784-0.0032
				c-0.0361-0.0649-0.1955-0.3253-0.3601-0.3265c-0.1953,0.0071-0.3329,0.3297-0.3329,0.3297h-0.8384h-0.4699
				c0,0-0.0449,0.3357,0.6185,0.4002c0.1493,0.1951,0.2651,0.2496,0.395,0.3C38.9924,27.0921,38.968,27.1794,38.9684,27.2964
				L38.9684,27.2964z"/>
			<path class="st9" d="M39.0697,27.0108l1.1721-0.004"/>
			<path class="st9" d="M38.5329,26.3197c0,0,0.0938,0.5482,0.5266,0.678"/>
			
				<linearGradient id="SVGID_14_" gradientUnits="userSpaceOnUse" x1="-667.0522" y1="76.7865" x2="-667.7305" y2="77.0127" gradientTransform="matrix(0.9961 0 0 -2.2526 702.784 198.604)">
				<stop  offset="0" style="stop-color:#FF0000"/>
				<stop  offset="1" style="stop-color:#FFFF00"/>
			</linearGradient>
			<path class="st11" d="M38.4608,26.3125c0.0433-0.2092,0.1226-0.2452,0.2092-0.5121c0.0144-0.2597-0.2092-0.2308-0.1443-0.3967
				c0.1154-0.1803,0.0577-0.3534-0.1587-0.4905c0.0433,0.238-0.2813,0.4616-0.2813,0.6564c0,0.1948,0.1659,0.1515,0.1443,0.4472
				c0.0144,0.1731-0.0433,0.1298-0.0577,0.2957H38.4608L38.4608,26.3125z"/>
			<path class="st9" d="M39.8733,25.0127c0,0.0916-0.0742,0.1659-0.1658,0.1659c-0.0916,0-0.1659-0.0743-0.1658-0.1659
				c0-0.0916,0.0742-0.1659,0.1658-0.1659C39.7991,24.8468,39.8733,24.9211,39.8733,25.0127z"/>
		</g>
	</g>
	<g>
		<g id="lamp_21_">
			<path class="st8" d="M38.7773,28.9333l0.9077-1.3331l0.9121,1.3359"/>
			<path class="st9" d="M39.8673,28.4349c0,0.0996-0.0807,0.1803-0.1803,0.1803c-0.0996,0-0.1803-0.0807-0.1803-0.1803
				c0-0.0996,0.0807-0.1803,0.1803-0.1803C39.7866,28.2546,39.8673,28.3354,39.8673,28.4349z"/>
			<path class="st9" d="M38.948,29.918l1.4072,0.004c0,0,0.0221-0.1826-0.147-0.2936c0.7371-0.1014,0.5456-0.7515,1.1629-0.7883
				c0.1198,0.0184-0.3225,0.2764-0.3225,0.2764s-0.3722,0.2626-0.2027,0.3962c0.1346,0.106,0.1935-0.0645,0.2119-0.1935
				c0.0184-0.129,0.5989-0.2119,0.5159-0.5804c-0.1382-0.304-0.949,0.2027-0.949,0.2027l-0.5784-0.0032
				c-0.0361-0.0649-0.1955-0.3253-0.3601-0.3265c-0.1953,0.0071-0.3329,0.3297-0.3329,0.3297H38.515h-0.4699
				c0,0-0.0449,0.3357,0.6185,0.4002c0.1493,0.1951,0.2651,0.2496,0.395,0.3C38.972,29.7137,38.9476,29.801,38.948,29.918
				L38.948,29.918z"/>
			<path class="st9" d="M39.0493,29.6324l1.1721-0.004"/>
			<path class="st9" d="M38.5125,28.9413c0,0,0.0938,0.5482,0.5266,0.678"/>
			
				<linearGradient id="SVGID_15_" gradientUnits="userSpaceOnUse" x1="-666.7545" y1="93.6951" x2="-667.4327" y2="93.9212" gradientTransform="matrix(0.9961 0 0 -2.2526 702.467 239.313)">
				<stop  offset="0" style="stop-color:#FF0000"/>
				<stop  offset="1" style="stop-color:#FFFF00"/>
			</linearGradient>
			<path class="st12" d="M38.4403,28.9341c0.0433-0.2092,0.1226-0.2452,0.2092-0.5121c0.0144-0.2597-0.2092-0.2308-0.1443-0.3967
				c0.1154-0.1803,0.0577-0.3534-0.1587-0.4905c0.0433,0.238-0.2813,0.4616-0.2813,0.6564c0,0.1948,0.1659,0.1515,0.1443,0.4472
				c0.0144,0.1731-0.0433,0.1298-0.0577,0.2957L38.4403,28.9341L38.4403,28.9341z"/>
			<path class="st9" d="M39.8529,27.6343c0,0.0916-0.0742,0.1659-0.1658,0.1659c-0.0916,0-0.1659-0.0743-0.1658-0.1659
				c0-0.0916,0.0742-0.1659,0.1658-0.1659C39.7786,27.4684,39.8529,27.5427,39.8529,27.6343z"/>
		</g>
	</g>
	<g>
		<g id="lamp_20_">
			<path class="st8" d="M40.4978,31.7724l0.9077-1.3331l0.9121,1.3359"/>
			<path class="st9" d="M41.5878,31.274c0,0.0996-0.0807,0.1803-0.1803,0.1803c-0.0996,0-0.1803-0.0807-0.1803-0.1803
				c0-0.0996,0.0807-0.1803,0.1803-0.1803C41.5071,31.0937,41.5878,31.1744,41.5878,31.274z"/>
			<path class="st9" d="M40.6685,32.757l1.4072,0.004c0,0,0.0221-0.1826-0.147-0.2936c0.7371-0.1014,0.5456-0.7515,1.1629-0.7883
				c0.1198,0.0184-0.3225,0.2764-0.3225,0.2764s-0.3722,0.2626-0.2027,0.3962c0.1346,0.106,0.1935-0.0645,0.2119-0.1935
				c0.0184-0.129,0.5989-0.2119,0.5159-0.5804c-0.1382-0.304-0.949,0.2027-0.949,0.2027l-0.5784-0.0032
				c-0.0361-0.0649-0.1955-0.3253-0.3601-0.3265c-0.1953,0.0071-0.3329,0.3297-0.3329,0.3297h-0.8384h-0.4699
				c0,0-0.0449,0.3357,0.6185,0.4002c0.1493,0.1951,0.2651,0.2496,0.395,0.3C40.6925,32.5528,40.6681,32.64,40.6685,32.757
				L40.6685,32.757z"/>
			<path class="st9" d="M40.7698,32.4714l1.1721-0.004"/>
			<path class="st9" d="M40.2329,31.7804c0,0,0.0938,0.5482,0.5266,0.678"/>
			
				<linearGradient id="SVGID_16_" gradientUnits="userSpaceOnUse" x1="-691.8469" y1="112.0063" x2="-692.5251" y2="112.2324" gradientTransform="matrix(0.9961 0 0 -2.2526 729.183 283.399)">
				<stop  offset="0" style="stop-color:#FF0000"/>
				<stop  offset="1" style="stop-color:#FFFF00"/>
			</linearGradient>
			<path class="st13" d="M40.1608,31.7732c0.0433-0.2092,0.1226-0.2452,0.2092-0.5121c0.0144-0.2597-0.2092-0.2308-0.1443-0.3967
				c0.1154-0.1803,0.0577-0.3534-0.1587-0.4905c0.0433,0.238-0.2813,0.4616-0.2813,0.6564c0,0.1948,0.1659,0.1515,0.1443,0.4472
				c0.0144,0.1731-0.0433,0.1298-0.0577,0.2957H40.1608L40.1608,31.7732z"/>
			<path class="st9" d="M41.5733,30.4734c0,0.0916-0.0742,0.1659-0.1658,0.1659c-0.0916,0-0.1659-0.0743-0.1658-0.1659
				c0-0.0916,0.0742-0.1659,0.1658-0.1659C41.4991,30.3075,41.5734,30.3817,41.5733,30.4734z"/>
		</g>
	</g>
	<g>
		<g id="lamp_19_">
			<path class="st8" d="M38.5529,34.0949l0.9077-1.3331l0.9121,1.3359"/>
			<path class="st9" d="M39.6429,33.5965c0,0.0996-0.0807,0.1803-0.1803,0.1803c-0.0996,0-0.1803-0.0807-0.1803-0.1803
				c0-0.0996,0.0807-0.1803,0.1803-0.1803C39.5622,33.4162,39.6429,33.4969,39.6429,33.5965z"/>
			<path class="st9" d="M38.7236,35.0795l1.4072,0.004c0,0,0.0221-0.1826-0.147-0.2936c0.7371-0.1014,0.5456-0.7515,1.1629-0.7883
				c0.1198,0.0184-0.3225,0.2764-0.3225,0.2764s-0.3722,0.2626-0.2027,0.3962c0.1346,0.106,0.1935-0.0645,0.2119-0.1935
				c0.0184-0.129,0.5989-0.2119,0.5159-0.5804c-0.1382-0.304-0.949,0.2027-0.949,0.2027l-0.5784-0.0032
				c-0.0361-0.0649-0.1955-0.3253-0.3601-0.3265c-0.1953,0.0071-0.3329,0.3297-0.3329,0.3297h-0.8384h-0.4699
				c0,0-0.0449,0.3357,0.6185,0.4002c0.1493,0.1951,0.2651,0.2496,0.395,0.3C38.7476,34.8752,38.7232,34.9625,38.7236,35.0795
				L38.7236,35.0795z"/>
			<path class="st9" d="M38.8249,34.7939l1.1721-0.004"/>
			<path class="st9" d="M38.288,34.1028c0,0,0.0938,0.5482,0.5266,0.678"/>
			
				<linearGradient id="SVGID_17_" gradientUnits="userSpaceOnUse" x1="-663.4813" y1="126.9855" x2="-664.1595" y2="127.2117" gradientTransform="matrix(0.9961 0 0 -2.2526 698.982 319.463)">
				<stop  offset="0" style="stop-color:#FF0000"/>
				<stop  offset="1" style="stop-color:#FFFF00"/>
			</linearGradient>
			<path class="st14" d="M38.2159,34.0956c0.0433-0.2092,0.1226-0.2452,0.2092-0.5121c0.0144-0.2597-0.2092-0.2308-0.1443-0.3967
				c0.1154-0.1803,0.0577-0.3534-0.1587-0.4905c0.0433,0.238-0.2813,0.4616-0.2813,0.6564c0,0.1948,0.1659,0.1515,0.1443,0.4472
				c0.0144,0.1731-0.0433,0.1298-0.0577,0.2957H38.2159L38.2159,34.0956z"/>
			<path class="st9" d="M39.6284,32.7958c0,0.0916-0.0742,0.1659-0.1658,0.1659c-0.0916,0-0.1659-0.0743-0.1658-0.1659
				c0-0.0916,0.0742-0.1659,0.1658-0.1659C39.5542,32.6299,39.6285,32.7042,39.6284,32.7958z"/>
		</g>
	</g>
	<g>
		<g id="lamp_18_">
			<path class="st8" d="M38.6039,36.8389l0.9077-1.3331l0.9121,1.3359"/>
			<path class="st9" d="M39.6939,36.3405c0,0.0996-0.0807,0.1803-0.1803,0.1803c-0.0996,0-0.1803-0.0807-0.1803-0.1803
				c0-0.0996,0.0807-0.1803,0.1803-0.1803C39.6132,36.1602,39.6939,36.2409,39.6939,36.3405z"/>
			<path class="st9" d="M38.7746,37.8235l1.4072,0.004c0,0,0.0221-0.1826-0.147-0.2936c0.7371-0.1014,0.5456-0.7515,1.1629-0.7883
				c0.1198,0.0184-0.3225,0.2764-0.3225,0.2764s-0.3722,0.2626-0.2027,0.3962c0.1346,0.106,0.1935-0.0645,0.2119-0.1935
				s0.5989-0.2119,0.5159-0.5804c-0.1382-0.304-0.949,0.2027-0.949,0.2027l-0.5784-0.0032
				c-0.0361-0.0649-0.1955-0.3253-0.3601-0.3265c-0.1953,0.0071-0.3329,0.3297-0.3329,0.3297h-0.8384h-0.4699
				c0,0-0.0449,0.3357,0.6185,0.4002c0.1493,0.1951,0.2651,0.2496,0.395,0.3C38.7986,37.6193,38.7742,37.7065,38.7746,37.8235
				L38.7746,37.8235z"/>
			<path class="st9" d="M38.8759,37.5379l1.1721-0.004"/>
			<path class="st9" d="M38.3391,36.8469c0,0,0.0938,0.5482,0.5266,0.678"/>
			
				<linearGradient id="SVGID_18_" gradientUnits="userSpaceOnUse" x1="-664.2252" y1="144.6836" x2="-664.9034" y2="144.9098" gradientTransform="matrix(0.9961 0 0 -2.2526 699.774 362.0729)">
				<stop  offset="0" style="stop-color:#FF0000"/>
				<stop  offset="1" style="stop-color:#FFFF00"/>
			</linearGradient>
			<path class="st15" d="M38.2669,36.8396c0.0433-0.2092,0.1226-0.2452,0.2092-0.5121c0.0144-0.2597-0.2092-0.2308-0.1443-0.3967
				c0.1154-0.1803,0.0577-0.3534-0.1587-0.4905c0.0433,0.238-0.2813,0.4616-0.2813,0.6564c0,0.1948,0.1659,0.1515,0.1443,0.4472
				c0.0144,0.1731-0.0433,0.1298-0.0577,0.2957H38.2669L38.2669,36.8396z"/>
			<path class="st9" d="M39.6794,35.5398c0,0.0916-0.0742,0.1659-0.1658,0.1659c-0.0916,0-0.1659-0.0743-0.1658-0.1659
				c0-0.0916,0.0742-0.1659,0.1658-0.1659C39.6052,35.3739,39.6795,35.4482,39.6794,35.5398z"/>
		</g>
	</g>
	<g>
		<g id="lamp_17_">
			<path class="st8" d="M48.2677,23.6951l0.9077-1.3331l0.9121,1.3359"/>
			<path class="st9" d="M49.3576,23.1967c0,0.0996-0.0807,0.1803-0.1803,0.1803c-0.0996,0-0.1803-0.0807-0.1803-0.1803
				c0-0.0996,0.0807-0.1803,0.1803-0.1803C49.2769,23.0164,49.3576,23.0971,49.3576,23.1967z"/>
			<path class="st9" d="M48.4383,24.6798l1.4072,0.004c0,0,0.0221-0.1826-0.147-0.2936c0.7371-0.1014,0.5456-0.7515,1.1629-0.7883
				c0.1198,0.0184-0.3225,0.2764-0.3225,0.2764s-0.3722,0.2626-0.2027,0.3962c0.1346,0.106,0.1935-0.0645,0.2119-0.1935
				c0.0184-0.129,0.5989-0.2119,0.5159-0.5804c-0.1382-0.304-0.949,0.2027-0.949,0.2027l-0.5784-0.0032
				c-0.0361-0.0649-0.1955-0.3253-0.3601-0.3265c-0.1953,0.0071-0.3329,0.3297-0.3329,0.3297h-0.8384h-0.4699
				c0,0-0.0449,0.3357,0.6185,0.4002c0.1493,0.1951,0.2651,0.2496,0.395,0.3C48.4623,24.4755,48.438,24.5628,48.4383,24.6798
				L48.4383,24.6798z"/>
			<path class="st9" d="M48.5396,24.3941l1.1721-0.004"/>
			<path class="st9" d="M48.0028,23.7031c0,0,0.0938,0.5482,0.5266,0.678"/>
			
				<linearGradient id="SVGID_19_" gradientUnits="userSpaceOnUse" x1="-805.1673" y1="59.9099" x2="-805.8455" y2="60.1361" gradientTransform="matrix(0.9961 0 0 -2.2526 849.836 157.972)">
				<stop  offset="0" style="stop-color:#FF0000"/>
				<stop  offset="1" style="stop-color:#FFFF00"/>
			</linearGradient>
			<path class="st16" d="M47.9307,23.6959c0.0433-0.2092,0.1226-0.2452,0.2092-0.5121c0.0144-0.2597-0.2092-0.2308-0.1443-0.3967
				c0.1154-0.1803,0.0577-0.3534-0.1587-0.4905c0.0433,0.238-0.2813,0.4616-0.2813,0.6564c0,0.1948,0.1659,0.1515,0.1443,0.4472
				c0.0144,0.1731-0.0433,0.1298-0.0577,0.2957H47.9307L47.9307,23.6959z"/>
			<path class="st9" d="M49.3432,22.3961c0,0.0916-0.0742,0.1659-0.1658,0.1659c-0.0916,0-0.1659-0.0743-0.1658-0.1659
				c0-0.0916,0.0742-0.1659,0.1658-0.1659C49.269,22.2302,49.3432,22.3044,49.3432,22.3961z"/>
		</g>
	</g>
	<g>
		<g id="lamp_16_">
			<path class="st8" d="M48.1811,26.3062l0.9077-1.3331l0.9121,1.3359"/>
			<path class="st9" d="M49.2711,25.8078c0,0.0996-0.0807,0.1803-0.1803,0.1803c-0.0996,0-0.1803-0.0807-0.1803-0.1803
				c0-0.0996,0.0807-0.1803,0.1803-0.1803C49.1904,25.6275,49.2711,25.7082,49.2711,25.8078z"/>
			<path class="st9" d="M48.3518,27.2908l1.4072,0.004c0,0,0.0221-0.1826-0.147-0.2936c0.7371-0.1014,0.5456-0.7515,1.1629-0.7883
				c0.1198,0.0184-0.3225,0.2764-0.3225,0.2764s-0.3722,0.2626-0.2027,0.3962c0.1346,0.106,0.1935-0.0645,0.2119-0.1935
				c0.0184-0.129,0.5989-0.2119,0.5159-0.5804c-0.1382-0.304-0.949,0.2027-0.949,0.2027l-0.5784-0.0032
				c-0.0361-0.0649-0.1955-0.3253-0.3601-0.3265c-0.1953,0.0071-0.3329,0.3297-0.3329,0.3297h-0.8384h-0.4699
				c0,0-0.0449,0.3357,0.6185,0.4002c0.1493,0.1951,0.2651,0.2496,0.395,0.3C48.3758,27.0866,48.3514,27.1739,48.3518,27.2908
				L48.3518,27.2908z"/>
			<path class="st9" d="M48.4531,27.0052l1.1721-0.004"/>
			<path class="st9" d="M47.9162,26.3142c0,0,0.0938,0.5482,0.5266,0.678"/>
			
				<linearGradient id="SVGID_20_" gradientUnits="userSpaceOnUse" x1="-803.905" y1="76.7508" x2="-804.5832" y2="76.977" gradientTransform="matrix(0.9961 0 0 -2.2526 848.492 198.5179)">
				<stop  offset="0" style="stop-color:#FF0000"/>
				<stop  offset="1" style="stop-color:#FFFF00"/>
			</linearGradient>
			<path class="st17" d="M47.8441,26.307c0.0433-0.2092,0.1226-0.2452,0.2092-0.5121c0.0144-0.2597-0.2092-0.2308-0.1443-0.3967
				c0.1154-0.1803,0.0577-0.3534-0.1587-0.4905c0.0433,0.238-0.2813,0.4616-0.2813,0.6564c0,0.1948,0.1659,0.1515,0.1443,0.4472
				c0.0144,0.1731-0.0433,0.1298-0.0577,0.2957L47.8441,26.307L47.8441,26.307z"/>
			<path class="st9" d="M49.2566,25.0072c0,0.0916-0.0742,0.1659-0.1658,0.1659c-0.0916,0-0.1659-0.0743-0.1658-0.1659
				c0-0.0916,0.0742-0.1659,0.1658-0.1659C49.1824,24.8413,49.2567,24.9155,49.2566,25.0072z"/>
		</g>
	</g>
	<g>
		<g id="lamp_15_">
			<path class="st8" d="M48.0657,28.9751l0.9077-1.3331l0.9121,1.3359"/>
			<path class="st9" d="M49.1557,28.4767c0,0.0996-0.0807,0.1803-0.1803,0.1803c-0.0996,0-0.1803-0.0807-0.1803-0.1803
				c0-0.0996,0.0807-0.1803,0.1803-0.1803C49.075,28.2964,49.1557,28.3771,49.1557,28.4767z"/>
			<path class="st9" d="M48.2364,29.9597l1.4072,0.004c0,0,0.0221-0.1826-0.147-0.2936c0.7371-0.1014,0.5456-0.7515,1.1629-0.7883
				c0.1198,0.0184-0.3225,0.2764-0.3225,0.2764s-0.3722,0.2626-0.2027,0.3962c0.1346,0.106,0.1935-0.0645,0.2119-0.1935
				c0.0184-0.129,0.5989-0.2119,0.5159-0.5804c-0.1382-0.304-0.949,0.2027-0.949,0.2027l-0.5784-0.0032
				c-0.0361-0.0649-0.1955-0.3253-0.3601-0.3265c-0.1953,0.0071-0.3329,0.3297-0.3329,0.3297h-0.8384h-0.4699
				c0,0-0.0449,0.3357,0.6185,0.4002c0.1493,0.1951,0.2651,0.2496,0.395,0.3C48.2604,29.7554,48.236,29.8427,48.2364,29.9597
				L48.2364,29.9597z"/>
			<path class="st9" d="M48.3377,29.6741l1.1721-0.004"/>
			<path class="st9" d="M47.8008,28.983c0,0,0.0938,0.5482,0.5266,0.678"/>
			
				<linearGradient id="SVGID_21_" gradientUnits="userSpaceOnUse" x1="-802.2219" y1="93.9642" x2="-802.9001" y2="94.1904" gradientTransform="matrix(0.9961 0 0 -2.2526 846.7 239.961)">
				<stop  offset="0" style="stop-color:#FF0000"/>
				<stop  offset="1" style="stop-color:#FFFF00"/>
			</linearGradient>
			<path class="st18" d="M47.7287,28.9758c0.0433-0.2092,0.1226-0.2452,0.2092-0.5121c0.0144-0.2597-0.2092-0.2308-0.1443-0.3967
				c0.1154-0.1803,0.0577-0.3534-0.1587-0.4905c0.0433,0.238-0.2813,0.4616-0.2813,0.6564c0,0.1948,0.1659,0.1515,0.1443,0.4472
				c0.0144,0.1731-0.0433,0.1298-0.0577,0.2957L47.7287,28.9758L47.7287,28.9758z"/>
			<path class="st9" d="M49.1412,27.676c0,0.0916-0.0742,0.1659-0.1658,0.1659c-0.0916,0-0.1659-0.0743-0.1658-0.1659
				c0-0.0916,0.0742-0.1659,0.1658-0.1659S49.1413,27.5844,49.1412,27.676z"/>
		</g>
	</g>
	<g>
		<g id="lamp_14_">
			<path class="st8" d="M48.1955,31.6006l0.9077-1.3331l0.9121,1.3359"/>
			<path class="st9" d="M49.2855,31.1022c0,0.0996-0.0807,0.1803-0.1803,0.1803s-0.1803-0.0807-0.1803-0.1803
				c0-0.0996,0.0807-0.1803,0.1803-0.1803S49.2855,31.0026,49.2855,31.1022z"/>
			<path class="st9" d="M48.3662,32.5852l1.4072,0.004c0,0,0.0221-0.1826-0.147-0.2936c0.7371-0.1014,0.5456-0.7515,1.1629-0.7883
				c0.1198,0.0184-0.3225,0.2764-0.3225,0.2764s-0.3722,0.2626-0.2027,0.3962c0.1346,0.106,0.1935-0.0645,0.2119-0.1935
				c0.0184-0.129,0.5989-0.2119,0.5159-0.5804c-0.1382-0.304-0.949,0.2027-0.949,0.2027l-0.5784-0.0032
				c-0.0361-0.0649-0.1955-0.3253-0.3601-0.3265c-0.1953,0.0071-0.3329,0.3297-0.3329,0.3297h-0.8384h-0.4699
				c0,0-0.0449,0.3357,0.6185,0.4002c0.1494,0.1951,0.2651,0.2496,0.395,0.3C48.3902,32.381,48.3658,32.4682,48.3662,32.5852
				L48.3662,32.5852z"/>
			<path class="st9" d="M48.4675,32.2996l1.1721-0.004"/>
			<path class="st9" d="M47.9307,31.6086c0,0,0.0938,0.5482,0.5266,0.678"/>
			
				<linearGradient id="SVGID_22_" gradientUnits="userSpaceOnUse" x1="-804.1154" y1="110.8981" x2="-804.7936" y2="111.1243" gradientTransform="matrix(0.9961 0 0 -2.2526 848.716 280.731)">
				<stop  offset="0" style="stop-color:#FF0000"/>
				<stop  offset="1" style="stop-color:#FFFF00"/>
			</linearGradient>
			<path class="st19" d="M47.8585,31.6014c0.0433-0.2092,0.1226-0.2452,0.2092-0.5121c0.0144-0.2597-0.2092-0.2308-0.1443-0.3967
				c0.1154-0.1803,0.0577-0.3534-0.1587-0.4905c0.0433,0.238-0.2813,0.4616-0.2813,0.6564c0,0.1948,0.1659,0.1515,0.1443,0.4472
				c0.0144,0.1731-0.0433,0.1298-0.0577,0.2957L47.8585,31.6014L47.8585,31.6014z"/>
			<path class="st9" d="M49.2711,30.3015c0,0.0916-0.0742,0.1659-0.1658,0.1659c-0.0916,0-0.1659-0.0743-0.1658-0.1659
				c0-0.0916,0.0742-0.1659,0.1658-0.1659C49.1968,30.1356,49.2711,30.2099,49.2711,30.3015z"/>
		</g>
	</g>
	<g>
		<g id="lamp_13_">
			<path class="st8" d="M48.1667,34.2261l0.9077-1.3331l0.9121,1.3359"/>
			<path class="st9" d="M49.2566,33.7277c0,0.0996-0.0807,0.1803-0.1803,0.1803s-0.1803-0.0807-0.1803-0.1803
				c0-0.0996,0.0807-0.1803,0.1803-0.1803S49.2567,33.6281,49.2566,33.7277z"/>
			<path class="st9" d="M48.3373,35.2108l1.4072,0.004c0,0,0.0221-0.1826-0.147-0.2936c0.7371-0.1014,0.5456-0.7515,1.1629-0.7883
				c0.1198,0.0184-0.3225,0.2764-0.3225,0.2764s-0.3722,0.2626-0.2027,0.3962c0.1346,0.106,0.1935-0.0645,0.2119-0.1935
				s0.5989-0.2119,0.5159-0.5804c-0.1382-0.304-0.949,0.2027-0.949,0.2027l-0.5784-0.0032
				c-0.0361-0.0649-0.1955-0.3253-0.3601-0.3265c-0.1953,0.0071-0.3329,0.3297-0.3329,0.3297h-0.8384h-0.4699
				c0,0-0.0449,0.3357,0.6185,0.4002c0.1494,0.1951,0.2651,0.2496,0.395,0.3C48.3614,35.0065,48.337,35.0938,48.3373,35.2108
				L48.3373,35.2108z"/>
			<path class="st9" d="M48.4386,34.9251l1.1721-0.004"/>
			<path class="st9" d="M47.9018,34.2341c0,0,0.0938,0.5482,0.5266,0.678"/>
			
				<linearGradient id="SVGID_23_" gradientUnits="userSpaceOnUse" x1="-803.6946" y1="127.832" x2="-804.3728" y2="128.0582" gradientTransform="matrix(0.9961 0 0 -2.2526 848.268 321.5009)">
				<stop  offset="0" style="stop-color:#FF0000"/>
				<stop  offset="1" style="stop-color:#FFFF00"/>
			</linearGradient>
			<path class="st20" d="M47.8297,34.2269c0.0433-0.2092,0.1226-0.2452,0.2092-0.5121c0.0144-0.2597-0.2092-0.2308-0.1443-0.3967
				c0.1154-0.1803,0.0577-0.3534-0.1587-0.4905c0.0433,0.238-0.2813,0.4616-0.2813,0.6564c0,0.1948,0.1659,0.1515,0.1443,0.4472
				c0.0144,0.1731-0.0433,0.1298-0.0577,0.2957H47.8297L47.8297,34.2269z"/>
			<path class="st9" d="M49.2422,32.9271c0,0.0916-0.0742,0.1659-0.1658,0.1659c-0.0916,0-0.1659-0.0743-0.1658-0.1659
				c0-0.0916,0.0742-0.1659,0.1658-0.1659C49.168,32.7612,49.2422,32.8354,49.2422,32.9271z"/>
		</g>
	</g>
	<g>
		<g id="lamp_12_">
			<path class="st8" d="M48.1811,36.866l0.9077-1.3331l0.9121,1.3359"/>
			<path class="st9" d="M49.2711,36.3677c0,0.0996-0.0807,0.1803-0.1803,0.1803c-0.0996,0-0.1803-0.0807-0.1803-0.1803
				c0-0.0996,0.0807-0.1803,0.1803-0.1803C49.1904,36.1873,49.2711,36.2681,49.2711,36.3677z"/>
			<path class="st9" d="M48.3518,37.8507l1.4072,0.004c0,0,0.0221-0.1826-0.147-0.2936c0.7371-0.1014,0.5456-0.7515,1.1629-0.7883
				c0.1198,0.0184-0.3225,0.2764-0.3225,0.2764s-0.3722,0.2626-0.2027,0.3962c0.1346,0.106,0.1935-0.0645,0.2119-0.1935
				c0.0184-0.129,0.5989-0.2119,0.5159-0.5804c-0.1382-0.304-0.949,0.2027-0.949,0.2027l-0.5784-0.0032
				c-0.0361-0.0649-0.1955-0.3253-0.3601-0.3265c-0.1953,0.0071-0.3329,0.3297-0.3329,0.3297h-0.8384h-0.4699
				c0,0-0.0449,0.3357,0.6185,0.4002c0.1493,0.1951,0.2651,0.2496,0.395,0.3C48.3758,37.6464,48.3514,37.7337,48.3518,37.8507
				L48.3518,37.8507z"/>
			<path class="st9" d="M48.4531,37.5651l1.1721-0.004"/>
			<path class="st9" d="M47.9162,36.874c0,0,0.0938,0.5482,0.5266,0.678"/>
			
				<linearGradient id="SVGID_24_" gradientUnits="userSpaceOnUse" x1="-803.905" y1="144.8589" x2="-804.5832" y2="145.0851" gradientTransform="matrix(0.9961 0 0 -2.2526 848.492 362.4949)">
				<stop  offset="0" style="stop-color:#FF0000"/>
				<stop  offset="1" style="stop-color:#FFFF00"/>
			</linearGradient>
			<path class="st21" d="M47.8441,36.8668c0.0433-0.2092,0.1226-0.2452,0.2092-0.5121c0.0144-0.2597-0.2092-0.2308-0.1443-0.3967
				c0.1154-0.1803,0.0577-0.3534-0.1587-0.4905c0.0433,0.238-0.2813,0.4616-0.2813,0.6564c0,0.1948,0.1659,0.1515,0.1443,0.4472
				c0.0144,0.1731-0.0433,0.1298-0.0577,0.2957H47.8441L47.8441,36.8668z"/>
			<path class="st9" d="M49.2566,35.567c0,0.0916-0.0742,0.1659-0.1658,0.1659c-0.0916,0-0.1659-0.0743-0.1658-0.1659
				c0-0.0916,0.0742-0.1659,0.1658-0.1659C49.1824,35.4011,49.2567,35.4754,49.2566,35.567z"/>
		</g>
	</g>
	<g>
		<path class="st9" d="M45.3549,38.1084c0,0,0.3672,0.8467,0.7854,0.3264s0.2652-0.7447,0.2652-0.7447l-0.9385-0.51l-0.2754,0.5814
			L45.3549,38.1084L45.3549,38.1084z"/>
		<path class="st22" d="M46.1608,37.9961c0,0,0.0612,0.0102,0.1122-0.0816s-0.1122-0.1326-0.1836-0.2346l-0.0816,0.1632
			L46.1608,37.9961z"/>
		<path class="st22" d="M44.039,37.7717l-0.8263,0.4488c0,0-0.408,0.0816-0.4386,0c-0.0306-0.0816,0.0102-0.153,0.2244-0.1632
			c0.2142-0.0102,0.7957-0.5406,0.7957-0.5406L44.039,37.7717L44.039,37.7717z"/>
		<path class="st22" d="M44.0492,23.0928c0,0,0.0204,0.1938,0.0306,0.2958c0.0102,0.102-0.1632,0.3162-0.1734,0.306
			c-0.0102-0.0102-0.0918,0.0102-0.0816,0.0714c0.0102,0.0612,0.1326,0.0816,0.1326,0.0816s-0.051,0.2142,0,0.2244
			c0.051,0.0102-0.1326,0.2754,0,0.3468c0.1326,0.0714,0.357,0.1632,0.459,0.1428c0.102-0.0204,0,0.3978,0,0.3978l-0.2856,0.612
			l1.5709-0.1632l-0.3264-0.5202c0,0-0.153-0.102-0.1122-0.3978c0.0408-0.2958-0.0204-1.6321-0.0204-1.6321l-1.1221-0.153
			L44.0492,23.0928L44.0492,23.0928z"/>
		<path class="st22" d="M43.7635,25.4186c0,0-0.51,0.2346-0.4896,0.8671c-0.1326,0.612-0.204,1.2241-0.204,1.2241
			s-0.6018,0.6834-0.7855,0.9283c-0.1836,0.2448-0.459,0.7446-0.561,0.8773c-0.102,0.1326-0.4998,0.5713-0.4896,0.7345
			c0.0102,0.1632-0.0918,0.8875,0.306,0.9691c0.102,0.0408,0.4284-0.8365,0.4284-0.8365s0.0204-0.3774-0.0918-0.4488
			c-0.1122-0.0714,0.2448-0.3162,0.2448-0.3162s0.6834-0.4998,0.8365-0.6222c0.153-0.1224,0.5712-0.5916,0.5712-0.5916
			L43.7635,25.4186L43.7635,25.4186z"/>
		<path class="st23" d="M44.345,24.9392c0,0,0.1326,0.357,0.4284,0.2958c0.2958-0.0612,0.6427-0.3366,0.6427-0.3366
			s0.2754-0.0102,0.3162,0.0306c0.0408,0.0408,0.7446,0.7242,0.7243,0.9385c-0.0204,0.2142-0.3264,0.153-0.4386,0.2958
			c-0.1122,0.1428-0.2958,0.4998-0.2448,0.7651c0.051,0.2652,0.204,0.6121,0.1836,0.7447
			c-0.0204,0.1326-0.1326,0.1734-0.1326,0.2448c0,0.0714,0.0918,0.1938,0.0918,0.3264s-0.1224,0.3264-0.102,0.459
			c0.0204,0.1326,0.0306,0.5202,0.0306,0.5202l-0.0306,1.7953c0,0,0.102,0.0612,0.1122,0.1632
			c0.0102,0.102,0.6936,3.0704,0.6936,3.0704s-0.0306,0.0918-0.102,0.0816s0.2754,0.459,0.2856,0.5916
			c0.0102,0.1326,0.357,1.1731,0.3468,1.3159c-0.0102,0.1428-0.0612,0.459-0.0918,0.4692
			c-0.0306,0.0102,0.2244,0.6529,0.1836,0.7549c-0.0408,0.102-0.459,0.0918-0.459,0.0918l-0.1122-0.0204
			c0,0,0.0102,0.1326-0.0714,0.1428c-0.0816,0.0102-0.6834-0.0306-0.6834-0.0306s-0.1734,0.2652-0.2754,0.255
			c-0.102-0.0102-0.2346-0.1938-0.2652-0.1632c-0.0306,0.0306,0.0918,0.204,0.0612,0.255c-0.0306,0.051-0.5508,0.1632-0.6529-0.0816
			c-0.102-0.2448,0.0612-0.1836,0.0306-0.2346c-0.0306-0.051-0.2652-0.1836-0.3366-0.1428c-0.0714,0.0408,0.1836,0.102,0.1734,0.204
			c-0.0102,0.102-0.2244,0.255-0.306,0.255c-0.0816,0-0.2754-0.3774-0.561-0.3366c-0.2856,0.0408-0.4692,0.1122-0.4692,0.1122
			s-0.3366,0.1428-0.4794,0.1122c-0.1428-0.0306-0.204-0.1428-0.204-0.204c0-0.0612,0.102-0.3264,0.0918-0.408
			c-0.0102-0.0816-0.0918-0.1632-0.0918-0.2856c0-0.1224,0.2346-0.5406,0.2346-0.5406l-0.0102-1.8769c0,0-0.2142,0-0.2244-0.1326
			c-0.0102-0.1326,0.3264-2.9684,0.3774-3.152c0.051-0.1836,0.1836-0.8365,0.1836-0.8365s-0.153,0.0714-0.1632,0
			c-0.0102-0.0714,0.459-1.6933,0.459-1.6933s0.0816-0.8059,0.0816-1.0201s-0.0408-0.51-0.0408-0.51s-0.4188-0.1773-0.4284-0.4488
			c-0.0383-0.432,0.3978-0.6733,0.4488-0.8161c0.051-0.1428,0.204-0.5712,0.204-0.5712S43.9778,25.0004,44.345,24.9392z"/>
		<path class="st9" d="M44.192,37.8941c0,0-0.9895,0.5202-1.1323,0.561s-0.2346-0.1734-0.0918-0.2142
			c0.1428-0.0408,0.3672-0.0612,0.3672-0.0612s-0.3366-0.2652-0.3264-0.2754c0.0102-0.0102,0.459-0.1734,0.4692-0.1734
			s0.1428,0.2652,0.2346,0.2448c0.0918-0.0204,0.357-0.2244,0.357-0.2244S44.2124,37.9145,44.192,37.8941z"/>
		<path class="st22" d="M45.586,38.1797c0.0936,0.1207,0.1301,0.3299,0.3444,0.2075c0.2142-0.1224-0.1097-0.3496-0.1097-0.3496
			L45.586,38.1797L45.586,38.1797z"/>
		<path class="st22" d="M45.9771,38.1593c0,0,0.102,0.0816,0.1938-0.0102c0.0918-0.0918-0.1836-0.2856-0.1836-0.2856l-0.1326,0.153
			L45.9771,38.1593z"/>
		<path class="st22" d="M46.4158,25.9142c0.0102,0,0.3366,1.0099,0.3774,1.2649c0.0408,0.255,0.1734,1.2751,0.1224,1.4179
			c-0.051,0.1428-0.5712,0.8263-0.6325,0.9997c-0.0612,0.1734-0.4284,0.8365-0.4284,0.8365s-0.0918,0.6529-0.1326,0.6834
			c-0.0408,0.0306,0.1053,0.1908,0.0918,0.2448c-0.0202,0.0607-0.2958,0.3468-0.4182,0.3162
			c-0.1224-0.0306-0.3162-0.1734-0.3264-0.306c-0.0102-0.1326,0.0102-0.5712,0.102-0.6834
			c0.0918-0.1122,0.5712-1.2445,0.6018-1.3159c0.0306-0.0714,0.4386-0.9589,0.4488-1.1119c0.0102-0.153-0.1269-0.5068-0.2712-0.6367
			C45.6297,26.6788,45.7559,26.109,46.4158,25.9142L46.4158,25.9142z"/>
		<path class="st24" d="M44.0185,23.0317c0,0,0.2244,0.0306,0.3468-0.0408c0.1224-0.0714,0.2652-0.102,0.3672,0.0408
			s0.1734,0.1326,0.1734,0.1326s-0.153,0.3774,0,0.4182c0.153,0.0408,0.2244,0.0408,0.2346,0.0918
			c0.0102,0.051-0.1326,0.1632-0.0918,0.2142c0.0408,0.051,0.1122,0.1122,0.1224,0.153c0.0102,0.0408-0.0918,0.2142-0.0612,0.255
			c0.0306,0.0408,0.1224,0.204,0.1836,0.204c0.0612,0,0.0204,0.255,0.204,0.1938s0.1734-0.2244,0.1734-0.2244
			s0.1938-0.0306,0.2448-0.204c0.051-0.1734,0.1734-0.2142,0.1734-0.2142s0.2448-0.1326-0.0816-0.3366
			c0-1.4281-0.9385-1.2751-0.9385-1.2751s-0.1122-0.255-0.2958-0.2244s-0.1938,0.2448-0.3264,0.2244
			c-0.1326-0.0204-0.1632-0.1122-0.1734-0.102c-0.0102,0.0102-0.1224,0.2142-0.1224,0.2652c0,0.051-0.357-0.0714-0.3264,0.1938
			C43.8553,23.0623,44.0288,23.0521,44.0185,23.0317L44.0185,23.0317z"/>
		<g>
			<path class="st25" d="M45.6711,25.337c0,0-0.9079,0.5814-0.8875,0.7855"/>
			<path class="st25" d="M45.8751,25.439c0,0-0.204,0.2244-0.2142,0.2244"/>
			<path class="st25" d="M46.1505,25.6839c0,0-0.4488,0.3672-0.3774,0.6018"/>
			<path class="st25" d="M44.0288,25.286c0,0-0.1326,0.2754-0.102,0.3672c0.0306,0.0918,0.255,0.4386,0.2856,0.6529
				c0.0306,0.2142,0,0.3672,0,0.3672"/>
			<path class="st25" d="M43.7942,25.796c0,0,0.0408,0.3264,0.102,0.3876c0.0612,0.0612,0.2244,0.3366,0.2448,0.4488"/>
			<path class="st25" d="M43.7126,27.1527c0,0,0.2652,0.1326,0.51-0.3774"/>
			<path class="st25" d="M44.6204,26.4183c-0.0102,0-0.1938,0.4998,0.1326,0.6834c0.3264,0.1836,0.5712,0.1632,0.7141,0.1122
				c0.1428-0.051,0.2958-0.1428,0.2958-0.1428"/>
			<path class="st25" d="M44.4776,27.0304c0,0,0.0204,0.6733,1.0099,1.3363"/>
			<path class="st25" d="M44.5184,27.6627c0,0-0.0102,0.5916,0.3774,0.8569"/>
			<path class="st25" d="M44.3144,26.9691c0,0-0.2958,0.8773-0.5304,0.9691"/>
			<path class="st25" d="M44.2226,27.6117c0,0-0.0102,0.6324-0.0918,0.8569"/>
			<path class="st25" d="M44.0492,28.6216c0,0,0.204,0.255,0.4284,0.2346c0.2244-0.0204,0.3162-0.2856,0.4692-0.2448
				c0.153,0.0408,0.2958,0.1632,0.6529,0.1326"/>
			<path class="st25" d="M45.0897,29.0093c0,0,0,0.5202,0.0918,0.5712c0.0918,0.051,0.051,0.5304,0.051,0.5304"/>
			<path class="st25" d="M43.8452,28.7645c0,0-0.0102,0.4896-0.0714,0.6631c-0.0612,0.1734-0.1836,0.4692-0.1632,0.7242"/>
			<path class="st25" d="M43.2229,30.4374c0.051-0.0204,0.2244-0.1734,0.2244-0.1734"/>
			<path class="st25" d="M43.5392,30.3762c0,0-0.4386,1.8769-0.3162,2.999"/>
			<path class="st25" d="M43.6412,30.468c0,0-0.2244,1.4077-0.1224,1.6729"/>
			<path class="st25" d="M43.5289,30.4272c0.0102,0,0.8569,0.0612,0.8569,0.0612"/>
			<path class="st25" d="M44.5082,30.3762c0,0,0.2346,0.1224,0.561,0.102"/>
			<path class="st25" d="M44.4062,31.0596c0,0-0.0408,2.4074-0.102,2.9378"/>
			<path class="st25" d="M45.6609,31.6104c0,0,0.2652,2.1116,0.4182,2.3054"/>
			<path class="st25" d="M45.1509,31.8757c0,0,0.1632,1.8667,0.255,2.0299"/>
			<path class="st25" d="M42.8353,34.5585c0,0,0.3162-0.102,0.6018-0.408c0.3264,0.4386,0.8263,0.0204,0.8263,0.0204
				s0.7753,0.5304,1.1221-0.0612c0.5304,0.3468,0.7957-0.051,0.7957-0.051s0.1938,0.2958,0.3366,0.2652"/>
			<path class="st25" d="M45.6711,34.5279c0,0,0.3978,1.8667,0.9895,2.3972"/>
			<path class="st25" d="M43.6208,34.334c0,0,0.051,1.5607,0.1428,2.6624"/>
			<path class="st25" d="M43.5493,36.0988c0,0-0.051,1.0201-0.1122,1.0915"/>
			<path class="st25" d="M42.9475,37.2922c0,0,0.1122,0.4386,0.6732,0.0306c0.561-0.408,0.5712,0.153,0.5916,0.2142
				c0.0204,0.0612,0.1122,0.4998,0.3264,0.1326"/>
			<path class="st25" d="M44.9877,37.0679c0,0-0.0918,0.9079,0.7141,0.2448c0.8059-0.663,0.9385-0.0102,0.9589,0.1938"/>
			<path class="st25" d="M44.9979,22.6848c0,0-0.0714,0.4488,0.408,0.408c-0.0612,0.2448,0.1224,0.3264,0.1224,0.3264"/>
			<path class="st25" d="M45.8853,23.6947c0.0102,0,0.2142,0.1326-0.0102,0.2958"/>
			<path class="st25" d="M45.1917,24.0517c0,0,0.102,0.1224,0.2142,0.0918c0.1122-0.0306,0.2958,0.1122,0.2958,0.1122
				s0.153,0.051,0.1734,0.0204"/>
			<path class="st25" d="M44.5694,24.4394c0,0,0.3468,0.1326,0.5712-0.4182"/>
			<path class="st25" d="M43.9268,23.8579l0.204,0.0102"/>
			<path class="st25" d="M41.6636,30.291l0.016,0.447"/>
			<path class="st25" d="M41.2443,30.2578c0,0,0.2866,0.4793,0.2627,0.7348"/>
			<path class="st26" d="M43.9574,24.0619h0.1836l-0.1632,0.0714"/>
			<path class="st26" d="M45.0858,31.2594c0,0,0.2143-0.0225,0.2076,0.3353c0.1368-0.4445,0.4151-0.455,0.4151-0.455"/>
			<path class="st27" d="M44.2124,23.4907c0.0306,0,0.1428-0.0408,0.1632-0.0102C44.396,23.5111,44.2532,23.5315,44.2124,23.4907z"
				/>
		</g>
	</g>
	<g>
		<path class="st28" d="M44.3539,41.4741c4.3081-0.1197,7.0904-3.2311,7.0605-3.261c-0.0299-0.0299,0.5684-0.8676,1.0471-0.7479
			c0.4787,0.1197,1.1668,1.5258,2.0045,1.825c0.4188,0.6582-0.1197,1.2565-0.2992,1.3762
			c-0.1795,0.1197-0.9873,0.4488-1.1069-0.0299c-0.1197-0.4787-0.359-0.3889-0.359-0.3889s-3.8294,3.7397-8.2572,3.5901
			c-4.5773,0.0299-8.3469-3.5901-8.3469-3.5901l-0.3291,0.359c0,0-0.359,0.3889-0.5385,0.359
			c-0.1795-0.0299-0.9574-0.5385-1.0172-1.0471c-0.0598-0.5086,0.4787-0.8377,0.4787-0.8377s1.3164-1.0172,1.4659-1.5557
			c0.2992-0.2992,0.8676,0.2094,0.8676,0.2094S40.4946,41.7134,44.3539,41.4741L44.3539,41.4741z"/>
		<path class="st29" d="M34.6011,39.16c0,0,0.356-0.0949,0.4865,0.0534c0.1305,0.1483,1.0264,1.0264,1.0264,1.0264"/>
		<path class="st29" d="M35.414,39.5754l-0.356,0.267c0,0,0.8959,0.178,0.6942,0.7654"/>
		<path class="st29" d="M54.1451,39.1304c0,0-0.178-0.0949-0.4569,0.1127c-0.2789,0.2077-0.9849,0.9968-0.9849,0.9968"/>
		<path class="st29" d="M53.3439,39.5517l0.3857,0.2967c0,0-0.8069,0.0534-0.6289,0.8188"/>
	</g>
	<g>
		<path d="M39.1611,40.1099c-0.0233,0.0677-0.0851-0.0018-0.1363,0.0118c-0.1349,0.0051-0.2469,0.0931-0.3624,0.1531
			c-0.3951,0.2304-0.7903,0.4607-1.1854,0.6911c-0.0399-0.0131-0.0304-0.0453-0.0207-0.0777
			c0.1053-0.4935,0.2147-0.9862,0.3172-1.4802c0.017-0.0864,0.0444-0.1938-0.0391-0.2567
			c-0.0355-0.0242,0.0194-0.0734,0.0422-0.0287c0.202,0.1441,0.404,0.2881,0.606,0.4321c-0.0194,0.057-0.0539,0.017-0.0883-0.0061
			c-0.0839-0.0807-0.185-0.0061-0.1825,0.0958c-0.0721,0.3253-0.1424,0.6511-0.2137,0.9766
			c0.2683-0.1595,0.5396-0.3139,0.8054-0.4773c0.0949-0.0422,0.1649-0.1694,0.0662-0.2483
			c-0.0375-0.0221-0.0994-0.0824-0.0376-0.0916C38.875,39.9059,39.018,40.0079,39.1611,40.1099z"/>
		<path d="M39.5868,42.1698c-0.0108,0.0368-0.03,0.045-0.0594,0.0184c-0.2377-0.13-0.4754-0.26-0.7132-0.39
			c0.0108-0.0368,0.03-0.045,0.0594-0.0184c0.0644,0.0438,0.1697,0.0604,0.2166-0.0164c0.0944-0.1514,0.1739-0.3116,0.2614-0.4671
			c0.1189-0.2202,0.2428-0.4378,0.358-0.6599c0.0551-0.0787-0.0064-0.1757-0.0835-0.2094c-0.0261-0.014-0.0645-0.0243-0.0315-0.0556
			c0.0159-0.0196,0.0497,0.0222,0.0728,0.0272c0.2279,0.1246,0.4558,0.2492,0.6836,0.3739c-0.0108,0.0368-0.03,0.045-0.0594,0.0184
			c-0.0645-0.0438-0.1702-0.0605-0.2177,0.0158c-0.0944,0.1514-0.1739,0.3116-0.2614,0.4671
			c-0.1189,0.2202-0.2428,0.4378-0.358,0.66c-0.0551,0.0793,0.0062,0.1769,0.0846,0.2099
			C39.5551,42.1524,39.571,42.1611,39.5868,42.1698z"/>
		<path d="M42.3308,41.5262c-0.0646,0.1812-0.1291,0.3625-0.1937,0.5437c-0.0793-0.0084-0.0266-0.11-0.0513-0.1635
			c-0.0283-0.2447-0.2088-0.4732-0.4547-0.5255c-0.188-0.0512-0.3864,0.0456-0.4968,0.1985
			c-0.1668,0.2277-0.2683,0.5057-0.2825,0.7879c-0.0095,0.1604,0.0641,0.325,0.2041,0.4094
			c0.111,0.0732,0.2458,0.1026,0.3776,0.0989c0.0465-0.1371,0.1021-0.2714,0.1409-0.4109c0.0159-0.0907-0.0779-0.1455-0.153-0.1663
			c-0.0117-0.0263,0.0174-0.0587,0.0479-0.0304c0.2369,0.0844,0.4739,0.1688,0.7108,0.2532
			c-0.0085,0.0875-0.1073-0.007-0.1621,0.0279c-0.0876,0.0336-0.0951,0.1389-0.1283,0.215
			c-0.0289,0.0811-0.0577,0.1621-0.0866,0.2432c-0.3185,0.0225-0.6468-0.0449-0.924-0.2052
			c-0.2695-0.1698-0.4518-0.4977-0.3987-0.8193c0.041-0.2752,0.2126-0.533,0.4664-0.6546c0.2331-0.1239,0.5176-0.1234,0.7596-0.0252
			c0.1324,0.0446,0.2466,0.1264,0.349,0.2196c0.0621,0.0837,0.1822,0.0839,0.2331-0.0113
			C42.3027,41.5162,42.3168,41.5212,42.3308,41.5262"/>
		<path d="M43.4869,43.3817c-0.0014,0.0289-0.0047,0.0554-0.0393,0.0392c-0.2713-0.0411-0.5426-0.0822-0.8138-0.1233
			c0.0014-0.0289,0.0047-0.0554,0.0393-0.0392c0.0706,0.0144,0.1651,0.0132,0.1992-0.0629
			c0.0345-0.1087,0.0413-0.2239,0.0612-0.3358c0.0466-0.3127,0.0963-0.625,0.1408-0.9381c0.0173-0.0675-0.0058-0.1438-0.0757-0.17
			c-0.0395-0.0188-0.0836-0.0216-0.1262-0.0287c0.0014-0.0289,0.0047-0.0554,0.0393-0.0392
			c0.2713,0.0411,0.5426,0.0822,0.8138,0.1233c-0.0014,0.0289-0.0047,0.0554-0.0393,0.0392
			c-0.0709-0.0146-0.1651-0.0127-0.2004,0.0627c-0.0345,0.1087-0.0413,0.2238-0.0612,0.3358
			c-0.0466,0.3127-0.0963,0.625-0.1408,0.9381c-0.0171,0.0673,0.0061,0.1452,0.0763,0.1706
			C43.4001,43.3716,43.4442,43.3746,43.4869,43.3817L43.4869,43.3817z"/>
		<path d="M45.684,42.848c-0.0107,0.1924-0.0215,0.3848-0.0322,0.5771c-0.484,0.0247-0.9679,0.0494-1.4519,0.0741
			c-0.0089-0.0353,0.0006-0.0541,0.039-0.0467c0.073,0.0019,0.167-0.0291,0.1763-0.1128c0.0065-0.1434-0.0097-0.2869-0.0145-0.4303
			c-0.0157-0.286-0.027-0.5723-0.0457-0.8581c0.008-0.0851-0.0687-0.1482-0.1494-0.1456c-0.0256-0.013-0.095,0.0267-0.0881-0.02
			c-0.0117-0.0379,0.0409-0.0177,0.0631-0.025c0.2692-0.0137,0.5384-0.0275,0.8076-0.0412c0.0089,0.0353-0.0006,0.0541-0.039,0.0467
			c-0.0746-0.0004-0.1716,0.0178-0.1923,0.102c-0.0118,0.1241,0.0055,0.2489,0.0089,0.3732
			c0.0164,0.2979,0.0279,0.5961,0.0476,0.8937c-0.006,0.0779,0.0565,0.1468,0.1372,0.1318
			c0.1179-0.0059,0.2383-0.0009,0.3533-0.0305c0.1615-0.043,0.2495-0.2029,0.2937-0.3522c0.029-0.0404,0.005-0.1411,0.0689-0.1353
			C45.6725,42.8486,45.6782,42.8483,45.684,42.848"/>
		<path d="M46.8159,41.4509c-0.0385,0.0007-0.0215,0.0498-0.0313,0.0755c-0.0643,0.4815-0.1252,0.9634-0.1917,1.4446
			c-0.0162,0.1066-0.0428,0.2311-0.1479,0.285c-0.0388,0.0138-0.0046,0.0748,0.0309,0.0409
			c0.1616-0.0485,0.3232-0.097,0.4849-0.1455c-0.0061-0.0817-0.0992-0.0075-0.1513-0.0218
			c-0.1112-0.0001-0.1278-0.1352-0.1123-0.2197c0.0067-0.057,0.0134-0.114,0.0201-0.1711c0.1851-0.0557,0.3703-0.1114,0.5554-0.167
			c0.0709,0.0892,0.149,0.1733,0.2131,0.2674c0.0482,0.0908-0.0689,0.1323-0.1368,0.1499c-0.0317,0.0034-0.004,0.0698,0.0249,0.0389
			c0.2433-0.0729,0.4866-0.1459,0.7299-0.2188c-0.0022-0.0826-0.108-0.0052-0.1525-0.0603
			c-0.1366-0.1027-0.2347-0.2455-0.3477-0.3719C47.3411,42.0684,47.0785,41.7596,46.8159,41.4509L46.8159,41.4509z M46.8119,42.0285
			c0.1315,0.157,0.263,0.3139,0.3944,0.4709c-0.1576,0.047-0.3153,0.0939-0.4729,0.1409
			C46.7596,42.4363,46.7858,42.2324,46.8119,42.0285z"/>
		<path d="M49.2997,40.3664c0.0699,0.1301,0.1399,0.2602,0.2098,0.3903c-0.0653,0.0561-0.0992-0.074-0.1584-0.0939
			c-0.097-0.0816-0.2433-0.0971-0.3514-0.0278c-0.0442,0.023-0.0879,0.047-0.1319,0.0705c0.211,0.3908,0.4191,0.7831,0.632,1.1728
			c0.033,0.1,0.1557,0.1187,0.2349,0.0623c0.0306-0.0222,0.0584-0.0348,0.0682,0.0121c-0.1071,0.0621-0.2242,0.1212-0.3351,0.1821
			c-0.1397,0.0751-0.2794,0.1502-0.4192,0.2254c-0.0329-0.0341-0.0109-0.0517,0.0262-0.0648
			c0.0994-0.0369,0.1375-0.1575,0.071-0.2423c-0.2065-0.388-0.416-0.7745-0.6237-1.1619c-0.1157,0.0641-0.2634,0.1218-0.2926,0.2661
			c-0.0329,0.0908,0.0154,0.2019,0.0155,0.2791c-0.0356,0.037-0.045-0.0134-0.0615-0.0401
			c-0.0598-0.1112-0.1195-0.2224-0.1793-0.3335C48.4362,40.8307,48.8679,40.5986,49.2997,40.3664L49.2997,40.3664z"/>
		<path d="M50.2819,39.7841c0.1338,0.1774,0.2676,0.3547,0.4014,0.5321c0.0931-0.0591,0.1708-0.1649,0.1429-0.2803
			c0.0107-0.0902-0.1183-0.1924-0.074-0.2557c0.0292-0.0181,0.0464,0.0494,0.0705,0.0672c0.1528,0.2026,0.3056,0.4051,0.4584,0.6077
			c-0.0598,0.0681-0.1031-0.0707-0.1664-0.0857c-0.0893-0.0635-0.2146-0.0951-0.3104-0.0256
			c-0.0715,0.0228-0.0682,0.063-0.0195,0.107c0.1076,0.1389,0.2074,0.284,0.3222,0.417c0.0703,0.0682,0.1576-0.0031,0.2171-0.0504
			c0.1538-0.1047,0.2888-0.2682,0.2809-0.4644c0.0101-0.0856-0.0437-0.1812-0.0432-0.2534
			c0.0345-0.0459,0.0441,0.0254,0.0639,0.0487c0.0723,0.1305,0.1445,0.261,0.2168,0.3915
			c-0.3766,0.2841-0.7532,0.5681-1.1298,0.8522c-0.0491-0.0347-0.0008-0.0552,0.0301-0.0792
			c0.1055-0.0652,0.072-0.1982-0.0057-0.2713c-0.2414-0.3179-0.4785-0.6391-0.723-0.9546c-0.0626-0.0849-0.178-0.0402-0.2412,0.019
			c-0.0262,0.0372-0.0672-0.0373-0.0175-0.0427c0.3551-0.2679,0.7102-0.5357,1.0653-0.8036
			c0.0972,0.1289,0.1944,0.2577,0.2916,0.3866c-0.0676,0.0685-0.1274-0.0841-0.2045-0.0921
			c-0.14-0.0728-0.3064-0.0141-0.4221,0.0779C50.4168,39.6811,50.3499,39.7333,50.2819,39.7841"/>
	</g>
</g>
</svg>
