<?xml version="1.0" encoding="utf-8"?>
<!-- Generator: Adobe Illustrator 22.0.0, SVG Export Plug-In . SVG Version: 6.00 Build 0)  -->
<svg version="1.1" id="Layer_1" xmlns="http://www.w3.org/2000/svg" xmlns:xlink="http://www.w3.org/1999/xlink" x="0px" y="0px"
	 viewBox="0 0 60 60" style="enable-background:new 0 0 60 60;" xml:space="preserve">
<style type="text/css">
	.st0{clip-path:url(#SVGID_2_);}
	.st1{fill:#FFFFFF;}
	.st2{fill:#369443;stroke:#010002;stroke-width:0.1282;stroke-miterlimit:10;}
	.st3{fill:#F4C53D;stroke:#010002;stroke-width:0.1282;stroke-miterlimit:10;}
	.st4{fill:none;stroke:#010002;stroke-width:0.1282;stroke-miterlimit:10;}
	.st5{fill:#F4C53D;stroke:#010002;stroke-width:0.1282;}
	.st6{fill:#F6E200;stroke:#010002;stroke-width:0.1282;}
	.st7{fill:none;stroke:#010002;stroke-width:0.1282;}
	.st8{fill:#0081C6;stroke:#010002;stroke-width:0.1282;stroke-miterlimit:10;}
	.st9{fill:#FFFFFF;stroke:#010002;stroke-width:0.1282;}
	.st10{fill:#A60032;stroke:#010002;stroke-width:0.1282;}
	.st11{fill:none;}
	.st12{fill:#162667;stroke:#010002;stroke-width:0.1282;stroke-miterlimit:10;}
</style>
<g>
	<defs>
		<circle id="SVGID_1_" cx="30" cy="30" r="30"/>
	</defs>
	<clipPath id="SVGID_2_">
		<use xlink:href="#SVGID_1_"  style="overflow:visible;"/>
	</clipPath>
	<g class="st0">
		<rect id="rect3" x="2.75" y="11.8333" class="st1" width="54.4999" height="36.3333"/>
		<path id="path5" class="st2" d="M19.7438,36.4216c0,0-0.0441-0.2986,0.523-0.5177c0.5672-0.219,0.6113-1.0353,0.4978-1.5796
			c0,0-0.2962,0.5177-0.6554,0.6902c0,0-0.5861,0.3053-0.6129,0.8885c0,0-0.0047,0.2132-0.0488,0.3791
			c-0.0241,0.0908-0.2836-0.73,0.2079-1.3406c0.5072-0.6301,0.6491-1.1415,0.2458-2.137c0,0-0.0378,0.6039-0.4348,0.9491
			c-0.397,0.3451-0.4475,0.3717-0.4411,1.1946c0,0,0.0063,0.2854-0.1449,0.3783c0,0-0.3088-0.4513-0.3907-0.75
			c-0.0819-0.2986-0.1197-0.4247,0.2332-0.7699c0,0,1.1306-0.7306,0.3151-2.3295c0,0-0.0252,0.5509-0.4159,0.876
			s-0.3592,0.5442-0.3781,1.1083c-0.0189,0.5641-0.0567,0.5243-0.1008,0.6039c0,0-0.7184-1.3207-0.1639-2.0242
			c0.5545-0.7035,0.8634-0.8495,0.2521-2.1569c0,0,0.0271,0.6703-0.4622,1.0022c-0.4893,0.3318-0.3759,1.1083-0.3759,1.1083
			s0.0315,0.292-0.0693,0.5044c0,0-0.6922-1.3502-0.0315-2.0773c0.5609-0.6172,0.5987-1.0486,0.2962-1.9246
			c0,0-0.0378,0.4049-0.3466,0.6238c-0.3088,0.219-0.5545,0.438-0.4978,1.2809c0,0,0.0252,0.5907-0.0504,0.7566
			c0,0-0.2899-0.5376-0.3718-0.8893c-0.0819-0.3518-0.1134-0.5575,0.1008-0.9092c0.2143-0.3518,1.065-1.3605,0.0504-2.8139
			c0,0-0.0315,0.4712-0.2899,0.8959c-0.2584,0.4247-0.1386,0.9291-0.0819,1.3141c0.0567,0.3849-0.1323,0.7566-0.1323,0.7566
			s-0.4411-0.8097-0.3466-1.7388c0.0945-0.9291-0.2836-1.6923-1.1406-2.2432c0,0-0.6239,1.4468,0.2269,2.1835
			c0,0,0.7247,0.7168,0.9074,1.5862c0,0-0.5483-0.0531-1.0461-1.022c-0.4978-0.969-1.5313-0.8163-1.6007-0.8229
			c0,0,0.1702,1.4999,1.7582,1.9246c0,0,1.0146,0.1726,1.2037,0.9159c0,0,0.1701,0.511,0.2395,0.7831
			c0,0-0.3214-0.1261-0.6176-0.5641c-0.2962-0.438-0.2584-0.4911-1.2604-0.5907c0,0-0.4033-0.0465-0.6176-0.3318
			c0,0,0.4222,1.5862,1.5061,1.5729c0,0,0.9894-0.1062,1.5439,1.1946c0,0-0.1071-0.0663-0.2521-0.1659
			c-0.1449-0.0995-0.5104-0.2854-1.2351-0.1991c-0.7247,0.0863-0.9264-0.0332-1.1091-0.0929c0,0,0.731,1.3406,1.7645,0.9424
			c1.0335-0.3982,1.5326,1.0538,1.5439,1.0818c0,0-0.1386-0.1062-0.3214-0.2854c-0.1827-0.1792-0.5621-0.4002-1.2793-0.1726
			c0,0-0.5167,0.1991-1.0398,0.0398c0,0,0.5042,0.9756,1.6826,0.8097c1.1784-0.1659,1.4746,0.8694,1.4746,0.8694
			s-0.1575-0.0929-0.2647-0.1792c-0.1071-0.0863-0.5042-0.3119-1.3549-0.0597c-0.8507,0.2522-1.1595-0.0398-1.1595-0.0398
			s0.4726,0.8628,1.3801,0.9623c0,0,0.5042-0.0066,0.7184-0.0863c0.2143-0.0796,0.7814-0.2057,1.1721,0.3584
			c0,0-0.1071,0.0199-0.271-0.0531c0,0-0.6049-0.219-1.065,0.1659c0,0-0.4096,0.4181-0.9894,0.3385c0,0,0.7499,0.73,1.9409,0.1128
			c0,0,0.4033-0.292,0.6995-0.0664C19.0569,36.8663,19.7438,36.4216,19.7438,36.4216z"/>
		<path id="path7" class="st3" d="M26.3733,18.4362c0,0-0.1383-1.2351,0.8486-1.3539c1.0293-0.1239,1.5376,0.0929,1.5376,0.0929
			l0.4621,0.907l-0.1597,0.6106l-0.6386,0.292c0,0,0.1092-0.938-0.7506-0.9575c-0.2179-0.005-0.3459,0.0814-0.6905,0.0267
			C26.6359,17.9991,26.4505,18.3799,26.3733,18.4362z"/>
		<path id="path9" class="st3" d="M33.3178,21.4935c-0.1471,0.1903-0.7352,0.2566-0.7352,0.2566s0.6049,0.4646,0.8654,1.1282
			c0.2605,0.6637-7.0118,0.0044-7.0118,0.0044s0.3151-0.2256,0.5294-0.6504c0,0-0.3214,0.1195-0.6428-0.1991
			c0,0,0.2395,0.0796,0.5545-0.3982c0,0,0.4663-0.5973,0.794-0.7566c0,0-0.1513,0.0929-0.5167-0.1062
			c0,0,0.6302-0.0796,0.857-1.1548c0,0,0.0378-0.2389,0.2773-0.584c0.2395-0.3451,0.1891,0.0664,0.6302-0.4646
			c0,0,0.2017-0.3761,0.0252-0.6061c-0.1765-0.2301-0.3655-0.146-0.7352-0.3672c-0.3697-0.2212-0.5336-0.3451-0.4075-0.6858
			c0.126-0.3407,0.4537-0.2876,0.4999-0.2876c0.0462,0,0.0714-0.2964,0.4748-0.5s1.4746-0.1151,1.6342-0.0265
			c0.1597,0.0885,0.8066,0.2787,1.1847,1.2344c0.3781,0.9557-0.1008,1.3141,0.9285,2.7564c0,0-0.4117,0.0885-0.6764,0.0088
			C31.8475,20.0954,32.381,21.0422,33.3178,21.4935z"/>
		<path id="path11" class="st4" d="M28.8184,17.4606c-0.8381-0.0398-0.5167-0.8384-0.5167-0.8384"/>
		<path id="path13" class="st3" d="M30.2741,17.5701c0,0-0.1481-0.0697-0.2734-0.2356c-0.1758-0.2328-0.5679-0.3451-0.779-0.1261
			c0,0-0.2143,0.2389-0.4033,0.2522c0,0,0.2143,0.0664,0.3624,0.2024c0.1481,0.136,0.3025,0.2356,0.523,0.2057
			c0.2206-0.0299,0.2552-0.146,0.3592-0.2157C30.167,17.5834,30.2741,17.5701,30.2741,17.5701z"/>
		<path id="path15" class="st5" d="M35.7251,29.5062c0,0,0.7814,0.6371,1.4368,0c0,0,0.2647,0.3186,0.794,0.2256
			c0.5294-0.0929,0.6176-0.3717,0.668-0.5309c0,0,0.4579,0.2672,0.8444,0.0561c0.3865-0.211,0.3865-0.5295,0.3865-0.5295
			s0.6722,0.1325,1.0167-0.3231c0.3445-0.4556,0.1345-0.9069-0.0504-0.96c0,0,0.7268,0.1904,0.9243-0.4336
			c0.168-0.5309-0.2101-0.8052-0.2101-0.8052s1.5313-0.0073,2.1594-0.4867c0,0,0.521-0.3274,0.2101-0.6725
			c0,0,1.378-0.2212,1.7225-0.7699c0,0,0.1512-0.1504,0.1008-0.4159c0,0-0.0084-0.1504-0.1597-0.1593c0,0,1.5714-0.2427,2.025-0.761
			c0,0,0.2185-0.2389,0.1092-0.5575c0,0-0.0231-0.0841-0.0609-0.1405c0,0,1.4305-0.302,2.1363-0.9391
			c0,0,0.4074-0.363,0.1974-0.8497c0,0,2.3905-0.6546,1.836-1.7076c0,0,1.1175-0.3628,0.7646-1.3716c0,0,0.9243-0.469,0.521-1.2123
			c-0.386-0.7114-1.5712,0.1239-2.9747,0.5122c0,0-3.7976,1.1957-5.6678,1.5138l-5.3138,7.9113l-3.1005,1.1946L35.7251,29.5062z"/>
		<path id="path17" class="st5" d="M35.6873,23.6792c0,0,0.498-0.3739,1.3864,0.0664c0,0,0.2991,0.2059,0.5344-0.0197
			c0.1966-0.1885,0.215-0.5362-0.0554-0.7369c-0.6617-0.4911-0.9075-1.9645,0.1008-2.575c0,0,1.462-0.8672,6.8231-2.2315
			c0,0,0.4492-0.1245,0.6886-0.0648c0.2637,0.0658,0.4453,0.292,0.4826,0.4856c0,0,0.2399,0.6817-0.5666,1.0718
			c0,0-0.3641,0.1666-0.7394,0.2743c0,0,0.4122-0.0891,0.5882,0.3186c0.168,0.3894-0.0756,0.7876-0.8318,1.0442
			c0,0-0.2045,0.0796-0.4957,0.1504c0,0,0.647,0.1858,0.3361,0.7079c0,0-0.2773,0.5486-1.2562,0.646c0,0,0.731,0.0796,0.2143,0.7743
			c0,0-0.2269,0.3805-0.9411,0.5221c0,0,0.542,0.0177,0.2689,0.5044c-0.2731,0.4867-0.9157,0.761-1.548,0.8052
			c0,0-0.3425,0.0177-0.582-0.0354c0,0,0.6008,0.3009,0.2479,0.8052c0,0-0.2605,0.3584-0.9116,0.3407
			c0,0,0.169,0.5632-0.3088,0.7765c-0.3718,0.1659-0.6806-0.0995-0.6806-0.0995s0.126,0.6039-0.4159,0.8163
			c0,0-0.271,0.1394-0.6743,0c0,0-0.3088,0.6902-1.4053,0.2057C34.8491,27.7475,35.6873,23.6792,35.6873,23.6792z"/>
		<path id="path19" class="st6" d="M32.883,25.7167"/>
		<path id="path21" class="st7" d="M52.576,17.3743c0,0-1.7225,0.9973-7.0868,1.9946"/>
		<path id="path23" class="st5" d="M21.8138,35.0102c0,0-0.6386,1.0973-1.4116,1.115c0,0-1.3297-0.1618-1.7057,0.1858
			c-0.2622,0.2425-0.5294,0.4425-0.6386,1.0619s0.21,0.7522,0.2857,0.7787c0,0,0.0588,0.4425,0.4957,0.3274
			c0,0,0.0252,0.4602,0.7982,0.2389c0.773-0.2212,1.0923-0.1504,1.2436-0.9203c0.1512-0.7699,0.2909-0.7573,0.4285-0.8495
			c0.1849-0.1239,0.5321-0.241,0.7898-0.3894c0.2315-0.1333,1.1175-0.5841,1.42-0.6194c0.3025-0.0354,0.2352-1.053,0.2352-1.053
			h-0.7814l-0.3781-0.5575L21.8138,35.0102z"/>
		<path id="path25" class="st7" d="M51.8114,18.7459c0,0-4.662,1.5208-6.8331,1.7076"/>
		<path id="path27" class="st7" d="M49.9754,20.4536c0,0-2.7349,0.8585-5.9376,1.4003"/>
		<path id="path29" class="st7" d="M47.6417,22.2424c0,0-3.09,0.7422-4.5652,0.8654"/>
		<path id="path31" class="st4" d="M45.5684,23.7013c0,0-2.6136,0.5451-3.2758,0.6106"/>
		<polygon id="polygon33" class="st8" points="42.6265,27.6764 42.7573,31.8236 42.7573,31.8236 42.0251,31.3988 42.0251,31.3988 
			40.806,36.6616 40.3029,36.3003 41.4897,31.2582 41.4897,31.2582 40.6622,31.2734 40.6622,31.2734 		"/>
		<path id="path35" class="st4" d="M43.9048,25.0463c0,0-1.9073,0.2898-2.6664,0.2743"/>
		<path id="path37" class="st4" d="M41.5353,26.2056c0,0-0.7712-0.0362-1.1418-0.0978"/>
		<path id="path39" class="st4" d="M40.8211,27.4444c0,0-0.6554-0.177-1.0419-0.4247"/>
		<path id="path41" class="st4" d="M39.8548,28.7275c0,0-0.5042-0.1947-0.7478-0.7256"/>
		<path id="path43" class="st4" d="M38.6239,29.2009c0,0-0.3907-0.3495-0.4159-0.7389"/>
		<polygon id="polygon45" class="st8" points="47.363,29.5206 45.6298,33.247 45.6298,33.247 45.1726,32.5099 45.1726,32.5099 
			41.5135,36.8335 41.1173,36.39 44.7625,32.1211 44.7625,32.1211 44.0251,31.7253 44.0251,31.7253 		"/>
		<path id="path47" class="st4" d="M37.1619,29.5062c0,0,0.1463-0.1262,0.0462-0.6747"/>
		<polygon id="polygon49" class="st8" points="45.7821,26.7851 44.8893,30.8267 44.8893,30.8267 44.2864,30.2167 44.2864,30.2167 
			41.0114,36.514 40.5067,36.2194 43.8037,29.935 43.8037,29.935 43.0007,29.7242 43.0007,29.7242 		"/>
		<path id="path51" class="st4" d="M37.3509,28.0262c0,0,0.0756-0.1571,0.0504-0.4048"/>
		<path id="path53" class="st5" d="M24.2749,29.5062c0,0-0.7814,0.6371-1.4368,0c0,0-0.2647,0.3186-0.794,0.2256
			c-0.5293-0.0929-0.6176-0.3717-0.668-0.5309c0,0-0.4579,0.2672-0.8444,0.0561c-0.3865-0.211-0.3865-0.5296-0.3865-0.5296
			s-0.6722,0.1325-1.0167-0.3231c-0.3445-0.4556-0.1345-0.9069,0.0504-0.96c0,0-0.7268,0.1904-0.9243-0.4336
			c-0.168-0.5309,0.2101-0.8052,0.2101-0.8052s-1.5313-0.0073-2.1594-0.4867c0,0-0.5209-0.3274-0.21-0.6725
			c0,0-1.378-0.2212-1.7225-0.7699c0,0-0.1512-0.1504-0.1008-0.4159c0,0,0.0084-0.1504,0.1596-0.1593c0,0-1.5714-0.2427-2.025-0.761
			c0,0-0.2185-0.2389-0.1092-0.5575c0,0,0.0231-0.0841,0.0609-0.1405c0,0-1.4305-0.302-2.1363-0.9391
			c0,0-0.4074-0.363-0.1974-0.8497c0,0-2.3906-0.6546-1.836-1.7076c0,0-1.1175-0.3628-0.7646-1.3716c0,0-0.9243-0.469-0.5209-1.2123
			c0.386-0.7114,1.5713,0.1239,2.9747,0.5122c0,0,3.7976,1.1957,5.6678,1.5138l5.3138,7.9113l3.1005,1.1946L24.2749,29.5062z"/>
		<path id="path55" class="st4" d="M40.1069,20.1706c0,0-0.8822,0.354-1.1763,0.8407c-0.2941,0.4867-0.1004,0.9597,0,1.2311
			c0.0505,0.1364,0.6722,1.3351-0.0588,2.2023"/>
		<path id="path57" class="st5" d="M24.3127,23.6792c0,0-0.498-0.3739-1.3864,0.0664c0,0-0.2991,0.2059-0.5343-0.0197
			c-0.1966-0.1885-0.215-0.5362,0.0554-0.7369c0.6617-0.4911,0.9074-1.9645-0.1008-2.575c0,0-1.462-0.8672-6.8231-2.2315
			c0,0-0.4492-0.1245-0.6886-0.0648c-0.2637,0.0658-0.4453,0.292-0.4826,0.4856c0,0-0.2399,0.6817,0.5666,1.0718
			c0,0,0.3641,0.1666,0.7394,0.2743c0,0-0.4122-0.0891-0.5882,0.3186c-0.168,0.3894,0.0756,0.7876,0.8318,1.0442
			c0,0,0.2045,0.0796,0.4957,0.1504c0,0-0.647,0.1858-0.3361,0.7079c0,0,0.2773,0.5486,1.2562,0.646c0,0-0.731,0.0796-0.2143,0.7743
			c0,0,0.2269,0.3805,0.9411,0.5221c0,0-0.542,0.0177-0.2689,0.5044c0.2731,0.4867,0.9157,0.761,1.5481,0.8052
			c0,0,0.3425,0.0177,0.582-0.0354c0,0-0.6008,0.3009-0.2479,0.8052c0,0,0.2605,0.3584,0.9117,0.3407
			c0,0-0.169,0.5633,0.3088,0.7765c0.3718,0.1659,0.6806-0.0995,0.6806-0.0995s-0.126,0.6039,0.4159,0.8163
			c0,0,0.271,0.1394,0.6743,0c0,0,0.3088,0.6902,1.4053,0.2057C25.1509,27.7475,24.3127,23.6792,24.3127,23.6792z"/>
		<path id="path59" class="st4" d="M40.0943,25.387c0,0-0.0042-0.0044-0.3151-0.1018"/>
		<path id="path61" class="st4" d="M41.9554,24.1128c0,0-0.5259,0.1059-1.0419,0.1106"/>
		<path id="path63" class="st4" d="M42.6822,22.8164c0,0-0.6176,0.0619-1.1973,0.0531"/>
		<path id="path65" class="st4" d="M43.6023,21.4625c0,0-0.8906,0.177-1.3696,0.1858"/>
		<path id="path67" class="st4" d="M44.3417,19.9494c0,0-1.0984,0.3135-1.9158,0.4247"/>
		<path id="path69" class="st4" d="M40.611,21.0201c0,0,0.7898,0.7344-0.1597,1.4158c0,0,0.3949,0.6194-0.3949,1.2654"/>
		<path id="path71" class="st5" d="M24.3778,29.952c0,0-0.1609,0.8638-1.4367,1.9511c0,0-0.9844,0.8683-0.9592,1.8683
			c0.0257,1.0182-0.1765,1.1326-0.563,1.4778c0,0,0.7982,0.062,1.1847-0.469c0,0-0.0168,0.8849-0.1345,0.9645
			c0,0,0.2503,0.016,0.6134-0.3805c0,0,0.2185-0.2301,0.4201-0.3186c0,0-0.2352,0.6106-0.0504,1.1769
			c0,0,0.0588-0.2212,0.3697-0.3186c0,0,0.563-0.1151,0.7814-0.9291c0,0,0.1428-0.5398,1.0251-1.0176
			c0,0,0.9999-0.3771,0.9747-0.8699S24.3778,29.952,24.3778,29.952z"/>
		<path id="path73" class="st4" d="M40.2665,24.0066c0,0,0.1176,1.1812-1.3276,1.1813c0,0,0.2773,1.053-1.1175,1.0177
			c0,0-0.1597,0.8406-1.1679,0.6725"/>
		<path id="path75" class="st5" d="M38.1876,35.0102c0,0,0.6386,1.0973,1.4116,1.115c0,0,1.3297-0.1618,1.7057,0.1858
			c0.2622,0.2425,0.5294,0.4425,0.6386,1.0619c0.1092,0.6194-0.2101,0.7521-0.2857,0.7787c0,0-0.0588,0.4425-0.4957,0.3274
			c0,0-0.0252,0.4602-0.7982,0.2389c-0.773-0.2212-1.0923-0.1504-1.2436-0.9203c-0.1512-0.7699-0.2909-0.7573-0.4285-0.8495
			c-0.1849-0.1239-0.5321-0.241-0.7898-0.3894c-0.2315-0.1333-1.1175-0.584-1.42-0.6194c-0.3025-0.0354-0.2353-1.053-0.2353-1.053
			h0.7814l0.3781-0.5575L38.1876,35.0102z"/>
		<path id="path77" class="st5" d="M35.6237,29.952c0,0,0.1609,0.8638,1.4367,1.9511c0,0,0.9844,0.8683,0.9592,1.8683
			c-0.0257,1.0182,0.1764,1.1326,0.563,1.4778c0,0-0.7982,0.062-1.1847-0.469c0,0,0.0168,0.8849,0.1345,0.9645
			c0,0-0.2504,0.016-0.6134-0.3805c0,0-0.2185-0.2301-0.4201-0.3186c0,0,0.2352,0.6106,0.0504,1.1769
			c0,0-0.0588-0.2212-0.3697-0.3186c0,0-0.5629-0.115-0.7814-0.9291c0,0-0.1428-0.5398-1.0251-1.0176
			c0,0-0.9999-0.3771-0.9747-0.8699C33.4235,32.5945,35.6237,29.952,35.6237,29.952z"/>
		<path id="path79" class="st7" d="M38.8745,36.1252c0,0,0.2287,0.0509,0.7247,0"/>
		<path id="path81" class="st4" d="M40.994,36.7446c0,0,0.6974-0.1062,0.6638,1.407"/>
		<path id="path83" class="st4" d="M40.5739,37.0897c0,0,0.6302-0.0796,0.5882,1.3893"/>
		<path id="path85" class="st7" d="M34.4906,33.5502c0,0,0.3025,0.0619,0.5126,0.3009c0.21,0.2389,0.6134,0.1947,0.6134,0.1947
			s-0.2185-0.177-0.2941-0.6194c-0.0756-0.4425-0.3193-0.5752-0.3193-0.5752"/>
		<path id="path87" class="st7" d="M35.7248,32.4321c0,0,0.3025,0.062,0.5125,0.3009s0.6134,0.1947,0.6134,0.1947
			s-0.2185-0.177-0.2941-0.6194c-0.0756-0.4425-0.3193-0.5752-0.3193-0.5752"/>
		<path id="path89" class="st7" d="M35.9328,34.1497c0,0,0.2641,0.0541,0.4475,0.2627c0.1834,0.2086,0.5356,0.17,0.5356,0.17
			s-0.1908-0.1545-0.2568-0.5408c-0.066-0.3863-0.2788-0.5022-0.2788-0.5022"/>
		<path id="path91" class="st3" d="M30.9892,41.0894c0,0,0.2291,1.0107,1.0251,0.9291c0,0,0.5629-0.0531,0.521-0.9911
			c0,0,0.8318,0.4425,0.9663-0.6548c0,0,0.7562,0.177,0.7478-0.8495c0,0,0.7058,0.1239,0.6218-0.7876
			c0,0,0.7646,0.2035,0.7646-0.6548c0,0,1.7897-0.2968-1.9409-3.6989l-3.3273,1.9822L30.9892,41.0894z"/>
		<path id="path93" class="st5" d="M30.6195,36.5535c0,0,0.5545,0.492,0.9494-0.2425c0,0,0.5377-0.0265,0.6218-0.4336
			c0,0,0.437-0.0443,0.521-0.4602c0,0,0.5966-0.062,0.5798-0.5663c0,0,1.0846-0.0837,0.0003-1.3117
			c-1.0842-1.228-2.9244,2.0373-2.9244,2.0373L30.6195,36.5535z"/>
		<path id="path95" class="st4" d="M32.5352,41.0275c0,0-0.084-1.7787-1.6256-4.3271"/>
		<path id="path97" class="st4" d="M33.5015,40.3727c0,0,0.2395-1.0265-1.9325-4.0616c0,0,0.2521-0.7256-0.521-1.1902"/>
		<path id="path99" class="st4" d="M34.2493,39.5232c0,0,0.0672-1.1106-2.0585-3.6457c0,0,0.1878-0.6548-0.5825-1.1769"/>
		<path id="path101" class="st4" d="M34.8711,38.7356c0,0-0.0798-1.1238-2.1594-3.3183c0,0,0.104-0.6725-0.6412-1.0884"/>
		<path id="path103" class="st4" d="M35.6357,38.0808c0,0-0.1512-1.2831-2.3442-3.2299c0,0,0.0756-0.5044-0.6554-1.0176"/>
		<path id="path105" class="st3" d="M29.0122,41.0894c0,0-0.2291,1.0107-1.0251,0.9291c0,0-0.5629-0.0531-0.521-0.9911
			c0,0-0.8318,0.4425-0.9663-0.6548c0,0-0.7562,0.177-0.7478-0.8495c0,0-0.7058,0.1239-0.6218-0.7876
			c0,0-0.7646,0.2035-0.7646-0.6548c0,0-1.7897-0.2968,1.9409-3.6989l3.3273,1.9822L29.0122,41.0894z"/>
		<path id="path107" class="st5" d="M29.382,36.5535c0,0-0.5545,0.492-0.9495-0.2424c0,0-0.5377-0.0265-0.6217-0.4336
			c0,0-0.437-0.0443-0.521-0.4602c0,0-0.5966-0.0619-0.5798-0.5663c0,0-1.0846-0.0837-0.0003-1.3117
			c1.0842-1.228,2.9244,2.0373,2.9244,2.0373L29.382,36.5535z"/>
		<path id="path109" class="st4" d="M27.4662,41.0275c0,0,0.084-1.7787,1.6256-4.3271"/>
		<path id="path111" class="st4" d="M26.4999,40.3727c0,0-0.2395-1.0265,1.9325-4.0616c0,0-0.2521-0.7256,0.521-1.1902"/>
		<path id="path113" class="st5" d="M30.0007,36.2491c0.5376,0,1.1467,3.3582,0.9886,5.3814
			c-0.0574,0.7348-0.451,1.335-0.9886,1.335s-0.9312-0.6002-0.9886-1.335C28.854,39.6073,29.4632,36.2491,30.0007,36.2491"/>
		<path id="path115" class="st4" d="M25.7521,39.5232c0,0-0.0672-1.1106,2.0586-3.6457c0,0-0.1878-0.6548,0.5825-1.1769"/>
		<path id="path117" class="st4" d="M25.1304,38.7356c0,0,0.0798-1.1238,2.1594-3.3183c0,0-0.104-0.6725,0.6412-1.0884"/>
		<ellipse id="ellipse119" class="st5" cx="30.0007" cy="36.2225" rx="0.7438" ry="1.1017"/>
		<path id="path121" class="st4" d="M24.3657,38.0808c0,0,0.1512-1.2831,2.3442-3.2299c0,0-0.0756-0.5044,0.6554-1.0176"/>
		<path id="path123" class="st9" d="M30.0007,35.9819c0,0,6.3088-2.7956,6.3246-9.2631H23.6762
			C23.6919,33.1862,30.0007,35.9819,30.0007,35.9819z"/>
		<line id="line125" class="st4" x1="26.5952" y1="26.7188" x2="27.5682" y2="26.7188"/>
		<line id="line127" class="st4" x1="24.6492" y1="26.7188" x2="25.6222" y2="26.7188"/>
		<line id="line129" class="st4" x1="28.5412" y1="26.7188" x2="29.5142" y2="26.7188"/>
		<path id="path131" class="st10" d="M24.6492,26.7188v4.1323c0,0,0.4832,0.9584,0.973,1.5595v-5.6918H24.6492L24.6492,26.7188z"/>
		<path id="path133" class="st10" d="M26.5952,26.7188v6.8119c0,0,0.6085,0.5967,0.973,0.8843v-7.6962H26.5952z"/>
		<path id="path135" class="st10" d="M28.5412,26.7188v8.4201c0,0,0.6942,0.4484,0.973,0.5955v-9.0156L28.5412,26.7188
			L28.5412,26.7188z"/>
		<line id="line137" class="st7" x1="24.6492" y1="26.7188" x2="25.6222" y2="26.7188"/>
		<line id="line139" class="st7" x1="26.5952" y1="26.7188" x2="27.5682" y2="26.7188"/>
		<line id="line141" class="st7" x1="28.5412" y1="26.7188" x2="29.5142" y2="26.7188"/>
		<path id="path143" class="st10" d="M35.3523,26.7188v4.1323c0,0-0.4832,0.9584-0.973,1.5595v-5.6918H35.3523z"/>
		<path id="path145" class="st10" d="M33.4062,26.7188v6.8119c0,0-0.6085,0.5967-0.973,0.8843v-7.6962H33.4062z"/>
		<path id="path147" class="st10" d="M31.4602,26.7188v8.4201c0,0-0.6942,0.4484-0.973,0.5955v-9.0156L31.4602,26.7188
			L31.4602,26.7188z"/>
		<line id="line149" class="st11" x1="36.6649" y1="42.2359" x2="36.0788" y2="42.9526"/>
		<line id="line151" class="st11" x1="35.3523" y1="42.1563" x2="36.9673" y2="43.6494"/>
		<path id="path153" class="st8" d="M40.2003,38.4342l-0.2453,1.003l0,0l0.6716,0.669l0,0l-0.9492,4.0093l-0.8443-1.134
			l-1.251,0.5838l0.9492-4.0093l0,0l0.88-0.2454l0,0l0.2285-1.0012C39.6399,38.3095,39.906,38.2052,40.2003,38.4342z"/>
		<path id="path155" class="st8" d="M40.4251,37.7728l-0.4834,0.9019l0,0l0.4843,0.8293l0,0l-1.9022,3.614l-0.5368-1.3255
			l-1.3518,0.223l1.9022-3.614l0,0l0.9103,0.0029l0,0l0.4667-0.9048C39.9144,37.4996,40.254,37.4989,40.4251,37.7728z"/>
		<path id="path157" class="st8" d="M40.5067,38.0351l-1.2859,1.6336l0,0l0.2947,0.9228l0,0l-2.6253,3.0707l-0.2399-1.4187
			l-1.3648-0.103l2.6253-3.0707l0,0l0.8864,0.2185l0,0l1.364-1.7342C40.1612,37.554,40.5271,37.7357,40.5067,38.0351z"/>
		<path id="path159" class="st4" d="M20.3866,34.0457"/>
		<path id="path161" class="st7" d="M7.424,17.3744c0,0,1.7225,0.9973,7.0868,1.9946"/>
		<path id="path163" class="st7" d="M8.1886,18.7459c0,0,4.662,1.5208,6.8331,1.7076"/>
		<path id="path165" class="st7" d="M10.0246,20.4536c0,0,2.7349,0.8585,5.9376,1.4003"/>
		<path id="path167" class="st7" d="M12.3583,22.2424c0,0,3.09,0.7422,4.5652,0.8654"/>
		<path id="path169" class="st4" d="M14.4315,23.7014c0,0,2.6136,0.5451,3.2758,0.6106"/>
		<path id="path171" class="st4" d="M16.0952,25.0464c0,0,1.9073,0.2898,2.6664,0.2743"/>
		<path id="path173" class="st4" d="M18.4647,26.2056c0,0,0.7712-0.0362,1.1418-0.0978"/>
		<path id="path175" class="st4" d="M19.1789,27.4444c0,0,0.6554-0.177,1.0419-0.4247"/>
		<path id="path177" class="st4" d="M20.1452,28.7275c0,0,0.5042-0.1947,0.7478-0.7256"/>
		<path id="path179" class="st4" d="M21.3761,29.201c0,0,0.3907-0.3495,0.4159-0.7389"/>
		<path id="path181" class="st4" d="M22.8381,29.5062c0,0-0.1463-0.1262-0.0462-0.6747"/>
		<path id="path183" class="st4" d="M22.6491,28.0262c0,0-0.0756-0.1571-0.0504-0.4048"/>
		<path id="path185" class="st4" d="M19.8931,20.1706c0,0,0.8822,0.3539,1.1763,0.8406c0.2941,0.4867,0.1004,0.9597,0,1.2311
			c-0.0505,0.1364-0.6722,1.3351,0.0588,2.2023"/>
		<path id="path187" class="st4" d="M19.9057,25.387c0,0,0.0042-0.0044,0.3151-0.1018"/>
		<path id="path189" class="st4" d="M18.0446,24.1128c0,0,0.5259,0.1059,1.0419,0.1106"/>
		<path id="path191" class="st4" d="M17.3178,22.8164c0,0,0.6176,0.0619,1.1973,0.0531"/>
		<path id="path193" class="st2" d="M19.6132,38.2541c0,0-0.0189-0.5375,0.6616-0.5773l2.0039,2.7873
			c0,0-0.0756,0.1792-0.983,0.1593c0,0-0.0961-0.0006-0.1465,0.1055C21.0717,40.8918,19.6132,38.2541,19.6132,38.2541z"/>
		<path id="path195" class="st4" d="M16.3977,21.4625c0,0,0.8906,0.177,1.3696,0.1858"/>
		<path id="path197" class="st4" d="M15.6583,19.9494c0,0,1.0984,0.3135,1.9158,0.4247"/>
		<path id="path199" class="st4" d="M19.389,21.0201c0,0-0.7898,0.7344,0.1596,1.4158c0,0-0.3949,0.6194,0.3949,1.2654"/>
		<path id="path201" class="st4" d="M19.7335,24.0067c0,0-0.1176,1.1812,1.3276,1.1813c0,0-0.2773,1.053,1.1175,1.0177
			c0,0,0.1596,0.8407,1.1679,0.6725"/>
		<path id="path203" class="st7" d="M21.1249,36.1252c0,0-0.2287,0.0509-0.7247,0"/>
		<path id="path205" class="st4" d="M19.0054,36.7446c0,0-0.6974-0.1062-0.6638,1.407"/>
		<path id="path207" class="st4" d="M19.4255,37.0897c0,0-0.6302-0.0796-0.5882,1.3893"/>
		<path id="path209" class="st7" d="M25.5109,33.5501c0,0-0.3025,0.0619-0.5125,0.3009c-0.21,0.2389-0.6134,0.1947-0.6134,0.1947
			s0.2185-0.177,0.2941-0.6194s0.3193-0.5752,0.3193-0.5752"/>
		<path id="path211" class="st7" d="M24.2767,32.4321c0,0-0.3025,0.062-0.5125,0.3009c-0.21,0.2389-0.6134,0.1947-0.6134,0.1947
			s0.2185-0.177,0.2941-0.6194c0.0756-0.4425,0.3193-0.5752,0.3193-0.5752"/>
		<path id="path213" class="st7" d="M24.0687,34.1496c0,0-0.2641,0.0541-0.4475,0.2627c-0.1834,0.2086-0.5356,0.17-0.5356,0.17
			s0.1908-0.1545,0.2568-0.5409c0.066-0.3863,0.2788-0.5022,0.2788-0.5022"/>
		<path id="path215" class="st12" d="M36.3253,22.02c0,0-3.0957,1.6193-6.3246-0.1328c-3.2289,1.7521-6.3246,0.1328-6.3246,0.1328
			v4.6988h12.6492V22.02L36.3253,22.02z"/>
		<path id="path217" class="st8" d="M7.9248,34.2052c0.3066-0.1251,0.5273-0.2459,0.5264-0.573
			c-0.0002-0.078-0.0435-0.2505-0.1305-0.5176l-2.0584-6.2909C6.1404,26.45,6.0482,26.2279,6.0055,26.146
			c-0.0925-0.1772-0.2742-0.2493-0.5188-0.3512H5.74h2.109h0.2538c-0.2842,0.1343-0.5433,0.2409-0.5409,0.5422
			c0.0009,0.1151,0.0333,0.2773,0.1,0.4868l1.5769,4.9365l1.5753-4.9365c0.0667-0.2095,0.1012-0.3717,0.1001-0.4868
			c-0.003-0.3097-0.2728-0.4213-0.538-0.5422h0.2509h2.0322h0.2523c-0.2318,0.0929-0.4208,0.1657-0.5178,0.3512
			c-0.0428,0.0819-0.1349,0.304-0.2567,0.6778l-2.0584,6.2909c-0.0871,0.267-0.1186,0.4425-0.1306,0.5237
			c0,0-0.0947,0.3979,0.5264,0.5668L7.9248,34.2052L7.9248,34.2052z"/>
		<path id="path219" class="st8" d="M51.79,33.5582v-7.1227c0-0.1232-0.0203-0.2177-0.0609-0.2834
			c-0.0406-0.0657-0.2175-0.255-0.4698-0.3574h0.2523h1.8527h0.2523c-0.2523,0.0835-0.4292,0.2865-0.4698,0.3543
			c-0.0406,0.0678-0.0609,0.1633-0.0609,0.2865v7.1227c0,0.1274,0.021,0.2249,0.0631,0.2927
			c0.042,0.0678,0.2153,0.2332,0.4676,0.3543h-0.2523h-1.8527h-0.2523c0.2523-0.1148,0.4291-0.2916,0.4698-0.3574
			C51.7697,33.7822,51.79,33.6856,51.79,33.5582z"/>
	</g>
</g>
</svg>
