<?xml version="1.0" encoding="utf-8"?>
<!-- Generator: Adobe Illustrator 21.0.2, SVG Export Plug-In . SVG Version: 6.00 Build 0)  -->
<svg version="1.1" id="Layer_1" xmlns="http://www.w3.org/2000/svg" xmlns:xlink="http://www.w3.org/1999/xlink" x="0px" y="0px"
	 viewBox="0 0 335 335" style="enable-background:new 0 0 335 335;" xml:space="preserve">
<style type="text/css">
	.st0{fill:#007900;}
	.st1{fill:#FFFFFF;}
	.st2{fill:#CF142B;stroke:#CF142B;stroke-width:0.0038;stroke-miterlimit:10;}
	.st3{fill:#12110B;}
	.st4{fill:none;stroke:#12110B;stroke-width:0.75;}
	.st5{fill:#E21013;}
</style>
<g>
	<g>
		<g>
			<path class="st0" d="M167.5,335C260,335,335,260,335,167.5H0C0,260,75,335,167.5,335z"/>
			<path class="st1" d="M167.5,0C75,0,0,75,0,167.5h335C335,75,260,0,167.5,0z"/>
		</g>
	</g>
</g>
<g>
	<g>
		<g>
			<g>
				<g>
					<g>
						<g>
							<g>
								<path class="st2" d="M269.0996,140.2085l4.3992-8.5143c0,0-9.0875,2.0273-14.0522,0l28.0989-31.0045
									c0,0-3.3105,22.2376,2.8897,40.6679c0,0-5.7875-0.4551-10.1236-9.2243l-4.3281,15.067"/>
							</g>
						</g>
					</g>
				</g>
			</g>
			<g>
				<g>
					<g>
						<g>
							<g>
								<path class="st3" d="M276.2702,147.2924l-0.597-0.2106l4.5648-15.8031l0.3471,0.689
									c3.4734,7.0102,7.9173,8.6061,9.3794,8.9639c-5.1881-15.9639-3.3922-34.7488-2.8555-39.2848l-27.097,29.8949
									c4.9118,1.688,13.3421-0.1737,13.4156-0.1815l0.6732-0.1368l-4.7384,9.1664l-0.5469-0.3234l4.0914-7.9227
									c-2.2034,0.4365-9.3083,1.5962-13.5707-0.129l-0.4497-0.1893l29.1164-32.1243l-0.1577,1.0412
									c-0.0237,0.2181-3.2158,22.3585,2.8896,40.4889l0.1554,0.4812l-0.4734-0.0342c-0.2393,0-5.7008-0.5285-10.0237-8.7063
									L276.2702,147.2924z"/>
							</g>
						</g>
					</g>
				</g>
			</g>
		</g>
		<g>
			<g>
				<g>
					<g>
						<g>
							<g>
								<polygon class="st3" points="280.6166,132.1913 280.0067,132.0782 281.8708,118.8255 282.4783,118.9254 								"/>
							</g>
						</g>
					</g>
				</g>
			</g>
		</g>
		<g>
			<g>
				<g>
					<g>
						<g>
							<g>
								<polygon class="st3" points="273.7906,131.8073 273.2069,131.597 277.3376,118.7703 277.9213,119.0097 								"/>
							</g>
						</g>
					</g>
				</g>
			</g>
		</g>
	</g>
	<g>
		<g>
			<g>
				<g>
					<g>
						<g>
							<path class="st3" d="M113.899,248.1938c-1.1228-1.5224-1.5224-2.6611-1.2041-3.4104
								c0.2814-0.681,1.0175-0.7178,1.0439-0.7178l0.042,0.639l-0.0237-0.3129l0.0237,0.3129c-0.0054,0-0.3971,0.0447-0.5364,0.3549
								c-0.0765,0.2184-0.1554,0.9467,1.1411,2.7058L113.899,248.1938z"/>
						</g>
					</g>
				</g>
			</g>
		</g>
	</g>
	<g>
		<g>
			<g>
				<g>
					<g>
						<g>
							<path class="st3" d="M73.4734,250.3738l-0.5471-0.3288c0.3735-0.7389,0.4761-1.37,0.2736-1.8775
								c-0.3261-0.8046-1.2647-1.0676-1.2752-1.0676l0.1551-0.6573c0.0474,0.0183,1.2488,0.3576,1.6829,1.4594
								C74.0463,248.5934,73.9413,249.4324,73.4734,250.3738z"/>
						</g>
					</g>
				</g>
			</g>
		</g>
	</g>
	<g>
		<g>
			<g>
				<g>
					<g>
						<g>
							<path class="st3" d="M70.5255,243.5448l-0.3444-0.5574c0.4419-0.3525,0.6864-0.7389,0.7152-1.2095
								c0.0501-0.9494-0.815-2.0273-1.1594-2.335l0.4206-0.5181c0.0633,0.0711,1.4462,1.4306,1.3568,2.9083
								C71.4695,242.4984,71.1303,243.0795,70.5255,243.5448z"/>
						</g>
					</g>
				</g>
			</g>
		</g>
	</g>
	<g>
		<g>
			<g>
				<g>
					<g>
						<g>
							<path class="st3" d="M71.5037,234.9306l-0.3075-0.5838c0.1551-0.1524,0.9806-1.7591,1.6853-3.2053l0.5576,0.2997
								C71.843,234.7386,71.5799,234.8859,71.5037,234.9306z"/>
						</g>
					</g>
				</g>
			</g>
		</g>
	</g>
	<g>
		<g>
			<g>
				<g>
					<g>
						<g>
							<path class="st3" d="M75.5243,238.3306c-2.122,0-2.6428-0.7283-2.7112-0.9044l0.5154-0.342
								c0.0132,0.0237,1.6514,2.1877,12.3614-2.1167l0.213,0.639C80.6017,237.739,77.4202,238.3306,75.5243,238.3306z"/>
						</g>
					</g>
				</g>
			</g>
		</g>
	</g>
	<g>
		<g>
			<g>
				<g>
					<g>
						<g>
							<path class="st3" d="M72.2189,244.5203l-0.4497-0.4653c0.1449-0.1551,3.3186-3.5736,8.9219-1.9853
								c0.0528,0.0156,2.3455,0.8019,5.0144,0l0.1683,0.6546c-2.866,0.8468-5.243,0.0264-5.3561-0.0105
								C75.2693,241.231,72.2531,244.4837,72.2189,244.5203z"/>
						</g>
					</g>
				</g>
			</g>
		</g>
	</g>
	<g>
		<g>
			<g>
				<g>
					<g>
						<g>
							<path class="st3" d="M106.8258,221.5966c-2.4217,0-3.2974-2.6797-3.3132-2.7058l0.5891-0.2184
								c0.0366,0.1158,0.9992,2.9872,3.8364,2.051l0.1734,0.6548C107.6462,221.5333,107.2254,221.5966,106.8258,221.5966z"/>
						</g>
					</g>
				</g>
			</g>
		</g>
	</g>
	<g>
		<g>
			<g>
				<g>
					<g>
						<g>
							<path class="st3" d="M110.8908,213.4741c-2.6899,0-4.2177-1.7303-4.2861-1.8118l0.4497-0.4392
								c0.0132,0.0186,1.6487,1.8329,4.4388,1.5383l0.0525,0.6863C111.3275,213.4741,111.0987,213.4741,110.8908,213.4741z"/>
						</g>
					</g>
				</g>
			</g>
		</g>
	</g>
	<g>
		<g>
			<g>
				<g>
					<g>
						<g>
							<g>
								<g>
									<g>
										<path class="st2" d="M212.171,162.0202h14.2624c0,0,12.1851,2.0351,13.2236,3.1342c0,0,13.6286,3.3765,19.4161,0
											c0,0,5.9927-2.0114,6.403-6.9601c0,0-15.088,6.9601-21.6908-2.9266c0,0-8.0619-10.7836,5.1644-19.0849
											c0,0,13.4315-4.7225,22.9369,3.8259c0,0,18.9982,20.8808-11.3752,38.1827c0,0-7.2258,4.9382-21.2726,6.061l13.8443,8.7773
											l13.4315,9.4163c0,0,1.433,2.0429,2.2639,4.0572c0,0-2.6821,1.8038-6.6025-1.7986l-5.3774-4.0467
											c0,0,2.8924,12.3612,1.8617,17.5283c0,0-1.6514,13.2551-3.7284,17.9672c0,0,1.8668,5.1671,1.8668,5.6141
											c0,0.4653,0-0.447,0-0.447l6.8104,3.3841c0,0,4.131,0.6836,5.7979,6.9628c0,0-1.4594-2.9161-7.0258-2.7082
											c0,0-0.2052,3.1552-3.1108,0c0,0-3.0922-2.9161-7.4256-3.5709c0,0-6.3187,1.0991-6.8761,2.2219
											c-0.5654,1.1411-4.7015,1.349-6.7633-1.5671c0,0-5.7821,0.2367-7.0285,1.5671c-1.2305,1.349-3.3027,5.1773-5.5745,2.9344
											c0,0-2.6821-0.2259-7.6386,2.4823c0,0,1.0307-4.9592,5.5772-6.3028c0,0,2.8924-2.9239,6.4054-3.1528l-11.3647-0.6837
											c0,0-2.4796-2.8978-6.4108,1.5881c0,0-1.4462-3.5838,5.372-6.7444c0,0,1.2491-1.3517,4.9592-1.1309
											c3.7209,0.234-2.4796-2.2429-2.4796-2.2429l0.6234-1.5593c0,0-4.749-1.8143-6.2005-0.2286
											c0,0,0.8258-4.0575,6.4054-3.5892c0,0,0.6206-3.1635,3.5211,0c0,0,5.3693,7.6201,11.149,8.3037
											c0,0,4.4991,2.9242,9.3767-6.0529c0,0-1.3199-5.4143,2.1904-6.5449c0,0-1.0334-5.8322,0.6204-7.1731
											c0,0-2.2744-6.7474-0.8334-8.3199c0,0-4.1259-2.2351-4.3389-4.9145c0,0-3.7128,1.9958-5.5718-1.1384
											c0,0-4.7489,3.3631-9.7081-1.5698c0,0-6.8182,2.9185-10.744-1.8145c0,0-7.8543,2.4877-9.7106-4.7199
											c0,0-5.7823-0.6678-6.8209-2.4613c0,0-7.8387,8.9957-6.1873,13.0529c0,0-2.2798,4.4754,13.6286,8.2854
											c0,0,7.5783,1.7408,7.8492,9.2243l-10.7443-3.3919c0,0-5.3666,15.9714-28.0959,22.2506c0,0,7.4467,0.8915,9.3005,2.9242
											c0,0,7.018,2.2612,7.4284,5.6243c0,0-2.6926-2.7055-7.2286-0.9017c0,0-3.5079,1.5749-6.8158-2.2324l-3.7128-2.4901
											c0,0-4.8803-0.2157-6.3658,1.1228l-3.5551-1.3385c0,0-9.9106,1.3385-11.7696,2.2324l-3.9207,2.7058l-2.2798-0.455
											c0,0-2.4847-2.0063-5.9927,2.4796c0,0-1.2437-5.18,3.5079-6.508l-3.6472-2.7004v-1.796c0,0-2.5429-0.9122-6.0556,1.796
											c0,0,0.8229-5.1749,6.8209-5.3957c0,0,2.4715-1.8143,8.259,1.3517c0,0,3.5106,1.7933,6.1978,0.4338
											c0,0-2.8897-4.6989-5.5799-4.4913l-3.5103-1.1306c0,0-1.028,0-0.8282-2.2429c0,0-2.0668-2.8978-6.6157,0.6758
											c0,0,0-6.0637,7.6465-4.2651c0,0,2.0773-2.7085,5.5826,1.1174c0,0,1.2437,4.9541,10.3312,6.7369
											c0,0,4.7489-2.4508,10.121-2.2378c0,0,0.8282-4.7067,4.9538-4.0308c0,0,0.2103-2.7163,2.4796-4.5045
											c0,0-3.7155-1.3385-3.0949-3.8181c0,0-9.29,3.145-10.7494-4.7225c0,0-9.2927-1.5671-7.4362-12.1323
											c0,0-1.0202,2.7004-7.0183,0.6861c0,0-7.0207,8.759-13.8494,5.8508c0,0-2.6848,2.6794-5.3564,3.5733
											c0,0-1.8695,8.3226-3.9363,10.3444c0,0-5.1617-7.8648-5.3747-13.2524l-14.0441,16.3896c0,0-5.1668,8.1015-6.3949,13.2683
											l7.0102,2.2246c0,0,2.485-0.2184,3.1108,1.3673c0,0,5.5718,0.4497,5.9953,5.3879c0,0-2.9032-2.4613-5.7956-1.3385
											c0,0-5.372,4.9277-10.3207-0.894c0,0-1.6514-4.2756-9.5057-0.2289c0,0-0.4284,0.6575-3.5104,0.2289
											c0,0-0.8309-2.0221-9.3083,2.9083c0,0-4.7384,3.1528-8.475,0.2259c0,0-3.0871-0.6731-6.592,2.4823
											c0,0,0.1971-5.4167,5.159-6.5395v-2.0116l-1.4489-0.9044c0,0-4.5384-1.8038-8.4774,0.4653c0,0,1.8695-5.6216,8.2722-4.512
											l2.2747-2.0221c0,0-1.6592-0.2184-1.2491-2.6794c0,0-1.0256-2.0248-4.7594-0.6731c0,0,0.6312-5.1695,7.4493-2.2639
											c0,0,3.5103,0,6.1925,2.0168c0,0,3.1029,2.03,8.6825,1.8143c0,0,3.9207,2.2402,10.9468-7.6308
											c0,0-1.2386-5.8505,3.9285-9.2321c0,0-1.2308-5.606,3.1081-7.1917c0,0-1.6594-1.7696,1.0202-6.0347
											c0,0-10.9468,0.4287-15.2932,2.2324c0,0-2.4691,8.7509-5.777,11.8854c0,0-0.413-11.8854-5.5721-17.7361
											c0,0-6.8182-9.4346-10.7467-13.0343c0,0-8.4774-7.8567-10.1341-19.9893c0,0-4.1307,7.6359-4.3359,9.4241
											c0,0-0.6152,4.2729-2.4637,3.3921c0,0-4.1391,5.8322-8.2725,2.4505c0,0,5.1722,0,5.3747-5.1485
											c0,0-4.131,0.2079,2.2693-5.3984c0,0,1.4462-3.1528,2.8975-4.5042l1.8539-16.6212c0,0-5.3747-2.6899-5.9926-7.8753
											c0,0-1.4384-3.3472-0.2076-5.1617c0,0-0.192-4.2756-4.3308-5.8217c0,0,5.3693,0.2184,8.0592,3.5736
											c0,0,2.0563-0.213,3.0925,4.0626c0,0,2.0561,7.1812,3.3079,7.8384c0,0-1.8617-11.6829,0.8204-15.4746
											c0,0,0.2049-5.1878-3.9234-6.9865c0,0,5.7877,0.9071,7.8519,5.3984c0,0,2.6821,4.4937,0.8256,10.5442
											c0,0,1.6487-2.03,2.8951-2.03c0,0,2.6926-3.5655,2.6926-6.7078c0,0,2.6689,1.5776,1.2305,8.5406
											c0,0,2.2798,5.1563-4.5489,8.3118c0,0-3.4998,3.1447,0.6258,7.1917c0,0,2.6926,6.508,1.6541,13.0343
											c0,0,5.7794,2.2402,4.746,7.1731c0,0,3.7155-1.7957,6.616,4.0575c0,0,3.918-1.3517,5.7821,1.7933
											c0,0,2.6902-1.3595,3.5052-0.6837c0,0,1.0385-4.0467,2.9002-4.4832c0,0-7.0339-9.674-0.6152-15.2854
											c0,0-1.0386-11.2384,3.7077-12.1431c0,0-1.2359-6.9628,3.9363-9.6503c0,0-0.426-7.4281,3.5052-8.7693
											c0,0-1.4465-5.8427,4.1361-8.9849c0,0-1.8617-1.7987-1.8617-3.8208c0,0-5.159,0-9.5057,8.0937l-1.6514-3.3841
											l-3.3052,8.3223c0,0-2.0615,1.5803-1.8644-5.393c0,0-2.0536-4.7225-1.8617-7.6389c0,0-20.4495-0.9044-22.519-1.7852
											h-2.0615l-1.6514-5.1722h4.3413c0,0,28.5168,2.0246,40.6994-1.804c0,0-0.8309-3.3604-9.0875-5.3876l-0.8258,3.6024
											l-2.6848-1.804l0.6101,2.9161l-2.0563-1.7984v2.4715l-1.8695-1.7852l-0.4155,2.2429l-1.646-1.1309h-1.4411
											c0,0-0.4182-2.2534-2.8978-4.7145c0,0-8.4696-1.804-17.1441,0c0,0,1.859-8.3094,25.4138-9.6689
											c0,0,0.4076-6.5077,14.4544-5.3771l13.8497-0.1473c0,0,2.887-3.237,12.1824-5.4695c0,0,4.5462-2.3953,5.159-3.4446
											l-1.0334,8.3673l2.4847,0.4548c0,0-8.6745,6.5185-8.8796,10.3471l2.8819,5.1668c0,0,6.4108,2.9161,7.4442,5.8427
											c0,0-14.4598,1.5701-2.2798,5.1671c0,0,3.3184,4.9328,2.9083,7.8699c0,0-9.916-5.18-9.3059,1.5542
											c0,0,0.8256,3.831,4.5489,4.9538c0,0,4.1286,4.494,3.9285,8.0832c0,0-11.5828-7.1917-10.1261,0
											c0,0,0.4101,3.8205,6.1975,6.053c0,0,1.2308,0.4629,1.2308,4.0653c0,0-11.149-2.9266-4.9541,7.8465
											C141.3142,168.5309,212.171,162.0202,212.171,162.0202z"/>
									</g>
								</g>
							</g>
						</g>
					</g>
				</g>
				<g>
					<g>
						<g>
							<g>
								<g>
									<g>
										<path class="st3" d="M66.1896,253.7446l0.0237-0.7388c0.0051-0.063,0.2655-5.4956,5.1641-6.7921v-1.5488l-1.2803-0.7914
											l0,0c-0.0159,0-1.691-0.6284-3.8154-0.6284c-1.6304,0-3.0898,0.3549-4.365,1.0832l-0.6917,0.4104l0.2577-0.8387
											c0.0159-0.0369,1.6646-4.8593,6.913-4.8593c0.5022,0,1.0256,0.0393,1.5593,0.1287l1.7408-1.5512
											c-0.192-0.1158-0.4182-0.3078-0.5916-0.5549c-0.3657-0.5628-0.4917-1.2752-0.3551-2.1772
											c-0.1788-0.2181-0.7599-0.8834-2.1167-0.8834c-0.6548,0-1.3988,0.1734-2.2141,0.447l-0.4731,0.1629l0.063-0.5178
											c0.0105-0.0318,0.4575-3.4395,4.089-3.4395c1.0727,0,2.3191,0.2946,3.7338,0.8942
											c0.4812,0.0183,3.726,0.1551,6.2974,2.0798c0.0105,0.0078,3.0766,1.9591,8.4933,1.7486l0.0816-0.0183l0.0738,0.0474
											c0.0051,0,3.739,1.9853,10.4758-7.4283c-0.1473-0.9755-0.6942-6.1346,3.9099-9.29
											c-0.1734-1.0754-0.6416-5.5694,2.9608-7.1917c-0.3654-0.731-0.8019-2.506,0.9203-5.5298
											c-2.3059,0.1263-10.7098,0.6627-14.4358,2.1404c-0.3708,1.2464-2.7085,8.9219-5.84,11.9115l-0.4865,0.4365l-0.0288-0.6993
											c0-0.1104-0.455-11.8143-5.4854-17.5019c-0.0918-0.1185-6.8734-9.4874-10.7203-13.016
											c-0.0816-0.0816-8.1408-7.6833-10.0894-19.2769c-1.3226,2.5165-3.7284,7.2286-3.8601,8.4855
											c-0.0708,0.4101-0.6074,3.8022-2.2927,3.8022c-0.129,0-0.2658-0.0291-0.3918-0.0762
											c-0.5943,0.7755-2.8609,3.4656-5.6351,3.4839c-1.0388,0-2.0116-0.384-2.9293-1.1123l-0.7388-0.6099l0.9308-0.0213
											c0.1947,0,4.6437-0.0603,5.0513-4.491c-0.4182-0.0447-1.0493-0.2184-1.2464-0.8282
											c-0.3366-1.0415,0.8019-2.6611,3.5892-5.1065c0.2262-0.4734,1.5092-3.1344,2.845-4.4571l1.825-16.2504
											c-1.0202-0.5652-5.3618-3.2368-5.9611-7.9671c-0.1788-0.4473-1.3778-3.4998-0.2208-5.3615
											c-0.066-0.6812-0.5601-4.0731-4.1283-5.4326l0.1182-0.6548c0.2184,0.0105,5.4167,0.2736,8.175,3.6024
											c0.5496,0.0342,2.3377,0.447,3.2632,4.2888c0.6234,2.135,1.7171,5.3798,2.548,6.8839
											c-0.405-3.0424-1.2041-11.2648,0.9836-14.5567c0.0051-0.7178-0.1317-4.9673-3.7392-6.5266l0.1578-0.6363
											c0.2418,0.0369,5.9767,0.965,8.0937,5.5484c0.0786,0.1575,2.3689,4.086,1.1699,9.6002
											c0.5733-0.5549,1.37-1.1387,2.1169-1.2386c0.4389-0.6231,2.5268-3.7206,2.5268-6.3895v-0.5759l0.455,0.2736
											c0.1182,0.063,2.8528,1.7591,1.4303,8.8245c0.1551,0.4182,0.6758,2.0773,0.0081,4.0179
											c-0.6575,1.8853-2.2483,3.4368-4.7096,4.5963c-0.2025,0.2001-1.2305,1.265-1.2698,2.8162
											c-0.0159,1.2755,0.6258,2.569,1.9193,3.8286l0.0789,0.0999c0.1026,0.2814,2.635,6.5239,1.7146,12.9872
											c1.0622,0.4917,5.2853,2.7082,4.8014,6.9022c0.2472-0.0657,0.5889-0.1131,0.965-0.1131
											c1.4723,0,3.5865,0.7496,5.3981,4.2495c0.3393-0.1104,0.9941-0.2262,1.7672-0.2262c1.2227,0,2.8819,0.3444,3.9759,1.9958
											c0.6285-0.2841,2.3401-0.9572,3.208-0.7205c0.2865-0.9572,1.1648-3.4473,2.5873-4.194
											c-1.2017-1.8512-6.0872-10.1261-0.4365-15.259c-0.1209-1.4936-0.6942-11.0098,3.6918-12.2325
											c-0.1761-1.4225-0.5208-7.1365,3.9468-9.6239c-0.0315-1.2674-0.0237-7.2732,3.4788-8.7693
											c-0.2079-1.2596-0.6285-6.0058,3.9654-8.8508c-0.5048-0.5918-1.4936-1.8776-1.6303-3.3738
											c-1.1411,0.1473-5.3378,1.1702-8.9483,7.8861l-0.276,0.5283l-1.604-3.2893l-3.1003,7.7649l-0.0603,0.0552
											c-0.0291,0.0183-0.2946,0.2181-0.647,0.2181c-0.3024,0-0.5943-0.1368-0.8229-0.3996
											c-0.668-0.7574-0.965-2.5348-0.8837-5.4326c-0.255-0.6021-1.9193-4.5753-1.8695-7.3758
											c-2.6611-0.126-20.0079-0.9203-22.2481-1.7774h-2.2351l-1.8722-5.8507h4.7804c0.0999,0.021,7.6467,0.5471,16.5264,0.5471
											c10.6546,0,18.8482-0.7547,23.7339-2.2246c-0.4445-0.8309-2.1958-3.1792-8.4249-4.7645l-0.8573,3.7179l-2.4112-1.6172
											l0.6521,3.0739l-2.2666-1.9484v2.5111l-1.9696-1.9037l-0.3891,2.1325l-1.9616-1.3097h-1.604l-0.0525-0.2838
											c-0.0081-0.0078-0.4209-2.1247-2.7349-4.4492c-0.5889-0.1155-4.1307-0.7914-8.6958-0.7914
											c-2.9371,0-5.7086,0.2628-8.2485,0.7914l-0.4761,0.0921l0.1209-0.51c0.0711-0.3261,2.1721-8.5065,25.4483-9.8896
											c0.234-1.22,1.7906-5.5325,11.6355-5.5325c0.9782,0,2.0194,0.0342,3.1132,0.1185l13.6892-0.1185
											c0.5786-0.5838,3.7734-3.4341,12.2457-5.4956c1.667-0.8861,4.5543-2.5795,4.9697-3.3105l0.5757,0.2577l-0.9911,8.0568
											l2.9317,0.5259l-0.6285,0.4656c-0.0813,0.0762-8.3958,6.3712-8.7483,9.9815l2.7979,4.9775
											c0.8255,0.4104,6.5002,3.145,7.5045,5.998l0.1473,0.4101l-0.3971,0.0447c-3.2527,0.3657-6.826,1.2755-6.8812,2.1142
											c-0.0186,0.2655,0.2655,1.1042,4.6461,2.4085l0.1107,0.0183l0.0708,0.0894c0.1317,0.2184,3.3738,5.0855,2.9371,8.1225
											l-0.0552,0.4472l-0.3813-0.2025c-0.0288-0.0081-3.5998-1.8592-6.2267-1.8592c-0.9938,0-1.7063,0.2631-2.1325,0.7757
											c-0.426,0.5022-0.5916,1.286-0.4917,2.314c0.0264,0.1104,0.8309,3.6102,4.3152,4.649l0.0789,0.0447l0.0525,0.0366
											c0.1842,0.2106,4.236,4.6674,4.0311,8.3672l-0.0369,0.531l-0.4286-0.2628c-0.0603-0.0423-5.1143-3.1396-7.9989-3.1396
											c-0.702,0-1.2122,0.1761-1.4804,0.5574c-0.3312,0.447-0.4023,1.1936-0.192,2.206c0,0.0633,0.4944,3.6918,5.998,5.8244
											c0.1446,0.0552,1.4486,0.6468,1.4486,4.3755v0.4286l-0.3918-0.1104c-0.0078,0-1.3487-0.3366-2.8081-0.3366
											c-1.2203,0-2.7796,0.2262-3.3816,1.4042c-0.6336,1.2488-0.1077,3.3709,1.5671,6.2974
											c2.2798,3.9549,14.5018,6.0611,35.3589,6.0611c19.9788,0,41.2067-1.9328,41.417-1.9694h14.2861
											c1.2725,0.2208,11.9115,2.0168,13.3604,3.1921c0.6863,0.1737,6.3424,1.4462,11.6748,1.4462
											c3.2922,0,5.8007-0.4653,7.4469-1.4384c0.1182-0.0447,5.4062-1.8878,6.1819-6.1529
											c-1.4516,0.6021-5.7956,2.2061-10.3891,2.2061c-5.0039,0-8.7536-1.8407-11.178-5.4326
											c-0.129-0.1815-3.2266-4.4097-2.3219-9.7079c0.6417-3.7971,3.1948-7.1208,7.5913-9.8975
											c0.0921-0.0396,3.8628-1.3412,8.7404-1.3412c5.8085,0,10.702,1.7594,14.5357,5.1959
											c0.0948,0.0999,7.2364,8.0751,5.7982,18.1672c-1.1123,7.791-6.8973,14.7172-17.2181,20.589
											c-0.0471,0.0393-7.0891,4.7594-20.4075,6.0056l12.9923,8.2515l13.5104,9.5057c0.0579,0.0813,1.4804,2.0983,2.314,4.1202
											l0.1131,0.2553l-0.2394,0.1629c-0.0237,0.0186-0.7547,0.5022-1.9904,0.5022c-1.1072,0-2.8846-0.3918-4.9778-2.3165
											l-4.6779-3.5235c0.6417,2.9056,2.5507,12.3666,1.6751,16.8129c-0.0816,0.5024-1.6619,13.0739-3.6918,17.8937
											c0.4602,1.265,1.2884,3.6366,1.6565,4.8752l6.7684,3.3394c0.5022,0.0999,4.3887,1.0571,6.0032,7.189l-0.5786,0.2658
											c0-0.0264-1.3856-2.6428-6.4763-2.5243c-0.1236,0.5994-0.4682,1.4042-1.2806,1.4042c-0.6339,0-1.391-0.4944-2.314-1.4963
											c-0.0105-0.0183-3.0424-2.8321-7.21-3.4893c-3.0241,0.5364-6.3004,1.4567-6.616,2.0483
											c-0.2787,0.605-1.1963,0.9572-2.3848,0.9572c-0.7178,0-3.1555-0.1815-4.7883-2.3401
											c-1.6802,0.0708-5.7377,0.4917-6.658,1.475c-0.2208,0.2289-0.4653,0.5576-0.7283,0.902
											c-0.9701,1.2491-2.164,2.7976-3.6075,2.7976c-0.5444,0-1.0886-0.2259-1.5884-0.702c-0.5732,0-3.1237,0.1368-7.3836,2.4532
											l-0.5811,0.3183l0.1473-0.6995c0.0447-0.192,1.1255-5.1062,5.7296-6.5185c0.3183-0.318,1.9511-1.8248,4.152-2.6425
											l-9.1058-0.5286l-0.0843-0.1104c-0.021-0.0447-0.7283-0.8387-1.9589-0.8387c-1.2596,0-2.5954,0.8124-3.981,2.4085
											l-0.3207,0.363l-0.2025-0.4656c-0.0108-0.0288-0.4025-1.0307,0.1104-2.3875c0.6756-1.8143,2.4691-3.4182,5.3957-4.7882
											c0.2577-0.2262,1.6591-1.3649,5.1353-1.1543c0.2865,0.0156,0.5286,0.0156,0.668,0.0105
											c-0.5444-0.4023-1.9906-1.094-3.279-1.5962l-0.3051-0.1263l0.6231-1.5593c-0.6837-0.2208-2.3611-0.7493-3.7731-0.7493
											c-0.8573,0-1.4543,0.192-1.7933,0.5469l-0.7574,0.8204l0.234-1.1201c0.0159-0.0552,0.9257-4.2021,6.4816-3.8943
											c0.15-0.4629,0.5838-1.3568,1.5437-1.3568c0.6995,0,1.4855,0.4917,2.4112,1.4777
											c0.0762,0.0975,5.393,7.5729,10.9834,8.241l0.1104,0.0261c0.0078,0.0081,0.6599,0.3999,1.6883,0.3999
											c1.7327,0,4.3806-1.0835,7.1967-6.2266c-0.171-0.8624-0.9335-5.438,2.1721-6.6895
											c-0.2001-1.2752-0.7547-5.585,0.5994-7.0735c-0.3918-1.2305-1.8958-6.1607-0.9044-8.0829
											c-0.9518-0.5733-3.6339-2.3614-4.1151-4.5833c-0.4814,0.2157-1.3517,0.5103-2.3035,0.5103
											c-1.3175,0-2.3902-0.5943-3.1369-1.6697c-0.5496,0.3366-1.9432,1.0124-3.7761,1.0124
											c-2.1089,0-4.0941-0.8861-5.8979-2.6455c-0.5786,0.2289-2.3956,0.8414-4.5596,0.8414c-2.59,0-4.6805-0.8861-6.2239-2.6452
											c-0.4314,0.0999-1.5224,0.3735-2.8741,0.3735c-2.5294,0-5.7743-0.902-6.9682-5.159
											c-1.0859-0.1368-5.2406-0.773-6.5998-2.2615c-1.286,1.541-7.2918,8.9693-5.8954,12.3798l0.0525,0.1656l-0.0708,0.1368
											c0,0.0078-0.2211,0.4995,0.1236,1.2911c0.6048,1.3856,3.1369,4.0758,13.3103,6.5185
											c0.0711,0.0183,7.8069,1.8773,8.091,9.545l0.0159,0.4629l-10.8835-3.4263c-0.8625,2.1589-6.9655,15.6954-26.7106,21.7382
											c2.2879,0.3627,6.445,1.241,7.8939,2.6977c0.7941,0.2919,7.1548,2.4979,7.5834,5.8979l0.1104,0.9284l-0.639-0.626
											c-0.0051-0.0393-1.4621-1.4435-3.9759-1.4435c-0.9386,0-1.9301,0.192-2.9344,0.5838
											c-0.0183,0.0183-0.773,0.3576-1.9142,0.3576c-1.3307,0-3.3105-0.4548-5.204-2.6635l-3.6102-2.3797
											c-0.1209,0-0.3681-0.0054-0.6864-0.0054c-1.2911,0-4.3437,0.1263-5.3981,1.0466l-0.129,0.1287l-3.6522-1.3778
											c-0.8915,0.1158-9.887,1.3778-11.6172,2.1877l-3.981,2.7688l-2.5192-0.5547c-0.0105,0-0.51-0.3735-1.3331-0.3735
											c-0.9308,0-2.4295,0.4734-4.2333,2.8084l-0.3945,0.4839l-0.1527-0.6207c-0.0078-0.0657-0.318-1.3961-0.0288-2.9083
											c0.2523-1.2935,1.0124-2.953,3.1344-3.8022l-3.2527-2.4139v-1.7039c-0.1815-0.0288-0.455-0.0816-0.8099-0.0816
											c-1.0571,0-2.7349,0.3261-4.7594,1.8853l-0.6153,0.4839l0.1341-0.8046c0.0105-0.0711,0.9308-5.4035,7.0366-5.6771
											c0.2286-0.1551,0.9911-0.5208,2.327-0.5208c1.7828,0,3.8523,0.6497,6.1582,1.9144c0.0159,0,1.817,0.8966,3.7656,0.8966
											c0.6626,0,1.2725-0.1131,1.8116-0.3183c-0.71-1.0595-3.0028-4.1781-5.0669-3.9966l-0.0552,0.0105l-3.5445-1.1492
											c-0.1158-0.0078-0.405-0.0816-0.6626-0.3813c-0.3552-0.4101-0.4866-1.1045-0.4208-2.0614
											c-0.2208-0.2445-0.9177-0.902-2.1587-0.902c-1.1702,0-2.5006,0.5838-3.9495,1.7144l-0.4971,0.3918v-0.6651
											c0-0.0474,0.0579-4.9409,5.3642-4.9409c0.752,0,1.5962,0.1077,2.4874,0.3102c0.2787-0.3102,1.0019-0.8861,2.1062-0.8861
											c1.2017,0,2.4877,0.7127,3.7893,2.143l0.0657,0.0552l0.0261,0.0816c0.0108,0.0447,1.3148,4.7253,9.9817,6.4711
											c0.702-0.3339,5.0144-2.3401,9.9263-2.2324c0.255-0.9569,1.307-4.0914,4.4229-4.0914
											c0.1605,0,0.3444,0.0078,0.5076,0.0264c0.1287-0.7469,0.5838-2.5795,2.135-4.0206
											c-0.9675-0.4734-2.9422-1.604-2.8714-3.4734c-0.6863,0.2103-2.0668,0.5127-3.6207,0.5127
											c-2.6848,0-6.0794-0.9467-6.9997-5.3774c-0.8756-0.2103-4.2072-1.1411-6.2161-4.2204
											c-1.2569-1.9325-1.7354-4.3755-1.4225-7.1917c-0.5154,0.3893-1.3463,0.7286-2.6875,0.7286
											c-1.0754,0-2.3428-0.2184-3.7731-0.6812c-0.8651,1.0388-5.6429,6.3793-11.0308,6.3793
											c-0.9836,0-1.9406-0.1815-2.8426-0.5391c-0.5915,0.5652-2.8399,2.6269-5.1773,3.4813
											c-0.3024,1.2596-2.017,8.3856-3.9813,10.3078l-0.2472,0.2496l-0.213-0.3024c-0.2022-0.3102-4.7696-7.3021-5.3666-12.6687
											l-13.571,15.8295c-0.0234,0.0576-4.9196,7.7412-6.2476,12.8082l6.6658,2.143c0.384-0.0288,2.527-0.0921,3.2712,1.3673
											c0.9938,0.1419,5.7164,1.0388,6.1031,5.6876l0.0708,0.7757l-0.5757-0.4761c-0.0132-0.0261-1.8592-1.5776-4.0023-1.5776
											c-0.4968,0-0.9833,0.0948-1.4408,0.255c-0.3261,0.2946-2.3876,1.9958-5.0801,1.9958c-2.0641,0-3.9576-1.0016-5.63-2.9686
											l-0.0447-0.0921c-0.0261-0.063-0.7467-1.7591-3.4314-1.7591c-1.5356,0-3.4366,0.5469-5.6087,1.6961
											c-0.1734,0.1551-0.639,0.4182-1.8434,0.4182c-0.5469,0-1.1753-0.0552-1.8959-0.1554l-0.1656-0.0261l-0.0789-0.1737
											c0,0.0186-0.1287-0.2103-0.8387-0.2103c-1.0859,0-3.3631,0.5838-8.0226,3.2923
											c-0.0921,0.0525-2.3035,1.5038-4.9565,1.5038c-1.4225,0-2.6899-0.4023-3.7839-1.2515
											c-0.447-0.0606-3.2131-0.3525-6.2896,2.4061L66.1896,253.7446z M218.721,242.5693l11.2411,0.6758v0.6548
											c-3.3553,0.2367-6.1871,3.0265-6.2108,3.0553l-0.1341,0.108c-3.2896,0.957-4.67,3.9363-5.1407,5.2958
											c4.6278-2.3614,7.147-2.1511,7.147-2.1511l0.1053,0.0081l0.0918,0.0735c0.4025,0.4128,0.8099,0.6207,1.2413,0.6207
											c1.1465,0,2.248-1.4384,3.1396-2.5795c0.2682-0.3551,0.5313-0.7047,0.7653-0.9572
											c1.2806-1.4042,6.6157-1.6409,7.2231-1.6775h0.1605l0.1023,0.1551c1.4516,2.0509,3.7314,2.1982,4.3914,2.1982
											c1.0124,0,1.7093-0.3105,1.8434-0.5733c0.6126-1.2227,6.0398-2.2351,7.0996-2.4271l0.0525-0.0183l0.0396,0.0183
											c4.3938,0.6758,7.4755,3.5445,7.6017,3.6708c1.0046,1.0859,1.5752,1.3253,1.8881,1.3253
											c0.6206,0,0.6995-1.094,0.6995-1.1045l0.0156-0.2997l0.2841-0.0105c3.3448-0.1368,5.2616,0.8204,6.2845,1.6883
											c-1.7617-4.6673-4.9355-5.2592-5.0804-5.288l-0.0813-0.0264l-6.3817-3.1633v0.0633h-0.6156v-0.1368
											c-0.0288-0.3183-0.9779-3.0688-1.8485-5.48l-0.0393-0.1446l0.0525-0.1368c2.0222-4.6017,3.6735-17.7176,3.6813-17.8751
											c1.0229-5.054-1.8224-17.2547-1.8407-17.3969l-0.2079-0.8493l6.0505,4.5465c1.9802,1.7984,3.5919,2.1877,4.6071,2.1877
											c0.6678,0,1.149-0.1422,1.4276-0.2789c-0.7467-1.6985-1.8827-3.3367-2.0798-3.6417l-13.3868-9.3845l-14.6962-9.3086
											l0.9965-0.0708c13.8233-1.115,21.0647-5.9716,21.1412-6.0269c10.1444-5.777,15.8215-12.5244,16.9049-20.1051
											c1.3988-9.7529-5.5352-17.4941-5.5955-17.5862c-3.7131-3.2893-8.4618-5.0012-14.1205-5.0012
											c-4.7856,0-8.4564,1.2752-8.496,1.2938c-4.1754,2.6164-6.6157,5.8058-7.2337,9.395
											c-0.8414,4.9802,2.1799,9.1061,2.2114,9.1532c2.2954,3.4473,5.8928,5.1749,10.6864,5.1749
											c5.4665,0,10.5967-2.3296,10.6414-2.3479l0.4917-0.2106l-0.0603,0.5471c-0.426,5.1326-6.3634,7.1836-6.6292,7.2652
											c-1.6775,0.9914-4.2966,1.5119-7.6833,1.5119c-5.7296,0-11.8221-1.4855-11.8932-1.5014l-0.0789-0.021l-0.0708-0.0711
											c-0.689-0.7652-8.3619-2.2693-13.0475-3.0448H212.171c-0.1815,0.0183-21.4331,1.9406-41.4407,1.9406l0,0
											c-21.3725,0-33.4418-2.1431-35.8848-6.3712c-1.8065-3.1608-2.335-5.4959-1.5749-7
											c0.5889-1.1411,1.901-1.7405,3.9153-1.7405c1.0595,0,2.0456,0.1734,2.5714,0.2838
											c-0.084-2.8741-1.0202-3.3105-1.0202-3.3105c-5.9057-2.2876-6.3922-6.1792-6.4079-6.3448
											c-0.2421-1.2044-0.1368-2.1325,0.3153-2.7532c0.405-0.5364,1.0676-0.8097,1.9669-0.8097
											c2.5534,0,6.4843,2.1587,7.836,2.9449c-0.1998-3.0898-3.3211-6.7-3.7734-7.2205c-3.789-1.1939-4.649-5.0039-4.6857-5.1671
											c-0.1185-1.2647,0.0945-2.2246,0.6363-2.8714c0.5469-0.6731,1.4384-1.0043,2.5978-1.0043
											c2.2642,0,5.0486,1.2227,6.082,1.7327c0.0342-2.5612-2.3797-6.4054-2.8003-7.0627
											c-4.5387-1.349-5.0591-2.335-5.0039-3.0529c0.1263-1.6883,4.9223-2.4613,6.9943-2.7085
											c-1.3829-2.6059-7.0207-5.1959-7.0837-5.2325l-0.0921-0.0528l-3.0028-5.3324l0.0027-0.1131
											c0.1917-3.3789,6.4-8.5118,8.4036-10.1131l-2.0324-0.3945l0.9569-7.7544c-1.391,1.1546-4.2177,2.6506-4.5936,2.8531
											c-9.1349,2.2219-12.0825,5.3852-12.1035,5.4221l-0.1026,0.0999h-0.1209l-13.8418,0.1368
											c-1.0964-0.0999-2.135-0.1368-3.0922-0.1368c-10.5469,0-11.0623,5.1485-11.0728,5.2142l-0.0159,0.2997l-0.2655,0.0081
											c-19.4872,1.1147-23.9835,7.0654-24.9092,8.8982c2.4166-0.4919,5.0303-0.7022,7.7832-0.7022
											c5.0486,0,8.864,0.7941,8.9036,0.8099l0.0789,0.0078l0.0684,0.0684c2.0641,2.0405,2.7241,3.9339,2.9266,4.6175h1.283
											l1.3544,0.9203l0.4338-2.3587l1.7513,1.6961v-2.4139l1.867,1.6196l-0.5786-2.7451l2.9452,1.9721l0.8018-3.4761
											l0.2946,0.0921c8.3487,2.0431,9.2873,5.48,9.3164,5.6141l0.0813,0.3417l-0.2919,0.0894
											c-4.9643,1.5305-13.1159,2.3323-24.2544,2.3323c-8.8955,0-16.4606-0.5364-16.542-0.5469h-3.8943l1.4435,4.5096
											l1.9589,0.0105c1.5935,0.7047,15.3615,1.4804,22.4164,1.7882l0.3236,0.0156l-0.0291,0.3498
											c-0.1893,2.7874,1.8223,7.41,1.8407,7.4547l0.0288,0.0813l-0.0051,0.0897c-0.1026,3.5208,0.3996,4.641,0.7073,4.9802
											c0.192,0.2445,0.4653,0.2076,0.5916,0.1446l3.5184-8.8508l1.6985,3.463c4.3176-7.6359,9.2849-7.728,9.4952-7.728h0.2997
											v0.3285c0,1.8592,1.7486,3.5526,1.7645,3.5631l0.3287,0.3288l-0.3972,0.2367c-5.2853,2.9791-3.9837,8.5404-3.9705,8.5956
											l0.0735,0.3078l-0.2865,0.1026c-3.6393,1.2488-3.2896,8.3487-3.2896,8.4222l0.0183,0.2184l-0.1917,0.1182
											c-4.8884,2.5348-3.8025,9.0218-3.7524,9.269l0.0525,0.3471l-0.3075,0.0525c-4.4151,0.8414-3.4815,11.6697-3.4683,11.7696
											l0.0288,0.1815l-0.1368,0.1185c-6.0845,5.3483,0.5997,14.7304,0.6602,14.8144l0.3207,0.4077l-0.489,0.1182
											c-1.3754,0.3366-2.3878,3.1818-2.6611,4.2573l-0.129,0.4839l-0.3627-0.3024c-0.0975-0.0711-0.2658-0.1263-0.4919-0.1263
											c-1.0307,0-2.6767,0.8309-2.7004,0.8387l-0.2313,0.1182l-0.1551-0.2445c-0.944-1.6067-2.4823-1.9247-3.6051-1.9247
											c-1.0229,0-1.8143,0.2628-1.8275,0.2628l-0.2472,0.1026l-0.1131-0.2577c-1.6856-3.4077-3.6393-4.1283-4.9775-4.1283
											c-0.7364,0-1.2308,0.2262-1.2386,0.2262l-0.5601,0.276l0.1236-0.6495c0.965-4.5936-4.4939-6.7813-4.5491-6.7894
											l-0.2472-0.0972l0.0474-0.2946c0.9518-5.9978-1.3304-12.0849-1.5986-12.7686c-1.4015-1.3964-2.0959-2.8348-2.0668-4.2942
											c0.0369-2.0246,1.4384-3.2974,1.4963-3.3709l0.0813-0.0474c2.3323-1.0598,3.8286-2.4874,4.4256-4.2099
											c0.6888-1.9433-0.042-3.6286-0.042-3.6471l-0.0342-0.0813l0.0105-0.1554c1.007-4.7961-0.0105-6.9286-0.6575-7.728
											c-0.3417,3.024-2.611,6.0979-2.7187,6.2503l-0.0894,0.1209h-0.15c-0.9071,0-2.2297,1.3568-2.6638,1.9223l-0.5232-0.3576
											c1.7882-5.8034-0.7652-10.2157-0.7941-10.2523c-1.2332-2.698-3.855-4.047-5.6771-4.712
											c2.4376,2.3137,2.3218,6.0608,2.3191,6.1162v0.0918l-0.0684,0.0921c-2.5717,3.6525-0.773,15.1195-0.7625,15.2379
											l0.1053,0.6732l-0.5444-0.3102c-1.2962-0.7178-3.1105-6.8446-3.4656-8.0568c-0.9018-3.726-2.569-3.8103-2.7529-3.8103
											H54.867l-0.1524-0.1341c-1.604-2.0246-4.281-2.8714-6.0454-3.2368c2.6875,1.9774,2.8795,5.2325,2.8846,5.2667
											l0.0081,0.1104l-0.0738,0.0921c-1.1201,1.6226,0.2289,4.7936,0.2394,4.82l0.0342,0.1026
											c0.5733,4.938,5.7479,7.5729,5.8058,7.599l0.2079,0.1104l-1.9012,16.9997l-0.0999,0.0711
											c-1.3778,1.3043-2.8003,4.3782-2.8084,4.3938l-0.084,0.129c-3.5235,3.0712-3.534,4.1544-3.4473,4.4121
											c0.0999,0.2895,0.6179,0.3813,0.9152,0.3813h0.3285l0.0447,0.3393c-0.1551,4.0257-3.1894,5.1143-4.7592,5.3852
											c0.5862,0.3261,1.1963,0.4839,1.8143,0.4839c2.845,0,5.2616-3.3526,5.288-3.3921l0.1446-0.2076l0.2208,0.0999
											c0.129,0.0711,0.255,0.1026,0.3735,0.1026c0.9887,0,1.5434-2.3824,1.6748-3.1924
											c0.213-1.8431,4.2048-9.2531,4.3704-9.5714l0.4524-0.8202l0.1236,0.9308c1.6118,11.8773,9.9341,19.7238,10.0208,19.8051
											c3.9024,3.5919,10.7152,12.9791,10.7758,13.0607c4.4991,5.1038,5.4299,14.4937,5.6138,17.2205
											c2.9716-3.3919,5.1959-11.1673,5.225-11.2594l0.0342-0.1632l0.1419-0.0552c4.3362-1.7774,14.9383-2.2507,15.3931-2.2507
											l0.6126-0.0264l-0.3495,0.5444c-2.4823,3.939-1.0862,5.6348-1.0676,5.6429l0.3417,0.3945l-0.4602,0.1524
											c-4.0203,1.4594-2.9449,6.5815-2.908,6.7894l0.0576,0.2394l-0.1944,0.126c-4.9013,3.2001-3.8259,8.6327-3.7785,8.8535
											l0.0315,0.1527l-0.0843,0.1365c-4.9382,6.9472-8.4276,7.986-10.0787,7.986c-0.618,0-1.0178-0.1554-1.1756-0.2184
											c-5.5772,0.2184-8.6589-1.7669-8.7876-1.8434c-2.5876-1.9589-5.998-1.9852-6.0322-1.9852l-0.1104-0.021
											c-1.349-0.5811-2.5426-0.8729-3.5497-0.8729c-2.2561,0-3.0661,1.4777-3.3396,2.3059
											c0.6731-0.1998,1.3016-0.2919,1.8749-0.2919c2.0144,0,2.6848,1.2491,2.7136,1.3043l0.0579,0.1104l-0.0264,0.108
											c-0.126,0.7836-0.0552,1.3856,0.2262,1.796c0.2946,0.4443,0.7494,0.5285,0.752,0.5285l0.7127,0.084l-2.9398,2.6059
											l-0.1395-0.0186c-0.5442-0.0918-1.0808-0.147-1.5935-0.147c-3.4945,0-5.2538,2.3138-5.9504,3.5997
											c1.1567-0.4998,2.4478-0.7731,3.8364-0.7731c2.2691,0,3.9915,0.702,4.0677,0.7283l1.646,1.0016v2.506l-0.2418,0.0474
											c-3.5919,0.7994-4.5596,3.9363-4.8278,5.4245c3.3948-2.6821,6.2452-2.0614,6.274-2.0351l0.1182,0.0447
											c0.9941,0.7941,2.1694,1.1963,3.4842,1.1963c2.461,0,4.62-1.412,4.6488-1.412c3.8445-2.272,6.6292-3.3921,8.3304-3.3921
											c0.7704,0,1.1411,0.2445,1.2833,0.4392c0.6467,0.0738,1.2173,0.108,1.6958,0.108c1.1492,0,1.4123-0.2448,1.4123-0.2448
											l0.0576-0.0735h0.0528c2.2876-1.1963,4.2861-1.8065,5.9294-1.8065c2.8663,0,3.8154,1.7696,3.9681,2.1247
											c1.5356,1.7957,3.2656,2.716,5.138,2.716c2.653,0,4.7121-1.8668,4.7355-1.8773l0.0896-0.0528
											c0.5388-0.2208,1.1015-0.3207,1.6958-0.3207c1.5935,0,2.9977,0.7574,3.7734,1.2674
											c-0.8573-3.9099-5.5403-4.3596-5.5982-4.3596h-0.1815l-0.0762-0.1815c-0.5259-1.3568-2.761-1.1465-2.7898-1.1465h-0.0579
											l-7.3653-2.3533l0.0789-0.3261c1.2332-5.1695,6.2293-13.0343,6.4369-13.3553l14.5912-17.0363l0.0315,0.7941
											c0.1815,4.6305,4.1361,11.2042,5.1119,12.761c1.8641-2.3245,3.555-9.8161,3.5811-9.8869l0.0237-0.192l0.1815-0.0579
											c2.5873-0.8546,5.2196-3.4893,5.2484-3.5076l0.1341-0.1473l0.192,0.0735c0.894,0.3813,1.8248,0.5576,2.7979,0.5576
											c5.5691,0,10.6468-6.2557,10.6834-6.2899l0.1449-0.192l0.1971,0.0738c1.4435,0.4917,2.719,0.7467,3.7785,0.7467
											c2.3218,0,2.8504-1.1858,2.8609-1.241l0.5916,0.2181c-0.5469,3.0924-0.1524,5.7167,1.1597,7.7598
											c2.1325,3.2605,5.9768,3.9546,6.0215,3.9732l0.213,0.0288l0.0447,0.2262c0.6207,3.3526,2.782,5.0774,6.4345,5.0774
											c2.0878,0,3.9021-0.6204,3.9126-0.6363l0.5364-0.1473l-0.1446,0.5733c-0.5337,2.1508,2.8663,3.3999,2.8951,3.4182
											l0.576,0.2184l-0.4944,0.3759c-2.1166,1.6751-2.3587,4.2285-2.3587,4.2468l-0.0132,0.3549l-0.3234-0.0552
											c-0.2628-0.0447-0.51-0.0657-0.7361-0.0657c-3.1738,0-3.8784,3.8022-3.8784,3.8286l-0.0528,0.3024l-0.2523-0.0186
											c-5.2328-0.1971-9.9476,2.2063-9.9842,2.2324l-0.0894,0.0291h-0.1026c-8.6091-1.7144-10.3261-6.1898-10.5442-6.892
											c-1.1651-1.2569-2.2903-1.8932-3.3081-1.8932c-1.1333,0-1.751,0.7809-1.7642,0.7809l-0.129,0.1842l-0.171-0.0474
											c-0.9176-0.2367-1.7747-0.3339-2.5294-0.3339c-3.555,0-4.4466,2.3587-4.6727,3.5524
											c1.3544-0.9386,2.6164-1.4303,3.7551-1.4303c1.8194,0,2.6872,1.22,2.7214,1.2752l0.0711,0.0921l-0.0054,0.1263
											c-0.0999,1.0226,0.0711,1.5041,0.2445,1.6958c0.1368,0.1737,0.2814,0.192,0.2814,0.192l0.0711,0.0159l3.4657,1.1045
											c2.7979-0.1632,5.6798,4.4673,5.8085,4.6488l0.192,0.3288l-0.3285,0.1629c-0.7049,0.3471-1.5146,0.5208-2.4244,0.5208
											c-2.0851,0-3.9576-0.9467-4.0338-0.986c-2.2271-1.2122-4.2123-1.8302-5.8901-1.8302c-1.4066,0-2.0693,0.4629-2.072,0.4629
											l-0.0738,0.0552h-0.0813c-4.1835,0.1656-5.7509,2.845-6.2767,4.257c3.1948-2.1245,5.5457-1.3304,5.5931-1.3226
											l0.2076,0.0843v1.8563l4.0914,3.0109l-0.6624,0.2076c-3.4554,0.9755-3.5367,4.0575-3.3975,5.4326
											c1.7855-2.0615,3.2974-2.4952,4.2861-2.4952c0.8678,0,1.4438,0.3285,1.6357,0.4548l2.0876,0.4182l3.8208-2.6242
											c1.9223-0.9389,11.5066-2.2405,11.901-2.3062l0.0789-0.0105l3.463,1.3148c1.2386-0.965,4.0284-1.0964,5.6429-1.0964
											c0.476,0,0.7862,0,0.7862,0h0.0789l3.8523,2.5927c1.7669,2.03,3.5709,2.4505,4.7831,2.4505
											c1.0148,0,1.6907-0.2841,1.6934-0.2841c1.0886-0.4284,2.143-0.6284,3.1552-0.6284c1.6463,0,2.8585,0.5181,3.5946,0.9758
											c-1.3778-2.6164-6.8602-4.4124-6.9286-4.4283l-0.129-0.0867c-1.7591-1.9196-9.0401-2.8135-9.1112-2.8321l-0.0474-0.6731
											c22.3165-6.1529,27.8358-21.8588,27.8805-22.0247l0.1107-0.2997l10.5889,3.3289
											c-0.5496-6.7471-7.4967-8.4036-7.5834-8.4144c-9.9685-2.3899-12.9872-5.1038-13.747-6.9364
											c-0.342-0.8204-0.2313-1.4225-0.1605-1.6856c-1.5146-4.2651,5.9981-12.9056,6.3133-13.2788l0.2868-0.3288l0.2076,0.3735
											c0.7706,1.3568,5.0198,2.1325,6.5923,2.3033l0.2052,0.0474l0.0471,0.2103c1.0493,4.047,4.0758,4.8752,6.4423,4.8752
											c1.6013,0,2.8792-0.3918,2.9029-0.3918l0.1737-0.0606l0.1263,0.1605c1.4198,1.7144,3.4156,2.5873,5.8952,2.5873
											c2.4508,0,4.4808-0.8624,4.5069-0.8729l0.1815-0.0921l0.1368,0.1473c1.7381,1.7513,3.6261,2.6215,5.6324,2.6215
											c2.1589,0,3.6864-1.0622,3.6996-1.0832l0.2735-0.1815l0.1605,0.2919c0.6231,1.0676,1.5671,1.5962,2.7793,1.5962
											c1.2674,0,2.3848-0.5916,2.4007-0.5916l0.4023-0.2211l0.042,0.4944c0.192,2.4613,4.1283,4.649,4.173,4.6647l0.3762,0.2025
											l-0.2973,0.3342c-1.0649,1.1699,0.2895,6.1372,0.8942,7.9515l0.084,0.2445l-0.192,0.1473
											c-1.2146,0.9992-0.7703,5.2853-0.4917,6.8602l0.042,0.3051l-0.2628,0.0711c-3.1843,1.0307-2.0194,5.8979-1.9774,6.1162
											l0.0237,0.1368l-0.0525,0.1077c-2.9977,5.5325-5.9086,6.7183-7.8096,6.7183c-1.0283,0-1.733-0.3627-1.9328-0.4758
											c-5.8244-0.7442-11.0782-8.1279-11.3148-8.4486c-0.957-1.0388-1.5827-1.2755-1.9457-1.2755
											c-0.7784,0-1.0019,1.094-1.007,1.1309l-0.0606,0.2838l-0.2736-0.0105c-3.6102-0.2919-5.1458,1.4042-5.7218,2.4613
											c0.3683-0.1104,0.8232-0.1815,1.3544-0.1815c1.9115,0,4.1886,0.8651,4.2807,0.8913l0.321,0.1185l-0.6233,1.6067
											c3.6972,1.4831,3.6051,2.0326,3.5577,2.2849c-0.0789,0.4917-0.7178,0.4917-1.0676,0.4917
											c-0.1182,0-0.2733-0.0051-0.4338-0.0447c-3.4947-0.1893-4.7147,1.0307-4.7198,1.0307l-0.1026,0.1026
											c-4.8461,2.2036-5.3537,4.6542-5.2958,5.7323c1.3595-1.433,2.7136-2.1719,4.0125-2.1719
											C217.6351,241.6201,218.437,242.296,218.721,242.5693z"/>
									</g>
								</g>
							</g>
						</g>
					</g>
				</g>
			</g>
			<g>
				<g>
					<g>
						<g>
							<g>
								<g>
									<g>
										<g>
											<path class="st3" d="M247.806,232.4354c-0.8729,0-1.9168-0.321-3.1371-0.9599l0.2682-0.5994
												c2.1196,1.0754,3.2685,0.9386,3.8733,0.6651c0.6311-0.3102,0.7758-0.8861,0.7758-0.9098l0.0711-0.1209
												c5.6165-6.9655,1.2068-26.0135,1.1726-26.2054c-3.1974-9.5609-22.4872-12.7583-22.6873-12.7793
												c-21.6986-2.2324-22.1561-17.2625-22.1561-17.4098l0.6233-0.0081c0.0051,0.1554,0.4707,14.557,21.6221,16.7552
												c0.8153,0.1368,19.8555,3.2896,23.187,13.2341c0.1971,0.8546,4.5069,19.5135-1.2542,26.7973
												c-0.0765,0.2472-0.3551,0.8651-1.0808,1.2569C248.7077,232.3247,248.2871,232.4354,247.806,232.4354z"/>
										</g>
									</g>
								</g>
							</g>
						</g>
					</g>
				</g>
				<g>
					<g>
						<g>
							<g>
								<g>
									<g>
										<g>
											<path class="st3" d="M249.3521,226.1824c-1.5461,0-2.548-1.2386-2.5954-1.2965l0.4734-0.4365
												c0.0078,0.0186,0.8597,1.0571,2.122,1.0571c0.0027,0,0.0159,0,0.0264,0c0.9623-0.0078,1.922-0.6468,2.8582-1.8485
												l0.4734,0.4182c-1.0493,1.3934-2.1721,2.0983-3.3316,2.1062C249.368,226.1824,249.3547,226.1824,249.3521,226.1824z"/>
										</g>
									</g>
								</g>
							</g>
						</g>
					</g>
				</g>
				<g>
					<g>
						<g>
							<g>
								<g>
									<g>
										<g>
											<path class="st3" d="M248.6264,218.0782c-0.7205,0-1.1333-0.2919-1.1912-0.3285l0.3498-0.5654
												c0.0708,0.0657,1.9721,1.3199,4.7883-2.8345l0.5076,0.4023C251.2137,217.5025,249.6466,218.0782,248.6264,218.0782z"/>
										</g>
									</g>
								</g>
							</g>
						</g>
					</g>
				</g>
				<g>
					<g>
						<g>
							<g>
								<g>
									<g>
										<g>
											<path class="st3" d="M247.3194,209.5351c-0.3339,0-0.5442-0.0342-0.5889-0.0342l0.1077-0.6653
												c0.021,0,2.4979,0.4023,4.649-1.9142l0.4416,0.4731C250.1803,209.2825,248.2712,209.5351,247.3194,209.5351z"/>
										</g>
									</g>
								</g>
							</g>
						</g>
					</g>
				</g>
				<g>
					<g>
						<g>
							<g>
								<g>
									<g>
										<g>
											<path class="st3" d="M242.4469,204.5627h-0.0078l0.0078-0.3288v-0.3393c0.0186,0,2.1115-0.1155,4.047-5.4956
												l0.5838,0.2289C244.9793,204.4496,242.5995,204.5627,242.4469,204.5627z"/>
										</g>
									</g>
								</g>
							</g>
						</g>
					</g>
				</g>
				<g>
					<g>
						<g>
							<g>
								<g>
									<g>
										<g>
											<path class="st3" d="M237.0749,203.3583l-0.4023-0.5127c0.15-0.1632,3.6867-3.5814,1.9459-8.5302l0.5838-0.2367
												C241.0877,199.4826,237.1223,203.3136,237.0749,203.3583z"/>
										</g>
									</g>
								</g>
							</g>
						</g>
					</g>
				</g>
				<g>
					<g>
						<g>
							<g>
								<g>
									<g>
										<g>
											<path class="st3" d="M227.3799,201.7729l-0.4389-0.4761c0.0471-0.0552,4.065-4.3833,3.8574-9.4871l0.618-0.0447
												C231.6423,197.179,227.5536,201.5809,227.3799,201.7729z"/>
										</g>
									</g>
								</g>
							</g>
						</g>
					</g>
				</g>
				<g>
					<g>
						<g>
							<g>
								<g>
									<g>
										<g>
											<path class="st3" d="M216.6464,199.9583l-0.4629-0.4548c0.0474-0.0657,4.4913-5.4353,4.4861-9.7003h0.6204
												C221.3006,194.334,216.8438,199.7297,216.6464,199.9583z"/>
										</g>
									</g>
								</g>
							</g>
						</g>
					</g>
				</g>
				<g>
					<g>
						<g>
							<g>
								<g>
									<g>
										<g>
											<path class="st3" d="M206.7621,195.3543l-0.0999-0.6731c0.2577-0.0474,6.5239-1.3226,6.9445-8.1882l0.6207,0.0552
												C213.7882,193.9528,206.8332,195.3357,206.7621,195.3543z"/>
										</g>
									</g>
								</g>
							</g>
						</g>
					</g>
				</g>
				<g>
					<g>
						<g>
							<g>
								<g>
									<g>
										<g>
											<path class="st3" d="M200.1833,192.6563l-0.5838-0.2181c-0.0132,0.0366-0.0027,0.0708-0.0027,0.0708
												c0-0.0078-0.3024-1.0016-5.8717-1.391c-0.4182,0.0975-2.3455,0.2892-5.648-4.3938l0.4917-0.4104
												c3.2788,4.6649,5.0039,4.1286,5.0222,4.1286l0.0579-0.0291h0.0579c3.7206,0.2814,5.8637,0.8414,6.3817,1.6856
												C200.2514,192.3722,200.2067,192.5933,200.1833,192.6563z"/>
										</g>
									</g>
								</g>
							</g>
						</g>
					</g>
				</g>
				<g>
					<g>
						<g>
							<g>
								<g>
									<g>
										<g>
											<path class="st3" d="M181.9108,193.348c-1.6091,0-3.4473-0.3447-5.4797-1.2491l0.234-0.618
												c8.1567,3.5814,12.6846-1.9406,12.866-2.1667l0.4761,0.4338C189.9703,189.8032,187.0725,193.348,181.9108,193.348z"/>
										</g>
									</g>
								</g>
							</g>
						</g>
					</g>
				</g>
				<g>
					<g>
						<g>
							<g>
								<g>
									<g>
										<g>
											<path class="st3" d="M165.2083,199.0566c-0.5522,0-1.1201-0.0291-1.7012-0.0738l0.0498-0.6758
												c4.2888,0.3761,7.6833-0.6468,10.0709-2.9974c3.5079-3.4893,3.6471-8.7431,3.6471-8.8167l0.6207,0.021
												c-0.0051,0.2367-0.1287,5.5955-3.8415,9.2609C171.8609,197.9704,168.8896,199.0566,165.2083,199.0566z"/>
										</g>
									</g>
								</g>
							</g>
						</g>
					</g>
				</g>
				<g>
					<g>
						<g>
							<g>
								<g>
									<g>
										<g>
											<path class="st4" d="M178.6134,228.9434"/>
										</g>
									</g>
								</g>
							</g>
						</g>
					</g>
				</g>
				<g>
					<g>
						<g>
							<g>
								<g>
									<g>
										<g>
											<path class="st3" d="M183.2991,232.3721l-0.2943-0.6126c5.8691-3.2922,8.1645-6.1057,8.1882-6.1451
												c2.8057-2.3482,4.1547-4.5123,3.9627-6.2794c-0.1947-1.6961-1.7672-2.6425-2.1301-2.8345
												c-7.0075,1.0781-11.8956-0.2445-14.5042-3.9363c-4.896-6.9262-0.1026-19.5345,0.1104-20.0895l0.5654,0.2736
												c-0.0447,0.1182-4.8671,12.7767-0.192,19.3873c2.4901,3.5103,7.1995,4.7489,14.0258,3.6918l0.0972-0.0291l0.0684,0.0474
												c0.0948,0.0447,2.3167,1.1201,2.5771,3.4185c0.2313,2.0588-1.1651,4.3464-4.1652,6.8629
												C191.5665,226.1824,189.2734,229.0064,183.2991,232.3721z"/>
										</g>
									</g>
								</g>
							</g>
						</g>
					</g>
				</g>
			</g>
			<g>
				<g>
					<g>
						<g>
							<g>
								<g>
									<g>
										<g>
											<path class="st3" d="M178.4872,235.2855c-0.0237,0-0.0288,0-0.0525,0c-1.6514-0.0366-3.1792-1.2014-4.515-3.4813
												l0.5181-0.363c1.2308,2.0957,2.5717,3.1528,4.0023,3.1606c1.9958,0.0738,3.6285-1.8854,4.2753-2.7424
												c-1.0833-0.2709-3.5944-1.0307-4.2858-2.7427l0.5625-0.2943c0.7547,1.8326,4.2861,2.4715,4.323,2.4715l0.476,0.0816
												l-0.2631,0.4392C183.4281,231.9515,181.3192,235.2855,178.4872,235.2855z"/>
										</g>
									</g>
								</g>
							</g>
						</g>
					</g>
				</g>
				<g>
					<g>
						<g>
							<g>
								<g>
									<g>
										<g>
											<path class="st3" d="M180.767,225.1595c-0.1578,0-0.2682-0.0183-0.3498-0.0237
												c-0.3549-0.0762-0.3996-0.3207-0.3891-0.4233c0.0054-0.3183,0.284-0.455,1.1255-0.5733
												c0.5363-0.0816,1.2698-0.1182,2.1088-0.129c2.2954-0.8177,5.435-2.7688,6.9445-7.3993l0.5811,0.2076
												c-1.2806,3.9549-3.6786,6.0979-5.8664,7.2024c3.3472,0.0552,7.2286,0.4284,7.4545,0.4548l-0.0471,0.6653
												c-0.0789-0.0054-5.4299-0.4917-8.9825-0.4734C182.2237,225.0491,181.2823,225.1595,180.767,225.1595z"/>
										</g>
									</g>
								</g>
							</g>
						</g>
					</g>
				</g>
				<g>
					<g>
						<g>
							<g>
								<g>
									<g>
										<g>
											<path class="st3" d="M178.7712,220.6367c-0.0393,0-0.0684,0-0.0684,0l0.0342-0.6441
												c0.1314,0,3.3579,0.1287,4.1178-4.2204l0.5996,0.1182C182.6628,220.4552,179.292,220.6367,178.7712,220.6367z"/>
										</g>
									</g>
								</g>
							</g>
						</g>
					</g>
				</g>
			</g>
		</g>
		<g>
			<g>
				<g>
					<g>
						<g>
							<g>
								<g>
									<path class="st3" d="M161.4745,201.8437l-0.1605-0.639c0.5469-0.1629,13.3289-3.9363,15.7611,0.1473l-0.5231,0.3549
										C174.7482,198.6831,165.0611,200.7683,161.4745,201.8437z"/>
								</g>
							</g>
						</g>
					</g>
				</g>
			</g>
		</g>
		<g>
			<g>
				<g>
					<g>
						<g>
							<g>
								<g>
									<path class="st3" d="M167.5224,216.2822c-0.129,0-0.1842-0.0105-0.192-0.0105l0.0261-0.6732
										c0.0789,0,7.2706,0.2736,9.9448-5.6612l0.5549,0.3102C175.2504,215.9879,168.716,216.2822,167.5224,216.2822z"/>
								</g>
							</g>
						</g>
					</g>
				</g>
			</g>
		</g>
	</g>
	<g>
		<g>
			<g>
				<g>
					<g>
						<g>
							<g>
								<path class="st3" d="M238.8999,184.2236c-13.2134-14.7988-17.573-16.0767-17.6099-16.0767l0.1341-0.6653
									c0.192,0.0525,4.5779,1.3304,17.9227,16.2819L238.8999,184.2236z"/>
							</g>
						</g>
					</g>
				</g>
			</g>
		</g>
	</g>
	<g>
		<g>
			<g>
				<g>
					<g>
						<g>
							<g>
								<path class="st3" d="M262.1131,249.151c-0.0132-0.0369-0.6548-1.0757-0.3972-2.3509
									c0.171-0.9308,0.7571-1.7327,1.7381-2.3797l0.3207,0.5838c-0.8228,0.5285-1.3016,1.1939-1.4594,1.9222
									c-0.2022,1.0124,0.3105,1.8407,0.321,1.8512L262.1131,249.151z"/>
							</g>
						</g>
					</g>
				</g>
			</g>
		</g>
	</g>
	<g>
		<g>
			<g>
				<g>
					<g>
						<g>
							<g>
								<path class="st3" d="M225.9127,250.5657l-0.618-0.066c0.2526-2.7715-1.7537-3.4183-1.8431-3.4446l0.1707-0.6651
									C223.6515,246.4057,226.2178,247.2183,225.9127,250.5657z"/>
							</g>
						</g>
					</g>
				</g>
			</g>
		</g>
	</g>
	<g>
		<g>
			<g>
				<g>
					<g>
						<g>
							<g>
								<path class="st3" d="M217.7902,242.4037l-0.4917-0.4077c1.4225-2.0983,0.063-3.9837,0.0054-4.0494l0.4812-0.4287
									C217.7956,237.5392,219.51,239.8635,217.7902,242.4037z"/>
							</g>
						</g>
					</g>
				</g>
			</g>
		</g>
	</g>
	<g>
		<g>
			<g>
				<g>
					<g>
						<g>
							<g>
								<path class="st3" d="M220.8167,233.0558l-0.3495-0.531c0.5496-0.426,0.8597-0.9125,0.9149-1.4384
									c0.0684-0.9755-0.7361-1.8775-0.7467-1.888l0.4365-0.4734c0.042,0.0447,1.0097,1.1201,0.915,2.4166
									C221.9317,231.8699,221.5346,232.5353,220.8167,233.0558z"/>
							</g>
						</g>
					</g>
				</g>
			</g>
		</g>
	</g>
	<g>
		<g>
			<g>
				<g>
					<g>
						<g>
							<g>
								<path class="st3" d="M185.65,249.7795c-1.1648-2.9716,0.4101-4.7963,0.4628-4.8857l0.4653,0.4944
									c-0.063,0.0606-1.3436,1.5671-0.3627,4.1073L185.65,249.7795z"/>
							</g>
						</g>
					</g>
				</g>
			</g>
		</g>
	</g>
	<g>
		<g>
			<g>
				<g>
					<g>
						<g>
							<g>
								<path class="st3" d="M146.2917,248.7197l-0.6102-0.171c0.2736-1.0727-0.3732-1.7039-1.0121-2.3138
									c-0.5181-0.5024-1.1123-1.0703-0.7232-1.8434l0.5523,0.3129c-0.1341,0.2709,0.0183,0.4707,0.5994,1.028
									C145.75,246.3715,146.6388,247.2183,146.2917,248.7197z"/>
							</g>
						</g>
					</g>
				</g>
			</g>
		</g>
	</g>
	<g>
		<g>
			<g>
				<g>
					<g>
						<g>
							<g>
								<path class="st3" d="M141.4009,240.9812l-0.0579-0.6627c0.6021-0.0657,1.37-0.255,1.541-0.794
									c0.2262-0.6995-0.6363-1.8854-0.9677-2.2324l0.447-0.4734c0.1551,0.1734,1.5041,1.7222,1.094,2.953
									C143.2389,240.4631,142.5393,240.8549,141.4009,240.9812z"/>
							</g>
						</g>
					</g>
				</g>
			</g>
		</g>
	</g>
	<g>
		<g>
			<g>
				<g>
					<g>
						<g>
							<g>
								<path class="st3" d="M143.4126,244.2548l-0.3735-0.5259c0.1842-0.1578,4.2966-3.4026,8.0199-1.541l0.0789,0.0606
									c0.0183,0.0183,1.9354,1.8221,8.1909-2.1325l0.3183,0.5865c-6.2635,3.9546-8.5329,2.3875-8.8982,2.0851
									C147.3726,241.1495,143.4519,244.2389,143.4126,244.2548z"/>
							</g>
						</g>
					</g>
				</g>
			</g>
		</g>
	</g>
	<g>
		<g>
			<g>
				<g>
					<g>
						<g>
							<g>
								<path class="st3" d="M146.8176,231.294l-0.2628-0.6075c0.7308-0.3837,1.178-0.8676,1.2989-1.454
									c0.1815-0.836-0.3761-1.6304-0.3761-1.6304l0.4919-0.3996c0.0288,0.0342,0.7388,1.0385,0.4836,2.2061
									C148.277,230.1844,147.7379,230.8233,146.8176,231.294z"/>
							</g>
						</g>
					</g>
				</g>
			</g>
		</g>
	</g>
	<g>
		<g>
			<g>
				<g>
					<g>
						<g>
							<g>
								<g>
									<path class="st3" d="M158.9502,205.7827c-0.2553-0.0183-0.342-0.1839-0.3603-0.2733
										c-0.108-0.3026,0.0999-0.5576,0.7178-1.3124c1.2569-1.5329,3.8838-4.7145,6.1082-10.849l0.5786,0.2469
										c-2.2666,6.2347-5.0408,9.6242-6.2293,11.0466c-0.2736,0.3471-0.5469,0.6758-0.5889,0.7862
										c0.0051-0.0291,0.021-0.1104-0.0212-0.1815c-0.0552-0.0921-0.1182-0.1209-0.147-0.1368L158.9502,205.7827z"/>
								</g>
							</g>
						</g>
					</g>
				</g>
			</g>
		</g>
		<g>
			<g>
				<g>
					<g>
						<g>
							<g>
								<g>
									<path class="st3" d="M151.9451,205.7458l-0.3522-0.5442c0.0552-0.0657,4.5096-3.6312-0.1002-14.5858l0.5522-0.2841
										C156.9017,201.8437,152.153,205.5829,151.9451,205.7458z"/>
								</g>
							</g>
						</g>
					</g>
				</g>
			</g>
		</g>
		<g>
			<g>
				<g>
					<g>
						<g>
							<g>
								<g>
									<path class="st3" d="M139.4025,211.0707l-0.4653-0.455c0.0078-0.021,2.2954-3.1474,1.304-16.2186l0.618-0.0525
										C141.8821,207.8048,139.5023,210.9417,139.4025,211.0707z"/>
								</g>
							</g>
						</g>
					</g>
				</g>
			</g>
		</g>
	</g>
	<g>
		<g>
			<g>
				<g>
					<g>
						<g>
							<g>
								<path class="st3" d="M133.5151,214.0498c-0.0606-0.0261-1.2884-0.5127-1.9354-2.2691
									c-0.8808-2.3719-0.2997-5.7902,1.7672-10.1815l0.1683-0.384l0.1815,0.1815c0.1524-0.3891,0.4548-1.9958-0.3945-8.8877
									l0.6284-0.0894c1.0991,9.0035,0.3129,9.4688,0.0183,9.6425c-0.0525,0.0447-0.1077,0.063-0.1605,0.0735
									c-2.3347,5.0672-2.1824,7.8939-1.6511,9.3821c0.5364,1.4726,1.5407,1.8749,1.5776,1.8932L133.5151,214.0498z"/>
							</g>
						</g>
					</g>
				</g>
			</g>
		</g>
	</g>
	<g>
		<g>
			<g>
				<g>
					<g>
						<g>
							<g>
								<path class="st3" d="M93.1972,121.1314c-2.7979,0-4.4625-0.4731-4.4939-0.4917l0.1551-0.639
									c0.0921,0.0186,8.1858,2.3638,18.8431-3.5602l0.1446-0.066h3.2842v0.7022h-3.2107
									C101.9086,120.3926,96.6758,121.1314,93.1972,121.1314z"/>
							</g>
						</g>
					</g>
				</g>
			</g>
		</g>
	</g>
	<g>
		<g>
			<g>
				<g>
					<g>
						<g>
							<g>
								<g>
									<path class="st3" d="M111.422,100.469c-0.965,0-1.6538-0.084-1.7144-0.1209l-0.15-0.042
										c-2.9923-2.2984-10.4206-1.7435-10.4968-1.733l-0.0369-0.6942c0.3156-0.0078,7.6098-0.5733,10.8283,1.8223
										c0.6048,0.0762,5.0408,0.5232,6.6604-1.7488l0.4944,0.4209C115.7396,100.1219,113.1469,100.469,111.422,100.469z"/>
								</g>
							</g>
						</g>
					</g>
				</g>
			</g>
		</g>
		<g>
			<g>
				<g>
					<g>
						<g>
							<g>
								<g>
									<path class="st3" d="M105.3217,103.1669c-0.2394,0-0.4839-0.0369-0.731-0.0999c-2.6767-0.647-3.8337-4.6412-3.8811-4.8041
										l0.5915-0.1842c0.0132,0.021,1.1045,3.7656,3.4185,4.3413c1.4093,0.3447,3.0265-0.5652,4.7802-2.6083l0.4602,0.4365
										C108.3194,102.1914,106.7706,103.1669,105.3217,103.1669z"/>
								</g>
							</g>
						</g>
					</g>
				</g>
			</g>
		</g>
		<g>
			<g>
				<g>
					<g>
						<g>
							<g>
								<g>
									<path class="st3" d="M102.8709,98.1708c0,0,0.986,5.8901,4.7201,0.8019L102.8709,98.1708z"/>
								</g>
							</g>
						</g>
					</g>
				</g>
			</g>
		</g>
		<g>
			<g>
				<g>
					<g>
						<g>
							<g>
								<g>
									<path class="st3" d="M92.4872,106.0197l-0.447-0.4548c3.0028-3.3447-0.9284-8.2698-0.9755-8.3145l0.4731-0.4548
										C91.5719,96.8692,95.8817,102.2466,92.4872,106.0197z"/>
								</g>
							</g>
						</g>
					</g>
				</g>
			</g>
		</g>
		<g>
			<g>
				<g>
					<g>
						<g>
							<g>
								<g>
									<path class="st3" d="M87.1203,107.2215l-0.2313-0.6285l0.1209,0.3105l-0.1209-0.3105
										c0.0921-0.0342,2.0351-0.8913,2.2351-5.1959l0.6099,0.0369C89.5159,106.1934,87.2097,107.1848,87.1203,107.2215z"/>
								</g>
							</g>
						</g>
					</g>
				</g>
			</g>
		</g>
	</g>
	<g>
		<g>
			<g>
				<g>
					<g>
						<g>
							<g>
								<polygon class="st3" points="94.4067,121.4077 93.4444,118.3785 92.4451,120.8974 91.346,118.9911 90.7779,120.2927 
									90.2178,120.0194 91.2513,117.5869 92.3426,119.4461 93.5257,116.501 94.2726,118.9176 94.7643,116.5483 96.2342,119.2436 
									96.7811,116.7823 98.7348,118.8597 98.7348,115.2257 100.7017,118.1154 100.7017,115.4018 102.4317,117.3661 
									102.4317,114.4341 105.3691,117.3502 104.9614,117.8209 103.0524,115.9646 103.0524,119.0358 101.3197,117.0847 
									101.3197,120.1664 99.3449,117.2662 99.3449,120.4742 97.1359,118.0944 96.4787,121.0132 95.022,118.3548 								"/>
							</g>
						</g>
					</g>
				</g>
			</g>
		</g>
	</g>
	<g>
		<g>
			<g>
				<g>
					<g>
						<g>
							<g>
								<path class="st4" d="M90.4914,110.787"/>
							</g>
						</g>
					</g>
				</g>
			</g>
		</g>
	</g>
	<g>
		<g>
			<g>
				<g>
					<g>
						<g>
							<g>
								<path class="st3" d="M90.6387,111.0975l-0.2868-0.6023c0.0684-0.0471,6.9208-3.81,8.517-4.9958l0.3366,0.5733
									C97.5832,107.253,90.9225,110.9424,90.6387,111.0975z"/>
							</g>
						</g>
					</g>
				</g>
			</g>
		</g>
	</g>
	<g>
		<g>
			<g>
				<g>
					<g>
						<g>
							<g>
								<g>
									<path class="st3" d="M120.0677,95.465l-0.5574-0.3102c0.021-0.0186,1.2623-2.6242,1.1333-4.0179l0.6101-0.0657
										C121.4011,92.641,120.1151,95.3468,120.0677,95.465z"/>
								</g>
							</g>
						</g>
					</g>
				</g>
			</g>
		</g>
		<g>
			<g>
				<g>
					<g>
						<g>
							<g>
								<g>
									<path class="st3" d="M127.2147,100.3061c-2.3006,0-3.4839-0.4287-3.7233-1.3805
										c-0.5415-2.0563,4.6569-5.3669,5.7113-6.0112c4.4202-1.4513,5.9111-4.8986,5.9242-4.9407l0.5706,0.2919
										c-0.0762,0.1524-1.6355,3.7365-6.2581,5.2667c-2.3692,1.4594-5.6507,4.0731-5.351,5.2223
										c0.0762,0.3207,0.6285,1.0019,4.0125,0.8546l0.0264,0.6783C127.7933,100.3061,127.4882,100.3061,127.2147,100.3061z"/>
								</g>
							</g>
						</g>
					</g>
				</g>
			</g>
		</g>
		<g>
			<g>
				<g>
					<g>
						<g>
							<g>
								<g>
									<path class="st3" d="M129.8443,91.2999l-0.5337-0.3654c0.1104-0.1998,0.8046-1.1387,4.2492-0.5733l-0.0972,0.6653
										C130.428,90.5244,129.8497,91.2893,129.8443,91.2999z"/>
								</g>
							</g>
						</g>
					</g>
				</g>
			</g>
		</g>
		<g>
			<g>
				<g>
					<g>
						<g>
							<g>
								<g>
									<path class="st3" d="M125.7661,103.514c-0.5102,0-1.0073-0.0291-1.4489-0.0633c-1.6145-0.1287-2.7163-0.468-2.7583-0.4839
										l0.1551-0.639c0.0156,0,1.1042,0.3105,2.6374,0.4577c2.0878,0.1812,5.0696,0.0525,7.4413-1.6145l0.3393,0.5469
										C130.1415,103.1196,127.7513,103.514,125.7661,103.514z"/>
								</g>
							</g>
						</g>
					</g>
				</g>
			</g>
		</g>
		<g>
			<g>
				<g>
					<g>
						<g>
							<g>
								<g>
									<path class="st3" d="M113.8438,124.103l-0.2103-0.5286c-1.1726-2.9503-4.4571-10.9177-5.4404-12.0141l0.4392-0.455
										c1.1279,1.2227,4.5069,9.5345,5.3747,11.7144l3.1081-4.1127l1.5959,2.6245l2.1325-4.3284l3.9654,2.5822l-1.4753-4.9985
										h2.8216c-1.3331-1.6673-3.421-3.1054-3.4524-3.1266l-0.4182-0.2919l4.0467-2.6347
										c-1.3253-1.5302-4.0572-1.8143-4.0887-1.8143l-0.5864-0.042l2.3428-3.0451l0.4734,0.4287l-1.5935,2.0773
										c1.007,0.192,3.1396,0.7494,4.1625,2.2981l0.2103,0.2997l-3.789,2.4613c0.7994,0.6099,2.5585,2.0168,3.5787,3.5472
										l0.3708,0.5259h-3.2212l1.7222,5.777l-4.8356-3.1135l-2.2981,4.6937l-1.709-2.7898L113.8438,124.103z"/>
								</g>
							</g>
						</g>
					</g>
				</g>
			</g>
		</g>
	</g>
	<g>
		<g>
			<g>
				<g>
					<g>
						<g>
							<g>
								<path class="st2" d="M69.2767,124.0319l-4.8227-9.4451l7.9728-4.3362c0,0-14.1757-1.2041-20.9177-8.8245
									C51.509,101.4262,57.286,119.2356,69.2767,124.0319z"/>
							</g>
						</g>
					</g>
				</g>
			</g>
		</g>
		<g>
			<g>
				<g>
					<g>
						<g>
							<g>
								<path class="st3" d="M69.9522,124.6577l-0.7887-0.3075c-11.9826-4.7963-17.8886-22.6507-17.9489-22.8241l0.5127-0.3549
									c6.5869,7.465,20.5995,8.7219,20.7336,8.7324l1.1147,0.0999l-8.6931,4.7411L69.9522,124.6577z M52.3085,102.7092
									c1.6172,4.1679,7.0183,16.4187,16.2741,20.6547l-4.5596-8.9138l7.3284-4.002
									C68.1143,110.0376,58.188,108.2918,52.3085,102.7092z"/>
							</g>
						</g>
					</g>
				</g>
			</g>
		</g>
	</g>
	<g>
		<g>
			<g>
				<g>
					<g>
						<g>
							<path class="st3" d="M102.687,230.5552c-1.8065,0-2.9898-2.3401-3.0424-2.4586l0.5496-0.3102
								c0.0051,0.0369,1.1306,2.2666,2.6611,2.1247c1.1885-0.1578,3.0028-1.8145,4.8723-8.9534l8.7089-19.8132l0.5523,0.2787
								l-8.6852,19.7631c-1.5539,5.969-3.3684,9.1403-5.3798,9.3611C102.8421,230.5552,102.7632,230.5552,102.687,230.5552z"/>
						</g>
					</g>
				</g>
			</g>
		</g>
	</g>
	<g>
		<g>
			<g>
				<g>
					<g>
						<g>
							<path class="st3" d="M111.7112,206.4927c-2.6242,0-4.1493-0.8546-4.2387-0.9386l0.2997-0.576
								c0.0291,0.021,2.635,1.5146,6.8998,0.4866l0.1395,0.6519C113.6518,206.3848,112.6184,206.4927,111.7112,206.4927z"/>
						</g>
					</g>
				</g>
			</g>
		</g>
	</g>
	<g>
		<g>
			<g>
				<g>
					<g>
						<g>
							<g>
								<path class="st3" d="M115.595,198.8013c-2.1352,0-3.7626-0.7941-4.883-2.3242c-3.4234-4.6779-0.7967-14.7856-0.6783-15.2169
									l0.5889,0.1947c-0.0261,0.0999-2.6479,10.1891,0.5891,14.6092c1.0676,1.4675,2.7082,2.1616,4.8699,2.0275l0.0315,0.6915
									C115.9394,198.7908,115.7633,198.8013,115.595,198.8013z"/>
							</g>
						</g>
					</g>
				</g>
			</g>
		</g>
		<g>
			<g>
				<g>
					<g>
						<g>
							<g>
								<path class="st3" d="M107.4857,205.4908c-3.208-5.8796,2.6059-10.51,2.6662-10.5469l0.3552,0.5391
									c-0.2184,0.192-5.4062,4.3098-2.4877,9.6713L107.4857,205.4908z"/>
							</g>
						</g>
					</g>
				</g>
			</g>
		</g>
		<g>
			<g>
				<g>
					<g>
						<g>
							<g>
								<path class="st3" d="M128.0537,197.4157l-0.1815-0.2577c-1.0388-1.391-1.6724-2.6428-1.8539-3.6918
									c-0.171-0.9176-0.0051-1.7117,0.468-2.3401c1.2254-1.6148,4.0968-1.5488,4.2204-1.5488l-0.0078,0.6731
									c-0.0183,0-2.7004-0.0342-3.7365,1.2962c-0.3576,0.4734-0.4761,1.0835-0.3393,1.8013
									c0.1551,0.8571,0.6731,1.9325,1.5383,3.1291l4.2045-3.3291l0.363,0.5471L128.0537,197.4157z"/>
							</g>
						</g>
					</g>
				</g>
			</g>
		</g>
	</g>
	<g>
		<g>
			<g>
				<g>
					<g>
						<g>
							<path class="st3" d="M124.6115,199.6929l-0.1893-0.0735c-0.2523-0.1002-0.4968-0.2262-0.7073-0.3551
								c-1.1333-0.6626-1.7537-1.7774-1.7933-3.2107c-0.0552-1.7381,0.7547-3.3631,0.7811-3.4156l0.1761-0.3471l0.276,0.2181
								c1.8644,1.4225,2.803,1.0859,2.8111,1.0859l0.2286,0.6101c-0.1209,0.0657-1.1438,0.4365-3.0895-0.9203
								c-0.2184,0.5313-0.6048,1.6304-0.576,2.7451c0.042,1.2044,0.5391,2.0959,1.4858,2.6533
								c0.1341,0.0789,0.2838,0.1446,0.4284,0.2184l2.6533-3.0898l0.447,0.4548L124.6115,199.6929z"/>
						</g>
					</g>
				</g>
			</g>
		</g>
	</g>
	<g>
		<g>
			<g>
				<g>
					<g>
						<g>
							<g>
								<path class="st3" d="M119.8706,200.2478c-0.6126,0-0.9467-0.2079-0.9782-0.2262l-0.105-0.0816l-0.0318-0.1551
									c-0.1917-1.3412,0.0369-2.4244,0.6731-3.229c1.115-1.4123,3.0714-1.4201,3.1528-1.4201v0.6653
									c-0.0156,0-1.7537,0.0105-2.6872,1.1963c-0.4761,0.6258-0.6627,1.4567-0.5364,2.506
									c0.3234,0.1263,1.3541,0.3261,3.0265-1.1597l0.3918,0.5022C121.5166,200.003,120.5279,200.2478,119.8706,200.2478z"/>
							</g>
						</g>
					</g>
				</g>
			</g>
		</g>
		<g>
			<g>
				<g>
					<g>
						<g>
							<g>
								<path class="st3" d="M119.597,205.2463c-2.2901,0-3.2737-5.0327-3.3184-5.2328c-0.702-3.016-0.6546-4.6593,0.1737-5.18
									c1.1306-0.6995,3.079,1.2623,3.4578,1.6778l-0.434,0.4863c-0.8123-0.8783-2.1692-1.9352-2.7058-1.5803
									c-0.2472,0.1473-0.723,0.8835,0.108,4.4124c0.2577,1.3199,1.1936,4.5963,2.6293,4.7225
									c0.2868-0.5916,1.2545-2.7637,0.9809-4.7594l0.6126-0.0999c0.3551,2.59-1.091,5.2799-1.1411,5.372l-0.0894,0.1605
									l-0.1578,0.021C119.6682,205.2463,119.6417,205.2463,119.597,205.2463z"/>
							</g>
						</g>
					</g>
				</g>
			</g>
		</g>
	</g>
	<g>
		<g>
			<g>
				<g>
					<g>
						<g>
							<path class="st3" d="M111.0828,177.7996l-0.0552-1.2305c-0.0657-1.775-1.4384-42.8395,9.6266-55.4086l0.5339,0.3522
								c-0.0711,0.1842-5.2118,18.9613,6.5395,38.659l0.1524,0.2733l-0.2262,0.1815c-0.1368,0.1077-13.6049,11.1124-16.0425,16.0872
								L111.0828,177.7996z M120.2783,122.6724c-9.0509,12.222-8.7956,46.1582-8.6484,52.7292
								c3.2395-5.0195,13.6655-13.6892,15.406-15.1222C117.1411,143.4638,119.3289,127.3686,120.2783,122.6724z"/>
						</g>
					</g>
				</g>
			</g>
		</g>
	</g>
	<g>
		<g>
			<g>
				<g>
					<g>
						<g>
							<path class="st3" d="M111.3773,170.4423l-0.2235-0.6258c0.1182-0.0657,12.1404-5.1881,13.0106-15.2301l0.626,0.0606
								C123.878,165.1123,111.5114,170.382,111.3773,170.4423z"/>
						</g>
					</g>
				</g>
			</g>
		</g>
	</g>
	<g>
		<g>
			<g>
				<g>
					<g>
						<g>
							<path class="st3" d="M112.5212,163.1061c-0.9572,0-1.4384-0.4734-1.4621-0.4839l0.4236-0.5022l-0.2106,0.2577l0.2025-0.2577
								c0.0186,0.0105,0.4919,0.4497,1.5016,0.2841c1.5041-0.2736,4.7988-2.08,9.9131-11.1466l0.5337,0.3339
								c-5.0274,8.9246-8.4249,11.1781-10.4074,11.4672C112.8367,163.0878,112.6763,163.1061,112.5212,163.1061z"/>
						</g>
					</g>
				</g>
			</g>
		</g>
	</g>
	<g>
		<g>
			<g>
				<g>
					<g>
						<g>
							<path class="st3" d="M111.7559,157.4368c-0.0447,0-0.0684,0-0.0813,0l0.0471-0.6731c0.0342,0,4.1679,0.1368,9.6056-10.3469
								l0.5391,0.3366C116.5469,157.0162,112.3844,157.4368,111.7559,157.4368z"/>
						</g>
					</g>
				</g>
			</g>
		</g>
	</g>
	<g>
		<g>
			<g>
				<g>
					<g>
						<g>
							<path class="st3" d="M112.274,151.7309l-0.255-0.6206c0.0525-0.0183,4.9643-2.4349,8.1513-9.8894l0.5549,0.2919
								C117.433,149.2066,112.4818,151.6388,112.274,151.7309z"/>
						</g>
					</g>
				</g>
			</g>
		</g>
	</g>
	<g>
		<g>
			<g>
				<g>
					<g>
						<g>
							<path class="st3" d="M113.1787,144.4658l-0.342-0.5471c0.0447-0.0447,4.5201-3.3,6.8236-6.8155l0.51,0.3996
								C117.7906,141.1129,113.3785,144.3473,113.1787,144.4658z"/>
						</g>
					</g>
				</g>
			</g>
		</g>
	</g>
	<g>
		<g>
			<g>
				<g>
					<g>
						<g>
							<path class="st3" d="M114.5169,137.6578c-0.1815,0-0.2892-0.0105-0.3102-0.0105l0.0816-0.681
								c0.1104,0.0237,2.7634,0.3444,5.372-3.4656l0.51,0.3918C117.8038,137.3107,115.3742,137.6578,114.5169,137.6578z"/>
						</g>
					</g>
				</g>
			</g>
		</g>
	</g>
	<g>
		<g>
			<g>
				<g>
					<g>
						<g>
							<path class="st3" d="M117.5566,139.8746c-0.0579-3.5208-2.6032-5.9006-2.6242-5.9191l0.3972-0.5285
								c0.1131,0.1107,2.7793,2.5903,2.8531,6.4267L117.5566,139.8746z"/>
						</g>
					</g>
				</g>
			</g>
		</g>
	</g>
	<g>
		<g>
			<g>
				<g>
					<g>
						<g>
							<polygon class="st3" points="118.164,145.378 116.0315,141.6154 116.5601,141.2551 118.6926,145.0231 							"/>
						</g>
					</g>
				</g>
			</g>
		</g>
	</g>
	<g>
		<g>
			<g>
				<g>
					<g>
						<g>
							<polygon class="st3" points="114.9063,149.1961 112.7842,146.8269 113.2312,146.3694 115.3532,148.7411 							"/>
						</g>
					</g>
				</g>
			</g>
		</g>
	</g>
	<g>
		<g>
			<g>
				<g>
					<g>
						<g>
							<polygon class="st3" points="114.8379,154.6944 113.7754,150.219 114.3723,150.0376 115.4189,154.5288 							"/>
						</g>
					</g>
				</g>
			</g>
		</g>
	</g>
	<g>
		<g>
			<g>
				<g>
					<g>
						<g>
							<path class="st3" d="M119.2317,150.7659c-2.0089-1.0781-2.3191-3.6918-2.3245-3.8127l0.6074-0.0711
								c0,0.0264,0.276,2.3692,1.9906,3.2632L119.2317,150.7659z"/>
						</g>
					</g>
				</g>
			</g>
		</g>
	</g>
	<g>
		<g>
			<g>
				<g>
					<g>
						<g>
							<polygon class="st3" points="112.7315,162.5328 111.4274,159.914 111.9665,159.5957 113.2837,162.2041 							"/>
						</g>
					</g>
				</g>
			</g>
		</g>
	</g>
	<g>
		<g>
			<g>
				<g>
					<g>
						<g>
							<polygon class="st3" points="116.7862,160.232 114.8457,155.6147 115.4136,155.3043 117.3568,159.9611 							"/>
						</g>
					</g>
				</g>
			</g>
		</g>
	</g>
	<g>
		<g>
			<g>
				<g>
					<g>
						<g>
							<polygon class="st3" points="120.4937,155.6963 117.6646,152.8142 118.0825,152.3147 120.9172,155.202 							"/>
						</g>
					</g>
				</g>
			</g>
		</g>
	</g>
	<g>
		<g>
			<g>
				<g>
					<g>
						<g>
							<polygon class="st3" points="122.8866,163.143 121.969,161.2207 120.173,157.2448 120.7252,156.9451 123.431,162.8325 
															"/>
						</g>
					</g>
				</g>
			</g>
		</g>
	</g>
	<g>
		<g>
			<g>
				<g>
					<g>
						<g>
							<polygon class="st3" points="119.0529,166.7505 118.9845,164.7101 117.5671,159.3432 118.164,159.141 119.5814,164.6024 
								119.6682,166.7058 							"/>
						</g>
					</g>
				</g>
			</g>
		</g>
	</g>
	<g>
		<g>
			<g>
				<g>
					<g>
						<g>
							<polygon class="st3" points="114.822,166.7979 113.9437,162.4407 114.5538,162.3042 115.4372,166.6506 							"/>
						</g>
					</g>
				</g>
			</g>
		</g>
	</g>
	<g>
		<g>
			<g>
				<g>
					<g>
						<g>
							<polygon class="st3" points="113.8201,172.9772 112.103,170.3161 112.6079,169.9243 114.3198,172.5959 							"/>
						</g>
					</g>
				</g>
			</g>
		</g>
	</g>
	<g>
		<g>
			<g>
				<g>
					<g>
						<g>
							<polygon class="st3" points="116.4155,170.2794 114.8931,168.2099 115.3742,167.7893 116.8888,169.8403 							"/>
						</g>
					</g>
				</g>
			</g>
		</g>
	</g>
	<g>
		<g>
			<g>
				<g>
					<g>
						<g>
							<path class="st3" d="M117.3436,128.423c-7.3837-0.4101-7.5754-4.4568-7.5754-4.6383l0.6336-0.0183
								c0.0054,0.0552,0.1998,3.6022,6.9709,3.9915L117.3436,128.423z"/>
						</g>
					</g>
				</g>
			</g>
		</g>
	</g>
	<g>
		<g>
			<g>
				<g>
					<g>
						<g>
							<path class="st3" d="M113.6623,136.727c-6.0425,0-8.2461-3.1894-8.3406-3.3157l0.6021-0.384
								c0.0078,0.0342,2.2429,3.2265,8.3565,2.9977l0.0237,0.6837C114.091,136.7191,113.8702,136.727,113.6623,136.727z"/>
						</g>
					</g>
				</g>
			</g>
		</g>
	</g>
	<g>
		<g>
			<g>
				<g>
					<g>
						<g>
							<path class="st3" d="M110.5071,146.5797c-5.7323,0-8.1489-4.7567-8.1753-4.8014l0.5628-0.3207
								c0.1053,0.2208,2.7637,5.414,9.4136,4.2939l0.0948,0.6653C111.7322,146.5323,111.0987,146.5797,110.5071,146.5797z"/>
						</g>
					</g>
				</g>
			</g>
		</g>
	</g>
	<g>
		<g>
			<g>
				<g>
					<g>
						<g>
							<path class="st3" d="M111.7034,155.8328c-12.9056,0-13.4735-4.2939-13.4918-4.4832l0.6204-0.0552
								c0,0.0237,0.6548,3.8547,12.8714,3.8547V155.8328z"/>
						</g>
					</g>
				</g>
			</g>
		</g>
	</g>
	<g>
		<g>
			<g>
				<g>
					<g>
						<g>
							<path class="st3" d="M111.5297,167.9366c-13.9624-0.4655-16.8707-4.3467-16.9811-4.5123l0.5364-0.3813l-0.2604,0.2076
								l0.2604-0.2076c0.0291,0.0342,2.9161,3.7836,16.4607,4.2177L111.5297,167.9366z"/>
						</g>
					</g>
				</g>
			</g>
		</g>
	</g>
	<g>
		<g>
			<g>
				<g>
					<g>
						<g>
							<path class="st3" d="M100.933,180.6686c-4.1151,0-6.1846-1.6751-6.3214-1.7933l0.3789-0.5366
								c0.0525,0.0552,5.4089,4.3835,16.2213-1.2305l0.2628,0.6021C107.0886,179.9873,103.5992,180.6686,100.933,180.6686z"/>
						</g>
					</g>
				</g>
			</g>
		</g>
	</g>
	<g>
		<g>
			<g>
				<g>
					<g>
						<g>
							<path class="st3" d="M96.0158,193.7056c-15.4324,0-22.5214-12.3534-22.5766-12.4797
								c-2.6848-3.2448-3.8445-6.0058-3.3921-8.1489c0.3813-1.838,1.8223-2.4874,1.8827-2.5138l0.2316,0.6443
								c-0.0555,0.0315-1.2149,0.539-1.5146,2.0509c-0.2736,1.286,0.0735,3.6681,3.2841,7.5414
								c0.1077,0.171,7.018,12.2298,22.085,12.2298V193.7056z"/>
						</g>
					</g>
				</g>
			</g>
		</g>
	</g>
	<g>
		<g>
			<g>
				<g>
					<g>
						<g>
							<path class="st4" d="M92.971,182.1199"/>
						</g>
					</g>
				</g>
			</g>
		</g>
	</g>
	<g>
		<g>
			<g>
				<g>
					<g>
						<g>
							<path class="st3" d="M88.84,192.7484l-0.5181-0.3762c0.0183-0.0339,1.8959-3.5602-0.0237-7.9383l0.5523-0.2997
								C90.933,188.8829,88.924,192.5747,88.84,192.7484z"/>
						</g>
					</g>
				</g>
			</g>
		</g>
	</g>
	<g>
		<g>
			<g>
				<g>
					<g>
						<g>
							<polygon class="st3" points="80.9014,188.5544 80.3204,188.273 82.8633,181.9831 83.4152,182.2645 							"/>
						</g>
					</g>
				</g>
			</g>
		</g>
	</g>
	<g>
		<g>
			<g>
				<g>
					<g>
						<g>
							<polygon class="st3" points="73.936,181.2601 73.4548,180.8237 76.1528,177.124 76.6234,177.5524 							"/>
						</g>
					</g>
				</g>
			</g>
		</g>
	</g>
	<g>
		<g>
			<g>
				<g>
					<g>
						<g>
							<path class="st3" d="M72.9184,142.6698c-2.8636,0-3.1264-1.7381-3.1369-1.8224l0.6126-0.1077
								c0.0078,0.0708,0.2577,1.4303,3.0556,1.241l0.0366,0.6731C73.2919,142.6617,73.0999,142.6698,72.9184,142.6698z"/>
						</g>
					</g>
				</g>
			</g>
		</g>
	</g>
	<g>
		<g>
			<g>
				<g>
					<g>
						<g>
							<path class="st3" d="M64.0544,134.8338c-1.475,0-2.3743-1.0781-2.3953-1.1042l0.4653-0.4472
								c0.0711,0.0738,1.6565,1.951,4.131-0.0366l0.3654,0.5391C65.6452,134.5392,64.7881,134.8338,64.0544,134.8338z"/>
						</g>
					</g>
				</g>
			</g>
		</g>
	</g>
	<g>
		<g>
			<g>
				<g>
					<g>
						<g>
							<path class="st3" d="M52.0115,139.9088c-0.6944,0-1.1966-0.2262-1.2071-0.2367l0.255-0.6048
								c0.0843,0.0393,2.1169,0.9569,3.7023-1.7015l0.5181,0.3657C54.2226,139.5353,52.9318,139.9088,52.0115,139.9088z"/>
						</g>
					</g>
				</g>
			</g>
		</g>
	</g>
	<g>
		<g>
			<g>
				<g>
					<g>
						<g>
							<path class="st3" d="M53.4496,181.5178l-0.4602-0.4548c0.1764-0.2184,0.171-0.3656,0.1446-0.4655
								c-0.1602-0.6021-1.5722-1.2938-2.5373-1.5962l0.1734-0.6546c0.2736,0.0813,2.6611,0.8729,2.9608,2.0693
								C53.8047,180.6974,53.8047,181.0996,53.4496,181.5178z"/>
						</g>
					</g>
				</g>
			</g>
		</g>
	</g>
	<g>
		<g>
			<g>
				<g>
					<g>
						<g>
							<path class="st3" d="M67.3781,154.0843c-4.6148-2.7898-0.2736-12.3534-0.0921-12.753l0.5628,0.3078
								c-0.0447,0.0735-4.2729,9.3608-0.1737,11.8431L67.3781,154.0843z"/>
						</g>
					</g>
				</g>
			</g>
		</g>
	</g>
	<g>
		<g>
			<g>
				<g>
					<g>
						<g>
							<path class="st4" d="M92.2136,182.3646"/>
						</g>
					</g>
				</g>
			</g>
		</g>
	</g>
	<g>
		<g>
			<g>
				<g>
					<g>
						<g>
							<path class="st3" d="M102.813,205.5094c-7.4913-5.6798-7.6071-10.5997-7.5255-11.7249
								c-1.9484-1.4357-3.9756-9.7136-4.194-10.681l0.5838-0.171c0.9257,3.8259,2.761,9.7448,4.0758,10.3813l0.2076,0.0735
								l-0.0447,0.2631c0,0.0552-0.744,5.2589,7.2522,11.3383L102.813,205.5094z"/>
						</g>
					</g>
				</g>
			</g>
		</g>
	</g>
	<g>
		<g>
			<g>
				<g>
					<g>
						<g>
							<g>
								<path class="st2" d="M153.5782,153.5821c0,0,3.0973-0.9044,2.9002-12.1245c0,0-2.4823-10.1077,2.4769-16.1847
									c0,0,7.8492-8.2986,22.9267-19.9815c0,0,27.2677-19.545,34.7038-23.1631c0,0-10.0523,25.6955,5.651,20.7572l37.5938-15.288
									c0,0-31.2541,22.7794-10.1839,30.2812c0,0-32.6373,12.4245-17.0735,35.7033c0,0-14.3279-3.2212-20.5335,8.7773
									c0,0-4.2678,7.0444-0.5471,12.2664c0,0-20.1048-0.2997-23.9598,12.5796c0,0-14.0414-2.845-20.5311,5.9873h-1.0937
									c0,0-15.6954-9.4292-19.6872,4.2231c0,0-7.8621-8.9981-15.4324-1.5119l-0.5469-10.8046c0,0-7.3021,4.215-9.2321,7.6674
									V182.73c0,0-12.677,1.4882-14.0468,0.447c0,0,14.3227-22.924,27.678-24.4281
									C134.6406,158.7489,154.1986,156.059,153.5782,153.5821z"/>
							</g>
						</g>
					</g>
				</g>
			</g>
		</g>
		<g>
			<g>
				<g>
					<g>
						<g>
							<g>
								<path class="st3" d="M146.3943,198.273l-0.4866-0.5654c-0.0342-0.0474-3.8442-4.3491-8.5695-4.3491
									c-2.2429,0-4.3545,0.986-6.2765,2.8792l-0.6338,0.639l-0.5706-11.0203c-1.7354,1.0412-6.9628,4.3941-8.4882,7.1392
									l-0.7809,1.3673v-11.1412c-1.6094,0.1656-7.1758,0.7757-10.6942,0.7757c-2.2849,0-2.9029-0.2445-3.1711-0.4575
									l-0.3339-0.2526l0.2262-0.3549c0.5943-0.9599,14.5936-23.116,27.9828-24.6306c9.9527-1.3856,18.4669-3.463,18.5905-4.6016
									l0,0l0.2868-0.5469c0.0183-0.021,2.7739-1.1201,2.5822-11.6406c-0.2106-0.8942-2.3194-10.5286,2.5924-16.5342
									c0.0948-0.1002,8.0595-8.4855,22.9951-20.0631c1.1306-0.8072,27.3994-19.6344,34.7776-23.179l0.9677-0.4812l-0.4233,1.0649
									c-0.0474,0.1473-5.2748,13.6286-2.1406,18.8035c1.2413,2.0326,3.6762,2.461,7.3021,1.3409l37.5623-15.2773l0.3762,0.7941
									c-0.1866,0.129-18.4249,13.5446-17.2574,22.7767c0.3681,2.9266,2.7163,5.1695,6.9655,6.6736l1.1597,0.4209l-1.1597,0.4548
									c-0.1578,0.0525-16.9076,6.5422-20.3733,18.6196c-1.475,5.1878-0.3051,10.6939,3.4998,16.3974l0.6233,0.9413l-1.0466-0.2289
									c-0.0078-0.0078-1.7459-0.3837-4.1967-0.3837c-5.1407,0-12.0588,1.5302-15.8742,8.9165
									c-0.0579,0.0894-4.0809,6.8551-0.5864,11.7828l0.5286,0.7599l-0.9677-0.0105c-2.0273,0-19.8921,0.318-23.4628,12.2586
									l-0.1107,0.363l-0.3627-0.0816c-0.0132,0-2.1508-0.426-5.0801-0.426c-4.7648,0-11.2438,1.094-15.0355,6.2608l-0.1185,0.1737
									h-1.4039l-0.0975-0.0555c-0.0579-0.0261-5.2616-3.1078-10.3234-3.1078c-4.4568,0-7.4046,2.3716-8.7851,7.0444
									L146.3943,198.273z M137.3383,192.4643c4.1232,0,7.4784,2.9266,8.7011,4.131c1.5539-4.6227,4.7829-7.018,9.3476-7.018
									c4.9514,0,9.8633,2.7502,10.6207,3.1894h0.8018c4.0128-5.3168,10.6468-6.4447,15.5562-6.4447
									c2.3296,0,4.1493,0.2733,4.8881,0.3918c3.705-11.3226,19.5792-12.4218,23.4577-12.5139
									c-3.0397-5.3246,0.8177-11.7957,0.9809-12.0876c4.215-8.1594,12.198-9.3611,16.5894-9.3611
									c1.4303,0,2.6059,0.1026,3.3895,0.2103c-3.5289-5.6138-4.5543-11.1202-3.0607-16.3134
									c3.108-10.8388,15.9897-17.1206,19.8369-18.7612c-3.8943-1.6304-6.0664-3.9654-6.4555-6.9997
									c-0.9677-7.686,9.9236-17.51,15.0565-21.6644l-34.6567,14.0993c-4.0914,1.2752-6.805,0.6653-8.2488-1.7144
									c-2.8714-4.7225,0.4656-15.1669,1.6673-18.5854c-8.4462,4.5491-33.4421,22.4506-33.7049,22.6348
									c-14.8672,11.5381-22.7872,19.8474-22.8607,19.9314c-4.7306,5.806-2.3983,15.6429-2.3773,15.7428l0.0159,0.1077
									c0.1815,9.6371-2.0221,11.9064-2.8924,12.4428c-0.0264,0.1104-0.0684,0.2472-0.1422,0.384
									c-1.5038,2.4508-17.3414,4.6857-19.1611,4.9277c-11.9535,1.3436-24.9275,20.4732-27.0784,23.7468
									c0.3759,0.0711,1.0385,0.1446,2.2849,0.1446c4.0968,0,11.0044-0.7914,11.0704-0.8204l0.4548-0.0447v9.206
									c2.6059-3.2265,8.3514-6.5527,8.6195-6.7078l0.5757-0.3183l0.5391,10.5811
									C133.0681,193.3216,135.1374,192.4643,137.3383,192.4643z"/>
							</g>
						</g>
					</g>
				</g>
			</g>
		</g>
	</g>
	<g>
		<g>
			<g>
				<g>
					<g>
						<g>
							<g>
								<path class="st3" d="M145.6816,196.5032l-0.2706-1.5119c-1.6619-9.2321,1.6958-27.1363,2.3506-30.418
									c-2.7136,1.3307-11.2911,14.0836-16.6815,22.7872l-0.5549,0.9125v-1.0859c0-3.5103,7.4625-20.6075,8.9615-23.9916
									c-12.243,1.9432-31.1176,18.112-31.3147,18.2593l-0.3813-0.5286c0.2025-0.1659,19.7868-16.9157,32.1771-18.4591
									l0.5547-0.063l-0.2472,0.5285c-0.0708,0.2022-7.5256,16.9443-8.9217,22.816c3.2341-5.1512,14.0018-21.9485,16.8156-21.9485
									h0.3759l-0.084,0.3918c-0.0369,0.1998-3.8259,18.6037-2.6848,29.0663c1.4936-6.5341,7.0603-30.1811,10.1446-32.9394
									l0.3444-0.3026l0.1446,0.4472c0.0684,0.234,6.5896,20.3811,9.1376,28.7112c-0.1815-6.4921-1.0439-25.3325-4.9988-32.858
									l-1.0229-1.922l1.4885,1.5119c2.2402,2.2693,19.3057,19.6974,24.5043,26.2501c-2.1484-5.4587-8.2437-19.006-19.4004-29.1059
									l-1.3673-1.2017l1.667,0.6653c1.4411,0.5364,30.1078,12.0036,40.4364,18.2935
									c-5.3483-5.3696-17.6045-16.3239-36.1713-25.2221l-1.349-0.6548h1.4699c0.3972,0.0078,37.9409,0.2997,57.7199,5.7719
									c-5.0774-2.8033-20.5887-9.3452-56.9259-11.7408l-1.8248-0.1368l1.7591-0.5232
									c5.8639-1.7459,47.131-14.1703,66.3158-19.4214c-17.018,2.9425-51.4618,8.9693-62.2874,11.4304l-2.569,0.5838l2.3692-1.2122
									c16.0872-8.1855,54.5068-27.9384,65.5979-34.307l-70.5965,30.113l0.6048-0.9467l73.8887-31.5565l-0.3498,0.7862
									c-0.7862,1.6934-51.4171,27.6069-66.5944,35.3353c15.7374-3.3081,58.556-10.6549,67.7698-12.222
									c1.0307-0.2472,1.6724-0.3288,1.8617-0.2997l1.775,0.3444l-1.775,0.3102c-0.0657,0.0081-0.8204,0.1473-2.1325,0.3657
									c-9.8894,2.3245-52.6188,15.0013-71.9559,20.8176c45.1668,3.208,57.0099,12.6138,57.4964,13.016l1.3331,1.1096
									l-1.604-0.5154c-16.8654-5.4536-50.9332-6.2818-58.4113-6.4003c21.1646,10.426,33.8915,23.3526,37.2257,27.0181
									c0.4758,0.4104,1.4276,1.4306,1.5512,1.7303l0.0132,0.7205l-1.1174-0.9941c-0.021-0.0261-0.363-0.4284-1.0202-1.1384
									c-5.075-4.1679-27.6675-13.7996-41.1173-19.198c12.7713,12.243,18.5482,28.7061,19.1425,30.481
									c0.0396,0.0921,0.0606,0.1815,0.066,0.2367l0.2655,2.8189l-0.86-2.6899c0-0.0105-0.0471-0.129-0.1128-0.3288
									c-1.3016-2.5531-14.983-16.9628-24.4701-26.6263c4.1466,10.2946,4.3701,32.7135,4.3833,33.7364l0.0078,2.1694
									l-0.6075-2.0695c-1.6697-5.6429-8.4827-26.7601-9.6266-30.3259c-3.4471,4.5308-9.9185,33.5339-9.9815,33.8258
									L145.6816,196.5032z"/>
							</g>
						</g>
					</g>
				</g>
			</g>
		</g>
	</g>
	<g>
		<g>
			<g>
				<g>
					<g>
						<g>
							<g>
								<path class="st3" d="M153.949,154.2369c-0.2106,0-0.3474-0.0447-0.4182-0.0633l0.2076-0.6363
									c0.0552,0,3.8286,1.0175,10.3654-15.7716c0.0552-0.1446,6.0979-14.5384,13.2923-21.6749
									c0.105-0.0999,9.4136-8.3829,18.7375-16.4343c19.0639-16.4607,19.5372-16.0137,19.887-15.7218l-0.3867,0.5181
									c0.0501,0.063,0.1236,0.063,0.1395,0.063c-1.5803,0.192-23.5786,19.2979-37.97,32.0694
									c-7.0864,7.0444-13.0817,21.3092-13.1369,21.4355C158.9292,152.788,155.2059,154.2369,153.949,154.2369z"/>
							</g>
						</g>
					</g>
				</g>
			</g>
		</g>
	</g>
	<g>
		<g>
			<g>
				<g>
					<g>
						<g>
							<path class="st1" d="M264.4691,148.0679c0,0-5.9743-5.8085-12.3851-3.292c0,0-4.5411,4.2651,0.7521,6.5422
								C252.836,151.3181,262.1998,154.1001,264.4691,148.0679z"/>
						</g>
					</g>
				</g>
			</g>
		</g>
		<g>
			<g>
				<g>
					<g>
						<g>
							<path class="st3" d="M257.4614,152.2778L257.4614,152.2778c-2.4979,0-4.6199-0.6099-4.7121-0.639
								c-1.6487-0.71-2.569-1.6592-2.7478-2.8609c-0.3417-2.1325,1.7855-4.1571,1.8775-4.2546l0.0999-0.0576
								c1.1201-0.4367,2.2693-0.647,3.4761-0.647c5.0408,0,9.048,3.8181,9.2084,3.9837l0.1737,0.1632l-0.0789,0.2181
								C263.7459,150.8631,261.2321,152.2778,257.4614,152.2778z M252.9467,151.0104c0.0129,0,2.114,0.6128,4.5147,0.6128l0,0
								c2.3692,0,5.4221-0.6128,6.6238-3.4737c-0.8021-0.71-4.394-3.6654-8.6301-3.6654c-1.1069,0-2.1799,0.2103-3.2029,0.5916
								c-0.2838,0.2658-1.901,1.9774-1.6487,3.5997C250.7589,149.6167,251.5425,150.4005,252.9467,151.0104L252.9467,151.0104z"/>
						</g>
					</g>
				</g>
			</g>
		</g>
	</g>
	<g>
		<g>
			<g>
				<g>
					<g>
						<g>
							<path class="st3" d="M265.6786,158.9856l-0.1263-0.8756c0.0264-0.0708,2.2036-5.8688-1.2989-9.7868l0.4206-0.5208
								C268.8785,153.3901,265.7074,158.9226,265.6786,158.9856z"/>
						</g>
					</g>
				</g>
			</g>
		</g>
	</g>
	<g>
		<g>
			<g>
				<g>
					<g>
						<g>
							<path class="st5" d="M73.084,237.2c0,0,0.3342,2.0168,15.4956-1.2305"/>
						</g>
					</g>
				</g>
			</g>
		</g>
		<g>
			<g>
				<g>
					<g>
						<g>
							<path class="st3" d="M75.8897,238.1386c-1.7222,0-2.4928-0.255-2.8345-0.4995c-0.2208-0.1578-0.2631-0.3183-0.284-0.384
								L73.084,237.2l0.2814-0.1632c0.0369,0.0816,1.2989,1.5752,15.1618-1.3856l0.1155,0.6363
								C82.0086,237.7204,78.138,238.1386,75.8897,238.1386z"/>
						</g>
					</g>
				</g>
			</g>
		</g>
	</g>
	<g>
		<g>
			<g>
				<g>
					<g>
						<g>
							<path class="st5" d="M72.0113,244.1837c0,0,6.3343-2.9344,10.3576-1.1306"/>
						</g>
					</g>
				</g>
			</g>
		</g>
		<g>
			<g>
				<g>
					<g>
						<g>
							<path class="st3" d="M72.1295,244.502l-0.2313-0.6285c0.2631-0.1104,6.479-2.9635,10.5784-1.1306l-0.2367,0.618
								C78.3771,241.6489,72.1874,244.4756,72.1295,244.502z"/>
						</g>
					</g>
				</g>
			</g>
		</g>
	</g>
	<g>
		<g>
			<g>
				<g>
					<g>
						<g>
							<path class="st5" d="M113.7676,244.2944c0,0-2.0116,1.2383,0.3867,3.5892"/>
						</g>
					</g>
				</g>
			</g>
		</g>
		<g>
			<g>
				<g>
					<g>
						<g>
							<path class="st3" d="M113.9437,248.1227c-0.9203-0.9044-1.3514-1.7513-1.2674-2.59
								c0.0999-0.9938,0.9098-1.4963,0.9335-1.5224l0.3102,0.5627l-0.1524-0.2787l0.1524,0.2787c0,0-0.5601,0.3864-0.6336,1.0227
								c-0.0552,0.6023,0.3207,1.3124,1.0781,2.0302L113.9437,248.1227z"/>
						</g>
					</g>
				</g>
			</g>
		</g>
	</g>
	<g>
		<g>
			<g>
				<g>
					<g>
						<g>
							<path class="st5" d="M69.9655,239.0985c0,0,2.2588,3.8889,0.3944,4.0626"/>
						</g>
					</g>
				</g>
			</g>
		</g>
		<g>
			<g>
				<g>
					<g>
						<g>
							<path class="st3" d="M70.3941,243.5082l-0.0552-0.6575c0.2682-0.0552,0.3498-0.171,0.3813-0.255
								c0.3024-0.618-0.4734-2.377-1.0202-3.3447l0.5208-0.3471c0.1734,0.2841,1.5986,2.8189,1.0622,3.9837
								C71.1698,243.1452,70.9254,243.4449,70.3941,243.5082z"/>
						</g>
					</g>
				</g>
			</g>
		</g>
	</g>
	<g>
		<g>
			<g>
				<g>
					<g>
						<g>
							<path class="st5" d="M73.7626,232.1513c0,0,2.5189,2.6083-2.4112,2.4085"/>
						</g>
					</g>
				</g>
			</g>
		</g>
		<g>
			<g>
				<g>
					<g>
						<g>
							<path class="st3" d="M71.8376,234.8937c-0.1524,0-0.3129,0-0.4917,0l0.0132-0.6389c2.1931,0.0657,2.6347-0.426,2.7058-0.6522
								c0.1497-0.3759-0.2763-0.9674-0.5075-1.2305l0.4259-0.4758c0.1104,0.1104,1.0046,1.0937,0.6495,1.9853
								C74.3619,234.5599,73.4497,234.8937,71.8376,234.8937z"/>
						</g>
					</g>
				</g>
			</g>
		</g>
	</g>
	<g>
		<g>
			<g>
				<g>
					<g>
						<g>
							<path class="st5" d="M222.9492,236.8739c0,0,2.3062,0.0525,8.4855,2.2246"/>
						</g>
					</g>
				</g>
			</g>
		</g>
		<g>
			<g>
				<g>
					<g>
						<g>
							<path class="st3" d="M231.3375,239.4246c-6.0637-2.1325-8.3882-2.1958-8.3987-2.1958l0.0105-0.6837
								c0.1053,0,2.4166,0.0633,8.5854,2.2141L231.3375,239.4246z"/>
						</g>
					</g>
				</g>
			</g>
		</g>
	</g>
	<g>
		<g>
			<g>
				<g>
					<g>
						<g>
							<path class="st5" d="M103.8281,218.6883c0,0,0.6573,2.9635,4.2045,2.2876"/>
						</g>
					</g>
				</g>
			</g>
		</g>
		<g>
			<g>
				<g>
					<g>
						<g>
							<path class="st3" d="M107.0178,221.4046c-2.8741,0-3.4893-2.6059-3.4947-2.6269l0.5996-0.1446
								c0.021,0.0735,0.6521,2.6164,3.8625,1.9958l0.108,0.6758C107.7014,221.3782,107.3463,221.4046,107.0178,221.4046z"/>
						</g>
					</g>
				</g>
			</g>
		</g>
	</g>
	<g>
		<g>
			<g>
				<g>
					<g>
						<g>
							<path class="st5" d="M106.8258,211.3494c0,0,2.3269,1.1675,5.0642,0.8597"/>
						</g>
					</g>
				</g>
			</g>
		</g>
		<g>
			<g>
				<g>
					<g>
						<g>
							<path class="st3" d="M110.9277,212.5904c-2.327,0-4.1361-0.8807-4.2204-0.9281l0.2631-0.6207
								c0.0183,0.0186,2.2744,1.1282,4.8935,0.8285l0.0552,0.6861C111.5904,212.5799,111.2511,212.5904,110.9277,212.5904z"/>
						</g>
					</g>
				</g>
			</g>
		</g>
	</g>
	<g>
		<g>
			<g>
				<g>
					<path class="st3" d="M73.4944,250.1632l-0.5759-0.0735c0.3339-2.7715-1.1306-2.9977-1.1912-3.0265l0.0684-0.647
						c0.0291,0,0.7127,0.0999,1.2227,0.8204C73.4863,247.9308,73.6468,248.9117,73.4944,250.1632z"/>
				</g>
			</g>
		</g>
	</g>
</g>
</svg>
