<?xml version="1.0" encoding="utf-8"?>
<!-- Generator: Adobe Illustrator 22.0.0, SVG Export Plug-In . SVG Version: 6.00 Build 0)  -->
<svg version="1.1" id="Layer_1" xmlns="http://www.w3.org/2000/svg" xmlns:xlink="http://www.w3.org/1999/xlink" x="0px" y="0px"
	 viewBox="0 0 60 60" style="enable-background:new 0 0 60 60;" xml:space="preserve">
<style type="text/css">
	.st0{clip-path:url(#SVGID_2_);fill:#CE1126;}
	.st1{clip-path:url(#SVGID_2_);fill:#002B7F;}
	.st2{clip-path:url(#SVGID_2_);}
	.st3{fill:#FFFFFF;}
</style>
<g>
	<defs>
		<circle id="SVGID_1_" cx="30" cy="30" r="30"/>
	</defs>
	<clipPath id="SVGID_2_">
		<use xlink:href="#SVGID_1_"  style="overflow:visible;"/>
	</clipPath>
	<rect x="-30" class="st0" width="120" height="60"/>
	<rect x="-30" class="st1" width="60" height="30"/>
	<g class="st2">
		<polygon class="st3" points="13.7268,5.1686 12.9399,7.5904 15,6.0936 17.0601,7.5904 16.2732,5.1686 18.3333,3.6718 
			15.7869,3.6718 15,1.25 14.2131,3.6718 11.6667,3.6718 		"/>
		<polygon class="st3" points="6.6202,11.1718 5.8333,8.75 5.0464,11.1718 2.5,11.1718 4.5601,12.6686 3.7732,15.0904 
			5.8333,13.5936 7.8934,15.0904 7.1066,12.6686 9.1667,11.1718 		"/>
		<polygon class="st3" points="25.5686,11.1737 27.5,9.7704 25.1127,9.7704 24.375,7.5 23.6373,9.7704 21.25,9.7704 
			23.1814,11.1737 22.4436,13.4441 24.375,12.0409 26.3064,13.4441 		"/>
		<polygon class="st3" points="20.0751,16.7176 19.5833,15.2039 19.0915,16.7176 17.5,16.7176 18.7876,17.653 18.2958,19.1667 
			19.5833,18.2312 20.8709,19.1667 20.3791,17.653 21.6667,16.7176 		"/>
		<polygon class="st3" points="15.9836,23.8518 15,20.8245 14.0164,23.8518 10.8333,23.8518 13.4085,25.7227 12.4249,28.75 
			15,26.8791 17.5751,28.75 16.5915,25.7227 19.1667,23.8518 		"/>
	</g>
</g>
</svg>
