<?xml version="1.0" encoding="utf-8"?>
<!-- Generator: Adobe Illustrator 22.0.0, SVG Export Plug-In . SVG Version: 6.00 Build 0)  -->
<svg version="1.1" id="Layer_1" xmlns="http://www.w3.org/2000/svg" xmlns:xlink="http://www.w3.org/1999/xlink" x="0px" y="0px"
	 viewBox="0 0 60 60" style="enable-background:new 0 0 60 60;" xml:space="preserve">
<style type="text/css">
	.st0{clip-path:url(#SVGID_2_);}
	.st1{fill:#FFFFFF;}
	.st2{fill:#D22D27;}
	.st3{fill:#2B3485;}
	.st4{fill:#E6CF24;}
	.st5{fill:#E0E0DF;}
	.st6{fill:none;}
</style>
<g>
	<defs>
		<circle id="SVGID_1_" cx="30" cy="30" r="30"/>
	</defs>
	<clipPath id="SVGID_2_">
		<use xlink:href="#SVGID_1_"  style="overflow:visible;"/>
	</clipPath>
	<g class="st0">
		<g>
			<rect x="-9.5" y="3.6667" class="st1" width="79" height="52.6667"/>
		</g>
		<g>
			<g>
				<path class="st1" d="M30,19.0453H19.9933c0,0,0,20.7068,0,22.278c0,0.5954,1.2094,1.4259,2.8014,1.5223
					c1.8947,0.1148,5.8622-0.39,6.6464,0.6552c0.245,0.3266,0.4216,0.7307,0.5588,1.1931c0.1373-0.4625,0.3138-0.8665,0.5588-1.1931
					c0.7842-1.0452,4.7517-0.5405,6.6464-0.6552c1.592-0.0964,2.8014-0.9269,2.8014-1.5223c0-1.5712,0-22.278,0-22.278H30z"/>
				<path d="M30,45.0179l-0.0884-0.2977c-0.145-0.4885-0.323-0.8692-0.5442-1.164c-0.427-0.5692-1.9322-0.6421-3.1958-0.6421
					c-0.4724,0-0.9536,0.0113-1.419,0.0222c-0.4343,0.0102-0.8446,0.0198-1.2208,0.0198c-0.2944,0-0.5373-0.006-0.7426-0.0185
					c-1.6265-0.0985-2.888-0.9487-2.888-1.6143V18.9532h20.1977v22.3702c0,0.6656-1.2616,1.5158-2.888,1.6143
					c-0.2054,0.0124-0.4483,0.0185-0.7427,0.0185c-0.3762,0-0.7865-0.0096-1.2208-0.0198c-0.4654-0.0109-0.9466-0.0222-1.419-0.0222
					c-1.2636,0-2.7688,0.073-3.1958,0.6421c-0.2212,0.2948-0.3992,0.6756-0.5442,1.164L30,45.0179z M26.1716,42.7297
					c1.3876,0,2.87,0.085,3.3433,0.7158C29.7058,43.7,29.8656,44.0121,30,44.3943c0.1344-0.3822,0.2942-0.6943,0.4851-0.9488
					c0.4733-0.6308,1.9556-0.7158,3.3433-0.7158c0.4746,0,0.9569,0.0113,1.4233,0.0223c0.4332,0.0102,0.8424,0.0198,1.2165,0.0198
					c0.2906,0,0.5299-0.0059,0.7315-0.0181c0.7187-0.0435,1.4136-0.243,1.9567-0.5615c0.4676-0.2743,0.7582-0.6072,0.7582-0.8688
					V19.1375h-19.829v22.1858c0,0.2615,0.2905,0.5944,0.7582,0.8688c0.5431,0.3186,1.238,0.518,1.9567,0.5615
					c0.2016,0.0122,0.4409,0.0181,0.7315,0.0181c0.374,0,0.7832-0.0096,1.2164-0.0198
					C25.2147,42.741,25.6971,42.7297,26.1716,42.7297z"/>
			</g>
			<g>
				<g>
					<path class="st2" d="M21.4915,20.7234c-0.2782,0.2909-0.5765,0.7534-0.5765,1.3997c0,0.9461,1.0478,1.7772,1.0478,1.7772
						s-0.9549,0.8311-0.9549,1.7772c0,0.9461,0.9549,1.7772,0.9549,1.7772s-0.9549,0.8311-0.9549,1.7772
						c0,0.9461,0.9549,1.7772,0.9549,1.7772s-0.9549,0.8311-0.9549,1.7772c0,0.946,0.9549,1.7772,0.9549,1.7772
						s-0.9549,0.8311-0.9549,1.7772c0,0.9461,0.9549,1.7772,0.9549,1.7772s-1.0478,0.8311-1.0478,1.7772
						c0,0.6463,0.2982,1.1088,0.5765,1.3997c0.2909,0.2782,0.7534,0.5765,1.3997,0.5765c0.9461,0,1.7772-1.0478,1.7772-1.0478
						s0.8311,0.9549,1.7772,0.9549c0.9461,0,1.7772-0.9549,1.7772-0.9549S29.0539,41.7784,30,41.7784
						c0.9461,0,1.7772-0.9549,1.7772-0.9549s0.8312,0.9549,1.7772,0.9549c0.9461,0,1.7772-0.9549,1.7772-0.9549
						s0.8312,1.0478,1.7772,1.0478c0.6463,0,1.1088-0.2982,1.3997-0.5765c0.2782-0.2909,0.5764-0.7534,0.5764-1.3997
						c0-0.9461-1.0478-1.7772-1.0478-1.7772s0.9549-0.8311,0.9549-1.7772c0-0.9461-0.9549-1.7772-0.9549-1.7772
						s0.9549-0.8311,0.9549-1.7772c0-0.9461-0.9549-1.7772-0.9549-1.7772s0.9549-0.8311,0.9549-1.7772
						c0-0.9461-0.9549-1.7772-0.9549-1.7772s0.9549-0.8311,0.9549-1.7772c0-0.9461-0.9549-1.7772-0.9549-1.7772
						s1.0478-0.8311,1.0478-1.7772c0-0.6463-0.2982-1.1088-0.5764-1.3997c-0.2909-0.2782-0.7534-0.5765-1.3997-0.5765
						c-0.946,0-1.7772,1.0478-1.7772,1.0478s-0.8311-0.9549-1.7772-0.9549c-0.9461,0-1.7772,0.9549-1.7772,0.9549
						S30.9461,20.2398,30,20.2398c-0.9461,0-1.7772,0.9549-1.7772,0.9549s-0.8311-0.9549-1.7772-0.9549
						c-0.9461,0-1.7772,0.9549-1.7772,0.9549s-0.8311-1.0478-1.7772-1.0478C22.2449,20.1469,21.7824,20.4452,21.4915,20.7234z"/>
					<path d="M37.1088,41.9635c-0.8307,0-1.5576-0.7472-1.7805-1.0009c-0.2273,0.235-0.9501,0.9081-1.7739,0.9081
						c-0.8278,0-1.5537-0.6796-1.7772-0.9115c-0.2235,0.2318-0.9493,0.9115-1.7772,0.9115c-0.8278,0-1.5537-0.6796-1.7772-0.9115
						c-0.2235,0.2318-0.9494,0.9115-1.7772,0.9115c-0.8238,0-1.5467-0.6731-1.7739-0.9081
						c-0.2229,0.2537-0.9497,1.0009-1.7805,1.0009c-0.6893,0-1.1763-0.3274-1.4634-0.602l-0.0029-0.0029
						c-0.2746-0.2871-0.602-0.7741-0.602-1.4634c0-0.8307,0.7472-1.5576,1.0009-1.7805c-0.235-0.2273-0.9081-0.9501-0.9081-1.7739
						c0-0.8278,0.6796-1.5537,0.9115-1.7772c-0.2318-0.2235-0.9115-0.9494-0.9115-1.7772c0-0.8279,0.6796-1.5537,0.9115-1.7772
						c-0.2318-0.2235-0.9115-0.9493-0.9115-1.7772c0-0.8278,0.6796-1.5537,0.9115-1.7772
						c-0.2318-0.2235-0.9115-0.9494-0.9115-1.7772c0-0.8238,0.6731-1.5467,0.9081-1.7739
						c-0.2537-0.2229-1.0009-0.9497-1.0009-1.7805c0-0.6893,0.3274-1.1763,0.602-1.4634l0.0029-0.0029
						c0.2871-0.2746,0.7741-0.602,1.4634-0.602c0.8308,0,1.5576,0.7472,1.7805,1.0009c0.2272-0.235,0.9501-0.9081,1.7739-0.9081
						c0.8278,0,1.5537,0.6796,1.7772,0.9115c0.2235-0.2318,0.9494-0.9115,1.7772-0.9115c0.8279,0,1.5537,0.6796,1.7772,0.9115
						c0.2235-0.2318,0.9494-0.9115,1.7772-0.9115c0.8238,0,1.5467,0.6731,1.7739,0.9081c0.2229-0.2537,0.9498-1.0009,1.7805-1.0009
						c0.6893,0,1.1763,0.3274,1.4634,0.602l0.0029,0.0029c0.2746,0.2871,0.602,0.7741,0.602,1.4634
						c0,0.8308-0.7472,1.5576-1.0009,1.7805c0.235,0.2273,0.9081,0.9501,0.9081,1.7739c0,0.8278-0.6796,1.5537-0.9115,1.7772
						c0.2318,0.2235,0.9115,0.9494,0.9115,1.7772c0,0.8279-0.6796,1.5537-0.9115,1.7772c0.2318,0.2235,0.9115,0.9494,0.9115,1.7772
						c0,0.8278-0.6796,1.5537-0.9115,1.7772c0.2318,0.2235,0.9115,0.9494,0.9115,1.7772c0,0.8238-0.6731,1.5467-0.9081,1.7739
						c0.2537,0.2229,1.0009,0.9497,1.0009,1.7805c0,0.6894-0.3274,1.1763-0.602,1.4634l-0.0029,0.0029
						C38.2851,41.6361,37.7981,41.9635,37.1088,41.9635z M35.3348,40.6794l0.069,0.0868c0.008,0.0101,0.8153,1.0129,1.705,1.0129
						c0.627,0,1.0716-0.2985,1.3345-0.5495c0.251-0.2629,0.5494-0.7075,0.5494-1.3345c0-0.8912-1.0027-1.697-1.0129-1.705
						l-0.0868-0.0689l0.0835-0.0728c0.0092-0.008,0.9233-0.8155,0.9233-1.7077c0-0.8922-0.9141-1.6997-0.9233-1.7077l-0.0797-0.0695
						l0.0797-0.0695c0.0092-0.008,0.9233-0.8155,0.9233-1.7077c0-0.8922-0.9141-1.6997-0.9233-1.7078l-0.0797-0.0695l0.0797-0.0695
						c0.0092-0.008,0.9233-0.8155,0.9233-1.7077c0-0.8938-0.914-1.6996-0.9233-1.7077l-0.0798-0.0695l0.0798-0.0696
						c0.0092-0.0081,0.9233-0.8155,0.9233-1.7077c0-0.8922-0.9141-1.6997-0.9233-1.7077l-0.0834-0.0728l0.0866-0.0689
						c0.0101-0.0081,1.0129-0.8152,1.0129-1.705c0-0.627-0.2984-1.0715-0.5494-1.3345c-0.2629-0.251-0.7075-0.5495-1.3346-0.5495
						c-0.8898,0-1.697,1.0028-1.705,1.0129l-0.0689,0.0867l-0.0728-0.0834c-0.008-0.0092-0.8155-0.9233-1.7077-0.9233
						c-0.8938,0-1.6997,0.914-1.7077,0.9233l-0.0694,0.0798l-0.0696-0.0798C31.6996,21.246,30.8922,20.332,30,20.332
						c-0.8922,0-1.6996,0.9141-1.7077,0.9233l-0.0695,0.0797l-0.0695-0.0797c-0.0081-0.0092-0.8155-0.9233-1.7077-0.9233
						c-0.8938,0-1.6996,0.914-1.7077,0.9233l-0.0727,0.0836l-0.069-0.0868c-0.0081-0.0101-0.8152-1.0129-1.705-1.0129
						c-0.627,0-1.0716,0.2985-1.3345,0.5495c-0.251,0.2629-0.5495,0.7075-0.5495,1.3345c0,0.8898,1.0028,1.697,1.0129,1.705
						l0.0867,0.0689l-0.0834,0.0728c-0.0092,0.008-0.9233,0.8155-0.9233,1.7077c0,0.8938,0.914,1.6996,0.9233,1.7077l0.0798,0.0695
						l-0.0798,0.0696C22.0141,27.5323,21.1,28.3397,21.1,29.2319c0,0.8922,0.9141,1.6996,0.9233,1.7077l0.0797,0.0695
						l-0.0797,0.0695c-0.0092,0.008-0.9233,0.8155-0.9233,1.7078c0,0.8922,0.9141,1.6996,0.9233,1.7077l0.0796,0.0695
						l-0.0796,0.0695C22.0141,34.641,21.1,35.4485,21.1,36.3407c0,0.8938,0.914,1.6996,0.9233,1.7077l0.0836,0.0727l-0.0868,0.069
						c-0.0101,0.008-1.0129,0.8153-1.0129,1.705c0,0.6271,0.2985,1.0716,0.5495,1.3345c0.263,0.251,0.7075,0.5494,1.3345,0.5494
						c0.8898,0,1.697-1.0028,1.705-1.0129l0.0689-0.0866l0.0728,0.0834c0.0081,0.0092,0.8155,0.9233,1.7077,0.9233
						c0.8922,0,1.6997-0.9141,1.7077-0.9233l0.0695-0.0797l0.0695,0.0797c0.008,0.0092,0.8155,0.9233,1.7077,0.9233
						c0.8922,0,1.6996-0.9141,1.7077-0.9233l0.0695-0.0797l0.0695,0.0797c0.008,0.0092,0.8156,0.9233,1.7078,0.9233
						c0.8938,0,1.6996-0.914,1.7077-0.9233L35.3348,40.6794z"/>
				</g>
				<g>
					<path class="st3" d="M21.4915,20.7234c-0.2782,0.2909-0.5765,0.7534-0.5765,1.3997c0,0.9461,1.0478,1.7772,1.0478,1.7772
						s-0.9549,0.8311-0.9549,1.7772c0,0.9461,0.9549,1.7772,0.9549,1.7772s-0.9549,0.8311-0.9549,1.7772
						c0,0.9461,0.9549,1.7772,0.9549,1.7772h16.0744c0,0,0.9549-0.8311,0.9549-1.7772c0-0.9461-0.9549-1.7772-0.9549-1.7772
						s0.9549-0.8311,0.9549-1.7772c0-0.9461-0.9549-1.7772-0.9549-1.7772s1.0478-0.8311,1.0478-1.7772
						c0-0.6463-0.2982-1.1088-0.5764-1.3997c-0.2909-0.2782-0.7534-0.5765-1.3997-0.5765c-0.946,0-1.7772,1.0478-1.7772,1.0478
						s-0.8311-0.9549-1.7772-0.9549c-0.9461,0-1.7772,0.9549-1.7772,0.9549S30.9461,20.2398,30,20.2398
						c-0.9461,0-1.7772,0.9549-1.7772,0.9549s-0.8311-0.9549-1.7772-0.9549c-0.9461,0-1.7772,0.9549-1.7772,0.9549
						s-0.8311-1.0478-1.7772-1.0478C22.2449,20.1469,21.7824,20.4452,21.4915,20.7234z"/>
					<path d="M38.0717,31.1013H21.9283l-0.026-0.0226c-0.0403-0.0351-0.9866-0.8699-0.9866-1.8467
						c0-0.8278,0.6796-1.5537,0.9115-1.7772c-0.2318-0.2235-0.9115-0.9494-0.9115-1.7772c0-0.8238,0.6731-1.5467,0.9081-1.7739
						c-0.2537-0.2229-1.0009-0.9497-1.0009-1.7805c0-0.6893,0.3274-1.1763,0.602-1.4634l0.0029-0.0029
						c0.2871-0.2746,0.7741-0.602,1.4634-0.602c0.8308,0,1.5576,0.7472,1.7805,1.0009c0.2272-0.235,0.9501-0.9081,1.7739-0.9081
						c0.8278,0,1.5537,0.6796,1.7772,0.9115c0.2235-0.2318,0.9494-0.9115,1.7772-0.9115c0.8279,0,1.5537,0.6796,1.7772,0.9115
						c0.2235-0.2318,0.9494-0.9115,1.7772-0.9115c0.8238,0,1.5467,0.6731,1.7739,0.9081c0.2229-0.2537,0.9497-1.0009,1.7805-1.0009
						c0.6893,0,1.1763,0.3274,1.4634,0.602l0.0029,0.0029c0.2746,0.2871,0.602,0.7741,0.602,1.4634
						c0,0.8308-0.7472,1.5576-1.0009,1.7805c0.235,0.2272,0.9081,0.9501,0.9081,1.7739c0,0.8278-0.6796,1.5537-0.9115,1.7772
						c0.2318,0.2235,0.9115,0.9494,0.9115,1.7772c0,0.9768-0.9463,1.8116-0.9866,1.8467L38.0717,31.1013z M21.9984,30.9169h16.0031
						c0.1474-0.1372,0.8984-0.8763,0.8984-1.685c0-0.8938-0.914-1.6996-0.9233-1.7077l-0.0798-0.0695l0.0798-0.0696
						c0.0092-0.0081,0.9233-0.8155,0.9233-1.7077c0-0.8938-0.914-1.6996-0.9233-1.7077l-0.0836-0.0727l0.0868-0.069
						c0.0101-0.0081,1.0129-0.8152,1.0129-1.705c0-0.627-0.2985-1.0716-0.5495-1.3345c-0.2629-0.251-0.7075-0.5495-1.3345-0.5495
						c-0.8912,0-1.697,1.0028-1.705,1.0129l-0.0689,0.0868l-0.0728-0.0835c-0.008-0.0092-0.8155-0.9233-1.7077-0.9233
						c-0.8938,0-1.6997,0.914-1.7077,0.9233l-0.0695,0.0798l-0.0695-0.0798C31.6996,21.246,30.8922,20.332,30,20.332
						c-0.8938,0-1.6996,0.914-1.7077,0.9233l-0.0695,0.0798l-0.0696-0.0798c-0.0081-0.0092-0.8155-0.9233-1.7077-0.9233
						c-0.8938,0-1.6996,0.914-1.7077,0.9233l-0.0728,0.0836l-0.069-0.0868c-0.0081-0.0101-0.8152-1.0129-1.705-1.0129
						c-0.627,0-1.0716,0.2985-1.3345,0.5495c-0.251,0.2629-0.5495,0.7075-0.5495,1.3345c0,0.8898,1.0028,1.697,1.0129,1.705
						l0.0867,0.0689l-0.0834,0.0728c-0.0092,0.008-0.9233,0.8155-0.9233,1.7077c0,0.8938,0.914,1.6996,0.9233,1.7077l0.0798,0.0695
						l-0.0798,0.0696C22.0141,27.5323,21.1,28.3397,21.1,29.2319C21.1,30.042,21.8509,30.7799,21.9984,30.9169z"/>
				</g>
				<g>
					<g>
						<path class="st1" d="M32.8016,23.5981c0.0105,0.099,0.016,0.1995,0.016,0.3013c0,1.5561-1.2615,2.8177-2.8177,2.8177
							c-1.5561,0-2.8177-1.2615-2.8177-2.8177c0-0.1018,0.0055-0.2023,0.0161-0.3014c-0.3512,0.5306-0.5559,1.1667-0.5559,1.8506
							c0,1.8543,1.5032,3.3575,3.3575,3.3575c1.8543,0,3.3575-1.5032,3.3575-3.3575
							C33.3575,24.7648,33.1528,24.1287,32.8016,23.5981z"/>
					</g>
					<g>
						<path d="M32.9114,23.5254l-0.2868-0.3808l0.0461,0.4674c0.0102,0.0956,0.0153,0.1923,0.0153,0.2874
							c0,1.4811-1.2049,2.686-2.686,2.686s-2.686-1.2049-2.686-2.686c0-0.0952,0.0052-0.1919,0.0153-0.2874l0.0461-0.4674
							l-0.2868,0.3808c-0.378,0.5711-0.5778,1.2361-0.5778,1.9233c0,1.9239,1.5652,3.4892,3.4892,3.4892
							s3.4892-1.5652,3.4892-3.4892C33.4892,24.7615,33.2894,24.0964,32.9114,23.5254z M30,28.6746
							c-1.7787,0-3.2259-1.4471-3.2259-3.2258c0-0.4616,0.0975-0.9124,0.2848-1.3269c0.1141,1.5227,1.3896,2.7269,2.941,2.7269
							s2.8269-1.2042,2.9411-2.7269c0.1873,0.4144,0.2848,0.8653,0.2848,1.3269C33.2259,27.2275,31.7787,28.6746,30,28.6746z"/>
					</g>
				</g>
				<g>
					<rect x="21.9628" y="30.8774" width="16.0744" height="0.2633"/>
				</g>
				<g>
					<g>
						<g>
							<g>
								<ellipse class="st4" cx="26.5108" cy="35.0363" rx="0.4608" ry="1.3233"/>
								<path d="M26.5108,36.4517c-0.4082,0-0.553-0.7625-0.553-1.4154c0-0.6529,0.1448-1.4154,0.553-1.4154
									s0.553,0.7625,0.553,1.4154C27.0638,35.6892,26.919,36.4517,26.5108,36.4517z M26.5108,33.8052
									c-0.1812,0-0.3687,0.4605-0.3687,1.2311s0.1874,1.2311,0.3687,1.2311s0.3687-0.4605,0.3687-1.2311
									S26.6921,33.8052,26.5108,33.8052z"/>
							</g>
							<g>
								<path class="st4" d="M25.4812,35.3646c0.6329,0.3654,1.0615,0.8081,0.9156,1.0607
									c-0.1459,0.2527-0.7435,0.1029-1.3764-0.2625c-0.6329-0.3654-1.0614-0.8081-0.9155-1.0607
									C24.2507,34.8494,24.8484,34.9992,25.4812,35.3646z"/>
								<path d="M26.1067,36.643c-0.2789,0-0.6916-0.1459-1.1323-0.4003c-0.5654-0.3265-1.1533-0.8332-0.9493-1.1866
									c0.0452-0.0783,0.1461-0.1716,0.37-0.1716c0.2789,0,0.6916,0.1459,1.1323,0.4004c0.3253,0.1878,0.5996,0.3977,0.7725,0.591
									c0.2615,0.2925,0.2405,0.4853,0.1768,0.5956C26.4314,36.5497,26.3306,36.643,26.1067,36.643z M24.395,35.0688
									c-0.1092,0-0.1799,0.0267-0.2103,0.0794c-0.0906,0.1569,0.2145,0.5495,0.8818,0.9348
									c0.4075,0.2352,0.7963,0.3757,1.0402,0.3757c0.1091,0,0.1799-0.0267,0.2103-0.0794
									c0.0463-0.0802-0.0101-0.2189-0.1546-0.3805c-0.1602-0.1792-0.4184-0.376-0.7272-0.5542
									C25.0277,35.2092,24.6389,35.0688,24.395,35.0688z"/>
							</g>
							<g>
								<path class="st4" d="M25.0205,36.8196c0.6329-0.3654,1.2305-0.5152,1.3764-0.2626
									c0.1459,0.2527-0.2826,0.6953-0.9155,1.0607c-0.6329,0.3654-1.2305,0.5152-1.3764,0.2625
									C23.959,37.6276,24.3875,37.1849,25.0205,36.8196z"/>
								<path d="M24.395,38.0979c-0.2239,0-0.3248-0.0933-0.37-0.1716c-0.2041-0.3535,0.3839-0.8602,0.9493-1.1866
									c0.4407-0.2544,0.8534-0.4004,1.1323-0.4004c0.2239,0,0.3248,0.0933,0.3699,0.1716
									c0.2041,0.3535-0.3838,0.8602-0.9493,1.1866C25.0866,37.952,24.6739,38.0979,24.395,38.0979z M26.1067,36.5237
									c-0.2439,0-0.6327,0.1404-1.0402,0.3757c-0.6674,0.3853-0.9725,0.7778-0.8819,0.9348
									c0.0304,0.0527,0.1012,0.0794,0.2103,0.0794c0.2439,0,0.6327-0.1404,1.0402-0.3757
									c0.6673-0.3853,0.9724-0.7779,0.8818-0.9348C26.2866,36.5504,26.2158,36.5237,26.1067,36.5237z"/>
							</g>
							<g>
								<path class="st4" d="M26.05,37.9461c0-0.7308,0.1691-1.3232,0.4608-1.3232c0.2918,0,0.4608,0.5924,0.4609,1.3232
									c0,0.7308-0.1691,1.3232-0.4608,1.3233C26.2191,39.2693,26.05,38.6769,26.05,37.9461z"/>
								<path d="M26.5109,39.3616L26.5109,39.3616c-0.4082-0.0001-0.553-0.7626-0.553-1.4155c0-0.6529,0.1448-1.4154,0.553-1.4154
									s0.553,0.7625,0.553,1.4154C27.0638,38.599,26.919,39.3615,26.5109,39.3616z M26.5108,36.715
									c-0.1812,0-0.3686,0.4605-0.3686,1.2311c0,0.7706,0.1874,1.2311,0.3687,1.2311c0.1812,0,0.3686-0.4606,0.3687-1.2311
									C26.8795,37.1755,26.692,36.715,26.5108,36.715z"/>
							</g>
							<g>
								<path class="st4" d="M27.5404,37.6177c-0.6329-0.3654-1.0614-0.8081-0.9156-1.0607
									c0.1459-0.2527,0.7435-0.1029,1.3764,0.2625c0.6329,0.3654,1.0614,0.8081,0.9156,1.0607
									C28.7709,38.1329,28.1733,37.9831,27.5404,37.6177z"/>
								<path d="M28.6267,38.0979c-0.2789,0-0.6916-0.1459-1.1323-0.4003c-0.5655-0.3265-1.1534-0.8331-0.9493-1.1866
									c0.0452-0.0783,0.1461-0.1716,0.37-0.1716c0.2789,0,0.6916,0.1459,1.1323,0.4003c0.5654,0.3265,1.1533,0.8332,0.9494,1.1866
									C28.9515,38.0046,28.8506,38.0979,28.6267,38.0979z M26.915,36.5237c-0.1091,0-0.1799,0.0267-0.2103,0.0794
									c-0.0906,0.1569,0.2145,0.5495,0.8818,0.9348c0.4074,0.2352,0.7963,0.3757,1.0402,0.3757
									c0.1092,0,0.1799-0.0267,0.2104-0.0794c0.0905-0.1569-0.2146-0.5495-0.8819-0.9348
									C27.5477,36.6641,27.1589,36.5237,26.915,36.5237z"/>
							</g>
							<g>
								<path class="st4" d="M28.0013,36.1628c-0.6329,0.3654-1.2305,0.5152-1.3764,0.2625
									c-0.1459-0.2527,0.2826-0.6953,0.9155-1.0607c0.6329-0.3654,1.2305-0.5152,1.3764-0.2626
									C29.0627,35.3547,28.6341,35.7974,28.0013,36.1628z"/>
								<path d="M26.915,36.643c-0.2239,0-0.3248-0.0933-0.37-0.1716c-0.2041-0.3534,0.3838-0.8601,0.9493-1.1866
									c0.4407-0.2544,0.8535-0.4003,1.1324-0.4003c0.2239,0,0.3247,0.0933,0.3699,0.1715
									c0.2041,0.3535-0.3838,0.8602-0.9493,1.1867C27.6066,36.4971,27.1939,36.643,26.915,36.643z M28.6267,35.0688
									c-0.2439,0-0.6327,0.1404-1.0402,0.3757c-0.6673,0.3853-0.9724,0.7779-0.8818,0.9348
									c0.0304,0.0527,0.1012,0.0794,0.2103,0.0794c0.2439,0,0.6327-0.1404,1.0402-0.3757
									c0.6673-0.3853,0.9724-0.7779,0.8818-0.9349C28.8066,35.0954,28.7358,35.0688,28.6267,35.0688z"/>
							</g>
						</g>
						<g>
							<circle class="st1" cx="26.5108" cy="36.4912" r="0.5398"/>
							<path d="M26.5108,37.1232c-0.3485,0-0.632-0.2835-0.632-0.632c0-0.3485,0.2835-0.632,0.632-0.632
								c0.3485,0,0.632,0.2835,0.632,0.632C27.1428,36.8396,26.8593,37.1232,26.5108,37.1232z M26.5108,36.0435
								c-0.2468,0-0.4477,0.2008-0.4477,0.4477s0.2008,0.4477,0.4477,0.4477s0.4477-0.2008,0.4477-0.4477
								S26.7577,36.0435,26.5108,36.0435z"/>
						</g>
					</g>
					<g>
						<g>
							<g>
								<ellipse class="st4" cx="33.4891" cy="35.0363" rx="0.4608" ry="1.3233"/>
								<path d="M33.4891,36.4517c-0.4082,0-0.553-0.7625-0.553-1.4154c0-0.6529,0.1448-1.4154,0.553-1.4154
									c0.4082,0,0.553,0.7625,0.553,1.4154C34.0421,35.6892,33.8973,36.4517,33.4891,36.4517z M33.4891,33.8052
									c-0.1812,0-0.3687,0.4605-0.3687,1.2311s0.1874,1.2311,0.3687,1.2311c0.1812,0,0.3687-0.4605,0.3687-1.2311
									S33.6704,33.8052,33.4891,33.8052z"/>
							</g>
							<g>
								<path class="st4" d="M34.5187,35.3646c-0.6329,0.3654-1.0615,0.8081-0.9156,1.0607
									c0.1459,0.2527,0.7435,0.1029,1.3764-0.2625c0.6329-0.3654,1.0614-0.8081,0.9155-1.0607
									C35.7492,34.8494,35.1516,34.9992,34.5187,35.3646z"/>
								<path d="M33.8934,36.643C33.8933,36.643,33.8933,36.643,33.8934,36.643c-0.224,0-0.3248-0.0933-0.37-0.1716
									c-0.0637-0.1102-0.0847-0.3031,0.1768-0.5956c0.1729-0.1933,0.4472-0.4032,0.7725-0.591
									c0.4407-0.2544,0.8534-0.4004,1.1323-0.4004c0.2239,0,0.3248,0.0933,0.37,0.1716c0.204,0.3535-0.3838,0.8602-0.9493,1.1866
									C34.5849,36.4971,34.1722,36.643,33.8934,36.643z M35.605,35.0688c-0.2439,0-0.6327,0.1404-1.0401,0.3757
									c-0.3088,0.1782-0.567,0.3751-0.7272,0.5542c-0.1446,0.1617-0.2009,0.3004-0.1546,0.3805
									c0.0304,0.0527,0.1012,0.0794,0.2103,0.0794c0,0,0,0,0.0001,0c0.2438,0,0.6326-0.1404,1.0401-0.3757
									c0.6673-0.3853,0.9724-0.7779,0.8818-0.9348C35.7849,35.0955,35.7141,35.0688,35.605,35.0688z"/>
							</g>
							<g>
								<path class="st4" d="M34.9795,36.8196c-0.6329-0.3654-1.2305-0.5152-1.3764-0.2626
									c-0.1459,0.2527,0.2826,0.6953,0.9156,1.0607c0.6329,0.3654,1.2305,0.5152,1.3764,0.2625
									C36.041,37.6276,35.6124,37.1849,34.9795,36.8196z"/>
								<path d="M35.605,38.0979L35.605,38.0979c-0.2789,0-0.6916-0.1459-1.1324-0.4003c-0.5654-0.3265-1.1534-0.8332-0.9493-1.1866
									c0.0452-0.0783,0.146-0.1716,0.3699-0.1716c0.2789,0,0.6916,0.1459,1.1323,0.4004
									c0.5655,0.3264,1.1534,0.8331,0.9493,1.1866C35.9297,38.0046,35.8288,38.0979,35.605,38.0979z M33.8933,36.5237
									c-0.1091,0-0.1799,0.0267-0.2103,0.0794c-0.0906,0.1569,0.2144,0.5495,0.8818,0.9348
									c0.4074,0.2352,0.7963,0.3757,1.0402,0.3757h0c0.1091,0,0.1799-0.0267,0.2103-0.0794
									c0.0906-0.157-0.2145-0.5496-0.8819-0.9348C34.526,36.6641,34.1372,36.5237,33.8933,36.5237z"/>
							</g>
							<g>
								<path class="st4" d="M33.9499,37.9461c0-0.7308-0.1691-1.3232-0.4608-1.3232c-0.2918,0-0.4608,0.5924-0.4609,1.3232
									c0,0.7308,0.1691,1.3232,0.4608,1.3233C33.7808,39.2693,33.95,38.6769,33.9499,37.9461z"/>
								<path d="M33.4891,39.3616L33.4891,39.3616c-0.4082-0.0001-0.553-0.7625-0.553-1.4155c0-0.6529,0.1449-1.4154,0.553-1.4154
									c0.4081,0,0.553,0.7625,0.553,1.4154C34.0421,38.599,33.8973,39.3615,33.4891,39.3616z M33.4891,36.715
									c-0.1812,0-0.3687,0.4605-0.3687,1.2311c0,0.7706,0.1875,1.2311,0.3687,1.2311c0.1812,0,0.3687-0.4606,0.3686-1.2311
									C33.8578,37.1755,33.6703,36.715,33.4891,36.715z"/>
							</g>
							<g>
								<path class="st4" d="M32.4595,37.6177c0.6329-0.3654,1.0614-0.8081,0.9156-1.0607
									c-0.1459-0.2527-0.7435-0.1029-1.3764,0.2625c-0.6329,0.3654-1.0614,0.8081-0.9156,1.0607
									C31.229,38.1329,31.8267,37.9831,32.4595,37.6177z"/>
								<path d="M31.3733,38.0979C31.3733,38.0979,31.3733,38.0979,31.3733,38.0979c-0.224,0-0.3248-0.0933-0.3701-0.1716
									c-0.204-0.3535,0.3839-0.8602,0.9493-1.1866c0.4407-0.2544,0.8535-0.4003,1.1323-0.4003c0.2239,0,0.3248,0.0933,0.37,0.1716
									c0.2041,0.3535-0.3839,0.8602-0.9493,1.1866C32.065,37.9519,31.6523,38.0979,31.3733,38.0979z M33.085,36.5237
									c-0.2438,0-0.6327,0.1404-1.0402,0.3757c-0.6673,0.3853-0.9724,0.7779-0.8819,0.9349
									c0.0304,0.0526,0.1012,0.0794,0.2104,0.0794c0,0,0.0001,0,0.0001,0c0.2439,0,0.6327-0.1404,1.0401-0.3757
									c0.6674-0.3853,0.9724-0.7779,0.8818-0.9348C33.2649,36.5504,33.1941,36.5237,33.085,36.5237z"/>
							</g>
							<g>
								<path class="st4" d="M31.9987,36.1628c0.6329,0.3654,1.2305,0.5152,1.3764,0.2625
									c0.1459-0.2527-0.2826-0.6953-0.9155-1.0607c-0.6329-0.3654-1.2305-0.5152-1.3764-0.2626
									C30.9373,35.3547,31.3658,35.7974,31.9987,36.1628z"/>
								<path d="M33.085,36.643C33.085,36.643,33.085,36.643,33.085,36.643c-0.2789,0-0.6917-0.1459-1.1324-0.4003
									c-0.5654-0.3265-1.1533-0.8331-0.9493-1.1867c0.0452-0.0783,0.1461-0.1715,0.37-0.1715
									c0.2789,0,0.6916,0.1459,1.1324,0.4003c0.5654,0.3265,1.1533,0.8332,0.9493,1.1866
									C33.4097,36.5497,33.3088,36.643,33.085,36.643z M31.3733,35.0688c-0.1091,0-0.1799,0.0267-0.2103,0.0794
									c-0.0906,0.1569,0.2145,0.5495,0.8818,0.9348c0.4074,0.2352,0.7963,0.3757,1.0402,0.3757
									c0.1091,0,0.1799-0.0267,0.2103-0.0794c0.0906-0.1569-0.2145-0.5495-0.8818-0.9348
									C32.006,35.2092,31.6172,35.0688,31.3733,35.0688z"/>
							</g>
						</g>
						<g>
							<circle class="st1" cx="33.4891" cy="36.4912" r="0.5398"/>
							<path d="M33.4891,37.1232c-0.3485,0-0.632-0.2835-0.632-0.632c0-0.3485,0.2835-0.632,0.632-0.632s0.632,0.2835,0.632,0.632
								C34.1211,36.8396,33.8376,37.1232,33.4891,37.1232z M33.4891,36.0435c-0.2468,0-0.4477,0.2008-0.4477,0.4477
								s0.2008,0.4477,0.4477,0.4477s0.4477-0.2008,0.4477-0.4477S33.736,36.0435,33.4891,36.0435z"/>
						</g>
					</g>
				</g>
			</g>
		</g>
		<g>
			<g>
				<g>
					<path d="M14.2987,20.3159c0.1224-0.0357,0.316,0.1843,0.3424,0.8348c0.1053,0.0079,0.1448-0.2028,0.1711-0.4069
						c0.0998,0.1567,0.1682,0.3124,0.2109,0.4644c0.0695,0.2471-0.0332,0.8325,0.5198,0.1742
						c0.0735,0.245,0.1382,0.4213,0.0658,0.8822c0.0335-0.0099,0.3621-0.1119,0.4674-0.1053
						c0.0178,0.1172,0.0604,0.3378-0.1185,0.6583c-0.158,0.2831-0.3774,0.3291-0.3818,0.5662
						c-0.0066,0.3555,0.4213,0.711,0.5464,1.5339c0.0153,0.1004,0.3196,0.4552,0.6694,0.7614
						c0.4888,0.428,1.0666,0.8615,1.0686,1.2597c0.0012,0.2345-0.3094,0.6583-0.9151,0.6583c-0.0665,0-0.216,0.0059-0.3794-0.0548
						c-0.3587-0.1332-0.885-0.4364-1.4582-0.7617c-0.1695-0.0963-0.3408-0.1727-0.5094-0.2806
						c-0.222-0.1421-0.4394-0.2931-0.6418-0.45c-0.0008-0.0006-0.2352-0.0351-0.5099,0.0137
						c-0.0766,0.0136-0.2044,0.0473-0.2817,0.0804c-0.0773,0.0331-0.1041,0.0657-0.1893,0.077
						c-0.3056,0.0408-0.6526,0.0263-0.7966-0.0395c-0.1093-0.05-0.1475-0.1398-0.247-0.192
						c-0.1704-0.0894-0.3957-0.1372-0.5891-0.1372c-0.474,0-1.0517-0.1435-1.3496-0.6123
						c-0.4937-0.7768-0.2141-1.7003-0.1448-1.9487c-0.3162,0.448-0.4497,0.8647-0.4447,1.251
						c0.0101,0.7858,0.4644,1.751,1.2413,2.2382c0.4782,0.2999,0.9011,0.4968,1.457,0.5846
						c0.7155,0.113,1.5648,0.0876,2.1243,0.3173c0.4783,0.1964,0.7571,0.5333,0.6912,0.8097
						c0.3489,0.0329,0.711,0.5135,0.7242,0.8953c0.8953,0.3555,1.0797,0.6057,1.185,1.1126
						c0.2173,0.5398,0.9941,0.7834,1.0665,1.7577c0.039,0.0091,0.1186,0.0408,0.2161,0.1333
						c0.1705,0.1618,0.3955,0.4552,0.5521,0.7497c0.1021,0.1919,0.1803,0.3918,0.1903,0.598
						c0.0103,0.2133-0.0522,0.4334-0.2146,0.6586c0.1771,0.0278,0.3099,0.3835,0.3368,0.7782
						c0.0241,0.3535-0.0342,0.7382-0.2644,0.9466c0.0464,0.0206,0.1032,0.0755,0.159,0.1934
						c0.1366,0.2891,0.2624,0.9587,0.224,1.2048c-0.0398,0.2549-0.1637,0.352-0.4027,0.4715
						c0.316,0.1317,0.474,1.4615-0.0527,1.7643c0.4016,0.2962,0.3884,0.9348,0.0395,1.0863
						c0.1185,0.2831,0.237,0.8361-0.1251,1.2443c0.01,0.1974,0.0027,0.4024-0.036,0.6094
						c-0.1813,0.9706-0.9067,2.3737-1.8066,3.3019c-0.6128,0.632-1.3031,1.0582-1.9473,1.3159
						c-0.3366,0.1346-3.3531,1.2157-6.1883-0.4345c-1.2158-0.7076-2.3261-2.5719-2.3261-4.0641
						c0-0.0794,0.0527-2.0802,1.1752-3.2138c0.4969-0.5019,1.1612-0.6856,2.1955-0.7098c0.4429-0.0104,1.9574,0.1405,2.2471,1.2377
						c0.1131,0.4283-0.0198,0.9149-0.3094,1.1819c-0.2457,0.2265-0.6337,0.2803-0.7702,0.1611
						c-0.0271-0.0237-0.1317-0.158-0.0279-0.3868c0.0992-0.2187,0.3241-0.4443,0.221-0.6928
						c-0.1692-0.4078-0.9451-0.6583-1.2903-0.6583c-1.0709,0-1.7958,0.7566-2.0364,1.2816
						c-0.2054,0.4482-0.4311,1.391-0.1843,2.4753c0.3336,1.4659,1.3234,2.1016,1.5624,2.2559
						c1.0304,0.665,2.6482,0.7579,3.7042,0.6762c0.7701-0.0596,1.1674-0.2329,1.1851-0.2417
						c1.3569-0.6806,2.0047-2.1617,2.1067-2.3832c0.8646-1.8784,0.7084-3.4259,0.6408-3.871
						c-0.2502-1.6458-1.4593-2.7769-1.7248-3.081c-0.6934-0.7944-2.4581-1.9189-2.5675-1.9926
						c-0.035,0.0532-0.1572,0.3969-0.3092,0.7683c-0.1269,0.3101-0.2827,0.6317-0.3504,0.8948
						c-0.0398,0.1547-0.0584,0.2801-0.0426,0.3514c-0.1361-0.1141-0.3477-0.1335-0.5392-0.2873
						c-0.1158-0.0929-0.1346-0.2437-0.2512-0.3293c-0.0917-0.0673-0.1744-0.1119-0.2366-0.1119
						c-0.1097,0-0.5837,0.2809-0.8251,0.2809c0.0439-0.1448,0.1714-0.2918,0.1931-0.3885c0.0175-0.0777,0.002-0.1251,0-0.1733
						c-0.2326,0.2941-1.242,0.2985-1.3518,0.3248c0.4389-0.2282,0.4345-0.4301,0.4126-0.61
						c-0.1857,0.1626-0.4872,0.3599-1.2859,0.474c0.2414-0.2326,0.2535-0.5207,0.2414-0.7066
						c-0.2166,0.2233-0.8514,0.4484-1.2991,0.435c0.1799-0.1541,0.2897-0.4569,0.2085-0.6083
						c-0.3006,0.2655-1.0643,0.1207-1.1784,0.0922c0.1124-0.1598,0.3511-0.3928,0.3423-0.8361
						c-0.0415,0.024-0.4608,0.3555-1.3167,0.1712c0.4213-0.3028,0.7144-0.6741,0.5988-0.7987
						c-0.2301-0.248-0.9345,0.1404-1.1518-0.0439c0.2041-0.1185,0.4806-0.3357,0.5793-0.6188
						c-0.1975-0.0066-0.8427-0.0988-1.0402-0.1382c0.4937-0.2765,0.5841-0.4839,0.5003-0.6123
						c-0.079-0.1317-0.5925,0.0592-0.8492-0.237c0.1053-0.0592,0.3621-0.1053,0.5662-0.3555
						c-0.5464-0.395-0.0658-0.8032,0.1185-1.2838c-0.4872-0.2633-0.8194-1.2111-0.7373-1.5537
						c0.2897,0.2831,0.7814,0.485,0.869,0.5267c0.8163,0.3884,2.2742,0.6664,2.5805,0.3618
						c0.0651-0.0647,0.0262-0.1389,0.0331-0.1643c0.0202-0.0743,0.1387-0.1275,0.1317-0.2238
						c-0.0065-0.0887-0.2333-0.2677-0.4223-0.5372c-0.1635-0.2333-0.2492-0.5359-0.3721-0.6354
						c-0.1995-0.1616-0.5552-0.2165-0.7001-0.1638c-0.1392,0.0506-0.3599,0.1412-0.4962,0.2371
						c-0.1013,0.0712-0.1327,0.1562-0.1753,0.1645c-0.1053,0.0205-0.237-0.6583-0.1251-0.7637
						c0.1347-0.1268,0.3542-0.2039,0.5687-0.2437c0.141-0.0262,0.2776,0.0142,0.3804,0.008
						c0.1027-0.0062,0.1715-0.0589,0.1767-0.0606c-0.3028-0.0724-0.9743-0.2831-0.9612-0.4543
						c0.0162-0.2105,1.3759-0.0132,1.3693-0.0658c-0.0039-0.0313-0.0988-0.0826-0.2524-0.1246
						c-0.2263-0.0618-0.564-0.1197-0.8396-0.198c-0.2437-0.0693-0.3817-0.1627-0.4749-0.2173
						c0.6057-0.2897,1.3126-0.1583,1.3233-0.2962c0.0066-0.0856-0.8562-0.0876-1.1585-0.0763
						c-0.1797,0.0067-0.3379,0.1114-0.3951,0.0894c-0.0451-0.0173,0.0168-0.4455,0.0527-0.5135
						c0.0748-0.1418,0.6552-0.3385,1.1157-0.4552c0.309-0.0783,0.4709,0.0075,0.5762-0.111
						c-0.474-0.0198-0.8144-0.1891-0.9151-0.3687c0.0472-0.0315,0.1973-0.1668,0.3344-0.2172c0.1791-0.0658,0.5148,0,0.6334-0.0469
						c-0.3424-0.3613-1.0798-0.4929-2.0475-0.5061c0.0684-0.0926,0.379-0.561,0.7439-0.6452
						c0.5991-0.1382,2.0145,0.3358,2.0343-0.079c0.0092-0.1935-0.1712-0.5003-0.9019-1.2838
						c0.0607-0.0447,0.3349-0.1706,0.5758-0.1111c0.3164,0.0781,0.6824,0.2882,0.9327,0.3942
						c0.1608,0.0681,0.2738,0.0777,0.2953,0.0329c0.079-0.1646-0.1448-0.3292-0.1185-0.8624
						c0.1909,0.0461,0.6344,0.1134,0.6649,0.079c0.0395-0.1185-0.0775-0.4072-0.0922-0.5728c0.1401-0.0193,0.6161,0.0809,0.6188,0
						c0.0039-0.1161-0.4248-0.4736-0.8308-0.7858c-0.2845-0.2188-0.5578-0.4154-0.6636-0.4913
						c0.4612,0.0569,1.0782,0.117,1.264,0.1843c0.5722,0.2074,1.2182,0.7484,1.3167,0.6781
						c0.0461-0.0329-0.2107-0.4981-0.2107-0.632c0-0.0866,0.0929-0.1514,0.1712-0.1514c0.2699,0,0.5004,0.4179,0.6951,0.3512
						c0.141-0.0483-0.0268-0.3856,0.0061-0.5563c0.011-0.0569,0.1068-0.0935,0.1348-0.0911
						c0.1514,0.0132,0.281,0.3283,0.3967,0.3006c0.1563-0.0373,0.2748-0.801,0.4723-0.8141
						c0.1512-0.0101,0.079,0.5135,0.1975,0.5662c0.0673,0.0299,0.8624-0.7768,2.2252-0.7768c0.3977,0,0.7044,0.3193,0.7044,0.4213
						c0,0.1055-0.1448-0.0461-1.1455,0.4872c-0.5366,0.286-0.9612,0.7472-1.0007,1.0138c-0.0195,0.1313,0.6188,1.1126,0.9677,1.1126
						c0.2922,0,0.4801-0.5084,0.5712-0.9073C14.2618,20.5099,14.2489,20.3305,14.2987,20.3159z"/>
				</g>
				<g>
					<path class="st5" d="M10.9478,41.3431c-0.0627-0.0596-0.0283-0.2127,0.0504-0.3633c0.0865-0.1655,0.2105-0.2621,0.2105-0.4987
						c0-0.2177-0.2675-0.4323-0.5752-0.6364c-0.1417-0.094-0.3572-0.2397-0.6206-0.2923c-0.5786-0.1157-1.3232,0.0044-1.3298,0.1909
						c-0.1124-0.1269-0.4124,0.0179-0.6431,0.2143c-0.188,0.1601-0.3389,0.3544-0.2325,0.4638
						c-0.3884-0.0197-0.4661,0.2535-0.5529,0.5136c-0.0874,0.2617-0.1352,0.5204-0.0062,0.6003
						c-0.1912,0.029-0.2242,0.2393-0.2556,0.4761c-0.0313,0.2368-0.1334,0.4837,0.0707,0.5298
						c-0.1843,0.1053-0.1433,0.3053-0.1272,0.5466c0.0152,0.228,0.0461,0.4411,0.1996,0.4475
						c-0.1294,0.1167-0.0367,0.3665,0.0647,0.5893c0.1101,0.242,0.2401,0.452,0.3567,0.4246
						c-0.0658,0.2436,0.0888,0.4284,0.233,0.6217c0.1468,0.1969,0.241,0.379,0.4517,0.379
						c-0.0592,0.158,0.0558,0.2179,0.2079,0.3468c0.1915,0.1622,0.4241,0.3577,0.5821,0.2326
						c-0.0329,0.4674,1.379,0.7456,1.4023,0.7505c3.0349,0.6452,3.5982-0.0613,3.6472-0.1119
						c0.2172-0.0329,0.3279-0.0873,0.3884-0.1185c0.2105-0.1083,0.4392-0.2894,0.6721-0.5129
						c0.4655-0.4466,1.0005-1.0361,1.3886-1.5784c0.4561-0.6375,0.6141-0.8684,0.7439-1.2399
						c0.2897-0.8295,0.3121-2.4453,0.3121-2.7453c0-1.6673-0.3231-2.6164-0.6544-3.3497c-0.1164-0.2577-0.2338-0.5601-0.3386-0.7435
						c-0.1715-0.3004-0.3091-0.4936-0.3526-0.5547c-0.7145-1.0026-2.1462-2.4095-2.6663-2.6268
						c-0.1609-0.0672-0.2304,0.0132-0.3884-0.103c-0.1438-0.1057-0.0405-0.1983-0.2041-0.3052
						c-0.4937-0.3226-0.9194-0.2628-1.1913-0.5801c-0.4282-0.4996-1.0865-0.4996-1.5144-0.5852
						c-0.2304-0.5201-0.5118-0.4438-0.9874-0.8823C9.0259,30.6,8.8281,30.3003,8.6281,30.073
						c-0.139-0.158-0.3113-0.2811-0.3729-0.3257c-0.5596-0.4056-0.8756-0.3135-1.2969-0.7282
						c-0.3554-0.3498-0.3637-0.6259-0.5201-0.7571c-0.8163-0.6847-1.5108-0.0862-1.5734-0.0395
						c-0.0269-0.0473-0.0966-0.2633,0.0922-0.4345c0.2427-0.2202,0.9482-0.1136,1.2258-0.148
						c0.0775-0.0096,0.0731-0.1152,0.0751-0.1385c0.0202-0.2357-0.9585-0.284-1.02-0.4288
						c0.1843-0.0395,0.8295,0.1097,1.1016,0.0834c0.1335-0.0129,0.237-0.1536,0.2458-0.2414
						c0.0043-0.0428-0.0519-0.121-0.4152-0.2588c-0.4055-0.1538-0.8049-0.1713-0.7917-0.2266
						c0.2589-0.0544,0.5616-0.0483,0.7434-0.0911c0.1113-0.0262,0.1874-0.063,0.209-0.1213
						c0.0202-0.0674-0.0253-0.2247-0.183-0.3071c-0.2083-0.1089-0.573-0.1361-0.8528-0.1361c-0.2769,0-0.4433,0.0571-0.6013,0.0571
						c0.0582-0.1854,0.477-0.3359,0.9178-0.4324c0.2765-0.0606,0.5634-0.0892,0.7792-0.1535
						c0.2318-0.069,0.3816-0.2638,0.3482-0.3051c-0.0922-0.1141-0.5837,0.0527-1.0621-0.2326
						c0.9129-0.0176,0.8265-0.2497,0.8471-0.3555c0.0088-0.0452-0.0656-0.0901-0.1676-0.1688
						c-0.1058-0.0816-0.2652-0.202-0.4788-0.2843c-0.3027-0.1166-0.7141-0.1833-1.2364-0.1832
						c0.0191-0.0875,0.2156-0.2395,0.5793-0.2765c0.4323-0.044,0.7066,0.1404,1.4396,0.1404c0.4959,0,0.5423-0.1465,0.553-0.1668
						c0.1931-0.3643-0.7646-1.2371-0.6452-1.3781c0.0598-0.0706,0.319,0.0435,0.5938,0.2063c0.29,0.1718,0.5972,0.395,0.7053,0.395
						c0.1448,0,0.2458-0.3451,0.2458-0.4345c0-0.1448-0.1824-0.3978-0.0702-0.5354c0.0966-0.1185,0.4372,0.1046,0.5719,0.0106
						c0.1329-0.0928-0.0814-0.4892,0.0514-0.5724c0.1444-0.0905,0.379,0.0195,0.5623,0.044c0.1193,0.0159,0.232-0.0221,0.232-0.0747
						c0-0.1142-0.9875-1.0533-1.185-1.1499c0.2897-0.0834,1.573,0.8383,1.8346,0.8383c0.079,0,0.2633-0.1624,0.2633-0.2326
						c0-0.1229-0.3423-0.5442-0.2765-0.5969c0.0782-0.0626,0.4652,0.4257,0.6496,0.4257c0.2326,0,0.0509-0.608,0.1492-0.6496
						c0.1141-0.0483,0.1583,0.3899,0.3555,0.3293c0.1141-0.0351,0.1405-0.0592,0.1967-0.4315
						c0.0535-0.3542,0.1467-0.3893,0.1983-0.3893c0.1624,0,0.0219,0.4389,0.1361,0.4828c0.0315,0.0121,0.0912-0.0979,0.2532-0.2004
						c0.4154-0.2629,1.2243-0.7031,1.9064-0.689c0.2099,0.0043,0.4128,0.0542,0.5967,0.1696
						c-0.2753,0.1029-0.8051,0.2763-1.1236,0.5003c-0.6055,0.4259-0.9612,0.8997-0.9612,1.0533c0,0.237,0.5291,0.959,0.8769,1.2486
						c0.1183,0.0985,0.2296,0.1075,0.273,0.1075c0.2145,0,0.3983-0.1754,0.5135-0.3324c0.2125-0.2895,0.2546-0.6745,0.271-0.8965
						c0.1143,0,0.0845,0.6978,0.0625,1.1016c0.1009-0.1185,0.2458-0.2941,0.3731-0.4828c0.0459,0.127,0.0748,0.2475,0.0899,0.3607
						c0.0195,0.1457-0.0065,0.3415,0.1296,0.3941c0.1672,0.0647,0.3302-0.226,0.4345-0.3687
						c0.0307,0.1536-0.1712,0.847,0.0922,0.847c0.0982,0,0.1712-0.1229,0.3423-0.1229c-0.0376,0.2987-0.1857,0.4907-0.3228,0.6311
						c-0.1371,0.1404-0.2566,0.229-0.2566,0.4266c0,0.1887,0.079,0.0966,0.2984,0.6583c0.0511,0.1308,0.1236,0.2746,0.1751,0.4259
						c0.0321,0.0944,0.0477,0.1917,0.0863,0.2907c0.1061,0.2727,0.2829,0.6571,0.7477,1.0437
						c0.1805,0.1501,0.3779,0.2536,0.5533,0.3725c0.286,0.1939,0.5135,0.3851,0.5136,0.5619c0,0.1263-0.0862,0.2136-0.1715,0.3063
						c-0.1421,0.1546-0.3283,0.2774-0.4518,0.2774c-0.1339,0-0.3094-0.0961-0.4853-0.2229c-0.1368-0.0985-0.2738-0.242-0.392-0.3471
						c-0.1882-0.1673-0.3284-0.2776-0.3428-0.2596c-0.0181,0.0226,0.1161,0.1528,0.2405,0.3179
						c0.1175,0.156,0.2232,0.3423,0.1896,0.3667c-0.0966,0.0702-1.3562-0.7681-2.0277-1.2069
						c-0.3142-0.2053-0.8584-0.6452-1.3079-0.8515c-0.2609-0.1197-0.4784-0.2106-0.5179-0.4608
						c-0.054-0.3421,0.1647-0.7413,0.0088-0.813c-0.0329-0.0151-0.2568,0.1218-0.2568,0.4312c0,0.4872,0.4035,0.8009,0.8189,1.0409
						c0.2138,0.1236,0.4695,0.3257,0.5939,0.4124c-0.2931,0.0838-0.7874,0.2517-0.9783,0.2517c-0.3884,0-0.39-0.1659-0.9546-0.3423
						c-0.316-0.0988-0.5667-0.0542-0.822-0.1159c-0.329-0.0795-0.5796-0.2583-0.765-0.5763
						c-0.1273-0.2182-0.2036-0.4824-0.2036-0.8022c0-0.4221,0.1109-0.7335,0.2911-1.1449c0.1351-0.3086,0.2158-0.2574,0.6503-0.9947
						c-0.4411,0.4806-0.9941,0.8624-1.2698,1.2952C9.3258,23.7188,9.1506,24.12,9.1506,24.549c0,0.5904,0.4477,1.9552,1.5998,2.6136
						c1.1851,0.6772,3.0876,0.3555,3.8052,1.0204c0.0219,0.0203,0.149,0.184,0.0658,0.2699
						c-0.2041,0.2107-0.6199,0.464-1.0388,0.6594c-0.5797,0.2705-1.1403,0.3479-1.0942,0.4664
						c0.0121,0.0312,0.1514,0.0404,0.3429-0.004c0.3193-0.0741,0.7836-0.2502,1.0462-0.3778
						c0.2187-0.1063,0.3416-0.2056,0.5217-0.2949c0.5008-0.2485,0.9662-0.1945,0.9662,0.2818c0,0.0306-0.0132,0.3292-0.3863,0.5626
						c-0.5392,0.3374-1.3584,0.6872-1.332,0.7277c0.0305,0.0469,0.6382-0.1414,1.1553-0.3815
						c0.4437-0.2061,0.7802-0.4216,0.8395-0.4216c0.0119,0,0.3874,0.1672,0.6122,0.2502c0.0153,0.0056,0.3094,0.3094,0.3094,0.5333
						c0,0.0517-0.079,0.2897-0.4502,0.474c-0.303,0.1504-0.6796,0.2735-0.9682,0.3908c-0.1922,0.078-0.3453,0.1681-0.4118,0.2084
						c1.343-0.2173,1.7133-0.5333,1.975-0.5333c0.0781,0,0.2509,0.0459,0.4289,0.192c0.1659,0.1362,0.3232,0.3285,0.4255,0.5198
						c0.0907,0.1696,0.141,0.3384,0.0739,0.4666c-0.1338,0.2558-0.7234,0.3977-1.1708,0.5425
						c-0.265,0.0858-0.4802,0.2238-0.5211,0.2475c0.8295-0.0395,1.3233-0.4806,1.8236-0.4806c0.11,0,0.2111,0.0763,0.293,0.1851
						c0.0587,0.078,0.1011,0.1728,0.1593,0.2679c0.1805,0.2951,0.3667,0.5476,0.3667,0.8307c0,0.3593-0.427,0.6524-0.4371,0.6781
						c-0.0072,0.0182-0.9597,0.2971-0.9348,0.3884c0.0348,0.1277,0.6583-0.1119,1.0797-0.1119c0.0582,0,0.4213-0.0329,0.4872,0.4806
						c0.0495,0.386-0.1909,0.8097-0.395,0.8427c-0.2607,0.042-0.4344,0.0653-0.6612,0.1392
						c0.2399,0.032,0.6315,0.0642,0.8192,0.1768c0.2633,0.158,0.4937,1.1389,0.2765,1.3957
						c-0.1625,0.192-0.5003,0.0527-0.5591,0.2258c-0.004,0.038,0.2879,0.1121,0.3945,0.2943
						c0.323,0.5523,0.2039,1.2992-0.3682,1.4157c0.4735,0.2762,0.6776,1.0004,0.0785,1.0201
						c-0.0008,0.0162,0.0778-0.0176,0.1475,0.2146c0.0841,0.2803,0.1465,0.8398-0.0751,0.9272
						c-0.0467,0.0184-0.3136-0.032-0.3416,0.0499c-0.027,0.0789,0.1776,0.0283,0.2166,0.1711
						c0.158,0.5793-0.5283,2.0828-0.7834,2.5477c-0.0907,0.1654-0.7176,1.5208-2.5017,2.3503
						c-0.2441,0.1135-1.2837,0.553-2.8111,0.553c-0.0096,0-1.3142,0.0197-1.9723-0.1364c-0.8125-0.1928-1.6494-0.5616-2.4188-1.3119
						c-0.06-0.0585-1.3298-1.264-1.3298-3.3575c0-0.4825,0.1514-2.4161,1.264-3.1666c0.0211-0.0142,0.6386-0.4674,2.1659-0.4806
						c0.4806,0,1.0295,0.2583,1.3951,0.6577c0.2003,0.2188,0.3824,0.48,0.3824,0.7643
						C11.7049,41.0073,11.0932,41.4537,10.9478,41.3431"/>
				</g>
				<g>
					<g>
						<path d="M14.0486,24.5437c-0.3594,0-0.6517-0.2924-0.6517-0.6518s0.2924-0.6517,0.6517-0.6517
							c0.3594,0,0.6518,0.2924,0.6518,0.6517S14.408,24.5437,14.0486,24.5437z M14.0486,23.4246
							c-0.2577,0-0.4674,0.2097-0.4674,0.4674s0.2097,0.4674,0.4674,0.4674s0.4674-0.2097,0.4674-0.4674
							S14.3063,23.4246,14.0486,23.4246z"/>
					</g>
					<g>
						<path d="M14.2406,23.4653c-0.0092-0.0054-0.9329-0.5339-1.6765-0.2154l-0.0725-0.1695
							c0.8297-0.3552,1.801,0.2018,1.842,0.2256L14.2406,23.4653z"/>
					</g>
					<g>
						<ellipse cx="14.0486" cy="23.9071" rx="0.1712" ry="0.2403"/>
					</g>
				</g>
				<g>
					<path class="st5" d="M8.0183,31.8236c0.0074,0.0477,0.1777,0.3884,0.553,0.7439c0.1401,0.1327,0.4039,0.3201,0.6272,0.4177
						c0.157,0.0686,0.294,0.0529,0.3538,0.1155c0.075,0.0785,0.0899,0.1926,0.1317,0.2436
						c0.2963,0.3621,2.3858,1.3298,2.4424,1.4088c0.0174,0.0218-0.0733,0.3189-0.1902,0.6191
						c-0.1794,0.4605-0.4207,0.9993-0.4286,1.1189c-0.3244,0.1272-0.5398-0.7439-0.7308-0.7637
						c-0.0493,0.0033-0.1023,0.1427-0.2225,0.237c-0.1205,0.0946-0.3084,0.1442-0.4161,0.1777
						c0.1185-0.2107,0.0395-0.4147,0.1278-0.7814c0.016-0.0664,0.0574-0.1694,0.0302-0.1863
						c-0.118-0.0735-0.2502,0.6517-1.0072,0.7439c0.003-0.0493,0.0114-0.1264,0.0218-0.2162
						c0.0158-0.1359-0.0032-0.3009,0.0102-0.4428c0.0168-0.1776,0.0621-0.3191,0.0338-0.3219
						c-0.0893,0.0068-0.237,0.6386-1.1323,0.7904c0.0988-0.3427,0.2266-1.0418,0.2173-1.0472
						c-0.0295-0.0168-0.1249,0.0572-0.2558,0.167c-0.1228,0.103-0.2504,0.2639-0.4102,0.3844
						c-0.2026,0.1527-0.441,0.2565-0.6112,0.2715c0.0461-0.2238,0.3226-1.0007,0.2238-1.0863
						c-0.3489,0.1119-0.3572,0.4678-0.6912,0.6434c-0.1505,0.0791-0.4206,0.0224-0.4872-0.0114
						c0.3094-0.632,0.2207-1.0423,0.2041-1.1455c-0.474,0.237-0.395,0.6386-1.1587,0.553c0.3028-0.2173,0.3094-0.553,0.6912-0.9546
						c-0.6583-0.0856-0.8427,0.1712-1.0204-0.0461c-0.0689-0.0842,0.1744-0.4219,0.2666-0.6343
						c0.0475-0.1093,0.008-0.1866-0.0296-0.182c-0.3461,0.0424-0.474,0.2502-0.8361,0.169c0.058-0.0637,0.1466-0.1668,0.2366-0.2799
						c0.0563-0.0708,0.0868-0.1717,0.137-0.243c0.1155-0.164,0.2221-0.284,0.1793-0.3242c-0.068-0.064-0.5003,0.3358-0.9809,0.158
						c-0.0409-0.0151,0.1515-0.0741,0.2967-0.1638c0.1468-0.0907,0.2563-0.1851,0.2234-0.2444
						c-0.0851-0.1532-0.4696-0.1383-0.4696-0.3862c0-0.1448,0.0959-0.2565,0.1932-0.4269c0.105-0.184,0.2146-0.4235,0.2896-0.4772
						c-0.3752-0.1053-0.7373-0.4806-0.7768-1.027c0.9019,0.6254,2.2774,0.8163,2.5609,0.8163c0.0889,0,0.1798,0.0348,0.2713,0.052
						c0.2268,0.0425,0.4571,0.1114,0.6682,0.2604c0.2131,0.1504,0.4067,0.3681,0.5576,0.5818
						C7.8687,31.3273,7.9796,31.5739,8.0183,31.8236z"/>
				</g>
				<g>
					<path class="st5" d="M9.0343,30.8866c-0.0632,0.1106-0.174,0.2492-0.3001,0.3758c-0.1347,0.1182-0.3144,0.2211-0.5601,0.3528
						c-0.0225-0.0661-0.0561-0.155-0.103-0.2564c-0.0759-0.1641-0.213-0.3477-0.3677-0.5328
						c-0.048-0.0574-0.0739-0.1269-0.1306-0.1808c-0.1582-0.1502-0.2977-0.2188-0.4113-0.2832
						c-0.1984-0.1126-0.3173-0.1585-0.3173-0.2171c0-0.0687,0.0685-0.1559,0.1887-0.2941c0.0114-0.0131-0.0221-0.0838,0.0034-0.1367
						c0.0492-0.1023,0.2003-0.1981,0.26-0.21c0.0349-0.007,0.1076,0.0186,0.2063,0.0483c0.2117,0.0636,0.5425,0.2091,0.8734,0.5355
						C8.6596,30.3676,8.9687,30.7909,9.0343,30.8866z"/>
				</g>
				<g>
					<path class="st5" d="M10.1491,31.8214c-0.0878,0.1931-0.2458,0.4492-0.4333,0.6649c-0.1298,0.1493-0.2041,0.3151-0.2626,0.3402
						c-0.1147,0-0.3163-0.0922-0.4764-0.2131c-0.1564-0.1181-0.2719-0.2643-0.3287-0.3183
						c-0.1994-0.1895-0.3378-0.1972-0.3861-0.4825c0.0885-0.1328,0.2836-0.1746,0.4563-0.3061
						c0.1556-0.1186,0.275-0.2766,0.3735-0.3787c0.0414-0.0429,0.1008-0.076,0.1227-0.092
						c0.3423,0.2589,0.5205,0.2391,0.7058,0.4579C10.039,31.6343,10.1044,31.7665,10.1491,31.8214z"/>
				</g>
				<g>
					<path class="st5" d="M11.6369,32.4929c-0.1009,0.2853-0.1311,0.7098-0.2548,1.0781c-0.071,0.2114-0.1396,0.3829-0.1797,0.4405
						c-0.1838-0.085-0.7317-0.3432-1.0969-0.6214c-0.2192-0.1669-0.3558-0.3409-0.3558-0.489
						c0.0311-0.0762,0.0707-0.2022,0.1476-0.3394c0.0525-0.0937,0.1139-0.1399,0.1739-0.232
						c0.0565-0.0867,0.0986-0.1842,0.144-0.2631c0.0348-0.0606,0.077-0.1102,0.0962-0.1356
						C10.6035,31.9311,11.6369,32.1463,11.6369,32.4929z"/>
				</g>
				<g>
					<path class="st5" d="M12.9711,33.2917c-0.1398,0.1388-0.2569,0.2085-0.3157,0.3564c-0.1018,0.2561-0.0898,0.5327-0.0827,0.7493
						c0.006,0.1846,0.0056,0.3256-0.0405,0.3733c-0.0636-0.0295-0.1559-0.0601-0.2603-0.127
						c-0.13-0.0833-0.2786-0.2085-0.4135-0.289c-0.1348-0.0805-0.2559-0.1136-0.331-0.1591
						c-0.0497-0.0302-0.0793-0.0806-0.0793-0.1007c0-0.0599,0.1157-0.2931,0.1931-0.577c0.051-0.1872,0.06-0.3907,0.0973-0.5548
						c0.0429-0.1887,0.1114-0.3254,0.1265-0.3254c0.1342,0,0.2765,0.1095,0.4132,0.1607c0.1655,0.062,0.3227,0.1172,0.4477,0.2021
						C12.8418,33.0791,12.9299,33.1854,12.9711,33.2917z"/>
				</g>
				<g>
					<path class="st5" d="M14.7486,34.5469c-0.1712,0.0702-0.3555,0.1668-0.5223,0.3687c-0.0688,0.0833-0.1278,0.1803-0.177,0.3023
						c-0.0762,0.1892-0.1285,0.4017-0.1566,0.4307c-0.0636-0.0295-0.4369-0.2837-0.5413-0.3506
						c-0.13-0.0833-0.1884-0.1648-0.3584-0.2902c-0.1264-0.0932-0.2151-0.1422-0.2151-0.1624c0-0.0275,0.0231-0.1919,0.0232-0.3774
						c0.0002-0.2177-0.0214-0.4644-0.0012-0.553c0.0429-0.1887,0.3416-0.4756,0.3555-0.4696
						c0.1229,0.0527,0.2627,0.0586,0.3994,0.1098c0.1655,0.062,0.3271,0.2355,0.4521,0.3204
						C14.1227,33.954,14.7074,34.4406,14.7486,34.5469z"/>
				</g>
				<g>
					<path class="st5" d="M15.9775,35.9206c-0.1317,0.0966-0.3939,0.2198-0.4959,0.3028c-0.2589,0.2107-0.4284,0.3748-0.4564,0.4038
						c-0.0636-0.0295-0.3359-0.3493-0.5155-0.5199c-0.1138-0.1081-0.4017-0.329-0.4017-0.3491
						c0.0702-0.1317,0.1448-0.5354,0.3336-0.7724c0.1102-0.1384,0.3591-0.2825,0.3731-0.2765
						c0.0614,0.0263,0.135,0.0722,0.2096,0.1386c0.0746,0.0664,0.1503,0.1533,0.2161,0.2301
						c0.0344,0.0401,0.1106,0.0959,0.2016,0.1941C15.6547,35.5019,15.9486,35.8462,15.9775,35.9206z"/>
				</g>
				<g>
					<path class="st5" d="M16.6139,36.9871c-0.0627,0.046-0.222,0.0994-0.4024,0.201c-0.1985,0.1118-0.4168,0.271-0.4315,0.2862
						c-0.019-0.0088-0.0791-0.1011-0.154-0.1897c-0.1761-0.2083-0.4341-0.5159-0.4341-0.53
						c0.079-0.0483,0.1712-0.1668,0.4433-0.3292c0.1957-0.1168,0.403-0.2825,0.4169-0.2765
						c0.0614,0.0263,0.2167,0.223,0.2853,0.3379C16.4866,36.737,16.585,36.9127,16.6139,36.9871z"/>
				</g>
				<g>
					<path class="st5" d="M17.0525,38.0229c-0.4079,0.1273-0.7048,0.3447-0.7195,0.3599c-0.0108-0.005-0.1576-0.2577-0.2827-0.4553
						c-0.0954-0.1507-0.1781-0.2583-0.1781-0.2645c0.079-0.0483,0.1698-0.1691,0.4433-0.3292
						c0.0338-0.0198,0.1779-0.0878,0.3599-0.1624c0.0613,0.0739,0.1114,0.2055,0.1799,0.3204
						C17.0045,37.742,17.0236,37.9484,17.0525,38.0229z"/>
				</g>
				<g>
					<path class="st5" d="M17.4083,39.8355c-0.3028,0.0088-0.5471,0.1121-0.5618,0.1273c-0.0108-0.005-0.0927-0.5244-0.1843-0.7724
						c-0.0618-0.1673-0.2853-0.6742-0.2853-0.6803c0.079-0.0483,0.4853-0.2502,0.7066-0.3028
						c0.0613,0.0739,0.1728,0.5102,0.2019,0.6408C17.386,39.2995,17.4083,39.7214,17.4083,39.8355z"/>
				</g>
				<g>
					<path class="st5" d="M17.2942,42.2845c-0.1799-0.0702-0.5339-0.081-0.5486-0.0658c-0.0108-0.005,0.1097-0.3423,0.147-1.106
						c0.0087-0.1782-0.0285-0.9507-0.0285-0.9568c0.079-0.0483,0.316-0.136,0.5442-0.136c0,0.1975,0.006,0.8319,0,0.9655
						C17.3819,41.5735,17.3381,42.0651,17.2942,42.2845z"/>
				</g>
				<g>
					<path class="st5" d="M15.78,45.2207c-0.1127-0.0636-0.2077-0.1746-0.2633-0.2151c-0.0108-0.005,0.3644-0.4738,0.6847-1.1236
						c0.3028-0.6144,0.4959-1.4466,0.4959-1.4527c0.1492,0.0088,0.3467,0,0.5749,0c-0.0439,0.4038-0.2586,0.9875-0.3116,1.1104
						C16.6973,44.1498,15.9556,45.0451,15.78,45.2207z"/>
				</g>
				<g>
					<path class="st5" d="M14.1868,46.5856c-0.0669-0.0517-0.1555-0.1853-0.1931-0.2765c0.7812-0.2326,1.4264-1.17,1.4264-1.1762
						c0.0439,0.0351,0.1931,0.1404,0.259,0.2018C15.3982,45.642,14.7881,46.3355,14.1868,46.5856z"/>
				</g>
				<g>
					<path class="st5" d="M11.7025,46.9324c-0.0144-0.0559-0.0094-0.2266,0.0002-0.3248c1.3123,0.0571,2.0862-0.2096,2.0891-0.215
						c0.0222,0.0516,0.1046,0.2146,0.1339,0.2998C13.4758,47.0377,12.3508,46.9938,11.7025,46.9324z"/>
				</g>
				<g>
					<path class="st5" d="M9.2274,46.22c-0.0197-0.0542,0.0395-0.1918,0.1009-0.1918c0.7695,0.4167,2.1784,0.5452,2.1813,0.5398
						c0.0222,0.0516,0.0044,0.2414-0.0263,0.3467c-0.3961-0.0695-1.3086-0.1901-1.8856-0.4544
						C9.4458,46.3908,9.2581,46.3047,9.2274,46.22z"/>
				</g>
				<g>
					<path class="st5" d="M8.3347,45.6133c-0.0019-0.0577,0.084-0.166,0.1289-0.1775c0.2436,0.2427,0.5331,0.3878,0.6541,0.4828
						c-0.0044,0.0527-0.1006,0.1442-0.1886,0.1445c-0.0879,0.0003-0.1801-0.0348-0.3469-0.1753
						C8.4544,45.7802,8.3377,45.7033,8.3347,45.6133z"/>
				</g>
				<g>
					<path class="st5" d="M7.6448,44.6488c0-0.0577,0.0322-0.1189,0.0772-0.1304c0.2238,0.3687,0.4767,0.7013,0.5977,0.7962
						c-0.0044,0.0527-0.0577,0.1181-0.1456,0.1184c-0.0879,0.0003-0.2151-0.2168-0.3423-0.4055
						C7.7383,44.8891,7.6448,44.7862,7.6448,44.6488z"/>
				</g>
				<g>
					<path class="st5" d="M7.1602,43.7241c0-0.0577,0.0717-0.1496,0.1167-0.1611c0.0257,0,0.0496,0.0075,0.0719,0.0212
						c0.0545,0.0333,0.0467,0.1029,0.0848,0.1877c0.0832,0.1852,0.1861,0.4424,0.2314,0.5492c0,0.1009-0.013,0.1314-0.1009,0.1317
						c-0.0879,0.0003-0.136-0.1468-0.2502-0.3423C7.2296,43.966,7.1602,43.8614,7.1602,43.7241z"/>
				</g>
				<g>
					<path class="st5" d="M7.0299,42.693c0.0142-0.0559,0.1276-0.0779,0.1739-0.075c0.0244,0.0079,0.0448,0.0225,0.0618,0.0424
						c0.0415,0.0485,0.0126,0.1124,0.0226,0.2046c0.0218,0.2018,0.0402,0.3968,0.0504,0.5124
						c-0.0511,0.136-0.2223,0.0775-0.2705-0.0044c-0.0446-0.0758-0.0148-0.1595-0.0307-0.2589
						C7.0109,42.9491,7.0066,42.7849,7.0299,42.693z"/>
				</g>
				<g>
					<path class="st5" d="M7.1767,41.692c0.0261-0.0337,0.1262-0.0746,0.1514,0.0263c0.0253,0.1009-0.0243,0.2503-0.0362,0.3423
						c-0.0176,0.136,0.0006,0.2593-0.0568,0.3579c-0.0574,0.0985-0.1327,0.0269-0.1809-0.0551
						c-0.0446-0.0758,0.0137-0.2114,0.0226-0.3116C7.0916,41.8873,7.1506,41.7257,7.1767,41.692z"/>
				</g>
				<g>
					<path class="st5" d="M7.5728,40.5723c0.0355-0.0235,0.1459-0.096,0.1712,0.005c0.0253,0.1009-0.1712,0.3601-0.2019,0.4477
						c-0.0614,0.1756-0.0834,0.2151-0.1141,0.3599c-0.0237,0.1115-0.0886,0.1119-0.1376,0.0304
						c-0.0686-0.1138,0.0104-0.3069,0.0718-0.4649C7.422,40.7962,7.4192,40.6738,7.5728,40.5723z"/>
				</g>
				<g>
					<path class="st5" d="M8.3946,39.8433c0.0418-0.0085,0.2065-0.1021,0.1921,0.0009c-0.0144,0.103-0.2372,0.1848-0.2984,0.2546
						c-0.1227,0.1397-0.1982,0.1868-0.2589,0.2107c-0.0424,0.0167-0.1326,0.0313-0.1317-0.022
						c0.0014-0.0797,0.1149-0.1709,0.2445-0.2707C8.2286,39.9503,8.3223,39.858,8.3946,39.8433z"/>
				</g>
			</g>
			<g>
				<g>
					<path d="M45.7012,20.3159c-0.1224-0.0357-0.316,0.1843-0.3424,0.8348c-0.1053,0.0079-0.1448-0.2028-0.1711-0.4069
						c-0.0998,0.1567-0.1682,0.3124-0.2109,0.4644c-0.0695,0.2471,0.0332,0.8325-0.5198,0.1742
						c-0.0735,0.245-0.1383,0.4213-0.0658,0.8822c-0.0335-0.0099-0.3621-0.1119-0.4674-0.1053
						c-0.0178,0.1172-0.0604,0.3378,0.1185,0.6583c0.158,0.2831,0.3775,0.3291,0.3818,0.5662
						c0.0066,0.3555-0.4213,0.711-0.5464,1.5339c-0.0153,0.1004-0.3195,0.4552-0.6694,0.7614
						c-0.4888,0.428-1.0666,0.8615-1.0686,1.2597c-0.0012,0.2345,0.3094,0.6583,0.9151,0.6583c0.0665,0,0.216,0.0059,0.3794-0.0548
						c0.3587-0.1332,0.885-0.4364,1.4582-0.7617c0.1695-0.0963,0.3408-0.1727,0.5094-0.2806c0.222-0.1421,0.4394-0.2931,0.6418-0.45
						c0.0008-0.0006,0.2352-0.0351,0.5099,0.0137c0.0766,0.0136,0.2044,0.0473,0.2817,0.0804
						c0.0773,0.0331,0.1041,0.0657,0.1893,0.077c0.3056,0.0408,0.6526,0.0263,0.7966-0.0395c0.1093-0.05,0.1475-0.1398,0.247-0.192
						c0.1704-0.0894,0.3957-0.1372,0.5891-0.1372c0.474,0,1.0517-0.1435,1.3496-0.6123c0.4938-0.7768,0.2141-1.7003,0.1448-1.9487
						c0.3162,0.448,0.4497,0.8647,0.4447,1.251c-0.0101,0.7858-0.4644,1.751-1.2413,2.2382
						c-0.4782,0.2999-0.9011,0.4968-1.457,0.5846c-0.7155,0.113-1.5648,0.0876-2.1243,0.3173
						c-0.4783,0.1964-0.7571,0.5333-0.6912,0.8097c-0.3489,0.0329-0.711,0.5135-0.7242,0.8953
						c-0.8953,0.3555-1.0797,0.6057-1.185,1.1126c-0.2172,0.5398-0.9941,0.7834-1.0665,1.7577
						c-0.039,0.0091-0.1186,0.0408-0.2161,0.1333c-0.1705,0.1618-0.3955,0.4552-0.5522,0.7497
						c-0.1021,0.1919-0.1803,0.3918-0.1903,0.598c-0.0103,0.2133,0.0522,0.4334,0.2146,0.6586
						c-0.1771,0.0278-0.3099,0.3835-0.3368,0.7782c-0.0241,0.3535,0.0342,0.7382,0.2644,0.9466
						c-0.0464,0.0206-0.1032,0.0755-0.159,0.1934c-0.1366,0.2891-0.2624,0.9587-0.224,1.2048
						c0.0398,0.2549,0.1637,0.352,0.4027,0.4715c-0.316,0.1317-0.474,1.4615,0.0527,1.7643
						c-0.4016,0.2962-0.3884,0.9348-0.0395,1.0863c-0.1185,0.2831-0.237,0.8361,0.1251,1.2443
						c-0.01,0.1974-0.0027,0.4024,0.0359,0.6094c0.1813,0.9706,0.9067,2.3737,1.8066,3.3019
						c0.6128,0.632,1.3031,1.0582,1.9473,1.3159c0.3366,0.1346,3.3531,1.2157,6.1883-0.4345
						c1.2158-0.7076,2.3261-2.5719,2.3261-4.0641c0-0.0794-0.0527-2.0802-1.1752-3.2138c-0.4969-0.5019-1.1612-0.6856-2.1955-0.7098
						c-0.4429-0.0104-1.9574,0.1405-2.2471,1.2377c-0.1131,0.4283,0.0198,0.9149,0.3094,1.1819
						c0.2457,0.2265,0.6338,0.2803,0.7702,0.1611c0.0271-0.0237,0.1316-0.158,0.0279-0.3868
						c-0.0992-0.2187-0.3241-0.4443-0.221-0.6928c0.1692-0.4078,0.9451-0.6583,1.2903-0.6583c1.0709,0,1.7958,0.7566,2.0364,1.2816
						c0.2054,0.4482,0.4311,1.391,0.1843,2.4753c-0.3336,1.4659-1.3234,2.1016-1.5624,2.2559
						c-1.0304,0.665-2.6482,0.7579-3.7042,0.6762c-0.7701-0.0596-1.1674-0.2329-1.1851-0.2417
						c-1.3569-0.6806-2.0047-2.1617-2.1067-2.3832c-0.8646-1.8784-0.7084-3.4259-0.6407-3.871
						c0.2502-1.6458,1.4593-2.7769,1.7248-3.081c0.6934-0.7944,2.4581-1.9189,2.5675-1.9926
						c0.035,0.0532,0.1572,0.3969,0.3092,0.7683c0.1269,0.3101,0.2826,0.6317,0.3504,0.8948
						c0.0398,0.1547,0.0584,0.2801,0.0426,0.3514c0.136-0.1141,0.3477-0.1335,0.5392-0.2873
						c0.1158-0.0929,0.1346-0.2437,0.2512-0.3293c0.0917-0.0673,0.1744-0.1119,0.2366-0.1119c0.1097,0,0.5837,0.2809,0.8251,0.2809
						c-0.0439-0.1448-0.1714-0.2918-0.1931-0.3885c-0.0175-0.0777-0.002-0.1251,0-0.1733c0.2326,0.2941,1.242,0.2985,1.3518,0.3248
						c-0.4389-0.2282-0.4345-0.4301-0.4126-0.61c0.1857,0.1626,0.4872,0.3599,1.286,0.474
						c-0.2414-0.2326-0.2535-0.5207-0.2414-0.7066c0.2166,0.2233,0.8514,0.4484,1.2991,0.435
						c-0.1799-0.1541-0.2897-0.4569-0.2085-0.6083c0.3006,0.2655,1.0643,0.1207,1.1784,0.0922
						c-0.1124-0.1598-0.3511-0.3928-0.3423-0.8361c0.0415,0.024,0.4608,0.3555,1.3167,0.1712
						c-0.4213-0.3028-0.7144-0.6741-0.5988-0.7987c0.2301-0.248,0.9345,0.1404,1.1518-0.0439
						c-0.2041-0.1185-0.4806-0.3357-0.5793-0.6188c0.1975-0.0066,0.8427-0.0988,1.0402-0.1382
						c-0.4938-0.2765-0.5841-0.4839-0.5003-0.6123c0.079-0.1317,0.5925,0.0592,0.8493-0.237
						c-0.1053-0.0592-0.3621-0.1053-0.5662-0.3555c0.5464-0.395,0.0658-0.8032-0.1185-1.2838
						c0.4872-0.2633,0.8194-1.2111,0.7373-1.5537c-0.2897,0.2831-0.7814,0.485-0.869,0.5267
						c-0.8163,0.3884-2.2742,0.6664-2.5805,0.3618c-0.0651-0.0647-0.0262-0.1389-0.0331-0.1643
						c-0.0202-0.0743-0.1387-0.1275-0.1317-0.2238c0.0065-0.0887,0.2333-0.2677,0.4223-0.5372
						c0.1636-0.2333,0.2492-0.5359,0.3721-0.6354c0.1995-0.1616,0.5552-0.2165,0.7001-0.1638
						c0.1392,0.0506,0.3599,0.1412,0.4962,0.2371c0.1013,0.0712,0.1327,0.1562,0.1753,0.1645
						c0.1053,0.0205,0.237-0.6583,0.1251-0.7637c-0.1347-0.1268-0.3542-0.2039-0.5687-0.2437
						c-0.141-0.0262-0.2776,0.0142-0.3804,0.008c-0.1027-0.0062-0.1715-0.0589-0.1767-0.0606
						c0.3028-0.0724,0.9743-0.2831,0.9612-0.4543c-0.0162-0.2105-1.3759-0.0132-1.3693-0.0658
						c0.0039-0.0313,0.0988-0.0826,0.2524-0.1246c0.2263-0.0618,0.564-0.1197,0.8396-0.198
						c0.2437-0.0693,0.3817-0.1627,0.4749-0.2173c-0.6057-0.2897-1.3127-0.1583-1.3232-0.2962
						c-0.0066-0.0856,0.8562-0.0876,1.1585-0.0763c0.1797,0.0067,0.3379,0.1114,0.3951,0.0894
						c0.0452-0.0173-0.0168-0.4455-0.0527-0.5135c-0.0748-0.1418-0.6552-0.3385-1.1157-0.4552
						c-0.309-0.0783-0.4709,0.0075-0.5762-0.111c0.474-0.0198,0.8144-0.1891,0.9151-0.3687
						c-0.0472-0.0315-0.1973-0.1668-0.3344-0.2172c-0.1791-0.0658-0.5148,0-0.6334-0.0469
						c0.3424-0.3613,1.0798-0.4929,2.0475-0.5061c-0.0685-0.0926-0.3791-0.561-0.7439-0.6452
						c-0.5991-0.1382-2.0145,0.3358-2.0342-0.079c-0.0092-0.1935,0.1712-0.5003,0.9019-1.2838
						c-0.0607-0.0447-0.3349-0.1706-0.5758-0.1111c-0.3164,0.0781-0.6824,0.2882-0.9327,0.3942
						c-0.1608,0.0681-0.2738,0.0777-0.2953,0.0329c-0.079-0.1646,0.1448-0.3292,0.1185-0.8624
						c-0.1909,0.0461-0.6344,0.1134-0.6649,0.079c-0.0395-0.1185,0.0775-0.4072,0.0922-0.5728
						c-0.1401-0.0193-0.6162,0.0809-0.6188,0c-0.0039-0.1161,0.4248-0.4736,0.8308-0.7858
						c0.2845-0.2188,0.5578-0.4154,0.6636-0.4913c-0.4612,0.0569-1.0782,0.117-1.264,0.1843
						c-0.5722,0.2074-1.2182,0.7484-1.3167,0.6781c-0.0461-0.0329,0.2107-0.4981,0.2107-0.632c0-0.0866-0.0929-0.1514-0.1712-0.1514
						c-0.2699,0-0.5004,0.4179-0.6951,0.3512c-0.1409-0.0483,0.0268-0.3856-0.0061-0.5563
						c-0.011-0.0569-0.1068-0.0935-0.1348-0.0911c-0.1514,0.0132-0.281,0.3283-0.3967,0.3006
						c-0.1563-0.0373-0.2748-0.801-0.4723-0.8141c-0.1512-0.0101-0.079,0.5135-0.1975,0.5662
						c-0.0673,0.0299-0.8624-0.7768-2.2252-0.7768c-0.3977,0-0.7044,0.3193-0.7044,0.4213c0,0.1055,0.1448-0.0461,1.1455,0.4872
						c0.5366,0.286,0.9612,0.7472,1.0007,1.0138c0.0195,0.1313-0.6188,1.1126-0.9678,1.1126c-0.2922,0-0.4801-0.5084-0.5713-0.9073
						C45.7382,20.5099,45.7511,20.3305,45.7012,20.3159z"/>
				</g>
				<g>
					<path class="st5" d="M49.0522,41.3431c0.0627-0.0596,0.0283-0.2127-0.0504-0.3633c-0.0865-0.1655-0.2105-0.2621-0.2105-0.4987
						c0-0.2177,0.2675-0.4323,0.5752-0.6364c0.1417-0.094,0.3572-0.2397,0.6206-0.2923c0.5786-0.1157,1.3232,0.0044,1.3298,0.1909
						c0.1124-0.1269,0.4124,0.0179,0.6431,0.2143c0.188,0.1601,0.3389,0.3544,0.2325,0.4638
						c0.3884-0.0197,0.4661,0.2535,0.5529,0.5136c0.0874,0.2617,0.1352,0.5204,0.0062,0.6003
						c0.1912,0.029,0.2242,0.2393,0.2556,0.4761c0.0313,0.2368,0.1334,0.4837-0.0707,0.5298
						c0.1843,0.1053,0.1433,0.3053,0.1272,0.5466c-0.0152,0.228-0.0461,0.4411-0.1996,0.4475
						c0.1293,0.1167,0.0367,0.3665-0.0647,0.5893c-0.1101,0.242-0.2401,0.452-0.3567,0.4246
						c0.0658,0.2436-0.0888,0.4284-0.233,0.6217c-0.1468,0.1969-0.241,0.379-0.4517,0.379c0.0592,0.158-0.0558,0.2179-0.2079,0.3468
						c-0.1915,0.1622-0.4241,0.3577-0.5821,0.2326c0.0329,0.4674-1.379,0.7456-1.4023,0.7505
						c-3.0349,0.6452-3.5982-0.0613-3.6472-0.1119c-0.2173-0.0329-0.3279-0.0873-0.3884-0.1185
						c-0.2105-0.1083-0.4392-0.2894-0.6721-0.5129c-0.4655-0.4466-1.0005-1.0361-1.3885-1.5784
						c-0.4561-0.6375-0.6141-0.8684-0.7439-1.2399c-0.2897-0.8295-0.312-2.4453-0.312-2.7453c0-1.6673,0.3231-2.6164,0.6544-3.3497
						c0.1164-0.2577,0.2338-0.5601,0.3386-0.7435c0.1715-0.3004,0.3091-0.4936,0.3526-0.5547
						c0.7146-1.0026,2.1462-2.4095,2.6662-2.6268c0.1609-0.0672,0.2304,0.0132,0.3884-0.103
						c0.1438-0.1057,0.0405-0.1983,0.2041-0.3052c0.4937-0.3226,0.9194-0.2628,1.1913-0.5801
						c0.4282-0.4996,1.0865-0.4996,1.5145-0.5852c0.2304-0.5201,0.5118-0.4438,0.9874-0.8823
						c0.263-0.2425,0.4608-0.5422,0.6608-0.7695c0.139-0.158,0.3113-0.2811,0.3729-0.3257
						c0.5596-0.4056,0.8756-0.3135,1.2969-0.7282c0.3553-0.3498,0.3637-0.6259,0.5201-0.7571
						c0.8163-0.6847,1.5108-0.0862,1.5734-0.0395c0.0269-0.0473,0.0965-0.2633-0.0922-0.4345
						c-0.2427-0.2202-0.9482-0.1136-1.2258-0.148c-0.0775-0.0096-0.0731-0.1152-0.0751-0.1385
						c-0.0202-0.2357,0.9585-0.284,1.02-0.4288c-0.1843-0.0395-0.8295,0.1097-1.1016,0.0834
						c-0.1335-0.0129-0.237-0.1536-0.2458-0.2414c-0.0043-0.0428,0.0519-0.121,0.4152-0.2588
						c0.4055-0.1538,0.8049-0.1713,0.7917-0.2266c-0.259-0.0544-0.5616-0.0483-0.7434-0.0911
						c-0.1113-0.0262-0.1874-0.063-0.209-0.1213c-0.0202-0.0674,0.0253-0.2247,0.1829-0.3071
						c0.2083-0.1089,0.573-0.1361,0.8528-0.1361c0.2769,0,0.4433,0.0571,0.6013,0.0571c-0.0582-0.1854-0.477-0.3359-0.9178-0.4324
						c-0.2765-0.0606-0.5634-0.0892-0.7792-0.1535c-0.2318-0.069-0.3816-0.2638-0.3482-0.3051
						c0.0922-0.1141,0.5837,0.0527,1.0621-0.2326c-0.9129-0.0176-0.8265-0.2497-0.847-0.3555
						c-0.0088-0.0452,0.0656-0.0901,0.1676-0.1688c0.1058-0.0816,0.2652-0.202,0.4788-0.2843
						c0.3027-0.1166,0.7141-0.1833,1.2364-0.1832c-0.0191-0.0875-0.2156-0.2395-0.5793-0.2765
						c-0.4323-0.044-0.7066,0.1404-1.4395,0.1404c-0.496,0-0.5423-0.1465-0.553-0.1668c-0.1931-0.3643,0.7646-1.2371,0.6452-1.3781
						c-0.0598-0.0706-0.3191,0.0435-0.5938,0.2063c-0.29,0.1718-0.5972,0.395-0.7053,0.395c-0.1448,0-0.2458-0.3451-0.2458-0.4345
						c0-0.1448,0.1824-0.3978,0.0703-0.5354c-0.0966-0.1185-0.4373,0.1046-0.5719,0.0106
						c-0.1329-0.0928,0.0814-0.4892-0.0514-0.5724c-0.1444-0.0905-0.379,0.0195-0.5623,0.044
						c-0.1193,0.0159-0.232-0.0221-0.232-0.0747c0-0.1142,0.9875-1.0533,1.185-1.1499c-0.2897-0.0834-1.573,0.8383-1.8345,0.8383
						c-0.079,0-0.2633-0.1624-0.2633-0.2326c0-0.1229,0.3423-0.5442,0.2765-0.5969c-0.0782-0.0626-0.4653,0.4257-0.6496,0.4257
						c-0.2326,0-0.0508-0.608-0.1492-0.6496c-0.1141-0.0483-0.1583,0.3899-0.3555,0.3293
						c-0.1141-0.0351-0.1405-0.0592-0.1967-0.4315c-0.0535-0.3542-0.1467-0.3893-0.1983-0.3893c-0.1624,0-0.022,0.4389-0.136,0.4828
						c-0.0315,0.0121-0.0912-0.0979-0.2532-0.2004c-0.4154-0.2629-1.2243-0.7031-1.9064-0.689
						c-0.2099,0.0043-0.4128,0.0542-0.5967,0.1696c0.2753,0.1029,0.8051,0.2763,1.1236,0.5003
						c0.6055,0.4259,0.9612,0.8997,0.9612,1.0533c0,0.237-0.5291,0.959-0.8769,1.2486c-0.1183,0.0985-0.2296,0.1075-0.2731,0.1075
						c-0.2145,0-0.3983-0.1754-0.5135-0.3324c-0.2125-0.2895-0.2546-0.6745-0.271-0.8965c-0.1143,0-0.0845,0.6978-0.0625,1.1016
						c-0.101-0.1185-0.2458-0.2941-0.373-0.4828c-0.0459,0.127-0.0748,0.2475-0.0899,0.3607
						c-0.0194,0.1457,0.0065,0.3415-0.1296,0.3941c-0.1672,0.0647-0.3302-0.226-0.4345-0.3687
						c-0.0307,0.1536,0.1712,0.847-0.0922,0.847c-0.0982,0-0.1712-0.1229-0.3423-0.1229c0.0376,0.2987,0.1857,0.4907,0.3228,0.6311
						c0.1371,0.1404,0.2565,0.229,0.2565,0.4266c0,0.1887-0.079,0.0966-0.2985,0.6583c-0.0511,0.1308-0.1236,0.2746-0.175,0.4259
						c-0.0321,0.0944-0.0477,0.1917-0.0863,0.2907c-0.1061,0.2727-0.2829,0.6571-0.7477,1.0437
						c-0.1805,0.1501-0.3779,0.2536-0.5533,0.3725c-0.286,0.1939-0.5135,0.3851-0.5135,0.5619c0,0.1263,0.0862,0.2136,0.1714,0.3063
						c0.1421,0.1546,0.3283,0.2774,0.4518,0.2774c0.1339,0,0.3094-0.0961,0.4853-0.2229c0.1368-0.0985,0.2738-0.242,0.392-0.3471
						c0.1882-0.1673,0.3284-0.2776,0.3428-0.2596c0.0181,0.0226-0.1161,0.1528-0.2405,0.3179
						c-0.1175,0.156-0.2232,0.3423-0.1896,0.3667c0.0965,0.0702,1.3562-0.7681,2.0277-1.2069
						c0.3142-0.2053,0.8584-0.6452,1.3079-0.8515c0.2609-0.1197,0.4784-0.2106,0.5179-0.4608
						c0.054-0.3421-0.1647-0.7413-0.0088-0.813c0.0329-0.0151,0.2568,0.1218,0.2568,0.4312c0,0.4872-0.4035,0.8009-0.8189,1.0409
						c-0.2138,0.1236-0.4695,0.3257-0.5939,0.4124c0.2931,0.0838,0.7874,0.2517,0.9783,0.2517c0.3884,0,0.39-0.1659,0.9546-0.3423
						c0.316-0.0988,0.5667-0.0542,0.822-0.1159c0.329-0.0795,0.5796-0.2583,0.765-0.5763c0.1272-0.2182,0.2036-0.4824,0.2036-0.8022
						c0-0.4221-0.1109-0.7335-0.2911-1.1449c-0.1351-0.3086-0.2158-0.2574-0.6503-0.9947c0.4411,0.4806,0.9941,0.8624,1.2698,1.2952
						c0.2271,0.3565,0.4024,0.7577,0.4024,1.1867c0,0.5904-0.4477,1.9552-1.5997,2.6136c-1.1851,0.6772-3.0876,0.3555-3.8052,1.0204
						c-0.0219,0.0203-0.149,0.184-0.0658,0.2699c0.2041,0.2107,0.6199,0.464,1.0388,0.6594
						c0.5797,0.2705,1.1403,0.3479,1.0942,0.4664c-0.0121,0.0312-0.1514,0.0404-0.3429-0.004
						c-0.3192-0.0741-0.7836-0.2502-1.0462-0.3778c-0.2187-0.1063-0.3416-0.2056-0.5217-0.2949
						c-0.5008-0.2485-0.9662-0.1945-0.9662,0.2818c0,0.0306,0.0132,0.3292,0.3863,0.5626c0.5392,0.3374,1.3584,0.6872,1.332,0.7277
						c-0.0305,0.0469-0.6382-0.1414-1.1553-0.3815c-0.4437-0.2061-0.7802-0.4216-0.8395-0.4216
						c-0.0119,0-0.3874,0.1672-0.6123,0.2502c-0.0153,0.0056-0.3094,0.3094-0.3094,0.5333c0,0.0517,0.079,0.2897,0.4502,0.474
						c0.303,0.1504,0.6796,0.2735,0.9682,0.3908c0.1922,0.078,0.3453,0.1681,0.4118,0.2084
						c-1.343-0.2173-1.7133-0.5333-1.975-0.5333c-0.0781,0-0.2509,0.0459-0.4289,0.192c-0.166,0.1362-0.3232,0.3285-0.4255,0.5198
						c-0.0907,0.1696-0.141,0.3384-0.0739,0.4666c0.1338,0.2558,0.7234,0.3977,1.1708,0.5425
						c0.265,0.0858,0.4802,0.2238,0.5211,0.2475c-0.8295-0.0395-1.3232-0.4806-1.8236-0.4806c-0.11,0-0.2111,0.0763-0.293,0.1851
						c-0.0587,0.078-0.1011,0.1728-0.1593,0.2679c-0.1805,0.2951-0.3667,0.5476-0.3667,0.8307c0,0.3593,0.4269,0.6524,0.4371,0.6781
						c0.0072,0.0182,0.9597,0.2971,0.9348,0.3884c-0.0348,0.1277-0.6583-0.1119-1.0797-0.1119
						c-0.0582,0-0.4213-0.0329-0.4872,0.4806c-0.0495,0.386,0.1909,0.8097,0.395,0.8427c0.2607,0.042,0.4344,0.0653,0.6612,0.1392
						c-0.2399,0.032-0.6315,0.0642-0.8192,0.1768c-0.2633,0.158-0.4938,1.1389-0.2765,1.3957
						c0.1625,0.192,0.5003,0.0527,0.5591,0.2258c0.004,0.038-0.2879,0.1121-0.3945,0.2943
						c-0.323,0.5523-0.2039,1.2992,0.3682,1.4157c-0.4735,0.2762-0.6776,1.0004-0.0785,1.0201
						c0.0008,0.0162-0.0778-0.0176-0.1475,0.2146c-0.0841,0.2803-0.1465,0.8398,0.075,0.9272
						c0.0467,0.0184,0.3136-0.032,0.3416,0.0499c0.027,0.0789-0.1776,0.0283-0.2166,0.1711
						c-0.158,0.5793,0.5283,2.0828,0.7834,2.5477c0.0907,0.1654,0.7176,1.5208,2.5017,2.3503
						c0.2441,0.1135,1.2837,0.553,2.8111,0.553c0.0096,0,1.3143,0.0197,1.9723-0.1364c0.8125-0.1928,1.6494-0.5616,2.4188-1.3119
						c0.06-0.0585,1.3298-1.264,1.3298-3.3575c0-0.4825-0.1514-2.4161-1.264-3.1666c-0.0211-0.0142-0.6386-0.4674-2.1659-0.4806
						c-0.4806,0-1.0295,0.2583-1.3951,0.6577c-0.2003,0.2188-0.3825,0.48-0.3825,0.7643
						C48.2951,41.0073,48.9068,41.4537,49.0522,41.3431"/>
				</g>
				<g>
					<g>
						<path d="M45.9514,24.5437c-0.3594,0-0.6517-0.2924-0.6517-0.6518s0.2924-0.6517,0.6517-0.6517
							c0.3594,0,0.6518,0.2924,0.6518,0.6517S46.3108,24.5437,45.9514,24.5437z M45.9514,23.4246
							c-0.2577,0-0.4674,0.2097-0.4674,0.4674s0.2097,0.4674,0.4674,0.4674c0.2577,0,0.4674-0.2097,0.4674-0.4674
							S46.2091,23.4246,45.9514,23.4246z"/>
					</g>
					<g>
						<path d="M45.7594,23.4653l-0.0929-0.1592c0.041-0.0239,1.0123-0.5807,1.842-0.2256l-0.0726,0.1695
							C46.6906,22.9309,45.7686,23.4599,45.7594,23.4653z"/>
					</g>
					<g>
						<ellipse cx="45.9514" cy="23.9071" rx="0.1712" ry="0.2403"/>
					</g>
				</g>
				<g>
					<path class="st5" d="M51.9818,31.8236c-0.0074,0.0477-0.1777,0.3884-0.553,0.7439c-0.14,0.1327-0.4039,0.3201-0.6272,0.4177
						c-0.157,0.0686-0.294,0.0529-0.3538,0.1155c-0.075,0.0785-0.09,0.1926-0.1317,0.2436
						c-0.2962,0.3621-2.3858,1.3298-2.4424,1.4088c-0.0174,0.0218,0.0733,0.3189,0.1902,0.6191
						c0.1794,0.4605,0.4207,0.9993,0.4286,1.1189c0.3244,0.1272,0.5398-0.7439,0.7307-0.7637
						c0.0493,0.0033,0.1023,0.1427,0.2225,0.237c0.1205,0.0946,0.3084,0.1442,0.4161,0.1777
						c-0.1185-0.2107-0.0395-0.4147-0.1278-0.7814c-0.016-0.0664-0.0574-0.1694-0.0302-0.1863
						c0.118-0.0735,0.2502,0.6517,1.0072,0.7439c-0.003-0.0493-0.0114-0.1264-0.0218-0.2162
						c-0.0158-0.1359,0.0032-0.3009-0.0102-0.4428c-0.0168-0.1776-0.062-0.3191-0.0338-0.3219
						c0.0893,0.0068,0.237,0.6386,1.1323,0.7904c-0.0988-0.3427-0.2266-1.0418-0.2173-1.0472
						c0.0295-0.0168,0.1249,0.0572,0.2558,0.167c0.1228,0.103,0.2504,0.2639,0.4102,0.3844
						c0.2026,0.1527,0.441,0.2565,0.6112,0.2715c-0.0461-0.2238-0.3226-1.0007-0.2238-1.0863
						c0.3489,0.1119,0.3572,0.4678,0.6912,0.6434c0.1504,0.0791,0.4206,0.0224,0.4872-0.0114
						c-0.3094-0.632-0.2207-1.0423-0.2041-1.1455c0.474,0.237,0.395,0.6386,1.1587,0.553c-0.3028-0.2173-0.3094-0.553-0.6912-0.9546
						c0.6583-0.0856,0.8427,0.1712,1.0204-0.0461c0.0689-0.0842-0.1744-0.4219-0.2666-0.6343
						c-0.0475-0.1093-0.008-0.1866,0.0296-0.182c0.3461,0.0424,0.474,0.2502,0.8361,0.169
						c-0.058-0.0637-0.1466-0.1668-0.2366-0.2799c-0.0563-0.0708-0.0868-0.1717-0.137-0.243
						c-0.1155-0.164-0.2221-0.284-0.1793-0.3242c0.068-0.064,0.5003,0.3358,0.9809,0.158c0.0409-0.0151-0.1515-0.0741-0.2967-0.1638
						c-0.1468-0.0907-0.2563-0.1851-0.2234-0.2444c0.0851-0.1532,0.4696-0.1383,0.4696-0.3862c0-0.1448-0.0959-0.2565-0.1932-0.4269
						c-0.105-0.184-0.2146-0.4235-0.2896-0.4772c0.3752-0.1053,0.7373-0.4806,0.7768-1.027
						c-0.9019,0.6254-2.2774,0.8163-2.5609,0.8163c-0.0889,0-0.1798,0.0348-0.2713,0.052
						c-0.2268,0.0425-0.4571,0.1114-0.6682,0.2604c-0.2131,0.1504-0.4067,0.3681-0.5576,0.5818
						C52.1313,31.3273,52.0204,31.5739,51.9818,31.8236z"/>
				</g>
				<g>
					<path class="st5" d="M50.9657,30.8866c0.0632,0.1106,0.174,0.2492,0.3001,0.3758c0.1347,0.1182,0.3144,0.2211,0.5601,0.3528
						c0.0225-0.0661,0.0561-0.155,0.103-0.2564c0.0759-0.1641,0.213-0.3477,0.3676-0.5328c0.048-0.0574,0.0739-0.1269,0.1306-0.1808
						c0.1582-0.1502,0.2977-0.2188,0.4113-0.2832c0.1984-0.1126,0.3173-0.1585,0.3173-0.2171c0-0.0687-0.0685-0.1559-0.1887-0.2941
						c-0.0114-0.0131,0.0221-0.0838-0.0034-0.1367c-0.0492-0.1023-0.2003-0.1981-0.26-0.21
						c-0.0348-0.007-0.1076,0.0186-0.2062,0.0483c-0.2117,0.0636-0.5425,0.2091-0.8734,0.5355
						C51.3404,30.3676,51.0313,30.7909,50.9657,30.8866z"/>
				</g>
				<g>
					<path class="st5" d="M49.8509,31.8214c0.0878,0.1931,0.2458,0.4492,0.4333,0.6649c0.1298,0.1493,0.2041,0.3151,0.2626,0.3402
						c0.1147,0,0.3164-0.0922,0.4764-0.2131c0.1564-0.1181,0.2719-0.2643,0.3287-0.3183c0.1995-0.1895,0.3378-0.1972,0.3861-0.4825
						c-0.0885-0.1328-0.2836-0.1746-0.4563-0.3061c-0.1556-0.1186-0.275-0.2766-0.3734-0.3787
						c-0.0414-0.0429-0.1008-0.076-0.1227-0.092c-0.3423,0.2589-0.5205,0.2391-0.7058,0.4579
						C49.961,31.6343,49.8956,31.7665,49.8509,31.8214z"/>
				</g>
				<g>
					<path class="st5" d="M48.3631,32.4929c0.1009,0.2853,0.1311,0.7098,0.2548,1.0781c0.071,0.2114,0.1396,0.3829,0.1797,0.4405
						c0.1838-0.085,0.7316-0.3432,1.0969-0.6214c0.2192-0.1669,0.3558-0.3409,0.3558-0.489
						c-0.0311-0.0762-0.0707-0.2022-0.1476-0.3394c-0.0525-0.0937-0.114-0.1399-0.1739-0.232
						c-0.0565-0.0867-0.0986-0.1842-0.144-0.2631c-0.0348-0.0606-0.077-0.1102-0.0962-0.1356
						C49.3965,31.9311,48.3631,32.1463,48.3631,32.4929z"/>
				</g>
				<g>
					<path class="st5" d="M47.0289,33.2917c0.1398,0.1388,0.2569,0.2085,0.3157,0.3564c0.1018,0.2561,0.0898,0.5327,0.0827,0.7493
						c-0.006,0.1846-0.0056,0.3256,0.0405,0.3733c0.0636-0.0295,0.1559-0.0601,0.2603-0.127c0.13-0.0833,0.2786-0.2085,0.4135-0.289
						c0.1348-0.0805,0.2559-0.1136,0.331-0.1591c0.0497-0.0302,0.0793-0.0806,0.0793-0.1007c0-0.0599-0.1157-0.2931-0.1931-0.577
						c-0.051-0.1872-0.06-0.3907-0.0974-0.5548c-0.0429-0.1887-0.1114-0.3254-0.1265-0.3254c-0.1342,0-0.2765,0.1095-0.4132,0.1607
						c-0.1655,0.062-0.3227,0.1172-0.4477,0.2021C47.1582,33.0791,47.0701,33.1854,47.0289,33.2917z"/>
				</g>
				<g>
					<path class="st5" d="M45.2514,34.5469c0.1712,0.0702,0.3555,0.1668,0.5223,0.3687c0.0688,0.0833,0.1279,0.1803,0.177,0.3023
						c0.0762,0.1892,0.1285,0.4017,0.1566,0.4307c0.0636-0.0295,0.4369-0.2837,0.5413-0.3506
						c0.13-0.0833,0.1884-0.1648,0.3584-0.2902c0.1263-0.0932,0.2151-0.1422,0.2151-0.1624c0-0.0275-0.0231-0.1919-0.0232-0.3774
						c-0.0002-0.2177,0.0214-0.4644,0.0012-0.553c-0.0429-0.1887-0.3416-0.4756-0.3555-0.4696
						c-0.1229,0.0527-0.2627,0.0586-0.3994,0.1098c-0.1655,0.062-0.3271,0.2355-0.4521,0.3204
						C45.8773,33.954,45.2926,34.4406,45.2514,34.5469z"/>
				</g>
				<g>
					<path class="st5" d="M44.0225,35.9206c0.1317,0.0966,0.3939,0.2198,0.4959,0.3028c0.2589,0.2107,0.4284,0.3748,0.4564,0.4038
						c0.0636-0.0295,0.3359-0.3493,0.5156-0.5199c0.1138-0.1081,0.4017-0.329,0.4017-0.3491
						c-0.0702-0.1317-0.1448-0.5354-0.3336-0.7724c-0.1102-0.1384-0.3591-0.2825-0.3731-0.2765
						c-0.0614,0.0263-0.135,0.0722-0.2096,0.1386c-0.0746,0.0664-0.1503,0.1533-0.2161,0.2301
						c-0.0344,0.0401-0.1106,0.0959-0.2016,0.1941C44.3453,35.5019,44.0514,35.8462,44.0225,35.9206z"/>
				</g>
				<g>
					<path class="st5" d="M43.3861,36.9871c0.0627,0.046,0.222,0.0994,0.4024,0.201c0.1985,0.1118,0.4168,0.271,0.4315,0.2862
						c0.019-0.0088,0.0791-0.1011,0.154-0.1897c0.1761-0.2083,0.4341-0.5159,0.4341-0.53c-0.079-0.0483-0.1712-0.1668-0.4433-0.3292
						c-0.1958-0.1168-0.403-0.2825-0.417-0.2765c-0.0614,0.0263-0.2167,0.223-0.2853,0.3379
						C43.5134,36.737,43.415,36.9127,43.3861,36.9871z"/>
				</g>
				<g>
					<path class="st5" d="M42.9475,38.0229c0.4079,0.1273,0.7048,0.3447,0.7195,0.3599c0.0107-0.005,0.1576-0.2577,0.2827-0.4553
						c0.0954-0.1507,0.1782-0.2583,0.1782-0.2645c-0.079-0.0483-0.1698-0.1691-0.4433-0.3292
						c-0.0338-0.0198-0.1779-0.0878-0.3599-0.1624c-0.0613,0.0739-0.1114,0.2055-0.18,0.3204
						C42.9955,37.742,42.9764,37.9484,42.9475,38.0229z"/>
				</g>
				<g>
					<path class="st5" d="M42.5917,39.8355c0.3028,0.0088,0.5471,0.1121,0.5618,0.1273c0.0107-0.005,0.0927-0.5244,0.1843-0.7724
						c0.0618-0.1673,0.2853-0.6742,0.2853-0.6803c-0.079-0.0483-0.4853-0.2502-0.7066-0.3028
						c-0.0613,0.0739-0.1728,0.5102-0.2019,0.6408C42.614,39.2995,42.5917,39.7214,42.5917,39.8355z"/>
				</g>
				<g>
					<path class="st5" d="M42.7058,42.2845c0.1799-0.0702,0.5339-0.081,0.5486-0.0658c0.0108-0.005-0.1097-0.3423-0.147-1.106
						c-0.0087-0.1782,0.0285-0.9507,0.0285-0.9568c-0.079-0.0483-0.316-0.136-0.5442-0.136c0,0.1975-0.006,0.8319,0,0.9655
						C42.618,41.5735,42.6619,42.0651,42.7058,42.2845z"/>
				</g>
				<g>
					<path class="st5" d="M44.22,45.2207c0.1127-0.0636,0.2077-0.1746,0.2633-0.2151c0.0107-0.005-0.3644-0.4738-0.6847-1.1236
						c-0.3028-0.6144-0.496-1.4466-0.496-1.4527c-0.1492,0.0088-0.3467,0-0.5749,0c0.0439,0.4038,0.2586,0.9875,0.3116,1.1104
						C43.3027,44.1498,44.0444,45.0451,44.22,45.2207z"/>
				</g>
				<g>
					<path class="st5" d="M45.8132,46.5856c0.0669-0.0517,0.1555-0.1853,0.1931-0.2765c-0.7812-0.2326-1.4264-1.17-1.4264-1.1762
						c-0.0439,0.0351-0.1931,0.1404-0.2589,0.2018C44.6018,45.642,45.2119,46.3355,45.8132,46.5856z"/>
				</g>
				<g>
					<path class="st5" d="M48.2975,46.9324c0.0144-0.0559,0.0094-0.2266-0.0002-0.3248c-1.3123,0.0571-2.0862-0.2096-2.0891-0.215
						c-0.0222,0.0516-0.1046,0.2146-0.1339,0.2998C46.5242,47.0377,47.6491,46.9938,48.2975,46.9324z"/>
				</g>
				<g>
					<path class="st5" d="M50.7726,46.22c0.0197-0.0542-0.0395-0.1918-0.1009-0.1918c-0.7695,0.4167-2.1784,0.5452-2.1813,0.5398
						c-0.0222,0.0516-0.0044,0.2414,0.0263,0.3467c0.3961-0.0695,1.3086-0.1901,1.8856-0.4544
						C50.5541,46.3908,50.7419,46.3047,50.7726,46.22z"/>
				</g>
				<g>
					<path class="st5" d="M51.6653,45.6133c0.0019-0.0577-0.084-0.166-0.1289-0.1775c-0.2436,0.2427-0.5331,0.3878-0.6541,0.4828
						c0.0044,0.0527,0.1006,0.1442,0.1886,0.1445c0.0879,0.0003,0.1801-0.0348,0.3469-0.1753
						C51.5456,45.7802,51.6623,45.7033,51.6653,45.6133z"/>
				</g>
				<g>
					<path class="st5" d="M52.3551,44.6488c0-0.0577-0.0322-0.1189-0.0771-0.1304c-0.2238,0.3687-0.4767,0.7013-0.5976,0.7962
						c0.0044,0.0527,0.0577,0.1181,0.1456,0.1184c0.0879,0.0003,0.2151-0.2168,0.3423-0.4055
						C52.2617,44.8891,52.3551,44.7862,52.3551,44.6488z"/>
				</g>
				<g>
					<path class="st5" d="M52.8398,43.7241c0-0.0577-0.0717-0.1496-0.1167-0.1611c-0.0257,0-0.0495,0.0075-0.0718,0.0212
						c-0.0545,0.0333-0.0467,0.1029-0.0848,0.1877c-0.0831,0.1852-0.1861,0.4424-0.2314,0.5492c0,0.1009,0.013,0.1314,0.101,0.1317
						s0.136-0.1468,0.2502-0.3423C52.7704,43.966,52.8398,43.8614,52.8398,43.7241z"/>
				</g>
				<g>
					<path class="st5" d="M52.9701,42.693c-0.0142-0.0559-0.1276-0.0779-0.1739-0.075c-0.0244,0.0079-0.0448,0.0225-0.0618,0.0424
						c-0.0415,0.0485-0.0126,0.1124-0.0226,0.2046c-0.0218,0.2018-0.0402,0.3968-0.0504,0.5124
						c0.0511,0.136,0.2223,0.0775,0.2706-0.0044c0.0446-0.0758,0.0148-0.1595,0.0307-0.2589
						C52.9891,42.9491,52.9934,42.7849,52.9701,42.693z"/>
				</g>
				<g>
					<path class="st5" d="M52.8233,41.692c-0.0261-0.0337-0.1262-0.0746-0.1514,0.0263c-0.0253,0.1009,0.0243,0.2503,0.0362,0.3423
						c0.0176,0.136-0.0006,0.2593,0.0568,0.3579c0.0573,0.0985,0.1327,0.0269,0.1809-0.0551
						c0.0446-0.0758-0.0137-0.2114-0.0226-0.3116C52.9084,41.8873,52.8494,41.7257,52.8233,41.692z"/>
				</g>
				<g>
					<path class="st5" d="M52.4272,40.5723c-0.0355-0.0235-0.1459-0.096-0.1712,0.005c-0.0253,0.1009,0.1712,0.3601,0.2019,0.4477
						c0.0614,0.1756,0.0834,0.2151,0.1141,0.3599c0.0237,0.1115,0.0886,0.1119,0.1377,0.0304
						c0.0686-0.1138-0.0104-0.3069-0.0718-0.4649C52.578,40.7962,52.5808,40.6738,52.4272,40.5723z"/>
				</g>
				<g>
					<path class="st5" d="M51.6054,39.8433c-0.0418-0.0085-0.2065-0.1021-0.1921,0.0009c0.0144,0.103,0.2372,0.1848,0.2985,0.2546
						c0.1227,0.1397,0.1982,0.1868,0.2589,0.2107c0.0424,0.0167,0.1326,0.0313,0.1317-0.022
						c-0.0014-0.0797-0.115-0.1709-0.2445-0.2707C51.7714,39.9503,51.6777,39.858,51.6054,39.8433z"/>
				</g>
			</g>
		</g>
		<g>
			<g>
				<path class="st2" d="M9.9564,14.4845V8.7541h1.8957l1.1383,3.9089l1.1254-3.9089h1.8999v5.7304h-1.1768V9.9737l-1.2452,4.5108
					h-1.2196l-1.241-4.5108v4.5108H9.9564z"/>
			</g>
			<g>
				<path class="st2" d="M22.7764,14.4845h-1.3249l-0.5267-1.3016h-2.4111l-0.4979,1.3016h-1.292l2.3494-5.7304h1.2879
					L22.7764,14.4845z M20.5339,12.2174l-0.8311-2.1264l-0.8147,2.1264H20.5339z"/>
			</g>
			<g>
				<path class="st2" d="M24.3435,14.4845v-2.4118L22.134,8.7541h1.4278l1.4195,2.2671l1.3907-2.2671h1.4031l-2.2178,3.3264v2.4039
					H24.3435z"/>
			</g>
			<g>
				<path class="st2" d="M28.191,11.6545c0-0.5837,0.0919-1.0736,0.2757-1.4697c0.1371-0.2918,0.3243-0.5537,0.5616-0.7857
					c0.2372-0.2319,0.4971-0.4039,0.7797-0.516c0.3758-0.1511,0.8092-0.2267,1.3002-0.2267c0.8888,0,1.5999,0.2619,2.1334,0.7857
					c0.5335,0.5238,0.8003,1.2522,0.8003,2.1851c0,0.9251-0.2647,1.6489-0.7941,2.1714c-0.5294,0.5225-1.2372,0.7837-2.1231,0.7837
					c-0.897,0-1.6102-0.2599-2.1396-0.7798C28.4557,13.2826,28.191,12.5666,28.191,11.6545z M29.4459,11.6154
					c0,0.6489,0.1577,1.1408,0.4732,1.4756c0.3154,0.3349,0.7159,0.5023,1.2015,0.5023s0.8839-0.1661,1.1953-0.4984
					c0.3113-0.3323,0.467-0.8306,0.467-1.4951c0-0.6567-0.1516-1.1466-0.4547-1.4697c-0.3031-0.3231-0.7057-0.4847-1.2076-0.4847
					c-0.502,0-0.9066,0.1636-1.2138,0.4906C29.5995,10.463,29.4459,10.9562,29.4459,11.6154z"/>
			</g>
			<g>
				<path class="st2" d="M36.3502,14.4845v-4.761h-1.7898V8.7541h4.7935v0.9694h-1.7857v4.761H36.3502z"/>
			</g>
			<g>
				<path class="st2" d="M41.5818,14.4845v-4.761H39.792V8.7541h4.7935v0.9694h-1.7857v4.761H41.5818z"/>
			</g>
			<g>
				<path class="st2" d="M45.4556,14.4845V8.7541h4.4726v0.9694h-3.2546v1.2704h3.0283v0.9655h-3.0283v1.5596h3.3698v0.9655H45.4556
					z"/>
			</g>
		</g>
		<g>
			<g>
				<g>
					<path class="st5" d="M23.1138,48.6045c-3.0547-0.1185-6.3068,2.3832-6.5833,2.1593c-0.2765-0.2238-0.8383-1.4878-0.7944-1.7248
						c0.108-0.397,2.9318-1.7029,4.1656-2.1179c0.8037-0.2703,2.2686-0.7437,2.883-0.3575
						c0.1524,0.1799,0.4213,0.7461,0.8076,1.2026C23.9076,48.1389,23.2478,48.5739,23.1138,48.6045z"/>
					<path d="M16.5821,50.8702c-0.0443,0-0.0812-0.0117-0.1096-0.0347c-0.293-0.2372-0.8804-1.5251-0.827-1.8133l0.0017-0.0074
						c0.0223-0.0819,0.1065-0.2121,0.5635-0.4942c0.2837-0.1752,0.6798-0.3884,1.1456-0.6165
						c0.8728-0.4275,1.8839-0.8576,2.5161-1.0703c0.4903-0.1649,1.5106-0.508,2.2597-0.508c0.2968,0,0.5329,0.0538,0.7017,0.1599
						l0.0121,0.0076l0.0092,0.0109c0.0637,0.0752,0.1403,0.203,0.2374,0.3648c0.1506,0.251,0.3379,0.5633,0.5702,0.8378
						c0.1038,0.1227,0.1322,0.2668,0.0822,0.4167c-0.1007,0.3016-0.4973,0.5452-0.6105,0.571l-0.0119,0.0027l-0.0122-0.0005
						c-0.0687-0.0026-0.139-0.004-0.2089-0.004c-1.9994,0-4.048,1.0741-5.272,1.7159
						C17.0347,50.7202,16.7418,50.8701,16.5821,50.8702C16.5822,50.8702,16.5822,50.8702,16.5821,50.8702z M16.581,50.6858
						c0.0004,0,0.0008,0,0.0012,0c0.1212,0,0.5107-0.2042,0.9616-0.4406c1.239-0.6496,3.3127-1.7369,5.3575-1.7369
						c0.0674,0,0.1352,0.0012,0.2015,0.0036c0.0868-0.0297,0.3946-0.2297,0.4671-0.4468c0.0298-0.0893,0.0145-0.1653-0.0481-0.2393
						c-0.2419-0.2859-0.4336-0.6054-0.5875-0.8621c-0.0842-0.1404-0.1576-0.2627-0.211-0.3295
						c-0.1385-0.0824-0.3374-0.1241-0.5913-0.1241c-0.719,0-1.7199,0.3367-2.2009,0.4984
						c-0.6253,0.2103-1.6275,0.6367-2.4938,1.0611c-1.206,0.5908-1.5787,0.8981-1.6111,0.99
						c-0.0084,0.0712,0.0687,0.3629,0.2709,0.8086C16.2758,50.2622,16.4686,50.5875,16.581,50.6858z"/>
				</g>
				<g>
					<path class="st5" d="M23.1138,48.6045c-0.1097,0.0922-1.3386,0.0404-1.6015-0.6715c0.3067-0.8866,0.851-1.0446,1.2723-1.3693
						c0.1524,0.1799,0.4213,0.7461,0.8076,1.2026C23.9076,48.1389,23.2478,48.5739,23.1138,48.6045z"/>
					<path d="M22.8898,48.7312c-0.4085,0-1.2402-0.1602-1.4639-0.7662l-0.0114-0.0309l0.0108-0.0311
						c0.2503-0.7233,0.6592-0.9865,1.02-1.2187c0.0999-0.0643,0.1943-0.125,0.2831-0.1935l0.0697-0.0537l0.0569,0.0672
						c0.0637,0.0752,0.1403,0.203,0.2374,0.3648c0.1506,0.251,0.3379,0.5633,0.5702,0.8378
						c0.1038,0.1227,0.1322,0.2668,0.0822,0.4167c-0.0954,0.2859-0.4567,0.5196-0.5905,0.5652
						C23.124,48.7064,23.0557,48.7312,22.8898,48.7312z M21.6108,47.9311c0.1925,0.451,0.865,0.6157,1.2791,0.6157
						c0.1037,0,0.1548-0.0112,0.1692-0.0167l0.0126-0.0106l0.0217-0.0049c0.0707-0.0162,0.4011-0.2235,0.4766-0.4496
						c0.0298-0.0893,0.0145-0.1653-0.0481-0.2393c-0.2419-0.2859-0.4336-0.6054-0.5875-0.8621
						c-0.0637-0.1063-0.1213-0.2021-0.1686-0.2714c-0.0725,0.0516-0.1475,0.0999-0.2206,0.1469
						C22.1987,47.062,21.8407,47.2925,21.6108,47.9311z"/>
				</g>
				<g>
					<path class="st5" d="M36.8862,48.6045c3.0547-0.1185,6.3068,2.3832,6.5833,2.1593c0.2765-0.2238,0.8383-1.4878,0.7944-1.7248
						c-0.108-0.397-2.9318-1.7029-4.1656-2.1179c-0.8037-0.2703-2.2686-0.7437-2.883-0.3575
						c-0.1524,0.1799-0.4213,0.7461-0.8076,1.2026C36.0924,48.1389,36.7522,48.5739,36.8862,48.6045z"/>
					<path d="M43.4178,50.8702c-0.1596,0-0.4526-0.1499-1.0476-0.4619c-1.2239-0.6417-3.2724-1.7157-5.2715-1.7157
						c-0.07,0-0.1403,0.0014-0.2089,0.004l-0.0122,0.0005l-0.0119-0.0027c-0.1131-0.0258-0.5098-0.2694-0.6105-0.571
						c-0.05-0.1499-0.0216-0.294,0.0822-0.4167c0.2323-0.2745,0.4196-0.5868,0.5702-0.8378
						c0.097-0.1618,0.1737-0.2896,0.2374-0.3648l0.0092-0.0109l0.0121-0.0076c0.1688-0.1061,0.4049-0.1599,0.7017-0.1599
						c0.7491,0,1.7694,0.3431,2.2597,0.508c0.6322,0.2126,1.6433,0.6427,2.5161,1.0703c0.4657,0.2282,0.8618,0.4413,1.1455,0.6165
						c0.457,0.2822,0.5412,0.4123,0.5634,0.4942l0.0017,0.0074c0.0534,0.2882-0.534,1.5761-0.827,1.8133
						C43.4991,50.8585,43.4621,50.8702,43.4178,50.8702z M37.0987,48.5082c2.0446,0,4.1182,1.0872,5.3571,1.7368
						c0.4511,0.2365,0.8407,0.4408,0.962,0.4408c0.0005,0,0.0009,0,0.0013,0c0.1124-0.0984,0.3051-0.4237,0.4838-0.8176
						c0.2023-0.4457,0.2793-0.7375,0.2709-0.8086c-0.0325-0.0919-0.4051-0.3992-1.6111-0.99
						c-0.8663-0.4244-1.8685-0.8508-2.4938-1.0611c-0.481-0.1618-1.482-0.4984-2.2009-0.4984c-0.254,0-0.4528,0.0417-0.5913,0.1241
						c-0.0534,0.0668-0.1268,0.1891-0.211,0.3295c-0.154,0.2567-0.3456,0.5762-0.5875,0.8621
						c-0.0626,0.074-0.0779,0.15-0.0481,0.2393c0.0725,0.2172,0.3803,0.4171,0.4671,0.4468
						C36.9635,48.5095,37.0313,48.5082,37.0987,48.5082z"/>
				</g>
				<g>
					<path class="st5" d="M36.8862,48.6045c0.1097,0.0922,1.3386,0.0404,1.6014-0.6715c-0.3067-0.8866-0.8509-1.0446-1.2723-1.3693
						c-0.1524,0.1799-0.4213,0.7461-0.8076,1.2026C36.0924,48.1389,36.7522,48.5739,36.8862,48.6045z"/>
					<path d="M37.1102,48.7312C37.1102,48.7312,37.1102,48.7312,37.1102,48.7312c-0.1658,0-0.2341-0.0248-0.2644-0.0426
						c-0.1338-0.0456-0.4951-0.2793-0.5905-0.5652c-0.05-0.1499-0.0216-0.294,0.0822-0.4167
						c0.2323-0.2745,0.4196-0.5868,0.5702-0.8378c0.097-0.1618,0.1737-0.2896,0.2374-0.3648l0.0569-0.0672l0.0697,0.0537
						c0.0888,0.0685,0.1832,0.1292,0.2831,0.1935c0.3608,0.2322,0.7698,0.4954,1.02,1.2187l0.0108,0.0311l-0.0114,0.0309
						C38.3503,48.571,37.5187,48.7312,37.1102,48.7312z M36.9409,48.5302c0.0145,0.0055,0.0656,0.0167,0.1692,0.0167
						c0.4141,0,1.0865-0.1647,1.279-0.6157c-0.23-0.6386-0.5879-0.869-0.9343-1.0919c-0.0731-0.0471-0.1481-0.0953-0.2206-0.1469
						c-0.0473,0.0693-0.1049,0.1652-0.1686,0.2714c-0.154,0.2567-0.3456,0.5762-0.5875,0.8621
						c-0.0626,0.074-0.0779,0.15-0.0481,0.2393c0.0755,0.2261,0.4059,0.4335,0.4766,0.4496l0.0217,0.0049L36.9409,48.5302z"/>
				</g>
				<g>
					<path class="st5" d="M35.6485,46.8007C34.633,46.5361,31.5929,46.4179,30,46.4179s-4.633,0.1182-5.6485,0.3828
						c-1.5668,0.4082-2.0408,0.8822-2.8391,1.1323c0,0.3336,0.3331,1.4571,0.5876,1.7292c0.0986,0.1054,0.3301,0.1437,0.6114,0.0752
						c0.4453-0.1083,1.0154-0.4046,1.3811-0.5229c0.2667-0.0863,0.5881-0.3858,5.9074-0.3858s5.6407,0.2995,5.9075,0.3858
						c0.3657,0.1183,0.9359,0.4146,1.3811,0.5229c0.2814,0.0684,0.5129,0.0302,0.6114-0.0752
						c0.2545-0.2721,0.5876-1.3957,0.5876-1.7292C37.6893,47.6828,37.2153,47.2088,35.6485,46.8007z"/>
					<path d="M37.5567,49.864L37.5567,49.864c-0.0915,0-0.1891-0.0124-0.2899-0.037c-0.273-0.0664-0.5926-0.202-0.8746-0.3216
						c-0.19-0.0806-0.3694-0.1567-0.5131-0.2032c-0.0237-0.0077-0.0473-0.0167-0.0723-0.0262
						C35.5281,49.1698,34.8756,48.921,30,48.921c-4.8756,0-5.5282,0.2489-5.8068,0.3551c-0.025,0.0095-0.0486,0.0185-0.0723,0.0262
						c-0.1437,0.0465-0.3231,0.1226-0.5131,0.2032c-0.282,0.1196-0.6016,0.2552-0.8746,0.3216
						c-0.1008,0.0245-0.1984,0.037-0.2899,0.037c-0.1811,0-0.3269-0.0493-0.4106-0.1388c-0.2693-0.2879-0.6125-1.4258-0.6125-1.7922
						v-0.0677l0.0646-0.0202c0.3015-0.0945,0.5551-0.2213,0.8486-0.3682c0.4564-0.2283,1.0244-0.5125,1.9948-0.7653
						c1.0101-0.2632,3.9816-0.3857,5.6717-0.3857c1.6902,0,4.6616,0.1226,5.6717,0.3857c0.9705,0.2528,1.5384,0.537,1.9948,0.7653
						c0.2936,0.1469,0.5471,0.2737,0.8486,0.3682l0.0646,0.0202v0.0677c0,0.3664-0.3431,1.5042-0.6125,1.7922
						C37.8836,49.8147,37.7378,49.864,37.5567,49.864z M30,48.7366c4.9095,0,5.5843,0.2573,5.8725,0.3672
						c0.0237,0.009,0.0442,0.0168,0.0633,0.023c0.1514,0.049,0.3345,0.1266,0.5283,0.2088
						c0.2755,0.1169,0.5878,0.2493,0.8462,0.3122c0.0866,0.0211,0.1695,0.0317,0.2464,0.0317c0.1257,0,0.2289-0.03,0.2759-0.0804
						c0.2159-0.2308,0.5229-1.2189,0.5592-1.6004c-0.2855-0.0958-0.529-0.2177-0.8078-0.3571
						c-0.472-0.2362-1.007-0.5039-1.9588-0.7518C34.674,46.6421,31.7472,46.5101,30,46.5101s-4.674,0.132-5.6253,0.3798
						c-0.9518,0.248-1.4868,0.5156-1.9588,0.7518c-0.2788,0.1395-0.5222,0.2613-0.8078,0.3572
						c0.0364,0.3816,0.3433,1.3697,0.5592,1.6004c0.0471,0.0503,0.1502,0.0804,0.276,0.0804c0.0769,0,0.1598-0.0107,0.2464-0.0317
						c0.2584-0.0629,0.5707-0.1953,0.8462-0.3122c0.1938-0.0822,0.3769-0.1599,0.5284-0.2088
						c0.0191-0.0062,0.0396-0.014,0.0633-0.023C24.4156,48.9939,25.0904,48.7366,30,48.7366z"/>
				</g>
			</g>
			<g>
				<path class="st6" d="M22.7114,49.3424c0.4453-0.1083,1.0154-0.4046,1.3811-0.5229c0.2667-0.0863,0.5881-0.4121,5.9074-0.4121
					s5.6407,0.3258,5.9075,0.4121c0.3657,0.1183,0.9359,0.4146,1.3811,0.5229"/>
			</g>
			<g>
				<g>
					<g>
						<path d="M24.554,47.28l0.6142-0.0695c0.1012-0.0114,0.1863-0.0058,0.2553,0.0167c0.1312,0.0436,0.2056,0.1429,0.2231,0.298
							c0.0092,0.081,0,0.1491-0.0276,0.2044c-0.0276,0.0553-0.0697,0.102-0.1262,0.14c0.0552,0.0155,0.0981,0.0392,0.1287,0.0711
							c0.0306,0.032,0.0519,0.087,0.0639,0.1651l0.027,0.1805c0.0077,0.0513,0.0163,0.0892,0.0259,0.1135
							c0.0159,0.0417,0.0387,0.067,0.0683,0.0761l0.0034,0.0303l-0.2245,0.0254c-0.0074-0.011-0.0141-0.0254-0.0198-0.0434
							c-0.0058-0.018-0.0129-0.0532-0.0213-0.1056l-0.0365-0.2241c-0.0142-0.0878-0.0528-0.1434-0.1157-0.1667
							c-0.0358-0.0127-0.0901-0.015-0.1628-0.0067l-0.4049,0.0458l0.0656,0.5796l-0.1831,0.0207L24.554,47.28z M25.2186,47.8318
							c0.0835-0.0095,0.1476-0.0341,0.1923-0.074c0.0447-0.0398,0.062-0.1045,0.0519-0.1941
							c-0.0109-0.0963-0.0523-0.1581-0.1243-0.1853c-0.0385-0.0143-0.0881-0.018-0.1489-0.0111l-0.4348,0.0492l0.0523,0.4618
							L25.2186,47.8318z"/>
					</g>
				</g>
				<g>
					<g>
						<path d="M26.3553,47.1221l0.2077-0.0103l0.5607,1.3337l-0.2016,0.0101L26.76,48.0557l-0.5329,0.0265l-0.127,0.4142
							l-0.1886,0.0094L26.3553,47.1221z M26.7003,47.9085l-0.239-0.5897l-0.1874,0.6109L26.7003,47.9085z"/>
					</g>
				</g>
				<g>
					<g>
						<path d="M27.6829,47.0709l0.1861-0.0032l0.0097,0.5619l0.6989-0.0121l-0.0097-0.5619l0.1861-0.0032l0.0236,1.3598
							l-0.1861,0.0032l-0.011-0.6359l-0.6989,0.0121l0.011,0.6359l-0.1861,0.0032L27.6829,47.0709z"/>
					</g>
				</g>
				<g>
					<g>
						<path d="M29.4492,47.0487l0.208-0.0008l0.4986,1.3581l-0.2018,0.0008L29.8105,48l-0.5336,0.002l-0.146,0.4079l-0.1889,0.0007
							L29.4492,47.0487z M29.7576,47.8502l-0.2116-0.6001l-0.2154,0.6016L29.7576,47.8502z"/>
					</g>
				</g>
				<g>
					<g>
						<path d="M31.261,47.1524c0.0933,0.0914,0.1447,0.1948,0.1543,0.3103l-0.1796-0.0013
							c-0.0194-0.0878-0.0587-0.1575-0.1181-0.2092c-0.0594-0.0516-0.143-0.0778-0.2508-0.0786
							c-0.1315-0.0009-0.2381,0.0454-0.3197,0.139c-0.0816,0.0936-0.1231,0.2378-0.1245,0.4323
							c-0.0011,0.1594,0.0345,0.2889,0.1069,0.3885c0.0723,0.0997,0.181,0.15,0.3258,0.151
							c0.1334,0.001,0.2353-0.0505,0.3058-0.1543c0.0374-0.0546,0.0655-0.1267,0.0843-0.216l0.1796,0.0013
							c-0.0169,0.1431-0.0702,0.2628-0.1599,0.359c-0.1076,0.1159-0.252,0.1732-0.4332,0.1719
							c-0.1562-0.0011-0.287-0.0499-0.3925-0.1464c-0.1388-0.1276-0.2073-0.3235-0.2054-0.5879
							c0.0014-0.2007,0.055-0.3649,0.1609-0.4926c0.1144-0.1388,0.2714-0.2074,0.4709-0.206
							C31.036,47.0147,31.1677,47.061,31.261,47.1524z"/>
					</g>
				</g>
				<g>
					<g>
						<path d="M31.6612,47.0577l0.1861,0.0043l-0.0129,0.5618l0.6988,0.016l0.0129-0.5618l0.186,0.0043l-0.0312,1.3596
							l-0.186-0.0043l0.0146-0.6358l-0.6988-0.016l-0.0146,0.6358l-0.186-0.0043L31.6612,47.0577z"/>
					</g>
				</g>
				<g>
					<g>
						<path d="M33.0561,47.0957l0.1859,0.0074l-0.0539,1.3589l-0.1859-0.0074L33.0561,47.0957z"/>
					</g>
				</g>
				<g>
					<g>
						<path d="M33.5621,47.1135l0.6168,0.041c0.1016,0.0067,0.1843,0.0274,0.2483,0.062c0.1213,0.0662,0.1768,0.1772,0.1664,0.333
							c-0.0054,0.0813-0.0266,0.1467-0.0636,0.1962c-0.037,0.0495-0.0867,0.0879-0.1492,0.1153
							c0.0515,0.0251,0.0895,0.0561,0.114,0.0929c0.0245,0.0369,0.0356,0.0948,0.0334,0.1739l-0.0056,0.1824
							c-0.0016,0.0518,0.0001,0.0906,0.0052,0.1163c0.0082,0.0438,0.0261,0.0729,0.0536,0.0871l-0.002,0.0304l-0.2254-0.015
							c-0.0054-0.0121-0.0093-0.0275-0.0118-0.0463c-0.0025-0.0187-0.0032-0.0546-0.0021-0.1077l0.004-0.227
							c0.0018-0.089-0.0263-0.1505-0.0841-0.1847c-0.033-0.0189-0.086-0.0308-0.159-0.0356l-0.4065-0.0271l-0.0388,0.582
							l-0.1838-0.0122L33.5621,47.1135z M34.1178,47.7749c0.0838,0.0056,0.1513-0.0072,0.2024-0.0385
							c0.0511-0.0312,0.0796-0.0918,0.0856-0.1817c0.0064-0.0967-0.0233-0.1648-0.0892-0.2045
							c-0.0353-0.0209-0.0835-0.0334-0.1446-0.0374l-0.4366-0.0291l-0.0309,0.4637L34.1178,47.7749z"/>
					</g>
				</g>
				<g>
					<g>
						<path d="M34.9783,47.2266l0.1846,0.0232l-0.1694,1.3494l-0.1846-0.0232L34.9783,47.2266z"/>
					</g>
				</g>
			</g>
		</g>
	</g>
</g>
</svg>
