<?xml version="1.0" encoding="utf-8"?>
<!-- Generator: Adobe Illustrator 21.0.2, SVG Export Plug-In . SVG Version: 6.00 Build 0)  -->
<svg version="1.1" id="Layer_1" xmlns="http://www.w3.org/2000/svg" xmlns:xlink="http://www.w3.org/1999/xlink" x="0px" y="0px"
	 viewBox="0 0 335 335" style="enable-background:new 0 0 335 335;" xml:space="preserve">
<style type="text/css">
	.st0{fill:#FFFFFF;}
	.st1{fill:#EE3424;}
	.st2{fill:#0055A4;}
	.st3{fill:#008A5F;}
	.st4{fill:#FDBB30;}
</style>
<g>
	<g>
		<path class="st0" d="M331.6516,133.9733c-1.5602-7.6402-3.6627-15.1012-6.2151-22.3215H201.0979L75.1985,27.7235
			c-6.5545,4.34-12.7917,9.1444-18.6619,14.3372l137.849,91.9126H331.6516z"/>
		<path class="st0" d="M325.4365,223.3481c2.5525-7.228,4.6549-14.6812,6.2151-22.3284h-137.266l-137.849,91.9118
			c5.8702,5.1852,12.1074,9.9895,18.6619,14.3296l125.8994-83.913H325.4365z"/>
		<path class="st1" d="M325.4365,111.6519C302.4231,46.6107,240.4201,0,167.5034,0c-34.1071,0-65.8342,10.2217-92.3049,27.7235
			l125.8994,83.9283H325.4365z"/>
		<path class="st2" d="M325.4365,223.3481H201.0979l-125.8994,83.913C101.6692,324.7637,133.3963,335,167.5034,335
			C240.4201,335,302.4231,288.374,325.4365,223.3481z"/>
		<path class="st3" d="M331.6516,201.0198c2.1883-10.8355,3.3561-22.0449,3.3561-33.5087c0-11.5013-1.1678-22.7176-3.3561-33.5378
			h-137.266L56.5366,42.0607c-16.8367,14.8989-30.646,33.1117-40.4003,53.6525l107.6713,71.7979l-107.6713,71.768
			c9.7543,20.5484,23.5636,38.7613,40.4003,53.6525l137.849-91.9118H331.6516z"/>
		<path class="st4" d="M16.1364,95.7132c-3.2435,6.8395-6.0572,13.9403-8.3659,21.2434l75.8016,50.5545L7.7705,218.0427
			c2.3087,7.3184,5.1223,14.3901,8.3659,21.2365l107.6713-71.768L16.1364,95.7132z"/>
		<path d="M7.7705,116.9566C2.7347,132.9251,0,149.8967,0,167.5111c0,17.5999,2.7347,34.5783,7.7705,50.5316l75.8016-50.5316
			L7.7705,116.9566z"/>
	</g>
</g>
</svg>
