<?xml version="1.0" encoding="utf-8"?>
<!-- Generator: Adobe Illustrator 21.1.0, SVG Export Plug-In . SVG Version: 6.00 Build 0)  -->
<svg version="1.1" id="Layer_1" xmlns="http://www.w3.org/2000/svg" xmlns:xlink="http://www.w3.org/1999/xlink" x="0px" y="0px"
	 viewBox="0 0 60 60" style="enable-background:new 0 0 60 60;" xml:space="preserve">
<style type="text/css">
	.st0{fill:#198A00;}
	.st1{fill:#EF7D00;}
	.st2{fill:#DE2010;}
	.st3{fill:#291908;}
</style>
<g>
	<g>
		<g>
			<path class="st0" d="M38.7165,19.357v0.0027H49.359h8.6629C53.7254,8.0521,42.8162,0,29.9987,0C13.4287,0,0,13.4292,0,29.9987
				c0,15.922,12.4101,28.9117,28.0796,29.9074V19.357H38.7165z"/>
			<path class="st1" d="M49.359,19.3598v33.541C55.8602,47.3963,60,39.186,60,29.9987c0-3.7501-0.7169-7.3272-1.9781-10.6389H49.359
				z"/>
			<path d="M38.7165,58.7066c3.9576-1.2022,7.5627-3.2005,10.6424-5.8058v-33.541H38.7165V58.7066z"/>
			<path class="st2" d="M38.7165,58.7066V19.3598V19.357H28.0796v40.5491C28.7161,59.9463,29.3527,60,29.9987,60
				C33.0316,60,35.9558,59.5416,38.7165,58.7066z"/>
		</g>
		<g>
			<path class="st3" d="M51.916,10.5597c-0.1287,0.0482-0.2359,0.1274-0.3524,0.1916c-0.2306,0.1448-0.4597,0.2882-0.6982,0.4142
				c0.1246-0.1046,0.2439-0.2185,0.351-0.3458c0.1381-0.1648,0.2668-0.3511,0.3056-0.5642
				c0.0107-0.0656,0.0228-0.1488-0.0309-0.1943c-0.1032-0.0335-0.205,0.0214-0.3015,0.0604
				c-0.4261,0.2197-0.8203,0.4931-1.2357,0.7304c0.2306-0.1957,0.457-0.4021,0.6206-0.6567
				c0.0388-0.0657,0.1018-0.1636,0.0414-0.2387c-0.0469-0.0361-0.0884,0.0228-0.126,0.0416
				c-0.201,0.1234-0.402,0.2211-0.6137,0.3203c-0.6648,0.3177-1.3349,0.6139-2.0062,0.9047
				c0.0977-0.118,0.2104-0.2466,0.2157-0.4061c0-0.1059-0.1394-0.1541-0.2118-0.0965c-0.0697,0.0469-0.1448,0.0858-0.2238,0.1219
				c-0.2694,0.1234-0.5576,0.2118-0.847,0.2949c-0.477,0.1327-0.9609,0.2452-1.4488,0.3391
				c-0.3631,0.1179-0.725,0.256-1.0949,0.3631c-0.13,0.0349-0.2573,0.0804-0.3926,0.0804
				c-0.4437-0.0228-0.8846-0.0483-1.3268-0.0174c-0.2989,0.0134-0.5978,0.0416-0.8739,0.1488
				c-0.067-0.1743-0.1433-0.3712-0.0803-0.5588c0.0495-0.1541,0.2116-0.248,0.3725-0.2506c0.102,0.0026,0.2064-0.0081,0.2975-0.055
				c0.0725,0.063,0.0309,0.1569,0.0443,0.2399c0.0522,0.0214,0.0991-0.0228,0.1407-0.0482
				c0.1046-0.0791,0.1903-0.1997,0.1809-0.3364c-0.0133-0.1032-0.0898-0.1864-0.1809-0.2359
				c-0.1688-0.0952-0.3726-0.126-0.5683-0.1501c-0.2171-0.2131-0.5253-0.2962-0.8242-0.2922
				c-0.3417-0.004-0.6848,0.1474-0.9261,0.3954c-0.2867,0.2922-0.4422,0.6916-0.52,1.083
				c-0.6446-0.1985-1.3214-0.2842-1.9861-0.3942c-0.7519-0.2197-1.4474-0.587-2.1417-0.9368
				c-0.1232-0.0576-0.2466-0.1219-0.3752-0.1635c-0.0563-0.0121-0.1448-0.0202-0.1689,0.0509
				c-0.0107,0.0697,0.0376,0.1327,0.0738,0.189c0.1433,0.209,0.331,0.3887,0.4998,0.5776c-0.6406-0.3552-1.3-0.6674-1.97-0.9582
				c-0.2828-0.1099-0.5374-0.2801-0.7975-0.4397c-0.0602-0.0321-0.1232-0.0777-0.1969-0.0749
				c-0.055,0.0107-0.0657,0.0791-0.0711,0.1286c-0.0054,0.1662,0.0844,0.3176,0.1662,0.4556
				c0.1836,0.2761,0.4101,0.52,0.6499,0.7466c-0.1608-0.0711-0.3136-0.1515-0.4717-0.2292
				c-0.1046-0.0537-0.2064-0.1099-0.3029-0.1796c-0.2561-0.1393-0.4182-0.398-0.6513-0.5695
				c-0.0416-0.0255-0.1032-0.0657-0.1501-0.0228c-0.0322,0.0456-0.0242,0.1125-0.0188,0.1688
				c0.0495,0.3485,0.2319,0.6675,0.473,0.914c-0.1326-0.1098-0.2653-0.2144-0.3966-0.3216c-0.0683-0.0497-0.13-0.1113-0.2131-0.1287
				c-0.0495-0.0133-0.1018,0.0295-0.0965,0.0778c0,0.0937,0.0469,0.1755,0.0858,0.2573c0.1112,0.2023,0.2546,0.3806,0.4342,0.5226
				c-0.1367-0.083-0.268-0.1769-0.3847-0.2868c-0.0469-0.0335-0.0991-0.0937-0.1674-0.0656
				c-0.0511,0.0416-0.0309,0.1125-0.0174,0.1702c0.0442,0.1622,0.1567,0.3069,0.2747,0.4289
				c0.2546,0.268,0.5883,0.4517,0.9247,0.6072c0.3015,0.1313,0.6111,0.2359,0.93,0.3203c-0.0925,0.0228-0.1943,0.0228-0.2774,0.0644
				c-0.039,0.0482-0.0027,0.1086,0.0281,0.1527c0.0763,0.0858,0.1809,0.1327,0.2868,0.1662
				c0.2922,0.0965,0.6084,0.0911,0.9154,0.0911c-0.2145,0.0818-0.449,0.0602-0.6608,0.1367
				c-0.0777,0.0442-0.0081,0.13,0.0402,0.1635c0.2306,0.1689,0.5133,0.2238,0.788,0.2507c0.2601,0.024,0.5227-0.0242,0.78-0.0792
				c-0.0737,0.0295-0.1501,0.0618-0.2252,0.0792c-0.126,0.0228-0.252,0.024-0.3738,0.0576
				c-0.0081,0.0133-0.0202,0.0361-0.0255,0.0495c0.0174,0.063,0.0697,0.1139,0.1287,0.146
				c0.1474,0.0965,0.3229,0.1381,0.4998,0.1622c0.4263,0.0456,0.851-0.0349,1.2612-0.1394
				c-0.2226,0.1006-0.4678,0.1434-0.6915,0.2399c0.0054,0.0281,0.0026,0.0618,0.0268,0.0858
				c0.0871,0.102,0.2104,0.1662,0.335,0.2092c0.1836,0.0697,0.3847,0.063,0.5776,0.0388c0.0711-0.0093,0.1488-0.0147,0.2131-0.0523
				l0.0026-0.004c0,0,0.0067,0.0067,0.0108,0.0093l-0.0041,0.0081c-0.0576,0.0307-0.1206,0.0683-0.1514,0.126
				c-0.0107,0.0723,0.0804,0.0965,0.1339,0.1193c0.2399,0.067,0.4879,0.0161,0.7238-0.0362
				c-0.0497,0.0416-0.142,0.0657-0.1448,0.1408c0.0309,0.071,0.1153,0.1018,0.189,0.1098c0.1862,0.0174,0.3806-0.0254,0.5616-0.0737
				c0.059-0.0133,0.1139-0.0375,0.1662-0.0723c-0.0523,0.0456-0.1046,0.0911-0.1287,0.1555
				c-0.0054,0.067,0.0242,0.1407,0.0871,0.1648c0.0777,0.0349,0.1676,0.0228,0.248,0.0161
				c0.2573-0.0307,0.4958-0.1193,0.7397-0.1969c-0.0817,0.067-0.1983,0.142-0.1943,0.2586
				c0.0725,0.1408,0.2145,0.2319,0.3659,0.2801c0.2721,0.0792,0.5697,0.0618,0.8417-0.0214
				c-0.0188,0.0858-0.0495,0.1662-0.0442,0.2547c0.0697,0.0294,0.1112-0.039,0.1514-0.0885
				c-0.1058,0.3069-0.1219,0.6353-0.2023,0.9489c-0.0161,0.0456,0.0161,0.0791,0.0576,0.0939
				c0.1393-0.0483,0.2304-0.1716,0.3041-0.2949c-0.0187,0.1569-0.079,0.3191-0.0388,0.4744
				c0.0309,0.0067,0.059,0.0162,0.0911,0.0242c-0.0402,0.1434-0.126,0.2882-0.272,0.3445
				c-0.1032,0.0495-0.2225,0.0254-0.3338,0.0495c-0.1193,0.0214-0.2332,0.0804-0.3162,0.1716
				c-0.0764,0.0899-0.1166,0.205-0.1394,0.3163c-0.0321,0.1072-0.0309,0.2252-0.0027,0.335
				c0.0188,0.0027,0.0497,0.0095,0.0683,0.0107c0.0483-0.0589,0.0818-0.1286,0.1274-0.1956
				c0.1555,0.0214,0.3136-0.0107,0.4544-0.0778c-0.0442,0.1046-0.0469,0.2252,0.0093,0.3244
				c-0.0026,0.1205,0.0174,0.2653,0.13,0.3364c0.055,0.0254,0.1301,0.0751,0.1783,0.0174c0.0027-0.0683-0.0576-0.126-0.0509-0.1971
				c0.1046-0.0309,0.2118-0.083,0.2734-0.1769c0.0148-0.0174,0.0228-0.0456,0.0509-0.0616
				c0.0416,0.0979,0.1046,0.1769,0.1796,0.2479c0.0255,0.1046,0.0885,0.2118,0.1957,0.2426
				c0.0549,0.0174,0.1648,0.0495,0.1595-0.0388c-0.0549-0.0711-0.1153-0.1527-0.1046-0.252c0.0604-0.0832,0.13-0.1608,0.1515-0.2654
				c0.0361,0.0402,0.0751,0.0791,0.1153,0.1099c0.0268,0.0242,0.0817,0.0161,0.0858-0.0242
				c-0.0081-0.0723-0.0269-0.1407-0.0323-0.2157c0.0965,0.0107,0.189-0.02,0.2627-0.0737c-0.0054,0.0898-0.008,0.1904,0.0483,0.2694
				c0.0428,0.0509,0.0242,0.1219,0.0349,0.1862c0.008,0.0965,0.079,0.1823,0.1795,0.2038c0.043,0.0054,0.1059,0.0294,0.1408-0.0188
				c0.0147-0.0495-0.039-0.0818-0.0523-0.1234c-0.0135-0.0402-0.0295-0.0858-0.0054-0.1219
				c0.0576-0.0362,0.1179-0.0751,0.1514-0.1355c0.0939-0.1474,0.0804-0.331,0.063-0.4985c0.0081-0.0081,0.0202-0.0269,0.0309-0.0349
				c0.0307,0.0951,0.0549,0.205,0.1327,0.2734c0.067,0.059,0.1527,0.063,0.2318,0.063c0,0.063-0.0335,0.1112-0.0576,0.1648
				c-0.0268,0.0295,0.0054,0.0791,0.043,0.0737c0.1219,0.004,0.2546-0.0602,0.3001-0.1823
				c0.0523-0.1434,0.0858-0.3082,0.0281-0.4517c-0.0388-0.1018-0.1327-0.1676-0.2304-0.2199
				c0.0361-0.0107,0.0709-0.0361,0.1058-0.0173c0.0885,0.0307,0.1689,0.0803,0.2252,0.1595c0.0254,0.0414,0.0965,0.02,0.1044-0.0269
				c0.0108-0.1179-0.0495-0.2385-0.1367-0.3176c-0.1219-0.1086-0.3015-0.0469-0.4449-0.1113
				c-0.0026-0.0563-0.0067-0.1125-0.008-0.1648c0.1527,0.0791,0.3243,0.1743,0.5065,0.1515
				c-0.0027-0.0309,0.004-0.059-0.0107-0.0818c-0.1394-0.2587-0.3417-0.4932-0.4142-0.7813
				c0.1555,0.0858,0.2668,0.2546,0.4477,0.2639c0.0442,0,0.1327-0.0093,0.1206-0.0749c-0.0188-0.0818-0.1125-0.1059-0.1783-0.1475
				c-0.1005-0.0523-0.1715-0.1514-0.2252-0.2506c0.1824,0.1488,0.3928,0.2896,0.6327,0.2868
				c0.0763,0.0107,0.1018-0.0723,0.1086-0.1313c0.2345,0.1501,0.516,0.2922,0.8054,0.2037c0.083-0.0093,0.1246-0.1112,0.1046-0.1902
				c-0.0188-0.0751-0.0952-0.1153-0.1541-0.1608c-0.1408-0.0871-0.2828-0.1783-0.4048-0.2908
				c0.264,0.1488,0.5415,0.2801,0.8391,0.3538c0.1621,0.0388,0.3443,0.0616,0.5026-0.0081c0.067-0.0281,0.0723-0.1232,0.0349-0.1836
				c-0.079-0.1367-0.2118-0.2251-0.3257-0.3229c0.0281,0.0014,0.0523,0.0067,0.0737,0.0161
				c0.2371,0.0349,0.4905-0.0202,0.6862-0.1581c0.0549-0.0402,0.0161-0.1086-0.0295-0.1408
				c0.1581-0.0093,0.3189-0.0295,0.4597-0.0884c0.0442-0.0228,0.1058-0.0509,0.0937-0.1099
				c-0.0161-0.0711-0.0898-0.0992-0.1407-0.126c0.4101-0.0268,0.8134-0.1541,1.1767-0.3538
				c0.0965-0.0537,0.1862-0.122,0.2841-0.1716c0.0322-0.0188,0.0349-0.0576,0.043-0.0832c0.4463-0.0737,0.8845-0.1742,1.3107-0.3243
				c0.4851-0.1742,0.9514-0.4087,1.3387-0.7465c0.1877-0.1703,0.3659-0.3579,0.4732-0.5911
				c0.0161-0.0442,0.0535-0.1099,0.008-0.1541c-0.0414-0.0255-0.0951,0-0.1393,0.0134c0.2237-0.1864,0.4315-0.39,0.6058-0.6192
				c0.0482-0.063,0.0991-0.1274,0.1272-0.2038c0.0174-0.0575-0.0307-0.13-0.0991-0.1179c-0.1434,0.0107-0.2747,0.0871-0.4088,0.1381
				c0.2198-0.1743,0.4142-0.3752,0.579-0.6044c0.0697-0.1113,0.1488-0.2306,0.1769-0.3659
				C52.0286,10.5879,51.9737,10.5316,51.916,10.5597z M42.3364,17.1336c-0.1232,0.0054-0.2532-0.0067-0.3779,0.0242
				c-0.0535,0.0081-0.1072,0.0362-0.1634,0.0469c-0.0818-0.0281-0.1595-0.0711-0.2278-0.1193
				c-0.0309-0.0134-0.0228-0.0537-0.0281-0.0832c-0.0135-0.142-0.0027-0.2841,0.0054-0.4275
				c0.0523,0.063,0.1044,0.126,0.1741,0.1676c0.0281,0.0161,0.0563,0.0054,0.079,0c-0.0026-0.1073-0.0066-0.2145-0.0187-0.3191
				c-0.0134-0.083-0.055-0.1621-0.0443-0.2465c0.0402-0.3431,0.043-0.6929,0.0511-1.0388c0.1688,0.331,0.3538,0.6675,0.4247,1.0388
				c0.0456,0.2197,0.0202,0.4475-0.0161,0.666c0.0616,0.0388,0.1287,0.0121,0.1743-0.0362c0.008,0.0778,0.0133,0.1555,0.0174,0.2373
				C42.3914,17.0787,42.3686,17.1175,42.3364,17.1336z"/>
			<path class="st1" d="M32.5558,9.7824c0.0509,0.008,0.0937,0.0307,0.1393,0.0535c0.2118,0.1355,0.4235,0.2735,0.6473,0.3833
				c0.7519,0.3231,1.493,0.6688,2.1993,1.0749c0.1607,0.0925,0.3322,0.1703,0.4984,0.2507
				c-0.1662,0.1005-0.3605,0.1648-0.5574,0.1688c-0.0362,0-0.0939,0-0.0832,0.0509c0.0242,0.1193,0.1367,0.1983,0.2494,0.2171
				c0.1702,0.0281,0.3457,0,0.5119-0.0456c-0.1555,0.1474-0.3215,0.2908-0.5226,0.3619c-0.0376,0.0616,0.0509,0.0937,0.0965,0.1099
				c0.252,0.0696,0.5172,0.0549,0.7719,0.0187c-0.1234,0.126-0.244,0.2682-0.3994,0.3633c-0.0362,0.0228,0.004,0.083,0.0388,0.0937
				c0.1018,0.0309,0.2078,0.0255,0.3096,0.0255c0.1072-0.0054,0.2171-0.0107,0.3215-0.0442
				c-0.0937,0.0804-0.2171,0.1327-0.3189,0.2076c0.0027,0.0134,0.0027,0.0402,0.0081,0.0523
				c0.0898,0.0388,0.1957,0.0362,0.2962,0.0362c0.2922-0.0121,0.5749-0.0939,0.8484-0.1876
				c-0.1903,0.1339-0.3847,0.2694-0.6004,0.3618c-0.0322,0.0202-0.0737,0.0242-0.0832,0.0671
				c0.004,0.0242,0.0202,0.0361,0.0456,0.0428c0.1823,0.059,0.3645,0.126,0.5576,0.1153c0.3431-0.0147,0.6727-0.1448,0.9891-0.2748
				c-0.2091,0.1582-0.4249,0.2989-0.646,0.4383c-0.0309,0.0228-0.0671,0.0482-0.0443,0.0911
				c0.0362,0.0642,0.1153,0.0777,0.1757,0.1058c-0.2842,0.2775-0.6541,0.4946-1.0548,0.5562
				c-0.2894,0.0456-0.6137,0.008-0.8336-0.205c0.2533-0.0818,0.5119-0.1408,0.7519-0.268c0.0683-0.039,0.1367-0.0764,0.1702-0.1462
				c0.0161-0.059-0.0469-0.059-0.0832-0.0428c-0.3296,0.1086-0.6634,0.1943-1.0037,0.2251
				c-0.2787,0.0269-0.5629,0.0214-0.8282-0.0763c-0.0725-0.0283-0.1462-0.0657-0.2038-0.1274
				c0.1475-0.0228,0.2989-0.0161,0.437-0.0791c0.3001-0.1153,0.6111-0.2118,0.9086-0.331c0.0295-0.0134,0.0844-0.0242,0.0764-0.0697
				c-0.0081-0.0509-0.0683-0.0335-0.0992-0.0255c-0.4249,0.126-0.8591,0.2533-1.2987,0.2989
				c-0.2252,0.0161-0.457-0.0134-0.6741-0.0764c-0.1313-0.0388-0.2694-0.0925-0.374-0.189
				c0.1193-0.0295,0.2426-0.0414,0.3619-0.0589c0.1059-0.0121,0.205-0.0509,0.3082-0.0792
				c0.2761-0.0858,0.5576-0.1795,0.8363-0.2774c0.0402-0.0188,0.1072-0.0295,0.1058-0.0898c-0.0228-0.055-0.087-0.0255-0.13-0.0174
				c-0.2413,0.0616-0.473,0.142-0.7062,0.205c-0.1139,0.0254-0.2319,0.0228-0.3498,0.0281
				c-0.2157-0.0027-0.4316-0.0107-0.638-0.0602c-0.1339-0.0362-0.2734-0.0871-0.3564-0.2024c0.1742-0.043,0.3564-0.0456,0.536-0.067
				c0.2252-0.0362,0.4477-0.0858,0.6701-0.1381c0.0442-0.0054,0.0576-0.0469,0.0442-0.0832
				c-0.0442-0.0214-0.0911-0.0054-0.13,0.0054c-0.1957,0.0416-0.386,0.0939-0.5816,0.1274c-0.063,0.0161-0.126-0.0081-0.185-0.02
				c-0.4356-0.1127-0.8631-0.2533-1.2652-0.457c-0.268-0.1422-0.524-0.3084-0.7264-0.5362
				c-0.0978-0.1153-0.1862-0.2439-0.2144-0.394c0.1608,0.1206,0.3029,0.2627,0.4905,0.3471c0.39,0.165,0.7854,0.3217,1.1753,0.4786
				c0.2935,0.1219,0.5817,0.2466,0.8805,0.3511c0.0402,0.0134,0.0778-0.02,0.0657-0.0616
				c-0.0483-0.0361-0.1113-0.0523-0.1676-0.0777c-0.2425-0.0952-0.4851-0.189-0.7264-0.2882
				c-0.3324-0.1407-0.6648-0.2975-0.9917-0.4543c-0.2118-0.0939-0.3672-0.2668-0.4986-0.4517
				c-0.067-0.1086-0.1367-0.2212-0.1636-0.3526c0.0911,0.0416,0.1689,0.1072,0.2466,0.1676c0.252,0.2024,0.4999,0.4275,0.8082,0.54
				c0.7224,0.2975,1.4447,0.6004,2.1671,0.894c0.0349,0.0081,0.0737,0.0376,0.1099,0.0134c0.0482-0.0576-0.0416-0.0992-0.0858-0.122
				c-0.6165-0.2653-1.2571-0.4824-1.8763-0.7518c-0.1367-0.0683-0.2801-0.1313-0.4101-0.2171
				c-0.3284-0.2159-0.5776-0.5416-0.6875-0.9181c-0.0255-0.083-0.0376-0.1688-0.0416-0.2492
				c0.2359,0.1488,0.39,0.4007,0.6246,0.5507c0.0898,0.0511,0.1676,0.1153,0.2573,0.1582c0.2787,0.1488,0.5628,0.2815,0.847,0.4141
				c0.4396,0.2038,0.8831,0.4035,1.324,0.6058c0.043,0.0215,0.0898,0.0483,0.1394,0.0537c0.0442,0.0067,0.0495-0.0711,0.0147-0.0818
				c-0.0281-0.0187-0.0576-0.0335-0.083-0.0468c-0.4047-0.1957-0.8108-0.3861-1.2169-0.5831
				c-0.102-0.0549-0.2145-0.0991-0.2989-0.1781c-0.2373-0.2118-0.453-0.4451-0.6353-0.7104
				C32.6455,10.1322,32.5397,9.966,32.5558,9.7824L32.5558,9.7824z"/>
			<path class="st1" d="M49.6471,10.5477c0.2827-0.1327,0.5616-0.2734,0.8429-0.4182c-0.1313,0.2037-0.3055,0.374-0.4784,0.5348
				c-0.4891,0.4261-1.0493,0.7625-1.6497,1.0038c-0.3753,0.1581-0.7693,0.2894-1.1673,0.3861
				c-0.0523,0.0054-0.0469,0.0602-0.0309,0.0991c-0.3619-0.0388-0.7264-0.0937-1.0829-0.1674
				c0.4263-0.1194,0.8458-0.2587,1.2584-0.4223c0.1327-0.0509,0.2587-0.1206,0.3928-0.1662
				C48.3726,11.1239,49.0079,10.8425,49.6471,10.5477L49.6471,10.5477z"/>
			<path class="st1" d="M51.1039,10.2917c0.1046-0.0576,0.209-0.1139,0.3243-0.1381c-0.008,0.1943-0.1153,0.3699-0.2318,0.52
				c-0.205,0.2654-0.4704,0.4772-0.7438,0.6674c-0.1864,0.1274-0.3833,0.248-0.5911,0.3579
				c-0.9528,0.465-1.9419,0.8403-2.9632,1.1191c0.0027-0.0242,0.0027-0.0509,0.0027-0.0777
				c-0.0268-0.0362-0.0657-0.0644-0.0978-0.0939c0.3391,0.0214,0.701-0.059,0.9542-0.2989
				c0.0523-0.0576,0.1274-0.1139,0.1474-0.1862c0-0.0497-0.0563-0.0349-0.0844-0.0295c-0.189,0.0428-0.3913,0.0428-0.583,0.0188
				c0.3847-0.0804,0.764-0.2064,1.1271-0.3579c0.2466-0.1018,0.4851-0.2238,0.7278-0.3445c0.4865-0.2439,0.9556-0.52,1.4152-0.8041
				C50.7018,10.5235,50.8989,10.4016,51.1039,10.2917L51.1039,10.2917z"/>
			<path class="st1" d="M35.0097,10.423c0.1072,0.0093,0.2023,0.063,0.3001,0.1058c0.7466,0.3673,1.4783,0.7707,2.2796,0.9998
				c0.6327,0.1073,1.2733,0.185,1.8884,0.3686c0.0978,0.0228,0.1943,0.0683,0.2908,0.1018
				c0.0349,0.0281,0.0832-0.0307,0.0483-0.0576c-0.0388-0.0388-0.0832-0.0751-0.1234-0.1099
				c0.0845-0.3806,0.2333-0.7653,0.5255-1.0426c0.2573-0.2547,0.6392-0.3754,0.9917-0.331
				c0.2211,0.0281,0.4423,0.1005,0.5978,0.2586c0.0268,0.0242,0.0589,0.0269,0.0884,0.0323
				c0.1769,0.0228,0.3552,0.0509,0.5079,0.1393c0.0711,0.0402,0.1434,0.1099,0.1327,0.1971
				c-0.0135,0.0911-0.0777,0.1648-0.1407,0.2185c-0.0107-0.0644-0.0281-0.1381-0.0832-0.1796
				c-0.1219-0.0925-0.2894-0.0723-0.4261-0.1367c-0.0388-0.0054-0.0844-0.0482-0.122-0.0161
				c-0.0242,0.0242-0.008,0.0656,0.0242,0.0751c0.0844,0.0495,0.1876,0.0616,0.2761,0.1072c-0.181-0.0054-0.3807,0.0335-0.496,0.185
				c-0.1381,0.1795-0.1018,0.4315-0.0281,0.6325c-0.0656-0.0791-0.1072-0.1676-0.1514-0.2573
				c-0.0161-0.0509-0.1046-0.02-0.079,0.0321c0.063,0.1729,0.1809,0.327,0.3296,0.4423c0.2627,0.1716,0.461,0.4142,0.6406,0.6621
				c0.0549,0.0804,0.126,0.1608,0.146,0.2627c0.0657,0.3485,0.1327,0.6997,0.1729,1.0495c0.0214,0.0054,0.0523,0.0107,0.0737,0.0134
				c0.0135-0.0899-0.0054-0.1824-0.0188-0.2761c-0.0335-0.2238-0.0723-0.4423-0.1151-0.6701
				c0.4261,0.4705,0.914,0.8792,1.4219,1.2558c0.1206,0.1757,0.2841,0.3124,0.4423,0.4451
				c0.0844,0.0683,0.1674,0.1367,0.2292,0.2251c-0.2775,0.0081-0.5334-0.1112-0.7666-0.2466
				c-0.2949-0.1823-0.5629-0.4034-0.7719-0.6728c-0.0443-0.0549-0.063-0.1246-0.1194-0.1635
				c-0.0468,0.0054-0.0616,0.0549-0.0442,0.0951c0.0269,0.0911,0.0925,0.1648,0.1527,0.2399
				c0.1569,0.1836,0.327,0.3485,0.4825,0.5307c0.063,0.0804,0.142,0.1569,0.1569,0.2613c-0.1515,0.0121-0.2908-0.0509-0.4276-0.1098
				c-0.2037-0.0979-0.3994-0.2225-0.5655-0.374c-0.1086-0.1327-0.213-0.2774-0.3484-0.3913
				c-0.0295-0.0295-0.0642,0.008-0.0844,0.0254c0.0992,0.1595,0.2252,0.2936,0.3578,0.4263
				c0.201,0.2613,0.3096,0.5776,0.4116,0.8859c0.0602,0.1795,0.1353,0.3631,0.2854,0.4931c0.0535,0.0443,0.126,0.0737,0.1862,0.122
				c-0.1569-0.0362-0.2573-0.1716-0.3926-0.2533c-0.0322-0.0187-0.0911-0.0428-0.1166-0.004
				c-0.0388,0.0523-0.0228,0.122-0.0054,0.1783c0.0911,0.2385,0.248,0.4477,0.3726,0.6701
				c-0.3217-0.0657-0.6031-0.2908-0.7278-0.5911c-0.0349-0.067-0.0469-0.1353-0.0751-0.1997
				c-0.0161-0.0268-0.0697-0.0188-0.0697,0.0134c-0.0093,0.2358-0.0777,0.481-0.229,0.6674
				c0.0335-0.2278,0.0361-0.4584-0.0162-0.6809c-0.0978-0.3968-0.3041-0.7585-0.4877-1.1204
				c-0.0281-0.0844-0.0443-0.1729-0.1032-0.2426c-0.1367-0.1783-0.3498-0.2613-0.5548-0.3283
				c-0.0965-0.0281-0.1743-0.0965-0.2587-0.1448c-0.0711-0.0375-0.1232-0.0979-0.1862-0.1488c-0.0174-0.0174-0.055,0-0.0564,0.0242
				c-0.0402,0.1032-0.0589,0.2104-0.0844,0.3189c-0.1179-0.2185-0.2694-0.4261-0.4302-0.6205
				c-0.2064,0.1755-0.461,0.3578-0.745,0.3216c0.1407-0.252,0.335-0.4637,0.5065-0.6916c-0.1541-0.1674-0.2787-0.3726-0.3082-0.6004
				c-0.0242-0.1849,0.0242-0.3699,0.0911-0.5442c0.0188-0.0575,0.0321-0.1125,0.0295-0.1742c-0.0188,0-0.0549,0-0.0683,0.0026
				c-0.0281,0.0657-0.0309,0.1434-0.079,0.2038c-0.2091,0.2627-0.4423,0.5173-0.7291,0.6983
				c-0.1769,0.1179-0.3806,0.1983-0.5802,0.2734c-0.2266,0.0844-0.4584,0.1567-0.7036,0.1688
				c-0.1474,0.0067-0.2868-0.0294-0.4209-0.083c0.3646-0.1943,0.6915-0.4517,1.0374-0.6755c0.0482-0.02,0.0161-0.1125-0.0376-0.0777
				c-0.331,0.1916-0.6955,0.3364-1.0802,0.4047c-0.126,0.0254-0.2599,0.0388-0.3926,0.0307
				c0.0604-0.0495,0.1232-0.0884,0.189-0.1272c0.2573-0.1729,0.5119-0.3498,0.7638-0.5254
				c0.2319,0.0616,0.4785,0.0482,0.7077-0.0283c-0.0402,0.059-0.0885,0.114-0.118,0.1796c0,0.0134,0.0054,0.0309,0.0081,0.0442
				c0.1193,0.0188,0.2399,0.0228,0.3645,0.0228c0.0402,0,0.0469-0.067,0.0081-0.0777c-0.0858-0.0161-0.1715-0.0134-0.2561-0.0188
				c0.0497-0.083,0.1166-0.1581,0.1715-0.2413c0.0309-0.0281-0.0161-0.0535-0.0254-0.0723
				c-0.2413,0.1274-0.516,0.1755-0.7787,0.1193c0.0657-0.0723,0.1462-0.1313,0.2024-0.2076
				c0.0187-0.0671-0.0523-0.0564-0.0952-0.0497c-0.2371,0.0523-0.4918,0.0242-0.7183-0.063
				c0.0737-0.0535,0.1916-0.083,0.2157-0.1795c-0.0482-0.063-0.1381-0.0162-0.201-0.0416c-0.3913-0.063-0.7571-0.2306-1.1163-0.398
				c-0.0978-0.055-0.2185-0.0832-0.2882-0.185c-0.185-0.2104-0.3914-0.4114-0.5616-0.638
				C35.0673,10.537,35.0378,10.4807,35.0097,10.423L35.0097,10.423z"/>
			<path class="st3" d="M40.6358,10.8064c0.1367-0.1072,0.2787-0.2131,0.4543-0.2466c0.1099-0.0202,0.248,0.0188,0.3003,0.1274
				c0.0442,0.063-0.0242,0.1326-0.079,0.1648c-0.1059,0.0563-0.2279,0.0214-0.3391,0
				C40.8636,10.8264,40.7483,10.8171,40.6358,10.8064L40.6358,10.8064z"/>
			<path class="st1" d="M40.8769,10.7406c0.0978-0.0563,0.201-0.1086,0.3177-0.0937c0.0563,0.0026,0.0911,0.0482,0.1274,0.0858
				c-0.0335,0.024-0.063,0.0616-0.1059,0.0616C41.1007,10.801,40.9935,10.7648,40.8769,10.7406L40.8769,10.7406z"/>
			<path class="st1" d="M51.4,10.9819c0.1608-0.0979,0.3203-0.2037,0.4892-0.2894c-0.1046,0.2399-0.2735,0.4449-0.4611,0.6299
				c-0.2304,0.2197-0.4851,0.4154-0.7599,0.5803c-0.4489,0.2238-0.8912,0.4544-1.3468,0.6581
				c-0.2064,0.0939-0.4182,0.1541-0.6273,0.2332c-0.0482,0.0188-0.0174,0.1153,0.0362,0.0965
				c0.2131-0.0482,0.4101-0.142,0.6178-0.2197c0.3471-0.1341,0.6915-0.2868,1.0158-0.4624
				c0.1823-0.0939,0.3458-0.2171,0.5348-0.2949c0.2439-0.1206,0.4891-0.2533,0.7505-0.3297
				c-0.0443,0.0965-0.1166,0.1809-0.1864,0.2641c-0.4235,0.4812-0.9435,0.8671-1.5037,1.1674
				c-0.4423,0.2278-0.9086,0.4114-1.3924,0.5319c-0.8832,0.2118-1.8066,0.2105-2.6952,0.0376
				c-0.0925-0.0188-0.1783-0.0416-0.2694-0.0549c-0.0495-0.0121-0.0764,0.071-0.0335,0.0951
				c0.0697,0.0321,0.1501,0.0388,0.2264,0.0563c0.8028,0.1876,1.6471,0.2037,2.4592,0.0483
				c0.5762-0.1139,1.1378-0.2989,1.6631-0.5683c0.2466-0.122,0.4839-0.2547,0.7198-0.394c0.1407-0.0858,0.2813-0.1743,0.4289-0.248
				c-0.1355,0.2708-0.3539,0.4839-0.5843,0.6675c-0.4047,0.3109-0.8738,0.5186-1.3563,0.6754
				c-0.4382,0.1341-0.8898,0.2306-1.3482,0.2868c-0.4276,0.0188-0.8537,0.0469-1.2812,0.1072
				c-0.2091-0.0937-0.4423-0.1286-0.6648-0.1943c-0.5883-0.1621-1.1513-0.4194-1.6485-0.7746v-0.0054
				c0.244,0.1232,0.5093,0.2225,0.78,0.2466c0.2118,0.02,0.4249-0.0027,0.6204-0.0844c0.0751-0.039,0.165-0.0229,0.2426-0.0229
				c0.1702-0.0026,0.3377,0,0.5012-0.024c0.0388-0.0067,0.0388-0.0497,0.0228-0.0778c-0.1246-0.0107-0.252,0.0161-0.3738,0.0148
				c-0.1206-0.0054-0.2413,0.0093-0.3565-0.0107c-0.193-0.106-0.3859-0.2011-0.5736-0.3124
				c0.3886,0.0804,0.7773,0.1501,1.178,0.1555c0.0911,0,0.1877,0.004,0.2761-0.0281c0.0442-0.0161,0.063-0.0683,0.0442-0.1072
				c-0.0228-0.0925-0.1165-0.122-0.1943-0.1582c0.1153,0.0107,0.2266,0.0107,0.3391,0c-0.004,0.0188-0.0121,0.0362-0.0228,0.055
				c0.0281,0.0375,0.067,0.0563,0.1086,0.0349c0.93-0.2507,1.8495-0.5495,2.7219-0.9637
				C50.147,11.6828,50.7808,11.3545,51.4,10.9819L51.4,10.9819z"/>
			<path class="st1" d="M47.7776,10.9028c0.0683-0.0362,0.1272-0.0832,0.201-0.106c0,0.0992-0.0537,0.1824-0.1086,0.2547
				c-0.1059,0.1434-0.244,0.2653-0.4035,0.3391c-0.2908,0.1272-0.5843,0.2345-0.8898,0.331
				c-0.3766,0.1206-0.7652,0.2358-1.1552,0.3001c-0.1313,0.0214-0.2627,0.0295-0.3967,0.0214
				c-0.0402-0.0107-0.0576,0.0269-0.0777,0.0497c0.0107,0.0133,0.024,0.0388,0.0321,0.0523
				c0.0978,0.0107,0.2037,0.0054,0.2841,0.0656c0.0242,0.0349-0.0174,0.067-0.0442,0.0844
				c-0.0683,0.0402-0.146,0.0618-0.2238,0.0778c-0.2478,0.0416-0.4972,0.008-0.7385-0.0442
				c-0.0495-0.0242-0.1044,0.0388-0.0656,0.0844c0.1125,0.0751,0.2385,0.1339,0.3338,0.2385
				c-0.2533,0.0188-0.508,0.0054-0.76-0.0309c-0.1219-0.0133-0.2211-0.0884-0.3364-0.1179
				c-0.0349-0.0093-0.0535,0.0321-0.0709,0.0495c0.0898,0.1515,0.3136,0.1099,0.4073,0.2547
				c-0.3001,0.0133-0.6137,0.0402-0.8992-0.0791c-0.0309,0.0228-0.0683,0.0656-0.0255,0.1005
				c0.0804,0.0442,0.1822,0.0523,0.248,0.1167c-0.1971,0.0307-0.4061,0.0281-0.6004-0.0323
				c-0.0725-0.0147-0.1018-0.0925-0.1434-0.1407c-0.126-0.1729-0.2613-0.3378-0.4168-0.4784
				c-0.055-0.055-0.1301-0.0939-0.1622-0.1676c0.4128-0.1274,0.843-0.1327,1.2731-0.1327c0.1971,0,0.4007,0.0107,0.5964,0.0214
				c0.1327,0.0067,0.2668,0.0309,0.3954-0.0026c0.4597-0.1099,0.9007-0.2855,1.3442-0.4289
				c0.6875-0.1408,1.371-0.2949,2.0304-0.5254C47.5296,11.0128,47.657,10.9605,47.7776,10.9028L47.7776,10.9028z"/>
			<path class="st1" d="M36.138,11.5863c0.3082,0.1327,0.6218,0.2668,0.9609,0.3163c-0.063,0.0335-0.13,0.0549-0.1957,0.0885
				c-0.0858,0.087-0.1648,0.1916-0.2559,0.2787c-0.079,0.0777-0.193,0.0723-0.2934,0.0858
				c-0.1903,0.0121-0.3793,0.0242-0.5657-0.0202c0.2198-0.1272,0.4102-0.3001,0.5764-0.4878
				c-0.0174-0.0242-0.039-0.063-0.0751-0.0416c-0.201,0.0602-0.4114,0.1246-0.6246,0.0911
				c-0.0644-0.0081-0.1179-0.0469-0.1595-0.0939C35.7333,11.7874,35.9518,11.7097,36.138,11.5863L36.138,11.5863z"/>
			<path class="st1" d="M45.3625,12.1399c0.1903-0.0283,0.3672-0.0671,0.5548-0.1127c0.1099,0.0456,0.2332,0.0576,0.3512,0.0844
				c0.3779,0.0685,0.7571,0.1274,1.1364,0.1394c0.1153,0,0.2292,0,0.3431-0.0174c-0.2439,0.2601-0.6165,0.3538-0.9609,0.3217
				c-0.2559-0.0081-0.4851-0.1206-0.7304-0.1743c-0.0376,0.0027-0.0604,0.0509-0.0295,0.0737
				c0.1527,0.0778,0.3229,0.1167,0.4905,0.1555c0.1086,0.0269,0.2078,0.0818,0.2854,0.1595
				c-0.2425,0.0483-0.4986,0.0202-0.7464-0.0133c-0.2145-0.0202-0.4168-0.1073-0.6192-0.1636
				c-0.0268-0.008-0.0804-0.0161-0.0777,0.0255c-0.0134,0.0281,0.02,0.0469,0.0414,0.0549c0.1515,0.0778,0.315,0.1099,0.4772,0.1474
				c0.1488,0.0443,0.2934,0.0885,0.4422,0.1394c0.0537,0.0214,0.1247,0.0376,0.1368,0.1046
				c-0.2131,0.0349-0.4302,0.0054-0.6434-0.0134c-0.3296-0.0388-0.658-0.0911-0.977-0.1983
				c-0.0711-0.0242-0.126-0.0723-0.1903-0.1125c-0.0214,0.0107-0.0751,0.024-0.0495,0.0563
				c0.0335,0.0589,0.0978,0.0844,0.146,0.1179c0.1555,0.1139,0.3191,0.2104,0.4906,0.3029c0.0951,0.0523,0.1956,0.0939,0.292,0.1581
				c-0.2385,0.0858-0.5012,0.0939-0.7478,0.0349c-0.3766-0.087-0.7157-0.2748-1.0279-0.4891
				c0.0335-0.0121,0.0777-0.0174,0.1046-0.0483c0.0335-0.0361,0.02-0.0844,0.02-0.13c0.2078,0.0268,0.4155,0.0295,0.6313,0.0214
				c0.0335,0.0027,0.0697-0.008,0.1005-0.0281c0.0885-0.0979-0.0375-0.2037-0.1165-0.2587c0.2694,0.0309,0.5723,0.0469,0.808-0.1044
				C45.3827,12.3222,45.3881,12.2243,45.3625,12.1399L45.3625,12.1399z"/>
			<path class="st1" d="M36.8042,12.239c0.0523-0.0509,0.0911-0.1165,0.146-0.1608c0.2373,0.0992,0.4946,0.1529,0.7466,0.1167
				c-0.0725,0.063-0.1327,0.1341-0.2131,0.185c-0.1648,0.0951-0.3338,0.1862-0.4784,0.3095
				c-0.0778,0.0671-0.1824,0.0832-0.2801,0.1046c-0.165,0.0242-0.3284,0.0376-0.4932,0.0188
				C36.4437,12.6437,36.6112,12.4294,36.8042,12.239L36.8042,12.239z"/>
			<path class="st1" d="M37.9272,13.799c0.5643-0.3712,1.1271-0.7572,1.5761-1.2597c-0.0456,0.1969-0.0174,0.4061,0.0535,0.5937
				c-0.2653,0.2748-0.5789,0.524-0.9475,0.65C38.3909,13.8567,38.147,13.8876,37.9272,13.799L37.9272,13.799z"/>
			<path class="st1" d="M43.2075,12.9185c0.1313,0.0148,0.2627,0.0067,0.3886,0.0121c0.0911,0.0616,0.1688,0.1474,0.2613,0.2159
				c0.5602,0.4636,1.2289,0.8014,1.9325,0.9931c0.2252,0.067,0.4597,0.1018,0.6768,0.2037c0,0.0067,0.0026,0.0174,0.004,0.0255
				c-0.1193,0.1327-0.3042,0.1729-0.4744,0.1674c-0.3029-0.008-0.5909-0.1072-0.8698-0.2171
				c-0.7304-0.2988-1.3951-0.729-2.0518-1.1633c-0.02,0.0242-0.0683,0.0469-0.0362,0.0777c0.0228,0.0349,0.0564,0.055,0.0885,0.0778
				c0.3431,0.2492,0.6889,0.4905,1.036,0.7211c0.3833,0.2479,0.7585,0.5066,1.1659,0.7009
				c-0.1729,0.0442-0.3552,0.0255-0.5281,0.0014c-0.1327-0.0188-0.264-0.0416-0.3873-0.0858
				c-0.0268-0.0134-0.059-0.0242-0.0911-0.0242c0.0107-0.0161,0.02-0.0321,0.0321-0.0469
				c-0.1086-0.0602-0.2171-0.1112-0.3243-0.1648c-0.1072-0.0576-0.2024-0.1407-0.2989-0.2171
				c-0.351-0.2748-0.6929-0.5709-1.0077-0.8952c-0.0764-0.0832-0.1555-0.165-0.2091-0.2641
				c0.1957,0.0388,0.3967,0.0523,0.5951,0.0147C43.1727,13.0365,43.2022,12.9761,43.2075,12.9185L43.2075,12.9185z"/>
			<path class="st1" d="M39.4859,13.3273c0.0375-0.0349,0.0683-0.0818,0.1165-0.1059c0.0509,0.0764,0.1046,0.1501,0.1555,0.2252
				c-0.0965,0.1689-0.2573,0.2894-0.4208,0.3914c-0.3847,0.2546-0.7826,0.481-1.182,0.709
				c-0.0845,0.0456-0.181,0.0696-0.2708,0.0911c-0.2157,0.0549-0.4449,0.1018-0.6674,0.0589
				c-0.0295-0.0121-0.0751-0.0121-0.0792-0.0482c0.2775-0.1985,0.5857-0.3458,0.8524-0.5562
				c0.055-0.0388,0.0939-0.0939,0.1046-0.1569c0.2775,0.0283,0.5562-0.0535,0.8028-0.1781
				C39.1147,13.6423,39.3062,13.4922,39.4859,13.3273L39.4859,13.3273z"/>
			<path class="st3" d="M41.468,13.736c0.0295-0.0093,0.0576,0.0067,0.063,0.0362c0.055,0.1957,0.1569,0.3766,0.3069,0.5147
				c0.1515,0.1341,0.2761,0.3043,0.3123,0.5012c0.02,0.0469-0.0362,0.0725-0.0711,0.0483
				c-0.0295-0.0898-0.0535-0.1876-0.1125-0.2694c-0.0818-0.1367-0.2199-0.2238-0.3177-0.3605
				c-0.087-0.1139-0.1567-0.2479-0.1969-0.3873C41.4465,13.7937,41.4345,13.7428,41.468,13.736L41.468,13.736z"/>
			<path class="st1" d="M37.8428,14.8606c0.5146-0.327,1.0601-0.6153,1.5707-0.9516c-0.0575,0.0818-0.1246,0.1608-0.1488,0.256
				c0,0.0309,0.0416,0.0309,0.0657,0.0469c0.1514,0.0442,0.311,0,0.4516-0.0656c0.1206-0.0537,0.2225-0.1287,0.327-0.2064
				c0.2211,0.2881,0.4289,0.591,0.5293,0.9422c0.0388,0.1555,0.0683,0.3231,0.0054,0.4784
				c-0.0281,0.0483-0.0898,0.0576-0.1434,0.0751c-0.2118,0.0509-0.4396,0.0616-0.6527,0.0095
				c-0.1433-0.0362-0.2881-0.1113-0.3659-0.2413c0.1206-0.1515,0.2949-0.2466,0.4571-0.3458
				c0.0858-0.0535,0.1835-0.0871,0.272-0.142c0.0416-0.0281-0.0027-0.0616-0.0228-0.0858c-0.315,0.1648-0.6487,0.2787-0.9891,0.378
				c-0.1676,0.0469-0.3471,0.1046-0.5293,0.0818c-0.043-0.0054-0.0604-0.0497-0.0618-0.0899
				c0.244-0.2439,0.5562-0.4073,0.8363-0.5951c0.0416-0.0254-0.0054-0.0589-0.0228-0.083c-0.2828,0.1581-0.5723,0.311-0.8563,0.4663
				c-0.1648,0.0671-0.3405,0.0979-0.5146,0.1153C37.9794,14.9008,37.9004,14.9115,37.8428,14.8606L37.8428,14.8606z"/>
			<path class="st1" d="M44.3226,14.0256c0.311,0.1755,0.6379,0.327,0.9756,0.4517c0.0388,0.0161,0.0764,0.0281,0.126,0.0281
				c0.0215,0.0067,0.0469,0.0174,0.0711,0.0254c-0.0416,0.0054-0.0844,0-0.1287-0.008c-0.0026,0.0307-0.02,0.0751,0.0162,0.0911
				c0.2318,0.1112,0.4838,0.1729,0.7397,0.2104c0.1488,0.0362,0.2962,0.0711,0.4328,0.1381
				c-0.1433,0.0616-0.3001,0.0777-0.4542,0.0898c-0.1515,0.0027-0.3056,0.0027-0.4556-0.0361
				c-0.1864-0.0511-0.3712-0.102-0.5536-0.1676c0.118-0.0067,0.2494-0.0014,0.3512-0.0778c0.0281-0.02,0.0335-0.0563,0.0281-0.0937
				c-0.1581-0.0255-0.2922-0.1206-0.4315-0.1943C44.797,14.3432,44.5504,14.1904,44.3226,14.0256L44.3226,14.0256z"/>
			<path class="st1" d="M40.6719,14.2722c0.0054-0.0188,0.0107-0.055,0.0402-0.0362c0.1381,0.0911,0.2735,0.1997,0.4342,0.2466
				c0.165,0.059,0.3405,0.1286,0.4584,0.2653c0.0725,0.0845,0.1018,0.2024,0.0965,0.311c-0.0133,0.3752-0.008,0.7519-0.0523,1.1258
				c-0.0133,0.0657,0.0202,0.1313,0.0336,0.1943c0.0214,0.0832,0.024,0.1648,0.0268,0.248
				c-0.1046-0.1046-0.1862-0.2306-0.2627-0.3524c-0.0388-0.0697-0.0723-0.1422-0.13-0.1998
				c-0.0683,0.0497-0.0469,0.1515-0.0818,0.2252c-0.0711,0.189-0.1595,0.3954-0.3284,0.5174
				c0.0134-0.2238,0.0683-0.4437,0.0911-0.6622c0.0202-0.1943,0.0576-0.3887,0.0228-0.5763
				c-0.0026-0.0535-0.0563-0.0228-0.0804-0.0134c0.0188,0.2761-0.0054,0.5669-0.1446,0.8082
				c-0.0469,0.0791-0.1072,0.1569-0.185,0.2118c0.0697-0.2667,0.0778-0.5481,0.1648-0.8136c0.039-0.1367,0.1059-0.2639,0.122-0.4047
				c0.0067-0.0416-0.059-0.0535-0.0697-0.0174c-0.0509,0.0737-0.0911,0.1501-0.1474,0.2212
				c0.0135-0.1113,0.0683-0.2105,0.0818-0.3231c0.02-0.1997-0.0309-0.398-0.1046-0.5816
				C40.6049,14.5362,40.6411,14.3995,40.6719,14.2722L40.6719,14.2722z"/>
			<path class="st1" d="M47.4224,14.3004c0.146-0.0107,0.2894-0.0362,0.4342-0.0416c-0.4597,0.3136-1.0213,0.4891-1.5748,0.4637
				c-0.2144,0-0.4073-0.106-0.6111-0.13c-0.0307-0.0014-0.0563-0.0148-0.079-0.0255c0.0737-0.0134,0.1407,0.0335,0.2171,0.0388
				c0.2131,0.0269,0.4463,0.0323,0.6339-0.0965c0.0644-0.0349,0.1018-0.1046,0.1555-0.1541
				C46.8743,14.3432,47.1503,14.3271,47.4224,14.3004L47.4224,14.3004z"/>
			<path class="st1" d="M44.1752,14.6059c0.1125,0.0604,0.2183,0.1341,0.3029,0.2292c0.2868,0.2721,0.6165,0.4893,0.9207,0.7412
				c0.0911,0.0804,0.193,0.1581,0.2413,0.2706c-0.2159,0.0804-0.4463,0.0107-0.6608-0.0642
				c-0.3257-0.1234-0.6272-0.2936-0.9221-0.4812c-0.0402-0.0456-0.1165,0.0107-0.0777,0.063
				c0.1608,0.2264,0.3806,0.4073,0.6178,0.5575c0.063,0.0442,0.1353,0.0778,0.1916,0.1367
				c0.0255,0.0242,0.0121,0.0711-0.0228,0.0804c-0.1567,0.0563-0.3215,0.0054-0.465-0.0535
				c-0.1917-0.0845-0.3633-0.2064-0.5281-0.3351c-0.0523-0.0416-0.0992-0.0937-0.1569-0.126
				c-0.0656-0.0093-0.0777,0.0764-0.0388,0.1125c0.0992,0.1099,0.248,0.185,0.3082,0.327c-0.2304-0.0054-0.4289-0.142-0.5951-0.2841
				c-0.0616-0.063-0.1353-0.1153-0.1581-0.2011c-0.0711-0.2185-0.1501-0.4329-0.2587-0.6379
				c0.2238,0.1567,0.4704,0.2948,0.7424,0.3417c0.0738,0.02,0.1943-0.0014,0.1943-0.0979c-0.0187-0.142-0.1339-0.2413-0.2144-0.3498
				c0.2587,0.181,0.5347,0.3458,0.8484,0.3981c0.0844,0.008,0.1769,0.0268,0.2599,0c0.043-0.055,0.0027-0.126-0.0349-0.1743
				C44.5223,14.8901,44.3279,14.7707,44.1752,14.6059L44.1752,14.6059z"/>
			<path class="st1" d="M44.5906,14.7895c0.0549,0.0095,0.1125,0.0174,0.1689,0.0335c0.0509,0.043,0.1151,0.0725,0.1755,0.0979
				c0.2131,0.1006,0.4396,0.1702,0.6741,0.205c0.1501,0.0228,0.2935,0.0618,0.4342,0.1099
				c-0.1595,0.0911-0.3391,0.1341-0.5174,0.1206c-0.189-0.0161-0.3403-0.1286-0.5012-0.2144
				C44.8681,15.0375,44.7259,14.9141,44.5906,14.7895L44.5906,14.7895z"/>
			<path class="st1" d="M41.338,16.2611c0.0307,0.063,0.083,0.1179,0.1046,0.1862c-0.0054,0.1985-0.0269,0.3954-0.0081,0.5964
				c0.0054,0.0362,0.0081,0.0858,0.0416,0.1113c0.0683,0.0495,0.1488,0.0817,0.2197,0.1259
				c-0.0495,0.0685-0.0817,0.1501-0.0937,0.2333c-0.043,0.0361-0.0925,0.0642-0.126,0.1098c0,0.039,0.0335,0.0697,0.0495,0.1046
				c0.0711,0.1099,0.0885,0.256,0.0228,0.37c-0.0309,0.0575-0.0804,0.0965-0.1139,0.1474c-0.0081,0.063,0,0.1272,0,0.1902
				c-0.0242-0.0482-0.0388-0.1018-0.0469-0.1554c-0.1662-0.1006-0.2264-0.3056-0.2371-0.4932c0.0054-0.0697-0.1086-0.0697-0.102,0
				c0,0.13-0.0173,0.268-0.1193,0.3592c-0.0576,0.0604-0.1474,0.0723-0.2171,0.1072c-0.0402,0.043-0.0295,0.102-0.0349,0.1529
				c-0.0482-0.0804-0.0414-0.1743-0.0335-0.2627c-0.0254-0.0362-0.063-0.0764-0.0576-0.1274
				c0.0135-0.1367,0.1153-0.2345,0.1931-0.3338c0.0321-0.0361-0.0067-0.0804-0.039-0.0858
				c-0.0683,0.0295-0.1165,0.0804-0.1795,0.1153c-0.1462,0.0871-0.3163,0.1501-0.4839,0.1167
				c-0.0549-0.0242-0.0884,0.0307-0.1232,0.063c0.0309-0.0952,0.0375-0.1957,0.0871-0.2842
				c0.063-0.1072,0.1809-0.1795,0.3029-0.2037c0.1219-0.0188,0.2532-0.0054,0.3685-0.0604c0.185-0.0777,0.2963-0.272,0.3244-0.465
				c0.0107-0.0764,0.0723-0.1313,0.1098-0.1943C41.232,16.5573,41.2964,16.4099,41.338,16.2611L41.338,16.2611z"/>
			<path class="st1" d="M42.4986,16.5854c0.0416-0.0871,0.0656-0.1755,0.0911-0.2667c0.063,0.1621,0.1809,0.2894,0.2962,0.4047
				c0.0242,0.0885,0.0081,0.1876,0.0255,0.2774c0.0228,0.0483,0.0763,0.0738,0.1272,0.0845
				c0.0845,0.0295,0.1783,0.024,0.2654,0.0375c0.0644,0.0067,0.1046,0.0604,0.1448,0.1046
				c-0.0871-0.0255-0.1676-0.1006-0.2627-0.0697c-0.0711,0.0161-0.1394,0.0764-0.1247,0.1555
				c-0.0066,0.0616,0.0657,0.0723,0.1073,0.0992c0.1044,0.0549,0.1567,0.1781,0.1407,0.292
				c-0.0107,0.1086-0.0281,0.2387-0.1353,0.3003c0.008-0.0644,0.0228-0.1448-0.0335-0.1957
				c-0.0564-0.0602-0.1555,0.0067-0.2185-0.0469c-0.0737-0.0602-0.079-0.1648-0.1139-0.2425
				c-0.0563-0.0965-0.2145-0.0497-0.244,0.0428c0.0188,0.1555,0.0497,0.3244-0.0321,0.4651
				c-0.0335,0.063-0.0992,0.0939-0.1634,0.1167c-0.0269,0.0737-0.0215,0.1528-0.0134,0.2291
				c-0.0737-0.071-0.0442-0.1835-0.0602-0.2746c-0.0202-0.043-0.0618-0.0738-0.0671-0.122
				c-0.0228-0.1287,0.0362-0.2533,0.0725-0.374c0.0133-0.0563-0.0792-0.0791-0.0978-0.0268c-0.063,0.0871-0.1287,0.189-0.244,0.2197
				c-0.0616,0.0242-0.1232-0.0307-0.1862-0.0054c-0.0255,0.043-0.0147,0.0939-0.0202,0.1434
				c-0.0428-0.1206-0.0335-0.2479-0.0402-0.3725c-0.008-0.0966,0.039-0.1985,0.126-0.2454
				c0.1515-0.0884,0.3298-0.0763,0.4932-0.0791c0.0844,0.0161,0.1287-0.071,0.1569-0.13c0.0026-0.1394-0.0121-0.2761-0.0174-0.4142
				C42.4705,16.6538,42.4879,16.6217,42.4986,16.5854L42.4986,16.5854z"/>
		</g>
	</g>
</g>
</svg>
