<?xml version="1.0" encoding="utf-8"?>
<!-- Generator: Adobe Illustrator 21.1.0, SVG Export Plug-In . SVG Version: 6.00 Build 0)  -->
<svg version="1.1" id="Layer_1" xmlns="http://www.w3.org/2000/svg" xmlns:xlink="http://www.w3.org/1999/xlink" x="0px" y="0px"
	 viewBox="0 0 60 60" style="enable-background:new 0 0 60 60;" xml:space="preserve">
<style type="text/css">
	.st0{fill:#FFD200;}
	.st1{fill:#DE2010;}
	.st2{fill:#319208;}
	.st3{fill:#FFFFFF;}
	.st4{fill:#D40000;}
	.st5{fill:#FFCC00;}
</style>
<g>
	<g>
		<path class="st0" d="M10.0555,51.7132h40.6089c2.6013-2.4768,4.747-5.4132,6.3297-8.6834H18.76L10.0555,51.7132z"/>
		<path class="st1" d="M18.76,43.0299h38.234c1.3026-2.6993,2.2087-5.6116,2.6563-8.6849H27.4631L18.76,43.0299z"/>
		<path class="st2" d="M9.711,52.055C15.0556,56.9737,22.1667,60,30.0028,60c8.0142,0,15.2793-3.163,20.6615-8.2868H10.0555
			L9.711,52.055z"/>
		<path class="st0" d="M18.7572,16.9674h38.2342c-1.5829-3.2674-3.7258-6.204-6.3271-8.682H10.0555L18.7572,16.9674z"/>
		<path class="st1" d="M27.4631,25.6549h32.1872c-0.4477-3.0731-1.3549-5.9908-2.6589-8.6875H18.7572L27.4631,25.6549z"/>
		<path class="st2" d="M50.6643,8.2854C45.2821,3.1629,38.017,0,30.0028,0C22.1667,0,15.0556,3.0289,9.711,7.9435l0.3445,0.3419
			H50.6643z"/>
		<path d="M31.8134,29.9987l-4.3502,4.3463h32.1872C59.8567,32.9217,60,31.4783,60,29.9987c0-1.4784-0.1433-2.9219-0.3497-4.3438
			H27.4631L31.8134,29.9987z"/>
		<path d="M9.711,7.9435C9.5891,8.0574,9.4604,8.1701,9.3372,8.2854c-0.189,0.1795-0.39,0.3404-0.571,0.524l21.2367,21.1893
			L8.7661,51.1906c0.181,0.1823,0.3821,0.3431,0.571,0.5226c0.1232,0.1167,0.252,0.2266,0.3738,0.3417l22.1023-22.0563L9.711,7.9435
			z"/>
		<path class="st3" d="M25.6457,25.6549l-8.7044-8.6875l-8.1752-8.158c-2.3533,2.3588-4.2872,5.1264-5.7574,8.158
			c-1.3026,2.6966-2.2113,5.6144-2.6589,8.6875C0.1434,27.0768,0,28.5203,0,29.9987c0,1.4796,0.1434,2.923,0.3498,4.3463
			c0.4477,3.0732,1.3549,5.9856,2.6589,8.6849c1.4676,3.0343,3.4014,5.7993,5.7574,8.1608l8.1778-8.1608l8.7018-8.6849
			l4.3571-4.3463L25.6457,25.6549z"/>
	</g>
</g>
<g>
	<path class="st4" d="M11.4848,19.5174l6.5108,20.0383L0.95,27.1713h21.0695L4.9739,39.5557L11.4848,19.5174z"/>
	<path class="st5" d="M8.6965,37.0385l1.1506-0.2092l2.1338-0.0837l0.7845,0.0732l1.7572,0.2929l0.136-0.1778v-1.2656l0.1987-1.0878
		l0.3661-1.1087l0.3765-0.8786l0.4916-0.91l0.8054,0.1987h0.2092l0.0209-0.1569l-1.684-1.4434l-1.7677-1.3493l-2.5417-1.9037
		l-0.2301-0.0628l-0.2824-1.9873l-0.1987-0.6067l-0.2615-0.2301l-0.5125-0.1674l-0.5648,0.0209l-0.251,0.1464l-0.5439,0.1255
		L8.0061,24.309l-0.1883,0.2197l-0.0209,0.2824l0.7845,0.0209l0.1987,0.0837l-0.0209,0.0837l-0.4498,0.0628l-0.2092,0.0628
		l0.251,0.1883l0.251,0.0941l0.3347,0.1255l0.0628,0.2197l0.0314,3.0438l-0.1778,0.4707l-0.0628,0.8786l0.2615,1.0564l-0.659,0.7426
		l-0.3661,0.6694l-0.0628,0.4184l-0.1987,0.4079l-0.0314,0.2615l0.136,0.2719l0.5021,1.6736l0.2615,1.3702L8.6965,37.0385z"/>
	<path d="M9.3054,23.9203c-0.2014-0.0001-0.298,0.0347-0.4975,0.1431c-0.1801,0.0979-0.3937,0.1629-0.5393,0.1629
		c-0.2959,0-0.5349,0.2124-0.5349,0.4777V24.88l0.4314-0.0132c1.2367,0.0414,0.1076,0.1554,0.0176,0.1717
		c-0.307,0.0557,0.0681,0.3061,0.4292,0.427c0.3886,0.1301,0.372,0.0548,0.372,1.7588c0,1.3991-0.0121,1.597-0.1189,1.9195
		c-0.1567,0.4734-0.1567,1.1769,0,1.6399c0.0633,0.1871,0.1156,0.3616,0.1167,0.3874c0.0011,0.0259-0.183,0.2547-0.4094,0.5085
		C8.1635,32.138,7.912,32.63,7.912,32.974c0,0.0792-0.0534,0.2129-0.1189,0.2994c-0.151,0.1996-0.1554,0.5431-0.0088,0.6736
		c0.152,0.1353,0.7798,2.5585,0.7814,3.0157c0.0006,0.1667,0.0304,0.1657,0.984-0.0264c0.7698-0.1551,2.5897-0.1881,3.511-0.0638
		c0.4255,0.0574,0.9206,0.1409,1.1006,0.1871c0.567,0.1456,0.5358,0.1756,0.5371-0.5085c0.0021-1.0576,0.1948-2.0634,0.6031-3.139
		c0.1858-0.4893,0.674-1.4829,0.8035-1.6355c0.0128-0.0151,0.2208,0.0233,0.4623,0.0858c0.4941,0.1279,0.6296,0.104,0.6296-0.1101
		c0-0.1226-0.5043-0.5431-2.9739-2.4764c-1.664-1.3027-3.0288-2.3289-3.0971-2.3289c-0.0672,0-0.135-0.0345-0.1497-0.077
		c-0.0147-0.0425-0.0931-0.5461-0.1761-1.1204c-0.083-0.5743-0.195-1.1414-0.2487-1.2591
		c-0.1571-0.3442-0.4825-0.5267-1.0016-0.5613C9.4515,23.9225,9.3725,23.9203,9.3054,23.9203z M9.323,24.0436
		c0.0648-0.0008,0.1377,0.0019,0.2267,0.0066c0.7796,0.0409,0.9271,0.2561,1.1314,1.6421c0.0793,0.538,0.1446,1.0354,0.1453,1.1072
		c0.0009,0.0933-0.1074,0.2037-0.3808,0.3874c-0.4025,0.2706-0.9221,0.7641-1.1755,1.1138l-0.1519,0.2069l-0.0286-0.4865
		c-0.0167-0.2674-0.0167-0.8915,0-1.3868c0.0345-1.0237,0.0077-1.1247-0.328-1.2371c-0.274-0.0917-0.6317-0.1904-0.5261-0.2531
		c0.1153-0.0685,0.222-0.0196,0.5151-0.0925c0.1038-0.0258,0.0982-0.0214,0.0814-0.1101c-0.0301-0.1597-0.186-0.2329-0.6274-0.2091
		c-0.3466,0.0187-0.3911,0.0097-0.3676-0.0836c0.0475-0.1887,0.2437-0.3126,0.5349-0.3412
		c0.1568-0.0154,0.3855-0.0848,0.5107-0.1541C9.0213,24.077,9.1287,24.0459,9.323,24.0436z M11.0686,27.0813
		c0.0164-0.0003,0.0317-0.0001,0.0462,0.0022c0.1998,0.0314,5.9632,4.5374,5.9632,4.6622c0,0.0494-0.0462,0.0889-0.1035,0.088
		c-0.0573-0.0009-1.5241-0.4163-3.2578-0.9223c-2.7706-0.8086-3.169-0.9407-3.2887-1.0852c-0.17-0.2054-0.1757-0.5191-0.0154-0.7308
		c0.0655-0.0865,0.1189-0.1928,0.1189-0.2377c0-0.1369-0.2938,0.2122-0.35,0.416c-0.0657,0.2382,0.0567,0.6369,0.2355,0.766
		c0.0707,0.051,0.5988,0.2325,1.1733,0.4028c0.9805,0.2906,1.0464,0.3219,1.0984,0.4843c0.125,0.3897-0.2868,0.8422-0.8827,0.9707
		c-0.1922,0.0415-0.4365,0.1546-0.6053,0.2818c-0.671,0.5055-1.1382,0.8042-1.5299,0.9729
		c-0.2303,0.0992-0.4528,0.2113-0.4931,0.2509c-0.0403,0.0396-0.0991,0.22-0.1321,0.4006c-0.07,0.3836-0.0997,0.4425-0.2135,0.4425
		c-0.0659,0-0.0718-0.0345-0.0264-0.1585c0.0837-0.2288,0.0745-0.5217-0.0176-0.5217c-0.0487,0-0.0792,0.0815-0.0792,0.2179
		c0,0.1191-0.0336,0.2502-0.077,0.2928c-0.0653,0.0639-0.0735,0.0167-0.0462-0.2774c0.0182-0.1956,0.0102-0.3566-0.0176-0.3566
		c-0.0534,0-0.1583,0.2965-0.1959,0.5569c-0.0221,0.1527-0.0234,0.1515-0.0726-0.0286c-0.0385-0.1406-0.0198-0.235,0.0792-0.4138
		c0.0706-0.1276,0.1299-0.3132,0.1299-0.4138c0-0.1517,0.1118-0.2984,0.6604-0.8541c0.3642-0.3689,0.7882-0.8267,0.9421-1.017
		c0.2663-0.3293,0.2803-0.3642,0.2708-0.6978c-0.0055-0.1928-0.0278-0.366-0.0484-0.3874
		c-0.0696-0.0723-0.1622,0.3004-0.1255,0.5041c0.0332,0.1842-0.0011,0.2469-0.3852,0.7c-0.2319,0.2735-0.6257,0.6858-0.8739,0.9179
		c-0.4572,0.4275-0.6207,0.6585-0.6207,0.8761c0,0.066-0.0512,0.2406-0.1145,0.3874c-0.0632,0.1468-0.0982,0.2969-0.0792,0.3324
		c0.0212,0.0398,0.0061,0.0371-0.0374-0.0044c-0.0515-0.0492-0.0557-0.1404-0.0132-0.3368c0.032-0.1482,0.0452-0.2913,0.0286-0.3192
		c-0.0638-0.1074-0.1387,0.0305-0.1761,0.3236c-0.0215,0.1681-0.0617,0.2913-0.0903,0.273C7.7599,33.786,7.787,33.48,7.8922,33.324
		c0.0542-0.0804,0.1218-0.272,0.1497-0.427c0.0782-0.4349,0.265-0.7801,0.6802-1.2503c0.2092-0.237,0.3808-0.4397,0.3808-0.4513
		c0-0.0115-0.0558-0.1865-0.1233-0.3874c-0.1561-0.4647-0.1664-1.1723-0.0242-1.6025c0.1499-0.4534,0.4586-0.9022,0.9465-1.3758
		C10.3742,27.3713,10.8228,27.0853,11.0686,27.0813z M12.8318,30.8586c0.055-0.0058,0.1067,0.0192,0.1154,0.0559
		c0.0008,0.0033,0.0012,0.0067,0.0012,0.0101c-0.0067,0.0369-0.057,0.0631-0.1123,0.0586c-0.0461-0.0037-0.0824-0.0279-0.088-0.0586
		C12.7483,30.892,12.7836,30.8642,12.8318,30.8586z M13.1223,30.896c0.0007,0,0.0015,0,0.0022,0
		c0.0548-0.0066,0.1073,0.0176,0.1173,0.0542c0.0013,0.0046,0.0018,0.0094,0.0016,0.0141
		c-0.0001,0.0373-0.0455,0.0675-0.1014,0.0674c-0.0558,0-0.101-0.0302-0.1011-0.0674
		C13.0393,30.9313,13.0738,30.9024,13.1223,30.896z M13.4305,30.9533c0.0037-0.0001,0.0073-0.0001,0.011,0
		c0.0556-0.0026,0.1038,0.0254,0.1076,0.0624c0.0002,0.0019,0.0003,0.0039,0.0002,0.0058c-0.0067,0.0369-0.057,0.0631-0.1123,0.0586
		c-0.0461-0.0037-0.0824-0.0279-0.088-0.0586C13.3474,30.9885,13.3819,30.9596,13.4305,30.9533z M13.7079,31.0105
		c0.0044-0.0002,0.0088-0.0002,0.0132,0c0.0556-0.0026,0.1038,0.0254,0.1076,0.0625c0.0002,0.0019,0.0003,0.0039,0.0002,0.0058
		c0,0.0373-0.0453,0.0675-0.1013,0.0675c-0.0559,0-0.1013-0.0302-0.1013-0.0675C13.6248,31.0457,13.6593,31.0168,13.7079,31.0105z
		 M12.9683,31.0787c0.0007,0,0.0015,0,0.0022,0c0.0548-0.0066,0.1073,0.0176,0.1173,0.0542
		c0.0013,0.0046,0.0018,0.0094,0.0016,0.0141c-0.0001,0.0373-0.0455,0.0675-0.1014,0.0674
		c-0.0558-0.0001-0.101-0.0302-0.1011-0.0674C12.8852,31.114,12.9197,31.0851,12.9683,31.0787z M13.2588,31.1271
		c0.0548-0.0066,0.1073,0.0177,0.1173,0.0542c0.0011,0.0039,0.0016,0.0079,0.0016,0.0118c0,0.0373-0.0453,0.0675-0.1013,0.0675
		c-0.0559,0-0.1013-0.0302-0.1013-0.0675C13.1753,31.1606,13.2106,31.1327,13.2588,31.1271z M13.8686,31.1514
		c0.0548-0.0066,0.1073,0.0177,0.1173,0.0542c0.0011,0.0039,0.0016,0.0079,0.0016,0.0118
		c-0.0001,0.0373-0.0455,0.0675-0.1014,0.0674c-0.0558-0.0001-0.101-0.0302-0.1011-0.0674
		C13.7851,31.1848,13.8203,31.1569,13.8686,31.1514z M13.5472,31.1558c0.0548-0.0066,0.1073,0.0177,0.1173,0.0542
		c0.0011,0.0039,0.0016,0.0079,0.0016,0.0118c-0.0001,0.0373-0.0455,0.0675-0.1014,0.0674c-0.0558,0-0.101-0.0302-0.1011-0.0674
		C13.4637,31.1892,13.499,31.1613,13.5472,31.1558z M14.1415,31.224c0.009-0.0132,0.4314,0.0942,0.9377,0.2399l0.9201,0.2641
		l-0.1783,0.317c-0.0981,0.1737-0.2219,0.4067-0.2752,0.5173c-0.108,0.2245-0.1464,0.2284-0.7,0.1013
		c-0.6123-0.1406-1.5801-0.2742-2.5644-0.3544l-0.9465-0.077l0.3566-0.1343c0.1964-0.0744,0.4788-0.202,0.6274-0.284
		c0.2331-0.1286,0.3271-0.1452,0.6846-0.1189c0.5309,0.0391,0.8886-0.0589,1.0214-0.2796
		C14.0803,31.3233,14.1325,31.2372,14.1415,31.224z M13.1025,31.29c0.0007,0,0.0015,0,0.0022,0
		c0.0548-0.0066,0.1073,0.0176,0.1173,0.0542c0.0013,0.0046,0.0018,0.0094,0.0016,0.0141c0,0.0373-0.0453,0.0675-0.1013,0.0675
		c-0.0559,0-0.1013-0.0302-0.1013-0.0675C13.0194,31.3253,13.0539,31.2964,13.1025,31.29z M13.7651,31.29
		c0.0007,0,0.0015,0,0.0022,0c0.0548-0.0066,0.1073,0.0176,0.1173,0.0542c0.0013,0.0046,0.0018,0.0094,0.0016,0.0141
		c-0.0001,0.0373-0.0455,0.0675-0.1014,0.0674c-0.0558,0-0.101-0.0302-0.1011-0.0674C13.682,31.3253,13.7165,31.2964,13.7651,31.29z
		 M12.8142,31.2988c0.0044-0.0002,0.0088-0.0002,0.0132,0c0.0556-0.0026,0.1038,0.0254,0.1076,0.0625
		c0.0002,0.0019,0.0003,0.0039,0.0002,0.0058c-0.0001,0.0373-0.0455,0.0675-0.1014,0.0674c-0.0558,0-0.101-0.0302-0.1011-0.0674
		C12.7311,31.3341,12.7656,31.3052,12.8142,31.2988z M13.4415,31.3099c0.0548-0.0066,0.1073,0.0177,0.1173,0.0542
		c0.0011,0.0039,0.0016,0.0079,0.0016,0.0118c-0.0001,0.0373-0.0455,0.0675-0.1014,0.0674c-0.0558,0-0.101-0.0302-0.1011-0.0674
		C13.358,31.3433,13.3933,31.3154,13.4415,31.3099z M12.6711,31.4485c0.0007,0,0.0015,0,0.0022,0
		c0.055-0.0058,0.1067,0.0192,0.1155,0.0559c0.001,0.0041,0.0014,0.0082,0.0012,0.0123c-0.0067,0.0369-0.057,0.0631-0.1123,0.0586
		c-0.0461-0.0037-0.0824-0.0279-0.088-0.0586C12.588,31.4838,12.6225,31.4549,12.6711,31.4485z M12.9594,31.4529
		c0.0037-0.0001,0.0073-0.0001,0.011,0c0.0556-0.0026,0.1038,0.0254,0.1076,0.0625c0.0002,0.0019,0.0003,0.0039,0.0002,0.0058
		c-0.0067,0.0369-0.057,0.0631-0.1123,0.0586c-0.0461-0.0037-0.0824-0.0279-0.088-0.0586
		C12.8764,31.4882,12.9109,31.4593,12.9594,31.4529z M13.2676,31.4639c0.0548-0.0066,0.1073,0.0177,0.1173,0.0542
		c0.0011,0.0039,0.0016,0.0079,0.0016,0.0118c-0.0001,0.0373-0.0455,0.0675-0.1014,0.0674c-0.0558,0-0.101-0.0302-0.1011-0.0674
		C13.1841,31.4974,13.2194,31.4695,13.2676,31.4639z M13.5934,31.4727c0.0007,0,0.0015,0,0.0022,0
		c0.055-0.0058,0.1067,0.0192,0.1155,0.0559c0.001,0.0041,0.0014,0.0082,0.0012,0.0123c-0.0067,0.0369-0.057,0.0631-0.1123,0.0586
		c-0.0461-0.0037-0.0824-0.0279-0.088-0.0586C13.5103,31.508,13.5448,31.4791,13.5934,31.4727z M11.2095,32.4215
		c0.4028-0.0129,1.809,0.0891,2.4764,0.1893c0.5874,0.0882,1.6162,0.2792,1.6509,0.306c0.0087,0.0067-0.0795,0.2882-0.1981,0.6252
		s-0.2268,0.6515-0.2399,0.6978c-0.018,0.0632-0.0902,0.073-0.2906,0.0418c-0.9781-0.1524-3.7962-0.1386-4.8801,0.0242
		c-0.6162,0.0926-0.7067,0.0858-0.6538-0.044c0.0243-0.0595,0.0758-0.2459,0.1145-0.416l0.0704-0.3104l0.6538-0.339
		c0.3593-0.1871,0.7598-0.4256,0.8893-0.5305c0.1295-0.1049,0.2646-0.2089,0.3016-0.2311
		C11.1154,32.4277,11.1519,32.4233,11.2095,32.4215z M8.0441,34.0922c0.0293,0,0.1027,0.0338,0.1871,0.088
		c0.1102,0.0708,0.251,0.1291,0.3126,0.1299c0.3067,0.0038,0.4752,0.4358,0.7352,1.8865c0.0366,0.2041,0.0796,0.4303,0.0947,0.5041
		c0.0239,0.1175-0.0097,0.1438-0.273,0.2025c-0.3328,0.0742-0.4138,0.0796-0.4138,0.0352c0-0.1246-0.3309-1.6108-0.4755-2.1352
		c-0.0985-0.3572-0.1805-0.6716-0.1805-0.7c0-0.0035,0.0017-0.0072,0.0044-0.0088C8.0376,34.093,8.0399,34.0922,8.0441,34.0922z
		 M11.4032,34.3101H11.74l-0.1123,0.1277c-0.1994,0.229-0.2946,0.2507-0.4336,0.0969c-0.07-0.0774-0.1277-0.1594-0.1277-0.1827
		C11.0664,34.3286,11.2181,34.3101,11.4032,34.3101z M12.1164,34.3101h0.3192h0.3192l-0.1409,0.1541
		c-0.1726,0.1909-0.184,0.1909-0.3566,0L12.1164,34.3101z M13.0805,34.3101h0.1475c0.0802,0,0.2276,0.0165,0.328,0.0374
		l0.1827,0.0374l-0.1695,0.1475c-0.0928,0.0812-0.1777,0.1472-0.1893,0.1453c-0.0116-0.0019-0.0846-0.0869-0.1607-0.1871
		L13.0805,34.3101z M14.0733,34.3542l0.1475,0.0374c0.0818,0.0214,0.2565,0.0412,0.3874,0.0418h0.2377l-0.1783,0.1519
		c-0.0982,0.0837-0.1929,0.1529-0.2113,0.1541s-0.113-0.0846-0.2091-0.1915L14.0733,34.3542z M10.5271,34.374
		c0.0171,0.0005,0.0278,0.0013,0.0308,0.0044c0.0121,0.0126-0.0377,0.0971-0.1123,0.1871l-0.1365,0.1629l-0.1717-0.1409
		l-0.1717-0.1431l0.2862-0.044C10.3696,34.3821,10.4758,34.3725,10.5271,34.374z M10.7978,34.3916
		c0-0.0059,0.0855,0.0687,0.1893,0.1651l0.1893,0.1761l-0.35,0.0198l-0.35,0.0198l0.1607-0.1849
		C10.7256,34.4856,10.7978,34.3974,10.7978,34.3916z M12.9242,34.3916c0.0251,0.0017,0.0493,0.016,0.0792,0.0418
		c0.0518,0.0447,0.1198,0.1336,0.1519,0.1959c0.0503,0.0977,0.0351,0.111-0.1079,0.1057c-0.0912-0.0034-0.2276-0.024-0.3038-0.0462
		l-0.1387-0.0396l0.1519-0.1475C12.8372,34.4233,12.8824,34.3888,12.9242,34.3916z M11.9381,34.3938
		c0.0659-0.0091,0.1171,0.04,0.1871,0.1497c0.0857,0.1342,0.0827,0.1362-0.2333,0.1343l-0.3192-0.0022l0.1695-0.1541
		C11.8261,34.4448,11.8868,34.4009,11.9381,34.3938z M13.9302,34.4158l0.1453,0.1431c0.1592,0.1554,0.1872,0.2503,0.0704,0.2333
		c-0.0409-0.0059-0.1886-0.02-0.328-0.033l-0.2531-0.0242l0.1827-0.1585L13.9302,34.4158z M9.8051,34.495
		c0.0275,0,0.1126,0.0672,0.1871,0.1497l0.1343,0.1497L9.8381,34.834c-0.1588,0.0214-0.3418,0.0502-0.4072,0.0638
		c-0.0884,0.0185-0.0617-0.0305,0.1035-0.1893C9.6566,34.5911,9.7776,34.495,9.8051,34.495z M9.3648,34.5039
		c0.0196-0.0003,0.0375,0.0019,0.0528,0.0044c0.0975,0.0158,0.0882,0.0408-0.0704,0.1981l-0.1827,0.1805l-0.0528-0.1497
		c-0.0441-0.1227-0.0313-0.1577,0.0704-0.1981C9.2331,34.5188,9.306,34.5048,9.3648,34.5039z M14.7601,34.7108
		c0.0282-0.0017,0.0342,0.0211,0.0176,0.066c-0.0361,0.0978-0.1409,0.1219-0.1409,0.033c0-0.0304,0.0406-0.0691,0.088-0.088
		C14.7393,34.716,14.7506,34.7113,14.7601,34.7108z M12.2573,34.8979c0.9002,0,1.8174,0.0224,2.0383,0.0506
		c0.3717,0.0475,0.4006,0.0618,0.4006,0.2003c0,0.165-0.0502,0.1729-0.5349,0.0858c-0.1473-0.0265-0.738-0.0826-1.3141-0.1255
		c-1-0.0744-2.2394-0.0342-3.3437,0.1079c-0.2279,0.0293-0.2818,0.0181-0.2818-0.0572
		C9.2217,35.0003,10.4154,34.8979,12.2573,34.8979z M11.0466,35.2369h0.317h0.3192l-0.1409,0.1541
		c-0.1726,0.191-0.184,0.191-0.3566,0L11.0466,35.2369z M11.8632,35.2369l0.1673,0.1651c0.0919,0.0916,0.1673,0.1765,0.1673,0.1871
		s-0.1528,0.0198-0.339,0.0198h-0.339l0.1717-0.1871L11.8632,35.2369z M12.1164,35.2369h0.3192h0.3192l-0.1409,0.1541
		c-0.1726,0.191-0.184,0.191-0.3566,0L12.1164,35.2369z M10.6107,35.2457c0.0279,0.0018,0.0028,0.0488-0.0814,0.1673
		c-0.0766,0.1077-0.1574,0.1959-0.1783,0.1959c-0.0209,0-0.0992-0.0712-0.1761-0.1563l-0.1409-0.1541h0.2135
		c0.1176,0,0.2602-0.0192,0.317-0.0418C10.5853,35.2484,10.6014,35.2451,10.6107,35.2457z M10.8507,35.2985l0.1519,0.1387
		c0.0839,0.0765,0.1612,0.1445,0.1717,0.1497s-0.1275,0.019-0.3082,0.0308l-0.3302,0.022l0.1585-0.1717L10.8507,35.2985z
		 M12.889,35.2985l0.1717,0.1871c0.1871,0.203,0.1683,0.2118-0.2575,0.1299l-0.2003-0.0374l0.1431-0.1409L12.889,35.2985z
		 M13.1289,35.2985h0.2774c0.3006,0,0.3393,0.0472,0.1695,0.2069c-0.1396,0.1313-0.1404,0.1304-0.306-0.0528L13.1289,35.2985z
		 M9.5343,35.3623c0.1353-0.0012,0.1312,0.0116-0.044,0.1827c-0.1344,0.1312-0.1506,0.1341-0.1871,0.0352
		C9.2595,35.4619,9.3643,35.3639,9.5343,35.3623z M14.0887,35.3799c0.0457-0.0004,0.1396,0.01,0.2443,0.0286l0.2553,0.044
		l-0.1475,0.1431l-0.1453,0.1431l-0.1277-0.1673c-0.0699-0.0923-0.1186-0.176-0.1079-0.1871
		C14.0627,35.3816,14.0735,35.3801,14.0887,35.3799z M9.8667,35.435c0.0361-0.0061,0.068,0.0233,0.1299,0.0814
		c0.118,0.111,0.1194,0.1212,0.0176,0.1629c-0.0594,0.0243-0.1887,0.046-0.2862,0.0484l-0.1761,0.0044l0.1607-0.1673
		C9.7917,35.4827,9.8306,35.4411,9.8667,35.435z M13.8686,35.468c0.0414-0.0023,0.0742,0.0331,0.1321,0.1145l0.1079,0.1497H13.862
		c-0.1606,0-0.2374-0.0256-0.2223-0.0726c0.0127-0.0396,0.075-0.1066,0.1387-0.1497C13.8159,35.4844,13.8437,35.4694,13.8686,35.468
		z M14.6214,35.6265c0.0131,0.003,0.0154,0.0245,0.0154,0.0638c0,0.1155-0.0961,0.1912-0.1431,0.1123
		c-0.0183-0.0307,0.0063-0.09,0.055-0.1321C14.5848,35.6394,14.6082,35.6235,14.6214,35.6265z M11.5771,35.7674
		c1.0179-0.0011,2.1499,0.0665,2.8066,0.1893l0.1937,0.0374v0.5173c0,0.3785-0.0184,0.5169-0.0726,0.5107
		c-0.0409-0.0047-0.3029-0.0585-0.5811-0.1211c-0.8395-0.1888-1.7887-0.2618-2.8572-0.2179
		c-0.5401,0.0222-1.1053,0.0628-1.2569,0.0902L9.5321,36.824l-0.0682-0.4314c-0.0376-0.2368-0.0589-0.4382-0.0484-0.4491
		c0.0104-0.0108,0.2714-0.055,0.5811-0.0969C10.3954,35.7928,10.9663,35.768,11.5771,35.7674z"/>
	<path id="path7067" d="M13.6264,32.8243c-0.348,0-0.5965,0.2568-0.5965,0.6185c0,0.5636,0.6336,0.8365,1.017,0.438
		C14.4302,33.4824,14.1687,32.8243,13.6264,32.8243z M13.6242,32.9696c0.2571-0.0102,0.4777,0.1899,0.4777,0.4799
		c0,0.3394-0.3928,0.576-0.6956,0.4182c-0.3239-0.1687-0.2998-0.7111,0.0374-0.8563
		C13.5048,32.9851,13.5649,32.9719,13.6242,32.9696z"/>
	<g>
		<path id="path7067_1_" d="M11.2708,32.7539c-0.348,0-0.5965,0.2568-0.5965,0.6185c0,0.5636,0.6336,0.8365,1.017,0.438
			C12.0746,33.412,11.8131,32.7539,11.2708,32.7539z M11.2686,32.8991c0.2571-0.0102,0.4777,0.1899,0.4777,0.4799
			c0,0.3394-0.3928,0.576-0.6956,0.4182c-0.3239-0.1687-0.2998-0.7111,0.0374-0.8563
			C11.1492,32.9147,11.2093,32.9015,11.2686,32.8991z"/>
	</g>
	<path d="M9.312,24.3143c-0.1057,0.0081-0.1873,0.0984-0.1871,0.2069c0,0.1145,0.0907,0.2073,0.2025,0.2073
		s0.2025-0.0928,0.2025-0.2073c0.0003-0.1144-0.0901-0.2073-0.2018-0.2075C9.3228,24.3137,9.3174,24.3139,9.312,24.3143z
		 M9.3252,24.387c0.0736,0.0022,0.1321,0.0617,0.1321,0.1343c0.0001,0.0743-0.0609,0.1346-0.1363,0.1348
		c-0.0754,0.0001-0.1366-0.06-0.1367-0.1343c0-0.0001,0-0.0003,0-0.0004c-0.0001-0.0741,0.0608-0.1343,0.136-0.1344
		C9.3219,24.3869,9.3236,24.3869,9.3252,24.387z"/>
</g>
</svg>
